<svg id="Layer_1" data-name="Layer 1" xmlns="http://www.w3.org/2000/svg" viewBox="0 0 288.65 288.63"><defs><style>.cls-1{fill:none;}.cls-1,.cls-2{stroke:#000;stroke-miterlimit:10;}</style></defs><title>2d image filtering</title><rect class="cls-1" x="0.56" y="0.62" width="287.65" height="287.63"/><circle class="cls-2" cx="144.38" cy="144.44" r="5.17"/><circle class="cls-1" cx="248.25" cy="31.53" r="5.17"/><line class="cls-1" x1="0.35" y1="144.17" x2="288.02" y2="144.17"/><line class="cls-1" x1="144.29" y1="0.59" x2="144.29" y2="288.15"/><circle class="cls-1" cx="181.42" cy="114.06" r="5.17"/><circle class="cls-1" cx="37.84" cy="263.58" r="5.17"/><circle class="cls-1" cx="37.18" cy="20.49" r="5.17"/><circle class="cls-1" cx="101.51" cy="27.8" r="5.17"/><circle class="cls-1" cx="37.32" cy="94.83" r="5.17"/><circle class="cls-1" cx="93.49" cy="171.7" r="5.17"/><circle class="cls-1" cx="93.74" cy="257.37" r="5.17"/><circle class="cls-1" cx="16.36" cy="162.38" r="5.17"/><circle class="cls-1" cx="118.88" cy="85.99" r="5.17"/><circle class="cls-1" cx="233.96" cy="128.27" r="5.17"/><circle class="cls-1" cx="243.8" cy="243.46" r="5.17"/><circle class="cls-1" cx="186.66" cy="189.04" r="5.17"/><circle class="cls-1" cx="256.8" cy="174.29" r="5.17"/><circle class="cls-1" cx="176.83" cy="262.8" r="5.17"/><circle class="cls-1" cx="175.79" cy="15.63" r="5.17"/><path d="M153.83,149.86a13.19,13.19,0,0,0-2.52,8.18,13.48,13.48,0,0,0,2.52,8.12h-1.38a12.93,12.93,0,0,1-2.62-8.12,13.2,13.2,0,0,1,2.62-8.18Z"/><path d="M156.51,154.06l1.38,2.08c.36.54.66,1,1,1.58h.06c.32-.58.64-1.08,1-1.6l1.36-2.06h1.9l-3.3,4.68,3.4,5h-2l-1.42-2.18c-.38-.56-.7-1.1-1-1.68h0c-.32.58-.66,1.1-1,1.68l-1.4,2.18h-1.94l3.44-4.94-3.28-4.74Z"/><path d="M163.81,166.2a28.78,28.78,0,0,0,1.2-4.78l2-.2a24.38,24.38,0,0,1-1.9,4.86Z"/><path d="M169.73,154.06l2.12,5.72c.22.64.46,1.4.62,2h0c.18-.58.38-1.32.62-2l1.92-5.68h1.86l-2.64,6.9c-1.26,3.32-2.12,5-3.32,6.06a4.77,4.77,0,0,1-2.16,1.14l-.44-1.48a4.66,4.66,0,0,0,1.54-.86,5.34,5.34,0,0,0,1.48-2,1.26,1.26,0,0,0,.14-.42,1.53,1.53,0,0,0-.12-.46l-3.58-8.92Z"/><path d="M177.45,166.16A13.54,13.54,0,0,0,180,158a13.26,13.26,0,0,0-2.52-8.12h1.36a12.74,12.74,0,0,1,2.62,8.14,13,13,0,0,1-2.62,8.16Z"/><path d="M153.12,65.46c0-1.14,0-2.12-.08-3h1.54l.06,1.9h.08a2.9,2.9,0,0,1,2.68-2.12,1.9,1.9,0,0,1,.5.06v1.66a2.64,2.64,0,0,0-.6-.06,2.47,2.47,0,0,0-2.36,2.26,5,5,0,0,0-.08.82v5.16h-1.74Z"/><path d="M164.92,72.12l-.14-1.22h-.06a3.61,3.61,0,0,1-3,1.44,2.76,2.76,0,0,1-3-2.78c0-2.34,2.08-3.62,5.82-3.6v-.2a2,2,0,0,0-2.2-2.24,4.82,4.82,0,0,0-2.52.72l-.4-1.16a6,6,0,0,1,3.18-.86c3,0,3.68,2,3.68,4V69.8a13.63,13.63,0,0,0,.16,2.32Zm-.26-4.94c-1.92,0-4.1.3-4.1,2.18A1.56,1.56,0,0,0,162.22,71a2.41,2.41,0,0,0,2.34-1.62,1.84,1.84,0,0,0,.1-.56Z"/><path d="M177.56,57.92v11.7c0,.86,0,1.84.08,2.5h-1.58L176,70.44h0a3.58,3.58,0,0,1-3.3,1.9c-2.34,0-4.14-2-4.14-4.92,0-3.22,2-5.2,4.34-5.2a3.24,3.24,0,0,1,2.92,1.48h0V57.92Zm-1.76,8.46a3.11,3.11,0,0,0-.08-.74,2.59,2.59,0,0,0-2.54-2c-1.82,0-2.9,1.6-2.9,3.74,0,2,1,3.58,2.86,3.58a2.65,2.65,0,0,0,2.58-2.1,3.06,3.06,0,0,0,.08-.76Z"/><path d="M182.44,59.72a1.09,1.09,0,0,1-2.18,0,1.07,1.07,0,0,1,1.1-1.1A1,1,0,0,1,182.44,59.72Zm-2,12.4V62.44h1.76v9.68Z"/><path d="M193.26,69.48c0,1,0,1.88.08,2.64h-1.56l-.1-1.58h0a3.64,3.64,0,0,1-3.2,1.8c-1.52,0-3.34-.84-3.34-4.24V62.44h1.76V67.8c0,1.84.56,3.08,2.16,3.08a2.54,2.54,0,0,0,2.32-1.6,2.57,2.57,0,0,0,.16-.9V62.44h1.76Z"/><path d="M195.94,70.32a4.61,4.61,0,0,0,2.32.7c1.28,0,1.88-.64,1.88-1.44s-.5-1.3-1.8-1.78c-1.74-.62-2.56-1.58-2.56-2.74,0-1.56,1.26-2.84,3.34-2.84a4.83,4.83,0,0,1,2.38.6l-.44,1.28a3.77,3.77,0,0,0-2-.56c-1,0-1.62.6-1.62,1.32S198,66,199.3,66.5c1.68.64,2.54,1.48,2.54,2.92,0,1.7-1.32,2.9-3.62,2.9a5.52,5.52,0,0,1-2.72-.66Z"/><path d="M203.46,71.08a1.18,1.18,0,0,1,1.2-1.26,1.26,1.26,0,1,1-1.2,1.26Z"/><path d="M208.66,62.44l2.12,5.72c.22.64.46,1.4.62,2h0c.18-.58.38-1.32.62-2L214,62.44h1.86l-2.64,6.9c-1.26,3.32-2.12,5-3.32,6.06a4.77,4.77,0,0,1-2.16,1.14l-.44-1.48a4.66,4.66,0,0,0,1.54-.86,5.34,5.34,0,0,0,1.48-2,1.26,1.26,0,0,0,.14-.42,1.53,1.53,0,0,0-.12-.46l-3.58-8.92Z"/><path d="M42.34,133.27c0-1.14,0-2.12-.08-3H43.8l.06,1.9h.08A2.9,2.9,0,0,1,46.62,130a1.9,1.9,0,0,1,.5.06v1.66a2.64,2.64,0,0,0-.6-.06A2.47,2.47,0,0,0,44.16,134a5,5,0,0,0-.08.82v5.16H42.34Z"/><path d="M54.14,139.93,54,138.71h-.06a3.61,3.61,0,0,1-3,1.44,2.76,2.76,0,0,1-3-2.78c0-2.34,2.08-3.62,5.82-3.6v-.2a2,2,0,0,0-2.2-2.24,4.82,4.82,0,0,0-2.52.72l-.4-1.16A6,6,0,0,1,51.9,130c3,0,3.68,2,3.68,4v3.62a13.63,13.63,0,0,0,.16,2.32ZM53.88,135c-1.92,0-4.1.3-4.1,2.18a1.56,1.56,0,0,0,1.66,1.68,2.41,2.41,0,0,0,2.34-1.62,1.84,1.84,0,0,0,.1-.56Z"/><path d="M66.78,125.73v11.7c0,.86,0,1.84.08,2.5H65.28l-.08-1.68h0a3.58,3.58,0,0,1-3.3,1.9c-2.34,0-4.14-2-4.14-4.92,0-3.22,2-5.2,4.34-5.2A3.24,3.24,0,0,1,65,131.51h0v-5.78ZM65,134.19a3.11,3.11,0,0,0-.08-.74,2.59,2.59,0,0,0-2.54-2c-1.82,0-2.9,1.6-2.9,3.74,0,2,1,3.58,2.86,3.58a2.65,2.65,0,0,0,2.58-2.1,3.06,3.06,0,0,0,.08-.76Z"/><path d="M71.66,127.53a1.09,1.09,0,0,1-2.18,0,1.07,1.07,0,0,1,1.1-1.1A1,1,0,0,1,71.66,127.53Zm-2,12.4v-9.68h1.76v9.68Z"/><path d="M82.48,137.29c0,1,0,1.88.08,2.64H81l-.1-1.58h0a3.64,3.64,0,0,1-3.2,1.8c-1.52,0-3.34-.84-3.34-4.24v-5.66h1.76v5.36c0,1.84.56,3.08,2.16,3.08a2.54,2.54,0,0,0,2.32-1.6,2.57,2.57,0,0,0,.16-.9v-5.94h1.76Z"/><path d="M85.16,138.13a4.61,4.61,0,0,0,2.32.7c1.28,0,1.88-.64,1.88-1.44s-.5-1.3-1.8-1.78C85.82,135,85,134,85,132.87c0-1.56,1.26-2.84,3.34-2.84a4.83,4.83,0,0,1,2.38.6l-.44,1.28a3.77,3.77,0,0,0-2-.56c-1,0-1.62.6-1.62,1.32s.58,1.16,1.84,1.64c1.68.64,2.54,1.48,2.54,2.92,0,1.7-1.32,2.9-3.62,2.9a5.52,5.52,0,0,1-2.72-.66Z"/><path d="M92.68,138.89a1.18,1.18,0,0,1,1.2-1.26,1.26,1.26,0,1,1-1.2,1.26Z"/><path d="M98.06,130.25l1.38,2.08c.36.54.66,1,1,1.58h.06c.32-.58.64-1.08,1-1.6l1.36-2.06h1.9l-3.3,4.68,3.4,5h-2l-1.42-2.18c-.38-.56-.7-1.1-1-1.68h0c-.32.58-.66,1.1-1,1.68l-1.4,2.18H95.94L99.38,135l-3.28-4.74Z"/><path d="M91.46,178.85A13.19,13.19,0,0,0,88.94,187a13.48,13.48,0,0,0,2.52,8.12H90.08A12.93,12.93,0,0,1,87.46,187a13.14,13.14,0,0,1,2.62-8.18Z"/><path d="M94.14,183.05l1.38,2.08c.36.54.66,1,1,1.58h.06c.32-.58.64-1.08,1-1.6l1.36-2.06h1.9l-3.3,4.68,3.4,5h-2l-1.42-2.18c-.38-.56-.7-1.1-1-1.68h0c-.32.58-.66,1.1-1,1.68L94,192.73H92l3.44-4.94-3.28-4.74Z"/><path d="M103.11,188.16a.64.64,0,0,1-1.27,0,.63.63,0,0,1,.64-.64A.61.61,0,0,1,103.11,188.16ZM102,195.39v-5.64h1v5.64Z"/><path d="M104.16,195.19a28.78,28.78,0,0,0,1.2-4.78l2-.2a24.38,24.38,0,0,1-1.9,4.86Z"/><path d="M114.32,183.05l2.12,5.72c.22.64.46,1.4.62,2h0c.18-.58.38-1.32.62-2l1.92-5.68h1.87l-2.65,6.9c-1.26,3.32-2.12,5-3.32,6.06a4.77,4.77,0,0,1-2.16,1.14l-.44-1.48a4.66,4.66,0,0,0,1.54-.86,5.34,5.34,0,0,0,1.48-2,1.26,1.26,0,0,0,.14-.42A1.53,1.53,0,0,0,116,192l-3.58-8.92Z"/><path d="M123.64,188.16a.61.61,0,0,1-.66.63.6.6,0,0,1-.61-.63.62.62,0,0,1,.64-.64A.61.61,0,0,1,123.64,188.16Zm-1.15,7.23v-5.64h1v5.64Z"/><path d="M124.77,195.15a13.54,13.54,0,0,0,2.52-8.18,13.26,13.26,0,0,0-2.52-8.12h1.36a12.74,12.74,0,0,1,2.62,8.14,13,13,0,0,1-2.62,8.16Z"/></svg>