<svg id="Layer_1" data-name="Layer 1" xmlns="http://www.w3.org/2000/svg" viewBox="0 0 299.87 306.96"><defs><style>.cls-1{fill:none;}.cls-1,.cls-2{stroke:#000;stroke-miterlimit:10;}.cls-2{fill:#fff;}</style></defs><title>Crop window</title><rect class="cls-1" x="16.92" y="23.09" width="260.52" height="260.5"/><rect class="cls-1" x="65.76" y="82.27" width="169.05" height="106.69"/><circle class="cls-2" cx="65.74" cy="82.71" r="5.17"/><circle class="cls-2" cx="234.67" cy="189.02" r="5.17"/><path d="M5.28,2.86A13.19,13.19,0,0,0,2.76,11a13.48,13.48,0,0,0,2.52,8.12H3.9A12.93,12.93,0,0,1,1.28,11,13.2,13.2,0,0,1,3.9,2.86Z"/><path d="M15.22,10.1c0,4.42-1.64,6.86-4.52,6.86-2.54,0-4.26-2.38-4.3-6.68s1.88-6.76,4.52-6.76S15.22,6,15.22,10.1Zm-7.06.2c0,3.38,1,5.3,2.64,5.3,1.8,0,2.66-2.1,2.66-5.42s-.82-5.3-2.64-5.3C9.28,4.88,8.16,6.76,8.16,10.3Z"/><path d="M16.26,19.2a28.78,28.78,0,0,0,1.2-4.78l2-.2a24.38,24.38,0,0,1-1.9,4.86Z"/><path d="M29.62,10.1C29.62,14.52,28,17,25.1,17c-2.54,0-4.26-2.38-4.3-6.68s1.88-6.76,4.52-6.76S29.62,6,29.62,10.1Zm-7.06.2c0,3.38,1,5.3,2.64,5.3,1.8,0,2.66-2.1,2.66-5.42s-.82-5.3-2.64-5.3C23.68,4.88,22.56,6.76,22.56,10.3Z"/><path d="M30.74,19.16A13.54,13.54,0,0,0,33.26,11a13.26,13.26,0,0,0-2.52-8.12H32.1A12.74,12.74,0,0,1,34.72,11a13,13,0,0,1-2.62,8.16Z"/><path d="M43.84,56.21a13.19,13.19,0,0,0-2.52,8.18,13.48,13.48,0,0,0,2.52,8.12H42.46a12.93,12.93,0,0,1-2.62-8.12,13.2,13.2,0,0,1,2.62-8.18Z"/><path d="M46.52,60.41l1.38,2.08c.36.54.66,1,1,1.58h.06c.32-.58.64-1.08,1-1.6l1.36-2.06h1.9l-3.3,4.68,3.4,5h-2l-1.42-2.18c-.38-.56-.7-1.1-1-1.68h0c-.32.58-.66,1.1-1,1.68l-1.4,2.18H44.4l3.44-4.94-3.28-4.74Z"/><path d="M54,69.15c0-2.48,1.14-4,2.94-4s2.86,1.52,2.86,3.94-1,4.06-2.94,4.06C55.06,73.13,54,71.63,54,69.15Zm4.4-.06c0-1.86-.5-2.94-1.5-2.94s-1.5,1.08-1.5,2.94.58,3,1.48,3S58.36,71,58.36,69.09Z"/><path d="M60.54,72.55a28.78,28.78,0,0,0,1.2-4.78l2-.2a24.38,24.38,0,0,1-1.9,4.86Z"/><path d="M70.7,60.41l2.12,5.72c.22.64.46,1.4.62,2h0c.18-.58.38-1.32.62-2L76,60.41h1.86l-2.64,6.9c-1.26,3.32-2.12,5-3.32,6.06a4.77,4.77,0,0,1-2.16,1.14L69.32,73a4.66,4.66,0,0,0,1.54-.86,5.34,5.34,0,0,0,1.48-2,1.26,1.26,0,0,0,.14-.42,1.53,1.53,0,0,0-.12-.46l-3.58-8.92Z"/><path d="M78.48,69.15c0-2.48,1.14-4,2.94-4s2.86,1.52,2.86,3.94-1,4.06-2.94,4.06C79.58,73.13,78.48,71.63,78.48,69.15Zm4.4-.06c0-1.86-.5-2.94-1.5-2.94s-1.5,1.08-1.5,2.94.58,3,1.48,3S82.88,71,82.88,69.09Z"/><path d="M85.14,72.51a13.54,13.54,0,0,0,2.52-8.18,13.26,13.26,0,0,0-2.52-8.12H86.5a12.74,12.74,0,0,1,2.62,8.14,13,13,0,0,1-2.62,8.16Z"/><path d="M214.18,194.59a13.19,13.19,0,0,0-2.52,8.18,13.53,13.53,0,0,0,2.52,8.13H212.8a13,13,0,0,1-2.62-8.13,13.2,13.2,0,0,1,2.62-8.18Z"/><path d="M216.86,198.79l1.38,2.08c.36.54.66,1,1,1.58h.06c.32-.58.64-1.08,1-1.6l1.36-2.06h1.9l-3.3,4.68,3.4,5h-2l-1.42-2.18c-.38-.56-.7-1.1-1-1.68h0c-.32.58-.66,1.1-1,1.68l-1.4,2.18h-1.94l3.44-4.94-3.28-4.74Z"/><path d="M226,211.42v-6.59h0l-1.44.7-.22-1,1.88-.88h1.22v7.81Z"/><path d="M229,210.94a29.15,29.15,0,0,0,1.2-4.79l2-.2a24.5,24.5,0,0,1-1.9,4.87Z"/><path d="M239.2,198.79l2.12,5.72c.22.64.46,1.4.62,2h0c.18-.58.38-1.32.62-2l1.92-5.68h1.86l-2.64,6.9c-1.26,3.32-2.12,5-3.32,6.06a4.71,4.71,0,0,1-2.16,1.15l-.44-1.48a4.53,4.53,0,0,0,1.54-.87,5.25,5.25,0,0,0,1.48-2,1.2,1.2,0,0,0,.14-.42,1.53,1.53,0,0,0-.12-.46l-3.58-8.92Z"/><path d="M248.66,211.42v-6.59h0l-1.44.7-.22-1,1.88-.88h1.22v7.81Z"/><path d="M251.8,210.9a13.57,13.57,0,0,0,2.52-8.19,13.26,13.26,0,0,0-2.52-8.12h1.36a12.74,12.74,0,0,1,2.62,8.14,13,13,0,0,1-2.62,8.17Z"/><path d="M264.89,288.08a13.19,13.19,0,0,0-2.52,8.18,13.48,13.48,0,0,0,2.52,8.12h-1.38a12.93,12.93,0,0,1-2.62-8.12,13.2,13.2,0,0,1,2.62-8.18Z"/><path d="M270,290.6h0l-2.26,1.22-.34-1.34,2.84-1.52h1.5v13H270Z"/><path d="M275.87,304.42a28.78,28.78,0,0,0,1.2-4.78l2-.2a24.38,24.38,0,0,1-1.9,4.86Z"/><path d="M288.65,290.6h0l-2.26,1.22-.34-1.34,2.84-1.52h1.5v13h-1.7Z"/><path d="M294.59,304.38a13.54,13.54,0,0,0,2.52-8.18,13.26,13.26,0,0,0-2.52-8.12H296a12.74,12.74,0,0,1,2.62,8.14,13,13,0,0,1-2.62,8.16Z"/></svg>