<svg id="Layer_1" data-name="Layer 1" xmlns="http://www.w3.org/2000/svg" viewBox="0 0 731.09 333.96"><defs><style>.cls-1{fill:none;}.cls-1,.cls-2{stroke:#000;stroke-miterlimit:10;}.cls-3{fill:#a6a6a6;}.cls-4{fill:#666;}</style></defs><title>Sampler ndimensional</title><rect class="cls-1" x="48.21" y="0.5" width="276.26" height="314.17"/><path d="M356.9,45.2V29.26h3.66v1.1h-2.3V44.1h2.3v1.1Z"/><path d="M363.22,33.28l1.38,2.08c.36.54.66,1,1,1.58h.06c.32-.58.64-1.08,1-1.6L368,33.28h1.9L366.56,38l3.4,5h-2l-1.42-2.18c-.38-.56-.7-1.1-1-1.68h0c-.32.58-.66,1.1-1,1.68L363,43H361.1L364.54,38l-3.28-4.74Z"/><path d="M370.52,45.42a28.78,28.78,0,0,0,1.2-4.78l2-.2a24.38,24.38,0,0,1-1.9,4.86Z"/><path d="M380.68,33.28,382.8,39c.22.64.46,1.4.62,2h0c.18-.58.38-1.32.62-2L386,33.28h1.86l-2.64,6.9c-1.26,3.32-2.12,5-3.32,6.06a4.77,4.77,0,0,1-2.16,1.14l-.44-1.48a4.66,4.66,0,0,0,1.54-.86,5.34,5.34,0,0,0,1.48-2,1.26,1.26,0,0,0,.14-.42,1.53,1.53,0,0,0-.12-.46l-3.58-8.92Z"/><path d="M387.54,45.42a28.78,28.78,0,0,0,1.2-4.78l2-.2a24.38,24.38,0,0,1-1.9,4.86Z"/><path d="M399.18,30.5v2.78h2.52v1.34h-2.52v5.22c0,1.2.34,1.88,1.32,1.88a3.92,3.92,0,0,0,1-.12l.08,1.32a4.31,4.31,0,0,1-1.56.24,2.44,2.44,0,0,1-1.9-.74,3.59,3.59,0,0,1-.68-2.52V34.62H396V33.28h1.5V31Z"/><path d="M402.48,45.42a28.78,28.78,0,0,0,1.2-4.78l2-.2a24.38,24.38,0,0,1-1.9,4.86Z"/><path d="M420.1,40.32c0,1,0,1.88.08,2.64h-1.56l-.1-1.58h0a3.64,3.64,0,0,1-3.2,1.8c-1.52,0-3.34-.84-3.34-4.24V33.28h1.76v5.36c0,1.84.56,3.08,2.16,3.08a2.54,2.54,0,0,0,2.32-1.6,2.57,2.57,0,0,0,.16-.9V33.28h1.76Z"/><path d="M421.72,45.42a30.9,30.9,0,0,0,1.2-4.78l2-.2A24.38,24.38,0,0,1,423,45.3Z"/><path d="M431.92,33.28l1.9,5.44a24.89,24.89,0,0,1,.78,2.48h.06c.22-.8.5-1.6.82-2.48l1.88-5.44h1.84L435.4,43h-1.68L430,33.28Z"/><path d="M438.94,45.42a30.9,30.9,0,0,0,1.2-4.78l2-.2a23.75,23.75,0,0,1-1.91,4.86Z"/><path d="M448.63,45.2V29.26h3.66v1.1H450V44.1h2.3v1.1Z"/><path d="M458,29.08a13.19,13.19,0,0,0-2.52,8.18A13.41,13.41,0,0,0,458,45.38h-1.39A12.93,12.93,0,0,1,454,37.26a13.2,13.2,0,0,1,2.62-8.18Z"/><path d="M467.92,40.32c0,1,0,1.88.08,2.64h-1.56l-.1-1.58h0a3.66,3.66,0,0,1-3.2,1.8c-1.53,0-3.35-.84-3.35-4.24V33.28h1.77v5.36c0,1.84.55,3.08,2.16,3.08a2.48,2.48,0,0,0,2.48-2.5V33.28h1.76Z"/><path d="M469.83,42c0-2.48,1.14-4,2.94-4s2.87,1.52,2.87,3.94-1,4.06-2.95,4.06C470.93,46,469.83,44.5,469.83,42Zm4.4-.06c0-1.86-.5-2.94-1.5-2.94s-1.5,1.08-1.5,2.94.58,3,1.48,3S474.23,43.86,474.23,42Z"/><path d="M476.41,45.42a28.78,28.78,0,0,0,1.2-4.78l2-.2a24.38,24.38,0,0,1-1.9,4.86Z"/><path d="M494,40.32c0,1,0,1.88.07,2.64h-1.55l-.11-1.58h0a3.64,3.64,0,0,1-3.2,1.8c-1.52,0-3.34-.84-3.34-4.24V33.28h1.76v5.36c0,1.84.56,3.08,2.16,3.08a2.54,2.54,0,0,0,2.32-1.6,2.57,2.57,0,0,0,.16-.9V33.28H494Z"/><path d="M497.63,45.9V39.32h0l-1.44.7-.22-1,1.88-.88H499v7.8Z"/><path d="M500.77,45.38a13.54,13.54,0,0,0,2.52-8.18,13.26,13.26,0,0,0-2.52-8.12h1.36a12.74,12.74,0,0,1,2.62,8.14,13,13,0,0,1-2.62,8.16Z"/><path d="M506.37,45.42a28.78,28.78,0,0,0,1.2-4.78l2-.2a24.38,24.38,0,0,1-1.9,4.86Z"/><path d="M519.71,29.08a13.19,13.19,0,0,0-2.52,8.18,13.48,13.48,0,0,0,2.52,8.12h-1.38a12.93,12.93,0,0,1-2.62-8.12,13.2,13.2,0,0,1,2.62-8.18Z"/><path d="M529.67,40.32c0,1,0,1.88.08,2.64h-1.56l-.1-1.58h0a3.64,3.64,0,0,1-3.2,1.8c-1.52,0-3.34-.84-3.34-4.24V33.28h1.76v5.36c0,1.84.56,3.08,2.16,3.08a2.54,2.54,0,0,0,2.32-1.6,2.57,2.57,0,0,0,.16-.9V33.28h1.76Z"/><path d="M531.37,45.16,532.63,44c1.66-1.5,2.52-2.44,2.52-3.46a1.36,1.36,0,0,0-1.52-1.4,3.06,3.06,0,0,0-1.68.62l-.42-.9A3.88,3.88,0,0,1,534,38c1.88,0,2.66,1.18,2.66,2.26,0,1.5-1.14,2.6-2.66,3.94l-.62.56v0h3.42v1.1h-5.4Z"/><path d="M537.67,45.42a28.78,28.78,0,0,0,1.2-4.78l2-.2a24.38,24.38,0,0,1-1.9,4.86Z"/><path d="M555.29,40.32c0,1,0,1.88.08,2.64h-1.56l-.1-1.58h0a3.64,3.64,0,0,1-3.2,1.8c-1.52,0-3.34-.84-3.34-4.24V33.28h1.76v5.36c0,1.84.56,3.08,2.16,3.08a2.54,2.54,0,0,0,2.32-1.6,2.57,2.57,0,0,0,.16-.9V33.28h1.76Z"/><path d="M557.31,38.62a4.45,4.45,0,0,1,2.3-.62c1.72,0,2.44.92,2.44,1.88a2,2,0,0,1-1.54,1.8v0a2,2,0,0,1,1.86,1.94c0,1.24-1.12,2.34-3.16,2.34a4.42,4.42,0,0,1-2.28-.56l.36-1a3.75,3.75,0,0,0,1.86.52c1.22,0,1.76-.72,1.74-1.34,0-1-1.06-1.4-2.12-1.4h-.54V41.3h.56c.74,0,1.8-.34,1.82-1.28,0-.48-.36-1-1.26-1a3.22,3.22,0,0,0-1.7.52Z"/><path d="M563.25,45.38a13.54,13.54,0,0,0,2.52-8.18,13.26,13.26,0,0,0-2.52-8.12h1.36a12.74,12.74,0,0,1,2.62,8.14,13,13,0,0,1-2.62,8.16Z"/><path d="M568.85,45.42a28.78,28.78,0,0,0,1.2-4.78l2-.2a24.38,24.38,0,0,1-1.9,4.86Z"/><path d="M582.19,29.08a13.19,13.19,0,0,0-2.52,8.18,13.48,13.48,0,0,0,2.52,8.12h-1.38a12.93,12.93,0,0,1-2.62-8.12,13.2,13.2,0,0,1,2.62-8.18Z"/><path d="M592.15,40.32c0,1,0,1.88.08,2.64h-1.56l-.1-1.58h0a3.64,3.64,0,0,1-3.2,1.8c-1.52,0-3.34-.84-3.34-4.24V33.28h1.76v5.36c0,1.84.56,3.08,2.16,3.08a2.54,2.54,0,0,0,2.32-1.6,2.57,2.57,0,0,0,.16-.9V33.28h1.76Z"/><path d="M597.71,45.9V43.84h-3.78V43l3.54-5h1.58v4.8h1.12v1h-1.12V45.9Zm0-5.4c0-.44,0-.86.06-1.26h0a12.36,12.36,0,0,1-.68,1.18l-1.74,2.4,0,0h2.38Z"/><path d="M600.87,45.42a28.78,28.78,0,0,0,1.2-4.78l2-.2a24.38,24.38,0,0,1-1.9,4.86Z"/><path d="M618.49,40.32c0,1,0,1.88.08,2.64H617l-.1-1.58h0a3.64,3.64,0,0,1-3.2,1.8c-1.52,0-3.34-.84-3.34-4.24V33.28h1.76v5.36c0,1.84.56,3.08,2.16,3.08a2.54,2.54,0,0,0,2.32-1.6,2.57,2.57,0,0,0,.16-.9V33.28h1.76Z"/><path d="M625.31,39.2h-3.1L622,40.9a4.81,4.81,0,0,1,.62,0,3.53,3.53,0,0,1,1.84.44,2.23,2.23,0,0,1,1.12,2c0,1.54-1.26,2.68-3.12,2.68a4.48,4.48,0,0,1-2.08-.48l.28-1a3.78,3.78,0,0,0,1.78.44,1.63,1.63,0,0,0,1.76-1.52c0-.94-.64-1.6-2.26-1.6-.46,0-.84.06-1.14.08l.52-3.82h4Z"/><path d="M626.51,45.38A13.54,13.54,0,0,0,629,37.2a13.26,13.26,0,0,0-2.52-8.12h1.36a12.74,12.74,0,0,1,2.62,8.14,13,13,0,0,1-2.62,8.16Z"/><path d="M632.11,45.42a28.78,28.78,0,0,0,1.2-4.78l2-.2a24.38,24.38,0,0,1-1.9,4.86Z"/><path d="M645.45,29.08a13.19,13.19,0,0,0-2.52,8.18,13.48,13.48,0,0,0,2.52,8.12h-1.38a12.93,12.93,0,0,1-2.62-8.12,13.2,13.2,0,0,1,2.62-8.18Z"/><path d="M655.41,40.32c0,1,0,1.88.08,2.64h-1.56l-.1-1.58h0a3.64,3.64,0,0,1-3.2,1.8c-1.52,0-3.34-.84-3.34-4.24V33.28H649v5.36c0,1.84.56,3.08,2.16,3.08a2.54,2.54,0,0,0,2.32-1.6,2.57,2.57,0,0,0,.16-.9V33.28h1.76Z"/><path d="M662.21,39.06a5.77,5.77,0,0,0-.8,0,3,3,0,0,0-2.7,2.44h0a2.48,2.48,0,0,1,1.88-.82,2.35,2.35,0,0,1,2.44,2.5A2.72,2.72,0,0,1,660.29,46c-1.86,0-3-1.4-3-3.34a4.66,4.66,0,0,1,1.36-3.46,4.34,4.34,0,0,1,2.72-1.14,3.92,3.92,0,0,1,.8,0Zm-.52,4.24a1.47,1.47,0,0,0-1.52-1.62,1.61,1.61,0,0,0-1.42.9.87.87,0,0,0-.1.42c0,1.08.56,2,1.62,2A1.51,1.51,0,0,0,661.69,43.3Z"/><path d="M663.83,45.42a28.78,28.78,0,0,0,1.2-4.78l2-.2a24.38,24.38,0,0,1-1.9,4.86Z"/><path d="M681.45,40.32c0,1,0,1.88.08,2.64H680l-.1-1.58h0a3.64,3.64,0,0,1-3.2,1.8c-1.52,0-3.34-.84-3.34-4.24V33.28h1.76v5.36c0,1.84.56,3.08,2.16,3.08a2.54,2.54,0,0,0,2.32-1.6,2.57,2.57,0,0,0,.16-.9V33.28h1.76Z"/><path d="M688.55,38.1V39l-3.42,6.94h-1.42l3.42-6.68v0h-3.84V38.1Z"/><path d="M689.19,45.38a13.54,13.54,0,0,0,2.52-8.18,13.26,13.26,0,0,0-2.52-8.12h1.36a12.74,12.74,0,0,1,2.62,8.14,13,13,0,0,1-2.62,8.16Z"/><path d="M698.51,29.24v16h-3.66V44.1h2.3V30.34h-2.3v-1.1Z"/><path d="M5.28,315.08a13.19,13.19,0,0,0-2.52,8.18,13.48,13.48,0,0,0,2.52,8.12H3.9a12.93,12.93,0,0,1-2.62-8.12,13.2,13.2,0,0,1,2.62-8.18Z"/><path d="M7,326.94a5.88,5.88,0,0,0,2.88.82c2.26,0,3-1.44,2.94-2.52,0-1.82-1.66-2.6-3.36-2.6h-1v-1.32h1c1.28,0,2.9-.66,2.9-2.2,0-1-.66-2-2.28-2a4.77,4.77,0,0,0-2.6.86L7,316.74a6.18,6.18,0,0,1,3.4-1c2.56,0,3.72,1.52,3.72,3.1a3.23,3.23,0,0,1-2.4,3.06v0a3.39,3.39,0,0,1,2.9,3.34c0,2.08-1.62,3.9-4.74,3.9a6.61,6.61,0,0,1-3.38-.88Z"/><path d="M16.26,331.42a28.78,28.78,0,0,0,1.2-4.78l2-.2a24.38,24.38,0,0,1-1.9,4.86Z"/><path d="M25.06,325.66a3.71,3.71,0,0,1,2.58-3.48l0-.06a3.22,3.22,0,0,1-2.06-2.92c0-2.06,1.74-3.46,4-3.46,2.52,0,3.78,1.58,3.78,3.2a3.3,3.3,0,0,1-2.14,3V322a3.6,3.6,0,0,1,2.62,3.36c0,2.26-1.94,3.78-4.42,3.78C26.7,329.18,25.06,327.56,25.06,325.66Zm7-.08c0-1.58-1.1-2.34-2.86-2.84a2.82,2.82,0,0,0-2.34,2.68,2.4,2.4,0,0,0,2.6,2.48A2.35,2.35,0,0,0,32.06,325.58Zm-4.84-6.5c0,1.3,1,2,2.48,2.4a2.56,2.56,0,0,0,2-2.36,2,2,0,0,0-2.2-2.12A2.07,2.07,0,0,0,27.22,319.08Z"/><path d="M35,331.38a13.54,13.54,0,0,0,2.52-8.18A13.26,13.26,0,0,0,35,315.08h1.36A12.74,12.74,0,0,1,39,323.22a13,13,0,0,1-2.62,8.16Z"/><circle class="cls-2" cx="114.06" cy="267.2" r="5.17"/><circle class="cls-2" cx="242.68" cy="79.13" r="5.17"/><path class="cls-1" d="M248.2,69.91s6.25-17,26.72-23.87c16.24-5.41,45.38-8.68,60.12-9.8"/><polygon points="330.46 42.09 334.39 36.34 329.8 31.1 343.12 35.81 330.46 42.09"/><polygon class="cls-3" points="331.95 40.79 341.81 35.89 335.02 36.3 331.95 40.79"/><polygon class="cls-4" points="331.43 32.21 341.81 35.89 335.02 36.3 331.43 32.21"/></svg>