<svg id="Layer_1" data-name="Layer 1" xmlns="http://www.w3.org/2000/svg" viewBox="0 0 435.51 280.66"><defs><style>.cls-1,.cls-2,.cls-6{fill:none;}.cls-1,.cls-2,.cls-5,.cls-6,.cls-7{stroke:#000;stroke-miterlimit:10;}.cls-1{stroke-width:0.5px;}.cls-3{fill:#a6a6a6;}.cls-4{fill:#666;}.cls-6{stroke-dasharray:4;}.cls-7{fill:#fcee21;stroke-width:0.3px;}.cls-8{fill:#bbbdbf;}.cls-9{fill:#fff;}.cls-10{fill:#212121;}</style></defs><title>Basic reflection setting</title><polygon class="cls-1" points="435.09 93.92 98.11 92.08 0.41 278.57 337.39 280.41 435.09 93.92"/><line class="cls-2" x1="217.75" y1="185.86" x2="217.75" y2="16.36"/><polygon points="220.5 18.81 217.75 16.68 215 18.81 217.75 12.3 220.5 18.81"/><polygon class="cls-3" points="219.9 18.03 217.75 12.96 217.75 16.37 219.9 18.03"/><polygon class="cls-4" points="215.6 18.03 217.75 12.96 217.75 16.37 215.6 18.03"/><circle class="cls-5" cx="217.63" cy="185.57" r="2.25"/><line class="cls-6" x1="217.5" y1="185.47" x2="61.24" y2="79.84"/><line class="cls-2" x1="217.79" y1="185.57" x2="338.27" y2="37.44"/><polygon class="cls-7" points="356.9 0.6 355.32 10.27 360.27 1.81 356.94 11.03 363.37 3.63 358.4 12.08 366.07 5.98 359.64 13.38 368.3 8.79 360.62 14.88 369.98 11.96 361.31 16.53 371.04 15.39 361.68 18.29 371.46 18.95 361.72 20.08 371.21 22.53 361.44 21.85 370.31 26 360.83 23.54 368.79 29.25 359.92 25.09 366.7 32.16 358.74 26.44 364.11 34.64 357.34 27.55 361.1 36.6 355.75 28.39 357.79 37.98 354.04 28.92 354.28 38.72 352.26 29.13 350.7 38.81 350.47 29.01 347.16 38.23 348.73 28.56 343.78 37.02 347.11 27.8 340.69 35.2 345.65 26.75 337.98 32.85 344.41 25.46 335.75 30.04 343.43 23.95 334.07 26.87 342.75 22.3 333.01 23.44 342.37 20.54 332.6 19.88 342.33 18.75 332.84 16.3 342.62 16.98 333.74 12.83 343.23 15.29 335.26 9.58 344.13 13.75 337.35 6.67 345.31 12.39 339.94 4.19 346.71 11.28 342.95 2.23 348.3 10.44 346.26 0.85 350.01 9.91 349.77 0.11 351.79 9.7 353.36 0.02 353.58 9.82 356.9 0.6"/><path d="M324.11,70.85c0-1.37,0-2.55-.1-3.63h1.85l.07,2.28h.1A3.48,3.48,0,0,1,329.24,67a2.2,2.2,0,0,1,.6.07v2a3.65,3.65,0,0,0-.72-.07,3,3,0,0,0-2.83,2.71,5.86,5.86,0,0,0-.09,1v6.19h-2.09Z"/><path d="M209.92,200.54c0-1.49,0-2.69-.09-3.79h1.89l.1,2h.05a4.55,4.55,0,0,1,4.12-2.26c2.81,0,4.92,2.38,4.92,5.91,0,4.17-2.54,6.24-5.28,6.24a4.07,4.07,0,0,1-3.57-1.83H212v6.32h-2.09Zm2.09,3.09a4.62,4.62,0,0,0,.1.87,3.25,3.25,0,0,0,3.16,2.47c2.24,0,3.53-1.82,3.53-4.49,0-2.33-1.22-4.32-3.45-4.32a3.38,3.38,0,0,0-3.2,2.62,3.44,3.44,0,0,0-.14.86Z"/><path class="cls-2" d="M217.53,149.61a35.32,35.32,0,0,1,22.54,8.08"/><path d="M227.83,132.08c0-4.9,2-8.64,5.61-8.64s5.4,3.48,5.4,8.64c0,5.4-1.75,8.93-5.47,8.93C229.94,141,227.83,138,227.83,132.08Zm8.92-.91c0-3.41-1.1-6.17-3.43-6.17-2.13,0-3.41,2.9-3.41,6.17Zm-6.84,1.58c0,4.27,1.44,6.7,3.51,6.7,2.25,0,3.33-2.79,3.33-6.7Z"/><g id="Eye"><g id="_Group_" data-name="&lt;Group&gt;"><path class="cls-8" d="M53.36,54.76c.45,13.09-5.87,21.38-17.5,23.06-5.33-15.12-13.64-25.35-20-32.66.36.15.71.32,1.1.48C27.2,50.17,37.78,54.87,53.36,54.76Z"/><path d="M35.86,77.82c11.63-1.68,18-10,17.5-23.06C37.78,54.87,27.2,50.17,17,45.64c-.39-.16-.74-.33-1.1-.48C22.22,52.47,30.53,62.7,35.86,77.82ZM55.58,54.71C56,68.7,49,78,36.58,80c.61,1.9,1.2,3.86,1.7,5.91l-2.16.52C31,65.71,19.78,53,12.39,44.63l-1.52-1.76a2.88,2.88,0,0,0,.83-.72,3.27,3.27,0,0,0,.45-1c1.92.82,3.81,1.64,5.69,2.48C30,49,41.47,54.08,60.94,52.13l.22,2.21C59.23,54.54,57.38,54.64,55.58,54.71Z"/></g><path class="cls-9" d="M48.29,69.57c-3,3.82-7.45,5.35-9.87,3.43s-1.93-6.58,1.1-10.4,7.45-5.35,9.87-3.42S51.32,65.75,48.29,69.57Z"/><path class="cls-10" d="M47,69.78a3.27,3.27,0,1,1-4.88-4.25A3.27,3.27,0,1,1,47,69.78Z"/></g></svg>