<svg id="Layer_1" data-name="Layer 1" xmlns="http://www.w3.org/2000/svg" viewBox="0 0 893.08 262.91"><defs><style>.cls-1{fill:#ccc;}.cls-2{fill:#231f20;}.cls-3{fill:none;stroke:#000;stroke-miterlimit:10;}.cls-4{fill:#a6a6a6;}.cls-5{fill:#666;}</style></defs><title>Class Relationships</title><path d="M1.34,58.68a6.53,6.53,0,0,0,3.28.92c1.86,0,3-1,3-2.41s-.75-2.08-2.66-2.81c-2.31-.82-3.74-2-3.74-4,0-2.2,1.83-3.84,4.58-3.84a6.52,6.52,0,0,1,3.13.69l-.51,1.49A5.62,5.62,0,0,0,5.69,48C3.76,48,3,49.19,3,50.16c0,1.32.86,2,2.81,2.73C8.22,53.81,9.44,55,9.44,57s-1.61,4.07-4.95,4.07a7.38,7.38,0,0,1-3.61-.9Z"/><path d="M17.56,60.9l-.14-1.28h-.07a3.75,3.75,0,0,1-3.1,1.51,2.89,2.89,0,0,1-3.11-2.91c0-2.46,2.19-3.8,6.11-3.78v-.21a2.09,2.09,0,0,0-2.31-2.35,5,5,0,0,0-2.64.76l-.42-1.22a6.24,6.24,0,0,1,3.33-.9c3.11,0,3.87,2.12,3.87,4.15v3.8a14.93,14.93,0,0,0,.16,2.43Zm-.27-5.18c-2,0-4.3.31-4.3,2.29a1.64,1.64,0,0,0,1.74,1.76,2.54,2.54,0,0,0,2.46-1.7,2,2,0,0,0,.1-.59Z"/><path d="M22.06,53.5c0-1,0-1.91-.09-2.75h1.62l.08,1.63h.07a3.49,3.49,0,0,1,3.18-1.86,3,3,0,0,1,2.88,2h0A4.14,4.14,0,0,1,31,51.23a3.48,3.48,0,0,1,2.25-.71c1.34,0,3.33.88,3.33,4.4v6h-1.8V55.15c0-1.95-.71-3.12-2.2-3.12a2.37,2.37,0,0,0-2.18,1.68,2.81,2.81,0,0,0-.15.92V60.9H28.41V54.82c0-1.62-.71-2.79-2.12-2.79A2.51,2.51,0,0,0,24,53.87a2.49,2.49,0,0,0-.15.91V60.9h-1.8Z"/><path d="M39.56,54.06c0-1.3,0-2.35-.08-3.31h1.66l.08,1.74h0a4,4,0,0,1,3.61-2c2.46,0,4.3,2.07,4.3,5.16,0,3.65-2.22,5.45-4.61,5.45a3.55,3.55,0,0,1-3.13-1.59h0v5.52H39.56Zm1.83,2.71a4.31,4.31,0,0,0,.08.75,2.86,2.86,0,0,0,2.77,2.17c1.95,0,3.09-1.6,3.09-3.93,0-2-1.08-3.78-3-3.78a3,3,0,0,0-2.79,2.29,3.17,3.17,0,0,0-.12.76Z"/><path d="M51.5,46h1.85V60.9H51.5Z"/><path d="M57.48,56.16A3.26,3.26,0,0,0,61,59.69a6.71,6.71,0,0,0,2.81-.53l.31,1.32a8.09,8.09,0,0,1-3.37.63c-3.13,0-5-2-5-5.12s1.81-5.47,4.76-5.47c3.32,0,4.2,2.91,4.2,4.78a7.27,7.27,0,0,1-.06.86Zm5.42-1.32c0-1.18-.48-3-2.56-3-1.87,0-2.69,1.72-2.83,3Z"/><rect class="cls-1" x="6.65" width="108.16" height="31.16" rx="5" ry="5"/><path d="M20,19.21a1.1,1.1,0,0,1-.24.64.81.81,0,0,1-.58.18.76.76,0,0,1-.64-.25,1.32,1.32,0,0,1-.25-.81l-.13-2.38V16.4a1,1,0,0,1,.19-.69.83.83,0,0,1,.63-.21c.41,0,.7.3.88.88a3.27,3.27,0,0,0,.24.67,2.43,2.43,0,0,0,1.13,1.11,4.07,4.07,0,0,0,1.85.38,3.45,3.45,0,0,0,2.15-.62,1.92,1.92,0,0,0,.82-1.6,1.76,1.76,0,0,0-.5-1.3A2.67,2.67,0,0,0,24,14.38l-1.51-.2a6.13,6.13,0,0,1-3.1-1.12,2.82,2.82,0,0,1-1-2.3,3.29,3.29,0,0,1,1.29-2.64A5,5,0,0,1,23,7.06a5.17,5.17,0,0,1,1.19.15,9.14,9.14,0,0,1,1.41.46.56.56,0,0,1,.17-.41.82.82,0,0,1,.49-.11,1,1,0,0,1,.62.13c.12.09.19.3.22.64l.14,2.14v.1a.77.77,0,0,1-.2.56.82.82,0,0,1-.58.2c-.36,0-.64-.25-.84-.76a2.43,2.43,0,0,0-.29-.64,2,2,0,0,0-1-.79,3.46,3.46,0,0,0-1.44-.28,3.16,3.16,0,0,0-2,.62,2,2,0,0,0-.77,1.6,1.46,1.46,0,0,0,.58,1.23,3.58,3.58,0,0,0,1.77.62l1.64.2a4.74,4.74,0,0,1,2.68,1.1,3,3,0,0,1,.9,2.31,3.38,3.38,0,0,1-1.28,2.76,5.27,5.27,0,0,1-3.42,1,6.16,6.16,0,0,1-1.47-.18A7.91,7.91,0,0,1,20,19.21Z"/><path d="M37.89,18.27a6.36,6.36,0,0,1-1.83,1.16,5.52,5.52,0,0,1-2,.4A3.58,3.58,0,0,1,31.56,19a2.88,2.88,0,0,1-.94-2.22,2.92,2.92,0,0,1,1.25-2.51,6,6,0,0,1,3.5-.89,9.9,9.9,0,0,1,2.44.32v-.07a2.38,2.38,0,0,0-.57-1.75,2.4,2.4,0,0,0-1.75-.56,4.43,4.43,0,0,0-1.78.43,4.32,4.32,0,0,1-1.3.43.59.59,0,0,1-.49-.24,1,1,0,0,1-.2-.62c0-.4.38-.74,1.13-1a8.47,8.47,0,0,1,2.9-.42,3.7,3.7,0,0,1,2.72.92,3.65,3.65,0,0,1,.93,2.71v4.64h.5a2.06,2.06,0,0,1,1,.16.59.59,0,0,1,.25.55.72.72,0,0,1-.21.56.89.89,0,0,1-.61.18H38.69a.68.68,0,0,1-.47-.17.88.88,0,0,1-.25-.51ZM37.81,15a8.24,8.24,0,0,0-1.09-.27,6.38,6.38,0,0,0-1-.09,5,5,0,0,0-2.49.53,1.63,1.63,0,0,0-.92,1.44,1.41,1.41,0,0,0,.57,1.15,2.26,2.26,0,0,0,1.45.45,4.61,4.61,0,0,0,2.42-.68c.74-.46,1.11-.93,1.11-1.42Z"/><path d="M51.93,13.86a4.94,4.94,0,0,0-.26-1.95.91.91,0,0,0-.89-.51,1.36,1.36,0,0,0-1.2.66,3.15,3.15,0,0,0-.45,1.8v4.26h.18a1.55,1.55,0,0,1,.83.15.65.65,0,0,1,.21.56.83.83,0,0,1-.17.56.73.73,0,0,1-.54.18h-1.3a.73.73,0,0,1-.6-.21,1.64,1.64,0,0,1-.16-.88V13.06a1.93,1.93,0,0,0-.34-1.21,1.15,1.15,0,0,0-1-.45,1.43,1.43,0,0,0-.84.27,2.1,2.1,0,0,0-.66.81v5.64h.37a1.57,1.57,0,0,1,.83.16.64.64,0,0,1,.21.55.79.79,0,0,1-.17.58,1,1,0,0,1-.67.16H42.63a.85.85,0,0,1-.59-.18.77.77,0,0,1-.18-.56.61.61,0,0,1,.23-.56,2,2,0,0,1,.94-.15h.2V11.55h-.18a2,2,0,0,1-1-.17.63.63,0,0,1-.26-.57.66.66,0,0,1,.21-.53.91.91,0,0,1,.61-.18H44.2a.61.61,0,0,1,.45.12.9.9,0,0,1,.13.49,2.74,2.74,0,0,1,.9-.66,2.68,2.68,0,0,1,1.09-.22,2.05,2.05,0,0,1,1.18.32,1.81,1.81,0,0,1,.7.94,2.78,2.78,0,0,1,1-.95,2.73,2.73,0,0,1,1.29-.31,2.22,2.22,0,0,1,1.94.86,5,5,0,0,1,.61,2.79v4.64h.16a1.57,1.57,0,0,1,.84.16.64.64,0,0,1,.22.55.79.79,0,0,1-.19.56.73.73,0,0,1-.54.18H52.73a.72.72,0,0,1-.61-.25,1.24,1.24,0,0,1-.19-.78Z"/><path d="M58.08,22.19h2.46a.78.78,0,0,1,.58.19.73.73,0,0,1,.2.55.71.71,0,0,1-.19.56,1,1,0,0,1-.67.17H55.94a.87.87,0,0,1-.62-.19.67.67,0,0,1-.21-.54.61.61,0,0,1,.26-.57,1.94,1.94,0,0,1,1-.17h.19V11.56h-.19a1.94,1.94,0,0,1-1-.17.61.61,0,0,1-.26-.57.67.67,0,0,1,.21-.54.92.92,0,0,1,.62-.18h1.55a.75.75,0,0,1,.45.1.39.39,0,0,1,.14.32v1a4.81,4.81,0,0,1,1.54-1.07,4.58,4.58,0,0,1,1.82-.36,4.64,4.64,0,0,1,3.44,1.39A4.79,4.79,0,0,1,66.27,15,4.48,4.48,0,0,1,65,18.29a4.54,4.54,0,0,1-3.35,1.3,5.24,5.24,0,0,1-2-.38,4.13,4.13,0,0,1-1.52-1.11Zm3.17-4.11a3.19,3.19,0,0,0,2.34-.89,3.1,3.1,0,0,0,.91-2.32,3.09,3.09,0,0,0-.91-2.3,3.18,3.18,0,0,0-2.34-.91A3.08,3.08,0,0,0,58,14.87a3.07,3.07,0,0,0,3.21,3.21Z"/><path d="M72.63,7.63H70.89a2.88,2.88,0,0,1-1.25-.16.64.64,0,0,1-.25-.58.69.69,0,0,1,.21-.55.92.92,0,0,1,.61-.18h3.38a.67.67,0,0,1,.43.11.35.35,0,0,1,.16.31V18.12H77.4a.8.8,0,0,1,.56.17.73.73,0,0,1,.18.54.79.79,0,0,1-.17.58,1,1,0,0,1-.66.16H69.75a.91.91,0,0,1-.61-.18.72.72,0,0,1-.21-.56.63.63,0,0,1,.22-.53,1,1,0,0,1,.64-.18h2.84Z"/><path d="M82.45,15.29a3.1,3.1,0,0,0,1,2.28,3.63,3.63,0,0,0,2.5.81,6.39,6.39,0,0,0,2.62-.64,6.86,6.86,0,0,1,1.71-.64.76.76,0,0,1,.51.19.65.65,0,0,1,.21.49.83.83,0,0,1-.22.54,2.27,2.27,0,0,1-.69.48,10,10,0,0,1-2.11.76,9,9,0,0,1-2.17.27,5.16,5.16,0,0,1-3.74-1.35,4.71,4.71,0,0,1-1.4-3.57,4.81,4.81,0,0,1,1.48-3.67A5.4,5.4,0,0,1,86,9.83a5.06,5.06,0,0,1,3.58,1.32A4.15,4.15,0,0,1,91,14.32a1,1,0,0,1-.24.77,2.6,2.6,0,0,1-1.31.2h-7Zm0-1.35h6.67a3,3,0,0,0-1-2A3.17,3.17,0,0,0,86,11.24a3.65,3.65,0,0,0-2.3.72A3.38,3.38,0,0,0,82.5,13.94Z"/><path d="M97.5,18.12h3.41a.85.85,0,0,1,.58.17.7.7,0,0,1,.19.54.74.74,0,0,1-.18.58,1,1,0,0,1-.66.16h-6.7a.88.88,0,0,1-.6-.18.72.72,0,0,1-.21-.56.65.65,0,0,1,.21-.53,1,1,0,0,1,.65-.18H96V11.55h-.7A3,3,0,0,1,94,11.39a.65.65,0,0,1-.25-.58.69.69,0,0,1,.2-.53.91.91,0,0,1,.61-.18h2.34a.72.72,0,0,1,.42.11.34.34,0,0,1,.14.31v1.74a7.3,7.3,0,0,1,2-1.81,4.54,4.54,0,0,1,2.28-.6,2.67,2.67,0,0,1,1.47.37,1.1,1.1,0,0,1,.57.95,1,1,0,0,1-.29.67.84.84,0,0,1-.62.29,2,2,0,0,1-.79-.31,2.1,2.1,0,0,0-1-.32,3.13,3.13,0,0,0-1.68.57,9.47,9.47,0,0,0-2,1.81Z"/><path class="cls-2" d="M20,19.21a1.1,1.1,0,0,1-.24.64.81.81,0,0,1-.58.18.76.76,0,0,1-.64-.25,1.32,1.32,0,0,1-.25-.81l-.13-2.38V16.4a1,1,0,0,1,.19-.69.83.83,0,0,1,.63-.21c.41,0,.7.3.88.88a3.27,3.27,0,0,0,.24.67,2.43,2.43,0,0,0,1.13,1.11,4.07,4.07,0,0,0,1.85.38,3.45,3.45,0,0,0,2.15-.62,1.92,1.92,0,0,0,.82-1.6,1.76,1.76,0,0,0-.5-1.3A2.67,2.67,0,0,0,24,14.38l-1.51-.2a6.13,6.13,0,0,1-3.1-1.12,2.82,2.82,0,0,1-1-2.3,3.29,3.29,0,0,1,1.29-2.64A5,5,0,0,1,23,7.06a5.17,5.17,0,0,1,1.19.15,9.14,9.14,0,0,1,1.41.46.56.56,0,0,1,.17-.41.82.82,0,0,1,.49-.11,1,1,0,0,1,.62.13c.12.09.19.3.22.64l.14,2.14v.1a.77.77,0,0,1-.2.56.82.82,0,0,1-.58.2c-.36,0-.64-.25-.84-.76a2.43,2.43,0,0,0-.29-.64,2,2,0,0,0-1-.79,3.46,3.46,0,0,0-1.44-.28,3.16,3.16,0,0,0-2,.62,2,2,0,0,0-.77,1.6,1.46,1.46,0,0,0,.58,1.23,3.58,3.58,0,0,0,1.77.62l1.64.2a4.74,4.74,0,0,1,2.68,1.1,3,3,0,0,1,.9,2.31,3.38,3.38,0,0,1-1.28,2.76,5.27,5.27,0,0,1-3.42,1,6.16,6.16,0,0,1-1.47-.18A7.91,7.91,0,0,1,20,19.21Z"/><path class="cls-2" d="M37.89,18.27a6.36,6.36,0,0,1-1.83,1.16,5.52,5.52,0,0,1-2,.4A3.58,3.58,0,0,1,31.56,19a2.88,2.88,0,0,1-.94-2.22,2.92,2.92,0,0,1,1.25-2.51,6,6,0,0,1,3.5-.89,9.9,9.9,0,0,1,2.44.32v-.07a2.38,2.38,0,0,0-.57-1.75,2.4,2.4,0,0,0-1.75-.56,4.43,4.43,0,0,0-1.78.43,4.32,4.32,0,0,1-1.3.43.59.59,0,0,1-.49-.24,1,1,0,0,1-.2-.62c0-.4.38-.74,1.13-1a8.47,8.47,0,0,1,2.9-.42,3.7,3.7,0,0,1,2.72.92,3.65,3.65,0,0,1,.93,2.71v4.64h.5a2.06,2.06,0,0,1,1,.16.59.59,0,0,1,.25.55.72.72,0,0,1-.21.56.89.89,0,0,1-.61.18H38.69a.68.68,0,0,1-.47-.17.88.88,0,0,1-.25-.51ZM37.81,15a8.24,8.24,0,0,0-1.09-.27,6.38,6.38,0,0,0-1-.09,5,5,0,0,0-2.49.53,1.63,1.63,0,0,0-.92,1.44,1.41,1.41,0,0,0,.57,1.15,2.26,2.26,0,0,0,1.45.45,4.61,4.61,0,0,0,2.42-.68c.74-.46,1.11-.93,1.11-1.42Z"/><path class="cls-2" d="M51.93,13.86a4.94,4.94,0,0,0-.26-1.95.91.91,0,0,0-.89-.51,1.36,1.36,0,0,0-1.2.66,3.15,3.15,0,0,0-.45,1.8v4.26h.18a1.55,1.55,0,0,1,.83.15.65.65,0,0,1,.21.56.83.83,0,0,1-.17.56.73.73,0,0,1-.54.18h-1.3a.73.73,0,0,1-.6-.21,1.64,1.64,0,0,1-.16-.88V13.06a1.93,1.93,0,0,0-.34-1.21,1.15,1.15,0,0,0-1-.45,1.43,1.43,0,0,0-.84.27,2.1,2.1,0,0,0-.66.81v5.64h.37a1.57,1.57,0,0,1,.83.16.64.64,0,0,1,.21.55.79.79,0,0,1-.17.58,1,1,0,0,1-.67.16H42.63a.85.85,0,0,1-.59-.18.77.77,0,0,1-.18-.56.61.61,0,0,1,.23-.56,2,2,0,0,1,.94-.15h.2V11.55h-.18a2,2,0,0,1-1-.17.63.63,0,0,1-.26-.57.66.66,0,0,1,.21-.53.91.91,0,0,1,.61-.18H44.2a.61.61,0,0,1,.45.12.9.9,0,0,1,.13.49,2.74,2.74,0,0,1,.9-.66,2.68,2.68,0,0,1,1.09-.22,2.05,2.05,0,0,1,1.18.32,1.81,1.81,0,0,1,.7.94,2.78,2.78,0,0,1,1-.95,2.73,2.73,0,0,1,1.29-.31,2.22,2.22,0,0,1,1.94.86,5,5,0,0,1,.61,2.79v4.64h.16a1.57,1.57,0,0,1,.84.16.64.64,0,0,1,.22.55.79.79,0,0,1-.19.56.73.73,0,0,1-.54.18H52.73a.72.72,0,0,1-.61-.25,1.24,1.24,0,0,1-.19-.78Z"/><path class="cls-2" d="M58.08,22.19h2.46a.78.78,0,0,1,.58.19.73.73,0,0,1,.2.55.71.71,0,0,1-.19.56,1,1,0,0,1-.67.17H55.94a.87.87,0,0,1-.62-.19.67.67,0,0,1-.21-.54.61.61,0,0,1,.26-.57,1.94,1.94,0,0,1,1-.17h.19V11.56h-.19a1.94,1.94,0,0,1-1-.17.61.61,0,0,1-.26-.57.67.67,0,0,1,.21-.54.92.92,0,0,1,.62-.18h1.55a.75.75,0,0,1,.45.1.39.39,0,0,1,.14.32v1a4.81,4.81,0,0,1,1.54-1.07,4.58,4.58,0,0,1,1.82-.36,4.64,4.64,0,0,1,3.44,1.39A4.79,4.79,0,0,1,66.27,15,4.48,4.48,0,0,1,65,18.29a4.54,4.54,0,0,1-3.35,1.3,5.24,5.24,0,0,1-2-.38,4.13,4.13,0,0,1-1.52-1.11Zm3.17-4.11a3.19,3.19,0,0,0,2.34-.89,3.1,3.1,0,0,0,.91-2.32,3.09,3.09,0,0,0-.91-2.3,3.18,3.18,0,0,0-2.34-.91A3.08,3.08,0,0,0,58,14.87a3.07,3.07,0,0,0,3.21,3.21Z"/><path class="cls-2" d="M72.63,7.63H70.89a2.88,2.88,0,0,1-1.25-.16.64.64,0,0,1-.25-.58.69.69,0,0,1,.21-.55.92.92,0,0,1,.61-.18h3.38a.67.67,0,0,1,.43.11.35.35,0,0,1,.16.31V18.12H77.4a.8.8,0,0,1,.56.17.73.73,0,0,1,.18.54.79.79,0,0,1-.17.58,1,1,0,0,1-.66.16H69.75a.91.91,0,0,1-.61-.18.72.72,0,0,1-.21-.56.63.63,0,0,1,.22-.53,1,1,0,0,1,.64-.18h2.84Z"/><path class="cls-2" d="M82.45,15.29a3.1,3.1,0,0,0,1,2.28,3.63,3.63,0,0,0,2.5.81,6.39,6.39,0,0,0,2.62-.64,6.86,6.86,0,0,1,1.71-.64.76.76,0,0,1,.51.19.65.65,0,0,1,.21.49.83.83,0,0,1-.22.54,2.27,2.27,0,0,1-.69.48,10,10,0,0,1-2.11.76,9,9,0,0,1-2.17.27,5.16,5.16,0,0,1-3.74-1.35,4.71,4.71,0,0,1-1.4-3.57,4.81,4.81,0,0,1,1.48-3.67A5.4,5.4,0,0,1,86,9.83a5.06,5.06,0,0,1,3.58,1.32A4.15,4.15,0,0,1,91,14.32a1,1,0,0,1-.24.77,2.6,2.6,0,0,1-1.31.2h-7Zm0-1.35h6.67a3,3,0,0,0-1-2A3.17,3.17,0,0,0,86,11.24a3.65,3.65,0,0,0-2.3.72A3.38,3.38,0,0,0,82.5,13.94Z"/><path class="cls-2" d="M97.5,18.12h3.41a.85.85,0,0,1,.58.17.7.7,0,0,1,.19.54.74.74,0,0,1-.18.58,1,1,0,0,1-.66.16h-6.7a.88.88,0,0,1-.6-.18.72.72,0,0,1-.21-.56.65.65,0,0,1,.21-.53,1,1,0,0,1,.65-.18H96V11.55h-.7A3,3,0,0,1,94,11.39a.65.65,0,0,1-.25-.58.69.69,0,0,1,.2-.53.91.91,0,0,1,.61-.18h2.34a.72.72,0,0,1,.42.11.34.34,0,0,1,.14.31v1.74a7.3,7.3,0,0,1,2-1.81,4.54,4.54,0,0,1,2.28-.6,2.67,2.67,0,0,1,1.47.37,1.1,1.1,0,0,1,.57.95,1,1,0,0,1-.29.67.84.84,0,0,1-.62.29,2,2,0,0,1-.79-.31,2.1,2.1,0,0,0-1-.32,3.13,3.13,0,0,0-1.68.57,9.47,9.47,0,0,0-2,1.81Z"/><rect class="cls-1" x="248.15" width="95.57" height="31.16" rx="5" ry="5"/><path d="M267.68,7.75a.73.73,0,0,1,.28-.39,1.12,1.12,0,0,1,.54-.11.63.63,0,0,1,.53.19,1.27,1.27,0,0,1,.15.75c0,.67,0,1.3,0,1.87s0,.83,0,.76a1,1,0,0,1-.16.65.8.8,0,0,1-.58.17c-.46,0-.75-.32-.89-1,0-.19-.08-.33-.11-.44A2.09,2.09,0,0,0,266.55,9a3,3,0,0,0-1.73-.49,3.57,3.57,0,0,0-2.91,1.33,5.41,5.41,0,0,0-1.1,3.56,5.35,5.35,0,0,0,1.11,3.55,3.63,3.63,0,0,0,2.94,1.33,4.71,4.71,0,0,0,1.21-.17,5,5,0,0,0,1.21-.51,7.29,7.29,0,0,0,.76-.49,1.57,1.57,0,0,1,.68-.34.76.76,0,0,1,.54.21.67.67,0,0,1,.22.52.92.92,0,0,1-.24.59,3.9,3.9,0,0,1-.9.69,6.72,6.72,0,0,1-1.73.84,6.14,6.14,0,0,1-1.83.27,5.47,5.47,0,0,1-4.19-1.79A6.53,6.53,0,0,1,259,13.5a6.51,6.51,0,0,1,1.67-4.58,5.46,5.46,0,0,1,4.2-1.82,6,6,0,0,1,1.38.16A10.64,10.64,0,0,1,267.68,7.75Z"/><path d="M279.39,18.27a6.36,6.36,0,0,1-1.83,1.16,5.52,5.52,0,0,1-2,.4,3.58,3.58,0,0,1-2.47-.85,2.88,2.88,0,0,1-.94-2.22,2.92,2.92,0,0,1,1.25-2.51,6,6,0,0,1,3.5-.89,9.9,9.9,0,0,1,2.44.32v-.07a2.38,2.38,0,0,0-.57-1.75A2.4,2.4,0,0,0,277,11.3a4.43,4.43,0,0,0-1.78.43,4.32,4.32,0,0,1-1.3.43.59.59,0,0,1-.49-.24,1,1,0,0,1-.2-.62c0-.4.38-.74,1.13-1a8.47,8.47,0,0,1,2.9-.42,3.7,3.7,0,0,1,2.72.92,3.65,3.65,0,0,1,.93,2.71v4.64h.5a2.06,2.06,0,0,1,1,.16.59.59,0,0,1,.25.55.72.72,0,0,1-.21.56.89.89,0,0,1-.61.18h-1.61a.68.68,0,0,1-.47-.17.88.88,0,0,1-.25-.51ZM279.31,15a8.24,8.24,0,0,0-1.09-.27,6.38,6.38,0,0,0-1.05-.09,5,5,0,0,0-2.49.53,1.63,1.63,0,0,0-.92,1.44,1.41,1.41,0,0,0,.57,1.15,2.26,2.26,0,0,0,1.45.45,4.61,4.61,0,0,0,2.42-.68c.74-.46,1.11-.93,1.11-1.42Z"/><path d="M293.43,13.86a4.94,4.94,0,0,0-.26-1.95.91.91,0,0,0-.89-.51,1.36,1.36,0,0,0-1.2.66,3.15,3.15,0,0,0-.45,1.8v4.26h.18a1.55,1.55,0,0,1,.83.15.65.65,0,0,1,.21.56.83.83,0,0,1-.17.56.73.73,0,0,1-.54.18h-1.3a.73.73,0,0,1-.6-.21,1.64,1.64,0,0,1-.16-.88V13.06a1.93,1.93,0,0,0-.34-1.21,1.15,1.15,0,0,0-1-.45,1.43,1.43,0,0,0-.84.27,2.1,2.1,0,0,0-.66.81v5.64h.37a1.57,1.57,0,0,1,.83.16.64.64,0,0,1,.21.55.79.79,0,0,1-.17.58,1,1,0,0,1-.67.16h-2.72a.85.85,0,0,1-.59-.18.77.77,0,0,1-.18-.56.61.61,0,0,1,.23-.56,2,2,0,0,1,.94-.15h.2V11.55h-.18a2,2,0,0,1-1-.17.63.63,0,0,1-.26-.57.66.66,0,0,1,.21-.53.91.91,0,0,1,.61-.18h1.57a.61.61,0,0,1,.45.12.9.9,0,0,1,.13.49,2.74,2.74,0,0,1,.9-.66,2.68,2.68,0,0,1,1.09-.22,2.05,2.05,0,0,1,1.18.32,1.81,1.81,0,0,1,.7.94,2.78,2.78,0,0,1,1-.95,2.73,2.73,0,0,1,1.29-.31,2.22,2.22,0,0,1,1.94.86,5,5,0,0,1,.61,2.79v4.64h.16a1.57,1.57,0,0,1,.84.16.64.64,0,0,1,.22.55.79.79,0,0,1-.19.56.73.73,0,0,1-.54.18h-1.24a.72.72,0,0,1-.61-.25,1.24,1.24,0,0,1-.19-.78Z"/><path d="M298.76,15.29a3.1,3.1,0,0,0,1,2.28,3.63,3.63,0,0,0,2.5.81,6.39,6.39,0,0,0,2.62-.64,6.86,6.86,0,0,1,1.71-.64.76.76,0,0,1,.51.19.64.64,0,0,1,.2.49.82.82,0,0,1-.21.54,2.27,2.27,0,0,1-.69.48,10.25,10.25,0,0,1-2.11.76,9,9,0,0,1-2.17.27,5.16,5.16,0,0,1-3.74-1.35A4.71,4.71,0,0,1,297,14.91a4.81,4.81,0,0,1,1.49-3.67,5.39,5.39,0,0,1,3.87-1.41,5.07,5.07,0,0,1,3.59,1.32,4.15,4.15,0,0,1,1.43,3.17,1,1,0,0,1-.24.77,2.6,2.6,0,0,1-1.31.2h-7Zm.05-1.35h6.67a3,3,0,0,0-1-2,3.19,3.19,0,0,0-2.13-.74A3.64,3.64,0,0,0,300,12,3.38,3.38,0,0,0,298.81,13.94Z"/><path d="M313.81,18.12h3.4a.87.87,0,0,1,.59.17.7.7,0,0,1,.19.54.74.74,0,0,1-.18.58,1,1,0,0,1-.66.16h-6.7a.86.86,0,0,1-.6-.18.72.72,0,0,1-.21-.56.65.65,0,0,1,.21-.53,1,1,0,0,1,.65-.18h1.79V11.55h-.7a3,3,0,0,1-1.24-.16.63.63,0,0,1-.25-.58.69.69,0,0,1,.2-.53.91.91,0,0,1,.61-.18h2.34a.72.72,0,0,1,.42.11.37.37,0,0,1,.14.31v1.74a7.3,7.3,0,0,1,2-1.81,4.52,4.52,0,0,1,2.28-.6,2.69,2.69,0,0,1,1.47.37,1.1,1.1,0,0,1,.57.95,1,1,0,0,1-.29.67.84.84,0,0,1-.62.29,2,2,0,0,1-.79-.31,2.1,2.1,0,0,0-1-.32,3.13,3.13,0,0,0-1.68.57,9.47,9.47,0,0,0-2,1.81Z"/><path d="M329.77,18.27a6.36,6.36,0,0,1-1.83,1.16,5.52,5.52,0,0,1-2,.4,3.58,3.58,0,0,1-2.47-.85,2.88,2.88,0,0,1-.94-2.22,2.92,2.92,0,0,1,1.25-2.51,6,6,0,0,1,3.5-.89,9.9,9.9,0,0,1,2.44.32v-.07a2.38,2.38,0,0,0-.57-1.75,2.4,2.4,0,0,0-1.75-.56,4.43,4.43,0,0,0-1.78.43,4.32,4.32,0,0,1-1.3.43.62.62,0,0,1-.5-.24,1,1,0,0,1-.19-.62c0-.4.38-.74,1.13-1a8.47,8.47,0,0,1,2.9-.42,3.7,3.7,0,0,1,2.72.92,3.65,3.65,0,0,1,.93,2.71v4.64h.5a2.06,2.06,0,0,1,1,.16.59.59,0,0,1,.25.55.72.72,0,0,1-.21.56.89.89,0,0,1-.61.18h-1.61a.68.68,0,0,1-.47-.17.88.88,0,0,1-.25-.51ZM329.69,15a8.24,8.24,0,0,0-1.09-.27,6.38,6.38,0,0,0-1.05-.09,5,5,0,0,0-2.49.53,1.63,1.63,0,0,0-.92,1.44,1.41,1.41,0,0,0,.57,1.15,2.26,2.26,0,0,0,1.45.45,4.61,4.61,0,0,0,2.42-.68c.74-.46,1.11-.93,1.11-1.42Z"/><path class="cls-2" d="M267.68,7.75a.73.73,0,0,1,.28-.39,1.12,1.12,0,0,1,.54-.11.63.63,0,0,1,.53.19,1.27,1.27,0,0,1,.15.75c0,.67,0,1.3,0,1.87s0,.83,0,.76a1,1,0,0,1-.16.65.8.8,0,0,1-.58.17c-.46,0-.75-.32-.89-1,0-.19-.08-.33-.11-.44A2.09,2.09,0,0,0,266.55,9a3,3,0,0,0-1.73-.49,3.57,3.57,0,0,0-2.91,1.33,5.41,5.41,0,0,0-1.1,3.56,5.35,5.35,0,0,0,1.11,3.55,3.63,3.63,0,0,0,2.94,1.33,4.71,4.71,0,0,0,1.21-.17,5,5,0,0,0,1.21-.51,7.29,7.29,0,0,0,.76-.49,1.57,1.57,0,0,1,.68-.34.76.76,0,0,1,.54.21.67.67,0,0,1,.22.52.92.92,0,0,1-.24.59,3.9,3.9,0,0,1-.9.69,6.72,6.72,0,0,1-1.73.84,6.14,6.14,0,0,1-1.83.27,5.47,5.47,0,0,1-4.19-1.79A6.53,6.53,0,0,1,259,13.5a6.51,6.51,0,0,1,1.67-4.58,5.46,5.46,0,0,1,4.2-1.82,6,6,0,0,1,1.38.16A10.64,10.64,0,0,1,267.68,7.75Z"/><path class="cls-2" d="M279.39,18.27a6.36,6.36,0,0,1-1.83,1.16,5.52,5.52,0,0,1-2,.4,3.58,3.58,0,0,1-2.47-.85,2.88,2.88,0,0,1-.94-2.22,2.92,2.92,0,0,1,1.25-2.51,6,6,0,0,1,3.5-.89,9.9,9.9,0,0,1,2.44.32v-.07a2.38,2.38,0,0,0-.57-1.75A2.4,2.4,0,0,0,277,11.3a4.43,4.43,0,0,0-1.78.43,4.32,4.32,0,0,1-1.3.43.59.59,0,0,1-.49-.24,1,1,0,0,1-.2-.62c0-.4.38-.74,1.13-1a8.47,8.47,0,0,1,2.9-.42,3.7,3.7,0,0,1,2.72.92,3.65,3.65,0,0,1,.93,2.71v4.64h.5a2.06,2.06,0,0,1,1,.16.59.59,0,0,1,.25.55.72.72,0,0,1-.21.56.89.89,0,0,1-.61.18h-1.61a.68.68,0,0,1-.47-.17.88.88,0,0,1-.25-.51ZM279.31,15a8.24,8.24,0,0,0-1.09-.27,6.38,6.38,0,0,0-1.05-.09,5,5,0,0,0-2.49.53,1.63,1.63,0,0,0-.92,1.44,1.41,1.41,0,0,0,.57,1.15,2.26,2.26,0,0,0,1.45.45,4.61,4.61,0,0,0,2.42-.68c.74-.46,1.11-.93,1.11-1.42Z"/><path class="cls-2" d="M293.43,13.86a4.94,4.94,0,0,0-.26-1.95.91.91,0,0,0-.89-.51,1.36,1.36,0,0,0-1.2.66,3.15,3.15,0,0,0-.45,1.8v4.26h.18a1.55,1.55,0,0,1,.83.15.65.65,0,0,1,.21.56.83.83,0,0,1-.17.56.73.73,0,0,1-.54.18h-1.3a.73.73,0,0,1-.6-.21,1.64,1.64,0,0,1-.16-.88V13.06a1.93,1.93,0,0,0-.34-1.21,1.15,1.15,0,0,0-1-.45,1.43,1.43,0,0,0-.84.27,2.1,2.1,0,0,0-.66.81v5.64h.37a1.57,1.57,0,0,1,.83.16.64.64,0,0,1,.21.55.79.79,0,0,1-.17.58,1,1,0,0,1-.67.16h-2.72a.85.85,0,0,1-.59-.18.77.77,0,0,1-.18-.56.61.61,0,0,1,.23-.56,2,2,0,0,1,.94-.15h.2V11.55h-.18a2,2,0,0,1-1-.17.63.63,0,0,1-.26-.57.66.66,0,0,1,.21-.53.91.91,0,0,1,.61-.18h1.57a.61.61,0,0,1,.45.12.9.9,0,0,1,.13.49,2.74,2.74,0,0,1,.9-.66,2.68,2.68,0,0,1,1.09-.22,2.05,2.05,0,0,1,1.18.32,1.81,1.81,0,0,1,.7.94,2.78,2.78,0,0,1,1-.95,2.73,2.73,0,0,1,1.29-.31,2.22,2.22,0,0,1,1.94.86,5,5,0,0,1,.61,2.79v4.64h.16a1.57,1.57,0,0,1,.84.16.64.64,0,0,1,.22.55.79.79,0,0,1-.19.56.73.73,0,0,1-.54.18h-1.24a.72.72,0,0,1-.61-.25,1.24,1.24,0,0,1-.19-.78Z"/><path class="cls-2" d="M298.76,15.29a3.1,3.1,0,0,0,1,2.28,3.63,3.63,0,0,0,2.5.81,6.39,6.39,0,0,0,2.62-.64,6.86,6.86,0,0,1,1.71-.64.76.76,0,0,1,.51.19.64.64,0,0,1,.2.49.82.82,0,0,1-.21.54,2.27,2.27,0,0,1-.69.48,10.25,10.25,0,0,1-2.11.76,9,9,0,0,1-2.17.27,5.16,5.16,0,0,1-3.74-1.35A4.71,4.71,0,0,1,297,14.91a4.81,4.81,0,0,1,1.49-3.67,5.39,5.39,0,0,1,3.87-1.41,5.07,5.07,0,0,1,3.59,1.32,4.15,4.15,0,0,1,1.43,3.17,1,1,0,0,1-.24.77,2.6,2.6,0,0,1-1.31.2h-7Zm.05-1.35h6.67a3,3,0,0,0-1-2,3.19,3.19,0,0,0-2.13-.74A3.64,3.64,0,0,0,300,12,3.38,3.38,0,0,0,298.81,13.94Z"/><path class="cls-2" d="M313.81,18.12h3.4a.87.87,0,0,1,.59.17.7.7,0,0,1,.19.54.74.74,0,0,1-.18.58,1,1,0,0,1-.66.16h-6.7a.86.86,0,0,1-.6-.18.72.72,0,0,1-.21-.56.65.65,0,0,1,.21-.53,1,1,0,0,1,.65-.18h1.79V11.55h-.7a3,3,0,0,1-1.24-.16.63.63,0,0,1-.25-.58.69.69,0,0,1,.2-.53.91.91,0,0,1,.61-.18h2.34a.72.72,0,0,1,.42.11.37.37,0,0,1,.14.31v1.74a7.3,7.3,0,0,1,2-1.81,4.52,4.52,0,0,1,2.28-.6,2.69,2.69,0,0,1,1.47.37,1.1,1.1,0,0,1,.57.95,1,1,0,0,1-.29.67.84.84,0,0,1-.62.29,2,2,0,0,1-.79-.31,2.1,2.1,0,0,0-1-.32,3.13,3.13,0,0,0-1.68.57,9.47,9.47,0,0,0-2,1.81Z"/><path class="cls-2" d="M329.77,18.27a6.36,6.36,0,0,1-1.83,1.16,5.52,5.52,0,0,1-2,.4,3.58,3.58,0,0,1-2.47-.85,2.88,2.88,0,0,1-.94-2.22,2.92,2.92,0,0,1,1.25-2.51,6,6,0,0,1,3.5-.89,9.9,9.9,0,0,1,2.44.32v-.07a2.38,2.38,0,0,0-.57-1.75,2.4,2.4,0,0,0-1.75-.56,4.43,4.43,0,0,0-1.78.43,4.32,4.32,0,0,1-1.3.43.62.62,0,0,1-.5-.24,1,1,0,0,1-.19-.62c0-.4.38-.74,1.13-1a8.47,8.47,0,0,1,2.9-.42,3.7,3.7,0,0,1,2.72.92,3.65,3.65,0,0,1,.93,2.71v4.64h.5a2.06,2.06,0,0,1,1,.16.59.59,0,0,1,.25.55.72.72,0,0,1-.21.56.89.89,0,0,1-.61.18h-1.61a.68.68,0,0,1-.47-.17.88.88,0,0,1-.25-.51ZM329.69,15a8.24,8.24,0,0,0-1.09-.27,6.38,6.38,0,0,0-1.05-.09,5,5,0,0,0-2.49.53,1.63,1.63,0,0,0-.92,1.44,1.41,1.41,0,0,0,.57,1.15,2.26,2.26,0,0,0,1.45.45,4.61,4.61,0,0,0,2.42-.68c.74-.46,1.11-.93,1.11-1.42Z"/><rect class="cls-1" x="40.44" y="123" width="360.06" height="31.16" rx="5" ry="5"/><path d="M53.74,142.21a1,1,0,0,1-.24.64.81.81,0,0,1-.58.18.77.77,0,0,1-.64-.25A1.39,1.39,0,0,1,52,142l-.14-2.38v-.19a1,1,0,0,1,.19-.69.83.83,0,0,1,.63-.21c.41,0,.71.3.89.88a4.17,4.17,0,0,0,.23.67A2.48,2.48,0,0,0,55,141.16a4.1,4.1,0,0,0,1.85.38,3.45,3.45,0,0,0,2.15-.62,1.92,1.92,0,0,0,.82-1.6,1.72,1.72,0,0,0-.5-1.3,2.64,2.64,0,0,0-1.48-.64l-1.52-.2a6.09,6.09,0,0,1-3.09-1.12,2.83,2.83,0,0,1-1-2.3,3.27,3.27,0,0,1,1.3-2.64,4.91,4.91,0,0,1,3.23-1.06,5.1,5.1,0,0,1,1.19.15,8.8,8.8,0,0,1,1.41.46.56.56,0,0,1,.17-.41.84.84,0,0,1,.49-.11,1.1,1.1,0,0,1,.63.13,1,1,0,0,1,.21.64l.14,2.14v.1a.73.73,0,0,1-.2.56.82.82,0,0,1-.58.2c-.36,0-.64-.25-.83-.76a3.32,3.32,0,0,0-.29-.64,2.09,2.09,0,0,0-1-.79,3.46,3.46,0,0,0-1.44-.28,3.11,3.11,0,0,0-2,.62,1.94,1.94,0,0,0-.78,1.6,1.49,1.49,0,0,0,.58,1.23,3.66,3.66,0,0,0,1.77.62l1.64.2a4.7,4.7,0,0,1,2.68,1.1,3,3,0,0,1,.91,2.31,3.39,3.39,0,0,1-1.29,2.76,5.27,5.27,0,0,1-3.42,1,6,6,0,0,1-1.46-.18A8,8,0,0,1,53.74,142.21Z"/><path d="M71.68,141.27a6.36,6.36,0,0,1-1.83,1.16,5.48,5.48,0,0,1-2,.4,3.58,3.58,0,0,1-2.47-.85,2.88,2.88,0,0,1-.93-2.22,2.91,2.91,0,0,1,1.24-2.51,6,6,0,0,1,3.5-.89,9.9,9.9,0,0,1,2.44.32v-.07a2,2,0,0,0-2.32-2.31,4.47,4.47,0,0,0-1.78.43,4.23,4.23,0,0,1-1.3.43.6.6,0,0,1-.49-.24,1,1,0,0,1-.2-.62c0-.4.38-.74,1.14-1a8.41,8.41,0,0,1,2.89-.42,3.74,3.74,0,0,1,2.73.92,3.69,3.69,0,0,1,.92,2.71v4.64h.5a2.11,2.11,0,0,1,1,.16.6.6,0,0,1,.24.55.75.75,0,0,1-.2.56.94.94,0,0,1-.62.18H72.48a.68.68,0,0,1-.47-.17,1,1,0,0,1-.25-.51ZM71.6,138a8.24,8.24,0,0,0-1.09-.27,6.2,6.2,0,0,0-1.05-.09,5,5,0,0,0-2.49.53,1.62,1.62,0,0,0-.91,1.44,1.43,1.43,0,0,0,.56,1.15,2.29,2.29,0,0,0,1.46.45,4.58,4.58,0,0,0,2.41-.68c.74-.46,1.11-.93,1.11-1.42Z"/><path d="M85.72,136.86a4.76,4.76,0,0,0-.26-2,.91.91,0,0,0-.89-.51,1.38,1.38,0,0,0-1.2.66,3.15,3.15,0,0,0-.45,1.8v4.26h.19a1.57,1.57,0,0,1,.83.15.68.68,0,0,1,.2.56.78.78,0,0,1-.17.56.71.71,0,0,1-.53.18h-1.3a.7.7,0,0,1-.6-.21,1.55,1.55,0,0,1-.16-.88v-5.42a1.93,1.93,0,0,0-.35-1.21,1.14,1.14,0,0,0-1-.45,1.46,1.46,0,0,0-.85.27,2.1,2.1,0,0,0-.66.81v5.64H79a1.53,1.53,0,0,1,.82.16.64.64,0,0,1,.21.55.75.75,0,0,1-.17.58,1,1,0,0,1-.67.16H76.43a.82.82,0,0,1-.59-.18.73.73,0,0,1-.19-.56.61.61,0,0,1,.24-.56,2,2,0,0,1,.93-.15H77v-6.57h-.18a1.94,1.94,0,0,1-1-.17.61.61,0,0,1-.26-.57.69.69,0,0,1,.2-.53.92.92,0,0,1,.62-.18H78a.59.59,0,0,1,.44.12.82.82,0,0,1,.13.49,2.59,2.59,0,0,1,2-.88,2.09,2.09,0,0,1,1.19.32,1.79,1.79,0,0,1,.69.94,2.87,2.87,0,0,1,1-1,2.74,2.74,0,0,1,1.3-.31,2.21,2.21,0,0,1,1.93.86,4.93,4.93,0,0,1,.61,2.79v4.64h.16a1.64,1.64,0,0,1,.85.16.64.64,0,0,1,.21.55.75.75,0,0,1-.19.56.73.73,0,0,1-.54.18H86.52a.7.7,0,0,1-.6-.25,1.24,1.24,0,0,1-.2-.78Z"/><path d="M91.87,145.19h2.46a.81.81,0,0,1,.59.19.76.76,0,0,1,.19.55.68.68,0,0,1-.19.56,1,1,0,0,1-.67.17H89.73a.89.89,0,0,1-.62-.19.67.67,0,0,1-.21-.54.63.63,0,0,1,.26-.57,2,2,0,0,1,1-.17h.19V134.56h-.19a2,2,0,0,1-1-.17.63.63,0,0,1-.26-.57.67.67,0,0,1,.21-.54.94.94,0,0,1,.62-.18h1.56a.73.73,0,0,1,.44.1.36.36,0,0,1,.14.32v1a4.92,4.92,0,0,1,1.54-1.07,4.62,4.62,0,0,1,1.82-.36,4.67,4.67,0,0,1,3.45,1.39,4.78,4.78,0,0,1,1.38,3.5,4.51,4.51,0,0,1-1.31,3.32,4.55,4.55,0,0,1-3.35,1.3,5.2,5.2,0,0,1-2-.38,4.08,4.08,0,0,1-1.53-1.11Zm3.18-4.11a3.15,3.15,0,0,0,2.33-.89,3.36,3.36,0,0,0,0-4.62,3.27,3.27,0,0,0-4.65,4.61A3.12,3.12,0,0,0,95.05,141.08Z"/><path d="M106.42,130.63h-1.74a2.8,2.8,0,0,1-1.24-.16.63.63,0,0,1-.26-.58.69.69,0,0,1,.21-.55.94.94,0,0,1,.61-.18h3.39a.71.71,0,0,1,.43.11.36.36,0,0,1,.15.31v11.54h3.22a.83.83,0,0,1,.57.17.73.73,0,0,1,.18.54.74.74,0,0,1-.18.58,1,1,0,0,1-.65.16h-7.57a.92.92,0,0,1-.61-.18.72.72,0,0,1-.21-.56.63.63,0,0,1,.22-.53,1,1,0,0,1,.64-.18h2.84Z"/><path d="M116.24,138.29a3.14,3.14,0,0,0,1,2.28,3.66,3.66,0,0,0,2.51.81,6.31,6.31,0,0,0,2.61-.64,6.86,6.86,0,0,1,1.71-.64.73.73,0,0,1,.51.19.65.65,0,0,1,.21.49.78.78,0,0,1-.22.54,2.34,2.34,0,0,1-.68.48,10.33,10.33,0,0,1-2.12.76,9,9,0,0,1-2.17.27,5.17,5.17,0,0,1-3.74-1.35,4.74,4.74,0,0,1-1.4-3.57,4.81,4.81,0,0,1,1.48-3.67,5.41,5.41,0,0,1,3.88-1.41,5.08,5.08,0,0,1,3.59,1.32,4.17,4.17,0,0,1,1.42,3.17,1,1,0,0,1-.24.77,2.57,2.57,0,0,1-1.31.2h-7Zm.05-1.35H123a3,3,0,0,0-1-2,3.15,3.15,0,0,0-2.12-.74,3.65,3.65,0,0,0-2.3.72A3.38,3.38,0,0,0,116.29,136.94Z"/><path d="M131.3,141.12h3.4a.9.9,0,0,1,.59.17.74.74,0,0,1,.19.54.74.74,0,0,1-.18.58,1,1,0,0,1-.66.16h-6.71a.9.9,0,0,1-.6-.18.72.72,0,0,1-.21-.56.68.68,0,0,1,.21-.53,1,1,0,0,1,.66-.18h1.78v-6.57h-.7a3,3,0,0,1-1.24-.16.65.65,0,0,1-.24-.58.66.66,0,0,1,.2-.53.87.87,0,0,1,.61-.18h2.33a.68.68,0,0,1,.42.11.35.35,0,0,1,.15.31v1.74a7,7,0,0,1,2-1.81,4.51,4.51,0,0,1,2.27-.6,2.73,2.73,0,0,1,1.48.37,1.11,1.11,0,0,1,.56.95,1,1,0,0,1-.28.67.88.88,0,0,1-.62.29,2,2,0,0,1-.8-.31,2.07,2.07,0,0,0-1-.32,3.13,3.13,0,0,0-1.68.57,9.45,9.45,0,0,0-2,1.81Z"/><path d="M148,141.12a2.12,2.12,0,0,1,1,.15.63.63,0,0,1,.22.56.66.66,0,0,1-.22.58,2,2,0,0,1-1,.16h-6.7a.81.81,0,0,1-.57-.18.75.75,0,0,1-.19-.56.61.61,0,0,1,.23-.56,2.12,2.12,0,0,1,1-.15h2.32v-9.23h-2.32a2,2,0,0,1-1-.16.64.64,0,0,1-.24-.58.69.69,0,0,1,.19-.55.85.85,0,0,1,.59-.18h7.16a.79.79,0,0,1,.56.18.72.72,0,0,1,.19.55.66.66,0,0,1-.23.58,2,2,0,0,1-1,.16h-2.32v9.23Z"/><path d="M153.68,141.12v-6.56h-.2a2,2,0,0,1-1-.17.63.63,0,0,1-.26-.57.64.64,0,0,1,.22-.55,1.13,1.13,0,0,1,.69-.17h1.47a.74.74,0,0,1,.43.11.37.37,0,0,1,.15.31v.7a5.49,5.49,0,0,1,1.49-1,3.63,3.63,0,0,1,1.52-.34,3.15,3.15,0,0,1,2.43,1,3.78,3.78,0,0,1,.89,2.66v4.64H162a1.32,1.32,0,0,1,.75.17.79.79,0,0,1,0,1.11,1.61,1.61,0,0,1-.86.17h-2.27a1.54,1.54,0,0,1-.84-.15.77.77,0,0,1-.18-.59.64.64,0,0,1,.21-.55,1.56,1.56,0,0,1,.82-.16H160v-4.26a2.74,2.74,0,0,0-.54-1.83,2,2,0,0,0-1.59-.63,2.71,2.71,0,0,0-1.84.71,2.22,2.22,0,0,0-.81,1.75v4.26h.36a1.55,1.55,0,0,1,.83.16.62.62,0,0,1,.22.55.73.73,0,0,1-.19.59,1.66,1.66,0,0,1-.9.15h-2.42a1,1,0,0,1-.63-.18.7.7,0,0,1-.21-.56.61.61,0,0,1,.24-.56,2,2,0,0,1,.94-.15Z"/><path d="M172.88,133.67a1.17,1.17,0,0,1,.73.18.63.63,0,0,1,.24.55.68.68,0,0,1-.22.54,1,1,0,0,1-.65.18h-4.15v3.42a3.83,3.83,0,0,0,.44,2.22,1.85,1.85,0,0,0,1.49.53,6.06,6.06,0,0,0,2.24-.54,6.31,6.31,0,0,1,1.6-.55.65.65,0,0,1,.49.21.69.69,0,0,1,.2.5.79.79,0,0,1-.25.59,2.53,2.53,0,0,1-.86.49,13.15,13.15,0,0,1-1.8.58,7,7,0,0,1-1.52.18,4.62,4.62,0,0,1-2-.38,2.65,2.65,0,0,1-1.22-1.14,2.93,2.93,0,0,1-.29-.85,11,11,0,0,1-.08-1.52v-3.74h-1.75a1,1,0,0,1-.62-.17.7.7,0,0,1-.2-.55.59.59,0,0,1,.27-.57,2.71,2.71,0,0,1,1.14-.16h1.16V131a.94.94,0,0,1,.19-.65.74.74,0,0,1,.59-.21.71.71,0,0,1,.62.26,2.4,2.4,0,0,1,.17,1.16v2.08Z"/><path d="M179.21,138.29a3.14,3.14,0,0,0,1,2.28,3.68,3.68,0,0,0,2.51.81,6.31,6.31,0,0,0,2.61-.64,7.16,7.16,0,0,1,1.71-.64.77.77,0,0,1,.52.19.68.68,0,0,1,.2.49.82.82,0,0,1-.21.54,2.56,2.56,0,0,1-.69.48,10.13,10.13,0,0,1-2.12.76,8.94,8.94,0,0,1-2.16.27,5.16,5.16,0,0,1-3.74-1.35,4.71,4.71,0,0,1-1.41-3.57,4.81,4.81,0,0,1,1.49-3.67,5.39,5.39,0,0,1,3.87-1.41,5.08,5.08,0,0,1,3.59,1.32,4.14,4.14,0,0,1,1.42,3.17,1,1,0,0,1-.24.77,2.52,2.52,0,0,1-1.3.2h-7Zm.06-1.35h6.67a3,3,0,0,0-1-2,3.19,3.19,0,0,0-2.13-.74,3.62,3.62,0,0,0-2.29.72A3.29,3.29,0,0,0,179.27,136.94Z"/><path d="M199.44,142a9.66,9.66,0,0,1-.14,2,2.69,2.69,0,0,1-.5,1.05,3.47,3.47,0,0,1-1.61,1.15,6.67,6.67,0,0,1-2.44.4,4.75,4.75,0,0,1-1.71-.23.75.75,0,0,1-.53-.71.71.71,0,0,1,.26-.56.88.88,0,0,1,.62-.24,7,7,0,0,1,.85.07,7.46,7.46,0,0,0,.87.08,2.78,2.78,0,0,0,2.15-.7,3.48,3.48,0,0,0,.64-2.38v-1.24a3.94,3.94,0,0,1-1.39,1.06,4.13,4.13,0,0,1-1.74.34,4.27,4.27,0,0,1-3.17-1.28,4.75,4.75,0,0,1,0-6.49,4.3,4.3,0,0,1,3.19-1.3,4.39,4.39,0,0,1,1.55.29,6.38,6.38,0,0,1,1.52.89v-.74a.36.36,0,0,1,.14-.32.7.7,0,0,1,.43-.1H200a.89.89,0,0,1,.61.18.67.67,0,0,1,.21.54.63.63,0,0,1-.26.57,1.87,1.87,0,0,1-1,.17h-.19ZM195,134.62a3,3,0,0,0-2.2.83,3.13,3.13,0,0,0,0,4.29,3,3,0,0,0,2.2.83,3,3,0,0,0,2.18-.83,3.09,3.09,0,0,0,0-4.28A3,3,0,0,0,195,134.62Z"/><path d="M206.87,141.12h3.4a.9.9,0,0,1,.59.17.74.74,0,0,1,.19.54.74.74,0,0,1-.18.58,1,1,0,0,1-.66.16H203.5a.9.9,0,0,1-.6-.18.72.72,0,0,1-.21-.56.65.65,0,0,1,.21-.53,1,1,0,0,1,.65-.18h1.79v-6.57h-.7a3,3,0,0,1-1.24-.16.65.65,0,0,1-.24-.58.66.66,0,0,1,.2-.53.86.86,0,0,1,.6-.18h2.34a.68.68,0,0,1,.42.11.35.35,0,0,1,.15.31v1.74a7.14,7.14,0,0,1,2-1.81,4.57,4.57,0,0,1,2.28-.6,2.73,2.73,0,0,1,1.48.37,1.11,1.11,0,0,1,.56.95,1,1,0,0,1-.28.67.88.88,0,0,1-.62.29,2,2,0,0,1-.8-.31,2.07,2.07,0,0,0-1-.32,3.13,3.13,0,0,0-1.68.57,9.45,9.45,0,0,0-2,1.81Z"/><path d="M222.82,141.27a6.36,6.36,0,0,1-1.83,1.16,5.52,5.52,0,0,1-2,.4,3.58,3.58,0,0,1-2.47-.85,2.88,2.88,0,0,1-.93-2.22,2.91,2.91,0,0,1,1.24-2.51,6,6,0,0,1,3.5-.89,9.9,9.9,0,0,1,2.44.32v-.07a2,2,0,0,0-2.32-2.31,4.47,4.47,0,0,0-1.78.43,4.32,4.32,0,0,1-1.3.43.6.6,0,0,1-.49-.24,1,1,0,0,1-.2-.62c0-.4.38-.74,1.13-1a8.47,8.47,0,0,1,2.9-.42,3.74,3.74,0,0,1,2.73.92,3.69,3.69,0,0,1,.92,2.71v4.64h.5a2.06,2.06,0,0,1,1,.16.59.59,0,0,1,.25.55.72.72,0,0,1-.21.56.89.89,0,0,1-.61.18h-1.61a.68.68,0,0,1-.47-.17,1,1,0,0,1-.25-.51Zm-.08-3.23a8.24,8.24,0,0,0-1.09-.27,6.2,6.2,0,0,0-1.05-.09,5,5,0,0,0-2.49.53,1.62,1.62,0,0,0-.91,1.44,1.4,1.4,0,0,0,.56,1.15,2.28,2.28,0,0,0,1.45.45,4.58,4.58,0,0,0,2.42-.68c.74-.46,1.11-.93,1.11-1.42Z"/><path d="M235.86,133.67a1.19,1.19,0,0,1,.73.18.77.77,0,0,1,0,1.09,1,1,0,0,1-.64.18h-4.15v3.42a3.85,3.85,0,0,0,.43,2.22,1.86,1.86,0,0,0,1.5.53,6,6,0,0,0,2.23-.54,6.33,6.33,0,0,1,1.61-.55.67.67,0,0,1,.49.21.68.68,0,0,1,.19.5.79.79,0,0,1-.25.59,2.46,2.46,0,0,1-.85.49,12.82,12.82,0,0,1-1.81.58,7,7,0,0,1-1.51.18,4.7,4.7,0,0,1-2-.38,2.63,2.63,0,0,1-1.21-1.14,2.66,2.66,0,0,1-.29-.85,9.33,9.33,0,0,1-.09-1.52v-3.74h-1.74a1,1,0,0,1-.63-.17.69.69,0,0,1-.19-.55.61.61,0,0,1,.26-.57,2.71,2.71,0,0,1,1.14-.16h1.16V131a.94.94,0,0,1,.19-.65.76.76,0,0,1,.59-.21.69.69,0,0,1,.62.26,2.36,2.36,0,0,1,.18,1.16v2.08Z"/><path d="M251,137.85a4.66,4.66,0,0,1-1.49,3.58,6.08,6.08,0,0,1-7.76,0,5,5,0,0,1,0-7.17,6.11,6.11,0,0,1,7.75,0A4.67,4.67,0,0,1,251,137.85Zm-5.38,3.53a3.5,3.5,0,0,0,2.59-1,3.42,3.42,0,0,0,1-2.54,3.46,3.46,0,0,0-1-2.55,3.54,3.54,0,0,0-2.59-1,3.49,3.49,0,0,0-2.57,1,3.74,3.74,0,0,0,0,5.1A3.52,3.52,0,0,0,245.65,141.38Z"/><path d="M257.24,141.12h3.41a.9.9,0,0,1,.59.17.73.73,0,0,1,.18.54.75.75,0,0,1-.17.58,1,1,0,0,1-.67.16h-6.7a.9.9,0,0,1-.6-.18.72.72,0,0,1-.21-.56.65.65,0,0,1,.21-.53,1,1,0,0,1,.65-.18h1.79v-6.57H255a3,3,0,0,1-1.24-.16.65.65,0,0,1-.25-.58.69.69,0,0,1,.2-.53.91.91,0,0,1,.61-.18h2.34a.7.7,0,0,1,.42.11.34.34,0,0,1,.14.31v1.74a7.3,7.3,0,0,1,2-1.81,4.57,4.57,0,0,1,2.28-.6,2.67,2.67,0,0,1,1.47.37,1.1,1.1,0,0,1,.57.95,1,1,0,0,1-.28.67.88.88,0,0,1-.62.29,2,2,0,0,1-.8-.31,2.07,2.07,0,0,0-1-.32,3.13,3.13,0,0,0-1.68.57,9.72,9.72,0,0,0-2,1.81Z"/><path d="M268.83,135.22a1.71,1.71,0,0,1,.56-1.31,2.09,2.09,0,0,1,1.45-.51,2.13,2.13,0,0,1,1.47.5,1.69,1.69,0,0,1,.55,1.32,1.65,1.65,0,0,1-.56,1.32,2.08,2.08,0,0,1-1.46.51,2.05,2.05,0,0,1-1.45-.51A1.69,1.69,0,0,1,268.83,135.22Zm0,5.67a1.71,1.71,0,0,1,.56-1.31,2.33,2.33,0,0,1,2.92,0,1.68,1.68,0,0,1,.55,1.32,1.65,1.65,0,0,1-.56,1.32,2.07,2.07,0,0,1-1.46.5,2,2,0,0,1-1.45-.5A1.69,1.69,0,0,1,268.83,140.89Z"/><path d="M281.43,135.22a1.71,1.71,0,0,1,.56-1.31,2.05,2.05,0,0,1,1.45-.51,2.1,2.1,0,0,1,1.46.5,1.84,1.84,0,0,1,0,2.64,2.34,2.34,0,0,1-2.92,0A1.68,1.68,0,0,1,281.43,135.22Zm0,5.67a1.71,1.71,0,0,1,.56-1.31,2.31,2.31,0,0,1,2.91,0,1.84,1.84,0,0,1,0,2.64,2.38,2.38,0,0,1-2.92,0A1.68,1.68,0,0,1,281.43,140.89Z"/><path d="M293.75,141.12h.69a1.55,1.55,0,0,1,.84.17.59.59,0,0,1,.25.54.69.69,0,0,1-.21.58,1.45,1.45,0,0,1-.81.16h-3.45a.69.69,0,0,1-.53-.19.78.78,0,0,1-.19-.55.65.65,0,0,1,.21-.54,1.09,1.09,0,0,1,.68-.17h.93V131.8h-.6a2.26,2.26,0,0,1-1-.14.61.61,0,0,1-.23-.55.7.7,0,0,1,.18-.52.73.73,0,0,1,.54-.17h4.33a14.77,14.77,0,0,1,2.34.14,3.59,3.59,0,0,1,1.31.51,3.44,3.44,0,0,1,1.08,1.22,3.53,3.53,0,0,1,.39,1.63,3,3,0,0,1-.72,2,3.74,3.74,0,0,1-2,1.18,2.15,2.15,0,0,1,.48.36,3,3,0,0,1,.41.49l2.06,3.15h.33a1.43,1.43,0,0,1,.79.16.63.63,0,0,1,.22.55.78.78,0,0,1-.18.55.69.69,0,0,1-.53.19h-1.16c-.33,0-.66-.25-1-.74l-.09-.1-2-3a4.5,4.5,0,0,0-1-1.18,1.8,1.8,0,0,0-1-.27h-1.36Zm0-9.32v4.14h2.12a3.68,3.68,0,0,0,2.16-.52,1.77,1.77,0,0,0,.72-1.54,1.82,1.82,0,0,0-.71-1.56,3.51,3.51,0,0,0-2.11-.52Z"/><path d="M305.16,138.29a3.14,3.14,0,0,0,1,2.28,3.66,3.66,0,0,0,2.51.81,6.31,6.31,0,0,0,2.61-.64,6.86,6.86,0,0,1,1.71-.64.73.73,0,0,1,.51.19.65.65,0,0,1,.21.49.82.82,0,0,1-.21.54,2.56,2.56,0,0,1-.69.48,10.33,10.33,0,0,1-2.12.76,9,9,0,0,1-2.17.27,5.19,5.19,0,0,1-3.74-1.35,4.74,4.74,0,0,1-1.4-3.57,4.81,4.81,0,0,1,1.49-3.67,5.39,5.39,0,0,1,3.87-1.41,5.08,5.08,0,0,1,3.59,1.32,4.14,4.14,0,0,1,1.42,3.17,1,1,0,0,1-.24.77,2.57,2.57,0,0,1-1.31.2h-7Zm0-1.35h6.68a3.05,3.05,0,0,0-1-2,3.19,3.19,0,0,0-2.13-.74,3.67,3.67,0,0,0-2.3.72A3.38,3.38,0,0,0,305.21,136.94Z"/><path d="M317.41,141.12v-6.56h-.19a1.92,1.92,0,0,1-1-.17.61.61,0,0,1-.26-.57.67.67,0,0,1,.21-.55,1.18,1.18,0,0,1,.7-.17h1.46a.74.74,0,0,1,.43.11.36.36,0,0,1,.16.31v.7a5.45,5.45,0,0,1,1.48-1,3.66,3.66,0,0,1,1.52-.34,3.15,3.15,0,0,1,2.43,1,3.74,3.74,0,0,1,.89,2.66v4.64h.49a1.28,1.28,0,0,1,.74.17.65.65,0,0,1,.23.54.64.64,0,0,1-.24.57,1.63,1.63,0,0,1-.86.17h-2.27a1.56,1.56,0,0,1-.85-.15.77.77,0,0,1-.18-.59.62.62,0,0,1,.22-.55,1.49,1.49,0,0,1,.81-.16h.36v-4.26a2.74,2.74,0,0,0-.54-1.83,2,2,0,0,0-1.58-.63,2.71,2.71,0,0,0-1.85.71,2.21,2.21,0,0,0-.8,1.75v4.26h.36a1.57,1.57,0,0,1,.83.16.64.64,0,0,1,.21.55.77.77,0,0,1-.18.59,1.71,1.71,0,0,1-.9.15h-2.42a1,1,0,0,1-.63-.18.7.7,0,0,1-.21-.56.61.61,0,0,1,.24-.56,2,2,0,0,1,.94-.15Z"/><path d="M336.9,142.57a.38.38,0,0,1-.3-.11.67.67,0,0,1-.09-.41v-.84A4.17,4.17,0,0,1,335,142.4a4.82,4.82,0,0,1-2,.43,4.3,4.3,0,0,1-3.25-1.38,5.18,5.18,0,0,1,.09-7,4.69,4.69,0,0,1,3.47-1.41,4.77,4.77,0,0,1,1.9.37,4,4,0,0,1,1.45,1.11v-3.93h-.55a2.55,2.55,0,0,1-1.15-.16.63.63,0,0,1-.26-.58.69.69,0,0,1,.21-.55.91.91,0,0,1,.61-.18h2.1a.73.73,0,0,1,.44.1.35.35,0,0,1,.14.32v11.54h.46a1.24,1.24,0,0,1,.73.17.65.65,0,0,1,.23.54.76.76,0,0,1-.2.55.74.74,0,0,1-.52.19Zm-6.71-4.6a3.1,3.1,0,0,0,.91,2.31,3.37,3.37,0,0,0,4.64,0,3.28,3.28,0,0,0,.92-2.38,3.23,3.23,0,0,0-.91-2.35,3.41,3.41,0,0,0-4.67,0A3.39,3.39,0,0,0,330.19,138Z"/><path d="M343,138.29a3.1,3.1,0,0,0,1,2.28,3.63,3.63,0,0,0,2.5.81,6.39,6.39,0,0,0,2.62-.64,6.86,6.86,0,0,1,1.71-.64.76.76,0,0,1,.51.19.65.65,0,0,1,.21.49.83.83,0,0,1-.22.54,2.27,2.27,0,0,1-.69.48,10,10,0,0,1-2.11.76,9,9,0,0,1-2.17.27,5.16,5.16,0,0,1-3.74-1.35,4.71,4.71,0,0,1-1.4-3.57,4.81,4.81,0,0,1,1.48-3.67,5.4,5.4,0,0,1,3.88-1.41,5.06,5.06,0,0,1,3.58,1.32,4.15,4.15,0,0,1,1.43,3.17,1,1,0,0,1-.24.77,2.6,2.6,0,0,1-1.31.2h-7Zm.05-1.35h6.67a3,3,0,0,0-1-2,3.17,3.17,0,0,0-2.12-.74,3.65,3.65,0,0,0-2.3.72A3.38,3.38,0,0,0,343,136.94Z"/><path d="M358,141.12h3.41a.85.85,0,0,1,.58.17.7.7,0,0,1,.19.54.74.74,0,0,1-.18.58,1,1,0,0,1-.66.16h-6.7a.88.88,0,0,1-.6-.18.72.72,0,0,1-.21-.56.65.65,0,0,1,.21-.53,1,1,0,0,1,.65-.18h1.79v-6.57h-.7a3,3,0,0,1-1.24-.16.65.65,0,0,1-.25-.58.69.69,0,0,1,.2-.53.91.91,0,0,1,.61-.18h2.34a.72.72,0,0,1,.42.11.34.34,0,0,1,.14.31v1.74a7.3,7.3,0,0,1,2-1.81,4.54,4.54,0,0,1,2.28-.6,2.67,2.67,0,0,1,1.47.37,1.1,1.1,0,0,1,.57.95,1,1,0,0,1-.29.67.84.84,0,0,1-.62.29,2,2,0,0,1-.79-.31,2.1,2.1,0,0,0-1-.32,3.13,3.13,0,0,0-1.68.57,9.47,9.47,0,0,0-2,1.81Z"/><path d="M373.68,130.52a3,3,0,0,1-.34.93c-.23.47-.4.85-.52,1.13a17.27,17.27,0,0,0-1,3,13.59,13.59,0,0,0-.29,2.81,13.1,13.1,0,0,0,.25,2.6,13.93,13.93,0,0,0,.74,2.5c.18.45.41,1,.71,1.6a4.25,4.25,0,0,1,.44,1.13.52.52,0,0,1-.1.35.29.29,0,0,1-.26.13,1.14,1.14,0,0,1-.7-.33,6.48,6.48,0,0,1-.91-1.07,12.16,12.16,0,0,1-1.63-3.29,11.76,11.76,0,0,1-.55-3.62,12,12,0,0,1,.45-3.31,12.1,12.1,0,0,1,1.35-3.05,8.43,8.43,0,0,1,1.1-1.46,1.38,1.38,0,0,1,.89-.49.29.29,0,0,1,.26.13A.48.48,0,0,1,373.68,130.52Z"/><path d="M382.11,146.2a2.88,2.88,0,0,1,.34-.91c.24-.47.41-.84.54-1.12a17.33,17.33,0,0,0,1-3,12.92,12.92,0,0,0,.3-2.8,13.29,13.29,0,0,0-1-5.12c-.17-.45-.41-1-.7-1.59a3.91,3.91,0,0,1-.44-1.14.48.48,0,0,1,.1-.33.32.32,0,0,1,.26-.13,1.16,1.16,0,0,1,.73.33,6.39,6.39,0,0,1,.89,1.06,11.65,11.65,0,0,1,1.64,3.29,11.82,11.82,0,0,1,.55,3.63,11.81,11.81,0,0,1-1.83,6.36,8.63,8.63,0,0,1-1.11,1.48,1.35,1.35,0,0,1-.87.47.35.35,0,0,1-.26-.13A.56.56,0,0,1,382.11,146.2Z"/><path class="cls-2" d="M53.74,142.21a1,1,0,0,1-.24.64.81.81,0,0,1-.58.18.77.77,0,0,1-.64-.25A1.39,1.39,0,0,1,52,142l-.14-2.38v-.19a1,1,0,0,1,.19-.69.83.83,0,0,1,.63-.21c.41,0,.71.3.89.88a4.17,4.17,0,0,0,.23.67A2.48,2.48,0,0,0,55,141.16a4.1,4.1,0,0,0,1.85.38,3.45,3.45,0,0,0,2.15-.62,1.92,1.92,0,0,0,.82-1.6,1.72,1.72,0,0,0-.5-1.3,2.64,2.64,0,0,0-1.48-.64l-1.52-.2a6.09,6.09,0,0,1-3.09-1.12,2.83,2.83,0,0,1-1-2.3,3.27,3.27,0,0,1,1.3-2.64,4.91,4.91,0,0,1,3.23-1.06,5.1,5.1,0,0,1,1.19.15,8.8,8.8,0,0,1,1.41.46.56.56,0,0,1,.17-.41.84.84,0,0,1,.49-.11,1.1,1.1,0,0,1,.63.13,1,1,0,0,1,.21.64l.14,2.14v.1a.73.73,0,0,1-.2.56.82.82,0,0,1-.58.2c-.36,0-.64-.25-.83-.76a3.32,3.32,0,0,0-.29-.64,2.09,2.09,0,0,0-1-.79,3.46,3.46,0,0,0-1.44-.28,3.11,3.11,0,0,0-2,.62,1.94,1.94,0,0,0-.78,1.6,1.49,1.49,0,0,0,.58,1.23,3.66,3.66,0,0,0,1.77.62l1.64.2a4.7,4.7,0,0,1,2.68,1.1,3,3,0,0,1,.91,2.31,3.39,3.39,0,0,1-1.29,2.76,5.27,5.27,0,0,1-3.42,1,6,6,0,0,1-1.46-.18A8,8,0,0,1,53.74,142.21Z"/><path class="cls-2" d="M71.68,141.27a6.36,6.36,0,0,1-1.83,1.16,5.48,5.48,0,0,1-2,.4,3.58,3.58,0,0,1-2.47-.85,2.88,2.88,0,0,1-.93-2.22,2.91,2.91,0,0,1,1.24-2.51,6,6,0,0,1,3.5-.89,9.9,9.9,0,0,1,2.44.32v-.07a2,2,0,0,0-2.32-2.31,4.47,4.47,0,0,0-1.78.43,4.23,4.23,0,0,1-1.3.43.6.6,0,0,1-.49-.24,1,1,0,0,1-.2-.62c0-.4.38-.74,1.14-1a8.41,8.41,0,0,1,2.89-.42,3.74,3.74,0,0,1,2.73.92,3.69,3.69,0,0,1,.92,2.71v4.64h.5a2.11,2.11,0,0,1,1,.16.6.6,0,0,1,.24.55.75.75,0,0,1-.2.56.94.94,0,0,1-.62.18H72.48a.68.68,0,0,1-.47-.17,1,1,0,0,1-.25-.51ZM71.6,138a8.24,8.24,0,0,0-1.09-.27,6.2,6.2,0,0,0-1.05-.09,5,5,0,0,0-2.49.53,1.62,1.62,0,0,0-.91,1.44,1.43,1.43,0,0,0,.56,1.15,2.29,2.29,0,0,0,1.46.45,4.58,4.58,0,0,0,2.41-.68c.74-.46,1.11-.93,1.11-1.42Z"/><path class="cls-2" d="M85.72,136.86a4.76,4.76,0,0,0-.26-2,.91.91,0,0,0-.89-.51,1.38,1.38,0,0,0-1.2.66,3.15,3.15,0,0,0-.45,1.8v4.26h.19a1.57,1.57,0,0,1,.83.15.68.68,0,0,1,.2.56.78.78,0,0,1-.17.56.71.71,0,0,1-.53.18h-1.3a.7.7,0,0,1-.6-.21,1.55,1.55,0,0,1-.16-.88v-5.42a1.93,1.93,0,0,0-.35-1.21,1.14,1.14,0,0,0-1-.45,1.46,1.46,0,0,0-.85.27,2.1,2.1,0,0,0-.66.81v5.64H79a1.53,1.53,0,0,1,.82.16.64.64,0,0,1,.21.55.75.75,0,0,1-.17.58,1,1,0,0,1-.67.16H76.43a.82.82,0,0,1-.59-.18.73.73,0,0,1-.19-.56.61.61,0,0,1,.24-.56,2,2,0,0,1,.93-.15H77v-6.57h-.18a1.94,1.94,0,0,1-1-.17.61.61,0,0,1-.26-.57.69.69,0,0,1,.2-.53.92.92,0,0,1,.62-.18H78a.59.59,0,0,1,.44.12.82.82,0,0,1,.13.49,2.59,2.59,0,0,1,2-.88,2.09,2.09,0,0,1,1.19.32,1.79,1.79,0,0,1,.69.94,2.87,2.87,0,0,1,1-1,2.74,2.74,0,0,1,1.3-.31,2.21,2.21,0,0,1,1.93.86,4.93,4.93,0,0,1,.61,2.79v4.64h.16a1.64,1.64,0,0,1,.85.16.64.64,0,0,1,.21.55.75.75,0,0,1-.19.56.73.73,0,0,1-.54.18H86.52a.7.7,0,0,1-.6-.25,1.24,1.24,0,0,1-.2-.78Z"/><path class="cls-2" d="M91.87,145.19h2.46a.81.81,0,0,1,.59.19.76.76,0,0,1,.19.55.68.68,0,0,1-.19.56,1,1,0,0,1-.67.17H89.73a.89.89,0,0,1-.62-.19.67.67,0,0,1-.21-.54.63.63,0,0,1,.26-.57,2,2,0,0,1,1-.17h.19V134.56h-.19a2,2,0,0,1-1-.17.63.63,0,0,1-.26-.57.67.67,0,0,1,.21-.54.94.94,0,0,1,.62-.18h1.56a.73.73,0,0,1,.44.1.36.36,0,0,1,.14.32v1a4.92,4.92,0,0,1,1.54-1.07,4.62,4.62,0,0,1,1.82-.36,4.67,4.67,0,0,1,3.45,1.39,4.78,4.78,0,0,1,1.38,3.5,4.51,4.51,0,0,1-1.31,3.32,4.55,4.55,0,0,1-3.35,1.3,5.2,5.2,0,0,1-2-.38,4.08,4.08,0,0,1-1.53-1.11Zm3.18-4.11a3.15,3.15,0,0,0,2.33-.89,3.36,3.36,0,0,0,0-4.62,3.27,3.27,0,0,0-4.65,4.61A3.12,3.12,0,0,0,95.05,141.08Z"/><path class="cls-2" d="M106.42,130.63h-1.74a2.8,2.8,0,0,1-1.24-.16.63.63,0,0,1-.26-.58.69.69,0,0,1,.21-.55.94.94,0,0,1,.61-.18h3.39a.71.71,0,0,1,.43.11.36.36,0,0,1,.15.31v11.54h3.22a.83.83,0,0,1,.57.17.73.73,0,0,1,.18.54.74.74,0,0,1-.18.58,1,1,0,0,1-.65.16h-7.57a.92.92,0,0,1-.61-.18.72.72,0,0,1-.21-.56.63.63,0,0,1,.22-.53,1,1,0,0,1,.64-.18h2.84Z"/><path class="cls-2" d="M116.24,138.29a3.14,3.14,0,0,0,1,2.28,3.66,3.66,0,0,0,2.51.81,6.31,6.31,0,0,0,2.61-.64,6.86,6.86,0,0,1,1.71-.64.73.73,0,0,1,.51.19.65.65,0,0,1,.21.49.78.78,0,0,1-.22.54,2.34,2.34,0,0,1-.68.48,10.33,10.33,0,0,1-2.12.76,9,9,0,0,1-2.17.27,5.17,5.17,0,0,1-3.74-1.35,4.74,4.74,0,0,1-1.4-3.57,4.81,4.81,0,0,1,1.48-3.67,5.41,5.41,0,0,1,3.88-1.41,5.08,5.08,0,0,1,3.59,1.32,4.17,4.17,0,0,1,1.42,3.17,1,1,0,0,1-.24.77,2.57,2.57,0,0,1-1.31.2h-7Zm.05-1.35H123a3,3,0,0,0-1-2,3.15,3.15,0,0,0-2.12-.74,3.65,3.65,0,0,0-2.3.72A3.38,3.38,0,0,0,116.29,136.94Z"/><path class="cls-2" d="M131.3,141.12h3.4a.9.9,0,0,1,.59.17.74.74,0,0,1,.19.54.74.74,0,0,1-.18.58,1,1,0,0,1-.66.16h-6.71a.9.9,0,0,1-.6-.18.72.72,0,0,1-.21-.56.68.68,0,0,1,.21-.53,1,1,0,0,1,.66-.18h1.78v-6.57h-.7a3,3,0,0,1-1.24-.16.65.65,0,0,1-.24-.58.66.66,0,0,1,.2-.53.87.87,0,0,1,.61-.18h2.33a.68.68,0,0,1,.42.11.35.35,0,0,1,.15.31v1.74a7,7,0,0,1,2-1.81,4.51,4.51,0,0,1,2.27-.6,2.73,2.73,0,0,1,1.48.37,1.11,1.11,0,0,1,.56.95,1,1,0,0,1-.28.67.88.88,0,0,1-.62.29,2,2,0,0,1-.8-.31,2.07,2.07,0,0,0-1-.32,3.13,3.13,0,0,0-1.68.57,9.45,9.45,0,0,0-2,1.81Z"/><path class="cls-2" d="M148,141.12a2.12,2.12,0,0,1,1,.15.63.63,0,0,1,.22.56.66.66,0,0,1-.22.58,2,2,0,0,1-1,.16h-6.7a.81.81,0,0,1-.57-.18.75.75,0,0,1-.19-.56.61.61,0,0,1,.23-.56,2.12,2.12,0,0,1,1-.15h2.32v-9.23h-2.32a2,2,0,0,1-1-.16.64.64,0,0,1-.24-.58.69.69,0,0,1,.19-.55.85.85,0,0,1,.59-.18h7.16a.79.79,0,0,1,.56.18.72.72,0,0,1,.19.55.66.66,0,0,1-.23.58,2,2,0,0,1-1,.16h-2.32v9.23Z"/><path class="cls-2" d="M153.68,141.12v-6.56h-.2a2,2,0,0,1-1-.17.63.63,0,0,1-.26-.57.64.64,0,0,1,.22-.55,1.13,1.13,0,0,1,.69-.17h1.47a.74.74,0,0,1,.43.11.37.37,0,0,1,.15.31v.7a5.49,5.49,0,0,1,1.49-1,3.63,3.63,0,0,1,1.52-.34,3.15,3.15,0,0,1,2.43,1,3.78,3.78,0,0,1,.89,2.66v4.64H162a1.32,1.32,0,0,1,.75.17.79.79,0,0,1,0,1.11,1.61,1.61,0,0,1-.86.17h-2.27a1.54,1.54,0,0,1-.84-.15.77.77,0,0,1-.18-.59.64.64,0,0,1,.21-.55,1.56,1.56,0,0,1,.82-.16H160v-4.26a2.74,2.74,0,0,0-.54-1.83,2,2,0,0,0-1.59-.63,2.71,2.71,0,0,0-1.84.71,2.22,2.22,0,0,0-.81,1.75v4.26h.36a1.55,1.55,0,0,1,.83.16.62.62,0,0,1,.22.55.73.73,0,0,1-.19.59,1.66,1.66,0,0,1-.9.15h-2.42a1,1,0,0,1-.63-.18.7.7,0,0,1-.21-.56.61.61,0,0,1,.24-.56,2,2,0,0,1,.94-.15Z"/><path class="cls-2" d="M172.88,133.67a1.17,1.17,0,0,1,.73.18.63.63,0,0,1,.24.55.68.68,0,0,1-.22.54,1,1,0,0,1-.65.18h-4.15v3.42a3.83,3.83,0,0,0,.44,2.22,1.85,1.85,0,0,0,1.49.53,6.06,6.06,0,0,0,2.24-.54,6.31,6.31,0,0,1,1.6-.55.65.65,0,0,1,.49.21.69.69,0,0,1,.2.5.79.79,0,0,1-.25.59,2.53,2.53,0,0,1-.86.49,13.15,13.15,0,0,1-1.8.58,7,7,0,0,1-1.52.18,4.62,4.62,0,0,1-2-.38,2.65,2.65,0,0,1-1.22-1.14,2.93,2.93,0,0,1-.29-.85,11,11,0,0,1-.08-1.52v-3.74h-1.75a1,1,0,0,1-.62-.17.7.7,0,0,1-.2-.55.59.59,0,0,1,.27-.57,2.71,2.71,0,0,1,1.14-.16h1.16V131a.94.94,0,0,1,.19-.65.74.74,0,0,1,.59-.21.71.71,0,0,1,.62.26,2.4,2.4,0,0,1,.17,1.16v2.08Z"/><path class="cls-2" d="M179.21,138.29a3.14,3.14,0,0,0,1,2.28,3.68,3.68,0,0,0,2.51.81,6.31,6.31,0,0,0,2.61-.64,7.16,7.16,0,0,1,1.71-.64.77.77,0,0,1,.52.19.68.68,0,0,1,.2.49.82.82,0,0,1-.21.54,2.56,2.56,0,0,1-.69.48,10.13,10.13,0,0,1-2.12.76,8.94,8.94,0,0,1-2.16.27,5.16,5.16,0,0,1-3.74-1.35,4.71,4.71,0,0,1-1.41-3.57,4.81,4.81,0,0,1,1.49-3.67,5.39,5.39,0,0,1,3.87-1.41,5.08,5.08,0,0,1,3.59,1.32,4.14,4.14,0,0,1,1.42,3.17,1,1,0,0,1-.24.77,2.52,2.52,0,0,1-1.3.2h-7Zm.06-1.35h6.67a3,3,0,0,0-1-2,3.19,3.19,0,0,0-2.13-.74,3.62,3.62,0,0,0-2.29.72A3.29,3.29,0,0,0,179.27,136.94Z"/><path class="cls-2" d="M199.44,142a9.66,9.66,0,0,1-.14,2,2.69,2.69,0,0,1-.5,1.05,3.47,3.47,0,0,1-1.61,1.15,6.67,6.67,0,0,1-2.44.4,4.75,4.75,0,0,1-1.71-.23.75.75,0,0,1-.53-.71.71.71,0,0,1,.26-.56.88.88,0,0,1,.62-.24,7,7,0,0,1,.85.07,7.46,7.46,0,0,0,.87.08,2.78,2.78,0,0,0,2.15-.7,3.48,3.48,0,0,0,.64-2.38v-1.24a3.94,3.94,0,0,1-1.39,1.06,4.13,4.13,0,0,1-1.74.34,4.27,4.27,0,0,1-3.17-1.28,4.75,4.75,0,0,1,0-6.49,4.3,4.3,0,0,1,3.19-1.3,4.39,4.39,0,0,1,1.55.29,6.38,6.38,0,0,1,1.52.89v-.74a.36.36,0,0,1,.14-.32.7.7,0,0,1,.43-.1H200a.89.89,0,0,1,.61.18.67.67,0,0,1,.21.54.63.63,0,0,1-.26.57,1.87,1.87,0,0,1-1,.17h-.19ZM195,134.62a3,3,0,0,0-2.2.83,3.13,3.13,0,0,0,0,4.29,3,3,0,0,0,2.2.83,3,3,0,0,0,2.18-.83,3.09,3.09,0,0,0,0-4.28A3,3,0,0,0,195,134.62Z"/><path class="cls-2" d="M206.87,141.12h3.4a.9.9,0,0,1,.59.17.74.74,0,0,1,.19.54.74.74,0,0,1-.18.58,1,1,0,0,1-.66.16H203.5a.9.9,0,0,1-.6-.18.72.72,0,0,1-.21-.56.65.65,0,0,1,.21-.53,1,1,0,0,1,.65-.18h1.79v-6.57h-.7a3,3,0,0,1-1.24-.16.65.65,0,0,1-.24-.58.66.66,0,0,1,.2-.53.86.86,0,0,1,.6-.18h2.34a.68.68,0,0,1,.42.11.35.35,0,0,1,.15.31v1.74a7.14,7.14,0,0,1,2-1.81,4.57,4.57,0,0,1,2.28-.6,2.73,2.73,0,0,1,1.48.37,1.11,1.11,0,0,1,.56.95,1,1,0,0,1-.28.67.88.88,0,0,1-.62.29,2,2,0,0,1-.8-.31,2.07,2.07,0,0,0-1-.32,3.13,3.13,0,0,0-1.68.57,9.45,9.45,0,0,0-2,1.81Z"/><path class="cls-2" d="M222.82,141.27a6.36,6.36,0,0,1-1.83,1.16,5.52,5.52,0,0,1-2,.4,3.58,3.58,0,0,1-2.47-.85,2.88,2.88,0,0,1-.93-2.22,2.91,2.91,0,0,1,1.24-2.51,6,6,0,0,1,3.5-.89,9.9,9.9,0,0,1,2.44.32v-.07a2,2,0,0,0-2.32-2.31,4.47,4.47,0,0,0-1.78.43,4.32,4.32,0,0,1-1.3.43.6.6,0,0,1-.49-.24,1,1,0,0,1-.2-.62c0-.4.38-.74,1.13-1a8.47,8.47,0,0,1,2.9-.42,3.74,3.74,0,0,1,2.73.92,3.69,3.69,0,0,1,.92,2.71v4.64h.5a2.06,2.06,0,0,1,1,.16.59.59,0,0,1,.25.55.72.72,0,0,1-.21.56.89.89,0,0,1-.61.18h-1.61a.68.68,0,0,1-.47-.17,1,1,0,0,1-.25-.51Zm-.08-3.23a8.24,8.24,0,0,0-1.09-.27,6.2,6.2,0,0,0-1.05-.09,5,5,0,0,0-2.49.53,1.62,1.62,0,0,0-.91,1.44,1.4,1.4,0,0,0,.56,1.15,2.28,2.28,0,0,0,1.45.45,4.58,4.58,0,0,0,2.42-.68c.74-.46,1.11-.93,1.11-1.42Z"/><path class="cls-2" d="M235.86,133.67a1.19,1.19,0,0,1,.73.18.77.77,0,0,1,0,1.09,1,1,0,0,1-.64.18h-4.15v3.42a3.85,3.85,0,0,0,.43,2.22,1.86,1.86,0,0,0,1.5.53,6,6,0,0,0,2.23-.54,6.33,6.33,0,0,1,1.61-.55.67.67,0,0,1,.49.21.68.68,0,0,1,.19.5.79.79,0,0,1-.25.59,2.46,2.46,0,0,1-.85.49,12.82,12.82,0,0,1-1.81.58,7,7,0,0,1-1.51.18,4.7,4.7,0,0,1-2-.38,2.63,2.63,0,0,1-1.21-1.14,2.66,2.66,0,0,1-.29-.85,9.33,9.33,0,0,1-.09-1.52v-3.74h-1.74a1,1,0,0,1-.63-.17.69.69,0,0,1-.19-.55.61.61,0,0,1,.26-.57,2.71,2.71,0,0,1,1.14-.16h1.16V131a.94.94,0,0,1,.19-.65.76.76,0,0,1,.59-.21.69.69,0,0,1,.62.26,2.36,2.36,0,0,1,.18,1.16v2.08Z"/><path class="cls-2" d="M251,137.85a4.66,4.66,0,0,1-1.49,3.58,6.08,6.08,0,0,1-7.76,0,5,5,0,0,1,0-7.17,6.11,6.11,0,0,1,7.75,0A4.67,4.67,0,0,1,251,137.85Zm-5.38,3.53a3.5,3.5,0,0,0,2.59-1,3.42,3.42,0,0,0,1-2.54,3.46,3.46,0,0,0-1-2.55,3.54,3.54,0,0,0-2.59-1,3.49,3.49,0,0,0-2.57,1,3.74,3.74,0,0,0,0,5.1A3.52,3.52,0,0,0,245.65,141.38Z"/><path class="cls-2" d="M257.24,141.12h3.41a.9.9,0,0,1,.59.17.73.73,0,0,1,.18.54.75.75,0,0,1-.17.58,1,1,0,0,1-.67.16h-6.7a.9.9,0,0,1-.6-.18.72.72,0,0,1-.21-.56.65.65,0,0,1,.21-.53,1,1,0,0,1,.65-.18h1.79v-6.57H255a3,3,0,0,1-1.24-.16.65.65,0,0,1-.25-.58.69.69,0,0,1,.2-.53.91.91,0,0,1,.61-.18h2.34a.7.7,0,0,1,.42.11.34.34,0,0,1,.14.31v1.74a7.3,7.3,0,0,1,2-1.81,4.57,4.57,0,0,1,2.28-.6,2.67,2.67,0,0,1,1.47.37,1.1,1.1,0,0,1,.57.95,1,1,0,0,1-.28.67.88.88,0,0,1-.62.29,2,2,0,0,1-.8-.31,2.07,2.07,0,0,0-1-.32,3.13,3.13,0,0,0-1.68.57,9.72,9.72,0,0,0-2,1.81Z"/><path class="cls-2" d="M268.83,135.22a1.71,1.71,0,0,1,.56-1.31,2.09,2.09,0,0,1,1.45-.51,2.13,2.13,0,0,1,1.47.5,1.69,1.69,0,0,1,.55,1.32,1.65,1.65,0,0,1-.56,1.32,2.08,2.08,0,0,1-1.46.51,2.05,2.05,0,0,1-1.45-.51A1.69,1.69,0,0,1,268.83,135.22Zm0,5.67a1.71,1.71,0,0,1,.56-1.31,2.33,2.33,0,0,1,2.92,0,1.68,1.68,0,0,1,.55,1.32,1.65,1.65,0,0,1-.56,1.32,2.07,2.07,0,0,1-1.46.5,2,2,0,0,1-1.45-.5A1.69,1.69,0,0,1,268.83,140.89Z"/><path class="cls-2" d="M281.43,135.22a1.71,1.71,0,0,1,.56-1.31,2.05,2.05,0,0,1,1.45-.51,2.1,2.1,0,0,1,1.46.5,1.84,1.84,0,0,1,0,2.64,2.34,2.34,0,0,1-2.92,0A1.68,1.68,0,0,1,281.43,135.22Zm0,5.67a1.71,1.71,0,0,1,.56-1.31,2.31,2.31,0,0,1,2.91,0,1.84,1.84,0,0,1,0,2.64,2.38,2.38,0,0,1-2.92,0A1.68,1.68,0,0,1,281.43,140.89Z"/><path class="cls-2" d="M293.75,141.12h.69a1.55,1.55,0,0,1,.84.17.59.59,0,0,1,.25.54.69.69,0,0,1-.21.58,1.45,1.45,0,0,1-.81.16h-3.45a.69.69,0,0,1-.53-.19.78.78,0,0,1-.19-.55.65.65,0,0,1,.21-.54,1.09,1.09,0,0,1,.68-.17h.93V131.8h-.6a2.26,2.26,0,0,1-1-.14.61.61,0,0,1-.23-.55.7.7,0,0,1,.18-.52.73.73,0,0,1,.54-.17h4.33a14.77,14.77,0,0,1,2.34.14,3.59,3.59,0,0,1,1.31.51,3.44,3.44,0,0,1,1.08,1.22,3.53,3.53,0,0,1,.39,1.63,3,3,0,0,1-.72,2,3.74,3.74,0,0,1-2,1.18,2.15,2.15,0,0,1,.48.36,3,3,0,0,1,.41.49l2.06,3.15h.33a1.43,1.43,0,0,1,.79.16.63.63,0,0,1,.22.55.78.78,0,0,1-.18.55.69.69,0,0,1-.53.19h-1.16c-.33,0-.66-.25-1-.74l-.09-.1-2-3a4.5,4.5,0,0,0-1-1.18,1.8,1.8,0,0,0-1-.27h-1.36Zm0-9.32v4.14h2.12a3.68,3.68,0,0,0,2.16-.52,1.77,1.77,0,0,0,.72-1.54,1.82,1.82,0,0,0-.71-1.56,3.51,3.51,0,0,0-2.11-.52Z"/><path class="cls-2" d="M305.16,138.29a3.14,3.14,0,0,0,1,2.28,3.66,3.66,0,0,0,2.51.81,6.31,6.31,0,0,0,2.61-.64,6.86,6.86,0,0,1,1.71-.64.73.73,0,0,1,.51.19.65.65,0,0,1,.21.49.82.82,0,0,1-.21.54,2.56,2.56,0,0,1-.69.48,10.33,10.33,0,0,1-2.12.76,9,9,0,0,1-2.17.27,5.19,5.19,0,0,1-3.74-1.35,4.74,4.74,0,0,1-1.4-3.57,4.81,4.81,0,0,1,1.49-3.67,5.39,5.39,0,0,1,3.87-1.41,5.08,5.08,0,0,1,3.59,1.32,4.14,4.14,0,0,1,1.42,3.17,1,1,0,0,1-.24.77,2.57,2.57,0,0,1-1.31.2h-7Zm0-1.35h6.68a3.05,3.05,0,0,0-1-2,3.19,3.19,0,0,0-2.13-.74,3.67,3.67,0,0,0-2.3.72A3.38,3.38,0,0,0,305.21,136.94Z"/><path class="cls-2" d="M317.41,141.12v-6.56h-.19a1.92,1.92,0,0,1-1-.17.61.61,0,0,1-.26-.57.67.67,0,0,1,.21-.55,1.18,1.18,0,0,1,.7-.17h1.46a.74.74,0,0,1,.43.11.36.36,0,0,1,.16.31v.7a5.45,5.45,0,0,1,1.48-1,3.66,3.66,0,0,1,1.52-.34,3.15,3.15,0,0,1,2.43,1,3.74,3.74,0,0,1,.89,2.66v4.64h.49a1.28,1.28,0,0,1,.74.17.65.65,0,0,1,.23.54.64.64,0,0,1-.24.57,1.63,1.63,0,0,1-.86.17h-2.27a1.56,1.56,0,0,1-.85-.15.77.77,0,0,1-.18-.59.62.62,0,0,1,.22-.55,1.49,1.49,0,0,1,.81-.16h.36v-4.26a2.74,2.74,0,0,0-.54-1.83,2,2,0,0,0-1.58-.63,2.71,2.71,0,0,0-1.85.71,2.21,2.21,0,0,0-.8,1.75v4.26h.36a1.57,1.57,0,0,1,.83.16.64.64,0,0,1,.21.55.77.77,0,0,1-.18.59,1.71,1.71,0,0,1-.9.15h-2.42a1,1,0,0,1-.63-.18.7.7,0,0,1-.21-.56.61.61,0,0,1,.24-.56,2,2,0,0,1,.94-.15Z"/><path class="cls-2" d="M336.9,142.57a.38.38,0,0,1-.3-.11.67.67,0,0,1-.09-.41v-.84A4.17,4.17,0,0,1,335,142.4a4.82,4.82,0,0,1-2,.43,4.3,4.3,0,0,1-3.25-1.38,5.18,5.18,0,0,1,.09-7,4.69,4.69,0,0,1,3.47-1.41,4.77,4.77,0,0,1,1.9.37,4,4,0,0,1,1.45,1.11v-3.93h-.55a2.55,2.55,0,0,1-1.15-.16.63.63,0,0,1-.26-.58.69.69,0,0,1,.21-.55.91.91,0,0,1,.61-.18h2.1a.73.73,0,0,1,.44.1.35.35,0,0,1,.14.32v11.54h.46a1.24,1.24,0,0,1,.73.17.65.65,0,0,1,.23.54.76.76,0,0,1-.2.55.74.74,0,0,1-.52.19Zm-6.71-4.6a3.1,3.1,0,0,0,.91,2.31,3.37,3.37,0,0,0,4.64,0,3.28,3.28,0,0,0,.92-2.38,3.23,3.23,0,0,0-.91-2.35,3.41,3.41,0,0,0-4.67,0A3.39,3.39,0,0,0,330.19,138Z"/><path class="cls-2" d="M343,138.29a3.1,3.1,0,0,0,1,2.28,3.63,3.63,0,0,0,2.5.81,6.39,6.39,0,0,0,2.62-.64,6.86,6.86,0,0,1,1.71-.64.76.76,0,0,1,.51.19.65.65,0,0,1,.21.49.83.83,0,0,1-.22.54,2.27,2.27,0,0,1-.69.48,10,10,0,0,1-2.11.76,9,9,0,0,1-2.17.27,5.16,5.16,0,0,1-3.74-1.35,4.71,4.71,0,0,1-1.4-3.57,4.81,4.81,0,0,1,1.48-3.67,5.4,5.4,0,0,1,3.88-1.41,5.06,5.06,0,0,1,3.58,1.32,4.15,4.15,0,0,1,1.43,3.17,1,1,0,0,1-.24.77,2.6,2.6,0,0,1-1.31.2h-7Zm.05-1.35h6.67a3,3,0,0,0-1-2,3.17,3.17,0,0,0-2.12-.74,3.65,3.65,0,0,0-2.3.72A3.38,3.38,0,0,0,343,136.94Z"/><path class="cls-2" d="M358,141.12h3.41a.85.85,0,0,1,.58.17.7.7,0,0,1,.19.54.74.74,0,0,1-.18.58,1,1,0,0,1-.66.16h-6.7a.88.88,0,0,1-.6-.18.72.72,0,0,1-.21-.56.65.65,0,0,1,.21-.53,1,1,0,0,1,.65-.18h1.79v-6.57h-.7a3,3,0,0,1-1.24-.16.65.65,0,0,1-.25-.58.69.69,0,0,1,.2-.53.91.91,0,0,1,.61-.18h2.34a.72.72,0,0,1,.42.11.34.34,0,0,1,.14.31v1.74a7.3,7.3,0,0,1,2-1.81,4.54,4.54,0,0,1,2.28-.6,2.67,2.67,0,0,1,1.47.37,1.1,1.1,0,0,1,.57.95,1,1,0,0,1-.29.67.84.84,0,0,1-.62.29,2,2,0,0,1-.79-.31,2.1,2.1,0,0,0-1-.32,3.13,3.13,0,0,0-1.68.57,9.47,9.47,0,0,0-2,1.81Z"/><path class="cls-2" d="M373.68,130.52a3,3,0,0,1-.34.93c-.23.47-.4.85-.52,1.13a17.27,17.27,0,0,0-1,3,13.59,13.59,0,0,0-.29,2.81,13.1,13.1,0,0,0,.25,2.6,13.93,13.93,0,0,0,.74,2.5c.18.45.41,1,.71,1.6a4.25,4.25,0,0,1,.44,1.13.52.52,0,0,1-.1.35.29.29,0,0,1-.26.13,1.14,1.14,0,0,1-.7-.33,6.48,6.48,0,0,1-.91-1.07,12.16,12.16,0,0,1-1.63-3.29,11.76,11.76,0,0,1-.55-3.62,12,12,0,0,1,.45-3.31,12.1,12.1,0,0,1,1.35-3.05,8.43,8.43,0,0,1,1.1-1.46,1.38,1.38,0,0,1,.89-.49.29.29,0,0,1,.26.13A.48.48,0,0,1,373.68,130.52Z"/><path class="cls-2" d="M382.11,146.2a2.88,2.88,0,0,1,.34-.91c.24-.47.41-.84.54-1.12a17.33,17.33,0,0,0,1-3,12.92,12.92,0,0,0,.3-2.8,13.29,13.29,0,0,0-1-5.12c-.17-.45-.41-1-.7-1.59a3.91,3.91,0,0,1-.44-1.14.48.48,0,0,1,.1-.33.32.32,0,0,1,.26-.13,1.16,1.16,0,0,1,.73.33,6.39,6.39,0,0,1,.89,1.06,11.65,11.65,0,0,1,1.64,3.29,11.82,11.82,0,0,1,.55,3.63,11.81,11.81,0,0,1-1.83,6.36,8.63,8.63,0,0,1-1.11,1.48,1.35,1.35,0,0,1-.87.47.35.35,0,0,1-.26-.13A.56.56,0,0,1,382.11,146.2Z"/><rect class="cls-1" x="184.28" y="231.75" width="70.65" height="31.16" rx="5" ry="5"/><path d="M200.49,249.88h.4a1,1,0,0,1,.63.16.7.7,0,0,1,.19.54.78.78,0,0,1-.18.55.73.73,0,0,1-.54.19h-5.05a.69.69,0,0,1-.53-.19.74.74,0,0,1-.19-.55.67.67,0,0,1,.2-.54,1.1,1.1,0,0,1,.68-.16h1v-9.24h-.65a2,2,0,0,1-1-.16.68.68,0,0,1-.22-.58.7.7,0,0,1,.19-.54.69.69,0,0,1,.53-.19H205a.66.66,0,0,1,.53.21.91.91,0,0,1,.18.61v2.64a.73.73,0,0,1-.18.54.72.72,0,0,1-.53.18.65.65,0,0,1-.58-.23,2,2,0,0,1-.16-1v-1.47h-5.56v3.45h2.7v-.26a2.29,2.29,0,0,1,.15-1,.52.52,0,0,1,.51-.25.53.53,0,0,1,.47.19,1,1,0,0,1,.15.63V246a1.35,1.35,0,0,1-.13.71.57.57,0,0,1-.49.19.52.52,0,0,1-.51-.25,2.26,2.26,0,0,1-.15-1v-.3h-2.7v4.55Z"/><path d="M214.12,249.88h3.29a.89.89,0,0,1,.59.16.7.7,0,0,1,.19.54.74.74,0,0,1-.18.58,1,1,0,0,1-.66.16h-7.94a.92.92,0,0,1-.62-.18.71.71,0,0,1-.2-.56.65.65,0,0,1,.21-.53,1,1,0,0,1,.65-.17h3.12V243.3h-2a1,1,0,0,1-.65-.19.71.71,0,0,1-.22-.55.66.66,0,0,1,.21-.53.89.89,0,0,1,.61-.18h3a.76.76,0,0,1,.43.11.36.36,0,0,1,.16.31Zm-1.9-11a3,3,0,0,1,.2-1.39c.14-.2.42-.29.86-.29a1.11,1.11,0,0,1,.84.24,3.21,3.21,0,0,1,0,2.23,1.23,1.23,0,0,1-.86.21,1.32,1.32,0,0,1-.86-.19A1.18,1.18,0,0,1,212.22,238.9Z"/><path d="M225.08,239.38h-1.75a2.83,2.83,0,0,1-1.24-.16.62.62,0,0,1-.25-.58.69.69,0,0,1,.21-.55.91.91,0,0,1,.61-.18H226a.69.69,0,0,1,.43.11.36.36,0,0,1,.15.31v11.55h3.22a.83.83,0,0,1,.57.16.73.73,0,0,1,.18.54.79.79,0,0,1-.17.58,1,1,0,0,1-.66.16H222.2a.91.91,0,0,1-.61-.18.72.72,0,0,1-.21-.56.65.65,0,0,1,.21-.53,1,1,0,0,1,.65-.17h2.84Z"/><path d="M242.16,245.61a4.94,4.94,0,0,0-.26-2,.93.93,0,0,0-.9-.51,1.36,1.36,0,0,0-1.19.66,3.15,3.15,0,0,0-.45,1.8v4.27h.18a1.57,1.57,0,0,1,.83.14.65.65,0,0,1,.21.56.83.83,0,0,1-.17.56.73.73,0,0,1-.54.18h-1.3a.73.73,0,0,1-.6-.21,1.64,1.64,0,0,1-.16-.88v-5.42a1.87,1.87,0,0,0-.35-1.21,1.12,1.12,0,0,0-1-.45,1.43,1.43,0,0,0-.84.27,2.1,2.1,0,0,0-.66.81v5.65h.37a1.6,1.6,0,0,1,.83.15.64.64,0,0,1,.21.55.79.79,0,0,1-.17.58,1,1,0,0,1-.67.16h-2.72a.85.85,0,0,1-.59-.18.77.77,0,0,1-.19-.56.61.61,0,0,1,.24-.56,2,2,0,0,1,.93-.14h.21V243.3h-.18a2,2,0,0,1-1-.17.63.63,0,0,1-.26-.57.66.66,0,0,1,.21-.53.91.91,0,0,1,.61-.18h1.57a.61.61,0,0,1,.45.12.9.9,0,0,1,.13.49,2.74,2.74,0,0,1,.9-.66,2.68,2.68,0,0,1,1.09-.22,2.05,2.05,0,0,1,1.18.32,1.81,1.81,0,0,1,.7.94,2.78,2.78,0,0,1,1-1,2.73,2.73,0,0,1,1.29-.31,2.23,2.23,0,0,1,1.94.86,5,5,0,0,1,.61,2.79v4.65h.16a1.59,1.59,0,0,1,.84.15.64.64,0,0,1,.22.55.79.79,0,0,1-.19.56.73.73,0,0,1-.54.18H243a.71.71,0,0,1-.61-.25,1.24,1.24,0,0,1-.19-.78Z"/><path class="cls-2" d="M200.49,249.88h.4a1,1,0,0,1,.63.16.7.7,0,0,1,.19.54.78.78,0,0,1-.18.55.73.73,0,0,1-.54.19h-5.05a.69.69,0,0,1-.53-.19.74.74,0,0,1-.19-.55.67.67,0,0,1,.2-.54,1.1,1.1,0,0,1,.68-.16h1v-9.24h-.65a2,2,0,0,1-1-.16.68.68,0,0,1-.22-.58.7.7,0,0,1,.19-.54.69.69,0,0,1,.53-.19H205a.66.66,0,0,1,.53.21.91.91,0,0,1,.18.61v2.64a.73.73,0,0,1-.18.54.72.72,0,0,1-.53.18.65.65,0,0,1-.58-.23,2,2,0,0,1-.16-1v-1.47h-5.56v3.45h2.7v-.26a2.29,2.29,0,0,1,.15-1,.52.52,0,0,1,.51-.25.53.53,0,0,1,.47.19,1,1,0,0,1,.15.63V246a1.35,1.35,0,0,1-.13.71.57.57,0,0,1-.49.19.52.52,0,0,1-.51-.25,2.26,2.26,0,0,1-.15-1v-.3h-2.7v4.55Z"/><path class="cls-2" d="M214.12,249.88h3.29a.89.89,0,0,1,.59.16.7.7,0,0,1,.19.54.74.74,0,0,1-.18.58,1,1,0,0,1-.66.16h-7.94a.92.92,0,0,1-.62-.18.71.71,0,0,1-.2-.56.65.65,0,0,1,.21-.53,1,1,0,0,1,.65-.17h3.12V243.3h-2a1,1,0,0,1-.65-.19.71.71,0,0,1-.22-.55.66.66,0,0,1,.21-.53.89.89,0,0,1,.61-.18h3a.76.76,0,0,1,.43.11.36.36,0,0,1,.16.31Zm-1.9-11a3,3,0,0,1,.2-1.39c.14-.2.42-.29.86-.29a1.11,1.11,0,0,1,.84.24,3.21,3.21,0,0,1,0,2.23,1.23,1.23,0,0,1-.86.21,1.32,1.32,0,0,1-.86-.19A1.18,1.18,0,0,1,212.22,238.9Z"/><path class="cls-2" d="M225.08,239.38h-1.75a2.83,2.83,0,0,1-1.24-.16.62.62,0,0,1-.25-.58.69.69,0,0,1,.21-.55.91.91,0,0,1,.61-.18H226a.69.69,0,0,1,.43.11.36.36,0,0,1,.15.31v11.55h3.22a.83.83,0,0,1,.57.16.73.73,0,0,1,.18.54.79.79,0,0,1-.17.58,1,1,0,0,1-.66.16H222.2a.91.91,0,0,1-.61-.18.72.72,0,0,1-.21-.56.65.65,0,0,1,.21-.53,1,1,0,0,1,.65-.17h2.84Z"/><path class="cls-2" d="M242.16,245.61a4.94,4.94,0,0,0-.26-2,.93.93,0,0,0-.9-.51,1.36,1.36,0,0,0-1.19.66,3.15,3.15,0,0,0-.45,1.8v4.27h.18a1.57,1.57,0,0,1,.83.14.65.65,0,0,1,.21.56.83.83,0,0,1-.17.56.73.73,0,0,1-.54.18h-1.3a.73.73,0,0,1-.6-.21,1.64,1.64,0,0,1-.16-.88v-5.42a1.87,1.87,0,0,0-.35-1.21,1.12,1.12,0,0,0-1-.45,1.43,1.43,0,0,0-.84.27,2.1,2.1,0,0,0-.66.81v5.65h.37a1.6,1.6,0,0,1,.83.15.64.64,0,0,1,.21.55.79.79,0,0,1-.17.58,1,1,0,0,1-.67.16h-2.72a.85.85,0,0,1-.59-.18.77.77,0,0,1-.19-.56.61.61,0,0,1,.24-.56,2,2,0,0,1,.93-.14h.21V243.3h-.18a2,2,0,0,1-1-.17.63.63,0,0,1-.26-.57.66.66,0,0,1,.21-.53.91.91,0,0,1,.61-.18h1.57a.61.61,0,0,1,.45.12.9.9,0,0,1,.13.49,2.74,2.74,0,0,1,.9-.66,2.68,2.68,0,0,1,1.09-.22,2.05,2.05,0,0,1,1.18.32,1.81,1.81,0,0,1,.7.94,2.78,2.78,0,0,1,1-1,2.73,2.73,0,0,1,1.29-.31,2.23,2.23,0,0,1,1.94.86,5,5,0,0,1,.61,2.79v4.65h.16a1.59,1.59,0,0,1,.84.15.64.64,0,0,1,.22.55.79.79,0,0,1-.19.56.73.73,0,0,1-.54.18H243a.71.71,0,0,1-.61-.25,1.24,1.24,0,0,1-.19-.78Z"/><rect class="cls-1" x="583.4" y="119.25" width="309.68" height="31.16" rx="5" ry="5"/><path d="M596.7,138.46a1.1,1.1,0,0,1-.24.64.81.81,0,0,1-.58.18.77.77,0,0,1-.64-.25,1.32,1.32,0,0,1-.25-.81l-.13-2.38v-.19a1,1,0,0,1,.19-.69.83.83,0,0,1,.63-.21c.41,0,.7.3.88.88a3.27,3.27,0,0,0,.24.67,2.43,2.43,0,0,0,1.13,1.11,4.07,4.07,0,0,0,1.85.38,3.45,3.45,0,0,0,2.15-.62,1.92,1.92,0,0,0,.82-1.6,1.76,1.76,0,0,0-.5-1.3,2.67,2.67,0,0,0-1.49-.64l-1.51-.2a6.13,6.13,0,0,1-3.1-1.12,2.82,2.82,0,0,1-1-2.3,3.29,3.29,0,0,1,1.29-2.64,5,5,0,0,1,3.24-1.06,5.17,5.17,0,0,1,1.19.15,9.14,9.14,0,0,1,1.41.46.56.56,0,0,1,.17-.41.82.82,0,0,1,.49-.11,1,1,0,0,1,.62.13c.12.09.19.3.22.64l.14,2.14v.1a.77.77,0,0,1-.2.56.82.82,0,0,1-.58.2c-.36,0-.64-.25-.84-.76a2.28,2.28,0,0,0-.29-.64,2,2,0,0,0-1-.79,3.46,3.46,0,0,0-1.44-.28,3.16,3.16,0,0,0-2,.62,2,2,0,0,0-.77,1.6,1.46,1.46,0,0,0,.58,1.23,3.58,3.58,0,0,0,1.77.62l1.64.2a4.74,4.74,0,0,1,2.68,1.1,3,3,0,0,1,.9,2.31,3.38,3.38,0,0,1-1.28,2.76,5.27,5.27,0,0,1-3.42,1,6.16,6.16,0,0,1-1.47-.18A7.91,7.91,0,0,1,596.7,138.46Z"/><path d="M614.64,137.52a6.36,6.36,0,0,1-1.83,1.16,5.52,5.52,0,0,1-2,.4,3.58,3.58,0,0,1-2.47-.85,2.88,2.88,0,0,1-.94-2.22,2.92,2.92,0,0,1,1.25-2.51,6,6,0,0,1,3.5-.89,9.9,9.9,0,0,1,2.44.32v-.07a2.38,2.38,0,0,0-.57-1.75,2.4,2.4,0,0,0-1.75-.56,4.43,4.43,0,0,0-1.78.43,4.32,4.32,0,0,1-1.3.43.59.59,0,0,1-.49-.24,1,1,0,0,1-.2-.62c0-.4.38-.74,1.13-1a8.47,8.47,0,0,1,2.9-.42,3.7,3.7,0,0,1,2.72.92,3.65,3.65,0,0,1,.93,2.71v4.65h.5a2.09,2.09,0,0,1,1,.15.59.59,0,0,1,.25.55.72.72,0,0,1-.21.56.89.89,0,0,1-.61.18h-1.61a.68.68,0,0,1-.47-.17.88.88,0,0,1-.25-.51Zm-.08-3.23a8.24,8.24,0,0,0-1.09-.27,6.38,6.38,0,0,0-1.05-.09,5,5,0,0,0-2.49.53,1.63,1.63,0,0,0-.92,1.44,1.41,1.41,0,0,0,.57,1.15,2.26,2.26,0,0,0,1.45.45,4.61,4.61,0,0,0,2.42-.68c.74-.46,1.11-.93,1.11-1.42Z"/><path d="M628.68,133.11a4.94,4.94,0,0,0-.26-2,.91.91,0,0,0-.89-.51,1.36,1.36,0,0,0-1.2.66,3.15,3.15,0,0,0-.45,1.8v4.27h.18a1.57,1.57,0,0,1,.83.14.65.65,0,0,1,.21.56.83.83,0,0,1-.17.56.73.73,0,0,1-.54.18h-1.3a.73.73,0,0,1-.6-.21,1.64,1.64,0,0,1-.16-.88v-5.42a1.93,1.93,0,0,0-.34-1.21,1.15,1.15,0,0,0-1-.45,1.43,1.43,0,0,0-.84.27,2.1,2.1,0,0,0-.66.81v5.65h.37a1.6,1.6,0,0,1,.83.15.64.64,0,0,1,.21.55.79.79,0,0,1-.17.58,1,1,0,0,1-.67.16h-2.72a.85.85,0,0,1-.59-.18.77.77,0,0,1-.18-.56.61.61,0,0,1,.23-.56,2,2,0,0,1,.94-.14h.2V130.8h-.18a2,2,0,0,1-1-.17.63.63,0,0,1-.26-.57.66.66,0,0,1,.21-.53.91.91,0,0,1,.61-.18H621a.61.61,0,0,1,.45.12.9.9,0,0,1,.13.49,2.74,2.74,0,0,1,.9-.66,2.68,2.68,0,0,1,1.09-.22,2.05,2.05,0,0,1,1.18.32,1.81,1.81,0,0,1,.7.94,2.78,2.78,0,0,1,1-1,2.73,2.73,0,0,1,1.29-.31,2.22,2.22,0,0,1,1.94.86,5,5,0,0,1,.61,2.79v4.65h.16a1.59,1.59,0,0,1,.84.15.62.62,0,0,1,.22.55.79.79,0,0,1-.19.56.73.73,0,0,1-.54.18h-1.24a.72.72,0,0,1-.61-.25,1.24,1.24,0,0,1-.19-.78Z"/><path d="M634.83,141.44h2.46a.78.78,0,0,1,.58.19.73.73,0,0,1,.2.55.71.71,0,0,1-.19.56,1,1,0,0,1-.67.17h-4.52a.87.87,0,0,1-.62-.19.67.67,0,0,1-.21-.54.61.61,0,0,1,.26-.57,1.94,1.94,0,0,1,1-.17h.19V130.81h-.19a1.94,1.94,0,0,1-1-.17.61.61,0,0,1-.26-.57.67.67,0,0,1,.21-.54.92.92,0,0,1,.62-.18h1.55a.75.75,0,0,1,.45.1.39.39,0,0,1,.14.32v1a4.81,4.81,0,0,1,1.54-1.07,4.58,4.58,0,0,1,1.82-.36,4.64,4.64,0,0,1,3.44,1.39,4.79,4.79,0,0,1,1.39,3.5,4.48,4.48,0,0,1-1.32,3.32,4.54,4.54,0,0,1-3.35,1.3,5.24,5.24,0,0,1-2-.38,4.13,4.13,0,0,1-1.52-1.11Zm3.17-4.11a3.19,3.19,0,0,0,2.34-.89,3.39,3.39,0,0,0,0-4.62,3.18,3.18,0,0,0-2.34-.91,3.08,3.08,0,0,0-3.21,3.21,3.07,3.07,0,0,0,3.21,3.21Z"/><path d="M649.38,126.88h-1.74a2.88,2.88,0,0,1-1.25-.16.64.64,0,0,1-.25-.58.69.69,0,0,1,.21-.55.92.92,0,0,1,.61-.18h3.38a.67.67,0,0,1,.43.11.35.35,0,0,1,.16.31v11.55h3.22a.8.8,0,0,1,.56.16.73.73,0,0,1,.18.54.79.79,0,0,1-.17.58,1,1,0,0,1-.66.16H646.5a.91.91,0,0,1-.61-.18.72.72,0,0,1-.21-.56.63.63,0,0,1,.22-.53,1,1,0,0,1,.64-.17h2.84Z"/><path d="M659.2,134.54a3.1,3.1,0,0,0,1,2.28,3.63,3.63,0,0,0,2.5.81,6.39,6.39,0,0,0,2.62-.64,6.86,6.86,0,0,1,1.71-.64.76.76,0,0,1,.51.19.65.65,0,0,1,.21.49.83.83,0,0,1-.22.54,2.27,2.27,0,0,1-.69.48,10,10,0,0,1-2.11.76,9,9,0,0,1-2.17.27,5.16,5.16,0,0,1-3.74-1.35,4.71,4.71,0,0,1-1.4-3.57,4.81,4.81,0,0,1,1.48-3.67,5.4,5.4,0,0,1,3.88-1.41,5.06,5.06,0,0,1,3.58,1.32,4.15,4.15,0,0,1,1.43,3.17,1,1,0,0,1-.24.77,2.6,2.6,0,0,1-1.31.2h-7Zm0-1.35h6.67a3,3,0,0,0-1-2,3.17,3.17,0,0,0-2.12-.74,3.65,3.65,0,0,0-2.3.72A3.38,3.38,0,0,0,659.25,133.19Z"/><path d="M674.25,137.38h3.41a.86.86,0,0,1,.58.16.7.7,0,0,1,.19.54.74.74,0,0,1-.18.58,1,1,0,0,1-.66.16h-6.7a.86.86,0,0,1-.6-.18.72.72,0,0,1-.21-.56.65.65,0,0,1,.21-.53,1,1,0,0,1,.65-.17h1.79V130.8H672a3,3,0,0,1-1.24-.16.63.63,0,0,1-.25-.58.69.69,0,0,1,.2-.53.91.91,0,0,1,.61-.18h2.34a.72.72,0,0,1,.42.11.34.34,0,0,1,.14.31v1.74a7.3,7.3,0,0,1,2-1.81,4.54,4.54,0,0,1,2.28-.6,2.67,2.67,0,0,1,1.47.37,1.1,1.1,0,0,1,.57.95,1,1,0,0,1-.29.67.84.84,0,0,1-.62.29,2,2,0,0,1-.79-.31,2.1,2.1,0,0,0-1-.32,3.13,3.13,0,0,0-1.68.57,9.47,9.47,0,0,0-2,1.81Z"/><path d="M691,137.38a2.19,2.19,0,0,1,1,.14.65.65,0,0,1,.22.56.68.68,0,0,1-.22.58,2,2,0,0,1-1,.16h-6.71a.8.8,0,0,1-.56-.18.75.75,0,0,1-.19-.56.63.63,0,0,1,.22-.56,2.21,2.21,0,0,1,1-.14h2.31v-9.24h-2.31a2,2,0,0,1-1-.16.63.63,0,0,1-.23-.58.69.69,0,0,1,.19-.55.85.85,0,0,1,.59-.18h7.16a.79.79,0,0,1,.56.18.76.76,0,0,1,.19.55.66.66,0,0,1-.23.58,2,2,0,0,1-1,.16h-2.32v9.24Z"/><path d="M696.63,137.38v-6.57h-.19a1.94,1.94,0,0,1-1-.17.63.63,0,0,1-.26-.57.64.64,0,0,1,.22-.55,1.13,1.13,0,0,1,.69-.17h1.47a.76.76,0,0,1,.43.11.37.37,0,0,1,.15.31v.7a5.45,5.45,0,0,1,1.48-1,3.7,3.7,0,0,1,1.52-.34,3.16,3.16,0,0,1,2.44,1,3.78,3.78,0,0,1,.88,2.66v4.65H705a1.29,1.29,0,0,1,.74.16.65.65,0,0,1,.23.54.64.64,0,0,1-.24.57,1.61,1.61,0,0,1-.86.17h-2.27a1.49,1.49,0,0,1-.84-.15.73.73,0,0,1-.19-.59.64.64,0,0,1,.22-.55,1.55,1.55,0,0,1,.82-.15H703v-4.27a2.69,2.69,0,0,0-.55-1.83,2,2,0,0,0-1.58-.63,2.73,2.73,0,0,0-1.85.71,2.24,2.24,0,0,0-.8,1.75v4.27h.36a1.57,1.57,0,0,1,.83.15.64.64,0,0,1,.22.55.77.77,0,0,1-.19.59,1.66,1.66,0,0,1-.9.15h-2.42a1,1,0,0,1-.63-.18.7.7,0,0,1-.21-.56.61.61,0,0,1,.24-.56,2,2,0,0,1,.94-.14Z"/><path d="M715.84,129.92a1.19,1.19,0,0,1,.73.18.62.62,0,0,1,.23.55.67.67,0,0,1-.21.54,1,1,0,0,1-.65.18h-4.15v3.42a3.83,3.83,0,0,0,.44,2.22,1.83,1.83,0,0,0,1.49.53A6,6,0,0,0,716,137a6.46,6.46,0,0,1,1.61-.55.67.67,0,0,1,.49.21.69.69,0,0,1,.2.5.83.83,0,0,1-.25.59,2.63,2.63,0,0,1-.86.49,12.82,12.82,0,0,1-1.81.58,7,7,0,0,1-1.51.18,4.62,4.62,0,0,1-2-.38,2.6,2.6,0,0,1-1.22-1.14,2.93,2.93,0,0,1-.29-.85,9.33,9.33,0,0,1-.09-1.52v-3.74h-1.74a.94.94,0,0,1-.62-.17.7.7,0,0,1-.2-.55.59.59,0,0,1,.27-.57,2.62,2.62,0,0,1,1.13-.16h1.16v-2.64a1,1,0,0,1,.19-.65.77.77,0,0,1,.59-.21.72.72,0,0,1,.63.26,2.53,2.53,0,0,1,.17,1.16v2.08Z"/><path d="M722.17,134.54a3.14,3.14,0,0,0,1,2.28,3.66,3.66,0,0,0,2.51.81,6.31,6.31,0,0,0,2.61-.64,6.86,6.86,0,0,1,1.71-.64.73.73,0,0,1,.51.19.65.65,0,0,1,.21.49.78.78,0,0,1-.22.54,2.34,2.34,0,0,1-.68.48,10.33,10.33,0,0,1-2.12.76,9,9,0,0,1-2.17.27,5.19,5.19,0,0,1-3.74-1.35,5.26,5.26,0,0,1,.09-7.24,5.39,5.39,0,0,1,3.87-1.41,5.08,5.08,0,0,1,3.59,1.32,4.14,4.14,0,0,1,1.42,3.17,1,1,0,0,1-.24.77,2.57,2.57,0,0,1-1.31.2h-7Zm.05-1.35h6.67a3,3,0,0,0-1-2,3.19,3.19,0,0,0-2.13-.74,3.67,3.67,0,0,0-2.3.72A3.38,3.38,0,0,0,722.22,133.19Z"/><path d="M742.4,138.28a10.41,10.41,0,0,1-.14,2,2.69,2.69,0,0,1-.5,1.05,3.47,3.47,0,0,1-1.61,1.15,6.71,6.71,0,0,1-2.44.4,4.75,4.75,0,0,1-1.71-.23.75.75,0,0,1-.54-.71.72.72,0,0,1,.27-.56.87.87,0,0,1,.61-.24,7.16,7.16,0,0,1,.86.07,7.46,7.46,0,0,0,.87.08,2.79,2.79,0,0,0,2.15-.7,3.54,3.54,0,0,0,.63-2.38V137a3.82,3.82,0,0,1-1.38,1.06,4.19,4.19,0,0,1-1.74.34,4.25,4.25,0,0,1-3.17-1.28,4.77,4.77,0,0,1,0-6.49,4.48,4.48,0,0,1,4.74-1,6.19,6.19,0,0,1,1.52.89v-.74a.39.39,0,0,1,.14-.32.73.73,0,0,1,.44-.1H743a.91.91,0,0,1,.61.18.67.67,0,0,1,.21.54.63.63,0,0,1-.26.57,1.92,1.92,0,0,1-1,.17h-.18Zm-4.46-7.41a3,3,0,0,0-2.19.83,3.13,3.13,0,0,0,0,4.29,3.3,3.3,0,0,0,4.38,0,3.09,3.09,0,0,0,0-4.28A3,3,0,0,0,737.94,130.87Z"/><path d="M749.82,137.38h3.4a.87.87,0,0,1,.59.16.7.7,0,0,1,.19.54.74.74,0,0,1-.18.58,1,1,0,0,1-.66.16h-6.7a.86.86,0,0,1-.6-.18.72.72,0,0,1-.21-.56.65.65,0,0,1,.21-.53,1,1,0,0,1,.65-.17h1.78V130.8h-.69a3,3,0,0,1-1.24-.16.63.63,0,0,1-.25-.58.69.69,0,0,1,.2-.53.91.91,0,0,1,.61-.18h2.34a.72.72,0,0,1,.42.11.37.37,0,0,1,.14.31v1.74a7.3,7.3,0,0,1,2-1.81,4.52,4.52,0,0,1,2.28-.6,2.69,2.69,0,0,1,1.47.37,1.1,1.1,0,0,1,.57.95,1,1,0,0,1-.29.67.84.84,0,0,1-.62.29,2,2,0,0,1-.79-.31,2.1,2.1,0,0,0-1-.32,3.13,3.13,0,0,0-1.68.57,9.47,9.47,0,0,0-2,1.81Z"/><path d="M765.78,137.52a6.36,6.36,0,0,1-1.83,1.16,5.52,5.52,0,0,1-2,.4,3.58,3.58,0,0,1-2.47-.85,2.88,2.88,0,0,1-.94-2.22,2.92,2.92,0,0,1,1.25-2.51,6,6,0,0,1,3.5-.89,9.9,9.9,0,0,1,2.44.32v-.07a2.38,2.38,0,0,0-.57-1.75,2.4,2.4,0,0,0-1.75-.56,4.43,4.43,0,0,0-1.78.43,4.32,4.32,0,0,1-1.3.43.62.62,0,0,1-.5-.24,1,1,0,0,1-.19-.62c0-.4.38-.74,1.13-1a8.47,8.47,0,0,1,2.9-.42,3.7,3.7,0,0,1,2.72.92,3.65,3.65,0,0,1,.93,2.71v4.65h.5a2.09,2.09,0,0,1,1,.15.61.61,0,0,1,.25.55.72.72,0,0,1-.21.56.89.89,0,0,1-.61.18h-1.61a.68.68,0,0,1-.47-.17.88.88,0,0,1-.25-.51Zm-.08-3.23a8,8,0,0,0-1.1-.27,6.2,6.2,0,0,0-1.05-.09,5,5,0,0,0-2.49.53,1.64,1.64,0,0,0-.91,1.44,1.41,1.41,0,0,0,.57,1.15,2.26,2.26,0,0,0,1.45.45,4.55,4.55,0,0,0,2.41-.68c.75-.46,1.12-.93,1.12-1.42Z"/><path d="M778.81,129.92a1.22,1.22,0,0,1,.74.18.77.77,0,0,1,0,1.09,1,1,0,0,1-.64.18h-4.15v3.42a3.85,3.85,0,0,0,.43,2.22,1.85,1.85,0,0,0,1.49.53,6.06,6.06,0,0,0,2.24-.54,6.2,6.2,0,0,1,1.61-.55.63.63,0,0,1,.48.21.65.65,0,0,1,.2.5.79.79,0,0,1-.25.59,2.56,2.56,0,0,1-.85.49,13.24,13.24,0,0,1-1.81.58,7,7,0,0,1-1.52.18,4.65,4.65,0,0,1-2-.38,2.58,2.58,0,0,1-1.21-1.14,2.67,2.67,0,0,1-.3-.85,11,11,0,0,1-.08-1.52v-3.74h-1.74a1,1,0,0,1-.63-.17.7.7,0,0,1-.2-.55.59.59,0,0,1,.27-.57,2.71,2.71,0,0,1,1.14-.16h1.16v-2.64a.94.94,0,0,1,.19-.65.74.74,0,0,1,.59-.21.69.69,0,0,1,.62.26,2.36,2.36,0,0,1,.18,1.16v2.08Z"/><path d="M794,134.1a4.69,4.69,0,0,1-1.49,3.58,6.08,6.08,0,0,1-7.76,0,5,5,0,0,1,0-7.17,6.08,6.08,0,0,1,7.75,0A4.67,4.67,0,0,1,794,134.1Zm-5.38,3.53a3.51,3.51,0,0,0,2.59-1,3.7,3.7,0,0,0,0-5.09,3.8,3.8,0,0,0-5.16,0,3.72,3.72,0,0,0,0,5.1A3.52,3.52,0,0,0,788.61,137.63Z"/><path d="M800.2,137.38h3.4a.87.87,0,0,1,.59.16.7.7,0,0,1,.19.54.74.74,0,0,1-.18.58,1,1,0,0,1-.66.16h-6.7a.86.86,0,0,1-.6-.18.72.72,0,0,1-.21-.56.65.65,0,0,1,.21-.53,1,1,0,0,1,.65-.17h1.78V130.8H798a2.93,2.93,0,0,1-1.24-.16.63.63,0,0,1-.25-.58.69.69,0,0,1,.2-.53.89.89,0,0,1,.61-.18h2.34a.72.72,0,0,1,.42.11.37.37,0,0,1,.14.31v1.74a7.3,7.3,0,0,1,2-1.81,4.51,4.51,0,0,1,2.27-.6,2.7,2.7,0,0,1,1.48.37,1.09,1.09,0,0,1,.56.95.94.94,0,0,1-.28.67.84.84,0,0,1-.62.29,2,2,0,0,1-.79-.31,2.1,2.1,0,0,0-1-.32,3.16,3.16,0,0,0-1.69.57,9.71,9.71,0,0,0-2,1.81Z"/><path d="M811.79,131.47a1.71,1.71,0,0,1,.56-1.31,2.07,2.07,0,0,1,1.45-.51,2.13,2.13,0,0,1,1.47.5,1.73,1.73,0,0,1,.55,1.32,1.69,1.69,0,0,1-.56,1.32,2.34,2.34,0,0,1-2.92,0A1.71,1.71,0,0,1,811.79,131.47Zm0,5.67a1.71,1.71,0,0,1,.56-1.31,2.33,2.33,0,0,1,2.92,0,1.71,1.71,0,0,1,.55,1.32,1.69,1.69,0,0,1-.56,1.32,2.38,2.38,0,0,1-2.92,0A1.71,1.71,0,0,1,811.79,137.14Z"/><path d="M824.39,131.47a1.7,1.7,0,0,1,.55-1.31,2.09,2.09,0,0,1,1.45-.51,2.13,2.13,0,0,1,1.47.5,1.86,1.86,0,0,1,0,2.64,2.1,2.1,0,0,1-1.47.51,2.05,2.05,0,0,1-1.45-.51A1.68,1.68,0,0,1,824.39,131.47Zm0,5.67a1.7,1.7,0,0,1,.55-1.31,2.33,2.33,0,0,1,2.92,0,1.86,1.86,0,0,1,0,2.64,2.1,2.1,0,0,1-1.47.5,2,2,0,0,1-1.45-.5A1.68,1.68,0,0,1,824.39,137.14Z"/><path d="M842.85,134.69a1.93,1.93,0,0,1,.16-1,.65.65,0,0,1,.58-.23.71.71,0,0,1,.55.19.79.79,0,0,1,.19.59v3.81a.77.77,0,0,1-.2.56.73.73,0,0,1-.54.2H834a.65.65,0,0,1-.74-.74.63.63,0,0,1,.22-.56,2.14,2.14,0,0,1,1-.14h1.28v-9.24H834.5a2,2,0,0,1-1-.16.66.66,0,0,1-.23-.58.69.69,0,0,1,.19-.55.83.83,0,0,1,.59-.18h5.54a.81.81,0,0,1,.57.18.72.72,0,0,1,.19.55.63.63,0,0,1-.23.58,2,2,0,0,1-1,.16H837.4v9.24h5.45Z"/><path d="M852.54,137.38h3.29a.9.9,0,0,1,.59.16.74.74,0,0,1,.19.54.74.74,0,0,1-.18.58,1,1,0,0,1-.66.16h-7.95a.89.89,0,0,1-.61-.18.72.72,0,0,1-.21-.56.66.66,0,0,1,.22-.53,1,1,0,0,1,.64-.17H851V130.8h-2a1,1,0,0,1-.64-.19.68.68,0,0,1-.22-.55.66.66,0,0,1,.21-.53.89.89,0,0,1,.61-.18h3a.79.79,0,0,1,.44.11.38.38,0,0,1,.16.31Zm-1.9-11a3,3,0,0,1,.2-1.39c.13-.2.42-.29.86-.29a1.11,1.11,0,0,1,.84.24,2.08,2.08,0,0,1,.2,1.14,1.87,1.87,0,0,1-.19,1.09,1.18,1.18,0,0,1-.85.21,1.3,1.3,0,0,1-.86-.19A1.18,1.18,0,0,1,850.64,126.4Z"/><path d="M866.26,126.77a3,3,0,0,1-.34.93c-.23.47-.4.85-.52,1.13a16.45,16.45,0,0,0-1,3,13.59,13.59,0,0,0-.29,2.81,13.89,13.89,0,0,0,.24,2.6,14.84,14.84,0,0,0,.75,2.5c.17.45.41,1,.7,1.6a4.07,4.07,0,0,1,.45,1.13.52.52,0,0,1-.1.35.29.29,0,0,1-.26.13,1.16,1.16,0,0,1-.71-.33,6,6,0,0,1-.9-1.07,12.2,12.2,0,0,1-1.64-3.29,12.07,12.07,0,0,1,1.26-10,8,8,0,0,1,1.1-1.46,1.36,1.36,0,0,1,.89-.49.29.29,0,0,1,.26.13A.48.48,0,0,1,866.26,126.77Z"/><path d="M874.68,142.45a3,3,0,0,1,.35-.91c.23-.47.41-.84.54-1.12a18.24,18.24,0,0,0,1-3,12.92,12.92,0,0,0,.3-2.8,13.76,13.76,0,0,0-.25-2.58,14.72,14.72,0,0,0-.77-2.54c-.18-.45-.41-1-.71-1.59a4.26,4.26,0,0,1-.44-1.14.49.49,0,0,1,.11-.33.29.29,0,0,1,.26-.13,1.16,1.16,0,0,1,.73.33,6.39,6.39,0,0,1,.89,1.06,11.92,11.92,0,0,1,1.64,3.29,12.2,12.2,0,0,1,.09,6.94,12.38,12.38,0,0,1-1.37,3,8.63,8.63,0,0,1-1.11,1.48,1.35,1.35,0,0,1-.87.47.32.32,0,0,1-.26-.13A.56.56,0,0,1,874.68,142.45Z"/><path class="cls-2" d="M596.7,138.46a1.1,1.1,0,0,1-.24.64.81.81,0,0,1-.58.18.77.77,0,0,1-.64-.25,1.32,1.32,0,0,1-.25-.81l-.13-2.38v-.19a1,1,0,0,1,.19-.69.83.83,0,0,1,.63-.21c.41,0,.7.3.88.88a3.27,3.27,0,0,0,.24.67,2.43,2.43,0,0,0,1.13,1.11,4.07,4.07,0,0,0,1.85.38,3.45,3.45,0,0,0,2.15-.62,1.92,1.92,0,0,0,.82-1.6,1.76,1.76,0,0,0-.5-1.3,2.67,2.67,0,0,0-1.49-.64l-1.51-.2a6.13,6.13,0,0,1-3.1-1.12,2.82,2.82,0,0,1-1-2.3,3.29,3.29,0,0,1,1.29-2.64,5,5,0,0,1,3.24-1.06,5.17,5.17,0,0,1,1.19.15,9.14,9.14,0,0,1,1.41.46.56.56,0,0,1,.17-.41.82.82,0,0,1,.49-.11,1,1,0,0,1,.62.13c.12.09.19.3.22.64l.14,2.14v.1a.77.77,0,0,1-.2.56.82.82,0,0,1-.58.2c-.36,0-.64-.25-.84-.76a2.28,2.28,0,0,0-.29-.64,2,2,0,0,0-1-.79,3.46,3.46,0,0,0-1.44-.28,3.16,3.16,0,0,0-2,.62,2,2,0,0,0-.77,1.6,1.46,1.46,0,0,0,.58,1.23,3.58,3.58,0,0,0,1.77.62l1.64.2a4.74,4.74,0,0,1,2.68,1.1,3,3,0,0,1,.9,2.31,3.38,3.38,0,0,1-1.28,2.76,5.27,5.27,0,0,1-3.42,1,6.16,6.16,0,0,1-1.47-.18A7.91,7.91,0,0,1,596.7,138.46Z"/><path class="cls-2" d="M614.64,137.52a6.36,6.36,0,0,1-1.83,1.16,5.52,5.52,0,0,1-2,.4,3.58,3.58,0,0,1-2.47-.85,2.88,2.88,0,0,1-.94-2.22,2.92,2.92,0,0,1,1.25-2.51,6,6,0,0,1,3.5-.89,9.9,9.9,0,0,1,2.44.32v-.07a2.38,2.38,0,0,0-.57-1.75,2.4,2.4,0,0,0-1.75-.56,4.43,4.43,0,0,0-1.78.43,4.32,4.32,0,0,1-1.3.43.59.59,0,0,1-.49-.24,1,1,0,0,1-.2-.62c0-.4.38-.74,1.13-1a8.47,8.47,0,0,1,2.9-.42,3.7,3.7,0,0,1,2.72.92,3.65,3.65,0,0,1,.93,2.71v4.65h.5a2.09,2.09,0,0,1,1,.15.59.59,0,0,1,.25.55.72.72,0,0,1-.21.56.89.89,0,0,1-.61.18h-1.61a.68.68,0,0,1-.47-.17.88.88,0,0,1-.25-.51Zm-.08-3.23a8.24,8.24,0,0,0-1.09-.27,6.38,6.38,0,0,0-1.05-.09,5,5,0,0,0-2.49.53,1.63,1.63,0,0,0-.92,1.44,1.41,1.41,0,0,0,.57,1.15,2.26,2.26,0,0,0,1.45.45,4.61,4.61,0,0,0,2.42-.68c.74-.46,1.11-.93,1.11-1.42Z"/><path class="cls-2" d="M628.68,133.11a4.94,4.94,0,0,0-.26-2,.91.91,0,0,0-.89-.51,1.36,1.36,0,0,0-1.2.66,3.15,3.15,0,0,0-.45,1.8v4.27h.18a1.57,1.57,0,0,1,.83.14.65.65,0,0,1,.21.56.83.83,0,0,1-.17.56.73.73,0,0,1-.54.18h-1.3a.73.73,0,0,1-.6-.21,1.64,1.64,0,0,1-.16-.88v-5.42a1.93,1.93,0,0,0-.34-1.21,1.15,1.15,0,0,0-1-.45,1.43,1.43,0,0,0-.84.27,2.1,2.1,0,0,0-.66.81v5.65h.37a1.6,1.6,0,0,1,.83.15.64.64,0,0,1,.21.55.79.79,0,0,1-.17.58,1,1,0,0,1-.67.16h-2.72a.85.85,0,0,1-.59-.18.77.77,0,0,1-.18-.56.61.61,0,0,1,.23-.56,2,2,0,0,1,.94-.14h.2V130.8h-.18a2,2,0,0,1-1-.17.63.63,0,0,1-.26-.57.66.66,0,0,1,.21-.53.91.91,0,0,1,.61-.18H621a.61.61,0,0,1,.45.12.9.9,0,0,1,.13.49,2.74,2.74,0,0,1,.9-.66,2.68,2.68,0,0,1,1.09-.22,2.05,2.05,0,0,1,1.18.32,1.81,1.81,0,0,1,.7.94,2.78,2.78,0,0,1,1-1,2.73,2.73,0,0,1,1.29-.31,2.22,2.22,0,0,1,1.94.86,5,5,0,0,1,.61,2.79v4.65h.16a1.59,1.59,0,0,1,.84.15.62.62,0,0,1,.22.55.79.79,0,0,1-.19.56.73.73,0,0,1-.54.18h-1.24a.72.72,0,0,1-.61-.25,1.24,1.24,0,0,1-.19-.78Z"/><path class="cls-2" d="M634.83,141.44h2.46a.78.78,0,0,1,.58.19.73.73,0,0,1,.2.55.71.71,0,0,1-.19.56,1,1,0,0,1-.67.17h-4.52a.87.87,0,0,1-.62-.19.67.67,0,0,1-.21-.54.61.61,0,0,1,.26-.57,1.94,1.94,0,0,1,1-.17h.19V130.81h-.19a1.94,1.94,0,0,1-1-.17.61.61,0,0,1-.26-.57.67.67,0,0,1,.21-.54.92.92,0,0,1,.62-.18h1.55a.75.75,0,0,1,.45.1.39.39,0,0,1,.14.32v1a4.81,4.81,0,0,1,1.54-1.07,4.58,4.58,0,0,1,1.82-.36,4.64,4.64,0,0,1,3.44,1.39,4.79,4.79,0,0,1,1.39,3.5,4.48,4.48,0,0,1-1.32,3.32,4.54,4.54,0,0,1-3.35,1.3,5.24,5.24,0,0,1-2-.38,4.13,4.13,0,0,1-1.52-1.11Zm3.17-4.11a3.19,3.19,0,0,0,2.34-.89,3.39,3.39,0,0,0,0-4.62,3.18,3.18,0,0,0-2.34-.91,3.08,3.08,0,0,0-3.21,3.21,3.07,3.07,0,0,0,3.21,3.21Z"/><path class="cls-2" d="M649.38,126.88h-1.74a2.88,2.88,0,0,1-1.25-.16.64.64,0,0,1-.25-.58.69.69,0,0,1,.21-.55.92.92,0,0,1,.61-.18h3.38a.67.67,0,0,1,.43.11.35.35,0,0,1,.16.31v11.55h3.22a.8.8,0,0,1,.56.16.73.73,0,0,1,.18.54.79.79,0,0,1-.17.58,1,1,0,0,1-.66.16H646.5a.91.91,0,0,1-.61-.18.72.72,0,0,1-.21-.56.63.63,0,0,1,.22-.53,1,1,0,0,1,.64-.17h2.84Z"/><path class="cls-2" d="M659.2,134.54a3.1,3.1,0,0,0,1,2.28,3.63,3.63,0,0,0,2.5.81,6.39,6.39,0,0,0,2.62-.64,6.86,6.86,0,0,1,1.71-.64.76.76,0,0,1,.51.19.65.65,0,0,1,.21.49.83.83,0,0,1-.22.54,2.27,2.27,0,0,1-.69.48,10,10,0,0,1-2.11.76,9,9,0,0,1-2.17.27,5.16,5.16,0,0,1-3.74-1.35,4.71,4.71,0,0,1-1.4-3.57,4.81,4.81,0,0,1,1.48-3.67,5.4,5.4,0,0,1,3.88-1.41,5.06,5.06,0,0,1,3.58,1.32,4.15,4.15,0,0,1,1.43,3.17,1,1,0,0,1-.24.77,2.6,2.6,0,0,1-1.31.2h-7Zm0-1.35h6.67a3,3,0,0,0-1-2,3.17,3.17,0,0,0-2.12-.74,3.65,3.65,0,0,0-2.3.72A3.38,3.38,0,0,0,659.25,133.19Z"/><path class="cls-2" d="M674.25,137.38h3.41a.86.86,0,0,1,.58.16.7.7,0,0,1,.19.54.74.74,0,0,1-.18.58,1,1,0,0,1-.66.16h-6.7a.86.86,0,0,1-.6-.18.72.72,0,0,1-.21-.56.65.65,0,0,1,.21-.53,1,1,0,0,1,.65-.17h1.79V130.8H672a3,3,0,0,1-1.24-.16.63.63,0,0,1-.25-.58.69.69,0,0,1,.2-.53.91.91,0,0,1,.61-.18h2.34a.72.72,0,0,1,.42.11.34.34,0,0,1,.14.31v1.74a7.3,7.3,0,0,1,2-1.81,4.54,4.54,0,0,1,2.28-.6,2.67,2.67,0,0,1,1.47.37,1.1,1.1,0,0,1,.57.95,1,1,0,0,1-.29.67.84.84,0,0,1-.62.29,2,2,0,0,1-.79-.31,2.1,2.1,0,0,0-1-.32,3.13,3.13,0,0,0-1.68.57,9.47,9.47,0,0,0-2,1.81Z"/><path class="cls-2" d="M691,137.38a2.19,2.19,0,0,1,1,.14.65.65,0,0,1,.22.56.68.68,0,0,1-.22.58,2,2,0,0,1-1,.16h-6.71a.8.8,0,0,1-.56-.18.75.75,0,0,1-.19-.56.63.63,0,0,1,.22-.56,2.21,2.21,0,0,1,1-.14h2.31v-9.24h-2.31a2,2,0,0,1-1-.16.63.63,0,0,1-.23-.58.69.69,0,0,1,.19-.55.85.85,0,0,1,.59-.18h7.16a.79.79,0,0,1,.56.18.76.76,0,0,1,.19.55.66.66,0,0,1-.23.58,2,2,0,0,1-1,.16h-2.32v9.24Z"/><path class="cls-2" d="M696.63,137.38v-6.57h-.19a1.94,1.94,0,0,1-1-.17.63.63,0,0,1-.26-.57.64.64,0,0,1,.22-.55,1.13,1.13,0,0,1,.69-.17h1.47a.76.76,0,0,1,.43.11.37.37,0,0,1,.15.31v.7a5.45,5.45,0,0,1,1.48-1,3.7,3.7,0,0,1,1.52-.34,3.16,3.16,0,0,1,2.44,1,3.78,3.78,0,0,1,.88,2.66v4.65H705a1.29,1.29,0,0,1,.74.16.65.65,0,0,1,.23.54.64.64,0,0,1-.24.57,1.61,1.61,0,0,1-.86.17h-2.27a1.49,1.49,0,0,1-.84-.15.73.73,0,0,1-.19-.59.64.64,0,0,1,.22-.55,1.55,1.55,0,0,1,.82-.15H703v-4.27a2.69,2.69,0,0,0-.55-1.83,2,2,0,0,0-1.58-.63,2.73,2.73,0,0,0-1.85.71,2.24,2.24,0,0,0-.8,1.75v4.27h.36a1.57,1.57,0,0,1,.83.15.64.64,0,0,1,.22.55.77.77,0,0,1-.19.59,1.66,1.66,0,0,1-.9.15h-2.42a1,1,0,0,1-.63-.18.7.7,0,0,1-.21-.56.61.61,0,0,1,.24-.56,2,2,0,0,1,.94-.14Z"/><path class="cls-2" d="M715.84,129.92a1.19,1.19,0,0,1,.73.18.62.62,0,0,1,.23.55.67.67,0,0,1-.21.54,1,1,0,0,1-.65.18h-4.15v3.42a3.83,3.83,0,0,0,.44,2.22,1.83,1.83,0,0,0,1.49.53A6,6,0,0,0,716,137a6.46,6.46,0,0,1,1.61-.55.67.67,0,0,1,.49.21.69.69,0,0,1,.2.5.83.83,0,0,1-.25.59,2.63,2.63,0,0,1-.86.49,12.82,12.82,0,0,1-1.81.58,7,7,0,0,1-1.51.18,4.62,4.62,0,0,1-2-.38,2.6,2.6,0,0,1-1.22-1.14,2.93,2.93,0,0,1-.29-.85,9.33,9.33,0,0,1-.09-1.52v-3.74h-1.74a.94.94,0,0,1-.62-.17.7.7,0,0,1-.2-.55.59.59,0,0,1,.27-.57,2.62,2.62,0,0,1,1.13-.16h1.16v-2.64a1,1,0,0,1,.19-.65.77.77,0,0,1,.59-.21.72.72,0,0,1,.63.26,2.53,2.53,0,0,1,.17,1.16v2.08Z"/><path class="cls-2" d="M722.17,134.54a3.14,3.14,0,0,0,1,2.28,3.66,3.66,0,0,0,2.51.81,6.31,6.31,0,0,0,2.61-.64,6.86,6.86,0,0,1,1.71-.64.73.73,0,0,1,.51.19.65.65,0,0,1,.21.49.78.78,0,0,1-.22.54,2.34,2.34,0,0,1-.68.48,10.33,10.33,0,0,1-2.12.76,9,9,0,0,1-2.17.27,5.19,5.19,0,0,1-3.74-1.35,5.26,5.26,0,0,1,.09-7.24,5.39,5.39,0,0,1,3.87-1.41,5.08,5.08,0,0,1,3.59,1.32,4.14,4.14,0,0,1,1.42,3.17,1,1,0,0,1-.24.77,2.57,2.57,0,0,1-1.31.2h-7Zm.05-1.35h6.67a3,3,0,0,0-1-2,3.19,3.19,0,0,0-2.13-.74,3.67,3.67,0,0,0-2.3.72A3.38,3.38,0,0,0,722.22,133.19Z"/><path class="cls-2" d="M742.4,138.28a10.41,10.41,0,0,1-.14,2,2.69,2.69,0,0,1-.5,1.05,3.47,3.47,0,0,1-1.61,1.15,6.71,6.71,0,0,1-2.44.4,4.75,4.75,0,0,1-1.71-.23.75.75,0,0,1-.54-.71.72.72,0,0,1,.27-.56.87.87,0,0,1,.61-.24,7.16,7.16,0,0,1,.86.07,7.46,7.46,0,0,0,.87.08,2.79,2.79,0,0,0,2.15-.7,3.54,3.54,0,0,0,.63-2.38V137a3.82,3.82,0,0,1-1.38,1.06,4.19,4.19,0,0,1-1.74.34,4.25,4.25,0,0,1-3.17-1.28,4.77,4.77,0,0,1,0-6.49,4.48,4.48,0,0,1,4.74-1,6.19,6.19,0,0,1,1.52.89v-.74a.39.39,0,0,1,.14-.32.73.73,0,0,1,.44-.1H743a.91.91,0,0,1,.61.18.67.67,0,0,1,.21.54.63.63,0,0,1-.26.57,1.92,1.92,0,0,1-1,.17h-.18Zm-4.46-7.41a3,3,0,0,0-2.19.83,3.13,3.13,0,0,0,0,4.29,3.3,3.3,0,0,0,4.38,0,3.09,3.09,0,0,0,0-4.28A3,3,0,0,0,737.94,130.87Z"/><path class="cls-2" d="M749.82,137.38h3.4a.87.87,0,0,1,.59.16.7.7,0,0,1,.19.54.74.74,0,0,1-.18.58,1,1,0,0,1-.66.16h-6.7a.86.86,0,0,1-.6-.18.72.72,0,0,1-.21-.56.65.65,0,0,1,.21-.53,1,1,0,0,1,.65-.17h1.78V130.8h-.69a3,3,0,0,1-1.24-.16.63.63,0,0,1-.25-.58.69.69,0,0,1,.2-.53.91.91,0,0,1,.61-.18h2.34a.72.72,0,0,1,.42.11.37.37,0,0,1,.14.31v1.74a7.3,7.3,0,0,1,2-1.81,4.52,4.52,0,0,1,2.28-.6,2.69,2.69,0,0,1,1.47.37,1.1,1.1,0,0,1,.57.95,1,1,0,0,1-.29.67.84.84,0,0,1-.62.29,2,2,0,0,1-.79-.31,2.1,2.1,0,0,0-1-.32,3.13,3.13,0,0,0-1.68.57,9.47,9.47,0,0,0-2,1.81Z"/><path class="cls-2" d="M765.78,137.52a6.36,6.36,0,0,1-1.83,1.16,5.52,5.52,0,0,1-2,.4,3.58,3.58,0,0,1-2.47-.85,2.88,2.88,0,0,1-.94-2.22,2.92,2.92,0,0,1,1.25-2.51,6,6,0,0,1,3.5-.89,9.9,9.9,0,0,1,2.44.32v-.07a2.38,2.38,0,0,0-.57-1.75,2.4,2.4,0,0,0-1.75-.56,4.43,4.43,0,0,0-1.78.43,4.32,4.32,0,0,1-1.3.43.62.62,0,0,1-.5-.24,1,1,0,0,1-.19-.62c0-.4.38-.74,1.13-1a8.47,8.47,0,0,1,2.9-.42,3.7,3.7,0,0,1,2.72.92,3.65,3.65,0,0,1,.93,2.71v4.65h.5a2.09,2.09,0,0,1,1,.15.61.61,0,0,1,.25.55.72.72,0,0,1-.21.56.89.89,0,0,1-.61.18h-1.61a.68.68,0,0,1-.47-.17.88.88,0,0,1-.25-.51Zm-.08-3.23a8,8,0,0,0-1.1-.27,6.2,6.2,0,0,0-1.05-.09,5,5,0,0,0-2.49.53,1.64,1.64,0,0,0-.91,1.44,1.41,1.41,0,0,0,.57,1.15,2.26,2.26,0,0,0,1.45.45,4.55,4.55,0,0,0,2.41-.68c.75-.46,1.12-.93,1.12-1.42Z"/><path class="cls-2" d="M778.81,129.92a1.22,1.22,0,0,1,.74.18.77.77,0,0,1,0,1.09,1,1,0,0,1-.64.18h-4.15v3.42a3.85,3.85,0,0,0,.43,2.22,1.85,1.85,0,0,0,1.49.53,6.06,6.06,0,0,0,2.24-.54,6.2,6.2,0,0,1,1.61-.55.63.63,0,0,1,.48.21.65.65,0,0,1,.2.5.79.79,0,0,1-.25.59,2.56,2.56,0,0,1-.85.49,13.24,13.24,0,0,1-1.81.58,7,7,0,0,1-1.52.18,4.65,4.65,0,0,1-2-.38,2.58,2.58,0,0,1-1.21-1.14,2.67,2.67,0,0,1-.3-.85,11,11,0,0,1-.08-1.52v-3.74h-1.74a1,1,0,0,1-.63-.17.7.7,0,0,1-.2-.55.59.59,0,0,1,.27-.57,2.71,2.71,0,0,1,1.14-.16h1.16v-2.64a.94.94,0,0,1,.19-.65.74.74,0,0,1,.59-.21.69.69,0,0,1,.62.26,2.36,2.36,0,0,1,.18,1.16v2.08Z"/><path class="cls-2" d="M794,134.1a4.69,4.69,0,0,1-1.49,3.58,6.08,6.08,0,0,1-7.76,0,5,5,0,0,1,0-7.17,6.08,6.08,0,0,1,7.75,0A4.67,4.67,0,0,1,794,134.1Zm-5.38,3.53a3.51,3.51,0,0,0,2.59-1,3.7,3.7,0,0,0,0-5.09,3.8,3.8,0,0,0-5.16,0,3.72,3.72,0,0,0,0,5.1A3.52,3.52,0,0,0,788.61,137.63Z"/><path class="cls-2" d="M800.2,137.38h3.4a.87.87,0,0,1,.59.16.7.7,0,0,1,.19.54.74.74,0,0,1-.18.58,1,1,0,0,1-.66.16h-6.7a.86.86,0,0,1-.6-.18.72.72,0,0,1-.21-.56.65.65,0,0,1,.21-.53,1,1,0,0,1,.65-.17h1.78V130.8H798a2.93,2.93,0,0,1-1.24-.16.63.63,0,0,1-.25-.58.69.69,0,0,1,.2-.53.89.89,0,0,1,.61-.18h2.34a.72.72,0,0,1,.42.11.37.37,0,0,1,.14.31v1.74a7.3,7.3,0,0,1,2-1.81,4.51,4.51,0,0,1,2.27-.6,2.7,2.7,0,0,1,1.48.37,1.09,1.09,0,0,1,.56.95.94.94,0,0,1-.28.67.84.84,0,0,1-.62.29,2,2,0,0,1-.79-.31,2.1,2.1,0,0,0-1-.32,3.16,3.16,0,0,0-1.69.57,9.71,9.71,0,0,0-2,1.81Z"/><path class="cls-2" d="M811.79,131.47a1.71,1.71,0,0,1,.56-1.31,2.07,2.07,0,0,1,1.45-.51,2.13,2.13,0,0,1,1.47.5,1.73,1.73,0,0,1,.55,1.32,1.69,1.69,0,0,1-.56,1.32,2.34,2.34,0,0,1-2.92,0A1.71,1.71,0,0,1,811.79,131.47Zm0,5.67a1.71,1.71,0,0,1,.56-1.31,2.33,2.33,0,0,1,2.92,0,1.71,1.71,0,0,1,.55,1.32,1.69,1.69,0,0,1-.56,1.32,2.38,2.38,0,0,1-2.92,0A1.71,1.71,0,0,1,811.79,137.14Z"/><path class="cls-2" d="M824.39,131.47a1.7,1.7,0,0,1,.55-1.31,2.09,2.09,0,0,1,1.45-.51,2.13,2.13,0,0,1,1.47.5,1.86,1.86,0,0,1,0,2.64,2.1,2.1,0,0,1-1.47.51,2.05,2.05,0,0,1-1.45-.51A1.68,1.68,0,0,1,824.39,131.47Zm0,5.67a1.7,1.7,0,0,1,.55-1.31,2.33,2.33,0,0,1,2.92,0,1.86,1.86,0,0,1,0,2.64,2.1,2.1,0,0,1-1.47.5,2,2,0,0,1-1.45-.5A1.68,1.68,0,0,1,824.39,137.14Z"/><path class="cls-2" d="M842.85,134.69a1.93,1.93,0,0,1,.16-1,.65.65,0,0,1,.58-.23.71.71,0,0,1,.55.19.79.79,0,0,1,.19.59v3.81a.77.77,0,0,1-.2.56.73.73,0,0,1-.54.2H834a.65.65,0,0,1-.74-.74.63.63,0,0,1,.22-.56,2.14,2.14,0,0,1,1-.14h1.28v-9.24H834.5a2,2,0,0,1-1-.16.66.66,0,0,1-.23-.58.69.69,0,0,1,.19-.55.83.83,0,0,1,.59-.18h5.54a.81.81,0,0,1,.57.18.72.72,0,0,1,.19.55.63.63,0,0,1-.23.58,2,2,0,0,1-1,.16H837.4v9.24h5.45Z"/><path class="cls-2" d="M852.54,137.38h3.29a.9.9,0,0,1,.59.16.74.74,0,0,1,.19.54.74.74,0,0,1-.18.58,1,1,0,0,1-.66.16h-7.95a.89.89,0,0,1-.61-.18.72.72,0,0,1-.21-.56.66.66,0,0,1,.22-.53,1,1,0,0,1,.64-.17H851V130.8h-2a1,1,0,0,1-.64-.19.68.68,0,0,1-.22-.55.66.66,0,0,1,.21-.53.89.89,0,0,1,.61-.18h3a.79.79,0,0,1,.44.11.38.38,0,0,1,.16.31Zm-1.9-11a3,3,0,0,1,.2-1.39c.13-.2.42-.29.86-.29a1.11,1.11,0,0,1,.84.24,2.08,2.08,0,0,1,.2,1.14,1.87,1.87,0,0,1-.19,1.09,1.18,1.18,0,0,1-.85.21,1.3,1.3,0,0,1-.86-.19A1.18,1.18,0,0,1,850.64,126.4Z"/><path class="cls-2" d="M866.26,126.77a3,3,0,0,1-.34.93c-.23.47-.4.85-.52,1.13a16.45,16.45,0,0,0-1,3,13.59,13.59,0,0,0-.29,2.81,13.89,13.89,0,0,0,.24,2.6,14.84,14.84,0,0,0,.75,2.5c.17.45.41,1,.7,1.6a4.07,4.07,0,0,1,.45,1.13.52.52,0,0,1-.1.35.29.29,0,0,1-.26.13,1.16,1.16,0,0,1-.71-.33,6,6,0,0,1-.9-1.07,12.2,12.2,0,0,1-1.64-3.29,12.07,12.07,0,0,1,1.26-10,8,8,0,0,1,1.1-1.46,1.36,1.36,0,0,1,.89-.49.29.29,0,0,1,.26.13A.48.48,0,0,1,866.26,126.77Z"/><path class="cls-2" d="M874.68,142.45a3,3,0,0,1,.35-.91c.23-.47.41-.84.54-1.12a18.24,18.24,0,0,0,1-3,12.92,12.92,0,0,0,.3-2.8,13.76,13.76,0,0,0-.25-2.58,14.72,14.72,0,0,0-.77-2.54c-.18-.45-.41-1-.71-1.59a4.26,4.26,0,0,1-.44-1.14.49.49,0,0,1,.11-.33.29.29,0,0,1,.26-.13,1.16,1.16,0,0,1,.73.33,6.39,6.39,0,0,1,.89,1.06,11.92,11.92,0,0,1,1.64,3.29,12.2,12.2,0,0,1,.09,6.94,12.38,12.38,0,0,1-1.37,3,8.63,8.63,0,0,1-1.11,1.48,1.35,1.35,0,0,1-.87.47.32.32,0,0,1-.26-.13A.56.56,0,0,1,874.68,142.45Z"/><line class="cls-3" x1="58.49" y1="31.91" x2="139.81" y2="114.64"/><polygon points="132.44 114.99 139.35 114.17 140.29 107.28 145.49 120.41 132.44 114.99"/><polygon class="cls-4" points="134.39 115.26 144.57 119.48 139.8 114.62 134.39 115.26"/><polygon class="cls-5" points="140.53 109.23 144.57 119.48 139.8 114.62 140.53 109.23"/><line class="cls-3" x1="251.97" y1="121.39" x2="287.12" y2="40.93"/><polygon points="290.2 47.63 286.86 41.53 280.11 43.23 290.37 33.51 290.2 47.63"/><polygon class="cls-4" points="289.72 45.72 289.84 34.71 287.11 40.95 289.72 45.72"/><polygon class="cls-5" points="281.84 42.28 289.84 34.71 287.11 40.95 281.84 42.28"/><line class="cls-3" x1="285.21" y1="113.96" x2="320.36" y2="33.5"/><polygon points="292.22 111.67 285.47 113.37 282.13 107.26 281.96 121.39 292.22 111.67"/><polygon class="cls-4" points="290.49 112.61 282.49 120.19 285.22 113.95 290.49 112.61"/><polygon class="cls-5" points="282.61 109.17 282.49 120.19 285.22 113.95 282.61 109.17"/><line class="cls-3" x1="220.04" y1="154.91" x2="220.04" y2="222.56"/><polygon points="214.53 217.65 220.04 221.91 225.54 217.65 220.04 230.66 214.53 217.65"/><polygon class="cls-4" points="215.73 219.21 220.04 229.35 220.04 222.54 215.73 219.21"/><polygon class="cls-5" points="224.33 219.21 220.04 229.35 220.04 222.54 224.33 219.21"/><line class="cls-3" x1="404.24" y1="130.91" x2="570.14" y2="130.91"/><polygon points="565.23 136.42 569.49 130.91 565.23 125.41 578.24 130.91 565.23 136.42"/><polygon class="cls-4" points="566.79 135.22 576.93 130.91 570.12 130.91 566.79 135.22"/><polygon class="cls-5" points="566.79 126.62 576.93 130.91 570.12 130.91 566.79 126.62"/><line class="cls-3" x1="413.84" y1="145.16" x2="579.74" y2="145.16"/><polygon points="418.75 150.67 414.5 145.16 418.75 139.66 405.74 145.16 418.75 150.67"/><polygon class="cls-4" points="417.2 149.47 407.05 145.16 413.87 145.16 417.2 149.47"/><polygon class="cls-5" points="417.2 140.87 407.05 145.16 413.87 145.16 417.2 140.87"/><path d="M204.59,58.68a6.53,6.53,0,0,0,3.28.92c1.86,0,2.95-1,2.95-2.41s-.75-2.08-2.66-2.81c-2.31-.82-3.74-2-3.74-4,0-2.2,1.83-3.84,4.58-3.84a6.44,6.44,0,0,1,3.12.69l-.5,1.49a5.62,5.62,0,0,0-2.68-.67c-1.93,0-2.67,1.15-2.67,2.12,0,1.32.86,2,2.81,2.73,2.39.92,3.61,2.07,3.61,4.15s-1.61,4.07-4.95,4.07a7.38,7.38,0,0,1-3.61-.9Z"/><path d="M220.81,60.9l-.14-1.28h-.07a3.75,3.75,0,0,1-3.1,1.51,2.89,2.89,0,0,1-3.11-2.91c0-2.46,2.19-3.8,6.11-3.78v-.21a2.09,2.09,0,0,0-2.31-2.35,5,5,0,0,0-2.64.76l-.42-1.22a6.24,6.24,0,0,1,3.33-.9c3.11,0,3.87,2.12,3.87,4.15v3.8a14.93,14.93,0,0,0,.16,2.43Zm-.27-5.18c-2,0-4.3.31-4.3,2.29A1.64,1.64,0,0,0,218,59.77a2.54,2.54,0,0,0,2.46-1.7,2,2,0,0,0,.1-.59Z"/><path d="M225.31,53.5c0-1,0-1.91-.09-2.75h1.62l.08,1.63H227a3.49,3.49,0,0,1,3.18-1.86,3,3,0,0,1,2.88,2h0a4.14,4.14,0,0,1,1.13-1.32,3.48,3.48,0,0,1,2.25-.71c1.34,0,3.33.88,3.33,4.4v6H238V55.15c0-1.95-.71-3.12-2.2-3.12a2.37,2.37,0,0,0-2.18,1.68,2.81,2.81,0,0,0-.15.92V60.9h-1.81V54.82c0-1.62-.71-2.79-2.12-2.79a2.51,2.51,0,0,0-2.28,1.84,2.49,2.49,0,0,0-.15.91V60.9h-1.8Z"/><path d="M242.81,54.06c0-1.3,0-2.35-.08-3.31h1.66l.08,1.74h0a4,4,0,0,1,3.61-2c2.46,0,4.3,2.07,4.3,5.16,0,3.65-2.22,5.45-4.61,5.45a3.55,3.55,0,0,1-3.13-1.59h0v5.52h-1.83Zm1.83,2.71a4.31,4.31,0,0,0,.08.75,2.86,2.86,0,0,0,2.77,2.17c1.95,0,3.09-1.6,3.09-3.93,0-2-1.08-3.78-3-3.78a3,3,0,0,0-2.79,2.29,3.17,3.17,0,0,0-.12.76Z"/><path d="M254.75,46h1.85V60.9h-1.85Z"/><path d="M260.73,56.16a3.26,3.26,0,0,0,3.49,3.53,6.71,6.71,0,0,0,2.81-.53l.31,1.32a8.09,8.09,0,0,1-3.37.63c-3.13,0-5-2-5-5.12s1.81-5.47,4.76-5.47c3.32,0,4.2,2.91,4.2,4.78a7.27,7.27,0,0,1-.06.86Zm5.42-1.32c0-1.18-.48-3-2.56-3-1.87,0-2.69,1.72-2.83,3Z"/><path d="M328.59,47a19.05,19.05,0,0,1,3.51-.29c1.95,0,3.21.35,4.09,1.15a3.53,3.53,0,0,1,1.11,2.69,3.7,3.7,0,0,1-2.66,3.6v.07A3.49,3.49,0,0,1,336.71,57a23.62,23.62,0,0,0,1.09,3.88h-1.88a18.21,18.21,0,0,1-.95-3.38c-.42-2-1.17-2.68-2.83-2.74h-1.72V60.9h-1.83Zm1.83,6.44h1.87c1.95,0,3.19-1.07,3.19-2.68,0-1.83-1.33-2.63-3.26-2.65a7.63,7.63,0,0,0-1.8.17Z"/><path d="M345.7,60.9l-.15-1.28h-.06a3.79,3.79,0,0,1-3.11,1.51,2.89,2.89,0,0,1-3.1-2.91c0-2.46,2.18-3.8,6.1-3.78v-.21a2.09,2.09,0,0,0-2.3-2.35,5,5,0,0,0-2.65.76L340,51.42a6.28,6.28,0,0,1,3.34-.9c3.1,0,3.86,2.12,3.86,4.15v3.8a13.82,13.82,0,0,0,.17,2.43Zm-.28-5.18c-2,0-4.3.31-4.3,2.29a1.64,1.64,0,0,0,1.75,1.76,2.52,2.52,0,0,0,2.45-1.7,2,2,0,0,0,.1-.59Z"/><path d="M350.69,50.75l2.23,6c.23.67.48,1.47.65,2.07h0c.19-.6.4-1.38.65-2.11l2-6h2L355.46,58c-1.33,3.48-2.23,5.26-3.49,6.35a5,5,0,0,1-2.26,1.2L349.25,64a4.77,4.77,0,0,0,1.61-.91,5.48,5.48,0,0,0,1.56-2,1.42,1.42,0,0,0,.14-.44,1.74,1.74,0,0,0-.12-.49l-3.76-9.35Z"/><path d="M478.15,105.45a18.86,18.86,0,0,1,3.5-.29c2,0,3.21.35,4.09,1.15a3.49,3.49,0,0,1,1.11,2.69,3.7,3.7,0,0,1-2.66,3.6v.07a3.52,3.52,0,0,1,2.08,2.85,21.69,21.69,0,0,0,1.09,3.88h-1.89a17.68,17.68,0,0,1-.94-3.38c-.42-2-1.18-2.68-2.84-2.74H480v6.12h-1.82Zm1.82,6.44h1.87c2,0,3.19-1.07,3.19-2.68,0-1.83-1.32-2.63-3.25-2.65a7.8,7.8,0,0,0-1.81.17Z"/><path d="M495.25,119.4l-.15-1.28H495a3.78,3.78,0,0,1-3.1,1.51,2.89,2.89,0,0,1-3.11-2.91c0-2.46,2.18-3.8,6.11-3.78v-.21a2.09,2.09,0,0,0-2.31-2.35,5,5,0,0,0-2.65.76l-.42-1.22a6.28,6.28,0,0,1,3.34-.9c3.11,0,3.86,2.12,3.86,4.15V117a13.82,13.82,0,0,0,.17,2.43Zm-.27-5.18c-2,0-4.3.31-4.3,2.29a1.63,1.63,0,0,0,1.74,1.76,2.52,2.52,0,0,0,2.45-1.7A1.76,1.76,0,0,0,495,116Z"/><path d="M500.25,109.25l2.22,6c.23.67.48,1.47.65,2.07h0c.19-.6.4-1.38.65-2.11l2-6h1.95L505,116.49c-1.32,3.48-2.22,5.26-3.48,6.35a5.11,5.11,0,0,1-2.27,1.2l-.46-1.55a4.9,4.9,0,0,0,1.62-.91,5.57,5.57,0,0,0,1.55-2,1.42,1.42,0,0,0,.14-.44,1.74,1.74,0,0,0-.12-.49l-3.76-9.35Z"/><path d="M453.36,156.45a18.86,18.86,0,0,1,3.5-.29c1.95,0,3.21.35,4.09,1.15a3.53,3.53,0,0,1,1.11,2.69,3.7,3.7,0,0,1-2.66,3.6v.07a3.49,3.49,0,0,1,2.07,2.85,22.31,22.31,0,0,0,1.1,3.88h-1.89a18.21,18.21,0,0,1-.95-3.38c-.42-2-1.17-2.68-2.83-2.74h-1.72v6.12h-1.82Zm1.82,6.44h1.87c1.95,0,3.19-1.07,3.19-2.68,0-1.83-1.32-2.63-3.25-2.65a7.66,7.66,0,0,0-1.81.17Z"/><path d="M470.46,170.4l-.15-1.28h-.06a3.79,3.79,0,0,1-3.11,1.51,2.89,2.89,0,0,1-3.1-2.91c0-2.46,2.18-3.8,6.1-3.78v-.21a2.09,2.09,0,0,0-2.3-2.35,5,5,0,0,0-2.65.76l-.42-1.22a6.28,6.28,0,0,1,3.34-.9c3.1,0,3.86,2.12,3.86,4.15V168a13.82,13.82,0,0,0,.17,2.43Zm-.27-5.18c-2,0-4.31.31-4.31,2.29a1.64,1.64,0,0,0,1.75,1.76,2.52,2.52,0,0,0,2.45-1.7,2,2,0,0,0,.11-.59Z"/><path d="M483.72,155.51v12.27c0,.9,0,1.93.09,2.62h-1.66l-.09-1.76h0a3.75,3.75,0,0,1-3.46,2c-2.45,0-4.34-2.07-4.34-5.16,0-3.38,2.07-5.45,4.55-5.45a3.39,3.39,0,0,1,3.06,1.55h.05v-6.06Zm-1.84,8.87a3.46,3.46,0,0,0-.09-.78,2.72,2.72,0,0,0-2.66-2.14c-1.91,0-3.05,1.68-3.05,3.93,0,2.05,1,3.75,3,3.75a2.78,2.78,0,0,0,2.71-2.2,3.32,3.32,0,0,0,.09-.8Z"/><path d="M488.84,157.39a1.09,1.09,0,0,1-1.17,1.14,1.1,1.1,0,0,1-1.11-1.14,1.12,1.12,0,0,1,1.15-1.15A1.09,1.09,0,0,1,488.84,157.39Zm-2,13V160.25h1.84V170.4Z"/><path d="M497.32,170.4l-.14-1.28h-.07a3.75,3.75,0,0,1-3.1,1.51,2.89,2.89,0,0,1-3.11-2.91c0-2.46,2.18-3.8,6.11-3.78v-.21a2.09,2.09,0,0,0-2.31-2.35,5,5,0,0,0-2.64.76l-.42-1.22A6.24,6.24,0,0,1,495,160c3.11,0,3.86,2.12,3.86,4.15V168a14.85,14.85,0,0,0,.17,2.43Zm-.27-5.18c-2,0-4.3.31-4.3,2.29a1.64,1.64,0,0,0,1.74,1.76,2.52,2.52,0,0,0,2.45-1.7,1.76,1.76,0,0,0,.11-.59Z"/><path d="M501.82,163c0-1.05,0-1.91-.09-2.75h1.64l.1,1.68h0a3.71,3.71,0,0,1,3.35-1.91c1.41,0,3.59.84,3.59,4.32v6.06h-1.85v-5.85c0-1.64-.61-3-2.35-3a2.62,2.62,0,0,0-2.47,1.89,2.47,2.47,0,0,0-.13.86v6.1h-1.84Z"/><path d="M520.7,170a6.64,6.64,0,0,1-2.91.59,4.82,4.82,0,0,1-5.06-5.18,5.15,5.15,0,0,1,5.45-5.39,6.16,6.16,0,0,1,2.56.52l-.41,1.43a4.37,4.37,0,0,0-2.15-.48,3.51,3.51,0,0,0-3.58,3.84,3.47,3.47,0,0,0,3.52,3.79,5.3,5.3,0,0,0,2.27-.5Z"/><path d="M523.77,165.66a3.26,3.26,0,0,0,3.48,3.53,6.71,6.71,0,0,0,2.81-.53l.32,1.32a8.11,8.11,0,0,1-3.38.63c-3.13,0-5-2.05-5-5.12s1.8-5.47,4.76-5.47c3.31,0,4.19,2.91,4.19,4.78a7.27,7.27,0,0,1-.06.86Zm5.41-1.32c0-1.18-.48-3-2.56-3-1.87,0-2.68,1.72-2.83,3Z"/><path d="M232.6,176.43a6.53,6.53,0,0,0,3.28.92c1.86,0,3-1,3-2.41s-.75-2.08-2.66-2.81c-2.31-.82-3.73-2-3.73-4,0-2.2,1.82-3.84,4.57-3.84a6.52,6.52,0,0,1,3.13.69l-.51,1.49a5.62,5.62,0,0,0-2.68-.67c-1.93,0-2.67,1.15-2.67,2.12,0,1.32.86,2,2.81,2.73,2.4.92,3.61,2.07,3.61,4.15s-1.61,4.07-4.95,4.07a7.38,7.38,0,0,1-3.61-.9Z"/><path d="M248.83,178.65l-.15-1.28h-.06a3.79,3.79,0,0,1-3.11,1.51,2.88,2.88,0,0,1-3.1-2.91c0-2.46,2.18-3.8,6.1-3.78V172a2.09,2.09,0,0,0-2.31-2.35,5,5,0,0,0-2.64.76l-.42-1.22a6.28,6.28,0,0,1,3.34-.9c3.1,0,3.86,2.12,3.86,4.15v3.8a14.93,14.93,0,0,0,.16,2.43Zm-.28-5.18c-2,0-4.3.31-4.3,2.29a1.64,1.64,0,0,0,1.74,1.76,2.54,2.54,0,0,0,2.46-1.7,2,2,0,0,0,.1-.59Z"/><path d="M253.32,171.25c0-1.05,0-1.91-.09-2.75h1.62l.08,1.63H255a3.5,3.5,0,0,1,3.19-1.86,3,3,0,0,1,2.87,2h0a4.27,4.27,0,0,1,1.13-1.32,3.48,3.48,0,0,1,2.25-.71c1.34,0,3.34.88,3.34,4.4v6H266V172.9c0-2-.71-3.12-2.2-3.12a2.37,2.37,0,0,0-2.18,1.68,2.81,2.81,0,0,0-.15.92v6.27h-1.81v-6.08c0-1.62-.71-2.79-2.11-2.79a2.51,2.51,0,0,0-2.29,1.84,2.49,2.49,0,0,0-.15.91v6.12h-1.8Z"/><path d="M270.82,171.81c0-1.3,0-2.35-.08-3.31h1.66l.08,1.74h0a4,4,0,0,1,3.61-2c2.46,0,4.3,2.07,4.3,5.16,0,3.65-2.22,5.45-4.61,5.45a3.55,3.55,0,0,1-3.13-1.59h0v5.52h-1.83Zm1.83,2.71a4.31,4.31,0,0,0,.08.75,2.86,2.86,0,0,0,2.77,2.17c1.95,0,3.09-1.6,3.09-3.93,0-2-1.07-3.78-3-3.78a3,3,0,0,0-2.79,2.29,3.17,3.17,0,0,0-.12.76Z"/><path d="M282.76,163.76h1.85v14.89h-1.85Z"/><path d="M288.75,173.91a3.25,3.25,0,0,0,3.48,3.53,6.71,6.71,0,0,0,2.81-.53l.31,1.32a8.09,8.09,0,0,1-3.37.63c-3.13,0-5-2.05-5-5.12s1.81-5.47,4.77-5.47c3.31,0,4.19,2.91,4.19,4.78a7.27,7.27,0,0,1-.06.86Zm5.41-1.32c0-1.18-.48-3-2.56-3-1.87,0-2.69,1.72-2.83,3Z"/><path d="M296.78,181.23a29.34,29.34,0,0,0,1.26-5l2.06-.21a26.1,26.1,0,0,1-2,5.1Z"/><path d="M232.86,191.7a18.86,18.86,0,0,1,3.5-.29c1.95,0,3.21.35,4.09,1.15a3.53,3.53,0,0,1,1.11,2.69,3.7,3.7,0,0,1-2.66,3.6v.07a3.49,3.49,0,0,1,2.07,2.85,22.31,22.31,0,0,0,1.1,3.88h-1.89a18.21,18.21,0,0,1-1-3.38c-.42-2-1.17-2.68-2.83-2.74h-1.72v6.12h-1.82Zm1.82,6.44h1.87c1.95,0,3.19-1.07,3.19-2.68,0-1.83-1.32-2.63-3.25-2.65a7.66,7.66,0,0,0-1.81.17Z"/><path d="M250,205.65l-.15-1.28h-.06a3.79,3.79,0,0,1-3.11,1.51,2.89,2.89,0,0,1-3.1-2.91c0-2.46,2.18-3.8,6.1-3.78V199a2.09,2.09,0,0,0-2.3-2.35,5,5,0,0,0-2.65.76l-.42-1.22a6.28,6.28,0,0,1,3.34-.9c3.1,0,3.86,2.12,3.86,4.15v3.8a13.82,13.82,0,0,0,.17,2.43Zm-.27-5.18c-2,0-4.31.31-4.31,2.29a1.64,1.64,0,0,0,1.75,1.76,2.52,2.52,0,0,0,2.45-1.7,2,2,0,0,0,.11-.59Z"/><path d="M263.22,190.76V203c0,.9,0,1.93.09,2.62h-1.66l-.09-1.76h0a3.75,3.75,0,0,1-3.46,2c-2.45,0-4.34-2.07-4.34-5.16,0-3.38,2.07-5.45,4.55-5.45a3.39,3.39,0,0,1,3.06,1.55h.05v-6.06Zm-1.84,8.87a3.46,3.46,0,0,0-.09-.78,2.72,2.72,0,0,0-2.66-2.14c-1.91,0-3,1.68-3,3.93,0,2.05,1,3.75,3,3.75a2.78,2.78,0,0,0,2.71-2.2,3.32,3.32,0,0,0,.09-.8Z"/><path d="M268.34,192.64a1.09,1.09,0,0,1-1.17,1.14,1.1,1.1,0,0,1-1.11-1.14,1.12,1.12,0,0,1,1.15-1.15A1.09,1.09,0,0,1,268.34,192.64Zm-2,13V195.5h1.84v10.15Z"/><path d="M276.82,205.65l-.14-1.28h-.07a3.75,3.75,0,0,1-3.1,1.51A2.89,2.89,0,0,1,270.4,203c0-2.46,2.18-3.8,6.11-3.78V199a2.09,2.09,0,0,0-2.31-2.35,5,5,0,0,0-2.64.76l-.42-1.22a6.24,6.24,0,0,1,3.33-.9c3.11,0,3.86,2.12,3.86,4.15v3.8a14.85,14.85,0,0,0,.17,2.43Zm-.27-5.18c-2,0-4.3.31-4.3,2.29a1.64,1.64,0,0,0,1.74,1.76,2.52,2.52,0,0,0,2.45-1.7,1.76,1.76,0,0,0,.11-.59Z"/><path d="M281.32,198.25c0-1.05,0-1.91-.09-2.75h1.64l.1,1.68h0a3.71,3.71,0,0,1,3.35-1.91c1.41,0,3.59.84,3.59,4.32v6.06h-1.85V199.8c0-1.64-.61-3-2.35-3a2.62,2.62,0,0,0-2.47,1.89,2.47,2.47,0,0,0-.13.86v6.1h-1.84Z"/><path d="M300.2,205.27a6.64,6.64,0,0,1-2.91.59,4.82,4.82,0,0,1-5.06-5.18,5.15,5.15,0,0,1,5.45-5.39,6.16,6.16,0,0,1,2.56.52l-.41,1.43a4.37,4.37,0,0,0-2.15-.48,3.51,3.51,0,0,0-3.58,3.84,3.47,3.47,0,0,0,3.52,3.79,5.3,5.3,0,0,0,2.27-.5Z"/><path d="M303.27,200.91a3.26,3.26,0,0,0,3.48,3.53,6.71,6.71,0,0,0,2.81-.53l.32,1.32a8.11,8.11,0,0,1-3.38.63c-3.13,0-5-2.05-5-5.12s1.8-5.47,4.76-5.47c3.31,0,4.19,2.91,4.19,4.78a7.27,7.27,0,0,1-.06.86Zm5.41-1.32c0-1.18-.48-3-2.56-3-1.87,0-2.68,1.72-2.83,3Z"/></svg>