<svg id="Layer_1" data-name="Layer 1" xmlns="http://www.w3.org/2000/svg" viewBox="0 0 242.32 242.32"><defs><style>.cls-1,.cls-2{fill:none;}.cls-1,.cls-2,.cls-3{stroke:#000;stroke-miterlimit:10;stroke-width:0.3px;}.cls-1{stroke-dasharray:4;}.cls-3{fill:#fcee21;}</style></defs><title>Light spheres equal power</title><circle class="cls-1" cx="121.35" cy="121.28" r="53.32"/><circle class="cls-2" cx="121.16" cy="121.16" r="121.01"/><line class="cls-2" x1="121.27" y1="121.4" x2="90.53" y2="77.62"/><line class="cls-2" x1="2.66" y1="95.33" x2="121.27" y2="121.24"/><polygon class="cls-3" points="125.88 102.45 124.3 112.12 129.25 103.67 125.93 112.89 132.35 105.48 127.38 113.93 135.06 107.83 128.62 115.23 137.29 110.64 129.6 116.73 138.96 113.81 130.29 118.39 140.03 117.24 130.66 120.14 140.44 120.8 130.71 121.93 140.2 124.38 130.42 123.7 139.3 127.85 129.81 125.39 137.78 131.1 128.9 126.94 135.68 134.01 127.73 128.29 133.09 136.49 126.32 129.41 130.09 138.46 124.74 130.24 126.78 139.83 123.02 130.78 123.27 140.57 121.24 130.98 119.68 140.66 119.45 130.86 116.14 140.09 117.72 130.41 112.77 138.87 116.09 129.65 109.67 137.06 114.64 128.6 106.96 134.7 113.4 127.31 104.73 131.89 112.42 125.81 103.06 128.72 111.73 124.15 102 125.3 111.36 122.4 101.58 121.73 111.31 120.6 101.82 118.16 111.6 118.83 102.72 114.68 112.21 117.14 104.24 111.43 113.12 115.6 106.34 108.52 114.29 114.24 108.93 106.04 115.7 113.13 111.93 104.08 117.28 112.29 115.25 102.7 119 111.76 118.75 101.96 120.78 111.55 122.34 101.88 122.57 111.67 125.88 102.45"/><path d="M104.19,81.54c0-1.37,0-2.54-.1-3.62h1.85L106,80.2h.1a3.49,3.49,0,0,1,3.22-2.55,2.67,2.67,0,0,1,.6.07v2a3,3,0,0,0-.72-.08,3,3,0,0,0-2.84,2.72,6.83,6.83,0,0,0-.09,1v6.19h-2.09Z"/><path d="M113.59,89.58h0l-1.58.85-.24-.94,2-1.06h1v9.1h-1.19Z"/><path d="M27.84,112.18c0-1.37,0-2.55-.09-3.63h1.84l.08,2.28h.09A3.48,3.48,0,0,1,33,108.29a2.2,2.2,0,0,1,.6.07v2a3.74,3.74,0,0,0-.72-.07A3,3,0,0,0,30,113a5.81,5.81,0,0,0-.1,1v6.19H27.84Z"/><path d="M34.57,128.16v-.75l1-.94c2.33-2.21,3.38-3.39,3.39-4.76a1.62,1.62,0,0,0-1.81-1.77,3.11,3.11,0,0,0-1.93.77l-.39-.87a4,4,0,0,1,2.58-.93,2.56,2.56,0,0,1,2.78,2.65c0,1.68-1.22,3-3.13,4.88l-.73.67v0h4.08v1Z"/></svg>