<svg id="Layer_1" data-name="Layer 1" xmlns="http://www.w3.org/2000/svg" viewBox="0 0 719.89 221.23"><defs><style>.cls-1,.cls-3{fill:none;}.cls-1,.cls-2,.cls-3{stroke:#000;stroke-miterlimit:10;}.cls-2{fill:#b8b5b5;}.cls-3{stroke-width:0.5px;}</style></defs><title>Pinhole Camera</title><polygon class="cls-1" points="180.38 0.91 54.38 81.03 54.38 220.04 180.38 139.92 180.38 0.91"/><polygon class="cls-1" points="393.38 0.91 267.38 81.03 267.38 220.04 393.38 139.92 393.38 0.91"/><line class="cls-1" x1="180.02" y1="0.66" x2="393.24" y2="0.66"/><polygon class="cls-2" points="153.14 59.97 96.9 95.73 96.9 157.78 153.14 122.02 153.14 59.97"/><line class="cls-1" x1="53.95" y1="80.66" x2="266.81" y2="80.66"/><line class="cls-1" x1="180.02" y1="139.23" x2="393.59" y2="139.23"/><line class="cls-1" x1="54.31" y1="220.73" x2="267.16" y2="220.73"/><ellipse class="cls-1" cx="336.15" cy="108.12" rx="7.03" ry="3.88" transform="translate(71.89 342.33) rotate(-59.38)"/><polygon class="cls-1" points="576.36 58.91 520.12 94.67 520.12 156.72 576.36 120.96 576.36 58.91"/><line class="cls-1" x1="153.71" y1="59.27" x2="631.82" y2="187.25"/><line class="cls-1" x1="97.04" y1="95.48" x2="617.3" y2="122.45"/><line class="cls-1" x1="96.43" y1="158.06" x2="673.24" y2="38.51"/><line class="cls-1" x1="152.84" y1="121.88" x2="622.56" y2="87.62"/><path d="M350.92,179.08a24.06,24.06,0,0,1,4-.31,6.68,6.68,0,0,1,4.54,1.34,4.39,4.39,0,0,1,1.41,3.39,4.74,4.74,0,0,1-1.25,3.45,6.67,6.67,0,0,1-4.94,1.78,7.19,7.19,0,0,1-1.68-.15v6.49h-2.09Zm2.09,7.8a7,7,0,0,0,1.73.17c2.52,0,4.05-1.23,4.05-3.46s-1.51-3.17-3.81-3.17a9.14,9.14,0,0,0-2,.17Z"/><path d="M365.59,180.18a1.31,1.31,0,0,1-2.62,0,1.29,1.29,0,0,1,1.32-1.32A1.26,1.26,0,0,1,365.59,180.18Zm-2.36,14.89V183.45h2.12v11.62Z"/><path d="M368.85,186.59c0-1.2,0-2.18-.1-3.14h1.88l.12,1.92h0a4.27,4.27,0,0,1,3.84-2.19c1.61,0,4.11,1,4.11,4.95v6.94h-2.11v-6.7c0-1.87-.7-3.43-2.69-3.43a3,3,0,0,0-2.83,2.16,2.88,2.88,0,0,0-.15,1v7h-2.11Z"/><path d="M382.17,178h2.11v7.25h.05a3.93,3.93,0,0,1,1.51-1.49,4.37,4.37,0,0,1,2.16-.6c1.56,0,4.06,1,4.06,5v6.92H390v-6.68c0-1.87-.7-3.45-2.69-3.45a3,3,0,0,0-2.83,2.11,2.56,2.56,0,0,0-.15,1v7h-2.11Z"/><path d="M406,189.16c0,4.3-3,6.17-5.78,6.17-3.15,0-5.57-2.3-5.57-6,0-3.89,2.54-6.17,5.76-6.17S406,185.61,406,189.16Zm-9.21.12c0,2.54,1.46,4.46,3.52,4.46s3.53-1.89,3.53-4.51c0-2-1-4.46-3.48-4.46S396.79,187.07,396.79,189.28Z"/><path d="M408.67,178h2.11v17h-2.11Z"/><path d="M415.51,189.64a3.71,3.71,0,0,0,4,4,7.63,7.63,0,0,0,3.22-.6l.36,1.52a9.56,9.56,0,0,1-3.87.72c-3.57,0-5.71-2.36-5.71-5.86s2.06-6.27,5.45-6.27c3.79,0,4.8,3.34,4.8,5.48a9,9,0,0,1-.07,1Zm6.19-1.51c0-1.35-.55-3.43-2.93-3.43-2.14,0-3.07,2-3.24,3.43Z"/><path d="M625.24,110.55,620,94.38h2.25l2.52,8c.7,2.18,1.3,4.15,1.73,6h0c.46-1.87,1.13-3.91,1.85-6l2.73-8h2.24l-5.79,16.17Z"/><path d="M637,95.67a1.24,1.24,0,0,1-1.34,1.3,1.26,1.26,0,0,1-1.27-1.3,1.29,1.29,0,0,1,1.32-1.32A1.25,1.25,0,0,1,637,95.67Zm-2.35,14.88V98.94h2.11v11.61Z"/><path d="M641.41,105.13a3.72,3.72,0,0,0,4,4,7.54,7.54,0,0,0,3.21-.6l.36,1.51a9.3,9.3,0,0,1-3.86.72c-3.58,0-5.71-2.35-5.71-5.85s2.06-6.27,5.45-6.27c3.79,0,4.8,3.34,4.8,5.48a6.7,6.7,0,0,1-.08,1Zm6.2-1.51c0-1.35-.56-3.44-2.93-3.44-2.14,0-3.08,2-3.24,3.44Z"/><path d="M653.1,98.94l1.54,5.9c.33,1.3.65,2.5.86,3.7h.07c.27-1.18.65-2.43,1-3.67l1.89-5.93h1.78l1.8,5.81c.43,1.39.77,2.61,1,3.79h.07a35.36,35.36,0,0,1,.89-3.77l1.66-5.83h2.08l-3.74,11.61h-1.92L660.37,105c-.4-1.3-.74-2.45-1-3.82h-.05a31.54,31.54,0,0,1-1,3.84l-1.87,5.52h-1.92l-3.51-11.61Z"/><path d="M672.28,95.67a1.31,1.31,0,0,1-2.62,0A1.29,1.29,0,0,1,671,94.35,1.26,1.26,0,0,1,672.28,95.67Zm-2.36,14.88V98.94H672v11.61Z"/><path d="M675.54,102.08c0-1.2,0-2.18-.1-3.14h1.88l.12,1.92h0a4.29,4.29,0,0,1,3.85-2.19c1.6,0,4.1,1,4.1,5v6.93h-2.11v-6.69c0-1.87-.7-3.43-2.69-3.43a3,3,0,0,0-2.83,2.16,2.88,2.88,0,0,0-.15,1v7h-2.11Z"/><path d="M698.87,98.94c0,.84-.1,1.77-.1,3.19v6.74c0,2.67-.53,4.3-1.65,5.31a6.19,6.19,0,0,1-4.23,1.39,7.51,7.51,0,0,1-3.86-1l.53-1.61a6.5,6.5,0,0,0,3.4.91c2.16,0,3.75-1.12,3.75-4v-1.3h-.05a4.16,4.16,0,0,1-3.7,2c-2.88,0-4.94-2.45-4.94-5.67,0-3.93,2.57-6.17,5.23-6.17a3.88,3.88,0,0,1,3.63,2h0l.1-1.75Zm-2.19,4.58a2.91,2.91,0,0,0-.12-1,3,3,0,0,0-2.95-2.23c-2,0-3.45,1.7-3.45,4.39,0,2.28,1.15,4.18,3.43,4.18a3.1,3.1,0,0,0,2.93-2.16,3.68,3.68,0,0,0,.16-1.13Z"/><path d="M622.43,127.74l2.28,6.53a30.42,30.42,0,0,1,.94,3h.07c.26-1,.6-1.92,1-3l2.26-6.53h2.21l-4.56,11.61h-2l-4.42-11.61Z"/><path d="M643.43,133.45c0,4.3-3,6.17-5.78,6.17-3.15,0-5.57-2.31-5.57-6,0-3.89,2.54-6.17,5.76-6.17S643.43,129.9,643.43,133.45Zm-9.22.12c0,2.54,1.47,4.46,3.53,4.46s3.53-1.89,3.53-4.51c0-2-1-4.46-3.48-4.46S634.21,131.36,634.21,133.57Z"/><path d="M646.09,122.31h2.11v17h-2.11Z"/><path d="M661.48,136.19c0,1.2,0,2.25.09,3.16H659.7l-.12-1.89h-.05a4.37,4.37,0,0,1-3.84,2.16c-1.82,0-4-1-4-5.09v-6.79h2.12v6.43c0,2.21.67,3.7,2.59,3.7a3,3,0,0,0,2.78-1.92,3.14,3.14,0,0,0,.2-1.08v-7.13h2.11Z"/><path d="M665,130.88c0-1.2,0-2.18-.1-3.14h1.85l.1,1.87h.07a4,4,0,0,1,3.65-2.14,3.45,3.45,0,0,1,3.29,2.33h0a4.89,4.89,0,0,1,1.3-1.51,4,4,0,0,1,2.57-.82c1.54,0,3.82,1,3.82,5v6.84H679.5v-6.57c0-2.23-.81-3.58-2.52-3.58a2.75,2.75,0,0,0-2.5,1.92,3.69,3.69,0,0,0-.16,1.06v7.17h-2.07v-7c0-1.84-.81-3.19-2.42-3.19a2.9,2.9,0,0,0-2.62,2.11,3,3,0,0,0-.17,1v7H665Z"/><path d="M686.17,133.93a3.72,3.72,0,0,0,4,4,7.54,7.54,0,0,0,3.21-.6l.36,1.51a9.3,9.3,0,0,1-3.86.72c-3.58,0-5.71-2.35-5.71-5.85s2.06-6.27,5.44-6.27c3.8,0,4.81,3.34,4.81,5.48a6.7,6.7,0,0,1-.08,1Zm6.19-1.51c0-1.35-.55-3.44-2.92-3.44-2.14,0-3.08,2-3.24,3.44Z"/><path d="M1.82,126.31h8.72v1.75H3.91v5.38H10v1.73H3.91v7.32H1.82Z"/><path d="M15.17,127.6a1.31,1.31,0,0,1-2.62,0,1.29,1.29,0,0,1,1.32-1.32A1.26,1.26,0,0,1,15.17,127.6Zm-2.35,14.89V130.87h2.11v11.62Z"/><path d="M18.43,125.44h2.11v17.05H18.43Z"/><path d="M24.1,134c0-1.2,0-2.18-.1-3.14h1.85l.09,1.87H26a4,4,0,0,1,3.65-2.13A3.43,3.43,0,0,1,33,132.93h0a4.88,4.88,0,0,1,1.3-1.51,3.93,3.93,0,0,1,2.57-.81c1.53,0,3.81,1,3.81,5v6.84H38.62v-6.58c0-2.23-.82-3.58-2.52-3.58a2.74,2.74,0,0,0-2.5,1.92,3.73,3.73,0,0,0-.17,1.06v7.18H31.37v-7c0-1.85-.82-3.2-2.43-3.2a3.17,3.17,0,0,0-2.78,3.15v7H24.1Z"/><line class="cls-3" x1="379.01" y1="173.85" x2="338.2" y2="118"/><line class="cls-3" x1="47.15" y1="134.83" x2="91.18" y2="130.53"/></svg>