<svg id="Layer_1" data-name="Layer 1" xmlns="http://www.w3.org/2000/svg" viewBox="0 0 435.51 280.66"><defs><style>.cls-1,.cls-2,.cls-6{fill:none;}.cls-1,.cls-2,.cls-5,.cls-6,.cls-7{stroke:#000;stroke-miterlimit:10;}.cls-1{stroke-width:0.5px;}.cls-3{fill:#a6a6a6;}.cls-4{fill:#666;}.cls-6{stroke-dasharray:4;}.cls-7{fill:#fcee21;stroke-width:0.3px;}</style></defs><title>Surface scattering geometry</title><polygon class="cls-1" points="435.09 93.92 98.11 92.08 0.41 278.57 337.39 280.41 435.09 93.92"/><line class="cls-2" x1="217.75" y1="185.86" x2="217.75" y2="16.36"/><polygon points="220.5 18.81 217.75 16.68 215 18.81 217.75 12.3 220.5 18.81"/><polygon class="cls-3" points="219.9 18.03 217.75 12.96 217.75 16.37 219.9 18.03"/><polygon class="cls-4" points="215.6 18.03 217.75 12.96 217.75 16.37 215.6 18.03"/><circle class="cls-5" cx="217.63" cy="185.57" r="2.25"/><line class="cls-6" x1="217.5" y1="185.47" x2="61.24" y2="79.84"/><line class="cls-2" x1="217.79" y1="185.57" x2="338.27" y2="37.44"/><polygon class="cls-7" points="356.9 0.6 355.32 10.27 360.27 1.81 356.94 11.03 363.37 3.63 358.4 12.08 366.07 5.98 359.64 13.38 368.3 8.79 360.62 14.88 369.98 11.96 361.31 16.53 371.04 15.39 361.68 18.29 371.46 18.95 361.72 20.08 371.21 22.53 361.44 21.85 370.31 26 360.83 23.54 368.79 29.25 359.92 25.09 366.7 32.16 358.74 26.44 364.11 34.64 357.34 27.55 361.1 36.6 355.75 28.39 357.79 37.98 354.04 28.92 354.28 38.72 352.26 29.13 350.7 38.81 350.47 29.01 347.16 38.23 348.73 28.56 343.78 37.02 347.11 27.8 340.69 35.2 345.65 26.75 337.98 32.85 344.41 25.46 335.75 30.04 343.43 23.95 334.07 26.87 342.75 22.3 333.01 23.44 342.37 20.54 332.6 19.88 342.33 18.75 332.84 16.3 342.62 16.98 333.74 12.83 343.23 15.29 335.26 9.58 344.13 13.75 337.35 6.67 345.31 12.39 339.94 4.19 346.71 11.28 342.95 2.23 348.3 10.44 346.26 0.85 350.01 9.91 349.77 0.11 351.79 9.7 353.36 0.02 353.58 9.82 356.9 0.6"/><path d="M331.62,74.71c0,1.49.84,2.64,2,2.64S336,75.87,336,72.74a7.92,7.92,0,0,0-1.92-5.44v-.08h2a7.55,7.55,0,0,1,2,5.57c0,4.32-2.18,6.32-4.39,6.32a3.14,3.14,0,0,1-3-2.07h-.09a3.27,3.27,0,0,1-3.07,2.07c-2,0-4.25-1.71-4.25-6.13a8.39,8.39,0,0,1,2-5.76h1.94v.08a8.33,8.33,0,0,0-1.92,5.64c0,3.24,1.37,4.41,2.47,4.41s1.92-1.17,1.92-2.61l0-4.44h2Z"/><path d="M341.4,78.16a.72.72,0,0,1-.78.75.73.73,0,0,1-.74-.75.75.75,0,0,1,.77-.77A.72.72,0,0,1,341.4,78.16ZM340,86.83V80.06h1.23v6.77Z"/><path d="M209.92,200.54c0-1.49,0-2.69-.09-3.79h1.89l.1,2h.05a4.55,4.55,0,0,1,4.12-2.26c2.81,0,4.93,2.38,4.93,5.91,0,4.17-2.55,6.24-5.29,6.24a4,4,0,0,1-3.57-1.83H212v6.32h-2.09Zm2.09,3.09a4.62,4.62,0,0,0,.1.87,3.25,3.25,0,0,0,3.16,2.47c2.24,0,3.53-1.82,3.53-4.49,0-2.33-1.22-4.32-3.45-4.32a3.38,3.38,0,0,0-3.2,2.62,3.44,3.44,0,0,0-.14.86Z"/><path class="cls-2" d="M217.53,149.61a35.32,35.32,0,0,1,22.54,8.08"/><path d="M227.83,132.08c0-4.9,2-8.64,5.61-8.64s5.4,3.48,5.4,8.64c0,5.4-1.75,8.93-5.47,8.93C229.94,141,227.83,138,227.83,132.08Zm8.92-.91c0-3.41-1.1-6.17-3.43-6.17-2.13,0-3.41,2.9-3.41,6.17Zm-6.84,1.58c0,4.27,1.44,6.7,3.51,6.7,2.25,0,3.33-2.79,3.33-6.7Z"/><path d="M58.27,96.92c0,1.49.84,2.64,2,2.64s2.42-1.49,2.42-4.61a7.9,7.9,0,0,0-1.92-5.45v-.07h2a7.49,7.49,0,0,1,2,5.57c0,4.32-2.19,6.31-4.4,6.31a3.13,3.13,0,0,1-3-2.06h-.1a3.25,3.25,0,0,1-3.07,2.06c-2,0-4.25-1.7-4.25-6.12a8.39,8.39,0,0,1,2-5.76H53.9v.07A8.35,8.35,0,0,0,52,95.14c0,3.24,1.37,4.42,2.47,4.42s1.92-1.18,1.92-2.62l0-4.44h2Z"/><path d="M72.81,105.6a3.31,3.31,0,0,1-3.38,3.59,3.21,3.21,0,0,1-3.24-3.48,3.31,3.31,0,0,1,3.36-3.6A3.21,3.21,0,0,1,72.81,105.6Zm-5.38.07c0,1.48.86,2.6,2.06,2.6s2.06-1.1,2.06-2.63c0-1.15-.58-2.6-2-2.6S67.43,104.38,67.43,105.67Z"/></svg>