<svg id="Layer_1" data-name="Layer 1" xmlns="http://www.w3.org/2000/svg" viewBox="0 0 435.51 325.66"><defs><style>.cls-1,.cls-6{fill:none;}.cls-1,.cls-2,.cls-3{stroke:#000;}.cls-1,.cls-2,.cls-3,.cls-4,.cls-6{stroke-miterlimit:10;}.cls-1{stroke-width:0.5px;}.cls-3{fill:#fcee21;stroke-width:0.3px;}.cls-4{fill:gray;}.cls-4,.cls-6{stroke:#fcee21;}.cls-5{fill:#b3b3b3;}</style></defs><title>Two lights one blocker</title><polygon class="cls-1" points="435.09 138.92 98.11 137.08 0.41 323.57 337.39 325.41 435.09 138.92"/><circle class="cls-2" cx="217.63" cy="230.57" r="2.25"/><polygon class="cls-3" points="356.9 45.6 355.32 55.27 360.27 46.81 356.94 56.03 363.37 48.63 358.4 57.08 366.07 50.98 359.64 58.38 368.3 53.79 360.62 59.88 369.98 56.96 361.31 61.53 371.04 60.39 361.68 63.29 371.46 63.95 361.72 65.08 371.21 67.53 361.44 66.85 370.31 71 360.83 68.54 368.79 74.25 359.92 70.08 366.7 77.16 358.74 71.44 364.11 79.64 357.34 72.55 361.1 81.6 355.75 73.39 357.79 82.98 354.04 73.92 354.28 83.72 352.26 74.13 350.7 83.81 350.47 74.01 347.16 83.23 348.73 73.56 343.78 82.02 347.11 72.8 340.69 80.2 345.65 71.75 337.98 77.85 344.41 70.46 335.75 75.04 343.43 68.95 334.07 71.87 342.75 67.3 333.01 68.44 342.37 65.54 332.6 64.88 342.33 63.75 332.84 61.3 342.62 61.98 333.74 57.83 343.23 60.29 335.26 54.58 344.13 58.75 337.35 51.67 345.31 57.39 339.94 49.19 346.71 56.28 342.95 47.23 348.3 55.44 346.26 45.85 350.01 54.91 349.77 45.11 351.79 54.7 353.36 45.02 353.58 54.82 356.9 45.6"/><path d="M209.92,245.54c0-1.49,0-2.69-.09-3.79h1.89l.1,2h.05a4.55,4.55,0,0,1,4.12-2.26c2.81,0,4.93,2.38,4.93,5.91,0,4.17-2.55,6.24-5.29,6.24a4,4,0,0,1-3.57-1.83H212v6.32h-2.09Zm2.09,3.09a4.52,4.52,0,0,0,.1.87,3.25,3.25,0,0,0,3.16,2.47c2.24,0,3.53-1.82,3.53-4.49,0-2.33-1.22-4.32-3.45-4.32a3.38,3.38,0,0,0-3.2,2.62,3.44,3.44,0,0,0-.14.86Z"/><line class="cls-4" x1="100.44" y1="19.81" x2="216.87" y2="229.46"/><polygon class="cls-3" points="104.97 0.6 103.39 10.27 108.34 1.81 105.01 11.03 111.44 3.63 106.47 12.08 114.14 5.98 107.71 13.38 116.37 8.79 108.69 14.88 118.05 11.96 109.38 16.53 119.11 15.39 109.75 18.29 119.53 18.95 109.79 20.08 119.28 22.53 109.51 21.85 118.39 26 108.9 23.54 116.86 29.25 107.99 25.09 114.77 32.16 106.81 26.44 112.18 34.64 105.41 27.55 109.17 36.6 103.82 28.39 105.86 37.98 102.11 28.92 102.35 38.72 100.33 29.13 98.77 38.81 98.54 29.01 95.23 38.23 96.81 28.56 91.85 37.02 95.18 27.8 88.76 35.2 93.72 26.75 86.05 32.85 92.48 25.46 83.82 30.04 91.5 23.95 82.15 26.87 90.82 22.3 81.08 23.44 90.44 20.54 80.67 19.88 90.4 18.75 80.91 16.3 90.69 16.98 81.81 12.83 91.3 15.29 83.33 9.58 92.2 13.75 85.42 6.67 93.38 12.39 88.02 4.19 94.78 11.28 91.02 2.23 96.37 10.44 94.33 0.85 98.08 9.91 97.84 0.11 99.86 9.7 101.43 0.02 101.65 9.82 104.97 0.6"/><path class="cls-5" d="M345.46,109.34a13.87,13.87,0,0,0-6.89-9,18.65,18.65,0,0,0-10.74-1.94,63.68,63.68,0,0,0-15.51-1,32.42,32.42,0,0,0-21.81-6,14.92,14.92,0,0,0-2.92.61c-.24-.07-.47-.15-.72-.2a15,15,0,0,0-9.15,1.07c-6.3-3.12-16.59-3.81-18.18,4.91a13.84,13.84,0,0,0,.13,5.64l-1.37-.51c-8.25-3.18-12.58,9.3-5.78,13.71a47.35,47.35,0,0,0,20.7,7.41q13.33,4.27,27,7.48a7.38,7.38,0,0,0,5.05-.75,6.24,6.24,0,0,0,6.73-.6l2.71-1.86a7.84,7.84,0,0,0,1.18-1c6.43,1.09,12.91,1.93,19.41,2.56,3.82.37,6.19-2.24,7-5.37.9,0,1.81-.09,2.71-.16C354.52,123.51,354.56,110.67,345.46,109.34Z"/><line class="cls-6" x1="351.16" y1="65.17" x2="316.87" y2="110.17"/></svg>