<svg id="Layer_1" data-name="Layer 1" xmlns="http://www.w3.org/2000/svg" viewBox="0 0 466.41 298.15"><defs><style>.cls-1,.cls-2,.cls-6{fill:none;}.cls-1,.cls-2,.cls-5,.cls-6{stroke:#000;stroke-miterlimit:10;}.cls-1{stroke-width:0.5px;}.cls-3{fill:#a6a6a6;}.cls-4{fill:#666;}.cls-6{stroke-dasharray:4;}</style></defs><title>Whitted integration setting</title><polygon class="cls-1" points="466 111.42 129.02 109.58 31.32 296.06 368.29 297.9 466 111.42"/><line class="cls-2" x1="248.66" y1="203.35" x2="248.66" y2="33.85"/><polygon points="251.41 36.31 248.66 34.18 245.9 36.31 248.66 29.8 251.41 36.31"/><polygon class="cls-3" points="250.81 35.53 248.66 30.46 248.66 33.86 250.81 35.53"/><polygon class="cls-4" points="246.51 35.53 248.66 30.46 248.66 33.86 246.51 35.53"/><circle class="cls-5" cx="248.54" cy="203.06" r="2.25"/><line class="cls-6" x1="248.4" y1="202.97" x2="0.28" y2="35"/><path d="M243.06,217.36c0-1.48-.05-2.68-.09-3.79h1.89l.1,2h0a4.56,4.56,0,0,1,4.12-2.25c2.81,0,4.93,2.37,4.93,5.9,0,4.18-2.55,6.24-5.29,6.24a4.06,4.06,0,0,1-3.57-1.82h0v6.31h-2.09Zm2.09,3.1a4.51,4.51,0,0,0,.1.86,3.25,3.25,0,0,0,3.16,2.48c2.24,0,3.53-1.83,3.53-4.49,0-2.33-1.22-4.32-3.45-4.32a3.38,3.38,0,0,0-3.2,2.61,3.59,3.59,0,0,0-.14.87Z"/><path d="M137.08,147.79c0,1.48.84,2.64,2,2.64s2.42-1.49,2.42-4.61a7.9,7.9,0,0,0-1.92-5.45v-.07h2a7.49,7.49,0,0,1,2,5.57c0,4.32-2.18,6.31-4.39,6.31a3.12,3.12,0,0,1-3-2.07h-.1a3.24,3.24,0,0,1-3.07,2.07c-2,0-4.25-1.71-4.25-6.12a8.37,8.37,0,0,1,2-5.76h1.95v.07A8.35,8.35,0,0,0,130.8,146c0,3.24,1.36,4.42,2.47,4.42s1.92-1.18,1.92-2.62l-.05-4.44h2Z"/><path d="M151.63,156.46a3.31,3.31,0,0,1-3.38,3.6,3.21,3.21,0,0,1-3.24-3.48,3.31,3.31,0,0,1,3.35-3.6A3.21,3.21,0,0,1,151.63,156.46Zm-5.38.08c0,1.48.86,2.6,2.06,2.6s2.06-1.11,2.06-2.63c0-1.15-.58-2.61-2-2.61S146.25,155.25,146.25,156.54Z"/><path d="M243.61,11.62c0-1.2,0-2.19-.09-3.15h1.87l.12,1.92h.05a4.27,4.27,0,0,1,3.84-2.18c1.6,0,4.1,1,4.1,4.94v6.94h-2.11v-6.7c0-1.87-.7-3.43-2.69-3.43a3,3,0,0,0-2.83,2.16,2.88,2.88,0,0,0-.15,1v7h-2.11Z"/><line class="cls-2" x1="248.26" y1="202.84" x2="160.31" y2="143.33"/><polygon points="167.46 141.52 160.85 143.69 161.29 150.64 153.6 138.78 167.46 141.52"/><polygon class="cls-3" points="165.5 141.64 154.69 139.52 160.33 143.34 165.5 141.64"/><polygon class="cls-4" points="160.68 148.76 154.69 139.52 160.33 143.34 160.68 148.76"/><line class="cls-2" x1="0.48" y1="35.17" x2="67.07" y2="80.26"/><polygon points="59.92 82.06 66.53 79.89 66.09 72.94 73.78 84.8 59.92 82.06"/><polygon class="cls-3" points="61.88 81.94 72.69 84.06 67.05 80.25 61.88 81.94"/><polygon class="cls-4" points="66.7 74.82 72.69 84.06 67.05 80.25 66.7 74.82"/></svg>