<?xml version="1.0" encoding="UTF-8" standalone="no"?>
<!-- Created with Inkscape (http://www.inkscape.org/) -->

<svg
   version="1.1"
   id="svg1"
   width="192.66667"
   height="126.6"
   viewBox="0 0 192.66667 126.6"
   sodipodi:docname="pha03f10.eps"
   xmlns:inkscape="http://www.inkscape.org/namespaces/inkscape"
   xmlns:sodipodi="http://sodipodi.sourceforge.net/DTD/sodipodi-0.dtd"
   xmlns="http://www.w3.org/2000/svg"
   xmlns:svg="http://www.w3.org/2000/svg">
  <defs
     id="defs1" />
  <sodipodi:namedview
     id="namedview1"
     pagecolor="#ffffff"
     bordercolor="#000000"
     borderopacity="0.25"
     inkscape:showpageshadow="2"
     inkscape:pageopacity="0.0"
     inkscape:pagecheckerboard="0"
     inkscape:deskcolor="#d1d1d1">
    <inkscape:page
       x="0"
       y="0"
       inkscape:label="1"
       id="page1"
       width="192.66667"
       height="126.6"
       margin="0"
       bleed="0" />
  </sodipodi:namedview>
  <g
     id="g1"
     inkscape:groupmode="layer"
     inkscape:label="1">
    <g
       id="group-R5">
      <path
         id="path2"
         d="M 770.191,401.461 H 236.523 V 555.445 H 770.191 V 401.461"
         style="fill:#c8c7c7;fill-opacity:1;fill-rule:nonzero;stroke:none"
         transform="matrix(0.13333333,0,0,-0.13333333,0,126.6)" />
      <path
         id="path3"
         d="M 769.566,401.453 H 19.7422 V 929.742 H 769.566 Z"
         style="fill:none;stroke:#231f20;stroke-width:5;stroke-linecap:butt;stroke-linejoin:miter;stroke-miterlimit:10;stroke-dasharray:none;stroke-opacity:1"
         transform="matrix(0.13333333,0,0,-0.13333333,0,126.6)" />
      <path
         id="path4"
         d="M 237.223,554.828 H 1425.26 V 15.1758 H 237.223 Z"
         style="fill:none;stroke:#231f20;stroke-width:5;stroke-linecap:butt;stroke-linejoin:miter;stroke-miterlimit:10;stroke-dasharray:none;stroke-opacity:1"
         transform="matrix(0.13333333,0,0,-0.13333333,0,126.6)" />
      <path
         id="path5"
         d="m 787.633,555.445 c 0,9.524 -7.715,17.246 -17.246,17.246 -9.512,0 -17.239,-7.722 -17.239,-17.246 0,-9.523 7.727,-17.242 17.239,-17.242 9.531,0 17.246,7.719 17.246,17.242"
         style="fill:#231f20;fill-opacity:1;fill-rule:evenodd;stroke:none"
         transform="matrix(0.13333333,0,0,-0.13333333,0,126.6)" />
      <path
         id="path6"
         d="m 787.633,555.445 c 0,9.524 -7.715,17.246 -17.246,17.246 -9.512,0 -17.239,-7.722 -17.239,-17.246 0,-9.523 7.727,-17.242 17.239,-17.242 9.531,0 17.246,7.719 17.246,17.242 z"
         style="fill:none;stroke:#231f20;stroke-width:5;stroke-linecap:butt;stroke-linejoin:miter;stroke-miterlimit:10;stroke-dasharray:none;stroke-opacity:1"
         transform="matrix(0.13333333,0,0,-0.13333333,0,126.6)" />
      <path
         id="path7"
         d="m 253.766,401.461 c 0,9.519 -7.719,17.238 -17.243,17.238 -9.519,0 -17.242,-7.719 -17.242,-17.238 0,-9.523 7.723,-17.246 17.242,-17.246 9.524,0 17.243,7.723 17.243,17.246"
         style="fill:#231f20;fill-opacity:1;fill-rule:evenodd;stroke:none"
         transform="matrix(0.13333333,0,0,-0.13333333,0,126.6)" />
      <path
         id="path8"
         d="m 253.766,401.461 c 0,9.519 -7.719,17.238 -17.243,17.238 -9.519,0 -17.242,-7.719 -17.242,-17.238 0,-9.523 7.723,-17.246 17.242,-17.246 9.524,0 17.243,7.723 17.243,17.246 z"
         style="fill:none;stroke:#231f20;stroke-width:5;stroke-linecap:butt;stroke-linejoin:miter;stroke-miterlimit:10;stroke-dasharray:none;stroke-opacity:1"
         transform="matrix(0.13333333,0,0,-0.13333333,0,126.6)" />
      <path
         id="path9"
         d="m 36.9805,405.824 c 0,9.528 -7.7188,17.242 -17.2383,17.242 -9.5234,0 -17.2422,-7.714 -17.2422,-17.242 0,-9.519 7.7188,-17.238 17.2422,-17.238 9.5195,0 17.2383,7.719 17.2383,17.238"
         style="fill:#ffffff;fill-opacity:1;fill-rule:evenodd;stroke:none"
         transform="matrix(0.13333333,0,0,-0.13333333,0,126.6)" />
      <path
         id="path10"
         d="m 36.9805,405.824 c 0,9.528 -7.7188,17.242 -17.2383,17.242 -9.5234,0 -17.2422,-7.714 -17.2422,-17.242 0,-9.519 7.7188,-17.238 17.2422,-17.238 9.5195,0 17.2383,7.719 17.2383,17.238 z"
         style="fill:none;stroke:#231f20;stroke-width:5;stroke-linecap:butt;stroke-linejoin:miter;stroke-miterlimit:10;stroke-dasharray:none;stroke-opacity:1"
         transform="matrix(0.13333333,0,0,-0.13333333,0,126.6)" />
      <path
         id="path11"
         d="m 787.633,929.742 c 0,9.52 -7.715,17.246 -17.246,17.246 -9.512,0 -17.239,-7.726 -17.239,-17.246 0,-9.523 7.727,-17.242 17.239,-17.242 9.531,0 17.246,7.719 17.246,17.242"
         style="fill:#ffffff;fill-opacity:1;fill-rule:evenodd;stroke:none"
         transform="matrix(0.13333333,0,0,-0.13333333,0,126.6)" />
      <path
         id="path12"
         d="m 787.633,929.742 c 0,9.52 -7.715,17.246 -17.246,17.246 -9.512,0 -17.239,-7.726 -17.239,-17.246 0,-9.523 7.727,-17.242 17.239,-17.242 9.531,0 17.246,7.719 17.246,17.242 z"
         style="fill:none;stroke:#231f20;stroke-width:5;stroke-linecap:butt;stroke-linejoin:miter;stroke-miterlimit:10;stroke-dasharray:none;stroke-opacity:1"
         transform="matrix(0.13333333,0,0,-0.13333333,0,126.6)" />
      <path
         id="path13"
         d="m 1442.5,555.445 c 0,9.524 -7.72,17.246 -17.24,17.246 -9.52,0 -17.24,-7.722 -17.24,-17.246 0,-9.523 7.72,-17.242 17.24,-17.242 9.52,0 17.24,7.719 17.24,17.242"
         style="fill:#ffffff;fill-opacity:1;fill-rule:evenodd;stroke:none"
         transform="matrix(0.13333333,0,0,-0.13333333,0,126.6)" />
      <path
         id="path14"
         d="m 1442.5,555.445 c 0,9.524 -7.72,17.246 -17.24,17.246 -9.52,0 -17.24,-7.722 -17.24,-17.246 0,-9.523 7.72,-17.242 17.24,-17.242 9.52,0 17.24,7.719 17.24,17.242 z"
         style="fill:none;stroke:#231f20;stroke-width:5;stroke-linecap:butt;stroke-linejoin:miter;stroke-miterlimit:10;stroke-dasharray:none;stroke-opacity:1"
         transform="matrix(0.13333333,0,0,-0.13333333,0,126.6)" />
      <path
         id="path15"
         d="m 253.766,19.7461 c 0,9.5117 -7.719,17.2344 -17.243,17.2344 -9.519,0 -17.242,-7.7227 -17.242,-17.2344 0,-9.5313 7.723,-17.2461 17.242,-17.2461 9.524,0 17.243,7.7148 17.243,17.2461"
         style="fill:#ffffff;fill-opacity:1;fill-rule:evenodd;stroke:none"
         transform="matrix(0.13333333,0,0,-0.13333333,0,126.6)" />
      <path
         id="path16"
         d="m 253.766,19.7461 c 0,9.5117 -7.719,17.2344 -17.243,17.2344 -9.519,0 -17.242,-7.7227 -17.242,-17.2344 0,-9.5313 7.723,-17.2461 17.242,-17.2461 9.524,0 17.243,7.7148 17.243,17.2461 z"
         style="fill:none;stroke:#231f20;stroke-width:5;stroke-linecap:butt;stroke-linejoin:miter;stroke-miterlimit:10;stroke-dasharray:none;stroke-opacity:1"
         transform="matrix(0.13333333,0,0,-0.13333333,0,126.6)" />
    </g>
  </g>
</svg>
