<?xml version="1.0" encoding="UTF-8" standalone="no"?>
<!-- Created with Inkscape (http://www.inkscape.org/) -->

<svg
   version="1.1"
   id="svg1"
   width="144.14667"
   height="37.733334"
   viewBox="0 0 144.14667 37.733334"
   sodipodi:docname="pha03f08.eps"
   xmlns:inkscape="http://www.inkscape.org/namespaces/inkscape"
   xmlns:sodipodi="http://sodipodi.sourceforge.net/DTD/sodipodi-0.dtd"
   xmlns="http://www.w3.org/2000/svg"
   xmlns:svg="http://www.w3.org/2000/svg">
  <defs
     id="defs1" />
  <sodipodi:namedview
     id="namedview1"
     pagecolor="#ffffff"
     bordercolor="#000000"
     borderopacity="0.25"
     inkscape:showpageshadow="2"
     inkscape:pageopacity="0.0"
     inkscape:pagecheckerboard="0"
     inkscape:deskcolor="#d1d1d1">
    <inkscape:page
       x="0"
       y="0"
       inkscape:label="1"
       id="page1"
       width="144.14667"
       height="37.733334"
       margin="0"
       bleed="0" />
  </sodipodi:namedview>
  <g
     id="g1"
     inkscape:groupmode="layer"
     inkscape:label="1">
    <g
       id="group-R5">
      <path
         id="path2"
         d="M 20.3438,111.465 1035.64,238.57"
         style="fill:none;stroke:#231f20;stroke-width:7.5;stroke-linecap:butt;stroke-linejoin:miter;stroke-miterlimit:10;stroke-dasharray:none;stroke-opacity:1"
         transform="matrix(0.13333333,0,0,-0.13333333,0,37.733333)" />
      <path
         id="path3"
         d="m 1025.62,237.313 -14.76,18.582 0.64,0.539 34.42,-8.914 c 11.74,-1.086 23.48,-2.168 35.22,-3.254 -11.12,-3.946 -22.22,-7.883 -33.33,-11.828 l -31.16,-17.129 -0.73,0.257 9.7,21.747"
         style="fill:#231f20;fill-opacity:1;fill-rule:nonzero;stroke:none"
         transform="matrix(0.13333333,0,0,-0.13333333,0,37.733333)" />
      <g
         id="g3"
         aria-label="d&#10;o"
         transform="matrix(1.3333333,0,0,1.3333333,72.5672,9.8953333)">
        <path
           id="path4"
           d="m 4.7923734,-0.49278906 -0.234375,-0.0351563 C 4.2064359,-0.56310156 4.1478422,-0.59825781 4.1478422,-1.1021641 v -5.25 c -0.4101563,0.1289063 -1.0898438,0.2460938 -1.6289063,0.3164063 v 0.2578125 c 0.5859375,0.058594 0.6445313,0.09375 0.6445313,0.6210937 v 1.1484375 c -0.2109375,-0.046875 -0.375,-0.058594 -0.46875,-0.058594 -1.3242188,0 -2.40234376,0.984375 -2.40234376,2.2265625 0,1.31249999 1.01953126,1.94531249 1.78124996,1.94531249 0.09375,0 0.2695313,-0.03515625 0.5390625,-0.19921875 l 0.5507813,-0.33984375 v 0.55078125 c 0.6328125,-0.2109375 1.4179687,-0.31640625 1.6289062,-0.3515625 z M 3.1634672,-0.73888281 c -0.2109375,0.140625 -0.421875,0.2109375 -0.6328125,0.2109375 -0.4804688,0 -1.125,-0.45703125 -1.125,-1.55859379 0,-1.3476562 0.703125,-1.6171875 0.9960937,-1.6171875 0.2929688,0 0.5859375,0.1523438 0.7617188,0.46875 z m 0,0"
           style="fill:#231f20;fill-opacity:1;fill-rule:nonzero;stroke:none" />
        <path
           id="path5"
           d="m -52.116806,13.596078 c -0.820313,0 -1.980469,0.679688 -1.980469,2.15625 0,1.007813 0.738281,1.992188 1.980469,1.992188 0.890625,0 1.945312,-0.691407 1.945312,-2.144532 0,-1.113281 -0.832031,-2.003906 -1.945312,-2.003906 z m -0.09375,0.304688 c 0.785156,0 1.207031,0.84375 1.207031,1.898437 0,1.242188 -0.457031,1.652344 -1.019531,1.652344 -0.738281,0 -1.230469,-0.84375 -1.230469,-1.980469 0,-1.019531 0.480469,-1.570312 1.042969,-1.570312 z m 0,0"
           style="fill:#231f20;fill-opacity:1;fill-rule:nonzero;stroke:none" />
      </g>
      <path
         id="path6"
         d="m 33.1289,110.996 c 0,9.145 -7.4141,16.563 -16.5664,16.563 C 7.41797,127.559 0,120.141 0,110.996 0,101.844 7.41797,94.4297 16.5625,94.4297 c 9.1523,0 16.5664,7.4143 16.5664,16.5663"
         style="fill:#231f20;fill-opacity:1;fill-rule:evenodd;stroke:none"
         transform="matrix(0.13333333,0,0,-0.13333333,0,37.733333)" />
    </g>
  </g>
</svg>
