<?xml version="1.0" encoding="UTF-8" standalone="no"?>
<!-- Created with Inkscape (http://www.inkscape.org/) -->

<svg
   version="1.1"
   id="svg1"
   width="180.66667"
   height="137.46667"
   viewBox="0 0 180.66667 137.46667"
   sodipodi:docname="pha03f04.eps"
   xmlns:inkscape="http://www.inkscape.org/namespaces/inkscape"
   xmlns:sodipodi="http://sodipodi.sourceforge.net/DTD/sodipodi-0.dtd"
   xmlns="http://www.w3.org/2000/svg"
   xmlns:svg="http://www.w3.org/2000/svg">
  <defs
     id="defs1" />
  <sodipodi:namedview
     id="namedview1"
     pagecolor="#ffffff"
     bordercolor="#000000"
     borderopacity="0.25"
     inkscape:showpageshadow="2"
     inkscape:pageopacity="0.0"
     inkscape:pagecheckerboard="0"
     inkscape:deskcolor="#d1d1d1">
    <inkscape:page
       x="0"
       y="0"
       inkscape:label="1"
       id="page1"
       width="180.66667"
       height="137.46667"
       margin="0"
       bleed="0" />
  </sodipodi:namedview>
  <g
     id="g1"
     inkscape:groupmode="layer"
     inkscape:label="1">
    <g
       id="group-R5">
      <path
         id="path2"
         d="M 34.1523,155.035 407.188,268.918"
         style="fill:none;stroke:#231f20;stroke-width:7.5;stroke-linecap:butt;stroke-linejoin:miter;stroke-miterlimit:10;stroke-dasharray:none;stroke-opacity:1"
         transform="matrix(0.13333333,0,0,-0.13333333,0,137.46667)" />
      <path
         id="path3"
         d="m 397.527,265.969 -17.703,15.789 0.528,0.637 35.441,-2.907 c 11.746,0.946 23.5,1.883 35.254,2.821 -10.277,-5.789 -20.551,-11.571 -30.817,-17.356 l -27.781,-22.199 -0.761,0.125 5.839,23.09"
         style="fill:#231f20;fill-opacity:1;fill-rule:nonzero;stroke:none"
         transform="matrix(0.13333333,0,0,-0.13333333,0,137.46667)" />
      <path
         id="path4"
         d="m 451.418,284.258 -8.004,12.683"
         style="fill:none;stroke:#231f20;stroke-width:5;stroke-linecap:butt;stroke-linejoin:miter;stroke-miterlimit:10;stroke-dasharray:none;stroke-opacity:1"
         transform="matrix(0.13333333,0,0,-0.13333333,0,137.46667)" />
      <path
         id="path5"
         d="M 432.805,313.762 119.766,809.949"
         style="fill:none;stroke:#231f20;stroke-width:5;stroke-linecap:butt;stroke-linejoin:miter;stroke-miterlimit:10;stroke-dasharray:29.8311, 19.8874;stroke-dashoffset:0;stroke-opacity:1"
         transform="matrix(0.13333333,0,0,-0.13333333,0,137.46667)" />
      <path
         id="path6"
         d="m 114.457,818.355 -8.004,12.688"
         style="fill:none;stroke:#231f20;stroke-width:5;stroke-linecap:butt;stroke-linejoin:miter;stroke-miterlimit:10;stroke-dasharray:none;stroke-opacity:1"
         transform="matrix(0.13333333,0,0,-0.13333333,0,137.46667)" />
      <g
         id="g6"
         aria-label="v&#10;w&#10;w – v"
         transform="matrix(1.3333333,0,0,1.3333333,44.941733,114.81453)">
        <path
           id="path7"
           d="m 2.4020984,-2.2017203 h -0.890625 v 0.1523437 c 0.2695313,0.035156 0.3046875,0.09375 0.234375,0.2929688 -0.1054687,0.3398437 -0.2695312,0.79687499 -0.3984375,1.08984374 -0.09375,-0.2578125 -0.28125,-0.77343754 -0.41015621,-1.11328124 -0.0703125,-0.1875 -0.046875,-0.234375 0.19921871,-0.2695313 v -0.1523437 h -1.16015621 v 0.1523437 c 0.24609375,0.046875 0.3046875,0.09375 0.3984375,0.3398438 0.24609375,0.5742187 0.46875,1.14843749 0.71484371,1.76953124 h 0.1757813 c 0.28125,-0.76171875 0.5390625,-1.35937504 0.7148437,-1.75781254 0.1171875,-0.2578125 0.1757813,-0.3164062 0.421875,-0.3515625 z M -30.214113,-58.911681 h -0.914062 v 0.152344 c 0.316406,0.04687 0.339844,0.09375 0.292969,0.304687 -0.07031,0.269531 -0.222657,0.75 -0.304688,1.03125 h -0.01172 c -0.199218,-0.503906 -0.398437,-0.984375 -0.574218,-1.464844 h -0.175782 c -0.199218,0.515625 -0.363281,0.996094 -0.539062,1.441407 h -0.01172 c -0.105469,-0.339844 -0.222656,-0.703125 -0.328125,-1.042969 -0.05859,-0.1875 -0.03516,-0.222656 0.269531,-0.269531 v -0.152344 h -1.171875 v 0.152344 c 0.222657,0.02344 0.269532,0.07031 0.351563,0.316406 0.199219,0.574219 0.398437,1.183594 0.597656,1.792969 h 0.175781 c 0.1875,-0.503907 0.375,-0.984375 0.5625,-1.453125 0.199219,0.480468 0.398438,0.949218 0.597657,1.453125 h 0.164062 c 0.246094,-0.703125 0.457031,-1.324219 0.632813,-1.757813 0.105468,-0.269531 0.140625,-0.316406 0.386718,-0.351562 z m 31.13964894,19.092773 h -0.9140625 v 0.152344 c 0.31640625,0.04687 0.33984375,0.09375 0.29296875,0.304687 -0.0703125,0.269532 -0.22265625,0.75 -0.3046875025,1.03125 H -0.01196406 c -0.19921875,-0.503906 -0.3984375,-0.984375 -0.57421875,-1.464843 h -0.17578125 c -0.19921875,0.515625 -0.36328124,0.996093 -0.53906254,1.441406 h -0.011719 c -0.1054688,-0.339844 -0.2226563,-0.703125 -0.328125,-1.042969 -0.058594,-0.1875 -0.035156,-0.222656 0.2695312,-0.269531 v -0.152344 h -1.171875 v 0.152344 c 0.2226563,0.02344 0.2695313,0.07031 0.3515625,0.316406 0.1992188,0.574219 0.3984375,1.183594 0.5976563,1.792969 h 0.1757812 c 0.1875,-0.503906 0.375,-0.984375 0.56250004,-1.453125 0.19921875,0.480469 0.3984375,0.949219 0.59765625,1.453125 h 0.1640625 c 0.24609375,-0.703125 0.45703125,-1.324219 0.6328125,-1.757813 0.10546875,-0.269531 0.140625,-0.316406 0.38671875,-0.351562 z m 0,0"
           style="fill:#231f20;fill-opacity:1;fill-rule:nonzero;stroke:none" />
        <path
           id="path8"
           d="m 8.9147937,-39.42047 v -0.46875 H 5.1413562 v 0.46875 z m 0,0"
           style="fill:#231f20;fill-opacity:1;fill-rule:nonzero;stroke:none" />
        <path
           id="path9"
           d="m 14.803466,-41.57672 h -1.605469 v 0.257812 c 0.492187,0.08203 0.539062,0.1875 0.421875,0.539063 -0.199219,0.609375 -0.480469,1.429687 -0.714844,1.957031 -0.175781,-0.46875 -0.515625,-1.371094 -0.738281,-2.003906 -0.128906,-0.339844 -0.09375,-0.410157 0.351562,-0.492188 v -0.257812 h -2.085937 v 0.257812 c 0.457031,0.09375 0.550781,0.1875 0.726562,0.621094 0.433594,1.042969 0.84375,2.074219 1.277344,3.175781 h 0.316406 c 0.515625,-1.359375 0.972657,-2.4375 1.289063,-3.152344 0.210937,-0.46875 0.304687,-0.5625 0.761719,-0.644531 z m 0,0"
           style="fill:#231f20;fill-opacity:1;fill-rule:nonzero;stroke:none" />
      </g>
      <path
         id="path10"
         d="M 773.418,155.254 1146.46,269.129"
         style="fill:none;stroke:#231f20;stroke-width:7.5;stroke-linecap:butt;stroke-linejoin:miter;stroke-miterlimit:10;stroke-dasharray:none;stroke-opacity:1"
         transform="matrix(0.13333333,0,0,-0.13333333,0,137.46667)" />
      <path
         id="path11"
         d="m 1136.8,266.18 -17.71,15.785 0.53,0.64 35.44,-2.906 c 11.75,0.942 23.5,1.879 35.25,2.817 -10.27,-5.782 -20.54,-11.567 -30.82,-17.352 l -27.77,-22.203 -0.76,0.129 5.84,23.09"
         style="fill:#231f20;fill-opacity:1;fill-rule:nonzero;stroke:none"
         transform="matrix(0.13333333,0,0,-0.13333333,0,137.46667)" />
      <path
         id="path12"
         d="m 1095.35,330.418 -6.59,13.477"
         style="fill:none;stroke:#231f20;stroke-width:5;stroke-linecap:butt;stroke-linejoin:miter;stroke-miterlimit:10;stroke-dasharray:none;stroke-opacity:1"
         transform="matrix(0.13333333,0,0,-0.13333333,0,137.46667)" />
      <path
         id="path13"
         d="M 1079.82,362.164 860.879,809.883"
         style="fill:none;stroke:#231f20;stroke-width:5;stroke-linecap:butt;stroke-linejoin:miter;stroke-miterlimit:10;stroke-dasharray:30.5132, 20.3421;stroke-dashoffset:0;stroke-opacity:1"
         transform="matrix(0.13333333,0,0,-0.13333333,0,137.46667)" />
      <path
         id="path14"
         d="m 856.418,819.016 -6.594,13.476"
         style="fill:none;stroke:#231f20;stroke-width:5;stroke-linecap:butt;stroke-linejoin:miter;stroke-miterlimit:10;stroke-dasharray:none;stroke-opacity:1"
         transform="matrix(0.13333333,0,0,-0.13333333,0,137.46667)" />
      <g
         id="g14"
         aria-label="v&#10;w&#10;w – v"
         transform="matrix(1.3333333,0,0,1.3333333,148.81333,114.12453)">
        <path
           id="path15"
           d="m 2.4017188,-2.202775 h -0.890625 v 0.1523438 c 0.2695312,0.035156 0.3046875,0.09375 0.234375,0.2929687 C 1.64,-1.4176187 1.4759375,-0.9605875 1.3470313,-0.66761875 1.2532813,-0.92543125 1.0657813,-1.4410562 0.936875,-1.7809 0.8665625,-1.9684 0.89,-2.015275 1.1360938,-2.0504312 V -2.202775 h -1.1601563 v 0.1523438 c 0.24609375,0.046875 0.3046875,0.09375 0.3984375,0.3398437 0.24609375,0.5742188 0.46875,1.1484375 0.7148438,1.76953125 H 1.265 C 1.54625,-0.702775 1.8040625,-1.3004312 1.9798438,-1.6988687 2.0970313,-1.9566812 2.155625,-2.015275 2.4017188,-2.0504312 Z M -33.935195,-60.333634 h -0.914063 v 0.152343 c 0.316406,0.04687 0.339844,0.09375 0.292969,0.304688 -0.07031,0.269531 -0.222656,0.75 -0.304688,1.03125 h -0.01172 c -0.199219,-0.503906 -0.398438,-0.984375 -0.574219,-1.464844 h -0.175781 c -0.199219,0.515625 -0.363282,0.996094 -0.539063,1.441406 h -0.01172 c -0.105468,-0.339843 -0.222656,-0.703125 -0.328125,-1.042968 -0.05859,-0.1875 -0.03516,-0.222657 0.269532,-0.269532 v -0.152343 h -1.171875 v 0.152343 c 0.222656,0.02344 0.269531,0.07031 0.351562,0.316407 0.199219,0.574218 0.398438,1.183593 0.597656,1.792968 h 0.175782 c 0.1875,-0.503906 0.375,-0.984375 0.5625,-1.453125 0.199218,0.480469 0.398437,0.949219 0.597656,1.453125 h 0.164062 c 0.246094,-0.703125 0.457032,-1.324218 0.632813,-1.757812 0.105469,-0.269531 0.140625,-0.316406 0.386719,-0.351563 z m 24.9462887,17.493164 h -0.9140625 v 0.152343 c 0.3164063,0.04687 0.3398438,0.09375 0.2929688,0.304688 -0.070312,0.269531 -0.2226563,0.75 -0.3046875,1.03125 h -0.011719 c -0.1992185,-0.503906 -0.3984375,-0.984375 -0.5742185,-1.464844 h -0.175781 c -0.199219,0.515625 -0.363281,0.996094 -0.539063,1.441406 h -0.01172 c -0.105469,-0.339843 -0.222657,-0.703125 -0.328125,-1.042968 -0.05859,-0.1875 -0.03516,-0.222657 0.269531,-0.269532 v -0.152343 h -1.171875 v 0.152343 c 0.222656,0.02344 0.269531,0.07031 0.351562,0.316407 0.199219,0.574218 0.398438,1.183593 0.597657,1.792968 h 0.175781 c 0.1875,-0.503906 0.375,-0.984375 0.5625,-1.453125 0.199219,0.480469 0.398437,0.949219 0.597656,1.453125 h 0.164063 c 0.246093,-0.703125 0.4570305,-1.324218 0.6328118,-1.757812 0.1054687,-0.269531 0.140625,-0.316406 0.3867187,-0.351563 z m 0,0"
           style="fill:#231f20;fill-opacity:1;fill-rule:nonzero;stroke:none" />
        <path
           id="path16"
           d="m -1.0025781,-42.442033 v -0.46875 h -3.7734375 v 0.46875 z m 0,0"
           style="fill:#231f20;fill-opacity:1;fill-rule:nonzero;stroke:none" />
        <path
           id="path17"
           d="M 4.8890234,-44.598283 H 3.2835547 v 0.257813 c 0.4921875,0.08203 0.5390625,0.1875 0.421875,0.539062 -0.1992188,0.609375 -0.4804688,1.429688 -0.7148438,1.957031 -0.1757812,-0.46875 -0.515625,-1.371093 -0.7382812,-2.003906 -0.1289063,-0.339844 -0.09375,-0.410156 0.3515625,-0.492187 v -0.257813 H 0.51792969 v 0.257813 c 0.45703125,0.09375 0.55078121,0.1875 0.72656251,0.621093 0.4335937,1.042969 0.84375,2.074219 1.2773437,3.175782 h 0.3164063 c 0.515625,-1.359375 0.9726562,-2.4375 1.2890625,-3.152344 0.2109375,-0.46875 0.3046875,-0.5625 0.7617187,-0.644531 z m 0,0"
           style="fill:#231f20;fill-opacity:1;fill-rule:nonzero;stroke:none" />
      </g>
      <path
         id="path18"
         d="M 845.742,829.422 1218.77,943.309"
         style="fill:none;stroke:#231f20;stroke-width:7.5;stroke-linecap:butt;stroke-linejoin:miter;stroke-miterlimit:10;stroke-dasharray:none;stroke-opacity:1"
         transform="matrix(0.13333333,0,0,-0.13333333,0,137.46667)" />
      <path
         id="path19"
         d="m 1209.11,940.359 -17.7,15.786 0.52,0.64 35.44,-2.906 c 11.75,0.941 23.51,1.879 35.26,2.816 -10.28,-5.785 -20.55,-11.566 -30.82,-17.351 l -27.78,-22.203 -0.76,0.129 5.84,23.089"
         style="fill:#231f20;fill-opacity:1;fill-rule:nonzero;stroke:none"
         transform="matrix(0.13333333,0,0,-0.13333333,0,137.46667)" />
      <path
         id="path20"
         d="M 4.3254922,-3.96095 H 2.7200234 v 0.2578125 c 0.4921875,0.082031 0.5390625,0.1875 0.421875,0.5390625 C 2.9426797,-2.5547 2.6614297,-1.7343875 2.4270547,-1.2070438 2.2512734,-1.6757938 1.9114297,-2.5781375 1.6887734,-3.21095 1.5598672,-3.5507938 1.5950234,-3.6211063 2.0403359,-3.7031375 V -3.96095 h -2.08593746 v 0.2578125 c 0.45703125,0.09375 0.55078125,0.1875 0.7265625,0.6210937 C 1.1145547,-2.039075 1.5247109,-1.007825 1.9583047,0.0937375 h 0.3164062 c 0.515625,-1.359375 0.9726563,-2.4375 1.2890625,-3.1523438 0.2109375,-0.46875 0.3046875,-0.5625 0.7617188,-0.6445312 z m 0,0"
         style="fill:#231f20;fill-opacity:1;fill-rule:nonzero;stroke:none"
         aria-label="v"
         transform="matrix(1.3333333,0,0,1.3333333,151.70533,9.9062667)" />
      <path
         id="path21"
         d="m 1194.51,280.688 63.52,630.382"
         style="fill:none;stroke:#231f20;stroke-width:7.5;stroke-linecap:butt;stroke-linejoin:miter;stroke-miterlimit:10;stroke-dasharray:none;stroke-opacity:1"
         transform="matrix(0.13333333,0,0,-0.13333333,0,137.46667)" />
      <path
         id="path22"
         d="m 1257.02,901.023 -21.4,-10.23 -0.39,0.734 16.37,31.567 c 3.67,11.199 7.36,22.402 11.03,33.601 1.36,-11.707 2.73,-23.418 4.1,-35.125 l 9.74,-34.199 -0.42,-0.652 -19.03,14.304"
         style="fill:#231f20;fill-opacity:1;fill-rule:nonzero;stroke:none"
         transform="matrix(0.13333333,0,0,-0.13333333,0,137.46667)" />
      <path
         id="path23"
         d="m 6.2809063,-3.9601687 h -1.640625 v 0.2578125 c 0.5625,0.09375 0.609375,0.1757812 0.515625,0.5625 C 5.0387188,-2.6476687 4.7691875,-1.7922 4.605125,-1.3000125 H 4.593406 c -0.3632813,-0.890625 -0.7148438,-1.7460937 -1.0429688,-2.625 H 3.2340313 C 2.8941875,-2.9992312 2.5895,-2.1320437 2.2730938,-1.32345 H 2.2496568 C 2.0621568,-1.932825 1.862938,-2.5773562 1.675438,-3.19845 1.5699693,-3.5382937 1.605126,-3.6086062 2.144188,-3.7023562 V -3.9601687 H 0.04653125 v 0.2578125 C 0.44496875,-3.6437625 0.527,-3.5617312 0.67934375,-3.1164187 1.0309063,-2.0851687 1.3941875,-0.995325 1.74575,0.09451875 H 2.0621563 C 2.402,-0.807825 2.730125,-1.651575 3.0816875,-2.5070437 3.43325,-1.651575 3.7965313,-0.79610625 4.1480938,0.09451875 H 4.4527813 C 4.886375,-1.1476687 5.2730938,-2.2726687 5.5895,-3.057825 c 0.1757813,-0.4804687 0.2460938,-0.5625 0.6914063,-0.6445312 z m 0,0"
         style="fill:#231f20;fill-opacity:1;fill-rule:nonzero;stroke:none"
         aria-label="w"
         transform="matrix(1.3333333,0,0,1.3333333,172.29733,23.1396)" />
      <path
         id="path24"
         d="m 38.332,155.035 63.523,630.383"
         style="fill:none;stroke:#231f20;stroke-width:7.5;stroke-linecap:butt;stroke-linejoin:miter;stroke-miterlimit:10;stroke-dasharray:none;stroke-opacity:1"
         transform="matrix(0.13333333,0,0,-0.13333333,0,137.46667)" />
      <path
         id="path25"
         d="m 100.844,775.367 -21.3987,-10.226 -0.3867,0.73 16.3711,31.567 c 3.6758,11.203 7.3473,22.406 11.0233,33.605 1.367,-11.707 2.731,-23.418 4.098,-35.129 l 9.746,-34.195 -0.41,-0.656 -19.043,14.304"
         style="fill:#231f20;fill-opacity:1;fill-rule:nonzero;stroke:none"
         transform="matrix(0.13333333,0,0,-0.13333333,0,137.46667)" />
      <path
         id="path26"
         d="m 775.586,156.48 63.523,630.387"
         style="fill:none;stroke:#231f20;stroke-width:7.5;stroke-linecap:butt;stroke-linejoin:miter;stroke-miterlimit:10;stroke-dasharray:none;stroke-opacity:1"
         transform="matrix(0.13333333,0,0,-0.13333333,0,137.46667)" />
      <path
         id="path27"
         d="m 838.098,776.824 -21.399,-10.234 -0.39,0.73 16.379,31.571 c 3.667,11.199 7.339,22.402 11.023,33.601 1.367,-11.707 2.734,-23.418 4.102,-35.125 l 9.746,-34.199 -0.418,-0.656 -19.043,14.312"
         style="fill:#231f20;fill-opacity:1;fill-rule:nonzero;stroke:none"
         transform="matrix(0.13333333,0,0,-0.13333333,0,137.46667)" />
      <path
         id="path28"
         d="m 2.6939578,1.3232472 c -0.890625,-0.76171876 -1.40625,-2.20312501 -1.40625,-3.75 0,-1.546875 0.515625,-3 1.40625,-3.75 L 2.5416141,-6.3876903 c -1.3242188,0.9023437 -1.91015629,2.3320312 -1.91015629,3.9492187 0,1.62890629 0.58593749,3.08203129 1.91015629,3.9609375 z m 4.3212891,-1.67578126 -0.09375,-0.234375 c -0.09375,0.0585938 -0.2226563,0.10546875 -0.328125,0.10546875 -0.1523438,0 -0.3164063,-0.140625 -0.3164063,-0.55078129 v -1.6640625 c 0,-0.46875 -0.082031,-0.84375 -0.3984375,-1.1015625 -0.1992187,-0.1640625 -0.46875,-0.2460937 -0.7382812,-0.2460937 -0.515625,0.1054687 -1.1015625,0.4570312 -1.3476563,0.6328125 -0.1757812,0.1289062 -0.2929687,0.2226562 -0.2929687,0.3632812 0,0.1992188 0.234375,0.3867188 0.3984375,0.3867188 0.1289062,0 0.2226562,-0.070312 0.2578125,-0.2109375 0.070312,-0.28125 0.1523437,-0.4804688 0.2695312,-0.5976563 0.09375,-0.1054687 0.2226563,-0.1757812 0.4101563,-0.1757812 0.4453125,0 0.75,0.3632812 0.75,1.0195312 v 0.1640625 c -0.1992188,0.1523438 -0.8554688,0.3984375 -1.3945313,0.5742188 -0.4921875,0.1757812 -0.7265625,0.4570312 -0.7265625,0.90234374 0,0.5625 0.4453125,1.08984375 1.078125,1.08984375 0.2695313,0 0.703125,-0.328125 1.0664063,-0.57421875 0.046875,0.15234375 0.09375,0.28125 0.2109375,0.41015625 0.1054687,0.08203125 0.2929687,0.1640625 0.421875,0.1640625 z M 5.5855594,-0.76269031 c -0.1640625,0.1640625 -0.4804688,0.31640625 -0.7148438,0.328125 -0.28125,0 -0.6445312,-0.22265625 -0.6445312,-0.69140629 0,-0.328125 0.1992187,-0.4921875 0.5507812,-0.65625 0.1875,-0.09375 0.6210938,-0.28125 0.8085938,-0.375 z M 7.4752078,-6.1767528 c 0.890625,0.7382812 1.4179688,2.203125 1.4179688,3.75 0,1.54687499 -0.5039063,2.98828124 -1.4179688,3.75 l 0.1640625,0.1992187 c 1.3476563,-0.91406246 1.8984375,-2.33203121 1.8984375,-3.9492187 0,-1.6289063 -0.5507812,-3.0585938 -1.8984375,-3.9609375 z m 75.2255862,7.5 c -0.890625,-0.76171876 -1.40625,-2.20312501 -1.40625,-3.75 0,-1.546875 0.515625,-3 1.40625,-3.75 L 82.54845,-6.3876903 c -1.324219,0.9023437 -1.910156,2.3320312 -1.910156,3.9492187 0,1.62890629 0.585937,3.08203129 1.910156,3.9609375 z m 1.790039,-4.9570313 v -2.7773437 c -0.339844,0.1171875 -0.890625,0.2578125 -1.3125,0.3164062 v 0.2109375 c 0.585937,0.046875 0.597656,0.1054688 0.597656,0.6679688 v 5.00390624 c 0.492188,0.234375 0.949219,0.31640625 1.324219,0.31640625 1.207031,0 2.261719,-0.9375 2.261719,-2.26171879 0,-1.0546875 -0.808594,-1.8867187 -1.78125,-1.8867187 -0.09375,0 -0.222657,0.023437 -0.363282,0.09375 z m 0,0.2695313 c 0.164062,-0.1054688 0.445312,-0.1757813 0.703125,-0.1757813 0.738281,0 1.371094,0.5976563 1.371094,1.6171875 0,1.05468754 -0.480469,1.68750004 -1.21875,1.68750004 -0.480469,-0.0117188 -0.75,-0.328125 -0.808594,-0.50390625 -0.03516,-0.0820313 -0.04687,-0.17578125 -0.04687,-0.30468749 z m 3.612305,-2.8125 c 0.890625,0.7382812 1.417968,2.203125 1.417968,3.75 0,1.54687499 -0.503906,2.98828124 -1.417968,3.75 L 88.2672,1.5224659 c 1.347656,-0.91406246 1.898438,-2.33203121 1.898438,-3.9492187 0,-1.6289063 -0.550782,-3.0585938 -1.898438,-3.9609375 z m 0,0"
         style="fill:#231f20;fill-opacity:1;fill-rule:nonzero;stroke:none"
         aria-label="(a)(b)"
         transform="matrix(1.3333333,0,0,1.3333333,25.5604,133.14583)" />
    </g>
  </g>
</svg>
