<?xml version="1.0" encoding="UTF-8" standalone="no"?>
<!-- Created with Inkscape (http://www.inkscape.org/) -->

<svg
   version="1.1"
   id="svg1"
   width="208.66667"
   height="129.48"
   viewBox="0 0 208.66667 129.48"
   sodipodi:docname="pha03f12.eps"
   xmlns:inkscape="http://www.inkscape.org/namespaces/inkscape"
   xmlns:sodipodi="http://sodipodi.sourceforge.net/DTD/sodipodi-0.dtd"
   xmlns="http://www.w3.org/2000/svg"
   xmlns:svg="http://www.w3.org/2000/svg">
  <defs
     id="defs1" />
  <sodipodi:namedview
     id="namedview1"
     pagecolor="#ffffff"
     bordercolor="#000000"
     borderopacity="0.25"
     inkscape:showpageshadow="2"
     inkscape:pageopacity="0.0"
     inkscape:pagecheckerboard="0"
     inkscape:deskcolor="#d1d1d1">
    <inkscape:page
       x="0"
       y="0"
       inkscape:label="1"
       id="page1"
       width="208.66667"
       height="129.48"
       margin="0"
       bleed="0" />
  </sodipodi:namedview>
  <g
     id="g1"
     inkscape:groupmode="layer"
     inkscape:label="1">
    <g
       id="group-R5">
      <path
         id="path2"
         d="M 886.055,215.461 C 799.258,86.9727 652.258,2.5 485.527,2.5 218.762,2.5 2.5,218.754 2.5,485.527 c 0,266.77 216.262,483.028 483.027,483.028 188.528,0 351.828,-108.008 431.399,-265.512"
         style="fill:none;stroke:#231f20;stroke-width:5;stroke-linecap:butt;stroke-linejoin:miter;stroke-miterlimit:10;stroke-dasharray:none;stroke-opacity:1"
         transform="matrix(0.13333333,0,0,-0.13333333,0,129.48)" />
      <path
         id="path3"
         d="m 916.926,703.043 c 33.023,-65.375 51.629,-139.273 51.629,-217.516 0,-100.039 -30.41,-192.976 -82.5,-270.066"
         style="fill:none;stroke:#231f20;stroke-width:15;stroke-linecap:butt;stroke-linejoin:miter;stroke-miterlimit:10;stroke-dasharray:none;stroke-opacity:1"
         transform="matrix(0.13333333,0,0,-0.13333333,0,129.48)" />
      <path
         id="path4"
         d="M 482.852,486.055 1149.88,816.992"
         style="fill:none;stroke:#231f20;stroke-width:7.5;stroke-linecap:butt;stroke-linejoin:miter;stroke-miterlimit:10;stroke-dasharray:none;stroke-opacity:1"
         transform="matrix(0.13333333,0,0,-0.13333333,0,129.48)" />
      <path
         id="path5"
         d="m 1140.83,812.504 -20.05,12.676 0.42,0.718 35.44,2.93 c 11.44,2.852 22.87,5.699 34.32,8.543 -9.19,-7.387 -18.38,-14.769 -27.57,-22.156 l -23.77,-26.445 h -0.77 l 1.98,23.734"
         style="fill:#231f20;fill-opacity:1;fill-rule:nonzero;stroke:none"
         transform="matrix(0.13333333,0,0,-0.13333333,0,129.48)" />
      <path
         id="path6"
         d="M 1101.98,72.5703 483.328,486.957"
         style="fill:none;stroke:#231f20;stroke-width:7.5;stroke-linecap:butt;stroke-linejoin:miter;stroke-miterlimit:10;stroke-dasharray:none;stroke-opacity:1"
         transform="matrix(0.13333333,0,0,-0.13333333,0,129.48)" />
      <path
         id="path7"
         d="m 1093.59,78.1953 -21.52,-9.9805 0.32,-0.7734 34.76,-7.4805 c 10.98,-4.3046 21.95,-8.6132 32.93,-12.9101 -8.16,8.5156 -16.31,17.0234 -24.47,25.539 l -20.15,29.2972 -0.77,0.097 -1.1,-23.7887"
         style="fill:#231f20;fill-opacity:1;fill-rule:nonzero;stroke:none"
         transform="matrix(0.13333333,0,0,-0.13333333,0,129.48)" />
      <g
         id="g7"
         aria-label="p&#10;s"
         transform="matrix(1.3333333,0,0,1.3333333,60.309867,76.697733)">
        <path
           id="path8"
           d="m 1.5224828,-3.4207609 v -0.7148438 c -0.421875,0.1757813 -0.92578124,0.328125 -1.31249999,0.3984375 v 0.2109375 c 0.5625,0.070312 0.59765625,0.09375 0.59765625,0.6796875 v 4.0664063 c 0,0.5859375 -0.0820313,0.6445312 -0.65625,0.703125 v 0.234375 H 2.2842016 V 1.9229891 C 1.5810766,1.8526766 1.5224828,1.8058016 1.5224828,1.1261141 v -1.18359379 c 0.1171875,0.0703125 0.3632813,0.15234375 0.6210938,0.1640625 1.171875,-0.2109375 2.2382812,-1.08984375 2.2382812,-2.44921871 0,-0.890625 -0.5976562,-1.6992188 -1.59375,-1.6992188 -0.1054687,0 -0.28125,0.046875 -0.4453125,0.140625 z m 0,0.3046875 c 0.2460938,-0.1875 0.609375,-0.3867188 0.9023438,-0.3867188 0.65625,0 1.2070312,0.5390625 1.2070312,1.5117188 0,1.00781246 -0.515625,1.66406246 -1.265625,1.66406246 -0.3046875,0 -0.6445312,-0.15234375 -0.84375,-0.3515625 z m 0,0"
           style="fill:#231f20;fill-opacity:1;fill-rule:nonzero;stroke:none" />
        <path
           id="path9"
           d="m 55.73342,-5.0936125 c 0.726563,0 1.628907,-0.6679687 1.628907,-1.359375 0,-0.3867187 -0.222657,-0.6445312 -0.761719,-1.0546875 -0.316406,-0.2460937 -0.585938,-0.46875 -0.585938,-0.796875 0,-0.3046875 0.234375,-0.5039062 0.492188,-0.5039062 0.304687,0 0.515625,0.1757812 0.703125,0.4101562 0.04687,0.070312 0.105469,0.082031 0.199219,0.035156 0.128906,-0.082031 0.222656,-0.2226563 0.222656,-0.375 0,-0.234375 -0.304688,-0.5039063 -0.703125,-0.5039063 -0.292969,0 -0.726563,0.1875 -0.996094,0.4335938 -0.363281,0.3164062 -0.46875,0.5976562 -0.46875,0.8789062 0,0.4570313 0.375,0.7851563 0.785156,1.0898438 0.421875,0.3398437 0.515625,0.5390625 0.515625,0.7617187 0,0.28125 -0.234375,0.5390625 -0.597656,0.5390625 -0.292969,0 -0.621094,-0.1992187 -0.855469,-0.5507812 -0.04687,-0.058594 -0.117187,-0.082031 -0.234375,-0.023437 -0.152343,0.082031 -0.269531,0.2226562 -0.257812,0.375 0,0.3164062 0.492187,0.6445312 0.914062,0.644531 z m 0,0"
           style="fill:#231f20;fill-opacity:1;fill-rule:nonzero;stroke:none" />
      </g>
      <path
         id="path10"
         d="m 1205.68,842.465 c 51.02,4.121 75.55,-57.195 75.55,-57.195 5.31,-116.692 -28.69,-84.942 -5.77,-94.293 81.47,-33.219 13.67,-263.043 55.32,-275.551 41.65,-12.504 281.65,87.441 222.35,-22.012 -18.29,-33.769 15.64,-374.1835 -23.99,-376.5898 0,0 -30.97,-4.0195 -33.04,9.9531 -8.28,56.1329 14.31,229.3987 6.91,301.1057 -2.49,24.121 -23.78,18.965 -28.24,19.066 -9.49,0.223 -204.08,4.957 -203.1,-71.832 2.13,-165.937 -12.8,-198.2498 -17.75,-229.6365 -4.96,-31.4063 -41.06,-24.5313 -47.83,-17.0313 l 51.16,313.3988 c 0,0 10.74,94.05 -23.71,200.023 -34.47,105.973 -47.2,142.613 -49.83,180.981 l 21.97,119.613"
         style="fill:#c8c7c7;fill-opacity:1;fill-rule:nonzero;stroke:none"
         transform="matrix(0.13333333,0,0,-0.13333333,0,129.48)" />
      <path
         id="path11"
         d="m 1205.68,842.465 c 51.02,4.121 75.55,-57.195 75.55,-57.195 5.31,-116.692 -28.69,-84.942 -5.77,-94.293 81.47,-33.219 13.67,-263.043 55.32,-275.551 41.65,-12.504 281.65,87.441 222.35,-22.012 -18.29,-33.769 15.64,-374.1835 -23.99,-376.5898 0,0 -30.97,-4.0195 -33.04,9.9531 -8.28,56.1329 14.31,229.3987 6.91,301.1057 -2.49,24.121 -23.78,18.965 -28.24,19.066 -9.49,0.223 -204.08,4.957 -203.1,-71.832 2.13,-165.937 -12.8,-198.2498 -17.75,-229.6365 -4.96,-31.4063 -41.06,-24.5313 -47.83,-17.0313 l 51.16,313.3988 c 0,0 10.74,94.05 -23.71,200.023 -34.47,105.973 -47.2,142.613 -49.83,180.981 z"
         style="fill:none;stroke:#231f20;stroke-width:5;stroke-linecap:butt;stroke-linejoin:miter;stroke-miterlimit:10;stroke-dasharray:none;stroke-opacity:1"
         transform="matrix(0.13333333,0,0,-0.13333333,0,129.48)" />
      <path
         id="path12"
         d="m 501.719,489.332 c 0,8.91 -7.227,16.137 -16.133,16.137 -8.906,0 -16.145,-7.227 -16.145,-16.137 0,-8.91 7.239,-16.137 16.145,-16.137 8.906,0 16.133,7.227 16.133,16.137"
         style="fill:#231f20;fill-opacity:1;fill-rule:evenodd;stroke:none"
         transform="matrix(0.13333333,0,0,-0.13333333,0,129.48)" />
      <path
         id="path13"
         d="m 501.719,489.332 c 0,8.91 -7.227,16.137 -16.133,16.137 -8.906,0 -16.145,-7.227 -16.145,-16.137 0,-8.91 7.239,-16.137 16.145,-16.137 8.906,0 16.133,7.227 16.133,16.137 z"
         style="fill:none;stroke:#231f20;stroke-width:10;stroke-linecap:butt;stroke-linejoin:miter;stroke-miterlimit:10;stroke-dasharray:none;stroke-opacity:1"
         transform="matrix(0.13333333,0,0,-0.13333333,0,129.48)" />
    </g>
  </g>
</svg>
