<?xml version="1.0" encoding="UTF-8" standalone="no"?>
<!-- Created with Inkscape (http://www.inkscape.org/) -->

<svg
   version="1.1"
   id="svg1"
   width="185.13333"
   height="90.480003"
   viewBox="0 0 185.13333 90.480003"
   sodipodi:docname="pha03f05.eps"
   xmlns:inkscape="http://www.inkscape.org/namespaces/inkscape"
   xmlns:sodipodi="http://sodipodi.sourceforge.net/DTD/sodipodi-0.dtd"
   xmlns="http://www.w3.org/2000/svg"
   xmlns:svg="http://www.w3.org/2000/svg">
  <defs
     id="defs1" />
  <sodipodi:namedview
     id="namedview1"
     pagecolor="#ffffff"
     bordercolor="#000000"
     borderopacity="0.25"
     inkscape:showpageshadow="2"
     inkscape:pageopacity="0.0"
     inkscape:pagecheckerboard="0"
     inkscape:deskcolor="#d1d1d1">
    <inkscape:page
       x="0"
       y="0"
       inkscape:label="1"
       id="page1"
       width="185.13333"
       height="90.480003"
       margin="0"
       bleed="0" />
  </sodipodi:namedview>
  <g
     id="g1"
     inkscape:groupmode="layer"
     inkscape:label="1">
    <g
       id="group-R5">
      <path
         id="path2"
         d="M 1.54297,557.238 1011.73,100.441"
         style="fill:none;stroke:#231f20;stroke-width:7.5;stroke-linecap:butt;stroke-linejoin:miter;stroke-miterlimit:10;stroke-dasharray:none;stroke-opacity:1"
         transform="matrix(0.13333333,0,0,-0.13333333,0,90.48)" />
      <path
         id="path3"
         d="m 1002.53,104.602 -2.882,23.546 0.822,0.133 24.71,-25.574 c 9.44,-7.0507 18.89,-14.1015 28.34,-21.1601 -11.54,2.4375 -23.07,4.875 -34.6,7.3047 l -35.529,1.6601 -0.493,0.6016 19.632,13.4887"
         style="fill:#231f20;fill-opacity:1;fill-rule:nonzero;stroke:none"
         transform="matrix(0.13333333,0,0,-0.13333333,0,90.48)" />
      <path
         id="path4"
         d="m 1053.52,81.5469 v 15"
         style="fill:none;stroke:#231f20;stroke-width:5;stroke-linecap:butt;stroke-linejoin:miter;stroke-miterlimit:10;stroke-dasharray:none;stroke-opacity:1"
         transform="matrix(0.13333333,0,0,-0.13333333,0,90.48)" />
      <path
         id="path5"
         d="M 1053.52,115.512 V 532.754"
         style="fill:none;stroke:#231f20;stroke-width:5;stroke-linecap:butt;stroke-linejoin:miter;stroke-miterlimit:10;stroke-dasharray:28.4482, 18.9655;stroke-dashoffset:0;stroke-opacity:1"
         transform="matrix(0.13333333,0,0,-0.13333333,0,90.48)" />
      <path
         id="path6"
         d="m 1053.52,542.238 v 15"
         style="fill:none;stroke:#231f20;stroke-width:5;stroke-linecap:butt;stroke-linejoin:miter;stroke-miterlimit:10;stroke-dasharray:none;stroke-opacity:1"
         transform="matrix(0.13333333,0,0,-0.13333333,0,90.48)" />
      <path
         id="path7"
         d="m 1053.52,557.238 h 268.83"
         style="fill:none;stroke:#231f20;stroke-width:7.5;stroke-linecap:butt;stroke-linejoin:miter;stroke-miterlimit:10;stroke-dasharray:none;stroke-opacity:1"
         transform="matrix(0.13333333,0,0,-0.13333333,0,90.48)" />
      <path
         id="path8"
         d="m 1312.26,557.238 -12.33,20.266 0.7,0.461 33.04,-13.129 c 11.52,-2.531 23.03,-5.066 34.54,-7.598 -11.51,-2.535 -23.02,-5.066 -34.54,-7.597 l -33.04,-13.133 -0.7,0.347 12.33,20.383"
         style="fill:#231f20;fill-opacity:1;fill-rule:nonzero;stroke:none"
         transform="matrix(0.13333333,0,0,-0.13333333,0,90.48)" />
      <path
         id="path9"
         d="M 4.3254031,-3.9601903 H 2.7199344 v 0.2578125 c 0.4921875,0.082031 0.5390625,0.1875 0.421875,0.5390625 -0.1992188,0.609375 -0.4804688,1.4296875 -0.7148438,1.9570312 -0.1757812,-0.46875 -0.515625,-1.3710937 -0.7382812,-2.0039062 -0.1289063,-0.3398438 -0.09375,-0.4101563 0.3515625,-0.4921875 v -0.2578125 h -2.08593752 v 0.2578125 c 0.45703125,0.09375 0.55078125,0.1875 0.7265625,0.6210937 0.43359372,1.0429688 0.84375002,2.0742188 1.27734372,3.17578129 h 0.3164063 c 0.515625,-1.35937499 0.9726562,-2.43749999 1.2890625,-3.15234379 0.2109375,-0.46875 0.3046875,-0.5625 0.7617187,-0.6445312 z M 42.481653,-60.488511 h -1.640625 v 0.292969 l 0.246094,0.03516 c 0.292969,0.04687 0.351562,0.117188 0.257812,0.480469 -0.152343,0.609375 -0.410156,1.394531 -0.644531,2.085938 h -0.01172 l -1.125,-2.789063 h -0.351562 l -0.972656,2.765625 h -0.02344 l -0.65625,-2.097656 c -0.09375,-0.351563 -0.05859,-0.386719 0.234375,-0.445313 l 0.210938,-0.03516 v -0.292969 h -2.132813 v 0.28125 c 0.410156,0.05859 0.515625,0.105469 0.703125,0.644532 l 1.148438,3.410156 h 0.316406 l 1.042969,-2.765625 h 0.01172 l 1.148438,2.765625 h 0.328125 c 0.457031,-1.382813 0.855469,-2.554688 1.183594,-3.445313 0.175781,-0.445312 0.246093,-0.539062 0.726562,-0.597656 z m -2.027344,-0.621093 c -0.363281,-0.46875 -0.667968,-0.890625 -0.972656,-1.359375 h -0.269531 c -0.28125,0.457031 -0.585938,0.890625 -0.960938,1.359375 l 0.234375,0.1875 c 0.328125,-0.257813 0.609375,-0.503907 0.867188,-0.738282 0.269531,0.234375 0.539062,0.46875 0.867187,0.738282 z m 0,0"
         style="fill:#231f20;fill-opacity:1;fill-rule:nonzero;stroke:none"
         aria-label="v&#10;Ŵ"
         transform="matrix(1.3333333,0,0,1.3333333,128.19373,86.15916)" />
      <path
         id="path10"
         d="M 1.54297,557.238 H 1007.66"
         style="fill:none;stroke:#231f20;stroke-width:7.5;stroke-linecap:butt;stroke-linejoin:miter;stroke-miterlimit:10;stroke-dasharray:none;stroke-opacity:1"
         transform="matrix(0.13333333,0,0,-0.13333333,0,90.48)" />
      <path
         id="path11"
         d="m 997.559,557.238 -12.325,20.266 0.696,0.461 33.04,-13.129 c 11.52,-2.531 23.03,-5.066 34.55,-7.598 -11.52,-2.535 -23.03,-5.066 -34.55,-7.597 l -33.04,-13.133 -0.696,0.347 12.325,20.383"
         style="fill:#231f20;fill-opacity:1;fill-rule:nonzero;stroke:none"
         transform="matrix(0.13333333,0,0,-0.13333333,0,90.48)" />
      <g
         id="g11"
         aria-label="v&#10;o"
         transform="matrix(1.3333333,0,0,1.3333333,120.08493,9.9049333)">
        <path
           id="path12"
           d="M 4.3249719,-3.95995 H 2.7195031 v 0.2578125 c 0.4921875,0.082031 0.5390625,0.1875 0.421875,0.5390625 C 2.9421594,-2.5537 2.6609094,-1.7333875 2.4265344,-1.2060437 2.2507531,-1.6747937 1.9109094,-2.5771375 1.6882531,-3.20995 1.5593469,-3.5497937 1.5945031,-3.6201062 2.0398156,-3.7021375 V -3.95995 h -2.08593747 v 0.2578125 c 0.45703125,0.09375 0.55078125,0.1875 0.7265625,0.6210938 C 1.1140344,-2.038075 1.5241906,-1.006825 1.9577844,0.0947375 h 0.3164062 c 0.515625,-1.359375 0.9726563,-2.4375 1.2890625,-3.1523437 0.2109375,-0.46875 0.3046875,-0.5625 0.7617188,-0.6445313 z m 0,0"
           style="fill:#231f20;fill-opacity:1;fill-rule:nonzero;stroke:none" />
        <path
           id="path13"
           d="m 4.9021203,-0.69627812 c -0.5507812,0 -1.3125,0.45703125 -1.3125,1.44140625 0,0.66796877 0.4921875,1.32421877 1.3125,1.32421877 0.5976563,0 1.3007813,-0.4570313 1.3007813,-1.42968752 0,-0.73828125 -0.5507813,-1.3359375 -1.3007813,-1.3359375 z m -0.058594,0.19921875 c 0.515625,0 0.8085937,0.57421875 0.8085937,1.27734375 0,0.82031252 -0.3164062,1.08984372 -0.6796875,1.08984372 -0.4921875,0 -0.8203125,-0.5625 -0.8203125,-1.31249997 0,-0.6796875 0.3164063,-1.0546875 0.6914063,-1.0546875 z m 0,0"
           style="fill:#231f20;fill-opacity:1;fill-rule:nonzero;stroke:none" />
      </g>
    </g>
  </g>
</svg>
