<?xml version="1.0" encoding="UTF-8" standalone="no"?>
<!-- Created with Inkscape (http://www.inkscape.org/) -->

<svg
   version="1.1"
   id="svg1"
   width="106.4"
   height="99.026665"
   viewBox="0 0 106.4 99.026665"
   sodipodi:docname="pha03f28.eps"
   xmlns:inkscape="http://www.inkscape.org/namespaces/inkscape"
   xmlns:sodipodi="http://sodipodi.sourceforge.net/DTD/sodipodi-0.dtd"
   xmlns="http://www.w3.org/2000/svg"
   xmlns:svg="http://www.w3.org/2000/svg">
  <defs
     id="defs1" />
  <sodipodi:namedview
     id="namedview1"
     pagecolor="#ffffff"
     bordercolor="#000000"
     borderopacity="0.25"
     inkscape:showpageshadow="2"
     inkscape:pageopacity="0.0"
     inkscape:pagecheckerboard="0"
     inkscape:deskcolor="#d1d1d1">
    <inkscape:page
       x="0"
       y="0"
       inkscape:label="1"
       id="page1"
       width="106.4"
       height="99.026665"
       margin="0"
       bleed="0" />
  </sodipodi:namedview>
  <g
     id="g1"
     inkscape:groupmode="layer"
     inkscape:label="1">
    <g
       id="group-R5">
      <path
         id="path2"
         d="m 463.047,496.102 13.047,7.398"
         style="fill:none;stroke:#231f20;stroke-width:5;stroke-linecap:butt;stroke-linejoin:miter;stroke-miterlimit:10;stroke-dasharray:none;stroke-opacity:1"
         transform="matrix(0.13333333,0,0,-0.13333333,0,99.026667)" />
      <path
         id="path3"
         d="M 494.16,513.75 756.152,662.313"
         style="fill:none;stroke:#231f20;stroke-width:5;stroke-linecap:butt;stroke-linejoin:miter;stroke-miterlimit:10;stroke-dasharray:31.1566, 20.7711;stroke-dashoffset:0;stroke-opacity:1"
         transform="matrix(0.13333333,0,0,-0.13333333,0,99.026667)" />
      <path
         id="path4"
         d="m 765.188,667.441 13.042,7.399"
         style="fill:none;stroke:#231f20;stroke-width:5;stroke-linecap:butt;stroke-linejoin:miter;stroke-miterlimit:10;stroke-dasharray:none;stroke-opacity:1"
         transform="matrix(0.13333333,0,0,-0.13333333,0,99.026667)" />
      <path
         id="path5"
         d="M 20.7227,696.836 V 243.055"
         style="fill:none;stroke:#231f20;stroke-width:7.5;stroke-linecap:butt;stroke-linejoin:miter;stroke-miterlimit:10;stroke-dasharray:none;stroke-opacity:1"
         transform="matrix(0.13333333,0,0,-0.13333333,0,99.026667)" />
      <path
         id="path6"
         d="m 20.7227,686.742 20.2617,-12.328 0.4609,0.691 -13.125,33.047 C 25.7891,719.668 23.2617,731.18 20.7227,742.695 18.1953,731.18 15.6563,719.668 13.125,708.152 L 0,675.105 0.34375,674.414 20.7227,686.742"
         style="fill:#231f20;fill-opacity:1;fill-rule:nonzero;stroke:none"
         transform="matrix(0.13333333,0,0,-0.13333333,0,99.026667)" />
      <path
         id="path7"
         d="M 423.242,473.328 20.7227,243.055"
         style="fill:none;stroke:#231f20;stroke-width:7.5;stroke-linecap:butt;stroke-linejoin:miter;stroke-miterlimit:10;stroke-dasharray:none;stroke-opacity:1"
         transform="matrix(0.13333333,0,0,-0.13333333,0,99.026667)" />
      <path
         id="path8"
         d="m 414.48,468.32 -0.632,-23.715 0.82,-0.054 22.168,27.801 c 8.738,7.918 17.48,15.832 26.211,23.75 -11.25,-3.52 -22.5,-7.039 -33.762,-10.555 l -35.191,-5.016 -0.434,-0.644 20.82,-11.567"
         style="fill:#231f20;fill-opacity:1;fill-rule:nonzero;stroke:none"
         transform="matrix(0.13333333,0,0,-0.13333333,0,99.026667)" />
      <path
         id="path9"
         d="M 484.563,78.2813 20.7227,244.141"
         style="fill:none;stroke:#231f20;stroke-width:7.5;stroke-linecap:butt;stroke-linejoin:miter;stroke-miterlimit:10;stroke-dasharray:none;stroke-opacity:1"
         transform="matrix(0.13333333,0,0,-0.13333333,0,99.026667)" />
      <path
         id="path10"
         d="m 475.059,81.6797 -18.426,-14.9336 0.496,-0.6602 35.539,1.2266 c 11.687,-1.4883 23.379,-2.9805 35.074,-4.4727 -9.988,6.2618 -19.976,12.5274 -29.961,18.7852 l -26.695,23.488 -0.773,-0.093 4.746,-23.3403"
         style="fill:#231f20;fill-opacity:1;fill-rule:nonzero;stroke:none"
         transform="matrix(0.13333333,0,0,-0.13333333,0,99.026667)" />
      <path
         id="path11"
         d="m 797.961,677.012 c 0,9.664 -7.844,17.5 -17.5,17.5 -9.66,0 -17.5,-7.836 -17.5,-17.5 0,-9.672 7.84,-17.5 17.5,-17.5 9.656,0 17.5,7.828 17.5,17.5"
         style="fill:#231f20;fill-opacity:1;fill-rule:evenodd;stroke:none"
         transform="matrix(0.13333333,0,0,-0.13333333,0,99.026667)" />
      <g
         id="g11"
         aria-label="z&#10;“up”/y&#10;x"
         transform="matrix(1.3333333,0,0,1.3333333,51.385467,47.063067)">
        <path
           id="path12"
           d="m 3.7860953,-4.1723 c -0.2226562,0.2460938 -0.3984375,0.3515625 -0.5507812,0.3515625 -0.1523438,0 -0.3046875,-0.011719 -0.7265625,-0.09375 -0.4335938,-0.070312 -0.703125,-0.1054687 -0.9492188,-0.1054687 -0.2226562,0 -0.4453125,0.1875 -0.65624999,0.5273437 -0.140625,0.234375 -0.24609375,0.4453125 -0.375,0.7265625 l 0.234375,0.1054688 C 1.0204703,-3.1176125 1.2314078,-3.4223 1.6532828,-3.4223 c 0.2226563,0 0.6210938,0.023437 0.8554688,0.058594 0.1992187,0.011719 0.3984375,0 0.5507812,-0.035156 -0.8320312,0.890625 -1.875,1.9101563 -2.49609374,2.578125 -0.55078125,0.57421875 -0.48046875,0.83203125 -0.328125,0.90234375 0.046875,0.01171875 0.0703125,-0.0234375 0.10546875,-0.08203125 0.0820313,-0.1171875 0.1875,-0.234375 0.29296875,-0.3046875 0.1171875,-0.0820313 0.26953125,-0.09375 0.55078124,0.046875 0.3984375,0.19921875 0.9140625,0.43359375 1.2070313,0.43359375 0.3867187,0 0.75,-0.26953125 1.2421875,-1.24218745 l -0.1992188,-0.164063 c -0.4101562,0.60937495 -0.6796875,0.7617187 -0.9257812,0.7617187 -0.2226563,0 -0.515625,-0.1171875 -0.8085938,-0.2109375 C 1.4306266,-0.7973 1.1962516,-0.844175 1.0204703,-0.83245625 1.6884391,-1.5355812 2.8720328,-2.719175 3.4462516,-3.375425 3.6923453,-3.6449562 3.8564078,-3.8324562 3.9735953,-3.9730812 Z m 0,0"
           style="fill:#231f20;fill-opacity:1;fill-rule:nonzero;stroke:none" />
        <path
           id="path13"
           d="m -31.50785,-31.474058 c -0.5625,0.140625 -1.171875,0.527344 -1.171875,1.171875 0,0.574219 0.457031,0.914063 0.84375,0.914063 h 0.01172 c 0.152343,0 0.386718,-0.117188 0.386718,-0.351563 0,-0.117187 -0.07031,-0.164062 -0.128906,-0.175781 -0.292969,-0.05859 -0.550781,-0.246094 -0.550781,-0.5625 0,-0.375 0.257812,-0.574219 0.703125,-0.761719 z m 1.570312,0 c -0.5625,0.140625 -1.160156,0.527344 -1.160156,1.171875 0,0.574219 0.457031,0.914063 0.84375,0.914063 h 0.01172 c 0.152344,0 0.386719,-0.117188 0.386719,-0.351563 0,-0.117187 -0.07031,-0.164062 -0.117188,-0.175781 -0.304687,-0.05859 -0.574219,-0.246094 -0.574219,-0.5625 0,-0.375 0.269532,-0.574219 0.703125,-0.761719 z m 0,0"
           style="fill:#231f20;fill-opacity:1;fill-rule:nonzero;stroke:none" />
        <path
           id="path14"
           d="m -26.052772,-26.059995 c -0.246094,0.257812 -0.574219,0.46875 -0.644531,0.46875 -0.07031,0 -0.08203,-0.07031 -0.03516,-0.351563 0.222656,-1.160156 0.457031,-2.167969 0.703125,-3.128906 h -0.09375 l -0.621094,0.234375 c -0.117188,0.550781 -0.222656,1.03125 -0.328125,1.441406 -0.351563,0.65625 -1.359375,1.863281 -1.863281,1.863281 -0.128907,0 -0.210938,-0.152343 -0.105469,-0.597656 0.164062,-0.714844 0.328125,-1.441406 0.492187,-2.15625 0.140625,-0.597656 0.105469,-0.785156 -0.09375,-0.785156 -0.246093,0 -0.808593,0.328125 -1.324218,0.84375 l 0.09375,0.222656 c 0.316406,-0.257812 0.574218,-0.433594 0.632812,-0.433594 0.07031,0 0.08203,0.08203 0.02344,0.304688 -0.164063,0.679687 -0.316407,1.382812 -0.480469,2.074219 -0.234375,0.972656 0.04687,1.136718 0.292969,1.136718 0.222656,0 0.480468,-0.09375 0.726562,-0.28125 0.480469,-0.328125 1.007813,-0.878906 1.453125,-1.464843 h 0.02344 c -0.07031,0.304687 -0.105469,0.480468 -0.175782,0.796875 -0.175781,0.785156 -0.05859,0.949218 0.128907,0.949218 0.28125,0 0.878906,-0.398437 1.3125,-0.914062 z m 2.513672,-3.597657 -0.09375,-0.04687 c -0.210938,0.117188 -0.492188,0.328125 -0.65625,0.527344 l -0.105469,0.410156 c -0.292969,0.105469 -0.621094,0.269532 -0.855469,0.445313 l 0.05859,0.222656 c 0.210938,-0.105469 0.445313,-0.234375 0.726563,-0.328125 -0.328125,1.558594 -0.667969,3.140625 -1.007813,4.710938 -0.128906,0.5625 -0.222656,0.632812 -0.785156,0.738281 l -0.03516,0.234375 2.074218,-0.105469 0.02344,-0.234375 -0.210938,-0.02344 c -0.445312,-0.03516 -0.492187,-0.117188 -0.386718,-0.632813 l 0.246093,-1.265625 c 0.175782,0.07031 0.386719,0.08203 0.539063,0.08203 0.574219,-0.140625 1.21875,-0.539062 1.664062,-1.042968 0.515625,-0.585938 0.773438,-1.265625 0.773438,-1.863282 0,-0.796875 -0.375,-1.242187 -1.300781,-1.242187 -0.246094,0 -0.585938,0.03516 -0.832032,0.105469 z m -0.246094,1.042969 c 0.164063,-0.04687 0.363281,-0.07031 0.515625,-0.07031 0.515625,0 0.9375,0.199218 0.9375,0.996093 0,1.160157 -0.867187,2.367188 -1.511719,2.367188 -0.210937,0 -0.457031,-0.164063 -0.550781,-0.304688 z m 0,0"
           style="fill:#231f20;fill-opacity:1;fill-rule:nonzero;stroke:none" />
        <path
           id="path15"
           d="m -21.268592,-31.415464 c -0.152344,0 -0.386719,0.117187 -0.386719,0.351562 0,0.117188 0.05859,0.164063 0.117188,0.175782 0.304687,0.05859 0.5625,0.257812 0.5625,0.5625 0,0.375 -0.257813,0.585937 -0.703125,0.773437 l 0.09375,0.234375 c 0.574218,-0.152344 1.171875,-0.539062 1.171875,-1.183594 0,-0.574218 -0.46875,-0.914062 -0.855469,-0.914062 z m 1.605469,0 c -0.152344,0 -0.386719,0.117187 -0.386719,0.351562 0,0.117188 0.05859,0.164063 0.117187,0.175782 0.304688,0.05859 0.5625,0.257812 0.5625,0.5625 0,0.375 -0.269531,0.585937 -0.703125,0.773437 l 0.09375,0.234375 c 0.550782,-0.152344 1.171875,-0.539062 1.171875,-1.183594 0,-0.574218 -0.457031,-0.914062 -0.855468,-0.914062 z m 2.958984,0.398437 h -0.503906 l -1.957032,6.386719 h 0.503907 z m 0,0"
           style="fill:#231f20;fill-opacity:1;fill-rule:nonzero;stroke:none" />
        <path
           id="path16"
           d="m -14.342811,-25.708433 c -0.05859,-0.808594 -0.117187,-1.628906 -0.210937,-2.308594 -0.07031,-0.714843 -0.210938,-1.054687 -0.457032,-1.054687 -0.328125,0 -0.773437,0.515625 -1.066406,0.960937 l 0.152344,0.210938 c 0.222656,-0.316406 0.457031,-0.527344 0.527344,-0.527344 0.07031,0 0.117187,0.117188 0.1875,0.5625 0.128906,0.820313 0.269531,2.226563 0.28125,2.929688 -0.445313,0.597656 -1.160157,1.394531 -2.121094,2.015625 l 0.07031,0.199218 0.9375,-0.234375 c 0.503907,-0.5625 1.089844,-1.359375 1.617188,-2.121093 0.480469,-0.667969 1.242187,-1.863282 1.628906,-2.542969 0.234375,-0.398438 0.328125,-0.703125 0.316406,-0.960938 0,-0.292968 -0.152343,-0.492187 -0.351562,-0.492187 -0.152344,0 -0.316406,0.105469 -0.375,0.246094 -0.03516,0.07031 -0.04687,0.164062 -0.01172,0.222656 0.03516,0.105469 0.09375,0.246094 0.09375,0.421875 0.01172,0.65625 -0.820312,1.886719 -1.207031,2.472656 z M 1.9491812,32.815005 C 2.2655875,32.416567 2.4413687,32.29938 2.5234,32.29938 c 0.09375,0 0.1757812,0.128906 0.3046875,0.574218 l 0.3046875,0.9375 c -0.5625,0.832032 -0.984375,1.359375 -1.2421875,1.359375 -0.09375,0 -0.1640625,-0.03516 -0.2109375,-0.09375 -0.046875,-0.05859 -0.09375,-0.09375 -0.140625,-0.09375 -0.1757813,0 -0.3632813,0.210938 -0.3632813,0.421875 -0.011719,0.257813 0.1757813,0.433594 0.4101563,0.433594 0.421875,0 0.84375,-0.433594 1.640625,-1.699219 l 0.28125,0.878907 c 0.1757812,0.5625 0.3632812,0.820312 0.5976562,0.820312 0.3046875,0 0.7265625,-0.328125 1.1367188,-0.972656 L 5.0898062,34.690005 C 4.8085562,35.029848 4.5859,35.20563 4.445275,35.20563 c -0.1523438,0 -0.28125,-0.257813 -0.4570313,-0.820313 L 3.695275,33.482973 c 0.1992187,-0.28125 0.3984375,-0.527343 0.5859375,-0.738281 0.234375,-0.292969 0.4101562,-0.445312 0.5390625,-0.445312 0.082031,0 0.1523437,0.03516 0.2109375,0.105468 0.046875,0.04687 0.082031,0.07031 0.1289062,0.07031 0.140625,0 0.3398438,-0.175781 0.3515625,-0.398438 0,-0.199218 -0.140625,-0.386718 -0.375,-0.386718 -0.3984375,0 -0.7851562,0.386718 -1.5351562,1.476562 L 3.4491812,32.67438 C 3.226525,32.029848 3.1093375,31.690005 2.8632437,31.690005 c -0.2929687,0 -0.6914062,0.386718 -1.0664062,0.9375 z m 0,0"
           style="fill:#231f20;fill-opacity:1;fill-rule:nonzero;stroke:none" />
      </g>
    </g>
  </g>
</svg>
