<?xml version="1.0" encoding="UTF-8" standalone="no"?>
<!-- Created with Inkscape (http://www.inkscape.org/) -->

<svg
   version="1.1"
   id="svg1"
   width="189.53333"
   height="109.77333"
   viewBox="0 0 189.53333 109.77333"
   sodipodi:docname="pha03f03.eps"
   xmlns:inkscape="http://www.inkscape.org/namespaces/inkscape"
   xmlns:sodipodi="http://sodipodi.sourceforge.net/DTD/sodipodi-0.dtd"
   xmlns="http://www.w3.org/2000/svg"
   xmlns:svg="http://www.w3.org/2000/svg">
  <defs
     id="defs1" />
  <sodipodi:namedview
     id="namedview1"
     pagecolor="#ffffff"
     bordercolor="#000000"
     borderopacity="0.25"
     inkscape:showpageshadow="2"
     inkscape:pageopacity="0.0"
     inkscape:pagecheckerboard="0"
     inkscape:deskcolor="#d1d1d1">
    <inkscape:page
       x="0"
       y="0"
       inkscape:label="1"
       id="page1"
       width="189.53333"
       height="109.77333"
       margin="0"
       bleed="0" />
  </sodipodi:namedview>
  <g
     id="g1"
     inkscape:groupmode="layer"
     inkscape:label="1">
    <g
       id="group-R5">
      <path
         id="path2"
         d="M 27.0586,160.242 433.992,284.477"
         style="fill:none;stroke:#231f20;stroke-width:7.5;stroke-linecap:butt;stroke-linejoin:miter;stroke-miterlimit:10;stroke-dasharray:none;stroke-opacity:1"
         transform="matrix(0.13333333,0,0,-0.13333333,0,109.77333)" />
      <path
         id="path3"
         d="m 424.336,281.527 -17.703,15.786 0.523,0.64 35.442,-2.906 c 11.75,0.945 23.5,1.883 35.254,2.82 -10.274,-5.789 -20.547,-11.57 -30.817,-17.355 l -27.773,-22.203 -0.766,0.129 5.84,23.089"
         style="fill:#231f20;fill-opacity:1;fill-rule:nonzero;stroke:none"
         transform="matrix(0.13333333,0,0,-0.13333333,0,109.77333)" />
      <path
         id="path4"
         d="m 361.305,741.168 -7.481,-13.004"
         style="fill:none;stroke:#231f20;stroke-width:5;stroke-linecap:butt;stroke-linejoin:miter;stroke-miterlimit:10;stroke-dasharray:none;stroke-opacity:1"
         transform="matrix(0.13333333,0,0,-0.13333333,0,109.77333)" />
      <path
         id="path5"
         d="M 343.523,710.262 39.6914,182.195"
         style="fill:none;stroke:#231f20;stroke-width:5;stroke-linecap:butt;stroke-linejoin:miter;stroke-miterlimit:10;stroke-dasharray:30.9782, 20.6521;stroke-dashoffset:0;stroke-opacity:1"
         transform="matrix(0.13333333,0,0,-0.13333333,0,109.77333)" />
      <path
         id="path6"
         d="M 34.5391,173.246 27.0586,160.242"
         style="fill:none;stroke:#231f20;stroke-width:5;stroke-linecap:butt;stroke-linejoin:miter;stroke-miterlimit:10;stroke-dasharray:none;stroke-opacity:1"
         transform="matrix(0.13333333,0,0,-0.13333333,0,109.77333)" />
      <g
         id="g6"
         aria-label="v&#10;w&#10;v + w"
         transform="matrix(1.3333333,0,0,1.3333333,53.685467,82.322267)">
        <path
           id="path7"
           d="m 2.4009391,-2.2016609 h -0.890625 v 0.1523437 c 0.2695312,0.035156 0.3046875,0.09375 0.234375,0.2929688 -0.1054688,0.3398437 -0.2695313,0.79687496 -0.3984375,1.08984371 -0.09375,-0.2578125 -0.28125,-0.77343751 -0.41015629,-1.11328121 -0.0703125,-0.1875 -0.046875,-0.234375 0.19921879,-0.2695313 v -0.1523437 h -1.16015629 v 0.1523437 c 0.24609375,0.046875 0.3046875,0.09375 0.3984375,0.3398438 0.24609375,0.5742187 0.46875,1.14843746 0.71484379,1.76953121 h 0.1757812 c 0.28125,-0.76171875 0.5390625,-1.35937501 0.7148438,-1.75781251 0.1171875,-0.2578125 0.1757812,-0.3164062 0.421875,-0.3515625 z M 4.1411734,-49.864747 H 3.2271109 v 0.152344 c 0.3164063,0.04687 0.3398438,0.09375 0.2929688,0.304687 -0.070312,0.269532 -0.2226563,0.75 -0.3046875,1.03125 H 3.2036734 C 3.0044547,-48.880372 2.8052359,-49.360841 2.6294547,-49.841309 H 2.4536734 c -0.1992187,0.515625 -0.3632812,0.996093 -0.5390625,1.441406 h -0.011719 c -0.1054688,-0.339844 -0.2226563,-0.703125 -0.328125,-1.042969 -0.058594,-0.1875 -0.035156,-0.222656 0.2695312,-0.269531 v -0.152344 H 0.67242344 v 0.152344 c 0.22265625,0.02344 0.26953125,0.07031 0.35156246,0.316406 0.1992188,0.574219 0.3984375,1.183594 0.5976563,1.792969 h 0.1757812 c 0.1875,-0.503906 0.375,-0.984375 0.5625,-1.453125 0.1992188,0.480469 0.3984375,0.949219 0.5976563,1.453125 h 0.1640625 c 0.2460937,-0.703125 0.4570312,-1.324219 0.6328125,-1.757813 0.1054687,-0.269531 0.140625,-0.316406 0.3867187,-0.351562 z m -41.9589844,21.673828 h -0.890625 v 0.152344 c 0.269531,0.03516 0.304688,0.09375 0.234375,0.292969 -0.105469,0.339844 -0.269531,0.796875 -0.398437,1.089844 -0.09375,-0.257813 -0.28125,-0.773438 -0.410157,-1.113282 -0.07031,-0.1875 -0.04687,-0.234375 0.199219,-0.269531 v -0.152344 h -1.160156 v 0.152344 c 0.246094,0.04687 0.304687,0.09375 0.398437,0.339844 0.246094,0.574219 0.46875,1.148437 0.714844,1.769531 h 0.175781 c 0.28125,-0.761719 0.539063,-1.359375 0.714844,-1.757812 0.117188,-0.257813 0.175781,-0.316407 0.421875,-0.351563 z m 0,0"
           style="fill:#231f20;fill-opacity:1;fill-rule:nonzero;stroke:none" />
        <path
           id="path8"
           d="m -30.180116,-28.062012 v -0.433594 h -1.875 v -1.875 h -0.527343 v 1.875 h -1.886719 v 0.433594 h 1.886719 v 2.074218 h 0.527343 v -2.074218 z m 0,0"
           style="fill:#231f20;fill-opacity:1;fill-rule:nonzero;stroke:none" />
        <path
           id="path9"
           d="m -22.331483,-29.948731 h -1.640625 v 0.257812 c 0.5625,0.09375 0.609375,0.175782 0.515625,0.5625 -0.117187,0.492188 -0.386719,1.347657 -0.550781,1.839844 h -0.01172 c -0.363281,-0.890625 -0.714844,-1.746094 -1.042969,-2.625 h -0.316406 c -0.339844,0.925781 -0.644531,1.792969 -0.960937,2.601563 h -0.02344 c -0.1875,-0.609375 -0.386719,-1.253907 -0.574219,-1.875 -0.105468,-0.339844 -0.07031,-0.410157 0.46875,-0.503907 v -0.257812 h -2.097656 v 0.257812 c 0.398438,0.05859 0.480469,0.140625 0.632813,0.585938 0.351562,1.03125 0.714843,2.121094 1.066406,3.210937 h 0.316406 c 0.339844,-0.902343 0.667969,-1.746093 1.019531,-2.601562 0.351563,0.855469 0.714844,1.710937 1.066407,2.601562 h 0.304687 c 0.433594,-1.242187 0.820313,-2.367187 1.136719,-3.152343 0.175781,-0.480469 0.246094,-0.5625 0.691406,-0.644532 z m 0,0"
           style="fill:#231f20;fill-opacity:1;fill-rule:nonzero;stroke:none" />
      </g>
      <path
         id="path10"
         d="M 477.852,299.797 373.012,696.832"
         style="fill:none;stroke:#231f20;stroke-width:7.5;stroke-linecap:butt;stroke-linejoin:miter;stroke-miterlimit:10;stroke-dasharray:none;stroke-opacity:1"
         transform="matrix(0.13333333,0,0,-0.13333333,0,109.77333)" />
      <path
         id="path11"
         d="m 375.59,687.07 -16.449,-17.093 -0.621,0.55 4.253,35.301 c -0.488,11.777 -0.98,23.563 -1.468,35.34 5.383,-10.484 10.773,-20.973 16.168,-31.457 l 21.125,-28.602 -0.157,-0.757 -22.851,6.718"
         style="fill:#231f20;fill-opacity:1;fill-rule:nonzero;stroke:none"
         transform="matrix(0.13333333,0,0,-0.13333333,0,109.77333)" />
      <path
         id="path12"
         d="m 967.09,160.242 406.93,124.235"
         style="fill:none;stroke:#231f20;stroke-width:7.5;stroke-linecap:butt;stroke-linejoin:miter;stroke-miterlimit:10;stroke-dasharray:none;stroke-opacity:1"
         transform="matrix(0.13333333,0,0,-0.13333333,0,109.77333)" />
      <path
         id="path13"
         d="m 1364.37,281.527 -17.71,15.786 0.53,0.64 35.44,-2.906 c 11.75,0.945 23.5,1.883 35.25,2.82 -10.27,-5.789 -20.55,-11.57 -30.82,-17.355 l -27.77,-22.203 -0.76,0.129 5.84,23.089"
         style="fill:#231f20;fill-opacity:1;fill-rule:nonzero;stroke:none"
         transform="matrix(0.13333333,0,0,-0.13333333,0,109.77333)" />
      <path
         id="path14"
         d="m 1301.33,741.168 -7.48,-13.004"
         style="fill:none;stroke:#231f20;stroke-width:5;stroke-linecap:butt;stroke-linejoin:miter;stroke-miterlimit:10;stroke-dasharray:none;stroke-opacity:1"
         transform="matrix(0.13333333,0,0,-0.13333333,0,109.77333)" />
      <path
         id="path15"
         d="M 1283.54,710.262 979.719,182.195"
         style="fill:none;stroke:#231f20;stroke-width:5;stroke-linecap:butt;stroke-linejoin:miter;stroke-miterlimit:10;stroke-dasharray:30.9781, 20.6521;stroke-dashoffset:0;stroke-opacity:1"
         transform="matrix(0.13333333,0,0,-0.13333333,0,109.77333)" />
      <path
         id="path16"
         d="m 974.57,173.246 -7.48,-13.004"
         style="fill:none;stroke:#231f20;stroke-width:5;stroke-linecap:butt;stroke-linejoin:miter;stroke-miterlimit:10;stroke-dasharray:none;stroke-opacity:1"
         transform="matrix(0.13333333,0,0,-0.13333333,0,109.77333)" />
      <g
         id="g16"
         aria-label="v&#10;w&#10;v + w"
         transform="matrix(1.3333333,0,0,1.3333333,179.53067,82.322267)">
        <path
           id="path17"
           d="m 2.4027813,-2.2016609 h -0.890625 v 0.1523437 c 0.2695312,0.035156 0.3046875,0.09375 0.234375,0.2929688 C 1.6410625,-1.4165047 1.477,-0.95947344 1.3480938,-0.66650469 1.2543438,-0.92431719 1.0668438,-1.4399422 0.9379375,-1.7797859 0.867625,-1.9672859 0.8910625,-2.0141609 1.1371563,-2.0493172 V -2.2016609 H -0.023 v 0.1523437 c 0.24609375,0.046875 0.3046875,0.09375 0.3984375,0.3398438 0.24609375,0.5742187 0.46875,1.14843746 0.7148438,1.76953121 H 1.2660625 C 1.5473125,-0.70166094 1.805125,-1.2993172 1.9809063,-1.6977547 2.0980938,-1.9555672 2.1566875,-2.0141609 2.4027813,-2.0493172 Z M 3.492625,-48.851075 H 2.5785625 v 0.152344 c 0.3164063,0.04687 0.3398438,0.09375 0.2929688,0.304687 -0.070312,0.269532 -0.2226563,0.75 -0.3046875,1.03125 H 2.555125 C 2.3559063,-47.8667 2.1566875,-48.347169 1.9809063,-48.827637 H 1.805125 c -0.1992187,0.515625 -0.3632812,0.996093 -0.5390625,1.441406 H 1.2543438 C 1.148875,-47.726075 1.0316875,-48.089356 0.92621875,-48.4292 0.867625,-48.6167 0.8910625,-48.651856 1.19575,-48.698731 v -0.152344 H 0.023875 v 0.152344 c 0.22265625,0.02344 0.26953125,0.07031 0.3515625,0.316406 0.19921875,0.574219 0.3984375,1.183594 0.59765625,1.792969 H 1.148875 c 0.1875,-0.503906 0.375,-0.984375 0.5625,-1.453125 0.1992188,0.480469 0.3984375,0.949219 0.5976563,1.453125 h 0.1640625 c 0.2460937,-0.703125 0.4570312,-1.324219 0.6328125,-1.757813 0.1054687,-0.269531 0.140625,-0.316406 0.3867187,-0.351562 z m -41.689453,21.287109 h -0.890625 v 0.152344 c 0.269531,0.03516 0.304687,0.09375 0.234375,0.292969 -0.105469,0.339844 -0.269531,0.796875 -0.398438,1.089844 -0.09375,-0.257813 -0.28125,-0.773438 -0.410156,-1.113282 -0.07031,-0.1875 -0.04687,-0.234375 0.199219,-0.269531 v -0.152344 h -1.160156 v 0.152344 c 0.246093,0.04687 0.304687,0.09375 0.398437,0.339844 0.246094,0.574219 0.46875,1.148437 0.714844,1.769531 h 0.175781 c 0.28125,-0.761719 0.539063,-1.359375 0.714844,-1.757812 0.117187,-0.257813 0.175781,-0.316407 0.421875,-0.351563 z m 0,0"
           style="fill:#231f20;fill-opacity:1;fill-rule:nonzero;stroke:none" />
        <path
           id="path18"
           d="m -30.562062,-27.435059 v -0.433594 h -1.875 v -1.875 h -0.527344 v 1.875 h -1.886719 v 0.433594 h 1.886719 v 2.074218 h 0.527344 v -2.074218 z m 0,0"
           style="fill:#231f20;fill-opacity:1;fill-rule:nonzero;stroke:none" />
        <path
           id="path19"
           d="m -22.71343,-29.321778 h -1.640625 v 0.257812 c 0.5625,0.09375 0.609375,0.175782 0.515625,0.5625 -0.117187,0.492188 -0.386718,1.347657 -0.550781,1.839844 h -0.01172 c -0.363281,-0.890625 -0.714843,-1.746094 -1.042968,-2.625 h -0.316407 c -0.339843,0.925781 -0.644531,1.792969 -0.960937,2.601563 h -0.02344 c -0.1875,-0.609375 -0.386718,-1.253907 -0.574218,-1.875 -0.105469,-0.339844 -0.07031,-0.410157 0.46875,-0.503907 v -0.257812 h -2.097657 v 0.257812 c 0.398438,0.05859 0.480469,0.140625 0.632813,0.585938 0.351562,1.03125 0.714844,2.121094 1.066406,3.210937 h 0.316406 c 0.339844,-0.902343 0.667969,-1.746093 1.019532,-2.601562 0.351562,0.855469 0.714843,1.710937 1.066406,2.601562 h 0.304687 c 0.433594,-1.242187 0.820313,-2.367187 1.136719,-3.152343 0.175781,-0.480469 0.246094,-0.5625 0.691406,-0.644532 z m 0,0"
           style="fill:#231f20;fill-opacity:1;fill-rule:nonzero;stroke:none" />
      </g>
      <path
         id="path20"
         d="M 1417.88,299.797 1313.04,696.832"
         style="fill:none;stroke:#231f20;stroke-width:7.5;stroke-linecap:butt;stroke-linejoin:miter;stroke-miterlimit:10;stroke-dasharray:none;stroke-opacity:1"
         transform="matrix(0.13333333,0,0,-0.13333333,0,109.77333)" />
      <path
         id="path21"
         d="m 1315.62,687.07 -16.45,-17.093 -0.63,0.55 4.26,35.301 c -0.5,11.777 -0.98,23.563 -1.47,35.34 5.39,-10.484 10.77,-20.973 16.16,-31.457 l 21.13,-28.598 -0.15,-0.761 -22.85,6.718"
         style="fill:#231f20;fill-opacity:1;fill-rule:nonzero;stroke:none"
         transform="matrix(0.13333333,0,0,-0.13333333,0,109.77333)" />
      <path
         id="path22"
         d="M 850.547,603.551 1257.47,727.777"
         style="fill:none;stroke:#231f20;stroke-width:7.5;stroke-linecap:butt;stroke-linejoin:miter;stroke-miterlimit:10;stroke-dasharray:none;stroke-opacity:1"
         transform="matrix(0.13333333,0,0,-0.13333333,0,109.77333)" />
      <path
         id="path23"
         d="m 1247.81,724.828 -17.7,15.785 0.52,0.641 35.44,-2.906 c 11.75,0.945 23.51,1.882 35.26,2.82 -10.28,-5.789 -20.55,-11.57 -30.82,-17.355 l -27.78,-22.204 -0.76,0.129 5.84,23.09"
         style="fill:#231f20;fill-opacity:1;fill-rule:nonzero;stroke:none"
         transform="matrix(0.13333333,0,0,-0.13333333,0,109.77333)" />
      <path
         id="path24"
         d="M 967.09,158.086 862.258,555.121"
         style="fill:none;stroke:#231f20;stroke-width:7.5;stroke-linecap:butt;stroke-linejoin:miter;stroke-miterlimit:10;stroke-dasharray:none;stroke-opacity:1"
         transform="matrix(0.13333333,0,0,-0.13333333,0,109.77333)" />
      <path
         id="path25"
         d="m 864.836,545.359 -16.457,-17.093 -0.613,0.55 4.254,35.305 c -0.497,11.777 -0.985,23.559 -1.473,35.336 5.391,-10.484 10.769,-20.973 16.164,-31.453 l 21.133,-28.606 -0.156,-0.757 -22.852,6.718"
         style="fill:#231f20;fill-opacity:1;fill-rule:nonzero;stroke:none"
         transform="matrix(0.13333333,0,0,-0.13333333,0,109.77333)" />
      <g
         id="g25"
         aria-label="v&#10;w&#10;(a)(b)"
         transform="matrix(1.3333333,0,0,1.3333333,158.99867,9.9030667)">
        <path
           id="path26"
           d="M 4.3252187,-3.9614797 H 2.71975 v 0.2578125 c 0.4921875,0.082031 0.5390625,0.1875 0.421875,0.5390625 -0.1992188,0.609375 -0.4804688,1.4296875 -0.7148438,1.9570313 C 2.251,-1.6763234 1.9111562,-2.5786672 1.6885,-3.2114797 1.5595937,-3.5513234 1.59475,-3.6216359 2.0400625,-3.7036672 V -3.9614797 H -0.045875 v 0.2578125 c 0.45703125,0.09375 0.55078125,0.1875 0.7265625,0.6210938 0.4335937,1.0429687 0.84375,2.0742187 1.2773437,3.17578121 H 2.2744375 C 2.7900625,-1.2661672 3.2470937,-2.3442922 3.5635,-3.0591359 c 0.2109375,-0.46875 0.3046875,-0.5625 0.7617187,-0.6445313 z M -35.594703,22.889106 h -1.640625 v 0.257813 c 0.5625,0.09375 0.609375,0.175781 0.515625,0.5625 -0.117188,0.492187 -0.386719,1.347656 -0.550781,1.839843 h -0.01172 c -0.363281,-0.890625 -0.714844,-1.746093 -1.042969,-2.625 h -0.316406 c -0.339844,0.925782 -0.644531,1.792969 -0.960938,2.601563 h -0.02344 c -0.1875,-0.609375 -0.386719,-1.253906 -0.574219,-1.875 -0.105469,-0.339844 -0.07031,-0.410156 0.46875,-0.503906 v -0.257813 h -2.097656 v 0.257813 c 0.398437,0.05859 0.480469,0.140625 0.632812,0.585937 0.351563,1.03125 0.714844,2.121094 1.066407,3.210938 h 0.316406 c 0.339844,-0.902344 0.667969,-1.746094 1.019531,-2.601563 0.351563,0.855469 0.714844,1.710938 1.066406,2.601563 h 0.304688 c 0.433594,-1.242188 0.820312,-2.367188 1.136719,-3.152344 0.175781,-0.480469 0.246093,-0.5625 0.691406,-0.644531 z m 0,0"
           style="fill:#231f20;fill-opacity:1;fill-rule:nonzero;stroke:none" />
        <path
           id="path27"
           d="m -98.011695,72.986762 c -0.890625,-0.761718 -1.40625,-2.203125 -1.40625,-3.75 0,-1.546875 0.515625,-3 1.40625,-3.75 l -0.152344,-0.210937 c -1.324219,0.902344 -1.910161,2.332031 -1.910161,3.949219 0,1.628906 0.585942,3.082031 1.910161,3.960937 z m 4.321289,-1.675781 -0.09375,-0.234375 c -0.09375,0.05859 -0.222657,0.105469 -0.328125,0.105469 -0.152344,0 -0.316407,-0.140625 -0.316407,-0.550781 v -1.664063 c 0,-0.46875 -0.08203,-0.84375 -0.398437,-1.101562 -0.199219,-0.164063 -0.46875,-0.246094 -0.738281,-0.246094 -0.515625,0.105469 -1.101563,0.457031 -1.347657,0.632812 -0.175781,0.128907 -0.292968,0.222657 -0.292968,0.363282 0,0.199218 0.234375,0.386718 0.398437,0.386718 0.128906,0 0.222656,-0.07031 0.257813,-0.210937 0.07031,-0.28125 0.152343,-0.480469 0.269531,-0.597656 0.09375,-0.105469 0.222656,-0.175782 0.410156,-0.175782 0.445313,0 0.75,0.363282 0.75,1.019532 v 0.164062 c -0.199219,0.152344 -0.855469,0.398438 -1.394531,0.574219 -0.492188,0.175781 -0.726563,0.457031 -0.726563,0.902344 0,0.5625 0.445313,1.089843 1.078125,1.089843 0.269532,0 0.703125,-0.328125 1.066407,-0.574218 0.04687,0.152343 0.09375,0.28125 0.210937,0.410156 0.105469,0.08203 0.292969,0.164062 0.421875,0.164062 z m -1.429688,-0.410156 c -0.164062,0.164062 -0.480469,0.316406 -0.714844,0.328125 -0.28125,0 -0.644531,-0.222656 -0.644531,-0.691406 0,-0.328125 0.199219,-0.492188 0.550781,-0.65625 0.1875,-0.09375 0.621094,-0.28125 0.808594,-0.375 z m 1.886719,-5.414063 c 0.890625,0.738282 1.417969,2.203125 1.417969,3.75 0,1.546875 -0.503907,2.988282 -1.417969,3.75 l 0.164062,0.199219 c 1.347657,-0.914062 1.898438,-2.332031 1.898438,-3.949219 0,-1.628906 -0.550781,-3.058593 -1.898438,-3.960937 z m 80.862305,7.5 c -0.890625,-0.761718 -1.40625,-2.203125 -1.40625,-3.75 0,-1.546875 0.515625,-3 1.40625,-3.75 l -0.152344,-0.210937 c -1.324219,0.902344 -1.910156,2.332031 -1.910156,3.949219 0,1.628906 0.585937,3.082031 1.910156,3.960937 z m 1.790039,-4.957031 v -2.777344 c -0.339844,0.117188 -0.890625,0.257813 -1.3125,0.316407 v 0.210937 c 0.585937,0.04687 0.597656,0.105469 0.597656,0.667969 v 5.003906 c 0.492187,0.234375 0.949219,0.316406 1.3242187,0.316406 1.2070313,0 2.2617188,-0.9375 2.2617188,-2.261718 0,-1.054688 -0.8085938,-1.886719 -1.78125,-1.886719 -0.09375,0 -0.2226563,0.02344 -0.3632813,0.09375 z m 0,0.269531 c 0.164062,-0.105468 0.445312,-0.175781 0.7031247,-0.175781 0.7382813,0 1.3710938,0.597656 1.3710938,1.617188 0,1.054687 -0.4804688,1.6875 -1.21875,1.6875 -0.4804685,-0.01172 -0.7500005,-0.328125 -0.8085935,-0.503907 -0.03516,-0.08203 -0.04687,-0.175781 -0.04687,-0.304687 z m 3.6093747,-2.8125 c 0.890625,0.738282 1.4179688,2.203125 1.4179688,3.75 0,1.546875 -0.5039063,2.988282 -1.4179688,3.75 l 0.1640625,0.199219 c 1.3476563,-0.914062 1.8984375,-2.332031 1.8984375,-3.949219 0,-1.628906 -0.5507812,-3.058593 -1.8984375,-3.960937 z m 0,0"
           style="fill:#231f20;fill-opacity:1;fill-rule:nonzero;stroke:none" />
      </g>
    </g>
  </g>
</svg>
