<?xml version="1.0" encoding="UTF-8" standalone="no"?>
<!-- Created with Inkscape (http://www.inkscape.org/) -->

<svg
   version="1.1"
   id="svg1"
   width="153"
   height="37.733334"
   viewBox="0 0 153 37.733334"
   sodipodi:docname="pha03f07.eps"
   xmlns:inkscape="http://www.inkscape.org/namespaces/inkscape"
   xmlns:sodipodi="http://sodipodi.sourceforge.net/DTD/sodipodi-0.dtd"
   xmlns="http://www.w3.org/2000/svg"
   xmlns:svg="http://www.w3.org/2000/svg">
  <defs
     id="defs1" />
  <sodipodi:namedview
     id="namedview1"
     pagecolor="#ffffff"
     bordercolor="#000000"
     borderopacity="0.25"
     inkscape:showpageshadow="2"
     inkscape:pageopacity="0.0"
     inkscape:pagecheckerboard="0"
     inkscape:deskcolor="#d1d1d1">
    <inkscape:page
       x="0"
       y="0"
       inkscape:label="1"
       id="page1"
       width="153"
       height="37.733334"
       margin="0"
       bleed="0" />
  </sodipodi:namedview>
  <g
     id="g1"
     inkscape:groupmode="layer"
     inkscape:label="1">
    <g
       id="group-R5">
      <path
         id="path2"
         d="M 20.3438,111.465 1035.64,238.57"
         style="fill:none;stroke:#231f20;stroke-width:7.5;stroke-linecap:butt;stroke-linejoin:miter;stroke-miterlimit:10;stroke-dasharray:none;stroke-opacity:1"
         transform="matrix(0.13333333,0,0,-0.13333333,0,37.733333)" />
      <path
         id="path3"
         d="m 1025.62,237.313 -14.76,18.582 0.64,0.539 34.42,-8.914 c 11.74,-1.086 23.48,-2.168 35.22,-3.254 -11.12,-3.946 -22.22,-7.883 -33.33,-11.828 l -31.16,-17.129 -0.73,0.257 9.7,21.747"
         style="fill:#231f20;fill-opacity:1;fill-rule:nonzero;stroke:none"
         transform="matrix(0.13333333,0,0,-0.13333333,0,37.733333)" />
      <g
         id="g3"
         aria-label="v&#10;p&#10;p′"
         transform="matrix(1.3333333,0,0,1.3333333,72.5672,9.8953333)">
        <path
           id="path4"
           d="M 4.3236234,-3.9615391 H 2.7181547 v 0.2578125 c 0.4921875,0.082031 0.5390625,0.1875 0.421875,0.5390625 -0.1992188,0.609375 -0.4804688,1.4296875 -0.7148438,1.9570313 -0.1757812,-0.46875 -0.515625,-1.3710938 -0.7382812,-2.0039063 -0.1289063,-0.3398437 -0.09375,-0.4101562 0.3515625,-0.4921875 v -0.2578125 h -2.08593751 v 0.2578125 c 0.45703125,0.09375 0.55078125,0.1875 0.7265625,0.6210938 0.43359371,1.0429687 0.84375001,2.0742187 1.27734371,3.17578124 h 0.3164063 c 0.515625,-1.35937504 0.9726562,-2.43750004 1.2890625,-3.15234374 0.2109375,-0.46875 0.3046875,-0.5625 0.7617187,-0.6445313 z m 0,0"
           style="fill:#231f20;fill-opacity:1;fill-rule:nonzero;stroke:none" />
        <path
           id="path5"
           d="m -52.901962,14.217172 v -0.714844 c -0.421875,0.175781 -0.925782,0.328125 -1.3125,0.398438 v 0.210937 c 0.5625,0.07031 0.597656,0.09375 0.597656,0.679688 v 4.066406 c 0,0.585937 -0.08203,0.644531 -0.65625,0.703125 v 0.234375 h 2.132812 v -0.234375 c -0.703125,-0.07031 -0.761718,-0.117188 -0.761718,-0.796875 v -1.183594 c 0.117187,0.07031 0.363281,0.152344 0.621093,0.164063 1.171875,-0.210938 2.238282,-1.089844 2.238282,-2.449219 0,-0.890625 -0.597657,-1.699219 -1.59375,-1.699219 -0.105469,0 -0.28125,0.04687 -0.445313,0.140625 z m 0,0.304687 c 0.246093,-0.1875 0.609375,-0.386718 0.902343,-0.386718 0.65625,0 1.207032,0.539062 1.207032,1.511718 0,1.007813 -0.515625,1.664063 -1.265625,1.664063 -0.304688,0 -0.644532,-0.152344 -0.84375,-0.351563 z M 55.162491,1.1800625 V 0.46521875 C 54.740616,0.641 54.236709,0.79334375 53.849991,0.86365625 V 1.0745937 c 0.5625,0.070312 0.597656,0.09375 0.597656,0.6796875 v 4.0664063 c 0,0.5859375 -0.08203,0.6445312 -0.65625,0.703125 v 0.234375 h 2.132812 V 6.5238125 C 55.221084,6.4535 55.162491,6.406625 55.162491,5.7269375 V 4.5433437 c 0.117187,0.070312 0.363281,0.1523438 0.621093,0.1640625 1.171875,-0.2109375 2.238282,-1.0898437 2.238282,-2.4492187 0,-0.890625 -0.597657,-1.69921875 -1.59375,-1.69921875 -0.105469,0 -0.28125,0.046875 -0.445313,0.140625 z m 0,0.3046875 c 0.246093,-0.1875 0.609375,-0.3867188 0.902343,-0.3867188 0.65625,0 1.207032,0.5390625 1.207032,1.5117188 0,1.0078125 -0.515625,1.6640625 -1.265625,1.6640625 -0.304688,0 -0.644532,-0.1523438 -0.84375,-0.3515625 z m 0,0"
           style="fill:#231f20;fill-opacity:1;fill-rule:nonzero;stroke:none" />
        <path
           id="path6"
           d="m 59.149795,1.062875 0.609375,-1.2890625 c 0.175782,-0.38671875 0.28125,-0.62109375 0.316407,-0.73828125 0.03516,-0.0820313 0.04687,-0.15234375 0.04687,-0.22265625 0,-0.09375 -0.02344,-0.1640625 -0.08203,-0.2226563 -0.07031,-0.058594 -0.152343,-0.09375 -0.257812,-0.09375 -0.128906,0 -0.246094,0.035156 -0.339844,0.1171875 -0.105469,0.082031 -0.175781,0.2226563 -0.234375,0.39843755 -0.03516,0.12890625 -0.08203,0.375 -0.117187,0.76171875 L 58.950577,1.062875 Z m 0,0"
           style="fill:#231f20;fill-opacity:1;fill-rule:nonzero;stroke:none" />
      </g>
      <path
         id="path7"
         d="m 33.1289,110.996 c 0,9.145 -7.4141,16.563 -16.5664,16.563 C 7.41797,127.559 0,120.141 0,110.996 0,101.844 7.41797,94.4297 16.5625,94.4297 c 9.1523,0 16.5664,7.4143 16.5664,16.5663"
         style="fill:#231f20;fill-opacity:1;fill-rule:evenodd;stroke:none"
         transform="matrix(0.13333333,0,0,-0.13333333,0,37.733333)" />
      <path
         id="path8"
         d="m 1113.77,245.145 c 0,9.148 -7.42,16.562 -16.57,16.562 -9.14,0 -16.56,-7.414 -16.56,-16.562 0,-9.145 7.42,-16.563 16.56,-16.563 9.15,0 16.57,7.418 16.57,16.563"
         style="fill:#231f20;fill-opacity:1;fill-rule:evenodd;stroke:none"
         transform="matrix(0.13333333,0,0,-0.13333333,0,37.733333)" />
    </g>
  </g>
</svg>
