<?xml version="1.0" encoding="UTF-8" standalone="no"?>
<!-- Created with Inkscape (http://www.inkscape.org/) -->

<svg
   version="1.1"
   id="svg1"
   width="104.52"
   height="124.72"
   viewBox="0 0 104.52 124.72"
   sodipodi:docname="pha03f25.eps"
   xmlns:inkscape="http://www.inkscape.org/namespaces/inkscape"
   xmlns:sodipodi="http://sodipodi.sourceforge.net/DTD/sodipodi-0.dtd"
   xmlns="http://www.w3.org/2000/svg"
   xmlns:svg="http://www.w3.org/2000/svg">
  <defs
     id="defs1" />
  <sodipodi:namedview
     id="namedview1"
     pagecolor="#ffffff"
     bordercolor="#000000"
     borderopacity="0.25"
     inkscape:showpageshadow="2"
     inkscape:pageopacity="0.0"
     inkscape:pagecheckerboard="0"
     inkscape:deskcolor="#d1d1d1">
    <inkscape:page
       x="0"
       y="0"
       inkscape:label="1"
       id="page1"
       width="104.52"
       height="124.72"
       margin="0"
       bleed="0" />
  </sodipodi:namedview>
  <g
     id="g1"
     inkscape:groupmode="layer"
     inkscape:label="1">
    <g
       id="group-R5">
      <path
         id="path2"
         d="M 20.7227,654.398 V 51.7031 H 625.664"
         style="fill:none;stroke:#231f20;stroke-width:7.5;stroke-linecap:butt;stroke-linejoin:miter;stroke-miterlimit:10;stroke-dasharray:none;stroke-opacity:1"
         transform="matrix(0.13333333,0,0,-0.13333333,0,124.72)" />
      <path
         id="path3"
         d="m 20.7227,644.309 20.2617,-12.332 0.4609,0.695 -13.125,33.047 C 25.7891,677.23 23.2617,688.746 20.7227,700.258 18.1953,688.746 15.6563,677.23 13.125,665.719 L 0,632.672 0.34375,631.977 20.7227,644.309"
         style="fill:#231f20;fill-opacity:1;fill-rule:nonzero;stroke:none"
         transform="matrix(0.13333333,0,0,-0.13333333,0,124.72)" />
      <path
         id="path4"
         d="m 615.566,51.7031 -12.324,20.2696 0.696,0.4609 33.042,-13.1328 c 11.516,-2.5274 23.032,-5.0625 34.543,-7.5977 -11.511,-2.5312 -23.027,-5.0625 -34.543,-7.5976 l -33.042,-13.1289 -0.696,0.3476 12.324,20.3789"
         style="fill:#231f20;fill-opacity:1;fill-rule:nonzero;stroke:none"
         transform="matrix(0.13333333,0,0,-0.13333333,0,124.72)" />
      <path
         id="path5"
         d="m 0.77482344,-2.9189106 c 0.31640626,-0.3984375 0.49218746,-0.515625 0.57421876,-0.515625 0.09375,0 0.1757812,0.1289062 0.3046875,0.5742187 l 0.3046875,0.9375 c -0.5625,0.8320313 -0.98437501,1.35937503 -1.24218751,1.35937503 -0.09375,0 -0.1640625,-0.0351563 -0.2109375,-0.09375 -0.046875,-0.0585938 -0.09375,-0.09375 -0.140625,-0.09375 -0.17578125,0 -0.36328125,0.2109375 -0.36328125,0.421875 -0.01171875,0.2578125 0.17578125,0.43359375 0.41015625,0.43359375 0.421875,0 0.84375001,-0.43359375 1.64062501,-1.69921878 l 0.28125,0.87890628 c 0.1757812,0.5625 0.3632812,0.8203125 0.5976562,0.8203125 0.3046875,0 0.7265625,-0.328125 1.1367188,-0.97265625 L 3.9154484,-1.0439106 c -0.28125,0.33984373 -0.5039062,0.51562498 -0.6445312,0.51562498 -0.1523438,0 -0.28125,-0.2578125 -0.4570313,-0.82031248 L 2.5209172,-2.2509419 c 0.1992187,-0.28125 0.3984375,-0.5273437 0.5859375,-0.7382812 0.234375,-0.2929688 0.4101562,-0.4453125 0.5390625,-0.4453125 0.082031,0 0.1523437,0.035156 0.2109375,0.1054687 0.046875,0.046875 0.082031,0.070312 0.1289062,0.070312 0.140625,0 0.3398438,-0.1757812 0.3515625,-0.3984375 0,-0.1992187 -0.140625,-0.3867187 -0.375,-0.3867187 -0.3984375,0 -0.7851562,0.3867187 -1.5351562,1.4765625 l -0.1523438,-0.492187 c -0.2226562,-0.6445313 -0.3398437,-0.984375 -0.5859375,-0.984375 -0.2929687,0 -0.69140621,0.3867187 -1.06640621,0.9375 z M -65.0992,-70.89645 c -0.05859,-0.808593 -0.117187,-1.628906 -0.210937,-2.308593 -0.07031,-0.714844 -0.210938,-1.054688 -0.457032,-1.054688 -0.328125,0 -0.773437,0.515625 -1.066406,0.960938 l 0.152344,0.210937 c 0.222656,-0.316406 0.457031,-0.527344 0.527344,-0.527344 0.07031,0 0.117187,0.117188 0.1875,0.5625 0.128906,0.820313 0.269531,2.226563 0.28125,2.929688 -0.445313,0.597656 -1.160157,1.394531 -2.121094,2.015625 l 0.07031,0.199219 0.9375,-0.234375 c 0.503907,-0.5625 1.089844,-1.359375 1.617188,-2.121094 0.480469,-0.667969 1.242187,-1.863281 1.628906,-2.542969 0.234375,-0.398437 0.328125,-0.703125 0.316406,-0.960937 0,-0.292969 -0.152343,-0.492188 -0.351562,-0.492188 -0.152344,0 -0.316406,0.105469 -0.375,0.246094 -0.03516,0.07031 -0.04687,0.164062 -0.01172,0.222656 0.03516,0.105469 0.09375,0.246094 0.09375,0.421875 0.01172,0.65625 -0.820312,1.886719 -1.207031,2.472656 z m 0,0"
         style="fill:#231f20;fill-opacity:1;fill-rule:nonzero;stroke:none"
         aria-label="x&#10;y"
         transform="matrix(1.3333333,0,0,1.3333333,91.298933,120.39969)" />
      <path
         id="path6"
         d="m 311.555,343.09 h 15"
         style="fill:none;stroke:#231f20;stroke-width:5;stroke-linecap:butt;stroke-linejoin:miter;stroke-miterlimit:10;stroke-dasharray:none;stroke-opacity:1"
         transform="matrix(0.13333333,0,0,-0.13333333,0,124.72)" />
      <path
         id="path7"
         d="m 346.758,343.09 h 293"
         style="fill:none;stroke:#231f20;stroke-width:5;stroke-linecap:butt;stroke-linejoin:miter;stroke-miterlimit:10;stroke-dasharray:30.3104, 20.2069;stroke-dashoffset:0;stroke-opacity:1"
         transform="matrix(0.13333333,0,0,-0.13333333,0,124.72)" />
      <path
         id="path8"
         d="m 649.863,343.09 h 15 v 15"
         style="fill:none;stroke:#231f20;stroke-width:5;stroke-linecap:butt;stroke-linejoin:miter;stroke-miterlimit:10;stroke-dasharray:none;stroke-opacity:1"
         transform="matrix(0.13333333,0,0,-0.13333333,0,124.72)" />
      <path
         id="path9"
         d="M 664.863,377.773 V 859.941"
         style="fill:none;stroke:#231f20;stroke-width:5;stroke-linecap:butt;stroke-linejoin:miter;stroke-miterlimit:10;stroke-dasharray:29.5205, 19.6804;stroke-dashoffset:0;stroke-opacity:1"
         transform="matrix(0.13333333,0,0,-0.13333333,0,124.72)" />
      <path
         id="path10"
         d="m 664.863,869.781 v 15"
         style="fill:none;stroke:#231f20;stroke-width:5;stroke-linecap:butt;stroke-linejoin:miter;stroke-miterlimit:10;stroke-dasharray:none;stroke-opacity:1"
         transform="matrix(0.13333333,0,0,-0.13333333,0,124.72)" />
      <g
         id="g10"
         aria-label="p&#10;p′&#10;Δy&#10;Δx"
         transform="matrix(1.3333333,0,0,1.3333333,38,90.753867)">
        <path
           id="path11"
           d="m 1.5234375,-3.4218453 v -0.7148438 c -0.421875,0.1757813 -0.92578125,0.328125 -1.3125,0.3984375 v 0.2109375 c 0.5625,0.070312 0.59765625,0.09375 0.59765625,0.6796875 v 4.0664063 c 0,0.5859375 -0.0820313,0.6445312 -0.65625,0.703125 v 0.234375 H 2.2851563 V 1.9219047 C 1.5820312,1.8515922 1.5234375,1.8047172 1.5234375,1.1250297 v -1.18359376 c 0.1171875,0.0703125 0.3632812,0.15234375 0.6210938,0.1640625 1.171875,-0.2109375 2.2382812,-1.08984375 2.2382812,-2.44921874 0,-0.890625 -0.5976562,-1.6992188 -1.59375,-1.6992188 -0.1054687,0 -0.28125,0.046875 -0.4453125,0.140625 z m 0,0.3046875 c 0.2460937,-0.1875 0.609375,-0.3867188 0.9023438,-0.3867188 0.65625,0 1.2070312,0.5390625 1.2070312,1.5117188 0,1.00781249 -0.515625,1.66406249 -1.265625,1.66406249 -0.3046875,0 -0.6445313,-0.15234375 -0.84375,-0.3515625 z M 44.232422,-64.004853 v -0.714844 c -0.421875,0.175781 -0.925781,0.328125 -1.3125,0.398438 v 0.210937 c 0.5625,0.07031 0.597656,0.09375 0.597656,0.679688 v 4.066406 c 0,0.585937 -0.08203,0.644531 -0.65625,0.703125 v 0.234375 h 2.132813 v -0.234375 c -0.703125,-0.07031 -0.761719,-0.117188 -0.761719,-0.796875 v -1.183594 c 0.117187,0.07031 0.363281,0.152344 0.621094,0.164063 1.171875,-0.210938 2.238281,-1.089844 2.238281,-2.449219 0,-0.890625 -0.597656,-1.699219 -1.59375,-1.699219 -0.105469,0 -0.28125,0.04687 -0.445313,0.140625 z m 0,0.304687 c 0.246094,-0.1875 0.609375,-0.386718 0.902344,-0.386718 0.65625,0 1.207031,0.539062 1.207031,1.511718 0,1.007813 -0.515625,1.664063 -1.265625,1.664063 -0.304688,0 -0.644531,-0.152344 -0.84375,-0.351563 z m 0,0"
           style="fill:#231f20;fill-opacity:1;fill-rule:nonzero;stroke:none" />
        <path
           id="path12"
           d="m 48.222656,-64.122041 0.609375,-1.289062 c 0.175781,-0.386719 0.28125,-0.621094 0.316406,-0.738281 0.03516,-0.08203 0.04687,-0.152344 0.04687,-0.222657 0,-0.09375 -0.02344,-0.164062 -0.08203,-0.222656 -0.07031,-0.05859 -0.152344,-0.09375 -0.257812,-0.09375 -0.128907,0 -0.246094,0.03516 -0.339844,0.117188 -0.105469,0.08203 -0.175781,0.222656 -0.234375,0.398437 -0.03516,0.128906 -0.08203,0.375 -0.117188,0.761719 l -0.140625,1.289062 z m 0,0"
           style="fill:#231f20;fill-opacity:1;fill-rule:nonzero;stroke:none" />
        <path
           id="path13"
           d="m 45.498047,-31.207002 v -0.210937 l -2.355469,-5.777344 -0.234375,0.08203 -2.414062,5.695313 v 0.210937 z m -0.925781,-0.445312 h -3.515625 l 1.769531,-4.40625 z m 0,0"
           style="fill:#231f20;fill-opacity:1;fill-rule:nonzero;stroke:none" />
        <path
           id="path14"
           d="m 48.020508,-31.886689 c -0.05859,-0.808594 -0.117188,-1.628906 -0.210938,-2.308594 -0.07031,-0.714844 -0.210937,-1.054687 -0.457031,-1.054687 -0.328125,0 -0.773437,0.515625 -1.066406,0.960937 l 0.152344,0.210938 c 0.222656,-0.316407 0.457031,-0.527344 0.527343,-0.527344 0.07031,0 0.117188,0.117187 0.1875,0.5625 0.128907,0.820312 0.269532,2.226562 0.28125,2.929687 -0.445312,0.597657 -1.160156,1.394532 -2.121093,2.015625 l 0.07031,0.199219 0.9375,-0.234375 c 0.503906,-0.5625 1.089844,-1.359375 1.617188,-2.121094 0.480468,-0.667968 1.242187,-1.863281 1.628906,-2.542968 0.234375,-0.398438 0.328125,-0.703125 0.316406,-0.960938 0,-0.292969 -0.152344,-0.492187 -0.351562,-0.492187 -0.152344,0 -0.316407,0.105468 -0.375,0.246093 -0.03516,0.07031 -0.04687,0.164063 -0.01172,0.222657 0.03516,0.105468 0.09375,0.246093 0.09375,0.421875 0.01172,0.65625 -0.820313,1.886718 -1.207031,2.472656 z m 0,0"
           style="fill:#231f20;fill-opacity:1;fill-rule:nonzero;stroke:none" />
        <path
           id="path15"
           d="M 21.301758,2.96875e-5 V -0.21090781 l -2.355469,-5.77734379 -0.234375,0.082031 -2.414062,5.69531249 V 2.96875e-5 Z M 20.375977,-0.44528281 h -3.515625 l 1.769531,-4.40624999 z m 0,0"
           style="fill:#231f20;fill-opacity:1;fill-rule:nonzero;stroke:none" />
        <path
           id="path16"
           d="m 22.441406,-2.9179391 c 0.316406,-0.3984375 0.492188,-0.515625 0.574219,-0.515625 0.09375,0 0.175781,0.1289063 0.304687,0.5742188 l 0.304688,0.9375 c -0.5625,0.8320312 -0.984375,1.35937499 -1.242188,1.35937499 -0.09375,0 -0.164062,-0.0351563 -0.210937,-0.09375 -0.04687,-0.0585938 -0.09375,-0.09375 -0.140625,-0.09375 -0.175781,0 -0.363281,0.2109375 -0.363281,0.421875 -0.01172,0.2578125 0.175781,0.43359375 0.410156,0.43359375 0.421875,0 0.84375,-0.43359375 1.640625,-1.69921874 L 24,-0.71481406 c 0.175781,0.5625 0.363281,0.8203125 0.597656,0.8203125 0.304688,0 0.726563,-0.328125 1.136719,-0.97265625 L 25.582031,-1.0429391 c -0.28125,0.33984379 -0.503906,0.51562504 -0.644531,0.51562504 -0.152344,0 -0.28125,-0.2578125 -0.457031,-0.82031254 L 24.1875,-2.2499703 c 0.199219,-0.28125 0.398437,-0.5273438 0.585937,-0.7382813 0.234375,-0.2929687 0.410157,-0.4453125 0.539063,-0.4453125 0.08203,0 0.152344,0.035156 0.210937,0.1054688 0.04687,0.046875 0.08203,0.070312 0.128907,0.070312 0.140625,0 0.339843,-0.1757813 0.351562,-0.3984375 0,-0.1992188 -0.140625,-0.3867188 -0.375,-0.3867188 -0.398437,0 -0.785156,0.3867188 -1.535156,1.4765625 l -0.152344,-0.4921875 c -0.222656,-0.6445312 -0.339844,-0.984375 -0.585937,-0.984375 -0.292969,0 -0.691407,0.3867188 -1.066407,0.9375 z m 0,0"
           style="fill:#231f20;fill-opacity:1;fill-rule:nonzero;stroke:none" />
      </g>
      <path
         id="path17"
         d="m 681.816,878.941 c 0,9.364 -7.586,16.961 -16.953,16.961 -9.375,0 -16.972,-7.597 -16.972,-16.961 0,-9.367 7.597,-16.964 16.972,-16.964 9.367,0 16.953,7.597 16.953,16.964"
         style="fill:#231f20;fill-opacity:1;fill-rule:evenodd;stroke:none"
         transform="matrix(0.13333333,0,0,-0.13333333,0,124.72)" />
      <path
         id="path18"
         d="m 328.516,344.684 c 0,9.363 -7.598,16.961 -16.961,16.961 -9.367,0 -16.965,-7.598 -16.965,-16.961 0,-9.375 7.598,-16.965 16.965,-16.965 9.363,0 16.961,7.59 16.961,16.965"
         style="fill:#231f20;fill-opacity:1;fill-rule:evenodd;stroke:none"
         transform="matrix(0.13333333,0,0,-0.13333333,0,124.72)" />
    </g>
  </g>
</svg>
