<?xml version="1.0" encoding="UTF-8" standalone="no"?>
<!-- Created with Inkscape (http://www.inkscape.org/) -->

<svg
   version="1.1"
   id="svg1"
   width="194.25333"
   height="133.48"
   viewBox="0 0 194.25333 133.48"
   sodipodi:docname="pha03f06.eps"
   xmlns:inkscape="http://www.inkscape.org/namespaces/inkscape"
   xmlns:sodipodi="http://sodipodi.sourceforge.net/DTD/sodipodi-0.dtd"
   xmlns="http://www.w3.org/2000/svg"
   xmlns:svg="http://www.w3.org/2000/svg">
  <defs
     id="defs1" />
  <sodipodi:namedview
     id="namedview1"
     pagecolor="#ffffff"
     bordercolor="#000000"
     borderopacity="0.25"
     inkscape:showpageshadow="2"
     inkscape:pageopacity="0.0"
     inkscape:pagecheckerboard="0"
     inkscape:deskcolor="#d1d1d1">
    <inkscape:page
       x="0"
       y="0"
       inkscape:label="1"
       id="page1"
       width="194.25333"
       height="133.48"
       margin="0"
       bleed="0" />
  </sodipodi:namedview>
  <g
     id="g1"
     inkscape:groupmode="layer"
     inkscape:label="1">
    <g
       id="group-R5">
      <path
         id="path2"
         d="m 974.23,125.863 396.31,721.606"
         style="fill:none;stroke:#231f20;stroke-width:7.5;stroke-linecap:butt;stroke-linejoin:miter;stroke-miterlimit:10;stroke-dasharray:none;stroke-opacity:1"
         transform="matrix(0.13333333,0,0,-0.13333333,0,133.48)" />
      <path
         id="path3"
         d="m 1365.67,838.617 -23.7,-1.047 -0.07,0.828 27.42,22.649 c 7.76,8.871 15.52,17.742 23.29,26.613 -3.32,-11.308 -6.64,-22.621 -9.97,-33.933 l -4.4,-35.286 -0.64,-0.437 -11.93,20.613"
         style="fill:#231f20;fill-opacity:1;fill-rule:nonzero;stroke:none"
         transform="matrix(0.13333333,0,0,-0.13333333,0,133.48)" />
      <path
         id="path4"
         d="M 3.23828,127.711 928.367,125.953"
         style="fill:none;stroke:#231f20;stroke-width:7.5;stroke-linecap:butt;stroke-linejoin:miter;stroke-miterlimit:10;stroke-dasharray:none;stroke-opacity:1"
         transform="matrix(0.13333333,0,0,-0.13333333,0,133.48)" />
      <path
         id="path5"
         d="m 918.27,125.973 -12.286,20.289 0.696,0.457 33.015,-13.188 c 11.516,-2.558 23.032,-5.105 34.535,-7.668 -11.527,-2.508 -23.039,-5.015 -34.55,-7.527 l -33.078,-13.066 -0.696,0.339 12.364,20.364"
         style="fill:#231f20;fill-opacity:1;fill-rule:nonzero;stroke:none"
         transform="matrix(0.13333333,0,0,-0.13333333,0,133.48)" />
      <path
         id="path6"
         d="M 3.28516,126.129 399.594,847.727"
         style="fill:none;stroke:#231f20;stroke-width:7.5;stroke-linecap:butt;stroke-linejoin:miter;stroke-miterlimit:10;stroke-dasharray:none;stroke-opacity:1"
         transform="matrix(0.13333333,0,0,-0.13333333,0,133.48)" />
      <path
         id="path7"
         d="m 394.734,838.879 -23.699,-1.051 -0.066,0.828 27.41,22.649 c 7.766,8.871 15.527,17.746 23.293,26.617 -3.328,-11.309 -6.649,-22.621 -9.969,-33.938 l -4.402,-35.281 -0.637,-0.441 -11.93,20.617"
         style="fill:#231f20;fill-opacity:1;fill-rule:nonzero;stroke:none"
         transform="matrix(0.13333333,0,0,-0.13333333,0,133.48)" />
      <path
         id="path8"
         d="m 422.227,888.688 925.123,-1.762"
         style="fill:none;stroke:#231f20;stroke-width:7.5;stroke-linecap:butt;stroke-linejoin:miter;stroke-miterlimit:10;stroke-dasharray:none;stroke-opacity:1"
         transform="matrix(0.13333333,0,0,-0.13333333,0,133.48)" />
      <path
         id="path9"
         d="m 1337.26,886.945 -12.29,20.285 0.69,0.461 33.02,-13.187 c 11.52,-2.555 23.03,-5.109 34.53,-7.668 -11.52,-2.508 -23.03,-5.02 -34.55,-7.531 l -33.07,-13.063 -0.7,0.348 12.37,20.355"
         style="fill:#231f20;fill-opacity:1;fill-rule:nonzero;stroke:none"
         transform="matrix(0.13333333,0,0,-0.13333333,0,133.48)" />
      <path
         id="path10"
         d="m 513.027,890.441 v -15"
         style="fill:none;stroke:#231f20;stroke-width:5;stroke-linecap:butt;stroke-linejoin:miter;stroke-miterlimit:10;stroke-dasharray:none;stroke-opacity:1"
         transform="matrix(0.13333333,0,0,-0.13333333,0,133.48)" />
      <path
         id="path11"
         d="M 513.027,855.113 V 153.805"
         style="fill:none;stroke:#231f20;stroke-width:5;stroke-linecap:butt;stroke-linejoin:miter;stroke-miterlimit:10;stroke-dasharray:30.4917, 20.3278;stroke-dashoffset:0;stroke-opacity:1"
         transform="matrix(0.13333333,0,0,-0.13333333,0,133.48)" />
      <path
         id="path12"
         d="m 513.027,143.641 v -15"
         style="fill:none;stroke:#231f20;stroke-width:5;stroke-linecap:butt;stroke-linejoin:miter;stroke-miterlimit:10;stroke-dasharray:none;stroke-opacity:1"
         transform="matrix(0.13333333,0,0,-0.13333333,0,133.48)" />
      <g
         id="g12"
         aria-label="h&#10;v&#10;2&#10;v&#10;2&#10;v&#10;1&#10;v&#10;1"
         transform="matrix(1.3333333,0,0,1.3333333,70.728667,71.753467)">
        <path
           id="path13"
           d="m 4.1849453,-0.97232656 c -0.2460937,0.24609375 -0.5273437,0.41015625 -0.6210937,0.41015625 -0.070312,0 -0.082031,-0.0585938 -0.023437,-0.31640625 l 0.46875,-2.01562504 c 0.2226562,-0.984375 -0.035156,-1.1484375 -0.2578125,-1.1484375 -0.1640625,0 -0.3632813,0.070312 -0.5976563,0.1875 -0.4101562,0.2226563 -1.078125,0.6914063 -1.6640625,1.5 h -0.023437 l 0.8085938,-3.7382812 c 0.058594,-0.2460938 0.046875,-0.3164063 -0.035156,-0.3164063 -0.1289062,0 -0.609375,0.2460938 -1.32421874,0.3164063 l -0.0234375,0.2109375 0.25781254,0.011719 c 0.3515625,0.011719 0.3984375,0.035156 0.3046875,0.5039063 -0.3515625,1.8515625 -0.75000004,3.6679687 -1.13671879,5.40234374 l 0.0585938,0.0703125 c 0.19921875,-0.0703125 0.43359375,-0.12890625 0.64453119,-0.1640625 0.082031,-0.4453125 0.2460938,-1.24218754 0.328125,-1.64062504 0.4453125,-0.7851562 1.5,-1.7929687 1.9101563,-1.7929687 0.140625,0 0.1757812,0.1640625 0.070312,0.6445312 l -0.4804688,2.08593754 c -0.140625,0.62109375 -0.070312,0.8671875 0.1640625,0.8671875 0.2578125,0 0.8085938,-0.31640625 1.2890625,-0.8671875 z m 0,0"
           style="fill:#231f20;fill-opacity:1;fill-rule:nonzero;stroke:none" />
        <path
           id="path14"
           d="m 90.599008,-34.03678 h -1.605469 v 0.257813 c 0.492188,0.08203 0.539063,0.1875 0.421875,0.539062 -0.199219,0.609375 -0.480469,1.429688 -0.714844,1.957032 -0.175781,-0.46875 -0.515625,-1.371094 -0.738281,-2.003907 -0.128906,-0.339843 -0.09375,-0.410156 0.351563,-0.492187 v -0.257813 h -2.085938 v 0.257813 c 0.457031,0.09375 0.550781,0.1875 0.726563,0.621094 0.433593,1.042968 0.84375,2.074218 1.277343,3.175781 h 0.316407 c 0.515625,-1.359375 0.972656,-2.4375 1.289062,-3.152344 0.210938,-0.46875 0.304688,-0.5625 0.761719,-0.644531 z m 0,0"
           style="fill:#231f20;fill-opacity:1;fill-rule:nonzero;stroke:none" />
        <path
           id="path15"
           d="m 92.474008,-29.305334 c -0.175781,0.386718 -0.257813,0.410156 -0.585938,0.410156 h -1.113281 l 0.84375,-0.902344 c 0.550781,-0.585937 0.796875,-0.9375 0.796875,-1.464844 0,-0.621093 -0.480469,-1.007812 -1.007812,-1.007812 -0.351563,0 -0.632813,0.152344 -0.808594,0.351562 l -0.339844,0.492188 0.128906,0.117187 c 0.152344,-0.234375 0.410157,-0.5625 0.808594,-0.5625 0.445313,0 0.714844,0.292969 0.714844,0.796875 0,0.515625 -0.375,1.007813 -0.75,1.453125 -0.304688,0.351563 -0.632813,0.691407 -0.972656,1.019532 v 0.140625 h 2.238281 c 0.08203,-0.269532 0.140625,-0.539063 0.210937,-0.785157 z m 0,0"
           style="fill:#231f20;fill-opacity:1;fill-rule:nonzero;stroke:none" />
        <path
           id="path16"
           d="m -9.4644688,-32.941077 h -1.6054692 v 0.257813 c 0.492188,0.08203 0.539063,0.1875 0.421875,0.539062 -0.199218,0.609375 -0.480468,1.429688 -0.714843,1.957032 -0.175782,-0.46875 -0.515625,-1.371094 -0.738282,-2.003907 -0.128906,-0.339843 -0.09375,-0.410156 0.351563,-0.492187 v -0.257813 h -2.085938 v 0.257813 c 0.457032,0.09375 0.550782,0.1875 0.726563,0.621094 0.433594,1.042968 0.84375,2.074218 1.277344,3.175781 h 0.316406 c 0.515625,-1.359375 0.972656,-2.4375 1.289062,-3.152344 0.210938,-0.46875 0.304688,-0.5625 0.7617192,-0.644531 z m 0,0"
           style="fill:#231f20;fill-opacity:1;fill-rule:nonzero;stroke:none" />
        <path
           id="path17"
           d="m -7.5894688,-28.209631 c -0.1757812,0.386719 -0.2578125,0.410156 -0.5859375,0.410156 h -1.1132812 l 0.84375,-0.902344 c 0.5507812,-0.585937 0.796875,-0.9375 0.796875,-1.464843 0,-0.621094 -0.4804688,-1.007813 -1.0078125,-1.007813 -0.3515625,0 -0.6328125,0.152344 -0.8085938,0.351563 l -0.3398437,0.492187 0.1289062,0.117188 c 0.1523438,-0.234375 0.4101563,-0.5625 0.8085938,-0.5625 0.4453125,0 0.7148437,0.292968 0.7148437,0.796875 0,0.515625 -0.375,1.007812 -0.75,1.453125 -0.3046875,0.351562 -0.6328125,0.691406 -0.9726562,1.019531 v 0.140625 h 2.2382812 c 0.082031,-0.269531 0.140625,-0.539063 0.2109375,-0.785156 z m 0,0"
           style="fill:#231f20;fill-opacity:1;fill-rule:nonzero;stroke:none" />
        <path
           id="path18"
           d="m 36.174203,37.479822 h -1.605469 v 0.257812 c 0.492188,0.08203 0.539063,0.1875 0.421875,0.539063 -0.199218,0.609375 -0.480468,1.429687 -0.714843,1.957031 -0.175782,-0.46875 -0.515625,-1.371094 -0.738282,-2.003906 -0.128906,-0.339844 -0.09375,-0.410156 0.351563,-0.492188 v -0.257812 h -2.085938 v 0.257812 c 0.457032,0.09375 0.550782,0.1875 0.726563,0.621094 0.433594,1.042969 0.84375,2.074219 1.277344,3.175781 h 0.316406 c 0.515625,-1.359375 0.972656,-2.4375 1.289062,-3.152343 0.210938,-0.46875 0.304688,-0.5625 0.761719,-0.644532 z m 0,0"
           style="fill:#231f20;fill-opacity:1;fill-rule:nonzero;stroke:none" />
        <path
           id="path19"
           d="m 37.885141,43.055017 v -0.164062 c -0.550782,-0.03516 -0.585938,-0.09375 -0.585938,-0.515625 v -3.128907 c -0.328125,0.128907 -0.679687,0.246094 -1.066406,0.316407 v 0.128906 l 0.28125,0.01172 c 0.269531,0.01172 0.292969,0.04687 0.292969,0.363281 v 2.308594 c 0,0.421875 -0.03516,0.480468 -0.574219,0.515625 v 0.164062 z m 0,0"
           style="fill:#231f20;fill-opacity:1;fill-rule:nonzero;stroke:none" />
        <path
           id="path20"
           d="m 76.483773,-50.34928 h -1.605468 v 0.257813 c 0.492187,0.08203 0.539062,0.1875 0.421875,0.539062 -0.199219,0.609375 -0.480469,1.429688 -0.714844,1.957032 -0.175781,-0.46875 -0.515625,-1.371094 -0.738281,-2.003907 -0.128907,-0.339843 -0.09375,-0.410156 0.351562,-0.492187 V -50.34928 H 72.11268 v 0.257813 c 0.457031,0.09375 0.550781,0.1875 0.726562,0.621094 0.433594,1.042968 0.84375,2.074218 1.277344,3.175781 h 0.316406 c 0.515625,-1.359375 0.972656,-2.4375 1.289063,-3.152344 0.210937,-0.46875 0.304687,-0.5625 0.761718,-0.644531 z m 0,0"
           style="fill:#231f20;fill-opacity:1;fill-rule:nonzero;stroke:none" />
        <path
           id="path21"
           d="m 78.191781,-44.774084 v -0.164063 c -0.550781,-0.03516 -0.585937,-0.09375 -0.585937,-0.515625 v -3.128906 c -0.328125,0.128906 -0.679688,0.246094 -1.066407,0.316406 v 0.128906 l 0.28125,0.01172 c 0.269532,0.01172 0.292969,0.04687 0.292969,0.363281 v 2.308594 c 0,0.421875 -0.03516,0.480469 -0.574219,0.515625 v 0.164063 z m 0,0"
           style="fill:#231f20;fill-opacity:1;fill-rule:nonzero;stroke:none" />
      </g>
    </g>
  </g>
</svg>
