<?xml version="1.0" encoding="UTF-8" standalone="no"?>
<!-- Created with Inkscape (http://www.inkscape.org/) -->

<svg
   version="1.1"
   id="svg1"
   width="135.82668"
   height="172.10667"
   viewBox="0 0 135.82668 172.10667"
   sodipodi:docname="pha03f27.eps"
   xmlns:inkscape="http://www.inkscape.org/namespaces/inkscape"
   xmlns:sodipodi="http://sodipodi.sourceforge.net/DTD/sodipodi-0.dtd"
   xmlns="http://www.w3.org/2000/svg"
   xmlns:svg="http://www.w3.org/2000/svg">
  <defs
     id="defs1" />
  <sodipodi:namedview
     id="namedview1"
     pagecolor="#ffffff"
     bordercolor="#000000"
     borderopacity="0.25"
     inkscape:showpageshadow="2"
     inkscape:pageopacity="0.0"
     inkscape:pagecheckerboard="0"
     inkscape:deskcolor="#d1d1d1">
    <inkscape:page
       x="0"
       y="0"
       inkscape:label="1"
       id="page1"
       width="135.82668"
       height="172.10667"
       margin="0"
       bleed="0" />
  </sodipodi:namedview>
  <g
     id="g1"
     inkscape:groupmode="layer"
     inkscape:label="1">
    <g
       id="group-R5">
      <g
         id="g2"
         aria-label="v&#10;2&#10;v&#10;1&#10;v&#10;c&#10;a&#10;θ&#10;θ&#10;α&#10;v′&#10;2&#10;v′&#10;1&#10;v′&#10;v"
         transform="matrix(1.3333333,0,0,1.3333333,6.325,66.741067)">
        <path
           id="path2"
           d="M 4.3236328,-3.9600969 H 2.7181641 v 0.2578125 c 0.4921875,0.082031 0.5390625,0.1875 0.421875,0.5390625 -0.1992188,0.609375 -0.4804688,1.4296875 -0.7148438,1.9570313 -0.1757812,-0.46875 -0.515625,-1.3710938 -0.7382812,-2.0039063 -0.1289063,-0.3398437 -0.09375,-0.4101562 0.3515625,-0.4921875 v -0.2578125 h -2.08593754 v 0.2578125 c 0.45703125,0.09375 0.55078125,0.1875 0.7265625,0.6210938 0.43359374,1.0429687 0.84375004,2.0742187 1.27734374,3.17578122 h 0.3164063 c 0.515625,-1.35937502 0.9726562,-2.43750002 1.2890625,-3.15234372 0.2109375,-0.46875 0.3046875,-0.5625 0.7617187,-0.6445313 z m 0,0"
           style="fill:#231f20;fill-opacity:1;fill-rule:nonzero;stroke:none" />
        <path
           id="path3"
           d="M 6.6322266,1.22545 C 6.5853516,1.3192 6.5267578,1.3777937 6.4447266,1.4246687 6.3861328,1.4715437 6.3158203,1.5067 6.2220703,1.5301375 6.1400391,1.5418562 5.9876953,1.553575 5.7884766,1.553575 h -1.03125 C 4.8744141,1.4481062 5.1673828,1.1317 5.6595703,0.5926375 5.9759766,0.241075 6.2103516,-0.09876875 6.3626953,-0.40345625 c 0.09375,-0.2109375 0.140625,-0.41015625 0.140625,-0.60937505 0,-0.28125 -0.1054687,-0.5273437 -0.328125,-0.7265625 C 5.9642578,-1.9503313 5.6947266,-2.0558 5.3666016,-2.0558 c -0.2929688,0 -0.5507813,0.09375 -0.75,0.28125 -0.2109375,0.1992187 -0.328125,0.46875 -0.3867188,0.83203125 h 0.1171875 c 0.070312,-0.21093755 0.1875,-0.38671875 0.3398438,-0.49218755 0.1523437,-0.1171875 0.3398437,-0.1757812 0.5273437,-0.1757812 0.2109375,0 0.3984375,0.082031 0.5507813,0.2460937 0.1523437,0.1640625 0.234375,0.37500005 0.234375,0.6210938 0,0.328125 -0.140625,0.69140625 -0.421875,1.08984375 -0.28125,0.3984375 -0.7617188,0.91406245 -1.453125,1.54687495 v 0.1054688 h 2.34375 L 6.7376953,1.22545 Z m 0,0"
           style="fill:#231f20;fill-opacity:1;fill-rule:nonzero;stroke:none" />
        <path
           id="path4"
           d="m 75.538477,-5.2345109 h -1.605469 v 0.2578125 c 0.492187,0.082031 0.539062,0.1875 0.421875,0.5390625 -0.199219,0.609375 -0.480469,1.4296875 -0.714844,1.9570312 -0.175781,-0.46875 -0.515625,-1.3710937 -0.738281,-2.0039062 -0.128906,-0.3398438 -0.09375,-0.4101563 0.351562,-0.4921875 v -0.2578125 h -2.085937 v 0.2578125 c 0.457031,0.09375 0.550781,0.1875 0.726562,0.6210937 0.433594,1.0429688 0.84375,2.0742188 1.277344,3.1757813 h 0.316406 c 0.515625,-1.359375 0.972657,-2.4375 1.289063,-3.1523438 0.210937,-0.46875 0.304687,-0.5625 0.761719,-0.6445312 z m 0,0"
           style="fill:#231f20;fill-opacity:1;fill-rule:nonzero;stroke:none" />
        <path
           id="path5"
           d="m 75.948633,-2.7647844 c 0.128906,-0.070312 0.234375,-0.09375 0.304687,-0.09375 0.04687,0 0.09375,0.011719 0.128907,0.035156 0.03516,0.035156 0.05859,0.082031 0.07031,0.140625 0.02344,0.082031 0.03516,0.2695312 0.03516,0.5625 v 2.14453122 c 0,0.24609375 -0.01172,0.38671875 -0.03516,0.43359375 -0.02344,0.046875 -0.05859,0.0820312 -0.105469,0.1171875 -0.05859,0.0234375 -0.1875,0.0351563 -0.363281,0.046875 v 0.10546875 h 1.5 V 0.62193437 c -0.1875,-0.0117188 -0.304687,-0.0234375 -0.363281,-0.046875 -0.05859,-0.0351563 -0.09375,-0.0703125 -0.117188,-0.12890625 -0.01172,-0.0585938 -0.02344,-0.19921875 -0.02344,-0.421875 V -3.3272844 h -0.105469 l -0.972656,0.46875 z m 0,0"
           style="fill:#231f20;fill-opacity:1;fill-rule:nonzero;stroke:none" />
        <path
           id="path6"
           d="m 49.891992,18.815294 h -1.605469 v 0.257812 c 0.492188,0.08203 0.539063,0.1875 0.421875,0.539063 -0.199218,0.609375 -0.480468,1.429687 -0.714843,1.957031 -0.175782,-0.46875 -0.515625,-1.371094 -0.738282,-2.003906 -0.128906,-0.339844 -0.09375,-0.410157 0.351563,-0.492188 v -0.257812 h -2.085938 v 0.257812 c 0.457032,0.09375 0.550782,0.1875 0.726563,0.621094 0.433594,1.042969 0.84375,2.074219 1.277344,3.175781 h 0.316406 c 0.515625,-1.359375 0.972656,-2.4375 1.289062,-3.152344 0.210938,-0.46875 0.304688,-0.5625 0.761719,-0.644531 z m 0,0"
           style="fill:#231f20;fill-opacity:1;fill-rule:nonzero;stroke:none" />
        <path
           id="path7"
           d="m 51.251367,24.062364 c -0.175781,0.1875 -0.339844,0.328125 -0.492187,0.398438 -0.152344,0.08203 -0.304688,0.117187 -0.445313,0.117187 -0.199219,0 -0.363281,-0.05859 -0.46875,-0.175781 -0.117187,-0.105469 -0.175781,-0.269531 -0.175781,-0.46875 0,-0.304688 0.07031,-0.597656 0.234375,-0.902344 0.140625,-0.246094 0.304687,-0.433594 0.492187,-0.574219 0.1875,-0.128906 0.386719,-0.199218 0.574219,-0.199218 0.105469,0 0.1875,0.01172 0.246094,0.05859 0.03516,0.02344 0.04687,0.05859 0.04687,0.105469 0,0.01172 0,0.03516 -0.01172,0.05859 -0.01172,0.01172 -0.03516,0.05859 -0.08203,0.09375 -0.04687,0.04687 -0.07031,0.08203 -0.08203,0.117187 -0.02344,0.02344 -0.02344,0.05859 -0.02344,0.105469 0,0.05859 0.01172,0.105469 0.05859,0.140625 0.03516,0.03516 0.08203,0.05859 0.140625,0.05859 0.08203,0 0.152344,-0.03516 0.210937,-0.105469 0.07031,-0.08203 0.105469,-0.1875 0.105469,-0.304687 0,-0.128907 -0.04687,-0.234375 -0.152344,-0.328125 -0.105468,-0.09375 -0.269531,-0.128907 -0.480468,-0.128907 -0.269532,0 -0.550782,0.08203 -0.832032,0.269532 -0.28125,0.175781 -0.503906,0.410156 -0.679687,0.703125 -0.164063,0.28125 -0.246094,0.574218 -0.246094,0.878906 0,0.257812 0.07031,0.46875 0.234375,0.632812 0.152344,0.152344 0.375,0.234375 0.644531,0.234375 0.234375,0 0.445313,-0.05859 0.65625,-0.175781 0.210938,-0.117187 0.421875,-0.292969 0.621094,-0.539062 z m 0,0"
           style="fill:#231f20;fill-opacity:1;fill-rule:nonzero;stroke:none" />
        <path
           id="path8"
           d="m 45.03457,-43.012831 -0.105468,-0.269532 c -0.08203,0.04687 -0.199219,0.08203 -0.304688,0.08203 -0.152344,0 -0.292969,-0.117188 -0.292969,-0.527344 v -1.558594 c 0,-0.492187 -0.09375,-0.878906 -0.457031,-1.160156 -0.222656,-0.164063 -0.492187,-0.246094 -0.820312,-0.246094 -0.515625,0.09375 -1.136719,0.410156 -1.441407,0.632813 -0.199218,0.140625 -0.304687,0.257812 -0.304687,0.398437 0,0.234375 0.28125,0.433594 0.492187,0.433594 0.175782,0 0.292969,-0.05859 0.339844,-0.269531 0.07031,-0.28125 0.152344,-0.480469 0.257813,-0.609375 0.08203,-0.105469 0.199218,-0.164063 0.339843,-0.164063 0.375,0 0.632813,0.328125 0.632813,0.925781 v 0.222657 c -0.210938,0.1875 -0.890625,0.410156 -1.429688,0.597656 -0.46875,0.175781 -0.703125,0.410156 -0.703125,0.867187 0,0.5625 0.457032,1.136719 1.171875,1.136719 0.210938,0 0.632813,-0.304687 0.984375,-0.539062 0.04687,0.128906 0.105469,0.246093 0.222657,0.363281 0.117187,0.09375 0.292968,0.175781 0.503906,0.175781 z m -1.664062,-0.339844 c -0.164063,0.128906 -0.351563,0.199219 -0.503906,0.199219 -0.234375,0 -0.585938,-0.1875 -0.585938,-0.679688 0,-0.316406 0.164063,-0.480469 0.46875,-0.632812 0.1875,-0.09375 0.433594,-0.222657 0.621094,-0.316407 z m 0,0"
           style="fill:#231f20;fill-opacity:1;fill-rule:nonzero;stroke:none" />
        <path
           id="path9"
           d="m 30.430078,4.8025984 c -1.230469,0 -2.027344,2.0742188 -2.027344,3.5390625 0,0.7382813 0.199219,1.5234375 0.984375,1.5234375 1.253907,0 1.992188,-2.0976562 1.992188,-3.5859375 0.01172,-0.7617187 -0.199219,-1.4765625 -0.949219,-1.4765625 z m -1.3125,2.2617188 c 0.199219,-1.0429688 0.65625,-2.0273438 1.207031,-2.0273438 0.46875,0 0.503907,0.6914063 0.503907,1.0664063 0,0.3164062 -0.03516,0.6210937 -0.08203,0.9609375 z m 1.582031,0.328125 c -0.199218,1.1132812 -0.632812,2.2265625 -1.21875,2.2265625 -0.410156,0 -0.527343,-0.5976563 -0.527343,-1.1484375 0,-0.3632813 0.04687,-0.7148438 0.105468,-1.078125 z M 65.184961,5.7020125 c -1.230469,0 -2.027344,2.0742187 -2.027344,3.5390625 0,0.7382812 0.199219,1.523437 0.984375,1.523437 1.253906,0 1.992188,-2.0976558 1.992188,-3.585937 C 66.1459,6.4168562 65.934961,5.7020125 65.184961,5.7020125 Z m -1.3125,2.2617187 c 0.199219,-1.0429687 0.65625,-2.0273437 1.207031,-2.0273437 0.46875,0 0.503906,0.6914062 0.503906,1.0664062 0,0.3164063 -0.03516,0.6210938 -0.08203,0.9609375 z m 1.582031,0.328125 c -0.199219,1.1132813 -0.632812,2.2265628 -1.21875,2.2265628 -0.410156,0 -0.527344,-0.5976565 -0.527344,-1.1484378 0,-0.3632812 0.04687,-0.7148437 0.105469,-1.078125 z M 48.022852,61.515489 c -0.199219,0.269531 -0.363282,0.398438 -0.445313,0.398438 -0.117187,0 -0.164062,-0.316407 -0.28125,-1.230469 0.28125,-0.386719 0.644531,-0.914063 0.925781,-1.40625 l -0.07031,-0.05859 -0.375,0.09375 c -0.140625,0.28125 -0.316406,0.65625 -0.515625,0.972656 h -0.02344 c -0.117187,-0.726562 -0.269531,-1.066406 -0.703125,-1.066406 -0.738281,0 -1.6875,0.996094 -1.6875,2.121094 -0.01172,0.644531 0.257813,1.101562 0.65625,1.101562 0.421875,0 0.902344,-0.421875 1.347657,-1.113281 h 0.01172 c 0.08203,0.84375 0.210938,1.113281 0.433594,1.113281 0.246094,0 0.550781,-0.234375 0.878906,-0.796875 z m -1.6875,-2.015625 c 0.316406,0 0.421875,0.679688 0.480468,1.464844 -0.421875,0.738281 -0.796875,1.03125 -1.042968,1.03125 -0.1875,0 -0.351563,-0.269531 -0.339844,-0.773438 0,-0.890625 0.46875,-1.722656 0.902344,-1.722656 z m 0,0"
           style="fill:#231f20;fill-opacity:1;fill-rule:nonzero;stroke:none" />
        <path
           id="path10"
           d="m 25.812891,-8.7354875 h -1.605469 v 0.2578125 c 0.492187,0.082031 0.539062,0.1875 0.421875,0.5390625 -0.199219,0.609375 -0.480469,1.4296875 -0.714844,1.9570312 -0.175781,-0.46875 -0.515625,-1.3710937 -0.738281,-2.0039062 -0.128906,-0.3398438 -0.09375,-0.4101563 0.351562,-0.4921875 v -0.2578125 h -2.085937 v 0.2578125 c 0.457031,0.09375 0.550781,0.1875 0.726562,0.6210937 0.433594,1.0429688 0.84375,2.0742188 1.277344,3.1757813 h 0.316406 c 0.515625,-1.359375 0.972657,-2.4375 1.289063,-3.1523438 0.210937,-0.46875 0.304687,-0.5625 0.761719,-0.6445312 z m 0,0"
           style="fill:#231f20;fill-opacity:1;fill-rule:nonzero;stroke:none" />
        <path
           id="path11"
           d="m 26.372461,-7.1300188 0.410156,-0.8671875 c 0.117188,-0.2460937 0.1875,-0.4101562 0.210938,-0.4921875 0.02344,-0.058594 0.03516,-0.1054687 0.03516,-0.140625 0,-0.058594 -0.02344,-0.1171875 -0.05859,-0.1523437 -0.04687,-0.046875 -0.09375,-0.058594 -0.175781,-0.058594 -0.08203,0 -0.152344,0.023437 -0.222656,0.082031 -0.07031,0.046875 -0.117188,0.140625 -0.152344,0.2578125 -0.02344,0.082031 -0.05859,0.2578125 -0.08203,0.5039062 l -0.09375,0.8671875 z m 2.109375,3.5830079 c -0.04687,0.09375 -0.105469,0.1523437 -0.1875,0.1992187 -0.05859,0.046875 -0.128906,0.082031 -0.222656,0.1054688 -0.08203,0.011719 -0.234375,0.023437 -0.433594,0.023437 h -1.03125 c 0.117187,-0.1054688 0.410156,-0.421875 0.902344,-0.9609375 0.316406,-0.3515625 0.550781,-0.6914063 0.703125,-0.9960938 0.09375,-0.2109375 0.140625,-0.4101562 0.140625,-0.609375 0,-0.28125 -0.105469,-0.5273437 -0.328125,-0.7265625 -0.210938,-0.2109375 -0.480469,-0.3164062 -0.808594,-0.3164062 -0.292969,0 -0.550781,0.09375 -0.75,0.28125 -0.210938,0.1992187 -0.328125,0.46875 -0.386719,0.8320312 h 0.117188 c 0.07031,-0.2109375 0.1875,-0.3867187 0.339843,-0.4921875 0.152344,-0.1171875 0.339844,-0.1757812 0.527344,-0.1757812 0.210938,0 0.398438,0.082031 0.550781,0.2460937 0.152344,0.1640625 0.234375,0.375 0.234375,0.6210938 0,0.328125 -0.140625,0.6914062 -0.421875,1.0898437 -0.28125,0.3984375 -0.761718,0.9140625 -1.453125,1.546875 v 0.1054688 h 2.34375 l 0.269532,-0.7734375 z m 0,0"
           style="fill:#231f20;fill-opacity:1;fill-rule:nonzero;stroke:none" />
        <path
           id="path12"
           d="m 94.095117,5.2654891 h -1.605469 v 0.2578125 c 0.492188,0.082031 0.539063,0.1875 0.421875,0.5390625 C 92.712305,6.6717391 92.431055,7.4920516 92.19668,8.0193953 92.020898,7.5506453 91.681055,6.6483016 91.458398,6.0154891 91.329492,5.6756453 91.364648,5.6053328 91.809961,5.5233016 V 5.2654891 h -2.085938 v 0.2578125 c 0.457032,0.09375 0.550782,0.1875 0.726563,0.6210937 0.433594,1.0429688 0.84375,2.0742188 1.277344,3.1757813 h 0.316406 c 0.515625,-1.359375 0.972656,-2.4375 1.289062,-3.1523438 0.210938,-0.46875 0.304688,-0.5625 0.761719,-0.6445312 z m 0,0"
           style="fill:#231f20;fill-opacity:1;fill-rule:nonzero;stroke:none" />
        <path
           id="path13"
           d="m 94.654687,6.8709578 0.410157,-0.8671875 c 0.117187,-0.2460937 0.1875,-0.4101562 0.210937,-0.4921875 0.02344,-0.058594 0.03516,-0.1054687 0.03516,-0.140625 0,-0.058594 -0.02344,-0.1171875 -0.05859,-0.1523437 -0.04687,-0.046875 -0.09375,-0.058594 -0.175782,-0.058594 -0.08203,0 -0.152343,0.023437 -0.222656,0.082031 -0.07031,0.046875 -0.117187,0.140625 -0.152344,0.2578125 -0.02344,0.082031 -0.05859,0.2578125 -0.08203,0.5039062 l -0.09375,0.8671875 z m 0.210938,0.8642578 c 0.128906,-0.070312 0.234375,-0.09375 0.304687,-0.09375 0.04687,0 0.09375,0.011719 0.128907,0.035156 0.03516,0.035156 0.05859,0.082031 0.07031,0.140625 0.02344,0.082031 0.03516,0.2695312 0.03516,0.5625 v 2.1445314 c 0,0.246094 -0.01172,0.386719 -0.03516,0.433594 -0.02344,0.04687 -0.05859,0.08203 -0.105469,0.117187 -0.05859,0.02344 -0.1875,0.03516 -0.363281,0.04687 v 0.105469 h 1.5 v -0.105469 c -0.1875,-0.01172 -0.304687,-0.02344 -0.363281,-0.04687 -0.05859,-0.03516 -0.09375,-0.07031 -0.117188,-0.128906 -0.01172,-0.05859 -0.02344,-0.199219 -0.02344,-0.421875 V 7.1727156 h -0.105469 l -0.972656,0.46875 z m 0,0"
           style="fill:#231f20;fill-opacity:1;fill-rule:nonzero;stroke:none" />
        <path
           id="path14"
           d="m 69.936914,44.523302 h -1.605469 v 0.257812 c 0.492188,0.08203 0.539063,0.1875 0.421875,0.539063 -0.199218,0.609375 -0.480468,1.429687 -0.714843,1.957031 -0.175782,-0.46875 -0.515625,-1.371094 -0.738282,-2.003906 -0.128906,-0.339844 -0.09375,-0.410157 0.351563,-0.492188 V 44.523302 H 65.56582 v 0.257812 c 0.457032,0.09375 0.550782,0.1875 0.726563,0.621094 0.433594,1.042969 0.84375,2.074219 1.277344,3.175781 h 0.316406 c 0.515625,-1.359375 0.972656,-2.4375 1.289062,-3.152344 0.210938,-0.46875 0.304688,-0.5625 0.761719,-0.644531 z m 0,0"
           style="fill:#231f20;fill-opacity:1;fill-rule:nonzero;stroke:none" />
        <path
           id="path15"
           d="m 70.763086,44.945177 0.609375,-1.289063 c 0.175781,-0.386719 0.28125,-0.621094 0.316406,-0.738281 0.03516,-0.08203 0.04687,-0.152344 0.04687,-0.222656 0,-0.09375 -0.02344,-0.164063 -0.08203,-0.222657 -0.07031,-0.05859 -0.152344,-0.09375 -0.257813,-0.09375 -0.128906,0 -0.246093,0.03516 -0.339843,0.117188 -0.105469,0.08203 -0.175782,0.222656 -0.234375,0.398437 -0.03516,0.128907 -0.08203,0.375 -0.117188,0.761719 l -0.140625,1.289063 z m 0,0"
           style="fill:#231f20;fill-opacity:1;fill-rule:nonzero;stroke:none" />
        <path
           id="path16"
           d="m 56.902734,38.168809 h -1.605468 v 0.257813 c 0.492187,0.08203 0.539062,0.1875 0.421875,0.539062 -0.199219,0.609375 -0.480469,1.429688 -0.714844,1.957032 -0.175781,-0.46875 -0.515625,-1.371094 -0.738281,-2.003907 -0.128907,-0.339843 -0.09375,-0.410156 0.351562,-0.492187 v -0.257813 h -2.085937 v 0.257813 c 0.457031,0.09375 0.550781,0.1875 0.726562,0.621094 0.433594,1.042968 0.84375,2.074218 1.277344,3.175781 h 0.316406 c 0.515625,-1.359375 0.972656,-2.4375 1.289063,-3.152344 0.210937,-0.46875 0.304687,-0.5625 0.761718,-0.644531 z m 0,0"
           style="fill:#231f20;fill-opacity:1;fill-rule:nonzero;stroke:none" />
      </g>
      <path
         id="path17"
         d="M 30.0781,591.586 C -57.7891,677.48 71.2813,771.863 318.352,802.414 565.422,832.957 836.941,788.09 924.824,702.199 1012.69,616.316 883.621,521.922 636.555,491.379 389.48,460.828 117.949,505.695 30.0781,591.586 Z"
         style="fill:none;stroke:#231f20;stroke-width:5;stroke-linecap:butt;stroke-linejoin:miter;stroke-miterlimit:10;stroke-dasharray:none;stroke-opacity:1"
         transform="matrix(0.13333333,0,0,-0.13333333,0,172.10667)" />
      <path
         id="path18"
         d="m 475.984,646.594 -10.718,10.484"
         style="fill:none;stroke:#231f20;stroke-width:5;stroke-linecap:butt;stroke-linejoin:miter;stroke-miterlimit:10;stroke-dasharray:none;stroke-opacity:1"
         transform="matrix(0.13333333,0,0,-0.13333333,0,172.10667)" />
      <path
         id="path19"
         d="m 451.875,670.16 -93.66,91.559"
         style="fill:none;stroke:#231f20;stroke-width:5;stroke-linecap:butt;stroke-linejoin:miter;stroke-miterlimit:10;stroke-dasharray:28.0681, 18.7121;stroke-dashoffset:0;stroke-opacity:1"
         transform="matrix(0.13333333,0,0,-0.13333333,0,172.10667)" />
      <path
         id="path20"
         d="m 351.516,768.254 -10.723,10.488"
         style="fill:none;stroke:#231f20;stroke-width:5;stroke-linecap:butt;stroke-linejoin:miter;stroke-miterlimit:10;stroke-dasharray:none;stroke-opacity:1"
         transform="matrix(0.13333333,0,0,-0.13333333,0,172.10667)" />
      <path
         id="path21"
         d="m 345.93,773.723 -3.813,-16.434 -0.574,0.113 -10.281,23.098 c -4.602,7.012 -9.192,14.023 -13.789,21.035 7.105,-4.433 14.226,-8.871 21.343,-13.305 l 23.325,-9.75 0.183,-0.519 -16.394,-4.238"
         style="fill:#231f20;fill-opacity:1;fill-rule:nonzero;stroke:none"
         transform="matrix(0.13333333,0,0,-0.13333333,0,172.10667)" />
      <path
         id="path22"
         d="m 474.402,646.859 14.883,1.84"
         style="fill:none;stroke:#231f20;stroke-width:5;stroke-linecap:butt;stroke-linejoin:miter;stroke-miterlimit:10;stroke-dasharray:none;stroke-opacity:1"
         transform="matrix(0.13333333,0,0,-0.13333333,0,172.10667)" />
      <path
         id="path23"
         d="m 510.117,651.273 354.102,43.786"
         style="fill:none;stroke:#231f20;stroke-width:5;stroke-linecap:butt;stroke-linejoin:miter;stroke-miterlimit:10;stroke-dasharray:31.482, 20.988;stroke-dashoffset:0;stroke-opacity:1"
         transform="matrix(0.13333333,0,0,-0.13333333,0,172.10667)" />
      <path
         id="path24"
         d="m 874.641,696.348 14.879,1.84"
         style="fill:none;stroke:#231f20;stroke-width:5;stroke-linecap:butt;stroke-linejoin:miter;stroke-miterlimit:10;stroke-dasharray:none;stroke-opacity:1"
         transform="matrix(0.13333333,0,0,-0.13333333,0,172.10667)" />
      <path
         id="path25"
         d="m 882.395,697.305 -10.469,13.226 0.445,0.387 24.477,-6.383 c 8.347,-0.781 16.687,-1.562 25.039,-2.347 -7.903,-2.793 -15.813,-5.586 -23.711,-8.379 l -22.18,-12.145 -0.516,0.18 6.915,15.461"
         style="fill:#231f20;fill-opacity:1;fill-rule:nonzero;stroke:none"
         transform="matrix(0.13333333,0,0,-0.13333333,0,172.10667)" />
      <path
         id="path26"
         d="M 477.063,647.133 139.836,741.43"
         style="fill:none;stroke:#231f20;stroke-width:5;stroke-linecap:butt;stroke-linejoin:miter;stroke-miterlimit:10;stroke-dasharray:none;stroke-opacity:1"
         transform="matrix(0.13333333,0,0,-0.13333333,0,172.10667)" />
      <path
         id="path27"
         d="m 146.746,739.496 4.563,-16.242 -0.567,-0.184 -20.117,15.317 c -7.395,3.941 -14.797,7.883 -22.195,11.82 8.367,-0.469 16.734,-0.941 25.105,-1.41 l 25.149,2.66 0.41,-0.363 -12.348,-11.598"
         style="fill:#231f20;fill-opacity:1;fill-rule:nonzero;stroke:none"
         transform="matrix(0.13333333,0,0,-0.13333333,0,172.10667)" />
      <path
         id="path28"
         d="M 475.305,647.07 743.047,762.781"
         style="fill:none;stroke:#231f20;stroke-width:5;stroke-linecap:butt;stroke-linejoin:miter;stroke-miterlimit:10;stroke-dasharray:none;stroke-opacity:1"
         transform="matrix(0.13333333,0,0,-0.13333333,0,172.10667)" />
      <path
         id="path29"
         d="m 736.453,759.93 -13.758,9.75 0.325,0.5 25.273,0.75 c 8.223,1.597 16.453,3.195 24.687,4.785 -6.796,-4.902 -13.605,-9.805 -20.402,-14.707 l -17.871,-17.891 -0.547,0.035 2.293,16.778"
         style="fill:#231f20;fill-opacity:1;fill-rule:nonzero;stroke:none"
         transform="matrix(0.13333333,0,0,-0.13333333,0,172.10667)" />
      <path
         id="path30"
         d="M 476.785,646.594 V 1151.43"
         style="fill:none;stroke:#231f20;stroke-width:7.5;stroke-linecap:butt;stroke-linejoin:miter;stroke-miterlimit:10;stroke-dasharray:none;stroke-opacity:1"
         transform="matrix(0.13333333,0,0,-0.13333333,0,172.10667)" />
      <path
         id="path31"
         d="m 476.785,1141.33 -20.262,-12.33 -0.46,0.7 13.125,33.04 c 2.531,11.52 5.058,23.03 7.597,34.55 2.531,-11.52 5.07,-23.03 7.602,-34.55 l 13.125,-33.04 -0.344,-0.7 -20.383,12.33"
         style="fill:#231f20;fill-opacity:1;fill-rule:nonzero;stroke:none"
         transform="matrix(0.13333333,0,0,-0.13333333,0,172.10667)" />
      <path
         id="path32"
         d="M 476.785,1.33984 V 600.734"
         style="fill:none;stroke:#231f20;stroke-width:7.5;stroke-linecap:butt;stroke-linejoin:miter;stroke-miterlimit:10;stroke-dasharray:none;stroke-opacity:1"
         transform="matrix(0.13333333,0,0,-0.13333333,0,172.10667)" />
      <path
         id="path33"
         d="m 476.785,590.645 -20.262,-12.332 -0.46,0.695 13.125,33.047 c 2.531,11.511 5.058,23.027 7.597,34.539 2.531,-11.512 5.07,-23.028 7.602,-34.539 l 13.125,-33.047 -0.344,-0.695 -20.383,12.332"
         style="fill:#231f20;fill-opacity:1;fill-rule:nonzero;stroke:none"
         transform="matrix(0.13333333,0,0,-0.13333333,0,172.10667)" />
      <path
         id="path34"
         d="M 476.785,1.33984 902.734,672.414"
         style="fill:none;stroke:#231f20;stroke-width:5;stroke-linecap:butt;stroke-linejoin:miter;stroke-miterlimit:10;stroke-dasharray:none;stroke-opacity:1"
         transform="matrix(0.13333333,0,0,-0.13333333,0,172.10667)" />
      <path
         id="path35"
         d="m 898.887,666.352 -16.867,0.32 -0.016,0.594 20.476,14.836 c 5.911,5.949 11.817,11.894 17.723,17.843 -2.867,-7.875 -5.73,-15.757 -8.601,-23.632 l -4.707,-24.844 -0.477,-0.285 -7.531,15.168"
         style="fill:#231f20;fill-opacity:1;fill-rule:nonzero;stroke:none"
         transform="matrix(0.13333333,0,0,-0.13333333,0,172.10667)" />
      <path
         id="path36"
         d="M 758.586,745.625 479.07,6.01953"
         style="fill:none;stroke:#231f20;stroke-width:5;stroke-linecap:butt;stroke-linejoin:miter;stroke-miterlimit:10;stroke-dasharray:none;stroke-opacity:1"
         transform="matrix(0.13333333,0,0,-0.13333333,0,172.10667)" />
      <path
         id="path37"
         d="m 756.055,738.906 10.383,-13.293 0.476,0.34 -0.43,25.285 c 1.211,8.297 2.422,16.59 3.633,24.887 -4.582,-7.02 -9.16,-14.043 -13.738,-21.062 l -17.043,-18.684 0.059,-0.551 16.66,3.078"
         style="fill:#231f20;fill-opacity:1;fill-rule:nonzero;stroke:none"
         transform="matrix(0.13333333,0,0,-0.13333333,0,172.10667)" />
      <path
         id="path38"
         d="m 477.449,149.02 c 0.903,0.011 1.781,0.019 2.68,0.019 17.461,0 34.195,-3.051 49.726,-8.641"
         style="fill:none;stroke:#231f20;stroke-width:5;stroke-linecap:butt;stroke-linejoin:miter;stroke-miterlimit:10;stroke-dasharray:none;stroke-opacity:1"
         transform="matrix(0.13333333,0,0,-0.13333333,0,172.10667)" />
      <path
         id="path39"
         d="m 431.594,690.004 c -22.676,-2.66 -42.473,-7.481 -57.383,-13.766"
         style="fill:none;stroke:#231f20;stroke-width:5;stroke-linecap:butt;stroke-linejoin:miter;stroke-miterlimit:10;stroke-dasharray:none;stroke-opacity:1"
         transform="matrix(0.13333333,0,0,-0.13333333,0,172.10667)" />
      <path
         id="path40"
         d="m 593.328,661.563 c -7.207,7.863 -20.562,14.773 -38.125,20.039"
         style="fill:none;stroke:#231f20;stroke-width:5;stroke-linecap:butt;stroke-linejoin:miter;stroke-miterlimit:10;stroke-dasharray:none;stroke-opacity:1"
         transform="matrix(0.13333333,0,0,-0.13333333,0,172.10667)" />
    </g>
  </g>
</svg>
