<?xml version="1.0" encoding="UTF-8" standalone="no"?>
<!-- Created with Inkscape (http://www.inkscape.org/) -->

<svg
   version="1.1"
   id="svg1"
   width="195.96001"
   height="95.773331"
   viewBox="0 0 195.96001 95.773331"
   sodipodi:docname="pha03f11.eps"
   xmlns:inkscape="http://www.inkscape.org/namespaces/inkscape"
   xmlns:sodipodi="http://sodipodi.sourceforge.net/DTD/sodipodi-0.dtd"
   xmlns="http://www.w3.org/2000/svg"
   xmlns:svg="http://www.w3.org/2000/svg">
  <defs
     id="defs1" />
  <sodipodi:namedview
     id="namedview1"
     pagecolor="#ffffff"
     bordercolor="#000000"
     borderopacity="0.25"
     inkscape:showpageshadow="2"
     inkscape:pageopacity="0.0"
     inkscape:pagecheckerboard="0"
     inkscape:deskcolor="#d1d1d1">
    <inkscape:page
       x="0"
       y="0"
       inkscape:label="1"
       id="page1"
       width="195.96001"
       height="95.773331"
       margin="0"
       bleed="0" />
  </sodipodi:namedview>
  <g
     id="g1"
     inkscape:groupmode="layer"
     inkscape:label="1">
    <g
       id="group-R5">
      <path
         id="path2"
         d="M 1212.7,56.1563 H 250.742 V 601.152 H 1212.7 Z"
         style="fill:none;stroke:#231f20;stroke-width:5;stroke-linecap:butt;stroke-linejoin:miter;stroke-miterlimit:10;stroke-dasharray:none;stroke-opacity:1"
         transform="matrix(0.13333333,0,0,-0.13333333,0,95.773333)" />
      <path
         id="path3"
         d="m 1.1368359,1.9107953 h 0.421875 v -2.21484374 c 0.328125,0.2578125 0.75,0.3984375 1.171875,0.3984375 0.6445313,0 1.8632813,-0.5390625 1.8632813,-2.43749996 0,-1.875 -1.0429688,-2.5195313 -1.8398438,-2.5195313 -0.5625,0 -1.0195312,0.2929688 -1.265625,0.7851563 h -0.011719 l -0.1640625,-0.7851563 -0.39843751,0.058594 c 0.17578121,0.5625 0.22265621,1.1367187 0.22265621,1.7109375 z m 0.421875,-5.4609375 c 0.234375,-0.5039062 0.5507813,-0.9492187 1.1835938,-0.9492187 0.5390625,0 1.4296875,0.46875 1.4296875,2.1210937 0,1.73437501 -1.0078125,2.12109376 -1.5585938,2.12109376 -0.3984375,0 -0.7617187,-0.2109375 -1.0546875,-0.46875 z m 6.5361329,0.6328125 -1.4765625,-3.5625 H 6.16125 V 6.390625e-4 H 6.583125 V -5.6009234 l 0.011719,-0.023437 1.5,3.5976562 1.5117187,-3.5976562 h 0.011719 V 6.390625e-4 H 10.040156 V -6.4798297 H 9.5714063 Z m 6.8994142,2.96484376 c -0.128906,-0.3984375 -0.246094,-0.83203125 -0.234375,-1.28906246 l 0.05859,-1.9453125 c 0.02344,-1.0546875 -0.503907,-1.6757813 -1.371094,-1.6757813 -0.457031,0 -0.855469,0.1289063 -1.265625,0.2929688 l 0.09375,0.3867187 c 0.375,-0.1757812 0.726562,-0.3164062 1.136719,-0.3164062 0.785156,0 1.007812,0.5039062 0.972656,1.7109375 -0.328125,-0.1640625 -0.773438,-0.3164063 -1.160156,-0.3164063 -0.914063,0 -1.429688,0.7851563 -1.429688,1.6875 0,0.80859376 0.457031,1.51171876 1.324219,1.51171876 0.621094,0 0.972656,-0.328125 1.3125,-0.80859375 0.02344,0.26953125 0.08203,0.55078125 0.175781,0.80859375 z M 14.361445,-1.2181109 c -0.28125,0.48046871 -0.644531,0.96093746 -1.242187,0.96093746 -0.597656,0 -0.902344,-0.5859375 -0.902344,-1.12499996 0,-0.6914063 0.316406,-1.359375 1.113281,-1.359375 0.375,0 0.738282,0.1289062 1.03125,0.28125 z m 6.196289,-3.5390625 h -0.457031 l -1.207031,1.8632812 -1.21875,-1.8632812 h -0.492188 l 1.476563,2.203125 -1.839844,2.5546874625 h 0.5625 L 18.893672,-2.2727984 20.405391,6.390625e-4 h 0.574218 L 19.128047,-2.5774859 Z M -124.23328,57.733061 h 0.42187 v -2.214844 c 0.32813,0.257813 0.75,0.398438 1.17188,0.398438 0.64453,0 1.86328,-0.539063 1.86328,-2.4375 0,-1.875 -1.04297,-2.519532 -1.83984,-2.519532 -0.5625,0 -1.01953,0.292969 -1.26563,0.785157 h -0.0117 l -0.16406,-0.785157 -0.39844,0.05859 c 0.17578,0.5625 0.22266,1.136719 0.22266,1.710938 z m 0.42187,-5.460938 c 0.23438,-0.503906 0.55079,-0.949218 1.1836,-0.949218 0.53906,0 1.42969,0.46875 1.42969,2.121093 0,1.734375 -1.00782,2.121094 -1.5586,2.121094 -0.39844,0 -0.76172,-0.210937 -1.05469,-0.46875 z m 6.53614,0.632813 -1.47657,-3.5625 h -0.45703 v 6.480469 h 0.42188 v -5.601563 l 0.0117,-0.02344 1.5,3.597656 1.51172,-3.597656 h 0.0117 v 5.625 h 0.42188 v -6.480469 h -0.46875 z m 5.30566,2.917969 h 0.42188 v -4.757813 h -1.80469 v 0.351563 h 1.38281 z m 0.19922,-6.609375 c -0.25781,0 -0.46875,0.210937 -0.46875,0.46875 0,0.257812 0.21094,0.46875 0.46875,0.46875 0.25781,0 0.48047,-0.210938 0.48047,-0.46875 0,-0.257813 -0.22266,-0.46875 -0.48047,-0.46875 z m 4.11035,4.652343 c 0,-1.863281 0.92578,-2.542968 1.60547,-2.542968 0.73828,0 0.73828,0.761718 0.73828,1.300781 v 3.199219 h 0.43359 v -3.398438 c 0,-0.714844 -0.24609,-1.464844 -1.11328,-1.464844 -0.75,0 -1.51172,0.703125 -1.6875,1.417969 h -0.0234 l -0.16407,-1.371094 h -0.39843 c 0.16406,0.808594 0.1875,1.617188 0.1875,2.425782 v 2.390625 h 0.42187 z m 0,0"
         style="fill:#231f20;fill-opacity:1;fill-rule:nonzero;stroke:none"
         aria-label="pMax&#10;pMin"
         transform="matrix(1.3333333,0,0,1.3333333,167.16,17.885867)" />
      <path
         id="path4"
         d="m 1229.7,601.152 c 0,9.383 -7.61,16.996 -17,16.996 -9.39,0 -17,-7.613 -17,-16.996 0,-9.382 7.61,-16.996 17,-16.996 9.39,0 17,7.614 17,16.996"
         style="fill:#231f20;fill-opacity:1;fill-rule:evenodd;stroke:none"
         transform="matrix(0.13333333,0,0,-0.13333333,0,95.773333)" />
      <path
         id="path5"
         d="m 1229.7,601.152 c 0,9.383 -7.61,16.996 -17,16.996 -9.39,0 -17,-7.613 -17,-16.996 0,-9.382 7.61,-16.996 17,-16.996 9.39,0 17,7.614 17,16.996 z"
         style="fill:none;stroke:#231f20;stroke-width:5;stroke-linecap:butt;stroke-linejoin:miter;stroke-miterlimit:10;stroke-dasharray:none;stroke-opacity:1"
         transform="matrix(0.13333333,0,0,-0.13333333,0,95.773333)" />
      <path
         id="path6"
         d="m 267.742,56.1563 c 0,9.3906 -7.613,16.996 -17,16.996 -9.387,0 -17.004,-7.6054 -17.004,-16.996 0,-9.3868 7.617,-17.0079 17.004,-17.0079 9.387,0 17,7.6211 17,17.0079"
         style="fill:#231f20;fill-opacity:1;fill-rule:evenodd;stroke:none"
         transform="matrix(0.13333333,0,0,-0.13333333,0,95.773333)" />
      <path
         id="path7"
         d="m 267.742,56.1563 c 0,9.3906 -7.613,16.996 -17,16.996 -9.387,0 -17.004,-7.6054 -17.004,-16.996 0,-9.3868 7.617,-17.0079 17.004,-17.0079 9.387,0 17,7.6211 17,17.0079 z"
         style="fill:none;stroke:#231f20;stroke-width:5;stroke-linecap:butt;stroke-linejoin:miter;stroke-miterlimit:10;stroke-dasharray:none;stroke-opacity:1"
         transform="matrix(0.13333333,0,0,-0.13333333,0,95.773333)" />
      <path
         id="path8"
         d="m 131.703,698.801 c 0,9.383 -7.617,16.996 -17.008,16.996 -9.379,0 -16.9958,-7.613 -16.9958,-16.996 0,-9.387 7.6168,-16.992 16.9958,-16.992 9.391,0 17.008,7.605 17.008,16.992 z"
         style="fill:none;stroke:#231f20;stroke-width:5;stroke-linecap:butt;stroke-linejoin:miter;stroke-miterlimit:10;stroke-dasharray:none;stroke-opacity:1"
         transform="matrix(0.13333333,0,0,-0.13333333,0,95.773333)" />
      <path
         id="path9"
         d="m 1377.02,300.867 c 0,9.387 -7.61,17 -16.99,17 -9.4,0 -17,-7.613 -17,-17 0,-9.383 7.6,-16.996 17,-16.996 9.38,0 16.99,7.613 16.99,16.996 z"
         style="fill:none;stroke:#231f20;stroke-width:5;stroke-linecap:butt;stroke-linejoin:miter;stroke-miterlimit:10;stroke-dasharray:none;stroke-opacity:1"
         transform="matrix(0.13333333,0,0,-0.13333333,0,95.773333)" />
    </g>
  </g>
</svg>
