<?xml version="1.0" encoding="UTF-8" standalone="no"?>
<!-- Created with Inkscape (http://www.inkscape.org/) -->

<svg
   version="1.1"
   id="svg1"
   width="296.89334"
   height="182.09332"
   viewBox="0 0 296.89334 182.09332"
   sodipodi:docname="pha03f02.eps"
   xmlns:inkscape="http://www.inkscape.org/namespaces/inkscape"
   xmlns:sodipodi="http://sodipodi.sourceforge.net/DTD/sodipodi-0.dtd"
   xmlns="http://www.w3.org/2000/svg"
   xmlns:svg="http://www.w3.org/2000/svg">
  <defs
     id="defs1" />
  <sodipodi:namedview
     id="namedview1"
     pagecolor="#ffffff"
     bordercolor="#000000"
     borderopacity="0.25"
     inkscape:showpageshadow="2"
     inkscape:pageopacity="0.0"
     inkscape:pagecheckerboard="0"
     inkscape:deskcolor="#d1d1d1">
    <inkscape:page
       x="0"
       y="0"
       inkscape:label="1"
       id="page1"
       width="296.89334"
       height="182.09332"
       margin="0"
       bleed="0" />
  </sodipodi:namedview>
  <g
     id="g1"
     inkscape:groupmode="layer"
     inkscape:label="1">
    <g
       id="group-R5">
      <path
         id="path2"
         d="M 19.5117,1230.88 V 633.914 H 618.672"
         style="fill:none;stroke:#231f20;stroke-width:5;stroke-linecap:butt;stroke-linejoin:miter;stroke-miterlimit:10;stroke-dasharray:none;stroke-opacity:1"
         transform="matrix(0.13333333,0,0,-0.13333333,0,182.09333)" />
      <path
         id="path3"
         d="m 19.5117,1223.7 14.4141,-8.77 0.3203,0.5 -9.3281,23.5 c -1.8047,8.18 -3.6055,16.37 -5.4063,24.56 -1.8008,-8.19 -3.6054,-16.38 -5.4062,-24.56 l -9.33206,-23.5 0.24609,-0.5 14.49217,8.77"
         style="fill:#231f20;fill-opacity:1;fill-rule:nonzero;stroke:none"
         transform="matrix(0.13333333,0,0,-0.13333333,0,182.09333)" />
      <path
         id="path4"
         d="m 611.488,633.914 -8.761,14.414 0.492,0.32 23.5,-9.328 c 8.183,-1.804 16.371,-3.605 24.558,-5.406 -8.187,-1.801 -16.375,-3.605 -24.558,-5.406 l -23.5,-9.332 -0.492,0.246 8.761,14.492"
         style="fill:#231f20;fill-opacity:1;fill-rule:nonzero;stroke:none"
         transform="matrix(0.13333333,0,0,-0.13333333,0,182.09333)" />
      <path
         id="path5"
         d="M 441.68,1056.21 19.5586,634.09"
         style="fill:none;stroke:#231f20;stroke-width:5;stroke-linecap:butt;stroke-linejoin:miter;stroke-miterlimit:10;stroke-dasharray:none;stroke-opacity:1"
         transform="matrix(0.13333333,0,0,-0.13333333,0,182.09333)" />
      <path
         id="path6"
         d="m 436.602,1051.14 3.996,-16.4 0.574,0.12 10.019,23.22 c 4.512,7.06 9.028,14.12 13.543,21.19 -7.058,-4.52 -14.125,-9.03 -21.187,-13.54 l -23.215,-10.02 -0.176,-0.53 16.446,-4.04"
         style="fill:#231f20;fill-opacity:1;fill-rule:nonzero;stroke:none"
         transform="matrix(0.13333333,0,0,-0.13333333,0,182.09333)" />
      <path
         id="path7"
         d="M 1530.25,1230.88 V 633.914 h 599.16"
         style="fill:none;stroke:#231f20;stroke-width:5;stroke-linecap:butt;stroke-linejoin:miter;stroke-miterlimit:10;stroke-dasharray:none;stroke-opacity:1"
         transform="matrix(0.13333333,0,0,-0.13333333,0,182.09333)" />
      <path
         id="path8"
         d="m 1530.25,1223.7 14.42,-8.77 0.32,0.5 -9.34,23.5 c -1.79,8.18 -3.59,16.37 -5.4,24.56 -1.79,-8.19 -3.6,-16.38 -5.4,-24.56 l -9.33,-23.5 0.24,-0.5 14.49,8.77"
         style="fill:#231f20;fill-opacity:1;fill-rule:nonzero;stroke:none"
         transform="matrix(0.13333333,0,0,-0.13333333,0,182.09333)" />
      <path
         id="path9"
         d="m 2122.24,633.914 -8.77,14.414 0.49,0.32 23.5,-9.328 c 8.18,-1.804 16.38,-3.605 24.56,-5.406 -8.18,-1.801 -16.38,-3.605 -24.56,-5.406 l -23.5,-9.332 -0.49,0.246 8.77,14.492"
         style="fill:#231f20;fill-opacity:1;fill-rule:nonzero;stroke:none"
         transform="matrix(0.13333333,0,0,-0.13333333,0,182.09333)" />
      <path
         id="path10"
         d="M 1530.73,635.32 1108.6,213.199"
         style="fill:none;stroke:#231f20;stroke-width:5;stroke-linecap:butt;stroke-linejoin:miter;stroke-miterlimit:10;stroke-dasharray:none;stroke-opacity:1"
         transform="matrix(0.13333333,0,0,-0.13333333,0,182.09333)" />
      <path
         id="path11"
         d="m 1113.68,218.27 16.4,-3.989 -0.12,-0.582 -23.22,-10.019 c -7.07,-4.508 -14.12,-9.02 -21.19,-13.539 4.51,7.058 9.03,14.129 13.54,21.187 l 10.02,23.223 0.52,0.168 4.05,-16.449"
         style="fill:#231f20;fill-opacity:1;fill-rule:nonzero;stroke:none"
         transform="matrix(0.13333333,0,0,-0.13333333,0,182.09333)" />
      <g
         id="g11"
         aria-label="x&#10;(a)(b)&#10;yy&#10;x&#10;z"
         transform="matrix(1.3333333,0,0,1.3333333,88.911467,100.0824)">
        <path
           id="path12"
           d="m 0.77245469,-2.9182453 c 0.31640621,-0.3984375 0.49218751,-0.515625 0.57421871,-0.515625 0.09375,0 0.1757813,0.1289062 0.3046875,0.5742187 l 0.3046875,0.9375 c -0.5625,0.8320313 -0.98437496,1.35937504 -1.24218746,1.35937504 -0.09375,0 -0.1640625,-0.0351563 -0.2109375,-0.09375 -0.046875,-0.0585938 -0.09375,-0.09375 -0.140625,-0.09375 -0.17578125,0 -0.3632812525,0.2109375 -0.3632812525,0.421875 -0.0117187475,0.2578125 0.1757812525,0.43359375 0.4101562525,0.43359375 0.421875,0 0.84374996,-0.43359375 1.64062496,-1.69921879 l 0.28125,0.87890629 c 0.1757813,0.5625 0.3632813,0.8203125 0.5976563,0.8203125 0.3046875,0 0.7265625,-0.328125 1.1367187,-0.97265625 L 3.9130797,-1.0432453 c -0.28125,0.33984374 -0.5039063,0.51562499 -0.6445313,0.51562499 -0.1523437,0 -0.28125,-0.2578125 -0.4570312,-0.82031249 L 2.5185484,-2.2502766 c 0.1992188,-0.28125 0.3984375,-0.5273437 0.5859375,-0.7382812 0.234375,-0.2929688 0.4101563,-0.4453125 0.5390625,-0.4453125 0.082031,0 0.1523438,0.035156 0.2109375,0.1054687 0.046875,0.046875 0.082031,0.070312 0.1289063,0.070312 0.140625,0 0.3398437,-0.1757812 0.3515625,-0.3984375 0,-0.1992187 -0.140625,-0.3867187 -0.375,-0.3867187 -0.3984375,0 -0.7851563,0.3867187 -1.5351563,1.4765625 l -0.1523437,-0.492187 c -0.2226563,-0.6445313 -0.3398438,-0.984375 -0.5859375,-0.984375 -0.2929688,0 -0.69140626,0.3867187 -1.06640626,0.9375 z m 0,0"
           style="fill:#231f20;fill-opacity:1;fill-rule:nonzero;stroke:none" />
        <path
           id="path13"
           d="m -35.438483,59.592497 c -0.890625,-0.761719 -1.40625,-2.203125 -1.40625,-3.75 0,-1.546875 0.515625,-3 1.40625,-3.75 l -0.152344,-0.210938 c -1.324218,0.902344 -1.910156,2.332032 -1.910156,3.949219 0,1.628906 0.585938,3.082031 1.910156,3.960938 z m 4.321289,-1.675781 -0.09375,-0.234375 c -0.09375,0.05859 -0.222656,0.105468 -0.328125,0.105468 -0.152343,0 -0.316406,-0.140625 -0.316406,-0.550781 v -1.664062 c 0,-0.46875 -0.08203,-0.84375 -0.398437,-1.101563 -0.199219,-0.164062 -0.46875,-0.246094 -0.738282,-0.246094 -0.515625,0.105469 -1.101562,0.457032 -1.347656,0.632813 -0.175781,0.128906 -0.292969,0.222656 -0.292969,0.363281 0,0.199219 0.234375,0.386719 0.398438,0.386719 0.128906,0 0.222656,-0.07031 0.257812,-0.210938 0.07031,-0.28125 0.152344,-0.480468 0.269532,-0.597656 0.09375,-0.105469 0.222656,-0.175781 0.410156,-0.175781 0.445312,0 0.75,0.363281 0.75,1.019531 v 0.164063 c -0.199219,0.152343 -0.855469,0.398437 -1.394531,0.574218 -0.492188,0.175782 -0.726563,0.457032 -0.726563,0.902344 0,0.5625 0.445313,1.089844 1.078125,1.089844 0.269531,0 0.703125,-0.328125 1.066406,-0.574219 0.04687,0.152344 0.09375,0.28125 0.210938,0.410156 0.105469,0.08203 0.292969,0.164063 0.421875,0.164063 z m -1.429687,-0.410157 c -0.164063,0.164063 -0.480469,0.316407 -0.714844,0.328125 -0.28125,0 -0.644531,-0.222656 -0.644531,-0.691406 0,-0.328125 0.199219,-0.492187 0.550781,-0.65625 0.1875,-0.09375 0.621094,-0.28125 0.808594,-0.375 z m 1.889648,-5.414062 c 0.890625,0.738281 1.417969,2.203125 1.417969,3.75 0,1.546875 -0.503906,2.988281 -1.417969,3.75 l 0.164063,0.199219 c 1.347656,-0.914063 1.898437,-2.332032 1.898437,-3.949219 0,-1.628906 -0.550781,-3.058594 -1.898437,-3.960938 z m 123.486328,7.5 c -0.890625,-0.761719 -1.40625,-2.203125 -1.40625,-3.75 0,-1.546875 0.515625,-3 1.40625,-3.75 l -0.152343,-0.210938 c -1.324219,0.902344 -1.910157,2.332032 -1.910157,3.949219 0,1.628906 0.585938,3.082031 1.910157,3.960938 z m 1.790039,-4.957031 v -2.777344 c -0.339843,0.117187 -0.890625,0.257812 -1.3125,0.316406 v 0.210938 c 0.585938,0.04687 0.597657,0.105468 0.597657,0.667968 v 5.003907 c 0.492187,0.234375 0.949218,0.316406 1.324218,0.316406 1.207032,0 2.261719,-0.9375 2.261719,-2.261719 0,-1.054687 -0.808594,-1.886719 -1.78125,-1.886719 -0.09375,0 -0.222656,0.02344 -0.363281,0.09375 z m 0,0.269531 c 0.164063,-0.105469 0.445313,-0.175781 0.703125,-0.175781 0.738282,0 1.371094,0.597656 1.371094,1.617187 0,1.054688 -0.480469,1.6875 -1.21875,1.6875 -0.480469,-0.01172 -0.75,-0.328125 -0.808594,-0.503906 -0.03516,-0.08203 -0.04687,-0.175781 -0.04687,-0.304688 z m 3.612305,-2.8125 c 0.890625,0.738281 1.417969,2.203125 1.417969,3.75 0,1.546875 -0.503906,2.988281 -1.417969,3.75 l 0.164063,0.199219 c 1.347656,-0.914063 1.898438,-2.332032 1.898438,-3.949219 0,-1.628906 -0.550782,-3.058594 -1.898438,-3.960938 z m 0,0"
           style="fill:#231f20;fill-opacity:1;fill-rule:nonzero;stroke:none" />
        <path
           id="path14"
           d="m -63.979498,-68.320589 c -0.05859,-0.808594 -0.117188,-1.628906 -0.210938,-2.308594 -0.07031,-0.714844 -0.210937,-1.054687 -0.457031,-1.054687 -0.328125,0 -0.773438,0.515625 -1.066406,0.960937 l 0.152343,0.210938 c 0.222657,-0.316407 0.457032,-0.527344 0.527344,-0.527344 0.07031,0 0.117188,0.117187 0.1875,0.5625 0.128906,0.820312 0.269531,2.226562 0.28125,2.929687 -0.445312,0.597657 -1.160156,1.394532 -2.121094,2.015625 l 0.07031,0.199219 0.9375,-0.234375 c 0.503906,-0.5625 1.089844,-1.359375 1.617187,-2.121094 0.480469,-0.667968 1.242188,-1.863281 1.628907,-2.542968 0.234375,-0.398438 0.328125,-0.703125 0.316406,-0.960938 0,-0.292969 -0.152344,-0.492187 -0.351563,-0.492187 -0.152343,0 -0.316406,0.105468 -0.375,0.246093 -0.03516,0.07031 -0.04687,0.164063 -0.01172,0.222657 0.03516,0.105468 0.09375,0.246093 0.09375,0.421875 0.01172,0.65625 -0.820313,1.886718 -1.207032,2.472656 z m 150.899414,0 c -0.05859,-0.808594 -0.117188,-1.628906 -0.210938,-2.308594 -0.07031,-0.714844 -0.210937,-1.054687 -0.457031,-1.054687 -0.328125,0 -0.773438,0.515625 -1.066406,0.960937 l 0.152343,0.210938 c 0.222657,-0.316407 0.457032,-0.527344 0.527344,-0.527344 0.07031,0 0.117188,0.117187 0.1875,0.5625 0.128906,0.820312 0.269531,2.226562 0.28125,2.929687 -0.445312,0.597657 -1.160156,1.394532 -2.121094,2.015625 l 0.07031,0.199219 0.9375,-0.234375 c 0.503906,-0.5625 1.089844,-1.359375 1.617187,-2.121094 0.480469,-0.667968 1.242188,-1.863281 1.628907,-2.542968 0.234375,-0.398438 0.328125,-0.703125 0.316406,-0.960938 0,-0.292969 -0.152344,-0.492187 -0.351563,-0.492187 -0.152343,0 -0.316406,0.105468 -0.375,0.246093 -0.03516,0.07031 -0.04687,0.164063 -0.01172,0.222657 0.03516,0.105468 0.09375,0.246093 0.09375,0.421875 0.01172,0.65625 -0.820313,1.886718 -1.207032,2.472656 z m 65.501954,65.4023437 c 0.31641,-0.3984375 0.49219,-0.515625 0.57422,-0.515625 0.0937,0 0.17578,0.1289062 0.30469,0.5742187 l 0.30468,0.9375 c -0.5625,0.8320313 -0.98437,1.35937504 -1.24218,1.35937504 -0.0937,0 -0.16407,-0.0351563 -0.21094,-0.09375 -0.0469,-0.0585938 -0.0937,-0.09375 -0.14063,-0.09375 -0.17578,0 -0.36328,0.2109375 -0.36328,0.421875 -0.0117,0.2578125 0.17578,0.43359375 0.41016,0.43359375 0.42187,0 0.84375,-0.43359375 1.64062,-1.69921879 l 0.28125,0.87890629 c 0.17578,0.5625 0.36328,0.8203125 0.59766,0.8203125 0.30469,0 0.72656,-0.328125 1.13672,-0.97265625 l -0.15235,-0.17578124 c -0.28125,0.33984374 -0.5039,0.51562499 -0.64453,0.51562499 -0.15234,0 -0.28125,-0.2578125 -0.45703,-0.82031249 l -0.29297,-0.9023438 c 0.19922,-0.28125 0.39844,-0.5273437 0.58594,-0.7382812 0.23438,-0.2929688 0.41016,-0.4453125 0.53906,-0.4453125 0.082,0 0.15235,0.035156 0.21094,0.1054687 0.0469,0.046875 0.082,0.070312 0.12891,0.070312 0.14062,0 0.33984,-0.1757812 0.35156,-0.3984375 0,-0.1992187 -0.14063,-0.3867187 -0.375,-0.3867187 -0.39844,0 -0.78516,0.3867187 -1.53516,1.4765625 l -0.15234,-0.4921875 c -0.22266,-0.6445313 -0.33984,-0.984375 -0.58594,-0.984375 -0.29297,0 -0.6914,0.3867187 -1.0664,0.9375 z M 40.645502,42.740934 c -0.222657,0.246094 -0.398438,0.351563 -0.550782,0.351563 -0.152343,0 -0.304687,-0.01172 -0.726562,-0.09375 -0.433594,-0.07031 -0.703125,-0.105469 -0.949219,-0.105469 -0.222656,0 -0.445312,0.1875 -0.65625,0.527344 -0.140625,0.234375 -0.246094,0.445312 -0.375,0.726562 l 0.234375,0.105469 c 0.257813,-0.457031 0.46875,-0.761719 0.890625,-0.761719 0.222656,0 0.621094,0.02344 0.855469,0.05859 0.199219,0.01172 0.398437,0 0.550781,-0.03516 -0.832031,0.890625 -1.875,1.910156 -2.496094,2.578125 -0.550781,0.574219 -0.480468,0.832031 -0.328125,0.902344 0.04687,0.01172 0.07031,-0.02344 0.105469,-0.08203 0.08203,-0.117187 0.1875,-0.234375 0.292969,-0.304687 0.117187,-0.08203 0.269531,-0.09375 0.550781,0.04687 0.398438,0.199219 0.914063,0.433594 1.207031,0.433594 0.386719,0 0.75,-0.269532 1.242188,-1.242188 L 40.293939,45.68233 c -0.410156,0.609375 -0.679687,0.761718 -0.925781,0.761718 -0.222656,0 -0.515625,-0.117187 -0.808594,-0.210937 -0.269531,-0.117188 -0.503906,-0.164063 -0.679687,-0.152344 0.667968,-0.703125 1.851562,-1.886719 2.425781,-2.542969 0.246094,-0.269531 0.410156,-0.457031 0.527344,-0.597656 z m 0,0"
           style="fill:#231f20;fill-opacity:1;fill-rule:nonzero;stroke:none" />
      </g>
    </g>
  </g>
</svg>
