<?xml version="1.0" encoding="UTF-8" standalone="no"?>
<!-- Created with Inkscape (http://www.inkscape.org/) -->

<svg
   version="1.1"
   id="svg1"
   width="157.33333"
   height="173.92"
   viewBox="0 0 157.33333 173.92"
   sodipodi:docname="pha03f01.eps"
   xmlns:inkscape="http://www.inkscape.org/namespaces/inkscape"
   xmlns:sodipodi="http://sodipodi.sourceforge.net/DTD/sodipodi-0.dtd"
   xmlns="http://www.w3.org/2000/svg"
   xmlns:svg="http://www.w3.org/2000/svg">
  <defs
     id="defs1" />
  <sodipodi:namedview
     id="namedview1"
     pagecolor="#ffffff"
     bordercolor="#000000"
     borderopacity="0.25"
     inkscape:showpageshadow="2"
     inkscape:pageopacity="0.0"
     inkscape:pagecheckerboard="0"
     inkscape:deskcolor="#d1d1d1">
    <inkscape:page
       x="0"
       y="0"
       inkscape:label="1"
       id="page1"
       width="157.33333"
       height="173.92"
       margin="0"
       bleed="0" />
  </sodipodi:namedview>
  <g
     id="g1"
     inkscape:groupmode="layer"
     inkscape:label="1">
    <g
       id="group-R5">
      <path
         id="path2"
         d="M 96.2852,1192.39 V 145 H 1147.43"
         style="fill:none;stroke:#231f20;stroke-width:5;stroke-linecap:butt;stroke-linejoin:miter;stroke-miterlimit:10;stroke-dasharray:none;stroke-opacity:1"
         transform="matrix(0.13333333,0,0,-0.13333333,0,173.92)" />
      <path
         id="path3"
         d="m 96.2852,1185.21 14.4138,-8.77 0.321,0.49 -9.332,23.5 c -1.8013,8.19 -3.6021,16.38 -5.4028,24.57 -1.8047,-8.19 -3.6055,-16.38 -5.4063,-24.57 l -9.332,-23.5 0.2461,-0.49 14.4922,8.77"
         style="fill:#231f20;fill-opacity:1;fill-rule:nonzero;stroke:none"
         transform="matrix(0.13333333,0,0,-0.13333333,0,173.92)" />
      <path
         id="path4"
         d="m 1140.25,145 -8.77,14.41 0.49,0.32 23.5,-9.332 c 8.19,-1.796 16.38,-3.597 24.56,-5.398 -8.18,-1.809 -16.37,-3.609 -24.56,-5.41 l -23.5,-9.328 -0.49,0.238 8.77,14.5"
         style="fill:#231f20;fill-opacity:1;fill-rule:nonzero;stroke:none"
         transform="matrix(0.13333333,0,0,-0.13333333,0,173.92)" />
      <path
         id="path5"
         d="m 386.313,406.953 c 0,8.781 -7.125,15.899 -15.907,15.899 -8.781,0 -15.902,-7.118 -15.902,-15.899 0,-8.789 7.121,-15.906 15.902,-15.906 8.782,0 15.907,7.117 15.907,15.906"
         style="fill:#231f20;fill-opacity:1;fill-rule:evenodd;stroke:none"
         transform="matrix(0.13333333,0,0,-0.13333333,0,173.92)" />
      <path
         id="path6"
         d="M 0.76171875,-4.4650469 C 0.984375,-4.7931719 1.3476562,-5.1798906 1.8398437,-5.1798906 c 0.4804688,0 0.8554688,0.2929687 0.8554688,0.8554687 0,0.65625 -0.609375,1.0078125 -1.4296875,1.2773438 l 0.058594,0.2578125 c 0.140625,-0.046875 0.3632813,-0.1054688 0.5742188,-0.1054688 0.515625,0 1.1484375,0.3398438 1.1484375,1.171875 0,0.89062503 -0.4570312,1.35937503 -1.0898438,1.35937503 -0.515625,0 -0.890625,-0.24609375 -1.12499995,-0.45703125 -0.0703125,-0.0585938 -0.140625,-0.046875 -0.2109375,0 -0.0820313,0.0585938 -0.19921875,0.17578125 -0.2109375,0.29296875 -0.0117188,0.1171875 0.0234375,0.2109375 0.15234375,0.328125 0.1171875,0.10546875 0.4804687,0.3046875 0.890625,0.3046875 0.65625,0 2.3671875,-0.66796875 2.3671875,-2.12109373 0,-0.65625 -0.46875,-1.21875 -1.2539062,-1.3710938 v -0.011719 c 0.2578125,-0.1875 0.4804687,-0.3398438 0.609375,-0.4921875 0.1757812,-0.1640625 0.28125,-0.375 0.28125,-0.6328125 0,-0.6914063 -0.5273438,-1.1953125 -1.3476563,-1.1953125 -0.46875,0 -0.890625,0.234375 -1.13671875,0.5039062 l -0.3984375,0.5742188 z M 21.706055,17.519328 c 0.222656,-0.328125 0.585937,-0.714844 1.078125,-0.714844 0.480468,0 0.855468,0.292969 0.855468,0.855469 0,0.65625 -0.609375,1.007813 -1.429687,1.277344 l 0.05859,0.257812 c 0.140625,-0.04687 0.363281,-0.105468 0.574218,-0.105468 0.515625,0 1.148438,0.339843 1.148438,1.171875 0,0.890625 -0.457031,1.359375 -1.089844,1.359375 -0.515625,0 -0.890625,-0.246094 -1.125,-0.457032 -0.07031,-0.05859 -0.140625,-0.04687 -0.210937,0 -0.08203,0.05859 -0.199219,0.175782 -0.210938,0.292969 -0.01172,0.117188 0.02344,0.210938 0.152344,0.328125 0.117187,0.105469 0.480469,0.304688 0.890625,0.304688 0.65625,0 2.367187,-0.667969 2.367187,-2.121094 0,-0.65625 -0.46875,-1.21875 -1.253906,-1.371094 v -0.01172 c 0.257813,-0.1875 0.480469,-0.339843 0.609375,-0.492187 0.175781,-0.164063 0.28125,-0.375 0.28125,-0.632813 0,-0.691406 -0.527344,-1.195312 -1.347656,-1.195312 -0.46875,0 -0.890625,0.234375 -1.136719,0.503906 l -0.398437,0.574219 z m 18.448242,-29.791992 v -0.714844 c -0.421875,0.175781 -0.925781,0.328125 -1.3125,0.398438 v 0.210937 c 0.5625,0.07031 0.597656,0.09375 0.597656,0.679688 v 4.0664059 c 0,0.5859375 -0.08203,0.6445313 -0.65625,0.703125 v 0.234375 h 2.132813 v -0.234375 c -0.703125,-0.070312 -0.761719,-0.1171875 -0.761719,-0.796875 v -1.1835937 c 0.117187,0.070312 0.363281,0.1523437 0.621094,0.1640625 1.171875,-0.2109375 2.238281,-1.0898438 2.238281,-2.4492187 0,-0.890625 -0.597656,-1.699219 -1.59375,-1.699219 -0.105469,0 -0.28125,0.04687 -0.445313,0.140625 z m 0,0.304687 c 0.246094,-0.1875 0.609375,-0.386718 0.902344,-0.386718 0.65625,0 1.207031,0.539062 1.207031,1.511718 0,1.0078129 -0.515625,1.6640629 -1.265625,1.6640629 -0.304688,0 -0.644531,-0.1523437 -0.84375,-0.3515625 z m 0,0"
         style="fill:#231f20;fill-opacity:1;fill-rule:nonzero;stroke:none"
         aria-label="3&#10;3&#10;p"
         transform="matrix(1.3333333,0,0,1.3333333,0,140.28933)" />
      <path
         id="path7"
         d="M 62.3516,416.113 C 61.8203,325.742 61.2852,235.371 60.7461,145"
         style="fill:none;stroke:#231f20;stroke-width:5;stroke-linecap:butt;stroke-linejoin:miter;stroke-miterlimit:10;stroke-dasharray:none;stroke-opacity:1"
         transform="matrix(0.13333333,0,0,-0.13333333,0,173.92)" />
      <path
         id="path8"
         d="M 44.6992,415.289 H 78.082"
         style="fill:none;stroke:#231f20;stroke-width:5;stroke-linecap:butt;stroke-linejoin:miter;stroke-miterlimit:10;stroke-dasharray:none;stroke-opacity:1"
         transform="matrix(0.13333333,0,0,-0.13333333,0,173.92)" />
      <path
         id="path9"
         d="M 44.6992,145 H 78.082"
         style="fill:none;stroke:#231f20;stroke-width:5;stroke-linecap:butt;stroke-linejoin:miter;stroke-miterlimit:10;stroke-dasharray:none;stroke-opacity:1"
         transform="matrix(0.13333333,0,0,-0.13333333,0,173.92)" />
      <path
         id="path10"
         d="M 96.2852,111.32 H 366.656"
         style="fill:none;stroke:#231f20;stroke-width:5;stroke-linecap:butt;stroke-linejoin:miter;stroke-miterlimit:10;stroke-dasharray:none;stroke-opacity:1"
         transform="matrix(0.13333333,0,0,-0.13333333,0,173.92)" />
      <path
         id="path11"
         d="M 96.2852,127.582 V 92.5586"
         style="fill:none;stroke:#231f20;stroke-width:5;stroke-linecap:butt;stroke-linejoin:miter;stroke-miterlimit:10;stroke-dasharray:none;stroke-opacity:1"
         transform="matrix(0.13333333,0,0,-0.13333333,0,173.92)" />
      <path
         id="path12"
         d="M 366.656,127.582 V 92.5586"
         style="fill:none;stroke:#231f20;stroke-width:5;stroke-linecap:butt;stroke-linejoin:miter;stroke-miterlimit:10;stroke-dasharray:none;stroke-opacity:1"
         transform="matrix(0.13333333,0,0,-0.13333333,0,173.92)" />
      <path
         id="path13"
         d="m 618.395,1275.82 -7.219,-13.15"
         style="fill:none;stroke:#231f20;stroke-width:5;stroke-linecap:butt;stroke-linejoin:miter;stroke-miterlimit:10;stroke-dasharray:none;stroke-opacity:1"
         transform="matrix(0.13333333,0,0,-0.13333333,0,173.92)" />
      <path
         id="path14"
         d="M 601.918,1245.81 382.094,845.418 375.211,832.871"
         style="fill:none;stroke:#231f20;stroke-width:5;stroke-linecap:butt;stroke-linejoin:miter;stroke-miterlimit:10;stroke-dasharray:28.8418, 19.2278;stroke-dashoffset:0;stroke-opacity:1"
         transform="matrix(0.13333333,0,0,-0.13333333,0,173.92)" />
      <path
         id="path15"
         d="m 370.582,824.445 -7.219,-13.148 13.153,-7.219"
         style="fill:none;stroke:#231f20;stroke-width:5;stroke-linecap:butt;stroke-linejoin:miter;stroke-miterlimit:10;stroke-dasharray:none;stroke-opacity:1"
         transform="matrix(0.13333333,0,0,-0.13333333,0,173.92)" />
      <path
         id="path16"
         d="M 393.434,794.785 807.992,567.199"
         style="fill:none;stroke:#231f20;stroke-width:5;stroke-linecap:butt;stroke-linejoin:miter;stroke-miterlimit:10;stroke-dasharray:28.9546, 19.3031;stroke-dashoffset:0;stroke-opacity:1"
         transform="matrix(0.13333333,0,0,-0.13333333,0,173.92)" />
      <path
         id="path17"
         d="m 816.449,562.551 13.156,-7.219"
         style="fill:none;stroke:#231f20;stroke-width:5;stroke-linecap:butt;stroke-linejoin:miter;stroke-miterlimit:10;stroke-dasharray:none;stroke-opacity:1"
         transform="matrix(0.13333333,0,0,-0.13333333,0,173.92)" />
      <path
         id="path18"
         d="m 614.938,1269.52 8.417,-14.62 0.516,0.28 3.137,25.09 c 2.351,8.04 4.715,16.08 7.078,24.13 -5.516,-6.31 -11.035,-12.62 -16.563,-18.93 l -19.488,-16.11 -0.015,-0.55 16.918,0.71"
         style="fill:#231f20;fill-opacity:1;fill-rule:nonzero;stroke:none"
         transform="matrix(0.13333333,0,0,-0.13333333,0,173.92)" />
      <path
         id="path19"
         d="m 823.305,558.789 -0.742,16.852 0.585,0.047 16.114,-19.493 c 6.308,-5.515 12.617,-11.035 18.926,-16.554 -8.047,2.363 -16.083,4.718 -24.129,7.082 l -25.09,3.125 -0.321,0.457 14.657,8.484"
         style="fill:#231f20;fill-opacity:1;fill-rule:nonzero;stroke:none"
         transform="matrix(0.13333333,0,0,-0.13333333,0,173.92)" />
      <path
         id="path20"
         d="M 3.696498,-1.2645251 C 3.4353634,-0.68548997 3.3106975,-0.64518438 2.8281409,-0.65220292 L 1.1399501,-0.65057492 2.4172712,-1.987767 C 3.2511041,-2.8874544 3.6240669,-3.4068074 3.6172127,-4.1878124 3.6209241,-5.1473841 2.9018356,-5.7190475 2.115289,-5.722519 1.5858879,-5.717697 1.1577495,-5.4746263 0.8938253,-5.1733882 l -0.51927742,0.7175737 0.19897821,0.1725076 c 0.24175805,-0.3425409 0.61069411,-0.8198336 1.23454131,-0.8221435 0.6500401,-0.00307 1.0502687,0.4205268 1.0515814,1.1912061 0.00131,0.7706793 -0.5592676,1.5104193 -1.1269042,2.1874476 -0.4467576,0.5057578 -0.95068523,1.02889771 -1.45058611,1.50997734 L 0.27789149,-0.00173402 3.6439474,5.51382e-4 C 3.7524688,-0.41678156 3.8410958,-0.79683844 3.9662414,-1.1831942 Z m -21.912778,6.6263387 0.0022,-0.4666894 -3.774817,0.00429 -0.0022,0.4666894 z m 4.567423,0.2087241 0.0038,-0.4143034 -0.865126,-0.0012 -0.006,-3.6541787 -0.351591,-0.010805 c -0.929517,1.2170327 -1.84492,2.5594887 -2.704669,3.8321767 l -0.0035,0.2412783 2.343773,0.00563 -0.0017,0.6659074 c 0.0063,0.581787 -0.03421,0.6301461 -0.813699,0.6893863 l 0.002,0.251604 2.301712,0.0016 -0.002,-0.251604 c -0.72535,-0.062914 -0.768167,-0.093134 -0.76972,-0.6907878 l 0.0017,-0.6659074 z m -1.579669,-0.4157048 -1.772312,-0.00643 c 0.584741,-0.9921014 1.183595,-1.8587795 1.763312,-2.6619885 l 0.0055,0.010326 z m 0,0"
         style="fill:#231f20;fill-opacity:1;fill-rule:nonzero;stroke:none"
         aria-label="2&#10;–4"
         transform="matrix(1.1748367,0.63050499,-0.63050499,1.1748367,50.195867,85.3112)" />
      <path
         id="path21"
         d="M 344.996,777.578 522.809,680.695"
         style="fill:none;stroke:#231f20;stroke-width:5;stroke-linecap:butt;stroke-linejoin:miter;stroke-miterlimit:10;stroke-dasharray:none;stroke-opacity:1"
         transform="matrix(0.13333333,0,0,-0.13333333,0,173.92)" />
      <path
         id="path22"
         d="m 353.949,794.016 -17.91,-32.871"
         style="fill:none;stroke:#231f20;stroke-width:5;stroke-linecap:butt;stroke-linejoin:miter;stroke-miterlimit:10;stroke-dasharray:none;stroke-opacity:1"
         transform="matrix(0.13333333,0,0,-0.13333333,0,173.92)" />
      <path
         id="path23"
         d="m 513.852,664.258 17.91,32.871"
         style="fill:none;stroke:#231f20;stroke-width:5;stroke-linecap:butt;stroke-linejoin:miter;stroke-miterlimit:10;stroke-dasharray:none;stroke-opacity:1"
         transform="matrix(0.13333333,0,0,-0.13333333,0,173.92)" />
      <path
         id="path24"
         d="M 331.441,826.652 154.477,501.879"
         style="fill:none;stroke:#231f20;stroke-width:5;stroke-linecap:butt;stroke-linejoin:miter;stroke-miterlimit:10;stroke-dasharray:none;stroke-opacity:1"
         transform="matrix(0.13333333,0,0,-0.13333333,0,173.92)" />
      <path
         id="path25"
         d="m 316.781,834.641 29.317,-15.977"
         style="fill:none;stroke:#231f20;stroke-width:5;stroke-linecap:butt;stroke-linejoin:miter;stroke-miterlimit:10;stroke-dasharray:none;stroke-opacity:1"
         transform="matrix(0.13333333,0,0,-0.13333333,0,173.92)" />
      <path
         id="path26"
         d="m 138.578,509.602 29.313,-15.973"
         style="fill:none;stroke:#231f20;stroke-width:5;stroke-linecap:butt;stroke-linejoin:miter;stroke-miterlimit:10;stroke-dasharray:none;stroke-opacity:1"
         transform="matrix(0.13333333,0,0,-0.13333333,0,173.92)" />
    </g>
  </g>
</svg>
