<?xml version="1.0" encoding="UTF-8" standalone="no"?>
<!-- Created with Inkscape (http://www.inkscape.org/) -->

<svg
   version="1.1"
   id="svg1"
   width="271.92001"
   height="90.386665"
   viewBox="0 0 271.92001 90.386665"
   sodipodi:docname="pha03f09.eps"
   xmlns:inkscape="http://www.inkscape.org/namespaces/inkscape"
   xmlns:sodipodi="http://sodipodi.sourceforge.net/DTD/sodipodi-0.dtd"
   xmlns="http://www.w3.org/2000/svg"
   xmlns:svg="http://www.w3.org/2000/svg">
  <defs
     id="defs1" />
  <sodipodi:namedview
     id="namedview1"
     pagecolor="#ffffff"
     bordercolor="#000000"
     borderopacity="0.25"
     inkscape:showpageshadow="2"
     inkscape:pageopacity="0.0"
     inkscape:pagecheckerboard="0"
     inkscape:deskcolor="#d1d1d1">
    <inkscape:page
       x="0"
       y="0"
       inkscape:label="1"
       id="page1"
       width="271.92001"
       height="90.386665"
       margin="0"
       bleed="0" />
  </sodipodi:namedview>
  <g
     id="g1"
     inkscape:groupmode="layer"
     inkscape:label="1">
    <g
       id="group-R5">
      <path
         id="path2"
         d="M 1152.49,466.777 H 740.855 V 55.1445 h 411.635 z"
         style="fill:none;stroke:#231f20;stroke-width:5;stroke-linecap:butt;stroke-linejoin:miter;stroke-miterlimit:10;stroke-dasharray:none;stroke-opacity:1"
         transform="matrix(0.13333333,0,0,-0.13333333,0,90.386667)" />
      <path
         id="path3"
         d="M 1.4875859,-0.36321719 V -3.1991547 h 1.125 c 0.9609375,0 1.5117188,0.7265625 1.5117188,1.5117188 0,0.93749996 -0.7382813,1.32421871 -1.2773438,1.32421871 z M 2.9289922,6.40625e-5 c 1.0195312,0 1.6171875,-0.7851562525 1.6171875,-1.7109374625 0,-0.8671875 -0.4921875,-1.4765625 -1.3242188,-1.7226563 0.6328125,-0.2695312 1.03125,-0.75 1.03125,-1.4648437 0,-0.984375 -0.65625,-1.5820313 -1.59375,-1.5820313 h -1.59375 V 6.40625e-5 Z M 1.4875859,-3.5507172 v -2.5664062 h 0.9726563 c 1.078125,0 1.3710937,0.5039062 1.3710937,1.1953125 0,0.8320312 -0.5742187,1.3710937 -1.6757812,1.3710937 z m 6.6064454,3.64453126 c 0.8085937,0 1.828125,-0.5390625 1.828125,-2.48437496 0,-1.9335938 -1.03125,-2.4726563 -1.828125,-2.4726563 -0.8554688,0 -1.8164063,0.6210938 -1.8164063,2.4726563 0,1.94531246 1.0195313,2.48437496 1.8164063,2.48437496 z m 0,-0.3515625 c -1.1601563,0 -1.3945313,-1.19531246 -1.3945313,-2.13281246 0,-0.9257813 0.234375,-2.109375 1.3945313,-2.109375 1.171875,0 1.40625,1.1835937 1.40625,2.109375 0,0.9375 -0.234375,2.13281246 -1.40625,2.13281246 z M 14.703406,-2.8358734 c 0,1.8046875 -0.914062,2.57812496 -1.617187,2.57812496 -0.515625,0 -0.738281,-0.4453125 -0.738281,-1.34765626 v -3.1523437 h -0.421875 v 3.3515625 c 0,0.72656246 0.246093,1.49999996 1.101562,1.49999996 0.75,0 1.511719,-0.73828125 1.6875,-1.44140626 h 0.02344 L 14.914344,6.40625e-5 h 0.398437 C 15.148719,-0.79681094 15.125281,-1.6054047 15.125281,-2.4139984 v -2.34375 h -0.421875 z m 3.008789,0.8789062 c 0,-1.8632812 0.925782,-2.5429687 1.605469,-2.5429687 0.738281,0 0.738281,0.7617187 0.738281,1.3007812 V 6.40625e-5 h 0.433594 V -3.3983734 c 0,-0.7148438 -0.246094,-1.4648438 -1.113281,-1.4648438 -0.75,0 -1.511719,0.703125 -1.6875,1.4179688 H 17.66532 L 17.501258,-4.8163422 H 17.10282 c 0.164063,0.8085938 0.1875,1.6171875 0.1875,2.4257813 V 6.40625e-5 h 0.421875 z m 8.129883,-4.7226562 h -0.421875 v 2.2265625 c -0.316406,-0.2578125 -0.738281,-0.4101563 -1.160156,-0.4101563 -0.667969,0 -1.875,0.5390625 -1.875,2.4492188 0,1.85156246 1.042969,2.50781246 1.839844,2.50781246 0.5625,0 1.019531,-0.28125 1.277343,-0.7734375 l 0.164063,0.7734375 0.398437,-0.046875 c -0.175781,-0.5625 -0.222656,-1.13671876 -0.222656,-1.72265626 z m -0.421875,5.4609375 c -0.1875,0.51562496 -0.585937,0.96093746 -1.183594,0.96093746 -0.539062,0 -1.429687,-0.48046875 -1.429687,-2.13281246 0,-1.7460938 1.019531,-2.109375 1.558594,-2.109375 0.398437,0 0.761718,0.2109375 1.054687,0.46875 z m 5.62207,-3.140625 c -0.433593,-0.3164063 -0.878906,-0.5039063 -1.429687,-0.5039063 -0.714844,0 -1.394531,0.515625 -1.394531,1.1953125 0,0.84375 0.773437,1.1484375 1.429687,1.3945313 0.5625,0.2226562 1.113281,0.4335937 1.113281,1.1367187 0,0.57421876 -0.457031,0.87890626 -0.984375,0.87890626 -0.5625,0 -1.195312,-0.36328125 -1.582031,-0.74999996 l -0.234375,0.33984371 c 0.433594,0.3984375 1.195313,0.76171875 1.792969,0.76171875 0.726562,0 1.429687,-0.45703125 1.429687,-1.25390626 0,-0.9257812 -0.761718,-1.21875 -1.488281,-1.5 -0.433594,-0.1523437 -1.054687,-0.421875 -1.054687,-0.9726562 0,-0.5039063 0.46875,-0.8671875 0.9375,-0.8671875 0.480468,0 0.902343,0.2226562 1.277343,0.4921875 z m 3.700196,1.0429687 c 0.972656,0 1.746093,0.4921875 1.746093,1.6054688 0,0.91406246 -0.621093,1.45312496 -1.511718,1.45312496 -0.691407,0 -1.160157,-0.38671875 -1.441407,-0.98437496 l -0.375,0.2226562 c 0.445313,0.70312501 0.972657,1.11328126 1.839844,1.11328126 1.113281,0 1.921875,-0.7734375 1.921875,-1.88671876 0,-0.8554687 -0.515625,-1.4882812 -1.335937,-1.7460937 0.597656,-0.2578125 1.03125,-0.7734375 1.03125,-1.4414063 0,-0.9023437 -0.714844,-1.6289062 -1.628907,-1.6289062 -0.75,0 -1.382812,0.4101562 -1.746093,1.0546875 l 0.363281,0.1992187 c 0.269531,-0.5039062 0.75,-0.890625 1.347656,-0.890625 0.679688,0 1.242188,0.5273438 1.242188,1.1953125 0,0.8085938 -0.667969,1.3710938 -1.453125,1.3710938 z M 39.887,-0.48040469 c 0,0.33984375 0.269531,0.609375 0.609375,0.609375 0.328125,0 0.609375,-0.26953125 0.609375,-0.609375 0,-0.328125 -0.28125,-0.60937501 -0.609375,-0.60937501 -0.339844,0 -0.609375,0.28125001 -0.609375,0.60937501 z m 0,-3.15234371 c 0,0.328125 0.269531,0.5976562 0.609375,0.5976562 0.328125,0 0.609375,-0.2695312 0.609375,-0.5976562 0,-0.3398438 -0.28125,-0.609375 -0.609375,-0.609375 -0.339844,0 -0.609375,0.2695312 -0.609375,0.609375 z m 5.399414,3.15234371 c 0,0.33984375 0.269531,0.609375 0.609375,0.609375 0.328125,0 0.609375,-0.26953125 0.609375,-0.609375 0,-0.328125 -0.28125,-0.60937501 -0.609375,-0.60937501 -0.339844,0 -0.609375,0.28125001 -0.609375,0.60937501 z m 0,-3.15234371 c 0,0.328125 0.269531,0.5976562 0.609375,0.5976562 0.328125,0 0.609375,-0.2695312 0.609375,-0.5976562 0,-0.3398438 -0.28125,-0.609375 -0.609375,-0.609375 -0.339844,0 -0.609375,0.2695312 -0.609375,0.609375 z m 4.450195,5.5429687 h 0.421875 v -2.21484374 c 0.328125,0.2578125 0.75,0.3984375 1.171875,0.3984375 0.644532,0 1.863282,-0.5390625 1.863282,-2.43749996 0,-1.875 -1.042969,-2.5195313 -1.839844,-2.5195313 -0.5625,0 -1.019531,0.2929688 -1.265625,0.7851563 h -0.01172 l -0.164062,-0.7851563 -0.398438,0.058594 c 0.175781,0.5625 0.222656,1.1367187 0.222656,1.7109375 z m 0.421875,-5.4609375 c 0.234375,-0.5039062 0.550782,-0.9492187 1.183594,-0.9492187 0.539063,0 1.429688,0.46875 1.429688,2.1210937 0,1.73437501 -1.007813,2.12109376 -1.558594,2.12109376 -0.398438,0 -0.761719,-0.2109375 -1.054688,-0.46875 z m 6.536133,0.6328125 -1.476562,-3.5625 H 54.761023 V 6.40625e-5 h 0.421875 V -5.6014984 l 0.01172,-0.023437 1.5,3.5976562 1.511719,-3.5976562 h 0.01172 V 6.40625e-5 H 58.63993 V -6.4804047 h -0.46875 z m 6.899414,2.96484376 c -0.128906,-0.3984375 -0.246094,-0.83203125 -0.234375,-1.28906246 l 0.05859,-1.9453125 c 0.02344,-1.0546875 -0.503906,-1.6757813 -1.371094,-1.6757813 -0.457031,0 -0.855469,0.1289063 -1.265625,0.2929688 l 0.09375,0.3867187 c 0.375,-0.1757812 0.726563,-0.3164062 1.136719,-0.3164062 0.785156,0 1.007812,0.5039062 0.972656,1.7109375 -0.328125,-0.1640625 -0.773437,-0.3164063 -1.160156,-0.3164063 -0.914063,0 -1.429688,0.7851563 -1.429688,1.6875 0,0.80859376 0.457032,1.51171876 1.324219,1.51171876 0.621094,0 0.972656,-0.328125 1.3125,-0.80859375 0.02344,0.26953125 0.08203,0.55078125 0.175781,0.80859375 z M 62.961219,-1.2186859 c -0.28125,0.48046871 -0.644532,0.96093746 -1.242188,0.96093746 -0.597656,0 -0.902344,-0.5859375 -0.902344,-1.12499996 0,-0.6914063 0.316407,-1.359375 1.113282,-1.359375 0.375,0 0.738281,0.1289062 1.03125,0.28125 z m 6.199218,-3.5390625 h -0.457031 l -1.207031,1.8632812 -1.21875,-1.8632812 H 65.785437 L 67.262,-2.5546234 65.422156,6.40625e-5 h 0.5625 L 67.496375,-2.2733734 69.008094,6.40625e-5 h 0.574218 L 67.73075,-2.5780609 Z M -132.24972,57.090884 v -2.835937 h 1.125 c 0.96094,0 1.51172,0.726562 1.51172,1.511719 0,0.9375 -0.73828,1.324218 -1.27734,1.324218 z m 1.44141,0.363282 c 1.01953,0 1.61719,-0.785157 1.61719,-1.710938 0,-0.867187 -0.49219,-1.476562 -1.32422,-1.722656 0.63281,-0.269531 1.03125,-0.75 1.03125,-1.464844 0,-0.984375 -0.65625,-1.582031 -1.59375,-1.582031 h -1.59375 v 6.480469 z m -1.44141,-3.550782 v -2.566406 h 0.97266 c 1.07812,0 1.37109,0.503906 1.37109,1.195313 0,0.832031 -0.57422,1.371093 -1.67578,1.371093 z m 6.60645,3.644532 c 0.80859,0 1.82812,-0.539063 1.82812,-2.484375 0,-1.933594 -1.03125,-2.472657 -1.82812,-2.472657 -0.85547,0 -1.81641,0.621094 -1.81641,2.472657 0,1.945312 1.01953,2.484375 1.81641,2.484375 z m 0,-0.351563 c -1.16016,0 -1.39453,-1.195312 -1.39453,-2.132812 0,-0.925782 0.23437,-2.109375 1.39453,-2.109375 1.17187,0 1.40625,1.183593 1.40625,2.109375 0,0.9375 -0.23438,2.132812 -1.40625,2.132812 z m 6.60644,-2.578125 c 0,1.804688 -0.91406,2.578125 -1.61719,2.578125 -0.51562,0 -0.73828,-0.445312 -0.73828,-1.347656 v -3.152344 h -0.42187 v 3.351563 c 0,0.726562 0.24609,1.5 1.10156,1.5 0.75,0 1.51172,-0.738282 1.6875,-1.441407 h 0.0234 l 0.17578,1.347657 h 0.39844 c -0.16407,-0.796875 -0.1875,-1.605469 -0.1875,-2.414063 v -2.34375 h -0.42188 z m 3.01172,0.878906 c 0,-1.863281 0.92578,-2.542968 1.60547,-2.542968 0.73828,0 0.73828,0.761718 0.73828,1.300781 v 3.199219 h 0.43359 v -3.398438 c 0,-0.714844 -0.24609,-1.464844 -1.11328,-1.464844 -0.75,0 -1.51172,0.703125 -1.6875,1.417969 h -0.0234 l -0.16407,-1.371094 h -0.39843 c 0.16406,0.808594 0.1875,1.617188 0.1875,2.425782 v 2.390625 h 0.42187 z m 8.12988,-4.722656 h -0.42187 v 2.226563 c -0.31641,-0.257813 -0.73828,-0.410157 -1.16016,-0.410157 -0.66797,0 -1.875,0.539063 -1.875,2.449219 0,1.851563 1.04297,2.507813 1.83985,2.507813 0.5625,0 1.01953,-0.28125 1.27734,-0.773438 l 0.16406,0.773438 0.39844,-0.04687 c -0.17578,-0.5625 -0.22266,-1.136719 -0.22266,-1.722657 z m -0.42187,5.460938 c -0.1875,0.515625 -0.58594,0.960937 -1.1836,0.960937 -0.53906,0 -1.42968,-0.480469 -1.42968,-2.132812 0,-1.746094 1.01953,-2.109375 1.55859,-2.109375 0.39844,0 0.76172,0.210937 1.05469,0.46875 z m 5.62207,-3.140625 c -0.4336,-0.316407 -0.87891,-0.503907 -1.42969,-0.503907 -0.71484,0 -1.39453,0.515625 -1.39453,1.195313 0,0.84375 0.77344,1.148437 1.42969,1.394531 0.5625,0.222656 1.11328,0.433594 1.11328,1.136719 0,0.574219 -0.45703,0.878906 -0.98438,0.878906 -0.5625,0 -1.19531,-0.363281 -1.58203,-0.75 l -0.23437,0.339844 c 0.43359,0.398437 1.19531,0.761719 1.79297,0.761719 0.72656,0 1.42968,-0.457032 1.42968,-1.253907 0,-0.925781 -0.76172,-1.21875 -1.48828,-1.5 -0.43359,-0.152343 -1.05469,-0.421875 -1.05469,-0.972656 0,-0.503906 0.46875,-0.867187 0.9375,-0.867187 0.48047,0 0.90235,0.222656 1.27735,0.492187 z m 3.700194,1.042968 c 0.972656,0 1.746094,0.492188 1.746094,1.605469 0,0.914063 -0.621094,1.453125 -1.511719,1.453125 -0.691406,0 -1.160156,-0.386719 -1.441409,-0.984375 l -0.375,0.222656 c 0.44532,0.703125 0.972659,1.113282 1.839847,1.113282 1.113281,0 1.921875,-0.773438 1.921875,-1.886719 0,-0.855469 -0.515625,-1.488281 -1.335938,-1.746094 0.597656,-0.257812 1.03125,-0.773437 1.03125,-1.441406 0,-0.902344 -0.714844,-1.628906 -1.628906,-1.628906 -0.75,0 -1.382808,0.410156 -1.746098,1.054687 l 0.36329,0.199219 c 0.269527,-0.503906 0.749995,-0.890625 1.347652,-0.890625 0.679687,0 1.242187,0.527344 1.242187,1.195312 0,0.808594 -0.667969,1.371094 -1.453125,1.371094 z m 5.141602,2.835938 c 0,0.339844 0.269531,0.609375 0.609375,0.609375 0.328125,0 0.609375,-0.269531 0.609375,-0.609375 0,-0.328125 -0.28125,-0.609375 -0.609375,-0.609375 -0.339844,0 -0.609375,0.28125 -0.609375,0.609375 z m 0,-3.152344 c 0,0.328125 0.269531,0.597656 0.609375,0.597656 0.328125,0 0.609375,-0.269531 0.609375,-0.597656 0,-0.339844 -0.28125,-0.609375 -0.609375,-0.609375 -0.339844,0 -0.609375,0.269531 -0.609375,0.609375 z m 5.402343,3.152344 c 0,0.339844 0.269532,0.609375 0.609375,0.609375 0.328125,0 0.609375,-0.269531 0.609375,-0.609375 0,-0.328125 -0.28125,-0.609375 -0.609375,-0.609375 -0.339843,0 -0.609375,0.28125 -0.609375,0.609375 z m 0,-3.152344 c 0,0.328125 0.269532,0.597656 0.609375,0.597656 0.328125,0 0.609375,-0.269531 0.609375,-0.597656 0,-0.339844 -0.28125,-0.609375 -0.609375,-0.609375 -0.339843,0 -0.609375,0.269531 -0.609375,0.609375 z m 4.450196,5.542969 h 0.421875 v -2.214844 c 0.328125,0.257813 0.75,0.398438 1.171875,0.398438 0.644531,0 1.863281,-0.539063 1.863281,-2.4375 0,-1.875 -1.042969,-2.519532 -1.839844,-2.519532 -0.5625,0 -1.019531,0.292969 -1.265625,0.785157 h -0.01172 l -0.164062,-0.785157 -0.398438,0.05859 c 0.175782,0.5625 0.222657,1.136719 0.222657,1.710938 z m 0.421875,-5.460938 c 0.234375,-0.503906 0.550781,-0.949218 1.183593,-0.949218 0.539063,0 1.429688,0.46875 1.429688,2.121093 0,1.734375 -1.007813,2.121094 -1.558594,2.121094 -0.398437,0 -0.761719,-0.210937 -1.054687,-0.46875 z m 6.536133,0.632813 -1.476563,-3.5625 h -0.457031 v 6.480469 h 0.421875 v -5.601563 l 0.01172,-0.02344 1.5,3.597656 1.511718,-3.597656 h 0.01172 v 5.625 h 0.421875 v -6.480469 h -0.46875 z m 5.305664,2.917969 h 0.421875 v -4.757813 h -1.804688 v 0.351563 h 1.382813 z m 0.199218,-6.609375 c -0.257812,0 -0.46875,0.210937 -0.46875,0.46875 0,0.257812 0.210938,0.46875 0.46875,0.46875 0.257813,0 0.480469,-0.210938 0.480469,-0.46875 0,-0.257813 -0.222656,-0.46875 -0.480469,-0.46875 z m 4.110352,4.652343 c 0,-1.863281 0.925781,-2.542968 1.605469,-2.542968 0.738281,0 0.738281,0.761718 0.738281,1.300781 v 3.199219 h 0.433594 v -3.398438 c 0,-0.714844 -0.246094,-1.464844 -1.113282,-1.464844 -0.75,0 -1.511718,0.703125 -1.6875,1.417969 h -0.02344 l -0.164063,-1.371094 h -0.398437 c 0.164062,0.808594 0.1875,1.617188 0.1875,2.425782 v 2.390625 h 0.421875 z m 0,0"
         style="fill:#231f20;fill-opacity:1;fill-rule:nonzero;stroke:none"
         aria-label="Bounds3::pMax&#10;Bounds3::pMin"
         transform="matrix(1.3333333,0,0,1.3333333,178.31733,10.324133)" />
      <path
         id="path4"
         d="M 1299,629.387 H 887.371 V 217.754 H 1299 Z"
         style="fill:none;stroke:#231f20;stroke-width:5;stroke-linecap:butt;stroke-linejoin:miter;stroke-miterlimit:10;stroke-dasharray:none;stroke-opacity:1"
         transform="matrix(0.13333333,0,0,-0.13333333,0,90.386667)" />
      <path
         id="path5"
         d="m 740.855,466.777 146.516,162.61"
         style="fill:none;stroke:#231f20;stroke-width:5;stroke-linecap:butt;stroke-linejoin:miter;stroke-miterlimit:10;stroke-dasharray:none;stroke-opacity:1"
         transform="matrix(0.13333333,0,0,-0.13333333,0,90.386667)" />
      <path
         id="path6"
         d="M 1152.49,466.777 1299,629.387"
         style="fill:none;stroke:#231f20;stroke-width:5;stroke-linecap:butt;stroke-linejoin:miter;stroke-miterlimit:10;stroke-dasharray:none;stroke-opacity:1"
         transform="matrix(0.13333333,0,0,-0.13333333,0,90.386667)" />
      <path
         id="path7"
         d="M 1152.49,55.1445 1299,217.754"
         style="fill:none;stroke:#231f20;stroke-width:5;stroke-linecap:butt;stroke-linejoin:miter;stroke-miterlimit:10;stroke-dasharray:none;stroke-opacity:1"
         transform="matrix(0.13333333,0,0,-0.13333333,0,90.386667)" />
      <path
         id="path8"
         d="M 740.43,54.8281 887.371,217.754"
         style="fill:none;stroke:#231f20;stroke-width:5;stroke-linecap:butt;stroke-linejoin:miter;stroke-miterlimit:10;stroke-dasharray:none;stroke-opacity:1"
         transform="matrix(0.13333333,0,0,-0.13333333,0,90.386667)" />
      <path
         id="path9"
         d="m 1315.99,629.387 c 0,9.379 -7.61,16.984 -16.99,16.984 -9.38,0 -16.97,-7.605 -16.97,-16.984 0,-9.383 7.59,-16.985 16.97,-16.985 9.38,0 16.99,7.602 16.99,16.985"
         style="fill:#231f20;fill-opacity:1;fill-rule:evenodd;stroke:none"
         transform="matrix(0.13333333,0,0,-0.13333333,0,90.386667)" />
      <path
         id="path10"
         d="m 757.418,55.1445 c 0,9.3828 -7.605,16.9883 -16.988,16.9883 -9.379,0 -16.985,-7.6055 -16.985,-16.9883 0,-9.3789 7.606,-16.9804 16.985,-16.9804 9.383,0 16.988,7.6015 16.988,16.9804"
         style="fill:#231f20;fill-opacity:1;fill-rule:evenodd;stroke:none"
         transform="matrix(0.13333333,0,0,-0.13333333,0,90.386667)" />
    </g>
  </g>
</svg>
