<svg version="1" xmlns="http://www.w3.org/2000/svg" width="346.667" height="346.667" viewBox="0 0 260.000000 260.000000"><path d="M0 27.4c0 21.3.2 27.5 1.2 27.9 1 .4 1 .6.1.6C-.1 56-.6 60 .8 60c.8 0 4.2 5.7 4.2 7.1 0 .5-.7.9-1.5.9S2 67.5 2 66.9c0-.5.5-.7 1.1-.3.7.4 1 .1.7-.7-.3-.8-1.2-1.5-2-1.7C.5 63.9.2 66.6.2 85.4c-.1 12.8.3 21.8.8 22.1.6.4 1 1.2 1 1.8 0 .7-.4.6-1-.3-.7-1-1 2.1-1 9.8 0 7.3.4 11.1 1 10.7.5-.3 1-.2 1 .4 0 .5-.5 1.3-1 1.6-.6.3-1 1.2-1 1.8 0 .8.3.8.8.2.4-.6 1.3-1.1 2.1-1.3 1.1-.2 1.2 0 .4 1-.6.7-.7 2.2-.3 3.2.6 1.9.7 1.9 1.2-.2.4-1.2 1.3-2.2 2.2-2.2.9 0 1.6-.7 1.6-1.6 0-1.4.3-1.4 1.5-.4 1.2 1 1.5 1 1.5-.4 0-2.4 1.7-1.9 2.4.6l.7 2.3 1.1-2.5 1.1-2.5.7 3c.4 1.6.8 2.3.9 1.4.1-2 2.5-4.2 3.4-3.2.4.3.2 1.2-.3 1.8-.7.9-.5 1.2.7 1.2 3.4 0 4.3.3 4.3 1.4 0 .8-1.2 1-3.5.6-2.1-.3-3.3-.2-3 .4.4.5 1.7.9 3 .9 2 0 2.3.4 2 3.3-.4 4 1 7.1 2 4.6.3-.9.5-2 .4-2.5-.6-3.3.3-5.4 2.2-5.4 1.7 0 1.9.3 1 1.3-.8 1-.7 1.4.5 1.4 1.6 0 1.6-1.7-.1-6.2-.5-1.4-.4-1.6.3-.7 1.5 2.2 2.1-.7 1.5-7.6-.5-5-.8-5.9-2.2-5.5-1.2.4-1.3.3-.3-.5 1.1-.7 1.1-2.4.1-9.1-1-6.7-1-8.4 0-9.1 1.1-.6 1.1-.8 0-1.2-.8-.3-1.4-2-1.5-3.9-.3-9.4-.8-13.5-1.7-14.6-.5-.7-1-2.8-1.1-4.5-.2-1.9-.7-3.2-1.4-3-.7.1-1.2-.3-1.2-.8 0-.6 1.1-.8 2.8-.4 3.7.9 4.1 1.2 4.2 3.2.2 5 .9 10.5 1.4 12.7.4 1.5.2 2.5-.5 2.5-.6 0-.3.7.5 1.6 1.5 1.4 1.5 1.7 0 3.2-1.1 1-1.3 1.7-.5 2 .6.2 1.1 1.5 1.1 2.8 0 1.3.9 3.3 2 4.4 1.1 1.1 1.6 2 1.1 2s-1.1 1.1-1.3 2.4c-.4 1.7 0 2.6 1.3 2.9.9.3 2.4 1.6 3.3 3 1.8 2.7 3.1 14.2 1.6 13.2-.6-.4-1-2.1-1-3.9 0-1.8-.3-3.6-.7-4-.5-.4-.8-1.7-.8-2.9 0-1.1-.4-2.2-1-2.4-.6-.2-.9 1.5-.8 3.9.4 7.6 1.6 14.8 2.4 14.8.5 0 .9.7.9 1.6 0 1.1.6 1.5 2 1.1 1.1-.3 2.3-.1 2.6.5.3.5-.3 1.2-1.5 1.5-2.9.7-2.6 2.7.7 4.9 2.7 1.9 3.2 2.1 5.5 2.3 1.8.1 1.8 2.9.1 3.5-1.1.4-1 1.5.5 5 1.1 2.5 1.7 5.4 1.4 6.7-.4 1.5-.3 2 .6 1.5.6-.4.9-1.2.6-1.7-.4-.5-.1-.9.6-.9s.9.9.6 2.2c-.4 1.2-.1 2.8.5 3.5.8 1 .7 1.2-.4.8-.9-.4-1.5 0-1.5.9 0 .8.4 1.3.9 1 .4-.3.8.4.8 1.6 0 1.4-.5 2-1.7 1.8-1-.2-1.7.2-1.6.9.2.7-.4 1-1.2.7-.8-.4-1.5-1-1.5-1.5s-.4-.9-1-.9c-.5 0-1 .9-1 2s-.6 2-1.3 2c-1.6 0-5.3 3.8-4.5 4.5.3.3 1.1-.1 1.8-1 1.8-2.1 4-1.9 4 .5 0 1.2 1.2 2.6 3 3.5 3.1 1.6 3.9.9 1.8-1.4-1.1-1.1-.6-1.3 2.6-.8 3.9.6 6.6-.5 6.6-2.6 0-.7-.4-.7-1.2.1-.7.7-1.7 1.2-2.2 1.2-.6 0-.5-.5.2-1.2s1.2-2.7 1.2-4.5c0-2.5-.4-3.1-1.5-2.7-.8.4-1.5.1-1.5-.4 0-.6 1.2-1.2 2.8-1.4 2.3-.3 2.7-.8 2.9-3.8.2-3.2.2-3.3-.9-1.2-1.2 2.4-1.7 2.6-3.6 1.3-1-.6-.8-1 1-1.5 1.5-.4 1.9-.9 1.1-1.4-.8-.5-.8-1.2.3-2.7.8-1.1 1.7-1.8 2-1.7 1.4.9 1.3-.6-.1-1.8-.8-.7-1.5-1.9-1.5-2.8 0-1.7-1.4-.7-1.6 1.1 0 .7-.2 2.1-.3 3.2-.1 1.9-.2 1.9-1.2.2-.6-.9-1.6-1.5-2.2-1.1-.7.3-.4-.1.6-.9 1.8-1.5 1.8-1.6-.2-3.6-1.2-1.2-2.1-3.1-2.2-4.4-.2-5.2-.5-6.2-1.4-6.2-.5 0-.8.6-.7 1.4.3 1.3.1 1.3-1.2.1-2.6-2.1-1.3-3.5 3.1-3.5 3.6 0 4 .2 3.2 1.7-.7 1.3-.6 1.8.3 1.8 1.5 0 5-3.5 6.6-6.6 3-5.6 7.5-22.2 8.7-31.9.8-7 5.5-19.2 6.8-17.8.4.3 0 1.8-.8 3.3-.8 1.5-1.1 3.7-.8 4.8.3 1.2.1 2.2-.3 2.2-.5 0-1 2-1 4.4-.2 7.5-1.4 11.8-3 11.2-1.2-.4-1.1-.1.2 1.9 1.4 2.2 1.4 2.7-.1 5.9-.9 1.9-1.4 3.9-1.1 4.5.3.5 0 1.6-.8 2.3-.9 1-1.1 2-.4 3.1.7 1.3.5 1.7-.7 1.7-.8 0-1.4.3-1.3.7.2.5-.8 2.5-2 4.5-1.3 2.1-2.5 5.2-2.7 6.9-.3 1.8-1.1 4-2 4.9-1.5 1.6-1.4 1.9.1 3.4 1.9 2 2.4 1.7 2.8-1.6.1-1.3.6-2.9 1-3.6.4-.7.4-1.2.1-1.2-.3 0 .6-1.2 2-2.7 1.4-1.5 2.5-3.2 2.5-3.8 0-.5.5-.2 1.1.8 1 1.8 1.2 1.8 3.5-.4 1.3-1.2 2.4-1.7 2.4-1.1 0 2 4.1 1.3 6.1-.9 1.6-1.9 1.9-2 2.5-.5.3.9 1.1 1.6 1.6 1.6.6 0 .6-.6-.1-1.4-1.6-1.9.3-3 2.1-1.3.7.7 2.6 1.2 4.1 1 2.5-.2 2.7 0 1.5 1.4-1.1 1.5-1.1 1.6.5 1 1.3-.5 2 0 2.6 1.6 1 2.6.9 6.8-.2 6.5-1.1-.4-3.9 5.4-3.3 6.9.9 2.2 2.8 1.5 2.1-.8-.5-1.4-.2-2.5.6-3 1.8-1.1 3.2-1.1 2.5 0-.8 1.3.3 3.8 2 4.5 1.2.4 1.2.2.4-1.5-.6-1.1-1-3.4-.8-5.1.3-3 .4-3.1 2-1.4 1 .9 2.3 1.4 2.9 1 .8-.4.9-.3.5.4-1.1 1.8.2 1.4 2.2-.6 1-1 1.7-2.3 1.5-2.8-.7-2 7.5-4.9 10-3.6.5.2-.1 1.1-1.3 1.9-1.2.8-1.9 2.1-1.7 2.7.3.7.1 1.9-.3 2.7-.5.8-.4 1.9.2 2.6 1.4 1.8 3.1 1.6 2.5-.1-.4-1-.1-1.3.9-.9.7.3 1.4 1 1.4 1.6 0 .6 1.1 0 2.5-1.3l2.5-2.3v2.6c0 1.7.5 2.7 1.4 2.7.8 0 1.7.6 2 1.2.3 1 .9.8 1.9-.5 1.8-2.1 3.2-.7 2.2 2.2-.5 1.5-.2 1.8 1.3 1.4 1.7-.4 1.9-.1 1.4 2.4-.4 1.9-.7 2.2-1 1-.2-.9-.8-1.5-1.3-1.1-.5.3-.7 1-.3 1.5.3.6-.2 1.9-1.2 3-2 2.2-4.3 2.6-2.4.4 1-1.1.9-1.8-.4-3-2.4-2.4-4.9-1.4-6 2.3-.8 2.8-.6 3.6 1.2 5.5 1.3 1.3 2.2 1.6 2.2.9 0-.7.4-1 1-.7.6.4.2 1.5-1 2.7-1.1 1.2-1.9 2.7-1.8 3.2.1.6-.2 2.8-.7 4.9-.5 2.6-1.2 3.7-2.1 3.3-.8-.3-1.4 0-1.4.5 0 .6-.9.9-2 .6-1-.3-2-.1-2.2.5-.2.5-1.6-.2-3.1-1.6-1.6-1.4-3.7-2.6-4.8-2.6-1.1 0-1.9-.7-1.9-1.6 0-1.1-.5-1.4-1.7-1-.9.4-2 .1-2.5-.6-.5-1-.8-.8-.8.5 0 1-.4 1.6-.9 1.2-.5-.3-1.2.5-1.4 1.7-.2 1.3-.5.4-.6-2-.1-3.9-.3-4.2-2.1-3.2-1.6.9-1.9.8-1.4-.7.2-1-.1-.7-.8.7-1.5 3.1-3.8 5-5.8 4.9-1.3-.1-1.3-.1 0-.6 1.9-.7 3-2.4 2.4-3.5-.3-.4-2 .3-3.7 1.5-4.6 3.4-6.5 3.9-7.7 1.9-.8-1.5-1.1-1.5-1.9-.2-1.2 1.8-2.4.8-1.5-1.4.7-1.7 4.4-2.3 4.4-.6 0 .5.5 1 1 1 1.7 0 1.1-2.9-.9-4-1.4-.7-2-.7-2.3.2-.2.6-2.4 1.2-4.8 1.3-3.9.2-4.6.6-5.7 3.1-.6 1.6-1 3.7-.7 4.6.3 1 .1 1.8-.5 1.8s-1.1.7-1.1 1.5c0 1.8 2.1 2 3.8.3.9-.9 1.2-.9 1.2.1 0 .7.9 1.1 2.3.9 1.6-.2 2.2-.9 2.1-2.6-.1-3 2.4-2.8 3.8.3 1.4 3 2.7 2.4 2-1-.2-1.5 0-2.5.8-2.5.7 0 .9.8.5 2.1-.5 1.5-.4 1.9.4 1.5.8-.5.8.1-.1 1.9-.6 1.4-1.7 2.4-2.4 2.1-.8-.3-1.1 0-.8.9.3.8-.3 1.6-1.6 2-2.6.8-4-.2-2-1.6 1.1-.7.5-.8-2-.4-1.9.4-5.6.9-8.3 1.2-2.6.3-5 1-5.4 1.6-.4.6 0 .8 1 .4 2-.8 2.1 0 .2 3.3-1.9 3.4-1.9 4.5.2 2.4 1.6-1.5 1.7-1.5 2.3.2.4 1.1.9 1.4 1.3.7.4-.6.4-1.9 0-3-.6-1.6-.5-1.6 1-.4 1.5 1.2 1.7 1 1.7-1.5 0-2.2.3-2.5.9-1.4.6.8.7 1.9.5 2.5-.3.5.1.2.9-.8 1.4-1.7 1.5-1.6 1.2 1.5-.2 1.9.3 3.8 1.1 4.6 1.2 1.1 1.4 1 1.4-.3 0-1.7 1.6-2 2.5-.5 1 1.7 3.2 1.1 3.8-1 .3-1-.1-2.4-.9-3.1-.8-.6-1.1-1.6-.8-2.1.4-.6 1-.5 1.6.3.7 1 .8.8.4-.7-.5-1.5.2-2.8 2.4-4.7 1.6-1.5 3-3.2 3-3.9 0-.6 1.1.1 2.4 1.5 2.5 2.7 2.7 4.1 1.2 6.6-.5.8-.3 1.6.5 2.2 2.1 1.3 3 1.1 2.8-.9-.3-3.6.1-5.4 1.4-4.9.6.2 1.1 1 .9 1.6-.1.6.2 1.1.8 1.1 1.3 0 1.3-2.3.1-3.6-.6-.5-.4-1.4.5-2.2 1.2-1.1 1.6-.8 2.6 1.3s.9 2.8-.2 3.5c-2.7 1.7-.2 2.1 2.9.6 3.8-2 6.1-2 6.1-.1 0 .8-.9 1.5-2 1.5s-2 .4-2 1c0 .5-.7.7-1.5.4-.8-.4-1.5-.1-1.5.5 0 1.5 2.3 1.4 3.9-.2 1-1 1.1-.9.6.4-.7 2 3 5 5.1 4.2 2-.8 1.7 1-.5 2.9-1.2 1-2.9 1.4-4.6 1-2.7-.5-2.7-.4-1 1.6 1 1.1 2.4 1.8 3.2 1.5.8-.3 1.9 0 2.3.7.7 1.1 1.1 1.1 2.4.1.9-.7 1.3-1.8 1-2.3-.4-.6-1-.5-1.5.3-.4.7-1.2 1-1.6.5-.4-.4.2-1.5 1.5-2.3 1.2-.9 2.2-2.1 2.2-2.8 0-.7.7-1.5 1.5-1.9.9-.3 1.5 0 1.5.9 0 .8.4 1.5 1 1.5.5 0 .8.6.6 1.2-.1.7-.1 1 .1.5.9-1.4 3-.7 2.7 1.1-.4 3.2-1.6 6.2-2.5 6.2-.5 0-.6-.7-.3-1.5.5-1.1-.1-1.5-2.2-1.4-1.6 0-2.3.3-1.6.6.6.2 1.2.9 1.2 1.4 0 1.3-4.4 1.1-5.7-.2-1.7-1.7-5.6-.1-5 2.2.3 1 .1 1.9-.4 1.9s-.9-.4-.9-.9-.8-1.1-1.8-1.3c-2.1-.6-6.8 2.7-5.2 3.7.5.3 1 .1 1-.4 0-.6.5-1.1 1-1.1 1.5 0 1.2 2.1-.7 4.2-1.6 1.8-1.6 1.8.3 1.2 1.6-.7 1.7-.5.7.8-.7.8-1 1.7-.7 2 .2.3-.2.8-1 1.1-.8.3-1.7-.1-2-1-.4-.8-1.3-1.3-2-1-1 .4-1.8-.4-2.5-2.1-.5-1.5-1-2.1-1-1.5-.1.7 0 1.4.2 1.6.1.2-.6 1.1-1.6 2.1-1.6 1.7-1.7 2-.2 4.2 1.7 2.7.9 3.5-3 3.1-1.6-.2-2 .4-2.1 2.8-.3 6.6-.4 7.5-1.4 7.5-.6 0-.6-.9 0-2.4 1.1-2.9.2-7.5-1.1-5.4-.6.9-.8.6-.7-1.1.3-2.7-2.8-5.4-4-3.4-1 1.6-4.5 1.1-5.5-.7-.5-1-.6-.8-.3.7.2 1.2-.3 3.2-1.2 4.4-1.1 1.6-1.2 2.4-.4 2.7 1.3.4-2.4 8.2-3.9 8.2-.5 0-.9.7-.9 1.5s.5 1.5 1 1.5c.6 0 1 .9 1 2s-.5 1.8-1.2 1.5c-.7-.2-2.9 1.6-4.8 4s-3.6 4.2-3.9 4c-.2-.3.2-1.1.9-2 2.1-2.5.4-2.8-1.9-.4-1.2 1.3-2.1 2.6-2.1 2.9 0 .3 4 .7 8.9.8 7.2.2 9 0 9.4-1.3.4-.8 1.1-1.5 1.8-1.5.6 0 .9.6.6 1.4-.5 1.2.7 1.4 6.1 1.4 3.9 0 7-.5 7.4-1.2.6-.8.8-.8.8.1 0 2 5.7 1.6 7-.5 1-1.5 1.1-1.5.6 0-.4 1.5.7 1.7 11.2 1.7 7.1 0 11.9-.4 12.3-1.1.4-.7 1.3-.7 2.7.1 2.8 1.5 17.2 1.5 17.2 0 0-.8.4-.8 1.3-.1.8.7 13.1 1.1 36 1.2 30.6 0 34.6-.1 34.1-1.5-.4-.8-1-1.5-1.5-1.5-1.9 0-.8-2.2 2.6-5.4 3.3-3.2 4.6-6.6 2.5-6.6-.5 0-1-.7-1-1.5s.8-1.5 1.8-1.5c1.3 0 1.4-.2.3-.9-.7-.5-2.3-.7-3.5-.4-2 .3-2 .3.1-.6 2-.9 2.2-1.3 1.1-3.5-1.2-2.8-2.8-2.5-2.8.5 0 2.9-2.8 2.3-3.3-.8-.9-5.3-.6-7.3 1-7.3 2.5 0 1.1-.8-2.4-1.4-2.2-.4-3.3-.2-3.7.9-.3.9-1.5 1.4-2.8 1.1-2.5-.3-2.6-.6-1.4-5.3.6-2.7 1.2-3.2 3.2-3.1 2.3.2 2.8.9 2.5 3.5-.1.6.3 1.4.9 1.8.5.3 1-.1 1-1.1 0-1.3.3-1.4 1.5-.4 1.1.9 1.5.9 1.5.1 0-.7.9-.9 2.4-.5 1.6.4 2.7.1 3.3-.9.6-1.2 1-1.2 1.9-.3.9.9.8 2-.1 4.2-.8 1.6-1.4 2.3-1.4 1.6-.1-.7-.5-1-1.1-.7-.6.4-.5 1.1.2 1.9 1 1 1.6.9 3-.8 1-1.2 1.7-1.5 1.8-.8 0 .6.3 1.1.8 1.1 2.6-.4 4.2.3 4.2 2.1 0 1.1-.3 2-.7 2-.5 0-.9 1.5-1 3.3-.2 2.8-.1 3 1.1 1.5.7-1 2-1.8 2.8-1.8 1.7 0 3.1-4.7 1.7-5.6-.5-.3-.9 0-.9.7 0 1-.3 1-1.1.2-2-2 .1-3.6 2.2-1.7 1 .9 1.6 2.1 1.3 2.5-.9 1.4.8 1 2.6-.6 1.4-1.2 2.3-1.3 4.5-.5 2.8 1.1 6.4.6 5.1-.7-.3-.4.8-1.3 2.6-2 2.7-1.2 3.4-1.2 4.7.2 1.5 1.5 1.4 1.5-.1.9-1.3-.4-1.8-.1-1.8 1 0 .9-.8 1.6-2 1.6-1.1 0-2 .4-2 1 0 .5.7 1 1.6 1 .8 0 1.3.4 1 .8-.3.5.5.8 1.7.8 1.6-.1 2.6.8 3.6 3.1.8 1.8 1.9 3.3 2.3 3.3.5 0 .6-.4.3-1-.3-.5 0-.7.8-.4.8.3 1.8.1 2.1-.5.4-.6-.5-1.3-1.9-1.7-2.4-.6-3.6-2.4-1.5-2.4.6 0 1-.4 1-1 0-.5-.7-.6-1.7-.3-1.1.4-1.4.3-.9-.5.4-.7 1.4-1.2 2.2-1.2.8 0 1.4-.9 1.4-2s.5-2 1-2c.6 0 1 .9 1 1.9 0 1 .6 2.1 1.4 2.4.9.4 1.3 1.8 1.2 3.9-.4 4.8-.4 4.8-2.2 4.8-2.3 0-.8 1.7 2.1 2.2 2.7.6 3.2-.1 1.4-1.9-.8-.8-.8-1.3 0-1.7.6-.4 1.1-2.7 1.1-5.2 0-4.2-.2-4.5-2.1-3.9-1.5.5-1.9.4-1.5-.4.4-.6 1.4-1.1 2.2-1.1.8 0 1.4-.8 1.4-1.8 0-1.4-.2-1.5-1-.2-1.6 2.5-2 .5-.5-2.4 2-3.8 2-8.6 0-8.6-.8 0-1.5-.5-1.5-1 0-.6.7-1 1.5-1 1.2 0 1.5-1.5 1.5-7.3 0-4.2-.5-7.8-1.2-8.5-.8-.8-.8-1.5.2-2.7 1-1.3.9-1.5-.7-1.5-1 0-2.9-.8-4.2-1.7-1.4-.9-2.1-1.1-1.7-.5 1.1 1.8-1.6 2.6-3 .8-.9-1.3-1.3-1.4-1.7-.4-.6 1.4-1-2.3-.7-6 .1-1.4-.4-2.2-1.4-2.2-1.7 0-2-.9-1-3.4.9-2.3 3.3-2 4.4.7.5 1.2.9 1.6.9.9.1-2.2 2.1-1.3 2.2 1 .1 1.6.3 1.8.6.7s1.1-1.5 2.4-1.2c1.5.4 1.7.8.8 1.9-.9 1.1-.8 1.4.5 1.4 1.8 0 2.2-3.5.5-4.5-.6-.4-.9-1.9-.8-3.3.2-1.5-.1-3.4-.6-4.2-.8-1.3-.7-1.3.8-.1.9.7 1.7 1 1.7.5s.5-.2 1 .6c.7 1 1-1.5.9-8.5-.2-13.7-.8-17.5-2.6-17.5-.8 0-1.1.5-.7 1.1.8 1.3 1.4 6.9.7 6.9-.2 0-1.3-.5-2.4-1-1.6-.9-1.9-.7-1.9.9 0 1.1-.5 2.3-1 2.6-.8.5-.8 1.1 0 2 .7.9.6 1.6-.5 2.5-1.2 1-1.5 1-1.5-.4 0-2.1-3-5.5-4.5-5-1.3.5-4.8-3-5.1-5.1-.1-.8.2-1.5.7-1.5.5 0 .9.4.9 1 0 .5.5 1 1.1 1 .5 0 .8-.4.5-.9-1.1-1.6 1.8-6.2 3.6-5.7 2.4.6 3.5-1.4 1.6-2.8-.8-.6-1.3-1.7-1-2.5.3-.9 0-1.1-.9-.6-1.1.6-1.1.5-.3-.4.9-1 1.6-1 3.3.1 1.1.7 2.1 1.6 2.1 2.1 0 .4-.4.5-1 .2-.5-.3-1-.1-1 .4 0 .6.4 1.1.9 1.1s.8 2.2.7 4.9c-.1 3.6.2 4.7 1.1 4.4.7-.3 1.3-2.2 1.3-4.3 0-3.3.3-3.7 2-3.3 1.2.3 2 0 2-.6 0-.7.5-.9 1-.6.7.4 1-7.3 1-22.3 0-18.8-.3-23.2-1.4-24.2-.8-.6-1.2-1.9-.9-2.7.4-1.1.2-1.4-.5-.9-.7.4-1.9 0-2.8-.8-1.1-1.2-2-1.3-3.4-.6-2.3 1.2-3.3 1.3-2.6.1.8-1.3-4.6-2.3-7.7-1.6-3.1.8-5.6-.3-3.6-1.6 1-.6.8-.9-.9-.9-1.3 0-3-.7-3.8-1.5-1.3-1.3-1.8-1.2-4.2 1-1.5 1.4-3.6 2.5-4.8 2.5-1.1 0-2.9 1-4 2.1-1.9 2.1-1.9 2.2.4 1.5l2.3-.8-2.3 2.4c-1.8 1.8-2.4 2-2.9.9-.4-1.2-.7-1.1-1.2.3-.5 1.3-1.4 1.6-3.1 1.2-2.5-.6-6.2 2.4-4.9 3.9.5.4 0 .5-1 .2-1-.4-2.4-.7-3.1-.7-.7 0-1.9-1.1-2.6-2.5-.8-1.5-2.2-2.5-3.6-2.5-1.2 0-3.5-.7-5-1.5-4.9-2.5-8.3-1.9-11.7 2-1.6 1.9-3.3 3.2-3.8 2.9-.5-.3-1.2.2-1.5 1-.3.9-1.2 1.6-2 1.6s-1.4.4-1.4.9c0 1.1-8.2 2-9.5 1-.5-.4-1.4-.8-1.8-.8-1 0-4.1-3.1-3.2-3.1 1 0-5.8-6.3-8.3-7.8-1.9-1-2.2-1-2.2.5-.1 1.7-.1 1.7-1.1.1-.5-1-.9-2.4-.8-3 .3-2.6-.1-3.9-1.1-3.3-1.6 1-4.1-2.1-3.4-4.2.3-1 .2-1.4-.3-.8-.4.5-1.5 1.1-2.3 1.1-.8.1-2.4.5-3.4 1-1.4.5-1.7.4-1.2-.4.4-.7.2-1.2-.3-1.2-.6 0-1.1-.7-1.1-1.6 0-.9-.9-1.8-1.9-2.1-1.4-.3-2.2-1.7-2.6-4.4-.6-3.5-.9-3.8-2.3-2.7-1.3 1.1-1.5 1-.9-.4.3-.9.1-1.8-.5-2-.8-.3-.8-.9-.2-1.9 1.5-2.3 1.1-3.3-2.1-4.9-3.8-2-4.5-1.6-1.7 1 3.3 3.1 3 8.1-.7 10.2-2.4 1.3-2.9 1.3-2.4.2.3-.8-.1-1.4-.8-1.4-1.1 0-1.1-.2 0-1.3 1.1-1 1.4-1 1.8 0 .3.7.9 1.3 1.4 1.3 1.3 0 1.1-2.8-.2-3.2-.7-.2-1.3-3.1-1.5-6.3-.2-3.3-.7-7.4-1-9-1.2-6.3-1.4-8.6-.4-8 .6.3 1 .1 1-.4 0-.6-.4-1.1-.8-1.1-1 0-1-7.6.1-8.6.6-.6.9 1.8.6 4.2 0 .4.4 1 .9 1.3.5.3 1.2 1.6 1.6 2.8.5 1.6.2 2.6-1.3 3.5-2.5 1.5-2.8 3-.5 2.1 1.5-.6 3.4 1.1 3.4 3.2 0 .5-.4.3-1-.5-.5-.8-1.2-1.1-1.7-.7-.7.8 1.4 2.7 2.9 2.7.4 0 1-1.1 1.4-2.5.6-2.6 1.8-3.2 2.9-1.5.3.5 1.3.7 2.3.4 1-.4 1.3-.3.6.3-.6.4-1.4 1.8-1.8 3-.6 1.7-.3 2.3.8 2.3 1 0 1.3-.6 1-1.5-.4-.8-.1-1.5.4-1.5.6 0 1.4.9 1.7 2 .7 2.3 2.1 2.6 2.7.7.7-1.8-.2-3.7-1.8-3.7-.8 0-1.3-.9-1.3-2.3.1-1.2-.2-3-.6-4-.4-1-.3-1.7.5-1.7.6 0 .8.4.5 1-1 1.6 1.1 1.2 2.5-.5.6-.8.9-2.3.5-3.6-.5-1.5-.4-1.9.5-1.4.9.6.9.3 0-1.5-.6-1.2-.9-2.7-.7-3.4.3-.7.1-1.9-.3-2.7-.6-.8-.4-1.6.3-2.1.6-.4.8-1 .4-1.4-.4-.4-1.3-.2-1.9.4-.7.7-1.7 1.2-2.3 1.2-.5 0-.3-.5.5-1 1.2-.8 1.1-1.3-.8-3.9-1.2-1.6-1.8-3.2-1.3-3.6.5-.3 1.1.1 1.4.7.3 1 .7 1 2-.1 1.2-.9 1.7-1 1.7-.2 0 .7.3 1 .8.7.9-.5.7-6.4-.3-9.5-.4-1.3-.1-2.9.7-3.9 1.2-1.5 1.1-1.6-.4-.3-1 .7-1.8 2.6-1.8 4.2 0 2.9-1.4 4.6-2.4 3-.4-.5-.2-1.3.4-1.6.6-.4.9-1.4.6-2.3-.2-1-.7-2.7-1.1-4-.5-1.7-.3-2.1 1.2-2 1 .2 1.9-.2 2-.7.2-.6-.5-1-1.5-1.1-5.3-.3-5.3-.4-5-3.2.3-2.7 2.3-3.4 2.3-.7 0 .8.6 2 1.3 2.7 1 1 1.1.6.6-2-.5-2.6-.4-3.1.9-2.6.8.3 1.7 1.4 2 2.5.5 2 3.7 2.7 3.7.8 0-.5-.4-.7-1-.4-.6.4-.7-.6-.4-2.5l.6-3h-6.6c-5.9 0-6.6.2-6.6 2 0 1.1-.4 2-1 2-.5 0-1-1-1-2.3-.1-2-.2-2.1-1.4-.5-1.6 2.2-3 2.4-2.3.4.4-1.1-.2-1.4-2.4-1.4-2 .1-2.6.4-1.7.9.7.5.8.9.3.9-.6 0-1.6-.5-2.2-1.1-.9-.9-1.6-.8-2.7.4-.9.9-1.6 2.1-1.6 2.7 0 .6-.5 2-1 3.1-.9 1.6-1.3 1.7-2.3.7-1.6-1.6-1.7-6-.3-7 .5-.4-2.1-.6-5.9-.6-3.9 0-7.3.6-7.7 1.2-.6.8-1 .8-1.6-.1-1-1.6-20.4-1.5-21.4.1-.6.8-1 .8-1.5 0S60.6.2 54 .1c-7.8-.1-10.1.2-9 1 1.1.8 1.2 1.2.2 1.6-.6.2-1.2 1.1-1.2 1.8 0 1.8-3.7 3.9-4.5 2.6-.3-.5.3-1.2 1.3-1.6 1.2-.3 1.9-1.4 1.8-2.8C42.5.6 42.2.5 28.8.2L15-.1v2.3l-.1 2.3L12.8 2 10.7-.5l.8 2.4c.6 2 .4 2.3-1 1.8-.9-.4-1.9-.7-2.2-.7-.3 0 0-.7.7-1.5C10.1.2 9.6 0 5.2 0H.1L0 27.4zM68.7 3.2c-.3.8-.6.5-.6-.6-.1-1.1.2-1.7.5-1.3.3.3.4 1.2.1 1.9zM41 3c0 .5-.7 1-1.6 1-.8 0-1.2-.5-.9-1 .3-.6 1-1 1.6-1 .5 0 .9.4.9 1zm8 0c0 .5-.5 1-1.1 1-.5 0-.7-.5-.4-1 .3-.6.8-1 1.1-1 .2 0 .4.4.4 1zm34-.6c0 .3-.4.8-1 1.1-.5.3-1 .1-1-.4 0-.6.5-1.1 1-1.1.6 0 1 .2 1 .4zm3.7.2c-.3.3-1.2.4-1.9.1-.8-.3-.5-.6.6-.6 1.1-.1 1.7.2 1.3.5zm28.9 3.1c-1.1 1.1-1.9-.6-1.1-2.4.8-1.7.8-1.7 1.2 0 .3 1 .2 2.1-.1 2.4zM67 4c0 .5-.4 1-1 1-.5 0-1-.5-1-1 0-.6.5-1 1-1 .6 0 1 .4 1 1zm44 2.6c0 .8-.4 1.2-1 .9-.5-.3-1-1.3-1-2.1s.5-1.2 1-.9c.6.3 1 1.3 1 2.1zM63 6c0 .5-.5 1-1.1 1-.5 0-.7-.5-.4-1 .3-.6.8-1 1.1-1 .2 0 .4.4.4 1zm25 0c0 .5-.4 1-.9 1-.6 0-1.3-.5-1.6-1-.3-.6.1-1 .9-1 .9 0 1.6.4 1.6 1zM10 8c0 .5-.4 1-1 1-.5 0-1-.5-1-1 0-.6.5-1 1-1 .6 0 1 .4 1 1zm75.4-.4c.9.3 1.6 1.3 1.6 2.1 0 1.3-.3 1.3-1.5.3s-1.5-1-1.5.4c0 .9-.4 1.6-1 1.6-1.1 0-1.3-1.1-.4-3.4.7-1.8.7-1.8 2.8-1zM116 9c0 .5-.2 1-.4 1-.3 0-.8-.5-1.1-1-.3-.6-.1-1 .4-1 .6 0 1.1.4 1.1 1zm6-.6c0 .3-.4.8-1 1.1-.5.3-1 .1-1-.4 0-.6.5-1.1 1-1.1.6 0 1 .2 1 .4zM41.5 10c-.3.5-1 1-1.6 1-.5 0-.9-.5-.9-1 0-.6.7-1 1.6-1 .8 0 1.2.4.9 1zM70 10c0 .5-.7 1-1.6 1-.8 0-1.2-.5-.9-1 .3-.6 1-1 1.6-1 .5 0 .9.4.9 1zm36.1 1.3c-1 .9-1.1.8-.5-.6.3-1 .9-1.5 1.2-1.2.3.3 0 1.1-.7 1.8zM76 11c0 .5-.4 1-1 1-.5 0-1-.5-1-1 0-.6.5-1 1-1 .6 0 1 .4 1 1zm-60.6 1.8c.2.4-.7 1.2-2 1.9-1.9.9-2.4.8-2.4-.2 0-1.9 3.4-3.2 4.4-1.7zM44 13c0 .5-.4 1-1 1-.5 0-1-.5-1-1 0-.6.5-1 1-1 .6 0 1 .4 1 1zm44 2.3c0 1.8-.6 3.9-1.2 4.5-.7.7-1.4 3-1.5 5-.5 7.8-.8 9.7-1.7 10.4-.6.4.2 1 1.7 1.3 1.5.4 2.4 1.1 2.1 1.6-.3.5-1 .6-1.6.3-.6-.4-1.5 0-2 .7-.8 1.1-.9 1-.4-.4.4-1.4-.1-1.7-2.4-1.7-2.9 0-4.2-2.1-2.1-3.4.5-.3.7-1.5.4-2.6-.3-1.1-.1-2 .5-2s.8-1 .4-2.3c-.5-2.1-.5-2.2 1.5-.4 1.4 1.2 2.3 1.5 2.8.8.6-1-3.2-3.1-5.6-3.1-.5 0-.9-.5-.9-1 0-.6.5-1 1-1 .6 0 .4-1.2-.4-2.8-1.4-2.8-.7-6.7.8-4.3.4.6.2 1.1-.5 1.1s-.4.6.7 1.4c1.4 1.1 2.1 1.1 2.6.3s.8-.6.8.5c0 1 .5 1.8 1.1 1.8.7 0 .9-1 .5-2.5-.4-1.4-.2-2.5.3-2.5.6 0 .8-.7.5-1.5-.4-.9 0-1.5 1-1.5 1.1 0 1.6.9 1.6 3.3zm38-2.3c0 .5-.4 1-1 1-.5 0-1-.5-1-1 0-.6.5-1 1-1 .6 0 1 .4 1 1zm-79 2c0 1.1.7 2.3 1.5 2.6 1.5.6 2.1 2.4.8 2.4-2.6-.1-5.9-7-3.4-7 .6 0 1.1.9 1.1 2zm6.7 2.2c-.3.8-.6.5-.6-.6-.1-1.1.2-1.7.5-1.3.3.3.4 1.2.1 1.9zM61 16c0 .5-.5 1-1.1 1-.5 0-.7-.5-.4-1 .3-.6.8-1 1.1-1 .2 0 .4.4.4 1zm-.7 2.3c.4-.3.7-.1.7.5 0 1.8-2.7 1.4-3.4-.4-.5-1.3-.4-1.4.7-.6.8.7 1.7.9 2 .5zM96 18c0 .5-.5 1-1.1 1-.5 0-.7-.5-.4-1 .3-.6.8-1 1.1-1 .2 0 .4.4.4 1zm17 1c-.8.5-1.7.7-1.9.4-.3-.3.1-.9.9-1.4.8-.5 1.7-.7 1.9-.4.3.3-.1.9-.9 1.4zm5.6.7c-1 1-1.9-.5-1-1.8.6-1.1.8-1.1 1.2 0 .2.7.1 1.5-.2 1.8zM5.5 19c.3.5.1 1-.4 1-.6 0-1.1-.5-1.1-1 0-.6.2-1 .4-1 .3 0 .8.4 1.1 1zm41.1 2.7c-.7.7-2.6-.7-2.6-1.9 0-.6.6-.6 1.5.2.9.7 1.3 1.5 1.1 1.7zM89.5 20c.3.5.1 1-.4 1-.6 0-1.1-.5-1.1-1 0-.6.2-1 .4-1 .3 0 .8.4 1.1 1zm-51 1c-.3.5-1 1-1.6 1-.5 0-.9-.5-.9-1 0-.6.7-1 1.6-1 .8 0 1.2.4.9 1zm3.5.6c0 .8-.5 1.2-1 .9-.6-.4-.8-1.1-.5-1.6.9-1.4 1.5-1.1 1.5.7zm52-.2c0 .3-.4.8-1 1.1-.5.3-1 .1-1-.4 0-.6.5-1.1 1-1.1.6 0 1 .2 1 .4zm17.4 1.2c2.1.8 2 2.4-.1 2.4-1.3 0-1.4.3-.6 1.1.9.9.8 1.5 0 2.4-1.3 1.3-3.7.9-3.7-.7 0-.5.5-.6 1.2-.2.8.5.9.2.5-.9-.4-1-.2-1.7.4-1.7.6 0 .9-.7.5-1.5-.6-1.7-.4-1.8 1.8-.9zm11.8 2.9c0 .5-.5 1.1-1.1 1.3-.6.2-1.1-.4-1.1-1.3s.5-1.5 1.1-1.3c.6.2 1.1.8 1.1 1.3zm-22.8 2.1c.4.9.4 1.9.2 2.1-.8.8-2.6-.8-2.6-2.3 0-1.9 1.6-1.8 2.4.2zm20.1 3.4c-.4 1.3-1.2 1.9-2.1 1.6-.8-.3-1.4-.1-1.4.4 0 .6-.4 1-1 1-.5 0-1-1.4-1-3 0-3 1.4-4.1 2.3-1.8.3.7.6.2.6-1.2.1-2.2.2-2.3 1.7-.8 1.1 1 1.4 2.3.9 3.8zM40 28.7c0 1.9-2.1 2.7-3.1 1.2-1.3-2.2-1.1-2.8 1.1-2.6 1.1.1 2 .7 2 1.4zm29-.7c0 .5-.2 1-.4 1-.3 0-.8-.5-1.1-1-.3-.6-.1-1 .4-1 .6 0 1.1.4 1.1 1zM5 29.7c-.8.3-2.1 1-2.7 1.6-.9.7-1.3.5-1.3-.7 0-1.1.8-1.6 2.8-1.5 1.5 0 2.1.3 1.2.6zM44 32c0 .5-.4 1-1 1-.5 0-1-.5-1-1 0-.6.5-1 1-1 .6 0 1 .4 1 1zm-4.3 1.4c-.3.7 0 1.9.6 2.5.8.8.6 1.7-1.1 3.3-2.7 2.8-3.2 2.3-2.5-3 .4-2.8 1.1-4.2 2-4.2.9 0 1.3.6 1 1.4zM10 36.6c0 .8-.4 1.2-1 .9-.5-.3-1-1-1-1.6 0-.5.5-.9 1-.9.6 0 1 .7 1 1.6zm35-.6c0 .5-.4 1-1 1-.5 0-1-.5-1-1 0-.6.5-1 1-1 .6 0 1 .4 1 1zm58 1c0 1.1-.7 2-1.5 2s-1.5-.9-1.5-2 .7-2 1.5-2 1.5.9 1.5 2zm14-1c0 .5-.4 1-1 1-.5 0-1-.5-1-1 0-.6.5-1 1-1 .6 0 1 .4 1 1zM16 38c0 1.1-.2 2-.5 2-.2 0-.9-.9-1.5-2-.9-1.6-.8-2 .5-2 .8 0 1.5.9 1.5 2zm104-1c0 .5-.4 1-1 1-.5 0-1-.5-1-1 0-.6.5-1 1-1 .6 0 1 .4 1 1zm11 0c0 .5-.2 1-.4 1-.3 0-.8-.5-1.1-1-.3-.6-.1-1 .4-1 .6 0 1.1.4 1.1 1zm-6 2.1c0 .6-.4.7-1 .4-.5-.3-1-1.1-1-1.6 0-.6.5-.7 1-.4.6.3 1 1.1 1 1.6zm3-1.1c0 .5-.4 1-1 1-.5 0-1-.5-1-1 0-.6.5-1 1-1 .6 0 1 .4 1 1zm-94.4 7.6c0 2.6-.6 4.9-1.2 5.1-.8.3-1-1-.8-3.9.6-6.6.7-6.7 1.4-6.3.4.3.7 2.6.6 5.1zm68.4-4.1c-1 1.2-.9 1.6.3 2.1.9.3 1.3 1.2 1 2.1-.4 1-.2 1.4.4 1 .6-.4 1.8.2 2.8 1.3 1 1.2 1.3 2 .7 2-.7 0-1.2.9-1.2 2 0 2.4-.6 2.5-2.7.4-1.2-1.1-1.8-1.2-2.3-.4-.5.8-.9.4-1.3-1-.4-1.6-.2-2 .9-1.6.8.3 1.4.1 1.4-.4 0-.6-.5-1-1-1-.7 0-.7-.6 0-2s.7-2 0-2c-.5 0-1 .5-1 1.2 0 .6-.2.9-.5.6-.9-.9 1.3-5.8 2.6-5.8.8 0 .8.4-.1 1.5zm30 .5c0 .5-.4 1-1 1-.5 0-1-.5-1-1 0-.6.5-1 1-1 .6 0 1 .4 1 1zm-93.2 1.4c-.7.8-1.7 1.2-2.2.9-.4-.3-.2-.9.5-1.4 2.2-1.3 3.1-1.1 1.7.5zm86.2-.9c0 1.5-2.4 5.4-3.1 4.9-1-.6 1-5.4 2.3-5.4.4 0 .8.2.8.5zM82.5 46c-.3.5-1.1 1-1.6 1-.6 0-.7-.5-.4-1 .3-.6 1.1-1 1.6-1 .6 0 .7.4.4 1zM43 48.5c0 1.4-.4 2.5-.8 2.5-.5 0-1.4 1-2 2.2-1 2.2-1.1 2.2-1.1.2-.1-2.3 2-7.4 3.2-7.4.4 0 .7 1.1.7 2.5zm-4.5-.5c-.3.5-1.1 1-1.6 1-.6 0-.7-.5-.4-1 .3-.6 1.1-1 1.6-1 .6 0 .7.4.4 1zm9.1 2.7c-1.1 1.1-1.9-.6-1.1-2.4.8-1.7.8-1.7 1.2 0 .3 1 .2 2.1-.1 2.4zm76-.6c.4.8.9.8 1.7 0 1.5-1.5 2.7-1.4 2.7.2 0 .8-1.4 1.3-3.5 1.4-2.4 0-3.5-.4-3.5-1.3 0-1.7 1.6-1.8 2.6-.3zM43.5 53c.3.5.1 1-.4 1-.6 0-1.1-.5-1.1-1 0-.6.2-1 .4-1 .3 0 .8.4 1.1 1zm-30.1.8c.2.4-.4.9-1.5.9-1.1.1-1.7-.2-1.4-.8.7-1.1 2.2-1.2 2.9-.1zM99.5 55c-.9 1.4.8 1.3 2.3-.2.9-.9 1.2-.9 1.2.1 0 .8-.8 1.9-1.7 2.6-1.5 1.1-1.5 1.4-.2 2.7.8.8 1.9 1.3 2.5 1.1 1.4-.5 1.6 5.4.3 6.3-.5.3-.9.2-.8-.3.4-2.2-.2-3.2-1.6-2.7-1.1.5-1.5-.1-1.5-1.8 0-1.3-.7-3.4-1.6-4.6-1.5-2.2-1.2-4.2.7-4.2.6 0 .7.4.4 1zm-4.5.8c0 1.3-1.2 2.2-2.2 1.6-1-.6-.1-2.4 1.3-2.4.5 0 .9.4.9.8zm18.5.2c.3.5.1 1-.4 1-.6 0-1.1-.5-1.1-1 0-.6.2-1 .4-1 .3 0 .8.4 1.1 1zm-9.5 3c0 .5-.4 1-1 1-.5 0-1-.5-1-1 0-.6.5-1 1-1 .6 0 1 .4 1 1zm-7.5.9c.3.5-.2 1.6-1 2.4-.8.9-1.5 2.4-1.5 3.3 0 1.4-.3 1.5-1.2.6-.9-.9-.9-1.5 0-2.4.7-.7 1.2-2 1.2-3 0-1.9 1.5-2.4 2.5-.9zm-62.3 7.3c.4 3.7.2 4.8-.8 4.8S32 70.7 32 67.7c0-2.4.3-4.7.7-5 .9-1 1-.8 1.5 4.5zm75.8-2.8c0 .8.5 1.6 1.2 1.8.8.3.9.6.1 1.1-.5.3-1.5-.5-2.1-1.8-.7-1.5-.8-2.5-.2-2.5.6 0 1 .6 1 1.4zm-12.3 4.5c-.1 4-.5 5.1-2 5.5-1.8.4-3.6-1.9-2.3-3.1.3-.4.6.1.6 1.1 0 .9.4 1.5.9 1.1 1.2-.7 1-4.5-.1-4.5-.5 0-.4-.8.1-1.9.6-1 .7-2.1.4-2.5-.3-.3.1-.6.9-.6 1.2 0 1.5 1.2 1.5 4.9zm-77.1-.7c1.6 1.9 1.6 2 .1.9-1.5-1.2-1.7-1.2-1.1.3.7 1.8-1.1 2.2-2.1.6-.6-1 0-4 .8-4 .2 0 1.2 1 2.3 2.2zm6.1-1c1.1 1.4 1.3 4.8.4 4.8-1.1 0-2.6-1.5-3.9-3.8-1.1-1.9-1-2.2.7-2.2 1 0 2.3.6 2.8 1.2zm26.5.5c2.2 1.9 2.5 6.5.4 5.7-.8-.3-1.2-1.4-.9-2.7.4-1.8.3-2-.7-.7s-1.1 1.3-.7-.1c.3-.9 0-2.2-.6-2.8-1.8-1.8.4-1.3 2.5.6zm61.8-.2c0 .8-.2 1.5-.4 1.5s-.6-.7-1-1.5c-.3-.8-.1-1.5.4-1.5.6 0 1 .7 1 1.5zM47 68c0 .5-.4 1-1 1-.5 0-1-.5-1-1 0-.6.5-1 1-1 .6 0 1 .4 1 1zm53 4.1c0 2.2-.4 3.8-.8 3.5-.4-.2-.7-1.7-.6-3.3.2-3.8.3-4.3.9-4.3.3 0 .5 1.8.5 4.1zm-85.2-1c.7-2 2-.2 1.5 2-.6 2-.6 2-2.9-.2-1.3-1.2-2.4-2.7-2.4-3.1 0-.5.8-.2 1.7.8 1.1 1.1 1.8 1.3 2.1.5zm89.3-.9c0 1 .2 1 .6 0 1-2.5 2-1.1 2.1 3.3.2 3.7-.1 4.3-1.4 3.8-.8-.3-1.3-1.2-.9-2 .3-1.1.1-1.3-1-.9-.8.3-1.5.1-1.5-.4 0-.6.6-1 1.3-1 .6 0 .4-.5-.6-1.1-.9-.6-1.5-1.4-1.2-2 .9-1.3 2.5-1.1 2.6.3zm8.9 1.3c0 .7.5 1.5 1 1.7.7.2.6 1-.3 2.1-1.2 1.8-1.3 1.8-2.9 0-1.1-1.3-1.3-2.4-.7-4.1.9-2.4 2.9-2.2 2.9.3zm-65.6 1.7c.3 1.7.4 3.4.1 3.7-.9.8-2.5-2.1-2.5-4.7 0-3.3 1.7-2.7 2.4 1zM35 76c0 .5-.4 1-1 1-.5 0-1-.5-1-1 0-.6.5-1 1-1 .6 0 1 .4 1 1zm18.6 3.8c0 2.6-.1 3.9-.4 3-.2-1-.9-1.5-1.8-1.1-1.7.6-1.9-1.9-.4-4.8 1.7-3.1 2.5-2.2 2.6 2.9zM8 77.1c0 1.7-2.8 4-3.5 2.9-.3-.5-.1-1 .4-1 .6 0 1.1-.7 1.1-1.5S6.5 76 7 76c.6 0 1 .5 1 1.1zm4 1.5c0 .8-.5 1.2-1 .9-.6-.4-.8-1.1-.5-1.6.9-1.4 1.5-1.1 1.5.7zm4.5-.6c.4.6 1.2.7 1.8.3.7-.4.6.1-.2 1-1.7 2.1-3.3 1.8-3.7-.6-.2-1.9 1.1-2.3 2.1-.7zm32.2 1.6c-.3.3-1.2.4-1.9.1-.8-.3-.5-.6.6-.6 1.1-.1 1.7.2 1.3.5zm-33.3 4.8c-.6 1.5-2.4 2.3-2.4 1.1 0-.8 2.4-3.4 2.8-3 .1.1 0 1-.4 1.9zm35.9.8c.3 1 .9 1 2.5.1 1.6-1 2.1-.9 2.6.2.2.7 0 1.5-.5 1.7-.5.2-1.1 1.3-1.2 2.5-.1 1.7-.4 1.9-1.4 1.1-.9-.7-1.3-.7-1.3.1 0 1.9-1.4 1.2-2.5-1.2s-.8-5.7.5-5.7c.5 0 1 .6 1.3 1.2zM17 88c0 .5-.2 1-.4 1-.3 0-.8-.5-1.1-1-.3-.6-.1-1 .4-1 .6 0 1.1.4 1.1 1zm108.5 2c.3.5.1 1-.4 1-.6 0-1.1-.5-1.1-1 0-.6.2-1 .4-1 .3 0 .8.4 1.1 1zM113 92c0 .5-.5 1-1.1 1-.5 0-.7-.5-.4-1 .3-.6.8-1 1.1-1 .2 0 .4.4.4 1zm-51.3 5.7c-.4 1.7-.4 1.7-1.2 0-.4-.9-.4-2.5 0-3.5.8-1.6.8-1.6 1.2 0 .3 1 .3 2.6 0 3.5zm50.7-.7c-.6.6-1 .3-1-1s.4-1.6 1-1c.7.7.7 1.3 0 2zM235 95.4c0 1.1-1.9 1.5-2.5.6-.3-.5.1-1 .9-1 .9 0 1.6.2 1.6.4zm-220 5.7c0 .5-.4.9-1 .9-.5 0-1-.7-1-1.6 0-.8.5-1.2 1-.9.6.3 1 1 1 1.6zm178 .3c0 .3-.4.8-1 1.1-.5.3-1 .1-1-.4 0-.6.5-1.1 1-1.1.6 0 1 .2 1 .4zm-95.6 3.1c-.4.8-1.1 1.2-1.7.8-.8-.5-.7-.8.1-1.1.7-.2.9-.9.6-1.4-.4-.7-.2-.8.4-.4.6.4.9 1.3.6 2.1zM13 103.4c0 .3-.4.8-1 1.1-.5.3-1 .1-1-.4 0-.6.5-1.1 1-1.1.6 0 1 .2 1 .4zm52 .6c0 .5-.5 1-1.1 1-.5 0-.7-.5-.4-1 .3-.6.8-1 1.1-1 .2 0 .4.4.4 1zm47.8 2.3c.4 2.1-1.8 3.3-2.9 1.6-.5-.8-.9-1-.9-.4 0 1.1-2-1.5-2-2.7 0-1.4 5.5 0 5.8 1.5zm-92 6.2c-.3.3-.9-.2-1.2-1.2-.6-1.4-.5-1.5.5-.6.7.7 1 1.5.7 1.8zm90.8.1c-.4.9-.9 1.5-1.1 1.2-.3-.3-.3-1.3.1-2.2.4-.9.9-1.5 1.1-1.2.3.3.3 1.3-.1 2.2zM3 115c0 .5-.5 1-1.1 1-.5 0-.7-.5-.4-1 .3-.6.8-1 1.1-1 .2 0 .4.4.4 1zm92 2c0 .5-.2 1-.4 1-.3 0-.8-.5-1.1-1-.3-.6-.1-1 .4-1 .6 0 1.1.4 1.1 1zm17.4 1.9c.9 1.4-8 1.8-9.3.3-.9-.9-.1-1.2 3.8-1.2 2.7 0 5.2.4 5.5.9zM92.5 120c-.3.5-1.3 1-2.1 1s-1.4-.5-1.4-1c0-.6.9-1 2.1-1 1.1 0 1.7.4 1.4 1zM45 127c0 .5-.4 1-1 1-.5 0-1-.5-1-1 0-.6.5-1 1-1 .6 0 1 .4 1 1zm86-.1c0 .6-.4 1.3-1 1.6-.5.3-1-.1-1-.9 0-.9.5-1.6 1-1.6.6 0 1 .4 1 .9zM42 133c0 .5-.2 1-.4 1-.3 0-.8-.5-1.1-1-.3-.6-.1-1 .4-1 .6 0 1.1.4 1.1 1zm36.4 3.2c-.3.4-.9.8-1.5.8-.5 0-.9-.4-.9-.8 0-.5.7-.9 1.5-.9s1.2.4.9.9zm52.6.2c0 .3-.4.8-1 1.1-.5.3-1 .1-1-.4 0-.6.5-1.1 1-1.1.6 0 1 .2 1 .4zM53 138c0 .5-.4 1-1 1-.5 0-1-.5-1-1 0-.6.5-1 1-1 .6 0 1 .4 1 1zm46.7 4.5c-.7 1.3-1.4 2-1.5 1.4-.5-1.4.6-3.9 1.7-3.9.5 0 .4 1.1-.2 2.5zm137.7 1c-.4.8-1.1 1.5-1.6 1.5-.6 0-.8-.7-.4-1.5.3-.8.2-1.5-.2-1.5-1 0-3.9 2-3 2 .4 0 .3 1.1-.2 2.4-.9 2.4-.8 2.5 3.2 2 2.3-.3 4.6-.7 5-1 .4-.3.8.2.8 1.1 0 .8-.7 1.8-1.5 2.1-.8.4-1.3.9-1.1 1.3.3.4.1 1.3-.4 2-1.1 1.9-3.3.3-2.7-2.1.4-1.5.2-1.8-1.6-1.2-2.8.8-4.7 3.2-4 5 .8 2.1 2.2 1.7 3.3-.9l.9-2.2v2.2c.1 2.2 1 2.7 3.9 2.4.7-.1 1.2.9 1.2 2.5 0 1.9-.3 2.4-1.2 1.7-.7-.5-1.9-.8-2.5-.7-.7.1-1.8.2-2.4.3-.6 0-.9.8-.5 1.6.3.8.1 1.5-.4 1.5-1.4 0-2.1-1.8-1-2.5.5-.3 1-1.4 1-2.3 0-2.5-2.5.4-2.6 3.1-.2 4.7-.4 5.7-1.3 5.7-.5 0-.7-1.8-.4-4 .4-2.6.2-4-.6-4-.6 0-1.1 1-1.2 2.2-.1 2.2-.1 2.2-.9-.2-.5-1.5-.8-1.8-.9-.8-.1 1.1-.7 1.5-2.2 1.1-1.4-.4-1.9-1.2-1.6-2.4.4-1.5 0-1.9-1.9-1.9-1.7 0-2.2.4-1.8 1.5.4.8-.1 1.7-1 2.1-.9.3-1.6 1.5-1.6 2.5s-.5 1.9-1.1 1.9c-.6 0-.9-.7-.5-1.5.3-.8.1-1.5-.5-1.5s-.8-.9-.4-2 .2-2-.4-2c-.6 0-1 .3-.9.7.1.5-.3 1.8-1 3.1-.7 1.2-1.1 2.6-.8 3.1.3.4-.6.6-1.9.3-1.4-.2-2.5 0-2.5.7 0 .5-.6.8-1.3.5-.7-.2-2.5.6-4 2-2.7 2.6-3.5 4.6-1.7 4.6.6 0 1 .5 1 1.2 0 .8-.5.7-1.5-.3-1.2-1.2-1.4-2.1-.6-4.2.6-1.5.7-2.7.2-2.7-.5 0-1.2.7-1.5 1.6-.3.8-1 1.3-1.5.9-.6-.3-.8-1.2-.4-2 .3-1.1-.2-1.5-1.9-1.5-1.3 0-3-.6-3.7-1.3-1.1-1-1.3-.9-.8.5.6 1.8-.4 2.4-1.7 1.1-.4-.5-2.6-.8-4.9-.8-3.6 0-4.2-.3-3.9-2 .2-1.5.1-1.7-.6-.6-.6.8-1.5 1-2.3.6-1.1-.6-1.2-.5-.1.6 1.1 1.2 1.7 4.9.8 4.9-.2 0-1.3.3-2.3.7-1.7.6-1.7.5.2-1.6 1.6-1.8 1.7-2.4.6-3.1-.8-.4-2-.6-2.7-.3-1.5.6-2.8-1.3-1.4-2.2.5-.3 1-.1 1 .5s.4.8 1 .5c1.4-.8-1.1-3.4-2.7-2.8-.7.3-1.3-.2-1.3-1 0-.9.7-1.4 1.8-1.2.9.1 1.1 0 .4-.2-.8-.3-1.1-1.1-.8-2 .3-.8.6-2.8.6-4.5v-3l3.4 2.5c2.3 1.8 4.4 2.5 6.9 2.4 3.2-.2 3.6-.6 4.7-4 1.4-4.7 3.2-4.9 1.8-.1-1.1 4.2-.5 5.3 1.7 3 2-1.9 3.2-2 3.8-.4.3 1 .7 1 2 0 1.2-1 2.1-1.1 3.7-.2 2.5 1.3 4.2.4 2-1-1.2-.8-1.1-1 .5-1 1.2 0 2.7.6 3.4 1.2 1.1 1.1 1.1.9.2-1-1-1.9-.9-2.8.4-4.9 2-3.1 3.1-1.9 3 3.2-.1 1.9.2 3.5.7 3.5.4 0 .8-.7.8-1.6 0-1.3.3-1.4 1.3-.5.9.7 1.7.7 2.4 0 1.3-1.3 4.3 1.5 4.3 3.9 0 1.3 1 1.8 4 1.9 2.3.1 3.8-.2 3.4-.8-.3-.5-.9-.7-1.4-.4-1.5.9-2-1.2-.6-3 1-1.4 2-1.6 4.2-1.1 3.7 1 3.8.9 4.2-.2.7-2.2-10.4-4.2-12.4-2.2-.5.5-1.5.6-2.4 0-1.9-1.2-1.1-1.9 2.8-2.3 1.8-.2 3.5-.6 3.8-1 .3-.3 1.2-.3 1.9-.1.7.3 1.6 0 2-.6.5-.8 1-.8 2 0 1.3 1.1 5.3.1 5.4-1.3 0-.4.6-1.4 1.3-2.1 1.6-1.8 5-.2 4.2 1.9zm-105-1c-.4.8-.8 1.5-1 1.5-.2 0-.4-.7-.4-1.5s.4-1.5 1-1.5c.5 0 .7.7.4 1.5zm5.3 1.4c-2.4.9-3.6 2.9-3 5.1.5 2 .4 2.1-1.5.9-2-1.3-2-1.4-.4-3.2.9-1.1 1.6-2.1 1.5-2.3-.7-1.1-.2-2.4.7-1.9.6.3 1 .1 1-.5 0-.7.5-.6 1.4.2 1 .9 1.1 1.4.3 1.7zm53.7-1c.3.5-.1 1.4-.9 2.1-1.3 1-1.5.9-1.5-.9 0-2.1 1.4-2.8 2.4-1.2zm-49.7 3.3c-.3.7-.5.2-.5-1.2s.2-1.9.5-1.3c.2.7.2 1.9 0 2.5zm67.3.9c0 1-.4 1.9-1 1.9-.5 0-1-1.2-1-2.6 0-1.4.4-2.3 1-1.9.6.3 1 1.5 1 2.6zm-71.3 4.1c-.3.7-.5.2-.5-1.2s.2-1.9.5-1.3c.2.7.2 1.9 0 2.5zm38.5-.7c1.2 1.7-.2 2.5-2.2 1.2-1.1-.6-2-1.5-2-1.8 0-1 3.4-.5 4.2.6zm3.9.8c-1 .9-1.1.8-.5-.6.3-1 .9-1.5 1.2-1.2.3.3 0 1.1-.7 1.8zm62.9.3c0 .8-.4 1.2-1 .9-.5-.3-1-1-1-1.6 0-.5.5-.9 1-.9.6 0 1 .7 1 1.6zm-84.4 2c-.4.9-.9 1.5-1.1 1.2-.3-.3-.3-1.3.1-2.2.4-.9.9-1.5 1.1-1.2.3.3.3 1.3-.1 2.2zm.9 9.2c-.7.8-2.3-4.2-1.7-5.3.3-.5.9.4 1.4 2 .4 1.6.5 3.1.3 3.3zm-15.9 2.6c1.8-.5 1.8-.5.1.9-1.5 1.2-1.6 1.9-.8 3.6 1.4 2.5 1.4 4.4.1 3.6-.5-.3-1-1.5-1-2.6 0-1-.4-1.9-1-1.9-.5 0-1 .5-1 1.2 0 .6-.3.8-.6.5-.4-.4-.1-1.4.7-2.3 1.1-1.3 1.1-1.8.2-2.1-.7-.3-1.3-.9-1.3-1.5 0-.7.5-.6 1.4.1.7.6 2.2.9 3.2.5zm94.9-.4c-.3.5-1 1-1.6 1-.5 0-.9-.5-.9-1 0-.6.7-1 1.6-1 .8 0 1.2.4.9 1zm-112 1c-.3.5-1 1-1.6 1-.5 0-.9-.5-.9-1 0-.6.7-1 1.6-1 .8 0 1.2.4.9 1zm22.7 5.2c-.6.6-1.1-.2-1.4-2.1-.2-1.6-.1-2.8.4-2.5.4.3.9-.1.9-.8.1-.7.4 0 .6 1.6.3 1.6 0 3.3-.5 3.8zm14.4-4.3c-.4.5 0 1.1.6 1.4.7.2.9.8.5 1.3s-1.2.2-1.7-.6c-1.3-2-1.2-3 .1-3 .5 0 .8.4.5.9zm-16.6 3.2c0 .6-.4.7-1 .4-.5-.3-1-1.1-1-1.6 0-.6.5-.7 1-.4.6.3 1 1.1 1 1.6zm-14 1.5c0 .8-.4 1.2-1 .9-.5-.3-1-1.3-1-2.1s.5-1.2 1-.9c.6.3 1 1.3 1 2.1zm75.6-1.6c2.3 0 .7 1.7-2.1 2.2-2 .4-2.5.1-2.5-1.4 0-1.4.5-1.8 1.6-1.4.9.3 2.2.6 3 .6zm-6.1 2c-.3.5-1 1-1.6 1-.5 0-.9-.5-.9-1 0-.6.7-1 1.6-1 .8 0 1.2.4.9 1zm-59.9 3.7c-.7.7-2.6-.7-2.6-1.9 0-.6.6-.6 1.5.2.9.7 1.3 1.5 1.1 1.7zM216 174c0 .5-.5 1-1.1 1-.5 0-.7-.5-.4-1 .3-.6.8-1 1.1-1 .2 0 .4.4.4 1zm-80 1c0 .5-.2 1-.4 1-.3 0-.8-.5-1.1-1-.3-.6-.1-1 .4-1 .6 0 1.1.4 1.1 1zm15.2.7c1.8 1.6 1.8 1.6 1.2 0-.3-1-.1-1.7.5-1.7s1.1.5 1.1 1.1c0 .8.4.8 1.3.1 1-.8 2.9-.9 7.1-.3.5 0 .3.8-.4 1.6-1.3 1.5-.5 2 2.8 1.6.6-.1 1.2.5 1.2 1.4 0 .9.5 1.3 1 1 .6-.3 1-.1 1 .4 0 .6-.9 1.1-2 1.1-2 0-2.3 2.1-.7 4.8.5.7.2 1.9-.7 2.8-.9.8-1.6 2.4-1.6 3.5 0 3.2-3.2 1.9-4.2-1.6-.4-1.6-.4-4.5.1-6.2.8-2.7.6-3.3-.5-3.3-.9 0-1.2.4-.9 1 .3.5-.2 1-1.2 1.1-1 0-1.3.3-.5.6.6.2 1.2 1.6 1.2 2.9 0 1.8-.4 2.3-1.2 1.7-.7-.4-2.2-.6-3.3-.4-1.7.3-1.8.1-.5-1.6 1.2-1.5 1.2-1.6 0-.6-1.9 1.8-2.8 1.6-3.5-.6-.4-1.3-1.2-1.8-2.1-1.4-1.4.5-1.4.7 0 2.1 1.4 1.4 1.3 1.8-.2 4.4-2.9 5-4 3.3-1.6-2.7.8-1.9.7-1.9-1-.3-.9 1-2.3 1.8-2.9 1.7-.9 0-.8-.2.1-.6.6-.2 1.2-1.4 1.2-2.4 0-1.1-.4-1.8-.9-1.5-1.5 1-3.7-.3-3.8-2.4-.1-1.3.3-1.7 1.3-1.3 1 .4 1.2 0 .8-1.1-.5-1.4 0-1.8 2.2-1.5.3 0 1.2-.8 2-1.8.8-1.1 1.3-1.3 1.4-.6 0 2 1.8 1.5 2.5-.7.8-2.4 1.3-2.5 3.7-.3zm41.7 0c-.8 1-1.7 2-2.1 2.3-.4.3.1 1.1 1.2 1.8 1.5.9 2.2.9 3.3-.2.9-.9 1.9-1.1 2.8-.5 1.1.7.9 1.3-1.1 2.9-1.4 1.1-2 2-1.4 2 .5 0 1.6-.6 2.2-1.2 1-1 1.5-1 2.2.2.7 1 1 1.1 1 .2 0-.6.8-1.2 1.8-1.2s2.3-.5 3-1.2c.9-.9 1.2-.9 1.2 0 0 .7-.5 1.2-1 1.2-.7 0-.7.7 0 2 .6 1.1 1.5 1.8 2.1 1.5.5-.4.9-.1.9.4 0 .6-1.7 1.1-3.8 1.1-2.1 0-4.7.7-5.9 1.5-2.2 1.6-2.8 5.5-.8 5.5 1.1 0 5.5-3.6 5.5-4.5 0-.9-.9-.5-2.5 1.1-.9.9-1.9 1.3-2.3.9-.9-.8 2.9-3.7 4.3-3.2.5.2 1 1.4.9 2.6 0 1.4.4 2 1.2 1.7.7-.3 1.5.1 1.8.9.3.8-.9 2.2-3 3.4-4.4 2.6-6.7 2.7-3.4.1 1.4-1.1 1.9-2 1.2-2-1.6 0-6.2 4.5-6.2 6 0 .6-.6.8-1.2.4-1-.6-1-.5-.1.7.6.8 2.6 1.6 4.4 1.7 4.1.3 4.3.6 3 2.9-1 1.7-1 1.7-1.1 0 0-.9-.7-1.7-1.5-1.7-1.3 0-1.4.4-.5 2 .6 1.1.8 2 .4 2s.1.9 1.1 2c2.4 2.6.8 4.8-2.3 3.1-1.1-.6-2.9-.8-3.9-.4-1.6.6-1.6.5-.4-1 1.2-1.5 1.1-1.7-.3-1.7-1 0-1.6-.9-1.6-2.5 0-3 1.6-3.3 2.5-.5.7 2.2 1.3 2.4 3.3 1.1 1.1-.6 1-1.1-.3-2.4-1.2-1.3-2.9-1.5-8-1-5.4.5-6.6.3-7.1-1-.4-1.3-1-1.4-2.4-.7s-2.3.6-3.4-.5c-.8-.8-2.2-1.5-3.1-1.5-.8 0-1.9-.8-2.2-1.8-.4-.9-1.1-2-1.6-2.3-1.9-1.3.4-2.8 3.3-2.2 1.9.3 3 .1 3-.6 0-1-3-1.6-5.4-1.2-.5.1-.5-.4.1-1.1.7-.8.7-2.2.2-3.6-.9-2.3-2.4-3.2-1.6-1 .2.7-.3 1.8-1.2 2.4-1.2 1-1.3 1.5-.3 2.7 1.7 2-.3 3.4-2.3 1.7-1.5-1.3-.9-3.9 1.4-5.6 1.3-1 1.3-1.6.3-3.8-.7-1.5-.8-2.6-.2-2.6.6 0 1 .7 1 1.5s.5 1.5 1.1 1.5c.6 0 .9-.7.5-1.5-.3-.8-.1-1.5.5-1.5s.9-.6.6-1.4c-.4-1 0-1.2 1.4-.9 1.1.3 2.1-.1 2.5-1.1.8-2.1 3-2.1 3.8 0 .6 1.5.9 1.4 2.5-.5l1.9-2.1.5 2.5c.3 1.9.1 2.5-.8 2.1-.8-.3-1.6.1-1.8.9-.4.8.5 1.4 2.5 1.7 2 .3 3.2 0 3.5-.9.3-.8 1.2-1.2 1.9-.9.7.3 1.6.1 1.9-.4.4-.6.2-1-.3-1-1.7 0-2.2-3-.9-5 .6-1.1 2-2 3.1-2 1.6 0 1.7.2.5 1.7zm-3.9-.3c0 .9-3 1.4-3.5.6-.4-.6.3-1 1.4-1 1.2 0 2.1.2 2.1.4zm39.1 2.6c.4 0 .6.7.3 1.5-.7 1.7 1.1 2.1 2.1.5.3-.6 1.7-1 3-1s2.5-.5 2.7-1.1c.4-1.2 3.8-.1 3.8 1.2 0 .5-.7.9-1.5.9s-1.5.4-1.5 1c0 .5.5 1 1 1 .6 0 1 .8 1 1.7.1 1.6.2 1.6 1.5-.1 1.4-1.9 1.5-1.9 1.5.7 0 2.7-1.3 3.6-2.5 1.7-.3-.6-1.5-1-2.6-1s-1.8-.4-1.5-.8c.2-.4-.4-.8-1.5-.8-1 0-1.9.6-1.9 1.3 0 .7-.4 1.3-1 1.3-.5 0-1 .7-1 1.6 0 .8-.4 1.2-1 .9-.6-.4-.4-1.8.6-3.7.9-1.6 1.1-2.7.4-2.3-.6.4-2.2-.5-3.6-2-2.8-3-3-4-.8-3.1.9.3 2 .6 2.5.6zM75 179c0 .5-.5 1-1.1 1-.5 0-.7-.5-.4-1 .3-.6.8-1 1.1-1 .2 0 .4.4.4 1zm112.5 0c.3.5-.3 1-1.4 1-1.2 0-2.1-.5-2.1-1 0-.6.6-1 1.4-1 .8 0 1.8.4 2.1 1zm31.5.6c0 .2-.7.4-1.5.4s-1.5-.4-1.5-1c0-.5.7-.7 1.5-.4.8.4 1.5.8 1.5 1zm4-.6c0 .5-.7 1-1.5 1s-1.5-.5-1.5-1c0-.6.7-1 1.5-1s1.5.4 1.5 1zm-151.5 1c.3.5-.3 1-1.5 1s-1.8-.5-1.5-1c.3-.6 1-1 1.5-1s1.2.4 1.5 1zm55.8 2.1c.3 1.2 0 2.2-.9 2.6-2 .7-2.4.1-1.7-2.5.7-2.8 1.9-2.8 2.6-.1zm92.3.4c-1 .8-2.4 1.1-3 .8-.6-.4 0-1 1.4-1.4 3.6-1 3.7-1 1.6.6zM88 185.1c0 .6-.4.7-1 .4-.5-.3-1-1.1-1-1.6 0-.6.5-.7 1-.4.6.3 1 1.1 1 1.6zm21.6 3.6c0 1.8-.4 3.3-.8 3.3h-2.2c-.7 0-1.6-.9-1.9-1.9-.3-1.4-.1-1.8.9-1.4.8.3 1.4-.1 1.4-1.1 0-.9.4-1.6 1-1.6.5 0 .7-.8.4-1.8-.5-1.4-.4-1.4.4-.2.5.8.9 3 .8 4.7zM215 184c0 .5-.4 1-1 1-.5 0-1-.5-1-1 0-.6.5-1 1-1 .6 0 1 .4 1 1zm2 2c0 .5-.5 1-1.1 1-.5 0-.7-.5-.4-1 .3-.6.8-1 1.1-1 .2 0 .4.4.4 1zm-124 1.5c.7.9.8 1.5.2 1.5-.5 0-1.2-.7-1.6-1.5-.3-.8-.4-1.5-.2-1.5s.9.7 1.6 1.5zm37.8 3.7c-.5 3.3-.1 3.4 2.4 1.1 2.5-2.2 3.5-.8 4.4 5.9.4 2.7 1 4.8 1.4 4.8 1.2 0 2-2.6 1.5-5-.2-1.3.1-2 1.1-2 .8 0 1.7 0 2.1-.1.4 0 .9.5 1.2 1.2.2.7-.1.9-.9.4-.9-.5-1.1-.4-.6.3.4.7 1.6 1.2 2.7 1.2s1.7-.5 1.4-1c-.3-.6.4-1 1.5-1 1.6 0 2-.5 1.6-1.5-.3-.8-.1-1.5.3-1.5 1.1 0 2.5 2.9 2.5 5.5.1 1.3.7 1.9 1.9 1.7.9-.2 1.7.2 1.7.7 0 .6.6.8 1.3.5.8-.3 1.3.3 1.3 1.6 0 1.5-.5 1.9-1.6 1.4-3.5-1.4-5-1.6-5-.4 0 .7.7 1 1.6.6 1.2-.5 1.5-.2 1 1-.4.9-.2 2.2.4 2.9.8 1 .6 1.5-1 2s-1.9 1.2-1.5 2.8c.6 2.1.5 2.1-.9.3-.9-1.1-2-1.5-2.8-1-1 .6-1 .4.1-.9.7-.9 1-1.7.5-1.7s0-.7 1-1.5c1.9-1.4 1.9-1.5-.6-1.5-2 0-2.7-.6-3-2.3-.3-2.5-2.9-3-3.5-.7-.4 1.3-.3 1.3.6 0 .6-.8 1.1-1 1.1-.4 0 1.5-2.5 3.6-3.3 2.8-1-1-2.5 3.8-2.2 6.7.3 2.3 0 2.5-2.2 2.1-2.2-.4-2.4-.9-2.1-3.8.2-1.9 0-3-.5-2.5-.4.4-.9 1.7-1 2.9 0 1.1-.9 2.3-1.8 2.5-1.1.3-1.6 0-1.3-.8.3-.7-.3-2-1.2-2.9-1.3-1.4-1.9-1.5-2.5-.5-.4.8-1.1 1-1.5.6-.4-.4.2-1.4 1.4-2.3 2.9-2 2.8-3.9-.4-7.1-1.4-1.4-2.3-2.8-2-3.1.3-.3.1-1.1-.6-1.9-.8-1.1-.7-1.2.6-.7 1 .4 1.5 1.3 1.2 2.1-.3.8-.1 1.1.4.8.5-.3 2.7.7 4.7 2.2 2.9 2.2 3.5 2.4 3 1-.4-1-.7-2.2-.7-2.7s-2-1.6-4.5-2.6c-2.5-.9-4.5-2.1-4.5-2.7 0-.6-.9-.2-2 .9-3 3-4.8 4.4-5.7 4.4-.4-.1.3-1 1.6-2.1l2.5-2-3 .7c-1.6.4-3.3.9-3.9 1.3-.5.3-1.8.4-2.7.3-1.1-.2-1.8.3-1.8 1.2 0 1.6-2.5 2.2-3.3.8-.3-.4.1-2.1.8-3.7.7-1.7 1.4-2.4 1.4-1.8.1.7.8 1.3 1.7 1.3.8 0 1.3-.4 1-.9-.3-.5.2-.8 1.1-.7.9 0 1.8-.5 2-1.2.3-.7-.4-1.2-1.6-1.2-1.4 0-2.1-.6-2.1-2 0-2.1 1.6-2.8 2.2-.9.2.7 1.2.7 3 0 2.2-.8 2.9-.7 4.1 1.2 1.3 1.8 1.7 2 2.9.9 1.1-1.1 1-1.2-.4-.7-1.1.5-1.8.2-1.8-.5 0-.6.9-1.4 2-1.7 1.1-.3 2-.9 2-1.3 0-.5 1.4-.3 3.1.3 2.6 1 3 1.6 2.7 3.9zm-41.6-2c-.7.7-1.2.8-1.2.2 0-1.4 1.2-2.6 1.9-1.9.2.3-.1 1.1-.7 1.7zm154.4 3.6c.5-.4 1 .7 1.1 2.3.3 3.6-.4 3.7-1.7.3-.6-1.6-1.6-2.4-2.4-2.1-2 .8-2.7-.3-1.3-1.8.9-1 1.4-.9 2.3.3.6.8 1.5 1.3 2 1zm-103.6-.1c0-.5.5-.5 1.1-.1.8.4.8.9-.1 1.8-.8.8-1.3.7-2-.4-.5-.8-1-2-1-2.5 0-.6.5-.3 1 .5s1 1.1 1 .7zm71.5.4c1.1 1.7-.1 2.1-1.5.4-.8-.9-.8-1.5-.2-1.5.6 0 1.4.5 1.7 1.1zm-53.7 3.4c1 2.2.9 2.5-.7 2.5-1.3 0-1.8-.7-1.8-2.5 0-1.4.3-2.5.7-2.5.4 0 1.2 1.1 1.8 2.5zm84.2-.5c0 .5-.4 1-1 1-.5 0-1-.5-1-1 0-.6.5-1 1-1 .6 0 1 .4 1 1zm-118.7 5.4c.4 1 .1 1.3-.9.9-.7-.3-1.4.1-1.4.8 0 .7-.3.9-.6.6-.4-.4-.1-1.3.6-2.2 1.5-1.9 1.7-1.9 2.3-.1zm77.7-.4c0 .5-.7 1-1.5 1s-1.5-.5-1.5-1c0-.6.7-1 1.5-1s1.5.4 1.5 1zm46 1c0 .5-.4 1-1 1-.5 0-1-.5-1-1 0-.6.5-1 1-1 .6 0 1 .4 1 1zm-119.7 4.7c-.6 1.5-2.3 1.8-2.3.3 0-.6.4-1 1-1 .5 0 .7-.8.4-1.8-.5-1.3-.4-1.4.4-.3.6.8.8 2 .5 2.8zm125.7-2.9c0 1.3-1.2 2.2-2.2 1.6-1-.6-.1-2.4 1.3-2.4.5 0 .9.4.9.8zm3.2.7c0 .5-.5 1.1-1.1 1.3-.6.2-1.1-.4-1.1-1.3s.5-1.5 1.1-1.3c.6.2 1.1.8 1.1 1.3zm-92.8 1c-.7 1.6-2.4 2.1-2.4.6 0-.8.7-1.3 2.7-2 .1-.1 0 .6-.3 1.4zm-38.4 4.7c0 .4-.5.8-1.1.8-.5 0-.8-.4-.4-.9.3-.5.1-1.2-.5-1.6-.5-.3-1-1.2-1-1.8.1-1.3 3 2.2 3 3.5zm56-3.8c0 .3-.4.8-1 1.1-.5.3-1 .1-1-.4 0-.6.5-1.1 1-1.1.6 0 1 .2 1 .4zm77 1.6c0 1.1-.7 2-1.5 2-1.8 0-1.9-1.2-.3-2.8 1.6-1.6 1.8-1.5 1.8.8zm-72.2 2.8c-1.2 1.5-1.1 1.6.5.3 1.6-1.2 2-1.2 3.3.1 1.3 1.2 1.3 1.9.2 4.2-1 2.4-1 3 .5 4.1 1.5 1.1 1.6 1.4.2 2.5-.8.7-1.5 2.1-1.5 3.1 0 2.2-.4 2.3-3.3.8-4.1-2.2-4.5-3.7-1.6-6.8 1.5-1.6 1.8-2.6 1.1-3.3-1.2-1.2-4.6.8-3.7 2.2.3.4-.3.7-1.3.6-2.3-.1-4.7-4.5-3.4-5.8.6-.6 1.9-.7 2.9-.3 1.7.7 1.7.8-.2 1.5-1.9.8-1.9.9.3.9 1.2.1 2.2-.4 2.2-1 0-.5.4-.7 1-.4.6.3.7-.1.4-1-.7-1.8 1.4-4.8 2.8-3.9.5.3.4 1.3-.4 2.2zm20.1-.2c.3.3 0 .9-.7 1.6-.8.8-1.5.7-2.6-.5-.9-.9-1.6-1.8-1.6-2.2 0-.6 4 .3 4.9 1.1zm40.5.9c.3.8.2 1.6-.2 1.9-1.2.7-4.5-2.2-3.8-3.3.8-1.3 3.3-.4 4 1.4zm-78.1.2c.4.3-.1 1.2-1.1 2-1.5 1.2-1.3 1.3 1.6.8 4.3-.9 7.1 1.1 4.5 3.1-1.3.9-1.4 1.3-.4 1.4 1.6 0-.1 3-4.4 7.6-1.4 1.5-2.5 3.1-2.5 3.5 0 .5-.9.9-2 .9s-2-.5-2-1.1c0-.5.5-.7 1-.4.6.3 1 .2 1-.4 0-.5 1.5-2.5 3.3-4.3 1.8-1.8 3.2-3.9 3.1-4.6-.1-.6-.2-1.9-.3-2.8 0-.8-.6-1.2-1.1-.9-.6.3-.7 1.7-.4 3.1.5 1.9.2 2.4-1.2 2.4-2.7 0-4.9-1.6-3.5-2.4.8-.5.8-1.3.1-2.7-.6-1.1-.7-1.9-.2-1.9.6 0 1.2-.9 1.5-2 .5-2 1.8-2.6 3-1.3zm-7 3.7c1.5 2.2 1.5 2.5.1 3-2.8 1.1-3.4.6-3.4-2.4 0-3.6 1.2-3.8 3.3-.6zm-12.4 0c1.5 1.8-.1 3-3 2.1-1.6-.5-1.8-1-.8-2.1 1.5-1.8 2.3-1.8 3.8 0zm97.4 2c-.4.6-.8.5-1.1-.2-.3-1-.7-1-1.8-.1-1.9 1.6-3 .4-1.5-1.5 1-1.2 1.7-1.3 3.1-.4 1 .7 1.6 1.7 1.3 2.2zm-42.2.5c-.9.6-2.2.5-3.3-.2-1.7-1.1-1.7-1.2.4-1.8 2.8-.7 4.9.8 2.9 2zm-86.1-1.5c0 1.1-1.9 1.5-2.5.6-.3-.5.1-1 .9-1 .9 0 1.6.2 1.6.4zm75 0c0 .3-.4.8-1 1.1-.5.3-1 .1-1-.4 0-.6.5-1.1 1-1.1.6 0 1 .2 1 .4zm46.3 2.1c-.7 2.1-1.3 1.9-1.3-.6 0-1.1.4-1.8 1-1.4.5.3.7 1.2.3 2zm-128.1.2c2.3 2.8 3 4.3 1.9 4.3-.6 0-1.1-.6-1.1-1.4 0-.8-1-2.2-2.2-3-1.2-.9-1.8-1.6-1.2-1.6.6 0 1.8.8 2.6 1.7zm45.8-1.4c0 .2-1 1.2-2.1 2.3-2.2 1.9-2.2 1.9-.8-.4 1.2-1.9 2.9-3 2.9-1.9zm93.5.7c.3.5.4 1 .1 1-.2 0-1.2.3-2 .6-1.2.5-1.5.2-1-1 .7-1.8 2-2.1 2.9-.6zm-130 1c.3.5.1 1-.4 1-.6 0-1.1-.5-1.1-1 0-.6.2-1 .4-1 .3 0 .8.4 1.1 1zm77.5 0c0 .5-.4 1-1 1-.5 0-1-.5-1-1 0-.6.5-1 1-1 .6 0 1 .4 1 1zm-53 1.5c0 .8-.2 1.5-.4 1.5s-.6-.7-1-1.5c-.3-.8-.1-1.5.4-1.5.6 0 1 .7 1 1.5zm5.4.8c-.6 1.7-3.4 3.1-3.4 1.7 0-1.1 3.1-4.2 3.6-3.7.3.2.2 1.1-.2 2zm106.1-.3c.3.5.2 1-.4 1-.5 0-1.3-.5-1.6-1-.3-.6-.2-1 .4-1 .5 0 1.3.4 1.6 1zM114 225.4c0 .5-9.3.9-12.5.5-.8-.1-1.5-.8-1.5-1.6 0-1.6 1.7-1.7 2.2-.1.3.7 1.3.5 3.1-.7 1.5-.9 2.7-1.4 2.7-.9 0 .4.5.3 1.1-.3.8-.8 1.6-.6 3 .8 1 1 1.9 2.1 1.9 2.3zm65.7-2.7c0 1.5 0 1.5-2.1.7-2.2-.8-2-2.3.2-2.1 1 0 1.9.7 1.9 1.4zm-61.3 1.8c-.4.8-1.2 1.5-2 1.5s-1.4-.7-1.4-1.5.9-1.5 2-1.5c1.3 0 1.8.5 1.4 1.5zm-28 1.1c.3.8.2 1.2-.4.9-.6-.3-1-1-1-1.6 0-1.4.7-1.1 1.4.7zm51.6-.7c0 .6-.4 1.3-1 1.6-.5.3-1-.1-1-.9 0-.9.5-1.6 1-1.6.6 0 1 .4 1 .9zm39.6 1.1c0 1.1-.9 2.9-1.9 4-1.5 1.7-2.1 1.9-3.3 1-1.7-1.5-1.9-4.3-.2-3.8.6.2 2-.4 3-1.4 2.3-2.3 2.6-2.3 2.4.2zm47.4.9c0 .4-.8.7-1.9.8-1.4.1-1.7-.3-1.4-1.8.4-1.5.8-1.7 1.9-.8.8.6 1.4 1.4 1.4 1.8zm5.7-.7c-.3.8-.6.5-.6-.6-.1-1.1.2-1.7.5-1.3.3.3.4 1.2.1 1.9zm-71.7.4c0 .8-.5 1.2-1 .9-.6-.4-.8-1.1-.5-1.6.9-1.4 1.5-1.1 1.5.7zm71 2.6c0 1.2-1.4 1-2.7-.3-.6-.6-.9-1.8-.6-2.7.5-1.3.8-1.2 2 .4.7 1 1.3 2.1 1.3 2.6zm12-3.8c0 .3-.4.8-1 1.1-.5.3-1 .1-1-.4 0-.6.5-1.1 1-1.1.6 0 1 .2 1 .4zm-112 4.4c0 2.4-.1 2.5-1.4.7-.8-1.1-1.2-2.5-.9-3.2.8-2 2.3-.4 2.3 2.5zm39-.2c0 .3-.6.1-1.3-.5-.8-.6-1.7-.8-2-.4-.4.3-.7.2-.7-.4 0-1.8 1.2-2.2 2.6-.8.8.7 1.4 1.7 1.4 2.1zm76.5-2.6c-.3.5-1.1 1-1.6 1-.6 0-.7-.5-.4-1 .3-.6 1.1-1 1.6-1 .6 0 .7.4.4 1zm4 0c.3.5.1 1-.4 1-.6 0-1.1-.5-1.1-1 0-.6.2-1 .4-1 .3 0 .8.4 1.1 1zM139 229.5c0 1.8-2.7 2.7-3.3 1.1-.6-1.6 1.2-3.8 2.5-3 .4.3.8 1.1.8 1.9zm-54.3 4.7c-.3.8-.6.5-.6-.6-.1-1.1.2-1.7.5-1.3.3.3.4 1.2.1 1.9zm8.3-.3c-.5 1.1-.7 2.6-.5 3.4.3.7 0 1.9-.8 2.6-1.2.9-1.5.6-1.5-1.6 0-1.6.7-3.6 1.6-4.6 2-2.2 2.5-2.2 1.2.2zm8-.4c0 .8-.4 1.5-1 1.5-.5 0-1-.7-1-1.5s.5-1.5 1-1.5c.6 0 1 .7 1 1.5zm147.5-.5c.3.5.1 1-.4 1-.6 0-1.1-.5-1.1-1 0-.6.2-1 .4-1 .3 0 .8.4 1.1 1zm-84.5 1c0 .5-.4 1-1 1-.5 0-1-.5-1-1 0-.6.5-1 1-1 .6 0 1 .4 1 1zm36.5 0c.3.5.1 1-.4 1-.6 0-1.1-.5-1.1-1 0-.6.2-1 .4-1 .3 0 .8.4 1.1 1zm-127.8 6.3c-1.2 1.3-2.4 2.2-2.6 2-.6-.4 3-4.3 4-4.3.5 0-.2 1-1.4 2.3zm15.2-.9c.7.8.8 1.7.3 2-.6.3-1.2-.3-1.5-1.4-.6-2.4-.4-2.5 1.2-.6zm22.3 1.8c-.7.7-1.2.8-1.2.2 0-1.4 1.2-2.6 1.9-1.9.2.3-.1 1.1-.7 1.7zm97.3 1.9c-1.2 1.9.7 3 2.1 1.2 1-1.4 1.3-1.5 1.4-.3 0 2.3-1.6 4.3-2.9 3.6-.7-.5-1.1.4-1.2 2.6 0 1.8-.3 2.7-.6 2-.2-.6-1.3-1.2-2.4-1.2-1 0-1.9-.5-1.9-1 0-.6-.6-1-1.4-1-1.6 0-2.9-2.7-2-4.1.7-1.2 5.4-1.1 5.4.1 0 .5-.8 1-1.7 1.1-1.4 0-1.5.2-.3.6.8.3 1.9 1.1 2.3 1.7.5.7.7.6.5-.4-.4-2.5 1.2-7.1 2.2-6.5.6.4.8 1.1.5 1.6zm-76.1.5c1 2.5.7 2.9-1.9 3-2.9.2-2.9.1-1.3-2.6 1.5-2.4 2.4-2.5 3.2-.4zM68 246c0 .5-.5 1-1.1 1-.5 0-.7-.5-.4-1 .3-.6.8-1 1.1-1 .2 0 .4.4.4 1zm55.8 1.2c-.6 1.8-2.8 2.1-2.8.4 0-.9.7-1.6 1.6-1.6.9 0 1.4.5 1.2 1.2zm72.9.7c-.1 1.6-.4 1.7-1.5.9-1-.9-1.1-1.3 0-1.9 1.7-1.1 1.7-1.2 1.5 1zm-104.6 2.8c-1.2 2-1.4 1.4-.5-1.2.4-.9.9-1.4 1.1-1.1.3.2 0 1.3-.6 2.3zm-8.9-.8c.8-1.1.9-1.1.5.1-.7 2.4 1.1 5 3.1 4.3 1.5-.6 1.5-.4-.2 1.5-2.6 2.9-5.2 1.2-5.2-3.6 0-1.9.2-2.9.4-2.2.3.9.7.9 1.4-.1zM123 252c0 .5-.7 1-1.5 1s-1.5-.5-1.5-1c0-.6.7-1 1.5-1s1.5.4 1.5 1zm7.4-.1c.3.5-.1 1.1-.9 1.5-1.5.6-2.9-.7-1.8-1.8.9-.9 2.1-.8 2.7.3zM93 254c0 .5-.4 1-1 1-.5 0-1-.5-1-1 0-.6.5-1 1-1 .6 0 1 .4 1 1zm113.8 3.9c.3.8-.1 1.2-.9.9-.7-.2-1.5-1-1.7-1.7-.3-.8.1-1.2.9-.9.7.2 1.5 1 1.7 1.7z"/><path d="M80 35c0 .5.5 1 1 1 .6 0 1-.5 1-1 0-.6-.4-1-1-1-.5 0-1 .4-1 1zM171 155.1c0 .5.5.7 1 .4.6-.3 1-.8 1-1.1 0-.2-.4-.4-1-.4-.5 0-1 .5-1 1.1zM183.2 161c-2.8 2.7-2.8 2.9.8 2.8 3.2-.1 3.3-.3 2.2-3.1-.7-1.7-.9-1.6-3 .3zM196.2 163.6c-.7.8-.8 1.4-.3 1.4 1 0 2.5-1.9 2-2.5-.2-.1-1 .3-1.7 1.1zM201 163.7c0 1.3.5 2.3 1 2.3 1.3 0 1.3-1.1 0-3-.8-1.2-1-1.1-1 .7zM204 162.8c0 1.4 1.1 2.1 2.6 1.5.8-.3 1.1-.9.8-1.4-.7-1.1-3.4-1.2-3.4-.1zM144 179.4c0 .9.5 1.6 1 1.6.6 0 1-.4 1-.9 0-.6-.4-1.3-1-1.6-.5-.3-1 .1-1 .9zM160.3 189.2c-.2 1.9-.1 1.9 1.8.3 2.3-2.2 2.3-2 .1-2.2-1.1-.1-1.8.6-1.9 1.9zM173.6 183.9c-.8 1.2 2.1 3.4 3.4 2.6 1.5-.9 5 .4 5 1.9 0 .7 1.5 1.3 3.5 1.4 1.9.2 3.5-.1 3.5-.5 0-1.7-1.8-3.5-2.9-2.9-.6.4-1.1.2-1.1-.4 0-.6-1-1.1-2.2-1-4.1.4-5.9 0-5.3-1 .3-.6-.3-1-1.4-1-1.1 0-2.2.4-2.5.9zM192 188.4c0 .9 3 1.4 3.5.6.4-.6-.3-1-1.4-1-1.2 0-2.1.2-2.1.4zM175.5 190c-.4.6-.4 1-.1 1 .2 0 1.1.3 2 .6.9.3 1.6.2 1.6-.4 0-1.4-2.8-2.3-3.5-1.2zM188 193.1c0 .5.5.7 1 .4.6-.3 1-.8 1-1.1 0-.2-.4-.4-1-.4-.5 0-1 .5-1 1.1zM180 193.5c0 1.5 3 3.5 4.4 2.9 2-.8 2.1-2.4.2-2.4-.8 0-2.1-.3-3-.6-.9-.3-1.6-.3-1.6.1zM191 194c0 .6.7 1 1.5 1s1.5-.2 1.5-.4-.7-.6-1.5-1c-.8-.3-1.5-.1-1.5.4zM204 195.1c0 .5.5.7 1 .4.6-.3 1-.8 1-1.1 0-.2-.4-.4-1-.4-.5 0-1 .5-1 1.1zM179 198c1.1 2 3 2.8 3 1.2 0-1.1-2.2-3.2-3.2-3.2-.5 0-.4.9.2 2zM187.5 197c.3.5.8 1 1.1 1 .2 0 .4-.5.4-1 0-.6-.5-1-1.1-1-.5 0-.7.4-.4 1zM193 197c0 .5.5 1 1 1 .6 0 1-.5 1-1 0-.6-.4-1-1-1-.5 0-1 .4-1 1zM188.8 201.7c.7.3 1.6.2 1.9-.1.4-.3-.2-.6-1.3-.5-1.1 0-1.4.3-.6.6zM125.3 190.5c.5 1.6 3.7 1.8 3.7.3 0-.8-.9-1.4-2-1.4s-1.9.5-1.7 1.1zM133 193.9c0 .5-.2 1.6-.5 2.3-.4.9.2 1.4 1.5 1.5 1.5.1 2-.4 2-2.3 0-1.5-.6-2.4-1.5-2.4-.8 0-1.5.4-1.5.9zM113.5 196.1c-1.1 1.7.1 2.1 1.5.4.8-.9.8-1.5.2-1.5-.6 0-1.4.5-1.7 1.1zM150 200c0 .5-.8 1-1.7 1-1.5 0-1.4.2.3 1.4 1.7 1.3 2 1.3 2.6-.2.5-1.2.7-1.3.7-.3.1.8.3 1.2.6.9.8-.7-.5-3.8-1.6-3.8-.5 0-.9.4-.9 1zM131 207.9c0 .5.7 1.1 1.4 1.4 1 .4 1.3.1.9-.9-.6-1.5-2.3-1.9-2.3-.5zM185 220.9c0 .6.4 1.3 1 1.6.6.3.7-.1.4-.9-.7-1.8-1.4-2.1-1.4-.7zM146 216c0 .5.7 1 1.6 1 .8 0 1.2-.5.9-1-.3-.6-1-1-1.6-1-.5 0-.9.4-.9 1zM104.5 225c-.3.5-.1 1 .4 1 .6 0 1.1-.5 1.1-1 0-.6-.2-1-.4-1-.3 0-.8.4-1.1 1zM136.5 12.9c.5 1.5.2 2.7-.6 3.2-1.1.7-1 .9.4.9 1.9 0 2.3-2.7.6-5-.8-1.2-.9-1-.4.9zM136 26.4c0 .9.5 1.6 1 1.6.6 0 1-.4 1-.9 0-.6-.4-1.3-1-1.6-.5-.3-1 .1-1 .9zM138.2 39.5c0 1.6.2 2.2.5 1.2.2-.9.2-2.3 0-3-.3-.6-.5.1-.5 1.8zM138 44.6c0 .8.5 1.2 1 .9.6-.4.8-1.1.5-1.6-.9-1.4-1.5-1.1-1.5.7zM136 51.5c0 2.1-.4 2.6-1.7 2.1-1.6-.6-1.6-.6 0 1.2.9 1 1.7 2.4 1.7 3 0 .6.7.9 1.5.6 1.1-.5 1.5.1 1.5 2.6 0 1.7.4 2.9.9 2.6.5-.4.4-2.9-.4-6.1-.7-3-1.1-5.6-.8-5.8.2-.2-.3-1-1.2-1.7-1.3-1.1-1.5-.8-1.5 1.5zM123 60c0 .5.5 1 1.1 1 .5 0 .7-.5.4-1-.3-.6-.8-1-1.1-1-.2 0-.4.4-.4 1zM136 61.7c0 1.6-.2 1.6-1.1.3-.8-1.1-1.2-1.2-1.6-.2-.2.6-.9 1-1.4.7-.5-.4-1.7-.1-2.6.4-1 .6-1.3 1.1-.7 1.1.7 0 1.5 1.2 1.9 2.7.7 2.8.7 2.8 1.6.5.7-2 2-2.7 4.2-2.3.4 0 .7-1 .7-2.4s-.2-2.5-.5-2.5-.5.8-.5 1.7zM126.6 67.7c-.6 1.4-.5 1.5.5.6.7-.7 1-1.5.7-1.8-.3-.3-.9.2-1.2 1.2zM129 79c0 .5.5 1 1.1 1 .5 0 .7-.5.4-1-.3-.6-.8-1-1.1-1-.2 0-.4.4-.4 1zM222 91.7c0 1.8 3.7 1.6 4.3-.1.4-1-.2-1.3-1.9-1.2-1.3 0-2.4.7-2.4 1.3zM218.8 92.7c.7.3 1.6.2 1.9-.1.4-.3-.2-.6-1.3-.5-1.1 0-1.4.3-.6.6zM213.4 95.1c-.3.6-.1 1.6.5 2.2.8.8 1.1.5 1.1-1.1 0-2.4-.5-2.8-1.6-1.1zM35.2 140.3c.1 1.5.5 2.7.9 2.7 1.2 0 2 3.2 1 4.4-.6.7-.2 1.1 1.4 1.2l2.3.2-2-4.7c-2.6-5.9-3.9-7.3-3.6-3.8zM89.5 139.3c-.4 1-.5 2.1-.1 2.4 1 1 1.8-.4 1.3-2.4-.4-1.7-.4-1.7-1.2 0zM19 140c0 .5.5 1 1 1 .6 0 1 .9 1 2s.4 2 .8 2c1.3 0 1-3.3-.4-4.7-1.5-1.6-2.4-1.7-2.4-.3zM73.5 142.1c-.4.6-.5 1.3-.2 1.6.7.7 2.7-.6 2.7-1.8 0-1.2-1.7-1.2-2.5.2zM91.5 142.2c-.4.9-.4 2.1-.1 2.7.3.5 0 1.2-.6 1.4-.8.3-.6.6.5.6 2.2.1 3.2-2.2 1.9-4.6-1-1.7-1.1-1.7-1.7-.1zM29 145c0 1.8.4 2.9 1 2.5.6-.3 1-1.5 1-2.5s-.4-2.2-1-2.5c-.6-.4-1 .7-1 2.5zM3 144.6c0 .8.5 1.2 1 .9.6-.4.8-1.1.5-1.6-.9-1.4-1.5-1.1-1.5.7zM110.5 145c-.3.5-.2 1 .4 1 .5 0 .5 1.2-.2 3-1.3 3.4-.1 5.5 2.3 4 1.2-.8 1.2-1-.4-1-1.9 0-1.9-.1.2-2.3 1.7-1.9 1.9-2.5.8-4-1.5-1.9-2.2-2.1-3.1-.7zM32.2 151.1c.1 4 .4 4.6 2 4.1 1-.2 1.8 0 1.8.6 0 1.4-2.5 3.3-4.7 3.5-1.3.1-1.8.9-1.8 3.4 0 3.5 1.2 4 5 2.2 1.9-.9 1.9-.9-.2-.5-1.5.3-2 0-1.6-1 .3-.8 0-1.4-.6-1.4s-1.1-.5-1.1-1.2c0-.9.3-.9 1.2 0 1.8 1.8 2.5 1.5 3.7-1.8 1.1-3.3.8-4.8-2.1-9.5l-1.8-3 .2 4.6zM74.5 150c.3.5 1.1 1 1.6 1 .6 0 .7-.5.4-1-.3-.6-1.1-1-1.6-1-.6 0-.7.4-.4 1zM17 152.1c0 .5.5.7 1 .4.6-.3 1-.8 1-1.1 0-.2-.4-.4-1-.4-.5 0-1 .5-1 1.1zM41.5 153c.4 1.1.2 2-.4 2-.6 0-1.1.7-1.1 1.5 0 .9.6 1.2 1.5.9 1.4-.6 2 .6 1.6 2.9-.1.5.3.6.8.3.6-.4.4-2.4-.6-5.1-1.4-4.3-3.1-6.6-1.8-2.5zM87.7 154.1c.4 1.5.8 1.7 1.4.8.8-1.4.3-2.9-1.1-2.9-.4 0-.6.9-.3 2.1zM102.1 153.6c0 1.1.3 1.4.6.6.3-.7.2-1.6-.1-1.9-.3-.4-.6.2-.5 1.3zM9.1 154.6c0 1.1.3 1.4.6.6.3-.7.2-1.6-.1-1.9-.3-.4-.6.2-.5 1.3zM19.5 154c-.3.6.1.7.9.4 1.8-.7 2.1-1.4.7-1.4-.6 0-1.3.4-1.6 1zM104.6 156.1c-1.1 1.8-2.3 2.8-3.2 2.5-.8-.3-1.4-.1-1.4.4 0 .6 1 1 2.3 1 1.6 0 2.6-.9 3.5-3.2 1.5-4.2 1-4.5-1.2-.7zM80 156.5c-.8.9-.8 1.5-.2 1.5 1.2 0 2.6-1.9 1.9-2.6-.2-.2-1 .2-1.7 1.1zM96.1 155.7c0 .6-.9 1.3-1.8 1.6-1.7.4-1.7.4 0 1.2 2.2.9 3 .2 2.4-2.2-.3-1-.5-1.3-.6-.6zM248 156.1c0 .5.5.7 1 .4.6-.3 1-.8 1-1.1 0-.2-.4-.4-1-.4-.5 0-1 .5-1 1.1zM75 158c0 .5.5 1 1.1 1 .5 0 .7-.5.4-1-.3-.6-.8-1-1.1-1-.2 0-.4.4-.4 1zM119.1 158.6c0 1.1.3 1.4.6.6.3-.7.2-1.6-.1-1.9-.3-.4-.6.2-.5 1.3zM9 159.6c0 .8.5 1.2 1 .9.6-.3 1-1 1-1.6 0-.5-.4-.9-1-.9-.5 0-1 .7-1 1.6zM71.5 159c-.3.5.1 1 1 1s1.3-.5 1-1c-.3-.6-.8-1-1-1-.2 0-.7.4-1 1zM122.3 159.5c0 .8.4 1.2.9.9.5-.3.6-1 .3-1.5-.9-1.3-1.2-1.1-1.2.6zM81 160c0 .5.5 1 1 1 .6 0 1-.5 1-1 0-.6-.4-1-1-1-.5 0-1 .4-1 1zM40.1 161.6c0 1.1.3 1.4.6.6.3-.7.2-1.6-.1-1.9-.3-.4-.6.2-.5 1.3zM107.4 162.5c.3 2.4 1.1 2.5 2.4.5 1-1.7 1-2-.7-2-1.1 0-1.8.6-1.7 1.5zM114.6 162.5c-.3.9 0 1.5.9 1.5s1.2-.6.9-1.5c-.4-.8-.7-1.5-.9-1.5-.2 0-.5.7-.9 1.5zM44 163c0 .5.4 1 .9 1 .6 0 1.3-.5 1.6-1 .3-.6-.1-1-.9-1-.9 0-1.6.4-1.6 1zM.3 171c0 2.8.4 5 .9 5s.6-.5.3-1c-.3-.6.1-1 .9-1s2.1-.8 2.8-1.8c.7-1 2.1-2.1 3.1-2.5.9-.3 1.7-1.1 1.7-1.7 0-1.3-.2-1.3-3.6.5-2.7 1.4-3 1.4-4.5-.5-1.6-1.9-1.7-1.7-1.6 3zm2.7 1.1c0 .5-.4.9-1 .9-.5 0-1-.7-1-1.6 0-.8.5-1.2 1-.9.6.3 1 1 1 1.6zM17 167c0 1.1 3.9 2 4.5 1 .3-.4-.6-1-2-1.2-1.4-.3-2.5-.2-2.5.2zM40 167.1c0 .5.5.7 1 .4.6-.3 1-.8 1-1.1 0-.2-.4-.4-1-.4-.5 0-1 .5-1 1.1zM46.6 167.3c.3 1 .9 1.5 1.2 1.2.3-.3 0-1.1-.7-1.8-1-.9-1.1-.8-.5.6zM33 168c0 .7-.6 1-1.4.7-.8-.3-1.7.1-2 .9-.4 1 0 1.4 1.2 1.2 1-.2 1.6.3 1.4 1-.1.8.2 1.1.7.8 1.3-.8 2-4.5 1-5.2-.5-.3-.9 0-.9.6zM70 168.5c0 .8-.7 1.5-1.5 1.5s-1.5.4-1.5 1c0 1.6 3.2 1.1 4.6-.8 1.8-2.3 1.7-3.2-.1-3.2-.8 0-1.5.7-1.5 1.5zM111.8 167.7c.7.3 1.6.2 1.9-.1.4-.3-.2-.6-1.3-.5-1.1 0-1.4.3-.6.6zM119 168.5c0 1.2 3.4 4.3 4.2 3.9.5-.3-.1-1.4-1.3-2.5-2.3-2-2.9-2.3-2.9-1.4zM21.4 171.1c-2.1 2-5.1 1.9-3.9-.2 1-1.5-4.9-1-8.3.7-4 2-4.9 3.4-2.8 4.6.9.5 1.6 1.5 1.6 2.2 0 1.6 2.2 2.6 5.5 2.6 1.3 0 2.9 1 3.9 2.5.9 1.4 2.2 2.5 2.9 2.4.9 0 .9-.2 0-.6-.7-.2-1.3-1.5-1.3-2.8 0-2-.6-2.5-3.7-3-6.5-1.1-7.1-1.4-4.8-3.1 1.1-.8 2.5-1.2 3.2-1 1.6.6 6.5-1.1 7.4-2.6.3-.5.9.2 1.1 1.6.5 2.3.3 2.6-1.6 2-1.9-.6-1.8-.5.4 1.4 2.8 2.2 4 2 4-.8 0-1 .7-2.5 1.5-3.4 2.1-2 1.9-2.9-.4-2.3-1.2.3-2.1-.1-2.3-.9-.2-1.1-.8-1-2.4.7zm-7.4 1.3c0 .2-.7.7-1.6 1-.8.3-1.2.2-.9-.4.6-1 2.5-1.4 2.5-.6zM93 170c0 .5.5 1 1.1 1 .5 0 .7-.5.4-1-.3-.6-.8-1-1.1-1-.2 0-.4.4-.4 1zM28.1 176.5c-1.4 5.4-1.4 5.8-.1 5 .6-.3 1-1.5 1-2.6 0-1 .5-1.9 1-1.9 1.2 0 1.3-3.7.1-4.4-.5-.3-1.4 1.4-2 3.9zM87 173.8c0 .9.7 1.1 2 .7 1.2-.4 2-.2 2 .5 0 .6.5.8 1 .5 2.1-1.3.9-3-2-3-1.8 0-3 .5-3 1.3zM80.6 173.9c-.3.4.6 1.9 1.9 3.1 1.4 1.3 2.5 1.8 2.5 1.2 0-.7-.4-1.2-1-1.2-.5 0-1-.4-1-1 0-.5.8-.7 1.8-.3 2.2.8 1.4-.1-1.5-1.6-1.2-.6-2.4-.7-2.7-.2zM107 176.9c0 .6.4 1.3 1 1.6.6.3.7-.1.4-.9-.7-1.8-1.4-2.1-1.4-.7zM1 178c1.1.8 1.2 1.2.3 1.8-1.6 1-1.3 5.4.4 4.8.6-.3 1.3 0 1.5.6.3.8.9.8 2.4 0 1.4-.8 1.5-1.2.4-1.2-1.3 0-1.3-.1 0-1.1 1.1-.8 1.2-1.2.2-1.6-.6-.2-1-.9-.6-1.4.3-.5-.2-.9-1.1-.9-.9 0-1.3-.5-1-1 .3-.6-.4-1-1.7-1-1.9 0-2 .2-.8 1zM33.1 178.8c-1.4 2.7-1.2 3.5.8 2.3.7-.5 1.1-1.7.9-2.7-.4-1.7-.5-1.7-1.7.4zM113 181.5c-.7.9-.8 1.5-.2 1.5.5 0 1.2-.7 1.6-1.5.3-.8.4-1.5.2-1.5s-.9.7-1.6 1.5z"/><path d="M21.7 183.1c.4 1.3.8 1.8 1.1 1 .2-.7-.1-1.8-.6-2.3-.8-.8-.9-.4-.5 1.3zM42.1 182.6c0 1.1.3 1.4.6.6.3-.7.2-1.6-.1-1.9-.3-.4-.6.2-.5 1.3zM64 182c0 .5.5 1 1.1 1 .5 0 .7-.5.4-1-.3-.6-.8-1-1.1-1-.2 0-.4.4-.4 1zM12.5 184.5c0 1.4.6 2.5 1.3 2.5 1.7 0 1.5 1.7-.3 2.4-.9.3-1.2 1.2-.8 2.2.5 1.3.3 1.5-.7.9-.8-.5-1.1-.4-.7.3 1.4 2.1-.4 4.2-3 3.6-1.9-.5-2.4-.3-2.1.7.3.8 1 1.3 1.6 1.2.5-.1.8.7.5 1.7-.8 3 1 2.4 5.1-1.5 3.3-3.1 3.9-3.3 5.2-2 .9.8 1.8 1.5 2.2 1.5 1.3 0 2.8-4.7 2.2-6.6-.4-1-.2-2.2.4-2.6.8-.5.7-1.1-.2-2-.9-.9-1.2-.9-1.2.1 0 1.9-4.1.3-6.3-2.5-2.4-3.1-3.2-3-3.2.1zm6 8.5c-.3.5-1.1 1-1.6 1-.6 0-.7-.5-.4-1 .3-.6 1.1-1 1.6-1 .6 0 .7.4.4 1zM34 183c-1.1.7-.5.8 2 .4 4.3-.8 5.1-1.4 1.9-1.4-1.3 0-3.1.5-3.9 1zM54.3 185c-1.8.9-2.9 2.1-2.5 2.5.4.5 0 .6-.9.3-.9-.4-2 .2-2.7 1.3-1 1.6-1 2.1.4 2.6.9.3 2.6.1 3.6-.6 1.2-.7 1.7-.8 1.3-.2-.3.6.1 1.1.9 1.1 2.3 0 3.1-2.2 1.3-3.5-2.2-1.6-2.2-2.9 0-2.1.9.4 1.9.2 2.2-.3.4-.6 1.2-.6 2.1-.1 1.2.8 1.2 1-.3 1-1 0-1.7.6-1.5 1.2.5 1.5 5.8 2.4 5.8.9 0-.5.3-1.6.6-2.4.3-.9-.3-1.6-1.8-1.9-1.3-.3-3-.8-3.8-1-.8-.3-3 .2-4.7 1.2zM32 187.1c-5.4 3-6.7 8.2-2.5 10.1 1.9.9 2.8.9 3.7 0 .9-.9.9-1.2 0-1.2-.7 0-1.2-.5-1.2-1.1 0-.5.5-.7 1-.4.6.3 1.7-.1 2.6-.9 1.4-1.5 1.3-1.6-1.2-1.6-2.7 0-2.7-.1-.8-1.6 1.6-1.3 1.6-1.5.2-1-1 .3-1.8.1-1.8-.4 0-.6.4-1 .9-1s1.7-.3 2.7-.7c1.4-.5 1.6-.3 1.1 1.2-.6 1.4-.5 1.6.6.7 1.7-1.4 2.7-.6 2 1.6-.4 1.4-.3 1.5.6.2.7-1 .6-1.9-.5-3.1-.8-.8-1.1-1.9-.7-2.2 1.4-1.5-3.4-.5-6.7 1.4zm-1.3 4.4c-.4.8-1.2 1.5-1.9 1.4-1 0-1-.2 0-.6.6-.2 1.2-1.2 1.2-2.1 0-.8.3-1.3.6-.9.4.3.4 1.3.1 2.2zM43.5 187c-.3.5-.2 1 .4 1 .5 0 1.3-.5 1.6-1 .3-.6.2-1-.4-1-.5 0-1.3.4-1.6 1zM6.8 189.7c.5 2.1.7 2.3 1 .9.2-1 0-2.2-.6-2.8-.6-.6-.7 0-.4 1.9zM0 193c0 3.9.4 5 1.6 5 .8 0 1.2-.5.9-1-.3-.6-.1-1 .5-1 .8 0 .8-.6 0-1.9-.8-1.6-.6-2.2.6-2.9 1.1-.6 1.3-1.1.5-1.6-.6-.4-1.1-.2-1.1.4 0 .6-.5.8-1 .5-.6-.4-.8-1.1-.5-1.6.4-.5.1-.9-.4-.9-.6 0-1.1 2.1-1.1 5zM76 189.1c0 .5.5.7 1 .4.6-.3 1-.8 1-1.1 0-.2-.4-.4-1-.4-.5 0-1 .5-1 1.1z"/><path d="M8.5 194c.3.5.8 1 1.1 1 .2 0 .4-.5.4-1 0-.6-.5-1-1.1-1-.5 0-.7.4-.4 1zM50.4 197.2c1.2.7 2.1.7 2.8 0 .6-.6 0-1-1.8-1-2.3 0-2.4.2-1 1zM56.5 197c.3.5 1.1 1 1.6 1 .6 0 .7-.5.4-1-.3-.6-1.1-1-1.6-1-.6 0-.7.4-.4 1zM93.1 196.7c0 .4.4 1.7.9 2.8.8 1.9.9 1.9.9-.2.1-1.2-.3-2.5-.9-2.8-.5-.3-1-.3-.9.2zM40.5 198c-.3.6.1.7.9.4 1.8-.7 2.1-1.4.7-1.4-.6 0-1.3.4-1.6 1zM27.4 200.5c.8.8 1.8 1.5 2.2 1.5.3 0 .1-.7-.6-1.5s-1.7-1.5-2.2-1.5c-.5 0-.3.7.6 1.5zM55.6 199.9c-.3.4-1.8.7-3.4.5-2.6-.3-2.8-.1-2.4 2.6.2 1.7.8 2.7 1.3 2.4.5-.3.9 0 .9.7 0 1 .3 1 1.2.1 1-1 1-1.5-.2-2.2-1.2-.7-1.2-1.2-.2-2.2.9-.9 1.2-.9 1.2.5 0 .9.3 1.7.8 1.7 1.2 0 3.2-3.9 2.2-4.5-.5-.3-1.1-.1-1.4.4zM14 201.5c-.7.8-1.9 1.5-2.6 1.5-2.2 0-1.6 3.1.6 3.7 1.1.3 2 1.2 2 1.9 0 .8.5 1.4 1.1 1.4.6 0 .9-.7.5-1.5-.3-.8-.1-1.5.4-1.5.6 0 1.1 1 1.1 2.2.1 2.1.2 2.1.6.3.3-1.1.9-2.5 1.4-3 1.2-1.6-.5-3.7-2.4-2.9-1 .3-1.7.1-1.7-.5s.5-1.1 1-1.1c.6 0 1-.5 1-1 0-1.5-1.6-1.2-3 .5zM99 201c-1.4.4-2 .9-1.5.9.6.1-.1 1-1.5 2.1l-2.5 2h2.3c1.2 0 2.2-.5 2.2-1 0-.6.5-1 1.1-1 .8 0 .8.4-.1 1.5-.6.8-.9 1.9-.5 2.5.5.8 1.2.3 1.9-1.2.7-1.4 2-2.3 3.4-2.2 2 .1 2.1-.1.7-1.6-.8-.9-1.2-2-.8-2.3.8-.9-1.5-.7-4.7.3zM36.2 204.9c-1 2.2-1 3.4-.1 5.5l1.2 2.6 1.4-2.6c.7-1.5 1.3-3.3 1.3-4.2 0-1.3.3-1.2 2 .3 1.7 1.6 2 1.6 2 .2 0-.8.3-2.4.7-3.4.6-1.5.5-1.6-.9-.5-1.2 1-1.8 1-2.3.1-.6-.8-1-.7-1.6.2-.6 1-.9 1.1-.9.1 0-2.1-1.5-1.3-2.8 1.7zM57.5 204.9c.6 1.9.4 2.3-.9 1.8-.8-.3-1.8-.2-2.1.2-.6 1.1 2.3 2.3 3.6 1.5.5-.3.9.1.9.9s.7 1.7 1.5 2.1c.8.3 1.5 1 1.5 1.5 0 .6-.6.8-1.3.6-.6-.3-1.7.3-2.4 1.4-1.1 1.8-1.1 1.8 1.8.4 3.2-1.6 5.6-.8 2.6.8-1 .6-1.7 2.2-1.7 3.9 0 3.3.2 3.4 3 2 1.1-.6 2.9-1.5 4-2 2.4-1.2 3.3-1.3 2.6-.1-.3.5.9.8 2.6.6 2.4-.2 3.6-1 4.8-3.2.8-1.6 2.1-2.8 2.7-2.6 2.8 1 2.5-4-.3-5.1-1.8-.7-1.8-.1.2 1.8 1.4 1.5 1.3 1.6-.6 1.6-1.4 0-1.9-.4-1.5-1.3.4-.6-.1-.3-1 .8-1.2 1.5-1.8 1.7-2.4.7-.6-.9-1.2-.8-2.6.8-1 1.1-2.2 1.7-2.8 1.3-.6-.4-.8 0-.4 1 .5 1.2.1 1.7-1.3 1.7-1.6 0-2-.7-2-3 0-2.1-.5-3-1.6-3s-1.4-.5-1-1.6c.4-1.1.2-1.5-.8-1.1-1.5.6-4-1.6-3-2.6.4-.3-.1-1.4-1.1-2.4-1.7-1.6-1.7-1.6-1 .6zm18 13.9c-.3.3-1.3-.2-2.3-1.1-1.5-1.6-1.5-1.9-.2-2.7 1.1-.7 1.7-.4 2.3 1.2.4 1.1.5 2.3.2 2.6zM65 219c0 .5-.5 1-1.1 1-.5 0-.7-.5-.4-1 .3-.6.8-1 1.1-1 .2 0 .4.4.4 1zM.2 208.6c-.1 3.2.3 4.4 1.3 4.4 1.8 0 2-2.1.3-3.8-.7-.7-.8-1.2-.4-1.2.5 0 1.4.7 2.1 1.7.7.9 1.4 1.2 1.7.7.2-.5-.8-2.1-2.3-3.6l-2.6-2.6-.1 4.4zM89 205c2 1.3 3.3 1.3 2.5 0-.3-.6-1.4-1-2.3-1-1.5 0-1.5.2-.2 1zM29 205.9c0 .5.6 1.6 1.4 2.3.7.8 1.3 2.4 1.2 3.7-.1 2.6 1.2 3.5 3.2 2.3 1-.7 1-1.5.2-3.7-.6-1.5-1.3-2.5-1.7-2.1-.9.8-3.4-1.4-2.7-2.5.3-.5 0-.9-.5-.9-.6 0-1.1.4-1.1.9zM19.7 210c-.3 1.1-.2 2 .2 2 .5 0 1.6-.9 2.6-2 1.8-1.9 1.7-2-.2-2-1.2 0-2.3.8-2.6 2zM46.1 208.3c.2.1 1.3.9 2.4 1.7 1.9 1.4 1.9 1.4.6-.3-.7-.9-1.8-1.7-2.4-1.7-.6 0-.8.1-.6.3zM12.1 210.6c0 1.1.3 1.4.6.6.3-.7.2-1.6-.1-1.9-.3-.4-.6.2-.5 1.3z"/><path d="M52.4 211.5c-1.6 2.4-1.8 2.5-3.5.9-1.3-1.2-1.9-1.3-1.9-.5 0 .7-1 2.1-2.2 3.2-1.4 1-1.8 1.8-1 1.9.7 0 1 .5.6 1.1-.4.7-.1 1 .7.7.8-.3 1.3-1.2 1.1-2.2-.4-2.2.5-2 1.8.5.9 1.5.8 2.4-.2 3.6-1.1 1.4-.9 1.5 1.9 1.1 1.7-.2 3.1-.1 3 .3-.5 1.9 1.7 1.1 2.4-.9.8-2.2.2-2.7-3-2.3-.7.2-1-.2-.6-.8.3-.6-.1-1.1-1-1.1s-1.4-.4-1.1-.9c.3-.4 1.7-.6 3.1-.3 2.5.4 3.5-1.1 1.4-2.3-.6-.5-.4-1.1.7-1.9 1.1-.9 1.3-1.5.6-2-.6-.4-1.9.5-2.8 1.9zM42 214c-.9.6-1 1-.3 1 .6 0 1.5-.5 1.8-1 .8-1.2.4-1.2-1.5 0zM86.1 214.6c0 1.1.3 1.4.6.6.3-.7.2-1.6-.1-1.9-.3-.4-.6.2-.5 1.3zM2 214.9c0 .5.8 1.1 1.9 1.4 1.4.3 1.7 1.1 1.4 3.1-.3 1.4-.9 2.9-1.4 3.2-.5.3-.6-.9-.3-2.6.5-2.4.3-3-1-3-1 0-1.5.4-1.1.9.3.5.1 1.2-.5 1.6-.5.3-1 2.6-1 4.9 0 4.2.1 4.4 3.8 5 2.7.4 4 .2 4.8-.9.6-.8 1.4-1.5 1.8-1.5 1.2 0 .5 2.1-1.4 4-1.5 1.5-1.6 2-.6 2 1.8 0 7.6-11.8 7.6-15.1-.1-2.4-.1-2.4-1.7-.4-1.5 2-1.5 2-1-.2.7-3.1-.8-3.8-2.6-1.3-1.3 1.9-1.4 1.9-5 0-2-1.1-3.7-1.6-3.7-1.1zm8 4.6c1 1.3.9 1.5-.9 1.5-1.2 0-2.1-.6-2.1-1.5 0-.8.4-1.5.9-1.5s1.4.7 2.1 1.5zm4 2.5c0 .5-.4 1-1 1-.5 0-1-.5-1-1 0-.6.5-1 1-1 .6 0 1 .4 1 1zm-7 2.4c0 .3-.4.8-1 1.1-.5.3-1 .1-1-.4 0-.6.5-1.1 1-1.1.6 0 1 .2 1 .4zM35.3 216c-.3 1.3-1 1.8-1.7 1.3s-.3 0 .8 1c1.7 1.6 1.8 2 .5 2.8-.9.6 0 .9 3.1.8 4 0 4.2-.2 2.3-1.1-2.5-1.2-3-3.7-1.1-5.6.9-.9.7-1.2-1.1-1.2-1.5 0-2.5.7-2.8 2zM79.4 217.5c-.8 2 1.3 4.5 3.8 4.5 1.7 0 1.8-.3.8-1.5s-1-1.8 0-3c1.1-1.3.8-1.5-1.4-1.5-1.5 0-2.9.7-3.2 1.5zM17 218.1c0 .5.5.7 1 .4.6-.3 1-.8 1-1.1 0-.2-.4-.4-1-.4-.5 0-1 .5-1 1.1zM19.3 220.6c-3.1 3.5-2.9 4 1.6 3.6 4.5-.4 6-3.1 3-5-2.4-1.5-2-1.6-4.6 1.4zM57 221.1c0 .5.5.7 1 .4.6-.3 1-.8 1-1.1 0-.2-.4-.4-1-.4-.5 0-1 .5-1 1.1zM79 222.6c0 1.7 1.8 3.6 2.8 3 .5-.3 1.3.1 1.6 1 .3.8 1 1.2 1.6.9.7-.4.7-1.3 0-2.6-.6-1.1-1.5-1.7-2.1-1.3-.5.3-1.6 0-2.4-.6-.8-.7-1.5-.9-1.5-.4zM76 224.5c0 .8.4 1.5 1 1.5.5 0 .7-.7.4-1.5-.4-.8-.8-1.5-1-1.5-.2 0-.4.7-.4 1.5zM34.3 224.7c-.7.3-1.4 1.7-1.4 3.1-.1 2.2-.3 2.3-.6.6-.4-1.9-1.1-2.1-5.9-2.2-2.9 0-5.4.4-5.4.9 0 .6-.9.8-1.9.4-1.3-.4-2.8.2-4.3 1.7l-2.3 2.3 2.8.3c2.8.3 3.8 2.2 1.1 2.2-.8 0-1.2.5-.8 1.1.5.8.1.8-1.4 0-1.6-.8-2.1-.7-2.6.5-.3.9-.6 1.7-.6 1.9 0 .6 7-.2 7.7-.9 1.3-1.2 3-.5 4 1.6 1.1 2.3 1.1 2.2 2.6-1.1 1.1-2.6 1.5-3 2.1-1.6.5 1.4.9 1.5 2.1.5.8-.6 1.8-.9 2.4-.6 1.2.8 4.1-.3 4.1-1.6 0-.6-.6-.6-1.4.1-1 .9-1.6.9-2.1.1-.4-.6-.5-1.2-.4-1.3.2-.1 1.4-.8 2.7-1.5 2-1.1 2.2-1 2.2.8 0 2.5 1.6 2.6 2.5.2.3-.9 2.1-2.9 4-4.3 2.6-2 3.2-2.8 2-3.2-.8-.4-2.2.1-3.1 1-1 1-1.8 1.2-2.2.6-.9-1.2-4.3-2.1-5.9-1.6zm3.5 2.5c-.2.6-1 1.4-1.6 1.6-.7.2-1-.2-.6-1.2.7-1.8 2.8-2.2 2.2-.4zm-8.8 1.2c0 .3-.4.8-1 1.1-.5.3-1 .1-1-.4 0-.6.5-1.1 1-1.1.6 0 1 .2 1 .4zm-5.5 4.6c-2.7 1.2-3.5 1.2-3.5 0 0-.6 1.2-1 2.8-.9 2.4 0 2.5.1.7.9zM71.3 224.7c.9.2 2.3.2 3 0 .6-.3-.1-.5-1.8-.5-1.6 0-2.2.2-1.2.5zM49.5 227c-.3.5.5 1.4 1.9 2 1.4.5 2.6 1.1 2.6 1.3 0 .1-2.2.3-4.9.4-4.3.1-5.5.6-8.8 3.8-3.8 3.7-2.7 3.9 1.3.3 1.4-1.2 2.4-1.6 2.8-.9.8 1.3 6.3.3 9.2-1.6 1.1-.7 2.4-1 2.7-.6.4.3 1.4-.2 2.2-1.3 1-1.2 1.4-1.4 1.3-.5-.2.8.4 1.6 1.2 1.8 1 .2 1.5-.5 1.6-2.1.2-2.1-.4-2.4-4.5-3-2.9-.4-4.7-.2-4.9.4-.3.8-.8.7-1.7 0-.9-.8-1.5-.8-2 0zM65 229.9c0 1.2.6 2.1 1.5 2.1.8 0 1.5-.4 1.5-.9s-.7-1.4-1.5-2.1c-1.3-1-1.5-.9-1.5.9zM64 235c0 .5-.7.7-1.5.4-2.1-.8-6.7.4-6 1.6.3.6.2 1-.3 1-2.1 0-7.7 6.3-7.4 8.4.2 1.6.1 1.8-.6.7-.6-.7-1.5-1-2.1-.7-1.8 1.2.9 3.2 4 3 2-.1 2.6.2 2.2 1.2-.3.8-.9 1.4-1.4 1.4-1 0-4.9 5.9-4.9 7.4 0 .5 1 .1 2.2-1 1.9-1.7 2.1-1.7 1.5-.2-.4 1-.2 1.8.4 1.8.7 0 .9-1 .5-2.6-.6-2.1-.4-2.5.8-2.1 1.7.7 7-4.9 6-6.4-.3-.5.4-1.7 1.5-2.7 1.5-1.2 1.8-2.1 1.1-3.2-.6-1-1-1.1-1-.3 0 .7-.5 1.3-1.1 1.3-.5 0-.7-.5-.3-1.2.5-.7.7-2.6.6-4.3-.2-2.8-.1-2.9 1.3-1.1 1 1.3 1.5 1.5 1.5.6 0-.7.3-1.1.6-.8.3.4.1 1.5-.4 2.5-1.1 2-.5 4.3 1 4.3.6 0 .8-.7.4-1.5-.3-.8 0-1.5.7-1.5 1.4 0 3.5-4.1 2.9-5.8-.4-1.4-2.2-1.6-2.2-.2zm-9.8 9.2c-.4 1.8-.2 2 1.4 1.4 1.5-.6 1.6-.5.7.5-1 1-1.5.9-2.8-.1-1.2-1-1.5-1-1.5 0 0 .8-.3 1.1-.6.8-.7-.8 1.4-4.8 2.5-4.8.5 0 .7 1 .3 2.2zM229.8 235c-1 .6-1.4 1.8-1.1 3 .4 1.3-.3 2.7-1.8 4-1.3 1-1.9 1.9-1.4 1.9 1.9 0 5.1-3.4 6.3-6.7 1.1-3.4.8-3.8-2-2.2zM1.7 236.5c-.7 1.5.1 2.5 2 2.5.7 0 1.3-.6 1.3-1.4 0-1.9-2.7-2.8-3.3-1.1zM45.3 237.7c-.7.2-1 1-.7 1.6.2.7-.3 2.2-1.3 3.2-1 1.1-1.9 3.6-2 5.5-.3 3.3-.2 3.4 1.2 1.5.8-1.1 2-2.6 2.6-3.4.9-1 .9-1.5-.2-2.2-1.2-.8-1.2-1 .1-1.8.9-.6 1.9-.6 2.6 0 .9.7 1.7.3 2.8-1.3.9-1.2 1.6-2.5 1.6-2.9 0-.7-4.9-.9-6.7-.2z"/><path d="M39.5 238.7c-1.1.3-2.4 1-3 1.7-.5.6-3.2 2-6 3-2.7 1-5.5 2.3-6.1 2.8-1.3.9-4.4.1-4.4-1.3 0-.5-1-.8-2.1-.6-1.2.1-2.4-.4-2.6-1.1-.3-.7.1-1 .9-.7.9.4 1.4-.2 1.4-1.5 0-1.1-.4-2-.8-2s-.8.4-.8 1c0 .5-.7.7-1.5.4-1.1-.5-1.3-.2-.9 1 .5 1.3-.1 1.6-2.9 1.6-3.2 0-3.6.3-5.2 4.7-1 2.7-2.7 6.3-3.7 8.2-1.1 1.8-1.7 3.5-1.5 3.8.7.6 6.7-6.6 6.7-8 0-2 3.4-4.4 5.6-4 1 .3 2.8.5 3.9.5s1.4.2.7.5c-1 .4-1 .8-.1 1.9 1.1 1.4.2 1.8-3.9 1.7-.6-.1-1.2.2-1.2.7 0 .4-1.1 1.2-2.4 1.8-1.4.6-3 2-3.6 3.1-1 2-.8 2.1 9.3 2h10.4l1.7-3.7c1.4-2.8 2-3.3 2.7-2.1 1.3 2 1.1 2.9-.5 2.3-1.6-.6-3 2.2-1.6 3.1.6.4 1 .1 1-.6 0-1 .3-1 1.2-.1 1.9 1.9 2.6 1.4 2.1-1.6-.3-2.4-.2-2.5.6-.6 1.1 2.5 2.9 3.9 3.8 3 .4-.3-.2-1.5-1.2-2.6-1.1-1.2-1.3-2-.6-2 .7 0 .9-.9.5-2.4-.5-2.1-.3-2.4 1.5-1.9 1.4.3 2.1 0 2.2-.8 0-.8.2-2.4.3-3.7.2-1.2-.1-2.2-.6-2.2-.4 0-.8-.5-.8-1.1 0-.6.6-.9 1.4-.6.9.4 1.6-.3 1.9-1.9.2-1.3.4-2.3.3-2.3 0 .1-1 .3-2.1.6zM10 245c0 .5-.4 1-1 1-.5 0-1-.5-1-1 0-.6.5-1 1-1 .6 0 1 .4 1 1zm25 2.5c0 .5-.5.3-1-.5s-1-2-1-2.5c0-.6.5-.3 1 .5s1 1.9 1 2.5zm-2.5 1.5c.7 1.1-.6 1.3-2.9.4-.9-.3-1.6-1.3-1.6-2 0-1.1.4-1.2 1.9-.4 1.1.5 2.3 1.5 2.6 2zM245.6 239.4c.6 1.5.4 1.8-.7 1.4-1-.4-1.4.3-1.4 2.8 0 1.9.3 3.4.8 3.4.4 0 .7-.7.7-1.5s.6-1.5 1.4-1.5c2.5 0 2.8-1.9.6-4.2-1.8-2-2-2-1.4-.4zM237.6 239.8c-.4.8-1.6 1.2-2.5.9-1.3-.3-1.7.3-1.7 2.8 0 3 .2 3.1 2.9 2.6 1.7-.4 3.7-1.7 4.5-2.9 1.3-2 1.3-2.2-.1-1.6-1 .3-1.7-.1-1.9-1.3-.3-1.4-.5-1.5-1.2-.5zM0 242.1c0 .5.6.9 1.3.9.8 0 .9.3.1.8-.6.4-1.1 2.7-1.2 5.2l-.1 4.5 3-5.9c1.6-3.3 2.9-6 2.9-6 0-.6-6-.1-6 .5z"/><path d="M22 243c-1.3.8-1.3 1 .2 1 .9 0 2-.5 2.3-1 .8-1.3-.5-1.3-2.5 0zM218.9 246.7c0 1.6-.4 3.7-.9 4.8-.8 1.9-.9 1.9-.9-.3-.1-3.2-2.5-2.7-5.5 1.3-2.2 2.8-2.5 3.8-1.6 5.5.9 1.7 2.1 2 8.1 2 6.3 0 7-.2 6.5-1.8-.5-1.5-.5-1.5.7-.1.9 1.2 3.2 1.7 8.5 1.8 6.6.2 7.3 0 7-1.6-.3-1.3-1.2-1.8-3.7-1.6-3.1.1-3.2 0-1.5-1.8 1-1.1 1.2-1.9.6-1.9-.7 0-1.2-.5-1.2-1.1 0-.6.8-.8 1.8-.5 1.1.3 2.4-.4 3.7-2.2l2-2.7-2.7 1.7c-1.5 1-3.3 1.8-4 1.8-.9 0-.9-.3.2-1 1.2-.8 1-1-1-1.1-1.4-.1-2.9-.2-3.5-.4-.5-.1-1.5-.3-2.2-.3-.7-.1-1-.9-.7-1.7.7-1.7-1.1-2.1-2.2-.4-.3.6.9 2.6 2.7 4.5 2.5 2.6 2.9 3.4 1.6 3.4-.9 0-1.7-.7-1.7-1.6 0-1.1-.6-1.5-1.9-1.1-1.6.4-2.1-.2-2.6-2.4-.7-3.2-2.1-3.8-2.8-1.2-.4 1.4-.5 1.2-.6-.5-.2-3.2-2.1-2.7-2.2.5zm6.1 7.8c0 1.3-2.1 2.5-4.6 2.5-.8 0-1.4-.8-1.3-1.8 0-1 .3-1.2.6-.5.7 1.9 2.1 1.6 2.8-.7.7-2.1 2.5-1.8 2.5.5zm-10 0c-.7.9-1.5 1.3-1.9 1-.3-.3.1-1 .9-1.5 2.1-1.4 2.4-1.2 1 .5zm13.7 1.9c0 .8-.6 1.2-1.4.9-.7-.3-1.3-.9-1.3-1.4 0-.5.6-.9 1.3-.9.8 0 1.4.6 1.4 1.4zM59.9 248.6c-.5 1.5-1.2 3.2-1.6 3.8-.3.6.2.4 1.1-.5 1.5-1.4 3.1-5.9 2-5.9-.2 0-.9 1.2-1.5 2.6zM10 251.2c-1.2 2.2-1.2 2.2.6.6 1-1 1.5-2 1.2-2.4-.4-.3-1.2.5-1.8 1.8zM41.8 252.1c-1.6 1.6-2.8 4-2.7 5.2 0 1.2.3 1.6.6.9.2-.6 1.2-1.2 2-1.2.9 0 1.3.6.9 1.5-.9 2.5.8 1.6 2.1-1 .6-1.4.7-2.5.2-2.5-.5 0-.6-1.4-.2-3 .7-3.6.5-3.6-2.9.1zM249 256.6c0 .8.5 1.2 1 .9.6-.3 1-1 1-1.6 0-.5-.4-.9-1-.9-.5 0-1 .7-1 1.6z"/></svg>