<?xml version="1.0" encoding="UTF-8" standalone="no"?>
<!-- Created with Inkscape (http://www.inkscape.org/) -->

<svg
   version="1.1"
   id="svg1"
   width="427.33334"
   height="133.28"
   viewBox="0 0 427.33334 133.28"
   sodipodi:docname="phabbf02.eps"
   xmlns:inkscape="http://www.inkscape.org/namespaces/inkscape"
   xmlns:sodipodi="http://sodipodi.sourceforge.net/DTD/sodipodi-0.dtd"
   xmlns="http://www.w3.org/2000/svg"
   xmlns:svg="http://www.w3.org/2000/svg">
  <defs
     id="defs1" />
  <sodipodi:namedview
     id="namedview1"
     pagecolor="#ffffff"
     bordercolor="#000000"
     borderopacity="0.25"
     inkscape:showpageshadow="2"
     inkscape:pageopacity="0.0"
     inkscape:pagecheckerboard="0"
     inkscape:deskcolor="#d1d1d1">
    <inkscape:page
       x="0"
       y="0"
       inkscape:label="1"
       id="page1"
       width="427.33334"
       height="133.28"
       margin="0"
       bleed="0" />
  </sodipodi:namedview>
  <g
     id="g1"
     inkscape:groupmode="layer"
     inkscape:label="1">
    <g
       id="group-R5">
      <path
         id="path2"
         d="m 2.1560938,-5.7178406 c -1.3476563,0 -1.8398438,1.6054687 -1.8398438,2.9179687 0,1.4179688 0.48046875,2.90625002 1.8398438,2.90625002 1.359375,0 1.828125,-1.59375002 1.828125,-2.91796872 0,-1.3828125 -0.46875,-2.90625 -1.828125,-2.90625 z m 0,0.3046875 c 0.8085937,0 1.03125,1.3242187 1.03125,2.6015625 0,1.265625 -0.2226563,2.61328122 -1.03125,2.61328122 -0.7734375,0 -1.0429688,-1.35937502 -1.0429688,-2.61328122 0,-1.2539063 0.2226563,-2.6015625 1.0429688,-2.6015625 z m -8.6953125,5.41113279 V -0.24811406 C -7.3595312,-0.30670781 -7.418125,-0.37702031 -7.418125,-1.0332703 v -4.6875 c -0.4921875,0.1992187 -1.0195312,0.375 -1.59375,0.46875 v 0.2109375 l 0.4335938,0.011719 c 0.3867187,0.023437 0.421875,0.070312 0.421875,0.5390625 V -1.03327 c 0,0.65624999 -0.035156,0.72656249 -0.8554688,0.78515624 v 0.24609375 z M -16.292148,-1.2647156 c -0.269532,0.57421872 -0.386719,0.60937497 -0.867188,0.60937497 h -1.6875 l 1.277344,-1.33593747 c 0.832031,-0.890625 1.195312,-1.4179688 1.195312,-2.203125 0,-0.9492188 -0.726562,-1.5234375 -1.511718,-1.5234375 -0.527344,0 -0.949219,0.234375 -1.21875,0.5390625 l -0.515625,0.7265625 0.199218,0.1757812 c 0.234375,-0.3515625 0.609375,-0.8320312 1.230469,-0.8320312 0.65625,0 1.054688,0.4335937 1.054688,1.1953125 0,0.7734375 -0.5625,1.5117187 -1.125,2.1796875 -0.445313,0.515625 -0.949219,1.03124997 -1.453125,1.52343747 V 9.09375e-4 h 3.363281 c 0.105469,-0.410156255 0.199219,-0.796875005 0.316406,-1.183593775 z m -12.94043,-3.1992188 c 0.222656,-0.328125 0.585937,-0.7148437 1.078125,-0.7148437 0.480469,0 0.855469,0.2929687 0.855469,0.8554687 0,0.65625 -0.609375,1.0078125 -1.429688,1.2773438 l 0.05859,0.2578125 c 0.140625,-0.046875 0.363281,-0.1054688 0.574219,-0.1054688 0.515625,0 1.148437,0.3398438 1.148437,1.171875 0,0.89062502 -0.457031,1.35937502 -1.089844,1.35937502 -0.515625,0 -0.890625,-0.24609375 -1.125,-0.45703125 -0.07031,-0.0585938 -0.140625,-0.046875 -0.210937,0 -0.08203,0.0585938 -0.199219,0.17578125 -0.210938,0.29296875 -0.01172,0.1171875 0.02344,0.2109375 0.152344,0.328125 0.117188,0.10546875 0.480469,0.3046875 0.890625,0.3046875 0.65625,0 2.367188,-0.66796875 2.367188,-2.12109372 0,-0.65625 -0.46875,-1.21875 -1.253907,-1.3710938 v -0.011719 c 0.257813,-0.1875 0.480469,-0.3398438 0.609375,-0.4921875 0.175782,-0.1640625 0.28125,-0.375 0.28125,-0.6328125 0,-0.6914063 -0.527343,-1.1953125 -1.347656,-1.1953125 -0.46875,0 -0.890625,0.234375 -1.136719,0.5039062 l -0.398437,0.5742188 z m -6.65625,2.8564453 v -0.421875 h -0.867188 v -3.65625 h -0.351562 c -0.925781,1.21875 -1.851563,2.5546875 -2.707031,3.8320313 v 0.2460937 h 2.34375 v 0.65625004 c 0,0.5859375 -0.03516,0.64453125 -0.820313,0.703125 v 0.24609375 h 2.308594 v -0.24609375 c -0.726563,-0.0585938 -0.773438,-0.10546875 -0.773438,-0.703125 V -1.6074891 Z m -1.582031,-0.421875 h -1.769532 c 0.585938,-0.9960937 1.171875,-1.8515625 1.757813,-2.6484375 h 0.01172 z m -11.144532,-2.915039 h 2.097657 l 0.234375,-0.5859375 -0.05859,-0.070312 h -2.566406 l -0.351563,2.7421875 c 0.210938,-0.082031 0.550781,-0.1875 0.925781,-0.1875 0.984375,0 1.464844,0.5742187 1.464844,1.359375 0,0.6796875 -0.375,1.33593747 -1.136719,1.33593747 -0.550781,0 -0.914062,-0.29296875 -1.113281,-0.45703125 -0.08203,-0.0703125 -0.152344,-0.0585938 -0.234375,0 -0.105469,0.09375 -0.1875,0.2109375 -0.1875,0.29296875 -0.02344,0.10546875 0.02344,0.1875 0.140625,0.3046875 0.128906,0.12890625 0.515625,0.31640625 0.925781,0.31640625 0.480469,-0.01171875 1.078125,-0.24609375 1.570313,-0.6328125 0.550781,-0.45703125 0.796875,-0.96093752 0.796875,-1.51171872 0,-0.7382813 -0.585938,-1.5117188 -1.734375,-1.5117188 -0.246094,0 -0.667969,0.140625 -1.007813,0.2695313 z m -10.139648,1.8603515 c 0.269531,-1.2539062 1.113281,-1.828125 1.664062,-2.0859375 0.328125,-0.1523437 0.679688,-0.2578125 0.972657,-0.3164062 l -0.05859,-0.28125 c -0.363281,0.058594 -0.796875,0.1640625 -1.148438,0.28125 -0.960937,0.3515625 -2.332031,1.3710937 -2.332031,3.3398437 0,1.38281254 0.796875,2.25000004 1.851563,2.25000004 1.078125,0 1.839843,-0.90234375 1.839843,-1.98046874 0,-0.9257813 -0.65625,-1.6640625 -1.617187,-1.6640625 -0.175781,0 -0.363281,0.070312 -0.5625,0.1523437 z m 0.820312,0.046875 c 0.820313,0 1.195313,0.7382813 1.195313,1.4882813 0,0.59765624 -0.210938,1.34765624 -0.914063,1.34765624 -0.738281,0 -1.195312,-0.87890624 -1.195312,-1.95703124 0,-0.234375 0.01172,-0.4570313 0.04687,-0.6210938 0.222656,-0.1171875 0.527344,-0.2578125 0.867187,-0.2578125 z m -8.027343,-2.5664062 h -3.433594 c -0.03516,0.3867187 -0.08203,0.8320312 -0.164063,1.3242187 h 0.257813 c 0.222656,-0.5859375 0.269531,-0.6679687 0.867187,-0.6679687 h 1.945313 c -0.714844,1.5585937 -1.722656,3.421875 -2.671875,4.95703124 l 0.05859,0.09375 0.667968,-0.08203125 c 0.867188,-1.86328129 1.699219,-3.69140629 2.542969,-5.51953129 z m -11.791992,-0.1142578 c -0.960938,0 -1.59375,0.7265625 -1.59375,1.4765625 0,0.6328125 0.386718,1.0664062 0.972656,1.3945312 -0.304688,0.1992188 -0.65625,0.4453125 -0.796875,0.5742188 -0.199219,0.1992187 -0.398438,0.4453125 -0.398438,0.8554687 0,0.97265627 0.761719,1.52343752 1.722657,1.52343752 0.761718,0 1.78125,-0.57421875 1.78125,-1.62890622 0,-0.7851563 -0.5625,-1.2070313 -1.183594,-1.5585938 0.398437,-0.28125 0.644531,-0.5039062 0.703125,-0.5859375 0.175781,-0.1875 0.269531,-0.4570312 0.269531,-0.7148437 0,-0.7265625 -0.621094,-1.3359375 -1.476562,-1.3359375 z m -0.08203,0.2929687 c 0.410157,0 0.878907,0.328125 0.878907,1.0898438 0,0.5390625 -0.246094,0.8671875 -0.550782,1.1132812 -0.632812,-0.3164062 -1.171875,-0.609375 -1.171875,-1.2773437 0,-0.4570313 0.304688,-0.9257813 0.84375,-0.9257813 z m 0.08203,5.25000002 c -0.574219,0 -1.101563,-0.46875 -1.101563,-1.28906252 0,-0.4921875 0.304688,-0.9492187 0.738281,-1.2304687 0.691407,0.3515625 1.335938,0.7382812 1.335938,1.40625 0,0.69140622 -0.421875,1.11328122 -0.972656,1.11328122 z M -87.797031,-5.7178406 c -1.160156,0 -1.839844,1.0546875 -1.839844,1.921875 0,0.9492187 0.65625,1.640625 1.617188,1.640625 0.164062,0 0.339843,-0.035156 0.539062,-0.140625 l 0.597656,-0.3164063 c -0.292968,1.359375 -1.277343,2.26171877 -2.566406,2.47265627 l 0.04687,0.28125 c 0.222656,0 0.773438,-0.09375 1.265625,-0.29296875 1.207031,-0.4921875 2.121094,-1.65234372 2.121094,-3.31640622 0,-1.21875 -0.65625,-2.25 -1.78125,-2.25 z m -0.117188,0.3046875 c 0.867188,0 1.101563,1.1132812 1.101563,1.8984375 0,0.1875 0,0.3984375 -0.03516,0.5976562 -0.1875,0.140625 -0.492188,0.2578125 -0.808594,0.2578125 -0.75,0 -1.207031,-0.65625 -1.207031,-1.453125 0,-0.5273437 0.257812,-1.3007812 0.949218,-1.3007812 z m -8.80664,3.140625 h -2.050782 l -0.128906,0.4921875 h 2.050781 z m -9.996091,-0.00293 h -2.05078 l -0.12891,0.4921875 h 2.05078 z m -9.99903,0 h -2.05078 l -0.1289,0.4921875 h 2.05078 z m -9.99902,0 h -2.05078 l -0.12891,0.4921875 h 2.05078 z m -9.99609,0 h -2.05078 l -0.12891,0.4921875 h 2.05078 z m -9.9961,0.00293 h -2.05078 l -0.1289,0.4921875 h 2.05078 z m -9.99902,-0.00293 h -2.05078 l -0.12891,0.4921875 h 2.05078 z m -9.99902,0.00293 h -2.05079 l -0.1289,0.4921875 h 2.05078 z m -9.9961,-0.00293 h -2.05078 l -0.12891,0.4921875 h 2.05079 z m -9.99902,0.00293 h -2.05078 l -0.12891,0.4921875 h 2.05078 z m -9.9961,0 h -2.05078 l -0.1289,0.4921875 h 2.05078 z m -9.99902,0 h -2.05078 l -0.12891,0.4921875 h 2.05079 z m -9.99609,0 h -2.05078 l -0.12891,0.4921875 h 2.05078 z m -9.99903,-0.00293 h -2.05078 l -0.1289,0.4921875 h 2.05078 z m -9.99609,0 h -2.05078 l -0.12891,0.4921875 h 2.05078 z m -9.99902,0 h -2.05078 l -0.12891,0.4921875 h 2.05078 z m -9.9961,0.00293 h -2.05078 l -0.1289,0.4921875 h 2.05078 z m -9.99902,0 h -2.05078 l -0.12891,0.4921875 h 2.05078 z m -9.99609,-0.00293 h -2.05079 l -0.1289,0.4921875 h 2.05078 z m -9.9961,0 h -2.05078 l -0.12891,0.4921875 h 2.05079 z m -9.99902,0.00293 h -2.05078 l -0.12891,0.4921875 h 2.05078 z m -9.99609,-0.00293 h -2.05079 l -0.1289,0.4921875 h 2.05078 z m 0,0"
         style="fill:#231f20;fill-opacity:1;fill-rule:nonzero;stroke:none"
         aria-label="0&#10;1&#10;23&#10;4&#10;5&#10;67&#10;89-&#10;----&#10;-&#10;-&#10;-&#10;-&#10;----&#10;---&#10;--&#10;--&#10;-&#10;-"
         transform="matrix(1.3333333,0,0,1.3333333,417.45333,14.8816)" />
      <path
         id="path3"
         d="M 3202.5,846.199 H 2.5 v 150.918 h 3200 z"
         style="fill:none;stroke:#231f20;stroke-width:5;stroke-linecap:butt;stroke-linejoin:miter;stroke-miterlimit:10;stroke-dasharray:none;stroke-opacity:1"
         transform="matrix(0.13333333,0,0,-0.13333333,0,133.28)" />
      <path
         id="path4"
         d="M 3101.32,997.148 V 848.484"
         style="fill:none;stroke:#231f20;stroke-width:5;stroke-linecap:butt;stroke-linejoin:miter;stroke-miterlimit:10;stroke-dasharray:none;stroke-opacity:1"
         transform="matrix(0.13333333,0,0,-0.13333333,0,133.28)" />
      <path
         id="path5"
         d="M 3001.25,997.148 V 848.484"
         style="fill:none;stroke:#231f20;stroke-width:5;stroke-linecap:butt;stroke-linejoin:miter;stroke-miterlimit:10;stroke-dasharray:none;stroke-opacity:1"
         transform="matrix(0.13333333,0,0,-0.13333333,0,133.28)" />
      <path
         id="path6"
         d="M 2901.16,997.148 V 848.484"
         style="fill:none;stroke:#231f20;stroke-width:5;stroke-linecap:butt;stroke-linejoin:miter;stroke-miterlimit:10;stroke-dasharray:none;stroke-opacity:1"
         transform="matrix(0.13333333,0,0,-0.13333333,0,133.28)" />
      <path
         id="path7"
         d="M 2801.1,997.148 V 848.484"
         style="fill:none;stroke:#231f20;stroke-width:5;stroke-linecap:butt;stroke-linejoin:miter;stroke-miterlimit:10;stroke-dasharray:none;stroke-opacity:1"
         transform="matrix(0.13333333,0,0,-0.13333333,0,133.28)" />
      <path
         id="path8"
         d="M 2701.04,997.148 V 848.484"
         style="fill:none;stroke:#231f20;stroke-width:5;stroke-linecap:butt;stroke-linejoin:miter;stroke-miterlimit:10;stroke-dasharray:none;stroke-opacity:1"
         transform="matrix(0.13333333,0,0,-0.13333333,0,133.28)" />
      <path
         id="path9"
         d="M 2600.96,997.148 V 848.484"
         style="fill:none;stroke:#231f20;stroke-width:5;stroke-linecap:butt;stroke-linejoin:miter;stroke-miterlimit:10;stroke-dasharray:none;stroke-opacity:1"
         transform="matrix(0.13333333,0,0,-0.13333333,0,133.28)" />
      <path
         id="path10"
         d="M 2500.9,997.148 V 848.484"
         style="fill:none;stroke:#231f20;stroke-width:5;stroke-linecap:butt;stroke-linejoin:miter;stroke-miterlimit:10;stroke-dasharray:none;stroke-opacity:1"
         transform="matrix(0.13333333,0,0,-0.13333333,0,133.28)" />
      <path
         id="path11"
         d="M 2400.83,997.148 V 848.484"
         style="fill:none;stroke:#231f20;stroke-width:5;stroke-linecap:butt;stroke-linejoin:miter;stroke-miterlimit:10;stroke-dasharray:none;stroke-opacity:1"
         transform="matrix(0.13333333,0,0,-0.13333333,0,133.28)" />
      <path
         id="path12"
         d="M 2300.74,997.148 V 848.484"
         style="fill:none;stroke:#231f20;stroke-width:5;stroke-linecap:butt;stroke-linejoin:miter;stroke-miterlimit:10;stroke-dasharray:none;stroke-opacity:1"
         transform="matrix(0.13333333,0,0,-0.13333333,0,133.28)" />
      <path
         id="path13"
         d="M 2200.67,997.148 V 848.484"
         style="fill:none;stroke:#231f20;stroke-width:5;stroke-linecap:butt;stroke-linejoin:miter;stroke-miterlimit:10;stroke-dasharray:none;stroke-opacity:1"
         transform="matrix(0.13333333,0,0,-0.13333333,0,133.28)" />
      <path
         id="path14"
         d="M 2100.61,997.148 V 848.484"
         style="fill:none;stroke:#231f20;stroke-width:5;stroke-linecap:butt;stroke-linejoin:miter;stroke-miterlimit:10;stroke-dasharray:none;stroke-opacity:1"
         transform="matrix(0.13333333,0,0,-0.13333333,0,133.28)" />
      <path
         id="path15"
         d="M 2000.54,997.148 V 848.484"
         style="fill:none;stroke:#231f20;stroke-width:5;stroke-linecap:butt;stroke-linejoin:miter;stroke-miterlimit:10;stroke-dasharray:none;stroke-opacity:1"
         transform="matrix(0.13333333,0,0,-0.13333333,0,133.28)" />
      <path
         id="path16"
         d="M 1900.46,997.148 V 848.484"
         style="fill:none;stroke:#231f20;stroke-width:5;stroke-linecap:butt;stroke-linejoin:miter;stroke-miterlimit:10;stroke-dasharray:none;stroke-opacity:1"
         transform="matrix(0.13333333,0,0,-0.13333333,0,133.28)" />
      <path
         id="path17"
         d="M 1800.39,997.148 V 848.484"
         style="fill:none;stroke:#231f20;stroke-width:5;stroke-linecap:butt;stroke-linejoin:miter;stroke-miterlimit:10;stroke-dasharray:none;stroke-opacity:1"
         transform="matrix(0.13333333,0,0,-0.13333333,0,133.28)" />
      <path
         id="path18"
         d="M 1700.33,997.148 V 848.484"
         style="fill:none;stroke:#231f20;stroke-width:5;stroke-linecap:butt;stroke-linejoin:miter;stroke-miterlimit:10;stroke-dasharray:none;stroke-opacity:1"
         transform="matrix(0.13333333,0,0,-0.13333333,0,133.28)" />
      <path
         id="path19"
         d="M 1600.25,997.148 V 848.484"
         style="fill:none;stroke:#231f20;stroke-width:5;stroke-linecap:butt;stroke-linejoin:miter;stroke-miterlimit:10;stroke-dasharray:none;stroke-opacity:1"
         transform="matrix(0.13333333,0,0,-0.13333333,0,133.28)" />
      <path
         id="path20"
         d="M 1500.17,997.148 V 848.484"
         style="fill:none;stroke:#231f20;stroke-width:5;stroke-linecap:butt;stroke-linejoin:miter;stroke-miterlimit:10;stroke-dasharray:none;stroke-opacity:1"
         transform="matrix(0.13333333,0,0,-0.13333333,0,133.28)" />
      <path
         id="path21"
         d="M 1400.1,997.148 V 848.484"
         style="fill:none;stroke:#231f20;stroke-width:5;stroke-linecap:butt;stroke-linejoin:miter;stroke-miterlimit:10;stroke-dasharray:none;stroke-opacity:1"
         transform="matrix(0.13333333,0,0,-0.13333333,0,133.28)" />
      <path
         id="path22"
         d="M 1300.04,997.148 V 848.484"
         style="fill:none;stroke:#231f20;stroke-width:5;stroke-linecap:butt;stroke-linejoin:miter;stroke-miterlimit:10;stroke-dasharray:none;stroke-opacity:1"
         transform="matrix(0.13333333,0,0,-0.13333333,0,133.28)" />
      <path
         id="path23"
         d="M 1199.96,997.148 V 848.484"
         style="fill:none;stroke:#231f20;stroke-width:5;stroke-linecap:butt;stroke-linejoin:miter;stroke-miterlimit:10;stroke-dasharray:none;stroke-opacity:1"
         transform="matrix(0.13333333,0,0,-0.13333333,0,133.28)" />
      <path
         id="path24"
         d="M 1099.89,997.148 V 848.484"
         style="fill:none;stroke:#231f20;stroke-width:5;stroke-linecap:butt;stroke-linejoin:miter;stroke-miterlimit:10;stroke-dasharray:none;stroke-opacity:1"
         transform="matrix(0.13333333,0,0,-0.13333333,0,133.28)" />
      <path
         id="path25"
         d="M 999.824,997.148 V 848.484"
         style="fill:none;stroke:#231f20;stroke-width:5;stroke-linecap:butt;stroke-linejoin:miter;stroke-miterlimit:10;stroke-dasharray:none;stroke-opacity:1"
         transform="matrix(0.13333333,0,0,-0.13333333,0,133.28)" />
      <path
         id="path26"
         d="M 899.75,997.148 V 848.484"
         style="fill:none;stroke:#231f20;stroke-width:5;stroke-linecap:butt;stroke-linejoin:miter;stroke-miterlimit:10;stroke-dasharray:none;stroke-opacity:1"
         transform="matrix(0.13333333,0,0,-0.13333333,0,133.28)" />
      <path
         id="path27"
         d="M 799.68,997.148 V 848.484"
         style="fill:none;stroke:#231f20;stroke-width:5;stroke-linecap:butt;stroke-linejoin:miter;stroke-miterlimit:10;stroke-dasharray:none;stroke-opacity:1"
         transform="matrix(0.13333333,0,0,-0.13333333,0,133.28)" />
      <path
         id="path28"
         d="M 699.605,997.148 V 848.484"
         style="fill:none;stroke:#231f20;stroke-width:5;stroke-linecap:butt;stroke-linejoin:miter;stroke-miterlimit:10;stroke-dasharray:none;stroke-opacity:1"
         transform="matrix(0.13333333,0,0,-0.13333333,0,133.28)" />
      <path
         id="path29"
         d="M 599.535,997.148 V 848.484"
         style="fill:none;stroke:#231f20;stroke-width:5;stroke-linecap:butt;stroke-linejoin:miter;stroke-miterlimit:10;stroke-dasharray:none;stroke-opacity:1"
         transform="matrix(0.13333333,0,0,-0.13333333,0,133.28)" />
      <path
         id="path30"
         d="M 499.457,997.148 V 848.484"
         style="fill:none;stroke:#231f20;stroke-width:5;stroke-linecap:butt;stroke-linejoin:miter;stroke-miterlimit:10;stroke-dasharray:none;stroke-opacity:1"
         transform="matrix(0.13333333,0,0,-0.13333333,0,133.28)" />
      <path
         id="path31"
         d="M 399.391,997.148 V 848.484"
         style="fill:none;stroke:#231f20;stroke-width:5;stroke-linecap:butt;stroke-linejoin:miter;stroke-miterlimit:10;stroke-dasharray:none;stroke-opacity:1"
         transform="matrix(0.13333333,0,0,-0.13333333,0,133.28)" />
      <path
         id="path32"
         d="M 299.32,997.148 V 848.484"
         style="fill:none;stroke:#231f20;stroke-width:5;stroke-linecap:butt;stroke-linejoin:miter;stroke-miterlimit:10;stroke-dasharray:none;stroke-opacity:1"
         transform="matrix(0.13333333,0,0,-0.13333333,0,133.28)" />
      <path
         id="path33"
         d="M 199.242,997.148 V 848.484"
         style="fill:none;stroke:#231f20;stroke-width:5;stroke-linecap:butt;stroke-linejoin:miter;stroke-miterlimit:10;stroke-dasharray:none;stroke-opacity:1"
         transform="matrix(0.13333333,0,0,-0.13333333,0,133.28)" />
      <path
         id="path34"
         d="M 99.1797,997.148 V 848.484"
         style="fill:none;stroke:#231f20;stroke-width:5;stroke-linecap:butt;stroke-linejoin:miter;stroke-miterlimit:10;stroke-dasharray:none;stroke-opacity:1"
         transform="matrix(0.13333333,0,0,-0.13333333,0,133.28)" />
      <path
         id="path35"
         d="M 3202.5,635.254 H 2.5 v 150.918 h 3200 z"
         style="fill:none;stroke:#231f20;stroke-width:5;stroke-linecap:butt;stroke-linejoin:miter;stroke-miterlimit:10;stroke-dasharray:none;stroke-opacity:1"
         transform="matrix(0.13333333,0,0,-0.13333333,0,133.28)" />
      <path
         id="path36"
         d="M 3101.32,786.199 V 637.539"
         style="fill:none;stroke:#231f20;stroke-width:5;stroke-linecap:butt;stroke-linejoin:miter;stroke-miterlimit:10;stroke-dasharray:none;stroke-opacity:1"
         transform="matrix(0.13333333,0,0,-0.13333333,0,133.28)" />
      <path
         id="path37"
         d="M 3001.25,786.199 V 637.539"
         style="fill:none;stroke:#231f20;stroke-width:5;stroke-linecap:butt;stroke-linejoin:miter;stroke-miterlimit:10;stroke-dasharray:none;stroke-opacity:1"
         transform="matrix(0.13333333,0,0,-0.13333333,0,133.28)" />
      <path
         id="path38"
         d="M 2901.16,786.199 V 637.539"
         style="fill:none;stroke:#231f20;stroke-width:5;stroke-linecap:butt;stroke-linejoin:miter;stroke-miterlimit:10;stroke-dasharray:none;stroke-opacity:1"
         transform="matrix(0.13333333,0,0,-0.13333333,0,133.28)" />
      <path
         id="path39"
         d="M 2801.1,786.199 V 637.539"
         style="fill:none;stroke:#231f20;stroke-width:5;stroke-linecap:butt;stroke-linejoin:miter;stroke-miterlimit:10;stroke-dasharray:none;stroke-opacity:1"
         transform="matrix(0.13333333,0,0,-0.13333333,0,133.28)" />
      <path
         id="path40"
         d="M 2701.04,786.199 V 637.539"
         style="fill:none;stroke:#231f20;stroke-width:5;stroke-linecap:butt;stroke-linejoin:miter;stroke-miterlimit:10;stroke-dasharray:none;stroke-opacity:1"
         transform="matrix(0.13333333,0,0,-0.13333333,0,133.28)" />
      <path
         id="path41"
         d="M 2600.96,786.199 V 637.539"
         style="fill:none;stroke:#231f20;stroke-width:5;stroke-linecap:butt;stroke-linejoin:miter;stroke-miterlimit:10;stroke-dasharray:none;stroke-opacity:1"
         transform="matrix(0.13333333,0,0,-0.13333333,0,133.28)" />
      <path
         id="path42"
         d="M 2500.9,786.199 V 637.539"
         style="fill:none;stroke:#231f20;stroke-width:5;stroke-linecap:butt;stroke-linejoin:miter;stroke-miterlimit:10;stroke-dasharray:none;stroke-opacity:1"
         transform="matrix(0.13333333,0,0,-0.13333333,0,133.28)" />
      <path
         id="path43"
         d="M 2400.83,786.199 V 637.539"
         style="fill:none;stroke:#231f20;stroke-width:5;stroke-linecap:butt;stroke-linejoin:miter;stroke-miterlimit:10;stroke-dasharray:none;stroke-opacity:1"
         transform="matrix(0.13333333,0,0,-0.13333333,0,133.28)" />
      <path
         id="path44"
         d="M 2300.74,786.199 V 637.539"
         style="fill:none;stroke:#231f20;stroke-width:5;stroke-linecap:butt;stroke-linejoin:miter;stroke-miterlimit:10;stroke-dasharray:none;stroke-opacity:1"
         transform="matrix(0.13333333,0,0,-0.13333333,0,133.28)" />
      <path
         id="path45"
         d="M 2200.67,786.199 V 637.539"
         style="fill:none;stroke:#231f20;stroke-width:5;stroke-linecap:butt;stroke-linejoin:miter;stroke-miterlimit:10;stroke-dasharray:none;stroke-opacity:1"
         transform="matrix(0.13333333,0,0,-0.13333333,0,133.28)" />
      <path
         id="path46"
         d="M 2100.61,786.199 V 637.539"
         style="fill:none;stroke:#231f20;stroke-width:5;stroke-linecap:butt;stroke-linejoin:miter;stroke-miterlimit:10;stroke-dasharray:none;stroke-opacity:1"
         transform="matrix(0.13333333,0,0,-0.13333333,0,133.28)" />
      <path
         id="path47"
         d="M 2000.54,786.199 V 637.539"
         style="fill:none;stroke:#231f20;stroke-width:5;stroke-linecap:butt;stroke-linejoin:miter;stroke-miterlimit:10;stroke-dasharray:none;stroke-opacity:1"
         transform="matrix(0.13333333,0,0,-0.13333333,0,133.28)" />
      <path
         id="path48"
         d="M 1900.46,786.199 V 637.539"
         style="fill:none;stroke:#231f20;stroke-width:5;stroke-linecap:butt;stroke-linejoin:miter;stroke-miterlimit:10;stroke-dasharray:none;stroke-opacity:1"
         transform="matrix(0.13333333,0,0,-0.13333333,0,133.28)" />
      <path
         id="path49"
         d="M 1800.39,786.199 V 637.539"
         style="fill:none;stroke:#231f20;stroke-width:5;stroke-linecap:butt;stroke-linejoin:miter;stroke-miterlimit:10;stroke-dasharray:none;stroke-opacity:1"
         transform="matrix(0.13333333,0,0,-0.13333333,0,133.28)" />
      <path
         id="path50"
         d="M 1700.33,786.199 V 637.539"
         style="fill:none;stroke:#231f20;stroke-width:5;stroke-linecap:butt;stroke-linejoin:miter;stroke-miterlimit:10;stroke-dasharray:none;stroke-opacity:1"
         transform="matrix(0.13333333,0,0,-0.13333333,0,133.28)" />
      <path
         id="path51"
         d="M 1600.25,786.199 V 637.539"
         style="fill:none;stroke:#231f20;stroke-width:5;stroke-linecap:butt;stroke-linejoin:miter;stroke-miterlimit:10;stroke-dasharray:none;stroke-opacity:1"
         transform="matrix(0.13333333,0,0,-0.13333333,0,133.28)" />
      <path
         id="path52"
         d="M 1500.17,786.199 V 637.539"
         style="fill:none;stroke:#231f20;stroke-width:5;stroke-linecap:butt;stroke-linejoin:miter;stroke-miterlimit:10;stroke-dasharray:none;stroke-opacity:1"
         transform="matrix(0.13333333,0,0,-0.13333333,0,133.28)" />
      <path
         id="path53"
         d="M 1400.1,786.199 V 637.539"
         style="fill:none;stroke:#231f20;stroke-width:5;stroke-linecap:butt;stroke-linejoin:miter;stroke-miterlimit:10;stroke-dasharray:none;stroke-opacity:1"
         transform="matrix(0.13333333,0,0,-0.13333333,0,133.28)" />
      <path
         id="path54"
         d="M 1300.04,786.199 V 637.539"
         style="fill:none;stroke:#231f20;stroke-width:5;stroke-linecap:butt;stroke-linejoin:miter;stroke-miterlimit:10;stroke-dasharray:none;stroke-opacity:1"
         transform="matrix(0.13333333,0,0,-0.13333333,0,133.28)" />
      <path
         id="path55"
         d="M 1199.96,786.199 V 637.539"
         style="fill:none;stroke:#231f20;stroke-width:5;stroke-linecap:butt;stroke-linejoin:miter;stroke-miterlimit:10;stroke-dasharray:none;stroke-opacity:1"
         transform="matrix(0.13333333,0,0,-0.13333333,0,133.28)" />
      <path
         id="path56"
         d="M 1099.89,786.199 V 637.539"
         style="fill:none;stroke:#231f20;stroke-width:5;stroke-linecap:butt;stroke-linejoin:miter;stroke-miterlimit:10;stroke-dasharray:none;stroke-opacity:1"
         transform="matrix(0.13333333,0,0,-0.13333333,0,133.28)" />
      <path
         id="path57"
         d="M 999.824,786.199 V 637.539"
         style="fill:none;stroke:#231f20;stroke-width:5;stroke-linecap:butt;stroke-linejoin:miter;stroke-miterlimit:10;stroke-dasharray:none;stroke-opacity:1"
         transform="matrix(0.13333333,0,0,-0.13333333,0,133.28)" />
      <path
         id="path58"
         d="M 899.75,786.199 V 637.539"
         style="fill:none;stroke:#231f20;stroke-width:5;stroke-linecap:butt;stroke-linejoin:miter;stroke-miterlimit:10;stroke-dasharray:none;stroke-opacity:1"
         transform="matrix(0.13333333,0,0,-0.13333333,0,133.28)" />
      <path
         id="path59"
         d="M 799.68,786.199 V 637.539"
         style="fill:none;stroke:#231f20;stroke-width:5;stroke-linecap:butt;stroke-linejoin:miter;stroke-miterlimit:10;stroke-dasharray:none;stroke-opacity:1"
         transform="matrix(0.13333333,0,0,-0.13333333,0,133.28)" />
      <path
         id="path60"
         d="M 699.605,786.199 V 637.539"
         style="fill:none;stroke:#231f20;stroke-width:5;stroke-linecap:butt;stroke-linejoin:miter;stroke-miterlimit:10;stroke-dasharray:none;stroke-opacity:1"
         transform="matrix(0.13333333,0,0,-0.13333333,0,133.28)" />
      <path
         id="path61"
         d="M 599.535,786.199 V 637.539"
         style="fill:none;stroke:#231f20;stroke-width:5;stroke-linecap:butt;stroke-linejoin:miter;stroke-miterlimit:10;stroke-dasharray:none;stroke-opacity:1"
         transform="matrix(0.13333333,0,0,-0.13333333,0,133.28)" />
      <path
         id="path62"
         d="M 499.457,786.199 V 637.539"
         style="fill:none;stroke:#231f20;stroke-width:5;stroke-linecap:butt;stroke-linejoin:miter;stroke-miterlimit:10;stroke-dasharray:none;stroke-opacity:1"
         transform="matrix(0.13333333,0,0,-0.13333333,0,133.28)" />
      <path
         id="path63"
         d="M 399.391,786.199 V 637.539"
         style="fill:none;stroke:#231f20;stroke-width:5;stroke-linecap:butt;stroke-linejoin:miter;stroke-miterlimit:10;stroke-dasharray:none;stroke-opacity:1"
         transform="matrix(0.13333333,0,0,-0.13333333,0,133.28)" />
      <path
         id="path64"
         d="M 299.32,786.199 V 637.539"
         style="fill:none;stroke:#231f20;stroke-width:5;stroke-linecap:butt;stroke-linejoin:miter;stroke-miterlimit:10;stroke-dasharray:none;stroke-opacity:1"
         transform="matrix(0.13333333,0,0,-0.13333333,0,133.28)" />
      <path
         id="path65"
         d="M 199.242,786.199 V 637.539"
         style="fill:none;stroke:#231f20;stroke-width:5;stroke-linecap:butt;stroke-linejoin:miter;stroke-miterlimit:10;stroke-dasharray:none;stroke-opacity:1"
         transform="matrix(0.13333333,0,0,-0.13333333,0,133.28)" />
      <path
         id="path66"
         d="M 99.1797,786.199 V 637.539"
         style="fill:none;stroke:#231f20;stroke-width:5;stroke-linecap:butt;stroke-linejoin:miter;stroke-miterlimit:10;stroke-dasharray:none;stroke-opacity:1"
         transform="matrix(0.13333333,0,0,-0.13333333,0,133.28)" />
      <path
         id="path67"
         d="M 3202.5,424.336 H 2.5 v 150.918 h 3200 z"
         style="fill:none;stroke:#231f20;stroke-width:5;stroke-linecap:butt;stroke-linejoin:miter;stroke-miterlimit:10;stroke-dasharray:none;stroke-opacity:1"
         transform="matrix(0.13333333,0,0,-0.13333333,0,133.28)" />
      <path
         id="path68"
         d="M 3101.32,575.281 V 426.621"
         style="fill:none;stroke:#231f20;stroke-width:5;stroke-linecap:butt;stroke-linejoin:miter;stroke-miterlimit:10;stroke-dasharray:none;stroke-opacity:1"
         transform="matrix(0.13333333,0,0,-0.13333333,0,133.28)" />
      <path
         id="path69"
         d="M 3001.25,575.281 V 426.621"
         style="fill:none;stroke:#231f20;stroke-width:5;stroke-linecap:butt;stroke-linejoin:miter;stroke-miterlimit:10;stroke-dasharray:none;stroke-opacity:1"
         transform="matrix(0.13333333,0,0,-0.13333333,0,133.28)" />
      <path
         id="path70"
         d="M 2901.16,575.281 V 426.621"
         style="fill:none;stroke:#231f20;stroke-width:5;stroke-linecap:butt;stroke-linejoin:miter;stroke-miterlimit:10;stroke-dasharray:none;stroke-opacity:1"
         transform="matrix(0.13333333,0,0,-0.13333333,0,133.28)" />
      <path
         id="path71"
         d="M 2801.1,575.281 V 426.621"
         style="fill:none;stroke:#231f20;stroke-width:5;stroke-linecap:butt;stroke-linejoin:miter;stroke-miterlimit:10;stroke-dasharray:none;stroke-opacity:1"
         transform="matrix(0.13333333,0,0,-0.13333333,0,133.28)" />
      <path
         id="path72"
         d="M 2701.04,575.281 V 426.621"
         style="fill:none;stroke:#231f20;stroke-width:5;stroke-linecap:butt;stroke-linejoin:miter;stroke-miterlimit:10;stroke-dasharray:none;stroke-opacity:1"
         transform="matrix(0.13333333,0,0,-0.13333333,0,133.28)" />
      <path
         id="path73"
         d="M 2600.96,575.281 V 426.621"
         style="fill:none;stroke:#231f20;stroke-width:5;stroke-linecap:butt;stroke-linejoin:miter;stroke-miterlimit:10;stroke-dasharray:none;stroke-opacity:1"
         transform="matrix(0.13333333,0,0,-0.13333333,0,133.28)" />
      <path
         id="path74"
         d="M 2500.9,575.281 V 426.621"
         style="fill:none;stroke:#231f20;stroke-width:5;stroke-linecap:butt;stroke-linejoin:miter;stroke-miterlimit:10;stroke-dasharray:none;stroke-opacity:1"
         transform="matrix(0.13333333,0,0,-0.13333333,0,133.28)" />
      <path
         id="path75"
         d="M 2400.83,575.281 V 426.621"
         style="fill:none;stroke:#231f20;stroke-width:5;stroke-linecap:butt;stroke-linejoin:miter;stroke-miterlimit:10;stroke-dasharray:none;stroke-opacity:1"
         transform="matrix(0.13333333,0,0,-0.13333333,0,133.28)" />
      <path
         id="path76"
         d="M 2300.74,575.281 V 426.621"
         style="fill:none;stroke:#231f20;stroke-width:5;stroke-linecap:butt;stroke-linejoin:miter;stroke-miterlimit:10;stroke-dasharray:none;stroke-opacity:1"
         transform="matrix(0.13333333,0,0,-0.13333333,0,133.28)" />
      <path
         id="path77"
         d="M 2200.67,575.281 V 426.621"
         style="fill:none;stroke:#231f20;stroke-width:5;stroke-linecap:butt;stroke-linejoin:miter;stroke-miterlimit:10;stroke-dasharray:none;stroke-opacity:1"
         transform="matrix(0.13333333,0,0,-0.13333333,0,133.28)" />
      <path
         id="path78"
         d="M 2100.61,575.281 V 426.621"
         style="fill:none;stroke:#231f20;stroke-width:5;stroke-linecap:butt;stroke-linejoin:miter;stroke-miterlimit:10;stroke-dasharray:none;stroke-opacity:1"
         transform="matrix(0.13333333,0,0,-0.13333333,0,133.28)" />
      <path
         id="path79"
         d="M 2000.54,575.281 V 426.621"
         style="fill:none;stroke:#231f20;stroke-width:5;stroke-linecap:butt;stroke-linejoin:miter;stroke-miterlimit:10;stroke-dasharray:none;stroke-opacity:1"
         transform="matrix(0.13333333,0,0,-0.13333333,0,133.28)" />
      <path
         id="path80"
         d="M 1900.46,575.281 V 426.621"
         style="fill:none;stroke:#231f20;stroke-width:5;stroke-linecap:butt;stroke-linejoin:miter;stroke-miterlimit:10;stroke-dasharray:none;stroke-opacity:1"
         transform="matrix(0.13333333,0,0,-0.13333333,0,133.28)" />
      <path
         id="path81"
         d="M 1800.39,575.281 V 426.621"
         style="fill:none;stroke:#231f20;stroke-width:5;stroke-linecap:butt;stroke-linejoin:miter;stroke-miterlimit:10;stroke-dasharray:none;stroke-opacity:1"
         transform="matrix(0.13333333,0,0,-0.13333333,0,133.28)" />
      <path
         id="path82"
         d="M 1700.33,575.281 V 426.621"
         style="fill:none;stroke:#231f20;stroke-width:5;stroke-linecap:butt;stroke-linejoin:miter;stroke-miterlimit:10;stroke-dasharray:none;stroke-opacity:1"
         transform="matrix(0.13333333,0,0,-0.13333333,0,133.28)" />
      <path
         id="path83"
         d="M 1600.25,575.281 V 426.621"
         style="fill:none;stroke:#231f20;stroke-width:5;stroke-linecap:butt;stroke-linejoin:miter;stroke-miterlimit:10;stroke-dasharray:none;stroke-opacity:1"
         transform="matrix(0.13333333,0,0,-0.13333333,0,133.28)" />
      <path
         id="path84"
         d="M 1500.17,575.281 V 426.621"
         style="fill:none;stroke:#231f20;stroke-width:5;stroke-linecap:butt;stroke-linejoin:miter;stroke-miterlimit:10;stroke-dasharray:none;stroke-opacity:1"
         transform="matrix(0.13333333,0,0,-0.13333333,0,133.28)" />
      <path
         id="path85"
         d="M 1400.1,575.281 V 426.621"
         style="fill:none;stroke:#231f20;stroke-width:5;stroke-linecap:butt;stroke-linejoin:miter;stroke-miterlimit:10;stroke-dasharray:none;stroke-opacity:1"
         transform="matrix(0.13333333,0,0,-0.13333333,0,133.28)" />
      <path
         id="path86"
         d="M 1300.04,575.281 V 426.621"
         style="fill:none;stroke:#231f20;stroke-width:5;stroke-linecap:butt;stroke-linejoin:miter;stroke-miterlimit:10;stroke-dasharray:none;stroke-opacity:1"
         transform="matrix(0.13333333,0,0,-0.13333333,0,133.28)" />
      <path
         id="path87"
         d="M 1199.96,575.281 V 426.621"
         style="fill:none;stroke:#231f20;stroke-width:5;stroke-linecap:butt;stroke-linejoin:miter;stroke-miterlimit:10;stroke-dasharray:none;stroke-opacity:1"
         transform="matrix(0.13333333,0,0,-0.13333333,0,133.28)" />
      <path
         id="path88"
         d="M 1099.89,575.281 V 426.621"
         style="fill:none;stroke:#231f20;stroke-width:5;stroke-linecap:butt;stroke-linejoin:miter;stroke-miterlimit:10;stroke-dasharray:none;stroke-opacity:1"
         transform="matrix(0.13333333,0,0,-0.13333333,0,133.28)" />
      <path
         id="path89"
         d="M 999.824,575.281 V 426.621"
         style="fill:none;stroke:#231f20;stroke-width:5;stroke-linecap:butt;stroke-linejoin:miter;stroke-miterlimit:10;stroke-dasharray:none;stroke-opacity:1"
         transform="matrix(0.13333333,0,0,-0.13333333,0,133.28)" />
      <path
         id="path90"
         d="M 899.75,575.281 V 426.621"
         style="fill:none;stroke:#231f20;stroke-width:5;stroke-linecap:butt;stroke-linejoin:miter;stroke-miterlimit:10;stroke-dasharray:none;stroke-opacity:1"
         transform="matrix(0.13333333,0,0,-0.13333333,0,133.28)" />
      <path
         id="path91"
         d="M 799.68,575.281 V 426.621"
         style="fill:none;stroke:#231f20;stroke-width:5;stroke-linecap:butt;stroke-linejoin:miter;stroke-miterlimit:10;stroke-dasharray:none;stroke-opacity:1"
         transform="matrix(0.13333333,0,0,-0.13333333,0,133.28)" />
      <path
         id="path92"
         d="M 699.605,575.281 V 426.621"
         style="fill:none;stroke:#231f20;stroke-width:5;stroke-linecap:butt;stroke-linejoin:miter;stroke-miterlimit:10;stroke-dasharray:none;stroke-opacity:1"
         transform="matrix(0.13333333,0,0,-0.13333333,0,133.28)" />
      <path
         id="path93"
         d="M 599.535,575.281 V 426.621"
         style="fill:none;stroke:#231f20;stroke-width:5;stroke-linecap:butt;stroke-linejoin:miter;stroke-miterlimit:10;stroke-dasharray:none;stroke-opacity:1"
         transform="matrix(0.13333333,0,0,-0.13333333,0,133.28)" />
      <path
         id="path94"
         d="M 499.457,575.281 V 426.621"
         style="fill:none;stroke:#231f20;stroke-width:5;stroke-linecap:butt;stroke-linejoin:miter;stroke-miterlimit:10;stroke-dasharray:none;stroke-opacity:1"
         transform="matrix(0.13333333,0,0,-0.13333333,0,133.28)" />
      <path
         id="path95"
         d="M 399.391,575.281 V 426.621"
         style="fill:none;stroke:#231f20;stroke-width:5;stroke-linecap:butt;stroke-linejoin:miter;stroke-miterlimit:10;stroke-dasharray:none;stroke-opacity:1"
         transform="matrix(0.13333333,0,0,-0.13333333,0,133.28)" />
      <path
         id="path96"
         d="M 299.32,575.281 V 426.621"
         style="fill:none;stroke:#231f20;stroke-width:5;stroke-linecap:butt;stroke-linejoin:miter;stroke-miterlimit:10;stroke-dasharray:none;stroke-opacity:1"
         transform="matrix(0.13333333,0,0,-0.13333333,0,133.28)" />
      <path
         id="path97"
         d="M 199.242,575.281 V 426.621"
         style="fill:none;stroke:#231f20;stroke-width:5;stroke-linecap:butt;stroke-linejoin:miter;stroke-miterlimit:10;stroke-dasharray:none;stroke-opacity:1"
         transform="matrix(0.13333333,0,0,-0.13333333,0,133.28)" />
      <path
         id="path98"
         d="M 99.1797,575.281 V 426.621"
         style="fill:none;stroke:#231f20;stroke-width:5;stroke-linecap:butt;stroke-linejoin:miter;stroke-miterlimit:10;stroke-dasharray:none;stroke-opacity:1"
         transform="matrix(0.13333333,0,0,-0.13333333,0,133.28)" />
      <path
         id="path99"
         d="M 3202.5,213.418 H 2.5 v 150.918 h 3200 z"
         style="fill:none;stroke:#231f20;stroke-width:5;stroke-linecap:butt;stroke-linejoin:miter;stroke-miterlimit:10;stroke-dasharray:none;stroke-opacity:1"
         transform="matrix(0.13333333,0,0,-0.13333333,0,133.28)" />
      <path
         id="path100"
         d="M 3101.32,364.363 V 215.703"
         style="fill:none;stroke:#231f20;stroke-width:5;stroke-linecap:butt;stroke-linejoin:miter;stroke-miterlimit:10;stroke-dasharray:none;stroke-opacity:1"
         transform="matrix(0.13333333,0,0,-0.13333333,0,133.28)" />
      <path
         id="path101"
         d="M 3001.25,364.363 V 215.703"
         style="fill:none;stroke:#231f20;stroke-width:5;stroke-linecap:butt;stroke-linejoin:miter;stroke-miterlimit:10;stroke-dasharray:none;stroke-opacity:1"
         transform="matrix(0.13333333,0,0,-0.13333333,0,133.28)" />
      <path
         id="path102"
         d="M 2901.16,364.363 V 215.703"
         style="fill:none;stroke:#231f20;stroke-width:5;stroke-linecap:butt;stroke-linejoin:miter;stroke-miterlimit:10;stroke-dasharray:none;stroke-opacity:1"
         transform="matrix(0.13333333,0,0,-0.13333333,0,133.28)" />
      <path
         id="path103"
         d="M 2801.1,364.363 V 215.703"
         style="fill:none;stroke:#231f20;stroke-width:5;stroke-linecap:butt;stroke-linejoin:miter;stroke-miterlimit:10;stroke-dasharray:none;stroke-opacity:1"
         transform="matrix(0.13333333,0,0,-0.13333333,0,133.28)" />
      <path
         id="path104"
         d="M 2701.04,364.363 V 215.703"
         style="fill:none;stroke:#231f20;stroke-width:5;stroke-linecap:butt;stroke-linejoin:miter;stroke-miterlimit:10;stroke-dasharray:none;stroke-opacity:1"
         transform="matrix(0.13333333,0,0,-0.13333333,0,133.28)" />
      <path
         id="path105"
         d="M 2600.96,364.363 V 215.703"
         style="fill:none;stroke:#231f20;stroke-width:5;stroke-linecap:butt;stroke-linejoin:miter;stroke-miterlimit:10;stroke-dasharray:none;stroke-opacity:1"
         transform="matrix(0.13333333,0,0,-0.13333333,0,133.28)" />
      <path
         id="path106"
         d="M 2500.9,364.363 V 215.703"
         style="fill:none;stroke:#231f20;stroke-width:5;stroke-linecap:butt;stroke-linejoin:miter;stroke-miterlimit:10;stroke-dasharray:none;stroke-opacity:1"
         transform="matrix(0.13333333,0,0,-0.13333333,0,133.28)" />
      <path
         id="path107"
         d="M 2400.83,364.363 V 215.703"
         style="fill:none;stroke:#231f20;stroke-width:5;stroke-linecap:butt;stroke-linejoin:miter;stroke-miterlimit:10;stroke-dasharray:none;stroke-opacity:1"
         transform="matrix(0.13333333,0,0,-0.13333333,0,133.28)" />
      <path
         id="path108"
         d="M 2300.74,364.363 V 215.703"
         style="fill:none;stroke:#231f20;stroke-width:5;stroke-linecap:butt;stroke-linejoin:miter;stroke-miterlimit:10;stroke-dasharray:none;stroke-opacity:1"
         transform="matrix(0.13333333,0,0,-0.13333333,0,133.28)" />
      <path
         id="path109"
         d="M 2200.67,364.363 V 215.703"
         style="fill:none;stroke:#231f20;stroke-width:5;stroke-linecap:butt;stroke-linejoin:miter;stroke-miterlimit:10;stroke-dasharray:none;stroke-opacity:1"
         transform="matrix(0.13333333,0,0,-0.13333333,0,133.28)" />
      <path
         id="path110"
         d="M 2100.61,364.363 V 215.703"
         style="fill:none;stroke:#231f20;stroke-width:5;stroke-linecap:butt;stroke-linejoin:miter;stroke-miterlimit:10;stroke-dasharray:none;stroke-opacity:1"
         transform="matrix(0.13333333,0,0,-0.13333333,0,133.28)" />
      <path
         id="path111"
         d="M 2000.54,364.363 V 215.703"
         style="fill:none;stroke:#231f20;stroke-width:5;stroke-linecap:butt;stroke-linejoin:miter;stroke-miterlimit:10;stroke-dasharray:none;stroke-opacity:1"
         transform="matrix(0.13333333,0,0,-0.13333333,0,133.28)" />
      <path
         id="path112"
         d="M 1900.46,364.363 V 215.703"
         style="fill:none;stroke:#231f20;stroke-width:5;stroke-linecap:butt;stroke-linejoin:miter;stroke-miterlimit:10;stroke-dasharray:none;stroke-opacity:1"
         transform="matrix(0.13333333,0,0,-0.13333333,0,133.28)" />
      <path
         id="path113"
         d="M 1800.39,364.363 V 215.703"
         style="fill:none;stroke:#231f20;stroke-width:5;stroke-linecap:butt;stroke-linejoin:miter;stroke-miterlimit:10;stroke-dasharray:none;stroke-opacity:1"
         transform="matrix(0.13333333,0,0,-0.13333333,0,133.28)" />
      <path
         id="path114"
         d="M 1700.33,364.363 V 215.703"
         style="fill:none;stroke:#231f20;stroke-width:5;stroke-linecap:butt;stroke-linejoin:miter;stroke-miterlimit:10;stroke-dasharray:none;stroke-opacity:1"
         transform="matrix(0.13333333,0,0,-0.13333333,0,133.28)" />
      <path
         id="path115"
         d="M 1600.25,364.363 V 215.703"
         style="fill:none;stroke:#231f20;stroke-width:5;stroke-linecap:butt;stroke-linejoin:miter;stroke-miterlimit:10;stroke-dasharray:none;stroke-opacity:1"
         transform="matrix(0.13333333,0,0,-0.13333333,0,133.28)" />
      <path
         id="path116"
         d="M 1500.17,364.363 V 215.703"
         style="fill:none;stroke:#231f20;stroke-width:5;stroke-linecap:butt;stroke-linejoin:miter;stroke-miterlimit:10;stroke-dasharray:none;stroke-opacity:1"
         transform="matrix(0.13333333,0,0,-0.13333333,0,133.28)" />
      <path
         id="path117"
         d="M 1400.1,364.363 V 215.703"
         style="fill:none;stroke:#231f20;stroke-width:5;stroke-linecap:butt;stroke-linejoin:miter;stroke-miterlimit:10;stroke-dasharray:none;stroke-opacity:1"
         transform="matrix(0.13333333,0,0,-0.13333333,0,133.28)" />
      <path
         id="path118"
         d="M 1300.04,364.363 V 215.703"
         style="fill:none;stroke:#231f20;stroke-width:5;stroke-linecap:butt;stroke-linejoin:miter;stroke-miterlimit:10;stroke-dasharray:none;stroke-opacity:1"
         transform="matrix(0.13333333,0,0,-0.13333333,0,133.28)" />
      <path
         id="path119"
         d="M 1199.96,364.363 V 215.703"
         style="fill:none;stroke:#231f20;stroke-width:5;stroke-linecap:butt;stroke-linejoin:miter;stroke-miterlimit:10;stroke-dasharray:none;stroke-opacity:1"
         transform="matrix(0.13333333,0,0,-0.13333333,0,133.28)" />
      <path
         id="path120"
         d="M 1099.89,364.363 V 215.703"
         style="fill:none;stroke:#231f20;stroke-width:5;stroke-linecap:butt;stroke-linejoin:miter;stroke-miterlimit:10;stroke-dasharray:none;stroke-opacity:1"
         transform="matrix(0.13333333,0,0,-0.13333333,0,133.28)" />
      <path
         id="path121"
         d="M 999.824,364.363 V 215.703"
         style="fill:none;stroke:#231f20;stroke-width:5;stroke-linecap:butt;stroke-linejoin:miter;stroke-miterlimit:10;stroke-dasharray:none;stroke-opacity:1"
         transform="matrix(0.13333333,0,0,-0.13333333,0,133.28)" />
      <path
         id="path122"
         d="M 899.75,364.363 V 215.703"
         style="fill:none;stroke:#231f20;stroke-width:5;stroke-linecap:butt;stroke-linejoin:miter;stroke-miterlimit:10;stroke-dasharray:none;stroke-opacity:1"
         transform="matrix(0.13333333,0,0,-0.13333333,0,133.28)" />
      <path
         id="path123"
         d="M 799.68,364.363 V 215.703"
         style="fill:none;stroke:#231f20;stroke-width:5;stroke-linecap:butt;stroke-linejoin:miter;stroke-miterlimit:10;stroke-dasharray:none;stroke-opacity:1"
         transform="matrix(0.13333333,0,0,-0.13333333,0,133.28)" />
      <path
         id="path124"
         d="M 699.605,364.363 V 215.703"
         style="fill:none;stroke:#231f20;stroke-width:5;stroke-linecap:butt;stroke-linejoin:miter;stroke-miterlimit:10;stroke-dasharray:none;stroke-opacity:1"
         transform="matrix(0.13333333,0,0,-0.13333333,0,133.28)" />
      <path
         id="path125"
         d="M 599.535,364.363 V 215.703"
         style="fill:none;stroke:#231f20;stroke-width:5;stroke-linecap:butt;stroke-linejoin:miter;stroke-miterlimit:10;stroke-dasharray:none;stroke-opacity:1"
         transform="matrix(0.13333333,0,0,-0.13333333,0,133.28)" />
      <path
         id="path126"
         d="M 499.457,364.363 V 215.703"
         style="fill:none;stroke:#231f20;stroke-width:5;stroke-linecap:butt;stroke-linejoin:miter;stroke-miterlimit:10;stroke-dasharray:none;stroke-opacity:1"
         transform="matrix(0.13333333,0,0,-0.13333333,0,133.28)" />
      <path
         id="path127"
         d="M 399.391,364.363 V 215.703"
         style="fill:none;stroke:#231f20;stroke-width:5;stroke-linecap:butt;stroke-linejoin:miter;stroke-miterlimit:10;stroke-dasharray:none;stroke-opacity:1"
         transform="matrix(0.13333333,0,0,-0.13333333,0,133.28)" />
      <path
         id="path128"
         d="M 299.32,364.363 V 215.703"
         style="fill:none;stroke:#231f20;stroke-width:5;stroke-linecap:butt;stroke-linejoin:miter;stroke-miterlimit:10;stroke-dasharray:none;stroke-opacity:1"
         transform="matrix(0.13333333,0,0,-0.13333333,0,133.28)" />
      <path
         id="path129"
         d="M 199.242,364.363 V 215.703"
         style="fill:none;stroke:#231f20;stroke-width:5;stroke-linecap:butt;stroke-linejoin:miter;stroke-miterlimit:10;stroke-dasharray:none;stroke-opacity:1"
         transform="matrix(0.13333333,0,0,-0.13333333,0,133.28)" />
      <path
         id="path130"
         d="M 99.1797,364.363 V 215.703"
         style="fill:none;stroke:#231f20;stroke-width:5;stroke-linecap:butt;stroke-linejoin:miter;stroke-miterlimit:10;stroke-dasharray:none;stroke-opacity:1"
         transform="matrix(0.13333333,0,0,-0.13333333,0,133.28)" />
      <path
         id="path131"
         d="M 3202.5,2.5 H 2.5 v 150.918 h 3200 z"
         style="fill:none;stroke:#231f20;stroke-width:5;stroke-linecap:butt;stroke-linejoin:miter;stroke-miterlimit:10;stroke-dasharray:none;stroke-opacity:1"
         transform="matrix(0.13333333,0,0,-0.13333333,0,133.28)" />
      <path
         id="path132"
         d="M 3101.32,153.445 V 4.78516"
         style="fill:none;stroke:#231f20;stroke-width:5;stroke-linecap:butt;stroke-linejoin:miter;stroke-miterlimit:10;stroke-dasharray:none;stroke-opacity:1"
         transform="matrix(0.13333333,0,0,-0.13333333,0,133.28)" />
      <path
         id="path133"
         d="M 3001.25,153.445 V 4.78516"
         style="fill:none;stroke:#231f20;stroke-width:5;stroke-linecap:butt;stroke-linejoin:miter;stroke-miterlimit:10;stroke-dasharray:none;stroke-opacity:1"
         transform="matrix(0.13333333,0,0,-0.13333333,0,133.28)" />
      <path
         id="path134"
         d="M 2901.16,153.445 V 4.78516"
         style="fill:none;stroke:#231f20;stroke-width:5;stroke-linecap:butt;stroke-linejoin:miter;stroke-miterlimit:10;stroke-dasharray:none;stroke-opacity:1"
         transform="matrix(0.13333333,0,0,-0.13333333,0,133.28)" />
      <path
         id="path135"
         d="M 2801.1,153.445 V 4.78516"
         style="fill:none;stroke:#231f20;stroke-width:5;stroke-linecap:butt;stroke-linejoin:miter;stroke-miterlimit:10;stroke-dasharray:none;stroke-opacity:1"
         transform="matrix(0.13333333,0,0,-0.13333333,0,133.28)" />
      <path
         id="path136"
         d="M 2701.04,153.445 V 4.78516"
         style="fill:none;stroke:#231f20;stroke-width:5;stroke-linecap:butt;stroke-linejoin:miter;stroke-miterlimit:10;stroke-dasharray:none;stroke-opacity:1"
         transform="matrix(0.13333333,0,0,-0.13333333,0,133.28)" />
      <path
         id="path137"
         d="M 2600.96,153.445 V 4.78516"
         style="fill:none;stroke:#231f20;stroke-width:5;stroke-linecap:butt;stroke-linejoin:miter;stroke-miterlimit:10;stroke-dasharray:none;stroke-opacity:1"
         transform="matrix(0.13333333,0,0,-0.13333333,0,133.28)" />
      <path
         id="path138"
         d="M 2500.9,153.445 V 4.78516"
         style="fill:none;stroke:#231f20;stroke-width:5;stroke-linecap:butt;stroke-linejoin:miter;stroke-miterlimit:10;stroke-dasharray:none;stroke-opacity:1"
         transform="matrix(0.13333333,0,0,-0.13333333,0,133.28)" />
      <path
         id="path139"
         d="M 2400.83,153.445 V 4.78516"
         style="fill:none;stroke:#231f20;stroke-width:5;stroke-linecap:butt;stroke-linejoin:miter;stroke-miterlimit:10;stroke-dasharray:none;stroke-opacity:1"
         transform="matrix(0.13333333,0,0,-0.13333333,0,133.28)" />
      <path
         id="path140"
         d="M 2300.74,153.445 V 4.78516"
         style="fill:none;stroke:#231f20;stroke-width:5;stroke-linecap:butt;stroke-linejoin:miter;stroke-miterlimit:10;stroke-dasharray:none;stroke-opacity:1"
         transform="matrix(0.13333333,0,0,-0.13333333,0,133.28)" />
      <path
         id="path141"
         d="M 2200.67,153.445 V 4.78516"
         style="fill:none;stroke:#231f20;stroke-width:5;stroke-linecap:butt;stroke-linejoin:miter;stroke-miterlimit:10;stroke-dasharray:none;stroke-opacity:1"
         transform="matrix(0.13333333,0,0,-0.13333333,0,133.28)" />
      <path
         id="path142"
         d="M 2100.61,153.445 V 4.78516"
         style="fill:none;stroke:#231f20;stroke-width:5;stroke-linecap:butt;stroke-linejoin:miter;stroke-miterlimit:10;stroke-dasharray:none;stroke-opacity:1"
         transform="matrix(0.13333333,0,0,-0.13333333,0,133.28)" />
      <path
         id="path143"
         d="M 2000.54,153.445 V 4.78516"
         style="fill:none;stroke:#231f20;stroke-width:5;stroke-linecap:butt;stroke-linejoin:miter;stroke-miterlimit:10;stroke-dasharray:none;stroke-opacity:1"
         transform="matrix(0.13333333,0,0,-0.13333333,0,133.28)" />
      <path
         id="path144"
         d="M 1900.46,153.445 V 4.78516"
         style="fill:none;stroke:#231f20;stroke-width:5;stroke-linecap:butt;stroke-linejoin:miter;stroke-miterlimit:10;stroke-dasharray:none;stroke-opacity:1"
         transform="matrix(0.13333333,0,0,-0.13333333,0,133.28)" />
      <path
         id="path145"
         d="M 1800.39,153.445 V 4.78516"
         style="fill:none;stroke:#231f20;stroke-width:5;stroke-linecap:butt;stroke-linejoin:miter;stroke-miterlimit:10;stroke-dasharray:none;stroke-opacity:1"
         transform="matrix(0.13333333,0,0,-0.13333333,0,133.28)" />
      <path
         id="path146"
         d="M 1700.33,153.445 V 4.78516"
         style="fill:none;stroke:#231f20;stroke-width:5;stroke-linecap:butt;stroke-linejoin:miter;stroke-miterlimit:10;stroke-dasharray:none;stroke-opacity:1"
         transform="matrix(0.13333333,0,0,-0.13333333,0,133.28)" />
      <path
         id="path147"
         d="M 1600.25,153.445 V 4.78516"
         style="fill:none;stroke:#231f20;stroke-width:5;stroke-linecap:butt;stroke-linejoin:miter;stroke-miterlimit:10;stroke-dasharray:none;stroke-opacity:1"
         transform="matrix(0.13333333,0,0,-0.13333333,0,133.28)" />
      <path
         id="path148"
         d="M 1500.17,153.445 V 4.78516"
         style="fill:none;stroke:#231f20;stroke-width:5;stroke-linecap:butt;stroke-linejoin:miter;stroke-miterlimit:10;stroke-dasharray:none;stroke-opacity:1"
         transform="matrix(0.13333333,0,0,-0.13333333,0,133.28)" />
      <path
         id="path149"
         d="M 1400.1,153.445 V 4.78516"
         style="fill:none;stroke:#231f20;stroke-width:5;stroke-linecap:butt;stroke-linejoin:miter;stroke-miterlimit:10;stroke-dasharray:none;stroke-opacity:1"
         transform="matrix(0.13333333,0,0,-0.13333333,0,133.28)" />
      <path
         id="path150"
         d="M 1300.04,153.445 V 4.78516"
         style="fill:none;stroke:#231f20;stroke-width:5;stroke-linecap:butt;stroke-linejoin:miter;stroke-miterlimit:10;stroke-dasharray:none;stroke-opacity:1"
         transform="matrix(0.13333333,0,0,-0.13333333,0,133.28)" />
      <path
         id="path151"
         d="M 1199.96,153.445 V 4.78516"
         style="fill:none;stroke:#231f20;stroke-width:5;stroke-linecap:butt;stroke-linejoin:miter;stroke-miterlimit:10;stroke-dasharray:none;stroke-opacity:1"
         transform="matrix(0.13333333,0,0,-0.13333333,0,133.28)" />
      <path
         id="path152"
         d="M 1099.89,153.445 V 4.78516"
         style="fill:none;stroke:#231f20;stroke-width:5;stroke-linecap:butt;stroke-linejoin:miter;stroke-miterlimit:10;stroke-dasharray:none;stroke-opacity:1"
         transform="matrix(0.13333333,0,0,-0.13333333,0,133.28)" />
      <path
         id="path153"
         d="M 999.824,153.445 V 4.78516"
         style="fill:none;stroke:#231f20;stroke-width:5;stroke-linecap:butt;stroke-linejoin:miter;stroke-miterlimit:10;stroke-dasharray:none;stroke-opacity:1"
         transform="matrix(0.13333333,0,0,-0.13333333,0,133.28)" />
      <path
         id="path154"
         d="M 899.75,153.445 V 4.78516"
         style="fill:none;stroke:#231f20;stroke-width:5;stroke-linecap:butt;stroke-linejoin:miter;stroke-miterlimit:10;stroke-dasharray:none;stroke-opacity:1"
         transform="matrix(0.13333333,0,0,-0.13333333,0,133.28)" />
      <path
         id="path155"
         d="M 799.68,153.445 V 4.78516"
         style="fill:none;stroke:#231f20;stroke-width:5;stroke-linecap:butt;stroke-linejoin:miter;stroke-miterlimit:10;stroke-dasharray:none;stroke-opacity:1"
         transform="matrix(0.13333333,0,0,-0.13333333,0,133.28)" />
      <path
         id="path156"
         d="M 699.605,153.445 V 4.78516"
         style="fill:none;stroke:#231f20;stroke-width:5;stroke-linecap:butt;stroke-linejoin:miter;stroke-miterlimit:10;stroke-dasharray:none;stroke-opacity:1"
         transform="matrix(0.13333333,0,0,-0.13333333,0,133.28)" />
      <path
         id="path157"
         d="M 599.535,153.445 V 4.78516"
         style="fill:none;stroke:#231f20;stroke-width:5;stroke-linecap:butt;stroke-linejoin:miter;stroke-miterlimit:10;stroke-dasharray:none;stroke-opacity:1"
         transform="matrix(0.13333333,0,0,-0.13333333,0,133.28)" />
      <path
         id="path158"
         d="M 499.457,153.445 V 4.78516"
         style="fill:none;stroke:#231f20;stroke-width:5;stroke-linecap:butt;stroke-linejoin:miter;stroke-miterlimit:10;stroke-dasharray:none;stroke-opacity:1"
         transform="matrix(0.13333333,0,0,-0.13333333,0,133.28)" />
      <path
         id="path159"
         d="M 399.391,153.445 V 4.78516"
         style="fill:none;stroke:#231f20;stroke-width:5;stroke-linecap:butt;stroke-linejoin:miter;stroke-miterlimit:10;stroke-dasharray:none;stroke-opacity:1"
         transform="matrix(0.13333333,0,0,-0.13333333,0,133.28)" />
      <path
         id="path160"
         d="M 299.32,153.445 V 4.78516"
         style="fill:none;stroke:#231f20;stroke-width:5;stroke-linecap:butt;stroke-linejoin:miter;stroke-miterlimit:10;stroke-dasharray:none;stroke-opacity:1"
         transform="matrix(0.13333333,0,0,-0.13333333,0,133.28)" />
      <path
         id="path161"
         d="M 199.242,153.445 V 4.78516"
         style="fill:none;stroke:#231f20;stroke-width:5;stroke-linecap:butt;stroke-linejoin:miter;stroke-miterlimit:10;stroke-dasharray:none;stroke-opacity:1"
         transform="matrix(0.13333333,0,0,-0.13333333,0,133.28)" />
      <path
         id="path162"
         d="M 99.1797,153.445 V 4.78516"
         style="fill:none;stroke:#231f20;stroke-width:5;stroke-linecap:butt;stroke-linejoin:miter;stroke-miterlimit:10;stroke-dasharray:none;stroke-opacity:1"
         transform="matrix(0.13333333,0,0,-0.13333333,0,133.28)" />
      <path
         id="path163"
         d="m 2.1560938,-5.7201125 c -1.3476563,0 -1.8398438,1.6054687 -1.8398438,2.9179687 0,1.4179688 0.48046875,2.90625005 1.8398438,2.90625005 1.359375,0 1.828125,-1.59375005 1.828125,-2.91796875 0,-1.3828125 -0.46875,-2.90625 -1.828125,-2.90625 z m 0,0.3046875 c 0.8085937,0 1.03125,1.3242187 1.03125,2.6015625 0,1.265625 -0.2226563,2.61328125 -1.03125,2.61328125 -0.7734375,0 -1.0429688,-1.35937505 -1.0429688,-2.61328125 0,-1.2539063 0.2226563,-2.6015625 1.0429688,-2.6015625 z M -6.5392187,0.00156719 V -0.24452656 C -7.3595312,-0.30312031 -7.418125,-0.37343281 -7.418125,-1.0296828 v -4.6875 c -0.4921875,0.1992187 -1.0195312,0.375 -1.59375,0.46875 v 0.2109375 l 0.4335938,0.011719 c 0.3867187,0.023437 0.421875,0.070312 0.421875,0.5390625 v 3.4570313 c 0,0.65624999 -0.035156,0.72656249 -0.8554688,0.78515624 V 0.00156719 Z M -16.292148,-1.2640578 c -0.269532,0.57421874 -0.386719,0.60937499 -0.867188,0.60937499 h -1.6875 l 1.277344,-1.33593749 c 0.832031,-0.890625 1.195312,-1.4179688 1.195312,-2.203125 0,-0.9492188 -0.726562,-1.5234375 -1.511718,-1.5234375 -0.527344,0 -0.949219,0.234375 -1.21875,0.5390625 l -0.515625,0.7265625 0.199218,0.1757812 c 0.234375,-0.3515625 0.609375,-0.8320312 1.230469,-0.8320312 0.65625,0 1.054688,0.4335937 1.054688,1.1953125 0,0.7734375 -0.5625,1.5117187 -1.125,2.1796875 -0.445313,0.515625 -0.949219,1.03124999 -1.453125,1.52343749 v 0.2109375 h 3.363281 c 0.105469,-0.41015625 0.199219,-0.796875 0.316406,-1.18359379 z m -12.9375,-3.1992188 c 0.222656,-0.328125 0.585937,-0.7148437 1.078125,-0.7148437 0.480468,0 0.855468,0.2929687 0.855468,0.8554687 0,0.65625 -0.609375,1.0078125 -1.429687,1.2773438 l 0.05859,0.2578125 c 0.140625,-0.046875 0.363281,-0.1054688 0.574218,-0.1054688 0.515625,0 1.148438,0.3398438 1.148438,1.171875 0,0.89062504 -0.457031,1.35937504 -1.089844,1.35937504 -0.515625,0 -0.890625,-0.24609375 -1.125,-0.45703125 -0.07031,-0.0585938 -0.140625,-0.046875 -0.210937,0 -0.08203,0.0585938 -0.199219,0.17578125 -0.210938,0.29296875 -0.01172,0.1171875 0.02344,0.2109375 0.152344,0.328125 0.117187,0.10546875 0.480469,0.3046875 0.890625,0.3046875 0.65625,0 2.367187,-0.66796875 2.367187,-2.12109374 0,-0.65625 -0.46875,-1.21875 -1.253906,-1.3710938 v -0.011719 c 0.257813,-0.1875 0.480469,-0.3398438 0.609375,-0.4921875 0.175781,-0.1640625 0.28125,-0.375 0.28125,-0.6328125 0,-0.6914063 -0.527344,-1.1953125 -1.347656,-1.1953125 -0.46875,0 -0.890625,0.234375 -1.136719,0.5039062 l -0.398437,0.5742188 z m -6.65918,2.859375 v -0.421875 h -0.867188 v -3.65625 h -0.351562 c -0.925781,1.21875 -1.851563,2.5546875 -2.707031,3.8320313 v 0.2460937 h 2.34375 v 0.65625004 c 0,0.5859375 -0.03516,0.64453125 -0.820313,0.703125 v 0.24609375 h 2.308594 v -0.24609375 c -0.726563,-0.0585938 -0.773438,-0.10546875 -0.773438,-0.703125 V -1.6039016 Z m -1.582031,-0.421875 h -1.769532 c 0.585938,-0.9960937 1.171875,-1.8515625 1.757813,-2.6484375 h 0.01172 z m -11.144532,-2.9179687 h 2.097657 l 0.234375,-0.5859375 -0.05859,-0.070312 h -2.566406 l -0.351563,2.7421875 c 0.210938,-0.082031 0.550781,-0.1875 0.925781,-0.1875 0.984375,0 1.464844,0.5742187 1.464844,1.359375 0,0.6796875 -0.375,1.33593749 -1.136719,1.33593749 -0.550781,0 -0.914062,-0.29296875 -1.113281,-0.45703125 -0.08203,-0.0703125 -0.152344,-0.0585938 -0.234375,0 -0.105469,0.09375 -0.1875,0.2109375 -0.1875,0.29296875 -0.02344,0.10546875 0.02344,0.1875 0.140625,0.3046875 0.128906,0.12890625 0.515625,0.31640625 0.925781,0.31640625 0.480469,-0.01171875 1.078125,-0.24609375 1.570313,-0.6328125 0.550781,-0.45703125 0.796875,-0.96093754 0.796875,-1.51171874 0,-0.7382813 -0.585938,-1.5117188 -1.734375,-1.5117188 -0.246094,0 -0.667969,0.140625 -1.007813,0.2695313 z m -10.139648,1.8632812 c 0.269531,-1.2539062 1.113281,-1.828125 1.664062,-2.0859375 0.328125,-0.1523437 0.679688,-0.2578125 0.972657,-0.3164062 l -0.05859,-0.28125 c -0.363281,0.058594 -0.796875,0.1640625 -1.148438,0.28125 -0.960937,0.3515625 -2.332031,1.3710937 -2.332031,3.3398437 0,1.38281254 0.796875,2.25000004 1.851563,2.25000004 1.078125,0 1.839843,-0.90234375 1.839843,-1.98046874 0,-0.9257813 -0.65625,-1.6640625 -1.617187,-1.6640625 -0.175781,0 -0.363281,0.070312 -0.5625,0.1523437 z m 0.820312,0.046875 c 0.820313,0 1.195313,0.7382813 1.195313,1.4882813 0,0.59765624 -0.210938,1.34765624 -0.914063,1.34765624 -0.738281,0 -1.195312,-0.87890624 -1.195312,-1.95703124 0,-0.234375 0.01172,-0.4570313 0.04687,-0.6210938 0.222656,-0.1171875 0.527344,-0.2578125 0.867187,-0.2578125 z m -8.027343,-2.5664062 h -3.433594 c -0.03516,0.3867187 -0.08203,0.8320312 -0.164063,1.3242187 h 0.257813 c 0.222656,-0.5859375 0.269531,-0.6679687 0.867187,-0.6679687 h 1.945313 c -0.714844,1.5585937 -1.722656,3.421875 -2.671875,4.95703124 l 0.05859,0.09375 0.667968,-0.08203125 c 0.867188,-1.86328129 1.699219,-3.69140629 2.542969,-5.51953129 z m -10.763672,3.328125 h -2.050781 l -0.128907,0.4921875 h 2.050782 z m -9.999024,0 h -2.050781 l -0.128906,0.4921875 h 2.050781 z m -9.996093,0 h -2.050782 l -0.128906,0.4921875 h 2.050781 z m -9.999021,0 h -2.05078 l -0.12891,0.4921875 h 2.05078 z m -9.9961,0 h -2.05078 l -0.1289,0.4921875 h 2.05078 z m -9.99902,0 h -2.05078 l -0.12891,0.4921875 h 2.05078 z m -9.99609,0 h -2.05078 l -0.12891,0.4921875 h 2.05078 z m -9.9961,0 h -2.05078 l -0.1289,0.4921875 h 2.05078 z m -9.99902,0 h -2.05078 l -0.12891,0.4921875 h 2.05078 z m -9.99902,0 h -2.05079 l -0.1289,0.4921875 h 2.05078 z m -9.9961,0 h -2.05078 l -0.12891,0.4921875 h 2.05079 z m -9.99902,0 h -2.05078 l -0.12891,0.4921875 h 2.05078 z m -9.9961,0 h -2.05078 l -0.1289,0.4921875 h 2.05078 z m -9.99609,0 h -2.05078 l -0.12891,0.4921875 h 2.05078 z m -9.99902,0 h -2.05078 l -0.12891,0.4921875 h 2.05078 z m -9.99903,0 h -2.05078 l -0.1289,0.4921875 h 2.05078 z m -11.02148,-3.4453125 c -0.96094,0 -1.59375,0.7265625 -1.59375,1.4765625 0,0.6328125 0.38672,1.0664062 0.97266,1.3945312 -0.30469,0.1992188 -0.65625,0.4453125 -0.79688,0.5742188 -0.19922,0.1992187 -0.39844,0.4453125 -0.39844,0.8554687 0,0.97265629 0.76172,1.52343754 1.72266,1.52343754 0.76172,0 1.78125,-0.57421875 1.78125,-1.62890624 0,-0.7851563 -0.5625,-1.2070313 -1.18359,-1.5585938 0.39843,-0.28125 0.64453,-0.5039062 0.70312,-0.5859375 0.17578,-0.1875 0.26953,-0.4570312 0.26953,-0.7148437 0,-0.7265625 -0.62109,-1.3359375 -1.47656,-1.3359375 z m -0.082,0.2929687 c 0.41015,0 0.8789,0.328125 0.8789,1.0898438 0,0.5390625 -0.24609,0.8671875 -0.55078,1.1132812 -0.63281,-0.3164062 -1.17187,-0.609375 -1.17187,-1.2773437 0,-0.4570313 0.30469,-0.9257813 0.84375,-0.9257813 z m 0.082,5.25000004 c -0.57422,0 -1.10156,-0.46875 -1.10156,-1.28906254 0,-0.4921875 0.30468,-0.9492187 0.73828,-1.2304687 0.6914,0.3515625 1.33594,0.7382812 1.33594,1.40625 0,0.69140624 -0.42188,1.11328124 -0.97266,1.11328124 z m -10.0459,-5.54296874 c -1.16015,0 -1.83984,1.0546875 -1.83984,1.921875 0,0.9492187 0.65625,1.640625 1.61719,1.640625 0.16406,0 0.33984,-0.035156 0.53906,-0.140625 l 0.59765,-0.3164063 c -0.29296,1.359375 -1.27734,2.26171879 -2.5664,2.47265629 l 0.0469,0.28125 c 0.22266,0 0.77344,-0.09375 1.26563,-0.29296875 1.20703,-0.4921875 2.12109,-1.65234374 2.12109,-3.31640624 0,-1.21875 -0.65625,-2.25 -1.78125,-2.25 z m -0.11719,0.3046875 c 0.86719,0 1.10157,1.1132812 1.10157,1.8984375 0,0.1875 0,0.3984375 -0.0352,0.5976562 -0.1875,0.140625 -0.49219,0.2578125 -0.80859,0.2578125 -0.75,0 -1.20703,-0.65625 -1.20703,-1.453125 0,-0.5273437 0.25781,-1.3007812 0.94921,-1.3007812 z m -8.80664,3.140625 h -2.05078 l -0.1289,0.4921875 h 2.05078 z m -9.99609,0 h -2.05078 l -0.12891,0.4921875 h 2.05078 z m -9.99902,0 h -2.05079 l -0.1289,0.4921875 h 2.05078 z m -9.9961,0 h -2.05078 l -0.12891,0.4921875 h 2.05079 z m -9.99902,0 h -2.05078 l -0.12891,0.4921875 h 2.05078 z m -9.99609,0 h -2.05079 l -0.1289,0.4921875 h 2.05078 z M 2.1560938,15.206645 c -1.3476563,0 -1.8398438,1.605469 -1.8398438,2.917969 0,1.417969 0.48046875,2.90625 1.8398438,2.90625 1.359375,0 1.828125,-1.59375 1.828125,-2.917969 0,-1.382812 -0.46875,-2.90625 -1.828125,-2.90625 z m 0,0.304688 c 0.8085937,0 1.03125,1.324219 1.03125,2.601562 0,1.265625 -0.2226563,2.613282 -1.03125,2.613282 -0.7734375,0 -1.0429688,-1.359375 -1.0429688,-2.613282 0,-1.253906 0.2226563,-2.601562 1.0429688,-2.601562 z m -8.6953125,5.689453 V 20.954692 C -7.3595312,20.896098 -7.418125,20.825786 -7.418125,20.169536 v -4.6875 c -0.4921875,0.199219 -1.0195312,0.375 -1.59375,0.46875 v 0.210937 l 0.4335938,0.01172 c 0.3867187,0.02344 0.421875,0.07031 0.421875,0.539063 v 3.457031 c 0,0.65625 -0.035156,0.726562 -0.8554688,0.785156 v 0.246094 z m -9.7529293,-1.265625 c -0.269532,0.574219 -0.386719,0.609375 -0.867188,0.609375 h -1.6875 l 1.277344,-1.335938 c 0.832031,-0.890625 1.195312,-1.417968 1.195312,-2.203125 0,-0.949218 -0.726562,-1.523437 -1.511718,-1.523437 -0.527344,0 -0.949219,0.234375 -1.21875,0.539062 l -0.515625,0.726563 0.199218,0.175781 c 0.234375,-0.351562 0.609375,-0.832031 1.230469,-0.832031 0.65625,0 1.054688,0.433594 1.054688,1.195312 0,0.773438 -0.5625,1.511719 -1.125,2.179688 -0.445313,0.515625 -0.949219,1.03125 -1.453125,1.523437 v 0.210938 h 3.363281 c 0.105469,-0.410156 0.199219,-0.796875 0.316406,-1.183594 z m -12.9375,-3.199219 c 0.222656,-0.328125 0.585937,-0.714844 1.078125,-0.714844 0.480468,0 0.855468,0.292969 0.855468,0.855469 0,0.65625 -0.609375,1.007813 -1.429687,1.277344 l 0.05859,0.257812 c 0.140625,-0.04687 0.363281,-0.105468 0.574218,-0.105468 0.515625,0 1.148438,0.339843 1.148438,1.171875 0,0.890625 -0.457031,1.359375 -1.089844,1.359375 -0.515625,0 -0.890625,-0.246094 -1.125,-0.457032 -0.07031,-0.05859 -0.140625,-0.04687 -0.210937,0 -0.08203,0.05859 -0.199219,0.175782 -0.210938,0.292969 -0.01172,0.117188 0.02344,0.210938 0.152344,0.328125 0.117187,0.105469 0.480469,0.304688 0.890625,0.304688 0.65625,0 2.367187,-0.667969 2.367187,-2.121094 0,-0.65625 -0.46875,-1.21875 -1.253906,-1.371094 v -0.01172 c 0.257813,-0.1875 0.480469,-0.339843 0.609375,-0.492187 0.175781,-0.164063 0.28125,-0.375 0.28125,-0.632813 0,-0.691406 -0.527344,-1.195312 -1.347656,-1.195312 -0.46875,0 -0.890625,0.234375 -1.136719,0.503906 l -0.398437,0.574219 z m -7.50586,2.191406 h -2.050781 l -0.128906,0.492188 h 2.050781 z m -9.999023,0 h -2.050781 l -0.128907,0.492188 h 2.050782 z m -9.996094,0 h -2.050781 l -0.128906,0.492188 h 2.050781 z m -9.999023,0 h -2.050782 l -0.128906,0.492188 h 2.050781 z m -9.996094,0 h -2.050781 l -0.128907,0.492188 h 2.050782 z m -9.999024,0 h -2.050781 l -0.128906,0.492188 h 2.050781 z m -9.996093,0 h -2.050782 l -0.128906,0.492188 h 2.050781 z m -9.996091,0 h -2.05078 l -0.12891,0.492188 h 2.05078 z m -9.15235,0.667969 v -0.421875 h -0.86718 v -3.65625 h -0.35157 c -0.92578,1.21875 -1.85156,2.554688 -2.70703,3.832031 v 0.246094 h 2.34375 v 0.65625 c 0,0.585938 -0.0352,0.644531 -0.82031,0.703125 v 0.246094 h 2.30859 v -0.246094 c -0.72656,-0.05859 -0.77343,-0.105469 -0.77343,-0.703125 v -0.65625 z m -1.58203,-0.421875 h -1.76953 c 0.58594,-0.996094 1.17188,-1.851562 1.75781,-2.648437 h 0.0117 z m -11.14453,-2.917969 h 2.09766 l 0.23437,-0.585937 -0.0586,-0.07031 h -2.56641 l -0.35156,2.742188 c 0.21094,-0.08203 0.55078,-0.1875 0.92578,-0.1875 0.98438,0 1.46484,0.574219 1.46484,1.359375 0,0.679687 -0.375,1.335937 -1.13671,1.335937 -0.55079,0 -0.91407,-0.292968 -1.11329,-0.457031 -0.082,-0.07031 -0.15234,-0.05859 -0.23437,0 -0.10547,0.09375 -0.1875,0.210938 -0.1875,0.292969 -0.0234,0.105469 0.0234,0.1875 0.14062,0.304687 0.12891,0.128907 0.51563,0.316407 0.92579,0.316407 0.48046,-0.01172 1.07812,-0.246094 1.57031,-0.632813 0.55078,-0.457031 0.79687,-0.960937 0.79687,-1.511719 0,-0.738281 -0.58593,-1.511718 -1.73437,-1.511718 -0.2461,0 -0.66797,0.140625 -1.00781,0.269531 z m -10.13965,1.863282 c 0.26953,-1.253907 1.11328,-1.828125 1.66406,-2.085938 0.32813,-0.152344 0.67969,-0.257812 0.97266,-0.316406 l -0.0586,-0.28125 c -0.36328,0.05859 -0.79688,0.164062 -1.14844,0.28125 -0.96094,0.351562 -2.33203,1.371094 -2.33203,3.339844 0,1.382812 0.79687,2.25 1.85156,2.25 1.07813,0 1.83984,-0.902344 1.83984,-1.980469 0,-0.925781 -0.65625,-1.664063 -1.61718,-1.664063 -0.17578,0 -0.36328,0.07031 -0.5625,0.152344 z m 0.82031,0.04687 c 0.82032,0 1.19532,0.738281 1.19532,1.488281 0,0.597656 -0.21094,1.347656 -0.91407,1.347656 -0.73828,0 -1.19531,-0.878906 -1.19531,-1.957031 0,-0.234375 0.0117,-0.457031 0.0469,-0.621094 0.22265,-0.117187 0.52734,-0.257812 0.86718,-0.257812 z m -8.02734,-2.566407 h -3.43359 c -0.0352,0.386719 -0.082,0.832032 -0.16407,1.324219 h 0.25782 c 0.22265,-0.585937 0.26953,-0.667969 0.86718,-0.667969 h 1.94532 c -0.71485,1.558594 -1.72266,3.421875 -2.67188,4.957032 l 0.0586,0.09375 0.66796,-0.08203 c 0.86719,-1.863281 1.69922,-3.691406 2.54297,-5.519531 z m -10.76367,3.328125 h -2.05078 l -0.12891,0.492188 h 2.05078 z m -9.99902,0 h -2.05079 l -0.1289,0.492188 h 2.05078 z m -9.9961,0 h -2.05078 l -0.12891,0.492188 h 2.05079 z m -9.99902,0 h -2.05078 l -0.12891,0.492188 h 2.05078 z m -9.9961,0 h -2.05078 l -0.1289,0.492188 h 2.05078 z m -9.99609,0 h -2.05078 l -0.12891,0.492188 h 2.05078 z m -9.99902,0 h -2.05078 l -0.12891,0.492188 h 2.05078 z m -9.99903,0 h -2.05078 l -0.1289,0.492188 h 2.05078 z M -237.715,15.482036 c -0.96094,0 -1.59375,0.726562 -1.59375,1.476562 0,0.632813 0.38672,1.066407 0.97266,1.394532 -0.30469,0.199218 -0.65625,0.445312 -0.79688,0.574218 -0.19922,0.199219 -0.39844,0.445313 -0.39844,0.855469 0,0.972656 0.76172,1.523438 1.72266,1.523438 0.76172,0 1.78125,-0.574219 1.78125,-1.628907 0,-0.785156 -0.5625,-1.207031 -1.18359,-1.558593 0.39843,-0.28125 0.64453,-0.503907 0.70312,-0.585938 0.17578,-0.1875 0.26953,-0.457031 0.26953,-0.714844 0,-0.726562 -0.62109,-1.335937 -1.47656,-1.335937 z m -0.082,0.292969 c 0.41016,0 0.87891,0.328125 0.87891,1.089843 0,0.539063 -0.2461,0.867188 -0.55079,1.113282 -0.63281,-0.316407 -1.17187,-0.609375 -1.17187,-1.277344 0,-0.457031 0.30469,-0.925781 0.84375,-0.925781 z m 0.082,5.25 c -0.57422,0 -1.10156,-0.46875 -1.10156,-1.289063 0,-0.492187 0.30469,-0.949219 0.73828,-1.230469 0.69141,0.351563 1.33594,0.738282 1.33594,1.40625 0,0.691407 -0.42188,1.113282 -0.97266,1.113282 z m -10.04297,-5.542969 c -1.16015,0 -1.83984,1.054687 -1.83984,1.921875 0,0.949219 0.65625,1.640625 1.61719,1.640625 0.16406,0 0.33984,-0.03516 0.53906,-0.140625 l 0.59765,-0.316406 c -0.29296,1.359375 -1.27734,2.261718 -2.5664,2.472656 l 0.0469,0.28125 c 0.22266,0 0.77344,-0.09375 1.26563,-0.292969 1.20703,-0.492187 2.12109,-1.652344 2.12109,-3.316406 0,-1.21875 -0.65625,-2.25 -1.78125,-2.25 z m -0.11719,0.304687 c 0.86719,0 1.10157,1.113282 1.10157,1.898438 0,0.1875 0,0.398437 -0.0352,0.597656 -0.1875,0.140625 -0.49219,0.257813 -0.80859,0.257813 -0.75,0 -1.20703,-0.65625 -1.20703,-1.453125 0,-0.527344 0.25781,-1.300782 0.94921,-1.300782 z m -8.80664,3.140625 h -2.05078 l -0.1289,0.492188 h 2.05078 z m -9.99609,0 h -2.05078 l -0.12891,0.492188 h 2.05078 z m -9.99902,0 h -2.05079 l -0.1289,0.492188 h 2.05078 z m -9.9961,0 h -2.05078 l -0.12891,0.492188 h 2.05079 z m -9.99902,0 h -2.05078 l -0.12891,0.492188 h 2.05078 z m -9.99609,0 h -2.05079 l -0.1289,0.492188 h 2.05078 z M 2.1560938,36.133403 c -1.3476563,0 -1.8398438,1.605469 -1.8398438,2.917969 0,1.417969 0.48046875,2.90625 1.8398438,2.90625 1.359375,0 1.828125,-1.59375 1.828125,-2.917969 0,-1.382812 -0.46875,-2.90625 -1.828125,-2.90625 z m 0,0.304688 c 0.8085937,0 1.03125,1.324218 1.03125,2.601562 0,1.265625 -0.2226563,2.613281 -1.03125,2.613281 -0.7734375,0 -1.0429688,-1.359375 -1.0429688,-2.613281 0,-1.253906 0.2226563,-2.601562 1.0429688,-2.601562 z m -8.6953125,5.414062 V 41.606059 C -7.3595312,41.547466 -7.418125,41.477153 -7.418125,40.820903 v -4.6875 c -0.4921875,0.199219 -1.0195312,0.375 -1.59375,0.46875 v 0.210938 l 0.4335938,0.01172 c 0.3867187,0.02344 0.421875,0.07031 0.421875,0.539063 v 3.457031 c 0,0.65625 -0.035156,0.726563 -0.8554688,0.785156 v 0.246094 z M -16.74332,39.578716 h -2.050782 l -0.128906,0.492187 h 2.050781 z m -9.996094,0 h -2.050781 l -0.128907,0.492187 h 2.050782 z m -9.999023,0 h -2.050782 l -0.128906,0.492187 h 2.050781 z m -9.996094,0 h -2.050781 l -0.128907,0.492187 h 2.050782 z m -9.547852,1.007812 c -0.269531,0.574219 -0.386719,0.609375 -0.867187,0.609375 h -1.6875 l 1.277343,-1.335937 c 0.832032,-0.890625 1.195313,-1.417969 1.195313,-2.203125 0,-0.949219 -0.726563,-1.523438 -1.511719,-1.523438 -0.527344,0 -0.949219,0.234375 -1.21875,0.539063 l -0.515625,0.726562 0.199219,0.175781 c 0.234375,-0.351562 0.609375,-0.832031 1.230469,-0.832031 0.65625,0 1.054687,0.433594 1.054687,1.195313 0,0.773437 -0.5625,1.511718 -1.125,2.179687 -0.445312,0.515625 -0.949219,1.03125 -1.453125,1.523438 v 0.210937 h 3.363281 c 0.105469,-0.410156 0.199219,-0.796875 0.316407,-1.183594 z m -12.940429,-3.199219 c 0.222656,-0.328125 0.585937,-0.714843 1.078125,-0.714843 0.480468,0 0.855468,0.292968 0.855468,0.855468 0,0.65625 -0.609375,1.007813 -1.429687,1.277344 l 0.05859,0.257813 c 0.140625,-0.04687 0.363281,-0.105469 0.574218,-0.105469 0.515625,0 1.148438,0.339844 1.148438,1.171875 0,0.890625 -0.457031,1.359375 -1.089844,1.359375 -0.515625,0 -0.890625,-0.246094 -1.125,-0.457031 -0.07031,-0.05859 -0.140625,-0.04687 -0.210937,0 -0.08203,0.05859 -0.199219,0.175781 -0.210938,0.292968 -0.01172,0.117188 0.02344,0.210938 0.152344,0.328125 0.117187,0.105469 0.480469,0.304688 0.890625,0.304688 0.65625,0 2.367187,-0.667969 2.367187,-2.121094 0,-0.65625 -0.46875,-1.21875 -1.253906,-1.371094 v -0.01172 c 0.257813,-0.1875 0.480469,-0.339844 0.609375,-0.492188 0.175781,-0.164062 0.28125,-0.375 0.28125,-0.632812 0,-0.691407 -0.527344,-1.195313 -1.347656,-1.195313 -0.46875,0 -0.890625,0.234375 -1.136719,0.503906 l -0.398437,0.574219 z m -7.50293,2.191407 h -2.050781 l -0.128907,0.492187 h 2.050782 z m -9.999024,0 h -2.050781 l -0.128906,0.492187 h 2.050781 z m -9.996093,0 h -2.050782 l -0.128906,0.492187 h 2.050781 z m -9.999021,0 h -2.05078 l -0.12891,0.492187 h 2.05078 z m -9.14942,0.667968 v -0.421875 h -0.86718 v -3.65625 h -0.35157 c -0.92578,1.21875 -1.85156,2.554688 -2.70703,3.832032 v 0.246093 h 2.34375 v 0.65625 c 0,0.585938 -0.0352,0.644532 -0.82031,0.703125 v 0.246094 h 2.30859 v -0.246094 c -0.72656,-0.05859 -0.77343,-0.105468 -0.77343,-0.703125 v -0.65625 z m -1.58203,-0.421875 h -1.76953 c 0.58594,-0.996093 1.17188,-1.851562 1.75781,-2.648437 h 0.0117 z m -11.14453,-2.917968 h 2.09766 l 0.23437,-0.585938 -0.0586,-0.07031 h -2.56641 l -0.35156,2.742187 c 0.21094,-0.08203 0.55078,-0.1875 0.92578,-0.1875 0.98438,0 1.46484,0.574219 1.46484,1.359375 0,0.679688 -0.375,1.335938 -1.13671,1.335938 -0.55079,0 -0.91407,-0.292969 -1.11329,-0.457032 -0.082,-0.07031 -0.15234,-0.05859 -0.23437,0 -0.10547,0.09375 -0.1875,0.210938 -0.1875,0.292969 -0.0234,0.105469 0.0234,0.1875 0.14062,0.304688 0.12891,0.128906 0.51563,0.316406 0.92579,0.316406 0.48046,-0.01172 1.07812,-0.246094 1.57031,-0.632813 0.55078,-0.457031 0.79687,-0.960937 0.79687,-1.511718 0,-0.738282 -0.58593,-1.511719 -1.73437,-1.511719 -0.2461,0 -0.66797,0.140625 -1.00781,0.269531 z m -8.11523,2.671875 h -2.05078 l -0.12891,0.492187 h 2.05078 z m -9.9961,0 h -2.05078 l -0.1289,0.492187 h 2.05078 z m -9.99902,0 h -2.05078 l -0.12891,0.492187 h 2.05078 z m -9.99902,0 h -2.05079 l -0.1289,0.492187 h 2.05078 z m -12.01758,-0.808594 c 0.26953,-1.253906 1.11328,-1.828125 1.66406,-2.085938 0.32813,-0.152343 0.67969,-0.257812 0.97266,-0.316406 l -0.0586,-0.28125 c -0.36328,0.05859 -0.79687,0.164063 -1.14843,0.28125 -0.96094,0.351563 -2.33204,1.371094 -2.33204,3.339844 0,1.382812 0.79688,2.25 1.85157,2.25 1.07812,0 1.83984,-0.902344 1.83984,-1.980469 0,-0.925781 -0.65625,-1.664062 -1.61719,-1.664062 -0.17578,0 -0.36328,0.07031 -0.5625,0.152343 z m 0.82031,0.04687 c 0.82031,0 1.19531,0.738281 1.19531,1.488281 0,0.597656 -0.21093,1.347656 -0.91406,1.347656 -0.73828,0 -1.19531,-0.878906 -1.19531,-1.957031 0,-0.234375 0.0117,-0.457031 0.0469,-0.621094 0.22266,-0.117187 0.52735,-0.257812 0.86719,-0.257812 z m -8.03027,-2.566406 h -3.4336 c -0.0352,0.386718 -0.082,0.832031 -0.16406,1.324218 h 0.25781 c 0.22266,-0.585937 0.26953,-0.667968 0.86719,-0.667968 h 1.94531 c -0.71484,1.558593 -1.72265,3.421875 -2.67187,4.957031 l 0.0586,0.09375 0.66797,-0.08203 c 0.86719,-1.863282 1.69922,-3.691407 2.54297,-5.519532 z m -10.76368,3.328125 h -2.05078 l -0.1289,0.492187 h 2.05078 z m -9.99609,0 h -2.05078 l -0.12891,0.492187 h 2.05078 z m -9.99902,0 h -2.05078 l -0.12891,0.492187 h 2.05078 z m -9.9961,0 h -2.05078 l -0.1289,0.492187 h 2.05078 z m -11.02441,-3.445313 c -0.96094,0 -1.59375,0.726563 -1.59375,1.476563 0,0.632812 0.38672,1.066406 0.97266,1.394531 -0.30469,0.199219 -0.65625,0.445312 -0.79688,0.574219 -0.19922,0.199218 -0.39844,0.445312 -0.39844,0.855468 0,0.972657 0.76172,1.523438 1.72266,1.523438 0.76172,0 1.78125,-0.574219 1.78125,-1.628906 0,-0.785157 -0.5625,-1.207032 -1.18359,-1.558594 0.39843,-0.28125 0.64453,-0.503906 0.70312,-0.585938 0.17578,-0.1875 0.26953,-0.457031 0.26953,-0.714843 0,-0.726563 -0.62109,-1.335938 -1.47656,-1.335938 z m -0.082,0.292969 c 0.41015,0 0.8789,0.328125 0.8789,1.089844 0,0.539062 -0.24609,0.867187 -0.55078,1.113281 -0.63281,-0.316406 -1.17187,-0.609375 -1.17187,-1.277344 0,-0.457031 0.30469,-0.925781 0.84375,-0.925781 z m 0.082,5.25 c -0.57422,0 -1.10156,-0.46875 -1.10156,-1.289063 0,-0.492187 0.30468,-0.949218 0.73828,-1.230468 0.6914,0.351562 1.33594,0.738281 1.33594,1.40625 0,0.691406 -0.42188,1.113281 -0.97266,1.113281 z m -8.9707,-2.097656 h -2.05078 l -0.12891,0.492187 h 2.05078 z m -9.99903,0 h -2.05078 l -0.1289,0.492187 h 2.05078 z m -11.07129,-3.445313 c -1.16015,0 -1.83984,1.054688 -1.83984,1.921875 0,0.949219 0.65625,1.640625 1.61719,1.640625 0.16406,0 0.33984,-0.03516 0.53906,-0.140625 l 0.59766,-0.316406 c -0.29297,1.359375 -1.27735,2.261719 -2.56641,2.472656 l 0.0469,0.28125 c 0.22265,0 0.77343,-0.09375 1.26562,-0.292969 1.20703,-0.492187 2.12109,-1.652343 2.12109,-3.316406 0,-1.21875 -0.65625,-2.25 -1.78125,-2.25 z m -0.11718,0.304688 c 0.86718,0 1.10156,1.113281 1.10156,1.898437 0,0.1875 0,0.398438 -0.0352,0.597656 -0.1875,0.140625 -0.49218,0.257813 -0.80859,0.257813 -0.75,0 -1.20703,-0.65625 -1.20703,-1.453125 0,-0.527344 0.25781,-1.300781 0.94922,-1.300781 z m -8.80664,3.140625 h -2.05079 l -0.1289,0.492187 h 2.05078 z m -9.9961,0 h -2.05078 l -0.12891,0.492187 h 2.05079 z m -9.99902,0 h -2.05078 l -0.12891,0.492187 h 2.05078 z m -9.99609,0 h -2.05079 l -0.1289,0.492187 h 2.05078 z M 2.1560938,57.060161 c -1.3476563,0 -1.8398438,1.605469 -1.8398438,2.917969 0,1.417968 0.48046875,2.90625 1.8398438,2.90625 1.359375,0 1.828125,-1.59375 1.828125,-2.917969 0,-1.382813 -0.46875,-2.90625 -1.828125,-2.90625 z m 0,0.304687 c 0.8085937,0 1.03125,1.324219 1.03125,2.601563 0,1.265625 -0.2226563,2.613281 -1.03125,2.613281 -0.7734375,0 -1.0429688,-1.359375 -1.0429688,-2.613281 0,-1.253906 0.2226563,-2.601563 1.0429688,-2.601563 z m -8.9003907,3.102539 h -2.0507812 l -0.1289063,0.492188 h 2.0507813 z m -9.9990231,0 h -2.050782 l -0.128906,0.492188 h 2.050781 z m -9.793946,2.273438 v -0.246094 c -0.820312,-0.05859 -0.878906,-0.128906 -0.878906,-0.785156 v -4.6875 c -0.492187,0.199219 -1.019531,0.375 -1.59375,0.46875 v 0.210937 l 0.433594,0.01172 c 0.386719,0.02344 0.421875,0.07031 0.421875,0.539063 v 3.457031 c 0,0.65625 -0.03516,0.726562 -0.855469,0.785156 v 0.246094 z m -10.201171,-2.273438 h -2.050782 l -0.128906,0.492188 h 2.050781 z m -9.996094,0 h -2.050781 l -0.128907,0.492188 h 2.050782 z m -9.547852,1.007813 c -0.269531,0.574219 -0.386719,0.609375 -0.867187,0.609375 h -1.6875 l 1.277343,-1.335938 c 0.832032,-0.890625 1.195313,-1.417968 1.195313,-2.203125 0,-0.949218 -0.726563,-1.523437 -1.511719,-1.523437 -0.527344,0 -0.949219,0.234375 -1.21875,0.539062 l -0.515625,0.726563 0.199219,0.175781 c 0.234375,-0.351562 0.609375,-0.832031 1.230469,-0.832031 0.65625,0 1.054687,0.433594 1.054687,1.195312 0,0.773438 -0.5625,1.511719 -1.125,2.179688 -0.445312,0.515625 -0.949219,1.03125 -1.453125,1.523437 v 0.210938 h 3.363281 c 0.105469,-0.410156 0.199219,-0.796875 0.316407,-1.183594 z m -10.447265,-1.007813 h -2.050782 l -0.128906,0.492188 h 2.050781 z m -9.996094,0 h -2.050781 l -0.128907,0.492188 h 2.050782 z M -89.21793,58.275981 c 0.222657,-0.328125 0.585938,-0.714844 1.078125,-0.714844 0.480469,0 0.855469,0.292969 0.855469,0.855469 0,0.65625 -0.609375,1.007813 -1.429687,1.277344 l 0.05859,0.257812 c 0.140625,-0.04687 0.363282,-0.105468 0.574219,-0.105468 0.515625,0 1.148438,0.339843 1.148438,1.171875 0,0.890625 -0.457032,1.359375 -1.089844,1.359375 -0.515625,0 -0.890625,-0.246094 -1.125,-0.457032 -0.07031,-0.05859 -0.140625,-0.04687 -0.210938,0 -0.08203,0.05859 -0.199218,0.175782 -0.210937,0.292969 -0.01172,0.117188 0.02344,0.210938 0.152344,0.328125 0.117187,0.105469 0.480468,0.304688 0.890625,0.304688 0.65625,0 2.367187,-0.667969 2.367187,-2.121094 0,-0.65625 -0.46875,-1.21875 -1.253906,-1.371094 v -0.01172 c 0.257812,-0.1875 0.480469,-0.339843 0.609375,-0.492187 0.175781,-0.164063 0.28125,-0.375 0.28125,-0.632813 0,-0.691406 -0.527344,-1.195312 -1.347656,-1.195312 -0.46875,0 -0.890625,0.234375 -1.136719,0.503906 l -0.398435,0.57422 z m -7.505859,2.191406 h -2.050781 l -0.128907,0.492188 h 2.050782 z m -9.996091,0 h -2.05078 l -0.12891,0.492188 h 2.05078 z m -9.14942,0.667969 v -0.421875 h -0.86718 v -3.65625 h -0.35157 c -0.92578,1.21875 -1.85156,2.554688 -2.70703,3.832031 v 0.246094 h 2.34375 v 0.65625 c 0,0.585938 -0.0352,0.644531 -0.82031,0.703125 v 0.246094 h 2.30859 v -0.246094 c -0.72656,-0.05859 -0.77343,-0.105469 -0.77343,-0.703125 v -0.65625 z m -1.58203,-0.421875 h -1.76953 c 0.58594,-0.996094 1.17188,-1.851562 1.75781,-2.648437 h 0.0117 z m -9.26367,-0.246094 h -2.05078 l -0.12891,0.492188 h 2.05078 z m -9.99609,0 h -2.05078 l -0.12891,0.492188 h 2.05078 z m -11.87989,-2.671875 h 2.09766 l 0.23437,-0.585937 -0.0586,-0.07031 h -2.56641 l -0.35156,2.742188 c 0.21094,-0.08203 0.55078,-0.1875 0.92578,-0.1875 0.98438,0 1.46485,0.574219 1.46485,1.359375 0,0.679687 -0.375,1.335937 -1.13672,1.335937 -0.55078,0 -0.91406,-0.292968 -1.11328,-0.457031 -0.082,-0.07031 -0.15235,-0.05859 -0.23438,0 -0.10547,0.09375 -0.1875,0.210938 -0.1875,0.292969 -0.0234,0.105469 0.0234,0.1875 0.14063,0.304687 0.1289,0.128907 0.51562,0.316407 0.92578,0.316407 0.48047,-0.01172 1.07812,-0.246094 1.57031,-0.632813 0.55078,-0.457031 0.79688,-0.960937 0.79688,-1.511719 0,-0.738281 -0.58594,-1.511718 -1.73438,-1.511718 -0.24609,0 -0.66797,0.140625 -1.00781,0.269531 z m -8.11523,2.671875 h -2.05078 l -0.12891,0.492188 h 2.05078 z m -9.99902,0 h -2.05079 l -0.1289,0.492188 h 2.05078 z m -12.01758,-0.808593 c 0.26953,-1.253907 1.11328,-1.828125 1.66406,-2.085938 0.32813,-0.152344 0.67969,-0.257812 0.97266,-0.316406 l -0.0586,-0.28125 c -0.36328,0.05859 -0.79687,0.164062 -1.14843,0.28125 -0.96094,0.351562 -2.33204,1.371094 -2.33204,3.339844 0,1.382812 0.79688,2.25 1.85157,2.25 1.07812,0 1.83984,-0.902344 1.83984,-1.980469 0,-0.925781 -0.65625,-1.664063 -1.61719,-1.664063 -0.17578,0 -0.36328,0.07031 -0.5625,0.152344 z m 0.82031,0.04687 c 0.82031,0 1.19531,0.738281 1.19531,1.488281 0,0.597656 -0.21093,1.347656 -0.91406,1.347656 -0.73828,0 -1.19531,-0.878906 -1.19531,-1.957031 0,-0.234375 0.0117,-0.457031 0.0469,-0.621094 0.22266,-0.117187 0.52735,-0.257812 0.86719,-0.257812 z m -8.79785,0.761718 h -2.05078 l -0.12891,0.492188 h 2.05078 z m -9.9961,0 h -2.05078 l -0.1289,0.492188 h 2.05078 z m -9.23144,-3.328125 h -3.43359 c -0.0352,0.386719 -0.082,0.832032 -0.16407,1.324219 h 0.25782 c 0.22265,-0.585937 0.26953,-0.667969 0.86718,-0.667969 h 1.94532 c -0.71485,1.558594 -1.72266,3.421875 -2.67188,4.957032 l 0.0586,0.09375 0.66797,-0.08203 c 0.86719,-1.863281 1.69922,-3.691406 2.54297,-5.519531 z m -10.76367,3.328125 h -2.05078 l -0.12891,0.492188 h 2.05078 z m -9.9961,0 h -2.05078 l -0.1289,0.492188 h 2.05078 z m -11.02441,-3.445312 c -0.96094,0 -1.59375,0.726562 -1.59375,1.476562 0,0.632813 0.38672,1.066407 0.97266,1.394532 -0.30469,0.199218 -0.65625,0.445312 -0.79688,0.574218 -0.19922,0.199219 -0.39844,0.445313 -0.39844,0.855469 0,0.972656 0.76172,1.523438 1.72266,1.523438 0.76172,0 1.78125,-0.574219 1.78125,-1.628907 0,-0.785156 -0.5625,-1.207031 -1.18359,-1.558593 0.39843,-0.28125 0.64453,-0.503907 0.70312,-0.585938 0.17578,-0.1875 0.26953,-0.457031 0.26953,-0.714844 0,-0.726562 -0.62109,-1.335937 -1.47656,-1.335937 z m -0.082,0.292969 c 0.41015,0 0.8789,0.328125 0.8789,1.089843 0,0.539063 -0.24609,0.867188 -0.55078,1.113282 -0.63281,-0.316407 -1.17187,-0.609375 -1.17187,-1.277344 0,-0.457031 0.30469,-0.925781 0.84375,-0.925781 z m 0.082,5.25 c -0.57422,0 -1.10156,-0.46875 -1.10156,-1.289063 0,-0.492187 0.30468,-0.949219 0.73828,-1.230469 0.6914,0.351563 1.33594,0.738282 1.33594,1.40625 0,0.691407 -0.42188,1.113282 -0.97266,1.113282 z m -8.9707,-2.097657 h -2.05078 l -0.12891,0.492188 h 2.05078 z m -9.99903,0 h -2.05078 l -0.1289,0.492188 h 2.05078 z m -11.07129,-3.445312 c -1.16015,0 -1.83984,1.054687 -1.83984,1.921875 0,0.949219 0.65625,1.640625 1.61719,1.640625 0.16406,0 0.33984,-0.03516 0.53906,-0.140625 l 0.59766,-0.316406 c -0.29297,1.359375 -1.27735,2.261718 -2.56641,2.472656 l 0.0469,0.28125 c 0.22265,0 0.77343,-0.09375 1.26562,-0.292969 1.20703,-0.492187 2.12109,-1.652344 2.12109,-3.316406 0,-1.21875 -0.65625,-2.25 -1.78125,-2.25 z m -0.11718,0.304687 c 0.86718,0 1.10156,1.113282 1.10156,1.898438 0,0.1875 0,0.398437 -0.0352,0.597656 -0.1875,0.140625 -0.49218,0.257813 -0.80859,0.257813 -0.75,0 -1.20703,-0.65625 -1.20703,-1.453125 0,-0.527344 0.25781,-1.300782 0.94922,-1.300782 z m -8.80664,3.140625 h -2.05079 l -0.1289,0.492188 h 2.05078 z m -9.9961,0 h -2.05078 l -0.12891,0.492188 h 2.05079 z m -9.99902,0 h -2.05078 l -0.12891,0.492188 h 2.05078 z m -9.99609,0 h -2.05079 l -0.1289,0.492188 h 2.05078 z m 0,0"
         style="fill:#231f20;fill-opacity:1;fill-rule:nonzero;stroke:none"
         aria-label="0&#10;1&#10;23&#10;4&#10;56&#10;7&#10;--&#10;---&#10;---&#10;-&#10;-&#10;-&#10;----&#10;-8&#10;9-&#10;--&#10;--&#10;-&#10;0&#10;12&#10;3&#10;----&#10;----4567&#10;---&#10;-&#10;--&#10;-&#10;-89------&#10;01----23----45----67----8--9----&#10;0&#10;--1--2--3--4--5--6--7--8--9----"
         transform="matrix(1.3333333,0,0,1.3333333,417.45333,42.783067)" />
    </g>
  </g>
</svg>
