<?xml version="1.0" encoding="UTF-8" standalone="no"?>
<!-- Created with Inkscape (http://www.inkscape.org/) -->

<svg
   version="1.1"
   id="svg1"
   width="192.05333"
   height="83.106667"
   viewBox="0 0 192.05333 83.106667"
   sodipodi:docname="phabbf05.eps"
   xmlns:inkscape="http://www.inkscape.org/namespaces/inkscape"
   xmlns:sodipodi="http://sodipodi.sourceforge.net/DTD/sodipodi-0.dtd"
   xmlns="http://www.w3.org/2000/svg"
   xmlns:svg="http://www.w3.org/2000/svg">
  <defs
     id="defs1" />
  <sodipodi:namedview
     id="namedview1"
     pagecolor="#ffffff"
     bordercolor="#000000"
     borderopacity="0.25"
     inkscape:showpageshadow="2"
     inkscape:pageopacity="0.0"
     inkscape:pagecheckerboard="0"
     inkscape:deskcolor="#d1d1d1">
    <inkscape:page
       x="0"
       y="0"
       inkscape:label="1"
       id="page1"
       width="192.05333"
       height="83.106667"
       margin="0"
       bleed="0" />
  </sodipodi:namedview>
  <g
     id="g1"
     inkscape:groupmode="layer"
     inkscape:label="1">
    <g
       id="group-R5">
      <path
         id="path2"
         d="m 1.0185766,-2.2865937 v -0.46875 c -0.29296879,0.1171875 -0.62109379,0.2109375 -0.87890629,0.2578125 v 0.140625 c 0.375,0.046875 0.3984375,0.058594 0.3984375,0.4570312 v 2.70703125 c 0,0.39843755 -0.0585937,0.43359375 -0.43359375,0.46875005 V 1.4399688 H 1.5224828 V 1.2759063 C 1.0537328,1.2290313 1.0185766,1.2055938 1.0185766,0.7485625 v -0.78515625 c 0.070312,0.046875 0.234375,0.10546875 0.4101562,0.10546875 0.7734375,-0.140625 1.4882813,-0.7265625 1.4882813,-1.6289062 0,-0.5976563 -0.3867188,-1.1367188 -1.0546875,-1.1367188 -0.070312,0 -0.1875,0.035156 -0.2929688,0.09375 z m 0,0.1992187 c 0.1523437,-0.1171875 0.3984375,-0.2460937 0.5976562,-0.2460937 0.4335938,0 0.796875,0.3632812 0.796875,0.9960937 0,0.6796875 -0.328125,1.11328125 -0.8320312,1.11328125 -0.2109375,0 -0.4335938,-0.09375 -0.5625,-0.234375 z M 6.5176,-1.8090547 c -0.9023437,0 -1.2304687,1.06640626 -1.2304687,1.94531251 0,0.94921879 0.328125,1.93359379 1.2304687,1.93359379 0.9023438,0 1.21875,-1.0664063 1.21875,-1.94531254 0,-0.92578125 -0.3164062,-1.93359376 -1.21875,-1.93359376 z m -0.011719,0.1992188 c 0.5390625,0 0.6914062,0.89062496 0.6914062,1.73437496 0,0.84375 -0.140625,1.74609374 -0.6796875,1.74609374 -0.5273437,0 -0.703125,-0.91406249 -0.703125,-1.74609374 0,-0.83203125 0.1523438,-1.73437496 0.6914063,-1.73437496 z m 21.172852,8.540039 v -0.46875 c -0.292969,0.1171875 -0.621094,0.2109375 -0.878906,0.2578125 v 0.140625 c 0.375,0.046875 0.398437,0.058594 0.398437,0.4570313 v 2.7070311 c 0,0.398438 -0.05859,0.433594 -0.433594,0.46875 v 0.164063 h 1.417969 v -0.164063 c -0.46875,-0.04687 -0.503906,-0.07031 -0.503906,-0.5273436 V 9.1802031 c 0.07031,0.046875 0.234375,0.1054688 0.410156,0.1054688 0.773438,-0.140625 1.488281,-0.7265625 1.488281,-1.6289063 0,-0.5976562 -0.386718,-1.1367187 -1.054687,-1.1367187 -0.07031,0 -0.1875,0.035156 -0.292969,0.09375 z m 0,0.1992188 c 0.152344,-0.1171875 0.398437,-0.2460938 0.597656,-0.2460938 0.433594,0 0.796875,0.3632813 0.796875,0.9960938 0,0.6796875 -0.328125,1.1132812 -0.832031,1.1132812 -0.210938,0 -0.433594,-0.09375 -0.5625,-0.234375 z m 6.366211,4.0869141 v -0.164063 c -0.550781,-0.03516 -0.585938,-0.09375 -0.585938,-0.515625 V 7.4077422 C 33.130881,7.5366484 32.779319,7.6538359 32.3926,7.7241484 v 0.1289063 l 0.28125,0.011719 c 0.269531,0.011719 0.292969,0.046875 0.292969,0.3632813 v 2.308593 c 0,0.421875 -0.03516,0.480469 -0.574219,0.515625 v 0.164063 z m 17.332031,1.048828 v -0.46875 c -0.292969,0.117188 -0.621094,0.210938 -0.878906,0.257813 v 0.140625 c 0.375,0.04687 0.398437,0.05859 0.398437,0.457031 v 2.707031 c 0,0.398438 -0.05859,0.433594 -0.433593,0.46875 v 0.164063 h 1.417968 v -0.164063 c -0.46875,-0.04687 -0.503906,-0.07031 -0.503906,-0.527344 v -0.785156 c 0.07031,0.04687 0.234375,0.105469 0.410156,0.105469 0.773438,-0.140625 1.488282,-0.726563 1.488282,-1.628906 0,-0.597657 -0.386719,-1.136719 -1.054688,-1.136719 -0.07031,0 -0.1875,0.03516 -0.292969,0.09375 z m 0,0.199219 c 0.152344,-0.117188 0.398438,-0.246094 0.597656,-0.246094 0.433594,0 0.796875,0.363281 0.796875,0.996094 0,0.679687 -0.328125,1.113281 -0.832031,1.113281 -0.210937,0 -0.433594,-0.09375 -0.5625,-0.234375 z m 6.530273,3.240234 c -0.175781,0.386719 -0.257812,0.410156 -0.585937,0.410156 H 56.20803 l 0.84375,-0.902343 c 0.550781,-0.585938 0.796875,-0.9375 0.796875,-1.464844 0,-0.621094 -0.480469,-1.007813 -1.007813,-1.007813 -0.351562,0 -0.632812,0.152344 -0.808594,0.351563 l -0.339843,0.492187 0.128906,0.117188 c 0.152344,-0.234375 0.410156,-0.5625 0.808594,-0.5625 0.445312,0 0.714843,0.292969 0.714843,0.796875 0,0.515625 -0.375,1.007812 -0.75,1.453125 -0.304687,0.351562 -0.632812,0.691406 -0.972656,1.019531 v 0.140625 h 2.238281 c 0.08203,-0.269531 0.140625,-0.539062 0.210938,-0.785156 z m 0.454102,-53.106445 v -0.46875 c -0.292969,0.117187 -0.621094,0.210937 -0.878906,0.257812 v 0.140625 c 0.375,0.04687 0.398437,0.05859 0.398437,0.457032 v 2.707031 c 0,0.398437 -0.05859,0.433594 -0.433593,0.46875 v 0.164062 h 1.417968 v -0.164062 c -0.46875,-0.04687 -0.503906,-0.07031 -0.503906,-0.527344 v -0.785156 c 0.07031,0.04687 0.234375,0.105469 0.410156,0.105469 0.773438,-0.140625 1.488282,-0.726563 1.488282,-1.628907 0,-0.597656 -0.386719,-1.136718 -1.054688,-1.136718 -0.07031,0 -0.1875,0.03516 -0.292969,0.09375 z m 0,0.199219 c 0.152344,-0.117188 0.398438,-0.246094 0.597656,-0.246094 0.433594,0 0.796875,0.363281 0.796875,0.996094 0,0.679687 -0.328125,1.113281 -0.832031,1.113281 -0.210937,0 -0.433594,-0.09375 -0.5625,-0.234375 z m 4.573242,1.107422 c 0.140625,-0.222657 0.386719,-0.46875 0.714844,-0.46875 0.316406,0 0.574219,0.1875 0.574219,0.5625 0,0.445312 -0.410157,0.679687 -0.960938,0.84375 l 0.03516,0.175781 c 0.09375,-0.02344 0.246094,-0.05859 0.386719,-0.05859 0.339844,0 0.761719,0.222656 0.761719,0.773438 0,0.585937 -0.304688,0.914062 -0.726563,0.914062 -0.339843,0 -0.585937,-0.175781 -0.738281,-0.316406 -0.04687,-0.03516 -0.105469,-0.03516 -0.152344,0 -0.04687,0.04687 -0.128906,0.128906 -0.128906,0.199219 -0.01172,0.07031 0.01172,0.140625 0.09375,0.222656 0.07031,0.07031 0.316406,0.199219 0.597656,0.199219 0.433594,0 1.570313,-0.445313 1.570313,-1.417969 0,-0.433594 -0.304688,-0.808594 -0.832031,-0.914063 v -0.01172 c 0.175781,-0.117188 0.316406,-0.222657 0.410156,-0.316407 0.105469,-0.117187 0.1875,-0.257812 0.1875,-0.433593 0,-0.445313 -0.363281,-0.785157 -0.902344,-0.785157 -0.316406,0 -0.585937,0.152344 -0.761719,0.339844 l -0.257812,0.375 z m 0,0"
         style="fill:#231f20;fill-opacity:1;fill-rule:nonzero;stroke:none"
         aria-label="p&#10;0&#10;p&#10;1&#10;p&#10;2&#10;p&#10;3"
         transform="matrix(1.3333333,0,0,1.3333333,101.80987,56.720667)" />
      <path
         id="path3"
         d="M 3.53516,257.133 C 477.5,731.098 1188.44,-216.816 1425.43,494.117"
         style="fill:none;stroke:#231f20;stroke-width:5;stroke-linecap:square;stroke-linejoin:miter;stroke-miterlimit:3.25;stroke-dasharray:none;stroke-opacity:1"
         transform="matrix(0.13333333,0,0,-0.13333333,0,83.106667)" />
      <path
         id="path4"
         d="M 803.352,286.754 C 1069.96,197.891 1306.94,138.648 1425.43,494.117"
         style="fill:none;stroke:#231f20;stroke-width:12.5;stroke-linecap:square;stroke-linejoin:miter;stroke-miterlimit:3.25;stroke-dasharray:none;stroke-opacity:1"
         transform="matrix(0.13333333,0,0,-0.13333333,0,83.106667)" />
      <path
         id="path5"
         d="m 818.352,286.746 c 0,3.981 -1.606,7.805 -4.399,10.602 -2.832,2.832 -6.64,4.398 -10.601,4.398 -3.965,0 -7.805,-1.566 -10.61,-4.398 -2.801,-2.797 -4.39,-6.621 -4.39,-10.602 0,-3.969 1.589,-7.766 4.39,-10.57 2.805,-2.828 6.645,-4.395 10.61,-4.395 3.961,0 7.769,1.567 10.601,4.395 2.793,2.804 4.399,6.601 4.399,10.57 v 0"
         style="fill:#231f20;fill-opacity:1;fill-rule:evenodd;stroke:none"
         transform="matrix(0.13333333,0,0,-0.13333333,0,83.106667)" />
      <path
         id="path6"
         d="m 1084.95,197.891 c 0,3.98 -1.58,7.8 -4.37,10.609 -2.86,2.805 -6.64,4.395 -10.62,4.395 -3.99,0 -7.81,-1.59 -10.6,-4.395 -2.8,-2.809 -4.41,-6.629 -4.41,-10.609 0,-3.973 1.61,-7.774 4.41,-10.606 2.79,-2.808 6.61,-4.394 10.6,-4.394 3.98,0 7.76,1.586 10.62,4.394 2.79,2.832 4.37,6.633 4.37,10.606 v 0"
         style="fill:#231f20;fill-opacity:1;fill-rule:evenodd;stroke:none"
         transform="matrix(0.13333333,0,0,-0.13333333,0,83.106667)" />
      <path
         id="path7"
         d="m 1321.92,138.648 c 0,3.981 -1.56,7.778 -4.35,10.614 -2.84,2.793 -6.65,4.398 -10.62,4.398 -3.98,0 -7.81,-1.605 -10.6,-4.398 -2.85,-2.836 -4.43,-6.633 -4.43,-10.614 0,-3.976 1.58,-7.804 4.43,-10.601 2.79,-2.813 6.62,-4.41 10.6,-4.41 3.97,0 7.78,1.597 10.62,4.41 2.79,2.797 4.35,6.625 4.35,10.601 v 0"
         style="fill:#231f20;fill-opacity:1;fill-rule:evenodd;stroke:none"
         transform="matrix(0.13333333,0,0,-0.13333333,0,83.106667)" />
      <path
         id="path8"
         d="m 1440.42,494.117 c 0,3.973 -1.59,7.805 -4.39,10.598 -2.81,2.801 -6.64,4.402 -10.6,4.402 -3.97,0 -7.77,-1.601 -10.6,-4.402 -2.8,-2.793 -4.41,-6.625 -4.41,-10.598 0,-3.976 1.61,-7.769 4.41,-10.594 2.83,-2.804 6.63,-4.406 10.6,-4.406 3.96,0 7.79,1.602 10.6,4.406 2.8,2.825 4.39,6.618 4.39,10.594 v 0"
         style="fill:#231f20;fill-opacity:1;fill-rule:evenodd;stroke:none"
         transform="matrix(0.13333333,0,0,-0.13333333,0,83.106667)" />
    </g>
  </g>
</svg>
