<?xml version="1.0" encoding="UTF-8" standalone="no"?>
<!-- Created with Inkscape (http://www.inkscape.org/) -->

<svg
   version="1.1"
   id="svg1"
   width="427.33334"
   height="87.239998"
   viewBox="0 0 427.33334 87.239998"
   sodipodi:docname="phabbf01.eps"
   xmlns:inkscape="http://www.inkscape.org/namespaces/inkscape"
   xmlns:sodipodi="http://sodipodi.sourceforge.net/DTD/sodipodi-0.dtd"
   xmlns="http://www.w3.org/2000/svg"
   xmlns:svg="http://www.w3.org/2000/svg">
  <defs
     id="defs1" />
  <sodipodi:namedview
     id="namedview1"
     pagecolor="#ffffff"
     bordercolor="#000000"
     borderopacity="0.25"
     inkscape:showpageshadow="2"
     inkscape:pageopacity="0.0"
     inkscape:pagecheckerboard="0"
     inkscape:deskcolor="#d1d1d1">
    <inkscape:page
       x="0"
       y="0"
       inkscape:label="1"
       id="page1"
       width="427.33334"
       height="87.239998"
       margin="0"
       bleed="0" />
  </sodipodi:namedview>
  <g
     id="g1"
     inkscape:groupmode="layer"
     inkscape:label="1">
    <g
       id="group-R5">
      <path
         id="path2"
         d="m 2.4019531,-6.3509234 c -1.49999998,0 -2.05078123,1.78125 -2.05078123,3.2460937 0,1.5703125 0.5390625,3.22265626 2.05078123,3.22265626 1.5,0 2.0273438,-1.78124996 2.0273438,-3.23437496 0,-1.5351563 -0.5273438,-3.234375 -2.0273438,-3.234375 z m -0.011719,0.328125 c 0.9023437,0 1.1484375,1.4882812 1.1484375,2.90625 0,1.3945312 -0.2460938,2.89453121 -1.1367188,2.89453121 -0.8671875,0 -1.1601562,-1.51171871 -1.1601562,-2.90625001 0,-1.3945312 0.234375,-2.8945312 1.1484375,-2.8945312 z m -8.5458985,6.02050777 v -0.26953125 c -0.9140625,-0.0703125 -0.9726562,-0.15234375 -0.9726562,-0.86718752 v -5.2148437 c -0.5507813,0.2226562 -1.1367188,0.4101562 -1.78125,0.5273437 v 0.2226563 l 0.4804687,0.023437 c 0.4335938,0.023437 0.4804688,0.070312 0.4804688,0.5859375 v 3.8554687 c 0,0.71484377 -0.046875,0.79687502 -0.9609375,0.86718752 v 0.26953125 z M -15.882227,-1.3938922 c -0.292968,0.62109376 -0.421875,0.66796876 -0.960937,0.66796876 h -1.875 l 1.417969,-1.48828126 c 0.925781,-0.984375 1.324218,-1.5703125 1.324218,-2.4375 0,-1.0546875 -0.796875,-1.6992187 -1.675781,-1.6992187 -0.585937,0 -1.054687,0.2695312 -1.359375,0.5976562 l -0.5625,0.8085938 0.222656,0.1992187 c 0.257813,-0.3867187 0.679688,-0.9375 1.359375,-0.9375 0.738282,0 1.171875,0.4921875 1.171875,1.3359375 0,0.8554688 -0.621093,1.6757813 -1.242187,2.4140625 -0.503906,0.5859375 -1.066406,1.14843751 -1.628906,1.69921876 V 6.390625e-4 h 3.738281 C -15.823633,-0.44467344 -15.729883,-0.88998594 -15.600977,-1.3118609 Z m -13.253906,-3.5625 c 0.246094,-0.375 0.644531,-0.7851562 1.195313,-0.7851562 0.527343,0 0.949218,0.3164062 0.949218,0.9375 0,0.7382812 -0.679687,1.125 -1.605468,1.4179687 l 0.07031,0.2929688 c 0.164063,-0.058594 0.410156,-0.1171875 0.644531,-0.1171875 0.574219,0 1.265625,0.375 1.265625,1.2890625 0,0.99609371 -0.492187,1.52343746 -1.207031,1.52343746 -0.574219,0 -0.972656,-0.28125 -1.242187,-0.515625 -0.07031,-0.0703125 -0.152344,-0.0585938 -0.234375,0 -0.09375,0.0703125 -0.222657,0.19921875 -0.234375,0.33984375 -0.01172,0.1171875 0.02344,0.22265625 0.164062,0.3515625 0.128906,0.1171875 0.539063,0.33984375 0.996094,0.33984375 0.726562,0 2.625,-0.73828125 2.625,-2.35546876 0,-0.7265625 -0.515625,-1.3476562 -1.394531,-1.5234375 v -0.011719 c 0.292968,-0.1992188 0.527343,-0.3867188 0.679687,-0.5390625 0.1875,-0.1992188 0.316406,-0.421875 0.316406,-0.7148438 0,-0.7617187 -0.597656,-1.3242187 -1.5,-1.3242187 -0.527343,0 -0.984375,0.2578125 -1.265625,0.5625 l -0.433593,0.6328125 z m -6.295898,3.1728516 v -0.46875 h -0.960938 v -4.0664063 h -0.398437 c -1.03125,1.359375 -2.050782,2.8359375 -3,4.2539063 v 0.28125 h 2.601562 v 0.7265625 c 0,0.65624997 -0.04687,0.71484372 -0.914062,0.78515622 v 0.26953125 h 2.566406 v -0.26953125 c -0.820313,-0.0703125 -0.855469,-0.1171875 -0.855469,-0.78515622 v -0.7265625 z m -1.757813,-0.46875 h -1.96875 c 0.65625,-1.1132813 1.3125,-2.0625 1.945313,-2.953125 h 0.02344 z m -11.273437,-3.2431641 h 2.320312 l 0.269531,-0.65625 -0.07031,-0.070312 h -2.847656 l -0.386719,3.046875 c 0.234375,-0.09375 0.609375,-0.1992187 1.03125,-0.1992187 1.089844,0 1.628906,0.6210937 1.628906,1.5 0,0.75 -0.421875,1.48828121 -1.265625,1.48828121 -0.609375,0 -1.019531,-0.328125 -1.230469,-0.515625 -0.105468,-0.0820313 -0.1875,-0.0703125 -0.269531,0 -0.117187,0.10546875 -0.199219,0.234375 -0.210937,0.328125 -0.02344,0.12890625 0.02344,0.19921875 0.152343,0.33984375 0.152344,0.140625 0.574219,0.3515625 1.03125,0.3515625 0.539063,-0.0117188 1.207032,-0.26953125 1.746094,-0.703125 0.609375,-0.50390626 0.890625,-1.07812496 0.890625,-1.67578126 0,-0.8203125 -0.65625,-1.6875 -1.933594,-1.6875 -0.269531,0 -0.738281,0.1640625 -1.125,0.3046875 z m -10.151367,2.0595703 c 0.292968,-1.3828125 1.230468,-2.015625 1.839843,-2.3085937 0.363282,-0.1640625 0.761719,-0.28125 1.089844,-0.3398438 l -0.07031,-0.328125 c -0.398438,0.070312 -0.878907,0.1875 -1.277344,0.328125 -1.066406,0.3867188 -2.578125,1.5117188 -2.578125,3.703125 0,1.53515627 0.878906,2.49609377 2.039062,2.49609377 1.207032,0 2.050782,-1.0078125 2.050782,-2.19140627 0,-1.03125 -0.726563,-1.8515625 -1.792969,-1.8515625 -0.199219,0 -0.410156,0.070312 -0.632813,0.1640625 z m 0.902343,0.070312 c 0.914063,0 1.335938,0.8085938 1.335938,1.640625 0,0.6679688 -0.246094,1.50000002 -1.019531,1.50000002 -0.820313,0 -1.335938,-0.97265622 -1.335938,-2.17968752 0,-0.2578125 0.01172,-0.4921875 0.07031,-0.6914062 0.234375,-0.1289063 0.574218,-0.2695313 0.949218,-0.2695313 z m -7.804687,-2.859375 h -3.820313 c -0.03516,0.421875 -0.08203,0.9257813 -0.175781,1.4765625 h 0.292969 c 0.234375,-0.65625 0.292969,-0.75 0.960937,-0.75 h 2.15625 c -0.785156,1.734375 -1.921875,3.8085938 -2.964843,5.50781252 l 0.07031,0.10546875 0.738281,-0.09375 c 0.960938,-2.06249997 1.886719,-4.10156247 2.824219,-6.12890627 z m -11.979492,-0.1259765 c -1.078125,0 -1.78125,0.8085937 -1.78125,1.640625 0,0.703125 0.421875,1.1835937 1.078125,1.546875 -0.339844,0.2226562 -0.726563,0.4921875 -0.878907,0.6445312 -0.222656,0.2109375 -0.457031,0.4921875 -0.457031,0.9492188 0,1.06640621 0.855469,1.68749996 1.921875,1.68749996 0.855469,0 1.980469,-0.6328125 1.980469,-1.80468746 0,-0.8671875 -0.632813,-1.3476563 -1.324219,-1.7460938 0.457031,-0.3046875 0.726563,-0.5390625 0.796875,-0.6328125 0.1875,-0.2226562 0.292969,-0.515625 0.292969,-0.796875 0,-0.8203125 -0.679688,-1.4882812 -1.628906,-1.4882812 z m -0.105469,0.328125 c 0.457031,0 0.984375,0.3632812 0.984375,1.2070312 0,0.5976563 -0.269531,0.9726563 -0.609375,1.2421875 -0.714844,-0.3515625 -1.300781,-0.6796875 -1.300781,-1.4179687 0,-0.515625 0.339843,-1.03125 0.925781,-1.03125 z m 0.09375,5.82421871 c -0.632813,0 -1.21875,-0.515625 -1.21875,-1.42968751 0,-0.5507812 0.339844,-1.0546875 0.820312,-1.3710937 0.761719,0.3867187 1.476563,0.8203125 1.476563,1.5703125 0,0.77343746 -0.46875,1.23046871 -1.078125,1.23046871 z M -87.562891,-6.3509234 c -1.289062,0 -2.039062,1.171875 -2.039062,2.1328125 0,1.0546875 0.738281,1.828125 1.792969,1.828125 0.1875,0 0.386718,-0.035156 0.597656,-0.1640625 l 0.667969,-0.3515625 c -0.328125,1.5117187 -1.417969,2.51953121 -2.847657,2.75390621 l 0.05859,0.3046875 c 0.246094,0 0.855469,-0.10546875 1.394531,-0.328125 1.347657,-0.5390625 2.355469,-1.82812501 2.355469,-3.66796871 0,-1.359375 -0.726562,-2.5078125 -1.980469,-2.5078125 z m -0.128906,0.328125 c 0.972656,0 1.230469,1.2421875 1.230469,2.1210937 0,0.1992188 -0.01172,0.4453125 -0.03516,0.6679688 -0.210938,0.1523437 -0.550782,0.28125 -0.902344,0.28125 -0.84375,0 -1.335938,-0.7382813 -1.335938,-1.6171875 0,-0.5859375 0.28125,-1.453125 1.042969,-1.453125 z m -8.663086,3.4921875 h -2.285156 l -0.140625,0.5507812 h 2.273437 z m -9.996097,-0.00293 h -2.28515 l -0.14063,0.5507812 h 2.27344 z m -9.99902,0 h -2.28516 l -0.14062,0.5507812 h 2.27344 z m -9.99902,0 h -2.28516 l -0.14062,0.5507812 h 2.27343 z m -9.9961,0 h -2.28515 l -0.14063,0.5507812 h 2.27344 z m -9.99902,0.00293 h -2.28516 l -0.14062,0.5507812 h 2.27344 z m -9.99609,-0.00293 h -2.28516 l -0.14063,0.5507812 h 2.27344 z m -9.99903,0.00293 h -2.28515 l -0.14063,0.5507812 h 2.27344 z m -9.99609,-0.00293 h -2.28516 l -0.14062,0.5507812 h 2.27343 z m -9.9961,0.00293 h -2.28515 l -0.14063,0.5507812 h 2.27344 z m -9.99902,0 h -2.28516 l -0.14062,0.5507812 h 2.27344 z m -9.99902,0 h -2.28516 l -0.14062,0.5507812 h 2.27343 z m -9.9961,0 h -2.28515 l -0.14063,0.5507812 h 2.27344 z m -9.99609,-0.00293 h -2.28516 l -0.14062,0.5507812 h 2.27344 z m -9.99902,0 h -2.28516 l -0.14062,0.5507812 h 2.27343 z m -9.9961,0 h -2.28515 l -0.14063,0.5507812 h 2.27344 z m -9.99902,0.00293 h -2.28516 l -0.14062,0.5507812 h 2.27344 z m -9.99609,0 h -2.28516 l -0.14063,0.5507812 h 2.27344 z m -9.99903,-0.00293 h -2.28515 l -0.14063,0.5507812 h 2.27344 z m -9.99609,0 h -2.28516 l -0.14062,0.5507812 h 2.27343 z m -9.99902,0.00293 h -2.28516 l -0.14063,0.5507812 h 2.27344 z m -9.9961,-0.00293 h -2.28515 l -0.14063,0.5507812 h 2.27344 z m 0,0"
         style="fill:#231f20;fill-opacity:1;fill-rule:nonzero;stroke:none"
         aria-label="0&#10;1&#10;23&#10;4&#10;5&#10;67&#10;89-&#10;----&#10;-&#10;-&#10;-&#10;-&#10;----&#10;---&#10;--&#10;--&#10;-&#10;-"
         transform="matrix(1.3333333,0,0,1.3333333,417.13333,14.885867)" />
      <path
         id="path3"
         d="M 3202.5,500.867 H 2.5 v 150.918 h 3200 z"
         style="fill:none;stroke:#231f20;stroke-width:5;stroke-linecap:butt;stroke-linejoin:miter;stroke-miterlimit:10;stroke-dasharray:none;stroke-opacity:1"
         transform="matrix(0.13333333,0,0,-0.13333333,0,87.24)" />
      <path
         id="path4"
         d="M 3101.32,651.816 V 503.152"
         style="fill:none;stroke:#231f20;stroke-width:5;stroke-linecap:butt;stroke-linejoin:miter;stroke-miterlimit:10;stroke-dasharray:none;stroke-opacity:1"
         transform="matrix(0.13333333,0,0,-0.13333333,0,87.24)" />
      <path
         id="path5"
         d="M 3001.25,651.816 V 503.152"
         style="fill:none;stroke:#231f20;stroke-width:5;stroke-linecap:butt;stroke-linejoin:miter;stroke-miterlimit:10;stroke-dasharray:none;stroke-opacity:1"
         transform="matrix(0.13333333,0,0,-0.13333333,0,87.24)" />
      <path
         id="path6"
         d="M 2901.16,651.816 V 503.152"
         style="fill:none;stroke:#231f20;stroke-width:5;stroke-linecap:butt;stroke-linejoin:miter;stroke-miterlimit:10;stroke-dasharray:none;stroke-opacity:1"
         transform="matrix(0.13333333,0,0,-0.13333333,0,87.24)" />
      <path
         id="path7"
         d="M 2801.1,651.816 V 503.152"
         style="fill:none;stroke:#231f20;stroke-width:5;stroke-linecap:butt;stroke-linejoin:miter;stroke-miterlimit:10;stroke-dasharray:none;stroke-opacity:1"
         transform="matrix(0.13333333,0,0,-0.13333333,0,87.24)" />
      <path
         id="path8"
         d="M 2701.04,651.816 V 503.152"
         style="fill:none;stroke:#231f20;stroke-width:5;stroke-linecap:butt;stroke-linejoin:miter;stroke-miterlimit:10;stroke-dasharray:none;stroke-opacity:1"
         transform="matrix(0.13333333,0,0,-0.13333333,0,87.24)" />
      <path
         id="path9"
         d="M 2600.96,651.816 V 503.152"
         style="fill:none;stroke:#231f20;stroke-width:5;stroke-linecap:butt;stroke-linejoin:miter;stroke-miterlimit:10;stroke-dasharray:none;stroke-opacity:1"
         transform="matrix(0.13333333,0,0,-0.13333333,0,87.24)" />
      <path
         id="path10"
         d="M 2500.9,651.816 V 503.152"
         style="fill:none;stroke:#231f20;stroke-width:5;stroke-linecap:butt;stroke-linejoin:miter;stroke-miterlimit:10;stroke-dasharray:none;stroke-opacity:1"
         transform="matrix(0.13333333,0,0,-0.13333333,0,87.24)" />
      <path
         id="path11"
         d="M 2400.83,651.816 V 503.152"
         style="fill:none;stroke:#231f20;stroke-width:5;stroke-linecap:butt;stroke-linejoin:miter;stroke-miterlimit:10;stroke-dasharray:none;stroke-opacity:1"
         transform="matrix(0.13333333,0,0,-0.13333333,0,87.24)" />
      <path
         id="path12"
         d="M 2300.74,651.816 V 503.152"
         style="fill:none;stroke:#231f20;stroke-width:5;stroke-linecap:butt;stroke-linejoin:miter;stroke-miterlimit:10;stroke-dasharray:none;stroke-opacity:1"
         transform="matrix(0.13333333,0,0,-0.13333333,0,87.24)" />
      <path
         id="path13"
         d="M 2200.67,651.816 V 503.152"
         style="fill:none;stroke:#231f20;stroke-width:5;stroke-linecap:butt;stroke-linejoin:miter;stroke-miterlimit:10;stroke-dasharray:none;stroke-opacity:1"
         transform="matrix(0.13333333,0,0,-0.13333333,0,87.24)" />
      <path
         id="path14"
         d="M 2100.61,651.816 V 503.152"
         style="fill:none;stroke:#231f20;stroke-width:5;stroke-linecap:butt;stroke-linejoin:miter;stroke-miterlimit:10;stroke-dasharray:none;stroke-opacity:1"
         transform="matrix(0.13333333,0,0,-0.13333333,0,87.24)" />
      <path
         id="path15"
         d="M 2000.54,651.816 V 503.152"
         style="fill:none;stroke:#231f20;stroke-width:5;stroke-linecap:butt;stroke-linejoin:miter;stroke-miterlimit:10;stroke-dasharray:none;stroke-opacity:1"
         transform="matrix(0.13333333,0,0,-0.13333333,0,87.24)" />
      <path
         id="path16"
         d="M 1900.46,651.816 V 503.152"
         style="fill:none;stroke:#231f20;stroke-width:5;stroke-linecap:butt;stroke-linejoin:miter;stroke-miterlimit:10;stroke-dasharray:none;stroke-opacity:1"
         transform="matrix(0.13333333,0,0,-0.13333333,0,87.24)" />
      <path
         id="path17"
         d="M 1800.39,651.816 V 503.152"
         style="fill:none;stroke:#231f20;stroke-width:5;stroke-linecap:butt;stroke-linejoin:miter;stroke-miterlimit:10;stroke-dasharray:none;stroke-opacity:1"
         transform="matrix(0.13333333,0,0,-0.13333333,0,87.24)" />
      <path
         id="path18"
         d="M 1700.33,651.816 V 503.152"
         style="fill:none;stroke:#231f20;stroke-width:5;stroke-linecap:butt;stroke-linejoin:miter;stroke-miterlimit:10;stroke-dasharray:none;stroke-opacity:1"
         transform="matrix(0.13333333,0,0,-0.13333333,0,87.24)" />
      <path
         id="path19"
         d="M 1600.25,651.816 V 503.152"
         style="fill:none;stroke:#231f20;stroke-width:5;stroke-linecap:butt;stroke-linejoin:miter;stroke-miterlimit:10;stroke-dasharray:none;stroke-opacity:1"
         transform="matrix(0.13333333,0,0,-0.13333333,0,87.24)" />
      <path
         id="path20"
         d="M 1500.17,651.816 V 503.152"
         style="fill:none;stroke:#231f20;stroke-width:5;stroke-linecap:butt;stroke-linejoin:miter;stroke-miterlimit:10;stroke-dasharray:none;stroke-opacity:1"
         transform="matrix(0.13333333,0,0,-0.13333333,0,87.24)" />
      <path
         id="path21"
         d="M 1400.1,651.816 V 503.152"
         style="fill:none;stroke:#231f20;stroke-width:5;stroke-linecap:butt;stroke-linejoin:miter;stroke-miterlimit:10;stroke-dasharray:none;stroke-opacity:1"
         transform="matrix(0.13333333,0,0,-0.13333333,0,87.24)" />
      <path
         id="path22"
         d="M 1300.04,651.816 V 503.152"
         style="fill:none;stroke:#231f20;stroke-width:5;stroke-linecap:butt;stroke-linejoin:miter;stroke-miterlimit:10;stroke-dasharray:none;stroke-opacity:1"
         transform="matrix(0.13333333,0,0,-0.13333333,0,87.24)" />
      <path
         id="path23"
         d="M 1199.96,651.816 V 503.152"
         style="fill:none;stroke:#231f20;stroke-width:5;stroke-linecap:butt;stroke-linejoin:miter;stroke-miterlimit:10;stroke-dasharray:none;stroke-opacity:1"
         transform="matrix(0.13333333,0,0,-0.13333333,0,87.24)" />
      <path
         id="path24"
         d="M 1099.89,651.816 V 503.152"
         style="fill:none;stroke:#231f20;stroke-width:5;stroke-linecap:butt;stroke-linejoin:miter;stroke-miterlimit:10;stroke-dasharray:none;stroke-opacity:1"
         transform="matrix(0.13333333,0,0,-0.13333333,0,87.24)" />
      <path
         id="path25"
         d="M 999.824,651.816 V 503.152"
         style="fill:none;stroke:#231f20;stroke-width:5;stroke-linecap:butt;stroke-linejoin:miter;stroke-miterlimit:10;stroke-dasharray:none;stroke-opacity:1"
         transform="matrix(0.13333333,0,0,-0.13333333,0,87.24)" />
      <path
         id="path26"
         d="M 899.75,651.816 V 503.152"
         style="fill:none;stroke:#231f20;stroke-width:5;stroke-linecap:butt;stroke-linejoin:miter;stroke-miterlimit:10;stroke-dasharray:none;stroke-opacity:1"
         transform="matrix(0.13333333,0,0,-0.13333333,0,87.24)" />
      <path
         id="path27"
         d="M 799.68,651.816 V 503.152"
         style="fill:none;stroke:#231f20;stroke-width:5;stroke-linecap:butt;stroke-linejoin:miter;stroke-miterlimit:10;stroke-dasharray:none;stroke-opacity:1"
         transform="matrix(0.13333333,0,0,-0.13333333,0,87.24)" />
      <path
         id="path28"
         d="M 699.605,651.816 V 503.152"
         style="fill:none;stroke:#231f20;stroke-width:5;stroke-linecap:butt;stroke-linejoin:miter;stroke-miterlimit:10;stroke-dasharray:none;stroke-opacity:1"
         transform="matrix(0.13333333,0,0,-0.13333333,0,87.24)" />
      <path
         id="path29"
         d="M 599.535,651.816 V 503.152"
         style="fill:none;stroke:#231f20;stroke-width:5;stroke-linecap:butt;stroke-linejoin:miter;stroke-miterlimit:10;stroke-dasharray:none;stroke-opacity:1"
         transform="matrix(0.13333333,0,0,-0.13333333,0,87.24)" />
      <path
         id="path30"
         d="M 499.457,651.816 V 503.152"
         style="fill:none;stroke:#231f20;stroke-width:5;stroke-linecap:butt;stroke-linejoin:miter;stroke-miterlimit:10;stroke-dasharray:none;stroke-opacity:1"
         transform="matrix(0.13333333,0,0,-0.13333333,0,87.24)" />
      <path
         id="path31"
         d="M 399.391,651.816 V 503.152"
         style="fill:none;stroke:#231f20;stroke-width:5;stroke-linecap:butt;stroke-linejoin:miter;stroke-miterlimit:10;stroke-dasharray:none;stroke-opacity:1"
         transform="matrix(0.13333333,0,0,-0.13333333,0,87.24)" />
      <path
         id="path32"
         d="M 299.32,651.816 V 503.152"
         style="fill:none;stroke:#231f20;stroke-width:5;stroke-linecap:butt;stroke-linejoin:miter;stroke-miterlimit:10;stroke-dasharray:none;stroke-opacity:1"
         transform="matrix(0.13333333,0,0,-0.13333333,0,87.24)" />
      <path
         id="path33"
         d="M 199.242,651.816 V 503.152"
         style="fill:none;stroke:#231f20;stroke-width:5;stroke-linecap:butt;stroke-linejoin:miter;stroke-miterlimit:10;stroke-dasharray:none;stroke-opacity:1"
         transform="matrix(0.13333333,0,0,-0.13333333,0,87.24)" />
      <path
         id="path34"
         d="M 99.1797,651.816 V 503.152"
         style="fill:none;stroke:#231f20;stroke-width:5;stroke-linecap:butt;stroke-linejoin:miter;stroke-miterlimit:10;stroke-dasharray:none;stroke-opacity:1"
         transform="matrix(0.13333333,0,0,-0.13333333,0,87.24)" />
      <path
         id="path35"
         d="M 3202.5,2.5 H 2.5 v 150.922 h 3200 z"
         style="fill:none;stroke:#231f20;stroke-width:5;stroke-linecap:butt;stroke-linejoin:miter;stroke-miterlimit:10;stroke-dasharray:none;stroke-opacity:1"
         transform="matrix(0.13333333,0,0,-0.13333333,0,87.24)" />
      <path
         id="path36"
         d="M 3101.32,153.445 V 4.78906"
         style="fill:none;stroke:#231f20;stroke-width:5;stroke-linecap:butt;stroke-linejoin:miter;stroke-miterlimit:10;stroke-dasharray:none;stroke-opacity:1"
         transform="matrix(0.13333333,0,0,-0.13333333,0,87.24)" />
      <path
         id="path37"
         d="M 3001.25,153.445 V 4.78906"
         style="fill:none;stroke:#231f20;stroke-width:5;stroke-linecap:butt;stroke-linejoin:miter;stroke-miterlimit:10;stroke-dasharray:none;stroke-opacity:1"
         transform="matrix(0.13333333,0,0,-0.13333333,0,87.24)" />
      <path
         id="path38"
         d="M 2901.16,153.445 V 4.78906"
         style="fill:none;stroke:#231f20;stroke-width:5;stroke-linecap:butt;stroke-linejoin:miter;stroke-miterlimit:10;stroke-dasharray:none;stroke-opacity:1"
         transform="matrix(0.13333333,0,0,-0.13333333,0,87.24)" />
      <path
         id="path39"
         d="M 2801.1,153.445 V 4.78906"
         style="fill:none;stroke:#231f20;stroke-width:5;stroke-linecap:butt;stroke-linejoin:miter;stroke-miterlimit:10;stroke-dasharray:none;stroke-opacity:1"
         transform="matrix(0.13333333,0,0,-0.13333333,0,87.24)" />
      <path
         id="path40"
         d="M 2701.04,153.445 V 4.78906"
         style="fill:none;stroke:#231f20;stroke-width:5;stroke-linecap:butt;stroke-linejoin:miter;stroke-miterlimit:10;stroke-dasharray:none;stroke-opacity:1"
         transform="matrix(0.13333333,0,0,-0.13333333,0,87.24)" />
      <path
         id="path41"
         d="M 2600.96,153.445 V 4.78906"
         style="fill:none;stroke:#231f20;stroke-width:5;stroke-linecap:butt;stroke-linejoin:miter;stroke-miterlimit:10;stroke-dasharray:none;stroke-opacity:1"
         transform="matrix(0.13333333,0,0,-0.13333333,0,87.24)" />
      <path
         id="path42"
         d="M 2500.9,153.445 V 4.78906"
         style="fill:none;stroke:#231f20;stroke-width:5;stroke-linecap:butt;stroke-linejoin:miter;stroke-miterlimit:10;stroke-dasharray:none;stroke-opacity:1"
         transform="matrix(0.13333333,0,0,-0.13333333,0,87.24)" />
      <path
         id="path43"
         d="M 2400.83,153.445 V 4.78906"
         style="fill:none;stroke:#231f20;stroke-width:5;stroke-linecap:butt;stroke-linejoin:miter;stroke-miterlimit:10;stroke-dasharray:none;stroke-opacity:1"
         transform="matrix(0.13333333,0,0,-0.13333333,0,87.24)" />
      <path
         id="path44"
         d="M 2300.74,153.445 V 4.78906"
         style="fill:none;stroke:#231f20;stroke-width:5;stroke-linecap:butt;stroke-linejoin:miter;stroke-miterlimit:10;stroke-dasharray:none;stroke-opacity:1"
         transform="matrix(0.13333333,0,0,-0.13333333,0,87.24)" />
      <path
         id="path45"
         d="M 2200.67,153.445 V 4.78906"
         style="fill:none;stroke:#231f20;stroke-width:5;stroke-linecap:butt;stroke-linejoin:miter;stroke-miterlimit:10;stroke-dasharray:none;stroke-opacity:1"
         transform="matrix(0.13333333,0,0,-0.13333333,0,87.24)" />
      <path
         id="path46"
         d="M 2100.61,153.445 V 4.78906"
         style="fill:none;stroke:#231f20;stroke-width:5;stroke-linecap:butt;stroke-linejoin:miter;stroke-miterlimit:10;stroke-dasharray:none;stroke-opacity:1"
         transform="matrix(0.13333333,0,0,-0.13333333,0,87.24)" />
      <path
         id="path47"
         d="M 2000.54,153.445 V 4.78906"
         style="fill:none;stroke:#231f20;stroke-width:5;stroke-linecap:butt;stroke-linejoin:miter;stroke-miterlimit:10;stroke-dasharray:none;stroke-opacity:1"
         transform="matrix(0.13333333,0,0,-0.13333333,0,87.24)" />
      <path
         id="path48"
         d="M 1900.46,153.445 V 4.78906"
         style="fill:none;stroke:#231f20;stroke-width:5;stroke-linecap:butt;stroke-linejoin:miter;stroke-miterlimit:10;stroke-dasharray:none;stroke-opacity:1"
         transform="matrix(0.13333333,0,0,-0.13333333,0,87.24)" />
      <path
         id="path49"
         d="M 1800.39,153.445 V 4.78906"
         style="fill:none;stroke:#231f20;stroke-width:5;stroke-linecap:butt;stroke-linejoin:miter;stroke-miterlimit:10;stroke-dasharray:none;stroke-opacity:1"
         transform="matrix(0.13333333,0,0,-0.13333333,0,87.24)" />
      <path
         id="path50"
         d="M 1700.33,153.445 V 4.78906"
         style="fill:none;stroke:#231f20;stroke-width:5;stroke-linecap:butt;stroke-linejoin:miter;stroke-miterlimit:10;stroke-dasharray:none;stroke-opacity:1"
         transform="matrix(0.13333333,0,0,-0.13333333,0,87.24)" />
      <path
         id="path51"
         d="M 1600.25,153.445 V 4.78906"
         style="fill:none;stroke:#231f20;stroke-width:5;stroke-linecap:butt;stroke-linejoin:miter;stroke-miterlimit:10;stroke-dasharray:none;stroke-opacity:1"
         transform="matrix(0.13333333,0,0,-0.13333333,0,87.24)" />
      <path
         id="path52"
         d="M 1500.17,153.445 V 4.78906"
         style="fill:none;stroke:#231f20;stroke-width:5;stroke-linecap:butt;stroke-linejoin:miter;stroke-miterlimit:10;stroke-dasharray:none;stroke-opacity:1"
         transform="matrix(0.13333333,0,0,-0.13333333,0,87.24)" />
      <path
         id="path53"
         d="M 1400.1,153.445 V 4.78906"
         style="fill:none;stroke:#231f20;stroke-width:5;stroke-linecap:butt;stroke-linejoin:miter;stroke-miterlimit:10;stroke-dasharray:none;stroke-opacity:1"
         transform="matrix(0.13333333,0,0,-0.13333333,0,87.24)" />
      <path
         id="path54"
         d="M 1300.04,153.445 V 4.78906"
         style="fill:none;stroke:#231f20;stroke-width:5;stroke-linecap:butt;stroke-linejoin:miter;stroke-miterlimit:10;stroke-dasharray:none;stroke-opacity:1"
         transform="matrix(0.13333333,0,0,-0.13333333,0,87.24)" />
      <path
         id="path55"
         d="M 1199.96,153.445 V 4.78906"
         style="fill:none;stroke:#231f20;stroke-width:5;stroke-linecap:butt;stroke-linejoin:miter;stroke-miterlimit:10;stroke-dasharray:none;stroke-opacity:1"
         transform="matrix(0.13333333,0,0,-0.13333333,0,87.24)" />
      <path
         id="path56"
         d="M 1099.89,153.445 V 4.78906"
         style="fill:none;stroke:#231f20;stroke-width:5;stroke-linecap:butt;stroke-linejoin:miter;stroke-miterlimit:10;stroke-dasharray:none;stroke-opacity:1"
         transform="matrix(0.13333333,0,0,-0.13333333,0,87.24)" />
      <path
         id="path57"
         d="M 999.824,153.445 V 4.78906"
         style="fill:none;stroke:#231f20;stroke-width:5;stroke-linecap:butt;stroke-linejoin:miter;stroke-miterlimit:10;stroke-dasharray:none;stroke-opacity:1"
         transform="matrix(0.13333333,0,0,-0.13333333,0,87.24)" />
      <path
         id="path58"
         d="M 899.75,153.445 V 4.78906"
         style="fill:none;stroke:#231f20;stroke-width:5;stroke-linecap:butt;stroke-linejoin:miter;stroke-miterlimit:10;stroke-dasharray:none;stroke-opacity:1"
         transform="matrix(0.13333333,0,0,-0.13333333,0,87.24)" />
      <path
         id="path59"
         d="M 799.68,153.445 V 4.78906"
         style="fill:none;stroke:#231f20;stroke-width:5;stroke-linecap:butt;stroke-linejoin:miter;stroke-miterlimit:10;stroke-dasharray:none;stroke-opacity:1"
         transform="matrix(0.13333333,0,0,-0.13333333,0,87.24)" />
      <path
         id="path60"
         d="M 699.605,153.445 V 4.78906"
         style="fill:none;stroke:#231f20;stroke-width:5;stroke-linecap:butt;stroke-linejoin:miter;stroke-miterlimit:10;stroke-dasharray:none;stroke-opacity:1"
         transform="matrix(0.13333333,0,0,-0.13333333,0,87.24)" />
      <path
         id="path61"
         d="M 599.535,153.445 V 4.78906"
         style="fill:none;stroke:#231f20;stroke-width:5;stroke-linecap:butt;stroke-linejoin:miter;stroke-miterlimit:10;stroke-dasharray:none;stroke-opacity:1"
         transform="matrix(0.13333333,0,0,-0.13333333,0,87.24)" />
      <path
         id="path62"
         d="M 499.457,153.445 V 4.78906"
         style="fill:none;stroke:#231f20;stroke-width:5;stroke-linecap:butt;stroke-linejoin:miter;stroke-miterlimit:10;stroke-dasharray:none;stroke-opacity:1"
         transform="matrix(0.13333333,0,0,-0.13333333,0,87.24)" />
      <path
         id="path63"
         d="M 399.391,153.445 V 4.78906"
         style="fill:none;stroke:#231f20;stroke-width:5;stroke-linecap:butt;stroke-linejoin:miter;stroke-miterlimit:10;stroke-dasharray:none;stroke-opacity:1"
         transform="matrix(0.13333333,0,0,-0.13333333,0,87.24)" />
      <path
         id="path64"
         d="M 299.32,153.445 V 4.78906"
         style="fill:none;stroke:#231f20;stroke-width:5;stroke-linecap:butt;stroke-linejoin:miter;stroke-miterlimit:10;stroke-dasharray:none;stroke-opacity:1"
         transform="matrix(0.13333333,0,0,-0.13333333,0,87.24)" />
      <path
         id="path65"
         d="M 199.242,153.445 V 4.78906"
         style="fill:none;stroke:#231f20;stroke-width:5;stroke-linecap:butt;stroke-linejoin:miter;stroke-miterlimit:10;stroke-dasharray:none;stroke-opacity:1"
         transform="matrix(0.13333333,0,0,-0.13333333,0,87.24)" />
      <path
         id="path66"
         d="M 99.1797,153.445 V 4.78906"
         style="fill:none;stroke:#231f20;stroke-width:5;stroke-linecap:butt;stroke-linejoin:miter;stroke-miterlimit:10;stroke-dasharray:none;stroke-opacity:1"
         transform="matrix(0.13333333,0,0,-0.13333333,0,87.24)" />
      <path
         id="path67"
         d="m 2.4019531,-6.3508978 c -1.49999998,0 -2.05078123,1.78125 -2.05078123,3.2460937 0,1.5703125 0.5390625,3.22265629 2.05078123,3.22265629 1.5,0 2.0273438,-1.78124999 2.0273438,-3.23437499 0,-1.5351563 -0.5273438,-3.234375 -2.0273438,-3.234375 z m -0.011719,0.328125 c 0.9023437,0 1.1484375,1.4882812 1.1484375,2.90625 0,1.3945312 -0.2460938,2.89453124 -1.1367188,2.89453124 -0.8671875,0 -1.1601562,-1.51171874 -1.1601562,-2.90625004 0,-1.3945312 0.234375,-2.8945312 1.1484375,-2.8945312 z M -6.38125,-2.5305853 h -2.2851563 l -0.140625,0.5507812 h 2.2734375 z m -9.999023,0 h -2.285157 l -0.140625,0.5507812 h 2.273438 z M -26.156641,6.646875e-4 V -0.26886656 c -0.914062,-0.0703125 -0.972656,-0.15234375 -0.972656,-0.86718754 v -5.2148437 c -0.550781,0.2226562 -1.136719,0.4101562 -1.78125,0.5273437 v 0.2226563 l 0.480469,0.023437 c 0.433594,0.023437 0.480469,0.070312 0.480469,0.5859375 v 3.8554687 c 0,0.71484379 -0.04687,0.79687504 -0.960938,0.86718754 V 6.646875e-4 Z M -36.38125,-2.5305853 h -2.285156 l -0.140625,0.5507812 h 2.273437 z m -9.999023,0 h -2.285157 l -0.140625,0.5507812 h 2.273438 z m -9.506836,1.1367187 c -0.292969,0.62109379 -0.421875,0.66796879 -0.960938,0.66796879 h -1.875 l 1.417969,-1.48828129 c 0.925781,-0.984375 1.324219,-1.5703125 1.324219,-2.4375 0,-1.0546875 -0.796875,-1.6992187 -1.675782,-1.6992187 -0.585937,0 -1.054687,0.2695312 -1.359375,0.5976562 l -0.5625,0.8085938 0.222657,0.1992187 c 0.257812,-0.3867187 0.679687,-0.9375 1.359375,-0.9375 0.738281,0 1.171875,0.4921875 1.171875,1.3359375 0,0.8554688 -0.621094,1.6757813 -1.242188,2.4140625 -0.503906,0.5859375 -1.066406,1.14843754 -1.628906,1.69921879 V 6.646875e-4 h 3.738281 C -55.828516,-0.44464781 -55.734766,-0.88996031 -55.605859,-1.3118353 Z M -66.38125,-2.5305853 h -2.285156 l -0.140625,0.5507812 h 2.273437 z m -9.999023,0 h -2.285157 l -0.140625,0.5507812 h 2.273438 z m -12.764649,-2.4257813 c 0.246094,-0.375 0.644531,-0.7851562 1.195313,-0.7851562 0.527343,0 0.949218,0.3164062 0.949218,0.9375 0,0.7382812 -0.679687,1.125 -1.605468,1.4179687 l 0.07031,0.2929688 c 0.164063,-0.058594 0.410156,-0.1171875 0.644531,-0.1171875 0.574219,0 1.265625,0.375 1.265625,1.2890625 0,0.99609374 -0.492187,1.52343749 -1.207031,1.52343749 -0.574219,0 -0.972656,-0.28125 -1.242187,-0.515625 -0.07031,-0.0703125 -0.152344,-0.0585938 -0.234375,0 -0.09375,0.0703125 -0.222657,0.19921875 -0.234375,0.33984375 -0.01172,0.1171875 0.02344,0.22265625 0.164062,0.3515625 0.128906,0.1171875 0.539063,0.33984375 0.996094,0.33984375 0.726562,0 2.625,-0.73828125 2.625,-2.35546879 0,-0.7265625 -0.515625,-1.3476562 -1.394531,-1.5234375 v -0.011719 c 0.292968,-0.1992188 0.527343,-0.3867188 0.679687,-0.5390625 0.1875,-0.1992188 0.316406,-0.421875 0.316406,-0.7148438 0,-0.7617187 -0.597656,-1.3242187 -1.5,-1.3242187 -0.527343,0 -0.984375,0.2578125 -1.265625,0.5625 l -0.433593,0.6328125 z m -7.236328,2.4257813 h -2.285156 l -0.140625,0.5507812 h 2.273437 z m -9.99902,0 h -2.28516 l -0.14062,0.5507812 h 2.27343 z m -9.06153,0.75 v -0.46875 h -0.96093 v -4.0664063 h -0.39844 c -1.03125,1.359375 -2.05078,2.8359375 -3,4.2539063 v 0.28125 h 2.60156 v 0.7265625 c 0,0.65624999 -0.0469,0.71484374 -0.91406,0.78515624 V 6.646875e-4 h 2.5664 V -0.26886656 c -0.82031,-0.0703125 -0.85546,-0.1171875 -0.85546,-0.78515624 v -0.7265625 z m -1.75781,-0.46875 h -1.96875 c 0.65625,-1.1132813 1.3125,-2.0625 1.94531,-2.953125 h 0.0234 z m -9.18164,-0.28125 h -2.28516 l -0.14062,0.5507812 h 2.27344 z m -9.99902,0 h -2.28516 l -0.14062,0.5507812 h 2.27343 z m -12.09668,-2.9648438 h 2.32031 l 0.26953,-0.65625 -0.0703,-0.070312 h -2.84766 l -0.38672,3.046875 c 0.23438,-0.09375 0.60938,-0.1992187 1.03125,-0.1992187 1.08985,0 1.62891,0.6210937 1.62891,1.5 0,0.75 -0.42188,1.48828124 -1.26563,1.48828124 -0.60937,0 -1.01953,-0.328125 -1.23046,-0.515625 -0.10547,-0.0820313 -0.1875,-0.0703125 -0.26954,0 -0.11718,0.10546875 -0.19921,0.234375 -0.21093,0.328125 -0.0234,0.12890625 0.0234,0.19921875 0.15234,0.33984375 0.15234,0.140625 0.57422,0.3515625 1.03125,0.3515625 0.53906,-0.0117188 1.20703,-0.26953125 1.74609,-0.703125 0.60938,-0.50390629 0.89063,-1.07812499 0.89063,-1.67578129 0,-0.8203125 -0.65625,-1.6875 -1.93359,-1.6875 -0.26954,0 -0.73829,0.1640625 -1.125,0.3046875 z m -7.9043,2.9648438 h -2.28516 l -0.14062,0.5507812 h 2.27344 z m -9.99902,0 h -2.28516 l -0.14062,0.5507812 h 2.27343 z m -12.24903,-0.9023438 c 0.29297,-1.3828125 1.23047,-2.015625 1.83985,-2.3085937 0.36328,-0.1640625 0.76172,-0.28125 1.08984,-0.3398438 l -0.0703,-0.328125 c -0.39844,0.070312 -0.87891,0.1875 -1.27735,0.328125 -1.0664,0.3867188 -2.57812,1.5117188 -2.57812,3.703125 0,1.53515629 0.87891,2.49609379 2.03906,2.49609379 1.20703,0 2.05078,-1.0078125 2.05078,-2.19140629 0,-1.03125 -0.72656,-1.8515625 -1.79297,-1.8515625 -0.19921,0 -0.41015,0.070312 -0.63281,0.1640625 z m 0.90235,0.070312 c 0.91406,0 1.33593,0.8085938 1.33593,1.640625 0,0.6679688 -0.24609,1.50000004 -1.01953,1.50000004 -0.82031,0 -1.33593,-0.97265624 -1.33593,-2.17968754 0,-0.2578125 0.0117,-0.4921875 0.0703,-0.6914062 0.23437,-0.1289063 0.57422,-0.2695313 0.94922,-0.2695313 z m -8.6543,0.8320313 h -2.28516 l -0.14062,0.5507812 h 2.27344 z m -9.99902,0 h -2.28516 l -0.14062,0.5507812 h 2.27343 z m -9.15528,-3.6914063 h -3.82031 c -0.0352,0.421875 -0.082,0.9257813 -0.17578,1.4765625 h 0.29297 c 0.23437,-0.65625 0.29297,-0.75 0.96094,-0.75 h 2.15625 c -0.78516,1.734375 -1.92188,3.8085938 -2.96485,5.50781254 l 0.0703,0.10546875 0.73829,-0.09375 c 0.96093,-2.06249999 1.88671,-4.10156249 2.82421,-6.12890629 z m -10.84277,3.6914063 h -2.28516 l -0.14062,0.5507812 h 2.27344 z m -10.00195,0 h -2.28516 l -0.14062,0.5507812 h 2.27343 z m -11.13575,-3.8203125 c -1.07812,0 -1.78125,0.8085937 -1.78125,1.640625 0,0.703125 0.42188,1.1835937 1.07813,1.546875 -0.33984,0.2226562 -0.72656,0.4921875 -0.87891,0.6445312 -0.22265,0.2109375 -0.45703,0.4921875 -0.45703,0.9492188 0,1.06640624 0.85547,1.68749999 1.92188,1.68749999 0.85547,0 1.98047,-0.6328125 1.98047,-1.80468749 0,-0.8671875 -0.63282,-1.3476563 -1.32422,-1.7460938 0.45703,-0.3046875 0.72656,-0.5390625 0.79687,-0.6328125 0.1875,-0.2226562 0.29297,-0.515625 0.29297,-0.796875 0,-0.8203125 -0.67969,-1.4882812 -1.62891,-1.4882812 z m -0.10546,0.328125 c 0.45703,0 0.98437,0.3632812 0.98437,1.2070312 0,0.5976563 -0.26953,0.9726563 -0.60937,1.2421875 -0.71485,-0.3515625 -1.30079,-0.6796875 -1.30079,-1.4179687 0,-0.515625 0.33985,-1.03125 0.92579,-1.03125 z m 0.0937,5.82421874 c -0.63282,0 -1.21875,-0.515625 -1.21875,-1.42968754 0,-0.5507812 0.33984,-1.0546875 0.82031,-1.3710937 0.76172,0.3867187 1.47656,0.8203125 1.47656,1.5703125 0,0.77343749 -0.46875,1.23046874 -1.07812,1.23046874 z m -8.85059,-2.33203124 h -2.28516 l -0.14062,0.5507812 h 2.27344 z m -10.00195,0 h -2.28516 l -0.14062,0.5507812 h 2.27343 z m -11.20606,-3.8203125 c -1.28906,0 -2.03906,1.171875 -2.03906,2.1328125 0,1.0546875 0.73828,1.828125 1.79297,1.828125 0.1875,0 0.38672,-0.035156 0.59765,-0.1640625 l 0.66797,-0.3515625 c -0.32812,1.5117187 -1.41797,2.51953124 -2.84765,2.75390624 l 0.0586,0.3046875 c 0.24609,0 0.85547,-0.10546875 1.39453,-0.328125 1.34766,-0.5390625 2.35547,-1.82812504 2.35547,-3.66796874 0,-1.359375 -0.72656,-2.5078125 -1.98047,-2.5078125 z m -0.1289,0.328125 c 0.97265,0 1.23046,1.2421875 1.23046,2.1210937 0,0.1992188 -0.0117,0.4453125 -0.0351,0.6679688 -0.21094,0.1523437 -0.55078,0.28125 -0.90235,0.28125 -0.84375,0 -1.33593,-0.7382813 -1.33593,-1.6171875 0,-0.5859375 0.28125,-1.453125 1.04297,-1.453125 z m -8.66309,3.4921875 h -2.28516 l -0.14062,0.5507812 h 2.27344 z m -10.00195,0 h -2.28516 l -0.14062,0.5507812 h 2.27343 z m -9.99903,0 h -2.28515 l -0.14063,0.5507812 h 2.27344 z m -9.99902,0 h -2.28516 l -0.14062,0.5507812 h 2.27344 z m 0,0"
         style="fill:#231f20;fill-opacity:1;fill-rule:nonzero;stroke:none"
         aria-label="0&#10;-&#10;-&#10;1&#10;--2&#10;--3&#10;-&#10;-4-&#10;-5&#10;--&#10;6&#10;-&#10;-&#10;7&#10;--&#10;8&#10;--&#10;9-&#10;--&#10;-"
         transform="matrix(1.3333333,0,0,1.3333333,417.13333,80.94052)" />
      <path
         id="path68"
         d="M 3154.05,457.027 V 254.535"
         style="fill:none;stroke:#231f20;stroke-width:7.5;stroke-linecap:butt;stroke-linejoin:miter;stroke-miterlimit:10;stroke-dasharray:none;stroke-opacity:1"
         transform="matrix(0.13333333,0,0,-0.13333333,0,87.24)" />
      <path
         id="path69"
         d="m 3154.05,265.305 21.62,13.148 0.49,-0.738 -14,-35.25 c -2.7,-12.285 -5.4,-24.567 -8.11,-36.844 -2.7,12.277 -5.4,24.559 -8.1,36.844 l -14.01,35.25 0.37,0.738 21.74,-13.148"
         style="fill:#231f20;fill-opacity:1;fill-rule:nonzero;stroke:none"
         transform="matrix(0.13333333,0,0,-0.13333333,0,87.24)" />
      <path
         id="path70"
         d="M 3054.68,457.027 2889.02,244.219"
         style="fill:none;stroke:#231f20;stroke-width:7.5;stroke-linecap:butt;stroke-linejoin:miter;stroke-miterlimit:10;stroke-dasharray:none;stroke-opacity:1"
         transform="matrix(0.13333333,0,0,-0.13333333,0,87.24)" />
      <path
         id="path71"
         d="m 2895.63,252.715 25.14,-2.902 -0.07,-0.883 -32.69,-19.219 c -9.68,-8.031 -19.36,-16.059 -29.04,-24.09 5.41,11.352 10.82,22.699 16.24,34.051 l 10.6,36.418 0.75,0.355 9.07,-23.73"
         style="fill:#231f20;fill-opacity:1;fill-rule:nonzero;stroke:none"
         transform="matrix(0.13333333,0,0,-0.13333333,0,87.24)" />
      <path
         id="path72"
         d="M 2953.83,455.516 2597.87,233.051"
         style="fill:none;stroke:#231f20;stroke-width:7.5;stroke-linecap:butt;stroke-linejoin:miter;stroke-miterlimit:10;stroke-dasharray:none;stroke-opacity:1"
         transform="matrix(0.13333333,0,0,-0.13333333,0,87.24)" />
      <path
         id="path73"
         d="m 2607.01,238.762 22.61,-11.364 -0.37,-0.804 -37.32,-6.813 c -11.84,-4.218 -23.69,-8.437 -35.53,-12.652 8.98,8.801 17.97,17.598 26.94,26.402 l 22.48,30.555 0.82,0.078 0.37,-25.402"
         style="fill:#231f20;fill-opacity:1;fill-rule:nonzero;stroke:none"
         transform="matrix(0.13333333,0,0,-0.13333333,0,87.24)" />
      <path
         id="path74"
         d="M 2852.96,460.027 2300.27,223.363"
         style="fill:none;stroke:#231f20;stroke-width:7.5;stroke-linecap:butt;stroke-linejoin:miter;stroke-miterlimit:10;stroke-dasharray:none;stroke-opacity:1"
         transform="matrix(0.13333333,0,0,-0.13333333,0,87.24)" />
      <path
         id="path75"
         d="m 2310.18,227.605 20.59,-14.695 -0.49,-0.742 -37.91,-1.008 c -12.35,-2.347 -24.7,-4.699 -37.06,-7.051 10.23,7.321 20.45,14.637 30.68,21.954 l 26.89,26.75 0.83,-0.047 -3.53,-25.161"
         style="fill:#231f20;fill-opacity:1;fill-rule:nonzero;stroke:none"
         transform="matrix(0.13333333,0,0,-0.13333333,0,87.24)" />
      <path
         id="path76"
         d="M 2755.12,460.027 2005.36,221.934"
         style="fill:none;stroke:#231f20;stroke-width:7.5;stroke-linecap:butt;stroke-linejoin:miter;stroke-miterlimit:10;stroke-dasharray:none;stroke-opacity:1"
         transform="matrix(0.13333333,0,0,-0.13333333,0,87.24)" />
      <path
         id="path77"
         d="m 2015.63,225.195 19.07,-16.625 -0.56,-0.687 -37.83,2.676 c -12.52,-1.149 -25.05,-2.293 -37.57,-3.43 10.89,6.293 21.78,12.582 32.67,18.879 l 29.35,24.012 0.81,-0.129 -5.94,-24.696"
         style="fill:#231f20;fill-opacity:1;fill-rule:nonzero;stroke:none"
         transform="matrix(0.13333333,0,0,-0.13333333,0,87.24)" />
      <path
         id="path78"
         d="M 2652.75,460.027 1700.53,216.246"
         style="fill:none;stroke:#231f20;stroke-width:7.5;stroke-linecap:butt;stroke-linejoin:miter;stroke-miterlimit:10;stroke-dasharray:none;stroke-opacity:1"
         transform="matrix(0.13333333,0,0,-0.13333333,0,87.24)" />
      <path
         id="path79"
         d="m 1710.97,218.918 18.09,-17.688 -0.59,-0.656 -37.62,4.821 c -12.57,-0.43 -25.14,-0.86 -37.71,-1.286 11.24,5.664 22.46,11.325 33.69,16.993 l 30.67,22.304 0.81,-0.176 -7.34,-24.312"
         style="fill:#231f20;fill-opacity:1;fill-rule:nonzero;stroke:none"
         transform="matrix(0.13333333,0,0,-0.13333333,0,87.24)" />
      <path
         id="path80"
         d="M 2553.39,457.027 1402.94,217.113"
         style="fill:none;stroke:#231f20;stroke-width:7.5;stroke-linecap:butt;stroke-linejoin:miter;stroke-miterlimit:10;stroke-dasharray:none;stroke-opacity:1"
         transform="matrix(0.13333333,0,0,-0.13333333,0,87.24)" />
      <path
         id="path81"
         d="m 1413.49,219.313 17.28,-18.477 -0.62,-0.633 -37.37,6.512 c -12.57,0.137 -25.15,0.273 -37.72,0.414 11.47,5.152 22.94,10.305 34.41,15.461 l 31.65,20.894 0.8,-0.207 -8.43,-23.964"
         style="fill:#231f20;fill-opacity:1;fill-rule:nonzero;stroke:none"
         transform="matrix(0.13333333,0,0,-0.13333333,0,87.24)" />
      <path
         id="path82"
         d="M 2455.53,460.027 1103.62,215.824"
         style="fill:none;stroke:#231f20;stroke-width:7.5;stroke-linecap:butt;stroke-linejoin:miter;stroke-miterlimit:10;stroke-dasharray:none;stroke-opacity:1"
         transform="matrix(0.13333333,0,0,-0.13333333,0,87.24)" />
      <path
         id="path83"
         d="m 1114.22,217.738 16.78,-18.933 -0.64,-0.617 -37.17,7.515 c -12.57,0.473 -25.13,0.945 -37.7,1.426 11.6,4.844 23.21,9.684 34.81,14.527 l 32.2,20.043 0.8,-0.23 -9.08,-23.731"
         style="fill:#231f20;fill-opacity:1;fill-rule:nonzero;stroke:none"
         transform="matrix(0.13333333,0,0,-0.13333333,0,87.24)" />
      <path
         id="path84"
         d="M 2354.67,455.516 801.215,211.695"
         style="fill:none;stroke:#231f20;stroke-width:7.5;stroke-linecap:butt;stroke-linejoin:miter;stroke-miterlimit:10;stroke-dasharray:none;stroke-opacity:1"
         transform="matrix(0.13333333,0,0,-0.13333333,0,87.24)" />
      <path
         id="path85"
         d="m 811.855,213.363 16.344,-19.316 -0.656,-0.594 -36.992,8.363 c -12.555,0.762 -25.102,1.528 -37.656,2.293 11.714,4.575 23.429,9.149 35.14,13.723 l 32.653,19.297 0.789,-0.25 -9.622,-23.516"
         style="fill:#231f20;fill-opacity:1;fill-rule:nonzero;stroke:none"
         transform="matrix(0.13333333,0,0,-0.13333333,0,87.24)" />
      <path
         id="path86"
         d="M 2255.31,455.516 506.277,210.891"
         style="fill:none;stroke:#231f20;stroke-width:7.5;stroke-linecap:butt;stroke-linejoin:miter;stroke-miterlimit:10;stroke-dasharray:none;stroke-opacity:1"
         transform="matrix(0.13333333,0,0,-0.13333333,0,87.24)" />
      <path
         id="path87"
         d="m 516.941,212.379 16.02,-19.59 -0.66,-0.586 -36.852,8.985 c -12.539,0.968 -25.074,1.949 -37.613,2.921 11.789,4.375 23.582,8.758 35.367,13.133 l 32.969,18.75 0.785,-0.265 -10.016,-23.348"
         style="fill:#231f20;fill-opacity:1;fill-rule:nonzero;stroke:none"
         transform="matrix(0.13333333,0,0,-0.13333333,0,87.24)" />
    </g>
  </g>
</svg>
