<?xml version="1.0" encoding="UTF-8" standalone="no"?>
<!-- Created with Inkscape (http://www.inkscape.org/) -->

<svg
   version="1.1"
   id="svg1"
   width="260"
   height="87.786667"
   viewBox="0 0 260 87.786667"
   sodipodi:docname="phabbf06.eps"
   xmlns:inkscape="http://www.inkscape.org/namespaces/inkscape"
   xmlns:sodipodi="http://sodipodi.sourceforge.net/DTD/sodipodi-0.dtd"
   xmlns="http://www.w3.org/2000/svg"
   xmlns:svg="http://www.w3.org/2000/svg">
  <defs
     id="defs1" />
  <sodipodi:namedview
     id="namedview1"
     pagecolor="#ffffff"
     bordercolor="#000000"
     borderopacity="0.25"
     inkscape:showpageshadow="2"
     inkscape:pageopacity="0.0"
     inkscape:pagecheckerboard="0"
     inkscape:deskcolor="#d1d1d1">
    <inkscape:page
       x="0"
       y="0"
       inkscape:label="1"
       id="page1"
       width="260"
       height="87.786667"
       margin="0"
       bleed="0" />
  </sodipodi:namedview>
  <g
     id="g1"
     inkscape:groupmode="layer"
     inkscape:label="1">
    <g
       id="group-R5">
      <path
         id="path2"
         d="m 2.6947578,1.3230816 c -0.890625,-0.76171879 -1.40625,-2.20312504 -1.40625,-3.75 0,-1.546875 0.515625,-3 1.40625,-3.75 L 2.5424141,-6.3878559 c -1.3242188,0.9023437 -1.91015629,2.3320312 -1.91015629,3.9492187 0,1.62890626 0.58593749,3.08203126 1.91015629,3.9609375 z m 4.3212891,-1.67578129 -0.09375,-0.234375 c -0.09375,0.0585938 -0.2226563,0.10546875 -0.328125,0.10546875 -0.1523438,0 -0.3164063,-0.140625 -0.3164063,-0.55078126 v -1.6640625 c 0,-0.46875 -0.082031,-0.84375 -0.3984375,-1.1015625 -0.1992187,-0.1640625 -0.46875,-0.2460937 -0.7382812,-0.2460937 -0.515625,0.1054687 -1.1015625,0.4570312 -1.3476563,0.6328125 -0.1757812,0.1289062 -0.2929687,0.2226562 -0.2929687,0.3632812 0,0.1992188 0.234375,0.3867188 0.3984375,0.3867188 0.1289062,0 0.2226562,-0.070312 0.2578125,-0.2109375 0.070312,-0.28125 0.1523437,-0.4804688 0.2695312,-0.5976563 0.09375,-0.1054687 0.2226563,-0.1757812 0.4101563,-0.1757812 0.4453125,0 0.75,0.3632812 0.75,1.0195312 v 0.1640625 c -0.1992188,0.1523438 -0.8554688,0.3984375 -1.3945313,0.5742188 -0.4921875,0.1757812 -0.7265625,0.4570312 -0.7265625,0.90234371 0,0.5625 0.4453125,1.08984375 1.078125,1.08984375 0.2695313,0 0.703125,-0.328125 1.0664063,-0.57421875 0.046875,0.15234375 0.09375,0.28125 0.2109375,0.41015625 0.1054687,0.08203125 0.2929687,0.1640625 0.421875,0.1640625 z M 5.5863594,-0.76285594 c -0.1640625,0.1640625 -0.4804688,0.31640625 -0.7148438,0.328125 -0.28125,0 -0.6445312,-0.22265625 -0.6445312,-0.69140626 0,-0.328125 0.1992187,-0.4921875 0.5507812,-0.65625 0.1875,-0.09375 0.6210938,-0.28125 0.8085938,-0.375 z M 7.4760078,-6.1769184 c 0.890625,0.7382812 1.4179688,2.203125 1.4179688,3.75 0,1.54687496 -0.5039063,2.98828121 -1.4179688,3.75 l 0.1640625,0.1992187 c 1.3476563,-0.91406249 1.8984375,-2.33203124 1.8984375,-3.9492187 0,-1.6289063 -0.5507812,-3.0585938 -1.8984375,-3.9609375 z m 0,0"
         style="fill:#231f20;fill-opacity:1;fill-rule:nonzero;stroke:none"
         aria-label="(a)"
         transform="matrix(1.3333333,0,0,1.3333333,45.809333,83.46636)" />
      <path
         id="path3"
         d="M 793.535,221.43 V 183.727 M 534.855,378.035 V 183.727 M 276.176,515.496 V 183.727 M 17.4961,303.805 V 183.727"
         style="fill:none;stroke:#95aade;stroke-width:10;stroke-linecap:butt;stroke-linejoin:miter;stroke-miterlimit:3.25;stroke-dasharray:none;stroke-opacity:1"
         transform="matrix(0.13333333,0,0,-0.13333333,0,87.786667)" />
      <path
         id="path4"
         d="m 29.8438,317.074 c -3.418,3.41 -7.5508,5.114 -12.3907,5.114 -4.8359,0 -8.95701,-1.704 -12.35544,-5.114 C 1.69922,313.668 0,309.555 0,304.73 c 0,-4.863 1.69922,-8.984 5.09766,-12.382 3.39843,-3.399 7.51954,-5.098 12.35544,-5.098 4.8633,0 8.9922,1.699 12.3985,5.098 3.4101,3.398 5.1093,7.519 5.1093,12.382 0,4.825 -1.707,8.938 -5.1171,12.344 v 0"
         style="fill:#3871c1;fill-opacity:1;fill-rule:nonzero;stroke:none"
         transform="matrix(0.13333333,0,0,-0.13333333,0,87.786667)" />
      <path
         id="path5"
         d="m 288.523,528.766 c -3.418,3.406 -7.546,5.105 -12.39,5.105 -4.832,0 -8.953,-1.699 -12.356,-5.105 -3.394,-3.411 -5.093,-7.52 -5.093,-12.344 0,-4.863 1.699,-8.992 5.093,-12.383 3.403,-3.398 7.524,-5.098 12.356,-5.098 4.863,0 8.996,1.7 12.402,5.098 3.406,3.391 5.11,7.52 5.11,12.383 0,4.824 -1.711,8.933 -5.122,12.344 v 0"
         style="fill:#3871c1;fill-opacity:1;fill-rule:nonzero;stroke:none"
         transform="matrix(0.13333333,0,0,-0.13333333,0,87.786667)" />
      <path
         id="path6"
         d="m 547.195,391.313 c -3.406,3.41 -7.539,5.109 -12.382,5.109 -4.84,0 -8.954,-1.699 -12.352,-5.109 -3.398,-3.407 -5.098,-7.524 -5.098,-12.344 0,-4.864 1.7,-8.992 5.098,-12.391 3.398,-3.394 7.512,-5.09 12.352,-5.09 4.867,0 8.996,1.696 12.406,5.09 3.394,3.399 5.105,7.527 5.105,12.391 0,4.82 -1.711,8.937 -5.129,12.344 v 0"
         style="fill:#3871c1;fill-opacity:1;fill-rule:nonzero;stroke:none"
         transform="matrix(0.13333333,0,0,-0.13333333,0,87.786667)" />
      <path
         id="path7"
         d="m 805.891,234.695 c -3.418,3.41 -7.551,5.114 -12.395,5.114 -4.836,0 -8.953,-1.704 -12.351,-5.114 -3.403,-3.402 -5.098,-7.519 -5.098,-12.347 0,-4.852 1.695,-8.985 5.098,-12.383 3.398,-3.395 7.515,-5.098 12.351,-5.098 4.863,0 8.992,1.703 12.402,5.098 3.411,3.398 5.11,7.531 5.11,12.383 0,4.828 -1.711,8.945 -5.117,12.347 v 0"
         style="fill:#3871c1;fill-opacity:1;fill-rule:nonzero;stroke:none"
         transform="matrix(0.13333333,0,0,-0.13333333,0,87.786667)" />
      <path
         id="path8"
         d="m 17.4961,303.805 0.2266,0.215 0.25,0.187 0.4765,0.406 2.8438,2.481 3.8125,3.371 7.6133,6.926 16.5234,15.875 15.4141,15.589 15.121,15.809 16.3985,17.383 15.3122,16.203 16.578,17.246 16.274,16.324 15.207,14.453 16.453,14.61 15.383,12.441 15.082,10.938 0.246,0.156 0.262,0.176 0.507,0.351 1.028,0.688 2.035,1.355 4.098,2.617 8.168,4.942 0.25,0.137 0.226,0.125 0.477,0.285 0.965,0.539 1.898,1.062 3.813,2.051 0.246,0.125 0.23,0.117 0.477,0.25 0.968,0.492 1.895,0.969 3.812,1.864 0.528,0.246 0.515,0.242 1.032,0.48 2.054,0.926 4.153,1.797 0.25,0.101 0.257,0.106 0.508,0.215 1.039,0.418 2.078,0.812 4.129,1.543 0.262,0.086 0.246,0.094 1.531,0.527 2.024,0.684 4.062,1.285 0.246,0.066 0.262,0.071 0.508,0.164 1.023,0.273 2.02,0.567 4.059,1.054 0.226,0.051 0.25,0.059 0.473,0.097 0.949,0.235 1.879,0.398 0.254,0.059 0.222,0.051 0.477,0.105 0.945,0.195 1.903,0.368 0.23,0.035 0.242,0.047 0.477,0.078 0.93,0.175 1.898,0.313 0.242,0.039 0.231,0.031 1.429,0.215 1.891,0.262 0.25,0.031 0.266,0.039 0.504,0.051 1.027,0.125 0.527,0.066 1.528,0.16 0.257,0.036 0.25,0.019 0.528,0.051 1.019,0.086 0.266,0.019 0.242,0.039 0.512,0.032 1.043,0.07 0.238,0.035 0.266,0.02 0.511,0.019 0.262,0.02 0.246,0.015 0.528,0.036 0.246,0.019 0.261,0.012 0.512,0.015 1.024,0.059 h 0.257 l 0.27,0.02 0.508,0.015 0.242,0.016 h 0.269 l 0.508,0.019 h 0.258 l 0.25,0.016 h 0.527 l 0.246,0.016 h 1.024 l 0.223,0.015 h 2.886 l 0.231,-0.015 h 0.965 l 0.246,-0.016 h 0.472 l 0.473,-0.016 0.25,-0.019 h 0.23 l 0.489,-0.016 h 0.226 l 0.25,-0.015 0.477,-0.02 h 0.242 l 0.227,-0.019 0.496,-0.02 0.23,-0.02 0.238,-0.015 0.481,-0.012 0.242,-0.019 0.231,-0.02 0.492,-0.016 0.953,-0.074 0.242,-0.019 0.231,-0.016 0.488,-0.031 0.945,-0.071 1.922,-0.175 0.27,-0.02 0.257,-0.039 0.512,-0.047 1.035,-0.109 2.074,-0.242 0.27,-0.039 0.258,-0.02 0.508,-0.066 1.054,-0.141 2.075,-0.301 0.246,-0.051 0.261,-0.039 0.532,-0.086 1.043,-0.156 2.07,-0.371 4.148,-0.808 0.262,-0.051 0.246,-0.051 0.512,-0.105 1.023,-0.235 2.035,-0.469 4.079,-1.007 0.261,-0.067 0.246,-0.07 3.571,-0.985 4.078,-1.25 0.242,-0.07 0.23,-0.066 0.473,-0.156 0.945,-0.305 1.907,-0.629 3.812,-1.332 7.61,-2.961 0.25,-0.106 0.261,-0.097 0.508,-0.215 1.035,-0.422 2.063,-0.879 4.129,-1.851 8.242,-3.95 15.398,-8.386 15.102,-9.367 16.387,-11.305 15.293,-11.496 16.57,-13.34 16.262,-13.801 15.171,-13.379 16.45,-14.902 15.371,-14.121 15.039,-13.903 16.344,-15.043 15.246,-13.855 16.523,-14.695 15.441,-13.27 15.118,-12.496 16.406,-12.871 15.309,-11.285 16.605,-11.321 16.285,-10.125 15.207,-8.468 16.477,-8.067 0.484,-0.215 0.481,-0.21 0.964,-0.442 1.914,-0.844 3.848,-1.629 7.695,-3.078 0.239,-0.086 0.23,-0.109 1.418,-0.527 1.887,-0.684 3.777,-1.355 0.227,-0.071 0.254,-0.086 0.449,-0.156 0.957,-0.312 1.875,-0.641 3.777,-1.215 0.242,-0.07 0.266,-0.086 0.52,-0.137 1.011,-0.324 2.036,-0.594 4.097,-1.164 0.266,-0.066 0.246,-0.071 0.508,-0.125 1.035,-0.281 2.051,-0.512 4.089,-0.98 0.223,-0.055 0.258,-0.047 0.469,-0.128 0.945,-0.211 1.926,-0.403 3.804,-0.773 0.247,-0.055 0.222,-0.031 0.481,-0.09 0.965,-0.176 1.898,-0.351 3.824,-0.614 0.278,-0.039 0.261,-0.05 0.528,-0.067 1.074,-0.164 2.121,-0.297 1.055,-0.14 1.074,-0.121 2.129,-0.247 0.261,-0.039 0.286,-0.035 0.527,-0.051 1.07,-0.109 0.266,-0.016 0.266,-0.031 0.527,-0.055 1.07,-0.089 0.258,-0.032 0.27,-0.019 0.531,-0.051 1.074,-0.086 0.523,-0.039 0.539,-0.035 1.055,-0.074"
         style="fill:none;stroke:#4974b1;stroke-width:11.52;stroke-linecap:butt;stroke-linejoin:miter;stroke-miterlimit:3.25;stroke-dasharray:none;stroke-opacity:1"
         transform="matrix(0.13333333,0,0,-0.13333333,0,87.786667)" />
      <path
         id="path9"
         d="m 1932.49,221.43 v -37.703 m -194,136.14 V 183.727 M 1544.48,484.77 V 183.727 m -194,303.875 V 183.727 M 1156.46,303.805 V 183.727"
         style="fill:none;stroke:#95aade;stroke-width:10;stroke-linecap:butt;stroke-linejoin:miter;stroke-miterlimit:3.25;stroke-dasharray:none;stroke-opacity:1"
         transform="matrix(0.13333333,0,0,-0.13333333,0,87.786667)" />
      <path
         id="path10"
         d="m 1168.8,317.074 c -3.42,3.41 -7.54,5.114 -12.38,5.114 -4.85,0 -8.97,-1.704 -12.37,-5.114 -3.4,-3.406 -5.09,-7.519 -5.09,-12.344 0,-4.863 1.69,-8.984 5.09,-12.382 3.4,-3.399 7.52,-5.098 12.37,-5.098 4.86,0 8.98,1.699 12.4,5.098 3.4,3.398 5.1,7.519 5.1,12.382 0,4.825 -1.7,8.938 -5.12,12.344 v 0"
         style="fill:#3871c1;fill-opacity:1;fill-rule:nonzero;stroke:none"
         transform="matrix(0.13333333,0,0,-0.13333333,0,87.786667)" />
      <path
         id="path11"
         d="m 1362.8,500.883 c -3.41,3.402 -7.54,5.109 -12.38,5.109 -4.83,0 -8.96,-1.707 -12.34,-5.109 -3.4,-3.406 -5.1,-7.524 -5.1,-12.348 0,-4.859 1.7,-8.988 5.1,-12.383 3.38,-3.398 7.51,-5.093 12.34,-5.093 4.86,0 9,1.695 12.4,5.093 3.41,3.395 5.12,7.524 5.12,12.383 0,4.824 -1.72,8.942 -5.14,12.348 v 0"
         style="fill:#3871c1;fill-opacity:1;fill-rule:nonzero;stroke:none"
         transform="matrix(0.13333333,0,0,-0.13333333,0,87.786667)" />
      <path
         id="path12"
         d="m 1556.83,498.043 c -3.42,3.402 -7.54,5.105 -12.39,5.105 -4.84,0 -8.96,-1.703 -12.36,-5.105 -3.4,-3.41 -5.1,-7.52 -5.1,-12.352 0,-4.855 1.7,-8.988 5.1,-12.382 3.4,-3.391 7.52,-5.09 12.36,-5.09 4.85,0 8.99,1.699 12.41,5.09 3.39,3.394 5.09,7.527 5.09,12.382 0,4.832 -1.7,8.942 -5.11,12.352 v 0"
         style="fill:#3871c1;fill-opacity:1;fill-rule:nonzero;stroke:none"
         transform="matrix(0.13333333,0,0,-0.13333333,0,87.786667)" />
      <path
         id="path13"
         d="m 1750.83,333.148 c -3.42,3.403 -7.54,5.11 -12.38,5.11 -4.85,0 -8.97,-1.707 -12.37,-5.11 -3.39,-3.406 -5.09,-7.519 -5.09,-12.343 0,-4.864 1.7,-8.989 5.09,-12.387 3.4,-3.395 7.52,-5.098 12.37,-5.098 4.86,0 8.98,1.703 12.4,5.098 3.4,3.398 5.1,7.523 5.1,12.387 0,4.824 -1.7,8.937 -5.12,12.343 v 0"
         style="fill:#3871c1;fill-opacity:1;fill-rule:nonzero;stroke:none"
         transform="matrix(0.13333333,0,0,-0.13333333,0,87.786667)" />
      <path
         id="path14"
         d="m 1944.85,234.695 c -3.41,3.41 -7.56,5.114 -12.4,5.114 -4.82,0 -8.94,-1.704 -12.34,-5.114 -3.4,-3.402 -5.1,-7.519 -5.1,-12.347 0,-4.852 1.7,-8.985 5.1,-12.383 3.4,-3.395 7.52,-5.098 12.34,-5.098 4.86,0 9.01,1.703 12.4,5.098 3.42,3.398 5.12,7.531 5.12,12.383 0,4.828 -1.72,8.945 -5.12,12.347 v 0"
         style="fill:#3871c1;fill-opacity:1;fill-rule:nonzero;stroke:none"
         transform="matrix(0.13333333,0,0,-0.13333333,0,87.786667)" />
      <path
         id="path15"
         d="m 1156.46,303.805 0.23,0.215 0.24,0.187 0.48,0.406 2.84,2.481 3.82,3.371 7.61,6.926 16.52,15.875 15.42,15.589 15.12,15.809 16.4,17.383 15.31,16.203 16.57,17.246 16.28,16.324 15.21,14.453 16.45,14.61 15.38,12.441 15.08,10.938 0.25,0.156 0.26,0.176 0.51,0.351 1.03,0.688 2.03,1.355 4.1,2.617 8.17,4.942 0.25,0.137 0.23,0.125 0.47,0.285 0.96,0.539 1.91,1.062 3.81,2.051 0.24,0.125 0.23,0.117 0.48,0.25 0.97,0.492 1.89,0.969 3.81,1.864 0.53,0.246 0.53,0.242 1.02,0.48 2.06,0.926 4.14,1.797 0.26,0.101 0.25,0.106 0.51,0.215 1.04,0.418 2.08,0.812 4.12,1.543 0.28,0.086 0.23,0.094 1.55,0.527 2.01,0.684 4.06,1.285 0.25,0.066 0.26,0.071 0.51,0.164 1.03,0.273 2.01,0.567 4.06,1.054 0.23,0.051 0.24,0.059 0.48,0.097 0.95,0.235 1.87,0.398 0.26,0.059 0.23,0.051 0.47,0.105 0.95,0.195 1.9,0.368 0.24,0.035 0.23,0.047 0.48,0.078 0.93,0.175 1.89,0.313 0.26,0.039 0.22,0.031 1.44,0.215 1.88,0.262 0.25,0.031 0.27,0.039 0.51,0.051 1.01,0.125 0.53,0.066 1.53,0.16 0.27,0.036 0.24,0.019 0.53,0.051 1.02,0.086 0.26,0.019 0.25,0.039 0.51,0.032 1.03,0.07 0.25,0.035 0.26,0.02 0.51,0.019 0.27,0.02 0.24,0.015 0.52,0.036 0.26,0.019 0.25,0.012 0.52,0.015 1.03,0.059 h 0.25 l 0.27,0.02 0.51,0.015 0.23,0.016 h 0.28 l 0.51,0.019 h 0.25 l 0.25,0.016 h 0.53 l 0.26,0.016 h 1.01 l 0.23,0.015 h 2.88 l 0.23,-0.015 h 0.97 l 0.24,-0.016 h 0.47 l 0.48,-0.016 0.24,-0.019 h 0.24 l 0.49,-0.016 h 0.23 l 0.24,-0.015 0.48,-0.02 h 0.24 l 0.23,-0.019 0.49,-0.02 0.23,-0.02 0.24,-0.015 0.49,-0.012 0.23,-0.019 0.24,-0.02 0.48,-0.016 0.96,-0.074 0.25,-0.019 0.22,-0.016 0.49,-0.031 0.95,-0.071 1.92,-0.175 0.27,-0.02 0.26,-0.039 0.5,-0.047 1.04,-0.109 2.08,-0.242 0.26,-0.039 0.27,-0.02 0.5,-0.066 1.06,-0.141 2.08,-0.301 0.23,-0.051 0.28,-0.039 0.52,-0.086 1.04,-0.156 2.07,-0.371 4.16,-0.808 0.25,-0.051 0.26,-0.051 0.51,-0.105 1.01,-0.235 2.04,-0.469 4.07,-1.007 0.28,-0.067 0.23,-0.07 3.58,-0.985 4.08,-1.25 0.23,-0.07 0.24,-0.066 0.47,-0.156 0.95,-0.305 1.9,-0.629 3.82,-1.332 7.6,-2.961 0.26,-0.106 0.25,-0.097 0.51,-0.215 1.03,-0.422 2.07,-0.879 4.13,-1.851 8.24,-3.95 15.41,-8.386 15.1,-9.367 16.38,-11.305 15.3,-11.496 16.56,-13.34 16.27,-13.801 15.17,-13.379 16.45,-14.902 15.37,-14.121 15.04,-13.903 16.35,-15.043 15.23,-13.855 16.52,-14.695 15.45,-13.27 15.12,-12.496 16.41,-12.871 15.31,-11.285 16.6,-11.321 16.29,-10.125 15.2,-8.468 16.48,-8.067 0.49,-0.215 0.47,-0.21 0.97,-0.442 1.92,-0.844 3.84,-1.629 7.7,-3.078 0.23,-0.086 0.24,-0.109 1.41,-0.527 1.89,-0.684 3.77,-1.355 0.23,-0.071 0.26,-0.086 0.45,-0.156 0.95,-0.312 1.88,-0.641 3.77,-1.215 0.25,-0.07 0.26,-0.086 0.52,-0.137 1.02,-0.324 2.03,-0.594 4.1,-1.164 0.26,-0.066 0.25,-0.071 0.51,-0.125 1.03,-0.281 2.05,-0.512 4.09,-0.98 0.23,-0.055 0.25,-0.047 0.47,-0.128 0.94,-0.211 1.93,-0.403 3.81,-0.773 0.24,-0.055 0.23,-0.031 0.47,-0.09 0.98,-0.176 1.89,-0.351 3.83,-0.614 0.27,-0.039 0.26,-0.05 0.52,-0.067 1.08,-0.164 2.13,-0.297 1.05,-0.14 1.08,-0.121 2.12,-0.247 0.26,-0.039 0.29,-0.035 0.53,-0.051 1.07,-0.109 0.26,-0.016 0.27,-0.031 0.53,-0.055 1.07,-0.089 0.26,-0.032 0.27,-0.019 0.53,-0.051 1.07,-0.086 0.53,-0.039 0.53,-0.035 1.05,-0.074"
         style="fill:none;stroke:#4974b1;stroke-width:11.52;stroke-linecap:butt;stroke-linejoin:miter;stroke-miterlimit:3.25;stroke-dasharray:none;stroke-opacity:1"
         transform="matrix(0.13333333,0,0,-0.13333333,0,87.786667)" />
      <path
         id="path16"
         d="M 1.32813,183.727 H 809.707"
         style="fill:none;stroke:#231f20;stroke-width:5;stroke-linecap:butt;stroke-linejoin:miter;stroke-miterlimit:3.25;stroke-dasharray:none;stroke-opacity:1"
         transform="matrix(0.13333333,0,0,-0.13333333,0,87.786667)" />
      <path
         id="path17"
         d="M 17.4961,158.75 V 658.355"
         style="fill:none;stroke:#231f20;stroke-width:5;stroke-linecap:butt;stroke-linejoin:miter;stroke-miterlimit:3.25;stroke-dasharray:none;stroke-opacity:1"
         transform="matrix(0.13333333,0,0,-0.13333333,0,87.786667)" />
      <path
         id="path18"
         d="m 1140.28,183.727 h 808.38"
         style="fill:none;stroke:#231f20;stroke-width:5;stroke-linecap:butt;stroke-linejoin:miter;stroke-miterlimit:3.25;stroke-dasharray:none;stroke-opacity:1"
         transform="matrix(0.13333333,0,0,-0.13333333,0,87.786667)" />
      <path
         id="path19"
         d="M 1156.46,158.75 V 658.355"
         style="fill:none;stroke:#231f20;stroke-width:5;stroke-linecap:butt;stroke-linejoin:miter;stroke-miterlimit:3.25;stroke-dasharray:none;stroke-opacity:1"
         transform="matrix(0.13333333,0,0,-0.13333333,0,87.786667)" />
      <path
         id="path20"
         d="m 2.6942344,1.3230816 c -0.890625,-0.76171879 -1.40625,-2.20312504 -1.40625,-3.75 0,-1.546875 0.515625,-3 1.40625,-3.75 L 2.5418906,-6.3878559 c -1.3242187,0.9023437 -1.91015622,2.3320312 -1.91015622,3.9492187 0,1.62890626 0.58593752,3.08203126 1.91015622,3.9609375 z m 1.790039,-4.9570313 v -2.7773437 c -0.3398437,0.1171875 -0.890625,0.2578125 -1.3125,0.3164062 v 0.2109375 c 0.5859375,0.046875 0.5976563,0.1054688 0.5976563,0.6679688 v 5.00390621 c 0.4921875,0.234375 0.9492187,0.31640625 1.3242187,0.31640625 1.2070313,0 2.2617188,-0.9375 2.2617188,-2.26171876 0,-1.0546875 -0.8085938,-1.8867187 -1.78125,-1.8867187 -0.09375,0 -0.2226563,0.023437 -0.3632813,0.09375 z m 0,0.2695313 c 0.1640625,-0.1054688 0.4453125,-0.1757813 0.703125,-0.1757813 0.7382813,0 1.3710938,0.5976563 1.3710938,1.6171875 0,1.05468751 -0.4804688,1.68750001 -1.21875,1.68750001 -0.4804688,-0.0117188 -0.75,-0.328125 -0.8085938,-0.50390625 -0.035156,-0.0820313 -0.046875,-0.17578125 -0.046875,-0.30468746 z m 3.6123047,-2.8125 c 0.890625,0.7382812 1.4179688,2.203125 1.4179688,3.75 0,1.54687496 -0.5039063,2.98828121 -1.4179688,3.75 l 0.1640625,0.1992187 c 1.3476563,-0.91406249 1.8984374,-2.33203124 1.8984374,-3.9492187 0,-1.6289063 -0.5507811,-3.0585938 -1.8984374,-3.9609375 z m 0,0"
         style="fill:#231f20;fill-opacity:1;fill-rule:nonzero;stroke:none"
         aria-label="(b)"
         transform="matrix(1.3333333,0,0,1.3333333,198.728,83.46636)" />
    </g>
  </g>
</svg>
