<?xml version="1.0" encoding="UTF-8" standalone="no"?>
<!-- Created with Inkscape (http://www.inkscape.org/) -->

<svg
   version="1.1"
   id="svg1"
   width="440.69333"
   height="166.49333"
   viewBox="0 0 440.69333 166.49333"
   sodipodi:docname="phabbf04.eps"
   xmlns:inkscape="http://www.inkscape.org/namespaces/inkscape"
   xmlns:sodipodi="http://sodipodi.sourceforge.net/DTD/sodipodi-0.dtd"
   xmlns="http://www.w3.org/2000/svg"
   xmlns:svg="http://www.w3.org/2000/svg">
  <defs
     id="defs1" />
  <sodipodi:namedview
     id="namedview1"
     pagecolor="#ffffff"
     bordercolor="#000000"
     borderopacity="0.25"
     inkscape:showpageshadow="2"
     inkscape:pageopacity="0.0"
     inkscape:pagecheckerboard="0"
     inkscape:deskcolor="#d1d1d1">
    <inkscape:page
       x="0"
       y="0"
       inkscape:label="1"
       id="page1"
       width="440.69333"
       height="166.49333"
       margin="0"
       bleed="0" />
  </sodipodi:namedview>
  <g
     id="g1"
     inkscape:groupmode="layer"
     inkscape:label="1">
    <g
       id="group-R5">
      <path
         id="path2"
         d="m 2056.48,1174.42 h 297 V 215.922 h -297 v 958.498"
         style="fill:#c8d1ee;fill-opacity:1;fill-rule:nonzero;stroke:none"
         transform="matrix(0.13333333,0,0,-0.13333333,0,166.49333)" />
      <path
         id="path3"
         d="M 1795.48,696.105 H 3305.23"
         style="fill:none;stroke:#231f20;stroke-width:5;stroke-linecap:butt;stroke-linejoin:miter;stroke-miterlimit:3.25;stroke-dasharray:none;stroke-opacity:1"
         transform="matrix(0.13333333,0,0,-0.13333333,0,166.49333)" />
      <path
         id="path4"
         d="M 1795.48,220.051 V 1172.17"
         style="fill:none;stroke:#231f20;stroke-width:5;stroke-linecap:butt;stroke-linejoin:miter;stroke-miterlimit:3.25;stroke-dasharray:none;stroke-opacity:1"
         transform="matrix(0.13333333,0,0,-0.13333333,0,166.49333)" />
      <path
         id="path5"
         d="M 4.18359,696.105 H 1513.93"
         style="fill:none;stroke:#231f20;stroke-width:5;stroke-linecap:butt;stroke-linejoin:miter;stroke-miterlimit:3.25;stroke-dasharray:none;stroke-opacity:1"
         transform="matrix(0.13333333,0,0,-0.13333333,0,166.49333)" />
      <path
         id="path6"
         d="M 4.18359,220.051 V 1172.17"
         style="fill:none;stroke:#231f20;stroke-width:5;stroke-linecap:butt;stroke-linejoin:miter;stroke-miterlimit:3.25;stroke-dasharray:none;stroke-opacity:1"
         transform="matrix(0.13333333,0,0,-0.13333333,0,166.49333)" />
      <path
         id="path7"
         d="m 3.0625,268.293 0.90625,0.703 0.89844,0.703 1.8125,1.457 3.63671,3.074 7.2617,6.754 0.4532,0.442 0.4414,0.453 0.914,0.898 1.8086,1.864 3.6445,3.847 7.2344,8.262 0.9883,1.164 2.957,3.582 3.9336,4.961 7.875,10.387 15.7305,22.426 29.3945,44.335 0.4414,0.665 0.4493,0.675 2.6953,4.004 3.6019,5.293 7.207,10.332 0.457,0.633 0.441,0.637 0.899,1.25 1.808,2.488 3.602,4.895 7.187,9.402 0.988,1.23 0.981,1.211 1.949,2.395 3.906,4.672 7.805,8.715 1.969,2.043 1.953,1.988 3.902,3.832 7.797,6.941 1.836,1.477 1.828,1.445 3.633,2.723 1.836,1.262 1.824,1.25 3.633,2.304 0.461,0.281 1.375,0.793 1.809,1.036 3.66,1.914 0.449,0.226 0.461,0.211 0.898,0.442 1.825,0.843 3.664,1.528 0.976,0.39 0.985,0.367 1.972,0.719 0.488,0.16 0.489,0.176 1.008,0.317 1.972,0.597 0.489,0.156 0.488,0.145 0.984,0.266 1.992,0.507 0.977,0.243 0.992,0.23 1.984,0.426 0.981,0.203 3.445,0.617 0.508,0.07 3.453,0.497 0.492,0.046 1,0.129 1.969,0.207 0.492,0.036 0.496,0.054 0.985,0.086 0.976,0.074 1.008,0.071 0.477,0.035 0.488,0.031 0.969,0.07 0.488,0.02 0.477,0.039 0.968,0.027 0.489,0.039 0.476,0.02 0.985,0.031 0.476,0.02 0.492,0.019 0.961,0.035 0.496,0.012 h 0.477 l 0.488,0.02 0.477,0.019 h 0.492 l 0.473,0.02 h 0.492 l 0.488,0.015 h 0.969 l 0.476,0.016 h 1.465 l 0.489,0.02 h 8.242 l 0.472,0.019 h 4.86 l 0.488,0.02 h 0.969 l 0.469,0.011 h 0.957 l 0.437,0.016 h 0.449 l 0.465,0.019 h 0.453 l 0.442,0.02 0.914,0.02 0.453,0.015 h 0.449 l 0.906,0.035 0.442,0.02 1.367,0.047 0.449,0.019 0.449,0.02 0.918,0.051 0.438,0.019 0.461,0.02 0.886,0.046 0.918,0.075 0.899,0.054 1.812,0.157 0.914,0.066 0.899,0.09 0.449,0.058 0.465,0.028 0.891,0.109 0.914,0.106 0.902,0.109 1.809,0.242 0.453,0.071 0.437,0.066 0.914,0.129 1.817,0.312 0.449,0.075 0.441,0.086 0.918,0.175 1.805,0.367 0.5,0.106 0.469,0.109 0.992,0.207 2.945,0.739 0.973,0.265 1.965,0.578 0.496,0.145 0.488,0.156 0.988,0.301 1.953,0.664 3.915,1.461 0.5,0.211 0.488,0.195 0.98,0.399 1.973,0.867 3.922,1.879 0.488,0.242 0.488,0.266 0.965,0.511 1.973,1.071 3.918,2.324 0.918,0.558 0.914,0.582 1.844,1.211 3.656,2.551 0.918,0.668 0.91,0.688 1.824,1.406 3.684,2.93 1.824,1.554 1.828,1.598 3.66,3.324 7.325,7.207 0.46,0.453 0.438,0.473 0.898,0.949 1.793,1.918 3.598,3.942 7.176,8.347 14.359,18.242 31.164,43.547 0.914,1.297 0.918,1.289 1.813,2.559 3.636,5.101 7.278,10.035 0.437,0.618 0.461,0.632 0.918,1.231 1.805,2.441 3.633,4.817 7.281,9.336 0.98,1.23 0.993,1.211 1.968,2.41 3.934,4.688 7.871,8.879 0.5,0.527 0.508,0.535 0.984,1.047 1.973,2.059 3.937,3.957 7.872,7.273 0.488,0.43 0.476,0.418 2.903,2.426 3.867,3.035 0.488,0.371 0.477,0.371 2.902,2.109 3.867,2.617 0.489,0.321 0.476,0.297 0.969,0.621 1.933,1.176 3.887,2.195 0.477,0.265 0.488,0.243 0.969,0.507 1.933,0.969 3.868,1.797 0.437,0.191 0.453,0.188 0.895,0.391 1.816,0.722 0.453,0.176 0.442,0.176 0.918,0.332 1.793,0.637 0.457,0.156 0.441,0.156 0.906,0.301 1.797,0.558 3.617,1.024 0.446,0.101 0.449,0.129 0.898,0.223 1.817,0.406 0.433,0.11 0.457,0.101 0.899,0.176 1.808,0.352 0.465,0.093 0.442,0.082 0.906,0.16 1.797,0.282 0.91,0.14 0.898,0.137 1.817,0.234 0.468,0.047 0.489,0.078 1.972,0.207 0.965,0.086 0.5,0.059 0.489,0.031 0.964,0.086 2.461,0.176 0.469,0.035 0.988,0.055 0.493,0.031 0.492,0.016 0.968,0.058 0.489,0.032 1.476,0.058 0.477,0.016 1.973,0.07 h 0.492 l 0.472,0.016 0.489,0.015 h 0.496 l 0.492,0.02 h 0.488 l 0.496,0.019 h 0.469 l 0.5,0.02 h 0.981 l 0.492,0.019 h 2.449 l 0.484,0.008 h 10.926 l 0.449,0.02 h 2.289 l 0.454,0.019 h 0.914 l 0.453,0.02 h 0.918 l 0.918,0.015 0.449,0.016 h 0.465 l 0.914,0.039 h 0.453 l 0.445,0.02 1.367,0.047 h 0.457 l 0.911,0.039 0.461,0.031 1.832,0.078 0.449,0.031 2.746,0.164 2.742,0.203 0.918,0.09 0.449,0.035 0.461,0.051 0.91,0.09 1.832,0.207 0.493,0.055 0.492,0.07 0.988,0.125 1.984,0.277 0.489,0.075 0.496,0.09 0.988,0.156 1.981,0.351 0.988,0.176 0.976,0.195 1.993,0.418 3.953,0.969 0.488,0.125 0.5,0.137 0.996,0.265 1.973,0.594 0.488,0.145 0.492,0.16 1,0.312 1.973,0.668 0.496,0.176 0.512,0.18 0.98,0.351 1.969,0.774 3.969,1.648 0.472,0.215 0.492,0.207 0.973,0.457 1.953,0.93 3.883,1.992 0.473,0.262 0.496,0.265 0.965,0.547 1.949,1.102 3.887,2.375 0.468,0.32 0.496,0.313 0.969,0.632 1.953,1.301 3.887,2.742 7.762,6.067 0.461,0.371 0.437,0.367 0.91,0.766 1.817,1.554 3.621,3.211 7.258,6.848 14.488,15.145 1.965,2.179 1.972,2.215 3.938,4.484 7.855,9.208 15.707,18.937 0.461,0.555 0.457,0.547 0.918,1.113 1.848,2.219 3.672,4.421 7.332,8.739 14.68,16.73 0.453,0.5 0.433,0.489 0.899,0.964 1.808,1.934 3.586,3.801 7.196,7.218 0.906,0.879 0.898,0.868 1.797,1.683 3.606,3.305 7.187,6.187 0.496,0.407 0.489,0.39 0.968,0.785 1.949,1.528 3.907,2.941 0.98,0.703 0.965,0.684 1.953,1.351 3.906,2.563 0.489,0.324 0.496,0.293 0.965,0.625 1.949,1.156 3.898,2.192 0.985,0.527 0.976,0.508 1.946,0.988 3.902,1.844 0.457,0.195 0.461,0.211 0.91,0.387 1.805,0.758 3.644,1.402 0.457,0.18 1.367,0.472 1.829,0.622 3.64,1.125 0.461,0.117 0.453,0.136 0.895,0.25 1.836,0.473 0.449,0.109 0.465,0.122 0.91,0.21 1.809,0.418 0.457,0.09 0.461,0.106 0.906,0.195 1.816,0.352 0.453,0.074 0.457,0.082 0.918,0.156 1.805,0.305 0.5,0.066 0.508,0.09 0.984,0.141 1.965,0.269 0.988,0.098 0.985,0.125 1.98,0.211 0.5,0.055 0.492,0.035 0.981,0.086 0.488,0.054 3.453,0.242 1.985,0.129 0.492,0.012 0.496,0.035 0.98,0.039 0.496,0.032 3.446,0.125 h 0.488 l 0.508,0.019 0.988,0.02 0.981,0.031 h 0.492 l 0.488,0.019 h 0.5 l 0.488,0.02 h 0.985 l 0.488,0.016 h 1.484 l 0.508,0.011 h 4.863 l 0.481,0.02 h 10.18 l 0.472,0.019 h 1.461 l 0.492,0.02 h 0.961 l 0.477,0.019 h 0.492 l 0.973,0.02 0.472,0.012 h 0.489 l 0.492,0.019 h 0.473 l 0.496,0.02 0.472,0.011 0.973,0.016 0.488,0.02 0.477,0.019 0.988,0.039 0.469,0.02 0.488,0.015 0.977,0.047 0.468,0.016 0.489,0.039 0.976,0.035 1.934,0.121 0.449,0.039 0.457,0.016 0.899,0.074 0.46,0.027 0.434,0.039 1.371,0.11 0.442,0.047 0.918,0.07 1.785,0.176 0.918,0.105 0.894,0.11 1.813,0.215 0.457,0.066 0.441,0.051 0.906,0.125 1.817,0.277 0.441,0.074 0.457,0.071 0.891,0.136 1.816,0.321 0.906,0.175 0.907,0.157 1.808,0.371 0.461,0.101 0.43,0.09 0.918,0.211 1.797,0.43 3.613,0.926 0.496,0.117 1.477,0.429 1.953,0.579 3.922,1.289 0.98,0.339 0.965,0.352 1.973,0.723 3.918,1.562 0.984,0.43 0.969,0.422 1.961,0.879 3.926,1.863 7.835,4.18 1.832,1.054 1.829,1.09 3.652,2.27 7.312,4.902 14.645,11.063 0.445,0.343 0.45,0.371 0.898,0.723 1.797,1.477 3.582,3.007 7.18,6.219 14.339,12.953 31.126,28.27 0.46,0.398 0.46,0.391 0.91,0.793 1.81,1.543 3.64,3.058 7.26,5.875 0.46,0.368 0.44,0.351 0.91,0.703 1.81,1.391 3.64,2.726 7.26,5.147 0.98,0.67 0.99,0.65 1.97,1.28 3.94,2.5 0.98,0.59 2.95,1.75 3.94,2.21 1.97,1.06 1.97,1 3.93,1.93 7.88,3.45 0.91,0.35 0.92,0.37 1.84,0.68 3.67,1.3 0.46,0.14 0.46,0.17 0.91,0.29 1.85,0.57 3.68,1.07 0.9,0.25 0.94,0.24 1.83,0.46 0.91,0.2 0.93,0.24 1.83,0.4 0.46,0.08 0.46,0.11 0.93,0.2 1.82,0.35 3.68,0.65 0.91,0.14 0.9,0.14 1.79,0.25 0.47,0.07 0.45,0.05 0.89,0.12 1.8,0.21 0.91,0.11 0.9,0.1 1.79,0.18 0.45,0.05 0.46,0.04 0.9,0.09 1.79,0.13 0.92,0.07 0.89,0.08 0.46,0.01 0.44,0.04 0.9,0.05 0.45,0.04 0.46,0.02 0.9,0.04 1.79,0.09 0.46,0.02 0.45,0.04 0.9,0.03 0.46,0.02 0.44,0.02 0.89,0.01 0.92,0.04 0.89,0.04 h 0.46 l 0.44,0.01 0.9,0.03 0.49,0.01 h 0.49 l 0.5,0.02 h 0.49 l 0.47,0.01 h 0.49 l 0.99,0.02 0.49,0.02 h 0.96 l 0.5,0.02 h 1.95 l 0.49,0.02 h 4.88 l 0.5,0.01 h 11.73 l 0.49,0.02 h 1.95 l 0.49,0.02 h 0.97 l 0.5,0.02 h 0.48 l 0.97,0.01 h 0.46 l 0.45,0.02 0.92,0.02 h 0.46 l 0.45,0.01 0.91,0.02 0.46,0.02 h 0.46 l 1.37,0.05 h 0.46 l 0.91,0.04 0.44,0.02 2.29,0.09 0.91,0.04 0.92,0.04 2.74,0.16 0.45,0.02 0.46,0.03 0.9,0.07 1.82,0.12 1.84,0.15 1.83,0.17 0.45,0.04 0.45,0.05 0.9,0.09 1.83,0.19 3.66,0.44 0.99,0.14 0.98,0.12 1.99,0.3 0.48,0.07 0.5,0.1 0.98,0.16 1.99,0.32 1.96,0.36 1.99,0.38 3.94,0.85 0.51,0.1 0.49,0.12 0.98,0.23 1.98,0.48 3.95,1.03 0.98,0.29 1.01,0.28 1.97,0.58 3.95,1.23 0.49,0.16 0.48,0.18 0.97,0.31 1.95,0.66 3.88,1.41 7.75,3.12 0.5,0.2 0.47,0.19 0.98,0.43 1.94,0.86 3.88,1.77 7.75,3.79 0.92,0.45 0.89,0.46 1.82,0.95 3.62,1.91 7.24,3.99 14.48,8.46 31.41,18.9 0.92,0.53 0.91,0.54 1.85,1.05 3.66,2.08 7.33,4.04 1.82,0.99 1.85,0.95 3.66,1.89 7.32,3.59 0.46,0.21 0.44,0.19 0.9,0.42 1.79,0.83 3.6,1.58 7.19,2.97 0.44,0.18 0.46,0.17 0.9,0.36 1.79,0.66 3.6,1.3 7.17,2.38 0.5,0.16 0.49,0.14 0.97,0.3 1.95,0.56 3.9,1.07 0.49,0.12 0.47,0.13 0.99,0.24 1.95,0.49 3.89,0.9 0.98,0.22 0.97,0.19 1.95,0.41 0.98,0.17 0.97,0.2 1.95,0.35 0.49,0.08 0.48,0.07 0.99,0.17 1.95,0.3 3.9,0.58 0.43,0.06 0.46,0.07 0.91,0.12 1.82,0.21 1.82,0.21 1.81,0.2 0.92,0.1 0.91,0.09 1.81,0.16 0.46,0.04 0.46,0.05 0.91,0.07 1.81,0.13 0.91,0.08 0.92,0.05 1.81,0.12 0.46,0.03 0.46,0.02 0.91,0.05 1.81,0.09 0.46,0.04 1.83,0.07 0.44,0.02 2.74,0.1 1.81,0.06 2.04,0.06 h 0.49 l 0.5,0.02 1.03,0.02 0.51,0.02 h 0.5 l 1.03,0.02 0.49,0.01 h 0.51 l 1.02,0.02 0.51,0.02 h 1.02 l 0.5,0.02 h 1.01 l 1.02,0.02 h 2.55 l 0.49,0.01 h 14.73 l 0.51,0.02 h 2.02"
         style="fill:none;stroke:#3871c1;stroke-width:10;stroke-linecap:butt;stroke-linejoin:miter;stroke-miterlimit:3.25;stroke-dasharray:none;stroke-opacity:1"
         transform="matrix(0.13333333,0,0,-0.13333333,0,166.49333)" />
      <path
         id="path8"
         d="m 778.32,860.063 c 0,5.117 -2.035,10.003 -5.64,13.621 -3.621,3.605 -8.504,5.644 -13.621,5.644 -5.118,0 -10.004,-2.039 -13.625,-5.644 -3.602,-3.618 -5.645,-8.504 -5.645,-13.621 0,-5.118 2.043,-10 5.645,-13.625 3.621,-3.602 8.507,-5.645 13.625,-5.645 5.117,0 10,2.043 13.621,5.645 3.605,3.625 5.64,8.507 5.64,13.625"
         style="fill:#231f20;fill-opacity:1;fill-rule:evenodd;stroke:none"
         transform="matrix(0.13333333,0,0,-0.13333333,0,166.49333)" />
      <path
         id="path9"
         d="m 575.82,702.563 c 0,5.117 -2.035,10.003 -5.64,13.621 -3.621,3.605 -8.504,5.644 -13.621,5.644 -5.118,0 -10.004,-2.039 -13.625,-5.644 -3.602,-3.618 -5.645,-8.504 -5.645,-13.621 0,-5.118 2.043,-10 5.645,-13.625 3.621,-3.602 8.507,-5.637 13.625,-5.637 5.117,0 10,2.035 13.621,5.637 3.605,3.625 5.64,8.507 5.64,13.625"
         style="fill:#231f20;fill-opacity:1;fill-rule:evenodd;stroke:none"
         transform="matrix(0.13333333,0,0,-0.13333333,0,166.49333)" />
      <path
         id="path10"
         d="m 287.816,482.063 c 0,5.113 -2.035,10 -5.636,13.625 -3.621,3.601 -8.504,5.636 -13.621,5.636 -5.118,0 -10.008,-2.035 -13.621,-5.636 -3.606,-3.625 -5.645,-8.512 -5.645,-13.625 0,-5.118 2.039,-10.004 5.645,-13.622 3.613,-3.605 8.503,-5.644 13.621,-5.644 5.117,0 10,2.039 13.621,5.644 3.601,3.618 5.636,8.504 5.636,13.622"
         style="fill:#231f20;fill-opacity:1;fill-rule:evenodd;stroke:none"
         transform="matrix(0.13333333,0,0,-0.13333333,0,166.49333)" />
      <path
         id="path11"
         d="m 1462.32,1125.56 c 0,5.12 -2.04,10.01 -5.65,13.62 -3.61,3.61 -8.5,5.65 -13.61,5.65 -5.12,0 -10.01,-2.04 -13.62,-5.65 -3.61,-3.61 -5.65,-8.5 -5.65,-13.62 0,-5.12 2.04,-10 5.65,-13.62 3.61,-3.61 8.5,-5.65 13.62,-5.65 5.11,0 10,2.04 13.61,5.65 3.61,3.62 5.65,8.5 5.65,13.62"
         style="fill:#231f20;fill-opacity:1;fill-rule:evenodd;stroke:none"
         transform="matrix(0.13333333,0,0,-0.13333333,0,166.49333)" />
      <path
         id="path12"
         d="m 1795.48,267.648 0.91,0.704 0.9,0.711 1.82,1.453 3.64,3.078 7.25,6.75 0.46,0.441 0.43,0.457 0.92,0.891 1.82,1.863 3.63,3.848 7.25,8.261 0.97,1.165 2.95,3.582 3.95,4.964 7.87,10.387 15.74,22.434 29.39,44.324 0.44,0.676 0.44,0.664 2.7,4.012 3.6,5.285 7.21,10.336 0.46,0.629 0.44,0.636 0.89,1.25 1.81,2.5 3.61,4.883 7.19,9.402 0.98,1.239 0.99,1.203 1.95,2.398 3.9,4.672 7.81,8.719 1.96,2.035 1.96,1.992 3.89,3.828 7.81,6.942 1.83,1.476 1.83,1.45 3.63,2.718 1.84,1.266 1.82,1.254 3.64,2.297 0.45,0.281 1.38,0.797 1.81,1.031 3.66,1.914 0.45,0.234 0.46,0.215 0.9,0.43 1.83,0.848 3.65,1.535 0.98,0.387 1,0.363 1.96,0.722 0.49,0.157 0.5,0.176 0.99,0.312 1.98,0.598 0.48,0.16 0.49,0.14 1,0.266 1.98,0.508 0.99,0.242 0.97,0.234 2,0.426 0.97,0.203 3.45,0.618 0.52,0.074 3.44,0.488 0.49,0.055 1.01,0.121 1.97,0.215 0.49,0.027 0.49,0.059 0.98,0.089 0.98,0.075 1.01,0.062 0.47,0.039 0.49,0.028 0.97,0.078 0.5,0.019 0.48,0.031 0.95,0.036 0.5,0.031 0.47,0.019 0.99,0.039 0.47,0.02 0.49,0.016 0.97,0.035 0.49,0.015 h 0.48 l 0.49,0.012 0.47,0.02 h 0.49 l 0.48,0.019 h 0.5 l 0.49,0.02 h 0.96 l 0.47,0.019 h 1.47 l 0.49,0.02 h 8.24 l 0.48,0.015 h 4.85 l 0.49,0.016 h 0.96 l 0.48,0.02 h 0.95 l 0.44,0.011 h 0.46 l 0.45,0.016 h 0.47 l 0.43,0.019 0.91,0.02 0.46,0.02 h 0.44 l 0.92,0.039 0.43,0.015 1.37,0.047 0.45,0.016 0.46,0.019 0.9,0.055 0.44,0.016 0.46,0.023 0.9,0.051 0.91,0.07 0.9,0.055 1.81,0.152 0.91,0.078 0.9,0.082 0.45,0.055 0.46,0.039 0.91,0.098 0.91,0.105 0.89,0.11 1.81,0.25 0.46,0.062 0.44,0.07 0.92,0.125 1.8,0.321 0.46,0.07 0.43,0.086 0.92,0.176 1.82,0.371 0.48,0.097 0.47,0.114 0.99,0.211 2.96,0.742 0.97,0.254 1.96,0.586 0.5,0.136 0.49,0.157 0.98,0.3 1.95,0.664 3.93,1.465 0.49,0.207 0.49,0.196 0.98,0.406 1.98,0.863 3.91,1.883 0.49,0.238 0.49,0.266 0.97,0.512 1.97,1.07 3.92,2.32 0.91,0.567 0.92,0.574 1.85,1.223 3.65,2.539 0.92,0.671 0.9,0.692 1.84,1.398 3.67,2.942 1.83,1.543 1.82,1.601 3.67,3.321 7.33,7.211 0.45,0.453 0.44,0.48 0.9,0.945 1.79,1.914 3.6,3.938 7.18,8.348 14.35,18.254 31.17,43.535 0.91,1.297 0.92,1.289 1.81,2.57 3.64,5.098 7.27,10.035 0.45,0.613 0.45,0.629 0.92,1.234 1.81,2.446 3.64,4.816 7.27,9.328 0.99,1.235 0.99,1.207 1.96,2.418 3.94,4.683 7.88,8.883 0.48,0.523 0.51,0.532 0.99,1.054 1.96,2.055 3.95,3.957 7.87,7.281 0.49,0.418 0.48,0.422 2.9,2.426 3.86,3.035 0.5,0.367 0.48,0.371 2.89,2.118 3.87,2.621 0.49,0.312 0.47,0.301 0.97,0.617 1.93,1.172 3.89,2.199 0.48,0.266 0.49,0.242 0.96,0.516 1.94,0.964 3.87,1.79 0.44,0.195 0.45,0.187 0.9,0.387 1.82,0.731 0.45,0.171 0.44,0.176 0.91,0.332 1.79,0.633 0.46,0.16 0.44,0.16 0.91,0.297 1.81,0.563 3.61,1.019 0.44,0.106 0.46,0.125 0.89,0.226 1.81,0.407 0.44,0.105 0.45,0.102 0.9,0.175 1.82,0.352 0.45,0.09 0.44,0.086 0.91,0.156 1.8,0.285 0.91,0.141 0.9,0.136 1.81,0.235 0.47,0.055 0.49,0.066 1.97,0.207 0.98,0.094 0.49,0.05 0.49,0.036 0.97,0.089 2.46,0.172 0.47,0.036 0.98,0.054 0.5,0.035 0.49,0.012 0.96,0.063 0.49,0.031 1.48,0.055 0.47,0.015 1.98,0.07 h 0.49 l 0.48,0.016 0.48,0.02 h 0.5 l 0.49,0.019 h 0.49 l 0.5,0.016 h 0.47 l 0.49,0.019 h 0.99 l 0.49,0.016 h 2.45 l 0.48,0.016 h 10.92 l 0.46,0.011 h 2.28 l 0.47,0.02 h 0.9 l 0.46,0.023 h 0.91 l 0.92,0.016 0.46,0.019 h 0.46 l 0.9,0.036 h 0.46 l 0.44,0.019 1.37,0.043 h 0.47 l 0.9,0.039 0.46,0.039 1.82,0.07 0.46,0.04 2.75,0.156 2.75,0.211 0.91,0.086 0.46,0.035 0.45,0.055 0.91,0.085 1.83,0.211 0.5,0.051 0.49,0.067 0.98,0.128 1.99,0.282 0.48,0.07 0.5,0.086 0.99,0.156 1.98,0.356 0.99,0.175 0.97,0.196 2,0.414 3.95,0.969 0.49,0.125 0.5,0.14 1,0.262 1.97,0.594 0.48,0.148 0.5,0.16 1.01,0.317 1.97,0.664 0.48,0.176 0.52,0.175 0.97,0.352 1.98,0.777 3.97,1.653 0.47,0.207 0.5,0.207 0.96,0.464 1.96,0.93 3.87,1.985 0.48,0.265 0.5,0.266 0.97,0.543 1.94,1.105 3.89,2.375 0.47,0.317 0.5,0.316 0.96,0.633 1.95,1.305 3.89,2.738 7.77,6.062 0.45,0.371 0.44,0.372 0.91,0.765 1.82,1.555 3.62,3.219 7.26,6.836 14.48,15.152 1.97,2.18 1.96,2.207 3.95,4.484 7.85,9.207 15.72,18.937 0.45,0.559 0.46,0.543 0.92,1.113 1.85,2.219 3.67,4.43 7.32,8.734 14.69,16.738 0.46,0.489 0.43,0.492 0.9,0.969 1.8,1.929 3.6,3.797 7.18,7.227 0.92,0.879 0.89,0.859 1.8,1.688 3.6,3.304 7.19,6.188 0.5,0.406 0.49,0.387 0.96,0.789 1.96,1.535 3.9,2.934 0.98,0.703 0.97,0.683 1.95,1.352 3.89,2.562 0.5,0.325 0.5,0.296 0.97,0.618 1.94,1.16 3.91,2.199 0.97,0.527 0.98,0.5 1.95,0.992 3.91,1.848 0.45,0.192 0.45,0.207 0.92,0.39 1.81,0.754 3.64,1.406 0.45,0.176 1.37,0.477 1.83,0.617 3.64,1.121 0.46,0.121 0.46,0.141 0.89,0.246 1.83,0.469 0.45,0.113 0.47,0.121 0.91,0.215 1.82,0.422 0.44,0.082 0.46,0.113 0.92,0.187 1.81,0.356 0.46,0.07 0.45,0.09 0.91,0.156 1.82,0.297 0.49,0.074 0.51,0.086 0.98,0.137 1.97,0.266 0.98,0.105 0.99,0.117 1.99,0.215 0.49,0.055 0.49,0.035 0.99,0.086 0.49,0.055 3.45,0.25 1.98,0.121 0.49,0.015 0.49,0.039 0.99,0.036 0.49,0.027 3.45,0.129 h 0.49 l 0.52,0.015 0.97,0.016 0.99,0.031 h 0.49 l 0.49,0.02 h 0.49 l 0.5,0.023 h 0.98 l 0.5,0.016 h 1.47 l 0.51,0.019 h 4.87 l 0.47,0.02 h 10.18 l 0.47,0.016 h 1.47 l 0.49,0.015 h 0.96 l 0.47,0.016 h 0.5 l 0.97,0.019 0.47,0.012 h 0.49 l 0.49,0.02 h 0.48 l 0.49,0.019 0.48,0.02 0.96,0.019 0.49,0.02 0.48,0.015 0.99,0.032 0.47,0.019 0.48,0.02 0.98,0.051 0.47,0.019 0.49,0.031 0.98,0.035 1.93,0.129 0.46,0.036 0.45,0.011 0.9,0.071 0.45,0.035 0.44,0.039 1.37,0.105 0.44,0.055 0.92,0.066 1.79,0.176 0.91,0.098 0.9,0.113 1.81,0.211 0.46,0.066 0.44,0.059 0.91,0.117 1.81,0.285 0.44,0.075 0.46,0.066 0.9,0.137 1.81,0.324 0.91,0.176 0.9,0.156 1.81,0.367 0.46,0.106 0.43,0.086 0.91,0.214 1.8,0.422 3.61,0.934 0.5,0.121 1.48,0.418 1.95,0.582 3.93,1.285 0.97,0.352 0.98,0.351 1.96,0.723 3.92,1.562 0.99,0.418 0.96,0.422 1.97,0.883 3.92,1.859 7.84,4.18 1.83,1.063 1.82,1.086 3.66,2.269 7.31,4.902 14.65,11.063 0.44,0.351 0.46,0.368 0.9,0.718 1.78,1.477 3.59,3.008 7.18,6.222 14.33,12.954 31.13,28.265 0.47,0.406 0.45,0.383 0.92,0.793 1.81,1.543 3.63,3.063 7.27,5.875 0.45,0.363 0.44,0.352 0.91,0.703 1.82,1.39 3.63,2.727 7.27,5.157 0.97,0.66 1,0.65 1.96,1.28 3.94,2.5 0.98,0.59 2.95,1.74 3.94,2.22 1.97,1.06 1.97,0.99 3.94,1.94 7.87,3.45 0.92,0.35 0.91,0.37 1.84,0.68 3.68,1.3 0.45,0.14 0.46,0.16 0.92,0.31 1.85,0.55 3.67,1.07 0.92,0.25 0.92,0.25 1.83,0.46 0.92,0.21 0.94,0.23 1.82,0.4 0.45,0.09 0.46,0.1 0.94,0.2 1.82,0.35 3.68,0.64 0.9,0.15 0.9,0.14 1.8,0.25 0.46,0.07 0.46,0.05 0.89,0.12 1.79,0.22 0.91,0.09 0.9,0.12 1.8,0.17 0.45,0.05 0.45,0.04 0.9,0.09 1.8,0.13 0.92,0.08 0.89,0.07 0.46,0.01 0.43,0.03 0.9,0.06 0.45,0.04 0.46,0.02 0.91,0.04 1.79,0.1 0.46,0.01 0.44,0.04 0.9,0.03 0.46,0.01 0.44,0.02 0.9,0.02 0.91,0.04 0.9,0.04 h 0.46 l 0.44,0.01 0.89,0.02 0.49,0.02 h 0.5 l 0.49,0.01 h 0.49 l 0.48,0.02 h 0.48 l 0.99,0.02 0.49,0.02 h 0.97 l 0.49,0.02 h 1.96 l 0.48,0.01 h 4.89 l 0.5,0.02 h 11.72 l 0.49,0.02 h 1.95 l 0.49,0.02 h 0.98 l 0.49,0.02 h 0.49 l 0.96,0.01 h 0.46 l 0.45,0.02 0.92,0.02 h 0.47 l 0.45,0.02 0.92,0.01 0.44,0.02 h 0.46 l 1.37,0.05 h 0.46 l 0.92,0.04 0.44,0.02 2.28,0.09 0.91,0.05 0.92,0.03 2.74,0.16 0.46,0.02 0.45,0.03 0.9,0.07 1.83,0.12 1.83,0.14 1.83,0.18 0.46,0.04 0.45,0.05 0.89,0.09 1.84,0.19 3.65,0.44 0.99,0.14 0.98,0.12 1.99,0.3 0.49,0.08 0.49,0.09 0.98,0.15 1.99,0.33 1.97,0.36 1.99,0.39 3.93,0.84 0.51,0.1 0.5,0.12 0.99,0.23 1.96,0.48 3.96,1.04 0.98,0.28 1,0.28 1.97,0.58 3.95,1.22 0.49,0.17 0.48,0.17 0.98,0.32 1.94,0.66 3.88,1.42 7.76,3.11 0.49,0.21 0.47,0.19 0.98,0.42 1.94,0.86 3.88,1.78 7.76,3.78 0.91,0.45 0.9,0.46 1.81,0.95 3.61,1.91 7.26,3.99 14.47,8.46 31.42,18.89 0.91,0.53 0.92,0.55 1.85,1.05 3.65,2.08 7.33,4.04 1.83,0.99 1.84,0.94 3.66,1.9 7.33,3.59 0.45,0.21 0.45,0.19 0.89,0.42 1.8,0.83 3.6,1.58 7.19,2.98 0.43,0.17 0.46,0.17 0.91,0.36 1.78,0.66 3.61,1.3 7.17,2.38 0.49,0.16 0.49,0.14 0.97,0.3 1.95,0.56 3.91,1.07 0.49,0.12 0.47,0.13 0.98,0.24 1.96,0.5 3.88,0.9 0.99,0.2 0.96,0.2 1.96,0.4 0.97,0.18 0.97,0.19 1.95,0.35 0.49,0.09 0.49,0.07 0.98,0.18 1.95,0.29 3.9,0.58 0.44,0.06 0.46,0.07 0.9,0.12 1.82,0.21 1.84,0.21 1.79,0.2 0.92,0.1 0.92,0.09 1.82,0.16 0.44,0.03 0.46,0.06 0.92,0.07 1.81,0.14 0.91,0.07 0.91,0.04 1.81,0.13 0.46,0.02 0.46,0.04 0.92,0.05 1.8,0.09 0.46,0.03 1.83,0.07 0.44,0.02 2.74,0.11 1.81,0.04 2.05,0.08 h 0.49 l 0.51,0.02 1.01,0.01 0.51,0.02 h 0.52 l 1.01,0.02 0.49,0.01 h 0.52 l 1.01,0.02 0.51,0.02 h 1.03 l 0.49,0.02 h 1.01 l 1.03,0.02 h 2.54 l 0.49,0.01 h 14.73 l 0.52,0.02 h 2.01"
         style="fill:none;stroke:#3871c1;stroke-width:10;stroke-linecap:butt;stroke-linejoin:miter;stroke-miterlimit:3.25;stroke-dasharray:none;stroke-opacity:1"
         transform="matrix(0.13333333,0,0,-0.13333333,0,166.49333)" />
      <path
         id="path13"
         d="m 2570.75,859.422 c 0,5.117 -2.04,10.004 -5.65,13.617 -3.62,3.609 -8.5,5.652 -13.62,5.652 -5.12,0 -10,-2.043 -13.61,-5.652 -3.62,-3.613 -5.66,-8.5 -5.66,-13.617 0,-5.121 2.04,-10.004 5.66,-13.621 3.61,-3.606 8.49,-5.641 13.61,-5.641 5.12,0 10,2.035 13.62,5.641 3.61,3.617 5.65,8.5 5.65,13.621"
         style="fill:#231f20;fill-opacity:1;fill-rule:evenodd;stroke:none"
         transform="matrix(0.13333333,0,0,-0.13333333,0,166.49333)" />
      <path
         id="path14"
         d="M 3.4557031,-6.328125e-4 V -0.24672656 C 2.6353906,-0.30532031 2.5767969,-0.37563281 2.5767969,-1.0318828 v -4.6875 c -0.4921875,0.1992187 -1.0195313,0.375 -1.59375002,0.46875 v 0.2109375 l 0.43359372,0.011719 c 0.3867188,0.023437 0.421875,0.070312 0.421875,0.5390625 v 3.4570313 c 0,0.65624999 -0.035156,0.72656249 -0.85546872,0.78515624 V -6.328125e-4 Z M -175.81187,-0.49575 V -0.74184375 C -176.63219,-0.8004375 -176.69078,-0.87075 -176.69078,-1.527 v -4.6875 c -0.49219,0.1992188 -1.01953,0.375 -1.59375,0.46875 v 0.2109375 l 0.43359,0.011719 c 0.38672,0.023437 0.42188,0.070312 0.42188,0.5390625 V -1.527 c 0,0.65625 -0.0352,0.7265625 -0.85547,0.78515625 V -0.49575 Z m 0,0"
         style="fill:#231f20;fill-opacity:1;fill-rule:nonzero;stroke:none"
         aria-label="1&#10;1"
         transform="matrix(1.3333333,0,0,1.3333333,337.35333,46.536)" />
      <path
         id="path15"
         d="m 2368.25,701.922 c 0,5.117 -2.04,10.004 -5.65,13.617 -3.62,3.609 -8.5,5.645 -13.62,5.645 -5.12,0 -10,-2.036 -13.61,-5.645 -3.62,-3.613 -5.66,-8.5 -5.66,-13.617 0,-5.121 2.04,-10.004 5.66,-13.621 3.61,-3.606 8.49,-5.641 13.61,-5.641 5.12,0 10,2.035 13.62,5.641 3.61,3.617 5.65,8.5 5.65,13.621"
         style="fill:#231f20;fill-opacity:1;fill-rule:evenodd;stroke:none"
         transform="matrix(0.13333333,0,0,-0.13333333,0,166.49333)" />
      <path
         id="path16"
         d="M 3.7031563,-1.2649469 C 3.433625,-0.69072812 3.3164375,-0.65557187 2.8359688,-0.65557187 h -1.6875 L 2.4258125,-1.9915094 c 0.8320313,-0.890625 1.1953125,-1.4179687 1.1953125,-2.203125 0,-0.9492187 -0.7265625,-1.5234375 -1.5117187,-1.5234375 -0.5273438,0 -0.9492188,0.234375 -1.21875005,0.5390625 l -0.515625,0.7265625 0.19921875,0.1757813 c 0.234375,-0.3515625 0.609375,-0.8320313 1.2304688,-0.8320313 0.65625,0 1.0546875,0.4335938 1.0546875,1.1953125 0,0.7734375 -0.5625,1.5117188 -1.125,2.1796875 -0.4453125,0.515625 -0.9492188,1.03125003 -1.45312505,1.52343753 V 6.78125e-4 H 3.6445625 C 3.7500313,-0.40947812 3.8437813,-0.79619687 3.9609688,-1.1829156 Z m -179.4609363,0 c -0.26953,0.57421878 -0.38672,0.60937503 -0.86719,0.60937503 h -1.6875 l 1.27735,-1.33593753 c 0.83203,-0.890625 1.19531,-1.4179687 1.19531,-2.203125 0,-0.9492187 -0.72656,-1.5234375 -1.51172,-1.5234375 -0.52734,0 -0.94922,0.234375 -1.21875,0.5390625 l -0.51563,0.7265625 0.19922,0.1757813 c 0.23438,-0.3515625 0.60938,-0.8320313 1.23047,-0.8320313 0.65625,0 1.05469,0.4335938 1.05469,1.1953125 0,0.7734375 -0.5625,1.5117188 -1.125,2.1796875 -0.44531,0.515625 -0.94922,1.03125003 -1.45313,1.52343753 V 6.78125e-4 h 3.36329 c 0.10546,-0.410156245 0.19921,-0.796874995 0.3164,-1.183593725 z m 0,0"
         style="fill:#231f20;fill-opacity:1;fill-rule:nonzero;stroke:none"
         aria-label="22"
         transform="matrix(1.3333333,0,0,1.3333333,310.60933,67.522533)" />
      <path
         id="path17"
         d="m 2080.25,481.418 c 0,5.117 -2.04,10.008 -5.65,13.625 -3.61,3.602 -8.5,5.645 -13.62,5.645 -5.11,0 -10.01,-2.043 -13.62,-5.645 -3.61,-3.617 -5.65,-8.508 -5.65,-13.625 0,-5.117 2.04,-10 5.65,-13.617 3.61,-3.61 8.51,-5.645 13.62,-5.645 5.12,0 10.01,2.035 13.62,5.645 3.61,3.617 5.65,8.5 5.65,13.617"
         style="fill:#231f20;fill-opacity:1;fill-rule:evenodd;stroke:none"
         transform="matrix(0.13333333,0,0,-0.13333333,0,166.49333)" />
      <path
         id="path18"
         d="m 0.76028125,-4.4645094 c 0.22265625,-0.328125 0.58593745,-0.7148437 1.07812495,-0.7148437 0.4804688,0 0.8554688,0.2929687 0.8554688,0.8554687 0,0.65625 -0.609375,1.0078125 -1.4296875,1.2773438 l 0.058594,0.2578125 c 0.140625,-0.046875 0.3632813,-0.1054688 0.5742188,-0.1054688 0.515625,0 1.1484375,0.3398438 1.1484375,1.171875 0,0.89062503 -0.4570313,1.35937503 -1.0898438,1.35937503 -0.515625,0 -0.890625,-0.24609375 -1.12499995,-0.45703125 -0.0703125,-0.0585938 -0.140625,-0.046875 -0.2109375,0 -0.0820313,0.0585938 -0.19921875,0.17578125 -0.2109375,0.29296875 -0.0117188,0.1171875 0.0234375,0.2109375 0.15234375,0.328125 0.1171875,0.10546875 0.4804687,0.3046875 0.890625,0.3046875 0.65625,0 2.3671875,-0.66796875 2.3671875,-2.12109373 0,-0.65625 -0.46875,-1.21875 -1.2539063,-1.3710938 v -0.011719 c 0.2578125,-0.1875 0.4804688,-0.3398438 0.609375,-0.4921875 0.1757813,-0.1640625 0.28125,-0.375 0.28125,-0.6328125 0,-0.6914063 -0.5273437,-1.1953125 -1.3476562,-1.1953125 -0.46875,0 -0.890625,0.234375 -1.13671875,0.5039062 l -0.3984375,0.5742188 z M -178.89695,-6.3541578 c 0.22266,-0.328125 0.58594,-0.7148438 1.07813,-0.7148438 0.48047,0 0.85547,0.2929688 0.85547,0.8554688 0,0.65625 -0.60938,1.0078125 -1.42969,1.2773437 l 0.0586,0.2578125 c 0.14063,-0.046875 0.36329,-0.1054687 0.57422,-0.1054687 0.51563,0 1.14844,0.3398437 1.14844,1.171875 0,0.890625 -0.45703,1.359375 -1.08984,1.359375 -0.51563,0 -0.89063,-0.2460938 -1.125,-0.4570313 -0.0703,-0.058594 -0.14063,-0.046875 -0.21094,0 -0.082,0.058594 -0.19922,0.1757813 -0.21094,0.2929688 -0.0117,0.1171875 0.0234,0.2109375 0.15235,0.328125 0.11718,0.1054687 0.48046,0.3046875 0.89062,0.3046875 0.65625,0 2.36719,-0.6679688 2.36719,-2.1210938 0,-0.65625 -0.46875,-1.21875 -1.25391,-1.3710937 v -0.011719 c 0.25781,-0.1875 0.48047,-0.3398437 0.60938,-0.4921875 0.17578,-0.1640625 0.28125,-0.375 0.28125,-0.6328125 0,-0.6914062 -0.52735,-1.1953125 -1.34766,-1.1953125 -0.46875,0 -0.89062,0.234375 -1.13672,0.5039063 l -0.39844,0.5742187 z m 0,0"
         style="fill:#231f20;fill-opacity:1;fill-rule:nonzero;stroke:none"
         aria-label="3&#10;3"
         transform="matrix(1.3333333,0,0,1.3333333,272.47067,96.569867)" />
      <path
         id="path19"
         d="m 2224.25,625.422 c 0,5.117 -2.04,10 -5.65,13.617 -3.61,3.609 -8.51,5.641 -13.62,5.641 -5.11,0 -10,-2.032 -13.62,-5.641 -3.61,-3.617 -5.64,-8.5 -5.64,-13.617 0,-5.117 2.03,-10.008 5.64,-13.621 3.62,-3.606 8.51,-5.645 13.62,-5.645 5.11,0 10.01,2.039 13.62,5.645 3.61,3.613 5.65,8.504 5.65,13.621"
         style="fill:#231f20;fill-opacity:1;fill-rule:evenodd;stroke:none"
         transform="matrix(0.13333333,0,0,-0.13333333,0,166.49333)" />
      <path
         id="path20"
         d="m 4.1008594,-1.6051344 v -0.421875 H 3.2336719 v -3.65625 H 2.8821094 c -0.9257813,1.21875 -1.8515625,2.5546875 -2.70703127,3.8320313 v 0.2460937 H 2.5188281 v 0.65625003 c 0,0.5859375 -0.035156,0.64453125 -0.8203125,0.703125 V 3.34375e-4 H 4.0071094 V -0.24575937 C 3.2805469,-0.30435312 3.2336719,-0.35122812 3.2336719,-0.94888437 V -1.6051344 Z M 2.5188281,-2.0270094 H 0.74929688 C 1.3352344,-3.0231031 1.9211719,-3.8785719 2.5071094,-4.6754469 h 0.011719 z M -72.40793,-66.606111 v -0.421875 h -0.867187 v -3.65625 h -0.351563 c -0.925781,1.21875 -1.851562,2.554688 -2.707031,3.832031 v 0.246094 h 2.34375 v 0.65625 c 0,0.585938 -0.03516,0.644531 -0.820312,0.703125 v 0.246094 h 2.308593 v -0.246094 c -0.726562,-0.05859 -0.773437,-0.105469 -0.773437,-0.703125 v -0.65625 z m -1.582031,-0.421875 h -1.769531 c 0.585937,-0.996094 1.171875,-1.851562 1.757812,-2.648437 h 0.01172 z m 0,0"
         style="fill:#231f20;fill-opacity:1;fill-rule:nonzero;stroke:none"
         aria-label="4&#10;4"
         transform="matrix(1.3333333,0,0,1.3333333,291.54,96.569867)" />
      <path
         id="path21"
         d="M 719.723,986.508 C 646.09,1005.79 579.387,948.016 557.602,889.262"
         style="fill:none;stroke:#231f20;stroke-width:7.5;stroke-linecap:butt;stroke-linejoin:miter;stroke-miterlimit:3.25;stroke-dasharray:none;stroke-opacity:1"
         transform="matrix(0.13333333,0,0,-0.13333333,0,166.49333)" />
      <path
         id="path22"
         d="m 561.355,899.535 23.606,9.102 0.352,-0.813 -20.032,-32.207 c -4.836,-11.609 -9.672,-23.219 -14.511,-34.824 -0.477,12.562 -0.961,25.133 -1.446,37.695 l -7.527,37.18 0.5,0.656 19.058,-16.789"
         style="fill:#231f20;fill-opacity:1;fill-rule:nonzero;stroke:none"
         transform="matrix(0.13333333,0,0,-0.13333333,0,166.49333)" />
      <path
         id="path23"
         d="M 520.68,765.285 C 437.715,797.875 369.008,698.824 332.266,632.512"
         style="fill:none;stroke:#231f20;stroke-width:7.5;stroke-linecap:butt;stroke-linejoin:miter;stroke-miterlimit:3.25;stroke-dasharray:none;stroke-opacity:1"
         transform="matrix(0.13333333,0,0,-0.13333333,0,166.49333)" />
      <path
         id="path24"
         d="m 337.574,641.91 25.254,1.574 0.094,-0.879 -28.805,-24.683 c -8.105,-9.609 -16.219,-19.223 -24.328,-28.832 3.324,12.129 6.656,24.254 9.977,36.383 l 4.019,37.715 0.672,0.484 13.117,-21.762"
         style="fill:#231f20;fill-opacity:1;fill-rule:nonzero;stroke:none"
         transform="matrix(0.13333333,0,0,-0.13333333,0,166.49333)" />
      <path
         id="path25"
         d="M 261.266,625.422 C 245.152,853.332 720.902,1298.45 1351.87,1156.47"
         style="fill:none;stroke:#231f20;stroke-width:7.5;stroke-linecap:butt;stroke-linejoin:miter;stroke-miterlimit:3.25;stroke-dasharray:none;stroke-opacity:1"
         transform="matrix(0.13333333,0,0,-0.13333333,0,166.49333)" />
      <path
         id="path26"
         d="m 1341.33,1158.71 -7.72,24.09 0.83,0.31 30.99,-21.87 c 11.31,-5.49 22.62,-11 33.93,-16.5 -12.58,0.25 -25.15,0.5 -37.72,0.74 l -37.55,-5.35 -0.63,0.53 17.87,18.05"
         style="fill:#231f20;fill-opacity:1;fill-rule:nonzero;stroke:none"
         transform="matrix(0.13333333,0,0,-0.13333333,0,166.49333)" />
      <path
         id="path27"
         d="m 1450.49,1081.71 c 0,-5.03 -0.04,-10.03 -0.12,-15"
         style="fill:none;stroke:#231f20;stroke-width:7.5;stroke-linecap:butt;stroke-linejoin:miter;stroke-miterlimit:3.25;stroke-dasharray:none;stroke-opacity:1"
         transform="matrix(0.13333333,0,0,-0.13333333,0,166.49333)" />
      <path
         id="path28"
         d="M 1449.8,1046.61 C 1429.38,537.191 960.723,372.648 325.719,266.07"
         style="fill:none;stroke:#231f20;stroke-width:7.5;stroke-linecap:butt;stroke-linejoin:miter;stroke-miterlimit:3.25;stroke-dasharray:30.1496, 20.0997;stroke-dashoffset:0;stroke-opacity:1"
         transform="matrix(0.13333333,0,0,-0.13333333,0,166.49333)" />
      <path
         id="path29"
         d="m 315.797,264.41 c -4.93,-0.816 -9.863,-1.633 -14.805,-2.449"
         style="fill:none;stroke:#231f20;stroke-width:7.5;stroke-linecap:butt;stroke-linejoin:miter;stroke-miterlimit:3.25;stroke-dasharray:none;stroke-opacity:1"
         transform="matrix(0.13333333,0,0,-0.13333333,0,166.49333)" />
      <path
         id="path30"
         d="m 311.469,264.563 16.715,-19.004 -0.641,-0.61 -37.152,7.653 c -12.563,0.519 -25.125,1.043 -37.692,1.566 11.621,4.801 23.246,9.594 34.867,14.398 l 32.278,19.926 0.793,-0.238 -9.168,-23.691"
         style="fill:#231f20;fill-opacity:1;fill-rule:nonzero;stroke:none"
         transform="matrix(0.13333333,0,0,-0.13333333,0,166.49333)" />
      <path
         id="path31"
         d="m 2.6962859,1.3250859 c -0.890625,-0.76171871 -1.40625,-2.20312496 -1.40625,-3.75 0,-1.546875 0.515625,-3 1.40625,-3.75 L 2.5439422,-6.3858516 c -1.3242188,0.9023438 -1.91015626,2.3320313 -1.91015626,3.9492188 0,1.62890624 0.58593746,3.08203124 1.91015626,3.9609375 z M 7.767575,-0.45616406 7.4746062,-0.47960156 c -0.328125,-0.046875 -0.3867187,-0.0820313 -0.3867187,-0.55078124 v -5.3789063 c -0.3398438,0.1171875 -0.9375,0.2578125 -1.40625,0.3164063 v 0.2109375 c 0.6445312,0.046875 0.6914062,0.082031 0.6914062,0.6679687 v 1.2773438 c -0.2109375,-0.082031 -0.46875,-0.1054688 -0.5976562,-0.1054688 -1.21875,0 -2.3203125,0.984375 -2.3203125,2.2382813 0,1.25390624 0.9492187,1.91015624 1.6640625,1.91015624 0.1054687,0 0.3515625,-0.046875 0.703125,-0.2578125 l 0.5507812,-0.328125 v 0.5859375 c 0.5273438,-0.1875 1.1953125,-0.3046875 1.3945313,-0.33984375 z m -1.3945313,-0.3046875 c -0.2109375,0.1640625 -0.5390625,0.3046875 -0.8671875,0.3046875 -0.5742187,0 -1.2304687,-0.52734375 -1.2304687,-1.59375004 0,-1.3007812 0.7617187,-1.6523437 1.171875,-1.6523437 0.3398437,0 0.7148437,0.140625 0.9257812,0.4570312 z M 9.0859344,-4.8272578 c 0.2578125,0 0.4570312,-0.2109375 0.4570312,-0.4570313 0,-0.2695312 -0.1992187,-0.46875 -0.4570312,-0.46875 -0.234375,0 -0.4570313,0.1992188 -0.4570313,0.46875 0,0.2460938 0.2226563,0.4570313 0.4570313,0.4570313 z M 10.140622,8.671875e-4 V -0.23350781 C 9.5546844,-0.29210156 9.4960906,-0.33897656 9.4960906,-0.94835156 V -4.0538203 c -0.3984375,0.1523437 -0.8203125,0.2695312 -1.2773437,0.3515625 v 0.2109375 c 0.5390625,0.09375 0.5625,0.1289062 0.5625,0.6796875 v 1.86328124 c 0,0.609375 -0.058594,0.65625 -0.6210938,0.71484375 V 8.671875e-4 Z M 14.56738,-3.9366328 h -1.59375 v 0.234375 c 0.503906,0.058594 0.5625,0.1523437 0.421875,0.5859375 -0.1875,0.5859375 -0.480469,1.40625 -0.796875,2.15624999 -0.257813,-0.64453129 -0.621094,-1.59374999 -0.855469,-2.22656249 -0.140625,-0.3867188 -0.128906,-0.4570313 0.363281,-0.515625 v -0.234375 H 10.25488 v 0.234375 c 0.492187,0.070312 0.5625,0.1289062 0.773437,0.65625 0.421875,1.0429687 0.832031,2.06249999 1.242188,3.14062499 h 0.234375 c 0.503906,-1.33593749 0.972656,-2.43749999 1.277343,-3.11718749 0.234375,-0.5390625 0.316407,-0.6210938 0.785157,-0.6796875 z m 3.287109,2.98828124 c -0.328125,0.3046875 -0.667969,0.4453125 -1.019531,0.4453125 -0.632813,0 -1.335938,-0.50390624 -1.347656,-1.72265624 1.066406,-0.046875 2.191406,-0.1289063 2.355468,-0.1640625 0.152344,-0.035156 0.199219,-0.1054688 0.199219,-0.28125 0,-0.703125 -0.597656,-1.3710938 -1.347656,-1.3710938 -0.46875,0 -0.949219,0.2460938 -1.324219,0.65625 -0.363281,0.4101563 -0.597656,0.9609375 -0.597656,1.5820313 0,1.00781249 0.65625,1.91015624 1.757812,1.91015624 0.28125,0 0.902344,-0.1640625 1.464844,-0.8671875 z M 16.483395,-3.7022578 c 0.492188,0 0.796875,0.421875 0.785157,0.890625 0,0.1289062 -0.04687,0.1875 -0.210938,0.1875 -0.527344,0.011719 -1.019531,0.023437 -1.523437,0.023437 0.128906,-0.7265625 0.527343,-1.1015625 0.949218,-1.101562 z m 3.416016,0.6210937 v -0.984375 c -0.433594,0.1875 -0.832031,0.2929688 -1.265625,0.3632813 v 0.1992187 c 0.503906,0.070312 0.550781,0.1054688 0.550781,0.703125 v 1.86328129 c 0,0.59765625 -0.05859,0.64453125 -0.621094,0.703125 V 8.671875e-4 h 2.074219 V -0.23350781 c -0.691406,-0.0585937 -0.738281,-0.10546875 -0.738281,-0.703125 V -2.5772578 c 0.199219,-0.5039063 0.480469,-0.7734375 0.714844,-0.7734375 0.152343,0 0.257812,0.046875 0.386718,0.1875 0.04687,0.046875 0.128907,0.058594 0.234375,0.011719 0.175782,-0.082031 0.292969,-0.2578125 0.292969,-0.4335937 0,-0.2226563 -0.210937,-0.4570313 -0.527344,-0.4570313 -0.421875,0 -0.808593,0.5039063 -1.078125,0.9609375 z m 5.871094,-0.8554687 c -0.328125,0.046875 -0.785157,0.1054687 -1.230469,0.1171875 -0.257813,-0.140625 -0.550781,-0.2226563 -0.855469,-0.2226563 -0.691406,0 -1.617187,0.46875 -1.617187,1.5 0,0.609375 0.386718,1.03125 0.796875,1.2070313 -0.152344,0.1757812 -0.433594,0.41015624 -0.796875,0.53906249 -0.01172,0.09375 0.02344,0.24609375 0.105468,0.38671875 0.117188,0.1875 0.339844,0.38671875 0.65625,0.4921875 -0.210937,0.1640625 -0.5625,0.4453125 -0.738281,0.6328125 -0.140625,0.12890625 -0.222656,0.30468746 -0.222656,0.50390626 0.01172,0.5039062 0.5625,1.0898437 1.558594,1.0898437 1.195312,0 2.25,-0.8671875 2.25,-1.78124996 0,-0.87890625 -0.738282,-1.0546875 -1.289063,-1.0546875 -0.304687,0 -0.621094,0 -0.949219,0 -0.410156,0 -0.5625,-0.1640625 -0.5625,-0.33984375 0,-0.12890625 0.140625,-0.29296879 0.269532,-0.37499999 0.140625,0.023437 0.304687,0.046875 0.457031,0.046875 0.761719,0 1.570312,-0.46875 1.570312,-1.4414063 0,-0.328125 -0.09375,-0.5976562 -0.269531,-0.796875 l 0.515625,0.023437 c 0.140625,-0.082031 0.328125,-0.3164062 0.398438,-0.4570312 z m -2.179688,0.1640625 c 0.515625,0 0.84375,0.5039062 0.84375,1.21875 0,0.7148437 -0.351562,1.0664062 -0.75,1.0664062 -0.503906,0 -0.84375,-0.5039062 -0.84375,-1.2070312 0,-0.703125 0.351563,-1.078125 0.75,-1.078125 z m 0.199219,3.86718749 c 0.375,0 0.632812,0.03515625 0.867187,0.1171875 0.257813,0.1171875 0.410157,0.33984375 0.410157,0.64453125 0,0.56249996 -0.445313,0.99609376 -1.300782,0.99609376 -0.667968,0 -1.183593,-0.3632813 -1.183593,-0.85546876 0,-0.2578125 0.175781,-0.515625 0.410156,-0.703125 0.164062,-0.140625 0.363281,-0.19921875 0.796875,-0.19921875 z m 5.44043,-1.04296875 c -0.328125,0.3046875 -0.667969,0.4453125 -1.019532,0.4453125 -0.632812,0 -1.335937,-0.50390624 -1.347656,-1.72265624 1.066406,-0.046875 2.191406,-0.1289063 2.355469,-0.1640625 0.152344,-0.035156 0.199219,-0.1054688 0.199219,-0.28125 0,-0.703125 -0.597657,-1.3710938 -1.347657,-1.3710938 -0.46875,0 -0.949218,0.2460938 -1.324218,0.65625 -0.363282,0.4101563 -0.597657,0.9609375 -0.597657,1.5820313 0,1.00781249 0.65625,1.91015624 1.757813,1.91015624 0.28125,0 0.902344,-0.1640625 1.464844,-0.8671875 z M 27.859372,-3.7022578 c 0.492187,0 0.796875,0.421875 0.785156,0.890625 0,0.1289062 -0.04687,0.1875 -0.210937,0.1875 -0.527344,0.011719 -1.019532,0.023437 -1.523438,0.023437 0.128906,-0.7265625 0.527344,-1.1015625 0.949219,-1.101562 z m 6.439453,3.24609374 -0.292969,-0.0234375 c -0.328125,-0.046875 -0.386719,-0.0820313 -0.386719,-0.55078124 v -5.3789063 c -0.339843,0.1171875 -0.9375,0.2578125 -1.40625,0.3164063 v 0.2109375 c 0.644532,0.046875 0.691407,0.082031 0.691407,0.6679687 v 1.2773438 c -0.210938,-0.082031 -0.46875,-0.1054688 -0.597657,-0.1054688 -1.21875,0 -2.320312,0.984375 -2.320312,2.2382813 0,1.25390624 0.949219,1.91015624 1.664062,1.91015624 0.105469,0 0.351563,-0.046875 0.703125,-0.2578125 l 0.550782,-0.328125 v 0.5859375 c 0.527343,-0.1875 1.195312,-0.3046875 1.394531,-0.33984375 z m -1.394531,-0.3046875 c -0.210938,0.1640625 -0.539063,0.3046875 -0.867188,0.3046875 -0.574219,0 -1.230469,-0.52734375 -1.230469,-1.59375004 0,-1.3007812 0.761719,-1.6523437 1.171875,-1.6523437 0.339844,0 0.714844,0.140625 0.925782,0.4570312 z m 1.904297,-5.41406254 c 0.890625,0.7382813 1.417968,2.203125 1.417968,3.75 0,1.54687504 -0.503906,2.98828129 -1.417968,3.75 l 0.164062,0.1992188 c 1.347656,-0.91406251 1.898438,-2.33203126 1.898438,-3.9492188 0,-1.6289062 -0.550782,-3.0585937 -1.898438,-3.9609375 z m 3.348632,23.1650391 c -0.890625,-0.761719 -1.40625,-2.203125 -1.40625,-3.75 0,-1.546875 0.515625,-3 1.40625,-3.75 L 38.00488,9.2791875 c -1.324219,0.9023435 -1.910157,2.3320315 -1.910157,3.9492185 0,1.628907 0.585938,3.082032 1.910157,3.960938 z m 4.321289,-1.675781 -0.09375,-0.234375 c -0.09375,0.05859 -0.222656,0.105469 -0.328125,0.105469 -0.152343,0 -0.316406,-0.140625 -0.316406,-0.550782 v -1.664062 c 0,-0.46875 -0.08203,-0.84375 -0.398437,-1.101563 -0.199219,-0.164062 -0.46875,-0.246093 -0.738282,-0.246093 -0.515625,0.105468 -1.101562,0.457031 -1.347656,0.632812 -0.175781,0.128906 -0.292969,0.222656 -0.292969,0.363281 0,0.199219 0.234375,0.386719 0.398438,0.386719 0.128906,0 0.222656,-0.07031 0.257812,-0.210937 0.07031,-0.28125 0.152344,-0.480469 0.269532,-0.597657 0.09375,-0.105468 0.222656,-0.175781 0.410156,-0.175781 0.445312,0 0.75,0.363281 0.75,1.019531 v 0.164063 c -0.199219,0.152344 -0.855469,0.398437 -1.394531,0.574219 -0.492188,0.175781 -0.726563,0.457031 -0.726563,0.902343 0,0.5625 0.445313,1.089844 1.078125,1.089844 0.269531,0 0.703125,-0.328125 1.066406,-0.574219 0.04687,0.152344 0.09375,0.28125 0.210938,0.410157 0.105469,0.08203 0.292969,0.164062 0.421875,0.164062 z m -1.429687,-0.410156 c -0.164063,0.164062 -0.480469,0.316406 -0.714844,0.328125 -0.28125,0 -0.644531,-0.222657 -0.644531,-0.691407 0,-0.328125 0.199219,-0.492187 0.550781,-0.65625 0.1875,-0.09375 0.621094,-0.28125 0.808594,-0.375 z m 1.889648,-5.414063 c 0.890625,0.738281 1.417969,2.203125 1.417969,3.75 0,1.546875 -0.503906,2.988281 -1.417969,3.75 l 0.164063,0.199219 c 1.347656,-0.914063 1.898437,-2.332031 1.898437,-3.949219 0,-1.628906 -0.550781,-3.058594 -1.898437,-3.9609375 z m 172.113277,7.5 c -0.89062,-0.761719 -1.40625,-2.203125 -1.40625,-3.75 0,-1.546875 0.51563,-3 1.40625,-3.75 l -0.15234,-0.2109375 c -1.32422,0.9023435 -1.91016,2.3320315 -1.91016,3.9492185 0,1.628907 0.58594,3.082032 1.91016,3.960938 z m 1.79004,-4.957031 V 9.25575 c -0.33984,0.1171875 -0.89062,0.2578125 -1.3125,0.3164063 v 0.2109375 c 0.58594,0.046875 0.59766,0.1054687 0.59766,0.6679692 v 5.003906 c 0.49219,0.234375 0.94922,0.316406 1.32422,0.316406 1.20703,0 2.26172,-0.9375 2.26172,-2.261719 0,-1.054687 -0.8086,-1.886718 -1.78125,-1.886718 -0.0937,0 -0.22266,0.02344 -0.36328,0.09375 z m 0,0.269531 c 0.16407,-0.105469 0.44532,-0.175781 0.70313,-0.175781 0.73828,0 1.37109,0.597656 1.37109,1.617187 0,1.054688 -0.48047,1.6875 -1.21875,1.6875 -0.48047,-0.01172 -0.75,-0.328125 -0.80859,-0.503906 -0.0352,-0.08203 -0.0469,-0.175781 -0.0469,-0.304687 z m 3.61231,-2.8125 c 0.89062,0.738281 1.41797,2.203125 1.41797,3.75 0,1.546875 -0.50391,2.988281 -1.41797,3.75 l 0.16406,0.199219 c 1.34766,-0.914063 1.89844,-2.332031 1.89844,-3.949219 0,-1.628906 -0.55078,-3.058594 -1.89844,-3.9609375 z m 0,0"
         style="fill:#231f20;fill-opacity:1;fill-rule:nonzero;stroke:none"
         aria-label="(diverged)&#10;(a)(b)"
         transform="matrix(1.3333333,0,0,1.3333333,49.705733,141.284)" />
    </g>
  </g>
</svg>
