<?xml version="1.0" encoding="UTF-8" standalone="no"?>
<!-- Created with Inkscape (http://www.inkscape.org/) -->

<svg
   version="1.1"
   id="svg1"
   width="288.04001"
   height="65.146667"
   viewBox="0 0 288.04001 65.146667"
   sodipodi:docname="phabbf07.eps"
   xmlns:inkscape="http://www.inkscape.org/namespaces/inkscape"
   xmlns:sodipodi="http://sodipodi.sourceforge.net/DTD/sodipodi-0.dtd"
   xmlns="http://www.w3.org/2000/svg"
   xmlns:svg="http://www.w3.org/2000/svg">
  <defs
     id="defs1" />
  <sodipodi:namedview
     id="namedview1"
     pagecolor="#ffffff"
     bordercolor="#000000"
     borderopacity="0.25"
     inkscape:showpageshadow="2"
     inkscape:pageopacity="0.0"
     inkscape:pagecheckerboard="0"
     inkscape:deskcolor="#d1d1d1">
    <inkscape:page
       x="0"
       y="0"
       inkscape:label="1"
       id="page1"
       width="288.04001"
       height="65.146667"
       margin="0"
       bleed="0" />
  </sodipodi:namedview>
  <g
     id="g1"
     inkscape:groupmode="layer"
     inkscape:label="1">
    <g
       id="group-R5">
      <path
         id="path2"
         d="M 515.563,182.695 H 2139.09"
         style="fill:none;stroke:#231f20;stroke-width:5;stroke-linecap:butt;stroke-linejoin:miter;stroke-miterlimit:10;stroke-dasharray:none;stroke-opacity:1"
         transform="matrix(0.13333333,0,0,-0.13333333,0,65.146667)" />
      <path
         id="path3"
         d="M 516.992,221.281 V 142.688"
         style="fill:none;stroke:#231f20;stroke-width:5;stroke-linecap:butt;stroke-linejoin:miter;stroke-miterlimit:10;stroke-dasharray:none;stroke-opacity:1"
         transform="matrix(0.13333333,0,0,-0.13333333,0,65.146667)" />
      <path
         id="path4"
         d="M 1813.78,221.281 V 142.688"
         style="fill:none;stroke:#231f20;stroke-width:5;stroke-linecap:butt;stroke-linejoin:miter;stroke-miterlimit:10;stroke-dasharray:none;stroke-opacity:1"
         transform="matrix(0.13333333,0,0,-0.13333333,0,65.146667)" />
      <path
         id="path5"
         d="M 1489.58,221.281 V 142.688"
         style="fill:none;stroke:#231f20;stroke-width:5;stroke-linecap:butt;stroke-linejoin:miter;stroke-miterlimit:10;stroke-dasharray:none;stroke-opacity:1"
         transform="matrix(0.13333333,0,0,-0.13333333,0,65.146667)" />
      <path
         id="path6"
         d="M 1165.39,221.281 V 142.688"
         style="fill:none;stroke:#231f20;stroke-width:5;stroke-linecap:butt;stroke-linejoin:miter;stroke-miterlimit:10;stroke-dasharray:none;stroke-opacity:1"
         transform="matrix(0.13333333,0,0,-0.13333333,0,65.146667)" />
      <path
         id="path7"
         d="M 841.188,221.281 V 142.688"
         style="fill:none;stroke:#231f20;stroke-width:5;stroke-linecap:butt;stroke-linejoin:miter;stroke-miterlimit:10;stroke-dasharray:none;stroke-opacity:1"
         transform="matrix(0.13333333,0,0,-0.13333333,0,65.146667)" />
      <path
         id="path8"
         d="M 2137.98,221.281 V 142.688"
         style="fill:none;stroke:#231f20;stroke-width:5;stroke-linecap:butt;stroke-linejoin:miter;stroke-miterlimit:10;stroke-dasharray:none;stroke-opacity:1"
         transform="matrix(0.13333333,0,0,-0.13333333,0,65.146667)" />
      <path
         id="path9"
         d="m 2.1574437,-5.7199559 c -1.3476562,0 -1.8398437,1.6054687 -1.8398437,2.9179687 0,1.4179688 0.48046875,2.90625001 1.8398437,2.90625001 1.359375,0 1.828125,-1.59375001 1.828125,-2.91796871 0,-1.3828125 -0.46875,-2.90625 -1.828125,-2.90625 z m 0,0.3046875 c 0.8085938,0 1.03125,1.3242187 1.03125,2.6015625 0,1.265625 -0.2226562,2.61328121 -1.03125,2.61328121 -0.7734375,0 -1.0429687,-1.35937501 -1.0429687,-2.61328121 0,-1.2539063 0.2226562,-2.6015625 1.0429687,-2.6015625 z m 33.6562503,5.41406246 v -0.24609375 c -0.820313,-0.0585938 -0.878907,-0.12890625 -0.878907,-0.78515621 v -4.6875 c -0.492187,0.1992187 -1.019531,0.375 -1.59375,0.46875 v 0.2109375 l 0.433594,0.011719 c 0.386719,0.023437 0.421875,0.070312 0.421875,0.5390625 v 3.4570313 c 0,0.65624996 -0.03516,0.72656246 -0.855469,0.78515621 v 0.24609375 z M 68.418186,-1.2668309 c -0.269531,0.57421871 -0.386719,0.60937496 -0.867188,0.60937496 h -1.6875 l 1.277344,-1.33593746 c 0.832031,-0.890625 1.195313,-1.4179688 1.195313,-2.203125 0,-0.9492188 -0.726563,-1.5234375 -1.511719,-1.5234375 -0.527344,0 -0.949219,0.234375 -1.21875,0.5390625 l -0.515625,0.7265625 0.199219,0.1757812 c 0.234375,-0.3515625 0.609375,-0.8320312 1.230468,-0.8320312 0.65625,0 1.054688,0.4335937 1.054688,1.1953125 0,0.7734375 -0.5625,1.5117187 -1.125,2.1796875 -0.445313,0.515625 -0.949219,1.03124996 -1.453125,1.52343746 v 0.2109375 h 3.363281 c 0.105469,-0.41015625 0.199219,-0.796875 0.316406,-1.18359376 z m 29.411133,-3.1992188 c 0.222656,-0.328125 0.585937,-0.7148437 1.078125,-0.7148437 0.480468,0 0.855468,0.2929687 0.855468,0.8554687 0,0.65625 -0.609375,1.0078125 -1.429687,1.2773438 l 0.05859,0.2578125 c 0.140625,-0.046875 0.363281,-0.1054688 0.574218,-0.1054688 0.515625,0 1.148447,0.3398438 1.148447,1.171875 0,0.89062501 -0.45704,1.35937501 -1.089853,1.35937501 -0.515625,0 -0.890625,-0.24609375 -1.125,-0.45703125 -0.07031,-0.0585938 -0.140625,-0.046875 -0.210937,0 -0.08203,0.0585938 -0.199219,0.17578125 -0.210938,0.29296875 -0.01172,0.1171875 0.02344,0.2109375 0.152344,0.328125 0.117187,0.10546875 0.480469,0.3046875 0.890625,0.3046875 0.65625,0 2.367189,-0.66796875 2.367189,-2.12109371 0,-0.65625 -0.46875,-1.21875 -1.253908,-1.3710938 v -0.011719 c 0.257813,-0.1875 0.480478,-0.3398438 0.609378,-0.4921875 0.17578,-0.1640625 0.28125,-0.375 0.28125,-0.6328125 0,-0.6914063 -0.527347,-1.1953125 -1.347659,-1.1953125 -0.46875,0 -0.890625,0.234375 -1.136719,0.5039062 l -0.398437,0.5742188 z m 35.698241,2.859375 v -0.421875 h -0.86719 v -3.65625 h -0.35156 c -0.92578,1.21875 -1.85156,2.5546875 -2.70703,3.8320313 v 0.2460937 h 2.34375 v 0.65625001 c 0,0.5859375 -0.0352,0.64453125 -0.82031,0.703125 v 0.24609375 h 2.30859 v -0.24609375 c -0.72656,-0.0585938 -0.77344,-0.10546875 -0.77344,-0.703125 V -1.6066747 Z m -1.58203,-0.421875 H 130.176 c 0.58594,-0.9960937 1.17187,-1.8515625 1.75781,-2.6484375 h 0.0117 z m 31.20703,-2.9179687 h 2.09766 l 0.23437,-0.5859375 -0.0586,-0.070312 h -2.56641 l -0.35156,2.7421875 c 0.21094,-0.082031 0.55078,-0.1875 0.92578,-0.1875 0.98438,0 1.46484,0.5742187 1.46484,1.359375 0,0.6796875 -0.375,1.33593746 -1.13671,1.33593746 -0.55079,0 -0.91407,-0.29296875 -1.11329,-0.45703125 -0.082,-0.0703125 -0.15234,-0.0585938 -0.23437,0 -0.10547,0.09375 -0.1875,0.2109375 -0.1875,0.29296875 -0.0234,0.10546875 0.0234,0.1875 0.14062,0.3046875 0.12891,0.12890625 0.51563,0.31640625 0.92579,0.31640625 0.48046,-0.01171875 1.07812,-0.24609375 1.57031,-0.6328125 0.55078,-0.45703125 0.79687,-0.96093751 0.79687,-1.51171871 0,-0.7382813 -0.58593,-1.5117188 -1.73437,-1.5117188 -0.2461,0 -0.66797,0.140625 -1.00781,0.2695313 z M 17.983616,-43.914292 c -1.347657,0 -1.839844,1.605469 -1.839844,2.917969 0,1.417969 0.480469,2.90625 1.839844,2.90625 1.359375,0 1.828125,-1.59375 1.828125,-2.917969 0,-1.382812 -0.46875,-2.90625 -1.828125,-2.90625 z m 0,0.304688 c 0.808593,0 1.03125,1.324218 1.03125,2.601562 0,1.265625 -0.222657,2.613281 -1.03125,2.613281 -0.773438,0 -1.042969,-1.359375 -1.042969,-2.613281 0,-1.253906 0.222656,-2.601562 1.042969,-2.601562 z m 33.706054,5.414062 v -0.246094 c -0.820312,-0.05859 -0.878906,-0.128906 -0.878906,-0.785156 v -4.6875 c -0.492187,0.199219 -1.019531,0.375 -1.59375,0.46875 v 0.210938 l 0.433594,0.01172 c 0.386719,0.02344 0.421875,0.07031 0.421875,0.539063 v 3.457031 c 0,0.65625 -0.03516,0.726563 -0.855469,0.785156 v 0.246094 z m 32.654297,-1.265625 c -0.269531,0.574219 -0.386719,0.609375 -0.867187,0.609375 h -1.6875 l 1.277343,-1.335937 c 0.832032,-0.890625 1.195313,-1.417969 1.195313,-2.203125 0,-0.949219 -0.726563,-1.523438 -1.511719,-1.523438 -0.527344,0 -0.949219,0.234375 -1.21875,0.539063 l -0.515625,0.726562 0.199219,0.175781 c 0.234375,-0.351562 0.609375,-0.832031 1.230469,-0.832031 0.65625,0 1.054687,0.433594 1.054687,1.195313 0,0.773437 -0.5625,1.511718 -1.125,2.179687 -0.445312,0.515625 -0.949219,1.03125 -1.453125,1.523438 v 0.210937 h 3.363281 c 0.105469,-0.410156 0.199219,-0.796875 0.316407,-1.183594 z m 29.463863,-3.199219 c 0.22266,-0.328125 0.58594,-0.714843 1.07813,-0.714843 0.48047,0 0.85547,0.292968 0.85547,0.855468 0,0.65625 -0.60938,1.007813 -1.42969,1.277344 l 0.0586,0.257813 c 0.14063,-0.04687 0.36329,-0.105469 0.57422,-0.105469 0.51563,0 1.14844,0.339844 1.14844,1.171875 0,0.890625 -0.45703,1.359375 -1.08984,1.359375 -0.51563,0 -0.89063,-0.246094 -1.125,-0.457031 -0.0703,-0.05859 -0.14063,-0.04687 -0.21094,0 -0.082,0.05859 -0.19922,0.175781 -0.21094,0.292968 -0.0117,0.117188 0.0234,0.210938 0.15235,0.328125 0.11718,0.105469 0.48046,0.304688 0.89062,0.304688 0.65625,0 2.36719,-0.667969 2.36719,-2.121094 0,-0.65625 -0.46875,-1.21875 -1.25391,-1.371094 v -0.01172 c 0.25781,-0.1875 0.48047,-0.339844 0.60938,-0.492188 0.17578,-0.164062 0.28125,-0.375 0.28125,-0.632812 0,-0.691407 -0.52735,-1.195313 -1.34766,-1.195313 -0.46875,0 -0.89062,0.234375 -1.13672,0.503906 l -0.39844,0.574219 z m 35.74512,2.859375 v -0.421875 h -0.86719 v -3.65625 h -0.35156 c -0.92578,1.21875 -1.85156,2.554688 -2.70703,3.832032 v 0.246093 h 2.34375 v 0.65625 c 0,0.585938 -0.0352,0.644532 -0.82031,0.703125 v 0.246094 h 2.30859 v -0.246094 c -0.72656,-0.05859 -0.77344,-0.105468 -0.77344,-0.703125 v -0.65625 z m -1.58203,-0.421875 h -1.76953 c 0.58594,-0.996093 1.17187,-1.851562 1.75781,-2.648437 h 0.0117 z m 0,0"
         style="fill:#231f20;fill-opacity:1;fill-rule:nonzero;stroke:none"
         aria-label="012345&#10;01234"
         transform="matrix(1.3333333,0,0,1.3333333,66.576533,60.825827)" />
      <path
         id="path10"
         d="m 1387.35,262.734 c 0,11.836 9.59,21.438 21.44,21.438 11.84,0 21.43,-9.602 21.43,-21.438 0,-11.843 -9.59,-21.445 -21.43,-21.445 -11.85,0 -21.44,9.602 -21.44,21.445"
         style="fill:#231f20;fill-opacity:1;fill-rule:nonzero;stroke:none"
         transform="matrix(0.13333333,0,0,-0.13333333,0,65.146667)" />
      <path
         id="path11"
         d="m 1387.35,262.734 c 0,11.836 9.59,21.438 21.44,21.438 11.84,0 21.43,-9.602 21.43,-21.438 0,-11.843 -9.59,-21.445 -21.43,-21.445 -11.85,0 -21.44,9.602 -21.44,21.445 z"
         style="fill:none;stroke:#231f20;stroke-width:5;stroke-linecap:butt;stroke-linejoin:miter;stroke-miterlimit:10;stroke-dasharray:none;stroke-opacity:1"
         transform="matrix(0.13333333,0,0,-0.13333333,0,65.146667)" />
      <path
         id="path12"
         d="m 659.91,340.309 c 0,11.839 9.598,21.441 21.438,21.441 11.836,0 21.433,-9.602 21.433,-21.441 0,-11.84 -9.597,-21.438 -21.433,-21.438 -11.84,0 -21.438,9.598 -21.438,21.438 z"
         style="fill:none;stroke:#231f20;stroke-width:5;stroke-linecap:butt;stroke-linejoin:miter;stroke-miterlimit:10;stroke-dasharray:none;stroke-opacity:1"
         transform="matrix(0.13333333,0,0,-0.13333333,0,65.146667)" />
      <path
         id="path13"
         d="m 1956.88,340.309 c 0,11.839 9.6,21.441 21.45,21.441 11.84,0 21.43,-9.602 21.43,-21.441 0,-11.84 -9.59,-21.438 -21.43,-21.438 -11.85,0 -21.45,9.598 -21.45,21.438 z"
         style="fill:none;stroke:#231f20;stroke-width:5;stroke-linecap:butt;stroke-linejoin:miter;stroke-miterlimit:10;stroke-dasharray:none;stroke-opacity:1"
         transform="matrix(0.13333333,0,0,-0.13333333,0,65.146667)" />
      <path
         id="path14"
         d="m 1632.65,340.309 c 0,11.839 9.59,21.441 21.43,21.441 11.84,0 21.44,-9.602 21.44,-21.441 0,-11.84 -9.6,-21.438 -21.44,-21.438 -11.84,0 -21.43,9.598 -21.43,21.438 z"
         style="fill:none;stroke:#231f20;stroke-width:5;stroke-linecap:butt;stroke-linejoin:miter;stroke-miterlimit:10;stroke-dasharray:none;stroke-opacity:1"
         transform="matrix(0.13333333,0,0,-0.13333333,0,65.146667)" />
      <path
         id="path15"
         d="m 1308.4,340.309 c 0,11.839 9.6,21.441 21.43,21.441 11.84,0 21.45,-9.602 21.45,-21.441 0,-11.84 -9.61,-21.438 -21.45,-21.438 -11.83,0 -21.43,9.598 -21.43,21.438 z"
         style="fill:none;stroke:#231f20;stroke-width:5;stroke-linecap:butt;stroke-linejoin:miter;stroke-miterlimit:10;stroke-dasharray:none;stroke-opacity:1"
         transform="matrix(0.13333333,0,0,-0.13333333,0,65.146667)" />
      <path
         id="path16"
         d="m 984.148,340.309 c 0,11.839 9.602,21.441 21.442,21.441 11.84,0 21.44,-9.602 21.44,-21.441 0,-11.84 -9.6,-21.438 -21.44,-21.438 -11.84,0 -21.442,9.598 -21.442,21.438 z"
         style="fill:none;stroke:#231f20;stroke-width:5;stroke-linecap:butt;stroke-linejoin:miter;stroke-miterlimit:10;stroke-dasharray:none;stroke-opacity:1"
         transform="matrix(0.13333333,0,0,-0.13333333,0,65.146667)" />
      <path
         id="path17"
         d="M 761.379,262.734 H 2059.05"
         style="fill:none;stroke:#231f20;stroke-width:10;stroke-linecap:butt;stroke-linejoin:miter;stroke-miterlimit:10;stroke-dasharray:none;stroke-opacity:1"
         transform="matrix(0.13333333,0,0,-0.13333333,0,65.146667)" />
      <path
         id="path18"
         d="m 0.37439531,-5.8483281 v 0.2578125 c 0.69140629,0.058594 0.77343749,0.09375 0.77343749,0.8671875 v 3.609375 c 0,0.76171873 -0.082031,0.82031248 -0.85546874,0.86718748 V -6.71875e-4 H 2.4251766 c 1.1132812,0 2.0039062,-0.222656245 2.671875,-0.749999995 0.703125,-0.51562503 1.1132812,-1.32421873 1.1132812,-2.40234373 0,-0.84375 -0.3164062,-1.5 -0.7617187,-1.9335938 C 4.8978328,-5.6139531 4.0540828,-5.8483281 2.9056453,-5.8483281 Z m 1.54687499,0.9257812 c 0,-0.3515625 0.023437,-0.4453125 0.1171875,-0.515625 0.082031,-0.058594 0.3164063,-0.1054687 0.6914063,-0.1054687 0.609375,0 1.125,0.1054687 1.5351562,0.3632812 0.7148438,0.421875 1.0664063,1.2304688 1.0664063,2.15625 0,1.4414063 -0.7734375,2.69531253 -2.4609375,2.69531253 -0.65625,0 -0.9492188,-0.1640625 -0.9492188,-0.85546873 z m 5.9121094,0.09375 c 0.2578125,0 0.4570312,-0.2109375 0.4570312,-0.4570312 0,-0.2695313 -0.1992187,-0.46875 -0.4570312,-0.46875 -0.234375,0 -0.4570313,0.1992187 -0.4570313,0.46875 0,0.2460937 0.2226563,0.4570312 0.4570313,0.4570312 z M 8.8880672,-6.71875e-4 V -0.23504687 C 8.3021297,-0.29364062 8.2435359,-0.34051562 8.2435359,-0.94989062 V -4.0553594 c -0.3984375,0.1523438 -0.8203125,0.2695313 -1.2773437,0.3515625 v 0.2109375 c 0.5390625,0.09375 0.5625,0.1289063 0.5625,0.6796875 v 1.86328128 c 0,0.609375 -0.058594,0.65625 -0.6210938,0.71484375 V -6.71875e-4 Z M 11.882208,-2.9303594 c -0.03516,-0.2226562 -0.128906,-0.75 -0.199219,-0.9609375 -0.1875,-0.070312 -0.433594,-0.1523437 -0.796875,-0.1523437 -0.832031,0 -1.3710937,0.5273437 -1.3710937,1.1601562 0,0.6914063 0.5859377,0.9960938 1.1249997,1.2421875 0.445313,0.2109375 0.703125,0.421875 0.703125,0.82031253 0,0.375 -0.304687,0.6328125 -0.632812,0.6328125 -0.539063,0 -0.9492189,-0.52734375 -1.1132814,-1.11328123 l -0.234375,0.035156 c 0,0.32812503 0.082031,0.93750003 0.1523437,1.06640628 0.1640625,0.140625 0.5742187,0.3046875 1.0312497,0.3046875 0.726563,0 1.488282,-0.421875 1.488282,-1.24218748 0,-0.6210938 -0.457032,-0.9375 -1.136719,-1.21875 -0.410156,-0.1757813 -0.761719,-0.375 -0.761719,-0.7851563 0,-0.3515625 0.246094,-0.6210937 0.585938,-0.6210937 0.433593,0 0.75,0.3632812 0.925781,0.890625 z m 4.007812,1.93359378 c -0.410156,0.38671875 -0.703125,0.4921875 -1.089843,0.4921875 -0.503907,0 -1.359375,-0.41015625 -1.359375,-1.66406248 0,-0.9492188 0.515625,-1.4414063 1.113281,-1.4414063 0.316406,0 0.632812,0.1171875 0.902344,0.375 0.08203,0.070312 0.117187,0.09375 0.164062,0.09375 0.105469,0 0.304688,-0.1992187 0.304688,-0.3867187 0,-0.1054688 -0.03516,-0.1757813 -0.152344,-0.28125 -0.140625,-0.1171875 -0.433594,-0.234375 -0.796875,-0.234375 -0.351563,0 -0.890625,0.140625 -1.359375,0.5039062 -0.597656,0.46875 -0.902344,1.078125 -0.902344,1.7695313 0,0.96093748 0.667969,1.87499998 1.804688,1.87499998 0.527343,0 1.136718,-0.3984375 1.523437,-0.9140625 z m 1.921875,-2.08593748 v -0.984375 c -0.433593,0.1875 -0.832031,0.2929687 -1.265625,0.3632812 v 0.1992188 c 0.503907,0.070312 0.550782,0.1054687 0.550782,0.703125 v 1.86328123 c 0,0.59765625 -0.05859,0.64453125 -0.621094,0.703125 v 0.234374995 h 2.074219 V -0.23504687 c -0.691407,-0.0585938 -0.738282,-0.10546875 -0.738282,-0.703125 V -2.5787969 c 0.199219,-0.5039062 0.480469,-0.7734375 0.714844,-0.7734375 0.152344,0 0.257813,0.046875 0.386719,0.1875 0.04687,0.046875 0.128906,0.058594 0.234375,0.011719 0.175781,-0.082031 0.292969,-0.2578125 0.292969,-0.4335938 0,-0.2226562 -0.210938,-0.4570312 -0.527344,-0.4570312 -0.421875,0 -0.808594,0.5039062 -1.078125,0.9609375 z m 5.000977,2.13281248 c -0.328125,0.3046875 -0.667969,0.4453125 -1.019531,0.4453125 -0.632813,0 -1.335938,-0.50390628 -1.347657,-1.72265628 1.066407,-0.046875 2.191407,-0.1289062 2.355469,-0.1640625 0.152344,-0.035156 0.199219,-0.1054687 0.199219,-0.28125 0,-0.703125 -0.597656,-1.3710937 -1.347656,-1.3710937 -0.46875,0 -0.949219,0.2460937 -1.324219,0.65625 -0.363281,0.4101562 -0.597656,0.9609375 -0.597656,1.5820312 0,1.00781253 0.65625,1.91015628 1.757812,1.91015628 0.28125,0 0.902344,-0.1640625 1.464844,-0.8671875 z M 21.441778,-3.7037969 c 0.492188,0 0.796875,0.421875 0.785156,0.890625 0,0.1289063 -0.04687,0.1875 -0.210937,0.1875 -0.527344,0.011719 -1.019531,0.023437 -1.523438,0.023437 0.128907,-0.7265625 0.527344,-1.1015625 0.949219,-1.101562 z m 4.470703,3.37500003 -0.08203,-0.234375 c -0.128906,0.0703125 -0.328125,0.15234375 -0.5625,0.15234375 -0.222656,0 -0.515625,-0.12890625 -0.515625,-0.85546878 v -2.3203125 h 0.960938 c 0.105468,-0.058594 0.128906,-0.2578125 0.05859,-0.3515625 h -1.019531 v -1.2304687 l -0.128906,-0.011719 -0.585938,0.5859375 v 0.65625 h -0.410156 l -0.246094,0.2695313 0.03516,0.082031 h 0.621093 v 2.62500003 c 0,0.703125 0.316407,1.06640625 0.878907,1.06640625 0.08203,0 0.234375,-0.03515625 0.386718,-0.1171875 z m 3.418946,-0.62109375 c -0.328125,0.3046875 -0.667969,0.4453125 -1.019532,0.4453125 -0.632812,0 -1.335937,-0.50390628 -1.347656,-1.72265628 1.066406,-0.046875 2.191406,-0.1289062 2.355469,-0.1640625 0.152344,-0.035156 0.199219,-0.1054687 0.199219,-0.28125 0,-0.703125 -0.597657,-1.3710937 -1.347657,-1.3710937 -0.46875,0 -0.949218,0.2460937 -1.324218,0.65625 -0.363282,0.4101562 -0.597657,0.9609375 -0.597657,1.5820312 0,1.00781253 0.65625,1.91015628 1.757813,1.91015628 0.28125,0 0.902344,-0.1640625 1.464844,-0.8671875 z M 27.960333,-3.7037969 c 0.492187,0 0.796875,0.421875 0.785156,0.890625 0,0.1289063 -0.04687,0.1875 -0.210937,0.1875 -0.527344,0.011719 -1.019532,0.023437 -1.523438,0.023437 0.128906,-0.7265625 0.527344,-1.1015625 0.949219,-1.101562 z M -7.35705,36.611633 c -0.4570312,0.902344 -0.9375,1.394531 -1.8632812,1.394531 -1.3593748,0 -2.3554688,-1.148437 -2.3554688,-2.835937 0,-1.371094 0.796875,-2.636719 2.3085938,-2.636719 0.9726562,0 1.5117187,0.386719 1.7460937,1.335937 l 0.2695313,-0.05859 c -0.058594,-0.480469 -0.1054688,-0.84375 -0.1875,-1.359375 -0.2460938,-0.04687 -0.8554688,-0.246094 -1.59375,-0.246094 -2.0039058,0 -3.4570308,1.253906 -3.4570308,3.140625 0,1.429687 0.984375,2.988281 3.2226558,2.988281 0.6445312,0 1.40625,-0.1875 1.6523437,-0.246094 0.1640625,-0.304687 0.3867188,-0.960937 0.515625,-1.382812 z m 2.8974609,-2.460938 c -0.8203125,0 -1.9804687,0.679688 -1.9804687,2.15625 0,1.007813 0.7382812,1.992188 1.9804687,1.992188 0.890625,0 1.9453125,-0.691406 1.9453125,-2.144531 0,-1.113282 -0.8320312,-2.003907 -1.9453125,-2.003907 z m -0.09375,0.304688 c 0.7851563,0 1.2070313,0.84375 1.2070313,1.898437 0,1.242188 -0.4570313,1.652344 -1.0195313,1.652344 -0.7382812,0 -1.2304687,-0.84375 -1.2304687,-1.980469 0,-1.019531 0.4804687,-1.570312 1.0429687,-1.570312 z m 6.9785157,3.738281 V 37.959289 C 1.8978328,37.900695 1.8509578,37.865539 1.8509578,37.256164 v -1.734375 c 0,-0.878906 -0.4453125,-1.371094 -1.16015624,-1.371094 -0.2578125,0 -0.4921875,0.105469 -0.75,0.269532 -0.22265625,0.152343 -0.421875,0.292968 -0.59765625,0.421875 v -0.714844 c -0.39843751,0.175781 -0.82031251,0.28125 -1.25390621,0.363281 v 0.210938 c 0.4921875,0.09375 0.5390625,0.117187 0.5390625,0.691406 v 1.863281 c 0,0.597656 -0.046875,0.644531 -0.65625,0.703125 v 0.234375 h 1.95703121 v -0.234375 c -0.52734375,-0.05859 -0.5859375,-0.09375 -0.5859375,-0.703125 v -2.109375 c 0.26953125,-0.234375 0.62109375,-0.46875 0.984375,-0.46875 0.59765625,0 0.82031249,0.410156 0.82031249,1.03125 v 1.5 c 0,0.621094 -0.070312,0.691406 -0.59765624,0.75 v 0.234375 z m 2.7246093,-0.328125 -0.082031,-0.234375 c -0.1289063,0.07031 -0.328125,0.152344 -0.5625,0.152344 -0.2226563,0 -0.515625,-0.128906 -0.515625,-0.855469 v -2.320312 h 0.9609375 c 0.1054687,-0.05859 0.1289062,-0.257813 0.058594,-0.351563 H 3.9896297 v -1.230469 l -0.1289063,-0.01172 -0.5859375,0.585937 v 0.65625 H 2.8646297 l -0.2460938,0.269531 0.035156,0.08203 h 0.6210937 v 2.625 c 0,0.703125 0.3164063,1.066406 0.8789063,1.066406 0.082031,0 0.234375,-0.03516 0.3867187,-0.117188 z m 1.3242188,-4.5 c 0.2578125,0 0.4570312,-0.210937 0.4570312,-0.457031 0,-0.269531 -0.1992187,-0.46875 -0.4570312,-0.46875 -0.234375,0 -0.4570313,0.199219 -0.4570313,0.46875 0,0.246094 0.2226563,0.457031 0.4570313,0.457031 z m 1.0546875,4.828125 V 37.959289 C 6.9427547,37.900695 6.8841609,37.85382 6.8841609,37.244445 V 34.138977 C 6.4857234,34.29132 6.0638484,34.408508 5.6068172,34.490539 v 0.210938 c 0.5390625,0.09375 0.5625,0.128906 0.5625,0.679687 v 1.863281 c 0,0.609375 -0.058594,0.65625 -0.6210938,0.714844 v 0.234375 z m 4.8486328,0 v -0.234375 c -0.527344,-0.05859 -0.574219,-0.09375 -0.574219,-0.703125 v -1.734375 c 0,-0.878906 -0.445312,-1.371094 -1.160156,-1.371094 -0.257812,0 -0.492187,0.105469 -0.75,0.269532 -0.2226562,0.152343 -0.421875,0.292968 -0.5976562,0.421875 v -0.714844 c -0.3984375,0.175781 -0.8203125,0.28125 -1.2539063,0.363281 v 0.210938 C 8.533575,34.795227 8.58045,34.818664 8.58045,35.392883 v 1.863281 c 0,0.597656 -0.046875,0.644531 -0.65625,0.703125 v 0.234375 H 9.8812313 V 37.959289 C 9.3538875,37.900695 9.2952938,37.865539 9.2952938,37.256164 v -2.109375 c 0.2695312,-0.234375 0.6210937,-0.46875 0.9843752,-0.46875 0.597656,0 0.820312,0.410156 0.820312,1.03125 v 1.5 c 0,0.621094 -0.07031,0.691406 -0.597656,0.75 v 0.234375 z m 4.705078,-0.445312 -0.257812,-0.01172 c -0.339844,-0.02344 -0.410157,-0.08203 -0.410157,-0.527344 V 34.19757 c -0.480468,0.09375 -0.949218,0.140625 -1.417968,0.164063 v 0.199219 c 0.65625,0.09375 0.703125,0.128906 0.703125,0.644531 v 2.097656 c -0.304688,0.292969 -0.644532,0.433594 -0.972657,0.433594 -0.398437,0 -0.785156,-0.222656 -0.785156,-1.019531 V 35.51007 c 0,-0.609375 0,-1.03125 0.02344,-1.3125 -0.433594,0.08203 -0.867188,0.140625 -1.289063,0.164063 v 0.199219 c 0.515625,0.105468 0.550781,0.140625 0.550781,0.632812 v 1.769531 c 0,0.972657 0.515625,1.335938 1.113282,1.335938 0.246093,0 0.433593,-0.07031 0.691406,-0.222656 0.257812,-0.152344 0.46875,-0.316407 0.667969,-0.46875 v 0.644531 l 0.05859,0.04687 c 0.445313,-0.128906 0.902344,-0.257813 1.324219,-0.316406 z m 2.425781,-3.597657 c -0.820312,0 -1.980468,0.679688 -1.980468,2.15625 0,1.007813 0.738281,1.992188 1.980468,1.992188 0.890625,0 1.945313,-0.691406 1.945313,-2.144531 0,-1.113282 -0.832031,-2.003907 -1.945313,-2.003907 z m -0.09375,0.304688 c 0.785157,0 1.207032,0.84375 1.207032,1.898437 0,1.242188 -0.457032,1.652344 -1.019532,1.652344 -0.738281,0 -1.230468,-0.84375 -1.230468,-1.980469 0,-1.019531 0.480468,-1.570312 1.042968,-1.570312 z m 6.94043,3.292969 -0.257812,-0.01172 c -0.339844,-0.02344 -0.410157,-0.08203 -0.410157,-0.527344 V 34.19757 c -0.480468,0.09375 -0.949218,0.140625 -1.417968,0.164063 v 0.199219 c 0.65625,0.09375 0.703125,0.128906 0.703125,0.644531 v 2.097656 c -0.304688,0.292969 -0.644532,0.433594 -0.972657,0.433594 -0.398437,0 -0.785156,-0.222656 -0.785156,-1.019531 V 35.51007 c 0,-0.609375 0,-1.03125 0.02344,-1.3125 -0.433594,0.08203 -0.867188,0.140625 -1.289063,0.164063 v 0.199219 c 0.515625,0.105468 0.550781,0.140625 0.550781,0.632812 v 1.769531 c 0,0.972657 0.515625,1.335938 1.113282,1.335938 0.246093,0 0.433593,-0.07031 0.691406,-0.222656 0.257812,-0.152344 0.46875,-0.316407 0.667969,-0.46875 v 0.644531 l 0.05859,0.04687 c 0.445313,-0.128906 0.902344,-0.257813 1.324219,-0.316406 z m 2.970703,-2.484375 c -0.03516,-0.222657 -0.128906,-0.75 -0.199219,-0.960938 -0.1875,-0.07031 -0.433593,-0.152344 -0.796875,-0.152344 -0.832031,0 -1.371093,0.527344 -1.371093,1.160157 0,0.691406 0.585937,0.996093 1.125,1.242187 0.445312,0.210938 0.703125,0.421875 0.703125,0.820313 0,0.375 -0.304688,0.632812 -0.632813,0.632812 -0.539062,0 -0.949219,-0.527344 -1.113281,-1.113281 l -0.234375,0.03516 c 0,0.328125 0.08203,0.9375 0.152344,1.066406 0.164062,0.140625 0.574218,0.304688 1.03125,0.304688 0.726562,0 1.488281,-0.421875 1.488281,-1.242188 0,-0.621093 -0.457031,-0.9375 -1.136719,-1.21875 -0.410156,-0.175781 -0.761719,-0.375 -0.761719,-0.785156 0,-0.351562 0.246094,-0.621094 0.585938,-0.621094 0.433594,0 0.75,0.363282 0.925781,0.890625 z m 0,0"
         style="fill:#231f20;fill-opacity:1;fill-rule:nonzero;stroke:none"
         aria-label="Discrete&#10;Continuous"
         transform="matrix(1.3333333,0,0,1.3333333,17.1844,9.8993333)" />
    </g>
  </g>
</svg>
