<?xml version="1.0" encoding="UTF-8" standalone="no"?>
<!-- Created with Inkscape (http://www.inkscape.org/) -->

<svg
   version="1.1"
   id="svg1"
   width="433.07999"
   height="156.42667"
   viewBox="0 0 433.07999 156.42667"
   sodipodi:docname="phaaaf05.eps"
   xmlns:inkscape="http://www.inkscape.org/namespaces/inkscape"
   xmlns:sodipodi="http://sodipodi.sourceforge.net/DTD/sodipodi-0.dtd"
   xmlns="http://www.w3.org/2000/svg"
   xmlns:svg="http://www.w3.org/2000/svg">
  <defs
     id="defs1" />
  <sodipodi:namedview
     id="namedview1"
     pagecolor="#ffffff"
     bordercolor="#000000"
     borderopacity="0.25"
     inkscape:showpageshadow="2"
     inkscape:pageopacity="0.0"
     inkscape:pagecheckerboard="0"
     inkscape:deskcolor="#d1d1d1">
    <inkscape:page
       x="0"
       y="0"
       inkscape:label="1"
       id="page1"
       width="433.07999"
       height="156.42667"
       margin="0"
       bleed="0" />
  </sodipodi:namedview>
  <g
     id="g1"
     inkscape:groupmode="layer"
     inkscape:label="1">
    <g
       id="group-R5">
      <path
         id="path2"
         d="m 2.6962859,1.3231603 c -0.890625,-0.76171874 -1.40625,-2.20312499 -1.40625,-3.75 0,-1.546875 0.515625,-3 1.40625,-3.75 L 2.5439422,-6.3877772 c -1.3242188,0.9023438 -1.91015626,2.3320313 -1.91015626,3.9492188 0,1.62890621 0.58593746,3.08203121 1.91015626,3.9609375 z m 4.3212891,-1.67578124 -0.09375,-0.234375 c -0.09375,0.0585938 -0.2226563,0.10546875 -0.328125,0.10546875 -0.1523438,0 -0.3164063,-0.140625 -0.3164063,-0.55078121 v -1.6640625 c 0,-0.46875 -0.082031,-0.84375 -0.3984375,-1.1015625 C 5.6816375,-3.9619959 5.4121062,-4.0440272 5.142575,-4.0440272 4.62695,-3.9385584 4.0410125,-3.5869959 3.7949187,-3.4112147 3.6191375,-3.2823084 3.50195,-3.1885584 3.50195,-3.0479334 c 0,0.1992187 0.234375,0.3867187 0.3984375,0.3867187 0.1289062,0 0.2226562,-0.070312 0.2578125,-0.2109375 0.070312,-0.28125 0.1523437,-0.4804687 0.2695312,-0.5976562 0.09375,-0.1054688 0.2226563,-0.1757813 0.4101563,-0.1757813 0.4453125,0 0.75,0.3632813 0.75,1.0195313 v 0.1640625 c -0.1992188,0.1523437 -0.8554688,0.3984375 -1.3945313,0.5742187 -0.4921875,0.1757813 -0.7265625,0.4570313 -0.7265625,0.90234376 0,0.5625 0.4453125,1.08984375 1.078125,1.08984375 0.2695313,0 0.703125,-0.328125 1.0664063,-0.57421875 0.046875,0.15234375 0.09375,0.28125 0.2109375,0.41015625 0.1054687,0.08203125 0.2929687,0.1640625 0.421875,0.1640625 z M 5.5878875,-0.76277719 c -0.1640625,0.1640625 -0.4804688,0.31640625 -0.7148438,0.328125 -0.28125,0 -0.6445312,-0.22265625 -0.6445312,-0.69140621 0,-0.328125 0.1992187,-0.4921875 0.5507812,-0.65625 0.1875,-0.09375 0.6210938,-0.28125 0.8085938,-0.375 z M 7.4746062,-6.1768397 c 0.890625,0.7382813 1.4179688,2.203125 1.4179688,3.75 0,1.54687501 -0.5039063,2.98828126 -1.4179688,3.75 l 0.1640625,0.1992188 c 1.3476563,-0.91406254 1.8984375,-2.33203129 1.8984375,-3.9492188 0,-1.6289062 -0.5507812,-3.0585937 -1.8984375,-3.9609375 z m 167.2441438,7.5 c -0.89063,-0.76171874 -1.40625,-2.20312499 -1.40625,-3.75 0,-1.546875 0.51562,-3 1.40625,-3.75 l -0.15235,-0.2109375 c -1.32422,0.9023438 -1.91015,2.3320313 -1.91015,3.9492188 0,1.62890621 0.58593,3.08203121 1.91015,3.9609375 z m 1.79004,-4.9570312 v -2.7773438 c -0.33985,0.1171875 -0.89063,0.2578125 -1.3125,0.3164063 v 0.2109375 c 0.58593,0.046875 0.59765,0.1054687 0.59765,0.6679687 v 5.00390626 c 0.49219,0.234375 0.94922,0.31640625 1.32422,0.31640625 1.20703,0 2.26172,-0.9375 2.26172,-2.26171871 0,-1.0546875 -0.80859,-1.8867188 -1.78125,-1.8867188 -0.0937,0 -0.22266,0.023437 -0.36328,0.09375 z m 0,0.2695312 c 0.16406,-0.1054687 0.44531,-0.1757812 0.70312,-0.1757812 0.73828,0 1.37109,0.5976562 1.37109,1.6171875 0,1.05468746 -0.48046,1.68749996 -1.21875,1.68749996 -0.48046,-0.0117188 -0.75,-0.328125 -0.80859,-0.50390625 -0.0352,-0.0820313 -0.0469,-0.17578125 -0.0469,-0.30468751 z m 3.60937,-2.8125 c 0.89063,0.7382813 1.41797,2.203125 1.41797,3.75 0,1.54687501 -0.50391,2.98828126 -1.41797,3.75 l 0.16406,0.1992188 c 1.34766,-0.91406254 1.89844,-2.33203129 1.89844,-3.9492188 0,-1.6289062 -0.55078,-3.0585937 -1.89844,-3.9609375 z m 66.04981,-8.2148433 v -0.246094 c -0.82032,-0.05859 -0.87891,-0.128906 -0.87891,-0.785156 v -4.6875 c -0.49219,0.199218 -1.01953,0.375 -1.59375,0.46875 v 0.210937 l 0.43359,0.01172 c 0.38672,0.02344 0.42188,0.07031 0.42188,0.539062 v 3.457032 c 0,0.65625 -0.0352,0.726562 -0.85547,0.785156 v 0.246094 z m 1.8955,0.105468 c 0.28125,0 0.50391,-0.199218 0.50391,-0.515625 0,-0.292968 -0.22266,-0.515625 -0.50391,-0.515625 -0.29297,0 -0.5039,0.222657 -0.5039,0.515625 0,0.316407 0.21093,0.515625 0.5039,0.515625 z m 3.17578,-5.824218 c -1.34765,0 -1.83984,1.605468 -1.83984,2.917968 0,1.417969 0.48047,2.90625 1.83984,2.90625 1.35938,0 1.82813,-1.59375 1.82813,-2.917968 0,-1.382813 -0.46875,-2.90625 -1.82813,-2.90625 z m 0,0.304687 c 0.8086,0 1.03125,1.324219 1.03125,2.601563 0,1.265625 -0.22265,2.613281 -1.03125,2.613281 -0.77343,0 -1.04296,-1.359375 -1.04296,-2.613281 0,-1.253907 0.22265,-2.601563 1.04296,-2.601563 z m -34.02539,-0.304687 c -1.34765,0 -1.83984,1.605468 -1.83984,2.917968 0,1.417969 0.48047,2.90625 1.83984,2.90625 1.35938,0 1.82813,-1.59375 1.82813,-2.917968 0,-1.382813 -0.46875,-2.90625 -1.82813,-2.90625 z m 0,0.304687 c 0.8086,0 1.03125,1.324219 1.03125,2.601563 0,1.265625 -0.22265,2.613281 -1.03125,2.613281 -0.77343,0 -1.04296,-1.359375 -1.04296,-2.613281 0,-1.253907 0.22265,-2.601563 1.04296,-2.601563 z m 3.19629,5.519531 c 0.28125,0 0.50391,-0.199218 0.50391,-0.515625 0,-0.292968 -0.22266,-0.515625 -0.50391,-0.515625 -0.29297,0 -0.5039,0.222657 -0.5039,0.515625 0,0.316407 0.21093,0.515625 0.5039,0.515625 z m 3.2461,-5.824218 c -0.96094,0 -1.59375,0.726562 -1.59375,1.476562 0,0.632813 0.38672,1.066406 0.97265,1.394531 -0.30468,0.199219 -0.65625,0.445313 -0.79687,0.574219 -0.19922,0.199219 -0.39844,0.445313 -0.39844,0.855469 0,0.972656 0.76172,1.523437 1.72266,1.523437 0.76172,0 1.78125,-0.574218 1.78125,-1.628906 0,-0.785156 -0.5625,-1.207031 -1.1836,-1.558594 0.39844,-0.28125 0.64453,-0.503906 0.70313,-0.585937 0.17578,-0.1875 0.26953,-0.457031 0.26953,-0.714844 0,-0.726562 -0.62109,-1.335937 -1.47656,-1.335937 z m -0.082,0.292968 c 0.41015,0 0.8789,0.328125 0.8789,1.089844 0,0.539063 -0.24609,0.867188 -0.55078,1.113281 -0.63281,-0.316406 -1.17187,-0.609375 -1.17187,-1.277343 0,-0.457032 0.30468,-0.925782 0.84375,-0.925782 z m 0.082,5.25 c -0.57422,0 -1.10157,-0.46875 -1.10157,-1.289062 0,-0.492188 0.30469,-0.949219 0.73829,-1.230469 0.6914,0.351563 1.33593,0.738281 1.33593,1.40625 0,0.691406 -0.42187,1.113281 -0.97265,1.113281 z m -34.09571,-5.542968 c -1.34765,0 -1.83984,1.605468 -1.83984,2.917968 0,1.417969 0.48047,2.90625 1.83984,2.90625 1.35938,0 1.82813,-1.59375 1.82813,-2.917968 0,-1.382813 -0.46875,-2.90625 -1.82813,-2.90625 z m 0,0.304687 c 0.8086,0 1.03125,1.324219 1.03125,2.601563 0,1.265625 -0.22265,2.613281 -1.03125,2.613281 -0.77343,0 -1.04297,-1.359375 -1.04297,-2.613281 0,-1.253907 0.22266,-2.601563 1.04297,-2.601563 z m 3.19629,5.519531 c 0.28125,0 0.50391,-0.199218 0.50391,-0.515625 0,-0.292968 -0.22266,-0.515625 -0.50391,-0.515625 -0.29297,0 -0.5039,0.222657 -0.5039,0.515625 0,0.316407 0.21093,0.515625 0.5039,0.515625 z m 2.25,-3.1875 c 0.26953,-1.253906 1.11328,-1.828125 1.66407,-2.085937 0.32812,-0.152344 0.67968,-0.257813 0.97265,-0.316406 l -0.0586,-0.28125 c -0.36328,0.05859 -0.79688,0.164062 -1.14844,0.28125 -0.96094,0.351562 -2.33203,1.371093 -2.33203,3.339843 0,1.382813 0.79687,2.25 1.85156,2.25 1.07813,0 1.83985,-0.902343 1.83985,-1.980468 0,-0.925782 -0.65625,-1.664063 -1.61719,-1.664063 -0.17578,0 -0.36328,0.07031 -0.5625,0.152344 z m 0.82032,0.04687 c 0.82031,0 1.19531,0.738282 1.19531,1.488282 0,0.597656 -0.21094,1.347656 -0.91406,1.347656 -0.73829,0 -1.19532,-0.878906 -1.19532,-1.957031 0,-0.234375 0.0117,-0.457032 0.0469,-0.621094 0.22265,-0.117188 0.52734,-0.257813 0.86719,-0.257813 z m -33.91993,-2.683593 c -1.34765,0 -1.83984,1.605468 -1.83984,2.917968 0,1.417969 0.48047,2.90625 1.83984,2.90625 1.35938,0 1.82813,-1.59375 1.82813,-2.917968 0,-1.382813 -0.46875,-2.90625 -1.82813,-2.90625 z m 0,0.304687 c 0.8086,0 1.03125,1.324219 1.03125,2.601563 0,1.265625 -0.22265,2.613281 -1.03125,2.613281 -0.77343,0 -1.04297,-1.359375 -1.04297,-2.613281 0,-1.253907 0.22266,-2.601563 1.04297,-2.601563 z m 3.19629,5.519531 c 0.28125,0 0.50391,-0.199218 0.50391,-0.515625 0,-0.292968 -0.22266,-0.515625 -0.50391,-0.515625 -0.29297,0 -0.5039,0.222657 -0.5039,0.515625 0,0.316407 0.21093,0.515625 0.5039,0.515625 z m 5.1211,-1.710937 v -0.421875 h -0.86719 v -3.65625 h -0.35156 c -0.92579,1.21875 -1.85157,2.554687 -2.70704,3.832031 v 0.246094 h 2.34375 v 0.65625 c 0,0.585937 -0.0352,0.644531 -0.82031,0.703125 v 0.246094 h 2.3086 v -0.246094 c -0.72657,-0.05859 -0.77344,-0.105469 -0.77344,-0.703125 v -0.65625 z m -1.58204,-0.421875 h -1.76953 c 0.58594,-0.996094 1.17188,-1.851563 1.75782,-2.648438 h 0.0117 z m -34.38867,-3.691406 c -1.34765,0 -1.83984,1.605468 -1.83984,2.917968 0,1.417969 0.48047,2.90625 1.83984,2.90625 1.35938,0 1.82813,-1.59375 1.82813,-2.917968 0,-1.382813 -0.46875,-2.90625 -1.82813,-2.90625 z m 0,0.304687 c 0.8086,0 1.03125,1.324219 1.03125,2.601563 0,1.265625 -0.22265,2.613281 -1.03125,2.613281 -0.77343,0 -1.04297,-1.359375 -1.04297,-2.613281 0,-1.253907 0.22266,-2.601563 1.04297,-2.601563 z m 3.19629,5.519531 c 0.28125,0 0.50391,-0.199218 0.50391,-0.515625 0,-0.292968 -0.22266,-0.515625 -0.50391,-0.515625 -0.29297,0 -0.5039,0.222657 -0.5039,0.515625 0,0.316407 0.21093,0.515625 0.5039,0.515625 z m 4.72266,-1.371093 c -0.26953,0.574218 -0.38672,0.609375 -0.86719,0.609375 h -1.6875 l 1.27734,-1.335938 c 0.83204,-0.890625 1.19532,-1.417969 1.19532,-2.203125 0,-0.949219 -0.72657,-1.523437 -1.51172,-1.523437 -0.52735,0 -0.94922,0.234375 -1.21875,0.539062 l -0.51563,0.726563 0.19922,0.175781 c 0.23438,-0.351563 0.60938,-0.832031 1.23047,-0.832031 0.65625,0 1.05469,0.433593 1.05469,1.195312 0,0.773438 -0.5625,1.511719 -1.125,2.179688 -0.44531,0.515625 -0.94922,1.03125 -1.45313,1.523437 v 0.210938 h 3.36328 c 0.10547,-0.410157 0.19922,-0.796875 0.31641,-1.183594 z m -67.394533,1.265625 v -0.246094 c -0.820312,-0.05859 -0.878906,-0.128906 -0.878906,-0.785156 v -4.6875 c -0.492188,0.199218 -1.019531,0.375 -1.59375,0.46875 v 0.210937 l 0.433594,0.01172 c 0.386718,0.02344 0.421875,0.07031 0.421875,0.539062 v 3.457032 c 0,0.65625 -0.03516,0.726562 -0.855469,0.785156 v 0.246094 z m 1.892578,0.105468 c 0.28125,0 0.503907,-0.199218 0.503907,-0.515625 0,-0.292968 -0.222657,-0.515625 -0.503907,-0.515625 -0.292968,0 -0.503906,0.222657 -0.503906,0.515625 0,0.316407 0.210938,0.515625 0.503906,0.515625 z m 3.178711,-5.824218 c -1.347656,0 -1.839844,1.605468 -1.839844,2.917968 0,1.417969 0.480469,2.90625 1.839844,2.90625 1.359375,0 1.828125,-1.59375 1.828125,-2.917968 0,-1.382813 -0.46875,-2.90625 -1.828125,-2.90625 z m 0,0.304687 c 0.808594,0 1.03125,1.324219 1.03125,2.601563 0,1.265625 -0.222656,2.613281 -1.03125,2.613281 -0.773437,0 -1.042969,-1.359375 -1.042969,-2.613281 0,-1.253907 0.222657,-2.601563 1.042969,-2.601563 z m -34.335937,-0.304687 c -1.347657,0 -1.839844,1.605468 -1.839844,2.917968 0,1.417969 0.480469,2.90625 1.839844,2.90625 1.359375,0 1.828125,-1.59375 1.828125,-2.917968 0,-1.382813 -0.46875,-2.90625 -1.828125,-2.90625 z m 0,0.304687 c 0.808593,0 1.03125,1.324219 1.03125,2.601563 0,1.265625 -0.222657,2.613281 -1.03125,2.613281 -0.773438,0 -1.042969,-1.359375 -1.042969,-2.613281 0,-1.253907 0.222656,-2.601563 1.042969,-2.601563 z m 3.196289,5.519531 c 0.28125,0 0.503906,-0.199218 0.503906,-0.515625 0,-0.292968 -0.222656,-0.515625 -0.503906,-0.515625 -0.292969,0 -0.503906,0.222657 -0.503906,0.515625 0,0.316407 0.210937,0.515625 0.503906,0.515625 z m 3.246094,-5.824218 c -0.960938,0 -1.59375,0.726562 -1.59375,1.476562 0,0.632813 0.386718,1.066406 0.972656,1.394531 -0.304688,0.199219 -0.65625,0.445313 -0.796875,0.574219 -0.199219,0.199219 -0.398438,0.445313 -0.398438,0.855469 0,0.972656 0.761719,1.523437 1.722657,1.523437 0.761718,0 1.78125,-0.574218 1.78125,-1.628906 0,-0.785156 -0.5625,-1.207031 -1.183594,-1.558594 0.398437,-0.28125 0.644531,-0.503906 0.703125,-0.585937 0.175781,-0.1875 0.269531,-0.457031 0.269531,-0.714844 0,-0.726562 -0.621094,-1.335937 -1.476562,-1.335937 z m -0.08203,0.292968 c 0.410157,0 0.878907,0.328125 0.878907,1.089844 0,0.539063 -0.246094,0.867188 -0.550782,1.113281 -0.632812,-0.316406 -1.171875,-0.609375 -1.171875,-1.277343 0,-0.457032 0.304688,-0.925782 0.84375,-0.925782 z m 0.08203,5.25 c -0.574219,0 -1.101563,-0.46875 -1.101563,-1.289062 0,-0.492188 0.304688,-0.949219 0.738281,-1.230469 0.691407,0.351563 1.335938,0.738281 1.335938,1.40625 0,0.691406 -0.421875,1.113281 -0.972656,1.113281 z m -34.40625,-5.542968 c -1.347657,0 -1.839844,1.605468 -1.839844,2.917968 0,1.417969 0.480469,2.90625 1.839844,2.90625 1.359375,0 1.828125,-1.59375 1.828125,-2.917968 0,-1.382813 -0.46875,-2.90625 -1.828125,-2.90625 z m 0,0.304687 c 0.808593,0 1.03125,1.324219 1.03125,2.601563 0,1.265625 -0.222657,2.613281 -1.03125,2.613281 -0.773438,0 -1.042969,-1.359375 -1.042969,-2.613281 0,-1.253907 0.222656,-2.601563 1.042969,-2.601563 z m 3.196289,5.519531 c 0.28125,0 0.503906,-0.199218 0.503906,-0.515625 0,-0.292968 -0.222656,-0.515625 -0.503906,-0.515625 -0.292969,0 -0.503907,0.222657 -0.503907,0.515625 0,0.316407 0.210938,0.515625 0.503907,0.515625 z m 2.25,-3.1875 c 0.269531,-1.253906 1.113281,-1.828125 1.664062,-2.085937 0.328125,-0.152344 0.679688,-0.257813 0.972656,-0.316406 l -0.05859,-0.28125 c -0.363282,0.05859 -0.796875,0.164062 -1.148438,0.28125 -0.960937,0.351562 -2.332031,1.371093 -2.332031,3.339843 0,1.382813 0.796875,2.25 1.851562,2.25 1.078125,0 1.839844,-0.902343 1.839844,-1.980468 0,-0.925782 -0.65625,-1.664063 -1.617187,-1.664063 -0.175782,0 -0.363282,0.07031 -0.5625,0.152344 z m 0.820312,0.04687 c 0.820313,0 1.195313,0.738282 1.195313,1.488282 0,0.597656 -0.210938,1.347656 -0.914063,1.347656 -0.738281,0 -1.195312,-0.878906 -1.195312,-1.957031 0,-0.234375 0.01172,-0.457032 0.04687,-0.621094 0.222656,-0.117188 0.527343,-0.257813 0.867187,-0.257813 z m -34.227539,-2.683593 c -1.347656,0 -1.839844,1.605468 -1.839844,2.917968 0,1.417969 0.480469,2.90625 1.839844,2.90625 1.3593751,0 1.8281251,-1.59375 1.8281251,-2.917968 0,-1.382813 -0.46875,-2.90625 -1.8281251,-2.90625 z m 0,0.304687 c 0.8085938,0 1.0312501,1.324219 1.0312501,2.601563 0,1.265625 -0.2226563,2.613281 -1.0312501,2.613281 -0.773437,0 -1.042969,-1.359375 -1.042969,-2.613281 0,-1.253907 0.222657,-2.601563 1.042969,-2.601563 z m 3.1933594,5.519531 c 0.28125,0 0.5039063,-0.199218 0.5039063,-0.515625 0,-0.292968 -0.2226563,-0.515625 -0.5039063,-0.515625 -0.2929687,0 -0.5039062,0.222657 -0.5039062,0.515625 0,0.316407 0.2109375,0.515625 0.5039062,0.515625 z m 5.1240235,-1.710937 v -0.421875 h -0.8671875 v -3.65625 h -0.3515625 c -0.9257813,1.21875 -1.8515625,2.554687 -2.7070313,3.832031 v 0.246094 h 2.34375 v 0.65625 c 0,0.585937 -0.035156,0.644531 -0.8203125,0.703125 v 0.246094 h 2.3085938 v -0.246094 c -0.7265625,-0.05859 -0.7734375,-0.105469 -0.7734375,-0.703125 v -0.65625 z m -1.5820313,-0.421875 h -1.7695312 c 0.5859375,-0.996094 1.171875,-1.851563 1.7578125,-2.648438 h 0.011719 z m -34.6992186,-3.691406 c -1.347656,0 -1.839844,1.605468 -1.839844,2.917968 0,1.417969 0.480469,2.90625 1.839844,2.90625 1.359375,0 1.828125,-1.59375 1.828125,-2.917968 0,-1.382813 -0.46875,-2.90625 -1.828125,-2.90625 z m 0,0.304687 c 0.808594,0 1.03125,1.324219 1.03125,2.601563 0,1.265625 -0.222656,2.613281 -1.03125,2.613281 -0.773438,0 -1.042969,-1.359375 -1.042969,-2.613281 0,-1.253907 0.222656,-2.601563 1.042969,-2.601563 z m 3.193359,5.519531 c 0.28125,0 0.503906,-0.199218 0.503906,-0.515625 0,-0.292968 -0.222656,-0.515625 -0.503906,-0.515625 -0.292969,0 -0.503906,0.222657 -0.503906,0.515625 0,0.316407 0.210937,0.515625 0.503906,0.515625 z m 4.725586,-1.371093 c -0.269531,0.574218 -0.386719,0.609375 -0.867187,0.609375 h -1.6875 l 1.277343,-1.335938 c 0.832032,-0.890625 1.195313,-1.417969 1.195313,-2.203125 0,-0.949219 -0.726563,-1.523437 -1.511719,-1.523437 -0.527344,0 -0.949219,0.234375 -1.21875,0.539062 l -0.515625,0.726563 0.199219,0.175781 c 0.234375,-0.351563 0.609375,-0.832031 1.230469,-0.832031 0.65625,0 1.054687,0.433593 1.054687,1.195312 0,0.773438 -0.5625,1.511719 -1.125,2.179688 -0.445312,0.515625 -0.949219,1.03125 -1.453125,1.523437 v 0.210938 h 3.363281 c 0.105469,-0.410157 0.199219,-0.796875 0.316407,-1.183594 z M 104.96582,-104.07821 c -0.26953,0.57422 -0.38672,0.60938 -0.86719,0.60938 h -1.6875 l 1.27734,-1.33594 c 0.83203,-0.89062 1.19532,-1.41797 1.19532,-2.20312 0,-0.94922 -0.72657,-1.52344 -1.51172,-1.52344 -0.52735,0 -0.94922,0.23437 -1.21875,0.53906 l -0.51563,0.72656 0.19922,0.17578 c 0.23438,-0.35156 0.60938,-0.83203 1.23047,-0.83203 0.65625,0 1.05469,0.4336 1.05469,1.19532 0,0.77343 -0.5625,1.51171 -1.125,2.17968 -0.44532,0.51563 -0.94922,1.03125 -1.45313,1.52344 v 0.21094 h 3.36328 c 0.10547,-0.41016 0.19922,-0.79688 0.31641,-1.1836 z m -0.2461,41.343753 v -0.246094 c -0.82031,-0.05859 -0.8789,-0.128906 -0.8789,-0.785156 v -4.6875 c -0.49219,0.199219 -1.01953,0.375 -1.59375,0.46875 v 0.210938 l 0.43359,0.01172 c 0.38672,0.02344 0.42188,0.07031 0.42188,0.539063 v 3.457031 c 0,0.65625 -0.0352,0.726563 -0.85547,0.785156 v 0.246094 z m 0,0"
         style="fill:#231f20;fill-opacity:1;fill-rule:nonzero;stroke:none"
         aria-label="(a)(b)&#10;1.00.80.60.40.21.00.80.60.40.2&#10;2&#10;1"
         transform="matrix(1.3333333,0,0,1.3333333,95.205733,152.10688)" />
      <path
         id="path3"
         d="M 82.5742,523.172 H 362.125 l 0.457,115.734 h 279.172 l 0.48,462.914 h 279.161 l 0.425,-231.453 h 278.82 l 0.45,-462.898 h 279.62"
         style="fill:none;stroke:#3871c1;stroke-width:10;stroke-linecap:butt;stroke-linejoin:miter;stroke-miterlimit:3.25;stroke-dasharray:none;stroke-opacity:1"
         transform="matrix(0.13333333,0,0,-0.13333333,0,156.42667)" />
      <path
         id="path4"
         d="m 362.188,262.609 v 30"
         style="fill:none;stroke:#231f20;stroke-width:5;stroke-linecap:butt;stroke-linejoin:miter;stroke-miterlimit:3.25;stroke-dasharray:none;stroke-opacity:1"
         transform="matrix(0.13333333,0,0,-0.13333333,0,156.42667)" />
      <path
         id="path5"
         d="m 641.832,262.609 v 30"
         style="fill:none;stroke:#231f20;stroke-width:5;stroke-linecap:butt;stroke-linejoin:miter;stroke-miterlimit:3.25;stroke-dasharray:none;stroke-opacity:1"
         transform="matrix(0.13333333,0,0,-0.13333333,0,156.42667)" />
      <path
         id="path6"
         d="m 921.453,262.609 v 30"
         style="fill:none;stroke:#231f20;stroke-width:5;stroke-linecap:butt;stroke-linejoin:miter;stroke-miterlimit:3.25;stroke-dasharray:none;stroke-opacity:1"
         transform="matrix(0.13333333,0,0,-0.13333333,0,156.42667)" />
      <path
         id="path7"
         d="m 1201.06,262.609 v 30"
         style="fill:none;stroke:#231f20;stroke-width:5;stroke-linecap:butt;stroke-linejoin:miter;stroke-miterlimit:3.25;stroke-dasharray:none;stroke-opacity:1"
         transform="matrix(0.13333333,0,0,-0.13333333,0,156.42667)" />
      <path
         id="path8"
         d="m 1480.71,262.609 v 30"
         style="fill:none;stroke:#231f20;stroke-width:5;stroke-linecap:butt;stroke-linejoin:miter;stroke-miterlimit:3.25;stroke-dasharray:none;stroke-opacity:1"
         transform="matrix(0.13333333,0,0,-0.13333333,0,156.42667)" />
      <path
         id="path9"
         d="M 82.5742,291.734 H 1509.83"
         style="fill:none;stroke:#231f20;stroke-width:5;stroke-linecap:butt;stroke-linejoin:miter;stroke-miterlimit:3.25;stroke-dasharray:none;stroke-opacity:1"
         transform="matrix(0.13333333,0,0,-0.13333333,0,156.42667)" />
      <path
         id="path10"
         d="M 82.5742,291.734 H 99.8086"
         style="fill:none;stroke:#231f20;stroke-width:5;stroke-linecap:butt;stroke-linejoin:miter;stroke-miterlimit:3.25;stroke-dasharray:none;stroke-opacity:1"
         transform="matrix(0.13333333,0,0,-0.13333333,0,156.42667)" />
      <path
         id="path11"
         d="M 3.4570313,4.828125e-4 V -0.24561094 C 2.6367188,-0.30420469 2.578125,-0.37451719 2.578125,-1.0307672 v -4.6875 c -0.4921875,0.1992188 -1.0195313,0.375 -1.59375,0.46875 v 0.2109375 l 0.4335937,0.011719 c 0.3867188,0.023437 0.421875,0.070312 0.421875,0.5390625 v 3.4570312 c 0,0.65625001 -0.035156,0.72656251 -0.8554687,0.78515626 V 4.828125e-4 Z m 0,0"
         style="fill:#231f20;fill-opacity:1;fill-rule:nonzero;stroke:none"
         aria-label="1"
         transform="matrix(1.3333333,0,0,1.3333333,0,65.8392)" />
      <path
         id="path12"
         d="m 52.5742,705.113 h 30"
         style="fill:none;stroke:#231f20;stroke-width:5;stroke-linecap:butt;stroke-linejoin:miter;stroke-miterlimit:3.25;stroke-dasharray:none;stroke-opacity:1"
         transform="matrix(0.13333333,0,0,-0.13333333,0,156.42667)" />
      <path
         id="path13"
         d="m 3.703125,-1.2647969 c -0.2695312,0.57421878 -0.3867187,0.60937503 -0.8671875,0.60937503 h -1.6875 L 2.4257813,-1.9913594 c 0.8320312,-0.890625 1.1953125,-1.4179687 1.1953125,-2.203125 0,-0.9492187 -0.7265625,-1.5234375 -1.5117188,-1.5234375 -0.5273438,0 -0.9492188,0.234375 -1.21875,0.5390625 L 0.375,-4.4522969 0.57421875,-4.2765156 c 0.234375,-0.3515625 0.60937495,-0.8320313 1.23046875,-0.8320313 0.65625,0 1.0546875,0.4335938 1.0546875,1.1953125 0,0.7734375 -0.5625,1.5117188 -1.125,2.1796875 -0.4453125,0.515625 -0.94921875,1.03125003 -1.453125,1.52343753 V 8.28125e-4 H 3.6445313 C 3.75,-0.40932812 3.84375,-0.79604687 3.9609375,-1.1827656 Z m 0,0"
         style="fill:#231f20;fill-opacity:1;fill-rule:nonzero;stroke:none"
         aria-label="2"
         transform="matrix(1.3333333,0,0,1.3333333,0,9.8973333)" />
      <path
         id="path14"
         d="m 52.5742,1124.68 h 30"
         style="fill:none;stroke:#231f20;stroke-width:5;stroke-linecap:butt;stroke-linejoin:miter;stroke-miterlimit:3.25;stroke-dasharray:none;stroke-opacity:1"
         transform="matrix(0.13333333,0,0,-0.13333333,0,156.42667)" />
      <path
         id="path15"
         d="M 82.5742,291.734 V 1146.83"
         style="fill:none;stroke:#231f20;stroke-width:5;stroke-linecap:butt;stroke-linejoin:miter;stroke-miterlimit:3.25;stroke-dasharray:none;stroke-opacity:1"
         transform="matrix(0.13333333,0,0,-0.13333333,0,156.42667)" />
      <path
         id="path16"
         d="m 1811.94,291.734 0.42,0.129 0.43,0.117 0.82,0.29 1.7,0.531 3.39,1.113 6.8,2.16 13.56,4.375 29.45,9.489 27.46,8.835 26.93,8.661 29.24,9.394 27.24,8.801 29.55,9.496 29.02,9.34 27.09,8.726 0.91,0.289 0.91,0.301 1.83,0.571 3.65,1.199 0.92,0.277 0.92,0.32 1.86,0.586 3.65,1.184 0.91,0.277 0.9,0.309 1.88,0.609 1.81,0.563 1.85,0.586 0.91,0.293 0.47,0.16 0.44,0.215 0.91,0.433 0.92,0.438 3.69,1.765 0.41,0.223 1.27,0.609 1.73,0.848 3.4,1.637 20.58,9.922 26.83,12.965 29.18,14.07 27.17,13.144 29.46,14.219 28.93,13.949 27.01,13.028 29.26,14.152 0.85,0.395 0.85,0.433 11.95,5.774 0.86,0.394 0.85,0.414 11.94,5.789 0.46,0.219 0.47,0.215 0.91,0.433 1.86,0.911 3.7,1.785 0.45,0.226 0.49,0.227 0.91,0.457 1.84,0.867 3.7,1.809 0.5,0.222 0.91,0.453 0.45,0.192 0.47,0.226 0.91,0.457 0.46,0.5 0.49,0.493 0.44,0.527 0.95,1.035 1.83,2.067 0.49,0.55 0.42,0.512 0.95,1.047 5.56,6.238 1.82,2.047 1.78,2.051 10.93,12.289 14.5,16.371 27.15,30.516 29.38,33.144 27.44,30.914 26.9,30.301 29.18,32.91 27.25,30.684 29.52,33.246 0.92,1.031 0.87,1.02 1.82,2.019 3.61,4.094 7.27,8.164 1.81,2.047 1.84,2.027 3.59,4.09 7.27,8.16 0.42,0.492 0.39,0.45 0.85,0.968 1.7,1.907 3.36,3.808 0.43,0.461 1.28,1.445 0.43,0.458 0.39,0.48 0.42,0.484 0.42,0.457 0.45,0.368 0.42,0.347 0.82,0.672 2.57,2.039 0.83,0.695 1.68,1.34 3.36,2.735 6.79,5.422 29.31,23.609 27.38,22.016 26.81,21.582 29.13,23.414 27.12,21.875 29.49,23.687 27.46,22.133 26.97,21.672 3.65,2.95 3.66,2.93 7.3,5.9 1.82,1.47 1.81,1.45 3.69,2.95 7.29,5.89 5.97,4.78 0.45,0.37 0.43,0.32 0.41,0.1 0.44,0.04 0.83,0.14 1.68,0.29 3.43,0.53 0.43,0.06 0.42,0.09 0.85,0.14 1.72,0.26 3.4,0.57 6.81,1.07 0.47,0.09 0.48,0.06 0.91,0.17 1.86,0.28 25.87,4.18 29.03,4.68 27.07,4.35 29.38,4.71 27.42,4.42 26.88,4.31 29.16,4.7 27.17,4.37 0.96,0.18 0.94,0.13 1.93,0.32 3.78,0.59 7.57,1.23 0.97,0.18 0.95,0.13 1.93,0.32 3.76,0.59 0.97,0.18 0.95,0.14 1.89,0.31 0.47,0.06 0.48,0.09 0.92,0.17 0.5,0.05 0.97,0.17 0.43,0.06"
         style="fill:none;stroke:#3871c1;stroke-width:10;stroke-linecap:butt;stroke-linejoin:miter;stroke-miterlimit:3.25;stroke-dasharray:none;stroke-opacity:1"
         transform="matrix(0.13333333,0,0,-0.13333333,0,156.42667)" />
      <path
         id="path17"
         d="m 2088.48,262.609 v 30"
         style="fill:none;stroke:#231f20;stroke-width:5;stroke-linecap:butt;stroke-linejoin:miter;stroke-miterlimit:3.25;stroke-dasharray:none;stroke-opacity:1"
         transform="matrix(0.13333333,0,0,-0.13333333,0,156.42667)" />
      <path
         id="path18"
         d="m 2365.04,262.609 v 30"
         style="fill:none;stroke:#231f20;stroke-width:5;stroke-linecap:butt;stroke-linejoin:miter;stroke-miterlimit:3.25;stroke-dasharray:none;stroke-opacity:1"
         transform="matrix(0.13333333,0,0,-0.13333333,0,156.42667)" />
      <path
         id="path19"
         d="m 2641.53,262.609 v 30"
         style="fill:none;stroke:#231f20;stroke-width:5;stroke-linecap:butt;stroke-linejoin:miter;stroke-miterlimit:3.25;stroke-dasharray:none;stroke-opacity:1"
         transform="matrix(0.13333333,0,0,-0.13333333,0,156.42667)" />
      <path
         id="path20"
         d="m 2918.1,262.609 v 30"
         style="fill:none;stroke:#231f20;stroke-width:5;stroke-linecap:butt;stroke-linejoin:miter;stroke-miterlimit:3.25;stroke-dasharray:none;stroke-opacity:1"
         transform="matrix(0.13333333,0,0,-0.13333333,0,156.42667)" />
      <path
         id="path21"
         d="m 3194.62,262.609 v 30"
         style="fill:none;stroke:#231f20;stroke-width:5;stroke-linecap:butt;stroke-linejoin:miter;stroke-miterlimit:3.25;stroke-dasharray:none;stroke-opacity:1"
         transform="matrix(0.13333333,0,0,-0.13333333,0,156.42667)" />
      <path
         id="path22"
         d="M 1811.94,291.734 H 3223.45"
         style="fill:none;stroke:#231f20;stroke-width:5;stroke-linecap:butt;stroke-linejoin:miter;stroke-miterlimit:3.25;stroke-dasharray:none;stroke-opacity:1"
         transform="matrix(0.13333333,0,0,-0.13333333,0,156.42667)" />
      <path
         id="path23"
         d="m 1781.94,692.277 h 30"
         style="fill:none;stroke:#231f20;stroke-width:5;stroke-linecap:butt;stroke-linejoin:miter;stroke-miterlimit:3.25;stroke-dasharray:none;stroke-opacity:1"
         transform="matrix(0.13333333,0,0,-0.13333333,0,156.42667)" />
      <path
         id="path24"
         d="m 1781.94,1093.06 h 30"
         style="fill:none;stroke:#231f20;stroke-width:5;stroke-linecap:butt;stroke-linejoin:miter;stroke-miterlimit:3.25;stroke-dasharray:none;stroke-opacity:1"
         transform="matrix(0.13333333,0,0,-0.13333333,0,156.42667)" />
      <path
         id="path25"
         d="M 1811.94,291.734 V 1146.83"
         style="fill:none;stroke:#231f20;stroke-width:5;stroke-linecap:butt;stroke-linejoin:miter;stroke-miterlimit:3.25;stroke-dasharray:none;stroke-opacity:1"
         transform="matrix(0.13333333,0,0,-0.13333333,0,156.42667)" />
    </g>
  </g>
</svg>
