<?xml version="1.0" encoding="UTF-8" standalone="no"?>
<!-- Created with Inkscape (http://www.inkscape.org/) -->

<svg
   version="1.1"
   id="svg1"
   width="336.38666"
   height="314.94666"
   viewBox="0 0 336.38666 314.94666"
   sodipodi:docname="phaaaf14.eps"
   xmlns:inkscape="http://www.inkscape.org/namespaces/inkscape"
   xmlns:sodipodi="http://sodipodi.sourceforge.net/DTD/sodipodi-0.dtd"
   xmlns="http://www.w3.org/2000/svg"
   xmlns:svg="http://www.w3.org/2000/svg">
  <defs
     id="defs1" />
  <sodipodi:namedview
     id="namedview1"
     pagecolor="#ffffff"
     bordercolor="#000000"
     borderopacity="0.25"
     inkscape:showpageshadow="2"
     inkscape:pageopacity="0.0"
     inkscape:pagecheckerboard="0"
     inkscape:deskcolor="#d1d1d1">
    <inkscape:page
       x="0"
       y="0"
       inkscape:label="1"
       id="page1"
       width="336.38666"
       height="314.94666"
       margin="0"
       bleed="0" />
  </sodipodi:namedview>
  <g
     id="g1"
     inkscape:groupmode="layer"
     inkscape:label="1">
    <g
       id="group-R5">
      <path
         id="path2"
         d="M 1870.07,227.828 H 1366.21 V 731.68 h 503.86 V 227.828"
         style="fill:#e5e4e4;fill-opacity:1;fill-rule:nonzero;stroke:none"
         transform="matrix(0.13333333,0,0,-0.13333333,0,314.94667)" />
      <path
         id="path3"
         d="M 506.367,227.828 H 2.5 V 983.621 H 506.367 V 227.828"
         style="fill:#e5e4e4;fill-opacity:1;fill-rule:nonzero;stroke:none"
         transform="matrix(0.13333333,0,0,-0.13333333,0,314.94667)" />
      <path
         id="path4"
         d="m 2247.97,1477.83 h -881.76 v 503.85 h 881.76 v -503.85"
         style="fill:#e5e4e4;fill-opacity:1;fill-rule:nonzero;stroke:none"
         transform="matrix(0.13333333,0,0,-0.13333333,0,314.94667)" />
      <path
         id="path5"
         d="M 884.254,1477.83 H 2.5 v 755.79 h 881.754 v -755.79"
         style="fill:#e5e4e4;fill-opacity:1;fill-rule:nonzero;stroke:none"
         transform="matrix(0.13333333,0,0,-0.13333333,0,314.94667)" />
      <g
         id="g5"
         aria-label="(x&#10;1&#10;, y&#10;1&#10;)"
         transform="matrix(1.3333333,0,0,1.3333333,124.33493,19.988)">
        <path
           id="path6"
           d="m 2.6960656,1.3244297 c -0.890625,-0.76171876 -1.40625,-2.20312501 -1.40625,-3.75 0,-1.546875 0.515625,-3 1.40625,-3.75 L 2.5437219,-6.3865078 c -1.3242188,0.9023437 -1.91015628,2.3320312 -1.91015628,3.9492187 0,1.62890629 0.58593748,3.08203129 1.91015628,3.9609375 z m 0,0"
           style="fill:#231f20;fill-opacity:1;fill-rule:nonzero;stroke:none" />
        <path
           id="path7"
           d="m 3.8884484,-2.9177578 c 0.3164063,-0.3984375 0.4921875,-0.515625 0.5742188,-0.515625 0.09375,0 0.1757812,0.1289062 0.3046875,0.5742187 l 0.3046875,0.9375 c -0.5625,0.8320313 -0.984375,1.35937504 -1.2421875,1.35937504 -0.09375,0 -0.1640625,-0.0351563 -0.2109375,-0.09375 -0.046875,-0.0585938 -0.09375,-0.09375 -0.140625,-0.09375 -0.1757813,0 -0.3632813,0.2109375 -0.3632813,0.421875 -0.011719,0.2578125 0.1757813,0.43359375 0.4101563,0.43359375 0.421875,0 0.84375,-0.43359375 1.640625,-1.69921879 l 0.28125,0.87890629 c 0.1757812,0.5625 0.3632812,0.8203125 0.5976562,0.8203125 0.3046875,0 0.7265625,-0.328125 1.1367188,-0.97265625 L 7.0290734,-1.0427578 c -0.28125,0.33984374 -0.5039062,0.51562499 -0.6445312,0.51562499 -0.1523438,0 -0.28125,-0.2578125 -0.4570313,-0.82031249 L 5.6345422,-2.2497891 c 0.1992187,-0.28125 0.3984375,-0.5273437 0.5859375,-0.7382812 0.234375,-0.2929688 0.4101562,-0.4453125 0.5390625,-0.4453125 0.082031,0 0.1523437,0.035156 0.2109375,0.1054687 0.046875,0.046875 0.082031,0.070312 0.1289062,0.070312 0.140625,0 0.3398438,-0.1757812 0.3515625,-0.3984375 0,-0.1992187 -0.140625,-0.3867187 -0.375,-0.3867187 -0.3984375,0 -0.7851562,0.3867187 -1.5351562,1.4765625 l -0.1523438,-0.492187 c -0.2226562,-0.6445313 -0.3398437,-0.984375 -0.5859375,-0.984375 -0.2929687,0 -0.6914062,0.3867187 -1.0664062,0.9375 z m 0,0"
           style="fill:#231f20;fill-opacity:1;fill-rule:nonzero;stroke:none" />
        <path
           id="path8"
           d="M 10.828878,2.0011875 V 1.7550938 C 10.008566,1.6965 9.9499719,1.6261875 9.9499719,0.9699375 v -4.6875 c -0.4921875,0.1992188 -1.0195313,0.375 -1.59375,0.46875 v 0.2109375 l 0.4335937,0.011719 c 0.3867188,0.023437 0.421875,0.070312 0.421875,0.5390625 v 3.4570312 c 0,0.65625 -0.035156,0.7265625 -0.8554687,0.7851563 v 0.2460937 z m 0.266602,-3.1611328 c -0.210938,0 -0.433594,0.140625 -0.433594,0.36328124 0,0.15234375 0.07031,0.22265625 0.117187,0.234375 0.304688,0.0703125 0.5625,0.26953125 0.5625,0.59765625 0,0.33984375 -0.257812,0.57421875 -0.691406,0.76171875 l 0.09375,0.25781246 c 0.550781,-0.16406246 1.183594,-0.55078121 1.183594,-1.24218746 0,-0.6328125 -0.503906,-0.97265624 -0.832031,-0.97265624 z m 0,0"
           style="fill:#231f20;fill-opacity:1;fill-rule:nonzero;stroke:none" />
        <path
           id="path9"
           d="m 16.500753,-0.67947656 c -0.05859,-0.80859374 -0.117187,-1.62890624 -0.210937,-2.30859374 -0.07031,-0.7148438 -0.210938,-1.0546875 -0.457032,-1.0546875 -0.328125,0 -0.773437,0.515625 -1.066406,0.9609375 l 0.152344,0.2109375 c 0.222656,-0.3164063 0.457031,-0.5273438 0.527344,-0.5273438 0.07031,0 0.117187,0.1171875 0.1875,0.5625 0.128906,0.8203125 0.269531,2.22656254 0.28125,2.92968754 -0.445313,0.59765625 -1.160157,1.39453126 -2.121094,2.01562496 l 0.07031,0.1992188 0.9375,-0.234375 c 0.503907,-0.5625 1.089844,-1.35937501 1.617188,-2.12109376 0.480469,-0.66796875 1.242187,-1.86328124 1.628906,-2.54296874 0.234375,-0.3984375 0.328125,-0.703125 0.316406,-0.9609375 0,-0.2929688 -0.152343,-0.4921875 -0.351562,-0.4921875 -0.152344,0 -0.316406,0.1054687 -0.375,0.2460937 -0.03516,0.070312 -0.04687,0.1640625 -0.01172,0.2226563 0.03516,0.1054687 0.09375,0.2460937 0.09375,0.421875 0.01172,0.65625 -0.820312,1.8867187 -1.207031,2.47265624 z m 0,0"
           style="fill:#231f20;fill-opacity:1;fill-rule:nonzero;stroke:none" />
        <path
           id="path10"
           d="M 21.78005,2.0011875 V 1.7550938 C 20.959737,1.6965 20.901144,1.6261875 20.901144,0.9699375 v -4.6875 c -0.492188,0.1992188 -1.019532,0.375 -1.59375,0.46875 v 0.2109375 l 0.433593,0.011719 c 0.386719,0.023437 0.421875,0.070312 0.421875,0.5390625 v 3.4570312 c 0,0.65625 -0.03516,0.7265625 -0.855468,0.7851563 v 0.2460937 z m -0.166992,-8.1767578 c 0.890625,0.7382812 1.417969,2.203125 1.417969,3.75 0,1.54687499 -0.503907,2.98828124 -1.417969,3.75 l 0.164062,0.1992187 c 1.347657,-0.91406246 1.898438,-2.33203121 1.898438,-3.9492187 0,-1.6289063 -0.550781,-3.0585938 -1.898438,-3.9609375 z m 0,0"
           style="fill:#231f20;fill-opacity:1;fill-rule:nonzero;stroke:none" />
      </g>
      <path
         id="path11"
         d="m 1366.21,2359.58 h 881.76 v -881.75 h -881.76 z"
         style="fill:none;stroke:#b2b1b1;stroke-width:5;stroke-linecap:butt;stroke-linejoin:miter;stroke-miterlimit:10;stroke-dasharray:none;stroke-opacity:1"
         transform="matrix(0.13333333,0,0,-0.13333333,0,314.94667)" />
      <path
         id="path12"
         d="m 1366.21,1603.79 h 881.76"
         style="fill:none;stroke:#b2b1b1;stroke-width:5;stroke-linecap:butt;stroke-linejoin:miter;stroke-miterlimit:10;stroke-dasharray:none;stroke-opacity:1"
         transform="matrix(0.13333333,0,0,-0.13333333,0,314.94667)" />
      <path
         id="path13"
         d="m 1366.21,1729.76 h 881.76"
         style="fill:none;stroke:#b2b1b1;stroke-width:5;stroke-linecap:butt;stroke-linejoin:miter;stroke-miterlimit:10;stroke-dasharray:none;stroke-opacity:1"
         transform="matrix(0.13333333,0,0,-0.13333333,0,314.94667)" />
      <path
         id="path14"
         d="m 1366.21,1855.72 h 881.76"
         style="fill:none;stroke:#b2b1b1;stroke-width:5;stroke-linecap:butt;stroke-linejoin:miter;stroke-miterlimit:10;stroke-dasharray:none;stroke-opacity:1"
         transform="matrix(0.13333333,0,0,-0.13333333,0,314.94667)" />
      <path
         id="path15"
         d="m 1366.21,1981.68 h 881.76"
         style="fill:none;stroke:#b2b1b1;stroke-width:5;stroke-linecap:butt;stroke-linejoin:miter;stroke-miterlimit:10;stroke-dasharray:none;stroke-opacity:1"
         transform="matrix(0.13333333,0,0,-0.13333333,0,314.94667)" />
      <path
         id="path16"
         d="m 1366.21,2107.65 h 881.76"
         style="fill:none;stroke:#b2b1b1;stroke-width:5;stroke-linecap:butt;stroke-linejoin:miter;stroke-miterlimit:10;stroke-dasharray:none;stroke-opacity:1"
         transform="matrix(0.13333333,0,0,-0.13333333,0,314.94667)" />
      <path
         id="path17"
         d="m 1366.21,2233.62 h 881.76"
         style="fill:none;stroke:#b2b1b1;stroke-width:5;stroke-linecap:butt;stroke-linejoin:miter;stroke-miterlimit:10;stroke-dasharray:none;stroke-opacity:1"
         transform="matrix(0.13333333,0,0,-0.13333333,0,314.94667)" />
      <path
         id="path18"
         d="M 2122.01,2359.58 V 1477.83"
         style="fill:none;stroke:#b2b1b1;stroke-width:5;stroke-linecap:butt;stroke-linejoin:miter;stroke-miterlimit:10;stroke-dasharray:none;stroke-opacity:1"
         transform="matrix(0.13333333,0,0,-0.13333333,0,314.94667)" />
      <path
         id="path19"
         d="M 1996.04,2359.58 V 1477.83"
         style="fill:none;stroke:#b2b1b1;stroke-width:5;stroke-linecap:butt;stroke-linejoin:miter;stroke-miterlimit:10;stroke-dasharray:none;stroke-opacity:1"
         transform="matrix(0.13333333,0,0,-0.13333333,0,314.94667)" />
      <path
         id="path20"
         d="M 1870.07,2359.58 V 1477.83"
         style="fill:none;stroke:#b2b1b1;stroke-width:5;stroke-linecap:butt;stroke-linejoin:miter;stroke-miterlimit:10;stroke-dasharray:none;stroke-opacity:1"
         transform="matrix(0.13333333,0,0,-0.13333333,0,314.94667)" />
      <path
         id="path21"
         d="M 1744.11,2359.58 V 1477.83"
         style="fill:none;stroke:#b2b1b1;stroke-width:5;stroke-linecap:butt;stroke-linejoin:miter;stroke-miterlimit:10;stroke-dasharray:none;stroke-opacity:1"
         transform="matrix(0.13333333,0,0,-0.13333333,0,314.94667)" />
      <path
         id="path22"
         d="M 1618.14,2359.58 V 1477.83"
         style="fill:none;stroke:#b2b1b1;stroke-width:5;stroke-linecap:butt;stroke-linejoin:miter;stroke-miterlimit:10;stroke-dasharray:none;stroke-opacity:1"
         transform="matrix(0.13333333,0,0,-0.13333333,0,314.94667)" />
      <path
         id="path23"
         d="M 1492.18,2359.58 V 1477.83"
         style="fill:none;stroke:#b2b1b1;stroke-width:5;stroke-linecap:butt;stroke-linejoin:miter;stroke-miterlimit:10;stroke-dasharray:none;stroke-opacity:1"
         transform="matrix(0.13333333,0,0,-0.13333333,0,314.94667)" />
      <path
         id="path24"
         d="m 1891.51,1981.68 c 0,-11.83 -9.6,-21.42 -21.44,-21.42 -11.83,0 -21.43,9.59 -21.43,21.42 0,11.84 9.6,21.43 21.43,21.43 11.84,0 21.44,-9.59 21.44,-21.43"
         style="fill:#231f20;fill-opacity:1;fill-rule:nonzero;stroke:none"
         transform="matrix(0.13333333,0,0,-0.13333333,0,314.94667)" />
      <path
         id="path25"
         d="m 2269.39,2233.62 c 0,-11.84 -9.58,-21.43 -21.42,-21.43 -11.83,0 -21.42,9.59 -21.42,21.43 0,11.83 9.59,21.42 21.42,21.42 11.84,0 21.42,-9.59 21.42,-21.42"
         style="fill:#231f20;fill-opacity:1;fill-rule:nonzero;stroke:none"
         transform="matrix(0.13333333,0,0,-0.13333333,0,314.94667)" />
      <path
         id="path26"
         d="M 2.5,1109.58 H 884.258 V 227.828 H 2.5 Z"
         style="fill:none;stroke:#b2b1b1;stroke-width:5;stroke-linecap:butt;stroke-linejoin:miter;stroke-miterlimit:10;stroke-dasharray:none;stroke-opacity:1"
         transform="matrix(0.13333333,0,0,-0.13333333,0,314.94667)" />
      <path
         id="path27"
         d="M 2.5,353.789 H 884.258"
         style="fill:none;stroke:#b2b1b1;stroke-width:5;stroke-linecap:butt;stroke-linejoin:miter;stroke-miterlimit:10;stroke-dasharray:none;stroke-opacity:1"
         transform="matrix(0.13333333,0,0,-0.13333333,0,314.94667)" />
      <path
         id="path28"
         d="M 2.5,479.762 H 884.258"
         style="fill:none;stroke:#b2b1b1;stroke-width:5;stroke-linecap:butt;stroke-linejoin:miter;stroke-miterlimit:10;stroke-dasharray:none;stroke-opacity:1"
         transform="matrix(0.13333333,0,0,-0.13333333,0,314.94667)" />
      <path
         id="path29"
         d="M 2.5,605.719 H 884.258"
         style="fill:none;stroke:#b2b1b1;stroke-width:5;stroke-linecap:butt;stroke-linejoin:miter;stroke-miterlimit:10;stroke-dasharray:none;stroke-opacity:1"
         transform="matrix(0.13333333,0,0,-0.13333333,0,314.94667)" />
      <path
         id="path30"
         d="M 2.5,731.68 H 884.258"
         style="fill:none;stroke:#b2b1b1;stroke-width:5;stroke-linecap:butt;stroke-linejoin:miter;stroke-miterlimit:10;stroke-dasharray:none;stroke-opacity:1"
         transform="matrix(0.13333333,0,0,-0.13333333,0,314.94667)" />
      <path
         id="path31"
         d="M 2.5,857.648 H 884.258"
         style="fill:none;stroke:#b2b1b1;stroke-width:5;stroke-linecap:butt;stroke-linejoin:miter;stroke-miterlimit:10;stroke-dasharray:none;stroke-opacity:1"
         transform="matrix(0.13333333,0,0,-0.13333333,0,314.94667)" />
      <path
         id="path32"
         d="M 2.5,983.621 H 884.258"
         style="fill:none;stroke:#b2b1b1;stroke-width:5;stroke-linecap:butt;stroke-linejoin:miter;stroke-miterlimit:10;stroke-dasharray:none;stroke-opacity:1"
         transform="matrix(0.13333333,0,0,-0.13333333,0,314.94667)" />
      <path
         id="path33"
         d="M 758.293,1109.58 V 227.828"
         style="fill:none;stroke:#b2b1b1;stroke-width:5;stroke-linecap:butt;stroke-linejoin:miter;stroke-miterlimit:10;stroke-dasharray:none;stroke-opacity:1"
         transform="matrix(0.13333333,0,0,-0.13333333,0,314.94667)" />
      <path
         id="path34"
         d="M 632.324,1109.58 V 227.828"
         style="fill:none;stroke:#b2b1b1;stroke-width:5;stroke-linecap:butt;stroke-linejoin:miter;stroke-miterlimit:10;stroke-dasharray:none;stroke-opacity:1"
         transform="matrix(0.13333333,0,0,-0.13333333,0,314.94667)" />
      <path
         id="path35"
         d="M 506.367,1109.58 V 227.828"
         style="fill:none;stroke:#b2b1b1;stroke-width:5;stroke-linecap:butt;stroke-linejoin:miter;stroke-miterlimit:10;stroke-dasharray:none;stroke-opacity:1"
         transform="matrix(0.13333333,0,0,-0.13333333,0,314.94667)" />
      <path
         id="path36"
         d="M 380.398,1109.58 V 227.828"
         style="fill:none;stroke:#b2b1b1;stroke-width:5;stroke-linecap:butt;stroke-linejoin:miter;stroke-miterlimit:10;stroke-dasharray:none;stroke-opacity:1"
         transform="matrix(0.13333333,0,0,-0.13333333,0,314.94667)" />
      <path
         id="path37"
         d="M 254.434,1109.58 V 227.828"
         style="fill:none;stroke:#b2b1b1;stroke-width:5;stroke-linecap:butt;stroke-linejoin:miter;stroke-miterlimit:10;stroke-dasharray:none;stroke-opacity:1"
         transform="matrix(0.13333333,0,0,-0.13333333,0,314.94667)" />
      <path
         id="path38"
         d="M 128.469,1109.58 V 227.828"
         style="fill:none;stroke:#b2b1b1;stroke-width:5;stroke-linecap:butt;stroke-linejoin:miter;stroke-miterlimit:10;stroke-dasharray:none;stroke-opacity:1"
         transform="matrix(0.13333333,0,0,-0.13333333,0,314.94667)" />
      <path
         id="path39"
         d="m 527.789,731.68 c 0,-11.828 -9.601,-21.418 -21.418,-21.418 -11.855,0 -21.433,9.59 -21.433,21.418 0,11.84 9.578,21.441 21.433,21.441 11.817,0 21.418,-9.601 21.418,-21.441"
         style="fill:#231f20;fill-opacity:1;fill-rule:nonzero;stroke:none"
         transform="matrix(0.13333333,0,0,-0.13333333,0,314.94667)" />
      <path
         id="path40"
         d="m 905.688,983.621 c 0,-11.84 -9.598,-21.43 -21.434,-21.43 -11.836,0 -21.418,9.59 -21.418,21.43 0,11.828 9.582,21.419 21.418,21.419 11.836,0 21.434,-9.591 21.434,-21.419"
         style="fill:#231f20;fill-opacity:1;fill-rule:nonzero;stroke:none"
         transform="matrix(0.13333333,0,0,-0.13333333,0,314.94667)" />
      <path
         id="path41"
         d="m 1366.21,1109.58 h 881.75 V 227.828 h -881.75 z"
         style="fill:none;stroke:#b2b1b1;stroke-width:5;stroke-linecap:butt;stroke-linejoin:miter;stroke-miterlimit:10;stroke-dasharray:none;stroke-opacity:1"
         transform="matrix(0.13333333,0,0,-0.13333333,0,314.94667)" />
      <path
         id="path42"
         d="m 1366.21,353.789 h 881.75"
         style="fill:none;stroke:#b2b1b1;stroke-width:5;stroke-linecap:butt;stroke-linejoin:miter;stroke-miterlimit:10;stroke-dasharray:none;stroke-opacity:1"
         transform="matrix(0.13333333,0,0,-0.13333333,0,314.94667)" />
      <path
         id="path43"
         d="m 1366.21,479.762 h 881.75"
         style="fill:none;stroke:#b2b1b1;stroke-width:5;stroke-linecap:butt;stroke-linejoin:miter;stroke-miterlimit:10;stroke-dasharray:none;stroke-opacity:1"
         transform="matrix(0.13333333,0,0,-0.13333333,0,314.94667)" />
      <path
         id="path44"
         d="m 1366.21,605.719 h 881.75"
         style="fill:none;stroke:#b2b1b1;stroke-width:5;stroke-linecap:butt;stroke-linejoin:miter;stroke-miterlimit:10;stroke-dasharray:none;stroke-opacity:1"
         transform="matrix(0.13333333,0,0,-0.13333333,0,314.94667)" />
      <path
         id="path45"
         d="m 1366.21,731.68 h 881.75"
         style="fill:none;stroke:#b2b1b1;stroke-width:5;stroke-linecap:butt;stroke-linejoin:miter;stroke-miterlimit:10;stroke-dasharray:none;stroke-opacity:1"
         transform="matrix(0.13333333,0,0,-0.13333333,0,314.94667)" />
      <path
         id="path46"
         d="m 1366.21,857.648 h 881.75"
         style="fill:none;stroke:#b2b1b1;stroke-width:5;stroke-linecap:butt;stroke-linejoin:miter;stroke-miterlimit:10;stroke-dasharray:none;stroke-opacity:1"
         transform="matrix(0.13333333,0,0,-0.13333333,0,314.94667)" />
      <path
         id="path47"
         d="m 1366.21,983.621 h 881.75"
         style="fill:none;stroke:#b2b1b1;stroke-width:5;stroke-linecap:butt;stroke-linejoin:miter;stroke-miterlimit:10;stroke-dasharray:none;stroke-opacity:1"
         transform="matrix(0.13333333,0,0,-0.13333333,0,314.94667)" />
      <path
         id="path48"
         d="M 2122.01,1109.58 V 227.828"
         style="fill:none;stroke:#b2b1b1;stroke-width:5;stroke-linecap:butt;stroke-linejoin:miter;stroke-miterlimit:10;stroke-dasharray:none;stroke-opacity:1"
         transform="matrix(0.13333333,0,0,-0.13333333,0,314.94667)" />
      <path
         id="path49"
         d="M 1996.03,1109.58 V 227.828"
         style="fill:none;stroke:#b2b1b1;stroke-width:5;stroke-linecap:butt;stroke-linejoin:miter;stroke-miterlimit:10;stroke-dasharray:none;stroke-opacity:1"
         transform="matrix(0.13333333,0,0,-0.13333333,0,314.94667)" />
      <path
         id="path50"
         d="M 1870.07,1109.58 V 227.828"
         style="fill:none;stroke:#b2b1b1;stroke-width:5;stroke-linecap:butt;stroke-linejoin:miter;stroke-miterlimit:10;stroke-dasharray:none;stroke-opacity:1"
         transform="matrix(0.13333333,0,0,-0.13333333,0,314.94667)" />
      <path
         id="path51"
         d="M 1744.12,1109.58 V 227.828"
         style="fill:none;stroke:#b2b1b1;stroke-width:5;stroke-linecap:butt;stroke-linejoin:miter;stroke-miterlimit:10;stroke-dasharray:none;stroke-opacity:1"
         transform="matrix(0.13333333,0,0,-0.13333333,0,314.94667)" />
      <path
         id="path52"
         d="M 1618.14,1109.58 V 227.828"
         style="fill:none;stroke:#b2b1b1;stroke-width:5;stroke-linecap:butt;stroke-linejoin:miter;stroke-miterlimit:10;stroke-dasharray:none;stroke-opacity:1"
         transform="matrix(0.13333333,0,0,-0.13333333,0,314.94667)" />
      <path
         id="path53"
         d="M 1492.18,1109.58 V 227.828"
         style="fill:none;stroke:#b2b1b1;stroke-width:5;stroke-linecap:butt;stroke-linejoin:miter;stroke-miterlimit:10;stroke-dasharray:none;stroke-opacity:1"
         transform="matrix(0.13333333,0,0,-0.13333333,0,314.94667)" />
      <path
         id="path54"
         d="m 1891.52,731.68 c 0,-11.828 -9.6,-21.418 -21.46,-21.418 -11.81,0 -21.41,9.59 -21.41,21.418 0,11.84 9.6,21.441 21.41,21.441 11.86,0 21.46,-9.601 21.46,-21.441"
         style="fill:#231f20;fill-opacity:1;fill-rule:nonzero;stroke:none"
         transform="matrix(0.13333333,0,0,-0.13333333,0,314.94667)" />
      <path
         id="path55"
         d="m 2269.41,983.621 c 0,-11.84 -9.6,-21.43 -21.46,-21.43 -11.81,0 -21.41,9.59 -21.41,21.43 0,11.828 9.6,21.419 21.41,21.419 11.86,0 21.46,-9.591 21.46,-21.419"
         style="fill:#231f20;fill-opacity:1;fill-rule:nonzero;stroke:none"
         transform="matrix(0.13333333,0,0,-0.13333333,0,314.94667)" />
      <path
         id="path56"
         d="M 2.5,2359.58 H 884.254 V 1477.83 H 2.5 Z"
         style="fill:none;stroke:#b2b1b1;stroke-width:5;stroke-linecap:butt;stroke-linejoin:miter;stroke-miterlimit:10;stroke-dasharray:none;stroke-opacity:1"
         transform="matrix(0.13333333,0,0,-0.13333333,0,314.94667)" />
      <path
         id="path57"
         d="M 2.5,1603.79 H 884.254"
         style="fill:none;stroke:#b2b1b1;stroke-width:5;stroke-linecap:butt;stroke-linejoin:miter;stroke-miterlimit:10;stroke-dasharray:none;stroke-opacity:1"
         transform="matrix(0.13333333,0,0,-0.13333333,0,314.94667)" />
      <path
         id="path58"
         d="M 2.5,1729.76 H 884.254"
         style="fill:none;stroke:#b2b1b1;stroke-width:5;stroke-linecap:butt;stroke-linejoin:miter;stroke-miterlimit:10;stroke-dasharray:none;stroke-opacity:1"
         transform="matrix(0.13333333,0,0,-0.13333333,0,314.94667)" />
      <path
         id="path59"
         d="M 2.5,1855.72 H 884.254"
         style="fill:none;stroke:#b2b1b1;stroke-width:5;stroke-linecap:butt;stroke-linejoin:miter;stroke-miterlimit:10;stroke-dasharray:none;stroke-opacity:1"
         transform="matrix(0.13333333,0,0,-0.13333333,0,314.94667)" />
      <path
         id="path60"
         d="M 2.5,1981.68 H 884.254"
         style="fill:none;stroke:#b2b1b1;stroke-width:5;stroke-linecap:butt;stroke-linejoin:miter;stroke-miterlimit:10;stroke-dasharray:none;stroke-opacity:1"
         transform="matrix(0.13333333,0,0,-0.13333333,0,314.94667)" />
      <path
         id="path61"
         d="M 2.5,2107.65 H 884.254"
         style="fill:none;stroke:#b2b1b1;stroke-width:5;stroke-linecap:butt;stroke-linejoin:miter;stroke-miterlimit:10;stroke-dasharray:none;stroke-opacity:1"
         transform="matrix(0.13333333,0,0,-0.13333333,0,314.94667)" />
      <path
         id="path62"
         d="M 2.5,2233.62 H 884.254"
         style="fill:none;stroke:#b2b1b1;stroke-width:5;stroke-linecap:butt;stroke-linejoin:miter;stroke-miterlimit:10;stroke-dasharray:none;stroke-opacity:1"
         transform="matrix(0.13333333,0,0,-0.13333333,0,314.94667)" />
      <path
         id="path63"
         d="M 758.293,2359.58 V 1477.83"
         style="fill:none;stroke:#b2b1b1;stroke-width:5;stroke-linecap:butt;stroke-linejoin:miter;stroke-miterlimit:10;stroke-dasharray:none;stroke-opacity:1"
         transform="matrix(0.13333333,0,0,-0.13333333,0,314.94667)" />
      <path
         id="path64"
         d="M 632.324,2359.58 V 1477.83"
         style="fill:none;stroke:#b2b1b1;stroke-width:5;stroke-linecap:butt;stroke-linejoin:miter;stroke-miterlimit:10;stroke-dasharray:none;stroke-opacity:1"
         transform="matrix(0.13333333,0,0,-0.13333333,0,314.94667)" />
      <path
         id="path65"
         d="M 506.355,2359.58 V 1477.83"
         style="fill:none;stroke:#b2b1b1;stroke-width:5;stroke-linecap:butt;stroke-linejoin:miter;stroke-miterlimit:10;stroke-dasharray:none;stroke-opacity:1"
         transform="matrix(0.13333333,0,0,-0.13333333,0,314.94667)" />
      <path
         id="path66"
         d="M 380.395,2359.58 V 1477.83"
         style="fill:none;stroke:#b2b1b1;stroke-width:5;stroke-linecap:butt;stroke-linejoin:miter;stroke-miterlimit:10;stroke-dasharray:none;stroke-opacity:1"
         transform="matrix(0.13333333,0,0,-0.13333333,0,314.94667)" />
      <path
         id="path67"
         d="M 254.43,2359.58 V 1477.83"
         style="fill:none;stroke:#b2b1b1;stroke-width:5;stroke-linecap:butt;stroke-linejoin:miter;stroke-miterlimit:10;stroke-dasharray:none;stroke-opacity:1"
         transform="matrix(0.13333333,0,0,-0.13333333,0,314.94667)" />
      <path
         id="path68"
         d="M 128.461,2359.58 V 1477.83"
         style="fill:none;stroke:#b2b1b1;stroke-width:5;stroke-linecap:butt;stroke-linejoin:miter;stroke-miterlimit:10;stroke-dasharray:none;stroke-opacity:1"
         transform="matrix(0.13333333,0,0,-0.13333333,0,314.94667)" />
      <path
         id="path69"
         d="m 527.789,1981.68 c 0,-11.83 -9.598,-21.42 -21.434,-21.42 -11.828,0 -21.421,9.59 -21.421,21.42 0,11.84 9.593,21.43 21.421,21.43 11.836,0 21.434,-9.59 21.434,-21.43"
         style="fill:#231f20;fill-opacity:1;fill-rule:nonzero;stroke:none"
         transform="matrix(0.13333333,0,0,-0.13333333,0,314.94667)" />
      <path
         id="path70"
         d="m 905.684,2233.62 c 0,-11.84 -9.594,-21.43 -21.43,-21.43 -11.832,0 -21.426,9.59 -21.426,21.43 0,11.83 9.594,21.42 21.426,21.42 11.836,0 21.43,-9.59 21.43,-21.42"
         style="fill:#231f20;fill-opacity:1;fill-rule:nonzero;stroke:none"
         transform="matrix(0.13333333,0,0,-0.13333333,0,314.94667)" />
      <g
         id="g70"
         aria-label="(x&#10;1&#10;, y&#10;1&#10;)&#10;(x&#10;0&#10;, y&#10;0&#10;)&#10;(x&#10;1&#10;, y&#10;1&#10;)&#10;–+&#10;+–&#10;(a)&#10;(c)&#10;(b)&#10;(d)&#10;(x&#10;0&#10;, y&#10;0&#10;)&#10;(x&#10;1&#10;, y&#10;1&#10;)&#10;(x&#10;0&#10;, y&#10;0&#10;)&#10;(x&#10;0&#10;, y&#10;0&#10;)"
         transform="matrix(1.3333333,0,0,1.3333333,124.33493,186.65453)">
        <path
           id="path71"
           d="m 2.6960656,1.3255063 c -0.890625,-0.7617188 -1.40625,-2.20312505 -1.40625,-3.75 0,-1.546875 0.515625,-3 1.40625,-3.75 L 2.5437219,-6.3854312 C 1.2195031,-5.4830875 0.63356562,-4.0534 0.63356562,-2.4362125 c 0,1.62890625 0.58593748,3.08203125 1.91015628,3.9609375 z m 0,0"
           style="fill:#231f20;fill-opacity:1;fill-rule:nonzero;stroke:none" />
        <path
           id="path72"
           d="m 3.8884484,-2.9166812 c 0.3164063,-0.3984375 0.4921875,-0.515625 0.5742188,-0.515625 0.09375,0 0.1757812,0.1289062 0.3046875,0.5742187 l 0.3046875,0.9375 c -0.5625,0.8320313 -0.984375,1.359375 -1.2421875,1.359375 -0.09375,0 -0.1640625,-0.0351563 -0.2109375,-0.09375 -0.046875,-0.0585938 -0.09375,-0.09375 -0.140625,-0.09375 -0.1757813,0 -0.3632813,0.2109375 -0.3632813,0.421875 -0.011719,0.2578125 0.1757813,0.43359375 0.4101563,0.43359375 0.421875,0 0.84375,-0.43359375 1.640625,-1.69921875 l 0.28125,0.87890625 c 0.1757812,0.5625 0.3632812,0.8203125 0.5976562,0.8203125 0.3046875,0 0.7265625,-0.328125 1.1367188,-0.97265625 L 7.0290734,-1.0416812 c -0.28125,0.3398437 -0.5039062,0.51562495 -0.6445312,0.51562495 -0.1523438,0 -0.28125,-0.2578125 -0.4570313,-0.82031245 L 5.6345422,-2.2487125 c 0.1992187,-0.28125 0.3984375,-0.5273437 0.5859375,-0.7382812 0.234375,-0.2929688 0.4101562,-0.4453125 0.5390625,-0.4453125 0.082031,0 0.1523437,0.035156 0.2109375,0.1054687 0.046875,0.046875 0.082031,0.070312 0.1289062,0.070312 0.140625,0 0.3398438,-0.1757812 0.3515625,-0.3984375 0,-0.1992187 -0.140625,-0.3867187 -0.375,-0.3867187 -0.3984375,0 -0.7851562,0.3867187 -1.5351562,1.4765625 l -0.1523438,-0.492187 c -0.2226562,-0.6445313 -0.3398437,-0.984375 -0.5859375,-0.984375 -0.2929687,0 -0.6914062,0.3867187 -1.0664062,0.9375 z m 0,0"
           style="fill:#231f20;fill-opacity:1;fill-rule:nonzero;stroke:none" />
        <path
           id="path73"
           d="M 10.828878,1.9993344 V 1.7532406 C 10.008566,1.6946469 9.9499719,1.6243344 9.9499719,0.96808438 V -3.7194156 c -0.4921875,0.1992187 -1.0195313,0.375 -1.59375,0.46875 v 0.2109375 l 0.4335937,0.011719 c 0.3867188,0.023437 0.421875,0.070312 0.421875,0.5390625 v 3.45703128 c 0,0.65625002 -0.035156,0.72656252 -0.8554687,0.78515622 v 0.2460938 z m 0.266602,-3.1582031 c -0.210938,0 -0.433594,0.140625 -0.433594,0.3632812 0,0.15234375 0.07031,0.22265625 0.117187,0.234375 0.304688,0.0703125 0.5625,0.26953125 0.5625,0.59765625 0,0.33984375 -0.257812,0.57421875 -0.691406,0.76171875 l 0.09375,0.2578125 c 0.550781,-0.1640625 1.183594,-0.55078125 1.183594,-1.2421875 0,-0.6328125 -0.503906,-0.9726562 -0.832031,-0.9726562 z m 0,0"
           style="fill:#231f20;fill-opacity:1;fill-rule:nonzero;stroke:none" />
        <path
           id="path74"
           d="m 16.500753,-0.6784 c -0.05859,-0.8085937 -0.117187,-1.6289062 -0.210937,-2.3085937 -0.07031,-0.7148438 -0.210938,-1.0546875 -0.457032,-1.0546875 -0.328125,0 -0.773437,0.515625 -1.066406,0.9609375 l 0.152344,0.2109375 c 0.222656,-0.3164063 0.457031,-0.5273438 0.527344,-0.5273438 0.07031,0 0.117187,0.1171875 0.1875,0.5625 0.128906,0.8203125 0.269531,2.2265625 0.28125,2.9296875 -0.445313,0.59765625 -1.160157,1.3945313 -2.121094,2.015625 l 0.07031,0.1992188 0.9375,-0.234375 c 0.503907,-0.5625 1.089844,-1.35937505 1.617188,-2.1210938 0.480469,-0.66796875 1.242187,-1.8632812 1.628906,-2.5429687 0.234375,-0.3984375 0.328125,-0.703125 0.316406,-0.9609375 0,-0.2929688 -0.152343,-0.4921875 -0.351562,-0.4921875 -0.152344,0 -0.316406,0.1054687 -0.375,0.2460937 -0.03516,0.070312 -0.04687,0.1640625 -0.01172,0.2226563 0.03516,0.1054687 0.09375,0.2460937 0.09375,0.421875 0.01172,0.65625 -0.820312,1.8867187 -1.207031,2.4726562 z m 0,0"
           style="fill:#231f20;fill-opacity:1;fill-rule:nonzero;stroke:none" />
        <path
           id="path75"
           d="M 21.78005,1.9993344 V 1.7532406 C 20.959737,1.6946469 20.901144,1.6243344 20.901144,0.96808438 V -3.7194156 c -0.492188,0.1992187 -1.019532,0.375 -1.59375,0.46875 v 0.2109375 l 0.433593,0.011719 c 0.386719,0.023437 0.421875,0.070312 0.421875,0.5390625 v 3.45703128 c 0,0.65625002 -0.03516,0.72656252 -0.855468,0.78515622 v 0.2460938 z m -0.166992,-8.1738281 c 0.890625,0.7382812 1.417969,2.203125 1.417969,3.75 0,1.54687495 -0.503907,2.9882812 -1.417969,3.75 L 21.77712,1.524725 c 1.347657,-0.9140625 1.898438,-2.33203125 1.898438,-3.9492187 0,-1.6289063 -0.550781,-3.0585938 -1.898438,-3.9609375 z M -37.109598,20.052069 c -0.890625,-0.761719 -1.40625,-2.203125 -1.40625,-3.75 0,-1.546875 0.515625,-3 1.40625,-3.75 l -0.152344,-0.210938 c -1.324219,0.902344 -1.910156,2.332032 -1.910156,3.949219 0,1.628906 0.585937,3.082031 1.910156,3.960938 z m 0,0"
           style="fill:#231f20;fill-opacity:1;fill-rule:nonzero;stroke:none" />
        <path
           id="path76"
           d="m -35.920145,15.809881 c 0.316406,-0.398437 0.492187,-0.515625 0.574218,-0.515625 0.09375,0 0.175782,0.128907 0.304688,0.574219 l 0.304687,0.9375 c -0.5625,0.832031 -0.984375,1.359375 -1.242187,1.359375 -0.09375,0 -0.164063,-0.03516 -0.210938,-0.09375 -0.04687,-0.05859 -0.09375,-0.09375 -0.140625,-0.09375 -0.175781,0 -0.363281,0.210938 -0.363281,0.421875 -0.01172,0.257813 0.175781,0.433594 0.410156,0.433594 0.421875,0 0.84375,-0.433594 1.640625,-1.699219 l 0.28125,0.878906 c 0.175782,0.5625 0.363282,0.820313 0.597657,0.820313 0.304687,0 0.726562,-0.328125 1.136718,-0.972656 l -0.152343,-0.175782 c -0.28125,0.339844 -0.503907,0.515625 -0.644532,0.515625 -0.152343,0 -0.28125,-0.257812 -0.457031,-0.820312 l -0.292969,-0.902344 c 0.199219,-0.28125 0.398438,-0.527344 0.585938,-0.738281 0.234375,-0.292969 0.410156,-0.445313 0.539062,-0.445313 0.08203,0 0.152344,0.03516 0.210938,0.105469 0.04687,0.04687 0.08203,0.07031 0.128906,0.07031 0.140625,0 0.339844,-0.175782 0.351563,-0.398438 0,-0.199219 -0.140625,-0.386719 -0.375,-0.386719 -0.398438,0 -0.785157,0.386719 -1.535157,1.476563 l -0.152343,-0.492188 c -0.222657,-0.644531 -0.339844,-0.984375 -0.585938,-0.984375 -0.292969,0 -0.691406,0.386719 -1.066406,0.9375 z m 0,0"
           style="fill:#231f20;fill-opacity:1;fill-rule:nonzero;stroke:none" />
        <path
           id="path77"
           d="m -30.277567,15.010077 c -1.347656,0 -1.839844,1.605468 -1.839844,2.917968 0,1.417969 0.480469,2.90625 1.839844,2.90625 1.359375,0 1.828125,-1.59375 1.828125,-2.917968 0,-1.382813 -0.46875,-2.90625 -1.828125,-2.90625 z m 0,0.304687 c 0.808594,0 1.03125,1.324219 1.03125,2.601563 0,1.265625 -0.222656,2.613281 -1.03125,2.613281 -0.773438,0 -1.042969,-1.359375 -1.042969,-2.613281 0,-1.253907 0.222656,-2.601563 1.042969,-2.601563 z m 1.567383,2.25293 c -0.210938,0 -0.433594,0.140625 -0.433594,0.363281 0,0.152344 0.07031,0.222656 0.117187,0.234375 0.304688,0.07031 0.5625,0.269531 0.5625,0.597656 0,0.339844 -0.257812,0.574219 -0.691406,0.761719 l 0.09375,0.257813 c 0.550781,-0.164063 1.183594,-0.550782 1.183594,-1.242188 0,-0.632812 -0.503906,-0.972656 -0.832031,-0.972656 z m 0,0"
           style="fill:#231f20;fill-opacity:1;fill-rule:nonzero;stroke:none" />
        <path
           id="path78"
           d="m -23.304911,18.048163 c -0.05859,-0.808594 -0.117187,-1.628907 -0.210937,-2.308594 -0.07031,-0.714844 -0.210938,-1.054688 -0.457032,-1.054688 -0.328125,0 -0.773437,0.515625 -1.066406,0.960938 l 0.152344,0.210937 c 0.222656,-0.316406 0.457031,-0.527343 0.527344,-0.527343 0.07031,0 0.117187,0.117187 0.1875,0.5625 0.128906,0.820312 0.269531,2.226562 0.28125,2.929687 -0.445313,0.597656 -1.160157,1.394531 -2.121094,2.015625 l 0.07031,0.199219 0.9375,-0.234375 c 0.503907,-0.5625 1.089844,-1.359375 1.617188,-2.121094 0.480469,-0.667969 1.242187,-1.863281 1.628906,-2.542969 0.234375,-0.398437 0.328125,-0.703125 0.316406,-0.960937 0,-0.292969 -0.152343,-0.492188 -0.351562,-0.492188 -0.152344,0 -0.316406,0.105469 -0.375,0.246094 -0.03516,0.07031 -0.04687,0.164063 -0.01172,0.222656 0.03516,0.105469 0.09375,0.246094 0.09375,0.421875 0.01172,0.65625 -0.820312,1.886719 -1.207031,2.472657 z m 0,0"
           style="fill:#231f20;fill-opacity:1;fill-rule:nonzero;stroke:none" />
        <path
           id="path79"
           d="m -19.326395,15.010077 c -1.347657,0 -1.839844,1.605468 -1.839844,2.917968 0,1.417969 0.480469,2.90625 1.839844,2.90625 1.359375,0 1.828125,-1.59375 1.828125,-2.917968 0,-1.382813 -0.46875,-2.90625 -1.828125,-2.90625 z m 0,0.304687 c 0.808593,0 1.03125,1.324219 1.03125,2.601563 0,1.265625 -0.222657,2.613281 -1.03125,2.613281 -0.773438,0 -1.042969,-1.359375 -1.042969,-2.613281 0,-1.253907 0.222656,-2.601563 1.042969,-2.601563 z m 1.133789,-2.762695 c 0.890625,0.738281 1.417968,2.203125 1.417968,3.75 0,1.546875 -0.503906,2.988281 -1.417968,3.75 l 0.164062,0.199219 c 1.347656,-0.914063 1.898438,-2.332032 1.898438,-3.949219 0,-1.628906 -0.550782,-3.058594 -1.898438,-3.960938 z M 137.41775,-123.67547 c -0.89063,-0.76172 -1.40625,-2.20313 -1.40625,-3.75 0,-1.54688 0.51562,-3 1.40625,-3.75 l -0.15235,-0.21094 c -1.32422,0.90235 -1.91015,2.33203 -1.91015,3.94922 0,1.62891 0.58593,3.08203 1.91015,3.96094 z m 0,0"
           style="fill:#231f20;fill-opacity:1;fill-rule:nonzero;stroke:none" />
        <path
           id="path80"
           d="m 138.61013,-127.91766 c 0.3164,-0.39844 0.49219,-0.51562 0.57422,-0.51562 0.0937,0 0.17578,0.1289 0.30468,0.57422 l 0.30469,0.9375 c -0.5625,0.83203 -0.98437,1.35937 -1.24219,1.35937 -0.0937,0 -0.16406,-0.0352 -0.21093,-0.0937 -0.0469,-0.0586 -0.0937,-0.0937 -0.14063,-0.0937 -0.17578,0 -0.36328,0.21094 -0.36328,0.42188 -0.0117,0.25781 0.17578,0.43359 0.41016,0.43359 0.42187,0 0.84375,-0.43359 1.64062,-1.69922 l 0.28125,0.87891 c 0.17578,0.5625 0.36328,0.82031 0.59766,0.82031 0.30469,0 0.72656,-0.32813 1.13672,-0.97266 l -0.15235,-0.17578 c -0.28125,0.33985 -0.5039,0.51563 -0.64453,0.51563 -0.15234,0 -0.28125,-0.25782 -0.45703,-0.82032 l -0.29297,-0.90234 c 0.19922,-0.28125 0.39844,-0.52734 0.58594,-0.73828 0.23437,-0.29297 0.41016,-0.44531 0.53906,-0.44531 0.082,0 0.15235,0.0351 0.21094,0.10547 0.0469,0.0469 0.082,0.0703 0.12891,0.0703 0.14062,0 0.33984,-0.17578 0.35156,-0.39844 0,-0.19922 -0.14063,-0.38672 -0.375,-0.38672 -0.39844,0 -0.78516,0.38672 -1.53516,1.47656 l -0.15234,-0.49218 c -0.22266,-0.64453 -0.33985,-0.98438 -0.58594,-0.98438 -0.29297,0 -0.69141,0.38672 -1.06641,0.9375 z m 0,0"
           style="fill:#231f20;fill-opacity:1;fill-rule:nonzero;stroke:none" />
        <path
           id="path81"
           d="m 145.55056,-122.99871 v -0.2461 c -0.82031,-0.0586 -0.87891,-0.1289 -0.87891,-0.78515 v -4.6875 c -0.49219,0.19922 -1.01953,0.375 -1.59375,0.46875 v 0.21094 l 0.4336,0.0117 c 0.38671,0.0234 0.42187,0.0703 0.42187,0.53907 v 3.45703 c 0,0.65625 -0.0352,0.72656 -0.85547,0.78515 v 0.2461 z m 0.2666,-3.16114 c -0.21094,0 -0.43359,0.14063 -0.43359,0.36329 0,0.15234 0.0703,0.22265 0.11718,0.23437 0.30469,0.0703 0.5625,0.26953 0.5625,0.59766 0,0.33984 -0.25781,0.57422 -0.6914,0.76172 l 0.0937,0.25781 c 0.55078,-0.16406 1.18359,-0.55078 1.18359,-1.24219 0,-0.63281 -0.50391,-0.97266 -0.83203,-0.97266 z m 0,0"
           style="fill:#231f20;fill-opacity:1;fill-rule:nonzero;stroke:none" />
        <path
           id="path82"
           d="m 151.22536,-125.67938 c -0.0586,-0.80859 -0.11719,-1.6289 -0.21094,-2.30859 -0.0703,-0.71484 -0.21093,-1.05469 -0.45703,-1.05469 -0.32812,0 -0.77343,0.51563 -1.0664,0.96094 l 0.15234,0.21094 c 0.22266,-0.31641 0.45703,-0.52735 0.52734,-0.52735 0.0703,0 0.11719,0.11719 0.1875,0.5625 0.12891,0.82032 0.26954,2.22657 0.28125,2.92969 -0.44531,0.59766 -1.16015,1.39453 -2.12109,2.01563 l 0.0703,0.19921 0.9375,-0.23437 c 0.50391,-0.5625 1.08985,-1.35938 1.61719,-2.12109 0.48047,-0.66797 1.24219,-1.86329 1.62891,-2.54297 0.23437,-0.39844 0.32812,-0.70313 0.3164,-0.96094 0,-0.29297 -0.15234,-0.49219 -0.35156,-0.49219 -0.15234,0 -0.31641,0.10547 -0.375,0.2461 -0.0352,0.0703 -0.0469,0.16406 -0.0117,0.22265 0.0352,0.10547 0.0937,0.2461 0.0937,0.42188 0.0117,0.65625 -0.82031,1.88672 -1.20703,2.47265 z m 0,0"
           style="fill:#231f20;fill-opacity:1;fill-rule:nonzero;stroke:none" />
        <path
           id="path83"
           d="m 156.50466,-122.99871 v -0.2461 c -0.82031,-0.0586 -0.87891,-0.1289 -0.87891,-0.78515 v -4.6875 c -0.49218,0.19922 -1.01953,0.375 -1.59375,0.46875 v 0.21094 l 0.4336,0.0117 c 0.38672,0.0234 0.42187,0.0703 0.42187,0.53907 v 3.45703 c 0,0.65625 -0.0352,0.72656 -0.85547,0.78515 v 0.2461 z m -0.16699,-8.17676 c 0.89062,0.73828 1.41797,2.20312 1.41797,3.75 0,1.54687 -0.50391,2.98828 -1.41797,3.75 l 0.16406,0.19922 c 1.34766,-0.91406 1.89844,-2.33203 1.89844,-3.94922 0,-1.62891 -0.55078,-3.05859 -1.89844,-3.96094 z m -67.001956,87.410156 v -0.46875 h -3.773437 v 0.46875 z m -136.101562,-0.269531 v -0.433594 h -1.875 v -1.875 h -0.527344 v 1.875 h -1.886719 v 0.433594 h 1.886719 v 2.074218 h 0.527344 v -2.074218 z M 89.605245,79.738592 v -0.433594 h -1.875 v -1.875 h -0.527343 v 1.875 h -1.886719 v 0.433594 h 1.886719 v 2.074219 h 0.527343 V 79.738592 Z M -47.03538,80.008123 v -0.46875 h -3.773437 v 0.46875 z m -4.271484,-109.479492 c -0.890625,-0.761718 -1.40625,-2.203125 -1.40625,-3.75 0,-1.546875 0.515625,-3 1.40625,-3.75 l -0.152344,-0.210937 c -1.324219,0.902344 -1.910156,2.332031 -1.910156,3.949219 0,1.628906 0.585937,3.082031 1.910156,3.960937 z m 4.321289,-1.675781 -0.09375,-0.234375 c -0.09375,0.05859 -0.222656,0.105469 -0.328125,0.105469 -0.152344,0 -0.316406,-0.140625 -0.316406,-0.550781 V -33.4909 c 0,-0.46875 -0.08203,-0.84375 -0.398438,-1.101562 -0.199219,-0.164063 -0.46875,-0.246094 -0.738281,-0.246094 -0.515625,0.105469 -1.101563,0.457031 -1.347656,0.632812 -0.175782,0.128907 -0.292969,0.222657 -0.292969,0.363282 0,0.199218 0.234375,0.386718 0.398437,0.386718 0.128907,0 0.222657,-0.07031 0.257813,-0.210937 0.07031,-0.28125 0.152344,-0.480469 0.269531,-0.597656 0.09375,-0.105469 0.222656,-0.175782 0.410156,-0.175782 0.445313,0 0.75,0.363282 0.75,1.019532 v 0.164062 c -0.199218,0.152344 -0.855468,0.398438 -1.394531,0.574219 -0.492187,0.175781 -0.726562,0.457031 -0.726562,0.902344 0,0.5625 0.445312,1.089843 1.078125,1.089843 0.269531,0 0.703125,-0.328125 1.066406,-0.574218 0.04687,0.152343 0.09375,0.28125 0.210937,0.410156 0.105469,0.08203 0.292969,0.164062 0.421875,0.164062 z m -1.429688,-0.410156 c -0.164062,0.164062 -0.480468,0.316406 -0.714843,0.328125 -0.28125,0 -0.644532,-0.222656 -0.644532,-0.691406 0,-0.328125 0.199219,-0.492188 0.550782,-0.65625 0.1875,-0.09375 0.621093,-0.28125 0.808593,-0.375 z m 1.886719,-5.414063 c 0.890625,0.738282 1.417969,2.203125 1.417969,3.75 0,1.546875 -0.503906,2.988282 -1.417969,3.75 l 0.164063,0.199219 c 1.347656,-0.914062 1.898437,-2.332031 1.898437,-3.949219 0,-1.628906 -0.550781,-3.058593 -1.898437,-3.960937 z m -4.708008,131.273438 c -0.890625,-0.761719 -1.40625,-2.203125 -1.40625,-3.75 0,-1.546875 0.515625,-3 1.40625,-3.75 l -0.152343,-0.210938 c -1.324219,0.902344 -1.910157,2.332032 -1.910157,3.949219 0,1.628906 0.585938,3.082031 1.910157,3.960938 z m 3.934571,-2.320313 c -0.410157,0.386719 -0.703125,0.492188 -1.089844,0.492188 -0.503906,0 -1.359375,-0.410156 -1.359375,-1.664063 0,-0.949218 0.515625,-1.441406 1.113281,-1.441406 0.316406,0 0.632813,0.117188 0.902344,0.375 0.08203,0.07031 0.117187,0.09375 0.164062,0.09375 0.105469,0 0.304688,-0.199219 0.304688,-0.386719 0,-0.105468 -0.03516,-0.175781 -0.152344,-0.28125 -0.140625,-0.117187 -0.433594,-0.234375 -0.796875,-0.234375 -0.351562,0 -0.890625,0.140625 -1.359375,0.503907 -0.597656,0.46875 -0.902344,1.078125 -0.902344,1.769531 0,0.960937 0.667969,1.875 1.804688,1.875 0.527344,0 1.136719,-0.398438 1.523437,-0.914063 z m 0.700195,-5.179687 c 0.890625,0.738281 1.417969,2.203125 1.417969,3.75 0,1.546875 -0.503906,2.988281 -1.417969,3.75 l 0.164063,0.199219 c 1.347656,-0.914063 1.898437,-2.332032 1.898437,-3.949219 0,-1.628906 -0.550781,-3.058594 -1.898437,-3.960938 z M 84.753683,-29.471369 c -0.890625,-0.761718 -1.40625,-2.203125 -1.40625,-3.75 0,-1.546875 0.515625,-3 1.40625,-3.75 l -0.152344,-0.210937 c -1.324219,0.902344 -1.910156,2.332031 -1.910156,3.949219 0,1.628906 0.585937,3.082031 1.910156,3.960937 z m 1.790039,-4.957031 v -2.777344 c -0.339844,0.117188 -0.890625,0.257813 -1.3125,0.316407 v 0.210937 c 0.585937,0.04687 0.597656,0.105469 0.597656,0.667969 v 5.003906 c 0.492188,0.234375 0.949219,0.316406 1.324219,0.316406 1.207031,0 2.261719,-0.9375 2.261719,-2.261718 0,-1.054688 -0.808594,-1.886719 -1.78125,-1.886719 -0.09375,0 -0.222657,0.02344 -0.363282,0.09375 z m 0,0.269531 c 0.164062,-0.105468 0.445312,-0.175781 0.703125,-0.175781 0.738281,0 1.371094,0.597656 1.371094,1.617188 0,1.054687 -0.480469,1.6875 -1.21875,1.6875 -0.480469,-0.01172 -0.75,-0.328125 -0.808594,-0.503907 -0.03516,-0.08203 -0.04687,-0.175781 -0.04687,-0.304687 z m 3.609375,-2.8125 c 0.890625,0.738282 1.417969,2.203125 1.417969,3.75 0,1.546875 -0.503907,2.988282 -1.417969,3.75 l 0.164062,0.199219 c 1.347657,-0.914062 1.898438,-2.332031 1.898438,-3.949219 0,-1.628906 -0.550781,-3.058593 -1.898438,-3.960937 z M 84.662862,94.302069 c -0.890625,-0.761719 -1.40625,-2.203125 -1.40625,-3.75 0,-1.546875 0.515625,-3 1.40625,-3.75 l -0.152343,-0.210938 c -1.324219,0.902344 -1.910157,2.332032 -1.910157,3.949219 0,1.628906 0.585938,3.082031 1.910157,3.960938 z m 5.07129,-1.78125 -0.292969,-0.02344 C 89.113058,92.450506 89.054464,92.41535 89.054464,91.9466 v -5.378906 c -0.339844,0.117187 -0.9375,0.257812 -1.40625,0.316406 v 0.210938 c 0.644531,0.04687 0.691406,0.08203 0.691406,0.667968 v 1.277344 c -0.210937,-0.08203 -0.46875,-0.105469 -0.597656,-0.105469 -1.21875,0 -2.320312,0.984375 -2.320312,2.238282 0,1.253906 0.949218,1.910156 1.664062,1.910156 0.105469,0 0.351563,-0.04687 0.703125,-0.257813 l 0.550781,-0.328125 v 0.585938 c 0.527344,-0.1875 1.195313,-0.304688 1.394532,-0.339844 z M 88.33962,92.216131 c -0.210937,0.164063 -0.539062,0.304688 -0.867187,0.304688 -0.574219,0 -1.230469,-0.527344 -1.230469,-1.59375 0,-1.300781 0.761719,-1.652344 1.171875,-1.652344 0.339844,0 0.714844,0.140625 0.925781,0.457031 z m 1.904297,-5.414062 c 0.890625,0.738281 1.417969,2.203125 1.417969,3.75 0,1.546875 -0.503906,2.988281 -1.417969,3.75 l 0.164063,0.199219 c 1.347656,-0.914063 1.898437,-2.332032 1.898437,-3.949219 0,-1.628906 -0.550781,-3.058594 -1.898437,-3.960938 z m 7.371094,-191.748049 c -0.890625,-0.76172 -1.40625,-2.20312 -1.40625,-3.75 0,-1.54687 0.515625,-3 1.40625,-3.75 l -0.152344,-0.21094 c -1.324219,0.90235 -1.910156,2.33204 -1.910156,3.94922 0,1.62891 0.585937,3.08203 1.910156,3.96094 z m 0,0"
           style="fill:#231f20;fill-opacity:1;fill-rule:nonzero;stroke:none" />
        <path
           id="path84"
           d="m 98.807394,-109.18817 c 0.316406,-0.39843 0.492187,-0.51562 0.574218,-0.51562 0.09375,0 0.175782,0.12891 0.304688,0.57422 l 0.304687,0.9375 c -0.5625,0.83203 -0.984375,1.35937 -1.242187,1.35937 -0.09375,0 -0.164063,-0.0352 -0.210938,-0.0937 -0.04687,-0.0586 -0.09375,-0.0937 -0.140625,-0.0937 -0.175781,0 -0.363281,0.21094 -0.363281,0.42188 -0.01172,0.25781 0.175781,0.43359 0.410156,0.43359 0.421875,0 0.84375,-0.43359 1.640628,-1.69922 l 0.28125,0.87891 c 0.17578,0.5625 0.36328,0.82031 0.59765,0.82031 0.30469,0 0.72657,-0.32812 1.13672,-0.97265 l -0.15234,-0.17579 c -0.28125,0.33985 -0.50391,0.51563 -0.64453,0.51563 -0.15235,0 -0.28125,-0.25781 -0.45703,-0.82031 l -0.29297,-0.90235 c 0.19922,-0.28125 0.39843,-0.52734 0.58593,-0.73828 0.23438,-0.29297 0.41016,-0.44531 0.53907,-0.44531 0.082,0 0.15234,0.0352 0.21093,0.10547 0.0469,0.0469 0.082,0.0703 0.12891,0.0703 0.14063,0 0.33984,-0.17578 0.35156,-0.39844 0,-0.19922 -0.14062,-0.38672 -0.375,-0.38672 -0.39843,0 -0.78515,0.38672 -1.53515,1.47657 l -0.15235,-0.49219 c -0.22265,-0.64453 -0.33984,-0.98438 -0.585934,-0.98438 -0.292969,0 -0.691406,0.38672 -1.066406,0.9375 z m 0,0"
           style="fill:#231f20;fill-opacity:1;fill-rule:nonzero;stroke:none" />
        <path
           id="path85"
           d="m 104.44411,-109.9909 c -1.34765,0 -1.83984,1.60547 -1.83984,2.91797 0,1.41797 0.48047,2.90625 1.83984,2.90625 1.35938,0 1.82813,-1.59375 1.82813,-2.91797 0,-1.38281 -0.46875,-2.90625 -1.82813,-2.90625 z m 0,0.30469 c 0.8086,0 1.03125,1.32422 1.03125,2.60156 0,1.26563 -0.22265,2.61328 -1.03125,2.61328 -0.77344,0 -1.04297,-1.35937 -1.04297,-2.61328 0,-1.25391 0.22266,-2.60156 1.04297,-2.60156 z m 1.57031,2.25586 c -0.21093,0 -0.43359,0.14062 -0.43359,0.36328 0,0.15234 0.0703,0.22265 0.11719,0.23437 0.30469,0.0703 0.5625,0.26953 0.5625,0.59766 0,0.33984 -0.25781,0.57422 -0.69141,0.76172 l 0.0937,0.25781 c 0.55078,-0.16406 1.1836,-0.55078 1.1836,-1.24219 0,-0.63281 -0.50391,-0.97265 -0.83204,-0.97265 z m 0,0"
           style="fill:#231f20;fill-opacity:1;fill-rule:nonzero;stroke:none" />
        <path
           id="path86"
           d="m 111.4197,-106.94988 c -0.0586,-0.8086 -0.11719,-1.62891 -0.21094,-2.3086 -0.0703,-0.71484 -0.21094,-1.05469 -0.45703,-1.05469 -0.32813,0 -0.77344,0.51563 -1.06641,0.96094 l 0.15235,0.21094 c 0.22265,-0.31641 0.45703,-0.52734 0.52734,-0.52734 0.0703,0 0.11719,0.11718 0.1875,0.5625 0.12891,0.82031 0.26953,2.22656 0.28125,2.92968 -0.44531,0.59766 -1.16016,1.39453 -2.12109,2.01563 l 0.0703,0.19922 0.9375,-0.23438 c 0.50391,-0.5625 1.08984,-1.35937 1.61719,-2.12109 0.48047,-0.66797 1.24218,-1.86328 1.6289,-2.54297 0.23438,-0.39844 0.32813,-0.70313 0.31641,-0.96094 0,-0.29297 -0.15234,-0.49219 -0.35156,-0.49219 -0.15235,0 -0.31641,0.10547 -0.375,0.2461 -0.0352,0.0703 -0.0469,0.16406 -0.0117,0.22265 0.0351,0.10547 0.0937,0.2461 0.0937,0.42188 0.0117,0.65625 -0.82031,1.88672 -1.20703,2.47266 z m 0,0"
           style="fill:#231f20;fill-opacity:1;fill-rule:nonzero;stroke:none" />
        <path
           id="path87"
           d="m 115.39821,-109.9909 c -1.34765,0 -1.83984,1.60547 -1.83984,2.91797 0,1.41797 0.48047,2.90625 1.83984,2.90625 1.35938,0 1.82813,-1.59375 1.82813,-2.91797 0,-1.38281 -0.46875,-2.90625 -1.82813,-2.90625 z m 0,0.30469 c 0.8086,0 1.03125,1.32422 1.03125,2.60156 0,1.26563 -0.22265,2.61328 -1.03125,2.61328 -0.77343,0 -1.04296,-1.35937 -1.04296,-2.61328 0,-1.25391 0.22265,-2.60156 1.04296,-2.60156 z m 1.13379,-2.75977 c 0.89063,0.73828 1.41797,2.20313 1.41797,3.75 0,1.54688 -0.5039,2.98828 -1.41797,3.75 l 0.16407,0.19922 c 1.34765,-0.91406 1.89843,-2.33203 1.89843,-3.94922 0,-1.6289 -0.55078,-3.05859 -1.89843,-3.96094 z M 137.42067,1.3225766 c -0.89062,-0.76171879 -1.40625,-2.20312504 -1.40625,-3.75 0,-1.546875 0.51563,-3 1.40625,-3.75 l -0.15234,-0.2109375 c -1.32422,0.9023437 -1.91016,2.3320312 -1.91016,3.9492187 0,1.62890626 0.58594,3.08203126 1.91016,3.9609375 z m 0,0"
           style="fill:#231f20;fill-opacity:1;fill-rule:nonzero;stroke:none" />
        <path
           id="path88"
           d="m 138.61306,-2.9196109 c 0.3164,-0.3984375 0.49219,-0.515625 0.57422,-0.515625 0.0937,0 0.17578,0.1289062 0.30468,0.5742187 l 0.30469,0.9375 c -0.5625,0.8320313 -0.98437,1.35937501 -1.24219,1.35937501 -0.0937,0 -0.16406,-0.0351563 -0.21093,-0.09375 -0.0469,-0.0585938 -0.0937,-0.09375 -0.14063,-0.09375 -0.17578,0 -0.36328,0.2109375 -0.36328,0.421875 -0.0117,0.2578125 0.17578,0.43359375 0.41016,0.43359375 0.42187,0 0.84375,-0.43359375 1.64062,-1.69921876 l 0.28125,0.87890626 c 0.17578,0.5625 0.36328,0.8203125 0.59766,0.8203125 0.30469,0 0.72656,-0.328125 1.13672,-0.97265625 l -0.15235,-0.17578121 c -0.28125,0.33984371 -0.5039,0.51562496 -0.64453,0.51562496 -0.15234,0 -0.28125,-0.2578125 -0.45703,-0.82031246 l -0.29297,-0.9023438 c 0.19922,-0.28125 0.39844,-0.5273437 0.58594,-0.7382812 0.23437,-0.2929688 0.41016,-0.4453125 0.53906,-0.4453125 0.082,0 0.15235,0.035156 0.21094,0.1054687 0.0469,0.046875 0.082,0.070312 0.12891,0.070312 0.14062,0 0.33984,-0.1757812 0.35156,-0.3984375 0,-0.1992187 -0.14063,-0.3867187 -0.375,-0.3867187 -0.39844,0 -0.78516,0.3867187 -1.53516,1.4765625 l -0.15234,-0.4921875 c -0.22266,-0.6445313 -0.33985,-0.984375 -0.58594,-0.984375 -0.29297,0 -0.69141,0.3867187 -1.06641,0.9375 z m 0,0"
           style="fill:#231f20;fill-opacity:1;fill-rule:nonzero;stroke:none" />
        <path
           id="path89"
           d="M 145.55349,1.9993344 V 1.7532406 c -0.82032,-0.058594 -0.87891,-0.1289062 -0.87891,-0.78515622 V -3.7194156 c -0.49219,0.1992187 -1.01953,0.375 -1.59375,0.46875 v 0.2109375 l 0.43359,0.011719 c 0.38672,0.023437 0.42188,0.070312 0.42188,0.5390625 v 3.45703128 c 0,0.65625002 -0.0352,0.72656252 -0.85547,0.78515622 v 0.2460938 z m 0.2666,-3.1611328 c -0.21094,0 -0.43359,0.140625 -0.43359,0.36328121 0,0.15234375 0.0703,0.22265625 0.11718,0.234375 0.30469,0.0703125 0.5625,0.26953125 0.5625,0.59765625 0,0.33984375 -0.25781,0.57421875 -0.6914,0.76171875 l 0.0937,0.25781249 c 0.55078,-0.16406249 1.18359,-0.55078124 1.18359,-1.24218749 0,-0.6328125 -0.50391,-0.97265621 -0.83203,-0.97265621 z m 0,0"
           style="fill:#231f20;fill-opacity:1;fill-rule:nonzero;stroke:none" />
        <path
           id="path90"
           d="m 151.22536,-0.68132969 c -0.0586,-0.80859371 -0.11719,-1.62890621 -0.21094,-2.30859371 -0.0703,-0.7148438 -0.21093,-1.0546875 -0.45703,-1.0546875 -0.32812,0 -0.77343,0.515625 -1.0664,0.9609375 l 0.15234,0.2109375 c 0.22266,-0.3164063 0.45703,-0.5273438 0.52734,-0.5273438 0.0703,0 0.11719,0.1171875 0.1875,0.5625 0.12891,0.8203125 0.26954,2.22656251 0.28125,2.92968751 -0.44531,0.59765625 -1.16015,1.39453129 -2.12109,2.01562499 l 0.0703,0.1992188 0.9375,-0.234375 c 0.50391,-0.5625 1.08985,-1.35937504 1.61719,-2.12109379 0.48047,-0.66796875 1.24219,-1.86328121 1.62891,-2.54296871 0.23437,-0.3984375 0.32812,-0.703125 0.3164,-0.9609375 0,-0.2929688 -0.15234,-0.4921875 -0.35156,-0.4921875 -0.15234,0 -0.31641,0.1054687 -0.375,0.2460937 -0.0352,0.070312 -0.0469,0.1640625 -0.0117,0.2226563 0.0352,0.1054687 0.0937,0.2460937 0.0937,0.421875 0.0117,0.65625 -0.82031,1.8867187 -1.20703,2.47265621 z m 0,0"
           style="fill:#231f20;fill-opacity:1;fill-rule:nonzero;stroke:none" />
        <path
           id="path91"
           d="M 156.50466,1.9993344 V 1.7532406 c -0.82031,-0.058594 -0.87891,-0.1289062 -0.87891,-0.78515622 V -3.7194156 c -0.49218,0.1992187 -1.01953,0.375 -1.59375,0.46875 v 0.2109375 l 0.4336,0.011719 c 0.38672,0.023437 0.42187,0.070312 0.42187,0.5390625 v 3.45703128 c 0,0.65625002 -0.0352,0.72656252 -0.85547,0.78515622 v 0.2460938 z m -0.16699,-8.1767578 c 0.89062,0.7382812 1.41797,2.203125 1.41797,3.75 0,1.54687496 -0.50391,2.98828121 -1.41797,3.75 l 0.16406,0.1992187 c 1.34766,-0.91406249 1.89844,-2.33203124 1.89844,-3.9492187 0,-1.6289063 -0.55078,-3.0585938 -1.89844,-3.9609375 z M 97.615011,20.052069 c -0.890625,-0.761719 -1.40625,-2.203125 -1.40625,-3.75 0,-1.546875 0.515625,-3 1.40625,-3.75 l -0.152344,-0.210938 c -1.324219,0.902344 -1.910156,2.332032 -1.910156,3.949219 0,1.628906 0.585937,3.082031 1.910156,3.960938 z m 0,0"
           style="fill:#231f20;fill-opacity:1;fill-rule:nonzero;stroke:none" />
        <path
           id="path92"
           d="m 98.807394,15.809881 c 0.316406,-0.398437 0.492187,-0.515625 0.574218,-0.515625 0.09375,0 0.175782,0.128907 0.304688,0.574219 l 0.304687,0.9375 c -0.5625,0.832031 -0.984375,1.359375 -1.242187,1.359375 -0.09375,0 -0.164063,-0.03516 -0.210938,-0.09375 -0.04687,-0.05859 -0.09375,-0.09375 -0.140625,-0.09375 -0.175781,0 -0.363281,0.210938 -0.363281,0.421875 -0.01172,0.257813 0.175781,0.433594 0.410156,0.433594 0.421875,0 0.84375,-0.433594 1.640628,-1.699219 l 0.28125,0.878906 c 0.17578,0.5625 0.36328,0.820313 0.59765,0.820313 0.30469,0 0.72657,-0.328125 1.13672,-0.972656 l -0.15234,-0.175782 c -0.28125,0.339844 -0.50391,0.515625 -0.64453,0.515625 -0.15235,0 -0.28125,-0.257812 -0.45703,-0.820312 l -0.29297,-0.902344 c 0.19922,-0.28125 0.39843,-0.527344 0.58593,-0.738281 0.23438,-0.292969 0.41016,-0.445313 0.53907,-0.445313 0.082,0 0.15234,0.03516 0.21093,0.105469 0.0469,0.04687 0.082,0.07031 0.12891,0.07031 0.14063,0 0.33984,-0.175782 0.35156,-0.398438 0,-0.199219 -0.14062,-0.386719 -0.375,-0.386719 -0.39843,0 -0.78515,0.386719 -1.53515,1.476563 l -0.15235,-0.492188 c -0.22265,-0.644531 -0.33984,-0.984375 -0.585934,-0.984375 -0.292969,0 -0.691406,0.386719 -1.066406,0.9375 z m 0,0"
           style="fill:#231f20;fill-opacity:1;fill-rule:nonzero;stroke:none" />
        <path
           id="path93"
           d="m 104.44411,15.010077 c -1.34765,0 -1.83984,1.605468 -1.83984,2.917968 0,1.417969 0.48047,2.90625 1.83984,2.90625 1.35938,0 1.82813,-1.59375 1.82813,-2.917968 0,-1.382813 -0.46875,-2.90625 -1.82813,-2.90625 z m 0,0.304687 c 0.8086,0 1.03125,1.324219 1.03125,2.601563 0,1.265625 -0.22265,2.613281 -1.03125,2.613281 -0.77344,0 -1.04297,-1.359375 -1.04297,-2.613281 0,-1.253907 0.22266,-2.601563 1.04297,-2.601563 z m 1.57031,2.25293 c -0.21093,0 -0.43359,0.140625 -0.43359,0.363281 0,0.152344 0.0703,0.222656 0.11719,0.234375 0.30469,0.07031 0.5625,0.269531 0.5625,0.597656 0,0.339844 -0.25781,0.574219 -0.69141,0.761719 l 0.0937,0.257813 c 0.55078,-0.164063 1.1836,-0.550782 1.1836,-1.242188 0,-0.632812 -0.50391,-0.972656 -0.83204,-0.972656 z m 0,0"
           style="fill:#231f20;fill-opacity:1;fill-rule:nonzero;stroke:none" />
        <path
           id="path94"
           d="m 111.4197,18.048163 c -0.0586,-0.808594 -0.11719,-1.628907 -0.21094,-2.308594 -0.0703,-0.714844 -0.21094,-1.054688 -0.45703,-1.054688 -0.32813,0 -0.77344,0.515625 -1.06641,0.960938 l 0.15235,0.210937 c 0.22265,-0.316406 0.45703,-0.527343 0.52734,-0.527343 0.0703,0 0.11719,0.117187 0.1875,0.5625 0.12891,0.820312 0.26953,2.226562 0.28125,2.929687 -0.44531,0.597656 -1.16016,1.394531 -2.12109,2.015625 l 0.0703,0.199219 0.9375,-0.234375 c 0.50391,-0.5625 1.08984,-1.359375 1.61719,-2.121094 0.48047,-0.667969 1.24218,-1.863281 1.6289,-2.542969 0.23438,-0.398437 0.32813,-0.703125 0.31641,-0.960937 0,-0.292969 -0.15234,-0.492188 -0.35156,-0.492188 -0.15235,0 -0.31641,0.105469 -0.375,0.246094 -0.0352,0.07031 -0.0469,0.164063 -0.0117,0.222656 0.0351,0.105469 0.0937,0.246094 0.0937,0.421875 0.0117,0.65625 -0.82031,1.886719 -1.20703,2.472657 z m 0,0"
           style="fill:#231f20;fill-opacity:1;fill-rule:nonzero;stroke:none" />
        <path
           id="path95"
           d="m 115.39821,15.010077 c -1.34765,0 -1.83984,1.605468 -1.83984,2.917968 0,1.417969 0.48047,2.90625 1.83984,2.90625 1.35938,0 1.82813,-1.59375 1.82813,-2.917968 0,-1.382813 -0.46875,-2.90625 -1.82813,-2.90625 z m 0,0.304687 c 0.8086,0 1.03125,1.324219 1.03125,2.601563 0,1.265625 -0.22265,2.613281 -1.03125,2.613281 -0.77343,0 -1.04296,-1.359375 -1.04296,-2.613281 0,-1.253907 0.22265,-2.601563 1.04296,-2.601563 z m 1.13379,-2.762695 c 0.89063,0.738281 1.41797,2.203125 1.41797,3.75 0,1.546875 -0.5039,2.988281 -1.41797,3.75 l 0.16407,0.199219 c 1.34765,-0.914063 1.89843,-2.332032 1.89843,-3.949219 0,-1.628906 -0.55078,-3.058594 -1.89843,-3.960938 z M -38.111552,-104.94598 c -0.890625,-0.76172 -1.40625,-2.20312 -1.40625,-3.75 0,-1.54687 0.515625,-3 1.40625,-3.75 l -0.152343,-0.21094 c -1.324219,0.90235 -1.910157,2.33204 -1.910157,3.94922 0,1.62891 0.585938,3.08203 1.910157,3.96094 z m 0,0"
           style="fill:#231f20;fill-opacity:1;fill-rule:nonzero;stroke:none" />
        <path
           id="path96"
           d="m -36.919169,-109.18817 c 0.316406,-0.39843 0.492188,-0.51562 0.574219,-0.51562 0.09375,0 0.175781,0.12891 0.304687,0.57422 l 0.304688,0.9375 c -0.5625,0.83203 -0.984375,1.35937 -1.242188,1.35937 -0.09375,0 -0.164062,-0.0352 -0.210937,-0.0937 -0.04687,-0.0586 -0.09375,-0.0937 -0.140625,-0.0937 -0.175781,0 -0.363281,0.21094 -0.363281,0.42188 -0.01172,0.25781 0.175781,0.43359 0.410156,0.43359 0.421875,0 0.84375,-0.43359 1.640625,-1.69922 l 0.28125,0.87891 c 0.175781,0.5625 0.363281,0.82031 0.597656,0.82031 0.304688,0 0.726563,-0.32812 1.136719,-0.97265 l -0.152344,-0.17579 c -0.28125,0.33985 -0.503906,0.51563 -0.644531,0.51563 -0.152344,0 -0.28125,-0.25781 -0.457031,-0.82031 l -0.292969,-0.90235 c 0.199219,-0.28125 0.398437,-0.52734 0.585937,-0.73828 0.234375,-0.29297 0.410157,-0.44531 0.539063,-0.44531 0.08203,0 0.152344,0.0352 0.210937,0.10547 0.04687,0.0469 0.08203,0.0703 0.128907,0.0703 0.140625,0 0.339843,-0.17578 0.351562,-0.39844 0,-0.19922 -0.140625,-0.38672 -0.375,-0.38672 -0.398437,0 -0.785156,0.38672 -1.535156,1.47657 l -0.152344,-0.49219 c -0.222656,-0.64453 -0.339844,-0.98438 -0.585937,-0.98438 -0.292969,0 -0.691407,0.38672 -1.066407,0.9375 z m 0,0"
           style="fill:#231f20;fill-opacity:1;fill-rule:nonzero;stroke:none" />
        <path
           id="path97"
           d="m -31.27952,-109.9909 c -1.347657,0 -1.839844,1.60547 -1.839844,2.91797 0,1.41797 0.480469,2.90625 1.839844,2.90625 1.359375,0 1.828125,-1.59375 1.828125,-2.91797 0,-1.38281 -0.46875,-2.90625 -1.828125,-2.90625 z m 0,0.30469 c 0.808593,0 1.03125,1.32422 1.03125,2.60156 0,1.26563 -0.222657,2.61328 -1.03125,2.61328 -0.773438,0 -1.042969,-1.35937 -1.042969,-2.61328 0,-1.25391 0.222656,-2.60156 1.042969,-2.60156 z m 1.570312,2.25586 c -0.210937,0 -0.433594,0.14062 -0.433594,0.36328 0,0.15234 0.07031,0.22265 0.117188,0.23437 0.304687,0.0703 0.5625,0.26953 0.5625,0.59766 0,0.33984 -0.257813,0.57422 -0.691406,0.76172 l 0.09375,0.25781 c 0.550781,-0.16406 1.183593,-0.55078 1.183593,-1.24219 0,-0.63281 -0.503906,-0.97265 -0.832031,-0.97265 z m 0,0"
           style="fill:#231f20;fill-opacity:1;fill-rule:nonzero;stroke:none" />
        <path
           id="path98"
           d="m -24.303934,-106.94988 c -0.05859,-0.8086 -0.117188,-1.62891 -0.210938,-2.3086 -0.07031,-0.71484 -0.210937,-1.05469 -0.457031,-1.05469 -0.328125,0 -0.773438,0.51563 -1.066406,0.96094 l 0.152343,0.21094 c 0.222657,-0.31641 0.457032,-0.52734 0.527344,-0.52734 0.07031,0 0.117188,0.11718 0.1875,0.5625 0.128906,0.82031 0.269531,2.22656 0.28125,2.92968 -0.445312,0.59766 -1.160156,1.39453 -2.121094,2.01563 l 0.07031,0.19922 0.9375,-0.23438 c 0.503906,-0.5625 1.089844,-1.35937 1.617187,-2.12109 0.480469,-0.66797 1.242188,-1.86328 1.628907,-2.54297 0.234375,-0.39844 0.328125,-0.70313 0.316406,-0.96094 0,-0.29297 -0.152344,-0.49219 -0.351563,-0.49219 -0.152343,0 -0.316406,0.10547 -0.375,0.2461 -0.03516,0.0703 -0.04687,0.16406 -0.01172,0.22265 0.03516,0.10547 0.09375,0.2461 0.09375,0.42188 0.01172,0.65625 -0.820313,1.88672 -1.207032,2.47266 z m 0,0"
           style="fill:#231f20;fill-opacity:1;fill-rule:nonzero;stroke:none" />
        <path
           id="path99"
           d="m -20.325419,-109.9909 c -1.347656,0 -1.839844,1.60547 -1.839844,2.91797 0,1.41797 0.480469,2.90625 1.839844,2.90625 1.359375,0 1.828125,-1.59375 1.828125,-2.91797 0,-1.38281 -0.46875,-2.90625 -1.828125,-2.90625 z m 0,0.30469 c 0.808594,0 1.03125,1.32422 1.03125,2.60156 0,1.26563 -0.222656,2.61328 -1.03125,2.61328 -0.773437,0 -1.042969,-1.35937 -1.042969,-2.61328 0,-1.25391 0.222657,-2.60156 1.042969,-2.60156 z m 1.133789,-2.75977 c 0.890625,0.73828 1.417969,2.20313 1.417969,3.75 0,1.54688 -0.503906,2.98828 -1.417969,3.75 l 0.164063,0.19922 c 1.347656,-0.91406 1.898437,-2.33203 1.898437,-3.94922 0,-1.6289 -0.550781,-3.05859 -1.898437,-3.96094 z m 0,0"
           style="fill:#231f20;fill-opacity:1;fill-rule:nonzero;stroke:none" />
      </g>
    </g>
  </g>
</svg>
