<?xml version="1.0" encoding="UTF-8" standalone="no"?>
<!-- Created with Inkscape (http://www.inkscape.org/) -->

<svg
   version="1.1"
   id="svg1"
   width="299.38666"
   height="179.54668"
   viewBox="0 0 299.38666 179.54668"
   sodipodi:docname="phaaaf04.eps"
   xmlns:inkscape="http://www.inkscape.org/namespaces/inkscape"
   xmlns:sodipodi="http://sodipodi.sourceforge.net/DTD/sodipodi-0.dtd"
   xmlns="http://www.w3.org/2000/svg"
   xmlns:svg="http://www.w3.org/2000/svg">
  <defs
     id="defs1" />
  <sodipodi:namedview
     id="namedview1"
     pagecolor="#ffffff"
     bordercolor="#000000"
     borderopacity="0.25"
     inkscape:showpageshadow="2"
     inkscape:pageopacity="0.0"
     inkscape:pagecheckerboard="0"
     inkscape:deskcolor="#d1d1d1">
    <inkscape:page
       x="0"
       y="0"
       inkscape:label="1"
       id="page1"
       width="299.38666"
       height="179.54668"
       margin="0"
       bleed="0" />
  </sodipodi:namedview>
  <g
     id="g1"
     inkscape:groupmode="layer"
     inkscape:label="1">
    <g
       id="group-R5">
      <path
         id="path2"
         d="m 45,167.441 0.5859,0.098 0.5586,0.063 1.1602,0.16 2.2851,0.328 4.6094,0.629 9.1602,1.383 18.3594,2.886 0.6328,0.09 0.6172,0.113 1.2578,0.2 2.4843,0.461 4.9571,0.839 9.941,1.758 19.946,3.86 0.547,0.121 4.089,0.82 4.629,0.988 9.278,2.012 18.593,4.34 0.586,0.16 0.547,0.141 1.133,0.289 2.285,0.55 4.571,1.192 9.113,2.379 18.211,5.14 1.218,0.34 1.262,0.379 2.442,0.731 4.968,1.519 9.868,3.121 19.773,6.739 0.559,0.21 0.586,0.231 1.167,0.41 6.915,2.539 9.218,3.531 18.45,7.59 0.605,0.258 0.645,0.262 1.25,0.558 2.48,1.082 4.988,2.219 10.012,4.61 19.98,9.921 4.915,2.571 4.902,2.609 9.805,5.5 19.625,11.66 36.632,24.828 39.676,31.871 37.063,34.989 36.328,39.679 39.426,49.59 36.793,52.52 39.855,63.691 39.172,68.75 36.492,68.516 39.609,77.129 36.922,72.058 40.039,74.571 0.657,1.066 0.617,1.082 1.211,2.188 2.449,4.316 4.91,8.574 9.836,16.672 19.648,31.465 0.567,0.84 0.586,0.879 1.133,1.738 2.304,3.418 4.59,6.739 9.16,12.95 0.586,0.76 0.574,0.8 1.145,1.53 2.285,3.07 4.57,5.99 9.192,11.35 1.226,1.45 1.25,1.46 2.485,2.87 4.961,5.51 0.64,0.67 0.618,0.68 1.25,1.31 2.48,2.6 4.961,4.98 0.613,0.59 0.649,0.62 1.218,1.15 2.481,2.3 4.988,4.42 9.926,7.9 0.586,0.44 1.734,1.23 2.348,1.6 4.637,3.01 0.554,0.35 1.75,1.05 2.332,1.34 4.641,2.45 0.574,0.27 0.559,0.29 1.18,0.55 2.902,1.31 0.566,0.24 3.504,1.4 1.164,0.41 1.145,0.4 2.332,0.76 0.578,0.21 0.586,0.18 1.133,0.31 2.332,0.62 0.554,0.14 0.586,0.15 1.133,0.26 0.551,0.12 0.601,0.12 1.133,0.22 0.547,0.12 0.586,0.1 1.152,0.19 0.547,0.1 0.586,0.06 1.137,0.16 0.555,0.07 0.578,0.08 0.554,0.06 0.586,0.06 0.547,0.06 0.586,0.03 0.547,0.05 0.606,0.04 0.546,0.03 0.586,0.02 0.547,0.02 0.586,0.03 0.559,0.04 h 0.574 l 0.559,0.03 h 1.714 l 0.571,-0.03 h 1.133 l 0.543,-0.04 0.585,-0.03 0.559,-0.02 0.574,-0.02 0.571,-0.07 0.574,-0.02 0.566,-0.06 0.574,-0.03 0.559,-0.07 1.133,-0.13 0.586,-0.06 0.547,-0.06 1.152,-0.17 0.586,-0.1 0.547,-0.08 1.14,-0.21 0.579,-0.09 0.554,-0.1 1.137,-0.25 2.281,-0.49 0.617,-0.17 0.633,-0.15 1.236,-0.32 2.45,-0.74 0.64,-0.17 1.84,-0.62 2.48,-0.87 1.21,-0.47 1.23,-0.48 2.48,-1.06 4.93,-2.3 2.45,-1.28 2.49,-1.35 4.94,-2.98 1.21,-0.76 1.25,-0.81 2.46,-1.67 4.93,-3.56 1.17,-0.87 1.13,-0.91 2.31,-1.83 4.62,-3.85 9.22,-8.47 0.58,-0.55 0.55,-0.59 1.17,-1.13 2.31,-2.34 4.6,-4.85 9.18,-10.35 0.66,-0.73 0.61,-0.76 1.25,-1.5 2.48,-3.02 4.99,-6.24 10,-13.22 19.98,-29.125 0.61,-0.93 0.62,-0.965 1.22,-1.906 2.45,-3.848 4.89,-7.82 9.82,-16.133 19.6,-34.023 36.56,-68.106 39.66,-77.324 37.02,-72.14 36.28,-68.282 39.39,-69.414 36.73,-59.179 39.85,-57.45 37.19,-47.207 36.44,-40.422 39.57,-37.738 36.91,-29.957 0.62,-0.473 0.65,-0.457 1.24,-0.929 2.48,-1.84 5.03,-3.621 9.97,-7 20.02,-13.11 4.89,-3.031 4.91,-2.949 9.85,-5.75 19.63,-10.699 0.55,-0.293 0.58,-0.328 1.15,-0.582 2.29,-1.161 4.59,-2.308 9.16,-4.469 18.3,-8.383 0.63,-0.289 1.85,-0.777 2.51,-1.094 4.96,-2.09 9.92,-4.019 19.87,-7.539 0.59,-0.2 0.56,-0.21 3.49,-1.231 4.61,-1.629 9.27,-3.101 18.56,-5.829 0.57,-0.171 0.59,-0.18 1.13,-0.32 2.24,-0.668 4.55,-1.313 9.11,-2.558 18.17,-4.77 1.23,-0.289 1.24,-0.32 2.46,-0.59 4.94,-1.18 9.86,-2.293 19.73,-4.25 0.55,-0.117 0.59,-0.121 1.13,-0.238 2.3,-0.454 4.6,-0.91 9.21,-1.75 18.42,-3.269 0.64,-0.117 0.64,-0.082 1.28,-0.25 2.56,-0.399 5.15,-0.84 10.27,-1.609 0.63,-0.082 0.65,-0.129 1.28,-0.16 2.57,-0.41 5.13,-0.743 0.65,-0.109 4.49,-0.617 0.63,-0.113 4.51,-0.618"
         style="fill:none;stroke:#3871c1;stroke-width:10;stroke-linecap:butt;stroke-linejoin:miter;stroke-miterlimit:3.25;stroke-dasharray:none;stroke-opacity:1"
         transform="matrix(0.13333333,0,0,-0.13333333,0,179.54667)" />
      <path
         id="path3"
         d="m 45,151.57 0.5859,0.059 0.5586,0.062 1.1602,0.11 2.2851,0.238 4.6094,0.461 9.1602,1.031 0.5859,0.047 0.586,0.094 1.1328,0.117 2.3125,0.289 4.5703,0.551 9.1719,1.172 0.6328,0.078 0.6172,0.101 1.2578,0.168 7.4414,1.063 9.941,1.469 0.649,0.14 0.625,0.078 1.238,0.211 2.481,0.403 5,0.808 9.953,1.75 0.547,0.121 0.586,0.118 1.167,0.203 2.336,0.437 4.629,0.91 9.278,1.891 1.164,0.238 1.179,0.274 2.325,0.476 4.648,1.024 9.277,2.187 0.586,0.153 0.547,0.109 1.133,0.301 2.285,0.539 4.571,1.187 9.113,2.422 0.554,0.16 0.586,0.16 3.418,0.961 4.551,1.309 9.102,2.77 0.617,0.171 0.601,0.2 1.262,0.418 2.442,0.793 4.968,1.589 9.868,3.43 0.64,0.238 0.61,0.192 1.226,0.48 2.484,0.91 4.93,1.821 9.883,3.879 0.559,0.238 1.753,0.699 2.297,0.953 4.618,1.969 9.218,4.078 18.45,8.844 0.605,0.316 0.645,0.321 1.25,0.64 2.48,1.321 4.988,2.628 10.012,5.551 19.98,12.039 0.618,0.383 0.625,0.418 3.672,2.352 4.902,3.238 9.805,6.742 19.625,14.57 0.585,0.418 0.571,0.442 1.133,0.91 2.3,1.82 4.59,3.668 9.121,7.61 18.332,16.203 39.676,39.879 37.063,43.214 36.328,47.918 39.426,57.922 36.793,58.895 39.855,68.008 39.172,69.414 36.492,65.422 39.609,69.511 36.922,61.368 40.039,60.175 0.657,0.84 0.617,0.84 1.211,1.727 2.449,3.378 4.91,6.653 9.836,12.898 1.223,1.582 1.226,1.543 2.485,3.098 4.89,6.035 9.824,11.609 0.567,0.645 0.586,0.676 1.133,1.289 2.304,2.586 4.59,5.011 9.16,9.582 2.305,2.3 2.285,2.26 4.57,4.4 9.192,8.26 0.613,0.55 0.613,0.53 1.25,1.04 2.485,2.07 4.961,4.01 0.64,0.49 0.618,0.47 1.25,0.97 2.48,1.87 4.961,3.54 0.613,0.44 0.649,0.42 1.218,0.85 2.481,1.66 4.988,3.14 9.926,5.6 0.586,0.32 1.734,0.88 2.348,1.13 4.637,2.12 0.554,0.26 0.578,0.26 3.504,1.41 4.641,1.73 0.574,0.19 0.559,0.2 1.18,0.41 2.328,0.72 0.574,0.18 0.566,0.18 3.504,0.96 0.586,0.15 0.578,0.17 1.145,0.26 2.332,0.57 1.164,0.23 1.133,0.22 2.332,0.45 0.554,0.11 0.586,0.09 1.133,0.17 0.551,0.09 0.601,0.08 1.133,0.14 0.547,0.1 0.586,0.06 1.152,0.15 0.547,0.05 0.586,0.06 1.137,0.12 0.555,0.07 0.578,0.02 0.554,0.05 0.586,0.04 0.547,0.02 0.586,0.06 0.547,0.03 0.606,0.03 0.546,0.04 h 0.586 l 0.547,0.02 h 0.586 l 0.559,0.03 h 0.574 l 0.559,0.03 h 1.714 l 0.571,-0.03 h 1.133 l 0.543,-0.03 h 0.585 l 0.559,-0.02 0.574,-0.04 0.571,-0.03 0.574,-0.03 0.566,-0.03 0.574,-0.03 0.559,-0.06 1.133,-0.07 0.586,-0.04 0.547,-0.06 1.152,-0.12 0.586,-0.06 0.547,-0.04 1.14,-0.15 0.579,-0.07 0.554,-0.08 1.137,-0.14 2.281,-0.4 0.617,-0.07 0.633,-0.12 1.236,-0.24 2.45,-0.49 0.64,-0.15 0.6,-0.11 1.24,-0.3 2.48,-0.61 1.21,-0.35 1.23,-0.33 2.48,-0.73 4.93,-1.62 1.23,-0.48 1.22,-0.43 2.49,-0.97 4.94,-2.08 0.59,-0.29 0.62,-0.25 1.25,-0.59 2.46,-1.16 4.93,-2.53 0.58,-0.33 0.59,-0.29 1.13,-0.65 2.31,-1.31 4.62,-2.74 9.22,-6.05 0.58,-0.4 0.55,-0.41 1.17,-0.81 2.31,-1.67 4.6,-3.51 9.18,-7.5 0.66,-0.55 0.61,-0.52 1.25,-1.08 2.48,-2.22 4.99,-4.54 10,-9.73 19.98,-21.707 0.61,-0.731 0.62,-0.695 1.22,-1.426 2.45,-2.918 4.89,-5.93 9.82,-12.371 19.6,-26.476 36.56,-54.969 39.66,-65.762 37.02,-65.019 36.28,-65.012 39.39,-69.902 36.73,-62.95 39.85,-64.168 37.19,-55 36.44,-48.683 39.57,-46.531 36.91,-37.5 0.62,-0.579 0.65,-0.582 1.24,-1.168 2.48,-2.312 5.03,-4.551 9.97,-8.75 20.02,-16.398 0.61,-0.469 0.62,-0.492 1.22,-0.93 2.44,-1.898 4.91,-3.68 9.85,-7.133 19.63,-13.207 0.55,-0.34 0.58,-0.39 1.15,-0.7 2.29,-1.461 4.59,-2.8 9.16,-5.418 18.3,-10.043 0.63,-0.309 1.85,-0.98 7.47,-3.739 9.92,-4.691 0.61,-0.289 0.64,-0.289 1.22,-0.551 2.49,-1.152 4.96,-2.188 9.95,-4.172 0.59,-0.23 0.56,-0.238 3.49,-1.403 4.61,-1.797 9.27,-3.48 2.35,-0.82 2.29,-0.821 4.65,-1.601 9.27,-3.059 0.57,-0.199 0.59,-0.18 1.13,-0.351 2.24,-0.719 4.55,-1.383 9.11,-2.656 0.55,-0.172 0.59,-0.148 1.13,-0.313 2.26,-0.617 4.55,-1.231 9.09,-2.332 0.62,-0.179 1.85,-0.442 2.46,-0.597 4.94,-1.141 9.86,-2.219 0.6,-0.121 0.62,-0.14 1.23,-0.27 2.48,-0.539 4.94,-0.981 9.86,-1.902 0.55,-0.109 0.59,-0.09 1.13,-0.207 2.3,-0.434 4.6,-0.777 9.21,-1.551 1.18,-0.191 1.13,-0.188 6.9,-1.051 9.21,-1.308 5.12,-0.703 5.15,-0.668 10.27,-1.262 0.63,-0.098 0.65,-0.05 8.98,-1.012 0.65,-0.059 0.65,-0.09 1.26,-0.121 2.58,-0.269 0.63,-0.078 1.95,-0.184 0.63,-0.078 1.93,-0.18"
         style="fill:none;stroke:#da1259;stroke-width:10;stroke-linecap:butt;stroke-linejoin:miter;stroke-miterlimit:3.25;stroke-dasharray:none;stroke-opacity:1"
         transform="matrix(0.13333333,0,0,-0.13333333,0,179.54667)" />
      <path
         id="path4"
         d="m 45,111.328 v 30"
         style="fill:none;stroke:#231f20;stroke-width:5;stroke-linecap:butt;stroke-linejoin:miter;stroke-miterlimit:3.25;stroke-dasharray:none;stroke-opacity:1"
         transform="matrix(0.13333333,0,0,-0.13333333,0,179.54667)" />
      <path
         id="path5"
         d="m 356.758,111.328 v 30"
         style="fill:none;stroke:#231f20;stroke-width:5;stroke-linecap:butt;stroke-linejoin:miter;stroke-miterlimit:3.25;stroke-dasharray:none;stroke-opacity:1"
         transform="matrix(0.13333333,0,0,-0.13333333,0,179.54667)" />
      <path
         id="path6"
         d="m 668.547,111.328 v 30"
         style="fill:none;stroke:#231f20;stroke-width:5;stroke-linecap:butt;stroke-linejoin:miter;stroke-miterlimit:3.25;stroke-dasharray:none;stroke-opacity:1"
         transform="matrix(0.13333333,0,0,-0.13333333,0,179.54667)" />
      <path
         id="path7"
         d="m 980.313,111.328 v 30"
         style="fill:none;stroke:#231f20;stroke-width:5;stroke-linecap:butt;stroke-linejoin:miter;stroke-miterlimit:3.25;stroke-dasharray:none;stroke-opacity:1"
         transform="matrix(0.13333333,0,0,-0.13333333,0,179.54667)" />
      <path
         id="path8"
         d="m 1292.06,111.328 v 30"
         style="fill:none;stroke:#231f20;stroke-width:5;stroke-linecap:butt;stroke-linejoin:miter;stroke-miterlimit:3.25;stroke-dasharray:none;stroke-opacity:1"
         transform="matrix(0.13333333,0,0,-0.13333333,0,179.54667)" />
      <path
         id="path9"
         d="m 1603.83,111.328 v 30"
         style="fill:none;stroke:#231f20;stroke-width:5;stroke-linecap:butt;stroke-linejoin:miter;stroke-miterlimit:3.25;stroke-dasharray:none;stroke-opacity:1"
         transform="matrix(0.13333333,0,0,-0.13333333,0,179.54667)" />
      <path
         id="path10"
         d="m 1915.6,111.328 v 30"
         style="fill:none;stroke:#231f20;stroke-width:5;stroke-linecap:butt;stroke-linejoin:miter;stroke-miterlimit:3.25;stroke-dasharray:none;stroke-opacity:1"
         transform="matrix(0.13333333,0,0,-0.13333333,0,179.54667)" />
      <path
         id="path11"
         d="m 950.313,719.383 h 30 M 45,141.328 h 1870.6"
         style="fill:none;stroke:#231f20;stroke-width:5;stroke-linecap:butt;stroke-linejoin:miter;stroke-miterlimit:3.25;stroke-dasharray:none;stroke-opacity:1"
         transform="matrix(0.13333333,0,0,-0.13333333,0,179.54667)" />
      <path
         id="path12"
         d="m 950.313,1297.4 h 30"
         style="fill:none;stroke:#231f20;stroke-width:5;stroke-linecap:butt;stroke-linejoin:miter;stroke-miterlimit:3.25;stroke-dasharray:none;stroke-opacity:1"
         transform="matrix(0.13333333,0,0,-0.13333333,0,179.54667)" />
      <path
         id="path13"
         d="M 980.313,141.328 V 1297.4"
         style="fill:none;stroke:#231f20;stroke-width:5;stroke-linecap:butt;stroke-linejoin:miter;stroke-miterlimit:3.25;stroke-dasharray:none;stroke-opacity:1"
         transform="matrix(0.13333333,0,0,-0.13333333,0,179.54667)" />
      <path
         id="path14"
         d="m 1771.05,919.391 h 120"
         style="fill:none;stroke:#3871c1;stroke-width:10;stroke-linecap:butt;stroke-linejoin:miter;stroke-miterlimit:3.25;stroke-dasharray:none;stroke-opacity:1"
         transform="matrix(0.13333333,0,0,-0.13333333,0,179.54667)" />
      <path
         id="path15"
         d="m 1771.05,799.391 h 120"
         style="fill:none;stroke:#da1259;stroke-width:10;stroke-linecap:butt;stroke-linejoin:miter;stroke-miterlimit:3.25;stroke-dasharray:none;stroke-opacity:1"
         transform="matrix(0.13333333,0,0,-0.13333333,0,179.54667)" />
      <path
         id="path16"
         d="m 4.4526406,-1.4656203 c -0.1289062,0.4101562 -0.3046875,0.70312499 -0.4570312,0.87890624 -0.2109375,0.234375 -0.515625,0.28125 -1.0078125,0.28125 -0.375,0 -0.6796875,-0.0234375 -0.8671875,-0.1171875 -0.1640625,-0.09375 -0.1992188,-0.26953125 -0.1992188,-0.76171874 v -3.5507813 c 0,-0.7617187 0.070312,-0.8085937 0.7851563,-0.8671875 V -5.8484328 H 0.36279688 v 0.2460937 c 0.72656252,0.058594 0.78515622,0.1054688 0.78515622,0.8671875 v 3.5976563 c 0,0.77343749 -0.070312,0.83203124 -0.82031247,0.87890624 V -7.765625e-4 H 4.4057656 C 4.4760781,-0.28202656 4.6752969,-1.1374953 4.7221719,-1.4187453 Z m 2.6982422,-2.578125 c -0.8203125,0 -1.9804687,0.6796875 -1.9804687,2.15625 0,1.00781249 0.7382812,1.99218749 1.9804687,1.99218749 0.890625,0 1.9453125,-0.69140625 1.9453125,-2.14453129 0,-1.1132812 -0.8320312,-2.0039062 -1.9453125,-2.0039062 z m -0.09375,0.3046875 c 0.7851563,0 1.2070313,0.84375 1.2070313,1.8984375 0,1.24218749 -0.4570313,1.65234374 -1.0195313,1.65234374 -0.7382812,0 -1.2304687,-0.84375004 -1.2304687,-1.98046874 0,-1.0195313 0.4804687,-1.5703125 1.0429687,-1.5703125 z m 6.5361332,-0.1992188 c -0.328125,0.046875 -0.785157,0.1054688 -1.230469,0.1171875 -0.257813,-0.140625 -0.550781,-0.2226562 -0.855469,-0.2226562 -0.691406,0 -1.6171874,0.46875 -1.6171874,1.5 0,0.609375 0.3867184,1.03125 0.7968754,1.2070312 -0.152344,0.1757813 -0.433594,0.41015629 -0.7968754,0.53906254 -0.011719,0.09375 0.023437,0.24609375 0.1054688,0.38671875 0.1171876,0.1875 0.3398436,0.38671875 0.6562496,0.4921875 -0.210937,0.1640625 -0.5625,0.4453125 -0.7382809,0.6328125 -0.140625,0.12890625 -0.2226562,0.30468751 -0.2226562,0.50390621 0.011719,0.5039063 0.5625001,1.0898438 1.5585941,1.0898438 1.195312,0 2.25,-0.8671875 2.25,-1.78125001 0,-0.87890625 -0.738282,-1.0546875 -1.289063,-1.0546875 -0.304687,0 -0.621094,0 -0.949219,0 -0.410156,0 -0.5625,-0.1640625 -0.5625,-0.33984375 0,-0.12890625 0.140625,-0.29296874 0.269532,-0.37500004 0.140625,0.023437 0.304687,0.046875 0.457031,0.046875 0.761719,0 1.570312,-0.46875 1.570312,-1.4414062 0,-0.328125 -0.09375,-0.5976563 -0.269531,-0.796875 l 0.515625,0.023437 c 0.140625,-0.082031 0.328125,-0.3164063 0.398438,-0.4570313 z m -2.179688,0.1640625 c 0.515625,0 0.84375,0.5039063 0.84375,1.21875 0,0.7148438 -0.351562,1.0664063 -0.75,1.0664063 -0.503906,0 -0.84375,-0.5039063 -0.84375,-1.2070313 0,-0.703125 0.351563,-1.078125 0.75,-1.078125 z m 0.199219,3.86718754 c 0.375,0 0.632812,0.03515625 0.867187,0.1171875 0.257813,0.1171875 0.410157,0.33984375 0.410157,0.64453125 0,0.56250001 -0.445313,0.99609371 -1.300782,0.99609371 -0.667968,0 -1.183593,-0.3632812 -1.183593,-0.85546871 0,-0.2578125 0.175781,-0.515625 0.410156,-0.703125 0.164062,-0.140625 0.363281,-0.19921875 0.796875,-0.19921875 z M 14.86182,-4.8289016 c 0.257813,0 0.457032,-0.2109375 0.457032,-0.4570312 0,-0.2695313 -0.199219,-0.46875 -0.457032,-0.46875 -0.234375,0 -0.457031,0.1992187 -0.457031,0.46875 0,0.2460937 0.222656,0.4570312 0.457031,0.4570312 z m 1.054688,4.8281250375 V -0.23515156 C 15.33057,-0.29374531 15.271977,-0.34062031 15.271977,-0.94999531 V -4.0554641 c -0.398438,0.1523438 -0.820313,0.2695313 -1.277344,0.3515625 v 0.2109375 c 0.539062,0.09375 0.5625,0.1289063 0.5625,0.6796875 v 1.86328129 c 0,0.609375 -0.05859,0.65625 -0.621094,0.71484375 V -7.765625e-4 Z M 18.939945,-2.9304641 c -0.03516,-0.2226562 -0.128906,-0.75 -0.199218,-0.9609375 -0.1875,-0.070312 -0.433594,-0.1523437 -0.796875,-0.1523437 -0.832032,0 -1.371094,0.5273437 -1.371094,1.1601562 0,0.6914063 0.585937,0.9960938 1.125,1.2421875 0.445312,0.2109375 0.703125,0.421875 0.703125,0.82031254 0,0.375 -0.304688,0.6328125 -0.632813,0.6328125 -0.539062,0 -0.949218,-0.52734375 -1.113281,-1.11328124 l -0.234375,0.035156 c 0,0.32812504 0.08203,0.93750004 0.152344,1.06640629 0.164062,0.140625 0.574219,0.3046875 1.03125,0.3046875 0.726562,0 1.488281,-0.421875 1.488281,-1.24218749 0,-0.6210938 -0.457031,-0.9375 -1.136719,-1.21875 -0.410156,-0.1757813 -0.761718,-0.375 -0.761718,-0.7851563 0,-0.3515625 0.246093,-0.6210937 0.585937,-0.6210937 0.433594,0 0.75,0.3632812 0.925781,0.890625 z m 3.102539,2.60156254 -0.08203,-0.234375 c -0.128906,0.0703125 -0.328125,0.15234375 -0.5625,0.15234375 -0.222656,0 -0.515625,-0.12890625 -0.515625,-0.85546879 v -2.3203125 h 0.960938 c 0.105468,-0.058594 0.128906,-0.2578125 0.05859,-0.3515625 h -1.019531 v -1.2304687 l -0.128906,-0.011719 -0.585938,0.5859375 v 0.65625 h -0.410156 l -0.246094,0.2695313 0.03516,0.082031 h 0.621093 v 2.62500004 c 0,0.703125 0.316407,1.06640625 0.878907,1.06640625 0.08203,0 0.234375,-0.03515625 0.386718,-0.1171875 z m 1.280274,-4.50000004 c 0.257812,0 0.457031,-0.2109375 0.457031,-0.4570312 0,-0.2695313 -0.199219,-0.46875 -0.457031,-0.46875 -0.234375,0 -0.457031,0.1992187 -0.457031,0.46875 0,0.2460937 0.222656,0.4570312 0.457031,0.4570312 z m 1.054687,4.8281250375 V -0.23515156 c -0.585937,-0.0585937 -0.644531,-0.10546875 -0.644531,-0.71484375 V -4.0554641 c -0.398437,0.1523438 -0.820312,0.2695313 -1.277344,0.3515625 v 0.2109375 c 0.539063,0.09375 0.5625,0.1289063 0.5625,0.6796875 v 1.86328129 c 0,0.609375 -0.05859,0.65625 -0.621093,0.71484375 V -7.765625e-4 Z M 28.030766,-0.99687031 c -0.410157,0.38671875 -0.703125,0.4921875 -1.089844,0.4921875 -0.503906,0 -1.359375,-0.41015625 -1.359375,-1.66406249 0,-0.9492188 0.515625,-1.4414063 1.113281,-1.4414063 0.316406,0 0.632813,0.1171875 0.902344,0.375 0.08203,0.070312 0.117187,0.09375 0.164062,0.09375 0.105469,0 0.304688,-0.1992187 0.304688,-0.3867187 0,-0.1054688 -0.03516,-0.1757813 -0.152344,-0.28125 -0.140625,-0.1171875 -0.433594,-0.234375 -0.796875,-0.234375 -0.351562,0 -0.890625,0.140625 -1.359375,0.5039062 -0.597656,0.46875 -0.902344,1.078125 -0.902344,1.7695313 0,0.96093749 0.667969,1.87499999 1.804688,1.87499999 0.527344,0 1.136719,-0.3984375 1.523437,-0.9140625 z M 6.2221719,9.2921922 H 3.9370156 v 0.2460937 c 0.890625,0.070312 0.9492188,0.1171875 0.9492188,0.7734371 v 0.761719 c 0,0.375 -0.1054688,0.480469 -0.2929688,0.585938 -0.1875,0.09375 -0.46875,0.164062 -0.7734375,0.164062 -1.7460937,0 -2.5078125,-1.511719 -2.5078125,-2.8124998 0,-1.6640625 1.0078125,-2.671875 2.390625,-2.671875 0.8554688,0 1.5351563,0.2929687 1.7460938,1.3945312 L 5.7065469,7.6750047 C 5.6362344,7.0890672 5.5893594,6.5851609 5.5659219,6.2804734 5.2729531,6.2101609 4.5815469,6.0109422 3.8315469,6.0109422 c -1.7578125,0 -3.43359377,1.0195312 -3.43359377,3.1054687 0,1.7812501 1.32421877,3.0234371 3.30468747,3.0234371 0.7148438,0 1.453125,-0.199218 2.015625,-0.339843 -0.058594,-0.246094 -0.070312,-0.527344 -0.070312,-0.84375 v -0.761719 c 0,-0.5390626 0.035156,-0.5859376 0.5742188,-0.6562501 z m 4.1162111,2.3554688 -0.09375,-0.234375 c -0.09375,0.05859 -0.222656,0.105469 -0.3281252,0.105469 -0.1523437,0 -0.3164062,-0.140625 -0.3164062,-0.550782 V 9.3039109 c 0,-0.46875 -0.082031,-0.84375 -0.3984375,-1.1015625 C 9.0024453,8.0382859 8.7329141,7.9562547 8.4633828,7.9562547 7.9477578,8.0617234 7.3618203,8.4132859 7.1157266,8.5890672 6.9399453,8.7179734 6.8227578,8.8117234 6.8227578,8.9523484 c 0,0.1992188 0.234375,0.3867188 0.3984375,0.3867188 0.1289063,0 0.2226563,-0.070312 0.2578125,-0.2109375 0.070312,-0.28125 0.1523438,-0.4804688 0.2695313,-0.5976563 0.09375,-0.1054687 0.2226562,-0.1757812 0.4101562,-0.1757812 0.4453125,0 0.75,0.3632812 0.75,1.0195312 V 9.5382859 C 8.7094766,9.6906297 8.0532266,9.9367234 7.5141641,10.112505 c -0.4921875,0.175781 -0.7265625,0.457031 -0.7265625,0.902343 0,0.5625 0.4453125,1.089844 1.078125,1.089844 0.2695312,0 0.703125,-0.328125 1.0664062,-0.574219 0.046875,0.152344 0.09375,0.28125 0.2109375,0.410157 0.1054688,0.08203 0.2929688,0.164062 0.421875,0.164062 z M 8.9086953,11.237505 c -0.1640625,0.164062 -0.4804687,0.316406 -0.7148437,0.328125 -0.28125,0 -0.6445313,-0.222657 -0.6445313,-0.691407 0,-0.328125 0.1992188,-0.492187 0.5507813,-0.65625 0.1875,-0.09375 0.6210937,-0.2812496 0.8085937,-0.3749996 z m 6.1406247,0.316406 -0.257812,-0.01172 c -0.339844,-0.02344 -0.410156,-0.08203 -0.410156,-0.527344 V 8.0031297 c -0.480469,0.09375 -0.949219,0.140625 -1.417969,0.1640625 v 0.1992187 c 0.65625,0.09375 0.703125,0.1289063 0.703125,0.6445313 v 2.0976558 c -0.304688,0.292969 -0.644531,0.433594 -0.972656,0.433594 -0.398438,0 -0.785157,-0.222656 -0.785157,-1.019531 V 9.3156297 c 0,-0.609375 0,-1.03125 0.02344,-1.3125 -0.433594,0.082031 -0.867188,0.140625 -1.289063,0.1640625 v 0.1992187 c 0.515625,0.1054688 0.550782,0.140625 0.550782,0.6328125 v 1.7695316 c 0,0.972656 0.515625,1.335937 1.113281,1.335937 0.246094,0 0.433594,-0.07031 0.691406,-0.222656 0.257813,-0.152344 0.46875,-0.316406 0.667969,-0.46875 v 0.644531 l 0.05859,0.04687 c 0.445312,-0.128906 0.902343,-0.257812 1.324218,-0.316406 z m 2.997071,-2.4843751 c -0.03516,-0.2226562 -0.128907,-0.75 -0.199219,-0.9609375 -0.1875,-0.070312 -0.433594,-0.1523437 -0.796875,-0.1523437 -0.832031,0 -1.371094,0.5273437 -1.371094,1.1601562 0,0.6914063 0.585938,0.9960941 1.125,1.2421871 0.445313,0.210938 0.703125,0.421875 0.703125,0.820313 0,0.375 -0.304687,0.632812 -0.632812,0.632812 -0.539063,0 -0.949219,-0.527343 -1.113282,-1.113281 l -0.234375,0.03516 c 0,0.328125 0.08203,0.9375 0.152344,1.066407 0.164063,0.140625 0.574219,0.304687 1.03125,0.304687 0.726563,0 1.488281,-0.421875 1.488281,-1.242187 0,-0.621094 -0.457031,-0.9375003 -1.136718,-1.2187503 -0.410157,-0.1757813 -0.761719,-0.375 -0.761719,-0.7851563 0,-0.3515625 0.246094,-0.6210937 0.585937,-0.6210937 0.433594,0 0.75,0.3632812 0.925782,0.890625 z m 3.304687,0 c -0.03516,-0.2226562 -0.128906,-0.75 -0.199219,-0.9609375 -0.1875,-0.070312 -0.433593,-0.1523437 -0.796875,-0.1523437 -0.832031,0 -1.371093,0.5273437 -1.371093,1.1601562 0,0.6914063 0.585937,0.9960941 1.125,1.2421871 0.445312,0.210938 0.703125,0.421875 0.703125,0.820313 0,0.375 -0.304688,0.632812 -0.632813,0.632812 -0.539062,0 -0.949219,-0.527343 -1.113281,-1.113281 l -0.234375,0.03516 c 0,0.328125 0.08203,0.9375 0.152344,1.066407 0.164062,0.140625 0.574218,0.304687 1.03125,0.304687 0.726562,0 1.488281,-0.421875 1.488281,-1.242187 0,-0.621094 -0.457031,-0.9375003 -1.136719,-1.2187503 -0.410156,-0.1757813 -0.761719,-0.375 -0.761719,-0.7851563 0,-0.3515625 0.246094,-0.6210937 0.585938,-0.6210937 0.433594,0 0.75,0.3632812 0.925781,0.890625 z m 1.637695,-1.8984375 c 0.257813,0 0.457032,-0.2109375 0.457032,-0.4570312 0,-0.2695313 -0.199219,-0.46875 -0.457032,-0.46875 -0.234375,0 -0.457031,0.1992187 -0.457031,0.46875 0,0.2460937 0.222656,0.4570312 0.457031,0.4570312 z m 1.054688,4.8281246 V 11.764848 C 23.457523,11.706255 23.39893,11.65938 23.39893,11.050005 V 7.9445359 c -0.398438,0.1523438 -0.820313,0.2695313 -1.277344,0.3515625 v 0.2109375 c 0.539062,0.09375 0.5625,0.1289063 0.5625,0.6796875 v 1.8632816 c 0,0.609375 -0.05859,0.65625 -0.621094,0.714843 v 0.234375 z m 4.042969,-0.351562 -0.09375,-0.234375 c -0.09375,0.05859 -0.222657,0.105469 -0.328125,0.105469 -0.152344,0 -0.316407,-0.140625 -0.316407,-0.550782 V 9.3039109 c 0,-0.46875 -0.08203,-0.84375 -0.398437,-1.1015625 -0.199219,-0.1640625 -0.46875,-0.2460937 -0.738281,-0.2460937 -0.515625,0.1054687 -1.101563,0.4570312 -1.347657,0.6328125 -0.175781,0.1289062 -0.292968,0.2226562 -0.292968,0.3632812 0,0.1992188 0.234375,0.3867188 0.398437,0.3867188 0.128906,0 0.222656,-0.070312 0.257813,-0.2109375 0.07031,-0.28125 0.152343,-0.4804688 0.269531,-0.5976563 0.09375,-0.1054687 0.222656,-0.1757812 0.410156,-0.1757812 0.445313,0 0.75,0.3632812 0.75,1.0195312 v 0.1640625 c -0.199219,0.1523438 -0.855469,0.3984375 -1.394531,0.5742191 -0.492188,0.175781 -0.726563,0.457031 -0.726563,0.902343 0,0.5625 0.445313,1.089844 1.078125,1.089844 0.269532,0 0.703125,-0.328125 1.066407,-0.574219 0.04687,0.152344 0.09375,0.28125 0.210937,0.410157 0.105469,0.08203 0.292969,0.164062 0.421875,0.164062 z m -1.429688,-0.410156 c -0.164062,0.164062 -0.480469,0.316406 -0.714844,0.328125 -0.28125,0 -0.644531,-0.222657 -0.644531,-0.691407 0,-0.328125 0.199219,-0.492187 0.550781,-0.65625 0.1875,-0.09375 0.621094,-0.2812496 0.808594,-0.3749996 z m 6.1875,0.761718 v -0.234375 c -0.527344,-0.05859 -0.574219,-0.09375 -0.574219,-0.703125 V 9.3273484 c 0,-0.8789062 -0.445312,-1.3710937 -1.160156,-1.3710937 -0.257812,0 -0.492187,0.1054687 -0.75,0.2695312 -0.222656,0.1523438 -0.421875,0.2929688 -0.597656,0.421875 V 7.9328172 c -0.398438,0.1757812 -0.820313,0.28125 -1.253906,0.3632812 v 0.2109375 c 0.492187,0.09375 0.539062,0.1171875 0.539062,0.6914063 v 1.8632808 c 0,0.597657 -0.04687,0.644532 -0.65625,0.703125 v 0.234375 h 1.957031 v -0.234375 c -0.527343,-0.05859 -0.585937,-0.09375 -0.585937,-0.703125 V 8.9523484 c 0.269531,-0.234375 0.621094,-0.46875 0.984375,-0.46875 0.597656,0 0.820312,0.4101563 0.820312,1.03125 v 1.4999996 c 0,0.621094 -0.07031,0.691407 -0.597656,0.75 v 0.234375 z M -187.26025,84.552934 v -0.46875 h -3.77344 v 0.46875 z m 1.22168,-2.660156 c 0.22266,-0.328125 0.58594,-0.714844 1.07812,-0.714844 0.48047,0 0.85547,0.292969 0.85547,0.855469 0,0.65625 -0.60937,1.007813 -1.42968,1.277344 l 0.0586,0.257812 c 0.14062,-0.04687 0.36328,-0.105468 0.57422,-0.105468 0.51562,0 1.14844,0.339843 1.14844,1.171875 0,0.890625 -0.45704,1.359375 -1.08985,1.359375 -0.51562,0 -0.89062,-0.246094 -1.125,-0.457032 -0.0703,-0.05859 -0.14062,-0.04687 -0.21094,0 -0.082,0.05859 -0.19921,0.175782 -0.21093,0.292969 -0.0117,0.117188 0.0234,0.210938 0.15234,0.328125 0.11719,0.105469 0.48047,0.304688 0.89063,0.304688 0.65625,0 2.36718,-0.667969 2.36718,-2.121094 0,-0.65625 -0.46875,-1.21875 -1.2539,-1.371094 v -0.01172 c 0.25781,-0.1875 0.48047,-0.339843 0.60937,-0.492187 0.17578,-0.164063 0.28125,-0.375 0.28125,-0.632813 0,-0.691406 -0.52734,-1.195312 -1.34765,-1.195312 -0.46875,0 -0.89063,0.234375 -1.13672,0.503906 l -0.39844,0.574219 z m 29.95312,2.660156 v -0.46875 h -3.77343 v 0.46875 z m 4.16602,0.539063 c -0.26953,0.574219 -0.38672,0.609375 -0.86719,0.609375 h -1.6875 l 1.27735,-1.335938 c 0.83203,-0.890625 1.19531,-1.417968 1.19531,-2.203125 0,-0.949218 -0.72656,-1.523437 -1.51172,-1.523437 -0.52734,0 -0.94922,0.234375 -1.21875,0.539062 l -0.51562,0.726563 0.19921,0.175781 c 0.23438,-0.351562 0.60938,-0.832031 1.23047,-0.832031 0.65625,0 1.05469,0.433594 1.05469,1.195312 0,0.773438 -0.5625,1.511719 -1.125,2.179688 -0.44531,0.515625 -0.94922,1.03125 -1.45312,1.523437 v 0.210938 h 3.36328 c 0.10547,-0.410156 0.19922,-0.796875 0.3164,-1.183594 z m 27.01172,-0.539063 v -0.46875 h -3.77344 v 0.46875 z m 3.91699,1.804688 v -0.246094 c -0.82031,-0.05859 -0.8789,-0.128906 -0.8789,-0.785156 v -4.6875 c -0.49219,0.199219 -1.01954,0.375 -1.59375,0.46875 v 0.210937 l 0.43359,0.01172 c 0.38672,0.02344 0.42187,0.07031 0.42187,0.539063 v 3.457031 c 0,0.65625 -0.0352,0.726562 -0.85546,0.785156 v 0.246094 z m 27.536134,-5.71875 c -1.347656,0 -1.839844,1.605469 -1.839844,2.917969 0,1.417968 0.480469,2.90625 1.839844,2.90625 1.359375,0 1.828125,-1.59375 1.828125,-2.917969 0,-1.382813 -0.46875,-2.90625 -1.828125,-2.90625 z m 0,0.304687 c 0.808594,0 1.03125,1.324219 1.03125,2.601563 0,1.265625 -0.222656,2.613281 -1.03125,2.613281 -0.773437,0 -1.042969,-1.359375 -1.042969,-2.613281 0,-1.253906 0.222657,-2.601563 1.042969,-2.601563 z M -60.979,86.357622 v -0.246094 c -0.820312,-0.05859 -0.878906,-0.128906 -0.878906,-0.785156 v -4.6875 c -0.492188,0.199219 -1.019531,0.375 -1.59375,0.46875 v 0.210937 l 0.433594,0.01172 c 0.386718,0.02344 0.421875,0.07031 0.421875,0.539063 v 3.457031 c 0,0.65625 -0.03516,0.726562 -0.855469,0.785156 v 0.246094 z m 31.423828,-1.265625 c -0.269531,0.574219 -0.386719,0.609375 -0.867187,0.609375 h -1.6875 l 1.277343,-1.335938 c 0.832032,-0.890625 1.195313,-1.417968 1.195313,-2.203125 0,-0.949218 -0.726563,-1.523437 -1.511719,-1.523437 -0.527344,0 -0.949219,0.234375 -1.21875,0.539062 l -0.515625,0.726563 0.199219,0.175781 c 0.234375,-0.351562 0.609375,-0.832031 1.230469,-0.832031 0.65625,0 1.054687,0.433594 1.054687,1.195312 0,0.773438 -0.5625,1.511719 -1.125,2.179688 -0.445312,0.515625 -0.949219,1.03125 -1.453125,1.523437 v 0.210938 h 3.363281 c 0.105469,-0.410156 0.199219,-0.796875 0.316407,-1.183594 z m 28.2333986,-3.199219 c 0.2226562,-0.328125 0.58593746,-0.714844 1.07812496,-0.714844 0.48046875,0 0.85546875,0.292969 0.85546875,0.855469 0,0.65625 -0.609375,1.007813 -1.4296875,1.277344 l 0.0585938,0.257812 c 0.140625,-0.04687 0.36328125,-0.105468 0.57421875,-0.105468 0.515625,0 1.1484375,0.339843 1.1484375,1.171875 0,0.890625 -0.45703125,1.359375 -1.08984375,1.359375 -0.515625,0 -0.89062491,-0.246094 -1.12499991,-0.457032 -0.070312,-0.05859 -0.140625,-0.04687 -0.2109375,0 -0.082031,0.05859 -0.1992188,0.175782 -0.2109375,0.292969 -0.011719,0.117188 0.023437,0.210938 0.1523437,0.328125 0.1171875,0.105469 0.4804688,0.304688 0.89062496,0.304688 0.65625,0 2.36718754,-0.667969 2.36718754,-2.121094 0,-0.65625 -0.46875,-1.21875 -1.25390629,-1.371094 v -0.01172 c 0.2578125,-0.1875 0.48046875,-0.339843 0.60937509,-0.492187 0.1757812,-0.164063 0.28125,-0.375 0.28125,-0.632813 0,-0.691406 -0.52734384,-1.195312 -1.34765634,-1.195312 -0.46875,0 -0.890625,0.234375 -1.13671866,0.503906 l -0.3984375,0.574219 z M -110.78076,-43.360152 c -1.34765,0 -1.83984,1.605469 -1.83984,2.917969 0,1.417969 0.48047,2.90625 1.83984,2.90625 1.35938,0 1.82813,-1.59375 1.82813,-2.917969 0,-1.382812 -0.46875,-2.90625 -1.82813,-2.90625 z m 0,0.304688 c 0.8086,0 1.03125,1.324219 1.03125,2.601562 0,1.265625 -0.22265,2.613282 -1.03125,2.613282 -0.77344,0 -1.04297,-1.359375 -1.04297,-2.613282 0,-1.253906 0.22266,-2.601562 1.04297,-2.601562 z m 3.19629,5.519531 c 0.28125,0 0.50391,-0.199219 0.50391,-0.515625 0,-0.292969 -0.22266,-0.515625 -0.50391,-0.515625 -0.29297,0 -0.5039,0.222656 -0.5039,0.515625 0,0.316406 0.21093,0.515625 0.5039,0.515625 z m 2.39063,-5.050781 h 2.09765 l 0.23438,-0.585938 -0.0586,-0.07031 h -2.5664 l -0.35156,2.742187 c 0.21093,-0.08203 0.55078,-0.1875 0.92578,-0.1875 0.98437,0 1.46484,0.574219 1.46484,1.359375 0,0.679688 -0.375,1.335938 -1.13672,1.335938 -0.55078,0 -0.91406,-0.292969 -1.11328,-0.457031 -0.082,-0.07031 -0.15234,-0.05859 -0.23437,0 -0.10547,0.09375 -0.1875,0.210937 -0.1875,0.292968 -0.0234,0.105469 0.0234,0.1875 0.14062,0.304688 0.12891,0.128906 0.51563,0.316406 0.92578,0.316406 0.48047,-0.01172 1.07813,-0.246094 1.57031,-0.632812 0.55079,-0.457032 0.79688,-0.960938 0.79688,-1.511719 0,-0.738281 -0.58594,-1.511719 -1.73438,-1.511719 -0.24609,0 -0.66796,0.140625 -1.00781,0.269531 z m 5.10644,-0.773438 c -1.34765,0 -1.83984,1.605469 -1.83984,2.917969 0,1.417969 0.48047,2.90625 1.83984,2.90625 1.359377,0 1.828127,-1.59375 1.828127,-2.917969 0,-1.382812 -0.46875,-2.90625 -1.828127,-2.90625 z m 0,0.304688 c 0.808595,0 1.031252,1.324219 1.031252,2.601562 0,1.265625 -0.222657,2.613282 -1.031252,2.613282 -0.77344,0 -1.04297,-1.359375 -1.04297,-2.613282 0,-1.253906 0.22266,-2.601562 1.04297,-2.601562 z m -10.69336,57.445312 c -1.34765,0 -1.83984,1.605469 -1.83984,2.917969 0,1.417969 0.48047,2.90625 1.83984,2.90625 1.35938,0 1.82813,-1.59375 1.82813,-2.917969 0,-1.382812 -0.46875,-2.90625 -1.82813,-2.90625 z m 0,0.304688 c 0.8086,0 1.03125,1.324219 1.03125,2.601562 0,1.265625 -0.22265,2.613282 -1.03125,2.613282 -0.77344,0 -1.04297,-1.359375 -1.04297,-2.613282 0,-1.253906 0.22266,-2.601562 1.04297,-2.601562 z m 3.19629,5.519531 c 0.28125,0 0.50391,-0.199219 0.50391,-0.515625 0,-0.292969 -0.22266,-0.515625 -0.50391,-0.515625 -0.29297,0 -0.5039,0.222656 -0.5039,0.515625 0,0.316406 0.21093,0.515625 0.5039,0.515625 z m 4.72266,-1.371094 c -0.26953,0.574219 -0.38672,0.609375 -0.86719,0.609375 h -1.6875 l 1.27734,-1.335937 c 0.83204,-0.890625 1.19532,-1.417969 1.19532,-2.203125 0,-0.949219 -0.72657,-1.523438 -1.51172,-1.523438 -0.52735,0 -0.94922,0.234375 -1.21875,0.539063 l -0.51563,0.726562 0.19922,0.175782 c 0.23438,-0.351563 0.60938,-0.832032 1.23047,-0.832032 0.65625,0 1.05469,0.433594 1.05469,1.195313 0,0.773437 -0.5625,1.511719 -1.125,2.179687 -0.44531,0.515625 -0.94922,1.03125 -1.45313,1.523438 v 0.210937 h 3.36328 c 0.10547,-0.410156 0.19922,-0.796875 0.31641,-1.183593 z m 1.98926,-3.679687 h 2.097652 l 0.234375,-0.585938 -0.05859,-0.07031 h -2.566407 l -0.35157,2.742187 c 0.21094,-0.08203 0.55079,-0.1875 0.92579,-0.1875 0.984374,0 1.464843,0.574219 1.464843,1.359375 0,0.679688 -0.375,1.335938 -1.136723,1.335938 -0.55078,0 -0.91406,-0.292969 -1.11328,-0.457031 -0.082,-0.07031 -0.15234,-0.05859 -0.23438,0 -0.10546,0.09375 -0.1875,0.210937 -0.1875,0.292968 -0.0234,0.105469 0.0234,0.1875 0.14063,0.304688 0.12891,0.128906 0.51562,0.316406 0.92578,0.316406 0.48047,-0.01172 1.078129,-0.246094 1.570317,-0.632812 0.550781,-0.457032 0.796875,-0.960938 0.796875,-1.511719 0,-0.738281 -0.585938,-1.511719 -1.734382,-1.511719 -0.24609,0 -0.66797,0.140625 -1.00781,0.269531 z m 0,0"
         style="fill:#231f20;fill-opacity:1;fill-rule:nonzero;stroke:none"
         aria-label="Logistic&#10;Gaussian&#10;–3–2–10123&#10;0.50&#10;0.25"
         transform="matrix(1.3333333,0,0,1.3333333,255.30533,60.083067)" />
    </g>
  </g>
</svg>
