<?xml version="1.0" encoding="UTF-8" standalone="no"?>
<!-- Created with Inkscape (http://www.inkscape.org/) -->

<svg
   version="1.1"
   id="svg1"
   width="155.89333"
   height="143.62666"
   viewBox="0 0 155.89333 143.62666"
   sodipodi:docname="phaaaf13.eps"
   xmlns:inkscape="http://www.inkscape.org/namespaces/inkscape"
   xmlns:sodipodi="http://sodipodi.sourceforge.net/DTD/sodipodi-0.dtd"
   xmlns="http://www.w3.org/2000/svg"
   xmlns:svg="http://www.w3.org/2000/svg">
  <defs
     id="defs1" />
  <sodipodi:namedview
     id="namedview1"
     pagecolor="#ffffff"
     bordercolor="#000000"
     borderopacity="0.25"
     inkscape:showpageshadow="2"
     inkscape:pageopacity="0.0"
     inkscape:pagecheckerboard="0"
     inkscape:deskcolor="#d1d1d1">
    <inkscape:page
       x="0"
       y="0"
       inkscape:label="1"
       id="page1"
       width="155.89333"
       height="143.62666"
       margin="0"
       bleed="0" />
  </sodipodi:namedview>
  <g
     id="g1"
     inkscape:groupmode="layer"
     inkscape:label="1">
    <g
       id="group-R5">
      <path
         id="path2"
         d="m 2.6953125,1.3255041 c -0.890625,-0.76171879 -1.40625,-2.20312504 -1.40625,-3.75 0,-1.546875 0.515625,-3 1.40625,-3.75 L 2.5429688,-6.3854334 c -1.3242188,0.9023437 -1.9101563,2.3320312 -1.9101563,3.9492187 0,1.62890626 0.5859375,3.08203126 1.9101563,3.9609375 z m 2.5751953,-7.0429688 c -1.3476562,0 -1.8398437,1.6054688 -1.8398437,2.9179688 0,1.4179687 0.4804687,2.90624996 1.8398437,2.90624996 1.359375,0 1.828125,-1.59374996 1.828125,-2.91796876 0,-1.3828125 -0.46875,-2.90625 -1.828125,-2.90625 z m 0,0.3046875 c 0.8085938,0 1.03125,1.3242188 1.03125,2.6015625 0,1.265625 -0.2226562,2.61328126 -1.03125,2.61328126 -0.7734375,0 -1.0429687,-1.35937496 -1.0429687,-2.61328126 0,-1.2539062 0.2226562,-2.6015625 1.0429687,-2.6015625 z m 3.0058594,4.2539063 c -0.2109375,0 -0.4335938,0.140625 -0.4335938,0.36328121 0,0.15234375 0.070312,0.22265625 0.1171875,0.234375 0.3046875,0.0703125 0.5625,0.26953125 0.5625,0.59765625 0,0.33984375 -0.2578125,0.57421875 -0.6914062,0.76171875 l 0.09375,0.25781249 c 0.5507812,-0.16406249 1.1835937,-0.55078124 1.1835937,-1.24218749 0,-0.6328125 -0.5039062,-0.97265621 -0.8320312,-0.97265621 z M 13.68457,-5.7174647 c -1.347656,0 -1.839843,1.6054688 -1.839843,2.9179688 0,1.4179687 0.480468,2.90624996 1.839843,2.90624996 1.359375,0 1.828125,-1.59374996 1.828125,-2.91796876 0,-1.3828125 -0.46875,-2.90625 -1.828125,-2.90625 z m 0,0.3046875 c 0.808594,0 1.03125,1.3242188 1.03125,2.6015625 0,1.265625 -0.222656,2.61328126 -1.03125,2.61328126 -0.773437,0 -1.042968,-1.35937496 -1.042968,-2.61328126 0,-1.2539062 0.222656,-2.6015625 1.042968,-2.6015625 z m 2.575196,-0.7617187 c 0.890625,0.7382812 1.417968,2.203125 1.417968,3.75 0,1.54687496 -0.503906,2.98828121 -1.417968,3.75 l 0.164062,0.1992187 c 1.347656,-0.91406249 1.898438,-2.33203124 1.898438,-3.9492187 0,-1.6289063 -0.550782,-3.0585938 -1.898438,-3.9609375 z m 0,0"
         style="fill:#231f20;fill-opacity:1;fill-rule:nonzero;stroke:none"
         aria-label="(0, 0)"
         transform="matrix(1.3333333,0,0,1.3333333,0,139.30688)" />
      <path
         id="path3"
         d="M 215.469,1052.04 H 1144.09 V 123.43 H 215.469 Z"
         style="fill:none;stroke:#231f20;stroke-width:5;stroke-linecap:butt;stroke-linejoin:miter;stroke-miterlimit:10;stroke-dasharray:none;stroke-opacity:1"
         transform="matrix(0.13333333,0,0,-0.13333333,0,143.62667)" />
      <path
         id="path4"
         d="M 215.469,256.086 H 1144.09"
         style="fill:none;stroke:#231f20;stroke-width:5;stroke-linecap:butt;stroke-linejoin:miter;stroke-miterlimit:10;stroke-dasharray:none;stroke-opacity:1"
         transform="matrix(0.13333333,0,0,-0.13333333,0,143.62667)" />
      <path
         id="path5"
         d="M 215.469,388.746 H 1144.09"
         style="fill:none;stroke:#231f20;stroke-width:5;stroke-linecap:butt;stroke-linejoin:miter;stroke-miterlimit:10;stroke-dasharray:none;stroke-opacity:1"
         transform="matrix(0.13333333,0,0,-0.13333333,0,143.62667)" />
      <path
         id="path6"
         d="M 215.469,521.414 H 1144.09"
         style="fill:none;stroke:#231f20;stroke-width:5;stroke-linecap:butt;stroke-linejoin:miter;stroke-miterlimit:10;stroke-dasharray:none;stroke-opacity:1"
         transform="matrix(0.13333333,0,0,-0.13333333,0,143.62667)" />
      <path
         id="path7"
         d="M 215.469,654.063 H 1144.09"
         style="fill:none;stroke:#231f20;stroke-width:5;stroke-linecap:butt;stroke-linejoin:miter;stroke-miterlimit:10;stroke-dasharray:none;stroke-opacity:1"
         transform="matrix(0.13333333,0,0,-0.13333333,0,143.62667)" />
      <path
         id="path8"
         d="M 215.469,786.719 H 1144.09"
         style="fill:none;stroke:#231f20;stroke-width:5;stroke-linecap:butt;stroke-linejoin:miter;stroke-miterlimit:10;stroke-dasharray:none;stroke-opacity:1"
         transform="matrix(0.13333333,0,0,-0.13333333,0,143.62667)" />
      <path
         id="path9"
         d="M 215.469,919.375 H 1144.09"
         style="fill:none;stroke:#231f20;stroke-width:5;stroke-linecap:butt;stroke-linejoin:miter;stroke-miterlimit:10;stroke-dasharray:none;stroke-opacity:1"
         transform="matrix(0.13333333,0,0,-0.13333333,0,143.62667)" />
      <path
         id="path10"
         d="M 1011.42,1052.04 V 123.43"
         style="fill:none;stroke:#231f20;stroke-width:5;stroke-linecap:butt;stroke-linejoin:miter;stroke-miterlimit:10;stroke-dasharray:none;stroke-opacity:1"
         transform="matrix(0.13333333,0,0,-0.13333333,0,143.62667)" />
      <path
         id="path11"
         d="M 878.762,1052.04 V 123.43"
         style="fill:none;stroke:#231f20;stroke-width:5;stroke-linecap:butt;stroke-linejoin:miter;stroke-miterlimit:10;stroke-dasharray:none;stroke-opacity:1"
         transform="matrix(0.13333333,0,0,-0.13333333,0,143.62667)" />
      <path
         id="path12"
         d="M 746.105,1052.04 V 123.43"
         style="fill:none;stroke:#231f20;stroke-width:5;stroke-linecap:butt;stroke-linejoin:miter;stroke-miterlimit:10;stroke-dasharray:none;stroke-opacity:1"
         transform="matrix(0.13333333,0,0,-0.13333333,0,143.62667)" />
      <path
         id="path13"
         d="M 613.445,1052.04 V 123.43"
         style="fill:none;stroke:#231f20;stroke-width:5;stroke-linecap:butt;stroke-linejoin:miter;stroke-miterlimit:10;stroke-dasharray:none;stroke-opacity:1"
         transform="matrix(0.13333333,0,0,-0.13333333,0,143.62667)" />
      <path
         id="path14"
         d="M 480.781,1052.04 V 123.43"
         style="fill:none;stroke:#231f20;stroke-width:5;stroke-linecap:butt;stroke-linejoin:miter;stroke-miterlimit:10;stroke-dasharray:none;stroke-opacity:1"
         transform="matrix(0.13333333,0,0,-0.13333333,0,143.62667)" />
      <path
         id="path15"
         d="M 348.125,1052.04 V 123.43"
         style="fill:none;stroke:#231f20;stroke-width:5;stroke-linecap:butt;stroke-linejoin:miter;stroke-miterlimit:10;stroke-dasharray:none;stroke-opacity:1"
         transform="matrix(0.13333333,0,0,-0.13333333,0,143.62667)" />
      <path
         id="path16"
         d="m 1036.68,919.375 c 0,-13.855 -11.23,-25.098 -25.11,-25.098 -13.867,0 -25.093,11.243 -25.093,25.098 0,13.879 11.226,25.117 25.093,25.117 13.88,0 25.11,-11.238 25.11,-25.117"
         style="fill:#231f20;fill-opacity:1;fill-rule:nonzero;stroke:none"
         transform="matrix(0.13333333,0,0,-0.13333333,0,143.62667)" />
      <path
         id="path17"
         d="m 904.18,919.375 c 0,-13.855 -11.242,-25.098 -25.117,-25.098 -13.86,0 -25.098,11.243 -25.098,25.098 0,13.879 11.238,25.117 25.098,25.117 13.875,0 25.117,-11.238 25.117,-25.117"
         style="fill:#231f20;fill-opacity:1;fill-rule:nonzero;stroke:none"
         transform="matrix(0.13333333,0,0,-0.13333333,0,143.62667)" />
      <path
         id="path18"
         d="m 771.648,919.375 c 0,-13.855 -11.226,-25.098 -25.093,-25.098 -13.86,0 -25.11,11.243 -25.11,25.098 0,13.879 11.25,25.117 25.11,25.117 13.867,0 25.093,-11.238 25.093,-25.117"
         style="fill:#231f20;fill-opacity:1;fill-rule:nonzero;stroke:none"
         transform="matrix(0.13333333,0,0,-0.13333333,0,143.62667)" />
      <path
         id="path19"
         d="m 639.16,919.375 c 0,-13.855 -11.234,-25.098 -25.105,-25.098 -13.867,0 -25.117,11.243 -25.117,25.098 0,13.879 11.25,25.117 25.117,25.117 13.871,0 25.105,-11.238 25.105,-25.117"
         style="fill:#231f20;fill-opacity:1;fill-rule:nonzero;stroke:none"
         transform="matrix(0.13333333,0,0,-0.13333333,0,143.62667)" />
      <path
         id="path20"
         d="m 506.66,919.375 c 0,-13.855 -11.238,-25.098 -25.117,-25.098 -13.855,0 -25.098,11.243 -25.098,25.098 0,13.879 11.243,25.117 25.098,25.117 13.879,0 25.117,-11.238 25.117,-25.117"
         style="fill:#231f20;fill-opacity:1;fill-rule:nonzero;stroke:none"
         transform="matrix(0.13333333,0,0,-0.13333333,0,143.62667)" />
      <path
         id="path21"
         d="m 374.148,919.375 c 0,-13.855 -11.234,-25.098 -25.109,-25.098 -13.863,0 -25.113,11.243 -25.113,25.098 0,13.879 11.25,25.117 25.113,25.117 13.875,0 25.109,-11.238 25.109,-25.117"
         style="fill:#231f20;fill-opacity:1;fill-rule:nonzero;stroke:none"
         transform="matrix(0.13333333,0,0,-0.13333333,0,143.62667)" />
      <path
         id="path22"
         d="m 1169.19,919.375 c 0,-13.855 -11.24,-25.098 -25.1,-25.098 -13.88,0 -25.12,11.243 -25.12,25.098 0,13.879 11.24,25.117 25.12,25.117 13.86,0 25.1,-11.238 25.1,-25.117"
         style="fill:#231f20;fill-opacity:1;fill-rule:nonzero;stroke:none"
         transform="matrix(0.13333333,0,0,-0.13333333,0,143.62667)" />
      <path
         id="path23"
         d="m 1036.68,786.719 c 0,-13.86 -11.23,-25.106 -25.11,-25.106 -13.867,0 -25.093,11.246 -25.093,25.106 0,13.879 11.226,25.113 25.093,25.113 13.88,0 25.11,-11.234 25.11,-25.113"
         style="fill:#231f20;fill-opacity:1;fill-rule:nonzero;stroke:none"
         transform="matrix(0.13333333,0,0,-0.13333333,0,143.62667)" />
      <path
         id="path24"
         d="m 904.18,786.719 c 0,-13.86 -11.242,-25.106 -25.117,-25.106 -13.86,0 -25.098,11.246 -25.098,25.106 0,13.879 11.238,25.113 25.098,25.113 13.875,0 25.117,-11.234 25.117,-25.113"
         style="fill:#231f20;fill-opacity:1;fill-rule:nonzero;stroke:none"
         transform="matrix(0.13333333,0,0,-0.13333333,0,143.62667)" />
      <path
         id="path25"
         d="m 771.648,786.719 c 0,-13.86 -11.226,-25.106 -25.093,-25.106 -13.86,0 -25.11,11.246 -25.11,25.106 0,13.879 11.25,25.113 25.11,25.113 13.867,0 25.093,-11.234 25.093,-25.113"
         style="fill:#231f20;fill-opacity:1;fill-rule:nonzero;stroke:none"
         transform="matrix(0.13333333,0,0,-0.13333333,0,143.62667)" />
      <path
         id="path26"
         d="m 639.16,786.719 c 0,-13.86 -11.234,-25.106 -25.105,-25.106 -13.867,0 -25.117,11.246 -25.117,25.106 0,13.879 11.25,25.113 25.117,25.113 13.871,0 25.105,-11.234 25.105,-25.113"
         style="fill:#231f20;fill-opacity:1;fill-rule:nonzero;stroke:none"
         transform="matrix(0.13333333,0,0,-0.13333333,0,143.62667)" />
      <path
         id="path27"
         d="m 506.66,786.719 c 0,-13.86 -11.238,-25.106 -25.117,-25.106 -13.855,0 -25.098,11.246 -25.098,25.106 0,13.879 11.243,25.113 25.098,25.113 13.879,0 25.117,-11.234 25.117,-25.113"
         style="fill:#231f20;fill-opacity:1;fill-rule:nonzero;stroke:none"
         transform="matrix(0.13333333,0,0,-0.13333333,0,143.62667)" />
      <path
         id="path28"
         d="m 374.148,786.719 c 0,-13.86 -11.234,-25.106 -25.109,-25.106 -13.863,0 -25.113,11.246 -25.113,25.106 0,13.879 11.25,25.113 25.113,25.113 13.875,0 25.109,-11.234 25.109,-25.113"
         style="fill:#231f20;fill-opacity:1;fill-rule:nonzero;stroke:none"
         transform="matrix(0.13333333,0,0,-0.13333333,0,143.62667)" />
      <path
         id="path29"
         d="m 1169.19,786.719 c 0,-13.86 -11.24,-25.106 -25.1,-25.106 -13.88,0 -25.12,11.246 -25.12,25.106 0,13.879 11.24,25.113 25.12,25.113 13.86,0 25.1,-11.234 25.1,-25.113"
         style="fill:#231f20;fill-opacity:1;fill-rule:nonzero;stroke:none"
         transform="matrix(0.13333333,0,0,-0.13333333,0,143.62667)" />
      <path
         id="path30"
         d="m 1036.68,654.063 c 0,-13.86 -11.23,-25.102 -25.11,-25.102 -13.867,0 -25.093,11.242 -25.093,25.102 0,13.875 11.226,25.113 25.093,25.113 13.88,0 25.11,-11.238 25.11,-25.113"
         style="fill:#231f20;fill-opacity:1;fill-rule:nonzero;stroke:none"
         transform="matrix(0.13333333,0,0,-0.13333333,0,143.62667)" />
      <path
         id="path31"
         d="m 904.18,654.063 c 0,-13.86 -11.242,-25.102 -25.117,-25.102 -13.86,0 -25.098,11.242 -25.098,25.102 0,13.875 11.238,25.113 25.098,25.113 13.875,0 25.117,-11.238 25.117,-25.113"
         style="fill:#231f20;fill-opacity:1;fill-rule:nonzero;stroke:none"
         transform="matrix(0.13333333,0,0,-0.13333333,0,143.62667)" />
      <path
         id="path32"
         d="m 771.648,654.063 c 0,-13.86 -11.226,-25.102 -25.093,-25.102 -13.86,0 -25.11,11.242 -25.11,25.102 0,13.875 11.25,25.113 25.11,25.113 13.867,0 25.093,-11.238 25.093,-25.113"
         style="fill:#231f20;fill-opacity:1;fill-rule:nonzero;stroke:none"
         transform="matrix(0.13333333,0,0,-0.13333333,0,143.62667)" />
      <path
         id="path33"
         d="m 639.16,654.063 c 0,-13.86 -11.234,-25.102 -25.105,-25.102 -13.867,0 -25.117,11.242 -25.117,25.102 0,13.875 11.25,25.113 25.117,25.113 13.871,0 25.105,-11.238 25.105,-25.113"
         style="fill:#231f20;fill-opacity:1;fill-rule:nonzero;stroke:none"
         transform="matrix(0.13333333,0,0,-0.13333333,0,143.62667)" />
      <path
         id="path34"
         d="m 506.66,654.063 c 0,-13.86 -11.238,-25.102 -25.117,-25.102 -13.855,0 -25.098,11.242 -25.098,25.102 0,13.875 11.243,25.113 25.098,25.113 13.879,0 25.117,-11.238 25.117,-25.113"
         style="fill:#231f20;fill-opacity:1;fill-rule:nonzero;stroke:none"
         transform="matrix(0.13333333,0,0,-0.13333333,0,143.62667)" />
      <path
         id="path35"
         d="m 374.148,654.063 c 0,-13.86 -11.234,-25.102 -25.109,-25.102 -13.863,0 -25.113,11.242 -25.113,25.102 0,13.875 11.25,25.113 25.113,25.113 13.875,0 25.109,-11.238 25.109,-25.113"
         style="fill:#231f20;fill-opacity:1;fill-rule:nonzero;stroke:none"
         transform="matrix(0.13333333,0,0,-0.13333333,0,143.62667)" />
      <path
         id="path36"
         d="m 1169.19,654.063 c 0,-13.86 -11.24,-25.102 -25.1,-25.102 -13.88,0 -25.12,11.242 -25.12,25.102 0,13.875 11.24,25.113 25.12,25.113 13.86,0 25.1,-11.238 25.1,-25.113"
         style="fill:#231f20;fill-opacity:1;fill-rule:nonzero;stroke:none"
         transform="matrix(0.13333333,0,0,-0.13333333,0,143.62667)" />
      <path
         id="path37"
         d="m 1036.68,521.414 c 0,-13.879 -11.23,-25.117 -25.11,-25.117 -13.867,0 -25.093,11.238 -25.093,25.117 0,13.867 11.226,25.102 25.093,25.102 13.88,0 25.11,-11.235 25.11,-25.102"
         style="fill:#231f20;fill-opacity:1;fill-rule:nonzero;stroke:none"
         transform="matrix(0.13333333,0,0,-0.13333333,0,143.62667)" />
      <path
         id="path38"
         d="m 904.18,521.414 c 0,-13.879 -11.242,-25.117 -25.117,-25.117 -13.86,0 -25.098,11.238 -25.098,25.117 0,13.867 11.238,25.102 25.098,25.102 13.875,0 25.117,-11.235 25.117,-25.102"
         style="fill:#231f20;fill-opacity:1;fill-rule:nonzero;stroke:none"
         transform="matrix(0.13333333,0,0,-0.13333333,0,143.62667)" />
      <path
         id="path39"
         d="m 771.648,521.414 c 0,-13.879 -11.226,-25.117 -25.093,-25.117 -13.86,0 -25.11,11.238 -25.11,25.117 0,13.867 11.25,25.102 25.11,25.102 13.867,0 25.093,-11.235 25.093,-25.102"
         style="fill:#231f20;fill-opacity:1;fill-rule:nonzero;stroke:none"
         transform="matrix(0.13333333,0,0,-0.13333333,0,143.62667)" />
      <path
         id="path40"
         d="m 639.16,521.414 c 0,-13.879 -11.234,-25.117 -25.105,-25.117 -13.867,0 -25.117,11.238 -25.117,25.117 0,13.867 11.25,25.102 25.117,25.102 13.871,0 25.105,-11.235 25.105,-25.102"
         style="fill:#231f20;fill-opacity:1;fill-rule:nonzero;stroke:none"
         transform="matrix(0.13333333,0,0,-0.13333333,0,143.62667)" />
      <path
         id="path41"
         d="m 506.66,521.414 c 0,-13.879 -11.238,-25.117 -25.117,-25.117 -13.855,0 -25.098,11.238 -25.098,25.117 0,13.867 11.243,25.102 25.098,25.102 13.879,0 25.117,-11.235 25.117,-25.102"
         style="fill:#231f20;fill-opacity:1;fill-rule:nonzero;stroke:none"
         transform="matrix(0.13333333,0,0,-0.13333333,0,143.62667)" />
      <path
         id="path42"
         d="m 374.148,521.414 c 0,-13.879 -11.234,-25.117 -25.109,-25.117 -13.863,0 -25.113,11.238 -25.113,25.117 0,13.867 11.25,25.102 25.113,25.102 13.875,0 25.109,-11.235 25.109,-25.102"
         style="fill:#231f20;fill-opacity:1;fill-rule:nonzero;stroke:none"
         transform="matrix(0.13333333,0,0,-0.13333333,0,143.62667)" />
      <path
         id="path43"
         d="m 1169.19,521.414 c 0,-13.879 -11.24,-25.117 -25.1,-25.117 -13.88,0 -25.12,11.238 -25.12,25.117 0,13.867 11.24,25.102 25.12,25.102 13.86,0 25.1,-11.235 25.1,-25.102"
         style="fill:#231f20;fill-opacity:1;fill-rule:nonzero;stroke:none"
         transform="matrix(0.13333333,0,0,-0.13333333,0,143.62667)" />
      <path
         id="path44"
         d="m 1036.68,388.746 c 0,-13.863 -11.23,-25.101 -25.11,-25.101 -13.867,0 -25.093,11.238 -25.093,25.101 0,13.879 11.226,25.113 25.093,25.113 13.88,0 25.11,-11.234 25.11,-25.113"
         style="fill:#231f20;fill-opacity:1;fill-rule:nonzero;stroke:none"
         transform="matrix(0.13333333,0,0,-0.13333333,0,143.62667)" />
      <path
         id="path45"
         d="m 904.18,388.746 c 0,-13.863 -11.242,-25.101 -25.117,-25.101 -13.86,0 -25.098,11.238 -25.098,25.101 0,13.879 11.238,25.113 25.098,25.113 13.875,0 25.117,-11.234 25.117,-25.113"
         style="fill:#231f20;fill-opacity:1;fill-rule:nonzero;stroke:none"
         transform="matrix(0.13333333,0,0,-0.13333333,0,143.62667)" />
      <path
         id="path46"
         d="m 771.648,388.746 c 0,-13.863 -11.226,-25.101 -25.093,-25.101 -13.86,0 -25.11,11.238 -25.11,25.101 0,13.879 11.25,25.113 25.11,25.113 13.867,0 25.093,-11.234 25.093,-25.113"
         style="fill:#231f20;fill-opacity:1;fill-rule:nonzero;stroke:none"
         transform="matrix(0.13333333,0,0,-0.13333333,0,143.62667)" />
      <path
         id="path47"
         d="m 639.16,388.746 c 0,-13.863 -11.234,-25.101 -25.105,-25.101 -13.867,0 -25.117,11.238 -25.117,25.101 0,13.879 11.25,25.113 25.117,25.113 13.871,0 25.105,-11.234 25.105,-25.113"
         style="fill:#231f20;fill-opacity:1;fill-rule:nonzero;stroke:none"
         transform="matrix(0.13333333,0,0,-0.13333333,0,143.62667)" />
      <path
         id="path48"
         d="m 506.66,388.746 c 0,-13.863 -11.238,-25.101 -25.117,-25.101 -13.855,0 -25.098,11.238 -25.098,25.101 0,13.879 11.243,25.113 25.098,25.113 13.879,0 25.117,-11.234 25.117,-25.113"
         style="fill:#231f20;fill-opacity:1;fill-rule:nonzero;stroke:none"
         transform="matrix(0.13333333,0,0,-0.13333333,0,143.62667)" />
      <path
         id="path49"
         d="m 374.148,388.746 c 0,-13.863 -11.234,-25.101 -25.109,-25.101 -13.863,0 -25.113,11.238 -25.113,25.101 0,13.879 11.25,25.113 25.113,25.113 13.875,0 25.109,-11.234 25.109,-25.113"
         style="fill:#231f20;fill-opacity:1;fill-rule:nonzero;stroke:none"
         transform="matrix(0.13333333,0,0,-0.13333333,0,143.62667)" />
      <path
         id="path50"
         d="m 1169.19,388.746 c 0,-13.863 -11.24,-25.101 -25.1,-25.101 -13.88,0 -25.12,11.238 -25.12,25.101 0,13.879 11.24,25.113 25.12,25.113 13.86,0 25.1,-11.234 25.1,-25.113"
         style="fill:#231f20;fill-opacity:1;fill-rule:nonzero;stroke:none"
         transform="matrix(0.13333333,0,0,-0.13333333,0,143.62667)" />
      <path
         id="path51"
         d="m 1036.68,256.086 c 0,-13.859 -11.23,-25.102 -25.11,-25.102 -13.867,0 -25.093,11.243 -25.093,25.102 0,13.871 11.226,25.117 25.093,25.117 13.88,0 25.11,-11.246 25.11,-25.117"
         style="fill:#231f20;fill-opacity:1;fill-rule:nonzero;stroke:none"
         transform="matrix(0.13333333,0,0,-0.13333333,0,143.62667)" />
      <path
         id="path52"
         d="m 904.18,256.086 c 0,-13.859 -11.242,-25.102 -25.117,-25.102 -13.86,0 -25.098,11.243 -25.098,25.102 0,13.871 11.238,25.117 25.098,25.117 13.875,0 25.117,-11.246 25.117,-25.117"
         style="fill:#231f20;fill-opacity:1;fill-rule:nonzero;stroke:none"
         transform="matrix(0.13333333,0,0,-0.13333333,0,143.62667)" />
      <path
         id="path53"
         d="m 771.648,256.086 c 0,-13.859 -11.226,-25.102 -25.093,-25.102 -13.86,0 -25.11,11.243 -25.11,25.102 0,13.871 11.25,25.117 25.11,25.117 13.867,0 25.093,-11.246 25.093,-25.117"
         style="fill:#231f20;fill-opacity:1;fill-rule:nonzero;stroke:none"
         transform="matrix(0.13333333,0,0,-0.13333333,0,143.62667)" />
      <path
         id="path54"
         d="m 639.16,256.086 c 0,-13.859 -11.234,-25.102 -25.105,-25.102 -13.867,0 -25.117,11.243 -25.117,25.102 0,13.871 11.25,25.117 25.117,25.117 13.871,0 25.105,-11.246 25.105,-25.117"
         style="fill:#231f20;fill-opacity:1;fill-rule:nonzero;stroke:none"
         transform="matrix(0.13333333,0,0,-0.13333333,0,143.62667)" />
      <path
         id="path55"
         d="m 506.66,256.086 c 0,-13.859 -11.238,-25.102 -25.117,-25.102 -13.855,0 -25.098,11.243 -25.098,25.102 0,13.871 11.243,25.117 25.098,25.117 13.879,0 25.117,-11.246 25.117,-25.117"
         style="fill:#231f20;fill-opacity:1;fill-rule:nonzero;stroke:none"
         transform="matrix(0.13333333,0,0,-0.13333333,0,143.62667)" />
      <path
         id="path56"
         d="m 374.148,256.086 c 0,-13.859 -11.234,-25.102 -25.109,-25.102 -13.863,0 -25.113,11.243 -25.113,25.102 0,13.871 11.25,25.117 25.113,25.117 13.875,0 25.109,-11.246 25.109,-25.117"
         style="fill:#231f20;fill-opacity:1;fill-rule:nonzero;stroke:none"
         transform="matrix(0.13333333,0,0,-0.13333333,0,143.62667)" />
      <path
         id="path57"
         d="m 1169.19,256.086 c 0,-13.859 -11.24,-25.102 -25.1,-25.102 -13.88,0 -25.12,11.243 -25.12,25.102 0,13.871 11.24,25.117 25.12,25.117 13.86,0 25.1,-11.246 25.1,-25.117"
         style="fill:#231f20;fill-opacity:1;fill-rule:nonzero;stroke:none"
         transform="matrix(0.13333333,0,0,-0.13333333,0,143.62667)" />
      <path
         id="path58"
         d="m 1036.68,1052.04 c 0,-13.86 -11.23,-25.11 -25.11,-25.11 -13.867,0 -25.093,11.25 -25.093,25.11 0,13.87 11.226,25.11 25.093,25.11 13.88,0 25.11,-11.24 25.11,-25.11"
         style="fill:#231f20;fill-opacity:1;fill-rule:nonzero;stroke:none"
         transform="matrix(0.13333333,0,0,-0.13333333,0,143.62667)" />
      <path
         id="path59"
         d="m 904.18,1052.04 c 0,-13.86 -11.242,-25.11 -25.117,-25.11 -13.86,0 -25.098,11.25 -25.098,25.11 0,13.87 11.238,25.11 25.098,25.11 13.875,0 25.117,-11.24 25.117,-25.11"
         style="fill:#231f20;fill-opacity:1;fill-rule:nonzero;stroke:none"
         transform="matrix(0.13333333,0,0,-0.13333333,0,143.62667)" />
      <path
         id="path60"
         d="m 771.648,1052.04 c 0,-13.86 -11.226,-25.11 -25.093,-25.11 -13.86,0 -25.11,11.25 -25.11,25.11 0,13.87 11.25,25.11 25.11,25.11 13.867,0 25.093,-11.24 25.093,-25.11"
         style="fill:#231f20;fill-opacity:1;fill-rule:nonzero;stroke:none"
         transform="matrix(0.13333333,0,0,-0.13333333,0,143.62667)" />
      <path
         id="path61"
         d="m 639.16,1052.04 c 0,-13.86 -11.234,-25.11 -25.105,-25.11 -13.867,0 -25.117,11.25 -25.117,25.11 0,13.87 11.25,25.11 25.117,25.11 13.871,0 25.105,-11.24 25.105,-25.11"
         style="fill:#231f20;fill-opacity:1;fill-rule:nonzero;stroke:none"
         transform="matrix(0.13333333,0,0,-0.13333333,0,143.62667)" />
      <path
         id="path62"
         d="m 506.66,1052.04 c 0,-13.86 -11.238,-25.11 -25.117,-25.11 -13.855,0 -25.098,11.25 -25.098,25.11 0,13.87 11.243,25.11 25.098,25.11 13.879,0 25.117,-11.24 25.117,-25.11"
         style="fill:#231f20;fill-opacity:1;fill-rule:nonzero;stroke:none"
         transform="matrix(0.13333333,0,0,-0.13333333,0,143.62667)" />
      <path
         id="path63"
         d="m 374.148,1052.04 c 0,-13.86 -11.234,-25.11 -25.109,-25.11 -13.863,0 -25.113,11.25 -25.113,25.11 0,13.87 11.25,25.11 25.113,25.11 13.875,0 25.109,-11.24 25.109,-25.11"
         style="fill:#231f20;fill-opacity:1;fill-rule:nonzero;stroke:none"
         transform="matrix(0.13333333,0,0,-0.13333333,0,143.62667)" />
      <path
         id="path64"
         d="m 1169.19,1052.04 c 0,-13.86 -11.24,-25.11 -25.1,-25.11 -13.88,0 -25.12,11.25 -25.12,25.11 0,13.87 11.24,25.11 25.12,25.11 13.86,0 25.1,-11.24 25.1,-25.11"
         style="fill:#231f20;fill-opacity:1;fill-rule:nonzero;stroke:none"
         transform="matrix(0.13333333,0,0,-0.13333333,0,143.62667)" />
    </g>
  </g>
</svg>
