<?xml version="1.0" encoding="UTF-8" standalone="no"?>
<!-- Created with Inkscape (http://www.inkscape.org/) -->

<svg
   version="1.1"
   id="svg1"
   width="143.24001"
   height="143.24001"
   viewBox="0 0 143.24001 143.24001"
   sodipodi:docname="phaaaf08.eps"
   xmlns:inkscape="http://www.inkscape.org/namespaces/inkscape"
   xmlns:sodipodi="http://sodipodi.sourceforge.net/DTD/sodipodi-0.dtd"
   xmlns="http://www.w3.org/2000/svg"
   xmlns:svg="http://www.w3.org/2000/svg">
  <defs
     id="defs1" />
  <sodipodi:namedview
     id="namedview1"
     pagecolor="#ffffff"
     bordercolor="#000000"
     borderopacity="0.25"
     inkscape:showpageshadow="2"
     inkscape:pageopacity="0.0"
     inkscape:pagecheckerboard="0"
     inkscape:deskcolor="#d1d1d1">
    <inkscape:page
       x="0"
       y="0"
       inkscape:label="1"
       id="page1"
       width="143.24001"
       height="143.24001"
       margin="0"
       bleed="0" />
  </sodipodi:namedview>
  <g
     id="g1"
     inkscape:groupmode="layer"
     inkscape:label="1">
    <g
       id="group-R5">
      <path
         id="path2"
         d="m 1070.58,537.168 c 0.23,65.398 -11.75,132.383 -36.21,193.094 -27.83,69.097 -67.784,130.914 -120.018,184.093 l -0.391,-0.058 -377.129,-377.129 h 533.748"
         style="fill:#d3d2d2;fill-opacity:1;fill-rule:nonzero;stroke:none"
         transform="matrix(0.13333333,0,0,-0.13333333,0,143.24)" />
      <path
         id="path3"
         d="m 914.352,159.977 0.183,0.179 0.176,0.203 1.086,1.079 4.324,4.402 5.684,5.941 11.984,13.199 10.809,12.68 10.187,12.735 10.594,14.175 9.492,13.555 9.777,14.969 9.102,15.051 8.08,14.277 8.21,15.769 7.22,14.942 6.59,14.875 6.67,16.355 5.7,15.461 5.66,16.93 4.99,16.82 4.17,15.793 3.96,17.285 0.2,1.032 0.24,1.007 0.41,2.032 0.8,4.039 1.54,8.156 0.05,0.254 0.05,0.285 0.08,0.566 0.2,1.102 0.39,2.188 0.73,4.425 0.09,0.567 0.08,0.543 0.19,1.101 0.35,2.235 0.64,4.429 0.06,0.285 0.02,0.254 0.08,0.539 0.16,1.106 0.31,2.164 0.58,4.375 0.03,0.277 0.02,0.258 0.08,0.543 0.13,1.102 0.28,2.187 0.49,4.375 0.03,0.254 0.05,0.262 0.06,0.511 0.09,1.004 0.21,2.059 0.41,4.09 0.03,0.23 0.17,1.801 0.2,2.031 0.32,4.118 0.03,0.257 0.08,0.852 0.22,3.32 0.06,0.563 0.05,0.539 0.08,1.133 0.13,2.211 0.03,0.285 0.02,0.257 0.03,0.563 0.07,1.109 0.1,2.235 0.24,4.453 0.02,0.254 v 0.258 l 0.08,1.543 0.08,2.085 0.02,0.258 v 0.254 l 0.03,0.52 0.02,1.054 0.08,2.079 v 0.261 l 0.03,0.258 v 0.512 l 0.03,1.031 0.02,0.258 v 0.797 l 0.02,1.031 0.02,0.254 v 0.801 l 0.03,1.023 v 0.52 l 0.03,0.511 v 1.055 l 0.02,0.258 v 1.262 l 0.03,0.511 v 2.547 l 0.03,0.262 v 6.867 l -0.03,0.516 v 2.289 l -0.03,0.258 v 1.796 l -0.02,0.286 v 0.535 l -0.03,1.109 v 0.567 l -0.03,0.543 -0.02,1.101 v 0.566 l -0.02,0.543 -0.08,3.317 -0.02,0.289 v 0.281 l -0.03,0.535 -0.03,1.11 -0.07,2.211 -0.03,0.285 v 0.258 l -0.03,0.566 -0.15,3.316 v 0.258 l -0.02,0.258 -0.19,3.602 -0.02,0.257 v 0.254 l -0.06,0.512 -0.05,1.031 -0.12,2.063 -0.03,0.258 v 0.254 l -0.02,0.511 -0.55,7.207 -0.02,0.282 v 0.277 l -0.05,0.539 -0.1,1.133 -0.18,2.215 -0.42,4.453 -0.1,1.129 -0.12,1.105 -0.21,2.211 -0.49,4.457 -0.03,0.281 -0.05,0.258 -0.05,0.567 -0.13,1.078 -0.26,2.187 -0.53,4.348 -1.21,8.691 -0.05,0.258 -0.03,0.254 -0.08,0.516 -0.16,1.007 -0.3,2.028 -0.64,4.047 -1.37,8.07 -0.05,0.254 -0.05,0.289 -0.11,0.539 -0.17,1.105 -0.42,2.184 -0.82,4.352 -1.78,8.699 -3.7,16.176 -4.11,15.718 -5.02,16.926 -5.18,15.613 -6.14,16.75 -6.23,15.461 -6.58,14.946 -7.67,15.968 -7.62,14.664 -8.764,15.61 -9.101,15.058 -8.957,13.762 -10.157,14.609 -9.929,13.301 -10.137,12.754 -11.426,13.481 -11.054,12.222 -0.411,0.41 -0.39,0.438 -0.801,0.824 -1.563,1.668 -3.195,3.32 -0.176,0.207 -0.203,0.239 -0.422,0.402 -0.789,0.824 -1.621,1.649 -0.187,0.199 -0.203,0.184 -0.411,0.414 -0.8,0.82 -1.438,1.441 -0.183,0.203 M 833.5,93.6563 l -0.02,0.3593 v 0.3867 l -0.058,0.7735 -0.067,1.5156 -0.546,9.1096 -0.743,12.246 -1.808,26.723 -1.922,25.289 -2.109,25.105 -2.676,27.652 -0.051,0.387 -0.027,0.414 -0.078,0.821 -0.176,1.621 -0.344,3.265 -0.711,6.563 -0.059,0.386 -0.019,0.411 -0.109,0.824 -0.536,4.937 -0.207,1.645 -0.183,1.652 -0.383,3.317 -0.047,0.437 -0.058,0.465 -0.098,0.871 -0.051,0.461 -0.059,0.437 -0.097,0.903 -0.078,0.461 -0.047,0.441 -0.059,0.461 0.059,0.359 0.379,0.383 0.39,0.418 0.207,0.18 0.586,0.59 0.77,0.797 1.574,1.621 0.203,0.183 0.188,0.203 0.41,0.411 0.769,0.8 1.543,1.622 3.059,3.265 0.184,0.203 0.207,0.207 0.359,0.387 0.742,0.82 1.496,1.621 2.93,3.266 5.762,6.641 10.371,12.707 10.644,14.226 9.336,13.711 8.621,13.813 8.692,15.355 7.511,14.692 7.442,16.238 6.582,16.226 5.508,15.407 5.242,16.925 0.078,0.258 0.051,0.254 0.156,0.488 0.281,1.008 0.539,1.977 1.082,4.015 2.032,8.028 0.05,0.258 0.079,0.285 0.39,1.621 0.508,2.18 0.977,4.375 0.105,0.566 0.129,0.539 0.234,1.105 0.457,2.192 0.879,4.398 0.051,0.254 0.047,0.281 0.723,3.786 0.773,4.343 0.047,0.262 0.031,0.281 0.106,0.539 0.539,3.243 0.664,4.375 0.027,0.226 0.051,0.262 0.234,1.543 0.281,2.031 0.539,4.067 0.059,0.511 0.078,0.489 0.125,1.031 0.227,2.031 0.469,4.094 0.019,0.281 0.027,0.254 0.079,0.566 0.109,1.11 0.223,2.215 0.05,0.562 0.059,0.535 0.098,1.11 0.183,2.238 0.02,0.258 0.078,0.847 0.078,1.106 0.187,2.211 0.301,4.453 v 0.254 l 0.031,0.258 0.02,0.515 0.078,1.055 0.106,2.058 v 0.258 l 0.031,0.254 0.019,0.543 0.047,1.031 0.11,2.079 v 0.519 l 0.078,1.543 v 0.543 l 0.027,0.512 0.02,1.031 0.031,0.254 v 0.258 l 0.019,0.543 0.028,1.023 v 0.52 l 0.031,0.511 0.02,1.055 v 1.008 l 0.027,0.254 v 1.289 l 0.031,0.512 v 2.031 l 0.02,0.258 v 6.097 l -0.02,0.258 v 2.027 l -0.031,0.512 v 1.035 l -0.027,1.004 v 0.281 l -0.02,0.286 v 0.535 l -0.031,1.109 v 0.281 l -0.028,0.286 v 0.543 l -0.019,1.101 -0.031,0.285 v 0.281 l -0.02,0.543 -0.027,1.106 -0.11,2.211 v 0.289 l -0.019,0.281 -0.02,0.535 -0.164,3.321 v 0.285 l -0.019,0.258 -0.032,0.566 -0.078,1.105 -0.125,2.188 -0.031,0.258 v 0.254 l -0.047,0.511 -0.051,1.032 -0.156,2.058 -0.047,0.516 -0.031,0.512 -0.078,1.031 -0.176,2.058 -0.058,0.512 -0.02,0.516 -0.105,1.027 -0.176,2.063 -0.442,4.371 -0.046,0.281 -0.051,0.566 -0.391,3.313 -0.535,4.453 -0.059,0.566 -0.07,0.539 -0.469,3.325 -0.644,4.422 -0.02,0.285 -0.058,0.254 -0.078,0.562 -0.176,1.086 -0.332,2.156 -0.75,4.325 -1.594,8.64 -0.047,0.262 -0.051,0.226 -0.078,0.512 -0.625,3.016 -0.847,4.015 -1.829,7.977 -0.066,0.281 -0.059,0.258 -0.129,0.539 -0.281,1.078 -0.519,2.16 -1.102,4.297 -2.363,8.563 -4.895,15.851 -5.449,15.301 -6.582,16.363 -6.816,14.996 -8.055,15.899 -8.156,14.531 -8.594,13.895 -9.93,14.664 -9.875,13.269 -11.289,13.918 -11.679,13.145 -0.157,0.183 -0.183,0.204 -0.352,0.367 -0.703,0.742 -1.406,1.488 -0.156,0.207 -0.547,0.543 -0.715,0.742 -1.414,1.489 -0.723,0.722 -0.695,0.75 -0.723,0.715 -0.723,0.75 -1.433,1.445 -0.207,0.176 -0.184,0.18 v 0.387 l 0.262,2.054 0.098,0.875 0.109,0.903 0.613,5.324 0.801,7.101 1.516,14.071 2.519,25.984 2.168,25.078 2.031,26.852 1.668,24.75 0.02,0.414 0.031,0.433 0.078,0.875 0.098,1.7 0.625,10.265 0.019,0.438 0.028,0.41 0.051,0.848 0.105,1.722 0.207,3.395 0.02,0.437 0.027,0.41 0.156,2.547 0.031,0.438 0.02,0.414 0.047,0.848 v 0.437 l 0.031,0.414 0.027,0.434 0.02,0.414 M 741.285,44.3398 v 0.7305 l -0.031,0.6914 -0.02,1.418 -0.058,2.8008 -0.098,5.6289 -0.234,11.289 -0.535,24.625 -0.598,23.1246 -0.645,22.844 -0.789,24.977 -0.898,23.566 -1.113,25.801 -1.309,25.695 -1.465,24.309 -0.031,0.414 -0.02,0.434 -0.058,0.828 -0.098,1.668 -0.234,3.32 -0.457,6.691 -1.008,13.477 -0.027,0.414 -0.051,0.387 -0.047,0.793 -0.129,1.57 -0.262,3.191 -0.507,6.356 -1.165,12.859 -0.019,0.387 -0.059,0.387 -0.234,2.39 -0.301,3.164 -0.617,6.407 -0.059,0.386 -0.046,0.41 -0.235,2.391 -0.363,3.219 -0.692,6.48 -0.41,3.5 -0.05,0.465 -0.204,1.746 -0.05,0.465 -0.215,1.746 -0.047,0.465 v 0.387 l 0.203,0.179 0.188,0.207 1.953,1.954 0.175,0.203 0.184,0.179 0.383,0.411 0.769,0.8 1.524,1.594 3.008,3.242 0.175,0.18 0.157,0.207 0.363,0.359 0.691,0.774 1.368,1.543 2.695,3.113 5.273,6.328 10.735,14.274 9.57,14.691 8.047,14.227 7.715,15.945 0.105,0.258 0.313,0.695 1.23,2.855 1.594,3.809 2.988,7.715 0.098,0.281 0.312,0.774 0.36,1.054 0.773,2.11 1.434,4.25 0.117,0.277 0.07,0.258 0.176,0.543 0.34,1.054 0.695,2.133 1.309,4.297 0.156,0.512 0.156,0.543 0.301,1.055 0.598,2.109 1.152,4.242 0.059,0.285 0.078,0.258 0.125,0.535 0.285,1.059 0.508,2.137 1.035,4.293 0.098,0.515 0.105,0.488 0.234,1 0.411,2.008 0.82,4.039 0.051,0.235 0.156,0.769 0.176,1.004 0.359,2.035 0.695,4.039 0.059,0.282 0.019,0.253 0.106,0.567 0.156,1.086 0.332,2.211 0.051,0.285 0.027,0.254 0.078,0.562 0.157,1.11 0.285,2.211 0.047,0.254 0.019,0.285 0.078,0.543 0.391,3.32 0.461,4.445 0.027,0.262 v 0.254 l 0.157,1.543 0.156,2.086 0.097,1.027 0.051,1.031 0.156,2.079 v 0.261 l 0.028,0.258 0.019,0.512 0.078,1.054 v 0.258 l 0.032,0.262 0.078,1.543 v 0.254 l 0.019,0.258 v 0.543 l 0.059,1.023 v 0.262 l 0.02,0.258 0.027,0.511 0.031,1.055 v 0.258 l 0.02,0.254 v 0.75 l 0.027,0.258 v 0.769 l 0.031,0.262 v 1 l 0.02,0.512 v 1.546 l 0.027,0.231 v 5.117 l -0.027,0.234 v 1.543 l -0.02,0.512 v 0.488 l -0.031,0.512 v 0.524 l -0.027,0.511 -0.02,1.004 v 0.567 l -0.031,0.535 -0.047,1.109 v 0.567 l -0.031,0.543 -0.047,1.101 -0.031,0.285 v 0.281 l -0.02,0.543 -0.078,1.106 -0.125,2.211 v 0.289 l -0.031,0.254 -0.028,0.562 -0.078,1.11 -0.176,2.187 -0.05,0.567 -0.028,0.539 -0.312,3.32 -0.02,0.258 -0.031,0.222 -0.156,1.543 -0.223,2.067 -0.109,1.027 -0.125,1.024 -0.254,2.039 -0.059,0.511 -0.078,0.512 -0.129,1.024 -0.281,2.039 -0.617,4.089 -0.047,0.286 -0.059,0.254 -0.07,0.566 -0.184,1.105 -0.382,2.192 -0.829,4.398 -0.097,0.567 -0.11,0.535 -0.222,1.109 -0.442,2.184 -0.976,4.347 -0.059,0.286 -0.047,0.253 -0.382,1.622 -0.516,2.113 -1.086,4.269 -2.391,8.438 -0.078,0.258 -0.07,0.222 -0.137,0.524 -0.918,2.929 -1.269,3.887 -2.696,7.723 -0.105,0.281 -0.098,0.254 -0.187,0.516 -0.379,1.027 -0.801,2.078 -1.641,4.117 -3.476,8.184 -7.207,14.945 -7.969,14.153 -9.601,14.812 -9.793,13.195 -0.188,0.235 -0.176,0.207 -0.332,0.433 -0.703,0.879 -1.406,1.719 -2.859,3.422 -0.176,0.23 -0.547,0.618 -0.715,0.851 -1.465,1.699 -2.988,3.317 -0.156,0.179 -0.176,0.204 -0.36,0.386 -0.695,0.774 -1.414,1.523 -0.187,0.176 -0.176,0.199 -0.36,0.391 -2.16,2.242 -0.183,0.203 -0.539,0.539 -0.723,0.742 -0.926,0.934 -0.176,0.203 -0.351,0.359 -0.215,0.184 -0.098,0.254 0.145,1.238 0.058,0.438 0.079,0.816 0.05,0.418 0.047,0.434 0.11,0.824 0.175,1.672 0.047,0.41 0.059,0.387 0.098,0.824 0.187,1.621 0.352,3.266 0.703,6.461 1.258,12.804 0.05,0.418 0.047,0.434 0.078,0.879 0.157,1.715 0.304,3.425 0.625,6.867 1.102,13.559 0.031,0.41 0.047,0.391 0.051,0.797 0.125,1.566 0.234,3.141 0.461,6.25 0.848,12.426 1.621,26.597 1.32,25.723 1.024,23.668 0.976,25.383 0.774,23.468 0.644,22.805 0.613,24.547 0.52,22.769 v 0.39 l 0.027,0.41 v 0.79 l 0.051,1.57 0.047,3.16 0.129,6.33 v 0.39 l 0.027,0.39 v 0.79 l 0.031,1.57 0.067,3.16 v 0.78 l 0.031,0.8 0.027,1.56 v 0.41 l 0.02,0.4 v 1.18 l 0.031,0.38 v 0.8 M 641.215,13.9883 v 5.3515 l -0.027,5.3321 -0.02,10.6992 -0.051,23.168 -0.078,21.7187 -0.105,21.3012 -0.098,23.203 -0.109,21.683 -0.125,23.586 -0.188,23.282 v 1.363 l -0.019,1.363 -0.028,2.699 -0.019,5.465 -0.11,10.899 v 0.386 l -0.027,0.36 v 2.238 l -0.02,2.957 -0.078,5.941 -0.129,11.911 v 1.39 l -0.027,1.391 -0.031,2.777 -0.067,5.578 -0.156,11.196 v 0.691 l -0.031,0.699 v 1.36 l -0.047,2.75 -0.078,5.535 -0.188,11.058 v 0.36 l -0.019,0.386 v 0.747 l -0.027,1.519 -0.051,3.008 -0.125,6.047 v 0.746 l -0.032,0.769 -0.027,1.52 -0.051,3.008 -0.125,6.097 -0.031,0.364 v 0.332 l -0.019,0.722 -0.02,1.41 -0.059,2.856 -0.156,5.715 v 0.715 l -0.027,0.699 -0.051,1.441 -0.047,2.879 -0.187,5.735 v 0.777 l -0.02,0.797 -0.047,1.543 -0.109,3.136 -0.176,6.301 -0.027,0.383 v 0.387 l -0.031,0.801 -0.047,1.57 -0.098,3.164 -0.234,6.351 -0.032,0.383 v 0.387 l -0.046,0.773 -0.051,1.571 -0.137,3.14 -0.254,6.297 -0.027,0.418 v 0.383 l -0.051,0.797 -0.047,1.566 -0.461,9.571 -0.027,0.363 -0.031,0.387 -0.02,0.746 -0.078,1.488 -0.184,3.016 -0.332,6.011 -0.05,0.774 -0.047,0.746 -0.078,1.519 -0.625,9.184 -0.051,0.82 -0.047,0.852 -0.129,1.676 -0.262,3.367 -0.539,6.762 -0.019,0.441 -0.059,0.437 -0.234,2.543 -0.301,3.45 -0.676,6.949 -0.047,0.41 -0.031,0.387 -0.098,0.816 -0.156,1.653 -0.098,0.82 -0.078,0.824 -0.203,1.645 -0.031,0.414 -0.41,3.293 0.097,0.285 0.188,0.203 0.898,0.898 0.176,0.207 0.547,0.539 0.711,0.75 1.418,1.512 2.734,3.117 0.176,0.203 0.203,0.207 0.363,0.438 0.723,0.852 1.414,1.746 2.746,3.527 0.157,0.227 0.183,0.23 0.332,0.441 0.645,0.899 1.308,1.855 2.5,3.7 0.305,0.464 0.281,0.465 0.598,0.926 1.152,1.875 2.215,3.809 0.129,0.23 0.156,0.266 0.254,0.457 1.543,2.929 1.953,3.942 0.137,0.226 0.301,0.696 0.441,0.925 0.848,1.875 1.594,3.786 0.078,0.257 0.105,0.231 0.176,0.488 0.391,0.953 0.714,1.907 1.336,3.878 0.11,0.258 0.078,0.285 0.176,0.512 0.332,1.09 0.644,2.105 0.078,0.282 0.078,0.254 0.469,1.621 0.586,2.133 0.047,0.285 0.078,0.258 0.129,0.542 0.281,1.079 0.5,2.16 0.899,4.375 0.203,1.027 0.176,1.004 0.332,2.059 0.058,0.254 0.02,0.257 0.234,1.543 0.285,2.063 0.106,1.023 0.129,1.031 0.047,0.52 0.05,0.535 0.203,2.063 0.09,1.023 0.047,0.52 0.02,0.535 0.078,1.031 v 0.258 l 0.031,0.254 0.02,0.496 0.027,0.254 v 0.258 l 0.031,0.511 0.02,0.258 v 0.262 l 0.027,0.512 v 0.226 l 0.031,0.262 v 0.512 l 0.02,0.257 v 0.774 l 0.027,0.258 v 1 l 0.02,0.257 v 3.575 l -0.02,0.254 v 1.011 l -0.027,0.258 v 0.77 l -0.02,0.257 -0.031,0.512 v 0.488 l -0.027,0.512 -0.02,0.266 v 0.258 l -0.031,0.511 -0.047,1.004 -0.059,0.567 -0.019,0.535 -0.078,1.109 -0.02,0.281 -0.031,0.262 -0.059,0.567 -0.078,1.101 -0.019,0.262 -0.028,0.281 -0.05,0.535 -0.391,3.321 -0.019,0.261 -0.047,0.281 -0.078,0.54 -0.157,1.109 -0.332,2.184 -0.031,0.253 -0.047,0.286 -0.109,0.543 -0.176,1.078 -0.41,2.187 -0.059,0.258 -0.019,0.254 -0.106,0.488 -0.234,1.035 -0.43,1.996 -0.058,0.262 -0.051,0.238 -0.125,0.512 -0.235,1 -0.507,2.016 -0.059,0.222 -0.078,0.258 -0.129,0.516 -0.254,0.98 -0.566,1.977 -1.239,3.961 -0.07,0.258 -0.105,0.257 -0.176,0.54 -0.363,1.054 -0.75,2.113 -1.594,4.161 -0.41,1.035 -0.438,1.023 -0.898,2.059 -1.875,4.066 -0.11,0.266 -0.125,0.226 -0.234,0.485 -0.488,1 -1.008,1.933 -2.11,3.86 -0.125,0.258 -0.156,0.23 -0.254,0.469 -0.566,0.945 -1.133,1.875 -2.344,3.707 -0.148,0.235 -0.125,0.199 -0.285,0.445 -0.594,0.852 -1.164,1.668 -2.391,3.316 -0.617,0.82 -0.644,0.805 -1.258,1.621 -2.598,3.16 -0.723,0.824 -0.742,0.848 -1.465,1.649 -0.175,0.203 -0.215,0.211 -0.352,0.406 -0.773,0.824 -0.391,0.391 -0.359,0.406 -0.774,0.801 -1.179,1.179 -0.129,0.258 0.051,0.461 0.105,0.879 0.098,0.899 0.207,1.773 0.203,1.754 0.187,1.769 0.379,3.5 0.031,0.411 0.047,0.418 0.078,0.792 0.461,4.86 0.575,6.414 0.05,0.402 0.02,0.387 0.059,0.801 0.125,1.59 0.253,3.171 0.461,6.278 0.059,0.765 0.078,0.774 0.301,4.551 0.363,6.07 0.028,0.363 0.019,0.387 0.059,0.742 0.078,1.52 0.176,2.988 0.312,5.969 0.051,0.816 0.047,0.797 0.078,1.598 0.156,3.211 0.285,6.382 0.02,0.414 0.027,0.383 0.031,0.797 0.078,1.598 0.125,3.164 0.235,6.301 0.019,0.39 v 0.36 l 0.032,0.718 0.047,1.461 0.128,2.942 0.184,5.804 0.02,0.391 v 0.359 l 0.078,2.161 0.078,2.91 0.187,5.761 0.02,0.415 v 0.375 l 0.027,0.785 0.051,1.558 0.078,3.114 0.156,6.207 0.02,0.379 v 0.39 l 0.027,0.797 0.031,1.535 0.223,9.27 v 0.691 l 0.031,0.727 0.078,4.312 0.125,5.715 0.208,11.395 v 0.363 l 0.027,0.332 v 0.691 l 0.078,4.172 0.078,5.559 0.176,11.062 v 0.766 l 0.031,0.75 0.02,1.492 0.027,2.984 0.078,5.965 0.156,11.914 v 1.387 l 0.02,1.395 0.031,2.765 0.078,5.531 0.098,11.043 v 1.493 l 0.027,1.492 0.078,8.953 0.098,11.879 v 1.469 l 0.031,1.464 0.028,2.907 0.019,5.816 0.078,11.621 0.157,21.641 0.109,23.379 0.098,21.738 0.078,21.277 0.078,23.045 0.078,21.42 v 3.02 l 0.02,2.98 v 7.46 l 0.027,1.5 v 8.97 M 537.164,537.5 v 533.08 m 0,-1066.83 V 536.836 M 433.109,13.9883 v 5.3515 l 0.032,5.3321 0.019,10.6992 0.047,23.168 0.09,21.7187 0.098,21.3012 0.097,23.203 0.106,21.683 0.129,23.586 0.175,23.282 v 1.363 l 0.028,1.363 0.031,2.699 0.019,5.465 0.106,10.899 v 0.386 l 0.031,0.36 v 2.238 l 0.02,2.957 0.078,5.941 0.137,11.911 v 1.39 l 0.019,1.391 0.027,2.777 0.071,5.578 0.164,11.196 v 0.691 l 0.019,0.699 v 1.36 l 0.051,2.75 0.078,5.535 0.176,11.058 v 0.36 l 0.027,0.386 v 0.747 l 0.02,1.519 0.059,3.008 0.136,6.047 v 0.746 l 0.02,0.769 0.019,1.52 0.059,3.008 0.129,6.097 0.027,0.364 v 0.332 l 0.031,0.722 0.02,1.41 0.047,2.856 0.156,5.715 v 0.715 l 0.031,0.699 0.039,1.441 0.059,2.879 0.184,5.735 v 0.777 l 0.031,0.797 0.039,1.543 0.105,3.136 0.176,6.301 0.031,0.383 v 0.387 l 0.028,0.801 0.05,1.57 0.106,3.164 0.234,6.351 0.02,0.383 v 0.387 l 0.051,0.773 0.047,1.571 0.136,3.14 0.254,6.297 0.031,0.418 v 0.383 l 0.047,0.797 0.051,1.566 0.469,9.571 0.019,0.363 0.028,0.387 0.019,0.746 0.078,1.488 0.176,3.016 0.344,6.011 0.047,0.774 0.051,0.746 0.085,1.519 0.606,9.184 0.059,0.82 0.05,0.852 0.137,1.676 0.254,3.367 0.535,6.762 0.02,0.441 0.058,0.437 0.227,2.543 0.312,3.45 0.672,6.949 0.051,0.41 0.027,0.387 0.098,0.816 0.156,1.653 0.098,0.82 0.078,0.824 0.207,1.645 0.027,0.414 0.422,3.293 -0.109,0.285 -0.176,0.203 -0.906,0.898 -0.176,0.207 -0.539,0.539 -0.723,0.75 -1.425,1.512 -2.723,3.117 -0.176,0.203 -0.207,0.207 -0.359,0.438 -0.715,0.852 -1.426,1.746 -2.742,3.527 -0.168,0.227 -0.176,0.23 -0.332,0.441 -0.633,0.899 -1.32,1.855 -2.488,3.7 -0.313,0.464 -0.285,0.465 -0.594,0.926 -1.152,1.875 -2.219,3.809 -0.125,0.23 -0.156,0.266 -0.254,0.457 -1.543,2.929 -1.953,3.942 -0.137,0.226 -0.312,0.696 -0.43,0.925 -0.852,1.875 -1.589,3.786 -0.079,0.257 -0.097,0.231 -0.188,0.488 -0.379,0.953 -0.734,1.907 -1.328,3.878 -0.106,0.258 -0.078,0.285 -0.187,0.512 -0.32,1.09 -0.645,2.105 -0.09,0.282 -0.066,0.254 -0.469,1.621 -0.586,2.133 -0.051,0.285 -0.078,0.258 -0.137,0.542 -0.281,1.079 -0.488,2.16 -0.899,4.375 -0.207,1.027 -0.175,1.004 -0.332,2.059 -0.059,0.254 -0.027,0.257 -0.227,1.543 -0.281,2.063 -0.098,1.023 -0.137,1.031 -0.05,0.52 -0.059,0.535 -0.195,2.063 -0.086,1.023 -0.039,0.52 -0.031,0.535 -0.079,1.031 v 0.258 l -0.027,0.254 -0.019,0.496 -0.032,0.254 v 0.258 l -0.027,0.511 -0.02,0.258 v 0.262 l -0.031,0.512 v 0.226 l -0.019,0.262 v 0.512 l -0.028,0.257 v 0.774 l -0.031,0.258 v 1 l -0.019,0.257 v 3.575 l 0.019,0.254 v 1.011 l 0.031,0.258 v 0.77 l 0.028,0.257 0.019,0.512 v 0.488 l 0.031,0.512 0.02,0.266 v 0.258 l 0.027,0.511 0.051,1.004 0.059,0.567 0.019,0.535 0.078,1.109 0.02,0.281 0.027,0.262 0.059,0.567 0.078,1.101 0.019,0.262 0.032,0.281 0.047,0.535 0.39,3.321 0.02,0.261 0.051,0.281 0.085,0.54 0.149,1.109 0.332,2.184 0.027,0.253 0.059,0.286 0.098,0.543 0.175,1.078 0.41,2.187 0.059,0.258 0.031,0.254 0.098,0.488 0.234,1.035 0.43,1.996 0.059,0.262 0.046,0.238 0.129,0.512 0.235,1 0.508,2.016 0.058,0.222 0.078,0.258 0.117,0.516 0.262,0.98 0.567,1.977 1.242,3.961 0.078,0.258 0.098,0.257 0.183,0.54 0.352,1.054 0.754,2.113 1.589,4.161 0.411,1.035 0.441,1.023 0.898,2.059 1.883,4.066 0.098,0.266 0.129,0.226 0.234,0.485 0.489,1 0.996,1.933 2.117,3.86 0.129,0.258 0.156,0.23 0.254,0.469 0.566,0.945 1.133,1.875 2.344,3.707 0.144,0.235 0.129,0.199 0.282,0.445 0.597,0.852 1.16,1.668 2.395,3.316 0.613,0.82 0.637,0.805 1.269,1.621 2.598,3.16 0.723,0.824 0.742,0.848 1.465,1.649 0.176,0.203 0.214,0.211 0.352,0.406 0.769,0.824 0.391,0.391 0.363,0.406 0.77,0.801 1.183,1.179 0.137,0.258 -0.058,0.461 -0.11,0.879 -0.097,0.899 -0.215,1.773 -0.196,1.754 -0.183,1.769 -0.383,3.5 -0.027,0.411 -0.051,0.418 -0.078,0.792 -0.469,4.86 -0.566,6.414 -0.039,0.402 -0.028,0.387 -0.058,0.801 -0.129,1.59 -0.254,3.171 -0.457,6.278 -0.059,0.765 -0.07,0.774 -0.313,4.551 -0.359,6.07 -0.031,0.363 -0.02,0.387 -0.058,0.742 -0.067,1.52 -0.187,2.988 -0.313,5.969 -0.047,0.816 -0.05,0.797 -0.079,1.598 -0.156,3.211 -0.281,6.382 -0.02,0.414 -0.031,0.383 -0.027,0.797 -0.078,1.598 -0.118,3.164 -0.234,6.301 -0.031,0.39 v 0.36 l -0.02,0.718 -0.058,1.461 -0.137,2.942 -0.176,5.804 -0.019,0.391 v 0.359 l -0.086,2.161 -0.071,2.91 -0.183,5.761 -0.031,0.415 v 0.375 l -0.008,0.785 -0.059,1.558 -0.078,3.114 -0.148,6.207 -0.028,0.379 v 0.39 l -0.031,0.797 -0.027,1.535 -0.227,9.27 v 0.691 l -0.027,0.727 -0.078,4.312 -0.129,5.715 -0.215,11.395 v 0.363 l -0.02,0.332 v 0.691 l -0.066,4.172 -0.09,5.559 -0.176,11.062 v 0.766 l -0.019,0.75 -0.028,1.492 -0.031,2.984 -0.078,5.965 -0.144,11.914 v 1.387 l -0.032,1.395 -0.027,2.765 -0.078,5.531 -0.098,11.043 v 1.493 l -0.031,1.492 -0.078,8.953 -0.106,11.879 v 1.469 l -0.019,1.464 -0.031,2.907 -0.02,5.816 -0.078,11.621 -0.156,21.641 -0.106,23.379 -0.097,21.738 -0.079,21.277 -0.078,23.045 -0.078,21.42 v 3.02 l -0.019,2.98 v 7.46 l -0.032,1.5 v 8.97 M 333.043,44.3398 v 0.7305 l 0.027,0.6914 0.032,1.418 0.046,2.8008 0.098,5.6289 0.227,11.289 0.547,24.625 0.593,23.1246 0.645,22.844 0.793,24.977 0.906,23.566 1.106,25.801 1.308,25.695 1.473,24.309 0.011,0.414 0.028,0.434 0.058,0.828 0.11,1.668 0.222,3.32 0.461,6.691 1.004,13.477 0.02,0.414 0.058,0.387 0.051,0.793 0.137,1.57 0.254,3.191 0.508,6.356 1.16,12.859 0.019,0.387 0.059,0.387 0.226,2.39 0.313,3.164 0.613,6.407 0.059,0.386 0.051,0.41 0.234,2.391 0.359,3.219 0.696,6.48 0.41,3.5 0.047,0.465 0.215,1.746 0.039,0.465 0.214,1.746 0.04,0.465 v 0.387 l -0.196,0.179 -0.183,0.207 -1.953,1.954 -0.176,0.203 -0.188,0.179 -0.379,0.411 -0.773,0.8 -1.524,1.594 -3.007,3.242 -0.176,0.18 -0.156,0.207 -0.36,0.359 -0.695,0.774 -1.367,1.543 -2.696,3.113 -5.273,6.328 -10.73,14.274 -9.571,14.691 -8.058,14.227 -7.704,15.945 -0.109,0.258 -0.312,0.695 -1.231,2.855 -1.601,3.809 -2.977,7.715 -0.098,0.281 -0.312,0.774 -0.363,1.054 -0.77,2.11 -1.437,4.25 -0.106,0.277 -0.078,0.258 -0.188,0.543 -0.32,1.054 -0.703,2.133 -1.309,4.297 -0.156,0.512 -0.156,0.543 -0.305,1.055 -0.594,2.109 -1.152,4.242 -0.058,0.285 -0.079,0.258 -0.117,0.535 -0.285,1.059 -0.527,2.137 -1.024,4.293 -0.097,0.515 -0.11,0.488 -0.234,1 -0.41,2.008 -0.821,4.039 -0.058,0.235 -0.145,0.769 -0.175,1.004 -0.364,2.035 -0.691,4.039 -0.051,0.282 -0.027,0.253 -0.11,0.567 -0.144,1.086 -0.344,2.211 -0.047,0.285 -0.031,0.254 -0.066,0.562 -0.168,1.11 -0.282,2.211 -0.05,0.254 -0.028,0.285 -0.07,0.543 -0.391,3.32 -0.457,4.445 -0.031,0.262 v 0.254 l -0.156,1.543 -0.157,2.086 -0.097,1.027 -0.047,1.031 -0.156,2.079 v 0.261 l -0.032,0.258 -0.027,0.512 -0.07,1.054 v 0.258 l -0.028,0.262 -0.078,1.543 v 0.254 l -0.019,0.258 v 0.543 l -0.059,1.023 v 0.262 l -0.031,0.258 -0.02,0.511 -0.019,1.055 v 0.258 l -0.027,0.254 v 0.75 l -0.032,0.258 v 0.769 l -0.027,0.262 v 1 l -0.02,0.512 v 1.546 l -0.031,0.231 v 5.117 l 0.031,0.234 v 1.543 l 0.02,0.512 v 0.488 l 0.027,0.512 v 0.524 l 0.032,0.511 0.027,1.004 v 0.567 l 0.019,0.535 0.051,1.109 v 0.567 l 0.028,0.543 0.05,1.101 0.028,0.285 v 0.281 l 0.019,0.543 0.078,1.106 0.129,2.211 v 0.289 l 0.028,0.254 0.031,0.562 0.078,1.11 0.176,2.187 0.058,0.567 0.02,0.539 0.312,3.32 0.02,0.258 0.027,0.222 0.156,1.543 0.227,2.067 0.105,1.027 0.129,1.024 0.254,2.039 0.059,0.511 0.078,0.512 0.125,1.024 0.285,2.039 0.613,4.089 0.059,0.286 0.051,0.254 0.066,0.566 0.188,1.105 0.379,2.192 0.832,4.398 0.097,0.567 0.098,0.535 0.242,1.109 0.43,2.184 0.976,4.347 0.059,0.286 0.051,0.253 0.39,1.622 0.508,2.113 1.082,4.269 2.395,8.438 0.078,0.258 0.078,0.222 0.125,0.524 0.93,2.929 1.258,3.887 2.695,7.723 0.109,0.281 0.106,0.254 0.175,0.516 0.383,1.027 0.801,2.078 1.649,4.117 3.468,8.184 7.207,14.945 7.969,14.153 9.598,14.812 9.797,13.195 0.183,0.235 0.188,0.207 0.32,0.433 0.703,0.879 1.418,1.719 2.84,3.422 0.195,0.23 0.539,0.618 0.711,0.851 1.477,1.699 2.976,3.317 0.157,0.179 0.187,0.204 0.352,0.386 0.703,0.774 1.406,1.523 0.184,0.176 0.175,0.199 0.364,0.391 2.156,2.242 0.176,0.203 0.547,0.539 0.722,0.742 0.918,0.934 0.188,0.203 0.351,0.359 0.215,0.184 0.098,0.254 -0.149,1.238 -0.058,0.438 -0.078,0.816 -0.039,0.418 -0.059,0.434 -0.105,0.824 -0.176,1.672 -0.051,0.41 -0.059,0.387 -0.097,0.824 -0.184,1.621 -0.351,3.266 -0.704,6.461 -1.25,12.804 -0.058,0.418 -0.051,0.434 -0.078,0.879 -0.156,1.715 -0.301,3.425 -0.625,6.867 -1.106,13.559 -0.027,0.41 -0.051,0.391 -0.047,0.797 -0.128,1.566 -0.235,3.141 -0.457,6.25 -0.851,12.426 -1.622,26.597 -1.308,25.723 -1.035,23.668 -0.977,25.383 -0.769,23.468 -0.645,22.805 -0.617,24.547 -0.516,22.769 v 0.39 l -0.031,0.41 v 0.79 l -0.047,1.57 -0.051,3.16 -0.125,6.33 v 0.39 l -0.031,0.39 v 0.79 l -0.027,1.57 -0.071,3.16 v 0.78 l -0.027,0.8 -0.019,1.56 v 0.41 l -0.032,0.4 v 1.18 l -0.027,0.38 v 0.8 m -92.219,-936.3337 0.02,0.3593 v 0.3867 l 0.058,0.7735 0.071,1.5156 0.535,9.1096 0.754,12.246 1.804,26.723 1.926,25.289 2.11,25.105 2.675,27.652 0.059,0.387 0.019,0.414 0.079,0.821 0.175,1.621 0.332,3.265 0.731,6.563 0.039,0.386 0.031,0.411 0.106,0.824 0.539,4.937 0.203,1.645 0.187,1.652 0.379,3.317 0.051,0.437 0.059,0.465 0.097,0.871 0.047,0.461 0.059,0.437 0.109,0.903 0.067,0.461 0.05,0.441 0.059,0.461 -0.059,0.359 -0.382,0.383 -0.391,0.418 -0.203,0.18 -0.586,0.59 -0.774,0.797 -1.57,1.621 -0.207,0.183 -0.184,0.203 -0.41,0.411 -0.773,0.8 -1.543,1.622 -3.055,3.265 -0.176,0.203 -0.214,0.207 -0.352,0.387 -0.754,0.82 -1.492,1.621 -2.93,3.266 -5.761,6.641 -10.372,12.707 -10.644,14.226 -9.336,13.711 -8.613,13.813 -8.711,15.355 -7.5,14.692 -7.434,16.238 -6.59,16.226 -5.508,15.407 -5.246,16.925 -0.078,0.258 -0.058,0.254 -0.145,0.488 -0.285,1.008 -0.535,1.977 -1.086,4.015 -2.031,8.028 -0.047,0.258 -0.078,0.285 -0.391,1.621 -0.508,2.18 -0.976,4.375 -0.11,0.566 -0.136,0.539 -0.223,1.105 -0.461,2.192 -0.879,4.398 -0.047,0.254 -0.051,0.281 -0.722,3.786 -0.77,4.343 -0.051,0.262 -0.027,0.281 -0.098,0.539 -0.546,3.243 -0.665,4.375 -0.031,0.226 -0.058,0.262 -0.223,1.543 -0.285,2.031 -0.535,4.067 -0.059,0.511 -0.07,0.489 -0.137,1.031 -0.223,2.031 -0.461,4.094 -0.027,0.281 -0.031,0.254 -0.078,0.566 -0.106,1.11 -0.234,2.215 -0.039,0.562 -0.051,0.535 -0.105,1.11 -0.176,2.238 -0.031,0.258 -0.079,0.847 -0.086,1.106 -0.175,2.211 -0.305,4.453 v 0.254 l -0.027,0.258 -0.032,0.515 -0.066,1.055 -0.109,2.058 v 0.258 l -0.028,0.254 -0.019,0.543 -0.059,1.031 -0.097,2.079 v 0.519 l -0.079,1.543 v 0.543 l -0.031,0.512 -0.019,1.031 -0.028,0.254 v 0.258 l -0.031,0.543 -0.02,1.023 v 0.52 l -0.019,0.511 -0.027,1.055 v 1.008 l -0.032,0.254 v 1.289 l -0.027,0.512 v 2.031 l -0.02,0.258 v 6.097 l 0.02,0.258 v 2.027 l 0.027,0.512 v 1.035 l 0.032,1.004 v 0.281 l 0.027,0.286 v 0.535 l 0.019,1.109 v 0.281 l 0.02,0.286 v 0.543 l 0.031,1.101 0.028,0.285 v 0.281 l 0.019,0.543 0.031,1.106 0.106,2.211 v 0.289 l 0.031,0.281 0.02,0.535 0.156,3.321 v 0.285 l 0.019,0.258 0.028,0.566 0.078,1.105 0.129,2.188 0.027,0.258 v 0.254 l 0.051,0.511 0.059,1.032 0.144,2.058 0.051,0.516 0.027,0.512 0.07,1.031 0.196,2.058 0.047,0.512 0.019,0.516 0.11,1.027 0.175,2.063 0.438,4.371 0.058,0.281 0.04,0.566 0.39,3.313 0.539,4.453 0.059,0.566 0.078,0.539 0.457,3.325 0.644,4.422 0.032,0.285 0.039,0.254 0.086,0.562 0.176,1.086 0.332,2.156 0.742,4.325 1.601,8.64 0.051,0.262 0.047,0.226 0.078,0.512 0.625,3.016 0.852,4.015 1.824,7.977 0.078,0.281 0.051,0.258 0.125,0.539 0.285,1.078 0.516,2.16 1.105,4.297 2.363,8.563 4.891,15.851 5.449,15.301 6.582,16.363 6.817,14.996 8.058,15.899 8.153,14.531 8.593,13.895 9.922,14.664 9.883,13.269 11.289,13.918 11.691,13.145 0.145,0.183 0.176,0.204 0.363,0.367 0.703,0.742 1.406,1.488 0.157,0.207 0.547,0.543 0.71,0.742 1.418,1.489 0.723,0.722 0.691,0.75 0.723,0.715 0.723,0.75 1.437,1.445 0.215,0.176 0.176,0.18 v 0.387 l -0.266,2.054 -0.105,0.875 -0.09,0.903 -0.625,5.324 -0.801,7.101 -1.512,14.071 -2.519,25.984 -2.168,25.078 -2.031,26.852 -1.672,24.75 -0.02,0.414 -0.027,0.433 -0.078,0.875 -0.098,1.7 -0.625,10.265 -0.019,0.438 -0.032,0.41 -0.058,0.848 -0.098,1.722 -0.203,3.395 -0.019,0.437 -0.032,0.41 -0.156,2.547 -0.027,0.438 -0.02,0.414 -0.051,0.848 v 0.437 l -0.027,0.414 -0.031,0.434 -0.02,0.414 m -80.847,-820.699 -0.188,0.179 -0.176,0.203 -1.082,1.079 -4.316,4.402 -5.695,5.941 -11.981,13.199 -10.812,12.68 -10.18,12.735 -10.602,14.175 -9.4919,13.555 -9.7734,14.969 -9.1016,15.051 -8.082,14.277 -8.207,15.769 -7.2344,14.942 -6.582,14.875 -6.6524,16.355 -5.7187,15.461 -5.6602,16.93 -4.9883,16.82 -4.1718,15.793 -3.9571,17.285 -0.2031,1.032 -0.2383,1.007 -0.4062,2.032 -0.8008,4.039 -1.543,8.156 -0.0469,0.254 -0.0546,0.285 -0.0782,0.566 -0.207,1.102 -0.3828,2.188 -0.7188,4.425 -0.1015,0.567 -0.0782,0.543 -0.1835,1.101 -0.35552,2.235 -0.64844,4.429 -0.04687,0.285 -0.02734,0.254 -0.08204,0.539 -0.15234,1.106 -0.30469,2.164 -0.59375,4.375 -0.02734,0.277 -0.02344,0.258 -0.07422,0.543 -0.13281,1.102 -0.28125,2.187 -0.48828,4.375 -0.02734,0.254 -0.05469,0.262 -0.05078,0.511 -0.09766,1.004 -0.20703,2.059 -0.41406,4.09 -0.02344,0.23 -0.17969,1.801 -0.18359,2.031 -0.33203,4.118 -0.02735,0.257 -0.07422,0.852 -0.23437,3.32 -0.05078,0.563 -0.05469,0.539 -0.07031,1.133 -0.13281,2.211 -0.02344,0.285 -0.03125,0.257 -0.02344,0.563 -0.07422,1.109 -0.10547,2.235 -0.23047,4.453 -0.02343,0.254 v 0.258 l -0.07813,1.543 -0.08203,2.085 -0.01953,0.258 v 0.254 l -0.02344,0.52 -0.03125,1.054 -0.07812,2.079 v 0.261 l -0.02344,0.258 v 0.512 l -0.02344,1.031 -0.03125,0.258 v 0.797 l -0.02344,1.031 -0.01953,0.254 v 0.801 l -0.03125,1.023 v 0.52 l -0.02343,0.511 v 1.055 l -0.02735,0.258 v 1.262 l -0.02734,0.511 v 2.547 L 3.75,533.672 v 6.867 l 0.02344,0.516 v 2.289 l 0.02734,0.258 v 1.796 l 0.02735,0.286 v 0.535 l 0.02343,1.109 v 0.567 l 0.03125,0.543 0.01953,1.101 v 0.566 l 0.02344,0.543 0.07813,3.317 0.02734,0.289 v 0.281 l 0.02734,0.535 0.02344,1.11 0.07422,2.211 0.02734,0.285 v 0.258 l 0.02344,0.566 0.16406,3.316 v 0.258 l 0.02344,0.258 0.17578,3.602 0.03125,0.257 v 0.254 l 0.05078,0.512 0.05079,1.031 0.125,2.063 0.02734,0.258 v 0.254 l 0.02344,0.511 0.53906,7.207 0.02734,0.282 v 0.277 l 0.0586,0.539 0.09765,1.133 0.1836,2.215 0.40625,4.453 0.10937,1.129 0.125,1.105 0.20703,2.211 0.49219,4.457 0.02344,0.281 0.04297,0.258 0.05468,0.567 0.13282,1.078 0.2539,2.187 0.54297,4.348 1.20313,8.691 0.05078,0.258 0.02734,0.254 0.07813,0.516 0.15234,1.007 0.3125,2.028 0.6445,4.047 1.3633,8.07 0.0508,0.254 0.0547,0.289 0.0976,0.539 0.1758,1.105 0.4141,2.184 0.8281,4.352 1.7774,8.699 3.6992,16.176 4.1172,15.718 5.0195,16.926 5.1641,15.613 6.1523,16.75 6.2227,15.461 6.5859,14.946 7.668,15.968 7.6132,14.664 8.7735,15.61 9.1054,15.058 8.9454,13.762 10.1603,14.609 9.933,13.301 10.137,12.754 11.426,13.481 11.055,12.222 0.418,0.41 0.382,0.438 0.789,0.824 1.582,1.668 3.184,3.32 0.176,0.207 0.215,0.239 0.41,0.402 0.793,0.824 1.621,1.649 0.184,0.199 0.207,0.184 0.41,0.414 0.8,0.82 1.434,1.441 0.188,0.203 m 0,0 0.175,0.192 0.203,0.176 1.075,1.078 4.406,4.316 5.945,5.692 13.196,11.984 12.675,10.809 12.735,10.179 14.179,10.602 13.555,9.492 14.969,9.777 15.051,9.102 14.277,8.076 15.77,8.21 14.941,7.23 14.863,6.59 16.367,6.66 15.461,5.71 16.934,5.66 16.816,4.99 15.801,4.17 17.285,3.96 1.024,0.2 0.996,0.24 2.043,0.4 4.031,0.8 8.164,1.55 0.254,0.05 0.285,0.05 0.555,0.08 1.113,0.2 2.188,0.39 4.425,0.71 0.567,0.11 0.535,0.08 1.113,0.18 2.239,0.35 4.421,0.65 0.286,0.05 0.253,0.03 0.536,0.08 1.113,0.15 2.16,0.31 4.375,0.59 0.281,0.03 0.254,0.02 0.539,0.08 1.114,0.13 2.187,0.28 4.363,0.49 0.266,0.02 0.254,0.06 0.515,0.05 0.997,0.1 2.062,0.2 4.09,0.42 0.234,0.02 1.797,0.18 2.031,0.19 4.122,0.33 0.253,0.03 0.852,0.07 3.32,0.23 0.567,0.05 0.535,0.06 1.133,0.07 2.207,0.13 0.285,0.02 0.262,0.03 0.566,0.03 1.105,0.07 2.235,0.11 4.453,0.23 0.254,0.02 h 0.265 l 1.543,0.08 2.079,0.09 0.253,0.02 h 0.266 l 0.508,0.02 1.055,0.03 2.089,0.07 h 0.254 l 0.254,0.03 h 0.516 l 1.027,0.03 0.262,0.02 h 0.793 l 1.035,0.03 0.254,0.02 h 0.801 l 1.023,0.03 h 0.52 l 0.515,0.02 h 1.055 l 0.254,0.03 h 1.262 l 0.515,0.02 h 2.539 l 0.266,0.03 h 6.863 l 0.52,-0.03 h 2.293 l 0.254,-0.02 h 1.797 l 0.285,-0.03 h 0.535 l 1.105,-0.02 h 0.567 l 0.547,-0.03 1.101,-0.02 h 0.567 l 0.539,-0.03 3.32,-0.08 0.281,-0.02 h 0.285 l 0.536,-0.03 1.113,-0.02 2.207,-0.07 0.285,-0.04 h 0.254 l 0.566,-0.02 3.321,-0.16 h 0.261 l 0.254,-0.03 3.606,-0.17 0.254,-0.03 h 0.254 l 0.515,-0.05 1.027,-0.05 2.059,-0.13 0.266,-0.02 h 0.254 l 0.515,-0.03 7.199,-0.54 0.293,-0.02 h 0.274 l 0.535,-0.06 1.133,-0.1 2.219,-0.19 4.453,-0.4 1.121,-0.11 1.113,-0.12 2.207,-0.21 4.453,-0.49 0.285,-0.03 0.254,-0.04 0.567,-0.06 1.082,-0.13 2.187,-0.25 4.348,-0.54 8.691,-1.21 0.262,-0.05 0.254,-0.03 0.519,-0.08 0.997,-0.15 2.031,-0.31 4.043,-0.65 8.074,-1.36 0.254,-0.05 0.285,-0.06 0.547,-0.09 1.101,-0.18 2.188,-0.41 4.348,-0.83 8.691,-1.77 16.18,-3.71 15.722,-4.11 16.926,-5.02 15.613,-5.17 16.75,-6.15 15.457,-6.22 14.942,-6.59 15.976,-7.66 14.668,-7.62 15.618,-8.77 15.046,-9.109 13.762,-8.946 14.61,-10.16 13.3,-9.929 12.754,-10.137 13.485,-11.426 12.218,-11.055 0.411,-0.418 0.437,-0.378 0.82,-0.801 1.672,-1.574 3.321,-3.188 0.203,-0.176 0.234,-0.215 0.41,-0.406 0.821,-0.793 1.652,-1.621 0.203,-0.187 0.176,-0.203 0.422,-0.407 0.82,-0.804 1.434,-1.43 0.207,-0.192 M 93.6523,833.512 94.0156,833.48 h 0.3907 l 0.7656,-0.054 1.5117,-0.067 9.1134,-0.543 12.238,-0.746 26.735,-1.804 25.285,-1.926 25.105,-2.11 27.656,-2.679 0.383,-0.051 0.418,-0.02 0.821,-0.082 1.621,-0.175 3.261,-0.332 6.563,-0.731 0.39,-0.043 0.411,-0.027 0.82,-0.106 4.941,-0.539 1.641,-0.207 1.652,-0.183 3.321,-0.383 0.429,-0.055 0.469,-0.047 0.879,-0.101 0.457,-0.051 0.441,-0.055 0.899,-0.105 0.457,-0.074 0.441,-0.047 0.457,-0.055 0.371,0.055 0.371,0.379 0.422,0.386 0.176,0.203 0.594,0.598 0.801,0.774 1.613,1.558 0.184,0.219 0.207,0.176 0.41,0.414 0.789,0.765 1.621,1.543 3.281,3.063 0.195,0.18 0.207,0.21 0.391,0.356 0.828,0.754 1.621,1.488 3.262,2.926 6.641,5.766 12.695,10.371 14.23,10.644 13.711,9.34 13.817,8.613 15.351,8.7 14.7,7.507 16.23,7.438 16.219,6.586 15.422,5.504 16.922,5.246 0.265,0.078 0.254,0.055 0.488,0.152 0.996,0.281 1.981,0.543 4.016,1.078 8.027,2.035 0.254,0.047 0.281,0.078 1.621,0.383 2.188,0.52 4.375,0.972 0.566,0.106 0.539,0.133 1.113,0.23 2.176,0.461 4.406,0.875 0.254,0.055 0.282,0.043 3.781,0.722 4.355,0.774 0.254,0.051 0.281,0.031 0.54,0.098 3.242,0.539 4.375,0.671 0.234,0.024 0.254,0.055 1.543,0.23 2.031,0.281 4.063,0.543 0.515,0.055 0.489,0.066 1.027,0.133 2.031,0.235 4.09,0.457 0.285,0.031 0.262,0.023 0.566,0.078 1.106,0.11 2.207,0.226 0.566,0.047 0.547,0.055 1.102,0.105 2.238,0.176 0.254,0.028 0.848,0.078 1.113,0.082 2.207,0.172 4.453,0.308 h 0.254 l 0.265,0.031 0.508,0.028 1.055,0.07 2.059,0.106 h 0.253 l 0.266,0.027 0.535,0.023 1.028,0.059 2.089,0.098 h 0.508 l 1.543,0.078 h 0.547 l 0.508,0.023 1.035,0.027 0.254,0.028 h 0.254 l 0.547,0.027 1.023,0.016 h 0.52 l 0.515,0.027 1.055,0.027 h 0.996 l 0.266,0.028 h 1.277 l 0.52,0.023 h 2.031 l 0.254,0.028 h 6.101 l 0.254,-0.028 h 2.032 l 0.519,-0.023 h 1.023 l 1.008,-0.028 h 0.282 l 0.285,-0.027 h 0.535 l 1.105,-0.027 h 0.282 l 0.285,-0.016 h 0.547 l 1.101,-0.027 0.285,-0.028 h 0.282 l 0.539,-0.027 1.113,-0.023 2.207,-0.11 h 0.281 l 0.285,-0.023 0.536,-0.02 3.32,-0.156 h 0.285 l 0.254,-0.027 0.566,-0.028 1.114,-0.074 2.187,-0.129 0.254,-0.023 h 0.254 l 0.516,-0.063 1.027,-0.047 2.058,-0.152 0.52,-0.055 0.508,-0.027 1.035,-0.066 2.059,-0.188 0.507,-0.055 0.52,-0.019 1.023,-0.102 2.063,-0.179 4.375,-0.442 0.281,-0.054 0.566,-0.043 3.321,-0.391 4.445,-0.539 0.567,-0.051 0.546,-0.082 3.309,-0.461 4.426,-0.644 0.281,-0.024 0.266,-0.051 0.566,-0.078 1.074,-0.175 2.168,-0.336 4.317,-0.746 8.64,-1.602 0.266,-0.043 0.223,-0.051 0.519,-0.082 3.008,-0.621 4.012,-0.848 7.98,-1.824 0.281,-0.082 0.254,-0.047 0.539,-0.129 1.082,-0.281 2.16,-0.515 4.297,-1.106 8.563,-2.363 15.851,-4.895 15.301,-5.449 16.36,-6.586 15,-6.816 15.898,-8.059 14.531,-8.148 13.895,-8.594 14.66,-9.922 13.281,-9.879 13.914,-11.297 13.145,-11.679 0.176,-0.153 0.207,-0.179 0.371,-0.364 0.73,-0.695 1.496,-1.406 0.203,-0.164 0.547,-0.536 0.742,-0.718 1.497,-1.414 0.722,-0.731 0.742,-0.687 0.723,-0.715 0.742,-0.731 1.446,-1.433 0.175,-0.211 0.176,-0.176 h 0.391 l 2.058,0.254 0.871,0.105 0.899,0.106 5.332,0.613 7.098,0.797 14.074,1.523 25.976,2.516 25.078,2.168 26.856,2.024 24.746,1.675 0.418,0.028 0.43,0.023 0.879,0.082 1.699,0.098 10.265,0.617 0.438,0.027 0.41,0.028 0.852,0.05 1.718,0.102 3.399,0.199 0.437,0.028 0.41,0.027 2.551,0.164 0.43,0.023 0.418,0.02 0.84,0.047 h 0.441 l 0.41,0.031 0.438,0.023 0.41,0.032 M 44.3398,741.289 h 0.7188 l 0.6992,-0.023 1.4141,-0.032 2.8047,-0.054 5.6328,-0.098 11.289,-0.23 24.6211,-0.539 23.1255,-0.59 22.851,-0.649 24.969,-0.793 23.566,-0.91 25.801,-1.101 25.691,-1.309 24.309,-1.473 0.418,-0.015 0.43,-0.028 0.832,-0.054 1.668,-0.106 3.32,-0.23 6.691,-0.461 13.477,-1.008 0.41,-0.02 0.391,-0.05 0.789,-0.059 1.574,-0.129 3.184,-0.254 6.355,-0.515 12.863,-1.161 0.391,-0.019 0.391,-0.051 2.382,-0.23 3.165,-0.309 6.406,-0.621 0.39,-0.051 0.411,-0.058 2.39,-0.223 3.223,-0.367 6.476,-0.688 3.496,-0.414 0.469,-0.051 1.746,-0.211 0.469,-0.042 1.738,-0.215 0.461,-0.043 h 0.391 l 0.176,0.207 0.215,0.172 1.953,1.961 0.203,0.175 0.187,0.184 0.41,0.383 0.801,0.769 1.59,1.52 3.242,3.012 0.176,0.175 0.207,0.16 0.359,0.356 0.774,0.695 1.543,1.367 3.113,2.7 6.328,5.273 14.278,10.731 14.687,9.566 14.231,8.055 15.945,7.711 0.254,0.105 0.695,0.309 2.859,1.23 3.801,1.602 7.723,2.984 0.285,0.098 0.762,0.312 1.054,0.36 2.118,0.773 4.238,1.438 0.285,0.109 0.262,0.074 0.539,0.18 1.055,0.332 2.136,0.691 4.289,1.317 0.516,0.148 0.539,0.156 1.055,0.317 2.109,0.59 4.246,1.152 0.285,0.055 0.254,0.078 0.547,0.125 1.055,0.285 2.129,0.516 4.297,1.031 0.515,0.097 0.489,0.106 1.007,0.23 2,0.414 4.043,0.825 0.227,0.05 0.769,0.153 1.008,0.176 2.031,0.367 4.043,0.687 0.282,0.055 0.254,0.027 0.566,0.102 1.086,0.152 2.207,0.336 0.281,0.051 0.266,0.027 0.566,0.074 1.102,0.157 2.207,0.285 0.265,0.051 0.282,0.031 0.539,0.066 3.32,0.391 4.453,0.465 0.254,0.023 h 0.254 l 1.543,0.156 2.09,0.153 1.023,0.105 1.028,0.047 2.089,0.156 h 0.254 l 0.254,0.028 0.516,0.023 1.055,0.074 h 0.253 l 0.266,0.028 1.543,0.082 h 0.254 l 0.254,0.023 h 0.547 l 1.023,0.055 h 0.266 l 0.254,0.023 0.515,0.032 1.055,0.015 h 0.254 l 0.254,0.028 h 0.754 l 0.254,0.023 h 0.769 l 0.254,0.027 h 1.008 l 0.516,0.028 h 1.543 l 0.226,0.027 h 5.125 l 0.227,-0.027 h 1.543 l 0.515,-0.028 h 0.489 l 0.519,-0.027 h 0.516 l 0.507,-0.023 1.008,-0.028 h 0.567 l 0.535,-0.015 1.105,-0.055 h 0.567 l 0.547,-0.031 1.101,-0.047 0.285,-0.031 h 0.282 l 0.539,-0.024 1.113,-0.074 2.207,-0.129 h 0.281 l 0.254,-0.027 0.567,-0.028 1.113,-0.078 2.187,-0.176 0.559,-0.054 0.547,-0.032 3.32,-0.304 0.254,-0.02 0.234,-0.023 1.543,-0.16 2.051,-0.235 1.035,-0.105 1.024,-0.121 2.031,-0.258 0.519,-0.051 0.516,-0.082 1.027,-0.129 2.032,-0.281 4.09,-0.617 0.285,-0.051 0.254,-0.055 0.566,-0.07 1.102,-0.184 2.187,-0.386 4.406,-0.821 0.567,-0.101 0.535,-0.106 1.105,-0.238 2.188,-0.43 4.344,-0.976 0.285,-0.051 0.261,-0.055 1.622,-0.386 2.109,-0.512 4.269,-1.078 8.438,-2.395 0.254,-0.078 0.234,-0.082 0.516,-0.121 2.93,-0.934 3.886,-1.257 7.715,-2.7 0.285,-0.101 0.254,-0.11 0.516,-0.175 1.027,-0.383 2.09,-0.801 4.109,-1.648 8.184,-3.469 14.941,-7.207 14.153,-7.977 14.812,-9.594 13.203,-9.796 0.227,-0.176 0.203,-0.188 0.441,-0.328 0.879,-0.695 1.719,-1.418 3.426,-2.852 0.226,-0.183 0.625,-0.543 0.84,-0.719 1.7,-1.469 3.32,-2.98 0.183,-0.153 0.207,-0.183 0.379,-0.356 0.774,-0.699 1.523,-1.418 0.176,-0.176 0.203,-0.175 0.391,-0.364 2.238,-2.16 0.203,-0.179 0.539,-0.54 0.75,-0.718 0.918,-0.926 0.207,-0.184 0.36,-0.355 0.187,-0.211 0.254,-0.098 1.238,0.153 0.43,0.046 0.832,0.083 0.41,0.042 0.438,0.055 0.82,0.106 1.672,0.179 0.41,0.051 0.391,0.051 0.82,0.101 1.621,0.18 3.262,0.36 6.465,0.699 12.8,1.258 0.422,0.054 0.43,0.047 0.879,0.082 1.719,0.152 3.425,0.309 6.868,0.621 13.554,1.106 0.41,0.027 0.391,0.043 0.801,0.055 1.562,0.129 3.145,0.23 6.25,0.465 12.422,0.848 26.601,1.621 25.723,1.308 23.66,1.035 25.391,0.973 23.468,0.773 22.813,0.645 24.539,0.617 22.763,0.516 h 0.39 l 0.41,0.023 h 0.8 l 1.57,0.055 3.16,0.043 6.33,0.133 h 0.39 l 0.38,0.027 h 0.8 l 1.57,0.031 3.17,0.067 h 0.77 l 0.79,0.023 1.57,0.031 h 0.41 l 0.39,0.032 h 1.18 l 0.38,0.023 h 0.81 M 13.9883,641.219 h 5.3476 l 5.3282,-0.024 10.6953,-0.023 23.1797,-0.055 21.7148,-0.078 21.3011,-0.101 23.203,-0.106 21.683,-0.098 23.582,-0.129 23.282,-0.175 h 1.367 l 1.367,-0.032 2.695,-0.027 5.461,-0.023 10.907,-0.11 h 0.382 l 0.36,-0.023 h 2.238 l 2.957,-0.02 5.938,-0.078 11.914,-0.133 h 1.386 l 1.399,-0.031 2.773,-0.023 5.574,-0.067 11.204,-0.164 h 0.691 l 0.695,-0.027 h 1.367 l 2.754,-0.043 5.516,-0.078 11.066,-0.176 h 0.36 l 0.383,-0.031 h 0.75 l 1.515,-0.024 3.016,-0.054 6.047,-0.129 h 0.742 l 0.769,-0.028 1.516,-0.019 3.016,-0.055 6.093,-0.129 0.364,-0.031 h 0.332 l 0.722,-0.023 1.414,-0.02 2.852,-0.055 5.715,-0.156 h 0.723 l 0.691,-0.027 1.437,-0.043 2.879,-0.055 5.743,-0.187 h 0.773 l 0.789,-0.024 1.543,-0.043 3.145,-0.109 6.3,-0.176 0.379,-0.027 h 0.391 l 0.801,-0.028 1.562,-0.05 3.176,-0.11 6.355,-0.226 0.371,-0.028 h 0.391 l 0.774,-0.047 1.57,-0.05 3.137,-0.129 6.308,-0.262 0.399,-0.023 h 0.39 l 0.801,-0.055 1.563,-0.043 9.582,-0.473 0.351,-0.023 0.391,-0.028 0.742,-0.019 1.492,-0.082 3.02,-0.176 6.015,-0.332 0.77,-0.055 0.742,-0.05 1.523,-0.082 9.18,-0.614 0.82,-0.054 0.852,-0.047 1.668,-0.133 3.379,-0.258 6.758,-0.543 0.441,-0.019 0.438,-0.047 2.55,-0.239 3.446,-0.304 6.945,-0.668 0.41,-0.063 0.379,-0.023 0.832,-0.098 1.641,-0.16 0.828,-0.094 0.82,-0.082 1.641,-0.199 0.41,-0.031 3.293,-0.414 0.281,0.105 0.215,0.18 0.898,0.902 0.207,0.176 0.547,0.539 0.743,0.731 1.511,1.41 3.117,2.73 0.204,0.176 0.207,0.203 0.437,0.363 0.852,0.715 1.746,1.418 3.527,2.754 0.234,0.156 0.223,0.176 0.442,0.344 0.898,0.633 1.855,1.316 3.7,2.492 0.468,0.309 0.461,0.281 0.926,0.598 1.875,1.156 3.809,2.211 0.234,0.121 0.254,0.164 0.461,0.254 2.937,1.543 3.938,1.957 0.223,0.133 0.703,0.305 0.918,0.437 1.886,0.848 3.778,1.593 0.254,0.079 0.234,0.101 0.488,0.188 0.95,0.379 1.902,0.722 3.887,1.336 0.265,0.102 0.274,0.082 0.515,0.179 1.086,0.329 2.11,0.648 0.281,0.078 0.254,0.074 1.621,0.469 2.14,0.59 0.282,0.043 0.254,0.086 0.539,0.129 1.082,0.285 2.16,0.48 4.375,0.907 1.023,0.203 1.008,0.176 2.059,0.335 0.254,0.055 0.265,0.024 1.543,0.23 2.051,0.289 1.035,0.098 1.024,0.133 0.519,0.05 0.535,0.051 2.063,0.203 1.023,0.078 0.52,0.047 0.535,0.028 1.035,0.078 h 0.254 l 0.254,0.023 0.488,0.031 0.266,0.032 h 0.254 l 0.515,0.023 0.254,0.02 h 0.254 l 0.52,0.023 h 0.234 l 0.254,0.024 h 0.516 l 0.253,0.031 h 0.774 l 0.254,0.027 h 1.004 l 0.265,0.024 h 3.575 l 0.253,-0.024 h 1.004 l 0.254,-0.027 h 0.774 l 0.254,-0.031 0.515,-0.024 h 0.489 l 0.519,-0.023 0.262,-0.02 h 0.254 l 0.507,-0.023 1.008,-0.063 0.567,-0.047 0.535,-0.023 1.105,-0.082 0.282,-0.024 0.265,-0.023 0.567,-0.055 1.101,-0.078 0.254,-0.023 0.285,-0.028 0.547,-0.054 3.309,-0.379 0.265,-0.028 0.282,-0.05 0.539,-0.082 1.101,-0.149 2.188,-0.34 0.265,-0.027 0.282,-0.051 0.539,-0.101 1.082,-0.176 2.179,-0.414 0.262,-0.047 0.254,-0.031 0.488,-0.098 1.035,-0.238 2.004,-0.438 0.254,-0.051 0.235,-0.054 0.515,-0.121 0.996,-0.235 2.012,-0.508 0.234,-0.058 0.254,-0.074 0.52,-0.125 0.976,-0.262 1.981,-0.566 3.957,-1.235 0.262,-0.082 0.254,-0.094 0.539,-0.191 1.054,-0.352 2.117,-0.75 4.161,-1.593 1.027,-0.41 1.035,-0.446 2.051,-0.89 4.07,-1.887 0.254,-0.098 0.235,-0.133 0.488,-0.226 0.996,-0.488 1.933,-1.004 3.86,-2.114 0.254,-0.121 0.234,-0.16 0.469,-0.254 0.945,-0.566 1.875,-1.133 3.711,-2.34 0.227,-0.152 0.203,-0.129 0.441,-0.285 0.848,-0.59 1.672,-1.164 3.32,-2.387 0.82,-0.621 0.801,-0.641 1.621,-1.261 3.164,-2.598 0.821,-0.723 0.847,-0.742 1.653,-1.472 0.203,-0.172 0.215,-0.207 0.402,-0.364 0.82,-0.769 0.391,-0.391 0.41,-0.351 0.801,-0.774 1.18,-1.183 0.253,-0.133 0.469,0.054 0.871,0.106 0.899,0.098 1.777,0.211 1.746,0.203 1.777,0.175 3.497,0.387 0.421,0.031 0.411,0.051 0.789,0.074 4.863,0.469 6.406,0.563 0.41,0.047 0.391,0.031 0.793,0.047 1.602,0.132 3.164,0.258 6.269,0.461 0.77,0.055 0.773,0.07 4.559,0.309 6.066,0.363 0.359,0.027 0.391,0.028 0.742,0.051 1.524,0.074 2.98,0.183 5.965,0.309 0.832,0.047 0.789,0.051 1.602,0.078 3.215,0.152 6.375,0.281 0.41,0.032 0.39,0.023 0.793,0.031 1.602,0.071 3.164,0.128 6.297,0.231 0.39,0.027 h 0.352 l 0.723,0.028 1.464,0.05 2.942,0.133 5.808,0.176 0.383,0.027 h 0.36 l 2.168,0.078 2.902,0.075 5.762,0.187 0.41,0.024 h 0.39 l 0.782,0.019 1.562,0.055 3.106,0.078 6.199,0.148 0.391,0.028 h 0.382 l 0.801,0.027 1.543,0.024 9.258,0.23 h 0.691 l 0.723,0.031 4.328,0.078 5.703,0.125 11.406,0.211 H 789 l 0.34,0.024 h 0.695 l 4.16,0.074 5.555,0.078 11.066,0.176 h 0.77 l 0.742,0.027 1.496,0.031 2.989,0.024 5.964,0.078 11.914,0.152 h 1.387 l 1.387,0.032 2.785,0.023 5.527,0.078 11.036,0.098 h 1.492 l 1.484,0.023 8.957,0.082 11.883,0.11 h 1.465 l 1.465,0.023 2.91,0.024 5.812,0.019 11.629,0.082 21.633,0.156 23.387,0.098 21.738,0.106 21.27,0.082 23.052,0.074 21.43,0.078 h 3.01 l 2.98,0.023 h 7.46 l 1.49,0.024 h 8.98 M 537.496,537.168 h 533.084 m -1066.83,0 H 536.832 M 13.9883,433.113 h 5.3476 l 5.3282,0.028 10.6953,0.023 23.1797,0.055 21.7148,0.078 21.3011,0.101 23.203,0.102 21.683,0.102 23.582,0.128 23.282,0.18 h 1.367 l 1.367,0.024 2.695,0.031 5.461,0.023 10.907,0.102 h 0.382 l 0.36,0.023 h 2.238 l 2.957,0.028 5.938,0.078 11.914,0.133 h 1.386 l 1.399,0.023 2.773,0.023 5.574,0.079 11.204,0.156 h 0.691 l 0.695,0.023 h 1.367 l 2.754,0.051 5.516,0.078 11.066,0.18 h 0.36 l 0.383,0.023 h 0.75 l 1.515,0.032 3.016,0.046 6.047,0.129 h 0.742 l 0.769,0.028 1.516,0.023 3.016,0.055 6.093,0.129 0.364,0.023 h 0.332 l 0.722,0.024 1.414,0.031 2.852,0.047 5.715,0.156 h 0.723 l 0.691,0.023 1.437,0.055 2.879,0.051 5.743,0.18 h 0.773 l 0.789,0.023 1.543,0.055 3.145,0.101 6.3,0.184 0.379,0.023 h 0.391 l 0.801,0.024 1.562,0.054 3.176,0.102 6.355,0.23 0.371,0.028 h 0.391 l 0.774,0.051 1.57,0.05 3.137,0.129 6.308,0.258 0.399,0.023 h 0.39 l 0.801,0.055 1.563,0.051 9.582,0.465 0.351,0.023 0.391,0.031 0.742,0.024 1.492,0.074 3.02,0.18 6.015,0.336 0.77,0.047 0.742,0.054 1.523,0.078 9.18,0.618 0.82,0.05 0.852,0.051 1.668,0.137 3.379,0.25 6.758,0.539 0.441,0.023 0.438,0.055 2.55,0.231 3.446,0.308 6.945,0.668 0.41,0.055 0.379,0.023 0.832,0.102 1.641,0.156 0.828,0.102 0.82,0.082 1.641,0.203 0.41,0.023 3.293,0.41 0.281,-0.101 0.215,-0.18 0.898,-0.898 0.207,-0.184 0.547,-0.535 0.743,-0.723 1.511,-1.418 3.117,-2.722 0.204,-0.18 0.207,-0.207 0.437,-0.359 0.852,-0.719 1.746,-1.414 3.527,-2.754 0.234,-0.152 0.223,-0.18 0.442,-0.34 0.898,-0.645 1.855,-1.308 3.7,-2.492 0.468,-0.309 0.461,-0.285 0.926,-0.594 1.875,-1.156 3.809,-2.215 0.234,-0.125 0.254,-0.156 0.461,-0.254 2.937,-1.543 3.938,-1.957 0.223,-0.129 0.703,-0.309 0.918,-0.437 1.886,-0.852 3.778,-1.589 0.254,-0.079 0.234,-0.101 0.488,-0.184 0.95,-0.386 1.902,-0.719 3.887,-1.34 0.265,-0.102 0.274,-0.078 0.515,-0.176 1.086,-0.339 2.11,-0.645 0.281,-0.07 0.254,-0.078 1.621,-0.465 2.14,-0.59 0.282,-0.055 0.254,-0.078 0.539,-0.129 1.082,-0.281 2.16,-0.488 4.375,-0.899 1.023,-0.211 1.008,-0.175 2.059,-0.336 0.254,-0.047 0.265,-0.032 1.543,-0.23 2.051,-0.281 1.035,-0.106 1.024,-0.129 0.519,-0.05 0.535,-0.051 2.063,-0.207 1.023,-0.078 0.52,-0.047 0.535,-0.028 1.035,-0.078 h 0.254 l 0.254,-0.023 0.488,-0.031 0.266,-0.024 h 0.254 l 0.515,-0.023 0.254,-0.024 h 0.254 l 0.52,-0.031 h 0.234 l 0.254,-0.023 h 0.516 l 0.253,-0.024 h 0.774 l 0.254,-0.031 h 1.004 l 0.265,-0.023 h 3.575 l 0.253,0.023 h 1.004 l 0.254,0.031 h 0.774 l 0.254,0.024 0.515,0.023 h 0.489 l 0.519,0.031 0.262,0.024 h 0.254 l 0.507,0.023 1.008,0.055 0.567,0.051 0.535,0.023 1.105,0.078 0.282,0.024 0.265,0.031 0.567,0.047 1.101,0.078 0.254,0.023 0.285,0.032 0.547,0.046 3.309,0.387 0.265,0.024 0.282,0.054 0.539,0.078 1.101,0.153 2.188,0.336 0.265,0.023 0.282,0.055 0.539,0.101 1.082,0.18 2.179,0.41 0.262,0.051 0.254,0.027 0.488,0.106 1.035,0.238 2.004,0.43 0.254,0.051 0.235,0.05 0.515,0.129 0.996,0.235 2.012,0.511 0.234,0.055 0.254,0.07 0.52,0.133 0.976,0.254 1.981,0.567 3.957,1.238 0.262,0.078 0.254,0.101 0.539,0.18 1.054,0.36 2.117,0.746 4.161,1.593 1.027,0.411 1.035,0.441 2.051,0.898 4.07,1.879 0.254,0.102 0.235,0.129 0.488,0.234 0.996,0.488 1.933,1 3.86,2.11 0.254,0.133 0.234,0.148 0.469,0.262 0.945,0.566 1.875,1.133 3.711,2.34 0.227,0.152 0.203,0.129 0.441,0.281 0.848,0.594 1.672,1.156 3.32,2.395 0.82,0.617 0.801,0.641 1.621,1.257 3.164,2.606 0.821,0.719 0.847,0.746 1.653,1.465 0.203,0.179 0.215,0.203 0.402,0.364 0.82,0.769 0.391,0.387 0.41,0.363 0.801,0.77 1.18,1.183 0.253,0.125 0.469,-0.046 0.871,-0.106 0.899,-0.102 1.777,-0.203 1.746,-0.211 1.777,-0.175 3.497,-0.387 0.421,-0.027 0.411,-0.051 0.789,-0.078 4.863,-0.461 6.406,-0.571 0.41,-0.046 0.391,-0.032 0.793,-0.047 1.602,-0.128 3.164,-0.258 6.269,-0.461 0.77,-0.055 0.773,-0.074 4.559,-0.313 6.066,-0.355 0.359,-0.031 0.391,-0.024 0.742,-0.051 1.524,-0.078 2.98,-0.179 5.965,-0.305 0.832,-0.055 0.789,-0.051 1.602,-0.078 3.215,-0.156 6.375,-0.281 0.41,-0.028 0.39,-0.023 0.793,-0.027 1.602,-0.075 3.164,-0.132 6.297,-0.231 0.39,-0.023 h 0.352 l 0.723,-0.028 1.464,-0.05 2.942,-0.125 5.808,-0.184 0.383,-0.027 h 0.36 l 2.168,-0.075 2.902,-0.078 5.762,-0.179 0.41,-0.024 h 0.39 l 0.782,-0.031 1.562,-0.047 3.106,-0.078 6.199,-0.156 0.391,-0.028 h 0.382 l 0.801,-0.023 1.543,-0.023 9.258,-0.235 h 0.691 l 0.723,-0.023 4.328,-0.078 5.703,-0.129 11.406,-0.203 H 789 l 0.34,-0.032 h 0.695 l 4.16,-0.074 5.555,-0.074 11.066,-0.184 h 0.77 l 0.742,-0.023 1.496,-0.031 2.989,-0.024 5.964,-0.078 11.914,-0.148 h 1.387 l 1.387,-0.032 2.785,-0.023 5.527,-0.078 11.036,-0.106 h 1.492 l 1.484,-0.023 8.957,-0.078 11.883,-0.102 h 1.465 l 1.465,-0.023 2.91,-0.028 5.812,-0.027 11.629,-0.078 21.633,-0.152 23.387,-0.102 21.738,-0.102 21.27,-0.078 23.052,-0.078 21.43,-0.078 h 3.01 l 2.98,-0.023 h 7.46 l 1.49,-0.028 h 8.98 M 44.3398,333.047 h 0.7188 l 0.6992,0.023 1.4141,0.032 2.8047,0.046 5.6328,0.102 11.289,0.234 24.6211,0.539 23.1255,0.59 22.851,0.645 24.969,0.797 23.566,0.902 25.801,1.102 25.691,1.316 24.309,1.473 0.418,0.019 0.43,0.024 0.832,0.05 1.668,0.11 3.32,0.226 6.691,0.465 13.477,1 0.41,0.031 0.391,0.047 0.789,0.055 1.574,0.129 3.184,0.258 6.355,0.511 12.863,1.157 0.391,0.023 0.391,0.055 2.382,0.23 3.165,0.309 6.406,0.617 0.39,0.051 0.411,0.055 2.39,0.226 3.223,0.363 6.476,0.696 3.496,0.414 0.469,0.047 1.746,0.207 0.469,0.05 1.738,0.207 0.461,0.055 h 0.391 l 0.176,-0.211 0.215,-0.176 1.953,-1.957 0.203,-0.179 0.187,-0.184 0.41,-0.387 0.801,-0.769 1.59,-1.516 3.242,-3.011 0.176,-0.18 0.207,-0.152 0.359,-0.36 0.774,-0.695 1.543,-1.367 3.113,-2.7 6.328,-5.273 14.278,-10.727 14.687,-9.566 14.231,-8.051 15.945,-7.722 0.254,-0.102 0.695,-0.309 2.859,-1.234 3.801,-1.598 7.723,-2.98 0.285,-0.106 0.762,-0.304 1.054,-0.364 2.118,-0.769 4.238,-1.441 0.285,-0.102 0.262,-0.078 0.539,-0.184 1.055,-0.332 2.136,-0.691 4.289,-1.313 0.516,-0.156 0.539,-0.152 1.055,-0.313 2.109,-0.59 4.246,-1.16 0.285,-0.047 0.254,-0.078 0.547,-0.129 1.055,-0.281 2.129,-0.519 4.297,-1.028 0.515,-0.101 0.489,-0.106 1.007,-0.226 2,-0.414 4.043,-0.825 0.227,-0.047 0.769,-0.156 1.008,-0.183 2.031,-0.36 4.043,-0.691 0.282,-0.055 0.254,-0.023 0.566,-0.106 1.086,-0.148 2.207,-0.34 0.281,-0.047 0.266,-0.031 0.566,-0.078 1.102,-0.153 2.207,-0.281 0.265,-0.055 0.282,-0.023 0.539,-0.078 3.32,-0.387 4.453,-0.465 0.254,-0.023 h 0.254 l 1.543,-0.152 2.09,-0.157 1.023,-0.101 1.028,-0.051 2.089,-0.152 h 0.254 l 0.254,-0.032 0.516,-0.023 1.055,-0.078 h 0.253 l 0.266,-0.024 1.543,-0.078 h 0.254 l 0.254,-0.023 h 0.547 l 1.023,-0.055 h 0.266 l 0.254,-0.023 0.515,-0.028 1.055,-0.023 h 0.254 l 0.254,-0.031 h 0.754 l 0.254,-0.024 h 0.769 l 0.254,-0.023 h 1.008 l 0.516,-0.024 h 1.543 l 0.226,-0.031 h 5.125 l 0.227,0.031 h 1.543 l 0.515,0.024 h 0.489 l 0.519,0.023 h 0.516 l 0.507,0.024 1.008,0.031 h 0.567 l 0.535,0.023 1.105,0.051 h 0.567 l 0.547,0.027 1.101,0.051 0.285,0.028 h 0.282 l 0.539,0.027 1.113,0.074 2.207,0.129 h 0.281 l 0.254,0.023 0.567,0.032 1.113,0.074 2.187,0.18 0.559,0.05 0.547,0.028 3.32,0.316 0.254,0.016 0.234,0.027 1.543,0.152 2.051,0.235 1.035,0.101 1.024,0.129 2.031,0.258 0.519,0.051 0.516,0.074 1.027,0.133 2.032,0.285 4.09,0.613 0.285,0.051 0.254,0.055 0.566,0.074 1.102,0.184 2.187,0.382 4.406,0.825 0.567,0.101 0.535,0.102 1.105,0.234 2.188,0.434 4.344,0.98 0.285,0.051 0.261,0.055 1.622,0.383 2.109,0.515 4.269,1.078 8.438,2.395 0.254,0.078 0.234,0.074 0.516,0.129 2.93,0.93 3.886,1.258 7.715,2.699 0.285,0.101 0.254,0.106 0.516,0.179 1.027,0.387 2.09,0.801 4.109,1.645 8.184,3.472 14.941,7.199 14.153,7.977 14.812,9.594 13.203,9.804 0.227,0.176 0.203,0.18 0.441,0.34 0.879,0.691 1.719,1.414 3.426,2.86 0.226,0.175 0.625,0.539 0.84,0.723 1.7,1.469 3.32,2.98 0.183,0.157 0.207,0.179 0.379,0.36 0.774,0.699 1.523,1.41 0.176,0.18 0.203,0.179 0.391,0.364 2.238,2.156 0.203,0.18 0.539,0.543 0.75,0.718 0.918,0.926 0.207,0.184 0.36,0.359 0.187,0.207 0.254,0.102 1.238,-0.157 0.43,-0.05 0.832,-0.079 0.41,-0.05 0.438,-0.051 0.82,-0.102 1.672,-0.179 0.41,-0.055 0.391,-0.051 0.82,-0.101 1.621,-0.18 3.262,-0.363 6.465,-0.692 12.8,-1.261 0.422,-0.051 0.43,-0.051 0.879,-0.078 1.719,-0.156 3.425,-0.305 6.868,-0.617 13.554,-1.11 0.41,-0.023 0.391,-0.055 0.801,-0.047 1.562,-0.132 3.145,-0.231 6.25,-0.465 12.422,-0.847 26.601,-1.622 25.723,-1.308 23.66,-1.031 25.391,-0.977 23.468,-0.769 22.813,-0.645 24.539,-0.617 22.763,-0.516 h 0.39 l 0.41,-0.023 h 0.8 l 1.57,-0.055 3.16,-0.051 6.33,-0.125 h 0.39 l 0.38,-0.031 h 0.8 l 1.57,-0.023 3.17,-0.079 h 0.77 l 0.79,-0.023 1.57,-0.023 h 0.41 l 0.39,-0.032 h 1.18 l 0.38,-0.023 h 0.81 m -936.3377,-92.223 0.3633,0.028 h 0.3907 l 0.7656,0.05 1.5117,0.078 9.1134,0.543 12.238,0.743 26.735,1.8 25.285,1.93 25.105,2.109 27.656,2.676 0.383,0.051 0.418,0.027 0.821,0.079 1.621,0.179 3.261,0.332 6.563,0.723 0.39,0.051 0.411,0.023 0.82,0.102 4.941,0.543 1.641,0.203 1.652,0.179 3.321,0.387 0.429,0.055 0.469,0.051 0.879,0.101 0.457,0.055 0.441,0.047 0.899,0.101 0.457,0.078 0.441,0.055 0.457,0.051 0.371,-0.051 0.371,-0.387 0.422,-0.382 0.176,-0.207 0.594,-0.594 0.801,-0.774 1.613,-1.562 0.184,-0.211 0.207,-0.18 0.41,-0.41 0.789,-0.769 1.621,-1.543 3.281,-3.063 0.195,-0.183 0.207,-0.204 0.391,-0.363 0.828,-0.746 1.621,-1.492 3.262,-2.93 6.641,-5.762 12.695,-10.367 14.23,-10.648 13.711,-9.344 13.817,-8.617 15.351,-8.692 14.7,-7.511 16.23,-7.434 16.219,-6.586 15.422,-5.504 16.922,-5.25 0.265,-0.078 0.254,-0.047 0.488,-0.156 0.996,-0.285 1.981,-0.539 4.016,-1.082 8.027,-2.031 0.254,-0.043 0.281,-0.082 1.621,-0.387 2.188,-0.52 4.375,-0.972 0.566,-0.106 0.539,-0.125 1.113,-0.234 2.176,-0.465 4.406,-0.875 0.254,-0.047 0.282,-0.055 3.781,-0.718 4.355,-0.77 0.254,-0.055 0.281,-0.023 0.54,-0.105 3.242,-0.54 4.375,-0.671 0.234,-0.024 0.254,-0.055 1.543,-0.226 2.031,-0.285 4.063,-0.539 0.515,-0.051 0.489,-0.078 1.027,-0.125 2.031,-0.239 4.09,-0.46 0.285,-0.028 0.262,-0.023 0.566,-0.078 1.106,-0.102 2.207,-0.23 0.566,-0.051 0.547,-0.055 1.102,-0.101 2.238,-0.176 0.254,-0.031 0.848,-0.079 1.113,-0.074 2.207,-0.179 4.453,-0.309 h 0.254 l 0.265,-0.027 0.508,-0.028 1.055,-0.078 2.059,-0.101 h 0.253 l 0.266,-0.024 0.535,-0.023 1.028,-0.055 2.089,-0.102 h 0.508 l 1.543,-0.078 h 0.547 l 0.508,-0.023 1.035,-0.027 0.254,-0.028 h 0.254 l 0.547,-0.023 1.023,-0.028 h 0.52 l 0.515,-0.023 1.055,-0.027 h 0.996 l 0.266,-0.028 h 1.277 l 0.52,-0.023 h 2.031 l 0.254,-0.024 h 6.101 l 0.254,0.024 h 2.032 l 0.519,0.023 h 1.023 l 1.008,0.028 h 0.282 l 0.285,0.027 h 0.535 l 1.105,0.023 h 0.282 l 0.285,0.028 h 0.547 l 1.101,0.023 0.285,0.028 h 0.282 l 0.539,0.027 1.113,0.023 2.207,0.102 h 0.281 l 0.285,0.027 0.536,0.028 3.32,0.152 h 0.285 l 0.254,0.027 0.566,0.024 1.114,0.078 2.187,0.129 0.254,0.023 h 0.254 l 0.516,0.055 1.027,0.047 2.058,0.156 0.52,0.055 0.508,0.023 1.035,0.078 2.059,0.184 0.507,0.047 0.52,0.023 1.023,0.106 2.063,0.179 4.375,0.438 0.281,0.051 0.566,0.05 3.321,0.387 4.445,0.543 0.567,0.051 0.546,0.078 3.309,0.461 4.426,0.64 0.281,0.036 0.266,0.043 0.566,0.078 1.074,0.179 2.168,0.332 4.317,0.747 8.64,1.597 0.266,0.051 0.223,0.055 0.519,0.078 3.008,0.613 4.012,0.852 7.98,1.824 0.281,0.078 0.254,0.059 0.539,0.121 1.082,0.285 2.16,0.512 4.297,1.109 8.563,2.363 15.851,4.887 15.301,5.453 16.36,6.59 15,6.812 15.898,8.055 14.531,8.152 13.895,8.594 14.66,9.93 13.281,9.875 13.914,11.297 13.145,11.676 0.176,0.152 0.207,0.18 0.371,0.363 0.73,0.691 1.496,1.418 0.203,0.156 0.547,0.536 0.742,0.722 1.497,1.414 0.722,0.727 0.742,0.687 0.723,0.723 0.742,0.719 1.446,1.441 0.175,0.203 0.176,0.184 h 0.391 l 2.058,-0.258 0.871,-0.101 0.899,-0.106 5.332,-0.617 7.098,-0.793 14.074,-1.52 25.976,-2.519 25.078,-2.164 26.856,-2.031 24.746,-1.676 0.418,-0.024 0.43,-0.023 0.879,-0.078 1.699,-0.106 10.265,-0.613 0.438,-0.027 0.41,-0.028 0.852,-0.047 1.718,-0.109 3.399,-0.203 0.437,-0.027 0.41,-0.024 2.551,-0.156 0.43,-0.024 0.418,-0.023 0.84,-0.055 h 0.441 l 0.41,-0.023 0.438,-0.027 0.41,-0.028 m -820.691,-80.847 0.175,-0.184 0.203,-0.18 1.075,-1.078 4.406,-4.32 5.945,-5.688 13.196,-11.984 12.675,-10.809 12.735,-10.183 14.179,-10.602 13.555,-9.492 14.969,-9.7734 15.051,-9.1094 14.277,-8.0742 15.77,-8.2109 14.941,-7.2188 14.863,-6.5898 16.367,-6.6602 15.461,-5.7109 16.934,-5.6602 16.816,-4.9883 15.801,-4.1718 17.285,-3.961 1.024,-0.207 0.996,-0.2305 2.043,-0.4101 4.031,-0.8008 8.164,-1.5391 0.254,-0.0508 0.285,-0.0507 0.555,-0.0782 1.113,-0.2109 2.188,-0.3789 4.425,-0.7227 0.567,-0.0976 0.535,-0.082 1.113,-0.1797 2.239,-0.35941 4.421,-0.64844 0.286,-0.05078 0.253,-0.01953 0.536,-0.08203 1.113,-0.16016 2.16,-0.29687 4.375,-0.59375 0.281,-0.02735 0.254,-0.03125 0.539,-0.07812 1.114,-0.1211 2.187,-0.28906 4.363,-0.49219 0.266,-0.01953 0.254,-0.05078 0.515,-0.04687 0.997,-0.10157 2.062,-0.21093 4.09,-0.41016 0.234,-0.02734 1.797,-0.1836 2.031,-0.17969 4.122,-0.32812 0.253,-0.03125 0.852,-0.07813 3.32,-0.23046 0.567,-0.05079 0.535,-0.05078 1.133,-0.07812 2.207,-0.13281 0.285,-0.01954 0.262,-0.02734 0.566,-0.03125 1.105,-0.07031 2.235,-0.10938 4.453,-0.23047 0.254,-0.01953 h 0.265 l 1.543,-0.08203 2.079,-0.07812 0.253,-0.01953 h 0.266 l 0.508,-0.03125 1.055,-0.01954 2.089,-0.07812 h 0.254 l 0.254,-0.03125 h 0.516 l 1.027,-0.01953 0.262,-0.03125 h 0.793 l 1.035,-0.01953 0.254,-0.03125 h 0.801 l 1.023,-0.01953 h 0.52 l 0.515,-0.03125 h 1.055 l 0.254,-0.02735 h 1.262 l 0.515,-0.01953 h 2.539 L 533.668,3.75 h 6.863 l 0.52,0.03125 h 2.293 l 0.254,0.01953 h 1.797 l 0.285,0.02735 h 0.535 l 1.105,0.03125 h 0.567 l 0.547,0.01953 1.101,0.03125 h 0.567 l 0.539,0.01953 3.32,0.08203 0.281,0.02734 h 0.285 l 0.536,0.01953 1.113,0.03125 2.207,0.07032 0.285,0.03125 h 0.254 l 0.566,0.02734 3.321,0.15234 h 0.261 l 0.254,0.01954 3.606,0.17968 0.254,0.03125 h 0.254 l 0.515,0.04688 1.027,0.0625 2.059,0.11719 0.266,0.03125 h 0.254 l 0.515,0.01953 7.199,0.54297 0.293,0.02734 h 0.274 l 0.535,0.05078 1.133,0.10156 2.219,0.1875 4.453,0.41016 1.121,0.10156 1.113,0.12891 2.207,0.21094 4.453,0.48046 0.285,0.02735 0.254,0.05078 0.567,0.05078 1.082,0.12891 2.187,0.26172 4.348,0.53906 8.691,1.19922 0.262,0.0625 0.254,0.01953 0.519,0.07812 0.997,0.16016 2.031,0.30078 4.043,0.6484 8.074,1.3633 0.254,0.0469 0.285,0.0508 0.547,0.1094 1.101,0.1796 2.188,0.4102 4.348,0.8203 8.691,1.7695 16.18,3.711 15.722,4.1211 16.926,5.0078 15.613,5.1719 16.75,6.1484 15.457,6.2305 14.942,6.582 15.976,7.668 14.668,7.6093 15.618,8.7774 15.046,9.1055 13.762,8.9492 14.61,10.1605 13.3,9.929 12.754,10.137 13.485,11.422 12.218,11.062 0.411,0.411 0.437,0.386 0.82,0.793 1.672,1.574 3.321,3.188 0.203,0.184 0.234,0.203 0.41,0.41 0.821,0.801 1.652,1.617 0.203,0.18 0.176,0.21 0.422,0.411 0.82,0.793 1.434,1.441 0.207,0.184"
         style="fill:none;stroke:#3871c1;stroke-width:7.5;stroke-linecap:butt;stroke-linejoin:miter;stroke-miterlimit:3.25;stroke-dasharray:none;stroke-opacity:1"
         transform="matrix(0.13333333,0,0,-0.13333333,0,143.24)" />
    </g>
  </g>
</svg>
