<?xml version="1.0" encoding="UTF-8" standalone="no"?>
<!-- Created with Inkscape (http://www.inkscape.org/) -->

<svg
   version="1.1"
   id="svg1"
   width="267.16"
   height="138.10667"
   viewBox="0 0 267.16 138.10667"
   sodipodi:docname="phaaaf12.eps"
   xmlns:inkscape="http://www.inkscape.org/namespaces/inkscape"
   xmlns:sodipodi="http://sodipodi.sourceforge.net/DTD/sodipodi-0.dtd"
   xmlns="http://www.w3.org/2000/svg"
   xmlns:svg="http://www.w3.org/2000/svg">
  <defs
     id="defs1" />
  <sodipodi:namedview
     id="namedview1"
     pagecolor="#ffffff"
     bordercolor="#000000"
     borderopacity="0.25"
     inkscape:showpageshadow="2"
     inkscape:pageopacity="0.0"
     inkscape:pagecheckerboard="0"
     inkscape:deskcolor="#d1d1d1">
    <inkscape:page
       x="0"
       y="0"
       inkscape:label="1"
       id="page1"
       width="267.16"
       height="138.10667"
       margin="0"
       bleed="0" />
  </sodipodi:namedview>
  <g
     id="g1"
     inkscape:groupmode="layer"
     inkscape:label="1">
    <g
       id="group-R5">
      <path
         id="path2"
         d="m 1623.25,151.566 h -503.86 v 503.86 h 503.86 v -503.86"
         style="fill:#bdbcbc;fill-opacity:1;fill-rule:nonzero;stroke:none"
         transform="matrix(0.13333333,0,0,-0.13333333,0,138.10667)" />
      <path
         id="path3"
         d="M 506.355,151.566 H 2.5 V 781.391 H 506.355 V 151.566"
         style="fill:#e5e4e4;fill-opacity:1;fill-rule:nonzero;stroke:none"
         transform="matrix(0.13333333,0,0,-0.13333333,0,138.10667)" />
      <path
         id="path4"
         d="M 2.5,1033.32 H 884.246 V 151.566 H 2.5 Z"
         style="fill:none;stroke:#231f20;stroke-width:5;stroke-linecap:butt;stroke-linejoin:miter;stroke-miterlimit:10;stroke-dasharray:none;stroke-opacity:1"
         transform="matrix(0.13333333,0,0,-0.13333333,0,138.10667)" />
      <path
         id="path5"
         d="M 2.5,277.535 H 884.246"
         style="fill:none;stroke:#231f20;stroke-width:5;stroke-linecap:butt;stroke-linejoin:miter;stroke-miterlimit:10;stroke-dasharray:none;stroke-opacity:1"
         transform="matrix(0.13333333,0,0,-0.13333333,0,138.10667)" />
      <path
         id="path6"
         d="M 2.5,403.496 H 884.246"
         style="fill:none;stroke:#231f20;stroke-width:5;stroke-linecap:butt;stroke-linejoin:miter;stroke-miterlimit:10;stroke-dasharray:none;stroke-opacity:1"
         transform="matrix(0.13333333,0,0,-0.13333333,0,138.10667)" />
      <path
         id="path7"
         d="M 2.5,529.457 H 884.246"
         style="fill:none;stroke:#231f20;stroke-width:5;stroke-linecap:butt;stroke-linejoin:miter;stroke-miterlimit:10;stroke-dasharray:none;stroke-opacity:1"
         transform="matrix(0.13333333,0,0,-0.13333333,0,138.10667)" />
      <path
         id="path8"
         d="M 2.5,655.426 H 884.246"
         style="fill:none;stroke:#231f20;stroke-width:5;stroke-linecap:butt;stroke-linejoin:miter;stroke-miterlimit:10;stroke-dasharray:none;stroke-opacity:1"
         transform="matrix(0.13333333,0,0,-0.13333333,0,138.10667)" />
      <path
         id="path9"
         d="M 2.5,781.391 H 884.246"
         style="fill:none;stroke:#231f20;stroke-width:5;stroke-linecap:butt;stroke-linejoin:miter;stroke-miterlimit:10;stroke-dasharray:none;stroke-opacity:1"
         transform="matrix(0.13333333,0,0,-0.13333333,0,138.10667)" />
      <path
         id="path10"
         d="M 2.5,907.359 H 884.246"
         style="fill:none;stroke:#231f20;stroke-width:5;stroke-linecap:butt;stroke-linejoin:miter;stroke-miterlimit:10;stroke-dasharray:none;stroke-opacity:1"
         transform="matrix(0.13333333,0,0,-0.13333333,0,138.10667)" />
      <path
         id="path11"
         d="M 758.293,1033.32 V 151.566"
         style="fill:none;stroke:#231f20;stroke-width:5;stroke-linecap:butt;stroke-linejoin:miter;stroke-miterlimit:10;stroke-dasharray:none;stroke-opacity:1"
         transform="matrix(0.13333333,0,0,-0.13333333,0,138.10667)" />
      <path
         id="path12"
         d="M 632.324,1033.32 V 151.566"
         style="fill:none;stroke:#231f20;stroke-width:5;stroke-linecap:butt;stroke-linejoin:miter;stroke-miterlimit:10;stroke-dasharray:none;stroke-opacity:1"
         transform="matrix(0.13333333,0,0,-0.13333333,0,138.10667)" />
      <path
         id="path13"
         d="M 506.355,1033.32 V 151.566"
         style="fill:none;stroke:#231f20;stroke-width:5;stroke-linecap:butt;stroke-linejoin:miter;stroke-miterlimit:10;stroke-dasharray:none;stroke-opacity:1"
         transform="matrix(0.13333333,0,0,-0.13333333,0,138.10667)" />
      <path
         id="path14"
         d="M 380.395,1033.32 V 151.566"
         style="fill:none;stroke:#231f20;stroke-width:5;stroke-linecap:butt;stroke-linejoin:miter;stroke-miterlimit:10;stroke-dasharray:none;stroke-opacity:1"
         transform="matrix(0.13333333,0,0,-0.13333333,0,138.10667)" />
      <path
         id="path15"
         d="M 254.43,1033.32 V 151.566"
         style="fill:none;stroke:#231f20;stroke-width:5;stroke-linecap:butt;stroke-linejoin:miter;stroke-miterlimit:10;stroke-dasharray:none;stroke-opacity:1"
         transform="matrix(0.13333333,0,0,-0.13333333,0,138.10667)" />
      <path
         id="path16"
         d="M 128.461,1033.32 V 151.566"
         style="fill:none;stroke:#231f20;stroke-width:5;stroke-linecap:butt;stroke-linejoin:miter;stroke-miterlimit:10;stroke-dasharray:none;stroke-opacity:1"
         transform="matrix(0.13333333,0,0,-0.13333333,0,138.10667)" />
      <path
         id="path17"
         d="m 595.941,717.48 c 0,-13.804 -11.195,-25 -24.996,-25 -13.804,0 -25.004,11.196 -25.004,25 0,13.805 11.2,25 25.004,25 13.801,0 24.996,-11.195 24.996,-25"
         style="fill:#231f20;fill-opacity:1;fill-rule:nonzero;stroke:none"
         transform="matrix(0.13333333,0,0,-0.13333333,0,138.10667)" />
      <path
         id="path18"
         d="m 1749.22,151.566 h -123.35 v 503.86 h 123.35 v -503.86"
         style="fill:#e5e4e4;fill-opacity:1;fill-rule:nonzero;stroke:none"
         transform="matrix(0.13333333,0,0,-0.13333333,0,138.10667)" />
      <path
         id="path19"
         d="m 1119.39,1033.32 h 881.76 V 151.566 h -881.76 z"
         style="fill:none;stroke:#231f20;stroke-width:5;stroke-linecap:butt;stroke-linejoin:miter;stroke-miterlimit:10;stroke-dasharray:none;stroke-opacity:1"
         transform="matrix(0.13333333,0,0,-0.13333333,0,138.10667)" />
      <path
         id="path20"
         d="m 1119.39,277.535 h 881.76"
         style="fill:none;stroke:#231f20;stroke-width:5;stroke-linecap:butt;stroke-linejoin:miter;stroke-miterlimit:10;stroke-dasharray:none;stroke-opacity:1"
         transform="matrix(0.13333333,0,0,-0.13333333,0,138.10667)" />
      <path
         id="path21"
         d="m 1119.39,403.496 h 881.76"
         style="fill:none;stroke:#231f20;stroke-width:5;stroke-linecap:butt;stroke-linejoin:miter;stroke-miterlimit:10;stroke-dasharray:none;stroke-opacity:1"
         transform="matrix(0.13333333,0,0,-0.13333333,0,138.10667)" />
      <path
         id="path22"
         d="m 1119.39,529.457 h 881.76"
         style="fill:none;stroke:#231f20;stroke-width:5;stroke-linecap:butt;stroke-linejoin:miter;stroke-miterlimit:10;stroke-dasharray:none;stroke-opacity:1"
         transform="matrix(0.13333333,0,0,-0.13333333,0,138.10667)" />
      <path
         id="path23"
         d="m 1119.39,655.426 h 881.76"
         style="fill:none;stroke:#231f20;stroke-width:5;stroke-linecap:butt;stroke-linejoin:miter;stroke-miterlimit:10;stroke-dasharray:none;stroke-opacity:1"
         transform="matrix(0.13333333,0,0,-0.13333333,0,138.10667)" />
      <path
         id="path24"
         d="m 1119.39,781.391 h 881.76"
         style="fill:none;stroke:#231f20;stroke-width:5;stroke-linecap:butt;stroke-linejoin:miter;stroke-miterlimit:10;stroke-dasharray:none;stroke-opacity:1"
         transform="matrix(0.13333333,0,0,-0.13333333,0,138.10667)" />
      <path
         id="path25"
         d="m 1119.39,907.359 h 881.76"
         style="fill:none;stroke:#231f20;stroke-width:5;stroke-linecap:butt;stroke-linejoin:miter;stroke-miterlimit:10;stroke-dasharray:none;stroke-opacity:1"
         transform="matrix(0.13333333,0,0,-0.13333333,0,138.10667)" />
      <path
         id="path26"
         d="M 1875.19,1033.32 V 151.566"
         style="fill:none;stroke:#231f20;stroke-width:5;stroke-linecap:butt;stroke-linejoin:miter;stroke-miterlimit:10;stroke-dasharray:none;stroke-opacity:1"
         transform="matrix(0.13333333,0,0,-0.13333333,0,138.10667)" />
      <path
         id="path27"
         d="M 1749.22,1033.32 V 151.566"
         style="fill:none;stroke:#231f20;stroke-width:5;stroke-linecap:butt;stroke-linejoin:miter;stroke-miterlimit:10;stroke-dasharray:none;stroke-opacity:1"
         transform="matrix(0.13333333,0,0,-0.13333333,0,138.10667)" />
      <path
         id="path28"
         d="M 1623.25,1033.32 V 151.566"
         style="fill:none;stroke:#231f20;stroke-width:5;stroke-linecap:butt;stroke-linejoin:miter;stroke-miterlimit:10;stroke-dasharray:none;stroke-opacity:1"
         transform="matrix(0.13333333,0,0,-0.13333333,0,138.10667)" />
      <path
         id="path29"
         d="M 1497.29,1033.32 V 151.566"
         style="fill:none;stroke:#231f20;stroke-width:5;stroke-linecap:butt;stroke-linejoin:miter;stroke-miterlimit:10;stroke-dasharray:none;stroke-opacity:1"
         transform="matrix(0.13333333,0,0,-0.13333333,0,138.10667)" />
      <path
         id="path30"
         d="M 1371.32,1033.32 V 151.566"
         style="fill:none;stroke:#231f20;stroke-width:5;stroke-linecap:butt;stroke-linejoin:miter;stroke-miterlimit:10;stroke-dasharray:none;stroke-opacity:1"
         transform="matrix(0.13333333,0,0,-0.13333333,0,138.10667)" />
      <path
         id="path31"
         d="M 1245.36,1033.32 V 151.566"
         style="fill:none;stroke:#231f20;stroke-width:5;stroke-linecap:butt;stroke-linejoin:miter;stroke-miterlimit:10;stroke-dasharray:none;stroke-opacity:1"
         transform="matrix(0.13333333,0,0,-0.13333333,0,138.10667)" />
      <path
         id="path32"
         d="m 1712.84,717.48 c 0,-13.804 -11.2,-25 -25,-25 -13.81,0 -25,11.196 -25,25 0,13.805 11.19,25 25,25 13.8,0 25,-11.195 25,-25"
         style="fill:#231f20;fill-opacity:1;fill-rule:nonzero;stroke:none"
         transform="matrix(0.13333333,0,0,-0.13333333,0,138.10667)" />
      <path
         id="path33"
         d="m 2.6963359,1.3229259 c -0.890625,-0.76171871 -1.40625,-2.20312496 -1.40625,-3.75 0,-1.546875 0.515625,-3 1.40625,-3.75 L 2.5439922,-6.3880116 c -1.3242188,0.9023438 -1.91015626,2.3320313 -1.91015626,3.9492188 0,1.62890624 0.58593746,3.08203124 1.91015626,3.9609375 z m 4.3212891,-1.67578121 -0.09375,-0.234375 c -0.09375,0.0585938 -0.2226563,0.10546875 -0.328125,0.10546875 -0.1523438,0 -0.3164063,-0.140625 -0.3164063,-0.55078124 v -1.6640625 c 0,-0.46875 -0.082031,-0.84375 -0.3984375,-1.1015625 C 5.6816875,-3.9622303 5.4121562,-4.0442616 5.142625,-4.0442616 4.627,-3.9387928 4.0410625,-3.5872303 3.7949687,-3.4114491 3.6191875,-3.2825428 3.502,-3.1887928 3.502,-3.0481678 c 0,0.1992187 0.234375,0.3867187 0.3984375,0.3867187 0.1289062,0 0.2226562,-0.070312 0.2578125,-0.2109375 0.070312,-0.28125 0.1523437,-0.4804687 0.2695312,-0.5976562 0.09375,-0.1054688 0.2226563,-0.1757813 0.4101563,-0.1757813 0.4453125,0 0.75,0.3632813 0.75,1.0195313 v 0.1640625 c -0.1992188,0.1523437 -0.8554688,0.3984375 -1.3945313,0.5742187 -0.4921875,0.1757813 -0.7265625,0.4570313 -0.7265625,0.90234379 0,0.5625 0.4453125,1.08984375 1.078125,1.08984375 0.2695313,0 0.703125,-0.328125 1.0664063,-0.57421875 0.046875,0.15234375 0.09375,0.28125 0.2109375,0.41015625 0.1054687,0.08203125 0.2929687,0.1640625 0.421875,0.1640625 z M 5.5879375,-0.76301156 c -0.1640625,0.1640625 -0.4804688,0.31640625 -0.7148438,0.328125 -0.28125,0 -0.6445312,-0.22265625 -0.6445312,-0.69140624 0,-0.328125 0.1992187,-0.4921875 0.5507812,-0.65625 0.1875,-0.09375 0.6210938,-0.28125 0.8085938,-0.375 z M 7.4746562,-6.1770741 c 0.890625,0.7382813 1.4179688,2.203125 1.4179688,3.75 0,1.54687504 -0.5039063,2.98828129 -1.4179688,3.75 l 0.1640625,0.1992188 c 1.3476563,-0.91406251 1.8984375,-2.33203126 1.8984375,-3.9492188 0,-1.6289062 -0.5507812,-3.0585937 -1.8984375,-3.9609375 z m 106.5996138,7.5 c -0.89063,-0.76171871 -1.40625,-2.20312496 -1.40625,-3.75 0,-1.546875 0.51562,-3 1.40625,-3.75 l -0.15235,-0.2109375 c -1.32422,0.9023438 -1.91015,2.3320313 -1.91015,3.9492188 0,1.62890624 0.58593,3.08203124 1.91015,3.9609375 z m 1.79003,-4.9570312 v -2.7773438 c -0.33984,0.1171875 -0.89062,0.2578125 -1.3125,0.3164063 v 0.2109375 c 0.58594,0.046875 0.59766,0.1054687 0.59766,0.6679687 v 5.00390629 c 0.49219,0.234375 0.94922,0.31640625 1.32422,0.31640625 1.20703,0 2.26172,-0.9375 2.26172,-2.26171874 0,-1.0546875 -0.8086,-1.8867188 -1.78125,-1.8867188 -0.0937,0 -0.22266,0.023437 -0.36328,0.09375 z m 0,0.2695312 c 0.16407,-0.1054687 0.44532,-0.1757812 0.70313,-0.1757812 0.73828,0 1.37109,0.5976562 1.37109,1.6171875 0,1.05468749 -0.48047,1.68749999 -1.21875,1.68749999 -0.48047,-0.0117188 -0.75,-0.328125 -0.80859,-0.50390625 -0.0352,-0.0820313 -0.0469,-0.17578125 -0.0469,-0.30468754 z m 3.60938,-2.8125 c 0.89062,0.7382813 1.41797,2.203125 1.41797,3.75 0,1.54687504 -0.50391,2.98828129 -1.41797,3.75 l 0.16406,0.1992188 c 1.34766,-0.91406251 1.89844,-2.33203126 1.89844,-3.9492188 0,-1.6289062 -0.55078,-3.0585937 -1.89844,-3.9609375 z m 0,0"
         style="fill:#231f20;fill-opacity:1;fill-rule:nonzero;stroke:none"
         aria-label="(a)(b)"
         transform="matrix(1.3333333,0,0,1.3333333,52.330667,133.78688)" />
    </g>
  </g>
</svg>
