<?xml version="1.0" encoding="UTF-8" standalone="no"?>
<!-- Created with Inkscape (http://www.inkscape.org/) -->

<svg
   version="1.1"
   id="svg1"
   width="217.26666"
   height="77.480003"
   viewBox="0 0 217.26666 77.480003"
   sodipodi:docname="phaaaf09.eps"
   xmlns:inkscape="http://www.inkscape.org/namespaces/inkscape"
   xmlns:sodipodi="http://sodipodi.sourceforge.net/DTD/sodipodi-0.dtd"
   xmlns="http://www.w3.org/2000/svg"
   xmlns:svg="http://www.w3.org/2000/svg">
  <defs
     id="defs1" />
  <sodipodi:namedview
     id="namedview1"
     pagecolor="#ffffff"
     bordercolor="#000000"
     borderopacity="0.25"
     inkscape:showpageshadow="2"
     inkscape:pageopacity="0.0"
     inkscape:pagecheckerboard="0"
     inkscape:deskcolor="#d1d1d1">
    <inkscape:page
       x="0"
       y="0"
       inkscape:label="1"
       id="page1"
       width="217.26666"
       height="77.480003"
       margin="0"
       bleed="0" />
  </sodipodi:namedview>
  <g
     id="g1"
     inkscape:groupmode="layer"
     inkscape:label="1">
    <g
       id="group-R5">
      <path
         id="path2"
         d="M 2.65234,3.75 H 577.363"
         style="fill:none;stroke:#231f20;stroke-width:7.5;stroke-linecap:butt;stroke-linejoin:miter;stroke-miterlimit:3.25;stroke-dasharray:none;stroke-opacity:1"
         transform="matrix(0.13333333,0,0,-0.13333333,0,77.48)" />
      <path
         id="path3"
         d="M 198.051,3.75 V 199.145"
         style="fill:none;stroke:#231f20;stroke-width:7.5;stroke-linecap:butt;stroke-linejoin:miter;stroke-miterlimit:3.25;stroke-dasharray:none;stroke-opacity:1"
         transform="matrix(0.13333333,0,0,-0.13333333,0,77.48)" />
      <path
         id="path4"
         d="M 198.051,199.145 H 577.363"
         style="fill:none;stroke:#231f20;stroke-width:7.5;stroke-linecap:butt;stroke-linejoin:miter;stroke-miterlimit:3.25;stroke-dasharray:none;stroke-opacity:1"
         transform="matrix(0.13333333,0,0,-0.13333333,0,77.48)" />
      <path
         id="path5"
         d="M 381.953,3.75 V 383.063"
         style="fill:none;stroke:#231f20;stroke-width:7.5;stroke-linecap:butt;stroke-linejoin:miter;stroke-miterlimit:3.25;stroke-dasharray:none;stroke-opacity:1"
         transform="matrix(0.13333333,0,0,-0.13333333,0,77.48)" />
      <path
         id="path6"
         d="m 381.953,383.063 h 195.41"
         style="fill:none;stroke:#231f20;stroke-width:7.5;stroke-linecap:butt;stroke-linejoin:miter;stroke-miterlimit:3.25;stroke-dasharray:none;stroke-opacity:1"
         transform="matrix(0.13333333,0,0,-0.13333333,0,77.48)" />
      <path
         id="path7"
         d="M 577.363,3.75 V 578.457"
         style="fill:none;stroke:#231f20;stroke-width:7.5;stroke-linecap:butt;stroke-linejoin:miter;stroke-miterlimit:3.25;stroke-dasharray:none;stroke-opacity:1"
         transform="matrix(0.13333333,0,0,-0.13333333,0,77.48)" />
      <path
         id="path8"
         d="M 2.65234,3.75 3.00781,4.10547 3.35156,4.45703 4.05859,5.15625 13.9297,15.0273 26.1563,27.2617 37.582,38.6836 48.7734,49.8672 60.9141,62.0195 72.25,73.3438 l 12.2852,12.2929 12.0507,12.0586 11.2581,11.2457 46.851,46.848 11.301,11.313 12.25,12.238 12.027,12.039 11.215,11.211 23.524,23.523 12.297,12.305 12.078,12.074 11.273,11.262 23.617,23.629 11.188,11.187 12.129,12.121 117.207,117.207 11.426,11.438 11.207,11.199 93.875,93.871 12.113,12.125 11.312,11.309 6.317,6.308 0.187,0.2 0.203,0.191 2.77,2.762 0.187,0.203 0.196,0.187 1.187,1.192 0.192,0.195 0.203,0.192 0.394,0.402 0.192,0.199 0.203,0.192 0.398,0.394"
         style="fill:none;stroke:#231f20;stroke-width:7.5;stroke-linecap:butt;stroke-linejoin:miter;stroke-miterlimit:3.25;stroke-dasharray:none;stroke-opacity:1"
         transform="matrix(0.13333333,0,0,-0.13333333,0,77.48)" />
      <path
         id="path9"
         d="m 1051.17,3.75 h 574.54"
         style="fill:none;stroke:#231f20;stroke-width:7.5;stroke-linecap:butt;stroke-linejoin:miter;stroke-miterlimit:3.25;stroke-dasharray:none;stroke-opacity:1"
         transform="matrix(0.13333333,0,0,-0.13333333,0,77.48)" />
      <path
         id="path10"
         d="m 1246.4,3.75 v 2.39453 l -0.02,0.27344 v 1.73437 l -0.01,0.14454 v 0.28906 l -0.01,0.57422 v 0.29297 l -0.01,0.28906 -0.01,0.57421 v 0.2891 l -0.01,0.2929 -0.01,0.5782 -0.02,1.1523 v 0.2695 l -0.01,0.2657 -0.03,0.5351 -0.02,1.0742 v 0.1368 l -0.01,0.1406 -0.01,0.2695 -0.01,0.5352 -0.04,1.082 v 0.0586 l -0.01,0.0742 v 0.125 l -0.02,0.793 -0.05,1.0586 v 0.1289 l -0.01,0.1367 -0.03,0.7891 -0.03,1.0586 -0.01,0.0625 v 0.0781 l -0.01,0.1445 -0.01,0.2813 -0.08,1.7187 -0.14,2.2852 v 0.0664 0.0703 l -0.01,0.1289 -0.01,0.2695 -0.04,0.5313 -0.06,1.0625 -0.13,2.1289 -0.34,4.6211 -0.39,4.5156 -0.41,4.2148 -0.48,4.5508 -0.51,4.2383 -0.55,4.1406 -0.64,4.4922 -0.65,4.1641 -0.75,4.5078 -0.79,4.3945 -0.78,4.086 -0.9,4.4218 -0.89,4.0938 -1,4.4297 -1.05,4.3125 -1.01,4.0078 -1.16,4.3163 -1.12,4.004 -1.13,3.895 -1.29,4.21 -1.25,3.903 -1.39,4.187 -1.43,4.078 -1.37,3.786 -1.53,4.046 -1.47,3.77 -1.48,3.652 -1.64,3.926 -1.59,3.621 -1.75,3.895 -1.68,3.601 -1.7,3.493 -1.88,3.746 -1.79,3.453 -1.98,3.699 -1.99,3.594 -1.89,3.3 -2.09,3.536 -2,3.254 -1.97,3.148 -2.21,3.363 -2.07,3.09 -0.07,0.113 -0.08,0.11 -0.14,0.207 -0.29,0.426 -0.59,0.847 -0.15,0.223 -0.16,0.211 -0.28,0.426 -0.05,0.05 -0.04,0.055 -0.08,0.102 -0.14,0.214 -0.04,0.047 -0.03,0.051 -0.08,0.113 -0.03,0.051 -0.04,0.051 -0.07,0.102"
         style="fill:none;stroke:#231f20;stroke-width:7.5;stroke-linecap:butt;stroke-linejoin:miter;stroke-miterlimit:3.25;stroke-dasharray:none;stroke-opacity:1"
         transform="matrix(0.13333333,0,0,-0.13333333,0,77.48)" />
      <path
         id="path11"
         d="m 1189.17,199.145 0.28,0.058 0.31,0.043 0.58,0.106 1.17,0.199 2.35,0.383 4.65,0.73 9.99,1.469 9.22,1.23 8.95,1.102 9.61,1.07 8.89,0.91 9.53,0.903 9.28,0.804 8.61,0.692 9.26,0.676 8.58,0.597 8.36,0.52 9.03,0.539 8.37,0.465 9.03,0.461 8.82,0.421 8.2,0.364 8.84,0.375 8.23,0.316 8.88,0.328 8.69,0.305 8.07,0.254 8.73,0.269 8.13,0.239 7.94,0.218 8.6,0.215 7.99,0.199 8.65,0.2 8.48,0.179 7.88,0.168 8.54,0.176 7.95,0.137 7.78,0.144 8.42,0.137 7.85,0.129 8.5,0.137 7.92,0.117 7.76,0.113 8.39,0.11 7.83,0.097 8.48,0.11 8.3,0.097 7.74,0.082 8.4,0.094 7.81,0.082 7.65,0.074 8.3,0.078 7.74,0.071 h 0.27 l 0.27,0.011 h 0.53 l 3.25,0.028 h 0.13 l 0.13,0.008 h 0.81 l 1.07,0.007 0.14,0.012 h 0.95 l 0.13,0.012 h 0.95"
         style="fill:none;stroke:#231f20;stroke-width:7.5;stroke-linecap:butt;stroke-linejoin:miter;stroke-miterlimit:3.25;stroke-dasharray:none;stroke-opacity:1"
         transform="matrix(0.13333333,0,0,-0.13333333,0,77.48)" />
      <path
         id="path12"
         d="m 1430.3,3.75 v 4.38672 l -0.02,0.26172 v 2.07036 l -0.02,0.5156 v 1.0351 0.2852 l -0.02,0.2773 v 0.5547 l -0.01,1.1211 v 0.2852 l -0.01,0.2812 -0.01,0.5469 -0.01,1.1289 v 0.2773 l -0.01,0.2813 v 0.5625 l -0.03,1.1133 -0.05,2.2461 v 0.2656 l -0.01,0.2617 -0.01,0.5117 -0.02,1.0508 -0.06,2.086 -0.01,0.1367 v 0.1289 l -0.03,0.789 -0.03,1.0469 -0.07,2.0899 v 0.1289 l -0.02,0.1289 v 0.2539 l -0.02,0.5117 -0.04,1.0234 -0.07,2.043 v 0.1367 0.125 l -0.01,0.2539 -0.03,0.5117 -0.04,1.0235 -0.09,2.0508 -0.01,0.1406 v 0.1406 l -0.02,0.2695 -0.02,0.5625 -0.05,1.1094 -0.1,2.2188 -0.26,4.4375 v 0.1367 0.125 l -0.02,0.2578 -0.03,0.5234 -0.18,3.0977 -0.27,4.1367 -0.66,8.957 -0.74,8.7813 -0.79,8.1641 -0.96,8.8359 -1,8.2305 -1.05,8.0509 -1.25,8.695 -1.25,8.094 -1.46,8.746 -1.53,8.539 -1.51,7.938 -1.74,8.562 -1.72,7.965 -1.96,8.59 -2.03,8.379 -1.97,7.769 -2.23,8.379 -2.18,7.77 -2.23,7.586 -2.49,8.156 -2.42,7.562 -2.71,8.137 -2.76,7.93 -2.66,7.324 -2.96,7.891 -2.85,7.289 -2.88,7.089 -3.2,7.629 -3.07,7.043 -3.41,7.551 -3.29,6.996 -3.27,6.774 -3.64,7.273 -3.48,6.699 -3.83,7.18 -3.87,6.969 -3.66,6.41 -4.07,6.855 -3.87,6.325 -3.85,6.105 -4.26,6.531 -4.04,6.016 -0.07,0.098 -0.06,0.113 -0.15,0.203 -0.28,0.414 -1.72,2.477 -0.07,0.113 -0.06,0.101 -0.16,0.204 -0.28,0.414 -0.58,0.824 -0.07,0.098 -0.08,0.105 -0.14,0.199 -0.28,0.41 -0.08,0.11 -0.07,0.101 -0.15,0.207 -0.07,0.102 -0.13,0.199 -0.08,0.11"
         style="fill:none;stroke:#231f20;stroke-width:7.5;stroke-linecap:butt;stroke-linejoin:miter;stroke-miterlimit:3.25;stroke-dasharray:none;stroke-opacity:1"
         transform="matrix(0.13333333,0,0,-0.13333333,0,77.48)" />
      <path
         id="path13"
         d="m 1319.21,383.063 0.08,0.007 0.07,0.016 0.14,0.019 0.31,0.055 0.61,0.102 1.2,0.207 2.42,0.398 5.22,0.852 4.86,0.777 4.75,0.738 5.12,0.778 4.78,0.703 5.17,0.742 5.04,0.707 4.69,0.645 5.08,0.668 4.72,0.617 4.61,0.59 5,0.617 4.64,0.558 5.03,0.602 4.92,0.562 4.57,0.516 4.95,0.543 4.61,0.5 4.97,0.516 4.88,0.507 4.54,0.454 4.91,0.484 4.57,0.434 4.48,0.425 4.84,0.446 4.5,0.398 4.89,0.438 4.77,0.41 4.44,0.371 4.82,0.394 4.48,0.368 4.39,0.339 4.75,0.364 4.42,0.336 4.79,0.363 4.45,0.32 4.38,0.313 4.72,0.332 4.41,0.297 4.77,0.324 4.67,0.301 4.34,0.281 4.72,0.297 4.38,0.273 4.3,0.262 4.66,0.285 4.33,0.254 h 0.08 l 0.07,0.008 h 0.15 l 0.31,0.015 0.6,0.039 1.2,0.075 h 0.08 l 0.09,0.004 0.14,0.007 0.31,0.024 0.59,0.039 h 0.08 l 0.08,0.004 h 0.16 l 0.29,0.019 0.08,0.008 h 0.08 l 0.14,0.012 0.07,0.004 h 0.09 l 0.07,0.008 h 0.08"
         style="fill:none;stroke:#231f20;stroke-width:7.5;stroke-linecap:butt;stroke-linejoin:miter;stroke-miterlimit:3.25;stroke-dasharray:none;stroke-opacity:1"
         transform="matrix(0.13333333,0,0,-0.13333333,0,77.48)" />
      <path
         id="path14"
         d="m 1625.71,3.75 v 3.52344 l -0.02,0.39453 v 1.55859 l -0.01,0.79294 v 0.7774 l -0.01,0.7812 v 0.7891 l -0.01,0.7773 v 0.3907 l -0.01,0.3945 v 0.7812 l -0.01,1.5664 -0.01,0.2149 v 0.6328 l -0.01,0.8477 -0.02,1.6992 v 0.207 l -0.01,0.2227 v 0.4218 l -0.02,0.8438 -0.03,1.6992 v 0.2149 0.2031 0.4336 l -0.02,0.8515 -0.12,5.0899 v 0.1992 0.1953 l -0.02,0.3906 -0.02,0.8008 -0.03,1.582 -0.09,3.168 -0.01,0.4024 -0.01,0.3828 -0.01,0.8008 -0.06,1.5781 -0.1,3.1679 -0.01,0.1993 v 0.1836 l -0.02,0.3945 -0.02,0.7773 -0.05,1.5547 -0.13,3.0977 -0.01,0.1992 -0.01,0.1992 -0.01,0.3828 -0.02,0.7774 -0.07,1.5547 -0.14,3.0976 -0.02,0.4141 -0.02,0.4336 -0.04,0.8281 -0.08,1.6875 -0.15,3.3672 -0.37,6.7187 -0.02,0.3985 -0.02,0.3906 -0.05,0.7812 -0.09,1.5665 -0.19,3.1367 -0.39,6.2695 -1,13.5742 -1.14,13.2933 -1.2,12.379 -1.45,13.394 -1.5,12.473 -1.61,12.187 -1.87,13.184 -1.89,12.254 -2.22,13.25 -2.33,12.941 -2.29,12.031 -2.65,12.981 -2.6,12.07 -2.96,13 -3.07,12.696 -3,11.781 -3.38,12.691 -3.3,11.778 -3.36,11.476 -3.79,12.367 -3.65,11.465 -4.11,12.324 -4.19,12.004 -4,11.114 -4.52,11.937 -4.31,11.059 -4.36,10.742 -4.86,11.555 -4.65,10.671 -5.16,11.45 -4.97,10.586 -4.97,10.265 -5.5,11.02 -5.28,10.168 -5.82,10.879 -5.85,10.546 -5.56,9.711 -6.16,10.391 -5.85,9.578 -5.85,9.258 -6.44,9.902 -6.12,9.094 -0.11,0.156 -0.11,0.16 -0.21,0.317 -0.43,0.633 -0.86,1.257 -1.74,2.5 -0.22,0.309 -0.23,0.316 -0.43,0.625 -0.86,1.247 -0.23,0.308 -0.22,0.317 -0.86,1.234 -0.11,0.16 -0.22,0.309 -0.12,0.152"
         style="fill:none;stroke:#231f20;stroke-width:7.5;stroke-linecap:butt;stroke-linejoin:miter;stroke-miterlimit:3.25;stroke-dasharray:none;stroke-opacity:1"
         transform="matrix(0.13333333,0,0,-0.13333333,0,77.48)" />
      <path
         id="path15"
         d="m 1051,3.75 0.12,0.17578 0.13,0.17969 0.24,0.35156 0.5,0.69922 1,1.41406 5.98,8.45699 8.64,12.2344 8.08,11.4219 7.91,11.1836 8.6,12.1523 8.01,11.3243 8.69,12.2929 8.53,12.0586 7.95,11.2457 8.61,12.192 8.07,11.39 7.88,11.165 8.58,12.101 7.98,11.313 8.67,12.238 8.5,12.039 7.92,11.211 8.62,12.168 8.02,11.355 8.69,12.305 8.54,12.074 7.97,11.262 8.65,12.215 8.06,11.414 7.9,11.187 8.58,12.121 8.01,11.329 8.68,12.269 8.52,12.043 7.94,11.234 8.62,12.188 8.04,11.367 7.88,11.156 8.55,12.102 7.99,11.281 8.65,12.238 8.09,11.438 7.91,11.199 8.6,12.149 8.02,11.343 8.69,12.289 8.53,12.067 7.95,11.254 8.64,12.207 8.05,11.386 7.9,11.176 8.57,12.125 8,11.309 0.13,0.191 0.15,0.196 0.28,0.398 0.55,0.789 3.36,4.734 0.14,0.2 0.13,0.191 0.28,0.395 0.56,0.793 1.12,1.574 0.13,0.203 0.14,0.187 0.28,0.403 0.56,0.789 0.14,0.195 0.13,0.192 0.3,0.402 0.13,0.199 0.14,0.192 0.27,0.394"
         style="fill:none;stroke:#231f20;stroke-width:7.5;stroke-linecap:butt;stroke-linejoin:miter;stroke-miterlimit:3.25;stroke-dasharray:none;stroke-opacity:1"
         transform="matrix(0.13333333,0,0,-0.13333333,0,77.48)" />
      <path
         id="path16"
         d="m 658.531,240.566 c 109.047,119.192 337.321,129.938 433.799,88.95"
         style="fill:none;stroke:#231f20;stroke-width:5;stroke-linecap:butt;stroke-linejoin:miter;stroke-miterlimit:3.25;stroke-dasharray:none;stroke-opacity:1"
         transform="matrix(0.13333333,0,0,-0.13333333,0,77.48)" />
      <path
         id="path17"
         d="m 1085.69,332.309 -0.67,16.855 0.59,0.051 16.02,-19.567 c 6.29,-5.546 12.57,-11.093 18.86,-16.64 -8.04,2.398 -16.07,4.797 -24.1,7.187 l -25.08,3.243 -0.31,0.453 14.69,8.418"
         style="fill:#231f20;fill-opacity:1;fill-rule:nonzero;stroke:none"
         transform="matrix(0.13333333,0,0,-0.13333333,0,77.48)" />
    </g>
  </g>
</svg>
