<?xml version="1.0" encoding="UTF-8" standalone="no"?>
<!-- Created with Inkscape (http://www.inkscape.org/) -->

<svg
   version="1.1"
   id="svg1"
   width="140.72"
   height="44.386665"
   viewBox="0 0 140.72 44.386665"
   sodipodi:docname="phaaaf01.eps"
   xmlns:inkscape="http://www.inkscape.org/namespaces/inkscape"
   xmlns:sodipodi="http://sodipodi.sourceforge.net/DTD/sodipodi-0.dtd"
   xmlns="http://www.w3.org/2000/svg"
   xmlns:svg="http://www.w3.org/2000/svg">
  <defs
     id="defs1" />
  <sodipodi:namedview
     id="namedview1"
     pagecolor="#ffffff"
     bordercolor="#000000"
     borderopacity="0.25"
     inkscape:showpageshadow="2"
     inkscape:pageopacity="0.0"
     inkscape:pagecheckerboard="0"
     inkscape:deskcolor="#d1d1d1">
    <inkscape:page
       x="0"
       y="0"
       inkscape:label="1"
       id="page1"
       width="140.72"
       height="44.386665"
       margin="0"
       bleed="0" />
  </sodipodi:namedview>
  <g
     id="g1"
     inkscape:groupmode="layer"
     inkscape:label="1">
    <g
       id="group-R5">
      <path
         id="path2"
         d="m 2.5,330.398 h 800 V 2.5 H 2.5 Z"
         style="fill:none;stroke:#231f20;stroke-width:5;stroke-linecap:butt;stroke-linejoin:miter;stroke-miterlimit:10;stroke-dasharray:none;stroke-opacity:1"
         transform="matrix(0.13333333,0,0,-0.13333333,0,44.386667)" />
      <path
         id="path3"
         d="M 602.5,330.398 V 2.5"
         style="fill:none;stroke:#231f20;stroke-width:5;stroke-linecap:butt;stroke-linejoin:miter;stroke-miterlimit:10;stroke-dasharray:none;stroke-opacity:1"
         transform="matrix(0.13333333,0,0,-0.13333333,0,44.386667)" />
      <path
         id="path4"
         d="M 402.5,330.398 V 2.5"
         style="fill:none;stroke:#231f20;stroke-width:5;stroke-linecap:butt;stroke-linejoin:miter;stroke-miterlimit:10;stroke-dasharray:none;stroke-opacity:1"
         transform="matrix(0.13333333,0,0,-0.13333333,0,44.386667)" />
      <path
         id="path5"
         d="M 202.5,330.398 V 2.5"
         style="fill:none;stroke:#231f20;stroke-width:5;stroke-linecap:butt;stroke-linejoin:miter;stroke-miterlimit:10;stroke-dasharray:none;stroke-opacity:1"
         transform="matrix(0.13333333,0,0,-0.13333333,0,44.386667)" />
      <path
         id="path6"
         d="M 3.4560584,6.24375e-4 V -0.24546938 C 2.6357459,-0.30406313 2.5771522,-0.37437563 2.5771522,-1.0306256 v -4.6875 c -0.4921875,0.1992187 -1.0195313,0.375 -1.59375001,0.46875 v 0.2109375 l 0.43359371,0.011719 c 0.3867188,0.023437 0.421875,0.070312 0.421875,0.5390625 v 3.4570313 c 0,0.65624997 -0.035156,0.72656247 -0.85546871,0.78515622 V 6.24375e-4 Z m 0,0"
         style="fill:#231f20;fill-opacity:1;fill-rule:nonzero;stroke:none"
         aria-label="1"
         transform="matrix(1.3333333,0,0,1.3333333,10.786453,38.06948)" />
      <path
         id="path7"
         d="m 202.5,170.32 h 600"
         style="fill:none;stroke:#231f20;stroke-width:5;stroke-linecap:butt;stroke-linejoin:miter;stroke-miterlimit:10;stroke-dasharray:none;stroke-opacity:1"
         transform="matrix(0.13333333,0,0,-0.13333333,0,44.386667)" />
      <path
         id="path8"
         d="M 3.7031688,-1.2650006 C 3.4336375,-0.69078188 3.31645,-0.65562563 2.8359813,-0.65562563 h -1.6875 L 2.425825,-1.9915631 c 0.8320313,-0.890625 1.1953125,-1.4179688 1.1953125,-2.203125 0,-0.9492188 -0.7265625,-1.5234375 -1.5117187,-1.5234375 -0.5273438,0 -0.9492188,0.234375 -1.21875005,0.5390625 l -0.515625,0.7265625 0.19921875,0.1757812 c 0.234375,-0.3515625 0.609375,-0.8320312 1.2304688,-0.8320312 0.65625,0 1.0546875,0.4335937 1.0546875,1.1953125 0,0.7734375 -0.5625,1.5117187 -1.125,2.1796875 C 1.2891063,-1.2181256 0.7852,-0.70250063 0.28129375,-0.21031313 V 6.24375e-4 H 3.644575 C 3.7500438,-0.40953188 3.8437938,-0.79625063 3.9609813,-1.1829694 Z M 20.762739,-4.4642194 c 0.222656,-0.328125 0.585938,-0.7148437 1.078125,-0.7148437 0.480469,0 0.855469,0.2929687 0.855469,0.8554687 0,0.65625 -0.609375,1.0078125 -1.429688,1.2773438 l 0.05859,0.2578125 c 0.140625,-0.046875 0.363281,-0.1054688 0.574219,-0.1054688 0.515625,0 1.148437,0.3398438 1.148437,1.171875 0,0.89062502 -0.457031,1.35937502 -1.089843,1.35937502 -0.515625,0 -0.890625,-0.24609375 -1.125,-0.45703125 -0.07031,-0.0585938 -0.140625,-0.046875 -0.210938,0 -0.08203,0.0585938 -0.199219,0.17578125 -0.210937,0.29296875 -0.01172,0.1171875 0.02344,0.2109375 0.152343,0.328125 0.117188,0.10546875 0.480469,0.3046875 0.890625,0.3046875 0.65625,0 2.367188,-0.66796875 2.367188,-2.12109372 0,-0.65625 -0.46875,-1.21875 -1.253906,-1.3710938 v -0.011719 c 0.257812,-0.1875 0.480468,-0.3398438 0.609375,-0.4921875 0.175781,-0.1640625 0.28125,-0.375 0.28125,-0.6328125 0,-0.6914063 -0.527344,-1.1953125 -1.347657,-1.1953125 -0.46875,0 -0.890625,0.234375 -1.136718,0.5039062 l -0.398438,0.5742188 z m 23.337891,2.859375 v -0.421875 h -0.867188 v -3.65625 H 42.88188 c -0.925782,1.21875 -1.851563,2.5546875 -2.707032,3.8320313 v 0.2460937 h 2.34375 v 0.65625002 c 0,0.5859375 -0.03516,0.64453125 -0.820312,0.703125 V 6.24375e-4 H 44.00688 V -0.24546938 c -0.726563,-0.0585938 -0.773438,-0.10546875 -0.773438,-0.703125 V -1.6048444 Z m -1.582032,-0.421875 h -1.769531 c 0.585938,-0.9960937 1.171875,-1.8515625 1.757813,-2.6484375 H 42.5186 Z M 3.457075,-16.522813 v -0.246094 c -0.8203125,-0.05859 -0.8789062,-0.128906 -0.8789062,-0.785156 v -4.6875 c -0.4921875,0.199219 -1.0195313,0.375 -1.59375005,0.46875 v 0.210937 l 0.43359375,0.01172 c 0.3867188,0.02344 0.421875,0.07031 0.421875,0.539063 v 3.457031 c 0,0.65625 -0.035156,0.726562 -0.85546875,0.785156 v 0.246094 z m 20.000977,0 v -0.246094 c -0.820313,-0.05859 -0.878907,-0.128906 -0.878907,-0.785156 v -4.6875 c -0.492187,0.199219 -1.019531,0.375 -1.59375,0.46875 v 0.210937 l 0.433594,0.01172 c 0.386719,0.02344 0.421875,0.07031 0.421875,0.539063 v 3.457031 c 0,0.65625 -0.03516,0.726562 -0.855469,0.785156 v 0.246094 z m 20.24414,-1.265625 c -0.269531,0.574219 -0.386719,0.609375 -0.867187,0.609375 h -1.6875 l 1.277343,-1.335938 c 0.832032,-0.890625 1.195313,-1.417968 1.195313,-2.203125 0,-0.949218 -0.726563,-1.523437 -1.511719,-1.523437 -0.527344,0 -0.949219,0.234375 -1.21875,0.539062 l -0.515625,0.726563 0.199219,0.175781 c 0.234375,-0.351562 0.609375,-0.832031 1.230469,-0.832031 0.65625,0 1.054687,0.433594 1.054687,1.195312 0,0.773438 -0.5625,1.511719 -1.125,2.179688 -0.445312,0.515625 -0.949219,1.03125 -1.453125,1.523437 v 0.210938 h 3.363281 c 0.105469,-0.410156 0.199219,-0.796875 0.316407,-1.183594 z m 17.493164,0.914062 -0.09375,-0.234375 c -0.09375,0.05859 -0.222656,0.105469 -0.328125,0.105469 -0.152343,0 -0.316406,-0.140625 -0.316406,-0.550781 v -1.664063 c 0,-0.46875 -0.08203,-0.84375 -0.398437,-1.101562 -0.199219,-0.164063 -0.46875,-0.246094 -0.738282,-0.246094 -0.515625,0.105469 -1.101562,0.457031 -1.347656,0.632813 -0.175781,0.128906 -0.292969,0.222656 -0.292969,0.363281 0,0.199219 0.234375,0.386719 0.398438,0.386719 0.128906,0 0.222656,-0.07031 0.257812,-0.210938 0.07031,-0.28125 0.152344,-0.480469 0.269532,-0.597656 0.09375,-0.105469 0.222656,-0.175781 0.410156,-0.175781 0.445312,0 0.75,0.363281 0.75,1.019531 v 0.164062 c -0.199219,0.152344 -0.855469,0.398438 -1.394531,0.574219 -0.492188,0.175781 -0.726563,0.457031 -0.726563,0.902344 0,0.5625 0.445313,1.089844 1.078125,1.089844 0.269531,0 0.703125,-0.328125 1.066406,-0.574219 0.04687,0.152344 0.09375,0.28125 0.210938,0.410156 0.105469,0.08203 0.292969,0.164063 0.421875,0.164063 z m -1.429687,-0.410156 c -0.164063,0.164063 -0.480469,0.316406 -0.714844,0.328125 -0.28125,0 -0.644531,-0.222656 -0.644531,-0.691406 0,-0.328125 0.199219,-0.492188 0.550781,-0.65625 0.1875,-0.09375 0.621094,-0.28125 0.808594,-0.375 z m 3.667969,0.761719 v -0.234375 c -0.574219,-0.05859 -0.65625,-0.105469 -0.65625,-0.703125 v -5.472656 c -0.304688,0.105468 -0.855469,0.257812 -1.324219,0.316406 v 0.210937 c 0.5625,0.04687 0.621094,0.08203 0.621094,0.691407 v 4.253906 c 0,0.597656 -0.08203,0.644531 -0.644532,0.703125 v 0.234375 z m 1.350585,-4.828125 c 0.257813,0 0.457032,-0.210938 0.457032,-0.457031 0,-0.269532 -0.199219,-0.46875 -0.457032,-0.46875 -0.234375,0 -0.457031,0.199218 -0.457031,0.46875 0,0.246093 0.222656,0.457031 0.457031,0.457031 z m 1.054688,4.828125 v -0.234375 c -0.585938,-0.05859 -0.644531,-0.105469 -0.644531,-0.714844 v -3.105469 c -0.398438,0.152344 -0.820313,0.269532 -1.277344,0.351563 v 0.210937 c 0.539062,0.09375 0.5625,0.128907 0.5625,0.679688 v 1.863281 c 0,0.609375 -0.05859,0.65625 -0.621094,0.714844 v 0.234375 z m 4.069336,-0.351563 -0.09375,-0.234375 c -0.09375,0.05859 -0.222656,0.105469 -0.328125,0.105469 -0.152344,0 -0.316406,-0.140625 -0.316406,-0.550781 v -1.664063 c 0,-0.46875 -0.08203,-0.84375 -0.398438,-1.101562 -0.199219,-0.164063 -0.46875,-0.246094 -0.738281,-0.246094 -0.515625,0.105469 -1.101563,0.457031 -1.347656,0.632813 -0.175782,0.128906 -0.292969,0.222656 -0.292969,0.363281 0,0.199219 0.234375,0.386719 0.398437,0.386719 0.128907,0 0.222657,-0.07031 0.257813,-0.210938 0.07031,-0.28125 0.152344,-0.480469 0.269531,-0.597656 0.09375,-0.105469 0.222656,-0.175781 0.410156,-0.175781 0.445313,0 0.75,0.363281 0.75,1.019531 v 0.164062 c -0.199218,0.152344 -0.855468,0.398438 -1.394531,0.574219 -0.492187,0.175781 -0.726562,0.457031 -0.726562,0.902344 0,0.5625 0.445312,1.089844 1.078125,1.089844 0.269531,0 0.703125,-0.328125 1.066406,-0.574219 0.04687,0.152344 0.09375,0.28125 0.210937,0.410156 0.105469,0.08203 0.292969,0.164063 0.421875,0.164063 z m -1.429688,-0.410156 c -0.164062,0.164063 -0.480468,0.316406 -0.714843,0.328125 -0.28125,0 -0.644532,-0.222656 -0.644532,-0.691406 0,-0.328125 0.199219,-0.492188 0.550782,-0.65625 0.1875,-0.09375 0.621093,-0.28125 0.808593,-0.375 z m 4.333008,-2.167969 c -0.03516,-0.222656 -0.128906,-0.75 -0.199219,-0.960937 -0.1875,-0.07031 -0.433593,-0.152344 -0.796875,-0.152344 -0.832031,0 -1.371093,0.527344 -1.371093,1.160156 0,0.691407 0.585937,0.996094 1.125,1.242188 0.445312,0.210937 0.703125,0.421875 0.703125,0.820312 0,0.375 -0.304688,0.632813 -0.632813,0.632813 -0.539062,0 -0.949219,-0.527344 -1.113281,-1.113281 l -0.234375,0.03516 c 0,0.328125 0.08203,0.9375 0.152344,1.066406 0.164062,0.140625 0.574218,0.304688 1.03125,0.304688 0.726562,0 1.488281,-0.421875 1.488281,-1.242188 0,-0.621094 -0.457031,-0.9375 -1.136719,-1.21875 -0.410156,-0.175781 -0.761719,-0.375 -0.761719,-0.785156 0,-0.351563 0.246094,-0.621094 0.585938,-0.621094 0.433594,0 0.75,0.363281 0.925781,0.890625 z M 58.511763,-4.6868756 c 0.257812,0 0.457031,-0.2109375 0.457031,-0.4570313 0,-0.2695312 -0.199219,-0.46875 -0.457031,-0.46875 -0.234375,0 -0.457032,0.1992188 -0.457032,0.46875 0,0.2460938 0.222657,0.4570313 0.457032,0.4570313 z m 1.054687,4.82812497 v -0.234375 C 58.980513,-0.15171938 58.921919,-0.19859438 58.921919,-0.80796938 V -3.9134381 c -0.398438,0.1523437 -0.820313,0.2695312 -1.277344,0.3515625 v 0.2109375 c 0.539063,0.09375 0.5625,0.1289062 0.5625,0.6796875 v 1.86328122 c 0,0.609375 -0.05859,0.65625 -0.621094,0.71484375 v 0.234375 z m 4.851563,0 v -0.234375 c -0.527344,-0.05859375 -0.574219,-0.09375 -0.574219,-0.703125 V -2.5306256 c 0,-0.8789063 -0.445313,-1.3710938 -1.160156,-1.3710938 -0.257813,0 -0.492188,0.1054688 -0.75,0.2695313 -0.222657,0.1523437 -0.421875,0.2929687 -0.597657,0.421875 v -0.7148438 c -0.398437,0.1757813 -0.820312,0.28125 -1.253906,0.3632813 v 0.2109375 c 0.492188,0.09375 0.539063,0.1171875 0.539063,0.6914062 v 1.86328127 c 0,0.59765625 -0.04687,0.64453125 -0.65625,0.703125 v 0.234375 h 1.957031 v -0.234375 c -0.527344,-0.05859375 -0.585938,-0.09375 -0.585938,-0.703125 V -2.9056256 c 0.269532,-0.234375 0.621094,-0.46875 0.984375,-0.46875 0.597657,0 0.820313,0.4101562 0.820313,1.03125 v 1.49999997 c 0,0.62109375 -0.07031,0.69140625 -0.597656,0.75 v 0.234375 z m 4.828125,-0.45703125 -0.292969,-0.0234375 c -0.328125,-0.046875 -0.386719,-0.0820313 -0.386719,-0.55078125 V -6.2689069 c -0.339844,0.1171875 -0.9375,0.2578125 -1.40625,0.3164063 v 0.2109375 c 0.644531,0.046875 0.691406,0.082031 0.691406,0.6679687 v 1.2773438 c -0.210937,-0.082031 -0.46875,-0.1054688 -0.597656,-0.1054688 -1.21875,0 -2.320312,0.984375 -2.320312,2.2382813 0,1.25390622 0.949218,1.91015622 1.664062,1.91015622 0.105469,0 0.351563,-0.046875 0.703125,-0.2578125 l 0.550781,-0.328125 v 0.5859375 c 0.527344,-0.1875 1.195313,-0.3046875 1.394532,-0.33984375 z m -1.394532,-0.3046875 c -0.210937,0.1640625 -0.539062,0.3046875 -0.867187,0.3046875 -0.574219,0 -1.230469,-0.52734375 -1.230469,-1.59375002 0,-1.3007812 0.761719,-1.6523437 1.171875,-1.6523437 0.339844,0 0.714844,0.140625 0.925781,0.4570312 z m 4.904297,-0.1875 c -0.328125,0.3046875 -0.667969,0.4453125 -1.019531,0.4453125 -0.632813,0 -1.335938,-0.50390625 -1.347656,-1.72265622 1.066406,-0.046875 2.191406,-0.1289063 2.355468,-0.1640625 0.152344,-0.035156 0.199219,-0.1054688 0.199219,-0.28125 0,-0.703125 -0.597656,-1.3710938 -1.347656,-1.3710938 -0.46875,0 -0.949219,0.2460938 -1.324219,0.65625 -0.363281,0.4101563 -0.597656,0.9609375 -0.597656,1.5820313 0,1.00781247 0.65625,1.91015622 1.757812,1.91015622 0.28125,0 0.902344,-0.1640625 1.464844,-0.8671875 z M 71.384809,-3.5618756 c 0.492188,0 0.796875,0.421875 0.785157,0.890625 0,0.1289062 -0.04687,0.1875 -0.210938,0.1875 -0.527344,0.011719 -1.019531,0.023437 -1.523437,0.023437 0.128906,-0.7265625 0.527343,-1.1015625 0.949218,-1.101562 z m 6.061524,3.70312497 v -0.234375 c -0.550781,-0.0703125 -0.65625,-0.15234375 -0.996094,-0.66796875 L 75.571333,-2.0853131 c 0.292969,-0.4453125 0.527344,-0.7734375 0.703125,-0.9960938 0.328125,-0.375 0.445312,-0.421875 0.984375,-0.4804687 v -0.234375 h -1.628906 v 0.234375 c 0.386718,0.035156 0.445312,0.082031 0.28125,0.375 -0.164063,0.2929687 -0.339844,0.5742187 -0.515625,0.8320312 l -0.539063,-0.8203125 c -0.152344,-0.2578125 -0.128906,-0.3398437 0.257813,-0.3867187 v -0.234375 h -1.804688 v 0.234375 c 0.503906,0.058594 0.621094,0.1289062 0.890625,0.5742187 l 0.773438,1.21875 c -0.257813,0.4101563 -0.503907,0.7617188 -0.75,1.07812502 -0.363282,0.45703125 -0.457032,0.52734375 -1.019532,0.59765625 v 0.234375 h 1.6875 v -0.234375 c -0.46875,-0.0703125 -0.492187,-0.15234375 -0.316406,-0.45703125 0.164063,-0.328125 0.375,-0.65625002 0.574219,-0.96093752 l 0.667969,1.05468752 c 0.152343,0.24609375 0.08203,0.31640625 -0.304688,0.36328125 v 0.234375 z m 0,0"
         style="fill:#231f20;fill-opacity:1;fill-rule:nonzero;stroke:none"
         aria-label="234&#10;112alias&#10;index"
         transform="matrix(1.3333333,0,0,1.3333333,37.453067,38.06948)" />
    </g>
  </g>
</svg>
