<?xml version="1.0" encoding="UTF-8" standalone="no"?>
<!-- Created with Inkscape (http://www.inkscape.org/) -->

<svg
   version="1.1"
   id="svg1"
   width="144"
   height="144"
   viewBox="0 0 144 144"
   sodipodi:docname="phaaaf07.eps"
   xmlns:inkscape="http://www.inkscape.org/namespaces/inkscape"
   xmlns:sodipodi="http://sodipodi.sourceforge.net/DTD/sodipodi-0.dtd"
   xmlns="http://www.w3.org/2000/svg"
   xmlns:svg="http://www.w3.org/2000/svg">
  <defs
     id="defs1" />
  <sodipodi:namedview
     id="namedview1"
     pagecolor="#ffffff"
     bordercolor="#000000"
     borderopacity="0.25"
     inkscape:showpageshadow="2"
     inkscape:pageopacity="0.0"
     inkscape:pagecheckerboard="0"
     inkscape:deskcolor="#d1d1d1">
    <inkscape:page
       x="0"
       y="0"
       inkscape:label="1"
       id="page1"
       width="144"
       height="144"
       margin="0"
       bleed="0" />
  </sodipodi:namedview>
  <g
     id="g1"
     inkscape:groupmode="layer"
     inkscape:label="1">
    <g
       id="group-R5">
      <path
         id="path2"
         d="m 540,540 v 533.41 M 540,540 162.813,917.188 M 540,540 H 6.58594 M 540,540 162.813,162.809 M 540,540 V 6.58984 M 540,540 917.188,162.809 M 540,540 h 533.42 M 540,540 917.188,917.188 M 540,540 v 533.41"
         style="fill:none;stroke:#3871c1;stroke-width:7.5;stroke-linecap:square;stroke-linejoin:miter;stroke-miterlimit:3.25;stroke-dasharray:none;stroke-opacity:1"
         transform="matrix(0.13333333,0,0,-0.13333333,0,144)" />
      <path
         id="path3"
         d="m 543.777,540 c 0,1 -0.379,1.98 -1.101,2.676 -0.696,0.722 -1.668,1.101 -2.676,1.101 -1.008,0 -1.98,-0.379 -2.676,-1.101 -0.722,-0.696 -1.101,-1.676 -1.101,-2.676 0,-1 0.379,-1.98 1.101,-2.676 0.696,-0.719 1.668,-1.101 2.676,-1.101 1.008,0 1.98,0.382 2.676,1.101 0.722,0.696 1.101,1.676 1.101,2.676 v 0"
         style="fill:#4974b1;fill-opacity:1;fill-rule:evenodd;stroke:none"
         transform="matrix(0.13333333,0,0,-0.13333333,0,144)" />
      <path
         id="path4"
         d="m 540,1073.41 h 3.086 l 1.023,-0.02 h 2.075 l 1.023,-0.03 h 1.023 l 3.086,-0.08 1.008,-0.02 6.172,-0.15 2.063,-0.08 2.046,-0.1 2.063,-0.08 2.062,-0.1 2.032,-0.11 4.109,-0.22 1.035,-0.08 1.028,-0.05 2.031,-0.16 5.144,-0.39 1.004,-0.08 2.063,-0.15 4.082,-0.38 1.035,-0.08 1.023,-0.1 2.036,-0.21 4.089,-0.44 8.184,-0.95 2.207,-0.25 2.219,-0.31 4.39,-0.59 8.829,-1.32 2.21,-0.36 2.188,-0.36 4.402,-0.75 8.77,-1.62 1.074,-0.2 1.113,-0.21 2.188,-0.43 4.363,-0.91 8.703,-1.9 17.317,-4.24 0.996,-0.28 1.035,-0.26 2,-0.54 4.016,-1.11 7.996,-2.29 15.879,-4.99 0.996,-0.33 0.976,-0.34 1.985,-0.67 3.933,-1.34 7.82,-2.8 15.571,-5.97 0.926,-0.39 0.949,-0.35 1.902,-0.77 3.75,-1.58 7.52,-3.21 14.843,-6.76 1.844,-0.88 1.828,-0.9 3.684,-1.8 7.273,-3.65 14.414,-7.67 0.977,-0.54 0.945,-0.54 1.938,-1.08 3.855,-2.18 7.637,-4.481 15.051,-9.312 0.926,-0.59 0.949,-0.598 1.851,-1.207 3.684,-2.441 7.324,-4.969 14.414,-10.289 0.82,-0.613 0.848,-0.621 1.645,-1.235 3.297,-2.496 6.535,-5.062 12.8,-10.446 0.774,-0.675 0.801,-0.665 4.707,-4.015 6.203,-5.481 12.137,-11.183 0.8,-0.774 0.821,-0.797 1.601,-1.542 3.211,-3.137 6.328,-6.328 12.325,-12.996 0.746,-0.825 0.769,-0.824 1.492,-1.644 2.981,-3.336 5.898,-6.743 11.414,-13.796 0.696,-0.848 0.695,-0.863 1.363,-1.731 2.707,-3.453 5.321,-6.992 10.285,-14.25 0.644,-0.902 0.625,-0.903 1.262,-1.82 2.469,-3.633 4.836,-7.328 9.363,-14.898 0.508,-0.864 0.547,-0.879 1.027,-1.754 2.074,-3.55 4.1,-7.098 7.82,-14.406 0.49,-0.922 0.46,-0.902 0.95,-1.825 1.85,-3.656 3.63,-7.355 6.92,-14.844 0.46,-1.028 0.46,-1.003 0.88,-2.028 1.78,-4.094 3.42,-8.207 6.45,-16.566 0.39,-1.055 0.36,-1.027 0.78,-2.113 1.48,-4.168 2.86,-8.41 5.32,-16.977 0.32,-1.004 0.28,-0.98 0.59,-2.004 1.1,-3.989 2.19,-8.027 1.03,-4.012 1,-4.011 1.93,-8.078 0.24,-1.028 0.2,-1.008 0.46,-2.027 0.88,-4.043 1.67,-8.125 0.2,-1.031 0.18,-1.024 0.39,-2.039 0.77,-4.086 1.39,-8.175 0.18,-1.012 1.39,-9.027 0.28,-2.028 0.54,-4.019 0.16,-1 0.12,-1.028 0.27,-2.011 0.49,-4.032 0.86,-8.109 0.21,-2 0.2,-2.035 0.37,-4.039 0.1,-1.035 0.08,-1 0.46,-6.098 0.08,-1 0.08,-1.027 0.12,-2.036 0.05,-1 0.08,-1.027 0.11,-2.012 0.08,-1.023 0.05,-1.012 0.09,-2.023 0.03,-1.035 0.05,-1 0.11,-2.035 0.03,-1.098 0.1,-2.215 0.04,-2.215 0.06,-1.105 0.05,-2.188 0.08,-3.312 v -1.117 l 0.05,-2.211 v -2.211 l 0.03,-1.106 v -6.609 l -0.03,-1.11 v -1.101 l -0.03,-1.11 v -1.101 l -0.02,-1.086 -0.19,-7.738 -0.04,-1.11 -0.03,-1.078 -0.05,-1.109 -0.08,-2.211 -0.1,-2.211 -0.11,-2.191 -0.23,-4.422 -0.07,-1.106 -0.08,-1.07 -0.13,-2.223 -0.31,-4.398 -0.1,-1.106 -0.08,-1.109 -0.18,-2.188 -0.39,-4.394 -0.07,-1.027 -0.31,-3.086 -0.44,-4.094 -0.1,-1.031 -0.1,-1 -0.24,-2.063 -0.49,-4.086 -0.12,-1.027 -0.13,-1.008 -0.25,-2.055 -0.57,-4.093 -1.18,-8.125 -0.16,-1.032 -0.18,-1.027 -0.31,-2.031 -0.69,-4.063 -1.45,-8.105 -3.26,-16.153 -0.47,-2.164 -0.51,-2.187 -1,-4.348 -2.11,-8.672 -2.26,-8.64 -2.43,-8.59 -0.3,-1.082 -0.34,-1.055 -0.62,-2.16 -1.3,-4.27 -2.71,-8.511 -5.81,-16.875 -0.39,-1.031 -0.35,-1.032 -0.77,-2.054 -1.55,-4.09 -3.22,-8.157 -6.79,-16.179 -0.88,-2.008 -0.89,-1.98 -1.83,-3.989 -3.73,-7.949 -7.84,-15.664 -0.47,-0.902 -0.49,-0.922 -0.95,-1.801 -1.93,-3.606 -3.94,-7.148 -8.228,-14.148 -0.508,-0.875 -0.547,-0.875 -1.055,-1.746 -2.16,-3.477 -4.375,-6.891 -9.051,-13.609 -0.644,-0.93 -0.613,-0.894 -1.289,-1.828 -2.54,-3.629 -5.226,-7.176 -10.75,-14.074 -1.399,-1.746 -1.386,-1.723 -2.801,-3.449 -5.664,-6.793 -11.672,-13.348 -0.723,-0.773 -0.691,-0.746 -1.398,-1.543 -2.801,-3.039 -5.703,-5.989 -11.68,-11.734 -0.727,-0.719 -2.234,-2.16 -3.008,-2.855 -6.054,-5.633 -12.375,-11.012 -0.836,-0.723 -0.879,-0.715 -1.703,-1.464 -3.446,-2.883 -6.914,-5.66 -14.18,-11.008 -3.601,-2.68 -3.625,-2.648 -7.305,-5.196 -14.875,-10.0035 -0.926,-0.6211 -2.773,-1.7734 -3.73,-2.3438 -7.481,-4.6289 -15.234,-8.8515 -0.977,-0.5391 -0.945,-0.5078 -1.938,-1.0938 -3.855,-2.0781 -7.793,-4.1094 -15.774,-7.8203 -1.851,-0.8789 -1.875,-0.8711 -3.734,-1.7305 -7.477,-3.371 -15.156,-6.3477 -1.899,-0.7695 -1.914,-0.75 -3.824,-1.4922 -7.695,-2.8789 -15.508,-5.4297 -1.059,-0.3594 -1.051,-0.332 -2.113,-0.6992 -4.246,-1.3399 -8.516,-2.5898 -1.074,-0.3086 -1.054,-0.3438 -2.168,-0.6093 -4.266,-1.2071 -8.613,-2.2929 -1.059,-0.2891 -1.082,-0.2813 -6.484,-1.6171 -8.692,-2 -17.441,-3.6094 -1.004,-0.2031 -1.027,-0.1797 -2.032,-0.3907 -4.121,-0.7187 -8.203,-1.3594 -0.996,-0.1484 -7.207,-1.0938 L 606.445,10.75 602.336,10.2383 598.184,9.78125 597.156,9.64844 594.07,9.33984 589.934,8.92969 588.906,8.82031 587.852,8.75 585.793,8.55859 581.648,8.21094 580.598,8.12891 577.512,7.89844 573.34,7.64063 572.336,7.55859 571.309,7.51172 569.277,7.37891 568.27,7.33203 567.246,7.28125 565.203,7.17969 564.18,7.12109 563.176,7.10156 561.145,7 560.117,6.96875 559.094,6.92188 557.051,6.87109 556.055,6.82031 553.992,6.76953 552.988,6.73828 551.965,6.71094 550.957,6.69141 h -1.023 l -1.039,-0.03125 -0.997,-0.01953 h -1.035 l -0.996,-0.03125 h -2.058 l -1.004,-0.01954 h -6.125 l -1.004,0.01954 h -2.055 l -1.004,0.03125 -1.023,0.01953 h -1.035 l -0.996,0.03125 -1.04,0.01953 -1.003,0.02734 -1.028,0.03125 -2.027,0.05078 -1.027,0.01953 -1.004,0.03125 -2.036,0.07032 L 519.363,7 l -1.023,0.01953 -2.031,0.08203 -1.004,0.04688 -1.028,0.05078 -2.031,0.10156 -4.062,0.23828 -1.114,0.07032 -1.101,0.0625 -2.219,0.15625 -4.395,0.30078 -1.101,0.10156 -1.106,0.07812 -2.214,0.17969 -4.407,0.39063 -1.101,0.10156 -1.074,0.09766 -2.219,0.23046 -4.403,0.47266 -8.769,1.02735 -1.106,0.1523 -1.085,0.1289 -2.207,0.3086 -4.375,0.5899 -8.739,1.3398 -1.086,0.1836 -1.101,0.1797 -2.168,0.3477 -4.364,0.75 -8.695,1.6211 -2.012,0.4101 -2.039,0.418 -4.035,0.8203 -8.074,1.7734 -4.016,0.9297 -4.011,0.9492 -7.996,2.0079 -0.997,0.2812 -1.015,0.2617 -1.985,0.5078 -3.984,1.1094 -7.922,2.2422 L 374.18,33 l -1.055,0.3594 -1.074,0.3711 -2.11,0.6914 -4.25,1.4375 -8.406,3.0117 -16.726,6.3984 -2.063,0.8321 -2.078,0.8476 -4.113,1.7227 -8.203,3.5781 -16.243,7.5117 -0.996,0.4571 -0.972,0.4921 -1.996,0.9688 -3.895,1.9609 -7.82,4.0196 -15.422,8.3984 -1.895,1.0898 -5.715,3.3164 -7.507,4.5 -14.844,9.4141 -3.399,2.2656 -3.398,2.293 -6.738,4.6525 -13.242,9.648 -0.821,0.59 -0.832,0.621 -1.621,1.258 -3.262,2.473 -6.433,5.062 -12.633,10.418 -1.688,1.442 -1.675,1.464 -3.344,2.911 -6.637,5.914 -12.937,12.199 -1.598,1.543 -1.566,1.543 -3.141,3.133 -6.227,6.359 -12.089,13.016 -2.778,3.086 -2.73,3.109 -5.395,6.281 -10.5,12.836 -0.648,0.82 -0.637,0.797 -1.293,1.649 -2.539,3.265 -4.992,6.614 -9.699,13.453 -0.567,0.847 -0.593,0.821 -1.125,1.676 -2.2973,3.371 -4.5,6.765 -8.668,13.762 -0.5391,0.871 -0.5078,0.852 -1.0547,1.746 -2.0664,3.504 -4.0898,7.019 -7.8203,14.254 -1.0313,1.953 -1,1.953 -2.0078,3.934 -3.9297,7.902 -7.4609,15.973 -0.4688,1.004 -0.4336,1 -0.9062,2.039 -1.7422,4.035 -3.3984,8.125 -6.3789,16.465 -0.3594,0.953 -0.3594,0.977 -2.0898,5.793 -2.6719,7.792 -4.9961,15.692 -0.2813,0.976 -0.3007,0.981 -0.5664,1.976 -1.1602,3.961 -2.1875,7.926 -4.0156,15.946 -0.2578,1.105 -0.2579,1.086 -0.4843,2.156 -0.9492,4.375 -1.8282,8.723 -0.2343,1.101 -0.2032,1.082 -0.4414,2.184 -0.7969,4.398 -1.5429,8.778 -0.3555,2.211 -0.3437,2.187 -0.6875,4.422 -0.3086,2.215 -0.3125,2.187 -0.6094,4.422 -0.1328,1.106 -0.1485,1.105 -0.2656,2.215 -0.539,4.422 -0.92583,8.879 -0.10156,1.055 -0.09766,1.023 -0.1875,2.086 -0.35547,4.141 -0.10547,1.031 -0.07812,1.055 -0.15235,2.058 -0.28515,4.164 -0.07422,1.031 -0.05469,1.055 -0.125,2.059 -0.05078,1.05 -0.07812,1.032 -0.10157,2.086 -0.05078,1.023 -0.05469,1.059 -0.07812,2.082 -0.05469,1.031 -0.04687,1.055 -0.07813,2.086 -0.05469,2.054 -0.02343,1.055 -0.05469,1.031 -0.02344,1.055 -0.01953,1.027 v 1.059 l -0.03125,1.023 -0.02344,1.055 -0.02734,1.031 v 1.059 l -0.02344,1.023 v 2.082 l -0.02734,1.055 v 6.23 l 0.02734,1.051 v 1.031 l 0.02344,1.051 v 1.028 l 0.02734,1.062 v 1.027 l 0.02344,1.055 0.03125,1.027 0.01953,1.051 0.05469,2.086 0.02344,1.008 0.02343,1.023 0.07813,2.032 0.05469,1.031 0.01953,1.035 0.08203,2.027 0.05078,1.024 0.05078,1.012 0.09766,2.027 0.21484,4.09 0.07031,1.035 0.05469,0.996 0.12891,2.035 0.28515,4.094 0.07422,1 0.07813,1.027 0.18359,2.035 0.32813,4.063 0.10937,1.023 0.07422,1.012 0.61328,6.09 0.10547,1.035 0.10938,1 0.68747,6.102 0.2578,2 0.2579,2.035 0.539,4.035 1.3203,9.187 0.1758,1.106 0.3359,2.187 0.7149,4.375 1.5391,8.715 0.4179,2.157 0.4063,2.191 0.8789,4.348 1.8281,8.671 0.2578,1.083 0.2344,1.078 0.4844,2.164 1,4.289 2.1406,8.621 4.6562,17.078 0.2852,1.008 0.3008,0.98 0.5664,1.973 1.2109,3.965 2.4961,7.871 5.3477,15.668 0.3633,0.953 0.3632,0.977 0.6953,1.953 1.4375,3.855 2.9844,7.723 6.2969,15.277 0.4648,1.024 0.4414,1.035 0.9024,2.054 1.8203,4.094 3.7578,8.129 7.918,16.074 0.5195,0.977 0.5156,1.008 1.0313,1.98 2.0781,3.961 4.3008,7.867 8.9766,15.516 0.5664,0.93 0.5664,0.945 1.1562,1.883 2.3164,3.734 4.7071,7.43 9.7973,14.605 0.644,0.903 0.621,0.906 1.254,1.797 2.578,3.578 5.196,7.097 10.73,13.918 2.566,3.188 2.606,3.187 5.269,6.301 10.801,12.324 0.699,0.778 0.692,0.742 1.39,1.516 2.778,3.007 5.629,5.977 11.547,11.644 1.597,1.551 1.625,1.543 3.215,3.086 6.508,6.051 13.332,11.773 3.387,2.883 3.429,2.856 6.895,5.601 14.086,10.891 1.648,1.226 1.672,1.243 3.367,2.441 6.77,4.809 13.762,9.285 3.496,2.265 3.504,2.239 7.05,4.371 14.325,8.411 0.871,0.52 0.91,0.49 1.773,1 3.547,1.98 7.18,3.83 14.511,7.39 0.915,0.46 0.929,0.44 1.824,0.87 3.684,1.75 7.383,3.43 14.953,6.48 1.023,0.43 0.997,0.41 2.058,0.82 4.094,1.65 8.23,3.19 16.645,5.98 1.055,0.35 1.023,0.36 2.117,0.69 4.192,1.37 8.437,2.64 16.973,4.84 1.008,0.29 1.003,0.26 1.973,0.5 3.992,1.04 8.032,1.93 1.003,0.26 0.997,0.23 2.011,0.43 4.004,0.9 8.086,1.7 2.012,0.41 2.019,0.42 4.043,0.77 8.125,1.44 1.008,0.18 1.027,0.15 2.04,0.34 4.062,0.64 8.145,1.2 1.164,0.16 3.394,0.46 4.582,0.57 1.133,0.13 1.152,0.16 2.293,0.25 4.551,0.49 1.164,0.13 1.133,0.11 2.285,0.23 4.602,0.41 1.133,0.1 1.16,0.08 2.297,0.2 4.57,0.34 1.16,0.07 1.133,0.08 2.312,0.13 1.133,0.07 1.152,0.05 2.297,0.14 1.153,0.05 1.164,0.07 2.285,0.11 1.16,0.05 1.133,0.03 2.312,0.1 1.125,0.02 1.161,0.05 1.164,0.03 1.125,0.03 3.472,0.07 1.137,0.03 1.16,0.02 h 1.152 l 1.133,0.03 h 1.153 l 1.164,0.02 H 540 m 0,-34.43 h 1.934 l 0.957,-0.03 h 1.922 l 0.949,-0.03 h 0.976 l 0.957,-0.03 h 0.95 l 0.972,-0.02 0.957,-0.03 h 0.949 l 0.977,-0.03 0.957,-0.02 1.926,-0.06 0.957,-0.04 0.973,-0.02 1.906,-0.08 0.976,-0.03 0.95,-0.05 1.929,-0.08 1.906,-0.11 1.922,-0.07 3.84,-0.23 0.977,-0.05 0.949,-0.08 1.934,-0.13 3.828,-0.28 1.902,-0.15 1.934,-0.16 3.828,-0.34 0.957,-0.1 0.945,-0.07 1.906,-0.21 3.836,-0.38 7.641,-0.91 1.023,-0.12 1.055,-0.14 2.063,-0.26 4.136,-0.56 9.27,-1.39 1.023,-0.17 2.063,-0.34 4.109,-0.7 8.203,-1.52 1.035,-0.2 1.008,-0.17 2.051,-0.42 4.094,-0.85 8.125,-1.78 16.211,-3.96 0.945,-0.26 0.93,-0.25 5.632,-1.54 7.493,-2.14 14.863,-4.68 0.894,-0.31 2.786,-0.92 3.679,-1.27 7.325,-2.62 14.543,-5.56 0.898,-0.35 0.867,-0.36 1.777,-0.72 3.528,-1.47 7.019,-3.013 13.899,-6.324 0.84,-0.41 0.879,-0.418 1.726,-0.824 3.422,-1.7 6.812,-3.418 13.481,-7.175 0.894,-0.485 0.911,-0.519 1.828,-1.004 3.574,-2.059 7.145,-4.168 14.105,-8.715 0.867,-0.574 0.852,-0.535 1.746,-1.133 3.445,-2.289 6.867,-4.629 13.489,-9.648 0.769,-0.567 0.774,-0.597 4.628,-3.465 6.09,-4.762 11.993,-9.746 0.746,-0.621 0.718,-0.617 4.399,-3.781 5.816,-5.118 11.34,-10.468 0.773,-0.719 0.75,-0.75 1.512,-1.438 2.988,-2.937 5.918,-5.914 11.528,-12.145 0.711,-0.769 0.703,-0.774 1.406,-1.562 2.813,-3.113 5.5,-6.305 10.671,-12.891 0.645,-0.82 0.645,-0.797 1.289,-1.621 2.519,-3.246 4.988,-6.527 9.622,-13.329 0.593,-0.847 0.586,-0.824 3.481,-5.098 4.547,-6.867 8.722,-13.914 0.52,-0.821 1.465,-2.472 1.961,-3.321 3.796,-6.629 7.336,-13.48 0.442,-0.852 0.426,-0.875 0.878,-1.699 1.75,-3.418 3.399,-6.871 6.484,-13.89 0.41,-0.954 0.43,-0.949 0.828,-1.906 1.672,-3.832 3.191,-7.664 6.02,-15.508 0.36,-0.957 1.08,-2.934 1.39,-3.933 2.7,-7.871 4.97,-15.867 0.28,-0.934 0.25,-0.93 0.54,-1.875 1.06,-3.722 2.03,-7.493 0.26,-0.953 0.23,-0.922 0.49,-1.875 0.92,-3.789 1.81,-7.535 0.23,-0.957 0.62,-2.851 0.82,-3.778 1.57,-7.617 1.43,-7.613 1.32,-7.664 0.15,-0.93 0.16,-0.953 0.28,-1.867 0.59,-3.766 0.13,-0.949 0.13,-0.934 0.28,-1.898 0.52,-3.754 0.13,-0.953 0.12,-0.922 0.24,-1.902 0.46,-3.786 0.82,-7.562 0.1,-0.953 0.11,-0.922 0.18,-1.906 0.33,-3.782 0.31,-3.812 0.29,-3.777 0.07,-0.95 0.05,-0.957 0.13,-1.898 0.08,-0.953 0.25,-4.758 0.11,-1.883 0.06,-0.945 0.02,-0.953 0.09,-1.907 0.03,-1.035 0.05,-1.023 0.03,-1.027 0.03,-1.051 0.05,-1.035 0.16,-6.172 v -1.059 l 0.02,-1.023 v -1.035 l 0.03,-1.028 v -2.055 l 0.02,-1.035 v -4.132 l -0.02,-1.032 v -2.054 l -0.03,-1.032 v -1.031 l -0.02,-1.055 -0.06,-2.054 v -1.032 l -0.02,-1.031 -0.06,-1.023 -0.05,-2.063 -0.02,-1.054 -0.06,-1.032 -0.02,-1.023 -0.07,-2.063 -0.21,-4.113 -0.2,-4.141 -0.08,-1.031 -0.06,-1.023 -0.13,-2.063 -0.61,-8.23 -0.37,-4.117 -0.09,-0.953 -0.08,-0.954 -0.21,-1.925 -0.39,-3.836 -0.2,-1.899 -0.24,-1.933 -0.43,-3.832 -0.26,-1.903 -0.22,-1.902 -0.52,-3.832 -1.13,-7.617 -0.13,-0.953 -0.47,-2.852 -0.63,-3.809 -1.34,-7.586 -3.07,-15.105 -0.23,-1 -0.23,-1.031 -0.44,-2.031 -0.95,-4.067 -1.98,-8.125 -0.51,-2.008 -0.54,-2.031 -1.09,-4.043 -2.82,-10.027 -0.59,-2.008 -1.24,-4.016 -2.52,-7.945 -5.45,-15.797 -0.34,-0.953 -0.37,-0.977 -0.71,-1.906 -1.44,-3.855 -2.98,-7.614 -6.392,-15.125 -0.41,-0.929 -0.41,-0.949 -0.848,-1.875 -1.699,-3.735 -3.468,-7.406 -7.333,-14.66 -0.46,-0.852 -0.438,-0.847 -0.898,-1.704 -1.805,-3.367 -3.684,-6.679 -7.683,-13.227 -0.492,-0.824 -0.516,-0.828 -0.977,-1.621 -2.004,-3.254 -4.089,-6.465 -8.496,-12.739 -2.364,-3.39 -2.39,-3.399 -4.883,-6.714 -10.063,-13.168 -0.672,-0.797 -0.644,-0.824 -1.277,-1.622 -2.629,-3.214 -5.301,-6.379 -10.93,-12.477 -0.644,-0.719 -0.664,-0.699 -1.289,-1.437 -2.657,-2.828 -5.32,-5.637 -10.91,-10.957 -0.696,-0.699 -0.691,-0.668 -1.418,-1.332 -2.801,-2.676 -5.652,-5.274 -11.582,-10.261 -0.793,-0.7 -0.801,-0.671 -1.594,-1.36 -3.218,-2.699 -6.477,-5.301 -13.281,-10.293 -0.82,-0.64 -0.848,-0.61 -1.672,-1.269 -3.398,-2.469 -6.844,-4.859 -13.918,-9.368 -0.852,-0.562 -0.867,-0.57 -1.726,-1.102 -3.497,-2.188 -6.996,-4.32 -14.254,-8.285 -0.902,-0.488 -0.894,-0.516 -1.797,-0.976 -3.633,-1.981 -7.277,-3.8359 -14.766,-7.3281 -0.852,-0.4141 -0.879,-0.4101 -1.746,-0.7969 -3.476,-1.6211 -7.024,-3.1406 -14.168,-5.9649 -0.878,-0.3398 -0.899,-0.3516 -1.777,-0.7305 -3.594,-1.3789 -7.18,-2.7109 -14.508,-5.0586 -1.007,-0.3398 -0.977,-0.3086 -5.937,-1.9219 -7.981,-2.4297 -1.004,-0.2695 -0.996,-0.3203 -2.012,-0.5586 -3.984,-1.1328 -8.059,-2.1602 -0.996,-0.2578 -1.035,-0.2617 -2,-0.5078 -4.043,-1.0118 -8.125,-1.8789 -16.308,-3.3906 -1.907,-0.3594 -1.929,-0.332 -3.801,-0.6992 -7.695,-1.2578 -1.907,-0.3125 -5.789,-0.8477 -7.683,-1.0312 -0.981,-0.1016 -0.957,-0.1289 -1.949,-0.2305 -3.859,-0.4375 -0.957,-0.1015 -0.977,-0.1016 -1.926,-0.207 -3.886,-0.3828 -0.946,-0.0782 -0.984,-0.1015 -1.926,-0.1602 -3.887,-0.3281 -0.949,-0.0508 -2.937,-0.2305 -3.86,-0.2578 -1.902,-0.1133 -1.902,-0.1171 -0.95,-0.0625 -0.957,-0.0196 -2.843,-0.1601 -0.957,-0.0196 -1.903,-0.0976 -0.957,-0.0313 -0.976,-0.0312 -1.907,-0.0703 -5.711,-0.1602 h -0.949 l -1.902,-0.0469 h -0.945 l -0.958,-0.0312 h -2.851 l -0.957,-0.0195 h -3.813 l -0.972,0.0195 h -1.907 l -0.949,0.0312 h -0.957 l -0.945,0.0274 h -0.957 l -2.852,0.082 h -0.949 l -1.902,0.0469 -0.957,0.0508 -2.852,0.0703 -0.957,0.0625 -0.945,0.0195 -1.906,0.0781 -7.618,0.4102 -1.023,0.0508 -1.059,0.0781 -2.047,0.1328 -6.183,0.457 -2.051,0.1797 -4.141,0.3633 -1.042,0.1094 -1.028,0.0703 -2.051,0.1992 -4.113,0.4414 -8.211,0.9766 -2.058,0.2617 -2.036,0.2813 -4.121,0.5703 -8.14,1.2382 -1.035,0.1719 -1.028,0.1602 -2.031,0.3594 -4.094,0.6875 -8.125,1.5195 -0.957,0.1836 -0.926,0.1797 -1.906,0.3867 -3.777,0.793 -7.531,1.6484 -0.957,0.1992 -0.926,0.2109 -1.883,0.461 -3.75,0.8789 -7.492,1.8984 -0.918,0.2305 -0.957,0.2617 -1.844,0.4883 -3.742,1 -7.422,2.1406 -14.746,4.5508 -0.977,0.3281 -0.996,0.3438 -5.945,2.0078 -7.902,2.8008 -15.618,5.9883 -0.972,0.3906 -0.95,0.3789 -1.933,0.8008 -3.887,1.625 -7.668,3.3164 -15.176,7.0273 -0.918,0.457 -0.925,0.4415 -1.856,0.8984 -3.68,1.8555 -7.304,3.7539 -14.406,7.8709 -0.899,0.488 -0.898,0.512 -1.785,1.031 -3.547,2.086 -7.024,4.219 -13.863,8.797 -0.82,0.539 -0.801,0.516 -1.594,1.054 -3.164,2.161 -6.301,4.343 -12.398,9.004 -0.774,0.567 -0.754,0.589 -1.531,1.164 -3.039,2.34 -6.023,4.731 -11.825,9.75 -0.773,0.672 -0.801,0.668 -4.707,4.089 -6.195,5.528 -12.09,11.398 -1.496,1.442 -1.469,1.465 -2.961,2.933 -5.812,5.942 -11.317,12.144 -0.64,0.742 -1.93,2.16 -2.578,2.907 -5.035,5.894 -9.824,11.988 -0.594,0.77 -0.621,0.773 -1.188,1.52 -2.386,3.059 -4.657,6.199 -9.082,12.578 -0.539,0.769 -0.539,0.801 -1.082,1.543 -2.137,3.164 -4.191,6.328 -8.125,12.864 -0.492,0.824 -0.489,0.797 -0.976,1.621 -1.93,3.265 -3.804,6.586 -7.3403,13.352 -0.4805,0.894 -0.4648,0.907 -0.9571,1.847 -1.875,3.657 -3.6718,7.379 -7.0039,14.972 -0.4102,0.93 -0.4141,0.949 -0.8437,1.875 -1.6211,3.785 -3.1914,7.614 -5.9648,15.382 -0.6758,1.797 -0.668,1.828 -1.2812,3.629 -2.4961,7.282 -4.6836,14.66 -0.2578,0.929 -0.2852,0.899 -1.6211,5.554 -2.0312,7.411 -3.754,14.945 -0.2304,1.004 -0.2578,1.031 -0.4571,2.031 -0.9062,4.063 -1.6992,8.18 -0.2032,1.003 -0.207,1.032 -0.3867,2.054 -0.7695,4.094 -1.4414,8.231 -0.1485,1.027 -0.1875,1.027 -0.3125,2.063 -0.6406,4.109 -0.1563,1.031 -0.1523,1.055 -0.2813,2.063 -0.5664,4.14 -0.5117,4.114 -0.4883,4.167 -0.875,8.286 -0.2031,1.953 -0.1836,1.929 -0.3125,3.887 -0.0703,0.977 -0.082,0.953 -0.1485,1.953 -0.2851,3.887 -0.0547,0.972 -0.0781,0.953 -0.2032,3.915 -0.1015,1.925 -0.1094,1.953 -0.0742,1.954 -0.0508,0.953 -0.0273,0.98 -0.0743,1.953 -0.0312,0.977 -0.043,0.976 -0.0273,0.954 -0.082,2.933 v 0.977 l -0.0469,1.953 -0.0313,0.953 v 0.98 l -0.0234,0.977 v 2.93 l -0.0274,0.98 v 3.883 l 0.0274,0.977 v 1.957 l 0.0234,0.953 v 0.976 l 0.0313,0.985 v 0.968 l 0.0781,2.93 0.0508,1.93 0.0273,0.957 0.0235,0.972 0.0507,1.903 0.0508,0.957 0.0235,0.949 0.0781,1.906 0.1016,1.907 0.082,1.906 0.1992,3.832 0.082,0.945 0.0508,0.957 0.3906,5.707 0.6133,7.613 0.1016,0.957 0.082,0.95 0.1719,1.898 0.3945,3.809 0.0938,0.926 0.3125,2.863 0.4375,3.804 0.1289,0.922 0.1054,0.953 0.2344,1.903 0.5078,3.785 1.0821,7.562 0.3086,2.055 0.3359,2.039 0.6641,4.086 1.4414,8.153 0.1797,1.027 0.207,1.012 0.3828,2.05 0.8281,4.063 1.6992,8.105 0.461,2.012 0.4414,2.023 0.9453,4.04 1.9844,8.027 4.3711,16.004 0.2578,0.922 0.2851,0.925 0.5391,1.852 1.1289,3.707 2.3398,7.356 4.9961,14.64 0.3282,0.922 0.3398,0.902 0.6641,1.825 1.3359,3.601 2.8086,7.235 5.8906,14.3 0.4063,0.946 0.4453,0.957 0.8281,1.929 1.711,3.832 3.5078,7.59 7.4062,15.043 0.4883,0.934 0.4648,0.926 0.9766,1.875 1.9575,3.703 4.007,7.34 8.414,14.503 0.508,0.895 3.789,6.129 4.399,6.941 9.179,13.664 1.188,1.696 1.176,1.672 2.398,3.343 4.863,6.633 10.032,13.047 0.617,0.746 0.594,0.742 3.625,4.481 4.937,5.867 10.113,11.547 0.645,0.719 0.633,0.695 1.297,1.414 2.621,2.832 5.273,5.586 10.801,10.875 0.75,0.746 2.238,2.156 3.012,2.887 6.09,5.66 12.472,11.035 0.774,0.676 5.586,4.676 6.457,5.246 13.172,10.16 0.793,0.594 0.781,0.562 1.559,1.16 3.136,2.293 6.328,4.497 12.891,8.703 0.801,0.535 0.82,0.515 1.621,1.051 3.289,2.086 6.582,4.086 13.41,7.902 1.653,0.922 5.008,2.778 6.687,3.605 13.586,6.922 0.867,0.406 2.551,1.242 3.445,1.645 6.926,3.187 13.965,6.072 1.902,0.77 1.926,0.8 3.84,1.52 7.683,2.98 15.579,5.58 1.953,0.67 1.953,0.65 3.933,1.28 7.891,2.47 15.899,4.55 0.925,0.24 0.93,0.25 1.855,0.49 3.75,0.95 7.493,1.83 0.918,0.2 0.957,0.24 1.882,0.41 3.75,0.85 7.571,1.59 0.926,0.18 0.949,0.18 1.902,0.39 3.777,0.71 7.59,1.37 7.617,1.24 7.61,1.1 1.082,0.15 1.055,0.16 2.136,0.28 4.27,0.52 1.086,0.13 1.043,0.13 2.148,0.25 4.285,0.46 1.059,0.11 1.082,0.1 2.129,0.23 4.305,0.38 1.078,0.09 1.05,0.1 2.161,0.15 4.296,0.34 1.055,0.05 1.082,0.07 2.16,0.13 1.055,0.09 1.086,0.04 2.156,0.13 1.055,0.06 3.242,0.15 1.055,0.03 1.074,0.05 2.168,0.08 1.074,0.04 1.055,0.02 5.41,0.14 1.055,0.02 1.074,0.03 h 1.086 l 1.07,0.03 h 2.168 l 1.059,0.03 H 540 m 0,-37.03 h 2.676 l 0.879,-0.02 h 1.797 l 0.871,-0.02 h 0.906 l 0.867,-0.03 h 0.899 l 0.91,-0.03 0.871,-0.02 0.894,-0.03 0.879,-0.03 1.797,-0.05 0.883,-0.02 0.894,-0.04 1.782,-0.04 0.894,-0.05 0.879,-0.03 1.77,-0.08 0.91,-0.05 0.867,-0.05 1.777,-0.07 3.575,-0.2 0.878,-0.06 0.899,-0.08 1.777,-0.11 3.543,-0.25 0.879,-0.07 0.902,-0.09 5.321,-0.453 0.879,-0.079 0.898,-0.078 1.746,-0.179 3.547,-0.395 7.078,-0.789 0.949,-0.125 0.977,-0.133 1.902,-0.258 3.84,-0.515 7.637,-1.133 3.809,-0.617 3.808,-0.664 7.59,-1.395 0.945,-0.179 0.93,-0.18 1.902,-0.383 3.782,-0.773 7.539,-1.653 15,-3.672 3.496,-0.925 3.472,-0.95 6.914,-2.011 13.774,-4.317 1.687,-0.566 1.731,-0.57 3.394,-1.184 6.789,-2.414 13.457,-5.172 0.821,-0.34 0.82,-0.305 1.649,-0.664 3.246,-1.363 6.504,-2.777 12.859,-5.871 3.191,-1.543 3.164,-1.543 6.328,-3.164 12.473,-6.641 0.828,-0.457 0.852,-0.492 1.672,-0.926 3.316,-1.898 6.633,-3.864 13.047,-8.082 1.594,-1.023 1.621,-1.055 3.191,-2.109 6.348,-4.297 12.48,-8.899 1.438,-1.082 1.414,-1.085 2.859,-2.161 5.656,-4.371 11.094,-9.027 0.692,-0.598 0.667,-0.566 1.368,-1.149 2.722,-2.339 5.352,-4.739 10.516,-9.695 1.398,-1.336 1.406,-1.359 2.754,-2.711 5.481,-5.481 10.703,-11.238 1.289,-1.438 1.304,-1.445 2.598,-2.879 5.102,-5.836 9.898,-11.937 2.363,-2.985 2.344,-3.011 4.602,-6.047 8.933,-12.344 1.075,-1.543 1.085,-1.574 2.129,-3.16 4.219,-6.328 8.086,-12.914 0.461,-0.747 0.457,-0.769 0.906,-1.52 1.797,-3.066 3.527,-6.172 6.79,-12.473 0.41,-0.773 0.418,-0.797 0.793,-1.566 1.621,-3.164 3.14,-6.387 6.02,-12.859 0.769,-1.746 0.774,-1.778 1.543,-3.523 2.957,-7.102 5.586,-14.347 0.332,-0.926 0.332,-0.903 0.644,-1.804 1.289,-3.621 2.493,-7.286 4.605,-14.679 0.512,-1.754 1.465,-5.172 1.882,-6.949 0.223,-0.879 0.235,-0.84 1.32,-5.246 1.672,-7 0.175,-0.879 0.211,-0.867 1.157,-5.25 1.433,-7.055 0.188,-0.863 0.152,-0.906 0.332,-1.75 0.664,-3.551 1.211,-7.07 0.156,-0.879 0.129,-0.875 0.282,-1.719 0.773,-5.25 0.254,-1.723 0.488,-3.496 0.11,-0.879 0.125,-0.875 0.207,-1.754 0.437,-3.496 0.774,-6.988 0.078,-0.879 0.093,-0.875 0.161,-1.754 0.335,-3.523 0.05,-0.871 0.23,-2.625 0.26,-3.524 0.08,-0.875 0.05,-0.879 0.11,-1.765 0.06,-0.879 0.16,-2.621 0.06,-0.907 0.02,-0.871 0.11,-1.754 0.02,-0.871 0.05,-0.902 0.07,-1.746 0.03,-0.949 0.05,-0.957 0.03,-0.946 0.03,-0.98 0.05,-0.949 0.08,-2.864 v -0.949 l 0.05,-1.906 0.02,-0.977 v -0.953 l 0.02,-0.949 v -1.899 l 0.03,-0.96 v -4.778 l -0.03,-0.953 v -1.93 l -0.02,-0.953 v -0.949 l -0.02,-0.953 v -0.953 l -0.03,-0.949 -0.02,-0.981 -0.13,-4.758 -0.06,-0.953 -0.02,-0.953 -0.08,-1.93 -0.03,-0.949 -0.15,-2.851 -0.21,-3.832 -0.1,-1.907 -0.12,-1.902 -0.29,-3.813 -0.05,-0.949 -0.23,-2.855 -0.34,-3.805 -0.071,-0.902 -0.105,-0.875 -0.156,-1.774 -0.379,-3.55 -0.079,-0.903 -0.109,-0.875 -0.613,-5.32 -0.129,-0.875 -0.109,-0.902 -0.223,-1.75 -0.469,-3.547 -1.055,-7.051 -0.128,-0.875 -0.125,-0.899 -0.286,-1.75 -0.593,-3.523 -1.258,-7.023 -2.832,-13.993 -0.207,-0.929 -0.203,-0.953 -0.43,-1.879 -0.852,-3.778 -1.855,-7.511 -0.234,-0.926 -0.254,-0.953 -0.489,-1.852 -0.976,-3.754 -2.11,-7.437 -0.261,-0.926 -0.285,-0.926 -0.54,-1.851 -1.128,-3.704 -2.336,-7.382 -5.047,-14.614 -0.305,-0.898 -0.344,-0.875 -2,-5.328 -2.785,-7.071 -5.887,-13.992 -0.363,-0.875 -0.379,-0.879 -0.801,-1.722 -1.574,-3.449 -3.211,-6.864 -6.789,-13.586 -0.41,-0.797 -0.418,-0.769 -0.82,-1.57 -1.668,-3.114 -3.418,-6.191 -7.129,-12.25 -0.461,-0.774 -0.437,-0.746 -0.93,-1.515 -1.875,-3.008 -3.789,-5.996 -7.84,-11.785 -0.539,-0.77 -0.567,-0.797 -1.085,-1.57 -2.235,-3.137 -4.504,-6.226 -9.336,-12.192 -1.179,-1.496 -3.633,-4.476 -4.91,-5.914 -10.11,-11.551 -0.617,-0.668 -0.594,-0.641 -1.211,-1.34 -2.441,-2.625 -4.941,-5.195 -10.11,-10.16 -0.64,-0.617 -0.649,-0.645 -1.277,-1.234 -2.598,-2.473 -5.254,-4.887 -10.703,-9.515 -0.742,-0.614 -0.742,-0.644 -1.477,-1.262 -2.976,-2.496 -6.016,-4.918 -12.273,-9.515 -0.774,-0.59 -0.769,-0.567 -1.575,-1.156 -3.132,-2.289 -6.332,-4.504 -12.887,-8.691 -3.188,-2.063 -3.242,-2.027 -6.48,-3.992 -13.196,-7.664 -1.648,-0.922 -1.672,-0.93 -3.352,-1.824 -6.753,-3.551 -13.664,-6.793 -0.801,-0.359 -0.801,-0.387 -1.609,-0.742 -3.223,-1.496 -6.508,-2.907 -13.125,-5.531 -0.816,-0.336 -0.825,-0.308 -1.648,-0.668 -3.32,-1.285 -6.66,-2.497 -13.426,-4.707 -0.903,-0.281 -0.925,-0.308 -1.828,-0.594 -3.68,-1.1838 -7.383,-2.2344 -0.918,-0.2773 -0.93,-0.2657 -1.851,-0.5429 -3.703,-1.0547 -7.461,-2 -1.856,-0.4649 -1.875,-0.4882 -3.758,-0.9024 -7.511,-1.75 -15.098,-3.1406 -0.879,-0.1484 -0.898,-0.1797 -1.746,-0.3086 -3.547,-0.6446 -7.102,-1.1875 -1.804,-0.2539 -1.778,-0.2851 -3.547,-0.5156 -7.144,-0.9493 -0.879,-0.1054 -0.902,-0.125 -1.805,-0.2071 -3.574,-0.4101 -0.899,-0.0781 -0.871,-0.1016 -1.805,-0.1836 -3.574,-0.3594 -1.797,-0.1484 -1.804,-0.1797 -3.578,-0.2891 -0.895,-0.082 -0.898,-0.0508 -1.809,-0.1289 -3.574,-0.25 -0.899,-0.0508 -2.629,-0.1601 -0.894,-0.0469 -0.871,-0.0312 -1.758,-0.1016 -0.898,-0.0195 -0.872,-0.0508 -1.746,-0.0781 -0.91,-0.0313 -0.867,-0.0273 -1.777,-0.0703 -2.625,-0.0821 -0.903,-0.0273 h -0.867 l -0.879,-0.0235 -0.898,-0.0273 h -0.879 l -0.867,-0.0195 h -0.91 l -0.872,-0.0313 h -1.746 l -0.898,-0.0195 h -5.305 l -0.879,0.0195 h -1.765 l -0.879,0.0313 h -0.867 l -0.879,0.0195 -0.903,0.0273 h -0.879 l -0.867,0.0235 -0.906,0.0273 -2.617,0.0821 -0.903,0.0273 -1.753,0.043 -0.903,0.0586 -0.867,0.0195 -1.746,0.082 -0.91,0.0274 -0.867,0.0507 -1.75,0.0704 -3.528,0.2109 -0.972,0.0508 -0.957,0.0781 -1.907,0.1289 -3.828,0.25 -3.808,0.3125 -3.809,0.3359 -1.902,0.2071 -1.907,0.1797 -3.808,0.4101 -7.61,0.8985 -0.957,0.1015 -2.847,0.3867 -3.782,0.5196 -7.57,1.1562 -1.89,0.3086 -1.887,0.3086 -3.789,0.668 -7.531,1.3906 -1.747,0.3633 -1.75,0.332 -3.503,0.7227 -6.961,1.539 -0.879,0.2071 -0.871,0.1797 -1.747,0.4101 -3.476,0.8281 -6.926,1.7461 -0.867,0.2305 -0.852,0.2344 -1.75,0.457 -3.445,0.9297 -6.863,1.957 -13.672,4.2418 -0.891,0.309 -0.925,0.281 -1.829,0.617 -3.679,1.266 -7.309,2.598 -14.461,5.535 -0.898,0.379 -0.899,0.359 -1.777,0.723 -3.574,1.488 -7.129,3.086 -14.043,6.512 -0.84,0.414 -0.879,0.41 -5.098,2.543 -6.765,3.477 -13.352,7.281 -0.82,0.457 -0.82,0.488 -4.942,2.856 -6.504,3.914 -12.871,8.152 -0.715,0.488 -2.246,1.465 -2.925,1.984 -5.84,4.04 -11.477,8.332 -0.691,0.543 -0.727,0.539 -1.414,1.05 -2.805,2.164 -5.574,4.403 -10.93,9.027 -0.75,0.613 -0.722,0.621 -1.465,1.258 -2.91,2.524 -5.703,5.144 -11.219,10.524 -1.391,1.336 -1.355,1.363 -2.735,2.699 -5.375,5.504 -10.472,11.27 -0.613,0.668 -1.778,2.007 -2.363,2.7 -4.688,5.457 -9.105,11.113 -0.535,0.691 -0.571,0.696 -1.105,1.414 -2.215,2.855 -4.32,5.707 -8.387,11.656 -0.515,0.719 -0.489,0.746 -1,1.442 -1.98,2.91 -3.883,5.863 -7.516,11.91 -0.465,0.746 -0.425,0.746 -0.934,1.516 -1.797,3.035 -3.527,6.102 -6.766,12.316 -0.879,1.699 -0.894,1.704 -1.754,3.39 -3.399,6.844 -6.449,13.84 -1.543,3.496 -1.519,3.504 -2.957,7.043 -5.532,14.23 -0.308,0.844 -0.313,0.824 -0.589,1.672 -1.207,3.371 -2.321,6.738 -4.3162,13.586 -0.5156,1.696 -0.4844,1.722 -1.0117,3.422 -1.875,6.871 -3.4727,13.813 -0.2266,0.953 -0.2304,0.922 -0.4141,1.883 -0.8515,3.777 -1.5665,7.562 -0.1796,0.954 -0.2071,0.953 -0.3593,1.879 -0.7266,3.804 -1.3086,7.617 -0.6172,3.801 -0.5976,3.813 -0.1211,0.972 -0.1329,0.954 -0.2812,1.906 -0.5156,3.832 -0.2578,1.902 -0.2305,1.93 -0.457,3.836 -0.8008,7.687 -0.1016,0.875 -0.6992,8.106 -0.3867,5.398 -0.1016,1.805 -0.1211,1.769 -0.1094,1.805 -0.082,1.824 -0.0976,1.801 -0.0782,1.805 -0.0234,0.898 -0.0547,0.903 -0.2578,9.003 v 0.899 l -0.0273,0.898 v 0.903 l -0.0235,0.898 v 1.805 l -0.0195,0.894 v 5.434 l 0.0195,0.894 v 1.797 l 0.0235,0.907 v 0.902 l 0.0546,1.801 v 0.898 l 0.1055,3.606 0.0274,0.875 0.0546,1.769 0.043,0.875 0.0274,0.875 0.0781,1.774 0.0273,0.879 0.0547,0.898 0.0664,1.746 0.2149,3.555 0.0976,1.75 0.1016,1.773 0.2578,3.524 0.0859,0.879 0.043,0.875 0.1562,1.769 0.2813,3.527 0.082,0.871 0.1016,0.875 0.1562,1.774 0.3555,3.523 0.1016,0.875 0.0859,0.875 0.1992,1.754 0.4102,3.52 0.2109,1.754 0.6914,5.242 1.0078,7.027 0.125,0.922 0.4571,2.859 0.6211,3.782 1.3398,7.562 0.1836,0.918 0.1758,0.957 0.3633,1.883 0.7422,3.75 1.5703,7.516 0.1992,0.945 0.2422,0.934 0.4101,1.875 0.875,3.734 1.8242,7.434 4.043,14.816 0.2539,0.84 0.2578,0.879 0.5157,1.699 1.0234,3.426 2.1639,6.843 4.621,13.52 0.625,1.707 0.617,1.668 1.258,3.367 2.574,6.672 5.458,13.242 0.386,0.875 0.383,0.903 0.797,1.765 1.566,3.551 3.246,7.059 6.872,13.914 0.433,0.847 0.461,0.875 0.879,1.719 1.824,3.426 3.703,6.82 7.797,13.426 0.488,0.797 0.489,0.82 0.996,1.621 1.988,3.246 4.086,6.426 8.484,12.656 0.543,0.774 0.567,0.801 1.082,1.543 2.211,3.109 4.508,6.125 9.308,12.062 0.567,0.692 0.543,0.695 1.128,1.395 2.243,2.754 4.547,5.449 9.367,10.676 0.59,0.668 0.621,0.64 1.179,1.32 2.414,2.622 4.899,5.14 10.004,10.11 1.386,1.335 1.368,1.344 2.8,2.649 5.625,5.246 11.555,10.215 0.723,0.613 0.742,0.648 1.477,1.235 2.949,2.465 5.972,4.863 12.207,9.41 1.45,1.09 1.445,1.055 2.898,2.105 5.871,4.168 11.915,8.047 0.769,0.5 0.742,0.48 1.524,0.977 3.027,1.93 6.094,3.804 12.402,7.285 3.086,1.75 3.098,1.692 6.187,3.347 12.578,6.379 0.801,0.387 0.774,0.387 1.601,0.769 3.184,1.524 6.406,2.953 12.937,5.609 0.872,0.36 0.91,0.359 1.746,0.746 3.555,1.418 7.148,2.75 14.402,5.172 1.797,0.617 1.828,0.598 3.633,1.199 7.305,2.266 14.707,4.222 0.847,0.227 0.879,0.234 5.168,1.313 6.953,1.695 1.75,0.414 1.715,0.387 3.508,0.765 6.965,1.497 0.879,0.152 2.613,0.539 3.535,0.672 7.024,1.234 1.75,0.309 1.765,0.281 3.528,0.566 7.051,1.028 1.003,0.129 0.977,0.152 1.98,0.258 3.957,0.5 0.977,0.121 1.016,0.102 1.945,0.234 3.965,0.437 2.012,0.207 5.933,0.539 0.981,0.07 1.004,0.11 1.984,0.16 3.98,0.27 0.981,0.08 1.004,0.06 1.98,0.13 0.996,0.04 1.008,0.08 1.984,0.11 1.004,0.04 0.977,0.05 2.004,0.09 0.973,0.05 1.007,0.03 2,0.06 0.989,0.06 2.004,0.05 0.972,0.03 2.016,0.05 0.972,0.03 h 0.997 l 1.007,0.03 h 1.004 l 0.981,0.02 h 1.004 l 0.996,0.02 H 540 m 0,-40.255 h 3.242 l 0.821,-0.023 h 1.621 l 0.82,-0.031 h 0.801 l 0.82,-0.024 h 0.801 l 1.648,-0.051 0.793,-0.023 1.621,-0.055 1.653,-0.05 1.621,-0.055 0.789,-0.028 0.832,-0.023 1.621,-0.07 0.789,-0.055 0.828,-0.023 1.621,-0.11 3.235,-0.176 0.832,-0.054 0.789,-0.051 1.632,-0.102 3.231,-0.226 0.832,-0.082 0.789,-0.051 1.621,-0.152 3.242,-0.282 0.821,-0.078 0.8,-0.086 1.622,-0.148 3.242,-0.332 6.457,-0.746 0.879,-0.129 0.867,-0.102 1.75,-0.242 3.484,-0.457 6.961,-1.055 0.871,-0.132 0.879,-0.153 1.719,-0.281 3.476,-0.59 6.946,-1.262 0.879,-0.183 0.847,-0.152 1.719,-0.364 3.477,-0.691 6.867,-1.52 13.68,-3.34 0.8,-0.21 0.801,-0.227 1.594,-0.406 3.164,-0.879 6.324,-1.824 12.563,-3.938 0.789,-0.258 0.769,-0.254 1.574,-0.543 3.118,-1.054 6.171,-2.211 12.293,-4.738 0.743,-0.282 5.222,-2.16 5.95,-2.547 11.73,-5.347 0.723,-0.336 0.742,-0.364 1.433,-0.687 2.911,-1.422 5.761,-2.91 11.399,-6.043 0.769,-0.438 0.742,-0.402 1.551,-0.879 3.031,-1.726 6.043,-3.524 11.883,-7.351 0.754,-0.497 0.742,-0.46 1.465,-0.95 2.91,-1.929 5.789,-3.942 11.399,-8.125 0.664,-0.492 0.644,-0.488 1.309,-0.969 2.598,-1.984 5.175,-3.996 10.11,-8.25 0.64,-0.54 0.618,-0.519 1.23,-1.051 2.473,-2.133 4.91,-4.32 9.602,-8.855 1.289,-1.231 1.257,-1.238 2.547,-2.465 4.992,-4.992 9.747,-10.289 1.179,-1.293 1.211,-1.309 2.348,-2.644 4.644,-5.329 9.067,-10.91 1.074,-1.336 1.082,-1.363 2.141,-2.754 4.187,-5.527 8.152,-11.27 0.493,-0.687 0.515,-0.731 0.977,-1.437 1.953,-2.852 3.828,-5.816 7.383,-11.758 0.422,-0.699 0.429,-0.688 0.829,-1.39 1.64,-2.805 3.223,-5.633 6.191,-11.367 0.364,-0.723 0.386,-0.722 0.742,-1.438 1.465,-2.879 2.883,-5.82 5.457,-11.754 0.363,-0.797 0.352,-0.82 0.723,-1.598 1.386,-3.211 2.704,-6.511 5.097,-13.094 0.617,-1.645 0.586,-1.644 1.192,-3.321 2.258,-6.66 4.214,-13.41 0.239,-0.797 0.23,-0.769 0.442,-1.567 0.898,-3.172 1.719,-6.328 0.832,-3.179 0.789,-3.192 1.496,-6.383 0.203,-0.793 0.188,-0.796 0.332,-1.602 0.691,-3.215 1.34,-6.426 0.152,-0.796 0.149,-0.825 0.312,-1.597 0.598,-3.239 1.109,-6.457 0.246,-1.593 0.266,-1.575 0.484,-3.187 0.102,-0.797 0.125,-0.797 0.234,-1.59 0.442,-3.195 0.41,-3.188 0.386,-3.199 0.696,-6.371 0.078,-0.797 0.066,-0.824 0.473,-4.785 0.047,-0.801 0.078,-0.82 0.129,-1.59 0.23,-3.227 0.078,-0.793 0.161,-2.394 0.046,-0.82 0.047,-0.801 0.078,-1.59 0.051,-0.797 0.059,-0.82 0.078,-1.602 0.019,-0.801 0.047,-0.796 0.078,-1.618 0.083,-2.621 0.046,-0.879 0.032,-0.847 0.027,-0.875 0.02,-1.742 0.078,-2.629 v -0.879 l 0.031,-0.867 v -1.754 l 0.027,-0.848 v -6.988 l -0.027,-0.883 v -0.875 l -0.031,-0.852 v -0.875 l -0.02,-0.871 v -0.875 l -0.183,-6.125 -0.02,-0.847 -0.078,-1.747 -0.063,-0.871 -0.015,-0.879 -0.078,-1.753 -0.207,-3.469 -0.207,-3.496 -0.262,-3.473 -0.047,-0.879 -0.078,-0.863 -0.156,-1.734 -0.286,-3.473 -0.07,-0.82 -0.074,-0.801 -0.156,-1.621 -0.332,-3.243 -0.11,-0.82 -0.078,-0.797 -0.176,-1.621 -0.39,-3.242 -0.098,-0.797 -0.105,-0.824 -0.207,-1.598 -0.442,-3.234 -0.945,-6.438 -0.125,-0.82 -0.395,-2.391 -0.535,-3.218 -1.133,-6.403 -2.578,-12.789 -0.207,-0.847 -0.176,-0.875 -0.386,-1.723 -0.793,-3.418 -1.7,-6.871 -0.207,-0.848 -0.23,-0.851 -0.441,-1.723 -0.899,-3.394 -1.902,-6.793 -0.508,-1.7 -0.488,-1.691 -1.035,-3.375 -2.129,-6.738 -4.614,-13.348 -0.308,-0.797 -0.285,-0.824 -0.618,-1.621 -1.211,-3.242 -2.539,-6.457 -5.378,-12.786 -0.333,-0.796 -0.363,-0.774 -0.691,-1.594 -1.446,-3.136 -2.96,-6.282 -6.551,-13.113 -0.391,-0.723 -0.742,-1.418 -1.543,-2.851 -3.113,-5.656 -6.489,-11.168 -0.437,-0.696 -0.41,-0.691 -0.852,-1.395 -1.687,-2.753 -3.45,-5.45 -7.175,-10.754 -0.489,-0.718 -0.515,-0.723 -1.008,-1.441 -2,-2.852 -4.121,-5.687 -8.52,-11.137 -0.562,-0.668 -0.539,-0.695 -1.082,-1.364 -2.207,-2.726 -4.504,-5.379 -9.238,-10.547 -0.54,-0.613 -0.562,-0.59 -1.105,-1.211 -2.215,-2.395 -4.504,-4.761 -9.231,-9.282 -1.187,-1.132 -1.156,-1.133 -2.372,-2.266 -4.804,-4.449 -9.778,-8.695 -0.671,-0.567 -0.665,-0.59 -1.367,-1.132 -2.722,-2.293 -5.481,-4.469 -11.191,-8.699 -0.723,-0.539 -0.691,-0.516 -1.438,-1.055 -2.859,-2.109 -5.781,-4.09 -11.758,-7.922 -0.727,-0.488 -0.738,-0.461 -1.469,-0.953 -2.937,-1.852 -5.938,-3.652 -12.012,-6.996 -0.769,-0.414 -0.774,-0.438 -1.523,-0.824 -3.059,-1.672 -6.152,-3.238 -12.469,-6.203 -0.722,-0.332 -0.742,-0.364 -1.473,-0.668 -2.961,-1.363 -5.906,-2.648 -11.965,-5.039 -0.774,-0.313 -0.75,-0.285 -1.504,-0.613 -3.015,-1.16 -6.106,-2.29 -12.238,-4.296 -0.848,-0.274 -0.832,-0.262 -1.66,-0.543 -3.379,-1.078 -6.734,-2.062 -0.82,-0.231 -0.852,-0.257 -1.699,-0.489 -3.399,-0.953 -6.789,-1.824 -0.847,-0.231 -0.852,-0.21 -1.726,-0.434 -3.387,-0.848 -6.875,-1.597 -13.789,-2.852 -0.793,-0.156 -0.828,-0.125 -1.614,-0.317 -3.222,-0.558 -6.504,-1.086 -0.801,-0.125 -0.82,-0.129 -1.621,-0.234 -3.242,-0.489 -6.536,-0.875 -0.797,-0.078 -0.824,-0.101 -1.621,-0.203 -3.269,-0.364 -0.821,-0.101 -0.82,-0.078 -1.621,-0.18 -3.289,-0.309 -0.805,-0.078 -2.469,-0.23 -3.261,-0.258 -0.828,-0.078 -0.825,-0.047 -1.636,-0.129 -3.274,-0.211 -0.801,-0.047 -0.82,-0.055 -1.594,-0.101 -0.797,-0.027 -0.824,-0.047 -1.597,-0.078 -0.825,-0.032 -0.789,-0.047 -1.601,-0.054 -0.821,-0.047 -0.8,-0.027 -1.621,-0.051 -1.59,-0.055 -0.824,-0.023 h -0.797 l -1.594,-0.051 h -0.828 l -0.793,-0.028 h -0.801 l -0.82,-0.027 h -0.801 l -0.801,-0.023 h -7.246 l -0.828,0.023 h -1.594 l -0.801,0.027 h -0.82 l -1.594,0.051 h -0.828 l -0.793,0.028 -1.621,0.05 -1.59,0.051 -1.621,0.055 -1.601,0.047 -1.621,0.078 -0.79,0.023 -0.832,0.055 -1.589,0.078 -3.215,0.184 -1.746,0.101 -1.75,0.125 -3.477,0.231 -1.758,0.156 -1.738,0.129 -3.477,0.308 -0.871,0.106 -0.879,0.078 -1.726,0.176 -3.469,0.359 -6.941,0.824 -1.746,0.207 -1.731,0.231 -3.476,0.488 -6.883,1.055 -0.879,0.133 -0.852,0.148 -1.75,0.285 -3.418,0.59 -6.89,1.289 -1.594,0.309 -1.602,0.336 -3.195,0.64 -6.375,1.414 -1.594,0.364 -1.57,0.359 -3.191,0.774 -6.321,1.589 -0.781,0.207 -0.793,0.207 -1.57,0.415 -3.164,0.847 -6.282,1.797 -12.437,3.863 -0.859,0.282 -0.825,0.253 -1.699,0.567 -3.34,1.156 -6.668,2.371 -13.183,5.067 -0.828,0.308 -0.825,0.336 -1.628,0.695 -3.262,1.336 -6.485,2.829 -12.832,5.941 -0.793,0.363 -2.324,1.156 -3.101,1.543 -6.184,3.165 -12.195,6.664 -0.742,0.433 -0.774,0.418 -1.492,0.871 -3.012,1.75 -5.933,3.574 -11.731,7.438 -0.676,0.465 -0.664,0.433 -1.336,0.903 -2.707,1.797 -5.32,3.679 -10.469,7.614 -1.289,0.976 -1.316,0.977 -2.539,1.984 -5.102,3.988 -10,8.235 -0.672,0.59 -0.664,0.566 -1.316,1.129 -2.649,2.316 -5.246,4.68 -10.215,9.625 -0.64,0.613 -0.617,0.621 -1.258,1.235 -2.473,2.465 -4.922,5.019 -9.558,10.289 -0.547,0.59 -0.57,0.621 -1.075,1.231 -2.156,2.445 -4.269,4.992 -8.313,10.137 -1.027,1.285 -1.008,1.281 -2,2.606 -3.942,5.218 -7.664,10.649 -0.461,0.644 -0.464,0.668 -0.895,1.309 -1.809,2.676 -3.578,5.351 -6.836,10.856 -0.824,1.39 -0.851,1.364 -4.86,8.336 -6.172,11.269 -0.414,0.77 -0.39,0.773 -0.821,1.543 -1.589,3.109 -3.086,6.227 -5.918,12.633 -0.368,0.793 -0.328,0.797 -0.722,1.597 -1.364,3.215 -2.699,6.434 -5.047,12.988 -0.285,0.77 -0.281,0.75 -0.559,1.543 -1.09,3.058 -2.101,6.149 -3.961,12.402 -0.234,0.769 -0.235,0.797 -0.461,1.543 -0.894,3.141 -1.727,6.25 -3.164,12.633 -0.211,0.843 -0.199,0.879 -0.391,1.723 -0.769,3.418 -1.442,6.922 -0.175,0.848 -0.157,0.875 -0.336,1.722 -0.64,3.477 -1.211,6.941 -0.156,0.875 -0.125,0.875 -0.289,1.723 -0.54,3.504 -0.253,1.746 -0.235,1.75 -0.488,3.469 -0.102,0.878 -0.129,0.875 -0.207,1.75 -0.41,3.524 -0.742,6.996 -0.309,3.293 -0.289,3.266 -0.046,0.824 -0.079,0.82 -0.128,1.649 -0.227,3.269 -0.219,3.289 -0.023,0.82 -0.153,2.473 -0.023,0.824 -0.055,0.821 -0.07,1.652 -0.105,3.289 -0.051,0.82 -0.028,0.829 v 0.824 l -0.101,3.289 v 0.828 l -0.024,0.816 v 0.828 l -0.023,0.821 v 0.824 l -0.031,0.82 v 7.41 l 0.031,0.825 v 1.648 l 0.023,0.82 v 0.825 l 0.043,1.644 v 0.82 l 0.055,1.653 0.055,1.594 0.051,1.613 0.027,0.805 0.027,0.828 0.071,1.59 0.023,0.828 0.059,0.793 0.078,1.617 0.175,3.219 0.055,0.793 0.047,0.824 0.105,1.593 0.208,3.25 0.074,0.793 0.054,0.797 0.125,1.621 0.289,3.211 0.071,0.797 0.051,0.797 0.164,1.633 0.324,3.184 0.086,0.824 0.101,0.797 0.18,1.593 0.356,3.215 0.41,3.192 0.418,3.214 0.925,6.379 0.258,1.746 0.84,5.176 1.219,6.895 0.148,0.867 0.184,0.855 0.336,1.723 0.668,3.418 1.441,6.867 0.203,0.848 0.184,0.855 0.383,1.723 0.797,3.398 1.668,6.79 3.71,13.535 0.227,0.769 0.234,0.793 0.465,1.547 0.949,3.141 1.961,6.218 4.239,12.375 0.281,0.77 0.262,0.773 0.562,1.52 1.16,3.062 2.336,6.09 4.992,12.09 0.364,0.824 0.336,0.797 2.156,4.867 2.984,6.426 6.25,12.711 0.414,0.797 0.387,0.77 0.82,1.574 1.676,3.133 3.395,6.226 7.074,12.246 0.457,0.746 0.445,0.742 0.918,1.497 1.836,2.961 3.727,5.863 7.742,11.551 0.488,0.695 0.516,0.723 3.012,4.242 4.117,5.609 8.484,11.012 0.508,0.64 0.5,0.637 1.023,1.266 2.063,2.496 4.168,4.988 8.535,9.746 0.535,0.598 0.551,0.613 1.101,1.188 2.188,2.386 4.473,4.707 9.14,9.211 0.606,0.621 0.644,0.622 1.258,1.199 2.551,2.445 5.144,4.785 10.547,9.313 1.34,1.133 1.34,1.164 2.691,2.234 5.461,4.441 11.145,8.602 0.664,0.488 0.641,0.485 1.339,0.98 2.657,1.93 5.339,3.804 10.879,7.333 0.703,0.468 0.665,0.434 1.386,0.902 2.785,1.742 5.579,3.481 11.328,6.652 1.382,0.781 1.411,0.797 2.808,1.567 5.688,3.035 11.472,5.844 0.711,0.351 0.727,0.34 1.441,0.715 2.91,1.371 5.864,2.699 11.804,5.117 1.59,0.676 1.621,0.664 3.254,1.281 6.504,2.528 13.145,4.73 0.847,0.282 0.825,0.285 1.648,0.539 3.313,1.082 6.667,2.082 13.426,3.832 0.805,0.211 0.789,0.226 1.57,0.411 3.164,0.796 6.321,1.547 1.601,0.364 1.574,0.355 3.18,0.723 6.379,1.34 1.602,0.308 1.589,0.328 3.223,0.598 6.399,1.156 1.601,0.254 1.621,0.281 3.211,0.52 6.457,0.922 1.797,0.258 5.41,0.695 1.797,0.211 1.824,0.199 3.606,0.41 0.898,0.082 0.899,0.106 1.836,0.179 3.613,0.309 1.808,0.148 1.825,0.161 3.625,0.253 0.906,0.079 0.898,0.046 1.829,0.106 1.792,0.109 1.829,0.098 0.898,0.055 0.93,0.046 1.804,0.083 0.918,0.019 0.911,0.051 1.793,0.055 0.929,0.05 1.797,0.055 0.93,0.023 0.894,0.032 h 0.93 l 1.809,0.043 h 0.918 l 0.906,0.031 h 0.898 l 0.93,0.023 H 540 m 0,-44.507 h 0.723 l 0.742,-0.024 h 2.91 l 0.723,-0.019 h 0.715 l 0.718,-0.028 h 0.742 l 0.723,-0.023 h 0.727 l 0.718,-0.028 0.747,-0.031 1.445,-0.023 1.433,-0.047 1.465,-0.063 0.723,-0.023 0.723,-0.043 1.464,-0.055 0.723,-0.027 0.715,-0.051 1.473,-0.082 2.902,-0.152 2.879,-0.199 2.91,-0.211 1.437,-0.102 1.473,-0.133 2.883,-0.254 0.711,-0.07 0.754,-0.055 4.312,-0.468 5.793,-0.664 0.774,-0.102 0.8,-0.086 1.54,-0.199 3.136,-0.442 6.231,-0.921 0.769,-0.125 0.793,-0.133 1.543,-0.258 3.113,-0.516 6.204,-1.156 1.543,-0.312 1.543,-0.282 3.085,-0.636 6.153,-1.336 12.234,-3.012 0.727,-0.184 0.719,-0.203 4.25,-1.156 5.656,-1.621 11.238,-3.528 1.387,-0.46 1.394,-0.497 2.778,-0.949 5.554,-1.98 10.989,-4.219 0.664,-0.258 0.672,-0.285 1.335,-0.539 2.676,-1.105 5.305,-2.254 10.488,-4.793 0.645,-0.305 0.676,-0.316 1.277,-0.633 2.598,-1.27 5.148,-2.594 10.215,-5.421 0.664,-0.368 0.699,-0.386 4.082,-2.309 5.41,-3.172 10.649,-6.586 0.64,-0.402 0.664,-0.445 1.321,-0.852 2.597,-1.719 5.196,-3.5 10.183,-7.281 0.571,-0.434 1.777,-1.32 2.312,-1.765 4.598,-3.579 9.082,-7.379 0.551,-0.468 0.555,-0.489 1.113,-0.921 2.207,-1.903 4.402,-3.886 8.567,-7.922 0.586,-0.539 0.566,-0.547 3.406,-3.309 4.465,-4.484 8.723,-9.184 0.547,-0.586 0.535,-0.566 3.164,-3.551 4.172,-4.762 8.074,-9.754 0.488,-0.609 0.489,-0.598 0.949,-1.234 1.929,-2.441 3.762,-4.942 7.277,-10.082 0.438,-0.617 0.461,-0.641 2.625,-3.855 3.418,-5.18 6.609,-10.543 0.395,-0.613 0.359,-0.625 0.742,-1.234 1.465,-2.493 2.879,-5.047 5.539,-10.183 1.336,-2.567 1.313,-2.574 2.566,-5.195 4.91,-10.523 0.317,-0.723 0.332,-0.719 0.613,-1.437 1.269,-2.883 2.414,-5.785 4.547,-11.739 0.286,-0.742 0.261,-0.719 0.539,-1.496 1.055,-2.957 2.031,-5.937 3.762,-12.024 0.406,-1.382 0.41,-1.415 0.801,-2.832 1.543,-5.652 0.18,-0.723 0.183,-0.695 0.352,-1.445 0.723,-2.824 1.336,-5.715 0.187,-0.711 0.461,-2.164 0.645,-2.86 1.152,-5.765 0.152,-0.711 0.129,-0.731 0.281,-1.437 0.547,-2.883 0.981,-5.785 0.125,-0.692 0.105,-0.722 0.227,-1.418 0.437,-2.852 0.11,-0.699 0.097,-0.719 0.203,-1.414 0.395,-2.855 0.098,-0.719 0.078,-0.719 0.203,-1.414 0.332,-2.863 0.644,-5.707 0.059,-0.719 0.066,-0.722 0.137,-1.434 0.285,-2.863 0.098,-1.442 0.129,-1.433 0.203,-2.856 0.266,-3.605 0.015,-0.692 0.078,-1.441 0.063,-0.723 0.015,-0.719 0.082,-1.445 0.047,-0.719 0.078,-2.156 0.059,-0.769 0.02,-0.778 0.031,-0.797 0.047,-1.543 0.031,-0.796 0.02,-1.543 0.027,-0.801 0.027,-0.77 v -0.773 l 0.024,-0.793 v -0.774 l 0.027,-0.765 v -3.145 l 0.02,-0.773 v -1.567 l -0.02,-0.769 v -2.348 l -0.027,-0.769 v -0.797 l -0.024,-0.77 v -0.773 l -0.027,-0.793 v -0.774 l -0.027,-0.777 -0.02,-0.797 -0.063,-1.543 -0.015,-0.793 -0.051,-1.543 -0.059,-1.574 -0.046,-0.769 -0.032,-0.774 -0.078,-1.566 -0.144,-3.114 -0.063,-0.773 -0.047,-0.797 -0.097,-1.543 -0.235,-3.113 -0.05,-0.797 -0.055,-0.769 -0.129,-1.543 -0.281,-3.118 -0.051,-0.718 -0.078,-0.746 -0.156,-1.442 -0.286,-2.879 -0.066,-0.75 -0.09,-0.715 -0.176,-1.441 -0.332,-2.883 -0.105,-0.746 -0.078,-0.723 -0.176,-1.437 -1.238,-8.645 -0.129,-0.718 -0.098,-0.723 -0.234,-1.441 -0.489,-2.879 -1.003,-5.707 -2.317,-11.422 -0.176,-0.778 -0.156,-0.769 -1.086,-4.629 -1.492,-6.125 -0.203,-0.77 -0.18,-0.773 -0.406,-1.52 -0.805,-3.031 -1.719,-6.097 -0.203,-0.747 -0.234,-0.773 -0.441,-1.52 -0.926,-3.003 -1.906,-6.024 -4.11,-11.933 -0.281,-0.723 -0.254,-0.746 -0.551,-1.442 -1.101,-2.906 -2.266,-5.762 -4.805,-11.418 -0.312,-0.722 -0.313,-0.696 -0.632,-1.414 -1.27,-2.828 -2.648,-5.609 -5.555,-11.086 -1.34,-2.57 -1.355,-2.551 -2.786,-5.039 -5.808,-10.012 -0.395,-0.613 -0.359,-0.613 -0.774,-1.239 -1.511,-2.468 -3.086,-4.864 -6.406,-9.644 -0.442,-0.645 -0.457,-0.644 -0.898,-1.286 -1.805,-2.546 -3.684,-5.071 -7.605,-9.98 -0.488,-0.59 -1.465,-1.852 -1.985,-2.418 -4.011,-4.835 -8.285,-9.415 -1.961,-2.164 -2,-2.16 -4.016,-4.242 -8.262,-8.285 -0.508,-0.512 -0.546,-0.519 -1.055,-1 -2.109,-2.032 -4.29,-3.988 -8.75,-7.769 -0.593,-0.512 -0.617,-0.52 -1.208,-1.023 -2.414,-2.031 -4.914,-4.016 -10.007,-7.797 -1.29,-0.922 -1.257,-0.953 -2.571,-1.879 -5.175,-3.679 -10.516,-7.075 -0.648,-0.433 -0.665,-0.414 -1.289,-0.852 -2.644,-1.644 -5.305,-3.266 -10.75,-6.25 -0.691,-0.387 -0.676,-0.386 -1.355,-0.747 -2.754,-1.488 -5.508,-2.91 -11.145,-5.527 -0.664,-0.313 -0.644,-0.308 -1.309,-0.618 -2.656,-1.211 -5.293,-2.367 -10.703,-4.5 -0.696,-0.285 -0.671,-0.254 -1.336,-0.543 -2.7,-1.054 -5.457,-2.032 -10.957,-3.832 -1.484,-0.511 -1.492,-0.489 -3.008,-0.953 -6.027,-1.824 -0.774,-0.234 -0.738,-0.208 -1.527,-0.437 -3.036,-0.848 -6.062,-1.648 -0.774,-0.203 -0.753,-0.184 -1.54,-0.387 -3.031,-0.742 -6.148,-1.437 -12.324,-2.551 -0.723,-0.156 -0.715,-0.125 -1.465,-0.258 -2.883,-0.516 -5.82,-0.953 -0.723,-0.125 -0.71,-0.101 -1.465,-0.235 -2.91,-0.41 -5.809,-0.773 -0.754,-0.102 -0.723,-0.078 -1.464,-0.18 -2.903,-0.332 -0.75,-0.078 -0.722,-0.078 -1.465,-0.156 -2.93,-0.285 -0.723,-0.075 -0.742,-0.05 -1.445,-0.122 -2.93,-0.265 -0.742,-0.047 -0.723,-0.055 -4.394,-0.308 -0.723,-0.055 -0.723,-0.023 -1.445,-0.079 -0.715,-0.046 -0.718,-0.032 -1.45,-0.074 -0.711,-0.027 -0.722,-0.051 -6.485,-0.234 h -0.722 l -0.711,-0.024 h -0.727 l -1.441,-0.051 h -1.438 l -0.722,-0.027 h -2.879 l -0.727,-0.023 h -1.433 l -0.723,0.023 h -2.883 l -0.723,0.027 h -0.71 l -0.723,0.028 h -0.723 l -0.722,0.023 h -0.723 l -2.879,0.102 h -0.715 l -2.168,0.078 -0.715,0.055 -2.879,0.101 -1.445,0.074 -2.883,0.18 -0.769,0.031 -0.801,0.047 -1.543,0.106 -3.105,0.234 -0.801,0.047 -0.774,0.078 -1.57,0.129 -3.105,0.281 -0.782,0.055 -0.761,0.078 -1.575,0.148 -3.086,0.34 -6.226,0.742 -0.766,0.102 -0.777,0.078 -1.543,0.203 -3.117,0.442 -6.172,0.953 -6.172,1.027 -6.152,1.16 -0.723,0.125 -0.684,0.157 -1.445,0.285 -2.851,0.59 -5.711,1.234 -0.696,0.183 -0.722,0.149 -1.407,0.34 -2.859,0.668 -5.656,1.437 -1.399,0.36 -1.414,0.382 -2.832,0.75 -5.605,1.622 -11.145,3.445 -0.738,0.262 -0.774,0.226 -1.496,0.52 -2.976,1 -5.965,2.132 -11.809,4.528 -0.722,0.285 -0.75,0.309 -1.457,0.593 -2.91,1.235 -5.821,2.496 -11.465,5.32 -1.394,0.672 -4.172,2.082 -5.52,2.828 -10.918,5.942 -1.335,0.777 -1.36,0.769 -2.676,1.571 -5.332,3.187 -10.457,6.664 -0.625,0.387 -0.586,0.41 -1.218,0.797 -2.383,1.621 -4.785,3.297 -9.368,6.812 -0.566,0.438 -0.586,0.437 -1.164,0.875 -2.293,1.75 -4.551,3.575 -8.918,7.383 -0.625,0.515 -0.593,0.488 -1.18,1.032 -2.363,2.078 -4.68,4.172 -9.172,8.621 -0.562,0.535 -0.539,0.539 -1.133,1.109 -2.207,2.211 -4.395,4.504 -8.574,9.18 -0.481,0.566 -1.472,1.621 -1.922,2.211 -3.813,4.453 -7.429,9.079 -0.469,0.566 -0.438,0.566 -0.917,1.157 -1.782,2.312 -3.551,4.684 -6.835,9.515 -1.653,2.371 -1.594,2.368 -3.191,4.785 -6.121,9.722 -0.383,0.622 -0.371,0.613 -0.742,1.234 -1.465,2.473 -2.883,4.969 -5.523,10.078 -0.719,1.386 -0.73,1.364 -1.434,2.777 -2.777,5.582 -5.274,11.324 -0.312,0.692 -0.309,0.718 -0.641,1.442 -1.234,2.855 -2.394,5.762 -4.532,11.602 -0.511,1.39 -1.469,4.086 -1.875,5.512 -3.551,11.082 -0.402,1.391 -0.418,1.418 -0.801,2.777 -1.543,5.605 -2.855,11.293 -0.176,0.774 -0.16,0.769 -0.352,1.52 -0.699,3.086 -1.289,6.172 -0.309,1.543 -0.281,1.574 -0.594,3.086 -1.078,6.222 -0.258,1.543 -0.23,1.571 -0.489,3.113 -0.101,0.77 -0.125,0.796 -0.219,1.543 -0.43,3.141 -0.105,0.77 -0.098,0.796 -0.183,1.547 -0.383,3.137 -0.668,6.277 -0.059,0.719 -0.07,0.746 -0.391,4.403 -0.046,0.746 -0.059,0.718 -0.121,1.469 -0.207,2.93 -0.055,0.746 -0.023,0.719 -0.11,1.496 -0.047,0.715 -0.019,0.75 -0.082,1.468 -0.027,0.743 -0.051,0.722 -0.055,1.465 -0.043,0.746 -0.023,0.719 -0.063,1.492 -0.023,0.719 -0.047,1.496 v 0.723 l -0.031,0.742 -0.028,0.726 v 0.742 l -0.023,0.743 v 0.722 l -0.028,0.746 v 0.719 l -0.019,0.746 v 2.957 l -0.023,0.719 v 1.473 l 0.023,0.742 v 2.215 l 0.019,0.742 v 1.469 l 0.028,0.718 v 0.743 l 0.023,0.754 0.028,0.714 0.031,1.469 0.023,0.719 0.024,0.742 0.179,5.047 0.055,0.715 0.051,1.445 0.148,2.887 0.11,1.429 0.078,1.446 0.258,3.605 0.07,0.711 0.105,1.446 0.258,2.886 0.051,0.719 0.082,0.711 0.129,1.422 0.277,2.887 0.313,2.875 0.332,2.855 0.101,0.719 0.079,0.722 0.187,1.438 0.379,2.859 0.824,5.707 0.106,0.774 0.379,2.312 0.496,3.094 1.105,6.172 0.129,0.765 0.148,0.782 0.286,1.539 0.621,3.062 1.308,6.117 0.157,0.782 0.179,0.765 0.332,1.52 0.719,3.058 1.492,6.071 3.297,12.09 0.203,0.695 0.203,0.727 0.446,1.386 0.847,2.797 1.742,5.563 3.79,11.058 0.511,1.387 0.489,1.367 1.027,2.75 2.109,5.453 4.453,10.813 0.309,0.711 0.332,0.718 0.617,1.469 1.317,2.883 2.644,5.766 5.582,11.367 0.387,0.699 0.359,0.691 0.723,1.411 1.488,2.808 3.039,5.551 6.328,10.957 0.821,1.344 0.8,1.308 1.641,2.653 3.352,5.25 6.922,10.336 0.429,0.644 0.457,0.617 0.879,1.285 1.836,2.52 3.676,5.02 7.586,9.855 0.437,0.566 0.461,0.567 0.899,1.121 1.855,2.242 3.731,4.453 7.644,8.723 1.953,2.156 1.946,2.141 3.996,4.187 8.179,8.262 1.133,1.074 1.137,1.11 2.266,2.156 4.597,4.305 9.434,8.328 1.191,1.035 3.621,3.008 4.895,3.984 9.953,7.668 1.187,0.871 1.145,0.875 2.402,1.746 4.785,3.402 9.727,6.563 0.605,0.414 0.625,0.379 3.711,2.394 4.993,3.086 10.125,5.965 0.617,0.332 0.64,0.367 1.262,0.688 2.488,1.418 5.11,2.723 10.254,5.195 0.644,0.344 1.934,0.922 2.59,1.234 5.254,2.422 10.543,4.578 1.449,0.617 1.453,0.563 2.891,1.187 5.839,2.234 11.758,4.223 0.742,0.262 0.711,0.254 1.496,0.488 2.957,0.973 5.969,1.859 12.024,3.441 0.711,0.176 0.695,0.188 1.414,0.359 2.812,0.719 5.672,1.391 0.703,0.152 0.727,0.183 1.402,0.305 2.864,0.645 5.683,1.211 0.711,0.125 0.735,0.156 1.433,0.285 2.856,0.543 5.742,1.023 0.711,0.125 0.722,0.106 4.328,0.695 5.758,0.848 0.805,0.101 0.789,0.133 4.863,0.614 0.801,0.105 0.801,0.082 4.851,0.535 0.801,0.074 0.821,0.079 1.625,0.187 3.242,0.277 0.801,0.078 0.82,0.051 4.859,0.387 0.821,0.047 0.8,0.055 1.621,0.105 0.825,0.055 0.796,0.047 1.625,0.078 0.821,0.05 0.816,0.024 1.621,0.082 0.805,0.023 0.816,0.043 1.621,0.063 0.825,0.023 0.8,0.024 1.649,0.054 h 0.793 l 0.828,0.028 0.793,0.023 h 0.828 l 0.82,0.028 h 0.801 l 0.821,0.019 h 2.441 l 0.801,0.024 H 540 m 0,-50.543 h 3.137 l 0.64,-0.024 h 1.262 l 0.625,-0.023 h 0.637 l 0.625,-0.032 h 0.633 l 0.625,-0.023 h 0.644 l 1.231,-0.055 0.644,-0.023 h 0.613 l 1.262,-0.055 0.645,-0.027 0.617,-0.02 1.258,-0.054 0.644,-0.047 0.613,-0.032 1.262,-0.046 2.528,-0.161 0.617,-0.046 0.617,-0.024 1.266,-0.086 2.511,-0.199 0.614,-0.027 0.648,-0.055 1.238,-0.098 2.52,-0.23 0.617,-0.055 0.645,-0.074 1.23,-0.129 2.527,-0.266 4.993,-0.554 0.664,-0.11 0.691,-0.078 1.34,-0.179 2.703,-0.356 5.398,-0.824 0.696,-0.098 0.664,-0.109 1.34,-0.235 2.703,-0.437 5.351,-1 0.664,-0.125 0.703,-0.129 1.336,-0.262 2.661,-0.566 5.339,-1.156 10.594,-2.594 0.617,-0.16 0.618,-0.18 1.238,-0.332 2.441,-0.664 4.91,-1.418 9.731,-3.035 0.594,-0.211 0.617,-0.203 3.621,-1.235 4.785,-1.726 9.523,-3.653 0.583,-0.23 0.57,-0.234 1.16,-0.457 2.324,-0.954 4.571,-1.988 9.101,-4.14 0.566,-0.254 0.579,-0.282 1.121,-0.543 2.238,-1.109 4.449,-2.23 8.821,-4.676 4.738,-2.688 4.683,-2.722 9.211,-5.711 0.586,-0.356 0.567,-0.367 3.398,-2.234 4.473,-3.039 8.828,-6.297 1.023,-0.774 1.008,-0.742 6.016,-4.637 7.851,-6.402 0.457,-0.41 0.493,-0.387 0.972,-0.82 1.906,-1.649 3.809,-3.343 7.434,-6.871 0.488,-0.485 0.484,-0.469 1.008,-0.953 1.953,-1.925 3.86,-3.86 7.566,-7.949 0.93,-1.023 0.918,-1.012 1.824,-2.059 3.601,-4.109 7.004,-8.438 0.411,-0.539 0.441,-0.519 0.816,-1.051 1.672,-2.141 3.242,-4.265 6.329,-8.727 0.39,-0.566 0.352,-0.535 0.781,-1.11 1.516,-2.23 2.976,-4.481 5.715,-9.133 0.312,-0.539 0.333,-0.543 1.929,-3.242 2.492,-4.34 4.786,-8.828 0.285,-0.566 0.308,-0.539 0.571,-1.129 1.129,-2.242 2.238,-4.496 4.238,-9.082 0.266,-0.645 0.281,-0.621 0.535,-1.23 1.086,-2.497 2.109,-5.046 3.938,-10.133 0.254,-0.641 0.691,-1.93 0.899,-2.546 1.777,-5.165 3.242,-10.378 0.363,-1.231 0.36,-1.211 0.691,-2.445 1.313,-4.906 0.183,-0.621 1.075,-4.321 1.179,-4.937 0.141,-0.621 0.144,-0.614 0.262,-1.234 0.539,-2.5 1.028,-4.969 0.132,-0.633 0.102,-0.621 0.262,-1.23 0.429,-2.524 0.879,-4.992 0.203,-1.238 0.176,-1.231 0.395,-2.472 0.078,-0.613 0.094,-0.622 0.187,-1.234 0.332,-2.469 0.613,-4.937 0.547,-4.938 0.071,-0.621 0.058,-0.621 0.125,-1.254 0.235,-2.472 0.097,-1.239 0.11,-1.254 0.175,-2.472 0.047,-0.617 0.031,-0.614 0.079,-1.261 0.046,-0.622 0.032,-0.613 0.078,-1.262 0.019,-0.617 0.059,-0.613 0.078,-1.859 0.02,-0.641 0.078,-1.234 0.051,-1.34 0.027,-0.688 v -0.676 l 0.027,-0.664 0.024,-0.699 0.027,-1.336 0.02,-0.676 0.031,-0.687 v -0.672 l 0.027,-0.664 v -1.363 l 0.02,-0.672 v -6.07 l -0.02,-0.696 v -1.336 l -0.027,-0.672 v -0.691 l -0.031,-0.668 v -0.672 l -0.02,-0.668 -0.027,-0.691 v -0.668 l -0.024,-0.664 -0.027,-0.703 -0.047,-1.34 -0.063,-1.363 -0.046,-1.336 -0.079,-1.364 -0.156,-2.675 -0.019,-0.696 -0.047,-0.668 -0.078,-1.336 -0.207,-2.703 -0.059,-0.668 -0.051,-0.691 -0.105,-1.34 -0.227,-2.699 -0.047,-0.621 -0.078,-0.614 -0.105,-1.265 -0.254,-2.52 -0.156,-1.234 -0.129,-1.262 -0.313,-2.519 -0.156,-1.235 -0.148,-1.262 -0.34,-2.492 -0.742,-4.992 -0.11,-0.617 -0.074,-0.617 -0.207,-1.258 -0.41,-2.496 -0.899,-4.965 -1.98,-9.879 -0.617,-2.676 -0.618,-2.652 -1.289,-5.32 -0.171,-0.672 -0.161,-0.645 -0.359,-1.336 -0.691,-2.625 -1.497,-5.269 -0.175,-0.672 -0.188,-0.645 -0.406,-1.312 -0.773,-2.621 -1.668,-5.196 -3.555,-10.343 -0.227,-0.645 -0.234,-0.613 -0.469,-1.262 -0.945,-2.523 -1.985,-4.992 -4.14,-9.903 -0.281,-0.613 -0.286,-0.59 -0.539,-1.234 -1.101,-2.45 -2.293,-4.863 -4.817,-9.594 -0.273,-0.566 -0.281,-0.535 -1.781,-3.32 -2.418,-4.372 -5.012,-8.671 -0.672,-1.079 -0.648,-1.054 -1.305,-2.137 -2.68,-4.219 -5.555,-8.336 -0.769,-1.129 -0.774,-1.109 -1.574,-2.215 -3.179,-4.398 -6.614,-8.613 -0.422,-0.54 -0.425,-0.542 -2.551,-3.165 -3.477,-4.16 -7.148,-8.16 -0.442,-0.488 -0.41,-0.465 -0.879,-0.926 -1.714,-1.851 -3.477,-3.676 -7.148,-7.207 -0.93,-0.875 -0.899,-0.875 -1.828,-1.746 -3.726,-3.449 -7.563,-6.739 -0.547,-0.437 -0.507,-0.465 -1.051,-0.875 -2.09,-1.774 -4.27,-3.472 -8.671,-6.738 -0.54,-0.415 -0.562,-0.402 -1.106,-0.808 -2.214,-1.622 -4.473,-3.187 -9.113,-6.148 -2.254,-1.438 -2.297,-1.441 -4.578,-2.832 -9.309,-5.426 -0.597,-0.336 -0.582,-0.309 -1.196,-0.668 -2.359,-1.285 -4.785,-2.523 -9.653,-4.785 -0.562,-0.254 -0.57,-0.286 -1.153,-0.515 -2.265,-1.055 -4.598,-2.055 -9.27,-3.914 -1.179,-0.461 -1.153,-0.46 -2.343,-0.903 -4.707,-1.773 -9.524,-3.321 -0.641,-0.226 -1.925,-0.621 -2.598,-0.821 -5.227,-1.597 -0.671,-0.203 -0.633,-0.184 -1.321,-0.387 -2.617,-0.746 -5.273,-1.414 -0.645,-0.152 -0.675,-0.176 -1.305,-0.344 -2.649,-0.636 -5.332,-1.239 -10.671,-2.211 -0.618,-0.128 -0.644,-0.106 -1.231,-0.227 -2.527,-0.441 -5.012,-0.844 -0.613,-0.109 -0.648,-0.07 -1.258,-0.207 -2.52,-0.364 -5.051,-0.668 -0.64,-0.078 -0.617,-0.078 -1.258,-0.148 -2.551,-0.285 -0.613,-0.079 -0.649,-0.078 -1.258,-0.129 -2.546,-0.23 -0.618,-0.078 -0.644,-0.051 -1.262,-0.102 -2.547,-0.207 -0.617,-0.05 -0.641,-0.051 -1.261,-0.102 -2.539,-0.156 -0.625,-0.055 -0.645,-0.023 -1.23,-0.078 -0.617,-0.028 -0.614,-0.046 -1.269,-0.055 -1.231,-0.055 -1.261,-0.043 -1.227,-0.058 -1.273,-0.047 h -0.614 l -0.613,-0.028 -0.648,-0.027 h -0.614 l -0.613,-0.023 h -0.617 l -0.645,-0.028 h -0.625 l -0.613,-0.027 h -1.262 l -0.613,-0.024 h -6.231 l -0.636,0.024 h -1.239 l -0.617,0.027 h -0.644 l -0.614,0.028 h -0.617 l -0.625,0.023 -1.258,0.027 -1.234,0.051 -1.258,0.024 -1.242,0.058 -1.258,0.043 -0.617,0.031 -0.613,0.047 -1.262,0.055 -2.5,0.129 -1.336,0.101 -1.355,0.079 -2.707,0.207 -1.336,0.101 -1.36,0.102 -2.675,0.258 -0.704,0.054 -0.664,0.074 -1.339,0.129 -2.704,0.286 -5.371,0.64 -1.34,0.156 -1.335,0.18 -2.707,0.387 -5.34,0.797 -0.672,0.125 -2.016,0.312 -2.644,0.465 -5.325,1 -0.613,0.129 -0.625,0.101 -1.25,0.258 -2.473,0.512 -4.937,1.086 -0.617,0.148 -0.625,0.133 -1.199,0.285 -2.473,0.59 -4.895,1.235 -1.226,0.308 -1.211,0.332 -2.442,0.668 -4.867,1.395 -9.644,2.98 -0.676,0.207 -0.637,0.235 -1.304,0.433 -2.582,0.875 -5.172,1.824 -10.207,3.938 -1.289,0.516 -1.258,0.511 -2.524,1.059 -5.047,2.183 -9.921,4.582 -0.625,0.309 -0.586,0.281 -1.211,0.59 -2.41,1.215 -4.766,2.437 -9.445,5.172 -1.172,0.668 -3.489,2.008 -4.628,2.785 -9.082,5.754 -0.504,0.332 -0.52,0.364 -1.055,0.695 -2.082,1.39 -4.109,2.856 -8.137,5.891 -0.972,0.769 -1.008,0.746 -2,1.543 -3.938,3.086 -7.746,6.383 -0.515,0.433 -0.508,0.465 -1.035,0.875 -2.063,1.801 -4.031,3.606 -7.918,7.464 -0.488,0.485 -0.5,0.457 -0.977,0.953 -1.926,1.93 -3.804,3.882 -7.414,7.977 -0.411,0.465 -0.437,0.461 -0.82,0.953 -1.672,1.902 -3.321,3.86 -6.425,7.847 -0.391,0.512 -0.41,0.488 -0.781,1.004 -1.563,2.004 -3.059,4.043 -5.918,8.258 -0.718,1.023 -0.696,1.008 -1.418,2.055 -2.753,4.172 -5.301,8.41 -0.324,0.539 -0.309,0.516 -0.648,1.082 -1.29,2.132 -2.468,4.297 -4.817,8.742 -0.601,1.184 -0.625,1.211 -1.242,2.395 -2.415,4.832 -4.546,9.777 -0.571,1.234 -0.535,1.235 -1.086,2.496 -2.058,4.988 -3.926,10.059 -0.418,1.187 -0.434,1.184 -0.847,2.367 -1.653,4.754 -3.062,9.625 -0.18,0.59 -0.176,0.617 -0.34,1.211 -0.71,2.418 -1.34,4.859 -2.453,9.746 -0.614,2.68 -0.586,2.676 -1.14,5.324 -0.129,0.695 -0.379,2.004 -0.488,2.68 -0.957,5.375 -0.098,0.668 -0.109,0.691 -0.223,1.34 -0.41,2.699 -0.11,0.668 -0.078,0.696 -0.207,1.335 -0.359,2.707 -0.098,0.696 -0.078,0.668 -0.176,1.359 -0.312,2.703 -0.567,5.43 -0.078,0.641 -0.058,0.64 -0.118,1.262 -0.214,2.551 -0.047,0.64 -0.051,0.618 -0.106,1.285 -0.175,2.547 -0.032,0.617 -0.046,0.644 -0.082,1.289 -0.016,0.614 -0.063,0.644 -0.046,1.285 -0.032,0.621 -0.047,0.637 -0.058,1.289 -0.02,0.617 -0.078,1.93 v 0.617 l -0.078,1.93 v 0.641 l -0.019,0.621 v 0.644 l -0.032,0.641 v 0.64 l -0.027,0.618 v 1.289 l -0.027,0.644 v 5.735 l 0.027,0.648 v 1.254 l 0.027,0.644 v 1.286 l 0.032,0.621 v 0.64 l 0.046,1.285 v 0.622 l 0.024,0.609 0.055,1.269 0.05,1.231 0.047,1.266 0.031,0.609 0.02,0.644 0.059,1.243 0.144,2.484 0.031,0.625 0.032,0.641 0.093,1.23 0.16,2.5 0.047,0.617 0.059,0.649 0.098,1.226 0.214,2.496 0.047,0.622 0.071,0.621 0.105,1.254 0.258,2.468 0.086,0.649 0.051,0.609 0.125,1.238 0.3,2.496 0.625,4.942 0.715,4.965 0.418,2.672 0.434,2.675 0.945,5.356 0.266,1.336 0.261,1.312 0.508,2.668 1.133,5.305 0.156,0.668 0.125,0.641 0.305,1.335 0.625,2.661 1.309,5.242 2.851,10.465 0.188,0.621 0.156,0.593 0.352,1.231 0.75,2.422 1.511,4.808 3.305,9.594 0.191,0.594 0.246,0.59 1.309,3.551 1.824,4.734 3.86,9.367 0.285,0.609 0.254,0.645 0.562,1.262 1.106,2.5 2.324,4.988 4.836,9.824 0.613,1.239 1.934,3.625 2.617,4.808 5.508,9.488 0.332,0.594 0.359,0.567 0.695,1.16 1.414,2.293 2.903,4.547 5.996,8.925 0.391,0.567 0.39,0.539 0.762,1.105 1.57,2.188 3.188,4.351 6.57,8.543 0.41,0.492 0.383,0.481 0.801,0.977 1.558,1.957 3.243,3.832 6.613,7.566 0.422,0.461 0.425,0.461 2.551,2.777 3.446,3.653 7.101,7.128 0.469,0.493 0.488,0.457 0.996,0.953 1.953,1.879 3.993,3.707 8.156,7.218 0.539,0.446 0.515,0.433 1.028,0.907 6.328,5.164 8.621,6.672 0.508,0.375 0.515,0.367 1.028,0.769 2.058,1.496 4.145,2.93 8.406,5.707 0.547,0.336 0.535,0.363 1.059,0.664 2.156,1.364 4.324,2.699 8.782,5.148 2.16,1.239 2.175,1.207 4.407,2.336 8.867,4.531 0.562,0.285 0.571,0.258 1.109,0.539 2.27,1.078 4.519,2.078 9.16,3.996 1.243,0.512 1.25,0.488 2.5,1.028 5.066,1.957 10.184,3.652 0.617,0.211 0.644,0.199 1.289,0.438 2.578,0.855 5.164,1.594 10.391,2.98 0.617,0.157 0.617,0.175 1.208,0.313 2.445,0.609 4.91,1.219 0.625,0.133 0.613,0.148 1.235,0.285 2.437,0.535 6.184,1.286 1.258,0.257 2.472,0.469 4.961,0.875 0.613,0.125 0.657,0.106 1.23,0.203 2.488,0.387 4.993,0.718 1.394,0.203 1.418,0.188 2.766,0.355 0.703,0.078 0.711,0.079 1.394,0.152 2.805,0.312 1.387,0.145 1.418,0.133 2.8,0.258 0.696,0.054 0.719,0.078 1.386,0.102 2.805,0.199 0.723,0.055 0.695,0.055 1.414,0.078 0.691,0.054 0.696,0.02 1.418,0.078 0.691,0.055 0.723,0.023 1.418,0.055 0.691,0.023 0.692,0.047 1.417,0.055 0.696,0.023 h 0.719 l 1.386,0.055 0.727,0.023 h 0.691 l 0.723,0.032 h 0.691 l 0.696,0.023 h 1.418 l 0.691,0.024 H 540 m 0,-59.934 h 2.566 l 0.52,-0.031 h 1.023 l 0.52,-0.024 h 1.035 l 0.52,-0.031 h 0.504 l 0.519,-0.023 1.023,-0.024 0.52,-0.019 h 0.508 l 1.008,-0.055 h 0.515 l 3.594,-0.188 2.063,-0.125 1.035,-0.046 1.023,-0.086 2.031,-0.153 0.52,-0.023 0.508,-0.047 1.035,-0.082 2.058,-0.18 0.508,-0.051 0.489,-0.054 3.085,-0.301 4.075,-0.496 0.554,-0.043 0.547,-0.082 3.321,-0.461 4.421,-0.645 0.54,-0.105 0.539,-0.074 1.113,-0.18 2.207,-0.387 4.375,-0.797 1.082,-0.21 1.101,-0.227 2.192,-0.438 4.344,-0.957 8.672,-2.132 0.488,-0.129 0.508,-0.129 1.004,-0.254 2.011,-0.567 3.989,-1.156 7.949,-2.496 0.972,-0.312 1.008,-0.328 1.953,-0.7 3.938,-1.39 7.762,-2.985 0.468,-0.175 0.489,-0.208 0.925,-0.386 1.907,-0.766 3.73,-1.621 7.434,-3.375 0.457,-0.23 0.468,-0.207 0.899,-0.438 1.848,-0.902 3.628,-1.852 7.231,-3.832 0.457,-0.254 0.5,-0.258 0.977,-0.543 1.902,-1.101 3.828,-2.242 7.539,-4.657 0.461,-0.281 1.395,-0.93 1.843,-1.203 3.657,-2.496 7.207,-5.14 3.289,-2.473 3.261,-2.547 6.407,-5.199 0.418,-0.332 0.382,-0.34 0.801,-0.668 1.543,-1.355 3.106,-2.731 6.074,-5.609 0.41,-0.383 0.391,-0.391 0.82,-0.765 1.594,-1.578 3.164,-3.161 6.179,-6.476 0.352,-0.418 0.391,-0.41 0.742,-0.848 1.496,-1.644 2.957,-3.403 5.715,-6.89 0.332,-0.407 0.332,-0.445 0.691,-0.852 4.016,-5.238 5.144,-7.129 0.313,-0.437 0.332,-0.465 1.855,-2.695 2.411,-3.68 4.691,-7.438 0.508,-0.879 0.547,-0.894 1.023,-1.754 2.031,-3.574 3.938,-7.199 0.23,-0.442 0.239,-0.461 0.457,-0.902 0.925,-1.828 1.828,-3.672 3.477,-7.438 0.227,-0.511 0.203,-0.516 0.468,-1.012 0.872,-2.047 1.726,-4.093 3.215,-8.282 0.184,-0.515 0.207,-0.539 0.347,-1.031 0.754,-2.11 1.438,-4.187 2.672,-8.496 0.128,-0.489 0.157,-0.511 0.285,-0.973 0.562,-2.012 1.086,-4.012 0.125,-0.496 0.157,-0.511 0.253,-1 0.493,-2.008 0.957,-4.039 0.125,-0.512 0.097,-0.488 0.235,-1.035 0.437,-2.028 0.821,-4.062 0.109,-0.524 0.098,-0.48 0.207,-1.031 0.359,-2.036 0.723,-4.089 0.078,-0.512 0.078,-0.488 0.156,-1 0.305,-2.036 0.078,-0.492 0.074,-0.511 0.156,-1.004 0.254,-2.004 0.078,-0.512 0.051,-0.496 0.125,-1.027 0.266,-2.008 0.437,-4.035 0.102,-1.032 0.105,-1.007 0.176,-2.028 0.051,-0.484 0.027,-0.516 0.11,-1.035 0.144,-2 0.059,-1.035 0.078,-1 0.051,-1.027 0.078,-1.012 0.047,-1.024 0.047,-1.003 0.05,-1.024 0.032,-1.008 0.027,-0.57 0.019,-0.535 0.032,-0.567 v -0.543 l 0.027,-0.543 0.02,-0.566 0.031,-1.102 v -0.542 l 0.027,-0.567 v -0.535 l 0.02,-0.566 v -1.649 l 0.031,-0.543 v -4.418 l -0.031,-0.543 v -1.105 l -0.02,-0.563 v -1.109 l -0.027,-0.539 v -0.539 l -0.031,-0.567 v -0.543 l -0.02,-0.566 -0.027,-0.535 -0.032,-0.567 v -0.543 l -0.046,-1.101 -0.032,-0.543 -0.019,-0.567 -0.047,-1.109 -0.141,-2.183 -0.015,-0.567 -0.032,-0.543 -0.234,-3.312 -0.051,-0.543 -0.015,-0.543 -0.11,-1.102 -0.176,-2.215 -0.058,-0.515 -0.051,-0.489 -0.359,-3.597 -0.078,-0.52 -0.098,-1.023 -0.266,-2.035 -0.039,-0.516 -0.086,-0.512 -0.129,-1.008 -0.253,-2.054 -0.625,-4.067 -0.145,-1.023 -0.156,-1.008 -0.332,-2.031 -0.723,-4.063 -1.648,-8.082 -0.129,-0.535 -0.098,-0.543 -0.266,-1.078 -0.488,-2.187 -1.07,-4.348 -0.266,-1.082 -0.281,-1.078 -0.59,-2.137 -1.211,-4.32 -0.152,-0.52 -0.461,-1.621 -0.645,-2.133 -1.367,-4.242 -2.91,-8.437 -0.176,-0.512 -0.207,-0.52 -1.16,-3.086 -1.594,-4.089 -3.394,-8.079 -0.227,-0.488 -0.207,-0.512 -0.469,-1.003 -0.894,-1.985 -1.859,-3.961 -3.934,-7.844 -0.227,-0.46 -0.23,-0.442 -0.488,-0.894 -0.957,-1.805 -1.973,-3.594 -4.121,-7.055 -0.52,-0.875 -1.621,-2.625 -2.179,-3.449 -4.532,-6.816 -0.308,-0.434 -0.332,-0.465 -0.618,-0.902 -1.289,-1.824 -2.597,-3.574 -5.403,-7.047 -0.332,-0.442 -0.359,-0.437 -0.676,-0.848 -1.414,-1.722 -2.82,-3.422 -5.84,-6.664 -0.363,-0.387 -0.332,-0.387 -0.696,-0.742 -1.414,-1.52 -2.859,-3.011 -5.844,-5.864 -0.359,-0.363 -0.379,-0.355 -2.238,-2.16 -3.039,-2.805 -6.168,-5.508 -0.442,-0.355 -0.41,-0.364 -0.879,-0.722 -1.699,-1.442 -3.469,-2.847 -7.098,-5.481 -0.437,-0.359 -0.461,-0.34 -0.906,-0.641 -1.797,-1.336 -3.652,-2.597 -7.434,-5.02 -0.469,-0.281 -0.461,-0.309 -2.781,-1.773 -3.75,-2.289 -7.617,-4.43 -0.488,-0.277 -0.457,-0.258 -0.989,-0.543 -1.914,-1.055 -3.918,-2.054 -7.879,-3.914 -0.461,-0.204 -0.457,-0.234 -0.925,-0.437 -1.875,-0.848 -3.762,-1.668 -7.559,-3.195 -0.468,-0.18 -0.489,-0.207 -0.945,-0.387 -1.938,-0.715 -3.828,-1.468 -7.742,-2.704 -0.547,-0.179 -0.508,-0.176 -1.086,-0.336 -2.109,-0.672 -4.266,-1.312 -0.515,-0.153 -1.621,-0.461 -2.141,-0.589 -4.285,-1.161 -0.551,-0.156 -0.535,-0.125 -1.086,-0.285 -2.156,-0.516 -4.348,-1.027 -8.719,-1.801 -0.515,-0.078 -0.488,-0.101 -1.028,-0.18 -2.058,-0.387 -4.094,-0.672 -4.11,-0.613 -4.125,-0.543 -0.503,-0.078 -0.52,-0.047 -1.055,-0.133 -2.058,-0.23 -1.028,-0.102 -1.035,-0.129 -2.082,-0.179 -2.058,-0.204 -2.078,-0.156 -0.52,-0.054 -0.508,-0.024 -1.035,-0.078 -2.078,-0.152 -0.52,-0.032 -0.488,-0.023 -1.543,-0.078 -0.488,-0.024 -2.063,-0.101 -0.996,-0.055 -0.515,-0.023 h -0.516 l -0.996,-0.051 h -0.52 l -0.515,-0.027 h -0.52 l -0.508,-0.028 h -0.488 l -0.516,-0.023 h -0.519 l -0.508,-0.024 h -1.523 l -0.508,-0.027 h -4.578 l -0.52,0.027 h -1.511 l -0.52,0.024 h -1.023 l -0.52,0.023 h -0.488 l -1.035,0.028 -1.028,0.05 -1.004,0.028 -1.023,0.05 -1.008,0.028 -2.051,0.101 -2.043,0.102 -0.535,0.055 -0.566,0.023 -1.074,0.078 -2.215,0.153 -0.571,0.054 -0.535,0.047 -1.113,0.078 -2.18,0.207 -0.562,0.055 -0.547,0.047 -1.106,0.105 -2.187,0.231 -4.395,0.511 -0.546,0.082 -0.567,0.079 -1.074,0.125 -2.188,0.312 -4.375,0.664 -0.566,0.078 -0.535,0.102 -1.086,0.18 -2.188,0.386 -4.343,0.801 -0.508,0.106 -0.5,0.101 -1.028,0.203 -2,0.41 -4.042,0.875 -0.489,0.133 -0.515,0.102 -0.996,0.23 -2.012,0.488 -3.996,1.004 -0.508,0.129 -0.488,0.125 -0.996,0.285 -1.993,0.54 -3.984,1.132 -7.871,2.446 -0.535,0.156 -0.52,0.18 -1.074,0.355 -2.109,0.723 -4.219,1.496 -8.34,3.215 -0.52,0.203 -0.535,0.203 -1.023,0.437 -2.063,0.852 -4.121,1.773 -8.093,3.754 -0.493,0.258 -0.484,0.234 -1.008,0.489 -1.965,0.976 -3.894,2.008 -7.727,4.195 -0.469,0.278 -0.476,0.285 -0.957,0.539 -1.875,1.109 -3.789,2.262 -7.403,4.707 -0.41,0.281 -0.437,0.286 -2.539,1.699 -3.379,2.34 -6.633,4.812 -0.41,0.309 -0.391,0.304 -0.82,0.618 -1.621,1.234 -3.211,2.551 -6.328,5.195 -0.449,0.359 -0.403,0.364 -0.847,0.715 -1.68,1.464 -3.293,2.961 -6.477,6.098 -0.386,0.387 -0.414,0.386 -0.797,0.77 -1.575,1.578 -3.085,3.184 -6.067,6.48 -0.672,0.77 -0.691,0.773 -1.367,1.57 -2.707,3.137 -5.262,6.43 -0.305,0.387 -0.344,0.414 -0.613,0.82 -1.289,1.644 -2.488,3.297 -4.836,6.739 -0.313,0.41 -0.285,0.414 -0.562,0.851 -1.164,1.668 -2.239,3.395 -4.343,6.871 -1.028,1.746 -1.05,1.727 -2.043,3.523 -3.907,7.125 -1.023,1.957 -1.008,1.953 -1.953,3.961 -3.738,7.977 -0.461,1.027 -0.43,1.004 -0.879,2.031 -1.699,4.063 -3.184,8.211 -0.359,0.972 -0.363,0.953 -0.664,1.954 -1.336,3.886 -2.5,7.848 -0.317,0.977 -0.281,0.976 -0.566,1.981 -1.106,3.96 -2,8.004 -0.266,1.079 -0.222,1.082 -0.496,2.183 -0.918,4.375 -0.207,1.082 -0.203,1.102 -0.422,2.187 -0.774,4.403 -0.078,0.539 -0.097,0.539 -0.184,1.105 -0.32,2.215 -0.09,0.543 -0.078,0.559 -0.457,3.32 -0.079,0.543 -0.05,0.566 -0.157,1.106 -0.253,2.211 -0.469,4.422 -0.098,1.031 -0.105,1.054 -0.176,2.063 -0.031,0.535 -0.047,0.52 -0.078,1.023 -0.161,2.086 -0.046,1.027 -0.079,1.059 -0.046,1.023 -0.063,1.055 -0.098,2.063 -0.027,0.539 v 0.511 l -0.051,1.032 v 0.539 l -0.047,1.031 v 0.512 l -0.031,0.515 v 0.539 l -0.027,0.516 v 1.031 l -0.02,0.535 v 1.032 l -0.031,0.511 v 4.684 l 0.031,0.543 v 1.539 l 0.02,0.543 v 0.512 l 0.027,0.519 v 0.516 l 0.031,1.055 0.032,0.511 v 0.489 l 0.039,1.031 v 0.515 l 0.027,0.512 0.059,1.004 0.019,0.512 v 0.511 l 0.047,1.036 0.129,2.031 0.059,1.027 0.078,1.004 0.129,2.027 0.047,0.52 0.031,0.516 0.078,1 0.176,2.054 0.047,0.496 0.058,0.512 0.078,1.031 0.203,2.036 0.071,0.484 0.058,0.512 0.098,1 0.234,2.039 0.078,0.515 0.059,0.512 0.117,1.008 0.266,2.031 0.586,4.031 0.152,1.078 0.188,1.11 0.351,2.187 0.781,4.352 0.098,0.566 0.313,1.621 0.437,2.161 0.918,4.343 0.109,0.543 0.125,0.539 0.239,1.082 0.515,2.157 1.043,4.3 2.344,8.536 0.156,0.496 0.129,0.511 0.313,0.977 0.586,1.98 1.257,3.938 2.688,7.816 0.145,0.489 0.539,1.468 0.722,1.93 1.492,3.859 3.164,7.641 0.208,0.512 0.695,1.551 0.894,2.023 1.887,4.062 3.965,8.059 0.254,0.488 0.254,0.508 0.515,0.981 1.059,1.988 2.129,3.93 4.5,7.746 0.281,0.488 0.852,1.387 1.164,1.875 2.359,3.711 4.895,7.3 0.3,0.465 0.344,0.438 0.613,0.902 1.282,1.797 2.597,3.551 5.379,6.976 0.317,0.375 0.32,0.414 0.652,0.801 1.282,1.567 2.628,3.171 5.426,6.164 0.332,0.364 0.344,0.386 0.684,0.778 1.418,1.488 2.808,2.977 5.781,5.82 0.395,0.418 0.406,0.379 0.793,0.765 1.602,1.524 3.261,3.031 6.661,5.891 0.41,0.367 0.449,0.359 0.852,0.719 1.687,1.414 3.477,2.832 7.019,5.426 0.41,0.312 0.442,0.309 0.82,0.609 1.672,1.211 3.394,2.418 6.899,4.661 0.437,0.281 0.411,0.285 0.878,0.562 1.747,1.106 3.546,2.187 7.149,4.223 0.437,0.231 0.442,0.253 0.898,0.52 1.778,0.969 3.601,1.929 7.246,3.684 0.473,0.23 0.437,0.231 0.926,0.441 1.828,0.879 3.699,1.688 7.454,3.25 1.046,0.41 1.024,0.433 2.051,0.821 4.113,1.601 8.316,2.985 0.508,0.148 0.551,0.188 1.023,0.355 2.11,0.699 4.219,1.309 8.488,2.418 0.496,0.129 0.508,0.129 1.008,0.281 1.98,0.484 4.004,0.981 0.488,0.129 0.528,0.101 3.007,0.696 4.036,0.847 0.515,0.102 0.481,0.109 1.011,0.176 2.024,0.387 4.062,0.718 0.528,0.11 0.488,0.074 1.023,0.18 2.035,0.301 4.09,0.593 2.254,0.313 2.297,0.281 1.133,0.16 1.152,0.125 2.293,0.258 1.137,0.102 1.148,0.097 2.297,0.215 1.133,0.098 1.152,0.101 2.293,0.153 0.571,0.054 0.586,0.032 1.129,0.078 0.597,0.023 0.567,0.055 1.152,0.043 1.133,0.051 1.164,0.054 0.555,0.028 0.593,0.027 1.137,0.055 0.594,0.019 h 0.566 l 0.559,0.024 0.593,0.023 h 0.567 l 0.566,0.031 h 1.153 l 0.566,0.024 h 1.16 l 0.598,0.031 H 540 m 0,-78.121 h 2.551 l 0.359,-0.031 h 1.074 l 0.391,-0.028 h 0.723 l 0.715,-0.023 0.371,-0.028 h 0.347 l 0.727,-0.023 0.379,-0.027 h 0.359 l 0.727,-0.055 h 0.359 l 0.359,-0.02 0.715,-0.027 1.477,-0.105 0.359,-0.024 h 0.352 l 0.722,-0.054 1.465,-0.098 0.364,-0.055 1.082,-0.078 1.433,-0.125 0.363,-0.023 0.364,-0.055 0.718,-0.055 1.465,-0.152 2.883,-0.336 0.774,-0.102 0.796,-0.097 1.543,-0.215 3.137,-0.484 0.774,-0.102 0.769,-0.133 1.543,-0.281 3.113,-0.566 3.086,-0.622 3.086,-0.664 6.125,-1.519 0.364,-0.074 0.332,-0.106 0.718,-0.176 1.418,-0.418 2.832,-0.793 5.606,-1.773 0.359,-0.105 0.363,-0.133 2.079,-0.692 2.753,-1 5.5,-2.113 0.672,-0.254 0.664,-0.281 1.34,-0.543 2.656,-1.164 5.247,-2.387 0.332,-0.152 0.308,-0.156 0.664,-0.313 3.867,-1.93 5.09,-2.699 0.364,-0.203 0.332,-0.176 0.671,-0.39 1.36,-0.774 2.703,-1.566 5.32,-3.289 0.332,-0.243 0.344,-0.199 0.645,-0.41 1.308,-0.879 2.598,-1.75 5.098,-3.644 0.273,-0.215 0.312,-0.231 0.567,-0.429 1.18,-0.879 2.296,-1.809 4.524,-3.672 0.562,-0.461 0.571,-0.496 1.101,-0.945 2.188,-1.93 4.297,-3.965 0.285,-0.253 0.281,-0.282 0.566,-0.543 1.133,-1.101 2.239,-2.274 4.375,-4.574 0.25,-0.281 0.265,-0.317 0.535,-0.562 1.059,-1.18 2.078,-2.394 4.043,-4.86 0.234,-0.312 0.254,-0.309 0.489,-0.609 0.957,-1.211 1.875,-2.473 3.652,-5.043 0.207,-0.332 0.23,-0.308 1.313,-1.934 1.719,-2.598 3.297,-5.25 0.175,-0.3 0.207,-0.309 0.364,-0.648 0.742,-1.231 1.441,-2.519 2.754,-5.098 0.18,-0.313 0.152,-0.328 1.008,-1.925 1.277,-2.606 2.453,-5.273 0.157,-0.332 0.156,-0.36 0.332,-0.722 0.613,-1.438 1.211,-2.91 2.258,-5.859 0.156,-0.368 0.125,-0.382 0.266,-0.719 0.539,-1.5 1.004,-2.985 1.902,-5.984 0.102,-0.344 0.308,-1.078 0.383,-1.387 0.774,-2.855 0.078,-0.332 0.105,-0.359 0.176,-0.719 0.359,-1.418 0.676,-2.852 0.078,-0.363 0.098,-0.359 0.461,-2.161 0.594,-2.859 0.046,-0.355 0.083,-0.364 0.125,-0.714 0.285,-1.446 0.488,-2.902 0.059,-0.363 0.078,-0.332 0.093,-0.719 0.207,-1.422 0.079,-0.356 0.156,-1.085 0.176,-1.411 0.109,-0.722 0.074,-0.723 0.18,-1.406 0.308,-2.863 0.051,-0.36 0.032,-0.355 0.078,-0.731 0.125,-1.429 0.019,-0.336 0.078,-1.079 0.137,-1.445 0.051,-0.719 0.015,-0.722 0.137,-1.797 v -0.36 l 0.051,-0.695 v -0.359 l 0.019,-0.363 0.032,-0.723 0.027,-0.387 v -0.41 l 0.02,-0.387 v -0.379 l 0.031,-0.39 v -0.391 l 0.027,-0.797 v -0.379 l 0.02,-0.386 v -0.774 l 0.031,-0.39 v -5.086 l -0.031,-0.391 v -1.156 l -0.02,-0.387 v -0.797 l -0.027,-0.387 v -0.382 l -0.031,-0.387 v -0.387 l -0.02,-0.41 -0.027,-0.77 -0.032,-0.386 v -0.387 l -0.046,-0.769 -0.082,-1.575 -0.047,-0.769 -0.047,-0.797 -0.129,-1.93 -0.059,-0.387 -0.05,-0.796 -0.125,-1.543 -0.047,-0.364 -0.032,-0.355 -0.078,-0.723 -0.156,-1.465 -0.02,-0.363 -0.058,-0.359 -0.078,-0.719 -0.176,-1.441 -0.027,-0.36 -0.149,-1.082 -0.183,-1.437 -0.442,-2.907 -0.051,-0.336 -0.046,-0.363 -0.125,-0.719 -0.239,-1.437 -0.515,-2.883 -1.153,-5.711 -0.156,-0.773 -0.176,-0.77 -0.359,-1.519 -0.754,-3.086 -0.098,-0.364 -0.105,-0.382 -0.18,-0.774 -0.406,-1.515 -0.852,-3.036 -0.136,-0.382 -0.098,-0.387 -0.227,-0.746 -0.464,-1.52 -0.957,-3.008 -2.051,-5.972 -0.266,-0.719 -0.281,-0.746 -0.539,-1.441 -1.133,-2.879 -2.395,-5.715 -0.3,-0.715 -0.34,-0.695 -0.649,-1.414 -1.304,-2.805 -2.934,-5.863 -0.183,-0.313 -0.332,-0.64 -0.684,-1.29 -1.399,-2.519 -2.91,-5.016 -0.359,-0.621 -0.383,-0.613 -0.75,-1.211 -1.543,-2.441 -3.215,-4.817 -0.23,-0.332 -0.207,-0.305 -0.457,-0.644 -0.903,-1.285 -1.851,-2.547 -3.813,-4.969 -0.23,-0.308 -0.258,-0.305 -0.484,-0.621 -0.981,-1.207 -2.011,-2.414 -4.137,-4.715 -0.227,-0.278 -0.261,-0.257 -0.493,-0.543 -1.004,-1.078 -2.003,-2.11 -4.137,-4.172 -0.254,-0.254 -0.266,-0.234 -0.508,-0.512 -1.085,-0.996 -2.137,-2.011 -4.375,-3.887 -0.305,-0.258 -0.281,-0.254 -0.613,-0.519 -1.211,-1.024 -2.461,-2.008 -5,-3.886 -0.332,-0.231 -0.317,-0.234 -0.64,-0.489 -1.262,-0.921 -2.598,-1.829 -5.246,-3.546 -0.672,-0.414 -0.644,-0.438 -1.309,-0.824 -2.644,-1.645 -5.403,-3.117 -0.34,-0.203 -0.335,-0.184 -0.692,-0.355 -1.367,-0.746 -2.742,-1.465 -5.586,-2.754 -0.317,-0.156 -0.996,-0.465 -1.316,-0.613 -2.649,-1.184 -5.339,-2.266 -0.672,-0.257 -0.703,-0.286 -1.34,-0.511 -2.727,-1.031 -5.476,-1.903 -0.379,-0.129 -0.364,-0.125 -0.75,-0.234 -1.515,-0.488 -3.008,-0.922 -0.359,-0.106 -0.395,-0.105 -0.738,-0.231 -4.555,-1.234 -0.769,-0.203 -0.774,-0.184 -1.519,-0.386 -3.059,-0.715 -6.172,-1.266 -0.359,-0.074 -0.363,-0.055 -0.723,-0.148 -1.465,-0.258 -2.883,-0.465 -0.359,-0.055 -0.379,-0.074 -2.168,-0.312 -2.934,-0.383 -0.718,-0.106 -0.723,-0.074 -1.469,-0.18 -0.359,-0.027 -0.379,-0.051 -0.727,-0.078 -1.464,-0.125 -0.36,-0.031 -0.359,-0.047 -0.742,-0.055 -1.465,-0.129 -0.727,-0.046 -0.738,-0.055 -1.477,-0.102 -0.714,-0.054 -0.719,-0.024 -0.727,-0.051 -0.722,-0.027 -0.348,-0.023 h -0.363 l -0.723,-0.055 h -0.359 l -0.364,-0.023 -0.722,-0.028 h -0.696 l -0.359,-0.023 h -0.715 l -0.391,-0.028 h -1.082 l -0.351,-0.023 h -5.051 l -0.359,0.023 h -1.074 l -0.364,0.028 h -0.359 l -0.723,0.023 h -0.359 l -0.356,0.028 -0.718,0.023 h -0.364 l -0.359,0.027 -0.727,0.028 -0.359,0.023 h -0.352 l -0.722,0.055 -1.414,0.078 -0.41,0.023 -1.164,0.078 -1.563,0.102 -0.781,0.051 -0.774,0.078 -1.558,0.125 -0.395,0.055 -0.379,0.023 -0.769,0.078 -1.574,0.184 -3.086,0.359 -0.411,0.051 -2.707,0.359 -3.086,0.465 -0.378,0.078 -0.391,0.047 -0.773,0.133 -1.543,0.277 -3.067,0.567 -0.348,0.078 -0.363,0.055 -0.722,0.152 -1.434,0.281 -2.832,0.645 -1.445,0.308 -1.411,0.364 -2.832,0.691 -0.339,0.102 -0.364,0.105 -0.711,0.18 -1.386,0.382 -2.813,0.801 -5.574,1.727 -0.395,0.125 -0.359,0.129 -0.742,0.234 -1.516,0.512 -2.969,1.055 -5.906,2.269 -0.722,0.305 -0.75,0.304 -1.457,0.594 -2.891,1.258 -5.762,2.652 -0.332,0.18 -0.351,0.184 -0.704,0.332 -1.386,0.691 -2.754,1.414 -5.449,2.984 -0.34,0.18 -0.324,0.207 -2.012,1.156 -2.676,1.598 -5.254,3.344 -0.281,0.18 -0.918,0.617 -1.184,0.801 -2.402,1.644 -4.68,3.395 -0.281,0.234 -0.281,0.207 -0.586,0.434 -1.164,0.902 -2.266,1.773 -4.48,3.68 -0.285,0.254 -0.301,0.262 -1.781,1.543 -2.34,2.105 -4.575,4.301 -0.281,0.281 -0.281,0.254 -0.539,0.566 -1.145,1.11 -2.183,2.234 -4.258,4.606 -0.266,0.257 -0.222,0.286 -0.5,0.543 -0.977,1.101 -1.902,2.211 -3.735,4.559 -0.203,0.281 -0.222,0.281 -0.469,0.594 -0.902,1.156 -1.747,2.34 -3.449,4.734 -0.203,0.309 -0.184,0.281 -0.414,0.594 -0.82,1.211 -1.558,2.387 -3.098,4.863 -0.36,0.625 -0.382,0.586 -0.723,1.234 -1.445,2.496 -2.774,5.039 -0.176,0.336 -0.183,0.364 -0.363,0.691 -2.079,4.164 -2.66,5.66 -0.3,0.723 -0.301,0.695 -0.625,1.442 -1.211,2.879 -2.258,5.816 -0.254,0.668 -0.242,0.691 -0.481,1.364 -0.957,2.754 -1.777,5.558 -0.105,0.332 -0.098,0.36 -0.617,2.085 -0.774,2.801 -1.414,5.66 -0.078,0.364 -0.098,0.382 -0.183,0.774 -0.332,1.543 -0.649,3.086 -0.3,1.543 -0.286,1.57 -0.542,3.09 -0.051,0.383 -0.078,0.41 -0.125,0.773 -0.239,1.543 -0.047,0.414 -0.046,0.387 -0.129,0.77 -0.215,1.57 -0.098,0.769 -0.105,0.797 -0.176,1.571 -0.332,3.113 -0.031,0.383 -0.032,0.363 -0.066,0.723 -0.137,1.488 -0.051,0.723 -0.054,0.742 -0.102,1.469 -0.047,0.718 -0.047,0.746 -0.058,0.719 -0.031,0.746 -0.02,0.364 v 0.382 l -0.051,0.727 v 0.355 l -0.027,0.383 -0.02,0.727 v 0.383 l -0.031,0.363 v 0.355 l -0.027,0.387 v 0.723 l -0.02,0.359 v 1.106 l -0.027,0.382 v 5.149 l 0.027,0.359 v 1.106 l 0.02,0.39 0.027,0.719 v 0.719 l 0.031,0.719 0.02,0.359 v 0.359 l 0.059,0.719 v 0.367 l 0.019,0.36 0.02,0.718 0.089,1.442 0.301,4.32 0.137,1.441 0.039,0.715 0.242,2.16 0.024,0.368 0.047,0.359 0.234,2.16 0.051,0.36 0.054,0.332 0.079,0.722 0.175,1.438 0.41,2.859 0.082,0.387 0.047,0.387 0.391,2.312 0.535,3.094 0.078,0.379 0.051,0.39 0.469,2.309 0.644,3.062 0.098,0.391 0.078,0.352 0.176,0.781 0.344,1.515 0.769,3.059 1.641,6.047 0.105,0.336 0.102,0.351 0.625,2.09 0.894,2.809 1.875,5.519 0.254,0.676 0.266,0.688 0.488,1.363 1.043,2.734 2.246,5.403 0.156,0.359 0.161,0.387 0.332,0.711 0.632,1.445 1.321,2.887 2.801,5.683 0.183,0.332 0.18,0.364 0.39,0.691 0.711,1.414 1.524,2.781 3.183,5.485 0.207,0.324 0.184,0.332 0.41,0.676 0.821,1.312 1.668,2.617 3.449,5.176 0.234,0.313 0.234,0.328 0.442,0.621 0.894,1.281 1.848,2.496 3.777,4.938 0.469,0.57 0.473,0.535 0.894,1.137 1.875,2.238 3.813,4.348 0.254,0.281 0.23,0.262 0.489,0.535 1.007,1.055 1.973,2.113 4.102,4.117 0.554,0.567 1.699,1.621 2.317,2.129 4.719,4.172 0.281,0.25 0.305,0.261 0.585,0.512 1.208,1 2.453,1.988 4.992,3.86 0.281,0.199 0.305,0.234 0.594,0.438 1.179,0.851 2.395,1.699 4.863,3.29 0.613,0.41 0.617,0.39 1.243,0.797 2.488,1.543 5.066,2.985 0.618,0.355 0.644,0.344 1.262,0.687 2.515,1.364 5.149,2.625 0.312,0.152 0.332,0.16 0.645,0.297 1.316,0.625 2.59,1.211 5.305,2.281 0.711,0.313 0.73,0.285 1.438,0.59 2.91,1.132 5.879,2.11 0.371,0.133 0.391,0.093 0.71,0.266 1.497,0.488 2.988,0.918 6.015,1.731 0.333,0.078 0.363,0.097 0.691,0.184 1.414,0.356 2.832,0.699 0.727,0.152 0.711,0.184 1.418,0.308 2.847,0.586 0.364,0.078 0.332,0.078 0.722,0.125 1.446,0.286 2.851,0.511 0.364,0.055 0.359,0.078 0.723,0.11 1.433,0.226 2.883,0.438 0.82,0.101 0.801,0.102 1.621,0.211 0.41,0.05 0.391,0.047 0.82,0.082 1.59,0.176 0.41,0.055 0.422,0.023 0.789,0.078 1.621,0.157 0.41,0.023 0.422,0.051 0.789,0.055 1.621,0.125 1.653,0.101 0.383,0.031 0.41,0.028 0.828,0.023 0.41,0.027 0.383,0.02 0.828,0.023 0.41,0.032 0.383,0.027 0.828,0.023 h 0.41 l 0.41,0.028 h 0.411 l 0.39,0.023 h 0.41 l 0.411,0.028 h 1.21 l 0.411,0.031 H 540"
         style="fill:none;stroke:#3871c1;stroke-width:7.5;stroke-linecap:square;stroke-linejoin:miter;stroke-miterlimit:3.25;stroke-dasharray:none;stroke-opacity:1"
         transform="matrix(0.13333333,0,0,-0.13333333,0,144)" />
    </g>
  </g>
</svg>
