<?xml version="1.0" encoding="UTF-8" standalone="no"?>
<!-- Created with Inkscape (http://www.inkscape.org/) -->

<svg
   version="1.1"
   id="svg1"
   width="234.06667"
   height="105.8"
   viewBox="0 0 234.06667 105.8"
   sodipodi:docname="phaaaf02.eps"
   xmlns:inkscape="http://www.inkscape.org/namespaces/inkscape"
   xmlns:sodipodi="http://sodipodi.sourceforge.net/DTD/sodipodi-0.dtd"
   xmlns="http://www.w3.org/2000/svg"
   xmlns:svg="http://www.w3.org/2000/svg">
  <defs
     id="defs1" />
  <sodipodi:namedview
     id="namedview1"
     pagecolor="#ffffff"
     bordercolor="#000000"
     borderopacity="0.25"
     inkscape:showpageshadow="2"
     inkscape:pageopacity="0.0"
     inkscape:pagecheckerboard="0"
     inkscape:deskcolor="#d1d1d1">
    <inkscape:page
       x="0"
       y="0"
       inkscape:label="1"
       id="page1"
       width="234.06667"
       height="105.8"
       margin="0"
       bleed="0" />
  </sodipodi:namedview>
  <g
     id="g1"
     inkscape:groupmode="layer"
     inkscape:label="1">
    <g
       id="group-R5">
      <g
         id="g2"
         aria-label="c p(x)&#10;f(x)"
         transform="matrix(1.3333333,0,0,1.3333333,206.92267,49.396933)">
        <path
           id="path2"
           d="m 3.0228437,-1.0887156 c -0.2460937,0.25781248 -0.796875,0.66796873 -1.2539062,0.66796873 -0.3867188,0 -0.6328125,-0.33984375 -0.6328125,-0.97265623 0,-0.609375 0.1640625,-1.21875 0.3984375,-1.6289063 0.1640625,-0.328125 0.421875,-0.5976562 0.7382812,-0.5976562 0.28125,0 0.4921875,0.1289062 0.6796875,0.3867187 0.058594,0.082031 0.1289063,0.1054688 0.1992188,0.058594 0.1992187,-0.1054688 0.2929687,-0.28125 0.2929687,-0.4101563 C 3.433,-3.8191844 3.15175,-4.0418406 2.7650312,-4.0418406 c -0.4453125,0 -1.078125,0.3398437 -1.4414062,0.6679687 -0.57421875,0.5273438 -0.92578125,1.4179688 -0.92578125,2.15625 0,0.86718753 0.38671875,1.32421878 0.96093745,1.32421878 0.5273438,0 1.2421875,-0.36328125 1.8046875,-0.99609375 z m 4.631836,-3.5390625 -0.09375,-0.046875 c -0.2109375,0.1171875 -0.4921875,0.328125 -0.65625,0.5273437 l -0.1054688,0.4101563 c -0.2929687,0.1054687 -0.6210937,0.2695312 -0.8554687,0.4453125 l 0.058594,0.2226562 C 6.2132737,-3.1746531 6.4476487,-3.3035594 6.7288987,-3.3973094 6.4007737,-1.8387156 6.06093,-0.25668437 5.7210862,1.3136281 5.59218,1.8761281 5.49843,1.9464406 4.93593,2.0519094 L 4.9007734,2.2862844 6.9749922,2.1808156 6.9984297,1.9464406 6.7874922,1.9230031 C 6.3421797,1.8878469 6.2953047,1.8058156 6.4007734,1.2901906 L 6.6468672,0.02456563 c 0.1757812,0.0703125 0.3867187,0.08203125 0.5390625,0.08203125 0.5742187,-0.140625 1.21875,-0.5390625 1.6640625,-1.04296875 0.515625,-0.58593753 0.7734375,-1.26562503 0.7734375,-1.86328123 0,-0.796875 -0.375,-1.2421875 -1.3007813,-1.2421875 -0.2460937,0 -0.5859375,0.035156 -0.8320312,0.1054687 z m -0.2460938,1.0429687 c 0.1640625,-0.046875 0.3632813,-0.070312 0.515625,-0.070312 0.515625,0 0.9375,0.1992188 0.9375,0.9960938 0,1.1601562 -0.8671875,2.36718748 -1.5117187,2.36718748 -0.2109375,0 -0.4570313,-0.1640625 -0.5507813,-0.3046875 z m 0,0"
           style="fill:#231f20;fill-opacity:1;fill-rule:nonzero;stroke:none" />
        <path
           id="path3"
           d="m 12.567766,1.3253469 c -0.890625,-0.76171877 -1.40625,-2.20312502 -1.40625,-3.75 0,-1.546875 0.515625,-3 1.40625,-3.75 l -0.152344,-0.2109375 c -1.324219,0.9023437 -1.910156,2.3320312 -1.910156,3.9492187 0,1.62890628 0.585937,3.08203128 1.910156,3.9609375 z m 0,0"
           style="fill:#231f20;fill-opacity:1;fill-rule:nonzero;stroke:none" />
        <path
           id="path4"
           d="m 13.760148,-2.9168406 c 0.316407,-0.3984375 0.492188,-0.515625 0.574219,-0.515625 0.09375,0 0.175781,0.1289062 0.304688,0.5742187 l 0.304687,0.9375 c -0.5625,0.8320313 -0.984375,1.35937503 -1.242187,1.35937503 -0.09375,0 -0.164063,-0.0351563 -0.210938,-0.09375 -0.04687,-0.0585938 -0.09375,-0.09375 -0.140625,-0.09375 -0.175781,0 -0.363281,0.2109375 -0.363281,0.421875 -0.01172,0.2578125 0.175781,0.43359375 0.410156,0.43359375 0.421875,0 0.84375,-0.43359375 1.640625,-1.69921878 l 0.28125,0.87890628 c 0.175781,0.5625 0.363281,0.8203125 0.597656,0.8203125 0.304688,0 0.726563,-0.328125 1.136719,-0.97265625 L 16.900773,-1.0418406 c -0.28125,0.33984373 -0.503906,0.51562498 -0.644531,0.51562498 -0.152344,0 -0.28125,-0.2578125 -0.457031,-0.82031248 l -0.292969,-0.9023438 c 0.199219,-0.28125 0.398438,-0.5273437 0.585938,-0.7382812 0.234375,-0.2929688 0.410156,-0.4453125 0.539062,-0.4453125 0.08203,0 0.152344,0.035156 0.210938,0.1054687 0.04687,0.046875 0.08203,0.070312 0.128906,0.070312 0.140625,0 0.339844,-0.1757812 0.351562,-0.3984375 0,-0.1992187 -0.140625,-0.3867187 -0.375,-0.3867187 -0.398437,0 -0.785156,0.3867187 -1.535156,1.4765625 l -0.152344,-0.4921875 c -0.222656,-0.6445313 -0.339843,-0.984375 -0.585937,-0.984375 -0.292969,0 -0.691406,0.3867187 -1.066406,0.9375 z m 0,0"
           style="fill:#231f20;fill-opacity:1;fill-rule:nonzero;stroke:none" />
        <path
           id="path5"
           d="m 17.653703,-6.1746531 c 0.890625,0.7382812 1.417969,2.203125 1.417969,3.75 0,1.54687498 -0.503906,2.98828123 -1.417969,3.75 l 0.164063,0.1992187 c 1.347656,-0.91406247 1.898437,-2.33203122 1.898437,-3.9492187 0,-1.6289063 -0.550781,-3.0585938 -1.898437,-3.9609375 z m 0,0"
           style="fill:#231f20;fill-opacity:1;fill-rule:nonzero;stroke:none" />
        <path
           id="path6"
           d="m 0.71425,8.0987844 -0.26953125,0.2578125 0.0234375,0.09375 H 1.2181562 C 1.0658125,9.3409719 0.948625,10.090972 0.72596875,11.333159 0.433,13.079253 0.21034375,13.454253 0.09315625,13.594878 c -0.08203125,0.105469 -0.234375,0.175781 -0.38671875,0.175781 -0.15234375,0 -0.421875,-0.08203 -0.5625,-0.222656 -0.0585938,-0.05859 -0.09375,-0.05859 -0.1757813,0 -0.1289062,0.105469 -0.234375,0.257813 -0.234375,0.375 -0.011719,0.210938 0.2929688,0.386719 0.5507813,0.386719 0.24609375,0 0.62109375,-0.140625 1.01953125,-0.5625 C 0.79628125,13.231597 1.136125,12.563628 1.4525312,11.016753 1.65175,10.008941 1.7455,9.4581594 1.9095625,8.4737844 l 0.9023437,-0.09375 0.1875,-0.28125 H 1.979875 C 2.2494062,6.4347219 2.5189375,6.0245656 2.8470625,6.0245656 c 0.1992187,0 0.3867187,0.1171875 0.5742187,0.3164063 0.058594,0.070312 0.1523438,0.058594 0.2226563,0.011719 0.09375,-0.070312 0.2226562,-0.234375 0.2226562,-0.375 0.011719,-0.1640625 -0.2226562,-0.3867187 -0.5390625,-0.3867187 -0.3632812,0 -0.8671875,0.2578125 -1.2890625,0.7265625 -0.3984375,0.4453125 -0.6210937,1.1015625 -0.75,1.78125 z m 0,0"
           style="fill:#231f20;fill-opacity:1;fill-rule:nonzero;stroke:none" />
        <path
           id="path7"
           d="m 6.0345625,13.325347 c -0.890625,-0.761719 -1.40625,-2.203125 -1.40625,-3.7500001 0,-1.546875 0.515625,-3 1.40625,-3.75 L 5.8822187,5.6144094 C 4.558,6.5167531 3.9720625,7.9464406 3.9720625,9.5636281 c 0,1.6289059 0.5859375,3.0820309 1.9101562,3.9609379 z m 0,0"
           style="fill:#231f20;fill-opacity:1;fill-rule:nonzero;stroke:none" />
        <path
           id="path8"
           d="m 7.2269453,9.0831594 c 0.3164063,-0.3984375 0.4921875,-0.515625 0.5742188,-0.515625 0.09375,0 0.1757812,0.1289062 0.3046875,0.5742187 l 0.3046875,0.9374999 c -0.5625,0.832031 -0.984375,1.359375 -1.2421875,1.359375 -0.09375,0 -0.1640625,-0.03516 -0.2109375,-0.09375 -0.046875,-0.05859 -0.09375,-0.09375 -0.140625,-0.09375 -0.1757813,0 -0.3632813,0.210938 -0.3632813,0.421875 -0.011719,0.257813 0.1757813,0.433594 0.4101563,0.433594 0.421875,0 0.84375,-0.433594 1.640625,-1.699219 l 0.28125,0.878906 c 0.1757812,0.5625 0.3632812,0.820313 0.5976562,0.820313 0.3046875,0 0.7265627,-0.328125 1.1367187,-0.972656 L 10.36757,10.958159 c -0.28125,0.339844 -0.5039059,0.515625 -0.6445309,0.515625 -0.1523438,0 -0.28125,-0.257812 -0.4570313,-0.820312 L 8.9730391,9.7511281 C 9.1722578,9.4698781 9.3714766,9.2237844 9.5589766,9.0128469 9.7933516,8.7198781 9.9691328,8.5675344 10.098039,8.5675344 c 0.08203,0 0.152344,0.035156 0.210938,0.1054687 0.04687,0.046875 0.08203,0.070312 0.128906,0.070312 0.140625,0 0.339844,-0.1757812 0.351562,-0.3984375 0,-0.1992187 -0.140625,-0.3867187 -0.375,-0.3867187 -0.398437,0 -0.7851559,0.3867187 -1.5351559,1.4765625 L 8.7269453,8.9425344 C 8.5042891,8.2980031 8.3871016,7.9581594 8.1410078,7.9581594 c -0.2929687,0 -0.6914062,0.3867187 -1.0664062,0.9375 z m 0,0"
           style="fill:#231f20;fill-opacity:1;fill-rule:nonzero;stroke:none" />
        <path
           id="path9"
           d="m 11.1205,5.8253469 c 0.890625,0.7382812 1.417969,2.203125 1.417969,3.75 0,1.5468751 -0.503907,2.9882811 -1.417969,3.7500001 l 0.164062,0.199219 C 12.632219,12.610503 13.183,11.192534 13.183,9.5753469 c 0,-1.6289063 -0.550781,-3.0585938 -1.898438,-3.9609375 z m 0,0"
           style="fill:#231f20;fill-opacity:1;fill-rule:nonzero;stroke:none" />
      </g>
      <path
         id="path10"
         d="m 4.02344,644.863 0.38672,0.121 0.41015,0.145 2.36719,0.793 3.168,1.019 6.3593,2.086 12.6836,4.075 27.5391,8.546 25.6953,7.653 25.1872,7.179 27.34,7.407 25.52,6.562 27.633,6.735 27.121,6.25 25.343,5.445 27.422,5.594 25.633,4.84 25.145,4.421 27.234,4.446 25.434,3.812 27.57,3.723 27.07,3.312 25.246,2.723 27.371,2.609 0.414,0.02 0.372,0.031 0.796,0.094 1.618,0.148 9.574,0.789 12.773,0.997 0.871,0.062 0.864,0.059 1.722,0.14 3.457,0.231 6.95,0.508 0.398,0.027 1.324,0.078 1.735,0.125 3.457,0.199 6.914,0.446 0.433,0.027 0.41,0.035 0.848,0.059 1.703,0.082 3.403,0.211 6.789,0.371 h 0.445 l 0.398,0.035 0.864,0.058 5.089,0.262 6.793,0.324 0.414,0.028 h 0.383 l 0.785,0.058 1.582,0.063 3.168,0.144 6.36,0.258 h 0.387 l 0.398,0.027 5.547,0.215 6.348,0.231 h 0.414 l 0.445,0.031 0.844,0.031 1.722,0.059 3.43,0.086 0.445,0.027 h 0.446 l 0.843,0.031 1.723,0.059 3.43,0.09 0.441,0.019 h 0.414 l 0.875,0.032 1.695,0.027 3.458,0.094 6.855,0.152 h 0.414 l 0.414,0.02 h 0.789 l 1.61,0.027 3.195,0.066 h 0.82 l 0.793,0.028 1.613,0.031 3.184,0.027 h 0.414 l 0.414,0.032 h 0.789 l 1.61,0.031 h 1.613 l 1.582,0.031 h 1.613 l 1.606,0.027 h 1.609 l 1.586,0.02 h 5.129 l 0.387,0.031 h 14.933 l 0.406,-0.031 h 5.192 l 0.847,-0.02 h 2.551 l 0.844,-0.027 h 2.582 l 0.848,-0.031 h 1.703 l 3.398,-0.063 h 0.879 l 0.856,-0.027 1.691,-0.031 3.398,-0.028 0.442,-0.035 h 1.293 l 1.695,-0.031 3.395,-0.078 h 0.828 l 0.785,-0.028 1.582,-0.035 3.195,-0.058 0.383,-0.028 h 0.402 l 0.797,-0.031 1.618,-0.035 3.164,-0.078 h 0.402 l 0.383,-0.027 h 0.812 l 1.582,-0.063 3.2,-0.09 6.359,-0.203 h 0.433 l 0.446,-0.031 0.847,-0.028 5.192,-0.171 6.887,-0.274 0.871,-0.051 0.851,-0.027 1.735,-0.062 3.457,-0.153 6.902,-0.324 0.414,-0.027 h 0.445 l 0.844,-0.051 1.676,-0.09 3.398,-0.152 6.762,-0.371 13.57,-0.766 0.403,-0.031 0.383,-0.028 0.796,-0.066 1.582,-0.078 9.489,-0.613 12.633,-0.911 0.425,-0.027 0.418,-0.035 0.879,-0.059 1.699,-0.152 10.282,-0.785 13.711,-1.168 25.605,-2.442 25.078,-2.687 27.246,-3.309 25.403,-3.425 27.539,-4.075 25.722,-4.164 25.19,-4.422 27.37,-5.152 25.52,-5.16 27.65,-5.949 27.16,-6.239 25.34,-6.156 27.45,-7.035 25.67,-6.934 25.13,-7.129 27.28,-8.082 25.44,-7.882 0.46,-0.141 0.44,-0.152 0.88,-0.258 1.78,-0.586 3.55,-1.109 7.09,-2.29 0.44,-0.152 0.47,-0.141 0.87,-0.292 1.79,-0.583 3.55,-1.152 1.75,-0.586 1.79,-0.582 0.88,-0.293 0.91,-0.293 1.76,-0.586"
         style="fill:none;stroke:#3871c1;stroke-width:10;stroke-linecap:butt;stroke-linejoin:miter;stroke-miterlimit:3.25;stroke-dasharray:none;stroke-opacity:1"
         transform="matrix(0.13333333,0,0,-0.13333333,0,105.8)" />
      <path
         id="path11"
         d="m 4.02344,430.73 0.38672,0.524 0.41015,0.539 2.36719,3.164 3.168,4.184 6.3593,8.375 12.6836,16.703 27.5391,35.359 25.6953,31.203 25.1872,28.184 27.34,27.008 0.406,0.355 0.379,0.383 0.801,0.707 1.613,1.43 3.184,2.812 6.363,5.453 0.414,0.325 0.371,0.32 0.825,0.676 1.582,1.277 3.199,2.586 6.383,4.887 0.41,0.32 1.32,0.969 1.727,1.257 3.426,2.461 6.914,4.688 0.445,0.305 0.433,0.261 0.844,0.551 1.735,1.082 3.457,2.149 6.922,3.976 0.425,0.238 0.418,0.227 0.844,0.445 1.703,0.91 3.399,1.723 0.418,0.207 0.425,0.238 0.864,0.414 1.664,0.786 3.39,1.582 0.446,0.179 0.418,0.203 0.843,0.348 1.696,0.731 3.406,1.382 6.762,2.489 0.418,0.121 0.371,0.14 0.793,0.243 1.582,0.519 3.172,0.942 0.398,0.109 0.387,0.125 0.797,0.199 1.582,0.445 3.152,0.786 0.414,0.089 0.383,0.09 2.367,0.528 0.414,0.058 0.383,0.094 0.789,0.172 1.582,0.293 0.41,0.058 0.387,0.086 0.785,0.114 1.582,0.273 0.414,0.047 0.383,0.062 0.816,0.122 1.582,0.234 0.414,0.059 0.434,0.027 0.848,0.113 0.441,0.063 0.414,0.031 0.875,0.086 0.414,0.062 0.438,0.032 0.843,0.078 0.446,0.035 0.414,0.027 0.875,0.059 0.414,0.062 0.433,0.032 h 0.442 l 0.402,0.027 0.891,0.051 0.844,0.035 0.445,0.027 0.406,0.031 h 0.856 l 0.433,0.028 h 0.446 l 0.398,0.027 h 4.316 l 0.403,-0.027 h 0.879 l 0.414,-0.028 h 0.441 l 0.434,-0.031 h 0.414 l 0.441,-0.027 0.403,-0.035 0.445,-0.032 h 0.433 l 0.414,-0.019 0.442,-0.027 0.848,-0.067 0.878,-0.055 0.856,-0.093 1.695,-0.137 0.41,-0.063 0.407,-0.031 0.793,-0.094 1.613,-0.199 0.387,-0.058 0.402,-0.032 0.797,-0.109 1.609,-0.246 0.406,-0.047 0.383,-0.094 0.817,-0.117 1.582,-0.293 3.226,-0.613 0.379,-0.094 0.406,-0.078 0.797,-0.184 1.61,-0.382 3.199,-0.786 0.398,-0.093 0.418,-0.11 0.785,-0.242 1.614,-0.433 3.195,-0.969 0.414,-0.153 0.383,-0.105 0.785,-0.266 1.555,-0.535 3.164,-1.109 0.758,-0.293 0.793,-0.289 1.582,-0.613 3.136,-1.262 0.383,-0.184 0.403,-0.172 0.765,-0.324 1.582,-0.699 3.137,-1.434 6.305,-3.133 0.398,-0.214 0.445,-0.231 0.848,-0.433 1.703,-0.938 3.395,-1.906 6.828,-4.106 0.414,-0.289 0.43,-0.261 0.859,-0.536 1.695,-1.113 3.395,-2.281 6.824,-4.813 0.414,-0.293 0.383,-0.293 0.785,-0.582 1.617,-1.168 3.164,-2.433 6.364,-5.067 12.707,-10.988 0.878,-0.758 0.856,-0.797 1.723,-1.582 3.429,-3.214 6.914,-6.657 13.77,-14.121 27.07,-30.199 25.246,-30.152 27.371,-33.305 25.547,-29.941 0.871,-0.996 0.864,-0.973 1.722,-1.934 3.457,-3.808 6.95,-7.41 0.398,-0.477 0.445,-0.434 0.879,-0.902 1.735,-1.797 3.457,-3.508 6.914,-6.804 0.433,-0.403 0.41,-0.414 0.848,-0.785 1.703,-1.613 3.403,-3.106 6.789,-5.918 0.445,-0.351 0.398,-0.356 2.555,-2.105 3.398,-2.668 6.793,-5.039 0.414,-0.266 0.383,-0.293 0.785,-0.523 1.582,-1.086 3.168,-2.047 0.411,-0.266 0.418,-0.242 0.785,-0.492 1.582,-0.969 3.164,-1.816 0.387,-0.235 0.398,-0.207 0.797,-0.437 1.582,-0.82 3.168,-1.582 0.398,-0.176 0.387,-0.203 0.797,-0.356 1.601,-0.699 3.165,-1.32 0.414,-0.176 0.445,-0.176 0.844,-0.32 1.722,-0.617 0.446,-0.149 0.418,-0.144 0.871,-0.293 1.695,-0.528 0.445,-0.117 0.446,-0.144 0.843,-0.239 1.723,-0.437 0.414,-0.117 0.445,-0.118 0.844,-0.175 1.727,-0.379 0.441,-0.09 0.414,-0.086 0.875,-0.148 0.406,-0.086 0.446,-0.063 0.843,-0.144 0.887,-0.118 0.848,-0.117 0.433,-0.058 0.415,-0.059 0.875,-0.09 0.414,-0.027 0.445,-0.028 0.433,-0.058 0.411,-0.031 0.879,-0.059 0.418,-0.019 h 0.425 l 0.446,-0.04 0.418,-0.031 h 0.433 l 0.438,-0.027 h 2.906 l 0.406,0.027 h 0.41 l 0.383,0.031 h 0.402 l 0.415,0.04 0.382,0.019 1.231,0.09 0.387,0.027 0.398,0.031 0.797,0.086 0.414,0.032 0.406,0.054 0.793,0.09 0.402,0.059 0.387,0.058 0.824,0.118 0.372,0.058 0.414,0.059 0.816,0.144 1.582,0.325 0.414,0.058 0.414,0.09 0.789,0.176 1.61,0.41 0.418,0.086 0.371,0.117 0.824,0.234 1.582,0.469 0.82,0.235 0.793,0.261 1.606,0.559 3.195,1.262 0.41,0.144 0.387,0.176 0.785,0.32 1.582,0.735 3.137,1.523 0.41,0.203 0.387,0.207 0.785,0.41 1.582,0.879 3.133,1.848 0.386,0.226 0.403,0.274 0.793,0.496 1.554,1.027 3.164,2.164 6.274,4.782 0.875,0.699 0.847,0.703 1.708,1.457 3.39,3.059 6.828,6.582 0.446,0.414 0.433,0.445 0.856,0.875 1.691,1.812 3.398,3.688 6.825,7.887 0.414,0.504 0.414,0.464 0.785,0.965 1.582,1.969 3.195,3.981 6.364,8.378 12.738,17.934 27.621,42.617 27.109,42.449 0.403,0.598 0.383,0.586 2.378,3.504 3.157,4.641 6.332,8.96 0.379,0.555 0.418,0.524 0.785,1.089 1.551,2.137 3.164,4.195 6.336,7.93 0.425,0.535 0.418,0.496 0.879,1.024 1.699,1.988 3.426,3.871 0.438,0.473 0.414,0.465 0.875,0.91 1.703,1.808 3.426,3.43 0.433,0.414 0.418,0.414 0.871,0.817 1.707,1.55 3.426,2.997 0.445,0.339 0.407,0.352 0.875,0.68 1.703,1.32 3.426,2.461 0.418,0.262 0.371,0.257 0.824,0.54 1.582,0.996 0.82,0.464 0.793,0.461 1.606,0.891 0.382,0.199 0.411,0.199 0.789,0.387 1.613,0.766 0.383,0.172 0.414,0.179 0.785,0.325 1.613,0.613 0.414,0.14 0.371,0.153 0.825,0.262 0.386,0.109 0.403,0.152 0.793,0.235 0.418,0.117 0.402,0.094 0.797,0.199 0.371,0.094 0.414,0.113 0.797,0.144 0.816,0.176 0.383,0.059 0.817,0.121 0.382,0.051 0.817,0.121 0.383,0.031 0.418,0.059 0.398,0.031 0.387,0.031 0.824,0.047 0.371,0.031 h 0.797 l 0.414,0.031 h 1.168 l 0.387,-0.031 h 0.402 l 0.762,-0.051 0.418,-0.027 0.754,-0.062 0.418,-0.032 0.378,-0.058 0.407,-0.032 0.761,-0.109 0.407,-0.059 0.793,-0.125 0.757,-0.167 0.797,-0.153 0.383,-0.094 0.402,-0.078 0.797,-0.215 1.551,-0.433 0.41,-0.149 0.383,-0.109 0.789,-0.273 1.555,-0.586 0.41,-0.145 0.379,-0.18 0.793,-0.32 1.551,-0.695 0.41,-0.215 0.383,-0.172 0.789,-0.406 1.554,-0.852 3.133,-1.875 0.442,-0.258 0.41,-0.292 0.847,-0.567 1.731,-1.23 3.398,-2.598 0.41,-0.355 0.438,-0.352 0.852,-0.738 1.699,-1.493 3.398,-3.195 0.86,-0.844 2.539,-2.632 3.398,-3.75 6.824,-8.204 0.383,-0.507 0.41,-0.524 0.789,-1.031 1.582,-2.074 3.196,-4.336 6.328,-9.168 12.715,-19.86 27.539,-45.558 0.41,-0.645 0.379,-0.644 0.82,-1.258 1.613,-2.555 3.192,-4.98 6.445,-9.555 0.41,-0.555 0.383,-0.582 0.82,-1.109 1.61,-2.262 3.195,-4.281 6.445,-7.933 0.379,-0.446 0.41,-0.465 0.793,-0.875 1.551,-1.73 3.164,-3.231 0.383,-0.398 0.41,-0.387 2.371,-2.195 3.137,-2.664 0.41,-0.301 0.379,-0.312 0.793,-0.598 1.582,-1.137 0.379,-0.261 0.41,-0.262 0.774,-0.535 1.57,-0.957 0.41,-0.243 0.383,-0.23 0.792,-0.445 1.58,-0.786 0.38,-0.203 0.41,-0.179 0.79,-0.356 1.55,-0.609 0.44,-0.18 0.44,-0.148 0.85,-0.258 0.41,-0.145 0.44,-0.121 0.85,-0.23 0.44,-0.09 0.41,-0.125 0.44,-0.078 0.41,-0.063 0.44,-0.09 0.44,-0.062 0.41,-0.078 0.44,-0.063 0.41,-0.031 0.44,-0.055 0.44,-0.031 0.41,-0.027 0.45,-0.035 h 0.4 l 0.44,-0.032 h 0.41 l 0.44,0.032 h 0.44 l 0.41,0.035 h 0.44 l 0.41,0.027 0.44,0.059 0.44,0.027 0.41,0.067 0.44,0.046 0.41,0.059 0.87,0.187 0.41,0.079 0.44,0.089 0.85,0.211 0.41,0.114 0.44,0.117 0.85,0.265 0.44,0.141 0.41,0.152 0.88,0.321 0.41,0.14 0.44,0.184 0.85,0.383 0.41,0.203 0.44,0.199 0.85,0.414 0.44,0.231 0.41,0.242 0.88,0.465 1.7,1.058 0.41,0.231 0.38,0.261 0.79,0.555 1.61,1.153 0.38,0.32 0.41,0.293 0.79,0.644 1.61,1.309 0.39,0.351 0.41,0.36 0.79,0.703 1.61,1.523 3.19,3.254 0.38,0.403 0.41,0.445 0.79,0.879 1.59,1.844 3.2,3.839 6.38,8.559 0.87,1.231 0.85,1.257 1.73,2.539 3.46,5.254 6.91,11.102 13.83,23.266 0.44,0.722 0.41,0.707 0.85,1.41 1.7,2.832 3.4,5.579 0.42,0.671 0.43,0.664 0.85,1.383 1.7,2.66 3.4,5.227 0.41,0.609 0.44,0.649 2.54,3.687 3.37,4.629 0.44,0.551 0.41,0.566 0.85,1.082 1.7,2.075 3.4,3.902 0.41,0.441 0.38,0.407 0.79,0.824 1.58,1.555 0.41,0.371 0.39,0.351 0.79,0.738 1.58,1.352 0.41,0.32 0.38,0.293 0.79,0.618 0.41,0.257 0.38,0.293 0.79,0.528 0.41,0.257 0.38,0.274 0.79,0.465 1.59,0.843 0.41,0.215 0.41,0.172 0.79,0.352 0.38,0.14 0.41,0.184 0.79,0.262 0.38,0.121 0.41,0.109 0.38,0.121 0.41,0.094 0.38,0.078 0.41,0.094 0.38,0.086 0.41,0.062 0.38,0.032 0.41,0.046 0.39,0.032 0.41,0.035 0.38,0.027 h 0.79 l 0.41,-0.027 h 0.38 l 0.41,-0.035 0.38,-0.059 0.41,-0.051 0.38,-0.062 0.41,-0.059 0.38,-0.094 0.41,-0.078 0.41,-0.121 0.88,-0.23 0.41,-0.153 0.44,-0.14 0.44,-0.18 0.85,-0.387 0.44,-0.199 0.41,-0.199 0.88,-0.477 0.41,-0.261 0.44,-0.262 0.85,-0.555 0.44,-0.293 0.41,-0.32 0.88,-0.645 0.41,-0.359 0.44,-0.379 0.84,-0.758 0.88,-0.824 0.85,-0.847 1.73,-1.875 0.41,-0.504 0.44,-0.524 0.85,-1.051 1.73,-2.289 0.41,-0.617 0.44,-0.613 0.85,-1.262 1.73,-2.699 0.44,-0.691 0.41,-0.739 0.88,-1.461 1.7,-3.105 3.42,-6.805 0.82,-1.695 0.79,-1.762 1.62,-3.598 3.19,-7.73 0.82,-2.063 0.79,-2.042 1.61,-4.274 3.19,-9.035 0.42,-1.164 0.38,-1.176 0.82,-2.367 1.58,-4.867 3.22,-10.16 6.42,-21.809 0.76,-2.813 0.79,-2.812 1.58,-5.703 3.14,-11.664 6.3,-24.203 12.56,-49.918 0.41,-1.7 0.44,-1.668 0.85,-3.371 1.7,-6.711 3.4,-13.269 6.83,-25.488 0.44,-1.524 0.41,-1.523 0.85,-3.047 1.72,-5.945 3.4,-11.457 6.83,-20.801 0.38,-1.114 0.41,-1.082 0.79,-2.168 1.58,-4.191 0.41,-1.023 0.38,-0.996 0.82,-1.965 1.59,-3.782 0.38,-0.906 0.41,-0.879 0.79,-1.758 1.58,-3.339 0.41,-0.789 0.41,-0.762 0.79,-1.524 1.58,-2.875 0.41,-0.671 0.38,-0.645 0.8,-1.289 0.41,-0.613 0.38,-0.586 0.82,-1.145 0.38,-0.554 0.41,-0.532 0.79,-0.996 1.58,-1.844 0.41,-0.41 0.38,-0.41 0.82,-0.73 0.38,-0.356 0.41,-0.32 0.79,-0.613 0.39,-0.293 0.41,-0.266 0.41,-0.234 0.38,-0.235 0.41,-0.207 0.38,-0.176 0.41,-0.171 0.39,-0.149 0.46,-0.176 0.88,-0.234 0.44,-0.09 0.44,-0.055 0.87,-0.058 h 0.47 l 0.44,0.027 0.88,0.117 0.88,0.235 0.47,0.117 0.88,0.351 1.32,0.704 0.44,0.293 0.46,0.293 0.44,0.324 0.88,0.73 0.44,0.379 0.44,0.41 0.91,0.91 0.44,0.469 0.44,0.528 0.88,1.085 0.44,0.555 0.47,0.613 0.87,1.262 1.79,2.813 0.44,0.73 0.44,0.793 0.88,1.609 1.79,3.516 0.44,0.942 0.44,0.964 0.87,1.961 1.79,4.223 0.44,1.082 0.44,1.145 0.91,2.312 0.44,1.172 1.32,3.691"
         style="fill:none;stroke:#da1259;stroke-width:10;stroke-linecap:butt;stroke-linejoin:miter;stroke-miterlimit:3.25;stroke-dasharray:none;stroke-opacity:1"
         transform="matrix(0.13333333,0,0,-0.13333333,0,105.8)" />
      <path
         id="path12"
         d="m 4.02344,2.5 v 791.047 m 0,-791.047 H 1324.38"
         style="fill:none;stroke:#231f20;stroke-width:5;stroke-linecap:butt;stroke-linejoin:miter;stroke-miterlimit:3.25;stroke-dasharray:none;stroke-opacity:1"
         transform="matrix(0.13333333,0,0,-0.13333333,0,105.8)" />
      <path
         id="path13"
         d="m 1411.45,443.75 h 99.35"
         style="fill:none;stroke:#3871c1;stroke-width:10;stroke-linecap:butt;stroke-linejoin:miter;stroke-miterlimit:3.25;stroke-dasharray:none;stroke-opacity:1"
         transform="matrix(0.13333333,0,0,-0.13333333,0,105.8)" />
      <path
         id="path14"
         d="m 1411.45,323.75 h 99.35"
         style="fill:none;stroke:#da1259;stroke-width:10;stroke-linecap:butt;stroke-linejoin:miter;stroke-miterlimit:3.25;stroke-dasharray:none;stroke-opacity:1"
         transform="matrix(0.13333333,0,0,-0.13333333,0,105.8)" />
    </g>
  </g>
</svg>
