<svg id="Layer_1" data-name="Layer 1" xmlns="http://www.w3.org/2000/svg" viewBox="0 0 289.44 162.3"><defs><style>.cls-1,.cls-2{fill:none;}.cls-1,.cls-2,.cls-3{stroke:#000;stroke-miterlimit:10;}.cls-2{stroke-dasharray:2;}</style></defs><title>Camera measurement equation</title><path class="cls-1" d="M216.5,17.15a163.43,163.43,0,0,0-144,.14"/><path class="cls-1" d="M216.44,17.65A162.45,162.45,0,0,1,144.57,34.3,162.41,162.41,0,0,1,72.41,17.51"/><line class="cls-1" y1="34.59" x2="288.83" y2="34.59"/><line class="cls-2" x1="143.89" y1="34.65" x2="143.89" y2="142.6"/><circle class="cls-3" cx="209.56" cy="142.05" r="2.25"/><circle class="cls-3" cx="115.34" cy="34.61" r="2.25"/><path d="M131.93,120.23l4.38-5.7c.42-.52.82-1,1.26-1.5v0h-5.24v-1.42h7.38l0,1.1-4.32,5.62c-.4.54-.8,1-1.24,1.52v0h5.66v1.4h-7.86Z"/><line class="cls-1" x1="0.61" y1="141.93" x2="289.44" y2="141.93"/><line class="cls-1" x1="209.43" y1="141.92" x2="209.43" y2="92.26"/><path d="M204.89,150.77c0-1.24,0-2.24-.08-3.16h1.58l.08,1.66h0a3.81,3.81,0,0,1,3.44-1.88c2.34,0,4.1,2,4.1,4.92,0,3.49-2.12,5.21-4.4,5.21a3.39,3.39,0,0,1-3-1.52h0v5.26h-1.74Zm1.74,2.59a4,4,0,0,0,.08.72,2.72,2.72,0,0,0,2.64,2.06c1.86,0,2.94-1.52,2.94-3.75,0-1.94-1-3.6-2.88-3.6a2.81,2.81,0,0,0-2.66,2.18,2.93,2.93,0,0,0-.12.72Z"/><path d="M98.62,45.43c0-1.24,0-2.24-.08-3.16h1.58l.08,1.66h0a3.81,3.81,0,0,1,3.44-1.88c2.34,0,4.1,2,4.1,4.92,0,3.48-2.12,5.2-4.4,5.2a3.39,3.39,0,0,1-3-1.52h0v5.26H98.62ZM100.36,48a4,4,0,0,0,.08.72,2.72,2.72,0,0,0,2.64,2.06c1.86,0,2.94-1.52,2.94-3.74,0-1.94-1-3.6-2.88-3.6a2.81,2.81,0,0,0-2.66,2.18,2.85,2.85,0,0,0-.12.72Z"/><path d="M111.56,38.25A23.07,23.07,0,0,1,109.68,43l-1.12.14a28.31,28.31,0,0,0,1.18-4.7Z"/><path d="M195.18,108.64c0-4.08,1.66-7.2,4.68-7.2s4.5,2.9,4.5,7.2c0,4.5-1.46,7.44-4.56,7.44C196.94,116.08,195.18,113.58,195.18,108.64Zm7.44-.76c0-2.84-.92-5.14-2.86-5.14-1.78,0-2.84,2.42-2.84,5.14Zm-5.7,1.32c0,3.56,1.2,5.58,2.92,5.58,1.88,0,2.78-2.32,2.78-5.58Z"/><path d="M121,67.67c0-4.08,1.66-7.2,4.68-7.2s4.5,2.9,4.5,7.2c0,4.5-1.46,7.44-4.56,7.44C122.73,75.11,121,72.61,121,67.67Zm7.44-.76c0-2.84-.92-5.14-2.86-5.14-1.78,0-2.84,2.42-2.84,5.14Zm-5.7,1.32c0,3.56,1.2,5.58,2.92,5.58,1.88,0,2.78-2.32,2.78-5.58Z"/><path d="M134.57,61.19a23.07,23.07,0,0,1-1.88,4.74l-1.12.14a28.31,28.31,0,0,0,1.18-4.7Z"/><polyline class="cls-1" points="209.43 141.92 115.34 34.61 115.34 83.55"/></svg>