<svg id="Layer_1" data-name="Layer 1" xmlns="http://www.w3.org/2000/svg" viewBox="0 0 704.93 336.88"><defs><style>.cls-1,.cls-2,.cls-3{stroke:#000;stroke-miterlimit:10;}.cls-2{fill:#999;opacity:0.5;}.cls-3{fill:none;}</style></defs><title>Camera coordinate spaces</title><circle class="cls-1" cx="65.8" cy="302.63" r="2.25"/><rect class="cls-2" x="186.32" y="188.16" width="106" height="75"/><line class="cls-3" x1="65.8" y1="302.2" x2="382.21" y2="0.36"/><line class="cls-3" x1="64.76" y1="302.76" x2="595.18" y2="211.41"/><line class="cls-3" x1="64.77" y1="302.37" x2="579.53" y2="135.55"/><line class="cls-3" x1="65.15" y1="301.61" x2="582.33" y2="41.68"/><rect class="cls-3" x="314.33" y="65.6" width="220.16" height="155.77"/><circle class="cls-1" cx="291.7" cy="188.55" r="2.25"/><circle class="cls-1" cx="186.5" cy="188.26" r="2.25"/><circle class="cls-1" cx="185.93" cy="262.68" r="2.25"/><circle class="cls-1" cx="292.13" cy="263.81" r="2.25"/><circle class="cls-1" cx="314.19" cy="221.28" r="2.25"/><circle class="cls-1" cx="534.31" cy="221.59" r="2.25"/><circle class="cls-1" cx="534.38" cy="65.66" r="2.25"/><circle class="cls-1" cx="314.02" cy="65.55" r="2.25"/><path d="M10.94,321.92a8.64,8.64,0,0,1-3.56.64c-3.8,0-6.66-2.4-6.66-6.82a6.71,6.71,0,0,1,7-7.08,7.23,7.23,0,0,1,3.2.6l-.42,1.42a6.34,6.34,0,0,0-2.72-.56c-3.16,0-5.26,2-5.26,5.56,0,3.3,1.9,5.42,5.18,5.42a7,7,0,0,0,2.84-.56Z"/><path d="M18.28,322.36l-.14-1.22h-.06a3.61,3.61,0,0,1-3,1.44,2.76,2.76,0,0,1-3-2.78c0-2.34,2.08-3.62,5.82-3.6V316a2,2,0,0,0-2.2-2.24,4.82,4.82,0,0,0-2.52.72l-.4-1.16a6,6,0,0,1,3.18-.86c3,0,3.68,2,3.68,4V320a13.63,13.63,0,0,0,.16,2.32ZM18,317.42c-1.92,0-4.1.3-4.1,2.18a1.56,1.56,0,0,0,1.66,1.68,2.41,2.41,0,0,0,2.34-1.62,1.84,1.84,0,0,0,.1-.56Z"/><path d="M22.56,315.3c0-1,0-1.82-.08-2.62H24l.08,1.56h.06a3.34,3.34,0,0,1,3-1.78,2.86,2.86,0,0,1,2.74,1.94h0a4,4,0,0,1,1.08-1.26,3.3,3.3,0,0,1,2.14-.68c1.28,0,3.18.84,3.18,4.2v5.7H34.66v-5.48c0-1.86-.68-3-2.1-3a2.28,2.28,0,0,0-2.08,1.6,2.9,2.9,0,0,0-.14.88v6H28.62v-5.8c0-1.54-.68-2.66-2-2.66a2.62,2.62,0,0,0-2.32,2.62v5.84H22.56Z"/><path d="M40.22,317.84a3.1,3.1,0,0,0,3.32,3.36,6.36,6.36,0,0,0,2.68-.5l.3,1.26a7.84,7.84,0,0,1-3.22.6c-3,0-4.76-2-4.76-4.88s1.72-5.22,4.54-5.22c3.16,0,4,2.78,4,4.56a6.64,6.64,0,0,1-.06.82Zm5.16-1.26c0-1.12-.46-2.86-2.44-2.86-1.78,0-2.56,1.64-2.7,2.86Z"/><path d="M49.26,315.7c0-1.14,0-2.12-.08-3h1.54l.06,1.9h.08a2.9,2.9,0,0,1,2.68-2.12,1.9,1.9,0,0,1,.5.06v1.66a2.64,2.64,0,0,0-.6-.06,2.47,2.47,0,0,0-2.36,2.26,5,5,0,0,0-.08.82v5.16H49.26Z"/><path d="M61.06,322.36l-.14-1.22h-.06a3.61,3.61,0,0,1-3,1.44,2.76,2.76,0,0,1-3-2.78c0-2.34,2.08-3.62,5.82-3.6V316a2,2,0,0,0-2.2-2.24,4.82,4.82,0,0,0-2.52.72l-.4-1.16a6,6,0,0,1,3.18-.86c3,0,3.68,2,3.68,4V320a13.63,13.63,0,0,0,.16,2.32Zm-.26-4.94c-1.92,0-4.1.3-4.1,2.18a1.56,1.56,0,0,0,1.66,1.68,2.41,2.41,0,0,0,2.34-1.62,1.84,1.84,0,0,0,.1-.56Z"/><path d="M69.34,320.56a4.61,4.61,0,0,0,2.32.7c1.28,0,1.88-.64,1.88-1.44s-.5-1.3-1.8-1.78c-1.74-.62-2.56-1.58-2.56-2.74,0-1.56,1.26-2.84,3.34-2.84a4.83,4.83,0,0,1,2.38.6l-.44,1.28a3.77,3.77,0,0,0-2-.56c-1,0-1.62.6-1.62,1.32s.58,1.16,1.84,1.64c1.68.64,2.54,1.48,2.54,2.92,0,1.7-1.32,2.9-3.62,2.9a5.52,5.52,0,0,1-2.72-.66Z"/><path d="M77.5,315.84c0-1.24,0-2.24-.08-3.16H79l.08,1.66h0a3.81,3.81,0,0,1,3.44-1.88c2.34,0,4.1,2,4.1,4.92,0,3.48-2.12,5.2-4.4,5.2a3.39,3.39,0,0,1-3-1.52h0v5.26H77.5Zm1.74,2.58a4,4,0,0,0,.08.72A2.72,2.72,0,0,0,82,321.2c1.86,0,2.94-1.52,2.94-3.74,0-1.94-1-3.6-2.88-3.6A2.81,2.81,0,0,0,79.36,316a2.85,2.85,0,0,0-.12.72Z"/><path d="M94.24,322.36l-.14-1.22H94a3.61,3.61,0,0,1-3,1.44,2.76,2.76,0,0,1-3-2.78c0-2.34,2.08-3.62,5.82-3.6V316a2,2,0,0,0-2.2-2.24,4.82,4.82,0,0,0-2.52.72l-.4-1.16a6,6,0,0,1,3.18-.86c3,0,3.68,2,3.68,4V320a13.63,13.63,0,0,0,.16,2.32ZM94,317.42c-1.92,0-4.1.3-4.1,2.18a1.56,1.56,0,0,0,1.66,1.68,2.41,2.41,0,0,0,2.34-1.62,1.84,1.84,0,0,0,.1-.56Z"/><path d="M105.42,322a6.48,6.48,0,0,1-2.78.56,4.6,4.6,0,0,1-4.82-4.94,4.92,4.92,0,0,1,5.2-5.14,5.88,5.88,0,0,1,2.44.5l-.4,1.36a4.08,4.08,0,0,0-2-.46,3.65,3.65,0,0,0-.06,7.28,5,5,0,0,0,2.16-.48Z"/><path d="M108.34,317.84a3.1,3.1,0,0,0,3.32,3.36,6.36,6.36,0,0,0,2.68-.5l.3,1.26a7.84,7.84,0,0,1-3.22.6c-3,0-4.76-2-4.76-4.88s1.72-5.22,4.54-5.22c3.16,0,4,2.78,4,4.56a6.64,6.64,0,0,1-.06.82Zm5.16-1.26c0-1.12-.46-2.86-2.44-2.86-1.78,0-2.56,1.64-2.7,2.86Z"/><path d="M117,314.28a1.19,1.19,0,1,1,2.38,0,1.19,1.19,0,1,1-2.38,0Zm0,7.06a1.19,1.19,0,1,1,2.38,0,1.19,1.19,0,1,1-2.38,0Z"/><path d="M129.58,308.48a13.19,13.19,0,0,0-2.52,8.18,13.48,13.48,0,0,0,2.52,8.12H128.2a12.93,12.93,0,0,1-2.62-8.12,13.2,13.2,0,0,1,2.62-8.18Z"/><path d="M139.52,315.72c0,4.42-1.64,6.86-4.52,6.86-2.54,0-4.26-2.38-4.3-6.68s1.88-6.76,4.52-6.76S139.52,311.58,139.52,315.72Zm-7.06.2c0,3.38,1,5.3,2.64,5.3,1.8,0,2.66-2.1,2.66-5.42s-.82-5.3-2.64-5.3C133.58,310.5,132.46,312.38,132.46,315.92Z"/><path d="M140.56,324.82a28.78,28.78,0,0,0,1.2-4.78l2-.2a24.38,24.38,0,0,1-1.9,4.86Z"/><path d="M158.16,315.72c0,4.42-1.64,6.86-4.52,6.86-2.54,0-4.26-2.38-4.3-6.68s1.88-6.76,4.52-6.76S158.16,311.58,158.16,315.72Zm-7.06.2c0,3.38,1,5.3,2.64,5.3,1.8,0,2.66-2.1,2.66-5.42s-.82-5.3-2.64-5.3C152.22,310.5,151.1,312.38,151.1,315.92Z"/><path d="M159.2,324.82a28.78,28.78,0,0,0,1.2-4.78l2-.2a24.38,24.38,0,0,1-1.9,4.86Z"/><path d="M176.8,315.72c0,4.42-1.64,6.86-4.52,6.86-2.54,0-4.26-2.38-4.3-6.68s1.88-6.76,4.52-6.76S176.8,311.58,176.8,315.72Zm-7.06.2c0,3.38,1,5.3,2.64,5.3,1.8,0,2.66-2.1,2.66-5.42s-.82-5.3-2.64-5.3C170.86,310.5,169.74,312.38,169.74,315.92Z"/><path d="M177.92,324.78a13.54,13.54,0,0,0,2.52-8.18,13.26,13.26,0,0,0-2.52-8.12h1.36a12.74,12.74,0,0,1,2.62,8.14,13,13,0,0,1-2.62,8.16Z"/><path d="M76.49,183.53V170.05h1.9l4.32,6.82a38.16,38.16,0,0,1,2.42,4.38l0,0c-.16-1.8-.2-3.44-.2-5.54v-5.64h1.64v13.48H84.85l-4.28-6.84a42.79,42.79,0,0,1-2.52-4.5l-.06,0c.1,1.7.14,3.32.14,5.56v5.76Z"/><path d="M89.65,170.23a24.92,24.92,0,0,1,3.7-.28c2.5,0,4.28.58,5.46,1.68a6.21,6.21,0,0,1,1.9,4.84,7.13,7.13,0,0,1-1.94,5.24c-1.26,1.26-3.34,1.94-6,1.94a28.08,28.08,0,0,1-3.16-.16Zm1.74,11.92a11,11,0,0,0,1.76.1c3.72,0,5.74-2.08,5.74-5.72,0-3.18-1.78-5.2-5.46-5.2a9.89,9.89,0,0,0-2,.18Z"/><path d="M112.39,183.09a8.64,8.64,0,0,1-3.56.64c-3.8,0-6.66-2.4-6.66-6.82a6.71,6.71,0,0,1,7-7.08,7.23,7.23,0,0,1,3.2.6l-.42,1.42a6.34,6.34,0,0,0-2.72-.56c-3.16,0-5.26,2-5.26,5.56,0,3.3,1.9,5.42,5.18,5.42a7,7,0,0,0,2.84-.56Z"/><path d="M114.09,175.45a1.19,1.19,0,1,1,2.38,0,1.19,1.19,0,1,1-2.38,0Zm0,7.06a1.19,1.19,0,1,1,2.38,0,1.19,1.19,0,1,1-2.38,0Z"/><path d="M126.71,169.65a13.19,13.19,0,0,0-2.52,8.18,13.48,13.48,0,0,0,2.52,8.12h-1.38a12.93,12.93,0,0,1-2.62-8.12,13.2,13.2,0,0,1,2.62-8.18Z"/><path d="M136.65,176.89c0,4.42-1.64,6.86-4.52,6.86-2.54,0-4.26-2.38-4.3-6.68s1.88-6.76,4.52-6.76S136.65,172.75,136.65,176.89Zm-7.06.2c0,3.38,1,5.3,2.64,5.3,1.8,0,2.66-2.1,2.66-5.42s-.82-5.3-2.64-5.3C130.71,171.67,129.59,173.55,129.59,177.09Z"/><path d="M137.69,186a28.78,28.78,0,0,0,1.2-4.78l2-.2a24.38,24.38,0,0,1-1.9,4.86Z"/><path d="M155.29,176.89c0,4.42-1.64,6.86-4.52,6.86-2.54,0-4.26-2.38-4.3-6.68s1.88-6.76,4.52-6.76S155.29,172.75,155.29,176.89Zm-7.06.2c0,3.38,1,5.3,2.64,5.3,1.8,0,2.66-2.1,2.66-5.42s-.82-5.3-2.64-5.3C149.35,171.67,148.23,173.55,148.23,177.09Z"/><path d="M156.33,186a30.9,30.9,0,0,0,1.2-4.78l2-.2a23.75,23.75,0,0,1-1.91,4.86Z"/><path d="M173.93,176.89c0,4.42-1.64,6.86-4.52,6.86-2.54,0-4.27-2.38-4.31-6.68s1.89-6.76,4.53-6.76S173.93,172.75,173.93,176.89Zm-7.06.2c0,3.38,1,5.3,2.64,5.3,1.8,0,2.66-2.1,2.66-5.42s-.82-5.3-2.64-5.3C168,171.67,166.87,173.55,166.87,177.09Z"/><path d="M175,186a13.54,13.54,0,0,0,2.53-8.18,13.2,13.2,0,0,0-2.53-8.12h1.37a12.74,12.74,0,0,1,2.62,8.14,13,13,0,0,1-2.62,8.16Z"/><path d="M207,54.22V40.74h1.9l4.32,6.82a38.16,38.16,0,0,1,2.42,4.38l0,0c-.16-1.8-.2-3.44-.2-5.54V40.74h1.64V54.22h-1.76l-4.28-6.84a42.79,42.79,0,0,1-2.52-4.5l-.06,0c.1,1.7.14,3.32.14,5.56v5.76Z"/><path d="M220.15,40.92a24.92,24.92,0,0,1,3.7-.28c2.5,0,4.28.58,5.46,1.68a6.21,6.21,0,0,1,1.9,4.84,7.13,7.13,0,0,1-1.94,5.24c-1.26,1.26-3.34,1.94-6,1.94a28.08,28.08,0,0,1-3.16-.16Zm1.74,11.92a11,11,0,0,0,1.76.1c3.72,0,5.74-2.08,5.74-5.72,0-3.18-1.78-5.2-5.46-5.2a9.89,9.89,0,0,0-2,.18Z"/><path d="M242.89,53.78a8.64,8.64,0,0,1-3.56.64c-3.8,0-6.66-2.4-6.66-6.82a6.71,6.71,0,0,1,7-7.08,7.23,7.23,0,0,1,3.2.6l-.42,1.42a6.34,6.34,0,0,0-2.72-.56c-3.16,0-5.26,2-5.26,5.56,0,3.3,1.9,5.42,5.18,5.42a7,7,0,0,0,2.84-.56Z"/><path d="M244.59,46.14a1.19,1.19,0,1,1,2.38,0,1.19,1.19,0,1,1-2.38,0Zm0,7.06a1.19,1.19,0,1,1,2.38,0,1.19,1.19,0,1,1-2.38,0Z"/><path d="M257.21,40.34a13.19,13.19,0,0,0-2.52,8.18,13.48,13.48,0,0,0,2.52,8.12h-1.38a12.93,12.93,0,0,1-2.62-8.12,13.2,13.2,0,0,1,2.62-8.18Z"/><path d="M267.15,47.58c0,4.42-1.64,6.86-4.52,6.86-2.54,0-4.26-2.38-4.3-6.68S260.21,41,262.85,41,267.15,43.44,267.15,47.58Zm-7.06.2c0,3.38,1,5.3,2.64,5.3,1.8,0,2.66-2.1,2.66-5.42s-.82-5.3-2.64-5.3C261.21,42.36,260.09,44.24,260.09,47.78Z"/><path d="M268.19,56.68a29.8,29.8,0,0,0,1.2-4.78l2-.2a24.38,24.38,0,0,1-1.9,4.86Z"/><path d="M285.79,47.58c0,4.42-1.64,6.86-4.52,6.86-2.54,0-4.27-2.38-4.31-6.68S278.85,41,281.49,41,285.79,43.44,285.79,47.58Zm-7.06.2c0,3.38,1,5.3,2.64,5.3,1.8,0,2.66-2.1,2.66-5.42s-.82-5.3-2.64-5.3C279.85,42.36,278.73,44.24,278.73,47.78Z"/><path d="M286.83,56.68A30.9,30.9,0,0,0,288,51.9l2-.2a23.75,23.75,0,0,1-1.91,4.86Z"/><path d="M299.6,42.86h0l-2.26,1.22L297,42.74l2.84-1.52h1.5v13h-1.7Z"/><path d="M305.54,56.64a13.54,13.54,0,0,0,2.52-8.18,13.26,13.26,0,0,0-2.52-8.12h1.36a12.74,12.74,0,0,1,2.62,8.14,13,13,0,0,1-2.62,8.16Z"/><path d="M299.44,282.86l4.38-5.7c.42-.52.82-1,1.26-1.5v0h-5.24V274.2h7.38l0,1.1-4.32,5.62c-.4.54-.8,1-1.24,1.52v0h5.66v1.4h-7.86Z"/><path d="M308.44,277.14v-1.2h10.32v1.2Zm0,3.92v-1.2h10.32v1.2Z"/><path d="M321,276.82c0-1,0-1.82-.08-2.62h1.56l.1,1.6h0a3.56,3.56,0,0,1,3.2-1.82c1.34,0,3.42.8,3.42,4.12v5.78H327.5V278.3c0-1.56-.58-2.86-2.24-2.86a2.5,2.5,0,0,0-2.36,1.8,2.53,2.53,0,0,0-.12.82v5.82H321Z"/><path d="M333.1,279.36a3.1,3.1,0,0,0,3.32,3.36,6.36,6.36,0,0,0,2.68-.5l.3,1.26a7.84,7.84,0,0,1-3.22.6c-3,0-4.76-2-4.76-4.88S333.14,274,336,274c3.16,0,4,2.78,4,4.56a6.64,6.64,0,0,1-.06.82Zm5.16-1.26c0-1.12-.46-2.86-2.44-2.86-1.78,0-2.56,1.64-2.7,2.86Z"/><path d="M347.5,283.88l-.14-1.22h-.06a3.61,3.61,0,0,1-3,1.44,2.76,2.76,0,0,1-3-2.78c0-2.34,2.08-3.62,5.82-3.6v-.2a2,2,0,0,0-2.2-2.24,4.82,4.82,0,0,0-2.52.72l-.4-1.16a6,6,0,0,1,3.18-.86c3,0,3.68,2,3.68,4v3.62a13.63,13.63,0,0,0,.16,2.32Zm-.26-4.94c-1.92,0-4.1.3-4.1,2.18a1.56,1.56,0,0,0,1.66,1.68,2.41,2.41,0,0,0,2.34-1.62,1.84,1.84,0,0,0,.1-.56Z"/><path d="M351.78,277.22c0-1.14,0-2.12-.08-3h1.54l.06,1.9h.08a2.9,2.9,0,0,1,2.68-2.12,1.9,1.9,0,0,1,.5.06v1.66a2.64,2.64,0,0,0-.6-.06,2.47,2.47,0,0,0-2.36,2.26,5,5,0,0,0-.08.82v5.16h-1.74Z"/><path d="M300.6,307.88V294.4h1.9l4.32,6.82a38.16,38.16,0,0,1,2.42,4.38l0,0c-.16-1.8-.2-3.44-.2-5.54V294.4h1.64v13.48H309L304.68,301a42.79,42.79,0,0,1-2.52-4.5l-.06,0c.1,1.7.14,3.32.14,5.56v5.76Z"/><path d="M313.76,294.58a24.92,24.92,0,0,1,3.7-.28c2.5,0,4.28.58,5.46,1.68a6.21,6.21,0,0,1,1.9,4.84,7.13,7.13,0,0,1-1.94,5.24c-1.26,1.26-3.34,1.94-6,1.94a28.08,28.08,0,0,1-3.16-.16Zm1.74,11.92a11,11,0,0,0,1.76.1c3.72,0,5.74-2.08,5.74-5.72,0-3.18-1.78-5.2-5.46-5.2a9.89,9.89,0,0,0-2,.18Z"/><path d="M336.5,307.44a8.64,8.64,0,0,1-3.56.64c-3.8,0-6.66-2.4-6.66-6.82a6.71,6.71,0,0,1,7-7.08,7.23,7.23,0,0,1,3.2.6l-.42,1.42a6.34,6.34,0,0,0-2.72-.56c-3.16,0-5.26,2-5.26,5.56,0,3.3,1.9,5.42,5.18,5.42a7,7,0,0,0,2.84-.56Z"/><path d="M338.2,299.8a1.19,1.19,0,1,1,2.38,0,1.19,1.19,0,1,1-2.38,0Zm0,7.06a1.19,1.19,0,1,1,2.38,0,1.19,1.19,0,1,1-2.38,0Z"/><path d="M350.82,294a13.19,13.19,0,0,0-2.52,8.18,13.53,13.53,0,0,0,2.52,8.13h-1.38a13,13,0,0,1-2.62-8.13,13.14,13.14,0,0,1,2.62-8.18Z"/><path d="M355.94,296.52h0l-2.26,1.22-.35-1.34,2.85-1.52h1.5v13h-1.7Z"/><path d="M361.79,310.35a29.91,29.91,0,0,0,1.21-4.79l2-.2a23.86,23.86,0,0,1-1.91,4.87Z"/><path d="M374.58,296.52h0l-2.26,1.22-.35-1.34,2.85-1.52h1.5v13h-1.7Z"/><path d="M380.43,310.35a28.9,28.9,0,0,0,1.2-4.79l2-.2a24.5,24.5,0,0,1-1.9,4.87Z"/><path d="M398,301.24c0,4.42-1.65,6.86-4.53,6.86-2.54,0-4.26-2.38-4.3-6.68s1.88-6.76,4.52-6.76S398,297.1,398,301.24Zm-7.07.2c0,3.38,1,5.3,2.64,5.3,1.81,0,2.66-2.1,2.66-5.42s-.81-5.3-2.64-5.3C392.09,296,391,297.9,391,301.44Z"/><path d="M399.15,310.31a13.57,13.57,0,0,0,2.52-8.19,13.26,13.26,0,0,0-2.52-8.12h1.36a12.74,12.74,0,0,1,2.62,8.14,13,13,0,0,1-2.62,8.17Z"/><path d="M300.6,318.58a18.12,18.12,0,0,1,3.34-.28,5.51,5.51,0,0,1,3.9,1.1A3.36,3.36,0,0,1,308.9,322a3.54,3.54,0,0,1-2.54,3.44v.06a3.36,3.36,0,0,1,2,2.72,21.45,21.45,0,0,0,1,3.7h-1.8a17.46,17.46,0,0,1-.9-3.22c-.4-1.86-1.12-2.56-2.7-2.62h-1.64v5.84H300.6Zm1.74,6.14h1.78c1.86,0,3-1,3-2.56,0-1.74-1.26-2.5-3.1-2.52a7.16,7.16,0,0,0-1.72.16Z"/><path d="M316.9,331.88l-.14-1.22h-.06a3.61,3.61,0,0,1-3,1.44,2.76,2.76,0,0,1-3-2.78c0-2.34,2.08-3.62,5.82-3.6v-.2a2,2,0,0,0-2.2-2.24,4.82,4.82,0,0,0-2.52.72l-.4-1.16a6,6,0,0,1,3.18-.86c3,0,3.68,2,3.68,4v3.62a13.63,13.63,0,0,0,.16,2.32Zm-.26-4.94c-1.92,0-4.1.3-4.1,2.18a1.56,1.56,0,0,0,1.66,1.68,2.41,2.41,0,0,0,2.34-1.62,1.84,1.84,0,0,0,.1-.56Z"/><path d="M320.94,330.08a4.61,4.61,0,0,0,2.32.7c1.28,0,1.88-.64,1.88-1.44s-.5-1.3-1.8-1.78c-1.74-.62-2.56-1.58-2.56-2.74,0-1.56,1.26-2.84,3.34-2.84a4.83,4.83,0,0,1,2.38.6l-.44,1.28a3.77,3.77,0,0,0-2-.56c-1,0-1.62.6-1.62,1.32s.58,1.16,1.84,1.64c1.68.64,2.54,1.48,2.54,2.92,0,1.7-1.32,2.9-3.62,2.9a5.41,5.41,0,0,1-2.72-.66Z"/><path d="M331.22,319.42v2.78h2.52v1.34h-2.52v5.22c0,1.2.34,1.88,1.32,1.88a3.92,3.92,0,0,0,1-.12l.08,1.32a4.31,4.31,0,0,1-1.56.24,2.41,2.41,0,0,1-1.9-.74,3.59,3.59,0,0,1-.68-2.52v-5.28H328V322.2h1.5v-2.32Z"/><path d="M336.58,327.36a3.1,3.1,0,0,0,3.32,3.36,6.36,6.36,0,0,0,2.68-.5l.3,1.26a7.84,7.84,0,0,1-3.22.6c-3,0-4.76-2-4.76-4.88s1.72-5.22,4.54-5.22c3.16,0,4,2.78,4,4.56a6.64,6.64,0,0,1-.06.82Zm5.16-1.26c0-1.12-.46-2.86-2.44-2.86-1.78,0-2.56,1.64-2.7,2.86Z"/><path d="M345.62,325.22c0-1.14,0-2.12-.08-3h1.54l.06,1.9h.08A2.9,2.9,0,0,1,349.9,322a1.9,1.9,0,0,1,.5.06v1.66a2.64,2.64,0,0,0-.6-.06,2.47,2.47,0,0,0-2.36,2.26,5,5,0,0,0-.08.82v5.16h-1.74Z"/><path d="M356,318a13.19,13.19,0,0,0-2.52,8.18,13.53,13.53,0,0,0,2.52,8.13H354.6a13,13,0,0,1-2.62-8.13A13.2,13.2,0,0,1,354.6,318Z"/><path d="M357.83,325.22c0-1.14,0-2.12-.08-3h1.55l.06,1.9h.08a2.9,2.9,0,0,1,2.68-2.12,1.9,1.9,0,0,1,.5.06v1.66a2.64,2.64,0,0,0-.6-.06,2.47,2.47,0,0,0-2.36,2.26,5,5,0,0,0-.08.82v5.16h-1.75Z"/><path d="M365.16,327.36a3.1,3.1,0,0,0,3.32,3.36,6.36,6.36,0,0,0,2.68-.5l.3,1.26a7.84,7.84,0,0,1-3.22.6c-3,0-4.76-2-4.76-4.88S365.2,322,368,322c3.16,0,4,2.78,4,4.56a6.64,6.64,0,0,1-.06.82Zm5.16-1.26c0-1.12-.46-2.86-2.44-2.86-1.78,0-2.56,1.64-2.7,2.86Z"/><path d="M374,330.08a4.61,4.61,0,0,0,2.32.7c1.28,0,1.88-.64,1.88-1.44s-.5-1.3-1.8-1.78c-1.74-.62-2.56-1.58-2.56-2.74,0-1.56,1.26-2.84,3.34-2.84a4.83,4.83,0,0,1,2.38.6l-.44,1.28a3.77,3.77,0,0,0-2-.56c-1,0-1.62.6-1.62,1.32s.58,1.16,1.84,1.64c1.68.64,2.54,1.48,2.54,2.92,0,1.7-1.32,2.9-3.62,2.9a5.41,5.41,0,0,1-2.72-.66Z"/><path d="M381.48,330.84a1.18,1.18,0,0,1,1.2-1.26,1.26,1.26,0,1,1-1.2,1.26Z"/><path d="M386.86,322.2l1.38,2.08c.36.54.66,1,1,1.58h.06c.32-.58.64-1.08,1-1.6l1.36-2.06h1.9l-3.3,4.68,3.4,5h-2l-1.42-2.18c-.38-.56-.7-1.1-1-1.68h0c-.32.58-.66,1.1-1,1.68l-1.4,2.18h-1.94l3.44-4.94-3.28-4.74Z"/><path d="M394.16,334.35a31,31,0,0,0,1.2-4.79l2-.2a24.5,24.5,0,0,1-1.9,4.87Z"/><path d="M403.67,325.22c0-1.14,0-2.12-.08-3h1.55l.06,1.9h.08A2.9,2.9,0,0,1,408,322a1.9,1.9,0,0,1,.5.06v1.66a2.64,2.64,0,0,0-.6-.06,2.47,2.47,0,0,0-2.36,2.26,5,5,0,0,0-.08.82v5.16h-1.75Z"/><path d="M411,327.36a3.1,3.1,0,0,0,3.32,3.36,6.36,6.36,0,0,0,2.68-.5l.3,1.26a7.84,7.84,0,0,1-3.22.6,4.5,4.5,0,0,1-4.77-4.88c0-2.92,1.73-5.22,4.55-5.22,3.16,0,4,2.78,4,4.56a6.64,6.64,0,0,1-.06.82Zm5.16-1.26c0-1.12-.46-2.86-2.44-2.86-1.78,0-2.56,1.64-2.7,2.86Z"/><path d="M419.79,330.08a4.62,4.62,0,0,0,2.33.7c1.28,0,1.88-.64,1.88-1.44s-.5-1.3-1.8-1.78c-1.74-.62-2.57-1.58-2.57-2.74,0-1.56,1.26-2.84,3.35-2.84a4.83,4.83,0,0,1,2.38.6l-.44,1.28a3.8,3.8,0,0,0-2-.56c-1.05,0-1.63.6-1.63,1.32s.58,1.16,1.85,1.64c1.68.64,2.54,1.48,2.54,2.92,0,1.7-1.32,2.9-3.62,2.9a5.43,5.43,0,0,1-2.73-.66Z"/><path d="M427.31,330.84a1.2,1.2,0,1,1,1.19,1.26A1.18,1.18,0,0,1,427.31,330.84Z"/><path d="M432.51,322.2l2.12,5.72c.23.64.46,1.4.62,2h0c.19-.58.38-1.32.63-2l1.92-5.68h1.86l-2.64,6.9c-1.27,3.32-2.13,5-3.33,6.07a4.72,4.72,0,0,1-2.16,1.14l-.44-1.48a4.53,4.53,0,0,0,1.54-.87,5.37,5.37,0,0,0,1.49-2,1.14,1.14,0,0,0,.13-.42,1.43,1.43,0,0,0-.12-.45l-3.58-8.93Z"/><path d="M439.38,334.35a31,31,0,0,0,1.2-4.79l2-.2a23.86,23.86,0,0,1-1.91,4.87Z"/><path d="M457,325.24c0,4.42-1.65,6.86-4.52,6.86-2.55,0-4.27-2.38-4.31-6.68s1.88-6.76,4.52-6.76S457,321.1,457,325.24Zm-7.07.2c0,3.38,1,5.3,2.64,5.3,1.81,0,2.66-2.1,2.66-5.42s-.81-5.3-2.64-5.3C451,320,449.91,321.9,449.91,325.44Z"/><path d="M458.09,334.31a13.57,13.57,0,0,0,2.52-8.19,13.26,13.26,0,0,0-2.52-8.12h1.36a12.74,12.74,0,0,1,2.62,8.14,13,13,0,0,1-2.62,8.17Z"/><path d="M541,239.63l4.38-5.7c.42-.52.82-1,1.26-1.5v0H541.4V231h7.38l0,1.1-4.32,5.62c-.4.54-.8,1-1.24,1.52v0h5.66v1.4H541Z"/><path d="M550,233.91v-1.2h10.32v1.2Zm0,3.92v-1.2h10.32v1.2Z"/><path d="M562.76,240.65v-8.34H561.4V231h1.36v-.46a4.56,4.56,0,0,1,1.12-3.38,3.37,3.37,0,0,1,2.36-.9,4.08,4.08,0,0,1,1.5.28l-.24,1.36a2.63,2.63,0,0,0-1.12-.22c-1.5,0-1.88,1.32-1.88,2.8V231h2.34v1.34H564.5v8.34Z"/><path d="M573.78,240.65l-.14-1.22h-.06a3.61,3.61,0,0,1-3,1.44,2.76,2.76,0,0,1-3-2.78c0-2.34,2.08-3.62,5.82-3.6v-.2a2,2,0,0,0-2.2-2.24,4.82,4.82,0,0,0-2.52.72l-.4-1.16a6,6,0,0,1,3.18-.86c3,0,3.68,2,3.68,4v3.62a13.63,13.63,0,0,0,.16,2.32Zm-.26-4.94c-1.92,0-4.1.3-4.1,2.18a1.56,1.56,0,0,0,1.66,1.68,2.41,2.41,0,0,0,2.34-1.62,1.84,1.84,0,0,0,.1-.56Z"/><path d="M578.06,234c0-1.14,0-2.12-.08-3h1.54l.06,1.9h.08a2.9,2.9,0,0,1,2.68-2.12,1.9,1.9,0,0,1,.5.06v1.66a2.64,2.64,0,0,0-.6-.06,2.47,2.47,0,0,0-2.36,2.26,5,5,0,0,0-.08.82v5.16h-1.74Z"/><path d="M542.16,264.65V251.17h1.9l4.32,6.82a38.16,38.16,0,0,1,2.42,4.38l0,0c-.16-1.8-.2-3.44-.2-5.54v-5.64h1.64v13.48h-1.76l-4.28-6.84a42.79,42.79,0,0,1-2.52-4.5l-.06,0c.1,1.7.14,3.32.14,5.56v5.76Z"/><path d="M555.32,251.35a24.92,24.92,0,0,1,3.7-.28c2.5,0,4.28.58,5.46,1.68a6.21,6.21,0,0,1,1.9,4.84,7.13,7.13,0,0,1-1.94,5.24c-1.26,1.26-3.34,1.94-6,1.94a28.08,28.08,0,0,1-3.16-.16Zm1.74,11.92a11,11,0,0,0,1.76.1c3.72,0,5.74-2.08,5.74-5.72,0-3.18-1.78-5.2-5.46-5.2a9.89,9.89,0,0,0-2,.18Z"/><path d="M578.06,264.21a8.64,8.64,0,0,1-3.56.64c-3.8,0-6.66-2.4-6.66-6.82a6.71,6.71,0,0,1,7-7.08,7.23,7.23,0,0,1,3.2.6l-.42,1.42a6.34,6.34,0,0,0-2.72-.56c-3.16,0-5.26,2-5.26,5.56,0,3.3,1.9,5.42,5.18,5.42a7,7,0,0,0,2.84-.56Z"/><path d="M579.76,256.57a1.19,1.19,0,1,1,2.38,0,1.19,1.19,0,1,1-2.38,0Zm0,7.06a1.19,1.19,0,1,1,2.38,0,1.19,1.19,0,1,1-2.38,0Z"/><path d="M592.38,250.77a13.19,13.19,0,0,0-2.52,8.18,13.48,13.48,0,0,0,2.52,8.12H591a12.93,12.93,0,0,1-2.62-8.12,13.2,13.2,0,0,1,2.62-8.18Z"/><path d="M597.5,253.29h0l-2.26,1.22-.34-1.34,2.84-1.52h1.5v13h-1.7Z"/><path d="M603.36,267.11a30.9,30.9,0,0,0,1.2-4.78l2-.2a24.38,24.38,0,0,1-1.9,4.86Z"/><path d="M616.14,253.29h0l-2.26,1.22-.34-1.34,2.84-1.52h1.5v13h-1.7Z"/><path d="M622,267.11a28.78,28.78,0,0,0,1.2-4.78l2-.2a24.38,24.38,0,0,1-1.9,4.86Z"/><path d="M634.77,253.29h0l-2.26,1.22-.34-1.34,2.84-1.52h1.5v13h-1.7Z"/><path d="M640.71,267.07a13.54,13.54,0,0,0,2.52-8.18,13.26,13.26,0,0,0-2.52-8.12h1.36a12.74,12.74,0,0,1,2.62,8.14,13,13,0,0,1-2.62,8.16Z"/><path d="M542.16,275.35a18.12,18.12,0,0,1,3.34-.28,5.51,5.51,0,0,1,3.9,1.1,3.36,3.36,0,0,1,1.06,2.56,3.54,3.54,0,0,1-2.54,3.44v.06a3.36,3.36,0,0,1,2,2.72,21.45,21.45,0,0,0,1,3.7h-1.8a17.46,17.46,0,0,1-.9-3.22c-.4-1.86-1.12-2.56-2.7-2.62H543.9v5.84h-1.74Zm1.74,6.14h1.78c1.86,0,3-1,3-2.56,0-1.74-1.26-2.5-3.1-2.52a7.16,7.16,0,0,0-1.72.16Z"/><path d="M558.46,288.65l-.14-1.22h-.06a3.61,3.61,0,0,1-3,1.44,2.76,2.76,0,0,1-3-2.78c0-2.34,2.08-3.62,5.82-3.6v-.2a2,2,0,0,0-2.2-2.24,4.82,4.82,0,0,0-2.52.72l-.4-1.16a6,6,0,0,1,3.18-.86c3,0,3.68,2,3.68,4v3.62a13.63,13.63,0,0,0,.16,2.32Zm-.26-4.94c-1.92,0-4.1.3-4.1,2.18a1.56,1.56,0,0,0,1.66,1.68A2.41,2.41,0,0,0,558.1,286a1.84,1.84,0,0,0,.1-.56Z"/><path d="M562.5,286.85a4.61,4.61,0,0,0,2.32.7c1.28,0,1.88-.64,1.88-1.44s-.5-1.3-1.8-1.78c-1.74-.62-2.56-1.58-2.56-2.74,0-1.56,1.26-2.84,3.34-2.84a4.83,4.83,0,0,1,2.38.6l-.44,1.28a3.77,3.77,0,0,0-2-.56c-1,0-1.62.6-1.62,1.32s.58,1.16,1.84,1.64c1.68.64,2.54,1.48,2.54,2.92,0,1.7-1.32,2.9-3.62,2.9a5.52,5.52,0,0,1-2.72-.66Z"/><path d="M572.78,276.19V279h2.52v1.34h-2.52v5.22c0,1.2.34,1.88,1.32,1.88a3.92,3.92,0,0,0,1-.12l.08,1.32a4.31,4.31,0,0,1-1.56.24,2.44,2.44,0,0,1-1.9-.74,3.59,3.59,0,0,1-.68-2.52v-5.28h-1.5V279h1.5v-2.32Z"/><path d="M578.14,284.13a3.1,3.1,0,0,0,3.32,3.36,6.36,6.36,0,0,0,2.68-.5l.3,1.26a7.84,7.84,0,0,1-3.22.6c-3,0-4.76-2-4.76-4.88s1.72-5.22,4.54-5.22c3.16,0,4,2.78,4,4.56a6.64,6.64,0,0,1-.06.82Zm5.16-1.26c0-1.12-.46-2.86-2.44-2.86-1.78,0-2.56,1.64-2.7,2.86Z"/><path d="M587.18,282c0-1.14,0-2.12-.08-3h1.54l.06,1.9h.08a2.9,2.9,0,0,1,2.68-2.12,1.9,1.9,0,0,1,.5.06v1.66a2.64,2.64,0,0,0-.6-.06,2.47,2.47,0,0,0-2.36,2.26,5,5,0,0,0-.08.82v5.16h-1.74Z"/><path d="M597.54,274.77A13.19,13.19,0,0,0,595,283a13.48,13.48,0,0,0,2.52,8.12h-1.38a12.93,12.93,0,0,1-2.62-8.12,13.2,13.2,0,0,1,2.62-8.18Z"/><path d="M599.4,282c0-1.14,0-2.12-.08-3h1.54l.06,1.9H601a2.9,2.9,0,0,1,2.68-2.12,1.9,1.9,0,0,1,.5.06v1.66a2.64,2.64,0,0,0-.6-.06,2.47,2.47,0,0,0-2.36,2.26,5,5,0,0,0-.08.82v5.16H599.4Z"/><path d="M606.72,284.13a3.1,3.1,0,0,0,3.32,3.36,6.36,6.36,0,0,0,2.68-.5l.3,1.26a7.84,7.84,0,0,1-3.22.6c-3,0-4.76-2-4.76-4.88s1.72-5.22,4.54-5.22c3.16,0,4,2.78,4,4.56a6.64,6.64,0,0,1-.06.82Zm5.16-1.26c0-1.12-.46-2.86-2.44-2.86-1.78,0-2.56,1.64-2.7,2.86Z"/><path d="M615.52,286.85a4.61,4.61,0,0,0,2.32.7c1.28,0,1.88-.64,1.88-1.44s-.5-1.3-1.8-1.78c-1.74-.62-2.56-1.58-2.56-2.74,0-1.56,1.26-2.84,3.34-2.84a4.83,4.83,0,0,1,2.38.6l-.44,1.28a3.77,3.77,0,0,0-2-.56c-1,0-1.62.6-1.62,1.32s.58,1.16,1.84,1.64c1.68.64,2.54,1.48,2.54,2.92,0,1.7-1.32,2.9-3.62,2.9a5.52,5.52,0,0,1-2.72-.66Z"/><path d="M623,287.61a1.18,1.18,0,0,1,1.2-1.26,1.26,1.26,0,1,1-1.2,1.26Z"/><path d="M628.42,279l1.38,2.08c.36.54.66,1,1,1.58h.06c.32-.58.64-1.08,1-1.6l1.36-2.06h1.9l-3.3,4.68,3.4,5h-2l-1.42-2.18c-.38-.56-.7-1.1-1-1.68h0c-.32.58-.66,1.1-1,1.68l-1.4,2.18H626.3l3.44-4.94L626.46,279Z"/><path d="M635.72,291.11a28.78,28.78,0,0,0,1.2-4.78l2-.2A24.38,24.38,0,0,1,637,291Z"/><path d="M645.24,282c0-1.14,0-2.12-.08-3h1.54l.06,1.9h.08a2.9,2.9,0,0,1,2.68-2.12,1.9,1.9,0,0,1,.5.06v1.66a2.64,2.64,0,0,0-.6-.06,2.47,2.47,0,0,0-2.36,2.26,5,5,0,0,0-.08.82v5.16h-1.74Z"/><path d="M652.56,284.13a3.1,3.1,0,0,0,3.32,3.36,6.36,6.36,0,0,0,2.68-.5l.3,1.26a7.84,7.84,0,0,1-3.22.6c-3,0-4.76-2-4.76-4.88s1.72-5.22,4.54-5.22c3.16,0,4,2.78,4,4.56a6.64,6.64,0,0,1-.06.82Zm5.16-1.26c0-1.12-.46-2.86-2.44-2.86-1.78,0-2.56,1.64-2.7,2.86Z"/><path d="M661.36,286.85a4.58,4.58,0,0,0,2.32.7c1.28,0,1.88-.64,1.88-1.44s-.5-1.3-1.8-1.78c-1.74-.62-2.56-1.58-2.56-2.74,0-1.56,1.26-2.84,3.34-2.84a4.83,4.83,0,0,1,2.38.6l-.44,1.28a3.77,3.77,0,0,0-2-.56c-1,0-1.62.6-1.62,1.32s.58,1.16,1.84,1.64c1.68.64,2.54,1.48,2.54,2.92,0,1.7-1.32,2.9-3.62,2.9a5.49,5.49,0,0,1-2.72-.66Z"/><path d="M668.88,287.61a1.18,1.18,0,0,1,1.2-1.26,1.26,1.26,0,1,1-1.2,1.26Z"/><path d="M674.08,279l2.12,5.72c.22.64.46,1.4.62,2h0c.18-.58.38-1.32.62-2L679.4,279h1.86l-2.64,6.9c-1.26,3.32-2.12,5-3.33,6.06a4.68,4.68,0,0,1-2.16,1.14l-.44-1.48a4.79,4.79,0,0,0,1.55-.86,5.45,5.45,0,0,0,1.48-2,1.26,1.26,0,0,0,.14-.42,1.53,1.53,0,0,0-.12-.46L672.15,279Z"/><path d="M680.94,291.11a28.78,28.78,0,0,0,1.2-4.78l2-.2a24.38,24.38,0,0,1-1.9,4.86Z"/><path d="M693.71,277.29h0l-2.25,1.22-.35-1.34,2.85-1.52h1.5v13h-1.71Z"/><path d="M699.65,291.07a13.54,13.54,0,0,0,2.52-8.18,13.26,13.26,0,0,0-2.52-8.12H701a12.74,12.74,0,0,1,2.62,8.14,13,13,0,0,1-2.62,8.16Z"/></svg>