<svg id="Layer_1" data-name="Layer 1" xmlns="http://www.w3.org/2000/svg" viewBox="0 0 425.76 350.17"><defs><style>.cls-1,.cls-3,.cls-4{fill:none;}.cls-1,.cls-2,.cls-3{stroke:#000;}.cls-1,.cls-2,.cls-3,.cls-4{stroke-miterlimit:10;}.cls-3{stroke-dasharray:2;}.cls-4{stroke:#0071bc;}</style></defs><title>Circle of confusion diameter</title><path class="cls-1" d="M280.69,144.32a163.36,163.36,0,0,0-.14-144"/><path class="cls-1" d="M280.2,144.25a163.36,163.36,0,0,1,.14-144"/><line class="cls-1" x1="405.95" y1="72.65" x2="28.52" y2="72.65"/><circle class="cls-2" cx="406.02" cy="72.31" r="2.25"/><path d="M413.3,77.71l4.38-5.7c.42-.52.82-1,1.26-1.5v0H413.7V69.05h7.38l0,1.1-4.32,5.62c-.4.54-.8,1-1.24,1.52v0h5.66v1.4H413.3Z"/><path d="M425.76,65a23.07,23.07,0,0,1-1.88,4.74l-1.12.14a28.31,28.31,0,0,0,1.18-4.7Z"/><circle class="cls-2" cx="73.83" cy="73.91" r="2.25"/><polyline class="cls-3" points="405.95 72.64 279.91 10.25 110.91 72.72"/><path d="M106.3,89.15l4.38-5.7c.42-.52.82-1,1.26-1.5v0H106.7V80.49h7.38l0,1.1-4.32,5.62c-.4.54-.8,1-1.24,1.52v0h5.66v1.4H106.3Z"/><polyline class="cls-3" points="405.58 73.26 279.54 135.66 110.48 72.72"/><line class="cls-1" x1="369.75" y1="10.78" x2="369.75" y2="136.95"/><circle class="cls-2" cx="369.69" cy="72.69" r="2.25"/><circle class="cls-2" cx="110.44" cy="72.84" r="2.25"/><path d="M69,89.1l4.38-5.7c.42-.52.82-1,1.26-1.5v0H69.41V80.44h7.38v1.1l-4.33,5.62c-.4.54-.8,1-1.24,1.52v0h5.67v1.4H69Z"/><path d="M78.17,92.78V87.92h-.79v-.78h.79v-.27a2.66,2.66,0,0,1,.65-2,2,2,0,0,1,1.38-.52,2.41,2.41,0,0,1,.87.16l-.14.79a1.53,1.53,0,0,0-.65-.12c-.88,0-1.1.77-1.1,1.63v.3h1.37v.78H79.18v4.86Z"/><path d="M364.16,152.17l4.38-5.7c.42-.52.82-1,1.26-1.5v0h-5.24v-1.42h7.38l0,1.1-4.32,5.62c-.4.54-.8,1-1.24,1.52v0H372v1.4h-7.86Z"/><path d="M376.62,139.49a23.07,23.07,0,0,1-1.88,4.74l-1.12.14a28.31,28.31,0,0,0,1.18-4.7Z"/><path d="M374.44,156.32v-4.86h-.79v-.78h.79v-.27a2.67,2.67,0,0,1,.66-2,2,2,0,0,1,1.37-.52,2.47,2.47,0,0,1,.88.16l-.14.79a1.62,1.62,0,0,0-.66-.12c-.87,0-1.09.77-1.09,1.63v.3h1.36v.78h-1.36v4.86Z"/><polyline class="cls-1" points="54.12 264.94 405.51 264.94 54.42 205.82"/><ellipse class="cls-1" cx="54.42" cy="264.64" rx="19.61" ry="58.82"/><line class="cls-1" x1="405.51" y1="264.94" x2="54.42" y2="323.46"/><path d="M37.38,129.81A13.19,13.19,0,0,0,34.86,138a13.48,13.48,0,0,0,2.52,8.12H36A12.93,12.93,0,0,1,33.38,138,13.2,13.2,0,0,1,36,129.81Z"/><path d="M44.6,143.69l-.14-1.22H44.4a3.61,3.61,0,0,1-3,1.44,2.76,2.76,0,0,1-3-2.78c0-2.34,2.08-3.62,5.82-3.6v-.2a2,2,0,0,0-2.2-2.24,4.82,4.82,0,0,0-2.52.72l-.4-1.16a6,6,0,0,1,3.18-.86c3,0,3.68,2,3.68,4v3.62a13.63,13.63,0,0,0,.16,2.32Zm-.26-4.94c-1.92,0-4.1.3-4.1,2.18a1.56,1.56,0,0,0,1.66,1.68A2.41,2.41,0,0,0,44.24,141a1.84,1.84,0,0,0,.1-.56Z"/><path d="M47.82,146.11a13.54,13.54,0,0,0,2.52-8.18,13.26,13.26,0,0,0-2.52-8.12h1.36A12.74,12.74,0,0,1,51.8,138a13,13,0,0,1-2.62,8.16Z"/><path d="M37.38,331.29a13.19,13.19,0,0,0-2.52,8.18,13.48,13.48,0,0,0,2.52,8.12H36a12.93,12.93,0,0,1-2.62-8.12A13.2,13.2,0,0,1,36,331.29Z"/><path d="M39.16,345.17c0-.66.08-1.64.08-2.5V331H41v6.08h0a3.61,3.61,0,0,1,3.3-1.78c2.4,0,4.1,2,4.08,4.94,0,3.46-2.18,5.18-4.34,5.18a3.45,3.45,0,0,1-3.24-1.82h-.06l-.08,1.6ZM41,341.29a3.3,3.3,0,0,0,.08.64A2.72,2.72,0,0,0,43.7,344c1.84,0,2.94-1.5,2.94-3.72,0-1.94-1-3.6-2.88-3.6a2.81,2.81,0,0,0-2.68,2.16,3.47,3.47,0,0,0-.1.72Z"/><path d="M49.5,347.59A13.54,13.54,0,0,0,52,339.41a13.26,13.26,0,0,0-2.52-8.12h1.36a12.74,12.74,0,0,1,2.62,8.14,13,13,0,0,1-2.62,8.16Z"/><line class="cls-1" x1="306.58" y1="219.7" x2="306.58" y2="309.88"/><polyline class="cls-4" points="27.4 206.49 21.3 206.49 21.3 323.04 27.1 323.04"/><path d="M9.82,254.51v11.7c0,.86,0,1.84.08,2.5H8.32L8.24,267h0a3.58,3.58,0,0,1-3.3,1.9c-2.34,0-4.14-2-4.14-4.92,0-3.22,2-5.2,4.34-5.2A3.24,3.24,0,0,1,8,260.29h0v-5.78ZM8.06,263a3.11,3.11,0,0,0-.08-.74,2.59,2.59,0,0,0-2.54-2c-1.82,0-2.9,1.6-2.9,3.74,0,2,1,3.58,2.86,3.58A2.65,2.65,0,0,0,8,265.41a3.06,3.06,0,0,0,.08-.76Z"/><path d="M12.13,263.09h1v8.28h-1Z"/><path d="M286.71,247v11.71c0,.86,0,1.84.08,2.5h-1.58l-.08-1.68h0a3.58,3.58,0,0,1-3.3,1.9c-2.35,0-4.15-2-4.15-4.92,0-3.22,2-5.21,4.35-5.21a3.25,3.25,0,0,1,2.92,1.49h0V247ZM285,255.44a3.11,3.11,0,0,0-.08-.74,2.59,2.59,0,0,0-2.54-2c-1.83,0-2.91,1.6-2.91,3.74,0,2,1,3.58,2.87,3.58a2.65,2.65,0,0,0,2.58-2.1,3.06,3.06,0,0,0,.08-.76Z"/><path d="M293,263.63a3.83,3.83,0,0,1-1.62.32,2.67,2.67,0,0,1-2.81-2.88,2.87,2.87,0,0,1,3-3,3.44,3.44,0,0,1,1.42.29l-.23.79a2.41,2.41,0,0,0-1.19-.26,2.13,2.13,0,0,0,0,4.24,2.86,2.86,0,0,0,1.26-.28Z"/><polyline class="cls-4" points="304.46 248.87 298.8 248.87 298.8 280.77 304.53 280.77"/><polyline class="cls-4" points="54.8 268.9 54.8 274.12 405.3 274.12 405.3 268.9"/><path d="M227.8,289l4.38-5.7c.42-.52.82-1,1.26-1.5v0H228.2v-1.42h7.38l0,1.1-4.32,5.62c-.4.54-.8,1-1.24,1.52v0h5.66V290H227.8Z"/><path d="M240.26,276.31a23.07,23.07,0,0,1-1.88,4.74l-1.12.14a28.31,28.31,0,0,0,1.18-4.7Z"/><polyline class="cls-4" points="307.5 246.89 307.5 241.29 405.77 241.29 405.77 246.46"/><path d="M341.62,235.67,346,230c.42-.52.82-1,1.26-1.5v0H342V227h7.38l0,1.1-4.32,5.62c-.4.54-.8,1-1.24,1.52v0h5.66v1.4h-7.86Z"/><path d="M354.08,223a23.07,23.07,0,0,1-1.88,4.74l-1.12.14a28.31,28.31,0,0,0,1.18-4.7Z"/><path d="M360.08,230.63v1.3h-4.94v-1.3Z"/><path d="M361,235.67l4.38-5.7c.42-.52.82-1,1.26-1.5v0h-5.24V227h7.38l0,1.1-4.32,5.62c-.4.54-.8,1-1.24,1.52v0h5.66v1.4H361Z"/><path d="M373.5,223a23.07,23.07,0,0,1-1.88,4.74l-1.12.14a28.31,28.31,0,0,0,1.18-4.7Z"/><path d="M374.91,239.35v-4.86h-.79v-.78h.79v-.27a2.69,2.69,0,0,1,.65-2,2,2,0,0,1,1.38-.53,2.34,2.34,0,0,1,.87.17l-.14.79a1.51,1.51,0,0,0-.65-.13c-.87,0-1.09.77-1.09,1.63v.31h1.36v.78h-1.36v4.86Z"/></svg>