<svg id="Layer_1" data-name="Layer 1" xmlns="http://www.w3.org/2000/svg" viewBox="0 0 472.48 170.61"><defs><style>.cls-1,.cls-2{fill:none;}.cls-1,.cls-2,.cls-3{stroke:#000;stroke-miterlimit:10;}.cls-1{stroke-dasharray:2;}</style></defs><title>Exit pupil bounds film</title><line class="cls-1" x1="116.8" y1="85.8" x2="179.51" y2="85.8"/><line class="cls-2" x1="8.18" y1="85.8" x2="116.8" y2="85.8"/><circle class="cls-3" cx="7.96" cy="85.8" r="2.25"/><line class="cls-2" x1="17.04" y1="80.28" x2="17.04" y2="91.32"/><line class="cls-2" x1="116.86" y1="80.28" x2="116.86" y2="91.32"/><line class="cls-2" x1="105.77" y1="80.28" x2="105.77" y2="91.32"/><line class="cls-2" x1="94.68" y1="80.28" x2="94.68" y2="91.32"/><line class="cls-2" x1="83.58" y1="80.28" x2="83.58" y2="91.32"/><line class="cls-2" x1="72.49" y1="80.28" x2="72.49" y2="91.32"/><line class="cls-2" x1="61.4" y1="80.28" x2="61.4" y2="91.32"/><line class="cls-2" x1="50.31" y1="80.28" x2="50.31" y2="91.32"/><line class="cls-2" x1="39.22" y1="80.28" x2="39.22" y2="91.32"/><line class="cls-2" x1="28.13" y1="80.28" x2="28.13" y2="91.32"/><path d="M167.13,96.93v4.7h4.52v1.2h-4.52v4.74h-1.28v-4.74h-4.52v-1.2h4.52v-4.7Z"/><path d="M174.73,97.89l1.38,2.08c.36.54.66,1,1,1.58h.06c.32-.58.64-1.08,1-1.6l1.36-2.06h1.9l-3.3,4.68,3.4,5h-2l-1.42-2.18c-.38-.56-.7-1.1-1-1.68h0c-.32.58-.66,1.1-1,1.68l-1.4,2.18h-1.94l3.44-4.94-3.28-4.74Z"/><path d="M113.6,100.15c0-1.14,0-2.12-.08-3h1.54l.06,1.9h.08a2.9,2.9,0,0,1,2.68-2.12,1.9,1.9,0,0,1,.5.06v1.66a2.64,2.64,0,0,0-.6-.06,2.47,2.47,0,0,0-2.36,2.26,5,5,0,0,0-.08.82v5.17H113.6Z"/><path d="M5.28,151a13.19,13.19,0,0,0-2.52,8.18,13.48,13.48,0,0,0,2.52,8.12H3.9a12.93,12.93,0,0,1-2.62-8.12A13.2,13.2,0,0,1,3.9,151Z"/><path d="M12.5,164.9l-.14-1.22H12.3a3.61,3.61,0,0,1-3,1.44,2.76,2.76,0,0,1-3-2.78c0-2.34,2.08-3.62,5.82-3.6v-.2A2,2,0,0,0,10,156.3a4.82,4.82,0,0,0-2.52.72l-.4-1.16a6,6,0,0,1,3.18-.86c3,0,3.68,2,3.68,4v3.62a13.63,13.63,0,0,0,.16,2.32ZM12.24,160c-1.92,0-4.1.3-4.1,2.18a1.56,1.56,0,0,0,1.66,1.68,2.41,2.41,0,0,0,2.34-1.62,1.84,1.84,0,0,0,.1-.56Z"/><path d="M15.72,167.32a13.54,13.54,0,0,0,2.52-8.18A13.26,13.26,0,0,0,15.72,151h1.36a12.74,12.74,0,0,1,2.62,8.14,13,13,0,0,1-2.62,8.16Z"/><path d="M242.07,151.72a13.19,13.19,0,0,0-2.52,8.18,13.49,13.49,0,0,0,2.52,8.13h-1.38a13,13,0,0,1-2.62-8.13,13.2,13.2,0,0,1,2.62-8.18Z"/><path d="M243.85,165.61c0-.66.08-1.64.08-2.51V151.4h1.74v6.08h0a3.61,3.61,0,0,1,3.3-1.78c2.4,0,4.1,2,4.08,4.94,0,3.47-2.18,5.19-4.34,5.19a3.45,3.45,0,0,1-3.24-1.82h-.06l-.08,1.6Zm1.82-3.89a3.4,3.4,0,0,0,.08.65,2.72,2.72,0,0,0,2.64,2.06c1.84,0,2.94-1.5,2.94-3.73,0-1.94-1-3.6-2.88-3.6a2.81,2.81,0,0,0-2.68,2.16,3.47,3.47,0,0,0-.1.72Z"/><path d="M254.19,168a13.55,13.55,0,0,0,2.52-8.19,13.26,13.26,0,0,0-2.52-8.12h1.36a12.74,12.74,0,0,1,2.62,8.14,13,13,0,0,1-2.62,8.17Z"/><rect class="cls-2" x="240.03" y="0.5" width="208.05" height="145.04"/><line class="cls-2" x1="343.76" y1="73.42" x2="470.62" y2="72.48"/><path d="M467.4,81.5c0-1.14,0-2.12-.08-3h1.54l.06,1.9H469a2.9,2.9,0,0,1,2.68-2.12,1.9,1.9,0,0,1,.5.06V80a2.64,2.64,0,0,0-.6-.06,2.47,2.47,0,0,0-2.36,2.26,5,5,0,0,0-.08.82v5.16H467.4Z"/><circle class="cls-3" cx="343.88" cy="73.37" r="2.25"/><circle class="cls-3" cx="395.28" cy="23.38" r="2.25"/><line class="cls-2" x1="394.93" y1="23.03" x2="343.18" y2="73.37"/><path class="cls-2" d="M371.43,45.66A39,39,0,0,1,383,73.37"/><path d="M392,51.65c0-4.08,1.66-7.2,4.68-7.2s4.5,2.9,4.5,7.2c0,4.5-1.46,7.44-4.56,7.44C393.8,59.09,392,56.59,392,51.65Zm7.44-.76c0-2.84-.92-5.14-2.86-5.14-1.78,0-2.84,2.42-2.84,5.14Zm-5.7,1.32c0,3.56,1.2,5.58,2.92,5.58,1.88,0,2.78-2.32,2.78-5.58Z"/></svg>