<svg id="Layer_1" data-name="Layer 1" xmlns="http://www.w3.org/2000/svg" viewBox="0 0 397.24 161.33"><defs><style>.cls-1,.cls-3{fill:none;}.cls-1,.cls-2,.cls-3{stroke:#000;stroke-miterlimit:10;}.cls-3{stroke-dasharray:2;}</style></defs><title>Focus thin lens</title><path class="cls-1" d="M252.17,152.07A163.45,163.45,0,0,0,252,8"/><path class="cls-1" d="M251.67,152a163.38,163.38,0,0,1,.15-144"/><line class="cls-1" x1="377.43" y1="80.4" y2="80.4"/><circle class="cls-2" cx="377.5" cy="80.07" r="2.25"/><path d="M384.78,85.46l4.38-5.7c.42-.52.82-1,1.26-1.5v0h-5.24V76.8h7.38l0,1.1-4.32,5.62c-.4.54-.8,1-1.24,1.52v0h5.66v1.4h-7.86Z"/><path d="M397.24,72.78a23.07,23.07,0,0,1-1.88,4.74l-1.12.14a28.31,28.31,0,0,0,1.18-4.7Z"/><circle class="cls-2" cx="45.31" cy="81.67" r="2.25"/><polyline class="cls-3" points="377.43 80.4 251.39 18 45.31 79.42"/><path d="M40.27,99.09l4.38-5.7c.42-.52.82-1,1.26-1.5v0H40.67V90.43h7.38l0,1.1-4.32,5.62c-.4.54-.8,1-1.24,1.52v0h5.66v1.4H40.27Z"/><polyline class="cls-3" points="377.06 81.01 251.02 143.41 44.93 82"/><line class="cls-1" x1="377.59" y1="18.54" x2="377.59" y2="144.71"/></svg>