<svg id="Layer_1" data-name="Layer 1" xmlns="http://www.w3.org/2000/svg" viewBox="0 0 386.34 191.8"><defs><style>.cls-1,.cls-2,.cls-3,.cls-4{fill:none;stroke:#000;stroke-miterlimit:10;}.cls-1{stroke-width:2px;}.cls-3{stroke-dasharray:2;}.cls-4{stroke-width:0.5px;}</style></defs><title>Lens element</title><path class="cls-1" d="M248.93,191.23a167.14,167.14,0,0,0,0-166.09"/><polyline class="cls-2" points="260.29 49.77 96.16 107.56 271.01 107.56"/><path d="M165.64,57.63c0-1.14,0-2.12-.08-3h1.54l.06,1.9h.08a2.9,2.9,0,0,1,2.68-2.12,1.9,1.9,0,0,1,.5.06v1.66a2.64,2.64,0,0,0-.6-.06,2.47,2.47,0,0,0-2.36,2.26,5,5,0,0,0-.08.82v5.16h-1.74Z"/><path d="M194.45,112.73c0-1.14,0-2.12-.08-3h1.54l.06,1.9h.08a2.9,2.9,0,0,1,2.68-2.12,1.9,1.9,0,0,1,.5.06v1.66a2.55,2.55,0,0,0-.59-.06,2.47,2.47,0,0,0-2.37,2.26,5,5,0,0,0-.08.82v5.17h-1.74Z"/><path d="M285,91.11v2.78h2.52v1.34H285v5.22c0,1.2.34,1.88,1.32,1.88a3.92,3.92,0,0,0,1-.12l.08,1.32a4.31,4.31,0,0,1-1.56.24A2.44,2.44,0,0,1,284,103a3.59,3.59,0,0,1-.68-2.52V95.23h-1.5V93.89h1.5V91.57Z"/><path d="M289.51,89.37h1.76v6h0a3.27,3.27,0,0,1,1.26-1.24,3.62,3.62,0,0,1,1.8-.5c1.3,0,3.38.8,3.38,4.14v5.76H296V98c0-1.56-.58-2.88-2.24-2.88a2.53,2.53,0,0,0-2.36,1.76,2.13,2.13,0,0,0-.12.84v5.84h-1.76Z"/><path d="M302.57,91.17a1.09,1.09,0,0,1-2.18,0,1.07,1.07,0,0,1,1.1-1.1A1,1,0,0,1,302.57,91.17Zm-2,12.4V93.89h1.76v9.68Z"/><path d="M312.19,103.21a6.48,6.48,0,0,1-2.78.56,4.6,4.6,0,0,1-4.82-4.94,4.92,4.92,0,0,1,5.2-5.14,5.88,5.88,0,0,1,2.44.5l-.4,1.36a4.08,4.08,0,0,0-2-.46,3.65,3.65,0,0,0-.06,7.28,5,5,0,0,0,2.16-.48Z"/><path d="M316,98.33h0c.24-.34.58-.76.86-1.1l2.84-3.34h2.12l-3.74,4,4.26,5.7h-2.14l-3.34-4.64-.9,1v3.64h-1.74V89.37H316Z"/><path d="M324,96.51c0-1,0-1.82-.08-2.62h1.56l.1,1.6h0a3.56,3.56,0,0,1,3.2-1.82c1.34,0,3.42.8,3.42,4.12v5.78h-1.76V98c0-1.56-.58-2.86-2.24-2.86a2.5,2.5,0,0,0-2.36,1.8,2.53,2.53,0,0,0-.12.82v5.82H324Z"/><path d="M336.05,99.05a3.1,3.1,0,0,0,3.32,3.36,6.36,6.36,0,0,0,2.68-.5l.3,1.26a7.84,7.84,0,0,1-3.22.6c-3,0-4.76-2-4.76-4.88s1.72-5.22,4.54-5.22c3.16,0,4,2.78,4,4.56a6.64,6.64,0,0,1-.06.82Zm5.16-1.26c0-1.12-.46-2.86-2.44-2.86-1.78,0-2.56,1.64-2.7,2.86Z"/><path d="M344.85,101.77a4.61,4.61,0,0,0,2.32.7c1.28,0,1.88-.64,1.88-1.44s-.5-1.3-1.8-1.78c-1.74-.62-2.56-1.58-2.56-2.74,0-1.56,1.26-2.84,3.34-2.84a4.83,4.83,0,0,1,2.38.6L350,95.55a3.77,3.77,0,0,0-2-.56c-1,0-1.62.6-1.62,1.32s.58,1.16,1.84,1.64c1.68.64,2.54,1.48,2.54,2.92,0,1.7-1.32,2.9-3.62,2.9a5.52,5.52,0,0,1-2.72-.66Z"/><path d="M352.77,101.77a4.61,4.61,0,0,0,2.32.7c1.28,0,1.88-.64,1.88-1.44s-.5-1.3-1.8-1.78c-1.74-.62-2.56-1.58-2.56-2.74,0-1.56,1.26-2.84,3.34-2.84a4.83,4.83,0,0,1,2.38.6l-.44,1.28a3.77,3.77,0,0,0-2-.56c-1,0-1.62.6-1.62,1.32s.58,1.16,1.84,1.64c1.68.64,2.54,1.48,2.54,2.92,0,1.7-1.32,2.9-3.62,2.9a5.52,5.52,0,0,1-2.72-.66Z"/><path d="M267.12,168l4.38-5.7c.42-.52.82-1,1.26-1.5v0h-5.24V159.3h7.38l0,1.1L270.56,166c-.4.54-.8,1-1.24,1.52v0H275V169h-7.86Z"/><path d="M311.51,21.32l-.14-1.23h-.06a3.58,3.58,0,0,1-3,1.45,2.76,2.76,0,0,1-3-2.79c0-2.34,2.08-3.62,5.82-3.6V15a2,2,0,0,0-2.2-2.24,4.82,4.82,0,0,0-2.52.72l-.4-1.16a6,6,0,0,1,3.18-.86c3,0,3.68,2,3.68,4V19a13.71,13.71,0,0,0,.16,2.32Zm-.26-4.95c-1.92,0-4.1.3-4.1,2.18a1.56,1.56,0,0,0,1.66,1.69,2.42,2.42,0,0,0,2.34-1.62,2,2,0,0,0,.1-.57Z"/><path d="M315.79,14.79c0-1.24,0-2.24-.08-3.16h1.58l.08,1.66h0a3.81,3.81,0,0,1,3.44-1.88c2.34,0,4.1,2,4.1,4.92,0,3.49-2.12,5.21-4.4,5.21a3.39,3.39,0,0,1-3-1.52h0v5.26h-1.74Zm1.74,2.59a3.85,3.85,0,0,0,.08.71,2.71,2.71,0,0,0,2.64,2.07c1.86,0,2.94-1.53,2.94-3.75,0-1.94-1-3.6-2.88-3.6A2.81,2.81,0,0,0,317.65,15a2.85,2.85,0,0,0-.12.72Z"/><path d="M328.15,16.79a3.11,3.11,0,0,0,3.32,3.37,6.36,6.36,0,0,0,2.68-.5l.3,1.26a7.84,7.84,0,0,1-3.22.6c-3,0-4.76-2-4.76-4.89s1.72-5.22,4.54-5.22c3.16,0,4,2.78,4,4.56a6.64,6.64,0,0,1-.06.82Zm5.16-1.26c0-1.12-.46-2.86-2.44-2.86-1.78,0-2.56,1.64-2.7,2.86Z"/><path d="M337.19,14.65c0-1.14,0-2.12-.08-3h1.54l.06,1.9h.08a2.9,2.9,0,0,1,2.68-2.12,1.9,1.9,0,0,1,.5.06v1.66a2.64,2.64,0,0,0-.6-.06A2.47,2.47,0,0,0,339,15.33a5,5,0,0,0-.08.82v5.17h-1.74Z"/><path d="M346.33,8.85v2.78h2.52V13h-2.52v5.22c0,1.21.34,1.89,1.32,1.89a3.92,3.92,0,0,0,1-.12l.08,1.32a4.31,4.31,0,0,1-1.56.24,2.44,2.44,0,0,1-1.9-.74,3.61,3.61,0,0,1-.68-2.53V13h-1.5V11.63h1.5V9.31Z"/><path d="M358.93,18.67c0,1,0,1.89.08,2.65h-1.56l-.1-1.58h0a3.64,3.64,0,0,1-3.2,1.8c-1.52,0-3.34-.84-3.34-4.25V11.63h1.76V17c0,1.84.56,3.09,2.16,3.09a2.49,2.49,0,0,0,2.48-2.51V11.63h1.76Z"/><path d="M361.85,14.65c0-1.14,0-2.12-.08-3h1.54l.06,1.9h.08a2.9,2.9,0,0,1,2.68-2.12,1.9,1.9,0,0,1,.5.06v1.66a2.64,2.64,0,0,0-.6-.06,2.47,2.47,0,0,0-2.36,2.26,5,5,0,0,0-.08.82v5.17h-1.74Z"/><path d="M369.17,16.79a3.11,3.11,0,0,0,3.32,3.37,6.36,6.36,0,0,0,2.68-.5l.3,1.26a7.84,7.84,0,0,1-3.22.6c-3,0-4.76-2-4.76-4.89s1.72-5.22,4.54-5.22c3.16,0,4,2.78,4,4.56a6.64,6.64,0,0,1-.06.82Zm5.16-1.26c0-1.12-.46-2.86-2.44-2.86-1.78,0-2.56,1.64-2.7,2.86Z"/><path d="M316.69,30.65c0-1.14,0-2.12-.08-3h1.54l.06,1.9h.08A2.9,2.9,0,0,1,321,27.41a1.9,1.9,0,0,1,.5.06v1.66a2.64,2.64,0,0,0-.6-.06,2.47,2.47,0,0,0-2.36,2.26,5,5,0,0,0-.08.82v5.17h-1.74Z"/><path d="M328.49,37.32l-.14-1.23h-.06a3.58,3.58,0,0,1-3,1.45,2.76,2.76,0,0,1-3-2.79c0-2.34,2.08-3.62,5.82-3.6V31a2,2,0,0,0-2.2-2.24,4.82,4.82,0,0,0-2.52.72l-.4-1.16a6,6,0,0,1,3.18-.86c3,0,3.68,2,3.68,4V35a13.71,13.71,0,0,0,.16,2.32Zm-.26-5c-1.92,0-4.1.3-4.1,2.18a1.56,1.56,0,0,0,1.66,1.69,2.42,2.42,0,0,0,2.34-1.62,2,2,0,0,0,.1-.57Z"/><path d="M341.13,23.11v11.7c0,.86,0,1.85.08,2.51h-1.58l-.08-1.69h0a3.59,3.59,0,0,1-3.3,1.91c-2.34,0-4.14-2-4.14-4.93,0-3.22,2-5.2,4.34-5.2a3.24,3.24,0,0,1,2.92,1.48h0V23.11Zm-1.76,8.46a3.11,3.11,0,0,0-.08-.74,2.59,2.59,0,0,0-2.54-2c-1.82,0-2.9,1.6-2.9,3.74,0,2,1,3.59,2.86,3.59A2.66,2.66,0,0,0,339.29,34a3.06,3.06,0,0,0,.08-.76Z"/><path d="M346,24.91a1.09,1.09,0,0,1-2.18,0,1.07,1.07,0,0,1,1.1-1.1A1,1,0,0,1,346,24.91Zm-2,12.41V27.63h1.76v9.69Z"/><path d="M356.83,34.67c0,1,0,1.89.08,2.65h-1.56l-.1-1.58h0a3.64,3.64,0,0,1-3.2,1.8c-1.52,0-3.34-.84-3.34-4.25V27.63h1.76V33c0,1.84.56,3.09,2.16,3.09a2.49,2.49,0,0,0,2.48-2.51V27.63h1.76Z"/><path d="M359.51,35.51a4.52,4.52,0,0,0,2.32.7c1.28,0,1.88-.63,1.88-1.44s-.5-1.3-1.8-1.78c-1.74-.62-2.56-1.58-2.56-2.74,0-1.56,1.26-2.84,3.34-2.84a4.83,4.83,0,0,1,2.38.6l-.44,1.28a3.77,3.77,0,0,0-2-.56c-1,0-1.62.6-1.62,1.32s.58,1.16,1.84,1.64c1.68.64,2.54,1.48,2.54,2.93,0,1.7-1.32,2.9-3.62,2.9a5.52,5.52,0,0,1-2.72-.66Z"/><line class="cls-3" x1="176.15" y1="25.12" x2="303.99" y2="25.12"/><line class="cls-3" x1="174.91" y1="191.3" x2="302.75" y2="191.3"/><line class="cls-3" x1="271.23" y1="107.45" x2="271.23" y2="155.31"/><line class="cls-4" y1="107.68" x2="386.34" y2="107.68"/><line class="cls-2" x1="369.1" y1="103.09" x2="369.1" y2="112.14"/></svg>