<svg id="Layer_1" data-name="Layer 1" xmlns="http://www.w3.org/2000/svg" viewBox="0 0 597.93 228.08"><defs><style>.cls-1,.cls-2,.cls-3,.cls-4{fill:none;stroke-linecap:square;stroke-miterlimit:3.25;}.cls-1{stroke:#0071bc;}.cls-1,.cls-3{stroke-width:2px;}.cls-2,.cls-3,.cls-4{stroke:#000;}.cls-4{stroke-dasharray:2;}</style></defs><title>Lens system cardinal points</title><line class="cls-1" x1="291.39" y1="18.26" x2="291.39" y2="198.93"/><path class="cls-2" d="M202.78,27a170.57,170.57,0,0,0,0,145.84"/><path class="cls-2" d="M203.15,27H214"/><path class="cls-2" d="M203.15,172.88H214"/><path class="cls-2" d="M214.44,27a490.33,490.33,0,0,0,0,145.84"/><path class="cls-2" d="M231.09,33.35a111.56,111.56,0,0,0,0,133.11"/><path class="cls-2" d="M231.26,33.41H242.1"/><path class="cls-2" d="M231.26,166.52H242.1"/><path class="cls-2" d="M241.47,33.35a235.86,235.86,0,0,0,0,133.11"/><path class="cls-2" d="M242.1,33.41H273"/><path class="cls-2" d="M242.1,166.52H273"/><path class="cls-2" d="M273,33.41V47.87"/><path class="cls-2" d="M273,166.52V152.05"/><path class="cls-2" d="M273.55,47.83a73.77,73.77,0,0,0,0,104.16"/><path class="cls-3" d="M284.5,50.48V1"/><path class="cls-3" d="M284.5,149.44v49.49"/><path class="cls-2" d="M295,149.1a83.89,83.89,0,0,0,0-98.39"/><path class="cls-2" d="M294.6,42.09h30"/><path class="cls-2" d="M294.6,157.83h30"/><path class="cls-2" d="M294.6,42.09v8.68"/><path class="cls-2" d="M294.6,157.83v-8.68"/><path class="cls-2" d="M324,42a236.21,236.21,0,0,0,0,115.75"/><path class="cls-2" d="M324.57,42.09h12.72"/><path class="cls-2" d="M324.57,157.83h12.72"/><path class="cls-2" d="M336.82,157.78a118,118,0,0,0,0-115.75"/><path class="cls-2" d="M353.52,42q-1.33,57.87,0,115.75"/><path class="cls-2" d="M354.23,42.09H364.8"/><path class="cls-2" d="M354.23,157.83H364.8"/><path class="cls-2" d="M364.74,157.78a229.94,229.94,0,0,0,0-115.75"/><path class="cls-2" d="M597.43,100H104.65"/><path class="cls-2" d="M192.39,56.55l17.91,1.88"/><path class="cls-2" d="M210.3,58.43l6.64.78"/><path class="cls-2" d="M216.94,59.21l18.44,4.16"/><path class="cls-2" d="M235.38,63.37l23.12,5.18"/><path class="cls-2" d="M258.5,68.55l26,1.58"/><path class="cls-2" d="M284.5,70.13l21,1.28"/><path class="cls-2" d="M305.53,71.41l13.74-1.34"/><path class="cls-2" d="M319.27,70.07l28.64-2.56"/><path class="cls-2" d="M347.91,67.51l5.86.22"/><path class="cls-2" d="M353.77,67.73l16.22.45"/><path d="M583,99.91a2.59,2.59,0,1,0-.76,1.84A2.6,2.6,0,0,0,583,99.91Z"/><path class="cls-2" d="M370,68.18,580.79,100"/><path class="cls-4" d="M370.51,128.9H165.43"/><path class="cls-2" d="M597.43,128.9H370.51"/><path class="cls-2" d="M370.38,128.9,353.73,128"/><path class="cls-2" d="M353.73,128l-4.54-.45"/><path class="cls-2" d="M349.19,127.57l-30.71-4.75"/><path class="cls-2" d="M318.48,122.82l-10.65-1.75"/><path class="cls-2" d="M307.83,121.07l-23.33-2.49"/><line class="cls-1" x1="316.97" y1="18.26" x2="316.97" y2="198.93"/><path class="cls-2" d="M284.5,118.58l-31.43-3.35"/><path class="cls-2" d="M253.07,115.23l-20,.5"/><path class="cls-2" d="M233.05,115.73l-22.62.55"/><path class="cls-2" d="M210.43,116.28l-1.63-.09"/><path class="cls-2" d="M208.8,116.19l-21.29-.46"/><path d="M32.23,99.91a2.6,2.6,0,0,0-4.44-1.84,2.63,2.63,0,0,0,0,3.68,2.6,2.6,0,0,0,4.44-1.84Z"/><path class="cls-2" d="M187,115.86,28.92,100"/><path class="cls-4" d="M403,137.52,187,115.86"/><path class="cls-2" d="M187.51,100H.5"/><path d="M27.76,125.51v-8.34H26.4v-1.34h1.36v-.47A4.56,4.56,0,0,1,28.88,112a3.37,3.37,0,0,1,2.36-.9,4.08,4.08,0,0,1,1.5.28l-.24,1.36a2.79,2.79,0,0,0-1.12-.22c-1.5,0-1.88,1.32-1.88,2.81v.52h2.34v1.34H29.5v8.34Z"/><path d="M32.17,127.57l2.55-3.32.74-.87v0H32.4v-.83h4.31l0,.65-2.51,3.27c-.24.32-.47.6-.73.89v0h3.3v.82H32.17Z"/><line class="cls-4" x1="370.03" y1="68.12" x2="164.63" y2="37.91"/><circle cx="290.87" cy="56.29" r="3.73"/><circle cx="316.97" cy="129.26" r="3.73"/><path class="cls-4" d="M191.93,56.55h208.8"/><path class="cls-2" d="M18.69,56.55H191.93"/><path d="M577.62,91.51V83.17h-1.36V81.83h1.36v-.47A4.56,4.56,0,0,1,578.74,78a3.37,3.37,0,0,1,2.36-.9,4.08,4.08,0,0,1,1.5.28l-.24,1.36a2.79,2.79,0,0,0-1.12-.22c-1.5,0-1.88,1.32-1.88,2.81v.52h2.34v1.34h-2.34v8.34Z"/><path d="M586.82,77.8a23.19,23.19,0,0,1-1.88,4.75l-1.12.14A28.44,28.44,0,0,0,585,78Z"/><path d="M584.49,93.57l2.56-3.32c.24-.3.47-.57.73-.87v0h-3v-.83H589v.65l-2.52,3.27c-.24.32-.47.6-.72.89v0h3.29v.82h-4.58Z"/><path d="M312.74,213.9c0-1.24,0-2.24-.08-3.16h1.58l.08,1.66h0a3.81,3.81,0,0,1,3.44-1.88c2.34,0,4.1,2,4.1,4.92,0,3.48-2.12,5.2-4.4,5.2a3.39,3.39,0,0,1-3-1.52h0v5.26h-1.74Zm1.74,2.58a4,4,0,0,0,.08.72,2.72,2.72,0,0,0,2.64,2.06c1.86,0,2.94-1.52,2.94-3.74,0-1.94-1-3.6-2.88-3.6a2.81,2.81,0,0,0-2.66,2.18,2.85,2.85,0,0,0-.12.72Z"/><path d="M325.68,206.72a23.07,23.07,0,0,1-1.88,4.74l-1.12.14a28.31,28.31,0,0,0,1.18-4.7Z"/><path d="M323.35,222.49l2.55-3.33.74-.87v0h-3.06v-.83h4.31l0,.64-2.51,3.28c-.24.31-.47.59-.73.88v0h3.3v.82h-4.58Z"/><path d="M288.38,213.9c0-1.24,0-2.24-.08-3.16h1.59l.08,1.66h0a3.81,3.81,0,0,1,3.44-1.88c2.34,0,4.1,2,4.1,4.92,0,3.48-2.12,5.2-4.4,5.2a3.42,3.42,0,0,1-3-1.52h0v5.26h-1.74Zm1.74,2.58a4,4,0,0,0,.08.72,2.74,2.74,0,0,0,2.65,2.06c1.86,0,2.94-1.52,2.94-3.74,0-1.94-1-3.6-2.88-3.6a2.83,2.83,0,0,0-2.67,2.18,3.39,3.39,0,0,0-.12.72Z"/><path d="M298.51,222.49l2.56-3.33c.24-.3.48-.57.73-.87v0h-3.05v-.83h4.3v.64l-2.52,3.28c-.23.31-.47.59-.72.88v0h3.3v.82h-4.59Z"/></svg>