<svg id="Layer_1" data-name="Layer 1" xmlns="http://www.w3.org/2000/svg" viewBox="0 0 595.22 244.37"><defs><style>.cls-1,.cls-5,.cls-6{fill:none;}.cls-1,.cls-4,.cls-5,.cls-6,.cls-7,.cls-8,.cls-9{stroke:#000;stroke-miterlimit:10;}.cls-2{fill:#a6a6a6;}.cls-3{fill:#666;}.cls-4,.cls-7,.cls-8{fill:#999;}.cls-4{opacity:0.5;}.cls-5,.cls-8{stroke-dasharray:2;}.cls-5,.cls-6{fill-rule:evenodd;}</style></defs><title>Ortho generate ray</title><polyline class="cls-1" points="346.2 82.17 346.2 236.21 500.8 236.21"/><polygon points="340.7 87.08 346.2 82.82 351.71 87.08 346.2 74.07 340.7 87.08"/><polygon class="cls-2" points="341.9 85.53 346.2 75.38 346.2 82.19 341.9 85.53"/><polygon class="cls-3" points="350.5 85.53 346.2 75.38 346.2 82.19 350.5 85.53"/><polygon points="495.89 241.71 500.15 236.21 495.89 230.7 508.9 236.21 495.89 241.71"/><polygon class="cls-2" points="497.45 240.51 507.59 236.21 500.78 236.21 497.45 240.51"/><polygon class="cls-3" points="497.45 231.91 507.59 236.21 500.78 236.21 497.45 231.91"/><line class="cls-1" x1="559.3" y1="23.08" x2="346.21" y2="236.16"/><polygon points="551.93 22.66 558.84 23.54 559.72 30.44 565.03 17.35 551.93 22.66"/><polygon class="cls-2" points="553.89 22.41 564.1 18.28 559.28 23.09 553.89 22.41"/><polygon class="cls-3" points="559.97 28.49 564.1 18.28 559.28 23.09 559.97 28.49"/><path d="M514.49,229.68l1.38,2.08c.36.54.66,1,1,1.58h.06c.32-.58.64-1.08,1-1.6l1.36-2.06h1.9l-3.3,4.69,3.4,5h-2l-1.42-2.18c-.38-.57-.7-1.11-1-1.69h0c-.32.58-.66,1.11-1,1.69l-1.4,2.18h-1.94l3.44-5-3.28-4.74Z"/><path d="M576.45,15.72l4.38-5.7c.42-.52.82-1,1.26-1.5v0h-5.24V7.06h7.38l0,1.1-4.32,5.62c-.4.54-.8,1-1.24,1.52v0h5.66v1.4h-7.86Z"/><path d="M346.17,58.72l2.12,5.72c.22.64.46,1.4.62,2h0c.18-.58.38-1.32.62-2l1.92-5.68h1.86l-2.64,6.9c-1.26,3.32-2.12,5-3.32,6.07a4.77,4.77,0,0,1-2.16,1.14l-.44-1.49a4.61,4.61,0,0,0,1.54-.85,5.47,5.47,0,0,0,1.48-2,1.26,1.26,0,0,0,.14-.42,1.53,1.53,0,0,0-.12-.46l-3.58-8.92Z"/><rect class="cls-4" x="403.48" y="127.99" width="110.19" height="66.2"/><polyline class="cls-5" points="594.72 113.33 484.53 113.33 484.53 47.13"/><polyline class="cls-6" points="484.53 47.13 594.72 47.13 594.72 113.33"/><line class="cls-1" x1="403.48" y1="127.99" x2="484.53" y2="47.13"/><line class="cls-7" x1="513.68" y1="127.99" x2="594.72" y2="47.13"/><line class="cls-7" x1="594.72" y1="113.33" x2="513.68" y2="194.19"/><line class="cls-8" x1="484.53" y1="113.33" x2="403.48" y2="194.19"/><rect class="cls-7" x="17.02" y="72.66" width="165.33" height="99.32"/><circle class="cls-9" cx="105.84" cy="151.51" r="2.25"/><circle class="cls-9" cx="182.01" cy="171.68" r="2.25"/><circle class="cls-9" cx="17.51" cy="73.18" r="2.25"/><circle class="cls-9" cx="460.01" cy="182.01" r="2.25"/><line class="cls-1" x1="459.58" y1="181.68" x2="502.64" y2="138.62"/><polygon points="503.06 145.98 502.18 139.08 495.27 138.2 508.37 132.89 503.06 145.98"/><polygon class="cls-2" points="503.31 144.03 507.44 133.81 502.63 138.63 503.31 144.03"/><polygon class="cls-3" points="497.23 137.95 507.44 133.81 502.63 138.63 497.23 137.95"/><path d="M5.28,50.2a13.19,13.19,0,0,0-2.52,8.18A13.48,13.48,0,0,0,5.28,66.5H3.9a12.93,12.93,0,0,1-2.62-8.12A13.2,13.2,0,0,1,3.9,50.2Z"/><path d="M15.22,57.44c0,4.42-1.64,6.86-4.52,6.86-2.54,0-4.26-2.38-4.3-6.68s1.88-6.76,4.52-6.76S15.22,53.3,15.22,57.44Zm-7.06.2c0,3.38,1,5.3,2.64,5.3,1.8,0,2.66-2.1,2.66-5.42s-.82-5.3-2.64-5.3C9.28,52.22,8.16,54.1,8.16,57.64Z"/><path d="M16.26,66.54a28.78,28.78,0,0,0,1.2-4.78l2-.2a24.38,24.38,0,0,1-1.9,4.86Z"/><path d="M29.62,57.44c0,4.42-1.64,6.86-4.52,6.86-2.54,0-4.26-2.38-4.3-6.68s1.88-6.76,4.52-6.76S29.62,53.3,29.62,57.44Zm-7.06.2c0,3.38,1,5.3,2.64,5.3,1.8,0,2.66-2.1,2.66-5.42s-.82-5.3-2.64-5.3C23.68,52.22,22.56,54.1,22.56,57.64Z"/><path d="M30.74,66.5a13.54,13.54,0,0,0,2.52-8.18,13.26,13.26,0,0,0-2.52-8.12H32.1a12.74,12.74,0,0,1,2.62,8.14A13,13,0,0,1,32.1,66.5Z"/><path d="M142.43,181.05a13.19,13.19,0,0,0-2.52,8.18,13.53,13.53,0,0,0,2.52,8.13h-1.38a13,13,0,0,1-2.62-8.13,13.2,13.2,0,0,1,2.62-8.18Z"/><path d="M145.11,185.25l1.38,2.08c.36.54.66,1,1,1.58h.06c.32-.58.64-1.08,1-1.6l1.36-2.06h1.9l-3.3,4.68,3.4,5h-2l-1.42-2.18c-.38-.56-.7-1.1-1-1.68h0c-.32.58-.66,1.1-1,1.68l-1.4,2.18H143l3.44-4.94-3.28-4.74Z"/><path d="M153.61,181.63a18.12,18.12,0,0,1,3.34-.28,5.51,5.51,0,0,1,3.9,1.1,3.36,3.36,0,0,1,1.06,2.56,3.54,3.54,0,0,1-2.54,3.44v.06a3.36,3.36,0,0,1,2,2.72,21.45,21.45,0,0,0,1,3.7h-1.8a17.46,17.46,0,0,1-.9-3.22c-.4-1.86-1.12-2.56-2.7-2.62h-1.64v5.84h-1.74Zm1.74,6.14h1.78c1.86,0,3-1,3-2.56,0-1.74-1.26-2.5-3.1-2.52a7.16,7.16,0,0,0-1.72.16Z"/><path d="M165.37,190.41a3.1,3.1,0,0,0,3.32,3.36,6.36,6.36,0,0,0,2.68-.5l.3,1.26a7.84,7.84,0,0,1-3.22.6c-3,0-4.76-2-4.76-4.88s1.72-5.22,4.54-5.22c3.16,0,4,2.78,4,4.56a6.64,6.64,0,0,1-.06.82Zm5.16-1.26c0-1.12-.46-2.86-2.44-2.86-1.78,0-2.56,1.64-2.7,2.86Z"/><path d="M174.17,193.13a4.61,4.61,0,0,0,2.32.7c1.28,0,1.88-.64,1.88-1.44s-.5-1.3-1.8-1.78C174.83,190,174,189,174,187.87c0-1.56,1.26-2.84,3.34-2.84a4.83,4.83,0,0,1,2.38.6l-.44,1.28a3.77,3.77,0,0,0-2-.56c-1,0-1.62.6-1.62,1.32s.58,1.16,1.84,1.64c1.68.64,2.54,1.48,2.54,2.92,0,1.7-1.32,2.9-3.62,2.9a5.41,5.41,0,0,1-2.72-.66Z"/><path d="M181,197.4a29.15,29.15,0,0,0,1.2-4.79l2-.2a24.75,24.75,0,0,1-1.9,4.87Z"/><path d="M191.13,185.25l2.12,5.72c.22.64.46,1.4.62,2h0c.18-.58.38-1.32.62-2l1.92-5.68h1.86l-2.64,6.9c-1.26,3.32-2.12,5-3.32,6.06a4.71,4.71,0,0,1-2.16,1.15l-.44-1.48a4.53,4.53,0,0,0,1.54-.87,5.25,5.25,0,0,0,1.48-2,1.2,1.2,0,0,0,.14-.42,1.53,1.53,0,0,0-.12-.46l-3.58-8.92Z"/><path d="M200,181.63a18.12,18.12,0,0,1,3.34-.28,5.51,5.51,0,0,1,3.9,1.1,3.36,3.36,0,0,1,1.06,2.56,3.54,3.54,0,0,1-2.54,3.44v.06a3.36,3.36,0,0,1,2,2.72,21.45,21.45,0,0,0,1,3.7H207a17.46,17.46,0,0,1-.9-3.22c-.4-1.86-1.12-2.56-2.7-2.62h-1.64v5.84H200Zm1.74,6.14h1.78c1.86,0,3-1,3-2.56,0-1.74-1.26-2.5-3.1-2.52a7.16,7.16,0,0,0-1.72.16Z"/><path d="M211.73,190.41a3.1,3.1,0,0,0,3.32,3.36,6.36,6.36,0,0,0,2.68-.5l.3,1.26a7.84,7.84,0,0,1-3.22.6c-3,0-4.76-2-4.76-4.88s1.72-5.22,4.54-5.22c3.16,0,4,2.78,4,4.56a6.64,6.64,0,0,1-.06.82Zm5.16-1.26c0-1.12-.46-2.86-2.44-2.86-1.78,0-2.56,1.64-2.7,2.86Z"/><path d="M220.53,193.13a4.61,4.61,0,0,0,2.32.7c1.28,0,1.88-.64,1.88-1.44s-.5-1.3-1.8-1.78c-1.74-.62-2.56-1.58-2.56-2.74,0-1.56,1.26-2.84,3.34-2.84a4.83,4.83,0,0,1,2.38.6l-.44,1.28a3.77,3.77,0,0,0-2-.56c-1,0-1.62.6-1.62,1.32s.58,1.16,1.84,1.64c1.68.64,2.54,1.48,2.54,2.92,0,1.7-1.32,2.9-3.62,2.9a5.41,5.41,0,0,1-2.72-.66Z"/><path d="M227.63,197.36a13.57,13.57,0,0,0,2.52-8.19,13.26,13.26,0,0,0-2.52-8.12H229a12.74,12.74,0,0,1,2.62,8.14,13,13,0,0,1-2.62,8.17Z"/><line class="cls-1" x1="234.34" y1="131.34" x2="293.24" y2="131.34"/><polygon points="288.33 136.85 292.59 131.34 288.33 125.84 301.34 131.34 288.33 136.85"/><polygon class="cls-2" points="289.89 135.65 300.03 131.34 293.22 131.34 289.89 135.65"/><polygon class="cls-3" points="289.89 127.05 300.03 131.34 293.22 131.34 289.89 127.05"/></svg>