<svg id="Layer_1" data-name="Layer 1" xmlns="http://www.w3.org/2000/svg" viewBox="0 0 254.52 244.37"><defs><style>.cls-1,.cls-5,.cls-6{fill:none;}.cls-1,.cls-4,.cls-5,.cls-6,.cls-7,.cls-8{stroke:#000;stroke-miterlimit:10;}.cls-2{fill:#a6a6a6;}.cls-3{fill:#666;}.cls-4,.cls-7,.cls-8{fill:#999;}.cls-4{opacity:0.5;}.cls-5,.cls-8{stroke-dasharray:2;}.cls-5,.cls-6{fill-rule:evenodd;}</style></defs><title>Ortho viewing volume</title><polyline class="cls-1" points="5.5 82.17 5.5 236.21 160.1 236.21"/><polygon points="0 87.08 5.5 82.82 11.01 87.08 5.5 74.07 0 87.08"/><polygon class="cls-2" points="1.2 85.52 5.5 75.38 5.5 82.19 1.2 85.52"/><polygon class="cls-3" points="9.8 85.52 5.5 75.38 5.5 82.19 9.8 85.52"/><polygon points="155.19 241.71 159.45 236.21 155.19 230.7 168.21 236.21 155.19 241.71"/><polygon class="cls-2" points="156.75 240.51 166.89 236.21 160.08 236.21 156.75 240.51"/><polygon class="cls-3" points="156.75 231.91 166.89 236.21 160.08 236.21 156.75 231.91"/><line class="cls-1" x1="218.6" y1="23.08" x2="5.52" y2="236.16"/><polygon points="211.24 22.66 218.14 23.54 219.02 30.44 224.33 17.35 211.24 22.66"/><polygon class="cls-2" points="213.19 22.41 223.4 18.28 218.59 23.09 213.19 22.41"/><polygon class="cls-3" points="219.27 28.49 223.4 18.28 218.59 23.09 219.27 28.49"/><path d="M173.79,229.68l1.38,2.08c.36.54.66,1,1,1.58h.06c.32-.58.64-1.08,1-1.6l1.36-2.06h1.9l-3.3,4.68,3.4,5h-2l-1.42-2.18c-.38-.57-.7-1.11-1-1.69h0c-.32.58-.66,1.1-1,1.69l-1.4,2.18h-1.94l3.44-5-3.28-4.74Z"/><path d="M235.75,15.72l4.38-5.7c.42-.52.83-1,1.26-1.5v0h-5.24V7.06h7.39l0,1.1-4.33,5.62c-.4.54-.8,1-1.24,1.52v0h5.67v1.4h-7.87Z"/><path d="M5.47,58.72l2.12,5.72c.22.64.46,1.4.62,2h0c.18-.58.38-1.32.62-2l1.92-5.68h1.86L10,65.62c-1.26,3.32-2.12,5-3.32,6.07a4.77,4.77,0,0,1-2.16,1.14l-.44-1.49a4.48,4.48,0,0,0,1.54-.86,5.34,5.34,0,0,0,1.48-2,1.26,1.26,0,0,0,.14-.42,1.53,1.53,0,0,0-.12-.46L3.55,58.72Z"/><rect class="cls-4" x="62.79" y="127.99" width="110.19" height="66.2"/><polyline class="cls-5" points="254.02 113.33 143.83 113.33 143.83 47.13"/><polyline class="cls-6" points="143.83 47.13 254.02 47.13 254.02 113.33"/><line class="cls-1" x1="62.79" y1="127.99" x2="143.83" y2="47.13"/><line class="cls-7" x1="172.98" y1="127.99" x2="254.02" y2="47.13"/><line class="cls-7" x1="254.02" y1="113.33" x2="172.98" y2="194.19"/><line class="cls-8" x1="143.83" y1="113.33" x2="62.79" y2="194.19"/></svg>