<svg id="Layer_1" data-name="Layer 1" xmlns="http://www.w3.org/2000/svg" viewBox="0 0 319.45 241.25"><defs><style>.cls-1,.cls-4{fill:none;}.cls-1,.cls-4,.cls-5{stroke:#000;stroke-miterlimit:10;}.cls-2{fill:#a6a6a6;}.cls-3{fill:#666;}.cls-4{stroke-dasharray:2;}</style></defs><title>Perspective transformation matrix</title><line class="cls-1" x1="15.33" y1="127.65" x2="295.22" y2="127.65"/><polygon points="290.31 133.16 294.57 127.66 290.31 122.15 303.33 127.66 290.31 133.16"/><polygon class="cls-2" points="291.87 131.96 302.01 127.66 295.2 127.66 291.87 131.96"/><polygon class="cls-3" points="291.87 123.36 302.01 127.66 295.2 127.66 291.87 123.36"/><path d="M311.25,132.33l4.38-5.7c.42-.52.82-1,1.26-1.5v0h-5.24v-1.42H319l0,1.1-4.32,5.62c-.4.54-.8,1-1.24,1.52v0h5.66v1.4h-7.86Z"/><line class="cls-1" x1="15.4" y1="127.18" x2="276.21" y2="14.25"/><line class="cls-1" x1="15.56" y1="127.86" x2="276.37" y2="240.79"/><polyline class="cls-4" points="204.69 45.23 204.69 44.63 204.69 20.5"/><line class="cls-1" x1="204.69" y1="209.73" x2="204.69" y2="45.23"/><path class="cls-1" d="M106.47,87.69a99.19,99.19,0,0,1,8.14,39.49"/><path d="M126.74,110.24V101.9h-1.36v-1.34h1.36v-.46a4.56,4.56,0,0,1,1.12-3.38,3.37,3.37,0,0,1,2.36-.9,4.08,4.08,0,0,1,1.5.28l-.24,1.36a2.63,2.63,0,0,0-1.12-.22c-1.5,0-1.88,1.32-1.88,2.8v.52h2.34v1.34h-2.34v8.34Z"/><path d="M140.9,105.32c0,3.58-2.48,5.14-4.82,5.14-2.62,0-4.64-1.92-4.64-5,0-3.24,2.12-5.14,4.8-5.14S140.9,102.36,140.9,105.32Zm-7.68.1c0,2.12,1.22,3.72,2.94,3.72s2.94-1.58,2.94-3.76c0-1.64-.82-3.72-2.9-3.72S133.22,103.58,133.22,105.42Z"/><path d="M143.66,100.56l1.9,5.44a24.89,24.89,0,0,1,.78,2.48h.06c.22-.8.5-1.6.82-2.48l1.88-5.44h1.84l-3.8,9.68h-1.68l-3.68-9.68Z"/><path d="M151.12,111l5.58-14.5h1.36l-5.6,14.5Z"/><path d="M158.9,110.24v-1.08l1.38-1.34c3.32-3.16,4.82-4.84,4.84-6.8a2.32,2.32,0,0,0-2.58-2.54,4.43,4.43,0,0,0-2.76,1.1l-.56-1.24A5.7,5.7,0,0,1,162.9,97a3.66,3.66,0,0,1,4,3.78c0,2.4-1.74,4.34-4.48,7l-1,1v0h5.84v1.46Z"/><line class="cls-4" x1="15.4" y1="100.03" x2="15.35" y2="155.29"/><path d="M.36,93.7,4.74,88c.42-.53.82-1,1.26-1.51v0H.76V85H8.14l0,1.1L3.8,91.76c-.4.54-.8,1-1.24,1.52v0H8.22v1.4H.36Z"/><path d="M9.36,88V86.77H19.68V88Zm0,3.92V90.7H19.68v1.2Z"/><path d="M30,88.07c0,4.43-1.64,6.87-4.52,6.87-2.54,0-4.26-2.38-4.3-6.69s1.88-6.76,4.52-6.76S30,83.93,30,88.07Zm-7.06.2c0,3.39,1,5.31,2.64,5.31,1.8,0,2.66-2.1,2.66-5.43s-.82-5.3-2.64-5.3C24.08,82.85,23,84.73,23,88.27Z"/><path d="M191.77,15.72l4.38-5.7c.42-.52.82-1,1.26-1.5v0h-5.24V7.06h7.38l0,1.1-4.32,5.62c-.4.54-.8,1-1.24,1.52v0h5.66v1.4h-7.86Z"/><path d="M200.77,10V8.8h10.32V10Zm0,3.92v-1.2h10.32v1.2Z"/><path d="M216.61,5.38h0L214.31,6.6,214,5.26l2.84-1.52h1.5v13h-1.7Z"/><line class="cls-4" x1="16.38" y1="127.69" x2="289.29" y2="196.01"/><circle class="cls-5" cx="205.02" cy="174.73" r="2.25"/><circle class="cls-5" cx="288.62" cy="195.93" r="2.25"/><circle class="cls-5" cx="15.46" cy="127.35" r="2.25"/></svg>