<svg id="Layer_1" data-name="Layer 1" xmlns="http://www.w3.org/2000/svg" viewBox="0 0 288.83 187.77"><defs><style>.cls-1,.cls-2{fill:none;}.cls-1,.cls-2,.cls-3{stroke:#000;stroke-miterlimit:10;}.cls-2{stroke-dasharray:2;}.cls-4{fill:#a6a6a6;}.cls-5{fill:#666;}</style></defs><title>Sample exit pupil</title><path class="cls-1" d="M216.5,58.88a163.38,163.38,0,0,0-144,.15"/><path class="cls-1" d="M216.44,59.38A162.45,162.45,0,0,1,144.57,76,162.41,162.41,0,0,1,72.41,59.24"/><line class="cls-1" y1="76.33" x2="288.83" y2="76.33"/><line class="cls-2" x1="143.89" y1="21.98" x2="143.89" y2="184.33"/><line class="cls-1" x1="143.72" y1="183.68" x2="288.1" y2="183.68"/><line class="cls-1" x1="171.22" y1="179.58" x2="171.22" y2="187.65"/><line class="cls-1" x1="198.38" y1="179.69" x2="198.38" y2="187.77"/><circle class="cls-3" cx="177.64" cy="183.78" r="2.25"/><circle class="cls-3" cx="193.01" cy="183.65" r="2.25"/><line class="cls-1" x1="216.59" y1="72.07" x2="216.59" y2="80.15"/><line class="cls-1" x1="72.59" y1="72.33" x2="72.59" y2="80.41"/><circle class="cls-3" cx="204.46" cy="76.36" r="2.25"/><circle class="cls-3" cx="115.18" cy="76.81" r="2.25"/><line class="cls-1" x1="177.51" y1="183.65" x2="120.41" y2="86.09"/><polygon points="127.64 87.55 120.74 86.65 118.14 93.11 116.31 79.09 127.64 87.55"/><polygon class="cls-4" points="125.81 86.81 116.98 80.23 120.42 86.11 125.81 86.81"/><polygon class="cls-5" points="118.39 91.15 116.98 80.23 120.42 86.11 118.39 91.15"/><line class="cls-1" x1="192.61" y1="183.78" x2="203.55" y2="87.02"/><polygon points="208.47 92.51 203.48 87.66 197.53 91.28 204.46 78.96 208.47 92.51"/><polygon class="cls-4" points="207.45 90.83 204.31 80.27 203.55 87.04 207.45 90.83"/><polygon class="cls-5" points="198.91 89.86 204.31 80.27 203.55 87.04 198.91 89.86"/><path d="M139.75,15.72l4.38-5.7c.42-.52.82-1,1.26-1.5v0h-5.24V7.06h7.38l0,1.1-4.32,5.62c-.4.54-.8,1-1.24,1.52v0h5.66v1.4h-7.86Z"/></svg>