<svg id="Layer_1" data-name="Layer 1" xmlns="http://www.w3.org/2000/svg" viewBox="0 0 384.13 206.82"><defs><style>.cls-1,.cls-3,.cls-4{fill:none;}.cls-1,.cls-2,.cls-3{stroke:#000;}.cls-1,.cls-2,.cls-3,.cls-4{stroke-miterlimit:10;}.cls-3{stroke-dasharray:2;}.cls-4{stroke:#0071bc;}</style></defs><title>Thin lens</title><path class="cls-1" d="M252.17,183.82a163.43,163.43,0,0,0-.14-144"/><path class="cls-1" d="M251.67,183.76a163.41,163.41,0,0,1,.15-144"/><line class="cls-1" x1="377.43" y1="112.15" y2="112.15"/><circle class="cls-2" cx="377.5" cy="111.82" r="2.25"/><polyline class="cls-3" points="0.25 58.82 252 58.82 377.5 111.82 252.25 139.82 0.75 139.82"/><polyline class="cls-3" points="377.5 111.82 252.75 166.32 0.5 166.32"/><path d="M237.61,200.8l4.38-5.7c.42-.52.82-1,1.26-1.5v0H238v-1.42h7.38l0,1.1-4.32,5.62c-.4.54-.8,1-1.24,1.52v0h5.66v1.4h-7.86Z"/><path d="M246.61,195.08v-1.2h10.32v1.2Zm0,3.92v-1.2h10.32V199Z"/><path d="M267.27,195.18c0,4.42-1.64,6.86-4.52,6.86-2.54,0-4.26-2.38-4.3-6.68s1.88-6.76,4.52-6.76S267.27,191,267.27,195.18Zm-7.06.2c0,3.38,1,5.3,2.64,5.3,1.8,0,2.66-2.1,2.66-5.42s-.82-5.3-2.64-5.3C261.33,190,260.21,191.84,260.21,195.38Z"/><path d="M374.21,124.05c0-1.24,0-2.24-.08-3.16h1.58l.08,1.66h0a3.81,3.81,0,0,1,3.44-1.88c2.34,0,4.1,2,4.1,4.92,0,3.48-2.12,5.2-4.4,5.2a3.39,3.39,0,0,1-3-1.52h0v5.26h-1.74Zm1.74,2.58a4,4,0,0,0,.08.72,2.72,2.72,0,0,0,2.64,2.06c1.86,0,2.94-1.52,2.94-3.74,0-1.94-1-3.6-2.88-3.6a2.81,2.81,0,0,0-2.66,2.18,2.85,2.85,0,0,0-.12.72Z"/><polyline class="cls-4" points="251.7 31.04 251.7 22.55 378.3 22.55 378.3 31.61"/><path d="M313.33,16.74V8.4H312V7.06h1.36V6.6a4.56,4.56,0,0,1,1.12-3.38,3.37,3.37,0,0,1,2.36-.9,4.08,4.08,0,0,1,1.5.28L318.08,4A2.72,2.72,0,0,0,317,3.74c-1.5,0-1.88,1.32-1.88,2.8v.52h2.35V8.4h-2.35v8.34Z"/></svg>