<?xml version="1.0" encoding="UTF-8" standalone="no"?>
<!-- Created with Inkscape (http://www.inkscape.org/) -->

<svg
   version="1.1"
   id="svg1"
   width="376.21332"
   height="118.25333"
   viewBox="0 0 376.21332 118.25333"
   sodipodi:docname="pha01f02.eps"
   xmlns:inkscape="http://www.inkscape.org/namespaces/inkscape"
   xmlns:sodipodi="http://sodipodi.sourceforge.net/DTD/sodipodi-0.dtd"
   xmlns="http://www.w3.org/2000/svg"
   xmlns:svg="http://www.w3.org/2000/svg">
  <defs
     id="defs1" />
  <sodipodi:namedview
     id="namedview1"
     pagecolor="#ffffff"
     bordercolor="#000000"
     borderopacity="0.25"
     inkscape:showpageshadow="2"
     inkscape:pageopacity="0.0"
     inkscape:pagecheckerboard="0"
     inkscape:deskcolor="#d1d1d1">
    <inkscape:page
       x="0"
       y="0"
       inkscape:label="1"
       id="page1"
       width="376.21332"
       height="118.25333"
       margin="0"
       bleed="0" />
  </sodipodi:namedview>
  <g
     id="g1"
     inkscape:groupmode="layer"
     inkscape:label="1">
    <g
       id="group-R5">
      <path
         id="path2"
         d="M 1068.12,2.5 H 210.527 V 562.203 L 717.844,884.777 H 1575.44 V 325.074 L 1068.12,2.5"
         style="fill:#ebebeb;fill-opacity:1;fill-rule:nonzero;stroke:none"
         transform="matrix(0.13333333,0,0,-0.13333333,0,118.25333)" />
      <path
         id="path3"
         d="m 717.844,884.777 -1.344,2.11 -507.312,-322.574 -1.161,-2.11 V 2.5 l 3.84,-2.109375 507.317,322.574375 1.16,2.109 v 559.703 l -3.844,2.11 1.344,-2.11 h -2.5 V 326.445 L 213.027,7.05078 V 560.828 l 506.157,321.84 -1.34,2.109 h -2.5 2.5"
         style="fill:#231f20;fill-opacity:1;fill-rule:nonzero;stroke:none"
         transform="matrix(0.13333333,0,0,-0.13333333,0,118.25333)" />
      <path
         id="path4"
         d="m 1575.44,884.777 -1.34,2.11 -507.32,-322.574 -1.16,-2.11 V 2.5 l 3.85,-2.109375 507.31,322.574375 1.16,2.109 v 559.703 l -3.84,2.11 1.34,-2.11 h -2.5 V 326.445 L 1070.63,7.05469 V 560.828 l 506.15,321.84 -1.34,2.109 h -2.5 2.5"
         style="fill:#231f20;fill-opacity:1;fill-rule:nonzero;stroke:none"
         transform="matrix(0.13333333,0,0,-0.13333333,0,118.25333)" />
      <path
         id="path5"
         d="M 608.18,647.008 381.734,503.023 V 253.188 L 608.18,397.172 v 249.836"
         style="fill:#b2b1b1;fill-opacity:1;fill-rule:nonzero;stroke:none"
         transform="matrix(0.13333333,0,0,-0.13333333,0,118.25333)" />
      <path
         id="path6"
         d="m 608.18,647.008 -1.344,2.109 L 379.234,504.395 V 248.637 L 610.68,395.801 v 255.758 l -3.844,-2.442 1.344,-2.109 h -2.5 V 398.547 L 384.234,257.742 v 243.906 l 225.286,143.25 -1.34,2.11 h -2.5 2.5"
         style="fill:#231f20;fill-opacity:1;fill-rule:nonzero;stroke:none"
         transform="matrix(0.13333333,0,0,-0.13333333,0,118.25333)" />
      <path
         id="path7"
         d="m 1370.74,462.598 -2.46,-0.438 c 0.25,-1.449 0.38,-2.926 0.38,-4.418 0.05,-11.562 -7.75,-23.812 -18.51,-28.23 -2.85,-1.192 -5.63,-1.735 -8.24,-1.735 -8.41,0.063 -15.19,5.504 -16.98,15.164 -0.26,1.454 -0.38,2.93 -0.38,4.418 -0.05,11.567 7.74,23.813 18.5,28.231 2.86,1.187 5.64,1.73 8.25,1.73 8.41,-0.062 15.18,-5.5 16.98,-15.16 l 2.46,0.438 2.46,0.437 c -2.02,11.742 -11.14,19.348 -21.9,19.285 -3.31,0 -6.75,-0.691 -10.17,-2.117 -12.84,-5.41 -21.53,-19.144 -21.58,-32.844 0,-1.769 0.15,-3.539 0.46,-5.293 2.01,-11.742 11.13,-19.351 21.9,-19.289 3.31,0 6.74,0.696 10.16,2.118 12.85,5.414 21.54,19.152 21.59,32.847 0,1.774 -0.15,3.543 -0.46,5.293 l -2.46,-0.437"
         style="fill:#231f20;fill-opacity:1;fill-rule:nonzero;stroke:none"
         transform="matrix(0.13333333,0,0,-0.13333333,0,118.25333)" />
      <path
         id="path8"
         d="m 2312.15,651.238 -1.34,2.114 -226.44,-143.985 -1.16,-2.109 V 257.426 l 3.84,-2.11 226.44,143.985 1.16,2.109 v 249.828 l -3.84,2.114 1.34,-2.114 h -2.5 V 402.785 L 2088.21,261.98 v 243.903 l 225.28,143.25 -1.34,2.105 h -2.5 2.5"
         style="fill:#231f20;fill-opacity:1;fill-rule:nonzero;stroke:none"
         transform="matrix(0.13333333,0,0,-0.13333333,0,118.25333)" />
      <path
         id="path9"
         d="M 609.805,647.387 2479.98,146.762 2481.27,151.59 611.098,652.215"
         style="fill:#231f20;fill-opacity:1;fill-rule:nonzero;stroke:none"
         transform="matrix(0.13333333,0,0,-0.13333333,0,118.25333)" />
      <path
         id="path10"
         d="M 382.164,501.492 2476.86,392.918 2477.12,397.91 382.426,506.484"
         style="fill:#231f20;fill-opacity:1;fill-rule:nonzero;stroke:none"
         transform="matrix(0.13333333,0,0,-0.13333333,0,118.25333)" />
      <path
         id="path11"
         d="m 380.355,249.617 2100.895,435.41 -1.02,4.899 -2100.89,-435.41"
         style="fill:#231f20;fill-opacity:1;fill-rule:nonzero;stroke:none"
         transform="matrix(0.13333333,0,0,-0.13333333,0,118.25333)" />
      <path
         id="path12"
         d="M 607.141,395.207 2484.78,536.023 2484.4,541.008 606.766,400.191"
         style="fill:#231f20;fill-opacity:1;fill-rule:nonzero;stroke:none"
         transform="matrix(0.13333333,0,0,-0.13333333,0,118.25333)" />
      <path
         id="path13"
         d="m 0.40902344,-5.8475672 v 0.2460938 c 0.66796876,0.046875 0.73828126,0.082031 0.73828126,0.8789062 v 3.5976563 c 0,0.74999996 -0.070312,0.82031246 -0.78515626,0.86718746 V 8.90625e-5 H 2.7996484 V -0.25772344 c -0.8085937,-0.046875 -0.890625,-0.09375 -0.890625,-0.85546876 v -1.4179687 l 0.6679688,0.1757812 c 0.09375,0.011719 0.2695312,0.011719 0.3984375,0 0.8789062,-0.1171875 1.7578125,-0.6914062 1.7578125,-1.8515625 0,-0.5859375 -0.234375,-1.0078125 -0.5859375,-1.265625 -0.3632813,-0.2695312 -0.8671875,-0.375 -1.5117188,-0.375 z m 1.49999996,0.8203125 c 0,-0.2578125 0.023437,-0.3632812 0.09375,-0.421875 0.070312,-0.070312 0.2578125,-0.1171875 0.5039063,-0.1171875 0.7382812,0 1.359375,0.421875 1.359375,1.3945313 0,1.1367187 -0.7148438,1.453125 -1.3007813,1.453125 -0.2929687,0 -0.5390625,-0.058594 -0.65625,-0.1054688 z m 4.2949219,0.1992188 c 0.2578125,0 0.4570313,-0.2109375 0.4570313,-0.4570313 0,-0.2695312 -0.1992188,-0.46875 -0.4570313,-0.46875 -0.234375,0 -0.4570312,0.1992188 -0.4570312,0.46875 0,0.2460938 0.2226562,0.4570313 0.4570312,0.4570313 z M 7.2586328,8.90625e-5 V -0.23428594 C 6.6726953,-0.29287969 6.6141016,-0.33975469 6.6141016,-0.94912969 V -4.0545984 c -0.3984375,0.1523437 -0.8203125,0.2695312 -1.2773438,0.3515625 v 0.2109375 c 0.5390625,0.09375 0.5625,0.1289062 0.5625,0.6796875 v 1.86328121 c 0,0.609375 -0.058594,0.65625 -0.6210937,0.71484375 V 8.90625e-5 Z m 4.8515622,0 V -0.23428594 c -0.527343,-0.0585938 -0.574218,-0.09375 -0.574218,-0.703125 V -2.6717859 c 0,-0.8789063 -0.445313,-1.3710938 -1.160157,-1.3710938 -0.257812,0 -0.4921872,0.1054688 -0.7499997,0.2695313 -0.2226562,0.1523437 -0.421875,0.2929687 -0.5976562,0.421875 v -0.7148438 c -0.3984375,0.1757813 -0.8203125,0.28125 -1.2539063,0.3632813 v 0.2109375 c 0.4921875,0.09375 0.5390625,0.1171875 0.5390625,0.6914062 v 1.86328126 c 0,0.59765625 -0.046875,0.64453125 -0.65625,0.703125 V 8.90625e-5 H 9.6141016 V -0.23428594 c -0.5273438,-0.0585938 -0.5859375,-0.09375 -0.5859375,-0.703125 V -3.0467859 c 0.2695312,-0.234375 0.6210937,-0.46875 0.9843749,-0.46875 0.597656,0 0.820313,0.4101562 0.820313,1.03125 v 1.49999996 c 0,0.62109375 -0.07031,0.69140625 -0.597657,0.75 V 8.90625e-5 Z m 4.872071,0 V -0.23428594 c -0.527344,-0.046875 -0.597657,-0.09375 -0.597657,-0.69140625 V -2.5077234 c 0,-1.078125 -0.503906,-1.5351563 -1.242187,-1.5351563 -0.480469,0 -0.972656,0.3398438 -1.289063,0.65625 v -3.0234375 c -0.339843,0.1054688 -0.890625,0.2578125 -1.3125,0.3164063 v 0.2109375 c 0.585938,0.046875 0.609375,0.09375 0.609375,0.6679687 v 4.28906251 c 0,0.59765625 -0.08203,0.64453125 -0.621093,0.69140625 V 8.90625e-5 h 1.910156 V -0.23428594 c -0.539063,-0.0585938 -0.585938,-0.1171875 -0.585938,-0.69140625 V -3.0702234 c 0.257813,-0.28125 0.597657,-0.4570313 0.9375,-0.4570313 0.609375,0 0.890625,0.3632813 0.890625,1.1015625 v 1.50000001 c 0,0.5859375 -0.08203,0.6328125 -0.597656,0.69140625 V 8.90625e-5 Z M 19.446133,-4.0428797 c -0.820313,0 -1.980469,0.6796875 -1.980469,2.15625 0,1.00781251 0.738281,1.99218751 1.980469,1.99218751 0.890625,0 1.945312,-0.69140625 1.945312,-2.14453121 0,-1.1132813 -0.832031,-2.0039063 -1.945312,-2.0039063 z m -0.09375,0.3046875 c 0.785156,0 1.207031,0.84375 1.207031,1.8984375 0,1.24218751 -0.457031,1.65234376 -1.019531,1.65234376 -0.738281,0 -1.230469,-0.84374996 -1.230469,-1.98046876 0,-1.0195312 0.480469,-1.5703125 1.042969,-1.5703125 z M 23.808438,8.90625e-5 V -0.23428594 c -0.574219,-0.0585938 -0.65625,-0.10546875 -0.65625,-0.703125 V -6.4100672 c -0.304688,0.1054688 -0.855469,0.2578125 -1.324219,0.3164063 v 0.2109375 c 0.5625,0.046875 0.621094,0.082031 0.621094,0.6914062 v 4.25390626 c 0,0.59765625 -0.08203,0.64453125 -0.644532,0.703125 V 8.90625e-5 Z M 27.35043,-0.94912969 c -0.328125,0.3046875 -0.667969,0.4453125 -1.019532,0.4453125 -0.632812,0 -1.335937,-0.50390621 -1.347656,-1.72265621 1.066406,-0.046875 2.191406,-0.1289063 2.355469,-0.1640625 0.152344,-0.035156 0.199219,-0.1054688 0.199219,-0.28125 0,-0.703125 -0.597657,-1.3710938 -1.347657,-1.3710938 -0.46875,0 -0.949218,0.2460938 -1.324218,0.65625 -0.363282,0.4101563 -0.597657,0.9609375 -0.597657,1.5820313 0,1.00781246 0.65625,1.91015621 1.757813,1.91015621 0.28125,0 0.902344,-0.1640625 1.464844,-0.8671875 z M 25.979336,-3.7030359 c 0.492187,0 0.796875,0.421875 0.785156,0.890625 0,0.1289062 -0.04687,0.1875 -0.210937,0.1875 -0.527344,0.011719 -1.019532,0.023437 -1.523438,0.023437 0.128906,-0.7265625 0.527344,-1.1015625 0.949219,-1.101562 z M 118.74789,-45.940341 h -2.02734 v 0.246094 c 0.72656,0.09375 0.78515,0.164063 0.60937,0.679688 -0.29297,0.902343 -0.97265,2.648437 -1.41797,3.773437 h -0.0234 c -0.59766,-1.546875 -1.25391,-3.28125 -1.48829,-3.914062 -0.15234,-0.398438 -0.11718,-0.46875 0.52735,-0.539063 v -0.246094 h -2.20313 v 0.257813 c 0.52735,0.04687 0.66797,0.117187 0.9375,0.796875 0.51563,1.300781 1.25391,3.234375 1.86328,4.886719 h 0.26954 c 0.67968,-1.863282 1.6289,-4.148438 1.875,-4.734375 0.33984,-0.808594 0.45703,-0.890625 1.07812,-0.960938 z m 0.93457,1.019532 c 0.25781,0 0.45703,-0.210938 0.45703,-0.457032 0,-0.269531 -0.19922,-0.46875 -0.45703,-0.46875 -0.23437,0 -0.45703,0.199219 -0.45703,0.46875 0,0.246094 0.22266,0.457032 0.45703,0.457032 z m 1.05469,4.828125 v -0.234375 c -0.58594,-0.05859 -0.64453,-0.105469 -0.64453,-0.714844 v -3.105469 c -0.39844,0.152344 -0.82032,0.269531 -1.27735,0.351563 v 0.210937 c 0.53907,0.09375 0.5625,0.128906 0.5625,0.679688 v 1.863281 c 0,0.609375 -0.0586,0.65625 -0.62109,0.714844 v 0.234375 z m 3.54785,-0.949219 c -0.32812,0.304687 -0.66797,0.445312 -1.01953,0.445312 -0.63281,0 -1.33594,-0.503906 -1.34766,-1.722656 1.06641,-0.04687 2.19141,-0.128906 2.35547,-0.164062 0.15235,-0.03516 0.19922,-0.105469 0.19922,-0.28125 0,-0.703125 -0.59766,-1.371094 -1.34766,-1.371094 -0.46875,0 -0.94921,0.246094 -1.32421,0.65625 -0.36329,0.410156 -0.59766,0.960937 -0.59766,1.582031 0,1.007813 0.65625,1.910156 1.75781,1.910156 0.28125,0 0.90235,-0.164062 1.46485,-0.867187 z m -1.37109,-2.753906 c 0.49218,0 0.79687,0.421875 0.78515,0.890625 0,0.128906 -0.0469,0.1875 -0.21093,0.1875 -0.52735,0.01172 -1.01954,0.02344 -1.52344,0.02344 0.1289,-0.726562 0.52734,-1.101562 0.94922,-1.101562 z m 8.12988,-0.234375 h -1.62891 v 0.234375 c 0.57422,0.07031 0.63282,0.128906 0.51563,0.597656 -0.16406,0.667969 -0.41016,1.453125 -0.60938,2.074219 h -0.0234 c -0.375,-0.960938 -0.73829,-1.921875 -1.07813,-2.859375 h -0.23437 c -0.375,1.042968 -0.70313,1.96875 -1.04297,2.824218 h -0.0117 c -0.23438,-0.691406 -0.45703,-1.394531 -0.66797,-2.097656 -0.12891,-0.398437 -0.082,-0.457031 0.45703,-0.539062 v -0.234375 h -1.86328 v 0.234375 c 0.43359,0.05859 0.51562,0.117187 0.67969,0.585937 0.36328,1.078125 0.70312,2.144531 1.03125,3.210938 h 0.25781 c 0.35156,-0.996094 0.72656,-1.898438 1.06641,-2.789063 0.36328,0.9375 0.73828,1.828125 1.08984,2.789063 h 0.25781 c 0.41016,-1.21875 0.8086,-2.414063 1.07813,-3.128907 0.1875,-0.492187 0.26953,-0.597656 0.72656,-0.667968 z m 1.13965,-0.890625 c 0.25781,0 0.45703,-0.210938 0.45703,-0.457032 0,-0.269531 -0.19922,-0.46875 -0.45703,-0.46875 -0.23438,0 -0.45703,0.199219 -0.45703,0.46875 0,0.246094 0.22265,0.457032 0.45703,0.457032 z m 1.05469,4.828125 v -0.234375 c -0.58594,-0.05859 -0.64454,-0.105469 -0.64454,-0.714844 v -3.105469 c -0.39843,0.152344 -0.82031,0.269531 -1.27734,0.351563 v 0.210937 c 0.53906,0.09375 0.5625,0.128906 0.5625,0.679688 v 1.863281 c 0,0.609375 -0.0586,0.65625 -0.62109,0.714844 v 0.234375 z m 4.84863,0 v -0.234375 c -0.52735,-0.05859 -0.57422,-0.09375 -0.57422,-0.703125 v -1.734375 c 0,-0.878907 -0.44531,-1.371094 -1.16016,-1.371094 -0.25781,0 -0.49218,0.105469 -0.75,0.269531 -0.22265,0.152344 -0.42187,0.292969 -0.59765,0.421875 v -0.714844 c -0.39844,0.175782 -0.82032,0.28125 -1.25391,0.363282 v 0.210937 c 0.49219,0.09375 0.53906,0.117188 0.53906,0.691406 v 1.863282 c 0,0.597656 -0.0469,0.644531 -0.65625,0.703125 v 0.234375 h 1.95703 v -0.234375 c -0.52734,-0.05859 -0.58593,-0.09375 -0.58593,-0.703125 v -2.109375 c 0.26953,-0.234375 0.62109,-0.46875 0.98437,-0.46875 0.59766,0 0.82031,0.410156 0.82031,1.03125 v 1.5 c 0,0.621093 -0.0703,0.691406 -0.59765,0.75 v 0.234375 z m 4.30078,-3.9375 c -0.32813,0.04687 -0.78516,0.105468 -1.23047,0.117187 -0.25781,-0.140625 -0.55078,-0.222656 -0.85547,-0.222656 -0.6914,0 -1.61719,0.46875 -1.61719,1.5 0,0.609375 0.38672,1.03125 0.79688,1.207031 -0.15234,0.175781 -0.43359,0.410156 -0.79688,0.539063 -0.0117,0.09375 0.0234,0.246093 0.10547,0.386718 0.11719,0.1875 0.33985,0.386719 0.65625,0.492188 -0.21093,0.164062 -0.5625,0.445312 -0.73828,0.632812 -0.14062,0.128907 -0.22265,0.304688 -0.22265,0.503907 0.0117,0.503906 0.5625,1.089843 1.55859,1.089843 1.19531,0 2.25,-0.867187 2.25,-1.78125 0,-0.878906 -0.73828,-1.054687 -1.28906,-1.054687 -0.30469,0 -0.6211,0 -0.94922,0 -0.41016,0 -0.5625,-0.164063 -0.5625,-0.339844 0,-0.128906 0.14062,-0.292969 0.26953,-0.375 0.14062,0.02344 0.30469,0.04687 0.45703,0.04687 0.76172,0 1.57031,-0.46875 1.57031,-1.441406 0,-0.328125 -0.0937,-0.597656 -0.26953,-0.796875 l 0.51563,0.02344 c 0.14062,-0.08203 0.32812,-0.316406 0.39843,-0.457031 z m -2.17969,0.164062 c 0.51563,0 0.84375,0.503906 0.84375,1.21875 0,0.714844 -0.35156,1.066406 -0.75,1.066406 -0.5039,0 -0.84375,-0.503906 -0.84375,-1.207031 0,-0.703125 0.35156,-1.078125 0.75,-1.078125 z m 0.19922,3.867188 c 0.375,0 0.63281,0.03516 0.86719,0.117187 0.25781,0.117188 0.41015,0.339844 0.41015,0.644531 0,0.5625 -0.44531,0.996094 -1.30078,0.996094 -0.66797,0 -1.18359,-0.363281 -1.18359,-0.855469 0,-0.257812 0.17578,-0.515625 0.41016,-0.703125 0.16406,-0.140625 0.36328,-0.199218 0.79687,-0.199218 z m -23.55762,6.767578 h -1.59375 v 0.234375 c 0.50391,0.05859 0.5625,0.152343 0.42188,0.585937 -0.1875,0.585938 -0.48047,1.40625 -0.79688,2.15625 -0.25781,-0.644531 -0.62109,-1.59375 -0.85547,-2.226562 -0.14062,-0.386719 -0.1289,-0.457032 0.36329,-0.515625 v -0.234375 h -1.85157 v 0.234375 c 0.49219,0.07031 0.5625,0.128906 0.77344,0.65625 0.42188,1.042968 0.83203,2.0625 1.24219,3.140625 h 0.23437 c 0.50391,-1.335938 0.97266,-2.4375 1.27735,-3.117188 0.23437,-0.539062 0.3164,-0.621094 0.78515,-0.679687 z m 2.11524,-0.105469 c -0.82031,0 -1.98047,0.679687 -1.98047,2.15625 0,1.007812 0.73828,1.992187 1.98047,1.992187 0.89062,0 1.94531,-0.691406 1.94531,-2.144531 0,-1.113281 -0.83203,-2.003906 -1.94531,-2.003906 z m -0.0937,0.304687 c 0.78515,0 1.20703,0.84375 1.20703,1.898438 0,1.242187 -0.45703,1.652344 -1.01953,1.652344 -0.73828,0 -1.23047,-0.84375 -1.23047,-1.980469 0,-1.019531 0.48047,-1.570313 1.04297,-1.570313 z m 4.45605,3.738282 v -0.234375 c -0.57422,-0.05859 -0.65625,-0.105469 -0.65625,-0.703125 v -5.472657 c -0.30469,0.105469 -0.85547,0.257813 -1.32422,0.316407 v 0.210937 c 0.5625,0.04687 0.6211,0.08203 0.6211,0.691406 v 4.253907 c 0,0.597656 -0.082,0.644531 -0.64453,0.703125 v 0.234375 z m 4.6875,-0.445313 -0.25781,-0.01172 c -0.33984,-0.02344 -0.41016,-0.08203 -0.41016,-0.527343 v -3.011719 c -0.48047,0.09375 -0.94922,0.140625 -1.41797,0.164062 v 0.199219 c 0.65625,0.09375 0.70313,0.128906 0.70313,0.644531 v 2.097657 c -0.30469,0.292968 -0.64453,0.433593 -0.97266,0.433593 -0.39843,0 -0.78515,-0.222656 -0.78515,-1.019531 v -1.207031 c 0,-0.609375 0,-1.03125 0.0234,-1.3125 -0.43359,0.08203 -0.86718,0.140625 -1.28906,0.164062 v 0.199219 c 0.51563,0.105469 0.55078,0.140625 0.55078,0.632813 v 1.769531 c 0,0.972656 0.51563,1.335937 1.11328,1.335937 0.2461,0 0.4336,-0.07031 0.69141,-0.222656 0.25781,-0.152344 0.46875,-0.316406 0.66797,-0.46875 v 0.644531 l 0.0586,0.04687 c 0.44532,-0.128906 0.90235,-0.257812 1.32422,-0.316406 z m 7.27442,0.445313 v -0.234375 c -0.50391,-0.05859 -0.58594,-0.09375 -0.58594,-0.691407 v -1.734375 c 0,-0.890625 -0.43359,-1.382812 -1.13672,-1.382812 -0.25781,0 -0.49219,0.105469 -0.67969,0.234375 -0.22265,0.140625 -0.48047,0.304687 -0.73828,0.503906 -0.1875,-0.46875 -0.57422,-0.738281 -1.00781,-0.738281 -0.28125,0 -0.50391,0.105469 -0.73828,0.246094 -0.26953,0.164062 -0.46875,0.328125 -0.65625,0.457031 v -0.726563 c -0.39844,0.175782 -0.85547,0.292969 -1.25391,0.363282 v 0.210937 c 0.52735,0.08203 0.55078,0.128906 0.55078,0.703125 v 1.863281 c 0,0.585938 -0.082,0.632813 -0.66797,0.691407 v 0.234375 h 1.89844 v -0.234375 c -0.44531,-0.05859 -0.51562,-0.105469 -0.51562,-0.691407 v -2.121093 c 0.26953,-0.222657 0.62109,-0.46875 0.98437,-0.46875 0.55078,0 0.78516,0.375 0.78516,1.042968 v 1.546875 c 0,0.597657 -0.082,0.632813 -0.64453,0.691407 v 0.234375 h 1.92187 v -0.234375 c -0.49219,-0.05859 -0.57422,-0.105469 -0.57422,-0.679688 v -1.746094 c 0,-0.175781 -0.0117,-0.269531 -0.0234,-0.386718 0.33984,-0.28125 0.67968,-0.46875 1.00781,-0.46875 0.5625,0 0.79687,0.410156 0.79687,1.054687 v 1.5 c 0,0.632813 -0.10547,0.667969 -0.63281,0.726563 v 0.234375 z m 3.58593,-0.949219 c -0.32812,0.304687 -0.66796,0.445312 -1.01953,0.445312 -0.63281,0 -1.33593,-0.503906 -1.34765,-1.722656 1.0664,-0.04687 2.1914,-0.128906 2.35547,-0.164062 0.15234,-0.03516 0.19921,-0.105469 0.19921,-0.28125 0,-0.703125 -0.59765,-1.371094 -1.34765,-1.371094 -0.46875,0 -0.94922,0.246094 -1.32422,0.65625 -0.36328,0.410156 -0.59766,0.960937 -0.59766,1.582031 0,1.007813 0.65625,1.910156 1.75782,1.910156 0.28125,0 0.90234,-0.164062 1.46484,-0.867187 z m -1.37109,-2.753906 c 0.49219,0 0.79688,0.421875 0.78516,0.890625 0,0.128906 -0.0469,0.1875 -0.21094,0.1875 -0.52734,0.01172 -1.01953,0.02344 -1.52344,0.02344 0.12891,-0.726562 0.52735,-1.101562 0.94922,-1.101562 z m -272.77734,7.303711 c -0.0469,-0.421875 -0.0937,-1.007813 -0.0937,-1.324219 h -3.96094 v 0.246094 c 0.69141,0.05859 0.76172,0.105468 0.76172,0.890625 v 3.574218 c 0,0.773438 -0.0703,0.832032 -0.78516,0.878907 v 0.257812 h 2.44922 v -0.257812 c -0.82031,-0.04687 -0.89062,-0.105469 -0.89062,-0.878907 v -1.628906 h 0.92578 c 0.82031,0 0.85547,0.105469 0.97265,0.726563 h 0.2461 v -1.734375 h -0.2461 c -0.11718,0.574218 -0.15234,0.65625 -0.97265,0.65625 h -0.92578 v -2.144532 c 0,-0.257812 0.0234,-0.269531 0.28125,-0.269531 h 0.6914 c 0.67969,0 0.87891,0.07031 1.01953,0.316406 0.12891,0.1875 0.17578,0.363282 0.25782,0.726563 z m 1.53808,-0.304688 c 0.25781,0 0.45703,-0.210937 0.45703,-0.457031 0,-0.269531 -0.19922,-0.46875 -0.45703,-0.46875 -0.23437,0 -0.45703,0.199219 -0.45703,0.46875 0,0.246094 0.22266,0.457031 0.45703,0.457031 z m 1.05469,4.828125 v -0.234375 c -0.58594,-0.05859 -0.64453,-0.105469 -0.64453,-0.714844 v -3.105468 c -0.39844,0.152343 -0.82031,0.269531 -1.27735,0.351562 v 0.210938 c 0.53907,0.09375 0.5625,0.128906 0.5625,0.679687 v 1.863281 c 0,0.609375 -0.0586,0.65625 -0.62109,0.714844 v 0.234375 z m 2.3291,0 v -0.234375 c -0.57422,-0.05859 -0.65625,-0.105469 -0.65625,-0.703125 v -5.472656 c -0.30469,0.105469 -0.85547,0.257812 -1.32422,0.316406 v 0.210938 c 0.5625,0.04687 0.6211,0.08203 0.6211,0.691406 v 4.253906 c 0,0.597656 -0.082,0.644531 -0.64453,0.703125 v 0.234375 z m 7.29199,0 v -0.234375 c -0.5039,-0.05859 -0.58593,-0.09375 -0.58593,-0.691406 v -1.734375 c 0,-0.890625 -0.4336,-1.382813 -1.13672,-1.382813 -0.25782,0 -0.49219,0.105469 -0.67969,0.234375 -0.22266,0.140625 -0.48047,0.304688 -0.73828,0.503907 -0.1875,-0.46875 -0.57422,-0.738282 -1.00781,-0.738282 -0.28125,0 -0.50391,0.105469 -0.73829,0.246094 -0.26953,0.164063 -0.46875,0.328125 -0.65625,0.457031 v -0.726562 c -0.39843,0.175781 -0.85546,0.292969 -1.2539,0.363281 v 0.210938 c 0.52734,0.08203 0.55078,0.128906 0.55078,0.703125 v 1.863281 c 0,0.585937 -0.082,0.632812 -0.66797,0.691406 v 0.234375 h 1.89844 v -0.234375 c -0.44531,-0.05859 -0.51563,-0.105469 -0.51563,-0.691406 v -2.121094 c 0.26953,-0.222656 0.6211,-0.46875 0.98438,-0.46875 0.55078,0 0.78515,0.375 0.78515,1.042969 v 1.546875 c 0,0.597656 -0.082,0.632812 -0.64453,0.691406 v 0.234375 h 1.92188 v -0.234375 c -0.49219,-0.05859 -0.57422,-0.105469 -0.57422,-0.679687 v -1.746094 c 0,-0.175781 -0.0117,-0.269531 -0.0234,-0.386719 0.33985,-0.28125 0.67969,-0.46875 1.00781,-0.46875 0.5625,0 0.79688,0.410156 0.79688,1.054688 v 1.5 c 0,0.632812 -0.10547,0.667968 -0.63281,0.726562 v 0.234375 z m 0,0"
         style="fill:#231f20;fill-opacity:1;fill-rule:nonzero;stroke:none"
         aria-label="Pinhole&#10;Viewing&#10;volume&#10;Film"
         transform="matrix(1.3333333,0,0,1.3333333,186.28667,104.5116)" />
      <path
         id="path14"
         d="m 1519.07,189.395 -147.24,234.039 -2.96,-1.868 147.24,-234.035"
         style="fill:#231f20;fill-opacity:1;fill-rule:nonzero;stroke:none"
         transform="matrix(0.13333333,0,0,-0.13333333,0,118.25333)" />
      <path
         id="path15"
         d="m 181.598,343.836 177.289,17.293 -0.34,3.484 -177.289,-17.297"
         style="fill:#231f20;fill-opacity:1;fill-rule:nonzero;stroke:none"
         transform="matrix(0.13333333,0,0,-0.13333333,0,118.25333)" />
      <path
         id="path16"
         d="M 210.527,562.203 H 1068.13"
         style="fill:#f0efef;fill-opacity:1;fill-rule:nonzero;stroke:none"
         transform="matrix(0.13333333,0,0,-0.13333333,0,118.25333)" />
      <path
         id="path17"
         d="m 210.527,559.703 h 857.602 v 5 H 210.527 Z"
         style="fill:#231f20;fill-opacity:1;fill-rule:nonzero;stroke:none"
         transform="matrix(0.13333333,0,0,-0.13333333,0,118.25333)" />
      <path
         id="path18"
         d="M 210.527,2.5 H 1068.13"
         style="fill:#f0efef;fill-opacity:1;fill-rule:nonzero;stroke:none"
         transform="matrix(0.13333333,0,0,-0.13333333,0,118.25333)" />
      <path
         id="path19"
         d="M 210.527,0 H 1068.13 V 5 H 210.527 V 0"
         style="fill:#231f20;fill-opacity:1;fill-rule:nonzero;stroke:none"
         transform="matrix(0.13333333,0,0,-0.13333333,0,118.25333)" />
    </g>
  </g>
</svg>
