<?xml version="1.0" encoding="UTF-8" standalone="no"?>
<!-- Created with Inkscape (http://www.inkscape.org/) -->

<svg
   version="1.1"
   id="svg1"
   width="150"
   height="150"
   viewBox="0 0 150 150"
   sodipodi:docname="pha01f06.eps"
   xmlns:inkscape="http://www.inkscape.org/namespaces/inkscape"
   xmlns:sodipodi="http://sodipodi.sourceforge.net/DTD/sodipodi-0.dtd"
   xmlns="http://www.w3.org/2000/svg"
   xmlns:svg="http://www.w3.org/2000/svg">
  <defs
     id="defs1" />
  <sodipodi:namedview
     id="namedview1"
     pagecolor="#ffffff"
     bordercolor="#000000"
     borderopacity="0.25"
     inkscape:showpageshadow="2"
     inkscape:pageopacity="0.0"
     inkscape:pagecheckerboard="0"
     inkscape:deskcolor="#d1d1d1">
    <inkscape:page
       x="0"
       y="0"
       inkscape:label="1"
       id="page1"
       width="150"
       height="150"
       margin="0"
       bleed="0" />
  </sodipodi:namedview>
  <g
     id="g1"
     inkscape:groupmode="layer"
     inkscape:label="1">
    <g
       id="group-R5">
      <path
         id="path2"
         d="m 316.672,562.5 c 0,136.273 110.469,246.742 246.734,246.742 136.262,0 246.731,-110.469 246.731,-246.742 0,-136.27 -110.469,-246.742 -246.731,-246.742 -136.265,0 -246.734,110.472 -246.734,246.742 z"
         style="fill:none;stroke:#231f20;stroke-width:5;stroke-linecap:butt;stroke-linejoin:miter;stroke-miterlimit:10;stroke-dasharray:29.9979, 19.9986;stroke-dashoffset:0;stroke-opacity:1"
         transform="matrix(0.13333333,0,0,-0.13333333,0,150)" />
      <path
         id="path3"
         d="m 2.5,562.5 c 0,309.277 250.723,560 560,560 309.297,0 560,-250.723 560,-560 0,-309.277 -250.703,-560 -560,-560 -309.277,0 -560,250.723 -560,560 z"
         style="fill:none;stroke:#231f20;stroke-width:5;stroke-linecap:butt;stroke-linejoin:miter;stroke-miterlimit:10;stroke-dasharray:none;stroke-opacity:1"
         transform="matrix(0.13333333,0,0,-0.13333333,0,150)" />
      <path
         id="path4"
         d="M 563.008,561.656 420.762,764.23"
         style="fill:none;stroke:#231f20;stroke-width:5;stroke-linecap:butt;stroke-linejoin:miter;stroke-miterlimit:10;stroke-dasharray:none;stroke-opacity:1"
         transform="matrix(0.13333333,0,0,-0.13333333,0,150)" />
      <path
         id="path5"
         d="M 14.0977,682.309 563.008,562.406"
         style="fill:none;stroke:#231f20;stroke-width:5;stroke-linecap:butt;stroke-linejoin:miter;stroke-miterlimit:10;stroke-dasharray:none;stroke-opacity:1"
         transform="matrix(0.13333333,0,0,-0.13333333,0,150)" />
      <g
         id="g5"
         aria-label="r&#10;2&#10;r&#10;1"
         transform="matrix(1.3333333,0,0,1.3333333,20.419333,73.188)">
        <path
           id="path6"
           d="m 0.56147656,-2.9535 c 0.26953125,-0.2460938 0.55078124,-0.4335938 0.63281254,-0.4335938 0.070312,0 0.070312,0.09375 0.023437,0.3867188 -0.1757813,0.9609375 -0.42187504,2.07421875 -0.65625004,3.03515625 l 0.0703125,0.0703125 C 0.83100781,0.03478125 1.0653828,-0.0238125 1.2646016,-0.05896875 1.3817891,-0.64490625 1.4872578,-1.219125 1.6278828,-1.8167813 c 0.1640625,-0.4101562 0.4453125,-0.8320312 0.6445313,-1.1132812 0.1992187,-0.2929688 0.3398437,-0.3867188 0.4570312,-0.3867188 0.09375,0 0.1992188,0.046875 0.3046875,0.1523438 0.046875,0.046875 0.1171875,0.046875 0.1992188,0 0.082031,-0.070312 0.1640625,-0.1523438 0.234375,-0.2695313 0.070312,-0.1171875 0.070312,-0.2695312 0,-0.3867187 -0.070312,-0.1171875 -0.234375,-0.2226563 -0.3867188,-0.2226563 -0.3515625,0 -0.890625,0.609375 -1.3476562,1.5 h -0.023437 l 0.09375,-0.4570312 c 0.1289062,-0.6328125 0.1171875,-1.0429688 -0.1054688,-1.0429688 -0.2460937,0 -0.79687499,0.375 -1.25390624,0.8789063 z m 0,0"
           style="fill:#231f20;fill-opacity:1;fill-rule:nonzero;stroke:none" />
        <path
           id="path7"
           d="M 5.7675312,1.1568516 C 5.59175,1.5435703 5.5097187,1.5670078 5.1815937,1.5670078 H 4.0683125 l 0.84375,-0.90234374 c 0.5507812,-0.5859375 0.796875,-0.9375 0.796875,-1.46484375 0,-0.62109371 -0.4804688,-1.00781251 -1.0078125,-1.00781251 -0.3515625,0 -0.6328125,0.1523438 -0.8085938,0.3515625 l -0.3398437,0.49218751 0.1289062,0.1171875 C 3.8339375,-1.0814297 4.09175,-1.4095547 4.4901875,-1.4095547 c 0.4453125,0 0.7148437,0.2929688 0.7148437,0.79687501 0,0.515625 -0.375,1.0078125 -0.75,1.453125 C 4.1503437,1.1920078 3.8222187,1.5318516 3.482375,1.8599766 v 0.140625 H 5.7206562 C 5.8026875,1.7310703 5.8612812,1.4615391 5.9315937,1.2154453 Z m 0,0"
           style="fill:#231f20;fill-opacity:1;fill-rule:nonzero;stroke:none" />
        <path
           id="path8"
           d="m 34.437453,-16.066781 c 0.269531,-0.246094 0.550781,-0.433594 0.632813,-0.433594 0.07031,0 0.07031,0.09375 0.02344,0.386719 -0.175781,0.960937 -0.421875,2.074218 -0.65625,3.035156 l 0.07031,0.07031 c 0.199218,-0.07031 0.433593,-0.128906 0.632812,-0.164062 0.117188,-0.585938 0.222656,-1.160156 0.363281,-1.757813 0.164063,-0.410156 0.445313,-0.832031 0.644532,-1.113281 0.199218,-0.292969 0.339843,-0.386719 0.457031,-0.386719 0.09375,0 0.199219,0.04687 0.304687,0.152344 0.04687,0.04687 0.117188,0.04687 0.199219,0 0.08203,-0.07031 0.164063,-0.152344 0.234375,-0.269531 0.07031,-0.117188 0.07031,-0.269531 0,-0.386719 -0.07031,-0.117187 -0.234375,-0.222656 -0.386719,-0.222656 -0.351562,0 -0.890625,0.609375 -1.347656,1.5 h -0.02344 l 0.09375,-0.457031 c 0.128906,-0.632813 0.117187,-1.042969 -0.105469,-1.042969 -0.246094,0 -0.796875,0.375 -1.253906,0.878906 z m 0,0"
           style="fill:#231f20;fill-opacity:1;fill-rule:nonzero;stroke:none" />
        <path
           id="path9"
           d="m 39.476516,-11.11268 v -0.164062 c -0.550782,-0.03516 -0.585938,-0.09375 -0.585938,-0.515625 v -3.128906 c -0.328125,0.128906 -0.679687,0.246093 -1.066406,0.316406 v 0.128906 l 0.28125,0.01172 c 0.269531,0.01172 0.292969,0.04687 0.292969,0.363281 v 2.308594 c 0,0.421875 -0.03516,0.480469 -0.574219,0.515625 v 0.164062 z m 0,0"
           style="fill:#231f20;fill-opacity:1;fill-rule:nonzero;stroke:none" />
      </g>
      <path
         id="path10"
         d="m 557.52,643.176 5.656,-21.965 10.105,20.305 0.965,-22.661 14.106,17.762 -3.75,-22.367 17.476,14.441 -8.328,-21.097 20.117,10.492 -12.539,-18.906 21.856,6.078 -16.192,-15.883 22.637,1.402 -19.133,-12.172 22.434,-3.335 -21.25,-7.926 21.25,-7.93 -22.434,-3.336 19.133,-12.172 -22.637,1.407 16.192,-15.883 -21.856,6.074 12.539,-18.902 -20.117,10.488 8.328,-21.094 -17.476,14.438 3.75,-22.368 -14.106,17.758 -0.965,-22.656 -10.105,20.309 -5.656,-21.969 -5.672,21.969 -10.102,-20.309 -0.976,22.656 -14.11,-17.758 3.77,22.368 -17.492,-14.438 8.332,21.094 -20.11,-10.488 12.531,18.902 -21.843,-6.074 16.179,15.883 -22.636,-1.407 19.14,12.172 -22.429,3.336 21.238,7.93 -21.238,7.926 22.429,3.335 -19.14,12.172 22.636,-1.402 -16.179,15.883 21.843,-6.078 -12.531,18.906 20.11,-10.492 -8.332,21.097 17.492,-14.441 -3.77,22.367 14.11,-17.762 0.976,22.661 10.102,-20.305 5.672,21.965"
         style="fill:#fddd1b;fill-opacity:1;fill-rule:nonzero;stroke:none"
         transform="matrix(0.13333333,0,0,-0.13333333,0,150)" />
      <path
         id="path11"
         d="m 557.52,643.176 5.656,-21.965 10.105,20.305 0.965,-22.661 14.106,17.762 -3.75,-22.367 17.476,14.441 -8.328,-21.097 20.117,10.492 -12.539,-18.906 21.856,6.078 -16.192,-15.883 22.637,1.402 -19.133,-12.172 22.434,-3.335 -21.25,-7.926 21.25,-7.93 -22.434,-3.336 19.133,-12.172 -22.637,1.407 16.192,-15.883 -21.856,6.074 12.539,-18.902 -20.117,10.488 8.328,-21.094 -17.476,14.438 3.75,-22.368 -14.106,17.758 -0.965,-22.656 -10.105,20.309 -5.656,-21.969 -5.672,21.969 -10.102,-20.309 -0.976,22.656 -14.11,-17.758 3.77,22.368 -17.492,-14.438 8.332,21.094 -20.11,-10.488 12.531,18.902 -21.843,-6.074 16.179,15.883 -22.636,-1.407 19.14,12.172 -22.429,3.336 21.238,7.93 -21.238,7.926 22.429,3.335 -19.14,12.172 22.636,-1.402 -16.179,15.883 21.843,-6.078 -12.531,18.906 20.11,-10.492 -8.332,21.097 17.492,-14.441 -3.77,22.367 14.11,-17.762 0.976,22.661 10.102,-20.305 z"
         style="fill:none;stroke:#231f20;stroke-width:3.5;stroke-linecap:butt;stroke-linejoin:miter;stroke-miterlimit:7;stroke-dasharray:none;stroke-opacity:1"
         transform="matrix(0.13333333,0,0,-0.13333333,0,150)" />
    </g>
  </g>
</svg>
