<?xml version="1.0" encoding="UTF-8" standalone="no"?>
<!-- Created with Inkscape (http://www.inkscape.org/) -->

<svg
   version="1.1"
   id="svg1"
   width="160.36"
   height="83.160004"
   viewBox="0 0 160.36 83.160004"
   sodipodi:docname="pha01f03.eps"
   xmlns:inkscape="http://www.inkscape.org/namespaces/inkscape"
   xmlns:sodipodi="http://sodipodi.sourceforge.net/DTD/sodipodi-0.dtd"
   xmlns="http://www.w3.org/2000/svg"
   xmlns:svg="http://www.w3.org/2000/svg">
  <defs
     id="defs1" />
  <sodipodi:namedview
     id="namedview1"
     pagecolor="#ffffff"
     bordercolor="#000000"
     borderopacity="0.25"
     inkscape:showpageshadow="2"
     inkscape:pageopacity="0.0"
     inkscape:pagecheckerboard="0"
     inkscape:deskcolor="#d1d1d1">
    <inkscape:page
       x="0"
       y="0"
       inkscape:label="1"
       id="page1"
       width="160.36"
       height="83.160004"
       margin="0"
       bleed="0" />
  </sodipodi:namedview>
  <g
     id="g1"
     inkscape:groupmode="layer"
     inkscape:label="1">
    <g
       id="group-R5">
      <path
         id="path2"
         d="m 216.48,353.09 985.83,-73.328 0.37,4.988 -985.828,73.324 -0.372,-4.984"
         style="fill:#231f20;fill-opacity:1;fill-rule:nonzero;stroke:none"
         transform="matrix(0.13333333,0,0,-0.13333333,0,83.16)" />
      <path
         id="path3"
         d="M 216.547,354.375 1095.8,0 l 1.87,4.63672 -879.256,354.37528 -1.867,-4.637"
         style="fill:#231f20;fill-opacity:1;fill-rule:nonzero;stroke:none"
         transform="matrix(0.13333333,0,0,-0.13333333,0,83.16)" />
      <path
         id="path4"
         d="M 685.895,175.719 V 318.172 L 886.477,303.254 685.895,175.719 m 205.918,132.152 -205.918,15.317 v 79.296 L 891.813,533.406 V 307.871"
         style="fill:#bdbcbc;fill-opacity:1;fill-rule:nonzero;stroke:none"
         transform="matrix(0.13333333,0,0,-0.13333333,0,83.16)" />
      <path
         id="path5"
         d="m 886.477,303.254 -200.582,14.918 v 5.016 l 205.918,-15.317 v -1.226 l -5.336,-3.391"
         style="fill:#868485;fill-opacity:1;fill-rule:nonzero;stroke:none"
         transform="matrix(0.13333333,0,0,-0.13333333,0,83.16)" />
      <path
         id="path6"
         d="m 686.668,170.285 -5.773,2.328 v 145.934 l 5,-0.375 V 175.719 l 200.582,127.535 8.343,-0.621 -208.152,-132.348 m 210.145,137.215 -5,0.371 V 533.406 L 685.895,402.484 v -79.296 l -5,0.371 v 80.296 l 1.156,2.114 210.918,134.101 3.844,-2.113 V 307.5 m -2.5,230.457 v 0"
         style="fill:#5a5758;fill-opacity:1;fill-rule:nonzero;stroke:none"
         transform="matrix(0.13333333,0,0,-0.13333333,0,83.16)" />
      <path
         id="path7"
         d="m 894.82,302.633 -8.343,0.621 5.336,3.391 v 1.226 l 5,-0.371 v -2.227 l -1.161,-2.109 -0.832,-0.531"
         style="fill:#231f20;fill-opacity:1;fill-rule:nonzero;stroke:none"
         transform="matrix(0.13333333,0,0,-0.13333333,0,83.16)" />
      <path
         id="path8"
         d="m 684.734,169.059 -3.839,2.109 v 1.445 l 5.773,-2.328 -1.934,-1.226"
         style="fill:#231f20;fill-opacity:1;fill-rule:nonzero;stroke:none"
         transform="matrix(0.13333333,0,0,-0.13333333,0,83.16)" />
      <path
         id="path9"
         d="m 685.895,318.172 -5,0.375 v 5.012 l 5,-0.371 v -5.016"
         style="fill:#231f20;fill-opacity:1;fill-rule:nonzero;stroke:none"
         transform="matrix(0.13333333,0,0,-0.13333333,0,83.16)" />
      <path
         id="path10"
         d="m 218.793,354.031 981.727,101.25 -0.51,4.973 -981.733,-101.25"
         style="fill:#231f20;fill-opacity:1;fill-rule:nonzero;stroke:none"
         transform="matrix(0.13333333,0,0,-0.13333333,0,83.16)" />
      <path
         id="path11"
         d="m 218.137,354.984 971.183,263.848 -1.31,4.824 -971.186,-263.847"
         style="fill:#231f20;fill-opacity:1;fill-rule:nonzero;stroke:none"
         transform="matrix(0.13333333,0,0,-0.13333333,0,83.16)" />
      <path
         id="path12"
         d="M 4.441825,-4.5246844 C 4.39495,-4.9465594 4.348075,-5.5324969 4.348075,-5.8489031 H 0.3871375 v 0.2460937 c 0.6914062,0.058594 0.7617187,0.1054688 0.7617187,0.890625 v 3.5742188 c 0,0.77343748 -0.070312,0.83203123 -0.7851562,0.87890623 v 0.2578125 h 2.4492187 v -0.2578125 C 1.9926062,-0.30593437 1.9222937,-0.36452812 1.9222937,-1.1379656 V -2.7668719 H 2.848075 c 0.8203125,0 0.8554687,0.1054688 0.9726562,0.7265625 H 4.066825 v -1.734375 H 3.8207312 c -0.1171875,0.5742188 -0.1523437,0.65625 -0.9726562,0.65625 H 1.9222937 v -2.1445312 c 0,-0.2578125 0.023437,-0.2695313 0.28125,-0.2695313 H 2.89495 c 0.6796875,0 0.8789062,0.070312 1.0195312,0.3164063 0.1289063,0.1875 0.1757813,0.3632812 0.2578125,0.7265625 z m 1.5380859,-0.3046875 c 0.2578125,0 0.4570313,-0.2109375 0.4570313,-0.4570312 0,-0.2695313 -0.1992188,-0.46875 -0.4570313,-0.46875 -0.234375,0 -0.4570312,0.1992187 -0.4570312,0.46875 0,0.2460937 0.2226562,0.4570312 0.4570312,0.4570312 z m 1.0546875,4.82812503 v -0.234375 C 6.4486609,-0.29421562 6.3900672,-0.34109062 6.3900672,-0.95046562 V -4.0559344 c -0.3984375,0.1523438 -0.8203125,0.2695313 -1.2773438,0.3515625 v 0.2109375 c 0.5390625,0.09375 0.5625,0.1289063 0.5625,0.6796875 v 1.86328128 c 0,0.609375 -0.058594,0.65625 -0.6210937,0.71484375 v 0.234375 z m 2.3291016,0 v -0.234375 C 8.7894812,-0.29421562 8.70745,-0.34109062 8.70745,-0.93874687 V -6.4114031 c -0.3046875,0.1054687 -0.8554688,0.2578125 -1.3242188,0.3164062 v 0.2109375 c 0.5625,0.046875 0.6210938,0.082031 0.6210938,0.6914063 v 4.25390623 c 0,0.59765625 -0.082031,0.64453125 -0.6445313,0.703125 v 0.234375 z m 7.291992,0 v -0.234375 c -0.503906,-0.0585938 -0.585937,-0.09375 -0.585937,-0.69140625 V -2.6614031 c 0,-0.890625 -0.433594,-1.3828125 -1.136719,-1.3828125 -0.257813,0 -0.492188,0.1054687 -0.679688,0.234375 -0.222656,0.140625 -0.480468,0.3046875 -0.738281,0.5039062 -0.1875,-0.46875 -0.574219,-0.7382812 -1.007812,-0.7382812 -0.28125,0 -0.503907,0.1054687 -0.738282,0.2460937 -0.269531,0.1640625 -0.46875,0.328125 -0.65625,0.4570313 v -0.7265625 c -0.398437,0.1757812 -0.855468,0.2929687 -1.2539058,0.3632812 v 0.2109375 c 0.5273438,0.082031 0.5507808,0.1289063 0.5507808,0.703125 v 1.86328128 c 0,0.5859375 -0.08203,0.6328125 -0.6679683,0.69140625 v 0.234375 h 1.8984373 v -0.234375 c -0.445312,-0.0585938 -0.515625,-0.10546875 -0.515625,-0.69140625 V -3.0481219 c 0.269531,-0.2226562 0.621094,-0.46875 0.984375,-0.46875 0.550781,0 0.785156,0.375 0.785156,1.0429688 v 1.54687498 c 0,0.59765625 -0.08203,0.6328125 -0.644531,0.69140625 v 0.234375 h 1.921875 v -0.234375 c -0.492187,-0.0585938 -0.574219,-0.10546875 -0.574219,-0.6796875 V -2.6614031 c 0,-0.1757813 -0.01172,-0.2695313 -0.02344,-0.3867188 0.339844,-0.28125 0.679687,-0.46875 1.007812,-0.46875 0.5625,0 0.796875,0.4101563 0.796875,1.0546875 v 1.50000003 c 0,0.6328125 -0.105468,0.66796875 -0.632812,0.7265625 v 0.234375 z m 0,0"
         style="fill:#231f20;fill-opacity:1;fill-rule:nonzero;stroke:none"
         aria-label="Film"
         transform="matrix(1.3333333,0,0,1.3333333,110.01507,60.3376)" />
      <path
         id="path13"
         d="m 160.703,417.098 c 25.547,-41.914 20.188,-80.649 -14.734,-107.528 -45.242,39.594 -91.2034,57.696 -125.4768,69.871 1.457,0.188 2.9023,0.266 4.4609,0.442 41.8516,4.082 85.0509,8.219 135.7499,37.215"
         style="fill:#bdbcbc;fill-opacity:1;fill-rule:nonzero;stroke:none"
         transform="matrix(0.13333333,0,0,-0.13333333,0,83.16)" />
      <path
         id="path14"
         d="m 167.875,421.379 c 27.254,-44.856 21.449,-88.219 -15.574,-117.551 5.492,-5.09 11.019,-10.41 16.437,-16.187 l -6.093,-5.676 C 107.66,340.113 47.8008,360.996 8.20313,374.813 L 0,377.77 c 0,0 1.14453,1.835 1.36719,3.871 0.23437,2.035 -0.42969,4.226 -0.42969,4.226 7.79297,0.832 15.4688,1.66 23.1563,2.363 49.6406,4.797 96.5312,9.239 156.5272,51.438 l 4.793,-6.809 c -5.937,-4.207 -11.781,-7.968 -17.539,-11.48 z M 145.969,309.57 c 34.922,26.879 40.281,65.614 14.734,107.528 -50.699,-28.996 -93.8983,-33.133 -135.7499,-37.215 -1.5586,-0.176 -3.0039,-0.254 -4.4609,-0.442 34.2734,-12.175 80.2348,-30.277 125.4768,-69.871"
         style="fill:#231f20;fill-opacity:1;fill-rule:nonzero;stroke:none"
         transform="matrix(0.13333333,0,0,-0.13333333,0,83.16)" />
      <path
         id="path15"
         d="m 171.391,359.402 c -2.868,-18.058 -14.489,-31.211 -25.938,-29.386 -11.484,1.847 -18.414,17.957 -15.531,35.992 2.871,18.062 14.504,31.203 25.957,29.387 11.465,-1.821 18.414,-17.946 15.512,-35.993"
         style="fill:#ffffff;fill-opacity:1;fill-rule:nonzero;stroke:none"
         transform="matrix(0.13333333,0,0,-0.13333333,0,83.16)" />
      <path
         id="path16"
         d="m 167.457,356.285 c -1.582,-7.644 -8.18,-12.746 -14.742,-11.383 -6.567,1.348 -10.602,8.633 -9.024,16.289 1.582,7.657 8.172,12.758 14.743,11.407 6.566,-1.368 10.597,-8.664 9.023,-16.313"
         style="fill:#231f20;fill-opacity:1;fill-rule:nonzero;stroke:none"
         transform="matrix(0.13333333,0,0,-0.13333333,0,83.16)" />
    </g>
  </g>
</svg>
