<?xml version="1.0" encoding="UTF-8" standalone="no"?>
<!-- Created with Inkscape (http://www.inkscape.org/) -->

<svg
   version="1.1"
   id="svg1"
   width="254.49333"
   height="167.13333"
   viewBox="0 0 254.49333 167.13333"
   sodipodi:docname="pha06f13.eps"
   xmlns:inkscape="http://www.inkscape.org/namespaces/inkscape"
   xmlns:sodipodi="http://sodipodi.sourceforge.net/DTD/sodipodi-0.dtd"
   xmlns="http://www.w3.org/2000/svg"
   xmlns:svg="http://www.w3.org/2000/svg">
  <defs
     id="defs1" />
  <sodipodi:namedview
     id="namedview1"
     pagecolor="#ffffff"
     bordercolor="#000000"
     borderopacity="0.25"
     inkscape:showpageshadow="2"
     inkscape:pageopacity="0.0"
     inkscape:pagecheckerboard="0"
     inkscape:deskcolor="#d1d1d1">
    <inkscape:page
       x="0"
       y="0"
       inkscape:label="1"
       id="page1"
       width="254.49333"
       height="167.13333"
       margin="0"
       bleed="0" />
  </sodipodi:namedview>
  <g
     id="g1"
     inkscape:groupmode="layer"
     inkscape:label="1">
    <g
       id="group-R5">
      <path
         id="path2"
         d="M 647.703,1119.5 106.848,134.699 1362.23,132.512 647.367,1122.47"
         style="fill:#e5e4e4;fill-opacity:1;fill-rule:evenodd;stroke:#231f20;stroke-width:5;stroke-linecap:butt;stroke-linejoin:miter;stroke-miterlimit:10;stroke-dasharray:none;stroke-opacity:1"
         transform="matrix(0.13333333,0,0,-0.13333333,0,167.13333)" />
      <path
         id="path3"
         d="m 648.809,1121.51 -1.106,-2.01"
         style="fill:#aba9aa;fill-opacity:1;fill-rule:evenodd;stroke:#231f20;stroke-width:10;stroke-linecap:butt;stroke-linejoin:miter;stroke-miterlimit:10;stroke-dasharray:none;stroke-opacity:1"
         transform="matrix(0.13333333,0,0,-0.13333333,0,167.13333)" />
      <path
         id="path4"
         d="m 1351.94,132.59 c 0,6.5 5.27,11.762 11.77,11.762 6.49,0 11.76,-5.262 11.76,-11.762 0,-6.488 -5.27,-11.762 -11.76,-11.762 -6.5,0 -11.77,5.274 -11.77,11.762"
         style="fill:#231f20;fill-opacity:1;fill-rule:nonzero;stroke:none"
         transform="matrix(0.13333333,0,0,-0.13333333,0,167.13333)" />
      <path
         id="path5"
         d="m 1351.94,132.59 c 0,6.5 5.27,11.762 11.77,11.762 6.49,0 11.76,-5.262 11.76,-11.762 0,-6.488 -5.27,-11.762 -11.76,-11.762 -6.5,0 -11.77,5.274 -11.77,11.762 z"
         style="fill:none;stroke:#231f20;stroke-width:10;stroke-linecap:butt;stroke-linejoin:miter;stroke-miterlimit:10;stroke-dasharray:none;stroke-opacity:1"
         transform="matrix(0.13333333,0,0,-0.13333333,0,167.13333)" />
      <path
         id="path6"
         d="m 636.223,1121.87 c 0,6.5 5.261,11.77 11.757,11.77 6.497,0 11.766,-5.27 11.766,-11.77 0,-6.49 -5.269,-11.76 -11.766,-11.76 -6.496,0 -11.757,5.27 -11.757,11.76"
         style="fill:#231f20;fill-opacity:1;fill-rule:nonzero;stroke:none"
         transform="matrix(0.13333333,0,0,-0.13333333,0,167.13333)" />
      <path
         id="path7"
         d="m 636.223,1121.87 c 0,6.5 5.261,11.77 11.757,11.77 6.497,0 11.766,-5.27 11.766,-11.77 0,-6.49 -5.269,-11.76 -11.766,-11.76 -6.496,0 -11.757,5.27 -11.757,11.76 z"
         style="fill:none;stroke:#231f20;stroke-width:10;stroke-linecap:butt;stroke-linejoin:miter;stroke-miterlimit:10;stroke-dasharray:none;stroke-opacity:1"
         transform="matrix(0.13333333,0,0,-0.13333333,0,167.13333)" />
      <path
         id="path8"
         d="m 1364.58,134.359 541.96,986.821"
         style="fill:none;stroke:#231f20;stroke-width:5;stroke-linecap:butt;stroke-linejoin:miter;stroke-miterlimit:10;stroke-dasharray:30, 20;stroke-dashoffset:0;stroke-opacity:1"
         transform="matrix(0.13333333,0,0,-0.13333333,0,167.13333)" />
      <path
         id="path9"
         d="M 1315.51,132.582 102.09,134.789"
         style="fill:none;stroke:#231f20;stroke-width:5;stroke-linecap:butt;stroke-linejoin:miter;stroke-miterlimit:10;stroke-dasharray:none;stroke-opacity:1"
         transform="matrix(0.13333333,0,0,-0.13333333,0,167.13333)" />
      <path
         id="path10"
         d="m 1306.53,132.602 -10.99,-18 0.62,-0.411 29.4,11.618 c 10.23,2.23 20.47,4.461 30.71,6.703 -10.23,2.269 -20.46,4.539 -30.69,6.808 l -29.35,11.719 -0.62,-0.301 10.92,-18.136"
         style="fill:#231f20;fill-opacity:1;fill-rule:nonzero;stroke:none"
         transform="matrix(0.13333333,0,0,-0.13333333,0,167.13333)" />
      <path
         id="path11"
         d="m 649.531,1122.5 1257.789,-2.39"
         style="fill:none;stroke:#231f20;stroke-width:5;stroke-linecap:butt;stroke-linejoin:miter;stroke-miterlimit:10;stroke-dasharray:30, 20;stroke-dashoffset:0;stroke-opacity:1"
         transform="matrix(0.13333333,0,0,-0.13333333,0,167.13333)" />
      <path
         id="path12"
         d="M 105.137,136.859 625.641,1079.42"
         style="fill:none;stroke:#231f20;stroke-width:5;stroke-linecap:butt;stroke-linejoin:miter;stroke-miterlimit:10;stroke-dasharray:none;stroke-opacity:1"
         transform="matrix(0.13333333,0,0,-0.13333333,0,167.13333)" />
      <path
         id="path13"
         d="m 621.305,1071.57 -21.071,-0.89 -0.058,0.74 24.414,20.07 c 6.918,7.87 13.84,15.74 20.758,23.62 -2.981,-10.05 -5.953,-20.1 -8.93,-30.15 l -3.984,-31.35 -0.571,-0.4 -10.558,18.36"
         style="fill:#231f20;fill-opacity:1;fill-rule:nonzero;stroke:none"
         transform="matrix(0.13333333,0,0,-0.13333333,0,167.13333)" />
      <path
         id="path14"
         d="m 90.3281,135.84 c 0,6.5 5.2696,11.769 11.7619,11.769 6.496,0 11.762,-5.269 11.762,-11.769 0,-6.488 -5.266,-11.75 -11.762,-11.75 -6.4923,0 -11.7619,5.262 -11.7619,11.75"
         style="fill:#231f20;fill-opacity:1;fill-rule:nonzero;stroke:none"
         transform="matrix(0.13333333,0,0,-0.13333333,0,167.13333)" />
      <path
         id="path15"
         d="m 90.3281,135.84 c 0,6.5 5.2696,11.769 11.7619,11.769 6.496,0 11.762,-5.269 11.762,-11.769 0,-6.488 -5.266,-11.75 -11.762,-11.75 -6.4923,0 -11.7619,5.262 -11.7619,11.75 z"
         style="fill:none;stroke:#231f20;stroke-width:10;stroke-linecap:butt;stroke-linejoin:miter;stroke-miterlimit:10;stroke-dasharray:none;stroke-opacity:1"
         transform="matrix(0.13333333,0,0,-0.13333333,0,167.13333)" />
      <g
         id="g15"
         aria-label="p&#10;0&#10;p&#10;1&#10;p&#10;2&#10;v&#10;1&#10;v&#10;2"
         transform="matrix(1.3333333,0,0,1.3333333,0,158.70416)">
        <path
           id="path16"
           d="m 1.0195312,-2.2859325 v -0.46875 C 0.7265625,-2.637495 0.3984375,-2.543745 0.140625,-2.49687 v 0.140625 c 0.375,0.046875 0.3984375,0.058594 0.3984375,0.4570312 v 2.7070313 c 0,0.3984375 -0.0585938,0.4335937 -0.43359375,0.46875 V 1.44063 H 1.5234375 V 1.2765675 C 1.0546875,1.2296925 1.0195312,1.206255 1.0195312,0.74922375 V -0.0359325 c 0.070312,0.046875 0.234375,0.10546875 0.4101563,0.10546875 0.7734375,-0.140625 1.4882813,-0.7265625 1.4882813,-1.62890625 0,-0.5976563 -0.3867188,-1.1367188 -1.0546876,-1.1367188 -0.070312,0 -0.1875,0.035156 -0.2929687,0.09375 z m 0,0.1992187 c 0.1523438,-0.1171875 0.3984375,-0.2460937 0.5976563,-0.2460937 0.4335938,0 0.796875,0.3632812 0.796875,0.9960937 0,0.67968755 -0.328125,1.1132813 -0.8320313,1.1132813 -0.2109375,0 -0.4335937,-0.09375 -0.5625,-0.234375 z m 5.1386719,0.2783204 c -0.9023437,0 -1.2304687,1.06640621 -1.2304687,1.94531246 0,0.94921874 0.328125,1.93359374 1.2304687,1.93359374 0.9023438,0 1.21875,-1.0664062 1.21875,-1.94531249 0,-0.92578125 -0.3164062,-1.93359371 -1.21875,-1.93359371 z m -0.011719,0.1992187 c 0.5390625,0 0.6914062,0.89062501 0.6914062,1.73437501 0,0.84375 -0.140625,1.74609379 -0.6796875,1.74609379 -0.5273437,0 -0.703125,-0.91406254 -0.703125,-1.74609379 0,-0.83203125 0.1523438,-1.73437501 0.6914063,-1.73437501 z M 139.67285,-2.2859325 v -0.46875 c -0.29297,0.1171875 -0.62109,0.2109375 -0.8789,0.2578125 v 0.140625 c 0.375,0.046875 0.39843,0.058594 0.39843,0.4570312 v 2.7070313 c 0,0.3984375 -0.0586,0.4335937 -0.43359,0.46875 V 1.44063 h 1.41797 V 1.2765675 c -0.46875,-0.046875 -0.50391,-0.070312 -0.50391,-0.52734375 V -0.0359325 c 0.0703,0.046875 0.23438,0.10546875 0.41016,0.10546875 0.77344,-0.140625 1.48828,-0.7265625 1.48828,-1.62890625 0,-0.5976563 -0.38672,-1.1367188 -1.05469,-1.1367188 -0.0703,0 -0.1875,0.035156 -0.29297,0.09375 z m 0,0.1992187 c 0.15235,-0.1171875 0.39844,-0.2460937 0.59766,-0.2460937 0.43359,0 0.79687,0.3632812 0.79687,0.9960937 0,0.67968755 -0.32812,1.1132813 -0.83203,1.1132813 -0.21094,0 -0.43359,-0.09375 -0.5625,-0.234375 z m 6.00586,4.0869141 V 1.8361378 c -0.55078,-0.035156 -0.58594,-0.09375 -0.58594,-0.515625 v -3.1289062 c -0.32812,0.1289062 -0.67968,0.2460937 -1.0664,0.3164062 v 0.1289063 l 0.28125,0.011719 c 0.26953,0.011719 0.29297,0.046875 0.29297,0.36328126 V 1.3205128 c 0,0.421875 -0.0352,0.4804688 -0.57422,0.515625 V 2.0002003 Z M 60.791016,-113.88652 v -0.46875 c -0.292969,0.11719 -0.621094,0.21094 -0.878907,0.25781 v 0.14063 c 0.375,0.0469 0.398438,0.0586 0.398438,0.45703 v 2.70703 c 0,0.39844 -0.05859,0.4336 -0.433594,0.46875 v 0.16406 h 1.417969 v -0.16406 c -0.46875,-0.0469 -0.503906,-0.0703 -0.503906,-0.52734 v -0.78516 c 0.07031,0.0469 0.234375,0.10547 0.410156,0.10547 0.773437,-0.14062 1.488281,-0.72656 1.488281,-1.62891 0,-0.59765 -0.386719,-1.13671 -1.054687,-1.13671 -0.07031,0 -0.1875,0.0352 -0.292969,0.0937 z m 0,0.19922 c 0.152343,-0.11719 0.398437,-0.24609 0.597656,-0.24609 0.433594,0 0.796875,0.36328 0.796875,0.99609 0,0.67969 -0.328125,1.11328 -0.832031,1.11328 -0.210938,0 -0.433594,-0.0937 -0.5625,-0.23437 z m 6.169921,3.24316 c -0.175781,0.38672 -0.257812,0.41016 -0.585937,0.41016 h -1.113281 l 0.84375,-0.90234 c 0.550781,-0.58594 0.796875,-0.9375 0.796875,-1.46485 0,-0.62109 -0.480469,-1.00781 -1.007813,-1.00781 -0.351562,0 -0.632812,0.15234 -0.808594,0.35156 l -0.339843,0.49219 0.128906,0.11719 c 0.152344,-0.23438 0.410156,-0.5625 0.808594,-0.5625 0.445312,0 0.714843,0.29297 0.714843,0.79687 0,0.51563 -0.375,1.00782 -0.75,1.45313 -0.304687,0.35156 -0.632812,0.6914 -0.972656,1.01953 v 0.14062 h 2.238281 c 0.08203,-0.26953 0.140625,-0.53906 0.210938,-0.78515 z m 0,0"
           style="fill:#231f20;fill-opacity:1;fill-rule:nonzero;stroke:none" />
        <path
           id="path17"
           d="m 76.570312,-2.8806591 h -1.605468 v 0.2578125 c 0.492187,0.082031 0.539062,0.1875 0.421875,0.5390625 -0.199219,0.609375 -0.480469,1.42968754 -0.714844,1.95703129 -0.175781,-0.46875 -0.515625,-1.37109379 -0.738281,-2.00390629 -0.128907,-0.3398437 -0.09375,-0.4101562 0.351562,-0.4921875 v -0.2578125 h -2.085937 v 0.2578125 c 0.457031,0.09375 0.550781,0.1875 0.726562,0.6210938 0.433594,1.04296874 0.84375,2.07421874 1.277344,3.1757812 h 0.316406 c 0.515625,-1.35937496 0.972656,-2.4375 1.289063,-3.1523437 0.210937,-0.46875 0.304687,-0.5625 0.761718,-0.6445313 z m 0,0"
           style="fill:#231f20;fill-opacity:1;fill-rule:nonzero;stroke:none" />
        <path
           id="path18"
           d="M 78.729492,3.081255 V 2.9171925 c -0.550781,-0.035156 -0.585937,-0.09375 -0.585937,-0.515625 V -0.72733875 C 77.81543,-0.5984325 77.463867,-0.481245 77.077148,-0.4109325 v 0.12890625 l 0.28125,0.0117188 c 0.269532,0.0117188 0.292969,0.046875 0.292969,0.36328125 v 2.3085937 c 0,0.421875 -0.03516,0.4804687 -0.574219,0.515625 V 3.081255 Z m 0,0"
           style="fill:#231f20;fill-opacity:1;fill-rule:nonzero;stroke:none" />
        <path
           id="path19"
           d="m 30.351562,-60.238081 h -1.605468 v 0.257813 c 0.492187,0.08203 0.539062,0.1875 0.421875,0.539062 -0.199219,0.609375 -0.480469,1.429688 -0.714844,1.957031 -0.175781,-0.46875 -0.515625,-1.371093 -0.738281,-2.003906 -0.128907,-0.339844 -0.09375,-0.410156 0.351562,-0.492187 v -0.257813 h -2.085937 v 0.257813 c 0.457031,0.09375 0.550781,0.1875 0.726562,0.621093 0.433594,1.042969 0.84375,2.074219 1.277344,3.175782 h 0.316406 c 0.515625,-1.359375 0.972656,-2.4375 1.289063,-3.152344 0.210937,-0.46875 0.304687,-0.5625 0.761718,-0.644531 z m 0,0"
           style="fill:#231f20;fill-opacity:1;fill-rule:nonzero;stroke:none" />
        <path
           id="path20"
           d="m 32.674805,-55.119917 c -0.175782,0.386719 -0.257813,0.410156 -0.585938,0.410156 h -1.113281 l 0.84375,-0.902343 c 0.550781,-0.585938 0.796875,-0.9375 0.796875,-1.464844 0,-0.621094 -0.480469,-1.007813 -1.007813,-1.007813 -0.351562,0 -0.632812,0.152344 -0.808593,0.351563 l -0.339844,0.492187 0.128906,0.117188 c 0.152344,-0.234375 0.410156,-0.5625 0.808594,-0.5625 0.445312,0 0.714844,0.292969 0.714844,0.796875 0,0.515625 -0.375,1.007812 -0.75,1.453125 -0.304688,0.351562 -0.632813,0.691406 -0.972657,1.019531 v 0.140625 h 2.238282 c 0.08203,-0.269531 0.140625,-0.539062 0.210937,-0.785156 z m 0,0"
           style="fill:#231f20;fill-opacity:1;fill-rule:nonzero;stroke:none" />
      </g>
    </g>
  </g>
</svg>
