<?xml version="1.0" encoding="UTF-8" standalone="no"?>
<!-- Created with Inkscape (http://www.inkscape.org/) -->

<svg
   version="1.1"
   id="svg1"
   width="223.05333"
   height="113.56"
   viewBox="0 0 223.05333 113.56"
   sodipodi:docname="pha06f12.eps"
   xmlns:inkscape="http://www.inkscape.org/namespaces/inkscape"
   xmlns:sodipodi="http://sodipodi.sourceforge.net/DTD/sodipodi-0.dtd"
   xmlns="http://www.w3.org/2000/svg"
   xmlns:svg="http://www.w3.org/2000/svg">
  <defs
     id="defs1" />
  <sodipodi:namedview
     id="namedview1"
     pagecolor="#ffffff"
     bordercolor="#000000"
     borderopacity="0.25"
     inkscape:showpageshadow="2"
     inkscape:pageopacity="0.0"
     inkscape:pagecheckerboard="0"
     inkscape:deskcolor="#d1d1d1">
    <inkscape:page
       x="0"
       y="0"
       inkscape:label="1"
       id="page1"
       width="223.05333"
       height="113.56"
       margin="0"
       bleed="0" />
  </sodipodi:namedview>
  <g
     id="g1"
     inkscape:groupmode="layer"
     inkscape:label="1">
    <g
       id="group-R5">
      <path
         id="path2"
         d="M 985.422,3.6875 1658.66,172.969 1362.31,837.441 Z"
         style="fill:none;stroke:#231f20;stroke-width:5;stroke-linecap:butt;stroke-linejoin:miter;stroke-miterlimit:10;stroke-dasharray:none;stroke-opacity:1"
         transform="matrix(0.13333333,0,0,-0.13333333,0,113.56)" />
      <path
         id="path3"
         d="M 483.313,343.672 H 1371.92"
         style="fill:none;stroke:#231f20;stroke-width:5;stroke-linecap:butt;stroke-linejoin:miter;stroke-miterlimit:10;stroke-dasharray:30, 20;stroke-dashoffset:0;stroke-opacity:1"
         transform="matrix(0.13333333,0,0,-0.13333333,0,113.56)" />
      <path
         id="path4"
         d="M 136.887,343.672 H 442.551"
         style="fill:none;stroke:#231f20;stroke-width:5;stroke-linecap:butt;stroke-linejoin:miter;stroke-miterlimit:10;stroke-dasharray:none;stroke-opacity:1"
         transform="matrix(0.13333333,0,0,-0.13333333,0,113.56)" />
      <path
         id="path5"
         d="m 433.574,343.672 -10.957,18.012 0.613,0.41 29.375,-11.668 c 10.239,-2.246 20.469,-4.504 30.708,-6.754 -10.239,-2.25 -20.469,-4.5 -30.708,-6.754 l -29.375,-11.668 -0.613,0.309 10.957,18.113"
         style="fill:#231f20;fill-opacity:1;fill-rule:nonzero;stroke:none"
         transform="matrix(0.13333333,0,0,-0.13333333,0,113.56)" />
      <g
         id="g5"
         aria-label="(0, 0, z′)"
         transform="matrix(1.3333333,0,0,1.3333333,162.23333,80.8808)">
        <path
           id="path6"
           d="m 2.6960938,1.3227984 c -0.890625,-0.76171871 -1.40625,-2.20312496 -1.40625,-3.75 0,-1.546875 0.515625,-3 1.40625,-3.75 L 2.54375,-6.3881391 c -1.3242187,0.9023438 -1.91015625,2.3320313 -1.91015625,3.9492188 0,1.62890624 0.58593755,3.08203124 1.91015625,3.9609375 z m 2.5751953,-7.0429687 c -1.3476563,0 -1.8398438,1.6054687 -1.8398438,2.9179687 0,1.4179688 0.4804688,2.90625004 1.8398438,2.90625004 1.359375,0 1.828125,-1.59375004 1.828125,-2.91796874 0,-1.3828125 -0.46875,-2.90625 -1.828125,-2.90625 z m 0,0.3046875 c 0.8085937,0 1.03125,1.3242187 1.03125,2.6015625 0,1.265625 -0.2226563,2.61328124 -1.03125,2.61328124 -0.7734375,0 -1.0429688,-1.35937504 -1.0429688,-2.61328124 0,-1.2539063 0.2226563,-2.6015625 1.0429688,-2.6015625 z m 3.0058593,4.2539062 c -0.2109375,0 -0.4335937,0.140625 -0.4335937,0.36328129 0,0.15234375 0.070312,0.22265625 0.1171875,0.234375 0.3046875,0.0703125 0.5625,0.26953125 0.5625,0.59765625 0,0.33984375 -0.2578125,0.57421875 -0.6914063,0.76171875 l 0.09375,0.25781251 c 0.5507813,-0.16406251 1.1835938,-0.55078126 1.1835938,-1.24218751 0,-0.6328125 -0.5039063,-0.97265629 -0.8320313,-0.97265629 z m 5.4082036,-4.5585937 c -1.347657,0 -1.839844,1.6054687 -1.839844,2.9179687 0,1.4179688 0.480469,2.90625004 1.839844,2.90625004 1.359375,0 1.828125,-1.59375004 1.828125,-2.91796874 0,-1.3828125 -0.46875,-2.90625 -1.828125,-2.90625 z m 0,0.3046875 c 0.808593,0 1.03125,1.3242187 1.03125,2.6015625 0,1.265625 -0.222657,2.61328124 -1.03125,2.61328124 -0.773438,0 -1.042969,-1.35937504 -1.042969,-2.61328124 0,-1.2539063 0.222656,-2.6015625 1.042969,-2.6015625 z m 3.005859,4.2539062 c -0.210938,0 -0.433594,0.140625 -0.433594,0.36328129 0,0.15234375 0.07031,0.22265625 0.117188,0.234375 0.304687,0.0703125 0.5625,0.26953125 0.5625,0.59765625 0,0.33984375 -0.257813,0.57421875 -0.691407,0.76171875 l 0.09375,0.25781251 c 0.550782,-0.16406251 1.183594,-0.55078126 1.183594,-1.24218751 0,-0.6328125 -0.503906,-0.97265629 -0.832031,-0.97265629 z m 0,0"
           style="fill:#231f20;fill-opacity:1;fill-rule:nonzero;stroke:none" />
        <path
           id="path7"
           d="m 23.72832,-4.1732953 c -0.222656,0.2460937 -0.398437,0.3515625 -0.550781,0.3515625 -0.152344,0 -0.304687,-0.011719 -0.726562,-0.09375 -0.433594,-0.070312 -0.703125,-0.1054688 -0.949219,-0.1054688 -0.222656,0 -0.445313,0.1875 -0.65625,0.5273438 -0.140625,0.234375 -0.246094,0.4453125 -0.375,0.7265625 l 0.234375,0.1054687 c 0.257812,-0.4570312 0.46875,-0.7617187 0.890625,-0.7617187 0.222656,0 0.621094,0.023437 0.855469,0.058594 0.199218,0.011719 0.398437,0 0.550781,-0.035156 -0.832031,0.890625 -1.875,1.9101562 -2.496094,2.57812499 -0.550781,0.57421875 -0.480469,0.83203125 -0.328125,0.90234375 0.04687,0.01171875 0.07031,-0.0234375 0.105469,-0.08203125 0.08203,-0.1171875 0.1875,-0.234375 0.292969,-0.3046875 0.117187,-0.0820313 0.269531,-0.09375 0.550781,0.046875 0.398437,0.19921875 0.914062,0.43359375 1.207031,0.43359375 0.386719,0 0.75,-0.26953125 1.242188,-1.24218754 l -0.199219,-0.1640625 c -0.410156,0.60937504 -0.679688,0.76171879 -0.925781,0.76171879 -0.222657,0 -0.515625,-0.1171875 -0.808594,-0.2109375 -0.269531,-0.1171875 -0.503906,-0.1640625 -0.679688,-0.15234375 0.667969,-0.70312504 1.851563,-1.88671874 2.425782,-2.54296874 0.246093,-0.2695313 0.410156,-0.4570313 0.527343,-0.5976563 z m 0,0"
           style="fill:#231f20;fill-opacity:1;fill-rule:nonzero;stroke:none" />
        <path
           id="path8"
           d="m 24.501758,-3.5404828 0.609375,-1.2890625 c 0.175781,-0.3867188 0.28125,-0.6210938 0.316406,-0.7382813 0.03516,-0.082031 0.04687,-0.1523437 0.04687,-0.2226562 0,-0.09375 -0.02344,-0.1640625 -0.08203,-0.2226563 -0.07031,-0.058594 -0.152344,-0.09375 -0.257813,-0.09375 -0.128906,0 -0.246093,0.035156 -0.339843,0.1171875 -0.105469,0.082031 -0.175782,0.2226563 -0.234375,0.3984375 -0.03516,0.1289063 -0.08203,0.375 -0.117188,0.7617188 l -0.140625,1.2890625 z m 0,0"
           style="fill:#231f20;fill-opacity:1;fill-rule:nonzero;stroke:none" />
        <path
           id="path9"
           d="m 26.083789,-6.1772016 c 0.890625,0.7382813 1.417969,2.203125 1.417969,3.75 0,1.54687504 -0.503906,2.98828129 -1.417969,3.75 l 0.164063,0.1992188 c 1.347656,-0.91406251 1.898437,-2.33203126 1.898437,-3.9492188 0,-1.6289062 -0.550781,-3.0585937 -1.898437,-3.9609375 z m 0,0"
           style="fill:#231f20;fill-opacity:1;fill-rule:nonzero;stroke:none" />
      </g>
      <path
         id="path10"
         d="m 126.395,343.785 c 0,6.496 5.277,11.766 11.769,11.766 6.492,0 11.77,-5.27 11.77,-11.766 0,-6.496 -5.278,-11.758 -11.77,-11.758 -6.492,0 -11.769,5.262 -11.769,11.758"
         style="fill:#231f20;fill-opacity:1;fill-rule:nonzero;stroke:none"
         transform="matrix(0.13333333,0,0,-0.13333333,0,113.56)" />
      <path
         id="path11"
         d="m 126.395,343.785 c 0,6.496 5.277,11.766 11.769,11.766 6.492,0 11.77,-5.27 11.77,-11.766 0,-6.496 -5.278,-11.758 -11.77,-11.758 -6.492,0 -11.769,5.262 -11.769,11.758 z"
         style="fill:none;stroke:#231f20;stroke-width:5;stroke-linecap:butt;stroke-linejoin:miter;stroke-miterlimit:10;stroke-dasharray:none;stroke-opacity:1"
         transform="matrix(0.13333333,0,0,-0.13333333,0,113.56)" />
      <path
         id="path12"
         d="m 1350.56,837.438 c 0,6.496 5.26,11.765 11.75,11.765 6.5,0 11.76,-5.269 11.76,-11.765 0,-6.497 -5.26,-11.758 -11.76,-11.758 -6.49,0 -11.75,5.261 -11.75,11.758"
         style="fill:#231f20;fill-opacity:1;fill-rule:nonzero;stroke:none"
         transform="matrix(0.13333333,0,0,-0.13333333,0,113.56)" />
      <path
         id="path13"
         d="m 1350.56,837.438 c 0,6.496 5.26,11.765 11.75,11.765 6.5,0 11.76,-5.269 11.76,-11.765 0,-6.497 -5.26,-11.758 -11.76,-11.758 -6.49,0 -11.75,5.261 -11.75,11.758 z"
         style="fill:none;stroke:#231f20;stroke-width:5;stroke-linecap:butt;stroke-linejoin:miter;stroke-miterlimit:10;stroke-dasharray:none;stroke-opacity:1"
         transform="matrix(0.13333333,0,0,-0.13333333,0,113.56)" />
      <path
         id="path14"
         d="m 1646.9,172.969 c 0,6.5 5.26,11.761 11.76,11.761 6.5,0 11.76,-5.261 11.76,-11.761 0,-6.5 -5.26,-11.762 -11.76,-11.762 -6.5,0 -11.76,5.262 -11.76,11.762"
         style="fill:#231f20;fill-opacity:1;fill-rule:nonzero;stroke:none"
         transform="matrix(0.13333333,0,0,-0.13333333,0,113.56)" />
      <path
         id="path15"
         d="m 1646.9,172.969 c 0,6.5 5.26,11.761 11.76,11.761 6.5,0 11.76,-5.261 11.76,-11.761 0,-6.5 -5.26,-11.762 -11.76,-11.762 -6.5,0 -11.76,5.262 -11.76,11.762 z"
         style="fill:none;stroke:#231f20;stroke-width:5;stroke-linecap:butt;stroke-linejoin:miter;stroke-miterlimit:10;stroke-dasharray:none;stroke-opacity:1"
         transform="matrix(0.13333333,0,0,-0.13333333,0,113.56)" />
      <path
         id="path16"
         d="m 1362.31,344.586 c 0,6.492 5.28,11.758 11.76,11.758 6.51,0 11.77,-5.266 11.77,-11.758 0,-6.5 -5.26,-11.77 -11.77,-11.77 -6.48,0 -11.76,5.27 -11.76,11.77"
         style="fill:#ffffff;fill-opacity:1;fill-rule:nonzero;stroke:none"
         transform="matrix(0.13333333,0,0,-0.13333333,0,113.56)" />
      <path
         id="path17"
         d="m 1362.31,344.586 c 0,6.492 5.28,11.758 11.76,11.758 6.51,0 11.77,-5.266 11.77,-11.758 0,-6.5 -5.26,-11.77 -11.77,-11.77 -6.48,0 -11.76,5.27 -11.76,11.77 z"
         style="fill:none;stroke:#231f20;stroke-width:5;stroke-linecap:butt;stroke-linejoin:miter;stroke-miterlimit:10;stroke-dasharray:none;stroke-opacity:1"
         transform="matrix(0.13333333,0,0,-0.13333333,0,113.56)" />
      <g
         id="g17"
         aria-label="+z&#10;(0, 0, 0)"
         transform="matrix(1.3333333,0,0,1.3333333,53.586,77.813067)">
        <path
           id="path18"
           d="m 4.7577656,-2.0746437 v -0.4335938 h -1.875 v -1.875 H 2.3554219 v 1.875 H 0.46870313 v 0.4335938 H 2.3554219 V -4.25e-4 h 0.5273437 v -2.0742187 z m 0,0"
           style="fill:#231f20;fill-opacity:1;fill-rule:nonzero;stroke:none" />
        <path
           id="path19"
           d="m 9.0058125,-4.1723 c -0.2226562,0.2460938 -0.3984375,0.3515625 -0.5507812,0.3515625 -0.1523438,0 -0.3046875,-0.011719 -0.7265625,-0.09375 C 7.294875,-3.9848 7.0253438,-4.0199562 6.77925,-4.0199562 c -0.2226562,0 -0.4453125,0.1875 -0.65625,0.5273437 C 5.982375,-3.2582375 5.8769063,-3.0473 5.748,-2.76605 l 0.234375,0.1054688 C 6.2401875,-3.1176125 6.451125,-3.4223 6.873,-3.4223 c 0.2226563,0 0.6210938,0.023437 0.8554688,0.058594 0.1992187,0.011719 0.3984375,0 0.5507812,-0.035156 -0.8320312,0.890625 -1.875,1.9101563 -2.4960937,2.578125 C 5.232375,-0.24651875 5.3026875,0.01129375 5.4550313,0.08160625 5.5019063,0.093325 5.5253438,0.05816875 5.5605,-4.25e-4 5.6425313,-0.1176125 5.748,-0.2348 5.8534688,-0.3051125 5.9706563,-0.38714375 6.123,-0.3988625 6.40425,-0.2582375 c 0.3984375,0.19921875 0.9140625,0.43359375 1.2070313,0.43359375 0.3867187,0 0.75,-0.26953125 1.2421875,-1.24218745 L 8.65425,-1.2308937 c -0.4101562,0.60937495 -0.6796875,0.7617187 -0.9257812,0.7617187 -0.2226563,0 -0.515625,-0.1171875 -0.8085938,-0.2109375 C 6.6503438,-0.7973 6.4159688,-0.844175 6.2401875,-0.83245625 6.9081563,-1.5355812 8.09175,-2.719175 8.6659688,-3.375425 8.9120625,-3.6449562 9.076125,-3.8324562 9.1933125,-3.9730812 Z m 0,0"
           style="fill:#231f20;fill-opacity:1;fill-rule:nonzero;stroke:none" />
        <path
           id="path20"
           d="m -37.494187,3.6235984 c -0.890625,-0.7617187 -1.40625,-2.203125 -1.40625,-3.74999996 0,-1.54687504 0.515625,-3.00000004 1.40625,-3.75000004 l -0.152344,-0.2109375 c -1.324219,0.9023438 -1.910156,2.3320313 -1.910156,3.94921879 0,1.62890621 0.585937,3.08203121 1.910156,3.96093751 z m 2.575195,-7.0429687 c -1.347656,0 -1.839844,1.6054687 -1.839844,2.91796874 0,1.41796875 0.480469,2.90624996 1.839844,2.90624996 1.359375,0 1.828125,-1.59374996 1.828125,-2.91796871 0,-1.38281249 -0.46875,-2.90624999 -1.828125,-2.90624999 z m 0,0.3046875 c 0.808594,0 1.03125,1.3242187 1.03125,2.60156249 0,1.265625 -0.222656,2.61328121 -1.03125,2.61328121 -0.773438,0 -1.042969,-1.35937496 -1.042969,-2.61328121 0,-1.25390629 0.222656,-2.60156249 1.042969,-2.60156249 z m 3.005859,4.2539062 c -0.210937,0 -0.433594,0.140625 -0.433594,0.3632813 0,0.1523437 0.07031,0.2226562 0.117188,0.234375 0.304687,0.070312 0.5625,0.2695312 0.5625,0.5976562 0,0.3398438 -0.257813,0.5742188 -0.691406,0.7617188 l 0.09375,0.2578125 c 0.550781,-0.1640625 1.183593,-0.5507813 1.183593,-1.2421875 0,-0.6328125 -0.503906,-0.9726563 -0.832031,-0.9726563 z m 5.408203,-4.5585937 c -1.347656,0 -1.839843,1.6054687 -1.839843,2.91796874 0,1.41796875 0.480468,2.90624996 1.839843,2.90624996 1.359375,0 1.828125,-1.59374996 1.828125,-2.91796871 0,-1.38281249 -0.46875,-2.90624999 -1.828125,-2.90624999 z m 0,0.3046875 c 0.808594,0 1.03125,1.3242187 1.03125,2.60156249 0,1.265625 -0.222656,2.61328121 -1.03125,2.61328121 -0.773437,0 -1.042968,-1.35937496 -1.042968,-2.61328121 0,-1.25390629 0.222656,-2.60156249 1.042968,-2.60156249 z m 3.00586,4.2539062 c -0.210938,0 -0.433594,0.140625 -0.433594,0.3632813 0,0.1523437 0.07031,0.2226562 0.117187,0.234375 0.304688,0.070312 0.5625,0.2695312 0.5625,0.5976562 0,0.3398438 -0.257812,0.5742188 -0.691406,0.7617188 l 0.09375,0.2578125 c 0.550781,-0.1640625 1.183594,-0.5507813 1.183594,-1.2421875 0,-0.6328125 -0.503906,-0.9726563 -0.832031,-0.9726563 z m 5.408203,-4.5585937 c -1.347656,0 -1.839844,1.6054687 -1.839844,2.91796874 0,1.41796875 0.480469,2.90624996 1.839844,2.90624996 1.359375,0 1.828125,-1.59374996 1.828125,-2.91796871 0,-1.38281249 -0.46875,-2.90624999 -1.828125,-2.90624999 z m 0,0.3046875 c 0.808594,0 1.03125,1.3242187 1.03125,2.60156249 0,1.265625 -0.222656,2.61328121 -1.03125,2.61328121 -0.773438,0 -1.042969,-1.35937496 -1.042969,-2.61328121 0,-1.25390629 0.222656,-2.60156249 1.042969,-2.60156249 z m 2.575195,-0.7617188 c 0.890625,0.7382813 1.417969,2.203125 1.417969,3.75000004 0,1.54687496 -0.503906,2.98828126 -1.417969,3.74999996 l 0.164063,0.1992188 c 1.347656,-0.9140625 1.898437,-2.3320313 1.898437,-3.94921876 0,-1.62890624 -0.550781,-3.05859374 -1.898437,-3.96093754 z m 0,0"
           style="fill:#231f20;fill-opacity:1;fill-rule:nonzero;stroke:none" />
      </g>
    </g>
  </g>
</svg>
