<?xml version="1.0" encoding="UTF-8" standalone="no"?>
<!-- Created with Inkscape (http://www.inkscape.org/) -->

<svg
   version="1.1"
   id="svg1"
   width="207.72"
   height="80.386665"
   viewBox="0 0 207.72 80.386665"
   sodipodi:docname="pha06f39.eps"
   xmlns:inkscape="http://www.inkscape.org/namespaces/inkscape"
   xmlns:sodipodi="http://sodipodi.sourceforge.net/DTD/sodipodi-0.dtd"
   xmlns="http://www.w3.org/2000/svg"
   xmlns:svg="http://www.w3.org/2000/svg">
  <defs
     id="defs1" />
  <sodipodi:namedview
     id="namedview1"
     pagecolor="#ffffff"
     bordercolor="#000000"
     borderopacity="0.25"
     inkscape:showpageshadow="2"
     inkscape:pageopacity="0.0"
     inkscape:pagecheckerboard="0"
     inkscape:deskcolor="#d1d1d1">
    <inkscape:page
       x="0"
       y="0"
       inkscape:label="1"
       id="page1"
       width="207.72"
       height="80.386665"
       margin="0"
       bleed="0" />
  </sodipodi:namedview>
  <g
     id="g1"
     inkscape:groupmode="layer"
     inkscape:label="1">
    <g
       id="group-R5">
      <path
         id="path2"
         d="M 0,162.813 H 1543.65"
         style="fill:none;stroke:#231f20;stroke-width:5;stroke-linecap:butt;stroke-linejoin:miter;stroke-miterlimit:10;stroke-dasharray:none;stroke-opacity:1"
         transform="matrix(0.13333333,0,0,-0.13333333,0,80.386667)" />
      <path
         id="path3"
         d="m 316.516,14.2578 c 0,6.4961 5.261,11.7656 11.754,11.7656 6.5,0 11.765,-5.2695 11.765,-11.7656 C 340.035,7.76563 334.77,2.5 328.27,2.5 c -6.493,0 -11.754,5.26563 -11.754,11.7578"
         style="fill:#231f20;fill-opacity:1;fill-rule:nonzero;stroke:none"
         transform="matrix(0.13333333,0,0,-0.13333333,0,80.386667)" />
      <path
         id="path4"
         d="m 316.516,14.2578 c 0,6.4961 5.261,11.7656 11.754,11.7656 6.5,0 11.765,-5.2695 11.765,-11.7656 C 340.035,7.76563 334.77,2.5 328.27,2.5 c -6.493,0 -11.754,5.26563 -11.754,11.7578 z"
         style="fill:none;stroke:#231f20;stroke-width:5;stroke-linecap:butt;stroke-linejoin:miter;stroke-miterlimit:10;stroke-dasharray:none;stroke-opacity:1"
         transform="matrix(0.13333333,0,0,-0.13333333,0,80.386667)" />
      <path
         id="path5"
         d="m 601.57,70.3203 12.246,2.5156"
         style="fill:none;stroke:#231f20;stroke-width:5;stroke-linecap:butt;stroke-linejoin:miter;stroke-miterlimit:10;stroke-dasharray:none;stroke-opacity:1"
         transform="matrix(0.13333333,0,0,-0.13333333,0,80.386667)" />
      <path
         id="path6"
         d="m 628.762,75.9063 19.871,4.082 889.077,182.4067"
         style="fill:none;stroke:#231f20;stroke-width:5;stroke-linecap:butt;stroke-linejoin:miter;stroke-miterlimit:10;stroke-dasharray:25.4214, 15.2528;stroke-dashoffset:0;stroke-opacity:1"
         transform="matrix(0.13333333,0,0,-0.13333333,0,80.386667)" />
      <path
         id="path7"
         d="m 1545.18,263.926 12.24,2.512"
         style="fill:none;stroke:#231f20;stroke-width:5;stroke-linecap:butt;stroke-linejoin:miter;stroke-miterlimit:10;stroke-dasharray:none;stroke-opacity:1"
         transform="matrix(0.13333333,0,0,-0.13333333,0,80.386667)" />
      <path
         id="path8"
         d="M 328.27,14.2578 561.641,62.1289"
         style="fill:none;stroke:#231f20;stroke-width:5;stroke-linecap:butt;stroke-linejoin:miter;stroke-miterlimit:10;stroke-dasharray:none;stroke-opacity:1"
         transform="matrix(0.13333333,0,0,-0.13333333,0,80.386667)" />
      <path
         id="path9"
         d="m 552.852,60.3281 -14.356,15.4453 0.524,0.5274 31.117,-5.5274 c 10.476,-0.1523 20.957,-0.3007 31.433,-0.4531 -9.566,-4.2617 -19.148,-8.5234 -28.718,-12.7851 l -26.426,-17.336 -0.664,0.1836 7.09,19.9453"
         style="fill:#231f20;fill-opacity:1;fill-rule:nonzero;stroke:none"
         transform="matrix(0.13333333,0,0,-0.13333333,0,80.386667)" />
      <path
         id="path10"
         d="m 219.488,379.375 3.571,-11.977"
         style="fill:none;stroke:#231f20;stroke-width:5;stroke-linecap:butt;stroke-linejoin:miter;stroke-miterlimit:10;stroke-dasharray:none;stroke-opacity:1"
         transform="matrix(0.13333333,0,0,-0.13333333,0,80.386667)" />
      <path
         id="path11"
         d="M 227.125,353.75 322.672,33.0625"
         style="fill:none;stroke:#231f20;stroke-width:5;stroke-linecap:butt;stroke-linejoin:miter;stroke-miterlimit:10;stroke-dasharray:23.7319, 14.2391;stroke-dashoffset:0;stroke-opacity:1"
         transform="matrix(0.13333333,0,0,-0.13333333,0,80.386667)" />
      <path
         id="path12"
         d="M 324.703,26.2344 328.27,14.2578"
         style="fill:none;stroke:#231f20;stroke-width:5;stroke-linecap:butt;stroke-linejoin:miter;stroke-miterlimit:10;stroke-dasharray:none;stroke-opacity:1"
         transform="matrix(0.13333333,0,0,-0.13333333,0,80.386667)" />
      <path
         id="path13"
         d="m 153.098,602.207 54.75,-183.769"
         style="fill:none;stroke:#231f20;stroke-width:5;stroke-linecap:butt;stroke-linejoin:miter;stroke-miterlimit:10;stroke-dasharray:none;stroke-opacity:1"
         transform="matrix(0.13333333,0,0,-0.13333333,0,80.386667)" />
      <path
         id="path14"
         d="m 205.281,427.039 14.145,15.649 0.562,-0.477 -2.797,-31.484 c 0.77,-10.45 1.536,-20.903 2.297,-31.352 -5.078,9.164 -10.164,18.328 -15.242,27.496 l -19.566,24.82 0.117,0.676 20.484,-5.328"
         style="fill:#231f20;fill-opacity:1;fill-rule:nonzero;stroke:none"
         transform="matrix(0.13333333,0,0,-0.13333333,0,80.386667)" />
      <path
         id="path15"
         d="m 1037.06,162.734 c 0,6.496 5.26,11.77 11.77,11.77 6.49,0 11.76,-5.274 11.76,-11.77 0,-6.496 -5.27,-11.757 -11.76,-11.757 -6.51,0 -11.77,5.261 -11.77,11.757"
         style="fill:#ffffff;fill-opacity:1;fill-rule:nonzero;stroke:none"
         transform="matrix(0.13333333,0,0,-0.13333333,0,80.386667)" />
      <path
         id="path16"
         d="m 1037.06,162.734 c 0,6.496 5.26,11.77 11.77,11.77 6.49,0 11.76,-5.274 11.76,-11.77 0,-6.496 -5.27,-11.757 -11.76,-11.757 -6.51,0 -11.77,5.261 -11.77,11.757 z"
         style="fill:none;stroke:#231f20;stroke-width:5;stroke-linecap:butt;stroke-linejoin:miter;stroke-miterlimit:10;stroke-dasharray:none;stroke-opacity:1"
         transform="matrix(0.13333333,0,0,-0.13333333,0,80.386667)" />
    </g>
  </g>
</svg>
