<?xml version="1.0" encoding="UTF-8" standalone="no"?>
<!-- Created with Inkscape (http://www.inkscape.org/) -->

<svg
   version="1.1"
   id="svg1"
   width="253.86667"
   height="209.16"
   viewBox="0 0 253.86667 209.16"
   sodipodi:docname="pha06f01.eps"
   xmlns:inkscape="http://www.inkscape.org/namespaces/inkscape"
   xmlns:sodipodi="http://sodipodi.sourceforge.net/DTD/sodipodi-0.dtd"
   xmlns="http://www.w3.org/2000/svg"
   xmlns:svg="http://www.w3.org/2000/svg">
  <defs
     id="defs1" />
  <sodipodi:namedview
     id="namedview1"
     pagecolor="#ffffff"
     bordercolor="#000000"
     borderopacity="0.25"
     inkscape:showpageshadow="2"
     inkscape:pageopacity="0.0"
     inkscape:pagecheckerboard="0"
     inkscape:deskcolor="#d1d1d1">
    <inkscape:page
       x="0"
       y="0"
       inkscape:label="1"
       id="page1"
       width="253.86667"
       height="209.16"
       margin="0"
       bleed="0" />
  </sodipodi:namedview>
  <g
     id="g1"
     inkscape:groupmode="layer"
     inkscape:label="1">
    <g
       id="group-R5">
      <path
         id="path2"
         d="m 626.91,485.219 910.34,610.531"
         style="fill:none;stroke:#231f20;stroke-width:15;stroke-linecap:butt;stroke-linejoin:miter;stroke-miterlimit:10;stroke-dasharray:none;stroke-opacity:1"
         transform="matrix(0.13333333,0,0,-0.13333333,0,209.16)" />
      <path
         id="path3"
         d="M 455.141,1568.68 V 124.91"
         style="fill:none;stroke:#231f20;stroke-width:5;stroke-linecap:butt;stroke-linejoin:miter;stroke-miterlimit:10;stroke-dasharray:none;stroke-opacity:1"
         transform="matrix(0.13333333,0,0,-0.13333333,0,209.16)" />
      <path
         id="path4"
         d="M 1536.32,1568.68 V 124.91"
         style="fill:none;stroke:#231f20;stroke-width:5;stroke-linecap:butt;stroke-linejoin:miter;stroke-miterlimit:10;stroke-dasharray:none;stroke-opacity:1"
         transform="matrix(0.13333333,0,0,-0.13333333,0,209.16)" />
      <path
         id="path5"
         d="M 100.742,1211.25 H 1903.95"
         style="fill:none;stroke:#231f20;stroke-width:5;stroke-linecap:butt;stroke-linejoin:miter;stroke-miterlimit:10;stroke-dasharray:none;stroke-opacity:1"
         transform="matrix(0.13333333,0,0,-0.13333333,0,209.16)" />
      <path
         id="path6"
         d="M 100.742,485.41 H 1903.95"
         style="fill:none;stroke:#231f20;stroke-width:5;stroke-linecap:butt;stroke-linejoin:miter;stroke-miterlimit:10;stroke-dasharray:none;stroke-opacity:1"
         transform="matrix(0.13333333,0,0,-0.13333333,0,209.16)" />
      <g
         id="g6"
         aria-label="y&#10;1"
         transform="matrix(1.3333333,0,0,1.3333333,0.73177067,50.332)">
        <path
           id="path7"
           d="M 2.1552736,-0.67966406 C 2.0966798,-1.4882578 2.0380861,-2.3085703 1.9443361,-2.9882578 1.8740236,-3.7031016 1.7333986,-4.0429453 1.4873048,-4.0429453 c -0.328125,0 -0.77343749,0.515625 -1.06640624,0.9609375 l 0.15234375,0.2109375 c 0.22265625,-0.3164063 0.45703129,-0.5273438 0.52734379,-0.5273438 0.070312,0 0.1171875,0.1171875 0.1875,0.5625 0.1289062,0.8203125 0.2695312,2.22656254 0.28125,2.92968754 C 1.1240236,0.69142969 0.40917981,1.4883047 -0.55175769,2.1093984 l 0.0703125,0.1992188 0.9375,-0.234375 C 0.95996106,1.5117422 1.5458986,0.71486719 2.0732423,-0.04685156 2.5537111,-0.71482031 3.3154298,-1.9101328 3.7021486,-2.5898203 c 0.234375,-0.3984375 0.328125,-0.703125 0.3164062,-0.9609375 0,-0.2929688 -0.1523437,-0.4921875 -0.3515625,-0.4921875 -0.1523437,0 -0.3164062,0.1054687 -0.375,0.2460937 -0.035156,0.070312 -0.046875,0.1640625 -0.011719,0.2226563 0.035156,0.1054687 0.09375,0.2460937 0.09375,0.421875 0.011719,0.65625 -0.8203125,1.8867187 -1.2070313,2.47265624 z m 0,0"
           style="fill:#231f20;fill-opacity:1;fill-rule:nonzero;stroke:none" />
        <path
           id="path8"
           d="M 6.2861329,2.001 V 1.8369375 C 5.7353517,1.8017812 5.7001954,1.7431875 5.7001954,1.3213125 V -1.8075938 C 5.3720704,-1.6786875 5.0205079,-1.5615 4.6337892,-1.4911875 v 0.1289062 l 0.28125,0.011719 c 0.2695312,0.011719 0.2929687,0.046875 0.2929687,0.36328125 V 1.3213125 c 0,0.421875 -0.035156,0.4804687 -0.5742187,0.515625 V 2.001 Z m 0,0"
           style="fill:#231f20;fill-opacity:1;fill-rule:nonzero;stroke:none" />
      </g>
      <path
         id="path9"
         d="m 435.137,370.141 c 0,11.089 8.988,20.078 20.082,20.078 11.09,0 20.078,-8.989 20.078,-20.078 0,-11.09 -8.988,-20.082 -20.078,-20.082 -11.094,0 -20.082,8.992 -20.082,20.082"
         style="fill:#231f20;fill-opacity:1;fill-rule:nonzero;stroke:none"
         transform="matrix(0.13333333,0,0,-0.13333333,0,209.16)" />
      <path
         id="path10"
         d="m 607.102,485.711 c 0,11.09 8.988,20.07 20.078,20.07 11.086,0 20.082,-8.98 20.082,-20.07 0,-11.102 -8.996,-20.082 -20.082,-20.082 -11.09,0 -20.078,8.98 -20.078,20.082"
         style="fill:#231f20;fill-opacity:1;fill-rule:nonzero;stroke:none"
         transform="matrix(0.13333333,0,0,-0.13333333,0,209.16)" />
      <path
         id="path11"
         d="m 1689.73,1211.32 c 0,11.09 9,20.09 20.08,20.09 11.09,0 20.09,-9 20.09,-20.09 0,-11.08 -9,-20.08 -20.09,-20.08 -11.08,0 -20.08,9 -20.08,20.08"
         style="fill:#231f20;fill-opacity:1;fill-rule:nonzero;stroke:none"
         transform="matrix(0.13333333,0,0,-0.13333333,0,209.16)" />
      <path
         id="path12"
         d="m 1516.16,1094.93 c 0,11.09 8.99,20.08 20.08,20.08 11.09,0 20.07,-8.99 20.07,-20.08 0,-11.09 -8.98,-20.08 -20.07,-20.08 -11.09,0 -20.08,8.99 -20.08,20.08"
         style="fill:#231f20;fill-opacity:1;fill-rule:nonzero;stroke:none"
         transform="matrix(0.13333333,0,0,-0.13333333,0,209.16)" />
      <path
         id="path13"
         d="M 1676.02,1254.95 598.637,532.398"
         style="fill:none;stroke:#231f20;stroke-width:5;stroke-linecap:butt;stroke-linejoin:miter;stroke-miterlimit:10;stroke-dasharray:none;stroke-opacity:1"
         transform="matrix(0.13333333,0,0,-0.13333333,0,209.16)" />
      <path
         id="path14"
         d="M 486.977,319.398 1569.21,1045.21"
         style="fill:none;stroke:#231f20;stroke-width:5;stroke-linecap:butt;stroke-linejoin:miter;stroke-miterlimit:10;stroke-dasharray:none;stroke-opacity:1"
         transform="matrix(0.13333333,0,0,-0.13333333,0,209.16)" />
      <path
         id="path15"
         d="m 496.402,308.191 -17.043,23.618"
         style="fill:none;stroke:#231f20;stroke-width:5;stroke-linecap:butt;stroke-linejoin:miter;stroke-miterlimit:10;stroke-dasharray:none;stroke-opacity:1"
         transform="matrix(0.13333333,0,0,-0.13333333,0,209.16)" />
      <path
         id="path16"
         d="m 1666.97,1264.55 14.17,-20.48"
         style="fill:none;stroke:#231f20;stroke-width:5;stroke-linecap:butt;stroke-linejoin:miter;stroke-miterlimit:10;stroke-dasharray:none;stroke-opacity:1"
         transform="matrix(0.13333333,0,0,-0.13333333,0,209.16)" />
      <path
         id="path17"
         d="m 1575.08,1032.67 -15.1,21.65"
         style="fill:none;stroke:#231f20;stroke-width:5;stroke-linecap:butt;stroke-linejoin:miter;stroke-miterlimit:10;stroke-dasharray:none;stroke-opacity:1"
         transform="matrix(0.13333333,0,0,-0.13333333,0,209.16)" />
      <path
         id="path18"
         d="M 2.1576328,-0.68035469 C 2.0990391,-1.4889484 2.0404453,-2.3092609 1.9466953,-2.9889484 1.8763828,-3.7037922 1.7357578,-4.0436359 1.4896641,-4.0436359 c -0.328125,0 -0.77343754,0.515625 -1.06640629,0.9609375 l 0.15234375,0.2109375 c 0.22265625,-0.3164063 0.45703124,-0.5273438 0.52734374,-0.5273438 0.070312,0 0.1171875,0.1171875 0.1875,0.5625 0.1289063,0.8203125 0.2695313,2.22656251 0.28125,2.92968751 C 1.1263828,0.69073906 0.41153906,1.4876141 -0.54939844,2.1087078 l 0.0703125,0.1992188 0.9375,-0.234375 C 0.96232031,1.5110516 1.5482578,0.71417656 2.0756016,-0.04754219 2.5560703,-0.71551094 3.3177891,-1.9108234 3.7045078,-2.5905109 c 0.234375,-0.3984375 0.328125,-0.703125 0.3164063,-0.9609375 0,-0.2929688 -0.1523438,-0.4921875 -0.3515625,-0.4921875 -0.1523438,0 -0.3164063,0.1054687 -0.375,0.2460937 -0.035156,0.070312 -0.046875,0.1640625 -0.011719,0.2226563 0.035156,0.1054687 0.09375,0.2460937 0.09375,0.421875 0.011719,0.65625 -0.8203125,1.8867187 -1.2070312,2.47265621 z M 15.836344,17.296208 c 0.316406,-0.398438 0.492187,-0.515625 0.574218,-0.515625 0.09375,0 0.175782,0.128906 0.304688,0.574219 l 0.304687,0.9375 c -0.5625,0.832031 -0.984375,1.359375 -1.242187,1.359375 -0.09375,0 -0.164063,-0.03516 -0.210938,-0.09375 -0.04687,-0.05859 -0.09375,-0.09375 -0.140625,-0.09375 -0.175781,0 -0.363281,0.210937 -0.363281,0.421875 -0.01172,0.257812 0.175781,0.433593 0.410156,0.433593 0.421875,0 0.84375,-0.433593 1.640625,-1.699218 l 0.28125,0.878906 c 0.175782,0.5625 0.363282,0.820312 0.597657,0.820312 0.304687,0 0.726562,-0.328125 1.136718,-0.972656 l -0.152343,-0.175781 c -0.28125,0.339844 -0.503907,0.515625 -0.644532,0.515625 -0.152343,0 -0.28125,-0.257813 -0.457031,-0.820313 l -0.292969,-0.902343 c 0.199219,-0.28125 0.398438,-0.527344 0.585938,-0.738282 0.234375,-0.292968 0.410156,-0.445312 0.539062,-0.445312 0.08203,0 0.152344,0.03516 0.210938,0.105469 0.04687,0.04687 0.08203,0.07031 0.128906,0.07031 0.140625,0 0.339844,-0.175781 0.351563,-0.398437 0,-0.199219 -0.140625,-0.386719 -0.375,-0.386719 -0.398438,0 -0.785157,0.386719 -1.535157,1.476562 L 17.336344,17.155581 C 17.113687,16.51105 16.9965,16.171206 16.750406,16.171206 c -0.292969,0 -0.691406,0.386719 -1.066406,0.9375 z m 0,0"
         style="fill:#231f20;fill-opacity:1;fill-rule:nonzero;stroke:none"
         aria-label="y&#10;x"
         transform="matrix(1.3333333,0,0,1.3333333,134.088,90.965733)" />
      <path
         id="path19"
         d="m 1537.25,1095.75 298.42,200.12"
         style="fill:none;stroke:#231f20;stroke-width:5;stroke-linecap:butt;stroke-linejoin:miter;stroke-miterlimit:10;stroke-dasharray:none;stroke-opacity:1"
         transform="matrix(0.13333333,0,0,-0.13333333,0,209.16)" />
      <path
         id="path20"
         d="m 1828.22,1290.88 -19.13,8.85 0.28,0.69 30.9,6.67 c 9.74,3.82 19.5,7.66 29.26,11.49 -7.25,-7.57 -14.5,-15.14 -21.74,-22.71 l -17.9,-26.06 -0.69,-0.08 -0.98,21.15"
         style="fill:#231f20;fill-opacity:1;fill-rule:nonzero;stroke:none"
         transform="matrix(0.13333333,0,0,-0.13333333,0,209.16)" />
      <path
         id="path21"
         d="M 254.336,235.352 626.91,485.219"
         style="fill:none;stroke:#231f20;stroke-width:5;stroke-linecap:butt;stroke-linejoin:miter;stroke-miterlimit:10;stroke-dasharray:none;stroke-opacity:1"
         transform="matrix(0.13333333,0,0,-0.13333333,0,209.16)" />
      <g
         id="g21"
         aria-label="y&#10;0&#10;x&#10;0&#10;x&#10;1"
         transform="matrix(1.3333333,0,0,1.3333333,0.73177067,147.07613)">
        <path
           id="path22"
           d="M 2.1552736,-0.68112344 C 2.0966798,-1.4897172 2.0380861,-2.3100297 1.9443361,-2.9897172 1.8740236,-3.7045609 1.7333986,-4.0444047 1.4873048,-4.0444047 c -0.328125,0 -0.77343749,0.515625 -1.06640624,0.9609375 l 0.15234375,0.2109375 c 0.22265625,-0.3164062 0.45703129,-0.5273437 0.52734379,-0.5273437 0.070312,0 0.1171875,0.1171875 0.1875,0.5625 0.1289062,0.8203125 0.2695312,2.22656246 0.28125,2.92968746 C 1.1240236,0.68997031 0.40917981,1.4868453 -0.55175769,2.1079391 l 0.0703125,0.1992187 0.9375,-0.234375 C 0.95996106,1.5102828 1.5458986,0.71340781 2.0732423,-0.04831094 2.5537111,-0.71627969 3.3154298,-1.9115922 3.7021486,-2.5912797 c 0.234375,-0.3984375 0.328125,-0.703125 0.3164062,-0.9609375 0,-0.2929687 -0.1523437,-0.4921875 -0.3515625,-0.4921875 -0.1523437,0 -0.3164062,0.1054688 -0.375,0.2460938 -0.035156,0.070312 -0.046875,0.1640625 -0.011719,0.2226562 0.035156,0.1054688 0.09375,0.2460938 0.09375,0.421875 0.011719,0.65625 -0.8203125,1.8867188 -1.2070313,2.47265626 z m 0,0"
           style="fill:#231f20;fill-opacity:1;fill-rule:nonzero;stroke:none" />
        <path
           id="path23"
           d="m 5.4189454,-1.8090531 c -0.9023437,0 -1.2304687,1.06640623 -1.2304687,1.94531248 0,0.94921872 0.328125,1.93359372 1.2304687,1.93359372 0.9023438,0 1.21875,-1.0664062 1.21875,-1.94531247 0,-0.92578125 -0.3164062,-1.93359373 -1.21875,-1.93359373 z m -0.011719,0.1992187 c 0.5390625,0 0.6914062,0.89062503 0.6914062,1.73437503 0,0.84375 -0.140625,1.74609377 -0.6796875,1.74609377 -0.5273437,0 -0.703125,-0.91406252 -0.703125,-1.74609377 0,-0.83203125 0.1523438,-1.73437503 0.6914063,-1.73437503 z m 0,0"
           style="fill:#231f20;fill-opacity:1;fill-rule:nonzero;stroke:none" />
        <path
           id="path24"
           d="m 43.150391,38.318877 c 0.316406,-0.398438 0.492187,-0.515625 0.574218,-0.515625 0.09375,0 0.175782,0.128906 0.304688,0.574218 l 0.304687,0.9375 c -0.5625,0.832032 -0.984375,1.359375 -1.242187,1.359375 -0.09375,0 -0.164063,-0.03516 -0.210938,-0.09375 -0.04687,-0.05859 -0.09375,-0.09375 -0.140625,-0.09375 -0.175781,0 -0.363281,0.210938 -0.363281,0.421875 -0.01172,0.257813 0.175781,0.433594 0.410156,0.433594 0.421875,0 0.84375,-0.433594 1.640625,-1.699219 l 0.28125,0.878907 c 0.175782,0.5625 0.363282,0.820312 0.597657,0.820312 0.304687,0 0.726562,-0.328125 1.136718,-0.972656 l -0.152343,-0.175781 c -0.28125,0.339843 -0.503907,0.515625 -0.644532,0.515625 -0.152343,0 -0.28125,-0.257813 -0.457031,-0.820313 l -0.292969,-0.902344 c 0.199219,-0.28125 0.398438,-0.527343 0.585938,-0.738281 0.234375,-0.292969 0.410156,-0.445312 0.539062,-0.445312 0.08203,0 0.152344,0.03516 0.210938,0.105468 0.04687,0.04687 0.08203,0.07031 0.128906,0.07031 0.140625,0 0.339844,-0.175781 0.351563,-0.398438 0,-0.199218 -0.140625,-0.386718 -0.375,-0.386718 -0.398438,0 -0.785157,0.386718 -1.535157,1.476562 l -0.152343,-0.492187 c -0.222657,-0.644532 -0.339844,-0.984375 -0.585938,-0.984375 -0.292969,0 -0.691406,0.386718 -1.066406,0.9375 z m 0,0"
           style="fill:#231f20;fill-opacity:1;fill-rule:nonzero;stroke:none" />
        <path
           id="path25"
           d="m 48.075195,39.429228 c -0.902343,0 -1.230468,1.066406 -1.230468,1.945313 0,0.949218 0.328125,1.933593 1.230468,1.933593 0.902344,0 1.21875,-1.066406 1.21875,-1.945312 0,-0.925781 -0.316406,-1.933594 -1.21875,-1.933594 z m -0.01172,0.199219 c 0.539062,0 0.691406,0.890625 0.691406,1.734375 0,0.84375 -0.140625,1.746094 -0.679688,1.746094 -0.527343,0 -0.703125,-0.914063 -0.703125,-1.746094 0,-0.832031 0.152344,-1.734375 0.691407,-1.734375 z m 0,0"
           style="fill:#231f20;fill-opacity:1;fill-rule:nonzero;stroke:none" />
        <path
           id="path26"
           d="m 151.67188,38.403838 c 0.3164,-0.398438 0.49218,-0.515625 0.57421,-0.515625 0.0937,0 0.17579,0.128906 0.30469,0.574218 l 0.30469,0.9375 c -0.5625,0.832032 -0.98438,1.359375 -1.24219,1.359375 -0.0937,0 -0.16406,-0.03516 -0.21094,-0.09375 -0.0469,-0.05859 -0.0937,-0.09375 -0.14062,-0.09375 -0.17578,0 -0.36328,0.210938 -0.36328,0.421875 -0.0117,0.257813 0.17578,0.433594 0.41015,0.433594 0.42188,0 0.84375,-0.433594 1.64063,-1.699219 l 0.28125,0.878907 c 0.17578,0.5625 0.36328,0.820312 0.59766,0.820312 0.30468,0 0.72656,-0.328125 1.13671,-0.972656 l -0.15234,-0.175781 c -0.28125,0.339843 -0.50391,0.515625 -0.64453,0.515625 -0.15234,0 -0.28125,-0.257813 -0.45703,-0.820313 l -0.29297,-0.902344 c 0.19922,-0.28125 0.39844,-0.527343 0.58594,-0.738281 0.23437,-0.292969 0.41015,-0.445312 0.53906,-0.445312 0.082,0 0.15234,0.03516 0.21094,0.105468 0.0469,0.04687 0.082,0.07031 0.1289,0.07031 0.14063,0 0.33985,-0.175781 0.35157,-0.398438 0,-0.199218 -0.14063,-0.386718 -0.375,-0.386718 -0.39844,0 -0.78516,0.386718 -1.53516,1.476562 l -0.15234,-0.492187 c -0.22266,-0.644532 -0.33985,-0.984375 -0.58594,-0.984375 -0.29297,0 -0.69141,0.386718 -1.06641,0.9375 z m 0,0"
           style="fill:#231f20;fill-opacity:1;fill-rule:nonzero;stroke:none" />
        <path
           id="path27"
           d="M 157.46387,43.322783 V 43.15872 c -0.55078,-0.03516 -0.58594,-0.09375 -0.58594,-0.515625 v -3.128906 c -0.32813,0.128906 -0.67969,0.246094 -1.06641,0.316406 v 0.128907 l 0.28125,0.01172 c 0.26953,0.01172 0.29297,0.04687 0.29297,0.363282 v 2.308593 c 0,0.421875 -0.0351,0.480469 -0.57422,0.515625 v 0.164063 z m 0,0"
           style="fill:#231f20;fill-opacity:1;fill-rule:nonzero;stroke:none" />
      </g>
      <path
         id="path28"
         d="m 589.633,542.641 14.168,-20.493"
         style="fill:none;stroke:#231f20;stroke-width:5;stroke-linecap:butt;stroke-linejoin:miter;stroke-miterlimit:10;stroke-dasharray:none;stroke-opacity:1"
         transform="matrix(0.13333333,0,0,-0.13333333,0,209.16)" />
    </g>
  </g>
</svg>
