<?xml version="1.0" encoding="UTF-8" standalone="no"?>
<!-- Created with Inkscape (http://www.inkscape.org/) -->

<svg
   version="1.1"
   id="svg1"
   width="192.64"
   height="35.279999"
   viewBox="0 0 192.64 35.279999"
   sodipodi:docname="pha06f40.eps"
   xmlns:inkscape="http://www.inkscape.org/namespaces/inkscape"
   xmlns:sodipodi="http://sodipodi.sourceforge.net/DTD/sodipodi-0.dtd"
   xmlns="http://www.w3.org/2000/svg"
   xmlns:svg="http://www.w3.org/2000/svg">
  <defs
     id="defs1" />
  <sodipodi:namedview
     id="namedview1"
     pagecolor="#ffffff"
     bordercolor="#000000"
     borderopacity="0.25"
     inkscape:showpageshadow="2"
     inkscape:pageopacity="0.0"
     inkscape:pagecheckerboard="0"
     inkscape:deskcolor="#d1d1d1">
    <inkscape:page
       x="0"
       y="0"
       inkscape:label="1"
       id="page1"
       width="192.64"
       height="35.279999"
       margin="0"
       bleed="0" />
  </sodipodi:namedview>
  <g
     id="g1"
     inkscape:groupmode="layer"
     inkscape:label="1">
    <g
       id="group-R5">
      <path
         id="path2"
         d="m 847.645,216.902 c 0,6.504 5.265,11.77 11.769,11.77 6.484,0 11.758,-5.266 11.758,-11.77 0,-6.492 -5.274,-11.757 -11.758,-11.757 -6.504,0 -11.769,5.265 -11.769,11.757"
         style="fill:#231f20;fill-opacity:1;fill-rule:nonzero;stroke:none"
         transform="matrix(0.13333333,0,0,-0.13333333,0,35.28)" />
      <path
         id="path3"
         d="m 847.645,216.902 c 0,6.504 5.265,11.77 11.769,11.77 6.484,0 11.758,-5.266 11.758,-11.77 0,-6.492 -5.274,-11.757 -11.758,-11.757 -6.504,0 -11.769,5.265 -11.769,11.757 z"
         style="fill:none;stroke:#231f20;stroke-width:5;stroke-linecap:butt;stroke-linejoin:miter;stroke-miterlimit:10;stroke-dasharray:none;stroke-opacity:1"
         transform="matrix(0.13333333,0,0,-0.13333333,0,35.28)" />
      <path
         id="path4"
         d="M 1442.73,216.902 H 2.5"
         style="fill:none;stroke:#231f20;stroke-width:5;stroke-linecap:butt;stroke-linejoin:miter;stroke-miterlimit:10;stroke-dasharray:none;stroke-opacity:1"
         transform="matrix(0.13333333,0,0,-0.13333333,0,35.28)" />
      <path
         id="path5"
         d="m 2.5,264.648 v -95.48"
         style="fill:none;stroke:#231f20;stroke-width:5;stroke-linecap:butt;stroke-linejoin:miter;stroke-miterlimit:10;stroke-dasharray:none;stroke-opacity:1"
         transform="matrix(0.13333333,0,0,-0.13333333,0,35.28)" />
      <path
         id="path6"
         d="m 362.449,264.648 v -95.48"
         style="fill:none;stroke:#231f20;stroke-width:5;stroke-linecap:butt;stroke-linejoin:miter;stroke-miterlimit:10;stroke-dasharray:none;stroke-opacity:1"
         transform="matrix(0.13333333,0,0,-0.13333333,0,35.28)" />
      <path
         id="path7"
         d="m 1442.3,264.648 v -95.48"
         style="fill:none;stroke:#231f20;stroke-width:5;stroke-linecap:butt;stroke-linejoin:miter;stroke-miterlimit:10;stroke-dasharray:none;stroke-opacity:1"
         transform="matrix(0.13333333,0,0,-0.13333333,0,35.28)" />
      <path
         id="path8"
         d="m 722.402,264.648 v -95.48"
         style="fill:none;stroke:#231f20;stroke-width:5;stroke-linecap:butt;stroke-linejoin:miter;stroke-miterlimit:10;stroke-dasharray:none;stroke-opacity:1"
         transform="matrix(0.13333333,0,0,-0.13333333,0,35.28)" />
      <path
         id="path9"
         d="m 1082.36,264.648 v -95.48"
         style="fill:none;stroke:#231f20;stroke-width:5;stroke-linecap:butt;stroke-linejoin:miter;stroke-miterlimit:10;stroke-dasharray:none;stroke-opacity:1"
         transform="matrix(0.13333333,0,0,-0.13333333,0,35.28)" />
      <path
         id="path10"
         d="m 723.145,111.836 v 30"
         style="fill:none;stroke:#231f20;stroke-width:5;stroke-linecap:butt;stroke-linejoin:miter;stroke-miterlimit:10;stroke-dasharray:none;stroke-opacity:1"
         transform="matrix(0.13333333,0,0,-0.13333333,0,35.28)" />
      <path
         id="path11"
         d="M 858.711,126.836 H 723.145"
         style="fill:none;stroke:#231f20;stroke-width:5;stroke-linecap:butt;stroke-linejoin:miter;stroke-miterlimit:10;stroke-dasharray:none;stroke-opacity:1"
         transform="matrix(0.13333333,0,0,-0.13333333,0,35.28)" />
      <path
         id="path12"
         d="M 858.711,140.934 V 111.836"
         style="fill:none;stroke:#231f20;stroke-width:5;stroke-linecap:butt;stroke-linejoin:miter;stroke-miterlimit:10;stroke-dasharray:none;stroke-opacity:1"
         transform="matrix(0.13333333,0,0,-0.13333333,0,35.28)" />
      <path
         id="path13"
         d="m 4.3700984,-4.6748481 c -0.082031,-0.65625 -0.5859375,-1.734375 -1.546875,-1.734375 -0.515625,0 -1.0898437,0.421875 -1.0898437,1.03125 0,0.375 0.234375,0.8085937 0.609375,1.359375 -0.2460938,0.1171875 -0.4921875,0.234375 -0.7265625,0.3867187 -0.65625001,0.421875 -1.20703126,1.1835938 -1.20703126,2.1328125 0,0.93750003 0.50390625,1.60546878 1.35937496,1.60546878 0.4335938,0 0.8320313,-0.1640625 1.1484375,-0.41015625 0.6328125,-0.48046875 0.984375,-1.19531253 0.984375,-1.94531253 0,-0.6914062 -0.2929687,-1.21875 -0.8671875,-1.9804687 -0.5507812,-0.7382813 -0.8789062,-1.2070313 -0.8789062,-1.4179688 0,-0.1875 0.1289062,-0.28125 0.3632812,-0.28125 0.7265625,0 1.2539063,0.5976563 1.7460938,1.3828125 z m -2.3789062,4.41796873 c -0.3867188,0 -0.8085938,-0.3984375 -0.8085938,-1.26562503 0,-0.8671875 0.421875,-1.546875 0.7382813,-1.875 0.1523437,-0.1640625 0.3515625,-0.3046875 0.5859375,-0.3867187 0.2695312,0.3632812 0.6679687,0.9375 0.6679687,1.6757812 0,0.8085938 -0.3632812,1.85156253 -1.1835937,1.85156253 z m 0,0"
         style="fill:#231f20;fill-opacity:1;fill-rule:nonzero;stroke:none"
         aria-label="δ"
         transform="matrix(1.3333333,0,0,1.3333333,101.81773,30.959693)" />
    </g>
  </g>
</svg>
