<?xml version="1.0" encoding="UTF-8" standalone="no"?>
<!-- Created with Inkscape (http://www.inkscape.org/) -->

<svg
   version="1.1"
   id="svg1"
   width="291.81332"
   height="106.37333"
   viewBox="0 0 291.81332 106.37333"
   sodipodi:docname="pha06f33.eps"
   xmlns:inkscape="http://www.inkscape.org/namespaces/inkscape"
   xmlns:sodipodi="http://sodipodi.sourceforge.net/DTD/sodipodi-0.dtd"
   xmlns="http://www.w3.org/2000/svg"
   xmlns:svg="http://www.w3.org/2000/svg">
  <defs
     id="defs1" />
  <sodipodi:namedview
     id="namedview1"
     pagecolor="#ffffff"
     bordercolor="#000000"
     borderopacity="0.25"
     inkscape:showpageshadow="2"
     inkscape:pageopacity="0.0"
     inkscape:pagecheckerboard="0"
     inkscape:deskcolor="#d1d1d1">
    <inkscape:page
       x="0"
       y="0"
       inkscape:label="1"
       id="page1"
       width="291.81332"
       height="106.37333"
       margin="0"
       bleed="0" />
  </sodipodi:namedview>
  <g
     id="g1"
     inkscape:groupmode="layer"
     inkscape:label="1">
    <g
       id="group-R5">
      <path
         id="path2"
         d="m 176.223,143.613 c 0,3.977 3.218,7.2 7.195,7.2 3.977,0 7.195,-3.223 7.195,-7.2 0,-3.972 -3.218,-7.195 -7.195,-7.195 -3.977,0 -7.195,3.223 -7.195,7.195"
         style="fill:#231f20;fill-opacity:1;fill-rule:nonzero;stroke:none"
         transform="matrix(0.13333333,0,0,-0.13333333,0,106.37333)" />
      <path
         id="path3"
         d="m 176.223,143.613 c 0,3.977 3.218,7.2 7.195,7.2 3.977,0 7.195,-3.223 7.195,-7.2 0,-3.972 -3.218,-7.195 -7.195,-7.195 -3.977,0 -7.195,3.223 -7.195,7.195 z"
         style="fill:none;stroke:#231f20;stroke-width:5;stroke-linecap:butt;stroke-linejoin:miter;stroke-miterlimit:10;stroke-dasharray:none;stroke-opacity:1"
         transform="matrix(0.13333333,0,0,-0.13333333,0,106.37333)" />
      <path
         id="path4"
         d="m 800.723,514.883 c 0,3.965 3.222,7.187 7.187,7.187 3.985,0 7.207,-3.222 7.207,-7.187 0,-3.985 -3.222,-7.207 -7.207,-7.207 -3.965,0 -7.187,3.222 -7.187,7.207"
         style="fill:#231f20;fill-opacity:1;fill-rule:nonzero;stroke:none"
         transform="matrix(0.13333333,0,0,-0.13333333,0,106.37333)" />
      <path
         id="path5"
         d="m 800.723,514.883 c 0,3.965 3.222,7.187 7.187,7.187 3.985,0 7.207,-3.222 7.207,-7.187 0,-3.985 -3.222,-7.207 -7.207,-7.207 -3.965,0 -7.187,3.222 -7.187,7.207 z"
         style="fill:none;stroke:#231f20;stroke-width:5;stroke-linecap:butt;stroke-linejoin:miter;stroke-miterlimit:10;stroke-dasharray:none;stroke-opacity:1"
         transform="matrix(0.13333333,0,0,-0.13333333,0,106.37333)" />
      <path
         id="path6"
         d="m 867.754,783.555 c 0,3.984 3.223,7.207 7.207,7.207 3.965,0 7.187,-3.223 7.187,-7.207 0,-3.973 -3.222,-7.188 -7.187,-7.188 -3.984,0 -7.207,3.215 -7.207,7.188"
         style="fill:#231f20;fill-opacity:1;fill-rule:nonzero;stroke:none"
         transform="matrix(0.13333333,0,0,-0.13333333,0,106.37333)" />
      <path
         id="path7"
         d="m 867.754,783.555 c 0,3.984 3.223,7.207 7.207,7.207 3.965,0 7.187,-3.223 7.187,-7.207 0,-3.973 -3.222,-7.188 -7.187,-7.188 -3.984,0 -7.207,3.215 -7.207,7.188 z"
         style="fill:none;stroke:#231f20;stroke-width:5;stroke-linecap:butt;stroke-linejoin:miter;stroke-miterlimit:10;stroke-dasharray:none;stroke-opacity:1"
         transform="matrix(0.13333333,0,0,-0.13333333,0,106.37333)" />
      <path
         id="path8"
         d="M 14.2578,297.902 C 185.293,144.551 809.98,514.375 874.961,783.555"
         style="fill:none;stroke:#231f20;stroke-width:10;stroke-linecap:butt;stroke-linejoin:miter;stroke-miterlimit:10;stroke-dasharray:none;stroke-opacity:1"
         transform="matrix(0.13333333,0,0,-0.13333333,0,106.37333)" />
      <path
         id="path9"
         d="M 14.2578,143.613 H 874.961 V 783.555 H 14.2578 Z"
         style="fill:none;stroke:#231f20;stroke-width:5;stroke-linecap:butt;stroke-linejoin:miter;stroke-miterlimit:10;stroke-dasharray:none;stroke-opacity:1"
         transform="matrix(0.13333333,0,0,-0.13333333,0,106.37333)" />
      <path
         id="path10"
         d="m 1179.84,534.258 c 1.96,3.469 6.35,4.687 9.81,2.734 3.47,-1.953 4.69,-6.347 2.73,-9.804 -1.95,-3.458 -6.34,-4.688 -9.8,-2.735 -3.46,1.953 -4.69,6.348 -2.74,9.805"
         style="fill:#231f20;fill-opacity:1;fill-rule:nonzero;stroke:none"
         transform="matrix(0.13333333,0,0,-0.13333333,0,106.37333)" />
      <path
         id="path11"
         d="m 1179.84,534.258 c 1.96,3.469 6.35,4.687 9.81,2.734 3.47,-1.953 4.69,-6.347 2.73,-9.804 -1.95,-3.458 -6.34,-4.688 -9.8,-2.735 -3.46,1.953 -4.69,6.348 -2.74,9.805 z"
         style="fill:none;stroke:#231f20;stroke-width:5;stroke-linecap:butt;stroke-linejoin:miter;stroke-miterlimit:10;stroke-dasharray:none;stroke-opacity:1"
         transform="matrix(0.13333333,0,0,-0.13333333,0,106.37333)" />
      <path
         id="path12"
         d="m 1251.37,316.77 c 1.95,3.464 6.34,4.687 9.8,2.734 3.47,-1.953 4.69,-6.34 2.74,-9.805 -1.96,-3.469 -6.34,-4.687 -9.81,-2.734 -3.46,1.953 -4.69,6.336 -2.73,9.805"
         style="fill:#231f20;fill-opacity:1;fill-rule:nonzero;stroke:none"
         transform="matrix(0.13333333,0,0,-0.13333333,0,106.37333)" />
      <path
         id="path13"
         d="m 1251.37,316.77 c 1.95,3.464 6.34,4.687 9.8,2.734 3.47,-1.953 4.69,-6.34 2.74,-9.805 -1.96,-3.469 -6.34,-4.687 -9.81,-2.734 -3.46,1.953 -4.69,6.336 -2.73,9.805 z"
         style="fill:none;stroke:#231f20;stroke-width:5;stroke-linecap:butt;stroke-linejoin:miter;stroke-miterlimit:10;stroke-dasharray:none;stroke-opacity:1"
         transform="matrix(0.13333333,0,0,-0.13333333,0,106.37333)" />
      <path
         id="path14"
         d="m 1977.71,333.293 c 1.95,3.465 6.34,4.687 9.81,2.734 3.46,-1.964 4.68,-6.339 2.72,-9.816 -1.95,-3.457 -6.33,-4.676 -9.8,-2.723 -3.47,1.953 -4.69,6.336 -2.73,9.805"
         style="fill:#231f20;fill-opacity:1;fill-rule:nonzero;stroke:none"
         transform="matrix(0.13333333,0,0,-0.13333333,0,106.37333)" />
      <path
         id="path15"
         d="m 1977.71,333.293 c 1.95,3.465 6.34,4.687 9.81,2.734 3.46,-1.964 4.68,-6.339 2.72,-9.816 -1.95,-3.457 -6.33,-4.676 -9.8,-2.723 -3.47,1.953 -4.69,6.336 -2.73,9.805 z"
         style="fill:none;stroke:#231f20;stroke-width:5;stroke-linecap:butt;stroke-linejoin:miter;stroke-miterlimit:10;stroke-dasharray:none;stroke-opacity:1"
         transform="matrix(0.13333333,0,0,-0.13333333,0,106.37333)" />
      <path
         id="path16"
         d="m 2168.11,534.355 c 1.95,3.477 6.34,4.688 9.8,2.735 3.47,-1.953 4.69,-6.336 2.73,-9.805 -1.95,-3.457 -6.34,-4.687 -9.8,-2.734 -3.46,1.953 -4.69,6.347 -2.73,9.804"
         style="fill:#231f20;fill-opacity:1;fill-rule:nonzero;stroke:none"
         transform="matrix(0.13333333,0,0,-0.13333333,0,106.37333)" />
      <path
         id="path17"
         d="m 2168.11,534.355 c 1.95,3.477 6.34,4.688 9.8,2.735 3.47,-1.953 4.69,-6.336 2.73,-9.805 -1.95,-3.457 -6.34,-4.687 -9.8,-2.734 -3.46,1.953 -4.69,6.347 -2.73,9.804 z"
         style="fill:none;stroke:#231f20;stroke-width:5;stroke-linecap:butt;stroke-linejoin:miter;stroke-miterlimit:10;stroke-dasharray:none;stroke-opacity:1"
         transform="matrix(0.13333333,0,0,-0.13333333,0,106.37333)" />
      <path
         id="path18"
         d="m 1186.11,530.723 c 73.62,-217.598 799.42,-202.422 988.27,0.097"
         style="fill:none;stroke:#231f20;stroke-width:10;stroke-linecap:butt;stroke-linejoin:miter;stroke-miterlimit:10;stroke-dasharray:none;stroke-opacity:1"
         transform="matrix(0.13333333,0,0,-0.13333333,0,106.37333)" />
      <path
         id="path19"
         d="m 2174.38,313.234 h -988.27 v 217.489 h 988.27 z"
         style="fill:none;stroke:#231f20;stroke-width:5;stroke-linecap:butt;stroke-linejoin:miter;stroke-miterlimit:10;stroke-dasharray:none;stroke-opacity:1"
         transform="matrix(0.13333333,0,0,-0.13333333,0,106.37333)" />
      <path
         id="path20"
         d="m 2.5,294.277 c 0,6.485 5.26172,11.758 11.7578,11.758 6.5039,0 11.7578,-5.273 11.7578,-11.758 0,-6.504 -5.2539,-11.765 -11.7578,-11.765 -6.49608,0 -11.7578,5.261 -11.7578,11.765"
         style="fill:#231f20;fill-opacity:1;fill-rule:nonzero;stroke:none"
         transform="matrix(0.13333333,0,0,-0.13333333,0,106.37333)" />
      <path
         id="path21"
         d="m 2.5,294.277 c 0,6.485 5.26172,11.758 11.7578,11.758 6.5039,0 11.7578,-5.273 11.7578,-11.758 0,-6.504 -5.2539,-11.765 -11.7578,-11.765 -6.49608,0 -11.7578,5.261 -11.7578,11.765 z"
         style="fill:none;stroke:#231f20;stroke-width:5;stroke-linecap:butt;stroke-linejoin:miter;stroke-miterlimit:10;stroke-dasharray:none;stroke-opacity:1"
         transform="matrix(0.13333333,0,0,-0.13333333,0,106.37333)" />
      <path
         id="path22"
         d="m 171.66,143.613 c 0,6.504 5.266,11.758 11.758,11.758 6.504,0 11.758,-5.254 11.758,-11.758 0,-6.492 -5.254,-11.758 -11.758,-11.758 -6.492,0 -11.758,5.266 -11.758,11.758"
         style="fill:#231f20;fill-opacity:1;fill-rule:nonzero;stroke:none"
         transform="matrix(0.13333333,0,0,-0.13333333,0,106.37333)" />
      <path
         id="path23"
         d="m 171.66,143.613 c 0,6.504 5.266,11.758 11.758,11.758 6.504,0 11.758,-5.254 11.758,-11.758 0,-6.492 -5.254,-11.758 -11.758,-11.758 -6.492,0 -11.758,5.266 -11.758,11.758 z"
         style="fill:none;stroke:#231f20;stroke-width:5;stroke-linecap:butt;stroke-linejoin:miter;stroke-miterlimit:10;stroke-dasharray:none;stroke-opacity:1"
         transform="matrix(0.13333333,0,0,-0.13333333,0,106.37333)" />
      <path
         id="path24"
         d="m 796.152,514.883 c 0,6.496 5.274,11.758 11.758,11.758 6.504,0 11.77,-5.262 11.77,-11.758 0,-6.504 -5.266,-11.758 -11.77,-11.758 -6.484,0 -11.758,5.254 -11.758,11.758"
         style="fill:#231f20;fill-opacity:1;fill-rule:nonzero;stroke:none"
         transform="matrix(0.13333333,0,0,-0.13333333,0,106.37333)" />
      <path
         id="path25"
         d="m 796.152,514.883 c 0,6.496 5.274,11.758 11.758,11.758 6.504,0 11.77,-5.262 11.77,-11.758 0,-6.504 -5.266,-11.758 -11.77,-11.758 -6.484,0 -11.758,5.254 -11.758,11.758 z"
         style="fill:none;stroke:#231f20;stroke-width:5;stroke-linecap:butt;stroke-linejoin:miter;stroke-miterlimit:10;stroke-dasharray:none;stroke-opacity:1"
         transform="matrix(0.13333333,0,0,-0.13333333,0,106.37333)" />
      <path
         id="path26"
         d="m 863.191,783.555 c 0,6.504 5.266,11.758 11.77,11.758 6.484,0 11.758,-5.254 11.758,-11.758 0,-6.492 -5.274,-11.758 -11.758,-11.758 -6.504,0 -11.77,5.266 -11.77,11.758"
         style="fill:#231f20;fill-opacity:1;fill-rule:nonzero;stroke:none"
         transform="matrix(0.13333333,0,0,-0.13333333,0,106.37333)" />
      <path
         id="path27"
         d="m 863.191,783.555 c 0,6.504 5.266,11.758 11.77,11.758 6.484,0 11.758,-5.254 11.758,-11.758 0,-6.492 -5.274,-11.758 -11.758,-11.758 -6.504,0 -11.77,5.266 -11.77,11.758 z"
         style="fill:none;stroke:#231f20;stroke-width:5;stroke-linecap:butt;stroke-linejoin:miter;stroke-miterlimit:10;stroke-dasharray:none;stroke-opacity:1"
         transform="matrix(0.13333333,0,0,-0.13333333,0,106.37333)" />
      <path
         id="path28"
         d="m 1174.36,530.723 c 0,6.504 5.26,11.757 11.75,11.757 6.51,0 11.76,-5.253 11.76,-11.757 0,-6.493 -5.25,-11.758 -11.76,-11.758 -6.49,0 -11.75,5.265 -11.75,11.758"
         style="fill:#231f20;fill-opacity:1;fill-rule:nonzero;stroke:none"
         transform="matrix(0.13333333,0,0,-0.13333333,0,106.37333)" />
      <path
         id="path29"
         d="m 1174.36,530.723 c 0,6.504 5.26,11.757 11.75,11.757 6.51,0 11.76,-5.253 11.76,-11.757 0,-6.493 -5.25,-11.758 -11.76,-11.758 -6.49,0 -11.75,5.265 -11.75,11.758 z"
         style="fill:none;stroke:#231f20;stroke-width:5;stroke-linecap:butt;stroke-linejoin:miter;stroke-miterlimit:10;stroke-dasharray:none;stroke-opacity:1"
         transform="matrix(0.13333333,0,0,-0.13333333,0,106.37333)" />
      <path
         id="path30"
         d="m 1245.88,313.234 c 0,6.493 5.26,11.766 11.76,11.766 6.5,0 11.76,-5.273 11.76,-11.766 0,-6.496 -5.26,-11.769 -11.76,-11.769 -6.5,0 -11.76,5.273 -11.76,11.769"
         style="fill:#231f20;fill-opacity:1;fill-rule:nonzero;stroke:none"
         transform="matrix(0.13333333,0,0,-0.13333333,0,106.37333)" />
      <path
         id="path31"
         d="m 1245.88,313.234 c 0,6.493 5.26,11.766 11.76,11.766 6.5,0 11.76,-5.273 11.76,-11.766 0,-6.496 -5.26,-11.769 -11.76,-11.769 -6.5,0 -11.76,5.273 -11.76,11.769 z"
         style="fill:none;stroke:#231f20;stroke-width:5;stroke-linecap:butt;stroke-linejoin:miter;stroke-miterlimit:10;stroke-dasharray:none;stroke-opacity:1"
         transform="matrix(0.13333333,0,0,-0.13333333,0,106.37333)" />
      <path
         id="path32"
         d="m 1972.21,329.758 c 0,6.492 5.27,11.765 11.76,11.765 6.5,0 11.77,-5.273 11.77,-11.765 0,-6.496 -5.27,-11.77 -11.77,-11.77 -6.49,0 -11.76,5.274 -11.76,11.77"
         style="fill:#231f20;fill-opacity:1;fill-rule:nonzero;stroke:none"
         transform="matrix(0.13333333,0,0,-0.13333333,0,106.37333)" />
      <path
         id="path33"
         d="m 1972.21,329.758 c 0,6.492 5.27,11.765 11.76,11.765 6.5,0 11.77,-5.273 11.77,-11.765 0,-6.496 -5.27,-11.77 -11.77,-11.77 -6.49,0 -11.76,5.274 -11.76,11.77 z"
         style="fill:none;stroke:#231f20;stroke-width:5;stroke-linecap:butt;stroke-linejoin:miter;stroke-miterlimit:10;stroke-dasharray:none;stroke-opacity:1"
         transform="matrix(0.13333333,0,0,-0.13333333,0,106.37333)" />
      <path
         id="path34"
         d="m 2162.62,530.82 c 0,6.504 5.26,11.77 11.76,11.77 6.49,0 11.75,-5.266 11.75,-11.77 0,-6.484 -5.26,-11.757 -11.75,-11.757 -6.5,0 -11.76,5.273 -11.76,11.757"
         style="fill:#231f20;fill-opacity:1;fill-rule:nonzero;stroke:none"
         transform="matrix(0.13333333,0,0,-0.13333333,0,106.37333)" />
      <path
         id="path35"
         d="m 2162.62,530.82 c 0,6.504 5.26,11.77 11.76,11.77 6.49,0 11.75,-5.266 11.75,-11.77 0,-6.484 -5.26,-11.757 -11.75,-11.757 -6.5,0 -11.76,5.273 -11.76,11.757 z"
         style="fill:none;stroke:#231f20;stroke-width:5;stroke-linecap:butt;stroke-linejoin:miter;stroke-miterlimit:10;stroke-dasharray:none;stroke-opacity:1"
         transform="matrix(0.13333333,0,0,-0.13333333,0,106.37333)" />
      <path
         id="path36"
         d="m 2.6958828,1.3254644 c -0.890625,-0.76171878 -1.40625,-2.20312503 -1.40625,-3.75 0,-1.546875 0.515625,-3 1.40625,-3.75 L 2.5435391,-6.3854731 c -1.3242188,0.9023437 -1.91015629,2.3320312 -1.91015629,3.9492187 0,1.62890627 0.58593749,3.08203127 1.91015629,3.9609375 z m 4.3212891,-1.67578128 -0.09375,-0.234375 c -0.09375,0.0585938 -0.2226563,0.10546875 -0.328125,0.10546875 -0.1523438,0 -0.3164063,-0.140625 -0.3164063,-0.55078127 v -1.6640625 c 0,-0.46875 -0.082031,-0.84375 -0.3984375,-1.1015625 -0.1992187,-0.1640625 -0.46875,-0.2460937 -0.7382812,-0.2460937 -0.515625,0.1054687 -1.1015625,0.4570312 -1.3476563,0.6328125 -0.1757812,0.1289062 -0.2929687,0.2226562 -0.2929687,0.3632812 0,0.1992188 0.234375,0.3867188 0.3984375,0.3867188 0.1289062,0 0.2226562,-0.070312 0.2578125,-0.2109375 0.070312,-0.28125 0.1523437,-0.4804688 0.2695312,-0.5976563 0.09375,-0.1054687 0.2226563,-0.1757812 0.4101563,-0.1757812 0.4453125,0 0.75,0.3632812 0.75,1.0195312 v 0.1640625 c -0.1992188,0.1523438 -0.8554688,0.3984375 -1.3945313,0.5742188 -0.4921875,0.1757812 -0.7265625,0.4570312 -0.7265625,0.90234372 0,0.5625 0.4453125,1.08984375 1.078125,1.08984375 0.2695313,0 0.703125,-0.328125 1.0664063,-0.57421875 0.046875,0.15234375 0.09375,0.28125 0.2109375,0.41015625 0.1054687,0.08203125 0.2929687,0.1640625 0.421875,0.1640625 z M 5.5874844,-0.76047313 c -0.1640625,0.1640625 -0.4804688,0.31640625 -0.7148438,0.328125 -0.28125,0 -0.6445312,-0.22265625 -0.6445312,-0.69140627 0,-0.328125 0.1992187,-0.4921875 0.5507812,-0.65625 0.1875,-0.09375 0.6210938,-0.28125 0.8085938,-0.375 z M 7.4742031,-6.1745356 c 0.890625,0.7382812 1.4179688,2.203125 1.4179688,3.75 0,1.54687497 -0.5039063,2.98828122 -1.4179688,3.75 l 0.1640625,0.1992187 c 1.3476563,-0.91406248 1.8984375,-2.33203123 1.8984375,-3.9492187 0,-1.6289063 -0.5507812,-3.0585938 -1.8984375,-3.9609375 z m 118.4736369,7.5 c -0.89063,-0.76171878 -1.40625,-2.20312503 -1.40625,-3.75 0,-1.546875 0.51562,-3 1.40625,-3.75 l -0.15235,-0.2109375 c -1.32422,0.9023437 -1.91015,2.3320312 -1.91015,3.9492187 0,1.62890627 0.58593,3.08203127 1.91015,3.9609375 z m 1.79004,-4.9570313 v -2.7773437 c -0.33985,0.1171875 -0.89063,0.2578125 -1.3125,0.3164062 v 0.2109375 c 0.58593,0.046875 0.59765,0.1054688 0.59765,0.6679688 v 5.00390622 c 0.49219,0.234375 0.94922,0.31640625 1.32422,0.31640625 1.20703,0 2.26172,-0.9375 2.26172,-2.26171877 0,-1.0546875 -0.8086,-1.8867187 -1.78125,-1.8867187 -0.0937,0 -0.22266,0.023437 -0.36328,0.09375 z m 0,0.2695313 c 0.16406,-0.1054688 0.44531,-0.1757813 0.70312,-0.1757813 0.73828,0 1.37109,0.5976563 1.37109,1.6171875 0,1.05468752 -0.48047,1.68750002 -1.21875,1.68750002 -0.48047,-0.0117188 -0.75,-0.328125 -0.80859,-0.50390625 -0.0352,-0.0820313 -0.0469,-0.17578125 -0.0469,-0.30468747 z m 3.6123,-2.8125 c 0.89062,0.7382812 1.41797,2.203125 1.41797,3.75 0,1.54687497 -0.50391,2.98828122 -1.41797,3.75 l 0.16406,0.1992187 c 1.34766,-0.91406248 1.89844,-2.33203123 1.89844,-3.9492187 0,-1.6289063 -0.55078,-3.0585938 -1.89844,-3.9609375 z m 0,0"
         style="fill:#231f20;fill-opacity:1;fill-rule:nonzero;stroke:none"
         aria-label="(a)(b)"
         transform="matrix(1.3333333,0,0,1.3333333,52.495333,102.05303)" />
    </g>
  </g>
</svg>
