<?xml version="1.0" encoding="UTF-8" standalone="no"?>
<!-- Created with Inkscape (http://www.inkscape.org/) -->

<svg
   version="1.1"
   id="svg1"
   width="169.78667"
   height="192.98666"
   viewBox="0 0 169.78667 192.98666"
   sodipodi:docname="pha06f14.eps"
   xmlns:inkscape="http://www.inkscape.org/namespaces/inkscape"
   xmlns:sodipodi="http://sodipodi.sourceforge.net/DTD/sodipodi-0.dtd"
   xmlns="http://www.w3.org/2000/svg"
   xmlns:svg="http://www.w3.org/2000/svg">
  <defs
     id="defs1" />
  <sodipodi:namedview
     id="namedview1"
     pagecolor="#ffffff"
     bordercolor="#000000"
     borderopacity="0.25"
     inkscape:showpageshadow="2"
     inkscape:pageopacity="0.0"
     inkscape:pagecheckerboard="0"
     inkscape:deskcolor="#d1d1d1">
    <inkscape:page
       x="0"
       y="0"
       inkscape:label="1"
       id="page1"
       width="169.78667"
       height="192.98666"
       margin="0"
       bleed="0" />
  </sodipodi:namedview>
  <g
     id="g1"
     inkscape:groupmode="layer"
     inkscape:label="1">
    <g
       id="group-R5">
      <path
         id="path2"
         d="m 479.371,562.223 c 0,8.355 6.766,15.125 15.117,15.125 8.356,0 15.121,-6.77 15.121,-15.125 0,-8.348 -6.765,-15.118 -15.121,-15.118 -8.351,0 -15.117,6.77 -15.117,15.118"
         style="fill:#231f20;fill-opacity:1;fill-rule:nonzero;stroke:none"
         transform="matrix(0.13333333,0,0,-0.13333333,0,192.98667)" />
      <path
         id="path3"
         d="m 479.371,562.223 c 0,8.355 6.766,15.125 15.117,15.125 8.356,0 15.121,-6.77 15.121,-15.125 0,-8.348 -6.765,-15.118 -15.121,-15.118 -8.351,0 -15.117,6.77 -15.117,15.118 z"
         style="fill:none;stroke:#231f20;stroke-width:5;stroke-linecap:butt;stroke-linejoin:miter;stroke-miterlimit:10;stroke-dasharray:none;stroke-opacity:1"
         transform="matrix(0.13333333,0,0,-0.13333333,0,192.98667)" />
      <path
         id="path4"
         d="m 836.316,963.668 c 0,8.352 6.77,15.117 15.125,15.117 8.348,0 15.118,-6.765 15.118,-15.117 0,-8.348 -6.77,-15.117 -15.118,-15.117 -8.355,0 -15.125,6.769 -15.125,15.117"
         style="fill:#231f20;fill-opacity:1;fill-rule:nonzero;stroke:none"
         transform="matrix(0.13333333,0,0,-0.13333333,0,192.98667)" />
      <path
         id="path5"
         d="m 836.316,963.668 c 0,8.352 6.77,15.117 15.125,15.117 8.348,0 15.118,-6.765 15.118,-15.117 0,-8.348 -6.77,-15.117 -15.118,-15.117 -8.355,0 -15.125,6.769 -15.125,15.117 z"
         style="fill:none;stroke:#231f20;stroke-width:5;stroke-linecap:butt;stroke-linejoin:miter;stroke-miterlimit:10;stroke-dasharray:none;stroke-opacity:1"
         transform="matrix(0.13333333,0,0,-0.13333333,0,192.98667)" />
      <path
         id="path6"
         d="M 844.648,954.762 1271.53,1445.75"
         style="fill:none;stroke:#231f20;stroke-width:5;stroke-linecap:butt;stroke-linejoin:miter;stroke-miterlimit:10;stroke-dasharray:30, 20;stroke-dashoffset:0;stroke-opacity:1"
         transform="matrix(0.13333333,0,0,-0.13333333,0,192.98667)" />
      <path
         id="path7"
         d="m 508.246,576.254 309.32,348.039"
         style="fill:none;stroke:#231f20;stroke-width:5;stroke-linecap:butt;stroke-linejoin:miter;stroke-miterlimit:10;stroke-dasharray:none;stroke-opacity:1"
         transform="matrix(0.13333333,0,0,-0.13333333,0,192.98667)" />
      <path
         id="path8"
         d="m 811.605,917.586 -20.742,3.777 0.106,0.735 28.234,14.203 c 8.485,6.152 16.965,12.308 25.445,18.461 -5.117,-9.145 -10.234,-18.289 -15.347,-27.434 l -10.789,-29.711 -0.641,-0.258 -6.266,20.227"
         style="fill:#231f20;fill-opacity:1;fill-rule:nonzero;stroke:none"
         transform="matrix(0.13333333,0,0,-0.13333333,0,192.98667)" />
      <path
         id="path9"
         d="M 1.875,1.64844 508.246,576.254"
         style="fill:none;stroke:#231f20;stroke-width:5;stroke-linecap:butt;stroke-linejoin:miter;stroke-miterlimit:10;stroke-dasharray:30, 20;stroke-dashoffset:0;stroke-opacity:1"
         transform="matrix(0.13333333,0,0,-0.13333333,0,192.98667)" />
      <g
         id="g9"
         aria-label="e(p) &lt; 0&#10;e(p) &gt; 0&#10;p&#10;0&#10;p&#10;1"
         transform="matrix(1.3333333,0,0,1.3333333,48.730667,77.332533)">
        <path
           id="path10"
           d="m 3.1287578,-1.1136578 c -0.4453125,0.43359374 -0.9375,0.69140624 -1.3125,0.69140624 -0.5507812,0 -0.703125,-0.52734375 -0.703125,-1.01953124 0,-0.09375 0,-0.1757813 0.023437,-0.28125 0.8554688,-0.2226563 2.3789063,-0.703125 2.3789063,-1.59375 0,-0.3867188 -0.3164063,-0.7265625 -0.796875,-0.7265625 -0.375,0 -0.8554688,0.2109375 -1.2421875,0.5039062 -0.71484379,0.5390625 -1.07812504,1.4882813 -1.07812504,2.3320313 0,1.06640624 0.57421875,1.31249999 0.98437504,1.31249999 0.4335937,0 1.1132812,-0.1640625 1.8984375,-1.01953125 z M 2.3904766,-3.6683453 c 0.2578125,0 0.4453125,0.1757812 0.4453125,0.4921875 0,0.4101562 -0.375,0.8320312 -1.6640625,1.171875 0.1523437,-1.0078125 0.5976562,-1.4296875 0.84375,-1.5585938 0.09375,-0.070312 0.2460937,-0.1054687 0.375,-0.1054687 z m 0,0"
           style="fill:#231f20;fill-opacity:1;fill-rule:nonzero;stroke:none" />
        <path
           id="path11"
           d="m 6.29575,1.3238422 c -0.890625,-0.76171876 -1.40625,-2.20312501 -1.40625,-3.75 0,-1.546875 0.515625,-3 1.40625,-3.75 L 6.1434062,-6.3870953 C 4.8191875,-5.4847516 4.23325,-4.0550641 4.23325,-2.4378766 c 0,1.62890629 0.5859375,3.08203129 1.9101562,3.9609375 z m 1.9423828,-4.7460938 v -0.7148437 c -0.421875,0.1757812 -0.9257812,0.328125 -1.3125,0.3984375 v 0.2109375 c 0.5625,0.070312 0.5976563,0.09375 0.5976563,0.6796875 v 4.0664062 c 0,0.5859375 -0.082031,0.6445313 -0.65625,0.703125 v 0.234375 H 8.9998516 V 1.9214984 C 8.2967266,1.8511859 8.2381328,1.8043109 8.2381328,1.1246234 v -1.18359371 c 0.1171875,0.0703125 0.3632813,0.15234375 0.6210938,0.1640625 1.1718754,-0.2109375 2.2382814,-1.08984375 2.2382814,-2.44921879 0,-0.890625 -0.597656,-1.6992187 -1.5937502,-1.6992187 -0.1054687,0 -0.28125,0.046875 -0.4453125,0.140625 z m 0,0.3046875 c 0.2460938,-0.1875 0.609375,-0.3867187 0.9023438,-0.3867187 0.65625,0 1.2070314,0.5390625 1.2070314,1.5117187 0,1.00781254 -0.5156252,1.66406254 -1.2656252,1.66406254 -0.3046875,0 -0.6445312,-0.15234375 -0.84375,-0.3515625 z m 3.6005862,-3.0585937 c 0.890625,0.7382812 1.417968,2.203125 1.417968,3.75 0,1.54687499 -0.503906,2.98828124 -1.417968,3.75 l 0.164062,0.1992187 c 1.347656,-0.91406246 1.898438,-2.33203121 1.898438,-3.9492187 0,-1.6289063 -0.550782,-3.0585938 -1.898438,-3.9609375 z m 9.190429,6.1757812375 V -0.50428281 l -3.375,-1.76953129 v -0.011719 l 3.375,-1.7695313 v -0.5039062 l -3.902343,2.0625 v 0.421875 z M 25.754734,-5.7191266 c -1.347656,0 -1.839843,1.6054688 -1.839843,2.9179688 0,1.4179687 0.480468,2.90624999 1.839843,2.90624999 1.359375,0 1.828125,-1.59374999 1.828125,-2.91796879 0,-1.3828125 -0.46875,-2.90625 -1.828125,-2.90625 z m 0,0.3046875 c 0.808594,0 1.03125,1.3242188 1.03125,2.6015625 0,1.265625 -0.222656,2.61328129 -1.03125,2.61328129 -0.773437,0 -1.042968,-1.35937499 -1.042968,-2.61328129 0,-1.2539062 0.222656,-2.6015625 1.042968,-2.6015625 z m 0,0"
           style="fill:#231f20;fill-opacity:1;fill-rule:nonzero;stroke:none" />
        <path
           id="path12"
           d="m 36.943211,28.001577 c -0.445313,0.433593 -0.9375,0.691406 -1.3125,0.691406 -0.550781,0 -0.703125,-0.527344 -0.703125,-1.019531 0,-0.09375 0,-0.175782 0.02344,-0.28125 0.855469,-0.222657 2.378907,-0.703125 2.378907,-1.59375 0,-0.386719 -0.316407,-0.726563 -0.796875,-0.726563 -0.375,0 -0.855469,0.210938 -1.242188,0.503906 -0.714844,0.539063 -1.078125,1.488282 -1.078125,2.332032 0,1.066406 0.574219,1.3125 0.984375,1.3125 0.433594,0 1.113281,-0.164063 1.898438,-1.019532 z M 36.20493,25.446889 c 0.257812,0 0.445312,0.175781 0.445312,0.492188 0,0.410156 -0.375,0.832031 -1.664062,1.171875 0.152343,-1.007813 0.597656,-1.429688 0.84375,-1.558594 0.09375,-0.07031 0.246093,-0.105469 0.375,-0.105469 z m 0,0"
           style="fill:#231f20;fill-opacity:1;fill-rule:nonzero;stroke:none" />
        <path
           id="path13"
           d="M 39.216648,29.993764 C 38.618992,29.489858 38.26743,28.52892 38.26743,27.49767 c 0,-1.03125 0.339843,-2.003906 0.949218,-2.496093 l -0.117187,-0.140625 c -0.867188,0.597656 -1.265625,1.558593 -1.265625,2.625 0,1.089843 0.398437,2.050781 1.265625,2.648437 z m 2.329102,-3.164062 v -0.46875 c -0.292969,0.117187 -0.621094,0.210937 -0.878906,0.257812 v 0.140625 c 0.375,0.04687 0.398437,0.05859 0.398437,0.457031 v 2.707032 c 0,0.398437 -0.05859,0.433593 -0.433594,0.46875 v 0.164062 h 1.417969 v -0.164062 c -0.46875,-0.04687 -0.503906,-0.07031 -0.503906,-0.527344 v -0.785156 c 0.07031,0.04687 0.234375,0.105468 0.410156,0.105468 0.773438,-0.140625 1.488281,-0.726562 1.488281,-1.628906 0,-0.597656 -0.386718,-1.136719 -1.054687,-1.136719 -0.07031,0 -0.1875,0.03516 -0.292969,0.09375 z m 0,0.199218 c 0.152344,-0.117187 0.398437,-0.246093 0.597656,-0.246093 0.433594,0 0.796875,0.363281 0.796875,0.996093 0,0.679688 -0.328125,1.113282 -0.832031,1.113282 -0.210938,0 -0.433594,-0.09375 -0.5625,-0.234375 z m 3.966797,-2.027343 c 0.597656,0.492187 0.949219,1.464843 0.949219,2.496093 0,1.03125 -0.339844,1.992188 -0.949219,2.496094 l 0.117187,0.140625 c 0.890625,-0.609375 1.265625,-1.558594 1.265625,-2.636719 0,-1.078125 -0.375,-2.039062 -1.265625,-2.636718 z m 7.839844,2.730468 v -0.28125 l -2.589844,-1.382812 v 0.339844 l 2.238281,1.183593 v 0.01172 l -2.238281,1.171875 v 0.339844 z m 5.499023,-2.425781 c -0.902344,0 -1.230469,1.066406 -1.230469,1.945313 0,0.949218 0.328125,1.933593 1.230469,1.933593 0.902344,0 1.21875,-1.066406 1.21875,-1.945312 0,-0.925781 -0.316406,-1.933594 -1.21875,-1.933594 z m -0.01172,0.199219 c 0.539063,0 0.691407,0.890625 0.691407,1.734375 0,0.84375 -0.140625,1.746094 -0.679688,1.746094 -0.527344,0 -0.703125,-0.914063 -0.703125,-1.746094 0,-0.832031 0.152344,-1.734375 0.691406,-1.734375 z m -42.963867,9.849609 v -0.46875 c -0.292969,0.117188 -0.621094,0.210938 -0.878906,0.257813 v 0.140625 c 0.375,0.04687 0.398437,0.05859 0.398437,0.457031 v 2.707031 c 0,0.398438 -0.05859,0.433594 -0.433593,0.46875 v 0.164063 h 1.417968 v -0.164063 c -0.46875,-0.04687 -0.503906,-0.07031 -0.503906,-0.527344 v -0.785156 c 0.07031,0.04687 0.234375,0.105469 0.410156,0.105469 0.773438,-0.140625 1.488282,-0.726563 1.488282,-1.628906 0,-0.597657 -0.386719,-1.136719 -1.054688,-1.136719 -0.07031,0 -0.1875,0.03516 -0.292969,0.09375 z m 0,0.199219 c 0.152344,-0.117188 0.398438,-0.246094 0.597656,-0.246094 0.433594,0 0.796875,0.363281 0.796875,0.996094 0,0.679687 -0.328125,1.113281 -0.832031,1.113281 -0.210937,0 -0.433594,-0.09375 -0.5625,-0.234375 z m 5.135742,0.275391 c -0.902343,0 -1.230468,1.066406 -1.230468,1.945312 0,0.949219 0.328125,1.933594 1.230468,1.933594 0.902344,0 1.21875,-1.066406 1.21875,-1.945313 0,-0.925781 -0.316406,-1.933593 -1.21875,-1.933593 z m -0.01172,0.199218 c 0.539062,0 0.691406,0.890625 0.691406,1.734375 0,0.84375 -0.140625,1.746094 -0.679688,1.746094 -0.527343,0 -0.703125,-0.914062 -0.703125,-1.746094 0,-0.832031 0.152344,-1.734375 0.691407,-1.734375 z M 50.753758,-4.2718609 v -0.46875 c -0.292969,0.1171875 -0.621094,0.2109375 -0.878906,0.2578125 v 0.140625 c 0.375,0.046875 0.398437,0.058594 0.398437,0.4570312 v 2.7070313 c 0,0.39843746 -0.05859,0.43359371 -0.433594,0.46874996 v 0.1640625 h 1.417969 v -0.1640625 c -0.46875,-0.046875 -0.503906,-0.0703125 -0.503906,-0.52734376 v -0.7851562 c 0.07031,0.046875 0.234375,0.1054687 0.410156,0.1054687 0.773438,-0.140625 1.488281,-0.7265625 1.488281,-1.6289062 0,-0.5976563 -0.386718,-1.1367188 -1.054687,-1.1367188 -0.07031,0 -0.1875,0.035156 -0.292969,0.09375 z m 0,0.1992187 c 0.152344,-0.1171875 0.398437,-0.2460937 0.597656,-0.2460937 0.433594,0 0.796875,0.3632812 0.796875,0.9960937 0,0.6796875 -0.328125,1.1132813 -0.832031,1.1132813 -0.210938,0 -0.433594,-0.09375 -0.5625,-0.234375 z m 6.005859,4.08691408 v -0.1640625 c -0.550781,-0.0351563 -0.585937,-0.09375 -0.585937,-0.515625 V -3.7943219 c -0.328125,0.1289063 -0.679688,0.2460938 -1.066407,0.3164063 v 0.1289062 l 0.28125,0.011719 c 0.269532,0.011719 0.292969,0.046875 0.292969,0.3632812 v 2.30859378 c 0,0.421875 -0.03516,0.48046875 -0.574219,0.515625 v 0.1640625 z m 0,0"
           style="fill:#231f20;fill-opacity:1;fill-rule:nonzero;stroke:none" />
      </g>
    </g>
  </g>
</svg>
