<?xml version="1.0" encoding="UTF-8" standalone="no"?>
<!-- Created with Inkscape (http://www.inkscape.org/) -->

<svg
   version="1.1"
   id="svg1"
   width="130.44"
   height="93.839996"
   viewBox="0 0 130.44 93.839996"
   sodipodi:docname="pha06f29.eps"
   xmlns:inkscape="http://www.inkscape.org/namespaces/inkscape"
   xmlns:sodipodi="http://sodipodi.sourceforge.net/DTD/sodipodi-0.dtd"
   xmlns="http://www.w3.org/2000/svg"
   xmlns:svg="http://www.w3.org/2000/svg">
  <defs
     id="defs1" />
  <sodipodi:namedview
     id="namedview1"
     pagecolor="#ffffff"
     bordercolor="#000000"
     borderopacity="0.25"
     inkscape:showpageshadow="2"
     inkscape:pageopacity="0.0"
     inkscape:pagecheckerboard="0"
     inkscape:deskcolor="#d1d1d1">
    <inkscape:page
       x="0"
       y="0"
       inkscape:label="1"
       id="page1"
       width="130.44"
       height="93.839996"
       margin="0"
       bleed="0" />
  </sodipodi:namedview>
  <g
     id="g1"
     inkscape:groupmode="layer"
     inkscape:label="1">
    <g
       id="group-R5">
      <path
         id="path2"
         d="M 15.7617,390.066 C 303.75,678.055 735.762,102.066 879.746,534.051"
         style="fill:none;stroke:#231f20;stroke-width:5;stroke-linecap:square;stroke-linejoin:miter;stroke-miterlimit:3.25;stroke-dasharray:none;stroke-opacity:1"
         transform="matrix(0.13333333,0,0,-0.13333333,0,93.84)" />
      <path
         id="path3"
         d="m 31.5039,390.066 c 0,4.18 -1.6601,8.184 -4.6094,11.133 -2.9492,2.949 -6.9726,4.61 -11.1328,4.61 -4.1797,0 -8.18357,-1.661 -11.15232,-4.61 C 1.66016,398.25 0,394.246 0,390.066 c 0,-4.179 1.66016,-8.175 4.60938,-11.152 2.96875,-2.949 6.97262,-4.609 11.15232,-4.609 4.1602,0 8.1836,1.66 11.1328,4.609 2.9493,2.977 4.6094,6.973 4.6094,11.152 v 0"
         style="fill:#231f20;fill-opacity:1;fill-rule:evenodd;stroke:none"
         transform="matrix(0.13333333,0,0,-0.13333333,0,93.84)" />
      <path
         id="path4"
         d="m 319.512,678.055 c 0,4.179 -1.66,8.183 -4.629,11.14 -2.949,2.961 -6.953,4.621 -11.133,4.621 -4.18,0 -8.184,-1.66 -11.133,-4.621 -2.949,-2.957 -4.609,-6.961 -4.609,-11.14 0,-4.18 1.66,-8.184 4.609,-11.133 2.949,-2.942 6.953,-4.602 11.133,-4.602 4.18,0 8.184,1.66 11.133,4.602 2.969,2.949 4.629,6.953 4.629,11.133 v 0"
         style="fill:#231f20;fill-opacity:1;fill-rule:evenodd;stroke:none"
         transform="matrix(0.13333333,0,0,-0.13333333,0,93.84)" />
      <path
         id="path5"
         d="m 751.504,102.066 c 0,4.18 -1.66,8.176 -4.609,11.125 -2.95,2.969 -6.973,4.61 -11.133,4.61 -4.18,0 -8.184,-1.641 -11.153,-4.61 -2.949,-2.949 -4.609,-6.945 -4.609,-11.125 0,-4.1793 1.66,-8.191 4.609,-11.1402 2.969,-2.9492 6.973,-4.6094 11.153,-4.6094 4.16,0 8.183,1.6602 11.133,4.6094 2.949,2.9492 4.609,6.9609 4.609,11.1402 v 0"
         style="fill:#231f20;fill-opacity:1;fill-rule:evenodd;stroke:none"
         transform="matrix(0.13333333,0,0,-0.13333333,0,93.84)" />
      <path
         id="path6"
         d="m 895.508,534.051 c 0,4.179 -1.66,8.183 -4.61,11.152 -2.968,2.949 -6.972,4.617 -11.152,4.617 -4.16,0 -8.183,-1.668 -11.133,-4.617 -2.949,-2.969 -4.609,-6.973 -4.609,-11.152 0,-4.16 1.66,-8.184 4.609,-11.133 2.95,-2.949 6.973,-4.609 11.133,-4.609 4.18,0 8.184,1.66 11.152,4.609 2.95,2.949 4.61,6.973 4.61,11.133 v 0"
         style="fill:#231f20;fill-opacity:1;fill-rule:evenodd;stroke:none"
         transform="matrix(0.13333333,0,0,-0.13333333,0,93.84)" />
      <path
         id="path7"
         d="m 1.0202625,-2.2847281 v -0.46875 c -0.29296875,0.1171875 -0.62109375,0.2109375 -0.87890625,0.2578125 v 0.140625 c 0.375,0.046875 0.3984375,0.058594 0.3984375,0.4570312 V 0.80902187 C 0.53979375,1.2074594 0.4812,1.2426156 0.1062,1.2777719 V 1.4418344 H 1.5241688 V 1.2777719 C 1.0554188,1.2308969 1.0202625,1.2074594 1.0202625,0.75042812 v -0.78515625 c 0.070312,0.046875 0.234375,0.10546875 0.4101563,0.10546875 0.7734375,-0.140625 1.4882812,-0.7265625 1.4882812,-1.62890622 0,-0.5976563 -0.3867187,-1.1367188 -1.0546875,-1.1367188 -0.070312,0 -0.1875,0.035156 -0.2929687,0.09375 z m 0,0.1992187 C 1.1726063,-2.2026969 1.4187,-2.3316031 1.6179188,-2.3316031 c 0.4335937,0 0.796875,0.3632812 0.796875,0.9960937 0,0.67968752 -0.328125,1.11328127 -0.8320313,1.11328127 -0.2109375,0 -0.4335937,-0.09375 -0.5625,-0.234375 z M 7.0231922,2.0014047 V 1.8373422 C 6.4724109,1.8021859 6.4372547,1.7435922 6.4372547,1.3217172 v -3.1289063 c -0.328125,0.1289063 -0.6796875,0.2460938 -1.0664063,0.3164063 v 0.1289062 l 0.28125,0.011719 c 0.2695313,0.011719 0.2929688,0.046875 0.2929688,0.36328124 V 1.3217172 c 0,0.421875 -0.035156,0.4804687 -0.5742188,0.515625 V 2.0014047 Z M 57.607177,12.521912 v -0.46875 C 57.314208,12.17035 56.986083,12.2641 56.72827,12.310975 V 12.4516 c 0.375,0.04687 0.398438,0.05859 0.398438,0.457031 v 2.707031 c 0,0.398438 -0.05859,0.433594 -0.433594,0.46875 v 0.164063 h 1.417969 v -0.164063 c -0.46875,-0.04687 -0.503906,-0.07031 -0.503906,-0.527343 v -0.785157 c 0.07031,0.04687 0.234375,0.105469 0.410156,0.105469 0.773437,-0.140625 1.488281,-0.726562 1.488281,-1.628906 0,-0.597656 -0.386719,-1.136719 -1.054687,-1.136719 -0.07031,0 -0.1875,0.03516 -0.292969,0.09375 z m 0,0.199219 c 0.152343,-0.117187 0.398437,-0.246094 0.597656,-0.246094 0.433594,0 0.796875,0.363282 0.796875,0.996094 0,0.679688 -0.328125,1.113281 -0.832031,1.113281 -0.210938,0 -0.433594,-0.09375 -0.5625,-0.234375 z m 4.20996,1.107422 c 0.140625,-0.222656 0.386719,-0.46875 0.714844,-0.46875 0.316406,0 0.574219,0.1875 0.574219,0.5625 0,0.445313 -0.410156,0.679688 -0.960938,0.84375 l 0.03516,0.175781 c 0.09375,-0.02344 0.246093,-0.05859 0.386718,-0.05859 0.339844,0 0.761719,0.222656 0.761719,0.773437 0,0.585938 -0.304687,0.914063 -0.726562,0.914063 -0.339844,0 -0.585938,-0.175782 -0.738282,-0.316407 -0.04687,-0.03516 -0.105468,-0.03516 -0.152343,0 -0.04687,0.04687 -0.128907,0.128907 -0.128907,0.199219 -0.01172,0.07031 0.01172,0.140625 0.09375,0.222656 0.07031,0.07031 0.316407,0.199219 0.597657,0.199219 0.433593,0 1.570312,-0.445312 1.570312,-1.417969 0,-0.433593 -0.304687,-0.808593 -0.832031,-0.914062 v -0.01172 c 0.175781,-0.117187 0.316406,-0.222656 0.410156,-0.316406 0.105469,-0.117188 0.1875,-0.257813 0.1875,-0.433594 0,-0.445312 -0.363281,-0.785156 -0.902344,-0.785156 -0.316406,0 -0.585937,0.152344 -0.761718,0.339844 l -0.257813,0.375 z M 42.926512,55.430116 v -0.46875 c -0.292968,0.117187 -0.621093,0.210937 -0.878906,0.257812 v 0.140625 c 0.375,0.04687 0.398438,0.05859 0.398438,0.457031 v 2.707032 c 0,0.398437 -0.05859,0.433593 -0.433594,0.46875 v 0.164062 h 1.417969 v -0.164062 c -0.46875,-0.04687 -0.503907,-0.07031 -0.503907,-0.527344 v -0.785156 c 0.07031,0.04687 0.234375,0.105468 0.410157,0.105468 0.773437,-0.140625 1.488281,-0.726562 1.488281,-1.628906 0,-0.597656 -0.386719,-1.136719 -1.054688,-1.136719 -0.07031,0 -0.1875,0.03516 -0.292968,0.09375 z m 0,0.199218 c 0.152344,-0.117187 0.398438,-0.246093 0.597657,-0.246093 0.433593,0 0.796875,0.363281 0.796875,0.996093 0,0.679688 -0.328125,1.113282 -0.832032,1.113282 -0.210937,0 -0.433593,-0.09375 -0.5625,-0.234375 z m 6.169922,3.243164 c -0.175781,0.386719 -0.257812,0.410157 -0.585937,0.410157 h -1.113281 l 0.84375,-0.902344 c 0.550781,-0.585938 0.796875,-0.9375 0.796875,-1.464844 0,-0.621094 -0.480469,-1.007812 -1.007813,-1.007812 -0.351562,0 -0.632812,0.152343 -0.808594,0.351562 l -0.339843,0.492188 0.128906,0.117187 c 0.152344,-0.234375 0.410156,-0.5625 0.808594,-0.5625 0.445312,0 0.714843,0.292969 0.714843,0.796875 0,0.515625 -0.375,1.007813 -0.75,1.453125 -0.304687,0.351563 -0.632812,0.691406 -0.972656,1.019531 v 0.140625 h 2.238281 c 0.08203,-0.269531 0.140625,-0.539062 0.210938,-0.785156 z M -28.968019,27.199647 v -0.46875 c -0.292968,0.117187 -0.621093,0.210937 -0.878906,0.257812 v 0.140625 c 0.375,0.04687 0.398438,0.05859 0.398438,0.457032 v 2.707031 c 0,0.398437 -0.05859,0.433594 -0.433594,0.46875 v 0.164062 h 1.417969 v -0.164062 c -0.46875,-0.04687 -0.503907,-0.07031 -0.503907,-0.527344 v -0.785156 c 0.07031,0.04687 0.234375,0.105469 0.410157,0.105469 0.773437,-0.140625 1.488281,-0.726563 1.488281,-1.628907 0,-0.597656 -0.386719,-1.136718 -1.054688,-1.136718 -0.07031,0 -0.1875,0.03516 -0.292968,0.09375 z m 0,0.199219 c 0.152344,-0.117188 0.398438,-0.246094 0.597657,-0.246094 0.433593,0 0.796875,0.363281 0.796875,0.996094 0,0.679687 -0.328125,1.113281 -0.832032,1.113281 -0.210937,0 -0.433593,-0.09375 -0.5625,-0.234375 z m 5.138672,0.27832 c -0.902344,0 -1.230469,1.066406 -1.230469,1.945312 0,0.949219 0.328125,1.933594 1.230469,1.933594 0.902344,0 1.21875,-1.066406 1.21875,-1.945312 0,-0.925782 -0.316406,-1.933594 -1.21875,-1.933594 z m -0.01172,0.199219 c 0.539063,0 0.691407,0.890625 0.691407,1.734375 0,0.84375 -0.140625,1.746093 -0.679688,1.746093 -0.527344,0 -0.703125,-0.914062 -0.703125,-1.746093 0,-0.832032 0.152344,-1.734375 0.691406,-1.734375 z m 0,0"
         style="fill:#231f20;fill-opacity:1;fill-rule:nonzero;stroke:none"
         aria-label="p&#10;1&#10;p&#10;3&#10;p&#10;2&#10;p&#10;0"
         transform="matrix(1.3333333,0,0,1.3333333,44.8584,9.8978667)" />
    </g>
  </g>
</svg>
