<?xml version="1.0" encoding="UTF-8" standalone="no"?>
<!-- Created with Inkscape (http://www.inkscape.org/) -->

<svg
   version="1.1"
   id="svg1"
   width="281.95999"
   height="229.37334"
   viewBox="0 0 281.95999 229.37334"
   sodipodi:docname="pha06f09.eps"
   xmlns:inkscape="http://www.inkscape.org/namespaces/inkscape"
   xmlns:sodipodi="http://sodipodi.sourceforge.net/DTD/sodipodi-0.dtd"
   xmlns="http://www.w3.org/2000/svg"
   xmlns:svg="http://www.w3.org/2000/svg">
  <defs
     id="defs1" />
  <sodipodi:namedview
     id="namedview1"
     pagecolor="#ffffff"
     bordercolor="#000000"
     borderopacity="0.25"
     inkscape:showpageshadow="2"
     inkscape:pageopacity="0.0"
     inkscape:pagecheckerboard="0"
     inkscape:deskcolor="#d1d1d1">
    <inkscape:page
       x="0"
       y="0"
       inkscape:label="1"
       id="page1"
       width="281.95999"
       height="229.37334"
       margin="0"
       bleed="0" />
  </sodipodi:namedview>
  <g
     id="g1"
     inkscape:groupmode="layer"
     inkscape:label="1">
    <g
       id="group-R5">
      <path
         id="path2"
         d="m 1133.3,1105.97 c 0,-25.46 -80.23,-46.1 -179.218,-46.1 -98.984,0 -179.227,20.64 -179.227,46.1 0,25.46 80.243,46.1 179.227,46.1 55.678,0 105.428,-6.53 138.298,-16.77"
         style="fill:none;stroke:#8b8889;stroke-width:5;stroke-linecap:butt;stroke-linejoin:miter;stroke-miterlimit:10;stroke-dasharray:none;stroke-opacity:1"
         transform="matrix(0.13333333,0,0,-0.13333333,0,229.37333)" />
      <path
         id="path3"
         d="M 954.023,509.391 V 1575.3"
         style="fill:none;stroke:#231f20;stroke-width:5;stroke-linecap:butt;stroke-linejoin:miter;stroke-miterlimit:10;stroke-dasharray:none;stroke-opacity:1"
         transform="matrix(0.13333333,0,0,-0.13333333,0,229.37333)" />
      <path
         id="path4"
         d="m 954.023,1566.32 -18.015,-10.95 -0.406,0.61 11.664,29.38 c 2.254,10.23 4.504,20.47 6.757,30.7 2.25,-10.23 4.5,-20.47 6.758,-30.7 l 11.664,-29.38 -0.304,-0.61 -18.118,10.95"
         style="fill:#231f20;fill-opacity:1;fill-rule:nonzero;stroke:none"
         transform="matrix(0.13333333,0,0,-0.13333333,0,229.37333)" />
      <path
         id="path5"
         d="M 954.023,511.16 558.738,120.82"
         style="fill:none;stroke:#231f20;stroke-width:5;stroke-linecap:butt;stroke-linejoin:miter;stroke-miterlimit:10;stroke-dasharray:none;stroke-opacity:1"
         transform="matrix(0.13333333,0,0,-0.13333333,0,229.37333)" />
      <path
         id="path6"
         d="m 565.129,127.129 20.453,-5.117 -0.152,-0.723 -29.102,-12.34 c -8.863,-5.59 -17.723,-11.1795 -26.594,-16.7693 5.704,8.7893 11.403,17.5903 17.102,26.3793 l 12.707,28.941 0.652,0.219 4.934,-20.59"
         style="fill:#231f20;fill-opacity:1;fill-rule:nonzero;stroke:none"
         transform="matrix(0.13333333,0,0,-0.13333333,0,229.37333)" />
      <path
         id="path7"
         d="M 952.715,512.352 H 2018.63"
         style="fill:none;stroke:#231f20;stroke-width:5;stroke-linecap:butt;stroke-linejoin:miter;stroke-miterlimit:10;stroke-dasharray:none;stroke-opacity:1"
         transform="matrix(0.13333333,0,0,-0.13333333,0,229.37333)" />
      <path
         id="path8"
         d="m 2009.66,512.352 -10.96,18.007 0.62,0.411 29.37,-11.668 c 10.24,-2.25 20.47,-4.5 30.7,-6.75 -10.23,-2.25 -20.46,-4.512 -30.7,-6.762 l -29.37,-11.668 -0.62,0.308 10.96,18.122"
         style="fill:#231f20;fill-opacity:1;fill-rule:nonzero;stroke:none"
         transform="matrix(0.13333333,0,0,-0.13333333,0,229.37333)" />
      <g
         id="g8"
         aria-label="z&#10;x&#10;y&#10;r&#10;ϕ&#10;max"
         transform="matrix(1.3333333,0,0,1.3333333,124.5208,9.8973333)">
        <path
           id="path9"
           d="m 3.7842047,-4.1710469 c -0.2226563,0.2460938 -0.3984375,0.3515625 -0.5507813,0.3515625 -0.1523437,0 -0.3046875,-0.011719 -0.7265625,-0.09375 -0.4335937,-0.070312 -0.703125,-0.1054687 -0.9492187,-0.1054687 -0.2226563,0 -0.4453125,0.1875 -0.65625001,0.5273437 -0.140625,0.234375 -0.24609375,0.4453125 -0.375,0.7265625 l 0.234375,0.1054688 C 1.0185797,-3.1163594 1.2295172,-3.4210469 1.6513922,-3.4210469 c 0.2226562,0 0.6210937,0.023437 0.8554687,0.058594 0.1992188,0.011719 0.3984375,0 0.5507813,-0.035156 -0.8320313,0.890625 -1.875,1.9101563 -2.49609376,2.57812502 -0.55078125,0.57421875 -0.48046875,0.83203125 -0.328125,0.90234375 0.046875,0.01171875 0.0703125,-0.0234375 0.10546875,-0.082031245 0.0820313,-0.117187505 0.1875,-0.234375005 0.29296875,-0.304687505 0.1171875,-0.0820313 0.26953125,-0.09375 0.55078126,0.046875 0.3984375,0.19921875 0.9140625,0.43359375 1.2070312,0.43359375 0.3867188,0 0.75,-0.26953125 1.2421875,-1.24218747 l -0.1992187,-0.164063 c -0.4101563,0.60937497 -0.6796875,0.76171872 -0.9257813,0.76171872 -0.2226562,0 -0.515625,-0.1171875 -0.8085937,-0.2109375 C 1.4287359,-0.79604688 1.1943609,-0.84292188 1.0185797,-0.83120313 1.6865484,-1.5343281 2.8701422,-2.7179219 3.4443609,-3.3741719 3.6904547,-3.6437031 3.8545172,-3.8312031 3.9717047,-3.9718281 Z M 114.5176,112.67954 c 0.31641,-0.39844 0.49219,-0.51563 0.57422,-0.51563 0.0937,0 0.17578,0.12891 0.30469,0.57422 l 0.30469,0.9375 c -0.5625,0.83203 -0.98438,1.35938 -1.24219,1.35938 -0.0937,0 -0.16406,-0.0352 -0.21094,-0.0937 -0.0469,-0.0586 -0.0937,-0.0937 -0.14062,-0.0937 -0.17578,0 -0.36328,0.21094 -0.36328,0.42187 -0.0117,0.25782 0.17578,0.4336 0.41015,0.4336 0.42188,0 0.84375,-0.4336 1.64063,-1.69922 l 0.28125,0.8789 c 0.17578,0.5625 0.36328,0.82032 0.59765,0.82032 0.30469,0 0.72657,-0.32813 1.13672,-0.97266 l -0.15234,-0.17578 c -0.28125,0.33984 -0.50391,0.51562 -0.64453,0.51562 -0.15235,0 -0.28125,-0.25781 -0.45703,-0.82031 l -0.29297,-0.90234 c 0.19922,-0.28125 0.39843,-0.52735 0.58593,-0.73828 0.23438,-0.29297 0.41016,-0.44532 0.53907,-0.44532 0.082,0 0.15234,0.0352 0.21093,0.10547 0.0469,0.0469 0.082,0.0703 0.12891,0.0703 0.14063,0 0.33984,-0.17579 0.35156,-0.39844 0,-0.19922 -0.14062,-0.38672 -0.375,-0.38672 -0.39843,0 -0.78515,0.38672 -1.53515,1.47656 l -0.15235,-0.49219 c -0.22265,-0.64453 -0.33984,-0.98437 -0.58593,-0.98437 -0.29297,0 -0.69141,0.38672 -1.06641,0.9375 z m -157.792966,48.00879 c -0.05859,-0.8086 -0.117187,-1.62891 -0.210937,-2.3086 -0.07031,-0.71484 -0.210938,-1.05468 -0.457031,-1.05468 -0.328125,0 -0.773438,0.51562 -1.066407,0.96093 l 0.152344,0.21094 c 0.222656,-0.3164 0.457031,-0.52734 0.527344,-0.52734 0.07031,0 0.117187,0.11719 0.1875,0.5625 0.128906,0.82031 0.269531,2.22656 0.28125,2.92969 -0.445313,0.59765 -1.160156,1.39453 -2.121094,2.01562 l 0.07031,0.19922 0.9375,-0.23438 c 0.503906,-0.5625 1.089843,-1.35937 1.617187,-2.12109 0.480469,-0.66797 1.242188,-1.86328 1.628906,-2.54297 0.234375,-0.39844 0.328125,-0.70312 0.316407,-0.96094 0,-0.29296 -0.152344,-0.49218 -0.351563,-0.49218 -0.152344,0 -0.316406,0.10547 -0.375,0.24609 -0.03516,0.0703 -0.04687,0.16406 -0.01172,0.22266 0.03516,0.10547 0.09375,0.24609 0.09375,0.42187 0.01172,0.65625 -0.820312,1.88672 -1.207031,2.47266 z M 37.329127,57.715672 c 0.269531,-0.246094 0.550781,-0.433594 0.632812,-0.433594 0.07031,0 0.07031,0.09375 0.02344,0.386719 -0.175782,0.960937 -0.421875,2.074219 -0.65625,3.035156 l 0.07031,0.07031 c 0.199219,-0.07031 0.433594,-0.128907 0.632813,-0.164063 0.117187,-0.585937 0.222656,-1.160156 0.363281,-1.757812 0.164062,-0.410157 0.445312,-0.832032 0.644531,-1.113282 0.199219,-0.292968 0.339844,-0.386718 0.457031,-0.386718 0.09375,0 0.199219,0.04687 0.304688,0.152343 0.04687,0.04687 0.117187,0.04687 0.199219,0 0.08203,-0.07031 0.164062,-0.152343 0.234375,-0.269531 0.07031,-0.117187 0.07031,-0.269531 0,-0.386719 -0.07031,-0.117187 -0.234375,-0.222656 -0.386719,-0.222656 -0.351563,0 -0.890625,0.609375 -1.347656,1.5 h -0.02344 l 0.09375,-0.457031 c 0.128906,-0.632813 0.117188,-1.042969 -0.105469,-1.042969 -0.246093,0 -0.796875,0.375 -1.253906,0.878906 z m -66.495118,-7.268555 -0.128906,-0.08203 -0.445312,0.351562 c -0.574219,2.601563 -0.972657,4.464844 -1.125,5.273438 -0.457032,-0.164063 -0.855469,-0.65625 -0.855469,-1.429688 0,-1.054687 0.503906,-1.617187 1.3125,-1.980468 l -0.117188,-0.269532 c -1.066406,0.375 -1.957031,1.136719 -1.957031,2.355469 0,0.925781 0.539063,1.664063 1.511719,1.851563 -0.08203,0.386718 -0.152344,0.773437 -0.234375,1.136718 -0.152344,0.726563 0.04687,1.03125 0.199219,1.089844 l 0.05859,-0.02344 c 0.140625,-0.667969 0.351563,-1.652344 0.480469,-2.203125 1.21875,-0.05859 2.332031,-0.996094 2.332031,-2.320313 0,-1.054687 -0.597656,-1.652344 -1.347656,-1.957031 -0.05859,-0.03516 -0.05859,-0.152344 0.01172,-0.433594 z m 0.410157,3.832031 c 0,1.042969 -0.574219,1.851563 -1.628907,1.816407 0.175782,-0.867188 0.632813,-2.964844 0.726563,-3.351563 0.351562,0.140625 0.902344,0.679688 0.902344,1.535156 z m 0,0"
           style="fill:#231f20;fill-opacity:1;fill-rule:nonzero;stroke:none" />
        <path
           id="path10"
           d="m -23.089819,58.436375 v -0.152344 c -0.351562,-0.03516 -0.398437,-0.05859 -0.398437,-0.46875 v -1.160156 c 0,-0.585938 -0.292969,-0.914063 -0.761719,-0.914063 -0.164063,0 -0.316406,0.07031 -0.445313,0.152344 -0.152343,0.09375 -0.328125,0.210938 -0.503906,0.339844 -0.117187,-0.316406 -0.375,-0.492188 -0.65625,-0.492188 -0.199219,0 -0.339844,0.07031 -0.492187,0.164063 -0.1875,0.117187 -0.316407,0.222656 -0.445313,0.304687 v -0.480468 c -0.257812,0.117187 -0.5625,0.1875 -0.832031,0.246093 v 0.128907 c 0.351562,0.05859 0.363281,0.09375 0.363281,0.46875 v 1.242187 c 0,0.398438 -0.04687,0.433594 -0.445312,0.46875 v 0.152344 h 1.265625 v -0.152344 c -0.292969,-0.03516 -0.339844,-0.07031 -0.339844,-0.46875 v -1.40625 c 0.175781,-0.152344 0.410156,-0.316406 0.644531,-0.316406 0.375,0 0.527344,0.246094 0.527344,0.691406 v 1.03125 c 0,0.398438 -0.05859,0.433594 -0.421875,0.46875 v 0.152344 h 1.277344 V 58.284031 C -25.082006,58.248875 -25.1406,58.213719 -25.1406,57.827 v -1.171875 c 0,-0.105469 0,-0.175781 -0.01172,-0.246094 0.222656,-0.1875 0.457031,-0.316406 0.667969,-0.316406 0.386719,0 0.527344,0.269531 0.527344,0.703125 v 0.996094 c 0,0.433593 -0.05859,0.457031 -0.421875,0.492187 v 0.152344 z m 2.715821,-0.234375 -0.05859,-0.152344 c -0.07031,0.03516 -0.152344,0.05859 -0.222656,0.05859 -0.105469,0 -0.210938,-0.08203 -0.210938,-0.351563 v -1.125 c 0,-0.304687 -0.05859,-0.550781 -0.269531,-0.726562 -0.128906,-0.105469 -0.304688,-0.164063 -0.492188,-0.164063 -0.339843,0.07031 -0.726562,0.304688 -0.902343,0.421875 -0.105469,0.08203 -0.1875,0.152344 -0.1875,0.234375 0,0.140625 0.152343,0.257813 0.269531,0.257813 0.08203,0 0.140625,-0.03516 0.164062,-0.128906 0.04687,-0.1875 0.105469,-0.316407 0.1875,-0.398438 0.05859,-0.07031 0.152344,-0.117187 0.269532,-0.117187 0.292968,0 0.503906,0.246093 0.503906,0.667968 v 0.117188 c -0.128906,0.105469 -0.574219,0.269531 -0.9375,0.386719 -0.328125,0.117187 -0.480469,0.304687 -0.480469,0.597656 0,0.375 0.292969,0.726562 0.714844,0.726562 0.1875,0 0.46875,-0.222656 0.714844,-0.386718 0.02344,0.105468 0.05859,0.1875 0.140625,0.269531 0.07031,0.07031 0.1875,0.117187 0.28125,0.117187 z m -0.949219,-0.269531 c -0.117188,0.105468 -0.328125,0.210937 -0.480469,0.210937 -0.1875,0 -0.433594,-0.140625 -0.433594,-0.457031 0,-0.210938 0.140625,-0.328125 0.375,-0.433594 0.117188,-0.05859 0.410157,-0.1875 0.539063,-0.257812 z m 3.832031,0.503906 v -0.152344 c -0.363281,-0.04687 -0.433594,-0.105469 -0.65625,-0.445312 l -0.585937,-0.890625 c 0.199218,-0.292969 0.339843,-0.503907 0.46875,-0.65625 0.210937,-0.257813 0.292968,-0.28125 0.65625,-0.328125 v -0.152344 h -1.089844 v 0.152344 c 0.257812,0.03516 0.292969,0.05859 0.1875,0.257812 -0.105469,0.1875 -0.222656,0.375 -0.351563,0.550781 l -0.351562,-0.550781 c -0.105469,-0.164062 -0.08203,-0.222656 0.175781,-0.257812 v -0.152344 h -1.207031 v 0.152344 c 0.328125,0.04687 0.410156,0.09375 0.585937,0.386718 l 0.527344,0.808594 c -0.175781,0.269531 -0.339844,0.515625 -0.503906,0.726563 -0.246094,0.292968 -0.304688,0.351562 -0.679688,0.398437 v 0.152344 h 1.125 v -0.152344 c -0.316406,-0.04687 -0.328125,-0.105469 -0.210937,-0.304687 0.117187,-0.222657 0.246094,-0.445313 0.386719,-0.644532 l 0.445312,0.703125 c 0.09375,0.164063 0.04687,0.210938 -0.210937,0.246094 v 0.152344 z m 0,0"
           style="fill:#231f20;fill-opacity:1;fill-rule:nonzero;stroke:none" />
      </g>
      <path
         id="path11"
         d="m 258.926,1105.09 c 0,58.81 311.172,106.49 695.027,106.49 383.857,0 695.027,-47.68 695.027,-106.49 0,-58.82 -311.17,-106.492 -695.027,-106.492 -383.855,0 -695.027,47.672 -695.027,106.492 z"
         style="fill:none;stroke:#231f20;stroke-width:5;stroke-linecap:butt;stroke-linejoin:miter;stroke-miterlimit:10;stroke-dasharray:none;stroke-opacity:1"
         transform="matrix(0.13333333,0,0,-0.13333333,0,229.37333)" />
      <path
         id="path12"
         d="m 953.547,1106.45 399.163,85.75"
         style="fill:none;stroke:#231f20;stroke-width:5;stroke-linecap:butt;stroke-linejoin:miter;stroke-miterlimit:10;stroke-dasharray:none;stroke-opacity:1"
         transform="matrix(0.13333333,0,0,-0.13333333,0,229.37333)" />
      <path
         id="path13"
         d="M 954.316,1106.45 H 1648.81"
         style="fill:none;stroke:#231f20;stroke-width:5;stroke-linecap:butt;stroke-linejoin:miter;stroke-miterlimit:10;stroke-dasharray:none;stroke-opacity:1"
         transform="matrix(0.13333333,0,0,-0.13333333,0,229.37333)" />
      <path
         id="path14"
         d="M 234.895,1103.9 H 62.4414"
         style="fill:none;stroke:#231f20;stroke-width:5;stroke-linecap:butt;stroke-linejoin:miter;stroke-miterlimit:10;stroke-dasharray:none;stroke-opacity:1"
         transform="matrix(0.13333333,0,0,-0.13333333,0,229.37333)" />
      <path
         id="path15"
         d="M 4.1835937,-0.97325781 C 3.9375,-0.72716406 3.65625,-0.56310156 3.5625,-0.56310156 c -0.070312,0 -0.082031,-0.0585938 -0.023437,-0.31640625 L 4.007813,-2.8951328 C 4.2304687,-3.8795078 3.9726563,-4.0435703 3.75,-4.0435703 c -0.1640625,0 -0.3632812,0.070312 -0.5976562,0.1875 -0.4101563,0.2226562 -1.078125,0.6914062 -1.6640626,1.5 H 1.4648442 L 2.273438,-6.0943516 c 0.058594,-0.2460937 0.046875,-0.3164062 -0.035156,-0.3164062 -0.1289063,0 -0.6093751,0.2460937 -1.3242188,0.3164062 l -0.0234375,0.2109375 0.2578125,0.011719 c 0.3515618,0.011718 0.3984368,0.035156 0.3046868,0.503906 -0.3515625,1.8515625 -0.75,3.6679688 -1.13671875,5.40234379 L 0.375,0.10486719 c 0.19921875,-0.0703125 0.43359375,-0.12890625 0.6445312,-0.1640625 0.082031,-0.4453125 0.2460938,-1.24218749 0.328125,-1.64062499 0.4453125,-0.7851563 1.5000001,-1.7929688 1.9101563,-1.7929688 0.140625,0 0.1757813,0.1640625 0.070312,0.6445313 l -0.4804687,2.08593749 c -0.140625,0.62109375 -0.070312,0.8671875 0.1640625,0.8671875 0.2578125,0 0.8085937,-0.31640625 1.2890624,-0.8671875 z m 0,0"
         style="fill:#231f20;fill-opacity:1;fill-rule:nonzero;stroke:none"
         aria-label="h"
         transform="matrix(1.3333333,0,0,1.3333333,0,85.145333)" />
    </g>
  </g>
</svg>
