<?xml version="1.0" encoding="UTF-8" standalone="no"?>
<!-- Created with Inkscape (http://www.inkscape.org/) -->

<svg
   version="1.1"
   id="svg1"
   width="138.86667"
   height="35.186668"
   viewBox="0 0 138.86667 35.186668"
   sodipodi:docname="pha06f35.eps"
   xmlns:inkscape="http://www.inkscape.org/namespaces/inkscape"
   xmlns:sodipodi="http://sodipodi.sourceforge.net/DTD/sodipodi-0.dtd"
   xmlns="http://www.w3.org/2000/svg"
   xmlns:svg="http://www.w3.org/2000/svg">
  <defs
     id="defs1" />
  <sodipodi:namedview
     id="namedview1"
     pagecolor="#ffffff"
     bordercolor="#000000"
     borderopacity="0.25"
     inkscape:showpageshadow="2"
     inkscape:pageopacity="0.0"
     inkscape:pagecheckerboard="0"
     inkscape:deskcolor="#d1d1d1">
    <inkscape:page
       x="0"
       y="0"
       inkscape:label="1"
       id="page1"
       width="138.86667"
       height="35.186668"
       margin="0"
       bleed="0" />
  </sodipodi:namedview>
  <g
     id="g1"
     inkscape:groupmode="layer"
     inkscape:label="1">
    <g
       id="group-R5">
      <path
         id="path2"
         d="M 3.53516,68.3945 C 310.742,375.582 771.543,-238.813 925.137,221.988"
         style="fill:none;stroke:#231f20;stroke-width:5;stroke-linecap:square;stroke-linejoin:miter;stroke-miterlimit:3.25;stroke-dasharray:none;stroke-opacity:1"
         transform="matrix(0.13333333,0,0,-0.13333333,0,35.186667)" />
      <path
         id="path3"
         d="M 521.934,87.5938 C 694.727,29.9961 848.34,-8.40234 925.137,221.988"
         style="fill:none;stroke:#231f20;stroke-width:10;stroke-linecap:butt;stroke-linejoin:miter;stroke-miterlimit:3.25;stroke-dasharray:none;stroke-opacity:1"
         transform="matrix(0.13333333,0,0,-0.13333333,0,35.186667)" />
      <path
         id="path4"
         d="m 550.742,173.98 -3.957,-11.863"
         style="fill:none;stroke:#231f20;stroke-width:7.5;stroke-linecap:butt;stroke-linejoin:miter;stroke-miterlimit:3.25;stroke-dasharray:none;stroke-opacity:1"
         transform="matrix(0.13333333,0,0,-0.13333333,0,35.186667)" />
      <path
         id="path5"
         d="M 542.527,149.344 499.211,19.4336"
         style="fill:none;stroke:#231f20;stroke-width:7.5;stroke-linecap:butt;stroke-linejoin:miter;stroke-miterlimit:3.25;stroke-dasharray:22.4494, 13.4697;stroke-dashoffset:0;stroke-opacity:1"
         transform="matrix(0.13333333,0,0,-0.13333333,0,35.186667)" />
      <path
         id="path6"
         d="M 497.078,13.0469 493.125,1.1875"
         style="fill:none;stroke:#231f20;stroke-width:7.5;stroke-linecap:butt;stroke-linejoin:miter;stroke-miterlimit:3.25;stroke-dasharray:none;stroke-opacity:1"
         transform="matrix(0.13333333,0,0,-0.13333333,0,35.186667)" />
      <path
         id="path7"
         d="m 809.941,260.387 11.856,-3.957"
         style="fill:none;stroke:#231f20;stroke-width:7.5;stroke-linecap:butt;stroke-linejoin:miter;stroke-miterlimit:3.25;stroke-dasharray:none;stroke-opacity:1"
         transform="matrix(0.13333333,0,0,-0.13333333,0,35.186667)" />
      <path
         id="path8"
         d="m 836.223,251.625 185.037,-61.68"
         style="fill:none;stroke:#231f20;stroke-width:7.5;stroke-linecap:butt;stroke-linejoin:miter;stroke-miterlimit:3.25;stroke-dasharray:25.3317, 15.199;stroke-dashoffset:0;stroke-opacity:1"
         transform="matrix(0.13333333,0,0,-0.13333333,0,35.186667)" />
      <path
         id="path9"
         d="m 1028.48,187.543 11.85,-3.953"
         style="fill:none;stroke:#231f20;stroke-width:7.5;stroke-linecap:butt;stroke-linejoin:miter;stroke-miterlimit:3.25;stroke-dasharray:none;stroke-opacity:1"
         transform="matrix(0.13333333,0,0,-0.13333333,0,35.186667)" />
      <path
         id="path10"
         d="m 504.707,149.02 c 0,3.593 -1.406,7.031 -3.945,9.55 -2.539,2.539 -5.977,3.965 -9.551,3.965 -3.574,0 -7.012,-1.426 -9.551,-3.965 -2.519,-2.519 -3.945,-5.957 -3.945,-9.55 0,-3.575 1.426,-7.012 3.945,-9.532 2.539,-2.539 5.977,-3.965 9.551,-3.965 3.574,0 7.012,1.426 9.551,3.965 2.539,2.52 3.945,5.957 3.945,9.532 v 0"
         style="fill:#231f20;fill-opacity:1;fill-rule:evenodd;stroke:none"
         transform="matrix(0.13333333,0,0,-0.13333333,0,35.186667)" />
    </g>
  </g>
</svg>
