<?xml version="1.0" encoding="UTF-8" standalone="no"?>
<!-- Created with Inkscape (http://www.inkscape.org/) -->

<svg
   version="1.1"
   id="svg1"
   width="266.77332"
   height="100.74667"
   viewBox="0 0 266.77332 100.74667"
   sodipodi:docname="pha06f06.eps"
   xmlns:inkscape="http://www.inkscape.org/namespaces/inkscape"
   xmlns:sodipodi="http://sodipodi.sourceforge.net/DTD/sodipodi-0.dtd"
   xmlns="http://www.w3.org/2000/svg"
   xmlns:svg="http://www.w3.org/2000/svg">
  <defs
     id="defs1" />
  <sodipodi:namedview
     id="namedview1"
     pagecolor="#ffffff"
     bordercolor="#000000"
     borderopacity="0.25"
     inkscape:showpageshadow="2"
     inkscape:pageopacity="0.0"
     inkscape:pagecheckerboard="0"
     inkscape:deskcolor="#d1d1d1">
    <inkscape:page
       x="0"
       y="0"
       inkscape:label="1"
       id="page1"
       width="266.77332"
       height="100.74667"
       margin="0"
       bleed="0" />
  </sodipodi:namedview>
  <g
     id="g1"
     inkscape:groupmode="layer"
     inkscape:label="1">
    <g
       id="group-R5">
      <path
         id="path2"
         d="m 1247.72,377.813 c 0,84.511 27.93,162.5 75.07,225.234"
         style="fill:none;stroke:#e5e4e4;stroke-width:5;stroke-linecap:butt;stroke-linejoin:miter;stroke-miterlimit:10;stroke-dasharray:none;stroke-opacity:1"
         transform="matrix(0.13333333,0,0,-0.13333333,0,100.74667)" />
      <path
         id="path3"
         d="m 1322.79,603.047 c 68.48,91.133 177.47,150.078 300.24,150.078 207.28,0 375.31,-168.035 375.31,-375.312 C 1998.34,170.535 1830.31,2.5 1623.03,2.5 c -207.28,0 -375.31,168.035 -375.31,375.313"
         style="fill:none;stroke:#231f20;stroke-width:5;stroke-linecap:butt;stroke-linejoin:miter;stroke-miterlimit:10;stroke-dasharray:none;stroke-opacity:1"
         transform="matrix(0.13333333,0,0,-0.13333333,0,100.74667)" />
      <path
         id="path4"
         d="m 2.5,375.906 c 0,6.211 5.03516,11.25 11.25,11.25 6.2109,0 11.25,-5.039 11.25,-11.25 0,-6.215 -5.0391,-11.25 -11.25,-11.25 -6.21484,0 -11.25,5.035 -11.25,11.25"
         style="fill:#231f20;fill-opacity:1;fill-rule:nonzero;stroke:none"
         transform="matrix(0.13333333,0,0,-0.13333333,0,100.74667)" />
      <path
         id="path5"
         d="m 2.5,375.906 c 0,6.211 5.03516,11.25 11.25,11.25 6.2109,0 11.25,-5.039 11.25,-11.25 0,-6.215 -5.0391,-11.25 -11.25,-11.25 -6.21484,0 -11.25,5.035 -11.25,11.25 z"
         style="fill:none;stroke:#231f20;stroke-width:5;stroke-linecap:butt;stroke-linejoin:miter;stroke-miterlimit:10;stroke-dasharray:none;stroke-opacity:1"
         transform="matrix(0.13333333,0,0,-0.13333333,0,100.74667)" />
      <path
         id="path6"
         d="m 1611.78,377.813 c 0,6.21 5.04,11.25 11.25,11.25 6.21,0 11.25,-5.04 11.25,-11.25 0,-6.211 -5.04,-11.25 -11.25,-11.25 -6.21,0 -11.25,5.039 -11.25,11.25"
         style="fill:#231f20;fill-opacity:1;fill-rule:nonzero;stroke:none"
         transform="matrix(0.13333333,0,0,-0.13333333,0,100.74667)" />
      <path
         id="path7"
         d="m 1611.78,377.813 c 0,6.21 5.04,11.25 11.25,11.25 6.21,0 11.25,-5.04 11.25,-11.25 0,-6.211 -5.04,-11.25 -11.25,-11.25 -6.21,0 -11.25,5.039 -11.25,11.25 z"
         style="fill:none;stroke:#231f20;stroke-width:5;stroke-linecap:butt;stroke-linejoin:miter;stroke-miterlimit:10;stroke-dasharray:none;stroke-opacity:1"
         transform="matrix(0.13333333,0,0,-0.13333333,0,100.74667)" />
      <path
         id="path8"
         d="M 1623.03,377.813 1327.72,613.137"
         style="fill:none;stroke:#231f20;stroke-width:5;stroke-linecap:butt;stroke-linejoin:miter;stroke-miterlimit:10;stroke-dasharray:none;stroke-opacity:1"
         transform="matrix(0.13333333,0,0,-0.13333333,0,100.74667)" />
      <g
         id="g8"
         aria-label="p&#10;s&#10;r&#10;p&#10;r"
         transform="matrix(1.3333333,0,0,1.3333333,166.36267,12.794533)">
        <path
           id="path9"
           d="m 1.0199922,-2.2863297 v -0.46875 c -0.29296876,0.1171875 -0.62109376,0.2109375 -0.87890626,0.2578125 v 0.140625 c 0.375,0.046875 0.3984375,0.058594 0.3984375,0.4570313 v 2.70703121 c 0,0.39843749 -0.0585937,0.43359379 -0.43359375,0.46874999 V 1.4402328 H 1.5238984 V 1.2761703 C 1.0551484,1.2292953 1.0199922,1.2058578 1.0199922,0.74882656 v -0.78515625 c 0.070312,0.046875 0.234375,0.10546875 0.4101562,0.10546875 0.7734375,-0.140625 1.4882813,-0.7265625 1.4882813,-1.62890626 0,-0.5976562 -0.3867188,-1.1367187 -1.0546875,-1.1367187 -0.070312,0 -0.1875,0.035156 -0.2929688,0.09375 z m 0,0.1992188 c 0.1523437,-0.1171875 0.3984375,-0.2460938 0.5976562,-0.2460938 0.4335938,0 0.796875,0.3632813 0.796875,0.9960938 0,0.67968746 -0.328125,1.11328121 -0.8320312,1.11328121 -0.2109375,0 -0.4335938,-0.09375 -0.5625,-0.234375 z m 5.6191406,2.14160153 c -0.023437,-0.15234375 -0.082031,-0.50390625 -0.1289062,-0.64453125 -0.1289063,-0.046875 -0.2929688,-0.10546875 -0.5390625,-0.10546875 -0.5507813,0 -0.9140625,0.3515625 -0.9140625,0.7734375 0,0.46875 0.3867187,0.65625 0.75,0.83203125 0.3046875,0.14062502 0.4804687,0.28125002 0.4804687,0.53906252 0,0.2578125 -0.2109375,0.421875 -0.4335937,0.421875 -0.3515625,0 -0.6210938,-0.3398438 -0.7382813,-0.7382813 l -0.1523437,0.023437 c 0,0.2226563 0.058594,0.6328125 0.09375,0.7148438 0.1054687,0.082031 0.3867187,0.1992187 0.6914062,0.1992187 0.4804688,0 0.9960938,-0.28125 0.9960938,-0.8320312 0,-0.41015627 -0.3164063,-0.62109377 -0.7617188,-0.80859377 -0.2695312,-0.1171875 -0.5039062,-0.2578125 -0.5039062,-0.52734375 0,-0.234375 0.1523437,-0.41015625 0.3867187,-0.41015625 0.2929688,0 0.5039063,0.234375 0.6210938,0.59765625 z m 0,0"
           style="fill:#231f20;fill-opacity:1;fill-rule:nonzero;stroke:none" />
        <path
           id="path10"
           d="m 23.329563,11.787889 c 0.269531,-0.246094 0.550781,-0.433594 0.632812,-0.433594 0.07031,0 0.07031,0.09375 0.02344,0.386719 -0.175782,0.960938 -0.421875,2.074219 -0.65625,3.035156 l 0.07031,0.07031 c 0.199219,-0.07031 0.433594,-0.128906 0.632813,-0.164063 0.117187,-0.585937 0.222656,-1.160156 0.363281,-1.757812 0.164062,-0.410156 0.445312,-0.832031 0.644531,-1.113281 0.199219,-0.292969 0.339844,-0.386719 0.457031,-0.386719 0.09375,0 0.199219,0.04687 0.304688,0.152344 0.04687,0.04687 0.117187,0.04687 0.199219,0 0.08203,-0.07031 0.164062,-0.152344 0.234375,-0.269532 0.07031,-0.117187 0.07031,-0.269531 0,-0.386718 -0.07031,-0.117188 -0.234375,-0.222657 -0.386719,-0.222657 -0.351563,0 -0.890625,0.609375 -1.347656,1.5 H 24.478 l 0.09375,-0.457031 c 0.128906,-0.632812 0.117188,-1.042969 -0.105469,-1.042969 -0.246093,0 -0.796875,0.375 -1.253906,0.878907 z m 0,0"
           style="fill:#231f20;fill-opacity:1;fill-rule:nonzero;stroke:none" />
        <path
           id="path11"
           d="m -123.50345,33.945116 v -0.46875 c -0.29296,0.117187 -0.62109,0.210937 -0.8789,0.257812 v 0.140625 c 0.375,0.04687 0.39844,0.05859 0.39844,0.457031 v 2.707032 c 0,0.398437 -0.0586,0.433593 -0.4336,0.46875 v 0.164062 h 1.41797 v -0.164062 c -0.46875,-0.04687 -0.50391,-0.07031 -0.50391,-0.527344 v -0.785156 c 0.0703,0.04687 0.23438,0.105468 0.41016,0.105468 0.77344,-0.140625 1.48828,-0.726562 1.48828,-1.628906 0,-0.597656 -0.38672,-1.136719 -1.05469,-1.136719 -0.0703,0 -0.1875,0.03516 -0.29296,0.09375 z m 0,0.199218 c 0.15235,-0.117187 0.39844,-0.246093 0.59766,-0.246093 0.43359,0 0.79688,0.363281 0.79688,0.996093 0,0.679688 -0.32813,1.113282 -0.83204,1.113282 -0.21093,0 -0.43359,-0.09375 -0.5625,-0.234375 z m 4.78711,2.021485 v -0.644531 c -0.29296,0.117187 -0.55078,0.1875 -0.85546,0.246093 v 0.128907 c 0.35156,0.04687 0.375,0.07031 0.375,0.46875 v 1.242187 c 0,0.398438 -0.0352,0.433594 -0.41016,0.46875 v 0.152344 h 1.38281 v -0.152344 c -0.46875,-0.03516 -0.49219,-0.07031 -0.49219,-0.46875 v -1.101562 c 0.12891,-0.339844 0.31641,-0.515625 0.48047,-0.515625 0.0937,0 0.16407,0.03516 0.2461,0.128906 0.0351,0.03516 0.0937,0.03516 0.16406,0.01172 0.11719,-0.05859 0.1875,-0.175782 0.1875,-0.292969 0,-0.152344 -0.14063,-0.304688 -0.33984,-0.304688 -0.29297,0 -0.55079,0.339844 -0.72657,0.632813 z m 0,0"
           style="fill:#231f20;fill-opacity:1;fill-rule:nonzero;stroke:none" />
      </g>
      <path
         id="path12"
         d="M 1247.72,377.813 H 16.7383 L 1327.72,613.137"
         style="fill:none;stroke:#231f20;stroke-width:5;stroke-linecap:butt;stroke-linejoin:miter;stroke-miterlimit:10;stroke-dasharray:none;stroke-opacity:1"
         transform="matrix(0.13333333,0,0,-0.13333333,0,100.74667)" />
      <path
         id="path13"
         d="m 1626.02,377.813 h -378.3"
         style="fill:none;stroke:#231f20;stroke-width:5;stroke-linecap:butt;stroke-linejoin:miter;stroke-miterlimit:10;stroke-dasharray:none;stroke-opacity:1"
         transform="matrix(0.13333333,0,0,-0.13333333,0,100.74667)" />
      <path
         id="path14"
         d="m 3.1415859,-6.4109703 c -1.59375,0 -2.61328121,2.671875 -2.61328121,4.5585937 0,0.93750004 0.2578125,1.95703129 1.26562501,1.95703129 1.6171875,0 2.5664062,-2.69531249 2.5664062,-4.61718749 0,-0.9726563 -0.2578125,-1.8984375 -1.21875,-1.8984375 z m -1.6992187,2.9179687 c 0.2695312,-1.3476562 0.84375,-2.6132812 1.5703125,-2.6132812 0.5859375,0 0.6445312,0.890625 0.6445312,1.3710937 0,0.4101563 -0.058594,0.796875 -0.1054687,1.2421875 z m 2.0390625,0.421875 c -0.2460938,1.4296875 -0.8203125,2.85937504 -1.5703125,2.85937504 -0.5273438,0 -0.6679688,-0.7734375 -0.6679688,-1.47656254 0,-0.46875 0.058594,-0.9257812 0.1289063,-1.3828125 z m 0,0"
         style="fill:#231f20;fill-opacity:1;fill-rule:nonzero;stroke:none"
         aria-label="θ"
         transform="matrix(1.3333333,0,0,1.3333333,70.612,48.551867)" />
      <path
         id="path15"
         d="m 1364.1,647.953 37.38,-30.265 -30.27,-37.379"
         style="fill:none;stroke:#231f20;stroke-width:5;stroke-linecap:butt;stroke-linejoin:miter;stroke-miterlimit:10;stroke-dasharray:none;stroke-opacity:1"
         transform="matrix(0.13333333,0,0,-0.13333333,0,100.74667)" />
      <path
         id="path16"
         d="m 1.02025,-2.2859984 v -0.46875 c -0.29296875,0.1171875 -0.62109375,0.2109375 -0.87890625,0.2578125 v 0.140625 c 0.375,0.046875 0.3984375,0.058594 0.3984375,0.4570312 v 2.70703126 c 0,0.39843754 -0.0585938,0.43359374 -0.43359375,0.46875004 V 1.4405641 H 1.5241563 V 1.2765016 C 1.0554063,1.2296266 1.02025,1.2061891 1.02025,0.74915781 v -0.78515625 c 0.070312,0.046875 0.234375,0.10546875 0.4101563,0.10546875 0.7734375,-0.140625 1.4882812,-0.7265625 1.4882812,-1.62890621 0,-0.5976563 -0.3867187,-1.1367188 -1.0546875,-1.1367188 -0.070312,0 -0.1875,0.035156 -0.2929687,0.09375 z m 0,0.1992187 c 0.1523438,-0.1171875 0.3984375,-0.2460937 0.5976563,-0.2460937 0.4335937,0 0.796875,0.3632812 0.796875,0.9960937 0,0.67968751 -0.328125,1.11328126 -0.8320313,1.11328126 -0.2109375,0 -0.4335937,-0.09375 -0.5625,-0.234375 z m 6.0380859,3.4189453 c -0.2695312,0.2578125 -0.46875,0.328125 -0.7265625,0.328125 -0.3398437,0 -0.9140625,-0.2695312 -0.9140625,-1.10156248 0,-0.6328125 0.3515625,-0.9609375 0.75,-0.9609375 0.2109375,0 0.421875,0.0703125 0.5976563,0.24609375 0.058594,0.046875 0.082031,0.05859375 0.1171875,0.05859375 0.058594,0 0.1992187,-0.12890625 0.1992187,-0.2578125 0,-0.0585938 -0.023437,-0.1171875 -0.09375,-0.1875 -0.1054687,-0.0703125 -0.3046875,-0.15234375 -0.5390625,-0.15234375 -0.234375,0 -0.5976562,0.09375 -0.9023437,0.33984375 -0.4101563,0.3046875 -0.609375,0.71484375 -0.609375,1.171875 0,0.64453128 0.4453125,1.25390628 1.2070312,1.25390628 0.3515625,0 0.75,-0.2578125 1.0195313,-0.609375 z m 0,0"
         style="fill:#231f20;fill-opacity:1;fill-rule:nonzero;stroke:none"
         aria-label="p&#10;c"
         transform="matrix(1.3333333,0,0,1.3333333,219.51467,58.403467)" />
      <path
         id="path17"
         d="m 1327.72,601.887 c -6.21,0 -11.25,5.039 -11.25,11.25 0,6.215 5.04,11.25 11.25,11.25 6.22,0 11.25,-5.035 11.25,-11.25 0,-6.211 -5.03,-11.25 -11.25,-11.25"
         style="fill:#231f20;fill-opacity:1;fill-rule:nonzero;stroke:#231f20;stroke-width:10;stroke-linecap:butt;stroke-linejoin:miter;stroke-miterlimit:10;stroke-dasharray:none;stroke-opacity:1"
         transform="matrix(0.13333333,0,0,-0.13333333,0,100.74667)" />
      <path
         id="path18"
         d="m 4.4769297,-1.0895172 c -0.2578125,0.35156251 -0.46875,0.52734376 -0.5742188,0.52734376 -0.1523437,0 -0.2109375,-0.421875 -0.3515625,-1.59374996 0.3515625,-0.4921875 0.8203125,-1.1835938 1.1835938,-1.8164063 l -0.09375,-0.070313 -0.46875,0.1171875 c -0.1875,0.375 -0.421875,0.84375 -0.6679688,1.265625 h -0.035156 c -0.1523438,-0.9492182 -0.3515625,-1.382812 -0.9023438,-1.382812 -0.9492187,0 -2.16796871,1.2890625 -2.17968746,2.7421875 -0.0117188,0.82031251 0.33984375,1.40625001 0.85546876,1.40625001 0.5273437,0 1.1601562,-0.5390625 1.7226562,-1.44140621 h 0.023437 c 0.09375,1.08984371 0.2578125,1.44140621 0.5507813,1.44140621 0.3164062,0 0.7148437,-0.29296875 1.1367187,-1.03125 z m -2.1679688,-2.578125 c 0.4101563,0 0.5390625,0.8671875 0.6210938,1.8632813 -0.5507813,0.96093746 -1.03125,1.33593746 -1.3476563,1.33593746 -0.2460937,0 -0.4453125,-0.3515625 -0.4335937,-0.99609376 0,-1.1367187 0.5976562,-2.203125 1.1601562,-2.203125 z M -16.977172,-9.8434234 c 0.07031,-0.5859376 0.03516,-1.7578126 -0.105469,-2.4726566 -0.152343,-0.796875 -0.375,-1.054687 -0.621093,-1.054687 -0.28125,0 -0.703125,0.328125 -1.136719,1.03125 l 0.210937,0.199219 c 0.292969,-0.421875 0.457032,-0.574219 0.5625,-0.574219 0.08203,0 0.164063,0.117187 0.246094,0.375 0.328125,0.972656 0.386719,2.3906248 0.257813,3.1523436 -0.386719,0.7148437 -0.855469,1.6523437 -0.996094,2.0390625 l 0.105469,0.1289062 c 0.269531,-0.023437 0.714843,-0.234375 0.855468,-0.3515625 0.105469,-0.2695312 0.339844,-1.171875 0.46875,-1.78125 0.105469,-0.140625 0.328125,-0.4570312 0.644532,-0.8906248 0.609375,-0.785156 1.441406,-1.863281 1.453125,-2.660156 0.01172,-0.398438 -0.164063,-0.667969 -0.386719,-0.667969 -0.1875,0 -0.363281,0.152344 -0.363281,0.316406 0,0.04687 0.01172,0.09375 0.03516,0.140625 0.04687,0.07031 0.128906,0.246094 0.128906,0.457031 0,0.773438 -0.84375,1.980469 -1.335937,2.6132816 z m 0,0"
         style="fill:#231f20;fill-opacity:1;fill-rule:nonzero;stroke:none"
         aria-label="α&#10;γ"
         transform="matrix(1.3333333,0,0,1.3333333,197.03467,47.792533)" />
      <path
         id="path19"
         d="m 1383.58,568.625 c -13.08,-16.398 -33.25,-26.906 -55.86,-26.906 -35.13,0 -64.34,25.371 -70.31,58.801"
         style="fill:none;stroke:#231f20;stroke-width:5;stroke-linecap:butt;stroke-linejoin:miter;stroke-miterlimit:10;stroke-dasharray:none;stroke-opacity:1"
         transform="matrix(0.13333333,0,0,-0.13333333,0,100.74667)" />
      <path
         id="path20"
         d="m 1554.6,377.813 c 0,16.164 5.37,31.074 14.42,43.039"
         style="fill:none;stroke:#231f20;stroke-width:5;stroke-linecap:butt;stroke-linejoin:miter;stroke-miterlimit:10;stroke-dasharray:none;stroke-opacity:1"
         transform="matrix(0.13333333,0,0,-0.13333333,0,100.74667)" />
      <path
         id="path21"
         d="m 479.41,377.813 c 0,27.894 -2.453,55.218 -7.152,81.765"
         style="fill:none;stroke:#231f20;stroke-width:5;stroke-linecap:butt;stroke-linejoin:miter;stroke-miterlimit:10;stroke-dasharray:none;stroke-opacity:1"
         transform="matrix(0.13333333,0,0,-0.13333333,0,100.74667)" />
      <g
         id="g21"
         aria-label="d&#10;c"
         transform="matrix(1.3333333,0,0,1.3333333,110.06973,61.634667)">
        <path
           id="path22"
           d="m 4.2309031,-1.0092031 c -0.2460937,0.24609373 -0.5273437,0.44531248 -0.6445312,0.44531248 -0.058594,0 -0.070312,-0.0820313 -0.035156,-0.3046875 0.3164063,-1.74609378 0.6914063,-3.49218748 1.125,-5.28515628 0.035156,-0.1875 0.011719,-0.2578125 -0.070312,-0.2578125 -0.1289062,0 -0.6210937,0.2226563 -1.3710937,0.3164063 l -0.035156,0.2226562 H 3.492623 c 0.3984375,0 0.421875,0.035156 0.3398437,0.4453125 L 3.539498,-3.9388906 c -0.2226563,-0.09375 -0.4101563,-0.1054688 -0.5273438,-0.1054688 -0.4335937,0 -1.171875,0.328125 -1.59375,0.6914063 -0.65624997,0.5742187 -1.05468747,1.5351562 -1.05468747,2.37890623 0,0.71484375 0.29296875,1.078125 0.5859375,1.078125 0.25781247,0 0.53906247,-0.140625 0.87890627,-0.41015625 0.3164062,-0.24609375 0.7851562,-0.64453125 1.1835937,-1.18359378 h 0.023437 l -0.1640625,0.76171878 c -0.140625,0.69140625 -0.023437,0.83203125 0.1640625,0.83203125 0.2460938,0 0.84375,-0.33984375 1.3242188,-0.90234375 z m -2.8359375,0.52734373 c -0.1523437,0 -0.28125,-0.19921875 -0.28125,-0.66796873 0,-0.75 0.3515625,-1.8867188 0.9609375,-2.3203125 0.1523438,-0.1171875 0.3515625,-0.1875 0.6210938,-0.1875 0.2695312,0 0.5976562,0.1054687 0.7382812,0.234375 l -0.2929687,1.2890625 c -0.2929688,0.5390625 -1.2890625,1.65234373 -1.7460938,1.65234373 z m 0,0"
           style="fill:#231f20;fill-opacity:1;fill-rule:nonzero;stroke:none" />
        <path
           id="path23"
           d="m 6.9144969,1.3316172 c -0.2695313,0.2578125 -0.46875,0.328125 -0.7265625,0.328125 -0.3398438,0 -0.9140625,-0.2695313 -0.9140625,-1.10156251 0,-0.6328125 0.3515625,-0.9609375 0.75,-0.9609375 0.2109375,0 0.421875,0.0703125 0.5976562,0.24609375 0.058594,0.046875 0.082031,0.05859375 0.1171875,0.05859375 0.058594,0 0.1992188,-0.12890625 0.1992188,-0.2578125 0,-0.0585938 -0.023437,-0.1171875 -0.09375,-0.1875 -0.1054688,-0.0703125 -0.3046875,-0.15234375 -0.5390625,-0.15234375 -0.234375,0 -0.5976563,0.09375 -0.9023438,0.33984375 -0.4101562,0.3046875 -0.609375,0.71484375 -0.609375,1.171875 0,0.64453121 0.4453125,1.25390621 1.2070313,1.25390621 0.3515625,0 0.75,-0.2578125 1.0195312,-0.609375 z m 0,0"
           style="fill:#231f20;fill-opacity:1;fill-rule:nonzero;stroke:none" />
      </g>
    </g>
  </g>
</svg>
