<?xml version="1.0" encoding="UTF-8" standalone="no"?>
<!-- Created with Inkscape (http://www.inkscape.org/) -->

<svg
   version="1.1"
   id="svg1"
   width="445.76001"
   height="112.09333"
   viewBox="0 0 445.76001 112.09333"
   sodipodi:docname="pha06f27.eps"
   xmlns:inkscape="http://www.inkscape.org/namespaces/inkscape"
   xmlns:sodipodi="http://sodipodi.sourceforge.net/DTD/sodipodi-0.dtd"
   xmlns="http://www.w3.org/2000/svg"
   xmlns:svg="http://www.w3.org/2000/svg">
  <defs
     id="defs1" />
  <sodipodi:namedview
     id="namedview1"
     pagecolor="#ffffff"
     bordercolor="#000000"
     borderopacity="0.25"
     inkscape:showpageshadow="2"
     inkscape:pageopacity="0.0"
     inkscape:pagecheckerboard="0"
     inkscape:deskcolor="#d1d1d1">
    <inkscape:page
       x="0"
       y="0"
       inkscape:label="1"
       id="page1"
       width="445.76001"
       height="112.09333"
       margin="0"
       bleed="0" />
  </sodipodi:namedview>
  <g
     id="g1"
     inkscape:groupmode="layer"
     inkscape:label="1">
    <g
       id="group-R5">
      <path
         id="path2"
         d="m 2.695725,1.3245269 c -0.890625,-0.76171877 -1.40625,-2.20312502 -1.40625,-3.75 0,-1.546875 0.515625,-3 1.40625,-3.75 L 2.5433813,-6.3864106 c -1.3242188,0.9023437 -1.9101563,2.3320312 -1.9101563,3.9492187 0,1.62890628 0.5859375,3.08203128 1.9101563,3.9609375 z m 4.3212891,-1.67578127 -0.09375,-0.234375 c -0.09375,0.0585938 -0.2226563,0.10546875 -0.328125,0.10546875 -0.1523438,0 -0.3164063,-0.140625 -0.3164063,-0.55078128 v -1.6640625 c 0,-0.46875 -0.082031,-0.84375 -0.3984375,-1.1015625 -0.1992187,-0.1640625 -0.46875,-0.2460937 -0.7382812,-0.2460937 -0.515625,0.1054687 -1.1015625,0.4570312 -1.3476563,0.6328125 -0.1757812,0.1289062 -0.2929687,0.2226562 -0.2929687,0.3632812 0,0.1992188 0.234375,0.3867188 0.3984375,0.3867188 0.1289062,0 0.2226562,-0.070312 0.2578125,-0.2109375 0.070312,-0.28125 0.1523437,-0.4804688 0.2695312,-0.5976563 0.09375,-0.1054687 0.2226563,-0.1757812 0.4101563,-0.1757812 0.4453125,0 0.75,0.3632812 0.75,1.0195312 v 0.1640625 c -0.1992188,0.1523438 -0.8554688,0.3984375 -1.3945313,0.5742188 -0.4921875,0.1757812 -0.7265625,0.4570312 -0.7265625,0.90234373 0,0.5625 0.4453125,1.08984375 1.078125,1.08984375 0.2695313,0 0.703125,-0.328125 1.0664063,-0.57421875 0.046875,0.15234375 0.09375,0.28125 0.2109375,0.41015625 0.1054687,0.08203125 0.2929687,0.1640625 0.421875,0.1640625 z M 5.5873266,-0.76141062 c -0.1640625,0.1640625 -0.4804688,0.31640625 -0.7148438,0.328125 -0.28125,0 -0.6445312,-0.22265625 -0.6445312,-0.69140628 0,-0.328125 0.1992187,-0.4921875 0.5507812,-0.65625 0.1875,-0.09375 0.6210938,-0.28125 0.8085938,-0.375 z M 7.4740453,-6.1754731 c 0.890625,0.7382812 1.4179688,2.203125 1.4179688,3.75 0,1.54687498 -0.5039063,2.98828123 -1.4179688,3.75 l 0.1640625,0.1992187 c 1.3476563,-0.91406247 1.8984375,-2.33203122 1.8984375,-3.9492187 0,-1.6289063 -0.5507812,-3.0585938 -1.8984375,-3.9609375 z m 165.8144547,7.5 c -0.89063,-0.76171877 -1.40625,-2.20312502 -1.40625,-3.75 0,-1.546875 0.51562,-3 1.40625,-3.75 l -0.15235,-0.2109375 c -1.32421,0.9023437 -1.91015,2.3320312 -1.91015,3.9492187 0,1.62890628 0.58594,3.08203128 1.91015,3.9609375 z m 1.79004,-4.9570313 v -2.7773437 c -0.33985,0.1171875 -0.89063,0.2578125 -1.3125,0.3164062 v 0.2109375 c 0.58593,0.046875 0.59765,0.1054688 0.59765,0.6679688 v 5.00390623 c 0.49219,0.234375 0.94922,0.31640625 1.32422,0.31640625 1.20703,0 2.26172,-0.9375 2.26172,-2.26171878 0,-1.0546875 -0.80859,-1.8867187 -1.78125,-1.8867187 -0.0937,0 -0.22266,0.023437 -0.36328,0.09375 z m 0,0.2695313 c 0.16406,-0.1054688 0.44531,-0.1757813 0.70312,-0.1757813 0.73828,0 1.3711,0.5976563 1.3711,1.6171875 0,1.05468753 -0.48047,1.68750003 -1.21875,1.68750003 -0.48047,-0.0117188 -0.75,-0.328125 -0.8086,-0.50390625 -0.0351,-0.0820313 -0.0469,-0.17578125 -0.0469,-0.30468748 z m 3.60937,-2.8125 c 0.89063,0.7382812 1.41797,2.203125 1.41797,3.75 0,1.54687498 -0.50391,2.98828123 -1.41797,3.75 l 0.16406,0.1992187 c 1.34766,-0.91406247 1.89844,-2.33203122 1.89844,-3.9492187 0,-1.6289063 -0.55078,-3.0585938 -1.89844,-3.9609375 z m 0,0"
         style="fill:#231f20;fill-opacity:1;fill-rule:nonzero;stroke:none"
         aria-label="(a)(b)"
         transform="matrix(1.3333333,0,0,1.3333333,102.0932,107.77303)" />
      <path
         id="path3"
         d="m 1387.63,838.207 h 244.45 L 1197.42,152.262 H 1.10938 Z"
         style="fill:none;stroke:#231f20;stroke-width:5;stroke-linecap:butt;stroke-linejoin:bevel;stroke-miterlimit:10;stroke-dasharray:none;stroke-opacity:1"
         transform="matrix(0.13333333,0,0,-0.13333333,0,112.09333)" />
      <path
         id="path4"
         d="M 747.246,521.898 H 1432.03"
         style="fill:none;stroke:#231f20;stroke-width:5;stroke-linecap:butt;stroke-linejoin:miter;stroke-miterlimit:10;stroke-dasharray:none;stroke-opacity:1"
         transform="matrix(0.13333333,0,0,-0.13333333,0,112.09333)" />
      <path
         id="path5"
         d="M 1509.85,838.207 599.27,152.262"
         style="fill:none;stroke:#231f20;stroke-width:5;stroke-linecap:butt;stroke-linejoin:miter;stroke-miterlimit:10;stroke-dasharray:none;stroke-opacity:1"
         transform="matrix(0.13333333,0,0,-0.13333333,0,112.09333)" />
      <path
         id="path6"
         d="m 1128.71,201.371 c 0,-5.441 -4.42,-9.848 -9.85,-9.848 -5.44,0 -9.86,4.407 -9.86,9.848 0,5.442 4.42,9.844 9.86,9.844 5.43,0 9.85,-4.402 9.85,-9.844"
         style="fill:#231f20;fill-opacity:1;fill-rule:nonzero;stroke:none"
         transform="matrix(0.13333333,0,0,-0.13333333,0,112.09333)" />
      <path
         id="path7"
         d="m 1200.81,257.359 c 0,-5.445 -4.42,-9.847 -9.86,-9.847 -5.44,0 -9.85,4.402 -9.85,9.847 0,5.438 4.41,9.844 9.85,9.844 5.44,0 9.86,-4.406 9.86,-9.844"
         style="fill:#231f20;fill-opacity:1;fill-rule:nonzero;stroke:none"
         transform="matrix(0.13333333,0,0,-0.13333333,0,112.09333)" />
      <path
         id="path8"
         d="m 1269.7,328.258 c 0,-5.438 -4.41,-9.856 -9.85,-9.856 -5.44,0 -9.85,4.418 -9.85,9.856 0,5.441 4.41,9.851 9.85,9.851 5.44,0 9.85,-4.41 9.85,-9.851"
         style="fill:#231f20;fill-opacity:1;fill-rule:nonzero;stroke:none"
         transform="matrix(0.13333333,0,0,-0.13333333,0,112.09333)" />
      <path
         id="path9"
         d="m 1238.96,368.293 c 0,-5.445 -4.4,-9.859 -9.85,-9.859 -5.44,0 -9.85,4.414 -9.85,9.859 0,5.43 4.41,9.844 9.85,9.844 5.45,0 9.85,-4.414 9.85,-9.844"
         style="fill:#231f20;fill-opacity:1;fill-rule:nonzero;stroke:none"
         transform="matrix(0.13333333,0,0,-0.13333333,0,112.09333)" />
      <path
         id="path10"
         d="m 1112.66,341.563 c 0,-5.446 -4.41,-9.848 -9.85,-9.848 -5.44,0 -9.85,4.402 -9.85,9.848 0,5.445 4.41,9.847 9.85,9.847 5.44,0 9.85,-4.402 9.85,-9.847"
         style="fill:#231f20;fill-opacity:1;fill-rule:nonzero;stroke:none"
         transform="matrix(0.13333333,0,0,-0.13333333,0,112.09333)" />
      <path
         id="path11"
         d="m 1043.62,267.289 c 0,-5.441 -4.42,-9.851 -9.85,-9.851 -5.44,0 -9.85,4.41 -9.85,9.851 0,5.438 4.41,9.852 9.85,9.852 5.43,0 9.85,-4.414 9.85,-9.852"
         style="fill:#231f20;fill-opacity:1;fill-rule:nonzero;stroke:none"
         transform="matrix(0.13333333,0,0,-0.13333333,0,112.09333)" />
      <path
         id="path12"
         d="m 951.211,219.43 c 0,-5.446 -4.402,-9.856 -9.848,-9.856 -5.441,0 -9.847,4.41 -9.847,9.856 0,5.433 4.406,9.847 9.847,9.847 5.446,0 9.848,-4.414 9.848,-9.847"
         style="fill:#231f20;fill-opacity:1;fill-rule:nonzero;stroke:none"
         transform="matrix(0.13333333,0,0,-0.13333333,0,112.09333)" />
      <path
         id="path13"
         d="m 1135.18,391.23 c 0,-5.433 -4.41,-9.843 -9.85,-9.843 -5.44,0 -9.85,4.41 -9.85,9.843 0,5.446 4.41,9.86 9.85,9.86 5.44,0 9.85,-4.414 9.85,-9.86"
         style="fill:#231f20;fill-opacity:1;fill-rule:nonzero;stroke:none"
         transform="matrix(0.13333333,0,0,-0.13333333,0,112.09333)" />
      <path
         id="path14"
         d="m 739.879,194.531 c 0,-5.433 -4.41,-9.847 -9.856,-9.847 -5.437,0 -9.843,4.414 -9.843,9.847 0,5.442 4.406,9.856 9.843,9.856 5.446,0 9.856,-4.414 9.856,-9.856"
         style="fill:#231f20;fill-opacity:1;fill-rule:nonzero;stroke:none"
         transform="matrix(0.13333333,0,0,-0.13333333,0,112.09333)" />
      <path
         id="path15"
         d="m 859.387,247.512 c 0,-5.446 -4.41,-9.856 -9.852,-9.856 -5.437,0 -9.847,4.41 -9.847,9.856 0,5.433 4.41,9.847 9.847,9.847 5.442,0 9.852,-4.414 9.852,-9.847"
         style="fill:#231f20;fill-opacity:1;fill-rule:nonzero;stroke:none"
         transform="matrix(0.13333333,0,0,-0.13333333,0,112.09333)" />
      <path
         id="path16"
         d="m 951.211,324.57 c 0,-5.453 -4.402,-9.859 -9.848,-9.859 -5.441,0 -9.847,4.406 -9.847,9.859 0,5.434 4.406,9.84 9.847,9.84 5.446,0 9.848,-4.406 9.848,-9.84"
         style="fill:#231f20;fill-opacity:1;fill-rule:nonzero;stroke:none"
         transform="matrix(0.13333333,0,0,-0.13333333,0,112.09333)" />
      <path
         id="path17"
         d="m 988.684,385.359 c 0,-5.433 -4.414,-9.847 -9.856,-9.847 -5.433,0 -9.848,4.414 -9.848,9.847 0,5.446 4.415,9.856 9.848,9.856 5.442,0 9.856,-4.41 9.856,-9.856"
         style="fill:#231f20;fill-opacity:1;fill-rule:nonzero;stroke:none"
         transform="matrix(0.13333333,0,0,-0.13333333,0,112.09333)" />
      <path
         id="path18"
         d="m 1340.11,440.543 c 0,-5.438 -4.41,-9.844 -9.85,-9.844 -5.44,0 -9.85,4.406 -9.85,9.844 0,5.441 4.41,9.852 9.85,9.852 5.44,0 9.85,-4.411 9.85,-9.852"
         style="fill:#231f20;fill-opacity:1;fill-rule:nonzero;stroke:none"
         transform="matrix(0.13333333,0,0,-0.13333333,0,112.09333)" />
      <path
         id="path19"
         d="m 1340.11,495.234 c 0,-5.433 -4.41,-9.843 -9.85,-9.843 -5.44,0 -9.85,4.41 -9.85,9.843 0,5.446 4.41,9.86 9.85,9.86 5.44,0 9.85,-4.414 9.85,-9.86"
         style="fill:#231f20;fill-opacity:1;fill-rule:nonzero;stroke:none"
         transform="matrix(0.13333333,0,0,-0.13333333,0,112.09333)" />
      <path
         id="path20"
         d="m 1223.49,502.691 c 0,-5.445 -4.4,-9.847 -9.84,-9.847 -5.45,0 -9.85,4.402 -9.85,9.847 0,5.438 4.4,9.844 9.85,9.844 5.44,0 9.84,-4.406 9.84,-9.844"
         style="fill:#231f20;fill-opacity:1;fill-rule:nonzero;stroke:none"
         transform="matrix(0.13333333,0,0,-0.13333333,0,112.09333)" />
      <path
         id="path21"
         d="m 1096.56,460.254 c 0,-5.445 -4.41,-9.859 -9.85,-9.859 -5.44,0 -9.85,4.414 -9.85,9.859 0,5.434 4.41,9.844 9.85,9.844 5.44,0 9.85,-4.41 9.85,-9.844"
         style="fill:#231f20;fill-opacity:1;fill-rule:nonzero;stroke:none"
         transform="matrix(0.13333333,0,0,-0.13333333,0,112.09333)" />
      <path
         id="path22"
         d="m 1238.96,462.68 c 0,-5.434 -4.4,-9.844 -9.85,-9.844 -5.44,0 -9.85,4.41 -9.85,9.844 0,5.445 4.41,9.859 9.85,9.859 5.45,0 9.85,-4.414 9.85,-9.859"
         style="fill:#231f20;fill-opacity:1;fill-rule:nonzero;stroke:none"
         transform="matrix(0.13333333,0,0,-0.13333333,0,112.09333)" />
      <path
         id="path23"
         d="m 1145.03,495.234 c 0,-5.433 -4.41,-9.843 -9.85,-9.843 -5.44,0 -9.85,4.41 -9.85,9.843 0,5.446 4.41,9.86 9.85,9.86 5.44,0 9.85,-4.414 9.85,-9.86"
         style="fill:#231f20;fill-opacity:1;fill-rule:nonzero;stroke:none"
         transform="matrix(0.13333333,0,0,-0.13333333,0,112.09333)" />
      <path
         id="path24"
         d="m 995.371,497.82 c 0,-5.433 -4.398,-9.847 -9.844,-9.847 -5.445,0 -9.851,4.414 -9.851,9.847 0,5.446 4.406,9.856 9.851,9.856 5.446,0 9.844,-4.41 9.844,-9.856"
         style="fill:#231f20;fill-opacity:1;fill-rule:nonzero;stroke:none"
         transform="matrix(0.13333333,0,0,-0.13333333,0,112.09333)" />
      <path
         id="path25"
         d="m 896.754,430.699 c 0,-5.445 -4.414,-9.847 -9.859,-9.847 -5.442,0 -9.844,4.402 -9.844,9.847 0,5.438 4.402,9.844 9.844,9.844 5.445,0 9.859,-4.406 9.859,-9.844"
         style="fill:#231f20;fill-opacity:1;fill-rule:nonzero;stroke:none"
         transform="matrix(0.13333333,0,0,-0.13333333,0,112.09333)" />
      <path
         id="path26"
         d="m 1279.56,542.074 c 0,-5.441 -4.41,-9.847 -9.86,-9.847 -5.43,0 -9.85,4.406 -9.85,9.847 0,5.442 4.42,9.844 9.85,9.844 5.45,0 9.86,-4.402 9.86,-9.844"
         style="fill:#231f20;fill-opacity:1;fill-rule:nonzero;stroke:none"
         transform="matrix(0.13333333,0,0,-0.13333333,0,112.09333)" />
      <path
         id="path27"
         d="m 1358.73,598.219 c 0,-5.446 -4.41,-9.852 -9.84,-9.852 -5.45,0 -9.86,4.406 -9.86,9.852 0,5.441 4.41,9.844 9.86,9.844 5.43,0 9.84,-4.403 9.84,-9.844"
         style="fill:#231f20;fill-opacity:1;fill-rule:nonzero;stroke:none"
         transform="matrix(0.13333333,0,0,-0.13333333,0,112.09333)" />
      <path
         id="path28"
         d="m 1397.22,566.738 c 0,-5.433 -4.41,-9.847 -9.85,-9.847 -5.44,0 -9.85,4.414 -9.85,9.847 0,5.446 4.41,9.856 9.85,9.856 5.44,0 9.85,-4.41 9.85,-9.856"
         style="fill:#231f20;fill-opacity:1;fill-rule:nonzero;stroke:none"
         transform="matrix(0.13333333,0,0,-0.13333333,0,112.09333)" />
      <path
         id="path29"
         d="m 1473.57,608.063 c 0,-5.434 -4.41,-9.844 -9.86,-9.844 -5.44,0 -9.84,4.41 -9.84,9.844 0,5.445 4.4,9.859 9.84,9.859 5.45,0 9.86,-4.414 9.86,-9.859"
         style="fill:#231f20;fill-opacity:1;fill-rule:nonzero;stroke:none"
         transform="matrix(0.13333333,0,0,-0.13333333,0,112.09333)" />
      <path
         id="path30"
         d="m 1203.8,551.918 c 0,-5.434 -4.41,-9.844 -9.85,-9.844 -5.44,0 -9.85,4.41 -9.85,9.844 0,5.445 4.41,9.859 9.85,9.859 5.44,0 9.85,-4.414 9.85,-9.859"
         style="fill:#231f20;fill-opacity:1;fill-rule:nonzero;stroke:none"
         transform="matrix(0.13333333,0,0,-0.13333333,0,112.09333)" />
      <path
         id="path31"
         d="m 1259.85,613.113 c 0,-5.441 -4.41,-9.855 -9.85,-9.855 -5.43,0 -9.84,4.414 -9.84,9.855 0,5.438 4.41,9.848 9.84,9.848 5.44,0 9.85,-4.41 9.85,-9.848"
         style="fill:#231f20;fill-opacity:1;fill-rule:nonzero;stroke:none"
         transform="matrix(0.13333333,0,0,-0.13333333,0,112.09333)" />
      <path
         id="path32"
         d="m 744.773,328.258 c 0,-5.438 -4.414,-9.856 -9.855,-9.856 -5.438,0 -9.844,4.418 -9.844,9.856 0,5.441 4.406,9.851 9.844,9.851 5.441,0 9.855,-4.41 9.855,-9.851"
         style="fill:#231f20;fill-opacity:1;fill-rule:nonzero;stroke:none"
         transform="matrix(0.13333333,0,0,-0.13333333,0,112.09333)" />
      <path
         id="path33"
         d="m 836.293,371.539 c 0,-5.445 -4.414,-9.855 -9.852,-9.855 -5.441,0 -9.847,4.41 -9.847,9.855 0,5.434 4.406,9.848 9.847,9.848 5.438,0 9.852,-4.414 9.852,-9.848"
         style="fill:#231f20;fill-opacity:1;fill-rule:nonzero;stroke:none"
         transform="matrix(0.13333333,0,0,-0.13333333,0,112.09333)" />
      <path
         id="path34"
         d="m 734.918,395.215 c 0,-5.445 -4.406,-9.856 -9.844,-9.856 -5.445,0 -9.855,4.411 -9.855,9.856 0,5.433 4.41,9.859 9.855,9.859 5.438,0 9.844,-4.426 9.844,-9.859"
         style="fill:#231f20;fill-opacity:1;fill-rule:nonzero;stroke:none"
         transform="matrix(0.13333333,0,0,-0.13333333,0,112.09333)" />
      <path
         id="path35"
         d="m 705.219,267.289 c 0,-5.441 -4.406,-9.851 -9.852,-9.851 -5.441,0 -9.844,4.41 -9.844,9.851 0,5.438 4.403,9.852 9.844,9.852 5.446,0 9.852,-4.414 9.852,-9.852"
         style="fill:#231f20;fill-opacity:1;fill-rule:nonzero;stroke:none"
         transform="matrix(0.13333333,0,0,-0.13333333,0,112.09333)" />
      <path
         id="path36"
         d="m 580.641,227.258 c 0,-5.442 -4.411,-9.856 -9.856,-9.856 -5.437,0 -9.844,4.414 -9.844,9.856 0,5.433 4.407,9.847 9.844,9.847 5.445,0 9.856,-4.414 9.856,-9.847"
         style="fill:#231f20;fill-opacity:1;fill-rule:nonzero;stroke:none"
         transform="matrix(0.13333333,0,0,-0.13333333,0,112.09333)" />
      <path
         id="path37"
         d="m 630.234,353.805 c 0,-5.438 -4.41,-9.852 -9.847,-9.852 -5.446,0 -9.852,4.414 -9.852,9.852 0,5.441 4.406,9.851 9.852,9.851 5.437,0 9.847,-4.41 9.847,-9.851"
         style="fill:#231f20;fill-opacity:1;fill-rule:nonzero;stroke:none"
         transform="matrix(0.13333333,0,0,-0.13333333,0,112.09333)" />
      <path
         id="path38"
         d="m 476.477,280.422 c 0,-5.442 -4.414,-9.848 -9.86,-9.848 -5.433,0 -9.844,4.406 -9.844,9.848 0,5.441 4.411,9.848 9.844,9.848 5.446,0 9.86,-4.407 9.86,-9.848"
         style="fill:#231f20;fill-opacity:1;fill-rule:nonzero;stroke:none"
         transform="matrix(0.13333333,0,0,-0.13333333,0,112.09333)" />
      <path
         id="path39"
         d="m 420.523,207.559 c 0,-5.446 -4.41,-9.848 -9.847,-9.848 -5.442,0 -9.856,4.402 -9.856,9.848 0,5.437 4.414,9.843 9.856,9.843 5.437,0 9.847,-4.406 9.847,-9.843"
         style="fill:#231f20;fill-opacity:1;fill-rule:nonzero;stroke:none"
         transform="matrix(0.13333333,0,0,-0.13333333,0,112.09333)" />
      <path
         id="path40"
         d="m 301.352,267.203 c 0,-5.433 -4.414,-9.844 -9.852,-9.844 -5.441,0 -9.852,4.411 -9.852,9.844 0,5.453 4.411,9.86 9.852,9.86 5.438,0 9.852,-4.407 9.852,-9.86"
         style="fill:#231f20;fill-opacity:1;fill-rule:nonzero;stroke:none"
         transform="matrix(0.13333333,0,0,-0.13333333,0,112.09333)" />
      <path
         id="path41"
         d="m 210.348,204.387 c 0,-5.438 -4.41,-9.856 -9.852,-9.856 -5.437,0 -9.851,4.418 -9.851,9.856 0,5.433 4.414,9.851 9.851,9.851 5.442,0 9.852,-4.418 9.852,-9.851"
         style="fill:#231f20;fill-opacity:1;fill-rule:nonzero;stroke:none"
         transform="matrix(0.13333333,0,0,-0.13333333,0,112.09333)" />
      <path
         id="path42"
         d="m 470.254,338.109 c 0,-5.437 -4.414,-9.851 -9.856,-9.851 -5.437,0 -9.847,4.414 -9.847,9.851 0,5.438 4.41,9.852 9.847,9.852 5.442,0 9.856,-4.414 9.856,-9.852"
         style="fill:#231f20;fill-opacity:1;fill-rule:nonzero;stroke:none"
         transform="matrix(0.13333333,0,0,-0.13333333,0,112.09333)" />
      <path
         id="path43"
         d="m 545.668,385.359 c 0,-5.433 -4.414,-9.847 -9.852,-9.847 -5.433,0 -9.847,4.414 -9.847,9.847 0,5.446 4.414,9.856 9.847,9.856 5.438,0 9.852,-4.41 9.852,-9.856"
         style="fill:#231f20;fill-opacity:1;fill-rule:nonzero;stroke:none"
         transform="matrix(0.13333333,0,0,-0.13333333,0,112.09333)" />
      <path
         id="path44"
         d="m 630.234,436.578 c 0,-5.433 -4.41,-9.848 -9.847,-9.848 -5.446,0 -9.852,4.415 -9.852,9.848 0,5.442 4.406,9.852 9.852,9.852 5.437,0 9.847,-4.41 9.847,-9.852"
         style="fill:#231f20;fill-opacity:1;fill-rule:nonzero;stroke:none"
         transform="matrix(0.13333333,0,0,-0.13333333,0,112.09333)" />
      <path
         id="path45"
         d="m 754.617,492.844 c 0,-5.446 -4.406,-9.856 -9.844,-9.856 -5.441,0 -9.855,4.41 -9.855,9.856 0,5.433 4.414,9.847 9.855,9.847 5.438,0 9.844,-4.414 9.844,-9.847"
         style="fill:#231f20;fill-opacity:1;fill-rule:nonzero;stroke:none"
         transform="matrix(0.13333333,0,0,-0.13333333,0,112.09333)" />
      <path
         id="path46"
         d="m 764.473,436.578 c 0,-5.433 -4.41,-9.848 -9.856,-9.848 -5.437,0 -9.844,4.415 -9.844,9.848 0,5.442 4.407,9.852 9.844,9.852 5.446,0 9.856,-4.41 9.856,-9.852"
         style="fill:#231f20;fill-opacity:1;fill-rule:nonzero;stroke:none"
         transform="matrix(0.13333333,0,0,-0.13333333,0,112.09333)" />
      <path
         id="path47"
         d="m 861.734,485.391 c 0,-5.446 -4.41,-9.848 -9.847,-9.848 -5.442,0 -9.856,4.402 -9.856,9.848 0,5.437 4.414,9.843 9.856,9.843 5.437,0 9.847,-4.406 9.847,-9.843"
         style="fill:#231f20;fill-opacity:1;fill-rule:nonzero;stroke:none"
         transform="matrix(0.13333333,0,0,-0.13333333,0,112.09333)" />
      <path
         id="path48"
         d="m 944.352,541.125 c 0,-5.445 -4.414,-9.859 -9.856,-9.859 -5.433,0 -9.848,4.414 -9.848,9.859 0,5.434 4.415,9.844 9.848,9.844 5.442,0 9.856,-4.41 9.856,-9.844"
         style="fill:#231f20;fill-opacity:1;fill-rule:nonzero;stroke:none"
         transform="matrix(0.13333333,0,0,-0.13333333,0,112.09333)" />
      <path
         id="path49"
         d="m 1079.47,617.922 c 0,-5.438 -4.41,-9.859 -9.84,-9.859 -5.45,0 -9.86,4.421 -9.86,9.859 0,5.433 4.41,9.851 9.86,9.851 5.43,0 9.84,-4.418 9.84,-9.851"
         style="fill:#231f20;fill-opacity:1;fill-rule:nonzero;stroke:none"
         transform="matrix(0.13333333,0,0,-0.13333333,0,112.09333)" />
      <path
         id="path50"
         d="m 886.895,561.777 c 0,-5.445 -4.407,-9.859 -9.844,-9.859 -5.446,0 -9.856,4.414 -9.856,9.859 0,5.434 4.41,9.844 9.856,9.844 5.437,0 9.844,-4.41 9.844,-9.844"
         style="fill:#231f20;fill-opacity:1;fill-rule:nonzero;stroke:none"
         transform="matrix(0.13333333,0,0,-0.13333333,0,112.09333)" />
      <path
         id="path51"
         d="m 961.063,603.258 c 0,-5.438 -4.415,-9.844 -9.852,-9.844 -5.434,0 -9.848,4.406 -9.848,9.844 0,5.441 4.414,9.855 9.848,9.855 5.437,0 9.852,-4.414 9.852,-9.855"
         style="fill:#231f20;fill-opacity:1;fill-rule:nonzero;stroke:none"
         transform="matrix(0.13333333,0,0,-0.13333333,0,112.09333)" />
      <path
         id="path52"
         d="m 1069.63,545.98 c 0,-5.433 -4.42,-9.847 -9.86,-9.847 -5.43,0 -9.84,4.414 -9.84,9.847 0,5.442 4.41,9.856 9.84,9.856 5.44,0 9.86,-4.414 9.86,-9.856"
         style="fill:#231f20;fill-opacity:1;fill-rule:nonzero;stroke:none"
         transform="matrix(0.13333333,0,0,-0.13333333,0,112.09333)" />
      <path
         id="path53"
         d="m 1154.88,593.414 c 0,-5.445 -4.41,-9.851 -9.85,-9.851 -5.44,0 -9.85,4.406 -9.85,9.851 0,5.438 4.41,9.844 9.85,9.844 5.44,0 9.85,-4.406 9.85,-9.844"
         style="fill:#231f20;fill-opacity:1;fill-rule:nonzero;stroke:none"
         transform="matrix(0.13333333,0,0,-0.13333333,0,112.09333)" />
      <path
         id="path54"
         d="m 1416.92,732.598 c 0,-5.446 -4.42,-9.856 -9.85,-9.856 -5.44,0 -9.85,4.41 -9.85,9.856 0,5.433 4.41,9.847 9.85,9.847 5.43,0 9.85,-4.414 9.85,-9.847"
         style="fill:#231f20;fill-opacity:1;fill-rule:nonzero;stroke:none"
         transform="matrix(0.13333333,0,0,-0.13333333,0,112.09333)" />
      <path
         id="path55"
         d="m 1317.61,666.695 c 0,-5.441 -4.41,-9.843 -9.85,-9.843 -5.44,0 -9.84,4.402 -9.84,9.843 0,5.446 4.4,9.848 9.84,9.848 5.44,0 9.85,-4.402 9.85,-9.848"
         style="fill:#231f20;fill-opacity:1;fill-rule:nonzero;stroke:none"
         transform="matrix(0.13333333,0,0,-0.13333333,0,112.09333)" />
      <path
         id="path56"
         d="m 1231.92,654.836 c 0,-5.445 -4.41,-9.852 -9.84,-9.852 -5.44,0 -9.86,4.407 -9.86,9.852 0,5.437 4.42,9.844 9.86,9.844 5.43,0 9.84,-4.407 9.84,-9.844"
         style="fill:#231f20;fill-opacity:1;fill-rule:nonzero;stroke:none"
         transform="matrix(0.13333333,0,0,-0.13333333,0,112.09333)" />
      <path
         id="path57"
         d="m 1337.31,730.449 c 0,-5.445 -4.41,-9.851 -9.85,-9.851 -5.44,0 -9.85,4.406 -9.85,9.851 0,5.434 4.41,9.848 9.85,9.848 5.44,0 9.85,-4.414 9.85,-9.848"
         style="fill:#231f20;fill-opacity:1;fill-rule:nonzero;stroke:none"
         transform="matrix(0.13333333,0,0,-0.13333333,0,112.09333)" />
      <path
         id="path58"
         d="m 1166.22,666.695 c 0,-5.441 -4.41,-9.843 -9.84,-9.843 -5.45,0 -9.86,4.402 -9.86,9.843 0,5.446 4.41,9.848 9.86,9.848 5.43,0 9.84,-4.402 9.84,-9.848"
         style="fill:#231f20;fill-opacity:1;fill-rule:nonzero;stroke:none"
         transform="matrix(0.13333333,0,0,-0.13333333,0,112.09333)" />
      <path
         id="path59"
         d="m 1251.63,712.891 c 0,-5.434 -4.42,-9.848 -9.85,-9.848 -5.44,0 -9.86,4.414 -9.86,9.848 0,5.437 4.42,9.851 9.86,9.851 5.43,0 9.85,-4.414 9.85,-9.851"
         style="fill:#231f20;fill-opacity:1;fill-rule:nonzero;stroke:none"
         transform="matrix(0.13333333,0,0,-0.13333333,0,112.09333)" />
      <path
         id="path60"
         d="m 1387.37,648.496 c 0,-5.433 -4.41,-9.844 -9.85,-9.844 -5.44,0 -9.85,4.411 -9.85,9.844 0,5.445 4.41,9.859 9.85,9.859 5.44,0 9.85,-4.414 9.85,-9.859"
         style="fill:#231f20;fill-opacity:1;fill-rule:nonzero;stroke:none"
         transform="matrix(0.13333333,0,0,-0.13333333,0,112.09333)" />
      <path
         id="path61"
         d="m 1438.23,695.766 c 0,-5.434 -4.42,-9.848 -9.86,-9.848 -5.43,0 -9.84,4.414 -9.84,9.848 0,5.441 4.41,9.855 9.84,9.855 5.44,0 9.86,-4.414 9.86,-9.855"
         style="fill:#231f20;fill-opacity:1;fill-rule:nonzero;stroke:none"
         transform="matrix(0.13333333,0,0,-0.13333333,0,112.09333)" />
      <path
         id="path62"
         d="m 1486.73,654.836 c 0,-5.445 -4.4,-9.852 -9.84,-9.852 -5.44,0 -9.85,4.407 -9.85,9.852 0,5.437 4.41,9.844 9.85,9.844 5.44,0 9.84,-4.407 9.84,-9.844"
         style="fill:#231f20;fill-opacity:1;fill-rule:nonzero;stroke:none"
         transform="matrix(0.13333333,0,0,-0.13333333,0,112.09333)" />
      <path
         id="path63"
         d="m 1529.56,724.176 c 0,-5.438 -4.42,-9.844 -9.85,-9.844 -5.45,0 -9.86,4.406 -9.86,9.844 0,5.441 4.41,9.855 9.86,9.855 5.43,0 9.85,-4.414 9.85,-9.855"
         style="fill:#231f20;fill-opacity:1;fill-rule:nonzero;stroke:none"
         transform="matrix(0.13333333,0,0,-0.13333333,0,112.09333)" />
      <path
         id="path64"
         d="m 1096,669.727 c 0,-5.442 -4.41,-9.852 -9.85,-9.852 -5.44,0 -9.85,4.41 -9.85,9.852 0,5.433 4.41,9.847 9.85,9.847 5.44,0 9.85,-4.414 9.85,-9.847"
         style="fill:#231f20;fill-opacity:1;fill-rule:nonzero;stroke:none"
         transform="matrix(0.13333333,0,0,-0.13333333,0,112.09333)" />
      <path
         id="path65"
         d="m 1193.95,720.598 c 0,-5.438 -4.41,-9.852 -9.85,-9.852 -5.44,0 -9.85,4.414 -9.85,9.852 0,5.437 4.41,9.851 9.85,9.851 5.44,0 9.85,-4.414 9.85,-9.851"
         style="fill:#231f20;fill-opacity:1;fill-rule:nonzero;stroke:none"
         transform="matrix(0.13333333,0,0,-0.13333333,0,112.09333)" />
      <path
         id="path66"
         d="m 1438.23,761.633 c 0,-5.445 -4.42,-9.844 -9.86,-9.844 -5.43,0 -9.84,4.399 -9.84,9.844 0,5.441 4.41,9.847 9.84,9.847 5.44,0 9.86,-4.406 9.86,-9.847"
         style="fill:#231f20;fill-opacity:1;fill-rule:nonzero;stroke:none"
         transform="matrix(0.13333333,0,0,-0.13333333,0,112.09333)" />
      <path
         id="path67"
         d="m 1496.59,799.629 c 0,-5.445 -4.41,-9.859 -9.86,-9.859 -5.43,0 -9.84,4.414 -9.84,9.859 0,5.434 4.41,9.844 9.84,9.844 5.45,0 9.86,-4.41 9.86,-9.844"
         style="fill:#231f20;fill-opacity:1;fill-rule:nonzero;stroke:none"
         transform="matrix(0.13333333,0,0,-0.13333333,0,112.09333)" />
      <path
         id="path68"
         d="m 1562.56,819.32 c 0,-5.433 -4.41,-9.847 -9.85,-9.847 -5.44,0 -9.85,4.414 -9.85,9.847 0,5.446 4.41,9.856 9.85,9.856 5.44,0 9.85,-4.41 9.85,-9.856"
         style="fill:#231f20;fill-opacity:1;fill-rule:nonzero;stroke:none"
         transform="matrix(0.13333333,0,0,-0.13333333,0,112.09333)" />
      <path
         id="path69"
         d="m 1514.13,771.48 c 0,-5.433 -4.42,-9.847 -9.85,-9.847 -5.45,0 -9.86,4.414 -9.86,9.847 0,5.438 4.41,9.852 9.86,9.852 5.43,0 9.85,-4.414 9.85,-9.852"
         style="fill:#231f20;fill-opacity:1;fill-rule:nonzero;stroke:none"
         transform="matrix(0.13333333,0,0,-0.13333333,0,112.09333)" />
      <path
         id="path70"
         d="m 1562.56,769.035 c 0,-5.445 -4.41,-9.859 -9.85,-9.859 -5.44,0 -9.85,4.414 -9.85,9.859 0,5.434 4.41,9.84 9.85,9.84 5.44,0 9.85,-4.406 9.85,-9.84"
         style="fill:#231f20;fill-opacity:1;fill-rule:nonzero;stroke:none"
         transform="matrix(0.13333333,0,0,-0.13333333,0,112.09333)" />
      <path
         id="path71"
         d="m 1599.59,806.172 c 0,-5.445 -4.41,-9.848 -9.85,-9.848 -5.44,0 -9.85,4.403 -9.85,9.848 0,5.445 4.41,9.848 9.85,9.848 5.44,0 9.85,-4.403 9.85,-9.848"
         style="fill:#231f20;fill-opacity:1;fill-rule:nonzero;stroke:none"
         transform="matrix(0.13333333,0,0,-0.13333333,0,112.09333)" />
      <path
         id="path72"
         d="m 1382.3,761.633 c 0,-5.445 -4.41,-9.844 -9.84,-9.844 -5.45,0 -9.86,4.399 -9.86,9.844 0,5.441 4.41,9.847 9.86,9.847 5.43,0 9.84,-4.406 9.84,-9.847"
         style="fill:#231f20;fill-opacity:1;fill-rule:nonzero;stroke:none"
         transform="matrix(0.13333333,0,0,-0.13333333,0,112.09333)" />
      <path
         id="path73"
         d="m 1457.92,808.121 c 0,-5.449 -4.4,-9.855 -9.84,-9.855 -5.45,0 -9.85,4.406 -9.85,9.855 0,5.434 4.4,9.84 9.85,9.84 5.44,0 9.84,-4.406 9.84,-9.84"
         style="fill:#231f20;fill-opacity:1;fill-rule:nonzero;stroke:none"
         transform="matrix(0.13333333,0,0,-0.13333333,0,112.09333)" />
      <path
         id="path74"
         d="m 1335.59,763.039 c 0,-5.437 -4.41,-9.844 -9.86,-9.844 -5.43,0 -9.85,4.407 -9.85,9.844 0,5.441 4.42,9.856 9.85,9.856 5.45,0 9.86,-4.415 9.86,-9.856"
         style="fill:#231f20;fill-opacity:1;fill-rule:nonzero;stroke:none"
         transform="matrix(0.13333333,0,0,-0.13333333,0,112.09333)" />
      <path
         id="path75"
         d="m 1400.79,802.695 c 0,-5.445 -4.41,-9.847 -9.85,-9.847 -5.44,0 -9.85,4.402 -9.85,9.847 0,5.446 4.41,9.844 9.85,9.844 5.44,0 9.85,-4.398 9.85,-9.844"
         style="fill:#231f20;fill-opacity:1;fill-rule:nonzero;stroke:none"
         transform="matrix(0.13333333,0,0,-0.13333333,0,112.09333)" />
      <path
         id="path76"
         d="m 1372.46,813.633 c 0,-5.445 -4.42,-9.844 -9.86,-9.844 -5.43,0 -9.85,4.399 -9.85,9.844 0,5.445 4.42,9.847 9.85,9.847 5.44,0 9.86,-4.402 9.86,-9.847"
         style="fill:#231f20;fill-opacity:1;fill-rule:nonzero;stroke:none"
         transform="matrix(0.13333333,0,0,-0.13333333,0,112.09333)" />
      <path
         id="path77"
         d="m 1283.2,769.035 c 0,-5.445 -4.4,-9.859 -9.85,-9.859 -5.44,0 -9.84,4.414 -9.84,9.859 0,5.434 4.4,9.84 9.84,9.84 5.45,0 9.85,-4.406 9.85,-9.84"
         style="fill:#231f20;fill-opacity:1;fill-rule:nonzero;stroke:none"
         transform="matrix(0.13333333,0,0,-0.13333333,0,112.09333)" />
      <path
         id="path78"
         d="m 3096.67,838.207 h 244.44 L 2906.47,152.262 H 1710.15 Z"
         style="fill:none;stroke:#231f20;stroke-width:5;stroke-linecap:butt;stroke-linejoin:bevel;stroke-miterlimit:10;stroke-dasharray:none;stroke-opacity:1"
         transform="matrix(0.13333333,0,0,-0.13333333,0,112.09333)" />
      <path
         id="path79"
         d="m 2456.29,521.898 h 684.79"
         style="fill:none;stroke:#231f20;stroke-width:5;stroke-linecap:butt;stroke-linejoin:miter;stroke-miterlimit:10;stroke-dasharray:none;stroke-opacity:1"
         transform="matrix(0.13333333,0,0,-0.13333333,0,112.09333)" />
      <path
         id="path80"
         d="M 3218.89,838.207 2308.31,152.262"
         style="fill:none;stroke:#231f20;stroke-width:5;stroke-linecap:butt;stroke-linejoin:miter;stroke-miterlimit:10;stroke-dasharray:none;stroke-opacity:1"
         transform="matrix(0.13333333,0,0,-0.13333333,0,112.09333)" />
      <path
         id="path81"
         d="m 2837.75,201.371 c 0,-5.441 -4.42,-9.848 -9.85,-9.848 -5.43,0 -9.85,4.407 -9.85,9.848 0,5.442 4.42,9.844 9.85,9.844 5.43,0 9.85,-4.402 9.85,-9.844"
         style="fill:#231f20;fill-opacity:1;fill-rule:nonzero;stroke:none"
         transform="matrix(0.13333333,0,0,-0.13333333,0,112.09333)" />
      <path
         id="path82"
         d="m 2909.84,257.359 c 0,-5.445 -4.42,-9.847 -9.84,-9.847 -5.45,0 -9.86,4.402 -9.86,9.847 0,5.438 4.41,9.844 9.86,9.844 5.42,0 9.84,-4.406 9.84,-9.844"
         style="fill:#231f20;fill-opacity:1;fill-rule:nonzero;stroke:none"
         transform="matrix(0.13333333,0,0,-0.13333333,0,112.09333)" />
      <path
         id="path83"
         d="m 2978.75,328.258 c 0,-5.438 -4.42,-9.856 -9.86,-9.856 -5.43,0 -9.84,4.418 -9.84,9.856 0,5.441 4.41,9.851 9.84,9.851 5.44,0 9.86,-4.41 9.86,-9.851"
         style="fill:#231f20;fill-opacity:1;fill-rule:nonzero;stroke:none"
         transform="matrix(0.13333333,0,0,-0.13333333,0,112.09333)" />
      <path
         id="path84"
         d="m 2865.42,314.711 c 0,-5.438 -4.41,-9.852 -9.86,-9.852 -5.44,0 -9.84,4.414 -9.84,9.852 0,5.434 4.4,9.859 9.84,9.859 5.45,0 9.86,-4.425 9.86,-9.859"
         style="fill:#231f20;fill-opacity:1;fill-rule:nonzero;stroke:none"
         transform="matrix(0.13333333,0,0,-0.13333333,0,112.09333)" />
      <path
         id="path85"
         d="m 2783.31,260.723 c 0,-5.434 -4.42,-9.848 -9.86,-9.848 -5.44,0 -9.85,4.414 -9.85,9.848 0,5.437 4.41,9.851 9.85,9.851 5.44,0 9.86,-4.414 9.86,-9.851"
         style="fill:#231f20;fill-opacity:1;fill-rule:nonzero;stroke:none"
         transform="matrix(0.13333333,0,0,-0.13333333,0,112.09333)" />
      <path
         id="path86"
         d="m 2717.42,184.684 c 0,-5.446 -4.42,-9.844 -9.85,-9.844 -5.45,0 -9.85,4.398 -9.85,9.844 0,5.445 4.4,9.847 9.85,9.847 5.43,0 9.85,-4.402 9.85,-9.847"
         style="fill:#231f20;fill-opacity:1;fill-rule:nonzero;stroke:none"
         transform="matrix(0.13333333,0,0,-0.13333333,0,112.09333)" />
      <path
         id="path87"
         d="m 2633.7,231.172 c 0,-5.434 -4.42,-9.844 -9.87,-9.844 -5.43,0 -9.84,4.41 -9.84,9.844 0,5.445 4.41,9.851 9.84,9.851 5.45,0 9.87,-4.406 9.87,-9.851"
         style="fill:#231f20;fill-opacity:1;fill-rule:nonzero;stroke:none"
         transform="matrix(0.13333333,0,0,-0.13333333,0,112.09333)" />
      <path
         id="path88"
         d="m 2778.67,353.805 c 0,-5.438 -4.42,-9.852 -9.86,-9.852 -5.44,0 -9.85,4.414 -9.85,9.852 0,5.441 4.41,9.851 9.85,9.851 5.44,0 9.86,-4.41 9.86,-9.851"
         style="fill:#231f20;fill-opacity:1;fill-rule:nonzero;stroke:none"
         transform="matrix(0.13333333,0,0,-0.13333333,0,112.09333)" />
      <path
         id="path89"
         d="m 2448.92,194.531 c 0,-5.433 -4.41,-9.847 -9.85,-9.847 -5.44,0 -9.86,4.414 -9.86,9.847 0,5.442 4.42,9.856 9.86,9.856 5.44,0 9.85,-4.414 9.85,-9.856"
         style="fill:#231f20;fill-opacity:1;fill-rule:nonzero;stroke:none"
         transform="matrix(0.13333333,0,0,-0.13333333,0,112.09333)" />
      <path
         id="path90"
         d="m 2274.56,270.574 c 0,-5.441 -4.41,-9.851 -9.85,-9.851 -5.45,0 -9.85,4.41 -9.85,9.851 0,5.438 4.4,9.848 9.85,9.848 5.44,0 9.85,-4.41 9.85,-9.848"
         style="fill:#231f20;fill-opacity:1;fill-rule:nonzero;stroke:none"
         transform="matrix(0.13333333,0,0,-0.13333333,0,112.09333)" />
      <path
         id="path91"
         d="m 2660.25,324.57 c 0,-5.453 -4.41,-9.859 -9.84,-9.859 -5.44,0 -9.86,4.406 -9.86,9.859 0,5.434 4.42,9.84 9.86,9.84 5.43,0 9.84,-4.406 9.84,-9.84"
         style="fill:#231f20;fill-opacity:1;fill-rule:nonzero;stroke:none"
         transform="matrix(0.13333333,0,0,-0.13333333,0,112.09333)" />
      <path
         id="path92"
         d="m 2697.72,385.359 c 0,-5.433 -4.4,-9.847 -9.85,-9.847 -5.44,0 -9.85,4.414 -9.85,9.847 0,5.446 4.41,9.856 9.85,9.856 5.45,0 9.85,-4.41 9.85,-9.856"
         style="fill:#231f20;fill-opacity:1;fill-rule:nonzero;stroke:none"
         transform="matrix(0.13333333,0,0,-0.13333333,0,112.09333)" />
      <path
         id="path93"
         d="m 3016.8,416.887 c 0,-5.457 -4.4,-9.86 -9.85,-9.86 -5.43,0 -9.85,4.403 -9.85,9.86 0,5.433 4.42,9.843 9.85,9.843 5.45,0 9.85,-4.41 9.85,-9.843"
         style="fill:#231f20;fill-opacity:1;fill-rule:nonzero;stroke:none"
         transform="matrix(0.13333333,0,0,-0.13333333,0,112.09333)" />
      <path
         id="path94"
         d="m 2922.69,426.73 c 0,-5.445 -4.41,-9.843 -9.85,-9.843 -5.44,0 -9.85,4.398 -9.85,9.843 0,5.442 4.41,9.848 9.85,9.848 5.44,0 9.85,-4.406 9.85,-9.848"
         style="fill:#231f20;fill-opacity:1;fill-rule:nonzero;stroke:none"
         transform="matrix(0.13333333,0,0,-0.13333333,0,112.09333)" />
      <path
         id="path95"
         d="m 2932.53,502.691 c 0,-5.445 -4.4,-9.847 -9.84,-9.847 -5.44,0 -9.85,4.402 -9.85,9.847 0,5.438 4.41,9.844 9.85,9.844 5.44,0 9.84,-4.406 9.84,-9.844"
         style="fill:#231f20;fill-opacity:1;fill-rule:nonzero;stroke:none"
         transform="matrix(0.13333333,0,0,-0.13333333,0,112.09333)" />
      <path
         id="path96"
         d="m 2818.05,440.543 c 0,-5.438 -4.41,-9.844 -9.85,-9.844 -5.44,0 -9.86,4.406 -9.86,9.844 0,5.441 4.42,9.852 9.86,9.852 5.44,0 9.85,-4.411 9.85,-9.852"
         style="fill:#231f20;fill-opacity:1;fill-rule:nonzero;stroke:none"
         transform="matrix(0.13333333,0,0,-0.13333333,0,112.09333)" />
      <path
         id="path97"
         d="m 3016.8,487.973 c 0,-5.438 -4.4,-9.844 -9.85,-9.844 -5.43,0 -9.85,4.406 -9.85,9.844 0,5.445 4.42,9.847 9.85,9.847 5.45,0 9.85,-4.402 9.85,-9.847"
         style="fill:#231f20;fill-opacity:1;fill-rule:nonzero;stroke:none"
         transform="matrix(0.13333333,0,0,-0.13333333,0,112.09333)" />
      <path
         id="path98"
         d="m 2854.07,495.234 c 0,-5.433 -4.41,-9.843 -9.86,-9.843 -5.43,0 -9.84,4.41 -9.84,9.843 0,5.446 4.41,9.86 9.84,9.86 5.45,0 9.86,-4.414 9.86,-9.86"
         style="fill:#231f20;fill-opacity:1;fill-rule:nonzero;stroke:none"
         transform="matrix(0.13333333,0,0,-0.13333333,0,112.09333)" />
      <path
         id="path99"
         d="m 2663.24,491.891 c 0,-5.446 -4.41,-9.848 -9.86,-9.848 -5.43,0 -9.84,4.402 -9.84,9.848 0,5.445 4.41,9.843 9.84,9.843 5.45,0 9.86,-4.398 9.86,-9.843"
         style="fill:#231f20;fill-opacity:1;fill-rule:nonzero;stroke:none"
         transform="matrix(0.13333333,0,0,-0.13333333,0,112.09333)" />
      <path
         id="path100"
         d="m 2605.79,430.699 c 0,-5.445 -4.41,-9.847 -9.85,-9.847 -5.45,0 -9.84,4.402 -9.84,9.847 0,5.438 4.39,9.844 9.84,9.844 5.44,0 9.85,-4.406 9.85,-9.844"
         style="fill:#231f20;fill-opacity:1;fill-rule:nonzero;stroke:none"
         transform="matrix(0.13333333,0,0,-0.13333333,0,112.09333)" />
      <path
         id="path101"
         d="m 3002.09,555.836 c 0,-5.445 -4.41,-9.856 -9.85,-9.856 -5.44,0 -9.85,4.411 -9.85,9.856 0,5.434 4.41,9.844 9.85,9.844 5.44,0 9.85,-4.41 9.85,-9.844"
         style="fill:#231f20;fill-opacity:1;fill-rule:nonzero;stroke:none"
         transform="matrix(0.13333333,0,0,-0.13333333,0,112.09333)" />
      <path
         id="path102"
         d="m 2875.27,622.961 c 0,-5.445 -4.42,-9.848 -9.85,-9.848 -5.44,0 -9.86,4.403 -9.86,9.848 0,5.441 4.42,9.848 9.86,9.848 5.43,0 9.85,-4.407 9.85,-9.848"
         style="fill:#231f20;fill-opacity:1;fill-rule:nonzero;stroke:none"
         transform="matrix(0.13333333,0,0,-0.13333333,0,112.09333)" />
      <path
         id="path103"
         d="m 3081.49,545.98 c 0,-5.433 -4.41,-9.847 -9.84,-9.847 -5.44,0 -9.86,4.414 -9.86,9.847 0,5.442 4.42,9.856 9.86,9.856 5.43,0 9.84,-4.414 9.84,-9.856"
         style="fill:#231f20;fill-opacity:1;fill-rule:nonzero;stroke:none"
         transform="matrix(0.13333333,0,0,-0.13333333,0,112.09333)" />
      <path
         id="path104"
         d="m 3120.89,613.113 c 0,-5.441 -4.41,-9.855 -9.85,-9.855 -5.43,0 -9.84,4.414 -9.84,9.855 0,5.438 4.41,9.848 9.84,9.848 5.44,0 9.85,-4.41 9.85,-9.848"
         style="fill:#231f20;fill-opacity:1;fill-rule:nonzero;stroke:none"
         transform="matrix(0.13333333,0,0,-0.13333333,0,112.09333)" />
      <path
         id="path105"
         d="m 2912.84,551.918 c 0,-5.434 -4.42,-9.844 -9.85,-9.844 -5.45,0 -9.86,4.41 -9.86,9.844 0,5.445 4.41,9.859 9.86,9.859 5.43,0 9.85,-4.414 9.85,-9.859"
         style="fill:#231f20;fill-opacity:1;fill-rule:nonzero;stroke:none"
         transform="matrix(0.13333333,0,0,-0.13333333,0,112.09333)" />
      <path
         id="path106"
         d="m 2968.89,613.113 c 0,-5.441 -4.4,-9.855 -9.84,-9.855 -5.45,0 -9.86,4.414 -9.86,9.855 0,5.438 4.41,9.848 9.86,9.848 5.44,0 9.84,-4.41 9.84,-9.848"
         style="fill:#231f20;fill-opacity:1;fill-rule:nonzero;stroke:none"
         transform="matrix(0.13333333,0,0,-0.13333333,0,112.09333)" />
      <path
         id="path107"
         d="m 2453.81,328.258 c 0,-5.438 -4.41,-9.856 -9.85,-9.856 -5.44,0 -9.85,4.418 -9.85,9.856 0,5.441 4.41,9.851 9.85,9.851 5.44,0 9.85,-4.41 9.85,-9.851"
         style="fill:#231f20;fill-opacity:1;fill-rule:nonzero;stroke:none"
         transform="matrix(0.13333333,0,0,-0.13333333,0,112.09333)" />
      <path
         id="path108"
         d="m 2545.33,371.539 c 0,-5.445 -4.41,-9.855 -9.85,-9.855 -5.45,0 -9.84,4.41 -9.84,9.855 0,5.434 4.39,9.848 9.84,9.848 5.44,0 9.85,-4.414 9.85,-9.848"
         style="fill:#231f20;fill-opacity:1;fill-rule:nonzero;stroke:none"
         transform="matrix(0.13333333,0,0,-0.13333333,0,112.09333)" />
      <path
         id="path109"
         d="m 2414.25,385.359 c 0,-5.433 -4.4,-9.847 -9.85,-9.847 -5.43,0 -9.84,4.414 -9.84,9.847 0,5.446 4.41,9.856 9.84,9.856 5.45,0 9.85,-4.41 9.85,-9.856"
         style="fill:#231f20;fill-opacity:1;fill-rule:nonzero;stroke:none"
         transform="matrix(0.13333333,0,0,-0.13333333,0,112.09333)" />
      <path
         id="path110"
         d="m 2389.79,270.574 c 0,-5.441 -4.41,-9.851 -9.85,-9.851 -5.44,0 -9.86,4.41 -9.86,9.851 0,5.438 4.42,9.848 9.86,9.848 5.44,0 9.85,-4.41 9.85,-9.848"
         style="fill:#231f20;fill-opacity:1;fill-rule:nonzero;stroke:none"
         transform="matrix(0.13333333,0,0,-0.13333333,0,112.09333)" />
      <path
         id="path111"
         d="m 2304.12,197.711 c 0,-5.445 -4.42,-9.856 -9.87,-9.856 -5.44,0 -9.84,4.411 -9.84,9.856 0,5.434 4.4,9.848 9.84,9.848 5.45,0 9.87,-4.414 9.87,-9.848"
         style="fill:#231f20;fill-opacity:1;fill-rule:nonzero;stroke:none"
         transform="matrix(0.13333333,0,0,-0.13333333,0,112.09333)" />
      <path
         id="path112"
         d="m 2339.73,338.109 c 0,-5.437 -4.4,-9.851 -9.84,-9.851 -5.45,0 -9.86,4.414 -9.86,9.851 0,5.438 4.41,9.852 9.86,9.852 5.44,0 9.84,-4.414 9.84,-9.852"
         style="fill:#231f20;fill-opacity:1;fill-rule:nonzero;stroke:none"
         transform="matrix(0.13333333,0,0,-0.13333333,0,112.09333)" />
      <path
         id="path113"
         d="m 2149.27,291.52 c 0,-5.446 -4.41,-9.848 -9.86,-9.848 -5.43,0 -9.85,4.402 -9.85,9.848 0,5.445 4.42,9.843 9.85,9.843 5.45,0 9.86,-4.398 9.86,-9.843"
         style="fill:#231f20;fill-opacity:1;fill-rule:nonzero;stroke:none"
         transform="matrix(0.13333333,0,0,-0.13333333,0,112.09333)" />
      <path
         id="path114"
         d="m 2092.37,211.215 c 0,-5.434 -4.42,-9.844 -9.86,-9.844 -5.43,0 -9.85,4.41 -9.85,9.844 0,5.445 4.42,9.859 9.85,9.859 5.44,0 9.86,-4.414 9.86,-9.859"
         style="fill:#231f20;fill-opacity:1;fill-rule:nonzero;stroke:none"
         transform="matrix(0.13333333,0,0,-0.13333333,0,112.09333)" />
      <path
         id="path115"
         d="m 2033.45,267.203 c 0,-5.433 -4.4,-9.844 -9.84,-9.844 -5.45,0 -9.86,4.411 -9.86,9.844 0,5.453 4.41,9.86 9.86,9.86 5.44,0 9.84,-4.407 9.84,-9.86"
         style="fill:#231f20;fill-opacity:1;fill-rule:nonzero;stroke:none"
         transform="matrix(0.13333333,0,0,-0.13333333,0,112.09333)" />
      <path
         id="path116"
         d="m 1909.54,194.531 c 0,-5.433 -4.42,-9.847 -9.85,-9.847 -5.45,0 -9.85,4.414 -9.85,9.847 0,5.442 4.4,9.856 9.85,9.856 5.43,0 9.85,-4.414 9.85,-9.856"
         style="fill:#231f20;fill-opacity:1;fill-rule:nonzero;stroke:none"
         transform="matrix(0.13333333,0,0,-0.13333333,0,112.09333)" />
      <path
         id="path117"
         d="m 2225.66,334.41 c 0,-5.433 -4.41,-9.84 -9.85,-9.84 -5.44,0 -9.86,4.407 -9.86,9.84 0,5.449 4.42,9.852 9.86,9.852 5.44,0 9.85,-4.403 9.85,-9.852"
         style="fill:#231f20;fill-opacity:1;fill-rule:nonzero;stroke:none"
         transform="matrix(0.13333333,0,0,-0.13333333,0,112.09333)" />
      <path
         id="path118"
         d="m 2284.41,371.539 c 0,-5.445 -4.41,-9.855 -9.85,-9.855 -5.44,0 -9.85,4.41 -9.85,9.855 0,5.434 4.41,9.848 9.85,9.848 5.44,0 9.85,-4.414 9.85,-9.848"
         style="fill:#231f20;fill-opacity:1;fill-rule:nonzero;stroke:none"
         transform="matrix(0.13333333,0,0,-0.13333333,0,112.09333)" />
      <path
         id="path119"
         d="m 2339.28,436.578 c 0,-5.433 -4.41,-9.848 -9.86,-9.848 -5.43,0 -9.84,4.415 -9.84,9.848 0,5.442 4.41,9.852 9.84,9.852 5.45,0 9.86,-4.41 9.86,-9.852"
         style="fill:#231f20;fill-opacity:1;fill-rule:nonzero;stroke:none"
         transform="matrix(0.13333333,0,0,-0.13333333,0,112.09333)" />
      <path
         id="path120"
         d="m 2448.92,487.973 c 0,-5.438 -4.41,-9.844 -9.85,-9.844 -5.44,0 -9.86,4.406 -9.86,9.844 0,5.445 4.42,9.847 9.86,9.847 5.44,0 9.85,-4.402 9.85,-9.847"
         style="fill:#231f20;fill-opacity:1;fill-rule:nonzero;stroke:none"
         transform="matrix(0.13333333,0,0,-0.13333333,0,112.09333)" />
      <path
         id="path121"
         d="m 2473.51,420.852 c 0,-5.446 -4.41,-9.856 -9.85,-9.856 -5.44,0 -9.85,4.41 -9.85,9.856 0,5.433 4.41,9.847 9.85,9.847 5.44,0 9.85,-4.414 9.85,-9.847"
         style="fill:#231f20;fill-opacity:1;fill-rule:nonzero;stroke:none"
         transform="matrix(0.13333333,0,0,-0.13333333,0,112.09333)" />
      <path
         id="path122"
         d="m 2551.08,473.141 c 0,-5.446 -4.41,-9.848 -9.85,-9.848 -5.44,0 -9.86,4.402 -9.86,9.848 0,5.445 4.42,9.847 9.86,9.847 5.44,0 9.85,-4.402 9.85,-9.847"
         style="fill:#231f20;fill-opacity:1;fill-rule:nonzero;stroke:none"
         transform="matrix(0.13333333,0,0,-0.13333333,0,112.09333)" />
      <path
         id="path123"
         d="m 2653.38,541.125 c 0,-5.445 -4.4,-9.859 -9.84,-9.859 -5.44,0 -9.84,4.414 -9.84,9.859 0,5.434 4.4,9.844 9.84,9.844 5.44,0 9.84,-4.41 9.84,-9.844"
         style="fill:#231f20;fill-opacity:1;fill-rule:nonzero;stroke:none"
         transform="matrix(0.13333333,0,0,-0.13333333,0,112.09333)" />
      <path
         id="path124"
         d="m 2773.45,632.809 c 0,-5.434 -4.4,-9.848 -9.85,-9.848 -5.44,0 -9.85,4.414 -9.85,9.848 0,5.449 4.41,9.851 9.85,9.851 5.45,0 9.85,-4.402 9.85,-9.851"
         style="fill:#231f20;fill-opacity:1;fill-rule:nonzero;stroke:none"
         transform="matrix(0.13333333,0,0,-0.13333333,0,112.09333)" />
      <path
         id="path125"
         d="m 2595.94,561.777 c 0,-5.445 -4.41,-9.859 -9.84,-9.859 -5.45,0 -9.86,4.414 -9.86,9.859 0,5.434 4.41,9.844 9.86,9.844 5.43,0 9.84,-4.41 9.84,-9.844"
         style="fill:#231f20;fill-opacity:1;fill-rule:nonzero;stroke:none"
         transform="matrix(0.13333333,0,0,-0.13333333,0,112.09333)" />
      <path
         id="path126"
         d="m 2707.57,588.367 c 0,-5.437 -4.41,-9.851 -9.85,-9.851 -5.44,0 -9.85,4.414 -9.85,9.851 0,5.438 4.41,9.852 9.85,9.852 5.44,0 9.85,-4.414 9.85,-9.852"
         style="fill:#231f20;fill-opacity:1;fill-rule:nonzero;stroke:none"
         transform="matrix(0.13333333,0,0,-0.13333333,0,112.09333)" />
      <path
         id="path127"
         d="m 2768.81,541.125 c 0,-5.445 -4.4,-9.859 -9.85,-9.859 -5.43,0 -9.84,4.414 -9.84,9.859 0,5.434 4.41,9.844 9.84,9.844 5.45,0 9.85,-4.41 9.85,-9.844"
         style="fill:#231f20;fill-opacity:1;fill-rule:nonzero;stroke:none"
         transform="matrix(0.13333333,0,0,-0.13333333,0,112.09333)" />
      <path
         id="path128"
         d="m 2816.22,588.367 c 0,-5.437 -4.42,-9.851 -9.85,-9.851 -5.45,0 -9.86,4.414 -9.86,9.851 0,5.438 4.41,9.852 9.86,9.852 5.43,0 9.85,-4.414 9.85,-9.852"
         style="fill:#231f20;fill-opacity:1;fill-rule:nonzero;stroke:none"
         transform="matrix(0.13333333,0,0,-0.13333333,0,112.09333)" />
      <path
         id="path129"
         d="m 2727.27,279.664 c 0,-5.445 -4.4,-9.859 -9.85,-9.859 -5.43,0 -9.85,4.414 -9.85,9.859 0,5.434 4.42,9.844 9.85,9.844 5.45,0 9.85,-4.41 9.85,-9.844"
         style="fill:#231f20;fill-opacity:1;fill-rule:nonzero;stroke:none"
         transform="matrix(0.13333333,0,0,-0.13333333,0,112.09333)" />
      <path
         id="path130"
         d="m 3026.66,666.695 c 0,-5.441 -4.42,-9.843 -9.86,-9.843 -5.44,0 -9.85,4.402 -9.85,9.843 0,5.446 4.41,9.848 9.85,9.848 5.44,0 9.86,-4.402 9.86,-9.848"
         style="fill:#231f20;fill-opacity:1;fill-rule:nonzero;stroke:none"
         transform="matrix(0.13333333,0,0,-0.13333333,0,112.09333)" />
      <path
         id="path131"
         d="m 2940.97,654.836 c 0,-5.445 -4.41,-9.852 -9.86,-9.852 -5.43,0 -9.85,4.407 -9.85,9.852 0,5.437 4.42,9.844 9.85,9.844 5.45,0 9.86,-4.407 9.86,-9.844"
         style="fill:#231f20;fill-opacity:1;fill-rule:nonzero;stroke:none"
         transform="matrix(0.13333333,0,0,-0.13333333,0,112.09333)" />
      <path
         id="path132"
         d="m 2215.81,184.684 c 0,-5.446 -4.42,-9.844 -9.86,-9.844 -5.43,0 -9.84,4.398 -9.84,9.844 0,5.445 4.41,9.847 9.84,9.847 5.44,0 9.86,-4.402 9.86,-9.847"
         style="fill:#231f20;fill-opacity:1;fill-rule:nonzero;stroke:none"
         transform="matrix(0.13333333,0,0,-0.13333333,0,112.09333)" />
      <path
         id="path133"
         d="m 3036.5,607.23 c 0,-5.437 -4.41,-9.843 -9.84,-9.843 -5.45,0 -9.86,4.406 -9.86,9.843 0,5.446 4.41,9.848 9.86,9.848 5.43,0 9.84,-4.402 9.84,-9.848"
         style="fill:#231f20;fill-opacity:1;fill-rule:nonzero;stroke:none"
         transform="matrix(0.13333333,0,0,-0.13333333,0,112.09333)" />
      <path
         id="path134"
         d="m 2978.75,710.746 c 0,-5.441 -4.42,-9.844 -9.86,-9.844 -5.43,0 -9.84,4.403 -9.84,9.844 0,5.445 4.41,9.852 9.84,9.852 5.44,0 9.86,-4.407 9.86,-9.852"
         style="fill:#231f20;fill-opacity:1;fill-rule:nonzero;stroke:none"
         transform="matrix(0.13333333,0,0,-0.13333333,0,112.09333)" />
      <path
         id="path135"
         d="m 3101.2,669.727 c 0,-5.442 -4.42,-9.852 -9.86,-9.852 -5.44,0 -9.85,4.41 -9.85,9.852 0,5.433 4.41,9.847 9.85,9.847 5.44,0 9.86,-4.414 9.86,-9.847"
         style="fill:#231f20;fill-opacity:1;fill-rule:nonzero;stroke:none"
         transform="matrix(0.13333333,0,0,-0.13333333,0,112.09333)" />
      <path
         id="path136"
         d="m 3150.92,722.742 c 0,-5.433 -4.41,-9.851 -9.84,-9.851 -5.44,0 -9.85,4.418 -9.85,9.851 0,5.438 4.41,9.856 9.85,9.856 5.43,0 9.84,-4.418 9.84,-9.856"
         style="fill:#231f20;fill-opacity:1;fill-rule:nonzero;stroke:none"
         transform="matrix(0.13333333,0,0,-0.13333333,0,112.09333)" />
      <path
         id="path137"
         d="m 3182.6,666.695 c 0,-5.441 -4.41,-9.843 -9.84,-9.843 -5.44,0 -9.85,4.402 -9.85,9.843 0,5.446 4.41,9.848 9.85,9.848 5.43,0 9.84,-4.402 9.84,-9.848"
         style="fill:#231f20;fill-opacity:1;fill-rule:nonzero;stroke:none"
         transform="matrix(0.13333333,0,0,-0.13333333,0,112.09333)" />
      <path
         id="path138"
         d="m 3228.75,722.742 c 0,-5.433 -4.42,-9.851 -9.86,-9.851 -5.44,0 -9.85,4.418 -9.85,9.851 0,5.438 4.41,9.856 9.85,9.856 5.44,0 9.86,-4.418 9.86,-9.856"
         style="fill:#231f20;fill-opacity:1;fill-rule:nonzero;stroke:none"
         transform="matrix(0.13333333,0,0,-0.13333333,0,112.09333)" />
      <path
         id="path139"
         d="m 2854.07,666.695 c 0,-5.441 -4.41,-9.843 -9.86,-9.843 -5.43,0 -9.84,4.402 -9.84,9.843 0,5.446 4.41,9.848 9.84,9.848 5.45,0 9.86,-4.402 9.86,-9.848"
         style="fill:#231f20;fill-opacity:1;fill-rule:nonzero;stroke:none"
         transform="matrix(0.13333333,0,0,-0.13333333,0,112.09333)" />
      <path
         id="path140"
         d="m 2902.99,720.598 c 0,-5.438 -4.41,-9.852 -9.86,-9.852 -5.43,0 -9.84,4.414 -9.84,9.852 0,5.437 4.41,9.851 9.84,9.851 5.45,0 9.86,-4.414 9.86,-9.851"
         style="fill:#231f20;fill-opacity:1;fill-rule:nonzero;stroke:none"
         transform="matrix(0.13333333,0,0,-0.13333333,0,112.09333)" />
      <path
         id="path141"
         d="m 2555.18,281.672 c 0,-5.442 -4.41,-9.856 -9.85,-9.856 -5.43,0 -9.85,4.414 -9.85,9.856 0,5.433 4.42,9.848 9.85,9.848 5.44,0 9.85,-4.415 9.85,-9.848"
         style="fill:#231f20;fill-opacity:1;fill-rule:nonzero;stroke:none"
         transform="matrix(0.13333333,0,0,-0.13333333,0,112.09333)" />
      <path
         id="path142"
         d="m 3205.63,778.875 c 0,-5.441 -4.41,-9.84 -9.85,-9.84 -5.44,0 -9.86,4.399 -9.86,9.84 0,5.445 4.42,9.852 9.86,9.852 5.44,0 9.85,-4.407 9.85,-9.852"
         style="fill:#231f20;fill-opacity:1;fill-rule:nonzero;stroke:none"
         transform="matrix(0.13333333,0,0,-0.13333333,0,112.09333)" />
      <path
         id="path143"
         d="m 3271.61,819.32 c 0,-5.433 -4.42,-9.847 -9.86,-9.847 -5.44,0 -9.84,4.414 -9.84,9.847 0,5.446 4.4,9.856 9.84,9.856 5.44,0 9.86,-4.41 9.86,-9.856"
         style="fill:#231f20;fill-opacity:1;fill-rule:nonzero;stroke:none"
         transform="matrix(0.13333333,0,0,-0.13333333,0,112.09333)" />
      <path
         id="path144"
         d="m 2865.42,388.98 c 0,-5.433 -4.41,-9.859 -9.86,-9.859 -5.44,0 -9.84,4.426 -9.84,9.859 0,5.434 4.4,9.852 9.84,9.852 5.45,0 9.86,-4.418 9.86,-9.852"
         style="fill:#231f20;fill-opacity:1;fill-rule:nonzero;stroke:none"
         transform="matrix(0.13333333,0,0,-0.13333333,0,112.09333)" />
      <path
         id="path145"
         d="m 2192.03,231.172 c 0,-5.434 -4.41,-9.844 -9.85,-9.844 -5.45,0 -9.85,4.41 -9.85,9.844 0,5.445 4.4,9.851 9.85,9.851 5.44,0 9.85,-4.406 9.85,-9.851"
         style="fill:#231f20;fill-opacity:1;fill-rule:nonzero;stroke:none"
         transform="matrix(0.13333333,0,0,-0.13333333,0,112.09333)" />
      <path
         id="path146"
         d="m 3261.75,774.004 c 0,-5.445 -4.4,-9.848 -9.84,-9.848 -5.45,0 -9.85,4.403 -9.85,9.848 0,5.445 4.4,9.844 9.85,9.844 5.44,0 9.84,-4.399 9.84,-9.844"
         style="fill:#231f20;fill-opacity:1;fill-rule:nonzero;stroke:none"
         transform="matrix(0.13333333,0,0,-0.13333333,0,112.09333)" />
      <path
         id="path147"
         d="m 1996.65,207.559 c 0,-5.446 -4.42,-9.848 -9.86,-9.848 -5.44,0 -9.85,4.402 -9.85,9.848 0,5.437 4.41,9.843 9.85,9.843 5.44,0 9.86,-4.406 9.86,-9.843"
         style="fill:#231f20;fill-opacity:1;fill-rule:nonzero;stroke:none"
         transform="matrix(0.13333333,0,0,-0.13333333,0,112.09333)" />
      <path
         id="path148"
         d="m 2535.48,204.387 c 0,-5.438 -4.41,-9.856 -9.84,-9.856 -5.45,0 -9.86,4.418 -9.86,9.856 0,5.433 4.41,9.851 9.86,9.851 5.43,0 9.84,-4.418 9.84,-9.851"
         style="fill:#231f20;fill-opacity:1;fill-rule:nonzero;stroke:none"
         transform="matrix(0.13333333,0,0,-0.13333333,0,112.09333)" />
      <path
         id="path149"
         d="m 2752.65,426.73 c 0,-5.445 -4.4,-9.843 -9.84,-9.843 -5.44,0 -9.85,4.398 -9.85,9.843 0,5.442 4.41,9.848 9.85,9.848 5.44,0 9.84,-4.406 9.84,-9.848"
         style="fill:#231f20;fill-opacity:1;fill-rule:nonzero;stroke:none"
         transform="matrix(0.13333333,0,0,-0.13333333,0,112.09333)" />
      <path
         id="path150"
         d="m 3073.05,769.035 c 0,-5.445 -4.4,-9.859 -9.84,-9.859 -5.45,0 -9.85,4.414 -9.85,9.859 0,5.434 4.4,9.84 9.85,9.84 5.44,0 9.84,-4.406 9.84,-9.84"
         style="fill:#231f20;fill-opacity:1;fill-rule:nonzero;stroke:none"
         transform="matrix(0.13333333,0,0,-0.13333333,0,112.09333)" />
      <path
         id="path151"
         d="m 3111.04,809.473 c 0,-5.438 -4.4,-9.844 -9.84,-9.844 -5.45,0 -9.86,4.406 -9.86,9.844 0,5.445 4.41,9.847 9.86,9.847 5.44,0 9.84,-4.402 9.84,-9.847"
         style="fill:#231f20;fill-opacity:1;fill-rule:nonzero;stroke:none"
         transform="matrix(0.13333333,0,0,-0.13333333,0,112.09333)" />
      <path
         id="path152"
         d="m 3002.09,764.156 c 0,-5.445 -4.41,-9.855 -9.85,-9.855 -5.44,0 -9.85,4.41 -9.85,9.855 0,5.434 4.41,9.848 9.85,9.848 5.44,0 9.85,-4.414 9.85,-9.848"
         style="fill:#231f20;fill-opacity:1;fill-rule:nonzero;stroke:none"
         transform="matrix(0.13333333,0,0,-0.13333333,0,112.09333)" />
    </g>
  </g>
</svg>
