<?xml version="1.0" encoding="UTF-8" standalone="no"?>
<!-- Created with Inkscape (http://www.inkscape.org/) -->

<svg
   version="1.1"
   id="svg1"
   width="280.05334"
   height="235.17332"
   viewBox="0 0 280.05334 235.17332"
   sodipodi:docname="pha06f28.eps"
   xmlns:inkscape="http://www.inkscape.org/namespaces/inkscape"
   xmlns:sodipodi="http://sodipodi.sourceforge.net/DTD/sodipodi-0.dtd"
   xmlns="http://www.w3.org/2000/svg"
   xmlns:svg="http://www.w3.org/2000/svg">
  <defs
     id="defs1" />
  <sodipodi:namedview
     id="namedview1"
     pagecolor="#ffffff"
     bordercolor="#000000"
     borderopacity="0.25"
     inkscape:showpageshadow="2"
     inkscape:pageopacity="0.0"
     inkscape:pagecheckerboard="0"
     inkscape:deskcolor="#d1d1d1">
    <inkscape:page
       x="0"
       y="0"
       inkscape:label="1"
       id="page1"
       width="280.05334"
       height="235.17332"
       margin="0"
       bleed="0" />
  </sodipodi:namedview>
  <g
     id="g1"
     inkscape:groupmode="layer"
     inkscape:label="1">
    <g
       id="group-R5">
      <path
         id="path2"
         d="M 1697.3,1715.97 H 798.391 l 16.535,-2.19 22.461,-2.94 5.129,-0.68 6.687,-0.87 36.906,-4.85 11.559,-1.53 15.031,-1.97 12.535,-1.65 9.625,-1.26 17.938,-2.38 23.402,-3.08 7.387,-0.97 24.374,-3.19 24.36,-3.22 7.38,-0.97 23.41,-3.06 17.93,-2.38 22.16,-2.9 15.04,-2 11.55,-1.51 36.91,-4.87 6.69,-0.87 5.13,-0.66 22.46,-2.97 16.54,-2.19 9.75,-1.28 1.28,-0.16 1.66,-0.21 45.78,-6.03 7.71,-1 10,-1.35 31.03,-4.07 14.1,-1.86 18.41,-2.41 16.21,-2.13 20.53,-2.71 26.75,-3.51 1.48,-0.21 26.93,-3.54 21.82,-2.87 13.28,-1.76 20.06,-2.62 15.37,-2.03 28.06,-3.69 11.68,-1.53 9.01,-1.19 42.82,-5.62 3.34,-0.46 2.56,-0.32 19.5,-2.56 5.5,-0.74 23.76,-3.14 3.83,-0.5 5,-0.66 39.88,-5.24 10.25,-1.34 v 11.62 55.12 27.6 27.56 h -27.56"
         style="fill:#23245c;fill-opacity:1;fill-rule:nonzero;stroke:none"
         transform="matrix(0.13333333,0,0,-0.13333333,0,235.17333)" />
      <path
         id="path3"
         d="m 1714.61,1595.41 -39.88,5.24 -5,0.66 -3.83,0.5 -23.76,3.14 -5.5,0.74 -19.5,2.56 -2.56,0.32 -3.34,0.46 -42.82,5.62 -9.01,1.19 -11.68,1.53 -28.06,3.69 -15.37,2.03 -20.06,2.62 -13.28,1.76 -21.82,2.87 -26.93,3.54 -1.48,0.21 -26.75,3.51 -20.53,2.71 -16.21,2.13 -18.41,2.41 -14.1,1.86 -31.03,4.07 -10,1.35 -7.71,1 -45.78,6.03 -1.66,0.21 -1.28,0.16 -9.75,1.28 -16.54,2.19 -22.46,2.97 -5.13,0.66 -6.69,0.87 -36.91,4.87 -11.55,1.51 -15.04,2 -22.16,2.9 -17.93,2.38 -23.41,3.06 -7.38,0.97 -24.36,3.22 -24.374,3.19 -7.387,0.97 -23.402,3.08 -17.938,2.38 -9.625,1.26 -12.535,1.65 -15.031,1.97 -11.559,1.53 -36.906,4.85 -6.687,0.87 -5.129,0.68 -22.461,2.94 -16.535,2.19 H 787.355 732.203 621.926 511.609 401.324 291.012 235.891 208.301 180.73 v -27.56 -27.6 -55.12 -11.62 l 13.379,-1.76 25.094,-3.31 16.688,-2.19 21.722,-2.87 5.84,-0.75 4.508,-0.59 23.051,-3.03 11.027,-1.48 14.633,-1.9 4.437,-0.59 25.063,-3.31 19.25,-2.54 19.191,-2.5 16.711,-2.22 12.817,-1.69 33.968,-4.46 8.375,-1.1 6.407,-0.84 48.718,-6.41 48.746,-6.4 6.415,-0.85 8.335,-1.12 33.965,-4.48 12.856,-1.68 16.719,-2.19 19.183,-2.52 19.246,-2.54 25.067,-3.28 4.441,-0.59 25.621,-3.38 23.102,-3.03 10.34,-1.38 21.71,-2.84 16.688,-2.19 25.098,-3.31 13.375,-1.75 10.25,-1.37 39.879,-5.22 5.023,-0.7 3.848,-0.49 29.214,-3.84 19.504,-2.56 2.563,-0.35 3.348,-0.44 42.839,-5.62 8.976,-1.19 11.69,-1.54 28.05,-3.68 15.41,-2.03 20.02,-2.66 13.32,-1.74 21.79,-2.86 26.94,-3.55 1.49,-0.2 26.72,-3.52 20.54,-2.69 16.25,-2.12 18.37,-2.44 14.1,-1.85 31.02,-4.08 10.03,-1.32 7.69,-1 45.79,-6.03 1.65,-0.23 1.28,-0.18 9.75,-1.28 39.01,-5.13 5.11,-0.65 6.68,-0.87 36.92,-4.89 11.56,-1.52 15.04,-1.97 22.15,-2.9 17.97,-2.38 23.37,-3.07 7.41,-0.96 24.33,-3.23 24.39,-3.21 7.37,-0.97 23.41,-3.06 17.97,-2.38 22.12,-2.9 15.06,-1.97 11.54,-1.53 36.93,-4.85 6.66,-0.9 v 49.34 55.16 55.15 27.56 15.98 l -10.25,1.34"
         style="fill:#28397a;fill-opacity:1;fill-rule:nonzero;stroke:none"
         transform="matrix(0.13333333,0,0,-0.13333333,0,235.17333)" />
      <path
         id="path4"
         d="m 1718.2,1391.78 -36.93,4.85 -11.54,1.53 -15.06,1.97 -22.12,2.9 -17.97,2.38 -23.41,3.06 -7.37,0.97 -24.39,3.21 -24.33,3.23 -7.41,0.96 -23.37,3.07 -17.97,2.38 -22.15,2.9 -15.04,1.97 -11.56,1.52 -36.92,4.89 -6.68,0.87 -5.11,0.65 -39.01,5.13 -9.75,1.28 -1.28,0.18 -1.65,0.23 -45.79,6.03 -7.69,1 -10.03,1.32 -31.02,4.08 -14.1,1.85 -18.37,2.44 -16.25,2.12 -20.54,2.69 -26.72,3.52 -1.49,0.2 -26.94,3.55 -21.79,2.86 -13.32,1.74 -20.02,2.66 -15.41,2.03 -28.05,3.68 -11.69,1.54 -8.976,1.19 -42.839,5.62 -3.348,0.44 -2.563,0.35 -19.504,2.56 -29.214,3.84 -3.848,0.49 -5.023,0.7 -39.879,5.22 -10.25,1.37 -13.375,1.75 -25.098,3.31 -16.688,2.19 -21.71,2.84 -10.34,1.38 -23.102,3.03 -25.621,3.38 -4.441,0.59 -25.067,3.28 -19.246,2.54 -19.183,2.52 -16.719,2.19 -12.856,1.68 -33.965,4.48 -8.335,1.12 -6.415,0.85 -48.746,6.4 -48.718,6.41 -6.407,0.84 -8.375,1.1 -33.968,4.46 -12.817,1.69 -16.711,2.22 -19.191,2.5 -19.25,2.54 -25.063,3.31 -4.437,0.59 -14.633,1.9 -11.027,1.48 -23.051,3.03 -4.508,0.59 -5.84,0.75 -21.722,2.87 -16.688,2.19 -25.094,3.31 -13.379,1.76 v -15.98 -27.56 -55.15 -55.16 -27.57 -21.77 l 5.129,-0.66 22.442,-2.97 16.558,-2.16 9.754,-1.28 1.278,-0.18 1.66,-0.22 45.773,-6.04 7.688,-1 10.035,-1.31 31.027,-4.1 14.098,-1.83 18.379,-2.45 16.246,-2.11 20.527,-2.69 26.75,-3.54 1.477,-0.18 26.933,-3.56 21.786,-2.85 13.312,-1.75 20.027,-2.66 15.403,-2.03 28.062,-3.68 11.696,-1.54 8.96,-1.18 42.856,-5.63 3.34,-0.44 2.554,-0.34 19.508,-2.55 5.492,-0.73 23.723,-3.12 3.871,-0.5 5,-0.65 39.883,-5.27 10.246,-1.37 13.379,-1.74 25.117,-3.32 16.656,-2.19 21.715,-2.83 10.356,-1.39 23.09,-3.03 25.66,-3.37 4.406,-0.59 25.086,-3.28 19.223,-2.54 19.183,-2.53 16.723,-2.19 12.848,-1.68 33.964,-4.47 8.351,-1.13 6.4,-0.84 48.75,-6.41 27.55,-3.63 21.18,-2.78 6.4,-0.84 8.37,-1.09 33.98,-4.46 12.8,-1.69 16.72,-2.23 19.19,-2.49 19.25,-2.54 25.06,-3.32 4.44,-0.58 14.62,-1.91 11.03,-1.47 23.06,-3.03 10.35,-1.35 21.72,-2.87 16.69,-2.19 25.1,-3.31 13.36,-1.75 10.26,-1.34 39.86,-5.26 5.04,-0.65 3.84,-0.5 29.26,-3.87 19.46,-2.57 2.6,-0.31 3.35,-0.44 42.8,-5.66 8.96,-1.18 11.73,-1.53 28.07,-3.69 15.37,-2.03 20.07,-2.62 13.28,-1.76 21.8,-2.88 26.94,-3.52 1.46,-0.22 26.73,-3.5 v 31.91 55.15 110.31 5.79 l -6.66,0.9"
         style="fill:#2c5e8b;fill-opacity:1;fill-rule:nonzero;stroke:none"
         transform="matrix(0.13333333,0,0,-0.13333333,0,235.17333)" />
      <path
         id="path5"
         d="m 1698.13,1191.22 -1.46,0.22 -26.94,3.52 -21.8,2.88 -13.28,1.76 -20.07,2.62 -15.37,2.03 -28.07,3.69 -11.73,1.53 -8.96,1.18 -42.8,5.66 -3.35,0.44 -2.6,0.31 -19.46,2.57 -29.26,3.87 -3.84,0.5 -5.04,0.65 -39.86,5.26 -10.26,1.34 -13.36,1.75 -25.1,3.31 -16.69,2.19 -21.72,2.87 -10.35,1.35 -23.06,3.03 -11.03,1.47 -14.62,1.91 -4.44,0.58 -25.06,3.32 -19.25,2.54 -19.19,2.49 -16.72,2.23 -12.8,1.69 -33.98,4.46 -8.37,1.09 -6.4,0.84 -21.18,2.78 -27.55,3.63 -48.75,6.41 -6.4,0.84 -8.351,1.13 -33.964,4.47 -12.848,1.68 -16.723,2.19 -19.183,2.53 -19.223,2.54 -25.086,3.28 -4.406,0.59 -25.66,3.37 -23.09,3.03 -10.356,1.39 -21.715,2.83 -16.656,2.19 -25.117,3.32 -13.379,1.74 -10.246,1.37 -39.883,5.27 -5,0.65 -3.871,0.5 -23.723,3.12 -5.492,0.73 -19.508,2.55 -2.554,0.34 -3.34,0.44 -42.856,5.63 -8.96,1.18 -11.696,1.54 -28.062,3.68 -15.403,2.03 -20.027,2.66 -13.312,1.75 -21.786,2.85 -26.933,3.56 -1.477,0.18 -26.75,3.54 -20.527,2.69 -16.246,2.11 -18.379,2.45 -14.098,1.83 -31.027,4.1 -10.035,1.31 -7.688,1 -45.773,6.04 -1.66,0.22 -1.278,0.18 -9.754,1.28 -16.558,2.16 -22.442,2.97 -5.129,0.66 v -5.79 -55.14 -55.17 -55.15 -27.57 -4.34 l 20.54,-2.72 16.214,-2.12 18.407,-2.41 14.097,-1.87 31.024,-4.07 10,-1.34 7.722,-1 45.782,-6.04 1.656,-0.21 1.277,-0.16 9.754,-1.28 38.996,-5.13 5.125,-0.69 6.688,-0.86 36.914,-4.88 11.558,-1.5 15.032,-2 22.152,-2.91 17.941,-2.34 23.403,-3.09 7.375,-0.97 24.383,-3.22 24.375,-3.2 7.371,-0.96 23.41,-3.1 17.933,-2.34 22.153,-2.94 15.062,-1.97 11.539,-1.52 36.907,-4.85 6.683,-0.87 5.121,-0.69 22.473,-2.94 16.527,-2.19 9.75,-1.28 1.281,-0.15 1.688,-0.23 45.785,-6.03 7.688,-1.02 10.035,-1.32 31,-4.05 14.117,-1.89 18.379,-2.41 16.254,-2.15 20.496,-2.68 26.754,-3.53 1.461,-0.2 26.948,-3.52 21.81,-2.88 13.28,-1.75 20.06,-2.62 15.37,-2.03 28.07,-3.69 11.69,-1.57 9,-1.15 42.8,-5.66 3.35,-0.44 2.57,-0.34 19.49,-2.56 5.53,-0.72 23.72,-3.13 3.85,-0.49 5,-0.66 39.87,-5.25 10.28,-1.34 13.34,-1.79 25.14,-3.28 16.65,-2.19 21.76,-2.87 10.31,-1.34 23.08,-3.07 11.03,-1.43 14.64,-1.95 4.42,-0.55 25.07,-3.32 19.22,-2.53 19.22,-2.53 16.72,-2.18 12.81,-1.69 33.96,-4.48 8.34,-1.09 6.42,-0.84 48.75,-6.404 27.56,-3.66 21.18,-2.777 6.41,-0.852 8.35,-1.089 33.96,-4.465 12.82,-1.692 v 14.535 55.124 110.31 23.22 l -26.73,3.5"
         style="fill:#35868d;fill-opacity:1;fill-rule:nonzero;stroke:none"
         transform="matrix(0.13333333,0,0,-0.13333333,0,235.17333)" />
      <path
         id="path6"
         d="m 1712.04,986.223 -33.96,4.465 -8.35,1.089 -6.41,0.852 -21.18,2.777 -27.56,3.66 -48.75,6.404 -6.42,0.84 -8.34,1.09 -33.96,4.48 -12.81,1.69 -16.72,2.18 -19.22,2.53 -19.22,2.53 -25.07,3.32 -4.42,0.55 -14.64,1.95 -11.03,1.43 -23.08,3.07 -10.31,1.34 -21.76,2.87 -16.65,2.19 -25.14,3.28 -13.34,1.79 -10.28,1.34 -39.87,5.25 -5,0.66 -3.85,0.49 -23.72,3.13 -5.53,0.72 -19.49,2.56 -2.57,0.34 -3.35,0.44 -42.8,5.66 -9,1.15 -11.69,1.57 -28.07,3.69 -15.37,2.03 -20.06,2.62 -13.28,1.75 -21.81,2.88 -26.948,3.52 -1.461,0.2 -26.754,3.53 -20.496,2.68 -16.254,2.15 -18.379,2.41 -14.117,1.89 -31,4.05 -10.035,1.32 -7.688,1.02 -45.785,6.03 -1.688,0.23 -1.281,0.15 -9.75,1.28 -16.527,2.19 -22.473,2.94 -5.121,0.69 -6.683,0.87 -36.907,4.85 -11.539,1.52 -15.062,1.97 -22.153,2.94 -17.933,2.34 -23.41,3.1 -7.371,0.96 -24.375,3.2 -24.383,3.22 -7.375,0.97 -23.403,3.09 -17.941,2.34 -22.152,2.91 -15.032,2 -11.558,1.5 -36.914,4.88 -6.688,0.86 -5.125,0.69 -38.996,5.13 -9.754,1.28 -1.277,0.16 -1.656,0.21 -45.782,6.04 -7.722,1 -10,1.34 -31.024,4.07 -14.097,1.87 -18.407,2.41 -16.214,2.12 -20.54,2.72 v -23.22 -110.31 -55.124 -14.535 l 16.719,-2.191 19.196,-2.527 19.246,-2.524 25.066,-3.316 4.43,-0.567 25.625,-3.379 23.097,-3.035 10.344,-1.363 21.719,-2.848 16.687,-2.211 25.102,-3.281 13.363,-1.789 10.258,-1.344 39.871,-5.25 5.031,-0.652 3.836,-0.504 29.231,-3.844 19.492,-2.566 2.566,-0.34 3.348,-0.43 42.84,-5.625 8.973,-1.191 11.683,-1.563 28.063,-3.691 15.41,-2 20.062,-2.656 13.282,-1.75 21.804,-2.871 26.914,-3.535 1.496,-0.188 26.719,-3.523 20.527,-2.7 16.25,-2.156 18.375,-2.41 14.098,-1.836 31.031,-4.102 10.032,-1.308 7.687,-1.035 45.781,-5.996 1.684,-0.215 1.285,-0.196 9.715,-1.269 39,-5.117 5.129,-0.696 6.683,-0.886 36.946,-4.825 11.534,-1.542 15.02,-1.973 22.16,-2.895 17.97,-2.379 23.37,-3.105 7.42,-0.957 24.34,-3.184 24.38,-3.222 7.37,-0.981 23.4,-3.047 17.97,-2.379 22.16,-2.914 15.03,-2 11.53,-1.496 36.93,-4.871 6.69,-0.887 5.13,-0.644 22.44,-2.973 16.52,-2.183 9.76,-1.289 1.28,-0.149 1.69,-0.222 45.78,-6.028 7.68,-1.008 10.03,-1.336 31,-4.062 14.13,-1.848 18.38,-2.437 16.24,-2.129 20.54,-2.715 26.72,-3.496 1.46,-0.195 26.93,-3.555 21.83,-2.871 13.28,-1.758 20.06,-2.617 15.41,-2.031 28.02,-3.696 11.72,-1.519 8.97,-1.203 42.85,-5.614 3.31,-0.453 v 52.231 55.156 55.152 40.625 l -12.82,1.692"
         style="fill:#3ea583;fill-opacity:1;fill-rule:nonzero;stroke:none"
         transform="matrix(0.13333333,0,0,-0.13333333,0,235.17333)" />
      <path
         id="path7"
         d="m 1721.55,781.82 -42.85,5.614 -8.97,1.203 -11.72,1.519 -28.02,3.696 -15.41,2.031 -20.06,2.617 -13.28,1.758 -21.83,2.871 -26.93,3.555 -1.46,0.195 -26.72,3.496 -20.54,2.715 -16.24,2.129 -18.38,2.437 -14.13,1.848 -31,4.062 -10.03,1.336 -7.68,1.008 -45.78,6.028 -1.69,0.222 -1.28,0.149 -9.76,1.289 -16.52,2.183 -22.44,2.973 -5.13,0.644 -6.69,0.887 -36.93,4.871 -11.53,1.496 -15.03,2 -22.16,2.914 -17.97,2.379 -23.4,3.047 -7.37,0.981 -24.38,3.222 -24.34,3.184 -7.42,0.957 -23.37,3.105 -17.97,2.379 -22.16,2.895 -15.02,1.973 -11.534,1.542 -36.946,4.825 -6.683,0.886 -5.129,0.696 -39,5.117 -9.715,1.269 -1.285,0.196 -1.684,0.215 -45.781,5.996 -7.687,1.035 -10.032,1.308 -31.031,4.102 -14.098,1.836 -18.375,2.41 -16.25,2.156 -20.527,2.7 -26.719,3.523 -1.496,0.188 -26.914,3.535 -21.804,2.871 -13.282,1.75 -20.062,2.656 -15.41,2 -28.063,3.691 -11.683,1.563 -8.973,1.191 -42.84,5.625 -3.348,0.43 -2.566,0.34 -19.492,2.566 -29.231,3.844 -3.836,0.504 -5.031,0.652 -39.871,5.25 -10.258,1.344 -13.363,1.789 -25.102,3.281 -16.687,2.211 -21.719,2.848 -10.344,1.363 -23.097,3.035 -25.625,3.379 -4.43,0.567 -25.066,3.316 -19.246,2.524 -19.196,2.527 -16.719,2.191 V 971.469 943.906 833.598 781.367 l 2.571,-0.34 19.496,-2.566 29.242,-3.828 3.852,-0.547 5,-0.645 39.875,-5.253 10.246,-1.34 13.375,-1.758 25.129,-3.309 16.656,-2.191 21.719,-2.871 10.339,-1.348 23.094,-3.019 25.656,-3.383 4.407,-0.598 25.097,-3.312 19.215,-2.52 19.227,-2.519 16.683,-2.211 12.844,-1.688 33.969,-4.473 8.348,-1.078 6.406,-0.859 48.75,-6.41 27.554,-3.61 21.165,-2.769 6.429,-0.863 8.348,-1.098 33.965,-4.492 12.816,-1.699 16.723,-2.168 19.183,-2.543 19.246,-2.52 25.067,-3.289 4.437,-0.59 14.625,-1.922 11.032,-1.457 23.097,-3.031 10.317,-1.371 21.738,-2.848 16.656,-2.179 25.102,-3.313 13.371,-1.758 10.277,-1.383 39.886,-5.207 5,-0.691 3.84,-0.512 29.24,-3.816 19.51,-2.57 2.56,-0.34 3.34,-0.442 42.82,-5.629 8.97,-1.203 11.72,-1.519 28.05,-3.688 15.38,-2.043 20.06,-2.648 13.28,-1.75 21.82,-2.84 26.93,-3.559 1.47,-0.191 26.75,-3.531 20.51,-2.68 16.24,-2.129 18.38,-2.441 14.13,-1.848 31,-4.09 10.02,-1.312 7.69,-1.008 45.78,-6.02 1.69,-0.23 1.28,-0.18 9.76,-1.293 38.96,-5.117 5.16,-0.641 6.66,-0.89 36.93,-4.871 11.52,-1.528 15.07,-1.972 22.13,-2.91 17.97,-2.379 23.41,-3.051 7.36,-0.981 24.38,-3.218 24.37,-3.2 7.38,-0.98 23.38,-3.059 v 34.797 55.184 55.129 55.16 2.906 l -3.31,0.453"
         style="fill:#4bbc75;fill-opacity:1;fill-rule:nonzero;stroke:none"
         transform="matrix(0.13333333,0,0,-0.13333333,0,235.17333)" />
      <path
         id="path8"
         d="m 1701.48,581.25 -7.38,0.98 -24.37,3.2 -24.38,3.218 -7.36,0.981 -23.41,3.051 -17.97,2.379 -22.13,2.91 -15.07,1.972 -11.52,1.528 -36.93,4.871 -6.66,0.89 -5.16,0.641 -38.96,5.117 -9.76,1.293 -1.28,0.18 -1.69,0.23 -45.78,6.02 -7.69,1.008 -10.02,1.312 -31,4.09 -14.13,1.848 -18.38,2.441 -16.24,2.129 -20.51,2.68 -26.75,3.531 -1.47,0.191 -26.93,3.559 -21.82,2.84 -13.28,1.75 -20.06,2.648 -15.38,2.043 -28.05,3.688 -11.72,1.519 -8.97,1.203 -42.82,5.629 -3.34,0.442 -2.56,0.34 -19.51,2.57 -29.24,3.816 -3.84,0.512 -5,0.691 -39.886,5.207 -10.277,1.383 -13.371,1.758 -25.102,3.313 -16.656,2.179 -21.738,2.848 -10.317,1.371 -23.097,3.031 -11.032,1.457 -14.625,1.922 -4.437,0.59 -25.067,3.289 -19.246,2.52 -19.183,2.543 -16.723,2.168 -12.816,1.699 -33.965,4.492 -8.348,1.098 -6.429,0.863 -21.165,2.769 -27.554,3.61 -48.75,6.41 -6.406,0.859 -8.348,1.078 -33.969,4.473 -12.844,1.688 -16.683,2.211 -19.227,2.519 -19.215,2.52 -25.097,3.312 -4.407,0.598 -25.656,3.383 -23.094,3.019 -10.339,1.348 -21.719,2.871 -16.656,2.191 -25.129,3.309 -13.375,1.758 -10.246,1.34 -39.875,5.253 -5,0.645 -3.852,0.547 -29.242,3.828 -19.496,2.566 -2.571,0.34 v -2.906 -55.16 -110.313 -34.797 l 17.969,-2.371 22.129,-2.91 15.063,-1.969 11.531,-1.543 36.933,-4.828 6.657,-0.922 5.16,-0.66 22.441,-2.968 16.528,-2.149 9.754,-1.269 1.277,-0.192 1.687,-0.219 45.786,-6.031 7.679,-1 10.031,-1.308 31,-4.102 14.129,-1.828 18.375,-2.461 16.25,-2.109 20.5,-2.704 26.746,-3.527 1.473,-0.18 26.942,-3.57 21.816,-2.84 13.273,-1.75 20.067,-2.66 15.375,-2.031 28.054,-3.692 11.719,-1.527 8.973,-1.191 42.808,-5.621 3.348,-0.43 2.563,-0.34 19.504,-2.57 5.527,-0.731 23.719,-3.109 3.839,-0.508 5,-0.652 39.879,-5.258 10.282,-1.359 13.375,-1.762 25.089,-3.309 16.688,-2.179 21.719,-2.852 10.343,-1.371 23.067,-3.027 11.031,-1.442 14.625,-1.941 4.438,-0.59 25.069,-3.289 19.25,-2.52 19.18,-2.539 16.72,-2.191 12.82,-1.692 33.96,-4.457 8.35,-1.121 6.43,-0.851 48.72,-6.41 48.76,-6.411 6.4,-0.839 8.34,-1.09 33.97,-4.469 12.84,-1.691 16.69,-2.219 19.22,-2.5 19.22,-2.52 25.1,-3.32 4.39,-0.578 25.66,-3.383 23.09,-3.027 10.35,-1.352 21.72,-2.871 16.65,-2.207 25.14,-3.301 13.37,-1.75 10.25,-1.351 39.86,-5.25 5,-0.649 3.86,-0.492 29.25,-3.891 19.49,-2.546 2.57,-0.321 3.35,-0.449 42.8,-5.641 9,-1.191 11.69,-1.539 28.06,-3.68 15.38,-2.031 v 17.398 55.161 55.16 55.152 20.32 l -23.38,3.059"
         style="fill:#67c765;fill-opacity:1;fill-rule:nonzero;stroke:none"
         transform="matrix(0.13333333,0,0,-0.13333333,0,235.17333)" />
      <path
         id="path9"
         d="m 1709.48,377.031 -28.06,3.68 -11.69,1.539 -9,1.191 -42.8,5.641 -3.35,0.449 -2.57,0.321 -19.49,2.546 -29.25,3.891 -3.86,0.492 -5,0.649 -39.86,5.25 -10.25,1.351 -13.37,1.75 -25.14,3.301 -16.65,2.207 -21.72,2.871 -10.35,1.352 -23.09,3.027 -25.66,3.383 -4.39,0.578 -25.1,3.32 -19.22,2.52 -19.22,2.5 -16.69,2.219 -12.84,1.691 -33.97,4.469 -8.34,1.09 -6.4,0.839 -48.76,6.411 -48.72,6.41 -6.43,0.851 -8.35,1.121 -33.96,4.457 -12.82,1.692 -16.72,2.191 -19.18,2.539 -19.25,2.52 -25.069,3.289 -4.438,0.59 -14.625,1.941 -11.031,1.442 -23.067,3.027 -10.343,1.371 -21.719,2.852 -16.688,2.179 -25.089,3.309 -13.375,1.762 -10.282,1.359 -39.879,5.258 -5,0.652 -3.839,0.508 -23.719,3.109 -5.527,0.731 -19.504,2.57 -2.563,0.34 -3.348,0.43 -42.808,5.621 -8.973,1.191 -11.719,1.527 -28.054,3.692 -15.375,2.031 -20.067,2.66 -13.273,1.75 -21.816,2.84 -26.942,3.57 -1.473,0.18 -26.746,3.527 -20.5,2.704 -16.25,2.109 -18.375,2.461 -14.129,1.828 -31,4.102 -10.031,1.308 -7.679,1 -45.786,6.031 -1.687,0.219 -1.277,0.192 -9.754,1.269 -16.528,2.149 -22.441,2.968 -5.16,0.66 -6.657,0.922 -36.933,4.828 -11.531,1.543 -15.063,1.969 -22.129,2.91 -17.969,2.371 V 557.871 502.719 392.398 375 l 20.067,-2.629 13.281,-1.742 21.813,-2.879 26.937,-3.531 1.473,-0.219 26.711,-3.488 20.535,-2.731 16.25,-2.133 18.375,-2.398 14.133,-1.879 30.996,-4.062 10.023,-1.329 7.692,-1.019 45.781,-6.012 1.687,-0.238 1.282,-0.141 9.75,-1.281 38.968,-5.129 5.125,-0.691 6.692,-0.867 36.933,-4.891 11.536,-1.492 15.027,-1.989 22.156,-2.921 17.973,-2.348 23.394,-3.082 7.379,-0.969 24.375,-3.219 24.348,-3.179 7.406,-0.981 23.375,-3.101 17.969,-2.34 22.152,-2.93 15.031,-1.961 11.536,-1.551 36.937,-4.839 6.688,-0.868 5.129,-0.691 22.429,-2.941 16.571,-2.188 9.71,-1.281 1.313,-0.149 1.656,-0.222 45.781,-6.028 7.692,-1.043 10.031,-1.308 31.027,-4.059 14.105,-1.883 18.37,-2.398 16.25,-2.148 20.53,-2.692 26.72,-3.539 1.5,-0.172 26.91,-3.551 21.8,-2.878 13.28,-1.739 20.07,-2.633 15.4,-2.027 28.08,-3.691 11.68,-1.559 8.97,-1.141 42.83,-5.671 3.35,-0.43 2.57,-0.348 19.49,-2.57 5.51,-0.711 23.71,-3.121 3.85,-0.5 5.04,-0.66 39.86,-5.25 10.25,-1.348 13.37,-1.769 25.1,-3.293 16.69,-2.18 21.72,-2.867 10.35,-1.352 23.09,-3.07 11.02,-1.442 14.6,-1.937 4.44,-0.539 25.05,-3.32 19.26,-2.543 8.34,-1.09 10.85,-1.43 5.19,-0.668 11.53,-1.531 12.8,-1.692 2.23,-0.269 12.53,-1.66 9.62,-1.289 4.2,-0.52 5.4,-0.711 2.6,-0.347 5.77,-0.77 6.41,-0.832 1.1,-0.16 6.28,-0.801 4.8,-0.668 4.79,-0.621 4.19,-0.531 3.22,-0.449 8.46,-1.11 2.09,-0.262 13.79,-1.796 v 27.546 27.563 27.609 27.551 55.168 V 375 l -15.38,2.031"
         style="fill:#89d155;fill-opacity:1;fill-rule:nonzero;stroke:none"
         transform="matrix(0.13333333,0,0,-0.13333333,0,235.17333)" />
      <path
         id="path10"
         d="m 1711.07,173.648 -2.09,0.262 -8.46,1.11 -3.22,0.449 -4.19,0.531 -4.79,0.621 -4.8,0.668 -6.28,0.801 -1.1,0.16 -6.41,0.832 -5.77,0.77 -2.6,0.347 -5.4,0.711 -4.2,0.52 -9.62,1.289 -12.53,1.66 -2.23,0.269 -12.8,1.692 -11.53,1.531 -5.19,0.668 -10.85,1.43 -8.34,1.09 -19.26,2.543 -25.05,3.32 -4.44,0.539 -14.6,1.937 -11.02,1.442 -23.09,3.07 -10.35,1.352 -21.72,2.867 -16.69,2.18 -25.1,3.293 -13.37,1.769 -10.25,1.348 -39.86,5.25 -5.04,0.66 -3.85,0.5 -23.71,3.121 -5.51,0.711 -19.49,2.57 -2.57,0.348 -3.35,0.43 -42.83,5.671 -8.97,1.141 -11.68,1.559 -28.08,3.691 -15.4,2.027 -20.07,2.633 -13.28,1.739 -21.8,2.878 -26.91,3.551 -1.5,0.172 -26.72,3.539 -20.53,2.692 -16.25,2.148 -18.37,2.398 -14.105,1.883 -31.027,4.059 -10.031,1.308 -7.692,1.043 -45.781,6.028 -1.656,0.222 -1.313,0.149 -9.71,1.281 -16.571,2.188 -22.429,2.941 -5.129,0.691 -6.688,0.868 -36.937,4.839 -11.536,1.551 -15.031,1.961 -22.152,2.93 -17.969,2.34 -23.375,3.101 -7.406,0.981 -24.348,3.179 -24.375,3.219 -7.379,0.969 -23.394,3.082 -17.973,2.348 -22.156,2.921 -15.027,1.989 -11.536,1.492 -36.933,4.891 -6.692,0.867 -5.125,0.691 -38.968,5.129 -9.75,1.281 -1.282,0.141 -1.687,0.238 -45.781,6.012 -7.692,1.019 -10.023,1.329 -30.996,4.062 -14.133,1.879 -18.375,2.398 -16.25,2.133 -20.535,2.731 -26.711,3.488 -1.473,0.219 -26.937,3.531 -21.813,2.879 -13.281,1.742 L 180.73,375 v -37.711 -55.168 -55.16 -27.563 -27.546 h 27.571 27.59 55.121 110.312 110.285 110.317 110.277 110.313 110.281 110.313 110.28 110.31 55.13 55.15 55.16 55.16 55.11 27.6 27.57 27.56 13.82 13.77 13.79 13.78 13.77 13.79 l -13.79,1.796"
         style="fill:#c2e247;fill-opacity:1;fill-rule:nonzero;stroke:none"
         transform="matrix(0.13333333,0,0,-0.13333333,0,235.17333)" />
      <path
         id="path11"
         d="M 148.586,139.648 V 1748.13 M 1757.04,139.648 H 148.586"
         style="fill:none;stroke:#231f20;stroke-width:5;stroke-linecap:square;stroke-linejoin:miter;stroke-miterlimit:3.25;stroke-dasharray:none;stroke-opacity:1"
         transform="matrix(0.13333333,0,0,-0.13333333,0,235.17333)" />
      <path
         id="path12"
         d="m 180.73,109.648 v 30"
         style="fill:none;stroke:#231f20;stroke-width:5;stroke-linecap:butt;stroke-linejoin:miter;stroke-miterlimit:3.25;stroke-dasharray:none;stroke-opacity:1"
         transform="matrix(0.13333333,0,0,-0.13333333,0,235.17333)" />
      <path
         id="path13"
         d="m 952.797,109.648 v 30"
         style="fill:none;stroke:#231f20;stroke-width:5;stroke-linecap:butt;stroke-linejoin:miter;stroke-miterlimit:3.25;stroke-dasharray:none;stroke-opacity:1"
         transform="matrix(0.13333333,0,0,-0.13333333,0,235.17333)" />
      <path
         id="path14"
         d="m 1724.86,109.648 v 30"
         style="fill:none;stroke:#231f20;stroke-width:5;stroke-linecap:butt;stroke-linejoin:miter;stroke-miterlimit:3.25;stroke-dasharray:none;stroke-opacity:1"
         transform="matrix(0.13333333,0,0,-0.13333333,0,235.17333)" />
      <path
         id="path15"
         d="m 118.586,171.852 h 30"
         style="fill:none;stroke:#231f20;stroke-width:5;stroke-linecap:butt;stroke-linejoin:miter;stroke-miterlimit:3.25;stroke-dasharray:none;stroke-opacity:1"
         transform="matrix(0.13333333,0,0,-0.13333333,0,235.17333)" />
      <path
         id="path16"
         d="m 118.586,943.906 h 30"
         style="fill:none;stroke:#231f20;stroke-width:5;stroke-linecap:butt;stroke-linejoin:miter;stroke-miterlimit:3.25;stroke-dasharray:none;stroke-opacity:1"
         transform="matrix(0.13333333,0,0,-0.13333333,0,235.17333)" />
      <path
         id="path17"
         d="m 118.586,1715.97 h 30"
         style="fill:none;stroke:#231f20;stroke-width:5;stroke-linecap:butt;stroke-linejoin:miter;stroke-miterlimit:3.25;stroke-dasharray:none;stroke-opacity:1"
         transform="matrix(0.13333333,0,0,-0.13333333,0,235.17333)" />
      <path
         id="path18"
         d="m 1864.52,318.031 h 79.27 V 141.898 h -79.27 v 176.133"
         style="fill:#23245c;fill-opacity:1;fill-rule:nonzero;stroke:none"
         transform="matrix(0.13333333,0,0,-0.13333333,0,235.17333)" />
      <path
         id="path19"
         d="m 1864.52,318.031 h 79.27 V 141.898 h -79.27 z"
         style="fill:none;stroke:#23245c;stroke-width:3.6;stroke-linecap:square;stroke-linejoin:miter;stroke-miterlimit:3.25;stroke-dasharray:none;stroke-opacity:1"
         transform="matrix(0.13333333,0,0,-0.13333333,0,235.17333)" />
      <path
         id="path20"
         d="m 1864.52,494.191 h 79.27 v -176.16 h -79.27 v 176.16"
         style="fill:#27397b;fill-opacity:1;fill-rule:nonzero;stroke:none"
         transform="matrix(0.13333333,0,0,-0.13333333,0,235.17333)" />
      <path
         id="path21"
         d="m 1864.52,494.191 h 79.27 v -176.16 h -79.27 z"
         style="fill:none;stroke:#27397b;stroke-width:3.6;stroke-linecap:square;stroke-linejoin:miter;stroke-miterlimit:3.25;stroke-dasharray:none;stroke-opacity:1"
         transform="matrix(0.13333333,0,0,-0.13333333,0,235.17333)" />
      <path
         id="path22"
         d="m 1864.52,670.309 h 79.27 V 494.18 h -79.27 v 176.129"
         style="fill:#2c5e8b;fill-opacity:1;fill-rule:nonzero;stroke:none"
         transform="matrix(0.13333333,0,0,-0.13333333,0,235.17333)" />
      <path
         id="path23"
         d="m 1864.52,670.309 h 79.27 V 494.18 h -79.27 z"
         style="fill:none;stroke:#2c5e8b;stroke-width:3.6;stroke-linecap:square;stroke-linejoin:miter;stroke-miterlimit:3.25;stroke-dasharray:none;stroke-opacity:1"
         transform="matrix(0.13333333,0,0,-0.13333333,0,235.17333)" />
      <path
         id="path24"
         d="m 1864.52,846.469 h 79.27 v -176.16 h -79.27 v 176.16"
         style="fill:#35868d;fill-opacity:1;fill-rule:nonzero;stroke:none"
         transform="matrix(0.13333333,0,0,-0.13333333,0,235.17333)" />
      <path
         id="path25"
         d="m 1864.52,846.469 h 79.27 v -176.16 h -79.27 z"
         style="fill:none;stroke:#35868d;stroke-width:3.6;stroke-linecap:square;stroke-linejoin:miter;stroke-miterlimit:3.25;stroke-dasharray:none;stroke-opacity:1"
         transform="matrix(0.13333333,0,0,-0.13333333,0,235.17333)" />
      <path
         id="path26"
         d="m 1864.52,1022.63 h 79.27 V 846.469 h -79.27 v 176.161"
         style="fill:#3ea583;fill-opacity:1;fill-rule:nonzero;stroke:none"
         transform="matrix(0.13333333,0,0,-0.13333333,0,235.17333)" />
      <path
         id="path27"
         d="m 1864.52,1022.63 h 79.27 V 846.469 h -79.27 z"
         style="fill:none;stroke:#3ea583;stroke-width:3.6;stroke-linecap:square;stroke-linejoin:miter;stroke-miterlimit:3.25;stroke-dasharray:none;stroke-opacity:1"
         transform="matrix(0.13333333,0,0,-0.13333333,0,235.17333)" />
      <path
         id="path28"
         d="m 1864.52,1198.75 h 79.27 v -176.13 h -79.27 v 176.13"
         style="fill:#4bbd75;fill-opacity:1;fill-rule:nonzero;stroke:none"
         transform="matrix(0.13333333,0,0,-0.13333333,0,235.17333)" />
      <path
         id="path29"
         d="m 1864.52,1198.75 h 79.27 v -176.13 h -79.27 z"
         style="fill:none;stroke:#4bbd75;stroke-width:3.6;stroke-linecap:square;stroke-linejoin:miter;stroke-miterlimit:3.25;stroke-dasharray:none;stroke-opacity:1"
         transform="matrix(0.13333333,0,0,-0.13333333,0,235.17333)" />
      <path
         id="path30"
         d="m 1864.52,1374.91 h 79.27 v -176.16 h -79.27 v 176.16"
         style="fill:#67c765;fill-opacity:1;fill-rule:nonzero;stroke:none"
         transform="matrix(0.13333333,0,0,-0.13333333,0,235.17333)" />
      <path
         id="path31"
         d="m 1864.52,1374.91 h 79.27 v -176.16 h -79.27 z"
         style="fill:none;stroke:#67c765;stroke-width:3.6;stroke-linecap:square;stroke-linejoin:miter;stroke-miterlimit:3.25;stroke-dasharray:none;stroke-opacity:1"
         transform="matrix(0.13333333,0,0,-0.13333333,0,235.17333)" />
      <path
         id="path32"
         d="m 1864.52,1551.06 h 79.27 V 1374.9 h -79.27 v 176.16"
         style="fill:#89d155;fill-opacity:1;fill-rule:nonzero;stroke:none"
         transform="matrix(0.13333333,0,0,-0.13333333,0,235.17333)" />
      <path
         id="path33"
         d="m 1864.52,1551.06 h 79.27 V 1374.9 h -79.27 z"
         style="fill:none;stroke:#89d155;stroke-width:3.6;stroke-linecap:square;stroke-linejoin:miter;stroke-miterlimit:3.25;stroke-dasharray:none;stroke-opacity:1"
         transform="matrix(0.13333333,0,0,-0.13333333,0,235.17333)" />
      <path
         id="path34"
         d="m 1864.52,1727.19 h 79.27 v -176.13 h -79.27 v 176.13"
         style="fill:#c2e246;fill-opacity:1;fill-rule:nonzero;stroke:none"
         transform="matrix(0.13333333,0,0,-0.13333333,0,235.17333)" />
      <path
         id="path35"
         d="m 1864.52,1727.19 h 79.27 v -176.13 h -79.27 z"
         style="fill:none;stroke:#c2e246;stroke-width:3.6;stroke-linecap:square;stroke-linejoin:miter;stroke-miterlimit:3.25;stroke-dasharray:none;stroke-opacity:1"
         transform="matrix(0.13333333,0,0,-0.13333333,0,235.17333)" />
      <path
         id="path36"
         d="m 1943.8,318.031 h 30"
         style="fill:none;stroke:#231f20;stroke-width:5;stroke-linecap:butt;stroke-linejoin:miter;stroke-miterlimit:3.25;stroke-dasharray:none;stroke-opacity:1"
         transform="matrix(0.13333333,0,0,-0.13333333,0,235.17333)" />
      <path
         id="path37"
         d="m 1943.8,494.18 h 30"
         style="fill:none;stroke:#231f20;stroke-width:5;stroke-linecap:butt;stroke-linejoin:miter;stroke-miterlimit:3.25;stroke-dasharray:none;stroke-opacity:1"
         transform="matrix(0.13333333,0,0,-0.13333333,0,235.17333)" />
      <path
         id="path38"
         d="m 1943.8,670.32 h 30"
         style="fill:none;stroke:#231f20;stroke-width:5;stroke-linecap:butt;stroke-linejoin:miter;stroke-miterlimit:3.25;stroke-dasharray:none;stroke-opacity:1"
         transform="matrix(0.13333333,0,0,-0.13333333,0,235.17333)" />
      <path
         id="path39"
         d="m 1943.8,846.473 h 30"
         style="fill:none;stroke:#231f20;stroke-width:5;stroke-linecap:butt;stroke-linejoin:miter;stroke-miterlimit:3.25;stroke-dasharray:none;stroke-opacity:1"
         transform="matrix(0.13333333,0,0,-0.13333333,0,235.17333)" />
      <path
         id="path40"
         d="m 1943.8,1022.62 h 30"
         style="fill:none;stroke:#231f20;stroke-width:5;stroke-linecap:butt;stroke-linejoin:miter;stroke-miterlimit:3.25;stroke-dasharray:none;stroke-opacity:1"
         transform="matrix(0.13333333,0,0,-0.13333333,0,235.17333)" />
      <path
         id="path41"
         d="m 1943.8,1198.77 h 30"
         style="fill:none;stroke:#231f20;stroke-width:5;stroke-linecap:butt;stroke-linejoin:miter;stroke-miterlimit:3.25;stroke-dasharray:none;stroke-opacity:1"
         transform="matrix(0.13333333,0,0,-0.13333333,0,235.17333)" />
      <path
         id="path42"
         d="m 1943.8,1374.91 h 30"
         style="fill:none;stroke:#231f20;stroke-width:5;stroke-linecap:butt;stroke-linejoin:miter;stroke-miterlimit:3.25;stroke-dasharray:none;stroke-opacity:1"
         transform="matrix(0.13333333,0,0,-0.13333333,0,235.17333)" />
      <path
         id="path43"
         d="m 1943.8,1551.06 h 30"
         style="fill:none;stroke:#231f20;stroke-width:5;stroke-linecap:butt;stroke-linejoin:miter;stroke-miterlimit:3.25;stroke-dasharray:none;stroke-opacity:1"
         transform="matrix(0.13333333,0,0,-0.13333333,0,235.17333)" />
      <path
         id="path44"
         d="M 3.4570313,-1.015625e-4 V -0.24619531 C 2.6367188,-0.30478906 2.578125,-0.37510156 2.578125,-1.0313516 v -4.6875 c -0.4921875,0.1992188 -1.0195313,0.375 -1.59375,0.46875 v 0.2109375 l 0.4335937,0.011719 c 0.3867188,0.023437 0.421875,0.070312 0.421875,0.5390625 v 3.4570312 c 0,0.65625004 -0.035156,0.72656254 -0.8554687,0.78515629 V -1.015625e-4 Z M 5.3525391,0.10536719 c 0.28125,0 0.5039062,-0.19921875 0.5039062,-0.515625 0,-0.29296875 -0.2226562,-0.515625 -0.5039062,-0.515625 -0.2929688,0 -0.5039063,0.22265625 -0.5039063,0.515625 0,0.31640625 0.2109375,0.515625 0.5039063,0.515625 z M 8.5283203,-5.7188516 c -1.3476562,0 -1.8398437,1.6054688 -1.8398437,2.9179688 0,1.4179687 0.4804687,2.90624999 1.8398437,2.90624999 1.359375,0 1.8281247,-1.59374999 1.8281247,-2.91796879 0,-1.3828125 -0.4687497,-2.90625 -1.8281247,-2.90625 z m 0,0.3046875 c 0.8085938,0 1.03125,1.3242188 1.03125,2.6015625 0,1.265625 -0.2226562,2.61328129 -1.03125,2.61328129 -0.7734375,0 -1.0429687,-1.35937499 -1.0429687,-2.61328129 0,-1.2539062 0.2226562,-2.6015625 1.0429687,-2.6015625 z M 2.15625,71.490133 c -1.34765625,0 -1.83984375,1.605469 -1.83984375,2.917969 0,1.417968 0.48046875,2.90625 1.83984375,2.90625 1.359375,0 1.828125,-1.59375 1.828125,-2.917969 0,-1.382813 -0.46875,-2.90625 -1.828125,-2.90625 z m 0,0.304687 c 0.8085938,0 1.03125,1.324219 1.03125,2.601563 0,1.265625 -0.2226562,2.613281 -1.03125,2.613281 -0.7734375,0 -1.0429688,-1.359375 -1.0429688,-2.613281 0,-1.253906 0.2226563,-2.601563 1.0429688,-2.601563 z m 3.1962891,5.519532 c 0.28125,0 0.5039062,-0.199219 0.5039062,-0.515625 0,-0.292969 -0.2226562,-0.515625 -0.5039062,-0.515625 -0.2929688,0 -0.5039063,0.222656 -0.5039063,0.515625 0,0.316406 0.2109375,0.515625 0.5039063,0.515625 z m 2.390625,-5.050782 h 2.0976562 l 0.2343747,-0.585937 -0.05859,-0.07031 H 7.4501953 l -0.3515625,2.742188 c 0.2109375,-0.08203 0.5507813,-0.1875 0.9257813,-0.1875 0.984375,0 1.4648437,0.574219 1.4648437,1.359375 0,0.679687 -0.375,1.335937 -1.1367187,1.335937 -0.5507813,0 -0.9140625,-0.292968 -1.1132813,-0.457031 -0.082031,-0.07031 -0.1523437,-0.05859 -0.234375,0 -0.1054687,0.09375 -0.1875,0.210938 -0.1875,0.292969 -0.023437,0.105469 0.023437,0.1875 0.140625,0.304687 0.1289063,0.128907 0.515625,0.316407 0.9257813,0.316407 0.4804687,-0.01172 1.078125,-0.246094 1.5703125,-0.632813 0.5507814,-0.457031 0.7968754,-0.960937 0.7968754,-1.511719 0,-0.738281 -0.5859379,-1.511718 -1.7343754,-1.511718 -0.2460938,0 -0.6679688,0.140625 -1.0078125,0.269531 z M 2.15625,148.70205 c -1.34765625,0 -1.83984375,1.60547 -1.83984375,2.91797 0,1.41796 0.48046875,2.90625 1.83984375,2.90625 1.359375,0 1.828125,-1.59375 1.828125,-2.91797 0,-1.38282 -0.46875,-2.90625 -1.828125,-2.90625 z m 0,0.30468 c 0.8085938,0 1.03125,1.32422 1.03125,2.60157 0,1.26562 -0.2226562,2.61328 -1.03125,2.61328 -0.7734375,0 -1.0429688,-1.35938 -1.0429688,-2.61328 0,-1.25391 0.2226563,-2.60157 1.0429688,-2.60157 z m 3.1962891,5.51954 c 0.28125,0 0.5039062,-0.19922 0.5039062,-0.51563 0,-0.29297 -0.2226562,-0.51562 -0.5039062,-0.51562 -0.2929688,0 -0.5039063,0.22265 -0.5039063,0.51562 0,0.31641 0.2109375,0.51563 0.5039063,0.51563 z m 3.1757812,-5.82422 c -1.3476562,0 -1.8398437,1.60547 -1.8398437,2.91797 0,1.41796 0.4804687,2.90625 1.8398437,2.90625 1.359375,0 1.8281247,-1.59375 1.8281247,-2.91797 0,-1.38282 -0.4687497,-2.90625 -1.8281247,-2.90625 z m 0,0.30468 c 0.8085938,0 1.03125,1.32422 1.03125,2.60157 0,1.26562 -0.2226562,2.61328 -1.03125,2.61328 -0.7734375,0 -1.0429687,-1.35938 -1.0429687,-2.61328 0,-1.25391 0.2226562,-2.60157 1.0429687,-2.60157 z M 201.50098,10.332906 c -1.34766,0 -1.83985,1.605469 -1.83985,2.917969 0,1.417969 0.48047,2.90625 1.83985,2.90625 1.35937,0 1.82812,-1.59375 1.82812,-2.917969 0,-1.382812 -0.46875,-2.90625 -1.82812,-2.90625 z m 0,0.304688 c 0.80859,0 1.03125,1.324218 1.03125,2.601562 0,1.265625 -0.22266,2.613281 -1.03125,2.613281 -0.77344,0 -1.04297,-1.359375 -1.04297,-2.613281 0,-1.253906 0.22265,-2.601562 1.04297,-2.601562 z m 3.19629,5.519531 c 0.28125,0 0.5039,-0.199219 0.5039,-0.515625 0,-0.292969 -0.22265,-0.515625 -0.5039,-0.515625 -0.29297,0 -0.50391,0.222656 -0.50391,0.515625 0,0.316406 0.21094,0.515625 0.50391,0.515625 z m 3.19921,-5.824219 c -1.16015,0 -1.83984,1.054688 -1.83984,1.921875 0,0.949219 0.65625,1.640625 1.61719,1.640625 0.16406,0 0.33984,-0.03516 0.53906,-0.140625 l 0.59766,-0.316406 c -0.29297,1.359375 -1.27735,2.261719 -2.56641,2.472656 l 0.0469,0.28125 c 0.22265,0 0.77343,-0.09375 1.26562,-0.292969 1.20703,-0.492187 2.12109,-1.652343 2.12109,-3.316406 0,-1.21875 -0.65625,-2.25 -1.78125,-2.25 z m -0.11718,0.304688 c 0.86718,0 1.10156,1.113281 1.10156,1.898437 0,0.1875 0,0.398438 -0.0352,0.597656 -0.1875,0.140625 -0.49218,0.257813 -0.80859,0.257813 -0.75,0 -1.20703,-0.65625 -1.20703,-1.453125 0,-0.527344 0.25781,-1.300781 0.94922,-1.300781 z m -6.27832,17.305664 c -1.34766,0 -1.83985,1.605469 -1.83985,2.917969 0,1.417968 0.48047,2.90625 1.83985,2.90625 1.35937,0 1.82812,-1.59375 1.82812,-2.917969 0,-1.382813 -0.46875,-2.90625 -1.82812,-2.90625 z m 0,0.304687 c 0.80859,0 1.03125,1.324219 1.03125,2.601563 0,1.265625 -0.22266,2.613281 -1.03125,2.613281 -0.77344,0 -1.04297,-1.359375 -1.04297,-2.613281 0,-1.253906 0.22265,-2.601563 1.04297,-2.601563 z m 3.19629,5.519532 c 0.28125,0 0.5039,-0.199219 0.5039,-0.515625 0,-0.292969 -0.22265,-0.515625 -0.5039,-0.515625 -0.29297,0 -0.50391,0.222656 -0.50391,0.515625 0,0.316406 0.21094,0.515625 0.50391,0.515625 z m 3.24609,-5.824219 c -0.96094,0 -1.59375,0.726562 -1.59375,1.476562 0,0.632813 0.38672,1.066407 0.97266,1.394532 -0.30469,0.199218 -0.65625,0.445312 -0.79688,0.574218 -0.19922,0.199219 -0.39844,0.445313 -0.39844,0.855469 0,0.972656 0.76172,1.523438 1.72266,1.523438 0.76172,0 1.78125,-0.574219 1.78125,-1.628907 0,-0.785156 -0.5625,-1.207031 -1.18359,-1.558593 0.39843,-0.28125 0.64453,-0.503907 0.70312,-0.585938 0.17578,-0.1875 0.26953,-0.457031 0.26953,-0.714844 0,-0.726562 -0.62109,-1.335937 -1.47656,-1.335937 z m -0.082,0.292969 c 0.41015,0 0.8789,0.328125 0.8789,1.089843 0,0.539063 -0.24609,0.867188 -0.55078,1.113282 -0.63281,-0.316407 -1.17187,-0.609375 -1.17187,-1.277344 0,-0.457031 0.30469,-0.925781 0.84375,-0.925781 z m 0.082,5.25 c -0.57422,0 -1.10156,-0.46875 -1.10156,-1.289063 0,-0.492187 0.30468,-0.949219 0.73828,-1.230469 0.6914,0.351563 1.33594,0.738282 1.33594,1.40625 0,0.691407 -0.42188,1.113282 -0.97266,1.113282 z m -6.44238,12.067382 c -1.34766,0 -1.83985,1.605469 -1.83985,2.917969 0,1.417969 0.48047,2.90625 1.83985,2.90625 1.35937,0 1.82812,-1.59375 1.82812,-2.917969 0,-1.382812 -0.46875,-2.90625 -1.82812,-2.90625 z m 0,0.304688 c 0.80859,0 1.03125,1.324219 1.03125,2.601562 0,1.265625 -0.22266,2.613282 -1.03125,2.613282 -0.77344,0 -1.04297,-1.359375 -1.04297,-2.613282 0,-1.253906 0.22265,-2.601562 1.04297,-2.601562 z m 3.19629,5.519531 c 0.28125,0 0.5039,-0.199219 0.5039,-0.515625 0,-0.292969 -0.22265,-0.515625 -0.5039,-0.515625 -0.29297,0 -0.50391,0.222656 -0.50391,0.515625 0,0.316406 0.21094,0.515625 0.50391,0.515625 z m 5.03906,-5.707031 h -3.4336 c -0.0351,0.386719 -0.082,0.832031 -0.16406,1.324219 h 0.25781 c 0.22266,-0.585938 0.26954,-0.667969 0.86719,-0.667969 h 1.94531 c -0.71484,1.558594 -1.72265,3.421875 -2.67187,4.957031 l 0.0586,0.09375 0.66797,-0.08203 c 0.86719,-1.863281 1.69922,-3.691406 2.54297,-5.519531 z m -8.23535,17.493164 c -1.34766,0 -1.83985,1.605469 -1.83985,2.917969 0,1.417968 0.48047,2.90625 1.83985,2.90625 1.35937,0 1.82812,-1.59375 1.82812,-2.917969 0,-1.382813 -0.46875,-2.90625 -1.82812,-2.90625 z m 0,0.304687 c 0.80859,0 1.03125,1.324219 1.03125,2.601563 0,1.265625 -0.22266,2.613281 -1.03125,2.613281 -0.77344,0 -1.04297,-1.359375 -1.04297,-2.613281 0,-1.253906 0.22265,-2.601563 1.04297,-2.601563 z m 3.19629,5.519532 c 0.28125,0 0.5039,-0.199219 0.5039,-0.515625 0,-0.292969 -0.22265,-0.515625 -0.5039,-0.515625 -0.29297,0 -0.50391,0.222656 -0.50391,0.515625 0,0.316406 0.21094,0.515625 0.50391,0.515625 z m 2.25,-3.1875 c 0.26953,-1.253907 1.11328,-1.828125 1.66406,-2.085938 0.32812,-0.152344 0.67969,-0.257812 0.97265,-0.316406 l -0.0586,-0.28125 c -0.36328,0.05859 -0.79687,0.164062 -1.14844,0.28125 -0.96093,0.351562 -2.33203,1.371094 -2.33203,3.339844 0,1.382812 0.79688,2.25 1.85156,2.25 1.07813,0 1.83985,-0.902344 1.83985,-1.980469 0,-0.925781 -0.65625,-1.664063 -1.61719,-1.664063 -0.17578,0 -0.36328,0.07031 -0.5625,0.152344 z m 0.82031,0.04687 c 0.82031,0 1.19531,0.738281 1.19531,1.488281 0,0.597656 -0.21094,1.347656 -0.91406,1.347656 -0.73828,0 -1.19531,-0.878906 -1.19531,-1.957031 0,-0.234375 0.0117,-0.457031 0.0469,-0.621094 0.22266,-0.117187 0.52734,-0.257812 0.86719,-0.257812 z m -6.2666,14.926757 c -1.34766,0 -1.83985,1.605469 -1.83985,2.917969 0,1.417969 0.48047,2.90625 1.83985,2.90625 1.35937,0 1.82812,-1.59375 1.82812,-2.917969 0,-1.382812 -0.46875,-2.90625 -1.82812,-2.90625 z m 0,0.304688 c 0.80859,0 1.03125,1.324219 1.03125,2.601562 0,1.265625 -0.22266,2.613282 -1.03125,2.613282 -0.77344,0 -1.04297,-1.359375 -1.04297,-2.613282 0,-1.253906 0.22265,-2.601562 1.04297,-2.601562 z m 3.19629,5.519531 c 0.28125,0 0.5039,-0.199219 0.5039,-0.515625 0,-0.292969 -0.22265,-0.515625 -0.5039,-0.515625 -0.29297,0 -0.50391,0.222656 -0.50391,0.515625 0,0.316406 0.21094,0.515625 0.50391,0.515625 z m 2.39062,-5.050781 h 2.09766 l 0.23437,-0.585938 -0.0586,-0.07031 h -2.56641 l -0.35156,2.742187 c 0.21094,-0.08203 0.55078,-0.1875 0.92578,-0.1875 0.98438,0 1.46484,0.574219 1.46484,1.359375 0,0.679688 -0.375,1.335938 -1.13671,1.335938 -0.55079,0 -0.91407,-0.292969 -1.11329,-0.457031 -0.082,-0.07031 -0.15234,-0.05859 -0.23437,0 -0.10547,0.09375 -0.1875,0.210937 -0.1875,0.292968 -0.0234,0.105469 0.0234,0.1875 0.14062,0.304688 0.12891,0.128906 0.51563,0.316406 0.92579,0.316406 0.48046,-0.01172 1.07812,-0.246094 1.57031,-0.632812 0.55078,-0.457032 0.79687,-0.960938 0.79687,-1.511719 0,-0.738281 -0.58593,-1.511719 -1.73437,-1.511719 -0.2461,0 -0.66797,0.140625 -1.00781,0.269531 z m -5.58691,16.836914 c -1.34766,0 -1.83985,1.605469 -1.83985,2.917971 0,1.41797 0.48047,2.90625 1.83985,2.90625 1.35937,0 1.82812,-1.59375 1.82812,-2.91797 0,-1.382813 -0.46875,-2.906251 -1.82812,-2.906251 z m 0,0.304688 c 0.80859,0 1.03125,1.324223 1.03125,2.601553 0,1.26563 -0.22266,2.6133 -1.03125,2.6133 -0.77344,0 -1.04297,-1.35938 -1.04297,-2.6133 0,-1.2539 0.22265,-2.601553 1.04297,-2.601553 z m 3.19629,5.519523 c 0.28125,0 0.5039,-0.19922 0.5039,-0.51562 0,-0.29297 -0.22265,-0.51563 -0.5039,-0.51563 -0.29297,0 -0.50391,0.22266 -0.50391,0.51563 0,0.3164 0.21094,0.51562 0.50391,0.51562 z m 5.12109,-1.71093 v -0.42188 h -0.86719 v -3.656245 h -0.35156 c -0.92578,1.21875 -1.85156,2.554685 -2.70703,3.832025 v 0.2461 h 2.34375 v 0.65625 c 0,0.58593 -0.0352,0.64453 -0.82031,0.70312 v 0.24609 h 2.30859 v -0.24609 c -0.72656,-0.0586 -0.77344,-0.10547 -0.77344,-0.70312 v -0.65625 z m -1.58203,-0.42188 h -1.76953 c 0.58593,-0.99609 1.17187,-1.85156 1.75781,-2.648432 h 0.0117 z m -6.73535,13.91895 c -1.34766,0 -1.83985,1.60546 -1.83985,2.91796 0,1.41797 0.48047,2.90625 1.83985,2.90625 1.35937,0 1.82812,-1.59375 1.82812,-2.91796 0,-1.38282 -0.46875,-2.90625 -1.82812,-2.90625 z m 0,0.30468 c 0.80859,0 1.03125,1.32422 1.03125,2.60157 0,1.26562 -0.22266,2.61328 -1.03125,2.61328 -0.77344,0 -1.04297,-1.35938 -1.04297,-2.61328 0,-1.25391 0.22265,-2.60157 1.04297,-2.60157 z m 3.19629,5.51953 c 0.28125,0 0.5039,-0.19921 0.5039,-0.51562 0,-0.29297 -0.22265,-0.51563 -0.5039,-0.51563 -0.29297,0 -0.50391,0.22266 -0.50391,0.51563 0,0.31641 0.21094,0.51562 0.50391,0.51562 z m 1.78125,-4.57031 c 0.22265,-0.32812 0.58593,-0.71484 1.07812,-0.71484 0.48047,0 0.85547,0.29297 0.85547,0.85547 0,0.65625 -0.60938,1.00781 -1.42969,1.27734 l 0.0586,0.25781 c 0.14062,-0.0469 0.36328,-0.10547 0.57421,-0.10547 0.51563,0 1.14844,0.33985 1.14844,1.17188 0,0.89062 -0.45703,1.35937 -1.08984,1.35937 -0.51563,0 -0.89063,-0.24609 -1.125,-0.45703 -0.0703,-0.0586 -0.14063,-0.0469 -0.21094,0 -0.082,0.0586 -0.19922,0.17578 -0.21094,0.29297 -0.0117,0.11719 0.0234,0.21094 0.15235,0.32813 0.11718,0.10547 0.48047,0.30468 0.89062,0.30468 0.65625,0 2.36719,-0.66796 2.36719,-2.12109 0,-0.65625 -0.46875,-1.21875 -1.25391,-1.37109 v -0.0117 c 0.25782,-0.1875 0.48047,-0.33985 0.60938,-0.49218 0.17578,-0.16407 0.28125,-0.375 0.28125,-0.63282 0,-0.69141 -0.52735,-1.19531 -1.34766,-1.19531 -0.46875,0 -0.89062,0.23437 -1.13672,0.5039 l -0.39843,0.57422 z m -4.97754,16.35645 c -1.34766,0 -1.83985,1.60547 -1.83985,2.91797 0,1.41796 0.48047,2.90625 1.83985,2.90625 1.35937,0 1.82812,-1.59375 1.82812,-2.91797 0,-1.38282 -0.46875,-2.90625 -1.82812,-2.90625 z m 0,0.30468 c 0.80859,0 1.03125,1.32422 1.03125,2.60157 0,1.26562 -0.22266,2.61328 -1.03125,2.61328 -0.77344,0 -1.04297,-1.35938 -1.04297,-2.61328 0,-1.25391 0.22265,-2.60157 1.04297,-2.60157 z m 3.19629,5.51954 c 0.28125,0 0.5039,-0.19922 0.5039,-0.51563 0,-0.29297 -0.22265,-0.51562 -0.5039,-0.51562 -0.29297,0 -0.50391,0.22265 -0.50391,0.51562 0,0.31641 0.21094,0.51563 0.50391,0.51563 z m 4.72265,-1.3711 c -0.26953,0.57422 -0.38672,0.60938 -0.86719,0.60938 h -1.6875 l 1.27735,-1.33594 c 0.83203,-0.89063 1.19531,-1.41797 1.19531,-2.20313 0,-0.94921 -0.72656,-1.52343 -1.51172,-1.52343 -0.52734,0 -0.94922,0.23437 -1.21875,0.53906 l -0.51562,0.72656 0.19922,0.17578 c 0.23437,-0.35156 0.60937,-0.83203 1.23046,-0.83203 0.65625,0 1.05469,0.4336 1.05469,1.19531 0,0.77344 -0.5625,1.51172 -1.125,2.17969 -0.44531,0.51563 -0.94922,1.03125 -1.45312,1.52344 v 0.21094 h 3.36328 c 0.10547,-0.41016 0.19922,-0.79688 0.3164,-1.1836 z M 14.882813,160.00185 c -1.347657,0 -1.839844,1.60547 -1.839844,2.91797 0,1.41797 0.480469,2.90625 1.839844,2.90625 1.359374,0 1.828124,-1.59375 1.828124,-2.91797 0,-1.38281 -0.46875,-2.90625 -1.828124,-2.90625 z m 0,0.30469 c 0.808593,0 1.03125,1.32422 1.03125,2.60156 0,1.26563 -0.222657,2.61328 -1.03125,2.61328 -0.773438,0 -1.042969,-1.35937 -1.042969,-2.61328 0,-1.2539 0.222656,-2.60156 1.042969,-2.60156 z m 3.196289,5.51953 c 0.28125,0 0.503906,-0.19922 0.503906,-0.51562 0,-0.29297 -0.222656,-0.51563 -0.503906,-0.51563 -0.292969,0 -0.503907,0.22266 -0.503907,0.51563 0,0.3164 0.210938,0.51562 0.503907,0.51562 z m 3.175781,-5.82422 c -1.347656,0 -1.839844,1.60547 -1.839844,2.91797 0,1.41797 0.480469,2.90625 1.839844,2.90625 1.359375,0 1.828125,-1.59375 1.828125,-2.91797 0,-1.38281 -0.46875,-2.90625 -1.828125,-2.90625 z m 0,0.30469 c 0.808594,0 1.03125,1.32422 1.03125,2.60156 0,1.26563 -0.222656,2.61328 -1.03125,2.61328 -0.773438,0 -1.042969,-1.35937 -1.042969,-2.61328 0,-1.2539 0.222656,-2.60156 1.042969,-2.60156 z m 70.833984,-0.30469 c -1.347656,0 -1.839844,1.60547 -1.839844,2.91797 0,1.41797 0.480469,2.90625 1.839844,2.90625 1.359375,0 1.828125,-1.59375 1.828125,-2.91797 0,-1.38281 -0.46875,-2.90625 -1.828125,-2.90625 z m 0,0.30469 c 0.808594,0 1.03125,1.32422 1.03125,2.60156 0,1.26563 -0.222656,2.61328 -1.03125,2.61328 -0.773437,0 -1.042969,-1.35937 -1.042969,-2.61328 0,-1.2539 0.222657,-2.60156 1.042969,-2.60156 z m 3.196289,5.51953 c 0.28125,0 0.503906,-0.19922 0.503906,-0.51562 0,-0.29297 -0.222656,-0.51563 -0.503906,-0.51563 -0.292969,0 -0.503906,0.22266 -0.503906,0.51563 0,0.3164 0.210937,0.51562 0.503906,0.51562 z m 2.390625,-5.05078 h 2.097656 l 0.234373,-0.58594 -0.05859,-0.0703 h -2.566407 l -0.351562,2.74219 c 0.210937,-0.082 0.550781,-0.1875 0.925781,-0.1875 0.984375,0 1.464844,0.57422 1.464844,1.35937 0,0.67969 -0.375,1.33594 -1.136719,1.33594 -0.550781,0 -0.914062,-0.29297 -1.113281,-0.45703 -0.08203,-0.0703 -0.152344,-0.0586 -0.234375,0 -0.105469,0.0937 -0.1875,0.21094 -0.1875,0.29297 -0.02344,0.10547 0.02344,0.1875 0.140625,0.30468 0.128906,0.12891 0.515625,0.31641 0.925781,0.31641 0.480469,-0.0117 1.078125,-0.24609 1.570313,-0.63281 0.550781,-0.45703 0.79687,-0.96094 0.79687,-1.51172 0,-0.73828 -0.585933,-1.51172 -1.73437,-1.51172 -0.246094,0 -0.667969,0.14063 -1.007813,0.26953 z m 72.922849,4.94531 v -0.24609 c -0.82031,-0.0586 -0.8789,-0.12891 -0.8789,-0.78516 v -4.6875 c -0.49219,0.19922 -1.01953,0.375 -1.59375,0.46875 v 0.21094 l 0.43359,0.0117 c 0.38672,0.0234 0.42188,0.0703 0.42188,0.53906 v 3.45703 c 0,0.65625 -0.0352,0.72656 -0.85547,0.78516 v 0.24609 z m 1.89258,0.10547 c 0.28125,0 0.50391,-0.19922 0.50391,-0.51562 0,-0.29297 -0.22266,-0.51563 -0.50391,-0.51563 -0.29297,0 -0.50391,0.22266 -0.50391,0.51563 0,0.3164 0.21094,0.51562 0.50391,0.51562 z m 3.17871,-5.82422 c -1.34765,0 -1.83984,1.60547 -1.83984,2.91797 0,1.41797 0.48047,2.90625 1.83984,2.90625 1.35938,0 1.82813,-1.59375 1.82813,-2.91797 0,-1.38281 -0.46875,-2.90625 -1.82813,-2.90625 z m 0,0.30469 c 0.8086,0 1.03125,1.32422 1.03125,2.60156 0,1.26563 -0.22265,2.61328 -1.03125,2.61328 -0.77344,0 -1.04297,-1.35937 -1.04297,-2.61328 0,-1.2539 0.22266,-2.60156 1.04297,-2.60156 z m 0,0"
         style="fill:#231f20;fill-opacity:1;fill-rule:nonzero;stroke:none"
         aria-label="1.0&#10;0.5&#10;0.0&#10;0.9&#10;0.8&#10;0.7&#10;0.6&#10;0.5&#10;0.4&#10;0.3&#10;0.2&#10;0.00.51.0"
         transform="matrix(1.3333333,0,0,1.3333333,0,9.8946667)" />
    </g>
  </g>
</svg>
