<?xml version="1.0" encoding="UTF-8" standalone="no"?>
<!-- Created with Inkscape (http://www.inkscape.org/) -->

<svg
   version="1.1"
   id="svg1"
   width="190.34666"
   height="145.92"
   viewBox="0 0 190.34666 145.92"
   sodipodi:docname="pha06f45.eps"
   xmlns:inkscape="http://www.inkscape.org/namespaces/inkscape"
   xmlns:sodipodi="http://sodipodi.sourceforge.net/DTD/sodipodi-0.dtd"
   xmlns="http://www.w3.org/2000/svg"
   xmlns:svg="http://www.w3.org/2000/svg">
  <defs
     id="defs1" />
  <sodipodi:namedview
     id="namedview1"
     pagecolor="#ffffff"
     bordercolor="#000000"
     borderopacity="0.25"
     inkscape:showpageshadow="2"
     inkscape:pageopacity="0.0"
     inkscape:pagecheckerboard="0"
     inkscape:deskcolor="#d1d1d1">
    <inkscape:page
       x="0"
       y="0"
       inkscape:label="1"
       id="page1"
       width="190.34666"
       height="145.92"
       margin="0"
       bleed="0" />
  </sodipodi:namedview>
  <g
     id="g1"
     inkscape:groupmode="layer"
     inkscape:label="1">
    <g
       id="group-R5">
      <path
         id="path2"
         d="M 204.004,390.051 526.105,1.58984"
         style="fill:none;stroke:#918f90;stroke-width:5;stroke-linecap:butt;stroke-linejoin:miter;stroke-miterlimit:10;stroke-dasharray:none;stroke-opacity:1"
         transform="matrix(0.13333333,0,0,-0.13333333,0,145.92)" />
      <path
         id="path3"
         d="m 818.035,530.703 c 0,6.496 5.278,11.77 11.77,11.77 6.496,0 11.765,-5.274 11.765,-11.77 0,-6.492 -5.269,-11.758 -11.765,-11.758 -6.492,0 -11.77,5.266 -11.77,11.758"
         style="fill:#231f20;fill-opacity:1;fill-rule:nonzero;stroke:none"
         transform="matrix(0.13333333,0,0,-0.13333333,0,145.92)" />
      <path
         id="path4"
         d="m 818.035,530.703 c 0,6.496 5.278,11.77 11.77,11.77 6.496,0 11.765,-5.274 11.765,-11.77 0,-6.492 -5.269,-11.758 -11.765,-11.758 -6.492,0 -11.77,5.266 -11.77,11.758 z"
         style="fill:none;stroke:#231f20;stroke-width:5;stroke-linecap:butt;stroke-linejoin:miter;stroke-miterlimit:10;stroke-dasharray:none;stroke-opacity:1"
         transform="matrix(0.13333333,0,0,-0.13333333,0,145.92)" />
      <path
         id="path5"
         d="M 0.117188,754.035 C 176.277,759.582 477.754,756.809 555.852,621.086 633.938,485.363 637.566,319.172 744.727,233.313 851.875,147.441 850.469,168.332 881.34,18.7617"
         style="fill:none;stroke:#231f20;stroke-width:7.5;stroke-linecap:butt;stroke-linejoin:miter;stroke-miterlimit:10;stroke-dasharray:none;stroke-opacity:1"
         transform="matrix(0.13333333,0,0,-0.13333333,0,145.92)" />
      <path
         id="path6"
         d="M 1103.54,1092.84 1425.63,704.387"
         style="fill:none;stroke:#918f90;stroke-width:5;stroke-linecap:butt;stroke-linejoin:miter;stroke-miterlimit:10;stroke-dasharray:none;stroke-opacity:1"
         transform="matrix(0.13333333,0,0,-0.13333333,0,145.92)" />
      <path
         id="path7"
         d="m 1041.74,713.703 9.5,8.121"
         style="fill:none;stroke:#231f20;stroke-width:5;stroke-linecap:butt;stroke-linejoin:miter;stroke-miterlimit:10;stroke-dasharray:none;stroke-opacity:1"
         transform="matrix(0.13333333,0,0,-0.13333333,0,145.92)" />
      <path
         id="path8"
         d="m 1061.89,730.93 193.53,165.39"
         style="fill:none;stroke:#231f20;stroke-width:5;stroke-linecap:butt;stroke-linejoin:miter;stroke-miterlimit:10;stroke-dasharray:23.3551, 14.013;stroke-dashoffset:0;stroke-opacity:1"
         transform="matrix(0.13333333,0,0,-0.13333333,0,145.92)" />
      <path
         id="path9"
         d="m 1260.74,900.875 9.5,8.121"
         style="fill:none;stroke:#231f20;stroke-width:5;stroke-linecap:butt;stroke-linejoin:miter;stroke-miterlimit:10;stroke-dasharray:none;stroke-opacity:1"
         transform="matrix(0.13333333,0,0,-0.13333333,0,145.92)" />
      <path
         id="path10"
         d="M 841.348,542.434 1010.75,687.219"
         style="fill:none;stroke:#231f20;stroke-width:5;stroke-linecap:butt;stroke-linejoin:miter;stroke-miterlimit:10;stroke-dasharray:none;stroke-opacity:1"
         transform="matrix(0.13333333,0,0,-0.13333333,0,145.92)" />
      <path
         id="path11"
         d="m 1003.93,681.387 -20.035,6.578 0.207,0.707 29.908,10.215 c 9.24,4.941 18.48,9.879 27.73,14.816 -6.32,-8.359 -12.64,-16.719 -18.96,-25.082 l -14.74,-27.957 -0.67,-0.164 -3.44,20.887"
         style="fill:#231f20;fill-opacity:1;fill-rule:nonzero;stroke:none"
         transform="matrix(0.13333333,0,0,-0.13333333,0,145.92)" />
      <path
         id="path12"
         d="m 394.797,160.793 9.5,8.121"
         style="fill:none;stroke:#231f20;stroke-width:5;stroke-linecap:butt;stroke-linejoin:miter;stroke-miterlimit:10;stroke-dasharray:none;stroke-opacity:1"
         transform="matrix(0.13333333,0,0,-0.13333333,0,145.92)" />
      <path
         id="path13"
         d="M 415.449,178.445 826.27,529.547"
         style="fill:none;stroke:#231f20;stroke-width:5;stroke-linecap:butt;stroke-linejoin:miter;stroke-miterlimit:10;stroke-dasharray:24.4529, 14.6718;stroke-dashoffset:0;stroke-opacity:1"
         transform="matrix(0.13333333,0,0,-0.13333333,0,145.92)" />
      <path
         id="path14"
         d="m 831.848,534.313 9.5,8.121"
         style="fill:none;stroke:#231f20;stroke-width:5;stroke-linecap:butt;stroke-linejoin:miter;stroke-miterlimit:10;stroke-dasharray:none;stroke-opacity:1"
         transform="matrix(0.13333333,0,0,-0.13333333,0,145.92)" />
      <path
         id="path15"
         d="m 1250.12,901.242 c 0,6.485 5.26,11.758 11.76,11.758 6.5,0 11.76,-5.273 11.76,-11.758 0,-6.504 -5.26,-11.769 -11.76,-11.769 -6.5,0 -11.76,5.265 -11.76,11.769"
         style="fill:#ffffff;fill-opacity:1;fill-rule:nonzero;stroke:none"
         transform="matrix(0.13333333,0,0,-0.13333333,0,145.92)" />
      <path
         id="path16"
         d="m 1250.12,901.242 c 0,6.485 5.26,11.758 11.76,11.758 6.5,0 11.76,-5.273 11.76,-11.758 0,-6.504 -5.26,-11.769 -11.76,-11.769 -6.5,0 -11.76,5.265 -11.76,11.769 z"
         style="fill:none;stroke:#231f20;stroke-width:5;stroke-linecap:butt;stroke-linejoin:miter;stroke-miterlimit:10;stroke-dasharray:none;stroke-opacity:1"
         transform="matrix(0.13333333,0,0,-0.13333333,0,145.92)" />
      <path
         id="path17"
         d="m 383.035,160.793 c 0,6.492 5.266,11.758 11.762,11.758 6.504,0 11.766,-5.266 11.766,-11.758 0,-6.496 -5.262,-11.758 -11.766,-11.758 -6.496,0 -11.762,5.262 -11.762,11.758"
         style="fill:#ffffff;fill-opacity:1;fill-rule:nonzero;stroke:none"
         transform="matrix(0.13333333,0,0,-0.13333333,0,145.92)" />
      <path
         id="path18"
         d="m 383.035,160.793 c 0,6.492 5.266,11.758 11.762,11.758 6.504,0 11.766,-5.266 11.766,-11.758 0,-6.496 -5.262,-11.758 -11.766,-11.758 -6.496,0 -11.762,5.262 -11.762,11.758 z"
         style="fill:none;stroke:#231f20;stroke-width:5;stroke-linecap:butt;stroke-linejoin:miter;stroke-miterlimit:10;stroke-dasharray:none;stroke-opacity:1"
         transform="matrix(0.13333333,0,0,-0.13333333,0,145.92)" />
      <path
         id="path19"
         d="M 347.441,840.098 H 1310.42 V 219.512 H 347.441 Z"
         style="fill:none;stroke:#231f20;stroke-width:5;stroke-linecap:butt;stroke-linejoin:miter;stroke-miterlimit:10;stroke-dasharray:none;stroke-opacity:1"
         transform="matrix(0.13333333,0,0,-0.13333333,0,145.92)" />
    </g>
  </g>
</svg>
