<?xml version="1.0" encoding="UTF-8" standalone="no"?>
<!-- Created with Inkscape (http://www.inkscape.org/) -->

<svg
   version="1.1"
   id="svg1"
   width="85.066666"
   height="102.45333"
   viewBox="0 0 85.066666 102.45333"
   sodipodi:docname="pha06f44.eps"
   xmlns:inkscape="http://www.inkscape.org/namespaces/inkscape"
   xmlns:sodipodi="http://sodipodi.sourceforge.net/DTD/sodipodi-0.dtd"
   xmlns="http://www.w3.org/2000/svg"
   xmlns:svg="http://www.w3.org/2000/svg">
  <defs
     id="defs1" />
  <sodipodi:namedview
     id="namedview1"
     pagecolor="#ffffff"
     bordercolor="#000000"
     borderopacity="0.25"
     inkscape:showpageshadow="2"
     inkscape:pageopacity="0.0"
     inkscape:pagecheckerboard="0"
     inkscape:deskcolor="#d1d1d1">
    <inkscape:page
       x="0"
       y="0"
       inkscape:label="1"
       id="page1"
       width="85.066666"
       height="102.45333"
       margin="0"
       bleed="0" />
  </sodipodi:namedview>
  <g
     id="g1"
     inkscape:groupmode="layer"
     inkscape:label="1">
    <g
       id="group-R5">
      <path
         id="path2"
         d="M 112.844,1.83984 636.316,481.996"
         style="fill:none;stroke:#231f20;stroke-width:5;stroke-linecap:butt;stroke-linejoin:miter;stroke-miterlimit:10;stroke-dasharray:none;stroke-opacity:1"
         transform="matrix(0.13333333,0,0,-0.13333333,0,102.45333)" />
      <path
         id="path3"
         d="M 111.445,519.664 220.305,272.563"
         style="fill:none;stroke:#231f20;stroke-width:5;stroke-linecap:butt;stroke-linejoin:miter;stroke-miterlimit:10;stroke-dasharray:25, 15;stroke-dashoffset:0;stroke-opacity:1"
         transform="matrix(0.13333333,0,0,-0.13333333,0,102.45333)" />
      <path
         id="path4"
         d="M 2.28516,767.426 95.0117,556.965"
         style="fill:none;stroke:#231f20;stroke-width:5;stroke-linecap:butt;stroke-linejoin:miter;stroke-miterlimit:10;stroke-dasharray:none;stroke-opacity:1"
         transform="matrix(0.13333333,0,0,-0.13333333,0,102.45333)" />
      <path
         id="path5"
         d="m 91.3984,565.176 12.0586,17.289 0.625,-0.395 1.16,-31.586 c 2.071,-10.273 4.145,-20.546 6.203,-30.82 -6.179,8.457 -12.3708,16.914 -18.5622,25.371 l -22.5234,22.176 0.0429,0.691 20.9961,-2.726"
         style="fill:#231f20;fill-opacity:1;fill-rule:nonzero;stroke:none"
         transform="matrix(0.13333333,0,0,-0.13333333,0,102.45333)" />
      <path
         id="path6"
         d="M 315.801,279.477 363.43,172.184"
         style="fill:none;stroke:#231f20;stroke-width:5;stroke-linecap:butt;stroke-linejoin:miter;stroke-miterlimit:10;stroke-dasharray:25, 15;stroke-dashoffset:0;stroke-opacity:1"
         transform="matrix(0.13333333,0,0,-0.13333333,0,102.45333)" />
      <path
         id="path7"
         d="m 266.887,392.504 37.84,-85.918"
         style="fill:none;stroke:#231f20;stroke-width:5;stroke-linecap:butt;stroke-linejoin:miter;stroke-miterlimit:10;stroke-dasharray:none;stroke-opacity:1"
         transform="matrix(0.13333333,0,0,-0.13333333,0,102.45333)" />
      <path
         id="path8"
         d="m 301.113,314.801 12.071,17.289 0.617,-0.399 1.172,-31.589 c 2.058,-10.274 4.129,-20.547 6.187,-30.821 -6.18,8.457 -12.371,16.922 -18.555,25.379 l -22.515,22.176 0.027,0.687 20.996,-2.722"
         style="fill:#231f20;fill-opacity:1;fill-rule:nonzero;stroke:none"
         transform="matrix(0.13333333,0,0,-0.13333333,0,102.45333)" />
      <path
         id="path9"
         d="m 351.66,172.184 c 0,6.492 5.266,11.765 11.77,11.765 6.492,0 11.758,-5.273 11.758,-11.765 0,-6.496 -5.266,-11.77 -11.758,-11.77 -6.504,0 -11.77,5.274 -11.77,11.77"
         style="fill:#ffffff;fill-opacity:1;fill-rule:nonzero;stroke:none"
         transform="matrix(0.13333333,0,0,-0.13333333,0,102.45333)" />
      <path
         id="path10"
         d="m 351.66,172.184 c 0,6.492 5.266,11.765 11.77,11.765 6.492,0 11.758,-5.273 11.758,-11.765 0,-6.496 -5.266,-11.77 -11.758,-11.77 -6.504,0 -11.77,5.274 -11.77,11.77 z"
         style="fill:none;stroke:#231f20;stroke-width:5;stroke-linecap:butt;stroke-linejoin:miter;stroke-miterlimit:10;stroke-dasharray:none;stroke-opacity:1"
         transform="matrix(0.13333333,0,0,-0.13333333,0,102.45333)" />
      <path
         id="path11"
         d="m 255.535,392.406 c 0,6.496 5.278,11.758 11.77,11.758 6.496,0 11.758,-5.262 11.758,-11.758 0,-6.504 -5.262,-11.758 -11.758,-11.758 -6.492,0 -11.77,5.254 -11.77,11.758"
         style="fill:#231f20;fill-opacity:1;fill-rule:nonzero;stroke:none"
         transform="matrix(0.13333333,0,0,-0.13333333,0,102.45333)" />
      <path
         id="path12"
         d="m 255.535,392.406 c 0,6.496 5.278,11.758 11.77,11.758 6.496,0 11.758,-5.262 11.758,-11.758 0,-6.504 -5.262,-11.758 -11.758,-11.758 -6.492,0 -11.77,5.254 -11.77,11.758 z"
         style="fill:none;stroke:#231f20;stroke-width:5;stroke-linecap:butt;stroke-linejoin:miter;stroke-miterlimit:10;stroke-dasharray:none;stroke-opacity:1"
         transform="matrix(0.13333333,0,0,-0.13333333,0,102.45333)" />
    </g>
  </g>
</svg>
