<?xml version="1.0" encoding="UTF-8" standalone="no"?>
<!-- Created with Inkscape (http://www.inkscape.org/) -->

<svg
   version="1.1"
   id="svg1"
   width="225.64"
   height="107.85333"
   viewBox="0 0 225.64 107.85333"
   sodipodi:docname="pha06f25.eps"
   xmlns:inkscape="http://www.inkscape.org/namespaces/inkscape"
   xmlns:sodipodi="http://sodipodi.sourceforge.net/DTD/sodipodi-0.dtd"
   xmlns="http://www.w3.org/2000/svg"
   xmlns:svg="http://www.w3.org/2000/svg">
  <defs
     id="defs1" />
  <sodipodi:namedview
     id="namedview1"
     pagecolor="#ffffff"
     bordercolor="#000000"
     borderopacity="0.25"
     inkscape:showpageshadow="2"
     inkscape:pageopacity="0.0"
     inkscape:pagecheckerboard="0"
     inkscape:deskcolor="#d1d1d1">
    <inkscape:page
       x="0"
       y="0"
       inkscape:label="1"
       id="page1"
       width="225.64"
       height="107.85333"
       margin="0"
       bleed="0" />
  </sodipodi:namedview>
  <g
     id="g1"
     inkscape:groupmode="layer"
     inkscape:label="1">
    <g
       id="group-R5">
      <path
         id="path2"
         d="M 1377.84,656.465 V 153.516"
         style="fill:none;stroke:#231f20;stroke-width:5;stroke-linecap:butt;stroke-linejoin:miter;stroke-miterlimit:10;stroke-dasharray:none;stroke-opacity:1"
         transform="matrix(0.13333333,0,0,-0.13333333,0,107.85333)" />
      <path
         id="path3"
         d="M 1690.18,806.426 H 200.961 L 4.625,506.504 H 1493.85 l 196.33,299.922"
         style="fill:none;stroke:#231f20;stroke-width:5;stroke-linecap:butt;stroke-linejoin:miter;stroke-miterlimit:10;stroke-dasharray:none;stroke-opacity:1"
         transform="matrix(0.13333333,0,0,-0.13333333,0,107.85333)" />
      <path
         id="path4"
         d="M 1690.18,302.422 H 200.961 L 4.625,2.5 H 1493.85 l 196.33,299.922"
         style="fill:none;stroke:#231f20;stroke-width:5;stroke-linecap:butt;stroke-linejoin:miter;stroke-miterlimit:10;stroke-dasharray:none;stroke-opacity:1"
         transform="matrix(0.13333333,0,0,-0.13333333,0,107.85333)" />
      <path
         id="path5"
         d="M 276.586,546.23 1273.64,701.578"
         style="fill:none;stroke:#231f20;stroke-width:5;stroke-linecap:butt;stroke-linejoin:miter;stroke-miterlimit:10;stroke-dasharray:none;stroke-opacity:1"
         transform="matrix(0.13333333,0,0,-0.13333333,0,107.85333)" />
      <path
         id="path6"
         d="m 1264.77,700.195 -13.6,16.114 0.54,0.5 30.82,-7.008 c 10.46,-0.649 20.92,-1.301 31.38,-1.949 -9.76,-3.797 -19.53,-7.598 -29.3,-11.403 l -27.22,-16.047 -0.66,0.207 8.04,19.586"
         style="fill:#231f20;fill-opacity:1;fill-rule:nonzero;stroke:none"
         transform="matrix(0.13333333,0,0,-0.13333333,0,107.85333)" />
      <path
         id="path7"
         d="M 1349,33.0078 284.043,234.078"
         style="fill:none;stroke:#231f20;stroke-width:5;stroke-linecap:butt;stroke-linejoin:miter;stroke-miterlimit:10;stroke-dasharray:none;stroke-opacity:1"
         transform="matrix(0.13333333,0,0,-0.13333333,0,107.85333)" />
      <path
         id="path8"
         d="m 292.859,232.41 7.43,-19.734 -0.684,-0.281 -26.699,16.914 c -9.64,4.109 -19.277,8.222 -28.918,12.332 10.477,0.312 20.95,0.625 31.426,0.941 l 31.027,6.016 0.547,-0.414 -14.129,-15.774"
         style="fill:#231f20;fill-opacity:1;fill-rule:nonzero;stroke:none"
         transform="matrix(0.13333333,0,0,-0.13333333,0,107.85333)" />
      <path
         id="path9"
         d="m 1366.08,656.465 c 0,6.504 5.27,11.769 11.76,11.769 6.5,0 11.76,-5.265 11.76,-11.769 0,-6.492 -5.26,-11.758 -11.76,-11.758 -6.49,0 -11.76,5.266 -11.76,11.758"
         style="fill:#231f20;fill-opacity:1;fill-rule:nonzero;stroke:none"
         transform="matrix(0.13333333,0,0,-0.13333333,0,107.85333)" />
      <path
         id="path10"
         d="m 1366.08,656.465 c 0,6.504 5.27,11.769 11.76,11.769 6.5,0 11.76,-5.265 11.76,-11.769 0,-6.492 -5.26,-11.758 -11.76,-11.758 -6.49,0 -11.76,5.266 -11.76,11.758 z"
         style="fill:none;stroke:#231f20;stroke-width:2.5;stroke-linecap:butt;stroke-linejoin:miter;stroke-miterlimit:10;stroke-dasharray:none;stroke-opacity:1"
         transform="matrix(0.13333333,0,0,-0.13333333,0,107.85333)" />
      <path
         id="path11"
         d="m 1366.08,158.965 c 0,6.484 5.27,11.758 11.76,11.758 6.5,0 11.76,-5.274 11.76,-11.758 0,-6.504 -5.26,-11.77 -11.76,-11.77 -6.49,0 -11.76,5.266 -11.76,11.77"
         style="fill:#231f20;fill-opacity:1;fill-rule:nonzero;stroke:none"
         transform="matrix(0.13333333,0,0,-0.13333333,0,107.85333)" />
      <path
         id="path12"
         d="m 1366.08,158.965 c 0,6.484 5.27,11.758 11.76,11.758 6.5,0 11.76,-5.274 11.76,-11.758 0,-6.504 -5.26,-11.77 -11.76,-11.77 -6.49,0 -11.76,5.266 -11.76,11.77 z"
         style="fill:none;stroke:#231f20;stroke-width:2.5;stroke-linecap:butt;stroke-linejoin:miter;stroke-miterlimit:10;stroke-dasharray:none;stroke-opacity:1"
         transform="matrix(0.13333333,0,0,-0.13333333,0,107.85333)" />
    </g>
  </g>
</svg>
