<?xml version="1.0" encoding="UTF-8" standalone="no"?>
<!-- Created with Inkscape (http://www.inkscape.org/) -->

<svg
   version="1.1"
   id="svg1"
   width="97.239998"
   height="97.239998"
   viewBox="0 0 97.239998 97.239998"
   sodipodi:docname="pha06f15.eps"
   xmlns:inkscape="http://www.inkscape.org/namespaces/inkscape"
   xmlns:sodipodi="http://sodipodi.sourceforge.net/DTD/sodipodi-0.dtd"
   xmlns="http://www.w3.org/2000/svg"
   xmlns:svg="http://www.w3.org/2000/svg">
  <defs
     id="defs1" />
  <sodipodi:namedview
     id="namedview1"
     pagecolor="#ffffff"
     bordercolor="#000000"
     borderopacity="0.25"
     inkscape:showpageshadow="2"
     inkscape:pageopacity="0.0"
     inkscape:pagecheckerboard="0"
     inkscape:deskcolor="#d1d1d1">
    <inkscape:page
       x="0"
       y="0"
       inkscape:label="1"
       id="page1"
       width="97.239998"
       height="97.239998"
       margin="0"
       bleed="0" />
  </sodipodi:namedview>
  <g
     id="g1"
     inkscape:groupmode="layer"
     inkscape:label="1">
    <g
       id="group-R5">
      <path
         id="path2"
         d="M 726.813,2.5 H 2.5 v 724.313"
         style="fill:#e5e4e4;fill-opacity:1;fill-rule:evenodd;stroke:none"
         transform="matrix(0.13333333,0,0,-0.13333333,0,97.24)" />
      <path
         id="path3"
         d="m 351.566,634.738 c 0,6.492 5.27,11.762 11.762,11.762 6.496,0 11.766,-5.27 11.766,-11.762 0,-6.496 -5.27,-11.758 -11.766,-11.758 -6.492,0 -11.762,5.262 -11.762,11.758"
         style="fill:#231f20;fill-opacity:1;fill-rule:nonzero;stroke:none"
         transform="matrix(0.13333333,0,0,-0.13333333,0,97.24)" />
      <path
         id="path4"
         d="m 351.566,634.738 c 0,6.492 5.27,11.762 11.762,11.762 6.496,0 11.766,-5.27 11.766,-11.762 0,-6.496 -5.27,-11.758 -11.766,-11.758 -6.492,0 -11.762,5.262 -11.762,11.758 z"
         style="fill:none;stroke:#231f20;stroke-width:5;stroke-linecap:butt;stroke-linejoin:miter;stroke-miterlimit:10;stroke-dasharray:none;stroke-opacity:1"
         transform="matrix(0.13333333,0,0,-0.13333333,0,97.24)" />
      <path
         id="path5"
         d="M 726.816,2.5 H 2.5 v 724.313 h 724.316 z"
         style="fill:none;stroke:#231f20;stroke-width:5;stroke-linecap:butt;stroke-linejoin:miter;stroke-miterlimit:10;stroke-dasharray:none;stroke-opacity:1"
         transform="matrix(0.13333333,0,0,-0.13333333,0,97.24)" />
      <path
         id="path6"
         d="M 2.5,726.813 726.813,2.5"
         style="fill:none;stroke:#231f20;stroke-width:5;stroke-linecap:butt;stroke-linejoin:miter;stroke-miterlimit:10;stroke-dasharray:none;stroke-opacity:1"
         transform="matrix(0.13333333,0,0,-0.13333333,0,97.24)" />
      <path
         id="path7"
         d="m 83.4805,364.66 c 0,6.492 5.2656,11.758 11.7617,11.758 6.4958,0 11.7618,-5.266 11.7618,-11.758 0,-6.496 -5.266,-11.765 -11.7618,-11.765 -6.4961,0 -11.7617,5.269 -11.7617,11.765"
         style="fill:#231f20;fill-opacity:1;fill-rule:nonzero;stroke:none"
         transform="matrix(0.13333333,0,0,-0.13333333,0,97.24)" />
      <path
         id="path8"
         d="m 83.4805,364.66 c 0,6.492 5.2656,11.758 11.7617,11.758 6.4958,0 11.7618,-5.266 11.7618,-11.758 0,-6.496 -5.266,-11.765 -11.7618,-11.765 -6.4961,0 -11.7617,5.269 -11.7617,11.765 z"
         style="fill:none;stroke:#231f20;stroke-width:5;stroke-linecap:butt;stroke-linejoin:miter;stroke-miterlimit:10;stroke-dasharray:none;stroke-opacity:1"
         transform="matrix(0.13333333,0,0,-0.13333333,0,97.24)" />
      <path
         id="path9"
         d="M 335.93,638.906 C 273.746,639.547 193.621,573.527 174.063,555.254 159.285,541.445 121.871,482.902 104.441,436.25"
         style="fill:none;stroke:#231f20;stroke-width:5;stroke-linecap:butt;stroke-linejoin:miter;stroke-miterlimit:10;stroke-dasharray:none;stroke-opacity:1"
         transform="matrix(0.13333333,0,0,-0.13333333,0,97.24)" />
      <path
         id="path10"
         d="m 107.703,444.727 20.188,6.093 0.238,-0.699 -18.652,-25.512 c -4.747,-9.343 -9.4887,-18.691 -14.2348,-28.031 0.3867,10.473 0.7734,20.942 1.1562,31.414 l -3.9375,31.363 0.4532,0.52 14.7889,-15.148"
         style="fill:#231f20;fill-opacity:1;fill-rule:nonzero;stroke:none"
         transform="matrix(0.13333333,0,0,-0.13333333,0,97.24)" />
    </g>
  </g>
</svg>
