<?xml version="1.0" encoding="UTF-8" standalone="no"?>
<!-- Created with Inkscape (http://www.inkscape.org/) -->

<svg
   version="1.1"
   id="svg1"
   width="227.05333"
   height="88.080002"
   viewBox="0 0 227.05333 88.080002"
   sodipodi:docname="pha06f47.eps"
   xmlns:inkscape="http://www.inkscape.org/namespaces/inkscape"
   xmlns:sodipodi="http://sodipodi.sourceforge.net/DTD/sodipodi-0.dtd"
   xmlns="http://www.w3.org/2000/svg"
   xmlns:svg="http://www.w3.org/2000/svg">
  <defs
     id="defs1" />
  <sodipodi:namedview
     id="namedview1"
     pagecolor="#ffffff"
     bordercolor="#000000"
     borderopacity="0.25"
     inkscape:showpageshadow="2"
     inkscape:pageopacity="0.0"
     inkscape:pagecheckerboard="0"
     inkscape:deskcolor="#d1d1d1">
    <inkscape:page
       x="0"
       y="0"
       inkscape:label="1"
       id="page1"
       width="227.05333"
       height="88.080002"
       margin="0"
       bleed="0" />
  </sodipodi:namedview>
  <g
     id="g1"
     inkscape:groupmode="layer"
     inkscape:label="1">
    <g
       id="group-R5">
      <path
         id="path2"
         d="M 928.363,583.652 V 357.977"
         style="fill:none;stroke:#a7a5a6;stroke-width:5;stroke-linecap:butt;stroke-linejoin:bevel;stroke-miterlimit:10;stroke-dasharray:25, 15;stroke-dashoffset:0;stroke-opacity:1"
         transform="matrix(0.13333333,0,0,-0.13333333,0,88.08)" />
      <path
         id="path3"
         d="M 902.445,509.852 V 360.301"
         style="fill:none;stroke:#a7a5a6;stroke-width:5;stroke-linecap:butt;stroke-linejoin:bevel;stroke-miterlimit:10;stroke-dasharray:none;stroke-opacity:1"
         transform="matrix(0.13333333,0,0,-0.13333333,0,88.08)" />
      <path
         id="path4"
         d="M 827.574,413.496 V 368.242"
         style="fill:none;stroke:#a7a5a6;stroke-width:5;stroke-linecap:butt;stroke-linejoin:bevel;stroke-miterlimit:10;stroke-dasharray:20, 20;stroke-dashoffset:0;stroke-opacity:1"
         transform="matrix(0.13333333,0,0,-0.13333333,0,88.08)" />
      <path
         id="path5"
         d="M 725.035,447.117 V 377.969"
         style="fill:none;stroke:#a7a5a6;stroke-width:5;stroke-linecap:butt;stroke-linejoin:bevel;stroke-miterlimit:10;stroke-dasharray:20, 20;stroke-dashoffset:0;stroke-opacity:1"
         transform="matrix(0.13333333,0,0,-0.13333333,0,88.08)" />
      <path
         id="path6"
         d="m 772.211,516.016 v -143"
         style="fill:none;stroke:#a7a5a6;stroke-width:5;stroke-linecap:butt;stroke-linejoin:bevel;stroke-miterlimit:10;stroke-dasharray:25, 15;stroke-dashoffset:0;stroke-opacity:1"
         transform="matrix(0.13333333,0,0,-0.13333333,0,88.08)" />
      <path
         id="path7"
         d="M 661.988,600.215 V 384.344"
         style="fill:none;stroke:#a7a5a6;stroke-width:5;stroke-linecap:butt;stroke-linejoin:bevel;stroke-miterlimit:10;stroke-dasharray:25, 15;stroke-dashoffset:0;stroke-opacity:1"
         transform="matrix(0.13333333,0,0,-0.13333333,0,88.08)" />
      <path
         id="path8"
         d="M 724.547,445.82 826.48,413.73 1012.6,477.004 928.402,582.449 661.031,599.871 513.316,524.688 768.863,516.426 Z"
         style="fill:none;stroke:#231f20;stroke-width:5;stroke-linecap:butt;stroke-linejoin:bevel;stroke-miterlimit:10;stroke-dasharray:none;stroke-opacity:1"
         transform="matrix(0.13333333,0,0,-0.13333333,0,88.08)" />
      <path
         id="path9"
         d="M 1139.27,2.5 109.609,4.62891 406.762,287.273 1436.43,285.156 Z"
         style="fill:none;stroke:#231f20;stroke-width:5;stroke-linecap:butt;stroke-linejoin:bevel;stroke-miterlimit:10;stroke-dasharray:none;stroke-opacity:1"
         transform="matrix(0.13333333,0,0,-0.13333333,0,88.08)" />
      <path
         id="path10"
         d="M 726.078,97.7734 828.004,72.5781 1014.13,122.246 929.926,205.027 662.563,218.711 514.84,159.676 770.395,153.203 726.078,97.7734"
         style="fill:#e5e4e4;fill-opacity:1;fill-rule:nonzero;stroke:#231f20;stroke-width:5;stroke-linecap:butt;stroke-linejoin:bevel;stroke-miterlimit:10;stroke-dasharray:none;stroke-opacity:1"
         transform="matrix(0.13333333,0,0,-0.13333333,0,88.08)" />
      <path
         id="path11"
         d="M 827.574,368.242 V 71.6328"
         style="fill:none;stroke:#231f20;stroke-width:5;stroke-linecap:butt;stroke-linejoin:bevel;stroke-miterlimit:10;stroke-dasharray:25, 15;stroke-dashoffset:0;stroke-opacity:1"
         transform="matrix(0.13333333,0,0,-0.13333333,0,88.08)" />
      <path
         id="path12"
         d="M 1013.65,349.305 V 123.691"
         style="fill:none;stroke:#231f20;stroke-width:5;stroke-linecap:butt;stroke-linejoin:bevel;stroke-miterlimit:10;stroke-dasharray:25, 15;stroke-dashoffset:0;stroke-opacity:1"
         transform="matrix(0.13333333,0,0,-0.13333333,0,88.08)" />
      <path
         id="path13"
         d="M 1013.65,477.117 V 349.305"
         style="fill:none;stroke:#a7a5a6;stroke-width:5;stroke-linecap:butt;stroke-linejoin:bevel;stroke-miterlimit:10;stroke-dasharray:25, 15;stroke-dashoffset:0;stroke-opacity:1"
         transform="matrix(0.13333333,0,0,-0.13333333,0,88.08)" />
      <path
         id="path14"
         d="M 725.035,377.969 V 96.5625"
         style="fill:none;stroke:#231f20;stroke-width:5;stroke-linecap:butt;stroke-linejoin:bevel;stroke-miterlimit:10;stroke-dasharray:25, 15;stroke-dashoffset:0;stroke-opacity:1"
         transform="matrix(0.13333333,0,0,-0.13333333,0,88.08)" />
      <path
         id="path15"
         d="M 772.211,373.016 V 153.223"
         style="fill:none;stroke:#231f20;stroke-width:5;stroke-linecap:butt;stroke-linejoin:bevel;stroke-miterlimit:10;stroke-dasharray:25, 15;stroke-dashoffset:0;stroke-opacity:1"
         transform="matrix(0.13333333,0,0,-0.13333333,0,88.08)" />
      <path
         id="path16"
         d="M 511.793,399.211 V 160.633"
         style="fill:none;stroke:#231f20;stroke-width:5;stroke-linecap:butt;stroke-linejoin:bevel;stroke-miterlimit:10;stroke-dasharray:25, 15;stroke-dashoffset:0;stroke-opacity:1"
         transform="matrix(0.13333333,0,0,-0.13333333,0,88.08)" />
      <path
         id="path17"
         d="M 511.793,526.297 V 399.211"
         style="fill:none;stroke:#a7a5a6;stroke-width:5;stroke-linecap:butt;stroke-linejoin:bevel;stroke-miterlimit:10;stroke-dasharray:25, 15;stroke-dashoffset:0;stroke-opacity:1"
         transform="matrix(0.13333333,0,0,-0.13333333,0,88.08)" />
      <path
         id="path18"
         d="M 661.988,384.344 V 219.422"
         style="fill:none;stroke:#231f20;stroke-width:5;stroke-linecap:butt;stroke-linejoin:bevel;stroke-miterlimit:10;stroke-dasharray:25, 15;stroke-dashoffset:0;stroke-opacity:1"
         transform="matrix(0.13333333,0,0,-0.13333333,0,88.08)" />
      <path
         id="path19"
         d="M 928.363,357.977 V 205.027"
         style="fill:none;stroke:#231f20;stroke-width:5;stroke-linecap:butt;stroke-linejoin:bevel;stroke-miterlimit:10;stroke-dasharray:25, 15;stroke-dashoffset:0;stroke-opacity:1"
         transform="matrix(0.13333333,0,0,-0.13333333,0,88.08)" />
      <path
         id="path20"
         d="m 761.234,516.367 c 0,2.149 3.567,3.887 7.961,3.887 4.395,0 7.957,-1.738 7.957,-3.887 0,-2.14 -3.562,-3.879 -7.957,-3.879 -4.394,0 -7.961,1.739 -7.961,3.879"
         style="fill:#ffffff;fill-opacity:1;fill-rule:nonzero;stroke:none"
         transform="matrix(0.13333333,0,0,-0.13333333,0,88.08)" />
      <path
         id="path21"
         d="m 761.234,516.367 c 0,2.149 3.567,3.887 7.961,3.887 4.395,0 7.957,-1.738 7.957,-3.887 0,-2.14 -3.562,-3.879 -7.957,-3.879 -4.394,0 -7.961,1.739 -7.961,3.879 z"
         style="fill:none;stroke:#231f20;stroke-width:5;stroke-linecap:butt;stroke-linejoin:bevel;stroke-miterlimit:10;stroke-dasharray:none;stroke-opacity:1"
         transform="matrix(0.13333333,0,0,-0.13333333,0,88.08)" />
      <path
         id="path22"
         d="m 894.488,142.488 c 0,2.141 3.563,3.879 7.957,3.879 4.407,0 7.961,-1.738 7.961,-3.879 0,-2.136 -3.554,-3.875 -7.961,-3.875 -4.394,0 -7.957,1.739 -7.957,3.875"
         style="fill:#231f20;fill-opacity:1;fill-rule:nonzero;stroke:none"
         transform="matrix(0.13333333,0,0,-0.13333333,0,88.08)" />
      <path
         id="path23"
         d="m 894.488,142.488 c 0,2.141 3.563,3.879 7.957,3.879 4.407,0 7.961,-1.738 7.961,-3.879 0,-2.136 -3.554,-3.875 -7.961,-3.875 -4.394,0 -7.957,1.739 -7.957,3.875 z"
         style="fill:none;stroke:#231f20;stroke-width:5;stroke-linecap:butt;stroke-linejoin:bevel;stroke-miterlimit:10;stroke-dasharray:none;stroke-opacity:1"
         transform="matrix(0.13333333,0,0,-0.13333333,0,88.08)" />
      <path
         id="path24"
         d="m 715.074,445.477 c 0,2.14 3.563,3.878 7.969,3.878 4.395,0 7.949,-1.738 7.949,-3.878 0,-2.137 -3.554,-3.875 -7.949,-3.875 -4.406,0 -7.969,1.738 -7.969,3.875"
         style="fill:#ffffff;fill-opacity:1;fill-rule:nonzero;stroke:none"
         transform="matrix(0.13333333,0,0,-0.13333333,0,88.08)" />
      <path
         id="path25"
         d="m 715.074,445.477 c 0,2.14 3.563,3.878 7.969,3.878 4.395,0 7.949,-1.738 7.949,-3.878 0,-2.137 -3.554,-3.875 -7.949,-3.875 -4.406,0 -7.969,1.738 -7.969,3.875 z"
         style="fill:none;stroke:#231f20;stroke-width:5;stroke-linecap:butt;stroke-linejoin:bevel;stroke-miterlimit:10;stroke-dasharray:none;stroke-opacity:1"
         transform="matrix(0.13333333,0,0,-0.13333333,0,88.08)" />
      <path
         id="path26"
         d="m 819.723,414.363 c 0,2.141 3.574,3.879 7.968,3.879 4.395,0 7.957,-1.738 7.957,-3.879 0,-2.136 -3.562,-3.875 -7.957,-3.875 -4.394,0 -7.968,1.739 -7.968,3.875"
         style="fill:#ffffff;fill-opacity:1;fill-rule:nonzero;stroke:none"
         transform="matrix(0.13333333,0,0,-0.13333333,0,88.08)" />
      <path
         id="path27"
         d="m 819.723,414.363 c 0,2.141 3.574,3.879 7.968,3.879 4.395,0 7.957,-1.738 7.957,-3.879 0,-2.136 -3.562,-3.875 -7.957,-3.875 -4.394,0 -7.968,1.739 -7.968,3.875 z"
         style="fill:none;stroke:#231f20;stroke-width:5;stroke-linecap:butt;stroke-linejoin:bevel;stroke-miterlimit:10;stroke-dasharray:none;stroke-opacity:1"
         transform="matrix(0.13333333,0,0,-0.13333333,0,88.08)" />
      <path
         id="path28"
         d="m 919.352,582.539 c 0,2.149 3.562,3.887 7.957,3.887 4.394,0 7.961,-1.738 7.961,-3.887 0,-2.129 -3.567,-3.867 -7.961,-3.867 -4.395,0 -7.957,1.738 -7.957,3.867"
         style="fill:#ffffff;fill-opacity:1;fill-rule:nonzero;stroke:none"
         transform="matrix(0.13333333,0,0,-0.13333333,0,88.08)" />
      <path
         id="path29"
         d="m 919.352,582.539 c 0,2.149 3.562,3.887 7.957,3.887 4.394,0 7.961,-1.738 7.961,-3.887 0,-2.129 -3.567,-3.867 -7.961,-3.867 -4.395,0 -7.957,1.738 -7.957,3.867 z"
         style="fill:none;stroke:#231f20;stroke-width:5;stroke-linecap:butt;stroke-linejoin:bevel;stroke-miterlimit:10;stroke-dasharray:none;stroke-opacity:1"
         transform="matrix(0.13333333,0,0,-0.13333333,0,88.08)" />
      <path
         id="path30"
         d="m 652.027,599.559 c 0,2.14 3.563,3.879 7.957,3.879 4.407,0 7.961,-1.739 7.961,-3.879 0,-2.137 -3.554,-3.875 -7.961,-3.875 -4.394,0 -7.957,1.738 -7.957,3.875"
         style="fill:#ffffff;fill-opacity:1;fill-rule:nonzero;stroke:none"
         transform="matrix(0.13333333,0,0,-0.13333333,0,88.08)" />
      <path
         id="path31"
         d="m 652.027,599.559 c 0,2.14 3.563,3.879 7.957,3.879 4.407,0 7.961,-1.739 7.961,-3.879 0,-2.137 -3.554,-3.875 -7.961,-3.875 -4.394,0 -7.957,1.738 -7.957,3.875 z"
         style="fill:none;stroke:#231f20;stroke-width:5;stroke-linecap:butt;stroke-linejoin:bevel;stroke-miterlimit:10;stroke-dasharray:none;stroke-opacity:1"
         transform="matrix(0.13333333,0,0,-0.13333333,0,88.08)" />
      <path
         id="path32"
         d="m 502.289,522.156 c 0,6.496 5.266,11.77 11.758,11.77 6.496,0 11.769,-5.274 11.769,-11.77 0,-6.492 -5.273,-11.758 -11.769,-11.758 -6.492,0 -11.758,5.266 -11.758,11.758"
         style="fill:#ffffff;fill-opacity:1;fill-rule:nonzero;stroke:none"
         transform="matrix(0.13333333,0,0,-0.13333333,0,88.08)" />
      <path
         id="path33"
         d="m 502.289,522.156 c 0,6.496 5.266,11.77 11.758,11.77 6.496,0 11.769,-5.274 11.769,-11.77 0,-6.492 -5.273,-11.758 -11.769,-11.758 -6.492,0 -11.758,5.266 -11.758,11.758 z"
         style="fill:none;stroke:#231f20;stroke-width:5;stroke-linecap:butt;stroke-linejoin:bevel;stroke-miterlimit:10;stroke-dasharray:none;stroke-opacity:1"
         transform="matrix(0.13333333,0,0,-0.13333333,0,88.08)" />
      <path
         id="path34"
         d="m 1004.41,475.723 c 0,2.148 3.56,3.886 7.97,3.886 4.39,0 7.95,-1.738 7.95,-3.886 0,-2.137 -3.56,-3.868 -7.95,-3.868 -4.41,0 -7.97,1.731 -7.97,3.868"
         style="fill:#ffffff;fill-opacity:1;fill-rule:nonzero;stroke:none"
         transform="matrix(0.13333333,0,0,-0.13333333,0,88.08)" />
      <path
         id="path35"
         d="m 1004.41,475.723 c 0,2.148 3.56,3.886 7.97,3.886 4.39,0 7.95,-1.738 7.95,-3.886 0,-2.137 -3.56,-3.868 -7.95,-3.868 -4.41,0 -7.97,1.731 -7.97,3.868 z"
         style="fill:none;stroke:#231f20;stroke-width:5;stroke-linecap:butt;stroke-linejoin:bevel;stroke-miterlimit:10;stroke-dasharray:none;stroke-opacity:1"
         transform="matrix(0.13333333,0,0,-0.13333333,0,88.08)" />
      <path
         id="path36"
         d="m 763.813,153.328 c 0,2.141 3.566,3.879 7.96,3.879 4.395,0 7.969,-1.738 7.969,-3.879 0,-2.137 -3.574,-3.875 -7.969,-3.875 -4.394,0 -7.96,1.738 -7.96,3.875"
         style="fill:#ffffff;fill-opacity:1;fill-rule:nonzero;stroke:none"
         transform="matrix(0.13333333,0,0,-0.13333333,0,88.08)" />
      <path
         id="path37"
         d="m 763.813,153.328 c 0,2.141 3.566,3.879 7.96,3.879 4.395,0 7.969,-1.738 7.969,-3.879 0,-2.137 -3.574,-3.875 -7.969,-3.875 -4.394,0 -7.96,1.738 -7.96,3.875 z"
         style="fill:none;stroke:#231f20;stroke-width:5;stroke-linecap:butt;stroke-linejoin:bevel;stroke-miterlimit:10;stroke-dasharray:none;stroke-opacity:1"
         transform="matrix(0.13333333,0,0,-0.13333333,0,88.08)" />
      <path
         id="path38"
         d="m 921.246,204.492 c 0,2.141 3.563,3.867 7.957,3.867 4.395,0 7.961,-1.726 7.961,-3.867 0,-2.148 -3.566,-3.887 -7.961,-3.887 -4.394,0 -7.957,1.739 -7.957,3.887"
         style="fill:#ffffff;fill-opacity:1;fill-rule:nonzero;stroke:none"
         transform="matrix(0.13333333,0,0,-0.13333333,0,88.08)" />
      <path
         id="path39"
         d="m 921.246,204.492 c 0,2.141 3.563,3.867 7.957,3.867 4.395,0 7.961,-1.726 7.961,-3.867 0,-2.148 -3.566,-3.887 -7.961,-3.887 -4.394,0 -7.957,1.739 -7.957,3.887 z"
         style="fill:none;stroke:#231f20;stroke-width:5;stroke-linecap:butt;stroke-linejoin:bevel;stroke-miterlimit:10;stroke-dasharray:none;stroke-opacity:1"
         transform="matrix(0.13333333,0,0,-0.13333333,0,88.08)" />
      <path
         id="path40"
         d="m 1005.3,122.715 c 0,2.137 3.56,3.867 7.96,3.867 4.39,0 7.96,-1.73 7.96,-3.867 0,-2.149 -3.57,-3.887 -7.96,-3.887 -4.4,0 -7.96,1.738 -7.96,3.887"
         style="fill:#ffffff;fill-opacity:1;fill-rule:nonzero;stroke:none"
         transform="matrix(0.13333333,0,0,-0.13333333,0,88.08)" />
      <path
         id="path41"
         d="m 1005.3,122.715 c 0,2.137 3.56,3.867 7.96,3.867 4.39,0 7.96,-1.73 7.96,-3.867 0,-2.149 -3.57,-3.887 -7.96,-3.887 -4.4,0 -7.96,1.738 -7.96,3.887 z"
         style="fill:none;stroke:#231f20;stroke-width:5;stroke-linecap:butt;stroke-linejoin:bevel;stroke-miterlimit:10;stroke-dasharray:none;stroke-opacity:1"
         transform="matrix(0.13333333,0,0,-0.13333333,0,88.08)" />
      <path
         id="path42"
         d="m 819.645,72.7148 c 0,2.1368 3.562,3.8672 7.957,3.8672 4.394,0 7.961,-1.7304 7.961,-3.8672 0,-2.1484 -3.567,-3.8867 -7.961,-3.8867 -4.395,0 -7.957,1.7383 -7.957,3.8867"
         style="fill:#ffffff;fill-opacity:1;fill-rule:nonzero;stroke:none"
         transform="matrix(0.13333333,0,0,-0.13333333,0,88.08)" />
      <path
         id="path43"
         d="m 819.645,72.7148 c 0,2.1368 3.562,3.8672 7.957,3.8672 4.394,0 7.961,-1.7304 7.961,-3.8672 0,-2.1484 -3.567,-3.8867 -7.961,-3.8867 -4.395,0 -7.957,1.7383 -7.957,3.8867 z"
         style="fill:none;stroke:#231f20;stroke-width:5;stroke-linecap:butt;stroke-linejoin:bevel;stroke-miterlimit:10;stroke-dasharray:none;stroke-opacity:1"
         transform="matrix(0.13333333,0,0,-0.13333333,0,88.08)" />
      <path
         id="path44"
         d="m 718.473,97.3633 c 0,2.1406 3.554,3.8747 7.949,3.8747 4.402,0 7.969,-1.7341 7.969,-3.8747 0,-2.1485 -3.567,-3.8867 -7.969,-3.8867 -4.395,0 -7.949,1.7382 -7.949,3.8867"
         style="fill:#ffffff;fill-opacity:1;fill-rule:nonzero;stroke:none"
         transform="matrix(0.13333333,0,0,-0.13333333,0,88.08)" />
      <path
         id="path45"
         d="m 718.473,97.3633 c 0,2.1406 3.554,3.8747 7.949,3.8747 4.402,0 7.969,-1.7341 7.969,-3.8747 0,-2.1485 -3.567,-3.8867 -7.969,-3.8867 -4.395,0 -7.949,1.7382 -7.949,3.8867 z"
         style="fill:none;stroke:#231f20;stroke-width:5;stroke-linecap:butt;stroke-linejoin:bevel;stroke-miterlimit:10;stroke-dasharray:none;stroke-opacity:1"
         transform="matrix(0.13333333,0,0,-0.13333333,0,88.08)" />
      <path
         id="path46"
         d="m 654.996,219.219 c 0,2.148 3.555,3.886 7.957,3.886 4.395,0 7.961,-1.738 7.961,-3.886 0,-2.141 -3.566,-3.879 -7.961,-3.879 -4.402,0 -7.957,1.738 -7.957,3.879"
         style="fill:#ffffff;fill-opacity:1;fill-rule:nonzero;stroke:none"
         transform="matrix(0.13333333,0,0,-0.13333333,0,88.08)" />
      <path
         id="path47"
         d="m 654.996,219.219 c 0,2.148 3.555,3.886 7.957,3.886 4.395,0 7.961,-1.738 7.961,-3.886 0,-2.141 -3.566,-3.879 -7.961,-3.879 -4.402,0 -7.957,1.738 -7.957,3.879 z"
         style="fill:none;stroke:#231f20;stroke-width:5;stroke-linecap:butt;stroke-linejoin:bevel;stroke-miterlimit:10;stroke-dasharray:none;stroke-opacity:1"
         transform="matrix(0.13333333,0,0,-0.13333333,0,88.08)" />
      <path
         id="path48"
         d="m 502.945,159.109 c 0,2.141 3.563,3.879 7.957,3.879 4.395,0 7.961,-1.738 7.961,-3.879 0,-2.136 -3.566,-3.875 -7.961,-3.875 -4.394,0 -7.957,1.739 -7.957,3.875"
         style="fill:#ffffff;fill-opacity:1;fill-rule:nonzero;stroke:none"
         transform="matrix(0.13333333,0,0,-0.13333333,0,88.08)" />
      <path
         id="path49"
         d="m 502.945,159.109 c 0,2.141 3.563,3.879 7.957,3.879 4.395,0 7.961,-1.738 7.961,-3.879 0,-2.136 -3.566,-3.875 -7.961,-3.875 -4.394,0 -7.957,1.739 -7.957,3.875 z"
         style="fill:none;stroke:#231f20;stroke-width:5;stroke-linecap:butt;stroke-linejoin:bevel;stroke-miterlimit:10;stroke-dasharray:none;stroke-opacity:1"
         transform="matrix(0.13333333,0,0,-0.13333333,0,88.08)" />
      <path
         id="path50"
         d="M 902.445,360.301 V 143.633"
         style="fill:none;stroke:#231f20;stroke-width:5;stroke-linecap:butt;stroke-linejoin:bevel;stroke-miterlimit:10;stroke-dasharray:none;stroke-opacity:1"
         transform="matrix(0.13333333,0,0,-0.13333333,0,88.08)" />
      <path
         id="path51"
         d="m 894.488,509.852 c 0,2.14 3.563,3.878 7.957,3.878 4.407,0 7.961,-1.738 7.961,-3.878 0,-2.137 -3.554,-3.875 -7.961,-3.875 -4.394,0 -7.957,1.738 -7.957,3.875"
         style="fill:#231f20;fill-opacity:1;fill-rule:nonzero;stroke:none"
         transform="matrix(0.13333333,0,0,-0.13333333,0,88.08)" />
      <path
         id="path52"
         d="m 894.488,509.852 c 0,2.14 3.563,3.878 7.957,3.878 4.407,0 7.961,-1.738 7.961,-3.878 0,-2.137 -3.554,-3.875 -7.961,-3.875 -4.394,0 -7.957,1.738 -7.957,3.875 z"
         style="fill:none;stroke:#231f20;stroke-width:5;stroke-linecap:butt;stroke-linejoin:bevel;stroke-miterlimit:10;stroke-dasharray:none;stroke-opacity:1"
         transform="matrix(0.13333333,0,0,-0.13333333,0,88.08)" />
      <path
         id="path53"
         d="m 890.688,509.852 c 0,6.496 5.265,11.769 11.757,11.769 6.496,0 11.77,-5.273 11.77,-11.769 0,-6.493 -5.274,-11.758 -11.77,-11.758 -6.492,0 -11.757,5.265 -11.757,11.758"
         style="fill:#231f20;fill-opacity:1;fill-rule:nonzero;stroke:none"
         transform="matrix(0.13333333,0,0,-0.13333333,0,88.08)" />
      <path
         id="path54"
         d="m 890.688,509.852 c 0,6.496 5.265,11.769 11.757,11.769 6.496,0 11.77,-5.273 11.77,-11.769 0,-6.493 -5.274,-11.758 -11.77,-11.758 -6.492,0 -11.757,5.265 -11.757,11.758 z"
         style="fill:none;stroke:#231f20;stroke-width:5;stroke-linecap:butt;stroke-linejoin:bevel;stroke-miterlimit:10;stroke-dasharray:none;stroke-opacity:1"
         transform="matrix(0.13333333,0,0,-0.13333333,0,88.08)" />
      <path
         id="path55"
         d="m 890.688,141.465 c 0,6.496 5.265,11.758 11.757,11.758 6.496,0 11.77,-5.262 11.77,-11.758 0,-6.504 -5.274,-11.77 -11.77,-11.77 -6.492,0 -11.757,5.266 -11.757,11.77"
         style="fill:#231f20;fill-opacity:1;fill-rule:nonzero;stroke:none"
         transform="matrix(0.13333333,0,0,-0.13333333,0,88.08)" />
      <path
         id="path56"
         d="m 890.688,141.465 c 0,6.496 5.265,11.758 11.757,11.758 6.496,0 11.77,-5.262 11.77,-11.758 0,-6.504 -5.274,-11.77 -11.77,-11.77 -6.492,0 -11.757,5.266 -11.757,11.77 z"
         style="fill:none;stroke:#231f20;stroke-width:5;stroke-linecap:butt;stroke-linejoin:bevel;stroke-miterlimit:10;stroke-dasharray:none;stroke-opacity:1"
         transform="matrix(0.13333333,0,0,-0.13333333,0,88.08)" />
      <path
         id="path57"
         d="m 650.23,599.559 c 0,6.496 5.262,11.769 11.758,11.769 6.504,0 11.766,-5.273 11.766,-11.769 0,-6.493 -5.262,-11.766 -11.766,-11.766 -6.496,0 -11.758,5.273 -11.758,11.766"
         style="fill:#ffffff;fill-opacity:1;fill-rule:nonzero;stroke:none"
         transform="matrix(0.13333333,0,0,-0.13333333,0,88.08)" />
      <path
         id="path58"
         d="m 650.23,599.559 c 0,6.496 5.262,11.769 11.758,11.769 6.504,0 11.766,-5.273 11.766,-11.769 0,-6.493 -5.262,-11.766 -11.766,-11.766 -6.496,0 -11.758,5.273 -11.758,11.766 z"
         style="fill:none;stroke:#231f20;stroke-width:5;stroke-linecap:butt;stroke-linejoin:bevel;stroke-miterlimit:10;stroke-dasharray:none;stroke-opacity:1"
         transform="matrix(0.13333333,0,0,-0.13333333,0,88.08)" />
      <path
         id="path59"
         d="m 757.438,516.016 c 0,6.492 5.261,11.757 11.757,11.757 6.504,0 11.758,-5.265 11.758,-11.757 0,-6.504 -5.254,-11.77 -11.758,-11.77 -6.496,0 -11.757,5.266 -11.757,11.77"
         style="fill:#ffffff;fill-opacity:1;fill-rule:nonzero;stroke:none"
         transform="matrix(0.13333333,0,0,-0.13333333,0,88.08)" />
      <path
         id="path60"
         d="m 757.438,516.016 c 0,6.492 5.261,11.757 11.757,11.757 6.504,0 11.758,-5.265 11.758,-11.757 0,-6.504 -5.254,-11.77 -11.758,-11.77 -6.496,0 -11.757,5.266 -11.757,11.77 z"
         style="fill:none;stroke:#231f20;stroke-width:5;stroke-linecap:butt;stroke-linejoin:bevel;stroke-miterlimit:10;stroke-dasharray:none;stroke-opacity:1"
         transform="matrix(0.13333333,0,0,-0.13333333,0,88.08)" />
      <path
         id="path61"
         d="m 711.273,447.117 c 0,6.496 5.266,11.77 11.77,11.77 6.492,0 11.758,-5.274 11.758,-11.77 0,-6.492 -5.266,-11.765 -11.758,-11.765 -6.504,0 -11.77,5.273 -11.77,11.765"
         style="fill:#ffffff;fill-opacity:1;fill-rule:nonzero;stroke:none"
         transform="matrix(0.13333333,0,0,-0.13333333,0,88.08)" />
      <path
         id="path62"
         d="m 711.273,447.117 c 0,6.496 5.266,11.77 11.77,11.77 6.492,0 11.758,-5.274 11.758,-11.77 0,-6.492 -5.266,-11.765 -11.758,-11.765 -6.504,0 -11.77,5.273 -11.77,11.765 z"
         style="fill:none;stroke:#231f20;stroke-width:5;stroke-linecap:butt;stroke-linejoin:bevel;stroke-miterlimit:10;stroke-dasharray:none;stroke-opacity:1"
         transform="matrix(0.13333333,0,0,-0.13333333,0,88.08)" />
      <path
         id="path63"
         d="m 815.922,413.496 c 0,6.504 5.266,11.766 11.769,11.766 6.493,0 11.758,-5.262 11.758,-11.766 0,-6.484 -5.265,-11.758 -11.758,-11.758 -6.503,0 -11.769,5.274 -11.769,11.758"
         style="fill:#ffffff;fill-opacity:1;fill-rule:nonzero;stroke:none"
         transform="matrix(0.13333333,0,0,-0.13333333,0,88.08)" />
      <path
         id="path64"
         d="m 815.922,413.496 c 0,6.504 5.266,11.766 11.769,11.766 6.493,0 11.758,-5.262 11.758,-11.766 0,-6.484 -5.265,-11.758 -11.758,-11.758 -6.503,0 -11.769,5.274 -11.769,11.758 z"
         style="fill:none;stroke:#231f20;stroke-width:5;stroke-linecap:butt;stroke-linejoin:bevel;stroke-miterlimit:10;stroke-dasharray:none;stroke-opacity:1"
         transform="matrix(0.13333333,0,0,-0.13333333,0,88.08)" />
      <path
         id="path65"
         d="m 1000.61,475.723 c 0,6.504 5.26,11.765 11.77,11.765 6.49,0 11.76,-5.261 11.76,-11.765 0,-6.485 -5.27,-11.758 -11.76,-11.758 -6.51,0 -11.77,5.273 -11.77,11.758"
         style="fill:#ffffff;fill-opacity:1;fill-rule:nonzero;stroke:none"
         transform="matrix(0.13333333,0,0,-0.13333333,0,88.08)" />
      <path
         id="path66"
         d="m 1000.61,475.723 c 0,6.504 5.26,11.765 11.77,11.765 6.49,0 11.76,-5.261 11.76,-11.765 0,-6.485 -5.27,-11.758 -11.76,-11.758 -6.51,0 -11.77,5.273 -11.77,11.758 z"
         style="fill:none;stroke:#231f20;stroke-width:5;stroke-linecap:butt;stroke-linejoin:bevel;stroke-miterlimit:10;stroke-dasharray:none;stroke-opacity:1"
         transform="matrix(0.13333333,0,0,-0.13333333,0,88.08)" />
      <path
         id="path67"
         d="m 915.543,582.539 c 0,6.504 5.273,11.766 11.766,11.766 6.496,0 11.757,-5.262 11.757,-11.766 0,-6.484 -5.261,-11.758 -11.757,-11.758 -6.493,0 -11.766,5.274 -11.766,11.758"
         style="fill:#ffffff;fill-opacity:1;fill-rule:nonzero;stroke:none"
         transform="matrix(0.13333333,0,0,-0.13333333,0,88.08)" />
      <path
         id="path68"
         d="m 915.543,582.539 c 0,6.504 5.273,11.766 11.766,11.766 6.496,0 11.757,-5.262 11.757,-11.766 0,-6.484 -5.261,-11.758 -11.757,-11.758 -6.493,0 -11.766,5.274 -11.766,11.758 z"
         style="fill:none;stroke:#231f20;stroke-width:5;stroke-linecap:butt;stroke-linejoin:bevel;stroke-miterlimit:10;stroke-dasharray:none;stroke-opacity:1"
         transform="matrix(0.13333333,0,0,-0.13333333,0,88.08)" />
      <path
         id="path69"
         d="m 499.145,159.109 c 0,6.496 5.265,11.77 11.757,11.77 6.496,0 11.77,-5.274 11.77,-11.77 0,-6.492 -5.274,-11.765 -11.77,-11.765 -6.492,0 -11.757,5.273 -11.757,11.765"
         style="fill:#ffffff;fill-opacity:1;fill-rule:nonzero;stroke:none"
         transform="matrix(0.13333333,0,0,-0.13333333,0,88.08)" />
      <path
         id="path70"
         d="m 499.145,159.109 c 0,6.496 5.265,11.77 11.757,11.77 6.496,0 11.77,-5.274 11.77,-11.77 0,-6.492 -5.274,-11.765 -11.77,-11.765 -6.492,0 -11.757,5.273 -11.757,11.765 z"
         style="fill:none;stroke:#231f20;stroke-width:5;stroke-linecap:butt;stroke-linejoin:bevel;stroke-miterlimit:10;stroke-dasharray:none;stroke-opacity:1"
         transform="matrix(0.13333333,0,0,-0.13333333,0,88.08)" />
      <path
         id="path71"
         d="m 651.188,218.711 c 0,6.484 5.273,11.758 11.765,11.758 6.496,0 11.758,-5.274 11.758,-11.758 0,-6.504 -5.262,-11.77 -11.758,-11.77 -6.492,0 -11.765,5.266 -11.765,11.77"
         style="fill:#ffffff;fill-opacity:1;fill-rule:nonzero;stroke:none"
         transform="matrix(0.13333333,0,0,-0.13333333,0,88.08)" />
      <path
         id="path72"
         d="m 651.188,218.711 c 0,6.484 5.273,11.758 11.765,11.758 6.496,0 11.758,-5.274 11.758,-11.758 0,-6.504 -5.262,-11.77 -11.758,-11.77 -6.492,0 -11.765,5.266 -11.765,11.77 z"
         style="fill:none;stroke:#231f20;stroke-width:5;stroke-linecap:butt;stroke-linejoin:bevel;stroke-miterlimit:10;stroke-dasharray:none;stroke-opacity:1"
         transform="matrix(0.13333333,0,0,-0.13333333,0,88.08)" />
      <path
         id="path73"
         d="m 917.438,206.941 c 0,6.497 5.273,11.77 11.765,11.77 6.496,0 11.77,-5.273 11.77,-11.77 0,-6.492 -5.274,-11.765 -11.77,-11.765 -6.492,0 -11.765,5.273 -11.765,11.765"
         style="fill:#ffffff;fill-opacity:1;fill-rule:nonzero;stroke:none"
         transform="matrix(0.13333333,0,0,-0.13333333,0,88.08)" />
      <path
         id="path74"
         d="m 917.438,206.941 c 0,6.497 5.273,11.77 11.765,11.77 6.496,0 11.77,-5.273 11.77,-11.77 0,-6.492 -5.274,-11.765 -11.77,-11.765 -6.492,0 -11.765,5.273 -11.765,11.765 z"
         style="fill:none;stroke:#231f20;stroke-width:5;stroke-linecap:butt;stroke-linejoin:bevel;stroke-miterlimit:10;stroke-dasharray:none;stroke-opacity:1"
         transform="matrix(0.13333333,0,0,-0.13333333,0,88.08)" />
      <path
         id="path75"
         d="m 761.254,155.234 c 0,6.493 5.266,11.758 11.769,11.758 6.493,0 11.758,-5.265 11.758,-11.758 0,-6.496 -5.265,-11.757 -11.758,-11.757 -6.503,0 -11.769,5.261 -11.769,11.757"
         style="fill:#ffffff;fill-opacity:1;fill-rule:nonzero;stroke:none"
         transform="matrix(0.13333333,0,0,-0.13333333,0,88.08)" />
      <path
         id="path76"
         d="m 761.254,155.234 c 0,6.493 5.266,11.758 11.769,11.758 6.493,0 11.758,-5.265 11.758,-11.758 0,-6.496 -5.265,-11.757 -11.758,-11.757 -6.503,0 -11.769,5.261 -11.769,11.757 z"
         style="fill:none;stroke:#231f20;stroke-width:5;stroke-linecap:butt;stroke-linejoin:bevel;stroke-miterlimit:10;stroke-dasharray:none;stroke-opacity:1"
         transform="matrix(0.13333333,0,0,-0.13333333,0,88.08)" />
      <path
         id="path77"
         d="m 714.664,97.3633 c 0,6.4917 5.262,11.7577 11.758,11.7577 6.504,0 11.766,-5.266 11.766,-11.7577 0,-6.5039 -5.262,-11.7695 -11.766,-11.7695 -6.496,0 -11.758,5.2656 -11.758,11.7695"
         style="fill:#ffffff;fill-opacity:1;fill-rule:nonzero;stroke:none"
         transform="matrix(0.13333333,0,0,-0.13333333,0,88.08)" />
      <path
         id="path78"
         d="m 714.664,97.3633 c 0,6.4917 5.262,11.7577 11.758,11.7577 6.504,0 11.766,-5.266 11.766,-11.7577 0,-6.5039 -5.262,-11.7695 -11.766,-11.7695 -6.496,0 -11.758,5.2656 -11.758,11.7695 z"
         style="fill:none;stroke:#231f20;stroke-width:5;stroke-linecap:butt;stroke-linejoin:bevel;stroke-miterlimit:10;stroke-dasharray:none;stroke-opacity:1"
         transform="matrix(0.13333333,0,0,-0.13333333,0,88.08)" />
      <path
         id="path79"
         d="m 815.816,72.7148 c 0,6.4844 5.262,11.7579 11.758,11.7579 6.492,0 11.758,-5.2735 11.758,-11.7579 0,-6.5039 -5.266,-11.7695 -11.758,-11.7695 -6.496,0 -11.758,5.2656 -11.758,11.7695"
         style="fill:#ffffff;fill-opacity:1;fill-rule:nonzero;stroke:none"
         transform="matrix(0.13333333,0,0,-0.13333333,0,88.08)" />
      <path
         id="path80"
         d="m 815.816,72.7148 c 0,6.4844 5.262,11.7579 11.758,11.7579 6.492,0 11.758,-5.2735 11.758,-11.7579 0,-6.5039 -5.266,-11.7695 -11.758,-11.7695 -6.496,0 -11.758,5.2656 -11.758,11.7695 z"
         style="fill:none;stroke:#231f20;stroke-width:5;stroke-linecap:butt;stroke-linejoin:bevel;stroke-miterlimit:10;stroke-dasharray:none;stroke-opacity:1"
         transform="matrix(0.13333333,0,0,-0.13333333,0,88.08)" />
      <path
         id="path81"
         d="m 1002.37,123.691 c 0,6.493 5.26,11.758 11.76,11.758 6.49,0 11.76,-5.265 11.76,-11.758 0,-6.503 -5.27,-11.769 -11.76,-11.769 -6.5,0 -11.76,5.266 -11.76,11.769"
         style="fill:#ffffff;fill-opacity:1;fill-rule:nonzero;stroke:none"
         transform="matrix(0.13333333,0,0,-0.13333333,0,88.08)" />
      <path
         id="path82"
         d="m 1002.37,123.691 c 0,6.493 5.26,11.758 11.76,11.758 6.49,0 11.76,-5.265 11.76,-11.758 0,-6.503 -5.27,-11.769 -11.76,-11.769 -6.5,0 -11.76,5.266 -11.76,11.769 z"
         style="fill:none;stroke:#231f20;stroke-width:5;stroke-linecap:butt;stroke-linejoin:bevel;stroke-miterlimit:10;stroke-dasharray:none;stroke-opacity:1"
         transform="matrix(0.13333333,0,0,-0.13333333,0,88.08)" />
      <path
         id="path83"
         d="M 1081.99,342.461 0.796875,450.098 620.902,658.125 1702.1,550.488 Z"
         style="fill:none;stroke:#231f20;stroke-width:5;stroke-linecap:butt;stroke-linejoin:bevel;stroke-miterlimit:10;stroke-dasharray:none;stroke-opacity:1"
         transform="matrix(0.13333333,0,0,-0.13333333,0,88.08)" />
    </g>
  </g>
</svg>
