<?xml version="1.0" encoding="UTF-8" standalone="no"?>
<!-- Created with Inkscape (http://www.inkscape.org/) -->

<svg
   version="1.1"
   id="svg1"
   width="292.09332"
   height="210.21333"
   viewBox="0 0 292.09332 210.21333"
   sodipodi:docname="pha06f02.eps"
   xmlns:inkscape="http://www.inkscape.org/namespaces/inkscape"
   xmlns:sodipodi="http://sodipodi.sourceforge.net/DTD/sodipodi-0.dtd"
   xmlns="http://www.w3.org/2000/svg"
   xmlns:svg="http://www.w3.org/2000/svg">
  <defs
     id="defs1" />
  <sodipodi:namedview
     id="namedview1"
     pagecolor="#ffffff"
     bordercolor="#000000"
     borderopacity="0.25"
     inkscape:showpageshadow="2"
     inkscape:pageopacity="0.0"
     inkscape:pagecheckerboard="0"
     inkscape:deskcolor="#d1d1d1">
    <inkscape:page
       x="0"
       y="0"
       inkscape:label="1"
       id="page1"
       width="292.09332"
       height="210.21333"
       margin="0"
       bleed="0" />
  </sodipodi:namedview>
  <g
     id="g1"
     inkscape:groupmode="layer"
     inkscape:label="1">
    <g
       id="group-R5">
      <path
         id="path2"
         d="M 203.586,1576.59 V 132.82"
         style="fill:none;stroke:#231f20;stroke-width:5;stroke-linecap:butt;stroke-linejoin:miter;stroke-miterlimit:10;stroke-dasharray:none;stroke-opacity:1"
         transform="matrix(0.13333333,0,0,-0.13333333,0,210.21333)" />
      <path
         id="path3"
         d="M 1284.78,1576.59 V 132.82"
         style="fill:none;stroke:#231f20;stroke-width:5;stroke-linecap:butt;stroke-linejoin:miter;stroke-miterlimit:10;stroke-dasharray:none;stroke-opacity:1"
         transform="matrix(0.13333333,0,0,-0.13333333,0,210.21333)" />
      <path
         id="path4"
         d="M 2.78125,243.262 1570.58,1294.7"
         style="fill:none;stroke:#231f20;stroke-width:10;stroke-linecap:butt;stroke-linejoin:miter;stroke-miterlimit:10;stroke-dasharray:none;stroke-opacity:1"
         transform="matrix(0.13333333,0,0,-0.13333333,0,210.21333)" />
      <path
         id="path5"
         d="m 1560.14,1287.7 -26.79,12.41 0.4,0.95 43.25,9.34 c 13.65,5.37 27.32,10.73 40.97,16.09 -10.15,-10.6 -20.29,-21.2 -30.43,-31.8 l -25.06,-36.47 -0.96,-0.12 -1.38,29.6"
         style="fill:#231f20;fill-opacity:1;fill-rule:nonzero;stroke:none"
         transform="matrix(0.13333333,0,0,-0.13333333,0,210.21333)" />
      <g
         id="g5"
         aria-label="x = x&#10;0&#10;x = x&#10;1"
         transform="matrix(1.3333333,0,0,1.3333333,16.317733,203.22688)">
        <path
           id="path6"
           d="m 0.77244219,-2.9182069 c 0.31640621,-0.3984375 0.49218751,-0.515625 0.57421871,-0.515625 0.09375,0 0.1757813,0.1289063 0.3046875,0.5742188 l 0.3046875,0.9375 c -0.5625,0.8320312 -0.98437496,1.35937498 -1.24218746,1.35937498 -0.09375,0 -0.1640625,-0.0351563 -0.2109375,-0.09375 -0.046875,-0.0585938 -0.09375,-0.09375 -0.140625,-0.09375 -0.17578125,0 -0.3632812525,0.2109375 -0.3632812525,0.421875 -0.0117187475,0.2578125 0.1757812525,0.43359375 0.4101562525,0.43359375 0.421875,0 0.84374996,-0.43359375 1.64062496,-1.69921873 l 0.28125,0.87890623 c 0.1757813,0.5625 0.3632813,0.8203125 0.5976563,0.8203125 0.3046875,0 0.7265625,-0.328125 1.1367187,-0.97265625 L 3.9130672,-1.0432069 c -0.28125,0.33984378 -0.5039063,0.51562503 -0.6445313,0.51562503 -0.1523437,0 -0.28125,-0.2578125 -0.4570312,-0.82031253 L 2.5185359,-2.2502381 c 0.1992188,-0.28125 0.3984375,-0.5273438 0.5859375,-0.7382813 0.234375,-0.2929687 0.4101563,-0.4453125 0.5390625,-0.4453125 0.082031,0 0.1523438,0.035156 0.2109375,0.1054688 0.046875,0.046875 0.082031,0.070312 0.1289063,0.070312 0.140625,0 0.3398437,-0.1757813 0.3515625,-0.3984375 0,-0.1992188 -0.140625,-0.3867188 -0.375,-0.3867188 -0.3984375,0 -0.7851563,0.3867188 -1.5351563,1.4765625 l -0.1523437,-0.492187 c -0.2226563,-0.6445312 -0.3398438,-0.984375 -0.5859375,-0.984375 -0.2929688,0 -0.69140626,0.3867188 -1.06640626,0.9375 z m 0,0"
           style="fill:#231f20;fill-opacity:1;fill-rule:nonzero;stroke:none" />
        <path
           id="path7"
           d="M 11.076153,-2.8947694 V -3.3400819 H 6.7870906 v 0.4453125 z m 0,1.6523438 V -1.6877381 H 6.7870906 v 0.4453125 z m 0,0"
           style="fill:#231f20;fill-opacity:1;fill-rule:nonzero;stroke:none" />
        <path
           id="path8"
           d="m 14.354473,-2.9182069 c 0.316407,-0.3984375 0.492188,-0.515625 0.574219,-0.515625 0.09375,0 0.175781,0.1289063 0.304688,0.5742188 l 0.304687,0.9375 c -0.5625,0.8320312 -0.984375,1.35937498 -1.242187,1.35937498 -0.09375,0 -0.164063,-0.0351563 -0.210938,-0.09375 -0.04687,-0.0585938 -0.09375,-0.09375 -0.140625,-0.09375 -0.175781,0 -0.363281,0.2109375 -0.363281,0.421875 -0.01172,0.2578125 0.175781,0.43359375 0.410156,0.43359375 0.421875,0 0.84375,-0.43359375 1.640625,-1.69921873 l 0.28125,0.87890623 c 0.175781,0.5625 0.363281,0.8203125 0.597656,0.8203125 0.304688,0 0.726563,-0.328125 1.136719,-0.97265625 L 17.495098,-1.0432069 c -0.28125,0.33984378 -0.503906,0.51562503 -0.644531,0.51562503 -0.152344,0 -0.28125,-0.2578125 -0.457031,-0.82031253 l -0.292969,-0.9023437 c 0.199219,-0.28125 0.398438,-0.5273438 0.585938,-0.7382813 0.234375,-0.2929687 0.410156,-0.4453125 0.539062,-0.4453125 0.08203,0 0.152344,0.035156 0.210938,0.1054688 0.04687,0.046875 0.08203,0.070312 0.128906,0.070312 0.140625,0 0.339844,-0.1757813 0.351562,-0.3984375 0,-0.1992188 -0.140625,-0.3867188 -0.375,-0.3867188 -0.398437,0 -0.785156,0.3867188 -1.535156,1.4765625 l -0.152344,-0.4921875 c -0.222656,-0.6445312 -0.339843,-0.984375 -0.585937,-0.984375 -0.292969,0 -0.691406,0.3867188 -1.066406,0.9375 z m 0,0"
           style="fill:#231f20;fill-opacity:1;fill-rule:nonzero;stroke:none" />
        <path
           id="path9"
           d="m 19.279278,-1.8078553 c -0.902344,0 -1.230469,1.06640624 -1.230469,1.94531249 0,0.94921871 0.328125,1.93359371 1.230469,1.93359371 0.902344,0 1.21875,-1.0664062 1.21875,-1.94531246 0,-0.92578125 -0.316406,-1.93359374 -1.21875,-1.93359374 z m -0.01172,0.1992187 c 0.539063,0 0.691407,0.89062504 0.691407,1.73437504 0,0.84375 -0.140625,1.74609376 -0.679688,1.74609376 -0.527344,0 -0.703125,-0.91406251 -0.703125,-1.74609376 0,-0.83203125 0.152344,-1.73437504 0.691406,-1.73437504 z m 0,0"
           style="fill:#231f20;fill-opacity:1;fill-rule:nonzero;stroke:none" />
        <path
           id="path10"
           d="m 109.0742,-2.9182069 c 0.31641,-0.3984375 0.49219,-0.515625 0.57422,-0.515625 0.0937,0 0.17578,0.1289063 0.30469,0.5742188 l 0.30468,0.9375 c -0.5625,0.8320312 -0.98437,1.35937498 -1.24218,1.35937498 -0.0937,0 -0.16407,-0.0351563 -0.21094,-0.09375 -0.0469,-0.0585938 -0.0937,-0.09375 -0.14063,-0.09375 -0.17578,0 -0.36328,0.2109375 -0.36328,0.421875 -0.0117,0.2578125 0.17578,0.43359375 0.41016,0.43359375 0.42187,0 0.84375,-0.43359375 1.64062,-1.69921873 l 0.28125,0.87890623 c 0.17579,0.5625 0.36329,0.8203125 0.59766,0.8203125 0.30469,0 0.72656,-0.328125 1.13672,-0.97265625 l -0.15234,-0.17578128 c -0.28125,0.33984378 -0.50391,0.51562503 -0.64454,0.51562503 -0.15234,0 -0.28125,-0.2578125 -0.45703,-0.82031253 l -0.29297,-0.9023437 c 0.19922,-0.28125 0.39844,-0.5273438 0.58594,-0.7382813 0.23438,-0.2929687 0.41016,-0.4453125 0.53906,-0.4453125 0.082,0 0.15235,0.035156 0.21094,0.1054688 0.0469,0.046875 0.082,0.070312 0.12891,0.070312 0.14062,0 0.33984,-0.1757813 0.35156,-0.3984375 0,-0.1992188 -0.14062,-0.3867188 -0.375,-0.3867188 -0.39844,0 -0.78516,0.3867188 -1.53516,1.4765625 l -0.15234,-0.4921875 c -0.22266,-0.6445312 -0.33984,-0.984375 -0.58594,-0.984375 -0.29297,0 -0.6914,0.3867188 -1.0664,0.9375 z m 0,0"
           style="fill:#231f20;fill-opacity:1;fill-rule:nonzero;stroke:none" />
        <path
           id="path11"
           d="m 119.37791,-2.8947694 v -0.4453125 h -4.28906 v 0.4453125 z m 0,1.6523438 v -0.4453125 h -4.28906 v 0.4453125 z m 0,0"
           style="fill:#231f20;fill-opacity:1;fill-rule:nonzero;stroke:none" />
        <path
           id="path12"
           d="m 122.65623,-2.9182069 c 0.31641,-0.3984375 0.49219,-0.515625 0.57422,-0.515625 0.0937,0 0.17578,0.1289063 0.30469,0.5742188 l 0.30469,0.9375 c -0.5625,0.8320312 -0.98438,1.35937498 -1.24219,1.35937498 -0.0937,0 -0.16406,-0.0351563 -0.21094,-0.09375 -0.0469,-0.0585938 -0.0937,-0.09375 -0.14062,-0.09375 -0.17579,0 -0.36329,0.2109375 -0.36329,0.421875 -0.0117,0.2578125 0.17579,0.43359375 0.41016,0.43359375 0.42188,0 0.84375,-0.43359375 1.64063,-1.69921873 l 0.28125,0.87890623 c 0.17578,0.5625 0.36328,0.8203125 0.59765,0.8203125 0.30469,0 0.72656,-0.328125 1.13672,-0.97265625 l -0.15234,-0.17578128 c -0.28125,0.33984378 -0.50391,0.51562503 -0.64453,0.51562503 -0.15235,0 -0.28125,-0.2578125 -0.45704,-0.82031253 l -0.29296,-0.9023437 c 0.19921,-0.28125 0.39843,-0.5273438 0.58593,-0.7382813 0.23438,-0.2929687 0.41016,-0.4453125 0.53907,-0.4453125 0.082,0 0.15234,0.035156 0.21093,0.1054688 0.0469,0.046875 0.082,0.070312 0.12891,0.070312 0.14062,0 0.33984,-0.1757813 0.35156,-0.3984375 0,-0.1992188 -0.14062,-0.3867188 -0.375,-0.3867188 -0.39844,0 -0.78515,0.3867188 -1.53515,1.4765625 l -0.15235,-0.4921875 c -0.22265,-0.6445312 -0.33984,-0.984375 -0.58594,-0.984375 -0.29296,0 -0.6914,0.3867188 -1.0664,0.9375 z m 0,0"
           style="fill:#231f20;fill-opacity:1;fill-rule:nonzero;stroke:none" />
        <path
           id="path13"
           d="M 128.44822,1.9978088 V 1.8337463 c -0.55078,-0.035156 -0.58593,-0.09375 -0.58593,-0.515625 V -1.810785 c -0.32813,0.1289063 -0.67969,0.2460938 -1.06641,0.3164063 v 0.1289062 l 0.28125,0.011719 c 0.26953,0.011719 0.29297,0.046875 0.29297,0.3632812 v 2.3085938 c 0,0.421875 -0.0352,0.4804687 -0.57422,0.515625 V 1.997809 Z m 0,0"
           style="fill:#231f20;fill-opacity:1;fill-rule:nonzero;stroke:none" />
      </g>
      <path
         id="path14"
         d="m 183.586,378.051 c 0,11.09 8.992,20.078 20.082,20.078 11.09,0 20.082,-8.988 20.082,-20.078 0,-11.09 -8.992,-20.082 -20.082,-20.082 -11.09,0 -20.082,8.992 -20.082,20.082"
         style="fill:#231f20;fill-opacity:1;fill-rule:nonzero;stroke:none"
         transform="matrix(0.13333333,0,0,-0.13333333,0,210.21333)" />
      <path
         id="path15"
         d="m 1264.61,1102.84 c 0,11.09 8.98,20.08 20.08,20.08 11.09,0 20.08,-8.99 20.08,-20.08 0,-11.09 -8.99,-20.08 -20.08,-20.08 -11.1,0 -20.08,8.99 -20.08,20.08"
         style="fill:#231f20;fill-opacity:1;fill-rule:nonzero;stroke:none"
         transform="matrix(0.13333333,0,0,-0.13333333,0,210.21333)" />
      <path
         id="path16"
         d="m 1284.78,588.617 h 449.66"
         style="fill:#231f20;fill-opacity:1;fill-rule:nonzero;stroke:none"
         transform="matrix(0.13333333,0,0,-0.13333333,0,210.21333)" />
      <path
         id="path17"
         d="m 1284.78,588.617 h 400.75"
         style="fill:none;stroke:#231f20;stroke-width:7.5;stroke-linecap:butt;stroke-linejoin:miter;stroke-miterlimit:10;stroke-dasharray:none;stroke-opacity:1"
         transform="matrix(0.13333333,0,0,-0.13333333,0,210.21333)" />
      <path
         id="path18"
         d="m 1674.76,588.617 -13.15,21.617 0.74,0.493 35.25,-14.004 c 12.28,-2.7 24.56,-5.403 36.84,-8.106 -12.28,-2.699 -24.56,-5.402 -36.84,-8.105 l -35.25,-14 -0.74,0.367 13.15,21.738"
         style="fill:#231f20;fill-opacity:1;fill-rule:nonzero;stroke:none"
         transform="matrix(0.13333333,0,0,-0.13333333,0,210.21333)" />
      <g
         id="g18"
         aria-label="n = (1, 0, 0)&#10;t&#10;near&#10;t&#10;far"
         transform="matrix(1.3333333,0,0,1.3333333,236.55067,135.0612)">
        <path
           id="path19"
           d="M 4.8633672,9.75e-4 V -0.26855625 C 4.3594609,-0.32715 4.3125859,-0.36230625 4.3125859,-0.94824375 V -2.6591812 c 0,-0.890625 -0.4453125,-1.40625 -1.1601562,-1.40625 -0.2578125,0 -0.4570313,0.09375 -0.7265625,0.2578125 -0.2109375,0.140625 -0.3867188,0.2695312 -0.5742188,0.3984375 v -0.6796875 c -0.4804687,0.1523437 -1.01953121,0.28125 -1.48828121,0.3515625 v 0.234375 c 0.45703125,0.09375 0.50390625,0.1171875 0.50390625,0.6796875 v 1.8632812 c 0,0.59765625 -0.046875,0.62109375 -0.62109375,0.69140625 V 9.75e-4 H 2.3321172 V -0.26855625 C 1.9102422,-0.32715 1.8516484,-0.36230625 1.8516484,-0.936525 v -2.1445312 c 0.2460938,-0.1992188 0.5039063,-0.3515625 0.7851563,-0.3515625 0.4101562,0 0.6914062,0.2695312 0.6914062,0.9140625 v 1.5117187 c 0,0.64453125 -0.046875,0.6796875 -0.4804687,0.73828125 V 9.75e-4 Z m 0,0"
           style="fill:#231f20;fill-opacity:1;fill-rule:nonzero;stroke:none" />
        <path
           id="path20"
           d="M 11.77743,-2.8935562 V -3.3388687 H 7.4883672 v 0.4453125 z m 0,1.6523437 V -1.686525 H 7.4883672 v 0.4453125 z m 5.200195,2.5664063 c -0.890625,-0.7617188 -1.40625,-2.20312505 -1.40625,-3.75 0,-1.546875 0.515625,-3 1.40625,-3.75 l -0.152344,-0.2109375 c -1.324218,0.9023437 -1.910156,2.3320312 -1.910156,3.9492187 0,1.62890625 0.585938,3.08203125 1.910156,3.9609375 z M 20.853602,9.75e-4 V -0.24511875 C 20.033289,-0.3037125 19.974695,-0.374025 19.974695,-1.030275 v -4.6875 c -0.492187,0.1992188 -1.019531,0.375 -1.59375,0.46875 v 0.2109375 l 0.433594,0.011719 c 0.386719,0.023437 0.421875,0.070312 0.421875,0.5390625 v 3.4570312 c 0,0.65625 -0.03516,0.7265625 -0.855469,0.78515625 V 9.75e-4 Z m 1.708007,-1.1601562 c -0.210937,0 -0.433593,0.140625 -0.433593,0.3632812 0,0.15234375 0.07031,0.22265625 0.117187,0.234375 0.304688,0.0703125 0.5625,0.26953125 0.5625,0.59765625 0,0.33984375 -0.257812,0.57421875 -0.691406,0.76171875 l 0.09375,0.2578125 C 22.760828,0.8916 23.393641,0.50488125 23.393641,-0.186525 c 0,-0.6328125 -0.503907,-0.9726562 -0.832032,-0.9726562 z m 5.405274,-4.5585938 c -1.347656,0 -1.839844,1.6054688 -1.839844,2.9179688 0,1.4179687 0.480469,2.90624995 1.839844,2.90624995 1.359375,0 1.828125,-1.59374995 1.828125,-2.91796875 0,-1.3828125 -0.46875,-2.90625 -1.828125,-2.90625 z m 0,0.3046875 c 0.808594,0 1.03125,1.3242188 1.03125,2.6015625 0,1.265625 -0.222656,2.61328125 -1.03125,2.61328125 -0.773438,0 -1.042969,-1.35937495 -1.042969,-2.61328125 0,-1.2539062 0.222656,-2.6015625 1.042969,-2.6015625 z m 3.008789,4.2539063 c -0.210938,0 -0.433594,0.140625 -0.433594,0.3632812 0,0.15234375 0.07031,0.22265625 0.117188,0.234375 0.304687,0.0703125 0.5625,0.26953125 0.5625,0.59765625 0,0.33984375 -0.257813,0.57421875 -0.691407,0.76171875 l 0.09375,0.2578125 C 31.174891,0.8916 31.807703,0.50488125 31.807703,-0.186525 c 0,-0.6328125 -0.503906,-0.9726562 -0.832031,-0.9726562 z m 5.405273,-4.5585938 c -1.347656,0 -1.839843,1.6054688 -1.839843,2.9179688 0,1.4179687 0.480468,2.90624995 1.839843,2.90624995 1.359375,0 1.828125,-1.59374995 1.828125,-2.91796875 0,-1.3828125 -0.46875,-2.90625 -1.828125,-2.90625 z m 0,0.3046875 c 0.808594,0 1.03125,1.3242188 1.03125,2.6015625 0,1.265625 -0.222656,2.61328125 -1.03125,2.61328125 -0.773437,0 -1.042968,-1.35937495 -1.042968,-2.61328125 0,-1.2539062 0.222656,-2.6015625 1.042968,-2.6015625 z m 2.575196,-0.7617187 c 0.890625,0.7382812 1.417968,2.203125 1.417968,3.75 0,1.54687495 -0.503906,2.9882812 -1.417968,3.75 l 0.164062,0.1992187 c 1.347656,-0.9140625 1.898438,-2.33203125 1.898438,-3.9492187 0,-1.6289063 -0.550782,-3.0585938 -1.898438,-3.9609375 z m 0,0"
           style="fill:#231f20;fill-opacity:1;fill-rule:nonzero;stroke:none" />
        <path
           id="path21"
           d="m -148.45304,21.616209 h -1.05469 l 0.31641,-1.359375 -0.082,-0.04687 -0.67969,0.550782 -0.21094,0.855468 h -0.53906 l -0.22266,0.269532 0.0234,0.08203 h 0.66797 l -0.52734,2.472656 c -0.19922,0.925781 -0.0234,1.183594 0.1875,1.183594 0.48047,0 1.14843,-0.597656 1.45312,-0.960938 l -0.1289,-0.1875 c -0.21094,0.222657 -0.65625,0.515625 -0.8086,0.515625 -0.10547,0 -0.14062,-0.09375 -0.0586,-0.539062 l 0.53906,-2.484375 0.89063,-0.03516 z m 0,0"
           style="fill:#231f20;fill-opacity:1;fill-rule:nonzero;stroke:none" />
        <path
           id="path22"
           d="m -145.59659,27.5166 v -0.152344 c -0.35157,-0.03516 -0.375,-0.05859 -0.375,-0.46875 V 25.73535 c 0,-0.585937 -0.30469,-0.914062 -0.78516,-0.914062 -0.16406,0 -0.32812,0.07031 -0.49219,0.175781 -0.15234,0.105469 -0.28125,0.199219 -0.39843,0.292969 v -0.480469 c -0.26954,0.117187 -0.55079,0.1875 -0.83204,0.246094 v 0.128906 c 0.31641,0.05859 0.35157,0.08203 0.35157,0.46875 v 1.242187 c 0,0.398438 -0.0234,0.421875 -0.4336,0.46875 V 27.5166 h 1.30078 v -0.152344 c -0.35156,-0.03516 -0.38671,-0.05859 -0.38671,-0.46875 v -1.417968 c 0.17578,-0.152344 0.41015,-0.304688 0.64453,-0.304688 0.41015,0 0.55078,0.269531 0.55078,0.691406 v 0.996094 c 0,0.421875 -0.0469,0.46875 -0.39844,0.503906 V 27.5166 Z m 2.39062,-0.632812 c -0.21094,0.199218 -0.44531,0.292968 -0.67969,0.292968 -0.42187,0 -0.89062,-0.328125 -0.90234,-1.148437 0.71484,-0.02344 1.46484,-0.08203 1.57031,-0.105469 0.10547,-0.02344 0.14063,-0.07031 0.14063,-0.1875 0,-0.46875 -0.41016,-0.914062 -0.90235,-0.914062 -0.3164,0 -0.63281,0.164062 -0.8789,0.433593 -0.2461,0.28125 -0.39844,0.644532 -0.39844,1.054688 0,0.679687 0.43359,1.277344 1.17188,1.277344 0.1875,0 0.59765,-0.105469 0.97265,-0.585938 z m -0.91406,-1.839844 c 0.32812,0 0.52734,0.292969 0.52734,0.597656 0,0.08203 -0.0351,0.117188 -0.15234,0.117188 -0.33984,0.02344 -0.66797,0.02344 -1.00781,0.02344 0.0937,-0.480469 0.35156,-0.738281 0.63281,-0.738281 z m 3.8291,2.238281 -0.0586,-0.152344 c -0.0703,0.03516 -0.15235,0.05859 -0.22266,0.05859 -0.10547,0 -0.21094,-0.08203 -0.21094,-0.351562 v -1.125 c 0,-0.304688 -0.0586,-0.550782 -0.26953,-0.726563 -0.1289,-0.105469 -0.30469,-0.164062 -0.49219,-0.164062 -0.33984,0.07031 -0.72656,0.304687 -0.90234,0.421875 -0.10547,0.08203 -0.1875,0.152343 -0.1875,0.234375 0,0.140625 0.15234,0.257812 0.26953,0.257812 0.082,0 0.14063,-0.03516 0.16406,-0.128906 0.0469,-0.1875 0.10547,-0.316406 0.1875,-0.398438 0.0586,-0.07031 0.15235,-0.117187 0.26954,-0.117187 0.29296,0 0.5039,0.246094 0.5039,0.667969 v 0.117187 c -0.1289,0.105469 -0.57422,0.269531 -0.9375,0.386719 -0.32812,0.117187 -0.48047,0.304687 -0.48047,0.597656 0,0.375 0.29297,0.726563 0.71485,0.726563 0.1875,0 0.46875,-0.222657 0.71484,-0.386719 0.0234,0.105469 0.0586,0.1875 0.14063,0.269531 0.0703,0.07031 0.1875,0.117188 0.28125,0.117188 z m -0.94922,-0.269531 c -0.11719,0.105469 -0.32812,0.210937 -0.48047,0.210937 -0.1875,0 -0.43359,-0.140625 -0.43359,-0.457031 0,-0.210937 0.14062,-0.328125 0.375,-0.433594 0.11719,-0.05859 0.41016,-0.1875 0.53906,-0.257812 z m 2.01856,-1.558594 v -0.644531 c -0.29297,0.117187 -0.55078,0.1875 -0.85547,0.246094 v 0.128906 c 0.35156,0.04687 0.375,0.07031 0.375,0.46875 v 1.242187 c 0,0.398438 -0.0352,0.433594 -0.41016,0.46875 V 27.5166 h 1.38281 v -0.152344 c -0.46875,-0.03516 -0.49218,-0.07031 -0.49218,-0.46875 v -1.101562 c 0.1289,-0.339844 0.3164,-0.515625 0.48047,-0.515625 0.0937,0 0.16406,0.03516 0.24609,0.128906 0.0352,0.03516 0.0937,0.03516 0.16406,0.01172 0.11719,-0.05859 0.1875,-0.175781 0.1875,-0.292969 0,-0.152344 -0.14062,-0.304687 -0.33984,-0.304687 -0.29297,0 -0.55078,0.339843 -0.72656,0.632812 z m 0,0"
           style="fill:#231f20;fill-opacity:1;fill-rule:nonzero;stroke:none" />
        <path
           id="path23"
           d="m -42.055578,-48.579103 h -1.054688 l 0.316407,-1.359375 -0.08203,-0.04687 -0.679687,0.550781 -0.210938,0.855469 h -0.539062 l -0.222656,0.269531 0.02344,0.08203 h 0.667969 l -0.527344,2.472657 c -0.199219,0.925781 -0.02344,1.183593 0.1875,1.183593 0.480469,0 1.148438,-0.597656 1.453125,-0.960937 l -0.128906,-0.1875 c -0.210938,0.222656 -0.65625,0.515625 -0.808594,0.515625 -0.105469,0 -0.140625,-0.09375 -0.05859,-0.539063 l 0.539063,-2.484375 0.890625,-0.03516 z m 0,0"
           style="fill:#231f20;fill-opacity:1;fill-rule:nonzero;stroke:none" />
        <path
           id="path24"
           d="m -42.011633,-45.303712 -0.164062,0.175781 0.02344,0.05859 h 0.421875 v 1.769531 c 0,0.398437 -0.04687,0.433594 -0.433594,0.46875 v 0.152344 h 1.417969 v -0.152344 c -0.46875,-0.04687 -0.515625,-0.05859 -0.515625,-0.503906 v -1.734375 h 0.644531 c 0.07031,-0.03516 0.105469,-0.175782 0.07031,-0.234375 h -0.714844 v -0.234375 c 0,-0.515625 0.05859,-0.796875 0.140625,-0.914063 0.07031,-0.105469 0.164063,-0.175781 0.316406,-0.175781 0.199219,0 0.363282,0.105469 0.492188,0.222656 0.04687,0.05859 0.105469,0.05859 0.152344,0.01172 0.05859,-0.04687 0.105468,-0.09375 0.117187,-0.140625 0.03516,-0.07031 0.02344,-0.140625 -0.02344,-0.210938 -0.105469,-0.117187 -0.28125,-0.199218 -0.480469,-0.210937 -0.234375,0.03516 -0.445313,0.140625 -0.65625,0.328125 -0.328125,0.28125 -0.421875,0.574219 -0.46875,0.703125 -0.03516,0.128906 -0.05859,0.304687 -0.05859,0.492187 v 0.128907 z m 4.048828,2.390625 -0.05859,-0.152344 c -0.07031,0.03516 -0.152344,0.05859 -0.222657,0.05859 -0.105468,0 -0.210937,-0.08203 -0.210937,-0.351563 v -1.125 c 0,-0.304687 -0.05859,-0.550781 -0.269531,-0.726562 -0.128907,-0.105469 -0.304688,-0.164063 -0.492188,-0.164063 -0.339844,0.07031 -0.726562,0.304688 -0.902344,0.421875 -0.105468,0.08203 -0.1875,0.152344 -0.1875,0.234375 0,0.140625 0.152344,0.257813 0.269532,0.257813 0.08203,0 0.140625,-0.03516 0.164062,-0.128907 0.04687,-0.1875 0.105469,-0.316406 0.1875,-0.398437 0.05859,-0.07031 0.152344,-0.117188 0.269531,-0.117188 0.292969,0 0.503907,0.246094 0.503907,0.667969 v 0.117188 c -0.128907,0.105468 -0.574219,0.269531 -0.9375,0.386718 -0.328125,0.117188 -0.480469,0.304688 -0.480469,0.597657 0,0.375 0.292969,0.726562 0.714844,0.726562 0.1875,0 0.46875,-0.222656 0.714843,-0.386719 0.02344,0.105469 0.05859,0.1875 0.140625,0.269532 0.07031,0.07031 0.1875,0.117187 0.28125,0.117187 z m -0.949218,-0.269532 c -0.117188,0.105469 -0.328125,0.210938 -0.480469,0.210938 -0.1875,0 -0.433594,-0.140625 -0.433594,-0.457031 0,-0.210938 0.140625,-0.328125 0.375,-0.433594 0.117188,-0.05859 0.410156,-0.1875 0.539063,-0.257813 z m 2.018554,-1.558593 v -0.644532 c -0.292968,0.117188 -0.550781,0.1875 -0.855468,0.246094 v 0.128906 c 0.351562,0.04687 0.375,0.07031 0.375,0.46875 v 1.242188 c 0,0.398437 -0.03516,0.433594 -0.410157,0.46875 v 0.152344 h 1.382813 v -0.152344 c -0.46875,-0.03516 -0.492188,-0.07031 -0.492188,-0.46875 v -1.101563 c 0.128907,-0.339843 0.316407,-0.515625 0.480469,-0.515625 0.09375,0 0.164063,0.03516 0.246094,0.128907 0.03516,0.03516 0.09375,0.03516 0.164062,0.01172 0.117188,-0.05859 0.1875,-0.175781 0.1875,-0.292968 0,-0.152344 -0.140625,-0.304688 -0.339843,-0.304688 -0.292969,0 -0.550782,0.339844 -0.726563,0.632813 z m 0,0"
           style="fill:#231f20;fill-opacity:1;fill-rule:nonzero;stroke:none" />
      </g>
    </g>
  </g>
</svg>
