<?xml version="1.0" encoding="UTF-8" standalone="no"?>
<!-- Created with Inkscape (http://www.inkscape.org/) -->

<svg
   version="1.1"
   id="svg1"
   width="215.26666"
   height="136.70667"
   viewBox="0 0 215.26666 136.70667"
   sodipodi:docname="pha06f37.eps"
   xmlns:inkscape="http://www.inkscape.org/namespaces/inkscape"
   xmlns:sodipodi="http://sodipodi.sourceforge.net/DTD/sodipodi-0.dtd"
   xmlns="http://www.w3.org/2000/svg"
   xmlns:svg="http://www.w3.org/2000/svg">
  <defs
     id="defs1" />
  <sodipodi:namedview
     id="namedview1"
     pagecolor="#ffffff"
     bordercolor="#000000"
     borderopacity="0.25"
     inkscape:showpageshadow="2"
     inkscape:pageopacity="0.0"
     inkscape:pagecheckerboard="0"
     inkscape:deskcolor="#d1d1d1">
    <inkscape:page
       x="0"
       y="0"
       inkscape:label="1"
       id="page1"
       width="215.26666"
       height="136.70667"
       margin="0"
       bleed="0" />
  </sodipodi:namedview>
  <g
     id="g1"
     inkscape:groupmode="layer"
     inkscape:label="1">
    <g
       id="group-R5">
      <path
         id="path2"
         d="m 279.617,557.934 -38.828,22.793 23.566,40.171"
         style="fill:none;stroke:#231f20;stroke-width:5;stroke-linecap:butt;stroke-linejoin:miter;stroke-miterlimit:10;stroke-dasharray:none;stroke-opacity:1"
         transform="matrix(0.13333333,0,0,-0.13333333,0,136.70667)" />
      <path
         id="path3"
         d="m 454.895,856.691 7.585,12.942"
         style="fill:none;stroke:#231f20;stroke-width:5;stroke-linecap:butt;stroke-linejoin:miter;stroke-miterlimit:10;stroke-dasharray:none;stroke-opacity:1"
         transform="matrix(0.13333333,0,0,-0.13333333,0,136.70667)" />
      <path
         id="path4"
         d="m 472.246,886.27 68.352,116.5"
         style="fill:none;stroke:#231f20;stroke-width:5;stroke-linecap:butt;stroke-linejoin:miter;stroke-miterlimit:10;stroke-dasharray:28.9424, 19.295;stroke-dashoffset:0;stroke-opacity:1"
         transform="matrix(0.13333333,0,0,-0.13333333,0,136.70667)" />
      <path
         id="path5"
         d="m 545.48,1011.09 7.586,12.94"
         style="fill:none;stroke:#231f20;stroke-width:5;stroke-linecap:butt;stroke-linejoin:miter;stroke-miterlimit:10;stroke-dasharray:none;stroke-opacity:1"
         transform="matrix(0.13333333,0,0,-0.13333333,0,136.70667)" />
      <path
         id="path6"
         d="m 159.063,352.441 295.832,504.25"
         style="fill:none;stroke:#231f20;stroke-width:7.5;stroke-linecap:butt;stroke-linejoin:miter;stroke-miterlimit:10;stroke-dasharray:none;stroke-opacity:1"
         transform="matrix(0.13333333,0,0,-0.13333333,0,136.70667)" />
      <path
         id="path7"
         d="m 29.7578,132.031 7.586,12.942"
         style="fill:none;stroke:#231f20;stroke-width:5;stroke-linecap:butt;stroke-linejoin:miter;stroke-miterlimit:10;stroke-dasharray:none;stroke-opacity:1"
         transform="matrix(0.13333333,0,0,-0.13333333,0,136.70667)" />
      <path
         id="path8"
         d="M 47.7188,162.656 146.285,330.66"
         style="fill:none;stroke:#231f20;stroke-width:5;stroke-linecap:butt;stroke-linejoin:miter;stroke-miterlimit:10;stroke-dasharray:30.7555, 20.5037;stroke-dashoffset:0;stroke-opacity:1"
         transform="matrix(0.13333333,0,0,-0.13333333,0,136.70667)" />
      <path
         id="path9"
         d="m 151.477,339.504 7.586,12.937"
         style="fill:none;stroke:#231f20;stroke-width:5;stroke-linecap:butt;stroke-linejoin:miter;stroke-miterlimit:10;stroke-dasharray:none;stroke-opacity:1"
         transform="matrix(0.13333333,0,0,-0.13333333,0,136.70667)" />
      <path
         id="path10"
         d="m 303.867,597.719 -12.933,7.59"
         style="fill:none;stroke:#231f20;stroke-width:5;stroke-linecap:butt;stroke-linejoin:miter;stroke-miterlimit:10;stroke-dasharray:none;stroke-opacity:1"
         transform="matrix(0.13333333,0,0,-0.13333333,0,136.70667)" />
      <path
         id="path11"
         d="m 272.223,616.293 -7.196,4.219 -170.5739,100.066"
         style="fill:none;stroke:#231f20;stroke-width:5;stroke-linecap:butt;stroke-linejoin:miter;stroke-miterlimit:10;stroke-dasharray:32.542, 21.6946;stroke-dashoffset:0;stroke-opacity:1"
         transform="matrix(0.13333333,0,0,-0.13333333,0,136.70667)" />
      <path
         id="path12"
         d="m 85.0977,726.066 -12.9414,7.586"
         style="fill:none;stroke:#231f20;stroke-width:5;stroke-linecap:butt;stroke-linejoin:miter;stroke-miterlimit:10;stroke-dasharray:none;stroke-opacity:1"
         transform="matrix(0.13333333,0,0,-0.13333333,0,136.70667)" />
      <path
         id="path13"
         d="m 66.6914,722.727 c -5.6055,3.293 -7.4805,10.5 -4.1914,16.093 3.2891,5.606 10.4961,7.481 16.0938,4.192 5.6054,-3.285 7.4804,-10.492 4.1914,-16.094 -3.2813,-5.605 -10.4922,-7.48 -16.0938,-4.191"
         style="fill:#231f20;fill-opacity:1;fill-rule:nonzero;stroke:none"
         transform="matrix(0.13333333,0,0,-0.13333333,0,136.70667)" />
      <path
         id="path14"
         d="m 66.6914,722.727 c -5.6055,3.293 -7.4805,10.5 -4.1914,16.093 3.2891,5.606 10.4961,7.481 16.0938,4.192 5.6054,-3.285 7.4804,-10.492 4.1914,-16.094 -3.2813,-5.605 -10.4922,-7.48 -16.0938,-4.191 z"
         style="fill:none;stroke:#231f20;stroke-width:5;stroke-linecap:butt;stroke-linejoin:miter;stroke-miterlimit:10;stroke-dasharray:none;stroke-opacity:1"
         transform="matrix(0.13333333,0,0,-0.13333333,0,136.70667)" />
      <path
         id="path15"
         d="m 144.883,328.41 c -5.598,3.289 -7.481,10.496 -4.192,16.106 3.286,5.593 10.493,7.476 16.094,4.187 5.61,-3.293 7.485,-10.5 4.199,-16.101 -3.289,-5.598 -10.496,-7.485 -16.101,-4.192"
         style="fill:#231f20;fill-opacity:1;fill-rule:nonzero;stroke:none"
         transform="matrix(0.13333333,0,0,-0.13333333,0,136.70667)" />
      <path
         id="path16"
         d="m 144.883,328.41 c -5.598,3.289 -7.481,10.496 -4.192,16.106 3.286,5.593 10.493,7.476 16.094,4.187 5.61,-3.293 7.485,-10.5 4.199,-16.101 -3.289,-5.598 -10.496,-7.485 -16.101,-4.192 z"
         style="fill:none;stroke:#231f20;stroke-width:5;stroke-linecap:butt;stroke-linejoin:miter;stroke-miterlimit:10;stroke-dasharray:none;stroke-opacity:1"
         transform="matrix(0.13333333,0,0,-0.13333333,0,136.70667)" />
      <path
         id="path17"
         d="m 457.18,862.441 c -5.61,3.301 -7.485,10.508 -4.192,16.106 3.289,5.605 10.496,7.48 16.106,4.187 5.594,-3.277 7.476,-10.484 4.187,-16.089 -3.293,-5.61 -10.5,-7.485 -16.101,-4.204"
         style="fill:#231f20;fill-opacity:1;fill-rule:nonzero;stroke:none"
         transform="matrix(0.13333333,0,0,-0.13333333,0,136.70667)" />
      <path
         id="path18"
         d="m 457.18,862.441 c -5.61,3.301 -7.485,10.508 -4.192,16.106 3.289,5.605 10.496,7.48 16.106,4.187 5.594,-3.277 7.476,-10.484 4.187,-16.089 -3.293,-5.61 -10.5,-7.485 -16.101,-4.204 z"
         style="fill:none;stroke:#231f20;stroke-width:5;stroke-linecap:butt;stroke-linejoin:miter;stroke-miterlimit:10;stroke-dasharray:none;stroke-opacity:1"
         transform="matrix(0.13333333,0,0,-0.13333333,0,136.70667)" />
      <path
         id="path19"
         d="m 295.898,587.563 c -5.593,3.281 -7.48,10.488 -4.187,16.089 3.277,5.61 10.484,7.485 16.094,4.2 5.601,-3.297 7.476,-10.504 4.199,-16.102 -3.293,-5.605 -10.5,-7.48 -16.106,-4.187"
         style="fill:#231f20;fill-opacity:1;fill-rule:nonzero;stroke:none"
         transform="matrix(0.13333333,0,0,-0.13333333,0,136.70667)" />
      <path
         id="path20"
         d="m 295.898,587.563 c -5.593,3.281 -7.48,10.488 -4.187,16.089 3.277,5.61 10.484,7.485 16.094,4.2 5.601,-3.297 7.476,-10.504 4.199,-16.102 -3.293,-5.605 -10.5,-7.48 -16.106,-4.187 z"
         style="fill:none;stroke:#231f20;stroke-width:5;stroke-linecap:butt;stroke-linejoin:miter;stroke-miterlimit:10;stroke-dasharray:none;stroke-opacity:1"
         transform="matrix(0.13333333,0,0,-0.13333333,0,136.70667)" />
      <g
         id="g20"
         aria-label="p&#10;(a)(b)&#10;p′&#10;p&#10;1&#10;p&#10;0"
         transform="matrix(1.3333333,0,0,1.3333333,0,39.720267)">
        <path
           id="path21"
           d="m 1.5234375,-3.4230125 v -0.7148437 c -0.421875,0.1757812 -0.92578125,0.328125 -1.3125,0.3984375 v 0.2109375 c 0.5625,0.070312 0.59765625,0.09375 0.59765625,0.6796875 v 4.0664062 c 0,0.5859375 -0.0820313,0.6445313 -0.65625,0.703125 v 0.234375 H 2.2851563 V 1.9207375 C 1.5820312,1.850425 1.5234375,1.80355 1.5234375,1.1238625 v -1.18359375 c 0.1171875,0.0703125 0.3632812,0.15234375 0.6210938,0.1640625 1.171875,-0.2109375 2.2382812,-1.08984375 2.2382812,-2.44921875 0,-0.890625 -0.5976562,-1.6992187 -1.59375,-1.6992187 -0.1054687,0 -0.28125,0.046875 -0.4453125,0.140625 z m 0,0.3046875 c 0.2460937,-0.1875 0.609375,-0.3867187 0.9023438,-0.3867187 0.65625,0 1.2070312,0.5390625 1.2070312,1.5117187 0,1.0078125 -0.515625,1.6640625 -1.265625,1.6640625 -0.3046875,0 -0.6445313,-0.15234375 -0.84375,-0.3515625 z M 25.605469,70.824058 c -0.890625,-0.761719 -1.40625,-2.203125 -1.40625,-3.75 0,-1.546875 0.515625,-3 1.40625,-3.75 L 25.453125,63.11312 c -1.324219,0.902344 -1.910156,2.332032 -1.910156,3.949219 0,1.628906 0.585937,3.082031 1.910156,3.960938 z m 4.321289,-1.675781 -0.09375,-0.234375 c -0.09375,0.05859 -0.222656,0.105468 -0.328125,0.105468 -0.152344,0 -0.316406,-0.140625 -0.316406,-0.550781 v -1.664062 c 0,-0.46875 -0.08203,-0.84375 -0.398438,-1.101563 -0.199219,-0.164062 -0.46875,-0.246094 -0.738281,-0.246094 -0.515625,0.105469 -1.101563,0.457032 -1.347656,0.632813 -0.175782,0.128906 -0.292969,0.222656 -0.292969,0.363281 0,0.199219 0.234375,0.386719 0.398437,0.386719 0.128907,0 0.222657,-0.07031 0.257813,-0.210938 0.07031,-0.28125 0.152344,-0.480468 0.269531,-0.597656 0.09375,-0.105469 0.222656,-0.175781 0.410156,-0.175781 0.445313,0 0.75,0.363281 0.75,1.019531 v 0.164063 c -0.199218,0.152343 -0.855468,0.398437 -1.394531,0.574218 -0.492187,0.175782 -0.726562,0.457032 -0.726562,0.902344 0,0.5625 0.445312,1.089844 1.078125,1.089844 0.269531,0 0.703125,-0.328125 1.066406,-0.574219 0.04687,0.152344 0.09375,0.28125 0.210937,0.410156 0.105469,0.08203 0.292969,0.164063 0.421875,0.164063 z M 28.49707,68.73812 c -0.164062,0.164063 -0.480468,0.316407 -0.714843,0.328125 -0.28125,0 -0.644532,-0.222656 -0.644532,-0.691406 0,-0.328125 0.199219,-0.492187 0.550782,-0.65625 0.1875,-0.09375 0.621093,-0.28125 0.808593,-0.375 z m 1.889649,-5.414062 c 0.890625,0.738281 1.417968,2.203125 1.417968,3.75 0,1.546875 -0.503906,2.988281 -1.417968,3.75 l 0.164062,0.199219 c 1.347656,-0.914063 1.898438,-2.332032 1.898438,-3.949219 0,-1.628906 -0.550782,-3.058594 -1.898438,-3.960938 z m 99.407231,7.5 c -0.89063,-0.761719 -1.40625,-2.203125 -1.40625,-3.75 0,-1.546875 0.51562,-3 1.40625,-3.75 L 129.6416,63.11312 c -1.32422,0.902344 -1.91015,2.332032 -1.91015,3.949219 0,1.628906 0.58593,3.082031 1.91015,3.960938 z m 1.79003,-4.957031 v -2.777344 c -0.33984,0.117187 -0.89062,0.257812 -1.3125,0.316406 v 0.210938 c 0.58594,0.04687 0.59766,0.105468 0.59766,0.667968 v 5.003907 c 0.49219,0.234375 0.94922,0.316406 1.32422,0.316406 1.20703,0 2.26172,-0.9375 2.26172,-2.261719 0,-1.054687 -0.8086,-1.886719 -1.78125,-1.886719 -0.0937,0 -0.22266,0.02344 -0.36328,0.09375 z m 0,0.269531 c 0.16407,-0.105469 0.44532,-0.175781 0.70313,-0.175781 0.73828,0 1.37109,0.597656 1.37109,1.617187 0,1.054688 -0.48047,1.6875 -1.21875,1.6875 -0.48047,-0.01172 -0.75,-0.328125 -0.80859,-0.503906 -0.0352,-0.08203 -0.0469,-0.175781 -0.0469,-0.304688 z m 3.61231,-2.8125 c 0.89062,0.738281 1.41797,2.203125 1.41797,3.75 0,1.546875 -0.50391,2.988281 -1.41797,3.75 l 0.16406,0.199219 c 1.34766,-0.914063 1.89844,-2.332032 1.89844,-3.949219 0,-1.628906 -0.55078,-3.058594 -1.89844,-3.960938 z M 33.779297,15.101402 v -0.714844 c -0.421875,0.175781 -0.925781,0.328125 -1.3125,0.398437 v 0.210938 c 0.5625,0.07031 0.597656,0.09375 0.597656,0.679687 v 4.066407 c 0,0.585937 -0.08203,0.644531 -0.65625,0.703125 v 0.234375 h 2.132813 v -0.234375 c -0.703125,-0.07031 -0.761719,-0.117188 -0.761719,-0.796875 v -1.183594 c 0.117187,0.07031 0.363281,0.152344 0.621094,0.164062 1.171875,-0.210937 2.238281,-1.089843 2.238281,-2.449218 0,-0.890625 -0.597656,-1.699219 -1.59375,-1.699219 -0.105469,0 -0.28125,0.04687 -0.445313,0.140625 z m 0,0.304687 c 0.246094,-0.1875 0.609375,-0.386719 0.902344,-0.386719 0.65625,0 1.207031,0.539063 1.207031,1.511719 0,1.007813 -0.515625,1.664063 -1.265625,1.664063 -0.304688,0 -0.644531,-0.152344 -0.84375,-0.351563 z m 0,0"
           style="fill:#231f20;fill-opacity:1;fill-rule:nonzero;stroke:none" />
        <path
           id="path22"
           d="m 37.766602,14.984214 0.609375,-1.289062 c 0.175781,-0.386719 0.28125,-0.621094 0.316406,-0.738282 0.03516,-0.08203 0.04687,-0.152343 0.04687,-0.222656 0,-0.09375 -0.02344,-0.164062 -0.08203,-0.222656 -0.07031,-0.05859 -0.152344,-0.09375 -0.257813,-0.09375 -0.128906,0 -0.246094,0.03516 -0.339844,0.117187 -0.105468,0.08203 -0.175781,0.222657 -0.234375,0.398438 -0.03516,0.128906 -0.08203,0.375 -0.117187,0.761719 l -0.140625,1.289062 z m 0,0"
           style="fill:#231f20;fill-opacity:1;fill-rule:nonzero;stroke:none" />
        <path
           id="path23"
           d="m 50.0625,-11.254067 v -0.46875 c -0.292969,0.117187 -0.621094,0.210937 -0.878906,0.257812 v 0.140625 c 0.375,0.04687 0.398437,0.05859 0.398437,0.457032 v 2.7070308 c 0,0.3984375 -0.05859,0.4335938 -0.433594,0.46875 v 0.1640625 h 1.417969 V -7.6915672 C 50.097656,-7.7384422 50.0625,-7.7618797 50.0625,-8.2189109 v -0.7851563 c 0.07031,0.046875 0.234375,0.1054688 0.410156,0.1054688 0.773438,-0.140625 1.488281,-0.7265625 1.488281,-1.6289066 0,-0.597656 -0.386718,-1.136718 -1.054687,-1.136718 -0.07031,0 -0.1875,0.03516 -0.292969,0.09375 z m 0,0.199219 c 0.152344,-0.117188 0.398437,-0.246094 0.597656,-0.246094 0.433594,0 0.796875,0.363281 0.796875,0.996094 0,0.6796871 -0.328125,1.1132808 -0.832031,1.1132808 -0.210938,0 -0.433594,-0.09375 -0.5625,-0.234375 z m 6.00293,4.0839839 v -0.1640625 c -0.550782,-0.035156 -0.585938,-0.09375 -0.585938,-0.515625 v -3.1289064 c -0.328125,0.128906 -0.679687,0.246094 -1.066406,0.316406 v 0.128907 l 0.28125,0.01172 c 0.269531,0.01172 0.292969,0.04687 0.292969,0.3632817 v 2.3085937 c 0,0.421875 -0.03516,0.4804688 -0.574219,0.515625 v 0.1640625 z M 18.070312,41.392417 v -0.46875 c -0.292968,0.117188 -0.621093,0.210938 -0.878906,0.257813 v 0.140625 c 0.375,0.04687 0.398438,0.05859 0.398438,0.457031 v 2.707031 c 0,0.398438 -0.05859,0.433594 -0.433594,0.46875 v 0.164063 h 1.417969 v -0.164063 c -0.46875,-0.04687 -0.503907,-0.07031 -0.503907,-0.527344 v -0.785156 c 0.07031,0.04687 0.234375,0.105469 0.410157,0.105469 0.773437,-0.140625 1.488281,-0.726563 1.488281,-1.628906 0,-0.597657 -0.386719,-1.136719 -1.054688,-1.136719 -0.07031,0 -0.1875,0.03516 -0.292968,0.09375 z m 0,0.199219 c 0.152344,-0.117188 0.398438,-0.246094 0.597657,-0.246094 0.433593,0 0.796875,0.363281 0.796875,0.996094 0,0.679687 -0.328125,1.113281 -0.832032,1.113281 -0.210937,0 -0.433593,-0.09375 -0.5625,-0.234375 z m 5.138672,0.275391 c -0.902343,0 -1.230468,1.066406 -1.230468,1.945312 0,0.949219 0.328125,1.933594 1.230468,1.933594 0.902344,0 1.21875,-1.066406 1.21875,-1.945313 0,-0.925781 -0.316406,-1.933593 -1.21875,-1.933593 z m -0.01172,0.199218 c 0.539062,0 0.691406,0.890625 0.691406,1.734375 0,0.84375 -0.140625,1.746094 -0.679688,1.746094 -0.527343,0 -0.703125,-0.914062 -0.703125,-1.746094 0,-0.832031 0.152344,-1.734375 0.691407,-1.734375 z m 0,0"
           style="fill:#231f20;fill-opacity:1;fill-rule:nonzero;stroke:none" />
      </g>
      <path
         id="path24"
         d="m 1335.29,557.934 -38.83,22.793 23.57,40.171"
         style="fill:none;stroke:#231f20;stroke-width:5;stroke-linecap:butt;stroke-linejoin:miter;stroke-miterlimit:10;stroke-dasharray:none;stroke-opacity:1"
         transform="matrix(0.13333333,0,0,-0.13333333,0,136.70667)" />
      <path
         id="path25"
         d="m 1510.57,856.691 7.58,12.942"
         style="fill:none;stroke:#231f20;stroke-width:5;stroke-linecap:butt;stroke-linejoin:miter;stroke-miterlimit:10;stroke-dasharray:none;stroke-opacity:1"
         transform="matrix(0.13333333,0,0,-0.13333333,0,136.70667)" />
      <path
         id="path26"
         d="m 1527.92,886.27 68.35,116.5"
         style="fill:none;stroke:#231f20;stroke-width:5;stroke-linecap:butt;stroke-linejoin:miter;stroke-miterlimit:10;stroke-dasharray:28.9424, 19.295;stroke-dashoffset:0;stroke-opacity:1"
         transform="matrix(0.13333333,0,0,-0.13333333,0,136.70667)" />
      <path
         id="path27"
         d="m 1601.15,1011.09 7.59,12.94"
         style="fill:none;stroke:#231f20;stroke-width:5;stroke-linecap:butt;stroke-linejoin:miter;stroke-miterlimit:10;stroke-dasharray:none;stroke-opacity:1"
         transform="matrix(0.13333333,0,0,-0.13333333,0,136.70667)" />
      <path
         id="path28"
         d="m 1214.74,352.441 295.83,504.25"
         style="fill:none;stroke:#231f20;stroke-width:7.5;stroke-linecap:butt;stroke-linejoin:miter;stroke-miterlimit:10;stroke-dasharray:none;stroke-opacity:1"
         transform="matrix(0.13333333,0,0,-0.13333333,0,136.70667)" />
      <path
         id="path29"
         d="m 1085.43,132.031 7.59,12.942"
         style="fill:none;stroke:#231f20;stroke-width:5;stroke-linecap:butt;stroke-linejoin:miter;stroke-miterlimit:10;stroke-dasharray:none;stroke-opacity:1"
         transform="matrix(0.13333333,0,0,-0.13333333,0,136.70667)" />
      <path
         id="path30"
         d="m 1103.4,162.656 98.56,168.004"
         style="fill:none;stroke:#231f20;stroke-width:5;stroke-linecap:butt;stroke-linejoin:miter;stroke-miterlimit:10;stroke-dasharray:30.7555, 20.5037;stroke-dashoffset:0;stroke-opacity:1"
         transform="matrix(0.13333333,0,0,-0.13333333,0,136.70667)" />
      <path
         id="path31"
         d="m 1207.15,339.504 7.59,12.937"
         style="fill:none;stroke:#231f20;stroke-width:5;stroke-linecap:butt;stroke-linejoin:miter;stroke-miterlimit:10;stroke-dasharray:none;stroke-opacity:1"
         transform="matrix(0.13333333,0,0,-0.13333333,0,136.70667)" />
      <path
         id="path32"
         d="m 1359.54,597.719 -38.85,22.793 -192.86,113.14"
         style="fill:none;stroke:#231f20;stroke-width:5;stroke-linecap:butt;stroke-linejoin:miter;stroke-miterlimit:10;stroke-dasharray:30, 20;stroke-dashoffset:0;stroke-opacity:1"
         transform="matrix(0.13333333,0,0,-0.13333333,0,136.70667)" />
      <path
         id="path33"
         d="m 1122.36,722.727 c -5.6,3.293 -7.48,10.5 -4.19,16.093 3.29,5.606 10.49,7.481 16.1,4.192 5.6,-3.285 7.48,-10.492 4.19,-16.094 -3.29,-5.605 -10.5,-7.48 -16.1,-4.191"
         style="fill:#231f20;fill-opacity:1;fill-rule:nonzero;stroke:none"
         transform="matrix(0.13333333,0,0,-0.13333333,0,136.70667)" />
      <path
         id="path34"
         d="m 1122.36,722.727 c -5.6,3.293 -7.48,10.5 -4.19,16.093 3.29,5.606 10.49,7.481 16.1,4.192 5.6,-3.285 7.48,-10.492 4.19,-16.094 -3.29,-5.605 -10.5,-7.48 -16.1,-4.191 z"
         style="fill:none;stroke:#231f20;stroke-width:5;stroke-linecap:butt;stroke-linejoin:miter;stroke-miterlimit:10;stroke-dasharray:none;stroke-opacity:1"
         transform="matrix(0.13333333,0,0,-0.13333333,0,136.70667)" />
      <path
         id="path35"
         d="m 1200.56,328.41 c -5.61,3.289 -7.48,10.496 -4.2,16.106 3.29,5.593 10.5,7.476 16.09,4.187 5.61,-3.293 7.48,-10.5 4.2,-16.101 -3.28,-5.598 -10.49,-7.485 -16.09,-4.192"
         style="fill:#231f20;fill-opacity:1;fill-rule:nonzero;stroke:none"
         transform="matrix(0.13333333,0,0,-0.13333333,0,136.70667)" />
      <path
         id="path36"
         d="m 1200.56,328.41 c -5.61,3.289 -7.48,10.496 -4.2,16.106 3.29,5.593 10.5,7.476 16.09,4.187 5.61,-3.293 7.48,-10.5 4.2,-16.101 -3.28,-5.598 -10.49,-7.485 -16.09,-4.192 z"
         style="fill:none;stroke:#231f20;stroke-width:5;stroke-linecap:butt;stroke-linejoin:miter;stroke-miterlimit:10;stroke-dasharray:none;stroke-opacity:1"
         transform="matrix(0.13333333,0,0,-0.13333333,0,136.70667)" />
      <path
         id="path37"
         d="m 1512.85,862.441 c -5.6,3.301 -7.48,10.508 -4.19,16.106 3.28,5.605 10.49,7.48 16.1,4.187 5.6,-3.277 7.48,-10.484 4.19,-16.089 -3.3,-5.61 -10.5,-7.485 -16.1,-4.204"
         style="fill:#231f20;fill-opacity:1;fill-rule:nonzero;stroke:none"
         transform="matrix(0.13333333,0,0,-0.13333333,0,136.70667)" />
      <path
         id="path38"
         d="m 1512.85,862.441 c -5.6,3.301 -7.48,10.508 -4.19,16.106 3.28,5.605 10.49,7.48 16.1,4.187 5.6,-3.277 7.48,-10.484 4.19,-16.089 -3.3,-5.61 -10.5,-7.485 -16.1,-4.204 z"
         style="fill:none;stroke:#231f20;stroke-width:5;stroke-linecap:butt;stroke-linejoin:miter;stroke-miterlimit:10;stroke-dasharray:none;stroke-opacity:1"
         transform="matrix(0.13333333,0,0,-0.13333333,0,136.70667)" />
      <path
         id="path39"
         d="m 1351.57,587.563 c -5.6,3.281 -7.48,10.488 -4.2,16.089 3.29,5.61 10.5,7.485 16.1,4.2 5.6,-3.297 7.48,-10.504 4.2,-16.102 -3.29,-5.605 -10.49,-7.48 -16.1,-4.187"
         style="fill:#231f20;fill-opacity:1;fill-rule:nonzero;stroke:none"
         transform="matrix(0.13333333,0,0,-0.13333333,0,136.70667)" />
      <path
         id="path40"
         d="m 1351.57,587.563 c -5.6,3.281 -7.48,10.488 -4.2,16.089 3.29,5.61 10.5,7.485 16.1,4.2 5.6,-3.297 7.48,-10.504 4.2,-16.102 -3.29,-5.605 -10.49,-7.48 -16.1,-4.187 z"
         style="fill:none;stroke:#231f20;stroke-width:5;stroke-linecap:butt;stroke-linejoin:miter;stroke-miterlimit:10;stroke-dasharray:none;stroke-opacity:1"
         transform="matrix(0.13333333,0,0,-0.13333333,0,136.70667)" />
      <g
         id="g40"
         aria-label="p&#10;p′&#10;p&#10;1&#10;p&#10;0"
         transform="matrix(1.3333333,0,0,1.3333333,139.836,41.0536)">
        <path
           id="path41"
           d="m 1.5233906,-3.4210594 v -0.7148437 c -0.421875,0.1757812 -0.92578122,0.328125 -1.31249997,0.3984375 v 0.2109375 c 0.5625,0.070312 0.59765625,0.09375 0.59765625,0.6796875 v 4.0664062 c 0,0.5859375 -0.0820313,0.6445313 -0.65625,0.703125 v 0.234375 H 2.2851094 V 1.9226906 C 1.5819844,1.8523781 1.5233906,1.8055031 1.5233906,1.1258156 v -1.18359372 c 0.1171875,0.0703125 0.3632813,0.15234375 0.6210938,0.1640625 1.171875,-0.2109375 2.2382812,-1.08984375 2.2382812,-2.44921878 0,-0.890625 -0.5976562,-1.6992187 -1.59375,-1.6992187 -0.1054687,0 -0.28125,0.046875 -0.4453125,0.140625 z m 0,0.3046875 c 0.2460938,-0.1875 0.609375,-0.3867187 0.9023438,-0.3867187 0.65625,0 1.2070312,0.5390625 1.2070312,1.5117187 0,1.00781253 -0.515625,1.66406253 -1.265625,1.66406253 -0.3046875,0 -0.6445312,-0.15234375 -0.84375,-0.3515625 z M 35.408156,13.872886 v -0.714844 c -0.421875,0.175781 -0.925781,0.328125 -1.3125,0.398438 v 0.210937 c 0.5625,0.07031 0.597657,0.09375 0.597657,0.679688 v 4.066406 c 0,0.585937 -0.08203,0.644531 -0.65625,0.703125 v 0.234375 h 2.132812 v -0.234375 c -0.703125,-0.07031 -0.761719,-0.117188 -0.761719,-0.796875 v -1.183594 c 0.117188,0.07031 0.363282,0.152344 0.621094,0.164063 1.171875,-0.210938 2.238281,-1.089844 2.238281,-2.449219 0,-0.890625 -0.597656,-1.699219 -1.59375,-1.699219 -0.105468,0 -0.28125,0.04687 -0.445312,0.140625 z m 0,0.304687 c 0.246094,-0.1875 0.609375,-0.386718 0.902344,-0.386718 0.65625,0 1.207031,0.539062 1.207031,1.511718 0,1.007813 -0.515625,1.664063 -1.265625,1.664063 -0.304687,0 -0.644531,-0.152344 -0.84375,-0.351563 z m 0,0"
           style="fill:#231f20;fill-opacity:1;fill-rule:nonzero;stroke:none" />
        <path
           id="path42"
           d="m 39.398391,13.755698 0.609375,-1.289062 c 0.175781,-0.386719 0.28125,-0.621094 0.316406,-0.738281 0.03516,-0.08203 0.04687,-0.152344 0.04687,-0.222657 0,-0.09375 -0.02344,-0.164062 -0.08203,-0.222656 -0.07031,-0.05859 -0.152344,-0.09375 -0.257813,-0.09375 -0.128906,0 -0.246094,0.03516 -0.339844,0.117188 -0.105468,0.08203 -0.175781,0.222656 -0.234375,0.398437 -0.03516,0.128906 -0.08203,0.375 -0.117187,0.761719 l -0.140625,1.289062 z m 0,0"
           style="fill:#231f20;fill-opacity:1;fill-rule:nonzero;stroke:none" />
        <path
           id="path43"
           d="m 49.99507,-12.186684 v -0.46875 c -0.292968,0.117187 -0.621093,0.210937 -0.878906,0.257812 v 0.140625 c 0.375,0.04687 0.398438,0.05859 0.398438,0.457031 v 2.7070316 c 0,0.3984375 -0.05859,0.4335938 -0.433594,0.46875 v 0.1640625 h 1.417969 v -0.1640625 c -0.46875,-0.046875 -0.503907,-0.070312 -0.503907,-0.5273437 v -0.7851563 c 0.07031,0.046875 0.234375,0.1054688 0.410157,0.1054688 0.773437,-0.140625 1.488281,-0.7265624 1.488281,-1.6289064 0,-0.597656 -0.386719,-1.136719 -1.054688,-1.136719 -0.07031,0 -0.1875,0.03516 -0.292968,0.09375 z m 0,0.199218 c 0.152344,-0.117187 0.398438,-0.246093 0.597657,-0.246093 0.433593,0 0.796875,0.363281 0.796875,0.996093 0,0.679688 -0.328125,1.113282 -0.832032,1.113282 -0.210937,0 -0.433593,-0.09375 -0.5625,-0.234375 z m 6.00586,4.0839848 v -0.1640625 c -0.550782,-0.035156 -0.585938,-0.09375 -0.585938,-0.515625 v -3.1289063 c -0.328125,0.128906 -0.679687,0.246094 -1.066406,0.316406 v 0.128907 l 0.28125,0.01172 c 0.269531,0.01172 0.292969,0.04687 0.292969,0.363282 v 2.3085933 c 0,0.421875 -0.03516,0.4804687 -0.574219,0.515625 v 0.1640625 z M 18.785109,41.781089 v -0.46875 c -0.292968,0.117188 -0.621093,0.210938 -0.878906,0.257813 v 0.140625 c 0.375,0.04687 0.398438,0.05859 0.398438,0.457031 v 2.707031 c 0,0.398438 -0.05859,0.433594 -0.433594,0.46875 v 0.164063 h 1.417969 v -0.164063 c -0.46875,-0.04687 -0.503907,-0.07031 -0.503907,-0.527344 v -0.785156 c 0.07031,0.04687 0.234375,0.105469 0.410157,0.105469 0.773437,-0.140625 1.488281,-0.726563 1.488281,-1.628906 0,-0.597657 -0.386719,-1.136719 -1.054688,-1.136719 -0.07031,0 -0.1875,0.03516 -0.292968,0.09375 z m 0,0.199219 c 0.152344,-0.117188 0.398438,-0.246094 0.597657,-0.246094 0.433593,0 0.796875,0.363281 0.796875,0.996094 0,0.679687 -0.328125,1.113281 -0.832032,1.113281 -0.210937,0 -0.433593,-0.09375 -0.5625,-0.234375 z m 5.135743,0.27539 c -0.902344,0 -1.230469,1.066407 -1.230469,1.945313 0,0.949219 0.328125,1.933594 1.230469,1.933594 0.902343,0 1.21875,-1.066407 1.21875,-1.945313 0,-0.925781 -0.316407,-1.933594 -1.21875,-1.933594 z m -0.01172,0.199219 c 0.539062,0 0.691406,0.890625 0.691406,1.734375 0,0.84375 -0.140625,1.746094 -0.679687,1.746094 -0.527344,0 -0.703125,-0.914063 -0.703125,-1.746094 0,-0.832031 0.152343,-1.734375 0.691406,-1.734375 z m 0,0"
           style="fill:#231f20;fill-opacity:1;fill-rule:nonzero;stroke:none" />
      </g>
      <path
         id="path44"
         d="m 1205.26,339.453 -77.94,394.848"
         style="fill:none;stroke:#231f20;stroke-width:7.5;stroke-linecap:butt;stroke-linejoin:miter;stroke-miterlimit:10;stroke-dasharray:none;stroke-opacity:1"
         transform="matrix(0.13333333,0,0,-0.13333333,0,136.70667)" />
      <path
         id="path45"
         d="M 4.2298438,-1.0069406 C 3.98375,-0.76084688 3.7025,-0.56162813 3.5853125,-0.56162813 c -0.058594,0 -0.070312,-0.0820313 -0.035156,-0.3046875 0.3164062,-1.74609377 0.6914062,-3.49218747 1.125,-5.28515627 0.035156,-0.1875 0.011719,-0.2578125 -0.070312,-0.2578125 -0.1289063,0 -0.6210938,0.2226563 -1.3710938,0.3164063 l -0.035156,0.2226562 h 0.2929687 c 0.3984375,0 0.421875,0.035156 0.3398438,0.4453125 l -0.2929688,1.4882813 c -0.2226562,-0.09375 -0.4101562,-0.1054688 -0.5273437,-0.1054688 -0.4335938,0 -1.171875,0.328125 -1.59375,0.6914063 -0.65625005,0.5742187 -1.05468755,1.5351562 -1.05468755,2.37890622 0,0.71484375 0.29296875,1.078125 0.5859375,1.078125 0.25781255,0 0.53906255,-0.140625 0.87890625,-0.41015625 0.3164063,-0.24609375 0.7851563,-0.64453125 1.1835938,-1.18359377 h 0.023437 l -0.1640625,0.76171877 c -0.140625,0.69140625 -0.023437,0.83203125 0.1640625,0.83203125 0.2460937,0 0.84375,-0.33984375 1.3242187,-0.90234375 z m -2.8359375,0.52734372 c -0.1523438,0 -0.28125,-0.19921875 -0.28125,-0.66796872 0,-0.75 0.3515625,-1.8867188 0.9609375,-2.3203125 0.1523437,-0.1171875 0.3515625,-0.1875 0.6210937,-0.1875 0.2695313,0 0.5976563,0.1054687 0.7382813,0.234375 L 3.14,-2.1319406 c -0.2929687,0.5390625 -1.2890625,1.65234372 -1.7460937,1.65234372 z m 0,0"
         style="fill:#231f20;fill-opacity:1;fill-rule:nonzero;stroke:none"
         aria-label="d"
         transform="matrix(1.3333333,0,0,1.3333333,166.81333,46.6004)" />
      <path
         id="path46"
         d="m 1179.23,469.609 c 8.64,1.77 17.6,2.7 26.77,2.7 24.68,0 47.8,-6.731 67.59,-18.457"
         style="fill:none;stroke:#231f20;stroke-width:7.5;stroke-linecap:butt;stroke-linejoin:miter;stroke-miterlimit:10;stroke-dasharray:none;stroke-opacity:1"
         transform="matrix(0.13333333,0,0,-0.13333333,0,136.70667)" />
      <path
         id="path47"
         d="m 3.14175,-6.4102703 c -1.59375,0 -2.61328125,2.671875 -2.61328125,4.5585937 0,0.93750004 0.2578125,1.95703129 1.26562505,1.95703129 1.6171875,0 2.5664062,-2.69531249 2.5664062,-4.61718749 0,-0.9726563 -0.2578125,-1.8984375 -1.21875,-1.8984375 z m -1.6992187,2.9179687 c 0.2695312,-1.3476562 0.84375,-2.6132812 1.5703125,-2.6132812 0.5859375,0 0.6445312,0.890625 0.6445312,1.3710937 0,0.4101563 -0.058594,0.796875 -0.1054687,1.2421875 z m 2.0390625,0.421875 C 3.2355,-1.6407391 2.6612813,-0.21105156 1.9112813,-0.21105156 c -0.5273438,0 -0.6679688,-0.7734375 -0.6679688,-1.47656254 0,-0.46875 0.058594,-0.9257812 0.1289063,-1.3828125 z m 0,0"
         style="fill:#231f20;fill-opacity:1;fill-rule:nonzero;stroke:none"
         aria-label="θ"
         transform="matrix(1.3333333,0,0,1.3333333,160.936,71.050933)" />
    </g>
  </g>
</svg>
