<?xml version="1.0" encoding="UTF-8" standalone="no"?>
<!-- Created with Inkscape (http://www.inkscape.org/) -->

<svg
   version="1.1"
   id="svg1"
   width="117.34667"
   height="109.88"
   viewBox="0 0 117.34667 109.88"
   sodipodi:docname="pha06f43.eps"
   xmlns:inkscape="http://www.inkscape.org/namespaces/inkscape"
   xmlns:sodipodi="http://sodipodi.sourceforge.net/DTD/sodipodi-0.dtd"
   xmlns="http://www.w3.org/2000/svg"
   xmlns:svg="http://www.w3.org/2000/svg">
  <defs
     id="defs1" />
  <sodipodi:namedview
     id="namedview1"
     pagecolor="#ffffff"
     bordercolor="#000000"
     borderopacity="0.25"
     inkscape:showpageshadow="2"
     inkscape:pageopacity="0.0"
     inkscape:pagecheckerboard="0"
     inkscape:deskcolor="#d1d1d1">
    <inkscape:page
       x="0"
       y="0"
       inkscape:label="1"
       id="page1"
       width="117.34667"
       height="109.88"
       margin="0"
       bleed="0" />
  </sodipodi:namedview>
  <g
     id="g1"
     inkscape:groupmode="layer"
     inkscape:label="1">
    <g
       id="group-R5">
      <path
         id="path2"
         d="m 526.016,388.453 c 0,6.504 5.261,11.766 11.757,11.766 6.497,0 11.758,-5.262 11.758,-11.766 0,-6.496 -5.261,-11.758 -11.758,-11.758 -6.496,0 -11.757,5.262 -11.757,11.758"
         style="fill:#231f20;fill-opacity:1;fill-rule:nonzero;stroke:none"
         transform="matrix(0.13333333,0,0,-0.13333333,0,109.88)" />
      <path
         id="path3"
         d="M 0.078125,820.121 C 176.238,825.66 477.715,822.895 555.813,687.172 633.906,551.449 637.527,385.258 744.688,299.391 851.836,213.531 846.809,150.074 877.676,0.503906"
         style="fill:none;stroke:#231f20;stroke-width:5;stroke-linecap:butt;stroke-linejoin:miter;stroke-miterlimit:10;stroke-dasharray:none;stroke-opacity:1"
         transform="matrix(0.13333333,0,0,-0.13333333,0,109.88)" />
      <path
         id="path4"
         d="m 625.449,480.016 c 0,6.484 5.266,11.757 11.758,11.757 6.492,0 11.758,-5.273 11.758,-11.757 0,-6.504 -5.266,-11.77 -11.758,-11.77 -6.492,0 -11.758,5.266 -11.758,11.77"
         style="fill:#ffffff;fill-opacity:1;fill-rule:nonzero;stroke:none"
         transform="matrix(0.13333333,0,0,-0.13333333,0,109.88)" />
      <path
         id="path5"
         d="m 625.449,480.016 c 0,6.484 5.266,11.757 11.758,11.757 6.492,0 11.758,-5.273 11.758,-11.757 0,-6.504 -5.266,-11.77 -11.758,-11.77 -6.492,0 -11.758,5.266 -11.758,11.77 z"
         style="fill:none;stroke:#231f20;stroke-width:5;stroke-linecap:butt;stroke-linejoin:miter;stroke-miterlimit:10;stroke-dasharray:none;stroke-opacity:1"
         transform="matrix(0.13333333,0,0,-0.13333333,0,109.88)" />
      <path
         id="path6"
         d="m 720.313,128.238 v -12.5 h -12.5"
         style="fill:none;stroke:#231f20;stroke-width:5;stroke-linecap:butt;stroke-linejoin:miter;stroke-miterlimit:10;stroke-dasharray:none;stroke-opacity:1"
         transform="matrix(0.13333333,0,0,-0.13333333,0,109.88)" />
      <path
         id="path7"
         d="M 692.676,115.738 H 377.285"
         style="fill:none;stroke:#231f20;stroke-width:5;stroke-linecap:butt;stroke-linejoin:miter;stroke-miterlimit:10;stroke-dasharray:25.231, 15.1386;stroke-dashoffset:0;stroke-opacity:1"
         transform="matrix(0.13333333,0,0,-0.13333333,0,109.88)" />
      <path
         id="path8"
         d="m 369.719,115.738 h -12.5 v 12.5"
         style="fill:none;stroke:#231f20;stroke-width:5;stroke-linecap:butt;stroke-linejoin:miter;stroke-miterlimit:10;stroke-dasharray:none;stroke-opacity:1"
         transform="matrix(0.13333333,0,0,-0.13333333,0,109.88)" />
      <path
         id="path9"
         d="M 357.219,142.664 V 635.707"
         style="fill:none;stroke:#231f20;stroke-width:5;stroke-linecap:butt;stroke-linejoin:miter;stroke-miterlimit:10;stroke-dasharray:24.0508, 14.4305;stroke-dashoffset:0;stroke-opacity:1"
         transform="matrix(0.13333333,0,0,-0.13333333,0,109.88)" />
      <path
         id="path10"
         d="m 357.219,642.926 v 12.5 h 12.5"
         style="fill:none;stroke:#231f20;stroke-width:5;stroke-linecap:butt;stroke-linejoin:miter;stroke-miterlimit:10;stroke-dasharray:none;stroke-opacity:1"
         transform="matrix(0.13333333,0,0,-0.13333333,0,109.88)" />
      <path
         id="path11"
         d="M 384.855,655.426 H 700.242"
         style="fill:none;stroke:#231f20;stroke-width:5;stroke-linecap:butt;stroke-linejoin:miter;stroke-miterlimit:10;stroke-dasharray:25.231, 15.1386;stroke-dashoffset:0;stroke-opacity:1"
         transform="matrix(0.13333333,0,0,-0.13333333,0,109.88)" />
      <path
         id="path12"
         d="m 707.813,655.426 h 12.5 v -12.5"
         style="fill:none;stroke:#231f20;stroke-width:5;stroke-linecap:butt;stroke-linejoin:miter;stroke-miterlimit:10;stroke-dasharray:none;stroke-opacity:1"
         transform="matrix(0.13333333,0,0,-0.13333333,0,109.88)" />
      <path
         id="path13"
         d="M 720.313,628.496 V 135.453"
         style="fill:none;stroke:#231f20;stroke-width:5;stroke-linecap:butt;stroke-linejoin:miter;stroke-miterlimit:10;stroke-dasharray:24.0508, 14.4305;stroke-dashoffset:0;stroke-opacity:1"
         transform="matrix(0.13333333,0,0,-0.13333333,0,109.88)" />
      <path
         id="path14"
         d="m 537.656,655.297 0.215,-541.543"
         style="fill:none;stroke:#231f20;stroke-width:5;stroke-linecap:butt;stroke-linejoin:miter;stroke-miterlimit:10;stroke-dasharray:none;stroke-opacity:1"
         transform="matrix(0.13333333,0,0,-0.13333333,0,109.88)" />
      <path
         id="path15"
         d="M 357.219,389.547 H 718.328"
         style="fill:none;stroke:#231f20;stroke-width:5;stroke-linecap:butt;stroke-linejoin:miter;stroke-miterlimit:10;stroke-dasharray:none;stroke-opacity:1"
         transform="matrix(0.13333333,0,0,-0.13333333,0,109.88)" />
      <path
         id="path16"
         d="m 2.9166328,-3.1166031 c -0.058594,-0.4453125 -0.3984375,-1.1601563 -1.03125,-1.1601563 -0.3515625,0 -0.7265625,0.28125 -0.7265625,0.6914063 0,0.2460937 0.1523438,0.5390625 0.3984375,0.9140625 -0.1640625,0.070312 -0.328125,0.1523437 -0.4804687,0.2578125 -0.43359379,0.2695312 -0.80859379,0.7851562 -0.80859379,1.40625 0,0.63281247 0.33984375,1.07812497 0.90234379,1.07812497 0.2929687,0 0.5625,-0.1171875 0.7734375,-0.26953125 0.421875,-0.328125 0.65625,-0.80859372 0.65625,-1.30078122 0,-0.4570313 -0.1992188,-0.8203125 -0.5742188,-1.3242188 -0.375,-0.4921875 -0.5976562,-0.796875 -0.5976562,-0.9492187 0.011719,-0.1171875 0.09375,-0.1757813 0.2460937,-0.1757813 0.4921875,0 0.84375,0.3984375 1.171875,0.9140625 z m -1.59375,2.95312497 c -0.2578125,0 -0.53906249,-0.26953125 -0.53906249,-0.85546877 0,-0.5742187 0.29296879,-1.03125 0.49218749,-1.2539062 0.1054688,-0.1054688 0.234375,-0.1875 0.3867188,-0.2578125 0.1875,0.2460937 0.4570312,0.6328125 0.4570312,1.125 0,0.53906247 -0.2460937,1.24218747 -0.796875,1.24218747 z m 3.3955078,0.21679688 c 0.2109375,-0.2578125 0.328125,-0.33984375 0.3867188,-0.33984375 0.058594,0 0.1171875,0.0820312 0.1992187,0.375 l 0.1992188,0.62109375 c -0.375,0.56249995 -0.65625,0.91406245 -0.8320313,0.91406245 -0.058594,0 -0.1054687,-0.023437 -0.1289062,-0.058594 -0.035156,-0.035156 -0.058594,-0.058594 -0.1054688,-0.058594 -0.1054687,0 -0.234375,0.1289063 -0.234375,0.28125 -0.011719,0.1640625 0.1171875,0.28125 0.2695313,0.28125 0.2929687,0 0.5625,-0.2929687 1.1015625,-1.1367187 l 0.1875,0.5859375 c 0.1054687,0.375 0.2460937,0.5507812 0.3867187,0.5507812 0.2109375,0 0.4921875,-0.2226562 0.7617188,-0.6445312 L 6.8160469,1.307225 C 6.6168281,1.5298812 6.4762031,1.6470687 6.3824531,1.6470687 c -0.09375,0 -0.1875,-0.1757812 -0.3046875,-0.5507812 L 5.8785469,0.49863125 c 0.140625,-0.1875 0.2695312,-0.3515625 0.3984375,-0.4921875 0.1523437,-0.19921875 0.2695312,-0.3046875 0.3515625,-0.3046875 0.058594,0 0.1054687,0.0234375 0.140625,0.0820312 0.035156,0.0234375 0.058594,0.046875 0.09375,0.046875 0.082031,0 0.2226562,-0.12890625 0.234375,-0.26953125 0,-0.12890625 -0.09375,-0.2578125 -0.2578125,-0.2578125 -0.2578125,0 -0.515625,0.2578125 -1.0195313,0.984375 l -0.1054687,-0.328125 c -0.140625,-0.43359375 -0.2226563,-0.65625 -0.3867188,-0.65625 -0.1992187,0 -0.4570312,0.2578125 -0.7148437,0.62109375 z M 20.480109,19.992772 c -0.05859,-0.445313 -0.398437,-1.160156 -1.03125,-1.160156 -0.351562,0 -0.726562,0.28125 -0.726562,0.691406 0,0.246094 0.152344,0.539062 0.398437,0.914062 -0.164062,0.07031 -0.328125,0.152344 -0.480468,0.257813 -0.433594,0.269531 -0.808594,0.785156 -0.808594,1.40625 0,0.632812 0.339844,1.078125 0.902344,1.078125 0.292968,0 0.5625,-0.117188 0.773437,-0.269531 0.421875,-0.328125 0.65625,-0.808594 0.65625,-1.300782 0,-0.457031 -0.199219,-0.820312 -0.574219,-1.324218 -0.375,-0.492188 -0.597656,-0.796875 -0.597656,-0.949219 0.01172,-0.117188 0.09375,-0.175781 0.246094,-0.175781 0.492187,0 0.84375,0.398437 1.171875,0.914062 z m -1.59375,2.953125 c -0.257812,0 -0.539062,-0.269531 -0.539062,-0.855469 0,-0.574219 0.292969,-1.03125 0.492187,-1.253906 0.105469,-0.105469 0.234375,-0.1875 0.386719,-0.257813 0.1875,0.246094 0.457031,0.632813 0.457031,1.125 0,0.539063 -0.246093,1.242188 -0.796875,1.242188 z m 4.309571,1.719726 c -0.03516,-0.550781 -0.07031,-1.089843 -0.128907,-1.546875 -0.05859,-0.480468 -0.140625,-0.703125 -0.316406,-0.703125 -0.210937,0 -0.515625,0.339844 -0.703125,0.644532 l 0.105469,0.140625 c 0.152344,-0.210938 0.292969,-0.351563 0.339844,-0.351563 0.05859,0 0.09375,0.07031 0.128906,0.375 0.08203,0.539063 0.1875,1.476563 0.1875,1.957031 -0.292969,0.386719 -0.761719,0.914063 -1.40625,1.335938 l 0.04687,0.140625 0.621094,-0.164063 c 0.339843,-0.375 0.726562,-0.902343 1.078125,-1.417968 0.316406,-0.445313 0.832031,-1.242188 1.089843,-1.6875 0.152344,-0.269532 0.210938,-0.46875 0.210938,-0.644532 0,-0.199218 -0.105469,-0.328125 -0.234375,-0.328125 -0.105469,0 -0.210938,0.07031 -0.257813,0.164063 -0.02344,0.04687 -0.02344,0.105469 -0.01172,0.152344 0.03516,0.05859 0.07031,0.164062 0.07031,0.28125 0.01172,0.433593 -0.550781,1.253906 -0.808594,1.652343 z m 0,0"
         style="fill:#231f20;fill-opacity:1;fill-rule:nonzero;stroke:none"
         aria-label="δ&#10;x&#10;δ&#10;y"
         transform="matrix(1.3333333,0,0,1.3333333,53.076,50.194533)" />
      <path
         id="path17"
         d="M 365.957,415.328 H 528.098"
         style="fill:none;stroke:#231f20;stroke-width:5;stroke-linecap:butt;stroke-linejoin:miter;stroke-miterlimit:10;stroke-dasharray:none;stroke-opacity:1"
         transform="matrix(0.13333333,0,0,-0.13333333,0,109.88)" />
      <path
         id="path18"
         d="m 365.957,428.648 v -25.8"
         style="fill:none;stroke:#231f20;stroke-width:5;stroke-linecap:butt;stroke-linejoin:miter;stroke-miterlimit:10;stroke-dasharray:none;stroke-opacity:1"
         transform="matrix(0.13333333,0,0,-0.13333333,0,109.88)" />
      <path
         id="path19"
         d="m 528.098,428.648 v -25.8"
         style="fill:none;stroke:#231f20;stroke-width:5;stroke-linecap:butt;stroke-linejoin:miter;stroke-miterlimit:10;stroke-dasharray:none;stroke-opacity:1"
         transform="matrix(0.13333333,0,0,-0.13333333,0,109.88)" />
      <path
         id="path20"
         d="M 564.277,378.707 V 125.25"
         style="fill:none;stroke:#231f20;stroke-width:5;stroke-linecap:butt;stroke-linejoin:miter;stroke-miterlimit:10;stroke-dasharray:none;stroke-opacity:1"
         transform="matrix(0.13333333,0,0,-0.13333333,0,109.88)" />
      <path
         id="path21"
         d="M 577.18,378.707 H 551.379"
         style="fill:none;stroke:#231f20;stroke-width:5;stroke-linecap:butt;stroke-linejoin:miter;stroke-miterlimit:10;stroke-dasharray:none;stroke-opacity:1"
         transform="matrix(0.13333333,0,0,-0.13333333,0,109.88)" />
      <path
         id="path22"
         d="M 577.18,124.586 H 551.379"
         style="fill:none;stroke:#231f20;stroke-width:5;stroke-linecap:butt;stroke-linejoin:miter;stroke-miterlimit:10;stroke-dasharray:none;stroke-opacity:1"
         transform="matrix(0.13333333,0,0,-0.13333333,0,109.88)" />
    </g>
  </g>
</svg>
