<?xml version="1.0" encoding="UTF-8" standalone="no"?>
<!-- Created with Inkscape (http://www.inkscape.org/) -->

<svg
   version="1.1"
   id="svg1"
   width="141.84"
   height="26.186666"
   viewBox="0 0 141.84 26.186666"
   sodipodi:docname="pha06f36.eps"
   xmlns:inkscape="http://www.inkscape.org/namespaces/inkscape"
   xmlns:sodipodi="http://sodipodi.sourceforge.net/DTD/sodipodi-0.dtd"
   xmlns="http://www.w3.org/2000/svg"
   xmlns:svg="http://www.w3.org/2000/svg">
  <defs
     id="defs1" />
  <sodipodi:namedview
     id="namedview1"
     pagecolor="#ffffff"
     bordercolor="#000000"
     borderopacity="0.25"
     inkscape:showpageshadow="2"
     inkscape:pageopacity="0.0"
     inkscape:pagecheckerboard="0"
     inkscape:deskcolor="#d1d1d1">
    <inkscape:page
       x="0"
       y="0"
       inkscape:label="1"
       id="page1"
       width="141.84"
       height="26.186666"
       margin="0"
       bleed="0" />
  </sodipodi:namedview>
  <g
     id="g1"
     inkscape:groupmode="layer"
     inkscape:label="1">
    <g
       id="group-R5">
      <path
         id="path2"
         d="M 13.4961,13.5156 C 320.703,320.703 704.688,167.109 1050.29,51.9141"
         style="fill:none;stroke:#231f20;stroke-width:5;stroke-linecap:square;stroke-linejoin:miter;stroke-miterlimit:3.25;stroke-dasharray:none;stroke-opacity:1"
         transform="matrix(0.13333333,0,0,-0.13333333,0,26.186667)" />
      <path
         id="path3"
         d="m 26.9922,13.5156 c 0,3.5742 -1.4258,7.0117 -3.9453,9.5313 -2.5391,2.539 -5.9766,3.9648 -9.5508,3.9648 -3.57422,0 -7.01172,-1.4258 -9.55079,-3.9648 C 1.42578,20.5273 0,17.0898 0,13.5156 0,9.92188 1.42578,6.50391 3.94531,3.96484 6.48438,1.42578 9.92188,0 13.4961,0 c 3.5742,0 7.0117,1.42578 9.5508,3.96484 2.5195,2.53907 3.9453,5.95704 3.9453,9.55076 v 0"
         style="fill:#231f20;fill-opacity:1;fill-rule:evenodd;stroke:none"
         transform="matrix(0.13333333,0,0,-0.13333333,0,26.186667)" />
      <path
         id="path4"
         d="m 1063.79,51.9141 c 0,3.5742 -1.43,7.0117 -3.95,9.5507 -2.54,2.5196 -5.97,3.9454 -9.55,3.9454 -3.57,0 -7.01,-1.4258 -9.55,-3.9454 -2.52,-2.539 -3.94,-5.9765 -3.94,-9.5507 0,-3.5938 1.42,-7.0118 3.94,-9.5508 2.54,-2.5391 5.98,-3.9453 9.55,-3.9453 3.58,0 7.01,1.4062 9.55,3.9453 2.52,2.539 3.95,5.957 3.95,9.5508 v 0"
         style="fill:#231f20;fill-opacity:1;fill-rule:evenodd;stroke:none"
         transform="matrix(0.13333333,0,0,-0.13333333,0,26.186667)" />
      <path
         id="path5"
         d="m 13.4961,13.5156 14.9883,0.5547"
         style="fill:none;stroke:#231f20;stroke-width:5;stroke-linecap:butt;stroke-linejoin:miter;stroke-miterlimit:3.25;stroke-dasharray:none;stroke-opacity:1"
         transform="matrix(0.13333333,0,0,-0.13333333,0,26.186667)" />
      <path
         id="path6"
         d="M 48.2266,14.8008 1025.43,50.9922"
         style="fill:none;stroke:#231f20;stroke-width:5;stroke-linecap:butt;stroke-linejoin:miter;stroke-miterlimit:3.25;stroke-dasharray:29.6326, 19.7551;stroke-dashoffset:0;stroke-opacity:1"
         transform="matrix(0.13333333,0,0,-0.13333333,0,26.186667)" />
      <path
         id="path7"
         d="m 1035.3,51.3555 14.99,0.5586"
         style="fill:none;stroke:#231f20;stroke-width:5;stroke-linecap:butt;stroke-linejoin:miter;stroke-miterlimit:3.25;stroke-dasharray:none;stroke-opacity:1"
         transform="matrix(0.13333333,0,0,-0.13333333,0,26.186667)" />
    </g>
  </g>
</svg>
