<?xml version="1.0" encoding="UTF-8" standalone="no"?>
<!-- Created with Inkscape (http://www.inkscape.org/) -->

<svg
   version="1.1"
   id="svg1"
   width="205.82668"
   height="137.39999"
   viewBox="0 0 205.82668 137.39999"
   sodipodi:docname="pha06f38.eps"
   xmlns:inkscape="http://www.inkscape.org/namespaces/inkscape"
   xmlns:sodipodi="http://sodipodi.sourceforge.net/DTD/sodipodi-0.dtd"
   xmlns="http://www.w3.org/2000/svg"
   xmlns:svg="http://www.w3.org/2000/svg">
  <defs
     id="defs1" />
  <sodipodi:namedview
     id="namedview1"
     pagecolor="#ffffff"
     bordercolor="#000000"
     borderopacity="0.25"
     inkscape:showpageshadow="2"
     inkscape:pageopacity="0.0"
     inkscape:pagecheckerboard="0"
     inkscape:deskcolor="#d1d1d1">
    <inkscape:page
       x="0"
       y="0"
       inkscape:label="1"
       id="page1"
       width="205.82668"
       height="137.39999"
       margin="0"
       bleed="0" />
  </sodipodi:namedview>
  <g
     id="g1"
     inkscape:groupmode="layer"
     inkscape:label="1">
    <g
       id="group-R5">
      <path
         id="path2"
         d="m 915.742,563.414 -4.48,11.664"
         style="fill:none;stroke:#231f20;stroke-width:5;stroke-linecap:butt;stroke-linejoin:miter;stroke-miterlimit:10;stroke-dasharray:none;stroke-opacity:1"
         transform="matrix(0.13333333,0,0,-0.13333333,0,137.4)" />
      <path
         id="path3"
         d="M 905.742,589.426 776.094,926.488"
         style="fill:none;stroke:#231f20;stroke-width:5;stroke-linecap:butt;stroke-linejoin:miter;stroke-miterlimit:10;stroke-dasharray:25.6127, 15.3676;stroke-dashoffset:0;stroke-opacity:1"
         transform="matrix(0.13333333,0,0,-0.13333333,0,137.4)" />
      <path
         id="path4"
         d="m 773.328,933.664 -4.48,11.664"
         style="fill:none;stroke:#231f20;stroke-width:5;stroke-linecap:butt;stroke-linejoin:miter;stroke-miterlimit:10;stroke-dasharray:none;stroke-opacity:1"
         transform="matrix(0.13333333,0,0,-0.13333333,0,137.4)" />
      <path
         id="path5"
         d="M 1000.91,343.656 921.418,548.594"
         style="fill:none;stroke:#231f20;stroke-width:5;stroke-linecap:butt;stroke-linejoin:miter;stroke-miterlimit:10;stroke-dasharray:none;stroke-opacity:1"
         transform="matrix(0.13333333,0,0,-0.13333333,0,137.4)" />
      <path
         id="path6"
         d="m 924.668,540.227 -12.832,-16.731 -0.606,0.426 0.254,31.605 c -1.601,10.36 -3.203,20.715 -4.804,31.071 5.8,-8.727 11.601,-17.457 17.402,-26.18 l 21.504,-23.172 -0.066,-0.683 -20.852,3.664"
         style="fill:#231f20;fill-opacity:1;fill-rule:nonzero;stroke:none"
         transform="matrix(0.13333333,0,0,-0.13333333,0,137.4)" />
      <path
         id="path7"
         d="m 1339.23,596.148 -4.32,-11.726"
         style="fill:none;stroke:#231f20;stroke-width:5;stroke-linecap:butt;stroke-linejoin:miter;stroke-miterlimit:10;stroke-dasharray:none;stroke-opacity:1"
         transform="matrix(0.13333333,0,0,-0.13333333,0,137.4)" />
      <path
         id="path8"
         d="M 1329.57,569.918 1132.97,35.7461"
         style="fill:none;stroke:#231f20;stroke-width:5;stroke-linecap:butt;stroke-linejoin:miter;stroke-miterlimit:10;stroke-dasharray:25.7557, 15.4534;stroke-dashoffset:0;stroke-opacity:1"
         transform="matrix(0.13333333,0,0,-0.13333333,0,137.4)" />
      <path
         id="path9"
         d="m 1130.3,28.4883 -4.31,-11.7266 -4.47,11.6797"
         style="fill:none;stroke:#231f20;stroke-width:5;stroke-linecap:butt;stroke-linejoin:miter;stroke-miterlimit:10;stroke-dasharray:none;stroke-opacity:1"
         transform="matrix(0.13333333,0,0,-0.13333333,0,137.4)" />
      <path
         id="path10"
         d="M 1116.14,42.4961 1004.17,335.363"
         style="fill:none;stroke:#231f20;stroke-width:5;stroke-linecap:butt;stroke-linejoin:miter;stroke-miterlimit:10;stroke-dasharray:25.0835, 15.0501;stroke-dashoffset:0;stroke-opacity:1"
         transform="matrix(0.13333333,0,0,-0.13333333,0,137.4)" />
      <path
         id="path11"
         d="m 1001.48,342.395 -4.46,11.671"
         style="fill:none;stroke:#231f20;stroke-width:5;stroke-linecap:butt;stroke-linejoin:miter;stroke-miterlimit:10;stroke-dasharray:none;stroke-opacity:1"
         transform="matrix(0.13333333,0,0,-0.13333333,0,137.4)" />
      <path
         id="path12"
         d="M 1420.63,817.359 1353.31,634.398"
         style="fill:none;stroke:#231f20;stroke-width:5;stroke-linecap:butt;stroke-linejoin:miter;stroke-miterlimit:10;stroke-dasharray:none;stroke-opacity:1"
         transform="matrix(0.13333333,0,0,-0.13333333,0,137.4)" />
      <path
         id="path13"
         d="m 1356.41,642.824 20.69,4.063 0.17,-0.719 -21.1,-23.539 c -5.64,-8.824 -11.3,-17.652 -16.94,-26.481 1.42,10.379 2.84,20.762 4.27,31.149 l -0.81,31.598 0.5,0.464 13.22,-16.535"
         style="fill:#231f20;fill-opacity:1;fill-rule:nonzero;stroke:none"
         transform="matrix(0.13333333,0,0,-0.13333333,0,137.4)" />
      <path
         id="path14"
         d="m 480.156,342.164 5.293,11.324"
         style="fill:none;stroke:#231f20;stroke-width:5;stroke-linecap:butt;stroke-linejoin:miter;stroke-miterlimit:10;stroke-dasharray:none;stroke-opacity:1"
         transform="matrix(0.13333333,0,0,-0.13333333,0,137.4)" />
      <path
         id="path15"
         d="M 491.941,367.379 748.406,916.148"
         style="fill:none;stroke:#231f20;stroke-width:5;stroke-linecap:butt;stroke-linejoin:miter;stroke-miterlimit:10;stroke-dasharray:25.5586, 15.3352;stroke-dashoffset:0;stroke-opacity:1"
         transform="matrix(0.13333333,0,0,-0.13333333,0,137.4)" />
      <path
         id="path16"
         d="m 751.648,923.098 5.293,11.324"
         style="fill:none;stroke:#231f20;stroke-width:5;stroke-linecap:butt;stroke-linejoin:miter;stroke-miterlimit:10;stroke-dasharray:none;stroke-opacity:1"
         transform="matrix(0.13333333,0,0,-0.13333333,0,137.4)" />
      <path
         id="path17"
         d="m 366.484,100.953 96.293,204.336"
         style="fill:none;stroke:#231f20;stroke-width:5;stroke-linecap:butt;stroke-linejoin:miter;stroke-miterlimit:10;stroke-dasharray:none;stroke-opacity:1"
         transform="matrix(0.13333333,0,0,-0.13333333,0,137.4)" />
      <path
         id="path18"
         d="m 458.953,297.176 -20.965,-2.235 -0.105,0.731 23.074,21.601 c 6.398,8.293 12.797,16.594 19.199,24.891 -2.324,-10.219 -4.652,-20.434 -6.976,-30.652 l -1.969,-31.543 -0.543,-0.434 -11.715,17.641"
         style="fill:#231f20;fill-opacity:1;fill-rule:nonzero;stroke:none"
         transform="matrix(0.13333333,0,0,-0.13333333,0,137.4)" />
      <path
         id="path19"
         d="m 183.594,469.488 3.867,-11.883"
         style="fill:none;stroke:#231f20;stroke-width:5;stroke-linecap:butt;stroke-linejoin:miter;stroke-miterlimit:10;stroke-dasharray:none;stroke-opacity:1"
         transform="matrix(0.13333333,0,0,-0.13333333,0,137.4)" />
      <path
         id="path20"
         d="M 192.012,443.625 323.223,40.6016"
         style="fill:none;stroke:#231f20;stroke-width:5;stroke-linecap:butt;stroke-linejoin:miter;stroke-miterlimit:10;stroke-dasharray:24.4997, 14.6998;stroke-dashoffset:0;stroke-opacity:1"
         transform="matrix(0.13333333,0,0,-0.13333333,0,137.4)" />
      <path
         id="path21"
         d="m 325.496,33.6094 3.867,-11.8906 5.305,11.3242"
         style="fill:none;stroke:#231f20;stroke-width:5;stroke-linecap:butt;stroke-linejoin:miter;stroke-miterlimit:10;stroke-dasharray:none;stroke-opacity:1"
         transform="matrix(0.13333333,0,0,-0.13333333,0,137.4)" />
      <path
         id="path22"
         d="m 341.898,48.4766 15.668,33.4375"
         style="fill:none;stroke:#231f20;stroke-width:5;stroke-linecap:butt;stroke-linejoin:miter;stroke-miterlimit:10;stroke-dasharray:28.4058, 17.0435;stroke-dashoffset:0;stroke-opacity:1"
         transform="matrix(0.13333333,0,0,-0.13333333,0,137.4)" />
      <path
         id="path23"
         d="m 361.184,89.6367 5.3,11.3163"
         style="fill:none;stroke:#231f20;stroke-width:5;stroke-linecap:butt;stroke-linejoin:miter;stroke-miterlimit:10;stroke-dasharray:none;stroke-opacity:1"
         transform="matrix(0.13333333,0,0,-0.13333333,0,137.4)" />
      <path
         id="path24"
         d="m 108.137,701.285 62.84,-193.039"
         style="fill:none;stroke:#231f20;stroke-width:5;stroke-linecap:butt;stroke-linejoin:miter;stroke-miterlimit:10;stroke-dasharray:none;stroke-opacity:1"
         transform="matrix(0.13333333,0,0,-0.13333333,0,137.4)" />
      <path
         id="path25"
         d="m 168.199,516.781 13.739,15.996 0.578,-0.457 -2.004,-31.547 c 1.031,-10.425 2.054,-20.855 3.082,-31.285 -5.309,9.035 -10.614,18.071 -15.93,27.106 l -20.184,24.32 0.098,0.68 20.621,-4.813"
         style="fill:#231f20;fill-opacity:1;fill-rule:nonzero;stroke:none"
         transform="matrix(0.13333333,0,0,-0.13333333,0,137.4)" />
      <path
         id="path26"
         d="M 0,171.52 H 1543.65"
         style="fill:none;stroke:#231f20;stroke-width:5;stroke-linecap:butt;stroke-linejoin:miter;stroke-miterlimit:10;stroke-dasharray:none;stroke-opacity:1"
         transform="matrix(0.13333333,0,0,-0.13333333,0,137.4)" />
      <path
         id="path27"
         d="m 317.602,21.7188 c 0,6.5 5.265,11.7695 11.757,11.7695 6.5,0 11.77,-5.2695 11.77,-11.7695 0,-6.4805 -5.27,-11.75786 -11.77,-11.75786 -6.492,0 -11.757,5.27736 -11.757,11.75786"
         style="fill:#231f20;fill-opacity:1;fill-rule:nonzero;stroke:none"
         transform="matrix(0.13333333,0,0,-0.13333333,0,137.4)" />
      <path
         id="path28"
         d="m 317.602,21.7188 c 0,6.5 5.265,11.7695 11.757,11.7695 6.5,0 11.77,-5.2695 11.77,-11.7695 0,-6.4805 -5.27,-11.75786 -11.77,-11.75786 -6.492,0 -11.757,5.27736 -11.757,11.75786 z"
         style="fill:none;stroke:#231f20;stroke-width:10;stroke-linecap:butt;stroke-linejoin:miter;stroke-miterlimit:10;stroke-dasharray:none;stroke-opacity:1"
         transform="matrix(0.13333333,0,0,-0.13333333,0,137.4)" />
      <path
         id="path29"
         d="m 1114.22,16.7617 c 0,6.5 5.27,11.7696 11.77,11.7696 6.49,0 11.76,-5.2696 11.76,-11.7696 C 1137.75,10.2695 1132.48,5 1125.99,5 c -6.5,0 -11.77,5.2695 -11.77,11.7617"
         style="fill:#231f20;fill-opacity:1;fill-rule:nonzero;stroke:none"
         transform="matrix(0.13333333,0,0,-0.13333333,0,137.4)" />
      <path
         id="path30"
         d="m 1114.22,16.7617 c 0,6.5 5.27,11.7696 11.77,11.7696 6.49,0 11.76,-5.2696 11.76,-11.7696 C 1137.75,10.2695 1132.48,5 1125.99,5 c -6.5,0 -11.77,5.2695 -11.77,11.7617 z"
         style="fill:none;stroke:#231f20;stroke-width:10;stroke-linecap:butt;stroke-linejoin:miter;stroke-miterlimit:10;stroke-dasharray:none;stroke-opacity:1"
         transform="matrix(0.13333333,0,0,-0.13333333,0,137.4)" />
      <path
         id="path31"
         d="m 943.496,231.402 166.744,90.559"
         style="fill:none;stroke:#231f20;stroke-width:5;stroke-linecap:butt;stroke-linejoin:miter;stroke-miterlimit:10;stroke-dasharray:none;stroke-opacity:1"
         transform="matrix(0.13333333,0,0,-0.13333333,0,137.4)" />
      <path
         id="path32"
         d="m 351.559,91.3555 c 0,6.4922 5.265,11.7655 11.761,11.7655 6.493,0 11.762,-5.2733 11.762,-11.7655 0,-6.4961 -5.269,-11.7696 -11.762,-11.7696 -6.496,0 -11.761,5.2735 -11.761,11.7696"
         style="fill:#ffffff;fill-opacity:1;fill-rule:nonzero;stroke:none"
         transform="matrix(0.13333333,0,0,-0.13333333,0,137.4)" />
      <path
         id="path33"
         d="m 351.559,91.3555 c 0,6.4922 5.265,11.7655 11.761,11.7655 6.493,0 11.762,-5.2733 11.762,-11.7655 0,-6.4961 -5.269,-11.7696 -11.762,-11.7696 -6.496,0 -11.761,5.2735 -11.761,11.7696 z"
         style="fill:none;stroke:#231f20;stroke-width:5;stroke-linecap:butt;stroke-linejoin:miter;stroke-miterlimit:10;stroke-dasharray:none;stroke-opacity:1"
         transform="matrix(0.13333333,0,0,-0.13333333,0,137.4)" />
      <path
         id="path34"
         d="m 993.301,333.336 c 0,6.504 5.262,11.769 11.769,11.769 6.49,0 11.76,-5.265 11.76,-11.769 0,-6.492 -5.27,-11.758 -11.76,-11.758 -6.507,0 -11.769,5.266 -11.769,11.758"
         style="fill:#ffffff;fill-opacity:1;fill-rule:nonzero;stroke:none"
         transform="matrix(0.13333333,0,0,-0.13333333,0,137.4)" />
      <path
         id="path35"
         d="m 993.301,333.336 c 0,6.504 5.262,11.769 11.769,11.769 6.49,0 11.76,-5.265 11.76,-11.769 0,-6.492 -5.27,-11.758 -11.76,-11.758 -6.507,0 -11.769,5.266 -11.769,11.758 z"
         style="fill:none;stroke:#231f20;stroke-width:5;stroke-linecap:butt;stroke-linejoin:miter;stroke-miterlimit:10;stroke-dasharray:none;stroke-opacity:1"
         transform="matrix(0.13333333,0,0,-0.13333333,0,137.4)" />
      <path
         id="path36"
         d="m 766.594,1023.45 5.652,-21.96 10.109,20.3 0.965,-22.653 14.102,17.753 -3.75,-22.363 17.48,14.443 -8.332,-21.099 20.118,10.496 -12.54,-18.906 21.86,6.078 -16.195,-15.887 22.636,1.403 -19.129,-12.172 22.434,-3.336 -21.25,-7.922 21.25,-7.93 -22.434,-3.336 19.129,-12.171 -22.636,1.406 16.195,-15.887 -21.86,6.074 12.54,-18.898 -20.118,10.484 8.332,-21.094 -17.48,14.442 3.75,-22.367 -14.102,17.757 -0.965,-22.656 -10.109,20.309 -5.652,-21.969 -5.676,21.969 -10.098,-20.309 -0.976,22.656 -14.114,-17.757 3.774,22.367 -17.492,-14.442 8.332,21.094 -20.11,-10.484 12.532,18.898 -21.848,-6.074 16.184,15.887 -22.637,-1.406 19.14,12.171 -22.433,3.336 21.238,7.93 -21.238,7.922 22.433,3.336 -19.14,12.172 22.637,-1.403 -16.184,15.887 21.848,-6.078 -12.532,18.906 20.11,-10.496 -8.332,21.099 17.492,-14.443 -3.774,22.363 14.114,-17.753 0.976,22.653 10.098,-20.3 5.676,21.96"
         style="fill:#fddd1b;fill-opacity:1;fill-rule:nonzero;stroke:none"
         transform="matrix(0.13333333,0,0,-0.13333333,0,137.4)" />
      <path
         id="path37"
         d="m 766.594,1023.45 5.652,-21.96 10.109,20.3 0.965,-22.653 14.102,17.753 -3.75,-22.363 17.48,14.443 -8.332,-21.099 20.118,10.496 -12.54,-18.906 21.86,6.078 -16.195,-15.887 22.636,1.403 -19.129,-12.172 22.434,-3.336 -21.25,-7.922 21.25,-7.93 -22.434,-3.336 19.129,-12.171 -22.636,1.406 16.195,-15.887 -21.86,6.074 12.54,-18.898 -20.118,10.484 8.332,-21.094 -17.48,14.442 3.75,-22.367 -14.102,17.757 -0.965,-22.656 -10.109,20.309 -5.652,-21.969 -5.676,21.969 -10.098,-20.309 -0.976,22.656 -14.114,-17.757 3.774,22.367 -17.492,-14.442 8.332,21.094 -20.11,-10.484 12.532,18.898 -21.848,-6.074 16.184,15.887 -22.637,-1.406 19.14,12.171 -22.433,3.336 21.238,7.93 -21.238,7.922 22.433,3.336 -19.14,12.172 22.637,-1.403 -16.184,15.887 21.848,-6.078 -12.532,18.906 20.11,-10.496 -8.332,21.099 17.492,-14.443 -3.774,22.363 14.114,-17.753 0.976,22.653 10.098,-20.3 z"
         style="fill:none;stroke:#231f20;stroke-width:3.5;stroke-linecap:butt;stroke-linejoin:miter;stroke-miterlimit:7;stroke-dasharray:none;stroke-opacity:1"
         transform="matrix(0.13333333,0,0,-0.13333333,0,137.4)" />
    </g>
  </g>
</svg>
