<?xml version="1.0" encoding="UTF-8" standalone="no"?>
<!-- Created with Inkscape (http://www.inkscape.org/) -->

<svg
   version="1.1"
   id="svg1"
   width="166.22667"
   height="61.200001"
   viewBox="0 0 166.22667 61.200001"
   sodipodi:docname="pha06f34.eps"
   xmlns:inkscape="http://www.inkscape.org/namespaces/inkscape"
   xmlns:sodipodi="http://sodipodi.sourceforge.net/DTD/sodipodi-0.dtd"
   xmlns="http://www.w3.org/2000/svg"
   xmlns:svg="http://www.w3.org/2000/svg">
  <defs
     id="defs1" />
  <sodipodi:namedview
     id="namedview1"
     pagecolor="#ffffff"
     bordercolor="#000000"
     borderopacity="0.25"
     inkscape:showpageshadow="2"
     inkscape:pageopacity="0.0"
     inkscape:pagecheckerboard="0"
     inkscape:deskcolor="#d1d1d1">
    <inkscape:page
       x="0"
       y="0"
       inkscape:label="1"
       id="page1"
       width="166.22667"
       height="61.200001"
       margin="0"
       bleed="0" />
  </sodipodi:namedview>
  <g
     id="g1"
     inkscape:groupmode="layer"
     inkscape:label="1">
    <g
       id="group-R5">
      <path
         id="path2"
         d="M 1.25,118.414 H 1245.41 M 227.461,5.30859 V 457.73"
         style="fill:none;stroke:#231f20;stroke-width:2.5;stroke-linecap:square;stroke-linejoin:miter;stroke-miterlimit:3.25;stroke-dasharray:none;stroke-opacity:1"
         transform="matrix(0.13333333,0,0,-0.13333333,0,61.2)" />
      <path
         id="path3"
         d="m 240.059,118.414 c 0,3.34 -1.329,6.543 -3.692,8.906 -2.363,2.364 -5.566,3.692 -8.906,3.692 -3.34,0 -6.543,-1.328 -8.906,-3.692 -2.364,-2.363 -3.692,-5.566 -3.692,-8.906 0,-3.34 1.328,-6.543 3.692,-8.906 2.363,-2.363 5.566,-3.692 8.906,-3.692 3.34,0 6.543,1.329 8.906,3.692 2.363,2.363 3.692,5.566 3.692,8.906 v 0"
         style="fill:#231f20;fill-opacity:1;fill-rule:evenodd;stroke:none"
         transform="matrix(0.13333333,0,0,-0.13333333,0,61.2)" />
      <path
         id="path4"
         d="m 380.566,310.699 0.821,0.821 0.84,0.82 1.66,1.64 3.359,3.184 6.758,6.074 14.863,11.914 14.121,9.59 0.86,0.547 0.879,0.547 1.738,1.055 3.515,2.05 7.051,3.868 0.235,0.117 0.254,0.137 0.468,0.234 0.957,0.508 1.934,0.957 3.867,1.875 7.754,3.457 0.215,0.097 0.234,0.098 0.449,0.195 0.918,0.371 1.817,0.743 3.652,1.425 0.235,0.079 0.214,0.097 0.469,0.156 0.918,0.352 1.836,0.664 3.672,1.27 0.234,0.078 0.254,0.078 0.508,0.176 0.996,0.312 1.992,0.645 4.004,1.211 0.254,0.058 0.254,0.078 0.488,0.157 1.016,0.273 1.992,0.547 4.043,1.055 0.234,0.058 0.254,0.059 0.489,0.117 0.996,0.254 1.992,0.449 3.965,0.879 0.254,0.059 0.254,0.039 0.488,0.117 2.988,0.586 4.004,0.722 0.215,0.04 1.641,0.273 1.875,0.293 0.468,0.078 0.469,0.059 0.918,0.156 1.875,0.254 0.234,0.039 0.235,0.019 0.468,0.079 2.813,0.351 3.77,0.43 0.253,0.019 0.254,0.039 0.508,0.039 1.016,0.098 2.051,0.195 0.507,0.039 0.508,0.059 1.016,0.078 2.051,0.156 0.507,0.039 0.528,0.04 1.015,0.058 0.508,0.039 0.528,0.02 1.015,0.058 0.508,0.039 0.527,0.02 1.016,0.059 h 0.254 l 0.273,0.019 1.524,0.059 0.254,0.019 h 0.234 l 0.488,0.02 0.957,0.039 h 0.235 l 0.234,0.019 0.488,0.02 0.957,0.019 h 0.489 l 0.468,0.02 h 0.254 l 0.235,0.019 h 0.957 l 0.234,0.02 h 0.723 l 0.488,0.019 h 6.27 l 0.234,-0.019 h 1.211 l 0.234,-0.02 h 0.938 l 0.254,-0.019 h 0.703 l 0.234,-0.02 h 0.469 l 0.957,-0.039 h 0.469 l 0.468,-0.019 0.957,-0.039 h 0.235 l 0.234,-0.02 0.469,-0.019 0.957,-0.02 0.234,-0.019 h 0.235 l 0.488,-0.039 0.938,-0.04 1.894,-0.097 h 0.254 l 0.234,-0.02 0.469,-0.019 0.957,-0.059 1.895,-0.117 0.254,-0.02 0.273,-0.019 0.508,-0.039 1.035,-0.078 2.07,-0.137 0.254,-0.02 0.254,-0.039 0.527,-0.039 1.016,-0.078 2.07,-0.176 0.274,-0.019 0.254,-0.039 0.508,-0.039 1.035,-0.098 2.07,-0.215 4.141,-0.449 0.254,-0.019 0.234,-0.04 0.488,-0.039 0.977,-0.117 1.933,-0.234 3.868,-0.508 0.234,-0.039 0.254,-0.039 0.488,-0.059 0.957,-0.136 1.934,-0.274 3.886,-0.586 0.254,-0.039 0.274,-0.039 0.527,-0.078 1.055,-0.176 2.09,-0.332 4.218,-0.723 8.418,-1.562 0.274,-0.039 0.254,-0.059 0.508,-0.097 1.035,-0.215 2.07,-0.41 4.141,-0.86 8.281,-1.816 15.449,-3.75 16.758,-4.492 15.586,-4.532 16.875,-5.195 16.484,-5.312 15.293,-5.059 16.485,-5.547 15.273,-5.156 14.863,-4.941 15.957,-5.196 14.746,-4.59 15.762,-4.648 15.274,-4.121 14.043,-3.379 0.468,-0.117 0.469,-0.098 0.957,-0.215 1.875,-0.41 3.75,-0.801 7.461,-1.465 1.719,-0.312 1.738,-0.313 3.438,-0.605 0.214,-0.02 0.645,-0.117 0.859,-0.136 1.699,-0.274 3.418,-0.508 0.215,-0.019 0.196,-0.039 0.429,-0.059 0.821,-0.117 4.98,-0.645 0.195,-0.019 0.215,-0.02 0.41,-0.058 0.821,-0.098 1.66,-0.176 3.281,-0.332 0.215,-0.019 0.215,-0.039 0.449,-0.039 0.879,-0.079 1.777,-0.136 0.43,-0.039 0.449,-0.039 0.879,-0.059 1.758,-0.137 0.215,-0.019 h 0.234 l 0.43,-0.039 0.879,-0.039 0.429,-0.039 0.45,-0.02 0.859,-0.039 0.234,-0.02 0.215,-0.019 0.43,-0.02 0.879,-0.039 h 0.215 l 0.214,-0.019 h 0.43 l 0.879,-0.039 0.195,-0.02 h 0.196 l 0.41,-0.019 h 0.41 l 0.41,-0.02 h 0.391 l 0.41,-0.019 h 0.391 l 0.41,-0.02 h 0.605 l 0.196,-0.019 h 1.406 l 0.215,-0.02 h 3.398 l 0.195,0.02 h 1.192 l 0.195,0.019 h 0.801 l 0.195,0.02 h 0.391 l 0.801,0.019 h 0.214 l 0.215,0.02 h 0.43 l 0.215,0.019 h 0.215 l 0.41,0.02 h 0.215 l 0.214,0.019 1.29,0.059 h 0.214 l 0.215,0.019 0.41,0.02 0.86,0.039 1.699,0.117 h 0.215 l 0.215,0.02 0.41,0.039 0.84,0.058 1.699,0.137 0.215,0.02 0.195,0.019 0.43,0.039 0.84,0.078 1.679,0.176 0.176,0.02 0.586,0.058 2.344,0.293 0.39,0.039 0.371,0.059 0.782,0.098 1.543,0.214 0.195,0.039 0.195,0.02 0.371,0.059 0.782,0.136 1.523,0.235 3.047,0.566 0.195,0.039 0.176,0.02 2.598,0.547 2.949,0.664 0.195,0.039 0.176,0.039 0.371,0.097 0.723,0.176 1.465,0.371 2.91,0.801 0.195,0.039 2.93,0.879 3.105,1.016 0.196,0.078 0.195,0.058 0.371,0.137 0.781,0.274 1.524,0.546 3.066,1.172 0.352,0.157 0.351,0.136 2.11,0.879 2.988,1.328 0.156,0.078 0.352,0.157 0.703,0.332 1.386,0.664 2.754,1.386 0.176,0.098 0.195,0.098 1.114,0.586 1.465,0.82 2.929,1.68 5.782,3.633 0.175,0.117 0.176,0.136 0.352,0.235 0.683,0.469 1.407,0.976 2.753,2.012 5.43,4.316 0.313,0.274 0.312,0.254 0.625,0.546 1.249,1.075 2.48,2.226 4.86,4.727 0.16,0.156 0.16,0.176 0.33,0.332 0.64,0.683 1.29,1.348 2.56,2.813 5.04,5.937 0.14,0.176 0.13,0.195 0.3,0.352 0.58,0.722 1.14,1.485 2.28,3.008 4.45,6.328 8.4,13.535 8.6,16.504 0.23,0.508 0.25,0.507 0.47,1.036 0.98,2.07 1.87,4.238 3.7,8.789 0.13,0.313 0.12,0.312 0.25,0.625 0.51,1.27 1,2.578 1.97,5.234 0.47,1.328 0.49,1.348 0.95,2.695 0.12,0.352 0.12,0.332 0.23,0.684 0.49,1.367 0.24,0.703 0.23,0.683 0.47,1.407"
         style="fill:none;stroke:#231f20;stroke-width:7.5;stroke-linecap:butt;stroke-linejoin:miter;stroke-miterlimit:3.25;stroke-dasharray:none;stroke-opacity:1"
         transform="matrix(0.13333333,0,0,-0.13333333,0,61.2)" />
      <path
         id="path5"
         d="M 340.566,441.676 H 1112.83 V 231.52 H 340.566 Z"
         style="fill:none;stroke:#231f20;stroke-width:2.5;stroke-linecap:square;stroke-linejoin:miter;stroke-miterlimit:3.25;stroke-dasharray:none;stroke-opacity:1"
         transform="matrix(0.13333333,0,0,-0.13333333,0,61.2)" />
      <path
         id="path6"
         d="m 420.547,270.699 0.488,0.489 0.195,0.175 0.411,0.41 0.234,0.215 0.488,0.489 0.274,0.253 0.84,0.84 0.273,0.254 0.293,0.274 0.273,0.273 0.274,0.254 0.273,0.273 0.274,0.254 0.254,0.254 0.273,0.235 0.254,0.254 0.273,0.253 1.016,0.938 0.234,0.234 0.508,0.43 0.235,0.234 0.468,0.43 0.254,0.195 0.703,0.645 0.235,0.195 0.234,0.215 0.254,0.215 0.234,0.215 0.235,0.195 0.234,0.215 0.254,0.195 0.469,0.43 0.234,0.195 0.254,0.215 0.234,0.195 0.254,0.215 0.235,0.196 0.234,0.214 0.254,0.196 0.234,0.215 0.254,0.195 0.235,0.215 0.254,0.195 0.234,0.195 0.254,0.215 0.234,0.195 0.254,0.196 0.469,0.39 0.254,0.196 0.234,0.195 0.254,0.195 0.234,0.196 0.254,0.195 0.469,0.391 0.254,0.195 0.234,0.195 0.254,0.176 0.469,0.391 0.254,0.175 0.234,0.196 0.254,0.176 0.235,0.195 0.234,0.176 0.254,0.195 0.234,0.176 0.235,0.195 0.254,0.176 0.468,0.351 0.254,0.196 0.235,0.175 0.254,0.176 0.468,0.352 0.254,0.176 0.469,0.351 0.254,0.176 0.469,0.351 0.253,0.176 0.235,0.176 0.234,0.156 0.254,0.176 0.469,0.352 0.254,0.156 0.469,0.351 0.253,0.157 0.235,0.175 0.234,0.157 0.254,0.176 0.469,0.312 0.254,0.176 0.469,0.312 0.253,0.176 0.469,0.313 0.254,0.156 0.469,0.312 0.254,0.176 0.468,0.313 0.254,0.156 0.235,0.156 0.234,0.137 0.254,0.156 0.469,0.313 0.254,0.156 0.234,0.156 0.234,0.137 0.235,0.156 0.254,0.156 0.234,0.137 0.234,0.156 0.254,0.137 0.469,0.312 0.254,0.137 0.234,0.137 0.235,0.156 0.254,0.137 0.234,0.156 0.234,0.137 0.254,0.137 0.235,0.156 0.468,0.273 0.254,0.137 0.235,0.137 0.234,0.156 0.254,0.137 0.469,0.273 0.254,0.137 0.468,0.273 0.254,0.137 0.235,0.137 0.234,0.117 0.254,0.137 0.469,0.273 0.254,0.137 0.234,0.117 0.469,0.273 0.254,0.118 0.468,0.273 0.254,0.117 0.235,0.137 0.234,0.117 0.254,0.137 0.234,0.117 0.235,0.137 0.254,0.117 0.234,0.117 0.234,0.137 0.254,0.117 0.235,0.117 0.234,0.137 0.254,0.117 0.469,0.234 0.254,0.118 0.234,0.136 0.254,0.118 0.469,0.234 0.254,0.117 0.468,0.235 0.254,0.117 0.469,0.234 0.254,0.098 0.234,0.117 0.254,0.117 0.469,0.234 0.254,0.098 0.469,0.235 0.253,0.097 0.235,0.117 0.254,0.118 0.234,0.097 0.235,0.117 0.253,0.098 0.235,0.117 0.254,0.098 0.234,0.117 0.234,0.098 0.254,0.117 0.235,0.098 0.254,0.097 0.234,0.117 0.254,0.098 0.234,0.098 0.235,0.117 0.254,0.098 0.234,0.097 0.254,0.098 0.234,0.098 0.254,0.117 0.235,0.097 0.253,0.098 0.469,0.195 0.254,0.098 0.234,0.098 0.254,0.097 0.235,0.098 0.254,0.098 0.234,0.097 0.254,0.098 0.234,0.078 0.254,0.098 0.235,0.097 0.253,0.098 0.235,0.098 0.254,0.078 0.234,0.097 0.254,0.098 0.234,0.078 0.508,0.196 0.235,0.078 0.254,0.097 0.234,0.078 0.254,0.098 0.234,0.078 0.254,0.098 0.234,0.078 0.254,0.098 0.254,0.078 0.235,0.097 0.254,0.079 0.234,0.078 0.254,0.097 0.254,0.079 0.234,0.078 0.254,0.097 0.234,0.078 0.508,0.157 0.235,0.078 0.253,0.078 0.254,0.098 0.235,0.078 0.508,0.156 0.234,0.078 0.508,0.156 0.234,0.078 0.508,0.157 0.234,0.078 0.254,0.058 0.508,0.157 0.234,0.078 0.508,0.156 0.254,0.059 0.235,0.078 0.253,0.078 0.254,0.058 0.508,0.157 0.235,0.058 0.507,0.157 0.254,0.058 0.254,0.078 0.235,0.059 0.253,0.078 0.254,0.059 0.254,0.078 0.508,0.117 0.234,0.078 0.508,0.117 0.254,0.078 0.508,0.118 0.254,0.078 1.015,0.234 0.235,0.078 3.301,0.762 0.273,0.058 0.254,0.059 0.254,0.039 0.762,0.176 0.254,0.039 0.761,0.176 0.254,0.039 0.274,0.058 0.253,0.039 0.508,0.118 0.254,0.039 0.254,0.058 0.274,0.039 0.253,0.059 0.254,0.039 0.254,0.059 0.274,0.039 0.254,0.058 0.507,0.078 0.274,0.059 0.508,0.078 0.254,0.059 0.273,0.039 0.254,0.039 0.254,0.058 0.273,0.04 0.508,0.078 0.274,0.039 0.253,0.058 0.254,0.039 0.274,0.039 0.508,0.079 0.273,0.039 0.254,0.039 0.273,0.039 0.254,0.039 0.274,0.039 0.254,0.039 0.273,0.039 0.508,0.078 0.273,0.039 0.254,0.02 0.274,0.039 0.254,0.039 0.546,0.078 0.254,0.019 0.274,0.04 0.254,0.039 0.273,0.039 0.254,0.019 0.273,0.039 0.274,0.02 0.254,0.039 0.273,0.039 0.254,0.019 0.274,0.04 0.273,0.019 0.254,0.039 0.273,0.02 0.274,0.039 0.254,0.019 0.273,0.039 0.274,0.02 0.273,0.039 0.254,0.019 0.273,0.02 0.274,0.039 0.254,0.02 0.273,0.019 0.274,0.039 0.546,0.039 0.254,0.039 1.368,0.098 0.253,0.039 3.282,0.234 h 0.273 l 1.367,0.098 h 0.274 l 0.82,0.059 h 0.274 l 0.546,0.039 h 0.274 l 0.293,0.019 h 0.273 l 0.547,0.039 h 0.274 l 0.273,0.02 h 0.293 l 0.273,0.019 h 0.274 l 0.273,0.02 h 0.567 l 0.273,0.019 h 0.274 l 0.293,0.02 h 0.546 l 0.293,0.019 h 0.821 l 0.293,0.02 h 1.406 l 0.273,0.02 h 3.672 l 0.293,-0.02 h 1.133 l 0.293,-0.02 h 0.859 l 0.293,-0.019 h 0.567 l 0.293,-0.02 h 0.566 l 0.293,-0.019 h 0.273 l 0.293,-0.02 h 0.293 l 0.293,-0.019 h 0.274 l 0.293,-0.02 h 0.293 l 0.293,-0.019 h 0.273 l 0.293,-0.02 h 0.293 l 0.586,-0.039 h 0.293 l 0.293,-0.019 0.273,-0.02 h 0.293 l 0.586,-0.039 h 0.293 l 1.465,-0.098 h 0.293 l 4.395,-0.293 0.312,-0.019 0.293,-0.039 1.172,-0.078 0.312,-0.039 0.879,-0.059 0.293,-0.039 0.313,-0.02 0.293,-0.019 0.293,-0.039 0.293,-0.02 0.312,-0.039 0.586,-0.039 0.313,-0.039 0.293,-0.019 0.293,-0.039 0.312,-0.02 0.293,-0.039 0.293,-0.02 0.313,-0.039 0.293,-0.019 0.293,-0.039 0.312,-0.039 0.293,-0.02 0.312,-0.039 0.293,-0.019 0.293,-0.04 0.313,-0.039 0.293,-0.039 0.312,-0.019 0.293,-0.039 0.313,-0.039 0.293,-0.02 0.312,-0.039 0.293,-0.039 0.313,-0.039 0.293,-0.039 0.312,-0.039 0.293,-0.02 0.313,-0.039 0.293,-0.039 0.625,-0.078 0.293,-0.039 0.312,-0.039 0.293,-0.039 0.625,-0.078 0.293,-0.039 0.313,-0.039 0.293,-0.039 0.937,-0.118 0.293,-0.039 0.313,-0.039 0.312,-0.058 0.293,-0.039 0.625,-0.079 0.293,-0.039 0.312,-0.058 0.938,-0.117 0.293,-0.059 0.625,-0.078 0.312,-0.059 0.313,-0.039 0.293,-0.039 0.312,-0.058 0.313,-0.039 0.312,-0.059 0.625,-0.078 0.313,-0.059 0.293,-0.039 0.312,-0.058 0.313,-0.039 0.312,-0.059 0.313,-0.039 0.625,-0.117 0.312,-0.039 0.313,-0.059 0.312,-0.039 0.625,-0.117 0.313,-0.039 0.625,-0.117 0.312,-0.04 0.938,-0.175 0.312,-0.039 1.25,-0.235 0.313,-0.039 0.625,-0.117 0.332,-0.059 1.875,-0.351 0.332,-0.059 1.562,-0.293 0.332,-0.058 0.938,-0.176 0.332,-0.059 0.313,-0.078 0.625,-0.117 0.332,-0.059 0.312,-0.058 0.313,-0.078 0.332,-0.059 0.625,-0.117 0.312,-0.078 0.332,-0.059 0.625,-0.117 0.332,-0.078 0.313,-0.059 0.332,-0.058 0.312,-0.078 0.313,-0.059 0.332,-0.078 0.312,-0.059 0.332,-0.058 0.313,-0.078 0.312,-0.059 0.332,-0.078 0.313,-0.059 0.332,-0.078 0.312,-0.059 0.332,-0.078 0.313,-0.058 0.312,-0.078 0.332,-0.078 0.313,-0.059 0.332,-0.078 0.312,-0.059 0.332,-0.078 0.313,-0.078 0.332,-0.059 0.332,-0.078 0.312,-0.078 0.333,-0.058 0.312,-0.079 0.332,-0.078 0.313,-0.058 0.332,-0.078 0.312,-0.079 0.332,-0.078 0.332,-0.058 0.313,-0.078 0.332,-0.079 0.312,-0.078 0.332,-0.078 0.332,-0.058 0.313,-0.079 0.664,-0.156 0.312,-0.078 0.332,-0.078 0.313,-0.078 0.996,-0.235 0.312,-0.058 0.664,-0.156 0.313,-0.078 0.332,-0.079 0.332,-0.097 0.313,-0.078 0.996,-0.235 0.312,-0.078 1.328,-0.312 0.313,-0.079 0.332,-0.097 0.996,-0.235 0.312,-0.078 0.332,-0.097 0.997,-0.235 0.332,-0.097 0.312,-0.078 0.664,-0.157 0.332,-0.097 0.664,-0.157 0.332,-0.097 0.332,-0.078 0.313,-0.079 0.332,-0.097 0.332,-0.078 0.332,-0.098 0.664,-0.156 0.332,-0.098 0.332,-0.078 0.332,-0.098 0.332,-0.078 0.332,-0.097 0.332,-0.079 0.332,-0.097 0.332,-0.078 0.332,-0.098 0.332,-0.078 0.332,-0.098 0.332,-0.078 0.664,-0.195 0.332,-0.078 0.332,-0.098 0.332,-0.078 0.665,-0.195 0.332,-0.079 0.664,-0.195 0.332,-0.078 0.664,-0.195 0.332,-0.078 0.664,-0.196 0.351,-0.078 1.328,-0.391 0.333,-0.078 0.996,-0.293 0.351,-0.097 0.332,-0.078 1.328,-0.391 0.352,-0.098 0.332,-0.097 0.332,-0.078 0.664,-0.196 0.352,-0.097 1.328,-0.391 0.351,-0.098 0.996,-0.293 0.352,-0.097 0.996,-0.293 0.352,-0.098 0.996,-0.293 0.351,-0.098 0.332,-0.097 0.332,-0.117 0.332,-0.098 0.352,-0.098 0.664,-0.195 0.352,-0.098 0.332,-0.097 0.332,-0.118 0.351,-0.097 0.664,-0.196 0.352,-0.097 0.332,-0.098 0.332,-0.117 0.351,-0.098 0.664,-0.195 0.352,-0.117 0.332,-0.098 0.352,-0.097 0.332,-0.098 0.332,-0.117 0.351,-0.098 0.332,-0.098 0.352,-0.097 0.332,-0.117 0.332,-0.098 0.351,-0.098 0.332,-0.117 0.352,-0.098 0.332,-0.097 0.332,-0.117 0.352,-0.098 0.332,-0.117 0.351,-0.098 0.332,-0.098 0.352,-0.117 0.332,-0.097 0.351,-0.098 0.332,-0.117 0.352,-0.098 0.332,-0.117 0.332,-0.098 0.352,-0.117 0.332,-0.098 0.351,-0.097 0.332,-0.118 0.352,-0.097 0.332,-0.117 0.351,-0.098 0.332,-0.117 0.352,-0.098 0.332,-0.117 0.352,-0.098 0.332,-0.117 0.351,-0.098 0.352,-0.117 0.332,-0.097 0.351,-0.118 0.332,-0.117 0.352,-0.097 0.332,-0.118 0.352,-0.097 0.332,-0.117 0.351,-0.098 0.332,-0.117 0.352,-0.117 0.351,-0.098 0.332,-0.117 0.352,-0.098 0.332,-0.117 0.352,-0.117 0.351,-0.098 0.332,-0.117 0.352,-0.098 0.332,-0.117 0.351,-0.117 0.352,-0.098 0.332,-0.117 0.351,-0.117 0.332,-0.098 0.704,-0.234 0.332,-0.117 0.351,-0.098 0.352,-0.117 0.332,-0.118 0.351,-0.097 0.332,-0.117 0.352,-0.118 0.351,-0.097 0.333,-0.117 0.703,-0.235 0.332,-0.097 0.703,-0.235 0.332,-0.117 0.351,-0.117 0.352,-0.098 0.352,-0.117 0.332,-0.117 0.351,-0.117 0.352,-0.098 0.332,-0.117 0.703,-0.235 0.332,-0.117 0.351,-0.097 0.704,-0.235 0.332,-0.117 0.703,-0.234 0.332,-0.098 1.054,-0.352 0.332,-0.117 0.704,-0.234 0.351,-0.098 0.332,-0.117 1.406,-0.469 0.332,-0.117 1.055,-0.352 0.332,-0.097 1.406,-0.469 0.332,-0.117 1.407,-0.469 0.332,-0.117 1.406,-0.469 0.352,-0.097 0.332,-0.118 1.757,-0.586 0.332,-0.117 2.11,-0.703 0.332,-0.117 2.812,-0.938 0.332,-0.117 2.461,-0.82 0.352,-0.137 0.351,-0.117 0.332,-0.117 5.274,-1.758 0.332,-0.117 0.351,-0.117 0.352,-0.137 4.922,-1.641 0.351,-0.136 4.922,-1.641 0.352,-0.137 1.406,-0.469 0.371,-0.117 3.164,-1.054 0.352,-0.137 2.109,-0.703 0.371,-0.117 3.516,-1.172 0.371,-0.117 1.758,-0.586 0.351,-0.137 0.704,-0.235 0.371,-0.117 2.461,-0.82 0.371,-0.117 2.109,-0.703 0.371,-0.118 0.703,-0.234 0.352,-0.098 1.055,-0.351 0.371,-0.117 1.757,-0.586 0.372,-0.117 1.406,-0.469 0.371,-0.117 0.703,-0.235 0.352,-0.097 0.703,-0.235 0.371,-0.117 1.406,-0.469 0.371,-0.117 0.352,-0.098 1.054,-0.351 0.371,-0.117 1.055,-0.352 0.371,-0.098 1.407,-0.468 0.371,-0.098 1.054,-0.351 0.371,-0.118 0.352,-0.117 0.352,-0.098 0.351,-0.117 0.371,-0.117 0.352,-0.117 0.351,-0.098 0.352,-0.117 0.371,-0.117 0.352,-0.117 0.351,-0.098 0.352,-0.117 0.371,-0.117 0.351,-0.118 0.352,-0.097 0.351,-0.117 0.372,-0.118 0.351,-0.117 0.352,-0.097 0.371,-0.118 0.351,-0.117 0.352,-0.097 0.351,-0.118 0.372,-0.117 0.351,-0.097 0.703,-0.235 0.371,-0.097 0.703,-0.235 0.372,-0.098 0.703,-0.234 0.371,-0.098 0.351,-0.117 0.352,-0.097 0.351,-0.118 0.372,-0.117 0.351,-0.097 0.352,-0.118 0.371,-0.097 0.351,-0.117 0.352,-0.098 0.371,-0.117 0.352,-0.117 0.351,-0.098 0.371,-0.117 0.352,-0.098 0.351,-0.117 0.371,-0.098 0.352,-0.117 0.352,-0.098 0.371,-0.117 0.351,-0.098 0.352,-0.117 0.371,-0.097 0.351,-0.118 0.352,-0.097 0.371,-0.098 0.352,-0.117 0.351,-0.098 0.371,-0.117 0.352,-0.098 0.371,-0.117 0.703,-0.195 0.371,-0.117 0.703,-0.196 0.371,-0.117 0.352,-0.097 0.371,-0.118 0.703,-0.195 0.371,-0.117 0.703,-0.195 0.371,-0.098 0.352,-0.117 0.371,-0.098 0.352,-0.098 0.351,-0.117 0.371,-0.097 0.352,-0.098 0.371,-0.098 0.352,-0.097 0.351,-0.118 0.371,-0.097 0.352,-0.098 0.371,-0.098 0.351,-0.097 0.372,-0.117 0.703,-0.196 0.371,-0.097 0.351,-0.098 0.371,-0.098 0.352,-0.117 0.371,-0.097 0.703,-0.196 0.371,-0.097 0.352,-0.098 0.371,-0.098 0.351,-0.097 0.372,-0.098 0.351,-0.098 0.371,-0.097 0.352,-0.098 0.371,-0.098 0.703,-0.195 0.371,-0.098 0.352,-0.097 0.371,-0.098 0.351,-0.098 0.371,-0.097 0.352,-0.098 0.371,-0.098 0.352,-0.097 0.371,-0.078 0.351,-0.098 0.371,-0.098 0.352,-0.097 0.371,-0.098 0.352,-0.098 0.371,-0.097 0.351,-0.078 0.371,-0.098 0.352,-0.098 0.371,-0.097 0.352,-0.098 0.371,-0.078 0.351,-0.098 0.371,-0.098 0.352,-0.078 0.371,-0.097 0.352,-0.098 0.371,-0.098 0.371,-0.078 0.351,-0.097 0.371,-0.098 0.352,-0.078 0.371,-0.098 0.352,-0.078 0.371,-0.098 0.351,-0.097 0.371,-0.078 0.371,-0.098 0.352,-0.078 0.371,-0.098 0.352,-0.078 0.371,-0.098 0.351,-0.097 0.371,-0.078 0.372,-0.098 0.351,-0.078 0.371,-0.078 0.352,-0.098 0.371,-0.078 0.351,-0.098 0.371,-0.078 0.372,-0.098 0.351,-0.078 0.371,-0.078 0.352,-0.097 0.742,-0.157 0.352,-0.097 0.742,-0.157 0.351,-0.097 0.371,-0.078 0.352,-0.078 0.371,-0.079 0.371,-0.097 0.352,-0.078 0.742,-0.157 0.351,-0.078 0.372,-0.078 0.371,-0.098 0.351,-0.078 0.742,-0.156 0.352,-0.078 0.742,-0.156 0.352,-0.078 0.742,-0.157 0.351,-0.078 0.743,-0.156 0.351,-0.078 1.113,-0.235 0.352,-0.078 0.742,-0.156 0.352,-0.078 0.371,-0.059 0.742,-0.156 0.352,-0.078 0.371,-0.078 0.371,-0.059 0.371,-0.078 0.351,-0.078 0.372,-0.078 0.371,-0.059 0.371,-0.078 0.351,-0.078 0.371,-0.059 0.743,-0.156 0.351,-0.058 0.371,-0.079 0.371,-0.058 0.371,-0.078 0.372,-0.059 0.351,-0.078 0.371,-0.059 0.371,-0.078 0.371,-0.058 0.371,-0.078 0.352,-0.059 0.371,-0.078 0.371,-0.059 0.371,-0.078 0.371,-0.058 0.352,-0.059 0.371,-0.078 0.742,-0.117 0.371,-0.078 0.743,-0.118 0.351,-0.058 0.371,-0.078 1.856,-0.293 0.351,-0.059 0.371,-0.078 3.34,-0.527 0.352,-0.059 0.371,-0.039 1.855,-0.293 0.371,-0.039 1.114,-0.176 0.371,-0.039 0.742,-0.117 0.371,-0.039 0.742,-0.117 0.371,-0.039 0.371,-0.059 0.372,-0.039 0.371,-0.059 0.371,-0.039 0.371,-0.058 0.371,-0.039 0.371,-0.059 0.742,-0.078 0.371,-0.059 0.371,-0.039 0.371,-0.058 1.114,-0.118 0.371,-0.058 0.371,-0.039 0.391,-0.039 0.742,-0.078 0.371,-0.059 2.226,-0.234 0.391,-0.039 2.227,-0.235 0.39,-0.019 1.113,-0.118 0.372,-0.019 0.371,-0.039 0.39,-0.039 0.371,-0.039 0.371,-0.02 0.372,-0.039 0.371,-0.019 0.39,-0.039 0.371,-0.039 0.371,-0.02 0.372,-0.039 0.371,-0.02 0.39,-0.039 0.742,-0.039 0.372,-0.039 0.39,-0.019 0.371,-0.039 0.742,-0.039 0.391,-0.02 0.371,-0.039 0.371,-0.02 0.391,-0.019 0.742,-0.039 0.371,-0.039 0.391,-0.02 0.742,-0.039 0.391,-0.019 0.742,-0.039 0.39,-0.02 0.372,-0.019 h 0.371 l 0.39,-0.02 0.742,-0.039 0.391,-0.02 h 0.371 l 0.371,-0.019 0.391,-0.02 0.371,-0.019 h 0.391 l 0.371,-0.02 h 0.371 l 0.39,-0.019 0.372,-0.02 h 0.39 l 0.371,-0.019 h 0.762 l 0.371,-0.02 h 0.391 l 0.371,-0.019 h 1.133 l 0.39,-0.02 h 5.703 l 0.391,0.02 h 0.762 l 0.371,0.019 h 0.781 l 0.371,0.02 h 0.391 l 0.371,0.019 h 0.39 l 0.372,0.02 h 0.39 l 0.391,0.019 h 0.371 l 0.391,0.02 0.371,0.019 0.39,0.02 h 0.391 l 0.371,0.019 0.391,0.02 0.371,0.019 0.781,0.04 0.371,0.019 0.781,0.039 0.371,0.02 0.391,0.019 0.371,0.02 0.781,0.039 0.371,0.019 0.391,0.039 0.391,0.02 0.371,0.019 0.39,0.039 0.782,0.04 0.371,0.039 0.39,0.019 0.391,0.039 0.371,0.02 0.781,0.078 0.371,0.019 0.782,0.079 0.39,0.019 0.371,0.039 1.172,0.117 0.371,0.039 1.172,0.118 0.371,0.039 1.172,0.117 0.371,0.039 0.391,0.058 0.781,0.079 0.371,0.058 0.391,0.039 0.391,0.059 0.39,0.039 0.371,0.058 0.391,0.04 0.39,0.058 0.391,0.039 0.391,0.059 0.371,0.058 0.39,0.039 1.172,0.176 0.371,0.059 1.954,0.293 0.371,0.058 0.781,0.118 0.391,0.078 0.39,0.058 0.371,0.059 0.391,0.078 0.781,0.117 0.391,0.078 0.39,0.059 0.371,0.078 0.391,0.078 0.391,0.059 0.781,0.156 0.391,0.059 0.371,0.078 1.953,0.39 0.371,0.078 1.562,0.313 0.371,0.098 0.782,0.156 0.39,0.098 0.782,0.156 0.371,0.097 0.39,0.098 0.391,0.078 0.391,0.098 0.39,0.078 0.391,0.098 0.371,0.097 0.781,0.196 0.391,0.078 0.39,0.097 0.372,0.098 1.171,0.293 0.391,0.117 0.371,0.098 0.781,0.195 0.391,0.117 0.391,0.098 0.371,0.098 0.39,0.117 0.391,0.098 0.391,0.117 0.371,0.117 0.39,0.098 0.782,0.234 0.371,0.098 1.172,0.351 0.371,0.117 1.171,0.352 0.372,0.117 0.781,0.234 0.371,0.137 0.781,0.235 0.371,0.136 0.391,0.117 0.391,0.137 0.371,0.117 0.39,0.137 0.391,0.117 0.371,0.137 0.781,0.273 0.371,0.118 0.782,0.273 0.371,0.137 0.39,0.137 0.371,0.136 0.391,0.137 0.371,0.137 0.391,0.136 0.39,0.157 0.371,0.136 0.391,0.137 0.371,0.156 0.391,0.137 0.371,0.156 0.39,0.137 0.372,0.156 0.39,0.137 0.371,0.156 0.391,0.156 0.371,0.137 0.391,0.156 0.371,0.157 0.39,0.156 0.743,0.312 0.39,0.157 0.371,0.156 0.391,0.156 0.742,0.313 0.391,0.175 0.742,0.313 0.391,0.176 0.371,0.156 0.371,0.176 0.39,0.156 0.743,0.352 0.371,0.156 0.39,0.176 1.114,0.527 0.371,0.156 0.39,0.176 0.371,0.176 0.371,0.195 1.485,0.703 0.39,0.196 0.372,0.175 0.371,0.196 0.742,0.351 0.742,0.391 0.372,0.176 1.11,0.586 0.37,0.175 0.36,0.196 1.48,0.781 0.37,0.215 0.37,0.195 0.35,0.195 0.37,0.196 0.38,0.215 0.37,0.195 0.35,0.195 0.37,0.215 0.37,0.195 0.37,0.215 0.35,0.215 0.37,0.195 0.36,0.215 0.74,0.43 0.35,0.215 0.37,0.195 0.35,0.215 0.37,0.215 0.35,0.215 0.38,0.234 0.35,0.215 0.37,0.215 0.35,0.214 0.37,0.235 0.7,0.429 0.38,0.235 0.35,0.215 0.35,0.234 0.37,0.215 0.7,0.469 0.37,0.215 1.76,1.171 0.37,0.235 1.76,1.172 0.35,0.254 0.71,0.468 0.35,0.254 0.35,0.235 0.33,0.253 0.35,0.254 0.35,0.235 0.71,0.508 0.33,0.234 1.05,0.762 0.34,0.254 0.7,0.507 0.33,0.254 0.35,0.254 0.33,0.254 0.36,0.254 0.33,0.273 0.35,0.254 0.33,0.254 0.35,0.274 0.33,0.254 0.36,0.273 0.33,0.254 0.33,0.273 0.35,0.274 0.33,0.254 0.67,0.547 0.35,0.273 0.33,0.273 0.33,0.254 1,0.821 0.35,0.293 1.33,1.093 0.33,0.293 0.31,0.274 0.34,0.273 0.33,0.293 0.33,0.274 0.66,0.586 0.32,0.273 0.66,0.586 0.33,0.273 0.32,0.293 0.66,0.586 0.31,0.293 0.33,0.293 0.32,0.293 0.33,0.293 0.31,0.293 0.33,0.293 0.32,0.293 0.33,0.313 0.62,0.586 0.33,0.312 0.32,0.293 0.31,0.313 0.31,0.292 0.33,0.313 0.32,0.293 0.62,0.625 0.31,0.293 1.57,1.562 0.31,0.293 0.31,0.332 1.25,1.25 0.29,0.313 0.32,0.332 0.62,0.625 0.29,0.332 0.32,0.312 0.29,0.333 0.31,0.312 0.32,0.332 0.29,0.313 0.31,0.332 0.29,0.332 0.32,0.312 0.58,0.664 0.31,0.332 0.59,0.664 0.31,0.332 0.88,0.996 0.31,0.332 0.59,0.664 0.29,0.352 0.59,0.664 0.29,0.352 0.3,0.332 0.29,0.351 0.29,0.332 0.29,0.352 0.3,0.332 0.27,0.351 0.29,0.352 0.3,0.332 0.29,0.352 0.27,0.351 0.59,0.703 0.27,0.332 0.59,0.703 0.27,0.352 0.29,0.371 0.28,0.352 0.29,0.351 0.55,0.703 0.29,0.371 0.27,0.352 0.3,0.352 0.27,0.371 0.27,0.351 0.28,0.371 0.29,0.352 0.27,0.371 0.28,0.352 0.27,0.371 0.27,0.351 1.1,1.485 0.27,0.351 1.37,1.856 0.25,0.371 0.28,0.39 0.54,0.743 0.26,0.371 0.27,0.39 0.27,0.371 0.26,0.371 0.27,0.391 0.26,0.371 0.27,0.391 0.25,0.371 0.28,0.39 0.25,0.372 0.27,0.39 0.26,0.391 0.27,0.371 0.76,1.172 0.28,0.39 1.01,1.563 0.27,0.391 1.02,1.562 0.25,0.41 0.51,0.781 0.26,0.411 0.23,0.39 0.25,0.41 0.26,0.391 0.25,0.41 0.26,0.391 0.23,0.41 0.25,0.391 0.26,0.41 0.23,0.41 0.26,0.41 0.25,0.391 0.23,0.41 0.26,0.41 0.23,0.41 0.26,0.41 0.23,0.41 0.26,0.411 0.23,0.41 0.25,0.41 0.47,0.82 0.26,0.43 0.46,0.82 0.24,0.43 0.25,0.41 0.24,0.41 0.23,0.43 0.24,0.41 0.23,0.43 0.24,0.41 0.46,0.859 0.24,0.41 0.94,1.719 0.23,0.41 0.7,1.289 0.22,0.43 0.23,0.43 0.24,0.449 0.23,0.43 0.22,0.429 0.46,0.86 0.22,0.449 0.23,0.43 0.22,0.429 0.23,0.45 0.22,0.429 0.23,0.449 0.22,0.43 0.23,0.449 0.22,0.45 0.21,0.429 0.24,0.45 0.21,0.449 0.22,0.429 0.23,0.45 0.64,1.347 0.24,0.45 1.29,2.695 0.21,0.469 0.43,0.898 0.22,0.469 0.43,0.898 0.21,0.469 0.22,0.449 0.19,0.469 0.22,0.449 0.43,0.938 0.19,0.449 0.65,1.406 0.19,0.469 0.22,0.469 0.19,0.449 0.22,0.469 0.19,0.488 0.43,0.937 0.39,0.938 0.22,0.488 0.19,0.469 0.22,0.469 0.19,0.488 0.2,0.469 0.21,0.488 0.2,0.469 0.19,0.488 0.22,0.488 0.19,0.469 0.39,0.977 0.22,0.488 0.19,0.469 0.79,1.953 0.19,0.468 0.59,1.465 0.17,0.469 0.59,1.465 0.17,0.469 0.2,0.488 0.18,0.488 0.19,0.489 0.2,0.468 0.35,0.977 0.19,0.488 0.18,0.488 0.19,0.489 0.2,0.507 0.17,0.508 0.2,0.528 0.2,0.507 0.39,1.055 0.78,2.188 0.39,1.132 0.21,0.567 0.2,0.586 0.21,0.586 0.2,0.586 0.21,0.586 0.2,0.605 0.21,0.606 0.22,0.585 0.19,0.567 0.18,0.547 0.18,0.508 0.17,0.488 0.16,0.449 0.13,0.43 0.14,0.41 0.14,0.371 0.11,0.352 0.1,0.312 m -772.264,-55.234 0.235,0.234 0.254,0.234 0.547,0.547 0.312,0.293 0.332,0.332 0.352,0.332 0.371,0.371 0.39,0.372 0.821,0.82 0.449,0.43 0.43,0.41 0.429,0.429 0.86,0.821 0.41,0.39 0.43,0.41 1.64,1.563 0.41,0.371 0.391,0.371 0.41,0.371 0.391,0.371 1.172,1.055 0.371,0.352 0.39,0.351 2.227,1.992 0.39,0.332 0.743,0.664 0.39,0.332 0.742,0.665 0.391,0.332 0.391,0.312 0.371,0.332 0.39,0.332 0.372,0.332 0.39,0.332 0.391,0.313 1.562,1.328 0.391,0.312 0.781,0.664 0.391,0.313 0.39,0.332 0.391,0.312 0.391,0.332 0.781,0.625 0.391,0.332 1.171,0.938 0.411,0.312 1.562,1.25 0.41,0.313 0.781,0.625 0.391,0.293 0.391,0.312 0.41,0.313 0.391,0.293 0.39,0.312 0.391,0.293 0.41,0.313 0.781,0.586 0.41,0.312 0.391,0.293 0.41,0.293 0.781,0.586 0.411,0.313 0.39,0.293 0.41,0.293 0.391,0.293 0.41,0.273 0.391,0.293 0.41,0.293 0.39,0.293 0.411,0.293 0.39,0.273 0.821,0.586 0.39,0.274 0.41,0.293 0.391,0.273 0.41,0.293 0.41,0.274 0.391,0.273 0.41,0.293 0.41,0.273 0.391,0.274 1.23,0.82 0.391,0.274 1.641,1.093 0.39,0.274 0.41,0.273 0.411,0.254 0.82,0.547 0.41,0.254 0.41,0.273 0.41,0.254 0.41,0.274 0.391,0.254 0.41,0.273 1.231,0.762 0.41,0.273 1.64,1.016 0.43,0.254 0.82,0.508 0.411,0.234 1.23,0.762 0.41,0.234 0.41,0.254 0.43,0.254 0.41,0.234 0.41,0.254 0.821,0.469 0.429,0.254 1.231,0.703 0.43,0.254 0.82,0.469 0.43,0.234 1.23,0.703 0.43,0.234 0.41,0.215 0.43,0.235 0.82,0.468 0.43,0.215 0.41,0.235 0.429,0.214 0.411,0.235 0.41,0.215 0.429,0.234 0.411,0.215 0.429,0.234 0.41,0.215 0.43,0.215 0.41,0.215 0.43,0.215 0.41,0.234 0.43,0.215 0.41,0.215 0.43,0.215 0.41,0.214 0.429,0.196 0.43,0.215 0.41,0.214 0.43,0.215 0.41,0.215 0.43,0.195 0.43,0.215 0.41,0.215 0.429,0.195 0.411,0.215 0.859,0.391 0.41,0.215 0.859,0.39 0.411,0.215 1.289,0.586 0.41,0.195 0.859,0.391 0.41,0.195 1.719,0.782 0.41,0.175 0.86,0.391 0.429,0.176 0.43,0.195 0.41,0.176 0.43,0.195 0.43,0.176 0.429,0.195 0.86,0.352 0.41,0.176 0.429,0.195 3.438,1.406 0.41,0.176 0.43,0.156 1.289,0.528 0.43,0.156 0.429,0.176 0.43,0.156 0.43,0.176 0.429,0.156 0.43,0.176 0.859,0.312 0.43,0.176 5.156,1.875 0.43,0.137 0.449,0.156 0.43,0.156 0.43,0.137 0.859,0.312 0.859,0.274 0.43,0.156 0.43,0.137 0.429,0.156 0.86,0.273 0.449,0.137 0.43,0.137 0.429,0.156 2.149,0.684 0.449,0.117 1.719,0.547 0.429,0.117 0.43,0.137 0.449,0.117 0.86,0.273 0.859,0.235 0.43,0.136 0.449,0.118 0.43,0.136 1.289,0.352 0.449,0.117 0.43,0.137 1.718,0.469 0.45,0.117 0.429,0.097 1.289,0.352 0.45,0.117 0.429,0.098 0.43,0.117 0.43,0.098 0.429,0.117 0.45,0.117 0.429,0.098 0.43,0.117 0.859,0.195 0.45,0.117 1.289,0.293 0.429,0.118 0.45,0.097 1.289,0.293 0.449,0.098 1.719,0.39 0.449,0.079 1.289,0.293 0.43,0.078 0.449,0.097 0.429,0.078 0.43,0.098 0.43,0.078 0.429,0.098 0.45,0.078 0.429,0.098 0.86,0.156 0.429,0.098 0.45,0.078 1.289,0.234 0.429,0.098 0.45,0.078 1.718,0.312 0.45,0.059 1.718,0.312 0.45,0.059 0.859,0.156 0.43,0.059 0.429,0.078 0.43,0.059 0.449,0.078 0.43,0.058 0.43,0.078 0.859,0.118 0.43,0.078 0.449,0.058 0.43,0.059 0.429,0.078 1.719,0.234 0.449,0.059 2.578,0.352 0.45,0.039 1.289,0.175 0.429,0.039 0.86,0.118 0.429,0.039 0.43,0.058 0.449,0.039 0.43,0.059 0.859,0.078 0.43,0.059 0.859,0.078 0.43,0.058 1.719,0.157 0.43,0.058 0.449,0.039 2.148,0.196 0.43,0.019 1.719,0.156 0.429,0.02 0.86,0.078 0.429,0.02 0.86,0.078 0.429,0.019 0.43,0.039 0.86,0.039 0.429,0.039 0.43,0.02 0.43,0.039 0.859,0.039 0.43,0.039 0.859,0.039 0.41,0.02 1.289,0.058 0.43,0.039 0.859,0.039 h 0.43 l 1.719,0.079 0.41,0.019 0.43,0.02 h 0.429 l 0.86,0.039 h 0.429 l 0.43,0.019 0.41,0.02 h 0.43 l 0.43,0.019 h 0.429 l 0.43,0.02 h 0.43 l 0.41,0.019 h 0.429 l 0.43,0.02 h 0.86 l 0.429,0.019 h 1.699 l 0.411,0.02 h 4.687 l 0.41,-0.02 h 1.27 l 0.429,-0.019 h 0.84 l 0.43,-0.02 h 0.84 l 0.43,-0.019 h 0.429 l 0.41,-0.02 h 0.43 l 0.43,-0.019 h 0.41 l 0.43,-0.02 0.41,-0.019 h 0.429 l 0.43,-0.02 0.41,-0.019 h 0.43 l 0.41,-0.02 0.859,-0.039 h 0.411 l 0.429,-0.019 0.41,-0.02 0.43,-0.02 0.41,-0.019 0.43,-0.02 0.41,-0.019 0.86,-0.039 0.41,-0.02 0.429,-0.019 0.411,-0.02 0.429,-0.019 0.41,-0.02 0.43,-0.019 0.41,-0.039 0.41,-0.02 0.43,-0.019 0.41,-0.02 0.43,-0.039 0.41,-0.02 0.43,-0.019 0.41,-0.039 0.43,-0.02 0.41,-0.019 0.41,-0.039 0.43,-0.02 0.41,-0.039 0.429,-0.019 0.411,-0.04 0.41,-0.019 0.429,-0.039 0.411,-0.02 0.429,-0.039 0.41,-0.039 0.411,-0.019 0.429,-0.039 0.41,-0.039 0.411,-0.02 0.429,-0.039 0.821,-0.078 0.429,-0.02 0.821,-0.078 0.429,-0.039 1.231,-0.117 0.429,-0.039 0.821,-0.078 0.429,-0.039 1.641,-0.157 0.43,-0.039 0.41,-0.039 0.41,-0.058 0.41,-0.039 0.43,-0.039 0.82,-0.079 0.41,-0.058 0.821,-0.078 0.429,-0.059 0.821,-0.078 0.41,-0.059 0.41,-0.039 0.41,-0.058 0.41,-0.039 0.43,-0.059 0.41,-0.039 0.41,-0.059 0.41,-0.039 0.411,-0.058 0.41,-0.039 0.82,-0.117 0.41,-0.039 0.821,-0.118 0.41,-0.039 0.82,-0.117 0.41,-0.039 0.43,-0.059 1.641,-0.234 0.41,-0.039 0.41,-0.059 0.39,-0.058 4.512,-0.645 0.41,-0.078 0.41,-0.058 0.391,-0.059 0.82,-0.117 0.411,-0.078 1.23,-0.176 0.391,-0.078 0.82,-0.117 0.41,-0.079 0.82,-0.117 0.391,-0.078 0.41,-0.058 0.41,-0.079 0.821,-0.117 0.39,-0.078 0.41,-0.059 0.411,-0.078 0.41,-0.058 0.39,-0.078 0.411,-0.078 0.41,-0.059 0.39,-0.078 0.411,-0.059 0.82,-0.156 0.39,-0.059 0.821,-0.156 0.39,-0.058 0.821,-0.157 0.39,-0.078 0.41,-0.058 0.411,-0.079 0.39,-0.078 0.821,-0.156 0.39,-0.059 0.41,-0.078 0.391,-0.078 0.82,-0.156 0.391,-0.078 0.41,-0.078 0.391,-0.078 0.41,-0.079 0.39,-0.078 0.821,-0.156 0.39,-0.078 0.411,-0.078 0.39,-0.078 0.41,-0.078 0.391,-0.079 0.41,-0.078 0.391,-0.078 0.41,-0.078 0.391,-0.078 0.41,-0.098 0.39,-0.078 0.41,-0.078 0.391,-0.078 0.41,-0.078 0.391,-0.098 0.391,-0.078 0.41,-0.078 0.39,-0.078 0.41,-0.098 0.391,-0.078 0.41,-0.078 0.391,-0.098 0.39,-0.078 0.411,-0.078 0.39,-0.098 0.41,-0.078 0.391,-0.078 0.391,-0.098 0.41,-0.078 0.39,-0.097 0.391,-0.079 0.41,-0.097 0.391,-0.078 0.39,-0.098 0.411,-0.078 0.39,-0.098 0.391,-0.078 0.41,-0.098 0.391,-0.078 0.39,-0.097 0.391,-0.078 0.41,-0.098 0.391,-0.078 0.781,-0.196 0.41,-0.078 0.781,-0.195 0.391,-0.078 0.41,-0.098 0.391,-0.097 0.39,-0.079 0.782,-0.195 0.41,-0.097 0.39,-0.079 1.172,-0.293 0.41,-0.078 2.344,-0.586 0.391,-0.078 0.41,-0.097 7.812,-1.954 0.391,-0.117 2.344,-0.586 0.39,-0.117 0.782,-0.195 0.371,-0.098 0.39,-0.097 0.391,-0.118 1.172,-0.293 0.391,-0.117 0.39,-0.097 0.371,-0.098 0.391,-0.117 1.172,-0.293 0.39,-0.117 0.372,-0.098 0.39,-0.098 0.391,-0.117 0.39,-0.098 0.391,-0.117 0.371,-0.097 0.391,-0.098 0.39,-0.117 0.391,-0.098 0.371,-0.117 0.781,-0.195 0.391,-0.118 0.371,-0.097 0.391,-0.118 0.39,-0.097 0.371,-0.117 0.391,-0.098 0.391,-0.117 0.371,-0.098 0.39,-0.117 0.391,-0.098 0.371,-0.117 0.391,-0.098 0.39,-0.117 0.371,-0.097 0.391,-0.118 0.391,-0.097 0.371,-0.117 0.39,-0.118 0.371,-0.097 0.391,-0.117 0.391,-0.098 0.371,-0.117 0.39,-0.117 0.372,-0.098 0.39,-0.117 0.371,-0.098 0.782,-0.234 0.371,-0.098 0.39,-0.117 0.371,-0.117 0.391,-0.098 0.371,-0.117 0.391,-0.117 0.371,-0.098 0.39,-0.117 0.371,-0.117 0.391,-0.118 0.371,-0.097 0.391,-0.117 0.371,-0.118 0.391,-0.097 0.742,-0.235 0.39,-0.117 0.371,-0.098 0.391,-0.117 0.742,-0.234 0.391,-0.117 0.371,-0.098 0.391,-0.117 0.742,-0.235 0.39,-0.117 0.372,-0.097 0.371,-0.118 0.39,-0.117 0.742,-0.234 0.391,-0.117 0.371,-0.098 0.371,-0.117 0.391,-0.117 0.742,-0.235 0.391,-0.117 0.742,-0.234 0.371,-0.098 0.391,-0.117 1.113,-0.352 0.39,-0.117 1.485,-0.469 0.39,-0.117 0.372,-0.117 0.371,-0.098 1.113,-0.351 0.391,-0.117 2.597,-0.821 0.391,-0.117 4.824,-1.523 0.371,-0.137 4.082,-1.289 0.352,-0.117 0.742,-0.235 0.371,-0.136 1.484,-0.469 0.352,-0.117 1.484,-0.469 0.371,-0.137 0.352,-0.117 1.484,-0.469 0.352,-0.117 0.742,-0.234 0.371,-0.137 0.352,-0.117 0.742,-0.235 0.352,-0.117 0.742,-0.234 0.371,-0.137 0.351,-0.117 0.743,-0.234 0.351,-0.118 0.742,-0.234 0.352,-0.137 0.742,-0.234 0.352,-0.117 0.371,-0.117 0.351,-0.118 0.371,-0.117 0.371,-0.137 0.352,-0.117 0.371,-0.117 0.352,-0.117 0.371,-0.117 0.351,-0.117 0.371,-0.118 0.352,-0.136 0.742,-0.235 0.352,-0.117 0.371,-0.117 0.351,-0.117 0.372,-0.137 0.351,-0.117 0.371,-0.117 0.703,-0.235 0.371,-0.117 0.352,-0.117 0.371,-0.137 0.352,-0.117 0.371,-0.117 0.703,-0.235 0.371,-0.117 0.351,-0.117 0.372,-0.137 0.703,-0.234 0.371,-0.117 0.703,-0.235 0.371,-0.136 0.703,-0.235 0.371,-0.117 0.703,-0.234 0.371,-0.118 0.352,-0.136 0.703,-0.235 0.371,-0.117 1.055,-0.351 0.371,-0.118 0.352,-0.136 1.054,-0.352 0.371,-0.117 1.055,-0.352 0.352,-0.136 0.351,-0.117 0.371,-0.118 2.11,-0.703 0.351,-0.137 0.352,-0.117 0.371,-0.117 3.515,-1.172 0.352,-0.136 1.055,-0.352 0.332,-0.117 3.164,-1.055 0.332,-0.117 1.758,-0.586 0.332,-0.117 1.406,-0.469 0.332,-0.117 1.055,-0.352 0.332,-0.117 0.703,-0.234 0.332,-0.117 0.703,-0.235 0.332,-0.117 0.703,-0.234 0.332,-0.118 0.352,-0.097 0.351,-0.117 0.332,-0.118 0.352,-0.117 0.332,-0.117 0.703,-0.234 0.332,-0.118 0.352,-0.117 0.332,-0.117 0.351,-0.098 0.332,-0.117 0.703,-0.234 0.332,-0.117 0.352,-0.118 0.332,-0.117 0.352,-0.097 0.664,-0.235 0.351,-0.117 0.332,-0.117 0.352,-0.117 0.332,-0.098 0.351,-0.117 0.664,-0.235 0.352,-0.117 0.332,-0.097 0.352,-0.118 0.664,-0.234 0.351,-0.098 0.664,-0.234 0.352,-0.117 0.332,-0.098 0.332,-0.117 0.351,-0.117 0.333,-0.117 0.332,-0.098 0.332,-0.117 0.351,-0.117 0.332,-0.098 0.664,-0.234 0.352,-0.098 0.664,-0.234 0.332,-0.098 0.664,-0.235 0.352,-0.097 0.332,-0.117 0.332,-0.098 0.664,-0.234 0.332,-0.098 0.664,-0.234 0.351,-0.098 0.332,-0.117 0.332,-0.098 0.332,-0.117 0.332,-0.098 0.332,-0.117 0.332,-0.098 0.333,-0.117 0.332,-0.097 0.332,-0.118 0.332,-0.097 0.332,-0.117 0.332,-0.098 0.332,-0.117 0.332,-0.098 0.312,-0.117 0.332,-0.098 0.332,-0.117 0.332,-0.098 0.332,-0.117 0.332,-0.098 0.332,-0.117 0.664,-0.195 0.313,-0.117 0.332,-0.098 0.332,-0.117 0.664,-0.195 0.313,-0.118 0.664,-0.195 0.332,-0.117 0.312,-0.098 0.332,-0.097 0.332,-0.118 0.332,-0.097 0.313,-0.098 0.332,-0.117 0.332,-0.098 0.312,-0.097 0.332,-0.098 0.332,-0.117 0.313,-0.098 0.664,-0.195 0.312,-0.098 0.333,-0.117 0.312,-0.098 0.332,-0.097 0.313,-0.098 0.332,-0.098 0.332,-0.117 0.312,-0.097 0.332,-0.098 0.313,-0.098 0.332,-0.097 0.312,-0.098 0.332,-0.098 0.313,-0.097 0.312,-0.118 0.332,-0.097 0.313,-0.098 0.332,-0.098 0.312,-0.097 0.332,-0.098 0.625,-0.195 0.332,-0.098 0.625,-0.195 0.332,-0.098 0.625,-0.195 0.332,-0.098 0.938,-0.293 0.332,-0.078 0.937,-0.293 0.332,-0.098 0.938,-0.292 0.312,-0.079 0.313,-0.097 0.332,-0.098 0.625,-0.195 0.312,-0.078 0.938,-0.293 0.312,-0.078 0.938,-0.293 0.312,-0.079 0.625,-0.195 0.313,-0.078 0.312,-0.098 0.313,-0.078 0.625,-0.195 0.312,-0.078 0.625,-0.196 0.313,-0.078 0.293,-0.097 0.312,-0.078 0.313,-0.098 0.312,-0.078 0.313,-0.098 0.312,-0.078 0.293,-0.098 0.313,-0.078 0.312,-0.097 0.313,-0.079 0.293,-0.097 0.625,-0.156 0.293,-0.098 0.312,-0.078 0.313,-0.098 0.293,-0.078 0.312,-0.078 0.313,-0.098 0.293,-0.078 0.312,-0.078 0.313,-0.098 0.293,-0.078 0.312,-0.078 0.293,-0.098 0.313,-0.078 0.293,-0.078 0.312,-0.078 0.293,-0.098 0.313,-0.078 0.293,-0.078 0.312,-0.078 0.293,-0.078 0.313,-0.078 0.293,-0.098 0.312,-0.078 0.586,-0.156 0.313,-0.078 0.292,-0.079 0.313,-0.078 0.879,-0.234 0.312,-0.078 0.586,-0.156 0.313,-0.079 1.172,-0.312 0.312,-0.078 1.465,-0.391 0.293,-0.058 0.313,-0.079 0.878,-0.234 0.293,-0.058 0.879,-0.235 0.293,-0.058 0.586,-0.157 0.293,-0.058 0.586,-0.157 0.274,-0.058 0.585,-0.156 0.293,-0.059 0.293,-0.078 0.293,-0.059 0.274,-0.078 0.293,-0.058 0.586,-0.157 0.293,-0.058 0.273,-0.078 0.586,-0.118 0.274,-0.078 0.292,-0.058 0.293,-0.078 0.274,-0.059 0.293,-0.078 0.293,-0.059 0.273,-0.058 0.293,-0.078 0.274,-0.059 0.293,-0.059 0.293,-0.078 0.273,-0.058 0.293,-0.059 0.273,-0.059 0.293,-0.078 0.274,-0.058 0.293,-0.059 0.547,-0.117 0.293,-0.078 0.273,-0.059 0.293,-0.058 0.547,-0.118 0.293,-0.058 0.547,-0.117 0.293,-0.059 1.094,-0.234 0.292,-0.059 1.368,-0.293 0.293,-0.058 0.547,-0.118 0.273,-0.039 1.094,-0.234 0.273,-0.039 0.82,-0.176 0.274,-0.039 0.547,-0.117 0.254,-0.039 0.547,-0.117 0.273,-0.039 0.273,-0.059 0.254,-0.039 0.274,-0.059 0.273,-0.039 0.274,-0.058 0.254,-0.039 0.273,-0.059 0.273,-0.039 0.274,-0.059 0.254,-0.039 0.273,-0.058 0.254,-0.039 0.274,-0.059 0.273,-0.039 0.254,-0.039 0.273,-0.059 0.254,-0.039 0.274,-0.039 0.254,-0.058 0.273,-0.04 0.254,-0.039 0.273,-0.058 0.254,-0.039 0.274,-0.039 0.508,-0.078 0.273,-0.059 0.508,-0.078 0.273,-0.039 0.508,-0.078 0.273,-0.039 1.016,-0.157 0.274,-0.039 2.539,-0.39 0.253,-0.02 0.762,-0.117 0.254,-0.02 0.762,-0.117 0.234,-0.019 0.508,-0.078 0.254,-0.02 0.254,-0.039 0.234,-0.039 0.254,-0.02 0.254,-0.039 0.234,-0.019 0.254,-0.039 0.254,-0.02 0.235,-0.039 0.253,-0.019 0.254,-0.039 0.235,-0.02 0.254,-0.039 0.234,-0.02 0.254,-0.039 0.234,-0.019 0.254,-0.02 0.235,-0.039 0.254,-0.019 0.234,-0.02 0.234,-0.039 0.254,-0.019 0.469,-0.039 0.254,-0.04 0.469,-0.039 0.253,-0.019 0.235,-0.02 0.234,-0.039 0.235,-0.019 0.254,-0.02 3.75,-0.312 h 0.234 l 0.234,-0.02 0.215,-0.019 0.469,-0.039 h 0.234 l 0.215,-0.02 0.469,-0.039 h 0.234 l 0.215,-0.02 0.234,-0.019 h 0.235 l 0.215,-0.02 0.234,-0.019 h 0.215 l 0.234,-0.02 h 0.215 l 0.234,-0.019 h 0.215 l 0.235,-0.02 h 0.215 l 0.234,-0.019 h 0.215 l 0.215,-0.02 h 0.234 l 0.215,-0.019 h 0.449 l 0.215,-0.02 h 0.43 l 0.234,-0.019 h 0.644 l 0.215,-0.02 h 0.664 l 0.215,-0.019 h 4.434 l 0.195,0.019 h 0.625 l 0.215,0.02 h 0.605 l 0.196,0.019 h 0.41 l 0.215,0.02 h 0.39 l 0.215,0.019 h 0.196 l 0.195,0.02 h 0.195 l 0.215,0.019 h 0.195 l 0.196,0.02 h 0.195 l 0.195,0.019 h 0.196 l 0.195,0.02 h 0.195 l 0.215,0.019 h 0.195 l 0.391,0.039 h 0.195 l 0.176,0.02 0.195,0.02 h 0.196 l 0.586,0.058 h 0.195 l 0.195,0.02 0.176,0.019 0.195,0.02 h 0.196 l 0.195,0.019 0.176,0.02 0.39,0.039 0.176,0.019 0.195,0.02 0.176,0.019 0.391,0.039 h 0.176 l 0.195,0.02 0.176,0.02 0.195,0.019 0.176,0.039 0.195,0.02 0.352,0.039 0.195,0.019 0.352,0.039 0.195,0.02 0.351,0.039 0.196,0.039 0.703,0.078 0.195,0.039 0.352,0.039 0.176,0.039 0.351,0.039 0.176,0.039 0.351,0.039 0.176,0.04 0.352,0.039 0.176,0.039 0.175,0.019 0.176,0.039 0.176,0.02 0.156,0.039 0.176,0.019 0.176,0.039 0.176,0.02 0.175,0.039 0.157,0.02 0.175,0.039 0.176,0.019 0.176,0.039 0.156,0.039 0.176,0.02 0.176,0.039 0.156,0.039 0.176,0.019 0.156,0.04 0.176,0.039 0.176,0.019 0.156,0.039 0.176,0.039 0.156,0.039 0.176,0.02 0.312,0.078 0.176,0.039 0.156,0.039 0.176,0.02 0.312,0.078 0.176,0.039 0.313,0.078 0.175,0.039 0.313,0.078 0.156,0.02 0.176,0.039 0.625,0.156 0.156,0.059 0.176,0.039 1.094,0.273 0.156,0.059 0.625,0.156 0.156,0.059 0.157,0.039 0.136,0.039 0.157,0.039 0.156,0.058 0.312,0.078 0.157,0.059 0.136,0.039 0.156,0.039 0.157,0.059 0.156,0.039 0.137,0.039 0.156,0.058 0.156,0.04 0.156,0.058 0.137,0.039 0.156,0.059 0.157,0.039 0.136,0.058 0.157,0.039 0.136,0.059 0.157,0.039 0.156,0.059 0.137,0.039 0.156,0.058 0.137,0.059 0.156,0.039 0.137,0.059 0.156,0.039 0.136,0.058 0.157,0.059 0.136,0.039 0.157,0.059 0.136,0.058 0.157,0.059 0.136,0.039 0.137,0.058 0.156,0.059 0.137,0.059 0.156,0.039 0.274,0.117 0.156,0.058 0.273,0.118 0.157,0.058 0.136,0.039 0.274,0.117 0.156,0.059 0.41,0.176 0.157,0.058 0.546,0.235 0.157,0.078 0.683,0.293 0.156,0.058 0.137,0.079 0.41,0.175 0.137,0.079 0.41,0.175 0.137,0.078 0.273,0.118 0.137,0.078 0.137,0.058 0.137,0.078 0.273,0.118 0.137,0.078 0.136,0.058 0.137,0.078 0.137,0.059 0.137,0.078 0.136,0.059 0.274,0.156 0.136,0.059 0.137,0.078 0.137,0.058 0.273,0.157 0.137,0.058 0.41,0.235 0.117,0.058 0.547,0.313 0.137,0.058 0.41,0.235 0.117,0.078 0.821,0.469 0.117,0.078 0.41,0.234 0.137,0.098 0.136,0.078 0.118,0.078 0.273,0.156 0.137,0.098 0.136,0.078 0.118,0.078 0.136,0.078 0.137,0.098 0.137,0.078 0.137,0.098 0.136,0.078 0.117,0.078 0.137,0.098 0.137,0.078 0.137,0.097 0.136,0.078 0.118,0.098 0.136,0.078 0.274,0.196 0.136,0.078 0.118,0.097 0.136,0.078 0.41,0.293 0.118,0.079 0.547,0.39 0.117,0.098 0.136,0.097 0.137,0.079 0.274,0.195 0.117,0.098 0.273,0.195 0.137,0.117 0.137,0.098 0.117,0.097 0.41,0.293 0.137,0.118 0.117,0.097 0.273,0.196 0.137,0.117 0.137,0.097 0.136,0.118 0.118,0.097 0.136,0.117 0.274,0.196 0.273,0.234 0.117,0.098 0.137,0.117 0.137,0.098 0.41,0.351 0.117,0.098 0.957,0.82 0.117,0.117 0.957,0.821 0.137,0.136 0.137,0.118 0.254,0.253 0.273,0.235 0.137,0.137 0.137,0.117 0.136,0.136 0.137,0.118 0.274,0.273 0.136,0.117 0.274,0.274 0.136,0.117 0.547,0.547 0.137,0.117 0.137,0.137 0.117,0.136 0.41,0.411 0.137,0.156 0.156,0.136 0.41,0.411 0.137,0.156 0.273,0.273 0.137,0.157 0.137,0.136 0.137,0.157 0.136,0.136 0.137,0.157 0.137,0.136 0.273,0.313 0.137,0.136 0.41,0.469 0.293,0.293 0.82,0.938 0.137,0.175 0.137,0.157 0.156,0.156 0.137,0.156 0.136,0.176 0.274,0.312 0.137,0.176 0.136,0.157 0.157,0.175 0.136,0.157 0.274,0.351 0.136,0.156 0.137,0.176 0.156,0.176 0.137,0.156 0.41,0.528 0.157,0.175 0.546,0.703 0.157,0.176 0.136,0.196 0.274,0.351 0.156,0.195 0.273,0.352 0.137,0.195 0.137,0.176 0.156,0.195 0.137,0.196 0.137,0.175 0.136,0.196 0.157,0.195 0.136,0.176 0.137,0.195 0.156,0.195 0.41,0.586 0.157,0.196 0.273,0.39 0.156,0.196 0.137,0.215 0.274,0.39 0.156,0.195 0.136,0.215 0.137,0.196 0.156,0.214 0.137,0.196 0.137,0.215 0.156,0.214 0.137,0.196 0.137,0.215 0.156,0.214 0.137,0.196 0.273,0.429 0.156,0.215 0.274,0.43 0.156,0.215 0.137,0.215 0.136,0.234 0.157,0.215 0.136,0.215 0.157,0.234 0.273,0.43 0.156,0.234 0.137,0.215 0.137,0.234 0.156,0.215 0.273,0.469 0.157,0.234 0.136,0.215 0.137,0.235 0.156,0.234 0.274,0.469 0.156,0.234 0.137,0.234 0.156,0.235 0.137,0.254 0.136,0.234 0.157,0.234 0.136,0.254 0.137,0.235 0.156,0.234 0.137,0.254 0.137,0.234 0.156,0.254 0.137,0.254 0.156,0.235 0.273,0.507 0.157,0.254 0.273,0.508 0.156,0.254 0.137,0.254 0.156,0.254 0.274,0.508 0.156,0.254 0.137,0.273 0.136,0.254 0.157,0.254 0.136,0.273 0.137,0.254 0.156,0.274 0.137,0.254 0.156,0.273 0.274,0.547 0.156,0.254 0.274,0.547 0.156,0.273 0.273,0.547 0.156,0.273 0.137,0.293 0.137,0.274 0.156,0.273 0.137,0.274 0.137,0.293 0.156,0.273 0.137,0.293 0.136,0.273 0.157,0.293 0.136,0.293 0.137,0.274 0.156,0.293 0.274,0.586 0.156,0.293 0.273,0.586 0.157,0.293 0.273,0.586 0.156,0.293 0.137,0.292 0.137,0.313 0.136,0.293 0.157,0.312 0.136,0.293 0.137,0.313 0.156,0.293 0.274,0.625 0.137,0.293 0.156,0.312 0.41,0.938 0.156,0.312 0.41,0.938 0.157,0.332 0.273,0.625 0.137,0.332 0.156,0.312 0.137,0.332 0.136,0.313 0.137,0.332 0.156,0.332 0.137,0.332 0.137,0.313 0.273,0.664 0.157,0.332 0.136,0.351 0.41,0.996 0.157,0.352 0.273,0.664 0.137,0.351 0.137,0.333 0.156,0.351 0.136,0.332 0.274,0.703 0.137,0.332 0.136,0.352 0.137,0.332 0.41,1.055 0.137,0.332 0.409,1.054 0.14,0.332 0.27,0.703 0.12,0.352 0.41,1.055 0.55,1.484 0.15,0.391 0.28,0.781 0.15,0.391 0.14,0.39 0.13,0.41 0.16,0.41 0.16,0.43 0.13,0.41 0.32,0.86 0.13,0.429 0.78,2.246 0.16,0.43 0.14,0.41 0.11,0.371 0.14,0.372 0.24,0.664 0.19,0.586 0.08,0.253 0.1,0.235"
         style="fill:none;stroke:#231f20;stroke-width:7.5;stroke-linecap:butt;stroke-linejoin:miter;stroke-miterlimit:3.25;stroke-dasharray:25, 15;stroke-dashoffset:0;stroke-opacity:1"
         transform="matrix(0.13333333,0,0,-0.13333333,0,61.2)" />
      <path
         id="path7"
         d="m 2.6941313,1.3236284 c -0.890625,-0.76171871 -1.40625,-2.20312496 -1.40625,-3.75 0,-1.546875 0.515625,-3 1.40625,-3.75 L 2.5417875,-6.3873091 c -1.3242187,0.9023438 -1.91015625,2.3320313 -1.91015625,3.9492188 0,1.62890624 0.58593755,3.08203124 1.91015625,3.9609375 z m 2.5751953,-7.0429687 c -1.3476563,0 -1.8398438,1.6054687 -1.8398438,2.9179687 0,1.4179688 0.4804688,2.90625004 1.8398438,2.90625004 1.359375,0 1.828125,-1.59375004 1.828125,-2.91796874 0,-1.3828125 -0.46875,-2.90625 -1.828125,-2.90625 z m 0,0.3046875 c 0.8085937,0 1.03125,1.3242187 1.03125,2.6015625 0,1.265625 -0.2226563,2.61328124 -1.03125,2.61328124 -0.7734375,0 -1.0429688,-1.35937504 -1.0429688,-2.61328124 0,-1.2539063 0.2226563,-2.6015625 1.0429688,-2.6015625 z m 3.008789,4.2539062 c -0.2109375,0 -0.4335937,0.140625 -0.4335937,0.36328129 0,0.15234375 0.070312,0.22265625 0.1171875,0.234375 0.3046875,0.0703125 0.5625,0.26953125 0.5625,0.59765625 0,0.33984375 -0.2578125,0.57421875 -0.6914063,0.76171875 l 0.09375,0.25781251 c 0.5507813,-0.16406251 1.1835938,-0.55078126 1.1835938,-1.24218751 0,-0.6328125 -0.5039063,-0.97265629 -0.8320313,-0.97265629 z m 5.4082034,-4.5585937 c -1.347656,0 -1.839844,1.6054687 -1.839844,2.9179687 0,1.4179688 0.480469,2.90625004 1.839844,2.90625004 1.359375,0 1.828125,-1.59375004 1.828125,-2.91796874 0,-1.3828125 -0.46875,-2.90625 -1.828125,-2.90625 z m 0,0.3046875 c 0.808594,0 1.03125,1.3242187 1.03125,2.6015625 0,1.265625 -0.222656,2.61328124 -1.03125,2.61328124 -0.773438,0 -1.042969,-1.35937504 -1.042969,-2.61328124 0,-1.2539063 0.222656,-2.6015625 1.042969,-2.6015625 z m 2.572265,-0.7617188 c 0.890625,0.7382813 1.417969,2.203125 1.417969,3.75 0,1.54687504 -0.503906,2.98828129 -1.417969,3.75 l 0.164063,0.1992188 c 1.347656,-0.91406251 1.898437,-2.33203126 1.898437,-3.9492188 0,-1.6289062 -0.550781,-3.0585937 -1.898437,-3.9609375 z m 0,0"
         style="fill:#231f20;fill-opacity:1;fill-rule:nonzero;stroke:none"
         aria-label="(0, 0)"
         transform="matrix(1.3333333,0,0,1.3333333,32.7672,56.879693)" />
    </g>
  </g>
</svg>
