<?xml version="1.0" encoding="UTF-8" standalone="no"?>
<!-- Created with Inkscape (http://www.inkscape.org/) -->

<svg
   version="1.1"
   id="svg1"
   width="167.54668"
   height="39.266666"
   viewBox="0 0 167.54668 39.266666"
   sodipodi:docname="pha06f30.eps"
   xmlns:inkscape="http://www.inkscape.org/namespaces/inkscape"
   xmlns:sodipodi="http://sodipodi.sourceforge.net/DTD/sodipodi-0.dtd"
   xmlns="http://www.w3.org/2000/svg"
   xmlns:svg="http://www.w3.org/2000/svg">
  <defs
     id="defs1" />
  <sodipodi:namedview
     id="namedview1"
     pagecolor="#ffffff"
     bordercolor="#000000"
     borderopacity="0.25"
     inkscape:showpageshadow="2"
     inkscape:pageopacity="0.0"
     inkscape:pagecheckerboard="0"
     inkscape:deskcolor="#d1d1d1">
    <inkscape:page
       x="0"
       y="0"
       inkscape:label="1"
       id="page1"
       width="167.54668"
       height="39.266666"
       margin="0"
       bleed="0" />
  </sodipodi:namedview>
  <g
     id="g1"
     inkscape:groupmode="layer"
     inkscape:label="1">
    <g
       id="group-R5">
      <path
         id="path2"
         d="m 222.688,108.984 1.167,1.172 1.172,1.153 2.344,2.285 4.731,4.492 9.507,8.555 20.903,16.757 19.859,13.497 0.317,0.195 0.292,0.195 0.625,0.391 3.692,2.226 4.922,2.891 9.922,5.449 0.332,0.176 0.347,0.176 0.664,0.351 1.371,0.684 2.696,1.367 5.429,2.637 10.915,4.883 0.335,0.117 0.313,0.137 0.645,0.273 1.265,0.527 2.563,1.035 5.132,2.012 0.332,0.117 0.317,0.118 0.641,0.234 1.292,0.488 2.579,0.918 5.171,1.797 0.708,0.234 0.679,0.235 4.223,1.347 5.64,1.7 0.356,0.117 1.055,0.293 1.406,0.41 2.832,0.762 5.664,1.484 0.352,0.078 0.347,0.098 0.688,0.156 1.406,0.352 2.769,0.644 5.61,1.231 0.348,0.078 0.355,0.058 0.684,0.157 4.214,0.82 5.625,1.016 0.317,0.058 0.996,0.176 1.309,0.215 2.632,0.41 0.317,0.059 0.332,0.039 0.664,0.097 1.305,0.196 2.636,0.39 0.664,0.078 0.664,0.098 1.313,0.176 2.637,0.332 5.293,0.586 0.347,0.039 0.371,0.039 0.727,0.078 1.426,0.137 2.871,0.273 0.371,0.039 0.347,0.02 0.723,0.058 1.43,0.118 2.887,0.234 0.351,0.019 0.371,0.02 0.727,0.059 1.441,0.097 0.703,0.039 2.168,0.117 0.371,0.02 0.356,0.02 2.168,0.117 0.371,0.019 0.348,0.02 0.722,0.019 1.446,0.078 h 0.332 l 0.351,0.02 0.664,0.02 1.352,0.058 h 0.347 l 0.332,0.02 0.688,0.019 1.348,0.039 h 0.332 l 0.332,0.02 h 0.679 l 0.332,0.019 h 0.356 l 0.664,0.02 h 0.683 l 0.333,0.019 h 1.011 l 0.688,0.02 h 1.343 l 0.356,0.019 h 5.762 l 0.332,-0.019 h 1.699 l 0.332,-0.02 h 1.016 l 0.347,-0.019 h 0.332 l 0.664,-0.02 h 0.664 l 0.664,-0.019 h 0.332 l 0.333,-0.02 1.996,-0.058 h 0.332 l 0.332,-0.02 0.679,-0.019 1.328,-0.039 h 0.333 l 0.332,-0.02 0.668,-0.02 1.343,-0.058 0.332,-0.02 h 0.332 l 0.664,-0.039 1.329,-0.058 2.675,-0.137 0.664,-0.039 0.688,-0.039 1.328,-0.078 2.676,-0.157 0.371,-0.039 0.348,-0.019 0.722,-0.039 1.469,-0.117 2.906,-0.215 0.356,-0.02 0.371,-0.039 0.718,-0.058 1.465,-0.118 2.91,-0.254 0.356,-0.039 0.367,-0.019 0.727,-0.078 1.465,-0.137 2.91,-0.293 5.816,-0.625 0.356,-0.039 0.332,-0.039 2.046,-0.234 2.715,-0.332 5.45,-0.723 0.351,-0.039 0.332,-0.039 2.055,-0.293 2.715,-0.391 5.465,-0.82 1.488,-0.235 1.465,-0.234 2.964,-0.469 5.918,-1.015 11.86,-2.188 0.371,-0.078 0.351,-0.058 0.743,-0.157 1.445,-0.273 2.906,-0.586 5.844,-1.211 11.641,-2.559 21.738,-5.273 23.57,-6.309 21.953,-6.386 23.711,-7.305 23.188,-7.481 21.543,-7.128 23.179,-7.813 21.504,-7.246 20.903,-6.953 22.461,-7.305 20.742,-6.465 22.183,-6.523 21.489,-5.8009 19.761,-4.7852 0.332,-0.0586 0.997,-0.2344 1.332,-0.2929 2.632,-0.586 5.278,-1.1132 10.508,-2.0704 0.292,-0.0586 0.313,-0.0585 0.602,-0.0977 1.21,-0.2344 2.446,-0.4297 4.82,-0.8398 0.317,-0.0391 0.292,-0.0586 1.817,-0.2929 2.398,-0.3711 4.809,-0.7227 0.586,-0.0781 0.586,-0.0977 3.512,-0.4687 4.652,-0.586 1.172,-0.1562 1.148,-0.1172 2.324,-0.2734 4.614,-0.4688 0.308,-0.0195 0.317,-0.0391 1.875,-0.1758 2.476,-0.1953 0.317,-0.039 0.933,-0.0586 1.235,-0.0977 2.476,-0.1758 0.317,-0.0195 0.293,-0.0195 0.625,-0.0391 1.226,-0.0781 0.625,-0.0391 0.609,-0.039 1.231,-0.0586 0.309,-0.0196 0.293,-0.0195 0.625,-0.0195 1.234,-0.0586 0.293,-0.0195 h 0.308 l 0.61,-0.0391 1.226,-0.0391 0.278,-0.0195 h 0.293 l 0.562,-0.0195 h 0.293 l 0.278,-0.0196 0.566,-0.0195 h 0.562 l 0.571,-0.0195 0.293,-0.0196 h 0.84 l 0.293,-0.0195 h 0.566 l 0.269,-0.0195 h 1.133 l 0.293,-0.0196 h 6.469 l 0.27,0.0196 h 0.839 l 0.293,0.0195 h 0.84 l 0.278,0.0195 h 0.273 l 0.562,0.0196 1.118,0.0195 0.293,0.0195 h 0.308 l 0.61,0.0196 0.293,0.0195 h 0.293 l 0.605,0.0195 0.312,0.0196 h 0.29 l 0.609,0.039 1.187,0.0391 0.317,0.0195 0.293,0.0195 0.601,0.0391 1.196,0.0586 2.382,0.1367 0.29,0.0391 0.316,0.0195 0.586,0.0391 1.187,0.0781 2.368,0.1953 0.308,0.0391 0.293,0.0195 0.59,0.0586 1.172,0.0977 2.359,0.2539 0.278,0.0195 0.269,0.0391 1.645,0.1757 2.183,0.2735 0.547,0.0781 0.551,0.0586 1.094,0.1562 2.164,0.3125 0.28,0.0391 0.25,0.0391 0.55,0.0781 1.09,0.1758 2.15,0.3515 4.29,0.7813 0.26,0.0586 0.25,0.039 0.53,0.0977 1.05,0.2148 2.08,0.4297 4.16,0.9375 0.25,0.0586 0.25,0.0782 0.53,0.1171 1.02,0.2539 2.07,0.5274 4.08,1.1133 1.09,0.3125 1.12,0.332 2.18,0.6641 4.38,1.4257 0.54,0.1954 0.53,0.1757 1.1,0.3907 2.14,0.7812 4.3,1.6406 0.26,0.1172 0.25,0.0977 0.49,0.1953 0.99,0.4102 2,0.8398 3.92,1.7384 0.51,0.234 0.49,0.215 2.93,1.406 3.86,1.953 0.26,0.137 0.27,0.137 0.51,0.273 1.05,0.567 2.07,1.133 4.13,2.363 8.12,5.117 0.23,0.176 0.26,0.156 0.49,0.352 0.99,0.664 1.96,1.367 3.88,2.851 7.64,6.075 0.23,0.175 0.22,0.196 0.45,0.371 0.88,0.742 1.74,1.523 3.47,3.145 6.84,6.641 0.47,0.468 0.45,0.469 0.91,0.938 1.82,1.914 3.61,3.965 7.07,8.339 0.39,0.508 0.41,0.508 0.82,1.035 1.61,2.07 3.2,4.239 6.27,8.886 11.84,19.063 12.07,23.223 0.35,0.703 0.33,0.722 0.68,1.446 1.35,2.929 2.66,5.957 5.19,12.364 0.18,0.449 0.17,0.43 0.35,0.898 0.73,1.777 1.4,3.614 2.76,7.363 0.35,0.937 0.33,0.938 0.68,1.895 1.35,3.808 0.16,0.469 0.17,0.488 0.34,0.957 0.66,1.934 0.16,0.488 0.17,0.488 0.33,0.977 0.16,0.488 0.18,0.488 0.31,0.977"
         style="fill:none;stroke:#231f20;stroke-width:7.5;stroke-linecap:butt;stroke-linejoin:miter;stroke-miterlimit:3.25;stroke-dasharray:none;stroke-opacity:1"
         transform="matrix(0.13333333,0,0,-0.13333333,0,39.266667)" />
      <path
         id="path3"
         d="M 278.938,52.7148 166.414,165.254"
         style="fill:none;stroke:#231f20;stroke-width:5;stroke-linecap:square;stroke-linejoin:miter;stroke-miterlimit:3.25;stroke-dasharray:none;stroke-opacity:1"
         transform="matrix(0.13333333,0,0,-0.13333333,0,39.266667)" />
      <path
         id="path4"
         d="m 278.938,52.7148 0.21,0.2149 0.239,0.2148 0.508,0.5078 0.293,0.2735 0.292,0.293 0.333,0.3125 0.679,0.6835 0.781,0.7422 0.391,0.3907 0.41,0.3906 0.395,0.3906 1.172,1.1133 0.371,0.3711 0.386,0.3515 0.372,0.3711 0.375,0.3516 0.371,0.332 0.371,0.3516 0.347,0.332 0.371,0.3321 0.708,0.664 0.347,0.3125 0.356,0.3321 0.332,0.3125 0.347,0.2929 0.332,0.3125 0.664,0.586 0.332,0.3125 0.997,0.8789 0.351,0.2929 1.328,1.1719 0.356,0.293 0.664,0.5859 0.347,0.293 0.332,0.293 0.356,0.2734 0.66,0.5859 0.356,0.293 0.332,0.2734 0.347,0.293 0.332,0.293 0.356,0.2734 0.347,0.293 0.332,0.2929 0.356,0.2735 0.332,0.2734 0.351,0.293 0.333,0.2734 0.347,0.2735 0.332,0.2929 0.356,0.2735 0.332,0.2734 0.347,0.2734 0.332,0.2735 0.356,0.2734 0.332,0.2539 0.348,0.2735 0.668,0.5468 0.347,0.2539 0.332,0.2735 0.356,0.2539 0.332,0.2734 0.347,0.2539 0.332,0.2735 0.332,0.2539 0.356,0.2539 0.332,0.2539 0.351,0.2734 0.665,0.5078 0.347,0.2539 0.664,0.5079 0.356,0.2539 0.332,0.2343 0.347,0.2539 0.664,0.5079 0.356,0.2343 0.66,0.5078 0.356,0.2344 0.332,0.2344 0.347,0.2539 0.332,0.2344 0.332,0.2539 0.356,0.2344 0.664,0.4687 0.348,0.2344 0.332,0.2344 0.351,0.2539 0.332,0.2343 0.332,0.2149 0.356,0.2344 0.664,0.4687 0.347,0.2344 0.332,0.2344 0.332,0.2148 0.356,0.2344 0.332,0.2148 0.332,0.2344 0.352,0.2148 0.332,0.2344 0.332,0.2149 0.347,0.2343 0.664,0.4297 0.356,0.2149 0.332,0.2343 0.332,0.2149 0.347,0.2148 0.665,0.4297 0.351,0.2149 0.664,0.4296 0.356,0.2149 0.332,0.1953 0.332,0.2148 0.347,0.2149 0.332,0.1953 0.332,0.2148 0.356,0.2149 0.332,0.1953 0.332,0.2148 0.352,0.1954 0.332,0.2148 0.332,0.1953 0.347,0.1953 0.332,0.2149 0.332,0.1953 0.356,0.1953 0.664,0.3906 0.347,0.1953 1,0.586 0.348,0.1953 0.664,0.3906 0.356,0.1953 0.332,0.1758 0.332,0.1953 0.347,0.1953 0.332,0.1758 0.332,0.1953 0.356,0.1953 0.332,0.1758 0.332,0.1953 0.352,0.1758 0.332,0.1758 0.332,0.1953 0.347,0.1758 0.332,0.1758 0.332,0.1953 0.356,0.1758 0.332,0.1757 0.347,0.1758 0.665,0.3516 0.351,0.1758 0.664,0.3515 0.356,0.1758 0.664,0.3516 0.347,0.1562 0.664,0.3516 0.356,0.1758 0.332,0.1562 0.351,0.1762 0.333,0.156 0.332,0.176 0.347,0.156 0.332,0.176 0.356,0.156 0.332,0.176 0.332,0.156 0.347,0.156 0.332,0.156 0.356,0.176 0.664,0.313 0.352,0.156 0.332,0.156 0.347,0.156 0.664,0.313 0.356,0.156 0.332,0.156 0.347,0.157 0.332,0.156 0.356,0.156 0.332,0.137 0.352,0.156 0.332,0.156 0.347,0.137 0.664,0.313 0.356,0.136 0.332,0.157 0.347,0.136 0.332,0.157 0.356,0.136 0.332,0.137 0.352,0.156 0.332,0.137 0.347,0.137 0.332,0.136 0.356,0.157 0.332,0.136 0.703,0.274 0.332,0.137 0.351,0.136 0.333,0.137 0.347,0.137 0.332,0.136 0.356,0.137 0.332,0.137 0.347,0.137 0.356,0.117 0.332,0.137 0.348,0.136 0.332,0.137 0.351,0.117 0.356,0.137 0.332,0.137 0.347,0.117 0.356,0.136 0.332,0.118 0.347,0.136 0.356,0.118 0.332,0.117 0.351,0.136 0.348,0.118 0.332,0.117 0.356,0.137 0.347,0.117 0.332,0.117 0.703,0.234 0.356,0.137 0.332,0.117 1.055,0.352 0.332,0.117 0.703,0.234 0.347,0.098 0.332,0.117 1.055,0.352 0.356,0.097 0.332,0.118 0.347,0.117 0.356,0.097 0.347,0.118 0.356,0.097 0.351,0.117 0.348,0.098 0.356,0.117 0.332,0.098 0.347,0.117 0.703,0.195 0.356,0.118 1.055,0.293 0.347,0.117 3.867,1.074 0.356,0.078 0.348,0.098 0.375,0.097 0.347,0.098 0.356,0.078 0.703,0.196 0.347,0.078 0.356,0.097 0.367,0.078 0.703,0.196 0.703,0.156 0.371,0.098 0.356,0.078 0.351,0.097 0.348,0.079 0.371,0.078 0.356,0.078 0.347,0.098 0.356,0.078 0.371,0.078 0.699,0.156 0.371,0.078 0.356,0.098 0.371,0.078 0.703,0.156 0.367,0.078 0.356,0.059 0.371,0.078 0.703,0.156 0.371,0.078 0.348,0.079 0.375,0.058 0.347,0.078 0.371,0.078 0.356,0.059 0.371,0.078 0.348,0.078 0.375,0.059 0.347,0.078 0.371,0.059 0.371,0.078 0.356,0.058 0.371,0.078 0.351,0.059 0.372,0.078 0.371,0.059 0.347,0.058 0.371,0.078 0.372,0.059 0.355,0.059 0.738,0.117 0.371,0.078 0.356,0.058 1.48,0.235 0.356,0.058 1.851,0.293 0.356,0.039 1.109,0.176 0.371,0.039 0.742,0.118 0.372,0.039 0.746,0.117 0.371,0.039 0.371,0.058 0.371,0.039 0.367,0.059 0.371,0.039 0.371,0.059 0.371,0.039 0.395,0.039 0.367,0.058 1.113,0.118 0.371,0.058 0.375,0.039 0.387,0.039 1.113,0.118 0.391,0.039 0.371,0.058 0.742,0.078 0.395,0.02 0.738,0.078 0.395,0.039 0.371,0.039 0.387,0.039 0.375,0.039 0.371,0.02 0.386,0.039 0.371,0.039 0.395,0.039 0.367,0.019 0.395,0.04 0.371,0.019 0.387,0.039 0.375,0.039 0.386,0.02 0.371,0.039 0.395,0.019 0.371,0.039 0.777,0.039 0.371,0.04 0.395,0.019 0.367,0.02 0.395,0.039 0.781,0.039 0.371,0.019 0.391,0.039 0.386,0.02 0.371,0.019 1.567,0.078 0.371,0.02 2.73,0.137 h 0.371 l 1.172,0.058 h 0.395 l 0.777,0.039 h 0.395 l 0.386,0.02 h 0.415 l 0.386,0.019 h 0.395 l 0.387,0.02 h 0.39 l 0.395,0.02 h 0.781 l 0.406,0.019 h 0.781 l 0.395,0.02 h 1.187 l 0.395,0.019 h 4.781 l 0.395,-0.019 h 1.597 l 0.414,-0.02 h 0.797 l 0.395,-0.019 h 0.406 l 0.41,-0.02 h 0.805 l 0.406,-0.02 h 0.395 l 0.816,-0.039 h 0.395 l 0.41,-0.019 h 0.406 l 0.41,-0.02 0.395,-0.019 h 0.41 l 1.227,-0.059 0.39,-0.019 h 0.41 l 4.922,-0.235 0.41,-0.039 1.645,-0.078 0.406,-0.039 0.82,-0.039 0.43,-0.039 0.41,-0.02 0.41,-0.039 0.825,-0.039 0.41,-0.039 0.429,-0.019 0.411,-0.039 0.41,-0.02 0.41,-0.039 0.43,-0.039 0.41,-0.02 0.41,-0.039 0.43,-0.039 0.41,-0.019 0.41,-0.039 0.43,-0.039 0.41,-0.039 0.429,-0.02 0.821,-0.078 0.429,-0.039 0.411,-0.039 0.425,-0.039 0.414,-0.039 0.426,-0.039 0.41,-0.02 0.43,-0.059 0.41,-0.039 0.434,-0.039 0.406,-0.039 0.859,-0.078 0.415,-0.039 0.425,-0.039 0.41,-0.039 0.43,-0.059 0.434,-0.039 0.41,-0.039 0.43,-0.039 0.425,-0.058 0.434,-0.039 0.406,-0.04 0.434,-0.058 0.43,-0.039 0.41,-0.059 0.425,-0.039 0.43,-0.058 0.434,-0.039 0.426,-0.059 0.414,-0.039 0.425,-0.059 0.434,-0.039 0.855,-0.117 0.43,-0.039 0.859,-0.117 0.43,-0.039 0.434,-0.059 0.41,-0.058 0.43,-0.059 0.425,-0.039 1.719,-0.235 0.449,-0.058 3.868,-0.527 0.453,-0.079 1.715,-0.234 0.453,-0.078 0.855,-0.117 0.434,-0.078 0.449,-0.059 0.43,-0.059 0.425,-0.078 0.454,-0.058 0.425,-0.078 0.434,-0.059 0.445,-0.078 0.434,-0.059 0.429,-0.078 0.45,-0.058 0.425,-0.079 0.454,-0.058 0.859,-0.156 0.445,-0.059 0.434,-0.078 0.445,-0.078 0.434,-0.059 0.445,-0.078 0.434,-0.078 0.449,-0.078 0.43,-0.059 0.449,-0.078 0.43,-0.078 0.898,-0.156 0.43,-0.078 0.449,-0.079 0.43,-0.078 0.898,-0.156 0.43,-0.078 0.894,-0.156 0.434,-0.078 0.894,-0.157 0.434,-0.078 0.445,-0.078 0.449,-0.098 0.454,-0.078 0.425,-0.078 0.453,-0.078 0.45,-0.098 0.894,-0.156 0.434,-0.098 0.894,-0.156 0.453,-0.097 0.899,-0.157 0.43,-0.097 0.449,-0.078 0.445,-0.098 0.449,-0.078 0.453,-0.098 0.45,-0.078 0.894,-0.195 0.449,-0.078 0.903,-0.196 0.445,-0.078 0.899,-0.195 0.453,-0.078 1.343,-0.293 0.454,-0.078 1.343,-0.293 0.473,-0.098 2.691,-0.586 0.469,-0.098 1.801,-0.39 0.469,-0.098 1.343,-0.293 0.469,-0.117 0.902,-0.195 0.465,-0.098 0.45,-0.098 0.453,-0.117 0.465,-0.098 0.453,-0.097 0.449,-0.117 0.469,-0.098 0.449,-0.098 0.445,-0.117 0.473,-0.098 0.445,-0.117 0.473,-0.097 0.449,-0.098 0.445,-0.117 0.473,-0.098 0.445,-0.117 0.473,-0.098 0.445,-0.117 0.473,-0.117 0.445,-0.098 0.473,-0.117 0.445,-0.098 0.473,-0.117 0.445,-0.117 0.473,-0.098 0.445,-0.117 0.473,-0.117 0.449,-0.098 0.469,-0.117 0.449,-0.117 0.469,-0.117 0.465,-0.098 0.453,-0.117 0.465,-0.117 0.453,-0.117 0.933,-0.235 0.449,-0.098 0.942,-0.234 0.445,-0.117 0.942,-0.234 0.449,-0.118 1.402,-0.351 0.449,-0.117 1.411,-0.352 0.449,-0.137 1.406,-0.351 0.445,-0.117 0.473,-0.118 0.469,-0.136 1.406,-0.352 0.445,-0.137 0.942,-0.234 0.465,-0.137 0.941,-0.234 0.469,-0.137 0.933,-0.234 0.449,-0.137 0.469,-0.117 0.473,-0.137 0.469,-0.117 0.464,-0.137 0.469,-0.117 0.473,-0.137 0.469,-0.117 0.464,-0.137 0.469,-0.117 0.473,-0.136 0.469,-0.118 0.464,-0.136 0.469,-0.118 0.942,-0.273 0.464,-0.117 0.942,-0.2736 0.469,-0.1172 0.464,-0.1367 0.493,-0.1367 0.465,-0.1172 1.875,-0.5469 0.468,-0.1172 0.942,-0.2734 0.488,-0.1367 0.934,-0.2735 0.468,-0.1171 0.942,-0.2735 0.488,-0.1367 1.402,-0.4102 0.493,-0.1367 1.875,-0.5469 0.488,-0.1367 0.933,-0.2734 0.493,-0.1367 0.933,-0.2735 0.473,-0.1562 0.484,-0.1367 0.942,-0.2735 0.488,-0.1367 0.933,-0.2734 0.493,-0.1563 0.933,-0.2734 0.489,-0.1367 0.468,-0.1563 0.473,-0.1367 0.484,-0.1367 0.473,-0.1367 0.484,-0.1563 0.942,-0.2734 0.484,-0.1563 0.473,-0.1367 0.484,-0.1367 0.473,-0.1563 0.484,-0.1367 0.473,-0.1367 0.469,-0.1563 0.488,-0.1367 0.469,-0.1562 0.488,-0.1367 0.469,-0.1563 0.488,-0.1367 0.469,-0.1367 0.488,-0.1563 0.469,-0.1367 0.484,-0.1562 0.473,-0.1368 0.484,-0.1562 0.473,-0.1563 0.484,-0.1367 0.473,-0.1562 0.484,-0.1368 0.473,-0.1562 0.484,-0.1367 0.489,-0.1563 0.468,-0.1562 0.489,-0.1367 0.468,-0.1563 0.492,-0.1367 0.465,-0.1563 0.493,-0.1562 0.488,-0.1367 0.469,-0.1563 0.488,-0.1562 0.469,-0.1367 0.972,-0.3125 0.473,-0.1563 0.484,-0.1367 0.489,-0.1563 0.468,-0.1562 0.492,-0.1367 0.489,-0.1563 0.469,-0.1562 0.972,-0.3125 0.473,-0.1368 0.972,-0.3125 0.469,-0.1562 0.981,-0.3125 0.465,-0.1367 1.464,-0.4688 0.469,-0.1562 1.469,-0.4688 0.469,-0.1562 0.972,-0.3125 0.492,-0.1367 0.465,-0.1563 1.953,-0.625 0.469,-0.1562 2.446,-0.7813 0.464,-0.1562 0.493,-0.1758 1.953,-0.625 0.465,-0.1563 2.445,-0.7812 0.484,-0.1758 0.488,-0.1563 0.469,-0.1562 1.469,-0.4688 0.484,-0.1757 2.446,-0.7813 0.488,-0.1758 1.465,-0.4687 0.484,-0.1758 0.473,-0.1562 0.972,-0.3125 0.493,-0.1758 1.465,-0.4688 0.488,-0.1758 0.972,-0.3125 0.493,-0.1757 1.464,-0.4688 0.489,-0.1758 0.484,-0.1562 0.512,-0.1563 0.484,-0.1758 0.981,-0.3125 0.488,-0.1757 0.977,-0.3125 0.488,-0.1758 0.484,-0.1563 0.488,-0.1757 0.981,-0.3125 0.484,-0.1758 0.493,-0.1563 0.488,-0.1758 0.508,-0.1562 0.488,-0.1563 0.484,-0.1757 0.489,-0.1563 0.492,-0.1758 0.972,-0.3125 0.493,-0.1758 0.488,-0.1562 0.508,-0.1758 0.972,-0.3125 0.493,-0.1758 0.488,-0.1562 0.484,-0.1758 0.488,-0.1562 0.508,-0.1758 0.489,-0.1563 0.492,-0.1758 0.484,-0.1562 0.488,-0.1758 0.493,-0.1562 0.503,-0.1758 0.981,-0.3125 0.484,-0.1758 0.493,-0.1563 0.488,-0.1757 0.508,-0.1563 0.488,-0.1758 0.484,-0.1562 0.489,-0.1758 0.507,-0.1562 0.493,-0.1758 0.488,-0.1563 0.484,-0.1758 0.488,-0.1562 0.508,-0.1758 0.492,-0.1562 0.489,-0.1758 0.484,-0.1563 0.512,-0.1758 0.484,-0.1562 0.489,-0.1758 0.492,-0.1562 0.508,-0.1758 0.488,-0.1758 0.484,-0.1562 0.488,-0.1758 0.508,-0.1563 0.489,-0.1758 0.492,-0.1562 0.508,-0.1758 0.488,-0.1562 0.484,-0.1758 0.488,-0.1563 0.508,-0.1758 0.492,-0.1562 0.489,-0.1758 0.508,-0.1562 0.972,-0.3516 0.512,-0.1562 0.484,-0.1758 0.493,-0.1563 0.503,-0.1758 0.493,-0.1562 0.488,-0.1758 0.484,-0.1562 0.512,-0.1758 0.484,-0.1563 0.508,-0.1758 0.488,-0.1562 0.493,-0.1758 0.504,-0.1758 0.492,-0.1562 0.484,-0.1758 0.512,-0.1562 0.484,-0.1758 0.488,-0.1563 0.508,-0.1758 0.492,-0.1562 0.504,-0.1758 0.493,-0.1562 0.488,-0.1758 0.508,-0.1563 0.972,-0.3515 0.508,-0.1563 0.488,-0.1758 0.508,-0.1562 0.489,-0.1758 0.492,-0.1562 0.508,-0.1758 0.488,-0.1563 0.508,-0.1758 0.488,-0.1562 0.508,-0.1758 0.488,-0.1562 0.484,-0.1758 0.508,-0.1563 0.488,-0.1758 0.508,-0.1562 0.489,-0.1758 0.507,-0.1562 0.493,-0.1758 0.488,-0.1563 0.508,-0.1757 0.488,-0.1563 0.508,-0.1758 0.484,-0.1562 0.512,-0.1758 0.484,-0.1563 0.512,-0.1757 0.484,-0.1563 0.508,-0.1758 0.488,-0.1562 0.508,-0.1758 0.488,-0.1563 0.508,-0.1757 0.492,-0.1563 0.504,-0.1758 0.493,-0.1562 0.503,-0.1758 0.493,-0.1562 0.507,-0.1563 0.489,-0.1758 0.508,-0.1562 0.488,-0.1758 0.508,-0.1563 0.488,-0.1757 0.508,-0.1563 0.484,-0.1758 0.512,-0.1562 0.484,-0.1563 0.512,-0.1758 0.484,-0.1562 0.508,-0.1758 0.488,-0.1562 0.508,-0.1563 0.489,-0.1758 0.507,-0.1562 0.508,-0.1758 0.488,-0.1562 0.508,-0.1563 0.489,-0.1758 0.507,-0.1562 0.493,-0.1758 0.503,-0.1563 0.493,-0.1562 0.504,-0.1758 0.507,-0.1562 0.493,-0.1563 0.503,-0.1758 0.493,-0.1562 0.504,-0.1563 0.507,-0.1758 0.493,-0.1562 0.503,-0.1563 0.493,-0.1757 1.011,-0.3125 0.493,-0.1563 0.503,-0.1758 0.493,-0.1562 0.504,-0.1563 0.507,-0.1757 0.493,-0.1563 0.503,-0.1562 0.493,-0.1563 0.504,-0.1758 0.507,-0.1562 0.493,-0.1563 0.503,-0.1562 0.508,-0.1758 0.489,-0.1563 1.015,-0.3125 0.488,-0.1562 0.508,-0.1758 0.512,-0.1562 0.484,-0.1563 0.508,-0.1562 0.488,-0.1563 0.508,-0.1562 0.512,-0.1758 0.484,-0.1563 1.528,-0.4687 0.488,-0.1563 1.016,-0.3125 0.488,-0.1758 1.015,-0.3125 0.489,-0.1562 1.011,-0.3125 0.493,-0.1563 1.519,-0.4687 0.488,-0.1563 1.016,-0.3125 0.488,-0.1562 1.528,-0.4688 0.484,-0.1562 1.524,-0.4688 0.492,-0.1562 0.508,-0.1563 0.503,-0.1367 0.508,-0.1562 0.489,-0.1563 1.527,-0.4687 0.484,-0.1563 0.512,-0.1562 0.508,-0.1367 0.508,-0.1563 0.488,-0.1562 1.016,-0.3125 0.503,-0.1368 0.508,-0.1562 0.489,-0.1563 0.507,-0.1562 0.508,-0.1367 1.02,-0.3125 0.488,-0.1563 0.508,-0.1367 1.011,-0.3125 0.508,-0.1367 0.508,-0.1563 0.488,-0.1562 0.508,-0.1367 1.02,-0.3125 0.508,-0.1368 0.503,-0.1562 0.493,-0.1367 0.504,-0.1563 0.507,-0.1367 1.02,-0.3125 0.508,-0.1367 0.488,-0.1563 0.508,-0.1367 0.508,-0.1562 0.504,-0.1367 0.507,-0.1563 1.02,-0.2734 0.508,-0.1563 0.488,-0.1367 0.508,-0.1563 0.508,-0.1367 0.503,-0.1562 1.016,-0.2735 0.512,-0.1562 1.012,-0.2734 0.507,-0.1563 0.493,-0.1367 1.011,-0.2735 0.512,-0.1562 1.52,-0.4102 0.507,-0.1562 2.035,-0.5469 0.504,-0.1562 1.528,-0.4102 0.484,-0.1367 8.125,-2.1875 0.512,-0.1172 1.519,-0.4102 0.532,-0.1367 0.504,-0.1172 1.527,-0.4101 0.508,-0.1172 1.011,-0.2734 0.508,-0.1172 1.02,-0.2735 0.508,-0.1172 0.503,-0.1367 0.508,-0.1172 0.512,-0.1367 0.523,-0.1367 0.508,-0.1172 0.512,-0.1367 0.508,-0.1172 0.508,-0.1367 1.011,-0.2344 0.508,-0.1367 0.512,-0.1172 0.508,-0.1367 0.527,-0.1172 0.508,-0.1172 0.508,-0.1367 1.011,-0.2344 0.508,-0.1367 0.512,-0.1172 0.523,-0.1172 0.508,-0.1367 2.031,-0.4687 0.532,-0.1172 0.504,-0.1367 1.527,-0.3516 0.523,-0.1172 2.032,-0.4687 0.531,-0.1172 1.519,-0.3516 0.532,-0.1172 0.503,-0.1172 0.508,-0.0976 0.508,-0.1172 0.527,-0.1172 1.02,-0.2344 0.508,-0.0976 0.523,-0.1172 0.512,-0.1172 0.508,-0.0977 0.508,-0.1172 0.527,-0.1171 0.508,-0.0977 0.508,-0.1172 0.527,-0.1172 0.508,-0.0976 0.508,-0.1172 0.527,-0.0977 0.508,-0.1172 0.507,-0.0976 0.528,-0.1172 0.508,-0.0977 0.504,-0.1171 0.531,-0.0977 0.508,-0.0977 0.504,-0.1171 0.531,-0.0977 0.508,-0.0977 0.503,-0.1171 0.532,-0.0977 0.508,-0.0977 0.527,-0.1171 1.016,-0.1954 0.527,-0.0976 0.508,-0.0977 0.523,-0.0976 1.02,-0.1953 0.527,-0.1172 0.508,-0.0977 0.523,-0.0976 0.512,-0.0977 0.523,-0.0977 0.508,-0.0781 0.512,-0.0976 0.523,-0.0977 0.508,-0.0976 0.528,-0.0977 0.507,-0.0977 0.532,-0.0976 0.503,-0.0781 0.532,-0.0977 0.508,-0.0977 0.527,-0.0976 0.508,-0.0781 0.523,-0.0977 0.512,-0.0976 0.523,-0.0782 0.508,-0.0976 0.527,-0.0782 0.508,-0.0976 0.532,-0.0781 0.503,-0.0977 0.532,-0.0781 0.523,-0.0977 0.512,-0.0781 0.523,-0.07812 0.512,-0.09766 0.523,-0.07813 0.508,-0.07812 0.531,-0.09766 0.528,-0.07812 0.508,-0.07813 0.527,-0.07812 0.508,-0.09766 1.054,-0.15625 0.504,-0.07812 1.059,-0.15625 0.508,-0.07813 1.054,-0.15625 0.504,-0.07812 1.059,-0.15625 0.508,-0.07813 0.523,-0.05859 0.531,-0.07813 0.504,-0.07812 1.059,-0.15625 0.508,-0.0586 1.054,-0.15625 0.528,-0.05859 0.508,-0.07812 0.527,-0.0586 0.523,-0.07812 0.532,-0.0586 0.507,-0.07812 0.528,-0.0586 0.523,-0.07812 1.059,-0.11719 0.508,-0.07812 1.582,-0.17578 0.523,-0.07813 0.512,-0.05859 3.164,-0.35157 0.508,-0.05859 2.105,-0.23437 0.528,-0.03907 1.585,-0.17578 0.528,-0.03906 0.523,-0.05859 0.512,-0.0586 0.523,-0.03906 0.532,-0.05859 0.523,-0.03907 0.527,-0.05859 0.532,-0.03906 0.523,-0.0586 1.059,-0.07812 0.523,-0.0586 1.059,-0.07812 0.523,-0.05859 2.113,-0.15625 0.543,-0.03907 3.696,-0.27343 0.523,-0.01954 1.059,-0.07812 0.547,-0.01953 1.05,-0.07813 0.532,-0.01953 0.523,-0.03906 0.527,-0.01953 0.547,-0.03906 0.532,-0.01954 0.527,-0.03906 1.055,-0.03906 0.547,-0.03906 2.109,-0.07813 0.547,-0.01953 0.523,-0.03906 1.059,-0.03906 h 0.547 l 1.05,-0.03907 0.547,-0.01953 1.059,-0.03906 h 0.523 l 0.547,-0.01953 0.531,-0.01953 h 0.528 l 0.547,-0.01953 h 0.523 l 0.527,-0.01954 h 0.547 l 0.532,-0.01953 h 1.074 l 0.523,-0.01953 h 2.68 L 965.383,3.75 h 1.07 l 0.527,0.01953 h 2.153 l 0.523,0.01953 h 1.074 l 0.547,0.01953 h 0.532 l 0.546,0.01954 h 0.528 l 0.547,0.01953 h 0.523 l 0.551,0.01953 0.523,0.01953 0.547,0.01953 h 0.531 l 1.09,0.03906 0.532,0.01953 0.543,0.01954 0.531,0.01953 1.094,0.03906 0.527,0.01953 0.547,0.03906 0.523,0.01953 0.551,0.01954 0.547,0.03906 0.523,0.01953 0.547,0.01953 0.528,0.03906 0.546,0.01953 0.547,0.03907 0.532,0.03906 0.542,0.01953 0.547,0.03906 0.532,0.03907 0.546,0.01953 0.543,0.03906 0.532,0.03906 1.636,0.11719 0.532,0.03906 0.547,0.03906 0.543,0.0586 0.531,0.03906 1.094,0.07813 0.542,0.05859 0.532,0.03906 0.547,0.0586 0.546,0.03906 0.543,0.05859 0.532,0.03906 1.636,0.17579 0.547,0.03906 0.532,0.05859 1.635,0.17578 0.53,0.0586 0.55,0.05859 0.54,0.07813 1.64,0.17578 0.53,0.07812 0.55,0.0586 0.55,0.07812 0.54,0.05859 1.1,0.15625 0.52,0.0586 3.29,0.46875 0.52,0.07812 2.19,0.3125 0.55,0.09766 0.54,0.07812 0.55,0.09766 0.53,0.07813 0.54,0.09765 0.55,0.07813 1.1,0.19531 0.54,0.07812 1.64,0.29297 0.53,0.09766 1.09,0.19531 0.55,0.11719 1.64,0.29297 0.55,0.11719 0.55,0.09765 0.54,0.11719 0.55,0.09766 0.53,0.11718 0.54,0.11719 0.55,0.09766 3.28,0.70309 0.53,0.1172 0.55,0.1172 0.54,0.1367 1.1,0.2344 0.54,0.1367 0.55,0.1172 1.09,0.2734 0.53,0.1172 3.83,0.9571 0.53,0.1367 0.54,0.1367 0.55,0.1563 1.09,0.2734 0.55,0.1562 0.53,0.1368 1.09,0.3125 0.55,0.1367 1.09,0.3125 0.53,0.1562 2.19,0.625 0.52,0.1758 1.1,0.3125 0.55,0.1758 0.52,0.1562 0.55,0.1758 0.55,0.1563 0.54,0.1758 0.53,0.1757 0.55,0.1758 0.54,0.1563 0.53,0.1757 1.1,0.3516 0.52,0.1953 1.1,0.3516 0.52,0.1758 0.55,0.1953 0.55,0.1758 0.53,0.1953 0.54,0.1758 0.55,0.1953 0.53,0.1953 0.54,0.1758 0.53,0.1953 0.55,0.1953 0.52,0.1953 1.1,0.3906 0.53,0.1953 0.54,0.2149 0.53,0.1953 0.55,0.1953 0.52,0.2148 0.53,0.1954 0.55,0.2148 0.53,0.1953 0.54,0.2149 0.53,0.2148 0.55,0.2148 1.05,0.4297 0.55,0.2149 1.05,0.4297 0.55,0.2148 0.53,0.2149 0.52,0.2343 0.55,0.2149 0.53,0.2343 0.53,0.2149 0.52,0.2344 0.55,0.2343 0.53,0.2149 2.11,0.9375 0.54,0.2344 0.53,0.2343 0.53,0.2539 1.05,0.4688 0.53,0.2539 0.53,0.2344 1.05,0.5078 0.53,0.2344 2.11,1.0156 0.51,0.2539 1.58,0.7617 0.53,0.2734 0.52,0.254 0.51,0.2734 0.53,0.2539 0.53,0.2734 0.5,0.2539 1.06,0.5469 0.51,0.2735 1.05,0.5468 0.51,0.2735 0.53,0.2734 0.5,0.2734 0.53,0.2735 0.51,0.2929 0.53,0.2735 0.5,0.293 0.53,0.2734 0.51,0.293 0.51,0.2734 0.53,0.293 1.52,0.8789 0.53,0.2929 1.52,0.8789 0.51,0.3125 0.52,0.293 0.51,0.293 0.51,0.3125 0.51,0.293 1.52,0.9375 0.51,0.2929 0.51,0.3125 0.49,0.3125 1.01,0.625 0.51,0.3321 0.51,0.3125 0.48,0.3125 0.51,0.3125 0.51,0.332 0.49,0.3125 1.01,0.664 0.49,0.3125 0.51,0.3321 0.49,0.332 0.51,0.332 0.48,0.3321 0.51,0.332 0.49,0.332 0.51,0.3321 0.49,0.332 0.49,0.3516 0.48,0.332 0.51,0.332 0.49,0.3516 0.49,0.332 1.46,1.0547 0.51,0.332 1.47,1.0547 0.46,0.3516 0.49,0.3515 0.49,0.3711 0.98,0.7032 0.49,0.3711 0.46,0.3515 0.49,0.3711 0.49,0.3516 0.47,0.3711 0.98,0.7422 0.47,0.3711 0.48,0.3515 0.47,0.3711 0.49,0.3906 0.94,0.7422 0.49,0.3711 0.46,0.3711 0.47,0.3906 0.49,0.3711 0.47,0.3907 0.47,0.371 0.94,0.7813 0.47,0.3711 2.81,2.3437 0.47,0.4102 0.45,0.3906 0.46,0.3906 0.47,0.4102 0.47,0.3906 0.45,0.4102 0.47,0.3906 0.45,0.4102 0.47,0.4101 0.45,0.3906 0.47,0.4102 0.45,0.4102 0.46,0.4101 0.9,0.8203 0.47,0.4102 0.45,0.4297 0.9,0.8203 0.45,0.4297 0.45,0.4101 0.45,0.4297 0.45,0.4102 0.45,0.4297 0.44,0.4101 1.8,1.7188 0.43,0.4297 0.9,0.8593 0.43,0.4297 0.45,0.4297 0.43,0.4492 0.45,0.4297 0.43,0.4492 0.45,0.4297 0.43,0.4492 0.45,0.4297 0.85,0.8985 0.45,0.4296 3.01,3.1446 0.43,0.4687 0.86,0.8985 0.43,0.4687 0.41,0.4492 0.43,0.4688 0.43,0.4492 0.41,0.4688 0.86,0.9375 0.41,0.4492 0.43,0.4687 0.41,0.4688 0.43,0.4687 0.41,0.4688 0.41,0.4883 0.43,0.4687 0.82,0.9375 0.41,0.4883 0.41,0.4687 0.43,0.4688 0.82,0.9765 0.41,0.4688 0.41,0.4883 0.39,0.4883 0.41,0.4882 0.41,0.4691 0.82,0.976 0.39,0.489 0.41,0.488 0.41,0.508 0.39,0.488 0.41,0.488 0.39,0.488 0.41,0.508 0.39,0.489 0.41,0.507 0.4,0.489 0.39,0.507 0.41,0.508 0.39,0.489 3.9,5.078 0.39,0.527 0.39,0.508 0.38,0.527 0.39,0.508 0.39,0.527 0.37,0.508 0.39,0.528 0.37,0.527 0.39,0.508 0.37,0.527 0.39,0.527 0.37,0.528 0.39,0.527 1.12,1.582 0.39,0.547 1.11,1.582 0.37,0.547 0.37,0.527 0.37,0.547 0.37,0.527 0.38,0.547 0.35,0.547 0.37,0.547 0.37,0.527 0.37,0.547 0.35,0.547 0.74,1.094 0.36,0.547 0.37,0.547 0.35,0.566 0.37,0.547 0.7,1.094 0.37,0.566 0.36,0.547 0.35,0.566 0.37,0.547 0.7,1.133 0.35,0.547 2.82,4.531 0.33,0.567 0.35,0.586 0.7,1.132 0.33,0.586 0.36,0.567 0.33,0.586 0.35,0.566 0.33,0.586 0.35,0.586 0.33,0.586 0.36,0.566 0.99,1.758 0.35,0.586 0.67,1.172 0.33,0.605 1,1.758 0.33,0.606 0.33,0.586 0.33,0.605 0.33,0.586 0.34,0.605 0.31,0.606 0.33,0.586 0.67,1.211 0.31,0.605 0.33,0.606 0.31,0.605 0.67,1.211 0.62,1.211 0.33,0.625 0.63,1.211 0.33,0.625 0.31,0.605 0.63,1.25 0.33,0.606 0.94,1.875 0.31,0.605 1.25,2.5 0.29,0.645 0.94,1.875 0.29,0.644 0.32,0.625 0.31,0.645 0.29,0.625 0.31,0.645 0.3,0.625 0.31,0.644 0.29,0.645 0.31,0.644 0.3,0.625 0.31,0.645 0.88,1.933 0.31,0.664 0.88,1.934 0.29,0.664 0.59,1.289 0.29,0.664 0.3,0.645 0.87,1.992 0.3,0.644 0.29,0.664 0.27,0.664 0.3,0.665 0.29,0.683 0.29,0.664 0.28,0.664 0.29,0.664 0.29,0.684 0.28,0.664 0.29,0.684 0.27,0.664 0.29,0.683 0.28,0.684 0.29,0.664 0.55,1.367 0.29,0.684 0.55,1.367 0.27,0.664 1.64,4.101 0.28,0.665 0.27,0.683 0.25,0.684 0.55,1.367 0.25,0.683 0.28,0.665 0.25,0.683 0.27,0.684 0.51,1.367 0.28,0.684 0.25,0.683 0.25,0.703 0.28,0.703 0.27,0.723 0.25,0.723 0.28,0.722 0.27,0.743 0.27,0.761 0.28,0.742 0.27,0.782 0.27,0.761 0.3,0.782 0.27,0.781 0.29,0.801 0.28,0.8 0.29,0.821 0.27,0.82 0.3,0.82 0.58,1.68 0.3,0.859 0.29,0.84 0.27,0.801 0.26,0.762 0.25,0.722 0.23,0.665 0.22,0.644 0.21,0.606 0.2,0.566 0.18,0.527 0.15,0.489 0.16,0.449 m -1086.606,-77.715 0.664,0.664 0.395,0.352 0.84,0.839 0.464,0.45 0.493,0.468 0.503,0.508 0.547,0.528 0.586,0.566 0.61,0.586 0.601,0.605 0.625,0.586 0.61,0.586 0.586,0.586 0.601,0.586 0.59,0.566 0.601,0.547 0.586,0.567 0.571,0.547 0.586,0.547 0.562,0.546 1.137,1.055 0.562,0.508 0.547,0.527 0.547,0.508 0.551,0.488 0.547,0.508 0.547,0.488 0.523,0.469 0.527,0.488 2.637,2.344 0.528,0.449 1.582,1.407 0.546,0.468 0.532,0.45 0.523,0.468 0.551,0.469 0.523,0.469 0.547,0.449 1.098,0.938 0.523,0.449 0.547,0.469 0.551,0.449 0.547,0.469 0.547,0.449 0.547,0.469 0.562,0.449 0.551,0.468 0.547,0.45 0.547,0.468 0.546,0.45 0.567,0.449 1.094,0.898 0.562,0.45 1.098,0.898 0.547,0.43 0.562,0.449 0.551,0.43 0.562,0.449 0.547,0.429 0.547,0.45 0.571,0.429 0.542,0.43 0.571,0.43 0.547,0.449 0.562,0.43 0.551,0.429 0.562,0.411 0.547,0.429 0.571,0.43 0.547,0.43 0.566,0.41 0.547,0.429 0.562,0.43 0.571,0.41 0.546,0.41 0.567,0.43 1.133,0.82 0.547,0.411 0.562,0.429 1.699,1.231 0.547,0.39 1.699,1.231 0.571,0.39 0.562,0.411 0.571,0.39 0.566,0.41 1.133,0.782 0.562,0.41 0.571,0.39 0.585,0.391 2.262,1.563 0.571,0.371 0.582,0.39 0.57,0.391 0.562,0.371 0.571,0.391 0.586,0.39 1.129,0.742 0.585,0.391 1.133,0.742 0.586,0.371 0.571,0.371 0.582,0.372 1.132,0.742 0.586,0.371 0.571,0.371 0.586,0.351 0.566,0.372 0.586,0.351 0.586,0.371 0.562,0.352 0.586,0.371 0.571,0.351 1.168,0.704 0.57,0.351 0.586,0.371 0.586,0.352 0.562,0.332 1.762,1.054 0.562,0.352 0.586,0.332 0.586,0.352 0.586,0.332 0.586,0.351 1.172,0.664 0.566,0.352 4.106,2.324 0.586,0.313 1.172,0.664 0.586,0.312 0.586,0.332 0.586,0.313 0.601,0.332 1.762,0.937 0.586,0.332 1.172,0.625 0.601,0.313 0.586,0.293 1.176,0.625 0.602,0.312 0.585,0.293 0.586,0.313 0.586,0.293 0.61,0.312 0.586,0.293 0.586,0.313 0.601,0.293 0.586,0.293 0.606,0.293 1.171,0.585 0.61,0.293 0.586,0.293 0.601,0.293 0.586,0.293 0.61,0.293 0.586,0.274 0.585,0.293 0.606,0.273 0.586,0.293 0.601,0.274 0.61,0.293 0.586,0.273 0.601,0.273 0.586,0.274 0.61,0.273 0.586,0.293 0.601,0.274 0.61,0.254 0.582,0.273 0.609,0.273 0.586,0.274 0.601,0.273 0.61,0.254 0.586,0.274 0.601,0.254 0.61,0.273 0.601,0.254 0.586,0.254 0.61,0.273 0.601,0.254 0.59,0.254 2.422,1.016 0.586,0.254 0.601,0.254 0.61,0.234 1.211,0.508 0.586,0.234 0.601,0.254 1.211,0.469 0.606,0.254 1.21,0.468 0.586,0.235 4.243,1.64 0.601,0.215 0.61,0.235 0.601,0.214 0.609,0.235 0.606,0.215 0.602,0.234 6.664,2.363 0.601,0.196 0.61,0.214 0.601,0.196 0.606,0.215 0.609,0.195 0.625,0.215 1.812,0.586 0.61,0.215 2.422,0.781 0.625,0.176 1.812,0.586 0.61,0.175 0.601,0.196 0.609,0.175 0.625,0.196 1.208,0.351 0.609,0.196 1.211,0.351 0.625,0.176 2.422,0.703 0.625,0.176 0.601,0.176 0.61,0.156 1.211,0.351 0.625,0.157 0.601,0.175 0.61,0.157 0.605,0.176 0.625,0.156 1.211,0.312 0.601,0.176 0.61,0.156 0.625,0.157 1.812,0.468 0.625,0.137 1.821,0.469 0.625,0.136 0.601,0.157 0.61,0.136 0.601,0.157 0.625,0.136 0.61,0.137 0.601,0.156 0.609,0.137 0.625,0.137 1.817,0.41 0.625,0.137 1.812,0.41 0.625,0.137 0.61,0.117 1.211,0.273 0.625,0.117 0.601,0.137 0.61,0.117 0.601,0.137 0.625,0.117 1.211,0.235 0.61,0.136 0.625,0.117 2.417,0.469 0.625,0.117 0.61,0.118 0.601,0.097 0.61,0.117 0.625,0.118 0.601,0.097 0.61,0.117 0.601,0.098 0.625,0.117 0.61,0.098 0.601,0.117 1.211,0.195 0.625,0.098 0.61,0.117 1.816,0.293 0.625,0.098 1.211,0.195 0.601,0.078 0.61,0.098 0.625,0.098 0.601,0.097 0.61,0.078 0.601,0.098 0.61,0.078 0.601,0.098 0.625,0.078 0.61,0.098 1.812,0.234 0.61,0.098 0.625,0.078 3.027,0.39 0.601,0.059 0.61,0.078 0.625,0.078 0.601,0.078 0.61,0.059 1.211,0.156 0.601,0.059 0.61,0.078 1.211,0.117 0.601,0.078 0.625,0.059 1.215,0.117 0.602,0.078 3.632,0.352 0.61,0.039 1.812,0.176 0.61,0.039 0.601,0.058 0.61,0.039 0.605,0.059 0.602,0.039 0.609,0.059 0.601,0.039 0.61,0.058 2.422,0.157 0.601,0.058 0.61,0.039 0.586,0.039 1.812,0.117 0.609,0.02 1.817,0.117 0.601,0.02 0.61,0.039 0.586,0.039 0.601,0.019 0.61,0.039 0.601,0.02 0.61,0.039 0.601,0.02 0.586,0.019 0.61,0.039 1.816,0.059 0.586,0.039 2.422,0.078 0.586,0.019 h 0.601 l 1.211,0.039 0.586,0.02 0.609,0.02 h 0.606 l 0.586,0.019 0.601,0.02 h 0.61 l 0.601,0.019 h 0.586 l 0.61,0.02 h 0.601 l 0.586,0.019 h 1.801 l 0.602,0.02 h 6.566 l 0.602,-0.02 h 1.195 l 0.586,-0.019 h 1.187 l 0.61,-0.02 h 0.586 l 0.601,-0.019 0.59,-0.02 h 0.602 l 0.585,-0.019 h 0.61 l 0.586,-0.02 0.601,-0.02 0.586,-0.019 0.61,-0.02 h 0.586 l 0.586,-0.019 0.601,-0.02 1.176,-0.039 0.601,-0.019 0.586,-0.02 0.61,-0.019 0.586,-0.039 0.586,-0.02 0.601,-0.019 0.586,-0.02 0.59,-0.039 0.602,-0.02 0.585,-0.019 0.586,-0.039 0.586,-0.02 0.61,-0.039 0.586,-0.019 0.586,-0.039 0.586,-0.02 0.601,-0.039 0.59,-0.019 1.172,-0.079 0.601,-0.039 0.586,-0.019 2.348,-0.156 0.602,-0.039 4.101,-0.274 0.609,-0.039 0.583,-0.059 1.757,-0.117 0.586,-0.058 0.586,-0.039 0.586,-0.059 1.176,-0.078 1.172,-0.117 0.586,-0.039 0.586,-0.059 0.586,-0.039 1.171,-0.117 0.583,-0.039 1.757,-0.176 0.571,-0.059 0.586,-0.058 0.586,-0.039 2.925,-0.293 0.571,-0.078 2.339,-0.235 0.571,-0.058 0.586,-0.079 1.172,-0.117 0.566,-0.078 1.172,-0.117 0.586,-0.078 0.562,-0.059 0.586,-0.078 0.586,-0.058 0.586,-0.079 0.567,-0.078 0.585,-0.058 0.586,-0.078 0.571,-0.059 0.586,-0.078 0.562,-0.078 0.59,-0.078 0.586,-0.059 0.562,-0.078 1.172,-0.156 0.571,-0.078 0.586,-0.079 0.566,-0.078 0.586,-0.078 0.562,-0.078 0.586,-0.078 0.571,-0.078 0.586,-0.078 0.566,-0.078 0.586,-0.079 0.562,-0.078 0.586,-0.078 0.571,-0.078 0.586,-0.098 0.562,-0.078 0.59,-0.078 0.562,-0.078 0.586,-0.098 0.571,-0.078 0.586,-0.078 0.562,-0.098 0.567,-0.078 0.585,-0.097 0.571,-0.078 0.562,-0.098 0.586,-0.078 0.571,-0.098 0.585,-0.078 1.129,-0.195 0.571,-0.078 0.586,-0.098 0.562,-0.098 0.567,-0.078 0.585,-0.098 1.704,-0.293 0.586,-0.078 1.699,-0.293 0.586,-0.097 2.832,-0.489 0.586,-0.097 1.132,-0.196 0.567,-0.117 2.266,-0.39 0.566,-0.118 0.586,-0.097 1.133,-0.196 0.562,-0.117 0.57,-0.097 0.567,-0.118 1.133,-0.195 0.562,-0.117 0.571,-0.098 0.566,-0.117 0.562,-0.098 0.571,-0.117 0.562,-0.097 0.571,-0.118 0.543,-0.117 0.57,-0.097 1.133,-0.235 0.562,-0.097 1.699,-0.352 0.571,-0.098 0.547,-0.117 1.699,-0.351 0.562,-0.098 0.547,-0.117 2.27,-0.469 0.547,-0.117 1.699,-0.352 0.547,-0.117 1.129,-0.234 0.546,-0.137 1.133,-0.234 0.547,-0.118 1.137,-0.234 0.547,-0.137 1.133,-0.234 0.542,-0.117 0.571,-0.137 0.547,-0.117 0.562,-0.117 0.57,-0.137 0.543,-0.117 0.571,-0.137 0.547,-0.117 0.562,-0.117 0.551,-0.137 0.562,-0.117 0.547,-0.137 0.571,-0.117 0.546,-0.137 0.567,-0.117 0.547,-0.137 0.562,-0.137 0.547,-0.117 0.567,-0.136 0.546,-0.118 0.547,-0.136 0.571,-0.137 0.546,-0.117 0.567,-0.137 0.547,-0.137 0.547,-0.117 0.562,-0.137 0.551,-0.136 0.562,-0.137 0.547,-0.137 0.547,-0.117 0.551,-0.137 0.562,-0.136 1.094,-0.274 0.571,-0.137 0.542,-0.117 1.094,-0.273 0.571,-0.137 1.636,-0.41 0.571,-0.137 2.183,-0.547 0.57,-0.136 0.543,-0.157 3.286,-0.82 0.562,-0.156 1.645,-0.41 0.547,-0.157 1.636,-0.41 0.547,-0.156 1.098,-0.273 0.547,-0.157 1.089,-0.273 0.547,-0.156 0.547,-0.137 0.547,-0.156 1.098,-0.274 0.547,-0.156 0.527,-0.137 0.547,-0.156 0.547,-0.137 0.547,-0.156 0.546,-0.137 0.543,-0.156 0.547,-0.137 0.547,-0.156 0.528,-0.137 1.093,-0.312 0.547,-0.137 0.551,-0.156 0.523,-0.137 1.094,-0.312 0.551,-0.137 0.523,-0.156 0.547,-0.156 0.547,-0.137 0.551,-0.156 0.523,-0.157 0.547,-0.156 0.551,-0.137 0.523,-0.156 1.094,-0.312 0.528,-0.137 1.093,-0.313 0.532,-0.156 0.542,-0.156 0.532,-0.137 1.093,-0.312 0.528,-0.157 0.547,-0.156 0.523,-0.156 0.551,-0.156 0.523,-0.157 0.547,-0.136 0.531,-0.157 1.09,-0.312 1.059,-0.313 0.547,-0.156 0.523,-0.156 0.547,-0.156 0.527,-0.157 0.547,-0.156 0.532,-0.156 0.543,-0.156 1.054,-0.313 0.547,-0.156 0.527,-0.156 0.547,-0.157 0.532,-0.175 0.527,-0.157 0.547,-0.156 1.054,-0.312 0.543,-0.157 1.582,-0.468 0.547,-0.176 1.582,-0.469 0.547,-0.156 0.532,-0.176 1.05,-0.312 0.547,-0.157 0.528,-0.156 0.531,-0.176 1.582,-0.468 0.523,-0.176 0.547,-0.156 1.059,-0.313 0.523,-0.176 1.059,-0.312 0.523,-0.176 1.059,-0.313 0.523,-0.175 1.059,-0.313 0.523,-0.176 1.059,-0.312 0.523,-0.176 0.532,-0.156 0.527,-0.176 1.055,-0.312 0.527,-0.176 0.523,-0.156 0.532,-0.176 1.05,-0.313 0.532,-0.176 0.527,-0.156 0.508,-0.176 0.523,-0.156 0.528,-0.176 1.054,-0.312 0.531,-0.176 0.504,-0.156 0.532,-0.176 0.527,-0.156 0.523,-0.176 0.508,-0.156 0.531,-0.176 0.528,-0.156 0.523,-0.176 0.512,-0.156 0.523,-0.176 0.532,-0.156 0.523,-0.176 0.512,-0.156 0.523,-0.176 0.532,-0.156 0.503,-0.176 0.532,-0.156 0.507,-0.176 0.528,-0.176 0.523,-0.156 0.512,-0.176 0.523,-0.156 0.532,-0.176 0.507,-0.156 0.528,-0.176 0.508,-0.176 0.527,-0.156 0.508,-0.176 0.523,-0.156 0.512,-0.176 0.523,-0.156 0.508,-0.176 0.528,-0.176 0.507,-0.156 0.532,-0.176 0.504,-0.156 0.531,-0.176 0.508,-0.176 0.503,-0.156 0.532,-0.176 0.508,-0.156 0.527,-0.176 0.508,-0.175 0.508,-0.157 0.527,-0.175 0.508,-0.176 0.507,-0.156 0.528,-0.176 0.508,-0.156 0.504,-0.176 0.531,-0.176 0.508,-0.156 1.011,-0.352 0.532,-0.156 1.011,-0.352 0.508,-0.156 0.527,-0.176 0.508,-0.156 1.02,-0.351 0.508,-0.157 0.527,-0.176 0.508,-0.175 0.508,-0.157 1.011,-0.351 0.508,-0.156 1.02,-0.352 0.504,-0.156 0.507,-0.176 0.532,-0.176 0.504,-0.156 1.015,-0.352 0.512,-0.156 1.015,-0.351 0.504,-0.157 1.02,-0.351 0.484,-0.156 1.02,-0.352 0.508,-0.156 0.504,-0.176 0.507,-0.156 1.02,-0.352 0.508,-0.156 0.488,-0.176 0.508,-0.176 0.508,-0.156 1.011,-0.351 0.508,-0.157 0.488,-0.175 0.508,-0.176 0.512,-0.157 0.508,-0.175 0.484,-0.176 0.512,-0.156 0.508,-0.176 0.488,-0.156 1.016,-0.352 0.488,-0.156 1.015,-0.352 0.489,-0.156 0.508,-0.176 0.503,-0.156 0.493,-0.176 0.507,-0.176 0.489,-0.156 1.011,-0.351 0.493,-0.157 0.507,-0.175 0.489,-0.157 0.508,-0.175 0.488,-0.176 0.508,-0.156 0.488,-0.176 0.508,-0.157 0.484,-0.175 0.488,-0.157 0.508,-0.175 0.489,-0.176 0.507,-0.156 0.493,-0.176 0.503,-0.156 0.493,-0.176 0.488,-0.156 0.508,-0.176 0.488,-0.156 0.484,-0.176 0.508,-0.176 0.488,-0.156 0.493,-0.176 0.488,-0.156 0.508,-0.176 0.484,-0.156 0.488,-0.176 0.493,-0.156 0.503,-0.176 0.493,-0.156 0.488,-0.176 0.484,-0.156 0.493,-0.176 0.503,-0.156 0.493,-0.176 0.488,-0.156 0.484,-0.176 0.489,-0.157 0.492,-0.175 0.484,-0.157 0.488,-0.175 0.981,-0.313 0.508,-0.176 0.488,-0.156 0.484,-0.176 0.493,-0.156 0.488,-0.176 0.484,-0.156 0.473,-0.156 0.484,-0.176 0.488,-0.156 0.493,-0.176 0.972,-0.312 0.493,-0.176 0.972,-0.313 0.488,-0.176 0.469,-0.156 0.488,-0.156 0.493,-0.176 0.972,-0.312 0.473,-0.176 0.977,-0.313 0.488,-0.175 0.469,-0.157 0.972,-0.312 0.489,-0.176 0.468,-0.156 0.981,-0.313 0.468,-0.175 0.489,-0.157 0.469,-0.156 0.488,-0.156 0.484,-0.176 0.473,-0.156 0.484,-0.156 0.473,-0.157 0.484,-0.156 0.473,-0.176 0.484,-0.156 0.473,-0.156 0.484,-0.157 0.473,-0.156 0.484,-0.156 0.473,-0.156 0.484,-0.176 0.469,-0.156 0.488,-0.157 0.942,-0.312 0.484,-0.156 0.942,-0.313 0.488,-0.156 0.933,-0.313 0.493,-0.156 1.406,-0.469 0.484,-0.156 1.875,-0.625 0.489,-0.156 2.816,-0.938 0.469,-0.136 0.465,-0.157 0.492,-0.156 1.875,-0.625 0.468,-0.136 0.45,-0.157 1.406,-0.468 0.469,-0.137 0.933,-0.313 0.473,-0.136 0.469,-0.157 0.449,-0.156 0.469,-0.156 0.465,-0.137 0.941,-0.312 0.445,-0.137 0.942,-0.313 0.464,-0.136 0.454,-0.157 0.464,-0.136 0.469,-0.157 0.449,-0.156 0.469,-0.137 0.473,-0.156 0.445,-0.136 0.473,-0.157 0.445,-0.136 0.473,-0.157 0.469,-0.136 0.449,-0.157 0.468,-0.136 0.45,-0.157 0.465,-0.136 0.453,-0.157 0.465,-0.136 0.453,-0.137 0.449,-0.156 0.469,-0.137 0.449,-0.156 0.469,-0.137 0.449,-0.137 0.445,-0.156 0.473,-0.137 0.449,-0.136 0.445,-0.157 0.473,-0.136 0.894,-0.274 0.469,-0.156 1.797,-0.547 0.473,-0.156 2.691,-0.82 0.449,-0.157 0.469,-0.136 2.695,-0.821 0.43,-0.136 1.801,-0.547 0.445,-0.118 0.903,-0.273 0.425,-0.137 1.352,-0.41 0.445,-0.117 0.434,-0.137 0.894,-0.273 0.434,-0.137 0.445,-0.117 0.449,-0.137 0.43,-0.137 0.449,-0.117 0.454,-0.136 0.425,-0.137 0.45,-0.117 0.429,-0.137 0.449,-0.137 0.43,-0.117 0.449,-0.137 0.434,-0.117 0.445,-0.137 0.434,-0.117 0.445,-0.137 0.434,-0.136 0.449,-0.117 0.43,-0.118 0.425,-0.136 0.454,-0.118 0.425,-0.136 0.434,-0.117 0.445,-0.137 0.864,-0.235 0.425,-0.136 0.45,-0.117 0.429,-0.118 0.434,-0.136 1.289,-0.352 0.445,-0.137 1.723,-0.468 0.43,-0.137 3.433,-0.938 0.41,-0.117 2.153,-0.586 0.41,-0.117 0.855,-0.234 0.41,-0.098 1.289,-0.351 0.415,-0.118 0.425,-0.097 0.41,-0.118 0.864,-0.234 0.41,-0.098 0.43,-0.117 0.41,-0.117 0.426,-0.098 0.414,-0.117 0.41,-0.097 0.426,-0.118 0.414,-0.097 0.425,-0.117 0.411,-0.118 0.414,-0.097 0.425,-0.117 0.825,-0.196 0.425,-0.117 0.411,-0.098 0.414,-0.117 0.41,-0.097 0.426,-0.098 0.414,-0.117 0.82,-0.196 0.406,-0.117 1.645,-0.39 0.41,-0.118 3.687,-0.879 0.395,-0.097 1.64,-0.391 0.387,-0.097 0.821,-0.196 0.39,-0.078 0.82,-0.195 0.395,-0.098 0.406,-0.098 0.395,-0.078 0.41,-0.097 0.391,-0.098 0.41,-0.078 0.386,-0.098 0.414,-0.097 0.387,-0.079 0.41,-0.097 0.395,-0.078 0.391,-0.098 0.41,-0.078 0.386,-0.098 0.395,-0.078 0.391,-0.098 0.41,-0.078 0.386,-0.097 0.786,-0.157 0.41,-0.097 0.781,-0.156 0.391,-0.098 1.171,-0.235 0.387,-0.097 2.348,-0.469 0.39,-0.098 0.372,-0.078 1.168,-0.234 0.375,-0.059 1.168,-0.234 0.375,-0.078 0.386,-0.078 0.371,-0.078 0.395,-0.079 0.39,-0.058 0.372,-0.078 0.386,-0.078 0.371,-0.059 0.395,-0.078 0.367,-0.078 0.395,-0.059 0.742,-0.156 0.387,-0.059 0.375,-0.078 0.371,-0.058 0.386,-0.079 0.371,-0.058 0.372,-0.078 0.375,-0.059 0.371,-0.078 0.386,-0.059 0.371,-0.078 0.747,-0.117 0.371,-0.078 1.113,-0.176 0.367,-0.078 1.859,-0.293 0.348,-0.058 0.742,-0.118 0.371,-0.078 0.372,-0.058 0.355,-0.039 0.738,-0.118 0.356,-0.058 0.371,-0.059 0.347,-0.058 0.375,-0.059 0.348,-0.059 0.371,-0.039 0.356,-0.058 0.371,-0.059 0.347,-0.058 0.372,-0.039 0.351,-0.059 0.371,-0.059 0.356,-0.039 0.703,-0.117 0.371,-0.039 0.348,-0.059 0.351,-0.039 0.356,-0.058 0.347,-0.039 0.371,-0.059 0.703,-0.078 0.356,-0.059 0.699,-0.078 0.356,-0.058 0.703,-0.078 0.347,-0.059 0.332,-0.039 1.411,-0.156 0.332,-0.039 0.347,-0.059 0.356,-0.039 0.332,-0.039 0.703,-0.078 0.332,-0.039 0.351,-0.02 0.333,-0.039 0.347,-0.039 0.332,-0.039 0.356,-0.039 0.332,-0.039 0.347,-0.039 0.332,-0.02 0.332,-0.039 0.356,-0.039 0.332,-0.039 0.332,-0.019 0.332,-0.04 0.352,-0.019 0.664,-0.078 0.332,-0.02 0.332,-0.039 0.332,-0.019 0.332,-0.039 0.332,-0.02 0.332,-0.039 0.664,-0.039 0.332,-0.039 0.332,-0.02 0.332,-0.039 0.332,-0.019 0.312,-0.02 0.333,-0.019 0.332,-0.039 0.332,-0.02 0.308,-0.019 0.664,-0.039 0.317,-0.02 0.332,-0.02 0.308,-0.039 0.332,-0.019 0.317,-0.02 0.332,-0.019 0.308,-0.02 0.332,-0.019 h 0.317 l 0.308,-0.02 0.332,-0.019 0.942,-0.059 0.332,-0.019 h 0.308 l 0.625,-0.04 h 0.317 l 0.625,-0.039 h 0.308 l 0.625,-0.039 h 0.317 l 0.308,-0.019 h 0.317 l 0.308,-0.02 h 0.61 l 0.308,-0.019 h 0.317 l 0.293,-0.02 h 0.625 l 0.293,-0.019 h 0.918 l 0.293,-0.02 h 5.054 l 0.293,0.02 h 0.879 l 0.293,0.019 h 0.571 l 0.292,0.02 h 0.583 l 0.277,0.019 h 0.293 l 0.269,0.02 h 0.293 l 0.293,0.019 h 0.278 l 0.293,0.02 h 0.269 l 0.293,0.019 0.274,0.02 h 0.277 l 0.293,0.019 0.269,0.02 h 0.278 l 0.293,0.02 0.816,0.058 h 0.274 l 0.277,0.02 0.293,0.019 1.363,0.098 0.258,0.019 1.363,0.098 0.254,0.02 0.277,0.019 0.274,0.039 0.254,0.02 0.547,0.039 0.254,0.019 0.269,0.039 0.258,0.02 0.269,0.019 0.254,0.039 0.278,0.02 0.254,0.02 0.254,0.039 0.273,0.019 0.254,0.039 0.254,0.02 0.254,0.039 0.269,0.019 0.254,0.039 0.258,0.02 0.254,0.039 0.254,0.02 0.508,0.078 0.253,0.019 0.504,0.078 0.254,0.02 1.02,0.156 0.254,0.02 0.23,0.039 0.766,0.117 0.23,0.039 0.508,0.078 0.234,0.039 0.254,0.039 0.239,0.039 0.254,0.039 0.234,0.039 0.254,0.039 0.469,0.079 0.254,0.039 0.234,0.039 0.254,0.058 0.703,0.117 0.254,0.059 0.703,0.117 0.23,0.059 0.239,0.039 0.23,0.058 0.473,0.079 0.23,0.058 0.239,0.039 0.234,0.059 0.23,0.039 0.239,0.059 0.23,0.039 0.235,0.058 0.214,0.039 0.469,0.117 0.235,0.039 0.214,0.059 0.239,0.059 0.23,0.039 0.219,0.058 0.469,0.118 0.216,0.039 0.23,0.058 0.22,0.059 0.23,0.058 0.21,0.059 0.24,0.059 0.21,0.039 0.22,0.058 0.23,0.059 0.43,0.117 0.24,0.059 0.43,0.117 0.23,0.058 0.43,0.118 0.22,0.078 0.43,0.117 0.23,0.058 0.43,0.118 0.21,0.078 0.65,0.176 0.21,0.078 0.43,0.117 0.2,0.078 0.43,0.117 0.21,0.078 0.22,0.059 0.21,0.078 0.2,0.059 0.21,0.078 0.22,0.058 0.21,0.078 0.2,0.059 0.43,0.156 0.19,0.059 0.22,0.078 0.21,0.059 0.2,0.078 0.21,0.078 0.2,0.078 0.21,0.059 0.2,0.078 0.21,0.078 0.2,0.078 0.21,0.059 0.2,0.078 0.21,0.078 0.2,0.078 0.21,0.078 0.39,0.156 0.22,0.078 0.19,0.079 0.22,0.078 0.59,0.234 0.21,0.078 0.59,0.235 0.21,0.078 0.2,0.097 0.58,0.235 0.2,0.097 0.21,0.078 0.2,0.079 0.19,0.097 0.39,0.157 0.2,0.097 0.19,0.078 0.2,0.098 0.2,0.078 0.19,0.098 0.2,0.078 0.19,0.098 0.2,0.078 0.19,0.097 0.2,0.078 0.39,0.196 0.19,0.078 0.59,0.293 0.17,0.078 1.18,0.586 0.17,0.078 0.78,0.391 0.18,0.097 0.19,0.117 0.4,0.196 0.17,0.097 0.39,0.196 0.18,0.117 0.58,0.293 0.18,0.117 0.19,0.098 0.2,0.117 0.18,0.098 0.19,0.097 0.2,0.117 0.17,0.098 0.39,0.234 0.18,0.098 0.19,0.117 0.2,0.098 0.17,0.117 0.2,0.117 0.2,0.098 0.17,0.117 0.2,0.117 0.17,0.118 0.2,0.117 0.19,0.097 0.18,0.118 0.19,0.117 0.18,0.117 0.39,0.234 0.18,0.118 0.19,0.117 0.18,0.117 0.19,0.137 0.2,0.117 0.17,0.117 0.2,0.117 0.17,0.117 0.2,0.137 0.18,0.117 0.19,0.117 0.18,0.137 0.19,0.117 0.2,0.137 0.17,0.117 0.2,0.137 0.17,0.117 0.2,0.137 0.18,0.117 0.39,0.274 0.17,0.117 0.2,0.136 0.17,0.137 0.2,0.137 0.17,0.117 0.39,0.274 0.18,0.136 0.2,0.137 0.17,0.137 0.2,0.136 0.17,0.137 0.39,0.274 0.18,0.156 0.19,0.137 0.18,0.136 0.2,0.137 0.17,0.156 0.2,0.137 0.19,0.156 0.18,0.137 0.19,0.156 0.18,0.137 0.19,0.156 0.2,0.137 0.18,0.156 0.19,0.156 0.2,0.137 0.17,0.156 0.2,0.157 0.17,0.156 0.2,0.156 0.19,0.137 0.18,0.156 0.39,0.313 0.18,0.156 0.19,0.176 0.18,0.156 0.39,0.312 0.17,0.157 0.2,0.175 0.19,0.157 0.18,0.175 0.39,0.313 0.2,0.176 0.17,0.175 0.2,0.157 0.19,0.175 0.18,0.176 0.19,0.156 0.39,0.352 0.18,0.176 0.39,0.351 0.18,0.176 0.58,0.528 0.18,0.175 0.19,0.176 0.2,0.195 0.19,0.176 0.37,0.371 0.2,0.176 0.39,0.391 0.2,0.175 0.17,0.196 0.2,0.195 0.19,0.176 0.59,0.586 0.17,0.195 0.98,0.977 0.2,0.215 0.19,0.195 0.18,0.195 0.19,0.215 0.2,0.195 0.19,0.215 0.2,0.195 0.39,0.43 0.19,0.195 1.96,2.149 0.19,0.234 0.39,0.43 0.2,0.234 0.19,0.215 0.39,0.469 0.2,0.215 1.76,2.109 0.21,0.235 0.2,0.253 0.19,0.235 0.2,0.254 0.19,0.234 0.2,0.254 0.19,0.234 0.39,0.508 0.22,0.235 0.98,1.269 0.21,0.254 0.2,0.273 0.58,0.762 0.22,0.274 0.19,0.253 0.39,0.547 0.2,0.254 0.21,0.274 0.59,0.82 0.21,0.273 0.79,1.094 0.21,0.293 0.39,0.547 0.22,0.293 0.19,0.293 0.2,0.273 0.19,0.293 0.22,0.293 0.19,0.274 0.2,0.293 0.21,0.293 0.59,0.879 0.21,0.312 0.39,0.586 0.22,0.313 0.19,0.293 0.2,0.312 0.21,0.293 0.39,0.625 0.22,0.313 0.19,0.292 0.2,0.313 0.21,0.312 0.2,0.313 0.2,0.332 0.21,0.313 0.39,0.625 0.22,0.332 0.19,0.312 0.2,0.332 0.21,0.313 0.39,0.664 0.22,0.332 0.39,0.664 0.21,0.332 0.2,0.332 0.21,0.332 0.39,0.664 0.22,0.351 0.19,0.332 0.2,0.352 0.21,0.332 0.39,0.703 0.22,0.332 0.19,0.352 0.22,0.351 0.39,0.703 0.21,0.352 0.2,0.371 0.19,0.352 0.22,0.351 0.19,0.371 0.2,0.352 0.21,0.371 0.2,0.352 0.22,0.371 0.39,0.742 0.21,0.371 0.39,0.742 0.22,0.371 0.39,0.742 0.21,0.391 0.2,0.371 0.19,0.391 0.22,0.371 0.19,0.39 0.22,0.391 0.19,0.391 0.2,0.371 0.21,0.39 0.39,0.782 0.22,0.41 0.39,0.781 0.19,0.41 0.22,0.391 0.19,0.41 0.2,0.391 0.21,0.41 0.39,0.82 0.22,0.391 0.39,0.82 0.22,0.43 0.58,1.23 0.22,0.43 0.19,0.41 0.2,0.43 0.21,0.429 0.2,0.411 0.39,0.859 0.21,0.43 0.59,1.289 0.19,0.449 0.22,0.43 0.19,0.429 0.2,0.45 0.19,0.429 0.22,0.449 0.19,0.45 0.2,0.429 0.59,1.348 0.21,0.449 0.2,0.469 0.39,0.898 0.19,0.469 0.2,0.449 0.21,0.469 0.2,0.469 0.19,0.449 0.59,1.406 0.21,0.469 0.2,0.488 0.39,0.938 0.19,0.488 0.2,0.469 0.39,0.976 0.2,0.469 0.39,0.977 0.19,0.469 1.37,3.418 0.17,0.488 0.59,1.465 0.18,0.488 0.39,0.976 0.17,0.489 0.59,1.523 0.17,0.508 0.2,0.527 0.21,0.528 0.59,1.64 0.22,0.547 0.19,0.567 0.2,0.586 0.21,0.566 0.22,0.586 0.19,0.586 0.43,1.211 0.22,0.625 0.21,0.605 0.22,0.625 0.23,0.645 0.21,0.644 0.22,0.625 0.21,0.606 0.2,0.566 0.35,1.055 0.18,0.469 0.66,1.992"
         style="fill:none;stroke:#231f20;stroke-width:7.5;stroke-linecap:butt;stroke-linejoin:miter;stroke-miterlimit:3.25;stroke-dasharray:28.8, 28.8;stroke-dashoffset:0;stroke-opacity:1"
         transform="matrix(0.13333333,0,0,-0.13333333,0,39.266667)" />
      <path
         id="path5"
         d="M 6.2695312,-3.9376984 H 4.640625 v 0.234375 c 0.5742187,0.070312 0.6328125,0.1289062 0.515625,0.5976562 -0.1640625,0.6679688 -0.4101563,1.453125 -0.609375,2.0742188 H 4.523438 c -0.375,-0.9609375 -0.7382812,-1.921875 -1.078125,-2.859375 H 3.210938 c -0.375,1.0429687 -0.703125,1.96875 -1.0429687,2.8242187 H 2.15625 C 1.921875,-1.7580109 1.6992187,-2.4611359 1.4882812,-3.1642609 1.359375,-3.5626984 1.40625,-3.6212922 1.9453125,-3.7033234 v -0.234375 H 0.08203125 v 0.234375 c 0.43359375,0.058594 0.515625,0.1171875 0.6796875,0.5859375 C 1.125,-2.0392609 1.4648437,-0.97285469 1.7929687,0.09355156 h 0.2578126 c 0.3515625,-0.99609375 0.7265625,-1.89843746 1.0664062,-2.78906246 0.3632813,0.9375 0.7382813,1.82812496 1.0898437,2.78906246 H 4.4648437 C 4.875,-1.1251984 5.2734375,-2.3205109 5.5429687,-3.0353547 5.7304687,-3.5275422 5.8125,-3.6330109 6.2695312,-3.7033234 Z m 1.1132813,-0.890625 c 0.2578125,0 0.4570312,-0.2109375 0.4570312,-0.4570313 0,-0.2695312 -0.1992187,-0.46875 -0.4570312,-0.46875 -0.234375,0 -0.4570313,0.1992188 -0.4570313,0.46875 0,0.2460938 0.2226563,0.4570313 0.4570313,0.4570313 z M 8.4375,-1.984375e-4 V -0.23457344 C 7.8515625,-0.29316719 7.7929687,-0.34004219 7.7929687,-0.94941719 V -4.0548859 C 7.3945312,-3.9025422 6.9726562,-3.7853547 6.515625,-3.7033234 v 0.2109375 c 0.5390625,0.09375 0.5625,0.1289062 0.5625,0.6796875 v 1.86328121 c 0,0.609375 -0.058594,0.65625 -0.6210938,0.71484375 V -1.984375e-4 Z M 13.230469,-0.45722969 12.9375,-0.48066719 c -0.328125,-0.046875 -0.386719,-0.0820313 -0.386719,-0.55078121 v -5.3789063 c -0.339843,0.1171875 -0.9375,0.2578125 -1.40625,0.3164063 v 0.2109375 c 0.644532,0.046875 0.691407,0.082031 0.691407,0.6679687 v 1.2773438 c -0.210938,-0.082031 -0.46875,-0.1054688 -0.597657,-0.1054688 -1.21875,0 -2.3203122,0.984375 -2.3203122,2.2382813 0,1.25390621 0.9492187,1.91015621 1.6640622,1.91015621 0.105469,0 0.351563,-0.046875 0.703125,-0.2578125 l 0.550782,-0.328125 v 0.5859375 c 0.527343,-0.1875 1.195312,-0.3046875 1.394531,-0.33984375 z m -1.394531,-0.3046875 c -0.210938,0.1640625 -0.539063,0.3046875 -0.867188,0.3046875 -0.574219,0 -1.2304687,-0.52734375 -1.2304687,-1.59375001 0,-1.3007812 0.7617187,-1.6523437 1.1718747,-1.6523437 0.339844,0 0.714844,0.140625 0.925782,0.4570312 z m 4.177734,0.43359375 -0.08203,-0.234375 c -0.128907,0.0703125 -0.328125,0.15234375 -0.5625,0.15234375 -0.222657,0 -0.515625,-0.12890625 -0.515625,-0.85546871 v -2.3203125 h 0.960937 c 0.105469,-0.058594 0.128906,-0.2578125 0.05859,-0.3515625 h -1.019531 v -1.2304688 l -0.128907,-0.011719 -0.585937,0.5859375 v 0.65625 h -0.410156 l -0.246094,0.2695312 0.03516,0.082031 h 0.621094 v 2.62499996 c 0,0.703125 0.316406,1.06640625 0.878906,1.06640625 0.08203,0 0.234375,-0.03515625 0.386719,-0.1171875 z m 4.678711,0.3281250025 V -0.23457344 c -0.527344,-0.046875 -0.597656,-0.09375 -0.597656,-0.69140625 V -2.5080109 c 0,-1.078125 -0.503907,-1.5351563 -1.242188,-1.5351563 -0.480469,0 -0.972656,0.3398438 -1.289062,0.65625 v -3.0234375 c -0.339844,0.1054688 -0.890625,0.2578125 -1.3125,0.3164063 v 0.2109375 c 0.585937,0.046875 0.609375,0.09375 0.609375,0.6679687 v 4.28906251 c 0,0.59765625 -0.08203,0.64453125 -0.621094,0.69140625 v 0.2343750025 h 1.910156 V -0.23457344 c -0.539062,-0.0585938 -0.585937,-0.1171875 -0.585937,-0.69140625 V -3.0705109 c 0.257812,-0.28125 0.597656,-0.4570313 0.9375,-0.4570313 0.609375,0 0.890625,0.3632813 0.890625,1.1015625 v 1.50000001 c 0,0.5859375 -0.08203,0.6328125 -0.597657,0.69140625 v 0.2343750025 z m 0,0"
         style="fill:#231f20;fill-opacity:1;fill-rule:nonzero;stroke:none"
         aria-label="width"
         transform="matrix(1.3333333,0,0,1.3333333,0,33.355733)" />
    </g>
  </g>
</svg>
