<?xml version="1.0" encoding="UTF-8" standalone="no"?>
<!-- Created with Inkscape (http://www.inkscape.org/) -->

<svg
   version="1.1"
   id="svg1"
   width="296.06668"
   height="228.29333"
   viewBox="0 0 296.06668 228.29333"
   sodipodi:docname="pha06f07.eps"
   xmlns:inkscape="http://www.inkscape.org/namespaces/inkscape"
   xmlns:sodipodi="http://sodipodi.sourceforge.net/DTD/sodipodi-0.dtd"
   xmlns="http://www.w3.org/2000/svg"
   xmlns:svg="http://www.w3.org/2000/svg">
  <defs
     id="defs1" />
  <sodipodi:namedview
     id="namedview1"
     pagecolor="#ffffff"
     bordercolor="#000000"
     borderopacity="0.25"
     inkscape:showpageshadow="2"
     inkscape:pageopacity="0.0"
     inkscape:pagecheckerboard="0"
     inkscape:deskcolor="#d1d1d1">
    <inkscape:page
       x="0"
       y="0"
       inkscape:label="1"
       id="page1"
       width="296.06668"
       height="228.29333"
       margin="0"
       bleed="0" />
  </sodipodi:namedview>
  <g
     id="g1"
     inkscape:groupmode="layer"
     inkscape:label="1">
    <g
       id="group-R5">
      <path
         id="path2"
         d="m 360.508,698.289 0.219,677.191 c 57.207,-78.23 450.343,-98.38 694.553,-99.21 244.22,-0.83 654.68,26.36 695.33,99.21 l 0.06,-680.23 c 0,-58.711 -334.89,-103.898 -696.14,-103.898 -266.499,0 -694.288,35.269 -694.022,106.937"
         style="fill:#deddde;fill-opacity:1;fill-rule:nonzero;stroke:none"
         transform="matrix(0.13333333,0,0,-0.13333333,0,228.29333)" />
      <path
         id="path3"
         d="m 360.508,698.289 h 2.5 l 0.219,677.191 h -2.5 l -2.016,-1.48 c 15.141,-20.52 50.781,-36.3 99.691,-49.32 146.68,-38.83 413.582,-50.27 596.868,-50.91 3.6,-0.02 7.24,-0.02 10.91,-0.02 122.76,0 283.91,6.86 419.49,22.71 67.79,7.93 129.18,18.1 176.25,30.82 23.54,6.36 43.51,13.36 58.96,21.09 15.44,7.75 26.46,16.18 31.91,25.89 l -2.18,1.22 h -2.5 l 0.06,-680.23 c 0.05,-6.039 -4.42,-12.602 -14.02,-19.27 -16.71,-11.64 -48,-22.832 -90.24,-32.761 -126.8,-29.899 -352.47,-49.367 -589.38,-49.36 -133.1,-0.007 -306.55,8.801 -446.604,26.551 -70.02,8.871 -131.707,19.988 -175.719,33.289 -21.996,6.653 -39.578,13.86 -51.457,21.473 -5.941,3.797 -10.441,7.699 -13.387,11.566 -2.949,3.883 -4.351,7.641 -4.355,11.481 v 0.051 0.011 0.008 h -2.5 l -2.5,0.02 v -0.09 c -0.004,-5.11 1.933,-10.008 5.379,-14.52 12.976,-16.758 46.64,-30.219 94.172,-42.097 142.484,-35.34 409.468,-52.731 596.971,-52.743 180.73,0 354.85,11.289 483.89,29.95 64.54,9.332 117.78,20.492 155.08,33.07 18.65,6.293 33.31,12.922 43.5,20 10.12,7.043 16.12,14.73 16.17,23.371 l -0.06,689.84 -4.68,-8.39 c -4.56,-8.24 -14.78,-16.37 -29.79,-23.86 -52.55,-26.36 -162.28,-45.05 -285.37,-56.92 -123.14,-11.92 -259.83,-17.17 -367.09,-17.17 -3.66,0 -7.3,0 -10.89,0.02 -122.044,0.41 -281.321,5.66 -417.142,20.57 -67.902,7.45 -129.949,17.32 -178.464,30.17 -48.52,12.78 -83.481,28.85 -96.938,47.44 l -4.516,6.18 -0.222,-684.829 v 0.008 l 2.5,-0.02"
         style="fill:#231f20;fill-opacity:1;fill-rule:nonzero;stroke:none"
         transform="matrix(0.13333333,0,0,-0.13333333,0,228.29333)" />
      <path
         id="path4"
         d="m 360.242,697.852 h 2.5 c -0.027,6.148 4.137,12.726 13.121,19.457 15.641,11.746 45.141,23.148 85.614,33.332 121.507,30.652 342.05,51.207 593.803,51.199 191.82,0 365.49,-11.918 491.09,-31.164 62.79,-9.617 113.57,-21.082 148.48,-33.731 17.44,-6.312 30.92,-12.941 39.85,-19.636 8.98,-6.731 13.15,-13.309 13.12,-19.457 0.03,-6.161 -4.14,-12.731 -13.12,-19.461 -15.64,-11.75 -45.14,-23.153 -85.62,-33.34 -121.5,-30.653 -342.05,-51.199 -593.8,-51.192 -191.823,-0.007 -365.495,11.911 -491.089,31.161 -62.789,9.609 -113.574,21.082 -148.476,33.73 -17.445,6.309 -30.918,12.941 -39.852,19.641 -8.984,6.73 -13.148,13.3 -13.121,19.461 h -2.5 -2.5 c 0.031,-8.551 5.59,-16.332 15.125,-23.473 16.762,-12.508 46.598,-23.867 87.387,-34.18 122.297,-30.82 342.961,-51.34 595.026,-51.34 192.03,0 365.88,11.922 491.84,31.211 62.99,9.66 113.99,21.141 149.43,33.981 17.72,6.418 31.56,13.168 41.14,20.328 9.54,7.141 15.1,14.922 15.13,23.473 -0.03,8.546 -5.59,16.324 -15.13,23.461 -16.76,12.511 -46.59,23.871 -87.39,34.175 -122.29,30.828 -342.96,51.34 -595.02,51.352 -192.038,-0.004 -365.885,-11.926 -491.842,-31.223 -62.989,-9.652 -113.989,-21.137 -149.426,-33.969 -17.723,-6.425 -31.563,-13.168 -41.145,-20.335 -9.535,-7.137 -15.094,-14.915 -15.125,-23.461 h 2.5"
         style="fill:#231f20;fill-opacity:1;fill-rule:nonzero;stroke:none"
         transform="matrix(0.13333333,0,0,-0.13333333,0,228.29333)" />
      <path
         id="path5"
         d="m 1066.2,1278.75 c -0.01,0 -0.01,0 -0.02,0 -3.66,0 -7.3,0 -10.89,0.02 -122.044,0.41 -281.321,5.66 -417.142,20.57 -67.902,7.45 -129.949,17.32 -178.464,30.17 -48.52,12.78 -83.481,28.85 -96.938,47.44 l -1.633,2.23 c -0.258,1.19 -0.386,2.39 -0.386,3.58 0,58.81 311.175,106.49 695.043,106.49 383.84,0 695.03,-47.68 695.03,-106.49 0,-0.69 -0.05,-1.37 -0.13,-2.05 l -2.24,-4.01 c -4.56,-8.24 -14.78,-16.37 -29.79,-23.86 -52.55,-26.36 -162.28,-45.05 -285.37,-56.92 -123.13,-11.92 -259.82,-17.17 -367.07,-17.17"
         style="fill:#f2f1f1;fill-opacity:1;fill-rule:nonzero;stroke:none"
         transform="matrix(0.13333333,0,0,-0.13333333,0,228.29333)" />
      <path
         id="path6"
         d="m 1055.77,1276.27 c -376.063,0 -682.364,45.75 -694.657,102.91 l 1.633,-2.23 c 13.457,-18.59 48.418,-34.66 96.938,-47.44 48.515,-12.85 110.562,-22.72 178.464,-30.17 135.821,-14.91 295.098,-20.16 417.142,-20.57 3.59,-0.02 7.23,-0.02 10.89,-0.02 0.01,0 0.01,0 0.02,0 107.25,0 243.94,5.25 367.07,17.17 123.09,11.87 232.82,30.56 285.37,56.92 15.01,7.49 25.23,15.62 29.79,23.86 l 2.24,4.01 c -7.14,-57.87 -315.53,-104.44 -694.9,-104.44"
         style="fill:#848182;fill-opacity:1;fill-rule:nonzero;stroke:none"
         transform="matrix(0.13333333,0,0,-0.13333333,0,228.29333)" />
      <path
         id="path7"
         d="m 360.727,1382.76 h 2.5 c -0.032,6.15 4.136,12.73 13.121,19.46 15.64,11.75 45.136,23.15 85.613,33.33 121.508,30.65 342.051,51.21 593.809,51.2 191.81,0 365.48,-11.92 491.08,-31.16 62.78,-9.62 113.57,-21.08 148.47,-33.73 17.45,-6.31 30.92,-12.94 39.86,-19.64 8.98,-6.73 13.15,-13.31 13.12,-19.46 0.03,-6.15 -4.14,-12.73 -13.12,-19.46 -15.65,-11.75 -45.14,-23.15 -85.62,-33.34 -121.51,-30.65 -342.05,-51.2 -593.79,-51.19 -191.829,0 -365.497,11.91 -491.094,31.16 -62.789,9.62 -113.574,21.08 -148.477,33.73 -17.449,6.31 -30.922,12.94 -39.851,19.64 -8.985,6.73 -13.153,13.31 -13.121,19.46 h -2.5 -2.5 c 0.031,-8.55 5.589,-16.33 15.125,-23.46 16.761,-12.52 46.597,-23.88 87.386,-34.19 122.293,-30.82 342.961,-51.33 595.032,-51.34 192.03,0 365.87,11.92 491.83,31.21 62.99,9.66 113.99,21.15 149.43,33.98 17.72,6.42 31.56,13.17 41.14,20.34 9.54,7.13 15.09,14.91 15.13,23.46 -0.04,8.55 -5.59,16.33 -15.13,23.46 -16.76,12.52 -46.6,23.88 -87.39,34.18 -122.29,30.83 -342.96,51.34 -595.01,51.35 -192.043,0 -365.891,-11.92 -491.848,-31.22 -62.988,-9.65 -113.988,-21.14 -149.426,-33.97 -17.726,-6.42 -31.562,-13.17 -41.144,-20.34 -9.536,-7.13 -15.094,-14.91 -15.125,-23.46 h 2.5"
         style="fill:#231f20;fill-opacity:1;fill-rule:nonzero;stroke:none"
         transform="matrix(0.13333333,0,0,-0.13333333,0,228.29333)" />
      <path
         id="path8"
         d="m 1232.61,1383.64 c 0,-2.51 -0.96,-5.04 -3.1,-7.73 -7.41,-9.53 -29.4,-18.95 -60.14,-25.39 -30.76,-6.53 -70.33,-10.47 -113.49,-10.47 -49.31,-0.01 -93.962,5.15 -126.107,13.42 -16.066,4.12 -29.007,9.05 -37.734,14.37 -4.363,2.64 -7.66,5.39 -9.785,8.07 -2.133,2.69 -3.094,5.22 -3.098,7.73 0.004,2.51 0.965,5.04 3.098,7.74 7.414,9.53 29.402,18.95 60.144,25.39 30.758,6.53 70.332,10.48 113.482,10.47 55.48,0.01 105.07,-6.53 137.56,-16.66 l 1.49,4.77 c -33.25,10.36 -83.16,16.89 -139.05,16.89 -49.67,0 -94.63,-5.17 -127.353,-13.58 -16.367,-4.21 -29.675,-9.22 -39.086,-14.94 -4.707,-2.86 -8.453,-5.91 -11.101,-9.23 -2.641,-3.31 -4.188,-6.99 -4.184,-10.85 -0.004,-3.86 1.543,-7.54 4.184,-10.85 9.301,-11.47 31.801,-20.45 63.019,-27.16 31.204,-6.63 71.061,-10.58 114.521,-10.58 49.67,0 94.64,5.16 127.36,13.58 16.37,4.21 29.67,9.22 39.09,14.93 4.7,2.87 8.45,5.91 11.1,9.23 2.64,3.31 4.19,6.99 4.18,10.85 h -5"
         style="fill:#8b8889;fill-opacity:1;fill-rule:nonzero;stroke:none"
         transform="matrix(0.13333333,0,0,-0.13333333,0,228.29333)" />
      <path
         id="path9"
         d="m 1053.33,502.719 h 5 v 1065.91 h -5 z"
         style="fill:#231f20;fill-opacity:1;fill-rule:nonzero;stroke:none"
         transform="matrix(0.13333333,0,0,-0.13333333,0,228.29333)" />
      <path
         id="path10"
         d="m 1055.83,1559.66 -18.02,-10.96 -0.4,0.61 11.66,29.38 c 2.25,10.23 4.5,20.47 6.76,30.7 2.24,-10.23 4.5,-20.47 6.75,-30.7 l 11.66,-29.38 -0.3,-0.61 -18.11,10.96"
         style="fill:#231f20;fill-opacity:1;fill-rule:nonzero;stroke:none"
         transform="matrix(0.13333333,0,0,-0.13333333,0,228.29333)" />
      <path
         id="path11"
         d="m 1054.07,506.27 -395.285,-390.329 3.516,-3.562 395.279,390.332"
         style="fill:#231f20;fill-opacity:1;fill-rule:nonzero;stroke:none"
         transform="matrix(0.13333333,0,0,-0.13333333,0,228.29333)" />
      <path
         id="path12"
         d="m 666.93,120.469 20.453,-5.129 -0.153,-0.719 -29.101,-12.34 c -8.859,-5.5818 -17.723,-11.1794 -26.59,-16.7615 5.703,8.7813 11.399,17.5825 17.098,26.3715 l 12.707,28.949 0.652,0.211 4.934,-20.582"
         style="fill:#231f20;fill-opacity:1;fill-rule:nonzero;stroke:none"
         transform="matrix(0.13333333,0,0,-0.13333333,0,228.29333)" />
      <path
         id="path13"
         d="m 1054.53,503.172 h 1065.9 v 5 h -1065.9 z"
         style="fill:#231f20;fill-opacity:1;fill-rule:nonzero;stroke:none"
         transform="matrix(0.13333333,0,0,-0.13333333,0,228.29333)" />
      <path
         id="path14"
         d="m 2111.46,505.672 -10.96,18.019 0.62,0.399 29.37,-11.66 c 10.24,-2.258 20.47,-4.5 30.71,-6.758 -10.24,-2.25 -20.47,-4.5 -30.71,-6.762 l -29.37,-11.66 -0.62,0.309 10.96,18.113"
         style="fill:#231f20;fill-opacity:1;fill-rule:nonzero;stroke:none"
         transform="matrix(0.13333333,0,0,-0.13333333,0,228.29333)" />
      <g
         id="g14"
         aria-label="z&#10;x&#10;y&#10;r&#10;ϕ&#10;max"
         transform="matrix(1.3333333,0,0,1.3333333,138.308,9.9013333)">
        <path
           id="path15"
           d="m 3.7856016,-4.1711172 c -0.2226563,0.2460938 -0.3984375,0.3515625 -0.5507813,0.3515625 -0.1523437,0 -0.3046875,-0.011719 -0.7265625,-0.09375 -0.4335937,-0.070312 -0.703125,-0.1054687 -0.9492187,-0.1054687 -0.2226563,0 -0.4453125,0.1875 -0.65625004,0.5273437 -0.140625,0.234375 -0.24609375,0.4453125 -0.375,0.7265625 l 0.234375,0.1054688 C 1.0199766,-3.1164297 1.2309141,-3.4211172 1.6527891,-3.4211172 c 0.2226562,0 0.6210937,0.023437 0.8554687,0.058594 0.1992188,0.011719 0.3984375,0 0.5507813,-0.035156 -0.8320313,0.890625 -1.875,1.9101563 -2.49609379,2.57812501 -0.55078125,0.57421875 -0.48046875,0.83203125 -0.328125,0.90234375 0.046875,0.01171875 0.0703125,-0.0234375 0.10546875,-0.0820312475 0.0820313,-0.1171875025 0.1875,-0.2343750025 0.29296875,-0.3046875025 0.1171875,-0.0820313 0.26953125,-0.09375 0.55078129,0.046875 0.3984375,0.19921875 0.9140625,0.43359375 1.2070312,0.43359375 0.3867188,0 0.75,-0.26953125 1.2421875,-1.24218746 l -0.1992187,-0.164063 c -0.4101563,0.60937496 -0.6796875,0.76171871 -0.9257813,0.76171871 -0.2226562,0 -0.515625,-0.1171875 -0.8085937,-0.2109375 C 1.4301328,-0.79611719 1.1957578,-0.84299219 1.0199766,-0.83127344 1.6879453,-1.5343984 2.8715391,-2.7179922 3.4457578,-3.3742422 3.6918516,-3.6437734 3.8559141,-3.8312734 3.9731016,-3.9718984 Z M 114.75338,112.52127 c 0.3164,-0.39844 0.49218,-0.51563 0.57421,-0.51563 0.0937,0 0.17579,0.12891 0.30469,0.57422 l 0.30469,0.9375 c -0.5625,0.83203 -0.98438,1.35937 -1.24219,1.35937 -0.0937,0 -0.16406,-0.0352 -0.21094,-0.0937 -0.0469,-0.0586 -0.0937,-0.0937 -0.14062,-0.0937 -0.17578,0 -0.36328,0.21094 -0.36328,0.42188 -0.0117,0.25781 0.17578,0.43359 0.41015,0.43359 0.42188,0 0.84375,-0.43359 1.64063,-1.69922 l 0.28125,0.87891 c 0.17578,0.5625 0.36328,0.82031 0.59766,0.82031 0.30468,0 0.72656,-0.32812 1.13671,-0.97265 l -0.15234,-0.17578 c -0.28125,0.33984 -0.50391,0.51562 -0.64453,0.51562 -0.15234,0 -0.28125,-0.25781 -0.45703,-0.82031 l -0.29297,-0.90235 c 0.19922,-0.28125 0.39844,-0.52734 0.58594,-0.73828 0.23437,-0.29297 0.41015,-0.44531 0.53906,-0.44531 0.082,0 0.15234,0.0352 0.21094,0.10547 0.0469,0.0469 0.082,0.0703 0.1289,0.0703 0.14063,0 0.33985,-0.17578 0.35157,-0.39844 0,-0.19921 -0.14063,-0.38671 -0.375,-0.38671 -0.39844,0 -0.78516,0.38671 -1.53516,1.47656 l -0.15234,-0.49219 c -0.22266,-0.64453 -0.33985,-0.98437 -0.58594,-0.98437 -0.29297,0 -0.69141,0.38671 -1.06641,0.9375 z M -44.434125,159.8738 c -0.05859,-0.80859 -0.117187,-1.6289 -0.210937,-2.30859 -0.07031,-0.71484 -0.210938,-1.05469 -0.457032,-1.05469 -0.328125,0 -0.773437,0.51563 -1.066406,0.96094 l 0.152344,0.21094 c 0.222656,-0.31641 0.457031,-0.52735 0.527344,-0.52735 0.07031,0 0.117187,0.11719 0.1875,0.5625 0.128906,0.82032 0.269531,2.22657 0.28125,2.92969 -0.445313,0.59766 -1.160157,1.39453 -2.121094,2.01563 l 0.07031,0.19922 0.9375,-0.23438 c 0.503907,-0.5625 1.089844,-1.35937 1.617188,-2.12109 0.480469,-0.66797 1.242187,-1.86328 1.628906,-2.54297 0.234375,-0.39844 0.328125,-0.70313 0.316406,-0.96094 0,-0.29297 -0.152343,-0.49219 -0.351562,-0.49219 -0.152344,0 -0.316406,0.10547 -0.375,0.2461 -0.03516,0.0703 -0.04687,0.16406 -0.01172,0.22265 0.03516,0.10547 0.09375,0.2461 0.09375,0.42188 0.01172,0.65625 -0.820312,1.88672 -1.207031,2.47265 z M 35.282672,29.189234 c 0.269531,-0.246093 0.550781,-0.433593 0.632812,-0.433593 0.07031,0 0.07031,0.09375 0.02344,0.386718 -0.175781,0.960938 -0.421875,2.074219 -0.65625,3.035157 l 0.07031,0.07031 c 0.199219,-0.07031 0.433594,-0.128906 0.632813,-0.164062 0.117187,-0.585938 0.222656,-1.160157 0.363281,-1.757813 0.164063,-0.410156 0.445313,-0.832031 0.644531,-1.113281 0.199219,-0.292969 0.339844,-0.386719 0.457032,-0.386719 0.09375,0 0.199218,0.04687 0.304687,0.152344 0.04687,0.04687 0.117188,0.04687 0.199219,0 0.08203,-0.07031 0.164062,-0.152344 0.234375,-0.269531 0.07031,-0.117188 0.07031,-0.269532 0,-0.386719 -0.07031,-0.117188 -0.234375,-0.222656 -0.386719,-0.222656 -0.351562,0 -0.890625,0.609375 -1.347656,1.5 h -0.02344 l 0.09375,-0.457032 c 0.128907,-0.632812 0.117188,-1.042968 -0.105468,-1.042968 -0.246094,0 -0.796875,0.375 -1.253907,0.878906 z m -64.608399,-8.929687 -0.128906,-0.08203 -0.445312,0.351562 c -0.574219,2.601563 -0.972657,4.464844 -1.125,5.273438 -0.457032,-0.164063 -0.855469,-0.65625 -0.855469,-1.429688 0,-1.054687 0.503906,-1.617187 1.3125,-1.980469 l -0.117188,-0.269531 c -1.066406,0.375 -1.957031,1.136719 -1.957031,2.355469 0,0.925781 0.539063,1.664062 1.511719,1.851562 -0.08203,0.386719 -0.152344,0.773438 -0.234375,1.136719 -0.152344,0.726563 0.04687,1.03125 0.199219,1.089844 l 0.05859,-0.02344 c 0.140625,-0.667968 0.351563,-1.652343 0.480469,-2.203125 1.21875,-0.05859 2.332031,-0.996093 2.332031,-2.320312 0,-1.054688 -0.597656,-1.652344 -1.347656,-1.957031 -0.05859,-0.03516 -0.05859,-0.152344 0.01172,-0.433594 z m 0.410157,3.832031 c 0,1.042969 -0.574219,1.851563 -1.628907,1.816406 0.175782,-0.867187 0.632813,-2.964843 0.726563,-3.351562 0.351562,0.140625 0.902344,0.679687 0.902344,1.535156 z m 0,0"
           style="fill:#231f20;fill-opacity:1;fill-rule:nonzero;stroke:none" />
        <path
           id="path16"
           d="m -23.249555,28.245875 v -0.152344 c -0.351562,-0.03516 -0.398437,-0.05859 -0.398437,-0.46875 v -1.160156 c 0,-0.585938 -0.292969,-0.914063 -0.761719,-0.914063 -0.164062,0 -0.316406,0.07031 -0.445312,0.152344 -0.152344,0.09375 -0.328125,0.210938 -0.503907,0.339844 -0.117187,-0.316406 -0.375,-0.492188 -0.65625,-0.492188 -0.199218,0 -0.339843,0.07031 -0.492187,0.164063 -0.1875,0.117187 -0.316406,0.222656 -0.445313,0.304687 v -0.480468 c -0.257812,0.117187 -0.5625,0.1875 -0.832031,0.246093 v 0.128907 c 0.351563,0.05859 0.363281,0.09375 0.363281,0.46875 v 1.242187 c 0,0.398438 -0.04687,0.433594 -0.445312,0.46875 v 0.152344 h 1.265625 v -0.152344 c -0.292969,-0.03516 -0.339844,-0.07031 -0.339844,-0.46875 v -1.40625 c 0.175781,-0.152344 0.410156,-0.316406 0.644531,-0.316406 0.375,0 0.527344,0.246094 0.527344,0.691406 v 1.03125 c 0,0.398438 -0.05859,0.433594 -0.421875,0.46875 v 0.152344 h 1.277344 v -0.152344 c -0.328125,-0.03516 -0.386719,-0.07031 -0.386719,-0.457031 v -1.171875 c 0,-0.105469 0,-0.175781 -0.01172,-0.246094 0.222657,-0.1875 0.457032,-0.316406 0.667969,-0.316406 0.386719,0 0.527344,0.269531 0.527344,0.703125 v 0.996094 c 0,0.433593 -0.05859,0.457031 -0.421875,0.492187 v 0.152344 z m 2.715821,-0.234375 -0.05859,-0.152344 c -0.07031,0.03516 -0.152344,0.05859 -0.222656,0.05859 -0.105469,0 -0.210938,-0.08203 -0.210938,-0.351563 v -1.125 c 0,-0.304687 -0.05859,-0.550781 -0.269531,-0.726562 -0.128906,-0.105469 -0.304688,-0.164063 -0.492188,-0.164063 -0.339843,0.07031 -0.726562,0.304688 -0.902343,0.421875 -0.105469,0.08203 -0.1875,0.152344 -0.1875,0.234375 0,0.140625 0.152343,0.257813 0.269531,0.257813 0.08203,0 0.140625,-0.03516 0.164062,-0.128906 0.04687,-0.1875 0.105469,-0.316407 0.1875,-0.398438 0.05859,-0.07031 0.152344,-0.117187 0.269532,-0.117187 0.292968,0 0.503906,0.246093 0.503906,0.667968 v 0.117188 c -0.128906,0.105469 -0.574219,0.269531 -0.9375,0.386719 -0.328125,0.117187 -0.480469,0.304687 -0.480469,0.597656 0,0.375 0.292969,0.726562 0.714844,0.726562 0.1875,0 0.46875,-0.222656 0.714844,-0.386718 0.02344,0.105468 0.05859,0.1875 0.140625,0.269531 0.07031,0.07031 0.1875,0.117187 0.28125,0.117187 z m -0.949219,-0.269531 c -0.117188,0.105468 -0.328125,0.210937 -0.480469,0.210937 -0.1875,0 -0.433594,-0.140625 -0.433594,-0.457031 0,-0.210938 0.140625,-0.328125 0.375,-0.433594 0.117188,-0.05859 0.410157,-0.1875 0.539063,-0.257812 z m 3.829101,0.503906 v -0.152344 c -0.363281,-0.04687 -0.433593,-0.105469 -0.65625,-0.445312 l -0.585937,-0.890625 c 0.199219,-0.292969 0.339844,-0.503907 0.46875,-0.65625 0.210937,-0.257813 0.292969,-0.28125 0.65625,-0.328125 v -0.152344 h -1.089844 v 0.152344 c 0.257813,0.03516 0.292969,0.05859 0.1875,0.257812 -0.105469,0.1875 -0.222656,0.375 -0.351562,0.550781 l -0.351563,-0.550781 c -0.105469,-0.164062 -0.08203,-0.222656 0.175781,-0.257812 v -0.152344 h -1.207031 v 0.152344 c 0.328125,0.04687 0.410156,0.09375 0.585938,0.386718 l 0.527343,0.808594 c -0.175781,0.269531 -0.339843,0.515625 -0.503906,0.726563 -0.246094,0.292968 -0.304687,0.351562 -0.679687,0.398437 v 0.152344 h 1.125 v -0.152344 c -0.316407,-0.04687 -0.328125,-0.105469 -0.210938,-0.304687 0.117188,-0.222657 0.246094,-0.445313 0.386719,-0.644532 l 0.445312,0.703125 c 0.09375,0.164063 0.04687,0.210938 -0.210937,0.246094 v 0.152344 z m 0,0"
           style="fill:#231f20;fill-opacity:1;fill-rule:nonzero;stroke:none" />
      </g>
      <path
         id="path17"
         d="m 1055.88,1381.68 399.15,85.75 -1.05,4.89 -399.15,-85.76"
         style="fill:#231f20;fill-opacity:1;fill-rule:nonzero;stroke:none"
         transform="matrix(0.13333333,0,0,-0.13333333,0,228.29333)" />
      <path
         id="path18"
         d="m 1056.12,1381.62 h 694.488 v 5 H 1056.12 Z"
         style="fill:#231f20;fill-opacity:1;fill-rule:nonzero;stroke:none"
         transform="matrix(0.13333333,0,0,-0.13333333,0,228.29333)" />
      <path
         id="path19"
         d="m 164.254,696.371 h 172.445 v 5 H 164.254 Z"
         style="fill:#231f20;fill-opacity:1;fill-rule:nonzero;stroke:none"
         transform="matrix(0.13333333,0,0,-0.13333333,0,228.29333)" />
      <path
         id="path20"
         d="m 164.254,1380.52 h 172.445 v 5 H 164.254 Z"
         style="fill:#231f20;fill-opacity:1;fill-rule:nonzero;stroke:none"
         transform="matrix(0.13333333,0,0,-0.13333333,0,228.29333)" />
      <g
         id="g20"
         aria-label="z&#10;max&#10;z&#10;min"
         transform="matrix(1.3333333,0,0,1.3333333,0,46.098667)">
        <path
           id="path21"
           d="M 3.7851563,-4.1726328 C 3.5625,-3.9265391 3.3867188,-3.8210703 3.234375,-3.8210703 c -0.1523437,0 -0.3046875,-0.011719 -0.7265625,-0.09375 -0.4335937,-0.070312 -0.703125,-0.1054688 -0.9492188,-0.1054688 -0.2226562,0 -0.4453125,0.1875 -0.65624995,0.5273438 -0.140625,0.234375 -0.24609375,0.4453125 -0.375,0.7265625 l 0.234375,0.1054687 C 1.0195312,-3.1179453 1.2304687,-3.4226328 1.6523437,-3.4226328 c 0.2226563,0 0.6210938,0.023437 0.8554688,0.058594 0.1992188,0.011719 0.3984375,0 0.5507813,-0.035156 C 2.2265625,-2.5085703 1.1835937,-1.4890391 0.5625,-0.82107031 0.01171875,-0.24685156 0.08203125,0.01096094 0.234375,0.08127344 0.28125,0.09299219 0.3046875,0.05783594 0.33984375,-7.578125e-4 0.421875,-0.11794531 0.52734375,-0.23513281 0.6328125,-0.30544531 c 0.1171875,-0.0820313 0.26953125,-0.09375 0.5507812,0.046875 0.3984375,0.19921875 0.9140626,0.43359375 1.2070313,0.43359375 0.3867188,0 0.75,-0.26953125 1.2421875,-1.24218754 L 3.4335938,-1.2312266 c -0.4101563,0.60937504 -0.6796875,0.76171879 -0.9257813,0.76171879 -0.2226562,0 -0.515625,-0.1171875 -0.8085938,-0.2109375 C 1.4296875,-0.79763281 1.1953125,-0.84450781 1.0195312,-0.83278906 1.6875,-1.5359141 2.8710938,-2.7195078 3.4453125,-3.3757578 3.6914063,-3.6452891 3.8554688,-3.8327891 3.9726563,-3.9734141 Z m 0,0"
           style="fill:#231f20;fill-opacity:1;fill-rule:nonzero;stroke:none" />
        <path
           id="path22"
           d="M 8.5429688,2.0002187 V 1.847875 C 8.1914063,1.8127187 8.1445313,1.7892812 8.1445313,1.379125 V 0.21896875 c 0,-0.5859375 -0.2929688,-0.9140625 -0.7617188,-0.9140625 -0.1640625,0 -0.3164063,0.0703125 -0.4453125,0.15234375 -0.1523438,0.09375 -0.328125,0.2109375 -0.5039063,0.33984375 -0.1171875,-0.31640625 -0.375,-0.4921875 -0.65625,-0.4921875 -0.1992187,0 -0.3398437,0.0703125 -0.4921875,0.1640625 -0.1875,0.1171875 -0.3164062,0.22265625 -0.4453125,0.3046875 V -0.7068125 c -0.2578125,0.1171875 -0.5625,0.1875 -0.8320312,0.24609375 v 0.12890625 c 0.3515625,0.0585938 0.3632812,0.09375 0.3632812,0.46875 V 1.379125 c 0,0.3984375 -0.046875,0.4335937 -0.4453124,0.46875 V 2.0002187 H 5.1914062 V 1.847875 C 4.8984375,1.8127187 4.8515625,1.7775625 4.8515625,1.379125 v -1.40625 c 0.1757812,-0.15234375 0.4101562,-0.31640625 0.6445312,-0.31640625 0.375,0 0.5273438,0.24609375 0.5273438,0.69140625 v 1.03125 c 0,0.3984375 -0.058594,0.4335937 -0.421875,0.46875 V 2.0002187 H 6.8789062 V 1.847875 C 6.5507812,1.8127187 6.4921875,1.7775625 6.4921875,1.3908437 V 0.21896875 c 0,-0.10546875 0,-0.17578125 -0.011719,-0.24609375 0.2226563,-0.1875 0.4570313,-0.31640625 0.6679688,-0.31640625 0.3867187,0 0.5273437,0.26953125 0.5273437,0.703125 V 1.3556875 c 0,0.4335937 -0.058594,0.4570312 -0.421875,0.4921875 V 2.0002187 Z M 11.258789,1.7658437 11.200195,1.6135 c -0.07031,0.035156 -0.152343,0.058594 -0.222656,0.058594 -0.105469,0 -0.210937,-0.082031 -0.210937,-0.3515625 V 0.19553125 c 0,-0.3046875 -0.05859,-0.55078125 -0.269532,-0.7265625 -0.128906,-0.10546875 -0.304687,-0.1640625 -0.492187,-0.1640625 -0.3398439,0.0703125 -0.7265627,0.3046875 -0.9023439,0.421875 -0.1054688,0.0820313 -0.1875,0.15234375 -0.1875,0.234375 0,0.140625 0.1523437,0.2578125 0.2695312,0.2578125 0.082031,0 0.140625,-0.0351563 0.1640625,-0.12890625 0.046875,-0.1875 0.1054688,-0.31640625 0.1875,-0.3984375 0.058594,-0.0703125 0.1523438,-0.1171875 0.2695313,-0.1171875 0.2929689,0 0.5039059,0.24609375 0.5039059,0.66796875 v 0.1171875 C 10.180664,0.4650625 9.7353516,0.629125 9.3720703,0.7463125 9.0439453,0.8635 8.8916016,1.051 8.8916016,1.3439687 c 0,0.375 0.2929687,0.7265625 0.7148437,0.7265625 0.1875,0 0.4687497,-0.2226562 0.7148437,-0.3867187 0.02344,0.1054687 0.05859,0.1875 0.140625,0.2695312 0.07031,0.070312 0.1875,0.1171875 0.28125,0.1171875 z M 10.30957,1.4963125 C 10.192383,1.6017812 9.9814453,1.70725 9.8291016,1.70725 c -0.1875,0 -0.4335938,-0.140625 -0.4335938,-0.4570313 0,-0.2109375 0.140625,-0.32812495 0.375,-0.4335937 0.1171875,-0.0585938 0.4101562,-0.1875 0.5390622,-0.2578125 z m 3.829102,0.5039062 V 1.847875 C 13.775391,1.801 13.705078,1.7424062 13.482422,1.4025625 l -0.585938,-0.890625 c 0.199219,-0.29296875 0.339844,-0.50390625 0.46875,-0.65625 0.210938,-0.2578125 0.292969,-0.28125 0.65625,-0.328125 v -0.15234375 h -1.089843 v 0.15234375 c 0.257812,0.0351563 0.292968,0.0585938 0.1875,0.2578125 -0.105469,0.1875 -0.222657,0.375 -0.351563,0.55078125 L 12.416016,-0.214625 c -0.105469,-0.1640625 -0.08203,-0.22265625 0.175781,-0.2578125 v -0.15234375 h -1.207031 v 0.15234375 c 0.328125,0.046875 0.410156,0.09375 0.585937,0.38671875 L 12.498047,0.722875 C 12.322266,0.99240625 12.158203,1.2385 11.994141,1.4494375 11.748047,1.7424062 11.689453,1.801 11.314453,1.847875 v 0.1523437 h 1.125 V 1.847875 C 12.123047,1.801 12.111328,1.7424062 12.228516,1.5431875 12.345703,1.3205312 12.474609,1.097875 12.615234,0.89865625 l 0.445313,0.70312495 c 0.09375,0.1640625 0.04687,0.2109375 -0.210938,0.2460938 v 0.1523437 z m 0,0"
           style="fill:#231f20;fill-opacity:1;fill-rule:nonzero;stroke:none" />
        <path
           id="path23"
           d="m 5.0595703,64.80393 c -0.2226562,0.246093 -0.3984375,0.351562 -0.5507812,0.351562 -0.1523438,0 -0.3046875,-0.01172 -0.7265625,-0.09375 -0.4335938,-0.07031 -0.703125,-0.105469 -0.9492188,-0.105469 -0.2226562,0 -0.4453125,0.1875 -0.65625,0.527344 -0.140625,0.234375 -0.2460937,0.445313 -0.375,0.726563 l 0.234375,0.105468 c 0.2578125,-0.457031 0.46875,-0.761718 0.890625,-0.761718 0.2226563,0 0.6210938,0.02344 0.8554688,0.05859 0.1992187,0.01172 0.3984375,0 0.5507812,-0.03516 -0.8320312,0.890625 -1.875,1.910156 -2.4960937,2.578125 -0.5507813,0.574219 -0.4804688,0.832031 -0.328125,0.902344 0.046875,0.01172 0.070312,-0.02344 0.1054687,-0.08203 0.082031,-0.117188 0.1875,-0.234375 0.2929688,-0.304688 0.1171875,-0.08203 0.2695312,-0.09375 0.5507812,0.04687 0.3984375,0.199219 0.9140625,0.433594 1.2070313,0.433594 0.3867187,0 0.75,-0.269531 1.2421875,-1.242188 L 4.7080078,67.745336 c -0.4101562,0.609375 -0.6796875,0.761719 -0.9257812,0.761719 -0.2226563,0 -0.515625,-0.117188 -0.8085938,-0.210938 C 2.7041016,68.17893 2.4697266,68.132055 2.2939453,68.143773 2.9619141,67.440648 4.1455078,66.257055 4.7197266,65.600805 4.9658203,65.331273 5.1298828,65.143773 5.2470703,65.003148 Z m 0,0"
           style="fill:#231f20;fill-opacity:1;fill-rule:nonzero;stroke:none" />
        <path
           id="path24"
           d="m 9.8173828,70.973852 v -0.152344 c -0.3515625,-0.03516 -0.3984375,-0.05859 -0.3984375,-0.46875 v -1.160156 c 0,-0.585938 -0.2929687,-0.914063 -0.7617187,-0.914063 -0.1640625,0 -0.3164063,0.07031 -0.4453125,0.152344 -0.1523438,0.09375 -0.328125,0.210937 -0.5039063,0.339844 -0.1171875,-0.316407 -0.375,-0.492188 -0.65625,-0.492188 -0.1992187,0 -0.3398437,0.07031 -0.4921875,0.164063 -0.1875,0.117187 -0.3164062,0.222656 -0.4453125,0.304687 V 68.26682 c -0.2578125,0.117188 -0.5625,0.1875 -0.8320312,0.246094 v 0.128906 c 0.3515625,0.05859 0.3632812,0.09375 0.3632812,0.46875 v 1.242188 c 0,0.398437 -0.046875,0.433594 -0.4453125,0.46875 v 0.152344 h 1.265625 v -0.152344 c -0.2929687,-0.03516 -0.3398437,-0.07031 -0.3398437,-0.46875 v -1.40625 c 0.1757812,-0.152344 0.4101562,-0.316406 0.6445312,-0.316406 0.375,0 0.5273438,0.246093 0.5273438,0.691406 v 1.03125 c 0,0.398437 -0.058594,0.433594 -0.421875,0.46875 v 0.152344 h 1.2773437 v -0.152344 c -0.328125,-0.03516 -0.3867187,-0.07031 -0.3867187,-0.457031 v -1.171875 c 0,-0.105469 0,-0.175782 -0.011719,-0.246094 0.2226563,-0.1875 0.4570313,-0.316406 0.6679688,-0.316406 0.3867187,0 0.5273437,0.269531 0.5273437,0.703125 v 0.996093 c 0,0.433594 -0.058594,0.457032 -0.421875,0.492188 v 0.152344 z m 0.9404302,-3.210938 c 0.175781,0 0.304687,-0.152344 0.304687,-0.316406 0,-0.175781 -0.128906,-0.304688 -0.292969,-0.304688 -0.164062,0 -0.304687,0.128907 -0.304687,0.304688 0,0.164062 0.140625,0.316406 0.292969,0.316406 z m 0.703125,3.210938 v -0.152344 c -0.386719,-0.03516 -0.421875,-0.07031 -0.421875,-0.480469 V 68.26682 c -0.269532,0.105469 -0.550782,0.1875 -0.855469,0.234375 v 0.140625 c 0.363281,0.05859 0.375,0.09375 0.375,0.457032 v 1.242187 c 0,0.410156 -0.03516,0.445313 -0.421875,0.480469 v 0.152344 z m 3.237304,0 v -0.152344 c -0.351562,-0.03516 -0.375,-0.05859 -0.375,-0.46875 v -1.160156 c 0,-0.585938 -0.304687,-0.914063 -0.785156,-0.914063 -0.164063,0 -0.328125,0.07031 -0.492188,0.175781 -0.152343,0.105469 -0.28125,0.199219 -0.398437,0.292969 V 68.26682 c -0.269531,0.117188 -0.550781,0.1875 -0.832031,0.246094 v 0.128906 c 0.316406,0.05859 0.351562,0.08203 0.351562,0.46875 v 1.242188 c 0,0.398437 -0.02344,0.421875 -0.433594,0.46875 v 0.152344 h 1.300782 v -0.152344 c -0.351563,-0.03516 -0.386719,-0.05859 -0.386719,-0.46875 v -1.417969 c 0.175781,-0.152344 0.410156,-0.304687 0.644531,-0.304687 0.410156,0 0.550781,0.269531 0.550781,0.691406 v 0.996094 c 0,0.421875 -0.04687,0.46875 -0.398437,0.503906 v 0.152344 z m 0,0"
           style="fill:#231f20;fill-opacity:1;fill-rule:nonzero;stroke:none" />
      </g>
    </g>
  </g>
</svg>
