<?xml version="1.0" encoding="UTF-8" standalone="no"?>
<!-- Created with Inkscape (http://www.inkscape.org/) -->

<svg
   version="1.1"
   id="svg1"
   width="275.25333"
   height="100.74667"
   viewBox="0 0 275.25333 100.74667"
   sodipodi:docname="pha06f05.eps"
   xmlns:inkscape="http://www.inkscape.org/namespaces/inkscape"
   xmlns:sodipodi="http://sodipodi.sourceforge.net/DTD/sodipodi-0.dtd"
   xmlns="http://www.w3.org/2000/svg"
   xmlns:svg="http://www.w3.org/2000/svg">
  <defs
     id="defs1">
    <linearGradient
       x1="0"
       y1="0"
       x2="1"
       y2="0"
       gradientUnits="userSpaceOnUse"
       gradientTransform="matrix(4.69572,-1513.99,-1513.99,-4.69572,833.013,1111.38)"
       spreadMethod="pad"
       id="linearGradient4">
      <stop
         style="stop-opacity:1;stop-color:#ffffff"
         offset="0"
         id="stop2" />
      <stop
         style="stop-opacity:1;stop-color:#ffffff"
         offset="0.57784532"
         id="stop3" />
      <stop
         style="stop-opacity:1;stop-color:#231f20"
         offset="1"
         id="stop4" />
    </linearGradient>
    <clipPath
       clipPathUnits="userSpaceOnUse"
       id="clipPath4">
      <path
         d="M 1591.35,14.6953 80.3477,377.809 1577.86,737.098 C 1423.6,690.449 1311.3,547.246 1311.3,377.801 c 0,-174.305 118.9,-320.9026 280.05,-363.1057 z"
         transform="translate(0,2.5000001e-5)"
         id="path4" />
    </clipPath>
  </defs>
  <sodipodi:namedview
     id="namedview1"
     pagecolor="#ffffff"
     bordercolor="#000000"
     borderopacity="0.25"
     inkscape:showpageshadow="2"
     inkscape:pageopacity="0.0"
     inkscape:pagecheckerboard="0"
     inkscape:deskcolor="#d1d1d1">
    <inkscape:page
       x="0"
       y="0"
       inkscape:label="1"
       id="page1"
       width="275.25333"
       height="100.74667"
       margin="0"
       bleed="0" />
  </sodipodi:namedview>
  <g
     id="g1"
     inkscape:groupmode="layer"
     inkscape:label="1">
    <g
       id="group-R5">
      <path
         id="path2"
         d="M 1591.35,14.6953 80.3477,377.809 1577.86,737.098 C 1423.6,690.449 1311.3,547.246 1311.3,377.801 c 0,-174.305 118.9,-320.9026 280.05,-363.1057"
         style="fill:url(#linearGradient4);fill-opacity:1;fill-rule:nonzero;stroke:none"
         transform="matrix(0.13333333,0,0,-0.13333333,0,100.74667)"
         clip-path="url(#clipPath4)" />
      <path
         id="path5"
         d="M 1591.35,14.6953 80.3477,377.809 1577.86,737.098 C 1423.6,690.449 1311.3,547.246 1311.3,377.801 c 0,-174.305 118.9,-320.9026 280.05,-363.1057 z"
         style="fill:none;stroke:#231f20;stroke-width:5;stroke-linecap:butt;stroke-linejoin:round;stroke-miterlimit:10;stroke-dasharray:none;stroke-opacity:1"
         transform="matrix(0.13333333,0,0,-0.13333333,0,100.74667)" />
      <path
         id="path6"
         d="M 2061.95,377.809 C 2061.95,170.527 1893.91,2.5 1686.65,2.5 c -207.29,0 -375.32,168.027 -375.32,375.309 0,207.281 168.03,375.304 375.32,375.304 207.26,0 375.3,-168.023 375.3,-375.304 z"
         style="fill:none;stroke:#231f20;stroke-width:5;stroke-linecap:butt;stroke-linejoin:miter;stroke-miterlimit:10;stroke-dasharray:none;stroke-opacity:1"
         transform="matrix(0.13333333,0,0,-0.13333333,0,100.74667)" />
      <path
         id="path7"
         d="m 66.0977,375.898 c 0,6.211 5.039,11.25 11.25,11.25 6.2226,0 11.25,-5.039 11.25,-11.25 0,-6.21 -5.0274,-11.25 -11.25,-11.25 -6.211,0 -11.25,5.04 -11.25,11.25"
         style="fill:#231f20;fill-opacity:1;fill-rule:nonzero;stroke:none"
         transform="matrix(0.13333333,0,0,-0.13333333,0,100.74667)" />
      <path
         id="path8"
         d="m 66.0977,375.898 c 0,6.211 5.039,11.25 11.25,11.25 6.2226,0 11.25,-5.039 11.25,-11.25 0,-6.21 -5.0274,-11.25 -11.25,-11.25 -6.211,0 -11.25,5.04 -11.25,11.25 z"
         style="fill:none;stroke:#231f20;stroke-width:5;stroke-linecap:butt;stroke-linejoin:miter;stroke-miterlimit:10;stroke-dasharray:none;stroke-opacity:1"
         transform="matrix(0.13333333,0,0,-0.13333333,0,100.74667)" />
      <path
         id="path9"
         d="m 1675.4,377.809 c 0,6.214 5.02,11.25 11.25,11.25 6.21,0 11.25,-5.036 11.25,-11.25 0,-6.215 -5.04,-11.25 -11.25,-11.25 -6.23,0 -11.25,5.035 -11.25,11.25"
         style="fill:#231f20;fill-opacity:1;fill-rule:nonzero;stroke:none"
         transform="matrix(0.13333333,0,0,-0.13333333,0,100.74667)" />
      <path
         id="path10"
         d="m 1675.4,377.809 c 0,6.214 5.02,11.25 11.25,11.25 6.21,0 11.25,-5.036 11.25,-11.25 0,-6.215 -5.04,-11.25 -11.25,-11.25 -6.23,0 -11.25,5.035 -11.25,11.25 z"
         style="fill:none;stroke:#231f20;stroke-width:5;stroke-linecap:butt;stroke-linejoin:miter;stroke-miterlimit:10;stroke-dasharray:none;stroke-opacity:1"
         transform="matrix(0.13333333,0,0,-0.13333333,0,100.74667)" />
      <path
         id="path11"
         d="M 1686.65,377.809 1602.06,9.80078"
         style="fill:none;stroke:#231f20;stroke-width:5;stroke-linecap:butt;stroke-linejoin:miter;stroke-miterlimit:10;stroke-dasharray:none;stroke-opacity:1"
         transform="matrix(0.13333333,0,0,-0.13333333,0,100.74667)" />
      <g
         id="g11"
         aria-label="r&#10;p"
         transform="matrix(1.3333333,0,0,1.3333333,213.608,73.136267)">
        <path
           id="path12"
           d="M 0.56353125,-2.9527859 C 0.8330625,-3.1988797 1.1143125,-3.3863797 1.1963438,-3.3863797 c 0.070312,0 0.070312,0.09375 0.023437,0.3867188 C 1.044,-2.0387234 0.79790625,-0.92544219 0.56353125,0.03549531 l 0.0703125,0.0703125 C 0.8330625,0.03549531 1.0674375,-0.02309844 1.2666563,-0.05825469 1.3838438,-0.64419219 1.4893125,-1.2184109 1.6299375,-1.8160672 1.794,-2.2262234 2.07525,-2.6480984 2.2744688,-2.9293484 2.4736875,-3.2223172 2.6143125,-3.3160672 2.7315,-3.3160672 c 0.09375,0 0.1992188,0.046875 0.3046875,0.1523438 0.046875,0.046875 0.1171875,0.046875 0.1992188,0 0.082031,-0.070312 0.1640625,-0.1523438 0.234375,-0.2695313 0.070312,-0.1171875 0.070312,-0.2695312 0,-0.3867187 -0.070312,-0.1171875 -0.234375,-0.2226563 -0.3867188,-0.2226563 -0.3515625,0 -0.890625,0.609375 -1.3476562,1.5 h -0.023437 l 0.09375,-0.4570312 C 1.934625,-3.6324734 1.9229063,-4.0426297 1.70025,-4.0426297 c -0.2460937,0 -0.796875,0.375 -1.25390625,0.8789063 z m 0,0"
           style="fill:#231f20;fill-opacity:1;fill-rule:nonzero;stroke:none" />
        <path
           id="path13"
           d="m -158.68256,-17.935208 v -0.714844 c -0.42188,0.175782 -0.92578,0.328125 -1.3125,0.398438 v 0.210937 c 0.5625,0.07031 0.59765,0.09375 0.59765,0.679688 v 4.066406 c 0,0.585938 -0.082,0.644531 -0.65625,0.703125 v 0.234375 h 2.13282 v -0.234375 c -0.70313,-0.07031 -0.76172,-0.117187 -0.76172,-0.796875 v -1.183594 c 0.11719,0.07031 0.36328,0.152344 0.62109,0.164063 1.17188,-0.210938 2.23828,-1.089844 2.23828,-2.449219 0,-0.890625 -0.59765,-1.699219 -1.59375,-1.699219 -0.10547,0 -0.28125,0.04687 -0.44531,0.140625 z m 0,0.304688 c 0.24609,-0.1875 0.60937,-0.386719 0.90234,-0.386719 0.65625,0 1.20703,0.539062 1.20703,1.511719 0,1.007812 -0.51562,1.664062 -1.26562,1.664062 -0.30469,0 -0.64453,-0.152344 -0.84375,-0.351562 z m 0,0"
           style="fill:#231f20;fill-opacity:1;fill-rule:nonzero;stroke:none" />
      </g>
      <path
         id="path14"
         d="m 1140.92,377.809 h 548.71"
         style="fill:none;stroke:#231f20;stroke-width:5;stroke-linecap:butt;stroke-linejoin:miter;stroke-miterlimit:10;stroke-dasharray:none;stroke-opacity:1"
         transform="matrix(0.13333333,0,0,-0.13333333,0,100.74667)" />
      <path
         id="path15"
         d="M 80.3477,377.809 H 1100.16"
         style="fill:none;stroke:#231f20;stroke-width:5;stroke-linecap:butt;stroke-linejoin:miter;stroke-miterlimit:10;stroke-dasharray:none;stroke-opacity:1"
         transform="matrix(0.13333333,0,0,-0.13333333,0,100.74667)" />
      <path
         id="path16"
         d="m 1091.19,377.809 -10.96,18.011 0.61,0.41 29.38,-11.671 c 10.23,-2.246 20.47,-4.5 30.7,-6.75 -10.23,-2.254 -20.47,-4.504 -30.7,-6.754 l -29.38,-11.668 -0.61,0.304 10.96,18.118"
         style="fill:#231f20;fill-opacity:1;fill-rule:nonzero;stroke:none"
         transform="matrix(0.13333333,0,0,-0.13333333,0,100.74667)" />
      <path
         id="path17"
         d="M 858.598,377.258 C 858.441,317.285 851.344,256.387 836.684,195.535"
         style="fill:none;stroke:#231f20;stroke-width:5;stroke-linecap:butt;stroke-linejoin:miter;stroke-miterlimit:10;stroke-dasharray:none;stroke-opacity:1"
         transform="matrix(0.13333333,0,0,-0.13333333,0,100.74667)" />
      <g
         id="g17"
         aria-label="θ&#10;max"
         transform="matrix(1.3333333,0,0,1.3333333,115.7812,68.566933)">
        <path
           id="path18"
           d="m 3.1406625,-6.4105516 c -1.59375,0 -2.61328125,2.671875 -2.61328125,4.5585938 0,0.93749999 0.2578125,1.95703124 1.26562505,1.95703124 1.6171875,0 2.5664062,-2.69531254 2.5664062,-4.61718754 0,-0.9726562 -0.2578125,-1.8984375 -1.21875,-1.8984375 z m -1.6992187,2.9179688 c 0.2695312,-1.3476563 0.84375,-2.6132813 1.5703125,-2.6132813 0.5859375,0 0.6445312,0.890625 0.6445312,1.3710938 0,0.4101562 -0.058594,0.796875 -0.1054687,1.2421875 z m 2.0390625,0.421875 c -0.2460938,1.4296875 -0.8203125,2.85937499 -1.5703125,2.85937499 -0.5273438,0 -0.6679688,-0.7734375 -0.6679688,-1.47656249 0,-0.46875 0.058594,-0.9257813 0.1289063,-1.3828125 z m 0,0"
           style="fill:#231f20;fill-opacity:1;fill-rule:nonzero;stroke:none" />
        <path
           id="path19"
           d="M 9.2988656,2.0005812 V 1.8482375 C 8.9473031,1.8130812 8.9004281,1.7896437 8.9004281,1.3794875 V 0.21933125 c 0,-0.5859375 -0.2929687,-0.9140625 -0.7617187,-0.9140625 -0.1640625,0 -0.3164063,0.0703125 -0.4453125,0.15234375 -0.1523438,0.09375 -0.328125,0.2109375 -0.5039063,0.33984375 -0.1171875,-0.31640625 -0.375,-0.4921875 -0.65625,-0.4921875 -0.1992187,0 -0.3398437,0.0703125 -0.4921875,0.1640625 -0.1875,0.1171875 -0.3164062,0.22265625 -0.4453125,0.3046875 V -0.70645 c -0.2578125,0.1171875 -0.5625,0.1875 -0.8320312,0.24609375 V -0.33145 c 0.3515625,0.0585938 0.3632812,0.09375 0.3632812,0.46875 v 1.2421875 c 0,0.3984375 -0.046875,0.4335937 -0.4453125,0.46875 v 0.1523437 h 1.265625 V 1.8482375 C 5.6543344,1.8130812 5.6074594,1.777925 5.6074594,1.3794875 v -1.40625 c 0.1757812,-0.15234375 0.4101562,-0.31640625 0.6445312,-0.31640625 0.375,0 0.5273438,0.24609375 0.5273438,0.69140625 v 1.03125 c 0,0.3984375 -0.058594,0.4335937 -0.421875,0.46875 V 2.0005812 H 7.6348031 V 1.8482375 C 7.3066781,1.8130812 7.2480844,1.777925 7.2480844,1.3912062 V 0.21933125 c 0,-0.10546875 0,-0.17578125 -0.011719,-0.24609375 0.2226563,-0.1875 0.4570313,-0.31640625 0.6679688,-0.31640625 0.3867187,0 0.5273437,0.26953125 0.5273437,0.703125 V 1.35605 c 0,0.4335937 -0.058594,0.4570312 -0.421875,0.4921875 v 0.1523437 z m 2.8564454,-0.234375 -0.05859,-0.1523437 c -0.07031,0.035156 -0.152344,0.058594 -0.222656,0.058594 -0.105469,0 -0.210938,-0.082031 -0.210938,-0.3515625 V 0.19589375 c 0,-0.3046875 -0.05859,-0.55078125 -0.269531,-0.7265625 -0.128906,-0.10546875 -0.304687,-0.1640625 -0.492187,-0.1640625 -0.339844,0.0703125 -0.726563,0.3046875 -0.9023441,0.421875 -0.1054687,0.0820313 -0.1875,0.15234375 -0.1875,0.234375 0,0.140625 0.1523438,0.2578125 0.2695311,0.2578125 0.08203,0 0.140625,-0.0351563 0.164063,-0.12890625 0.04687,-0.1875 0.105468,-0.31640625 0.1875,-0.3984375 0.05859,-0.0703125 0.152343,-0.1171875 0.269531,-0.1171875 0.292969,0 0.503906,0.24609375 0.503906,0.66796875 v 0.1171875 C 11.077186,0.465425 10.631873,0.6294875 10.268592,0.746675 9.9404672,0.8638625 9.7881234,1.0513625 9.7881234,1.3443312 c 0,0.375 0.2929686,0.7265625 0.7148436,0.7265625 0.1875,0 0.46875,-0.2226562 0.714844,-0.3867187 0.02344,0.1054687 0.05859,0.1875 0.140625,0.2695312 0.07031,0.070312 0.1875,0.1171875 0.28125,0.1171875 z M 11.206092,1.496675 c -0.117187,0.1054687 -0.328125,0.2109375 -0.480469,0.2109375 -0.1875,0 -0.433593,-0.140625 -0.433593,-0.4570313 0,-0.2109375 0.140625,-0.32812495 0.375,-0.4335937 0.117187,-0.0585938 0.410156,-0.1875 0.539062,-0.2578125 z M 15.35453,2.0005812 V 1.8482375 C 14.991248,1.8013625 14.920936,1.7427687 14.69828,1.402925 L 14.112342,0.5123 c 0.199219,-0.29296875 0.339844,-0.50390625 0.46875,-0.65625 0.210938,-0.2578125 0.292969,-0.28125 0.65625,-0.328125 V -0.62441875 H 14.147498 V -0.472075 c 0.257813,0.0351563 0.292969,0.0585938 0.1875,0.2578125 -0.105468,0.1875 -0.222656,0.375 -0.351562,0.55078125 L 13.631873,-0.2142625 C 13.526405,-0.378325 13.549842,-0.43691875 13.807655,-0.472075 V -0.62441875 H 12.600623 V -0.472075 c 0.328125,0.046875 0.410157,0.09375 0.585938,0.38671875 L 13.713905,0.7232375 C 13.538123,0.99276875 13.374061,1.2388625 13.209998,1.4498 12.963905,1.7427687 12.905311,1.8013625 12.530311,1.8482375 v 0.1523437 h 1.125 V 1.8482375 C 13.338905,1.8013625 13.327186,1.7427687 13.444373,1.54355 13.561561,1.3208937 13.690467,1.0982375 13.831092,0.89901875 l 0.445313,0.70312495 c 0.09375,0.1640625 0.04687,0.2109375 -0.210938,0.2460938 v 0.1523437 z m 0,0"
           style="fill:#231f20;fill-opacity:1;fill-rule:nonzero;stroke:none" />
      </g>
      <path
         id="path20"
         d="M 1614.88,61.8438 1661.76,51.0859 1650.99,4.20313"
         style="fill:none;stroke:#231f20;stroke-width:5;stroke-linecap:butt;stroke-linejoin:miter;stroke-miterlimit:10;stroke-dasharray:none;stroke-opacity:1"
         transform="matrix(0.13333333,0,0,-0.13333333,0,100.74667)" />
      <g
         id="g20"
         aria-label="p&#10;c&#10;ω&#10;c"
         transform="matrix(1.3333333,0,0,1.3333333,229.09467,52.126933)">
        <path
           id="path21"
           d="m 1.0188437,-2.2866063 v -0.46875 C 0.725875,-2.6381688 0.39775,-2.5444188 0.1399375,-2.4975438 v 0.140625 c 0.375,0.046875 0.3984375,0.058594 0.3984375,0.4570313 v 2.70703125 c 0,0.39843745 -0.0585938,0.43359375 -0.43359375,0.46874995 V 1.4399562 H 1.52275 V 1.2758937 C 1.054,1.2290187 1.0188437,1.2055812 1.0188437,0.74855 V -0.03660625 C 1.0891562,0.01026875 1.2532187,0.0688625 1.429,0.0688625 2.2024375,-0.0717625 2.9172812,-0.6577 2.9172812,-1.5600438 c 0,-0.5976562 -0.3867187,-1.1367187 -1.0546875,-1.1367187 -0.070312,0 -0.1875,0.035156 -0.2929687,0.09375 z m 0,0.1992188 C 1.1711875,-2.204575 1.4172812,-2.3334813 1.6165,-2.3334813 c 0.4335937,0 0.796875,0.3632813 0.796875,0.9960938 0,0.6796875 -0.328125,1.11328125 -0.8320313,1.11328125 -0.2109375,0 -0.4335937,-0.09375 -0.5625,-0.234375 z m 6.1640625,3.4189453 c -0.2695312,0.2578125 -0.46875,0.328125 -0.7265625,0.328125 -0.3398437,0 -0.9140625,-0.2695312 -0.9140625,-1.10156249 0,-0.6328125 0.3515625,-0.9609375 0.75,-0.9609375 0.2109375,0 0.421875,0.0703125 0.5976563,0.24609375 0.058594,0.046875 0.082031,0.05859375 0.1171875,0.05859375 0.058594,0 0.1992187,-0.12890625 0.1992187,-0.2578125 0,-0.0585938 -0.023437,-0.1171875 -0.09375,-0.1875 -0.1054687,-0.0703125 -0.3046875,-0.15234375 -0.5390625,-0.15234375 -0.234375,0 -0.5976562,0.09375 -0.9023437,0.33984375 -0.4101563,0.3046875 -0.609375,0.71484375 -0.609375,1.171875 0,0.64453129 0.4453125,1.25390629 1.2070312,1.25390629 0.3515625,0 0.75,-0.2578125 1.0195313,-0.609375 z m 0,0"
           style="fill:#231f20;fill-opacity:1;fill-rule:nonzero;stroke:none" />
        <path
           id="path22"
           d="m -71.195023,-10.226059 c 0.292968,0.2578121 0.503906,0.7148434 0.503906,1.3828121 -0.01172,1.0078125 -0.398438,2.0507813 -1.136719,2.0507813 -0.304687,0 -0.515625,-0.3046875 -0.492187,-0.8789063 0.02344,-0.46875 0.234375,-1.359375 0.351562,-1.7226562 l -0.05859,-0.035156 -0.667968,0.140625 c -0.03516,0.28125 -0.09375,0.75 -0.1875,1.1367188 -0.199219,0.8554687 -0.5625,1.3125 -0.949219,1.3125 -0.28125,0 -0.539063,-0.3398438 -0.539063,-0.9960938 0,-1.0078125 0.46875,-1.921875 1.160157,-2.4492189 l -0.140625,-0.199219 c -1.042969,0.5390629 -1.757813,1.5585942 -1.757813,2.7656254 0,0.9375 0.421875,1.4414063 0.9375,1.4414063 0.386719,0 0.902344,-0.3984375 1.230469,-0.890625 0.04687,0.5039062 0.328125,0.890625 0.761719,0.890625 0.375,0 0.738281,-0.2226563 1.066406,-0.515625 0.5625,-0.5273438 0.996094,-1.3007813 0.996094,-2.2148438 0,-0.9023437 -0.398438,-1.4179689 -0.691407,-1.4179689 -0.152343,0 -0.316406,0.07031 -0.375,0.128906 z m 0,0"
           style="fill:#231f20;fill-opacity:1;fill-rule:nonzero;stroke:none" />
        <path
           id="path23"
           d="m -68.367875,-5.0522313 c -0.269531,0.2578125 -0.46875,0.328125 -0.726563,0.328125 -0.339843,0 -0.914062,-0.2695312 -0.914062,-1.1015625 0,-0.6328125 0.351562,-0.9609375 0.75,-0.9609375 0.210937,0 0.421875,0.070312 0.597656,0.2460938 0.05859,0.046875 0.08203,0.058594 0.117188,0.058594 0.05859,0 0.199218,-0.1289062 0.199218,-0.2578125 0,-0.058594 -0.02344,-0.1171875 -0.09375,-0.1875 -0.105468,-0.070312 -0.304687,-0.1523437 -0.539062,-0.1523437 -0.234375,0 -0.597656,0.09375 -0.902344,0.3398437 -0.410156,0.3046875 -0.609375,0.7148438 -0.609375,1.171875 0,0.6445313 0.445313,1.2539063 1.207031,1.2539063 0.351563,0 0.75,-0.2578125 1.019532,-0.609375 z m 0,0"
           style="fill:#231f20;fill-opacity:1;fill-rule:nonzero;stroke:none" />
      </g>
    </g>
  </g>
</svg>
