<?xml version="1.0" encoding="UTF-8" standalone="no"?>
<!-- Created with Inkscape (http://www.inkscape.org/) -->

<svg
   version="1.1"
   id="svg1"
   width="189.08"
   height="29.853333"
   viewBox="0 0 189.08 29.853333"
   sodipodi:docname="pha06f41.eps"
   xmlns:inkscape="http://www.inkscape.org/namespaces/inkscape"
   xmlns:sodipodi="http://sodipodi.sourceforge.net/DTD/sodipodi-0.dtd"
   xmlns="http://www.w3.org/2000/svg"
   xmlns:svg="http://www.w3.org/2000/svg">
  <defs
     id="defs1" />
  <sodipodi:namedview
     id="namedview1"
     pagecolor="#ffffff"
     bordercolor="#000000"
     borderopacity="0.25"
     inkscape:showpageshadow="2"
     inkscape:pageopacity="0.0"
     inkscape:pagecheckerboard="0"
     inkscape:deskcolor="#d1d1d1">
    <inkscape:page
       x="0"
       y="0"
       inkscape:label="1"
       id="page1"
       width="189.08"
       height="29.853333"
       margin="0"
       bleed="0" />
  </sodipodi:namedview>
  <g
     id="g1"
     inkscape:groupmode="layer"
     inkscape:label="1">
    <g
       id="group-R5">
      <path
         id="path2"
         d="m 839.355,136.801 c 0,6.504 5.262,11.769 11.758,11.769 6.504,0 11.758,-5.265 11.758,-11.769 0,-6.485 -5.254,-11.758 -11.758,-11.758 -6.496,0 -11.758,5.273 -11.758,11.758"
         style="fill:#231f20;fill-opacity:1;fill-rule:nonzero;stroke:none"
         transform="matrix(0.13333333,0,0,-0.13333333,0,29.853333)" />
      <path
         id="path3"
         d="m 839.355,136.801 c 0,6.504 5.262,11.769 11.758,11.769 6.504,0 11.758,-5.265 11.758,-11.769 0,-6.485 -5.254,-11.758 -11.758,-11.758 -6.496,0 -11.758,5.273 -11.758,11.758 z"
         style="fill:none;stroke:#231f20;stroke-width:5;stroke-linecap:butt;stroke-linejoin:miter;stroke-miterlimit:10;stroke-dasharray:none;stroke-opacity:1"
         transform="matrix(0.13333333,0,0,-0.13333333,0,29.853333)" />
      <path
         id="path4"
         d="M 1418.09,136.617 H 0"
         style="fill:none;stroke:#231f20;stroke-width:5;stroke-linecap:butt;stroke-linejoin:miter;stroke-miterlimit:10;stroke-dasharray:none;stroke-opacity:1"
         transform="matrix(0.13333333,0,0,-0.13333333,0,29.853333)" />
      <path
         id="path5"
         d="m 544.23,137.191 c 0,6.497 5.262,11.758 11.766,11.758 6.484,0 11.758,-5.261 11.758,-11.758 0,-6.503 -5.274,-11.765 -11.758,-11.765 -6.504,0 -11.766,5.262 -11.766,11.765"
         style="fill:#231f20;fill-opacity:1;fill-rule:nonzero;stroke:none"
         transform="matrix(0.13333333,0,0,-0.13333333,0,29.853333)" />
      <path
         id="path6"
         d="m 544.23,137.191 c 0,6.497 5.262,11.758 11.766,11.758 6.484,0 11.758,-5.261 11.758,-11.758 0,-6.503 -5.274,-11.765 -11.758,-11.765 -6.504,0 -11.766,5.262 -11.766,11.765 z"
         style="fill:none;stroke:#231f20;stroke-width:5;stroke-linecap:butt;stroke-linejoin:miter;stroke-miterlimit:10;stroke-dasharray:none;stroke-opacity:1"
         transform="matrix(0.13333333,0,0,-0.13333333,0,29.853333)" />
      <path
         id="path7"
         d="M 17.6367,223.902 V 194.727"
         style="fill:none;stroke:#231f20;stroke-width:5;stroke-linecap:butt;stroke-linejoin:miter;stroke-miterlimit:10;stroke-dasharray:none;stroke-opacity:1"
         transform="matrix(0.13333333,0,0,-0.13333333,0,29.853333)" />
      <path
         id="path8"
         d="M 1096.46,208.902 H 17.6367"
         style="fill:none;stroke:#231f20;stroke-width:5;stroke-linecap:butt;stroke-linejoin:miter;stroke-miterlimit:10;stroke-dasharray:none;stroke-opacity:1"
         transform="matrix(0.13333333,0,0,-0.13333333,0,29.853333)" />
      <path
         id="path9"
         d="m 1096.46,193.902 v 30"
         style="fill:none;stroke:#231f20;stroke-width:5;stroke-linecap:butt;stroke-linejoin:miter;stroke-miterlimit:10;stroke-dasharray:none;stroke-opacity:1"
         transform="matrix(0.13333333,0,0,-0.13333333,0,29.853333)" />
      <path
         id="path10"
         d="M 736.609,197.621 V 169.688"
         style="fill:none;stroke:#231f20;stroke-width:5;stroke-linecap:butt;stroke-linejoin:miter;stroke-miterlimit:10;stroke-dasharray:none;stroke-opacity:1"
         transform="matrix(0.13333333,0,0,-0.13333333,0,29.853333)" />
      <path
         id="path11"
         d="M 962.168,183.355 H 736.609"
         style="fill:none;stroke:#231f20;stroke-width:5;stroke-linecap:butt;stroke-linejoin:miter;stroke-miterlimit:10;stroke-dasharray:none;stroke-opacity:1"
         transform="matrix(0.13333333,0,0,-0.13333333,0,29.853333)" />
      <path
         id="path12"
         d="m 962.168,167.621 c 0,23.145 0,30 0,30"
         style="fill:none;stroke:#231f20;stroke-width:5;stroke-linecap:butt;stroke-linejoin:miter;stroke-miterlimit:10;stroke-dasharray:none;stroke-opacity:1"
         transform="matrix(0.13333333,0,0,-0.13333333,0,29.853333)" />
      <g
         id="g12"
         aria-label="t&#10;min&#10;t&#10;max"
         transform="matrix(1.3333333,0,0,1.3333333,111.45933,22.86688)">
        <path
           id="path13"
           d="M 3.0480781,-3.9021131 H 1.9933906 l 0.3164063,-1.359375 -0.082031,-0.046875 -0.6796875,0.5507812 -0.2109375,0.8554688 H 0.79807812 l -0.22265625,0.2695312 0.0234375,0.082031 H 1.2668281 l -0.52734373,2.4726562 c -0.19921875,0.92578128 -0.0234375,1.18359378 0.1875,1.18359378 0.48046873,0 1.14843753,-0.59765625 1.45312503,-0.9609375 L 2.2512031,-1.0427381 c -0.2109375,0.22265623 -0.65625,0.51562498 -0.8085937,0.51562498 -0.1054688,0 -0.140625,-0.09375 -0.058594,-0.53906248 l 0.5390625,-2.484375 0.890625,-0.035156 z m 0,0"
           style="fill:#231f20;fill-opacity:1;fill-rule:nonzero;stroke:none" />
        <path
           id="path14"
           d="M 7.5451484,2.0012072 V 1.8488634 C 7.1935859,1.8137072 7.1467109,1.7902697 7.1467109,1.3801134 V 0.21995719 c 0,-0.5859375 -0.2929687,-0.9140625 -0.7617187,-0.9140625 -0.1640625,0 -0.3164063,0.0703125 -0.4453125,0.15234375 -0.1523438,0.09375 -0.328125,0.2109375 -0.5039063,0.33984375 -0.1171875,-0.31640625 -0.375,-0.4921875 -0.65625,-0.4921875 -0.1992187,0 -0.3398437,0.0703125 -0.4921875,0.1640625 -0.1875,0.1171875 -0.3164062,0.22265625 -0.4453125,0.3046875 v -0.48046875 c -0.2578125,0.1171875 -0.5625,0.1875 -0.8320312,0.24609375 v 0.12890625 c 0.3515625,0.0585938 0.3632812,0.09375 0.3632812,0.46875 V 1.3801134 c 0,0.3984375 -0.046875,0.4335938 -0.4453125,0.46875 v 0.1523438 h 1.265625 V 1.8488634 C 3.9006172,1.8137072 3.8537422,1.7785509 3.8537422,1.3801134 v -1.40624996 c 0.1757812,-0.15234375 0.4101562,-0.31640625 0.6445312,-0.31640625 0.375,0 0.5273438,0.24609375 0.5273438,0.69140625 V 1.3801134 c 0,0.3984375 -0.058594,0.4335938 -0.421875,0.46875 V 2.0012072 H 5.8810859 V 1.8488634 C 5.5529609,1.8137072 5.4943672,1.7785509 5.4943672,1.3918322 V 0.21995719 c 0,-0.10546875 0,-0.17578125 -0.011719,-0.24609375 0.2226563,-0.1875 0.4570313,-0.31640625 0.6679688,-0.31640625 0.3867187,0 0.5273437,0.26953125 0.5273437,0.703125 V 1.3566759 c 0,0.4335938 -0.058594,0.4570313 -0.421875,0.4921875 v 0.1523438 z m 0.9404297,-3.2109375 c 0.1757813,0 0.3046875,-0.1523438 0.3046875,-0.3164063 0,-0.1757812 -0.1289062,-0.3046875 -0.2929687,-0.3046875 -0.1640625,0 -0.3046875,0.1289063 -0.3046875,0.3046875 0,0.1640625 0.140625,0.3164063 0.2929687,0.3164063 z m 0.703125,3.2109375 V 1.8488634 C 8.8019844,1.8137072 8.7668281,1.7785509 8.7668281,1.3683947 v -2.07421876 c -0.2695312,0.10546875 -0.5507812,0.1875 -0.8554687,0.234375 v 0.140625 c 0.3632812,0.0585938 0.375,0.09375 0.375,0.45703125 V 1.3683947 c 0,0.4101562 -0.035156,0.4453125 -0.421875,0.4804687 v 0.1523438 z m 3.2373049,0 V 1.8488634 c -0.351563,-0.035156 -0.375,-0.058594 -0.375,-0.46875 V 0.21995719 c 0,-0.5859375 -0.304688,-0.9140625 -0.785156,-0.9140625 -0.164063,0 -0.328125,0.0703125 -0.492188,0.17578125 -0.152344,0.10546875 -0.28125,0.19921875 -0.398437,0.29296875 v -0.48046875 c -0.269532,0.1171875 -0.5507817,0.1875 -0.8320317,0.24609375 v 0.12890625 c 0.3164063,0.0585938 0.3515625,0.0820312 0.3515625,0.46875 V 1.3801134 c 0,0.3984375 -0.023437,0.421875 -0.4335937,0.46875 V 2.0012072 H 10.761945 V 1.8488634 c -0.351562,-0.035156 -0.386718,-0.058594 -0.386718,-0.46875 v -1.41796871 c 0.175781,-0.15234375 0.410156,-0.3046875 0.644531,-0.3046875 0.410156,0 0.550781,0.26953125 0.550781,0.69140625 V 1.3449572 c 0,0.421875 -0.04687,0.46875 -0.398437,0.5039062 v 0.1523438 z m 0,0"
           style="fill:#231f20;fill-opacity:1;fill-rule:nonzero;stroke:none" />
        <path
           id="path15"
           d="m -26.538836,-3.9021131 h -1.054687 l 0.316406,-1.359375 -0.08203,-0.046875 -0.679688,0.5507812 -0.210937,0.8554688 h -0.539063 l -0.222656,0.2695312 0.02344,0.082031 h 0.667969 l -0.527344,2.4726562 c -0.199218,0.92578128 -0.02344,1.18359378 0.1875,1.18359378 0.480469,0 1.148438,-0.59765625 1.453125,-0.9609375 l -0.128906,-0.18749998 c -0.210937,0.22265623 -0.65625,0.51562498 -0.808594,0.51562498 -0.105468,0 -0.140625,-0.09375 -0.05859,-0.53906248 l 0.539062,-2.484375 0.890625,-0.035156 z m 0,0"
           style="fill:#231f20;fill-opacity:1;fill-rule:nonzero;stroke:none" />
        <path
           id="path16"
           d="M -22.041766,2.0012072 V 1.8488634 c -0.351562,-0.035156 -0.398437,-0.058594 -0.398437,-0.46875 V 0.21995719 c 0,-0.5859375 -0.292969,-0.9140625 -0.761719,-0.9140625 -0.164062,0 -0.316406,0.0703125 -0.445312,0.15234375 -0.152344,0.09375 -0.328125,0.2109375 -0.503907,0.33984375 -0.117187,-0.31640625 -0.375,-0.4921875 -0.65625,-0.4921875 -0.199218,0 -0.339843,0.0703125 -0.492187,0.1640625 -0.1875,0.1171875 -0.316406,0.22265625 -0.445313,0.3046875 v -0.48046875 c -0.257812,0.1171875 -0.5625,0.1875 -0.832031,0.24609375 v 0.12890625 c 0.351563,0.0585938 0.363281,0.09375 0.363281,0.46875 V 1.3801134 c 0,0.3984375 -0.04687,0.4335938 -0.445312,0.46875 v 0.1523438 h 1.265625 V 1.8488634 c -0.292969,-0.035156 -0.339844,-0.070312 -0.339844,-0.46875 v -1.40624996 c 0.175781,-0.15234375 0.410156,-0.31640625 0.644531,-0.31640625 0.375,0 0.527344,0.24609375 0.527344,0.69140625 V 1.3801134 c 0,0.3984375 -0.05859,0.4335938 -0.421875,0.46875 v 0.1523438 h 1.277344 V 1.8488634 c -0.328125,-0.035156 -0.386719,-0.070312 -0.386719,-0.4570312 V 0.21995719 c 0,-0.10546875 0,-0.17578125 -0.01172,-0.24609375 0.222657,-0.1875 0.457032,-0.31640625 0.667969,-0.31640625 0.386719,0 0.527344,0.26953125 0.527344,0.703125 V 1.3566759 c 0,0.4335938 -0.05859,0.4570313 -0.421875,0.4921875 v 0.1523438 z m 2.71875,-0.234375 -0.05859,-0.1523438 c -0.07031,0.035156 -0.152344,0.058594 -0.222657,0.058594 -0.105468,0 -0.210937,-0.082031 -0.210937,-0.3515625 V 0.19651969 c 0,-0.3046875 -0.05859,-0.55078125 -0.269531,-0.7265625 -0.128907,-0.10546875 -0.304688,-0.1640625 -0.492188,-0.1640625 -0.339844,0.0703125 -0.726562,0.3046875 -0.902344,0.421875 -0.105468,0.0820312 -0.1875,0.15234375 -0.1875,0.234375 0,0.140625 0.152344,0.2578125 0.269532,0.2578125 0.08203,0 0.140625,-0.0351563 0.164062,-0.12890625 0.04687,-0.1875 0.105469,-0.31640625 0.1875,-0.3984375 0.05859,-0.0703125 0.152344,-0.1171875 0.269531,-0.1171875 0.292969,0 0.503907,0.24609375 0.503907,0.66796875 v 0.1171875 c -0.128907,0.10546875 -0.574219,0.26953125 -0.9375,0.38671875 -0.328125,0.1171875 -0.480469,0.30468746 -0.480469,0.59765626 0,0.375 0.292969,0.7265625 0.714844,0.7265625 0.1875,0 0.46875,-0.2226563 0.714843,-0.3867188 0.02344,0.1054688 0.05859,0.1875 0.140625,0.2695313 0.07031,0.070312 0.1875,0.1171875 0.28125,0.1171875 z m -0.949218,-0.2695313 c -0.117188,0.1054688 -0.328125,0.2109375 -0.480469,0.2109375 -0.1875,0 -0.433594,-0.140625 -0.433594,-0.4570312 0,-0.2109375 0.140625,-0.32812501 0.375,-0.43359376 0.117188,-0.0585938 0.410156,-0.1875 0.539063,-0.2578125 z m 3.829101,0.5039063 V 1.8488634 c -0.363281,-0.046875 -0.433594,-0.1054687 -0.65625,-0.4453125 L -17.68532,0.51292594 c 0.199218,-0.29296875 0.339843,-0.50390625 0.46875,-0.65625 0.210937,-0.2578125 0.292968,-0.28125 0.65625,-0.328125 v -0.15234375 h -1.089844 v 0.15234375 c 0.257812,0.0351563 0.292969,0.0585938 0.1875,0.2578125 -0.105469,0.1875 -0.222656,0.375 -0.351563,0.55078125 l -0.351562,-0.55078125 c -0.105469,-0.1640625 -0.08203,-0.22265625 0.175781,-0.2578125 v -0.15234375 h -1.207031 v 0.15234375 c 0.328125,0.046875 0.410156,0.09375 0.585937,0.38671875 l 0.527344,0.80859375 c -0.175781,0.26953125 -0.339844,0.51562496 -0.503906,0.72656246 -0.246094,0.2929688 -0.304688,0.3515625 -0.679688,0.3984375 v 0.1523438 h 1.125 V 1.8488634 c -0.316406,-0.046875 -0.328125,-0.1054687 -0.210937,-0.3046875 0.117187,-0.2226562 0.246094,-0.4453125 0.386719,-0.64453121 l 0.445312,0.70312501 c 0.09375,0.1640625 0.04687,0.2109375 -0.210937,0.2460937 v 0.1523438 z m 0,0"
           style="fill:#231f20;fill-opacity:1;fill-rule:nonzero;stroke:none" />
      </g>
    </g>
  </g>
</svg>
