<?xml version="1.0" encoding="UTF-8" standalone="no"?>
<!-- Created with Inkscape (http://www.inkscape.org/) -->

<svg
   version="1.1"
   id="svg1"
   width="129.06667"
   height="94.839996"
   viewBox="0 0 129.06667 94.839996"
   sodipodi:docname="pha06f46.eps"
   xmlns:inkscape="http://www.inkscape.org/namespaces/inkscape"
   xmlns:sodipodi="http://sodipodi.sourceforge.net/DTD/sodipodi-0.dtd"
   xmlns="http://www.w3.org/2000/svg"
   xmlns:svg="http://www.w3.org/2000/svg">
  <defs
     id="defs1" />
  <sodipodi:namedview
     id="namedview1"
     pagecolor="#ffffff"
     bordercolor="#000000"
     borderopacity="0.25"
     inkscape:showpageshadow="2"
     inkscape:pageopacity="0.0"
     inkscape:pagecheckerboard="0"
     inkscape:deskcolor="#d1d1d1">
    <inkscape:page
       x="0"
       y="0"
       inkscape:label="1"
       id="page1"
       width="129.06667"
       height="94.839996"
       margin="0"
       bleed="0" />
  </sodipodi:namedview>
  <g
     id="g1"
     inkscape:groupmode="layer"
     inkscape:label="1">
    <g
       id="group-R5">
      <path
         id="path2"
         d="m 473.102,313.699 c 0,6.496 5.273,11.762 11.757,11.762 6.504,0 11.766,-5.266 11.766,-11.762 0,-6.492 -5.262,-11.765 -11.766,-11.765 -6.484,0 -11.757,5.273 -11.757,11.765"
         style="fill:#231f20;fill-opacity:1;fill-rule:nonzero;stroke:none"
         transform="matrix(0.13333333,0,0,-0.13333333,0,94.84)" />
      <path
         id="path3"
         d="m 473.102,313.699 c 0,6.496 5.273,11.762 11.757,11.762 6.504,0 11.766,-5.266 11.766,-11.762 0,-6.492 -5.262,-11.765 -11.766,-11.765 -6.484,0 -11.757,5.273 -11.757,11.765 z"
         style="fill:none;stroke:#231f20;stroke-width:5;stroke-linecap:butt;stroke-linejoin:miter;stroke-miterlimit:10;stroke-dasharray:none;stroke-opacity:1"
         transform="matrix(0.13333333,0,0,-0.13333333,0,94.84)" />
      <path
         id="path4"
         d="M 2.5,623.094 H 965.484 V 2.5 H 2.5 Z"
         style="fill:none;stroke:#231f20;stroke-width:5;stroke-linecap:butt;stroke-linejoin:miter;stroke-miterlimit:10;stroke-dasharray:none;stroke-opacity:1"
         transform="matrix(0.13333333,0,0,-0.13333333,0,94.84)" />
      <path
         id="path5"
         d="m 693.766,541.66 c 0,6.485 5.273,11.758 11.765,11.758 6.496,0 11.77,-5.273 11.77,-11.758 0,-6.504 -5.274,-11.765 -11.77,-11.765 -6.492,0 -11.765,5.261 -11.765,11.765"
         style="fill:#231f20;fill-opacity:1;fill-rule:nonzero;stroke:none"
         transform="matrix(0.13333333,0,0,-0.13333333,0,94.84)" />
      <path
         id="path6"
         d="m 693.766,541.66 c 0,6.485 5.273,11.758 11.765,11.758 6.496,0 11.77,-5.273 11.77,-11.758 0,-6.504 -5.274,-11.765 -11.77,-11.765 -6.492,0 -11.765,5.261 -11.765,11.765 z"
         style="fill:none;stroke:#231f20;stroke-width:5;stroke-linecap:butt;stroke-linejoin:miter;stroke-miterlimit:10;stroke-dasharray:none;stroke-opacity:1"
         transform="matrix(0.13333333,0,0,-0.13333333,0,94.84)" />
      <path
         id="path7"
         d="m 845.641,697.031 c 0,6.492 5.261,11.758 11.757,11.758 6.504,0 11.758,-5.266 11.758,-11.758 0,-6.504 -5.254,-11.769 -11.758,-11.769 -6.496,0 -11.757,5.265 -11.757,11.769"
         style="fill:#231f20;fill-opacity:1;fill-rule:nonzero;stroke:none"
         transform="matrix(0.13333333,0,0,-0.13333333,0,94.84)" />
      <path
         id="path8"
         d="m 845.641,697.031 c 0,6.492 5.261,11.758 11.757,11.758 6.504,0 11.758,-5.266 11.758,-11.758 0,-6.504 -5.254,-11.769 -11.758,-11.769 -6.496,0 -11.757,5.265 -11.757,11.769 z"
         style="fill:none;stroke:#231f20;stroke-width:5;stroke-linecap:butt;stroke-linejoin:miter;stroke-miterlimit:10;stroke-dasharray:none;stroke-opacity:1"
         transform="matrix(0.13333333,0,0,-0.13333333,0,94.84)" />
      <path
         id="path9"
         d="m 706.188,542.18 8.73,8.941"
         style="fill:none;stroke:#231f20;stroke-width:5;stroke-linecap:butt;stroke-linejoin:miter;stroke-miterlimit:10;stroke-dasharray:none;stroke-opacity:1"
         transform="matrix(0.13333333,0,0,-0.13333333,0,94.84)" />
      <path
         id="path10"
         d="M 726.383,562.859 842.934,682.211"
         style="fill:none;stroke:#231f20;stroke-width:5;stroke-linecap:butt;stroke-linejoin:miter;stroke-miterlimit:10;stroke-dasharray:27.3474, 16.4085;stroke-dashoffset:0;stroke-opacity:1"
         transform="matrix(0.13333333,0,0,-0.13333333,0,94.84)" />
      <path
         id="path11"
         d="m 848.668,688.082 8.73,8.945"
         style="fill:none;stroke:#231f20;stroke-width:5;stroke-linecap:butt;stroke-linejoin:miter;stroke-miterlimit:10;stroke-dasharray:none;stroke-opacity:1"
         transform="matrix(0.13333333,0,0,-0.13333333,0,94.84)" />
      <path
         id="path12"
         d="M 482.398,313.848 706.188,542.18"
         style="fill:none;stroke:#231f20;stroke-width:5;stroke-linecap:butt;stroke-linejoin:miter;stroke-miterlimit:10;stroke-dasharray:none;stroke-opacity:1"
         transform="matrix(0.13333333,0,0,-0.13333333,0,94.84)" />
      <path
         id="path13"
         d="m 1.5238281,-3.4210031 v -0.7148438 c -0.421875,0.1757813 -0.92578123,0.328125 -1.31249998,0.3984375 v 0.2109375 c 0.5625,0.070312 0.59765625,0.09375 0.59765625,0.6796875 v 4.0664063 c 0,0.5859375 -0.0820313,0.6445312 -0.65625,0.703125 v 0.234375 H 2.2855469 V 1.9227469 C 1.5824219,1.8524344 1.5238281,1.8055594 1.5238281,1.1258719 v -1.18359377 c 0.1171875,0.0703125 0.3632813,0.15234375 0.6210938,0.1640625 1.171875,-0.2109375 2.2382812,-1.08984375 2.2382812,-2.44921873 0,-0.890625 -0.5976562,-1.6992188 -1.59375,-1.6992188 -0.1054687,0 -0.28125,0.046875 -0.4453125,0.140625 z m 0,0.3046875 c 0.2460938,-0.1875 0.609375,-0.3867188 0.9023438,-0.3867188 0.65625,0 1.2070312,0.5390625 1.2070312,1.5117188 0,1.00781248 -0.515625,1.66406248 -1.265625,1.66406248 -0.3046875,0 -0.6445312,-0.15234375 -0.84375,-0.3515625 z M 22.737695,-26.067487 c -0.820312,0 -1.980468,0.679687 -1.980468,2.15625 0,1.007812 0.738281,1.992187 1.980468,1.992187 0.890625,0 1.945313,-0.691406 1.945313,-2.144531 0,-1.113281 -0.832031,-2.003906 -1.945313,-2.003906 z m -0.09375,0.304687 c 0.785157,0 1.207032,0.84375 1.207032,1.898438 0,1.242187 -0.457032,1.652343 -1.019532,1.652343 -0.738281,0 -1.230468,-0.84375 -1.230468,-1.980468 0,-1.019532 0.480468,-1.570313 1.042968,-1.570313 z m 3.301758,-0.199219 h -0.433594 l -0.234375,0.257813 0.03516,0.09375 h 0.632812 v 2.648437 c 0,0.597657 -0.07031,0.644532 -0.609375,0.703125 v 0.234375 h 1.933594 v -0.222656 c -0.550781,-0.07031 -0.609375,-0.117187 -0.609375,-0.714844 v -2.648437 h 1.6875 v 2.648437 c 0,0.597657 -0.07031,0.644532 -0.5625,0.714844 v 0.222656 h 2.003906 v -0.222656 c -0.679687,-0.07031 -0.738281,-0.105469 -0.738281,-0.714844 v -2.648437 h 0.996094 c 0.105468,-0.05859 0.128906,-0.269531 0.08203,-0.351563 h -1.066406 l -0.01172,-0.304687 c -0.01172,-0.820313 0.09375,-1.242188 0.199219,-1.417969 0.09375,-0.164062 0.234375,-0.292969 0.46875,-0.292969 0.292968,0 0.5625,0.199219 0.738281,0.375 0.08203,0.08203 0.175781,0.07031 0.257812,0 0.08203,-0.05859 0.164063,-0.140625 0.1875,-0.222656 0.04687,-0.08203 0.03516,-0.1875 -0.04687,-0.292969 -0.152343,-0.175781 -0.421875,-0.304687 -0.726562,-0.316406 -0.386719,0.05859 -0.785156,0.234375 -1.171875,0.632813 -0.199219,-0.199219 -0.539063,-0.410157 -1.054688,-0.433594 -0.421875,0.03516 -0.773437,0.199219 -1.136718,0.492187 -0.46875,0.351563 -0.632813,0.761719 -0.714844,0.984375 -0.05859,0.1875 -0.105469,0.445313 -0.105469,0.679688 z m 2.402344,0 h -1.6875 v -0.210937 c 0,-0.679688 0.117187,-1.066406 0.28125,-1.300781 0.117187,-0.199219 0.316406,-0.386719 0.65625,-0.386719 0.480469,0 0.820312,0.304687 1.007812,0.574219 -0.08203,0.164062 -0.152343,0.316406 -0.1875,0.46875 -0.04687,0.152343 -0.07031,0.386718 -0.07031,0.691406 z m 4.766601,1.007813 c -0.03516,-0.222656 -0.128906,-0.75 -0.199218,-0.960938 -0.1875,-0.07031 -0.433594,-0.152343 -0.796875,-0.152343 -0.832032,0 -1.371094,0.527343 -1.371094,1.160156 0,0.691406 0.585937,0.996094 1.125,1.242187 0.445312,0.210938 0.703125,0.421875 0.703125,0.820313 0,0.375 -0.304688,0.632812 -0.632813,0.632812 -0.539062,0 -0.949218,-0.527343 -1.113281,-1.113281 l -0.234375,0.03516 c 0,0.328125 0.08203,0.9375 0.152344,1.066407 0.164062,0.140625 0.574219,0.304687 1.03125,0.304687 0.726562,0 1.488281,-0.421875 1.488281,-1.242187 0,-0.621094 -0.457031,-0.9375 -1.136719,-1.21875 -0.410156,-0.175782 -0.761718,-0.375 -0.761718,-0.785157 0,-0.351562 0.246093,-0.621093 0.585937,-0.621093 0.433594,0 0.75,0.363281 0.925781,0.890625 z m 3.94336,1.980469 c -0.328125,0.304687 -0.667969,0.445312 -1.019531,0.445312 -0.632813,0 -1.335938,-0.503906 -1.347657,-1.722656 1.066407,-0.04687 2.191407,-0.128906 2.355469,-0.164063 0.152344,-0.03516 0.199219,-0.105468 0.199219,-0.28125 0,-0.703125 -0.597656,-1.371093 -1.347656,-1.371093 -0.46875,0 -0.949219,0.246093 -1.324219,0.65625 -0.363281,0.410156 -0.597656,0.960937 -0.597656,1.582031 0,1.007812 0.65625,1.910156 1.757812,1.910156 0.28125,0 0.902344,-0.164062 1.464844,-0.867187 z m -1.371094,-2.753907 c 0.492188,0 0.796875,0.421875 0.785156,0.890625 0,0.128907 -0.04687,0.1875 -0.210937,0.1875 -0.527344,0.01172 -1.019531,0.02344 -1.523438,0.02344 0.128907,-0.726563 0.527344,-1.101563 0.949219,-1.101563 z m 4.573242,3.375 -0.08203,-0.234375 c -0.128906,0.07031 -0.328125,0.152344 -0.5625,0.152344 -0.222656,0 -0.515625,-0.128906 -0.515625,-0.855469 v -2.320312 h 0.960937 c 0.105469,-0.05859 0.128907,-0.257813 0.05859,-0.351563 H 39.1 v -1.230468 l -0.128906,-0.01172 -0.585938,0.585937 v 0.65625 H 37.975 l -0.246094,0.269532 0.03516,0.08203 h 0.621094 v 2.625 c 0,0.703125 0.316406,1.066406 0.878906,1.066406 0.08203,0 0.234375,-0.03516 0.386719,-0.117187 z m 0,0"
         style="fill:#231f20;fill-opacity:1;fill-rule:nonzero;stroke:none"
         aria-label="p&#10;oﬀset"
         transform="matrix(1.3333333,0,0,1.3333333,69.616667,58.6004)" />
    </g>
  </g>
</svg>
