<?xml version="1.0" encoding="UTF-8" standalone="no"?>
<!-- Created with Inkscape (http://www.inkscape.org/) -->

<svg
   version="1.1"
   id="svg1"
   width="254.92"
   height="52.826668"
   viewBox="0 0 254.92 52.826668"
   sodipodi:docname="pha08f10.eps"
   xmlns:inkscape="http://www.inkscape.org/namespaces/inkscape"
   xmlns:sodipodi="http://sodipodi.sourceforge.net/DTD/sodipodi-0.dtd"
   xmlns="http://www.w3.org/2000/svg"
   xmlns:svg="http://www.w3.org/2000/svg">
  <defs
     id="defs1" />
  <sodipodi:namedview
     id="namedview1"
     pagecolor="#ffffff"
     bordercolor="#000000"
     borderopacity="0.25"
     inkscape:showpageshadow="2"
     inkscape:pageopacity="0.0"
     inkscape:pagecheckerboard="0"
     inkscape:deskcolor="#d1d1d1">
    <inkscape:page
       x="0"
       y="0"
       inkscape:label="1"
       id="page1"
       width="254.92"
       height="52.826668"
       margin="0"
       bleed="0" />
  </sodipodi:namedview>
  <g
     id="g1"
     inkscape:groupmode="layer"
     inkscape:label="1">
    <g
       id="group-R5">
      <path
         id="path2"
         d="M 3.45705,0.00108937 V -0.24500438 C 2.6367375,-0.30359813 2.5781437,-0.37391063 2.5781437,-1.0301606 v -4.6875 c -0.4921875,0.1992187 -1.0195312,0.375 -1.59374995,0.46875 v 0.2109375 l 0.43359375,0.011719 c 0.3867187,0.023437 0.421875,0.070312 0.421875,0.5390625 v 3.4570313 c 0,0.65624997 -0.035156,0.72656247 -0.85546875,0.78515622 V 0.00108937 Z M -23.012677,-5.7176606 c -1.347656,0 -1.839843,1.6054687 -1.839843,2.9179687 0,1.4179688 0.480468,2.90625002 1.839843,2.90625002 1.359375,0 1.828125,-1.59375002 1.828125,-2.91796872 0,-1.3828125 -0.46875,-2.90625 -1.828125,-2.90625 z m 0,0.3046875 c 0.808594,0 1.03125,1.3242187 1.03125,2.6015625 0,1.265625 -0.222656,2.61328122 -1.03125,2.61328122 -0.773437,0 -1.042968,-1.35937502 -1.042968,-2.61328122 0,-1.2539063 0.222656,-2.6015625 1.042968,-2.6015625 z m -47.030273,3.8320312 c -0.457031,0.90234377 -0.9375,1.39453127 -1.863281,1.39453127 -1.359375,0 -2.355469,-1.14843747 -2.355469,-2.83593747 0,-1.3710938 0.796875,-2.6367188 2.308594,-2.6367188 0.972656,0 1.511718,0.3867188 1.746093,1.3359375 l 0.269532,-0.058594 c -0.05859,-0.4804688 -0.105469,-0.84375 -0.1875,-1.359375 -0.246094,-0.046875 -0.855469,-0.2460938 -1.59375,-0.2460938 -2.003907,0 -3.457032,1.2539063 -3.457032,3.140625 0,1.4296875 0.984375,2.98828127 3.222657,2.98828127 0.644531,0 1.40625,-0.1875 1.652343,-0.24609375 0.164063,-0.3046875 0.386719,-0.96093752 0.515625,-1.38281252 z m 2.897461,-2.4609375 c -0.820313,0 -1.980469,0.6796875 -1.980469,2.15625 0,1.00781252 0.738281,1.99218752 1.980469,1.99218752 0.890625,0 1.945312,-0.69140625 1.945312,-2.14453122 0,-1.1132813 -0.832031,-2.0039063 -1.945312,-2.0039063 z m -0.09375,0.3046875 c 0.785156,0 1.207031,0.84375 1.207031,1.8984375 0,1.24218752 -0.457031,1.65234377 -1.019531,1.65234377 -0.738281,0 -1.230469,-0.84374997 -1.230469,-1.98046877 0,-1.0195312 0.480469,-1.5703125 1.042969,-1.5703125 z m 6.978516,3.73828127 v -0.234375 c -0.527344,-0.0585938 -0.574219,-0.09375 -0.574219,-0.703125 V -2.6707856 c 0,-0.8789063 -0.445313,-1.3710938 -1.160156,-1.3710938 -0.257813,0 -0.492188,0.1054688 -0.75,0.2695313 -0.222657,0.1523437 -0.421875,0.2929687 -0.597657,0.421875 v -0.7148438 c -0.398437,0.1757813 -0.820312,0.28125 -1.253906,0.3632813 v 0.2109375 c 0.492188,0.09375 0.539063,0.1171875 0.539063,0.6914062 v 1.86328127 c 0,0.59765625 -0.04687,0.64453125 -0.65625,0.703125 v 0.234375 h 1.957031 v -0.234375 c -0.527344,-0.0585938 -0.585938,-0.09375 -0.585938,-0.703125 V -3.0457856 c 0.269532,-0.234375 0.621094,-0.46875 0.984375,-0.46875 0.597657,0 0.820313,0.4101562 0.820313,1.03125 v 1.49999997 c 0,0.62109375 -0.07031,0.69140625 -0.597656,0.75 v 0.234375 z m 2.724609,-0.328125 -0.08203,-0.234375 c -0.128907,0.0703125 -0.328125,0.15234375 -0.5625,0.15234375 -0.222657,0 -0.515625,-0.12890625 -0.515625,-0.85546872 v -2.3203125 h 0.960937 c 0.105469,-0.058594 0.128906,-0.2578125 0.05859,-0.3515625 h -1.019531 v -1.2304688 l -0.128907,-0.011719 -0.585937,0.5859375 v 0.65625 h -0.410156 l -0.246094,0.2695312 0.03516,0.082031 h 0.621094 v 2.62499997 c 0,0.703125 0.316406,1.06640625 0.878906,1.06640625 0.08203,0 0.234375,-0.03515625 0.386719,-0.1171875 z m 1.324219,-4.49999997 c 0.257812,0 0.457031,-0.2109375 0.457031,-0.4570313 0,-0.2695312 -0.199219,-0.46875 -0.457031,-0.46875 -0.234375,0 -0.457032,0.1992188 -0.457032,0.46875 0,0.2460938 0.222657,0.4570313 0.457032,0.4570313 z m 1.054687,4.82812497 v -0.234375 c -0.585937,-0.0585938 -0.644531,-0.10546875 -0.644531,-0.71484375 V -4.0535981 c -0.398438,0.1523437 -0.820313,0.2695312 -1.277344,0.3515625 v 0.2109375 c 0.539063,0.09375 0.5625,0.1289062 0.5625,0.6796875 v 1.86328122 c 0,0.609375 -0.05859,0.65625 -0.621094,0.71484375 v 0.234375 z m 4.848633,0 v -0.234375 c -0.527344,-0.0585938 -0.574219,-0.09375 -0.574219,-0.703125 V -2.6707856 c 0,-0.8789063 -0.445312,-1.3710938 -1.160156,-1.3710938 -0.257813,0 -0.492188,0.1054688 -0.75,0.2695313 -0.222656,0.1523437 -0.421875,0.2929687 -0.597656,0.421875 v -0.7148438 c -0.398438,0.1757813 -0.820313,0.28125 -1.253907,0.3632813 v 0.2109375 c 0.492188,0.09375 0.539063,0.1171875 0.539063,0.6914062 v 1.86328127 c 0,0.59765625 -0.04687,0.64453125 -0.65625,0.703125 v 0.234375 h 1.957031 v -0.234375 c -0.527344,-0.0585938 -0.585937,-0.09375 -0.585937,-0.703125 V -3.0457856 c 0.269531,-0.234375 0.621093,-0.46875 0.984375,-0.46875 0.597656,0 0.820312,0.4101562 0.820312,1.03125 v 1.49999997 c 0,0.62109375 -0.07031,0.69140625 -0.597656,0.75 v 0.234375 z m 4.705078,-0.4453125 -0.257812,-0.0117188 c -0.339844,-0.0234375 -0.410157,-0.0820313 -0.410157,-0.52734375 V -3.9950044 c -0.480468,0.09375 -0.949218,0.140625 -1.417968,0.1640625 v 0.1992188 c 0.65625,0.09375 0.703125,0.1289062 0.703125,0.6445312 v 2.09765627 c -0.304688,0.29296875 -0.644532,0.43359375 -0.972657,0.43359375 -0.398437,0 -0.785156,-0.22265625 -0.785156,-1.01953122 v -1.2070313 c 0,-0.609375 0,-1.03125 0.02344,-1.3125 -0.433594,0.082031 -0.867188,0.140625 -1.289063,0.1640625 v 0.1992188 c 0.515625,0.1054687 0.550781,0.140625 0.550781,0.6328125 v 1.7695312 c 0,0.97265627 0.515625,1.33593752 1.113282,1.33593752 0.246093,0 0.433593,-0.0703125 0.691406,-0.22265625 0.257812,-0.15234375 0.46875,-0.31640625 0.667969,-0.46875 v 0.64453125 l 0.05859,0.046875 c 0.445313,-0.12890625 0.902344,-0.2578125 1.324219,-0.31640625 z m 2.425781,-3.59765627 c -0.820312,0 -1.980468,0.6796875 -1.980468,2.15625 0,1.00781252 0.738281,1.99218752 1.980468,1.99218752 0.890625,0 1.945313,-0.69140625 1.945313,-2.14453122 0,-1.1132813 -0.832031,-2.0039063 -1.945313,-2.0039063 z m -0.09375,0.3046875 c 0.785157,0 1.207032,0.84375 1.207032,1.8984375 0,1.24218752 -0.457032,1.65234377 -1.019532,1.65234377 -0.738281,0 -1.230468,-0.84374997 -1.230468,-1.98046877 0,-1.0195312 0.480468,-1.5703125 1.042968,-1.5703125 z m 6.94043,3.29296877 -0.257812,-0.0117188 c -0.339844,-0.0234375 -0.410157,-0.0820313 -0.410157,-0.52734375 V -3.9950044 c -0.480468,0.09375 -0.949218,0.140625 -1.417968,0.1640625 v 0.1992188 c 0.65625,0.09375 0.703125,0.1289062 0.703125,0.6445312 v 2.09765627 c -0.304688,0.29296875 -0.644532,0.43359375 -0.972657,0.43359375 -0.398437,0 -0.785156,-0.22265625 -0.785156,-1.01953122 v -1.2070313 c 0,-0.609375 0,-1.03125 0.02344,-1.3125 -0.433594,0.082031 -0.867188,0.140625 -1.289063,0.1640625 v 0.1992188 c 0.515625,0.1054687 0.550781,0.140625 0.550781,0.6328125 v 1.7695312 c 0,0.97265627 0.515625,1.33593752 1.113282,1.33593752 0.246093,0 0.433593,-0.0703125 0.691406,-0.22265625 0.257812,-0.15234375 0.46875,-0.31640625 0.667969,-0.46875 v 0.64453125 l 0.05859,0.046875 c 0.445313,-0.12890625 0.902344,-0.2578125 1.324219,-0.31640625 z m 2.970703,-2.48437497 c -0.03516,-0.2226563 -0.128906,-0.75 -0.199219,-0.9609375 -0.1875,-0.070312 -0.433593,-0.1523438 -0.796875,-0.1523438 -0.832031,0 -1.371093,0.5273438 -1.371093,1.1601563 0,0.6914062 0.585937,0.9960937 1.125,1.2421875 0.445312,0.2109375 0.703125,0.421875 0.703125,0.82031247 0,0.375 -0.304688,0.6328125 -0.632813,0.6328125 -0.539062,0 -0.949219,-0.52734375 -1.113281,-1.11328127 l -0.234375,0.035156 c 0,0.32812497 0.08203,0.93749997 0.152344,1.06640622 0.164062,0.140625 0.574218,0.3046875 1.03125,0.3046875 0.726562,0 1.488281,-0.421875 1.488281,-1.24218752 0,-0.6210937 -0.457031,-0.9375 -1.136719,-1.21875 -0.410156,-0.1757812 -0.761719,-0.375 -0.761719,-0.7851562 0,-0.3515625 0.246094,-0.6210938 0.585938,-0.6210938 0.433594,0 0.75,0.3632813 0.925781,0.890625 z M -62.311505,-34.800668 v 0.257812 c 0.691407,0.05859 0.773438,0.09375 0.773438,0.867188 v 3.609375 c 0,0.761718 -0.08203,0.820312 -0.855469,0.867187 v 0.246094 h 2.132813 c 1.113281,0 2.003906,-0.222656 2.671875,-0.75 0.703125,-0.515625 1.113281,-1.324219 1.113281,-2.402344 0,-0.84375 -0.316406,-1.5 -0.761719,-1.933594 -0.550781,-0.527343 -1.394531,-0.761718 -2.542969,-0.761718 z m 1.546875,0.925781 c 0,-0.351563 0.02344,-0.445313 0.117188,-0.515625 0.08203,-0.05859 0.316406,-0.105469 0.691406,-0.105469 0.609375,0 1.125,0.105469 1.535156,0.363281 0.714844,0.421875 1.066407,1.230469 1.066407,2.15625 0,1.441407 -0.773438,2.695313 -2.460938,2.695313 -0.65625,0 -0.949219,-0.164063 -0.949219,-0.855469 z m 5.91211,0.09375 c 0.257812,0 0.457031,-0.210938 0.457031,-0.457031 0,-0.269532 -0.199219,-0.46875 -0.457031,-0.46875 -0.234375,0 -0.457032,0.199218 -0.457032,0.46875 0,0.246093 0.222657,0.457031 0.457032,0.457031 z m 1.054687,4.828125 v -0.234375 c -0.585937,-0.05859 -0.644531,-0.105469 -0.644531,-0.714844 V -33.0077 c -0.398438,0.152344 -0.820313,0.269532 -1.277344,0.351563 v 0.210937 c 0.539063,0.09375 0.5625,0.128907 0.5625,0.679688 v 1.863281 c 0,0.609375 -0.05859,0.65625 -0.621094,0.714844 v 0.234375 z m 2.994141,-2.929688 c -0.03516,-0.222656 -0.128906,-0.75 -0.199219,-0.960937 -0.1875,-0.07031 -0.433594,-0.152344 -0.796875,-0.152344 -0.832031,0 -1.371094,0.527344 -1.371094,1.160156 0,0.691407 0.585938,0.996094 1.125,1.242188 0.445313,0.210937 0.703125,0.421875 0.703125,0.820312 0,0.375 -0.304687,0.632813 -0.632812,0.632813 -0.539063,0 -0.949219,-0.527344 -1.113281,-1.113281 l -0.234375,0.03516 c 0,0.328125 0.08203,0.9375 0.152343,1.066406 0.164063,0.140625 0.574219,0.304688 1.03125,0.304688 0.726563,0 1.488282,-0.421875 1.488282,-1.242188 0,-0.621094 -0.457032,-0.9375 -1.136719,-1.21875 -0.410156,-0.175781 -0.761719,-0.375 -0.761719,-0.785156 0,-0.351563 0.246094,-0.621094 0.585938,-0.621094 0.433593,0 0.75,0.363281 0.925781,0.890625 z m 4.007812,1.933594 c -0.410156,0.386719 -0.703125,0.492188 -1.089843,0.492188 -0.503907,0 -1.359375,-0.410157 -1.359375,-1.664063 0,-0.949219 0.515625,-1.441406 1.113281,-1.441406 0.316406,0 0.632812,0.117187 0.902344,0.375 0.08203,0.07031 0.117187,0.09375 0.164062,0.09375 0.105469,0 0.304688,-0.199219 0.304688,-0.386719 0,-0.105469 -0.03516,-0.175781 -0.152344,-0.28125 -0.140625,-0.117187 -0.433594,-0.234375 -0.796875,-0.234375 -0.351563,0 -0.890625,0.140625 -1.359375,0.503906 -0.597656,0.46875 -0.902344,1.078125 -0.902344,1.769532 0,0.960937 0.667969,1.875 1.804688,1.875 0.527343,0 1.136718,-0.398438 1.523437,-0.914063 z m 1.921875,-2.085937 v -0.984375 c -0.433593,0.1875 -0.832031,0.292968 -1.265625,0.363281 v 0.199219 c 0.503907,0.07031 0.550782,0.105468 0.550782,0.703125 v 1.863281 c 0,0.597656 -0.05859,0.644531 -0.621094,0.703125 v 0.234375 h 2.074219 v -0.234375 c -0.691407,-0.05859 -0.738282,-0.105469 -0.738282,-0.703125 v -1.640625 c 0.199219,-0.503906 0.480469,-0.773438 0.714844,-0.773438 0.152344,0 0.257813,0.04687 0.386719,0.1875 0.04687,0.04687 0.128906,0.05859 0.234375,0.01172 0.175781,-0.08203 0.292969,-0.257812 0.292969,-0.433594 0,-0.222656 -0.210938,-0.457031 -0.527344,-0.457031 -0.421875,0 -0.808594,0.503906 -1.078125,0.960938 z m 5.000977,2.132812 c -0.328125,0.304688 -0.667969,0.445313 -1.019531,0.445313 -0.632813,0 -1.335938,-0.503907 -1.347657,-1.722657 1.066407,-0.04687 2.191407,-0.128906 2.355469,-0.164062 0.152344,-0.03516 0.199219,-0.105469 0.199219,-0.28125 0,-0.703125 -0.597656,-1.371094 -1.347656,-1.371094 -0.46875,0 -0.949219,0.246094 -1.324219,0.65625 -0.363281,0.410156 -0.597656,0.960938 -0.597656,1.582031 0,1.007813 0.65625,1.910157 1.757812,1.910157 0.28125,0 0.902344,-0.164063 1.464844,-0.867188 z m -1.371094,-2.753906 c 0.492188,0 0.796875,0.421875 0.785156,0.890625 0,0.128906 -0.04687,0.1875 -0.210937,0.1875 -0.527344,0.01172 -1.019531,0.02344 -1.523438,0.02344 0.128907,-0.726562 0.527344,-1.101562 0.949219,-1.101562 z m 4.470703,3.375 -0.08203,-0.234375 c -0.128906,0.07031 -0.328125,0.152344 -0.5625,0.152344 -0.222656,0 -0.515625,-0.128907 -0.515625,-0.855469 v -2.320313 h 0.960937 c 0.105469,-0.05859 0.128907,-0.257812 0.05859,-0.351562 h -1.019531 v -1.230469 l -0.128906,-0.01172 -0.585938,0.585938 v 0.65625 h -0.410156 l -0.246094,0.269531 0.03516,0.08203 h 0.621094 v 2.625 c 0,0.703125 0.316406,1.066407 0.878906,1.066407 0.08203,0 0.234375,-0.03516 0.386719,-0.117188 z m 3.418946,-0.621094 c -0.328125,0.304688 -0.667969,0.445313 -1.019532,0.445313 -0.632812,0 -1.335937,-0.503907 -1.347656,-1.722657 1.066406,-0.04687 2.191406,-0.128906 2.355469,-0.164062 0.152344,-0.03516 0.199219,-0.105469 0.199219,-0.28125 0,-0.703125 -0.597657,-1.371094 -1.347657,-1.371094 -0.46875,0 -0.949218,0.246094 -1.324218,0.65625 -0.363282,0.410156 -0.597657,0.960938 -0.597657,1.582031 0,1.007813 0.65625,1.910157 1.757813,1.910157 0.28125,0 0.902344,-0.164063 1.464844,-0.867188 z m -1.371094,-2.753906 c 0.492187,0 0.796875,0.421875 0.785156,0.890625 0,0.128906 -0.04687,0.1875 -0.210937,0.1875 -0.527344,0.01172 -1.019532,0.02344 -1.523438,0.02344 0.128906,-0.726562 0.527344,-1.101562 0.949219,-1.101562 z m 63.597656,31.3916014 c -0.269531,0.57421872 -0.386719,0.60937497 -0.867187,0.60937497 h -1.6875 l 1.277343,-1.33593747 c 0.832032,-0.890625 1.195313,-1.4179688 1.195313,-2.203125 0,-0.9492188 -0.726563,-1.5234375 -1.511719,-1.5234375 -0.527344,0 -0.949219,0.234375 -1.21875,0.5390625 l -0.515625,0.7265625 0.199219,0.1757812 c 0.234375,-0.3515625 0.609375,-0.8320312 1.230469,-0.8320312 0.65625,0 1.054687,0.4335937 1.054687,1.1953125 0,0.7734375 -0.5625,1.5117187 -1.125,2.1796875 -0.445312,0.515625 -0.949219,1.03124997 -1.453125,1.52343747 v 0.2109375 h 3.363281 c 0.105469,-0.41015625 0.199219,-0.796875 0.316407,-1.18359377 z m 22.227539,-3.1992188 c 0.222656,-0.328125 0.585938,-0.7148437 1.078125,-0.7148437 0.480469,0 0.855469,0.2929687 0.855469,0.8554687 0,0.65625 -0.609375,1.0078125 -1.429688,1.2773438 l 0.05859,0.2578125 c 0.140625,-0.046875 0.363281,-0.1054688 0.574219,-0.1054688 0.515625,0 1.148437,0.3398438 1.148437,1.171875 0,0.89062502 -0.457031,1.35937502 -1.089843,1.35937502 -0.515625,0 -0.890625,-0.24609375 -1.125,-0.45703125 -0.07031,-0.0585938 -0.140625,-0.046875 -0.210938,0 -0.08203,0.0585938 -0.199219,0.17578125 -0.210937,0.29296875 -0.01172,0.1171875 0.02344,0.2109375 0.152343,0.328125 0.117188,0.10546875 0.480469,0.3046875 0.890625,0.3046875 0.65625,0 2.367188,-0.66796875 2.367188,-2.12109372 0,-0.65625 -0.46875,-1.21875 -1.253906,-1.3710938 v -0.011719 c 0.257812,-0.1875 0.480468,-0.3398438 0.609375,-0.4921875 0.175781,-0.1640625 0.28125,-0.375 0.28125,-0.6328125 0,-0.6914063 -0.527344,-1.1953125 -1.347657,-1.1953125 -0.46875,0 -0.890625,0.234375 -1.136718,0.5039062 l -0.398438,0.5742188 z m 28.508789,2.859375 v -0.421875 H 78.74123 v -3.65625 h -0.351563 c -0.925781,1.21875 -1.851562,2.5546875 -2.707031,3.8320313 v 0.2460937 h 2.34375 v 0.65625002 c 0,0.5859375 -0.03516,0.64453125 -0.820313,0.703125 v 0.24609375 h 2.308594 v -0.24609375 c -0.726562,-0.0585938 -0.773437,-0.10546875 -0.773437,-0.703125 V -1.6043794 Z m -1.582031,-0.421875 h -1.769531 c 0.585937,-0.9960937 1.171875,-1.8515625 1.757812,-2.6484375 h 0.01172 z M 16.133808,-28.953012 v -0.246094 c -0.820313,-0.05859 -0.878906,-0.128906 -0.878906,-0.785156 v -4.6875 c -0.492188,0.199219 -1.019532,0.375 -1.59375,0.46875 v 0.210937 l 0.433593,0.01172 c 0.386719,0.02344 0.421875,0.07031 0.421875,0.539063 v 3.457031 c 0,0.65625 -0.03516,0.726562 -0.855468,0.785156 v 0.246094 z m -26.469727,-5.71875 c -1.347656,0 -1.839844,1.605469 -1.839844,2.917969 0,1.417968 0.480469,2.90625 1.839844,2.90625 1.3593752,0 1.8281252,-1.59375 1.8281252,-2.917969 0,-1.382813 -0.46875,-2.90625 -1.8281252,-2.90625 z m 0,0.304687 c 0.808594,0 1.0312502,1.324219 1.0312502,2.601563 0,1.265625 -0.2226562,2.613281 -1.0312502,2.613281 -0.773437,0 -1.042969,-1.359375 -1.042969,-2.613281 0,-1.253906 0.222657,-2.601563 1.042969,-2.601563 z m 51.884766,4.148438 c -0.269531,0.574219 -0.386719,0.609375 -0.867188,0.609375 h -1.6875 l 1.277344,-1.335938 c 0.832031,-0.890625 1.195313,-1.417968 1.195313,-2.203125 0,-0.949218 -0.726563,-1.523437 -1.511719,-1.523437 -0.527344,0 -0.949219,0.234375 -1.21875,0.539062 l -0.515625,0.726563 0.199219,0.175781 c 0.234375,-0.351562 0.609375,-0.832031 1.230468,-0.832031 0.65625,0 1.054688,0.433594 1.054688,1.195312 0,0.773438 -0.5625,1.511719 -1.125,2.179688 -0.445313,0.515625 -0.949219,1.03125 -1.453125,1.523437 v 0.210938 h 3.363281 c 0.105469,-0.410156 0.199219,-0.796875 0.316406,-1.183594 z m 22.227539,-3.199219 c 0.222656,-0.328125 0.585937,-0.714844 1.078125,-0.714844 0.480469,0 0.855469,0.292969 0.855469,0.855469 0,0.65625 -0.609375,1.007813 -1.429688,1.277344 l 0.05859,0.257812 c 0.140625,-0.04687 0.363281,-0.105468 0.574219,-0.105468 0.515625,0 1.148437,0.339843 1.148437,1.171875 0,0.890625 -0.457031,1.359375 -1.089844,1.359375 -0.515625,0 -0.890625,-0.246094 -1.125,-0.457032 -0.07031,-0.05859 -0.140625,-0.04687 -0.210937,0 -0.08203,0.05859 -0.199219,0.175782 -0.210938,0.292969 -0.01172,0.117188 0.02344,0.210938 0.152344,0.328125 0.117188,0.105469 0.480469,0.304688 0.890625,0.304688 0.65625,0 2.367188,-0.667969 2.367188,-2.121094 0,-0.65625 -0.46875,-1.21875 -1.253907,-1.371094 v -0.01172 c 0.257813,-0.1875 0.480469,-0.339843 0.609375,-0.492187 0.175782,-0.164063 0.28125,-0.375 0.28125,-0.632813 0,-0.691406 -0.527343,-1.195312 -1.347656,-1.195312 -0.46875,0 -0.890625,0.234375 -1.136719,0.503906 l -0.398437,0.574219 z m 28.508789,2.859375 v -0.421875 h -0.867188 v -3.65625 h -0.351562 c -0.925781,1.21875 -1.851563,2.554688 -2.707031,3.832031 v 0.246094 h 2.34375 v 0.65625 c 0,0.585938 -0.03516,0.644531 -0.820313,0.703125 v 0.246094 h 2.308594 v -0.246094 c -0.726563,-0.05859 -0.773438,-0.105469 -0.773438,-0.703125 v -0.65625 z m -1.582031,-0.421875 h -1.769532 c 0.585938,-0.996094 1.171875,-1.851562 1.757813,-2.648437 h 0.01172 z m 11.343746,26.0361329 h 2.09766 l 0.23437,-0.5859375 -0.0586,-0.070312 h -2.56641 l -0.35156,2.7421875 c 0.21094,-0.082031 0.55078,-0.1875 0.92578,-0.1875 0.98438,0 1.46485,0.5742187 1.46485,1.359375 0,0.6796875 -0.375,1.33593747 -1.13672,1.33593747 -0.55078,0 -0.91406,-0.29296875 -1.11328,-0.45703125 -0.082,-0.0703125 -0.15235,-0.0585938 -0.23438,0 -0.10547,0.09375 -0.1875,0.2109375 -0.1875,0.29296875 -0.0234,0.10546875 0.0234,0.1875 0.14063,0.3046875 0.1289,0.12890625 0.51562,0.31640625 0.92578,0.31640625 0.48047,-0.01171875 1.07812,-0.24609375 1.57031,-0.6328125 0.55078,-0.45703125 0.79688,-0.96093752 0.79688,-1.51171872 0,-0.7382813 -0.58594,-1.5117188 -1.73438,-1.5117188 -0.24609,0 -0.66797,0.140625 -1.00781,0.2695313 z m 0,0"
         style="fill:#231f20;fill-opacity:1;fill-rule:nonzero;stroke:none"
         aria-label="10Continuous&#10;Discrete&#10;234&#10;10234&#10;5"
         transform="matrix(1.3333333,0,0,1.3333333,100.7656,48.50636)" />
      <path
         id="path3"
         d="M 525.652,175.863 H 1911.93"
         style="fill:none;stroke:#231f20;stroke-width:5;stroke-linecap:butt;stroke-linejoin:miter;stroke-miterlimit:10;stroke-dasharray:none;stroke-opacity:1"
         transform="matrix(0.13333333,0,0,-0.13333333,0,52.826667)" />
      <path
         id="path4"
         d="M 524.441,239.848 V 111.879"
         style="fill:none;stroke:#231f20;stroke-width:5;stroke-linecap:butt;stroke-linejoin:miter;stroke-miterlimit:10;stroke-dasharray:none;stroke-opacity:1"
         transform="matrix(0.13333333,0,0,-0.13333333,0,52.826667)" />
      <path
         id="path5"
         d="M 776.594,239.848 V 111.879"
         style="fill:none;stroke:#231f20;stroke-width:5;stroke-linecap:butt;stroke-linejoin:miter;stroke-miterlimit:10;stroke-dasharray:none;stroke-opacity:1"
         transform="matrix(0.13333333,0,0,-0.13333333,0,52.826667)" />
      <path
         id="path6"
         d="M 1029.46,239.848 V 111.879"
         style="fill:none;stroke:#231f20;stroke-width:5;stroke-linecap:butt;stroke-linejoin:miter;stroke-miterlimit:10;stroke-dasharray:none;stroke-opacity:1"
         transform="matrix(0.13333333,0,0,-0.13333333,0,52.826667)" />
      <path
         id="path7"
         d="M 1280.34,239.848 V 111.879"
         style="fill:none;stroke:#231f20;stroke-width:5;stroke-linecap:butt;stroke-linejoin:miter;stroke-miterlimit:10;stroke-dasharray:none;stroke-opacity:1"
         transform="matrix(0.13333333,0,0,-0.13333333,0,52.826667)" />
      <path
         id="path8"
         d="M 1533.23,239.848 V 111.879"
         style="fill:none;stroke:#231f20;stroke-width:5;stroke-linecap:butt;stroke-linejoin:miter;stroke-miterlimit:10;stroke-dasharray:none;stroke-opacity:1"
         transform="matrix(0.13333333,0,0,-0.13333333,0,52.826667)" />
      <path
         id="path9"
         d="M 1784.1,239.848 V 111.879"
         style="fill:none;stroke:#231f20;stroke-width:5;stroke-linecap:butt;stroke-linejoin:miter;stroke-miterlimit:10;stroke-dasharray:none;stroke-opacity:1"
         transform="matrix(0.13333333,0,0,-0.13333333,0,52.826667)" />
      <path
         id="path10"
         d="m 668.469,272.629 c 0,-9.988 -8.098,-18.082 -18.086,-18.082 -9.988,0 -18.086,8.094 -18.086,18.082 0,9.988 8.098,18.086 18.086,18.086 9.988,0 18.086,-8.098 18.086,-18.086"
         style="fill:#231f20;fill-opacity:1;fill-rule:nonzero;stroke:none"
         transform="matrix(0.13333333,0,0,-0.13333333,0,52.826667)" />
      <path
         id="path11"
         d="m 650.383,270.434 v -97"
         style="fill:none;stroke:#231f20;stroke-width:5;stroke-linecap:butt;stroke-linejoin:miter;stroke-miterlimit:10;stroke-dasharray:20, 15;stroke-dashoffset:0;stroke-opacity:1"
         transform="matrix(0.13333333,0,0,-0.13333333,0,52.826667)" />
      <path
         id="path12"
         d="m 921.184,272.629 c 0,-9.988 -8.098,-18.082 -18.086,-18.082 -9.993,0 -18.086,8.094 -18.086,18.082 0,9.988 8.093,18.086 18.086,18.086 9.988,0 18.086,-8.098 18.086,-18.086"
         style="fill:#231f20;fill-opacity:1;fill-rule:nonzero;stroke:none"
         transform="matrix(0.13333333,0,0,-0.13333333,0,52.826667)" />
      <path
         id="path13"
         d="m 903.098,270.434 v -97"
         style="fill:none;stroke:#231f20;stroke-width:5;stroke-linecap:butt;stroke-linejoin:miter;stroke-miterlimit:10;stroke-dasharray:20, 15;stroke-dashoffset:0;stroke-opacity:1"
         transform="matrix(0.13333333,0,0,-0.13333333,0,52.826667)" />
      <path
         id="path14"
         d="m 1679.31,272.629 c 0,-9.988 -8.1,-18.082 -18.09,-18.082 -9.99,0 -18.09,8.094 -18.09,18.082 0,9.988 8.1,18.086 18.09,18.086 9.99,0 18.09,-8.098 18.09,-18.086"
         style="fill:#231f20;fill-opacity:1;fill-rule:nonzero;stroke:none"
         transform="matrix(0.13333333,0,0,-0.13333333,0,52.826667)" />
      <path
         id="path15"
         d="m 1661.22,270.434 v -97"
         style="fill:none;stroke:#231f20;stroke-width:5;stroke-linecap:butt;stroke-linejoin:miter;stroke-miterlimit:10;stroke-dasharray:20, 15;stroke-dashoffset:0;stroke-opacity:1"
         transform="matrix(0.13333333,0,0,-0.13333333,0,52.826667)" />
      <path
         id="path16"
         d="m 1426.6,272.629 c 0,-9.988 -8.1,-18.082 -18.08,-18.082 -9.99,0 -18.1,8.094 -18.1,18.082 0,9.988 8.11,18.086 18.1,18.086 9.98,0 18.08,-8.098 18.08,-18.086"
         style="fill:#231f20;fill-opacity:1;fill-rule:nonzero;stroke:none"
         transform="matrix(0.13333333,0,0,-0.13333333,0,52.826667)" />
      <path
         id="path17"
         d="m 1408.52,270.434 v -97"
         style="fill:none;stroke:#231f20;stroke-width:5;stroke-linecap:butt;stroke-linejoin:miter;stroke-miterlimit:10;stroke-dasharray:20, 15;stroke-dashoffset:0;stroke-opacity:1"
         transform="matrix(0.13333333,0,0,-0.13333333,0,52.826667)" />
      <path
         id="path18"
         d="m 1173.89,272.629 c 0,-9.988 -8.1,-18.082 -18.09,-18.082 -9.99,0 -18.09,8.094 -18.09,18.082 0,9.988 8.1,18.086 18.09,18.086 9.99,0 18.09,-8.098 18.09,-18.086"
         style="fill:#231f20;fill-opacity:1;fill-rule:nonzero;stroke:none"
         transform="matrix(0.13333333,0,0,-0.13333333,0,52.826667)" />
      <path
         id="path19"
         d="m 1155.8,270.434 v -97"
         style="fill:none;stroke:#231f20;stroke-width:5;stroke-linecap:butt;stroke-linejoin:miter;stroke-miterlimit:10;stroke-dasharray:20, 15;stroke-dashoffset:0;stroke-opacity:1"
         transform="matrix(0.13333333,0,0,-0.13333333,0,52.826667)" />
    </g>
  </g>
</svg>
