<?xml version="1.0" encoding="UTF-8" standalone="no"?>
<!-- Created with Inkscape (http://www.inkscape.org/) -->

<svg
   version="1.1"
   id="svg1"
   width="357.81332"
   height="103.53333"
   viewBox="0 0 357.81332 103.53333"
   sodipodi:docname="pha08f21.eps"
   xmlns:inkscape="http://www.inkscape.org/namespaces/inkscape"
   xmlns:sodipodi="http://sodipodi.sourceforge.net/DTD/sodipodi-0.dtd"
   xmlns="http://www.w3.org/2000/svg"
   xmlns:svg="http://www.w3.org/2000/svg">
  <defs
     id="defs1" />
  <sodipodi:namedview
     id="namedview1"
     pagecolor="#ffffff"
     bordercolor="#000000"
     borderopacity="0.25"
     inkscape:showpageshadow="2"
     inkscape:pageopacity="0.0"
     inkscape:pagecheckerboard="0"
     inkscape:deskcolor="#d1d1d1">
    <inkscape:page
       x="0"
       y="0"
       inkscape:label="1"
       id="page1"
       width="357.81332"
       height="103.53333"
       margin="0"
       bleed="0" />
  </sodipodi:namedview>
  <g
     id="g1"
     inkscape:groupmode="layer"
     inkscape:label="1">
    <g
       id="group-R5">
      <path
         id="path2"
         d="m 839.496,98.2305 h -630 V 728.23 h 630 z"
         style="fill:none;stroke:#231f20;stroke-width:5;stroke-linecap:butt;stroke-linejoin:miter;stroke-miterlimit:10;stroke-dasharray:none;stroke-opacity:1"
         transform="matrix(0.13333333,0,0,-0.13333333,0,103.53333)" />
      <g
         id="g2"
         aria-label="[x, y, t, u, v, (u&#10;0&#10;, u&#10;1&#10;), (u&#10;2&#10;, u&#10;3&#10;), (u&#10;4&#10;, u&#10;5&#10;), (u&#10;6&#10;, u&#10;7&#10;)]&#10;(3, 8)"
         transform="matrix(1.3333333,0,0,1.3333333,142.48933,9.9026667)">
        <path
           id="path3"
           d="M 2.6124922,1.4646016 V 1.2185078 C 1.6515547,1.1364766 1.6281172,1.1013203 1.6281172,0.39819531 V -5.2619609 c 0,-0.6914063 0.023437,-0.7382813 0.984375,-0.8085938 V -6.3283672 H 1.0773359 v 7.7929688 z m 0,0"
           style="fill:#231f20;fill-opacity:1;fill-rule:nonzero;stroke:none" />
        <path
           id="path4"
           d="m 3.8781172,-2.9182109 c 0.3164062,-0.3984375 0.4921875,-0.515625 0.5742187,-0.515625 0.09375,0 0.1757813,0.1289062 0.3046875,0.5742187 l 0.3046875,0.9375 c -0.5625,0.8320313 -0.984375,1.35937501 -1.2421875,1.35937501 -0.09375,0 -0.1640625,-0.0351563 -0.2109375,-0.09375 -0.046875,-0.0585938 -0.09375,-0.09375 -0.140625,-0.09375 -0.1757812,0 -0.3632812,0.2109375 -0.3632812,0.421875 -0.011719,0.2578125 0.1757812,0.43359375 0.4101562,0.43359375 0.421875,0 0.84375,-0.43359375 1.640625,-1.69921876 l 0.28125,0.87890626 c 0.1757813,0.5625 0.3632813,0.8203125 0.5976563,0.8203125 0.3046875,0 0.7265625,-0.328125 1.1367187,-0.97265625 L 7.0187422,-1.0432109 c -0.28125,0.33984371 -0.5039063,0.51562496 -0.6445313,0.51562496 -0.1523437,0 -0.28125,-0.2578125 -0.4570312,-0.82031246 L 5.6242109,-2.2502422 c 0.1992188,-0.28125 0.3984375,-0.5273437 0.5859375,-0.7382812 0.234375,-0.2929688 0.4101563,-0.4453125 0.5390625,-0.4453125 0.082031,0 0.1523438,0.035156 0.2109375,0.1054687 0.046875,0.046875 0.082031,0.070312 0.1289063,0.070312 0.140625,0 0.3398437,-0.1757812 0.3515625,-0.3984375 0,-0.1992187 -0.140625,-0.3867187 -0.375,-0.3867187 -0.3984375,0 -0.7851563,0.3867187 -1.5351563,1.4765625 l -0.1523437,-0.492187 c -0.2226563,-0.6445313 -0.3398438,-0.984375 -0.5859375,-0.984375 -0.2929688,0 -0.6914063,0.3867187 -1.0664063,0.9375 z m 0,0"
           style="fill:#231f20;fill-opacity:1;fill-rule:nonzero;stroke:none" />
        <path
           id="path5"
           d="m 8.2052656,-1.1603984 c -0.2109375,0 -0.4335937,0.140625 -0.4335937,0.36328121 0,0.15234375 0.070312,0.22265625 0.1171875,0.234375 0.3046875,0.0703125 0.5625,0.26953125 0.5625,0.59765625 0,0.33984375 -0.2578125,0.57421875 -0.6914063,0.76171875 l 0.09375,0.25781249 c 0.5507813,-0.16406249 1.1835938,-0.55078124 1.1835938,-1.24218749 0,-0.6328125 -0.5039063,-0.97265621 -0.8320313,-0.97265621 z m 0,0"
           style="fill:#231f20;fill-opacity:1;fill-rule:nonzero;stroke:none" />
        <path
           id="path6"
           d="M 13.613469,-0.67992969 C 13.554875,-1.4885234 13.496281,-2.3088359 13.402531,-2.9885234 13.332219,-3.7033672 13.191594,-4.0432109 12.9455,-4.0432109 c -0.328125,0 -0.773437,0.515625 -1.066406,0.9609375 l 0.152344,0.2109375 c 0.222656,-0.3164063 0.457031,-0.5273438 0.527343,-0.5273438 0.07031,0 0.117188,0.1171875 0.1875,0.5625 0.128907,0.8203125 0.269532,2.22656251 0.28125,2.92968751 -0.445312,0.59765625 -1.160156,1.39453129 -2.121093,2.01562499 l 0.07031,0.1992188 0.9375,-0.234375 c 0.503906,-0.5625 1.089844,-1.35937504 1.617188,-2.12109379 0.480468,-0.66796875 1.242187,-1.86328121 1.628906,-2.54296871 0.234375,-0.3984375 0.328125,-0.703125 0.316406,-0.9609375 0,-0.2929688 -0.152344,-0.4921875 -0.351562,-0.4921875 -0.152344,0 -0.316407,0.1054687 -0.375,0.2460937 -0.03516,0.070312 -0.04687,0.1640625 -0.01172,0.2226563 0.03516,0.1054687 0.09375,0.2460937 0.09375,0.421875 0.01172,0.65625 -0.820313,1.8867187 -1.207031,2.47265621 z m 0,0"
           style="fill:#231f20;fill-opacity:1;fill-rule:nonzero;stroke:none" />
        <path
           id="path7"
           d="m 16.276555,-1.1603984 c -0.210938,0 -0.433594,0.140625 -0.433594,0.36328121 0,0.15234375 0.07031,0.22265625 0.117187,0.234375 0.304688,0.0703125 0.5625,0.26953125 0.5625,0.59765625 0,0.33984375 -0.257812,0.57421875 -0.691406,0.76171875 l 0.09375,0.25781249 c 0.550781,-0.16406249 1.183594,-0.55078124 1.183594,-1.24218749 0,-0.6328125 -0.503906,-0.97265621 -0.832031,-0.97265621 z m 0,0"
           style="fill:#231f20;fill-opacity:1;fill-rule:nonzero;stroke:none" />
        <path
           id="path8"
           d="m 22.575383,-3.9025859 h -1.054688 l 0.316407,-1.359375 -0.08203,-0.046875 -0.679687,0.5507812 -0.210938,0.8554688 h -0.539062 l -0.222656,0.2695312 0.02344,0.082031 h 0.667969 l -0.527344,2.4726562 c -0.199219,0.92578126 -0.02344,1.18359376 0.1875,1.18359376 0.480469,0 1.148438,-0.59765625 1.453125,-0.9609375 L 21.778508,-1.0432109 c -0.210938,0.22265621 -0.65625,0.51562496 -0.808594,0.51562496 -0.105469,0 -0.140625,-0.09375 -0.05859,-0.53906246 l 0.539063,-2.484375 0.890625,-0.035156 z m 0,0"
           style="fill:#231f20;fill-opacity:1;fill-rule:nonzero;stroke:none" />
        <path
           id="path9"
           d="m 23.134953,-1.1603984 c -0.210937,0 -0.433594,0.140625 -0.433594,0.36328121 0,0.15234375 0.07031,0.22265625 0.117188,0.234375 0.304687,0.0703125 0.5625,0.26953125 0.5625,0.59765625 0,0.33984375 -0.257813,0.57421875 -0.691406,0.76171875 l 0.09375,0.25781249 c 0.550781,-0.16406249 1.183593,-0.55078124 1.183593,-1.24218749 0,-0.6328125 -0.503906,-0.97265621 -0.832031,-0.97265621 z m 0,0"
           style="fill:#231f20;fill-opacity:1;fill-rule:nonzero;stroke:none" />
        <path
           id="path10"
           d="m 30.816594,-1.0314922 c -0.246094,0.25781251 -0.574219,0.46875001 -0.644531,0.46875001 -0.07031,0 -0.08203,-0.0703125 -0.03516,-0.3515625 0.222657,-1.16015621 0.457032,-2.16796871 0.703125,-3.12890621 h -0.09375 l -0.621093,0.234375 c -0.117188,0.5507812 -0.222657,1.03125 -0.328125,1.4414062 -0.351563,0.65625 -1.359375,1.86328126 -1.863282,1.86328126 -0.128906,0 -0.210937,-0.15234375 -0.105468,-0.59765626 0.164062,-0.7148437 0.328125,-1.4414062 0.492187,-2.15625 0.140625,-0.5976562 0.105469,-0.7851562 -0.09375,-0.7851562 -0.246094,0 -0.808594,0.328125 -1.324219,0.84375 l 0.09375,0.2226562 c 0.316407,-0.2578125 0.574219,-0.4335937 0.632813,-0.4335937 0.07031,0 0.08203,0.082031 0.02344,0.3046875 -0.164062,0.6796875 -0.316406,1.3828125 -0.480468,2.0742187 -0.234375,0.97265626 0.04687,1.13671876 0.292968,1.13671876 0.222657,0 0.480469,-0.09375 0.726563,-0.28125 0.480469,-0.328125 1.007812,-0.87890626 1.453125,-1.46484376 h 0.02344 c -0.07031,0.3046875 -0.105468,0.4804688 -0.175781,0.79687501 -0.175781,0.78515625 -0.05859,0.94921875 0.128906,0.94921875 0.28125,0 0.878907,-0.3984375 1.3125,-0.9140625 z m 0,0"
           style="fill:#231f20;fill-opacity:1;fill-rule:nonzero;stroke:none" />
        <path
           id="path11"
           d="m 32.026555,-1.1603984 c -0.210938,0 -0.433594,0.140625 -0.433594,0.36328121 0,0.15234375 0.07031,0.22265625 0.117187,0.234375 0.304688,0.0703125 0.5625,0.26953125 0.5625,0.59765625 0,0.33984375 -0.257812,0.57421875 -0.691406,0.76171875 l 0.09375,0.25781249 c 0.550781,-0.16406249 1.183594,-0.55078124 1.183594,-1.24218749 0,-0.6328125 -0.503906,-0.97265621 -0.832031,-0.97265621 z m 0,0"
           style="fill:#231f20;fill-opacity:1;fill-rule:nonzero;stroke:none" />
        <path
           id="path12"
           d="M 37.247258,-0.78539844 C 37.22382,-1.5236797 37.165227,-2.2502422 37.13007,-3.0471172 c -0.04687,-0.65625 -0.164062,-0.9960937 -0.398437,-0.9960937 -0.28125,0 -0.738281,0.46875 -1.066406,0.9375 l 0.140625,0.1992187 c 0.292968,-0.328125 0.457031,-0.4804687 0.539062,-0.4804687 0.05859,0 0.117188,0.1523437 0.152344,0.6914062 0.04687,0.5507813 0.152344,1.96875001 0.175781,2.80078126 h 0.246094 c 0.539062,-0.66796875 1.335937,-1.69921876 1.863281,-2.42578126 0.410156,-0.5742187 0.550781,-0.9257812 0.550781,-1.2070312 0,-0.3046875 -0.164062,-0.515625 -0.386718,-0.515625 -0.164063,0 -0.316407,0.1171875 -0.386719,0.2578125 -0.02344,0.082031 -0.02344,0.1523437 0,0.234375 0.07031,0.09375 0.105469,0.234375 0.105469,0.3867187 0,0.609375 -1.03125,1.921875 -1.394532,2.37890626 z m 0,0"
           style="fill:#231f20;fill-opacity:1;fill-rule:nonzero;stroke:none" />
        <path
           id="path13"
           d="m 40.144719,-1.1603984 c -0.210938,0 -0.433594,0.140625 -0.433594,0.36328121 0,0.15234375 0.07031,0.22265625 0.117188,0.234375 0.304687,0.0703125 0.5625,0.26953125 0.5625,0.59765625 0,0.33984375 -0.257813,0.57421875 -0.691407,0.76171875 l 0.09375,0.25781249 c 0.550782,-0.16406249 1.183594,-0.55078124 1.183594,-1.24218749 0,-0.6328125 -0.503906,-0.97265621 -0.832031,-0.97265621 z m 5.947265,2.484375 c -0.890625,-0.76171879 -1.40625,-2.20312504 -1.40625,-3.75 0,-1.546875 0.515625,-3 1.40625,-3.75 l -0.152343,-0.2109375 c -1.324219,0.9023437 -1.910157,2.3320312 -1.910157,3.9492187 0,1.62890626 0.585938,3.08203126 1.910157,3.9609375 z m 0,0"
           style="fill:#231f20;fill-opacity:1;fill-rule:nonzero;stroke:none" />
        <path
           id="path14"
           d="m 50.940617,-1.0314922 c -0.246094,0.25781251 -0.574219,0.46875001 -0.644531,0.46875001 -0.07031,0 -0.08203,-0.0703125 -0.03516,-0.3515625 0.222656,-1.16015621 0.457031,-2.16796871 0.703125,-3.12890621 h -0.09375 l -0.621094,0.234375 c -0.117188,0.5507812 -0.222656,1.03125 -0.328125,1.4414062 -0.351563,0.65625 -1.359375,1.86328126 -1.863281,1.86328126 -0.128907,0 -0.210938,-0.15234375 -0.105469,-0.59765626 0.164062,-0.7148437 0.328125,-1.4414062 0.492187,-2.15625 0.140625,-0.5976562 0.105469,-0.7851562 -0.09375,-0.7851562 -0.246093,0 -0.808593,0.328125 -1.324218,0.84375 l 0.09375,0.2226562 c 0.316406,-0.2578125 0.574218,-0.4335937 0.632812,-0.4335937 0.07031,0 0.08203,0.082031 0.02344,0.3046875 -0.164063,0.6796875 -0.316407,1.3828125 -0.480469,2.0742187 -0.234375,0.97265626 0.04687,1.13671876 0.292969,1.13671876 0.222656,0 0.480468,-0.09375 0.726562,-0.28125 0.480469,-0.328125 1.007813,-0.87890626 1.453125,-1.46484376 h 0.02344 c -0.07031,0.3046875 -0.105469,0.4804688 -0.175782,0.79687501 -0.175781,0.78515625 -0.05859,0.94921875 0.128907,0.94921875 0.28125,0 0.878906,-0.3984375 1.3125,-0.9140625 z m 0,0"
           style="fill:#231f20;fill-opacity:1;fill-rule:nonzero;stroke:none" />
        <path
           id="path15"
           d="m 53.463078,-3.7180156 c -1.347656,0 -1.839844,1.6054687 -1.839844,2.91796873 0,1.41796875 0.480469,2.90624997 1.839844,2.90624997 1.359375,0 1.828125,-1.59374997 1.828125,-2.91796872 0,-1.38281248 -0.46875,-2.90624998 -1.828125,-2.90624998 z m 0,0.3046875 c 0.808594,0 1.03125,1.3242187 1.03125,2.60156248 0,1.265625 -0.222656,2.61328122 -1.03125,2.61328122 -0.773437,0 -1.042969,-1.35937497 -1.042969,-2.61328122 0,-1.25390628 0.222657,-2.60156248 1.042969,-2.60156248 z m 1.567383,2.2529297 c -0.210938,0 -0.433594,0.140625 -0.433594,0.36328121 0,0.15234375 0.07031,0.22265625 0.117188,0.234375 0.304687,0.0703125 0.5625,0.26953125 0.5625,0.59765625 0,0.33984375 -0.257813,0.57421875 -0.691407,0.76171875 l 0.09375,0.25781249 c 0.550782,-0.16406249 1.183594,-0.55078124 1.183594,-1.24218749 0,-0.6328125 -0.503906,-0.97265621 -0.832031,-0.97265621 z m 0,0"
           style="fill:#231f20;fill-opacity:1;fill-rule:nonzero;stroke:none" />
        <path
           id="path16"
           d="m 62.712102,-1.0314922 c -0.246094,0.25781251 -0.574219,0.46875001 -0.644532,0.46875001 -0.07031,0 -0.08203,-0.0703125 -0.03516,-0.3515625 0.222656,-1.16015621 0.457031,-2.16796871 0.703125,-3.12890621 h -0.09375 l -0.621094,0.234375 c -0.117187,0.5507812 -0.222656,1.03125 -0.328125,1.4414062 -0.351562,0.65625 -1.359375,1.86328126 -1.863281,1.86328126 -0.128906,0 -0.210937,-0.15234375 -0.105469,-0.59765626 0.164063,-0.7148437 0.328125,-1.4414062 0.492188,-2.15625 0.140625,-0.5976562 0.105469,-0.7851562 -0.09375,-0.7851562 -0.246094,0 -0.808594,0.328125 -1.324219,0.84375 l 0.09375,0.2226562 c 0.316406,-0.2578125 0.574219,-0.4335937 0.632813,-0.4335937 0.07031,0 0.08203,0.082031 0.02344,0.3046875 -0.164062,0.6796875 -0.316406,1.3828125 -0.480469,2.0742187 -0.234375,0.97265626 0.04687,1.13671876 0.292969,1.13671876 0.222656,0 0.480469,-0.09375 0.726563,-0.28125 0.480468,-0.328125 1.007812,-0.87890626 1.453125,-1.46484376 h 0.02344 c -0.07031,0.3046875 -0.105469,0.4804688 -0.175781,0.79687501 -0.175781,0.78515625 -0.05859,0.94921875 0.128906,0.94921875 0.28125,0 0.878906,-0.3984375 1.3125,-0.9140625 z m 0,0"
           style="fill:#231f20;fill-opacity:1;fill-rule:nonzero;stroke:none" />
        <path
           id="path17"
           d="M 66.535344,2.0007344 V 1.7546406 C 65.715031,1.6960469 65.656438,1.6257344 65.656438,0.96948438 V -3.7180156 c -0.492188,0.1992187 -1.019532,0.375 -1.59375,0.46875 v 0.2109375 l 0.433593,0.011719 c 0.386719,0.023437 0.421875,0.070312 0.421875,0.5390625 v 3.45703128 c 0,0.65625002 -0.03516,0.72656252 -0.855468,0.78515622 v 0.2460938 z m -0.166992,-8.1767578 c 0.890625,0.7382812 1.417968,2.203125 1.417968,3.75 0,1.54687496 -0.503906,2.98828121 -1.417968,3.75 l 0.164062,0.1992187 c 1.347656,-0.91406249 1.898438,-2.33203124 1.898438,-3.9492187 0,-1.6289063 -0.550782,-3.0585938 -1.898438,-3.9609375 z m 3.547851,5.015625 c -0.210937,0 -0.433594,0.140625 -0.433594,0.36328121 0,0.15234375 0.07031,0.22265625 0.117188,0.234375 0.304687,0.0703125 0.5625,0.26953125 0.5625,0.59765625 0,0.33984375 -0.257813,0.57421875 -0.691406,0.76171875 l 0.09375,0.25781249 c 0.550781,-0.16406249 1.183593,-0.55078124 1.183593,-1.24218749 0,-0.6328125 -0.503906,-0.97265621 -0.832031,-0.97265621 z m 5.947266,2.484375 c -0.890625,-0.76171879 -1.40625,-2.20312504 -1.40625,-3.75 0,-1.546875 0.515625,-3 1.40625,-3.75 l -0.152344,-0.2109375 c -1.324219,0.9023437 -1.910156,2.3320312 -1.910156,3.9492187 0,1.62890626 0.585937,3.08203126 1.910156,3.9609375 z m 0,0"
           style="fill:#231f20;fill-opacity:1;fill-rule:nonzero;stroke:none" />
        <path
           id="path18"
           d="m 80.712102,-1.0314922 c -0.246094,0.25781251 -0.574219,0.46875001 -0.644532,0.46875001 -0.07031,0 -0.08203,-0.0703125 -0.03516,-0.3515625 0.222656,-1.16015621 0.457031,-2.16796871 0.703125,-3.12890621 h -0.09375 l -0.621094,0.234375 c -0.117187,0.5507812 -0.222656,1.03125 -0.328125,1.4414062 -0.351562,0.65625 -1.359375,1.86328126 -1.863281,1.86328126 -0.128906,0 -0.210937,-0.15234375 -0.105469,-0.59765626 0.164063,-0.7148437 0.328125,-1.4414062 0.492188,-2.15625 0.140625,-0.5976562 0.105469,-0.7851562 -0.09375,-0.7851562 -0.246094,0 -0.808594,0.328125 -1.324219,0.84375 l 0.09375,0.2226562 c 0.316406,-0.2578125 0.574219,-0.4335937 0.632813,-0.4335937 0.07031,0 0.08203,0.082031 0.02344,0.3046875 -0.164062,0.6796875 -0.316406,1.3828125 -0.480469,2.0742187 -0.234375,0.97265626 0.04687,1.13671876 0.292969,1.13671876 0.222656,0 0.480469,-0.09375 0.726563,-0.28125 0.480468,-0.328125 1.007812,-0.87890626 1.453125,-1.46484376 h 0.02344 c -0.07031,0.3046875 -0.105469,0.4804688 -0.175781,0.79687501 -0.175781,0.78515625 -0.05859,0.94921875 0.128906,0.94921875 0.28125,0 0.878906,-0.3984375 1.3125,-0.9140625 z m 0,0"
           style="fill:#231f20;fill-opacity:1;fill-rule:nonzero;stroke:none" />
        <path
           id="path19"
           d="M 84.781438,0.73510938 C 84.511906,1.3093281 84.394719,1.3444844 83.91425,1.3444844 h -1.6875 l 1.277344,-1.33593752 c 0.832031,-0.890625 1.195312,-1.41796878 1.195312,-2.20312498 0,-0.9492188 -0.726562,-1.5234375 -1.511718,-1.5234375 -0.527344,0 -0.949219,0.234375 -1.21875,0.5390625 l -0.515625,0.7265625 0.199218,0.1757812 c 0.234375,-0.3515625 0.609375,-0.8320312 1.230469,-0.8320312 0.65625,0 1.054688,0.4335937 1.054688,1.1953125 0,0.7734375 -0.5625,1.51171873 -1.125,2.17968748 -0.445313,0.515625 -0.949219,1.03125002 -1.453125,1.52343752 v 0.2109375 h 3.363281 c 0.105469,-0.4101563 0.199219,-0.796875 0.316406,-1.18359377 z m 0.02051,-1.89550778 c -0.210937,0 -0.433593,0.140625 -0.433593,0.36328121 0,0.15234375 0.07031,0.22265625 0.117187,0.234375 0.304688,0.0703125 0.5625,0.26953125 0.5625,0.59765625 0,0.33984375 -0.257812,0.57421875 -0.691406,0.76171875 l 0.09375,0.25781249 c 0.550781,-0.16406249 1.183594,-0.55078124 1.183594,-1.24218749 0,-0.6328125 -0.503907,-0.97265621 -0.832032,-0.97265621 z m 0,0"
           style="fill:#231f20;fill-opacity:1;fill-rule:nonzero;stroke:none" />
        <path
           id="path20"
           d="m 92.483586,-1.0314922 c -0.246094,0.25781251 -0.574219,0.46875001 -0.644531,0.46875001 -0.07031,0 -0.08203,-0.0703125 -0.03516,-0.3515625 0.222657,-1.16015621 0.457032,-2.16796871 0.703125,-3.12890621 h -0.09375 l -0.621093,0.234375 c -0.117188,0.5507812 -0.222657,1.03125 -0.328125,1.4414062 -0.351563,0.65625 -1.359375,1.86328126 -1.863282,1.86328126 -0.128906,0 -0.210937,-0.15234375 -0.105468,-0.59765626 0.164062,-0.7148437 0.328125,-1.4414062 0.492187,-2.15625 0.140625,-0.5976562 0.105469,-0.7851562 -0.09375,-0.7851562 -0.246094,0 -0.808594,0.328125 -1.324219,0.84375 l 0.09375,0.2226562 c 0.316407,-0.2578125 0.574219,-0.4335937 0.632813,-0.4335937 0.07031,0 0.08203,0.082031 0.02344,0.3046875 -0.164062,0.6796875 -0.316406,1.3828125 -0.480468,2.0742187 -0.234375,0.97265626 0.04687,1.13671876 0.292968,1.13671876 0.222657,0 0.480469,-0.09375 0.726563,-0.28125 0.480469,-0.328125 1.007812,-0.87890626 1.453125,-1.46484376 h 0.02344 c -0.07031,0.3046875 -0.105468,0.4804688 -0.175781,0.79687501 -0.175781,0.78515625 -0.05859,0.94921875 0.128906,0.94921875 0.28125,0 0.878907,-0.3984375 1.3125,-0.9140625 z m 0,0"
           style="fill:#231f20;fill-opacity:1;fill-rule:nonzero;stroke:none" />
        <path
           id="path21"
           d="m 93.611516,-2.4641094 c 0.222656,-0.328125 0.585937,-0.7148437 1.078125,-0.7148437 0.480468,0 0.855468,0.2929687 0.855468,0.8554687 0,0.65625 -0.609375,1.0078125 -1.429687,1.2773438 l 0.05859,0.25781248 c 0.140625,-0.046875 0.363281,-0.10546875 0.574218,-0.10546875 0.515625,0 1.148438,0.33984375 1.148438,1.171875 0,0.89062497 -0.457031,1.35937497 -1.089844,1.35937497 -0.515625,0 -0.890625,-0.2460937 -1.125,-0.4570312 -0.07031,-0.058594 -0.140625,-0.046875 -0.210937,0 -0.08203,0.058594 -0.199219,0.1757812 -0.210938,0.2929687 -0.01172,0.1171875 0.02344,0.2109375 0.152344,0.328125 0.117187,0.1054688 0.480469,0.3046875 0.890625,0.3046875 0.65625,0 2.367187,-0.6679687 2.367187,-2.12109372 0,-0.65625 -0.46875,-1.21874998 -1.253906,-1.37109378 v -0.011719 c 0.257813,-0.1875 0.480469,-0.3398438 0.609375,-0.4921875 0.175781,-0.1640625 0.28125,-0.375 0.28125,-0.6328125 0,-0.6914063 -0.527344,-1.1953125 -1.347656,-1.1953125 -0.46875,0 -0.890625,0.234375 -1.136719,0.5039062 l -0.398437,0.5742188 z m 2.52832,-3.711914 c 0.890625,0.7382812 1.417969,2.203125 1.417969,3.75 0,1.54687496 -0.503907,2.98828121 -1.417969,3.75 l 0.164062,0.1992187 c 1.347657,-0.91406249 1.898438,-2.33203124 1.898438,-3.9492187 0,-1.6289063 -0.550781,-3.0585938 -1.898438,-3.9609375 z m 3.547852,5.015625 c -0.210938,0 -0.433594,0.140625 -0.433594,0.36328121 0,0.15234375 0.07031,0.22265625 0.117187,0.234375 0.304688,0.0703125 0.5625,0.26953125 0.5625,0.59765625 0,0.33984375 -0.257812,0.57421875 -0.691406,0.76171875 l 0.09375,0.25781249 c 0.550781,-0.16406249 1.183595,-0.55078124 1.183595,-1.24218749 0,-0.6328125 -0.50391,-0.97265621 -0.832032,-0.97265621 z m 5.947262,2.484375 c -0.89062,-0.76171879 -1.40625,-2.20312504 -1.40625,-3.75 0,-1.546875 0.51563,-3 1.40625,-3.75 l -0.15234,-0.2109375 c -1.32422,0.9023437 -1.91016,2.3320312 -1.91016,3.9492187 0,1.62890626 0.58594,3.08203126 1.91016,3.9609375 z m 0,0"
           style="fill:#231f20;fill-opacity:1;fill-rule:nonzero;stroke:none" />
        <path
           id="path22"
           d="m 110.48359,-1.0314922 c -0.2461,0.25781251 -0.57422,0.46875001 -0.64454,0.46875001 -0.0703,0 -0.082,-0.0703125 -0.0352,-0.3515625 0.22265,-1.16015621 0.45703,-2.16796871 0.70312,-3.12890621 h -0.0937 l -0.62109,0.234375 c -0.11719,0.5507812 -0.22266,1.03125 -0.32813,1.4414062 -0.35156,0.65625 -1.35937,1.86328126 -1.86328,1.86328126 -0.1289,0 -0.21093,-0.15234375 -0.10547,-0.59765626 0.16407,-0.7148437 0.32813,-1.4414062 0.49219,-2.15625 0.14063,-0.5976562 0.10547,-0.7851562 -0.0937,-0.7851562 -0.24609,0 -0.80859,0.328125 -1.32422,0.84375 l 0.0937,0.2226562 c 0.31641,-0.2578125 0.57422,-0.4335937 0.63282,-0.4335937 0.0703,0 0.082,0.082031 0.0234,0.3046875 -0.16406,0.6796875 -0.3164,1.3828125 -0.48047,2.0742187 -0.23437,0.97265626 0.0469,1.13671876 0.29297,1.13671876 0.22266,0 0.48047,-0.09375 0.72657,-0.28125 0.48046,-0.328125 1.00781,-0.87890626 1.45312,-1.46484376 h 0.0234 c -0.0703,0.3046875 -0.10547,0.4804688 -0.17578,0.79687501 -0.17578,0.78515625 -0.0586,0.94921875 0.1289,0.94921875 0.28125,0 0.87891,-0.3984375 1.3125,-0.9140625 z m 0,0"
           style="fill:#231f20;fill-opacity:1;fill-rule:nonzero;stroke:none" />
        <path
           id="path23"
           d="m 114.95136,0.39526563 v -0.421875 h -0.86719 V -3.6828594 h -0.35156 c -0.92578,1.21875 -1.85156,2.5546875 -2.70703,3.83203128 v 0.24609375 h 2.34375 V 1.0515156 c 0,0.5859375 -0.0352,0.6445313 -0.82031,0.703125 v 0.2460938 h 2.30859 V 1.7546406 c -0.72656,-0.058594 -0.77344,-0.1054687 -0.77344,-0.703125 V 0.39526563 Z m -1.58203,-0.421875 h -1.76953 c 0.58593,-0.99609373 1.17187,-1.85156253 1.75781,-2.64843753 h 0.0117 z m 1.2041,-1.13378903 c -0.21094,0 -0.43359,0.140625 -0.43359,0.36328121 0,0.15234375 0.0703,0.22265625 0.11718,0.234375 0.30469,0.0703125 0.5625,0.26953125 0.5625,0.59765625 0,0.33984375 -0.25781,0.57421875 -0.6914,0.76171875 l 0.0937,0.25781249 c 0.55078,-0.16406249 1.18359,-0.55078124 1.18359,-1.24218749 0,-0.6328125 -0.50391,-0.97265621 -0.83203,-0.97265621 z m 0,0"
           style="fill:#231f20;fill-opacity:1;fill-rule:nonzero;stroke:none" />
        <path
           id="path24"
           d="m 122.25507,-1.0314922 c -0.24609,0.25781251 -0.57422,0.46875001 -0.64453,0.46875001 -0.0703,0 -0.082,-0.0703125 -0.0352,-0.3515625 0.22266,-1.16015621 0.45703,-2.16796871 0.70313,-3.12890621 h -0.0937 l -0.6211,0.234375 c -0.11718,0.5507812 -0.22265,1.03125 -0.32812,1.4414062 -0.35156,0.65625 -1.35938,1.86328126 -1.86328,1.86328126 -0.12891,0 -0.21094,-0.15234375 -0.10547,-0.59765626 0.16406,-0.7148437 0.32812,-1.4414062 0.49219,-2.15625 0.14062,-0.5976562 0.10547,-0.7851562 -0.0937,-0.7851562 -0.2461,0 -0.8086,0.328125 -1.32422,0.84375 l 0.0937,0.2226562 c 0.3164,-0.2578125 0.57422,-0.4335937 0.63281,-0.4335937 0.0703,0 0.082,0.082031 0.0234,0.3046875 -0.16406,0.6796875 -0.31641,1.3828125 -0.48047,2.0742187 -0.23438,0.97265626 0.0469,1.13671876 0.29297,1.13671876 0.22265,0 0.48047,-0.09375 0.72656,-0.28125 0.48047,-0.328125 1.00781,-0.87890626 1.45313,-1.46484376 h 0.0234 c -0.0703,0.3046875 -0.10547,0.4804688 -0.17578,0.79687501 -0.17578,0.78515625 -0.0586,0.94921875 0.12891,0.94921875 0.28125,0 0.8789,-0.3984375 1.3125,-0.9140625 z m 0,0"
           style="fill:#231f20;fill-opacity:1;fill-rule:nonzero;stroke:none" />
        <path
           id="path25"
           d="m 123.99238,-2.9445781 h 2.09765 l 0.23438,-0.5859375 -0.0586,-0.070312 h -2.5664 l -0.35157,2.74218748 c 0.21094,-0.0820313 0.55079,-0.18749998 0.92579,-0.18749998 0.98437,0 1.46484,0.57421873 1.46484,1.35937498 0,0.6796875 -0.375,1.33593752 -1.13672,1.33593752 -0.55078,0 -0.91406,-0.2929688 -1.11328,-0.4570313 -0.082,-0.070312 -0.15234,-0.058594 -0.23438,0 -0.10546,0.09375 -0.1875,0.2109375 -0.1875,0.2929688 -0.0234,0.1054687 0.0234,0.1875 0.14063,0.3046875 0.12891,0.1289062 0.51562,0.3164062 0.92578,0.3164062 0.48047,-0.011719 1.07813,-0.2460937 1.57031,-0.6328125 0.55078,-0.4570312 0.79688,-0.96093747 0.79688,-1.51171872 0,-0.73828125 -0.58594,-1.51171878 -1.73438,-1.51171878 -0.24609,0 -0.66797,0.140625 -1.00781,0.2695313 z m 1.91894,-3.2314453 c 0.89063,0.7382812 1.41797,2.203125 1.41797,3.75 0,1.54687496 -0.50391,2.98828121 -1.41797,3.75 l 0.16406,0.1992187 c 1.34766,-0.91406249 1.89844,-2.33203124 1.89844,-3.9492187 0,-1.6289063 -0.55078,-3.0585938 -1.89844,-3.9609375 z m 3.54785,5.015625 c -0.21094,0 -0.43359,0.140625 -0.43359,0.36328121 0,0.15234375 0.0703,0.22265625 0.11719,0.234375 0.30468,0.0703125 0.5625,0.26953125 0.5625,0.59765625 0,0.33984375 -0.25782,0.57421875 -0.69141,0.76171875 l 0.0937,0.25781249 c 0.55078,-0.16406249 1.18359,-0.55078124 1.18359,-1.24218749 0,-0.6328125 -0.5039,-0.97265621 -0.83203,-0.97265621 z m 5.94727,2.484375 c -0.89063,-0.76171879 -1.40625,-2.20312504 -1.40625,-3.75 0,-1.546875 0.51562,-3 1.40625,-3.75 l -0.15235,-0.2109375 c -1.32422,0.9023437 -1.91015,2.3320312 -1.91015,3.9492187 0,1.62890626 0.58593,3.08203126 1.91015,3.9609375 z m 0,0"
           style="fill:#231f20;fill-opacity:1;fill-rule:nonzero;stroke:none" />
        <path
           id="path26"
           d="m 140.25507,-1.0314922 c -0.24609,0.25781251 -0.57422,0.46875001 -0.64453,0.46875001 -0.0703,0 -0.082,-0.0703125 -0.0352,-0.3515625 0.22266,-1.16015621 0.45703,-2.16796871 0.70313,-3.12890621 h -0.0937 l -0.6211,0.234375 c -0.11718,0.5507812 -0.22265,1.03125 -0.32812,1.4414062 -0.35156,0.65625 -1.35938,1.86328126 -1.86328,1.86328126 -0.12891,0 -0.21094,-0.15234375 -0.10547,-0.59765626 0.16406,-0.7148437 0.32812,-1.4414062 0.49219,-2.15625 0.14062,-0.5976562 0.10547,-0.7851562 -0.0937,-0.7851562 -0.2461,0 -0.8086,0.328125 -1.32422,0.84375 l 0.0937,0.2226562 c 0.3164,-0.2578125 0.57422,-0.4335937 0.63281,-0.4335937 0.0703,0 0.082,0.082031 0.0234,0.3046875 -0.16406,0.6796875 -0.31641,1.3828125 -0.48047,2.0742187 -0.23438,0.97265626 0.0469,1.13671876 0.29297,1.13671876 0.22265,0 0.48047,-0.09375 0.72656,-0.28125 0.48047,-0.328125 1.00781,-0.87890626 1.45313,-1.46484376 h 0.0234 c -0.0703,0.3046875 -0.10547,0.4804688 -0.17578,0.79687501 -0.17578,0.78515625 -0.0586,0.94921875 0.12891,0.94921875 0.28125,0 0.8789,-0.3984375 1.3125,-0.9140625 z m 0,0"
           style="fill:#231f20;fill-opacity:1;fill-rule:nonzero;stroke:none" />
        <path
           id="path27"
           d="m 141.85175,-1.0812969 c 0.26953,-1.2539062 1.11328,-1.828125 1.66406,-2.0859375 0.32813,-0.1523437 0.67969,-0.2578125 0.97266,-0.3164062 l -0.0586,-0.28125 c -0.36328,0.058594 -0.79687,0.1640625 -1.14843,0.28125 -0.96094,0.3515625 -2.33203,1.3710937 -2.33203,3.33984373 0,1.38281247 0.79687,2.24999997 1.85156,2.24999997 1.07812,0 1.83984,-0.9023437 1.83984,-1.98046872 0,-0.92578125 -0.65625,-1.66406248 -1.61719,-1.66406248 -0.17578,0 -0.36328,0.070312 -0.5625,0.1523437 z m 0.82031,0.046875 c 0.82031,0 1.19531,0.73828128 1.19531,1.48828128 0,0.59765622 -0.21093,1.34765622 -0.91406,1.34765622 -0.73828,0 -1.19531,-0.87890622 -1.19531,-1.95703122 0,-0.234375 0.0117,-0.45703125 0.0469,-0.62109375 0.22266,-0.1171875 0.52735,-0.25781253 0.86719,-0.25781253 z m 1.67285,-0.1259765 c -0.21093,0 -0.43359,0.140625 -0.43359,0.36328121 0,0.15234375 0.0703,0.22265625 0.11719,0.234375 0.30469,0.0703125 0.5625,0.26953125 0.5625,0.59765625 0,0.33984375 -0.25781,0.57421875 -0.69141,0.76171875 l 0.0937,0.25781249 c 0.55078,-0.16406249 1.1836,-0.55078124 1.1836,-1.24218749 0,-0.6328125 -0.50391,-0.97265621 -0.83204,-0.97265621 z m 0,0"
           style="fill:#231f20;fill-opacity:1;fill-rule:nonzero;stroke:none" />
        <path
           id="path28"
           d="m 152.02655,-1.0314922 c -0.24609,0.25781251 -0.57421,0.46875001 -0.64453,0.46875001 -0.0703,0 -0.082,-0.0703125 -0.0352,-0.3515625 0.22265,-1.16015621 0.45703,-2.16796871 0.70312,-3.12890621 h -0.0937 l -0.62109,0.234375 c -0.11719,0.5507812 -0.22266,1.03125 -0.32813,1.4414062 -0.35156,0.65625 -1.35937,1.86328126 -1.86328,1.86328126 -0.1289,0 -0.21094,-0.15234375 -0.10547,-0.59765626 0.16407,-0.7148437 0.32813,-1.4414062 0.49219,-2.15625 0.14063,-0.5976562 0.10547,-0.7851562 -0.0937,-0.7851562 -0.24609,0 -0.80859,0.328125 -1.32422,0.84375 l 0.0937,0.2226562 c 0.31641,-0.2578125 0.57422,-0.4335937 0.63281,-0.4335937 0.0703,0 0.082,0.082031 0.0234,0.3046875 -0.16406,0.6796875 -0.3164,1.3828125 -0.48047,2.0742187 -0.23437,0.97265626 0.0469,1.13671876 0.29297,1.13671876 0.22266,0 0.48047,-0.09375 0.72656,-0.28125 0.48047,-0.328125 1.00782,-0.87890626 1.45313,-1.46484376 h 0.0234 c -0.0703,0.3046875 -0.10547,0.4804688 -0.17578,0.79687501 -0.17579,0.78515625 -0.0586,0.94921875 0.1289,0.94921875 0.28125,0 0.87891,-0.3984375 1.3125,-0.9140625 z m 0,0"
           style="fill:#231f20;fill-opacity:1;fill-rule:nonzero;stroke:none" />
        <path
           id="path29"
           d="m 156.4123,-3.6008281 h -3.4336 c -0.0352,0.3867187 -0.082,0.8320312 -0.16406,1.3242187 h 0.25781 c 0.22266,-0.5859375 0.26953,-0.6679687 0.86719,-0.6679687 h 1.94531 c -0.71484,1.5585937 -1.72265,3.42187498 -2.67187,4.9570312 l 0.0586,0.09375 0.66797,-0.082031 c 0.86719,-1.86328127 1.69922,-3.6914063 2.54297,-5.5195313 z m -0.7295,-2.5751953 c 0.89063,0.7382812 1.41797,2.203125 1.41797,3.75 0,1.54687496 -0.5039,2.98828121 -1.41797,3.75 l 0.16407,0.1992187 c 1.34765,-0.91406249 1.89843,-2.33203124 1.89843,-3.9492187 0,-1.6289063 -0.55078,-3.0585938 -1.89843,-3.9609375 z m 4.74317,7.640625 v -7.7929688 h -1.54688 v 0.2460938 c 0.96094,0.082031 0.9961,0.1289062 0.9961,0.8203125 v 5.63671871 c 0,0.71484379 -0.0352,0.76171879 -0.9961,0.84374999 V 1.4646016 Z M -104.17169,68.308352 c -0.89062,-0.761719 -1.40625,-2.203125 -1.40625,-3.75 0,-1.546875 0.51563,-3 1.40625,-3.75 l -0.15234,-0.210938 c -1.32422,0.902344 -1.91016,2.332031 -1.91016,3.949219 0,1.628906 0.58594,3.082031 1.91016,3.960937 z m 1.18067,-5.789063 c 0.22265,-0.328125 0.58593,-0.714844 1.07812,-0.714844 0.48047,0 0.85547,0.292969 0.85547,0.855469 0,0.65625 -0.60937,1.007813 -1.42969,1.277344 l 0.0586,0.257812 c 0.14062,-0.04687 0.36328,-0.105468 0.57422,-0.105468 0.51562,0 1.14843,0.339843 1.14843,1.171875 0,0.890625 -0.45703,1.359375 -1.08984,1.359375 -0.51563,0 -0.89063,-0.246094 -1.125,-0.457032 -0.0703,-0.05859 -0.14063,-0.04687 -0.21094,0 -0.082,0.05859 -0.19922,0.175782 -0.21094,0.292969 -0.0117,0.117188 0.0234,0.210938 0.15235,0.328125 0.11719,0.105469 0.48047,0.304688 0.89062,0.304688 0.65625,0 2.36719,-0.667969 2.36719,-2.121094 0,-0.65625 -0.46875,-1.21875 -1.25391,-1.371094 v -0.01172 c 0.25782,-0.1875 0.48047,-0.339843 0.60938,-0.492187 0.17578,-0.164063 0.28125,-0.375 0.28125,-0.632813 0,-0.691406 -0.52734,-1.195312 -1.34766,-1.195312 -0.46875,0 -0.89062,0.234375 -1.13672,0.503906 l -0.39843,0.574219 z m 4.400387,3.304688 c -0.210937,0 -0.433594,0.140625 -0.433594,0.363281 0,0.152344 0.07031,0.222656 0.117188,0.234375 0.304687,0.07031 0.5625,0.269531 0.5625,0.597656 0,0.339844 -0.257813,0.574219 -0.691406,0.761719 l 0.09375,0.257812 c 0.550781,-0.164062 1.183593,-0.550781 1.183593,-1.242187 0,-0.632813 -0.503906,-0.972656 -0.832031,-0.972656 z m 5.478516,-4.558594 c -0.960938,0 -1.59375,0.726562 -1.59375,1.476562 0,0.632813 0.386719,1.066407 0.972656,1.394532 -0.304687,0.199218 -0.65625,0.445312 -0.796875,0.574218 -0.199219,0.199219 -0.398437,0.445313 -0.398437,0.855469 0,0.972656 0.761718,1.523438 1.722656,1.523438 0.761719,0 1.78125,-0.574219 1.78125,-1.628907 0,-0.785156 -0.5625,-1.207031 -1.183594,-1.558593 0.398438,-0.28125 0.644531,-0.503907 0.703125,-0.585938 0.175781,-0.1875 0.269531,-0.457031 0.269531,-0.714844 0,-0.726562 -0.621093,-1.335937 -1.476562,-1.335937 z m -0.08203,0.292969 c 0.410156,0 0.878906,0.328125 0.878906,1.089843 0,0.539063 -0.246094,0.867188 -0.550781,1.113282 -0.632813,-0.316407 -1.171875,-0.609375 -1.171875,-1.277344 0,-0.457031 0.304687,-0.925781 0.84375,-0.925781 z m 0.08203,5.25 c -0.574219,0 -1.101563,-0.46875 -1.101563,-1.289063 0,-0.492187 0.304688,-0.949219 0.738282,-1.230469 0.691406,0.351563 1.335937,0.738282 1.335937,1.40625 0,0.691407 -0.421875,1.113282 -0.972656,1.113282 z m 2.504883,-6 c 0.890625,0.738281 1.417968,2.203125 1.417968,3.75 0,1.546875 -0.503906,2.988281 -1.417968,3.75 l 0.164062,0.199218 c 1.347656,-0.914062 1.898438,-2.332031 1.898438,-3.949218 0,-1.628907 -0.550782,-3.058594 -1.898438,-3.960938 z m 0,0"
           style="fill:#231f20;fill-opacity:1;fill-rule:nonzero;stroke:none" />
      </g>
      <path
         id="path30"
         d="m 416.605,264.254 c 0,-12.844 -10.414,-23.254 -23.25,-23.254 -12.851,0 -23.261,10.41 -23.261,23.254 0,12.84 10.41,23.25 23.261,23.25 12.836,0 23.25,-10.41 23.25,-23.25"
         style="fill:#231f20;fill-opacity:1;fill-rule:nonzero;stroke:none"
         transform="matrix(0.13333333,0,0,-0.13333333,0,103.53333)" />
      <path
         id="path31"
         d="m 720.313,529.469 c 0,-12.844 -10.411,-23.254 -23.258,-23.254 -12.84,0 -23.25,10.41 -23.25,23.254 0,12.84 10.41,23.25 23.25,23.25 12.847,0 23.258,-10.41 23.258,-23.25"
         style="fill:#231f20;fill-opacity:1;fill-rule:nonzero;stroke:none"
         transform="matrix(0.13333333,0,0,-0.13333333,0,103.53333)" />
      <path
         id="path32"
         d="m 721.91,570.941 c 0,0 19.512,139.551 286.4,152.504"
         style="fill:none;stroke:#231f20;stroke-width:5;stroke-linecap:butt;stroke-linejoin:miter;stroke-miterlimit:10;stroke-dasharray:none;stroke-opacity:1"
         transform="matrix(0.13333333,0,0,-0.13333333,0,103.53333)" />
      <path
         id="path33"
         d="m 999.355,722.82 -11.523,17.664 0.602,0.422 29.726,-10.726 c 10.31,-1.922 20.6,-3.848 30.91,-5.77 -10.16,-2.578 -20.32,-5.152 -30.48,-7.73 l -28.985,-12.598 -0.621,0.289 10.371,18.449"
         style="fill:#231f20;fill-opacity:1;fill-rule:nonzero;stroke:none"
         transform="matrix(0.13333333,0,0,-0.13333333,0,103.53333)" />
    </g>
  </g>
</svg>
