<?xml version="1.0" encoding="UTF-8" standalone="no"?>
<!-- Created with Inkscape (http://www.inkscape.org/) -->

<svg
   version="1.1"
   id="svg1"
   width="224.57333"
   height="136.93333"
   viewBox="0 0 224.57333 136.93333"
   sodipodi:docname="pha08f11.eps"
   xmlns:inkscape="http://www.inkscape.org/namespaces/inkscape"
   xmlns:sodipodi="http://sodipodi.sourceforge.net/DTD/sodipodi-0.dtd"
   xmlns="http://www.w3.org/2000/svg"
   xmlns:svg="http://www.w3.org/2000/svg">
  <defs
     id="defs1" />
  <sodipodi:namedview
     id="namedview1"
     pagecolor="#ffffff"
     bordercolor="#000000"
     borderopacity="0.25"
     inkscape:showpageshadow="2"
     inkscape:pageopacity="0.0"
     inkscape:pagecheckerboard="0"
     inkscape:deskcolor="#d1d1d1">
    <inkscape:page
       x="0"
       y="0"
       inkscape:label="1"
       id="page1"
       width="224.57333"
       height="136.93333"
       margin="0"
       bleed="0" />
  </sodipodi:namedview>
  <g
     id="g1"
     inkscape:groupmode="layer"
     inkscape:label="1">
    <g
       id="group-R5">
      <path
         id="path2"
         d="m 33.2227,282.445 h 15"
         style="fill:none;stroke:#3871c1;stroke-width:5;stroke-linecap:butt;stroke-linejoin:miter;stroke-miterlimit:3.25;stroke-dasharray:none;stroke-opacity:1"
         transform="matrix(0.13333333,0,0,-0.13333333,0,136.93333)" />
      <path
         id="path3"
         d="M 68.832,282.445 H 419.215"
         style="fill:none;stroke:#3871c1;stroke-width:5;stroke-linecap:butt;stroke-linejoin:miter;stroke-miterlimit:3.25;stroke-dasharray:30.9157, 20.6105;stroke-dashoffset:0;stroke-opacity:1"
         transform="matrix(0.13333333,0,0,-0.13333333,0,136.93333)" />
      <path
         id="path4"
         d="m 429.516,282.445 h 15 l 0.019,15"
         style="fill:none;stroke:#3871c1;stroke-width:5;stroke-linecap:butt;stroke-linejoin:miter;stroke-miterlimit:3.25;stroke-dasharray:none;stroke-opacity:1"
         transform="matrix(0.13333333,0,0,-0.13333333,0,136.93333)" />
      <path
         id="path5"
         d="m 444.563,318.027 0.464,401.297"
         style="fill:none;stroke:#3871c1;stroke-width:5;stroke-linecap:butt;stroke-linejoin:miter;stroke-miterlimit:3.25;stroke-dasharray:30.8692, 20.5794;stroke-dashoffset:0;stroke-opacity:1"
         transform="matrix(0.13333333,0,0,-0.13333333,0,136.93333)" />
      <path
         id="path6"
         d="m 445.039,729.613 0.02,15 h 15"
         style="fill:none;stroke:#3871c1;stroke-width:5;stroke-linecap:butt;stroke-linejoin:miter;stroke-miterlimit:3.25;stroke-dasharray:none;stroke-opacity:1"
         transform="matrix(0.13333333,0,0,-0.13333333,0,136.93333)" />
      <path
         id="path7"
         d="M 480.664,744.613 H 830.945"
         style="fill:none;stroke:#3871c1;stroke-width:5;stroke-linecap:butt;stroke-linejoin:miter;stroke-miterlimit:3.25;stroke-dasharray:30.9074, 20.6049;stroke-dashoffset:0;stroke-opacity:1"
         transform="matrix(0.13333333,0,0,-0.13333333,0,136.93333)" />
      <path
         id="path8"
         d="m 841.25,744.613 h 15 l 0.016,-15"
         style="fill:none;stroke:#3871c1;stroke-width:5;stroke-linecap:butt;stroke-linejoin:miter;stroke-miterlimit:3.25;stroke-dasharray:none;stroke-opacity:1"
         transform="matrix(0.13333333,0,0,-0.13333333,0,136.93333)" />
      <path
         id="path9"
         d="m 856.289,709.031 0.426,-401.297"
         style="fill:none;stroke:#3871c1;stroke-width:5;stroke-linecap:butt;stroke-linejoin:miter;stroke-miterlimit:3.25;stroke-dasharray:30.8692, 20.5794;stroke-dashoffset:0;stroke-opacity:1"
         transform="matrix(0.13333333,0,0,-0.13333333,0,136.93333)" />
      <path
         id="path10"
         d="m 856.723,297.445 0.015,-15 h 15"
         style="fill:none;stroke:#3871c1;stroke-width:5;stroke-linecap:butt;stroke-linejoin:miter;stroke-miterlimit:3.25;stroke-dasharray:none;stroke-opacity:1"
         transform="matrix(0.13333333,0,0,-0.13333333,0,136.93333)" />
      <path
         id="path11"
         d="M 892.344,282.445 H 1242.65"
         style="fill:none;stroke:#3871c1;stroke-width:5;stroke-linecap:butt;stroke-linejoin:miter;stroke-miterlimit:3.25;stroke-dasharray:30.9094, 20.6063;stroke-dashoffset:0;stroke-opacity:1"
         transform="matrix(0.13333333,0,0,-0.13333333,0,136.93333)" />
      <path
         id="path12"
         d="m 1252.95,282.445 h 15 l 0.02,15"
         style="fill:none;stroke:#3871c1;stroke-width:5;stroke-linecap:butt;stroke-linejoin:miter;stroke-miterlimit:3.25;stroke-dasharray:none;stroke-opacity:1"
         transform="matrix(0.13333333,0,0,-0.13333333,0,136.93333)" />
      <path
         id="path13"
         d="m 1267.99,318.027 0.43,401.297"
         style="fill:none;stroke:#3871c1;stroke-width:5;stroke-linecap:butt;stroke-linejoin:miter;stroke-miterlimit:3.25;stroke-dasharray:30.8692, 20.5794;stroke-dashoffset:0;stroke-opacity:1"
         transform="matrix(0.13333333,0,0,-0.13333333,0,136.93333)" />
      <path
         id="path14"
         d="m 1268.43,729.613 0.02,15 h 15"
         style="fill:none;stroke:#3871c1;stroke-width:5;stroke-linecap:butt;stroke-linejoin:miter;stroke-miterlimit:3.25;stroke-dasharray:none;stroke-opacity:1"
         transform="matrix(0.13333333,0,0,-0.13333333,0,136.93333)" />
      <path
         id="path15"
         d="m 1304.08,744.613 h 350.6"
         style="fill:none;stroke:#3871c1;stroke-width:5;stroke-linecap:butt;stroke-linejoin:miter;stroke-miterlimit:3.25;stroke-dasharray:30.9359, 20.6239;stroke-dashoffset:0;stroke-opacity:1"
         transform="matrix(0.13333333,0,0,-0.13333333,0,136.93333)" />
      <path
         id="path16"
         d="m 1665,744.613 h 15"
         style="fill:none;stroke:#3871c1;stroke-width:5;stroke-linecap:butt;stroke-linejoin:miter;stroke-miterlimit:3.25;stroke-dasharray:none;stroke-opacity:1"
         transform="matrix(0.13333333,0,0,-0.13333333,0,136.93333)" />
      <path
         id="path17"
         d="m 33.2227,282.445 0.5117,-3.144 0.5195,-3.098 1.0117,-5.93 0.4883,-2.867 0.5117,-2.781 1.0039,-5.344 0.5118,-2.554 0.5,-2.5 1,-4.719 2.0429,-8.543 0.4922,-1.934 0.5117,-1.859 1.0078,-3.504 0.5079,-1.629 0.5,-1.547 1.0039,-2.89 0.5117,-1.313 0.5195,-1.266 0.4844,-1.16 0.5156,-1.082 0.4961,-1.035 0.5156,-0.949 0.4922,-0.879 0.5117,-0.805 0.5118,-0.718 0.4882,-0.645 0.5274,-0.594 0.4844,-0.515 0.5156,-0.442 0.4883,-0.383 0.5156,-0.285 0.5156,-0.258 0.5,-0.156 0.5117,-0.101 0.4883,-0.051 0.5195,0.023 0.5118,0.078 0.4882,0.157 0.5196,0.207 0.4883,0.258 0.5156,0.332 0.4922,0.39 0.5117,0.434 0.5156,0.496 0.4961,0.562 0.5195,0.598 1,1.367 0.4883,0.746 0.5117,0.801 1.0118,1.754 0.5156,0.93 0.4883,0.98 1.0312,2.09 0.543,1.187 0.5429,1.235 1.086,2.582 2.1914,5.648 4.3906,12.559 0.5391,1.68 0.5703,1.675 1.0859,3.379 2.1914,6.836 4.3828,13.621 0.543,1.676 0.5352,1.652 1.1172,3.25 2.1875,6.27 1.082,2.992 1.0859,2.863 2.1914,5.415 0.5664,1.296 0.543,1.235 1.082,2.347 0.543,1.133 0.5664,1.082 1.082,2.067 0.543,0.98 0.5664,0.93 1.086,1.754 0.539,0.801 0.5664,0.746 1.0864,1.39 0.515,0.598 0.516,0.566 0.496,0.516 0.512,0.465 0.511,0.437 0.52,0.387 0.512,0.363 0.519,0.309 0.488,0.281 0.524,0.234 0.515,0.208 0.512,0.156 0.516,0.125 0.484,0.078 0.52,0.055 h 0.511 l 0.52,-0.032 0.52,-0.07 0.519,-0.109 0.484,-0.153 0.516,-0.179 1.027,-0.457 0.516,-0.321 0.5,-0.304 0.512,-0.364 0.511,-0.386 0.52,-0.438 0.516,-0.465 0.511,-0.492 1.012,-1.078 0.52,-0.574 0.511,-0.614 1.004,-1.32 2.067,-2.937 0.511,-0.801 0.496,-0.801 1.024,-1.699 2.043,-3.641 0.515,-0.957 0.52,-0.969 1.023,-1.992 2.043,-4.101 4.079,-8.539 0.511,-1.063 0.496,-1.055 1,-2.113 2.02,-4.211 0.488,-1.004 1.52,-3.043 1.984,-3.918 0.52,-0.929 0.484,-0.926 1.016,-1.836 2,-3.406 0.5,-0.825 0.515,-0.769 0.977,-1.523 2.011,-2.762 0.516,-0.649 0.488,-0.589 1.012,-1.137 0.488,-0.539 0.512,-0.492 1.008,-0.954 0.488,-0.414 0.496,-0.386 0.516,-0.387 0.488,-0.336 0.516,-0.309 0.484,-0.289 0.528,-0.25 0.488,-0.234 0.512,-0.195 0.488,-0.192 0.488,-0.133 0.516,-0.125 0.496,-0.078 0.515,-0.05 0.493,-0.032 h 0.511 l 0.489,0.032 0.496,0.074 0.519,0.078 0.485,0.101 0.515,0.157 0.489,0.179 0.511,0.184 0.5,0.234 0.539,0.282 0.543,0.308 0.543,0.336 1.082,0.774 0.543,0.437 1.11,0.957 0.543,0.512 0.535,0.543 1.086,1.164 2.168,2.629 1.078,1.445 1.113,1.551 2.164,3.301 4.328,7.273 0.571,0.953 0.539,0.957 1.086,1.957 2.175,3.906 4.356,7.731 1.086,1.855 1.078,1.832 2.168,3.485 1.086,1.648 1.105,1.574 2.168,2.942 0.52,0.617 0.48,0.621 1.043,1.16 0.488,0.539 0.512,0.52 1.004,0.98 0.524,0.461 0.519,0.453 0.481,0.399 1.031,0.723 0.488,0.335 0.52,0.309 0.519,0.281 0.485,0.262 0.519,0.234 0.516,0.204 0.488,0.156 0.516,0.152 0.519,0.133 0.492,0.078 0.516,0.078 0.512,0.024 0.492,0.023 1.027,-0.047 0.496,-0.078 0.516,-0.101 0.516,-0.133 0.488,-0.153 0.515,-0.179 0.508,-0.211 0.504,-0.231 0.516,-0.258 0.511,-0.285 0.489,-0.308 1.027,-0.696 0.5,-0.39 0.52,-0.41 1,-0.879 0.515,-0.489 0.516,-0.515 1.008,-1.086 0.519,-0.567 0.485,-0.589 1.035,-1.243 2.011,-2.734 0.512,-0.723 0.516,-0.746 1.004,-1.523 2.039,-3.246 1.086,-1.809 1.105,-1.883 2.199,-3.867 4.411,-7.894 0.539,-0.985 0.566,-0.98 1.086,-1.934 2.191,-3.789 0.567,-0.933 0.543,-0.899 1.105,-1.781 2.196,-3.356 0.543,-0.8 0.57,-0.77 1.078,-1.496 0.57,-0.695 0.543,-0.7 1.11,-1.289 1.082,-1.187 1.109,-1.082 0.543,-0.488 0.543,-0.465 1.105,-0.856 0.543,-0.386 0.567,-0.336 0.543,-0.332 0.543,-0.282 0.562,-0.234 0.543,-0.231 0.543,-0.179 0.567,-0.156 0.543,-0.106 0.543,-0.078 0.566,-0.055 0.539,-0.023 0.543,0.023 0.57,0.082 0.539,0.078 0.539,0.125 0.543,0.157 0.543,0.179 0.535,0.235 0.543,0.261 0.543,0.282 0.543,0.332 0.539,0.363 0.543,0.391 0.543,0.41 0.524,0.461 1.082,1.008 0.543,0.543 0.543,0.566 1.078,1.238 0.543,0.668 0.543,0.699 1.082,1.469 2.144,3.254 0.536,0.848 0.543,0.906 1.085,1.855 2.161,3.918 0.543,1.036 1.636,3.175 2.137,4.383 5.414,11.348 1.059,2.269 2.16,4.442 4.348,8.304 0.484,0.903 0.516,0.851 1.003,1.703 0.485,0.825 0.527,0.8 1,1.497 0.488,0.722 0.516,0.723 1.016,1.312 0.48,0.621 0.52,0.567 1,1.113 0.5,0.488 0.515,0.489 0.516,0.437 0.484,0.387 0.52,0.391 0.484,0.332 0.516,0.312 0.5,0.281 0.512,0.231 0.488,0.211 0.515,0.179 0.485,0.129 0.527,0.102 0.488,0.055 0.512,0.023 0.488,-0.023 0.52,-0.055 0.488,-0.078 0.524,-0.125 0.488,-0.156 0.512,-0.208 0.492,-0.234 0.516,-0.281 0.488,-0.309 0.519,-0.363 0.52,-0.387 0.48,-0.437 0.52,-0.465 0.488,-0.516 0.512,-0.543 1.015,-1.187 0.485,-0.668 0.515,-0.699 1.004,-1.493 0.496,-0.8 0.52,-0.825 1,-1.785 0.488,-0.925 0.512,-0.985 1.012,-2.035 2.008,-4.461 0.55,-1.289 0.543,-1.344 1.11,-2.734 2.168,-5.828 4.382,-12.711 1.082,-3.36 1.083,-3.378 2.191,-6.836 4.359,-13.571 0.567,-1.648 0.543,-1.653 1.086,-3.199 2.191,-6.14 0.543,-1.469 0.539,-1.445 1.086,-2.786 2.191,-5.082 0.543,-1.164 0.536,-1.132 1.113,-2.09 0.539,-0.981 0.543,-0.926 1.105,-1.679 0.543,-0.774 0.543,-0.699 0.539,-0.613 0.543,-0.571 0.543,-0.515 0.567,-0.438 0.543,-0.386 0.543,-0.313 0.519,-0.23 0.488,-0.157 0.52,-0.101 0.512,-0.027 0.515,0.027 0.485,0.078 0.527,0.18 0.52,0.207 0.511,0.308 0.489,0.36 0.511,0.437 0.52,0.52 0.511,0.566 0.512,0.668 0.504,0.723 0.508,0.801 0.516,0.878 0.519,0.954 0.484,1.007 0.516,1.106 0.524,1.187 0.515,1.243 1.004,2.757 0.516,1.5 0.511,1.547 1.012,3.383 0.52,1.797 0.511,1.887 1.004,3.996 0.516,2.117 0.512,2.219 1.011,4.617 2.035,10.215 0.512,2.761 0.528,2.813 1,5.879 2.043,12.64 0.515,3.356 0.516,3.402 1.027,7.043 2.043,14.91 4.07,32.918 0.493,4.282 0.488,4.336 1.015,8.847 2,18.238 4.004,38.461 7.996,81.852 0.981,10.422 1,10.449 2.016,20.785 4.003,40.91 0.489,5.036 0.488,5.003 1,9.907 2.02,19.425 4.003,36.915 0.54,4.773 0.543,4.723 1.082,9.257 2.164,17.727 0.539,4.277 0.543,4.184 1.082,8.148 2.168,15.403 0.543,3.66 0.543,3.558 1.082,6.887 0.543,3.328 0.535,3.254 1.086,6.211 0.543,2.992 0.539,2.891 1.086,5.547 2.172,10.004 0.542,2.277 0.54,2.191 1.085,4.125 0.543,1.942 0.536,1.836 1.086,3.394 0.543,1.571 0.539,1.504 0.543,1.39 0.543,1.313 0.566,1.246 0.543,1.133 0.539,1.058 0.543,0.953 0.543,0.899 0.535,0.801 0.543,0.718 0.543,0.649 0.543,0.543 0.539,0.488 0.543,0.391 0.543,0.336 0.535,0.23 0.543,0.18 0.543,0.101 0.539,0.032 0.543,-0.055 0.543,-0.133 0.543,-0.18 0.551,-0.254 0.512,-0.312 0.488,-0.367 0.512,-0.403 0.496,-0.461 0.507,-0.543 0.516,-0.57 1.012,-1.324 0.492,-0.719 0.516,-0.769 1,-1.68 0.527,-0.902 0.48,-0.95 1.036,-2.015 0.484,-1.082 0.519,-1.11 1.016,-2.3 2.024,-5 4.058,-11.196 0.488,-1.468 0.52,-1.5 1,-3.043 2.016,-6.141 4.043,-12.387 1.042,-3.047 1,-3.015 2.016,-5.879 4.047,-10.891 0.543,-1.363 0.566,-1.309 1.082,-2.59 0.543,-1.23 0.567,-1.215 1.086,-2.32 0.566,-1.078 0.539,-1.063 1.086,-2.015 0.567,-0.957 0.542,-0.891 1.083,-1.711 0.566,-0.766 0.543,-0.757 0.543,-0.696 0.543,-0.64 0.562,-0.625 0.543,-0.559 0.543,-0.527 0.543,-0.485 0.567,-0.437 0.543,-0.387 0.539,-0.344 0.543,-0.297 0.57,-0.265 0.539,-0.235 0.543,-0.148 0.57,-0.137 0.539,-0.093 1.082,-0.051 0.571,0.051 0.543,0.07 0.543,0.133 0.539,0.175 0.566,0.215 0.543,0.235 1.082,0.617 0.567,0.355 0.542,0.418 0.543,0.434 1.11,1 0.543,0.543 0.539,0.57 1.109,1.266 1.082,1.394 1.11,1.493 0.543,0.8 0.543,0.825 1.109,1.734 2.191,3.691 0.536,0.953 0.542,0.981 1.059,2.008 2.176,4.148 4.305,8.703 0.543,1.082 0.542,1.11 1.051,2.195 2.164,4.305 4.317,8.172 0.543,0.957 0.543,0.933 1.054,1.824 1.082,1.754 1.086,1.653 0.535,0.804 0.543,0.77 1.059,1.465 0.543,0.703 0.543,0.664 1.078,1.269 0.543,0.598 0.516,0.57 1.09,1.028 0.543,0.461 0.542,0.445 1.083,0.801 0.542,0.351 0.512,0.309 0.543,0.289 0.539,0.254 0.543,0.234 1.078,0.364 0.543,0.132 0.492,0.071 0.516,0.082 0.496,0.023 h 1 l 0.488,-0.055 0.52,-0.078 0.484,-0.101 0.528,-0.133 0.48,-0.148 0.52,-0.176 0.488,-0.215 0.512,-0.227 0.5,-0.257 0.515,-0.313 0.485,-0.312 0.515,-0.329 0.493,-0.367 1.007,-0.797 0.493,-0.418 0.515,-0.457 1.004,-0.976 0.484,-0.524 0.524,-0.543 1.004,-1.152 2.015,-2.535 0.485,-0.668 0.519,-0.668 0.977,-1.449 2.016,-3.02 4.019,-6.519 8.023,-13.75 0.571,-0.907 1.621,-2.636 2.168,-3.371 0.566,-0.801 0.539,-0.805 1.086,-1.519 2.172,-2.813 0.543,-0.668 0.57,-0.621 1.079,-1.215 1.085,-1.086 1.083,-1 0.539,-0.461 0.543,-0.441 0.57,-0.41 1.078,-0.731 0.543,-0.328 1.086,-0.566 0.539,-0.239 0.543,-0.207 0.543,-0.179 0.566,-0.156 1.082,-0.2 0.543,-0.058 0.543,-0.028 h 0.539 l 0.543,0.028 0.543,0.058 0.543,0.102 0.567,0.121 0.543,0.133 0.539,0.179 1.086,0.469 0.535,0.258 1.086,0.613 0.543,0.364 0.562,0.39 1.086,0.856 1.082,0.922 1.09,1.054 0.543,0.574 0.543,0.59 1.105,1.246 0.496,0.61 0.508,0.621 1.035,1.312 2.012,2.84 4.074,6.293 0.516,0.828 0.488,0.825 1.039,1.703 2.032,3.476 4.046,6.996 0.524,0.879 0.516,0.856 1.003,1.695 2.04,3.301 0.511,0.824 0.496,0.781 1.032,1.543 2.035,2.942 0.492,0.703 0.512,0.691 1.011,1.297 1.032,1.234 1.004,1.133 1.027,1.082 1.015,0.957 0.512,0.461 0.488,0.438 1.032,0.773 0.535,0.391 0.57,0.367 0.543,0.324 0.543,0.285 0.567,0.262 0.543,0.234 0.542,0.204 0.567,0.148 0.539,0.164 0.543,0.098 0.566,0.05 0.543,0.055 h 0.539 l 0.571,-0.023 0.539,-0.082 0.543,-0.098 0.566,-0.133 0.543,-0.152 0.57,-0.203 0.536,-0.242 0.543,-0.258 0.574,-0.281 0.539,-0.329 0.539,-0.367 0.574,-0.414 0.539,-0.41 0.539,-0.461 0.574,-0.496 0.536,-0.516 0.543,-0.539 1.109,-1.207 0.543,-0.648 0.57,-0.649 1.11,-1.437 2.191,-3.152 0.535,-0.852 0.57,-0.848 1.082,-1.836 2.227,-3.843 0.535,-1.012 0.543,-1.024 1.113,-2.062 2.215,-4.34 4.387,-8.922 0.535,-1.086 0.543,-1.105 1.086,-2.192 2.176,-4.289 0.539,-1.054 0.543,-1.032 1.082,-2.039 2.168,-3.875 1.078,-1.8 1.086,-1.758 0.543,-0.824 0.539,-0.801 1.086,-1.543 0.543,-0.719 0.512,-0.695 1.082,-1.321 0.543,-0.621 0.539,-0.566 1.082,-1.059 0.543,-0.457 0.543,-0.445 0.539,-0.41 0.543,-0.363 0.543,-0.34 0.55,-0.285 0.543,-0.254 0.536,-0.203 0.543,-0.176 0.542,-0.133 0.54,-0.098 0.543,-0.054 0.542,-0.028 0.54,0.028 0.539,0.07 0.543,0.133 0.543,0.148 0.543,0.188 0.539,0.257 0.543,0.286 0.543,0.308 0.515,0.356 0.539,0.418 0.539,0.464 0.543,0.485 0.543,0.539 0.535,0.598 0.543,0.625 0.543,0.671 0.543,0.696 1.082,1.543 0.528,0.758 0.484,0.824 1.008,1.699 2.039,3.848 0.488,1.023 0.512,1.063 1.008,2.214 2.015,4.778 0.512,1.258 0.488,1.285 1.012,2.64 2.008,5.524 4.055,11.781 0.515,1.52 0.488,1.527 1,3.098 2.016,6.16 4.051,12.179 0.496,1.489 0.519,1.449 1,2.894 2.012,5.497 0.516,1.304 0.488,1.297 1.027,2.5 2.016,4.613 0.543,1.164 0.539,1.114 1.109,2.082 0.543,0.957 0.543,0.933 1.082,1.653 0.567,0.769 0.543,0.664 0.543,0.649 0.543,0.574 0.535,0.512 0.57,0.445 0.543,0.379 0.535,0.312 0.543,0.254 0.543,0.18 0.571,0.109 0.539,0.024 0.543,-0.024 0.539,-0.136 0.543,-0.176 0.57,-0.285 0.539,-0.336 0.539,-0.434 0.543,-0.492 0.543,-0.594 0.57,-0.676 0.539,-0.742 0.539,-0.851 0.543,-0.926 0.575,-1.008 0.539,-1.086 0.539,-1.187 0.551,-1.262 0.543,-1.367 0.558,-1.449 1.09,-3.141 0.543,-1.734 0.543,-1.801 1.105,-3.867 0.543,-2.071 0.543,-2.164 1.11,-4.59 0.543,-2.449 0.539,-2.531 1.086,-5.316 2.187,-11.68 0.539,-3.149 0.574,-3.222 1.079,-6.739 2.191,-14.437 0.52,-3.563 0.488,-3.613 1.027,-7.461 2.043,-15.707 4.102,-34.332 0.488,-4.547 0.512,-4.586 1.043,-9.308 2.031,-19.196 4.086,-40.168 0.512,-5.16 0.515,-5.183 1.028,-10.449 2.046,-21.043 4.067,-42.594 8.179,-83.477 0.489,-4.926 0.515,-4.878 1.008,-9.645 1.988,-18.855 3.997,-35.5 0.519,-4.204 0.488,-4.156 1.004,-8.125 2.012,-15.527 4,-27.938 0.488,-3.172 0.52,-3.125 1.004,-6.007 1.988,-11.145 0.512,-2.578 0.492,-2.527 1.008,-4.825 2.011,-8.746 0.489,-1.988 0.492,-1.934 1.008,-3.613 0.511,-1.676 0.493,-1.625 1.004,-2.992 0.492,-1.39 0.515,-1.289 0.489,-1.243 0.492,-1.156 0.512,-1.113 0.496,-1.008 0.511,-0.949 0.493,-0.852 0.543,-0.879 0.542,-0.777 0.536,-0.691 0.543,-0.598 0.543,-0.539 0.543,-0.438 0.539,-0.359 0.543,-0.313 0.566,-0.207 0.543,-0.128 0.543,-0.075 0.539,0.024 0.543,0.078 0.543,0.152 0.543,0.235 0.539,0.304 0.543,0.364 0.543,0.441 0.543,0.492 0.539,0.567 0.543,0.621 0.543,0.668 1.082,1.546 0.543,0.848 0.566,0.906 1.082,1.989 0.543,1.058 0.543,1.11 1.078,2.347 0.543,1.235 0.543,1.289 1.082,2.656 2.168,5.758 4.364,12.715 8.691,27.035 0.492,1.519 0.512,1.524 1.008,2.969 2.039,5.777 0.488,1.39 0.52,1.368 1.003,2.66 2.036,5.027 0.519,1.188 0.488,1.164 1.036,2.215 0.488,1.054 0.516,1.035 1.007,1.989 0.512,0.929 0.492,0.871 1.031,1.708 0.489,0.8 0.515,0.746 1.008,1.391 0.52,0.645 0.511,0.593 0.493,0.571 0.511,0.539 0.52,0.488 0.488,0.441 0.516,0.414 0.519,0.387 0.489,0.336 0.515,0.281 0.516,0.262 0.492,0.231 0.512,0.179 0.492,0.133 0.519,0.102 0.512,0.078 0.492,0.023 1.032,-0.055 0.488,-0.101 0.516,-0.102 0.519,-0.179 0.488,-0.184 0.52,-0.227 0.512,-0.253 0.492,-0.321 0.512,-0.332 0.519,-0.359 0.488,-0.414 0.516,-0.442 1.008,-0.953 0.543,-0.566 0.562,-0.617 1.086,-1.321 0.567,-0.691 0.543,-0.75 1.109,-1.574 0.539,-0.828 0.543,-0.848 1.109,-1.809 2.196,-3.867 0.539,-1.004 0.55,-1.058 1.106,-2.118 2.195,-4.414 4.407,-9.23 1.082,-2.32 1.117,-2.325 2.183,-4.566 0.543,-1.109 0.575,-1.11 1.074,-2.191 2.191,-4.18 0.574,-0.98 0.536,-0.981 1.113,-1.91 0.543,-0.926 0.543,-0.879 1.105,-1.73 0.543,-0.824 0.543,-0.774 1.11,-1.523 0.542,-0.692 0.567,-0.699 1.082,-1.265 0.543,-0.59 0.543,-0.543 0.539,-0.516 0.543,-0.488 0.543,-0.469 0.543,-0.41 0.512,-0.387 0.543,-0.359 0.539,-0.34 0.543,-0.281 0.543,-0.258 0.542,-0.231 0.54,-0.21 0.543,-0.153 0.542,-0.129 0.54,-0.105 0.543,-0.055 0.511,-0.023 h 0.543 l 0.543,0.054 0.543,0.079 0.539,0.101 0.543,0.129 0.543,0.18 0.543,0.207 0.539,0.23 0.543,0.262 0.516,0.308 0.539,0.336 0.543,0.36 1.086,0.801 0.539,0.433 0.543,0.496 1.086,1.032 1.082,1.136 1.058,1.258 0.539,0.652 0.539,0.692 1.086,1.422 2.181,3.121 0.53,0.824 0.52,0.824 1.08,1.731 2.16,3.613 4.32,7.629 0.51,0.902 0.49,0.906 1.01,1.832 2.01,3.614 0.51,0.879 0.49,0.902 1.01,1.754 2.01,3.402 0.52,0.824 0.49,0.825 1,1.578 2.02,3.019 0.51,0.723 0.49,0.691 1.01,1.344 2.01,2.449 0.52,0.543 0.49,0.543 1,1.032 0.52,0.461 0.49,0.441 1,0.824 0.52,0.387 0.49,0.336 0.52,0.336 0.48,0.308 0.52,0.258 0.49,0.262 0.52,0.226 0.49,0.184 0.51,0.18 0.5,0.156 0.51,0.109 0.49,0.094 0.52,0.055 0.49,0.051 h 0.51 l 0.49,-0.028 0.52,-0.051 0.49,-0.05 0.51,-0.102 0.5,-0.133 0.51,-0.152 0.49,-0.18 0.51,-0.211 0.5,-0.226 0.54,-0.285 0.54,-0.313 0.57,-0.332 0.54,-0.359 1.08,-0.828 1.09,-0.957 0.56,-0.512 0.55,-0.52 1.08,-1.16 2.19,-2.601 1.09,-1.446 1.08,-1.547 2.19,-3.277 4.36,-7.25 0.54,-0.953 0.55,-0.981 1.08,-1.933 2.19,-3.953 4.36,-7.785 0.54,-0.957 0.57,-0.954 1.08,-1.832 2.17,-3.558 0.57,-0.856 0.54,-0.824 1.09,-1.598 2.18,-2.992 0.49,-0.621 0.52,-0.644 1.04,-1.161 0.48,-0.558 0.52,-0.551 1.03,-0.98 0.49,-0.465 0.51,-0.438 0.52,-0.414 0.52,-0.383 0.49,-0.339 0.51,-0.336 0.52,-0.309 0.49,-0.281 1.03,-0.453 0.52,-0.192 0.49,-0.156 0.52,-0.129 0.51,-0.101 0.51,-0.079 0.5,-0.054 0.51,-0.024 0.52,0.024 0.51,0.054 0.49,0.079 0.52,0.101 0.52,0.129 0.52,0.156 0.48,0.203 1.04,0.465 0.51,0.285 0.49,0.336 0.51,0.336 0.52,0.364 1.01,0.824 0.51,0.465 0.52,0.488 1.01,1.035 0.51,0.566 0.52,0.59 1.01,1.266 0.51,0.668 0.51,0.695 1.01,1.449 2.04,3.172 0.52,0.852 0.52,0.879 1,1.773 2.03,3.774 0.5,0.949 0.51,0.98 0.98,1.989 2.02,4.074 3.99,8.414 0.99,2.113 1,2.113 1.99,4.157 3.99,7.84 0.52,0.929 0.49,0.903 1,1.777 0.5,0.855 0.49,0.825 1,1.597 0.5,0.778 0.51,0.718 1.01,1.43 0.48,0.66 0.49,0.649 1.01,1.211 0.49,0.566 0.51,0.516 0.5,0.515 0.49,0.465 0.52,0.438 0.49,0.414 0.48,0.386 0.52,0.336 0.49,0.309 0.49,0.281 0.52,0.234 0.48,0.235 0.52,0.152 0.49,0.156 0.49,0.102 0.52,0.078 0.54,0.024 h 0.54 l 0.55,-0.047 0.53,-0.11 0.55,-0.148 0.54,-0.184 0.54,-0.234 0.54,-0.258 0.54,-0.308 0.55,-0.36 0.53,-0.41 0.55,-0.441 1.08,-1.036 1.09,-1.211 0.53,-0.667 0.55,-0.723 1.09,-1.547 0.53,-0.824 0.55,-0.871 1.08,-1.895 0.54,-1.008 0.54,-1.027 1.08,-2.191 2.17,-4.825 0.55,-1.289 0.53,-1.316 1.09,-2.734 2.17,-5.805 4.33,-12.664 8.66,-26.985 0.5,-1.523 0.51,-1.523 1.01,-2.989 2.02,-5.758 0.5,-1.367 0.49,-1.367 1.04,-2.625 2.01,-4.879 0.52,-1.133 0.49,-1.113 1,-2.09 0.52,-0.976 0.52,-0.926 1,-1.731 0.49,-0.8 0.52,-0.778 0.49,-0.691 0.51,-0.645 0.52,-0.597 0.49,-0.567 0.52,-0.492 0.49,-0.434 0.51,-0.363 0.52,-0.336 0.49,-0.258 0.52,-0.207 0.49,-0.156 0.51,-0.078 h 0.52 l 0.49,0.031 0.52,0.125 0.48,0.184 0.52,0.23 0.51,0.309 0.5,0.387 0.51,0.465 0.49,0.515 0.51,0.598 0.52,0.668 0.49,0.722 0.52,0.801 0.48,0.899 0.52,0.957 0.5,1.031 1.02,2.293 0.49,1.242 0.52,1.344 1.01,2.883 0.51,1.578 0.49,1.648 1.01,3.508 0.56,2.043 0.55,2.137 1.09,4.515 0.56,2.399 0.54,2.504 1.08,5.261 0.57,2.762 0.55,2.863 1.08,5.957 2.19,13 0.54,3.485 0.57,3.535 1.08,7.352 2.19,15.66 4.4,34.949 0.53,4.668 0.57,4.746 1.08,9.68 2.2,20.011 4.39,42.336 8.77,90.18 0.51,5.348 0.49,5.308 1.03,10.649 2.04,21.179 4.1,41.434 0.52,5.059 0.51,5 1.01,9.96 2.06,19.403 4.07,36.578 0.52,4.332 0.52,4.258 1.03,8.379 2.03,16.019 0.52,3.821 0.52,3.793 1.01,7.328 2.06,13.847 0.51,3.274 0.5,3.23 1.03,6.188 0.52,2.965 0.51,2.921 1.01,5.586 0.52,2.668 0.51,2.602 1.03,4.98 2.04,8.981 0.49,2.008 0.52,1.929 1,3.641 0.49,1.703 0.52,1.652 1,3.016 0.49,1.426 0.49,1.308 0.52,1.258 0.49,1.196 0.51,1.105 0.49,1.035 1.01,1.852 0.52,0.824 0.48,0.758 0.5,0.664 0.51,0.597 0.5,0.54 0.51,0.488 0.49,0.39 0.51,0.34 0.5,0.282 0.51,0.175 0.5,0.153 0.48,0.082 h 0.52 l 0.49,-0.028 0.52,-0.129 0.49,-0.156 0.51,-0.23 0.49,-0.282 0.52,-0.343 0.49,-0.379 0.49,-0.461 0.51,-0.496 0.49,-0.571 0.52,-0.582 0.49,-0.679 0.51,-0.699 1.02,-1.543 0.48,-0.852 0.49,-0.883 1,-1.879 0.52,-1.004 0.49,-1.027 1,-2.191 2.02,-4.805 0.49,-1.262 0.51,-1.297 1.01,-2.652 1.99,-5.598 0.57,-1.574 0.54,-1.57 1.08,-3.231 2.17,-6.55 4.36,-13.278 0.54,-1.648 0.55,-1.637 1.08,-3.219 2.19,-6.293 4.33,-11.586 0.54,-1.339 0.58,-1.289 1.07,-2.504 1.08,-2.379 1.09,-2.207 0.54,-1.071 0.54,-1.023 1.09,-1.934 0.56,-0.91 0.55,-0.844 1.08,-1.628 0.54,-0.75 0.55,-0.688 0.53,-0.68 0.55,-0.621 0.54,-0.57 0.54,-0.539 0.54,-0.485 0.55,-0.441 0.57,-0.414 0.53,-0.352 0.55,-0.312 0.54,-0.281 0.54,-0.235 0.54,-0.183 0.54,-0.157 0.54,-0.101 0.52,-0.059 0.52,-0.023 h 0.49 l 0.52,0.055 0.5,0.105 0.51,0.109 0.5,0.145 0.52,0.211 0.49,0.223 0.51,0.257 0.52,0.286 0.49,0.339 0.52,0.364 0.51,0.382 1.01,0.879 0.52,0.489 0.51,0.527 1.01,1.105 0.52,0.586 0.49,0.621 1.02,1.34 0.5,0.703 0.51,0.719 1,1.528 2.05,3.273 0.51,0.879 0.49,0.871 1.04,1.836 2.04,3.789 4.04,8.051 0.52,1.031 0.49,1.027 1.03,2.075 2.04,4.097 4.04,7.965 0.55,1.035 0.57,1 1.08,1.989 2.22,3.765 1.08,1.758 1.12,1.676 2.18,3.015 0.57,0.703 0.55,0.665 1.1,1.246 1.08,1.129 1.12,0.98 0.53,0.465 0.57,0.441 0.55,0.383 0.53,0.363 0.57,0.317 0.55,0.308 0.53,0.258 0.57,0.231 1.09,0.359 0.57,0.129 1.08,0.148 0.57,0.028 h 0.54 l 0.55,-0.047 0.56,-0.051 0.54,-0.105 0.55,-0.153 0.56,-0.164 0.54,-0.199 0.55,-0.234 0.56,-0.254 0.54,-0.289 0.55,-0.332 0.56,-0.368 0.54,-0.379 0.55,-0.421 0.56,-0.434 0.54,-0.457 1.11,-1.043 0.54,-0.539 0.55,-0.566 1.1,-1.239 2.2,-2.734 0.54,-0.695 0.54,-0.75 1.09,-1.543 2.16,-3.254 4.31,-7.043 1.09,-1.856 1.08,-1.836 2.17,-3.711 4.3,-7.25 0.54,-0.871 1.63,-2.558 2.17,-3.203 1.08,-1.493 1.09,-1.445 2.14,-2.621 1.08,-1.191 1.08,-1.086 1.09,-0.989 1.07,-0.89 1.09,-0.778 0.54,-0.359 1.09,-0.621 0.53,-0.262 0.55,-0.23 0.52,-0.203 0.51,-0.192 0.51,-0.148 0.5,-0.106 0.51,-0.093 0.5,-0.086 0.51,-0.024 0.49,-0.023 0.51,0.023 0.5,0.024 0.51,0.058 0.5,0.094 0.5,0.109 0.5,0.129 0.51,0.153 0.52,0.211 0.5,0.199 0.5,0.238 0.49,0.262 0.52,0.281 0.49,0.328 0.52,0.34 0.49,0.332 1.01,0.801 0.51,0.422 0.49,0.457 1.01,0.949 2.03,2.176 0.49,0.586 0.52,0.621 1,1.289 2.02,2.734 4.02,6.168 0.52,0.801 0.48,0.824 1.01,1.676 2.01,3.414 4.05,6.906 1.09,1.856 1.11,1.832 2.17,3.558 0.54,0.852 0.56,0.855 1.09,1.672 2.19,3.125 0.54,0.746 1.63,2.086 0.57,0.653 0.54,0.648 1.08,1.176 0.55,0.543 0.56,0.543 0.54,0.519 1.08,0.93 0.55,0.414 1.11,0.773 0.54,0.336 0.54,0.301 0.55,0.285 0.53,0.239 0.57,0.234 0.55,0.176 0.53,0.156 0.55,0.129 0.54,0.078 0.54,0.051 0.57,0.019 h 0.54 l 1.08,-0.101 0.55,-0.133 0.57,-0.121 0.53,-0.184 0.55,-0.207 0.54,-0.23 0.54,-0.258 0.54,-0.309 0.57,-0.339 0.54,-0.352 1.09,-0.824 0.53,-0.477 1.12,-1 1.08,-1.137 1.08,-1.261 0.51,-0.617 0.52,-0.653 1.04,-1.336 2.03,-2.996 0.5,-0.797 0.5,-0.8 1.04,-1.676 2.04,-3.586 0.52,-0.934 0.49,-0.922 1.03,-1.937 2.03,-3.945 4.08,-8.227 1.03,-2.063 1.01,-2.07 2.04,-4.07 0.51,-1.012 1.55,-2.937 2.04,-3.766 0.49,-0.902 0.51,-0.91 1.04,-1.719 0.51,-0.824 0.49,-0.825 1.03,-1.558 0.52,-0.742 0.49,-0.747 1.03,-1.371 1.05,-1.293 0.99,-1.152 0.49,-0.539 0.52,-0.504 0.49,-0.484 0.51,-0.442 0.49,-0.414 0.49,-0.379 0.52,-0.367 0.49,-0.332 0.51,-0.281 0.49,-0.262 0.49,-0.234 0.52,-0.176 0.49,-0.188 0.51,-0.093 0.49,-0.11 0.5,-0.05 0.51,-0.032 0.98,0.059 0.52,0.101 0.49,0.098 0.52,0.188 0.49,0.179 0.48,0.231 0.52,0.254 0.49,0.316 0.52,0.332 0.49,0.395 0.48,0.406 0.52,0.445 0.98,1 0.52,0.567 0.48,0.601 1.01,1.285 0.5,0.692 0.51,0.726 1.01,1.575 0.49,0.824 0.49,0.875 1,1.836 2.02,4.027 0.48,1.086 0.49,1.133 1.01,2.289 2.01,4.922 4.01,10.898 0.53,1.543 1.63,4.801 2.17,6.523 4.33,13.231 0.54,1.648 0.54,1.629 1.11,3.227 2.17,6.261 0.54,1.528 0.55,1.492 1.08,2.918 2.17,5.441 0.53,1.286 0.54,1.246 1.09,2.367 0.54,1.113 0.54,1.078 1.08,2.02 0.55,0.929 0.54,0.872 0.54,0.824 0.54,0.781 0.55,0.719 0.54,0.648 0.54,0.61 0.57,0.527 0.54,0.488 0.54,0.41 0.54,0.336 0.55,0.285 0.53,0.231 0.55,0.133 0.54,0.07 h 0.54 l 0.54,-0.043 0.54,-0.16 0.55,-0.231 0.53,-0.285 0.55,-0.394 0.54,-0.434 0.54,-0.535 0.54,-0.598 0.52,-0.648 0.49,-0.719 0.51,-0.769 0.52,-0.879 0.49,-0.934 0.52,-1.004 1,-2.25 0.52,-1.199 0.49,-1.32 1.03,-2.84 0.49,-1.555 0.52,-1.59 1.01,-3.457 0.51,-1.855 0.49,-1.91 1.03,-4.082 0.5,-2.137 0.5,-2.242 1.01,-4.703 0.52,-2.446 0.49,-2.535 1.03,-5.301 2.01,-11.504 0.52,-3.074 0.49,-3.125 1.03,-6.469 2.01,-13.832 4.06,-30.828 0.51,-4.125 0.49,-4.179 1.03,-8.563 2.01,-17.746 4.05,-37.742 0.58,-5.492 0.56,-5.524 1.14,-11.148 2.23,-22.774 4.55,-46.636 0.56,-5.911 0.57,-5.886 1.11,-11.813 2.28,-23.523 4.51,-46.278 0.57,-5.675 0.56,-5.625 1.13,-11.141 2.28,-21.75 0.57,-5.312 0.53,-5.262 1.15,-10.344 2.26,-19.969 0.57,-4.82 0.56,-4.75 1.14,-9.312 2.24,-17.696 0.57,-4.23 0.57,-4.129 1.14,-8.047 0.57,-3.867 0.56,-3.821 0.57,-3.714 0.54,-3.614"
         style="fill:none;stroke:#3871c1;stroke-width:7.5;stroke-linecap:square;stroke-linejoin:miter;stroke-miterlimit:3.25;stroke-dasharray:none;stroke-opacity:1"
         transform="matrix(0.13333333,0,0,-0.13333333,0,136.93333)" />
      <path
         id="path18"
         d="M 0,513.535 H 1661.79"
         style="fill:none;stroke:#231f20;stroke-width:5;stroke-linecap:butt;stroke-linejoin:miter;stroke-miterlimit:3.25;stroke-dasharray:none;stroke-opacity:1"
         transform="matrix(0.13333333,0,0,-0.13333333,0,136.93333)" />
      <path
         id="path19"
         d="M 33.2227,0 V 1027.05"
         style="fill:none;stroke:#231f20;stroke-width:5;stroke-linecap:butt;stroke-linejoin:miter;stroke-miterlimit:3.25;stroke-dasharray:none;stroke-opacity:1"
         transform="matrix(0.13333333,0,0,-0.13333333,0,136.93333)" />
      <path
         id="path20"
         d="m 46.2148,282.445 c 0,3.45 -1.3554,6.743 -3.8085,9.196 -2.418,2.418 -5.7383,3.797 -9.1875,3.797 -3.418,0 -6.7344,-1.379 -9.1563,-3.797 -2.4531,-2.453 -3.8047,-5.746 -3.8047,-9.196 0,-3.445 1.3516,-6.738 3.8047,-9.187 2.4219,-2.418 5.7383,-3.805 9.1563,-3.805 3.4492,0 6.7695,1.387 9.1875,3.805 2.4531,2.449 3.8085,5.742 3.8085,9.187 v 0"
         style="fill:#231f20;fill-opacity:1;fill-rule:evenodd;stroke:none"
         transform="matrix(0.13333333,0,0,-0.13333333,0,136.93333)" />
      <path
         id="path21"
         d="m 97.6758,282.445 c 0,3.45 -1.3516,6.743 -3.8047,9.196 -2.4219,2.418 -5.7344,3.797 -9.1875,3.797 -3.418,0 -6.7344,-1.379 -9.1563,-3.797 -2.4492,-2.453 -3.8046,-5.746 -3.8046,-9.196 0,-3.445 1.3554,-6.738 3.8046,-9.187 2.4219,-2.418 5.7383,-3.805 9.1563,-3.805 3.4531,0 6.7656,1.387 9.1875,3.805 2.4531,2.449 3.8047,5.742 3.8047,9.187 v 0"
         style="fill:#231f20;fill-opacity:1;fill-rule:evenodd;stroke:none"
         transform="matrix(0.13333333,0,0,-0.13333333,0,136.93333)" />
      <path
         id="path22"
         d="m 149.141,282.445 c 0,3.45 -1.352,6.743 -3.805,9.196 -2.422,2.418 -5.742,3.797 -9.191,3.797 -3.418,0 -6.747,-1.379 -9.153,-3.797 -2.453,-2.453 -3.808,-5.746 -3.808,-9.196 0,-3.445 1.355,-6.738 3.808,-9.187 2.406,-2.418 5.735,-3.805 9.153,-3.805 3.449,0 6.769,1.387 9.191,3.805 2.453,2.449 3.805,5.742 3.805,9.187 v 0"
         style="fill:#231f20;fill-opacity:1;fill-rule:evenodd;stroke:none"
         transform="matrix(0.13333333,0,0,-0.13333333,0,136.93333)" />
      <path
         id="path23"
         d="m 200.605,282.445 c 0,3.45 -1.39,6.743 -3.804,9.196 -2.449,2.418 -5.742,3.797 -9.196,3.797 -3.417,0 -6.746,-1.379 -9.16,-3.797 -2.445,-2.453 -3.797,-5.746 -3.797,-9.196 0,-3.445 1.352,-6.738 3.797,-9.187 2.414,-2.418 5.743,-3.805 9.16,-3.805 3.454,0 6.747,1.387 9.196,3.805 2.414,2.449 3.804,5.742 3.804,9.187 v 0"
         style="fill:#231f20;fill-opacity:1;fill-rule:evenodd;stroke:none"
         transform="matrix(0.13333333,0,0,-0.13333333,0,136.93333)" />
      <path
         id="path24"
         d="m 252.066,282.445 c 0,3.45 -1.386,6.743 -3.804,9.196 -2.449,2.418 -5.739,3.797 -9.192,3.797 -3.449,0 -6.742,-1.379 -9.164,-3.797 -2.433,-2.453 -3.801,-5.746 -3.801,-9.196 0,-3.445 1.368,-6.738 3.801,-9.187 2.422,-2.418 5.715,-3.805 9.164,-3.805 3.453,0 6.743,1.387 9.192,3.805 2.418,2.449 3.804,5.742 3.804,9.187 v 0"
         style="fill:#231f20;fill-opacity:1;fill-rule:evenodd;stroke:none"
         transform="matrix(0.13333333,0,0,-0.13333333,0,136.93333)" />
      <path
         id="path25"
         d="m 303.531,282.445 c 0,3.45 -1.386,6.743 -3.804,9.196 -2.454,2.418 -5.739,3.797 -9.196,3.797 -3.445,0 -6.738,-1.379 -9.187,-3.797 -2.406,-2.453 -3.778,-5.746 -3.778,-9.196 0,-3.445 1.372,-6.738 3.778,-9.187 2.449,-2.418 5.742,-3.805 9.187,-3.805 3.457,0 6.742,1.387 9.196,3.805 2.418,2.449 3.804,5.742 3.804,9.187 v 0"
         style="fill:#231f20;fill-opacity:1;fill-rule:evenodd;stroke:none"
         transform="matrix(0.13333333,0,0,-0.13333333,0,136.93333)" />
      <path
         id="path26"
         d="m 354.996,282.445 c 0,3.45 -1.387,6.743 -3.805,9.196 -2.453,2.418 -5.73,3.797 -9.183,3.797 -3.457,0 -6.754,-1.379 -9.199,-3.797 -2.418,-2.453 -3.793,-5.746 -3.793,-9.196 0,-3.445 1.375,-6.738 3.793,-9.187 2.445,-2.418 5.742,-3.805 9.199,-3.805 3.453,0 6.73,1.387 9.183,3.805 2.418,2.449 3.805,5.742 3.805,9.187 v 0"
         style="fill:#231f20;fill-opacity:1;fill-rule:evenodd;stroke:none"
         transform="matrix(0.13333333,0,0,-0.13333333,0,136.93333)" />
      <path
         id="path27"
         d="m 406.461,282.445 c 0,3.45 -1.387,6.743 -3.809,9.196 -2.453,2.418 -5.726,3.797 -9.179,3.797 -3.453,0 -6.754,-1.379 -9.203,-3.797 -2.418,-2.453 -3.79,-5.746 -3.79,-9.196 0,-3.445 1.372,-6.738 3.79,-9.187 2.449,-2.418 5.75,-3.805 9.203,-3.805 3.453,0 6.726,1.387 9.179,3.805 2.422,2.449 3.809,5.742 3.809,9.187 v 0"
         style="fill:#231f20;fill-opacity:1;fill-rule:evenodd;stroke:none"
         transform="matrix(0.13333333,0,0,-0.13333333,0,136.93333)" />
      <path
         id="path28"
         d="m 457.926,744.609 c 0,3.457 -1.387,6.739 -3.805,9.188 -2.449,2.418 -5.738,3.808 -9.187,3.808 -3.45,0 -6.75,-1.39 -9.204,-3.808 -2.414,-2.449 -3.8,-5.731 -3.8,-9.188 0,-3.449 1.386,-6.746 3.8,-9.183 2.454,-2.418 5.754,-3.785 9.204,-3.785 3.449,0 6.738,1.367 9.187,3.785 2.418,2.437 3.805,5.734 3.805,9.183 v 0"
         style="fill:#231f20;fill-opacity:1;fill-rule:evenodd;stroke:none"
         transform="matrix(0.13333333,0,0,-0.13333333,0,136.93333)" />
      <path
         id="path29"
         d="m 509.391,744.609 c 0,3.457 -1.387,6.739 -3.805,9.188 -2.449,2.418 -5.738,3.808 -9.191,3.808 -3.446,0 -6.743,-1.39 -9.2,-3.808 -2.414,-2.449 -3.804,-5.731 -3.804,-9.188 0,-3.449 1.39,-6.746 3.804,-9.183 2.457,-2.418 5.754,-3.785 9.2,-3.785 3.453,0 6.742,1.367 9.191,3.785 2.418,2.437 3.805,5.734 3.805,9.183 v 0"
         style="fill:#231f20;fill-opacity:1;fill-rule:evenodd;stroke:none"
         transform="matrix(0.13333333,0,0,-0.13333333,0,136.93333)" />
      <path
         id="path30"
         d="m 560.82,744.609 c 0,3.457 -1.351,6.739 -3.773,9.188 -2.453,2.418 -5.731,3.808 -9.18,3.808 -3.453,0 -6.75,-1.39 -9.207,-3.808 -2.414,-2.449 -3.801,-5.731 -3.801,-9.188 0,-3.449 1.387,-6.746 3.801,-9.183 2.457,-2.418 5.754,-3.785 9.207,-3.785 3.449,0 6.727,1.367 9.18,3.785 2.422,2.437 3.773,5.734 3.773,9.183 v 0"
         style="fill:#231f20;fill-opacity:1;fill-rule:evenodd;stroke:none"
         transform="matrix(0.13333333,0,0,-0.13333333,0,136.93333)" />
      <path
         id="path31"
         d="m 612.285,744.609 c 0,3.457 -1.351,6.739 -3.805,9.188 -2.421,2.418 -5.703,3.808 -9.156,3.808 -3.445,0 -6.742,-1.39 -9.195,-3.808 -2.418,-2.449 -3.805,-5.731 -3.805,-9.188 0,-3.449 1.387,-6.746 3.805,-9.183 2.453,-2.418 5.75,-3.785 9.195,-3.785 3.453,0 6.735,1.367 9.156,3.785 2.454,2.437 3.805,5.734 3.805,9.183 v 0"
         style="fill:#231f20;fill-opacity:1;fill-rule:evenodd;stroke:none"
         transform="matrix(0.13333333,0,0,-0.13333333,0,136.93333)" />
      <path
         id="path32"
         d="m 663.75,744.609 c 0,3.457 -1.352,6.739 -3.805,9.188 -2.422,2.418 -5.703,3.808 -9.152,3.808 -3.449,0 -6.746,-1.39 -9.199,-3.808 -2.418,-2.449 -3.805,-5.731 -3.805,-9.188 0,-3.449 1.387,-6.746 3.805,-9.183 2.453,-2.418 5.75,-3.785 9.199,-3.785 3.449,0 6.73,1.367 9.152,3.785 2.453,2.437 3.805,5.734 3.805,9.183 v 0"
         style="fill:#231f20;fill-opacity:1;fill-rule:evenodd;stroke:none"
         transform="matrix(0.13333333,0,0,-0.13333333,0,136.93333)" />
      <path
         id="path33"
         d="m 715.215,744.609 c 0,3.457 -1.36,6.739 -3.809,9.188 -2.418,2.418 -5.73,3.808 -9.148,3.808 -3.449,0 -6.778,-1.39 -9.199,-3.808 -2.454,-2.449 -3.813,-5.731 -3.813,-9.188 0,-3.449 1.359,-6.746 3.813,-9.183 2.421,-2.418 5.75,-3.785 9.199,-3.785 3.418,0 6.73,1.367 9.148,3.785 2.449,2.437 3.809,5.734 3.809,9.183 v 0"
         style="fill:#231f20;fill-opacity:1;fill-rule:evenodd;stroke:none"
         transform="matrix(0.13333333,0,0,-0.13333333,0,136.93333)" />
      <path
         id="path34"
         d="m 766.676,744.609 c 0,3.457 -1.348,6.739 -3.805,9.188 -2.422,2.418 -5.738,3.808 -9.16,3.808 -3.441,0 -6.77,-1.39 -9.191,-3.808 -2.454,-2.449 -3.805,-5.731 -3.805,-9.188 0,-3.449 1.351,-6.746 3.805,-9.183 2.421,-2.418 5.75,-3.785 9.191,-3.785 3.422,0 6.738,1.367 9.16,3.785 2.457,2.437 3.805,5.734 3.805,9.183 v 0"
         style="fill:#231f20;fill-opacity:1;fill-rule:evenodd;stroke:none"
         transform="matrix(0.13333333,0,0,-0.13333333,0,136.93333)" />
      <path
         id="path35"
         d="m 818.141,744.609 c 0,3.457 -1.348,6.739 -3.805,9.188 -2.422,2.418 -5.738,3.808 -9.164,3.808 -3.438,0 -6.77,-1.39 -9.188,-3.808 -2.453,-2.449 -3.8,-5.731 -3.8,-9.188 0,-3.449 1.347,-6.746 3.8,-9.183 2.418,-2.418 5.75,-3.785 9.188,-3.785 3.426,0 6.742,1.367 9.164,3.785 2.457,2.437 3.805,5.734 3.805,9.183 v 0"
         style="fill:#231f20;fill-opacity:1;fill-rule:evenodd;stroke:none"
         transform="matrix(0.13333333,0,0,-0.13333333,0,136.93333)" />
      <path
         id="path36"
         d="m 869.605,282.445 c 0,3.45 -1.359,6.743 -3.808,9.196 -2.418,2.418 -5.738,3.797 -9.192,3.797 -3.417,0 -6.738,-1.379 -9.16,-3.797 -2.445,-2.453 -3.8,-5.746 -3.8,-9.196 0,-3.445 1.355,-6.738 3.8,-9.187 2.422,-2.418 5.743,-3.805 9.16,-3.805 3.454,0 6.774,1.387 9.192,3.805 2.449,2.449 3.808,5.742 3.808,9.187 v 0"
         style="fill:#231f20;fill-opacity:1;fill-rule:evenodd;stroke:none"
         transform="matrix(0.13333333,0,0,-0.13333333,0,136.93333)" />
      <path
         id="path37"
         d="m 921.063,282.445 c 0,3.45 -1.352,6.743 -3.801,9.196 -2.422,2.418 -5.739,3.797 -9.18,3.797 -3.43,0 -6.75,-1.379 -9.172,-3.797 -2.449,-2.453 -3.805,-5.746 -3.805,-9.196 0,-3.445 1.356,-6.738 3.805,-9.187 2.422,-2.418 5.742,-3.805 9.172,-3.805 3.441,0 6.758,1.387 9.18,3.805 2.449,2.449 3.801,5.742 3.801,9.187 v 0"
         style="fill:#231f20;fill-opacity:1;fill-rule:evenodd;stroke:none"
         transform="matrix(0.13333333,0,0,-0.13333333,0,136.93333)" />
      <path
         id="path38"
         d="m 972.527,282.445 c 0,3.45 -1.355,6.743 -3.804,9.196 -2.418,2.418 -5.739,3.797 -9.188,3.797 -3.422,0 -6.738,-1.379 -9.152,-3.797 -2.453,-2.453 -3.813,-5.746 -3.813,-9.196 0,-3.445 1.36,-6.738 3.813,-9.187 2.414,-2.418 5.73,-3.805 9.152,-3.805 3.449,0 6.77,1.387 9.188,3.805 2.449,2.449 3.804,5.742 3.804,9.187 v 0"
         style="fill:#231f20;fill-opacity:1;fill-rule:evenodd;stroke:none"
         transform="matrix(0.13333333,0,0,-0.13333333,0,136.93333)" />
      <path
         id="path39"
         d="m 1023.99,282.445 c 0,3.45 -1.38,6.743 -3.8,9.196 -2.46,2.418 -5.74,3.797 -9.19,3.797 -3.46,0 -6.74,-1.379 -9.16,-3.797 -2.445,-2.453 -3.809,-5.746 -3.809,-9.196 0,-3.445 1.364,-6.738 3.809,-9.187 2.42,-2.418 5.7,-3.805 9.16,-3.805 3.45,0 6.73,1.387 9.19,3.805 2.42,2.449 3.8,5.742 3.8,9.187 v 0"
         style="fill:#231f20;fill-opacity:1;fill-rule:evenodd;stroke:none"
         transform="matrix(0.13333333,0,0,-0.13333333,0,136.93333)" />
      <path
         id="path40"
         d="m 1075.45,282.445 c 0,3.45 -1.37,6.743 -3.8,9.196 -2.46,2.418 -5.74,3.797 -9.18,3.797 -3.46,0 -6.74,-1.379 -9.16,-3.797 -2.46,-2.453 -3.81,-5.746 -3.81,-9.196 0,-3.445 1.35,-6.738 3.81,-9.187 2.42,-2.418 5.7,-3.805 9.16,-3.805 3.44,0 6.72,1.387 9.18,3.805 2.43,2.449 3.8,5.742 3.8,9.187 v 0"
         style="fill:#231f20;fill-opacity:1;fill-rule:evenodd;stroke:none"
         transform="matrix(0.13333333,0,0,-0.13333333,0,136.93333)" />
      <path
         id="path41"
         d="m 1126.92,282.445 c 0,3.45 -1.39,6.743 -3.81,9.196 -2.45,2.418 -5.73,3.797 -9.18,3.797 -3.46,0 -6.75,-1.379 -9.2,-3.797 -2.41,-2.453 -3.77,-5.746 -3.77,-9.196 0,-3.445 1.36,-6.738 3.77,-9.187 2.45,-2.418 5.74,-3.805 9.2,-3.805 3.45,0 6.73,1.387 9.18,3.805 2.42,2.449 3.81,5.742 3.81,9.187 v 0"
         style="fill:#231f20;fill-opacity:1;fill-rule:evenodd;stroke:none"
         transform="matrix(0.13333333,0,0,-0.13333333,0,136.93333)" />
      <path
         id="path42"
         d="m 1178.38,282.445 c 0,3.45 -1.38,6.743 -3.8,9.196 -2.45,2.418 -5.74,3.797 -9.18,3.797 -3.46,0 -6.75,-1.379 -9.2,-3.797 -2.42,-2.453 -3.8,-5.746 -3.8,-9.196 0,-3.445 1.38,-6.738 3.8,-9.187 2.45,-2.418 5.74,-3.805 9.2,-3.805 3.44,0 6.73,1.387 9.18,3.805 2.42,2.449 3.8,5.742 3.8,9.187 v 0"
         style="fill:#231f20;fill-opacity:1;fill-rule:evenodd;stroke:none"
         transform="matrix(0.13333333,0,0,-0.13333333,0,136.93333)" />
      <path
         id="path43"
         d="m 1229.85,282.445 c 0,3.45 -1.39,6.743 -3.8,9.196 -2.45,2.418 -5.74,3.797 -9.2,3.797 -3.45,0 -6.74,-1.379 -9.19,-3.797 -2.41,-2.453 -3.8,-5.746 -3.8,-9.196 0,-3.445 1.39,-6.738 3.8,-9.187 2.45,-2.418 5.74,-3.805 9.19,-3.805 3.46,0 6.75,1.387 9.2,3.805 2.41,2.449 3.8,5.742 3.8,9.187 v 0"
         style="fill:#231f20;fill-opacity:1;fill-rule:evenodd;stroke:none"
         transform="matrix(0.13333333,0,0,-0.13333333,0,136.93333)" />
      <path
         id="path44"
         d="m 1281.31,744.609 c 0,3.457 -1.38,6.739 -3.8,9.188 -2.45,2.418 -5.75,3.808 -9.19,3.808 -3.45,0 -6.74,-1.39 -9.19,-3.808 -2.42,-2.449 -3.8,-5.731 -3.8,-9.188 0,-3.449 1.38,-6.746 3.8,-9.183 2.45,-2.418 5.74,-3.785 9.19,-3.785 3.44,0 6.74,1.367 9.19,3.785 2.42,2.437 3.8,5.734 3.8,9.183 v 0"
         style="fill:#231f20;fill-opacity:1;fill-rule:evenodd;stroke:none"
         transform="matrix(0.13333333,0,0,-0.13333333,0,136.93333)" />
      <path
         id="path45"
         d="m 1332.78,744.609 c 0,3.457 -1.38,6.739 -3.81,9.188 -2.45,2.418 -5.74,3.808 -9.19,3.808 -3.45,0 -6.74,-1.39 -9.19,-3.808 -2.42,-2.449 -3.8,-5.731 -3.8,-9.188 0,-3.449 1.38,-6.746 3.8,-9.183 2.45,-2.418 5.74,-3.785 9.19,-3.785 3.45,0 6.74,1.367 9.19,3.785 2.43,2.437 3.81,5.734 3.81,9.183 v 0"
         style="fill:#231f20;fill-opacity:1;fill-rule:evenodd;stroke:none"
         transform="matrix(0.13333333,0,0,-0.13333333,0,136.93333)" />
      <path
         id="path46"
         d="m 1384.21,744.609 c 0,3.457 -1.35,6.739 -3.77,9.188 -2.46,2.418 -5.74,3.808 -9.19,3.808 -3.45,0 -6.73,-1.39 -9.18,-3.808 -2.44,-2.449 -3.81,-5.731 -3.81,-9.188 0,-3.449 1.37,-6.746 3.81,-9.183 2.45,-2.418 5.73,-3.785 9.18,-3.785 3.45,0 6.73,1.367 9.19,3.785 2.42,2.437 3.77,5.734 3.77,9.183 v 0"
         style="fill:#231f20;fill-opacity:1;fill-rule:evenodd;stroke:none"
         transform="matrix(0.13333333,0,0,-0.13333333,0,136.93333)" />
      <path
         id="path47"
         d="m 1435.69,744.609 c 0,3.457 -1.37,6.739 -3.82,9.188 -2.42,2.418 -5.7,3.808 -9.16,3.808 -3.45,0 -6.74,-1.39 -9.19,-3.808 -2.42,-2.449 -3.81,-5.731 -3.81,-9.188 0,-3.449 1.39,-6.746 3.81,-9.183 2.45,-2.418 5.74,-3.785 9.19,-3.785 3.46,0 6.74,1.367 9.16,3.785 2.45,2.437 3.82,5.734 3.82,9.183 v 0"
         style="fill:#231f20;fill-opacity:1;fill-rule:evenodd;stroke:none"
         transform="matrix(0.13333333,0,0,-0.13333333,0,136.93333)" />
      <path
         id="path48"
         d="m 1487.14,744.609 c 0,3.457 -1.36,6.739 -3.81,9.188 -2.42,2.418 -5.74,3.808 -9.16,3.808 -3.44,0 -6.73,-1.39 -9.18,-3.808 -2.43,-2.449 -3.81,-5.731 -3.81,-9.188 0,-3.449 1.38,-6.746 3.81,-9.183 2.45,-2.418 5.74,-3.785 9.18,-3.785 3.42,0 6.74,1.367 9.16,3.785 2.45,2.437 3.81,5.734 3.81,9.183 v 0"
         style="fill:#231f20;fill-opacity:1;fill-rule:evenodd;stroke:none"
         transform="matrix(0.13333333,0,0,-0.13333333,0,136.93333)" />
      <path
         id="path49"
         d="m 1538.6,744.609 c 0,3.457 -1.36,6.739 -3.81,9.188 -2.41,2.418 -5.73,3.808 -9.15,3.808 -3.46,0 -6.77,-1.39 -9.19,-3.808 -2.45,-2.449 -3.81,-5.731 -3.81,-9.188 0,-3.449 1.36,-6.746 3.81,-9.183 2.42,-2.418 5.73,-3.785 9.19,-3.785 3.42,0 6.74,1.367 9.15,3.785 2.45,2.437 3.81,5.734 3.81,9.183 v 0"
         style="fill:#231f20;fill-opacity:1;fill-rule:evenodd;stroke:none"
         transform="matrix(0.13333333,0,0,-0.13333333,0,136.93333)" />
      <path
         id="path50"
         d="m 1590.06,744.609 c 0,3.457 -1.35,6.739 -3.81,9.188 -2.41,2.418 -5.73,3.808 -9.16,3.808 -3.44,0 -6.76,-1.39 -9.17,-3.808 -2.46,-2.449 -3.81,-5.731 -3.81,-9.188 0,-3.449 1.35,-6.746 3.81,-9.183 2.41,-2.418 5.73,-3.785 9.17,-3.785 3.43,0 6.75,1.367 9.16,3.785 2.46,2.437 3.81,5.734 3.81,9.183 v 0"
         style="fill:#231f20;fill-opacity:1;fill-rule:evenodd;stroke:none"
         transform="matrix(0.13333333,0,0,-0.13333333,0,136.93333)" />
      <path
         id="path51"
         d="m 1641.53,744.609 c 0,3.457 -1.36,6.739 -3.81,9.188 -2.41,2.418 -5.73,3.808 -9.16,3.808 -3.45,0 -6.77,-1.39 -9.18,-3.808 -2.45,-2.449 -3.81,-5.731 -3.81,-9.188 0,-3.449 1.36,-6.746 3.81,-9.183 2.41,-2.418 5.73,-3.785 9.18,-3.785 3.43,0 6.75,1.367 9.16,3.785 2.45,2.437 3.81,5.734 3.81,9.183 v 0"
         style="fill:#231f20;fill-opacity:1;fill-rule:evenodd;stroke:none"
         transform="matrix(0.13333333,0,0,-0.13333333,0,136.93333)" />
    </g>
  </g>
</svg>
