<?xml version="1.0" encoding="UTF-8" standalone="no"?>
<!-- Created with Inkscape (http://www.inkscape.org/) -->

<svg
   version="1.1"
   id="svg1"
   width="509.70667"
   height="111.50667"
   viewBox="0 0 509.70667 111.50667"
   sodipodi:docname="pha08f07.eps"
   xmlns:inkscape="http://www.inkscape.org/namespaces/inkscape"
   xmlns:sodipodi="http://sodipodi.sourceforge.net/DTD/sodipodi-0.dtd"
   xmlns="http://www.w3.org/2000/svg"
   xmlns:svg="http://www.w3.org/2000/svg">
  <defs
     id="defs1" />
  <sodipodi:namedview
     id="namedview1"
     pagecolor="#ffffff"
     bordercolor="#000000"
     borderopacity="0.25"
     inkscape:showpageshadow="2"
     inkscape:pageopacity="0.0"
     inkscape:pagecheckerboard="0"
     inkscape:deskcolor="#d1d1d1">
    <inkscape:page
       x="0"
       y="0"
       inkscape:label="1"
       id="page1"
       width="509.70667"
       height="111.50667"
       margin="0"
       bleed="0" />
  </sodipodi:namedview>
  <g
     id="g1"
     inkscape:groupmode="layer"
     inkscape:label="1">
    <g
       id="group-R5">
      <path
         id="path2"
         d="m 69.8516,165.898 h 5.5078 l 0.2851,0.024 h 2.0352 l 0.2851,0.023 h 1.1446 l 0.3086,0.028 h 0.8711 l 0.2734,0.023 h 0.2813 l 0.5859,0.02 0.2851,0.023 h 0.3086 l 0.2696,0.024 h 0.2851 l 0.3086,0.027 0.2813,0.023 0.5859,0.043 h 0.2852 l 0.2734,0.024 0.3047,0.05 0.5625,0.043 0.3086,0.051 0.5547,0.067 0.3086,0.027 0.5664,0.09 0.3047,0.074 0.2812,0.043 0.2852,0.074 0.5781,0.117 0.3281,0.094 0.6094,0.184 0.3281,0.094 0.6172,0.234 0.6289,0.258 0.3281,0.168 0.6055,0.324 0.332,0.187 0.3008,0.192 0.3086,0.207 0.6289,0.496 0.332,0.258 0.3086,0.277 0.2969,0.309 0.332,0.3 0.3047,0.356 0.3321,0.375 0.6054,0.793 0.3282,0.445 0.3046,0.469 0.3008,0.519 0.3321,0.536 0.3046,0.562 0.3243,0.61 0.6132,1.316 0.3282,0.726 0.3086,0.77 0.6289,1.691 0.3047,0.911 0.3243,0.964 0.609,2.09 0.332,1.141 0.305,1.195 0.629,2.606 0.308,1.379 0.325,1.476 0.613,3.188 0.332,1.714 0.297,1.801 0.637,3.867 0.304,2.067 0.325,2.176 0.609,4.64 0.332,2.485 0.301,2.578 0.636,5.535 1.243,12.512 0.304,3.214 0.285,3.325 0.582,7.031 0.301,3.68 0.285,3.82 0.59,8.016 0.297,4.218 0.285,4.336 0.586,9.094 1.172,19.805 0.301,5.297 0.285,5.441 0.578,11.293 1.18,24.281 2.34,55.035 0.304,7.426 0.286,7.574 0.589,15.469 1.168,32.129 2.348,67.969 0.297,8.746 0.277,8.738 1.762,52.594 2.348,67.969 0.281,7.968 0.285,7.856 0.578,15.324 1.152,28.973 0.286,6.816 0.277,6.66 0.586,12.727 0.277,6.062 0.285,5.84 0.586,11.067 0.278,5.156 0.281,4.941 0.305,4.692 0.285,4.429 0.281,4.168 0.285,3.918 0.578,7.032 0.285,3.089 0.278,2.813 0.308,2.535 0.278,2.227 0.289,1.941 0.277,1.645 0.301,1.359 0.285,1.055 0.277,0.746 0.286,0.445 0.308,0.16 0.278,-0.16 0.277,-0.445 0.277,-0.77 0.309,-1.055 0.285,-1.359 0.281,-1.644 0.285,-1.946 0.301,-2.25 0.278,-2.527 0.281,-2.82 0.281,-3.086 0.586,-7.035 0.289,-3.911 0.277,-4.199 0.586,-9.113 0.282,-4.945 0.281,-5.18 0.586,-11.047 0.285,-5.852 0.269,-6.07 0.594,-12.73 1.149,-27.676 0.304,-7.945 0.305,-8.114 0.629,-16.711 1.25,-34.965 2.48,-73.64 0.328,-9.328 0.301,-9.332 0.629,-18.614 1.25,-36.769 2.488,-69.84 0.297,-8.254 0.332,-8.133 0.61,-15.89 1.246,-30.067 0.32,-7.148 0.309,-7.012 0.609,-13.519 1.266,-25.196 0.301,-5.91 0.304,-5.742 0.641,-11.016 0.297,-5.273 0.308,-5.106 0.633,-9.777 0.301,-4.637 0.308,-4.527 0.633,-8.555 1.246,-15.422 0.301,-3.281 0.278,-3.187 0.585,-6 0.286,-2.832 0.308,-2.719 0.555,-5.184 0.308,-2.433 0.278,-2.321 0.586,-4.41 1.172,-7.758 0.285,-1.734 0.281,-1.664 0.582,-3.117 0.305,-1.453 0.285,-1.383 0.586,-2.578 0.285,-1.215 0.297,-1.129 0.566,-2.133 0.301,-0.98 0.285,-0.938 0.586,-1.734 0.278,-0.801 0.308,-0.773 0.563,-1.407 0.304,-0.632 0.285,-0.606 0.582,-1.152 0.282,-0.512 0.304,-0.469 0.59,-0.914 0.559,-0.793 0.586,-0.711 0.304,-0.328 0.286,-0.301 0.273,-0.285 0.309,-0.258 0.281,-0.253 0.305,-0.235 0.562,-0.449 0.301,-0.18 0.281,-0.191 0.309,-0.168 0.277,-0.164 0.285,-0.137 0.309,-0.141 0.578,-0.261 0.309,-0.117 0.328,-0.118 0.304,-0.117 0.301,-0.086 0.332,-0.097 0.301,-0.075 0.633,-0.16 0.332,-0.074 0.304,-0.043 0.309,-0.074 0.32,-0.043 0.309,-0.047 0.328,-0.051 0.629,-0.07 0.309,-0.047 0.332,-0.02 0.605,-0.05 0.328,-0.024 0.309,-0.023 0.32,-0.02 0.309,-0.023 0.328,-0.027 0.305,-0.024 h 0.296 l 0.332,-0.023 h 0.309 l 0.328,-0.02 h 0.629 l 0.309,-0.023 h 0.629 l 0.308,-0.028 h 0.961 l 0.305,-0.023 h 2.203 l 0.324,-0.024 h 10.899 l 0.332,0.024 h 2.156 l 0.305,0.023 h 0.933 l 0.309,0.028 h 0.609 l 0.305,0.023 h 0.633 l 0.308,0.02 h 0.297 l 0.305,0.023 h 0.332 l 1.219,0.094 h 0.3 l 0.633,0.074 0.613,0.043 0.309,0.047 0.32,0.027 1.223,0.184 0.328,0.051 0.301,0.066 0.308,0.051 0.606,0.14 0.332,0.094 0.609,0.16 0.282,0.098 0.304,0.117 0.282,0.094 0.281,0.117 0.277,0.141 0.309,0.117 0.554,0.301 0.309,0.168 0.285,0.16 0.281,0.191 0.309,0.184 0.277,0.211 0.282,0.234 0.586,0.492 0.281,0.262 0.586,0.586 0.277,0.324 0.277,0.352 0.309,0.351 0.566,0.797 0.309,0.446 0.277,0.468 0.586,0.985 0.563,1.125 0.586,1.269 0.285,0.68 0.269,0.703 0.594,1.566 0.281,0.821 0.309,0.894 0.559,1.899 0.277,1.031 0.309,1.078 0.558,2.344 0.309,1.242 0.277,1.312 0.586,2.813 0.285,1.5 0.281,1.57 0.586,3.352 0.282,1.805 0.277,1.875 0.59,3.984 0.277,2.129 0.309,2.226 0.554,4.688 1.184,10.594 0.297,3.14 0.308,3.282 0.633,6.964 0.305,3.676 0.328,3.824 0.609,8.063 0.325,4.242 0.304,4.379 0.641,9.258 1.238,20.324 0.301,5.48 0.332,5.629 0.609,11.766 1.27,25.402 0.297,6.774 0.308,6.89 0.633,14.278 1.266,30.351 0.301,7.918 0.304,8.063 0.641,16.527 1.238,34.426 2.512,72.914 0.297,9.332 0.332,9.371 0.609,18.75 1.266,37.313 2.512,71.461 0.273,7.851 0.281,7.734 0.586,15 0.309,7.266 0.281,7.106 0.582,13.66 0.309,6.519 0.277,6.348 0.594,11.996 0.281,5.68 0.297,5.433 0.586,10.149 0.285,4.691 0.309,4.402 0.281,4.149 0.297,3.891 0.285,3.589 0.301,3.325 0.285,3.027 0.281,2.715 0.301,2.437 0.281,2.133 0.309,1.832 0.281,1.524 0.305,1.218 0.281,0.914 0.301,0.586 0.281,0.282 0.309,-0.047 0.281,-0.332 0.308,-0.649 0.278,-0.988 0.277,-1.266 0.305,-1.593 0.285,-1.895 0.305,-2.215 0.281,-2.484 0.305,-2.781 0.281,-3.098 0.304,-3.379 0.282,-3.652 0.304,-3.934 0.563,-8.691 0.305,-4.743 0.277,-4.996 0.59,-10.73 1.168,-24.211 0.304,-6.582 0.286,-6.774 0.586,-14.089 1.171,-30.118 0.278,-7.734 0.289,-7.851 0.578,-16.008 1.125,-33.02 2.301,-68.254 0.285,-8.578 0.297,-8.555 0.566,-17.011 1.149,-33.59 2.296,-63.774 0.282,-7.543 0.281,-7.457 0.566,-14.574 1.145,-27.75 0.281,-6.609 0.305,-6.516 0.562,-12.613 1.149,-23.621 0.277,-5.582 0.285,-5.434 0.582,-10.48 1.153,-19.379 0.281,-4.5 0.285,-4.387 0.555,-8.39 1.152,-15.282 0.324,-3.816 0.309,-3.66 0.613,-6.957 0.321,-3.282 0.308,-3.164 0.609,-5.957 0.325,-2.789 0.308,-2.672 0.61,-5.039 0.324,-2.367 0.305,-2.25 0.613,-4.219 0.324,-1.968 0.305,-1.875 0.613,-3.516 0.328,-1.617 0.305,-1.547 0.609,-2.879 0.332,-1.34 0.297,-1.265 0.61,-2.317 0.332,-1.082 0.296,-1.027 0.618,-1.875 0.332,-0.871 0.297,-0.821 0.613,-1.523 0.332,-0.68 0.297,-0.652 0.613,-1.172 0.328,-0.543 0.305,-0.508 0.304,-0.496 0.305,-0.445 0.332,-0.426 0.297,-0.394 0.609,-0.727 0.641,-0.637 0.297,-0.277 0.309,-0.258 0.328,-0.262 0.304,-0.23 0.61,-0.422 0.324,-0.191 0.309,-0.184 0.3,-0.168 0.309,-0.141 0.328,-0.136 0.309,-0.141 0.605,-0.234 0.301,-0.094 0.566,-0.191 0.309,-0.094 0.273,-0.067 0.309,-0.074 0.559,-0.117 0.308,-0.043 0.285,-0.074 0.274,-0.043 0.304,-0.047 0.286,-0.027 0.277,-0.043 0.594,-0.075 0.297,-0.023 0.281,-0.02 0.285,-0.05 0.301,-0.024 0.285,-0.023 h 0.281 l 0.582,-0.043 0.281,-0.027 h 0.309 l 0.277,-0.024 h 0.285 l 0.309,-0.023 h 0.274 l 0.589,-0.02 0.278,-0.023 h 0.867 l 0.305,-0.028 h 1.152 l 0.301,-0.023 h 2.015 l 0.282,-0.024 h 10.968 l 0.332,0.024 h 2.203 l 0.305,0.023 h 0.934 l 0.332,0.028 h 0.609 l 0.328,0.023 h 0.633 l 0.301,0.02 h 0.308 l 0.325,0.023 0.308,0.024 h 0.325 l 0.613,0.05 0.332,0.02 0.297,0.023 0.332,0.024 0.609,0.05 0.324,0.043 0.309,0.024 0.633,0.094 0.301,0.05 0.332,0.043 0.304,0.047 0.328,0.051 0.61,0.137 0.636,0.164 0.297,0.07 0.332,0.098 0.301,0.094 0.309,0.117 0.301,0.09 0.304,0.144 0.641,0.258 0.91,0.488 0.305,0.192 0.605,0.418 0.637,0.468 0.605,0.563 0.614,0.609 0.328,0.352 0.301,0.375 0.613,0.797 0.304,0.445 0.305,0.469 0.305,0.492 0.324,0.543 0.309,0.566 0.308,0.606 0.606,1.308 0.301,0.703 0.332,0.778 0.605,1.64 0.309,0.887 0.308,0.965 0.629,2.059 0.305,1.101 0.304,1.176 0.606,2.527 0.309,1.387 0.3,1.426 0.633,3.121 0.309,1.664 0.304,1.758 0.606,3.75 0.332,2.011 0.305,2.11 0.605,4.5 0.309,2.394 0.304,2.504 0.637,5.367 1.215,12.071 0.305,3.121 0.277,3.207 0.566,6.754 0.301,3.558 0.289,3.684 0.559,7.73 0.304,4.055 0.282,4.176 0.586,8.738 1.144,19.035 0.285,5.106 0.282,5.23 0.586,10.875 1.148,23.364 2.297,53.015 0.281,7.199 0.281,7.286 0.582,14.957 1.153,31.097 2.293,66.141 0.304,8.508 0.286,8.558 0.558,17.18 1.149,34.477 2.324,67.519 0.308,8.844 0.301,8.715 0.633,17.015 1.238,32.203 0.309,7.586 0.32,7.414 0.617,14.125 0.332,6.711 0.301,6.493 0.61,12.164 0.324,5.668 0.308,5.421 0.301,5.102 0.328,4.805 0.309,4.527 0.308,4.191 0.321,3.875 0.308,3.555 0.301,3.211 0.332,2.906 0.301,2.535 0.309,2.2 0.304,1.851 0.328,1.524 0.301,1.148 0.309,0.801 0.328,0.445 0.308,0.071 0.297,-0.258 0.332,-0.633 0.301,-0.988 0.309,-1.336 0.324,-1.688 0.309,-2.039 0.304,-2.387 0.309,-2.746 0.32,-3.047 0.309,-3.394 0.304,-3.734 0.332,-4.047 0.606,-9.024 0.324,-4.965 0.309,-5.281 0.633,-11.367 0.304,-6.086 0.309,-6.383 0.629,-13.429 0.304,-7.079 0.305,-7.289 0.633,-15.211 1.238,-32.554 0.309,-7.946 0.277,-8.062 0.586,-16.43 1.172,-33.847 2.324,-69.555 0.278,-8.695 0.308,-8.672 0.586,-17.25 1.148,-33.895 2.344,-64.008 0.281,-7.543 0.305,-7.433 0.559,-14.531 1.179,-27.512 0.297,-6.539 0.285,-6.426 0.586,-12.441 1.149,-23.204 0.305,-5.464 0.281,-5.317 0.59,-10.219 0.297,-4.898 0.285,-4.785 0.586,-9.117 0.281,-4.379 0.308,-4.219 0.582,-8.086 1.153,-14.672 0.32,-3.633 0.309,-3.492 0.633,-6.613 0.324,-3.113 0.304,-3.004 0.637,-5.602 0.305,-2.625 0.324,-2.531 0.633,-4.711 0.305,-2.203 0.332,-2.11 0.629,-3.914 0.308,-1.828 0.305,-1.73 0.629,-3.238 0.332,-1.473 0.301,-1.434 0.632,-2.621 0.332,-1.222 0.301,-1.145 0.633,-2.137 0.332,-0.961 0.305,-0.937 0.632,-1.684 0.305,-0.777 0.328,-0.727 0.305,-0.703 0.633,-1.265 0.332,-0.559 0.629,-1.059 0.304,-0.468 0.332,-0.469 0.606,-0.793 0.324,-0.375 0.309,-0.356 0.633,-0.609 0.324,-0.277 0.308,-0.285 0.328,-0.235 0.301,-0.234 0.332,-0.207 0.297,-0.211 0.641,-0.352 0.308,-0.168 0.325,-0.14 0.304,-0.141 0.328,-0.137 0.309,-0.117 0.32,-0.097 0.637,-0.211 0.309,-0.067 0.297,-0.094 0.613,-0.14 0.328,-0.074 0.305,-0.043 0.609,-0.118 0.332,-0.05 0.297,-0.024 0.609,-0.094 0.309,-0.023 0.32,-0.02 0.617,-0.074 0.61,-0.043 h 0.324 l 0.922,-0.074 h 0.32 l 0.309,-0.023 h 0.304 l 0.305,-0.02 h 0.633 l 0.301,-0.023 h 0.617 l 0.297,-0.028 h 0.941 l 0.301,-0.023 h 2.184 l 0.3,-0.024 h 10.828 l 0.286,0.024 h 2.324 l 0.277,0.023 h 1.149 l 0.589,0.028 h 0.274 l 0.281,0.023 h 0.59 l 0.281,0.02 h 0.309 l 0.555,0.023 0.308,0.024 0.277,0.027 h 0.286 l 0.304,0.023 0.559,0.043 0.59,0.051 0.281,0.023 0.305,0.02 0.285,0.047 0.277,0.027 0.305,0.043 0.281,0.024 0.586,0.093 0.281,0.047 0.285,0.071 0.297,0.046 0.567,0.145 0.304,0.066 0.567,0.172 0.32,0.086 0.309,0.094 0.301,0.117 0.332,0.117 0.609,0.285 0.633,0.301 0.324,0.192 0.613,0.371 0.332,0.215 0.297,0.234 0.309,0.254 0.633,0.543 0.324,0.301 0.308,0.328 0.301,0.351 0.332,0.375 0.301,0.403 0.305,0.418 0.64,0.914 0.297,0.515 0.332,0.539 0.301,0.586 0.332,0.61 0.301,0.66 0.301,0.68 0.648,1.523 0.293,0.82 0.332,0.864 0.613,1.898 0.324,1.012 0.313,1.097 0.625,2.344 0.301,1.289 0.332,1.34 0.617,2.902 0.32,1.575 0.305,1.64 0.625,3.535 0.312,1.899 0.333,1.992 0.605,4.27 0.328,2.269 0.305,2.391 0.637,5.109 0.3,2.719 0.325,2.836 0.605,6.027 1.27,13.613 0.281,3.473 0.301,3.606 0.597,7.593 0.281,3.961 0.293,4.125 0.586,8.606 0.293,4.519 0.305,4.645 0.559,9.703 1.171,21.043 0.313,5.625 0.27,5.742 0.585,11.93 1.172,25.527 2.348,57.281 0.312,7.684 0.274,7.808 0.586,15.915 1.172,32.929 2.343,68.856 0.282,8.765 0.301,8.77 0.585,17.527 1.172,34.805 2.325,66.496 0.304,7.684 0.281,7.55 0.571,14.692 0.293,7.105 0.293,6.957 0.554,13.364 0.286,6.398 0.3,6.211 0.559,11.785 0.293,5.582 0.293,5.313 0.562,9.984 0.286,4.621 0.3,4.363 0.285,4.098 0.286,3.848 0.269,3.554 0.317,3.313 0.269,3.019 0.297,2.746 0.27,2.43 0.285,2.16 0.3,1.875 0.286,1.571 0.285,1.289 0.269,0.965 0.317,0.671 0.269,0.383 0.293,0.071 0.278,-0.219 0.308,-0.531 0.277,-0.821 0.282,-1.129 0.285,-1.429 0.301,-1.735 0.285,-2.015 0.269,-2.297 0.293,-2.598 0.278,-2.883 0.308,-3.164 0.278,-3.429 0.281,-3.727 0.586,-8.195 0.285,-4.504 0.269,-4.731 0.586,-10.218 0.293,-5.465 0.278,-5.668 0.562,-12 0.305,-6.309 0.281,-6.488 0.57,-13.547 1.141,-29.066 0.32,-8.301 0.317,-8.406 0.601,-17.25 1.274,-35.766 2.476,-74.156 0.317,-9.309 0.293,-9.281 0.64,-18.465 1.235,-36.238 2.488,-68.149 0.305,-8 0.332,-7.875 0.601,-15.301 1.25,-28.878 0.325,-6.84 0.3,-6.68 0.61,-12.891 1.25,-23.906 0.332,-5.605 0.293,-5.41 0.64,-10.387 0.293,-4.945 0.317,-4.805 0.625,-9.16 0.308,-4.36 0.305,-4.195 0.637,-7.992 1.238,-14.348 0.281,-3.023 0.305,-2.926 0.559,-5.559 0.308,-2.621 0.274,-2.511 0.585,-4.731 0.293,-2.25 0.293,-2.137 0.571,-4.031 0.308,-1.875 0.278,-1.824 0.586,-3.375 0.281,-1.574 0.871,-4.336 0.301,-1.332 0.285,-1.246 0.586,-2.344 0.269,-1.078 0.317,-1.032 0.586,-1.898 0.269,-0.891 0.293,-0.843 0.586,-1.547 0.277,-0.723 0.313,-0.683 0.586,-1.243 0.269,-0.586 0.286,-0.535 0.586,-1.011 0.3,-0.446 0.285,-0.441 0.286,-0.403 0.3,-0.394 0.286,-0.352 0.3,-0.351 0.559,-0.61 0.309,-0.308 0.57,-0.512 0.293,-0.234 0.293,-0.211 0.293,-0.215 0.562,-0.371 0.317,-0.168 0.269,-0.164 0.317,-0.16 0.269,-0.145 0.285,-0.113 0.305,-0.121 0.562,-0.235 0.333,-0.089 0.292,-0.094 0.333,-0.098 0.316,-0.094 0.32,-0.066 0.305,-0.074 0.633,-0.137 0.301,-0.051 0.332,-0.066 0.304,-0.047 0.321,-0.051 0.316,-0.019 0.301,-0.051 0.633,-0.067 0.335,-0.023 0.606,-0.051 0.332,-0.023 0.293,-0.02 0.332,-0.023 0.312,-0.027 h 0.321 l 0.617,-0.047 h 0.32 l 0.305,-0.02 h 0.633 l 0.32,-0.023 h 0.617 l 0.325,-0.028 h 0.933 l 0.332,-0.023 h 2.207 l 0.305,-0.024 h 10.93 l 0.293,0.024 h 2.167 l 0.29,0.023 h 0.941 l 0.309,0.028 h 0.918 l 0.324,0.023 h 0.301 l 0.316,0.02 h 0.293 l 0.308,0.023 h 0.333 l 0.91,0.074 h 0.3 l 0.317,0.02 0.32,0.023 0.305,0.024 0.601,0.07 0.317,0.023 0.301,0.051 0.324,0.024 0.918,0.136 0.633,0.118 1.218,0.281 0.305,0.094 0.32,0.093 0.618,0.192 0.285,0.117 0.3,0.117 0.286,0.117 0.562,0.278 0.293,0.14 0.567,0.328 0.316,0.192 0.269,0.183 0.286,0.211 0.285,0.235 0.301,0.234 0.285,0.234 0.586,0.567 0.269,0.301 0.293,0.328 0.293,0.328 0.567,0.75 0.285,0.402 0.586,0.891 0.285,0.492 0.301,0.512 0.554,1.101 0.293,0.614 0.293,0.629 0.57,1.406 0.313,0.75 0.27,0.773 0.57,1.715 0.301,0.938 0.285,0.96 0.586,2.086 0.269,1.122 0.293,1.195 0.586,2.531 0.277,1.363 0.282,1.43 0.586,3.047 0.285,1.641 0.301,1.707 0.554,3.632 0.293,1.946 0.293,2.039 0.571,4.312 0.308,2.278 0.277,2.386 0.567,5.063 1.172,11.324 0.301,3.375 0.3,3.488 0.637,7.41 0.305,3.911 0.332,4.058 0.601,8.528 0.332,4.503 0.305,4.637 0.637,9.754 1.238,21.371 0.305,5.742 0.332,5.907 0.601,12.257 1.274,26.465 0.301,7.008 0.3,7.172 0.637,14.766 1.238,31.238 0.332,8.137 0.305,8.269 0.637,16.902 1.238,35.083 2.488,73.593 0.325,9.375 0.3,9.356 0.637,18.726 1.238,37.032 2.512,69.984 0.281,7.594 0.305,7.468 0.586,14.446 0.281,6.937 0.278,6.774 0.582,12.957 0.316,6.168 0.269,5.945 0.586,11.227 0.317,5.257 0.269,4.993 0.586,9.234 0.293,4.219 0.586,7.617 0.305,3.398 0.281,3.09 0.293,2.813 0.297,2.507 0.27,2.227 0.316,1.902 0.269,1.614 0.317,1.289 0.269,0.988 0.317,0.68 0.269,0.375 0.317,0.047 0.269,-0.258 0.285,-0.567 0.301,-0.894 0.285,-1.164 0.301,-1.5 0.285,-1.813 0.305,-2.097 0.281,-2.422 0.305,-2.692 0.281,-3.004 0.281,-3.304 0.305,-3.559 0.281,-3.844 0.305,-4.132 0.281,-4.403 0.586,-9.566 0.305,-5.176 0.281,-5.387 0.586,-11.531 1.176,-25.598 0.269,-6.914 0.293,-7.054 0.586,-14.645 1.172,-31.058 0.278,-7.918 0.308,-8.016 0.559,-16.316 1.14,-33.442 2.286,-68.394 0.292,-8.532 0.293,-8.48 0.559,-16.899 1.145,-33.144 2.285,-62.531 0.293,-7.383 0.293,-7.242 0.554,-14.176 1.145,-26.887 0.293,-6.398 0.269,-6.278 0.586,-12.168 1.157,-22.734 0.269,-5.344 0.297,-5.203 0.555,-10.031 0.3,-4.805 0.286,-4.687 0.554,-8.973 0.293,-4.293 0.293,-4.168 0.571,-7.965 1.152,-14.468 0.301,-3.61 0.3,-3.465 0.637,-6.562 0.305,-3.098 0.308,-2.953 0.625,-5.602 0.317,-2.625 0.293,-2.503 0.64,-4.715 0.293,-2.2 0.317,-2.109 0.625,-3.941 0.308,-1.828 0.305,-1.731 0.637,-3.258 0.301,-1.523 0.3,-1.43 0.637,-2.652 0.305,-1.242 0.308,-1.172 0.61,-2.156 0.332,-0.981 0.293,-0.965 0.613,-1.73 0.32,-0.778 0.317,-0.769 0.601,-1.36 0.332,-0.636 0.305,-0.61 0.613,-1.078 0.325,-0.488 0.3,-0.469 0.317,-0.449 0.601,-0.797 0.332,-0.351 0.61,-0.653 0.3,-0.308 0.325,-0.254 0.613,-0.52 0.305,-0.207 0.332,-0.211 0.601,-0.402 0.317,-0.164 0.32,-0.16 0.906,-0.426 0.317,-0.117 0.918,-0.301 0.293,-0.07 0.566,-0.141 0.312,-0.074 0.274,-0.071 0.586,-0.117 0.562,-0.09 0.305,-0.05 0.281,-0.024 0.305,-0.043 0.281,-0.027 0.586,-0.067 0.57,-0.05 0.29,-0.024 0.57,-0.043 0.308,-0.023 0.559,-0.027 0.305,-0.024 h 0.293 l 0.269,-0.023 h 0.305 l 0.281,-0.02 h 0.278 l 0.582,-0.023 h 0.585 l 0.293,-0.028 h 1.172 l 0.278,-0.023 h 2.324 l 0.269,-0.024 h 10.625 l 0.332,0.024 h 2.168 l 0.332,0.023 h 1.25 l 0.325,0.028 h 0.617 l 0.32,0.023 h 0.305 l 0.308,0.02 h 0.325 l 0.3,0.023 h 0.332 l 0.61,0.051 h 0.332 l 0.301,0.023 0.632,0.043 0.305,0.024 0.32,0.027 0.317,0.043 0.332,0.023 0.293,0.051 0.308,0.024 0.625,0.093 0.317,0.043 0.332,0.075 0.293,0.043 0.332,0.074 0.601,0.14 0.649,0.161 0.293,0.093 0.293,0.098 0.293,0.094 0.293,0.117 0.293,0.117 0.293,0.117 0.586,0.278 0.293,0.164 0.293,0.168 0.293,0.16 0.293,0.191 0.293,0.211 0.292,0.207 0.583,0.473 0.292,0.258 0.586,0.586 0.293,0.3 0.293,0.329 0.293,0.351 0.586,0.777 0.293,0.418 0.293,0.469 0.586,0.965 0.293,0.535 0.297,0.567 0.586,1.238 0.293,0.656 0.293,0.727 0.586,1.523 0.293,0.82 0.293,0.895 0.586,1.875 0.293,1.031 0.293,1.078 0.586,2.293 0.293,1.242 0.292,1.313 0.583,2.816 0.292,1.504 0.293,1.563 0.586,3.375 0.293,1.808 0.293,1.875 0.586,4.028 0.293,2.133 0.293,2.226 0.586,4.762 1.176,10.683 0.293,2.887 0.293,2.996 0.555,6.305 0.3,3.332 0.285,3.422 0.555,7.242 0.317,3.797 0.269,3.91 0.567,8.203 1.156,17.981 0.301,4.828 0.285,4.941 0.562,10.313 1.145,22.265 0.301,5.883 0.285,6.051 0.554,12.441 1.157,26.485 0.308,6.937 0.278,7.055 0.566,14.484 1.172,30.238 2.293,64.875 4.597,136.497 0.293,9 0.317,8.91 0.625,17.488 1.25,33.391 0.301,7.945 0.324,7.758 0.613,14.953 1.238,27.215 0.332,6.183 0.305,5.934 0.637,11.039 0.301,5.086 0.3,4.777 0.637,8.653 0.305,3.843 0.308,3.536 0.325,3.191 0.3,2.855 0.317,2.532 0.293,2.175 0.332,1.832 0.308,1.481 0.293,1.129 0.332,0.769 0.317,0.422 0.293,0.071 0.332,-0.282 0.308,-0.66 0.293,-1.012 0.317,-1.351 0.332,-1.707 0.293,-2.043 0.308,-2.422 0.332,-2.738 0.293,-3.067 0.317,-3.429 0.301,-3.719 0.324,-4.059 0.308,-4.379 0.305,-4.664 0.637,-10.261 0.301,-5.563 0.324,-5.836 0.613,-12.445 0.305,-6.613 0.332,-6.84 0.601,-14.371 1.25,-31.121 0.293,-7.68 0.293,-7.809 0.586,-15.961 1.176,-33.14 2.312,-69.051 0.286,-8.719 0.3,-8.715 0.586,-17.367 1.145,-34.312 2.344,-65.414 0.293,-7.782 0.269,-7.664 0.59,-15 1.172,-28.574 0.281,-6.816 0.305,-6.704 0.562,-13.007 1.172,-24.375 0.278,-5.77 0.308,-5.598 0.59,-10.808 1.148,-19.969 0.293,-4.664 0.293,-4.496 0.586,-8.652 1.172,-15.723 0.293,-3.914 0.317,-3.777 0.625,-7.149 0.332,-3.375 0.308,-3.23 0.625,-6.094 0.332,-2.863 0.305,-2.735 0.637,-5.164 0.3,-2.414 0.325,-2.293 0.64,-4.316 0.293,-2.012 0.332,-1.898 0.61,-3.567 0.332,-1.664 0.308,-1.566 0.625,-2.93 0.332,-1.34 0.305,-1.289 0.637,-2.367 0.3,-1.098 0.325,-1.031 0.64,-1.898 0.293,-0.871 0.332,-0.821 0.317,-0.797 0.32,-0.726 0.305,-0.676 0.332,-0.656 0.601,-1.196 0.332,-0.543 0.317,-0.511 0.308,-0.469 0.317,-0.445 0.332,-0.426 0.293,-0.395 0.64,-0.726 0.293,-0.328 0.332,-0.309 0.317,-0.277 0.32,-0.258 0.305,-0.234 0.332,-0.235 0.625,-0.426 0.308,-0.187 0.305,-0.164 0.32,-0.16 0.317,-0.168 0.332,-0.141 0.293,-0.117 0.64,-0.234 0.61,-0.184 0.332,-0.094 0.293,-0.074 0.308,-0.094 0.305,-0.066 0.637,-0.117 1.211,-0.192 0.332,-0.043 0.308,-0.027 0.61,-0.067 0.332,-0.023 1.211,-0.094 0.332,-0.023 0.601,-0.027 0.61,-0.047 h 0.332 l 0.308,-0.02 h 0.61 l 0.3,-0.023 h 0.633 l 0.305,-0.028 h 0.937 l 0.301,-0.023 h 2.16 l 0.301,-0.024 h 11.067 l 0.285,0.024 h 2.008 l 0.316,0.023 h 1.141 l 0.285,0.028 h 0.586 l 0.269,0.023 h 0.586 l 0.567,0.02 0.316,0.023 h 0.269 l 0.286,0.024 h 0.3 l 0.571,0.05 0.586,0.043 h 0.269 l 0.317,0.051 0.566,0.043 0.293,0.023 0.293,0.051 0.586,0.067 0.269,0.05 0.286,0.024 0.285,0.043 0.3,0.074 0.286,0.043 0.269,0.074 0.586,0.117 0.317,0.094 0.332,0.094 0.601,0.184 0.332,0.117 0.293,0.117 0.649,0.258 0.293,0.168 0.332,0.14 0.601,0.371 0.332,0.192 0.317,0.207 0.625,0.469 0.308,0.261 0.293,0.278 0.332,0.308 0.61,0.653 0.332,0.375 0.601,0.796 0.332,0.446 0.317,0.469 0.32,0.515 0.305,0.52 0.308,0.562 0.324,0.61 0.618,1.308 0.32,0.727 0.305,0.777 0.632,1.66 0.301,0.918 0.317,0.938 0.625,2.086 0.308,1.121 0.324,1.199 0.633,2.574 0.305,1.406 0.305,1.457 0.632,3.164 0.301,1.708 0.332,1.785 0.61,3.84 0.332,2.042 0.3,2.153 0.633,4.621 0.305,2.461 0.305,2.578 0.632,5.488 1.258,12.414 0.293,3.192 0.277,3.304 0.583,6.957 0.316,3.684 0.269,3.793 0.586,7.949 0.317,4.196 0.269,4.285 0.586,9.023 1.172,19.664 0.285,5.274 0.305,5.39 0.586,11.231 1.172,24.117 2.32,54.699 0.305,7.41 0.285,7.524 0.586,15.375 1.172,31.992 2.344,67.711 0.273,8.691 0.309,8.723 0.585,17.508 1.172,34.992 2.328,67.965 0.29,7.965 0.293,7.882 0.558,15.372 1.145,29.066 0.293,6.871 0.293,6.699 0.566,12.821 1.148,23.179 0.278,5.25 0.293,4.989 0.293,4.761 0.293,4.528 0.269,4.238 0.285,4.008 0.586,7.168 0.282,3.187 0.277,2.91 0.293,2.621 0.293,2.321 0.293,2.043 0.269,1.757 0.285,1.45 0.286,1.148 0.3,0.867 0.286,0.567 0.269,0.258 0.297,-0.047 0.293,-0.352 0.293,-0.629 0.269,-0.949 0.286,-1.238 0.285,-1.543 0.301,-1.832 0.285,-2.133 0.269,-2.414 0.293,-2.695 0.278,-2.973 0.308,-3.262 0.277,-3.535 0.282,-3.824 0.285,-4.059 0.586,-8.898 0.269,-4.836 0.293,-5.078 0.586,-10.828 0.278,-5.743 0.281,-5.976 0.586,-12.539 1.125,-27.313 0.332,-7.871 0.301,-8.035 0.617,-16.547 1.258,-34.715 2.492,-73.308 0.293,-9.313 0.308,-9.32 0.625,-18.59 1.25,-36.773 2.485,-70.055 0.308,-8.293 0.293,-8.16 0.649,-15.961 1.226,-30.305 0.317,-7.195 0.3,-7.051 0.633,-13.668 1.242,-25.453 0.301,-5.977 0.317,-5.812 0.625,-11.129 0.308,-5.344 0.293,-5.179 0.649,-9.918 0.293,-4.707 0.308,-4.571 0.625,-8.722 1.25,-15.676 0.278,-3.332 0.308,-3.231 0.57,-6.121 0.29,-2.902 0.293,-2.789 0.585,-5.254 0.278,-2.481 0.308,-2.394 0.559,-4.5 1.172,-7.945 0.281,-1.782 0.305,-1.711 0.554,-3.187 0.317,-1.473 0.269,-1.433 0.586,-2.645 0.293,-1.246 0.293,-1.172 0.571,-2.199 0.308,-1.008 0.278,-0.961 0.585,-1.781 0.282,-0.848 0.301,-0.769 0.57,-1.457 0.301,-0.676 0.285,-0.637 0.586,-1.148 0.269,-0.535 0.317,-0.52 0.562,-0.937 0.293,-0.418 0.297,-0.403 0.586,-0.726 0.269,-0.352 0.317,-0.305 0.269,-0.3 0.286,-0.285 0.3,-0.258 0.285,-0.235 0.586,-0.468 0.286,-0.184 0.3,-0.191 0.286,-0.184 0.273,-0.168 0.309,-0.16 0.277,-0.145 0.586,-0.257 0.332,-0.141 0.308,-0.117 0.649,-0.235 0.664,-0.187 0.625,-0.141 0.332,-0.094 0.328,-0.046 0.332,-0.071 0.324,-0.047 0.301,-0.043 0.988,-0.144 0.325,-0.024 0.308,-0.043 1.313,-0.097 0.308,-0.02 0.975,-0.074 h 0.34 l 0.3,-0.023 h 0.32 l 0.33,-0.02 h 0.33 l 0.34,-0.023 h 0.62 l 0.33,-0.028 h 1.29 l 0.34,-0.023 h 1.93 l 0.33,-0.024 h 5.51"
         style="fill:none;stroke:#3871c1;stroke-width:7.5;stroke-linecap:square;stroke-linejoin:miter;stroke-miterlimit:3.25;stroke-dasharray:none;stroke-opacity:1"
         transform="matrix(0.13333333,0,0,-0.13333333,0,111.50667)" />
      <path
         id="path3"
         d="m 1776.69,165.898 h 67.29 l 0.09,666.137 h 134.66 l 0.06,-666.137 h 67.35"
         style="fill:none;stroke:#3871c1;stroke-width:7.5;stroke-linecap:square;stroke-linejoin:miter;stroke-miterlimit:3.25;stroke-dasharray:none;stroke-opacity:1"
         transform="matrix(0.13333333,0,0,-0.13333333,0,111.50667)" />
      <path
         id="path4"
         d="m 3214.05,165.898 h 5.51 l 0.05,0.028 h 2.29 l 0.34,0.019 h 0.98 l 0.32,0.032 h 0.83 l 0.17,0.019 h 0.67 l 0.35,0.02 h 0.19 l 0.19,0.031 h 0.45 l 0.07,0.016 h 0.18 l 0.36,0.031 h 0.18 l 0.16,0.019 0.38,0.02 h 0.16 l 0.17,0.027 0.33,0.02 h 0.07 l 0.09,0.031 h 0.16 l 0.33,0.039 h 0.17 l 0.17,0.027 0.35,0.051 h 0.07 l 0.08,0.02 h 0.18 l 0.32,0.047 0.05,0.023 h 0.04 l 0.1,0.027 0.16,0.02 0.37,0.047 0.05,0.019 h 0.05 l 0.07,0.032 0.19,0.019 0.35,0.066 h 0.05 l 0.04,0.032 0.09,0.019 0.2,0.02 0.35,0.097 0.04,0.02 h 0.05 l 0.09,0.027 0.17,0.051 0.37,0.09 0.1,0.047 0.07,0.019 0.18,0.047 0.36,0.117 0.04,0.032 h 0.05 l 0.09,0.039 0.17,0.078 0.35,0.137 h 0.05 l 0.13,0.07 0.17,0.066 0.35,0.164 0.7,0.383 0.1,0.039 0.07,0.078 0.17,0.086 0.35,0.215 0.02,0.02 0.04,0.031 0.09,0.066 0.5,0.352 0.02,0.051 0.05,0.019 0.1,0.067 0.49,0.421 0.65,0.633 0.19,0.188 0.16,0.195 0.35,0.422 0.1,0.086 0.28,0.359 0.36,0.461 0.04,0.078 0.05,0.039 0.08,0.145 0.18,0.254 0.35,0.566 0.72,1.223 0.05,0.066 0.02,0.09 0.1,0.164 0.16,0.305 0.34,0.683 0.07,0.188 0.1,0.164 0.17,0.371 0.33,0.781 0.05,0.086 0.02,0.102 0.1,0.203 0.15,0.43 0.33,0.859 0.69,1.902 0.04,0.137 0.02,0.117 0.09,0.266 0.17,0.508 0.33,1.082 0.66,2.344 0.02,0.168 0.05,0.156 0.09,0.312 0.17,0.653 0.32,1.359 0.64,2.93 0.19,0.84 0.18,0.867 0.35,1.828 0.7,3.984 0.1,0.516 0.1,0.539 0.15,1.101 0.35,2.278 0.74,4.902 0.03,0.301 0.13,0.91 0.16,1.27 0.33,2.578 0.67,5.554 0.03,0.356 0.05,0.371 0.07,0.73 0.16,1.493 0.33,3.097 0.68,6.61 0.05,0.468 0.02,0.469 0.29,2.883 0.35,3.984 0.72,8.536 0.19,2.246 0.16,2.277 0.38,4.734 0.7,10.028 0.05,0.636 0.04,0.653 0.1,1.289 0.16,2.629 0.36,5.41 0.7,11.387 1.41,25.222 0.05,0.774 0.04,0.8 0.07,1.563 0.16,3.211 0.35,6.516 0.67,13.574 1.3,29.226 0.05,1.028 0.03,1.035 0.28,6.328 0.35,8.574 0.7,17.723 1.43,37.476 2.67,75.793 2.88,86.114 2.84,81.394 0.04,1.129 0.03,1.121 0.09,2.227 0.18,4.433 0.31,8.746 0.66,16.918 0.1,2.067 0.07,2.035 0.16,4.051 0.33,7.929 0.65,15.137 0.1,1.965 0.1,1.945 0.18,3.871 0.35,7.453 0.74,13.899 0.02,0.816 0.03,0.825 0.1,1.617 0.19,3.164 0.35,6.019 0.73,10.899 0.02,0.586 0.05,0.593 0.09,1.145 0.17,2.203 0.32,4.172 0.09,0.98 0.08,0.965 0.16,1.852 0.35,3.422 0.05,0.398 0.03,0.395 0.09,0.75 0.16,1.476 0.1,0.707 0.07,0.657 0.16,1.261 0.1,0.617 0.06,0.555 0.2,1.082 0.02,0.258 0.13,0.703 0.17,0.867 0.05,0.211 0.02,0.188 0.09,0.355 0.04,0.184 0.03,0.164 0.1,0.305 0.02,0.164 0.05,0.14 0.1,0.258 0.02,0.141 0.04,0.117 0.09,0.211 0.03,0.097 0.09,0.18 0.05,0.074 0.03,0.094 0.04,0.067 0.06,0.054 0.03,0.063 0.02,0.05 0.05,0.047 0.05,0.02 0.08,0.074 0.04,0.024 h 0.04 l 0.06,0.019 h 0.06 l 0.09,-0.043 0.03,-0.019 0.09,-0.055 0.05,-0.043 0.03,-0.047 0.04,-0.051 0.09,-0.136 0.02,-0.075 0.05,-0.062 0.1,-0.195 0.02,-0.086 0.05,-0.098 0.1,-0.234 0.02,-0.118 0.05,-0.117 0.08,-0.281 0.03,-0.141 0.15,-0.488 0.16,-0.711 0.04,-0.211 0.02,-0.23 0.1,-0.446 0.19,-1.007 0.05,-0.262 0.04,-0.278 0.07,-0.585 0.19,-1.219 0.1,-0.656 0.08,-0.68 0.17,-1.449 0.35,-3.243 0.19,-1.777 0.16,-1.898 0.37,-4.098 0.05,-0.543 0.03,-0.539 0.09,-1.129 0.19,-2.316 0.36,-4.926 0.08,-1.219 0.07,-1.219 0.17,-2.531 0.33,-5.293 0.68,-11.601 0.02,-0.774 0.14,-2.32 0.17,-3.164 0.32,-6.586 0.66,-13.992 0.09,-1.969 0.1,-2.016 0.18,-4.058 0.36,-8.317 0.72,-17.48 1.43,-37.809 2.82,-81.515 2.64,-78.68 2.86,-81.399 2.65,-67.574 0.05,-0.957 0.05,-0.937 0.07,-1.895 0.16,-3.777 0.33,-7.406 0.65,-14.325 0.1,-1.73 0.07,-1.738 0.16,-3.418 0.33,-6.727 0.66,-12.941 0.18,-3.367 0.17,-3.36 0.35,-6.515 0.7,-12.391 0.09,-1.504 0.1,-1.477 0.19,-2.929 0.35,-5.719 0.7,-10.805 0.05,-0.613 0.05,-0.586 0.07,-1.211 0.16,-2.375 0.32,-4.59 0.67,-8.718 0.04,-0.54 0.14,-1.55 0.17,-2.032 0.32,-3.964 0.66,-7.481 0.09,-0.976 0.1,-0.969 0.16,-1.875 0.38,-3.629 0.7,-6.801 0.19,-1.59 0.16,-1.57 0.37,-3 0.71,-5.605 0.1,-0.606 0.06,-0.605 0.19,-1.192 0.33,-2.305 0.66,-4.289 0.09,-0.515 0.09,-0.488 0.17,-0.989 0.33,-1.902 0.67,-3.488 0.03,-0.184 0.04,-0.215 0.1,-0.402 0.17,-0.77 0.32,-1.504 0.66,-2.765 0.02,-0.164 0.14,-0.489 0.5,-1.828 0.65,-2.207 0.05,-0.136 0.02,-0.145 0.1,-0.273 0.18,-0.547 0.35,-1.028 0.1,-0.23 0.09,-0.266 0.16,-0.468 0.36,-0.899 0.05,-0.109 0.04,-0.117 0.28,-0.633 0.35,-0.793 0.7,-1.434 0.1,-0.137 0.07,-0.168 0.16,-0.281 0.36,-0.586 0.02,-0.039 0.14,-0.215 0.17,-0.254 0.37,-0.566 0.02,-0.051 0.1,-0.113 0.16,-0.238 0.32,-0.438 0.69,-0.781 0.05,-0.039 0.02,-0.051 0.73,-0.73 0.09,-0.071 0.18,-0.164 0.35,-0.304 0.05,-0.047 0.05,-0.02 0.1,-0.07 0.16,-0.145 0.38,-0.254 0.72,-0.449 0.03,-0.039 0.32,-0.168 0.35,-0.183 0.1,-0.051 0.07,-0.028 0.18,-0.089 0.36,-0.145 0.09,-0.039 0.07,-0.051 0.19,-0.066 1.05,-0.352 0.05,-0.027 h 0.05 l 0.07,-0.024 0.49,-0.144 h 0.04 l 0.05,-0.02 0.07,-0.019 0.17,-0.031 0.35,-0.067 0.02,-0.019 h 0.05 l 0.1,-0.032 0.16,-0.019 0.32,-0.066 h 0.03 l 0.04,-0.032 h 0.1 l 0.17,-0.019 0.32,-0.067 h 0.1 l 0.06,-0.027 0.19,-0.023 0.35,-0.047 h 0.05 l 0.05,-0.02 h 0.1 l 0.18,-0.031 0.35,-0.047 h 0.19 l 0.16,-0.02 0.36,-0.05 h 0.18 l 0.19,-0.02 0.36,-0.027 h 0.16 l 0.16,-0.02 0.32,-0.019 h 0.2 l 0.15,-0.031 h 0.39 l 0.02,-0.016 h 0.26 l 0.32,-0.031 h 0.35 l 0.33,-0.02 h 0.34 l 0.32,-0.019 h 0.82 l 0.17,-0.032 h 1.33 l 0.35,-0.019 h 2.18 l 0.02,-0.028 h 5.54"
         style="fill:none;stroke:#3871c1;stroke-width:7.5;stroke-linecap:square;stroke-linejoin:miter;stroke-miterlimit:3.25;stroke-dasharray:none;stroke-opacity:1"
         transform="matrix(0.13333333,0,0,-0.13333333,0,111.50667)" />
      <path
         id="path5"
         d="m 2.6947703,1.3250738 c -0.890625,-0.7617188 -1.40625,-2.20312505 -1.40625,-3.75 0,-1.546875 0.515625,-3 1.40625,-3.75 L 2.5424266,-6.3858637 C 1.2182078,-5.48352 0.63227031,-4.0538325 0.63227031,-2.436645 c 0,1.62890625 0.58593749,3.08203125 1.91015629,3.9609375 z m 4.3212891,-1.6757813 -0.09375,-0.234375 c -0.09375,0.0585938 -0.2226563,0.10546875 -0.328125,0.10546875 -0.1523438,0 -0.3164063,-0.140625 -0.3164063,-0.55078125 v -1.6640625 c 0,-0.46875 -0.082031,-0.84375 -0.3984375,-1.1015625 C 5.6801219,-3.9600825 5.4105906,-4.0421137 5.1410594,-4.0421137 4.6254344,-3.936645 4.0394969,-3.5850825 3.7934031,-3.4093012 3.6176219,-3.280395 3.5004344,-3.186645 3.5004344,-3.04602 c 0,0.1992188 0.234375,0.3867188 0.3984375,0.3867188 0.1289062,0 0.2226562,-0.070312 0.2578125,-0.2109375 0.070312,-0.28125 0.1523437,-0.4804688 0.2695312,-0.5976563 0.09375,-0.1054687 0.2226563,-0.1757812 0.4101563,-0.1757812 0.4453125,0 0.75,0.3632812 0.75,1.0195312 v 0.1640625 C 5.3871531,-2.3077387 4.7309031,-2.061645 4.1918406,-1.8858637 3.6996531,-1.7100825 3.4652781,-1.4288325 3.4652781,-0.98352 c 0,0.5625 0.4453125,1.08984375 1.078125,1.08984375 0.2695313,0 0.703125,-0.328125 1.0664063,-0.57421875 0.046875,0.15234375 0.09375,0.28125 0.2109375,0.41015625 0.1054687,0.08203125 0.2929687,0.1640625 0.421875,0.1640625 z M 5.5863719,-0.76086375 c -0.1640625,0.1640625 -0.4804688,0.31640625 -0.7148438,0.328125 -0.28125,0 -0.6445312,-0.22265625 -0.6445312,-0.69140625 0,-0.328125 0.1992187,-0.4921875 0.5507812,-0.65625 0.1875,-0.09375 0.6210938,-0.28125 0.8085938,-0.375 z M 7.4760203,-6.1749262 c 0.890625,0.7382812 1.4179688,2.203125 1.4179688,3.75 0,1.54687495 -0.5039063,2.9882812 -1.4179688,3.75 L 7.6400828,1.5242925 C 8.9877391,0.61023 9.5385203,-0.80773875 9.5385203,-2.4249262 c 0,-1.6289063 -0.5507812,-3.0585938 -1.8984375,-3.9609375 z m 131.9091797,7.5 c -0.89063,-0.7617188 -1.40625,-2.20312505 -1.40625,-3.75 0,-1.546875 0.51562,-3 1.40625,-3.75 l -0.15234,-0.2109375 c -1.32422,0.9023437 -1.91016,2.3320312 -1.91016,3.9492187 0,1.62890625 0.58594,3.08203125 1.91016,3.9609375 z m 1.79004,-4.9570313 v -2.7773437 c -0.33984,0.1171875 -0.89063,0.2578125 -1.3125,0.3164062 v 0.2109375 c 0.58594,0.046875 0.59766,0.1054688 0.59766,0.6679688 v 5.0039062 c 0.49218,0.234375 0.94921,0.31640625 1.32421,0.31640625 1.20704,0 2.26172,-0.9375 2.26172,-2.26171875 0,-1.0546875 -0.80859,-1.8867187 -1.78125,-1.8867187 -0.0937,0 -0.22265,0.023437 -0.36328,0.09375 z m 0,0.2695313 c 0.16406,-0.1054688 0.44531,-0.1757813 0.70312,-0.1757813 0.73829,0 1.3711,0.5976563 1.3711,1.6171875 0,1.0546875 -0.48047,1.6875 -1.21875,1.6875 -0.48047,-0.0117188 -0.75,-0.328125 -0.8086,-0.50390625 -0.0351,-0.0820313 -0.0469,-0.17578125 -0.0469,-0.30468745 z m 3.6123,-2.8125 c 0.89063,0.7382812 1.41797,2.203125 1.41797,3.75 0,1.54687495 -0.5039,2.9882812 -1.41797,3.75 l 0.16407,0.1992187 c 1.34765,-0.9140625 1.89843,-2.33203125 1.89843,-3.9492187 0,-1.6289063 -0.55078,-3.0585938 -1.89843,-3.9609375 z m 131.9795,7.5 c -0.89063,-0.7617188 -1.40625,-2.20312505 -1.40625,-3.75 0,-1.546875 0.51562,-3 1.40625,-3.75 l -0.15235,-0.2109375 c -1.32422,0.9023437 -1.91015,2.3320312 -1.91015,3.9492187 0,1.62890625 0.58593,3.08203125 1.91015,3.9609375 z m 3.93457,-2.32031255 c -0.41016,0.38671875 -0.70313,0.4921875 -1.08985,0.4921875 -0.5039,0 -1.35937,-0.41015625 -1.35937,-1.66406245 0,-0.9492188 0.51562,-1.4414063 1.11328,-1.4414063 0.3164,0 0.63281,0.1171875 0.90234,0.375 0.082,0.070312 0.11719,0.09375 0.16406,0.09375 0.10547,0 0.30469,-0.1992187 0.30469,-0.3867187 0,-0.1054688 -0.0351,-0.1757813 -0.15234,-0.28125 -0.14063,-0.1171875 -0.4336,-0.234375 -0.79688,-0.234375 -0.35156,0 -0.89062,0.140625 -1.35937,0.5039062 -0.59766,0.46875 -0.90235,1.078125 -0.90235,1.7695313 0,0.96093745 0.66797,1.87499995 1.80469,1.87499995 0.52735,0 1.13672,-0.3984375 1.52344,-0.9140625 z m 0.70019,-5.17968745 c 0.89063,0.7382812 1.41797,2.203125 1.41797,3.75 0,1.54687495 -0.50391,2.9882812 -1.41797,3.75 l 0.16406,0.1992187 c 1.34766,-0.9140625 1.89844,-2.33203125 1.89844,-3.9492187 0,-1.6289063 -0.55078,-3.0585938 -1.89844,-3.9609375 z m 0,0"
         style="fill:#231f20;fill-opacity:1;fill-rule:nonzero;stroke:none"
         aria-label="(a)(b)(c)"
         transform="matrix(1.3333333,0,0,1.3333333,65.403067,107.18636)" />
      <path
         id="path6"
         d="m 406.699,135.898 v 30"
         style="fill:none;stroke:#231f20;stroke-width:5;stroke-linecap:butt;stroke-linejoin:miter;stroke-miterlimit:3.25;stroke-dasharray:none;stroke-opacity:1"
         transform="matrix(0.13333333,0,0,-0.13333333,0,111.50667)" />
      <path
         id="path7"
         d="m 541.418,135.898 v 30"
         style="fill:none;stroke:#231f20;stroke-width:5;stroke-linecap:butt;stroke-linejoin:miter;stroke-miterlimit:3.25;stroke-dasharray:none;stroke-opacity:1"
         transform="matrix(0.13333333,0,0,-0.13333333,0,111.50667)" />
      <path
         id="path8"
         d="m 271.957,135.898 v 30"
         style="fill:none;stroke:#231f20;stroke-width:5;stroke-linecap:butt;stroke-linejoin:miter;stroke-miterlimit:3.25;stroke-dasharray:none;stroke-opacity:1"
         transform="matrix(0.13333333,0,0,-0.13333333,0,111.50667)" />
      <path
         id="path9"
         d="m 137.242,135.898 v 30"
         style="fill:none;stroke:#231f20;stroke-width:5;stroke-linecap:butt;stroke-linejoin:miter;stroke-miterlimit:3.25;stroke-dasharray:none;stroke-opacity:1"
         transform="matrix(0.13333333,0,0,-0.13333333,0,111.50667)" />
      <path
         id="path10"
         d="m 2.5,135.898 v 30"
         style="fill:none;stroke:#231f20;stroke-width:5;stroke-linecap:butt;stroke-linejoin:miter;stroke-miterlimit:3.25;stroke-dasharray:none;stroke-opacity:1"
         transform="matrix(0.13333333,0,0,-0.13333333,0,111.50667)" />
      <path
         id="path11"
         d="m 676.145,135.898 v 30"
         style="fill:none;stroke:#231f20;stroke-width:5;stroke-linecap:butt;stroke-linejoin:miter;stroke-miterlimit:3.25;stroke-dasharray:none;stroke-opacity:1"
         transform="matrix(0.13333333,0,0,-0.13333333,0,111.50667)" />
      <path
         id="path12"
         d="m 810.879,135.898 v 30"
         style="fill:none;stroke:#231f20;stroke-width:5;stroke-linecap:butt;stroke-linejoin:miter;stroke-miterlimit:3.25;stroke-dasharray:none;stroke-opacity:1"
         transform="matrix(0.13333333,0,0,-0.13333333,0,111.50667)" />
      <path
         id="path13"
         d="m 945.598,135.898 v 30"
         style="fill:none;stroke:#231f20;stroke-width:5;stroke-linecap:butt;stroke-linejoin:miter;stroke-miterlimit:3.25;stroke-dasharray:none;stroke-opacity:1"
         transform="matrix(0.13333333,0,0,-0.13333333,0,111.50667)" />
      <path
         id="path14"
         d="m 1080.34,135.898 v 30"
         style="fill:none;stroke:#231f20;stroke-width:5;stroke-linecap:butt;stroke-linejoin:miter;stroke-miterlimit:3.25;stroke-dasharray:none;stroke-opacity:1"
         transform="matrix(0.13333333,0,0,-0.13333333,0,111.50667)" />
      <path
         id="path15"
         d="M 2.5,165.898 H 1080.34"
         style="fill:none;stroke:#231f20;stroke-width:5;stroke-linecap:butt;stroke-linejoin:miter;stroke-miterlimit:3.25;stroke-dasharray:none;stroke-opacity:1"
         transform="matrix(0.13333333,0,0,-0.13333333,0,111.50667)" />
      <path
         id="path16"
         d="M 541.418,165.898 V 832.035"
         style="fill:none;stroke:#231f20;stroke-width:5;stroke-linecap:butt;stroke-linejoin:miter;stroke-miterlimit:3.25;stroke-dasharray:none;stroke-opacity:1"
         transform="matrix(0.13333333,0,0,-0.13333333,0,111.50667)" />
      <path
         id="path17"
         d="m 1776.69,135.898 v 30"
         style="fill:none;stroke:#231f20;stroke-width:5;stroke-linecap:butt;stroke-linejoin:miter;stroke-miterlimit:3.25;stroke-dasharray:none;stroke-opacity:1"
         transform="matrix(0.13333333,0,0,-0.13333333,0,111.50667)" />
      <path
         id="path18"
         d="m 1911.42,135.898 v 30"
         style="fill:none;stroke:#231f20;stroke-width:5;stroke-linecap:butt;stroke-linejoin:miter;stroke-miterlimit:3.25;stroke-dasharray:none;stroke-opacity:1"
         transform="matrix(0.13333333,0,0,-0.13333333,0,111.50667)" />
      <path
         id="path19"
         d="m 1641.95,135.898 v 30"
         style="fill:none;stroke:#231f20;stroke-width:5;stroke-linecap:butt;stroke-linejoin:miter;stroke-miterlimit:3.25;stroke-dasharray:none;stroke-opacity:1"
         transform="matrix(0.13333333,0,0,-0.13333333,0,111.50667)" />
      <path
         id="path20"
         d="m 1507.24,135.898 v 30"
         style="fill:none;stroke:#231f20;stroke-width:5;stroke-linecap:butt;stroke-linejoin:miter;stroke-miterlimit:3.25;stroke-dasharray:none;stroke-opacity:1"
         transform="matrix(0.13333333,0,0,-0.13333333,0,111.50667)" />
      <path
         id="path21"
         d="m 1372.5,135.898 v 30"
         style="fill:none;stroke:#231f20;stroke-width:5;stroke-linecap:butt;stroke-linejoin:miter;stroke-miterlimit:3.25;stroke-dasharray:none;stroke-opacity:1"
         transform="matrix(0.13333333,0,0,-0.13333333,0,111.50667)" />
      <path
         id="path22"
         d="m 2046.14,135.898 v 30"
         style="fill:none;stroke:#231f20;stroke-width:5;stroke-linecap:butt;stroke-linejoin:miter;stroke-miterlimit:3.25;stroke-dasharray:none;stroke-opacity:1"
         transform="matrix(0.13333333,0,0,-0.13333333,0,111.50667)" />
      <path
         id="path23"
         d="m 2180.87,135.898 v 30"
         style="fill:none;stroke:#231f20;stroke-width:5;stroke-linecap:butt;stroke-linejoin:miter;stroke-miterlimit:3.25;stroke-dasharray:none;stroke-opacity:1"
         transform="matrix(0.13333333,0,0,-0.13333333,0,111.50667)" />
      <path
         id="path24"
         d="m 2315.6,135.898 v 30"
         style="fill:none;stroke:#231f20;stroke-width:5;stroke-linecap:butt;stroke-linejoin:miter;stroke-miterlimit:3.25;stroke-dasharray:none;stroke-opacity:1"
         transform="matrix(0.13333333,0,0,-0.13333333,0,111.50667)" />
      <path
         id="path25"
         d="m 2450.34,135.898 v 30"
         style="fill:none;stroke:#231f20;stroke-width:5;stroke-linecap:butt;stroke-linejoin:miter;stroke-miterlimit:3.25;stroke-dasharray:none;stroke-opacity:1"
         transform="matrix(0.13333333,0,0,-0.13333333,0,111.50667)" />
      <path
         id="path26"
         d="M 1372.5,165.898 H 2450.34"
         style="fill:none;stroke:#231f20;stroke-width:5;stroke-linecap:butt;stroke-linejoin:miter;stroke-miterlimit:3.25;stroke-dasharray:none;stroke-opacity:1"
         transform="matrix(0.13333333,0,0,-0.13333333,0,111.50667)" />
      <path
         id="path27"
         d="M 1911.41,165.898 V 832.035"
         style="fill:none;stroke:#231f20;stroke-width:5;stroke-linecap:butt;stroke-linejoin:miter;stroke-miterlimit:3.25;stroke-dasharray:none;stroke-opacity:1"
         transform="matrix(0.13333333,0,0,-0.13333333,0,111.50667)" />
      <path
         id="path28"
         d="m 3146.7,135.898 v 30"
         style="fill:none;stroke:#231f20;stroke-width:5;stroke-linecap:butt;stroke-linejoin:miter;stroke-miterlimit:3.25;stroke-dasharray:none;stroke-opacity:1"
         transform="matrix(0.13333333,0,0,-0.13333333,0,111.50667)" />
      <path
         id="path29"
         d="m 3281.42,135.898 v 30"
         style="fill:none;stroke:#231f20;stroke-width:5;stroke-linecap:butt;stroke-linejoin:miter;stroke-miterlimit:3.25;stroke-dasharray:none;stroke-opacity:1"
         transform="matrix(0.13333333,0,0,-0.13333333,0,111.50667)" />
      <path
         id="path30"
         d="m 3011.95,135.898 v 30"
         style="fill:none;stroke:#231f20;stroke-width:5;stroke-linecap:butt;stroke-linejoin:miter;stroke-miterlimit:3.25;stroke-dasharray:none;stroke-opacity:1"
         transform="matrix(0.13333333,0,0,-0.13333333,0,111.50667)" />
      <path
         id="path31"
         d="m 2877.24,135.898 v 30"
         style="fill:none;stroke:#231f20;stroke-width:5;stroke-linecap:butt;stroke-linejoin:miter;stroke-miterlimit:3.25;stroke-dasharray:none;stroke-opacity:1"
         transform="matrix(0.13333333,0,0,-0.13333333,0,111.50667)" />
      <path
         id="path32"
         d="m 2742.49,135.898 v 30"
         style="fill:none;stroke:#231f20;stroke-width:5;stroke-linecap:butt;stroke-linejoin:miter;stroke-miterlimit:3.25;stroke-dasharray:none;stroke-opacity:1"
         transform="matrix(0.13333333,0,0,-0.13333333,0,111.50667)" />
      <path
         id="path33"
         d="m 3416.13,135.898 v 30"
         style="fill:none;stroke:#231f20;stroke-width:5;stroke-linecap:butt;stroke-linejoin:miter;stroke-miterlimit:3.25;stroke-dasharray:none;stroke-opacity:1"
         transform="matrix(0.13333333,0,0,-0.13333333,0,111.50667)" />
      <path
         id="path34"
         d="m 3550.88,135.898 v 30"
         style="fill:none;stroke:#231f20;stroke-width:5;stroke-linecap:butt;stroke-linejoin:miter;stroke-miterlimit:3.25;stroke-dasharray:none;stroke-opacity:1"
         transform="matrix(0.13333333,0,0,-0.13333333,0,111.50667)" />
      <path
         id="path35"
         d="m 3685.6,135.898 v 30"
         style="fill:none;stroke:#231f20;stroke-width:5;stroke-linecap:butt;stroke-linejoin:miter;stroke-miterlimit:3.25;stroke-dasharray:none;stroke-opacity:1"
         transform="matrix(0.13333333,0,0,-0.13333333,0,111.50667)" />
      <path
         id="path36"
         d="m 3820.34,135.898 v 30"
         style="fill:none;stroke:#231f20;stroke-width:5;stroke-linecap:butt;stroke-linejoin:miter;stroke-miterlimit:3.25;stroke-dasharray:none;stroke-opacity:1"
         transform="matrix(0.13333333,0,0,-0.13333333,0,111.50667)" />
      <path
         id="path37"
         d="M 2742.49,165.898 H 3820.34"
         style="fill:none;stroke:#231f20;stroke-width:5;stroke-linecap:butt;stroke-linejoin:miter;stroke-miterlimit:3.25;stroke-dasharray:none;stroke-opacity:1"
         transform="matrix(0.13333333,0,0,-0.13333333,0,111.50667)" />
      <path
         id="path38"
         d="M 3281.42,165.898 V 832.039"
         style="fill:none;stroke:#231f20;stroke-width:5;stroke-linecap:butt;stroke-linejoin:miter;stroke-miterlimit:3.25;stroke-dasharray:none;stroke-opacity:1"
         transform="matrix(0.13333333,0,0,-0.13333333,0,111.50667)" />
    </g>
  </g>
</svg>
