<?xml version="1.0" encoding="UTF-8" standalone="no"?>
<!-- Created with Inkscape (http://www.inkscape.org/) -->

<svg
   version="1.1"
   id="svg1"
   width="179.64"
   height="112.08"
   viewBox="0 0 179.64 112.08"
   sodipodi:docname="pha08f06.eps"
   xmlns:inkscape="http://www.inkscape.org/namespaces/inkscape"
   xmlns:sodipodi="http://sodipodi.sourceforge.net/DTD/sodipodi-0.dtd"
   xmlns="http://www.w3.org/2000/svg"
   xmlns:svg="http://www.w3.org/2000/svg">
  <defs
     id="defs1" />
  <sodipodi:namedview
     id="namedview1"
     pagecolor="#ffffff"
     bordercolor="#000000"
     borderopacity="0.25"
     inkscape:showpageshadow="2"
     inkscape:pageopacity="0.0"
     inkscape:pagecheckerboard="0"
     inkscape:deskcolor="#d1d1d1">
    <inkscape:page
       x="0"
       y="0"
       inkscape:label="1"
       id="page1"
       width="179.64"
       height="112.08"
       margin="0"
       bleed="0" />
  </sodipodi:namedview>
  <g
     id="g1"
     inkscape:groupmode="layer"
     inkscape:label="1">
    <g
       id="group-R5">
      <path
         id="path2"
         d="m 84.1953,3.75 h 6.1563 l 0.3437,0.02734 h 3.2852 l 0.3515,0.03125 h 1.4336 l 0.3828,0.03125 h 0.7071 l 0.3789,0.02735 h 0.6953 l 0.7383,0.02734 0.3515,0.03125 h 0.3868 l 0.6917,0.0586 h 0.386 l 0.352,0.02734 0.734,0.05859 0.696,0.0625 0.386,0.02735 0.703,0.05859 0.383,0.05859 0.696,0.08594 0.386,0.0625 0.703,0.11719 0.379,0.05469 0.36,0.05859 0.347,0.08984 0.731,0.17579 0.41,0.08984 0.758,0.23047 0.414,0.11719 0.766,0.29296 0.785,0.32422 0.41,0.20313 0.758,0.41406 0.414,0.23047 0.383,0.23437 0.382,0.29297 0.789,0.58594 0.411,0.32422 0.382,0.35156 0.371,0.37891 0.418,0.38281 0.379,0.4375 0.414,0.4688 0.758,0.996 0.41,0.5586 0.387,0.586 0.371,0.6445 0.414,0.6719 0.383,0.7031 0.402,0.7617 0.77,1.6719 0.414,0.9063 0.383,0.9375 0.785,2.1093 0.379,1.1446 0.406,1.2031 0.766,2.6055 0.418,1.4375 0.379,1.4921 0.785,3.2539 0.386,1.754 0.403,1.8476 0.765,3.9531 0.415,2.1407 0.371,2.2578 0.796,4.832 0.383,2.6055 0.403,2.6953 0.765,5.8008 0.414,3.1093 0.371,3.25 0.797,6.8829 1.555,15.6445 0.387,4.0156 0.347,4.1602 0.731,8.7889 0.379,4.598 0.351,4.777 0.739,10.051 0.371,5.242 0.355,5.422 0.735,11.363 1.464,24.758 0.379,6.621 0.352,6.797 0.726,14.121 1.473,30.36 2.926,68.781 0.383,9.289 0.351,9.461 0.738,19.344 1.461,40.156 2.934,84.961 0.371,10.929 0.352,10.926 2.199,65.742 2.933,84.961 0.352,9.961 0.356,9.821 0.722,19.152 1.445,36.211 0.352,8.527 0.352,8.328 0.726,15.907 0.352,7.578 0.351,7.328 0.739,13.804 0.339,6.442 0.356,6.176 0.383,5.871 0.351,5.531 0.352,5.242 0.355,4.891 0.727,8.758 0.355,3.871 0.352,3.515 0.379,3.172 0.351,2.781 0.36,2.426 0.347,2.078 0.371,1.672 0.36,1.324 0.351,0.938 0.352,0.582 0.387,0.172 0.347,-0.203 0.344,-0.551 0.352,-0.938 0.386,-1.324 0.352,-1.703 0.352,-2.074 0.355,-2.434 0.383,-2.812 0.34,-3.164 0.351,-3.516 0.356,-3.859 0.734,-8.789 0.356,-4.903 0.351,-5.242 0.727,-11.39 0.351,-6.192 0.352,-6.469 0.738,-13.804 0.352,-7.313 0.339,-7.594 0.739,-15.91 1.429,-34.562 0.387,-9.973 0.383,-10.133 0.785,-20.882 1.563,-43.711 3.105,-92.028 0.406,-11.691 0.379,-11.653 0.785,-23.265 1.567,-45.973 3.101,-87.301 0.371,-10.308 0.418,-10.168 0.766,-19.832 1.555,-37.621 0.398,-8.934 0.387,-8.73 0.766,-16.934 1.582,-31.492 0.371,-7.387 0.386,-7.176 0.793,-13.769 0.371,-6.594 0.387,-6.387 0.797,-12.214 0.371,-5.801 0.387,-5.656 0.797,-10.692 1.55,-19.2772 0.379,-4.1016 0.344,-3.957 0.738,-7.5274 0.352,-3.543 0.387,-3.4023 0.691,-6.4727 0.387,-3.0195 0.351,-2.9297 0.731,-5.5039 1.465,-9.6992 0.351,-2.168 0.352,-2.082 0.726,-3.8945 0.383,-1.8164 0.356,-1.7305 0.734,-3.2227 0.356,-1.4921 0.371,-1.4375 0.707,-2.6563 0.382,-1.2383 0.352,-1.1719 0.734,-2.1679 0.344,-0.9961 0.387,-0.9688 0.703,-1.7578 0.387,-0.789 0.347,-0.7618 0.731,-1.3984 0.351,-0.6523 0.379,-0.6133 0.739,-1.1446 0.695,-0.996 0.734,-0.87896 0.387,-0.41015 0.352,-0.38281 0.339,-0.34766 0.383,-0.32422 0.356,-0.32422 0.382,-0.29297 0.708,-0.52343 0.371,-0.26563 0.351,-0.23437 0.387,-0.20313 0.351,-0.20703 0.352,-0.17578 0.387,-0.17578 0.718,-0.32032 0.387,-0.14843 0.41,-0.14453 0.387,-0.14844 0.371,-0.11719 0.414,-0.11719 0.383,-0.08984 0.785,-0.20313 0.414,-0.05859 0.77,-0.17578 0.402,-0.05859 0.383,-0.0586 0.414,-0.05859 0.785,-0.08985 0.383,-0.05859 0.414,-0.02734 0.758,-0.0586 0.41,-0.03125 0.387,-0.02734 0.398,-0.03125 0.387,-0.02734 0.41,-0.03125 h 0.387 l 0.371,-0.02735 0.414,-0.03125 h 0.379 l 0.418,-0.02734 h 0.785 l 0.379,-0.02735 h 0.793 l 0.379,-0.03125 h 1.582 l 0.418,-0.03125 h 3.133 L 246.672,3.75 h 12.078 l 0.371,0.02734 h 3.113 l 0.371,0.03125 h 1.555 l 0.387,0.03125 h 0.766 l 0.371,0.02735 h 0.796 l 0.383,0.02734 h 0.371 l 0.383,0.03125 0.414,0.02735 h 0.387 l 1.52,0.11718 0.785,0.0625 0.765,0.05469 0.387,0.05859 0.398,0.03125 1.536,0.23438 0.406,0.05859 0.379,0.08594 0.386,0.0625 0.75,0.17188 0.418,0.12109 0.766,0.23047 0.344,0.11719 0.383,0.11718 0.351,0.11719 0.352,0.14844 0.351,0.17578 0.387,0.14453 0.691,0.38281 0.387,0.20313 0.352,0.20703 0.351,0.23437 0.387,0.23438 0.352,0.26562 0.339,0.29297 0.739,0.61328 0.351,0.32032 0.739,0.73437 0.339,0.41016 0.356,0.43746 0.383,0.4414 0.703,0.9961 0.387,0.5547 0.351,0.586 0.727,1.2343 0.703,1.4024 0.738,1.582 0.352,0.8516 0.339,0.8789 0.739,1.9609 0.351,1.0547 0.387,1.0859 0.691,2.4102 0.356,1.25 0.383,1.3789 0.703,2.9024 0.387,1.5507 0.339,1.6407 0.739,3.5156 0.351,1.875 0.352,1.9609 0.738,4.1914 0.344,2.2578 0.347,2.3399 0.739,5.0117 0.351,2.6367 0.387,2.7813 0.691,5.8633 1.477,13.2421 0.371,3.9532 0.387,4.1015 0.797,8.6719 0.379,4.5975 0.406,4.778 0.765,10.078 0.403,5.3 0.383,5.508 0.797,11.543 1.55,25.403 0.371,6.855 0.418,7.059 0.766,14.679 1.582,31.785 0.371,8.442 0.387,8.609 0.797,17.871 1.582,37.91 0.371,9.907 0.383,10.105 0.797,20.625 1.55,43.035 3.137,91.145 0.371,11.695 0.414,11.68 0.77,23.437 1.582,46.672 3.133,89.297 0.339,9.817 0.356,9.668 0.734,18.75 0.383,9.082 0.356,8.871 0.722,17.089 0.387,8.176 0.351,7.899 0.739,15.035 0.347,7.066 0.371,6.789 0.739,12.688 0.351,5.855 0.387,5.512 0.352,5.215 0.371,4.84 0.355,4.5 0.383,4.136 0.352,3.778 0.355,3.429 0.371,3.012 0.352,2.672 0.386,2.281 0.352,1.903 0.379,1.535 0.355,1.137 0.371,0.738 0.356,0.34 0.383,-0.047 0.351,-0.418 0.387,-0.813 0.352,-1.242 0.339,-1.57 0.383,-2 0.356,-2.367 0.382,-2.762 0.352,-3.102 0.387,-3.492 0.34,-3.863 0.386,-4.223 0.352,-4.566 0.379,-4.914 0.711,-10.879 0.371,-5.918 0.347,-6.242 0.739,-13.418 1.461,-30.258 0.386,-8.207 0.352,-8.469 0.734,-17.633 1.461,-37.648 0.352,-9.668 0.355,-9.805 0.727,-20.012 1.41,-41.285 2.875,-85.308 0.352,-10.727 0.371,-10.695 0.707,-21.27 1.429,-41.949 2.879,-79.746 0.352,-9.434 0.351,-9.316 0.707,-18.223 1.43,-34.66 0.352,-8.289 0.383,-8.144 0.707,-15.762 1.429,-29.531 0.352,-6.973 0.355,-6.797 0.727,-13.098 1.437,-24.199 0.36,-5.652 0.347,-5.481 0.696,-10.488 1.445,-19.101 0.398,-4.747 0.387,-4.5972 0.77,-8.7031 0.398,-4.1016 0.387,-3.9531 0.765,-7.4102 0.403,-3.5195 0.383,-3.3398 0.761,-6.2969 0.407,-2.9609 0.386,-2.8125 0.762,-5.2735 0.402,-2.4609 0.383,-2.3399 0.766,-4.3671 0.418,-2.0508 0.371,-1.9336 0.766,-3.6016 0.414,-1.6445 0.371,-1.582 0.765,-2.9297 0.414,-1.3438 0.371,-1.289 0.77,-2.3477 0.414,-1.082 0.371,-1.0274 0.766,-1.875 0.418,-0.875 0.371,-0.7929 0.765,-1.4961 0.415,-0.6719 0.371,-0.6445 0.386,-0.6133 0.379,-0.5586 0.414,-0.5274 0.371,-0.4961 0.77,-0.91012 0.797,-0.78906 0.371,-0.35547 0.383,-0.32031 0.41,-0.32422 0.387,-0.29297 0.757,-0.52734 0.411,-0.23047 0.382,-0.23828 0.371,-0.20313 0.387,-0.17578 0.41,-0.17578 0.387,-0.17578 0.758,-0.29297 0.379,-0.11719 0.711,-0.23437 0.379,-0.08594 0.339,-0.12109 0.387,-0.07813 0.703,-0.15625 0.387,-0.05859 0.352,-0.08594 0.339,-0.05859 0.387,-0.0586 0.352,-0.03125 0.351,-0.05859 0.739,-0.08594 0.371,-0.03125 0.707,-0.05469 0.382,-0.03125 0.708,-0.05859 0.722,-0.05859 0.356,-0.03125 h 0.382 l 0.352,-0.02735 h 0.355 l 0.379,-0.03125 h 0.344 l 0.738,-0.02734 h 0.352 l 0.387,-0.02735 h 0.691 l 0.387,-0.03125 h 1.437 l 0.371,-0.03125 h 3.258 L 414.926,3.75 h 12.219 l 0.382,0.02734 h 3.137 l 0.406,0.03125 h 1.547 l 0.414,0.03125 h 0.77 l 0.402,0.02735 h 0.383 L 435,3.89453 h 0.371 l 0.387,0.03125 h 0.41 l 0.387,0.02735 0.398,0.03125 h 0.387 l 0.379,0.02734 0.418,0.03125 0.371,0.02734 0.414,0.03125 0.766,0.0586 0.402,0.05859 0.383,0.02734 0.797,0.11719 0.371,0.0625 0.414,0.05469 0.383,0.0625 0.414,0.08594 0.371,0.05859 0.386,0.08594 0.793,0.20703 0.371,0.08594 0.418,0.11718 0.379,0.11719 1.145,0.44141 0.797,0.32031 1.136,0.625 0.379,0.22656 0.758,0.52735 0.797,0.58593 0.758,0.70313 0.765,0.76172 0.415,0.4375 0.371,0.46871 0.765,0.9961 0.387,0.5586 0.383,0.586 0.371,0.6132 0.414,0.6758 0.379,0.7032 0.387,0.7617 0.757,1.6406 0.379,0.8789 0.414,0.9648 0.758,2.0508 0.383,1.1133 0.387,1.2031 0.785,2.5782 0.379,1.375 0.386,1.4648 0.75,3.1953 0.387,1.6992 0.383,1.7852 0.785,3.8984 0.387,2.0782 0.379,2.1992 0.758,4.6875 0.414,2.5195 0.382,2.6367 0.754,5.625 0.383,2.9883 0.387,3.1641 0.797,6.6797 1.519,15.0859 0.371,3.8984 0.356,4.0157 0.707,8.4652 0.379,4.421 0.355,4.602 0.696,9.668 0.386,5.066 0.352,5.215 0.73,10.93 1.438,23.816 0.351,6.36 0.352,6.535 0.734,13.59 1.434,29.211 2.871,66.269 0.356,8.992 0.351,9.145 0.727,18.66 1.441,38.906 2.859,82.649 0.387,10.636 0.352,10.696 0.703,21.504 1.437,43.058 2.899,84.442 0.386,11.004 0.379,10.91 0.789,21.289 1.551,40.234 0.383,9.516 0.402,9.234 0.77,17.66 0.414,8.403 0.383,8.086 0.754,15.214 0.41,7.114 0.387,6.734 0.371,6.391 0.414,6.011 0.383,5.657 0.382,5.238 0.403,4.828 0.386,4.457 0.379,4.012 0.414,3.641 0.371,3.164 0.387,2.753 0.383,2.34 0.414,1.875 0.371,1.442 0.387,0.984 0.41,0.567 0.387,0.078 0.371,-0.321 0.414,-0.789 0.379,-1.23 0.387,-1.668 0.402,-2.11 0.383,-2.55 0.383,-2.981 0.382,-3.398 0.403,-3.844 0.386,-4.254 0.379,-4.656 0.414,-5.059 0.758,-11.281 0.41,-6.211 0.387,-6.59 0.785,-14.215 0.383,-7.621 0.387,-7.937 0.785,-16.809 0.379,-8.855 0.387,-9.11 0.785,-19.015 1.554,-40.664 0.379,-9.961 0.352,-10.082 0.726,-20.532 1.473,-42.308 2.902,-86.914 0.344,-10.91 0.387,-10.836 0.73,-21.563 1.438,-42.359 2.93,-80.012 0.355,-9.433 0.383,-9.29 0.691,-18.132 1.477,-34.422 0.371,-8.176 0.355,-8.027 0.731,-15.555 1.429,-29.008 0.387,-6.824 0.352,-6.652 0.738,-12.774 0.371,-6.121 0.352,-5.977 0.738,-11.394 0.352,-5.481 0.382,-5.273 0.731,-10.109 1.437,-18.3363 0.403,-4.5429 0.386,-4.3672 0.793,-8.2578 0.403,-3.8985 0.386,-3.7226 0.793,-7.0313 0.371,-3.2812 0.418,-3.1641 0.786,-5.8867 0.386,-2.7539 0.41,-2.6094 0.786,-4.9219 0.386,-2.2812 0.379,-2.1719 0.785,-4.0117 0.418,-1.875 0.379,-1.7891 0.785,-3.2773 0.418,-1.5274 0.379,-1.4336 0.785,-2.664 0.418,-1.2032 0.379,-1.1718 0.793,-2.1094 0.379,-0.9648 0.414,-0.9102 0.371,-0.8711 0.418,-0.8008 0.379,-0.789 0.414,-0.7032 0.789,-1.3203 0.379,-0.5859 0.414,-0.5547 0.371,-0.5273 0.387,-0.5 0.41,-0.4688 0.387,-0.4375 0.785,-0.76172 0.41,-0.35156 0.387,-0.35156 0.406,-0.29297 0.379,-0.29297 0.414,-0.26563 0.371,-0.23437 0.797,-0.46875 0.387,-0.20313 0.398,-0.17578 0.387,-0.17578 0.41,-0.14844 0.387,-0.14453 0.398,-0.14843 0.797,-0.26172 0.387,-0.08594 0.371,-0.12109 0.766,-0.17188 0.418,-0.08984 1.136,-0.17578 0.415,-0.0586 0.757,-0.11719 0.379,-0.03125 0.383,-0.05859 0.402,-0.02734 0.77,-0.0586 0.379,-0.05859 h 0.387 l 0.402,-0.03125 0.766,-0.05859 h 0.382 l 0.403,-0.02735 0.386,-0.03125 h 0.379 l 0.387,-0.02734 h 0.785 l 0.383,-0.02735 h 0.766 l 0.371,-0.03125 h 1.55 l 0.418,-0.03125 h 3.075 L 583.355,3.75 h 12.036 l 0.351,0.02734 H 599 l 0.387,0.03125 h 1.429 l 0.352,0.03125 h 1.078 l 0.352,0.02735 h 0.386 l 0.352,0.02734 h 0.734 l 0.696,0.0586 h 0.386 l 0.703,0.05859 h 0.383 l 0.696,0.05859 0.738,0.0625 0.351,0.02735 0.379,0.02734 0.36,0.05859 0.347,0.03125 0.371,0.0586 0.36,0.05859 0.73,0.08594 0.36,0.08984 0.347,0.0586 0.371,0.05859 0.711,0.17578 0.379,0.08594 0.707,0.20703 0.403,0.11719 0.386,0.11719 0.379,0.14453 0.414,0.14843 0.758,0.35157 0.797,0.38281 0.398,0.23047 0.77,0.46875 0.414,0.29297 0.371,0.26562 0.387,0.32031 0.797,0.67579 0.398,0.3789 0.387,0.41406 0.379,0.4375 0.418,0.46876 0.371,0.4961 0.383,0.5273 0.797,1.1446 0.371,0.6445 0.414,0.6719 0.383,0.7343 0.414,0.7618 0.371,0.8203 0.386,0.8476 0.793,1.9063 0.371,1.0234 0.418,1.086 0.766,2.3711 0.406,1.289 0.379,1.3516 0.785,2.9258 0.383,1.6132 0.414,1.6719 0.77,3.6289 0.402,1.9649 0.383,2.0507 0.785,4.4219 0.387,2.375 0.41,2.4883 0.762,5.332 0.41,2.8438 0.379,2.9883 0.793,6.3867 0.379,3.3984 0.41,3.543 0.754,7.5586 1.582,16.9922 0.351,4.3355 0.391,4.512 0.742,9.492 0.352,4.981 0.371,5.137 0.73,10.773 0.352,5.625 0.383,5.801 0.703,12.129 1.465,26.308 0.378,7.031 0.352,7.176 0.734,14.914 1.465,31.903 2.93,71.601 0.379,9.61 0.351,9.757 0.735,19.895 1.465,41.16 2.929,86.074 0.352,10.957 0.379,10.957 0.734,21.914 1.465,43.504 2.898,83.118 0.383,9.609 0.352,9.434 0.703,18.367 0.379,8.883 0.351,8.699 0.704,16.691 0.351,8.004 0.383,7.762 0.703,14.738 0.352,6.977 0.379,6.644 0.703,12.477 0.351,5.777 0.383,5.445 0.352,5.129 0.351,4.813 0.352,4.441 0.379,4.137 0.351,3.777 0.352,3.43 0.351,3.043 0.352,2.703 0.383,2.34 0.351,1.961 0.352,1.617 0.351,1.195 0.379,0.852 0.352,0.473 0.351,0.109 0.352,-0.289 0.383,-0.68 0.351,-1.015 0.352,-1.411 0.351,-1.789 0.379,-2.168 0.352,-2.519 0.351,-2.871 0.352,-3.246 0.352,-3.61 0.382,-3.949 0.352,-4.285 0.352,-4.625 0.73,-10.285 0.352,-5.625 0.351,-5.918 0.735,-12.774 0.351,-6.789 0.352,-7.129 0.703,-15 0.379,-7.871 0.351,-8.117 0.703,-16.937 1.438,-36.329 0.41,-10.343 0.379,-10.547 0.762,-21.563 1.582,-44.707 3.105,-92.687 0.383,-11.637 0.379,-11.602 0.793,-23.085 1.551,-45.293 3.105,-85.196 0.383,-9.988 0.41,-9.816 0.762,-19.161 1.551,-36.093 0.41,-8.528 0.383,-8.379 0.761,-16.113 1.551,-29.883 0.41,-6.972 0.383,-6.797 0.789,-12.977 0.383,-6.183 0.379,-6.004 0.793,-11.457 0.379,-5.45 0.382,-5.242 0.79,-9.992 1.554,-17.8983 0.352,-3.8086 0.379,-3.6602 0.703,-6.9453 0.383,-3.2539 0.351,-3.1641 0.731,-5.9179 0.351,-2.8125 0.383,-2.6641 0.703,-5.0391 0.379,-2.3437 0.352,-2.2578 0.734,-4.2461 0.352,-1.9649 1.082,-5.4179 0.382,-1.6407 0.352,-1.582 0.73,-2.9023 0.352,-1.375 0.383,-1.2891 0.73,-2.375 0.352,-1.1133 0.351,-1.0547 0.735,-1.9297 0.351,-0.9023 0.379,-0.8594 0.735,-1.5508 0.351,-0.7304 0.352,-0.6758 0.73,-1.2617 0.383,-0.5469 0.352,-0.5664 0.351,-0.4961 0.379,-0.4961 0.352,-0.4414 0.382,-0.44141 0.704,-0.76171 0.378,-0.34766 0.352,-0.35547 0.352,-0.32031 0.382,-0.29297 0.352,-0.26563 0.379,-0.26171 0.703,-0.46875 0.383,-0.20313 0.351,-0.20703 0.379,-0.17578 0.703,-0.35156 0.383,-0.14454 0.703,-0.29296 0.41,-0.1211 0.379,-0.11719 0.411,-0.11718 0.382,-0.11719 0.411,-0.08594 0.378,-0.08984 0.793,-0.17578 0.379,-0.05469 0.41,-0.0625 0.383,-0.08594 0.41,-0.03125 0.762,-0.11719 0.789,-0.08593 0.41,-0.02735 0.762,-0.0625 0.41,-0.02734 0.383,-0.03125 0.41,-0.02734 0.379,-0.03125 h 0.41 l 0.383,-0.02735 h 0.379 l 0.41,-0.03125 h 0.383 l 0.41,-0.02734 h 0.379 l 0.41,-0.02735 h 0.762 l 0.41,-0.03125 h 1.582 l 0.383,-0.03125 h 3.133 L 751.84,3.75 h 12.07 l 0.383,0.02734 h 3.105 l 0.379,0.03125 h 1.555 l 0.379,0.03125 h 0.762 l 0.382,0.02735 h 0.79 l 0.382,0.02734 h 0.379 l 0.383,0.03125 0.41,0.02735 h 0.379 l 0.762,0.05859 h 0.383 l 0.379,0.03125 0.41,0.02734 0.383,0.03125 0.761,0.08594 0.379,0.03125 0.383,0.05859 0.41,0.0586 0.379,0.02734 0.762,0.11719 0.793,0.14844 1.523,0.35156 0.379,0.11719 0.41,0.11718 0.762,0.26172 0.352,0.11719 0.382,0.14844 0.352,0.14453 0.703,0.35156 0.379,0.17969 0.703,0.40625 0.383,0.23437 0.351,0.23829 0.352,0.26171 0.352,0.29297 0.378,0.29297 0.352,0.32422 0.734,0.67188 0.352,0.3789 0.352,0.41016 0.378,0.41411 0.704,0.9335 0.351,0.5 0.734,1.1133 0.352,0.6172 0.379,0.6406 0.703,1.3789 0.352,0.7618 0.382,0.8203 0.704,1.7304 0.378,0.9336 0.352,0.9688 0.703,2.1406 0.383,1.168 0.352,1.2031 0.73,2.6367 0.352,1.4063 0.351,1.4648 0.735,3.1641 0.351,1.6992 0.352,1.7852 0.73,3.8398 0.352,2.0195 0.382,2.1407 0.704,4.5703 0.351,2.4023 0.379,2.5469 0.703,5.3906 0.383,2.8438 0.352,2.9882 0.711,6.3282 1.457,14.1523 0.378,4.2149 0.383,4.3671 0.789,9.2582 0.383,4.89 0.41,5.071 0.762,10.664 0.41,5.625 0.379,5.8 0.793,12.188 1.551,26.727 0.383,7.167 0.41,7.383 0.762,15.356 1.582,33.043 0.378,8.761 0.383,8.965 0.789,18.457 1.555,39.051 0.41,10.195 0.379,10.317 0.793,21.148 1.551,43.828 3.105,91.989 0.41,11.722 0.383,11.688 0.789,23.418 1.555,46.277 3.133,87.481 0.351,9.496 0.383,9.347 0.731,18.043 0.351,8.711 0.352,8.457 0.734,16.18 0.379,7.73 0.352,7.407 0.734,14.035 0.379,6.562 0.351,6.239 0.735,11.543 0.351,5.304 0.379,4.93 0.352,4.594 0.391,4.226 0.343,3.86 0.379,3.515 0.352,3.137 0.351,2.781 0.383,2.371 0.352,2.024 0.379,1.617 0.351,1.227 0.383,0.847 0.352,0.477 0.378,0.047 0.352,-0.321 0.352,-0.695 0.382,-1.117 0.352,-1.465 0.379,-1.875 0.351,-2.258 0.383,-2.629 0.352,-3.023 0.379,-3.371 0.351,-3.75 0.352,-4.102 0.383,-4.476 0.351,-4.809 0.379,-5.16 0.352,-5.504 0.734,-11.953 0.379,-6.445 0.351,-6.762 0.735,-14.387 1.473,-32.027 0.343,-8.606 0.352,-8.855 0.73,-18.313 1.465,-38.808 0.352,-9.914 0.383,-10.02 0.703,-20.379 1.433,-41.808 2.844,-85.493 0.379,-10.664 0.351,-10.605 0.704,-21.117 1.437,-41.434 2.84,-78.16 0.383,-9.231 0.351,-9.054 0.703,-17.723 1.434,-33.605 0.352,-7.996 0.351,-7.852 0.735,-15.203 1.433,-28.391 0.352,-6.711 0.351,-6.504 0.703,-12.539 0.383,-6.004 0.352,-5.859 0.703,-11.223 0.351,-5.359 0.379,-5.215 0.703,-9.961 1.438,-18.0779 0.379,-4.5117 0.383,-4.3359 0.789,-8.2032 0.383,-3.8359 0.378,-3.7226 0.793,-6.9727 0.379,-3.2773 0.383,-3.168 0.789,-5.8867 0.383,-2.7539 0.379,-2.6368 0.793,-4.8906 0.379,-2.3164 0.383,-2.168 0.789,-4.0742 0.382,-1.875 0.379,-1.8125 0.793,-3.3125 0.379,-1.5547 0.383,-1.4648 0.762,-2.6953 0.41,-1.2266 0.379,-1.1719 0.762,-2.1679 0.41,-0.9961 0.383,-0.9414 0.761,-1.7266 0.41,-0.7891 0.379,-0.7656 0.762,-1.3476 0.41,-0.6133 0.383,-0.586 0.762,-1.0546 0.379,-0.4688 0.41,-0.46874 0.762,-0.82032 0.382,-0.35156 0.41,-0.35156 0.762,-0.64453 0.379,-0.26563 0.41,-0.26172 0.762,-0.49609 0.383,-0.20703 0.41,-0.20703 0.762,-0.35156 0.761,-0.29297 0.789,-0.29297 0.352,-0.08594 0.383,-0.11719 0.703,-0.17578 0.379,-0.08984 0.351,-0.08594 0.735,-0.14453 0.703,-0.11719 0.379,-0.03125 0.351,-0.05859 0.383,-0.0586 0.352,-0.03125 0.73,-0.08593 0.703,-0.0586 0.383,-0.03125 0.703,-0.05859 0.379,-0.02734 0.703,-0.03125 0.383,-0.02735 h 0.36 l 0.343,-0.03125 h 0.731 l 0.351,-0.02734 0.735,-0.02735 h 1.082 l 0.383,-0.03125 h 1.433 l 0.352,-0.03125 h 3.254 L 920.355,3.75 h 11.75 l 0.411,0.02734 h 3.515 l 0.41,0.03125 h 1.172 l 0.379,0.03125 h 0.793 l 0.379,0.02735 h 0.793 l 0.379,0.02734 h 0.41 l 0.383,0.03125 h 0.41 l 0.762,0.0586 0.41,0.02734 h 0.379 l 0.793,0.05859 0.379,0.03125 0.41,0.0586 0.391,0.02734 0.402,0.03125 0.762,0.11719 0.789,0.08984 0.382,0.08594 0.411,0.05859 0.379,0.0586 0.41,0.08984 0.761,0.17188 0.793,0.20703 0.379,0.11718 0.352,0.11719 0.383,0.14453 0.351,0.11719 0.379,0.14844 0.352,0.17578 0.734,0.32031 0.379,0.20703 0.352,0.20313 0.382,0.23828 0.352,0.23047 0.379,0.23437 0.351,0.26563 0.735,0.58594 0.379,0.32031 0.734,0.73437 0.352,0.37891 0.378,0.41408 0.352,0.4375 0.734,0.9961 0.379,0.5273 0.352,0.5547 0.734,1.2344 0.379,0.6406 0.352,0.7344 0.734,1.5234 0.379,0.8516 0.352,0.875 0.734,1.9062 0.379,1.0235 0.351,1.1133 0.735,2.3437 0.379,1.2891 0.351,1.3476 0.735,2.8711 0.379,1.5547 0.351,1.6406 0.734,3.5157 0.379,1.875 0.352,1.9609 0.734,4.2226 0.379,2.254 0.352,2.3437 0.734,5.0391 0.379,2.664 0.352,2.7852 0.734,5.9453 1.465,13.3594 0.379,3.6054 0.351,3.75 0.703,7.8829 0.383,4.1601 0.352,4.2731 0.703,9.055 0.379,4.746 0.351,4.891 0.704,10.254 1.437,22.472 0.379,6.035 0.352,6.18 0.703,12.922 1.437,27.805 0.379,7.351 0.352,7.559 0.703,15.586 1.437,33.078 0.379,8.672 0.352,8.816 0.703,18.114 1.465,37.816 2.871,81.062 5.742,170.625 0.383,11.25 0.379,11.129 0.793,21.864 1.55,41.742 0.379,9.933 0.41,9.696 0.77,18.687 1.55,34.016 0.41,7.742 0.38,7.406 0.79,13.801 0.38,6.352 0.38,5.976 0.79,10.82 0.38,4.797 0.38,4.426 0.41,3.981 0.39,3.578 0.38,3.164 0.38,2.726 0.41,2.286 0.38,1.843 0.38,1.403 0.41,0.996 0.38,0.508 0.38,0.078 0.41,-0.34 0.38,-0.828 0.38,-1.258 0.38,-1.695 0.42,-2.149 0.37,-2.539 0.39,-3.027 0.41,-3.422 0.38,-3.832 0.38,-4.254 0.38,-4.688 0.41,-5.074 0.38,-5.445 0.38,-5.852 0.79,-12.804 0.38,-6.977 0.41,-7.266 0.76,-15.586 0.38,-8.265 0.41,-8.547 0.77,-17.965 1.55,-38.898 0.38,-9.59 0.35,-9.746 0.73,-19.981 1.47,-41.433 2.9,-86.313 0.35,-10.894 0.38,-10.899 0.73,-21.711 1.44,-42.851 2.93,-81.801 0.35,-9.731 0.35,-9.578 0.73,-18.75 1.47,-35.714 0.35,-8.524 0.38,-8.379 0.71,-16.262 1.46,-30.468 0.35,-7.176 0.38,-7.031 0.74,-13.504 1.43,-24.961 0.38,-5.805 0.35,-5.652 0.74,-10.813 1.46,-19.656 0.38,-4.894 0.38,-4.7153 0.79,-8.9375 0.41,-4.2188 0.38,-4.043 0.8,-7.6171 0.41,-3.5704 0.38,-3.4296 0.79,-6.4454 0.38,-3.0195 0.41,-2.8711 0.79,-5.3906 0.38,-2.5195 0.41,-2.3711 0.76,-4.4532 0.41,-2.0781 0.38,-1.9648 0.79,-3.6602 0.41,-1.6719 0.38,-1.6132 0.8,-2.9571 0.38,-1.3789 0.41,-1.289 0.79,-2.3711 0.38,-1.086 0.41,-1.0234 0.38,-0.9688 0.41,-0.9336 0.38,-0.8515 0.41,-0.8203 0.76,-1.4922 0.41,-0.6758 0.39,-0.6445 0.4,-0.586 0.38,-0.5547 0.41,-0.5312 0.39,-0.4961 0.79,-0.91016 0.38,-0.41015 0.41,-0.35156 0.38,-0.37891 0.41,-0.32422 0.38,-0.29297 0.41,-0.29297 0.79,-0.52734 0.38,-0.23047 0.38,-0.20703 0.41,-0.20703 0.38,-0.20313 0.42,-0.14843 0.37,-0.17579 0.8,-0.29296 0.76,-0.23047 0.41,-0.11719 0.38,-0.08984 0.38,-0.10938 0.38,-0.06641 0.79,-0.17578 1.52,-0.23437 0.41,-0.0586 0.39,-0.03125 0.76,-0.08593 0.41,-0.02735 1.52,-0.12109 0.41,-0.02734 0.76,-0.03125 0.76,-0.0586 h 0.8 l 0.38,-0.02734 h 0.38 l 0.38,-0.02735 h 0.79 l 0.38,-0.03125 h 1.55 l 0.38,-0.03125 h 3.11 L 1088.55,3.75 h 12.3 l 0.39,0.02734 h 2.87 l 0.35,0.03125 h 1.81 l 0.36,0.03125 h 0.73 l 0.35,0.02735 h 0.73 l 0.71,0.02734 0.38,0.03125 h 0.35 l 0.35,0.02735 0.38,0.03125 h 0.35 l 0.35,0.02734 0.74,0.05859 0.35,0.03125 0.38,0.03125 0.7,0.05469 0.38,0.03125 0.35,0.05859 0.74,0.08594 1.05,0.17969 0.38,0.05469 0.35,0.05859 0.35,0.08984 0.74,0.17579 0.38,0.08984 0.41,0.11719 0.76,0.23047 0.41,0.14843 0.38,0.14453 0.79,0.32422 0.38,0.20313 0.41,0.20703 0.38,0.20703 0.38,0.23047 0.42,0.23437 0.38,0.26563 0.79,0.58594 0.38,0.35156 0.38,0.32422 0.41,0.3789 0.76,0.82032 0.41,0.46874 0.76,0.9961 0.41,0.5547 0.38,0.5859 0.41,0.6446 0.38,0.6445 0.39,0.7344 0.41,0.7304 0.76,1.6719 0.41,0.8789 0.38,0.9649 0.79,2.082 0.38,1.1445 0.38,1.1992 0.79,2.5782 0.38,1.4336 0.41,1.4648 0.79,3.2227 0.38,1.7617 0.39,1.8125 0.79,3.957 0.38,2.1367 0.41,2.2266 0.76,4.8047 0.41,2.5781 0.38,2.6992 0.79,5.7422 0.38,3.0742 0.38,3.2227 0.79,6.8555 1.59,15.5273 0.35,3.9844 0.35,4.1328 0.73,8.6992 0.38,4.598 0.35,4.746 0.74,9.961 0.38,5.215 0.35,5.39 0.73,11.25 1.47,24.61 0.35,6.566 0.39,6.766 0.72,14.003 1.47,30.176 2.9,68.352 0.38,9.254 0.35,9.406 0.73,19.219 1.47,39.992 2.93,84.641 0.35,10.867 0.38,10.894 0.73,21.887 1.47,43.738 2.9,84.961 0.38,9.961 0.35,9.852 0.7,19.211 1.44,36.359 0.35,8.578 0.38,8.36 0.7,16.015 1.44,28.985 0.35,6.562 0.35,6.242 0.38,5.946 0.35,5.656 0.36,5.301 0.35,5.011 0.73,8.957 0.35,3.985 0.35,3.64 0.35,3.274 0.38,2.906 0.36,2.551 0.35,2.195 0.35,1.816 0.35,1.461 0.38,1.059 0.35,0.695 0.35,0.321 0.36,-0.047 0.38,-0.418 0.35,-0.813 0.35,-1.183 0.35,-1.547 0.35,-1.938 0.38,-2.277 0.36,-2.676 0.35,-3.012 0.35,-3.363 0.35,-3.722 0.38,-4.071 0.35,-4.429 0.35,-4.747 0.36,-5.101 0.73,-11.129 0.35,-6.035 0.35,-6.352 0.73,-13.543 0.36,-7.175 0.35,-7.473 0.73,-15.672 1.41,-34.133 0.41,-9.836 0.38,-10.054 0.77,-20.684 1.57,-43.391 3.11,-91.64 0.38,-11.633 0.38,-11.652 0.79,-23.239 1.55,-45.965 3.11,-87.57 0.38,-10.367 0.38,-10.199 0.79,-19.95 1.55,-37.851 0.38,-9.024 0.38,-8.82 0.8,-17.078 1.55,-31.816 0.38,-7.469 0.38,-7.27 0.79,-13.914 0.38,-6.679 0.38,-6.473 0.79,-12.395 0.38,-5.89 0.39,-5.711 0.79,-10.871 1.55,-19.6252 0.35,-4.1641 0.38,-4.043 0.7,-7.6445 0.39,-3.6055 0.35,-3.4844 0.73,-6.5937 0.35,-3.1055 0.38,-2.9843 0.7,-5.625 1.47,-9.9336 0.35,-2.2266 0.38,-2.1367 0.71,-3.9883 0.38,-1.8438 0.35,-1.789 0.73,-3.3086 0.35,-1.5547 0.38,-1.4648 0.71,-2.7539 0.38,-1.2579 0.35,-1.1992 0.73,-2.2304 0.35,-1.0547 0.38,-0.9649 0.71,-1.8164 0.38,-0.8515 0.35,-0.7813 0.73,-1.4453 0.35,-0.6719 0.38,-0.6445 0.71,-1.1445 0.38,-0.5547 0.35,-0.5 0.73,-0.9063 0.35,-0.41014 0.38,-0.41016 0.36,-0.38281 0.35,-0.35156 0.38,-0.32032 0.35,-0.29297 0.73,-0.55859 0.35,-0.26172 0.38,-0.23437 0.36,-0.23438 0.35,-0.20703 0.38,-0.20312 0.35,-0.17579 0.73,-0.32421 0.41,-0.17579 0.38,-0.14453 0.82,-0.29297 0.82,-0.23437 0.79,-0.16797 1.24,-0.26953 0.41,-0.0625 0.38,-0.05469 1.23,-0.17969 0.41,-0.02734 0.38,-0.05859 1.64,-0.11719 0.38,-0.03125 0.82,-0.05859 h 0.41 l 0.41,-0.02735 0.38,-0.03125 h 0.41 l 0.41,-0.02734 h 0.82 l 0.41,-0.02735 h 0.79 l 0.41,-0.03125 h 1.2 l 0.41,-0.03125 h 3.26 L 1257.04,3.75 h 6.06"
         style="fill:none;stroke:#3871c1;stroke-width:7.5;stroke-linecap:square;stroke-linejoin:miter;stroke-miterlimit:3.25;stroke-dasharray:none;stroke-opacity:1"
         transform="matrix(0.13333333,0,0,-0.13333333,0,112.08)" />
      <path
         id="path3"
         d="M 0,3.75 H 1347.3"
         style="fill:none;stroke:#231f20;stroke-width:5;stroke-linecap:butt;stroke-linejoin:miter;stroke-miterlimit:3.25;stroke-dasharray:none;stroke-opacity:1"
         transform="matrix(0.13333333,0,0,-0.13333333,0,112.08)" />
      <path
         id="path4"
         d="M 673.648,3.75 V 836.422"
         style="fill:none;stroke:#231f20;stroke-width:5;stroke-linecap:butt;stroke-linejoin:miter;stroke-miterlimit:3.25;stroke-dasharray:none;stroke-opacity:1"
         transform="matrix(0.13333333,0,0,-0.13333333,0,112.08)" />
    </g>
  </g>
</svg>
