<?xml version="1.0" encoding="UTF-8" standalone="no"?>
<!-- Created with Inkscape (http://www.inkscape.org/) -->

<svg
   version="1.1"
   id="svg1"
   width="559.62665"
   height="135.64"
   viewBox="0 0 559.62665 135.64"
   sodipodi:docname="pha08f04.eps"
   xmlns:inkscape="http://www.inkscape.org/namespaces/inkscape"
   xmlns:sodipodi="http://sodipodi.sourceforge.net/DTD/sodipodi-0.dtd"
   xmlns="http://www.w3.org/2000/svg"
   xmlns:svg="http://www.w3.org/2000/svg">
  <defs
     id="defs1" />
  <sodipodi:namedview
     id="namedview1"
     pagecolor="#ffffff"
     bordercolor="#000000"
     borderopacity="0.25"
     inkscape:showpageshadow="2"
     inkscape:pageopacity="0.0"
     inkscape:pagecheckerboard="0"
     inkscape:deskcolor="#d1d1d1">
    <inkscape:page
       x="0"
       y="0"
       inkscape:label="1"
       id="page1"
       width="559.62665"
       height="135.64"
       margin="0"
       bleed="0" />
  </sodipodi:namedview>
  <g
     id="g1"
     inkscape:groupmode="layer"
     inkscape:label="1">
    <g
       id="group-R5">
      <path
         id="path2"
         d="m 2.6960781,1.3246831 c -0.890625,-0.76171872 -1.40625,-2.20312497 -1.40625,-3.75 0,-1.546875 0.515625,-3 1.40625,-3.75 L 2.5437344,-6.3862544 c -1.3242188,0.9023438 -1.91015627,2.3320313 -1.91015627,3.9492188 0,1.62890623 0.58593747,3.08203123 1.91015627,3.9609375 z m 3.8935547,-1.67578122 -0.09375,-0.234375 c -0.09375,0.0585938 -0.2226562,0.10546875 -0.328125,0.10546875 -0.1523437,0 -0.3164062,-0.140625 -0.3164062,-0.55078123 v -1.6640625 c 0,-0.46875 -0.082031,-0.84375 -0.3984375,-1.1015625 -0.1992188,-0.1640625 -0.46875,-0.2460938 -0.7382813,-0.2460938 -0.515625,0.1054688 -1.1015625,0.4570313 -1.3476562,0.6328125 -0.1757813,0.1289063 -0.2929688,0.2226563 -0.2929688,0.3632813 0,0.1992187 0.234375,0.3867187 0.3984375,0.3867187 0.1289063,0 0.2226563,-0.070312 0.2578125,-0.2109375 0.070312,-0.28125 0.1523438,-0.4804687 0.2695313,-0.5976562 0.09375,-0.1054688 0.2226562,-0.1757813 0.4101562,-0.1757813 0.4453125,0 0.75,0.3632813 0.75,1.0195313 v 0.1640625 c -0.1992187,0.1523437 -0.8554687,0.3984375 -1.3945312,0.5742187 -0.4921875,0.1757813 -0.7265625,0.4570313 -0.7265625,0.90234378 0,0.5625 0.4453125,1.08984375 1.078125,1.08984375 0.2695312,0 0.703125,-0.328125 1.0664062,-0.57421875 0.046875,0.15234375 0.09375,0.28125 0.2109375,0.41015625 0.1054688,0.08203125 0.2929688,0.1640625 0.421875,0.1640625 z M 5.1599453,-0.76125437 c -0.1640625,0.1640625 -0.4804687,0.31640625 -0.7148437,0.328125 -0.28125,0 -0.6445313,-0.22265625 -0.6445313,-0.69140623 0,-0.328125 0.1992188,-0.4921875 0.5507813,-0.65625 0.1875,-0.09375 0.6210937,-0.28125 0.8085937,-0.375 z M 6.7947109,-6.1753169 c 0.890625,0.7382813 1.4179688,2.203125 1.4179688,3.75 0,1.54687503 -0.5039063,2.98828128 -1.4179688,3.75 l 0.1640625,0.1992188 c 1.3476563,-0.91406252 1.8984375,-2.33203127 1.8984375,-3.9492188 0,-1.6289062 -0.5507812,-3.0585937 -1.8984375,-3.9609375 z M -44.014859,-21.717309 c -1.347657,0 -1.839844,1.605469 -1.839844,2.917969 0,1.417968 0.480469,2.90625 1.839844,2.90625 1.359375,0 1.828125,-1.59375 1.828125,-2.917969 0,-1.382813 -0.46875,-2.90625 -1.828125,-2.90625 z m 0,0.304687 c 0.808593,0 1.03125,1.324219 1.03125,2.601563 0,1.265625 -0.222657,2.613281 -1.03125,2.613281 -0.773438,0 -1.042969,-1.359375 -1.042969,-2.613281 0,-1.253906 0.222656,-2.601563 1.042969,-2.601563 z m 14.800781,5.414063 v -0.246094 c -0.820313,-0.05859 -0.878906,-0.128906 -0.878906,-0.785156 v -4.6875 c -0.492188,0.199219 -1.019532,0.375 -1.59375,0.46875 v 0.210937 l 0.433593,0.01172 c 0.386719,0.02344 0.421875,0.07031 0.421875,0.539063 v 3.457031 c 0,0.65625 -0.03516,0.726562 -0.855468,0.785156 v 0.246094 z m 13.746094,-1.265625 c -0.269532,0.574219 -0.386719,0.609375 -0.867188,0.609375 h -1.6875 l 1.277344,-1.335938 c 0.832031,-0.890625 1.195312,-1.417968 1.195312,-2.203125 0,-0.949218 -0.726562,-1.523437 -1.511718,-1.523437 -0.527344,0 -0.949219,0.234375 -1.21875,0.539062 l -0.515625,0.726563 0.199218,0.175781 c 0.234375,-0.351562 0.609375,-0.832031 1.230469,-0.832031 0.65625,0 1.054688,0.433594 1.054688,1.195312 0,0.773438 -0.5625,1.511719 -1.125,2.179688 -0.445313,0.515625 -0.949219,1.03125 -1.453125,1.523437 v 0.210938 h 3.363281 c 0.105469,-0.410156 0.199219,-0.796875 0.316406,-1.183594 z m 10.5615231,-3.199219 c 0.2226562,-0.328125 0.5859375,-0.714844 1.078125,-0.714844 0.4804687,0 0.8554687,0.292969 0.8554687,0.855469 0,0.65625 -0.609375,1.007813 -1.4296875,1.277344 l 0.058594,0.257812 c 0.140625,-0.04687 0.3632812,-0.105468 0.5742187,-0.105468 0.515625,0 1.1484375,0.339843 1.1484375,1.171875 0,0.890625 -0.4570312,1.359375 -1.0898437,1.359375 -0.515625,0 -0.890625,-0.246094 -1.125,-0.457032 -0.070312,-0.05859 -0.140625,-0.04687 -0.2109375,0 -0.082031,0.05859 -0.1992188,0.175782 -0.2109375,0.292969 -0.011719,0.117188 0.023437,0.210938 0.1523437,0.328125 0.1171875,0.105469 0.4804688,0.304688 0.890625,0.304688 0.65625,0 2.3671875,-0.667969 2.3671875,-2.121094 0,-0.65625 -0.46875,-1.21875 -1.2539062,-1.371094 v -0.01172 c 0.2578125,-0.1875 0.4804687,-0.339843 0.609375,-0.492187 0.1757812,-0.164063 0.28125,-0.375 0.28125,-0.632813 0,-0.691406 -0.5273438,-1.195312 -1.3476563,-1.195312 -0.46875,0 -0.890625,0.234375 -1.1367187,0.503906 l -0.3984375,0.574219 z m 16.8398439,2.859375 v -0.421875 h -0.867188 v -3.65625 h -0.351562 c -0.9257814,1.21875 -1.8515627,2.554688 -2.7070314,3.832031 v 0.246094 h 2.3437504 v 0.65625 c 0,0.585938 -0.03516,0.644531 -0.8203129,0.703125 v 0.246094 h 2.3085939 v -0.246094 c -0.726563,-0.05859 -0.773438,-0.105469 -0.773438,-0.703125 v -0.65625 z m -1.582031,-0.421875 H 8.5818203 c 0.5859375,-0.996094 1.171875,-1.851562 1.7578127,-2.648437 h 0.01172 z m 12.351562,-2.917969 h 2.097656 l 0.234375,-0.585937 -0.05859,-0.07031 h -2.566407 l -0.351562,2.742188 c 0.210937,-0.08203 0.550781,-0.1875 0.925781,-0.1875 0.984375,0 1.464844,0.574219 1.464844,1.359375 0,0.679687 -0.375,1.335937 -1.136719,1.335937 -0.550781,0 -0.914062,-0.292968 -1.113281,-0.457031 -0.08203,-0.07031 -0.152344,-0.05859 -0.234375,0 -0.105469,0.09375 -0.1875,0.210938 -0.1875,0.292969 -0.02344,0.105469 0.02344,0.1875 0.140625,0.304687 0.128906,0.128907 0.515625,0.316407 0.925781,0.316407 0.480469,-0.01172 1.078125,-0.246094 1.570313,-0.632813 0.550781,-0.457031 0.796875,-0.960937 0.796875,-1.511719 0,-0.738281 -0.585938,-1.511718 -1.734375,-1.511718 -0.246094,0 -0.667969,0.140625 -1.007813,0.269531 z m 13.362305,1.863282 c 0.269531,-1.253907 1.113281,-1.828125 1.664062,-2.085938 0.328125,-0.152344 0.679688,-0.257812 0.972657,-0.316406 l -0.05859,-0.28125 c -0.363281,0.05859 -0.796875,0.164062 -1.148438,0.28125 -0.960937,0.351562 -2.332031,1.371094 -2.332031,3.339844 0,1.382812 0.796875,2.25 1.851563,2.25 1.078125,0 1.839843,-0.902344 1.839843,-1.980469 0,-0.925781 -0.65625,-1.664063 -1.617187,-1.664063 -0.175781,0 -0.363281,0.07031 -0.5625,0.152344 z m 0.820312,0.04687 c 0.820313,0 1.195313,0.738281 1.195313,1.488281 0,0.597656 -0.210938,1.347656 -0.914063,1.347656 -0.738281,0 -1.195312,-0.878906 -1.195312,-1.957031 0,-0.234375 0.01172,-0.457031 0.04687,-0.621094 0.222656,-0.117187 0.527344,-0.257812 0.867187,-0.257812 z m 15.46875,-2.566407 h -3.433593 c -0.03516,0.386719 -0.08203,0.832032 -0.164063,1.324219 h 0.257813 c 0.222656,-0.585937 0.269531,-0.667969 0.867187,-0.667969 h 1.945313 c -0.714844,1.558594 -1.722657,3.421875 -2.671875,4.957032 l 0.05859,0.09375 0.667969,-0.08203 c 0.867188,-1.863281 1.699219,-3.691406 2.542969,-5.519531 z m 11.707032,-0.117187 c -0.960938,0 -1.59375,0.726562 -1.59375,1.476562 0,0.632813 0.386718,1.066407 0.972656,1.394532 -0.304688,0.199218 -0.65625,0.445312 -0.796875,0.574218 -0.199219,0.199219 -0.398438,0.445313 -0.398438,0.855469 0,0.972656 0.761719,1.523438 1.722657,1.523438 0.761718,0 1.78125,-0.574219 1.78125,-1.628907 0,-0.785156 -0.5625,-1.207031 -1.183594,-1.558593 0.398437,-0.28125 0.644531,-0.503907 0.703125,-0.585938 0.175781,-0.1875 0.269531,-0.457031 0.269531,-0.714844 0,-0.726562 -0.621094,-1.335937 -1.476562,-1.335937 z m -0.08203,0.292969 c 0.410157,0 0.878907,0.328125 0.878907,1.089843 0,0.539063 -0.246094,0.867188 -0.550782,1.113282 -0.632812,-0.316407 -1.171875,-0.609375 -1.171875,-1.277344 0,-0.457031 0.304688,-0.925781 0.84375,-0.925781 z m 0.08203,5.25 c -0.574219,0 -1.101563,-0.46875 -1.101563,-1.289063 0,-0.492187 0.304688,-0.949219 0.738281,-1.230469 0.691407,0.351563 1.335938,0.738282 1.335938,1.40625 0,0.691407 -0.421875,1.113282 -0.972656,1.113282 z m -120.19629,-74.891602 v -0.246094 c -0.820312,-0.05859 -0.878906,-0.128906 -0.878906,-0.785156 v -4.6875 c -0.492187,0.199219 -1.019531,0.375 -1.59375,0.46875 v 0.210938 l 0.433594,0.01172 c 0.386719,0.02344 0.421875,0.07031 0.421875,0.539063 v 3.457031 c 0,0.65625 -0.03516,0.726563 -0.855469,0.785156 v 0.246094 z m 1.713868,0.105469 c 0.28125,0 0.503906,-0.199219 0.503906,-0.515625 0,-0.292969 -0.222656,-0.515625 -0.503906,-0.515625 -0.292969,0 -0.503907,0.222656 -0.503907,0.515625 0,0.316406 0.210938,0.515625 0.503907,0.515625 z m 3.251953,-5.824219 c -1.347656,0 -1.839844,1.605469 -1.839844,2.917969 0,1.417969 0.480469,2.90625 1.839844,2.90625 1.359375,0 1.828125,-1.59375 1.828125,-2.917969 0,-1.382812 -0.46875,-2.90625 -1.828125,-2.90625 z m 0,0.304688 c 0.808594,0 1.03125,1.324218 1.03125,2.601562 0,1.265625 -0.222656,2.613281 -1.03125,2.613281 -0.773438,0 -1.042969,-1.359375 -1.042969,-2.613281 0,-1.253906 0.222656,-2.601562 1.042969,-2.601562 z m -6.621094,32.695312 c -1.347656,0 -1.839844,1.605469 -1.839844,2.917969 0,1.417969 0.480469,2.90625 1.839844,2.90625 1.359375,0 1.828125,-1.59375 1.828125,-2.917969 0,-1.382812 -0.46875,-2.90625 -1.828125,-2.90625 z m 0,0.304688 c 0.808594,0 1.03125,1.324218 1.03125,2.601562 0,1.265625 -0.222656,2.613281 -1.03125,2.613281 -0.773437,0 -1.042969,-1.359375 -1.042969,-2.613281 0,-1.253906 0.222657,-2.601562 1.042969,-2.601562 z m 3.246094,5.519531 c 0.28125,0 0.503906,-0.199219 0.503906,-0.515625 0,-0.292969 -0.222656,-0.515625 -0.503906,-0.515625 -0.292969,0 -0.503906,0.222656 -0.503906,0.515625 0,0.316406 0.210937,0.515625 0.503906,0.515625 z m 2.589844,-5.050781 h 2.097656 l 0.234375,-0.585938 -0.05859,-0.07031 h -2.566406 l -0.351563,2.742187 c 0.210938,-0.08203 0.550782,-0.1875 0.925782,-0.1875 0.984375,0 1.464843,0.574219 1.464843,1.359375 0,0.679688 -0.375,1.335938 -1.136718,1.335938 -0.550782,0 -0.914063,-0.292969 -1.113282,-0.457032 -0.08203,-0.07031 -0.152343,-0.05859 -0.234375,0 -0.105468,0.09375 -0.1875,0.210938 -0.1875,0.292969 -0.02344,0.105469 0.02344,0.1875 0.140625,0.304688 0.128907,0.128906 0.515625,0.316406 0.925782,0.316406 0.480468,-0.01172 1.078125,-0.246094 1.570312,-0.632813 0.550781,-0.457031 0.796875,-0.960937 0.796875,-1.511718 0,-0.738282 -0.585937,-1.511719 -1.734375,-1.511719 -0.246094,0 -0.667969,0.140625 -1.007812,0.269531 z M 92.529086,-91.065942 v -0.246094 c -0.820313,-0.05859 -0.878906,-0.128906 -0.878906,-0.785156 v -4.6875 c -0.492188,0.199219 -1.019532,0.375 -1.59375,0.46875 v 0.210938 l 0.433593,0.01172 c 0.386719,0.02344 0.421875,0.07031 0.421875,0.539063 v 3.457031 c 0,0.65625 -0.03516,0.726563 -0.855468,0.785156 v 0.246094 z m 1.713867,0.105469 c 0.28125,0 0.503906,-0.199219 0.503906,-0.515625 0,-0.292969 -0.222656,-0.515625 -0.503906,-0.515625 -0.292969,0 -0.503906,0.222656 -0.503906,0.515625 0,0.316406 0.210937,0.515625 0.503906,0.515625 z m 3.254883,-5.824219 c -1.347656,0 -1.839844,1.605469 -1.839844,2.917969 0,1.417969 0.480469,2.90625 1.839844,2.90625 1.359375,0 1.828125,-1.59375 1.828125,-2.917969 0,-1.382812 -0.46875,-2.90625 -1.828125,-2.90625 z m 0,0.304688 c 0.808594,0 1.03125,1.324218 1.03125,2.601562 0,1.265625 -0.222656,2.613281 -1.03125,2.613281 -0.773438,0 -1.042969,-1.359375 -1.042969,-2.613281 0,-1.253906 0.222656,-2.601562 1.042969,-2.601562 z m -6.621094,32.695312 c -1.347656,0 -1.839844,1.605469 -1.839844,2.917969 0,1.417969 0.480469,2.90625 1.839844,2.90625 1.359375,0 1.828125,-1.59375 1.828125,-2.917969 0,-1.382812 -0.46875,-2.90625 -1.828125,-2.90625 z m 0,0.304688 c 0.808594,0 1.03125,1.324218 1.03125,2.601562 0,1.265625 -0.222656,2.613281 -1.03125,2.613281 -0.773437,0 -1.042969,-1.359375 -1.042969,-2.613281 0,-1.253906 0.222657,-2.601562 1.042969,-2.601562 z m 3.246094,5.519531 c 0.28125,0 0.503906,-0.199219 0.503906,-0.515625 0,-0.292969 -0.222656,-0.515625 -0.503906,-0.515625 -0.292969,0 -0.503906,0.222656 -0.503906,0.515625 0,0.316406 0.210937,0.515625 0.503906,0.515625 z m 2.589844,-5.050781 h 2.097656 l 0.234375,-0.585938 -0.05859,-0.07031 h -2.566406 l -0.351563,2.742187 c 0.210938,-0.08203 0.550782,-0.1875 0.925782,-0.1875 0.984375,0 1.464843,0.574219 1.464843,1.359375 0,0.679688 -0.375,1.335938 -1.136718,1.335938 -0.550782,0 -0.914063,-0.292969 -1.113282,-0.457032 -0.08203,-0.07031 -0.152343,-0.05859 -0.234375,0 -0.105468,0.09375 -0.1875,0.210938 -0.1875,0.292969 -0.02344,0.105469 0.02344,0.1875 0.140625,0.304688 0.128907,0.128906 0.515625,0.316406 0.925782,0.316406 0.480468,-0.01172 1.078125,-0.246094 1.570312,-0.632813 0.550781,-0.457031 0.796875,-0.960937 0.796875,-1.511718 0,-0.738282 -0.585937,-1.511719 -1.734375,-1.511719 -0.246094,0 -0.667969,0.140625 -1.007812,0.269531 z m 145.48535,-28.054688 v -0.246094 c -0.82031,-0.05859 -0.8789,-0.128906 -0.8789,-0.785156 v -4.6875 c -0.49219,0.199219 -1.01954,0.375 -1.59375,0.46875 v 0.210938 l 0.43359,0.01172 c 0.38672,0.02344 0.42187,0.07031 0.42187,0.539063 v 3.457031 c 0,0.65625 -0.0351,0.726563 -0.85546,0.785156 v 0.246094 z m 1.71387,0.105469 c 0.28125,0 0.5039,-0.199219 0.5039,-0.515625 0,-0.292969 -0.22265,-0.515625 -0.5039,-0.515625 -0.29297,0 -0.50391,0.222656 -0.50391,0.515625 0,0.316406 0.21094,0.515625 0.50391,0.515625 z m 3.25195,-5.824219 c -1.34765,0 -1.83984,1.605469 -1.83984,2.917969 0,1.417969 0.48047,2.90625 1.83984,2.90625 1.35938,0 1.82813,-1.59375 1.82813,-2.917969 0,-1.382812 -0.46875,-2.90625 -1.82813,-2.90625 z m 0,0.304688 c 0.8086,0 1.03125,1.324218 1.03125,2.601562 0,1.265625 -0.22265,2.613281 -1.03125,2.613281 -0.77344,0 -1.04297,-1.359375 -1.04297,-2.613281 0,-1.253906 0.22266,-2.601562 1.04297,-2.601562 z m -6.62109,32.695312 c -1.34766,0 -1.83985,1.605469 -1.83985,2.917969 0,1.417969 0.48047,2.90625 1.83985,2.90625 1.35937,0 1.82812,-1.59375 1.82812,-2.917969 0,-1.382812 -0.46875,-2.90625 -1.82812,-2.90625 z m 0,0.304688 c 0.80859,0 1.03125,1.324218 1.03125,2.601562 0,1.265625 -0.22266,2.613281 -1.03125,2.613281 -0.77344,0 -1.04297,-1.359375 -1.04297,-2.613281 0,-1.253906 0.22266,-2.601562 1.04297,-2.601562 z m 3.24609,5.519531 c 0.28125,0 0.50391,-0.199219 0.50391,-0.515625 0,-0.292969 -0.22266,-0.515625 -0.50391,-0.515625 -0.29297,0 -0.5039,0.222656 -0.5039,0.515625 0,0.316406 0.21093,0.515625 0.5039,0.515625 z m 2.58985,-5.050781 h 2.09765 l 0.23438,-0.585938 -0.0586,-0.07031 h -2.5664 l -0.35157,2.742187 c 0.21094,-0.08203 0.55079,-0.1875 0.92579,-0.1875 0.98437,0 1.46484,0.574219 1.46484,1.359375 0,0.679688 -0.375,1.335938 -1.13672,1.335938 -0.55078,0 -0.91406,-0.292969 -1.11328,-0.457032 -0.082,-0.07031 -0.15234,-0.05859 -0.23438,0 -0.10546,0.09375 -0.1875,0.210938 -0.1875,0.292969 -0.0234,0.105469 0.0234,0.1875 0.14063,0.304688 0.12891,0.128906 0.51562,0.316406 0.92578,0.316406 0.48047,-0.01172 1.07813,-0.246094 1.57031,-0.632813 0.55078,-0.457031 0.79688,-0.960937 0.79688,-1.511718 0,-0.738282 -0.58594,-1.511719 -1.73438,-1.511719 -0.24609,0 -0.66797,0.140625 -1.00781,0.269531 z m -141.9961,41.293945 c -1.34765,0 -1.83984,1.605469 -1.83984,2.917969 0,1.417968 0.48047,2.90625 1.83984,2.90625 1.35938,0 1.82813,-1.59375 1.82813,-2.917969 0,-1.382813 -0.46875,-2.90625 -1.82813,-2.90625 z m 0,0.304687 c 0.8086,0 1.03125,1.324219 1.03125,2.601563 0,1.265625 -0.22265,2.613281 -1.03125,2.613281 -0.77344,0 -1.04297,-1.359375 -1.04297,-2.613281 0,-1.253906 0.22266,-2.601563 1.04297,-2.601563 z m 14.31153,5.414063 v -0.246094 c -0.82032,-0.05859 -0.87891,-0.128906 -0.87891,-0.785156 v -4.6875 c -0.49219,0.199219 -1.01953,0.375 -1.59375,0.46875 v 0.210937 l 0.43359,0.01172 c 0.38672,0.02344 0.42188,0.07031 0.42188,0.539063 v 3.457031 c 0,0.65625 -0.0352,0.726562 -0.85547,0.785156 v 0.246094 z m 13.2539,-1.265625 c -0.26953,0.574219 -0.38672,0.609375 -0.86719,0.609375 h -1.6875 l 1.27735,-1.335938 c 0.83203,-0.890625 1.19531,-1.417968 1.19531,-2.203125 0,-0.949218 -0.72656,-1.523437 -1.51172,-1.523437 -0.52734,0 -0.94922,0.234375 -1.21875,0.539062 l -0.51562,0.726563 0.19922,0.175781 c 0.23437,-0.351562 0.60937,-0.832031 1.23046,-0.832031 0.65625,0 1.05469,0.433594 1.05469,1.195312 0,0.773438 -0.5625,1.511719 -1.125,2.179688 -0.44531,0.515625 -0.94922,1.03125 -1.45312,1.523437 v 0.210938 h 3.36328 c 0.10547,-0.410156 0.19922,-0.796875 0.3164,-1.183594 z m 10.06934,-3.199219 c 0.22265,-0.328125 0.58593,-0.714844 1.07812,-0.714844 0.48047,0 0.85547,0.292969 0.85547,0.855469 0,0.65625 -0.60937,1.007813 -1.42969,1.277344 l 0.0586,0.257812 c 0.14062,-0.04687 0.36328,-0.105468 0.57422,-0.105468 0.51562,0 1.14843,0.339843 1.14843,1.171875 0,0.890625 -0.45703,1.359375 -1.08984,1.359375 -0.51563,0 -0.89063,-0.246094 -1.125,-0.457032 -0.0703,-0.05859 -0.14063,-0.04687 -0.21094,0 -0.082,0.05859 -0.19922,0.175782 -0.21094,0.292969 -0.0117,0.117188 0.0234,0.210938 0.15235,0.328125 0.11719,0.105469 0.48047,0.304688 0.89062,0.304688 0.65625,0 2.36719,-0.667969 2.36719,-2.121094 0,-0.65625 -0.46875,-1.21875 -1.25391,-1.371094 v -0.01172 c 0.25782,-0.1875 0.48047,-0.339843 0.60938,-0.492187 0.17578,-0.164063 0.28125,-0.375 0.28125,-0.632813 0,-0.691406 -0.52734,-1.195312 -1.34766,-1.195312 -0.46875,0 -0.89062,0.234375 -1.13672,0.503906 l -0.39843,0.574219 z m 16.34765,2.859375 v -0.421875 h -0.86718 v -3.65625 h -0.35157 c -0.92578,1.21875 -1.85156,2.554688 -2.70703,3.832031 v 0.246094 h 2.34375 v 0.65625 c 0,0.585938 -0.0352,0.644531 -0.82031,0.703125 v 0.246094 h 2.30859 v -0.246094 c -0.72656,-0.05859 -0.77343,-0.105469 -0.77343,-0.703125 v -0.65625 z m -1.58203,-0.421875 h -1.76953 c 0.58594,-0.996094 1.17188,-1.851562 1.75781,-2.648437 h 0.0117 z m 11.86231,-2.917969 h 2.09765 l 0.23438,-0.585937 -0.0586,-0.07031 h -2.5664 l -0.35156,2.742188 c 0.21093,-0.08203 0.55078,-0.1875 0.92578,-0.1875 0.98437,0 1.46484,0.574219 1.46484,1.359375 0,0.679687 -0.375,1.335937 -1.13672,1.335937 -0.55078,0 -0.91406,-0.292968 -1.11328,-0.457031 -0.082,-0.07031 -0.15234,-0.05859 -0.23437,0 -0.10547,0.09375 -0.1875,0.210938 -0.1875,0.292969 -0.0234,0.105469 0.0234,0.1875 0.14062,0.304687 0.12891,0.128907 0.51563,0.316407 0.92578,0.316407 0.48047,-0.01172 1.07813,-0.246094 1.57031,-0.632813 0.55079,-0.457031 0.79688,-0.960937 0.79688,-1.511719 0,-0.738281 -0.58594,-1.511718 -1.73438,-1.511718 -0.24609,0 -0.66796,0.140625 -1.00781,0.269531 z m 12.86718,1.863282 c 0.26954,-1.253907 1.11329,-1.828125 1.66407,-2.085938 0.32812,-0.152344 0.67968,-0.257812 0.97265,-0.316406 l -0.0586,-0.28125 c -0.36328,0.05859 -0.79688,0.164062 -1.14844,0.28125 -0.96094,0.351562 -2.33203,1.371094 -2.33203,3.339844 0,1.382812 0.79688,2.25 1.85156,2.25 1.07813,0 1.83985,-0.902344 1.83985,-1.980469 0,-0.925781 -0.65625,-1.664063 -1.61719,-1.664063 -0.17578,0 -0.36328,0.07031 -0.5625,0.152344 z m 0.82032,0.04687 c 0.82031,0 1.19531,0.738281 1.19531,1.488281 0,0.597656 -0.21094,1.347656 -0.91406,1.347656 -0.73828,0 -1.19532,-0.878906 -1.19532,-1.957031 0,-0.234375 0.0117,-0.457031 0.0469,-0.621094 0.22266,-0.117187 0.52734,-0.257812 0.86719,-0.257812 z m 14.97949,-2.566407 h -3.43359 c -0.0352,0.386719 -0.082,0.832032 -0.16407,1.324219 h 0.25782 c 0.22265,-0.585937 0.26953,-0.667969 0.86718,-0.667969 h 1.94532 c -0.71485,1.558594 -1.72266,3.421875 -2.67188,4.957032 l 0.0586,0.09375 0.66797,-0.08203 c 0.86719,-1.863281 1.69922,-3.691406 2.54297,-5.519531 z m 11.21484,-0.117187 c -0.96093,0 -1.59375,0.726562 -1.59375,1.476562 0,0.632813 0.38672,1.066407 0.97266,1.394532 -0.30469,0.199218 -0.65625,0.445312 -0.79688,0.574218 -0.19921,0.199219 -0.39843,0.445313 -0.39843,0.855469 0,0.972656 0.76172,1.523438 1.72265,1.523438 0.76172,0 1.78125,-0.574219 1.78125,-1.628907 0,-0.785156 -0.5625,-1.207031 -1.18359,-1.558593 0.39844,-0.28125 0.64453,-0.503907 0.70312,-0.585938 0.17579,-0.1875 0.26954,-0.457031 0.26954,-0.714844 0,-0.726562 -0.6211,-1.335937 -1.47657,-1.335937 z m -0.082,0.292969 c 0.41016,0 0.87891,0.328125 0.87891,1.089843 0,0.539063 -0.2461,0.867188 -0.55078,1.113282 -0.63282,-0.316407 -1.17188,-0.609375 -1.17188,-1.277344 0,-0.457031 0.30469,-0.925781 0.84375,-0.925781 z m 0.082,5.25 c -0.57422,0 -1.10156,-0.46875 -1.10156,-1.289063 0,-0.492187 0.30469,-0.949219 0.73828,-1.230469 0.69141,0.351563 1.33594,0.738282 1.33594,1.40625 0,0.691407 -0.42188,1.113282 -0.97266,1.113282 z m 45.00879,-5.542969 c -1.34765,0 -1.83984,1.605469 -1.83984,2.917969 0,1.417968 0.48047,2.90625 1.83984,2.90625 1.35938,0 1.82813,-1.59375 1.82813,-2.917969 0,-1.382813 -0.46875,-2.90625 -1.82813,-2.90625 z m 0,0.304687 c 0.8086,0 1.03125,1.324219 1.03125,2.601563 0,1.265625 -0.22265,2.613281 -1.03125,2.613281 -0.77344,0 -1.04297,-1.359375 -1.04297,-2.613281 0,-1.253906 0.22266,-2.601563 1.04297,-2.601563 z m 14.31153,5.414063 v -0.246094 c -0.82032,-0.05859 -0.87891,-0.128906 -0.87891,-0.785156 v -4.6875 c -0.49219,0.199219 -1.01953,0.375 -1.59375,0.46875 v 0.210937 l 0.43359,0.01172 c 0.38672,0.02344 0.42188,0.07031 0.42188,0.539063 v 3.457031 c 0,0.65625 -0.0352,0.726562 -0.85547,0.785156 v 0.246094 z m 13.2539,-1.265625 c -0.26953,0.574219 -0.38672,0.609375 -0.86719,0.609375 h -1.6875 l 1.27735,-1.335938 c 0.83203,-0.890625 1.19531,-1.417968 1.19531,-2.203125 0,-0.949218 -0.72656,-1.523437 -1.51172,-1.523437 -0.52734,0 -0.94922,0.234375 -1.21875,0.539062 l -0.51562,0.726563 0.19922,0.175781 c 0.23437,-0.351562 0.60937,-0.832031 1.23046,-0.832031 0.65625,0 1.05469,0.433594 1.05469,1.195312 0,0.773438 -0.5625,1.511719 -1.125,2.179688 -0.44531,0.515625 -0.94922,1.03125 -1.45312,1.523437 v 0.210938 h 3.36328 c 0.10547,-0.410156 0.19922,-0.796875 0.3164,-1.183594 z m 10.06934,-3.199219 c 0.22265,-0.328125 0.58593,-0.714844 1.07812,-0.714844 0.48047,0 0.85547,0.292969 0.85547,0.855469 0,0.65625 -0.60937,1.007813 -1.42969,1.277344 l 0.0586,0.257812 c 0.14062,-0.04687 0.36328,-0.105468 0.57422,-0.105468 0.51562,0 1.14843,0.339843 1.14843,1.171875 0,0.890625 -0.45703,1.359375 -1.08984,1.359375 -0.51563,0 -0.89063,-0.246094 -1.125,-0.457032 -0.0703,-0.05859 -0.14063,-0.04687 -0.21094,0 -0.082,0.05859 -0.19922,0.175782 -0.21094,0.292969 -0.0117,0.117188 0.0234,0.210938 0.15235,0.328125 0.11719,0.105469 0.48047,0.304688 0.89062,0.304688 0.65625,0 2.36719,-0.667969 2.36719,-2.121094 0,-0.65625 -0.46875,-1.21875 -1.25391,-1.371094 v -0.01172 c 0.25782,-0.1875 0.48047,-0.339843 0.60938,-0.492187 0.17578,-0.164063 0.28125,-0.375 0.28125,-0.632813 0,-0.691406 -0.52734,-1.195312 -1.34766,-1.195312 -0.46875,0 -0.89062,0.234375 -1.13672,0.503906 l -0.39843,0.574219 z m 16.34765,2.859375 v -0.421875 h -0.86718 v -3.65625 h -0.35157 c -0.92578,1.21875 -1.85156,2.554688 -2.70703,3.832031 v 0.246094 h 2.34375 v 0.65625 c 0,0.585938 -0.0351,0.644531 -0.82031,0.703125 v 0.246094 h 2.30859 v -0.246094 c -0.72656,-0.05859 -0.77343,-0.105469 -0.77343,-0.703125 v -0.65625 z m -1.58203,-0.421875 h -1.76953 c 0.58594,-0.996094 1.17188,-1.851562 1.75781,-2.648437 h 0.0117 z m 11.86231,-2.917969 h 2.09765 l 0.23438,-0.585937 -0.0586,-0.07031 h -2.5664 l -0.35156,2.742188 c 0.21093,-0.08203 0.55078,-0.1875 0.92578,-0.1875 0.98437,0 1.46484,0.574219 1.46484,1.359375 0,0.679687 -0.375,1.335937 -1.13672,1.335937 -0.55078,0 -0.91406,-0.292968 -1.11328,-0.457031 -0.082,-0.07031 -0.15234,-0.05859 -0.23437,0 -0.10547,0.09375 -0.1875,0.210938 -0.1875,0.292969 -0.0234,0.105469 0.0234,0.1875 0.14062,0.304687 0.12891,0.128907 0.51563,0.316407 0.92578,0.316407 0.48047,-0.01172 1.07813,-0.246094 1.57031,-0.632813 0.55079,-0.457031 0.79688,-0.960937 0.79688,-1.511719 0,-0.738281 -0.58594,-1.511718 -1.73438,-1.511718 -0.24609,0 -0.66796,0.140625 -1.00781,0.269531 z m 12.86718,1.863282 c 0.26954,-1.253907 1.11329,-1.828125 1.66407,-2.085938 0.32812,-0.152344 0.67968,-0.257812 0.97265,-0.316406 l -0.0586,-0.28125 c -0.36328,0.05859 -0.79688,0.164062 -1.14844,0.28125 -0.96094,0.351562 -2.33203,1.371094 -2.33203,3.339844 0,1.382812 0.79688,2.25 1.85156,2.25 1.07813,0 1.83985,-0.902344 1.83985,-1.980469 0,-0.925781 -0.65625,-1.664063 -1.61719,-1.664063 -0.17578,0 -0.36328,0.07031 -0.5625,0.152344 z m 0.82032,0.04687 c 0.82031,0 1.19531,0.738281 1.19531,1.488281 0,0.597656 -0.21094,1.347656 -0.91406,1.347656 -0.73828,0 -1.19532,-0.878906 -1.19532,-1.957031 0,-0.234375 0.0117,-0.457031 0.0469,-0.621094 0.22266,-0.117187 0.52734,-0.257812 0.86719,-0.257812 z m 14.97949,-2.566407 h -3.43359 c -0.0352,0.386719 -0.082,0.832032 -0.16407,1.324219 h 0.25782 c 0.22265,-0.585937 0.26953,-0.667969 0.86718,-0.667969 h 1.94532 c -0.71485,1.558594 -1.72266,3.421875 -2.67188,4.957032 l 0.0586,0.09375 0.66797,-0.08203 c 0.86719,-1.863281 1.69922,-3.691406 2.54297,-5.519531 z m 11.21484,-0.117187 c -0.96093,0 -1.59375,0.726562 -1.59375,1.476562 0,0.632813 0.38672,1.066407 0.97266,1.394532 -0.30469,0.199218 -0.65625,0.445312 -0.79688,0.574218 -0.19921,0.199219 -0.39843,0.445313 -0.39843,0.855469 0,0.972656 0.76172,1.523438 1.72265,1.523438 0.76172,0 1.78125,-0.574219 1.78125,-1.628907 0,-0.785156 -0.5625,-1.207031 -1.18359,-1.558593 0.39844,-0.28125 0.64453,-0.503907 0.70312,-0.585938 0.17579,-0.1875 0.26954,-0.457031 0.26954,-0.714844 0,-0.726562 -0.6211,-1.335937 -1.47657,-1.335937 z m -0.082,0.292969 c 0.41016,0 0.87891,0.328125 0.87891,1.089843 0,0.539063 -0.2461,0.867188 -0.55078,1.113282 -0.63282,-0.316407 -1.17188,-0.609375 -1.17188,-1.277344 0,-0.457031 0.30469,-0.925781 0.84375,-0.925781 z m 0.082,5.25 c -0.57422,0 -1.10156,-0.46875 -1.10156,-1.289063 0,-0.492187 0.30469,-0.949219 0.73828,-1.230469 0.69141,0.351563 1.33594,0.738282 1.33594,1.40625 0,0.691407 -0.42188,1.113282 -0.97266,1.113282 z M 146.69901,1.3246831 c -0.89063,-0.76171872 -1.40625,-2.20312497 -1.40625,-3.75 0,-1.546875 0.51562,-3 1.40625,-3.75 l -0.15235,-0.2109375 c -1.32421,0.9023438 -1.91015,2.3320313 -1.91015,3.9492188 0,1.62890623 0.58594,3.08203123 1.91015,3.9609375 z m 2.00976,-4.9570312 v -2.7773438 c -0.33984,0.1171875 -0.89062,0.2578125 -1.3125,0.3164063 v 0.2109375 c 0.58594,0.046875 0.59766,0.1054687 0.59766,0.6679687 v 5.00390628 c 0.49219,0.234375 0.94922,0.31640625 1.32422,0.31640625 1.20703,0 2.26172,-0.9375 2.26172,-2.26171873 0,-1.0546875 -0.8086,-1.8867188 -1.78125,-1.8867188 -0.0937,0 -0.22266,0.023437 -0.36328,0.09375 z m 0,0.2695312 c 0.16407,-0.1054687 0.44532,-0.1757812 0.70313,-0.1757812 0.73828,0 1.37109,0.5976562 1.37109,1.6171875 0,1.05468748 -0.48047,1.68749998 -1.21875,1.68749998 -0.48047,-0.0117188 -0.75,-0.328125 -0.80859,-0.50390625 -0.0352,-0.0820313 -0.0469,-0.17578125 -0.0469,-0.30468753 z m 3.167,-2.8125 c 0.89062,0.7382813 1.41796,2.203125 1.41796,3.75 0,1.54687503 -0.5039,2.98828128 -1.41796,3.75 l 0.16406,0.1992188 c 1.34765,-0.91406252 1.89844,-2.33203127 1.89844,-3.9492188 0,-1.6289062 -0.55079,-3.0585937 -1.89844,-3.9609375 z m 145.96582,7.5 c -0.89063,-0.76171872 -1.40625,-2.20312497 -1.40625,-3.75 0,-1.546875 0.51562,-3 1.40625,-3.75 l -0.15235,-0.2109375 c -1.32422,0.9023438 -1.91015,2.3320313 -1.91015,3.9492188 0,1.62890623 0.58593,3.08203123 1.91015,3.9609375 z m 3.47461,-2.32031247 c -0.41016,0.38671875 -0.70313,0.4921875 -1.08985,0.4921875 -0.5039,0 -1.35937,-0.41015625 -1.35937,-1.66406253 0,-0.9492187 0.51562,-1.4414062 1.11328,-1.4414062 0.3164,0 0.63281,0.1171875 0.90234,0.375 0.082,0.070312 0.11719,0.09375 0.16406,0.09375 0.10547,0 0.30469,-0.1992188 0.30469,-0.3867188 0,-0.1054687 -0.0352,-0.1757812 -0.15234,-0.28125 -0.14063,-0.1171875 -0.4336,-0.234375 -0.79688,-0.234375 -0.35156,0 -0.89062,0.140625 -1.35937,0.5039063 -0.59766,0.46875 -0.90235,1.078125 -0.90235,1.7695312 0,0.96093753 0.66797,1.87500003 1.80469,1.87500003 0.52735,0 1.13672,-0.3984375 1.52344,-0.9140625 z m 0.33398,-5.17968753 c 0.89062,0.7382813 1.41797,2.203125 1.41797,3.75 0,1.54687503 -0.50391,2.98828128 -1.41797,3.75 l 0.16406,0.1992188 c 1.34766,-0.91406252 1.89844,-2.33203127 1.89844,-3.9492188 0,-1.6289062 -0.55078,-3.0585937 -1.89844,-3.9609375 z m 0,0"
         style="fill:#231f20;fill-opacity:1;fill-rule:nonzero;stroke:none"
         aria-label="(a)&#10;012345678&#10;1.0&#10;0.5&#10;1.0&#10;0.5&#10;1.0&#10;0.5&#10;012345678012345678&#10;(b)(c)"
         transform="matrix(1.3333333,0,0,1.3333333,79.928667,131.31969)" />
      <path
         id="path3"
         d="m 1631.74,925.328 1.27,0.649 3.11,1.359 1.86,0.723 1.89,0.617 1.75,0.449 1.49,0.148 1.33,-0.148 1.72,-0.449 1.95,-0.617 1.97,-0.723 3.39,-1.359 1.46,-0.649 -11.82,42.735 -11.37,-42.735"
         style="fill:#3871c1;fill-opacity:1;fill-rule:nonzero;stroke:none"
         transform="matrix(0.13333333,0,0,-0.13333333,0,135.64)" />
      <path
         id="path4"
         d="m 1761.84,925.328 1.3,0.649 3.09,1.359 1.89,0.723 1.88,0.617 1.72,0.449 1.49,0.148 1.33,-0.148 1.72,-0.449 1.97,-0.617 1.99,-0.723 3.38,-1.359 1.43,-0.649 -11.82,42.735 -11.37,-42.735"
         style="fill:#3871c1;fill-opacity:1;fill-rule:nonzero;stroke:none"
         transform="matrix(0.13333333,0,0,-0.13333333,0,135.64)" />
      <path
         id="path5"
         d="m 1891.97,925.328 1.3,0.649 3.09,1.359 1.86,0.723 1.89,0.617 1.76,0.449 1.47,0.148 1.33,-0.148 1.73,-0.449 1.96,-0.617 1.98,-0.723 3.39,-1.359 1.43,-0.649 -11.82,42.735 -11.37,-42.735"
         style="fill:#3871c1;fill-opacity:1;fill-rule:nonzero;stroke:none"
         transform="matrix(0.13333333,0,0,-0.13333333,0,135.64)" />
      <path
         id="path6"
         d="m 2022.1,925.328 1.27,0.649 3.13,1.359 1.85,0.723 1.88,0.617 1.75,0.449 1.49,0.148 1.33,-0.148 1.73,-0.449 1.93,-0.617 1.98,-0.723 3.39,-1.359 1.45,-0.649 -11.81,42.735 -11.37,-42.735"
         style="fill:#3871c1;fill-opacity:1;fill-rule:nonzero;stroke:none"
         transform="matrix(0.13333333,0,0,-0.13333333,0,135.64)" />
      <path
         id="path7"
         d="m 2152.21,925.328 1.31,0.649 3.1,1.359 1.86,0.723 1.88,0.617 1.76,0.449 1.45,0.148 1.35,-0.148 1.72,-0.449 1.95,-0.617 1.99,-0.723 3.38,-1.359 1.43,-0.649 -11.82,42.735 -11.36,-42.735"
         style="fill:#3871c1;fill-opacity:1;fill-rule:nonzero;stroke:none"
         transform="matrix(0.13333333,0,0,-0.13333333,0,135.64)" />
      <path
         id="path8"
         d="m 2282.33,925.328 1.3,0.649 3.1,1.359 1.87,0.723 1.89,0.617 1.73,0.449 1.48,0.148 1.33,-0.148 1.73,-0.449 1.96,-0.617 1.97,-0.723 3.4,-1.359 1.43,-0.649 -11.82,42.735 -11.37,-42.735"
         style="fill:#3871c1;fill-opacity:1;fill-rule:nonzero;stroke:none"
         transform="matrix(0.13333333,0,0,-0.13333333,0,135.64)" />
      <path
         id="path9"
         d="m 2412.45,925.328 1.29,0.649 3.13,1.359 1.84,0.723 1.89,0.617 1.75,0.449 1.48,0.148 1.33,-0.148 1.73,-0.449 1.94,-0.617 1.98,-0.723 3.38,-1.359 1.46,-0.649 -11.82,42.735 -11.38,-42.735"
         style="fill:#3871c1;fill-opacity:1;fill-rule:nonzero;stroke:none"
         transform="matrix(0.13333333,0,0,-0.13333333,0,135.64)" />
      <path
         id="path10"
         d="m 2542.6,925.328 1.27,0.649 3.1,1.359 1.87,0.723 1.88,0.617 1.76,0.449 1.48,0.148 1.33,-0.148 1.73,-0.449 1.93,-0.617 1.99,-0.723 3.39,-1.359 1.45,-0.649 -11.82,42.735 -11.36,-42.735"
         style="fill:#3871c1;fill-opacity:1;fill-rule:nonzero;stroke:none"
         transform="matrix(0.13333333,0,0,-0.13333333,0,135.64)" />
      <path
         id="path11"
         d="m 2672.7,925.328 1.29,0.649 3.09,1.359 1.88,0.723 1.9,0.617 1.72,0.449 1.49,0.148 1.33,-0.148 1.73,-0.449 1.95,-0.617 1.98,-0.723 3.39,-1.359 1.43,-0.649 -11.81,42.735 -11.37,-42.735"
         style="fill:#3871c1;fill-opacity:1;fill-rule:nonzero;stroke:none"
         transform="matrix(0.13333333,0,0,-0.13333333,0,135.64)" />
      <path
         id="path12"
         d="m 3123.41,524.406 1.28,0.617 3.1,1.387 1.87,0.723 1.88,0.621 1.76,0.449 1.48,0.141 1.33,-0.141 1.72,-0.449 1.94,-0.621 1.99,-0.723 3.38,-1.387 1.46,-0.617 -11.82,42.727 -11.37,-42.727"
         style="fill:#3871c1;fill-opacity:1;fill-rule:nonzero;stroke:none"
         transform="matrix(0.13333333,0,0,-0.13333333,0,135.64)" />
      <path
         id="path13"
         d="m 3253.52,864.277 1.29,0.618 3.09,1.371 1.89,0.718 1.89,0.649 1.72,0.418 1.47,0.144 1.35,-0.144 1.71,-0.418 1.97,-0.649 1.98,-0.718 3.39,-1.371 1.43,-0.618 -11.83,42.7 -11.35,-42.7"
         style="fill:#3871c1;fill-opacity:1;fill-rule:nonzero;stroke:none"
         transform="matrix(0.13333333,0,0,-0.13333333,0,135.64)" />
      <path
         id="path14"
         d="m 3383.64,795.492 1.3,0.613 3.09,1.395 1.85,0.719 1.89,0.621 1.76,0.449 1.48,0.149 1.33,-0.149 1.74,-0.449 1.95,-0.621 1.97,-0.719 3.4,-1.395 1.43,-0.613 -11.82,42.707 -11.37,-42.707"
         style="fill:#3871c1;fill-opacity:1;fill-rule:nonzero;stroke:none"
         transform="matrix(0.13333333,0,0,-0.13333333,0,135.64)" />
      <path
         id="path15"
         d="m 3513.76,475.395 1.29,0.621 3.12,1.363 1.86,0.746 1.86,0.621 1.76,0.438 1.49,0.152 1.32,-0.152 1.73,-0.438 1.94,-0.621 1.98,-0.746 3.4,-1.363 1.44,-0.621 -11.81,42.71 -11.38,-42.71"
         style="fill:#3871c1;fill-opacity:1;fill-rule:nonzero;stroke:none"
         transform="matrix(0.13333333,0,0,-0.13333333,0,135.64)" />
      <path
         id="path16"
         d="m 3643.87,608.254 1.32,0.644 3.1,1.368 1.86,0.726 1.88,0.645 1.76,0.41 1.44,0.152 1.36,-0.152 1.72,-0.41 1.95,-0.645 1.99,-0.726 3.38,-1.368 1.43,-0.644 -11.83,42.726 -11.36,-42.726"
         style="fill:#3871c1;fill-opacity:1;fill-rule:nonzero;stroke:none"
         transform="matrix(0.13333333,0,0,-0.13333333,0,135.64)" />
      <path
         id="path17"
         d="m 3774,661.336 1.3,0.617 3.1,1.367 1.87,0.723 1.89,0.648 1.73,0.422 1.48,0.16 1.33,-0.16 1.73,-0.422 1.96,-0.648 1.97,-0.723 3.4,-1.367 1.43,-0.617 -11.82,42.703 -11.37,-42.703"
         style="fill:#3871c1;fill-opacity:1;fill-rule:nonzero;stroke:none"
         transform="matrix(0.13333333,0,0,-0.13333333,0,135.64)" />
      <path
         id="path18"
         d="m 3904.12,699.902 1.29,0.61 3.13,1.398 1.84,0.719 1.89,0.625 1.75,0.441 1.48,0.149 1.33,-0.149 1.73,-0.441 1.94,-0.625 1.98,-0.719 3.38,-1.398 1.46,-0.61 -11.82,42.7 -11.38,-42.7"
         style="fill:#3871c1;fill-opacity:1;fill-rule:nonzero;stroke:none"
         transform="matrix(0.13333333,0,0,-0.13333333,0,135.64)" />
      <path
         id="path19"
         d="m 4034.27,417.355 1.27,0.614 3.1,1.39 1.87,0.727 1.88,0.609 1.76,0.45 1.48,0.156 1.33,-0.156 1.73,-0.45 1.93,-0.609 1.99,-0.727 3.39,-1.39 1.45,-0.614 -11.82,42.704 -11.36,-42.704"
         style="fill:#3871c1;fill-opacity:1;fill-rule:nonzero;stroke:none"
         transform="matrix(0.13333333,0,0,-0.13333333,0,135.64)" />
      <path
         id="path20"
         d="m 4164.37,614.137 1.29,0.621 3.09,1.367 1.88,0.734 1.9,0.625 1.72,0.446 1.49,0.156 1.33,-0.156 1.73,-0.446 1.95,-0.625 1.98,-0.734 3.39,-1.367 1.43,-0.621 -11.81,42.703 -11.37,-42.703"
         style="fill:#3871c1;fill-opacity:1;fill-rule:nonzero;stroke:none"
         transform="matrix(0.13333333,0,0,-0.13333333,0,135.64)" />
      <path
         id="path21"
         d="M 3264.87,313.07 V 885.625"
         style="fill:none;stroke:#3871c1;stroke-width:7.5;stroke-linecap:butt;stroke-linejoin:miter;stroke-miterlimit:3.25;stroke-dasharray:none;stroke-opacity:1"
         transform="matrix(0.13333333,0,0,-0.13333333,0,135.64)" />
      <path
         id="path22"
         d="M 3134.78,313.07 V 536.828"
         style="fill:none;stroke:#3871c1;stroke-width:7.5;stroke-linecap:butt;stroke-linejoin:miter;stroke-miterlimit:3.25;stroke-dasharray:none;stroke-opacity:1"
         transform="matrix(0.13333333,0,0,-0.13333333,0,135.64)" />
      <path
         id="path23"
         d="m 1643.11,313.07 v 630"
         style="fill:none;stroke:#3871c1;stroke-width:7.5;stroke-linecap:butt;stroke-linejoin:miter;stroke-miterlimit:3.25;stroke-dasharray:none;stroke-opacity:1"
         transform="matrix(0.13333333,0,0,-0.13333333,0,135.64)" />
      <path
         id="path24"
         d="M 3395.01,313.07 V 809.234"
         style="fill:none;stroke:#3871c1;stroke-width:7.5;stroke-linecap:butt;stroke-linejoin:miter;stroke-miterlimit:3.25;stroke-dasharray:none;stroke-opacity:1"
         transform="matrix(0.13333333,0,0,-0.13333333,0,135.64)" />
      <path
         id="path25"
         d="M 3525.14,313.07 V 488.645"
         style="fill:none;stroke:#3871c1;stroke-width:7.5;stroke-linecap:butt;stroke-linejoin:miter;stroke-miterlimit:3.25;stroke-dasharray:none;stroke-opacity:1"
         transform="matrix(0.13333333,0,0,-0.13333333,0,135.64)" />
      <path
         id="path26"
         d="M 3655.23,313.07 V 623.063"
         style="fill:none;stroke:#3871c1;stroke-width:7.5;stroke-linecap:butt;stroke-linejoin:miter;stroke-miterlimit:3.25;stroke-dasharray:none;stroke-opacity:1"
         transform="matrix(0.13333333,0,0,-0.13333333,0,135.64)" />
      <path
         id="path27"
         d="M 3785.37,313.07 V 674.152"
         style="fill:none;stroke:#3871c1;stroke-width:7.5;stroke-linecap:butt;stroke-linejoin:miter;stroke-miterlimit:3.25;stroke-dasharray:none;stroke-opacity:1"
         transform="matrix(0.13333333,0,0,-0.13333333,0,135.64)" />
      <path
         id="path28"
         d="M 3915.5,313.07 V 721.25"
         style="fill:none;stroke:#3871c1;stroke-width:7.5;stroke-linecap:butt;stroke-linejoin:miter;stroke-miterlimit:3.25;stroke-dasharray:none;stroke-opacity:1"
         transform="matrix(0.13333333,0,0,-0.13333333,0,135.64)" />
      <path
         id="path29"
         d="M 4045.63,313.07 V 419.359"
         style="fill:none;stroke:#3871c1;stroke-width:7.5;stroke-linecap:butt;stroke-linejoin:miter;stroke-miterlimit:3.25;stroke-dasharray:none;stroke-opacity:1"
         transform="matrix(0.13333333,0,0,-0.13333333,0,135.64)" />
      <path
         id="path30"
         d="M 4175.74,313.07 V 629.621"
         style="fill:none;stroke:#3871c1;stroke-width:7.5;stroke-linecap:butt;stroke-linejoin:miter;stroke-miterlimit:3.25;stroke-dasharray:none;stroke-opacity:1"
         transform="matrix(0.13333333,0,0,-0.13333333,0,135.64)" />
      <path
         id="path31"
         d="m 1773.2,308.063 v 630"
         style="fill:none;stroke:#3871c1;stroke-width:7.5;stroke-linecap:butt;stroke-linejoin:miter;stroke-miterlimit:3.25;stroke-dasharray:none;stroke-opacity:1"
         transform="matrix(0.13333333,0,0,-0.13333333,0,135.64)" />
      <path
         id="path32"
         d="m 1903.34,308.063 v 630"
         style="fill:none;stroke:#3871c1;stroke-width:7.5;stroke-linecap:butt;stroke-linejoin:miter;stroke-miterlimit:3.25;stroke-dasharray:none;stroke-opacity:1"
         transform="matrix(0.13333333,0,0,-0.13333333,0,135.64)" />
      <path
         id="path33"
         d="m 2033.47,308.063 v 630"
         style="fill:none;stroke:#3871c1;stroke-width:7.5;stroke-linecap:butt;stroke-linejoin:miter;stroke-miterlimit:3.25;stroke-dasharray:none;stroke-opacity:1"
         transform="matrix(0.13333333,0,0,-0.13333333,0,135.64)" />
      <path
         id="path34"
         d="m 2163.56,308.063 v 630"
         style="fill:none;stroke:#3871c1;stroke-width:7.5;stroke-linecap:butt;stroke-linejoin:miter;stroke-miterlimit:3.25;stroke-dasharray:none;stroke-opacity:1"
         transform="matrix(0.13333333,0,0,-0.13333333,0,135.64)" />
      <path
         id="path35"
         d="m 2293.7,308.063 v 630"
         style="fill:none;stroke:#3871c1;stroke-width:7.5;stroke-linecap:butt;stroke-linejoin:miter;stroke-miterlimit:3.25;stroke-dasharray:none;stroke-opacity:1"
         transform="matrix(0.13333333,0,0,-0.13333333,0,135.64)" />
      <path
         id="path36"
         d="m 2423.83,308.063 v 630"
         style="fill:none;stroke:#3871c1;stroke-width:7.5;stroke-linecap:butt;stroke-linejoin:miter;stroke-miterlimit:3.25;stroke-dasharray:none;stroke-opacity:1"
         transform="matrix(0.13333333,0,0,-0.13333333,0,135.64)" />
      <path
         id="path37"
         d="m 2553.96,308.063 v 630"
         style="fill:none;stroke:#3871c1;stroke-width:7.5;stroke-linecap:butt;stroke-linejoin:miter;stroke-miterlimit:3.25;stroke-dasharray:none;stroke-opacity:1"
         transform="matrix(0.13333333,0,0,-0.13333333,0,135.64)" />
      <path
         id="path38"
         d="m 2684.07,308.063 v 630"
         style="fill:none;stroke:#3871c1;stroke-width:7.5;stroke-linecap:butt;stroke-linejoin:miter;stroke-miterlimit:3.25;stroke-dasharray:none;stroke-opacity:1"
         transform="matrix(0.13333333,0,0,-0.13333333,0,135.64)" />
      <path
         id="path39"
         d="m 159.348,562.129 0.316,0.902 0.332,0.879 0.68,1.84 1.32,3.609 2.645,7.313 5.285,14.734 10.601,30.02 22.993,66.121 21.441,60.465 21.059,55.347 0.359,0.895 0.34,0.875 0.726,1.777 1.426,3.512 2.852,6.941 5.703,13.461 11.414,25.153 0.672,1.382 0.64,1.387 1.356,2.735 2.652,5.336 5.328,10.222 0.336,0.621 0.317,0.617 0.672,1.2 1.328,2.441 2.668,4.688 5.347,8.878 0.336,0.579 0.363,0.574 0.715,1.14 1.457,2.239 2.871,4.285 0.372,0.539 1.085,1.527 1.434,2.008 2.895,3.875 0.367,0.453 0.332,0.461 0.738,0.934 1.445,1.758 2.872,3.41 5.781,6.082 0.707,0.687 0.699,0.668 1.414,1.281 2.832,2.375 0.719,0.575 0.719,0.535 1.414,1.047 2.824,1.926 0.351,0.207 0.356,0.234 0.699,0.43 1.426,0.8 0.371,0.18 0.336,0.199 0.719,0.367 1.394,0.661 0.371,0.156 0.36,0.176 0.707,0.289 0.359,0.144 0.328,0.137 0.727,0.277 0.344,0.125 0.355,0.129 0.707,0.231 1.426,0.433 0.344,0.078 0.296,0.11 1.016,0.23 0.313,0.078 0.679,0.118 0.309,0.086 0.336,0.05 0.34,0.067 0.339,0.058 0.297,0.055 0.352,0.023 0.668,0.098 0.316,0.035 0.996,0.074 0.325,0.024 0.336,0.027 h 0.339 l 0.34,0.028 h 1.961 l 0.332,-0.028 h 0.321 l 1.011,-0.082 0.305,-0.019 0.336,-0.059 0.34,-0.023 0.34,-0.043 0.316,-0.032 0.66,-0.105 0.66,-0.098 0.336,-0.074 0.332,-0.062 0.645,-0.145 0.679,-0.16 0.637,-0.152 0.68,-0.2 0.66,-0.179 0.664,-0.211 0.649,-0.231 1.32,-0.48 0.375,-0.164 0.351,-0.121 0.707,-0.309 1.457,-0.672 0.329,-0.172 1.086,-0.543 1.425,-0.789 0.731,-0.414 0.695,-0.437 1.457,-0.926 2.852,-2.016 0.715,-0.566 0.699,-0.567 1.457,-1.152 2.855,-2.566 0.739,-0.664 2.14,-2.129 2.856,-3.047 0.336,-0.363 0.339,-0.391 0.668,-0.738 1.317,-1.559 2.715,-3.285 5.32,-7.207 0.344,-0.453 0.336,-0.489 0.66,-0.984 1.344,-1.961 2.664,-4.101 5.339,-8.825 0.68,-1.129 0.641,-1.16 1.34,-2.3 2.609,-4.77 5.234,-10.07 10.5,-22.102 0.34,-0.785 0.36,-0.813 0.695,-1.582 1.437,-3.23 2.84,-6.559 5.715,-13.582 11.352,-28.828 21.257,-57.855 23.004,-64.656 22.61,-60.118 0.336,-0.84 0.328,-0.828 0.648,-1.632 1.321,-3.262 2.628,-6.414 5.286,-12.418 0.32,-0.754 0.316,-0.766 0.66,-1.484 1.317,-3 2.652,-5.82 5.266,-11.157 0.355,-0.738 0.364,-0.719 0.699,-1.453 1.426,-2.844 2.859,-5.55 5.723,-10.391 0.363,-0.605 0.336,-0.61 0.726,-1.207 1.426,-2.383 2.852,-4.562 5.726,-8.387 0.348,-0.445 0.309,-0.453 0.675,-0.895 1.34,-1.726 2.653,-3.293 0.332,-0.395 0.335,-0.41 0.68,-0.77 1.32,-1.48 2.668,-2.797 0.68,-0.664 0.664,-0.641 1.336,-1.234 0.66,-0.617 0.68,-0.555 1.32,-1.144 0.332,-0.25 0.348,-0.282 0.641,-0.511 1.347,-0.969 2.672,-1.777 0.356,-0.223 0.379,-0.211 0.699,-0.41 1.445,-0.793 0.731,-0.363 0.714,-0.325 1.457,-0.613 0.371,-0.133 0.329,-0.16 1.097,-0.383 0.36,-0.094 0.718,-0.234 0.739,-0.219 0.715,-0.164 1.457,-0.308 0.335,-0.075 1.446,-0.21 0.371,-0.028 0.363,-0.058 1.094,-0.063 h 0.359 l 0.36,-0.031 h 1.433 l 0.719,0.051 h 0.359 l 0.368,0.023 0.371,0.059 0.355,0.019 1.817,0.258 1.089,0.23 0.7,0.161 0.367,0.078 0.359,0.097 0.699,0.2 0.715,0.214 0.711,0.215 0.363,0.133 0.332,0.129 0.731,0.293 1.406,0.586 0.348,0.148 0.379,0.184 0.699,0.332 1.414,0.746 0.34,0.203 0.359,0.211 0.699,0.414 1.434,0.856 0.731,0.465 0.695,0.488 1.426,1.031 2.832,2.227 0.355,0.316 0.344,0.293 0.719,0.625 1.394,1.277 2.852,2.774 0.34,0.332 0.32,0.324 0.664,0.727 1.328,1.398 2.641,3.043 5.3,6.637 0.336,0.437 0.332,0.449 0.645,0.911 1.316,1.812 2.653,3.789 5.308,8.102 0.375,0.562 0.332,0.559 0.727,1.183 1.426,2.329 2.883,4.855 5.722,10.09 11.488,21.719 21.438,43.046 0.34,0.672 0.316,0.657 0.66,1.316 1.309,2.609 2.641,5.235 5.246,10.308 0.328,0.61 0.34,0.64 0.648,1.254 1.316,2.516 2.61,4.953 5.273,9.609 0.344,0.633 0.348,0.649 0.715,1.257 1.418,2.508 2.851,4.867 5.707,9.29 0.367,0.554 0.352,0.539 0.719,1.102 1.414,2.187 2.851,4.176 5.703,7.77 0.336,0.437 0.344,0.406 0.648,0.844 1.313,1.641 2.66,3.152 0.344,0.391 0.348,0.359 0.648,0.738 1.348,1.465 2.64,2.742 1.317,1.301 1.355,1.246 2.652,2.325 0.661,0.566 0.675,0.535 1.321,1.027 2.648,1.895 0.36,0.258 1.097,0.699 1.446,0.891 0.371,0.207 0.336,0.199 0.718,0.418 1.453,0.746 0.719,0.355 0.707,0.329 1.453,0.644 0.739,0.313 0.714,0.257 1.438,0.504 0.355,0.129 0.364,0.106 0.726,0.226 0.348,0.098 0.367,0.09 0.711,0.195 2.172,0.461 0.699,0.133 1.453,0.207 0.364,0.027 0.355,0.047 0.383,0.023 0.355,0.059 0.36,0.02 0.34,0.023 h 0.359 l 0.719,0.055 h 2.152 l 0.344,-0.024 h 0.363 l 0.371,-0.031 0.317,-0.023 0.738,-0.055 0.344,-0.024 0.355,-0.023 0.371,-0.047 0.328,-0.027 0.36,-0.059 0.711,-0.097 0.363,-0.051 0.316,-0.051 0.742,-0.133 0.34,-0.043 0.36,-0.078 0.699,-0.16 0.738,-0.152 0.688,-0.172 1.402,-0.391 0.359,-0.078 0.371,-0.125 0.684,-0.207 1.441,-0.465 0.336,-0.121 0.364,-0.137 0.691,-0.254 1.441,-0.562 0.329,-0.156 0.355,-0.125 0.707,-0.309 1.426,-0.641 2.824,-1.386 0.34,-0.153 0.301,-0.179 0.687,-0.36 1.328,-0.718 2.629,-1.508 5.266,-3.332 0.68,-0.465 0.636,-0.434 1.336,-0.898 2.629,-1.871 5.27,-3.844 0.367,-0.262 0.351,-0.277 0.739,-0.539 4.265,-3.227 5.743,-4.304 0.363,-0.289 0.336,-0.254 0.718,-0.539 1.426,-1.055 2.887,-2.074 5.699,-3.95 0.68,-0.461 0.664,-0.433 1.359,-0.848 2.66,-1.64 0.325,-0.204 0.336,-0.179 2.015,-1.16 2.672,-1.43 0.336,-0.16 0.305,-0.168 0.687,-0.336 1.34,-0.641 0.68,-0.304 0.64,-0.293 1.348,-0.555 0.336,-0.164 0.352,-0.121 0.636,-0.254 1.672,-0.645 0.344,-0.105 0.66,-0.231 1.352,-0.429 0.332,-0.11 0.308,-0.078 0.641,-0.203 0.344,-0.074 0.343,-0.106 0.645,-0.156 0.332,-0.07 0.309,-0.082 0.656,-0.153 1.312,-0.253 0.344,-0.079 0.316,-0.046 0.641,-0.11 0.68,-0.097 0.648,-0.106 0.328,-0.027 0.317,-0.047 0.343,-0.02 0.305,-0.027 0.336,-0.063 0.332,-0.015 0.32,-0.028 h 0.332 l 0.344,-0.027 0.309,-0.031 h 0.332 l 0.308,-0.024 h 0.336 l 0.352,-0.023 h 1.273 l 0.356,0.023 h 0.648 l 0.336,0.024 0.297,0.031 h 0.344 l 0.348,0.027 0.308,0.028 0.664,0.047 0.317,0.058 0.336,0.02 0.66,0.074 0.316,0.051 0.32,0.055 0.676,0.097 0.32,0.051 0.329,0.059 0.648,0.125 0.356,0.05 0.343,0.078 0.719,0.145 0.379,0.109 0.34,0.078 0.715,0.18 0.336,0.106 1.089,0.308 1.407,0.43 0.718,0.258 0.7,0.23 1.425,0.563 2.852,1.234 0.352,0.152 0.355,0.188 0.699,0.348 1.426,0.722 2.852,1.594 0.351,0.199 0.336,0.231 0.738,0.437 1.395,0.895 2.851,1.898 0.344,0.258 0.336,0.23 0.641,0.465 1.324,0.973 2.684,2.051 5.285,4.355 10.59,9.559 1.453,1.34 1.437,1.351 2.871,2.668 5.766,5.258 0.355,0.332 0.332,0.312 0.731,0.633 1.453,1.262 2.852,2.465 5.742,4.476 0.351,0.266 3.043,2.07 0.664,0.434 1.328,0.824 0.661,0.418 0.687,0.371 1.344,0.75 0.676,0.356 0.66,0.328 1.328,0.648 0.336,0.129 0.351,0.153 0.657,0.281 0.34,0.129 0.335,0.16 0.68,0.23 0.668,0.246 1.352,0.418 0.652,0.203 0.344,0.075 0.324,0.101 1.02,0.231 0.339,0.047 0.668,0.136 1.348,0.203 1.016,0.079 0.308,0.023 0.668,0.051 h 1.637 l 0.348,-0.028 h 0.332 l 0.304,-0.023 0.68,-0.043 0.297,-0.059 0.351,-0.023 0.668,-0.109 0.309,-0.051 0.34,-0.043 0.347,-0.082 0.301,-0.078 0.68,-0.153 0.648,-0.179 0.336,-0.075 0.309,-0.101 0.668,-0.203 0.312,-0.129 1.016,-0.387 0.309,-0.133 0.351,-0.121 0.633,-0.312 0.68,-0.309 0.648,-0.355 0.34,-0.157 0.309,-0.21 0.671,-0.379 1.325,-0.821 0.296,-0.23 0.34,-0.215 0.66,-0.477 1.325,-0.996 2.64,-2.285 0.332,-0.328 0.368,-0.336 0.714,-0.723 1.438,-1.48 0.344,-0.414 0.355,-0.383 0.731,-0.82 1.423,-1.719 0.33,-0.437 1.1,-1.379 1.42,-1.926 2.86,-4.184 0.35,-0.566 0.34,-0.559 0.73,-1.125 1.43,-2.355 2.85,-5.055 5.7,-11.359 1.35,-2.875 1.31,-2.969 2.69,-6.176 5.3,-13.355 10.66,-30.032 0.73,-2.152 2.18,-6.609 2.88,-8.969 5.78,-18.465 11.53,-37.832 0.72,-2.308 0.7,-2.329 1.44,-4.609 2.82,-9.176 5.65,-17.82 0.37,-1.109 0.36,-1.086 0.69,-2.168 1.44,-4.293 2.83,-8.348 5.66,-15.816 0.34,-0.864 0.32,-0.879 0.66,-1.742 1.33,-3.39 2.64,-6.532 0.32,-0.789 0.33,-0.789 0.67,-1.558 1.33,-3.012 2.65,-5.758 0.31,-0.656 0.33,-0.692 2,-3.945 2.65,-4.847 0.31,-0.571 0.33,-0.562 0.67,-1.098 1.32,-2.129 2.65,-3.906 0.34,-0.445 0.36,-0.504 0.74,-0.922 1.42,-1.735 0.35,-0.414 0.37,-0.375 0.69,-0.769 1.47,-1.438 0.36,-0.316 0.33,-0.328 0.73,-0.617 0.72,-0.575 0.71,-0.515 0.35,-0.235 1.09,-0.703 0.34,-0.207 0.37,-0.207 0.72,-0.351 0.73,-0.305 0.34,-0.16 1.07,-0.379 0.37,-0.102 0.37,-0.093 0.34,-0.098 0.36,-0.035 0.37,-0.082 0.72,-0.098 0.32,-0.035 0.39,-0.024 h 1.08 l 0.37,0.024 0.32,0.055 0.37,0.019 0.37,0.059 0.72,0.16 0.34,0.055 1.09,0.316 0.72,0.258 0.71,0.312 0.33,0.153 1.35,0.718 0.34,0.2 0.64,0.445 0.34,0.207 0.34,0.258 0.67,0.476 1.34,1.106 0.68,0.621 0.66,0.613 1.35,1.383 0.32,0.379 0.34,0.371 0.68,0.762 1.32,1.66 0.68,0.879 0.67,0.894 1.32,1.914 2.7,4.184 0.33,0.566 0.31,0.567 0.69,1.152 1.33,2.402 2.68,5.129 0.34,0.672 0.3,0.664 0.68,1.328 1.3,2.797 2.64,5.848 5.23,12.695 10.51,28.582 0.34,1.02 0.35,1.004 0.72,2.078 1.44,4.125 2.83,8.328 5.69,16.777 0.37,1.047 0.34,1.047 0.72,2.086 1.43,4.164 2.86,8.231 5.67,15.925 0.34,0.922 0.34,0.899 0.64,1.765 1.35,3.535 2.65,6.825 0.34,0.843 0.33,0.825 0.65,1.66 1.35,3.207 2.65,6.207 0.66,1.492 0.66,1.48 1.32,2.868 2.67,5.41 0.67,1.289 0.66,1.273 1.32,2.438 2.66,4.512 0.37,0.621 0.36,0.562 0.76,1.156 1.47,2.149 0.38,0.539 0.37,0.484 0.72,1.008 1.51,1.84 0.72,0.875 0.75,0.82 0.74,0.766 1.12,1.098 0.37,0.343 0.73,0.66 1.47,1.176 0.4,0.289 0.37,0.258 0.74,0.477 0.37,0.23 0.35,0.211 0.76,0.41 0.73,0.356 0.39,0.156 0.72,0.309 0.4,0.136 0.35,0.117 0.73,0.215 0.39,0.067 0.73,0.16 0.39,0.051 0.35,0.05 0.38,0.02 0.37,0.031 0.37,0.028 h 0.72 l 0.4,-0.028 0.36,-0.031 0.36,-0.051 0.39,-0.043 0.37,-0.055"
         style="fill:none;stroke:#3871c1;stroke-width:7.5;stroke-linecap:square;stroke-linejoin:miter;stroke-miterlimit:3.25;stroke-dasharray:none;stroke-opacity:1"
         transform="matrix(0.13333333,0,0,-0.13333333,0,135.64)" />
      <path
         id="path40"
         d="m 159.348,308.078 v 13.125"
         style="fill:none;stroke:#231f20;stroke-width:5;stroke-linecap:butt;stroke-linejoin:miter;stroke-miterlimit:3.25;stroke-dasharray:none;stroke-opacity:1"
         transform="matrix(0.13333333,0,0,-0.13333333,0,135.64)" />
      <path
         id="path41"
         d="m 294.355,278.078 v 30"
         style="fill:none;stroke:#231f20;stroke-width:5;stroke-linecap:butt;stroke-linejoin:miter;stroke-miterlimit:3.25;stroke-dasharray:none;stroke-opacity:1"
         transform="matrix(0.13333333,0,0,-0.13333333,0,135.64)" />
      <path
         id="path42"
         d="m 159.348,278.078 v 30"
         style="fill:none;stroke:#231f20;stroke-width:5;stroke-linecap:butt;stroke-linejoin:miter;stroke-miterlimit:3.25;stroke-dasharray:none;stroke-opacity:1"
         transform="matrix(0.13333333,0,0,-0.13333333,0,135.64)" />
      <path
         id="path43"
         d="m 429.34,278.078 v 30"
         style="fill:none;stroke:#231f20;stroke-width:5;stroke-linecap:butt;stroke-linejoin:miter;stroke-miterlimit:3.25;stroke-dasharray:none;stroke-opacity:1"
         transform="matrix(0.13333333,0,0,-0.13333333,0,135.64)" />
      <path
         id="path44"
         d="m 564.336,278.078 v 30"
         style="fill:none;stroke:#231f20;stroke-width:5;stroke-linecap:butt;stroke-linejoin:miter;stroke-miterlimit:3.25;stroke-dasharray:none;stroke-opacity:1"
         transform="matrix(0.13333333,0,0,-0.13333333,0,135.64)" />
      <path
         id="path45"
         d="m 699.336,278.078 v 30"
         style="fill:none;stroke:#231f20;stroke-width:5;stroke-linecap:butt;stroke-linejoin:miter;stroke-miterlimit:3.25;stroke-dasharray:none;stroke-opacity:1"
         transform="matrix(0.13333333,0,0,-0.13333333,0,135.64)" />
      <path
         id="path46"
         d="m 834.355,278.078 v 30"
         style="fill:none;stroke:#231f20;stroke-width:5;stroke-linecap:butt;stroke-linejoin:miter;stroke-miterlimit:3.25;stroke-dasharray:none;stroke-opacity:1"
         transform="matrix(0.13333333,0,0,-0.13333333,0,135.64)" />
      <path
         id="path47"
         d="m 969.352,278.078 v 30"
         style="fill:none;stroke:#231f20;stroke-width:5;stroke-linecap:butt;stroke-linejoin:miter;stroke-miterlimit:3.25;stroke-dasharray:none;stroke-opacity:1"
         transform="matrix(0.13333333,0,0,-0.13333333,0,135.64)" />
      <path
         id="path48"
         d="m 1104.35,278.078 v 30"
         style="fill:none;stroke:#231f20;stroke-width:5;stroke-linecap:butt;stroke-linejoin:miter;stroke-miterlimit:3.25;stroke-dasharray:none;stroke-opacity:1"
         transform="matrix(0.13333333,0,0,-0.13333333,0,135.64)" />
      <path
         id="path49"
         d="m 1239.35,278.078 v 30"
         style="fill:none;stroke:#231f20;stroke-width:5;stroke-linecap:butt;stroke-linejoin:miter;stroke-miterlimit:3.25;stroke-dasharray:none;stroke-opacity:1"
         transform="matrix(0.13333333,0,0,-0.13333333,0,135.64)" />
      <path
         id="path50"
         d="M 159.348,308.078 H 1239.35"
         style="fill:none;stroke:#231f20;stroke-width:5;stroke-linecap:butt;stroke-linejoin:miter;stroke-miterlimit:3.25;stroke-dasharray:none;stroke-opacity:1"
         transform="matrix(0.13333333,0,0,-0.13333333,0,135.64)" />
      <path
         id="path51"
         d="m 159.348,308.078 h 13.281"
         style="fill:none;stroke:#231f20;stroke-width:5;stroke-linecap:butt;stroke-linejoin:miter;stroke-miterlimit:3.25;stroke-dasharray:none;stroke-opacity:1"
         transform="matrix(0.13333333,0,0,-0.13333333,0,135.64)" />
      <path
         id="path52"
         d="m 129.348,638.063 h 30"
         style="fill:none;stroke:#231f20;stroke-width:5;stroke-linecap:butt;stroke-linejoin:miter;stroke-miterlimit:3.25;stroke-dasharray:none;stroke-opacity:1"
         transform="matrix(0.13333333,0,0,-0.13333333,0,135.64)" />
      <path
         id="path53"
         d="m 129.348,968.078 h 30"
         style="fill:none;stroke:#231f20;stroke-width:5;stroke-linecap:butt;stroke-linejoin:miter;stroke-miterlimit:3.25;stroke-dasharray:none;stroke-opacity:1"
         transform="matrix(0.13333333,0,0,-0.13333333,0,135.64)" />
      <path
         id="path54"
         d="m 159.348,308.078 v 660"
         style="fill:none;stroke:#231f20;stroke-width:5;stroke-linecap:butt;stroke-linejoin:miter;stroke-miterlimit:3.25;stroke-dasharray:none;stroke-opacity:1"
         transform="matrix(0.13333333,0,0,-0.13333333,0,135.64)" />
      <path
         id="path55"
         d="m 1643.11,308.063 v 12.703"
         style="fill:none;stroke:#231f20;stroke-width:5;stroke-linecap:butt;stroke-linejoin:miter;stroke-miterlimit:3.25;stroke-dasharray:none;stroke-opacity:1"
         transform="matrix(0.13333333,0,0,-0.13333333,0,135.64)" />
      <path
         id="path56"
         d="m 1773.21,278.063 v 30"
         style="fill:none;stroke:#231f20;stroke-width:5;stroke-linecap:butt;stroke-linejoin:miter;stroke-miterlimit:3.25;stroke-dasharray:none;stroke-opacity:1"
         transform="matrix(0.13333333,0,0,-0.13333333,0,135.64)" />
      <path
         id="path57"
         d="m 1643.33,278.063 v 30"
         style="fill:none;stroke:#231f20;stroke-width:5;stroke-linecap:butt;stroke-linejoin:miter;stroke-miterlimit:3.25;stroke-dasharray:none;stroke-opacity:1"
         transform="matrix(0.13333333,0,0,-0.13333333,0,135.64)" />
      <path
         id="path58"
         d="m 1903.34,278.063 v 30"
         style="fill:none;stroke:#231f20;stroke-width:5;stroke-linecap:butt;stroke-linejoin:miter;stroke-miterlimit:3.25;stroke-dasharray:none;stroke-opacity:1"
         transform="matrix(0.13333333,0,0,-0.13333333,0,135.64)" />
      <path
         id="path59"
         d="m 2033.47,278.063 v 30"
         style="fill:none;stroke:#231f20;stroke-width:5;stroke-linecap:butt;stroke-linejoin:miter;stroke-miterlimit:3.25;stroke-dasharray:none;stroke-opacity:1"
         transform="matrix(0.13333333,0,0,-0.13333333,0,135.64)" />
      <path
         id="path60"
         d="m 2163.57,278.063 v 30"
         style="fill:none;stroke:#231f20;stroke-width:5;stroke-linecap:butt;stroke-linejoin:miter;stroke-miterlimit:3.25;stroke-dasharray:none;stroke-opacity:1"
         transform="matrix(0.13333333,0,0,-0.13333333,0,135.64)" />
      <path
         id="path61"
         d="m 2293.7,278.063 v 30"
         style="fill:none;stroke:#231f20;stroke-width:5;stroke-linecap:butt;stroke-linejoin:miter;stroke-miterlimit:3.25;stroke-dasharray:none;stroke-opacity:1"
         transform="matrix(0.13333333,0,0,-0.13333333,0,135.64)" />
      <path
         id="path62"
         d="m 2423.83,278.063 v 30"
         style="fill:none;stroke:#231f20;stroke-width:5;stroke-linecap:butt;stroke-linejoin:miter;stroke-miterlimit:3.25;stroke-dasharray:none;stroke-opacity:1"
         transform="matrix(0.13333333,0,0,-0.13333333,0,135.64)" />
      <path
         id="path63"
         d="m 2553.96,278.063 v 30"
         style="fill:none;stroke:#231f20;stroke-width:5;stroke-linecap:butt;stroke-linejoin:miter;stroke-miterlimit:3.25;stroke-dasharray:none;stroke-opacity:1"
         transform="matrix(0.13333333,0,0,-0.13333333,0,135.64)" />
      <path
         id="path64"
         d="m 2684.07,278.063 v 30"
         style="fill:none;stroke:#231f20;stroke-width:5;stroke-linecap:butt;stroke-linejoin:miter;stroke-miterlimit:3.25;stroke-dasharray:none;stroke-opacity:1"
         transform="matrix(0.13333333,0,0,-0.13333333,0,135.64)" />
      <path
         id="path65"
         d="M 1643.11,308.063 H 2703.58"
         style="fill:none;stroke:#231f20;stroke-width:5;stroke-linecap:butt;stroke-linejoin:miter;stroke-miterlimit:3.25;stroke-dasharray:none;stroke-opacity:1"
         transform="matrix(0.13333333,0,0,-0.13333333,0,135.64)" />
      <path
         id="path66"
         d="m 1643.11,308.063 h 12.85"
         style="fill:none;stroke:#231f20;stroke-width:5;stroke-linecap:butt;stroke-linejoin:miter;stroke-miterlimit:3.25;stroke-dasharray:none;stroke-opacity:1"
         transform="matrix(0.13333333,0,0,-0.13333333,0,135.64)" />
      <path
         id="path67"
         d="m 1613.11,638.063 h 30"
         style="fill:none;stroke:#231f20;stroke-width:5;stroke-linecap:butt;stroke-linejoin:miter;stroke-miterlimit:3.25;stroke-dasharray:none;stroke-opacity:1"
         transform="matrix(0.13333333,0,0,-0.13333333,0,135.64)" />
      <path
         id="path68"
         d="m 1613.11,968.063 h 30"
         style="fill:none;stroke:#231f20;stroke-width:5;stroke-linecap:butt;stroke-linejoin:miter;stroke-miterlimit:3.25;stroke-dasharray:none;stroke-opacity:1"
         transform="matrix(0.13333333,0,0,-0.13333333,0,135.64)" />
      <path
         id="path69"
         d="m 1643.11,308.063 v 660"
         style="fill:none;stroke:#231f20;stroke-width:5;stroke-linecap:butt;stroke-linejoin:miter;stroke-miterlimit:3.25;stroke-dasharray:none;stroke-opacity:1"
         transform="matrix(0.13333333,0,0,-0.13333333,0,135.64)" />
      <path
         id="path70"
         d="m 3134.78,313.07 v 12.715"
         style="fill:none;stroke:#231f20;stroke-width:5;stroke-linecap:butt;stroke-linejoin:miter;stroke-miterlimit:3.25;stroke-dasharray:none;stroke-opacity:1"
         transform="matrix(0.13333333,0,0,-0.13333333,0,135.64)" />
      <path
         id="path71"
         d="m 3264.87,283.07 v 30"
         style="fill:none;stroke:#231f20;stroke-width:5;stroke-linecap:butt;stroke-linejoin:miter;stroke-miterlimit:3.25;stroke-dasharray:none;stroke-opacity:1"
         transform="matrix(0.13333333,0,0,-0.13333333,0,135.64)" />
      <path
         id="path72"
         d="m 3135,283.07 v 30"
         style="fill:none;stroke:#231f20;stroke-width:5;stroke-linecap:butt;stroke-linejoin:miter;stroke-miterlimit:3.25;stroke-dasharray:none;stroke-opacity:1"
         transform="matrix(0.13333333,0,0,-0.13333333,0,135.64)" />
      <path
         id="path73"
         d="m 3395.01,283.07 v 30"
         style="fill:none;stroke:#231f20;stroke-width:5;stroke-linecap:butt;stroke-linejoin:miter;stroke-miterlimit:3.25;stroke-dasharray:none;stroke-opacity:1"
         transform="matrix(0.13333333,0,0,-0.13333333,0,135.64)" />
      <path
         id="path74"
         d="m 3525.14,283.07 v 30"
         style="fill:none;stroke:#231f20;stroke-width:5;stroke-linecap:butt;stroke-linejoin:miter;stroke-miterlimit:3.25;stroke-dasharray:none;stroke-opacity:1"
         transform="matrix(0.13333333,0,0,-0.13333333,0,135.64)" />
      <path
         id="path75"
         d="m 3655.23,283.07 v 30"
         style="fill:none;stroke:#231f20;stroke-width:5;stroke-linecap:butt;stroke-linejoin:miter;stroke-miterlimit:3.25;stroke-dasharray:none;stroke-opacity:1"
         transform="matrix(0.13333333,0,0,-0.13333333,0,135.64)" />
      <path
         id="path76"
         d="m 3785.37,283.07 v 30"
         style="fill:none;stroke:#231f20;stroke-width:5;stroke-linecap:butt;stroke-linejoin:miter;stroke-miterlimit:3.25;stroke-dasharray:none;stroke-opacity:1"
         transform="matrix(0.13333333,0,0,-0.13333333,0,135.64)" />
      <path
         id="path77"
         d="m 3915.5,283.07 v 30"
         style="fill:none;stroke:#231f20;stroke-width:5;stroke-linecap:butt;stroke-linejoin:miter;stroke-miterlimit:3.25;stroke-dasharray:none;stroke-opacity:1"
         transform="matrix(0.13333333,0,0,-0.13333333,0,135.64)" />
      <path
         id="path78"
         d="m 4045.63,283.07 v 30"
         style="fill:none;stroke:#231f20;stroke-width:5;stroke-linecap:butt;stroke-linejoin:miter;stroke-miterlimit:3.25;stroke-dasharray:none;stroke-opacity:1"
         transform="matrix(0.13333333,0,0,-0.13333333,0,135.64)" />
      <path
         id="path79"
         d="m 4175.74,283.07 v 30"
         style="fill:none;stroke:#231f20;stroke-width:5;stroke-linecap:butt;stroke-linejoin:miter;stroke-miterlimit:3.25;stroke-dasharray:none;stroke-opacity:1"
         transform="matrix(0.13333333,0,0,-0.13333333,0,135.64)" />
      <path
         id="path80"
         d="M 3134.78,313.07 H 4195.25"
         style="fill:none;stroke:#231f20;stroke-width:5;stroke-linecap:butt;stroke-linejoin:miter;stroke-miterlimit:3.25;stroke-dasharray:none;stroke-opacity:1"
         transform="matrix(0.13333333,0,0,-0.13333333,0,135.64)" />
      <path
         id="path81"
         d="m 3134.78,313.07 h 12.85"
         style="fill:none;stroke:#231f20;stroke-width:5;stroke-linecap:butt;stroke-linejoin:miter;stroke-miterlimit:3.25;stroke-dasharray:none;stroke-opacity:1"
         transform="matrix(0.13333333,0,0,-0.13333333,0,135.64)" />
      <path
         id="path82"
         d="m 3104.78,643.066 h 30"
         style="fill:none;stroke:#231f20;stroke-width:5;stroke-linecap:butt;stroke-linejoin:miter;stroke-miterlimit:3.25;stroke-dasharray:none;stroke-opacity:1"
         transform="matrix(0.13333333,0,0,-0.13333333,0,135.64)" />
      <path
         id="path83"
         d="m 3104.78,973.07 h 30"
         style="fill:none;stroke:#231f20;stroke-width:5;stroke-linecap:butt;stroke-linejoin:miter;stroke-miterlimit:3.25;stroke-dasharray:none;stroke-opacity:1"
         transform="matrix(0.13333333,0,0,-0.13333333,0,135.64)" />
      <path
         id="path84"
         d="m 3134.78,313.07 v 660"
         style="fill:none;stroke:#231f20;stroke-width:5;stroke-linecap:butt;stroke-linejoin:miter;stroke-miterlimit:3.25;stroke-dasharray:none;stroke-opacity:1"
         transform="matrix(0.13333333,0,0,-0.13333333,0,135.64)" />
    </g>
  </g>
</svg>
