<?xml version="1.0" encoding="UTF-8" standalone="no"?>
<!-- Created with Inkscape (http://www.inkscape.org/) -->

<svg
   version="1.1"
   id="svg1"
   width="389.73334"
   height="173.48"
   viewBox="0 0 389.73334 173.48"
   sodipodi:docname="pha08f22.eps"
   xmlns:inkscape="http://www.inkscape.org/namespaces/inkscape"
   xmlns:sodipodi="http://sodipodi.sourceforge.net/DTD/sodipodi-0.dtd"
   xmlns="http://www.w3.org/2000/svg"
   xmlns:svg="http://www.w3.org/2000/svg">
  <defs
     id="defs1" />
  <sodipodi:namedview
     id="namedview1"
     pagecolor="#ffffff"
     bordercolor="#000000"
     borderopacity="0.25"
     inkscape:showpageshadow="2"
     inkscape:pageopacity="0.0"
     inkscape:pagecheckerboard="0"
     inkscape:deskcolor="#d1d1d1">
    <inkscape:page
       x="0"
       y="0"
       inkscape:label="1"
       id="page1"
       width="389.73334"
       height="173.48"
       margin="0"
       bleed="0" />
  </sodipodi:namedview>
  <g
     id="g1"
     inkscape:groupmode="layer"
     inkscape:label="1">
    <g
       id="group-R5">
      <path
         id="path2"
         d="M 973.715,167.711 H 2.5 v 971.219 h 971.215 z"
         style="fill:none;stroke:#231f20;stroke-width:5;stroke-linecap:butt;stroke-linejoin:miter;stroke-miterlimit:10;stroke-dasharray:none;stroke-opacity:1"
         transform="matrix(0.13333333,0,0,-0.13333333,0,173.48)" />
      <path
         id="path3"
         d="M 2.53906,653.141 972.516,650.758"
         style="fill:none;stroke:#231f20;stroke-width:5;stroke-linecap:butt;stroke-linejoin:miter;stroke-miterlimit:10;stroke-dasharray:none;stroke-opacity:1"
         transform="matrix(0.13333333,0,0,-0.13333333,0,173.48)" />
      <path
         id="path4"
         d="M 487.527,1138.96 V 168.148"
         style="fill:none;stroke:#231f20;stroke-width:5;stroke-linecap:butt;stroke-linejoin:miter;stroke-miterlimit:10;stroke-dasharray:none;stroke-opacity:1"
         transform="matrix(0.13333333,0,0,-0.13333333,0,173.48)" />
      <path
         id="path5"
         d="m 1628.44,2.5 h -328.86 v 1296.11 h 328.86 z"
         style="fill:none;stroke:#231f20;stroke-width:5;stroke-linecap:butt;stroke-linejoin:miter;stroke-miterlimit:10;stroke-dasharray:none;stroke-opacity:1"
         transform="matrix(0.13333333,0,0,-0.13333333,0,173.48)" />
      <path
         id="path6"
         d="m 1301.33,975.027 h 327.11"
         style="fill:none;stroke:#231f20;stroke-width:5;stroke-linecap:butt;stroke-linejoin:miter;stroke-miterlimit:10;stroke-dasharray:none;stroke-opacity:1"
         transform="matrix(0.13333333,0,0,-0.13333333,0,173.48)" />
      <path
         id="path7"
         d="m 1299.58,653.195 h 327.1"
         style="fill:none;stroke:#231f20;stroke-width:5;stroke-linecap:butt;stroke-linejoin:miter;stroke-miterlimit:10;stroke-dasharray:none;stroke-opacity:1"
         transform="matrix(0.13333333,0,0,-0.13333333,0,173.48)" />
      <path
         id="path8"
         d="m 1299.58,329.605 h 325.35"
         style="fill:none;stroke:#231f20;stroke-width:5;stroke-linecap:butt;stroke-linejoin:miter;stroke-miterlimit:10;stroke-dasharray:none;stroke-opacity:1"
         transform="matrix(0.13333333,0,0,-0.13333333,0,173.48)" />
      <path
         id="path9"
         d="M 2920.51,162.02 H 1949.3 v 971.22 h 971.21 z"
         style="fill:none;stroke:#231f20;stroke-width:5;stroke-linecap:butt;stroke-linejoin:miter;stroke-miterlimit:10;stroke-dasharray:none;stroke-opacity:1"
         transform="matrix(0.13333333,0,0,-0.13333333,0,173.48)" />
      <path
         id="path10"
         d="m 1949.34,647.449 969.98,-2.375"
         style="fill:none;stroke:#231f20;stroke-width:5;stroke-linecap:butt;stroke-linejoin:miter;stroke-miterlimit:10;stroke-dasharray:none;stroke-opacity:1"
         transform="matrix(0.13333333,0,0,-0.13333333,0,173.48)" />
      <path
         id="path11"
         d="M 2434.33,1133.27 V 162.461"
         style="fill:none;stroke:#231f20;stroke-width:5;stroke-linecap:butt;stroke-linejoin:miter;stroke-miterlimit:10;stroke-dasharray:none;stroke-opacity:1"
         transform="matrix(0.13333333,0,0,-0.13333333,0,173.48)" />
      <g
         id="g11"
         aria-label="x&#10;1&#10;, y&#10;1&#10;x&#10;3&#10;, y&#10;3&#10;x&#10;2&#10;, y&#10;2&#10;x&#10;4&#10;, y&#10;4&#10;t&#10;1&#10;t&#10;2&#10;t&#10;3&#10;t&#10;4&#10;u&#10;1&#10;, v&#10;1&#10;u&#10;3&#10;, v&#10;3&#10;u&#10;2&#10;, v&#10;2&#10;u&#10;4&#10;, v&#10;4"
         transform="matrix(1.3333333,0,0,1.3333333,18.583867,60.044)">
        <path
           id="path12"
           d="m 0.77206094,-2.9187422 c 0.31640626,-0.3984375 0.49218746,-0.515625 0.57421876,-0.515625 0.09375,0 0.1757812,0.1289063 0.3046875,0.5742188 l 0.3046875,0.9375 c -0.5625,0.8320312 -0.98437501,1.35937496 -1.24218751,1.35937496 -0.09375,0 -0.1640625,-0.0351563 -0.2109375,-0.09375 -0.046875,-0.0585938 -0.09375,-0.09375 -0.140625,-0.09375 -0.17578125,0 -0.36328125,0.2109375 -0.36328125,0.421875 -0.01171875,0.2578125 0.17578125,0.43359375 0.41015625,0.43359375 0.421875,0 0.84375001,-0.43359375 1.64062501,-1.69921871 l 0.28125,0.87890621 c 0.1757812,0.5625 0.3632812,0.8203125 0.5976562,0.8203125 0.3046875,0 0.7265625,-0.328125 1.1367188,-0.97265625 L 3.9126859,-1.0437422 c -0.28125,0.33984376 -0.5039062,0.51562501 -0.6445312,0.51562501 -0.1523438,0 -0.28125,-0.2578125 -0.4570313,-0.82031251 L 2.5181547,-2.2507734 c 0.1992187,-0.28125 0.3984375,-0.5273438 0.5859375,-0.7382813 0.234375,-0.2929687 0.4101562,-0.4453125 0.5390625,-0.4453125 0.082031,0 0.1523437,0.035156 0.2109375,0.1054688 0.046875,0.046875 0.082031,0.070312 0.1289062,0.070312 0.140625,0 0.3398438,-0.1757813 0.3515625,-0.3984375 0,-0.1992188 -0.140625,-0.3867188 -0.375,-0.3867188 -0.3984375,0 -0.7851562,0.3867188 -1.5351562,1.4765625 l -0.1523438,-0.492187 c -0.2226562,-0.6445312 -0.3398437,-0.984375 -0.5859375,-0.984375 -0.2929687,0 -0.69140621,0.3867188 -1.06640621,0.9375 z m 0,0"
           style="fill:#231f20;fill-opacity:1;fill-rule:nonzero;stroke:none" />
        <path
           id="path13"
           d="M 7.7154203,2.0002031 V 1.7541094 C 6.8951078,1.6955156 6.8365141,1.6252031 6.8365141,0.96895313 V -3.7185469 c -0.4921875,0.1992188 -1.0195313,0.375 -1.59375,0.46875 v 0.2109375 l 0.4335937,0.011719 c 0.3867188,0.023437 0.421875,0.070312 0.421875,0.5390625 v 3.45703123 c 0,0.65624997 -0.035156,0.72656247 -0.8554687,0.78515627 v 0.2460937 z m 0.2636719,-3.1611328 c -0.2109375,0 -0.4335938,0.140625 -0.4335938,0.36328126 0,0.15234375 0.070312,0.22265625 0.1171875,0.234375 0.3046875,0.0703125 0.5625,0.26953125 0.5625,0.59765625 0,0.33984375 -0.2578125,0.57421875 -0.6914062,0.76171875 l 0.09375,0.25781254 c 0.5507812,-0.16406254 1.1835937,-0.55078129 1.1835937,-1.24218754 0,-0.6328125 -0.5039062,-0.97265626 -0.8320312,-0.97265626 z m 0,0"
           style="fill:#231f20;fill-opacity:1;fill-rule:nonzero;stroke:none" />
        <path
           id="path14"
           d="m 13.387295,-0.68046094 c -0.05859,-0.80859376 -0.117187,-1.62890626 -0.210937,-2.30859376 -0.07031,-0.7148437 -0.210938,-1.0546875 -0.457031,-1.0546875 -0.328125,0 -0.773438,0.515625 -1.066407,0.9609375 l 0.152344,0.2109375 c 0.222656,-0.3164062 0.457031,-0.5273437 0.527344,-0.5273437 0.07031,0 0.117187,0.1171875 0.1875,0.5625 0.128906,0.8203125 0.269531,2.22656246 0.28125,2.92968746 -0.445313,0.59765625 -1.160156,1.39453124 -2.121094,2.01562504 l 0.07031,0.1992187 0.9375,-0.234375 c 0.503906,-0.5625 1.089843,-1.35937499 1.617187,-2.12109374 0.480469,-0.66796875 1.242188,-1.86328126 1.628906,-2.54296876 0.234375,-0.3984375 0.328125,-0.703125 0.316407,-0.9609375 0,-0.2929687 -0.152344,-0.4921875 -0.351563,-0.4921875 -0.152344,0 -0.316406,0.1054688 -0.375,0.2460938 -0.03516,0.070312 -0.04687,0.1640625 -0.01172,0.2226562 0.03516,0.1054688 0.09375,0.2460938 0.09375,0.421875 0.01172,0.65625 -0.820312,1.8867188 -1.207031,2.47265626 z m 0,0"
           style="fill:#231f20;fill-opacity:1;fill-rule:nonzero;stroke:none" />
        <path
           id="path15"
           d="M 17.518155,2.0002031 V 1.8361406 c -0.550782,-0.035156 -0.585938,-0.09375 -0.585938,-0.515625 v -3.1289062 c -0.328125,0.1289062 -0.679687,0.2460937 -1.066406,0.3164062 v 0.1289063 l 0.28125,0.011719 c 0.269531,0.011719 0.292969,0.046875 0.292969,0.36328128 V 1.3205156 c 0,0.421875 -0.03516,0.4804688 -0.574219,0.515625 v 0.1640625 z m 0,0"
           style="fill:#231f20;fill-opacity:1;fill-rule:nonzero;stroke:none" />
        <path
           id="path16"
           d="M 0.77206094,45.163289 C 1.0884672,44.764852 1.2642484,44.647664 1.3462797,44.647664 c 0.09375,0 0.1757812,0.128906 0.3046875,0.574219 l 0.3046875,0.9375 c -0.5625,0.832031 -0.98437501,1.359375 -1.24218751,1.359375 -0.09375,0 -0.1640625,-0.03516 -0.2109375,-0.09375 -0.046875,-0.05859 -0.09375,-0.09375 -0.140625,-0.09375 -0.17578125,0 -0.36328125,0.210937 -0.36328125,0.421875 -0.01171875,0.257812 0.17578125,0.433594 0.41015625,0.433594 0.421875,0 0.84375001,-0.433594 1.64062501,-1.699219 l 0.28125,0.878906 c 0.1757812,0.5625 0.3632812,0.820313 0.5976562,0.820313 0.3046875,0 0.7265625,-0.328125 1.1367188,-0.972657 L 3.9126859,47.038289 c -0.28125,0.339844 -0.5039062,0.515625 -0.6445312,0.515625 -0.1523438,0 -0.28125,-0.257812 -0.4570313,-0.820312 L 2.5181547,45.831258 c 0.1992187,-0.28125 0.3984375,-0.527344 0.5859375,-0.738281 0.234375,-0.292969 0.4101562,-0.445313 0.5390625,-0.445313 0.082031,0 0.1523437,0.03516 0.2109375,0.105469 0.046875,0.04687 0.082031,0.07031 0.1289062,0.07031 0.140625,0 0.3398438,-0.175781 0.3515625,-0.398437 0,-0.199219 -0.140625,-0.386719 -0.375,-0.386719 -0.3984375,0 -0.7851562,0.386719 -1.5351562,1.476563 L 2.2720609,45.022664 C 2.0494047,44.378133 1.9322172,44.038289 1.6861234,44.038289 c -0.2929687,0 -0.69140621,0.386719 -1.06640621,0.9375 z m 0,0"
           style="fill:#231f20;fill-opacity:1;fill-rule:nonzero;stroke:none" />
        <path
           id="path17"
           d="m 5.0201078,45.614461 c 0.2226563,-0.328125 0.5859375,-0.714844 1.078125,-0.714844 0.4804688,0 0.8554688,0.292969 0.8554688,0.855469 0,0.65625 -0.609375,1.007812 -1.4296875,1.277344 l 0.058594,0.257812 c 0.140625,-0.04687 0.3632813,-0.105469 0.5742188,-0.105469 0.515625,0 1.1484375,0.339844 1.1484375,1.171875 0,0.890625 -0.4570313,1.359375 -1.0898438,1.359375 -0.515625,0 -0.890625,-0.246093 -1.125,-0.457031 -0.070312,-0.05859 -0.140625,-0.04687 -0.2109375,0 -0.082031,0.05859 -0.1992187,0.175781 -0.2109375,0.292969 -0.011719,0.117187 0.023437,0.210937 0.1523438,0.328125 0.1171875,0.105469 0.4804687,0.304687 0.890625,0.304687 0.65625,0 2.3671875,-0.667968 2.3671875,-2.121093 0,-0.65625 -0.46875,-1.21875 -1.2539063,-1.371094 v -0.01172 c 0.2578125,-0.1875 0.4804688,-0.339844 0.609375,-0.492187 0.1757813,-0.164063 0.28125,-0.375 0.28125,-0.632813 0,-0.691406 -0.5273437,-1.195312 -1.3476562,-1.195312 -0.46875,0 -0.890625,0.234375 -1.1367188,0.503906 l -0.3984378,0.57422 z m 2.9589844,1.306641 c -0.2109375,0 -0.4335938,0.140625 -0.4335938,0.363281 0,0.152344 0.070312,0.222656 0.1171875,0.234375 0.3046875,0.07031 0.5625,0.269531 0.5625,0.597656 0,0.339844 -0.2578125,0.574219 -0.6914062,0.761719 l 0.09375,0.257812 c 0.5507812,-0.164062 1.1835937,-0.550781 1.1835937,-1.242187 0,-0.632813 -0.5039062,-0.972656 -0.8320312,-0.972656 z m 0,0"
           style="fill:#231f20;fill-opacity:1;fill-rule:nonzero;stroke:none" />
        <path
           id="path18"
           d="m 13.387295,47.40157 c -0.05859,-0.808593 -0.117187,-1.628906 -0.210937,-2.308593 -0.07031,-0.714844 -0.210938,-1.054688 -0.457031,-1.054688 -0.328125,0 -0.773438,0.515625 -1.066407,0.960938 l 0.152344,0.210937 c 0.222656,-0.316406 0.457031,-0.527344 0.527344,-0.527344 0.07031,0 0.117187,0.117188 0.1875,0.5625 0.128906,0.820313 0.269531,2.226563 0.28125,2.929688 -0.445313,0.597656 -1.160156,1.394531 -2.121094,2.015625 l 0.07031,0.199219 0.9375,-0.234375 c 0.503906,-0.5625 1.089843,-1.359375 1.617187,-2.121094 0.480469,-0.667969 1.242188,-1.863281 1.628906,-2.542969 0.234375,-0.398437 0.328125,-0.703125 0.316407,-0.960937 0,-0.292969 -0.152344,-0.492188 -0.351563,-0.492188 -0.152344,0 -0.316406,0.105469 -0.375,0.246094 -0.03516,0.07031 -0.04687,0.164062 -0.01172,0.222656 0.03516,0.105469 0.09375,0.246094 0.09375,0.421875 0.01172,0.65625 -0.820312,1.886719 -1.207031,2.472656 z m 0,0"
           style="fill:#231f20;fill-opacity:1;fill-rule:nonzero;stroke:none" />
        <path
           id="path19"
           d="m 15.725186,47.102742 c 0.140625,-0.222656 0.386719,-0.46875 0.714844,-0.46875 0.316406,0 0.574218,0.1875 0.574218,0.5625 0,0.445313 -0.410156,0.679688 -0.960937,0.84375 l 0.03516,0.175781 c 0.09375,-0.02344 0.246094,-0.05859 0.386719,-0.05859 0.339844,0 0.761719,0.222656 0.761719,0.773437 0,0.585938 -0.304688,0.914063 -0.726563,0.914063 -0.339844,0 -0.585937,-0.175782 -0.738281,-0.316407 -0.04687,-0.03516 -0.105469,-0.03516 -0.152344,0 -0.04687,0.04687 -0.128906,0.128907 -0.128906,0.199219 -0.01172,0.07031 0.01172,0.140625 0.09375,0.222656 0.07031,0.07031 0.316406,0.199219 0.597656,0.199219 0.433594,0 1.570313,-0.445312 1.570313,-1.417969 0,-0.433593 -0.304688,-0.808593 -0.832032,-0.914062 v -0.01172 c 0.175782,-0.117187 0.316407,-0.222656 0.410157,-0.316406 0.105468,-0.117188 0.1875,-0.257813 0.1875,-0.433594 0,-0.445312 -0.363282,-0.785156 -0.902344,-0.785156 -0.316406,0 -0.585938,0.152344 -0.761719,0.339844 l -0.257812,0.375 z m 0,0"
           style="fill:#231f20;fill-opacity:1;fill-rule:nonzero;stroke:none" />
        <path
           id="path20"
           d="m 49.205655,-2.9187422 c 0.316406,-0.3984375 0.492187,-0.515625 0.574218,-0.515625 0.09375,0 0.175782,0.1289063 0.304688,0.5742188 l 0.304687,0.9375 c -0.5625,0.8320312 -0.984375,1.35937496 -1.242187,1.35937496 -0.09375,0 -0.164063,-0.0351563 -0.210938,-0.09375 -0.04687,-0.0585938 -0.09375,-0.09375 -0.140625,-0.09375 -0.175781,0 -0.363281,0.2109375 -0.363281,0.421875 -0.01172,0.2578125 0.175781,0.43359375 0.410156,0.43359375 0.421875,0 0.84375,-0.43359375 1.640625,-1.69921871 l 0.28125,0.87890621 c 0.175782,0.5625 0.363282,0.8203125 0.597657,0.8203125 0.304687,0 0.726562,-0.328125 1.136718,-0.97265625 L 52.34628,-1.0437422 c -0.28125,0.33984376 -0.503907,0.51562501 -0.644532,0.51562501 -0.152343,0 -0.28125,-0.2578125 -0.457031,-0.82031251 l -0.292969,-0.9023437 c 0.199219,-0.28125 0.398438,-0.5273438 0.585938,-0.7382813 0.234375,-0.2929687 0.410156,-0.4453125 0.539062,-0.4453125 0.08203,0 0.152344,0.035156 0.210938,0.1054688 0.04687,0.046875 0.08203,0.070312 0.128906,0.070312 0.140625,0 0.339844,-0.1757813 0.351563,-0.3984375 0,-0.1992188 -0.140625,-0.3867188 -0.375,-0.3867188 -0.398438,0 -0.785157,0.3867188 -1.535157,1.4765625 l -0.152343,-0.4921875 c -0.222657,-0.6445312 -0.339844,-0.984375 -0.585938,-0.984375 -0.292969,0 -0.691406,0.3867188 -1.066406,0.9375 z m 0,0"
           style="fill:#231f20;fill-opacity:1;fill-rule:nonzero;stroke:none" />
        <path
           id="path21"
           d="M 56.392178,0.73457813 C 56.122647,1.3087969 56.005459,1.3439531 55.524991,1.3439531 h -1.6875 l 1.277343,-1.33593747 c 0.832032,-0.890625 1.195313,-1.41796873 1.195313,-2.20312503 0,-0.9492187 -0.726563,-1.5234375 -1.511719,-1.5234375 -0.527344,0 -0.949219,0.234375 -1.21875,0.5390625 l -0.515625,0.7265625 0.199219,0.1757813 c 0.234375,-0.3515625 0.609375,-0.8320313 1.230469,-0.8320313 0.65625,0 1.054687,0.4335938 1.054687,1.1953125 0,0.7734375 -0.5625,1.51171878 -1.125,2.17968753 -0.445312,0.515625 -0.949219,1.03124997 -1.453125,1.52343747 v 0.2109375 h 3.363281 c 0.105469,-0.4101562 0.199219,-0.796875 0.316407,-1.18359372 z m 0.02051,-1.89550783 c -0.210938,0 -0.433594,0.140625 -0.433594,0.36328126 0,0.15234375 0.07031,0.22265625 0.117188,0.234375 0.304687,0.0703125 0.5625,0.26953125 0.5625,0.59765625 0,0.33984375 -0.257813,0.57421875 -0.691407,0.76171875 l 0.09375,0.25781254 c 0.550782,-0.16406254 1.183594,-0.55078129 1.183594,-1.24218754 0,-0.6328125 -0.503906,-0.97265626 -0.832031,-0.97265626 z m 0,0"
           style="fill:#231f20;fill-opacity:1;fill-rule:nonzero;stroke:none" />
        <path
           id="path22"
           d="m 61.820889,-0.68046094 c -0.05859,-0.80859376 -0.117187,-1.62890626 -0.210937,-2.30859376 -0.07031,-0.7148437 -0.210938,-1.0546875 -0.457032,-1.0546875 -0.328125,0 -0.773437,0.515625 -1.066406,0.9609375 l 0.152344,0.2109375 c 0.222656,-0.3164062 0.457031,-0.5273437 0.527344,-0.5273437 0.07031,0 0.117187,0.1171875 0.1875,0.5625 0.128906,0.8203125 0.269531,2.22656246 0.28125,2.92968746 -0.445313,0.59765625 -1.160157,1.39453124 -2.121094,2.01562504 l 0.07031,0.1992187 0.9375,-0.234375 c 0.503907,-0.5625 1.089844,-1.35937499 1.617188,-2.12109374 0.480469,-0.66796875 1.242187,-1.86328126 1.628906,-2.54296876 0.234375,-0.3984375 0.328125,-0.703125 0.316406,-0.9609375 0,-0.2929687 -0.152343,-0.4921875 -0.351562,-0.4921875 -0.152344,0 -0.316406,0.1054688 -0.375,0.2460938 -0.03516,0.070312 -0.04687,0.1640625 -0.01172,0.2226562 0.03516,0.1054688 0.09375,0.2460938 0.09375,0.421875 0.01172,0.65625 -0.820312,1.8867188 -1.207031,2.47265626 z m 0,0"
           style="fill:#231f20;fill-opacity:1;fill-rule:nonzero;stroke:none" />
        <path
           id="path23"
           d="M 66.112881,1.1564531 C 65.9371,1.5431719 65.855069,1.5666094 65.526944,1.5666094 h -1.113282 l 0.84375,-0.90234377 c 0.550782,-0.5859375 0.796875,-0.9375 0.796875,-1.46484375 0,-0.62109378 -0.480468,-1.00781248 -1.007812,-1.00781248 -0.351563,0 -0.632813,0.1523437 -0.808594,0.3515625 l -0.339844,0.49218748 0.128907,0.1171875 c 0.152343,-0.23437498 0.410156,-0.56249998 0.808593,-0.56249998 0.445313,0 0.714844,0.2929687 0.714844,0.79687498 0,0.515625 -0.375,1.0078125 -0.75,1.453125 C 64.495694,1.1916094 64.167569,1.5314531 63.827725,1.8595781 v 0.140625 h 2.238281 c 0.08203,-0.2695312 0.140625,-0.5390625 0.210938,-0.7851562 z m 0,0"
           style="fill:#231f20;fill-opacity:1;fill-rule:nonzero;stroke:none" />
        <path
           id="path24"
           d="m 49.205655,45.681844 c 0.316406,-0.398438 0.492187,-0.515625 0.574218,-0.515625 0.09375,0 0.175782,0.128906 0.304688,0.574219 l 0.304687,0.9375 c -0.5625,0.832031 -0.984375,1.359375 -1.242187,1.359375 -0.09375,0 -0.164063,-0.03516 -0.210938,-0.09375 -0.04687,-0.05859 -0.09375,-0.09375 -0.140625,-0.09375 -0.175781,0 -0.363281,0.210937 -0.363281,0.421875 -0.01172,0.257812 0.175781,0.433593 0.410156,0.433593 0.421875,0 0.84375,-0.433593 1.640625,-1.699218 l 0.28125,0.878906 c 0.175782,0.5625 0.363282,0.820312 0.597657,0.820312 0.304687,0 0.726562,-0.328125 1.136718,-0.972656 L 52.34628,47.556844 c -0.28125,0.339844 -0.503907,0.515625 -0.644532,0.515625 -0.152343,0 -0.28125,-0.257813 -0.457031,-0.820313 l -0.292969,-0.902343 c 0.199219,-0.28125 0.398438,-0.527344 0.585938,-0.738282 0.234375,-0.292968 0.410156,-0.445312 0.539062,-0.445312 0.08203,0 0.152344,0.03516 0.210938,0.105469 0.04687,0.04687 0.08203,0.07031 0.128906,0.07031 0.140625,0 0.339844,-0.175781 0.351563,-0.398437 0,-0.199219 -0.140625,-0.386719 -0.375,-0.386719 -0.398438,0 -0.785157,0.386719 -1.535157,1.476562 l -0.152343,-0.492187 c -0.222657,-0.644531 -0.339844,-0.984375 -0.585938,-0.984375 -0.292969,0 -0.691406,0.386719 -1.066406,0.9375 z m 0,0"
           style="fill:#231f20;fill-opacity:1;fill-rule:nonzero;stroke:none" />
        <path
           id="path25"
           d="m 56.790616,48.99532 v -0.421875 h -0.867188 v -3.65625 h -0.351562 c -0.925782,1.21875 -1.851563,2.554688 -2.707032,3.832032 v 0.246093 h 2.34375 v 0.65625 c 0,0.585938 -0.03516,0.644532 -0.820312,0.703125 v 0.246094 h 2.308594 v -0.246094 c -0.726563,-0.05859 -0.773438,-0.105468 -0.773438,-0.703125 v -0.65625 z m -1.582032,-0.421875 h -1.769531 c 0.585938,-0.996093 1.171875,-1.851562 1.757813,-2.648437 h 0.01172 z m 1.204102,-1.133789 c -0.210938,0 -0.433594,0.140625 -0.433594,0.363282 0,0.152343 0.07031,0.222656 0.117188,0.234375 0.304687,0.07031 0.5625,0.269531 0.5625,0.597656 0,0.339844 -0.257813,0.574219 -0.691407,0.761719 l 0.09375,0.257812 c 0.550782,-0.164062 1.183594,-0.550781 1.183594,-1.242187 0,-0.632813 -0.503906,-0.972657 -0.832031,-0.972657 z m 0,0"
           style="fill:#231f20;fill-opacity:1;fill-rule:nonzero;stroke:none" />
        <path
           id="path26"
           d="m 61.820889,47.920125 c -0.05859,-0.808594 -0.117187,-1.628906 -0.210937,-2.308594 -0.07031,-0.714843 -0.210938,-1.054687 -0.457032,-1.054687 -0.328125,0 -0.773437,0.515625 -1.066406,0.960937 l 0.152344,0.210938 c 0.222656,-0.316406 0.457031,-0.527344 0.527344,-0.527344 0.07031,0 0.117187,0.117188 0.1875,0.5625 0.128906,0.820313 0.269531,2.226563 0.28125,2.929688 -0.445313,0.597656 -1.160157,1.394531 -2.121094,2.015625 l 0.07031,0.199218 0.9375,-0.234375 c 0.503907,-0.5625 1.089844,-1.359375 1.617188,-2.121093 0.480469,-0.667969 1.242187,-1.863282 1.628906,-2.542969 0.234375,-0.398438 0.328125,-0.703125 0.316406,-0.960938 0,-0.292968 -0.152343,-0.492187 -0.351562,-0.492187 -0.152344,0 -0.316406,0.105469 -0.375,0.246094 -0.03516,0.07031 -0.04687,0.164062 -0.01172,0.222656 0.03516,0.105469 0.09375,0.246094 0.09375,0.421875 0.01172,0.65625 -0.820312,1.886719 -1.207031,2.472656 z m 0,0"
           style="fill:#231f20;fill-opacity:1;fill-rule:nonzero;stroke:none" />
        <path
           id="path27"
           d="m 66.370694,49.534383 v -0.28125 H 65.796475 V 46.803914 H 65.5621 c -0.621094,0.820313 -1.230469,1.710938 -1.804688,2.566406 v 0.164063 h 1.558594 v 0.433594 c 0,0.398437 -0.02344,0.433593 -0.539062,0.46875 v 0.164062 H 66.3121 v -0.164062 c -0.492188,-0.03516 -0.515625,-0.07031 -0.515625,-0.46875 v -0.433594 z m -1.054688,-0.28125 h -1.183594 c 0.398438,-0.667969 0.796875,-1.242188 1.171875,-1.769531 h 0.01172 z m 0,0"
           style="fill:#231f20;fill-opacity:1;fill-rule:nonzero;stroke:none" />
        <path
           id="path28"
           d="m 132.62558,-28.594523 h -1.05469 l 0.31641,-1.359375 -0.082,-0.04687 -0.67968,0.550781 -0.21094,0.855469 h -0.53906 l -0.22266,0.269531 0.0234,0.08203 h 0.66797 l -0.52735,2.472656 c -0.19922,0.925782 -0.0234,1.183594 0.1875,1.183594 0.48047,0 1.14844,-0.597656 1.45313,-0.960937 l -0.12891,-0.1875 c -0.21094,0.222656 -0.65625,0.515625 -0.80859,0.515625 -0.10547,0 -0.14063,-0.09375 -0.0586,-0.539063 l 0.53907,-2.484375 0.89062,-0.03516 z m 0,0"
           style="fill:#231f20;fill-opacity:1;fill-rule:nonzero;stroke:none" />
        <path
           id="path29"
           d="m 134.64999,-22.691203 v -0.164063 c -0.55078,-0.03516 -0.58594,-0.09375 -0.58594,-0.515625 v -3.128906 c -0.32812,0.128906 -0.67968,0.246094 -1.0664,0.316406 v 0.128907 l 0.28125,0.01172 c 0.26953,0.01172 0.29297,0.04687 0.29297,0.363282 v 2.308593 c 0,0.421875 -0.0352,0.480469 -0.57422,0.515625 v 0.164063 z m 0,0"
           style="fill:#231f20;fill-opacity:1;fill-rule:nonzero;stroke:none" />
        <path
           id="path30"
           d="m 132.32382,3.6466875 h -1.05469 l 0.31641,-1.359375 -0.082,-0.046875 -0.67969,0.5507813 -0.21094,0.8554687 h -0.53906 l -0.22266,0.2695313 0.0234,0.082031 h 0.66797 l -0.52735,2.4726563 c -0.19921,0.9257812 -0.0234,1.1835937 0.1875,1.1835937 0.48047,0 1.14844,-0.5976562 1.45313,-0.9609375 l -0.12891,-0.1875 c -0.21093,0.2226563 -0.65625,0.515625 -0.80859,0.515625 -0.10547,0 -0.14063,-0.09375 -0.0586,-0.5390625 l 0.53906,-2.484375 0.89062,-0.035156 z m 0,0"
           style="fill:#231f20;fill-opacity:1;fill-rule:nonzero;stroke:none" />
        <path
           id="path31"
           d="m 134.5123,8.7062578 c -0.17579,0.3867188 -0.25782,0.4101563 -0.58594,0.4101563 h -1.11328 l 0.84375,-0.9023438 c 0.55078,-0.5859375 0.79687,-0.9375 0.79687,-1.4648437 0,-0.6210938 -0.48047,-1.0078125 -1.00781,-1.0078125 -0.35156,0 -0.63281,0.1523437 -0.80859,0.3515625 l -0.33985,0.4921875 0.12891,0.1171875 c 0.15234,-0.234375 0.41015,-0.5625 0.80859,-0.5625 0.44531,0 0.71485,0.2929687 0.71485,0.796875 0,0.515625 -0.375,1.0078125 -0.75,1.453125 -0.30469,0.3515625 -0.63282,0.6914062 -0.97266,1.0195312 v 0.140625 h 2.23828 c 0.082,-0.2695312 0.14063,-0.5390625 0.21094,-0.7851562 z m 0,0"
           style="fill:#231f20;fill-opacity:1;fill-rule:nonzero;stroke:none" />
        <path
           id="path32"
           d="m 132.35019,35.890828 h -1.05469 l 0.3164,-1.359375 -0.082,-0.04687 -0.67968,0.550781 -0.21094,0.855469 h -0.53906 l -0.22266,0.269531 0.0234,0.08203 h 0.66797 l -0.52735,2.472656 c -0.19922,0.925781 -0.0234,1.183594 0.1875,1.183594 0.48047,0 1.14844,-0.597657 1.45313,-0.960938 l -0.12891,-0.1875 c -0.21094,0.222656 -0.65625,0.515625 -0.80859,0.515625 -0.10547,0 -0.14063,-0.09375 -0.0586,-0.539062 l 0.53907,-2.484375 0.89062,-0.03516 z m 0,0"
           style="fill:#231f20;fill-opacity:1;fill-rule:nonzero;stroke:none" />
        <path
           id="path33"
           d="m 132.58163,38.814656 c 0.14063,-0.222656 0.38672,-0.46875 0.71484,-0.46875 0.31641,0 0.57422,0.1875 0.57422,0.5625 0,0.445313 -0.41015,0.679688 -0.96093,0.84375 l 0.0351,0.175782 c 0.0937,-0.02344 0.2461,-0.05859 0.38672,-0.05859 0.33984,0 0.76172,0.222656 0.76172,0.773437 0,0.585938 -0.30469,0.914063 -0.72656,0.914063 -0.33985,0 -0.58594,-0.175781 -0.73828,-0.316406 -0.0469,-0.03516 -0.10547,-0.03516 -0.15235,0 -0.0469,0.04687 -0.1289,0.128906 -0.1289,0.199218 -0.0117,0.07031 0.0117,0.140625 0.0937,0.222657 0.0703,0.07031 0.3164,0.199218 0.59765,0.199218 0.4336,0 1.57031,-0.445312 1.57031,-1.417968 0,-0.433594 -0.30468,-0.808594 -0.83203,-0.914063 v -0.01172 c 0.17578,-0.117187 0.31641,-0.222656 0.41016,-0.316406 0.10547,-0.117187 0.1875,-0.257812 0.1875,-0.433594 0,-0.445312 -0.36328,-0.785156 -0.90234,-0.785156 -0.31641,0 -0.58594,0.152344 -0.76172,0.339844 l -0.25782,0.375 z m 0,0"
           style="fill:#231f20;fill-opacity:1;fill-rule:nonzero;stroke:none" />
        <path
           id="path34"
           d="m 132.15976,68.129109 h -1.05469 l 0.3164,-1.359375 -0.082,-0.04687 -0.67968,0.550782 -0.21094,0.855468 h -0.53906 l -0.22266,0.269532 0.0234,0.08203 h 0.66797 l -0.52735,2.472656 c -0.19922,0.925781 -0.0234,1.183594 0.1875,1.183594 0.48047,0 1.14844,-0.597656 1.45313,-0.960938 l -0.12891,-0.1875 c -0.21094,0.222657 -0.65625,0.515625 -0.80859,0.515625 -0.10547,0 -0.14063,-0.09375 -0.0586,-0.539062 l 0.53907,-2.484375 0.89062,-0.03516 z m 0,0"
           style="fill:#231f20;fill-opacity:1;fill-rule:nonzero;stroke:none" />
        <path
           id="path35"
           d="m 134.60605,72.966023 v -0.28125 h -0.57422 v -2.449218 h -0.23438 c -0.62109,0.820312 -1.23047,1.710937 -1.80469,2.566406 v 0.164062 h 1.5586 v 0.433594 c 0,0.398438 -0.0234,0.433594 -0.53906,0.46875 v 0.164063 h 1.53515 v -0.164063 c -0.49219,-0.03516 -0.51562,-0.07031 -0.51562,-0.46875 v -0.433594 z m -1.05469,-0.28125 h -1.1836 c 0.39844,-0.667968 0.79688,-1.242187 1.17188,-1.769531 h 0.0117 z m 0,0"
           style="fill:#231f20;fill-opacity:1;fill-rule:nonzero;stroke:none" />
        <path
           id="path36"
           d="m 199.26132,-1.0320234 c -0.2461,0.25781246 -0.57422,0.46874996 -0.64453,0.46874996 -0.0703,0 -0.082,-0.0703125 -0.0352,-0.3515625 0.22266,-1.16015626 0.45703,-2.16796876 0.70313,-3.12890626 h -0.0937 l -0.6211,0.234375 c -0.11719,0.5507813 -0.22265,1.03125 -0.32812,1.4414063 -0.35157,0.65625 -1.35938,1.86328121 -1.86328,1.86328121 -0.12891,0 -0.21094,-0.15234375 -0.10547,-0.59765621 0.16406,-0.7148438 0.32812,-1.4414063 0.49218,-2.15625 0.14063,-0.5976563 0.10547,-0.7851563 -0.0937,-0.7851563 -0.24609,0 -0.80859,0.328125 -1.32421,0.84375 l 0.0937,0.2226563 c 0.3164,-0.2578125 0.57421,-0.4335938 0.63281,-0.4335938 0.0703,0 0.082,0.082031 0.0234,0.3046875 -0.16407,0.6796875 -0.31641,1.3828125 -0.48047,2.0742188 -0.23438,0.97265621 0.0469,1.13671871 0.29297,1.13671871 0.22265,0 0.48046,-0.09375 0.72656,-0.28125 0.48047,-0.328125 1.00781,-0.87890621 1.45312,-1.46484371 h 0.0234 c -0.0703,0.3046875 -0.10547,0.4804687 -0.17578,0.79687496 -0.17578,0.78515625 -0.0586,0.94921875 0.12891,0.94921875 0.28125,0 0.8789,-0.3984375 1.3125,-0.9140625 z m 0,0"
           style="fill:#231f20;fill-opacity:1;fill-rule:nonzero;stroke:none" />
        <path
           id="path37"
           d="M 203.08749,2.0002031 V 1.7541094 c -0.82031,-0.058594 -0.87891,-0.1289063 -0.87891,-0.78515627 V -3.7185469 c -0.49218,0.1992188 -1.01953,0.375 -1.59375,0.46875 v 0.2109375 l 0.4336,0.011719 c 0.38672,0.023437 0.42187,0.070312 0.42187,0.5390625 v 3.45703123 c 0,0.65624997 -0.0352,0.72656247 -0.85547,0.78515627 v 0.2460937 z m 0.2666,-3.1611328 c -0.21094,0 -0.43359,0.140625 -0.43359,0.36328126 0,0.15234375 0.0703,0.22265625 0.11719,0.234375 0.30468,0.0703125 0.5625,0.26953125 0.5625,0.59765625 0,0.33984375 -0.25782,0.57421875 -0.69141,0.76171875 l 0.0937,0.25781254 c 0.55078,-0.16406254 1.18359,-0.55078129 1.18359,-1.24218754 0,-0.6328125 -0.5039,-0.97265626 -0.83203,-0.97265626 z m 0,0"
           style="fill:#231f20;fill-opacity:1;fill-rule:nonzero;stroke:none" />
        <path
           id="path38"
           d="m 208.57187,-0.78592969 c -0.0234,-0.73828121 -0.082,-1.46484371 -0.11719,-2.26171871 -0.0469,-0.65625 -0.16406,-0.9960938 -0.39844,-0.9960938 -0.28125,0 -0.73828,0.46875 -1.06641,0.9375 l 0.14063,0.1992188 c 0.29297,-0.328125 0.45703,-0.4804688 0.53906,-0.4804688 0.0586,0 0.11719,0.1523438 0.15235,0.6914063 0.0469,0.5507812 0.15234,1.96874996 0.17578,2.80078121 h 0.24609 c 0.53906,-0.66796875 1.33594,-1.69921871 1.86328,-2.42578121 0.41016,-0.5742188 0.55078,-0.9257813 0.55078,-1.2070313 0,-0.3046875 -0.16406,-0.515625 -0.38672,-0.515625 -0.16406,0 -0.3164,0.1171875 -0.38671,0.2578125 -0.0234,0.082031 -0.0234,0.1523438 0,0.234375 0.0703,0.09375 0.10546,0.234375 0.10546,0.3867188 0,0.609375 -1.03125,1.921875 -1.39453,2.37890621 z m 0,0"
           style="fill:#231f20;fill-opacity:1;fill-rule:nonzero;stroke:none" />
        <path
           id="path39"
           d="M 212.93417,2.0002031 V 1.8361406 c -0.55078,-0.035156 -0.58594,-0.09375 -0.58594,-0.515625 v -3.1289062 c -0.32812,0.1289062 -0.67968,0.2460937 -1.0664,0.3164062 v 0.1289063 l 0.28125,0.011719 c 0.26953,0.011719 0.29297,0.046875 0.29297,0.36328128 V 1.3205156 c 0,0.421875 -0.0352,0.4804688 -0.57422,0.515625 v 0.1640625 z m 0,0"
           style="fill:#231f20;fill-opacity:1;fill-rule:nonzero;stroke:none" />
        <path
           id="path40"
           d="m 199.26132,47.050008 c -0.2461,0.257812 -0.57422,0.46875 -0.64453,0.46875 -0.0703,0 -0.082,-0.07031 -0.0352,-0.351563 0.22266,-1.160156 0.45703,-2.167968 0.70313,-3.128906 h -0.0937 l -0.6211,0.234375 c -0.11719,0.550781 -0.22265,1.03125 -0.32812,1.441406 -0.35157,0.65625 -1.35938,1.863282 -1.86328,1.863282 -0.12891,0 -0.21094,-0.152344 -0.10547,-0.597657 0.16406,-0.714843 0.32812,-1.441406 0.49218,-2.15625 0.14063,-0.597656 0.10547,-0.785156 -0.0937,-0.785156 -0.24609,0 -0.80859,0.328125 -1.32421,0.84375 l 0.0937,0.222656 c 0.3164,-0.257812 0.57421,-0.433593 0.63281,-0.433593 0.0703,0 0.082,0.08203 0.0234,0.304687 -0.16407,0.679688 -0.31641,1.382813 -0.48047,2.074219 -0.23438,0.972656 0.0469,1.136719 0.29297,1.136719 0.22265,0 0.48046,-0.09375 0.72656,-0.28125 0.48047,-0.328125 1.00781,-0.878907 1.45312,-1.464844 h 0.0234 c -0.0703,0.304687 -0.10547,0.480469 -0.17578,0.796875 -0.17578,0.785156 -0.0586,0.949219 0.12891,0.949219 0.28125,0 0.8789,-0.398438 1.3125,-0.914063 z m 0,0"
           style="fill:#231f20;fill-opacity:1;fill-rule:nonzero;stroke:none" />
        <path
           id="path41"
           d="m 200.39218,45.614461 c 0.22265,-0.328125 0.58594,-0.714844 1.07812,-0.714844 0.48047,0 0.85547,0.292969 0.85547,0.855469 0,0.65625 -0.60937,1.007812 -1.42969,1.277344 l 0.0586,0.257812 c 0.14062,-0.04687 0.36328,-0.105469 0.57422,-0.105469 0.51562,0 1.14843,0.339844 1.14843,1.171875 0,0.890625 -0.45703,1.359375 -1.08984,1.359375 -0.51562,0 -0.89062,-0.246093 -1.125,-0.457031 -0.0703,-0.05859 -0.14062,-0.04687 -0.21094,0 -0.082,0.05859 -0.19922,0.175781 -0.21093,0.292969 -0.0117,0.117187 0.0234,0.210937 0.15234,0.328125 0.11719,0.105469 0.48047,0.304687 0.89062,0.304687 0.65625,0 2.36719,-0.667968 2.36719,-2.121093 0,-0.65625 -0.46875,-1.21875 -1.2539,-1.371094 v -0.01172 c 0.25781,-0.1875 0.48046,-0.339844 0.60937,-0.492187 0.17578,-0.164063 0.28125,-0.375 0.28125,-0.632813 0,-0.691406 -0.52734,-1.195312 -1.34766,-1.195312 -0.46875,0 -0.89062,0.234375 -1.13671,0.503906 l -0.39844,0.574219 z m 2.96191,1.306641 c -0.21094,0 -0.43359,0.140625 -0.43359,0.363281 0,0.152344 0.0703,0.222656 0.11719,0.234375 0.30468,0.07031 0.5625,0.269531 0.5625,0.597656 0,0.339844 -0.25782,0.574219 -0.69141,0.761719 l 0.0937,0.257812 c 0.55078,-0.164062 1.18359,-0.550781 1.18359,-1.242187 0,-0.632813 -0.5039,-0.972656 -0.83203,-0.972656 z m 0,0"
           style="fill:#231f20;fill-opacity:1;fill-rule:nonzero;stroke:none" />
        <path
           id="path42"
           d="m 208.57187,47.296102 c -0.0234,-0.738282 -0.082,-1.464844 -0.11719,-2.261719 -0.0469,-0.65625 -0.16406,-0.996094 -0.39844,-0.996094 -0.28125,0 -0.73828,0.46875 -1.06641,0.9375 l 0.14063,0.199219 c 0.29297,-0.328125 0.45703,-0.480469 0.53906,-0.480469 0.0586,0 0.11719,0.152344 0.15235,0.691406 0.0469,0.550782 0.15234,1.96875 0.17578,2.800782 h 0.24609 c 0.53906,-0.667969 1.33594,-1.699219 1.86328,-2.425782 0.41016,-0.574218 0.55078,-0.925781 0.55078,-1.207031 0,-0.304687 -0.16406,-0.515625 -0.38672,-0.515625 -0.16406,0 -0.3164,0.117188 -0.38671,0.257813 -0.0234,0.08203 -0.0234,0.152343 0,0.234375 0.0703,0.09375 0.10546,0.234375 0.10546,0.386718 0,0.609375 -1.03125,1.921875 -1.39453,2.378907 z m 0,0"
           style="fill:#231f20;fill-opacity:1;fill-rule:nonzero;stroke:none" />
        <path
           id="path43"
           d="m 211.1412,47.102742 c 0.14063,-0.222656 0.38672,-0.46875 0.71485,-0.46875 0.3164,0 0.57421,0.1875 0.57421,0.5625 0,0.445313 -0.41015,0.679688 -0.96093,0.84375 l 0.0351,0.175781 c 0.0937,-0.02344 0.2461,-0.05859 0.38672,-0.05859 0.33985,0 0.76172,0.222656 0.76172,0.773437 0,0.585938 -0.30469,0.914063 -0.72656,0.914063 -0.33985,0 -0.58594,-0.175782 -0.73828,-0.316407 -0.0469,-0.03516 -0.10547,-0.03516 -0.15235,0 -0.0469,0.04687 -0.1289,0.128907 -0.1289,0.199219 -0.0117,0.07031 0.0117,0.140625 0.0937,0.222656 0.0703,0.07031 0.3164,0.199219 0.59765,0.199219 0.4336,0 1.57032,-0.445312 1.57032,-1.417969 0,-0.433593 -0.30469,-0.808593 -0.83204,-0.914062 v -0.01172 c 0.17579,-0.117187 0.31641,-0.222656 0.41016,-0.316406 0.10547,-0.117188 0.1875,-0.257813 0.1875,-0.433594 0,-0.445312 -0.36328,-0.785156 -0.90234,-0.785156 -0.31641,0 -0.58594,0.152344 -0.76172,0.339844 l -0.25781,0.375 z m 0,0"
           style="fill:#231f20;fill-opacity:1;fill-rule:nonzero;stroke:none" />
        <path
           id="path44"
           d="m 247.24667,-1.0320234 c -0.24609,0.25781246 -0.57422,0.46874996 -0.64453,0.46874996 -0.0703,0 -0.082,-0.0703125 -0.0352,-0.3515625 0.22266,-1.16015626 0.45703,-2.16796876 0.70313,-3.12890626 h -0.0937 l -0.6211,0.234375 c -0.11718,0.5507813 -0.22265,1.03125 -0.32812,1.4414063 -0.35156,0.65625 -1.35938,1.86328121 -1.86328,1.86328121 -0.12891,0 -0.21094,-0.15234375 -0.10547,-0.59765621 0.16406,-0.7148438 0.32812,-1.4414063 0.49219,-2.15625 0.14062,-0.5976563 0.10547,-0.7851563 -0.0937,-0.7851563 -0.2461,0 -0.8086,0.328125 -1.32422,0.84375 l 0.0937,0.2226563 c 0.3164,-0.2578125 0.57422,-0.4335938 0.63281,-0.4335938 0.0703,0 0.082,0.082031 0.0234,0.3046875 -0.16406,0.6796875 -0.31641,1.3828125 -0.48047,2.0742188 -0.23438,0.97265621 0.0469,1.13671871 0.29297,1.13671871 0.22265,0 0.48047,-0.09375 0.72656,-0.28125 0.48047,-0.328125 1.00781,-0.87890621 1.45313,-1.46484371 h 0.0234 c -0.0703,0.3046875 -0.10547,0.4804687 -0.17578,0.79687496 -0.17578,0.78515625 -0.0586,0.94921875 0.12891,0.94921875 0.28125,0 0.8789,-0.3984375 1.3125,-0.9140625 z m 0,0"
           style="fill:#231f20;fill-opacity:1;fill-rule:nonzero;stroke:none" />
        <path
           id="path45"
           d="M 251.31894,0.73457813 C 251.0494,1.3087969 250.93222,1.3439531 250.45175,1.3439531 h -1.6875 l 1.27734,-1.33593747 c 0.83203,-0.890625 1.19531,-1.41796873 1.19531,-2.20312503 0,-0.9492187 -0.72656,-1.5234375 -1.51171,-1.5234375 -0.52735,0 -0.94922,0.234375 -1.21875,0.5390625 l -0.51563,0.7265625 0.19922,0.1757813 c 0.23437,-0.3515625 0.60937,-0.8320313 1.23047,-0.8320313 0.65625,0 1.05469,0.4335938 1.05469,1.1953125 0,0.7734375 -0.5625,1.51171878 -1.125,2.17968753 -0.44532,0.515625 -0.94922,1.03124997 -1.45313,1.52343747 v 0.2109375 h 3.36328 c 0.10547,-0.4101562 0.19922,-0.796875 0.31641,-1.18359372 z m 0.0205,-1.89550783 c -0.21093,0 -0.43359,0.140625 -0.43359,0.36328126 0,0.15234375 0.0703,0.22265625 0.11719,0.234375 0.30468,0.0703125 0.5625,0.26953125 0.5625,0.59765625 0,0.33984375 -0.25782,0.57421875 -0.69141,0.76171875 l 0.0937,0.25781254 c 0.55078,-0.16406254 1.18359,-0.55078129 1.18359,-1.24218754 0,-0.6328125 -0.5039,-0.97265626 -0.83203,-0.97265626 z m 0,0"
           style="fill:#231f20;fill-opacity:1;fill-rule:nonzero;stroke:none" />
        <path
           id="path46"
           d="m 256.56015,-0.78592969 c -0.0234,-0.73828121 -0.082,-1.46484371 -0.11719,-2.26171871 -0.0469,-0.65625 -0.16406,-0.9960938 -0.39844,-0.9960938 -0.28125,0 -0.73828,0.46875 -1.0664,0.9375 l 0.14062,0.1992188 c 0.29297,-0.328125 0.45703,-0.4804688 0.53906,-0.4804688 0.0586,0 0.11719,0.1523438 0.15235,0.6914063 0.0469,0.5507812 0.15234,1.96874996 0.17578,2.80078121 h 0.24609 c 0.53906,-0.66796875 1.33594,-1.69921871 1.86328,-2.42578121 0.41016,-0.5742188 0.55078,-0.9257813 0.55078,-1.2070313 0,-0.3046875 -0.16406,-0.515625 -0.38671,-0.515625 -0.16407,0 -0.31641,0.1171875 -0.38672,0.2578125 -0.0234,0.082031 -0.0234,0.1523438 0,0.234375 0.0703,0.09375 0.10547,0.234375 0.10547,0.3867188 0,0.609375 -1.03125,1.921875 -1.39454,2.37890621 z m 0,0"
           style="fill:#231f20;fill-opacity:1;fill-rule:nonzero;stroke:none" />
        <path
           id="path47"
           d="m 261.08651,1.1564531 c -0.17578,0.3867188 -0.25781,0.4101563 -0.58593,0.4101563 h -1.11328 l 0.84375,-0.90234377 c 0.55078,-0.5859375 0.79687,-0.9375 0.79687,-1.46484375 0,-0.62109378 -0.48047,-1.00781248 -1.00781,-1.00781248 -0.35156,0 -0.63281,0.1523437 -0.8086,0.3515625 l -0.33984,0.49218748 0.12891,0.1171875 c 0.15234,-0.23437498 0.41015,-0.56249998 0.80859,-0.56249998 0.44531,0 0.71484,0.2929687 0.71484,0.79687498 0,0.515625 -0.375,1.0078125 -0.75,1.453125 -0.30468,0.35156252 -0.63281,0.69140622 -0.97265,1.01953122 v 0.140625 h 2.23828 c 0.082,-0.2695312 0.14062,-0.5390625 0.21094,-0.7851562 z m 0,0"
           style="fill:#231f20;fill-opacity:1;fill-rule:nonzero;stroke:none" />
        <path
           id="path48"
           d="m 247.24667,47.050008 c -0.24609,0.257812 -0.57422,0.46875 -0.64453,0.46875 -0.0703,0 -0.082,-0.07031 -0.0352,-0.351563 0.22266,-1.160156 0.45703,-2.167968 0.70313,-3.128906 h -0.0937 l -0.6211,0.234375 c -0.11718,0.550781 -0.22265,1.03125 -0.32812,1.441406 -0.35156,0.65625 -1.35938,1.863282 -1.86328,1.863282 -0.12891,0 -0.21094,-0.152344 -0.10547,-0.597657 0.16406,-0.714843 0.32812,-1.441406 0.49219,-2.15625 0.14062,-0.597656 0.10547,-0.785156 -0.0937,-0.785156 -0.2461,0 -0.8086,0.328125 -1.32422,0.84375 l 0.0937,0.222656 c 0.3164,-0.257812 0.57422,-0.433593 0.63281,-0.433593 0.0703,0 0.082,0.08203 0.0234,0.304687 -0.16406,0.679688 -0.31641,1.382813 -0.48047,2.074219 -0.23438,0.972656 0.0469,1.136719 0.29297,1.136719 0.22265,0 0.48047,-0.09375 0.72656,-0.28125 0.48047,-0.328125 1.00781,-0.878907 1.45313,-1.464844 h 0.0234 c -0.0703,0.304687 -0.10547,0.480469 -0.17578,0.796875 -0.17578,0.785156 -0.0586,0.949219 0.12891,0.949219 0.28125,0 0.8789,-0.398438 1.3125,-0.914063 z m 0,0"
           style="fill:#231f20;fill-opacity:1;fill-rule:nonzero;stroke:none" />
        <path
           id="path49"
           d="m 251.71737,48.473836 v -0.421875 h -0.86718 v -3.65625 h -0.35157 c -0.92578,1.21875 -1.85156,2.554687 -2.70703,3.832031 v 0.246094 h 2.34375 v 0.65625 c 0,0.585937 -0.0352,0.644531 -0.82031,0.703125 v 0.246094 h 2.30859 v -0.246094 c -0.72656,-0.05859 -0.77343,-0.105469 -0.77343,-0.703125 v -0.65625 z m -1.58203,-0.421875 h -1.76953 c 0.58594,-0.996094 1.17188,-1.851563 1.75781,-2.648438 h 0.0117 z m 1.2041,-1.130859 c -0.21093,0 -0.43359,0.140625 -0.43359,0.363281 0,0.152344 0.0703,0.222656 0.11719,0.234375 0.30468,0.07031 0.5625,0.269531 0.5625,0.597656 0,0.339844 -0.25782,0.574219 -0.69141,0.761719 l 0.0937,0.257812 c 0.55078,-0.164062 1.18359,-0.550781 1.18359,-1.242187 0,-0.632813 -0.5039,-0.972656 -0.83203,-0.972656 z m 0,0"
           style="fill:#231f20;fill-opacity:1;fill-rule:nonzero;stroke:none" />
        <path
           id="path50"
           d="m 256.56015,47.296102 c -0.0234,-0.738282 -0.082,-1.464844 -0.11719,-2.261719 -0.0469,-0.65625 -0.16406,-0.996094 -0.39844,-0.996094 -0.28125,0 -0.73828,0.46875 -1.0664,0.9375 l 0.14062,0.199219 c 0.29297,-0.328125 0.45703,-0.480469 0.53906,-0.480469 0.0586,0 0.11719,0.152344 0.15235,0.691406 0.0469,0.550782 0.15234,1.96875 0.17578,2.800782 h 0.24609 c 0.53906,-0.667969 1.33594,-1.699219 1.86328,-2.425782 0.41016,-0.574218 0.55078,-0.925781 0.55078,-1.207031 0,-0.304687 -0.16406,-0.515625 -0.38671,-0.515625 -0.16407,0 -0.31641,0.117188 -0.38672,0.257813 -0.0234,0.08203 -0.0234,0.152343 0,0.234375 0.0703,0.09375 0.10547,0.234375 0.10547,0.386718 0,0.609375 -1.03125,1.921875 -1.39454,2.378907 z m 0,0"
           style="fill:#231f20;fill-opacity:1;fill-rule:nonzero;stroke:none" />
        <path
           id="path51"
           d="m 261.34433,49.012898 v -0.28125 h -0.57422 V 46.28243 h -0.23438 c -0.62109,0.820312 -1.23047,1.710937 -1.80468,2.566406 v 0.164062 h 1.55859 v 0.433594 c 0,0.398438 -0.0234,0.433594 -0.53906,0.46875 v 0.164063 h 1.53515 v -0.164063 c -0.49218,-0.03516 -0.51562,-0.07031 -0.51562,-0.46875 v -0.433594 z m -1.05469,-0.28125 h -1.18359 c 0.39843,-0.667968 0.79687,-1.242187 1.17187,-1.769531 h 0.0117 z m 0,0"
           style="fill:#231f20;fill-opacity:1;fill-rule:nonzero;stroke:none" />
      </g>
      <path
         id="path52"
         d="m 260.309,1142.1 v 109.13 H 1129.07 V 814.988 h 131.5"
         style="fill:none;stroke:#231f20;stroke-width:5;stroke-linecap:butt;stroke-linejoin:miter;stroke-miterlimit:10;stroke-dasharray:none;stroke-opacity:1"
         transform="matrix(0.13333333,0,0,-0.13333333,0,173.48)" />
      <path
         id="path53"
         d="m 1251.6,814.988 -10.96,18.016 0.61,0.406 29.38,-11.664 c 10.23,-2.258 20.47,-4.504 30.7,-6.758 -10.23,-2.254 -20.47,-4.504 -30.7,-6.758 l -29.38,-11.667 -0.61,0.308 10.96,18.117"
         style="fill:#231f20;fill-opacity:1;fill-rule:nonzero;stroke:none"
         transform="matrix(0.13333333,0,0,-0.13333333,0,173.48)" />
      <path
         id="path54"
         d="M 225.133,164.289 V 74.6016 h 951.427 v 93.2074 h 84.01"
         style="fill:none;stroke:#231f20;stroke-width:5;stroke-linecap:butt;stroke-linejoin:miter;stroke-miterlimit:10;stroke-dasharray:none;stroke-opacity:1"
         transform="matrix(0.13333333,0,0,-0.13333333,0,173.48)" />
      <path
         id="path55"
         d="m 1251.6,167.809 -10.96,18.019 0.61,0.402 29.38,-11.66 c 10.23,-2.261 20.47,-4.5 30.7,-6.761 -10.23,-2.25 -20.47,-4.5 -30.7,-6.758 l -29.38,-11.66 -0.61,0.3 10.96,18.118"
         style="fill:#231f20;fill-opacity:1;fill-rule:nonzero;stroke:none"
         transform="matrix(0.13333333,0,0,-0.13333333,0,173.48)" />
      <path
         id="path56"
         d="m 740.414,1143.86 v 36.93 h 309.526 v -42.22 h 208.87"
         style="fill:none;stroke:#231f20;stroke-width:5;stroke-linecap:butt;stroke-linejoin:miter;stroke-miterlimit:10;stroke-dasharray:none;stroke-opacity:1"
         transform="matrix(0.13333333,0,0,-0.13333333,0,173.48)" />
      <path
         id="path57"
         d="m 1249.84,1138.57 -10.96,18.02 0.62,0.41 29.37,-11.67 c 10.24,-2.25 20.47,-4.5 30.71,-6.76 -10.24,-2.25 -20.47,-4.5 -30.71,-6.75 l -29.37,-11.67 -0.62,0.31 10.96,18.11"
         style="fill:#231f20;fill-opacity:1;fill-rule:nonzero;stroke:none"
         transform="matrix(0.13333333,0,0,-0.13333333,0,173.48)" />
      <path
         id="path58"
         d="M 696.449,167.809 V 123.84 h 355.241 v 362.281 h 207.12"
         style="fill:none;stroke:#231f20;stroke-width:5;stroke-linecap:butt;stroke-linejoin:miter;stroke-miterlimit:10;stroke-dasharray:none;stroke-opacity:1"
         transform="matrix(0.13333333,0,0,-0.13333333,0,173.48)" />
      <path
         id="path59"
         d="m 1249.84,486.121 -10.96,18.016 0.62,0.406 29.37,-11.664 c 10.24,-2.258 20.47,-4.504 30.71,-6.758 -10.24,-2.254 -20.47,-4.504 -30.71,-6.758 l -29.37,-11.668 -0.62,0.309 10.96,18.117"
         style="fill:#231f20;fill-opacity:1;fill-rule:nonzero;stroke:none"
         transform="matrix(0.13333333,0,0,-0.13333333,0,173.48)" />
      <path
         id="path60"
         d="m 1628.44,1140.33 h 151.33 V 897.645 h 128.81"
         style="fill:none;stroke:#231f20;stroke-width:5;stroke-linecap:butt;stroke-linejoin:miter;stroke-miterlimit:10;stroke-dasharray:none;stroke-opacity:1"
         transform="matrix(0.13333333,0,0,-0.13333333,0,173.48)" />
      <path
         id="path61"
         d="m 1899.6,897.645 -10.95,18.015 0.61,0.406 29.38,-11.664 c 10.23,-2.257 20.47,-4.504 30.7,-6.757 -10.23,-2.254 -20.47,-4.504 -30.7,-6.758 l -29.38,-11.668 -0.61,0.308 10.95,18.118"
         style="fill:#231f20;fill-opacity:1;fill-rule:nonzero;stroke:none"
         transform="matrix(0.13333333,0,0,-0.13333333,0,173.48)" />
      <path
         id="path62"
         d="m 1624.93,811.473 h 75.7 V 34.6992 h 967.25 v 86.5628"
         style="fill:none;stroke:#231f20;stroke-width:5;stroke-linecap:butt;stroke-linejoin:miter;stroke-miterlimit:10;stroke-dasharray:none;stroke-opacity:1"
         transform="matrix(0.13333333,0,0,-0.13333333,0,173.48)" />
      <path
         id="path63"
         d="m 2667.88,112.289 -18.02,-10.961 -0.4,0.613 11.66,29.379 c 2.25,10.231 4.5,20.469 6.76,30.7 2.24,-10.231 4.5,-20.469 6.75,-30.7 l 11.66,-29.379 -0.3,-0.613 -18.11,10.961"
         style="fill:#231f20;fill-opacity:1;fill-rule:nonzero;stroke:none"
         transform="matrix(0.13333333,0,0,-0.13333333,0,173.48)" />
      <path
         id="path64"
         d="m 1624.93,484.363 h 137.99 v -75.617 h 145.62"
         style="fill:none;stroke:#231f20;stroke-width:5;stroke-linecap:butt;stroke-linejoin:miter;stroke-miterlimit:10;stroke-dasharray:none;stroke-opacity:1"
         transform="matrix(0.13333333,0,0,-0.13333333,0,173.48)" />
      <path
         id="path65"
         d="m 1899.57,408.746 -10.96,18.02 0.61,0.406 29.38,-11.668 c 10.23,-2.254 20.47,-4.5 30.7,-6.758 -10.23,-2.25 -20.47,-4.5 -30.7,-6.758 l -29.38,-11.664 -0.61,0.309 10.96,18.113"
         style="fill:#231f20;fill-opacity:1;fill-rule:nonzero;stroke:none"
         transform="matrix(0.13333333,0,0,-0.13333333,0,173.48)" />
      <path
         id="path66"
         d="m 1624.93,168.051 h 199.12 V 1251.23 h 884.28 v -79.69"
         style="fill:none;stroke:#231f20;stroke-width:5;stroke-linecap:butt;stroke-linejoin:miter;stroke-miterlimit:10;stroke-dasharray:none;stroke-opacity:1"
         transform="matrix(0.13333333,0,0,-0.13333333,0,173.48)" />
      <path
         id="path67"
         d="m 2708.33,1180.52 18.01,10.95 0.4,-0.61 -11.66,-29.38 c -2.25,-10.23 -4.5,-20.47 -6.75,-30.7 -2.25,10.23 -4.51,20.47 -6.76,30.7 l -11.66,29.38 0.3,0.61 18.12,-10.95"
         style="fill:#231f20;fill-opacity:1;fill-rule:nonzero;stroke:none"
         transform="matrix(0.13333333,0,0,-0.13333333,0,173.48)" />
    </g>
  </g>
</svg>
