<?xml version="1.0" encoding="UTF-8" standalone="no"?>
<!-- Created with Inkscape (http://www.inkscape.org/) -->

<svg
   version="1.1"
   id="svg1"
   width="216.30667"
   height="216.30667"
   viewBox="0 0 216.30667 216.30667"
   sodipodi:docname="pha08f26.eps"
   xmlns:inkscape="http://www.inkscape.org/namespaces/inkscape"
   xmlns:sodipodi="http://sodipodi.sourceforge.net/DTD/sodipodi-0.dtd"
   xmlns="http://www.w3.org/2000/svg"
   xmlns:svg="http://www.w3.org/2000/svg">
  <defs
     id="defs1" />
  <sodipodi:namedview
     id="namedview1"
     pagecolor="#ffffff"
     bordercolor="#000000"
     borderopacity="0.25"
     inkscape:showpageshadow="2"
     inkscape:pageopacity="0.0"
     inkscape:pagecheckerboard="0"
     inkscape:deskcolor="#d1d1d1">
    <inkscape:page
       x="0"
       y="0"
       inkscape:label="1"
       id="page1"
       width="216.30667"
       height="216.30667"
       margin="0"
       bleed="0" />
  </sodipodi:namedview>
  <g
     id="g1"
     inkscape:groupmode="layer"
     inkscape:label="1">
    <g
       id="group-R5">
      <path
         id="path2"
         d="M 406.82,2.5 V 1619.8"
         style="fill:none;stroke:#a7a5a6;stroke-width:3.6;stroke-linecap:butt;stroke-linejoin:miter;stroke-miterlimit:3.25;stroke-dasharray:none;stroke-opacity:1"
         transform="matrix(0.13333333,0,0,-0.13333333,0,216.30667)" />
      <path
         id="path3"
         d="M 811.148,2.5 V 1619.8"
         style="fill:none;stroke:#a7a5a6;stroke-width:3.6;stroke-linecap:butt;stroke-linejoin:miter;stroke-miterlimit:3.25;stroke-dasharray:none;stroke-opacity:1"
         transform="matrix(0.13333333,0,0,-0.13333333,0,216.30667)" />
      <path
         id="path4"
         d="M 1215.47,2.5 V 1619.8"
         style="fill:none;stroke:#a7a5a6;stroke-width:3.6;stroke-linecap:butt;stroke-linejoin:miter;stroke-miterlimit:3.25;stroke-dasharray:none;stroke-opacity:1"
         transform="matrix(0.13333333,0,0,-0.13333333,0,216.30667)" />
      <path
         id="path5"
         d="M 1619.8,406.828 H 2.5"
         style="fill:none;stroke:#918f90;stroke-width:5;stroke-linecap:butt;stroke-linejoin:miter;stroke-miterlimit:3.25;stroke-dasharray:none;stroke-opacity:1"
         transform="matrix(0.13333333,0,0,-0.13333333,0,216.30667)" />
      <path
         id="path6"
         d="M 1619.8,811.152 H 2.5"
         style="fill:none;stroke:#918f90;stroke-width:5;stroke-linecap:butt;stroke-linejoin:miter;stroke-miterlimit:3.25;stroke-dasharray:none;stroke-opacity:1"
         transform="matrix(0.13333333,0,0,-0.13333333,0,216.30667)" />
      <path
         id="path7"
         d="M 1619.8,1215.48 H 2.5"
         style="fill:none;stroke:#918f90;stroke-width:5;stroke-linecap:butt;stroke-linejoin:miter;stroke-miterlimit:3.25;stroke-dasharray:none;stroke-opacity:1"
         transform="matrix(0.13333333,0,0,-0.13333333,0,216.30667)" />
      <path
         id="path8"
         d="M 1619.8,2.5 V 1619.8 H 2.5 V 2.5 Z"
         style="fill:none;stroke:#918f90;stroke-width:5;stroke-linecap:butt;stroke-linejoin:miter;stroke-miterlimit:3.25;stroke-dasharray:none;stroke-opacity:1"
         transform="matrix(0.13333333,0,0,-0.13333333,0,216.30667)" />
      <path
         id="path9"
         d="m 198.902,260.781 c 0,4.289 -1.695,8.41 -4.754,11.43 -3.011,3.039 -7.14,4.738 -11.418,4.738 -4.3,0 -8.41,-1.699 -11.453,-4.738 -3.019,-3.02 -4.714,-7.141 -4.714,-11.43 0,-4.281 1.695,-8.41 4.714,-11.422 3.043,-3.039 7.153,-4.75 11.453,-4.75 4.278,0 8.407,1.711 11.418,4.75 3.059,3.012 4.754,7.141 4.754,11.422 v 0"
         style="fill:#3871c1;fill-opacity:1;fill-rule:evenodd;stroke:none"
         transform="matrix(0.13333333,0,0,-0.13333333,0,216.30667)" />
      <path
         id="path10"
         d="m 158.383,543.91 c 0,4.301 -1.703,8.399 -4.715,11.449 -3.043,3.02 -7.148,4.719 -11.449,4.719 -4.289,0 -8.391,-1.699 -11.434,-4.719 -3.015,-3.05 -4.75,-7.148 -4.75,-11.449 0,-4.281 1.735,-8.41 4.75,-11.43 3.043,-3.039 7.145,-4.75 11.434,-4.75 4.301,0 8.406,1.711 11.449,4.75 3.012,3.02 4.715,7.149 4.715,11.43 v 0"
         style="fill:#3871c1;fill-opacity:1;fill-rule:evenodd;stroke:none"
         transform="matrix(0.13333333,0,0,-0.13333333,0,216.30667)" />
      <path
         id="path11"
         d="m 417.047,875.609 c 0,4.301 -1.727,8.407 -4.75,11.454 -3.043,3.011 -7.145,4.714 -11.422,4.714 -4.305,0 -8.41,-1.703 -11.449,-4.714 -3.024,-3.047 -4.746,-7.153 -4.746,-11.454 0,-4.285 1.722,-8.379 4.746,-11.433 3.039,-3.043 7.144,-4.738 11.449,-4.738 4.277,0 8.379,1.695 11.422,4.738 3.023,3.054 4.75,7.148 4.75,11.433 v 0"
         style="fill:#3871c1;fill-opacity:1;fill-rule:evenodd;stroke:none"
         transform="matrix(0.13333333,0,0,-0.13333333,0,216.30667)" />
      <path
         id="path12"
         d="m 92.0273,1296.36 c 0,4.29 -1.6953,8.41 -4.75,11.44 -3.0156,3.04 -7.1445,4.74 -11.4218,4.74 -4.3047,0 -8.4102,-1.7 -11.4492,-4.74 -3.0235,-3.03 -4.7188,-7.15 -4.7188,-11.44 0,-4.3 1.6953,-8.4 4.7188,-11.45 3.039,-3.01 7.1445,-4.71 11.4492,-4.71 4.2773,0 8.4062,1.7 11.4218,4.71 3.0547,3.05 4.75,7.15 4.75,11.45 v 0"
         style="fill:#3871c1;fill-opacity:1;fill-rule:evenodd;stroke:none"
         transform="matrix(0.13333333,0,0,-0.13333333,0,216.30667)" />
      <path
         id="path13"
         d="m 642.594,22.7383 c 0,4.2812 -1.692,8.4101 -4.707,11.4336 -3.047,3.0469 -7.149,4.75 -11.457,4.75 -4.278,0 -8.379,-1.7031 -11.414,-4.75 -3.067,-3.0235 -4.758,-7.1524 -4.758,-11.4336 0,-4.2969 1.691,-8.3985 4.758,-11.418 3.035,-3.05077 7.136,-4.74999 11.414,-4.74999 4.308,0 8.41,1.69922 11.457,4.74999 3.015,3.0195 4.707,7.1211 4.707,11.418 v 0"
         style="fill:#3871c1;fill-opacity:1;fill-rule:evenodd;stroke:none"
         transform="matrix(0.13333333,0,0,-0.13333333,0,216.30667)" />
      <path
         id="path14"
         d="m 462.551,505.59 c 0,4.269 -1.707,8.379 -4.719,11.422 -3.059,3.019 -7.148,4.75 -11.465,4.75 -4.273,0 -8.402,-1.731 -11.422,-4.75 -3.043,-3.043 -4.746,-7.153 -4.746,-11.422 0,-4.309 1.703,-8.41 4.746,-11.461 3.02,-3.02 7.149,-4.75 11.422,-4.75 4.317,0 8.406,1.73 11.465,4.75 3.012,3.051 4.719,7.152 4.719,11.461 v 0"
         style="fill:#3871c1;fill-opacity:1;fill-rule:evenodd;stroke:none"
         transform="matrix(0.13333333,0,0,-0.13333333,0,216.30667)" />
      <path
         id="path15"
         d="m 759.488,1202 c 0,4.31 -1.679,8.41 -4.746,11.46 -3.008,3.02 -7.148,4.72 -11.418,4.72 -4.304,0 -8.406,-1.7 -11.414,-4.72 -3.066,-3.05 -4.758,-7.15 -4.758,-11.46 0,-4.27 1.692,-8.38 4.758,-11.43 3.008,-3.03 7.11,-4.74 11.414,-4.74 4.27,0 8.41,1.71 11.418,4.74 3.067,3.05 4.746,7.16 4.746,11.43 v 0"
         style="fill:#3871c1;fill-opacity:1;fill-rule:evenodd;stroke:none"
         transform="matrix(0.13333333,0,0,-0.13333333,0,216.30667)" />
      <path
         id="path16"
         d="m 644.301,1266.84 c 0,4.3 -1.727,8.4 -4.746,11.45 -3.047,3.02 -7.149,4.72 -11.414,4.72 -4.317,0 -8.418,-1.7 -11.465,-4.72 -3.02,-3.05 -4.746,-7.15 -4.746,-11.45 0,-4.28 1.726,-8.38 4.746,-11.43 3.047,-3.02 7.148,-4.74 11.465,-4.74 4.265,0 8.367,1.72 11.414,4.74 3.019,3.05 4.746,7.15 4.746,11.43 v 0"
         style="fill:#3871c1;fill-opacity:1;fill-rule:evenodd;stroke:none"
         transform="matrix(0.13333333,0,0,-0.13333333,0,216.30667)" />
      <path
         id="path17"
         d="m 1219.99,91.0117 c 0,4.2696 -1.7,8.3985 -4.75,11.4183 -3.02,3.05 -7.15,4.75 -11.43,4.75 -4.27,0 -8.4,-1.7 -11.42,-4.75 -3.05,-3.0198 -4.75,-7.1487 -4.75,-11.4183 0,-4.2812 1.7,-8.4101 4.75,-11.4336 3.02,-3.0468 7.15,-4.75 11.42,-4.75 4.28,0 8.41,1.7032 11.43,4.75 3.05,3.0235 4.75,7.1524 4.75,11.4336 v 0"
         style="fill:#3871c1;fill-opacity:1;fill-rule:evenodd;stroke:none"
         transform="matrix(0.13333333,0,0,-0.13333333,0,216.30667)" />
      <path
         id="path18"
         d="m 1208.03,574.02 c 0,4.308 -1.7,8.41 -4.74,11.46 -3.02,3.02 -7.15,4.719 -11.43,4.719 -4.3,0 -8.41,-1.699 -11.45,-4.719 -3.02,-3.05 -4.72,-7.152 -4.72,-11.46 0,-4.27 1.7,-8.379 4.72,-11.418 3.04,-3.051 7.15,-4.75 11.45,-4.75 4.28,0 8.41,1.699 11.43,4.75 3.04,3.039 4.74,7.148 4.74,11.418 v 0"
         style="fill:#3871c1;fill-opacity:1;fill-rule:evenodd;stroke:none"
         transform="matrix(0.13333333,0,0,-0.13333333,0,216.30667)" />
      <path
         id="path19"
         d="m 1221.42,1120.08 c 0,4.32 -1.7,8.41 -4.75,11.47 -3.01,3.01 -7.14,4.72 -11.42,4.72 -4.28,0 -8.41,-1.71 -11.43,-4.72 -3.04,-3.06 -4.74,-7.15 -4.74,-11.47 0,-4.27 1.7,-8.37 4.74,-11.42 3.02,-3.01 7.15,-4.75 11.43,-4.75 4.28,0 8.41,1.74 11.42,4.75 3.05,3.05 4.75,7.15 4.75,11.42 v 0"
         style="fill:#3871c1;fill-opacity:1;fill-rule:evenodd;stroke:none"
         transform="matrix(0.13333333,0,0,-0.13333333,0,216.30667)" />
      <path
         id="path20"
         d="m 1195.11,1303.51 c 0,4.29 -1.73,8.42 -4.74,11.43 -3.05,3.05 -7.15,4.75 -11.46,4.75 -4.28,0 -8.38,-1.7 -11.42,-4.75 -3.02,-3.01 -4.75,-7.14 -4.75,-11.43 0,-4.3 1.73,-8.41 4.75,-11.42 3.04,-3.04 7.14,-4.75 11.42,-4.75 4.31,0 8.41,1.71 11.46,4.75 3.01,3.01 4.74,7.12 4.74,11.42 v 0"
         style="fill:#3871c1;fill-opacity:1;fill-rule:evenodd;stroke:none"
         transform="matrix(0.13333333,0,0,-0.13333333,0,216.30667)" />
      <path
         id="path21"
         d="m 1235.28,53.1914 c 0,4.2695 -1.7,8.3672 -4.75,11.418 -3.04,3.0195 -7.15,4.75 -11.42,4.75 -4.31,0 -8.41,-1.7305 -11.46,-4.75 -3.02,-3.0508 -4.72,-7.1485 -4.72,-11.418 0,-4.3125 1.7,-8.4101 4.72,-11.4609 3.05,-3.0196 7.15,-4.7188 11.46,-4.7188 4.27,0 8.38,1.6992 11.42,4.7188 3.05,3.0508 4.75,7.1484 4.75,11.4609 v 0"
         style="fill:#3871c1;fill-opacity:1;fill-rule:evenodd;stroke:none"
         transform="matrix(0.13333333,0,0,-0.13333333,0,216.30667)" />
      <path
         id="path22"
         d="m 1249.46,762.109 c 0,4.278 -1.73,8.411 -4.75,11.426 -3.04,3.047 -7.15,4.746 -11.42,4.746 -4.31,0 -8.41,-1.699 -11.46,-4.746 -3.02,-3.015 -4.72,-7.148 -4.72,-11.426 0,-4.304 1.7,-8.41 4.72,-11.457 3.05,-3.015 7.15,-4.714 11.46,-4.714 4.27,0 8.38,1.699 11.42,4.714 3.02,3.047 4.75,7.153 4.75,11.457 v 0"
         style="fill:#3871c1;fill-opacity:1;fill-rule:evenodd;stroke:none"
         transform="matrix(0.13333333,0,0,-0.13333333,0,216.30667)" />
      <path
         id="path23"
         d="m 1241.23,1201.68 c 0,4.31 -1.7,8.4 -4.72,11.43 -3.05,3.04 -7.15,4.75 -11.45,4.75 -4.28,0 -8.41,-1.71 -11.43,-4.75 -3.05,-3.03 -4.75,-7.12 -4.75,-11.43 0,-4.28 1.7,-8.41 4.75,-11.43 3.02,-3.04 7.15,-4.74 11.43,-4.74 4.3,0 8.4,1.7 11.45,4.74 3.02,3.02 4.72,7.15 4.72,11.43 v 0"
         style="fill:#3871c1;fill-opacity:1;fill-rule:evenodd;stroke:none"
         transform="matrix(0.13333333,0,0,-0.13333333,0,216.30667)" />
      <path
         id="path24"
         d="m 1273.13,1489.87 c 0,4.27 -1.7,8.41 -4.75,11.43 -3.01,3.05 -7.12,4.74 -11.42,4.74 -4.28,0 -8.41,-1.69 -11.43,-4.74 -3.04,-3.02 -4.74,-7.16 -4.74,-11.43 0,-4.27 1.7,-8.41 4.74,-11.42 3.02,-3.06 7.15,-4.75 11.43,-4.75 4.3,0 8.41,1.69 11.42,4.75 3.05,3.01 4.75,7.15 4.75,11.42 v 0"
         style="fill:#3871c1;fill-opacity:1;fill-rule:evenodd;stroke:none"
         transform="matrix(0.13333333,0,0,-0.13333333,0,216.30667)" />
    </g>
  </g>
</svg>
