<?xml version="1.0" encoding="UTF-8" standalone="no"?>
<!-- Created with Inkscape (http://www.inkscape.org/) -->

<svg
   version="1.1"
   id="svg1"
   width="447.38666"
   height="157.69333"
   viewBox="0 0 447.38666 157.69333"
   sodipodi:docname="pha08f18.eps"
   xmlns:inkscape="http://www.inkscape.org/namespaces/inkscape"
   xmlns:sodipodi="http://sodipodi.sourceforge.net/DTD/sodipodi-0.dtd"
   xmlns="http://www.w3.org/2000/svg"
   xmlns:svg="http://www.w3.org/2000/svg">
  <defs
     id="defs1" />
  <sodipodi:namedview
     id="namedview1"
     pagecolor="#ffffff"
     bordercolor="#000000"
     borderopacity="0.25"
     inkscape:showpageshadow="2"
     inkscape:pageopacity="0.0"
     inkscape:pagecheckerboard="0"
     inkscape:deskcolor="#d1d1d1">
    <inkscape:page
       x="0"
       y="0"
       inkscape:label="1"
       id="page1"
       width="447.38666"
       height="157.69333"
       margin="0"
       bleed="0" />
  </sodipodi:namedview>
  <g
     id="g1"
     inkscape:groupmode="layer"
     inkscape:label="1">
    <g
       id="group-R5">
      <path
         id="path2"
         d="m 2.6953406,1.3235591 c -0.890625,-0.76171879 -1.40625,-2.20312504 -1.40625,-3.75 0,-1.546875 0.515625,-3 1.40625,-3.75 L 2.5429969,-6.3873784 c -1.3242188,0.9023437 -1.91015627,2.3320312 -1.91015627,3.9492187 0,1.62890626 0.58593747,3.08203126 1.91015627,3.9609375 z m 4.3212891,-1.67578129 -0.09375,-0.234375 c -0.09375,0.0585938 -0.2226563,0.10546875 -0.328125,0.10546875 -0.1523438,0 -0.3164063,-0.140625 -0.3164063,-0.55078126 v -1.6640625 c 0,-0.46875 -0.082031,-0.84375 -0.3984375,-1.1015625 -0.1992187,-0.1640625 -0.46875,-0.2460937 -0.7382812,-0.2460937 -0.515625,0.1054687 -1.1015625,0.4570312 -1.3476563,0.6328125 -0.1757812,0.1289062 -0.2929687,0.2226562 -0.2929687,0.3632812 0,0.1992188 0.234375,0.3867188 0.3984375,0.3867188 0.1289062,0 0.2226562,-0.070312 0.2578125,-0.2109375 0.070312,-0.28125 0.1523437,-0.4804688 0.2695312,-0.5976563 0.09375,-0.1054687 0.2226563,-0.1757812 0.4101563,-0.1757812 0.4453125,0 0.75,0.3632812 0.75,1.0195312 v 0.1640625 c -0.1992188,0.1523438 -0.8554688,0.3984375 -1.3945313,0.5742188 -0.4921875,0.1757812 -0.7265625,0.4570312 -0.7265625,0.90234371 0,0.5625 0.4453125,1.08984375 1.078125,1.08984375 0.2695313,0 0.703125,-0.328125 1.0664063,-0.57421875 0.046875,0.15234375 0.09375,0.28125 0.2109375,0.41015625 0.1054687,0.08203125 0.2929687,0.1640625 0.421875,0.1640625 z M 5.5869422,-0.76237844 c -0.1640625,0.1640625 -0.4804688,0.31640625 -0.7148438,0.328125 -0.28125,0 -0.6445312,-0.22265625 -0.6445312,-0.69140626 0,-0.328125 0.1992187,-0.4921875 0.5507812,-0.65625 0.1875,-0.09375 0.6210938,-0.28125 0.8085938,-0.375 z M 7.4765906,-6.1764409 c 0.890625,0.7382812 1.4179688,2.203125 1.4179688,3.75 0,1.54687496 -0.5039063,2.98828121 -1.4179688,3.75 l 0.1640625,0.1992187 c 1.3476563,-0.91406249 1.8984375,-2.33203124 1.8984375,-3.9492187 0,-1.6289063 -0.5507812,-3.0585938 -1.8984375,-3.9609375 z m 170.4873094,7.5 c -0.89063,-0.76171879 -1.40625,-2.20312504 -1.40625,-3.75 0,-1.546875 0.51562,-3 1.40625,-3.75 l -0.15235,-0.2109375 c -1.32422,0.9023437 -1.91015,2.3320312 -1.91015,3.9492187 0,1.62890626 0.58593,3.08203126 1.91015,3.9609375 z m 1.79003,-4.9570313 v -2.7773437 c -0.33984,0.1171875 -0.89062,0.2578125 -1.3125,0.3164062 v 0.2109375 c 0.58594,0.046875 0.59766,0.1054688 0.59766,0.6679688 v 5.00390621 c 0.49219,0.234375 0.94922,0.31640625 1.32422,0.31640625 1.20703,0 2.26172,-0.9375 2.26172,-2.26171876 0,-1.0546875 -0.8086,-1.8867187 -1.78125,-1.8867187 -0.0937,0 -0.22266,0.023437 -0.36328,0.09375 z m 0,0.2695313 c 0.16407,-0.1054688 0.44532,-0.1757813 0.70313,-0.1757813 0.73828,0 1.37109,0.5976563 1.37109,1.6171875 0,1.05468751 -0.48047,1.68750001 -1.21875,1.68750001 -0.48047,-0.0117188 -0.75,-0.328125 -0.80859,-0.50390625 -0.0352,-0.0820313 -0.0469,-0.17578125 -0.0469,-0.30468746 z m 3.60938,-2.8125 c 0.89062,0.7382812 1.41797,2.203125 1.41797,3.75 0,1.54687496 -0.50391,2.98828121 -1.41797,3.75 l 0.16406,0.1992187 c 1.34766,-0.91406249 1.89844,-2.33203124 1.89844,-3.9492187 0,-1.6289063 -0.55078,-3.0585938 -1.89844,-3.9609375 z m -24.62402,-5.9824221 v -0.246094 c -0.82032,-0.05859 -0.87891,-0.128906 -0.87891,-0.785156 v -4.6875 c -0.49219,0.199219 -1.01953,0.375 -1.59375,0.46875 v 0.210938 l 0.43359,0.01172 c 0.38672,0.02344 0.42188,0.07031 0.42188,0.539063 v 3.457031 c 0,0.65625 -0.0352,0.726563 -0.85547,0.785156 v 0.246094 z M -71.654269,-107.39714 v -0.2461 c -0.820312,-0.0586 -0.878906,-0.1289 -0.878906,-0.78515 v -4.6875 c -0.492187,0.19921 -1.019531,0.375 -1.59375,0.46875 v 0.21093 l 0.433594,0.0117 c 0.386719,0.0234 0.421875,0.0703 0.421875,0.53906 v 3.45704 c 0,0.65625 -0.03516,0.72656 -0.855469,0.78515 v 0.2461 z m 1.895508,0.10546 c 0.28125,0 0.503906,-0.19921 0.503906,-0.51562 0,-0.29297 -0.222656,-0.51563 -0.503906,-0.51563 -0.292969,0 -0.503906,0.22266 -0.503906,0.51563 0,0.31641 0.210937,0.51562 0.503906,0.51562 z m 3.175781,-5.82421 c -1.347656,0 -1.839843,1.60546 -1.839843,2.91796 0,1.41797 0.480468,2.90625 1.839843,2.90625 1.359375,0 1.828125,-1.59375 1.828125,-2.91796 0,-1.38282 -0.46875,-2.90625 -1.828125,-2.90625 z m 0,0.30468 c 0.808594,0 1.03125,1.32422 1.03125,2.60157 0,1.26562 -0.222656,2.61328 -1.03125,2.61328 -0.773437,0 -1.042968,-1.35938 -1.042968,-2.61328 0,-1.25391 0.222656,-2.60157 1.042968,-2.60157 z m -6.37207,42.626957 c -1.347656,0 -1.839844,1.605468 -1.839844,2.917968 0,1.417969 0.480469,2.90625 1.839844,2.90625 1.359375,0 1.828125,-1.59375 1.828125,-2.917968 0,-1.382813 -0.46875,-2.90625 -1.828125,-2.90625 z m 0,0.304687 c 0.808594,0 1.03125,1.324219 1.03125,2.601563 0,1.265625 -0.222656,2.613281 -1.03125,2.613281 -0.773437,0 -1.042969,-1.359375 -1.042969,-2.613281 0,-1.253907 0.222657,-2.601563 1.042969,-2.601563 z m 3.196289,5.519531 c 0.28125,0 0.503906,-0.199218 0.503906,-0.515625 0,-0.292968 -0.222656,-0.515625 -0.503906,-0.515625 -0.292969,0 -0.503906,0.222657 -0.503906,0.515625 0,0.316407 0.210937,0.515625 0.503906,0.515625 z m 2.390625,-5.050781 h 2.097656 l 0.234375,-0.585937 -0.05859,-0.07031 h -2.566407 l -0.351562,2.742188 c 0.210937,-0.08203 0.550781,-0.1875 0.925781,-0.1875 0.984375,0 1.464844,0.574218 1.464844,1.359375 0,0.679687 -0.375,1.335937 -1.136719,1.335937 -0.550781,0 -0.914062,-0.292969 -1.113281,-0.457031 -0.08203,-0.07031 -0.152344,-0.05859 -0.234375,0 -0.105469,0.09375 -0.1875,0.210937 -0.1875,0.292969 -0.02344,0.105468 0.02344,0.1875 0.140625,0.304687 0.128906,0.128906 0.515625,0.316406 0.925781,0.316406 0.480469,-0.01172 1.078125,-0.246093 1.570313,-0.632812 0.550781,-0.457031 0.796875,-0.960938 0.796875,-1.511719 0,-0.738281 -0.585938,-1.511719 -1.734375,-1.511719 -0.246094,0 -0.667969,0.140625 -1.007813,0.269532 z M 104.44925,-97.919605 v -0.246094 c -0.82032,-0.05859 -0.87891,-0.128906 -0.87891,-0.785156 v -4.687495 c -0.49219,0.19921 -1.01953,0.375 -1.59375,0.46875 v 0.21093 l 0.43359,0.0117 c 0.38672,0.0234 0.42188,0.0703 0.42188,0.53906 v 3.457035 c 0,0.65625 -0.0352,0.726563 -0.85547,0.785156 v 0.246094 z m 1.8955,0.105469 c 0.28125,0 0.50391,-0.199219 0.50391,-0.515625 0,-0.292969 -0.22266,-0.515625 -0.50391,-0.515625 -0.29296,0 -0.5039,0.222656 -0.5039,0.515625 0,0.316406 0.21094,0.515625 0.5039,0.515625 z m 2.39063,-5.050784 h 2.09766 l 0.23437,-0.58593 -0.0586,-0.0703 h -2.56641 l -0.35156,2.74219 c 0.21094,-0.082 0.55078,-0.1875 0.92578,-0.1875 0.98437,0 1.46484,0.57422 1.46484,1.359375 0,0.679688 -0.375,1.335938 -1.13672,1.335938 -0.55078,0 -0.91406,-0.292969 -1.11328,-0.457032 -0.082,-0.07031 -0.15234,-0.05859 -0.23437,0 -0.10547,0.09375 -0.1875,0.210938 -0.1875,0.292969 -0.0234,0.105469 0.0234,0.1875 0.14062,0.304688 0.12891,0.128906 0.51563,0.316406 0.92578,0.316406 0.48047,-0.01172 1.07813,-0.246094 1.57032,-0.632813 0.55078,-0.457031 0.79687,-0.960937 0.79687,-1.511718 0,-0.738283 -0.58594,-1.511723 -1.73437,-1.511723 -0.2461,0 -0.66797,0.14063 -1.00782,0.26954 z m -4.28613,30.524417 v -0.246094 c -0.82032,-0.05859 -0.87891,-0.128906 -0.87891,-0.785156 v -4.6875 c -0.49219,0.199218 -1.01953,0.375 -1.59375,0.46875 v 0.210937 l 0.43359,0.01172 c 0.38672,0.02344 0.42188,0.07031 0.42188,0.539062 v 3.457032 c 0,0.65625 -0.0352,0.726562 -0.85547,0.785156 v 0.246094 z m 1.8955,0.105468 c 0.28125,0 0.50391,-0.199218 0.50391,-0.515625 0,-0.292968 -0.22266,-0.515625 -0.50391,-0.515625 -0.29296,0 -0.5039,0.222657 -0.5039,0.515625 0,0.316407 0.21094,0.515625 0.5039,0.515625 z m 3.17579,-5.824218 c -1.34766,0 -1.83985,1.605468 -1.83985,2.917968 0,1.417969 0.48047,2.90625 1.83985,2.90625 1.35937,0 1.82812,-1.59375 1.82812,-2.917968 0,-1.382813 -0.46875,-2.90625 -1.82812,-2.90625 z m 0,0.304687 c 0.80859,0 1.03125,1.324219 1.03125,2.601563 0,1.265625 -0.22266,2.613281 -1.03125,2.613281 -0.77344,0 -1.04297,-1.359375 -1.04297,-2.613281 0,-1.253907 0.22265,-2.601563 1.04297,-2.601563 z m -6.37207,25.277344 c -1.34766,0 -1.83985,1.605469 -1.83985,2.917969 0,1.417968 0.48047,2.90625 1.83985,2.90625 1.35937,0 1.82812,-1.59375 1.82812,-2.917969 0,-1.382813 -0.46875,-2.90625 -1.82812,-2.90625 z m 0,0.304687 c 0.80859,0 1.03125,1.324219 1.03125,2.601563 0,1.265625 -0.22266,2.613281 -1.03125,2.613281 -0.77344,0 -1.04297,-1.359375 -1.04297,-2.613281 0,-1.253906 0.22265,-2.601563 1.04297,-2.601563 z m 3.19628,5.519532 c 0.28125,0 0.50391,-0.199219 0.50391,-0.515625 0,-0.292969 -0.22266,-0.515625 -0.50391,-0.515625 -0.29296,0 -0.5039,0.222656 -0.5039,0.515625 0,0.316406 0.21094,0.515625 0.5039,0.515625 z m 2.39063,-5.050782 h 2.09766 l 0.23437,-0.585937 -0.0586,-0.07031 h -2.56641 l -0.35156,2.742188 c 0.21094,-0.08203 0.55078,-0.1875 0.92578,-0.1875 0.98437,0 1.46484,0.574219 1.46484,1.359375 0,0.679687 -0.375,1.335937 -1.13672,1.335937 -0.55078,0 -0.91406,-0.292968 -1.11328,-0.457031 -0.082,-0.07031 -0.15234,-0.05859 -0.23437,0 -0.10547,0.09375 -0.1875,0.210938 -0.1875,0.292969 -0.0234,0.105469 0.0234,0.1875 0.14062,0.304687 0.12891,0.128907 0.51563,0.316407 0.92578,0.316407 0.48047,-0.01172 1.07813,-0.246094 1.57032,-0.632813 0.55078,-0.457031 0.79687,-0.960937 0.79687,-1.511719 0,-0.738281 -0.58594,-1.511718 -1.73437,-1.511718 -0.2461,0 -0.66797,0.140625 -1.00782,0.269531 z m 91.35059,38.279297 c -0.26954,0.574219 -0.38672,0.609375 -0.86719,0.609375 h -1.6875 l 1.27734,-1.335937 c 0.83203,-0.890625 1.19531,-1.417969 1.19531,-2.203125 0,-0.949219 -0.72656,-1.523438 -1.51171,-1.523438 -0.52735,0 -0.94922,0.234375 -1.21875,0.539063 l -0.51563,0.726562 0.19922,0.175781 c 0.23437,-0.351562 0.60937,-0.832031 1.23047,-0.832031 0.65625,0 1.05469,0.433594 1.05469,1.195313 0,0.773437 -0.5625,1.511718 -1.125,2.179687 -0.44532,0.515625 -0.94922,1.03125 -1.45313,1.523438 v 0.210937 h 3.36328 c 0.10547,-0.410156 0.19922,-0.796875 0.31641,-1.183594 z m 38.15918,-3.199219 c 0.22265,-0.328125 0.58593,-0.714843 1.07812,-0.714843 0.48047,0 0.85547,0.292968 0.85547,0.855468 0,0.65625 -0.60938,1.007813 -1.42969,1.277344 l 0.0586,0.257813 c 0.14062,-0.04687 0.36328,-0.105469 0.57421,-0.105469 0.51563,0 1.14844,0.339844 1.14844,1.171875 0,0.890625 -0.45703,1.359375 -1.08984,1.359375 -0.51563,0 -0.89063,-0.246094 -1.125,-0.457031 -0.0703,-0.05859 -0.14063,-0.04687 -0.21094,0 -0.082,0.05859 -0.19922,0.175781 -0.21094,0.292968 -0.0117,0.117188 0.0234,0.210938 0.15235,0.328125 0.11718,0.105469 0.48047,0.304688 0.89062,0.304688 0.65625,0 2.36719,-0.667969 2.36719,-2.121094 0,-0.65625 -0.46875,-1.21875 -1.25391,-1.371094 v -0.01172 c 0.25782,-0.1875 0.48047,-0.339844 0.60938,-0.492188 0.17578,-0.164062 0.28125,-0.375 0.28125,-0.632812 0,-0.691407 -0.52735,-1.195313 -1.34766,-1.195313 -0.46875,0 -0.89062,0.234375 -1.13672,0.503906 l -0.39843,0.574219 z m -255.714848,4.464844 v -0.246094 c -0.820313,-0.05859 -0.878907,-0.128906 -0.878907,-0.785156 v -4.6875 c -0.492187,0.199219 -1.019531,0.375 -1.59375,0.46875 v 0.210938 l 0.433594,0.01172 c 0.386719,0.02344 0.421875,0.07031 0.421875,0.539063 v 3.457031 c 0,0.65625 -0.03516,0.726563 -0.855469,0.785156 v 0.246094 z m 41.346679,-1.265625 c -0.269531,0.574219 -0.386719,0.609375 -0.867187,0.609375 h -1.6875 l 1.277343,-1.335937 c 0.832032,-0.890625 1.195313,-1.417969 1.195313,-2.203125 0,-0.949219 -0.726563,-1.523438 -1.511719,-1.523438 -0.527344,0 -0.949219,0.234375 -1.21875,0.539063 l -0.515625,0.726562 0.199219,0.175781 c 0.234375,-0.351562 0.609375,-0.832031 1.230469,-0.832031 0.65625,0 1.054687,0.433594 1.054687,1.195313 0,0.773437 -0.5625,1.511718 -1.125,2.179687 -0.445312,0.515625 -0.949219,1.03125 -1.453125,1.523438 v 0.210937 h 3.363281 c 0.105469,-0.410156 0.199219,-0.796875 0.316407,-1.183594 z m 38.15918,-3.199219 c 0.222656,-0.328125 0.585937,-0.714843 1.078125,-0.714843 0.480469,0 0.855469,0.292968 0.855469,0.855468 0,0.65625 -0.609375,1.007813 -1.429688,1.277344 l 0.05859,0.257813 c 0.140625,-0.04687 0.363281,-0.105469 0.574219,-0.105469 0.515625,0 1.148437,0.339844 1.148437,1.171875 0,0.890625 -0.457031,1.359375 -1.089844,1.359375 -0.515625,0 -0.890625,-0.246094 -1.125,-0.457031 -0.07031,-0.05859 -0.140625,-0.04687 -0.210937,0 -0.08203,0.05859 -0.199219,0.175781 -0.210938,0.292968 -0.01172,0.117188 0.02344,0.210938 0.152344,0.328125 0.117188,0.105469 0.480469,0.304688 0.890625,0.304688 0.65625,0 2.367188,-0.667969 2.367188,-2.121094 0,-0.65625 -0.46875,-1.21875 -1.253907,-1.371094 v -0.01172 c 0.257813,-0.1875 0.480469,-0.339844 0.609375,-0.492188 0.175782,-0.164062 0.28125,-0.375 0.28125,-0.632812 0,-0.691407 -0.527343,-1.195313 -1.347656,-1.195313 -0.46875,0 -0.890625,0.234375 -1.136719,0.503906 l -0.398437,0.574219 z m 0,0"
         style="fill:#231f20;fill-opacity:1;fill-rule:nonzero;stroke:none"
         aria-label="(a)(b)&#10;1&#10;1.0&#10;0.5&#10;1.5&#10;1.0&#10;0.5&#10;23123"
         transform="matrix(1.3333333,0,0,1.3333333,100.1484,153.37197)" />
      <path
         id="path3"
         d="m 158.098,277.957 5.629,2.734 5.621,3.782 5.629,4.734 5.644,7.07 5.629,8.047 5.621,8.946 5.629,10.878 5.621,11.672 5.649,12.891 5.625,13.125 5.625,14.793 5.625,16.328 5.644,17.258 5.629,17.664 5.621,17.863 5.629,19.317 5.621,20.273 5.649,20.625 5.625,20.828 5.625,20.86 5.625,22.199 5.625,20.652 5.652,21.817 5.629,21.964 5.621,24.676 5.629,21.281 5.644,22.219 5.629,20.977 5.621,21.332 5.629,21 5.621,23.246 5.649,21.258 5.625,19.734 5.625,19.5 5.625,17.016 5.625,21.449 5.648,17.41 5.621,16.949 5.629,16.684 5.621,16.758 5.649,15.308 5.625,14.949 5.625,12.59 5.625,14.027 5.625,11.09 5.648,10.69 5.625,11.07 5.625,12.21 5.625,8.62 5.625,9.4 5.656,8.69 5.621,4.88 5.629,6.4 5.621,5.18 5.649,7.2 5.625,4.75 5.625,3.84 5.625,3.5 5.625,2.72 5.648,4.78 5.625,0.23 5.625,1.78 5.621,2.94 5.629,0.42 5.645,-1.48 5.625,1.56 5.625,0.41 5.625,-1.25 5.648,-0.95 5.625,2.66 5.625,-1.73 5.625,-2.04 5.625,-0.37 5.657,-2.11 5.621,1.19 5.629,0.96 5.621,-4.99 5.629,2.04 5.644,-1.38 5.625,-1.13 5.625,-0.18 5.625,-1.79 5.625,-0.2 5.649,-0.13 5.625,-1.92 5.625,1.19 5.625,-1.14 5.644,-0.87 5.625,0.05 5.625,-0.32 5.625,1.54 5.625,-1.76 5.649,1.08 5.625,-1.57 5.625,1.03 5.625,1.76 5.625,-0.4 5.652,1.22 h 5.629 l 5.621,1.4 5.629,-0.23 5.644,0.89 11.25,1.04 5.625,1.14 5.625,-0.52 5.649,2.54 5.625,-0.1 5.625,0.66 5.625,-0.35 5.625,0.89 5.644,1.33 5.625,-0.75 5.625,2.23 5.625,-0.68 5.657,2.41 5.625,-0.8 5.625,-1.66 5.625,2.89 5.625,-0.05 5.644,0.23 5.625,-0.23 5.625,0.32 5.625,0.64 5.625,0.16 5.645,-0.91 5.625,0.47 5.625,-1.27 5.625,1.09 5.652,0.1 5.625,0.64 5.625,0.28 5.625,-1.08 5.625,-1.38 5.644,0.05 5.625,2.09 5.625,-1.48 5.637,0.56 5.613,0.09 5.657,-0.79 5.625,-0.52 5.625,-0.07 5.625,-0.54 5.644,0.31 5.625,-1.41 5.625,1.71 5.625,-0.35 5.625,0.33 5.645,-1.38 5.621,0.51 5.63,0.28 5.62,-0.53 5.63,-0.43 5.65,1.12 5.63,-0.6 5.62,0.96 5.63,-1.92 5.62,1.43 5.65,-0.85 5.62,-0.51 5.63,0.2 5.62,2.05 5.66,-0.12 5.62,-0.68 5.63,-0.02 5.62,0.89 5.63,-0.54 5.64,-0.24 5.63,-0.63 5.62,0.94 5.63,0.28 5.62,0.35 5.64,-0.56 11.25,1.31 5.63,0.38 5.65,-1.25 5.63,-0.14 5.62,1.06 5.63,-1.15 5.62,1.97 5.65,0.65 5.62,-0.6 11.25,-0.43 5.63,0.57 5.65,-0.54 5.63,0.42 5.62,-0.59 5.63,0.14 5.64,0.03 5.63,-1.11 5.62,1.76 5.63,0.64 5.62,-0.89 5.65,0.34 5.62,-0.77 5.63,-0.02 5.62,0.28 5.63,0.26 5.65,0.07 5.63,-0.38 5.62,-0.39 5.63,-0.59 5.64,-0.28 5.63,0.21 5.62,0.73 5.63,-0.21 5.62,0.06 5.66,-0.82 5.62,0.87 5.63,-0.47 5.62,0.15 5.63,-0.2 5.64,-0.51 11.25,1.13 5.62,-0.38 5.65,-1.19 5.62,0.49 5.63,-0.12 5.62,-0.37 5.63,0.66 5.65,-0.06 5.63,0.17 5.62,0.1 5.63,-0.08 5.62,0.92 5.65,-0.03 5.62,-1.38 5.63,0.59 5.62,-0.71 5.66,0.92 5.62,0.94 5.63,-1.44 5.62,1.02 5.63,0.27 5.64,-0.18 5.63,-0.47 5.62,0.42 5.63,-0.68 5.62,0.54 5.65,0.28 5.62,0.71 5.63,-1.64 5.62,1.4 5.63,-1.01 5.65,1.27 5.63,-0.96 5.62,0.11 5.63,-0.32 5.64,0.6 5.63,-0.6 5.62,0.65"
         style="fill:none;stroke:#3871c1;stroke-width:7.5;stroke-linecap:square;stroke-linejoin:miter;stroke-miterlimit:3.25;stroke-dasharray:none;stroke-opacity:1"
         transform="matrix(0.13333333,0,0,-0.13333333,0,157.69333)" />
      <path
         id="path4"
         d="m 152.477,276.902 v 17.735"
         style="fill:none;stroke:#231f20;stroke-width:5;stroke-linecap:butt;stroke-linejoin:miter;stroke-miterlimit:3.25;stroke-dasharray:none;stroke-opacity:1"
         transform="matrix(0.13333333,0,0,-0.13333333,0,157.69333)" />
      <path
         id="path5"
         d="m 563.445,246.902 v 30"
         style="fill:none;stroke:#231f20;stroke-width:5;stroke-linecap:butt;stroke-linejoin:miter;stroke-miterlimit:3.25;stroke-dasharray:none;stroke-opacity:1"
         transform="matrix(0.13333333,0,0,-0.13333333,0,157.69333)" />
      <path
         id="path6"
         d="m 974.449,246.902 v 30"
         style="fill:none;stroke:#231f20;stroke-width:5;stroke-linecap:butt;stroke-linejoin:miter;stroke-miterlimit:3.25;stroke-dasharray:none;stroke-opacity:1"
         transform="matrix(0.13333333,0,0,-0.13333333,0,157.69333)" />
      <path
         id="path7"
         d="m 1385.42,246.902 v 30"
         style="fill:none;stroke:#231f20;stroke-width:5;stroke-linecap:butt;stroke-linejoin:miter;stroke-miterlimit:3.25;stroke-dasharray:none;stroke-opacity:1"
         transform="matrix(0.13333333,0,0,-0.13333333,0,157.69333)" />
      <path
         id="path8"
         d="M 152.477,276.902 H 1588.11"
         style="fill:none;stroke:#231f20;stroke-width:5;stroke-linecap:butt;stroke-linejoin:miter;stroke-miterlimit:3.25;stroke-dasharray:none;stroke-opacity:1"
         transform="matrix(0.13333333,0,0,-0.13333333,0,157.69333)" />
      <path
         id="path9"
         d="m 152.477,276.902 h 17.738"
         style="fill:none;stroke:#231f20;stroke-width:5;stroke-linecap:butt;stroke-linejoin:miter;stroke-miterlimit:3.25;stroke-dasharray:none;stroke-opacity:1"
         transform="matrix(0.13333333,0,0,-0.13333333,0,157.69333)" />
      <path
         id="path10"
         d="m 122.477,706.203 h 30"
         style="fill:none;stroke:#231f20;stroke-width:5;stroke-linecap:butt;stroke-linejoin:miter;stroke-miterlimit:3.25;stroke-dasharray:none;stroke-opacity:1"
         transform="matrix(0.13333333,0,0,-0.13333333,0,157.69333)" />
      <path
         id="path11"
         d="m 122.477,1135.51 h 30"
         style="fill:none;stroke:#231f20;stroke-width:5;stroke-linecap:butt;stroke-linejoin:miter;stroke-miterlimit:3.25;stroke-dasharray:none;stroke-opacity:1"
         transform="matrix(0.13333333,0,0,-0.13333333,0,157.69333)" />
      <path
         id="path12"
         d="M 152.477,276.902 V 1182.66"
         style="fill:none;stroke:#231f20;stroke-width:5;stroke-linecap:butt;stroke-linejoin:miter;stroke-miterlimit:3.25;stroke-dasharray:none;stroke-opacity:1"
         transform="matrix(0.13333333,0,0,-0.13333333,0,157.69333)" />
      <path
         id="path13"
         d="m 1920.18,309.246 5.64,-0.351 5.61,-1.524 5.64,0.586 5.64,0.891 5.62,0.281 5.63,0.371 5.62,0.234 5.63,-0.722 5.64,0.273 5.63,0.664 5.62,0.539 5.63,0.117 5.64,0.672 5.63,0.598 5.62,0.418 5.63,0.957 5.62,0.871 5.65,0.203 5.62,0.703 5.63,0.989 5.62,0.566 5.63,1.406 5.65,0.703 5.64,1.727 5.61,1.133 5.64,1.074 5.64,1.152 5.63,1.563 5.62,2.422 5.63,1.543 5.62,2.363 5.65,2.676 5.62,2.793 5.63,3.652 5.62,3.516 5.63,3.984 5.64,4.875 5.63,6.094 5.62,6.445 5.63,7.195 5.64,8.653 5.63,10.117 5.62,11.047 5.63,11.765 5.62,13.547 5.66,16.543 5.62,17.86 5.63,21.75 5.62,22.597 5.63,25.43 5.65,27.305 5.62,28.875 5.63,31.711 5.62,35.761 5.65,36.211 5.62,35.043 5.63,36.606 5.62,36.824 5.63,39.07 5.64,40.735 5.63,35.363 5.62,37.523 5.63,33.024 5.62,29.702 5.65,28.77 5.62,19.83 5.63,19.67 5.62,27.67 5.66,7.44 5.62,7.14 5.63,7.18 5.62,2.79 5.63,-5.68 5.65,-1.57 5.63,-12.44 5.62,-10.62 5.63,-20.98 5.62,-8.55 5.65,-15.16 5.62,-26 5.63,-21.51 5.62,-20.44 5.63,-19.965 5.64,-23.254 5.63,-24.351 5.62,-21.114 5.63,-24.945 5.64,-17.523 5.63,-22.973 5.62,-16.426 5.63,-19.64 5.62,-17.817 5.65,-18.304 5.63,-14.793 5.62,-14.692 5.63,-15.629 5.62,-12.449 5.66,-10.734 5.62,-10.641 5.63,-9.91 5.62,-9.211 5.65,-9.168 5.62,-6.027 5.63,-5.782 5.62,-4.531 5.63,-4.141 5.64,-2.91 5.63,-4.121 5.62,-2.605 5.63,1.316 5.62,-0.515 5.65,1.687 5.62,-1.523 5.63,2.031 5.62,2.961 5.67,3.074 5.62,4.023 5.63,7.2 5.62,4.472 5.63,5.653 5.64,7.218 5.63,7.079 5.62,8.828 5.63,8.3 5.62,8.743 5.65,8.531 5.62,11.859 5.63,9.914 5.62,11.789 5.64,11.207 5.63,10.922 5.62,12.278 5.63,10.617 5.62,14.555 5.65,10.332 5.62,9.121 5.63,9.605 5.64,13.27 5.61,8.761 5.66,11.914 5.63,8.805 5.62,6.918 5.63,7.871 5.64,7.649 5.63,6.086 5.62,5.793 5.63,1.683 5.62,3.281 5.65,5.25 5.62,-1.894 5.63,0.445 5.62,-3.566 5.63,-0.492 5.64,-4.047 5.63,-2.133 5.62,-7.617 5.63,-1.809 5.62,-7.664 5.65,-4.973 5.62,-7.613 5.63,-10.387 5.62,-6.957 5.67,-8.672 5.62,-8.601 5.63,-5.719 5.62,-9.629 5.63,-9.469 5.64,-9 5.63,-8.535 5.62,-7.59 5.63,-8.746 5.62,-8.668 5.64,-6.8 5.63,-7.106 5.62,-6.601 5.63,-7.735 5.64,-5.582 5.63,-6.535 5.62,-3.496 5.63,-4.852 5.62,-4.285 5.65,-3.515 5.62,-5.297 5.63,-2.067 5.62,-1.781 5.63,-2.789 5.66,-0.043 5.63,-1.832 5.62,-1.855 5.63,1.109 5.64,0.797 5.63,0.023 5.62,1.426 5.63,1.598 5.62,3.84 5.65,2.531 5.62,2.867 5.63,3.527 5.62,2.512 5.63,4.902 5.64,3.957 5.63,4.993 5.62,4.898 5.63,4.641 5.64,8.789 5.63,5.652 5.62,3.75 5.63,6.563 5.62,6.3 5.67,4.196 5.62,7.945 5.63,5.836 5.62,7.246 5.63,4.965 5.64,6.496 5.62,5.855 5.63,3.914 5.62,6.852 5.65,5.973 5.62,1.922 5.63,5.101 5.62,2.445 5.63,7.403 5.64,0.59 11.25,3.464 5.63,1.379 5.62,0.125 5.65,0.703 5.62,-1.48 5.63,0.309 5.62,-1.832 5.67,-0.704 5.62,-2.058 5.63,-5.047 5.62,-2.504 5.63,-1.664 5.64,-5.387 5.63,-1.57 5.62,-6.684 5.63,-2.742 5.62,-4.219 5.65,-6.421 5.62,-4.34 5.63,-2.739 5.62,-6.3 5.63,-5.981 5.64,-3.984 5.63,-4.711 5.62,-6.817 5.63,-3.632 5.64,-3.942 5.63,-5.039 5.62,-3.773"
         style="fill:none;stroke:#3871c1;stroke-width:7.5;stroke-linecap:square;stroke-linejoin:miter;stroke-miterlimit:3.25;stroke-dasharray:none;stroke-opacity:1"
         transform="matrix(0.13333333,0,0,-0.13333333,0,157.69333)" />
      <path
         id="path14"
         d="m 1914.57,276.902 v 17.735"
         style="fill:none;stroke:#231f20;stroke-width:5;stroke-linecap:butt;stroke-linejoin:miter;stroke-miterlimit:3.25;stroke-dasharray:none;stroke-opacity:1"
         transform="matrix(0.13333333,0,0,-0.13333333,0,157.69333)" />
      <path
         id="path15"
         d="m 2325.53,246.902 v 30"
         style="fill:none;stroke:#231f20;stroke-width:5;stroke-linecap:butt;stroke-linejoin:miter;stroke-miterlimit:3.25;stroke-dasharray:none;stroke-opacity:1"
         transform="matrix(0.13333333,0,0,-0.13333333,0,157.69333)" />
      <path
         id="path16"
         d="m 2736.54,246.902 v 30"
         style="fill:none;stroke:#231f20;stroke-width:5;stroke-linecap:butt;stroke-linejoin:miter;stroke-miterlimit:3.25;stroke-dasharray:none;stroke-opacity:1"
         transform="matrix(0.13333333,0,0,-0.13333333,0,157.69333)" />
      <path
         id="path17"
         d="m 3147.51,246.902 v 30"
         style="fill:none;stroke:#231f20;stroke-width:5;stroke-linecap:butt;stroke-linejoin:miter;stroke-miterlimit:3.25;stroke-dasharray:none;stroke-opacity:1"
         transform="matrix(0.13333333,0,0,-0.13333333,0,157.69333)" />
      <path
         id="path18"
         d="M 1914.57,276.902 H 3350.19"
         style="fill:none;stroke:#231f20;stroke-width:5;stroke-linecap:butt;stroke-linejoin:miter;stroke-miterlimit:3.25;stroke-dasharray:none;stroke-opacity:1"
         transform="matrix(0.13333333,0,0,-0.13333333,0,157.69333)" />
      <path
         id="path19"
         d="m 1914.57,276.902 h 17.73"
         style="fill:none;stroke:#231f20;stroke-width:5;stroke-linecap:butt;stroke-linejoin:miter;stroke-miterlimit:3.25;stroke-dasharray:none;stroke-opacity:1"
         transform="matrix(0.13333333,0,0,-0.13333333,0,157.69333)" />
      <path
         id="path20"
         d="m 1884.57,532.695 h 30"
         style="fill:none;stroke:#231f20;stroke-width:5;stroke-linecap:butt;stroke-linejoin:miter;stroke-miterlimit:3.25;stroke-dasharray:none;stroke-opacity:1"
         transform="matrix(0.13333333,0,0,-0.13333333,0,157.69333)" />
      <path
         id="path21"
         d="m 1884.57,788.496 h 30"
         style="fill:none;stroke:#231f20;stroke-width:5;stroke-linecap:butt;stroke-linejoin:miter;stroke-miterlimit:3.25;stroke-dasharray:none;stroke-opacity:1"
         transform="matrix(0.13333333,0,0,-0.13333333,0,157.69333)" />
      <path
         id="path22"
         d="m 1884.57,1044.29 h 30"
         style="fill:none;stroke:#231f20;stroke-width:5;stroke-linecap:butt;stroke-linejoin:miter;stroke-miterlimit:3.25;stroke-dasharray:none;stroke-opacity:1"
         transform="matrix(0.13333333,0,0,-0.13333333,0,157.69333)" />
      <path
         id="path23"
         d="M 1914.57,276.902 V 1182.66"
         style="fill:none;stroke:#231f20;stroke-width:5;stroke-linecap:butt;stroke-linejoin:miter;stroke-miterlimit:3.25;stroke-dasharray:none;stroke-opacity:1"
         transform="matrix(0.13333333,0,0,-0.13333333,0,157.69333)" />
    </g>
  </g>
</svg>
