<?xml version="1.0" encoding="UTF-8" standalone="no"?>
<!-- Created with Inkscape (http://www.inkscape.org/) -->

<svg
   version="1.1"
   id="svg1"
   width="567.64001"
   height="371.14667"
   viewBox="0 0 567.64001 371.14667"
   sodipodi:docname="pha08f35.eps"
   xmlns:inkscape="http://www.inkscape.org/namespaces/inkscape"
   xmlns:sodipodi="http://sodipodi.sourceforge.net/DTD/sodipodi-0.dtd"
   xmlns="http://www.w3.org/2000/svg"
   xmlns:svg="http://www.w3.org/2000/svg">
  <defs
     id="defs1" />
  <sodipodi:namedview
     id="namedview1"
     pagecolor="#ffffff"
     bordercolor="#000000"
     borderopacity="0.25"
     inkscape:showpageshadow="2"
     inkscape:pageopacity="0.0"
     inkscape:pagecheckerboard="0"
     inkscape:deskcolor="#d1d1d1">
    <inkscape:page
       x="0"
       y="0"
       inkscape:label="1"
       id="page1"
       width="567.64001"
       height="371.14667"
       margin="0"
       bleed="0" />
  </sodipodi:namedview>
  <g
     id="g1"
     inkscape:groupmode="layer"
     inkscape:label="1">
    <g
       id="group-R5">
      <path
         id="path2"
         d="M 1321.75,1461.84 H 1.75 v 1320 h 1320 z"
         style="fill:none;stroke:#231f20;stroke-width:3.5;stroke-linecap:butt;stroke-linejoin:miter;stroke-miterlimit:10;stroke-dasharray:none;stroke-opacity:1"
         transform="matrix(0.13333333,0,0,-0.13333333,0,371.14667)" />
      <path
         id="path3"
         d="m 1.75,2699.34 h 1320"
         style="fill:none;stroke:#231f20;stroke-width:3.5;stroke-linecap:butt;stroke-linejoin:miter;stroke-miterlimit:10;stroke-dasharray:none;stroke-opacity:1"
         transform="matrix(0.13333333,0,0,-0.13333333,0,371.14667)" />
      <path
         id="path4"
         d="m 1.75,2616.84 h 1320"
         style="fill:none;stroke:#231f20;stroke-width:3.5;stroke-linecap:butt;stroke-linejoin:miter;stroke-miterlimit:10;stroke-dasharray:none;stroke-opacity:1"
         transform="matrix(0.13333333,0,0,-0.13333333,0,371.14667)" />
      <path
         id="path5"
         d="m 1.75,2534.34 h 1320"
         style="fill:none;stroke:#231f20;stroke-width:3.5;stroke-linecap:butt;stroke-linejoin:miter;stroke-miterlimit:10;stroke-dasharray:none;stroke-opacity:1"
         transform="matrix(0.13333333,0,0,-0.13333333,0,371.14667)" />
      <path
         id="path6"
         d="m 1.75,2451.84 h 1320"
         style="fill:none;stroke:#231f20;stroke-width:3.5;stroke-linecap:butt;stroke-linejoin:miter;stroke-miterlimit:10;stroke-dasharray:none;stroke-opacity:1"
         transform="matrix(0.13333333,0,0,-0.13333333,0,371.14667)" />
      <path
         id="path7"
         d="m 1.75,2369.34 h 1320"
         style="fill:none;stroke:#231f20;stroke-width:3.5;stroke-linecap:butt;stroke-linejoin:miter;stroke-miterlimit:10;stroke-dasharray:none;stroke-opacity:1"
         transform="matrix(0.13333333,0,0,-0.13333333,0,371.14667)" />
      <path
         id="path8"
         d="m 1.75,2286.84 h 1320"
         style="fill:none;stroke:#231f20;stroke-width:3.5;stroke-linecap:butt;stroke-linejoin:miter;stroke-miterlimit:10;stroke-dasharray:none;stroke-opacity:1"
         transform="matrix(0.13333333,0,0,-0.13333333,0,371.14667)" />
      <path
         id="path9"
         d="m 1.75,2121.84 h 1320"
         style="fill:none;stroke:#231f20;stroke-width:3.5;stroke-linecap:butt;stroke-linejoin:miter;stroke-miterlimit:10;stroke-dasharray:none;stroke-opacity:1"
         transform="matrix(0.13333333,0,0,-0.13333333,0,371.14667)" />
      <path
         id="path10"
         d="m 1.75,2204.34 h 1320"
         style="fill:none;stroke:#231f20;stroke-width:3.5;stroke-linecap:butt;stroke-linejoin:miter;stroke-miterlimit:10;stroke-dasharray:none;stroke-opacity:1"
         transform="matrix(0.13333333,0,0,-0.13333333,0,371.14667)" />
      <path
         id="path11"
         d="m 1.75,2039.34 h 1320"
         style="fill:none;stroke:#231f20;stroke-width:3.5;stroke-linecap:butt;stroke-linejoin:miter;stroke-miterlimit:10;stroke-dasharray:none;stroke-opacity:1"
         transform="matrix(0.13333333,0,0,-0.13333333,0,371.14667)" />
      <path
         id="path12"
         d="m 1.75,1956.84 h 1320"
         style="fill:none;stroke:#231f20;stroke-width:3.5;stroke-linecap:butt;stroke-linejoin:miter;stroke-miterlimit:10;stroke-dasharray:none;stroke-opacity:1"
         transform="matrix(0.13333333,0,0,-0.13333333,0,371.14667)" />
      <path
         id="path13"
         d="m 1.75,1874.34 h 1320"
         style="fill:none;stroke:#231f20;stroke-width:3.5;stroke-linecap:butt;stroke-linejoin:miter;stroke-miterlimit:10;stroke-dasharray:none;stroke-opacity:1"
         transform="matrix(0.13333333,0,0,-0.13333333,0,371.14667)" />
      <path
         id="path14"
         d="m 1.75,1791.84 h 1320"
         style="fill:none;stroke:#231f20;stroke-width:3.5;stroke-linecap:butt;stroke-linejoin:miter;stroke-miterlimit:10;stroke-dasharray:none;stroke-opacity:1"
         transform="matrix(0.13333333,0,0,-0.13333333,0,371.14667)" />
      <path
         id="path15"
         d="m 1.75,1709.34 h 1320"
         style="fill:none;stroke:#231f20;stroke-width:3.5;stroke-linecap:butt;stroke-linejoin:miter;stroke-miterlimit:10;stroke-dasharray:none;stroke-opacity:1"
         transform="matrix(0.13333333,0,0,-0.13333333,0,371.14667)" />
      <path
         id="path16"
         d="m 1.75,1626.84 h 1320"
         style="fill:none;stroke:#231f20;stroke-width:3.5;stroke-linecap:butt;stroke-linejoin:miter;stroke-miterlimit:10;stroke-dasharray:none;stroke-opacity:1"
         transform="matrix(0.13333333,0,0,-0.13333333,0,371.14667)" />
      <path
         id="path17"
         d="m 1.75,1544.34 h 1320"
         style="fill:none;stroke:#231f20;stroke-width:3.5;stroke-linecap:butt;stroke-linejoin:miter;stroke-miterlimit:10;stroke-dasharray:none;stroke-opacity:1"
         transform="matrix(0.13333333,0,0,-0.13333333,0,371.14667)" />
      <path
         id="path18"
         d="M 2057.85,11.75 H 737.848 V 1331.74 H 2057.85 Z"
         style="fill:none;stroke:#231f20;stroke-width:3.5;stroke-linecap:butt;stroke-linejoin:miter;stroke-miterlimit:10;stroke-dasharray:none;stroke-opacity:1"
         transform="matrix(0.13333333,0,0,-0.13333333,0,371.14667)" />
      <path
         id="path19"
         d="M 737.848,671.738 H 2057.85"
         style="fill:none;stroke:#231f20;stroke-width:3.5;stroke-linecap:butt;stroke-linejoin:miter;stroke-miterlimit:10;stroke-dasharray:none;stroke-opacity:1"
         transform="matrix(0.13333333,0,0,-0.13333333,0,371.14667)" />
      <path
         id="path20"
         d="m 3527.48,1.75 h -1320 v 1319.99 h 1320 z"
         style="fill:none;stroke:#231f20;stroke-width:3.5;stroke-linecap:butt;stroke-linejoin:miter;stroke-miterlimit:10;stroke-dasharray:none;stroke-opacity:1"
         transform="matrix(0.13333333,0,0,-0.13333333,0,371.14667)" />
      <path
         id="path21"
         d="m 2792.48,1461.84 h -1320 v 1320 h 1320 z"
         style="fill:none;stroke:#231f20;stroke-width:3.5;stroke-linecap:butt;stroke-linejoin:miter;stroke-miterlimit:10;stroke-dasharray:none;stroke-opacity:1"
         transform="matrix(0.13333333,0,0,-0.13333333,0,371.14667)" />
      <path
         id="path22"
         d="m 2132.48,1461.84 v 1320"
         style="fill:none;stroke:#231f20;stroke-width:3.5;stroke-linecap:butt;stroke-linejoin:miter;stroke-miterlimit:10;stroke-dasharray:none;stroke-opacity:1"
         transform="matrix(0.13333333,0,0,-0.13333333,0,371.14667)" />
      <path
         id="path23"
         d="m 1472.48,2616.84 h 1320"
         style="fill:none;stroke:#231f20;stroke-width:3.5;stroke-linecap:butt;stroke-linejoin:miter;stroke-miterlimit:10;stroke-dasharray:none;stroke-opacity:1"
         transform="matrix(0.13333333,0,0,-0.13333333,0,371.14667)" />
      <path
         id="path24"
         d="m 1472.48,2451.84 h 1320"
         style="fill:none;stroke:#231f20;stroke-width:3.5;stroke-linecap:butt;stroke-linejoin:miter;stroke-miterlimit:10;stroke-dasharray:none;stroke-opacity:1"
         transform="matrix(0.13333333,0,0,-0.13333333,0,371.14667)" />
      <path
         id="path25"
         d="m 1472.48,2286.84 h 1320"
         style="fill:none;stroke:#231f20;stroke-width:3.5;stroke-linecap:butt;stroke-linejoin:miter;stroke-miterlimit:10;stroke-dasharray:none;stroke-opacity:1"
         transform="matrix(0.13333333,0,0,-0.13333333,0,371.14667)" />
      <path
         id="path26"
         d="m 1472.48,2121.84 h 1320"
         style="fill:none;stroke:#231f20;stroke-width:3.5;stroke-linecap:butt;stroke-linejoin:miter;stroke-miterlimit:10;stroke-dasharray:none;stroke-opacity:1"
         transform="matrix(0.13333333,0,0,-0.13333333,0,371.14667)" />
      <path
         id="path27"
         d="m 1472.48,1956.84 h 1320"
         style="fill:none;stroke:#231f20;stroke-width:3.5;stroke-linecap:butt;stroke-linejoin:miter;stroke-miterlimit:10;stroke-dasharray:none;stroke-opacity:1"
         transform="matrix(0.13333333,0,0,-0.13333333,0,371.14667)" />
      <path
         id="path28"
         d="m 1472.48,1791.84 h 1320"
         style="fill:none;stroke:#231f20;stroke-width:3.5;stroke-linecap:butt;stroke-linejoin:miter;stroke-miterlimit:10;stroke-dasharray:none;stroke-opacity:1"
         transform="matrix(0.13333333,0,0,-0.13333333,0,371.14667)" />
      <path
         id="path29"
         d="m 1472.48,1626.84 h 1320"
         style="fill:none;stroke:#231f20;stroke-width:3.5;stroke-linecap:butt;stroke-linejoin:miter;stroke-miterlimit:10;stroke-dasharray:none;stroke-opacity:1"
         transform="matrix(0.13333333,0,0,-0.13333333,0,371.14667)" />
      <path
         id="path30"
         d="m 4255.56,1454.19 h -1320 v 1320 h 1320 z"
         style="fill:none;stroke:#231f20;stroke-width:3.5;stroke-linecap:butt;stroke-linejoin:miter;stroke-miterlimit:10;stroke-dasharray:none;stroke-opacity:1"
         transform="matrix(0.13333333,0,0,-0.13333333,0,371.14667)" />
      <path
         id="path31"
         d="m 2935.56,2444.19 h 1320"
         style="fill:none;stroke:#231f20;stroke-width:3.5;stroke-linecap:butt;stroke-linejoin:miter;stroke-miterlimit:10;stroke-dasharray:none;stroke-opacity:1"
         transform="matrix(0.13333333,0,0,-0.13333333,0,371.14667)" />
      <path
         id="path32"
         d="m 2935.56,2114.19 h 1320"
         style="fill:none;stroke:#231f20;stroke-width:3.5;stroke-linecap:butt;stroke-linejoin:miter;stroke-miterlimit:10;stroke-dasharray:none;stroke-opacity:1"
         transform="matrix(0.13333333,0,0,-0.13333333,0,371.14667)" />
      <path
         id="path33"
         d="m 2935.56,1784.19 h 1320"
         style="fill:none;stroke:#231f20;stroke-width:3.5;stroke-linecap:butt;stroke-linejoin:miter;stroke-miterlimit:10;stroke-dasharray:none;stroke-opacity:1"
         transform="matrix(0.13333333,0,0,-0.13333333,0,371.14667)" />
      <path
         id="path34"
         d="m 3265.56,1454.19 v 1320"
         style="fill:none;stroke:#231f20;stroke-width:3.5;stroke-linecap:butt;stroke-linejoin:miter;stroke-miterlimit:10;stroke-dasharray:none;stroke-opacity:1"
         transform="matrix(0.13333333,0,0,-0.13333333,0,371.14667)" />
      <path
         id="path35"
         d="m 3595.56,1454.19 v 1320"
         style="fill:none;stroke:#231f20;stroke-width:3.5;stroke-linecap:butt;stroke-linejoin:miter;stroke-miterlimit:10;stroke-dasharray:none;stroke-opacity:1"
         transform="matrix(0.13333333,0,0,-0.13333333,0,371.14667)" />
      <path
         id="path36"
         d="m 3925.56,1454.19 v 1320"
         style="fill:none;stroke:#231f20;stroke-width:3.5;stroke-linecap:butt;stroke-linejoin:miter;stroke-miterlimit:10;stroke-dasharray:none;stroke-opacity:1"
         transform="matrix(0.13333333,0,0,-0.13333333,0,371.14667)" />
      <path
         id="path37"
         d="m 569.625,1723.29 c 0,3.49 -1.387,6.85 -3.867,9.31 -2.453,2.48 -5.832,3.87 -9.309,3.87 -3.515,0 -6.855,-1.39 -9.316,-3.87 -2.481,-2.46 -3.867,-5.82 -3.867,-9.31 0,-3.5 1.386,-6.85 3.867,-9.33 2.461,-2.46 5.801,-3.84 9.316,-3.84 3.477,0 6.856,1.38 9.309,3.84 2.48,2.48 3.867,5.83 3.867,9.33 v 0"
         style="fill:#3871c1;fill-opacity:1;fill-rule:evenodd;stroke:none"
         transform="matrix(0.13333333,0,0,-0.13333333,0,371.14667)" />
      <path
         id="path38"
         d="m 1228.52,2382.2 c 0,3.48 -1.38,6.85 -3.87,9.3 -2.45,2.49 -5.82,3.88 -9.3,3.88 -3.51,0 -6.85,-1.39 -9.34,-3.88 -2.45,-2.45 -3.84,-5.82 -3.84,-9.3 0,-3.51 1.39,-6.86 3.84,-9.34 2.49,-2.45 5.83,-3.84 9.34,-3.84 3.48,0 6.85,1.39 9.3,3.84 2.49,2.48 3.87,5.83 3.87,9.34 v 0"
         style="fill:#3871c1;fill-opacity:1;fill-rule:evenodd;stroke:none"
         transform="matrix(0.13333333,0,0,-0.13333333,0,371.14667)" />
      <path
         id="path39"
         d="m 240.18,2711.65 c 0,3.48 -1.387,6.82 -3.875,9.31 -2.461,2.47 -5.821,3.86 -9.309,3.86 -3.484,0 -6.855,-1.39 -9.316,-3.86 -2.481,-2.49 -3.867,-5.83 -3.867,-9.31 0,-3.51 1.386,-6.86 3.867,-9.34 2.461,-2.45 5.832,-3.84 9.316,-3.84 3.488,0 6.848,1.39 9.309,3.84 2.488,2.48 3.875,5.83 3.875,9.34 v 0"
         style="fill:#3871c1;fill-opacity:1;fill-rule:evenodd;stroke:none"
         transform="matrix(0.13333333,0,0,-0.13333333,0,371.14667)" />
      <path
         id="path40"
         d="m 899.066,2052.75 c 0,3.48 -1.375,6.85 -3.867,9.31 -2.449,2.48 -5.82,3.87 -9.297,3.87 -3.515,0 -6.855,-1.39 -9.336,-3.87 -2.461,-2.46 -3.847,-5.83 -3.847,-9.31 0,-3.52 1.386,-6.86 3.847,-9.34 2.481,-2.46 5.821,-3.84 9.336,-3.84 3.477,0 6.848,1.38 9.297,3.84 2.492,2.48 3.867,5.82 3.867,9.34 v 0"
         style="fill:#3871c1;fill-opacity:1;fill-rule:evenodd;stroke:none"
         transform="matrix(0.13333333,0,0,-0.13333333,0,371.14667)" />
      <path
         id="path41"
         d="m 404.887,2217.46 c 0,3.51 -1.387,6.85 -3.848,9.33 -2.48,2.46 -5.82,3.85 -9.336,3.85 -3.476,0 -6.824,-1.39 -9.305,-3.85 -2.453,-2.48 -3.867,-5.82 -3.867,-9.33 0,-3.49 1.414,-6.86 3.867,-9.31 2.481,-2.48 5.829,-3.86 9.305,-3.86 3.516,0 6.856,1.38 9.336,3.86 2.461,2.45 3.848,5.82 3.848,9.31 v 0"
         style="fill:#3871c1;fill-opacity:1;fill-rule:evenodd;stroke:none"
         transform="matrix(0.13333333,0,0,-0.13333333,0,371.14667)" />
      <path
         id="path42"
         d="m 1063.79,1558.56 c 0,3.51 -1.38,6.85 -3.84,9.33 -2.48,2.46 -5.82,3.84 -9.34,3.84 -3.49,0 -6.86,-1.38 -9.32,-3.84 -2.48,-2.48 -3.86,-5.82 -3.86,-9.33 0,-3.49 1.38,-6.85 3.86,-9.32 2.46,-2.48 5.83,-3.86 9.32,-3.86 3.52,0 6.86,1.38 9.34,3.86 2.46,2.47 3.84,5.83 3.84,9.32 v 0"
         style="fill:#3871c1;fill-opacity:1;fill-rule:evenodd;stroke:none"
         transform="matrix(0.13333333,0,0,-0.13333333,0,371.14667)" />
      <path
         id="path43"
         d="m 75.4336,1888.01 c 0,3.51 -1.3867,6.85 -3.8359,9.33 -2.4922,2.46 -5.8321,3.84 -9.3477,3.84 -3.4766,0 -6.8164,-1.38 -9.2969,-3.84 -2.4609,-2.48 -3.8672,-5.82 -3.8672,-9.33 0,-3.49 1.4063,-6.85 3.8672,-9.31 2.4805,-2.48 5.8203,-3.87 9.2969,-3.87 3.5156,0 6.8555,1.39 9.3477,3.87 2.4492,2.46 3.8359,5.82 3.8359,9.31 v 0"
         style="fill:#3871c1;fill-opacity:1;fill-rule:evenodd;stroke:none"
         transform="matrix(0.13333333,0,0,-0.13333333,0,371.14667)" />
      <path
         id="path44"
         d="m 734.34,2546.91 c 0,3.51 -1.387,6.86 -3.848,9.33 -2.48,2.46 -5.82,3.85 -9.336,3.85 -3.476,0 -6.824,-1.39 -9.304,-3.85 -2.493,-2.47 -3.868,-5.82 -3.868,-9.33 0,-3.48 1.375,-6.86 3.868,-9.31 2.48,-2.48 5.828,-3.87 9.304,-3.87 3.516,0 6.856,1.39 9.336,3.87 2.461,2.45 3.848,5.83 3.848,9.31 v 0"
         style="fill:#3871c1;fill-opacity:1;fill-rule:evenodd;stroke:none"
         transform="matrix(0.13333333,0,0,-0.13333333,0,371.14667)" />
      <path
         id="path45"
         d="m 651.977,2464.55 c 0,3.49 -1.387,6.85 -3.868,9.31 -2.461,2.49 -5.8,3.87 -9.304,3.87 -3.489,0 -6.848,-1.38 -9.309,-3.87 -2.488,-2.46 -3.867,-5.82 -3.867,-9.31 0,-3.48 1.379,-6.85 3.867,-9.3 2.461,-2.5 5.82,-3.87 9.309,-3.87 3.504,0 6.843,1.37 9.304,3.87 2.481,2.45 3.868,5.82 3.868,9.3 v 0"
         style="fill:#3871c1;fill-opacity:1;fill-rule:evenodd;stroke:none"
         transform="matrix(0.13333333,0,0,-0.13333333,0,371.14667)" />
      <path
         id="path46"
         d="m 1310.88,1805.65 c 0,3.49 -1.38,6.85 -3.86,9.31 -2.45,2.48 -5.83,3.87 -9.32,3.87 -3.48,0 -6.85,-1.39 -9.31,-3.87 -2.48,-2.46 -3.86,-5.82 -3.86,-9.31 0,-3.49 1.38,-6.85 3.86,-9.31 2.46,-2.48 5.83,-3.87 9.31,-3.87 3.49,0 6.87,1.39 9.32,3.87 2.48,2.46 3.86,5.82 3.86,9.31 v 0"
         style="fill:#3871c1;fill-opacity:1;fill-rule:evenodd;stroke:none"
         transform="matrix(0.13333333,0,0,-0.13333333,0,371.14667)" />
      <path
         id="path47"
         d="m 322.523,1476.2 c 0,3.48 -1.375,6.85 -3.847,9.31 -2.481,2.48 -5.821,3.87 -9.324,3.87 -3.489,0 -6.848,-1.39 -9.309,-3.87 -2.48,-2.46 -3.867,-5.83 -3.867,-9.31 0,-3.49 1.387,-6.85 3.867,-9.31 2.461,-2.48 5.82,-3.87 9.309,-3.87 3.503,0 6.843,1.39 9.324,3.87 2.472,2.46 3.847,5.82 3.847,9.31 v 0"
         style="fill:#3871c1;fill-opacity:1;fill-rule:evenodd;stroke:none"
         transform="matrix(0.13333333,0,0,-0.13333333,0,371.14667)" />
      <path
         id="path48"
         d="m 981.43,2135.11 c 0,3.48 -1.387,6.84 -3.867,9.3 -2.461,2.48 -5.821,3.87 -9.317,3.87 -3.476,0 -6.844,-1.39 -9.297,-3.87 -2.488,-2.46 -3.867,-5.82 -3.867,-9.3 0,-3.49 1.379,-6.86 3.867,-9.32 2.453,-2.48 5.821,-3.86 9.297,-3.86 3.496,0 6.856,1.38 9.317,3.86 2.48,2.46 3.867,5.83 3.867,9.32 v 0"
         style="fill:#3871c1;fill-opacity:1;fill-rule:evenodd;stroke:none"
         transform="matrix(0.13333333,0,0,-0.13333333,0,371.14667)" />
      <path
         id="path49"
         d="m 487.27,1970.39 c 0,3.49 -1.387,6.82 -3.875,9.31 -2.473,2.45 -5.821,3.87 -9.309,3.87 -3.504,0 -6.856,-1.42 -9.324,-3.87 -2.473,-2.49 -3.848,-5.82 -3.848,-9.31 0,-3.51 1.375,-6.85 3.848,-9.34 2.468,-2.46 5.82,-3.86 9.324,-3.86 3.488,0 6.836,1.4 9.309,3.86 2.488,2.49 3.875,5.83 3.875,9.34 v 0"
         style="fill:#3871c1;fill-opacity:1;fill-rule:evenodd;stroke:none"
         transform="matrix(0.13333333,0,0,-0.13333333,0,371.14667)" />
      <path
         id="path50"
         d="m 1146.17,2629.27 c 0,3.5 -1.41,6.85 -3.87,9.32 -2.48,2.47 -5.82,3.85 -9.31,3.85 -3.51,0 -6.85,-1.38 -9.33,-3.85 -2.46,-2.47 -3.85,-5.82 -3.85,-9.32 0,-3.49 1.39,-6.83 3.85,-9.31 2.48,-2.46 5.82,-3.87 9.33,-3.87 3.49,0 6.83,1.41 9.31,3.87 2.46,2.48 3.87,5.82 3.87,9.31 v 0"
         style="fill:#3871c1;fill-opacity:1;fill-rule:evenodd;stroke:none"
         transform="matrix(0.13333333,0,0,-0.13333333,0,371.14667)" />
      <path
         id="path51"
         d="m 157.816,2299.82 c 0,3.51 -1.386,6.85 -3.867,9.33 -2.461,2.46 -5.82,3.85 -9.316,3.85 -3.496,0 -6.844,-1.39 -9.336,-3.85 -2.449,-2.48 -3.828,-5.82 -3.828,-9.33 0,-3.48 1.379,-6.83 3.828,-9.31 2.492,-2.46 5.84,-3.87 9.336,-3.87 3.496,0 6.855,1.41 9.316,3.87 2.481,2.48 3.867,5.83 3.867,9.31 v 0"
         style="fill:#3871c1;fill-opacity:1;fill-rule:evenodd;stroke:none"
         transform="matrix(0.13333333,0,0,-0.13333333,0,371.14667)" />
      <path
         id="path52"
         d="m 816.723,1640.93 c 0,3.49 -1.414,6.83 -3.868,9.32 -2.488,2.45 -5.828,3.87 -9.316,3.87 -3.516,0 -6.855,-1.42 -9.336,-3.87 -2.461,-2.49 -3.848,-5.83 -3.848,-9.32 0,-3.5 1.387,-6.84 3.848,-9.32 2.481,-2.46 5.82,-3.85 9.336,-3.85 3.488,0 6.828,1.39 9.316,3.85 2.454,2.48 3.868,5.82 3.868,9.32 v 0"
         style="fill:#3871c1;fill-opacity:1;fill-rule:evenodd;stroke:none"
         transform="matrix(0.13333333,0,0,-0.13333333,0,371.14667)" />
      <path
         id="path53"
         d="m 2039.62,1717.18 c 0,3.49 -1.38,6.85 -3.86,9.31 -2.45,2.48 -5.83,3.87 -9.31,3.87 -3.52,0 -6.86,-1.39 -9.32,-3.87 -2.48,-2.46 -3.86,-5.82 -3.86,-9.31 0,-3.51 1.38,-6.85 3.86,-9.33 2.46,-2.46 5.8,-3.84 9.32,-3.84 3.48,0 6.86,1.38 9.31,3.84 2.48,2.48 3.86,5.82 3.86,9.33 v 0"
         style="fill:#3871c1;fill-opacity:1;fill-rule:evenodd;stroke:none"
         transform="matrix(0.13333333,0,0,-0.13333333,0,371.14667)" />
      <path
         id="path54"
         d="m 2698.52,2376.08 c 0,3.49 -1.38,6.86 -3.87,9.31 -2.45,2.49 -5.82,3.88 -9.3,3.88 -3.51,0 -6.85,-1.39 -9.34,-3.88 -2.45,-2.45 -3.84,-5.82 -3.84,-9.31 0,-3.51 1.39,-6.85 3.84,-9.33 2.49,-2.46 5.83,-3.84 9.34,-3.84 3.48,0 6.85,1.38 9.3,3.84 2.49,2.48 3.87,5.82 3.87,9.33 v 0"
         style="fill:#3871c1;fill-opacity:1;fill-rule:evenodd;stroke:none"
         transform="matrix(0.13333333,0,0,-0.13333333,0,371.14667)" />
      <path
         id="path55"
         d="m 1710.18,2705.54 c 0,3.48 -1.39,6.82 -3.88,9.3 -2.46,2.48 -5.82,3.87 -9.3,3.87 -3.49,0 -6.86,-1.39 -9.32,-3.87 -2.48,-2.48 -3.87,-5.82 -3.87,-9.3 0,-3.52 1.39,-6.86 3.87,-9.34 2.46,-2.46 5.83,-3.84 9.32,-3.84 3.48,0 6.84,1.38 9.3,3.84 2.49,2.48 3.88,5.82 3.88,9.34 v 0"
         style="fill:#3871c1;fill-opacity:1;fill-rule:evenodd;stroke:none"
         transform="matrix(0.13333333,0,0,-0.13333333,0,371.14667)" />
      <path
         id="path56"
         d="m 2369.07,2046.63 c 0,3.49 -1.38,6.85 -3.87,9.32 -2.45,2.48 -5.82,3.86 -9.3,3.86 -3.51,0 -6.85,-1.38 -9.33,-3.86 -2.46,-2.47 -3.85,-5.83 -3.85,-9.32 0,-3.51 1.39,-6.85 3.85,-9.33 2.48,-2.46 5.82,-3.85 9.33,-3.85 3.48,0 6.85,1.39 9.3,3.85 2.49,2.48 3.87,5.82 3.87,9.33 v 0"
         style="fill:#3871c1;fill-opacity:1;fill-rule:evenodd;stroke:none"
         transform="matrix(0.13333333,0,0,-0.13333333,0,371.14667)" />
      <path
         id="path57"
         d="m 1874.89,2211.34 c 0,3.52 -1.39,6.86 -3.85,9.34 -2.48,2.46 -5.82,3.85 -9.34,3.85 -3.47,0 -6.82,-1.39 -9.3,-3.85 -2.45,-2.48 -3.87,-5.82 -3.87,-9.34 0,-3.48 1.42,-6.85 3.87,-9.3 2.48,-2.48 5.83,-3.87 9.3,-3.87 3.52,0 6.86,1.39 9.34,3.87 2.46,2.45 3.85,5.82 3.85,9.3 v 0"
         style="fill:#3871c1;fill-opacity:1;fill-rule:evenodd;stroke:none"
         transform="matrix(0.13333333,0,0,-0.13333333,0,371.14667)" />
      <path
         id="path58"
         d="m 2533.79,1552.45 c 0,3.5 -1.38,6.84 -3.84,9.32 -2.48,2.46 -5.82,3.85 -9.34,3.85 -3.49,0 -6.86,-1.39 -9.32,-3.85 -2.48,-2.48 -3.86,-5.82 -3.86,-9.32 0,-3.49 1.38,-6.86 3.86,-9.32 2.46,-2.48 5.83,-3.87 9.32,-3.87 3.52,0 6.86,1.39 9.34,3.87 2.46,2.46 3.84,5.83 3.84,9.32 v 0"
         style="fill:#3871c1;fill-opacity:1;fill-rule:evenodd;stroke:none"
         transform="matrix(0.13333333,0,0,-0.13333333,0,371.14667)" />
      <path
         id="path59"
         d="m 1545.43,1881.89 c 0,3.51 -1.38,6.86 -3.83,9.34 -2.49,2.46 -5.83,3.84 -9.35,3.84 -3.48,0 -6.82,-1.38 -9.3,-3.84 -2.46,-2.48 -3.86,-5.83 -3.86,-9.34 0,-3.48 1.4,-6.84 3.86,-9.3 2.48,-2.48 5.82,-3.87 9.3,-3.87 3.52,0 6.86,1.39 9.35,3.87 2.45,2.46 3.83,5.82 3.83,9.3 v 0"
         style="fill:#3871c1;fill-opacity:1;fill-rule:evenodd;stroke:none"
         transform="matrix(0.13333333,0,0,-0.13333333,0,371.14667)" />
      <path
         id="path60"
         d="m 2204.34,2540.8 c 0,3.5 -1.39,6.85 -3.85,9.33 -2.48,2.46 -5.82,3.84 -9.33,3.84 -3.48,0 -6.83,-1.38 -9.31,-3.84 -2.49,-2.48 -3.87,-5.83 -3.87,-9.33 0,-3.49 1.38,-6.86 3.87,-9.32 2.48,-2.48 5.83,-3.87 9.31,-3.87 3.51,0 6.85,1.39 9.33,3.87 2.46,2.46 3.85,5.83 3.85,9.32 v 0"
         style="fill:#3871c1;fill-opacity:1;fill-rule:evenodd;stroke:none"
         transform="matrix(0.13333333,0,0,-0.13333333,0,371.14667)" />
      <path
         id="path61"
         d="m 2121.98,2458.44 c 0,3.48 -1.39,6.85 -3.87,9.31 -2.46,2.48 -5.8,3.87 -9.31,3.87 -3.48,0 -6.84,-1.39 -9.3,-3.87 -2.49,-2.46 -3.87,-5.83 -3.87,-9.31 0,-3.48 1.38,-6.85 3.87,-9.31 2.46,-2.49 5.82,-3.86 9.3,-3.86 3.51,0 6.85,1.37 9.31,3.86 2.48,2.46 3.87,5.83 3.87,9.31 v 0"
         style="fill:#3871c1;fill-opacity:1;fill-rule:evenodd;stroke:none"
         transform="matrix(0.13333333,0,0,-0.13333333,0,371.14667)" />
      <path
         id="path62"
         d="m 2780.88,1799.54 c 0,3.48 -1.38,6.85 -3.86,9.31 -2.45,2.48 -5.83,3.86 -9.32,3.86 -3.48,0 -6.85,-1.38 -9.31,-3.86 -2.48,-2.46 -3.86,-5.83 -3.86,-9.31 0,-3.49 1.38,-6.85 3.86,-9.31 2.46,-2.48 5.83,-3.87 9.31,-3.87 3.49,0 6.87,1.39 9.32,3.87 2.48,2.46 3.86,5.82 3.86,9.31 v 0"
         style="fill:#3871c1;fill-opacity:1;fill-rule:evenodd;stroke:none"
         transform="matrix(0.13333333,0,0,-0.13333333,0,371.14667)" />
      <path
         id="path63"
         d="m 1792.52,1470.08 c 0,3.49 -1.37,6.86 -3.84,9.32 -2.48,2.48 -5.82,3.87 -9.33,3.87 -3.49,0 -6.85,-1.39 -9.31,-3.87 -2.48,-2.46 -3.86,-5.83 -3.86,-9.32 0,-3.48 1.38,-6.84 3.86,-9.3 2.46,-2.48 5.82,-3.87 9.31,-3.87 3.51,0 6.85,1.39 9.33,3.87 2.47,2.46 3.84,5.82 3.84,9.3 v 0"
         style="fill:#3871c1;fill-opacity:1;fill-rule:evenodd;stroke:none"
         transform="matrix(0.13333333,0,0,-0.13333333,0,371.14667)" />
      <path
         id="path64"
         d="m 2451.43,2128.99 c 0,3.48 -1.39,6.85 -3.87,9.31 -2.46,2.48 -5.82,3.86 -9.31,3.86 -3.48,0 -6.85,-1.38 -9.3,-3.86 -2.49,-2.46 -3.87,-5.83 -3.87,-9.31 0,-3.49 1.38,-6.85 3.87,-9.31 2.45,-2.48 5.82,-3.87 9.3,-3.87 3.49,0 6.85,1.39 9.31,3.87 2.48,2.46 3.87,5.82 3.87,9.31 v 0"
         style="fill:#3871c1;fill-opacity:1;fill-rule:evenodd;stroke:none"
         transform="matrix(0.13333333,0,0,-0.13333333,0,371.14667)" />
      <path
         id="path65"
         d="m 1957.27,1964.27 c 0,3.49 -1.39,6.83 -3.88,9.32 -2.47,2.45 -5.82,3.86 -9.3,3.86 -3.51,0 -6.86,-1.41 -9.33,-3.86 -2.47,-2.49 -3.85,-5.83 -3.85,-9.32 0,-3.5 1.38,-6.85 3.85,-9.33 2.47,-2.46 5.82,-3.87 9.33,-3.87 3.48,0 6.83,1.41 9.3,3.87 2.49,2.48 3.88,5.83 3.88,9.33 v 0"
         style="fill:#3871c1;fill-opacity:1;fill-rule:evenodd;stroke:none"
         transform="matrix(0.13333333,0,0,-0.13333333,0,371.14667)" />
      <path
         id="path66"
         d="m 2616.17,2623.15 c 0,3.51 -1.41,6.86 -3.87,9.33 -2.48,2.47 -5.82,3.84 -9.31,3.84 -3.51,0 -6.85,-1.37 -9.33,-3.84 -2.46,-2.47 -3.85,-5.82 -3.85,-9.33 0,-3.48 1.39,-6.83 3.85,-9.31 2.48,-2.46 5.82,-3.86 9.33,-3.86 3.49,0 6.83,1.4 9.31,3.86 2.46,2.48 3.87,5.83 3.87,9.31 v 0"
         style="fill:#3871c1;fill-opacity:1;fill-rule:evenodd;stroke:none"
         transform="matrix(0.13333333,0,0,-0.13333333,0,371.14667)" />
      <path
         id="path67"
         d="m 1627.82,2293.7 c 0,3.51 -1.39,6.85 -3.87,9.34 -2.46,2.46 -5.82,3.84 -9.32,3.84 -3.49,0 -6.84,-1.38 -9.33,-3.84 -2.45,-2.49 -3.83,-5.83 -3.83,-9.34 0,-3.48 1.38,-6.82 3.83,-9.31 2.49,-2.46 5.84,-3.86 9.33,-3.86 3.5,0 6.86,1.4 9.32,3.86 2.48,2.49 3.87,5.83 3.87,9.31 v 0"
         style="fill:#3871c1;fill-opacity:1;fill-rule:evenodd;stroke:none"
         transform="matrix(0.13333333,0,0,-0.13333333,0,371.14667)" />
      <path
         id="path68"
         d="m 2286.72,1634.82 c 0,3.49 -1.41,6.83 -3.86,9.32 -2.49,2.45 -5.83,3.86 -9.32,3.86 -3.52,0 -6.86,-1.41 -9.34,-3.86 -2.46,-2.49 -3.84,-5.83 -3.84,-9.32 0,-3.51 1.38,-6.85 3.84,-9.33 2.48,-2.46 5.82,-3.84 9.34,-3.84 3.49,0 6.83,1.38 9.32,3.84 2.45,2.48 3.86,5.82 3.86,9.33 v 0"
         style="fill:#3871c1;fill-opacity:1;fill-rule:evenodd;stroke:none"
         transform="matrix(0.13333333,0,0,-0.13333333,0,371.14667)" />
      <path
         id="path69"
         d="m 3499.62,1716.77 c 0,3.49 -1.38,6.85 -3.86,9.32 -2.45,2.48 -5.83,3.86 -9.31,3.86 -3.52,0 -6.86,-1.38 -9.32,-3.86 -2.48,-2.47 -3.86,-5.83 -3.86,-9.32 0,-3.5 1.38,-6.85 3.86,-9.33 2.46,-2.46 5.8,-3.84 9.32,-3.84 3.48,0 6.86,1.38 9.31,3.84 2.48,2.48 3.86,5.83 3.86,9.33 v 0"
         style="fill:#3871c1;fill-opacity:1;fill-rule:evenodd;stroke:none"
         transform="matrix(0.13333333,0,0,-0.13333333,0,371.14667)" />
      <path
         id="path70"
         d="m 4158.52,2375.68 c 0,3.49 -1.38,6.85 -3.87,9.3 -2.45,2.49 -5.82,3.88 -9.3,3.88 -3.51,0 -6.85,-1.39 -9.34,-3.88 -2.45,-2.45 -3.84,-5.81 -3.84,-9.3 0,-3.51 1.39,-6.86 3.84,-9.34 2.49,-2.45 5.83,-3.84 9.34,-3.84 3.48,0 6.85,1.39 9.3,3.84 2.49,2.48 3.87,5.83 3.87,9.34 v 0"
         style="fill:#3871c1;fill-opacity:1;fill-rule:evenodd;stroke:none"
         transform="matrix(0.13333333,0,0,-0.13333333,0,371.14667)" />
      <path
         id="path71"
         d="m 3170.18,2705.13 c 0,3.48 -1.39,6.82 -3.88,9.31 -2.46,2.47 -5.82,3.87 -9.3,3.87 -3.49,0 -6.86,-1.4 -9.32,-3.87 -2.48,-2.49 -3.87,-5.83 -3.87,-9.31 0,-3.51 1.39,-6.86 3.87,-9.34 2.46,-2.45 5.83,-3.84 9.32,-3.84 3.48,0 6.84,1.39 9.3,3.84 2.49,2.48 3.88,5.83 3.88,9.34 v 0"
         style="fill:#3871c1;fill-opacity:1;fill-rule:evenodd;stroke:none"
         transform="matrix(0.13333333,0,0,-0.13333333,0,371.14667)" />
      <path
         id="path72"
         d="m 3829.07,2046.23 c 0,3.48 -1.38,6.85 -3.87,9.31 -2.45,2.48 -5.82,3.87 -9.3,3.87 -3.51,0 -6.85,-1.39 -9.33,-3.87 -2.46,-2.46 -3.85,-5.83 -3.85,-9.31 0,-3.52 1.39,-6.85 3.85,-9.34 2.48,-2.46 5.82,-3.84 9.33,-3.84 3.48,0 6.85,1.38 9.3,3.84 2.49,2.49 3.87,5.82 3.87,9.34 v 0"
         style="fill:#3871c1;fill-opacity:1;fill-rule:evenodd;stroke:none"
         transform="matrix(0.13333333,0,0,-0.13333333,0,371.14667)" />
      <path
         id="path73"
         d="m 3334.89,2210.94 c 0,3.51 -1.39,6.85 -3.85,9.33 -2.48,2.46 -5.82,3.85 -9.34,3.85 -3.47,0 -6.82,-1.39 -9.3,-3.85 -2.45,-2.48 -3.87,-5.82 -3.87,-9.33 0,-3.49 1.42,-6.86 3.87,-9.31 2.48,-2.48 5.83,-3.86 9.3,-3.86 3.52,0 6.86,1.38 9.34,3.86 2.46,2.45 3.85,5.82 3.85,9.31 v 0"
         style="fill:#3871c1;fill-opacity:1;fill-rule:evenodd;stroke:none"
         transform="matrix(0.13333333,0,0,-0.13333333,0,371.14667)" />
      <path
         id="path74"
         d="m 3993.79,1552.04 c 0,3.51 -1.38,6.85 -3.84,9.33 -2.48,2.46 -5.82,3.85 -9.34,3.85 -3.49,0 -6.86,-1.39 -9.32,-3.85 -2.48,-2.48 -3.86,-5.82 -3.86,-9.33 0,-3.48 1.38,-6.85 3.86,-9.31 2.46,-2.48 5.83,-3.87 9.32,-3.87 3.52,0 6.86,1.39 9.34,3.87 2.46,2.46 3.84,5.83 3.84,9.31 v 0"
         style="fill:#3871c1;fill-opacity:1;fill-rule:evenodd;stroke:none"
         transform="matrix(0.13333333,0,0,-0.13333333,0,371.14667)" />
      <path
         id="path75"
         d="m 3005.43,1881.49 c 0,3.51 -1.38,6.85 -3.83,9.33 -2.49,2.46 -5.83,3.84 -9.35,3.84 -3.48,0 -6.82,-1.38 -9.3,-3.84 -2.46,-2.48 -3.86,-5.82 -3.86,-9.33 0,-3.49 1.4,-6.85 3.86,-9.31 2.48,-2.48 5.82,-3.87 9.3,-3.87 3.52,0 6.86,1.39 9.35,3.87 2.45,2.46 3.83,5.82 3.83,9.31 v 0"
         style="fill:#3871c1;fill-opacity:1;fill-rule:evenodd;stroke:none"
         transform="matrix(0.13333333,0,0,-0.13333333,0,371.14667)" />
      <path
         id="path76"
         d="m 3664.34,2540.39 c 0,3.51 -1.39,6.86 -3.85,9.33 -2.48,2.46 -5.82,3.85 -9.33,3.85 -3.48,0 -6.83,-1.39 -9.31,-3.85 -2.49,-2.47 -3.87,-5.82 -3.87,-9.33 0,-3.48 1.38,-6.85 3.87,-9.31 2.48,-2.48 5.83,-3.87 9.31,-3.87 3.51,0 6.85,1.39 9.33,3.87 2.46,2.46 3.85,5.83 3.85,9.31 v 0"
         style="fill:#3871c1;fill-opacity:1;fill-rule:evenodd;stroke:none"
         transform="matrix(0.13333333,0,0,-0.13333333,0,371.14667)" />
      <path
         id="path77"
         d="m 3581.98,2458.04 c 0,3.48 -1.39,6.84 -3.87,9.3 -2.46,2.49 -5.8,3.87 -9.31,3.87 -3.48,0 -6.84,-1.38 -9.3,-3.87 -2.49,-2.46 -3.87,-5.82 -3.87,-9.3 0,-3.49 1.38,-6.86 3.87,-9.31 2.46,-2.5 5.82,-3.87 9.3,-3.87 3.51,0 6.85,1.37 9.31,3.87 2.48,2.45 3.87,5.82 3.87,9.31 v 0"
         style="fill:#3871c1;fill-opacity:1;fill-rule:evenodd;stroke:none"
         transform="matrix(0.13333333,0,0,-0.13333333,0,371.14667)" />
      <path
         id="path78"
         d="m 4240.88,1799.13 c 0,3.49 -1.38,6.85 -3.86,9.32 -2.45,2.48 -5.83,3.86 -9.32,3.86 -3.48,0 -6.85,-1.38 -9.31,-3.86 -2.48,-2.47 -3.86,-5.83 -3.86,-9.32 0,-3.49 1.38,-6.85 3.86,-9.31 2.46,-2.48 5.83,-3.87 9.31,-3.87 3.49,0 6.87,1.39 9.32,3.87 2.48,2.46 3.86,5.82 3.86,9.31 v 0"
         style="fill:#3871c1;fill-opacity:1;fill-rule:evenodd;stroke:none"
         transform="matrix(0.13333333,0,0,-0.13333333,0,371.14667)" />
      <path
         id="path79"
         d="m 3252.52,1469.68 c 0,3.49 -1.37,6.85 -3.84,9.32 -2.48,2.48 -5.82,3.86 -9.33,3.86 -3.49,0 -6.85,-1.38 -9.31,-3.86 -2.48,-2.47 -3.86,-5.83 -3.86,-9.32 0,-3.49 1.38,-6.85 3.86,-9.31 2.46,-2.48 5.82,-3.86 9.31,-3.86 3.51,0 6.85,1.38 9.33,3.86 2.47,2.46 3.84,5.82 3.84,9.31 v 0"
         style="fill:#3871c1;fill-opacity:1;fill-rule:evenodd;stroke:none"
         transform="matrix(0.13333333,0,0,-0.13333333,0,371.14667)" />
      <path
         id="path80"
         d="m 3911.43,2128.59 c 0,3.48 -1.39,6.85 -3.87,9.3 -2.46,2.49 -5.82,3.87 -9.31,3.87 -3.48,0 -6.85,-1.38 -9.3,-3.87 -2.49,-2.45 -3.87,-5.82 -3.87,-9.3 0,-3.49 1.38,-6.86 3.87,-9.32 2.45,-2.48 5.82,-3.86 9.3,-3.86 3.49,0 6.85,1.38 9.31,3.86 2.48,2.46 3.87,5.83 3.87,9.32 v 0"
         style="fill:#3871c1;fill-opacity:1;fill-rule:evenodd;stroke:none"
         transform="matrix(0.13333333,0,0,-0.13333333,0,371.14667)" />
      <path
         id="path81"
         d="m 3417.27,1963.87 c 0,3.49 -1.39,6.83 -3.88,9.31 -2.47,2.46 -5.82,3.87 -9.3,3.87 -3.51,0 -6.86,-1.41 -9.33,-3.87 -2.47,-2.48 -3.85,-5.82 -3.85,-9.31 0,-3.51 1.38,-6.85 3.85,-9.33 2.47,-2.46 5.82,-3.87 9.33,-3.87 3.48,0 6.83,1.41 9.3,3.87 2.49,2.48 3.88,5.82 3.88,9.33 v 0"
         style="fill:#3871c1;fill-opacity:1;fill-rule:evenodd;stroke:none"
         transform="matrix(0.13333333,0,0,-0.13333333,0,371.14667)" />
      <path
         id="path82"
         d="m 4076.17,2622.75 c 0,3.5 -1.41,6.85 -3.87,9.33 -2.48,2.46 -5.82,3.84 -9.31,3.84 -3.51,0 -6.85,-1.38 -9.33,-3.84 -2.46,-2.48 -3.85,-5.83 -3.85,-9.33 0,-3.48 1.39,-6.83 3.85,-9.31 2.48,-2.46 5.82,-3.87 9.33,-3.87 3.49,0 6.83,1.41 9.31,3.87 2.46,2.48 3.87,5.83 3.87,9.31 v 0"
         style="fill:#3871c1;fill-opacity:1;fill-rule:evenodd;stroke:none"
         transform="matrix(0.13333333,0,0,-0.13333333,0,371.14667)" />
      <path
         id="path83"
         d="m 3087.82,2293.3 c 0,3.51 -1.39,6.85 -3.87,9.33 -2.46,2.46 -5.82,3.85 -9.32,3.85 -3.49,0 -6.84,-1.39 -9.33,-3.85 -2.45,-2.48 -3.83,-5.82 -3.83,-9.33 0,-3.48 1.38,-6.83 3.83,-9.31 2.49,-2.46 5.84,-3.86 9.33,-3.86 3.5,0 6.86,1.4 9.32,3.86 2.48,2.48 3.87,5.83 3.87,9.31 v 0"
         style="fill:#3871c1;fill-opacity:1;fill-rule:evenodd;stroke:none"
         transform="matrix(0.13333333,0,0,-0.13333333,0,371.14667)" />
      <path
         id="path84"
         d="m 3746.72,1634.42 c 0,3.48 -1.41,6.82 -3.86,9.31 -2.49,2.45 -5.83,3.87 -9.32,3.87 -3.52,0 -6.86,-1.42 -9.34,-3.87 -2.46,-2.49 -3.84,-5.83 -3.84,-9.31 0,-3.51 1.38,-6.85 3.84,-9.33 2.48,-2.46 5.82,-3.85 9.34,-3.85 3.49,0 6.83,1.39 9.32,3.85 2.45,2.48 3.86,5.82 3.86,9.33 v 0"
         style="fill:#3871c1;fill-opacity:1;fill-rule:evenodd;stroke:none"
         transform="matrix(0.13333333,0,0,-0.13333333,0,371.14667)" />
      <path
         id="path85"
         d="M 2055.65,13.9414 V 1331.74 M 1890.9,13.9414 V 1331.74 M 1726.2,13.9414 V 1331.74 M 1561.45,13.9414 V 1331.74 M 1396.74,13.9414 V 1331.74 M 1232.04,13.9414 V 1331.74 M 1067.29,13.9414 V 1331.74 M 902.582,13.9414 V 1331.74 M 737.848,13.9414 V 1331.74"
         style="fill:none;stroke:#231f20;stroke-width:3.5;stroke-linecap:butt;stroke-linejoin:miter;stroke-miterlimit:3.25;stroke-dasharray:none;stroke-opacity:1"
         transform="matrix(0.13333333,0,0,-0.13333333,0,371.14667)" />
      <path
         id="path86"
         d="m 1304.62,273.809 c 0,3.492 -1.38,6.851 -3.86,9.312 -2.45,2.481 -5.83,3.859 -9.31,3.859 -3.52,0 -6.86,-1.378 -9.32,-3.859 -2.48,-2.461 -3.86,-5.82 -3.86,-9.312 0,-3.508 1.38,-6.848 3.86,-9.329 2.46,-2.46 5.8,-3.839 9.32,-3.839 3.48,0 6.86,1.379 9.31,3.839 2.48,2.481 3.86,5.821 3.86,9.329 v 0"
         style="fill:#3871c1;fill-opacity:1;fill-rule:evenodd;stroke:none"
         transform="matrix(0.13333333,0,0,-0.13333333,0,371.14667)" />
      <path
         id="path87"
         d="m 1963.52,932.711 c 0,3.488 -1.38,6.859 -3.87,9.309 -2.45,2.492 -5.82,3.871 -9.3,3.871 -3.51,0 -6.85,-1.379 -9.34,-3.871 -2.45,-2.45 -3.84,-5.821 -3.84,-9.309 0,-3.5 1.39,-6.852 3.84,-9.332 2.49,-2.457 5.83,-3.84 9.34,-3.84 3.48,0 6.85,1.383 9.3,3.84 2.49,2.48 3.87,5.832 3.87,9.332 v 0"
         style="fill:#3871c1;fill-opacity:1;fill-rule:evenodd;stroke:none"
         transform="matrix(0.13333333,0,0,-0.13333333,0,371.14667)" />
      <path
         id="path88"
         d="m 975.18,1262.17 c 0,3.48 -1.387,6.82 -3.875,9.31 -2.461,2.47 -5.821,3.86 -9.309,3.86 -3.484,0 -6.855,-1.39 -9.316,-3.86 -2.481,-2.49 -3.867,-5.83 -3.867,-9.31 0,-3.52 1.386,-6.86 3.867,-9.34 2.461,-2.46 5.832,-3.84 9.316,-3.84 3.488,0 6.848,1.38 9.309,3.84 2.488,2.48 3.875,5.82 3.875,9.34 v 0"
         style="fill:#3871c1;fill-opacity:1;fill-rule:evenodd;stroke:none"
         transform="matrix(0.13333333,0,0,-0.13333333,0,371.14667)" />
      <path
         id="path89"
         d="m 1634.07,603.262 c 0,3.488 -1.38,6.847 -3.87,9.308 -2.45,2.481 -5.82,3.871 -9.3,3.871 -3.51,0 -6.85,-1.39 -9.33,-3.871 -2.46,-2.461 -3.85,-5.82 -3.85,-9.308 0,-3.512 1.39,-6.852 3.85,-9.332 2.48,-2.461 5.82,-3.848 9.33,-3.848 3.48,0 6.85,1.387 9.3,3.848 2.49,2.48 3.87,5.82 3.87,9.332 v 0"
         style="fill:#3871c1;fill-opacity:1;fill-rule:evenodd;stroke:none"
         transform="matrix(0.13333333,0,0,-0.13333333,0,371.14667)" />
      <path
         id="path90"
         d="m 1139.89,767.969 c 0,3.519 -1.39,6.863 -3.85,9.34 -2.48,2.461 -5.82,3.851 -9.34,3.851 -3.47,0 -6.82,-1.39 -9.3,-3.851 -2.45,-2.477 -3.87,-5.821 -3.87,-9.34 0,-3.481 1.42,-6.848 3.87,-9.297 2.48,-2.481 5.83,-3.871 9.3,-3.871 3.52,0 6.86,1.39 9.34,3.871 2.46,2.449 3.85,5.816 3.85,9.297 v 0"
         style="fill:#3871c1;fill-opacity:1;fill-rule:evenodd;stroke:none"
         transform="matrix(0.13333333,0,0,-0.13333333,0,371.14667)" />
      <path
         id="path91"
         d="m 1798.79,109.07 c 0,3.52 -1.38,6.86 -3.84,9.34 -2.48,2.461 -5.82,3.852 -9.34,3.852 -3.49,0 -6.86,-1.391 -9.32,-3.852 -2.48,-2.48 -3.86,-5.82 -3.86,-9.34 0,-3.468 1.38,-6.851 3.86,-9.3083 2.46,-2.4804 5.83,-3.8711 9.32,-3.8711 3.52,0 6.86,1.3907 9.34,3.8711 2.46,2.4573 3.84,5.8403 3.84,9.3083 v 0"
         style="fill:#3871c1;fill-opacity:1;fill-rule:evenodd;stroke:none"
         transform="matrix(0.13333333,0,0,-0.13333333,0,371.14667)" />
      <path
         id="path92"
         d="m 810.434,438.531 c 0,3.5 -1.387,6.848 -3.836,9.328 -2.493,2.461 -5.832,3.84 -9.348,3.84 -3.477,0 -6.816,-1.379 -9.297,-3.84 -2.461,-2.48 -3.867,-5.828 -3.867,-9.328 0,-3.492 1.406,-6.851 3.867,-9.32 2.481,-2.481 5.82,-3.859 9.297,-3.859 3.516,0 6.855,1.378 9.348,3.859 2.449,2.469 3.836,5.828 3.836,9.32 v 0"
         style="fill:#3871c1;fill-opacity:1;fill-rule:evenodd;stroke:none"
         transform="matrix(0.13333333,0,0,-0.13333333,0,371.14667)" />
      <path
         id="path93"
         d="m 1469.34,1097.43 c 0,3.5 -1.39,6.85 -3.85,9.33 -2.48,2.46 -5.82,3.84 -9.33,3.84 -3.48,0 -6.83,-1.38 -9.31,-3.84 -2.49,-2.48 -3.87,-5.83 -3.87,-9.33 0,-3.49 1.38,-6.86 3.87,-9.31 2.48,-2.48 5.83,-3.88 9.31,-3.88 3.51,0 6.85,1.4 9.33,3.88 2.46,2.45 3.85,5.82 3.85,9.31 v 0"
         style="fill:#3871c1;fill-opacity:1;fill-rule:evenodd;stroke:none"
         transform="matrix(0.13333333,0,0,-0.13333333,0,371.14667)" />
      <path
         id="path94"
         d="m 1386.98,1015.07 c 0,3.48 -1.39,6.85 -3.87,9.31 -2.46,2.49 -5.8,3.87 -9.31,3.87 -3.48,0 -6.84,-1.38 -9.3,-3.87 -2.49,-2.46 -3.87,-5.83 -3.87,-9.31 0,-3.48 1.38,-6.85 3.87,-9.31 2.46,-2.49 5.82,-3.86 9.3,-3.86 3.51,0 6.85,1.37 9.31,3.86 2.48,2.46 3.87,5.83 3.87,9.31 v 0"
         style="fill:#3871c1;fill-opacity:1;fill-rule:evenodd;stroke:none"
         transform="matrix(0.13333333,0,0,-0.13333333,0,371.14667)" />
      <path
         id="path95"
         d="m 2045.88,356.172 c 0,3.476 -1.38,6.848 -3.86,9.308 -2.45,2.481 -5.83,3.872 -9.32,3.872 -3.48,0 -6.85,-1.391 -9.31,-3.872 -2.48,-2.46 -3.86,-5.832 -3.86,-9.308 0,-3.492 1.38,-6.852 3.86,-9.313 2.46,-2.48 5.83,-3.871 9.31,-3.871 3.49,0 6.87,1.391 9.32,3.871 2.48,2.461 3.86,5.821 3.86,9.313 v 0"
         style="fill:#3871c1;fill-opacity:1;fill-rule:evenodd;stroke:none"
         transform="matrix(0.13333333,0,0,-0.13333333,0,371.14667)" />
      <path
         id="path96"
         d="m 1057.52,26.7109 c 0,3.5 -1.37,6.8594 -3.84,9.3204 -2.48,2.4804 -5.82,3.8593 -9.33,3.8593 -3.49,0 -6.85,-1.3789 -9.31,-3.8593 -2.48,-2.461 -3.86,-5.8204 -3.86,-9.3204 0,-3.4804 1.38,-6.8398 3.86,-9.3007 2.46,-2.4805 5.82,-3.8594 9.31,-3.8594 3.51,0 6.85,1.3789 9.33,3.8594 2.47,2.4609 3.84,5.8203 3.84,9.3007 v 0"
         style="fill:#3871c1;fill-opacity:1;fill-rule:evenodd;stroke:none"
         transform="matrix(0.13333333,0,0,-0.13333333,0,371.14667)" />
      <path
         id="path97"
         d="m 1716.43,685.621 c 0,3.481 -1.39,6.848 -3.87,9.309 -2.46,2.48 -5.82,3.871 -9.31,3.871 -3.48,0 -6.85,-1.391 -9.3,-3.871 -2.49,-2.461 -3.87,-5.828 -3.87,-9.309 0,-3.492 1.38,-6.851 3.87,-9.32 2.45,-2.481 5.82,-3.86 9.3,-3.86 3.49,0 6.85,1.379 9.31,3.86 2.48,2.469 3.87,5.828 3.87,9.32 v 0"
         style="fill:#3871c1;fill-opacity:1;fill-rule:evenodd;stroke:none"
         transform="matrix(0.13333333,0,0,-0.13333333,0,371.14667)" />
      <path
         id="path98"
         d="m 1222.27,520.898 c 0,3.493 -1.39,6.832 -3.88,9.321 -2.47,2.453 -5.82,3.863 -9.3,3.863 -3.51,0 -6.86,-1.41 -9.33,-3.863 -2.47,-2.489 -3.85,-5.828 -3.85,-9.321 0,-3.5 1.38,-6.847 3.85,-9.328 2.47,-2.461 5.82,-3.859 9.33,-3.859 3.48,0 6.83,1.398 9.3,3.859 2.49,2.481 3.88,5.828 3.88,9.328 v 0"
         style="fill:#3871c1;fill-opacity:1;fill-rule:evenodd;stroke:none"
         transform="matrix(0.13333333,0,0,-0.13333333,0,371.14667)" />
      <path
         id="path99"
         d="m 1881.17,1179.78 c 0,3.51 -1.41,6.86 -3.87,9.33 -2.48,2.47 -5.82,3.85 -9.31,3.85 -3.51,0 -6.85,-1.38 -9.33,-3.85 -2.46,-2.47 -3.85,-5.82 -3.85,-9.33 0,-3.48 1.39,-6.82 3.85,-9.31 2.48,-2.46 5.82,-3.86 9.33,-3.86 3.49,0 6.83,1.4 9.31,3.86 2.46,2.49 3.87,5.83 3.87,9.31 v 0"
         style="fill:#3871c1;fill-opacity:1;fill-rule:evenodd;stroke:none"
         transform="matrix(0.13333333,0,0,-0.13333333,0,371.14667)" />
      <path
         id="path100"
         d="m 892.816,850.332 c 0,3.508 -1.386,6.848 -3.867,9.328 -2.461,2.469 -5.82,3.852 -9.316,3.852 -3.496,0 -6.844,-1.383 -9.336,-3.852 -2.449,-2.48 -3.828,-5.82 -3.828,-9.328 0,-3.48 1.379,-6.82 3.828,-9.301 2.492,-2.461 5.84,-3.871 9.336,-3.871 3.496,0 6.855,1.41 9.316,3.871 2.481,2.481 3.867,5.821 3.867,9.301 v 0"
         style="fill:#3871c1;fill-opacity:1;fill-rule:evenodd;stroke:none"
         transform="matrix(0.13333333,0,0,-0.13333333,0,371.14667)" />
      <path
         id="path101"
         d="m 1551.72,191.461 c 0,3.469 -1.41,6.809 -3.86,9.309 -2.49,2.441 -5.83,3.871 -9.32,3.871 -3.52,0 -6.86,-1.43 -9.34,-3.871 -2.46,-2.5 -3.84,-5.84 -3.84,-9.309 0,-3.52 1.38,-6.859 3.84,-9.34 2.48,-2.461 5.82,-3.851 9.34,-3.851 3.49,0 6.83,1.39 9.32,3.851 2.45,2.481 3.86,5.82 3.86,9.34 v 0"
         style="fill:#3871c1;fill-opacity:1;fill-rule:evenodd;stroke:none"
         transform="matrix(0.13333333,0,0,-0.13333333,0,371.14667)" />
      <path
         id="path102"
         d="M 3443.29,0.761719 V 1318.57 M 3360.9,0.761719 V 1318.57 M 3278.55,0.761719 V 1318.57 M 3196.2,0.761719 V 1318.57 M 3113.83,0.761719 V 1318.57 M 3031.45,0.761719 V 1318.57 M 2949.11,0.761719 V 1318.57 M 2866.74,0.761719 V 1318.57 M 2784.38,0.761719 V 1318.57 M 2702.04,0.761719 V 1318.57 M 2619.64,0.761719 V 1318.57 M 2537.29,0.761719 V 1318.57 M 2454.93,0.761719 V 1318.57 M 2372.58,0.761719 V 1318.57 M 2290.2,0.761719 V 1318.57"
         style="fill:none;stroke:#231f20;stroke-width:3.5;stroke-linecap:butt;stroke-linejoin:miter;stroke-miterlimit:3.25;stroke-dasharray:none;stroke-opacity:1"
         transform="matrix(0.13333333,0,0,-0.13333333,0,371.14667)" />
      <path
         id="path103"
         d="m 2774.62,260.641 c 0,3.468 -1.38,6.839 -3.86,9.3 -2.45,2.481 -5.83,3.868 -9.31,3.868 -3.52,0 -6.86,-1.387 -9.32,-3.868 -2.48,-2.461 -3.86,-5.832 -3.86,-9.3 0,-3.52 1.38,-6.86 3.86,-9.34 2.46,-2.461 5.8,-3.852 9.32,-3.852 3.48,0 6.86,1.391 9.31,3.852 2.48,2.48 3.86,5.82 3.86,9.34 v 0"
         style="fill:#3871c1;fill-opacity:1;fill-rule:evenodd;stroke:none"
         transform="matrix(0.13333333,0,0,-0.13333333,0,371.14667)" />
      <path
         id="path104"
         d="m 3433.52,919.531 c 0,3.489 -1.38,6.86 -3.87,9.309 -2.45,2.492 -5.82,3.879 -9.3,3.879 -3.51,0 -6.85,-1.387 -9.34,-3.879 -2.45,-2.449 -3.84,-5.82 -3.84,-9.309 0,-3.5 1.39,-6.851 3.84,-9.332 2.49,-2.449 5.83,-3.84 9.34,-3.84 3.48,0 6.85,1.391 9.3,3.84 2.49,2.481 3.87,5.832 3.87,9.332 v 0"
         style="fill:#3871c1;fill-opacity:1;fill-rule:evenodd;stroke:none"
         transform="matrix(0.13333333,0,0,-0.13333333,0,371.14667)" />
      <path
         id="path105"
         d="m 2445.18,1248.99 c 0,3.48 -1.39,6.82 -3.88,9.31 -2.46,2.47 -5.82,3.86 -9.3,3.86 -3.49,0 -6.86,-1.39 -9.32,-3.86 -2.48,-2.49 -3.87,-5.83 -3.87,-9.31 0,-3.52 1.39,-6.86 3.87,-9.34 2.46,-2.46 5.83,-3.84 9.32,-3.84 3.48,0 6.84,1.38 9.3,3.84 2.49,2.48 3.88,5.82 3.88,9.34 v 0"
         style="fill:#3871c1;fill-opacity:1;fill-rule:evenodd;stroke:none"
         transform="matrix(0.13333333,0,0,-0.13333333,0,371.14667)" />
      <path
         id="path106"
         d="m 3104.07,590.082 c 0,3.488 -1.38,6.848 -3.87,9.316 -2.45,2.481 -5.82,3.864 -9.3,3.864 -3.51,0 -6.85,-1.383 -9.33,-3.864 -2.46,-2.468 -3.85,-5.828 -3.85,-9.316 0,-3.512 1.39,-6.852 3.85,-9.332 2.48,-2.461 5.82,-3.84 9.33,-3.84 3.48,0 6.85,1.379 9.3,3.84 2.49,2.48 3.87,5.82 3.87,9.332 v 0"
         style="fill:#3871c1;fill-opacity:1;fill-rule:evenodd;stroke:none"
         transform="matrix(0.13333333,0,0,-0.13333333,0,371.14667)" />
      <path
         id="path107"
         d="m 2609.89,754.801 c 0,3.508 -1.39,6.847 -3.85,9.328 -2.48,2.461 -5.82,3.851 -9.34,3.851 -3.47,0 -6.82,-1.39 -9.3,-3.851 -2.45,-2.481 -3.87,-5.82 -3.87,-9.328 0,-3.492 1.42,-6.86 3.87,-9.313 2.48,-2.476 5.83,-3.867 9.3,-3.867 3.52,0 6.86,1.391 9.34,3.867 2.46,2.453 3.85,5.821 3.85,9.313 v 0"
         style="fill:#3871c1;fill-opacity:1;fill-rule:evenodd;stroke:none"
         transform="matrix(0.13333333,0,0,-0.13333333,0,371.14667)" />
      <path
         id="path108"
         d="m 3268.79,95.8984 c 0,3.5118 -1.38,6.8516 -3.84,9.3316 -2.48,2.461 -5.82,3.84 -9.34,3.84 -3.49,0 -6.86,-1.379 -9.32,-3.84 -2.48,-2.48 -3.86,-5.8198 -3.86,-9.3316 0,-3.4882 1.38,-6.8593 3.86,-9.3164 2.46,-2.4804 5.83,-3.8632 9.32,-3.8632 3.52,0 6.86,1.3828 9.34,3.8632 2.46,2.4571 3.84,5.8282 3.84,9.3164 v 0"
         style="fill:#3871c1;fill-opacity:1;fill-rule:evenodd;stroke:none"
         transform="matrix(0.13333333,0,0,-0.13333333,0,371.14667)" />
      <path
         id="path109"
         d="m 2280.43,425.352 c 0,3.5 -1.38,6.847 -3.83,9.328 -2.49,2.461 -5.83,3.84 -9.35,3.84 -3.48,0 -6.82,-1.379 -9.3,-3.84 -2.46,-2.481 -3.86,-5.828 -3.86,-9.328 0,-3.493 1.4,-6.852 3.86,-9.313 2.48,-2.48 5.82,-3.867 9.3,-3.867 3.52,0 6.86,1.387 9.35,3.867 2.45,2.461 3.83,5.82 3.83,9.313 v 0"
         style="fill:#3871c1;fill-opacity:1;fill-rule:evenodd;stroke:none"
         transform="matrix(0.13333333,0,0,-0.13333333,0,371.14667)" />
      <path
         id="path110"
         d="m 2939.34,1084.25 c 0,3.51 -1.39,6.85 -3.85,9.33 -2.48,2.46 -5.82,3.84 -9.33,3.84 -3.48,0 -6.83,-1.38 -9.31,-3.84 -2.49,-2.48 -3.87,-5.82 -3.87,-9.33 0,-3.49 1.38,-6.86 3.87,-9.31 2.48,-2.48 5.83,-3.87 9.31,-3.87 3.51,0 6.85,1.39 9.33,3.87 2.46,2.45 3.85,5.82 3.85,9.31 v 0"
         style="fill:#3871c1;fill-opacity:1;fill-rule:evenodd;stroke:none"
         transform="matrix(0.13333333,0,0,-0.13333333,0,371.14667)" />
      <path
         id="path111"
         d="m 2856.98,1001.89 c 0,3.48 -1.39,6.85 -3.87,9.31 -2.46,2.49 -5.8,3.87 -9.31,3.87 -3.48,0 -6.84,-1.38 -9.3,-3.87 -2.49,-2.46 -3.87,-5.83 -3.87,-9.31 0,-3.48 1.38,-6.851 3.87,-9.308 2.46,-2.492 5.82,-3.863 9.3,-3.863 3.51,0 6.85,1.371 9.31,3.863 2.48,2.457 3.87,5.828 3.87,9.308 v 0"
         style="fill:#3871c1;fill-opacity:1;fill-rule:evenodd;stroke:none"
         transform="matrix(0.13333333,0,0,-0.13333333,0,371.14667)" />
      <path
         id="path112"
         d="m 3515.88,342.988 c 0,3.492 -1.38,6.852 -3.86,9.313 -2.45,2.48 -5.83,3.871 -9.32,3.871 -3.48,0 -6.85,-1.391 -9.31,-3.871 -2.48,-2.461 -3.86,-5.821 -3.86,-9.313 0,-3.488 1.38,-6.847 3.86,-9.308 2.46,-2.481 5.83,-3.871 9.31,-3.871 3.49,0 6.87,1.39 9.32,3.871 2.48,2.461 3.86,5.82 3.86,9.308 v 0"
         style="fill:#3871c1;fill-opacity:1;fill-rule:evenodd;stroke:none"
         transform="matrix(0.13333333,0,0,-0.13333333,0,371.14667)" />
      <path
         id="path113"
         d="m 2527.52,13.5391 c 0,3.4804 -1.37,6.8515 -3.84,9.3125 -2.48,2.4804 -5.82,3.8672 -9.33,3.8672 -3.49,0 -6.85,-1.3868 -9.31,-3.8672 -2.48,-2.461 -3.86,-5.8321 -3.86,-9.3125 0,-3.4883 1.38,-6.84769 3.86,-9.30863 2.46,-2.48047 5.82,-3.871095 9.31,-3.871095 3.51,0 6.85,1.390625 9.33,3.871095 2.47,2.46094 3.84,5.82033 3.84,9.30863 v 0"
         style="fill:#3871c1;fill-opacity:1;fill-rule:evenodd;stroke:none"
         transform="matrix(0.13333333,0,0,-0.13333333,0,371.14667)" />
      <path
         id="path114"
         d="m 3186.43,672.441 c 0,3.481 -1.39,6.848 -3.87,9.309 -2.46,2.48 -5.82,3.871 -9.31,3.871 -3.48,0 -6.85,-1.391 -9.3,-3.871 -2.49,-2.461 -3.87,-5.828 -3.87,-9.309 0,-3.48 1.38,-6.851 3.87,-9.312 2.45,-2.481 5.82,-3.867 9.3,-3.867 3.49,0 6.85,1.386 9.31,3.867 2.48,2.461 3.87,5.832 3.87,9.312 v 0"
         style="fill:#3871c1;fill-opacity:1;fill-rule:evenodd;stroke:none"
         transform="matrix(0.13333333,0,0,-0.13333333,0,371.14667)" />
      <path
         id="path115"
         d="m 2692.27,507.73 c 0,3.481 -1.39,6.821 -3.88,9.309 -2.47,2.449 -5.82,3.859 -9.3,3.859 -3.51,0 -6.86,-1.41 -9.33,-3.859 -2.47,-2.488 -3.85,-5.828 -3.85,-9.309 0,-3.511 1.38,-6.851 3.85,-9.339 2.47,-2.461 5.82,-3.86 9.33,-3.86 3.48,0 6.83,1.399 9.3,3.86 2.49,2.488 3.88,5.828 3.88,9.339 v 0"
         style="fill:#3871c1;fill-opacity:1;fill-rule:evenodd;stroke:none"
         transform="matrix(0.13333333,0,0,-0.13333333,0,371.14667)" />
      <path
         id="path116"
         d="m 3351.17,1166.6 c 0,3.51 -1.41,6.86 -3.87,9.33 -2.48,2.47 -5.82,3.85 -9.31,3.85 -3.51,0 -6.85,-1.38 -9.33,-3.85 -2.46,-2.47 -3.85,-5.82 -3.85,-9.33 0,-3.48 1.39,-6.82 3.85,-9.3 2.48,-2.46 5.82,-3.87 9.33,-3.87 3.49,0 6.83,1.41 9.31,3.87 2.46,2.48 3.87,5.82 3.87,9.3 v 0"
         style="fill:#3871c1;fill-opacity:1;fill-rule:evenodd;stroke:none"
         transform="matrix(0.13333333,0,0,-0.13333333,0,371.14667)" />
      <path
         id="path117"
         d="m 2362.82,837.148 c 0,3.524 -1.39,6.864 -3.87,9.34 -2.46,2.461 -5.82,3.844 -9.32,3.844 -3.49,0 -6.84,-1.383 -9.33,-3.844 -2.45,-2.476 -3.83,-5.816 -3.83,-9.34 0,-3.476 1.38,-6.816 3.83,-9.296 2.49,-2.461 5.84,-3.872 9.33,-3.872 3.5,0 6.86,1.411 9.32,3.872 2.48,2.48 3.87,5.82 3.87,9.296 v 0"
         style="fill:#3871c1;fill-opacity:1;fill-rule:evenodd;stroke:none"
         transform="matrix(0.13333333,0,0,-0.13333333,0,371.14667)" />
      <path
         id="path118"
         d="m 3021.72,178.27 c 0,3.492 -1.41,6.832 -3.86,9.32 -2.49,2.449 -5.83,3.871 -9.32,3.871 -3.52,0 -6.86,-1.422 -9.34,-3.871 -2.46,-2.488 -3.84,-5.828 -3.84,-9.32 0,-3.5 1.38,-6.84 3.84,-9.321 2.48,-2.457 5.82,-3.847 9.34,-3.847 3.49,0 6.83,1.39 9.32,3.847 2.45,2.481 3.86,5.821 3.86,9.321 v 0"
         style="fill:#3871c1;fill-opacity:1;fill-rule:evenodd;stroke:none"
         transform="matrix(0.13333333,0,0,-0.13333333,0,371.14667)" />
    </g>
  </g>
</svg>
