<?xml version="1.0" encoding="UTF-8" standalone="no"?>
<!-- Created with Inkscape (http://www.inkscape.org/) -->

<svg
   version="1.1"
   id="svg1"
   width="397"
   height="138.32001"
   viewBox="0 0 397 138.32001"
   sodipodi:docname="pha08f03.eps"
   xmlns:inkscape="http://www.inkscape.org/namespaces/inkscape"
   xmlns:sodipodi="http://sodipodi.sourceforge.net/DTD/sodipodi-0.dtd"
   xmlns="http://www.w3.org/2000/svg"
   xmlns:svg="http://www.w3.org/2000/svg">
  <defs
     id="defs1" />
  <sodipodi:namedview
     id="namedview1"
     pagecolor="#ffffff"
     bordercolor="#000000"
     borderopacity="0.25"
     inkscape:showpageshadow="2"
     inkscape:pageopacity="0.0"
     inkscape:pagecheckerboard="0"
     inkscape:deskcolor="#d1d1d1">
    <inkscape:page
       x="0"
       y="0"
       inkscape:label="1"
       id="page1"
       width="397"
       height="138.32001"
       margin="0"
       bleed="0" />
  </sodipodi:namedview>
  <g
     id="g1"
     inkscape:groupmode="layer"
     inkscape:label="1">
    <g
       id="group-R5">
      <path
         id="path2"
         d="m 593.199,205.441 0.028,1.114 V 208 l 0.031,1.426 0.027,2.871 0.031,0.73 v 0.707 l 0.028,1.434 0.031,2.871 0.086,5.684 v 0.703 l 0.031,0.676 v 1.406 l 0.059,2.781 0.058,5.508 0.176,10.984 0.32,21.621 0.704,45.5 0.644,40.723 0.703,42.277 0.645,37.735 0.644,35.449 0.703,36.68 0.645,32.664 0.703,33.687 0.703,31.41 0.645,27.801 0.703,28.59 0.644,25.254 0.645,23.449 0.703,23.957 0.645,21.063 0.703,21.39 0.703,19.602 0.644,17.082 0.704,17.219 0.644,14.886 0.703,14.883 0.703,13.356 0.645,11.371 0.703,11.187 0.644,9.41 0.645,8.266 0.703,7.898 0.645,6.454 0.031,0.089 v 0.114 l 0.027,0.179 0.032,0.403 0.085,0.8 0.207,1.516 0.352,2.844 v 0.176 l 0.027,0.179 0.059,0.325 0.059,0.644 0.175,1.258 0.352,2.312 0.031,0.059 v 0.062 l 0.028,0.106 0.031,0.273 0.086,0.496 0.148,0.938 0.027,0.062 v 0.059 l 0.032,0.113 0.027,0.227 0.09,0.445 0.144,0.844 0.032,0.035 v 0.059 l 0.027,0.121 0.031,0.203 0.086,0.441 0.176,0.789 0.031,0.059 v 0.063 l 0.028,0.078 0.031,0.179 0.086,0.387 0.176,0.664 0.031,0.027 v 0.067 l 0.027,0.058 0.031,0.149 0.086,0.293 0.149,0.555 0.027,0.031 v 0.031 l 0.031,0.047 0.028,0.125 0.09,0.226 0.175,0.446 v 0.062 l 0.028,0.059 0.031,0.086 0.086,0.207 0.031,0.031 v 0.047 l 0.059,0.094 0.058,0.152 0.028,0.02 v 0.027 l 0.031,0.031 0.027,0.063 0.09,0.152 v 0.027 h 0.027 v 0.02 l 0.059,0.094 0.059,0.117 h 0.031 v 0.035 l 0.027,0.027 0.031,0.051 h 0.028 v 0.027 l 0.234,0.247 h 0.031 v 0.019 h 0.028 l 0.031,0.027 h 0.027 v 0.032 h 0.032 l 0.027,0.035 h 0.031 l 0.028,0.027 h 0.058 v 0.031 h 0.149 v 0.028 h 0.086 v -0.028 h 0.148 v -0.031 h 0.059 l 0.027,-0.027 h 0.031 l 0.059,-0.035 0.027,-0.032 0.059,-0.027 0.058,-0.051 h 0.032 v -0.027 h 0.027 l 0.031,-0.063 h 0.027 v -0.031 h 0.032 l 0.027,-0.058 0.059,-0.063 0.031,-0.051 0.086,-0.121 h 0.031 v -0.027 l 0.027,-0.031 0.032,-0.063 0.086,-0.14 0.175,-0.325 0.032,-0.027 v -0.031 l 0.027,-0.028 0.031,-0.093 0.262,-0.618 v -0.027 l 0.031,-0.019 0.028,-0.059 0.031,-0.121 0.086,-0.234 0.176,-0.504 v -0.02 l 0.031,-0.031 v -0.063 l 0.058,-0.117 0.059,-0.262 0.176,-0.558 v -0.028 l 0.027,-0.058 v -0.067 l 0.059,-0.14 0.058,-0.289 0.176,-0.649 v -0.027 l 0.031,-0.059 v -0.093 l 0.059,-0.172 0.086,-0.352 0.176,-0.785 0.351,-1.676 v -0.086 l 0.031,-0.113 0.059,-0.211 0.059,-0.406 0.175,-0.887 0.321,-1.875 0.703,-4.508 0.703,-5.066 0.645,-5.273 0.703,-6.301 0.644,-6.391 0.645,-6.703 0.703,-7.766 0.644,-7.679 0.703,-8.809 0.704,-9.055 0.644,-8.816 0.703,-9.961 0.645,-9.648 0.644,-9.719 0.703,-10.879 0.645,-10.418 0.703,-11.578 0.645,-11.074 0.644,-11.039 0.703,-12.188 0.645,-11.601 0.703,-12.727 0.703,-12.648 0.645,-11.954 0.703,-13.066 0.644,-12.34 0.645,-12.125 0.703,-13.265 0.644,-12.403 0.704,-13.496 0.703,-13.305 0.644,-12.394 0.703,-13.414 0.645,-12.543 0.703,-13.504 0.703,-13.25 0.645,-12.266 0.703,-13.215 0.644,-12.277 0.645,-11.926 0.703,-12.82 0.645,-11.848 0.703,-12.683 0.703,-12.278 0.644,-11.304 0.703,-12.102 0.645,-11.074 0.644,-10.691 0.704,-11.399 0.644,-10.43 0.703,-11.074 0.645,-10.105 0.644,-9.668 0.703,-10.227 0.676,-9.316 0.703,-9.785 0.672,-9.317 0.645,-8.437 0.703,-8.821 0.676,-7.937 0.644,-7.5 0.672,-7.82 0.676,-7.004 0.703,-7.239 0.672,-6.738 0.644,-5.973 0.704,-6.156 0.644,-5.386 0.734,-5.454 0.672,-5.007 0.645,-4.305 0.703,-4.277 0.676,-3.665 0.644,-3.222 0.703,-3.133 0.645,-2.578 v -0.031 l 0.027,-0.059 v -0.059 l 0.059,-0.175 0.09,-0.321 0.175,-0.586 0.352,-1.144 v -0.059 l 0.027,-0.027 v -0.059 l 0.059,-0.121 0.09,-0.261 0.176,-0.497 0.351,-0.937 v -0.031 l 0.028,-0.059 0.031,-0.09 0.086,-0.203 0.175,-0.383 v -0.027 l 0.032,-0.059 0.027,-0.086 0.09,-0.175 0.176,-0.325 v -0.031 l 0.027,-0.054 0.059,-0.09 0.089,-0.149 0.176,-0.32 v -0.027 l 0.028,-0.032 0.058,-0.086 0.09,-0.109 0.176,-0.273 v -0.032 l 0.027,-0.027 0.031,-0.059 0.086,-0.117 h 0.032 l 0.027,-0.027 0.031,-0.063 0.086,-0.086 v -0.031 l 0.031,-0.027 0.059,-0.028 0.059,-0.089 0.175,-0.149 0.028,-0.027 0.058,-0.027 0.059,-0.059 h 0.031 v -0.031 h 0.027 l 0.032,-0.032 0.086,-0.054 h 0.031 l 0.059,-0.032 0.027,-0.031 h 0.031 l 0.027,-0.027 h 0.032 l 0.027,-0.027 h 0.09 v -0.032 h 0.117 v -0.027 h 0.469 l 0.027,0.027 h 0.09 v 0.032 h 0.086 v 0.027 h 0.059 l 0.031,0.027 0.058,0.031 0.086,0.032 0.059,0.054 0.09,0.032 0.027,0.031 h 0.031 l 0.028,0.059 0.09,0.054 0.027,0.031 0.058,0.032 0.09,0.086 v 0.031 l 0.028,0.027 0.058,0.031 0.09,0.086 v 0.032 l 0.086,0.086 0.266,0.351 v 0.031 l 0.086,0.086 0.089,0.118 0.176,0.293 v 0.031 l 0.145,0.293 0.176,0.32 0.031,0.027 0.027,0.063 0.031,0.086 0.086,0.144 0.149,0.356 0.32,0.789 0.031,0.027 v 0.031 l 0.028,0.059 0.031,0.09 0.086,0.23 0.176,0.5 0.351,1.028 0.031,0.027 v 0.027 l 0.028,0.063 0.031,0.144 0.086,0.262 0.148,0.531 0.321,1.141 0.734,2.813 0.672,3.132 0.645,3.286 0.703,3.921 0.675,4.043 0.645,4.282 0.672,5.039 0.676,5.007 0.703,5.833 0.672,6.062 0.644,6.008 0.703,6.824 0.676,6.738 0.613,6.856 0.703,7.793 0.645,7.59 0.703,8.523 0.676,8.262 0.644,8.347 0.704,9.375 0.644,9.028 0.703,10.047 0.703,10.136 0.645,9.7 0.703,10.808 0.645,10.281 0.644,10.317 0.703,11.394 0.653,10.813 0.695,11.953 0.672,11.949 0.644,11.281 0.703,12.422 0.676,11.746 0.703,12.864 0.672,12.773 0.676,12.012 0.703,13.16 0.645,12.359 0.644,12.188 0.703,13.305 0.645,12.449 0.703,13.496 0.703,13.336 0.645,12.422 0.703,13.449 0.644,12.539 0.645,12.25 0.703,13.262 0.644,12.281 0.704,13.246 0.644,12.234 0.645,11.895 0.711,12.785 0.636,11.774 0.703,12.57 0.703,12.125 0.645,11.133 0.703,11.8 0.645,10.817 0.644,10.312 0.703,10.926 0.645,9.906 0.703,10.371 0.703,9.817 0.645,8.808 0.703,9.149 0.644,8.144 0.645,7.59 0.703,7.758 0.644,6.801 0.704,6.82 0.644,5.887 0.645,5.285 0.703,5.094 0.644,4.222 0.028,0.059 v 0.078 l 0.031,0.121 0.027,0.266 0.09,0.519 0.176,1.004 0.379,1.875 v 0.086 l 0.031,0.121 0.027,0.204 0.09,0.433 0.176,0.824 0.027,0.035 v 0.059 l 0.032,0.078 0.027,0.215 0.09,0.371 0.176,0.738 0.027,0.028 v 0.031 l 0.031,0.09 0.028,0.172 0.089,0.293 0.145,0.617 0.031,0.027 v 0.031 l 0.027,0.09 0.032,0.11 0.086,0.293 0.148,0.535 0.027,0.031 v 0.02 l 0.04,0.058 0.019,0.153 0.266,0.707 0.027,0.019 v 0.027 l 0.031,0.067 0.028,0.117 0.089,0.203 0.176,0.383 h 0.028 v 0.027 l 0.031,0.035 0.027,0.079 0.09,0.152 v 0.027 l 0.027,0.063 0.059,0.058 0.059,0.114 0.058,0.058 0.031,0.059 0.086,0.113 0.032,0.027 v 0.036 l 0.058,0.031 0.086,0.086 v 0.035 h 0.031 l 0.118,0.105 h 0.027 l 0.031,0.032 h 0.027 v 0.035 h 0.032 l 0.027,0.027 h 0.09 v 0.031 h 0.144 v 0.028 h 0.09 v -0.028 h 0.145 v -0.031 h 0.058 l 0.032,-0.027 h 0.027 l 0.031,-0.035 h 0.028 l 0.031,-0.032 h 0.027 v -0.027 h 0.031 l 0.204,-0.199 0.089,-0.125 h 0.028 v -0.02 l 0.031,-0.027 0.027,-0.062 0.09,-0.118 v -0.035 l 0.028,-0.031 0.031,-0.047 0.086,-0.152 0.031,-0.028 v -0.035 l 0.027,-0.031 0.032,-0.078 0.086,-0.18 0.148,-0.355 0.027,-0.032 v -0.019 l 0.032,-0.059 0.027,-0.121 0.09,-0.234 0.176,-0.504 0.027,-0.047 v -0.031 l 0.031,-0.063 0.027,-0.152 0.09,-0.293 0.176,-0.613 0.027,-0.059 v -0.019 l 0.032,-0.094 0.027,-0.18 0.09,-0.324 0.176,-0.727 0.027,-0.058 v -0.028 l 0.031,-0.125 0.028,-0.168 0.089,-0.418 0.176,-0.843 v -0.028 l 0.028,-0.066 v -0.105 l 0.058,-0.215 0.059,-0.403 0.176,-0.886 0.324,-1.926 v -0.09 l 0.027,-0.059 v -0.144 l 0.059,-0.274 0.265,-1.75 0.352,-2.586 v -0.078 l 0.027,-0.062 v -0.18 l 0.059,-0.324 0.058,-0.645 0.176,-1.308 0.324,-2.84 0.704,-6.949 0.703,-7.852 0.644,-8.285 0.703,-10.086 0.645,-10.461 0.644,-11.25 0.703,-13.383 0.645,-13.589 0.703,-16 0.703,-16.997 0.645,-17.046 0.703,-19.805 0.644,-19.781 0.645,-20.625 0.703,-23.762 0.645,-23.52 0.703,-27.011 0.672,-26.657 0.617,-27.539 0.703,-31.472 0.672,-30.875 0.703,-35.157 0.676,-36.269 0.644,-35.418 0.703,-40.195 0.672,-39.258 0.645,-40.078 0.676,-45.383 0.027,-0.672 v -0.676 l 0.031,-1.347 0.028,-2.723 0.089,-5.449 0.176,-10.957 v -1.379 l 0.027,-1.407 0.032,-2.753 0.086,-5.567 0.175,-11.191 v -1.524 l 0.09,-4.57 0.086,-6.152 v -1.551 l 0.031,-1.524 0.059,-3.105 v -1.555 l 0.027,-0.761 v -0.789 l 0.032,-0.762 v -0.735"
         style="fill:none;stroke:#3871c1;stroke-width:7.5;stroke-linecap:square;stroke-linejoin:miter;stroke-miterlimit:3.25;stroke-dasharray:none;stroke-opacity:1"
         transform="matrix(0.13333333,0,0,-0.13333333,0,138.32)" />
      <path
         id="path3"
         d="m 2065.62,204.711 0.59,13.887 0.64,15.652 0.66,16.66 0.69,15.235 0.7,16.171 0.67,15.586 0.64,14.207 0.7,15.121 0.69,13.829 0.64,13.3 0.67,14.149 0.68,12.922 0.7,13.711 0.67,13.211 0.64,12.043 0.7,12.8 0.65,11.719 0.74,12.422 0.66,11.926 0.65,10.894 0.7,11.574 0.69,10.579 0.64,10.164 0.7,10.808 0.65,9.848 0.7,10.461 0.67,10.039 0.68,9.176 0.66,9.758 0.69,8.871 0.64,8.558 0.66,9.055 0.69,8.293 0.7,8.781 0.65,8.004 0.64,7.703 0.7,8.176 0.65,7.437 0.7,7.914 0.7,7.59 0.65,6.914 0.7,7.321 0.65,6.715 0.64,6.41 0.7,6.793 0.65,6.211 0.7,6.589 0.71,6.305 0.64,5.777 0.7,6.086 0.65,5.563 0.64,5.332 0.71,5.656 0.64,5.16 0.7,5.446 0.65,4.98 0.64,4.781 0.7,5.039 0.65,4.594 0.7,4.903 0.71,4.656 0.64,4.246 0.7,4.516 0.65,4.101 0.64,3.922 0.71,4.164 0.64,3.797 0.7,4.023 0.71,3.801 0.64,3.52 0.7,3.687 0.65,3.379 0.7,3.535 0.7,3.399 0.65,3.105 0.7,3.285 0.65,2.965 0.64,2.832 0.7,3.027 0.65,2.75 0.7,2.903 0.71,2.75 0.64,2.519 0.7,2.664 0.65,2.43 0.64,2.32 0.71,2.426 0.64,2.231 0.7,2.347 0.65,2.133 0.64,2.055 0.71,2.133 0.66,1.968 0.7,2.055 0.69,1.988 0.64,1.782 0.7,1.875 0.67,1.734 0.64,1.645 0.69,1.722 0.66,1.555 0.7,1.668 0.69,1.555 0.64,1.429 0.7,1.524 0.65,1.382 0.72,1.43 0.68,1.383 0.65,1.23 0.7,1.317 0.67,1.203 0.64,1.137 0.7,1.179 0.65,1.11 1.41,2.226 1.34,2.016 0.65,0.937 0.64,0.891 0.69,0.938 0.66,0.875 0.7,0.878 0.69,0.844 0.64,0.801 0.7,0.816 0.65,0.731 0.72,0.758 0.68,0.738 0.65,0.672 0.7,0.707 0.67,0.617 0.64,0.613 0.68,0.618 0.67,0.582 0.7,0.585 0.69,0.586 0.64,0.493 0.7,0.566 1.29,0.938 0.71,0.492 0.64,0.445 0.7,0.43 0.67,0.414 0.64,0.414 0.68,0.402 0.67,0.387 0.7,0.379 0.69,0.387 0.66,0.32 0.68,0.351 0.67,0.313 0.64,0.305 0.69,0.32 0.66,0.266 0.7,0.292 0.69,0.29 0.64,0.234 0.7,0.262 0.65,0.23 0.72,0.274 0.68,0.23 0.65,0.203 0.7,0.231 0.67,0.179 0.64,0.207 0.7,0.18 0.65,0.172 0.7,0.18 1.35,0.339 1.35,0.305 0.64,0.141 0.69,0.152 0.66,0.113 0.7,0.149 1.29,0.23 0.7,0.121 0.65,0.078 1.41,0.247 0.64,0.078 0.7,0.093 1.29,0.168 0.71,0.094 0.64,0.059 0.7,0.094 0.71,0.058 0.64,0.082 0.7,0.059 1.29,0.121 0.71,0.051 0.64,0.058 0.7,0.063 0.65,0.031 0.64,0.059 0.71,0.031 0.64,0.058 0.7,0.02 0.71,0.066 0.64,0.028 0.7,0.031 0.65,0.059 0.64,0.027 0.71,0.035 0.64,0.027 1.41,0.051 0.64,0.027 h 0.7 l 0.65,0.036 1.41,0.058 h 0.64 l 0.7,0.031 0.65,0.028 h 0.64 l 0.71,0.035 h 0.64 l 0.7,0.027 h 0.71 l 0.64,0.032 h 0.7 l 0.65,0.019 h 1.35 l 0.64,0.027 h 1.99 l 0.71,0.032 h 2.05 l 0.64,0.035 h 2.7 l 0.64,0.027 h 5.45 l 0.7,0.031 h 18.87 l 0.7,0.028 h 95.02 l 0.71,-0.028 h 18.86 l 0.65,-0.031 h 5.39 l 0.64,-0.027 h 3.34 l 0.71,-0.035 h 2.05 l 0.64,-0.032 h 1.37 l 0.64,-0.027 h 1.35 l 0.7,-0.019 h 0.69 l 0.64,-0.032 h 0.71 l 0.64,-0.027 h 0.72 l 0.69,-0.035 h 0.64 l 0.7,-0.028 0.67,-0.031 h 0.64 l 0.71,-0.027 0.64,-0.031 0.7,-0.036 h 0.71 l 0.64,-0.027 0.7,-0.031 1.29,-0.047 0.71,-0.035 0.64,-0.027 0.7,-0.059 0.69,-0.031 0.64,-0.028 0.7,-0.066 0.65,-0.02 0.72,-0.027 0.69,-0.062 0.64,-0.059 0.7,-0.031 0.67,-0.063 0.64,-0.058 1.35,-0.114 0.7,-0.058 0.69,-0.094 0.64,-0.047 0.7,-0.058 0.65,-0.094 0.64,-0.059 0.71,-0.094 0.64,-0.078 0.7,-0.09 0.67,-0.093 0.64,-0.078 0.69,-0.122 0.66,-0.089 0.7,-0.114 1.35,-0.242 0.68,-0.14 0.67,-0.118 0.64,-0.113 1.35,-0.293 0.7,-0.152 0.69,-0.172 0.64,-0.149 0.71,-0.171 0.64,-0.18 0.72,-0.172 0.69,-0.215 0.64,-0.172 0.7,-0.199 0.67,-0.211 0.64,-0.203 0.71,-0.262 0.64,-0.215 0.7,-0.257 0.69,-0.262 0.66,-0.234 1.35,-0.582 0.64,-0.266 0.69,-0.32 0.66,-0.305 1.99,-0.984 0.71,-0.387 0.64,-0.352 1.41,-0.816 0.64,-0.387 0.7,-0.441 1.29,-0.875 0.71,-0.492 0.64,-0.473 1.41,-1.051 0.64,-0.504 0.7,-0.586 1.29,-1.109 0.71,-0.645 0.64,-0.586 0.7,-0.671 0.65,-0.68 0.64,-0.645 0.71,-0.73 0.64,-0.731 1.41,-1.582 0.64,-0.793 0.71,-0.851 0.64,-0.844 0.64,-0.824 0.71,-0.942 0.64,-0.906 1.41,-2.047 0.64,-0.968 0.69,-1.09 0.66,-1.047 0.7,-1.211 0.71,-1.164 0.64,-1.145 0.7,-1.289 1.29,-2.461 0.71,-1.383 0.64,-1.308 0.7,-1.469 0.71,-1.492 0.64,-1.434 0.7,-1.609 0.65,-1.523 0.64,-1.555 0.71,-1.703 0.64,-1.676 0.7,-1.809 0.65,-1.757 0.64,-1.786 0.71,-1.996 0.64,-1.875 0.7,-2.105 0.71,-2.137 0.64,-2.055 0.71,-2.261 1.28,-4.395 0.71,-2.426 0.64,-2.339 1.41,-5.227 0.64,-2.52 0.71,-2.781 0.64,-2.691 0.7,-2.965 0.71,-3.012 0.64,-2.871 0.7,-3.199 0.65,-3.039 0.64,-3.078 0.71,-3.399 0.64,-3.285 0.7,-3.629 0.71,-3.656 0.64,-3.492 0.71,-3.903 0.64,-3.683 0.64,-3.75 0.71,-4.137 0.64,-3.98 0.7,-4.395 0.69,-4.215 0.64,-4.222 0.67,-4.688 0.68,-4.508 0.7,-4.98 0.71,-5.008 0.64,-4.781 0.7,-5.332 0.65,-5.067 0.64,-5.105 0.71,-5.645 0.64,-5.422 0.7,-5.976 0.71,-6.043 0.64,-5.731 0.67,-6.39 0.68,-6.09 0.64,-6.098 0.67,-6.797 0.64,-6.441 0.71,-7.18 0.68,-6.863 0.64,-6.855 0.71,-7.614 0.64,-7.265 0.7,-8.024 0.71,-8.086 0.64,-7.711 0.71,-8.546 0.64,-8.145 0.64,-8.18 0.71,-9.05 0.64,-8.649 0.71,-9.547 0.66,-9.609 0.64,-9.141 0.71,-10.14 0.68,-9.641 0.7,-10.719 0.67,-10.719 0.68,-10.226 0.7,-11.336 1.29,-21.621 0.71,-11.953 0.64,-11.426 0.7,-12.629 0.71,-12.656 0.64,-12.039 0.71,-13.36 1.28,-25.429 0.67,-14.094 0.68,-13.418 0.71,-14.824 0.64,-14.153 0.64,-14.121 0.71,-15.64 0.64,-14.883 1.41,-32.988 0.64,-15.704 0.65,-15.644"
         style="fill:none;stroke:#3871c1;stroke-width:7.5;stroke-linecap:square;stroke-linejoin:miter;stroke-miterlimit:3.25;stroke-dasharray:none;stroke-opacity:1"
         transform="matrix(0.13333333,0,0,-0.13333333,0,138.32)" />
      <path
         id="path4"
         d="m 2.6959234,1.3240588 c -0.890625,-0.7617188 -1.40625,-2.20312505 -1.40625,-3.75 0,-1.546875 0.515625,-3 1.40625,-3.75 L 2.5435797,-6.3868787 C 1.2193609,-5.484535 0.63342344,-4.0548475 0.63342344,-2.43766 c 0,1.62890625 0.58593746,3.08203125 1.91015626,3.9609375 z m 3.8935547,-1.6757813 -0.09375,-0.234375 c -0.09375,0.0585938 -0.2226562,0.10546875 -0.328125,0.10546875 -0.1523437,0 -0.3164062,-0.140625 -0.3164062,-0.55078125 v -1.6640625 c 0,-0.46875 -0.082031,-0.84375 -0.3984375,-1.1015625 C 5.2535406,-3.9610975 4.9840094,-4.0431287 4.7144781,-4.0431287 4.1988531,-3.93766 3.6129156,-3.5860975 3.3668219,-3.4103162 3.1910406,-3.28141 3.0738531,-3.18766 3.0738531,-3.047035 c 0,0.1992188 0.234375,0.3867188 0.3984375,0.3867188 0.1289063,0 0.2226563,-0.070312 0.2578125,-0.2109375 0.070312,-0.28125 0.1523438,-0.4804688 0.2695313,-0.5976563 0.09375,-0.1054687 0.2226562,-0.1757812 0.4101562,-0.1757812 0.4453125,0 0.75,0.3632812 0.75,1.0195312 v 0.1640625 C 4.9605719,-2.3087537 4.3043219,-2.06266 3.7652594,-1.8868787 3.2730719,-1.7110975 3.0386969,-1.4298475 3.0386969,-0.984535 c 0,0.5625 0.4453125,1.08984375 1.078125,1.08984375 0.2695312,0 0.703125,-0.328125 1.0664062,-0.57421875 0.046875,0.15234375 0.09375,0.28125 0.2109375,0.41015625 0.1054688,0.08203125 0.2929688,0.1640625 0.421875,0.1640625 z M 5.1597906,-0.76187875 c -0.1640625,0.1640625 -0.4804687,0.31640625 -0.7148437,0.328125 -0.28125,0 -0.6445313,-0.22265625 -0.6445313,-0.69140625 0,-0.328125 0.1992188,-0.4921875 0.5507813,-0.65625 0.1875,-0.09375 0.6210937,-0.28125 0.8085937,-0.375 z M 6.7945562,-6.1759412 c 0.890625,0.7382812 1.4179688,2.203125 1.4179688,3.75 0,1.54687495 -0.5039063,2.9882812 -1.4179688,3.75 L 6.9586187,1.5232775 C 8.306275,0.609215 8.8570562,-0.80875375 8.8570562,-2.4259412 c 0,-1.6289063 -0.5507812,-3.0585938 -1.8984375,-3.9609375 z m 158.0009738,7.5 c -0.89062,-0.7617188 -1.40625,-2.20312505 -1.40625,-3.75 0,-1.546875 0.51563,-3 1.40625,-3.75 l -0.15234,-0.2109375 c -1.32422,0.9023437 -1.91016,2.3320312 -1.91016,3.9492187 0,1.62890625 0.58594,3.08203125 1.91016,3.9609375 z m 2.0127,-4.9570313 v -2.7773437 c -0.33985,0.1171875 -0.89063,0.2578125 -1.3125,0.3164062 v 0.2109375 c 0.58594,0.046875 0.59765,0.1054688 0.59765,0.6679688 v 5.0039062 c 0.49219,0.234375 0.94922,0.31640625 1.32422,0.31640625 1.20703,0 2.26172,-0.9375 2.26172,-2.26171875 0,-1.0546875 -0.80859,-1.8867187 -1.78125,-1.8867187 -0.0937,0 -0.22265,0.023437 -0.36328,0.09375 z m 0,0.2695313 c 0.16406,-0.1054688 0.44531,-0.1757813 0.70312,-0.1757813 0.73828,0 1.3711,0.5976563 1.3711,1.6171875 0,1.0546875 -0.48047,1.6875 -1.21875,1.6875 -0.48047,-0.0117188 -0.75,-0.328125 -0.8086,-0.50390625 -0.0351,-0.0820313 -0.0469,-0.17578125 -0.0469,-0.30468745 z m 3.16406,-2.8125 c 0.89063,0.7382812 1.41797,2.203125 1.41797,3.75 0,1.54687495 -0.50391,2.9882812 -1.41797,3.75 l 0.16406,0.1992187 c 1.34766,-0.9140625 1.89844,-2.33203125 1.89844,-3.9492187 0,-1.6289063 -0.55078,-3.0585938 -1.89844,-3.9609375 z m 0,0"
         style="fill:#231f20;fill-opacity:1;fill-rule:nonzero;stroke:none"
         aria-label="(a)(b)"
         transform="matrix(1.3333333,0,0,1.3333333,83.987467,134.00021)" />
      <path
         id="path5"
         d="M 3.75,204.711 H 593.168"
         style="fill:none;stroke:#3871c1;stroke-width:7.5;stroke-linecap:square;stroke-linejoin:miter;stroke-miterlimit:3.25;stroke-dasharray:none;stroke-opacity:1"
         transform="matrix(0.13333333,0,0,-0.13333333,0,138.32)" />
      <path
         id="path6"
         d="M 761.625,204.711 H 1351.05"
         style="fill:none;stroke:#3871c1;stroke-width:7.5;stroke-linecap:square;stroke-linejoin:miter;stroke-miterlimit:3.25;stroke-dasharray:none;stroke-opacity:1"
         transform="matrix(0.13333333,0,0,-0.13333333,0,138.32)" />
      <path
         id="path7"
         d="m 3.75,204.711 h 1347.3"
         style="fill:none;stroke:#231f20;stroke-width:5;stroke-linecap:butt;stroke-linejoin:miter;stroke-miterlimit:3.25;stroke-dasharray:none;stroke-opacity:1"
         transform="matrix(0.13333333,0,0,-0.13333333,0,138.32)" />
      <path
         id="path8"
         d="M 677.398,204.711 V 1037.38"
         style="fill:none;stroke:#231f20;stroke-width:5;stroke-linecap:butt;stroke-linejoin:miter;stroke-miterlimit:3.25;stroke-dasharray:none;stroke-opacity:1"
         transform="matrix(0.13333333,0,0,-0.13333333,0,138.32)" />
      <path
         id="path9"
         d="M 1630.15,204.711 H 2977.46"
         style="fill:none;stroke:#231f20;stroke-width:5;stroke-linecap:butt;stroke-linejoin:miter;stroke-miterlimit:3.25;stroke-dasharray:none;stroke-opacity:1"
         transform="matrix(0.13333333,0,0,-0.13333333,0,138.32)" />
      <path
         id="path10"
         d="M 2303.8,204.711 V 1037.38"
         style="fill:none;stroke:#231f20;stroke-width:5;stroke-linecap:butt;stroke-linejoin:miter;stroke-miterlimit:3.25;stroke-dasharray:none;stroke-opacity:1"
         transform="matrix(0.13333333,0,0,-0.13333333,0,138.32)" />
    </g>
  </g>
</svg>
