<?xml version="1.0" encoding="UTF-8" standalone="no"?>
<!-- Created with Inkscape (http://www.inkscape.org/) -->

<svg
   version="1.1"
   id="svg1"
   width="434.81332"
   height="63"
   viewBox="0 0 434.81332 63"
   sodipodi:docname="pha08f44.eps"
   xmlns:inkscape="http://www.inkscape.org/namespaces/inkscape"
   xmlns:sodipodi="http://sodipodi.sourceforge.net/DTD/sodipodi-0.dtd"
   xmlns="http://www.w3.org/2000/svg"
   xmlns:svg="http://www.w3.org/2000/svg">
  <defs
     id="defs1" />
  <sodipodi:namedview
     id="namedview1"
     pagecolor="#ffffff"
     bordercolor="#000000"
     borderopacity="0.25"
     inkscape:showpageshadow="2"
     inkscape:pageopacity="0.0"
     inkscape:pagecheckerboard="0"
     inkscape:deskcolor="#d1d1d1">
    <inkscape:page
       x="0"
       y="0"
       inkscape:label="1"
       id="page1"
       width="434.81332"
       height="63"
       margin="0"
       bleed="0" />
  </sodipodi:namedview>
  <g
     id="g1"
     inkscape:groupmode="layer"
     inkscape:label="1">
    <g
       id="group-R5">
      <path
         id="path2"
         d="m 2.6943359,1.3242144 c -0.890625,-0.76171878 -1.40625,-2.20312503 -1.40625,-3.75 0,-1.546875 0.515625,-3 1.40625,-3.75 L 2.5419922,-6.3867231 c -1.3242188,0.9023437 -1.91015626,2.3320312 -1.91015626,3.9492187 0,1.62890627 0.58593746,3.08203127 1.91015626,3.9609375 z m 4.3212891,-1.67578128 -0.09375,-0.234375 c -0.09375,0.0585938 -0.2226563,0.10546875 -0.328125,0.10546875 -0.1523438,0 -0.3164063,-0.140625 -0.3164063,-0.55078127 v -1.6640625 c 0,-0.46875 -0.082031,-0.84375 -0.3984375,-1.1015625 C 5.6796875,-3.9609419 5.4101562,-4.0429731 5.140625,-4.0429731 4.625,-3.9375044 4.0390625,-3.5859419 3.7929688,-3.4101606 3.6171875,-3.2812544 3.5,-3.1875044 3.5,-3.0468794 c 0,0.1992188 0.234375,0.3867188 0.3984375,0.3867188 0.1289062,0 0.2226562,-0.070312 0.2578125,-0.2109375 0.070312,-0.28125 0.1523437,-0.4804688 0.2695312,-0.5976563 0.09375,-0.1054687 0.2226563,-0.1757812 0.4101563,-0.1757812 0.4453125,0 0.75,0.3632812 0.75,1.0195312 v 0.1640625 c -0.1992188,0.1523438 -0.8554688,0.3984375 -1.3945313,0.5742188 -0.4921874,0.1757812 -0.7265624,0.4570312 -0.7265624,0.90234372 0,0.5625 0.4453125,1.08984375 1.0781249,1.08984375 0.2695313,0 0.703125,-0.328125 1.0664063,-0.57421875 0.046875,0.15234375 0.09375,0.28125 0.2109375,0.41015625 0.1054687,0.08203125 0.2929687,0.1640625 0.421875,0.1640625 z M 5.5859375,-0.76172313 c -0.1640625,0.1640625 -0.4804688,0.31640625 -0.7148438,0.328125 -0.28125,0 -0.6445312,-0.22265625 -0.6445312,-0.69140627 0,-0.328125 0.1992187,-0.4921875 0.5507812,-0.65625 0.1875,-0.09375 0.6210938,-0.28125 0.8085938,-0.375 z M 7.4755859,-6.1757856 c 0.890625,0.7382812 1.4179688,2.203125 1.4179688,3.75 0,1.54687497 -0.5039063,2.98828122 -1.4179688,3.75 l 0.1640625,0.1992187 c 1.3476563,-0.91406248 1.8984375,-2.33203123 1.8984375,-3.9492187 0,-1.6289063 -0.5507812,-3.0585938 -1.8984375,-3.9609375 z m 165.2138641,7.5 c -0.89062,-0.76171878 -1.40625,-2.20312503 -1.40625,-3.75 0,-1.546875 0.51563,-3 1.40625,-3.75 l -0.15234,-0.2109375 c -1.32422,0.9023437 -1.91016,2.3320312 -1.91016,3.9492187 0,1.62890627 0.58594,3.08203127 1.91016,3.9609375 z m 1.79004,-4.9570313 v -2.7773437 c -0.33984,0.1171875 -0.89062,0.2578125 -1.3125,0.3164062 v 0.2109375 c 0.58594,0.046875 0.59766,0.1054688 0.59766,0.6679688 v 5.00390622 c 0.49219,0.234375 0.94922,0.31640625 1.32422,0.31640625 1.20703,0 2.26172,-0.9375 2.26172,-2.26171877 0,-1.0546875 -0.8086,-1.8867187 -1.78125,-1.8867187 -0.0937,0 -0.22266,0.023437 -0.36329,0.09375 z m 0,0.2695313 c 0.16406,-0.1054688 0.44531,-0.1757813 0.70313,-0.1757813 0.73828,0 1.37109,0.5976563 1.37109,1.6171875 0,1.05468752 -0.48047,1.68750002 -1.21875,1.68750002 -0.48047,-0.0117188 -0.75,-0.328125 -0.80859,-0.50390625 -0.0352,-0.0820313 -0.0469,-0.17578125 -0.0469,-0.30468747 z m 3.60938,-2.8125 c 0.89062,0.7382812 1.41797,2.203125 1.41797,3.75 0,1.54687497 -0.50391,2.98828122 -1.41797,3.75 l 0.16406,0.1992187 c 1.34766,-0.91406248 1.89844,-2.33203123 1.89844,-3.9492187 0,-1.6289063 -0.55078,-3.0585938 -1.89844,-3.9609375 z m 0,0"
         style="fill:#231f20;fill-opacity:1;fill-rule:nonzero;stroke:none"
         aria-label="(a)(b)"
         transform="matrix(1.3333333,0,0,1.3333333,97.083333,58.679693)" />
      <path
         id="path3"
         d="m 120.012,207.23 c 0,3.098 -1.211,6.071 -3.403,8.254 -2.207,2.176 -5.156,3.399 -8.242,3.399 -3.101,0 -6.054,-1.223 -8.23,-3.399 -2.1761,-2.183 -3.4261,-5.156 -3.4261,-8.254 0,-3.07 1.25,-6.042 3.4261,-8.226 2.176,-2.18 5.129,-3.422 8.23,-3.422 3.086,0 6.035,1.242 8.242,3.422 2.192,2.184 3.403,5.156 3.403,8.226 v 0"
         style="fill:#5e7dbc;fill-opacity:1;fill-rule:evenodd;stroke:none"
         transform="matrix(0.13333333,0,0,-0.13333333,0,63)" />
      <path
         id="path4"
         d="m 120.012,207.23 c 0,3.098 -1.211,6.071 -3.403,8.254 -2.207,2.176 -5.156,3.399 -8.242,3.399 -3.101,0 -6.054,-1.223 -8.23,-3.399 -2.1761,-2.183 -3.4261,-5.156 -3.4261,-8.254 0,-3.07 1.25,-6.042 3.4261,-8.226 2.176,-2.18 5.129,-3.422 8.23,-3.422 3.086,0 6.035,1.242 8.242,3.422 2.192,2.184 3.403,5.156 3.403,8.226 z"
         style="fill:none;stroke:#3871c1;stroke-width:10;stroke-linecap:butt;stroke-linejoin:miter;stroke-miterlimit:3.25;stroke-dasharray:none;stroke-opacity:1"
         transform="matrix(0.13333333,0,0,-0.13333333,0,63)" />
      <path
         id="path5"
         d="m 72.4531,320.883 c 0,3.094 -1.2343,6.043 -3.4218,8.23 -2.1758,2.172 -5.1524,3.418 -8.2227,3.418 -3.0938,0 -6.0742,-1.246 -8.2617,-3.418 -2.1641,-2.187 -3.3867,-5.136 -3.3867,-8.23 0,-3.094 1.2226,-6.047 3.3867,-8.25 2.1875,-2.184 5.1679,-3.399 8.2617,-3.399 3.0703,0 6.0469,1.215 8.2227,3.399 2.1875,2.203 3.4218,5.156 3.4218,8.25 v 0"
         style="fill:#5e7dbc;fill-opacity:1;fill-rule:evenodd;stroke:none"
         transform="matrix(0.13333333,0,0,-0.13333333,0,63)" />
      <path
         id="path6"
         d="m 72.4531,320.883 c 0,3.094 -1.2343,6.043 -3.4218,8.23 -2.1758,2.172 -5.1524,3.418 -8.2227,3.418 -3.0938,0 -6.0742,-1.246 -8.2617,-3.418 -2.1641,-2.187 -3.3867,-5.136 -3.3867,-8.23 0,-3.094 1.2226,-6.047 3.3867,-8.25 2.1875,-2.184 5.1679,-3.399 8.2617,-3.399 3.0703,0 6.0469,1.215 8.2227,3.399 2.1875,2.203 3.4218,5.156 3.4218,8.25 z"
         style="fill:none;stroke:#3871c1;stroke-width:10;stroke-linecap:butt;stroke-linejoin:miter;stroke-miterlimit:3.25;stroke-dasharray:none;stroke-opacity:1"
         transform="matrix(0.13333333,0,0,-0.13333333,0,63)" />
      <path
         id="path7"
         d="m 294.246,360.414 c 0,3.098 -1.219,6.074 -3.418,8.254 -2.183,2.184 -5.137,3.398 -8.23,3.398 -3.094,0 -6.043,-1.214 -8.235,-3.398 -2.195,-2.18 -3.418,-5.156 -3.418,-8.254 0,-3.09 1.223,-6.039 3.418,-8.226 2.192,-2.172 5.141,-3.418 8.235,-3.418 3.093,0 6.047,1.246 8.23,3.418 2.199,2.187 3.418,5.136 3.418,8.226 v 0"
         style="fill:#5e7dbc;fill-opacity:1;fill-rule:evenodd;stroke:none"
         transform="matrix(0.13333333,0,0,-0.13333333,0,63)" />
      <path
         id="path8"
         d="m 294.246,360.414 c 0,3.098 -1.219,6.074 -3.418,8.254 -2.183,2.184 -5.137,3.398 -8.23,3.398 -3.094,0 -6.043,-1.214 -8.235,-3.398 -2.195,-2.18 -3.418,-5.156 -3.418,-8.254 0,-3.09 1.223,-6.039 3.418,-8.226 2.192,-2.172 5.141,-3.418 8.235,-3.418 3.093,0 6.047,1.246 8.23,3.418 2.199,2.187 3.418,5.136 3.418,8.226 z"
         style="fill:none;stroke:#3871c1;stroke-width:10;stroke-linecap:butt;stroke-linejoin:miter;stroke-miterlimit:3.25;stroke-dasharray:none;stroke-opacity:1"
         transform="matrix(0.13333333,0,0,-0.13333333,0,63)" />
      <path
         id="path9"
         d="m 104.441,452.668 c 0,3.094 -1.211,6.047 -3.394,8.23 -2.1993,2.18 -5.1564,3.418 -8.2462,3.418 -3.0938,0 -6.043,-1.238 -8.2305,-3.418 -2.1758,-2.183 -3.418,-5.136 -3.418,-8.23 0,-3.094 1.2422,-6.043 3.418,-8.254 2.1875,-2.172 5.1367,-3.394 8.2305,-3.394 3.0898,0 6.0469,1.222 8.2462,3.394 2.183,2.211 3.394,5.16 3.394,8.254 v 0"
         style="fill:#5e7dbc;fill-opacity:1;fill-rule:evenodd;stroke:none"
         transform="matrix(0.13333333,0,0,-0.13333333,0,63)" />
      <path
         id="path10"
         d="m 104.441,452.668 c 0,3.094 -1.211,6.047 -3.394,8.23 -2.1993,2.18 -5.1564,3.418 -8.2462,3.418 -3.0938,0 -6.043,-1.238 -8.2305,-3.418 -2.1758,-2.183 -3.418,-5.136 -3.418,-8.23 0,-3.094 1.2422,-6.043 3.418,-8.254 2.1875,-2.172 5.1367,-3.394 8.2305,-3.394 3.0898,0 6.0469,1.222 8.2462,3.394 2.183,2.211 3.394,5.16 3.394,8.254 z"
         style="fill:none;stroke:#3871c1;stroke-width:10;stroke-linecap:butt;stroke-linejoin:miter;stroke-miterlimit:3.25;stroke-dasharray:none;stroke-opacity:1"
         transform="matrix(0.13333333,0,0,-0.13333333,0,63)" />
      <path
         id="path11"
         d="m 484.934,201.465 c 0,3.098 -1.211,6.051 -3.418,8.226 -2.192,2.207 -5.137,3.426 -8.223,3.426 -3.105,0 -6.059,-1.219 -8.234,-3.426 -2.2,-2.175 -3.426,-5.128 -3.426,-8.226 0,-3.09 1.226,-6.043 3.426,-8.227 2.175,-2.203 5.129,-3.418 8.234,-3.418 3.086,0 6.031,1.215 8.223,3.418 2.207,2.184 3.418,5.137 3.418,8.227 v 0"
         style="fill:#5e7dbc;fill-opacity:1;fill-rule:evenodd;stroke:none"
         transform="matrix(0.13333333,0,0,-0.13333333,0,63)" />
      <path
         id="path12"
         d="m 484.934,201.465 c 0,3.098 -1.211,6.051 -3.418,8.226 -2.192,2.207 -5.137,3.426 -8.223,3.426 -3.105,0 -6.059,-1.219 -8.234,-3.426 -2.2,-2.175 -3.426,-5.128 -3.426,-8.226 0,-3.09 1.226,-6.043 3.426,-8.227 2.175,-2.203 5.129,-3.418 8.234,-3.418 3.086,0 6.031,1.215 8.223,3.418 2.207,2.184 3.418,5.137 3.418,8.227 z"
         style="fill:none;stroke:#3871c1;stroke-width:10;stroke-linecap:butt;stroke-linejoin:miter;stroke-miterlimit:3.25;stroke-dasharray:none;stroke-opacity:1"
         transform="matrix(0.13333333,0,0,-0.13333333,0,63)" />
      <path
         id="path13"
         d="m 458.879,316.445 c 0,3.102 -1.234,6.075 -3.399,8.254 -2.187,2.188 -5.16,3.403 -8.261,3.403 -3.071,0 -6.035,-1.215 -8.227,-3.403 -2.176,-2.179 -3.418,-5.152 -3.418,-8.254 0,-3.062 1.242,-6.043 3.418,-8.222 2.192,-2.176 5.156,-3.422 8.227,-3.422 3.101,0 6.074,1.246 8.261,3.422 2.165,2.179 3.399,5.16 3.399,8.222 v 0"
         style="fill:#5e7dbc;fill-opacity:1;fill-rule:evenodd;stroke:none"
         transform="matrix(0.13333333,0,0,-0.13333333,0,63)" />
      <path
         id="path14"
         d="m 458.879,316.445 c 0,3.102 -1.234,6.075 -3.399,8.254 -2.187,2.188 -5.16,3.403 -8.261,3.403 -3.071,0 -6.035,-1.215 -8.227,-3.403 -2.176,-2.179 -3.418,-5.152 -3.418,-8.254 0,-3.062 1.242,-6.043 3.418,-8.222 2.192,-2.176 5.156,-3.422 8.227,-3.422 3.101,0 6.074,1.246 8.261,3.422 2.165,2.179 3.399,5.16 3.399,8.222 z"
         style="fill:none;stroke:#3871c1;stroke-width:10;stroke-linecap:butt;stroke-linejoin:miter;stroke-miterlimit:3.25;stroke-dasharray:none;stroke-opacity:1"
         transform="matrix(0.13333333,0,0,-0.13333333,0,63)" />
      <path
         id="path15"
         d="m 672.063,393.609 c 0,3.09 -1.223,6.039 -3.403,8.25 -2.207,2.18 -5.152,3.395 -8.25,3.395 -3.097,0 -6.047,-1.215 -8.23,-3.395 -2.168,-2.211 -3.418,-5.16 -3.418,-8.25 0,-3.097 1.25,-6.05 3.418,-8.226 2.183,-2.184 5.133,-3.426 8.23,-3.426 3.098,0 6.043,1.242 8.25,3.426 2.18,2.176 3.403,5.129 3.403,8.226 v 0"
         style="fill:#5e7dbc;fill-opacity:1;fill-rule:evenodd;stroke:none"
         transform="matrix(0.13333333,0,0,-0.13333333,0,63)" />
      <path
         id="path16"
         d="m 672.063,393.609 c 0,3.09 -1.223,6.039 -3.403,8.25 -2.207,2.18 -5.152,3.395 -8.25,3.395 -3.097,0 -6.047,-1.215 -8.23,-3.395 -2.168,-2.211 -3.418,-5.16 -3.418,-8.25 0,-3.097 1.25,-6.05 3.418,-8.226 2.183,-2.184 5.133,-3.426 8.23,-3.426 3.098,0 6.043,1.242 8.25,3.426 2.18,2.176 3.403,5.129 3.403,8.226 z"
         style="fill:none;stroke:#3871c1;stroke-width:10;stroke-linecap:butt;stroke-linejoin:miter;stroke-miterlimit:3.25;stroke-dasharray:none;stroke-opacity:1"
         transform="matrix(0.13333333,0,0,-0.13333333,0,63)" />
      <path
         id="path17"
         d="m 571.816,428.84 c 0,3.086 -1.218,6.062 -3.398,8.246 -2.195,2.176 -5.156,3.398 -8.25,3.398 -3.09,0 -6.047,-1.222 -8.227,-3.398 -2.183,-2.184 -3.418,-5.16 -3.418,-8.246 0,-3.078 1.235,-6.051 3.418,-8.231 2.18,-2.187 5.137,-3.425 8.227,-3.425 3.094,0 6.055,1.238 8.25,3.425 2.18,2.18 3.398,5.153 3.398,8.231 v 0"
         style="fill:#5e7dbc;fill-opacity:1;fill-rule:evenodd;stroke:none"
         transform="matrix(0.13333333,0,0,-0.13333333,0,63)" />
      <path
         id="path18"
         d="m 571.816,428.84 c 0,3.086 -1.218,6.062 -3.398,8.246 -2.195,2.176 -5.156,3.398 -8.25,3.398 -3.09,0 -6.047,-1.222 -8.227,-3.398 -2.183,-2.184 -3.418,-5.16 -3.418,-8.246 0,-3.078 1.235,-6.051 3.418,-8.231 2.18,-2.187 5.137,-3.425 8.227,-3.425 3.094,0 6.055,1.238 8.25,3.425 2.18,2.18 3.398,5.153 3.398,8.231 z"
         style="fill:none;stroke:#3871c1;stroke-width:10;stroke-linecap:butt;stroke-linejoin:miter;stroke-miterlimit:3.25;stroke-dasharray:none;stroke-opacity:1"
         transform="matrix(0.13333333,0,0,-0.13333333,0,63)" />
      <path
         id="path19"
         d="m 908.352,187.379 c 0,3.094 -1.211,6.051 -3.403,8.25 -2.168,2.18 -5.152,3.398 -8.219,3.398 -3.085,0 -6.078,-1.218 -8.246,-3.398 -2.183,-2.199 -3.394,-5.156 -3.394,-8.25 0,-3.094 1.211,-6.047 3.394,-8.223 2.168,-2.207 5.161,-3.422 8.246,-3.422 3.067,0 6.051,1.215 8.219,3.422 2.192,2.176 3.403,5.129 3.403,8.223 v 0"
         style="fill:#5e7dbc;fill-opacity:1;fill-rule:evenodd;stroke:none"
         transform="matrix(0.13333333,0,0,-0.13333333,0,63)" />
      <path
         id="path20"
         d="m 908.352,187.379 c 0,3.094 -1.211,6.051 -3.403,8.25 -2.168,2.18 -5.152,3.398 -8.219,3.398 -3.085,0 -6.078,-1.218 -8.246,-3.398 -2.183,-2.199 -3.394,-5.156 -3.394,-8.25 0,-3.094 1.211,-6.047 3.394,-8.223 2.168,-2.207 5.161,-3.422 8.246,-3.422 3.067,0 6.051,1.215 8.219,3.422 2.192,2.176 3.403,5.129 3.403,8.223 z"
         style="fill:none;stroke:#3871c1;stroke-width:10;stroke-linecap:butt;stroke-linejoin:miter;stroke-miterlimit:3.25;stroke-dasharray:none;stroke-opacity:1"
         transform="matrix(0.13333333,0,0,-0.13333333,0,63)" />
      <path
         id="path21"
         d="m 1001.26,269.199 c 0,3.098 -1.21,6.051 -3.401,8.227 -2.175,2.207 -5.156,3.426 -8.242,3.426 -3.101,0 -6.054,-1.219 -8.23,-3.426 -2.176,-2.176 -3.426,-5.129 -3.426,-8.227 0,-3.09 1.25,-6.043 3.426,-8.226 2.176,-2.203 5.129,-3.418 8.23,-3.418 3.086,0 6.067,1.215 8.242,3.418 2.191,2.183 3.401,5.136 3.401,8.226 v 0"
         style="fill:#5e7dbc;fill-opacity:1;fill-rule:evenodd;stroke:none"
         transform="matrix(0.13333333,0,0,-0.13333333,0,63)" />
      <path
         id="path22"
         d="m 1001.26,269.199 c 0,3.098 -1.21,6.051 -3.401,8.227 -2.175,2.207 -5.156,3.426 -8.242,3.426 -3.101,0 -6.054,-1.219 -8.23,-3.426 -2.176,-2.176 -3.426,-5.129 -3.426,-8.227 0,-3.09 1.25,-6.043 3.426,-8.226 2.176,-2.203 5.129,-3.418 8.23,-3.418 3.086,0 6.067,1.215 8.242,3.418 2.191,2.183 3.401,5.136 3.401,8.226 z"
         style="fill:none;stroke:#3871c1;stroke-width:10;stroke-linecap:butt;stroke-linejoin:miter;stroke-miterlimit:3.25;stroke-dasharray:none;stroke-opacity:1"
         transform="matrix(0.13333333,0,0,-0.13333333,0,63)" />
      <path
         id="path23"
         d="m 1105.75,353.715 c 0,3.098 -1.23,6.047 -3.43,8.254 -2.17,2.172 -5.12,3.398 -8.23,3.398 -3.08,0 -6.03,-1.226 -8.24,-3.398 -2.19,-2.207 -3.4,-5.156 -3.4,-8.254 0,-3.09 1.21,-6.047 3.4,-8.227 2.21,-2.175 5.16,-3.422 8.24,-3.422 3.11,0 6.06,1.247 8.23,3.422 2.2,2.18 3.43,5.137 3.43,8.227 v 0"
         style="fill:#5e7dbc;fill-opacity:1;fill-rule:evenodd;stroke:none"
         transform="matrix(0.13333333,0,0,-0.13333333,0,63)" />
      <path
         id="path24"
         d="m 1105.75,353.715 c 0,3.098 -1.23,6.047 -3.43,8.254 -2.17,2.172 -5.12,3.398 -8.23,3.398 -3.08,0 -6.03,-1.226 -8.24,-3.398 -2.19,-2.207 -3.4,-5.156 -3.4,-8.254 0,-3.09 1.21,-6.047 3.4,-8.227 2.21,-2.175 5.16,-3.422 8.24,-3.422 3.11,0 6.06,1.247 8.23,3.422 2.2,2.18 3.43,5.137 3.43,8.227 z"
         style="fill:none;stroke:#3871c1;stroke-width:10;stroke-linecap:butt;stroke-linejoin:miter;stroke-miterlimit:3.25;stroke-dasharray:none;stroke-opacity:1"
         transform="matrix(0.13333333,0,0,-0.13333333,0,63)" />
      <path
         id="path25"
         d="m 841.73,454.426 c 0,3.094 -1.234,6.047 -3.402,8.226 -2.183,2.207 -5.152,3.422 -8.262,3.422 -3.062,0 -6.035,-1.215 -8.218,-3.422 -2.18,-2.179 -3.418,-5.132 -3.418,-8.226 0,-3.086 1.238,-6.043 3.418,-8.231 2.183,-2.195 5.156,-3.418 8.218,-3.418 3.11,0 6.079,1.223 8.262,3.418 2.168,2.188 3.402,5.145 3.402,8.231 v 0"
         style="fill:#5e7dbc;fill-opacity:1;fill-rule:evenodd;stroke:none"
         transform="matrix(0.13333333,0,0,-0.13333333,0,63)" />
      <path
         id="path26"
         d="m 841.73,454.426 c 0,3.094 -1.234,6.047 -3.402,8.226 -2.183,2.207 -5.152,3.422 -8.262,3.422 -3.062,0 -6.035,-1.215 -8.218,-3.422 -2.18,-2.179 -3.418,-5.132 -3.418,-8.226 0,-3.086 1.238,-6.043 3.418,-8.231 2.183,-2.195 5.156,-3.418 8.218,-3.418 3.11,0 6.079,1.223 8.262,3.418 2.168,2.188 3.402,5.145 3.402,8.231 z"
         style="fill:none;stroke:#3871c1;stroke-width:10;stroke-linecap:butt;stroke-linejoin:miter;stroke-miterlimit:3.25;stroke-dasharray:none;stroke-opacity:1"
         transform="matrix(0.13333333,0,0,-0.13333333,0,63)" />
      <path
         id="path27"
         d="m 1408.05,233.082 c 0,3.094 -1.22,6.074 -3.41,8.25 -2.17,2.18 -5.16,3.398 -8.24,3.398 -3.07,0 -6.06,-1.218 -8.23,-3.398 -2.18,-2.176 -3.42,-5.156 -3.42,-8.25 0,-3.066 1.24,-6.047 3.42,-8.223 2.17,-2.183 5.16,-3.421 8.23,-3.421 3.08,0 6.07,1.238 8.24,3.421 2.19,2.176 3.41,5.157 3.41,8.223 v 0"
         style="fill:#5e7dbc;fill-opacity:1;fill-rule:evenodd;stroke:none"
         transform="matrix(0.13333333,0,0,-0.13333333,0,63)" />
      <path
         id="path28"
         d="m 1408.05,233.082 c 0,3.094 -1.22,6.074 -3.41,8.25 -2.17,2.18 -5.16,3.398 -8.24,3.398 -3.07,0 -6.06,-1.218 -8.23,-3.398 -2.18,-2.176 -3.42,-5.156 -3.42,-8.25 0,-3.066 1.24,-6.047 3.42,-8.223 2.17,-2.183 5.16,-3.421 8.23,-3.421 3.08,0 6.07,1.238 8.24,3.421 2.19,2.176 3.41,5.157 3.41,8.223 z"
         style="fill:none;stroke:#3871c1;stroke-width:10;stroke-linecap:butt;stroke-linejoin:miter;stroke-miterlimit:3.25;stroke-dasharray:none;stroke-opacity:1"
         transform="matrix(0.13333333,0,0,-0.13333333,0,63)" />
      <path
         id="path29"
         d="m 1191.59,299.113 c 0,3.086 -1.21,6.063 -3.4,8.246 -2.16,2.176 -5.14,3.399 -8.24,3.399 -3.07,0 -6.05,-1.223 -8.22,-3.399 -2.19,-2.183 -3.43,-5.16 -3.43,-8.246 0,-3.078 1.24,-6.05 3.43,-8.23 2.17,-2.188 5.15,-3.426 8.22,-3.426 3.1,0 6.08,1.238 8.24,3.426 2.19,2.18 3.4,5.152 3.4,8.23 v 0"
         style="fill:#5e7dbc;fill-opacity:1;fill-rule:evenodd;stroke:none"
         transform="matrix(0.13333333,0,0,-0.13333333,0,63)" />
      <path
         id="path30"
         d="m 1191.59,299.113 c 0,3.086 -1.21,6.063 -3.4,8.246 -2.16,2.176 -5.14,3.399 -8.24,3.399 -3.07,0 -6.05,-1.223 -8.22,-3.399 -2.19,-2.183 -3.43,-5.16 -3.43,-8.246 0,-3.078 1.24,-6.05 3.43,-8.23 2.17,-2.188 5.15,-3.426 8.22,-3.426 3.1,0 6.08,1.238 8.24,3.426 2.19,2.18 3.4,5.152 3.4,8.23 z"
         style="fill:none;stroke:#3871c1;stroke-width:10;stroke-linecap:butt;stroke-linejoin:miter;stroke-miterlimit:3.25;stroke-dasharray:none;stroke-opacity:1"
         transform="matrix(0.13333333,0,0,-0.13333333,0,63)" />
      <path
         id="path31"
         d="m 1536.12,354.02 c 0,3.097 -1.23,6.074 -3.41,8.25 -2.18,2.179 -5.14,3.394 -8.23,3.394 -3.09,0 -6.05,-1.215 -8.25,-3.394 -2.18,-2.176 -3.4,-5.153 -3.4,-8.25 0,-3.071 1.22,-6.047 3.4,-8.223 2.2,-2.18 5.16,-3.426 8.25,-3.426 3.09,0 6.05,1.246 8.23,3.426 2.18,2.176 3.41,5.152 3.41,8.223 v 0"
         style="fill:#5e7dbc;fill-opacity:1;fill-rule:evenodd;stroke:none"
         transform="matrix(0.13333333,0,0,-0.13333333,0,63)" />
      <path
         id="path32"
         d="m 1536.12,354.02 c 0,3.097 -1.23,6.074 -3.41,8.25 -2.18,2.179 -5.14,3.394 -8.23,3.394 -3.09,0 -6.05,-1.215 -8.25,-3.394 -2.18,-2.176 -3.4,-5.153 -3.4,-8.25 0,-3.071 1.22,-6.047 3.4,-8.223 2.2,-2.18 5.16,-3.426 8.25,-3.426 3.09,0 6.05,1.246 8.23,3.426 2.18,2.176 3.41,5.152 3.41,8.223 z"
         style="fill:none;stroke:#3871c1;stroke-width:10;stroke-linecap:butt;stroke-linejoin:miter;stroke-miterlimit:3.25;stroke-dasharray:none;stroke-opacity:1"
         transform="matrix(0.13333333,0,0,-0.13333333,0,63)" />
      <path
         id="path33"
         d="m 1509.48,406.754 c 0,3.101 -1.25,6.074 -3.42,8.25 -2.18,2.18 -5.13,3.394 -8.23,3.394 -3.09,0 -6.04,-1.214 -8.25,-3.394 -2.18,-2.176 -3.4,-5.149 -3.4,-8.25 0,-3.07 1.22,-6.047 3.4,-8.223 2.21,-2.179 5.16,-3.422 8.25,-3.422 3.1,0 6.05,1.243 8.23,3.422 2.17,2.176 3.42,5.153 3.42,8.223 v 0"
         style="fill:#5e7dbc;fill-opacity:1;fill-rule:evenodd;stroke:none"
         transform="matrix(0.13333333,0,0,-0.13333333,0,63)" />
      <path
         id="path34"
         d="m 1509.48,406.754 c 0,3.101 -1.25,6.074 -3.42,8.25 -2.18,2.18 -5.13,3.394 -8.23,3.394 -3.09,0 -6.04,-1.214 -8.25,-3.394 -2.18,-2.176 -3.4,-5.149 -3.4,-8.25 0,-3.07 1.22,-6.047 3.4,-8.223 2.21,-2.179 5.16,-3.422 8.25,-3.422 3.1,0 6.05,1.243 8.23,3.422 2.17,2.176 3.42,5.153 3.42,8.223 z"
         style="fill:none;stroke:#3871c1;stroke-width:10;stroke-linecap:butt;stroke-linejoin:miter;stroke-miterlimit:3.25;stroke-dasharray:none;stroke-opacity:1"
         transform="matrix(0.13333333,0,0,-0.13333333,0,63)" />
      <path
         id="path35"
         d="M 1555.54,159.352 H 2.5"
         style="fill:none;stroke:#231f20;stroke-width:5;stroke-linecap:square;stroke-linejoin:miter;stroke-miterlimit:3.25;stroke-dasharray:none;stroke-opacity:1"
         transform="matrix(0.13333333,0,0,-0.13333333,0,63)" />
      <path
         id="path36"
         d="M 2.5,159.352 V 469.965"
         style="fill:none;stroke:#231f20;stroke-width:5;stroke-linecap:square;stroke-linejoin:miter;stroke-miterlimit:3.25;stroke-dasharray:none;stroke-opacity:1"
         transform="matrix(0.13333333,0,0,-0.13333333,0,63)" />
      <path
         id="path37"
         d="M 2.5,469.965 H 1555.54"
         style="fill:none;stroke:#231f20;stroke-width:5;stroke-linecap:square;stroke-linejoin:miter;stroke-miterlimit:3.25;stroke-dasharray:none;stroke-opacity:1"
         transform="matrix(0.13333333,0,0,-0.13333333,0,63)" />
      <path
         id="path38"
         d="M 1555.54,469.965 V 159.352"
         style="fill:none;stroke:#231f20;stroke-width:5;stroke-linecap:square;stroke-linejoin:miter;stroke-miterlimit:3.25;stroke-dasharray:none;stroke-opacity:1"
         transform="matrix(0.13333333,0,0,-0.13333333,0,63)" />
      <path
         id="path39"
         d="m 2362.86,225.703 c 0,3.098 -1.22,6.051 -3.4,8.227 -2.19,2.203 -5.15,3.425 -8.25,3.425 -3.08,0 -6.04,-1.222 -8.22,-3.425 -2.19,-2.176 -3.42,-5.129 -3.42,-8.227 0,-3.09 1.23,-6.047 3.42,-8.226 2.18,-2.204 5.14,-3.418 8.22,-3.418 3.1,0 6.06,1.214 8.25,3.418 2.18,2.179 3.4,5.136 3.4,8.226 v 0"
         style="fill:#5e7dbc;fill-opacity:1;fill-rule:evenodd;stroke:none"
         transform="matrix(0.13333333,0,0,-0.13333333,0,63)" />
      <path
         id="path40"
         d="m 2362.86,225.703 c 0,3.098 -1.22,6.051 -3.4,8.227 -2.19,2.203 -5.15,3.425 -8.25,3.425 -3.08,0 -6.04,-1.222 -8.22,-3.425 -2.19,-2.176 -3.42,-5.129 -3.42,-8.227 0,-3.09 1.23,-6.047 3.42,-8.226 2.18,-2.204 5.14,-3.418 8.22,-3.418 3.1,0 6.06,1.214 8.25,3.418 2.18,2.179 3.4,5.136 3.4,8.226 z"
         style="fill:none;stroke:#3871c1;stroke-width:10;stroke-linecap:butt;stroke-linejoin:miter;stroke-miterlimit:3.25;stroke-dasharray:none;stroke-opacity:1"
         transform="matrix(0.13333333,0,0,-0.13333333,0,63)" />
      <path
         id="path41"
         d="m 3141.81,378.184 c 0,3.101 -1.24,6.05 -3.43,8.226 -2.17,2.215 -5.16,3.43 -8.22,3.43 -3.09,0 -6.08,-1.215 -8.25,-3.43 -2.18,-2.176 -3.39,-5.125 -3.39,-8.226 0,-3.086 1.21,-6.039 3.39,-8.223 2.17,-2.203 5.16,-3.422 8.25,-3.422 3.06,0 6.05,1.219 8.22,3.422 2.19,2.184 3.43,5.137 3.43,8.223 v 0"
         style="fill:#5e7dbc;fill-opacity:1;fill-rule:evenodd;stroke:none"
         transform="matrix(0.13333333,0,0,-0.13333333,0,63)" />
      <path
         id="path42"
         d="m 3141.81,378.184 c 0,3.101 -1.24,6.05 -3.43,8.226 -2.17,2.215 -5.16,3.43 -8.22,3.43 -3.09,0 -6.08,-1.215 -8.25,-3.43 -2.18,-2.176 -3.39,-5.125 -3.39,-8.226 0,-3.086 1.21,-6.039 3.39,-8.223 2.17,-2.203 5.16,-3.422 8.25,-3.422 3.06,0 6.05,1.219 8.22,3.422 2.19,2.184 3.43,5.137 3.43,8.223 z"
         style="fill:none;stroke:#3871c1;stroke-width:10;stroke-linecap:butt;stroke-linejoin:miter;stroke-miterlimit:3.25;stroke-dasharray:none;stroke-opacity:1"
         transform="matrix(0.13333333,0,0,-0.13333333,0,63)" />
      <path
         id="path43"
         d="m 1973.4,454.43 c 0,3.093 -1.21,6.05 -3.4,8.226 -2.21,2.207 -5.16,3.422 -8.24,3.422 -3.11,0 -6.06,-1.215 -8.23,-3.422 -2.18,-2.176 -3.43,-5.133 -3.43,-8.226 0,-3.09 1.25,-6.039 3.43,-8.227 2.17,-2.203 5.12,-3.418 8.23,-3.418 3.08,0 6.03,1.215 8.24,3.418 2.19,2.188 3.4,5.137 3.4,8.227 v 0"
         style="fill:#5e7dbc;fill-opacity:1;fill-rule:evenodd;stroke:none"
         transform="matrix(0.13333333,0,0,-0.13333333,0,63)" />
      <path
         id="path44"
         d="m 1973.4,454.43 c 0,3.093 -1.21,6.05 -3.4,8.226 -2.21,2.207 -5.16,3.422 -8.24,3.422 -3.11,0 -6.06,-1.215 -8.23,-3.422 -2.18,-2.176 -3.43,-5.133 -3.43,-8.226 0,-3.09 1.25,-6.039 3.43,-8.227 2.17,-2.203 5.12,-3.418 8.23,-3.418 3.08,0 6.03,1.215 8.24,3.418 2.19,2.188 3.4,5.137 3.4,8.227 z"
         style="fill:none;stroke:#3871c1;stroke-width:10;stroke-linecap:butt;stroke-linejoin:miter;stroke-miterlimit:3.25;stroke-dasharray:none;stroke-opacity:1"
         transform="matrix(0.13333333,0,0,-0.13333333,0,63)" />
      <path
         id="path45"
         d="m 2752.32,301.945 c 0,3.094 -1.22,6.047 -3.39,8.227 -2.19,2.207 -5.16,3.426 -8.26,3.426 -3.07,0 -6.04,-1.219 -8.23,-3.426 -2.17,-2.18 -3.42,-5.133 -3.42,-8.227 0,-3.086 1.25,-6.043 3.42,-8.222 2.19,-2.203 5.16,-3.426 8.23,-3.426 3.1,0 6.07,1.223 8.26,3.426 2.17,2.179 3.39,5.136 3.39,8.222 v 0"
         style="fill:#5e7dbc;fill-opacity:1;fill-rule:evenodd;stroke:none"
         transform="matrix(0.13333333,0,0,-0.13333333,0,63)" />
      <path
         id="path46"
         d="m 2752.32,301.945 c 0,3.094 -1.22,6.047 -3.39,8.227 -2.19,2.207 -5.16,3.426 -8.26,3.426 -3.07,0 -6.04,-1.219 -8.23,-3.426 -2.17,-2.18 -3.42,-5.133 -3.42,-8.227 0,-3.086 1.25,-6.043 3.42,-8.222 2.19,-2.203 5.16,-3.426 8.23,-3.426 3.1,0 6.07,1.223 8.26,3.426 2.17,2.179 3.39,5.136 3.39,8.222 z"
         style="fill:none;stroke:#3871c1;stroke-width:10;stroke-linecap:butt;stroke-linejoin:miter;stroke-miterlimit:3.25;stroke-dasharray:none;stroke-opacity:1"
         transform="matrix(0.13333333,0,0,-0.13333333,0,63)" />
      <path
         id="path47"
         d="m 2168.14,340.078 c 0,3.067 -1.25,6.051 -3.41,8.227 -2.19,2.179 -5.14,3.425 -8.24,3.425 -3.09,0 -6.06,-1.246 -8.25,-3.425 -2.18,-2.176 -3.4,-5.16 -3.4,-8.227 0,-3.09 1.22,-6.07 3.4,-8.246 2.19,-2.184 5.16,-3.402 8.25,-3.402 3.1,0 6.05,1.218 8.24,3.402 2.16,2.176 3.41,5.156 3.41,8.246 v 0"
         style="fill:#5e7dbc;fill-opacity:1;fill-rule:evenodd;stroke:none"
         transform="matrix(0.13333333,0,0,-0.13333333,0,63)" />
      <path
         id="path48"
         d="m 2168.14,340.078 c 0,3.067 -1.25,6.051 -3.41,8.227 -2.19,2.179 -5.14,3.425 -8.24,3.425 -3.09,0 -6.06,-1.246 -8.25,-3.425 -2.18,-2.176 -3.4,-5.16 -3.4,-8.227 0,-3.09 1.22,-6.07 3.4,-8.246 2.19,-2.184 5.16,-3.402 8.25,-3.402 3.1,0 6.05,1.218 8.24,3.402 2.16,2.176 3.41,5.156 3.41,8.246 z"
         style="fill:none;stroke:#3871c1;stroke-width:10;stroke-linecap:butt;stroke-linejoin:miter;stroke-miterlimit:3.25;stroke-dasharray:none;stroke-opacity:1"
         transform="matrix(0.13333333,0,0,-0.13333333,0,63)" />
      <path
         id="path49"
         d="m 2947.07,187.574 c 0,3.09 -1.23,6.071 -3.43,8.246 -2.18,2.184 -5.12,3.399 -8.23,3.399 -3.09,0 -6.03,-1.215 -8.22,-3.399 -2.21,-2.175 -3.42,-5.156 -3.42,-8.246 0,-3.07 1.21,-6.051 3.42,-8.226 2.19,-2.184 5.13,-3.399 8.22,-3.399 3.11,0 6.05,1.215 8.23,3.399 2.2,2.175 3.43,5.156 3.43,8.226 v 0"
         style="fill:#5e7dbc;fill-opacity:1;fill-rule:evenodd;stroke:none"
         transform="matrix(0.13333333,0,0,-0.13333333,0,63)" />
      <path
         id="path50"
         d="m 2947.07,187.574 c 0,3.09 -1.23,6.071 -3.43,8.246 -2.18,2.184 -5.12,3.399 -8.23,3.399 -3.09,0 -6.03,-1.215 -8.22,-3.399 -2.21,-2.175 -3.42,-5.156 -3.42,-8.246 0,-3.07 1.21,-6.051 3.42,-8.226 2.19,-2.184 5.13,-3.399 8.22,-3.399 3.11,0 6.05,1.215 8.23,3.399 2.2,2.175 3.43,5.156 3.43,8.226 z"
         style="fill:none;stroke:#3871c1;stroke-width:10;stroke-linecap:butt;stroke-linejoin:miter;stroke-miterlimit:3.25;stroke-dasharray:none;stroke-opacity:1"
         transform="matrix(0.13333333,0,0,-0.13333333,0,63)" />
      <path
         id="path51"
         d="m 1778.68,263.84 c 0,3.07 -1.24,6.043 -3.43,8.226 -2.16,2.176 -5.15,3.399 -8.22,3.399 -3.08,0 -6.07,-1.223 -8.24,-3.399 -2.19,-2.183 -3.41,-5.156 -3.41,-8.226 0,-3.098 1.22,-6.07 3.41,-8.254 2.17,-2.18 5.16,-3.398 8.24,-3.398 3.07,0 6.06,1.218 8.22,3.398 2.19,2.184 3.43,5.156 3.43,8.254 v 0"
         style="fill:#5e7dbc;fill-opacity:1;fill-rule:evenodd;stroke:none"
         transform="matrix(0.13333333,0,0,-0.13333333,0,63)" />
      <path
         id="path52"
         d="m 1778.68,263.84 c 0,3.07 -1.24,6.043 -3.43,8.226 -2.16,2.176 -5.15,3.399 -8.22,3.399 -3.08,0 -6.07,-1.223 -8.24,-3.399 -2.19,-2.183 -3.41,-5.156 -3.41,-8.226 0,-3.098 1.22,-6.07 3.41,-8.254 2.17,-2.18 5.16,-3.398 8.24,-3.398 3.07,0 6.06,1.218 8.22,3.398 2.19,2.184 3.43,5.156 3.43,8.254 z"
         style="fill:none;stroke:#3871c1;stroke-width:10;stroke-linecap:butt;stroke-linejoin:miter;stroke-miterlimit:3.25;stroke-dasharray:none;stroke-opacity:1"
         transform="matrix(0.13333333,0,0,-0.13333333,0,63)" />
      <path
         id="path53"
         d="m 2557.6,416.324 c 0,3.071 -1.23,6.051 -3.42,8.223 -2.18,2.183 -5.14,3.422 -8.22,3.422 -3.1,0 -6.06,-1.239 -8.25,-3.422 -2.18,-2.172 -3.4,-5.152 -3.4,-8.223 0,-3.097 1.22,-6.074 3.4,-8.254 2.19,-2.175 5.15,-3.402 8.25,-3.402 3.08,0 6.04,1.227 8.22,3.402 2.19,2.18 3.42,5.157 3.42,8.254 v 0"
         style="fill:#5e7dbc;fill-opacity:1;fill-rule:evenodd;stroke:none"
         transform="matrix(0.13333333,0,0,-0.13333333,0,63)" />
      <path
         id="path54"
         d="m 2557.6,416.324 c 0,3.071 -1.23,6.051 -3.42,8.223 -2.18,2.183 -5.14,3.422 -8.22,3.422 -3.1,0 -6.06,-1.239 -8.25,-3.422 -2.18,-2.172 -3.4,-5.152 -3.4,-8.223 0,-3.097 1.22,-6.074 3.4,-8.254 2.19,-2.175 5.15,-3.402 8.25,-3.402 3.08,0 6.04,1.227 8.22,3.402 2.19,2.18 3.42,5.157 3.42,8.254 z"
         style="fill:none;stroke:#3871c1;stroke-width:10;stroke-linecap:butt;stroke-linejoin:miter;stroke-miterlimit:3.25;stroke-dasharray:none;stroke-opacity:1"
         transform="matrix(0.13333333,0,0,-0.13333333,0,63)" />
      <path
         id="path55"
         d="m 2460.24,397.242 c 0,3.102 -1.24,6.074 -3.42,8.25 -2.17,2.18 -5.16,3.406 -8.23,3.406 -3.08,0 -6.07,-1.226 -8.24,-3.406 -2.19,-2.176 -3.4,-5.148 -3.4,-8.25 0,-3.097 1.21,-6.051 3.4,-8.222 2.17,-2.18 5.16,-3.422 8.24,-3.422 3.07,0 6.06,1.242 8.23,3.422 2.18,2.171 3.42,5.125 3.42,8.222 v 0"
         style="fill:#5e7dbc;fill-opacity:1;fill-rule:evenodd;stroke:none"
         transform="matrix(0.13333333,0,0,-0.13333333,0,63)" />
      <path
         id="path56"
         d="m 2460.24,397.242 c 0,3.102 -1.24,6.074 -3.42,8.25 -2.17,2.18 -5.16,3.406 -8.23,3.406 -3.08,0 -6.07,-1.226 -8.24,-3.406 -2.19,-2.176 -3.4,-5.148 -3.4,-8.25 0,-3.097 1.21,-6.051 3.4,-8.222 2.17,-2.18 5.16,-3.422 8.24,-3.422 3.07,0 6.06,1.242 8.23,3.422 2.18,2.171 3.42,5.125 3.42,8.222 z"
         style="fill:none;stroke:#3871c1;stroke-width:10;stroke-linecap:butt;stroke-linejoin:miter;stroke-miterlimit:3.25;stroke-dasharray:none;stroke-opacity:1"
         transform="matrix(0.13333333,0,0,-0.13333333,0,63)" />
      <path
         id="path57"
         d="m 3239.16,244.762 c 0,3.09 -1.23,6.043 -3.42,8.246 -2.18,2.183 -5.13,3.398 -8.22,3.398 -3.1,0 -6.06,-1.215 -8.25,-3.398 -2.18,-2.203 -3.4,-5.156 -3.4,-8.246 0,-3.098 1.22,-6.051 3.4,-8.231 2.19,-2.179 5.15,-3.422 8.25,-3.422 3.09,0 6.04,1.243 8.22,3.422 2.19,2.18 3.42,5.133 3.42,8.231 v 0"
         style="fill:#5e7dbc;fill-opacity:1;fill-rule:evenodd;stroke:none"
         transform="matrix(0.13333333,0,0,-0.13333333,0,63)" />
      <path
         id="path58"
         d="m 3239.16,244.762 c 0,3.09 -1.23,6.043 -3.42,8.246 -2.18,2.183 -5.13,3.398 -8.22,3.398 -3.1,0 -6.06,-1.215 -8.25,-3.398 -2.18,-2.203 -3.4,-5.156 -3.4,-8.246 0,-3.098 1.22,-6.051 3.4,-8.231 2.19,-2.179 5.15,-3.422 8.25,-3.422 3.09,0 6.04,1.243 8.22,3.422 2.19,2.18 3.42,5.133 3.42,8.231 z"
         style="fill:none;stroke:#3871c1;stroke-width:10;stroke-linecap:butt;stroke-linejoin:miter;stroke-miterlimit:3.25;stroke-dasharray:none;stroke-opacity:1"
         transform="matrix(0.13333333,0,0,-0.13333333,0,63)" />
      <path
         id="path59"
         d="m 2070.76,168.516 c 0,3.097 -1.22,6.05 -3.4,8.254 -2.18,2.175 -5.15,3.398 -8.25,3.398 -3.07,0 -6.04,-1.223 -8.23,-3.398 -2.17,-2.204 -3.42,-5.157 -3.42,-8.254 0,-3.09 1.25,-6.043 3.42,-8.227 2.19,-2.18 5.16,-3.418 8.23,-3.418 3.1,0 6.07,1.238 8.25,3.418 2.18,2.184 3.4,5.137 3.4,8.227 v 0"
         style="fill:#5e7dbc;fill-opacity:1;fill-rule:evenodd;stroke:none"
         transform="matrix(0.13333333,0,0,-0.13333333,0,63)" />
      <path
         id="path60"
         d="m 2070.76,168.516 c 0,3.097 -1.22,6.05 -3.4,8.254 -2.18,2.175 -5.15,3.398 -8.25,3.398 -3.07,0 -6.04,-1.223 -8.23,-3.398 -2.17,-2.204 -3.42,-5.157 -3.42,-8.254 0,-3.09 1.25,-6.043 3.42,-8.227 2.19,-2.18 5.16,-3.418 8.23,-3.418 3.1,0 6.07,1.238 8.25,3.418 2.18,2.184 3.4,5.137 3.4,8.227 z"
         style="fill:none;stroke:#3871c1;stroke-width:10;stroke-linecap:butt;stroke-linejoin:miter;stroke-miterlimit:3.25;stroke-dasharray:none;stroke-opacity:1"
         transform="matrix(0.13333333,0,0,-0.13333333,0,63)" />
      <path
         id="path61"
         d="m 2849.71,321 c 0,3.098 -1.25,6.047 -3.42,8.254 -2.19,2.172 -5.14,3.394 -8.23,3.394 -3.1,0 -6.07,-1.222 -8.26,-3.394 -2.17,-2.207 -3.39,-5.156 -3.39,-8.254 0,-3.094 1.22,-6.051 3.39,-8.227 2.19,-2.175 5.16,-3.418 8.26,-3.418 3.09,0 6.04,1.243 8.23,3.418 2.17,2.176 3.42,5.133 3.42,8.227 v 0"
         style="fill:#5e7dbc;fill-opacity:1;fill-rule:evenodd;stroke:none"
         transform="matrix(0.13333333,0,0,-0.13333333,0,63)" />
      <path
         id="path62"
         d="m 2849.71,321 c 0,3.098 -1.25,6.047 -3.42,8.254 -2.19,2.172 -5.14,3.394 -8.23,3.394 -3.1,0 -6.07,-1.222 -8.26,-3.394 -2.17,-2.207 -3.39,-5.156 -3.39,-8.254 0,-3.094 1.22,-6.051 3.39,-8.227 2.19,-2.175 5.16,-3.418 8.26,-3.418 3.09,0 6.04,1.243 8.23,3.418 2.17,2.176 3.42,5.133 3.42,8.227 z"
         style="fill:none;stroke:#3871c1;stroke-width:10;stroke-linecap:butt;stroke-linejoin:miter;stroke-miterlimit:3.25;stroke-dasharray:none;stroke-opacity:1"
         transform="matrix(0.13333333,0,0,-0.13333333,0,63)" />
      <path
         id="path63"
         d="m 2265.51,282.895 c 0,3.093 -1.23,6.043 -3.43,8.226 -2.18,2.176 -5.13,3.422 -8.23,3.422 -3.09,0 -6.04,-1.246 -8.22,-3.422 -2.21,-2.183 -3.42,-5.133 -3.42,-8.226 0,-3.094 1.21,-6.047 3.42,-8.25 2.18,-2.184 5.13,-3.399 8.22,-3.399 3.1,0 6.05,1.215 8.23,3.399 2.2,2.203 3.43,5.156 3.43,8.25 v 0"
         style="fill:#5e7dbc;fill-opacity:1;fill-rule:evenodd;stroke:none"
         transform="matrix(0.13333333,0,0,-0.13333333,0,63)" />
      <path
         id="path64"
         d="m 2265.51,282.895 c 0,3.093 -1.23,6.043 -3.43,8.226 -2.18,2.176 -5.13,3.422 -8.23,3.422 -3.09,0 -6.04,-1.246 -8.22,-3.422 -2.21,-2.183 -3.42,-5.133 -3.42,-8.226 0,-3.094 1.21,-6.047 3.42,-8.25 2.18,-2.184 5.13,-3.399 8.22,-3.399 3.1,0 6.05,1.215 8.23,3.399 2.2,2.203 3.43,5.156 3.43,8.25 z"
         style="fill:none;stroke:#3871c1;stroke-width:10;stroke-linecap:butt;stroke-linejoin:miter;stroke-miterlimit:3.25;stroke-dasharray:none;stroke-opacity:1"
         transform="matrix(0.13333333,0,0,-0.13333333,0,63)" />
      <path
         id="path65"
         d="m 3044.42,435.383 c 0,3.09 -1.22,6.039 -3.39,8.222 -2.2,2.176 -5.16,3.422 -8.26,3.422 -3.08,0 -6.04,-1.246 -8.22,-3.422 -2.19,-2.183 -3.42,-5.132 -3.42,-8.222 0,-3.102 1.23,-6.051 3.42,-8.254 2.18,-2.188 5.14,-3.402 8.22,-3.402 3.1,0 6.06,1.214 8.26,3.402 2.17,2.203 3.39,5.152 3.39,8.254 v 0"
         style="fill:#5e7dbc;fill-opacity:1;fill-rule:evenodd;stroke:none"
         transform="matrix(0.13333333,0,0,-0.13333333,0,63)" />
      <path
         id="path66"
         d="m 3044.42,435.383 c 0,3.09 -1.22,6.039 -3.39,8.222 -2.2,2.176 -5.16,3.422 -8.26,3.422 -3.08,0 -6.04,-1.246 -8.22,-3.422 -2.19,-2.183 -3.42,-5.132 -3.42,-8.222 0,-3.102 1.23,-6.051 3.42,-8.254 2.18,-2.188 5.14,-3.402 8.22,-3.402 3.1,0 6.06,1.214 8.26,3.402 2.17,2.203 3.39,5.152 3.39,8.254 z"
         style="fill:none;stroke:#3871c1;stroke-width:10;stroke-linecap:butt;stroke-linejoin:miter;stroke-miterlimit:3.25;stroke-dasharray:none;stroke-opacity:1"
         transform="matrix(0.13333333,0,0,-0.13333333,0,63)" />
      <path
         id="path67"
         d="m 1876.04,359.137 c 0,3.09 -1.24,6.039 -3.42,8.226 -2.18,2.18 -5.14,3.418 -8.23,3.418 -3.09,0 -6.05,-1.238 -8.25,-3.418 -2.18,-2.187 -3.4,-5.136 -3.4,-8.226 0,-3.098 1.22,-6.047 3.4,-8.246 2.2,-2.192 5.16,-3.407 8.25,-3.407 3.09,0 6.05,1.215 8.23,3.407 2.18,2.199 3.42,5.148 3.42,8.246 v 0"
         style="fill:#5e7dbc;fill-opacity:1;fill-rule:evenodd;stroke:none"
         transform="matrix(0.13333333,0,0,-0.13333333,0,63)" />
      <path
         id="path68"
         d="m 1876.04,359.137 c 0,3.09 -1.24,6.039 -3.42,8.226 -2.18,2.18 -5.14,3.418 -8.23,3.418 -3.09,0 -6.05,-1.238 -8.25,-3.418 -2.18,-2.187 -3.4,-5.136 -3.4,-8.226 0,-3.098 1.22,-6.047 3.4,-8.246 2.2,-2.192 5.16,-3.407 8.25,-3.407 3.09,0 6.05,1.215 8.23,3.407 2.18,2.199 3.42,5.148 3.42,8.246 z"
         style="fill:none;stroke:#3871c1;stroke-width:10;stroke-linecap:butt;stroke-linejoin:miter;stroke-miterlimit:3.25;stroke-dasharray:none;stroke-opacity:1"
         transform="matrix(0.13333333,0,0,-0.13333333,0,63)" />
      <path
         id="path69"
         d="m 2654.96,206.652 c 0,3.09 -1.21,6.043 -3.4,8.227 -2.2,2.176 -5.15,3.418 -8.24,3.418 -3.11,0 -6.05,-1.242 -8.23,-3.418 -2.18,-2.184 -3.43,-5.137 -3.43,-8.227 0,-3.097 1.25,-6.05 3.43,-8.25 2.18,-2.179 5.12,-3.402 8.23,-3.402 3.09,0 6.04,1.223 8.24,3.402 2.19,2.2 3.4,5.153 3.4,8.25 v 0"
         style="fill:#5e7dbc;fill-opacity:1;fill-rule:evenodd;stroke:none"
         transform="matrix(0.13333333,0,0,-0.13333333,0,63)" />
      <path
         id="path70"
         d="m 2654.96,206.652 c 0,3.09 -1.21,6.043 -3.4,8.227 -2.2,2.176 -5.15,3.418 -8.24,3.418 -3.11,0 -6.05,-1.242 -8.23,-3.418 -2.18,-2.184 -3.43,-5.137 -3.43,-8.227 0,-3.097 1.25,-6.05 3.43,-8.25 2.18,-2.179 5.12,-3.402 8.23,-3.402 3.09,0 6.04,1.223 8.24,3.402 2.19,2.2 3.4,5.153 3.4,8.25 z"
         style="fill:none;stroke:#3871c1;stroke-width:10;stroke-linecap:butt;stroke-linejoin:miter;stroke-miterlimit:3.25;stroke-dasharray:none;stroke-opacity:1"
         transform="matrix(0.13333333,0,0,-0.13333333,0,63)" />
      <path
         id="path71"
         d="M 3258.57,159.352 H 1705.54"
         style="fill:none;stroke:#231f20;stroke-width:5;stroke-linecap:square;stroke-linejoin:miter;stroke-miterlimit:3.25;stroke-dasharray:none;stroke-opacity:1"
         transform="matrix(0.13333333,0,0,-0.13333333,0,63)" />
      <path
         id="path72"
         d="M 1705.54,159.352 V 469.973"
         style="fill:none;stroke:#231f20;stroke-width:5;stroke-linecap:square;stroke-linejoin:miter;stroke-miterlimit:3.25;stroke-dasharray:none;stroke-opacity:1"
         transform="matrix(0.13333333,0,0,-0.13333333,0,63)" />
      <path
         id="path73"
         d="M 1705.54,469.973 H 3258.57"
         style="fill:none;stroke:#231f20;stroke-width:5;stroke-linecap:square;stroke-linejoin:miter;stroke-miterlimit:3.25;stroke-dasharray:none;stroke-opacity:1"
         transform="matrix(0.13333333,0,0,-0.13333333,0,63)" />
      <path
         id="path74"
         d="M 3258.57,469.973 V 159.352"
         style="fill:none;stroke:#231f20;stroke-width:5;stroke-linecap:square;stroke-linejoin:miter;stroke-miterlimit:3.25;stroke-dasharray:none;stroke-opacity:1"
         transform="matrix(0.13333333,0,0,-0.13333333,0,63)" />
    </g>
  </g>
</svg>
