<?xml version="1.0" encoding="UTF-8" standalone="no"?>
<!-- Created with Inkscape (http://www.inkscape.org/) -->

<svg
   version="1.1"
   id="svg1"
   width="254.44"
   height="353.79999"
   viewBox="0 0 254.44 353.79999"
   sodipodi:docname="pha08f54.eps"
   xmlns:inkscape="http://www.inkscape.org/namespaces/inkscape"
   xmlns:sodipodi="http://sodipodi.sourceforge.net/DTD/sodipodi-0.dtd"
   xmlns="http://www.w3.org/2000/svg"
   xmlns:svg="http://www.w3.org/2000/svg">
  <defs
     id="defs1" />
  <sodipodi:namedview
     id="namedview1"
     pagecolor="#ffffff"
     bordercolor="#000000"
     borderopacity="0.25"
     inkscape:showpageshadow="2"
     inkscape:pageopacity="0.0"
     inkscape:pagecheckerboard="0"
     inkscape:deskcolor="#d1d1d1">
    <inkscape:page
       x="0"
       y="0"
       inkscape:label="1"
       id="page1"
       width="254.44"
       height="353.79999"
       margin="0"
       bleed="0" />
  </sodipodi:namedview>
  <g
     id="g1"
     inkscape:groupmode="layer"
     inkscape:label="1">
    <g
       id="group-R5">
      <path
         id="path2"
         d="m 2.6941063,1.3255781 c -0.890625,-0.76171873 -1.40625,-2.20312498 -1.40625,-3.75 0,-1.546875 0.515625,-3 1.40625,-3.75 L 2.5417625,-6.3853594 c -1.3242187,0.9023438 -1.91015625,2.3320313 -1.91015625,3.9492188 0,1.62890622 0.58593755,3.08203122 1.91015625,3.9609375 z m 4.321289,-1.67578123 -0.09375,-0.234375 c -0.09375,0.0585938 -0.2226562,0.10546875 -0.328125,0.10546875 -0.1523437,0 -0.3164062,-0.140625 -0.3164062,-0.55078122 v -1.6640625 c 0,-0.46875 -0.082031,-0.84375 -0.3984375,-1.1015625 -0.1992188,-0.1640625 -0.46875,-0.2460938 -0.7382813,-0.2460938 -0.515625,0.1054688 -1.1015625,0.4570313 -1.3476562,0.6328125 -0.1757813,0.1289063 -0.2929688,0.2226563 -0.2929688,0.3632813 0,0.1992187 0.234375,0.3867187 0.3984375,0.3867187 0.1289063,0 0.2226563,-0.070312 0.2578125,-0.2109375 0.070312,-0.28125 0.1523438,-0.4804687 0.2695313,-0.5976562 0.09375,-0.1054688 0.2226562,-0.1757813 0.4101562,-0.1757813 0.4453125,0 0.75,0.3632813 0.75,1.0195313 v 0.1640625 c -0.1992187,0.1523437 -0.8554687,0.3984375 -1.3945312,0.5742187 -0.4921875,0.1757813 -0.7265625,0.4570313 -0.7265625,0.90234377 0,0.5625 0.4453125,1.08984375 1.078125,1.08984375 0.2695312,0 0.703125,-0.328125 1.0664062,-0.57421875 0.046875,0.15234375 0.09375,0.28125 0.2109375,0.41015625 0.1054688,0.08203125 0.2929688,0.1640625 0.421875,0.1640625 z M 5.5857078,-0.76035938 c -0.1640625,0.1640625 -0.4804687,0.31640625 -0.7148437,0.328125 -0.28125,0 -0.6445313,-0.22265625 -0.6445313,-0.69140622 0,-0.328125 0.1992188,-0.4921875 0.5507813,-0.65625 0.1875,-0.09375 0.6210937,-0.28125 0.8085937,-0.375 z M 7.4753563,-6.1744219 c 0.890625,0.7382813 1.4179687,2.203125 1.4179687,3.75 0,1.54687502 -0.5039062,2.98828127 -1.4179687,3.75 l 0.1640625,0.1992188 c 1.3476562,-0.91406253 1.8984375,-2.33203128 1.8984375,-3.9492188 0,-1.6289062 -0.5507813,-3.0585937 -1.8984375,-3.9609375 z M 2.8200828,139.49257 c -0.890625,-0.76172 -1.40625,-2.20312 -1.40625,-3.75 0,-1.54687 0.515625,-3 1.40625,-3.75 l -0.1523437,-0.21094 c -1.3242188,0.90235 -1.91015629,2.33203 -1.91015629,3.94922 0,1.62891 0.58593749,3.08203 1.91015629,3.96094 z m 1.7900391,-4.95703 v -2.77734 c -0.3398438,0.11718 -0.890625,0.25781 -1.3125,0.3164 v 0.21094 c 0.5859375,0.0469 0.5976562,0.10547 0.5976562,0.66797 v 5.0039 c 0.4921875,0.23438 0.9492188,0.31641 1.3242188,0.31641 1.2070312,0 2.2617187,-0.9375 2.2617187,-2.26172 0,-1.05469 -0.8085937,-1.88672 -1.78125,-1.88672 -0.09375,0 -0.2226562,0.0234 -0.3632812,0.0937 z m 0,0.26953 c 0.1640625,-0.10547 0.4453125,-0.17578 0.703125,-0.17578 0.7382812,0 1.3710937,0.59766 1.3710937,1.61719 0,1.05468 -0.4804687,1.6875 -1.21875,1.6875 -0.4804687,-0.0117 -0.75,-0.32813 -0.8085937,-0.50391 -0.035156,-0.082 -0.046875,-0.17578 -0.046875,-0.30469 z m 3.6123047,-2.8125 c 0.890625,0.73828 1.4179687,2.20313 1.4179687,3.75 0,1.54688 -0.5039062,2.98828 -1.4179687,3.75 l 0.1640625,0.19922 c 1.3476562,-0.91406 1.8984379,-2.33203 1.8984379,-3.94922 0,-1.62891 -0.5507817,-3.05859 -1.8984379,-3.96094 z m 0,0"
         style="fill:#231f20;fill-opacity:1;fill-rule:nonzero;stroke:none"
         aria-label="(a)&#10;(b)"
         transform="matrix(1.3333333,0,0,1.3333333,119.07973,165.256)" />
      <path
         id="path3"
         d="m 38.0664,1807.85 h 15"
         style="fill:none;stroke:#3871c1;stroke-width:5;stroke-linecap:butt;stroke-linejoin:miter;stroke-miterlimit:3.25;stroke-dasharray:none;stroke-opacity:1"
         transform="matrix(0.13333333,0,0,-0.13333333,0,353.8)" />
      <path
         id="path4"
         d="M 73.8828,1807.85 H 479.77"
         style="fill:none;stroke:#3871c1;stroke-width:5;stroke-linecap:butt;stroke-linejoin:miter;stroke-miterlimit:3.25;stroke-dasharray:31.2221, 20.8147;stroke-dashoffset:0;stroke-opacity:1"
         transform="matrix(0.13333333,0,0,-0.13333333,0,353.8)" />
      <path
         id="path5"
         d="m 490.176,1807.85 h 15 l 0.019,15"
         style="fill:none;stroke:#3871c1;stroke-width:5;stroke-linecap:butt;stroke-linejoin:miter;stroke-miterlimit:3.25;stroke-dasharray:none;stroke-opacity:1"
         transform="matrix(0.13333333,0,0,-0.13333333,0,353.8)" />
      <path
         id="path6"
         d="m 505.215,1841.88 0.547,466.34"
         style="fill:none;stroke:#3871c1;stroke-width:5;stroke-linecap:butt;stroke-linejoin:miter;stroke-miterlimit:3.25;stroke-dasharray:28.5512, 19.0342;stroke-dashoffset:0;stroke-opacity:1"
         transform="matrix(0.13333333,0,0,-0.13333333,0,353.8)" />
      <path
         id="path7"
         d="m 505.77,2317.73 0.023,15 h 15"
         style="fill:none;stroke:#3871c1;stroke-width:5;stroke-linecap:butt;stroke-linejoin:miter;stroke-miterlimit:3.25;stroke-dasharray:none;stroke-opacity:1"
         transform="matrix(0.13333333,0,0,-0.13333333,0,353.8)" />
      <path
         id="path8"
         d="M 541.602,2332.73 H 947.371"
         style="fill:none;stroke:#3871c1;stroke-width:5;stroke-linecap:butt;stroke-linejoin:miter;stroke-miterlimit:3.25;stroke-dasharray:31.2134, 20.8089;stroke-dashoffset:0;stroke-opacity:1"
         transform="matrix(0.13333333,0,0,-0.13333333,0,353.8)" />
      <path
         id="path9"
         d="m 957.777,2332.73 h 15 l 0.02,-15"
         style="fill:none;stroke:#3871c1;stroke-width:5;stroke-linecap:butt;stroke-linejoin:miter;stroke-miterlimit:3.25;stroke-dasharray:none;stroke-opacity:1"
         transform="matrix(0.13333333,0,0,-0.13333333,0,353.8)" />
      <path
         id="path10"
         d="m 972.816,2298.7 0.5,-466.34"
         style="fill:none;stroke:#3871c1;stroke-width:5;stroke-linecap:butt;stroke-linejoin:miter;stroke-miterlimit:3.25;stroke-dasharray:28.5512, 19.0342;stroke-dashoffset:0;stroke-opacity:1"
         transform="matrix(0.13333333,0,0,-0.13333333,0,353.8)" />
      <path
         id="path11"
         d="m 973.324,1822.85 0.02,-15 h 15"
         style="fill:none;stroke:#3871c1;stroke-width:5;stroke-linecap:butt;stroke-linejoin:miter;stroke-miterlimit:3.25;stroke-dasharray:none;stroke-opacity:1"
         transform="matrix(0.13333333,0,0,-0.13333333,0,353.8)" />
      <path
         id="path12"
         d="m 1009.16,1807.85 h 405.8"
         style="fill:none;stroke:#3871c1;stroke-width:5;stroke-linecap:butt;stroke-linejoin:miter;stroke-miterlimit:3.25;stroke-dasharray:31.2151, 20.8101;stroke-dashoffset:0;stroke-opacity:1"
         transform="matrix(0.13333333,0,0,-0.13333333,0,353.8)" />
      <path
         id="path13"
         d="m 1425.36,1807.85 h 15 l 0.02,15"
         style="fill:none;stroke:#3871c1;stroke-width:5;stroke-linecap:butt;stroke-linejoin:miter;stroke-miterlimit:3.25;stroke-dasharray:none;stroke-opacity:1"
         transform="matrix(0.13333333,0,0,-0.13333333,0,353.8)" />
      <path
         id="path14"
         d="m 1440.4,1841.88 0.49,466.34"
         style="fill:none;stroke:#3871c1;stroke-width:5;stroke-linecap:butt;stroke-linejoin:miter;stroke-miterlimit:3.25;stroke-dasharray:28.5512, 19.0342;stroke-dashoffset:0;stroke-opacity:1"
         transform="matrix(0.13333333,0,0,-0.13333333,0,353.8)" />
      <path
         id="path15"
         d="m 1440.9,2317.73 0.02,15 h 15"
         style="fill:none;stroke:#3871c1;stroke-width:5;stroke-linecap:butt;stroke-linejoin:miter;stroke-miterlimit:3.25;stroke-dasharray:none;stroke-opacity:1"
         transform="matrix(0.13333333,0,0,-0.13333333,0,353.8)" />
      <path
         id="path16"
         d="m 1476.75,2332.73 h 406.17"
         style="fill:none;stroke:#3871c1;stroke-width:5;stroke-linecap:butt;stroke-linejoin:miter;stroke-miterlimit:3.25;stroke-dasharray:31.243, 20.8287;stroke-dashoffset:0;stroke-opacity:1"
         transform="matrix(0.13333333,0,0,-0.13333333,0,353.8)" />
      <path
         id="path17"
         d="m 1893.33,2332.73 h 15"
         style="fill:none;stroke:#3871c1;stroke-width:5;stroke-linecap:butt;stroke-linejoin:miter;stroke-miterlimit:3.25;stroke-dasharray:none;stroke-opacity:1"
         transform="matrix(0.13333333,0,0,-0.13333333,0,353.8)" />
      <path
         id="path18"
         d="m 38.0664,1837 0.5859,-2.52 0.586,-2.46 1.1484,-4.66 0.5547,-2.2 0.582,-2.14 1.1407,-4.04 0.582,-1.87 0.5664,-1.84 1.1406,-3.44 0.5821,-1.61 0.5859,-1.55 1.1484,-2.87 0.5586,-1.35 0.5782,-1.29 1.1445,-2.37 0.582,-1.09 0.5664,-1.02 1.1367,-1.91 0.586,-0.85 0.5859,-0.79 0.5508,-0.76 0.5859,-0.7 0.5664,-0.65 0.5821,-0.58 0.5547,-0.53 0.5859,-0.5 0.582,-0.47 0.5586,-0.38 0.5938,-0.38 0.5508,-0.29 0.5859,-0.3 0.5586,-0.23 0.582,-0.18 0.586,-0.14 0.5664,-0.12 0.5781,-0.09 0.5586,-0.03 h 0.5859 l 0.586,0.03 0.5507,0.06 0.5977,0.09 0.5508,0.12 0.5859,0.14 0.5547,0.18 0.582,0.21 0.586,0.23 0.5664,0.26 0.5859,0.27 1.1406,0.61 0.5508,0.32 0.586,0.38 1.1445,0.76 2.3125,1.68 1.2305,0.99 1.2382,1.03 2.4922,2.11 0.6328,0.52 1.8555,1.59 2.4922,2.01 0.6133,0.5 0.6445,0.45 1.2305,0.9 1.2304,0.82 1.2618,0.74 1.2304,0.64 0.6446,0.26 0.6132,0.27 0.6172,0.23 0.6133,0.18 0.6445,0.17 0.6172,0.12 0.6133,0.1 0.6094,0.05 0.6172,0.03 h 292.535 l 0.645,-0.06 0.613,-0.06 0.617,-0.12 0.613,-0.15 0.614,-0.17 0.613,-0.24 0.648,-0.23 0.614,-0.26 0.613,-0.29 0.613,-0.33 1.235,-0.7 1.257,-0.82 0.618,-0.4 0.613,-0.45 1.23,-0.94 0.645,-0.49 1.848,-1.5 2.488,-2.11 2.461,-2.11 2.492,-2.02 0.613,-0.5 0.61,-0.47 1.265,-0.88 0.61,-0.44 0.617,-0.41 1.258,-0.73 0.617,-0.35 0.613,-0.32 1.231,-0.53 0.617,-0.23 0.644,-0.21 0.614,-0.18 0.617,-0.13 0.594,-0.1 0.55,-0.09 0.586,-0.03 h 0.586 l 0.586,0.03 0.555,0.06 0.594,0.13 0.585,0.13 0.586,0.18 0.551,0.23 0.586,0.27 0.59,0.32 0.578,0.35 0.586,0.41 0.566,0.44 0.582,0.5 0.586,0.53 0.586,0.61 0.551,0.65 0.586,0.67 0.598,0.76 0.586,0.82 1.136,1.79 0.586,0.96 0.586,1.06 1.149,2.26 0.586,1.23 0.582,1.29 1.14,2.78 0.582,1.49 0.586,1.56 1.149,3.33 0.586,1.79 0.586,1.85 1.136,3.93 0.586,2.08 0.594,2.16 1.141,4.57 2.316,10.14 0.586,2.81 0.582,2.91 1.172,6.17 2.32,13.6 0.551,3.63 0.586,3.75 1.172,7.79 2.312,16.59 0.559,4.27 0.551,4.34 1.152,8.91 2.277,18.57 4.543,39.79 9.09,86.19 0.551,5.53 0.559,5.52 1.136,11.03 2.289,22.01 4.547,43.25 0.551,5.27 0.559,5.24 1.136,10.4 2.289,20.28 4.547,38.05 0.613,4.86 0.618,4.75 1.23,9.28 2.453,17.47 0.617,4.09 0.618,4.03 1.226,7.69 2.461,14.01 0.617,3.19 0.618,3.05 1.23,5.74 0.613,2.7 0.61,2.6 1.23,4.93 0.617,2.32 0.614,2.22 1.23,4.19 0.617,1.99 0.625,1.88 1.231,3.52 0.613,1.66 0.617,1.55 1.231,2.9 0.613,1.36 0.609,1.26 1.235,2.34 0.613,1.06 0.613,0.99 0.617,0.91 0.618,0.87 0.64,0.79 0.617,0.74 0.618,0.7 0.613,0.62 0.613,0.55 0.617,0.53 0.618,0.44 0.613,0.41 0.613,0.34 0.617,0.3 0.617,0.27 0.614,0.2 0.609,0.17 0.617,0.12 0.614,0.1 0.617,0.03 h 0.613 l 1.231,-0.13 0.625,-0.12 0.585,-0.14 0.551,-0.15 0.586,-0.2 0.559,-0.2 0.582,-0.25 0.586,-0.25 1.144,-0.62 0.559,-0.32 0.586,-0.36 1.137,-0.72 2.32,-1.68 0.551,-0.46 0.586,-0.45 1.152,-0.93 2.305,-1.94 4.609,-3.86 0.555,-0.47 0.586,-0.46 1.136,-0.86 0.586,-0.43 0.567,-0.39 1.136,-0.76 1.172,-0.7 0.551,-0.32 0.598,-0.29 0.586,-0.28 0.55,-0.26 0.586,-0.23 0.551,-0.2 0.586,-0.18 0.598,-0.14 0.554,-0.13 0.582,-0.09 0.555,-0.05 0.59,-0.03 h 292.586 l 0.586,0.03 0.551,0.05 0.586,0.09 0.566,0.13 0.586,0.14 0.582,0.18 0.559,0.2 0.585,0.23 0.551,0.26 0.594,0.28 0.555,0.29 1.14,0.64 0.586,0.38 0.582,0.35 1.153,0.8 2.273,1.72 0.566,0.47 0.586,0.47 3.422,2.9 0.586,0.5 0.559,0.5 1.168,0.96 2.289,1.85 0.613,0.49 0.617,0.48 1.258,0.91 1.235,0.81 1.23,0.77 0.645,0.32 0.613,0.32 0.617,0.3 0.613,0.26 0.61,0.23 0.652,0.2 0.613,0.18 0.61,0.14 1.23,0.19 0.645,0.03 h 0.617 l 0.613,-0.07 0.617,-0.08 0.614,-0.15 0.644,-0.18 0.617,-0.2 0.614,-0.29 0.617,-0.33 0.613,-0.35 0.645,-0.44 0.617,-0.47 0.613,-0.53 0.617,-0.58 0.645,-0.67 0.613,-0.71 0.617,-0.76 0.625,-0.82 0.614,-0.9 0.636,-0.98 1.239,-2.1 0.617,-1.18 0.613,-1.23 1.262,-2.69 0.613,-1.46 0.617,-1.56 1.258,-3.31 0.617,-1.79 0.613,-1.84 1.231,-3.98 0.644,-2.15 0.618,-2.2 1.222,-4.69 0.617,-2.48 0.649,-2.57 1.226,-5.46 2.493,-12.42 0.586,-3.19 0.554,-3.31 1.168,-6.91 2.321,-15.04 0.586,-3.98 0.578,-4.07 1.152,-8.39 2.34,-17.75 0.551,-4.63 0.586,-4.68 1.183,-9.58 2.305,-19.87 4.637,-42.1 0.585,-5.42 0.586,-5.47 1.168,-10.99 2.321,-22.3 4.625,-45.05 9.285,-87.87 0.555,-5.12 0.585,-5.07 1.145,-9.99 2.258,-19.4 0.586,-4.68 0.554,-4.66 1.145,-9.08 2.254,-17.32 0.586,-4.13 0.551,-4.04 1.152,-7.88 0.547,-3.81 0.586,-3.72 1.152,-7.15 0.547,-3.43 0.586,-3.34 1.113,-6.35 2.285,-11.46 0.567,-2.58 0.586,-2.49 1.133,-4.75 0.566,-2.22 0.547,-2.2 1.152,-4.1 0.586,-1.93 0.547,-1.88 1.152,-3.55 0.547,-1.63 0.586,-1.62 1.152,-2.96 0.547,-1.4 0.567,-1.32 1.133,-2.46 0.585,-1.14 0.567,-1.06 1.133,-1.99 0.566,-0.91 0.586,-0.85 0.547,-0.79 0.566,-0.73 0.586,-0.7 0.547,-0.65 0.586,-0.58 0.566,-0.53 0.606,-0.53 0.625,-0.49 0.605,-0.42 0.625,-0.38 0.606,-0.32 0.625,-0.26 0.605,-0.24 0.625,-0.17 0.645,-0.15 0.605,-0.09 0.625,-0.06 h 0.606 l 0.625,0.03 0.605,0.06 0.627,0.09 0.6,0.15 1.24,0.35 0.62,0.23 0.61,0.27 1.23,0.58 1.23,0.71 0.62,0.37 0.65,0.41 1.23,0.85 2.46,1.88 1.23,0.99 1.23,1.03 3.69,3.16 1.25,1.03 2.46,1.96 0.63,0.47 0.6,0.44 1.23,0.85 1.23,0.76 1.23,0.67 0.63,0.33 1.23,0.53 1.23,0.41 0.64,0.14 0.61,0.12 0.62,0.1 0.55,0.05 0.59,0.03 h 292.65 l 1.23,-0.12 0.61,-0.12 0.62,-0.15 0.61,-0.17 1.23,-0.47 0.62,-0.26 0.61,-0.29 1.23,-0.65 0.63,-0.38 1.23,-0.79 0.6,-0.41 0.63,-0.44 1.23,-0.94 0.54,-0.44 0.59,-0.47 1.15,-0.94 2.29,-1.93 0.58,-0.47 0.55,-0.5 1.17,-0.99 2.29,-1.9 0.58,-0.45 0.57,-0.46 1.13,-0.85 0.59,-0.44 0.58,-0.38 1.16,-0.76 0.54,-0.36 0.59,-0.35 0.57,-0.32 0.58,-0.29 0.59,-0.27 0.54,-0.26 0.59,-0.2 0.57,-0.21 0.58,-0.18 0.59,-0.14 0.55,-0.12 0.58,-0.09 0.57,-0.06 0.58,-0.03 h 0.59 l 0.55,0.06 0.58,0.06 0.57,0.12 0.58,0.14 0.59,0.21 0.55,0.24 0.58,0.26 0.57,0.32 1.17,0.76 0.55,0.47 0.58,0.5 1.16,1.14 0.54,0.65 1.18,1.46 0.56,0.82 0.59,0.85 1.13,1.91 0.59,1.02 0.56,1.11 1.14,2.37 0.64,1.41 0.63,1.46 1.23,3.2 0.64,1.7 0.61,1.78 1.23,3.84 0.64,2.05 0.63,2.15 1.23,4.53 2.48,10.2 0.62,2.81 0.65,2.93 1.23,6.24 2.48,14.07 0.62,3.8 0.65,3.93 1.23,8.17 2.48,17.58 0.62,4.63 0.65,4.72 1.23,9.72 2.48,20.36 4.98,43.89 9.96,95.04 0.59,5.66 0.56,5.65 1.17,11.28 2.31,22.38 4.67,43.66 0.58,5.3 0.59,5.27 1.13,10.37 2.35,20.16 4.62,37.33 0.59,4.33 0.59,4.24 1.17,8.27 2.32,15.43 0.59,3.64 0.58,3.51 1.14,6.74 2.34,12.19 0.59,2.75 0.56,2.65 1.17,4.98 0.59,2.37 0.59,2.31 1.13,4.34 0.59,2.05 0.58,1.96 1.17,3.72 1.16,3.43 1.17,3.13 0.54,1.43 0.59,1.38 1.15,2.55 0.55,1.17 0.59,1.12 1.15,2.05 0.54,0.97 0.57,0.88 0.59,0.81 0.54,0.79 0.59,0.74 0.57,0.67 1.13,1.18 0.58,0.52 0.57,0.48 0.55,0.43 0.58,0.38 0.57,0.35 0.59,0.29 0.54,0.27 0.59,0.2 0.57,0.18 0.58,0.14 0.55,0.12 0.56,0.07 0.59,0.03 h 0.55 l 0.58,-0.03 0.57,-0.1 0.59,-0.09 0.54,-0.11 0.59,-0.18 0.57,-0.17 0.54,-0.21 0.59,-0.23 0.56,-0.23 0.59,-0.3 0.55,-0.29 0.58,-0.32 1.16,-0.71 0.54,-0.35 0.57,-0.41 1.13,-0.82 0.59,-0.41 0.56,-0.44 1.14,-0.91 2.28,-1.9 4.55,-3.87 0.65,-0.5 0.6,-0.5 1.23,-0.96 0.63,-0.47 0.6,-0.45 1.23,-0.84 0.63,-0.41 0.6,-0.37 0.63,-0.36 0.64,-0.36 1.23,-0.58 0.61,-0.26 0.63,-0.24 1.23,-0.35 0.6,-0.15 0.63,-0.09 0.6,-0.05 0.63,-0.03 h 292.52 l 0.62,0.03 0.61,0.05 0.62,0.12 1.23,0.3 0.61,0.2 0.62,0.24 0.61,0.26 1.23,0.59 1.23,0.7 0.62,0.37 1.23,0.83 1.23,0.88 1.25,0.97 2.47,1.99 4.92,4.19 0.62,0.49 0.61,0.53 1.23,0.98 1.23,0.93 1.23,0.88 0.62,0.41 1.23,0.76 0.61,0.35 0.63,0.32 1.23,0.59 0.64,0.23 0.61,0.24 0.62,0.17 1.23,0.3 0.61,0.08 1.23,0.07 0.62,-0.03 0.61,-0.07 0.62,-0.12 0.61,-0.14 0.62,-0.18 1.23,-0.52 0.61,-0.36 0.62,-0.38 0.59,-0.4 0.55,-0.47 0.58,-0.5 0.59,-0.56 0.57,-0.59 0.58,-0.64 1.13,-1.46 0.59,-0.82 0.57,-0.88 1.17,-1.9 0.55,-1.06 0.58,-1.08 1.15,-2.41 0.59,-1.29 0.55,-1.34 1.17,-2.94 0.56,-1.55 0.59,-1.64 1.13,-3.46 0.59,-1.84 0.57,-1.91 1.17,-4.07 2.28,-9.08 0.59,-2.5 0.55,-2.54 1.17,-5.45 0.56,-2.87 0.59,-3.02 1.13,-6.32 0.59,-3.34 0.56,-3.4 1.18,-7.15 2.28,-15.41 0.59,-4.07 0.54,-4.16 1.18,-8.56 2.28,-17.99 4.61,-39.05 0.65,-5.75 0.64,-5.76 1.29,-11.73 2.54,-23.93 5.15,-49.36 1.29,-12.48 1.27,-12.48 2.58,-24.9 5.12,-48.73 0.64,-5.91 0.65,-5.89"
         style="fill:none;stroke:#3871c1;stroke-width:7.5;stroke-linecap:butt;stroke-linejoin:miter;stroke-miterlimit:3.25;stroke-dasharray:none;stroke-opacity:1"
         transform="matrix(0.13333333,0,0,-0.13333333,0,353.8)" />
      <path
         id="path19"
         d="m 37.7305,693.641 h 1.1718 l 0.5508,0.031 0.5938,0.027 0.5586,0.031 0.582,0.032 0.5859,0.058 0.5547,0.059 0.5821,0.051 0.5664,0.058 0.5859,0.09 0.5508,0.063 0.5859,0.089 0.586,0.11 1.1484,0.199 0.5547,0.133 0.582,0.117 1.1445,0.262 0.5782,0.14 0.5664,0.149 1.1406,0.32 0.5859,0.172 0.3946,0.148"
         style="fill:none;stroke:#3871c1;stroke-width:5;stroke-linecap:butt;stroke-linejoin:miter;stroke-miterlimit:3.25;stroke-dasharray:none;stroke-opacity:1"
         transform="matrix(0.13333333,0,0,-0.13333333,0,353.8)" />
      <path
         id="path20"
         d="m 70.2656,705.012 4.1992,3.097 1.2305,1 1.2383,1.063 2.4883,2.137 4.9844,4.722 0.6132,0.641 0.6446,0.617 1.2304,1.301 2.4922,2.711 4.9766,5.769 1.2265,1.512 1.2657,1.559 2.4843,3.218 4.9532,6.832 9.961,15.207 0.586,0.942 0.582,0.949 1.148,1.941 2.34,3.961 4.625,8.231 9.297,17.777 1.168,2.352 1.141,2.371 2.347,4.808 4.625,9.961 9.289,21.039 0.578,1.329 0.571,1.363 1.137,2.699 2.289,5.5 4.535,11.219 9.113,23.41 18.227,50.16 39.515,116.16 0.586,1.67 0.555,1.67 1.18,3.33 2.277,6.66 4.637,13.09 9.195,25.31 1.168,3.06 1.148,3.01 2.309,5.98 4.605,11.57 9.227,21.44 1.23,2.69 1.258,2.65 2.492,5.16 0.645,1.23 0.613,1.23 1.262,2.43 2.488,4.65 0.617,1.11 0.645,1.12 1.23,2.17 2.489,4.16 0.644,0.99 0.617,0.97 1.258,1.87 2.492,3.58 0.614,0.85 0.644,0.82 1.231,1.61 0.644,0.76 0.617,0.74 1.258,1.43 0.617,0.71 0.614,0.64 1.261,1.26 2.489,2.28 0.617,0.51 0.644,0.49 1.231,0.91 0.644,0.44 0.614,0.38 1.261,0.73 1.231,0.65 0.644,0.25 0.614,0.28 0.617,0.23 0.644,0.2 1.231,0.35 0.613,0.13 1.227,0.17 0.617,0.06 0.613,0.02 h 0.613 l 1.235,-0.05 0.613,-0.09 0.598,-0.09 0.613,-0.12 0.613,-0.15 0.618,-0.17 0.617,-0.2 0.613,-0.24 0.609,-0.26 0.618,-0.3 1.23,-0.64 1.23,-0.76 0.614,-0.44 1.203,-0.91 1.23,-1.06 1.231,-1.17 0.609,-0.61 0.613,-0.65 1.235,-1.4 0.613,-0.73 0.613,-0.77 1.243,-1.63 0.617,-0.86 0.586,-0.88 1.226,-1.87 1.227,-1.99 1.23,-2.15 2.461,-4.59 0.617,-1.23 0.614,-1.26 1.203,-2.61 2.457,-5.63 0.613,-1.49 0.613,-1.52 1.235,-3.14 2.469,-6.65 0.55,-1.63 0.586,-1.65 1.145,-3.39 2.285,-7.15 4.562,-15.68 0.571,-2.1 0.586,-2.12 1.136,-4.33 2.29,-9 4.566,-19.42 0.586,-2.55 0.551,-2.6 1.152,-5.26 2.273,-10.86 4.614,-23.09 9.129,-51.528 0.625,-3.75 0.617,-3.782 1.258,-7.621 2.461,-15.648 4.98,-32.629 9.898,-70.402 19.86,-156.18 0.594,-4.75 0.55,-4.781 1.172,-9.539 2.321,-19.168 4.625,-38.43 9.257,-76.551 1.164,-9.441 1.149,-9.43 2.308,-18.691 4.641,-36.739 9.281,-69.781 0.559,-4.109 0.551,-4.039 1.152,-8.032 2.273,-15.668 4.547,-29.882 0.559,-3.61 0.555,-3.539 1.148,-7 2.281,-13.512 4.543,-25.16 0.555,-2.957 0.555,-2.902 1.136,-5.688 2.293,-10.812 0.551,-2.609 0.567,-2.52 1.136,-4.949 2.289,-9.25 0.555,-2.172 0.555,-2.141 1.136,-4.129 0.571,-1.961 0.578,-1.937 1.144,-3.691 0.551,-1.758 0.567,-1.703 1.136,-3.219 0.559,-1.551 0.586,-1.469 1.144,-2.781 0.618,-1.41 0.617,-1.34 0.613,-1.258 0.613,-1.203 0.617,-1.148 0.61,-1.051 1.23,-1.91 0.618,-0.848 0.613,-0.75 0.617,-0.711 0.613,-0.621 0.617,-0.539 0.614,-0.48 0.617,-0.411 0.613,-0.32 0.617,-0.238 0.614,-0.172 0.617,-0.117 h 0.613 l 0.617,0.058 0.61,0.11 0.617,0.211 0.613,0.289 0.613,0.379 0.618,0.441 0.617,0.531 0.613,0.59 0.613,0.699 0.625,0.762 0.618,0.816 0.617,0.942 0.613,0.988 0.613,1.094 0.618,1.137 0.617,1.261 0.613,1.321 0.609,1.379 1.231,3.039 0.617,1.64 0.613,1.731 1.231,3.691 2.492,8.32 0.613,2.289 0.617,2.379 1.231,4.942 2.461,10.898 0.609,2.93 0.613,2.992 1.235,6.238 2.469,13.422 0.586,3.309 0.55,3.371 1.145,6.937 2.312,14.684 4.602,32.43 0.551,4.34 0.586,4.386 1.152,8.973 2.305,18.66 4.609,39.961 0.551,5.238 0.586,5.282 1.136,10.718 2.293,22.032 4.594,46.199 9.203,99.437 0.618,7.012 0.644,7.02 1.231,14.121 2.488,28.507 4.98,57.711 9.992,115.411 1.231,14.171 1.258,14.059 2.492,27.801 4.98,53.82 0.614,6.539 0.617,6.469 1.258,12.801 2.492,24.941 4.98,46.779 0.61,5.46 0.617,5.32 1.199,10.49 2.473,20.04 0.613,4.8 0.613,4.72 1.2,9.2 2.46,17.26 0.614,4.1 0.617,3.98 1.199,7.71 0.617,3.69 0.614,3.6 1.226,6.89 0.613,3.28 0.618,3.19 1.211,6.07 0.617,2.84 0.613,2.76 1.231,5.18 0.617,2.43 0.613,2.32 0.582,2.19 0.613,2.08 0.618,1.97 0.613,1.84 1.23,3.34 0.617,1.5 0.614,1.37 0.586,1.23 0.617,1.15 0.613,0.99 0.617,0.9 0.61,0.77 0.617,0.65 0.613,0.49 0.586,0.41 0.613,0.27 0.625,0.12 0.618,0.02 0.617,-0.11 0.613,-0.24 0.613,-0.38 0.618,-0.46 0.582,-0.65 0.613,-0.73 0.617,-0.88 0.613,-1 0.617,-1.14 0.614,-1.26 0.617,-1.38 0.555,-1.43 0.582,-1.52 0.566,-1.65 0.586,-1.73 0.551,-1.88 0.558,-1.95 1.137,-4.29 0.598,-2.27 0.551,-2.44 1.14,-5.15 2.285,-11.64 0.586,-3.19 0.559,-3.28 1.144,-6.88 2.282,-15.09 0.55,-4.02 0.598,-4.13 1.137,-8.58 2.293,-18.35 0.551,-4.82 0.585,-4.95 1.11,-10.14 2.289,-21.41 4.562,-47.09 0.598,-6.238 0.551,-6.352 1.144,-12.898 2.286,-26.692 4.535,-56.539 0.648,-7.961 0.617,-8.039 1.227,-16.23 2.461,-33.109 4.961,-68.282 9.894,-140.332 1.231,-17.468 1.261,-17.372 2.461,-34.386 4.95,-66.653 0.617,-8.058 0.609,-8.031 1.231,-15.821 2.492,-30.699 4.961,-57.191 0.554,-6.27 0.583,-6.148 1.171,-12.012 2.286,-22.82 0.585,-5.45 0.586,-5.308 1.137,-10.313 2.32,-19.218 0.586,-4.508 0.551,-4.364 1.184,-8.378 0.586,-3.989 0.55,-3.859 1.172,-7.332 0.551,-3.461 0.598,-3.309 1.137,-6.238 0.585,-2.902 0.586,-2.75 1.137,-5.098 0.598,-2.312 0.586,-2.168 0.55,-2.051 0.586,-1.879 0.586,-1.731 0.578,-1.57 0.571,-1.441 0.586,-1.258 0.578,-1.152 0.558,-0.961 0.586,-0.809 0.586,-0.66 0.551,-0.52 0.598,-0.359 0.586,-0.172 0.578,-0.027 0.558,0.117 0.586,0.293 0.578,0.437 0.571,0.582 0.586,0.77 0.578,0.898 0.586,1.09 0.558,1.231 0.586,1.379 0.578,1.55 0.571,1.731 0.586,1.871 0.578,2.019 0.558,2.168 1.164,4.864 0.618,2.879 0.644,3.07 1.231,6.68 0.644,3.629 0.613,3.812 1.262,8.117 0.613,4.332 0.618,4.52 1.257,9.551 2.493,21.117 0.644,5.679 0.613,5.864 1.262,12.218 2.488,26.282 5.012,59.558 0.613,8.059 0.653,8.172 1.258,16.699 2.492,34.75 5.008,74.23 9.992,160.43 1.222,20.149 1.235,20.191 2.469,40.199 4.921,78.871 0.61,9.61 0.617,9.57 1.231,18.93 2.46,36.89 4.887,69.051 0.613,8.119 0.618,7.99 1.23,15.56 2.473,29.41 0.613,6.98 0.613,6.82 1.235,13.16 2.461,24.26 0.601,5.62 0.625,5.45 1.235,10.34 0.601,4.86 0.59,4.69 1.227,8.79 0.625,4.07 0.609,3.9 0.613,3.69 0.613,3.46 0.618,3.27 0.617,3.06 1.226,5.45 0.598,2.25 0.559,2.05 0.586,1.87 0.546,1.68 0.583,1.49 0.558,1.29 0.598,1.09 0.586,0.87 0.547,0.71 0.586,0.49 0.554,0.33 0.586,0.08 0.567,-0.08 0.585,-0.3 0.555,-0.49 0.586,-0.71 0.59,-0.9 0.547,-1.09 0.594,-1.29 0.554,-1.52 0.586,-1.7 0.551,-1.87 0.586,-2.12 0.555,-2.31 0.593,-2.49 0.586,-2.7 0.547,-2.89 0.586,-3.08 0.559,-3.28 0.586,-3.49 1.152,-7.53 0.574,-4.08 0.571,-4.24 1.128,-9.05 0.598,-4.84 0.559,-4.98 1.132,-10.54 0.583,-5.54 0.585,-5.71 1.157,-11.96 2.273,-25.92 0.567,-6.92 0.585,-7.03 1.141,-14.58 2.285,-30.92 4.59,-68.292 0.625,-9.816 0.609,-9.992 1.266,-20.27 2.465,-41.898 4.969,-87.774 0.617,-11.219 0.613,-11.281 1.262,-22.668 2.488,-45.551 4.949,-90.738 0.649,-11.191 0.613,-11.102 1.238,-22.09 2.493,-43.218 0.617,-10.571 0.613,-10.488 1.262,-20.629 2.488,-39.75 0.613,-9.613 0.618,-9.438 1.23,-18.422 2.488,-34.871 0.61,-8.258 0.652,-8.058 1.223,-15.551 2.5,-28.621 0.586,-6.191 0.543,-5.969 1.171,-11.371 0.598,-5.36 0.586,-5.16 1.145,-9.699 0.585,-4.512 0.575,-4.269 0.586,-4.078 0.566,-3.86 0.586,-3.609 0.574,-3.402 1.176,-6.059 0.555,-2.699 0.586,-2.43 0.593,-2.191 0.586,-1.969 0.586,-1.731 0.547,-1.492 0.59,-1.23 0.586,-0.969 0.586,-0.762 0.594,-0.468 0.554,-0.258 0.586,0.027 0.586,0.262 0.59,0.5 0.574,0.758 0.567,1 0.586,1.293 0.585,1.488 0.579,1.762 0.586,2.019 0.566,2.258 0.574,2.519 0.586,2.75 0.598,3.024 0.586,3.25 0.547,3.488 1.168,7.731 0.585,4.218 0.586,4.45 1.157,9.64 0.586,5.16 0.586,5.391 1.128,11.48 0.586,6.071 0.586,6.289 1.172,13.25 0.571,6.941 0.582,7.149 1.171,14.91 2.305,32.14 0.567,8.352 0.585,8.496 1.133,17.512 2.27,36.89 4.527,80.301 9.117,177.34 0.547,11.418 0.586,11.43 1.152,22.84 2.247,45.543 4.57,88.878 0.566,10.782 0.547,10.699 1.153,21.09 2.285,40.84 4.531,74.999 0.625,9.37 0.605,9.18 1.231,17.64 0.625,8.48 0.605,8.24 1.231,15.77 0.644,7.5 0.625,7.22 1.231,13.7 0.605,6.44 0.625,6.14 1.229,11.47 0.61,5.3 0.62,4.98 0.61,4.68 0.62,4.4 0.61,4.11 0.62,3.75 0.61,3.48 0.62,3.13 0.61,2.81 0.64,2.52 0.63,2.17 0.61,1.85 0.62,1.53 0.61,1.19 0.62,0.85 0.61,0.52 0.62,0.21 0.61,-0.11 0.62,-0.5 0.61,-0.8 0.62,-1.13 0.61,-1.46 0.62,-1.83 0.61,-2.14 0.62,-2.48 0.61,-2.82 0.62,-3.14 0.65,-3.45 0.6,-3.8 0.63,-4.13 1.23,-9.21 0.6,-5.1 0.63,-5.38 1.23,-11.72 0.61,-6.33 0.62,-6.65 1.23,-14.12 0.61,-7.53 0.62,-7.8 1.23,-16.4 2.48,-36 0.57,-9 0.58,-9.2 1.14,-18.98 2.32,-40.271 4.59,-88.199 9.2,-195.149 0.59,-12.511 0.58,-12.481 1.15,-24.898 2.31,-49.34 4.61,-95.012 0.55,-11.39 0.58,-11.231 1.15,-22.058 2.31,-42.122 0.58,-10.078 0.57,-9.898 1.17,-19.192 2.29,-35.75 0.6,-9.05 0.65,-8.758 1.23,-16.613 0.64,-7.848 0.63,-7.563 1.25,-14.089 0.62,-6.559 0.61,-6.25 0.62,-5.852 0.65,-5.539 0.6,-5.16 0.63,-4.801 0.64,-4.457 0.61,-4.101 0.62,-3.692 0.63,-3.339 0.62,-2.957 0.63,-2.551 0.62,-2.192 0.63,-1.82 0.62,-1.41 0.63,-1.02 0.62,-0.621 0.63,-0.226 0.62,0.148 0.61,0.551 0.64,0.937 0.63,1.352 0.6,1.73 0.65,2.129 0.62,2.52 0.61,2.93 0.64,3.312 0.63,3.699 0.6,4.071 0.61,4.449 1.27,10.082 0.6,5.59 0.67,5.949 1.21,13.039 0.62,7.031 0.65,7.41 1.23,15.821 0.64,8.41 0.61,8.758 1.27,18.461 2.48,40.519 0.62,10.84 0.61,11.129 1.27,22.973 2.48,48.808 0.62,12.512 0.61,12.68 1.23,25.867 2.44,53.551 4.92,111.832 0.61,14.199 0.59,14.219 1.23,28.449 2.46,56.48 4.9,108.961 0.6,13 0.63,12.84 1.23,25.129 2.42,47.73 0.63,11.361 0.6,11.08 1.23,21.38 2.48,39.3 0.61,9.04 0.58,8.71 1.24,16.43 0.6,7.71 0.63,7.32 1.23,13.6 0.6,6.21 0.63,5.85 0.6,5.46 0.63,5.06 0.58,4.67 0.61,4.27 0.62,3.84 0.61,3.46 0.59,2.83 0.56,2.47 0.59,2.1 0.54,1.76 0.59,1.38 0.57,1 0.58,0.62 0.55,0.25 0.59,-0.11 0.56,-0.5 0.59,-0.87 0.54,-1.25 0.59,-1.6 0.57,-2.02 0.58,-2.34 0.55,-2.77 0.59,-3.1 0.56,-3.48 0.59,-3.84 0.54,-4.22 0.59,-4.57 0.57,-4.92 1.13,-10.92 0.59,-5.99 0.56,-6.32 1.14,-13.69 0.58,-7.35 0.57,-7.65 1.13,-16.28 0.59,-8.59 0.56,-8.9 1.14,-18.69 2.28,-40.73 0.59,-10.8 0.56,-11.079 1.14,-22.863 2.28,-48.207 0.59,-12.543 0.56,-12.726 1.14,-25.891 2.28,-53.441 4.57,-111.059 1.23,-30.531 1.27,-30.43 2.46,-60.328 0.65,-14.883 0.6,-14.769 1.23,-29.122 2.5,-56.308 0.61,-13.59 0.62,-13.359 1.23,-26.02 2.48,-48.781 0.63,-11.449 0.6,-11.141 1.24,-21.262 0.62,-10.109 0.64,-9.758 1.24,-18.34 0.6,-8.609 0.63,-8.172 0.6,-7.801 0.63,-7.347 0.64,-6.942 0.61,-6.48 1.23,-11.692 0.62,-5.16 0.61,-4.68 0.64,-4.25 0.63,-3.75 0.6,-3.308 0.63,-2.809 0.6,-2.32 0.63,-1.84 0.6,-1.351 0.65,-0.879 0.62,-0.379 0.61,0.117 0.62,0.609 0.61,1.09 0.62,1.613 0.61,2.079 0.64,2.57 0.63,3.082 0.6,3.547 0.63,4.043 0.6,4.508 0.63,4.98 0.61,5.48 0.64,5.95 0.57,5.941 0.58,6.359 1.17,13.891 0.55,7.527 0.59,7.883 1.17,16.899 0.56,9 0.59,9.308 1.17,19.692 2.29,43.211 0.58,11.55 0.59,11.797 1.13,24.442 2.33,51.761 4.63,112.481 0.58,14.637 0.59,14.773 1.13,29.699 2.32,59.918 4.63,118.821 0.59,14.48 0.59,14.352 1.13,28.308 2.32,54.488 0.59,13.122 0.58,12.89 1.14,25.02 2.32,46.79 0.55,10.76 0.58,10.42 1.12,19.9 0.58,9.43 0.57,9.1 1.13,17.15 0.57,8 0.58,7.64 0.55,7.27 0.57,6.85 0.58,6.45 0.55,6.06 1.15,10.87 0.55,4.78 0.57,4.39 0.58,3.93 0.55,3.51 0.57,3.06 0.58,2.63 0.55,2.16 0.57,1.74 0.58,1.26 0.55,0.81 0.58,0.38 0.57,-0.11 0.55,-0.53 0.58,-1.03 0.57,-1.43 0.55,-1.93 0.58,-2.37 0.57,-2.83 0.55,-3.27 0.58,-3.72 0.57,-4.16 0.54,-4.6 0.59,-5.07 0.57,-5.47 0.56,-5.89 0.57,-6.36 1.15,-13.93 0.55,-7.57 0.57,-7.98 1.13,-17.14 0.56,-9.14 0.59,-9.51 1.11,-20.11 2.29,-44.29 0.55,-11.87 0.56,-12.151 1.14,-25.137 2.28,-53.352 0.63,-15.09 0.6,-15.32 1.23,-31.262 2.46,-64.597 4.92,-133.313 0.63,-16.656 0.6,-16.641 1.24,-32.992 2.46,-64.48 0.62,-15.707 0.61,-15.473 1.23,-30.258 2.46,-57.301 0.62,-13.539 0.61,-13.211 1.23,-25.289 0.62,-12.101 0.61,-11.66 1.23,-22.059 0.62,-10.402 0.61,-9.899 0.63,-9.429 0.6,-8.969 0.63,-8.492 0.6,-7.969 1.23,-14.391 0.63,-6.379 0.6,-5.859 0.44,-3.781"
         style="fill:none;stroke:#3871c1;stroke-width:5;stroke-linecap:butt;stroke-linejoin:miter;stroke-miterlimit:3.25;stroke-dasharray:30.0276, 20.0184;stroke-dashoffset:0;stroke-opacity:1"
         transform="matrix(0.13333333,0,0,-0.13333333,0,353.8)" />
      <path
         id="path21"
         d="m 1328.14,208.891 0.09,-0.582 0.6,-3.629 0.63,-3.078 0.6,-2.493 0.63,-1.898 0.62,-1.32 0.61,-0.731 0.6,-0.148 0.63,0.437 0.6,1.02 0.63,1.609 0.61,2.231 0.56,2.582 0.59,3.078 0.49,3.203"
         style="fill:none;stroke:#3871c1;stroke-width:5;stroke-linecap:butt;stroke-linejoin:miter;stroke-miterlimit:3.25;stroke-dasharray:none;stroke-opacity:1"
         transform="matrix(0.13333333,0,0,-0.13333333,0,353.8)" />
      <path
         id="path22"
         d="m 1339.02,229.02 0.54,5.98 0.58,6.531 0.57,7 1.17,15.438 0.55,8.383 0.58,8.847 1.16,18.961 0.58,10.102 0.55,10.519 1.15,22.18 2.3,48.789 0.57,13.02 0.59,13.359 1.13,27.57 2.29,58.223 0.58,15.109 0.59,15.297 1.15,31.141 2.28,63.812 4.59,130.199 0.59,16.161 0.57,16.089 1.13,31.848 2.32,61.992 0.55,15.02 0.59,14.832 1.15,28.906 2.28,54.531 0.65,13.911 0.6,13.51 1.23,25.76 0.65,12.2 0.62,11.73 1.23,21.97 0.65,10.22 0.6,9.7 0.63,9.15 0.61,8.57 0.64,8.04 0.62,7.44 0.61,6.85 0.63,6.27 0.41,3.87"
         style="fill:none;stroke:#3871c1;stroke-width:5;stroke-linecap:butt;stroke-linejoin:miter;stroke-miterlimit:3.25;stroke-dasharray:30.0033, 20.0022;stroke-dashoffset:0;stroke-opacity:1"
         transform="matrix(0.13333333,0,0,-0.13333333,0,353.8)" />
      <path
         id="path23"
         d="m 1383.35,1177.97 0.19,1.27 0.61,3.77 0.62,3.14 0.65,2.49 0.6,1.85 0.63,1.2 0.6,0.56 0.65,-0.12 0.62,-0.76 0.61,-1.41 0.62,-2.05 0.65,-2.73 0.6,-3.36 0.54,-3.42"
         style="fill:none;stroke:#3871c1;stroke-width:5;stroke-linecap:butt;stroke-linejoin:miter;stroke-miterlimit:3.25;stroke-dasharray:none;stroke-opacity:1"
         transform="matrix(0.13333333,0,0,-0.13333333,0,353.8)" />
      <path
         id="path24"
         d="m 1393.82,1158.51 0.29,-3.09 0.62,-7.17 0.65,-7.75 1.23,-17.31 0.6,-9.52 0.63,-10.07 1.25,-21.81 0.62,-11.68 0.61,-12.19 1.27,-25.88 0.6,-13.61 0.63,-14.07 1.25,-29.38 2.5,-63.23 4.98,-139.41 0.58,-17 0.55,-17.07 1.17,-34.321 2.33,-68.668 0.58,-17.082 0.59,-16.961 1.17,-33.629 2.31,-65.39 0.58,-15.848 0.59,-15.59 1.15,-30.383 0.59,-14.769 0.58,-14.41 1.17,-27.86 0.59,-13.39 0.55,-13.008 1.17,-24.75 0.58,-11.75 0.59,-11.281 1.15,-21.211 0.59,-9.848 0.58,-9.371 0.59,-8.852 0.59,-8.316 0.58,-7.793 0.55,-7.238 0.58,-6.711 0.59,-6.121 0.51,-4.77"
         style="fill:none;stroke:#3871c1;stroke-width:5;stroke-linecap:butt;stroke-linejoin:miter;stroke-miterlimit:3.25;stroke-dasharray:30.0181, 20.0121;stroke-dashoffset:0;stroke-opacity:1"
         transform="matrix(0.13333333,0,0,-0.13333333,0,353.8)" />
      <path
         id="path25"
         d="m 1436.5,209.02 0.03,-0.18 0.56,-3.809 0.59,-3.203 0.59,-2.566 0.58,-1.973 0.59,-1.367 0.58,-0.762 0.55,-0.148 0.59,0.5 0.58,1.078 0.59,1.699 0.59,2.313 0.58,2.929 0.57,3.551 0.31,2.219"
         style="fill:none;stroke:#3871c1;stroke-width:5;stroke-linecap:butt;stroke-linejoin:miter;stroke-miterlimit:3.25;stroke-dasharray:none;stroke-opacity:1"
         transform="matrix(0.13333333,0,0,-0.13333333,0,353.8)" />
      <path
         id="path26"
         d="m 1446.59,229.172 0.41,4.598 0.56,7.089 1.16,15.891 0.56,8.57 0.59,9.11 1.13,19.75 0.57,10.601 0.58,11.078 1.14,23.493 0.56,12.429 0.55,12.828 1.15,26.832 2.29,58.039 0.58,15.321 1.7,47.578 2.29,66.512 4.53,138.75 0.58,17.461 0.57,17.429 1.13,34.629 2.29,67.762 0.57,16.519 0.58,16.289 1.15,31.872 2.25,60.296 0.59,14.243 0.54,13.879 1.15,26.57 0.59,12.66 0.55,12.23 1.15,23.05 0.55,10.8 0.58,10.35 0.57,9.79 0.59,9.28 0.54,8.73 0.59,8.21 0.56,7.65 0.55,7.05 0.65,7.01 0.62,6.32 0.04,0.33"
         style="fill:none;stroke:#3871c1;stroke-width:5;stroke-linecap:butt;stroke-linejoin:miter;stroke-miterlimit:3.25;stroke-dasharray:29.9941, 19.996;stroke-dashoffset:0;stroke-opacity:1"
         transform="matrix(0.13333333,0,0,-0.13333333,0,353.8)" />
      <path
         id="path27"
         d="m 1487.63,1177.98 0.03,0.27 0.61,4.15 0.62,3.45 0.61,2.74 0.62,1.95 0.61,1.23 0.62,0.5 0.61,-0.25 0.64,-1.01 0.63,-1.76 0.6,-2.51 0.63,-3.23 0.6,-3.97 0.19,-1.38"
         style="fill:none;stroke:#3871c1;stroke-width:5;stroke-linecap:butt;stroke-linejoin:miter;stroke-miterlimit:3.25;stroke-dasharray:none;stroke-opacity:1"
         transform="matrix(0.13333333,0,0,-0.13333333,0,353.8)" />
      <path
         id="path28"
         d="m 1497.35,1158.28 0.17,-1.95 0.63,-7.59 0.6,-8.26 1.27,-18.58 0.61,-10.28 0.62,-10.89 1.24,-23.69 0.6,-12.74 0.63,-13.3 1.23,-28.24 0.6,-14.88 0.65,-15.38 1.23,-32.109 2.46,-69.051 4.96,-151.168 0.6,-19.582 1.86,-58.879 2.46,-77.789 0.65,-19.133 0.6,-18.918 1.23,-37.152 2.46,-70.688 0.59,-15.652 0.58,-15.289 1.16,-29.391 0.58,-14.058 0.57,-13.621 1.15,-25.84 0.57,-12.16 0.58,-11.629 1.14,-21.68 0.58,-9.961 0.59,-9.41 1.15,-17.02 0.59,-7.558 0.58,-6.942 0.57,-6.3 0.24,-2.45"
         style="fill:none;stroke:#3871c1;stroke-width:5;stroke-linecap:butt;stroke-linejoin:miter;stroke-miterlimit:3.25;stroke-dasharray:30.0022, 20.0015;stroke-dashoffset:0;stroke-opacity:1"
         transform="matrix(0.13333333,0,0,-0.13333333,0,353.8)" />
      <path
         id="path29"
         d="m 1537.07,209.141 0.34,-2.59 0.58,-3.629 0.59,-2.961 0.55,-2.289 0.58,-1.582 0.59,-0.879 0.56,-0.199 0.59,0.5 0.59,1.199 0.54,1.91 0.61,2.57 0.56,3.278 0.57,3.961 0.12,0.922"
         style="fill:none;stroke:#3871c1;stroke-width:5;stroke-linecap:butt;stroke-linejoin:miter;stroke-miterlimit:3.25;stroke-dasharray:none;stroke-opacity:1"
         transform="matrix(0.13333333,0,0,-0.13333333,0,353.8)" />
      <path
         id="path30"
         d="m 1546.48,229.25 0.15,1.789 0.58,7.332 0.59,7.938 0.56,8.582 0.59,9.199 1.13,20.238 0.61,10.992 0.56,11.571 1.16,24.789 0.58,13.152 0.55,13.68 1.17,28.769 2.33,62.641 4.59,140.738 0.62,20.129 0.65,20.242 1.23,40.84 2.52,81.949 0.6,20.328 0.63,20.211 1.25,39.879 2.5,76.762 0.64,18.359 0.61,17.969 1.27,34.594 0.6,16.617 0.63,16.041 1.25,30.51 0.62,14.39 0.65,13.7 0.6,13.1 0.63,12.42 0.64,11.72 0.61,11.01 1.27,19.81 0.6,8.76 0.63,7.97 0.64,7.15 0.28,2.95"
         style="fill:none;stroke:#3871c1;stroke-width:5;stroke-linecap:butt;stroke-linejoin:miter;stroke-miterlimit:3.25;stroke-dasharray:29.9885, 19.9923;stroke-dashoffset:0;stroke-opacity:1"
         transform="matrix(0.13333333,0,0,-0.13333333,0,353.8)" />
      <path
         id="path31"
         d="m 1584.89,1178.01 0.51,3.69 0.6,3.83 0.63,2.97 0.64,2.13 0.61,1.26 0.62,0.38 0.65,-0.47 0.6,-1.34 0.63,-2.22 0.64,-3.08 0.61,-3.96 0.42,-3.24"
         style="fill:none;stroke:#3871c1;stroke-width:5;stroke-linecap:butt;stroke-linejoin:miter;stroke-miterlimit:3.25;stroke-dasharray:none;stroke-opacity:1"
         transform="matrix(0.13333333,0,0,-0.13333333,0,353.8)" />
      <path
         id="path32"
         d="m 1594.03,1158.07 0.1,-1.16 0.64,-8.14 0.61,-8.93 1.27,-20.26 0.6,-11.25 0.63,-12 1.25,-26.14 0.62,-14.06 0.65,-14.73 1.23,-31.29 0.6,-16.231 0.63,-16.731 1.23,-34.898 2.46,-74.762 4.88,-162.066 0.63,-20.774 0.6,-20.738 1.23,-41.34 2.46,-81.011 0.63,-19.688 0.6,-19.391 1.23,-37.789 2.44,-70.609 0.61,-16.434 0.63,-15.878 1.23,-30.02 0.6,-14.078 0.63,-13.41 1.23,-24.762 0.6,-11.309 0.63,-10.543 0.6,-9.789 0.63,-8.988 0.6,-8.211 0.63,-7.379 0.35,-3.992"
         style="fill:none;stroke:#3871c1;stroke-width:5;stroke-linecap:butt;stroke-linejoin:miter;stroke-miterlimit:3.25;stroke-dasharray:29.9854, 19.9903;stroke-dashoffset:0;stroke-opacity:1"
         transform="matrix(0.13333333,0,0,-0.13333333,0,353.8)" />
      <path
         id="path33"
         d="m 1631.27,209.352 0.41,-3.211 0.61,-3.981 0.63,-3.109 0.6,-2.223 0.63,-1.379 0.6,-0.437 0.63,0.41 0.6,1.328 0.63,2.18 0.6,3.109 0.63,3.961 0.41,3.32"
         style="fill:none;stroke:#3871c1;stroke-width:5;stroke-linecap:butt;stroke-linejoin:miter;stroke-miterlimit:3.25;stroke-dasharray:none;stroke-opacity:1"
         transform="matrix(0.13333333,0,0,-0.13333333,0,353.8)" />
      <path
         id="path34"
         d="m 1640.18,229.211 0.12,1.34 0.58,8.258 0.59,8.441 0.59,9.141 1.13,20.328 0.56,11.16 0.59,11.812 1.13,25.457 0.57,13.59 0.59,14.184 1.13,29.969 2.3,65.679 0.57,17.461 0.57,17.848 1.13,36.652 2.28,76.457 4.61,158.59 0.55,19.742 0.59,19.629 1.15,38.731 2.28,74.609 0.55,17.91 0.59,17.492 1.15,33.809 2.28,62 0.59,14.17 0.55,13.59 1.15,25.35 0.59,11.74 0.54,11.05 1.15,20.07 0.59,8.96 0.59,8.24 0.54,7.5 0.59,6.73 0.06,0.66"
         style="fill:none;stroke:#3871c1;stroke-width:5;stroke-linecap:butt;stroke-linejoin:miter;stroke-miterlimit:3.25;stroke-dasharray:29.9706, 19.9804;stroke-dashoffset:0;stroke-opacity:1"
         transform="matrix(0.13333333,0,0,-0.13333333,0,353.8)" />
      <path
         id="path35"
         d="m 1676.33,1177.5 0.06,0.53 0.55,4.4 0.58,3.57 0.63,2.99 0.6,2.02 0.63,1.08 0.64,0.13 0.61,-0.85 0.62,-1.83 0.61,-2.78 0.63,-3.72 0.6,-4.65 0.08,-0.72"
         style="fill:none;stroke:#3871c1;stroke-width:5;stroke-linecap:butt;stroke-linejoin:miter;stroke-miterlimit:3.25;stroke-dasharray:none;stroke-opacity:1"
         transform="matrix(0.13333333,0,0,-0.13333333,0,353.8)" />
      <path
         id="path36"
         d="m 1685.03,1157.78 0.56,-7.4 0.61,-9.28 0.64,-10.14 0.63,-10.99 0.6,-11.84 0.63,-12.63 1.23,-27.62 0.64,-14.94 0.61,-15.64 1.23,-33.26 0.62,-17.579 0.65,-18.172 1.23,-37.93 2.48,-81.179 0.62,-21.192 0.61,-21.468 1.23,-43.559 2.5,-88.539 0.6,-22.172 0.63,-22.09 1.25,-43.769 2.5,-84.789 0.6,-20.364 0.63,-19.949 1.23,-38.469 0.61,-18.461 0.64,-17.898 1.23,-33.891 0.63,-15.941 0.6,-15.258 0.65,-14.48 0.62,-13.743 0.61,-12.918 0.62,-12.101 1.23,-21.59 0.59,-8.867 0.58,-8.063 0.59,-7.269 0.28,-3.051"
         style="fill:none;stroke:#3871c1;stroke-width:5;stroke-linecap:butt;stroke-linejoin:miter;stroke-miterlimit:3.25;stroke-dasharray:29.9738, 19.9826;stroke-dashoffset:0;stroke-opacity:1"
         transform="matrix(0.13333333,0,0,-0.13333333,0,353.8)" />
      <path
         id="path37"
         d="m 1720.25,209.34 0.46,-3.731 0.6,-3.859 0.57,-3.02 0.57,-2.109 0.58,-1.262 0.59,-0.347 0.58,0.5 0.59,1.398 0.55,2.289 0.58,3.172 0.59,4.039 0.36,3.031"
         style="fill:none;stroke:#3871c1;stroke-width:5;stroke-linecap:butt;stroke-linejoin:miter;stroke-miterlimit:3.25;stroke-dasharray:none;stroke-opacity:1"
         transform="matrix(0.13333333,0,0,-0.13333333,0,353.8)" />
      <path
         id="path38"
         d="m 1728.69,229.328 0.14,1.832 0.59,8.289 0.58,9.11 1.14,20.57 0.58,11.449 0.59,12.192 1.15,26.519 0.59,14.293 0.58,14.938 1.14,31.699 0.58,16.73 0.59,17.301 1.15,36.02 2.31,77.14 4.66,166.641 0.55,21.269 0.59,21.211 1.17,42.219 2.32,82.328 0.59,19.922 0.55,19.59 1.17,38.031 2.32,70.489 0.55,15.94 0.58,15.38 1.16,28.89 0.54,13.47 0.57,12.78 1.13,23.4 0.59,10.6 0.56,9.82 0.55,9.03 0.59,8.2 0.56,7.41 0.35,3.87"
         style="fill:none;stroke:#3871c1;stroke-width:5;stroke-linecap:butt;stroke-linejoin:miter;stroke-miterlimit:3.25;stroke-dasharray:29.9748, 19.9832;stroke-dashoffset:0;stroke-opacity:1"
         transform="matrix(0.13333333,0,0,-0.13333333,0,353.8)" />
      <path
         id="path39"
         d="m 1763.01,1177.84 0.39,3.33 0.59,3.99 0.55,3.11 0.56,2.22 0.59,1.34 0.55,0.44 0.58,-0.44 0.57,-1.34 0.54,-2.22 0.59,-3.11 0.57,-4.02 0.39,-3.27"
         style="fill:none;stroke:#3871c1;stroke-width:5;stroke-linecap:butt;stroke-linejoin:miter;stroke-miterlimit:3.25;stroke-dasharray:none;stroke-opacity:1"
         transform="matrix(0.13333333,0,0,-0.13333333,0,353.8)" />
      <path
         id="path40"
         d="m 1771.25,1157.96 0.12,-1.52 0.57,-8.29 0.55,-9.11 0.58,-9.93 0.55,-10.72 1.15,-23.7 0.55,-12.98 0.58,-13.69 1.16,-29.35 0.54,-15.65 0.57,-16.26 1.13,-34.151 2.29,-74.277 0.56,-19.594 0.55,-19.949 1.15,-40.789 2.29,-84.051 4.55,-169.449 0.6,-22.289 0.61,-21.981 1.23,-42.769 0.62,-20.711 0.61,-20.191 1.23,-38.727 0.63,-18.434 0.6,-17.718 1.23,-33.282 0.63,-15.5 0.6,-14.617 1.23,-26.691 0.63,-11.981 0.6,-11.019 0.65,-10.051 0.62,-9.051 0.61,-8.027 0.18,-2.082"
         style="fill:none;stroke:#3871c1;stroke-width:5;stroke-linecap:butt;stroke-linejoin:miter;stroke-miterlimit:3.25;stroke-dasharray:29.9745, 19.983;stroke-dashoffset:0;stroke-opacity:1"
         transform="matrix(0.13333333,0,0,-0.13333333,0,353.8)" />
      <path
         id="path41"
         d="m 1804.75,209.43 0.1,-0.918 0.62,-4.864 0.61,-3.808 0.62,-2.719 0.61,-1.609 0.62,-0.5 0.61,0.578 0.63,1.672 0.6,2.82 0.63,3.859 0.6,4.981 0.06,0.558"
         style="fill:none;stroke:#3871c1;stroke-width:5;stroke-linecap:butt;stroke-linejoin:miter;stroke-miterlimit:3.25;stroke-dasharray:none;stroke-opacity:1"
         transform="matrix(0.13333333,0,0,-0.13333333,0,353.8)" />
      <path
         id="path42"
         d="m 1812.79,229.379 0.07,0.871 0.6,9.199 0.63,10.199 0.6,11.223 0.63,12.16 0.6,13.117 0.63,14.032 1.23,30.679 0.6,16.582 0.63,17.34 1.25,36.918 0.62,19.481 0.61,20.07 1.23,41.859 2.46,89.071 4.92,188.23 0.59,21.918 0.56,21.703 1.18,42.739 2.28,81.66 0.59,19.359 0.54,18.871 1.18,36.06 0.56,17.15 0.59,16.49 1.13,30.94 0.59,14.38 0.56,13.59 0.59,12.81 0.59,11.98 0.54,11.13 0.59,10.25 0.57,9.37 0.58,8.44 0.59,7.53 0.08,0.99"
         style="fill:none;stroke:#3871c1;stroke-width:5;stroke-linecap:butt;stroke-linejoin:miter;stroke-miterlimit:3.25;stroke-dasharray:29.9673, 19.9782;stroke-dashoffset:0;stroke-opacity:1"
         transform="matrix(0.13333333,0,0,-0.13333333,0,353.8)" />
      <path
         id="path43"
         d="m 1845.5,1177.72 0.13,1.25 0.59,4.64 0.56,3.65 0.59,2.67 0.58,1.67 0.55,0.67 0.59,-0.35 0.56,-1.34 0.59,-2.34 0.59,-3.35 0.54,-4.34 0.3,-2.66"
         style="fill:none;stroke:#3871c1;stroke-width:5;stroke-linecap:butt;stroke-linejoin:miter;stroke-miterlimit:3.25;stroke-dasharray:none;stroke-opacity:1"
         transform="matrix(0.13333333,0,0,-0.13333333,0,353.8)" />
      <path
         id="path44"
         d="m 1853.37,1158 0.33,-4.54 0.54,-9.14 0.59,-10.08 0.59,-10.95 0.56,-11.85 0.59,-12.71 1.13,-27.83 0.59,-15.1 0.56,-15.81 1.17,-33.78 2.29,-74.972 0.59,-20.066 0.54,-20.512 1.17,-42.238 2.29,-87.981 0.66,-25.082 0.63,-25.218 1.29,-50.512 2.56,-99.547 0.64,-24.203 0.65,-23.82 1.28,-46.168 2.58,-84.93 0.65,-19.371 0.64,-18.512 0.65,-17.609 0.6,-16.637 0.65,-15.684 0.64,-14.617 0.65,-13.531 0.64,-12.449 0.64,-11.281 0.65,-10.141 0.64,-8.899 0.21,-2.46"
         style="fill:none;stroke:#3871c1;stroke-width:5;stroke-linecap:butt;stroke-linejoin:miter;stroke-miterlimit:3.25;stroke-dasharray:29.9613, 19.9742;stroke-dashoffset:0;stroke-opacity:1"
         transform="matrix(0.13333333,0,0,-0.13333333,0,353.8)" />
      <path
         id="path45"
         d="m 1885.36,209.82 0.17,-1.718 0.65,-5.18 0.62,-3.871 0.65,-2.61 0.64,-1.281"
         style="fill:none;stroke:#3871c1;stroke-width:5;stroke-linecap:butt;stroke-linejoin:miter;stroke-miterlimit:3.25;stroke-dasharray:none;stroke-opacity:1"
         transform="matrix(0.13333333,0,0,-0.13333333,0,353.8)" />
      <path
         id="path46"
         d="m 37.7305,697.711 h 0.5859 l 0.5859,0.027 h 0.5508 l 0.5938,0.032 0.5586,0.031 0.582,0.027 0.5859,0.063 0.5547,0.058 0.5821,0.051 0.5664,0.07 0.5859,0.078 0.5508,0.102 1.1719,0.172 1.1484,0.199 0.5547,0.117 0.582,0.153 1.1445,0.257 0.5782,0.141 0.5664,0.152 1.1406,0.321 0.5859,0.179 0.586,0.207 1.1367,0.372 2.2891,0.859 0.582,0.23 0.5547,0.231 1.1484,0.512 2.3125,1.078 0.5664,0.289 0.5781,0.293 1.1446,0.617 2.2851,1.293 0.586,0.348 0.5547,0.351 1.1679,0.738 2.2891,1.52 4.5976,3.371 1.2305,1 1.2383,1.012 2.4883,2.168 4.9844,4.691 1.2578,1.258 1.2304,1.293 2.4922,2.668 4.9766,5.699 0.6172,0.77 0.6093,0.742 1.2657,1.551 2.4843,3.187 4.9532,6.832 9.961,15.289 1.168,1.942 1.148,1.949 2.34,3.969 4.625,8.281 9.297,17.75 0.586,1.179 0.582,1.141 1.141,2.367 2.347,4.75 4.625,9.782 9.289,20.48 0.578,1.289 0.571,1.32 1.137,2.61 2.289,5.281 4.535,10.949 9.113,23.321 18.227,50.332 39.515,111.038 0.586,1.63 0.555,1.68 1.18,3.3 2.277,6.59 4.637,13.1 9.195,25.26 1.168,3.05 1.148,2.98 2.309,5.87 4.605,11.15 0.586,1.36 0.555,1.34 1.172,2.61 2.285,5.04 4.629,9.38 1.23,2.34 1.258,2.25 2.492,4.24 5.008,7.53 0.617,0.91 0.645,0.92 1.23,1.75 2.489,3.4 5.011,6.33 0.614,0.73 0.644,0.73 1.231,1.42 2.519,2.63 1.231,1.23 1.261,1.15 2.489,2.1 0.617,0.46 0.644,0.48 1.231,0.85 0.644,0.41 0.614,0.38 1.261,0.7 1.231,0.58 0.644,0.29 1.231,0.48 0.644,0.17 1.231,0.35 0.613,0.12 1.227,0.17 0.617,0.07 h 1.226 l 1.235,-0.07 0.613,-0.07 0.598,-0.13 1.226,-0.29 1.235,-0.41 1.222,-0.53 1.231,-0.64 1.23,-0.77 0.617,-0.43 0.614,-0.48 1.203,-1.01 0.613,-0.57 0.617,-0.58 1.231,-1.26 0.609,-0.7 0.613,-0.73 1.235,-1.56 0.613,-0.81 0.613,-0.89 1.243,-1.84 0.617,-0.97 0.586,-1.02 1.226,-2.12 0.617,-1.14 0.61,-1.17 1.23,-2.42 2.461,-5.26 1.231,-2.81 1.203,-2.96 2.457,-6.26 4.93,-14.07 0.55,-1.76 0.586,-1.78 1.145,-3.66 2.285,-7.63 4.562,-16.4 0.571,-2.16 0.586,-2.2 1.136,-4.46 2.29,-9.17 4.566,-19.47 0.586,-2.56 0.551,-2.55 1.152,-5.18 2.273,-10.63 4.614,-22.3 9.129,-48.489 0.625,-3.453 0.617,-3.496 1.258,-7.023 2.461,-14.36 4.98,-29.758 9.898,-67.769 0.645,-4.563 0.613,-4.609 1.231,-9.281 2.492,-18.91 4.949,-38.93 9.93,-80.301 0.594,-4.719 0.55,-4.711 1.172,-9.41 2.321,-18.718 4.625,-37 9.257,-70.372 0.578,-4.16 0.586,-4.129 1.149,-8.199 2.308,-15.941 4.641,-30.059 9.281,-58.828 1.11,-7.152 1.152,-7.149 2.273,-14.152 4.547,-27.539 0.559,-3.36 0.555,-3.339 1.148,-6.602 2.281,-12.918 4.543,-24.34 0.555,-2.902 0.555,-2.867 1.136,-5.602 2.293,-10.719 1.118,-5.101 1.136,-4.918 2.289,-9.262 0.555,-2.199 0.555,-2.133 1.136,-4.137 0.571,-1.961 0.578,-1.929 1.144,-3.692 0.551,-1.757 0.567,-1.672 1.136,-3.219 0.559,-1.5 0.586,-1.461 1.144,-2.699 0.618,-1.379 0.617,-1.25 0.613,-1.211 0.613,-1.141 0.617,-1.019 0.61,-0.969 0.617,-0.852 0.613,-0.789 0.618,-0.703 0.613,-0.617 0.617,-0.531 0.613,-0.442 0.617,-0.316 0.614,-0.262 0.617,-0.148 0.613,-0.051 0.617,0.02 0.614,0.148 0.617,0.231 0.613,0.32 0.617,0.441 0.61,0.5 0.617,0.617 0.613,0.704 0.613,0.82 0.618,0.879 0.617,0.969 0.613,1.082 0.613,1.136 0.625,1.231 1.235,2.73 0.613,1.492 0.613,1.579 1.235,3.402 0.613,1.816 0.609,1.871 1.231,4.02 0.617,2.141 0.613,2.191 1.231,4.598 2.492,10.082 0.613,2.668 0.617,2.75 1.231,5.711 2.461,12.16 4.926,27.101 0.586,3.399 0.55,3.429 1.145,6.973 2.312,14.469 4.602,30.738 9.203,67.199 0.551,4.403 0.586,4.418 1.136,8.882 2.293,17.93 4.594,36.469 0.586,4.57 0.598,4.602 1.137,9.226 2.289,18.582 4.593,40.75 0.618,5.891 0.644,5.937 1.231,12.161 2.488,25.14 4.98,52.84 9.992,110.781 0.614,6.942 0.617,6.918 1.258,13.8 2.492,27.239 4.98,52.59 0.614,6.332 0.617,6.269 1.258,12.328 2.492,23.793 4.98,43.389 0.61,4.9 0.617,4.76 1.199,9.21 0.613,4.46 0.625,4.33 1.235,8.25 0.613,3.97 0.613,3.83 1.2,7.23 0.613,3.43 0.617,3.29 1.23,6.15 0.614,2.84 0.617,2.69 0.586,2.56 0.613,2.37 0.617,2.23 0.614,2.1 1.226,3.85 0.613,1.75 0.618,1.65 0.586,1.58 0.625,1.43 0.617,1.35 0.613,1.26 0.613,1.14 0.618,1.06 0.617,0.95 0.613,0.86 0.582,0.76 0.613,0.64 0.618,0.57 0.613,0.46 0.617,0.38 0.613,0.29 0.617,0.18 0.614,0.09 0.586,0.03 0.617,-0.09 0.613,-0.17 0.617,-0.26 0.61,-0.36 0.617,-0.44 0.613,-0.53 0.586,-0.61 0.613,-0.71 0.625,-0.78 0.618,-0.89 0.617,-0.94 1.226,-2.17 0.618,-1.16 0.582,-1.29 1.23,-2.79 0.613,-1.52 0.617,-1.58 1.231,-3.43 1.137,-3.43 1.152,-3.72 2.246,-8.14 0.598,-2.2 0.551,-2.26 1.14,-4.68 2.285,-10.06 0.586,-2.66 0.559,-2.72 1.144,-5.57 2.282,-11.81 4.578,-26.02 0.551,-3.44 0.585,-3.52 1.11,-7.151 2.289,-14.828 4.562,-31.582 0.598,-4.129 0.551,-4.121 1.144,-8.437 2.286,-17.231 0.554,-4.391 0.586,-4.519 1.149,-9.473 2.246,-20.59 0.648,-5.949 0.617,-6.09 1.227,-12.57 2.461,-26.68 4.961,-58.48 9.894,-129.32 0.617,-8.289 0.614,-8.321 1.261,-16.609 2.461,-33.02 4.95,-64.281 0.617,-7.789 0.609,-7.711 1.231,-15.168 2.492,-29.332 4.961,-53.41 0.554,-5.707 0.583,-5.57 1.171,-10.75 0.551,-5.18 0.586,-5.043 1.149,-9.668 0.585,-4.602 0.586,-4.449 1.137,-8.41 0.598,-3.961 0.586,-3.801 1.136,-7.09 0.586,-3.289 0.551,-3.07 0.586,-2.898 0.598,-2.731 0.586,-2.519 0.55,-2.309 0.586,-2.141 0.586,-1.902 0.551,-1.73 0.598,-1.5 0.586,-1.34 0.551,-1.149 0.585,-1.019 0.586,-0.821 0.586,-0.679 0.551,-0.52 0.598,-0.359 0.586,-0.203 0.55,-0.059 0.586,0.09 0.586,0.23 0.578,0.411 0.571,0.531 0.586,0.668 0.578,0.832 0.558,0.93 0.586,1.089 0.586,1.231 0.551,1.34 0.598,1.468 1.164,3.34 0.558,1.852 0.586,1.957 1.149,4.281 0.586,2.309 0.578,2.429 1.144,5.161 0.586,2.75 0.578,2.839 1.157,6.012 2.3,13.09 0.618,3.809 0.644,3.902 1.231,8.059 2.519,17.218 4.981,38.121 0.644,5.071 0.613,5.09 1.262,10.378 2.488,21.274 5.012,44.09 20.016,174.367 0.609,5.711 0.613,5.781 1.235,11.899 2.469,24.718 4.921,52.524 0.61,6.777 0.617,6.789 1.231,13.684 2.46,27.539 4.887,54.961 0.613,6.789 0.618,6.75 1.23,13.359 2.473,26.11 0.613,6.378 0.613,6.301 1.235,12.41 2.461,23.801 0.601,5.711 0.625,5.629 1.235,10.92 2.418,20.43 0.625,4.8 0.609,4.65 1.226,8.91 2.461,16 0.598,3.37 0.559,3.21 1.132,5.98 0.583,2.78 0.558,2.62 1.184,4.71 0.547,2.11 0.586,1.94 0.554,1.75 0.586,1.56 0.567,1.4 0.585,1.2 0.555,1.03 0.586,0.85 0.59,0.61 0.547,0.44 0.594,0.24 0.554,0.03 0.586,-0.2 0.551,-0.39 0.586,-0.61 0.555,-0.85 0.593,-1.06 0.586,-1.29 0.547,-1.49 0.586,-1.81 0.559,-2.12 0.586,-2.37 0.566,-2.67 0.586,-2.93 0.574,-3.22 0.571,-3.49 1.128,-7.73 0.598,-4.24 0.559,-4.49 1.132,-9.67 0.583,-5.18 0.585,-5.39 1.157,-11.46 2.273,-25.22 0.567,-6.769 0.585,-6.942 1.141,-14.39 2.285,-30.61 4.59,-67.179 0.625,-9.61 0.609,-9.699 1.266,-19.621 2.465,-40.11 4.969,-81.769 0.617,-10.231 0.613,-10.191 1.262,-20.301 2.488,-40.019 4.949,-75.969 0.649,-8.969 0.613,-8.84 1.238,-17.203 2.493,-32.398 0.617,-7.649 0.613,-7.441 1.262,-14.238 2.488,-25.782 0.613,-5.832 0.618,-5.597 0.617,-5.301 0.613,-5.039 0.645,-4.742 0.617,-4.489 1.226,-8.019 0.61,-3.582 0.652,-3.219 0.613,-2.93 0.61,-2.582 0.625,-2.339 0.601,-2.11 0.649,-1.879 0.625,-1.64 0.586,-1.352 0.543,-1.168 0.585,-0.961 0.586,-0.789 0.598,-0.59 0.586,-0.441 0.559,-0.258 0.586,-0.09 0.585,0.09 0.575,0.258 0.586,0.41 0.566,0.59 0.586,0.73 0.574,0.891 0.586,1.012 0.59,1.199 0.555,1.32 0.586,1.469 0.593,1.609 0.586,1.762 0.586,1.867 0.547,2.024 1.176,4.398 0.586,2.371 0.594,2.52 1.14,5.328 2.317,12.012 0.586,3.257 0.585,3.364 1.165,6.988 2.324,14.93 4.629,33.34 0.586,4.421 0.586,4.481 1.128,9.09 2.344,18.629 4.629,38.41 0.567,4.738 0.585,4.781 1.133,9.489 2.27,18.941 4.527,36.809 9.117,64.632 0.547,3.43 0.586,3.488 1.152,7.09 2.247,14.871 4.57,31.828 9.082,67.793 0.625,4.629 0.605,4.602 1.231,9.137 2.461,18.019 0.644,4.422 0.625,4.359 1.231,8.672 2.459,16.707 0.61,4.043 0.62,3.981 1.23,7.758 2.46,14.652 0.61,3.488 0.64,3.379 1.24,6.5 2.46,11.859 0.62,2.692 0.61,2.609 1.23,4.871 0.62,2.25 0.61,2.141 1.23,3.898 0.62,1.75 0.61,1.641 0.62,1.5 0.65,1.352 0.6,1.199 0.63,1.078 0.6,0.91 0.63,0.762 0.6,0.621 0.63,0.469 0.6,0.32 0.63,0.141 0.61,-0.024 0.62,-0.207 0.61,-0.351 0.62,-0.52 0.61,-0.711 0.62,-0.879 0.61,-1.082 0.62,-1.258 0.61,-1.441 0.64,-1.641 0.63,-1.816 0.6,-2.051 0.57,-2.051 0.58,-2.25 0.59,-2.468 0.55,-2.782 0.58,-3.05 0.59,-3.34 1.15,-7.469 0.55,-4.09 0.58,-4.402 1.16,-9.489 0.58,-5.101 0.59,-5.301 1.13,-11.316 0.59,-5.973 0.56,-6.148 1.18,-12.922 2.28,-27.918 4.59,-62.903 0.59,-8.41 0.58,-8.5 1.15,-17.25 2.31,-35.386 4.61,-72.864 0.55,-9.168 0.58,-9.172 1.15,-18.289 2.31,-36.211 4.61,-69.546 0.6,-8.961 0.65,-8.879 1.23,-17.282 2.52,-32.64 0.62,-7.711 0.61,-7.527 1.27,-14.411 2.48,-26.101 0.62,-5.918 0.63,-5.66 0.62,-5.391 0.63,-5.09 0.62,-4.84 0.63,-4.511 1.25,-8.141 0.62,-3.578 0.63,-3.281 0.62,-2.93 0.61,-2.578 0.64,-2.223 0.63,-1.879 0.6,-1.488 0.65,-1.121 0.62,-0.731 0.61,-0.351 0.64,0.062 0.63,0.469 0.6,0.879 0.61,1.371 0.66,1.82 0.61,2.282 0.6,2.726 0.67,3.192 0.6,3.582 0.61,4.008 0.62,4.421 0.65,4.84 1.23,10.75 0.64,5.949 0.61,6.27 1.27,13.59 0.6,7.301 0.63,7.578 1.25,16.062 0.62,8.469 0.61,8.73 1.27,18.219 2.48,39.199 0.62,10.133 0.61,10.289 1.23,21.09 2.44,43.922 4.92,92.34 0.61,11.777 0.59,11.801 1.23,23.609 2.46,47.032 4.9,90.941 0.6,10.898 0.63,10.75 1.23,21.032 2.42,39.929 0.63,9.5 0.6,9.25 1.23,17.84 2.48,32.609 0.61,7.44 0.58,7.15 1.24,13.37 0.6,6.17 0.63,5.86 1.23,10.67 0.6,4.78 0.63,4.39 0.6,4.02 0.63,3.59 0.58,3.2 0.61,2.78 0.62,2.37 0.61,1.9 0.59,1.39 0.56,0.99 0.59,0.56 0.54,0.17 0.59,-0.26 0.57,-0.68 0.58,-1.05 0.55,-1.49 0.59,-1.84 0.56,-2.26 0.59,-2.61 0.54,-2.98 0.59,-3.35 0.57,-3.69 0.58,-4.04 0.55,-4.34 0.59,-4.69 0.56,-5.01 1.13,-10.9 0.59,-5.88 0.57,-6.19 1.13,-13.17 0.59,-6.98 0.56,-7.21 1.14,-15.172 2.28,-32.957 0.59,-8.73 0.56,-8.93 1.14,-18.383 2.28,-38.546 4.57,-82.68 9.14,-172.652 0.63,-11.418 0.6,-11.313 1.27,-22.32 2.46,-43.039 0.65,-10.371 0.6,-10.188 1.23,-19.781 2.5,-37.012 0.61,-8.637 0.62,-8.351 1.23,-15.93 0.61,-7.531 0.62,-7.238 1.25,-13.481 0.63,-6.238 0.6,-5.922 0.63,-5.531 0.61,-5.16 0.62,-4.797 0.64,-4.391 0.61,-4.019 0.63,-3.602 0.6,-3.168 0.63,-2.75 0.6,-2.32 0.63,-1.84 0.64,-1.41 0.61,-0.91 0.62,-0.442 0.61,0.059 0.62,0.5 0.61,0.972 0.64,1.399 0.63,1.851 0.6,2.278 0.63,2.672 0.6,3.109 0.63,3.48 0.6,3.872 0.65,4.277 0.62,4.601 0.61,4.981 0.62,5.301 0.61,5.648 1.23,12.281 0.64,6.618 0.63,6.882 1.23,14.649 2.48,32.351 0.57,8.11 0.58,8.289 1.17,17.082 2.31,36.098 4.61,77.902 0.58,10.129 0.59,10.168 1.13,20.48 2.33,41.301 4.63,82.039 0.58,10.051 0.59,9.992 1.13,19.68 2.32,38.117 0.59,9.223 0.59,9.089 1.13,17.731 2.32,33.398 0.59,7.871 0.59,7.68 1.13,14.68 0.58,7.019 0.59,6.782 1.15,12.796 0.59,6.012 0.58,5.738 0.55,5.454 0.59,5.179 0.58,4.867 0.61,4.572 1.13,8.23 0.55,3.54 0.58,3.23 0.57,2.9 0.55,2.55 0.58,2.22 0.57,1.85 0.59,1.5 0.54,1.13 0.57,0.77 0.58,0.35 h 0.55 l 0.57,-0.41 0.58,-0.8 0.55,-1.14 0.57,-1.49 0.58,-1.88 0.55,-2.19 0.57,-2.55 0.58,-2.87 0.55,-3.2 0.57,-3.51 0.58,-3.84 1.12,-8.532 0.58,-4.68 0.55,-4.976 1.15,-10.75 0.55,-5.75 0.58,-6 1.12,-12.75 0.58,-6.711 0.57,-6.922 1.13,-14.43 2.27,-31.199 4.53,-69.73 0.56,-9.258 0.59,-9.344 1.11,-18.988 2.29,-38.731 4.53,-79.07 0.63,-10.719 0.6,-10.672 1.23,-21.269 2.46,-41.688 0.63,-10.191 0.6,-10.078 1.23,-19.844 2.46,-37.906 0.63,-9.082 0.6,-8.871 1.24,-17.137 0.62,-8.262 0.61,-8.058 1.23,-15.352 0.62,-7.289 0.61,-7.07 1.23,-13.242 0.62,-6.207 0.61,-5.891 1.23,-10.84 0.62,-4.949 0.61,-4.57 0.62,-4.25 0.61,-3.872 0.62,-3.511 0.61,-3.137 0.62,-2.75 0.61,-2.344 0.62,-1.937 0.61,-1.492 0.63,-1.118 0.6,-0.64 0.63,-0.211 0.6,0.269 0.63,0.7 0.6,1.171 0.63,1.61 0.6,2.058 0.63,2.461 0.6,2.871 0.63,3.282 0.6,3.687 0.63,4.071 0.6,4.429 0.63,4.801 0.62,5.16 1.21,11.309 0.63,6.152 0.6,6.469 1.24,13.832 0.56,6.859 0.59,7.059 1.13,14.851 2.29,32.2 4.61,72.621 0.58,9.699 0.55,9.789 1.15,19.891 2.3,40.73 4.58,83.418 0.58,10.473 0.59,10.429 1.15,20.77 2.28,40.93 0.59,10.05 0.55,9.989 1.17,19.648 2.28,37.922 0.59,9.141 0.57,8.988 1.13,17.492 2.32,32.84 0.55,7.711 0.59,7.5 1.15,14.289 0.58,6.809 0.55,6.531 1.15,12.329 0.65,6.2 0.6,5.9 0.63,5.57 0.6,5.18 0.65,4.87 0.62,4.44 0.61,4.07 0.62,3.69 0.65,3.32 0.6,2.88 0.63,2.42 0.61,2.02 0.64,1.58 0.62,1.12 0.61,0.65 0.63,0.17 0.6,-0.29 0.65,-0.82 0.62,-1.29 0.61,-1.77 0.62,-2.21 0.65,-2.7 0.6,-3.11 0.63,-3.54 0.6,-3.99 0.65,-4.4 0.62,-4.76 0.61,-5.19 0.62,-5.54 0.65,-5.92 1.23,-12.89 0.6,-6.981 0.65,-7.25 1.23,-15.508 2.5,-34.391 0.6,-9.262 0.63,-9.488 1.25,-19.66 2.5,-41.68 0.6,-10.879 0.63,-11.011 1.25,-22.442 2.5,-46.258 4.98,-95.601 0.58,-11.25 0.55,-11.219 1.17,-22.351 2.33,-44.118 0.58,-10.871 0.59,-10.781 1.17,-21.269 2.31,-41.168 0.58,-9.93 0.59,-9.781 1.15,-19.102 2.34,-35.918 0.59,-8.441 0.55,-8.258 1.17,-15.762 2.32,-28.449 0.59,-6.449 0.58,-6.121 0.59,-5.832 0.59,-5.508 0.58,-5.18 0.55,-4.871 0.58,-4.539 0.59,-4.191 0.59,-3.801 0.58,-3.489 0.59,-3.082 0.56,-2.718 0.59,-2.321 0.59,-1.898 0.58,-1.52 0.59,-1.089 0.58,-0.672 0.55,-0.258 0.59,0.199 0.58,0.59 0.59,0.988 0.59,1.41 0.58,1.789 0.57,2.161 0.58,2.523 0.59,2.898 0.59,3.258 0.58,3.602 0.59,3.949 0.56,4.281 1.16,9.489 0.56,5.132 0.59,5.391 1.13,11.629 0.57,6.211 0.58,6.476 1.14,13.684 0.56,7.207 0.55,7.41 1.15,15.5 2.29,33.371 0.58,8.782 0.55,8.968 1.15,18.371 2.29,38.379 4.53,81.649 0.58,10.519 0.57,10.543 1.13,21.207 2.29,42.571 4.55,84.14 0.59,10.289 0.54,10.192 1.15,20.129 2.29,38.929 0.55,9.41 0.58,9.282 1.16,18.109 2.24,34.16 0.65,8.762 0.62,8.527 1.23,16.262 0.61,7.73 0.62,7.469 1.23,14.031 0.61,6.559 0.62,6.281 0.61,5.91 0.64,5.59 0.63,5.26 0.6,4.86 0.63,4.54 0.6,4.12 0.63,3.79 0.62,3.34 0.61,2.96 0.6,2.55 0.63,2.13 0.6,1.68 0.65,1.29 0.62,0.91 0.61,0.58 0.62,0.2 0.61,-0.09 0.63,-0.44 0.6,-0.76 0.63,-1.08 0.6,-1.38 0.63,-1.69 0.6,-1.97 0.65,-2.29 0.62,-2.55 0.61,-2.84 0.62,-3.08 0.61,-3.36 1.23,-7.5 0.62,-4.1 0.61,-4.34 1.23,-9.37 0.64,-5.01 0.63,-5.219 1.23,-11.039 0.6,-5.832 0.63,-5.981 1.23,-12.507 2.46,-26.922 4.94,-59.942 0.59,-7.41 0.58,-7.469 1.16,-15.148 2.3,-30.82 4.61,-62.7 0.59,-7.859 0.58,-7.82 1.13,-15.524 2.33,-30.648 4.61,-58.18 0.56,-6.879 0.57,-6.769 1.17,-13.211 2.31,-24.942 0.56,-5.879 0.59,-5.718 1.13,-11.012 2.33,-19.98 0.58,-4.54 0.55,-4.371 1.17,-8.109 0.57,-3.73 0.58,-3.54 1.18,-6.39 0.54,-2.899 0.61,-2.75 1.13,-5.25 2.31,-9.371 0.62,-2.289 0.65,-2.16 1.23,-4.082 0.64,-1.867 0.61,-1.762 1.27,-3.25 0.6,-1.469 0.63,-1.371 0.64,-1.261 0.61,-1.2 0.62,-1.089 0.65,-0.961 0.6,-0.911 0.63,-0.789 0.64,-0.711 0.61,-0.609 0.62,-0.527 0.65,-0.442 0.6,-0.351 0.63,-0.258 0.64,-0.152 0.61,-0.09 h 0.62 l 0.65,0.09 0.6,0.179 0.63,0.262 0.64,0.32 0.61,0.442 0.62,0.5 0.65,0.578 0.6,0.648 0.63,0.762 0.64,0.82 0.61,0.879 0.62,0.973 0.65,1.047 1.23,2.32 0.64,1.262 0.61,1.34 1.27,2.898 0.6,1.563 0.63,1.609 1.25,3.43 0.62,1.808 0.65,1.91 1.23,3.95 2.52,8.671 0.6,2.321 0.63,2.371 1.25,4.918 2.5,10.519 0.6,2.719 0.63,2.762 1.23,5.68 2.46,11.902 0.6,3.098 0.63,3.14 1.19,6.379 2.46,13.301 0.63,3.43 0.6,3.46 1.23,7.032 0.63,3.547 0.6,3.601 1.23,7.379 0.63,3.93 0.6,4.133 1.23,8.757 2.44,19.571 0.61,5.269 0.63,5.422 1.23,11.25 2.46,24.027 4.88,52.872 9.82,115.73 0.59,6.828 0.59,6.793 1.13,13.508 2.28,26.633 0.57,6.527 0.59,6.473 1.13,12.797 2.3,24.769 0.57,5.973 0.57,5.918 1.13,11.511 2.28,21.821 0.59,5.168 0.57,5.071 1.13,9.7 2.32,17.77 0.55,4.08 0.59,3.92 1.15,7.39 0.55,3.43 0.58,3.25 1.15,5.97 0.55,2.72 0.59,2.52 0.58,2.32 0.57,2.14 0.59,1.93 0.54,1.73 0.59,1.5 0.56,1.31 0.59,1.09 0.55,0.85 0.58,0.61 0.57,0.41 0.59,0.14 0.54,-0.07 0.59,-0.33 0.56,-0.58 0.59,-0.83 0.59,-1.08 0.54,-1.38 0.59,-1.64 0.57,-1.96 0.58,-2.22 0.55,-2.53 0.58,-2.78 0.63,-3.35 0.6,-3.62 0.63,-3.95 0.64,-4.23 0.61,-4.53 0.62,-4.81 1.24,-10.44 0.6,-5.59 0.65,-5.86 1.23,-12.48 2.5,-27.599 0.6,-7.441 0.63,-7.61 1.23,-15.832 2.48,-33.656 4.98,-73.852 0.62,-9.738 0.61,-9.773 1.23,-19.809 2.5,-40.25 4.98,-81.629 1.23,-20.269 1.23,-20.133 2.48,-39.578 4.96,-74.762 0.59,-8.207 0.58,-8.082 1.18,-15.758 2.3,-29.773 0.57,-7.059 0.58,-6.852 1.17,-13.187 2.31,-24.02 0.58,-5.48 0.57,-5.27 1.17,-9.882 0.59,-4.571 0.58,-4.297 1.14,-7.941 0.58,-3.551 0.59,-3.308 1.15,-5.922 0.59,-2.688 0.58,-2.551 1.14,-4.691 0.58,-2.109 0.59,-1.989 0.58,-1.82 0.57,-1.699 0.59,-1.551 0.58,-1.402 0.59,-1.258 0.55,-1.152 0.58,-1.02 0.59,-0.848 0.58,-0.761 0.59,-0.621 0.57,-0.5 0.58,-0.348 0.59,-0.231 0.58,-0.148 0.55,0.027 0.59,0.121 0.58,0.231 0.59,0.348 0.58,0.441 0.57,0.59 0.59,0.699 0.58,0.793 0.59,0.906 0.55,1.012 0.58,1.102 0.59,1.23 0.58,1.316 0.61,1.411 1.13,3.132 1.13,3.43 1.16,3.777 0.54,2.024 0.57,2.109 1.13,4.449 0.59,2.348 0.56,2.402 1.14,5.071 2.26,10.98 0.59,2.93 0.55,2.988 1.15,6.153 2.24,13.039 4.56,28.531 0.58,3.777 0.55,3.84 1.15,7.742 2.29,15.93 4.53,33.199 1.11,8.488 1.15,8.602 2.29,17.238 4.55,34.75 0.6,4.692 0.61,4.832 1.23,10.078 2.46,21.851 0.63,5.809 0.6,5.91 1.23,12.192 2.46,25.66 0.63,6.66 0.6,6.726 1.27,13.743 2.46,28.39 4.93,59.321 1.23,15.187 1.23,15.262 2.46,30.551 4.94,60.558 0.62,7.418 0.61,7.383 1.23,14.617 2.46,28.5 4.92,53.152 0.59,5.76 0.56,5.72 1.18,11.08 2.28,20.82 0.59,4.92 0.54,4.78 1.18,9.21 2.28,16.75 0.59,3.81 0.56,3.66 1.18,6.88 0.54,3.2 0.59,3.01 1.15,5.54 0.59,2.52 0.56,2.35 0.57,2.13 0.59,1.97 0.56,1.78 0.59,1.59 0.58,1.38 0.55,1.16 0.59,1.01 0.56,0.75 0.59,0.58 0.59,0.42 0.54,0.23 0.59,0.03 0.6,-0.11 0.55,-0.29 0.59,-0.48 0.54,-0.61 0.59,-0.79 0.59,-0.95 0.56,-1.1 0.59,-1.26 0.58,-1.43 0.55,-1.56 0.59,-1.73 0.56,-1.85 0.59,-2.01 0.58,-2.15 0.55,-2.28 0.59,-2.41 1.15,-5.24 0.59,-2.81 0.54,-2.92 1.17,-6.25 2.29,-13.83 0.66,-4.19 0.63,-4.3 1.29,-8.99 2.56,-19.4 5.15,-43.658 0.65,-5.832 0.64,-5.91 1.25,-12.039 2.58,-24.821 5.14,-51.73 0.64,-6.59 0.65,-6.629"
         style="fill:none;stroke:#3871c1;stroke-width:7.5;stroke-linecap:butt;stroke-linejoin:miter;stroke-miterlimit:3.25;stroke-dasharray:none;stroke-opacity:1"
         transform="matrix(0.13333333,0,0,-0.13333333,0,353.8)" />
      <path
         id="path47"
         d="m 54,1807.85 c 0,4.24 -1.6602,8.27 -4.668,11.28 -2.9648,2.96 -7.0429,4.62 -11.2695,4.62 -4.1953,0 -8.2617,-1.66 -11.2266,-4.62 -3.0078,-3.01 -4.6679,-7.04 -4.6679,-11.28 0,-4.23 1.6601,-8.26 4.6679,-11.27 2.9649,-2.97 7.0313,-4.67 11.2266,-4.67 4.2266,0 8.3047,1.7 11.2695,4.67 3.0078,3.01 4.668,7.04 4.668,11.27 v 0"
         style="fill:#231f20;fill-opacity:1;fill-rule:evenodd;stroke:none"
         transform="matrix(0.13333333,0,0,-0.13333333,0,353.8)" />
      <path
         id="path48"
         d="m 112.445,1807.85 c 0,4.24 -1.66,8.27 -4.668,11.28 -2.964,2.96 -7.039,4.62 -11.2692,4.62 -4.1914,0 -8.2617,-1.66 -11.2226,-4.62 -3.0079,-3.01 -4.6719,-7.04 -4.6719,-11.28 0,-4.23 1.664,-8.26 4.6719,-11.27 2.9609,-2.97 7.0312,-4.67 11.2226,-4.67 4.2302,0 8.3052,1.7 11.2692,4.67 3.008,3.01 4.668,7.04 4.668,11.27 v 0"
         style="fill:#231f20;fill-opacity:1;fill-rule:evenodd;stroke:none"
         transform="matrix(0.13333333,0,0,-0.13333333,0,353.8)" />
      <path
         id="path49"
         d="m 170.895,1807.85 c 0,4.24 -1.661,8.27 -4.668,11.28 -2.965,2.96 -7.043,4.62 -11.27,4.62 -4.195,0 -8.273,-1.66 -11.227,-4.62 -3.007,-3.01 -4.667,-7.04 -4.667,-11.28 0,-4.23 1.66,-8.26 4.667,-11.27 2.954,-2.97 7.032,-4.67 11.227,-4.67 4.227,0 8.305,1.7 11.27,4.67 3.007,3.01 4.668,7.04 4.668,11.27 v 0"
         style="fill:#231f20;fill-opacity:1;fill-rule:evenodd;stroke:none"
         transform="matrix(0.13333333,0,0,-0.13333333,0,353.8)" />
      <path
         id="path50"
         d="m 229.34,1807.85 c 0,4.24 -1.699,8.27 -4.668,11.28 -3,2.96 -7.039,4.62 -11.27,4.62 -4.191,0 -8.269,-1.66 -11.238,-4.62 -2.992,-3.01 -4.652,-7.04 -4.652,-11.28 0,-4.23 1.66,-8.26 4.652,-11.27 2.969,-2.97 7.047,-4.67 11.238,-4.67 4.231,0 8.27,1.7 11.27,4.67 2.969,3.01 4.668,7.04 4.668,11.27 v 0"
         style="fill:#231f20;fill-opacity:1;fill-rule:evenodd;stroke:none"
         transform="matrix(0.13333333,0,0,-0.13333333,0,353.8)" />
      <path
         id="path51"
         d="m 287.789,1807.85 c 0,4.24 -1.699,8.27 -4.664,11.28 -3.008,2.96 -7.039,4.62 -11.273,4.62 -4.235,0 -8.274,-1.66 -11.243,-4.62 -2.988,-3.01 -4.664,-7.04 -4.664,-11.28 0,-4.23 1.676,-8.26 4.664,-11.27 2.969,-2.97 7.008,-4.67 11.243,-4.67 4.234,0 8.265,1.7 11.273,4.67 2.965,3.01 4.664,7.04 4.664,11.27 v 0"
         style="fill:#231f20;fill-opacity:1;fill-rule:evenodd;stroke:none"
         transform="matrix(0.13333333,0,0,-0.13333333,0,353.8)" />
      <path
         id="path52"
         d="m 346.234,1807.85 c 0,4.24 -1.699,8.27 -4.664,11.28 -3.007,2.96 -7.035,4.62 -11.273,4.62 -4.234,0 -8.27,-1.66 -11.277,-4.62 -2.95,-3.01 -4.625,-7.04 -4.625,-11.28 0,-4.23 1.675,-8.26 4.625,-11.27 3.007,-2.97 7.043,-4.67 11.277,-4.67 4.238,0 8.266,1.7 11.273,4.67 2.965,3.01 4.664,7.04 4.664,11.27 v 0"
         style="fill:#231f20;fill-opacity:1;fill-rule:evenodd;stroke:none"
         transform="matrix(0.13333333,0,0,-0.13333333,0,353.8)" />
      <path
         id="path53"
         d="m 404.688,1807.85 c 0,4.24 -1.7,8.27 -4.668,11.28 -3.004,2.96 -7.032,4.62 -11.266,4.62 -4.238,0 -8.274,-1.66 -11.281,-4.62 -2.965,-3.01 -4.657,-7.04 -4.657,-11.28 0,-4.23 1.692,-8.26 4.657,-11.27 3.007,-2.97 7.043,-4.67 11.281,-4.67 4.234,0 8.262,1.7 11.266,4.67 2.968,3.01 4.668,7.04 4.668,11.27 v 0"
         style="fill:#231f20;fill-opacity:1;fill-rule:evenodd;stroke:none"
         transform="matrix(0.13333333,0,0,-0.13333333,0,353.8)" />
      <path
         id="path54"
         d="m 463.137,1807.85 c 0,4.24 -1.699,8.27 -4.668,11.28 -3.004,2.96 -7.031,4.62 -11.266,4.62 -4.23,0 -8.277,-1.66 -11.285,-4.62 -2.965,-3.01 -4.652,-7.04 -4.652,-11.28 0,-4.23 1.687,-8.26 4.652,-11.27 3.008,-2.97 7.055,-4.67 11.285,-4.67 4.235,0 8.262,1.7 11.266,4.67 2.969,3.01 4.668,7.04 4.668,11.27 v 0"
         style="fill:#231f20;fill-opacity:1;fill-rule:evenodd;stroke:none"
         transform="matrix(0.13333333,0,0,-0.13333333,0,353.8)" />
      <path
         id="path55"
         d="m 521.582,2332.73 c 0,4.24 -1.699,8.27 -4.664,11.27 -3.008,2.97 -7.035,4.67 -11.27,4.67 -4.226,0 -8.277,-1.7 -11.285,-4.67 -2.961,-3 -4.66,-7.03 -4.66,-11.27 0,-4.23 1.699,-8.27 4.66,-11.28 3.008,-2.97 7.059,-4.66 11.285,-4.66 4.235,0 8.262,1.69 11.27,4.66 2.965,3.01 4.664,7.05 4.664,11.28 v 0"
         style="fill:#231f20;fill-opacity:1;fill-rule:evenodd;stroke:none"
         transform="matrix(0.13333333,0,0,-0.13333333,0,353.8)" />
      <path
         id="path56"
         d="m 580.027,2332.73 c 0,4.24 -1.699,8.27 -4.66,11.27 -3.008,2.97 -7.039,4.67 -11.269,4.67 -4.231,0 -8.274,-1.7 -11.285,-4.67 -2.965,-3 -4.665,-7.03 -4.665,-11.27 0,-4.23 1.7,-8.27 4.665,-11.28 3.011,-2.97 7.054,-4.66 11.285,-4.66 4.23,0 8.261,1.69 11.269,4.66 2.961,3.01 4.66,7.05 4.66,11.28 v 0"
         style="fill:#231f20;fill-opacity:1;fill-rule:evenodd;stroke:none"
         transform="matrix(0.13333333,0,0,-0.13333333,0,353.8)" />
      <path
         id="path57"
         d="m 638.441,2332.73 c 0,4.24 -1.66,8.27 -4.625,11.27 -3.003,2.97 -7.035,4.67 -11.261,4.67 -4.235,0 -8.278,-1.7 -11.289,-4.67 -2.965,-3 -4.664,-7.03 -4.664,-11.27 0,-4.23 1.699,-8.27 4.664,-11.28 3.011,-2.97 7.054,-4.66 11.289,-4.66 4.226,0 8.258,1.69 11.261,4.66 2.965,3.01 4.625,7.05 4.625,11.28 v 0"
         style="fill:#231f20;fill-opacity:1;fill-rule:evenodd;stroke:none"
         transform="matrix(0.13333333,0,0,-0.13333333,0,353.8)" />
      <path
         id="path58"
         d="m 696.891,2332.73 c 0,4.24 -1.661,8.27 -4.664,11.27 -2.969,2.97 -6.997,4.67 -11.227,4.67 -4.23,0 -8.273,-1.7 -11.289,-4.67 -2.965,-3 -4.66,-7.03 -4.66,-11.27 0,-4.23 1.695,-8.27 4.66,-11.28 3.016,-2.97 7.059,-4.66 11.289,-4.66 4.23,0 8.258,1.69 11.227,4.66 3.003,3.01 4.664,7.05 4.664,11.28 v 0"
         style="fill:#231f20;fill-opacity:1;fill-rule:evenodd;stroke:none"
         transform="matrix(0.13333333,0,0,-0.13333333,0,353.8)" />
      <path
         id="path59"
         d="m 755.336,2332.73 c 0,4.24 -1.66,8.27 -4.66,11.27 -2.973,2.97 -7,4.67 -11.227,4.67 -4.234,0 -8.277,-1.7 -11.289,-4.67 -2.965,-3 -4.664,-7.03 -4.664,-11.27 0,-4.23 1.699,-8.27 4.664,-11.28 3.012,-2.97 7.055,-4.66 11.289,-4.66 4.227,0 8.254,1.69 11.227,4.66 3,3.01 4.66,7.05 4.66,11.28 v 0"
         style="fill:#231f20;fill-opacity:1;fill-rule:evenodd;stroke:none"
         transform="matrix(0.13333333,0,0,-0.13333333,0,353.8)" />
      <path
         id="path60"
         d="m 813.785,2332.73 c 0,4.24 -1.66,8.27 -4.664,11.27 -2.969,2.97 -7.035,4.67 -11.226,4.67 -4.235,0 -8.317,-1.7 -11.278,-4.67 -3.012,-3 -4.676,-7.03 -4.676,-11.27 0,-4.23 1.664,-8.27 4.676,-11.28 2.961,-2.97 7.043,-4.66 11.278,-4.66 4.191,0 8.257,1.69 11.226,4.66 3.004,3.01 4.664,7.05 4.664,11.28 v 0"
         style="fill:#231f20;fill-opacity:1;fill-rule:evenodd;stroke:none"
         transform="matrix(0.13333333,0,0,-0.13333333,0,353.8)" />
      <path
         id="path61"
         d="m 872.23,2332.73 c 0,4.24 -1.648,8.27 -4.664,11.27 -2.964,2.97 -7.035,4.67 -11.238,4.67 -4.219,0 -8.301,-1.7 -11.265,-4.67 -3.012,-3 -4.672,-7.03 -4.672,-11.27 0,-4.23 1.66,-8.27 4.672,-11.28 2.964,-2.97 7.046,-4.66 11.265,-4.66 4.203,0 8.274,1.69 11.238,4.66 3.016,3.01 4.664,7.05 4.664,11.28 v 0"
         style="fill:#231f20;fill-opacity:1;fill-rule:evenodd;stroke:none"
         transform="matrix(0.13333333,0,0,-0.13333333,0,353.8)" />
      <path
         id="path62"
         d="m 930.68,2332.73 c 0,4.24 -1.657,8.27 -4.668,11.27 -2.965,2.97 -7.032,4.67 -11.239,4.67 -4.214,0 -8.296,-1.7 -11.261,-4.67 -3.016,-3 -4.668,-7.03 -4.668,-11.27 0,-4.23 1.652,-8.27 4.668,-11.28 2.965,-2.97 7.047,-4.66 11.261,-4.66 4.207,0 8.274,1.69 11.239,4.66 3.011,3.01 4.668,7.05 4.668,11.28 v 0"
         style="fill:#231f20;fill-opacity:1;fill-rule:evenodd;stroke:none"
         transform="matrix(0.13333333,0,0,-0.13333333,0,353.8)" />
      <path
         id="path63"
         d="m 989.137,1807.85 c 0,4.24 -1.66,8.27 -4.668,11.28 -2.981,2.96 -7.043,4.62 -11.289,4.62 -4.192,0 -8.254,-1.66 -11.231,-4.62 -3,-3.01 -4.66,-7.04 -4.66,-11.28 0,-4.23 1.66,-8.26 4.66,-11.27 2.977,-2.97 7.039,-4.67 11.231,-4.67 4.246,0 8.308,1.7 11.289,4.67 3.008,3.01 4.668,7.04 4.668,11.27 v 0"
         style="fill:#231f20;fill-opacity:1;fill-rule:evenodd;stroke:none"
         transform="matrix(0.13333333,0,0,-0.13333333,0,353.8)" />
      <path
         id="path64"
         d="m 1047.56,1807.85 c 0,4.24 -1.66,8.27 -4.65,11.28 -2.96,2.96 -7.05,4.62 -11.26,4.62 -4.2,0 -8.29,-1.66 -11.24,-4.62 -3,-3.01 -4.66,-7.04 -4.66,-11.28 0,-4.23 1.66,-8.26 4.66,-11.27 2.95,-2.97 7.04,-4.67 11.24,-4.67 4.21,0 8.3,1.7 11.26,4.67 2.99,3.01 4.65,7.04 4.65,11.27 v 0"
         style="fill:#231f20;fill-opacity:1;fill-rule:evenodd;stroke:none"
         transform="matrix(0.13333333,0,0,-0.13333333,0,353.8)" />
      <path
         id="path65"
         d="m 1106.03,1807.85 c 0,4.24 -1.66,8.27 -4.67,11.28 -2.98,2.96 -7.04,4.62 -11.29,4.62 -4.19,0 -8.25,-1.66 -11.23,-4.62 -3.01,-3.01 -4.67,-7.04 -4.67,-11.28 0,-4.23 1.66,-8.26 4.67,-11.27 2.98,-2.97 7.04,-4.67 11.23,-4.67 4.25,0 8.31,1.7 11.29,4.67 3.01,3.01 4.67,7.04 4.67,11.27 v 0"
         style="fill:#231f20;fill-opacity:1;fill-rule:evenodd;stroke:none"
         transform="matrix(0.13333333,0,0,-0.13333333,0,353.8)" />
      <path
         id="path66"
         d="m 1164.46,1807.85 c 0,4.24 -1.68,8.27 -4.66,11.28 -3.01,2.96 -7.04,4.62 -11.26,4.62 -4.25,0 -8.28,-1.66 -11.24,-4.62 -3,-3.01 -4.66,-7.04 -4.66,-11.28 0,-4.23 1.66,-8.26 4.66,-11.27 2.96,-2.97 6.99,-4.67 11.24,-4.67 4.22,0 8.25,1.7 11.26,4.67 2.98,3.01 4.66,7.04 4.66,11.27 v 0"
         style="fill:#231f20;fill-opacity:1;fill-rule:evenodd;stroke:none"
         transform="matrix(0.13333333,0,0,-0.13333333,0,353.8)" />
      <path
         id="path67"
         d="m 1222.92,1807.85 c 0,4.24 -1.71,8.27 -4.66,11.28 -3.01,2.96 -7.04,4.62 -11.29,4.62 -4.22,0 -8.25,-1.66 -11.23,-4.62 -3.01,-3.01 -4.67,-7.04 -4.67,-11.28 0,-4.23 1.66,-8.26 4.67,-11.27 2.98,-2.97 7.01,-4.67 11.23,-4.67 4.25,0 8.28,1.7 11.29,4.67 2.95,3.01 4.66,7.04 4.66,11.27 v 0"
         style="fill:#231f20;fill-opacity:1;fill-rule:evenodd;stroke:none"
         transform="matrix(0.13333333,0,0,-0.13333333,0,353.8)" />
      <path
         id="path68"
         d="m 1281.35,1807.85 c 0,4.24 -1.68,8.27 -4.66,11.28 -3,2.96 -7.04,4.62 -11.26,4.62 -4.24,0 -8.28,-1.66 -11.28,-4.62 -2.95,-3.01 -4.61,-7.04 -4.61,-11.28 0,-4.23 1.66,-8.26 4.61,-11.27 3,-2.97 7.04,-4.67 11.28,-4.67 4.22,0 8.26,1.7 11.26,4.67 2.98,3.01 4.66,7.04 4.66,11.27 v 0"
         style="fill:#231f20;fill-opacity:1;fill-rule:evenodd;stroke:none"
         transform="matrix(0.13333333,0,0,-0.13333333,0,353.8)" />
      <path
         id="path69"
         d="m 1339.82,1807.85 c 0,4.24 -1.71,8.27 -4.67,11.28 -3.01,2.96 -7.04,4.62 -11.28,4.62 -4.22,0 -8.25,-1.66 -11.26,-4.62 -2.98,-3.01 -4.67,-7.04 -4.67,-11.28 0,-4.23 1.69,-8.26 4.67,-11.27 3.01,-2.97 7.04,-4.67 11.26,-4.67 4.24,0 8.27,1.7 11.28,4.67 2.96,3.01 4.67,7.04 4.67,11.27 v 0"
         style="fill:#231f20;fill-opacity:1;fill-rule:evenodd;stroke:none"
         transform="matrix(0.13333333,0,0,-0.13333333,0,353.8)" />
      <path
         id="path70"
         d="m 1398.26,1807.85 c 0,4.24 -1.69,8.27 -4.67,11.28 -3.01,2.96 -7.04,4.62 -11.26,4.62 -4.24,0 -8.27,-1.66 -11.28,-4.62 -2.96,-3.01 -4.67,-7.04 -4.67,-11.28 0,-4.23 1.71,-8.26 4.67,-11.27 3.01,-2.97 7.04,-4.67 11.28,-4.67 4.22,0 8.25,1.7 11.26,4.67 2.98,3.01 4.67,7.04 4.67,11.27 v 0"
         style="fill:#231f20;fill-opacity:1;fill-rule:evenodd;stroke:none"
         transform="matrix(0.13333333,0,0,-0.13333333,0,353.8)" />
      <path
         id="path71"
         d="m 1456.71,2332.73 c 0,4.24 -1.71,8.27 -4.66,11.27 -3.01,2.97 -7.05,4.67 -11.28,4.67 -4.22,0 -8.26,-1.7 -11.26,-4.67 -2.98,-3 -4.67,-7.03 -4.67,-11.27 0,-4.23 1.69,-8.27 4.67,-11.28 3,-2.97 7.04,-4.66 11.26,-4.66 4.23,0 8.27,1.69 11.28,4.66 2.95,3.01 4.66,7.05 4.66,11.28 v 0"
         style="fill:#231f20;fill-opacity:1;fill-rule:evenodd;stroke:none"
         transform="matrix(0.13333333,0,0,-0.13333333,0,353.8)" />
      <path
         id="path72"
         d="m 1515.15,2332.73 c 0,4.24 -1.69,8.27 -4.67,11.27 -3,2.97 -7.04,4.67 -11.26,4.67 -4.23,0 -8.27,-1.7 -11.28,-4.67 -2.95,-3 -4.66,-7.03 -4.66,-11.27 0,-4.23 1.71,-8.27 4.66,-11.28 3.01,-2.97 7.05,-4.66 11.28,-4.66 4.22,0 8.26,1.69 11.26,4.66 2.98,3.01 4.67,7.05 4.67,11.28 v 0"
         style="fill:#231f20;fill-opacity:1;fill-rule:evenodd;stroke:none"
         transform="matrix(0.13333333,0,0,-0.13333333,0,353.8)" />
      <path
         id="path73"
         d="m 1573.56,2332.73 c 0,4.24 -1.66,8.27 -4.61,11.27 -3.01,2.97 -7.04,4.67 -11.29,4.67 -4.22,0 -8.25,-1.7 -11.26,-4.67 -2.98,-3 -4.66,-7.03 -4.66,-11.27 0,-4.23 1.68,-8.27 4.66,-11.28 3.01,-2.97 7.04,-4.66 11.26,-4.66 4.25,0 8.28,1.69 11.29,4.66 2.95,3.01 4.61,7.05 4.61,11.28 v 0"
         style="fill:#231f20;fill-opacity:1;fill-rule:evenodd;stroke:none"
         transform="matrix(0.13333333,0,0,-0.13333333,0,353.8)" />
      <path
         id="path74"
         d="m 1632.03,2332.73 c 0,4.24 -1.66,8.27 -4.67,11.27 -2.98,2.97 -7.01,4.67 -11.23,4.67 -4.25,0 -8.28,-1.7 -11.29,-4.67 -2.95,-3 -4.67,-7.03 -4.67,-11.27 0,-4.23 1.72,-8.27 4.67,-11.28 3.01,-2.97 7.04,-4.66 11.29,-4.66 4.22,0 8.25,1.69 11.23,4.66 3.01,3.01 4.67,7.05 4.67,11.28 v 0"
         style="fill:#231f20;fill-opacity:1;fill-rule:evenodd;stroke:none"
         transform="matrix(0.13333333,0,0,-0.13333333,0,353.8)" />
      <path
         id="path75"
         d="m 1690.45,2332.73 c 0,4.24 -1.66,8.27 -4.65,11.27 -2.96,2.97 -7.05,4.67 -11.24,4.67 -4.22,0 -8.26,-1.7 -11.26,-4.67 -2.98,-3 -4.66,-7.03 -4.66,-11.27 0,-4.23 1.68,-8.27 4.66,-11.28 3,-2.97 7.04,-4.66 11.26,-4.66 4.19,0 8.28,1.69 11.24,4.66 2.99,3.01 4.65,7.05 4.65,11.28 v 0"
         style="fill:#231f20;fill-opacity:1;fill-rule:evenodd;stroke:none"
         transform="matrix(0.13333333,0,0,-0.13333333,0,353.8)" />
      <path
         id="path76"
         d="m 1748.92,2332.73 c 0,4.24 -1.66,8.27 -4.67,11.27 -2.98,2.97 -7.04,4.67 -11.23,4.67 -4.25,0 -8.31,-1.7 -11.29,-4.67 -3,-3 -4.66,-7.03 -4.66,-11.27 0,-4.23 1.66,-8.27 4.66,-11.28 2.98,-2.97 7.04,-4.66 11.29,-4.66 4.19,0 8.25,1.69 11.23,4.66 3.01,3.01 4.67,7.05 4.67,11.28 v 0"
         style="fill:#231f20;fill-opacity:1;fill-rule:evenodd;stroke:none"
         transform="matrix(0.13333333,0,0,-0.13333333,0,353.8)" />
      <path
         id="path77"
         d="m 1807.35,2332.73 c 0,4.24 -1.66,8.27 -4.67,11.27 -2.95,2.97 -7.03,4.67 -11.23,4.67 -4.22,0 -8.3,-1.7 -11.26,-4.67 -3,-3 -4.66,-7.03 -4.66,-11.27 0,-4.23 1.66,-8.27 4.66,-11.28 2.96,-2.97 7.04,-4.66 11.26,-4.66 4.2,0 8.28,1.69 11.23,4.66 3.01,3.01 4.67,7.05 4.67,11.28 v 0"
         style="fill:#231f20;fill-opacity:1;fill-rule:evenodd;stroke:none"
         transform="matrix(0.13333333,0,0,-0.13333333,0,353.8)" />
      <path
         id="path78"
         d="m 1865.82,2332.73 c 0,4.24 -1.66,8.27 -4.67,11.27 -2.98,2.97 -7.04,4.67 -11.23,4.67 -4.25,0 -8.31,-1.7 -11.29,-4.67 -3.01,-3 -4.67,-7.03 -4.67,-11.27 0,-4.23 1.66,-8.27 4.67,-11.28 2.98,-2.97 7.04,-4.66 11.29,-4.66 4.19,0 8.25,1.69 11.23,4.66 3.01,3.01 4.67,7.05 4.67,11.28 v 0"
         style="fill:#231f20;fill-opacity:1;fill-rule:evenodd;stroke:none"
         transform="matrix(0.13333333,0,0,-0.13333333,0,353.8)" />
      <path
         id="path79"
         d="m 53.6602,693.629 c 0,4.242 -1.6563,8.281 -4.668,11.293 -2.9609,2.957 -7.0352,4.668 -11.2695,4.668 -4.1914,0 -8.2579,-1.711 -11.2227,-4.668 -3.0078,-3.012 -4.668,-7.051 -4.668,-11.293 0,-4.231 1.6602,-8.258 4.668,-11.258 2.9648,-2.973 7.0313,-4.672 11.2227,-4.672 4.2343,0 8.3086,1.699 11.2695,4.672 3.0117,3 4.668,7.027 4.668,11.258 v 0"
         style="fill:#231f20;fill-opacity:1;fill-rule:evenodd;stroke:none"
         transform="matrix(0.13333333,0,0,-0.13333333,0,353.8)" />
      <path
         id="path80"
         d="m 112.109,730.32 c 0,4.231 -1.66,8.258 -4.668,11.27 -2.964,2.961 -7.035,4.672 -11.2691,4.672 -4.1953,0 -8.2617,-1.711 -11.2266,-4.672 -3.0078,-3.012 -4.668,-7.039 -4.668,-11.27 0,-4.23 1.6602,-8.261 4.668,-11.261 2.9649,-2.981 7.0313,-4.68 11.2266,-4.68 4.2341,0 8.3051,1.699 11.2691,4.68 3.008,3 4.668,7.031 4.668,11.261 v 0"
         style="fill:#231f20;fill-opacity:1;fill-rule:evenodd;stroke:none"
         transform="matrix(0.13333333,0,0,-0.13333333,0,353.8)" />
      <path
         id="path81"
         d="m 170.559,838.398 c 0,4.204 -1.664,8.274 -4.668,11.243 -2.965,3 -7.039,4.66 -11.274,4.66 -4.191,0 -8.269,-1.66 -11.222,-4.66 -3.008,-2.969 -4.668,-7.039 -4.668,-11.243 0,-4.226 1.66,-8.296 4.668,-11.269 2.953,-3.008 7.031,-4.668 11.222,-4.668 4.235,0 8.309,1.66 11.274,4.668 3.004,2.973 4.668,7.043 4.668,11.269 v 0"
         style="fill:#231f20;fill-opacity:1;fill-rule:evenodd;stroke:none"
         transform="matrix(0.13333333,0,0,-0.13333333,0,353.8)" />
      <path
         id="path82"
         d="m 229.004,1000.41 c 0,4.23 -1.699,8.3 -4.668,11.27 -3.004,3 -7.035,4.66 -11.27,4.66 -4.195,0 -8.269,-1.66 -11.242,-4.66 -2.992,-2.97 -4.652,-7.04 -4.652,-11.27 0,-4.191 1.66,-8.281 4.652,-11.25 2.973,-2.988 7.047,-4.66 11.242,-4.66 4.235,0 8.266,1.672 11.27,4.66 2.969,2.969 4.668,7.059 4.668,11.25 v 0"
         style="fill:#231f20;fill-opacity:1;fill-rule:evenodd;stroke:none"
         transform="matrix(0.13333333,0,0,-0.13333333,0,353.8)" />
      <path
         id="path83"
         d="m 287.449,1154.34 c 0,4.19 -1.695,8.27 -4.66,11.24 -3.008,2.99 -7.043,4.66 -11.273,4.66 -4.235,0 -8.274,-1.67 -11.243,-4.66 -2.992,-2.97 -4.664,-7.05 -4.664,-11.24 0,-4.23 1.672,-8.31 4.664,-11.27 2.969,-3.01 7.008,-4.67 11.243,-4.67 4.23,0 8.265,1.66 11.273,4.67 2.965,2.96 4.66,7.04 4.66,11.27 v 0"
         style="fill:#231f20;fill-opacity:1;fill-rule:evenodd;stroke:none"
         transform="matrix(0.13333333,0,0,-0.13333333,0,353.8)" />
      <path
         id="path84"
         d="m 345.898,1174.24 c 0,4.19 -1.699,8.26 -4.664,11.23 -3.007,3 -7.035,4.66 -11.273,4.66 -4.234,0 -8.273,-1.66 -11.277,-4.66 -2.957,-2.97 -4.625,-7.04 -4.625,-11.23 0,-4.23 1.668,-8.27 4.625,-11.28 3.004,-3.01 7.043,-4.67 11.277,-4.67 4.238,0 8.266,1.66 11.273,4.67 2.965,3.01 4.664,7.05 4.664,11.28 v 0"
         style="fill:#231f20;fill-opacity:1;fill-rule:evenodd;stroke:none"
         transform="matrix(0.13333333,0,0,-0.13333333,0,353.8)" />
      <path
         id="path85"
         d="m 404.352,928.691 c 0,4.231 -1.7,8.27 -4.668,11.27 -3.004,2.969 -7.032,4.66 -11.266,4.66 -4.238,0 -8.277,-1.691 -11.285,-4.66 -2.969,-3 -4.653,-7.039 -4.653,-11.27 0,-4.242 1.684,-8.269 4.653,-11.23 3.008,-3.012 7.047,-4.672 11.285,-4.672 4.234,0 8.262,1.66 11.266,4.672 2.968,2.961 4.668,6.988 4.668,11.23 v 0"
         style="fill:#231f20;fill-opacity:1;fill-rule:evenodd;stroke:none"
         transform="matrix(0.13333333,0,0,-0.13333333,0,353.8)" />
      <path
         id="path86"
         d="m 462.797,469.43 c 0,4.23 -1.699,8.3 -4.668,11.269 -3,3.012 -7.031,4.672 -11.266,4.672 -4.23,0 -8.273,-1.66 -11.281,-4.672 -2.969,-2.969 -4.652,-7.039 -4.652,-11.269 0,-4.2 1.683,-8.27 4.652,-11.219 3.008,-3.02 7.051,-4.68 11.281,-4.68 4.235,0 8.266,1.66 11.266,4.68 2.969,2.949 4.668,7.019 4.668,11.219 v 0"
         style="fill:#231f20;fill-opacity:1;fill-rule:evenodd;stroke:none"
         transform="matrix(0.13333333,0,0,-0.13333333,0,353.8)" />
      <path
         id="path87"
         d="m 521.246,195.02 c 0,4.191 -1.699,8.261 -4.664,11.23 -3.008,3.012 -7.035,4.672 -11.266,4.672 -4.23,0 -8.281,-1.66 -11.289,-4.672 -2.964,-2.969 -4.668,-7.039 -4.668,-11.23 0,-4.239 1.704,-8.309 4.668,-11.282 3.008,-3.008 7.059,-4.668 11.289,-4.668 4.231,0 8.258,1.66 11.266,4.668 2.965,2.973 4.664,7.043 4.664,11.282 v 0"
         style="fill:#231f20;fill-opacity:1;fill-rule:evenodd;stroke:none"
         transform="matrix(0.13333333,0,0,-0.13333333,0,353.8)" />
      <path
         id="path88"
         d="m 579.691,537.23 c 0,4.231 -1.699,8.258 -4.664,11.27 -3.007,2.961 -7.035,4.66 -11.261,4.66 -4.235,0 -8.278,-1.699 -11.289,-4.66 -2.965,-3.012 -4.668,-7.039 -4.668,-11.27 0,-4.242 1.703,-8.269 4.668,-11.269 3.011,-2.973 7.054,-4.672 11.289,-4.672 4.226,0 8.254,1.699 11.261,4.672 2.965,3 4.664,7.027 4.664,11.269 v 0"
         style="fill:#231f20;fill-opacity:1;fill-rule:evenodd;stroke:none"
         transform="matrix(0.13333333,0,0,-0.13333333,0,353.8)" />
      <path
         id="path89"
         d="m 638.105,1133.42 c 0,4.2 -1.66,8.27 -4.625,11.24 -3.007,3 -7.035,4.66 -11.261,4.66 -4.235,0 -8.278,-1.66 -11.289,-4.66 -2.965,-2.97 -4.664,-7.04 -4.664,-11.24 0,-4.23 1.699,-8.3 4.664,-11.27 3.011,-3.01 7.054,-4.67 11.289,-4.67 4.226,0 8.254,1.66 11.261,4.67 2.965,2.97 4.625,7.04 4.625,11.27 v 0"
         style="fill:#231f20;fill-opacity:1;fill-rule:evenodd;stroke:none"
         transform="matrix(0.13333333,0,0,-0.13333333,0,353.8)" />
      <path
         id="path90"
         d="m 696.555,939.41 c 0,4.231 -1.66,8.262 -4.664,11.27 -2.969,2.968 -6.996,4.672 -11.227,4.672 -4.234,0 -8.277,-1.704 -11.289,-4.672 -2.965,-3.008 -4.664,-7.039 -4.664,-11.27 0,-4.238 1.699,-8.262 4.664,-11.269 3.012,-2.969 7.055,-4.629 11.289,-4.629 4.231,0 8.258,1.66 11.227,4.629 3.004,3.007 4.664,7.031 4.664,11.269 v 0"
         style="fill:#231f20;fill-opacity:1;fill-rule:evenodd;stroke:none"
         transform="matrix(0.13333333,0,0,-0.13333333,0,353.8)" />
      <path
         id="path91"
         d="m 755,232.941 c 0,4.239 -1.66,8.27 -4.664,11.278 -2.969,2.961 -6.996,4.672 -11.227,4.672 -4.23,0 -8.273,-1.711 -11.289,-4.672 -2.961,-3.008 -4.66,-7.039 -4.66,-11.278 0,-4.23 1.699,-8.261 4.66,-11.269 3.016,-2.973 7.059,-4.633 11.289,-4.633 4.231,0 8.258,1.66 11.227,4.633 3.004,3.008 4.664,7.039 4.664,11.269 v 0"
         style="fill:#231f20;fill-opacity:1;fill-rule:evenodd;stroke:none"
         transform="matrix(0.13333333,0,0,-0.13333333,0,353.8)" />
      <path
         id="path92"
         d="m 813.445,632.582 c 0,4.238 -1.66,8.309 -4.66,11.27 -2.969,3.007 -7.039,4.668 -11.226,4.668 -4.235,0 -8.317,-1.661 -11.282,-4.668 -3.011,-2.961 -4.672,-7.032 -4.672,-11.27 0,-4.191 1.661,-8.262 4.672,-11.23 2.965,-3.012 7.047,-4.672 11.282,-4.672 4.187,0 8.257,1.66 11.226,4.672 3,2.968 4.66,7.039 4.66,11.23 v 0"
         style="fill:#231f20;fill-opacity:1;fill-rule:evenodd;stroke:none"
         transform="matrix(0.13333333,0,0,-0.13333333,0,353.8)" />
      <path
         id="path93"
         d="m 871.895,1170.79 c 0,4.23 -1.653,8.31 -4.661,11.27 -2.964,3.02 -7.039,4.68 -11.25,4.68 -4.214,0 -8.296,-1.66 -11.257,-4.68 -3.016,-2.96 -4.676,-7.04 -4.676,-11.27 0,-4.19 1.66,-8.26 4.676,-11.23 2.961,-3 7.043,-4.66 11.257,-4.66 4.211,0 8.286,1.66 11.25,4.66 3.008,2.97 4.661,7.04 4.661,11.23 v 0"
         style="fill:#231f20;fill-opacity:1;fill-rule:evenodd;stroke:none"
         transform="matrix(0.13333333,0,0,-0.13333333,0,353.8)" />
      <path
         id="path94"
         d="m 930.344,316.059 c 0,4.23 -1.66,8.269 -4.668,11.273 -2.973,2.969 -7.031,4.668 -11.235,4.668 -4.214,0 -8.296,-1.699 -11.265,-4.668 -3.008,-3.004 -4.668,-7.043 -4.668,-11.273 0,-4.231 1.66,-8.258 4.668,-11.27 2.969,-2.961 7.051,-4.66 11.265,-4.66 4.204,0 8.262,1.699 11.235,4.66 3.008,3.012 4.668,7.039 4.668,11.27 v 0"
         style="fill:#231f20;fill-opacity:1;fill-rule:evenodd;stroke:none"
         transform="matrix(0.13333333,0,0,-0.13333333,0,353.8)" />
      <path
         id="path95"
         d="m 988.793,693.629 c 0,4.242 -1.66,8.281 -4.668,11.293 -2.969,2.957 -7.051,4.668 -11.289,4.668 -4.18,0 -8.262,-1.711 -11.215,-4.668 -3.008,-3.012 -4.668,-7.051 -4.668,-11.293 0,-4.231 1.66,-8.258 4.668,-11.258 2.953,-2.973 7.035,-4.672 11.215,-4.672 4.238,0 8.32,1.699 11.289,4.672 3.008,3 4.668,7.027 4.668,11.258 v 0"
         style="fill:#231f20;fill-opacity:1;fill-rule:evenodd;stroke:none"
         transform="matrix(0.13333333,0,0,-0.13333333,0,353.8)" />
      <path
         id="path96"
         d="m 1047.23,1019.33 c 0,4.23 -1.66,8.27 -4.67,11.26 -2.97,2.97 -7.03,4.67 -11.25,4.67 -4.22,0 -8.28,-1.7 -11.25,-4.67 -3,-2.99 -4.66,-7.03 -4.66,-11.26 0,-4.23 1.66,-8.27 4.66,-11.27 2.97,-2.97 7.03,-4.63 11.25,-4.63 4.22,0 8.28,1.66 11.25,4.63 3.01,3 4.67,7.04 4.67,11.27 v 0"
         style="fill:#231f20;fill-opacity:1;fill-rule:evenodd;stroke:none"
         transform="matrix(0.13333333,0,0,-0.13333333,0,353.8)" />
      <path
         id="path97"
         d="m 1105.69,216.441 c 0,4.239 -1.66,8.309 -4.67,11.278 -2.97,3.011 -7.05,4.672 -11.29,4.672 -4.18,0 -8.26,-1.661 -11.23,-4.672 -3.01,-2.969 -4.67,-7.039 -4.67,-11.278 0,-4.191 1.66,-8.261 4.67,-11.23 2.97,-3 7.05,-4.66 11.23,-4.66 4.24,0 8.32,1.66 11.29,4.66 3.01,2.969 4.67,7.039 4.67,11.23 v 0"
         style="fill:#231f20;fill-opacity:1;fill-rule:evenodd;stroke:none"
         transform="matrix(0.13333333,0,0,-0.13333333,0,353.8)" />
      <path
         id="path98"
         d="m 1164.13,1188.52 c 0,4.24 -1.7,8.27 -4.67,11.27 -3.01,2.97 -7.03,4.67 -11.27,4.67 -4.24,0 -8.26,-1.7 -11.23,-4.67 -3.01,-3 -4.67,-7.03 -4.67,-11.27 0,-4.23 1.66,-8.27 4.67,-11.24 2.97,-2.99 6.99,-4.66 11.23,-4.66 4.24,0 8.26,1.67 11.27,4.66 2.97,2.97 4.67,7.01 4.67,11.24 v 0"
         style="fill:#231f20;fill-opacity:1;fill-rule:evenodd;stroke:none"
         transform="matrix(0.13333333,0,0,-0.13333333,0,353.8)" />
      <path
         id="path99"
         d="m 1222.58,232.941 c 0,4.239 -1.72,8.27 -4.66,11.278 -3.01,2.961 -7.06,4.672 -11.29,4.672 -4.22,0 -8.27,-1.711 -11.23,-4.672 -3.01,-3.008 -4.67,-7.039 -4.67,-11.278 0,-4.23 1.66,-8.261 4.67,-11.269 2.96,-2.973 7.01,-4.633 11.23,-4.633 4.23,0 8.28,1.66 11.29,4.633 2.94,3.008 4.66,7.039 4.66,11.269 v 0"
         style="fill:#231f20;fill-opacity:1;fill-rule:evenodd;stroke:none"
         transform="matrix(0.13333333,0,0,-0.13333333,0,353.8)" />
      <path
         id="path100"
         d="m 1281.02,1127.5 c 0,4.23 -1.7,8.26 -4.67,11.26 -3.01,2.97 -7.03,4.67 -11.27,4.67 -4.24,0 -8.26,-1.7 -11.27,-4.67 -2.97,-3 -4.63,-7.03 -4.63,-11.26 0,-4.23 1.66,-8.26 4.63,-11.27 3.01,-2.97 7.03,-4.67 11.27,-4.67 4.24,0 8.26,1.7 11.27,4.67 2.97,3.01 4.67,7.04 4.67,11.27 v 0"
         style="fill:#231f20;fill-opacity:1;fill-rule:evenodd;stroke:none"
         transform="matrix(0.13333333,0,0,-0.13333333,0,353.8)" />
      <path
         id="path101"
         d="m 1339.48,253.859 c 0,4.231 -1.7,8.313 -4.67,11.282 -3.01,3 -7.05,4.66 -11.27,4.66 -4.24,0 -8.26,-1.66 -11.27,-4.66 -2.97,-2.969 -4.67,-7.051 -4.67,-11.282 0,-4.187 1.7,-8.269 4.67,-11.23 3.01,-3.008 7.03,-4.668 11.27,-4.668 4.22,0 8.26,1.66 11.27,4.668 2.97,2.961 4.67,7.043 4.67,11.23 v 0"
         style="fill:#231f20;fill-opacity:1;fill-rule:evenodd;stroke:none"
         transform="matrix(0.13333333,0,0,-0.13333333,0,353.8)" />
      <path
         id="path102"
         d="m 1397.92,1167.09 c 0,4.24 -1.7,8.28 -4.67,11.29 -3.01,2.97 -7.03,4.67 -11.27,4.67 -4.22,0 -8.26,-1.7 -11.27,-4.67 -2.97,-3.01 -4.67,-7.05 -4.67,-11.29 0,-4.22 1.7,-8.25 4.67,-11.26 3.01,-2.96 7.05,-4.62 11.27,-4.62 4.24,0 8.26,1.66 11.27,4.62 2.97,3.01 4.67,7.04 4.67,11.26 v 0"
         style="fill:#231f20;fill-opacity:1;fill-rule:evenodd;stroke:none"
         transform="matrix(0.13333333,0,0,-0.13333333,0,353.8)" />
      <path
         id="path103"
         d="m 1456.37,195.02 c 0,4.191 -1.7,8.261 -4.67,11.23 -3,3.012 -7.05,4.672 -11.27,4.672 -4.23,0 -8.26,-1.66 -11.26,-4.672 -2.97,-2.969 -4.67,-7.039 -4.67,-11.23 0,-4.239 1.7,-8.309 4.67,-11.282 3,-3.008 7.03,-4.668 11.26,-4.668 4.22,0 8.27,1.66 11.27,4.668 2.97,2.973 4.67,7.043 4.67,11.282 v 0"
         style="fill:#231f20;fill-opacity:1;fill-rule:evenodd;stroke:none"
         transform="matrix(0.13333333,0,0,-0.13333333,0,353.8)" />
      <path
         id="path104"
         d="m 1514.81,1139.04 c 0,4.24 -1.68,8.27 -4.67,11.27 -3.01,2.97 -7.03,4.66 -11.27,4.66 -4.22,0 -8.26,-1.69 -11.27,-4.66 -2.97,-3 -4.67,-7.03 -4.67,-11.27 0,-4.23 1.7,-8.25 4.67,-11.27 3.01,-2.97 7.05,-4.67 11.27,-4.67 4.24,0 8.26,1.7 11.27,4.67 2.99,3.02 4.67,7.04 4.67,11.27 v 0"
         style="fill:#231f20;fill-opacity:1;fill-rule:evenodd;stroke:none"
         transform="matrix(0.13333333,0,0,-0.13333333,0,353.8)" />
      <path
         id="path105"
         d="m 1573.23,458.602 c 0,4.187 -1.66,8.257 -4.61,11.23 -3.03,3.008 -7.05,4.668 -11.29,4.668 -4.24,0 -8.26,-1.66 -11.27,-4.668 -2.97,-2.973 -4.67,-7.043 -4.67,-11.23 0,-4.243 1.7,-8.313 4.67,-11.27 3.01,-3.012 7.03,-4.672 11.27,-4.672 4.24,0 8.26,1.66 11.29,4.672 2.95,2.957 4.61,7.027 4.61,11.27 v 0"
         style="fill:#231f20;fill-opacity:1;fill-rule:evenodd;stroke:none"
         transform="matrix(0.13333333,0,0,-0.13333333,0,353.8)" />
      <path
         id="path106"
         d="m 1631.68,560.629 c 0,4.23 -1.68,8.301 -4.66,11.269 -2.97,3.012 -7.02,4.672 -11.25,4.672 -4.22,0 -8.27,-1.66 -11.27,-4.672 -2.97,-2.968 -4.67,-7.039 -4.67,-11.269 0,-4.199 1.7,-8.27 4.67,-11.238 3,-3 7.05,-4.661 11.27,-4.661 4.23,0 8.28,1.661 11.25,4.661 2.98,2.968 4.66,7.039 4.66,11.238 v 0"
         style="fill:#231f20;fill-opacity:1;fill-rule:evenodd;stroke:none"
         transform="matrix(0.13333333,0,0,-0.13333333,0,353.8)" />
      <path
         id="path107"
         d="m 1690.12,1154.34 c 0,4.19 -1.66,8.27 -4.67,11.24 -2.96,2.99 -7.03,4.66 -11.23,4.66 -4.23,0 -8.26,-1.67 -11.27,-4.66 -2.96,-2.97 -4.66,-7.05 -4.66,-11.24 0,-4.23 1.7,-8.31 4.66,-11.27 3.01,-3.01 7.04,-4.67 11.27,-4.67 4.2,0 8.27,1.66 11.23,4.67 3.01,2.96 4.67,7.04 4.67,11.27 v 0"
         style="fill:#231f20;fill-opacity:1;fill-rule:evenodd;stroke:none"
         transform="matrix(0.13333333,0,0,-0.13333333,0,353.8)" />
      <path
         id="path108"
         d="m 1748.58,300.539 c 0,4.223 -1.66,8.262 -4.67,11.27 -2.97,2.961 -7.05,4.66 -11.23,4.66 -4.24,0 -8.32,-1.699 -11.29,-4.66 -3.01,-3.008 -4.67,-7.047 -4.67,-11.27 0,-4.23 1.66,-8.269 4.67,-11.269 2.97,-2.969 7.05,-4.668 11.29,-4.668 4.18,0 8.26,1.699 11.23,4.668 3.01,3 4.67,7.039 4.67,11.269 v 0"
         style="fill:#231f20;fill-opacity:1;fill-rule:evenodd;stroke:none"
         transform="matrix(0.13333333,0,0,-0.13333333,0,353.8)" />
      <path
         id="path109"
         d="m 1807.02,548.879 c 0,4.23 -1.66,8.269 -4.67,11.269 -2.97,2.973 -7.03,4.672 -11.23,4.672 -4.24,0 -8.3,-1.699 -11.27,-4.672 -3.01,-3 -4.67,-7.039 -4.67,-11.269 0,-4.231 1.66,-8.27 4.67,-11.27 2.97,-2.968 7.03,-4.629 11.27,-4.629 4.2,0 8.26,1.661 11.23,4.629 3.01,3 4.67,7.039 4.67,11.27 v 0"
         style="fill:#231f20;fill-opacity:1;fill-rule:evenodd;stroke:none"
         transform="matrix(0.13333333,0,0,-0.13333333,0,353.8)" />
      <path
         id="path110"
         d="m 1865.47,1190.93 c 0,4.23 -1.66,8.26 -4.66,11.26 -2.97,2.97 -7.06,4.67 -11.23,4.67 -4.24,0 -8.33,-1.7 -11.29,-4.67 -3.01,-3 -4.67,-7.03 -4.67,-11.26 0,-4.23 1.66,-8.26 4.67,-11.27 2.96,-2.97 7.05,-4.67 11.29,-4.67 4.17,0 8.26,1.7 11.23,4.67 3,3.01 4.66,7.04 4.66,11.27 v 0"
         style="fill:#231f20;fill-opacity:1;fill-rule:evenodd;stroke:none"
         transform="matrix(0.13333333,0,0,-0.13333333,0,353.8)" />
      <path
         id="path111"
         d="M 0.335938,2070.28 H 1887.64"
         style="fill:none;stroke:#231f20;stroke-width:5;stroke-linecap:butt;stroke-linejoin:miter;stroke-miterlimit:3.25;stroke-dasharray:none;stroke-opacity:1"
         transform="matrix(0.13333333,0,0,-0.13333333,0,353.8)" />
      <path
         id="path112"
         d="M 38.0664,1487.07 V 2653.5"
         style="fill:none;stroke:#231f20;stroke-width:5;stroke-linecap:butt;stroke-linejoin:miter;stroke-miterlimit:3.25;stroke-dasharray:none;stroke-opacity:1"
         transform="matrix(0.13333333,0,0,-0.13333333,0,353.8)" />
      <path
         id="path113"
         d="M 0,693.641 H 1887.29"
         style="fill:none;stroke:#231f20;stroke-width:5;stroke-linecap:butt;stroke-linejoin:miter;stroke-miterlimit:3.25;stroke-dasharray:none;stroke-opacity:1"
         transform="matrix(0.13333333,0,0,-0.13333333,0,353.8)" />
      <path
         id="path114"
         d="M 37.7305,110.43 V 1276.85"
         style="fill:none;stroke:#231f20;stroke-width:5;stroke-linecap:butt;stroke-linejoin:miter;stroke-miterlimit:3.25;stroke-dasharray:none;stroke-opacity:1"
         transform="matrix(0.13333333,0,0,-0.13333333,0,353.8)" />
    </g>
  </g>
</svg>
