<?xml version="1.0" encoding="UTF-8" standalone="no"?>
<!-- Created with Inkscape (http://www.inkscape.org/) -->

<svg
   version="1.1"
   id="svg1"
   width="221.03999"
   height="151.56"
   viewBox="0 0 221.03999 151.56"
   sodipodi:docname="pha08f12.eps"
   xmlns:inkscape="http://www.inkscape.org/namespaces/inkscape"
   xmlns:sodipodi="http://sodipodi.sourceforge.net/DTD/sodipodi-0.dtd"
   xmlns="http://www.w3.org/2000/svg"
   xmlns:svg="http://www.w3.org/2000/svg">
  <defs
     id="defs1" />
  <sodipodi:namedview
     id="namedview1"
     pagecolor="#ffffff"
     bordercolor="#000000"
     borderopacity="0.25"
     inkscape:showpageshadow="2"
     inkscape:pageopacity="0.0"
     inkscape:pagecheckerboard="0"
     inkscape:deskcolor="#d1d1d1">
    <inkscape:page
       x="0"
       y="0"
       inkscape:label="1"
       id="page1"
       width="221.03999"
       height="151.56"
       margin="0"
       bleed="0" />
  </sodipodi:namedview>
  <g
     id="g1"
     inkscape:groupmode="layer"
     inkscape:label="1">
    <g
       id="group-R5">
      <path
         id="path2"
         d="m 1636.21,615.016 h -1.05 l -0.26,0.023 h -0.51 l -0.25,0.027 h -0.53 l -0.27,0.032 h -0.27 l -0.53,0.031 -0.25,0.027 h -0.23 l -1.59,0.086 -0.26,0.031 h -0.26 l -1.03,0.086 -0.53,0.032 h -0.27 l -0.26,0.031 h -0.52 l -0.26,0.027 h -0.25 l -0.53,0.028 h -0.25 l -0.26,0.031 h -1.07 l -0.22,0.027 h -2.88 l -0.26,-0.027 h -1.06 l -0.27,-0.031 h -0.51 l -0.48,-0.028 h -0.24 l -0.22,-0.027 h -0.48 l -0.19,-0.031 h -0.24 l -0.94,-0.032 -0.48,-0.023 -0.22,-0.027 h -0.23 l -1.88,-0.094 -0.94,-0.059 h -0.48 l -0.22,-0.027 h -0.23 l -0.94,-0.031 -0.48,-0.032 h -0.46 l -0.48,-0.027 h -0.46 l -0.48,-0.023 h -1.39 l -0.24,-0.032 h -2.84 l -0.24,0.032 h -1.26 l -0.27,0.023 h -0.72 l -0.27,0.027 h -0.49 l -0.26,0.032 h -0.24 l -0.51,0.031 h -0.51 l -0.5,0.027 -0.25,0.028 h -0.26 l -1.48,0.089 -0.27,0.036 h -0.23 l -2.02,0.113 -1.5,0.086 h -0.26 l -0.27,0.027 -0.49,0.031 h -0.74 l -0.27,0.028 h -0.99 l -0.27,0.031 h -1.48 l -0.27,-0.031 h -1.03 l -0.26,-0.028 h -0.49 l -0.28,-0.031 h -0.52 l -0.23,-0.027 h -0.26 l -0.27,-0.031 h -0.24 l -1.02,-0.086 -0.53,-0.032 -0.27,-0.023 h -0.22 l -1.04,-0.094 -0.51,-0.058 h -0.24 l -0.27,-0.028 -1.02,-0.09 -0.53,-0.027 h -0.24 l -0.25,-0.023 -0.5,-0.032 -0.27,-0.035 h -0.27 l -0.49,-0.027 h -0.26 l -0.26,-0.031 h -0.77 l -0.26,-0.028 h -3.32 l -0.23,0.028 h -0.46 l -0.25,0.031 h -0.46 l -0.23,0.027 h -0.48 l -0.22,0.035 h -0.24 l -0.48,0.032 h -0.22 l -0.24,0.023 -0.96,0.059 -0.48,0.031 -0.22,0.027 h -0.24 l -0.94,0.059 -0.48,0.058 h -0.22 l -0.23,0.036 -1.91,0.113 -1.41,0.086 h -0.23 l -0.23,0.027 h -0.48 l -0.24,0.031 h -0.22 l -0.51,0.028 h -0.46 l -0.23,0.031 h -0.48 l -0.23,0.086 -0.23,-0.086 -0.24,0.027 h -3.25 l -0.26,-0.027 h -0.77 l -0.23,-0.031 h -0.5 l -0.27,-0.028 h -0.26 l -0.23,-0.031 h -0.52 l -0.25,-0.027 -0.49,-0.031 -0.26,-0.028 h -0.26 l -0.51,-0.027 -0.25,-0.031 -0.24,-0.032 -1.03,-0.05 -0.49,-0.067 -0.27,-0.027 h -0.24 l -1.02,-0.086 -0.5,-0.063 h -0.26 l -0.23,-0.027 -1.04,-0.09 -0.49,-0.027 -0.27,-0.031 -0.23,-0.028 -0.52,-0.027 h -0.24 l -0.26,-0.031 h -0.27 l -0.23,-0.032 h -0.49 l -0.25,-0.027 h -0.69 l -0.25,-0.023 h -1.87 l -0.24,0.023 h -0.7 l -0.23,0.027 h -0.46 l -0.25,0.032 h -0.23 l -0.23,0.031 h -0.2 l -0.48,0.027 -0.22,0.028 h -0.24 l -0.7,0.093 h -0.24 l -0.93,0.082 -0.94,0.118 -0.94,0.089 -0.47,0.063 -0.2,0.023 -0.24,0.032 -0.93,0.086 -0.71,0.089 h -0.23 l -0.94,0.086 -0.47,0.059 h -0.23 l -0.24,0.031 -0.46,0.028 h -0.24 l -0.23,0.031 h -0.47 l -0.27,0.027 h -0.71 l -0.22,0.031 h -1.68 l -0.23,-0.031 h -0.71 l -0.23,-0.027 h -0.49 l -0.25,-0.031 h -0.22 l -0.24,-0.028 H 1519 l -0.25,-0.031 h -0.23 l -0.25,-0.027 -0.94,-0.059 -0.71,-0.09 h -0.23 l -0.97,-0.113 -0.47,-0.031 -0.46,-0.055 -1.91,-0.207 -0.97,-0.09 -0.71,-0.09 h -0.23 l -1.03,-0.113 -0.49,-0.031 -0.26,-0.032 h -0.26 l -0.51,-0.027 -0.52,-0.055 h -0.5 l -0.27,-0.035 h -0.23 l -0.27,-0.027 h -0.76 l -0.26,-0.031 h -2.01 l -0.27,0.031 h -0.77 l -0.25,0.027 h -0.24 l -0.26,0.035 h -0.27 l -0.27,0.032 h -0.22 l -0.27,0.023 -0.5,0.027 -0.53,0.063 -0.49,0.027 -0.26,0.028 -0.25,0.031 -1.01,0.117 -0.54,0.059 -0.23,0.031 -0.26,0.027 -1.03,0.153 -0.49,0.05 -0.27,0.032 -0.27,0.058 -3.27,0.41 h -0.24 l -0.7,0.094 h -0.23 l -0.48,0.051 h -0.23 l -0.23,0.031 h -0.24 l -0.24,0.028 h -0.46 l -0.24,0.031 h -2.11 l -0.23,-0.031 h -0.47 l -0.24,-0.028 h -0.22 l -0.24,-0.031 h -0.24 l -0.46,-0.051 h -0.24 l -0.93,-0.125 -0.27,-0.027 -1.4,-0.176 -0.24,-0.059 -0.7,-0.089 -0.23,-0.055 -0.25,-0.031 -1.98,-0.352 -1.04,-0.148 -0.48,-0.086 -0.27,-0.032 -0.24,-0.027 -1.02,-0.148 -0.51,-0.055 -0.22,-0.031 -0.26,-0.032 -0.51,-0.058 -0.27,-0.024 h -0.22 l -0.53,-0.062 h -0.24 l -0.27,-0.031 h -0.75 l -0.24,-0.028 h -1.25 l -0.27,0.028 h -0.49 l -0.24,0.031 h -0.26 l -0.27,0.035 h -0.23 l -0.26,0.027 -0.24,0.024 h -0.26 l -0.27,0.031 -0.24,0.027 -0.25,0.032 -0.24,0.031 -0.26,0.027 -0.51,0.059 -0.25,0.027 -0.24,0.035 -0.53,0.082 -0.24,0.032 -0.25,0.058 -1.85,0.293 -0.94,0.18 -0.47,0.055 -0.24,0.058 -0.19,0.028 -1.88,0.324 -0.94,0.152 -0.45,0.051 -1.39,0.176 -0.48,0.031 -0.22,0.035 h -0.24 l -0.21,0.027 -0.24,0.024 h -0.22 l -0.24,0.031 h -0.48 l -0.22,0.027 h -2.08 l -0.24,-0.027 h -0.46 l -0.24,-0.031 h -0.24 l -0.46,-0.051 h -0.24 l -1.87,-0.242 -0.48,-0.082 -0.25,-0.035 -0.24,-0.028 -0.48,-0.089 -0.22,-0.059 -0.24,-0.027 -0.93,-0.207 -0.48,-0.086 -0.23,-0.055 -0.26,-0.063 -0.94,-0.207 -0.48,-0.117 -0.22,-0.027 -0.23,-0.059 -0.94,-0.207 -0.51,-0.086 -0.46,-0.117 -0.94,-0.176 -0.47,-0.058 -0.23,-0.059 -0.23,-0.031 -0.51,-0.051 -1.17,-0.152 h -0.23 l -0.48,-0.059 h -0.46 l -0.23,-0.031 h -1.23 l -0.27,0.031 h -0.5 l -0.26,0.028 -0.23,0.031 h -0.26 l -0.28,0.027 -0.22,0.031 -0.53,0.059 -0.23,0.059 -0.54,0.058 -0.23,0.059 -0.49,0.086 -0.54,0.117 -0.49,0.09 -0.26,0.058 -0.25,0.086 -1.01,0.235 -0.51,0.148 -0.52,0.117 -2.03,0.555 -1.01,0.266 -0.51,0.117 -0.24,0.058 -0.25,0.059 -0.5,0.117 -0.54,0.117 -0.48,0.086 -0.27,0.067 -0.24,0.023 -0.53,0.09 -0.22,0.027 -0.53,0.059 -0.25,0.027 h -0.26 l -0.25,0.031 h -0.24 l -0.23,0.036 h -0.47 l -0.23,0.023 h -0.45 l -0.23,-0.023 h -0.48 l -0.23,-0.036 h -0.23 l -0.23,-0.031 h -0.24 l -1.4,-0.176 -0.24,-0.05 -0.47,-0.067 -0.23,-0.058 -0.48,-0.086 -0.46,-0.114 -0.47,-0.093 -0.46,-0.117 -0.94,-0.262 -0.71,-0.176 -0.23,-0.09 -0.94,-0.262 -0.47,-0.144 -0.24,-0.063 -0.22,-0.082 -1.88,-0.531 -0.91,-0.265 -0.93,-0.235 -0.51,-0.086 -0.53,-0.113 -0.49,-0.094 -0.24,-0.058 -0.27,-0.028 -0.22,-0.027 -0.26,-0.031 -0.27,-0.055 h -0.24 l -0.27,-0.027 -0.22,-0.036 -0.26,-0.031 h -0.24 l -0.26,-0.027 h -1.51 l -0.26,0.027 h -0.22 l -0.27,0.031 -0.24,0.036 H 1395 l -0.26,0.027 -0.22,0.055 -0.27,0.031 -0.23,0.027 -0.5,0.086 -0.26,0.059 -0.24,0.058 -0.26,0.032 -0.27,0.058 -0.23,0.059 -0.26,0.086 -0.5,0.117 -0.25,0.09 -0.26,0.058 -0.49,0.176 -0.26,0.059 -0.24,0.086 -1.49,0.531 -0.53,0.18 -0.99,0.375 -0.5,0.175 -0.24,0.094 -0.27,0.082 -1.02,0.383 -0.49,0.148 -0.53,0.172 -0.51,0.153 -0.26,0.05 -0.25,0.09 -0.5,0.117 -0.28,0.063 -0.23,0.055 -0.52,0.117 -0.26,0.027 -0.24,0.059 -0.53,0.058 -0.23,0.032 -0.26,0.027 h -0.27 l -0.27,0.031 h -1.26 l -0.26,-0.031 h -0.27 l -0.22,-0.027 -0.53,-0.055 -0.24,-0.035 -0.27,-0.059 -0.25,-0.027 -0.26,-0.059 -0.5,-0.113 -0.54,-0.121 -0.22,-0.086 -0.27,-0.063 -0.26,-0.086 -0.24,-0.089 -1.02,-0.348 -0.54,-0.207 -0.22,-0.086 -0.27,-0.121 -1.03,-0.438 -0.49,-0.207 -0.53,-0.23 -2.82,-1.234 -0.93,-0.348 -0.96,-0.324 -0.48,-0.149 -1.4,-0.351 -0.24,-0.028 -0.23,-0.058 -0.94,-0.114 h -0.23 l -0.23,-0.027 h -1.21 l -0.24,0.027 h -0.22 l -1.18,0.145 -0.47,0.113 -0.23,0.032 -0.71,0.175 -0.23,0.086 -0.23,0.067 -0.48,0.14 -1.16,0.438 -0.24,0.117 -1.02,0.441 -0.5,0.235 -0.27,0.117 -0.24,0.117 -1.02,0.496 -0.49,0.266 -0.26,0.117 -0.24,0.117 -2.02,0.969 -1.03,0.437 -0.49,0.204 -0.27,0.117 -0.23,0.09 -0.51,0.175 -0.25,0.094 -0.27,0.051 -0.5,0.148 -0.27,0.059 -0.22,0.062 -0.27,0.055 -0.23,0.059 -0.54,0.058 -0.23,0.059 -0.26,0.027 h -0.23 l -0.27,0.032 h -1.25 l -0.28,-0.032 -0.22,-0.027 -0.53,-0.059 -0.23,-0.027 -0.54,-0.121 -0.23,-0.051 -0.26,-0.066 -0.23,-0.055 -0.28,-0.09 -0.46,-0.148 -1.17,-0.438 -0.24,-0.113 -0.43,-0.207 -0.24,-0.113 -0.24,-0.094 -0.46,-0.266 -0.48,-0.234 -1.39,-0.789 -0.24,-0.117 -0.24,-0.149 -0.91,-0.551 -0.46,-0.269 -0.48,-0.293 -0.94,-0.527 -0.45,-0.235 -0.25,-0.144 -0.23,-0.114 -0.91,-0.441 -0.46,-0.207 -0.24,-0.117 -0.94,-0.352 -0.24,-0.058 -0.22,-0.09 -0.94,-0.235 -0.48,-0.05 -0.23,-0.067 -0.23,-0.027 h -0.2 l -0.25,-0.031 h -0.96 l -0.24,0.031 h -0.22 l -0.48,0.058 -0.23,0.063 -0.23,0.023 -0.48,0.118 -0.26,0.089 -0.23,0.063 -0.23,0.082 -0.24,0.059 -0.24,0.089 -0.46,0.204 -0.23,0.117 -0.25,0.093 -0.48,0.231 -0.24,0.144 -0.24,0.118 -0.46,0.265 -0.94,0.586 -0.26,0.145 -0.25,0.176 -1.87,1.32 -0.96,0.672 -0.47,0.324 -0.23,0.176 -0.24,0.144 -0.96,0.645 -0.71,0.441 -0.23,0.117 -0.94,0.528 -0.51,0.234 -0.22,0.09 -0.23,0.113 -0.51,0.18 -0.52,0.172 -0.23,0.058 -0.54,0.118 -0.24,0.058 -0.25,0.031 -0.26,0.059 h -0.24 l -0.27,0.035 h -0.75 l -0.27,-0.035 -0.23,-0.031 -0.54,-0.059 -0.22,-0.058 -0.53,-0.118 -0.24,-0.086 -0.79,-0.257 -0.23,-0.125 -0.54,-0.235 -0.22,-0.113 -0.27,-0.113 -0.26,-0.153 -1,-0.617 -0.52,-0.351 -0.25,-0.168 -0.26,-0.18 -1.02,-0.758 -0.5,-0.418 -0.26,-0.203 -0.23,-0.176 -2.06,-1.64 -1.02,-0.762 -0.51,-0.379 -0.25,-0.172 -0.23,-0.183 -1.42,-0.879 -0.94,-0.461 -1.16,-0.446 -0.94,-0.23 -0.71,-0.094 h -0.23 l -0.23,-0.027 h -0.48 l -0.94,0.121 -0.93,0.23 -0.94,0.352 -0.94,0.469 -0.94,0.586 -0.22,0.175 -0.23,0.145 -0.97,0.707 -0.48,0.379 -1.4,1.23 -0.47,0.446 -0.46,0.406 -2.01,1.844 -1.01,0.882 -0.51,0.407 -0.22,0.211 -0.27,0.199 -0.99,0.703 -0.51,0.328 -0.27,0.141 -0.98,0.504 -0.27,0.082 -0.23,0.086 -0.53,0.175 -0.23,0.063 -0.27,0.055 -0.24,0.031 -0.25,0.027 -0.24,0.031 -0.26,0.028 h -0.27 l -0.24,-0.028 h -0.25 l -0.24,-0.031 -0.26,-0.058 -0.24,-0.055 -0.52,-0.113 -0.24,-0.094 -0.26,-0.117 -0.24,-0.082 -0.27,-0.125 -0.26,-0.145 -0.23,-0.117 -0.26,-0.149 -0.24,-0.175 -0.27,-0.145 -0.22,-0.176 -0.27,-0.175 -0.5,-0.411 -0.27,-0.207 -0.22,-0.203 -0.53,-0.465 -0.24,-0.238 -0.27,-0.234 -1.01,-1.055 -0.51,-0.527 -0.25,-0.293 -0.27,-0.266 -1.03,-1.137 -0.49,-0.562 -0.27,-0.289 -0.24,-0.266 -1.02,-1.078 -1.02,-1.031 -1.04,-0.91 -0.78,-0.614 -0.24,-0.175 -0.53,-0.325 -0.25,-0.144 -0.24,-0.149 -0.53,-0.23 -0.24,-0.09 -0.52,-0.176 -0.26,-0.058 -0.24,-0.059 -0.53,-0.058 h -0.75 l -0.28,0.027 -0.26,0.059 -0.22,0.058 -0.27,0.059 -0.53,0.176 -0.24,0.117 -0.26,0.117 -0.52,0.301 -0.24,0.14 -0.27,0.176 -0.26,0.203 -0.23,0.18 -0.26,0.203 -0.26,0.234 -0.48,0.414 -0.46,0.465 -0.48,0.496 -0.46,0.528 -0.97,1.117 -0.71,0.875 -0.22,0.324 -1.91,2.461 -0.94,1.207 -0.71,0.871 -0.22,0.266 -0.94,1.09 -0.48,0.492 -0.23,0.234 -0.26,0.235 -0.47,0.441 -0.24,0.172 -0.23,0.207 -0.47,0.351 -0.7,0.442 -0.7,0.348 -0.23,0.089 -0.25,0.063 -0.26,0.055 -0.24,0.058 -0.7,0.09 h -0.22 l -0.72,-0.09 -0.23,-0.058 -0.26,-0.09 -0.23,-0.086 -0.26,-0.09 -0.28,-0.145 -0.22,-0.117 -0.27,-0.14 -0.26,-0.18 -0.23,-0.18 -0.54,-0.379 -0.23,-0.234 -0.26,-0.234 -0.77,-0.762 -0.22,-0.293 -1.04,-1.203 -0.49,-0.672 -0.26,-0.352 -0.24,-0.351 -1.02,-1.465 -0.51,-0.762 -0.26,-0.383 -0.27,-0.41 -2.01,-3.07 -0.99,-1.469 -0.54,-0.699 -0.24,-0.32 -0.25,-0.36 -1.01,-1.195 -0.75,-0.766 -0.27,-0.234 -0.5,-0.441 -0.52,-0.348 -0.23,-0.18 -0.27,-0.144 -0.23,-0.118 -0.26,-0.117 -0.24,-0.09 -0.7,-0.175 -0.24,-0.028 h -0.47 l -0.71,0.086 -0.23,0.09 -0.23,0.059 -0.23,0.117 -0.24,0.094 -0.7,0.433 -0.21,0.18 -0.24,0.172 -0.46,0.41 -0.46,0.469 -0.24,0.261 -0.48,0.563 -0.46,0.582 -0.47,0.648 -0.46,0.7 -0.94,1.464 -0.48,0.821 -0.23,0.379 -0.23,0.418 -0.94,1.695 -0.7,1.316 -0.2,0.446 -1.88,3.449 -0.94,1.641 -0.7,1.148 -0.23,0.348 -0.94,1.375 -0.51,0.617 -0.22,0.262 -0.24,0.292 -0.71,0.704 -0.23,0.207 -0.26,0.203 -0.24,0.148 -0.24,0.18 -0.7,0.351 -0.24,0.082 -0.22,0.063 -0.26,0.027 -0.24,0.028 h -0.24 l -0.46,-0.055 -0.48,-0.121 -0.22,-0.117 -0.27,-0.117 -0.23,-0.11 -0.71,-0.531 -0.96,-0.969 -0.24,-0.293 -0.48,-0.644 -0.45,-0.668 -0.48,-0.77 -0.49,-0.812 -0.48,-0.887 -0.94,-1.902 -0.49,-0.993 -0.47,-1.058 -0.94,-2.141 -0.49,-1.113 -0.48,-1.113 -2.05,-4.657 -1,-2.168 -0.78,-1.488 -0.23,-0.476 -0.54,-0.879 -0.22,-0.411 -0.27,-0.402 -0.5,-0.711 -0.27,-0.351 -0.52,-0.586 -0.23,-0.258 -0.54,-0.473 -0.23,-0.176 -0.26,-0.175 -0.26,-0.118 -0.23,-0.117 -0.28,-0.09 -0.26,-0.05 -0.25,-0.032 h -0.24 l -0.26,0.032 -0.27,0.05 -0.24,0.09 -0.26,0.117 -0.26,0.149 -0.23,0.144 -0.27,0.204 -0.53,0.476 -0.23,0.293 -0.26,0.285 -0.27,0.36 -0.5,0.726 -0.27,0.41 -0.22,0.414 -0.53,0.934 -0.27,0.5 -0.24,0.523 -0.51,1.114 -0.24,0.558 -0.27,0.614 -0.49,1.234 -0.26,0.641 -0.27,0.675 -1.87,5.188 -1.88,5.387 -0.93,2.613 -0.48,1.262 -0.27,0.578 -0.22,0.617 -0.94,2.262 -0.48,1.019 -0.23,0.496 -0.23,0.473 -0.48,0.875 -0.23,0.414 -0.22,0.379 -0.48,0.703 -0.24,0.328 -0.22,0.293 -0.24,0.258 -0.47,0.469 -0.23,0.175 -0.48,0.293 -0.23,0.118 -0.46,0.117 -0.25,0.027 -0.45,-0.058 -0.24,-0.059 -0.48,-0.234 -0.22,-0.141 -0.24,-0.18 -0.24,-0.207 -0.23,-0.258 -0.26,-0.269 -0.23,-0.293 -0.25,-0.32 -0.23,-0.348 -0.23,-0.387 -0.5,-0.871 -0.24,-0.504 -0.26,-0.527 -0.49,-1.145 -0.26,-0.586 -0.25,-0.644 -0.52,-1.313 -0.23,-0.707 -0.26,-0.73 -0.77,-2.281 -0.23,-0.797 -1.02,-3.313 -0.5,-1.726 -0.25,-0.879 -0.26,-0.879 -1.02,-3.543 -0.5,-1.789 -0.23,-0.879 -0.26,-0.875 -1,-3.402 -0.53,-1.641 -0.24,-0.789 -0.26,-0.758 -1,-2.879 -0.49,-1.289 -0.26,-0.613 -0.27,-0.586 -0.5,-1.055 -0.23,-0.5 -0.26,-0.469 -0.27,-0.402 -0.24,-0.387 -0.26,-0.351 -0.23,-0.324 -0.26,-0.293 -0.27,-0.235 -0.24,-0.203 -0.26,-0.148 -0.23,-0.145 -0.26,-0.094 -0.26,-0.023 -0.25,-0.031 -0.23,0.031 -0.46,0.176 -0.48,0.293 -0.23,0.199 -0.23,0.238 -0.24,0.266 -0.46,0.644 -0.21,0.387 -0.24,0.402 -0.23,0.442 -0.23,0.469 -0.24,0.496 -0.24,0.531 -0.46,1.168 -0.23,0.617 -0.25,0.645 -0.46,1.375 -0.23,0.738 -0.24,0.758 -0.43,1.582 -0.24,0.82 -0.24,0.848 -0.46,1.758 -0.48,1.82 -1.85,7.82 -1.39,6.063 -0.25,1.031 -0.23,0.992 -1.85,7.645 -0.93,3.429 -0.46,1.582 -0.25,0.762 -0.22,0.731 -0.47,1.378 -0.24,0.649 -0.24,0.617 -0.46,1.137 -0.24,0.496 -0.24,0.469 -0.22,0.441 -0.27,0.41 -0.24,0.352 -0.46,0.586 -0.23,0.234 -0.25,0.176 -0.23,0.144 -0.23,0.118 -0.23,0.058 h -0.48 l -0.25,-0.086 -0.24,-0.117 -0.23,-0.148 -0.25,-0.2 -0.22,-0.269 -0.23,-0.293 -0.24,-0.32 -0.24,-0.375 -0.23,-0.446 -0.23,-0.465 -0.24,-0.503 -0.24,-0.555 -0.49,-1.231 -0.23,-0.675 -0.25,-0.731 -0.46,-1.523 -0.23,-0.821 -0.24,-0.875 -0.46,-1.82 -0.24,-0.961 -0.27,-1.004 -0.46,-2.078 -0.48,-2.168 -0.94,-4.656 -0.46,-2.434 -0.23,-1.23 -0.26,-1.258 -0.94,-5.07 -0.94,-5.157 -2.06,-10.636 -1,-4.832 -0.51,-2.227 -0.24,-1.086 -0.26,-1.023 -0.51,-1.934 -0.52,-1.758 -0.5,-1.554 -0.27,-0.703 -0.23,-0.672 -0.26,-0.586 -0.26,-0.559 -0.24,-0.496 -0.27,-0.441 -0.26,-0.379 -0.23,-0.324 -0.26,-0.262 -0.26,-0.207 -0.25,-0.145 -0.26,-0.094 h -0.26 l -0.23,0.036 -0.26,0.117 -0.27,0.172 -0.24,0.238 -0.26,0.293 -0.26,0.352 -0.23,0.41 -0.27,0.496 -0.24,0.531 -0.26,0.613 -0.26,0.645 -0.23,0.73 -0.27,0.793 -0.5,1.727 -0.26,0.965 -0.26,1 -0.51,2.168 -0.26,1.14 -0.23,1.231 -0.52,2.554 -0.25,1.313 -0.26,1.379 -0.49,2.871 -0.26,1.496 -0.27,1.52 -1.87,11.953 -0.94,6.242 -0.48,3.133 -0.22,1.554 -0.24,1.582 -1.87,11.922 -0.91,5.422 -0.47,2.52 -0.48,2.343 -0.46,2.196 -0.23,1.027 -0.24,0.965 -0.47,1.824 -0.23,0.844 -0.24,0.762 -0.24,0.734 -0.22,0.672 -0.24,0.613 -0.23,0.527 -0.25,0.504 -0.22,0.438 -0.23,0.379 -0.25,0.324 -0.23,0.23 -0.23,0.211 -0.23,0.114 -0.24,0.058 h -0.24 l -0.23,-0.058 -0.23,-0.149 -0.24,-0.203 -0.24,-0.265 -0.22,-0.321 -0.24,-0.383 -0.23,-0.468 -0.25,-0.52 -0.22,-0.594 -0.23,-0.636 -0.25,-0.711 -0.5,-1.727 -0.25,-0.969 -0.24,-1.054 -0.26,-1.114 -0.24,-1.171 -0.27,-1.227 -0.25,-1.289 -0.5,-2.785 -0.24,-1.465 -0.27,-1.52 -0.48,-3.226 -0.27,-1.672 -0.24,-1.727 -0.99,-7.296 -0.54,-3.836 -0.22,-1.965 -0.26,-1.992 -1,-8.141 -0.5,-4.133 -0.27,-2.051 -0.24,-2.074 -2.01,-16.062 -0.99,-7.411 -0.51,-3.457 -0.27,-1.64 -0.22,-1.613 -0.5,-3.016 -0.27,-1.442 -0.27,-1.371 -0.48,-2.519 -0.24,-1.172 -0.26,-1.082 -0.51,-1.969 -0.22,-0.875 -0.27,-0.762 -0.26,-0.703 -0.25,-0.644 -0.26,-0.528 -0.22,-0.437 -0.27,-0.383 -0.26,-0.293 -0.25,-0.176 -0.26,-0.089 h -0.25 l -0.27,0.089 -0.23,0.176 -0.27,0.293 -0.27,0.352 -0.26,0.468 -0.23,0.555 -0.26,0.676 -0.26,0.73 -0.25,0.852 -0.26,0.937 -0.26,0.993 -0.49,2.32 -0.28,1.285 -0.26,1.379 -0.26,1.434 -0.23,1.527 -0.26,1.609 -0.27,1.696 -0.5,3.605 -0.26,1.906 -0.26,1.961 -0.51,4.133 -0.26,2.137 -0.23,2.226 -1.03,9.289 -0.52,4.895 -0.26,2.488 -0.24,2.52 -1.02,10.285 -0.53,5.184 -0.25,2.578 -0.26,2.578 -2.04,19.98 -1.03,9.082 -0.49,4.219 -0.28,1.992 -0.26,1.934 -0.46,3.398 -0.23,1.582 -0.25,1.524 -0.46,2.812 -0.23,1.317 -0.25,1.203 -0.45,2.226 -0.24,0.965 -0.24,0.883 -0.23,0.789 -0.23,0.731 -0.24,0.617 -0.24,0.527 -0.26,0.438 -0.23,0.351 -0.23,0.235 -0.25,0.148 -0.22,0.062 -0.24,-0.027 -0.23,-0.152 -0.24,-0.235 -0.24,-0.324 -0.22,-0.437 -0.24,-0.528 -0.24,-0.617 -0.24,-0.73 -0.22,-0.821 -0.24,-0.91 -0.24,-0.992 -0.22,-1.109 -0.24,-1.207 -0.23,-1.262 -0.25,-1.375 -0.26,-1.461 -0.23,-1.559 -0.23,-1.64 -0.24,-1.727 -0.46,-3.691 -0.24,-1.965 -0.24,-2.02 -0.46,-4.3 -0.23,-2.235 -0.25,-2.312 -0.94,-9.84 -0.46,-5.25 -0.23,-2.695 -0.24,-2.723 -0.96,-11.25 -0.48,-5.774 -0.46,-5.855 -2.02,-24.965 -1.01,-11.949 -0.51,-5.688 -0.24,-2.781 -0.26,-2.695 -1,-10.109 -0.53,-4.571 -0.24,-2.137 -0.25,-2.082 -0.5,-3.808 -0.27,-1.754 -0.24,-1.645 -0.25,-1.519 -0.27,-1.438 -0.23,-1.316 -0.27,-1.176 -0.27,-1.054 -0.22,-0.965 -0.27,-0.821 -0.23,-0.675 -0.27,-0.555 -0.27,-0.442 -0.23,-0.292 -0.26,-0.176 -0.26,-0.028 -0.24,0.086 -0.27,0.235 -0.23,0.383 -0.26,0.496 -0.26,0.617 -0.23,0.789 -0.28,0.879 -0.26,1.054 -0.23,1.172 -0.26,1.285 -0.23,1.442 -0.28,1.551 -0.26,1.672 -0.23,1.816 -0.26,1.934 -0.51,4.191 -0.26,2.281 -0.22,2.403 -0.53,5.097 -0.25,2.696 -0.26,2.816 -0.94,11.101 -0.46,5.977 -0.23,3.074 -0.25,3.137 -0.9,13.035 -0.46,6.738 -0.25,3.43 -0.23,3.457 -1.88,27.922 -0.93,13.766 -0.46,6.711 -0.22,3.281 -0.22,3.258 -0.95,12.445 -0.46,5.832 -0.24,2.809 -0.24,2.726 -0.92,10.106 -0.472,4.484 -0.246,2.109 -0.234,1.996 -0.458,3.629 -0.246,1.676 -0.195,1.516 -0.234,1.437 -0.235,1.317 -0.242,1.172 -0.226,1.054 -0.235,0.938 -0.234,0.824 -0.242,0.672 -0.227,0.555 -0.234,0.41 -0.235,0.293 -0.242,0.148 h -0.226 l -0.235,-0.117 -0.234,-0.231 -0.242,-0.414 -0.227,-0.527 -0.234,-0.703 -0.262,-0.82 -0.246,-0.938 -0.234,-1.113 -0.223,-1.231 -0.235,-1.347 -0.246,-1.524 -0.234,-1.64 -0.223,-1.758 -0.234,-1.906 -0.273,-2.016 -0.235,-2.168 -0.461,-4.664 -0.242,-2.52 -0.234,-2.636 -0.461,-5.594 -0.242,-2.961 -0.266,-3.074 -0.457,-6.418 -0.234,-3.367 -0.247,-3.43 -0.457,-7.117 -0.234,-3.692 -0.246,-3.75 -1.902,-31.965 -0.957,-16.812 -0.95,-16.875 -1.894,-32.699 -0.965,-15.117 -0.481,-7.118 -0.222,-3.429 -0.235,-3.34 -1.027,-13.153 -0.496,-5.8 -0.273,-2.696 -0.266,-2.55 -0.488,-4.629 -0.262,-2.11 -0.246,-1.902 -0.262,-1.789 -0.265,-1.586 -0.223,-1.43 -0.266,-1.261 -0.261,-1.082 -0.247,-0.879 -0.261,-0.735 -0.254,-0.558 -0.235,-0.348 -0.265,-0.176 h -0.274 l -0.261,0.199 -0.227,0.356 -0.262,0.559 -0.265,0.761 -0.242,0.938 -0.266,1.113 -0.262,1.285 -0.226,1.469 -0.262,1.664 -0.266,1.852 -0.242,1.992 -0.266,2.199 -0.253,2.34 -0.235,2.547 -0.262,2.668 -0.273,2.871 -0.266,3.019 -0.488,6.473 -0.262,3.457 -0.246,3.605 -0.527,7.645 -0.223,3.984 -0.265,4.133 -1.024,17.637 -0.5,9.402 -0.261,4.801 -0.274,4.926 -0.988,20.187 -0.535,10.371 -0.227,5.215 -0.262,5.242 -1.875,38.528 -0.937,18.574 -0.481,8.934 -0.234,4.367 -0.223,4.304 -0.937,16.289 -0.481,7.563 -0.222,3.629 -0.235,3.488 -0.48,6.621 -0.234,3.137 -0.223,2.984 -0.481,5.567 -0.234,2.578 -0.223,2.437 -0.48,4.36 -0.223,1.965 -0.234,1.82 -0.234,1.605 -0.247,1.5 -0.234,1.289 -0.254,1.137 -0.234,0.969 -0.242,0.793 -0.235,0.613 -0.226,0.438 -0.235,0.265 -0.242,0.086 -0.234,-0.086 -0.227,-0.265 -0.234,-0.438 -0.242,-0.613 -0.235,-0.793 -0.226,-0.996 -0.235,-1.137 -0.242,-1.324 -0.234,-1.524 -0.227,-1.671 -0.234,-1.844 -0.242,-2.024 -0.235,-2.168 -0.226,-2.371 -0.235,-2.519 -0.242,-2.66 -0.234,-2.844 -0.227,-2.992 -0.508,-6.914 -0.261,-3.719 -0.227,-3.863 -0.496,-8.239 -0.266,-4.336 -0.273,-4.48 -0.488,-9.348 -0.235,-4.863 -0.261,-4.977 -0.508,-10.316 -0.254,-5.297 -0.235,-5.426 -1.027,-22.355 -0.496,-11.57 -0.246,-5.832 -0.262,-5.887 -0.996,-23.703 -0.488,-11.864 -0.528,-11.781 -1.992,-45.027 -1.035,-20.449 -0.488,-9.493 -0.235,-4.539 -0.265,-4.394 -0.508,-8.352 -0.254,-3.953 -0.234,-3.75 -0.535,-7.031 -0.235,-3.223 -0.254,-3.047 -0.5,-5.507 -0.273,-2.465 -0.235,-2.254 -0.253,-2.047 -0.235,-1.848 -0.262,-1.64 -0.246,-1.407 -0.261,-1.203 -0.266,-0.996 -0.254,-0.762 -0.234,-0.523 -0.274,-0.297 -0.261,-0.058 -0.266,0.175 -0.223,0.41 -0.265,0.649 -0.262,0.906 -0.273,1.113 -0.235,1.344 -0.265,1.551 -0.254,1.82 -0.262,2.055 -0.234,2.254 -0.274,2.488 -0.266,2.695 -0.253,2.93 -0.235,3.137 -0.262,3.371 -0.273,3.543 -0.266,3.75 -0.234,3.957 -0.516,8.492 -0.265,4.508 -0.242,4.723 -0.52,9.902 -0.262,5.184 -0.234,5.332 -1.027,22.765 -0.528,12.094 -0.273,6.215 -0.235,6.297 -1.023,25.992 -0.527,13.355 -0.254,6.711 -0.235,6.766 -2.062,53.848 -1.016,25.929 -0.535,12.481 -0.265,6.097 -0.223,5.977 -0.969,20.941 -0.476,9.727 -0.235,4.687 -0.226,4.512 -0.477,8.613 -0.234,4.075 -0.227,3.894 -0.476,7.301 -0.235,3.398 -0.265,3.188 -0.457,5.894 -0.247,2.633 -0.234,2.461 -0.223,2.258 -0.234,2.055 -0.246,1.875 -0.223,1.632 -0.234,1.473 -0.234,1.231 -0.247,1.019 -0.234,0.82 -0.223,0.614 -0.265,0.386 -0.242,0.172 -0.235,-0.027 -0.226,-0.238 -0.235,-0.469 -0.242,-0.695 -0.234,-0.887 -0.227,-1.113 -0.234,-1.317 -0.242,-1.523 -0.235,-1.754 -0.226,-1.938 -0.235,-2.168 -0.261,-2.375 -0.247,-2.543 -0.222,-2.789 -0.235,-2.957 -0.246,-3.164 -0.234,-3.34 -0.457,-7.265 -0.234,-3.899 -0.247,-4.093 -0.457,-8.68 -0.246,-4.57 -0.234,-4.746 -0.488,-9.961 -0.235,-5.18 -0.242,-5.336 -0.461,-11.074 -0.234,-5.715 -0.242,-5.828 -2.012,-53.848 -1.035,-28.683 -0.489,-14.524 -0.265,-7.301 -0.242,-7.297 -2.043,-57.363 -0.996,-27.097 -0.528,-12.95 -0.242,-6.3 -0.266,-6.153 -0.996,-23.144 -0.527,-10.606 -0.223,-5.035 -0.265,-4.84 -0.508,-9.109 -0.262,-4.246 -0.265,-4.043 -0.489,-7.442 -0.261,-3.398 -0.247,-3.164 -0.253,-2.93 -0.262,-2.695 -0.235,-2.461 -0.265,-2.227 -0.242,-1.965 -0.266,-1.726 -0.254,-1.469 -0.234,-1.23 -0.262,-0.965 -0.273,-0.731 -0.235,-0.468 -0.254,-0.207 -0.265,0.031 -0.235,0.32 -0.273,0.559 -0.262,0.789 -0.226,0.996 -0.235,1.172 -0.234,1.41 -0.242,1.609 -0.227,1.848 -0.203,2.02 -0.246,2.253 -0.235,2.457 -0.457,5.543 -0.246,3.075 -0.234,3.222 -0.223,3.457 -0.234,3.633 -0.246,3.84 -0.235,4.012 -0.937,17.785 -0.457,9.871 -0.246,5.187 -0.235,5.332 -0.937,22.649 -0.457,12.094 -0.246,6.183 -0.235,6.324 -1.875,53.5 -0.937,28.067 -0.43,14.211 -0.242,7.09 -0.234,7.125 -1.867,56.007 -0.946,26.786 -0.461,12.882 -0.242,6.301 -0.234,6.211 -0.996,25.254 -0.489,11.746 -0.265,5.625 -0.242,5.449 -0.528,10.344 -0.226,4.891 -0.262,4.687 -0.508,8.797 -0.226,4.094 -0.262,3.871 -0.5,7.059 -0.274,3.195 -0.234,2.957 -0.254,2.723 -0.234,2.523 -0.262,2.254 -0.246,1.992 -0.262,1.785 -0.226,1.524 -0.262,1.261 -0.234,1.032 -0.274,0.754 -0.266,0.527 -0.222,0.269 -0.266,0.024 -0.234,-0.234 -0.274,-0.497 -0.222,-0.73 -0.266,-1 -0.234,-1.258 -0.262,-1.492 -0.273,-1.727 -0.235,-1.996 -0.254,-2.258 -0.234,-2.46 -0.266,-2.723 -0.242,-2.961 -0.266,-3.188 -0.222,-3.402 -0.266,-3.66 -0.262,-3.863 -0.507,-8.387 -0.227,-4.539 -0.262,-4.719 -0.507,-10.047 -0.235,-5.304 -0.254,-5.508 -0.5,-11.535 -0.273,-6.012 -0.235,-6.176 -0.488,-12.867 -0.262,-6.621 -0.246,-6.762 -2.039,-59.355 -1.035,-31.649 -0.488,-16.082 -0.527,-16.172 -2.024,-64.07 -1.035,-30.77 -0.516,-14.847 -0.234,-7.238 -0.266,-7.145 -1.023,-27.16 -0.508,-12.66 -0.262,-6.09 -0.261,-5.918 -1.028,-21.711 -0.496,-9.668 -0.258,-4.512 -0.234,-4.281 -0.531,-7.875 -0.266,-3.574 -0.234,-3.371 -0.258,-3.106 -0.266,-2.867 -0.238,-2.609 -0.266,-2.375 -0.261,-2.11 -0.258,-1.875 -0.234,-1.582 -0.274,-1.347 -0.262,-1.082 -0.23,-0.793 -0.266,-0.555 -0.258,-0.293 -0.246,-0.031 -0.226,0.207 -0.238,0.437 -0.227,0.645 -0.246,0.879 -0.231,1.082 -0.23,1.324 -0.231,1.551 -0.246,1.757 -0.226,1.993 -0.238,2.226 -0.227,2.399 -0.246,2.64 -0.231,2.871 -0.23,3.047 -0.231,3.282 -0.472,7.148 -0.238,3.867 -0.258,4.07 -0.473,8.731 -0.234,4.629 -0.231,4.836 -0.472,10.164 -0.235,5.332 -0.23,5.508 -0.473,11.488 -0.234,5.973 -0.231,6.121 -0.937,25.812 -0.473,13.625 -0.234,6.973 -0.231,7.09 -0.937,29.207 -0.473,15.058 -0.234,7.618 -0.258,7.675 -1.879,62.403 -0.934,31.234 -0.472,15.406 -0.239,7.649 -0.23,7.586 -2.027,61.968 -0.989,28.063 -0.531,13.125 -0.234,6.332 -0.258,6.121 -1,22.648 -0.524,10.106 -0.246,4.746 -0.257,4.516 -0.5,8.371 -0.258,3.84 -0.242,3.574 -0.266,3.371 -0.231,3.101 -0.261,2.872 -0.258,2.609 -0.234,2.375 -0.274,2.105 -0.262,1.852 -0.23,1.578 -0.262,1.348 -0.234,1.054 -0.27,0.821 -0.261,0.527 -0.235,0.297 h -0.258 l -0.234,-0.27 -0.273,-0.496 -0.258,-0.793 -0.239,-1.054 -0.261,-1.317 -0.231,-1.582 -0.273,-1.847 -0.258,-2.11 -0.492,-4.98 -0.266,-2.871 -0.242,-3.133 -0.266,-3.371 -0.226,-3.633 -0.524,-7.969 -0.246,-4.336 -0.261,-4.57 -0.496,-9.844 -0.258,-5.238 -0.235,-5.453 -0.937,-21.914 -0.473,-11.953 -0.23,-6.211 -0.235,-6.36 -0.937,-26.777 -0.445,-14.145 -0.227,-7.242 -0.246,-7.351 -0.938,-30.352 -0.464,-15.668 -0.227,-7.945 -0.246,-7.965 -0.938,-32.438 -0.433,-16.375 -0.473,-16.464 -1.875,-65.391 -0.937,-31.73 -0.43,-15.438 -0.234,-7.59 -0.243,-7.527 -1.875,-56.078 -0.933,-24.84 -0.438,-11.457 -0.242,-5.504 -0.23,-5.305 -0.465,-10.281 -0.274,-4.867 -0.226,-4.656 -0.465,-8.704 -0.234,-4.043 -0.243,-3.835 -0.461,-7.032 -0.246,-3.164 -0.226,-2.961 -0.266,-2.758 -0.234,-2.488 -0.231,-2.281 -0.242,-2.024 -0.23,-1.812 -0.235,-1.582 -0.23,-1.356 -0.242,-1.078 -0.231,-0.851 -0.23,-0.645 -0.235,-0.379 -0.273,-0.148 -0.231,0.121 -0.23,0.32 -0.231,0.586 -0.246,0.817 -0.226,1.086 -0.238,1.289 -0.227,1.554 -0.246,1.758 -0.231,2.02 -0.261,2.258 -0.231,2.488 -0.234,2.699 -0.238,2.957 -0.235,3.16 -0.23,3.403 -0.235,3.605 -0.472,7.906 -0.231,4.25 -0.262,4.481 -0.472,9.582 -0.238,5.097 -0.227,5.301 -0.938,23.059 -0.472,12.566 -0.266,6.563 -0.23,6.711 -0.938,28.359 -0.472,15 -0.235,7.703 -0.23,7.824 -2.055,70.899 -1.019,37.347 -0.504,18.93 -0.262,9.5 -0.231,9.485 -2.062,75.503 -0.984,36.528 -0.536,17.754 -0.23,8.73 -0.262,8.586 -1.027,33.133 -0.496,15.707 -0.274,7.586 -0.226,7.441 -1.024,27.918 -0.504,12.774 -0.261,6.066 -0.258,5.859 -0.508,11.075 -0.262,5.183 -0.23,4.953 -0.524,9.168 -0.246,4.223 -0.257,3.98 -0.493,7.18 -0.265,3.192 -0.262,2.964 -0.246,2.661 -0.258,2.402 -0.266,2.144 -0.261,1.875 -0.231,1.489 -0.242,1.23 -0.23,1.031 -0.235,0.786 -0.23,0.527 -0.242,0.324 -0.231,0.09 -0.23,-0.172 -0.235,-0.418 -0.242,-0.613 -0.199,-0.875 -0.231,-1.117 -0.246,-1.321 -0.226,-1.582 -0.239,-1.785 -0.226,-2.051 -0.234,-2.257 -0.243,-2.489 -0.23,-2.726 -0.231,-2.957 -0.246,-3.164 -0.226,-3.371 -0.239,-3.598 -0.226,-3.844 -0.477,-8.262 -0.23,-4.445 -0.231,-4.664 -0.472,-9.934 -0.239,-5.242 -0.226,-5.449 -0.938,-23.613 -0.472,-12.863 -0.239,-6.672 -0.226,-6.832 -0.938,-28.825 -0.472,-15.238 -0.239,-7.793 -0.226,-7.941 -0.938,-32.782 -0.472,-16.992 -0.239,-8.609 -0.226,-8.676 -0.938,-35.355 -0.472,-17.996 -0.239,-9.024 -0.226,-9.078 -4.043,-153.84 -1.996,-69.933 -0.996,-31.704 -0.524,-14.847 -0.234,-7.149 -0.266,-7.004 -0.996,-25.957 -0.508,-11.718 -0.257,-5.567 -0.235,-5.301 -0.523,-9.96 -0.242,-4.629 -0.258,-4.399 -0.496,-8.082 -0.235,-3.66 -0.265,-3.402 -0.266,-3.164 -0.234,-2.899 -0.258,-2.668 -0.234,-2.402 -0.504,-3.985 -0.262,-1.613 -0.266,-1.344 -0.23,-1.085 -0.274,-0.821 -0.226,-0.554 -0.266,-0.27 -0.23,-0.023 -0.262,0.261 -0.273,0.528 -0.231,0.789 -0.266,1.058 -0.257,1.348 -0.235,1.641 -0.261,1.898 -0.274,2.172 -0.262,2.433 -0.23,2.696 -0.262,2.988 -0.535,6.738 -0.23,3.75 -0.262,4.016 -0.262,4.269 -0.234,4.52 -0.274,4.773 -0.261,5.008 -0.496,10.723 -0.258,5.715 -0.262,5.949 -0.504,12.566 -0.266,6.59 -0.257,6.801 -0.496,14.23 -0.274,7.387 -0.262,7.613 -0.492,15.708 -0.262,8.148 -0.273,8.289 -2.047,71.484 -0.996,38.524 -0.523,19.777 -0.262,9.988 -0.234,10.024 -2.055,81.531 -1.031,40.781 -0.524,20.215 -0.23,10.02 -0.262,9.961 -1.906,71.074 -0.938,33.309 -0.472,15.968 -0.235,7.793 -0.23,7.645 -0.938,29.211 -0.472,13.679 -0.235,6.594 -0.258,6.414 -0.937,23.969 -0.481,10.867 -0.226,5.156 -0.231,4.95 -0.48,9.32 -0.231,4.363 -0.226,4.133 -0.481,7.648 -0.226,3.512 -0.231,3.309 -0.507,5.918 -0.231,2.636 -0.234,2.438 -0.231,2.189 -0.242,1.97 -0.23,1.72 -0.235,1.53 -0.23,1.29 -0.242,1.05 -0.231,0.82 -0.23,0.59 -0.235,0.38 -0.242,0.12 -0.23,-0.09 -0.235,-0.32 -0.258,-0.56 -0.246,-0.79 -0.226,-1.02 -0.239,-1.24 -0.226,-1.46 -0.234,-1.7 -0.243,-1.94 -0.23,-2.16 -0.266,-2.551 -0.23,-2.812 -0.274,-3.047 -0.226,-3.313 -0.266,-3.57 -0.265,-3.813 -0.227,-4.043 -0.273,-4.304 -0.497,-9.317 -0.257,-4.98 -0.262,-5.246 -0.508,-11.133 -0.23,-5.887 -0.262,-6.125 -1.027,-26.508 -0.493,-14.418 -0.265,-7.5 -0.242,-7.675 -1.016,-32.375 -0.504,-17.102 -0.266,-8.762 -0.23,-8.91 -2.027,-75.433 -1.016,-39.848 -0.504,-20.277 -0.266,-10.188 -0.226,-10.262 -2.027,-82.41 -1.02,-40.84 -0.504,-20.156 -0.266,-9.988 -0.261,-9.906 -1.84,-70.43 -0.938,-32.93 -0.472,-15.789 -0.239,-7.676 -0.226,-7.589 -0.938,-28.86 -0.472,-13.562 -0.239,-6.532 -0.226,-6.386 -0.91,-23.852 -0.473,-10.863 -0.234,-5.188 -0.231,-4.98 -0.472,-9.406 -0.235,-4.422 -0.23,-4.219 -0.473,-7.852 -0.23,-3.601 -0.235,-3.43 -0.472,-6.238 -0.235,-2.816 -0.23,-2.61 -0.242,-2.367 -0.231,-2.199 -0.234,-1.965 -0.231,-1.754 -0.242,-1.527 -0.23,-1.317 -0.231,-1.113 -0.234,-0.91 -0.215,-0.672 -0.231,-0.469 -0.226,-0.234 -0.234,-0.031 -0.247,0.171 -0.226,0.415 -0.231,0.617 -0.234,0.82 -0.246,1.055 -0.231,1.258 -0.226,1.46 -0.234,1.704 -0.247,1.933 -0.226,2.168 -0.231,2.375 -0.265,2.578 -0.242,2.813 -0.231,3.011 -0.234,3.258 -0.231,3.43 -0.472,7.527 -0.231,4.043 -0.262,4.278 -0.472,9.113 -0.239,4.859 -0.226,5.035 -0.938,22.067 -0.507,12.098 -0.231,6.3 -0.234,6.473 -0.934,27.48 -0.508,14.676 -0.226,7.531 -0.231,7.707 -1.91,65.887 -0.937,35.481 -0.493,18.222 -0.246,9.223 -0.226,9.293 -1.906,76.141 -0.938,38.789 -0.492,19.425 -0.481,19.395 -2.011,81.824 -1.032,39.524 -0.492,19.246 -0.261,9.468 -0.274,9.375 -2.012,70.571 -1.031,31.847 -0.523,14.942 -0.235,7.207 -0.265,7.031 -1.024,26.25 -0.504,11.953 -0.261,5.653 -0.262,5.484 -0.496,10.284 -0.27,4.83 -0.23,4.6 -0.524,8.55 -0.234,3.96 -0.273,3.72 -0.524,6.74 -0.234,3.02 -0.258,2.78 -0.266,2.55 -0.238,2.31 -0.266,2.08 -0.261,1.85 -0.231,1.61 -0.261,1.37 -0.274,1.12 -0.262,0.88 -0.23,0.64 -0.266,0.41 -0.258,0.15 -0.246,-0.09 -0.226,-0.29 -0.238,-0.47 -0.227,-0.71 -0.246,-0.9 -0.231,-1.12 -0.226,-1.32 -0.235,-1.49 -0.246,-1.73 -0.226,-1.9 -0.266,-2.11 -0.23,-2.32 -0.235,-2.48 -0.238,-2.73 -0.234,-2.9 -0.231,-3.08 -0.234,-3.27 -0.473,-7.13 -0.23,-3.86 -0.235,-4.01 -0.472,-8.61 -0.231,-4.58 -0.234,-4.749 -0.473,-9.988 -0.23,-5.273 -0.235,-5.414 -0.472,-11.344 -0.231,-5.918 -0.234,-6.066 -0.938,-25.747 -0.472,-13.738 -0.231,-7.066 -0.234,-7.207 -0.938,-30.032 -0.472,-15.726 -0.231,-8.031 -0.234,-8.118 -1.875,-68.226 -0.965,-35.918 -0.477,-18.254 -0.461,-18.457 -4.023,-160.758 -2.012,-77.898 -1.004,-37.235 -0.519,-18.078 -0.234,-8.875 -0.274,-8.761 -2.012,-65.77 -1.004,-29.531 -0.492,-13.864 -0.261,-6.675 -0.243,-6.504 -1.019,-24.289 -0.5,-11.071 -0.266,-5.246 -0.23,-5.066 -0.508,-9.555 -0.258,-4.48 -0.266,-4.305 -0.492,-7.969 -0.242,-3.691 -0.262,-3.488 -0.461,-5.86 -0.246,-2.695 -0.226,-2.488 -0.231,-2.317 -0.207,-2.136 -0.242,-1.965 -0.23,-1.758 -0.235,-1.61 -0.23,-1.406 -0.242,-1.23 -0.231,-1.059 -0.23,-0.847 -0.235,-0.708 -0.242,-0.492 -0.23,-0.293 -0.235,-0.152 -0.23,0.062 -0.207,0.235 -0.239,0.414 -0.226,0.613 -0.234,0.762 -0.243,0.965 -0.23,1.144 -0.231,1.317 -0.246,1.523 -0.226,1.672 -0.239,1.875 -0.226,2.02 -0.234,2.23 -0.243,2.398 -0.199,2.551 -0.476,5.653 -0.231,3.078 -0.234,3.25 -0.473,7 -0.23,3.75 -0.235,3.898 -0.472,8.32 -0.231,4.399 -0.23,4.539 -0.45,9.551 -0.226,5.008 -0.231,5.156 -0.937,22.062 -0.481,11.836 -0.226,6.121 -0.231,6.27 -0.91,26.277 -0.472,13.832 -0.235,7.117 -0.23,7.176 -1.903,62.434 -0.937,33.34 -0.481,17.113 -0.226,8.664 -0.231,8.707 -1.91,71.453 -0.933,36.508 -0.477,18.367 -0.262,9.199 -0.23,9.2 -3.781,144.726 -1.907,67.938 -0.933,32.14 -0.465,15.528 -0.246,7.617 -0.231,7.5 -2.043,59.91 -1.003,26.574 -0.52,12.399 -0.238,5.945 -0.266,5.801 -1,21.5 -0.523,9.73 -0.235,4.59 -0.258,4.43 -0.503,8.32 -0.262,3.87 -0.266,3.72 -0.492,6.82 -0.273,3.14 -0.231,2.96 -0.527,5.33 -0.231,2.37 -0.273,2.2 -0.258,1.99 -0.234,1.79 -0.262,1.61 -0.262,1.41 -0.242,1.23 -0.266,1.02 -0.257,0.82 -0.231,0.62 -0.262,0.44 -0.265,0.24 -0.242,0.05 -0.258,-0.15 -0.266,-0.35 -0.23,-0.52 -0.262,-0.74 -0.273,-0.94 -0.231,-1.1 -0.266,-1.33 -0.226,-1.48 -0.266,-1.71 -0.261,-1.88 -0.243,-2.07 -0.261,-2.26 -0.262,-2.43 -0.231,-2.64 -0.265,-2.81 -0.27,-2.99 -0.23,-3.19 -0.465,-6.33 -0.246,-3.37 -0.231,-3.55 -0.461,-7.5 -0.242,-3.98 -0.23,-4.13 -0.465,-8.64 -0.238,-4.54 -0.239,-4.66 -0.461,-9.75 -0.246,-5.08 -0.226,-5.213 -0.942,-22.031 -0.461,-11.743 -0.242,-6.039 -0.23,-6.175 -0.942,-25.7 -0.461,-13.476 -0.242,-6.883 -0.23,-6.977 -1.875,-58.914 -0.942,-31.23 -0.461,-15.996 -0.242,-8.059 -0.23,-8.144 -1.875,-66.621 -0.91,-34.043 -0.465,-17.137 -0.473,-17.168 -4.015,-145.871 -2.024,-69.199 -0.988,-32.961 -0.5,-15.992 -0.266,-7.883 -0.23,-7.762 -2.028,-58.566 -1,-26.629 -0.492,-12.598 -0.258,-6.094 -0.234,-5.976 -1.031,-22.563 -0.504,-10.457 -0.231,-5.035 -0.261,-4.867 -0.996,-18.078 -0.493,-8.114 -0.265,-3.836 -0.242,-3.695 -0.524,-7.027 -0.234,-3.285 -0.258,-3.106 -0.531,-5.738 -0.239,-2.609 -0.261,-2.461 -0.492,-4.391 -0.274,-1.938 -0.262,-1.785 -0.261,-1.609 -0.235,-1.469 -0.058,-0.293 h -4.012 l -0.031,0.149 -0.258,1.406 -0.234,1.582 -0.274,1.727 -0.262,1.906 -0.23,2.051 -0.266,2.222 -0.258,2.375 -0.265,2.551 -0.238,2.695 -0.262,2.84 -0.496,6.184 -0.262,3.308 -0.273,3.453 -0.497,7.36 -0.261,3.922 -0.258,4.043 -1.031,17.613 -0.492,9.637 -0.274,5.007 -0.262,5.129 -1,21.856 -0.519,11.66 -0.266,5.973 -0.23,6.125 -1.903,48.429 -0.937,26.192 -0.481,13.535 -0.226,6.883 -0.231,6.945 -1.875,57.656 -0.968,30.028 -0.477,15.238 -0.465,15.406 -3.75,126.043 -1.902,63.156 -0.942,31.114 -0.46,15.418 -0.243,7.64 -0.23,7.617 -2.027,63.543 -1.016,30.383 -0.508,14.793 -0.23,7.274 -0.258,7.207 -2.031,54.668 -1.016,25.16 -0.504,11.98 -0.234,5.86 -0.262,5.75 -0.996,21.855 -0.524,10.277 -0.246,4.982 -0.257,4.83 -0.993,18.25 -0.531,8.42 -0.234,4.01 -0.258,3.89 -1,14.33 -0.524,6.39 -0.246,3.01 -0.257,2.88 -0.493,5.36 -0.265,2.48 -0.242,2.38 -0.524,4.3 -0.234,1.97 -0.258,1.82 -0.477,3.04 -0.168,1 h -5.425 l -0.2,-1.32 -0.234,-1.44 -0.246,-1.55 -0.231,-1.67 -0.226,-1.79 -0.234,-1.87 -0.473,-4.07 -0.231,-2.2 -0.234,-2.29 -0.477,-4.89 -0.226,-2.61 -0.234,-2.69 -0.473,-5.69 -0.231,-2.98 -0.234,-3.1 -0.445,-6.45 -0.231,-3.4 -0.242,-3.46 -0.937,-14.77 -0.465,-7.91 -0.231,-4.1 -0.242,-4.15 -0.937,-17.527 -0.465,-9.227 -0.231,-4.746 -0.215,-4.805 -1.902,-41.894 -0.957,-22.582 -0.477,-11.668 -0.226,-5.918 -0.234,-5.973 -1.907,-49.691 -0.937,-25.899 -0.5,-13.183 -0.239,-6.649 -0.226,-6.68 -3.816,-109.976 -1.868,-55.992 -0.972,-27.887 -0.465,-13.895 -0.473,-13.824 -4.07,-114.551 -2.047,-53.289 -0.996,-25.312 -0.527,-12.305 -0.243,-6.035 -0.261,-5.977 -2.016,-45.324 -1.027,-20.863 -0.528,-9.957 -0.238,-4.863 -0.266,-4.746 -1.027,-18.254 -0.492,-8.582 -0.262,-4.188 -0.234,-4.074 -1.024,-15.41 -0.507,-7.149 -0.266,-3.425 -0.258,-3.34 -0.937,-11.512 -0.465,-5.277 -0.242,-2.516 -0.231,-2.434 -0.465,-4.601 -0.242,-2.172 -0.23,-2.105 -0.465,-3.926 -0.242,-1.844 -0.231,-1.758 -0.465,-3.281 -0.242,-1.496 -0.23,-1.434 -0.231,-1.32 -0.234,-1.262 -0.242,-1.168 -0.231,-1.086 -0.234,-0.996 -0.231,-0.906 -0.242,-0.856 -0.23,-0.726 -0.235,-0.676 -0.23,-0.586 -0.242,-0.469 -0.231,-0.41 -0.23,-0.351 -0.235,-0.239 -0.242,-0.14 -0.23,-0.086 -0.235,0.027 -0.23,0.086 -0.242,0.176 -0.231,0.234 -0.234,0.348 -0.231,0.418 -0.242,0.496 -0.23,0.586 -0.231,0.672 -0.234,0.762 -0.242,0.816 -0.231,0.914 -0.465,2.051 -0.242,1.14 -0.23,1.231 -0.235,1.293 -0.23,1.402 -0.242,1.438 -0.231,1.551 -0.465,3.281 -0.242,1.789 -0.23,1.816 -0.465,3.926 -0.242,2.051 -0.231,2.137 -1.031,9.96 -0.492,5.481 -0.231,2.871 -0.262,2.93 -0.996,12.508 -0.507,6.71 -0.258,3.457 -0.266,3.543 -0.996,14.825 -0.496,7.824 -0.262,4.043 -0.242,4.07 -1.016,16.934 -0.507,8.847 -0.231,4.512 -0.265,4.57 -2.024,38.469 -0.988,20.418 -0.5,10.488 -0.266,5.305 -0.23,5.36 -2.028,44.121 -1,22.851 -0.492,11.602 -0.258,5.832 -0.265,5.859 -4.102,97.938 -2.031,49.836 -1.016,24.871 -0.531,12.394 -0.266,6.18 -0.226,6.187 -4.11,96.645 -2.042,46.055 -1.028,22.238 -0.527,10.898 -0.238,5.391 -0.262,5.367 -3.781,74.086 -1.911,33.109 -0.937,15.465 -0.457,7.473 -0.234,3.637 -0.243,3.597 -1.906,27.039 -0.937,12.306 -0.461,5.83 -0.235,2.84 -0.242,2.79 -0.969,10.6 -0.465,4.96 -0.226,2.39 -0.234,2.38 -0.95,8.85 -0.465,4.07 -0.226,1.96 -0.266,1.91 -0.996,7.53 -0.508,3.36 -0.257,1.58 -0.262,1.53 -0.496,2.84 -0.274,1.32 -0.226,1.29 -0.524,2.31 -0.234,1.06 -0.266,0.99 -0.504,1.82 -0.261,0.79 -0.231,0.77 -0.261,0.67 -0.274,0.62 -0.23,0.52 -0.262,0.47 -0.262,0.44 -0.234,0.35 -0.274,0.26 -0.257,0.24 -0.235,0.14 -0.258,0.09 -0.234,0.03 -0.273,-0.03 -0.266,-0.09 -0.231,-0.17 -0.261,-0.24 -0.258,-0.29 -0.234,-0.35 -0.274,-0.41 -0.262,-0.47 -0.226,-0.56 -0.266,-0.58 -0.262,-0.68 -0.246,-0.73 -0.257,-0.79 -0.235,-0.85 -0.258,-0.91 -0.265,-0.97 -0.242,-1.02 -0.524,-2.26 -0.23,-1.19 -0.262,-1.27 -0.504,-2.72 -0.266,-1.44 -0.261,-1.52 -0.492,-3.17 -0.274,-1.66 -0.23,-1.73 -0.493,-3.64 -0.265,-1.9 -0.274,-1.96 -0.937,-7.65 -0.457,-4.12 -0.235,-2.12 -0.214,-2.17 -0.938,-9.08 -0.461,-4.81 -0.234,-2.45 -0.238,-2.52 -0.942,-10.44 -0.461,-5.45 -0.234,-2.78 -0.242,-2.81 -0.934,-11.691 -0.465,-6.031 -0.234,-3.078 -0.242,-3.137 -1.871,-26.125 -0.911,-13.836 -0.461,-7.09 -0.472,-7.199 -1.875,-29.949 -0.942,-15.555 -0.461,-7.91 -0.246,-3.984 -0.226,-4.012 -4.016,-71.664 -1.996,-37.41 -0.988,-18.957 -0.5,-9.52 -0.266,-4.769 -0.23,-4.813 -4.012,-76.988 -1.996,-38.379 -1.031,-19.074 -0.489,-9.496 -0.234,-4.715 -0.266,-4.715 -4.07,-75.176 -2.059,-35.976 -0.996,-17.524 -0.523,-8.609 -0.262,-4.278 -0.234,-4.277 -4.102,-64.601 -2.023,-29.618 -1.031,-14.062 -0.497,-6.856 -0.257,-3.371 -0.262,-3.34 -1.875,-23.699 -0.938,-11.133 -0.472,-5.421 -0.465,-5.274 -1.906,-19.949 -0.938,-9.231 -0.472,-4.453 -0.235,-2.172 -0.23,-2.132 -1.875,-16.055 -0.938,-7.266 -0.476,-3.457 -0.231,-1.672 -0.23,-1.64 -0.938,-6.297 -0.472,-2.93 -0.262,-1.437 -0.231,-1.407 -0.937,-5.269 -0.481,-2.461 -0.226,-1.176 -0.238,-1.144 -0.997,-4.594 -0.492,-2.055 -0.261,-0.996 -0.274,-0.965 -0.492,-1.789 -0.231,-0.851 -0.265,-0.789 -0.5,-1.524 -0.266,-0.699 -0.23,-0.676 -0.535,-1.262 -0.231,-0.554 -0.266,-0.528 -0.257,-0.5 -0.235,-0.468 -0.261,-0.438 -0.243,-0.41 -0.519,-0.703 -0.235,-0.293 -0.503,-0.5 -0.262,-0.203 -0.266,-0.176 -0.23,-0.117 -0.262,-0.117 -0.246,-0.063 -0.258,-0.027 h -0.492 l -0.266,0.058 -0.242,0.118 -0.262,0.117 -0.261,0.148 -0.231,0.176 -0.262,0.234 -0.246,0.235 -0.519,0.586 -0.231,0.351 -0.265,0.352 -0.5,0.847 -0.266,0.469 -0.492,0.996 -0.266,0.559 -0.238,0.586 -0.266,0.586 -0.492,1.316 -0.261,0.703 -0.243,0.703 -0.492,1.555 -0.262,0.789 -0.265,0.852 -0.906,3.304 -0.473,1.793 -0.231,0.938 -0.246,0.965 -0.925,4.043 -0.473,2.14 -0.231,1.114 -0.246,1.14 -0.906,4.719 -0.461,2.488 -0.234,1.262 -0.242,1.316 -0.938,5.364 -0.465,2.812 -0.199,1.434 -0.238,1.437 -1.883,12.274 -0.934,6.562 -0.433,3.371 -0.473,3.457 -1.875,14.414 -0.937,7.582 -0.434,3.872 -0.246,1.964 -0.231,1.989 -3.804,34.047 -1.883,18.191 -0.965,9.344 -0.461,4.75 -0.234,2.402 -0.242,2.371 -3.801,39.465 -1.875,20.418 -0.965,10.375 -0.477,5.184 -0.226,2.636 -0.235,2.606 -16.261,183.926 -7.5,82.066 -3.719,39.105 -1.875,18.985 -0.938,9.316 -0.703,6.949 -0.234,2.282 -8.066,74.152 -4.008,33.512 -1.989,15.851 -0.996,7.68 -0.539,3.773 -0.226,1.875 -0.266,1.875 -4.07,29.012 -2.047,13.527 -1.031,6.504 -0.524,3.196 -0.242,1.582 -0.262,1.582 -4.105,23.816 -2.039,10.957 -1,5.246 -0.524,2.547 -0.265,1.289 -0.242,1.262 -3.782,17.519 -1.894,7.992 -0.938,3.84 -0.703,2.82 -0.234,0.9 -1.903,7.1 -0.937,3.39 -0.707,2.46 -0.231,0.8 -1.875,6.23 -0.968,2.97 -0.473,1.43 -0.465,1.4 -4.043,11.17 -2.023,4.95 -1.004,2.34 -0.524,1.11 -0.226,0.56 -0.266,0.56 -2.023,4.19 -1.031,1.97 -0.497,0.96 -0.226,0.47 -0.266,0.47 -2.023,3.48 -1.031,1.64 -0.496,0.82 -0.227,0.38 -0.266,0.38 -1.875,2.7 -0.937,1.26 -0.438,0.61 -0.48,0.6 -1.875,2.25 -0.938,1.05 -0.457,0.5 -0.234,0.24 -0.246,0.26 -1.844,1.84 -0.937,0.85 -0.934,0.82 -1.879,1.53 -0.902,0.67 -0.465,0.35 -0.234,0.15 -0.243,0.18 -1.902,1.23 -0.973,0.58 -0.457,0.27 -0.234,0.11 -0.246,0.15 -0.957,0.5 -0.938,0.46 -0.937,0.45 -0.5,0.23 -0.238,0.09 -0.227,0.11 -1.906,0.76 -0.938,0.33 -0.504,0.17 -0.23,0.1 -0.231,0.05 -0.937,0.32 -0.481,0.15 -0.257,0.06 -0.235,0.06 -0.933,0.26 -0.707,0.18 -0.262,0.05 -2.027,0.47 -1.016,0.21 -0.504,0.09 -0.527,0.11 -0.996,0.16 -0.528,0.08 -0.23,0.06 -0.274,0.02 -1.015,0.16 -0.508,0.05 -0.524,0.06 -0.347,0.06"
         style="fill:none;stroke:#3871c1;stroke-width:7.5;stroke-linecap:square;stroke-linejoin:miter;stroke-miterlimit:3.25;stroke-dasharray:none;stroke-opacity:1"
         transform="matrix(0.13333333,0,0,-0.13333333,0,151.56)" />
      <path
         id="path3"
         d="m 475.883,106.828 v 29.996"
         style="fill:none;stroke:#231f20;stroke-width:5;stroke-linecap:butt;stroke-linejoin:miter;stroke-miterlimit:3.25;stroke-dasharray:none;stroke-opacity:1"
         transform="matrix(0.13333333,0,0,-0.13333333,0,151.56)" />
      <path
         id="path4"
         d="m 89.1016,106.828 v 29.996"
         style="fill:none;stroke:#231f20;stroke-width:5;stroke-linecap:butt;stroke-linejoin:miter;stroke-miterlimit:3.25;stroke-dasharray:none;stroke-opacity:1"
         transform="matrix(0.13333333,0,0,-0.13333333,0,151.56)" />
      <path
         id="path5"
         d="m 862.66,106.828 v 29.996"
         style="fill:none;stroke:#231f20;stroke-width:5;stroke-linecap:butt;stroke-linejoin:miter;stroke-miterlimit:3.25;stroke-dasharray:none;stroke-opacity:1"
         transform="matrix(0.13333333,0,0,-0.13333333,0,151.56)" />
      <path
         id="path6"
         d="m 1249.43,106.828 v 29.996"
         style="fill:none;stroke:#231f20;stroke-width:5;stroke-linecap:butt;stroke-linejoin:miter;stroke-miterlimit:3.25;stroke-dasharray:none;stroke-opacity:1"
         transform="matrix(0.13333333,0,0,-0.13333333,0,151.56)" />
      <path
         id="path7"
         d="m 1636.21,106.828 v 29.996"
         style="fill:none;stroke:#231f20;stroke-width:5;stroke-linecap:butt;stroke-linejoin:miter;stroke-miterlimit:3.25;stroke-dasharray:none;stroke-opacity:1"
         transform="matrix(0.13333333,0,0,-0.13333333,0,151.56)" />
      <path
         id="path8"
         d="M 89.1016,136.824 H 1636.21"
         style="fill:none;stroke:#231f20;stroke-width:5;stroke-linecap:butt;stroke-linejoin:miter;stroke-miterlimit:3.25;stroke-dasharray:none;stroke-opacity:1"
         transform="matrix(0.13333333,0,0,-0.13333333,0,151.56)" />
      <path
         id="path9"
         d="m 59.1016,614.891 h 30"
         style="fill:none;stroke:#231f20;stroke-width:5;stroke-linecap:butt;stroke-linejoin:miter;stroke-miterlimit:3.25;stroke-dasharray:none;stroke-opacity:1"
         transform="matrix(0.13333333,0,0,-0.13333333,0,151.56)" />
      <path
         id="path10"
         d="m 59.1016,136.824 h 30"
         style="fill:none;stroke:#231f20;stroke-width:5;stroke-linecap:butt;stroke-linejoin:miter;stroke-miterlimit:3.25;stroke-dasharray:none;stroke-opacity:1"
         transform="matrix(0.13333333,0,0,-0.13333333,0,151.56)" />
      <path
         id="path11"
         d="m 59.1016,1092.99 h 30"
         style="fill:none;stroke:#231f20;stroke-width:5;stroke-linecap:butt;stroke-linejoin:miter;stroke-miterlimit:3.25;stroke-dasharray:none;stroke-opacity:1"
         transform="matrix(0.13333333,0,0,-0.13333333,0,151.56)" />
      <path
         id="path12"
         d="M 89.1016,136.824 V 1092.99"
         style="fill:none;stroke:#231f20;stroke-width:5;stroke-linecap:butt;stroke-linejoin:miter;stroke-miterlimit:3.25;stroke-dasharray:none;stroke-opacity:1"
         transform="matrix(0.13333333,0,0,-0.13333333,0,151.56)" />
      <path
         id="path13"
         d="m 2.15625,-5.7201991 c -1.34765625,0 -1.83984375,1.6054688 -1.83984375,2.9179688 0,1.4179687 0.48046875,2.90624999 1.83984375,2.90624999 1.359375,0 1.828125,-1.59374999 1.828125,-2.91796879 0,-1.3828125 -0.46875,-2.90625 -1.828125,-2.90625 z m 0,0.3046875 c 0.8085938,0 1.03125,1.3242188 1.03125,2.6015625 0,1.265625 -0.2226562,2.61328129 -1.03125,2.61328129 -0.7734375,0 -1.0429688,-1.35937499 -1.0429688,-2.61328129 0,-1.2539062 0.2226563,-2.6015625 1.0429688,-2.6015625 z M -3.046875,-104.2661 c -0.2695313,0.57422 -0.3867188,0.60938 -0.8671875,0.60938 h -1.6875 l 1.2773438,-1.33594 c 0.8320312,-0.89062 1.1953124,-1.41797 1.1953124,-2.20312 0,-0.94922 -0.7265625,-1.52344 -1.5117187,-1.52344 -0.5273437,0 -0.9492187,0.23437 -1.21875,0.53906 l -0.515625,0.72656 0.1992188,0.17578 c 0.234375,-0.35156 0.609375,-0.83203 1.2304687,-0.83203 0.65625,0 1.0546875,0.4336 1.0546875,1.19532 0,0.77343 -0.5625,1.51171 -1.125,2.17968 -0.4453125,0.51563 -0.9492187,1.03125 -1.453125,1.52344 v 0.21094 h 3.3632812 c 0.1054688,-0.41016 0.1992188,-0.79688 0.3164063,-1.1836 z m -0.2460938,49.075198 v -0.246094 c -0.8203124,-0.05859 -0.8789062,-0.128906 -0.8789062,-0.785156 v -4.6875 c -0.4921875,0.199219 -1.0195312,0.375 -1.59375,0.46875 v 0.210937 l 0.4335938,0.01172 c 0.3867187,0.02344 0.421875,0.07031 0.421875,0.539063 v 3.457031 c 0,0.65625 -0.035156,0.726562 -0.8554688,0.785156 v 0.246094 z m -1.3007812,42.09375 c -1.3476562,0 -1.8398437,1.605469 -1.8398437,2.917969 0,1.4179683 0.4804687,2.9062496 1.8398437,2.9062496 1.359375,0 1.828125,-1.59375 1.828125,-2.9179686 0,-1.382813 -0.46875,-2.90625 -1.828125,-2.90625 z m 0,0.304687 c 0.8085937,0 1.03125,1.324219 1.03125,2.601563 0,1.2656248 -0.2226563,2.6132811 -1.03125,2.6132811 -0.7734375,0 -1.0429687,-1.359375 -1.0429687,-2.6132811 0,-1.253906 0.2226562,-2.601563 1.0429687,-2.601563 z M 42.134766,0.00148063 v -0.24609375 c -0.820313,-0.0585938 -0.878907,-0.12890625 -0.878907,-0.78515628 v -4.6875 c -0.492187,0.1992188 -1.019531,0.375 -1.59375,0.46875 v 0.2109375 l 0.433594,0.011719 c 0.386719,0.023437 0.421875,0.070312 0.421875,0.5390625 v 3.4570312 c 0,0.65625003 -0.03516,0.72656253 -0.855469,0.78515628 V 0.00148063 Z M 81.058594,-1.2641444 c -0.269532,0.57421878 -0.386719,0.60937503 -0.867188,0.60937503 h -1.6875 L 79.78125,-1.9907069 c 0.832031,-0.890625 1.195312,-1.4179687 1.195312,-2.203125 0,-0.9492187 -0.726562,-1.5234375 -1.511718,-1.5234375 -0.527344,0 -0.949219,0.234375 -1.21875,0.5390625 l -0.515625,0.7265625 0.199218,0.1757813 c 0.234375,-0.3515625 0.609375,-0.8320313 1.230469,-0.8320313 0.65625,0 1.054688,0.4335938 1.054688,1.1953125 0,0.7734375 -0.5625,1.5117188 -1.125,2.1796875 -0.445313,0.515625 -0.949219,1.03125003 -1.453125,1.52343753 v 0.2109375 H 81 c 0.105469,-0.41015625 0.199219,-0.796875 0.316406,-1.18359373 z m 35.739256,-3.1992187 c 0.22266,-0.328125 0.58594,-0.7148438 1.07813,-0.7148438 0.48047,0 0.85547,0.2929688 0.85547,0.8554688 0,0.65625 -0.60938,1.0078125 -1.42969,1.2773437 l 0.0586,0.2578125 c 0.14063,-0.046875 0.36328,-0.1054687 0.57422,-0.1054687 0.51563,0 1.14844,0.3398437 1.14844,1.171875 0,0.89062498 -0.45703,1.35937498 -1.08985,1.35937498 -0.51562,0 -0.89062,-0.24609375 -1.125,-0.45703125 -0.0703,-0.0585938 -0.14062,-0.046875 -0.21093,0 -0.082,0.0585938 -0.19922,0.17578125 -0.21094,0.29296875 -0.0117,0.1171875 0.0234,0.2109375 0.15234,0.328125 0.11719,0.10546875 0.48047,0.3046875 0.89063,0.3046875 0.65625,0 2.36719,-0.66796875 2.36719,-2.12109378 0,-0.65625 -0.46875,-1.21875 -1.25391,-1.3710937 v -0.011719 c 0.25781,-0.1875 0.48047,-0.3398437 0.60937,-0.4921875 0.17579,-0.1640625 0.28125,-0.375 0.28125,-0.6328125 0,-0.6914062 -0.52734,-1.1953125 -1.34765,-1.1953125 -0.46875,0 -0.89063,0.234375 -1.13672,0.5039063 l -0.39844,0.5742187 z m 42.01758,2.859375 v -0.421875 h -0.86719 v -3.65625 h -0.35156 c -0.92578,1.21875 -1.85156,2.5546875 -2.70703,3.8320312 v 0.2460938 h 2.34375 v 0.65624998 c 0,0.5859375 -0.0352,0.64453125 -0.82031,0.703125 v 0.24609375 h 2.30859 v -0.24609375 c -0.72656,-0.0585938 -0.77344,-0.10546875 -0.77344,-0.703125 V -1.6039881 Z m -1.58203,-0.421875 h -1.76953 c 0.58593,-0.9960938 1.17187,-1.8515625 1.75781,-2.6484375 h 0.0117 z m 0,0"
         style="fill:#231f20;fill-opacity:1;fill-rule:nonzero;stroke:none"
         aria-label="0&#10;2&#10;1&#10;0&#10;1234"
         transform="matrix(1.3333333,0,0,1.3333333,9,147.24021)" />
    </g>
  </g>
</svg>
