<?xml version="1.0" encoding="UTF-8" standalone="no"?>
<!-- Created with Inkscape (http://www.inkscape.org/) -->

<svg
   version="1.1"
   id="svg1"
   width="410.02667"
   height="151.53333"
   viewBox="0 0 410.02667 151.53333"
   sodipodi:docname="pha08f53.eps"
   xmlns:inkscape="http://www.inkscape.org/namespaces/inkscape"
   xmlns:sodipodi="http://sodipodi.sourceforge.net/DTD/sodipodi-0.dtd"
   xmlns="http://www.w3.org/2000/svg"
   xmlns:svg="http://www.w3.org/2000/svg">
  <defs
     id="defs1" />
  <sodipodi:namedview
     id="namedview1"
     pagecolor="#ffffff"
     bordercolor="#000000"
     borderopacity="0.25"
     inkscape:showpageshadow="2"
     inkscape:pageopacity="0.0"
     inkscape:pagecheckerboard="0"
     inkscape:deskcolor="#d1d1d1">
    <inkscape:page
       x="0"
       y="0"
       inkscape:label="1"
       id="page1"
       width="410.02667"
       height="151.53333"
       margin="0"
       bleed="0" />
  </sodipodi:namedview>
  <g
     id="g1"
     inkscape:groupmode="layer"
     inkscape:label="1">
    <g
       id="group-R5">
      <path
         id="path2"
         d="m 2.6957281,1.3251916 c -0.890625,-0.76171879 -1.40625,-2.20312504 -1.40625,-3.75 0,-1.546875 0.515625,-3 1.40625,-3.75 L 2.5433844,-6.3857459 c -1.3242188,0.9023437 -1.91015628,2.3320312 -1.91015628,3.9492187 0,1.62890626 0.58593748,3.08203126 1.91015628,3.9609375 z m 4.3212891,-1.67578129 -0.09375,-0.234375 c -0.09375,0.0585938 -0.2226563,0.10546875 -0.328125,0.10546875 -0.1523438,0 -0.3164063,-0.140625 -0.3164063,-0.55078126 v -1.6640625 c 0,-0.46875 -0.082031,-0.84375 -0.3984375,-1.1015625 -0.1992187,-0.1640625 -0.46875,-0.2460937 -0.7382812,-0.2460937 -0.515625,0.1054687 -1.1015625,0.4570312 -1.3476563,0.6328125 -0.1757812,0.1289062 -0.2929687,0.2226562 -0.2929687,0.3632812 0,0.1992188 0.234375,0.3867188 0.3984375,0.3867188 0.1289062,0 0.2226562,-0.070312 0.2578125,-0.2109375 0.070312,-0.28125 0.1523437,-0.4804688 0.2695312,-0.5976563 0.09375,-0.1054687 0.2226563,-0.1757812 0.4101563,-0.1757812 0.4453125,0 0.75,0.3632812 0.75,1.0195312 v 0.1640625 c -0.1992188,0.1523438 -0.8554688,0.3984375 -1.3945313,0.5742188 -0.4921875,0.1757812 -0.7265625,0.4570312 -0.7265625,0.90234371 0,0.5625 0.4453125,1.08984375 1.078125,1.08984375 0.2695313,0 0.703125,-0.328125 1.0664063,-0.57421875 0.046875,0.15234375 0.09375,0.28125 0.2109375,0.41015625 0.1054687,0.08203125 0.2929687,0.1640625 0.421875,0.1640625 z M 5.5873297,-0.76074594 c -0.1640625,0.1640625 -0.4804688,0.31640625 -0.7148438,0.328125 -0.28125,0 -0.6445312,-0.22265625 -0.6445312,-0.69140626 0,-0.328125 0.1992187,-0.4921875 0.5507812,-0.65625 0.1875,-0.09375 0.6210938,-0.28125 0.8085938,-0.375 z M 7.4740484,-6.1748084 c 0.890625,0.7382812 1.4179688,2.203125 1.4179688,3.75 0,1.54687496 -0.5039063,2.98828121 -1.4179688,3.75 l 0.1640625,0.1992187 c 1.3476563,-0.91406249 1.8984375,-2.33203124 1.8984375,-3.9492187 0,-1.6289063 -0.5507812,-3.0585938 -1.8984375,-3.9609375 z M -52.695873,-16.305668 v -0.46875 h -3.773438 v 0.46875 z m 4.166015,0.539063 c -0.269531,0.574218 -0.386719,0.609375 -0.867187,0.609375 h -1.6875 l 1.277343,-1.335938 c 0.832032,-0.890625 1.195313,-1.417969 1.195313,-2.203125 0,-0.949219 -0.726563,-1.523437 -1.511719,-1.523437 -0.527344,0 -0.949219,0.234375 -1.21875,0.539062 l -0.515625,0.726563 0.199219,0.175781 c 0.234375,-0.351563 0.609375,-0.832031 1.230469,-0.832031 0.65625,0 1.054687,0.433593 1.054687,1.195312 0,0.773438 -0.5625,1.511719 -1.125,2.179688 -0.445312,0.515625 -0.949219,1.03125 -1.453125,1.523437 v 0.210938 h 3.363281 c 0.105469,-0.410157 0.199219,-0.796875 0.316407,-1.183594 z m 24.585938,-0.539063 v -0.46875 h -3.773438 v 0.46875 z m 3.916992,1.804688 v -0.246094 c -0.820313,-0.05859 -0.878906,-0.128906 -0.878906,-0.785156 v -4.6875 c -0.492188,0.199218 -1.019532,0.375 -1.59375,0.46875 v 0.210937 l 0.433593,0.01172 c 0.386719,0.02344 0.421875,0.07031 0.421875,0.539062 v 3.457032 c 0,0.65625 -0.03516,0.726562 -0.855468,0.785156 v 0.246094 z m 55.166015,0 v -0.246094 c -0.820312,-0.05859 -0.878906,-0.128906 -0.878906,-0.785156 v -4.6875 c -0.492187,0.199218 -1.019531,0.375 -1.59375,0.46875 v 0.210937 l 0.433594,0.01172 c 0.386719,0.02344 0.421875,0.07031 0.421875,0.539062 v 3.457032 c 0,0.65625 -0.03516,0.726562 -0.855469,0.785156 v 0.246094 z m 28.998047,-1.265625 c -0.269531,0.574218 -0.386718,0.609375 -0.867187,0.609375 h -1.6875 l 1.277344,-1.335938 c 0.832031,-0.890625 1.195312,-1.417969 1.195312,-2.203125 0,-0.949219 -0.726562,-1.523437 -1.511719,-1.523437 -0.527343,0 -0.949218,0.234375 -1.21875,0.539062 l -0.515625,0.726563 0.199219,0.175781 c 0.234375,-0.351563 0.609375,-0.832031 1.230469,-0.832031 0.65625,0 1.054687,0.433593 1.054687,1.195312 0,0.773438 -0.5625,1.511719 -1.125,2.179688 -0.445312,0.515625 -0.949218,1.03125 -1.453125,1.523437 v 0.210938 h 3.363282 c 0.105468,-0.410157 0.199218,-0.796875 0.316406,-1.183594 z M -8.0943109,-68.565433 c -1.3476563,0 -1.8398438,1.605468 -1.8398438,2.917968 0,1.417969 0.4804688,2.90625 1.8398438,2.90625 1.359375,0 1.828125,-1.59375 1.828125,-2.917968 0,-1.382813 -0.46875,-2.90625 -1.828125,-2.90625 z m 0,0.304687 c 0.8085937,0 1.03125,1.324219 1.03125,2.601563 0,1.265625 -0.2226563,2.613281 -1.03125,2.613281 -0.7734375,0 -1.0429688,-1.359375 -1.0429688,-2.613281 0,-1.253907 0.2226563,-2.601563 1.0429688,-2.601563 z m 3.1933593,5.519531 c 0.28125,0 0.5039063,-0.199218 0.5039063,-0.515625 0,-0.292968 -0.2226563,-0.515625 -0.5039063,-0.515625 -0.2929687,0 -0.5039062,0.222657 -0.5039062,0.515625 0,0.316407 0.2109375,0.515625 0.5039062,0.515625 z m 2.3935547,-5.050781 h 2.09765627 l 0.234375,-0.585937 -0.0585938,-0.07031 H -2.8003656 l -0.3515625,2.742188 c 0.2109375,-0.08203 0.5507812,-0.1875 0.9257812,-0.1875 0.984375,0 1.46484377,0.574218 1.46484377,1.359375 0,0.679687 -0.37499997,1.335937 -1.13671877,1.335937 -0.5507812,0 -0.9140625,-0.292969 -1.1132812,-0.457031 -0.082031,-0.07031 -0.1523438,-0.05859 -0.234375,0 -0.1054688,0.09375 -0.1875,0.210937 -0.1875,0.292969 -0.023437,0.105468 0.023437,0.1875 0.140625,0.304687 0.1289062,0.128906 0.515625,0.316406 0.9257812,0.316406 0.4804688,-0.01172 1.078125,-0.246093 1.57031252,-0.632812 0.55078125,-0.457031 0.796875005,-0.960938 0.796875005,-1.511719 0,-0.738281 -0.585937505,-1.511719 -1.734375025,-1.511719 -0.2460937,0 -0.6679687,0.140625 -1.0078125,0.269532 z M 166.14592,1.3251916 c -0.89062,-0.76171879 -1.40625,-2.20312504 -1.40625,-3.75 0,-1.546875 0.51563,-3 1.40625,-3.75 l -0.15234,-0.2109375 c -1.32422,0.9023437 -1.91016,2.3320312 -1.91016,3.9492187 0,1.62890626 0.58594,3.08203126 1.91016,3.9609375 z m 1.78711,-4.9570313 v -2.7773437 c -0.33984,0.1171875 -0.89062,0.2578125 -1.3125,0.3164062 v 0.2109375 c 0.58594,0.046875 0.59766,0.1054688 0.59766,0.6679688 v 5.00390621 c 0.49219,0.234375 0.94922,0.31640625 1.32422,0.31640625 1.20703,0 2.26172,-0.9375 2.26172,-2.26171876 0,-1.0546875 -0.8086,-1.8867187 -1.78125,-1.8867187 -0.0937,0 -0.22266,0.023437 -0.36328,0.09375 z m 0,0.2695313 c 0.16407,-0.1054688 0.44532,-0.1757813 0.70313,-0.1757813 0.73828,0 1.37109,0.5976563 1.37109,1.6171875 0,1.05468751 -0.48047,1.68750001 -1.21875,1.68750001 -0.48047,-0.0117188 -0.75,-0.328125 -0.80859,-0.50390625 -0.0352,-0.0820313 -0.0469,-0.17578125 -0.0469,-0.30468746 z m 3.61231,-2.8125 c 0.89062,0.7382812 1.41797,2.203125 1.41797,3.75 0,1.54687496 -0.50391,2.98828121 -1.41797,3.75 l 0.16406,0.1992187 c 1.34766,-0.91406249 1.89844,-2.33203124 1.89844,-3.9492187 0,-1.6289063 -0.55078,-3.0585938 -1.89844,-3.9609375 z M 111.06487,-16.305668 v -0.46875 h -3.77344 v 0.46875 z m 4.16308,0.539063 c -0.26953,0.574218 -0.38671,0.609375 -0.86718,0.609375 h -1.6875 l 1.27734,-1.335938 c 0.83203,-0.890625 1.19531,-1.417969 1.19531,-2.203125 0,-0.949219 -0.72656,-1.523437 -1.51172,-1.523437 -0.52734,0 -0.94921,0.234375 -1.21875,0.539062 l -0.51562,0.726563 0.19922,0.175781 c 0.23437,-0.351563 0.60937,-0.832031 1.23047,-0.832031 0.65625,0 1.05468,0.433593 1.05468,1.195312 0,0.773438 -0.5625,1.511719 -1.125,2.179688 -0.44531,0.515625 -0.94921,1.03125 -1.45312,1.523437 v 0.210938 h 3.36328 c 0.10547,-0.410157 0.19922,-0.796875 0.31641,-1.183594 z m 24.58594,-0.539063 v -0.46875 h -3.77344 v 0.46875 z m 3.91699,1.804688 v -0.246094 c -0.82031,-0.05859 -0.8789,-0.128906 -0.8789,-0.785156 v -4.6875 c -0.49219,0.199218 -1.01953,0.375 -1.59375,0.46875 v 0.210937 l 0.43359,0.01172 c 0.38672,0.02344 0.42188,0.07031 0.42188,0.539062 v 3.457032 c 0,0.65625 -0.0352,0.726562 -0.85547,0.785156 v 0.246094 z m 55.16602,0 v -0.246094 c -0.82031,-0.05859 -0.87891,-0.128906 -0.87891,-0.785156 v -4.6875 c -0.49218,0.199218 -1.01953,0.375 -1.59375,0.46875 v 0.210937 l 0.4336,0.01172 c 0.38672,0.02344 0.42187,0.07031 0.42187,0.539062 v 3.457032 c 0,0.65625 -0.0351,0.726562 -0.85547,0.785156 v 0.246094 z m 28.99805,-1.265625 c -0.26953,0.574218 -0.38672,0.609375 -0.86719,0.609375 h -1.6875 l 1.27734,-1.335938 c 0.83203,-0.890625 1.19532,-1.417969 1.19532,-2.203125 0,-0.949219 -0.72657,-1.523437 -1.51172,-1.523437 -0.52735,0 -0.94922,0.234375 -1.21875,0.539062 l -0.51563,0.726563 0.19922,0.175781 c 0.23438,-0.351563 0.60938,-0.832031 1.23047,-0.832031 0.65625,0 1.05469,0.433593 1.05469,1.195312 0,0.773438 -0.5625,1.511719 -1.125,2.179688 -0.44532,0.515625 -0.94922,1.03125 -1.45313,1.523437 v 0.210938 h 3.36328 c 0.10547,-0.410157 0.19922,-0.796875 0.31641,-1.183594 z m -70.9834,-54.547852 c -1.34766,0 -1.83985,1.605469 -1.83985,2.917969 0,1.417969 0.48047,2.90625 1.83985,2.90625 1.35937,0 1.82812,-1.59375 1.82812,-2.917969 0,-1.382812 -0.46875,-2.90625 -1.82812,-2.90625 z m 0,0.304688 c 0.80859,0 1.03125,1.324218 1.03125,2.601562 0,1.265625 -0.22266,2.613281 -1.03125,2.613281 -0.77344,0 -1.04297,-1.359375 -1.04297,-2.613281 0,-1.253906 0.22266,-2.601562 1.04297,-2.601562 z m 3.19629,5.519531 c 0.28125,0 0.5039,-0.199219 0.5039,-0.515625 0,-0.292969 -0.22265,-0.515625 -0.5039,-0.515625 -0.29297,0 -0.50391,0.222656 -0.50391,0.515625 0,0.316406 0.21094,0.515625 0.50391,0.515625 z m 2.39062,-5.050781 h 2.09766 l 0.23437,-0.585938 -0.0586,-0.07031 h -2.56641 l -0.35156,2.742187 c 0.21094,-0.08203 0.55078,-0.1875 0.92578,-0.1875 0.98438,0 1.46485,0.574219 1.46485,1.359375 0,0.679688 -0.375,1.335938 -1.13672,1.335938 -0.55078,0 -0.91407,-0.292969 -1.11328,-0.457032 -0.082,-0.07031 -0.15235,-0.05859 -0.23438,0 -0.10547,0.09375 -0.1875,0.210938 -0.1875,0.292969 -0.0234,0.105469 0.0234,0.1875 0.14063,0.304688 0.1289,0.128906 0.51562,0.316406 0.92578,0.316406 0.48047,-0.01172 1.07812,-0.246094 1.57031,-0.632813 0.55078,-0.457031 0.79687,-0.960937 0.79687,-1.511718 0,-0.738282 -0.58593,-1.511719 -1.73437,-1.511719 -0.24609,0 -0.66797,0.140625 -1.00781,0.269531 z m 0,0"
         style="fill:#231f20;fill-opacity:1;fill-rule:nonzero;stroke:none"
         aria-label="(a)&#10;–2–112&#10;0.5&#10;(b)&#10;–2–112&#10;0.5"
         transform="matrix(1.3333333,0,0,1.3333333,89.054133,147.21355)" />
      <path
         id="path3"
         d="m 143.773,292.402 h 2.528 l 0.336,0.032 h 2.472 l 0.368,0.015 h 2.476 l 2.813,0.031 0.363,0.032 h 1.039 l 1.406,0.015 2.84,0.032 5.649,0.046 0.367,0.032 h 1.144 l 4.61,0.078 h 0.754 l 0.777,0.031 1.515,0.02 3.075,0.054 h 0.754 l 0.781,0.024 1.512,0.027 3.078,0.051 6.117,0.137 0.355,0.015 h 0.344 l 0.731,0.031 1.425,0.032 2.844,0.078 h 0.363 l 0.368,0.015 0.703,0.032 1.429,0.031 2.868,0.078 0.363,0.02 h 0.34 l 0.722,0.027 1.438,0.051 2.84,0.105 5.722,0.203 0.344,0.032 h 0.363 l 0.7,0.031 1.382,0.078 2.817,0.098 0.363,0.027 0.34,0.027 2.109,0.078 2.785,0.161 0.368,0.015 h 0.34 l 0.699,0.063 1.406,0.078 2.785,0.156 5.633,0.328 0.355,0.031 0.395,0.032 2.266,0.156 3.046,0.23 0.387,0.024 0.367,0.027 0.75,0.051 1.543,0.137 3.02,0.234 0.394,0.047 0.387,0.027 0.75,0.051 1.516,0.156 3.047,0.286 6.07,0.625 0.363,0.027 0.367,0.051 2.106,0.234 2.84,0.34 5.675,0.73 0.368,0.051 0.336,0.051 0.703,0.117 1.433,0.176 2.836,0.437 5.676,0.911 0.367,0.058 0.395,0.074 0.777,0.129 1.531,0.266 3.078,0.562 6.149,1.25 0.391,0.078 0.359,0.083 0.785,0.183 1.535,0.344 3.074,0.703 6.145,1.531 0.371,0.11 0.387,0.093 2.262,0.625 3.023,0.864 6.035,1.875 0.734,0.261 0.754,0.235 1.516,0.515 3.02,1.078 6.039,2.286 0.371,0.132 0.336,0.141 0.699,0.274 4.219,1.792 5.629,2.563 0.363,0.176 0.336,0.156 0.703,0.34 1.43,0.703 2.816,1.437 5.625,3.043 0.367,0.207 0.387,0.235 0.762,0.422 1.531,0.906 3.047,1.848 6.121,3.933 0.363,0.266 0.387,0.254 0.762,0.527 1.535,1.063 3.047,2.187 6.117,4.688 0.34,0.285 0.363,0.293 0.703,0.562 1.434,1.176 2.843,2.422 5.7,5.105 0.726,0.672 0.703,0.688 1.434,1.343 2.844,2.793 5.699,5.911 0.336,0.363 0.359,0.391 0.707,0.757 1.383,1.535 2.812,3.157 5.575,6.609 0.359,0.442 0.344,0.417 0.707,0.86 1.375,1.765 2.812,3.594 5.578,7.5 0.383,0.551 0.367,0.523 0.754,1.067 1.536,2.16 3.023,4.402 6.066,9.27 12.11,20.34 0.73,1.25 2.11,3.828 2.836,5.234 5.652,10.86 11.305,23.359 0.781,1.672 0.754,1.66 1.535,3.387 3.074,6.875 6.117,14.218 12.27,30.391 24.086,66.641 22.449,69.273 24.348,80.336 22.734,76.531 24.637,80.055 0.363,1.172 0.391,1.18 0.754,2.336 1.511,4.66 3.024,9.246 6.039,18.019 12.086,33.965 0.726,1.867 0.707,1.883 1.407,3.719 2.812,7.297 5.645,13.989 0.339,0.83 0.364,0.85 0.703,1.67 1.406,3.31 2.813,6.48 5.656,12.27 0.359,0.78 0.391,0.81 0.781,1.57 1.516,3.09 3.074,5.96 0.359,0.73 0.395,0.73 0.75,1.44 1.543,2.78 3.047,5.39 0.39,0.65 0.391,0.63 0.754,1.3 1.531,2.48 3.047,4.76 6.125,8.54 0.359,0.46 0.371,0.45 0.704,0.89 1.425,1.74 2.84,3.26 0.363,0.36 0.372,0.39 0.703,0.75 1.425,1.44 2.872,2.63 0.332,0.31 0.371,0.31 0.703,0.6 1.426,1.12 0.371,0.29 0.363,0.26 0.699,0.52 1.438,0.99 0.363,0.24 0.34,0.2 0.722,0.45 1.407,0.83 0.371,0.18 0.359,0.21 0.703,0.36 1.438,0.65 0.359,0.16 0.344,0.16 0.703,0.28 0.332,0.13 0.371,0.13 0.703,0.24 0.332,0.13 0.34,0.11 0.703,0.2 0.364,0.09 0.339,0.09 0.704,0.16 0.343,0.08 0.364,0.08 0.339,0.08 0.364,0.05 0.34,0.05 0.363,0.05 0.672,0.11 0.371,0.02 0.332,0.06 0.371,0.02 0.332,0.03 0.371,0.02 h 0.332 l 0.371,0.03 h 1.035 l 0.34,-0.03 h 0.363 l 0.34,-0.02 0.364,-0.03 0.683,-0.05 0.36,-0.03 0.343,-0.05 0.364,-0.05 0.339,-0.06 0.364,-0.04 0.34,-0.06 0.703,-0.13 0.332,-0.07 0.371,-0.09 0.703,-0.18 0.332,-0.08 0.371,-0.1 0.676,-0.21 0.359,-0.13 0.344,-0.1 0.699,-0.26 1.406,-0.55 0.364,-0.15 0.39,-0.19 0.762,-0.34 1.504,-0.78 0.781,-0.42 0.762,-0.44 1.504,-0.94 0.39,-0.26 0.372,-0.26 0.75,-0.51 1.535,-1.13 3.027,-2.5 0.391,-0.34 0.363,-0.35 0.762,-0.68 1.531,-1.49 3.016,-3.18 0.39,-0.42 0.395,-0.44 0.75,-0.86 1.511,-1.79 3.047,-3.86 0.344,-0.5 0.359,-0.46 0.704,-0.97 1.41,-1.98 2.84,-4.16 5.671,-9.14 0.344,-0.62 0.36,-0.6 0.707,-1.26 1.433,-2.5 2.813,-5.23 5.672,-11.22 0.39,-0.81 0.363,-0.81 0.782,-1.59 1.543,-3.28 3.066,-6.77 6.152,-14.29 12.266,-31.493 0.391,-1.012 0.363,-1.039 0.75,-2.058 1.516,-4.141 3.015,-8.469 6.016,-17.422 12.058,-36.718 22.5,-73.145 24.407,-82.113 22.754,-75.152 22.343,-69.145 24.219,-67.422 0.371,-0.914 0.332,-0.906 0.703,-1.828 1.407,-3.618 2.839,-7.136 5.657,-13.879 11.297,-26.094 0.39,-0.859 0.363,-0.828 0.782,-1.672 1.511,-3.328 3.079,-6.543 6.113,-12.578 12.265,-23.254 0.34,-0.625 0.364,-0.657 0.734,-1.25 1.402,-2.515 2.864,-4.922 5.735,-9.453 0.36,-0.578 0.34,-0.579 0.73,-1.109 1.43,-2.246 2.87,-4.395 5.7,-8.417 0.36,-0.493 0.35,-0.496 0.7,-0.984 1.41,-1.953 2.81,-3.813 5.59,-7.281 0.35,-0.449 0.36,-0.442 2.11,-2.578 2.79,-3.359 5.61,-6.406 0.38,-0.418 0.39,-0.411 0.75,-0.839 1.51,-1.614 3.05,-3.172 6.09,-5.988 0.36,-0.371 0.39,-0.359 2.27,-2.114 3.05,-2.71 6.09,-5.129 0.34,-0.286 0.36,-0.293 0.71,-0.562 1.43,-1.098 2.83,-2.168 5.69,-4.082 0.33,-0.261 0.37,-0.235 0.7,-0.469 1.43,-0.964 2.84,-1.848 5.68,-3.469 0.37,-0.23 0.39,-0.207 0.78,-0.442 1.53,-0.886 3.08,-1.668 6.14,-3.145 0.78,-0.371 0.75,-0.363 1.55,-0.735 3.06,-1.402 6.17,-2.578 0.38,-0.156 0.39,-0.161 0.75,-0.281 1.51,-0.594 3.02,-1.125 6.02,-2.082 0.39,-0.132 0.36,-0.098 0.76,-0.254 1.5,-0.48 3.03,-0.911 6.04,-1.714 0.37,-0.079 0.33,-0.109 2.11,-0.547 2.84,-0.703 5.62,-1.301 0.37,-0.054 0.34,-0.078 2.11,-0.469 2.81,-0.547 5.65,-1.067 0.37,-0.078 0.39,-0.047 0.75,-0.136 1.54,-0.254 3.05,-0.5 6.11,-0.926 0.39,-0.059 0.37,-0.058 0.75,-0.102 1.54,-0.215 3.04,-0.386 6.13,-0.703 0.36,-0.051 0.34,-0.027 0.73,-0.071 1.43,-0.168 2.84,-0.281 5.7,-0.547 0.37,-0.027 0.34,-0.024 0.73,-0.074 1.43,-0.109 2.84,-0.235 5.7,-0.422 0.34,-0.015 0.36,-0.031 0.71,-0.047 1.37,-0.078 2.82,-0.188 0.34,-0.027 0.36,-0.024 0.68,-0.027 1.41,-0.105 2.78,-0.161 h 0.36 l 0.35,-0.015 0.7,-0.032 1.4,-0.078 2.79,-0.156 5.6,-0.234 0.36,-0.032 0.4,-0.015 2.26,-0.078 3.05,-0.137 h 0.37 l 0.38,-0.02 2.27,-0.082 3.04,-0.105 h 0.37 l 0.39,-0.027 0.76,-0.02 1.51,-0.031 3.05,-0.11 6.06,-0.156 h 0.34 l 0.36,-0.015 h 0.71 l 1.4,-0.032 2.85,-0.078 h 0.7 l 0.7,-0.027 1.43,-0.024 2.81,-0.054 h 0.37 l 0.33,-0.024 h 0.74 l 1.4,-0.027 2.84,-0.047 5.65,-0.078 h 0.39 l 0.39,-0.031 h 0.81 l 1.56,-0.032 3.18,-0.015 0.39,-0.031 h 1.17 l 1.59,-0.032 3.15,-0.015 h 0.81 l 0.78,-0.032 h 1.99 l 0.38,-0.031 h 2.37 l 0.39,-0.015 h 2.76 l 0.39,-0.032 h 2.48"
         style="fill:none;stroke:#3871c1;stroke-width:7.5;stroke-linecap:square;stroke-linejoin:miter;stroke-miterlimit:3.25;stroke-dasharray:none;stroke-opacity:1"
         transform="matrix(0.13333333,0,0,-0.13333333,0,151.53333)" />
      <path
         id="path4"
         d="m 1781.05,292.402 h 1.44 l 0.34,-0.027 h 1.41 l 0.35,-0.031 h 0.71 l 0.36,-0.02 h 0.34 l 0.71,-0.027 0.36,-0.031 h 0.33 l 0.72,-0.02 0.73,-0.058 0.7,-0.02 0.33,-0.027 h 0.37 l 2.11,-0.149 0.36,-0.039 0.35,-0.019 2.11,-0.157 0.36,-0.058 0.36,-0.02 0.7,-0.058 1.41,-0.157 0.34,-0.019 0.36,-0.059 2.11,-0.234 2.84,-0.359 0.36,-0.051 0.39,-0.059 0.77,-0.098 1.53,-0.214 3.08,-0.489 0.35,-0.058 0.4,-0.078 0.77,-0.125 1.52,-0.266 3.07,-0.566 0.39,-0.059 0.37,-0.078 0.78,-0.156 1.51,-0.313 3.08,-0.625 6.11,-1.379 0.36,-0.074 0.35,-0.078 0.72,-0.156 1.43,-0.364 2.85,-0.703 5.72,-1.465 11.43,-3.093 22.44,-6.379 0.35,-0.11 0.39,-0.105 0.76,-0.203 1.51,-0.442 3.04,-0.839 6.08,-1.641 0.78,-0.203 0.74,-0.207 1.52,-0.391 3.05,-0.781 6.06,-1.485 0.74,-0.156 0.7,-0.183 1.41,-0.317 2.83,-0.625 0.37,-0.074 0.33,-0.078 0.74,-0.156 1.41,-0.317 2.83,-0.574 0.36,-0.078 0.35,-0.047 0.7,-0.156 1.42,-0.266 2.85,-0.515 0.34,-0.051 0.35,-0.059 0.71,-0.129 1.44,-0.23 2.83,-0.442 0.37,-0.058 0.39,-0.047 0.78,-0.129 1.53,-0.215 0.37,-0.051 0.39,-0.047 0.78,-0.078 1.54,-0.183 0.36,-0.051 0.4,-0.059 0.78,-0.078 1.53,-0.156 0.39,-0.051 0.37,-0.027 0.78,-0.078 1.53,-0.125 0.4,-0.031 0.36,-0.047 1.17,-0.078 0.37,-0.032 1.17,-0.078 0.35,-0.019 0.8,-0.032 0.38,-0.027 0.37,-0.02 0.78,-0.031 0.39,-0.027 0.37,-0.02 h 0.39 l 0.39,-0.027 h 0.39 l 0.36,-0.031 h 0.38 l 0.4,-0.02 h 0.76 l 0.39,-0.027 h 4.95 l 0.36,0.027 h 0.76 l 0.39,0.02 h 0.35 l 0.4,0.031 0.75,0.027 h 0.38 l 0.39,0.02 0.75,0.027 0.36,0.031 0.39,0.02 0.76,0.027 0.36,0.032 0.4,0.019 0.75,0.059 1.5,0.129 0.74,0.047 2.27,0.234 0.39,0.058 0.36,0.02 0.75,0.117 1.52,0.176 0.38,0.051 0.37,0.047 0.76,0.109 1.5,0.23 3.03,0.547 0.37,0.051 0.33,0.078 0.71,0.137 1.4,0.281 2.82,0.656 0.35,0.079 0.35,0.078 2.11,0.547 2.81,0.781 0.36,0.098 0.34,0.109 0.71,0.203 1.42,0.449 2.81,0.957 5.63,2.141 0.37,0.152 0.39,0.156 0.76,0.344 1.53,0.645 3.04,1.406 0.78,0.371 0.77,0.391 1.5,0.754 3.08,1.636 0.36,0.207 0.39,0.215 0.76,0.41 1.53,0.891 3.05,1.844 6.12,4.062 0.34,0.235 0.37,0.261 0.7,0.5 1.43,1.043 2.85,2.16 5.69,4.661 0.36,0.281 0.37,0.312 0.71,0.625 1.42,1.25 2.85,2.637 5.7,5.547 0.34,0.359 0.35,0.364 0.71,0.734 1.38,1.453 2.81,3.027 5.58,6.407 0.36,0.41 0.34,0.422 0.71,0.828 1.37,1.719 2.81,3.515 5.59,7.403 0.38,0.515 0.36,0.551 0.76,1.043 1.54,2.129 3.01,4.402 6.08,9.406 0.36,0.625 0.39,0.625 0.75,1.27 1.52,2.578 3.04,5.391 6.05,11.562 0.72,1.407 0.7,1.437 1.41,2.891 2.84,5.933 5.66,12.5 11.3,27.297 0.39,0.957 0.39,0.996 0.75,1.953 1.54,3.953 3.07,8.079 6.12,16.718 12.27,35.391 24.09,75.676 22.44,75.359 24.36,83.52 22.73,76.457 24.63,77.715 0.37,1.117 0.39,1.117 0.75,2.262 1.52,4.476 3.01,8.84 6.05,17.231 12.08,32.398 0.36,0.918 0.37,0.879 0.7,1.797 1.41,3.543 2.81,6.953 5.65,13.387 0.34,0.804 0.36,0.809 0.7,1.613 1.41,3.18 2.81,6.199 5.66,11.793 0.36,0.781 1.17,2.263 1.51,3 3.08,5.78 6.09,10.78 0.78,1.25 0.76,1.25 1.53,2.45 3.05,4.68 6.12,8.47 0.36,0.47 0.37,0.44 0.71,0.89 1.42,1.74 2.84,3.26 0.36,0.36 0.38,0.39 0.7,0.76 1.42,1.45 2.88,2.69 0.33,0.31 0.37,0.31 0.7,0.6 1.43,1.17 0.37,0.29 0.36,0.26 0.7,0.55 1.44,0.99 0.36,0.26 0.34,0.23 0.72,0.44 1.41,0.87 0.37,0.2 0.36,0.19 0.71,0.38 1.43,0.71 0.36,0.15 0.34,0.17 0.71,0.28 0.33,0.13 0.37,0.16 0.7,0.25 0.34,0.1 0.34,0.14 0.7,0.21 0.36,0.1 0.34,0.1 0.71,0.16 0.34,0.1 0.36,0.08 0.34,0.06 0.36,0.08 0.35,0.05 0.36,0.05 0.67,0.1 0.37,0.06 0.33,0.02 0.37,0.03 0.34,0.02 0.37,0.03 0.33,0.02 h 0.37 l 0.33,0.03 h 0.34 l 0.37,-0.03 h 0.7 l 0.34,-0.02 0.36,-0.03 0.69,-0.05 0.36,-0.05 0.34,-0.05 0.36,-0.06 0.34,-0.05 0.36,-0.05 0.35,-0.05 0.7,-0.16 0.33,-0.08 0.37,-0.07 0.7,-0.18 0.34,-0.11 0.37,-0.11 0.67,-0.23 0.36,-0.1 0.34,-0.13 0.71,-0.27 1.4,-0.57 0.37,-0.18 0.39,-0.18 0.76,-0.37 1.5,-0.8 0.78,-0.42 0.76,-0.46 1.51,-1 0.39,-0.23 0.37,-0.29 0.75,-0.55 1.54,-1.14 3.02,-2.56 0.39,-0.33 0.36,-0.37 0.77,-0.7 1.53,-1.49 3.02,-3.2 0.39,-0.44 0.39,-0.42 0.75,-0.88 1.51,-1.8 3.05,-3.83 0.34,-0.46 0.36,-0.48 0.71,-0.96 1.4,-1.95 2.85,-4.11 5.67,-8.99 0.34,-0.6 0.36,-0.6 0.71,-1.19 1.43,-2.48 2.81,-5.08 5.68,-10.858 0.39,-0.781 0.36,-0.762 0.78,-1.559 1.54,-3.152 3.07,-6.508 6.15,-13.695 12.27,-30.086 0.39,-0.984 0.36,-0.969 2.27,-5.934 3.01,-8.07 6.02,-16.641 12.06,-35.16 22.5,-70.984 24.4,-82.008 22.76,-78.125 22.34,-75.051 24.22,-76.429 0.37,-1.075 0.33,-1.062 0.71,-2.082 1.4,-4.199 2.84,-8.301 5.66,-16.172 11.3,-30.625 0.39,-0.996 0.36,-0.984 0.78,-1.985 1.51,-3.906 3.08,-7.656 6.11,-14.688 0.78,-1.765 0.77,-1.77 1.53,-3.496 3.05,-6.77 6.14,-12.839 0.34,-0.723 0.36,-0.703 0.73,-1.438 1.41,-2.808 2.86,-5.422 5.73,-10.149 0.37,-0.601 0.34,-0.598 0.73,-1.199 1.43,-2.317 2.87,-4.48 5.7,-8.359 0.36,-0.5 0.34,-0.489 0.71,-0.964 1.4,-1.958 2.82,-3.75 5.59,-7.136 0.34,-0.442 0.36,-0.418 0.71,-0.859 1.4,-1.66 2.8,-3.262 5.61,-6.14 0.37,-0.391 0.39,-0.422 0.76,-0.781 1.51,-1.531 3.05,-3 6.09,-5.594 0.36,-0.344 0.39,-0.332 0.75,-0.652 1.52,-1.282 3.04,-2.468 6.1,-4.582 0.34,-0.235 0.36,-0.261 0.7,-0.5 1.44,-0.958 2.83,-1.875 0.34,-0.214 0.36,-0.235 0.71,-0.437 1.43,-0.864 2.85,-1.667 0.33,-0.208 0.37,-0.203 0.7,-0.39 1.43,-0.782 2.84,-1.464 5.67,-2.657 0.37,-0.175 0.39,-0.157 0.79,-0.339 1.53,-0.625 3.08,-1.204 0.39,-0.129 0.36,-0.156 0.78,-0.261 1.53,-0.547 3.08,-0.989 0.39,-0.125 0.39,-0.105 0.75,-0.234 1.54,-0.442 0.79,-0.215 0.75,-0.207 1.53,-0.386 0.39,-0.083 0.39,-0.105 0.76,-0.176 1.57,-0.344 3.06,-0.652 0.37,-0.051 0.39,-0.078 2.27,-0.386 0.36,-0.051 0.39,-0.078 0.75,-0.11 1.52,-0.23 0.36,-0.051 0.39,-0.059 0.76,-0.078 1.5,-0.176 0.38,-0.058 0.36,-0.02 2.26,-0.234 0.39,-0.027 0.36,-0.032 0.77,-0.078 0.39,-0.019 0.36,-0.032 0.75,-0.046 0.39,-0.032 h 0.37 l 0.75,-0.047 0.39,-0.031 0.37,-0.027 0.76,-0.02 h 0.39 l 0.36,-0.027 h 0.39 l 0.36,-0.031 h 0.39 l 0.37,-0.02 h 0.76 l 0.39,-0.027 h 4.73 l 0.37,0.027 h 1.07 l 0.34,0.02 h 0.36 l 0.34,0.031 h 0.36 l 0.71,0.027 0.34,0.02 h 0.36 l 0.7,0.027 0.35,0.031 0.36,0.02 0.7,0.027 0.34,0.032 0.36,0.019 2.11,0.156 0.36,0.032 0.35,0.027 2.1,0.156 0.37,0.051 0.34,0.027 0.7,0.078 1.41,0.137 0.36,0.039 0.34,0.032 0.7,0.078 1.44,0.183 2.81,0.364 0.36,0.046 0.39,0.059 0.76,0.098 1.54,0.234 3.05,0.469 0.39,0.078 0.39,0.058 0.75,0.125 1.53,0.286 3.05,0.547 0.39,0.078 0.37,0.078 0.75,0.156 1.54,0.32 3.04,0.618 6.13,1.386 0.36,0.078 0.34,0.078 0.73,0.176 1.43,0.344 2.84,0.699 5.7,1.457 11.41,3.106 22.37,6.379 0.36,0.105 0.39,0.098 2.27,0.625 3.05,0.859 6.06,1.641 0.37,0.105 0.39,0.078 0.75,0.207 1.52,0.391 3.04,0.781 6.07,1.485 0.34,0.078 0.36,0.078 0.7,0.183 1.41,0.317 2.84,0.625 0.36,0.078 0.35,0.074 0.7,0.156 1.42,0.286 2.82,0.578 0.37,0.078 0.33,0.078 0.73,0.125 1.41,0.266 2.84,0.515 0.33,0.059 0.37,0.051 0.71,0.125 1.4,0.234 2.84,0.449 0.78,0.098 0.81,0.105 1.56,0.239 0.42,0.047 0.39,0.058 0.78,0.078 1.58,0.203 0.39,0.032 0.39,0.046 0.79,0.083 1.59,0.183 0.78,0.051 0.81,0.078 1.56,0.125 0.39,0.059 0.41,0.019 1.57,0.11 0.81,0.046 0.78,0.059 0.78,0.02 0.39,0.031 0.42,0.027 0.78,0.02 0.39,0.031 h 0.39 l 0.39,0.027 h 0.41 l 0.39,0.02 h 0.78 l 0.39,0.031 h 1.21 l 0.39,0.027 h 1.59"
         style="fill:none;stroke:#3871c1;stroke-width:7.5;stroke-linecap:square;stroke-linejoin:miter;stroke-miterlimit:3.25;stroke-dasharray:none;stroke-opacity:1"
         transform="matrix(0.13333333,0,0,-0.13333333,0,151.53333)" />
      <path
         id="path5"
         d="m 143.746,262.402 v 30"
         style="fill:none;stroke:#231f20;stroke-width:5;stroke-linecap:butt;stroke-linejoin:miter;stroke-miterlimit:3.25;stroke-dasharray:none;stroke-opacity:1"
         transform="matrix(0.13333333,0,0,-0.13333333,0,151.53333)" />
      <path
         id="path6"
         d="m 431.273,262.402 v 30"
         style="fill:none;stroke:#231f20;stroke-width:5;stroke-linecap:butt;stroke-linejoin:miter;stroke-miterlimit:3.25;stroke-dasharray:none;stroke-opacity:1"
         transform="matrix(0.13333333,0,0,-0.13333333,0,151.53333)" />
      <path
         id="path7"
         d="m 718.801,292.402 v 17"
         style="fill:none;stroke:#231f20;stroke-width:5;stroke-linecap:butt;stroke-linejoin:miter;stroke-miterlimit:3.25;stroke-dasharray:none;stroke-opacity:1"
         transform="matrix(0.13333333,0,0,-0.13333333,0,151.53333)" />
      <path
         id="path8"
         d="m 1006.33,262.402 v 30"
         style="fill:none;stroke:#231f20;stroke-width:5;stroke-linecap:butt;stroke-linejoin:miter;stroke-miterlimit:3.25;stroke-dasharray:none;stroke-opacity:1"
         transform="matrix(0.13333333,0,0,-0.13333333,0,151.53333)" />
      <path
         id="path9"
         d="m 1293.85,262.402 v 30"
         style="fill:none;stroke:#231f20;stroke-width:5;stroke-linecap:butt;stroke-linejoin:miter;stroke-miterlimit:3.25;stroke-dasharray:none;stroke-opacity:1"
         transform="matrix(0.13333333,0,0,-0.13333333,0,151.53333)" />
      <path
         id="path10"
         d="M 0,292.402 H 1437.6"
         style="fill:none;stroke:#231f20;stroke-width:5;stroke-linecap:butt;stroke-linejoin:miter;stroke-miterlimit:3.25;stroke-dasharray:none;stroke-opacity:1"
         transform="matrix(0.13333333,0,0,-0.13333333,0,151.53333)" />
      <path
         id="path11"
         d="m 688.801,692.348 h 30"
         style="fill:none;stroke:#231f20;stroke-width:5;stroke-linecap:butt;stroke-linejoin:miter;stroke-miterlimit:3.25;stroke-dasharray:none;stroke-opacity:1"
         transform="matrix(0.13333333,0,0,-0.13333333,0,151.53333)" />
      <path
         id="path12"
         d="m 718.801,247.98 v 888.48"
         style="fill:none;stroke:#231f20;stroke-width:5;stroke-linecap:butt;stroke-linejoin:miter;stroke-miterlimit:3.25;stroke-dasharray:none;stroke-opacity:1"
         transform="matrix(0.13333333,0,0,-0.13333333,0,151.53333)" />
      <path
         id="path13"
         d="m 1781.35,262.402 v 30"
         style="fill:none;stroke:#231f20;stroke-width:5;stroke-linecap:butt;stroke-linejoin:miter;stroke-miterlimit:3.25;stroke-dasharray:none;stroke-opacity:1"
         transform="matrix(0.13333333,0,0,-0.13333333,0,151.53333)" />
      <path
         id="path14"
         d="m 2068.87,262.402 v 30"
         style="fill:none;stroke:#231f20;stroke-width:5;stroke-linecap:butt;stroke-linejoin:miter;stroke-miterlimit:3.25;stroke-dasharray:none;stroke-opacity:1"
         transform="matrix(0.13333333,0,0,-0.13333333,0,151.53333)" />
      <path
         id="path15"
         d="m 2356.4,292.402 v 17.051"
         style="fill:none;stroke:#231f20;stroke-width:5;stroke-linecap:butt;stroke-linejoin:miter;stroke-miterlimit:3.25;stroke-dasharray:none;stroke-opacity:1"
         transform="matrix(0.13333333,0,0,-0.13333333,0,151.53333)" />
      <path
         id="path16"
         d="m 2643.93,262.402 v 30"
         style="fill:none;stroke:#231f20;stroke-width:5;stroke-linecap:butt;stroke-linejoin:miter;stroke-miterlimit:3.25;stroke-dasharray:none;stroke-opacity:1"
         transform="matrix(0.13333333,0,0,-0.13333333,0,151.53333)" />
      <path
         id="path17"
         d="m 2931.45,262.402 v 30"
         style="fill:none;stroke:#231f20;stroke-width:5;stroke-linecap:butt;stroke-linejoin:miter;stroke-miterlimit:3.25;stroke-dasharray:none;stroke-opacity:1"
         transform="matrix(0.13333333,0,0,-0.13333333,0,151.53333)" />
      <path
         id="path18"
         d="M 1637.6,292.402 H 3075.2"
         style="fill:none;stroke:#231f20;stroke-width:5;stroke-linecap:butt;stroke-linejoin:miter;stroke-miterlimit:3.25;stroke-dasharray:none;stroke-opacity:1"
         transform="matrix(0.13333333,0,0,-0.13333333,0,151.53333)" />
      <path
         id="path19"
         d="m 2326.4,724.563 h 30"
         style="fill:none;stroke:#231f20;stroke-width:5;stroke-linecap:butt;stroke-linejoin:miter;stroke-miterlimit:3.25;stroke-dasharray:none;stroke-opacity:1"
         transform="matrix(0.13333333,0,0,-0.13333333,0,151.53333)" />
      <path
         id="path20"
         d="M 2356.4,216.621 V 1105.11"
         style="fill:none;stroke:#231f20;stroke-width:5;stroke-linecap:butt;stroke-linejoin:miter;stroke-miterlimit:3.25;stroke-dasharray:none;stroke-opacity:1"
         transform="matrix(0.13333333,0,0,-0.13333333,0,151.53333)" />
    </g>
  </g>
</svg>
