<?xml version="1.0" encoding="UTF-8" standalone="no"?>
<!-- Created with Inkscape (http://www.inkscape.org/) -->

<svg
   version="1.1"
   id="svg1"
   width="179.64"
   height="128.14667"
   viewBox="0 0 179.64 128.14667"
   sodipodi:docname="pha08f05.eps"
   xmlns:inkscape="http://www.inkscape.org/namespaces/inkscape"
   xmlns:sodipodi="http://sodipodi.sourceforge.net/DTD/sodipodi-0.dtd"
   xmlns="http://www.w3.org/2000/svg"
   xmlns:svg="http://www.w3.org/2000/svg">
  <defs
     id="defs1" />
  <sodipodi:namedview
     id="namedview1"
     pagecolor="#ffffff"
     bordercolor="#000000"
     borderopacity="0.25"
     inkscape:showpageshadow="2"
     inkscape:pageopacity="0.0"
     inkscape:pagecheckerboard="0"
     inkscape:deskcolor="#d1d1d1">
    <inkscape:page
       x="0"
       y="0"
       inkscape:label="1"
       id="page1"
       width="179.64"
       height="128.14667"
       margin="0"
       bleed="0" />
  </sodipodi:namedview>
  <g
     id="g1"
     inkscape:groupmode="layer"
     inkscape:label="1">
    <g
       id="group-R5">
      <path
         id="path2"
         d="M 3.4580047,0.00132375 V -0.24477 C 2.6376922,-0.30336375 2.5790984,-0.37367625 2.5790984,-1.0299262 v -4.6875 c -0.4921875,0.1992187 -1.0195312,0.375 -1.59374996,0.46875 v 0.2109375 L 1.4189422,-5.02602 c 0.3867187,0.023437 0.421875,0.070312 0.421875,0.5390625 v 3.4570313 c 0,0.65624995 -0.035156,0.72656245 -0.85546876,0.7851562 V 0.00132375 Z M 16.635739,-1.2643012 c -0.269531,0.5742187 -0.386719,0.60937495 -0.867187,0.60937495 h -1.6875 l 1.277343,-1.33593745 c 0.832032,-0.890625 1.195313,-1.4179688 1.195313,-2.203125 0,-0.9492188 -0.726563,-1.5234375 -1.511719,-1.5234375 -0.527344,0 -0.949219,0.234375 -1.21875,0.5390625 l -0.515625,0.7265625 0.199219,0.1757812 c 0.234375,-0.3515625 0.609375,-0.8320312 1.230469,-0.8320312 0.65625,0 1.054687,0.4335937 1.054687,1.1953125 0,0.7734375 -0.5625,1.5117187 -1.125,2.1796875 -0.445312,0.515625 -0.949219,1.03124995 -1.453125,1.52343745 v 0.2109375 h 3.363281 c 0.105469,-0.41015625 0.199219,-0.796875 0.316407,-1.18359375 z M 26.628903,-4.46352 c 0.222656,-0.328125 0.585938,-0.7148437 1.078125,-0.7148437 0.480469,0 0.855469,0.2929687 0.855469,0.8554687 0,0.65625 -0.609375,1.0078125 -1.429688,1.2773438 l 0.05859,0.2578125 c 0.140625,-0.046875 0.363281,-0.1054688 0.574219,-0.1054688 0.515625,0 1.148437,0.3398438 1.148437,1.171875 0,0.890625 -0.457031,1.359375 -1.089843,1.359375 -0.515625,0 -0.890625,-0.24609375 -1.125,-0.45703125 -0.07031,-0.0585938 -0.140625,-0.046875 -0.210938,0 -0.08203,0.0585938 -0.199219,0.17578125 -0.210937,0.29296875 -0.01172,0.1171875 0.02344,0.2109375 0.152343,0.328125 0.117188,0.10546875 0.480469,0.3046875 0.890625,0.3046875 0.65625,0 2.367188,-0.66796875 2.367188,-2.1210937 0,-0.65625 -0.46875,-1.21875 -1.253906,-1.3710938 v -0.011719 c 0.257812,-0.1875 0.480468,-0.3398438 0.609375,-0.4921875 0.175781,-0.1640625 0.28125,-0.375 0.28125,-0.6328125 0,-0.6914063 -0.527344,-1.1953125 -1.347657,-1.1953125 -0.46875,0 -0.890625,0.234375 -1.136718,0.5039062 l -0.398438,0.5742188 z m 16.274414,2.859375 V -2.02602 H 42.03613 v -3.65625 h -0.351563 c -0.925781,1.21875 -1.851562,2.5546875 -2.707031,3.8320313 v 0.2460937 h 2.34375 v 0.65625 c 0,0.5859375 -0.03516,0.64453125 -0.820313,0.703125 v 0.24609375 h 2.308594 V -0.24477 C 42.083005,-0.30336375 42.03613,-0.35023875 42.03613,-0.947895 v -0.65625 z M 41.321286,-2.02602 h -1.769531 c 0.585937,-0.9960937 1.171875,-1.8515625 1.757812,-2.6484375 h 0.01172 z m 11.783203,-2.9179687 h 2.097656 l 0.234375,-0.5859375 -0.05859,-0.070312 h -2.56641 l -0.351562,2.7421875 c 0.210937,-0.082031 0.550781,-0.1875 0.925781,-0.1875 0.984375,0 1.464844,0.5742187 1.464844,1.359375 0,0.6796875 -0.375,1.33593745 -1.136719,1.33593745 -0.550781,0 -0.914062,-0.29296875 -1.113281,-0.45703125 -0.08203,-0.0703125 -0.152344,-0.0585938 -0.234375,0 -0.105469,0.09375 -0.1875,0.2109375 -0.1875,0.29296875 -0.02344,0.10546875 0.02344,0.1875 0.140625,0.3046875 0.128906,0.12890625 0.515625,0.31640625 0.925781,0.31640625 0.480469,-0.01171875 1.078125,-0.24609375 1.570313,-0.6328125 0.550781,-0.45703125 0.796875,-0.9609375 0.796875,-1.5117187 0,-0.7382813 -0.585938,-1.5117188 -1.734375,-1.5117188 -0.246094,0 -0.667969,0.140625 -1.007813,0.2695313 z m 12.793945,1.8632812 c 0.269532,-1.2539062 1.113282,-1.828125 1.664063,-2.0859375 0.328125,-0.1523437 0.679687,-0.2578125 0.972656,-0.3164062 l -0.05859,-0.28125 c -0.363281,0.058594 -0.796875,0.1640625 -1.148437,0.28125 -0.960938,0.3515625 -2.332031,1.3710937 -2.332031,3.3398437 0,1.3828125 0.796875,2.25 1.851562,2.25 1.078125,0 1.839844,-0.90234375 1.839844,-1.9804687 0,-0.9257813 -0.65625,-1.6640625 -1.617188,-1.6640625 -0.175781,0 -0.363281,0.070312 -0.5625,0.1523437 z m 0.820313,0.046875 c 0.820312,0 1.195312,0.7382813 1.195312,1.4882813 0,0.5976562 -0.210937,1.3476562 -0.914062,1.3476562 -0.738281,0 -1.195313,-0.8789062 -1.195313,-1.9570312 0,-0.234375 0.01172,-0.4570313 0.04687,-0.6210938 0.222657,-0.1171875 0.527344,-0.2578125 0.867188,-0.2578125 z m 14.90332,-2.5664062 h -3.433594 c -0.03516,0.3867187 -0.08203,0.8320312 -0.164062,1.3242187 h 0.257812 c 0.222657,-0.5859375 0.269532,-0.6679687 0.867188,-0.6679687 h 1.945312 c -0.714843,1.5585937 -1.722656,3.421875 -2.671875,4.9570312 l 0.05859,0.09375 0.667969,-0.08203125 C 80.016598,-1.83852 80.84863,-3.666645 81.69238,-5.49477 Z m 11.138672,-0.1171875 c -0.960937,0 -1.59375,0.7265625 -1.59375,1.4765625 0,0.6328125 0.386719,1.0664062 0.972656,1.3945312 -0.304687,0.1992188 -0.65625,0.4453125 -0.796875,0.5742188 -0.199218,0.1992187 -0.398437,0.4453125 -0.398437,0.8554687 0,0.97265625 0.761719,1.5234375 1.722656,1.5234375 0.761719,0 1.78125,-0.57421875 1.78125,-1.6289062 0,-0.7851563 -0.5625,-1.2070313 -1.183594,-1.5585938 0.398438,-0.28125 0.644532,-0.5039062 0.703125,-0.5859375 0.175782,-0.1875 0.269532,-0.4570312 0.269532,-0.7148437 0,-0.7265625 -0.621094,-1.3359375 -1.476563,-1.3359375 z m -0.08203,0.2929687 c 0.410156,0 0.878906,0.328125 0.878906,1.0898438 0,0.5390625 -0.246094,0.8671875 -0.550781,1.1132812 -0.632813,-0.3164062 -1.171875,-0.609375 -1.171875,-1.2773437 0,-0.4570313 0.304687,-0.9257813 0.84375,-0.9257813 z m 0.08203,5.25 c -0.574219,0 -1.101562,-0.46875 -1.101562,-1.2890625 0,-0.4921875 0.304687,-0.9492187 0.738281,-1.2304687 0.691406,0.3515625 1.335937,0.7382812 1.335937,1.40625 0,0.6914062 -0.421875,1.1132812 -0.972656,1.1132812 z M -22.422855,-85.129536 v -0.246093 c -0.820312,-0.05859 -0.878906,-0.128907 -0.878906,-0.785157 v -4.6875 c -0.492187,0.199219 -1.019531,0.375 -1.59375,0.46875 v 0.210938 l 0.433594,0.01172 c 0.386719,0.02344 0.421875,0.07031 0.421875,0.539062 v 3.457031 c 0,0.65625 -0.03516,0.726563 -0.855469,0.785157 v 0.246093 z m 1.713868,0.105469 c 0.28125,0 0.503906,-0.199219 0.503906,-0.515625 0,-0.292969 -0.222656,-0.515625 -0.503906,-0.515625 -0.292969,0 -0.503907,0.222656 -0.503907,0.515625 0,0.316406 0.210938,0.515625 0.503907,0.515625 z m 3.251953,-5.824219 c -1.347657,0 -1.839844,1.605469 -1.839844,2.917969 0,1.417969 0.480469,2.90625 1.839844,2.90625 1.359375,0 1.828125,-1.59375 1.828125,-2.917969 0,-1.382812 -0.46875,-2.90625 -1.828125,-2.90625 z m 0,0.304688 c 0.808593,0 1.03125,1.324219 1.03125,2.601562 0,1.265625 -0.222657,2.613282 -1.03125,2.613282 -0.773438,0 -1.042969,-1.359375 -1.042969,-2.613282 0,-1.253906 0.222656,-2.601562 1.042969,-2.601562 z m -6.621094,38.414062 c -1.347656,0 -1.839844,1.605469 -1.839844,2.917969 0,1.417969 0.480469,2.90625 1.839844,2.90625 1.359375,0 1.828125,-1.59375 1.828125,-2.917969 0,-1.382812 -0.46875,-2.90625 -1.828125,-2.90625 z m 0,0.304688 c 0.808594,0 1.03125,1.324219 1.03125,2.601562 0,1.265625 -0.222656,2.613282 -1.03125,2.613282 -0.773438,0 -1.042969,-1.359375 -1.042969,-2.613282 0,-1.253906 0.222656,-2.601562 1.042969,-2.601562 z m 3.246094,5.519531 c 0.28125,0 0.503906,-0.199219 0.503906,-0.515625 0,-0.292969 -0.222656,-0.515625 -0.503906,-0.515625 -0.292969,0 -0.503907,0.222656 -0.503907,0.515625 0,0.316406 0.210938,0.515625 0.503907,0.515625 z m 2.589843,-5.050781 h 2.097657 l 0.234375,-0.585938 -0.05859,-0.07031 h -2.566406 l -0.351563,2.742187 c 0.210938,-0.08203 0.550781,-0.1875 0.925781,-0.1875 0.984375,0 1.464844,0.574219 1.464844,1.359375 0,0.679688 -0.375,1.335938 -1.136719,1.335938 -0.550781,0 -0.914062,-0.292969 -1.113281,-0.457031 -0.08203,-0.07031 -0.152344,-0.05859 -0.234375,0 -0.105469,0.09375 -0.1875,0.210937 -0.1875,0.292968 -0.02344,0.105469 0.02344,0.1875 0.140625,0.304688 0.128906,0.128906 0.515625,0.316406 0.925781,0.316406 0.480469,-0.01172 1.078125,-0.246094 1.570313,-0.632812 0.550781,-0.457032 0.796875,-0.960938 0.796875,-1.511719 0,-0.738281 -0.585938,-1.511719 -1.734375,-1.511719 -0.246094,0 -0.667969,0.140625 -1.007813,0.269531 z m 0,0"
         style="fill:#231f20;fill-opacity:1;fill-rule:nonzero;stroke:none"
         aria-label="12345678&#10;1.0&#10;0.5"
         transform="matrix(1.3333333,0,0,1.3333333,35.205733,123.82636)" />
      <path
         id="path3"
         d="M 156.301,443.113 285.645,841.879 414.957,761.191 544.301,385.605 673.648,541.523 802.992,603.785 932.34,649.047 1061.66,317.52 1191,548.406"
         style="fill:none;stroke:#3871c1;stroke-width:7.5;stroke-linecap:square;stroke-linejoin:miter;stroke-miterlimit:3.25;stroke-dasharray:none;stroke-opacity:1"
         transform="matrix(0.13333333,0,0,-0.13333333,0,128.14667)" />
      <path
         id="path4"
         d="m 26.9453,145.02 3.9766,9.175"
         style="fill:none;stroke:#3871c1;stroke-width:5;stroke-linecap:butt;stroke-linejoin:miter;stroke-miterlimit:3.25;stroke-dasharray:none;stroke-opacity:1"
         transform="matrix(0.13333333,0,0,-0.13333333,0,128.14667)" />
      <path
         id="path5"
         d="M 37.0938,168.418 149.234,426.832"
         style="fill:none;stroke:#3871c1;stroke-width:5;stroke-linecap:butt;stroke-linejoin:miter;stroke-miterlimit:3.25;stroke-dasharray:20.6747, 15.506;stroke-dashoffset:0;stroke-opacity:1"
         transform="matrix(0.13333333,0,0,-0.13333333,0,128.14667)" />
      <path
         id="path6"
         d="m 152.32,433.941 3.981,9.172 3.976,-9.172"
         style="fill:none;stroke:#3871c1;stroke-width:5;stroke-linecap:butt;stroke-linejoin:miter;stroke-miterlimit:3.25;stroke-dasharray:none;stroke-opacity:1"
         transform="matrix(0.13333333,0,0,-0.13333333,0,128.14667)" />
      <path
         id="path7"
         d="M 166.449,419.719 278.578,161.305"
         style="fill:none;stroke:#3871c1;stroke-width:5;stroke-linecap:butt;stroke-linejoin:miter;stroke-miterlimit:3.25;stroke-dasharray:20.6745, 15.5058;stroke-dashoffset:0;stroke-opacity:1"
         transform="matrix(0.13333333,0,0,-0.13333333,0,128.14667)" />
      <path
         id="path8"
         d="m 281.664,154.195 3.981,-9.175"
         style="fill:none;stroke:#3871c1;stroke-width:5;stroke-linecap:butt;stroke-linejoin:miter;stroke-miterlimit:3.25;stroke-dasharray:none;stroke-opacity:1"
         transform="matrix(0.13333333,0,0,-0.13333333,0,128.14667)" />
      <path
         id="path9"
         d="m 156.301,145.02 1.824,9.835"
         style="fill:none;stroke:#3871c1;stroke-width:5;stroke-linecap:butt;stroke-linejoin:miter;stroke-miterlimit:3.25;stroke-dasharray:none;stroke-opacity:1"
         transform="matrix(0.13333333,0,0,-0.13333333,0,128.14667)" />
      <path
         id="path10"
         d="M 160.898,169.789 282.434,824.582"
         style="fill:none;stroke:#3871c1;stroke-width:5;stroke-linecap:butt;stroke-linejoin:miter;stroke-miterlimit:3.25;stroke-dasharray:20.2577, 15.1933;stroke-dashoffset:0;stroke-opacity:1"
         transform="matrix(0.13333333,0,0,-0.13333333,0,128.14667)" />
      <path
         id="path11"
         d="m 283.816,832.047 1.829,9.832 1.828,-9.832"
         style="fill:none;stroke:#3871c1;stroke-width:5;stroke-linecap:butt;stroke-linejoin:miter;stroke-miterlimit:3.25;stroke-dasharray:none;stroke-opacity:1"
         transform="matrix(0.13333333,0,0,-0.13333333,0,128.14667)" />
      <path
         id="path12"
         d="M 290.238,817.109 411.742,162.32"
         style="fill:none;stroke:#3871c1;stroke-width:5;stroke-linecap:butt;stroke-linejoin:miter;stroke-miterlimit:3.25;stroke-dasharray:20.2575, 15.1932;stroke-dashoffset:0;stroke-opacity:1"
         transform="matrix(0.13333333,0,0,-0.13333333,0,128.14667)" />
      <path
         id="path13"
         d="m 413.129,154.855 1.828,-9.835"
         style="fill:none;stroke:#3871c1;stroke-width:5;stroke-linecap:butt;stroke-linejoin:miter;stroke-miterlimit:3.25;stroke-dasharray:none;stroke-opacity:1"
         transform="matrix(0.13333333,0,0,-0.13333333,0,128.14667)" />
      <path
         id="path14"
         d="m 285.645,145.02 2.054,9.785"
         style="fill:none;stroke:#3871c1;stroke-width:5;stroke-linecap:butt;stroke-linejoin:miter;stroke-miterlimit:3.25;stroke-dasharray:none;stroke-opacity:1"
         transform="matrix(0.13333333,0,0,-0.13333333,0,128.14667)" />
      <path
         id="path15"
         d="M 290.777,169.477 411.363,744.066"
         style="fill:none;stroke:#3871c1;stroke-width:5;stroke-linecap:butt;stroke-linejoin:miter;stroke-miterlimit:3.25;stroke-dasharray:19.9867, 14.99;stroke-dashoffset:0;stroke-opacity:1"
         transform="matrix(0.13333333,0,0,-0.13333333,0,128.14667)" />
      <path
         id="path16"
         d="m 412.898,751.406 2.059,9.785 2.055,-9.785"
         style="fill:none;stroke:#3871c1;stroke-width:5;stroke-linecap:butt;stroke-linejoin:miter;stroke-miterlimit:3.25;stroke-dasharray:none;stroke-opacity:1"
         transform="matrix(0.13333333,0,0,-0.13333333,0,128.14667)" />
      <path
         id="path17"
         d="M 420.09,736.734 540.707,162.145"
         style="fill:none;stroke:#3871c1;stroke-width:5;stroke-linecap:butt;stroke-linejoin:miter;stroke-miterlimit:3.25;stroke-dasharray:19.9869, 14.9902;stroke-dashoffset:0;stroke-opacity:1"
         transform="matrix(0.13333333,0,0,-0.13333333,0,128.14667)" />
      <path
         id="path18"
         d="m 542.246,154.805 2.055,-9.785"
         style="fill:none;stroke:#3871c1;stroke-width:5;stroke-linecap:butt;stroke-linejoin:miter;stroke-miterlimit:3.25;stroke-dasharray:none;stroke-opacity:1"
         transform="matrix(0.13333333,0,0,-0.13333333,0,128.14667)" />
      <path
         id="path19"
         d="m 414.957,145.02 4.734,8.808"
         style="fill:none;stroke:#3871c1;stroke-width:5;stroke-linecap:butt;stroke-linejoin:miter;stroke-miterlimit:3.25;stroke-dasharray:none;stroke-opacity:1"
         transform="matrix(0.13333333,0,0,-0.13333333,0,128.14667)" />
      <path
         id="path20"
         d="M 426.605,166.691 536.109,370.367"
         style="fill:none;stroke:#3871c1;stroke-width:5;stroke-linecap:butt;stroke-linejoin:miter;stroke-miterlimit:3.25;stroke-dasharray:19.4732, 14.6049;stroke-dashoffset:0;stroke-opacity:1"
         transform="matrix(0.13333333,0,0,-0.13333333,0,128.14667)" />
      <path
         id="path21"
         d="m 539.566,376.797 4.735,8.808 4.738,-8.808"
         style="fill:none;stroke:#3871c1;stroke-width:5;stroke-linecap:butt;stroke-linejoin:miter;stroke-miterlimit:3.25;stroke-dasharray:none;stroke-opacity:1"
         transform="matrix(0.13333333,0,0,-0.13333333,0,128.14667)" />
      <path
         id="path22"
         d="m 555.953,363.938 109.5,-203.68"
         style="fill:none;stroke:#3871c1;stroke-width:5;stroke-linecap:butt;stroke-linejoin:miter;stroke-miterlimit:3.25;stroke-dasharray:19.4732, 14.6049;stroke-dashoffset:0;stroke-opacity:1"
         transform="matrix(0.13333333,0,0,-0.13333333,0,128.14667)" />
      <path
         id="path23"
         d="m 668.91,153.828 4.738,-8.808"
         style="fill:none;stroke:#3871c1;stroke-width:5;stroke-linecap:butt;stroke-linejoin:miter;stroke-miterlimit:3.25;stroke-dasharray:none;stroke-opacity:1"
         transform="matrix(0.13333333,0,0,-0.13333333,0,128.14667)" />
      <path
         id="path24"
         d="m 544.301,145.02 3.101,9.507"
         style="fill:none;stroke:#3871c1;stroke-width:5;stroke-linecap:butt;stroke-linejoin:miter;stroke-miterlimit:3.25;stroke-dasharray:none;stroke-opacity:1"
         transform="matrix(0.13333333,0,0,-0.13333333,0,128.14667)" />
      <path
         id="path25"
         d="M 552.02,168.684 668.238,524.938"
         style="fill:none;stroke:#3871c1;stroke-width:5;stroke-linecap:butt;stroke-linejoin:miter;stroke-miterlimit:3.25;stroke-dasharray:19.8534, 14.89;stroke-dashoffset:0;stroke-opacity:1"
         transform="matrix(0.13333333,0,0,-0.13333333,0,128.14667)" />
      <path
         id="path26"
         d="m 670.547,532.016 3.101,9.507 3.098,-9.507"
         style="fill:none;stroke:#3871c1;stroke-width:5;stroke-linecap:butt;stroke-linejoin:miter;stroke-miterlimit:3.25;stroke-dasharray:none;stroke-opacity:1"
         transform="matrix(0.13333333,0,0,-0.13333333,0,128.14667)" />
      <path
         id="path27"
         d="M 681.367,517.863 797.582,161.605"
         style="fill:none;stroke:#3871c1;stroke-width:5;stroke-linecap:butt;stroke-linejoin:miter;stroke-miterlimit:3.25;stroke-dasharray:19.8534, 14.89;stroke-dashoffset:0;stroke-opacity:1"
         transform="matrix(0.13333333,0,0,-0.13333333,0,128.14667)" />
      <path
         id="path28"
         d="m 799.887,154.527 3.105,-9.507"
         style="fill:none;stroke:#3871c1;stroke-width:5;stroke-linecap:butt;stroke-linejoin:miter;stroke-miterlimit:3.25;stroke-dasharray:none;stroke-opacity:1"
         transform="matrix(0.13333333,0,0,-0.13333333,0,128.14667)" />
      <path
         id="path29"
         d="m 673.648,145.02 2.715,9.625"
         style="fill:none;stroke:#3871c1;stroke-width:5;stroke-linecap:butt;stroke-linejoin:miter;stroke-miterlimit:3.25;stroke-dasharray:none;stroke-opacity:1"
         transform="matrix(0.13333333,0,0,-0.13333333,0,128.14667)" />
      <path
         id="path30"
         d="M 680.316,168.672 798.305,587.145"
         style="fill:none;stroke:#3871c1;stroke-width:5;stroke-linecap:butt;stroke-linejoin:miter;stroke-miterlimit:3.25;stroke-dasharray:19.4319, 14.5739;stroke-dashoffset:0;stroke-opacity:1"
         transform="matrix(0.13333333,0,0,-0.13333333,0,128.14667)" />
      <path
         id="path31"
         d="m 800.277,594.16 2.715,9.625 2.715,-9.625"
         style="fill:none;stroke:#3871c1;stroke-width:5;stroke-linecap:butt;stroke-linejoin:miter;stroke-miterlimit:3.25;stroke-dasharray:none;stroke-opacity:1"
         transform="matrix(0.13333333,0,0,-0.13333333,0,128.14667)" />
      <path
         id="path32"
         d="M 809.664,580.133 927.652,161.66"
         style="fill:none;stroke:#3871c1;stroke-width:5;stroke-linecap:butt;stroke-linejoin:miter;stroke-miterlimit:3.25;stroke-dasharray:19.4319, 14.5739;stroke-dashoffset:0;stroke-opacity:1"
         transform="matrix(0.13333333,0,0,-0.13333333,0,128.14667)" />
      <path
         id="path33"
         d="m 929.625,154.645 2.715,-9.625"
         style="fill:none;stroke:#3871c1;stroke-width:5;stroke-linecap:butt;stroke-linejoin:miter;stroke-miterlimit:3.25;stroke-dasharray:none;stroke-opacity:1"
         transform="matrix(0.13333333,0,0,-0.13333333,0,128.14667)" />
      <path
         id="path34"
         d="m 802.992,145.02 2.492,9.687"
         style="fill:none;stroke:#3871c1;stroke-width:5;stroke-linecap:butt;stroke-linejoin:miter;stroke-miterlimit:3.25;stroke-dasharray:none;stroke-opacity:1"
         transform="matrix(0.13333333,0,0,-0.13333333,0,128.14667)" />
      <path
         id="path35"
         d="M 809.176,169.102 928.004,632.164"
         style="fill:none;stroke:#3871c1;stroke-width:5;stroke-linecap:butt;stroke-linejoin:miter;stroke-miterlimit:3.25;stroke-dasharray:19.8162, 14.8622;stroke-dashoffset:0;stroke-opacity:1"
         transform="matrix(0.13333333,0,0,-0.13333333,0,128.14667)" />
      <path
         id="path36"
         d="m 929.848,639.359 2.492,9.688 2.48,-9.688"
         style="fill:none;stroke:#3871c1;stroke-width:5;stroke-linecap:butt;stroke-linejoin:miter;stroke-miterlimit:3.25;stroke-dasharray:none;stroke-opacity:1"
         transform="matrix(0.13333333,0,0,-0.13333333,0,128.14667)" />
      <path
         id="path37"
         d="m 938.52,624.965 118.8,-463.063"
         style="fill:none;stroke:#3871c1;stroke-width:5;stroke-linecap:butt;stroke-linejoin:miter;stroke-miterlimit:3.25;stroke-dasharray:19.816, 14.862;stroke-dashoffset:0;stroke-opacity:1"
         transform="matrix(0.13333333,0,0,-0.13333333,0,128.14667)" />
      <path
         id="path38"
         d="m 1059.17,154.707 2.49,-9.687"
         style="fill:none;stroke:#3871c1;stroke-width:5;stroke-linecap:butt;stroke-linejoin:miter;stroke-miterlimit:3.25;stroke-dasharray:none;stroke-opacity:1"
         transform="matrix(0.13333333,0,0,-0.13333333,0,128.14667)" />
      <path
         id="path39"
         d="m 932.34,145.02 5.996,8.003"
         style="fill:none;stroke:#3871c1;stroke-width:5;stroke-linecap:butt;stroke-linejoin:miter;stroke-miterlimit:3.25;stroke-dasharray:none;stroke-opacity:1"
         transform="matrix(0.13333333,0,0,-0.13333333,0,128.14667)" />
      <path
         id="path40"
         d="M 947.602,165.375 1051.03,303.34"
         style="fill:none;stroke:#3871c1;stroke-width:5;stroke-linecap:butt;stroke-linejoin:miter;stroke-miterlimit:3.25;stroke-dasharray:20.5884, 15.4413;stroke-dashoffset:0;stroke-opacity:1"
         transform="matrix(0.13333333,0,0,-0.13333333,0,128.14667)" />
      <path
         id="path41"
         d="m 1055.66,309.516 6,8.004 5.99,-8.004"
         style="fill:none;stroke:#3871c1;stroke-width:5;stroke-linecap:butt;stroke-linejoin:miter;stroke-miterlimit:3.25;stroke-dasharray:none;stroke-opacity:1"
         transform="matrix(0.13333333,0,0,-0.13333333,0,128.14667)" />
      <path
         id="path42"
         d="M 1076.92,297.164 1180.37,159.199"
         style="fill:none;stroke:#3871c1;stroke-width:5;stroke-linecap:butt;stroke-linejoin:miter;stroke-miterlimit:3.25;stroke-dasharray:20.5903, 15.4427;stroke-dashoffset:0;stroke-opacity:1"
         transform="matrix(0.13333333,0,0,-0.13333333,0,128.14667)" />
      <path
         id="path43"
         d="m 1185,153.023 6,-8.003"
         style="fill:none;stroke:#3871c1;stroke-width:5;stroke-linecap:butt;stroke-linejoin:miter;stroke-miterlimit:3.25;stroke-dasharray:none;stroke-opacity:1"
         transform="matrix(0.13333333,0,0,-0.13333333,0,128.14667)" />
      <path
         id="path44"
         d="m 1061.66,145.02 3.05,9.523"
         style="fill:none;stroke:#3871c1;stroke-width:5;stroke-linecap:butt;stroke-linejoin:miter;stroke-miterlimit:3.25;stroke-dasharray:none;stroke-opacity:1"
         transform="matrix(0.13333333,0,0,-0.13333333,0,128.14667)" />
      <path
         id="path45"
         d="M 1069.33,168.953 1185.64,531.68"
         style="fill:none;stroke:#3871c1;stroke-width:5;stroke-linecap:butt;stroke-linejoin:miter;stroke-miterlimit:3.25;stroke-dasharray:20.1809, 15.1357;stroke-dashoffset:0;stroke-opacity:1"
         transform="matrix(0.13333333,0,0,-0.13333333,0,128.14667)" />
      <path
         id="path46"
         d="m 1187.94,538.887 3.06,9.519 3.06,-9.519"
         style="fill:none;stroke:#3871c1;stroke-width:5;stroke-linecap:butt;stroke-linejoin:miter;stroke-miterlimit:3.25;stroke-dasharray:none;stroke-opacity:1"
         transform="matrix(0.13333333,0,0,-0.13333333,0,128.14667)" />
      <path
         id="path47"
         d="M 1198.68,524.473 1314.99,161.75"
         style="fill:none;stroke:#3871c1;stroke-width:5;stroke-linecap:butt;stroke-linejoin:miter;stroke-miterlimit:3.25;stroke-dasharray:20.1809, 15.1357;stroke-dashoffset:0;stroke-opacity:1"
         transform="matrix(0.13333333,0,0,-0.13333333,0,128.14667)" />
      <path
         id="path48"
         d="m 1317.29,154.543 3.06,-9.523"
         style="fill:none;stroke:#3871c1;stroke-width:5;stroke-linecap:butt;stroke-linejoin:miter;stroke-miterlimit:3.25;stroke-dasharray:none;stroke-opacity:1"
         transform="matrix(0.13333333,0,0,-0.13333333,0,128.14667)" />
      <path
         id="path49"
         d="m 285.645,115.02 v 30"
         style="fill:none;stroke:#231f20;stroke-width:3.6;stroke-linecap:butt;stroke-linejoin:miter;stroke-miterlimit:3.25;stroke-dasharray:none;stroke-opacity:1"
         transform="matrix(0.13333333,0,0,-0.13333333,0,128.14667)" />
      <path
         id="path50"
         d="m 414.957,115.02 v 30"
         style="fill:none;stroke:#231f20;stroke-width:3.6;stroke-linecap:butt;stroke-linejoin:miter;stroke-miterlimit:3.25;stroke-dasharray:none;stroke-opacity:1"
         transform="matrix(0.13333333,0,0,-0.13333333,0,128.14667)" />
      <path
         id="path51"
         d="m 544.301,115.02 v 30"
         style="fill:none;stroke:#231f20;stroke-width:3.6;stroke-linecap:butt;stroke-linejoin:miter;stroke-miterlimit:3.25;stroke-dasharray:none;stroke-opacity:1"
         transform="matrix(0.13333333,0,0,-0.13333333,0,128.14667)" />
      <path
         id="path52"
         d="m 673.648,115.02 v 30"
         style="fill:none;stroke:#231f20;stroke-width:3.6;stroke-linecap:butt;stroke-linejoin:miter;stroke-miterlimit:3.25;stroke-dasharray:none;stroke-opacity:1"
         transform="matrix(0.13333333,0,0,-0.13333333,0,128.14667)" />
      <path
         id="path53"
         d="m 802.992,115.02 v 30"
         style="fill:none;stroke:#231f20;stroke-width:3.6;stroke-linecap:butt;stroke-linejoin:miter;stroke-miterlimit:3.25;stroke-dasharray:none;stroke-opacity:1"
         transform="matrix(0.13333333,0,0,-0.13333333,0,128.14667)" />
      <path
         id="path54"
         d="m 932.34,115.02 v 30"
         style="fill:none;stroke:#231f20;stroke-width:3.6;stroke-linecap:butt;stroke-linejoin:miter;stroke-miterlimit:3.25;stroke-dasharray:none;stroke-opacity:1"
         transform="matrix(0.13333333,0,0,-0.13333333,0,128.14667)" />
      <path
         id="path55"
         d="m 1061.66,115.02 v 30"
         style="fill:none;stroke:#231f20;stroke-width:3.6;stroke-linecap:butt;stroke-linejoin:miter;stroke-miterlimit:3.25;stroke-dasharray:none;stroke-opacity:1"
         transform="matrix(0.13333333,0,0,-0.13333333,0,128.14667)" />
      <path
         id="path56"
         d="m 1191,115.02 v 30"
         style="fill:none;stroke:#231f20;stroke-width:3.6;stroke-linecap:butt;stroke-linejoin:miter;stroke-miterlimit:3.25;stroke-dasharray:none;stroke-opacity:1"
         transform="matrix(0.13333333,0,0,-0.13333333,0,128.14667)" />
      <path
         id="path57"
         d="m 172.484,443.102 c 0,4.336 -1.718,8.437 -4.754,11.484 -3.046,3.047 -7.14,4.746 -11.417,4.746 -4.356,0 -8.446,-1.699 -11.493,-4.746 -3.047,-3.047 -4.738,-7.148 -4.738,-11.484 0,-4.278 1.691,-8.379 4.738,-11.426 3.047,-3.047 7.137,-4.746 11.493,-4.746 4.277,0 8.371,1.699 11.417,4.746 3.036,3.047 4.754,7.148 4.754,11.426 v 0"
         style="fill:#231f20;fill-opacity:1;fill-rule:evenodd;stroke:none"
         transform="matrix(0.13333333,0,0,-0.13333333,0,128.14667)" />
      <path
         id="path58"
         d="m 301.832,841.863 c 0,4.336 -1.719,8.43 -4.766,11.469 -3.039,3.047 -7.14,4.766 -11.406,4.766 -4.336,0 -8.449,-1.719 -11.496,-4.766 -3.047,-3.039 -4.734,-7.133 -4.734,-11.469 0,-4.273 1.687,-8.386 4.734,-11.433 3.047,-3.047 7.16,-4.735 11.496,-4.735 4.266,0 8.367,1.688 11.406,4.735 3.047,3.047 4.766,7.16 4.766,11.433 v 0"
         style="fill:#231f20;fill-opacity:1;fill-rule:evenodd;stroke:none"
         transform="matrix(0.13333333,0,0,-0.13333333,0,128.14667)" />
      <path
         id="path59"
         d="m 431.168,761.172 c 0,4.277 -1.691,8.43 -4.758,11.496 -3.047,2.984 -7.137,4.734 -11.472,4.734 -4.27,0 -8.379,-1.75 -11.426,-4.734 -3.047,-3.066 -4.739,-7.219 -4.739,-11.496 0,-4.27 1.692,-8.445 4.739,-11.426 3.047,-3.047 7.156,-4.734 11.426,-4.734 4.335,0 8.425,1.687 11.472,4.734 3.067,2.981 4.758,7.156 4.758,11.426 v 0"
         style="fill:#231f20;fill-opacity:1;fill-rule:evenodd;stroke:none"
         transform="matrix(0.13333333,0,0,-0.13333333,0,128.14667)" />
      <path
         id="path60"
         d="m 560.52,385.59 c 0,4.277 -1.692,8.437 -4.739,11.484 -3.066,3.047 -7.218,4.746 -11.496,4.746 -4.265,0 -8.387,-1.699 -11.426,-4.746 -3.046,-3.047 -4.746,-7.207 -4.746,-11.484 0,-4.277 1.7,-8.379 4.746,-11.426 3.039,-3.047 7.161,-4.746 11.426,-4.746 4.278,0 8.43,1.699 11.496,4.746 3.047,3.047 4.739,7.149 4.739,11.426 v 0"
         style="fill:#231f20;fill-opacity:1;fill-rule:evenodd;stroke:none"
         transform="matrix(0.13333333,0,0,-0.13333333,0,128.14667)" />
      <path
         id="path61"
         d="m 689.82,541.539 c 0,4.277 -1.699,8.367 -4.687,11.434 -3.047,3.047 -7.207,4.738 -11.485,4.738 -4.277,0 -8.429,-1.691 -11.496,-4.738 -2.976,-3.067 -4.675,-7.157 -4.675,-11.434 0,-4.328 1.699,-8.449 4.675,-11.484 3.067,-3.047 7.219,-4.746 11.496,-4.746 4.278,0 8.438,1.699 11.485,4.746 2.988,3.035 4.687,7.156 4.687,11.484 v 0"
         style="fill:#231f20;fill-opacity:1;fill-rule:evenodd;stroke:none"
         transform="matrix(0.13333333,0,0,-0.13333333,0,128.14667)" />
      <path
         id="path62"
         d="m 819.176,603.801 c 0,4.273 -1.699,8.367 -4.746,11.406 -3.047,3.047 -7.149,4.766 -11.426,4.766 -4.277,0 -8.438,-1.719 -11.484,-4.766 -3.047,-3.039 -4.747,-7.133 -4.747,-11.406 0,-4.336 1.7,-8.449 4.747,-11.496 3.046,-3.047 7.207,-4.735 11.484,-4.735 4.277,0 8.379,1.688 11.426,4.735 3.047,3.047 4.746,7.16 4.746,11.496 v 0"
         style="fill:#231f20;fill-opacity:1;fill-rule:evenodd;stroke:none"
         transform="matrix(0.13333333,0,0,-0.13333333,0,128.14667)" />
      <path
         id="path63"
         d="m 948.531,649.063 c 0,4.269 -1.699,8.359 -4.746,11.406 -3.047,3.066 -7.148,4.758 -11.426,4.758 -4.336,0 -8.437,-1.692 -11.484,-4.758 -3.047,-3.047 -4.746,-7.137 -4.746,-11.406 0,-4.336 1.699,-8.45 4.746,-11.493 3.047,-3.047 7.148,-4.738 11.484,-4.738 4.278,0 8.379,1.691 11.426,4.738 3.047,3.043 4.746,7.157 4.746,11.493 v 0"
         style="fill:#231f20;fill-opacity:1;fill-rule:evenodd;stroke:none"
         transform="matrix(0.13333333,0,0,-0.13333333,0,128.14667)" />
      <path
         id="path64"
         d="m 1077.87,317.535 c 0,4.278 -1.7,8.379 -4.75,11.426 -3.05,3.047 -7.15,4.746 -11.48,4.746 -4.28,0 -8.38,-1.699 -11.43,-4.746 -3.05,-3.047 -4.75,-7.148 -4.75,-11.426 0,-4.336 1.7,-8.437 4.75,-11.484 3.05,-3.047 7.15,-4.746 11.43,-4.746 4.33,0 8.43,1.699 11.48,4.746 3.05,3.047 4.75,7.148 4.75,11.484 v 0"
         style="fill:#231f20;fill-opacity:1;fill-rule:evenodd;stroke:none"
         transform="matrix(0.13333333,0,0,-0.13333333,0,128.14667)" />
      <path
         id="path65"
         d="m 1207.22,548.418 c 0,4.277 -1.7,8.367 -4.74,11.418 -3.05,3.066 -7.15,4.754 -11.49,4.754 -4.28,0 -8.38,-1.688 -11.42,-4.754 -3.05,-3.051 -4.75,-7.141 -4.75,-11.418 0,-4.324 1.7,-8.445 4.75,-11.484 3.04,-3.047 7.14,-4.739 11.42,-4.739 4.34,0 8.44,1.692 11.49,4.739 3.04,3.039 4.74,7.16 4.74,11.484 v 0"
         style="fill:#231f20;fill-opacity:1;fill-rule:evenodd;stroke:none"
         transform="matrix(0.13333333,0,0,-0.13333333,0,128.14667)" />
      <path
         id="path66"
         d="M 0,145.02 H 1347.3"
         style="fill:none;stroke:#231f20;stroke-width:5;stroke-linecap:butt;stroke-linejoin:miter;stroke-miterlimit:3.25;stroke-dasharray:none;stroke-opacity:1"
         transform="matrix(0.13333333,0,0,-0.13333333,0,128.14667)" />
      <path
         id="path67"
         d="m 126.301,532.242 h 30"
         style="fill:none;stroke:#231f20;stroke-width:5;stroke-linecap:butt;stroke-linejoin:miter;stroke-miterlimit:3.25;stroke-dasharray:none;stroke-opacity:1"
         transform="matrix(0.13333333,0,0,-0.13333333,0,128.14667)" />
      <path
         id="path68"
         d="m 126.301,919.43 h 30"
         style="fill:none;stroke:#231f20;stroke-width:5;stroke-linecap:butt;stroke-linejoin:miter;stroke-miterlimit:3.25;stroke-dasharray:none;stroke-opacity:1"
         transform="matrix(0.13333333,0,0,-0.13333333,0,128.14667)" />
      <path
         id="path69"
         d="M 156.301,145.02 V 961.051"
         style="fill:none;stroke:#231f20;stroke-width:5;stroke-linecap:butt;stroke-linejoin:miter;stroke-miterlimit:3.25;stroke-dasharray:none;stroke-opacity:1"
         transform="matrix(0.13333333,0,0,-0.13333333,0,128.14667)" />
    </g>
  </g>
</svg>
