<?xml version="1.0" encoding="UTF-8" standalone="no"?>
<!-- Created with Inkscape (http://www.inkscape.org/) -->

<svg
   version="1.1"
   id="svg1"
   width="211.52"
   height="137.45332"
   viewBox="0 0 211.52 137.45332"
   sodipodi:docname="pha08f50.eps"
   xmlns:inkscape="http://www.inkscape.org/namespaces/inkscape"
   xmlns:sodipodi="http://sodipodi.sourceforge.net/DTD/sodipodi-0.dtd"
   xmlns="http://www.w3.org/2000/svg"
   xmlns:svg="http://www.w3.org/2000/svg">
  <defs
     id="defs1" />
  <sodipodi:namedview
     id="namedview1"
     pagecolor="#ffffff"
     bordercolor="#000000"
     borderopacity="0.25"
     inkscape:showpageshadow="2"
     inkscape:pageopacity="0.0"
     inkscape:pagecheckerboard="0"
     inkscape:deskcolor="#d1d1d1">
    <inkscape:page
       x="0"
       y="0"
       inkscape:label="1"
       id="page1"
       width="211.52"
       height="137.45332"
       margin="0"
       bleed="0" />
  </sodipodi:namedview>
  <g
     id="g1"
     inkscape:groupmode="layer"
     inkscape:label="1">
    <g
       id="group-R5">
      <g
         id="g2"
         aria-label="f(x)&#10;p(x)&#10;1&#10;–2–112"
         transform="matrix(1.3333333,0,0,1.3333333,191.46267,47.836133)">
        <path
           id="path2"
           d="m 0.71354687,-3.9024906 -0.26953125,0.2578125 0.0234375,0.09375 H 1.2174531 c -0.1523437,0.890625 -0.26953123,1.640625 -0.49218748,2.88281248 -0.29296875,1.74609372 -0.515625,2.12109372 -0.6328125,2.26171872 -0.08203125,0.1054688 -0.234375,0.1757813 -0.38671875,0.1757813 -0.15234375,0 -0.421875,-0.082031 -0.5625,-0.2226563 -0.0585938,-0.058594 -0.09375,-0.058594 -0.17578127,0 -0.1289062,0.1054688 -0.234375,0.2578125 -0.234375,0.375 -0.011719,0.2109375 0.29296877,0.3867188 0.55078127,0.3867188 0.24609375,0 0.62109375,-0.140625 1.01953125,-0.5625 C 0.79557812,1.2303219 1.1354219,0.56235313 1.4518281,-0.98452187 1.6510469,-1.9923344 1.7447969,-2.5431156 1.9088594,-3.5274906 l 0.9023437,-0.09375 0.1875,-0.28125 H 1.9791719 c 0.2695312,-1.6640625 0.5390625,-2.0742188 0.8671875,-2.0742188 0.1992187,0 0.3867187,0.1171875 0.5742187,0.3164063 0.058594,0.070312 0.1523438,0.058594 0.2226563,0.011719 0.09375,-0.070312 0.2226562,-0.234375 0.2226562,-0.375 0.011719,-0.1640625 -0.2226562,-0.3867187 -0.5390625,-0.3867187 -0.3632812,0 -0.8671875,0.2578125 -1.2890625,0.7265625 -0.3984375,0.4453125 -0.6210937,1.1015625 -0.75,1.78125 z m 0,0"
           style="fill:#231f20;fill-opacity:1;fill-rule:nonzero;stroke:none" />
        <path
           id="path3"
           d="m 6.2155,1.3240719 c -0.890625,-0.76171877 -1.40625,-2.20312502 -1.40625,-3.75 0,-1.546875 0.515625,-3 1.40625,-3.75 L 6.0631562,-6.3868656 C 4.7389375,-5.4845219 4.153,-4.0548344 4.153,-2.4376469 c 0,1.62890628 0.5859375,3.08203128 1.9101562,3.9609375 z m 0,0"
           style="fill:#231f20;fill-opacity:1;fill-rule:nonzero;stroke:none" />
        <path
           id="path4"
           d="m 7.4049531,-2.9181156 c 0.3164063,-0.3984375 0.4921875,-0.515625 0.5742188,-0.515625 0.09375,0 0.1757812,0.1289062 0.3046875,0.5742187 l 0.3046875,0.9375 c -0.5625,0.8320313 -0.984375,1.35937503 -1.2421875,1.35937503 -0.09375,0 -0.1640625,-0.0351563 -0.2109375,-0.09375 -0.046875,-0.0585938 -0.09375,-0.09375 -0.140625,-0.09375 -0.1757813,0 -0.3632813,0.2109375 -0.3632813,0.421875 -0.011719,0.2578125 0.1757813,0.43359375 0.4101563,0.43359375 0.421875,0 0.84375,-0.43359375 1.640625,-1.69921878 l 0.28125,0.87890628 c 0.1757812,0.5625 0.3632812,0.8203125 0.5976562,0.8203125 0.3046875,0 0.7265629,-0.328125 1.1367189,-0.97265625 L 10.545578,-1.0431156 c -0.28125,0.33984373 -0.503906,0.51562498 -0.6445311,0.51562498 -0.1523438,0 -0.28125,-0.2578125 -0.4570313,-0.82031248 L 9.1510469,-2.2501469 c 0.1992187,-0.28125 0.3984375,-0.5273437 0.5859375,-0.7382812 0.234375,-0.2929688 0.4101566,-0.4453125 0.5390626,-0.4453125 0.08203,0 0.152344,0.035156 0.210937,0.1054687 0.04687,0.046875 0.08203,0.070312 0.128907,0.070312 0.140625,0 0.339843,-0.1757812 0.351562,-0.3984375 0,-0.1992187 -0.140625,-0.3867187 -0.375,-0.3867187 -0.398437,0 -0.7851561,0.3867187 -1.5351561,1.4765625 l -0.1523438,-0.492187 c -0.2226562,-0.6445313 -0.3398437,-0.984375 -0.5859375,-0.984375 -0.2929687,0 -0.6914062,0.3867187 -1.0664062,0.9375 z m 0,0"
           style="fill:#231f20;fill-opacity:1;fill-rule:nonzero;stroke:none" />
        <path
           id="path5"
           d="m 11.298508,-6.1759281 c 0.890625,0.7382812 1.417969,2.203125 1.417969,3.75 0,1.54687498 -0.503907,2.98828123 -1.417969,3.75 l 0.164062,0.1992187 c 1.347657,-0.91406247 1.898438,-2.33203122 1.898438,-3.9492187 0,-1.6289063 -0.550781,-3.0585938 -1.898438,-3.9609375 z m 0,0"
           style="fill:#231f20;fill-opacity:1;fill-rule:nonzero;stroke:none" />
        <path
           id="path6"
           d="m 2.1549531,7.3709469 -0.09375,-0.046875 C 1.8502656,7.4412594 1.5690156,7.6521969 1.4049531,7.8514156 L 1.2994844,8.2615719 C 1.0065156,8.3670406 0.67839062,8.5311031 0.44401562,8.7068844 l 0.0585938,0.2226562 C 0.71354687,8.8240719 0.94792187,8.6951656 1.2291719,8.6014156 0.90104687,10.160009 0.56120312,11.742041 0.22135937,13.312353 c -0.12890625,0.5625 -0.22265625,0.632813 -0.78515625,0.738281 l -0.0351563,0.234375 2.07421868,-0.105468 0.023437,-0.234375 -0.2109375,-0.02344 C 0.84245312,13.886572 0.79557812,13.804541 0.90104687,13.288916 L 1.1471406,12.023291 c 0.1757813,0.07031 0.3867188,0.08203 0.5390625,0.08203 0.5742188,-0.140625 1.21875,-0.539063 1.6640625,-1.042969 0.515625,-0.585937 0.7734375,-1.2656249 0.7734375,-1.8632811 0,-0.796875 -0.375,-1.2421875 -1.3007812,-1.2421875 -0.2460938,0 -0.5859375,0.035156 -0.8320313,0.1054687 z M 1.9088594,8.4139156 c 0.1640625,-0.046875 0.3632812,-0.070312 0.515625,-0.070312 0.515625,0 0.9375,0.1992188 0.9375,0.9960938 0,1.1601566 -0.8671875,2.3671876 -1.5117188,2.3671876 -0.2109375,0 -0.4570312,-0.164062 -0.5507812,-0.304687 z m 0,0"
           style="fill:#231f20;fill-opacity:1;fill-rule:nonzero;stroke:none" />
        <path
           id="path7"
           d="m 7.2496797,13.324072 c -0.890625,-0.761719 -1.40625,-2.203125 -1.40625,-3.7500001 0,-1.546875 0.515625,-3 1.40625,-3.75 L 7.0973359,5.6131344 C 5.7731172,6.5154781 5.1871797,7.9451656 5.1871797,9.5623531 c 0,1.6289059 0.5859375,3.0820309 1.9101562,3.9609379 z m 0,0"
           style="fill:#231f20;fill-opacity:1;fill-rule:nonzero;stroke:none" />
        <path
           id="path8"
           d="M 8.4420625,9.0818844 C 8.7584687,8.6834469 8.93425,8.5662594 9.0162812,8.5662594 c 0.09375,0 0.1757813,0.1289062 0.3046875,0.5742187 l 0.3046875,0.9374999 c -0.5625,0.832031 -0.984375,1.359375 -1.2421875,1.359375 -0.09375,0 -0.1640625,-0.03516 -0.2109375,-0.09375 -0.046875,-0.05859 -0.09375,-0.09375 -0.140625,-0.09375 -0.1757812,0 -0.3632812,0.210938 -0.3632812,0.421875 -0.011719,0.257813 0.1757812,0.433594 0.4101562,0.433594 0.421875,0 0.84375,-0.433594 1.640625,-1.699219 l 0.2812498,0.878906 c 0.175781,0.5625 0.363281,0.820313 0.597656,0.820313 0.304688,0 0.726563,-0.328125 1.136719,-0.972656 l -0.152344,-0.175782 c -0.28125,0.339844 -0.503906,0.515625 -0.644531,0.515625 -0.152344,0 -0.28125,-0.257812 -0.457031,-0.820312 L 10.188156,9.7498531 c 0.199219,-0.28125 0.398438,-0.5273437 0.585938,-0.7382812 0.234375,-0.2929688 0.410156,-0.4453125 0.539062,-0.4453125 0.08203,0 0.152344,0.035156 0.210938,0.1054687 0.04687,0.046875 0.08203,0.070312 0.128906,0.070312 0.140625,0 0.339844,-0.1757812 0.351562,-0.3984375 0,-0.1992187 -0.140625,-0.3867187 -0.375,-0.3867187 -0.398437,0 -0.785156,0.3867187 -1.535156,1.4765625 L 9.9420625,8.9412594 C 9.7194062,8.2967281 9.6022187,7.9568844 9.356125,7.9568844 c -0.2929688,0 -0.6914063,0.3867187 -1.0664063,0.9375 z m 0,0"
           style="fill:#231f20;fill-opacity:1;fill-rule:nonzero;stroke:none" />
        <path
           id="path9"
           d="m 12.335617,5.8240719 c 0.890625,0.7382812 1.417969,2.203125 1.417969,3.75 0,1.5468751 -0.503906,2.9882811 -1.417969,3.7500001 l 0.164063,0.199219 c 1.347656,-0.914063 1.898437,-2.332032 1.898437,-3.9492191 0,-1.6289063 -0.550781,-3.0585938 -1.898437,-3.9609375 z M -68.561844,-28.456202 v -0.246093 c -0.820312,-0.05859 -0.878906,-0.128907 -0.878906,-0.785157 v -4.6875 c -0.492188,0.199219 -1.019531,0.375 -1.59375,0.46875 v 0.210938 l 0.433594,0.01172 c 0.386718,0.02344 0.421875,0.07031 0.421875,0.539062 v 3.457031 c 0,0.65625 -0.03516,0.726563 -0.855469,0.785157 v 0.246093 z m -70.816406,90.624024 v -0.46875 h -3.77344 v 0.46875 z m 4.16309,0.539062 c -0.26954,0.574219 -0.38672,0.609375 -0.86719,0.609375 h -1.6875 l 1.27734,-1.335937 c 0.83203,-0.890625 1.19531,-1.417969 1.19531,-2.203125 0,-0.949219 -0.72656,-1.523438 -1.51171,-1.523438 -0.52735,0 -0.94922,0.234375 -1.21875,0.539063 l -0.51563,0.726562 0.19922,0.175782 c 0.23437,-0.351563 0.60937,-0.832032 1.23047,-0.832032 0.65625,0 1.05469,0.433594 1.05469,1.195313 0,0.773437 -0.5625,1.511719 -1.125,2.179687 -0.44532,0.515625 -0.94922,1.03125 -1.45313,1.523438 v 0.210937 h 3.36328 c 0.10547,-0.410156 0.19922,-0.796875 0.31641,-1.183593 z m 33.40136,-0.539062 v -0.46875 h -3.77343 v 0.46875 z m 3.916995,1.804687 v -0.246093 c -0.820312,-0.05859 -0.878906,-0.128907 -0.878906,-0.785157 v -4.6875 c -0.492187,0.199219 -1.019531,0.375 -1.593749,0.46875 v 0.210938 l 0.433593,0.01172 c 0.386719,0.02344 0.421875,0.07031 0.421875,0.539062 v 3.457031 c 0,0.65625 -0.03516,0.726563 -0.855468,0.785157 v 0.246093 z m 72.785157,0 v -0.246093 c -0.820313,-0.05859 -0.878907,-0.128907 -0.878907,-0.785157 v -4.6875 c -0.492187,0.199219 -1.019531,0.375 -1.59375,0.46875 v 0.210938 l 0.433594,0.01172 c 0.386719,0.02344 0.421875,0.07031 0.421875,0.539062 v 3.457031 c 0,0.65625 -0.03516,0.726563 -0.855469,0.785157 v 0.246093 z m 37.804687,-1.265625 c -0.269531,0.574219 -0.386719,0.609375 -0.867187,0.609375 h -1.6875 l 1.277343,-1.335937 c 0.832032,-0.890625 1.195313,-1.417969 1.195313,-2.203125 0,-0.949219 -0.726563,-1.523438 -1.511719,-1.523438 -0.527344,0 -0.949219,0.234375 -1.2187499,0.539063 l -0.515625,0.726562 0.1992187,0.175782 c 0.234375,-0.351563 0.6093752,-0.832032 1.2304692,-0.832032 0.65625,0 1.054687,0.433594 1.054687,1.195313 0,0.773437 -0.5625,1.511719 -1.125,2.179687 -0.445312,0.515625 -0.9492187,1.03125 -1.4531249,1.523438 v 0.210937 h 3.3632809 c 0.105469,-0.410156 0.199219,-0.796875 0.316407,-1.183593 z m 0,0"
           style="fill:#231f20;fill-opacity:1;fill-rule:nonzero;stroke:none" />
      </g>
      <path
         id="path10"
         d="m 46.9922,143.941 0.6055,-0.019 h 1.1718 l 0.5586,-0.027 h 0.5899 l 0.5898,-0.02 h 0.582 l 0.5625,-0.02 h 0.5899 l 0.582,-0.031 0.5586,-0.019 1.1719,-0.047 0.5664,-0.02 0.5859,-0.027 1.1485,-0.051 1.1718,-0.039 1.1485,-0.039 0.5898,-0.059 0.5821,-0.019 1.1523,-0.078 0.582,-0.039 0.5586,-0.032 1.1719,-0.066 2.3008,-0.187 0.5859,-0.047 0.5821,-0.02 1.1523,-0.097 2.3242,-0.215 0.582,-0.039 0.5586,-0.079 1.1719,-0.089 2.3242,-0.235 0.5625,-0.066 0.5821,-0.078 1.1523,-0.117 2.3242,-0.254 4.6367,-0.567 0.6133,-0.09 0.6289,-0.066 1.2657,-0.195 2.5078,-0.325 5.0156,-0.75 10.0354,-1.621 0.629,-0.117 0.609,-0.117 1.27,-0.207 2.503,-0.449 5.016,-0.907 10.027,-1.972 0.614,-0.117 0.633,-0.118 1.222,-0.253 2.453,-0.5 4.95,-1.004 9.847,-2.09 19.707,-4.192 0.567,-0.144 0.582,-0.117 1.152,-0.235 2.289,-0.488 4.594,-0.937 9.183,-1.856 0.571,-0.117 0.59,-0.117 1.14,-0.235 2.301,-0.441 4.594,-0.848 9.183,-1.64 0.61,-0.118 0.636,-0.089 1.243,-0.215 2.484,-0.399 4.988,-0.773 0.633,-0.086 0.613,-0.098 1.243,-0.187 2.507,-0.352 4.965,-0.652 0.637,-0.098 0.609,-0.07 1.242,-0.164 2.508,-0.285 0.614,-0.067 0.628,-0.07 1.239,-0.137 2.484,-0.261 0.637,-0.051 0.605,-0.067 1.27,-0.117 2.48,-0.215 0.61,-0.039 0.633,-0.078 1.242,-0.09 2.484,-0.164 1.18,-0.097 1.168,-0.071 0.59,-0.019 0.554,-0.047 1.172,-0.07 1.172,-0.047 1.148,-0.051 1.176,-0.047 1.149,-0.039 2.343,-0.098 h 0.567 l 0.582,-0.019 h 0.586 l 0.59,-0.032 h 0.582 l 0.558,-0.019 h 1.172 l 0.586,-0.027 h 4.082 l 0.559,0.027 h 1.175 l 0.583,0.019 h 0.589 l 0.563,0.032 h 0.582 l 1.758,0.07 1.152,0.016 1.172,0.05 1.152,0.067 1.164,0.051 1.172,0.07 0.563,0.027 0.59,0.039 1.168,0.078 2.324,0.157 0.558,0.047 0.59,0.05 1.121,0.118 2.297,0.214 0.567,0.067 0.562,0.051 1.148,0.117 2.274,0.273 0.586,0.078 0.555,0.067 1.156,0.168 2.273,0.301 4.551,0.722 0.574,0.098 0.571,0.121 1.144,0.184 2.274,0.449 4.546,0.937 0.586,0.137 0.571,0.117 1.144,0.281 2.274,0.539 4.574,1.192 1.215,0.332 1.246,0.371 2.48,0.73 4.946,1.594 1.214,0.418 1.246,0.422 2.485,0.898 4.941,1.895 0.614,0.254 0.632,0.262 1.219,0.488 2.488,1.055 4.942,2.257 9.887,5.008 0.589,0.305 0.563,0.312 1.172,0.653 2.297,1.308 4.613,2.746 9.23,5.997 0.594,0.398 0.563,0.402 1.171,0.821 2.297,1.64 4.621,3.446 9.235,7.433 0.629,0.508 0.609,0.547 1.27,1.074 2.48,2.207 5.02,4.57 10.004,9.813 0.628,0.637 0.618,0.652 1.265,1.32 2.485,2.664 5.015,5.508 10,12.219 0.614,0.789 0.613,0.82 1.238,1.641 2.461,3.351 4.898,7.012 9.821,15.117 0.629,0.985 1.832,3.019 2.461,4.082 4.925,8.438 9.813,17.832 0.566,1.082 0.586,1.105 1.125,2.149 2.293,4.414 4.602,8.973 9.16,18.683 18.328,39.863 39.75,95.176 37.102,94.5 40.191,101.84 39.477,92.602 0.582,1.261 0.558,1.246 1.149,2.504 2.324,4.973 4.598,9.824 9.207,18.934 0.566,1.144 0.574,1.157 3.453,6.812 4.618,8.863 9.183,16.965 1.27,2.203 1.238,2.207 2.484,4.313 4.993,8.394 9.984,15.68 0.637,0.934 0.605,0.914 1.266,1.828 2.484,3.586 4.992,6.863 9.992,12.492 1.168,1.364 1.149,1.316 2.344,2.551 4.636,4.847 0.59,0.586 1.758,1.692 2.32,2.152 4.664,4.008 1.164,0.945 1.161,0.91 2.336,1.735 1.179,0.843 1.141,0.793 2.93,1.879 0.566,0.352 1.168,0.68 2.324,1.293 1.168,0.601 1.176,0.567 2.312,1.054 0.594,0.258 0.563,0.234 1.144,0.446 1.129,0.418 1.148,0.379 0.586,0.191 0.567,0.16 1.14,0.324 0.567,0.164 0.562,0.145 1.149,0.277 0.566,0.117 0.578,0.118 0.563,0.117 0.594,0.098 1.121,0.183 0.586,0.07 1.125,0.145 0.586,0.047 1.125,0.094 0.585,0.023 0.563,0.051 h 0.586 l 0.559,0.019 h 1.156 l 1.121,-0.047 0.586,-0.023 1.121,-0.094 0.59,-0.051 0.558,-0.039 0.586,-0.074 0.563,-0.094 0.566,-0.074 0.586,-0.09 0.559,-0.093 1.152,-0.211 0.566,-0.137 0.555,-0.121 1.152,-0.285 0.583,-0.133 0.566,-0.172 1.152,-0.324 1.117,-0.375 1.149,-0.403 2.301,-0.867 0.609,-0.258 0.606,-0.281 1.242,-0.531 2.484,-1.227 0.613,-0.324 0.629,-0.328 1.246,-0.703 2.461,-1.477 0.629,-0.379 0.617,-0.394 1.243,-0.82 2.476,-1.735 4.949,-3.824 0.629,-0.516 0.61,-0.507 1.246,-1.082 2.484,-2.2 4.942,-4.812 0.636,-0.633 0.606,-0.629 1.246,-1.289 2.476,-2.672 4.953,-5.695 0.583,-0.707 0.566,-0.68 1.168,-1.426 2.297,-2.882 4.644,-6.067 9.239,-13.152 0.578,-0.891 0.59,-0.867 1.148,-1.758 2.316,-3.586 4.625,-7.41 9.258,-15.723 0.606,-1.101 0.632,-1.102 1.243,-2.25 2.507,-4.547 5.016,-9.332 10.024,-19.562 20.043,-42.379 39.378,-92.832 36.729,-93.055 39.79,-101.414 37.17,-89.082 0.59,-1.289 0.56,-1.289 1.16,-2.578 2.26,-5.109 4.55,-10.079 9.12,-19.566 1.13,-2.394 1.14,-2.395 2.28,-4.707 4.55,-9.254 9.11,-17.797 0.61,-1.172 0.64,-1.172 1.21,-2.312 2.49,-4.602 4.94,-8.925 9.89,-16.875 0.61,-1.004 0.61,-0.989 1.24,-1.992 2.46,-3.914 4.95,-7.551 9.89,-13.964 0.58,-0.75 0.57,-0.77 1.14,-1.508 2.33,-2.93 4.59,-5.593 9.24,-10.227 0.58,-0.605 0.57,-0.606 1.14,-1.199 2.32,-2.363 4.6,-4.571 9.23,-8.586 0.64,-0.554 0.6,-0.547 1.27,-1.074 2.48,-2.129 5.02,-4.102 0.61,-0.519 0.63,-0.496 1.24,-0.957 2.51,-1.926 4.99,-3.68 0.64,-0.441 0.6,-0.45 1.27,-0.867 2.48,-1.711 5.02,-3.25 9.98,-5.937 0.59,-0.305 0.59,-0.32 1.17,-0.633 2.32,-1.242 5.25,-2.629 0.58,-0.281 3.52,-1.621 4.66,-2.032 0.59,-0.265 0.59,-0.235 1.15,-0.468 2.34,-0.934 4.66,-1.73 1.17,-0.43 1.17,-0.391 2.33,-0.781 4.69,-1.477 1.12,-0.32 1.15,-0.332 2.3,-0.637 4.57,-1.172 0.55,-0.136 0.59,-0.145 1.15,-0.254 2.28,-0.519 4.59,-0.938 0.56,-0.113 0.56,-0.09 1.15,-0.215 2.3,-0.402 0.56,-0.086 0.59,-0.098 1.12,-0.187 2.3,-0.332 0.56,-0.086 0.59,-0.078 1.14,-0.156 2.28,-0.286 0.58,-0.066 0.57,-0.078 3.45,-0.352 0.6,-0.07 0.61,-0.047 1.25,-0.117 0.62,-0.039 0.62,-0.047 1.24,-0.102 0.63,-0.046 0.61,-0.04 1.24,-0.097 0.63,-0.02 0.62,-0.05 1.24,-0.067 0.63,-0.031 0.61,-0.008 0.63,-0.039 0.61,-0.039 0.62,-0.031 0.62,-0.016 0.62,-0.031 h 0.63 l 0.61,-0.02 0.63,-0.019 h 0.61 l 0.63,-0.032 h 0.61 l 0.63,-0.019 h 1.24 l 0.62,-0.027 h 3.72 l 0.63,0.027 h 1.22 l 0.64,0.019 h 0.6 l 0.64,0.032 0.6,0.019 h 0.64 l 0.61,0.02 0.63,0.031 0.61,0.016 1.24,0.05 0.64,0.02 0.6,0.039 1.24,0.039 0.64,0.02 0.61,0.047 3.73,0.207 0.58,0.046 0.57,0.032 1.17,0.086 2.31,0.168 0.57,0.046 0.59,0.051 1.15,0.086 2.31,0.219 0.59,0.066 0.58,0.047 1.16,0.117 2.31,0.235 4.65,0.539 0.56,0.066 0.58,0.071 1.15,0.148 2.32,0.281 4.65,0.653 9.26,1.406 0.62,0.09 0.64,0.117 1.24,0.215 2.51,0.418 5.04,0.89 10.02,1.875 20.09,4.102 0.62,0.117 0.6,0.145 1.24,0.253 2.46,0.52 4.93,1.055 9.87,2.109 0.6,0.137 0.64,0.117 1.22,0.262 2.46,0.539 4.94,1.035 9.85,2.012 0.58,0.117 0.57,0.117 1.14,0.234 2.3,0.45 4.61,0.898 9.19,1.68 0.59,0.086 0.57,0.097 1.14,0.207 6.89,1.133 9.21,1.375 0.61,0.098 0.63,0.07 3.73,0.488 0.64,0.079 0.62,0.085 1.25,0.149 2.48,0.301 0.64,0.07 0.6,0.047 1.24,0.137 2.51,0.265 0.62,0.067 0.62,0.05 1.25,0.118 2.5,0.234 0.62,0.039 0.63,0.047 1.24,0.098 0.61,0.05 0.63,0.039 1.24,0.098 0.64,0.047 0.6,0.019 1.27,0.102 2.48,0.133 0.64,0.031 0.61,0.02 1.24,0.07 1.26,0.047 1.25,0.047 h 0.61 l 0.63,0.019 0.61,0.031 0.64,0.02 h 0.63 l 0.61,0.02 h 0.63 l 0.61,0.027 h 1.17 l 0.58,0.019"
         style="fill:none;stroke:#3871c1;stroke-width:7.5;stroke-linecap:butt;stroke-linejoin:round;stroke-miterlimit:3.25;stroke-dasharray:none;stroke-opacity:1"
         transform="matrix(0.13333333,0,0,-0.13333333,0,137.45333)" />
      <path
         id="path11"
         d="m 44.5078,143.941 0.6289,11.582 H 232.703 l 0.637,6.797 h 187.055 l 0.636,182.461 H 608.34 l 0.637,412.547 h 374.972 l 0.586,-412.547 H 1171.4 l 0.57,-182.461 h 187.15 l 0.55,-6.797 h 187.55 l 0.59,-11.582"
         style="fill:none;stroke:#da1259;stroke-width:7.5;stroke-linecap:butt;stroke-linejoin:round;stroke-miterlimit:3.25;stroke-dasharray:none;stroke-opacity:1"
         transform="matrix(0.13333333,0,0,-0.13333333,0,137.45333)" />
      <path
         id="path12"
         d="m 1003.22,594.391 c 0,4.968 -1.99,9.746 -5.509,13.289 -3.516,3.515 -8.301,5.48 -13.293,5.48 -4.969,0 -9.754,-1.965 -13.27,-5.48 -3.535,-3.543 -5.507,-8.321 -5.507,-13.289 0,-4.993 1.972,-9.75 5.507,-13.293 3.516,-3.516 8.301,-5.485 13.27,-5.485 4.992,0 9.777,1.969 13.293,5.485 3.519,3.543 5.509,8.3 5.509,13.293 v 0"
         style="fill:#231f20;fill-opacity:1;fill-rule:evenodd;stroke:none"
         transform="matrix(0.13333333,0,0,-0.13333333,0,137.45333)" />
      <path
         id="path13"
         d="m 1190.27,191.266 c 0,4.972 -1.99,9.746 -5.51,13.293 -3.51,3.515 -8.3,5.476 -13.26,5.476 -5,0 -9.78,-1.961 -13.29,-5.476 -3.52,-3.547 -5.51,-8.321 -5.51,-13.293 0,-4.989 1.99,-9.754 5.51,-13.289 3.51,-3.516 8.29,-5.489 13.29,-5.489 4.96,0 9.75,1.973 13.26,5.489 3.52,3.535 5.51,8.3 5.51,13.289 v 0"
         style="fill:#231f20;fill-opacity:1;fill-rule:evenodd;stroke:none"
         transform="matrix(0.13333333,0,0,-0.13333333,0,137.45333)" />
      <path
         id="path14"
         d="m 1318.04,686.391 h 90"
         style="fill:none;stroke:#3871c1;stroke-width:7.5;stroke-linecap:butt;stroke-linejoin:round;stroke-miterlimit:3.25;stroke-dasharray:none;stroke-opacity:1"
         transform="matrix(0.13333333,0,0,-0.13333333,0,137.45333)" />
      <path
         id="path15"
         d="m 1318.04,566.391 h 90"
         style="fill:none;stroke:#da1259;stroke-width:7.5;stroke-linecap:butt;stroke-linejoin:round;stroke-miterlimit:3.25;stroke-dasharray:none;stroke-opacity:1"
         transform="matrix(0.13333333,0,0,-0.13333333,0,137.45333)" />
      <path
         id="path16"
         d="m 45,113.941 v 30"
         style="fill:none;stroke:#231f20;stroke-width:5;stroke-linecap:butt;stroke-linejoin:miter;stroke-miterlimit:3.25;stroke-dasharray:none;stroke-opacity:1"
         transform="matrix(0.13333333,0,0,-0.13333333,0,137.45333)" />
      <path
         id="path17"
         d="m 420.629,113.941 v 30"
         style="fill:none;stroke:#231f20;stroke-width:5;stroke-linecap:butt;stroke-linejoin:miter;stroke-miterlimit:3.25;stroke-dasharray:none;stroke-opacity:1"
         transform="matrix(0.13333333,0,0,-0.13333333,0,137.45333)" />
      <path
         id="path18"
         d="m 796.238,143.941 v 17.747"
         style="fill:none;stroke:#231f20;stroke-width:5;stroke-linecap:butt;stroke-linejoin:miter;stroke-miterlimit:3.25;stroke-dasharray:none;stroke-opacity:1"
         transform="matrix(0.13333333,0,0,-0.13333333,0,137.45333)" />
      <path
         id="path19"
         d="m 1171.87,113.941 v 30"
         style="fill:none;stroke:#231f20;stroke-width:5;stroke-linecap:butt;stroke-linejoin:miter;stroke-miterlimit:3.25;stroke-dasharray:none;stroke-opacity:1"
         transform="matrix(0.13333333,0,0,-0.13333333,0,137.45333)" />
      <path
         id="path20"
         d="m 1547.48,113.941 v 30"
         style="fill:none;stroke:#231f20;stroke-width:5;stroke-linecap:butt;stroke-linejoin:miter;stroke-miterlimit:3.25;stroke-dasharray:none;stroke-opacity:1"
         transform="matrix(0.13333333,0,0,-0.13333333,0,137.45333)" />
      <path
         id="path21"
         d="M 45,143.941 H 1547.48"
         style="fill:none;stroke:#231f20;stroke-width:5;stroke-linecap:butt;stroke-linejoin:miter;stroke-miterlimit:3.25;stroke-dasharray:none;stroke-opacity:1"
         transform="matrix(0.13333333,0,0,-0.13333333,0,137.45333)" />
      <path
         id="path22"
         d="m 796.238,143.941 h 17.766"
         style="fill:none;stroke:#231f20;stroke-width:5;stroke-linecap:butt;stroke-linejoin:miter;stroke-miterlimit:3.25;stroke-dasharray:none;stroke-opacity:1"
         transform="matrix(0.13333333,0,0,-0.13333333,0,137.45333)" />
      <path
         id="path23"
         d="m 766.238,988.113 h 30"
         style="fill:none;stroke:#231f20;stroke-width:5;stroke-linecap:butt;stroke-linejoin:miter;stroke-miterlimit:3.25;stroke-dasharray:none;stroke-opacity:1"
         transform="matrix(0.13333333,0,0,-0.13333333,0,137.45333)" />
      <path
         id="path24"
         d="M 796.238,59.5195 V 988.113"
         style="fill:none;stroke:#231f20;stroke-width:5;stroke-linecap:butt;stroke-linejoin:miter;stroke-miterlimit:3.25;stroke-dasharray:none;stroke-opacity:1"
         transform="matrix(0.13333333,0,0,-0.13333333,0,137.45333)" />
    </g>
  </g>
</svg>
