<?xml version="1.0" encoding="UTF-8" standalone="no"?>
<!-- Created with Inkscape (http://www.inkscape.org/) -->

<svg
   version="1.1"
   id="svg1"
   width="254.73334"
   height="363.74667"
   viewBox="0 0 254.73334 363.74667"
   sodipodi:docname="pha08f52.eps"
   xmlns:inkscape="http://www.inkscape.org/namespaces/inkscape"
   xmlns:sodipodi="http://sodipodi.sourceforge.net/DTD/sodipodi-0.dtd"
   xmlns="http://www.w3.org/2000/svg"
   xmlns:svg="http://www.w3.org/2000/svg">
  <defs
     id="defs1" />
  <sodipodi:namedview
     id="namedview1"
     pagecolor="#ffffff"
     bordercolor="#000000"
     borderopacity="0.25"
     inkscape:showpageshadow="2"
     inkscape:pageopacity="0.0"
     inkscape:pagecheckerboard="0"
     inkscape:deskcolor="#d1d1d1">
    <inkscape:page
       x="0"
       y="0"
       inkscape:label="1"
       id="page1"
       width="254.73334"
       height="363.74667"
       margin="0"
       bleed="0" />
  </sodipodi:namedview>
  <g
     id="g1"
     inkscape:groupmode="layer"
     inkscape:label="1">
    <g
       id="group-R5">
      <path
         id="path2"
         d="m 2.6961406,1.3245703 c -0.890625,-0.76171874 -1.40625,-2.20312499 -1.40625,-3.75 0,-1.546875 0.515625,-3 1.40625,-3.75 L 2.5437969,-6.3863672 c -1.3242188,0.9023438 -1.91015628,2.3320313 -1.91015628,3.9492188 0,1.62890621 0.58593748,3.08203121 1.91015628,3.9609375 z m 4.3212891,-1.67578124 -0.09375,-0.234375 c -0.09375,0.0585938 -0.2226563,0.10546875 -0.328125,0.10546875 -0.1523438,0 -0.3164063,-0.140625 -0.3164063,-0.55078121 v -1.6640625 c 0,-0.46875 -0.082031,-0.84375 -0.3984375,-1.1015625 -0.1992187,-0.1640625 -0.46875,-0.2460938 -0.7382812,-0.2460938 -0.515625,0.1054688 -1.1015625,0.4570313 -1.3476563,0.6328125 -0.1757812,0.1289063 -0.2929687,0.2226563 -0.2929687,0.3632813 0,0.1992187 0.234375,0.3867187 0.3984375,0.3867187 0.1289062,0 0.2226562,-0.070312 0.2578125,-0.2109375 0.070312,-0.28125 0.1523437,-0.4804687 0.2695312,-0.5976562 0.09375,-0.1054688 0.2226563,-0.1757813 0.4101563,-0.1757813 0.4453125,0 0.75,0.3632813 0.75,1.0195313 v 0.1640625 c -0.1992188,0.1523437 -0.8554688,0.3984375 -1.3945313,0.5742187 -0.4921875,0.1757813 -0.7265625,0.4570313 -0.7265625,0.90234376 0,0.5625 0.4453125,1.08984375 1.078125,1.08984375 0.2695313,0 0.703125,-0.328125 1.0664063,-0.57421875 0.046875,0.15234375 0.09375,0.28125 0.2109375,0.41015625 0.1054687,0.08203125 0.2929687,0.1640625 0.421875,0.1640625 z M 5.5877422,-0.76136719 c -0.1640625,0.1640625 -0.4804688,0.31640625 -0.7148438,0.328125 -0.28125,0 -0.6445312,-0.22265625 -0.6445312,-0.69140621 0,-0.328125 0.1992187,-0.4921875 0.5507812,-0.65625 0.1875,-0.09375 0.6210938,-0.28125 0.8085938,-0.375 z M 7.4744609,-6.1754297 c 0.890625,0.7382813 1.4179688,2.203125 1.4179688,3.75 0,1.54687501 -0.5039063,2.98828126 -1.4179688,3.75 l 0.1640625,0.1992188 c 1.3476563,-0.91406254 1.8984375,-2.33203129 1.8984375,-3.9492188 0,-1.6289062 -0.5507812,-3.0585937 -1.8984375,-3.9609375 z M 2.7166484,145.65855 c -0.890625,-0.76171 -1.40625,-2.20312 -1.40625,-3.75 0,-1.54687 0.515625,-3 1.40625,-3.75 l -0.1523437,-0.21093 c -1.3242188,0.90234 -1.91015626,2.33203 -1.91015626,3.94922 0,1.6289 0.58593746,3.08203 1.91015626,3.96093 z m 1.7900391,-4.95703 v -2.77734 c -0.3398438,0.11719 -0.890625,0.25781 -1.3125,0.31641 v 0.21093 c 0.5859375,0.0469 0.5976562,0.10547 0.5976562,0.66797 v 5.00391 c 0.4921875,0.23437 0.9492188,0.3164 1.3242188,0.3164 1.2070312,0 2.2617187,-0.9375 2.2617187,-2.26171 0,-1.05469 -0.8085937,-1.88672 -1.78125,-1.88672 -0.09375,0 -0.2226562,0.0234 -0.3632812,0.0937 z m 0,0.26953 c 0.1640625,-0.10546 0.4453125,-0.17578 0.703125,-0.17578 0.7382812,0 1.3710937,0.59766 1.3710937,1.61719 0,1.05469 -0.4804687,1.6875 -1.21875,1.6875 -0.4804687,-0.0117 -0.75,-0.32812 -0.8085937,-0.50391 -0.035156,-0.082 -0.046875,-0.17578 -0.046875,-0.30468 z m 3.609375,-2.8125 c 0.890625,0.73829 1.4179687,2.20313 1.4179687,3.75 0,1.54688 -0.5039062,2.98829 -1.4179687,3.75 l 0.1640625,0.19922 c 1.3476562,-0.91406 1.898437,-2.33203 1.898437,-3.94922 0,-1.6289 -0.5507808,-3.05859 -1.898437,-3.96093 z m 0,0"
         style="fill:#231f20;fill-opacity:1;fill-rule:nonzero;stroke:none"
         aria-label="(a)&#10;(b)"
         transform="matrix(1.3333333,0,0,1.3333333,120.64733,166.98)" />
      <path
         id="path3"
         d="m 39.8359,1882.44 h 15"
         style="fill:none;stroke:#5e7dbc;stroke-width:5;stroke-linecap:butt;stroke-linejoin:miter;stroke-miterlimit:3.25;stroke-dasharray:none;stroke-opacity:1"
         transform="matrix(0.13333333,0,0,-0.13333333,0,363.74667)" />
      <path
         id="path4"
         d="M 75.6484,1882.44 H 481.539"
         style="fill:none;stroke:#5e7dbc;stroke-width:5;stroke-linecap:butt;stroke-linejoin:miter;stroke-miterlimit:3.25;stroke-dasharray:31.2221, 20.8147;stroke-dashoffset:0;stroke-opacity:1"
         transform="matrix(0.13333333,0,0,-0.13333333,0,363.74667)" />
      <path
         id="path5"
         d="m 491.941,1882.44 h 15 l 0.024,15"
         style="fill:none;stroke:#5e7dbc;stroke-width:5;stroke-linecap:butt;stroke-linejoin:miter;stroke-miterlimit:3.25;stroke-dasharray:none;stroke-opacity:1"
         transform="matrix(0.13333333,0,0,-0.13333333,0,363.74667)" />
      <path
         id="path6"
         d="m 506.98,1916.47 0.547,466.33"
         style="fill:none;stroke:#5e7dbc;stroke-width:5;stroke-linecap:butt;stroke-linejoin:miter;stroke-miterlimit:3.25;stroke-dasharray:28.551, 19.034;stroke-dashoffset:0;stroke-opacity:1"
         transform="matrix(0.13333333,0,0,-0.13333333,0,363.74667)" />
      <path
         id="path7"
         d="m 507.539,2392.32 0.02,15 h 15"
         style="fill:none;stroke:#5e7dbc;stroke-width:5;stroke-linecap:butt;stroke-linejoin:miter;stroke-miterlimit:3.25;stroke-dasharray:none;stroke-opacity:1"
         transform="matrix(0.13333333,0,0,-0.13333333,0,363.74667)" />
      <path
         id="path8"
         d="M 543.367,2407.32 H 949.145"
         style="fill:none;stroke:#5e7dbc;stroke-width:5;stroke-linecap:butt;stroke-linejoin:miter;stroke-miterlimit:3.25;stroke-dasharray:31.2137, 20.8092;stroke-dashoffset:0;stroke-opacity:1"
         transform="matrix(0.13333333,0,0,-0.13333333,0,363.74667)" />
      <path
         id="path9"
         d="m 959.551,2407.32 h 15 l 0.015,-15"
         style="fill:none;stroke:#5e7dbc;stroke-width:5;stroke-linecap:butt;stroke-linejoin:miter;stroke-miterlimit:3.25;stroke-dasharray:none;stroke-opacity:1"
         transform="matrix(0.13333333,0,0,-0.13333333,0,363.74667)" />
      <path
         id="path10"
         d="m 974.586,2373.29 0.496,-466.34"
         style="fill:none;stroke:#5e7dbc;stroke-width:5;stroke-linecap:butt;stroke-linejoin:miter;stroke-miterlimit:3.25;stroke-dasharray:28.5509, 19.034;stroke-dashoffset:0;stroke-opacity:1"
         transform="matrix(0.13333333,0,0,-0.13333333,0,363.74667)" />
      <path
         id="path11"
         d="m 975.094,1897.44 0.011,-15 h 15"
         style="fill:none;stroke:#5e7dbc;stroke-width:5;stroke-linecap:butt;stroke-linejoin:miter;stroke-miterlimit:3.25;stroke-dasharray:none;stroke-opacity:1"
         transform="matrix(0.13333333,0,0,-0.13333333,0,363.74667)" />
      <path
         id="path12"
         d="m 1010.92,1882.44 h 405.79"
         style="fill:none;stroke:#5e7dbc;stroke-width:5;stroke-linecap:butt;stroke-linejoin:miter;stroke-miterlimit:3.25;stroke-dasharray:31.2155, 20.8103;stroke-dashoffset:0;stroke-opacity:1"
         transform="matrix(0.13333333,0,0,-0.13333333,0,363.74667)" />
      <path
         id="path13"
         d="m 1427.12,1882.44 h 15 l 0.02,15"
         style="fill:none;stroke:#5e7dbc;stroke-width:5;stroke-linecap:butt;stroke-linejoin:miter;stroke-miterlimit:3.25;stroke-dasharray:none;stroke-opacity:1"
         transform="matrix(0.13333333,0,0,-0.13333333,0,363.74667)" />
      <path
         id="path14"
         d="m 1442.16,1916.47 0.49,466.33"
         style="fill:none;stroke:#5e7dbc;stroke-width:5;stroke-linecap:butt;stroke-linejoin:miter;stroke-miterlimit:3.25;stroke-dasharray:28.5509, 19.034;stroke-dashoffset:0;stroke-opacity:1"
         transform="matrix(0.13333333,0,0,-0.13333333,0,363.74667)" />
      <path
         id="path15"
         d="m 1442.66,2392.32 0.02,15 h 15"
         style="fill:none;stroke:#5e7dbc;stroke-width:5;stroke-linecap:butt;stroke-linejoin:miter;stroke-miterlimit:3.25;stroke-dasharray:none;stroke-opacity:1"
         transform="matrix(0.13333333,0,0,-0.13333333,0,363.74667)" />
      <path
         id="path16"
         d="m 1478.51,2407.32 h 406.16"
         style="fill:none;stroke:#5e7dbc;stroke-width:5;stroke-linecap:butt;stroke-linejoin:miter;stroke-miterlimit:3.25;stroke-dasharray:31.243, 20.8287;stroke-dashoffset:0;stroke-opacity:1"
         transform="matrix(0.13333333,0,0,-0.13333333,0,363.74667)" />
      <path
         id="path17"
         d="m 1895.08,2407.32 h 15"
         style="fill:none;stroke:#5e7dbc;stroke-width:5;stroke-linecap:butt;stroke-linejoin:miter;stroke-miterlimit:3.25;stroke-dasharray:none;stroke-opacity:1"
         transform="matrix(0.13333333,0,0,-0.13333333,0,363.74667)" />
      <path
         id="path18"
         d="M 39.8359,1882.44 H 448.496 l 0.582,262.43 h 57.863 l 0.618,262.45 h 408.574 l 0.613,-262.45 h 57.805 l 0.554,-262.43 h 408.655 l 0.62,262.43 h 57.74 l 0.56,262.45 h 408.52 l 0.55,-262.45 h 58.33"
         style="fill:none;stroke:#3871c1;stroke-width:7.5;stroke-linecap:butt;stroke-linejoin:round;stroke-miterlimit:3.25;stroke-dasharray:none;stroke-opacity:1"
         transform="matrix(0.13333333,0,0,-0.13333333,0,363.74667)" />
      <path
         id="path19"
         d="M 2.10156,2144.87 H 1889.4"
         style="fill:none;stroke:#231f20;stroke-width:5;stroke-linecap:butt;stroke-linejoin:miter;stroke-miterlimit:3.25;stroke-dasharray:none;stroke-opacity:1"
         transform="matrix(0.13333333,0,0,-0.13333333,0,363.74667)" />
      <path
         id="path20"
         d="M 39.8359,1561.66 V 2728.09"
         style="fill:none;stroke:#231f20;stroke-width:5;stroke-linecap:butt;stroke-linejoin:miter;stroke-miterlimit:3.25;stroke-dasharray:none;stroke-opacity:1"
         transform="matrix(0.13333333,0,0,-0.13333333,0,363.74667)" />
      <path
         id="path21"
         d="m 37.7305,721.129 h 1.1718 l 0.5508,0.039 0.5938,0.031 0.5586,0.02 0.582,0.031 0.5859,0.059 0.5547,0.07 0.5821,0.039 0.5664,0.062 0.5859,0.098 0.5508,0.051 0.5859,0.101 0.586,0.11 1.1484,0.211 0.5547,0.109 0.582,0.121 1.1445,0.258 0.5782,0.152 0.5664,0.149 1.1406,0.32 0.5859,0.168 0.3946,0.152"
         style="fill:none;stroke:#5e7dbc;stroke-width:5;stroke-linecap:butt;stroke-linejoin:miter;stroke-miterlimit:3.25;stroke-dasharray:none;stroke-opacity:1"
         transform="matrix(0.13333333,0,0,-0.13333333,0,363.74667)" />
      <path
         id="path22"
         d="m 70.2578,732.5 4.207,3.109 1.2305,1 1.2383,1.059 2.4883,2.133 4.9844,4.73 0.6132,0.637 0.6446,0.613 1.2304,1.297 2.4922,2.723 4.9766,5.758 1.2265,1.519 1.2657,1.551 2.4843,3.23 4.9532,6.832 9.961,15.207 0.586,0.942 0.582,0.961 1.148,1.929 2.34,3.961 4.625,8.227 9.297,17.773 1.168,2.348 1.141,2.379 2.347,4.801 4.625,9.961 9.289,21.039 0.578,1.34 0.571,1.351 1.137,2.699 2.289,5.512 4.535,11.219 9.113,23.398 18.227,50.16 39.515,116.162 0.586,1.67 0.555,1.67 1.18,3.33 2.277,6.66 4.637,13.09 9.195,25.31 1.168,3.07 1.148,3.01 2.309,5.97 4.605,11.58 9.227,21.44 1.23,2.69 1.258,2.64 2.492,5.17 0.645,1.23 0.613,1.23 1.262,2.42 2.488,4.66 0.617,1.1 0.645,1.13 1.23,2.16 2.489,4.17 0.644,0.98 0.617,0.98 1.258,1.87 2.492,3.58 0.614,0.84 0.644,0.84 1.231,1.6 0.644,0.76 0.617,0.74 1.258,1.43 0.617,0.7 0.614,0.64 1.261,1.27 2.489,2.27 0.617,0.51 0.644,0.49 1.231,0.91 0.644,0.44 0.614,0.38 1.261,0.73 1.231,0.65 0.644,0.26 0.614,0.28 0.617,0.22 0.644,0.21 1.231,0.35 0.613,0.12 1.227,0.17 0.617,0.06 0.613,0.03 h 0.613 l 1.235,-0.06 0.613,-0.09 0.598,-0.07 0.613,-0.13 0.613,-0.15 0.618,-0.17 0.617,-0.2 0.613,-0.25 0.609,-0.26 0.618,-0.29 1.23,-0.64 1.23,-0.77 0.614,-0.44 1.203,-0.9 1.23,-1.06 1.231,-1.17 0.609,-0.62 0.613,-0.64 1.235,-1.4 0.613,-0.74 0.613,-0.76 1.243,-1.64 0.617,-0.86 0.586,-0.87 1.226,-1.88 1.227,-1.98 1.23,-2.15 2.461,-4.6 0.617,-1.23 0.614,-1.26 1.203,-2.61 2.457,-5.63 0.613,-1.48 0.613,-1.53 1.235,-3.13 2.469,-6.65 0.55,-1.64 0.586,-1.64 1.145,-3.4 2.285,-7.15 4.562,-15.67 0.571,-2.1 0.586,-2.13 1.136,-4.33 2.29,-8.99 4.566,-19.43 0.586,-2.54 0.551,-2.6 1.152,-5.26 2.273,-10.87 4.614,-23.08 9.129,-51.53 0.625,-3.75 0.617,-3.78 1.258,-7.629 2.461,-15.64 4.98,-32.633 9.898,-70.398 19.86,-156.18 0.594,-4.75 0.55,-4.781 1.172,-9.547 2.321,-19.16 4.625,-38.43 9.257,-76.563 1.164,-9.429 1.149,-9.43 2.308,-18.699 4.641,-36.731 9.281,-69.789 0.559,-4.101 0.551,-4.039 1.152,-8.032 2.273,-15.668 4.547,-29.89 0.559,-3.602 0.555,-3.551 1.148,-7 2.281,-13.5 4.543,-25.168 0.555,-2.96 0.555,-2.899 1.136,-5.68 2.293,-10.812 0.551,-2.609 0.567,-2.52 1.136,-4.949 2.289,-9.262 0.555,-2.168 0.555,-2.141 1.136,-4.128 0.571,-1.961 0.578,-1.93 1.144,-3.691 0.551,-1.758 0.567,-1.703 1.136,-3.219 0.559,-1.559 0.586,-1.461 1.144,-2.781 0.618,-1.41 0.617,-1.348 0.613,-1.261 0.613,-1.2 0.617,-1.14 0.61,-1.059 1.23,-1.902 0.618,-0.848 0.613,-0.75 0.617,-0.723 0.613,-0.609 0.617,-0.551 0.614,-0.476 0.617,-0.41 0.613,-0.321 0.617,-0.23 0.614,-0.18 0.617,-0.121 h 0.613 l 0.617,0.059 0.61,0.121 0.617,0.199 0.613,0.301 0.613,0.379 0.618,0.441 0.617,0.531 0.613,0.578 0.613,0.7 0.625,0.769 0.618,0.82 0.617,0.93 0.613,1 0.613,1.082 0.618,1.149 0.617,1.261 0.613,1.309 0.609,1.383 1.231,3.047 0.617,1.64 0.613,1.731 1.231,3.691 2.492,8.32 0.613,2.278 0.617,2.39 1.231,4.942 2.461,10.898 0.609,2.93 0.613,2.992 1.235,6.238 2.469,13.411 0.586,3.308 0.55,3.371 1.145,6.949 2.312,14.672 4.602,32.442 0.551,4.328 0.586,4.398 1.152,8.961 2.305,18.66 4.609,39.961 0.551,5.25 0.586,5.27 1.136,10.719 2.293,22.043 4.594,46.199 9.203,99.429 0.618,7.008 0.644,7.024 1.231,14.117 2.488,28.519 4.98,57.711 9.992,115.403 1.231,14.179 1.258,14.059 2.492,27.789 4.98,53.832 0.614,6.527 0.617,6.481 1.258,12.789 2.492,24.942 4.98,46.79 0.61,5.46 0.617,5.31 1.199,10.5 2.473,20.04 0.613,4.79 0.613,4.73 1.2,9.2 2.46,17.26 0.614,4.11 0.617,3.97 1.199,7.7 0.617,3.7 0.614,3.6 1.226,6.88 0.613,3.29 0.618,3.19 1.211,6.06 0.617,2.86 0.613,2.75 1.231,5.17 0.617,2.43 0.613,2.32 0.582,2.2 0.613,2.08 0.618,1.96 0.613,1.85 1.23,3.34 0.617,1.5 0.614,1.37 0.586,1.23 0.617,1.15 0.613,0.98 0.617,0.92 0.61,0.76 0.617,0.64 0.613,0.49 0.586,0.42 0.613,0.26 0.625,0.12 0.618,0.03 0.617,-0.12 0.613,-0.23 0.613,-0.38 0.618,-0.47 0.582,-0.65 0.613,-0.73 0.617,-0.88 0.613,-0.99 0.617,-1.15 0.614,-1.25 0.617,-1.38 0.555,-1.43 0.582,-1.52 0.566,-1.65 0.586,-1.73 0.551,-1.88 0.558,-1.95 1.137,-4.3 0.598,-2.26 0.551,-2.44 1.14,-5.16 2.285,-11.63 0.586,-3.19 0.559,-3.28 1.144,-6.89 2.282,-15.09 0.55,-4.01 0.598,-4.13 1.137,-8.58 2.293,-18.36 0.551,-4.82 0.585,-4.94 1.11,-10.15 2.289,-21.41 4.562,-47.09 0.598,-6.23 0.551,-6.35 1.144,-12.902 2.286,-26.688 4.535,-56.539 0.648,-7.972 0.617,-8.028 1.227,-16.23 2.461,-33.109 4.961,-68.293 9.894,-140.329 1.231,-17.46 1.261,-17.372 2.461,-34.398 4.95,-66.648 0.617,-8.051 0.609,-8.031 1.231,-15.821 2.492,-30.711 4.961,-57.179 0.554,-6.27 0.583,-6.16 1.171,-12.008 2.286,-22.82 0.585,-5.449 0.586,-5.301 1.137,-10.313 2.32,-19.218 0.586,-4.508 0.551,-4.371 1.184,-8.379 0.586,-3.981 0.55,-3.863 1.172,-7.328 0.551,-3.461 0.598,-3.309 1.137,-6.242 0.585,-2.898 0.586,-2.758 1.137,-5.094 0.598,-2.316 0.586,-2.172 0.55,-2.051 0.586,-1.867 0.586,-1.731 0.578,-1.57 0.571,-1.449 0.586,-1.262 0.578,-1.14 0.558,-0.969 0.586,-0.813 0.586,-0.648 0.551,-0.531 0.598,-0.348 0.586,-0.18 0.578,-0.031 0.558,0.121 0.586,0.289 0.578,0.442 0.571,0.589 0.586,0.758 0.578,0.91 0.586,1.082 0.558,1.231 0.586,1.379 0.578,1.551 0.571,1.726 0.586,1.883 0.578,2.019 0.558,2.168 1.164,4.864 0.618,2.867 0.644,3.082 1.231,6.68 0.644,3.629 0.613,3.808 1.262,8.113 0.613,4.34 0.618,4.508 1.257,9.551 2.493,21.121 0.644,5.687 0.613,5.864 1.262,12.207 2.488,26.281 5.012,59.559 0.613,8.062 0.653,8.18 1.258,16.687 2.492,34.75 5.008,74.242 9.992,160.43 1.222,20.149 1.235,20.191 2.469,40.199 4.921,78.86 0.61,9.613 0.617,9.578 1.231,18.93 2.46,36.879 4.887,69.061 0.613,8.11 0.618,8 1.23,15.57 2.473,29.39 0.613,6.98 0.613,6.83 1.235,13.15 2.453,24.27 0.617,5.63 0.613,5.43 1.231,10.35 0.617,4.86 0.586,4.69 1.23,8.79 0.614,4.06 0.617,3.9 0.609,3.7 0.613,3.45 0.618,3.28 0.617,3.05 1.226,5.45 0.598,2.26 0.551,2.04 0.586,1.87 0.558,1.68 0.586,1.49 0.551,1.3 0.598,1.08 0.586,0.88 0.55,0.7 0.586,0.5 0.551,0.32 0.586,0.09 0.567,-0.09 0.585,-0.29 0.551,-0.49 0.586,-0.71 0.586,-0.91 0.555,-1.08 0.594,-1.3 0.55,-1.52 0.586,-1.69 0.559,-1.87 0.586,-2.13 0.551,-2.31 0.593,-2.49 0.586,-2.7 0.555,-2.89 0.586,-3.07 0.551,-3.29 0.586,-3.48 1.152,-7.54 0.582,-4.07 0.555,-4.24 1.136,-9.06 0.598,-4.84 0.551,-4.98 1.144,-10.54 0.586,-5.54 0.578,-5.71 1.157,-11.96 2.273,-25.92 0.567,-6.91 0.585,-7.03 1.137,-14.59 2.285,-30.92 4.602,-68.282 0.613,-9.828 0.617,-9.98 1.258,-20.27 2.461,-41.898 4.977,-87.774 0.617,-11.219 0.613,-11.281 1.262,-22.68 2.488,-45.539 4.949,-90.738 0.649,-11.199 0.613,-11.102 1.238,-22.09 2.493,-43.21 0.617,-10.579 0.613,-10.492 1.262,-20.621 2.488,-39.758 0.613,-9.609 0.618,-9.43 1.23,-18.429 2.484,-34.864 0.618,-8.258 0.648,-8.062 1.227,-15.559 2.488,-28.621 0.586,-6.179 0.558,-5.981 1.164,-11.367 0.598,-5.359 0.586,-5.153 1.137,-9.699 0.586,-4.512 0.582,-4.277 0.586,-4.07 0.566,-3.871 0.586,-3.598 0.582,-3.402 1.172,-6.059 0.551,-2.699 0.586,-2.434 0.593,-2.199 0.586,-1.957 0.582,-1.731 0.559,-1.492 0.586,-1.238 0.582,-0.961 0.586,-0.762 0.594,-0.468 0.55,-0.27 0.586,0.031 0.586,0.27 0.586,0.5 0.582,0.758 0.567,0.992 0.586,1.289 0.585,1.5 0.583,1.75 0.585,2.031 0.555,2.25 0.582,2.52 0.586,2.75 0.598,3.019 0.586,3.25 0.55,3.488 1.172,7.731 0.578,4.223 0.594,4.457 1.141,9.64 0.586,5.153 0.586,5.386 1.144,11.492 0.586,6.059 0.586,6.301 1.172,13.238 0.555,6.953 0.586,7.141 1.172,14.918 2.316,32.129 0.555,8.351 0.586,8.5 1.144,17.52 2.254,36.879 4.543,80.312 9.109,177.328 0.559,11.43 0.586,11.422 1.14,22.848 2.258,45.531 4.571,88.89 0.554,10.782 0.559,10.699 1.141,21.09 2.285,40.828 4.543,75.001 0.613,9.37 0.617,9.18 1.231,17.64 0.613,8.49 0.617,8.24 1.231,15.77 0.644,7.5 0.613,7.23 1.231,13.69 0.617,6.43 0.613,6.14 1.229,11.47 0.62,5.3 0.61,4.98 0.62,4.69 0.61,4.39 0.62,4.12 0.61,3.75 0.62,3.47 0.61,3.13 0.62,2.81 0.64,2.52 0.62,2.17 0.61,1.85 0.62,1.53 0.62,1.2 0.61,0.85 0.62,0.52 0.61,0.21 0.62,-0.12 0.61,-0.5 0.62,-0.8 0.61,-1.13 0.62,-1.46 0.61,-1.82 0.62,-2.15 0.61,-2.48 0.62,-2.81 0.61,-3.15 0.65,-3.45 0.61,-3.79 0.62,-4.14 1.23,-9.2 0.61,-5.1 0.62,-5.39 1.23,-11.72 0.61,-6.33 0.62,-6.65 1.23,-14.12 0.62,-7.53 0.61,-7.79 1.23,-16.41 2.49,-35.99 0.56,-9.01 0.58,-9.2 1.15,-18.98 2.31,-40.249 4.6,-88.223 9.2,-195.137 0.59,-12.523 0.58,-12.469 1.14,-24.91 2.32,-49.328 4.6,-95.012 0.56,-11.398 0.58,-11.223 1.14,-22.058 2.32,-42.129 0.58,-10.082 0.56,-9.899 1.17,-19.191 2.29,-35.739 0.61,-9.05 0.65,-8.758 1.23,-16.621 0.64,-7.852 0.62,-7.558 1.26,-14.09 0.61,-6.563 0.62,-6.238 0.61,-5.859 0.65,-5.539 0.61,-5.153 0.62,-4.808 0.64,-4.45 0.62,-4.101 0.61,-3.692 0.63,-3.339 0.63,-2.957 0.62,-2.551 0.62,-2.199 0.64,-1.813 0.61,-1.41 0.63,-1.027 0.63,-0.614 0.62,-0.238 0.62,0.148 0.61,0.563 0.64,0.93 0.63,1.347 0.6,1.731 0.65,2.14 0.62,2.52 0.61,2.93 0.64,3.312 0.63,3.688 0.6,4.07 0.62,4.461 1.26,10.07 0.61,5.602 0.66,5.949 1.22,13.027 0.61,7.043 0.65,7.41 1.23,15.821 0.64,8.41 0.62,8.758 1.26,18.449 2.49,40.519 0.61,10.84 0.62,11.133 1.26,22.969 2.49,48.808 0.61,12.512 0.62,12.692 1.23,25.859 2.43,53.559 4.92,111.832 0.62,14.199 0.59,14.211 1.23,28.449 2.46,56.488 4.89,108.949 0.61,13.012 0.62,12.828 1.23,25.141 2.43,47.731 0.62,11.35 0.61,11.08 1.23,21.38 2.47,39.3 0.61,9.05 0.58,8.7 1.24,16.43 0.61,7.71 0.62,7.33 1.23,13.59 0.61,6.21 0.62,5.86 0.61,5.45 0.62,5.06 0.58,4.67 0.62,4.27 0.61,3.85 0.62,3.46 0.58,2.83 0.56,2.46 0.59,2.11 0.55,1.76 0.59,1.37 0.56,1.01 0.58,0.61 0.56,0.26 0.59,-0.12 0.55,-0.5 0.59,-0.87 0.55,-1.23 0.59,-1.61 0.56,-2.03 0.58,-2.34 0.56,-2.76 0.59,-3.1 0.55,-3.48 0.59,-3.85 0.55,-4.21 0.59,-4.57 0.56,-4.93 1.14,-10.91 0.59,-5.99 0.55,-6.33 1.14,-13.68 0.59,-7.36 0.56,-7.64 1.14,-16.29 0.59,-8.59 0.55,-8.9 1.15,-18.68 2.28,-40.73 0.59,-10.81 0.55,-11.08 1.15,-22.852 2.28,-48.219 0.59,-12.539 0.55,-12.718 1.15,-25.891 2.28,-53.441 4.57,-111.059 1.23,-30.543 1.26,-30.43 2.46,-60.328 0.65,-14.879 0.61,-14.761 1.23,-29.129 2.49,-56.301 0.62,-13.602 0.61,-13.359 1.23,-26.008 2.49,-48.781 0.62,-11.461 0.61,-11.129 1.24,-21.27 0.61,-10.109 0.64,-9.75 1.24,-18.34 0.61,-8.621 0.62,-8.172 0.61,-7.789 0.62,-7.359 0.64,-6.942 0.62,-6.468 1.23,-11.692 0.61,-5.16 0.62,-4.687 0.64,-4.25 0.62,-3.75 0.61,-3.313 0.62,-2.808 0.61,-2.309 0.62,-1.852 0.61,-1.347 0.65,-0.883 0.61,-0.379 0.62,0.121 0.61,0.617 0.62,1.082 0.61,1.61 0.62,2.082 0.64,2.578 0.62,3.082 0.61,3.539 0.62,4.039 0.61,4.52 0.62,4.98 0.61,5.469 0.65,5.953 0.56,5.949 0.58,6.359 1.17,13.879 0.56,7.532 0.59,7.879 1.17,16.91 0.55,8.992 0.59,9.316 1.17,19.692 2.29,43.211 0.58,11.539 0.59,11.808 1.14,24.434 2.32,51.769 4.63,112.469 0.58,14.649 0.59,14.761 1.14,29.7 2.31,59.921 4.63,118.829 0.59,14.468 0.59,14.364 1.14,28.296 2.31,54.493 0.59,13.129 0.58,12.89 1.15,25.02 2.31,46.78 0.56,10.76 0.58,10.43 1.12,19.9 0.58,9.43 0.56,9.1 1.14,17.15 0.56,7.99 0.58,7.64 0.56,7.27 0.56,6.85 0.58,6.46 0.56,6.06 1.14,10.86 0.56,4.78 0.56,4.4 0.58,3.92 0.56,3.52 0.56,3.05 0.58,2.63 0.56,2.17 0.56,1.74 0.58,1.25 0.56,0.82 0.58,0.38 0.56,-0.12 0.56,-0.52 0.58,-1.03 0.56,-1.43 0.56,-1.94 0.58,-2.37 0.56,-2.81 0.56,-3.29 0.58,-3.72 0.56,-4.16 0.55,-4.6 0.59,-5.07 0.56,-5.47 0.56,-5.88 0.58,-6.37 1.14,-13.93 0.56,-7.57 0.56,-7.97 1.14,-17.14 0.55,-9.15 0.59,-9.51 1.11,-20.1 2.29,-44.3 0.56,-11.86 0.55,-12.16 1.14,-25.14 2.29,-53.351 0.62,-15.09 0.61,-15.321 1.23,-31.257 2.46,-64.602 4.92,-133.309 0.62,-16.66 0.61,-16.64 1.23,-32.989 2.47,-64.48 0.61,-15.699 0.62,-15.473 1.23,-30.258 2.46,-57.312 0.61,-13.528 0.62,-13.222 1.23,-25.278 0.61,-12.101 0.62,-11.66 1.23,-22.059 0.61,-10.402 0.62,-9.899 0.62,-9.441 0.61,-8.957 0.62,-8.5 0.61,-7.973 1.23,-14.379 0.62,-6.39 0.61,-5.86 0.44,-3.781"
         style="fill:none;stroke:#5e7dbc;stroke-width:5;stroke-linecap:butt;stroke-linejoin:miter;stroke-miterlimit:3.25;stroke-dasharray:30.0276, 20.0184;stroke-dashoffset:0;stroke-opacity:1"
         transform="matrix(0.13333333,0,0,-0.13333333,0,363.74667)" />
      <path
         id="path23"
         d="m 1328.14,236.371 0.09,-0.57 0.61,-3.629 0.62,-3.07 0.61,-2.493 0.62,-1.91 0.62,-1.32 0.61,-0.731 0.61,-0.148 0.62,0.441 0.61,1.028 0.62,1.609 0.62,2.231 0.55,2.57 0.59,3.082 0.5,3.199"
         style="fill:none;stroke:#5e7dbc;stroke-width:5;stroke-linecap:butt;stroke-linejoin:miter;stroke-miterlimit:3.25;stroke-dasharray:none;stroke-opacity:1"
         transform="matrix(0.13333333,0,0,-0.13333333,0,363.74667)" />
      <path
         id="path24"
         d="m 1339.02,256.531 0.55,5.957 0.58,6.543 0.56,7 1.17,15.438 0.56,8.383 0.58,8.847 1.15,18.949 0.58,10.114 0.56,10.519 1.14,22.168 2.31,48.789 0.56,13.032 0.59,13.359 1.14,27.57 2.28,58.211 0.59,15.121 0.59,15.289 1.14,31.141 2.28,63.809 4.6,130.199 0.59,16.172 0.56,16.089 1.14,31.84 2.31,61.989 0.56,15.031 0.59,14.832 1.14,28.906 2.28,54.532 0.65,13.91 0.61,13.5 1.23,25.76 0.65,12.2 0.61,11.73 1.23,21.98 0.65,10.22 0.61,9.7 0.62,9.15 0.61,8.57 0.65,8.03 0.61,7.44 0.62,6.85 0.62,6.27 0.41,3.88"
         style="fill:none;stroke:#5e7dbc;stroke-width:5;stroke-linecap:butt;stroke-linejoin:miter;stroke-miterlimit:3.25;stroke-dasharray:30.0033, 20.0022;stroke-dashoffset:0;stroke-opacity:1"
         transform="matrix(0.13333333,0,0,-0.13333333,0,363.74667)" />
      <path
         id="path25"
         d="m 1383.36,1205.46 0.18,1.27 0.62,3.77 0.61,3.15 0.65,2.48 0.61,1.85 0.62,1.21 0.61,0.55 0.65,-0.12 0.61,-0.76 0.62,-1.4 0.61,-2.06 0.65,-2.73 0.61,-3.36 0.53,-3.43"
         style="fill:none;stroke:#5e7dbc;stroke-width:5;stroke-linecap:butt;stroke-linejoin:miter;stroke-miterlimit:3.25;stroke-dasharray:none;stroke-opacity:1"
         transform="matrix(0.13333333,0,0,-0.13333333,0,363.74667)" />
      <path
         id="path26"
         d="m 1393.82,1186.01 0.3,-3.09 0.61,-7.18 0.65,-7.74 1.23,-17.31 0.61,-9.52 0.62,-10.08 1.26,-21.8 0.61,-11.68 0.62,-12.19 1.26,-25.87 0.61,-13.63 0.62,-14.06 1.26,-29.39 2.49,-63.22 4.98,-139.41 0.58,-17 0.56,-17.078 1.17,-34.321 2.32,-68.66 0.58,-17.082 0.59,-16.969 1.17,-33.628 2.31,-65.391 0.59,-15.852 0.59,-15.578 1.14,-30.39 0.59,-14.762 0.58,-14.418 1.17,-27.859 0.59,-13.391 0.56,-13 1.17,-24.762 0.58,-11.75 0.59,-11.277 1.14,-21.211 0.59,-9.84 0.58,-9.383 0.59,-8.84 0.59,-8.32 0.58,-7.797 0.56,-7.23 0.58,-6.711 0.59,-6.129 0.51,-4.77"
         style="fill:none;stroke:#5e7dbc;stroke-width:5;stroke-linecap:butt;stroke-linejoin:miter;stroke-miterlimit:3.25;stroke-dasharray:30.0182, 20.0122;stroke-dashoffset:0;stroke-opacity:1"
         transform="matrix(0.13333333,0,0,-0.13333333,0,363.74667)" />
      <path
         id="path27"
         d="m 1436.52,236.512 0.02,-0.184 0.55,-3.808 0.59,-3.192 0.59,-2.578 0.58,-1.961 0.59,-1.379 0.58,-0.762 0.56,-0.148 0.59,0.5 0.58,1.09 0.59,1.699 0.58,2.313 0.59,2.929 0.56,3.539 0.31,2.219"
         style="fill:none;stroke:#5e7dbc;stroke-width:5;stroke-linecap:butt;stroke-linejoin:miter;stroke-miterlimit:3.25;stroke-dasharray:none;stroke-opacity:1"
         transform="matrix(0.13333333,0,0,-0.13333333,0,363.74667)" />
      <path
         id="path28"
         d="m 1446.59,256.66 0.41,4.602 0.56,7.09 1.17,15.886 0.55,8.582 0.59,9.11 1.14,19.742 0.56,10.609 0.58,11.071 1.15,23.5 0.55,12.418 0.56,12.832 1.14,26.839 2.29,58.039 0.58,15.321 1.7,47.578 2.29,66.5 4.54,138.75 0.58,17.461 0.56,17.43 1.14,34.628 2.29,67.77 0.56,16.523 0.58,16.289 1.15,31.872 2.25,60.298 0.59,14.23 0.55,13.89 1.14,26.56 0.59,12.67 0.56,12.22 1.14,23.05 0.56,10.81 0.58,10.34 0.56,9.79 0.59,9.29 0.55,8.73 0.59,8.2 0.55,7.66 0.56,7.05 0.65,7.01 0.61,6.31 0.04,0.33"
         style="fill:none;stroke:#5e7dbc;stroke-width:5;stroke-linecap:butt;stroke-linejoin:miter;stroke-miterlimit:3.25;stroke-dasharray:29.9939, 19.9959;stroke-dashoffset:0;stroke-opacity:1"
         transform="matrix(0.13333333,0,0,-0.13333333,0,363.74667)" />
      <path
         id="path29"
         d="m 1487.63,1205.47 0.03,0.27 0.62,4.16 0.61,3.45 0.62,2.74 0.61,1.95 0.62,1.23 0.61,0.5 0.62,-0.26 0.64,-1 0.62,-1.76 0.61,-2.52 0.62,-3.22 0.61,-3.98 0.18,-1.37"
         style="fill:none;stroke:#5e7dbc;stroke-width:5;stroke-linecap:butt;stroke-linejoin:miter;stroke-miterlimit:3.25;stroke-dasharray:none;stroke-opacity:1"
         transform="matrix(0.13333333,0,0,-0.13333333,0,363.74667)" />
      <path
         id="path30"
         d="m 1497.36,1185.78 0.17,-1.96 0.62,-7.59 0.61,-8.25 1.26,-18.58 0.62,-10.28 0.61,-10.9 1.24,-23.67 0.61,-12.76 0.62,-13.29 1.23,-28.24 0.61,-14.88 0.65,-15.39 1.23,-32.111 2.46,-69.051 4.95,-151.16 0.61,-19.578 1.85,-58.879 2.46,-77.793 0.65,-19.129 0.61,-18.93 1.23,-37.148 2.46,-70.691 0.59,-15.641 0.58,-15.301 1.15,-29.379 0.58,-14.058 0.57,-13.629 1.16,-25.84 0.56,-12.152 0.58,-11.641 1.15,-21.668 0.58,-9.973 0.59,-9.398 1.14,-17.02 0.59,-7.558 0.58,-6.942 0.57,-6.3 0.24,-2.442"
         style="fill:none;stroke:#5e7dbc;stroke-width:5;stroke-linecap:butt;stroke-linejoin:miter;stroke-miterlimit:3.25;stroke-dasharray:30.0021, 20.0014;stroke-dashoffset:0;stroke-opacity:1"
         transform="matrix(0.13333333,0,0,-0.13333333,0,363.74667)" />
      <path
         id="path31"
         d="m 1537.08,236.641 0.33,-2.59 0.58,-3.641 0.59,-2.949 0.56,-2.293 0.58,-1.578 0.59,-0.879 0.55,-0.211 0.59,0.5 0.59,1.199 0.55,1.922 0.6,2.57 0.57,3.278 0.56,3.953 0.12,0.93"
         style="fill:none;stroke:#5e7dbc;stroke-width:5;stroke-linecap:butt;stroke-linejoin:miter;stroke-miterlimit:3.25;stroke-dasharray:none;stroke-opacity:1"
         transform="matrix(0.13333333,0,0,-0.13333333,0,363.74667)" />
      <path
         id="path32"
         d="m 1546.49,256.738 0.15,1.801 0.58,7.32 0.59,7.942 0.55,8.59 0.59,9.199 1.14,20.238 0.6,10.992 0.57,11.571 1.15,24.781 0.58,13.156 0.56,13.684 1.17,28.769 2.32,62.641 4.6,140.738 0.61,20.129 0.65,20.242 1.23,40.84 2.52,81.938 0.61,20.332 0.62,20.218 1.26,39.871 2.49,76.758 0.64,18.371 0.62,17.961 1.26,34.6 0.61,16.61 0.62,16.05 1.26,30.5 0.61,14.39 0.65,13.71 0.61,13.09 0.62,12.43 0.64,11.72 0.62,11 1.26,19.81 0.61,8.76 0.62,7.97 0.64,7.15 0.28,2.95"
         style="fill:none;stroke:#5e7dbc;stroke-width:5;stroke-linecap:butt;stroke-linejoin:miter;stroke-miterlimit:3.25;stroke-dasharray:29.9883, 19.9922;stroke-dashoffset:0;stroke-opacity:1"
         transform="matrix(0.13333333,0,0,-0.13333333,0,363.74667)" />
      <path
         id="path33"
         d="m 1584.89,1205.49 0.51,3.7 0.61,3.83 0.62,2.97 0.64,2.14 0.62,1.26 0.61,0.38 0.65,-0.48 0.61,-1.33 0.62,-2.22 0.64,-3.09 0.62,-3.95 0.42,-3.25"
         style="fill:none;stroke:#5e7dbc;stroke-width:5;stroke-linecap:butt;stroke-linejoin:miter;stroke-miterlimit:3.25;stroke-dasharray:none;stroke-opacity:1"
         transform="matrix(0.13333333,0,0,-0.13333333,0,363.74667)" />
      <path
         id="path34"
         d="m 1594.03,1185.56 0.1,-1.15 0.64,-8.15 0.62,-8.92 1.26,-20.26 0.61,-11.25 0.62,-12.01 1.26,-26.13 0.61,-14.06 0.65,-14.73 1.23,-31.29 0.61,-16.23 0.62,-16.74 1.23,-34.89 2.46,-74.77 4.89,-162.058 0.62,-20.781 0.61,-20.743 1.23,-41.339 2.46,-81 0.62,-19.688 0.61,-19.402 1.23,-37.789 2.43,-70.602 0.62,-16.437 0.62,-15.879 1.23,-30.024 0.61,-14.07 0.62,-13.418 1.23,-24.75 0.61,-11.309 0.62,-10.55 0.61,-9.782 0.62,-9 0.61,-8.199 0.62,-7.379 0.36,-4"
         style="fill:none;stroke:#5e7dbc;stroke-width:5;stroke-linecap:butt;stroke-linejoin:miter;stroke-miterlimit:3.25;stroke-dasharray:29.9856, 19.9904;stroke-dashoffset:0;stroke-opacity:1"
         transform="matrix(0.13333333,0,0,-0.13333333,0,363.74667)" />
      <path
         id="path35"
         d="m 1631.28,236.84 0.4,-3.199 0.62,-3.993 0.62,-3.097 0.61,-2.231 0.62,-1.379 0.61,-0.441 0.62,0.41 0.61,1.328 0.62,2.192 0.61,3.109 0.62,3.949 0.42,3.332"
         style="fill:none;stroke:#5e7dbc;stroke-width:5;stroke-linecap:butt;stroke-linejoin:miter;stroke-miterlimit:3.25;stroke-dasharray:none;stroke-opacity:1"
         transform="matrix(0.13333333,0,0,-0.13333333,0,363.74667)" />
      <path
         id="path36"
         d="m 1640.19,256.699 0.11,1.34 0.58,8.262 0.59,8.437 0.59,9.141 1.14,20.332 0.55,11.168 0.59,11.801 1.14,25.461 0.56,13.589 0.59,14.18 1.14,29.969 2.29,65.691 0.58,17.461 0.56,17.84 1.14,36.649 2.28,76.468 4.6,158.582 0.56,19.75 0.59,19.629 1.14,38.719 2.28,74.633 0.56,17.898 0.59,17.492 1.14,33.799 2.28,62 0.59,14.18 0.56,13.59 1.14,25.35 0.59,11.74 0.55,11.04 1.14,20.07 0.59,8.97 0.59,8.24 0.55,7.5 0.59,6.73 0.06,0.65"
         style="fill:none;stroke:#5e7dbc;stroke-width:5;stroke-linecap:butt;stroke-linejoin:miter;stroke-miterlimit:3.25;stroke-dasharray:29.9702, 19.9801;stroke-dashoffset:0;stroke-opacity:1"
         transform="matrix(0.13333333,0,0,-0.13333333,0,363.74667)" />
      <path
         id="path37"
         d="m 1676.33,1204.98 0.06,0.54 0.56,4.4 0.58,3.58 0.62,2.98 0.61,2.03 0.62,1.07 0.64,0.13 0.62,-0.85 0.61,-1.81 0.62,-2.8 0.62,-3.71 0.61,-4.66 0.08,-0.71"
         style="fill:none;stroke:#5e7dbc;stroke-width:5;stroke-linecap:butt;stroke-linejoin:miter;stroke-miterlimit:3.25;stroke-dasharray:none;stroke-opacity:1"
         transform="matrix(0.13333333,0,0,-0.13333333,0,363.74667)" />
      <path
         id="path38"
         d="m 1685.04,1185.28 0.55,-7.4 0.62,-9.29 0.64,-10.14 0.62,-10.99 0.61,-11.83 0.62,-12.63 1.23,-27.62 0.64,-14.94 0.62,-15.64 1.23,-33.26 0.61,-17.58 0.65,-18.159 1.23,-37.942 2.49,-81.187 0.61,-21.192 0.62,-21.46 1.23,-43.559 2.49,-88.543 0.61,-22.18 0.62,-22.09 1.26,-43.769 2.49,-84.777 0.61,-20.372 0.62,-19.949 1.23,-38.461 0.62,-18.461 0.64,-17.898 1.23,-33.902 0.62,-15.93 0.61,-15.27 0.65,-14.468 0.61,-13.743 0.62,-12.918 0.61,-12.101 1.23,-21.59 0.59,-8.879 0.58,-8.058 0.59,-7.262 0.28,-3.059"
         style="fill:none;stroke:#5e7dbc;stroke-width:5;stroke-linecap:butt;stroke-linejoin:miter;stroke-miterlimit:3.25;stroke-dasharray:29.9739, 19.9826;stroke-dashoffset:0;stroke-opacity:1"
         transform="matrix(0.13333333,0,0,-0.13333333,0,363.74667)" />
      <path
         id="path39"
         d="m 1720.26,236.84 0.46,-3.731 0.59,-3.871 0.58,-3.019 0.56,-2.098 0.58,-1.262 0.59,-0.359 0.58,0.5 0.59,1.41 0.56,2.281 0.58,3.18 0.59,4.027 0.36,3.032"
         style="fill:none;stroke:#5e7dbc;stroke-width:5;stroke-linecap:butt;stroke-linejoin:miter;stroke-miterlimit:3.25;stroke-dasharray:none;stroke-opacity:1"
         transform="matrix(0.13333333,0,0,-0.13333333,0,363.74667)" />
      <path
         id="path40"
         d="m 1728.69,256.828 0.14,1.832 0.59,8.289 0.58,9.11 1.15,20.57 0.58,11.449 0.59,12.192 1.14,26.511 0.59,14.297 0.58,14.942 1.15,31.699 0.58,16.73 0.59,17.289 1.14,36.032 2.32,77.14 4.65,166.641 0.56,21.269 0.59,21.211 1.17,42.207 2.31,82.332 0.59,19.918 0.55,19.602 1.18,38.019 2.31,70.501 0.56,15.93 0.58,15.38 1.15,28.89 0.55,13.48 0.56,12.77 1.14,23.4 0.59,10.6 0.55,9.83 0.56,9.02 0.59,8.21 0.55,7.41 0.35,3.87"
         style="fill:none;stroke:#5e7dbc;stroke-width:5;stroke-linecap:butt;stroke-linejoin:miter;stroke-miterlimit:3.25;stroke-dasharray:29.9751, 19.9834;stroke-dashoffset:0;stroke-opacity:1"
         transform="matrix(0.13333333,0,0,-0.13333333,0,363.74667)" />
      <path
         id="path41"
         d="m 1763.02,1205.35 0.38,3.32 0.59,3.98 0.56,3.11 0.55,2.22 0.59,1.35 0.56,0.44 0.58,-0.44 0.56,-1.35 0.55,-2.22 0.59,-3.11 0.56,-4.02 0.39,-3.27"
         style="fill:none;stroke:#5e7dbc;stroke-width:5;stroke-linecap:butt;stroke-linejoin:miter;stroke-miterlimit:3.25;stroke-dasharray:none;stroke-opacity:1"
         transform="matrix(0.13333333,0,0,-0.13333333,0,363.74667)" />
      <path
         id="path42"
         d="m 1771.25,1185.45 0.12,-1.51 0.57,-8.29 0.55,-9.11 0.58,-9.93 0.56,-10.73 1.14,-23.7 0.56,-12.97 0.58,-13.69 1.15,-29.35 0.55,-15.65 0.56,-16.27 1.14,-34.14 2.29,-74.282 0.55,-19.598 0.56,-19.949 1.14,-40.781 2.29,-84.059 4.55,-169.441 0.6,-22.301 0.62,-21.969 1.23,-42.769 0.61,-20.723 0.62,-20.179 1.23,-38.731 0.62,-18.43 0.61,-17.726 1.23,-33.281 0.62,-15.5 0.61,-14.61 1.23,-26.691 0.62,-11.988 0.61,-11.012 0.65,-10.051 0.61,-9.051 0.62,-8.027 0.18,-2.082"
         style="fill:none;stroke:#5e7dbc;stroke-width:5;stroke-linecap:butt;stroke-linejoin:miter;stroke-miterlimit:3.25;stroke-dasharray:29.9743, 19.9829;stroke-dashoffset:0;stroke-opacity:1"
         transform="matrix(0.13333333,0,0,-0.13333333,0,363.74667)" />
      <path
         id="path43"
         d="m 1804.76,236.941 0.1,-0.929 0.61,-4.864 0.62,-3.808 0.61,-2.731 0.62,-1.609 0.61,-0.5 0.62,0.59 0.62,1.672 0.61,2.808 0.62,3.871 0.61,4.977 0.06,0.562"
         style="fill:none;stroke:#5e7dbc;stroke-width:5;stroke-linecap:butt;stroke-linejoin:miter;stroke-miterlimit:3.25;stroke-dasharray:none;stroke-opacity:1"
         transform="matrix(0.13333333,0,0,-0.13333333,0,363.74667)" />
      <path
         id="path44"
         d="m 1812.79,256.879 0.07,0.871 0.61,9.199 0.62,10.192 0.61,11.218 0.62,12.161 0.61,13.128 0.62,14.032 1.23,30.672 0.61,16.589 0.62,17.34 1.26,36.91 0.61,19.489 0.62,20.058 1.23,41.871 2.46,89.063 4.92,188.226 0.59,21.922 0.55,21.711 1.18,42.739 2.28,81.652 0.59,19.367 0.55,18.859 1.18,36.062 0.55,17.15 0.59,16.5 1.14,30.94 0.59,14.37 0.55,13.6 0.59,12.8 0.59,11.98 0.55,11.14 0.59,10.25 0.56,9.37 0.58,8.44 0.59,7.52 0.08,1.01"
         style="fill:none;stroke:#5e7dbc;stroke-width:5;stroke-linecap:butt;stroke-linejoin:miter;stroke-miterlimit:3.25;stroke-dasharray:29.9676, 19.9784;stroke-dashoffset:0;stroke-opacity:1"
         transform="matrix(0.13333333,0,0,-0.13333333,0,363.74667)" />
      <path
         id="path45"
         d="m 1845.51,1205.22 0.13,1.24 0.59,4.65 0.55,3.65 0.59,2.66 0.58,1.68 0.56,0.67 0.59,-0.35 0.55,-1.35 0.59,-2.33 0.59,-3.36 0.55,-4.34 0.29,-2.66"
         style="fill:none;stroke:#5e7dbc;stroke-width:5;stroke-linecap:butt;stroke-linejoin:miter;stroke-miterlimit:3.25;stroke-dasharray:none;stroke-opacity:1"
         transform="matrix(0.13333333,0,0,-0.13333333,0,363.74667)" />
      <path
         id="path46"
         d="m 1853.37,1185.48 0.33,-4.53 0.55,-9.14 0.59,-10.08 0.58,-10.95 0.56,-11.84 0.59,-12.72 1.14,-27.83 0.59,-15.09 0.55,-15.82 1.17,-33.77 2.29,-74.98 0.59,-20.062 0.55,-20.508 1.17,-42.25 2.29,-87.969 0.65,-25.082 0.64,-25.23 1.29,-50.508 2.55,-99.551 0.64,-24.199 0.65,-23.82 1.28,-46.172 2.58,-84.93 0.65,-19.359 0.64,-18.52 0.65,-17.609 0.61,-16.641 0.65,-15.672 0.64,-14.617 0.64,-13.543 0.65,-12.449 0.64,-11.277 0.65,-10.133 0.64,-8.91 0.21,-2.449"
         style="fill:none;stroke:#5e7dbc;stroke-width:5;stroke-linecap:butt;stroke-linejoin:miter;stroke-miterlimit:3.25;stroke-dasharray:29.9612, 19.9741;stroke-dashoffset:0;stroke-opacity:1"
         transform="matrix(0.13333333,0,0,-0.13333333,0,363.74667)" />
      <path
         id="path47"
         d="m 1885.37,237.32 0.17,-1.718 0.65,-5.192 0.61,-3.859 0.65,-2.61 0.64,-1.293 h 0.65 l 0.64,1.321 0.64,2.64 0.65,3.922 0.64,5.219 0.16,1.578"
         style="fill:none;stroke:#5e7dbc;stroke-width:5;stroke-linecap:butt;stroke-linejoin:miter;stroke-miterlimit:3.25;stroke-dasharray:none;stroke-opacity:1"
         transform="matrix(0.13333333,0,0,-0.13333333,0,363.74667)" />
      <path
         id="path48"
         d="m 1893.12,257.219 0.13,1.793 0.61,10.226 0.65,11.422 0.64,12.602 0.65,13.707 0.64,14.82 1.29,32.781 0.64,17.899 0.65,18.812 1.29,40.199 2.55,89.301 0.64,23.84 0.65,24.289 1.28,49.801 0.65,25.348 0.64,25.57 0.65,25.73 0.02,0.801"
         style="fill:none;stroke:#5e7dbc;stroke-width:5;stroke-linecap:butt;stroke-linejoin:miter;stroke-miterlimit:3.25;stroke-dasharray:29.9445, 19.963;stroke-dashoffset:0;stroke-opacity:1"
         transform="matrix(0.13333333,0,0,-0.13333333,0,363.74667)" />
      <path
         id="path49"
         d="m 1907.62,706.129 0.36,15"
         style="fill:none;stroke:#5e7dbc;stroke-width:5;stroke-linecap:butt;stroke-linejoin:miter;stroke-miterlimit:3.25;stroke-dasharray:none;stroke-opacity:1"
         transform="matrix(0.13333333,0,0,-0.13333333,0,363.74667)" />
      <path
         id="path50"
         d="m 37.7305,739.488 h 57.8593 l 0.6172,72.352 h 58.066 l 0.555,135.058 h 57.723 l 0.613,157.962 h 57.945 l 0.645,86.89 h 57.601 l 0.61,-112.81 h 58.16 l 0.613,-352.381 h 57.653 l 0.582,-366.86 h 57.867 l 0.613,33.903 h 58.125 l 0.582,469.218 h 57.867 l 0.614,201.1 h 57.629 l 0.554,-450.24 h 58.004 l 0.598,-153.399 h 57.59 l 0.617,468.93 h 57.98 l 0.555,-158.27 h 57.859 l 0.618,-238.589 h 57.8 L 973.004,884 h 58.266 l 0.59,-238.602 h 57.58 l 0.6,84.582 h 57.78 l 0.55,8.282 h 57.84 l 0.61,-30.551 H 1265 l 0.56,10.469 h 57.75 l 0.61,19.8 h 57.75 l 0.61,-29.429 h 57.74 l 0.56,-14.039 h 58.18 l 0.65,131.797 h 57.63 l 0.55,-289.219 h 58.16 l 0.61,347.898 h 57.75 l 0.55,-130.07 h 57.66 l 0.56,-302.699 h 57.81 l 0.6,445.199 h 57.81 l 0.55,72.363 h 58.33"
         style="fill:none;stroke:#3871c1;stroke-width:7.5;stroke-linecap:butt;stroke-linejoin:round;stroke-miterlimit:3.25;stroke-dasharray:none;stroke-opacity:1"
         transform="matrix(0.13333333,0,0,-0.13333333,0,363.74667)" />
      <path
         id="path51"
         d="M 0,721.129 H 1887.3"
         style="fill:none;stroke:#231f20;stroke-width:5;stroke-linecap:butt;stroke-linejoin:miter;stroke-miterlimit:3.25;stroke-dasharray:none;stroke-opacity:1"
         transform="matrix(0.13333333,0,0,-0.13333333,0,363.74667)" />
      <path
         id="path52"
         d="M 37.7305,137.922 V 1304.35"
         style="fill:none;stroke:#231f20;stroke-width:5;stroke-linecap:butt;stroke-linejoin:miter;stroke-miterlimit:3.25;stroke-dasharray:none;stroke-opacity:1"
         transform="matrix(0.13333333,0,0,-0.13333333,0,363.74667)" />
      <path
         id="path53"
         d="m 55.7656,1882.44 c 0,4.24 -1.6601,8.27 -4.6679,11.27 -2.961,2.97 -7.0352,4.63 -11.2696,4.63 -4.1914,0 -8.2656,-1.66 -11.2304,-4.63 -3.0079,-3 -4.668,-7.03 -4.668,-11.27 0,-4.23 1.6601,-8.26 4.668,-11.27 2.9648,-2.97 7.039,-4.67 11.2304,-4.67 4.2344,0 8.3086,1.7 11.2696,4.67 3.0078,3.01 4.6679,7.04 4.6679,11.27 v 0"
         style="fill:#231f20;fill-opacity:1;fill-rule:evenodd;stroke:none"
         transform="matrix(0.13333333,0,0,-0.13333333,0,363.74667)" />
      <path
         id="path54"
         d="m 114.215,1882.44 c 0,4.24 -1.66,8.27 -4.668,11.27 -2.965,2.97 -7.035,4.63 -11.2697,4.63 -4.1953,0 -8.2656,-1.66 -11.2304,-4.63 -3.0078,-3 -4.668,-7.03 -4.668,-11.27 0,-4.23 1.6602,-8.26 4.668,-11.27 2.9648,-2.97 7.0351,-4.67 11.2304,-4.67 4.2347,0 8.3047,1.7 11.2697,4.67 3.008,3.01 4.668,7.04 4.668,11.27 v 0"
         style="fill:#231f20;fill-opacity:1;fill-rule:evenodd;stroke:none"
         transform="matrix(0.13333333,0,0,-0.13333333,0,363.74667)" />
      <path
         id="path55"
         d="m 172.66,1882.44 c 0,4.24 -1.66,8.27 -4.668,11.27 -2.965,2.97 -7.035,4.63 -11.269,4.63 -4.196,0 -8.27,-1.66 -11.231,-4.63 -3.008,-3 -4.668,-7.03 -4.668,-11.27 0,-4.23 1.66,-8.26 4.668,-11.27 2.961,-2.97 7.035,-4.67 11.231,-4.67 4.234,0 8.304,1.7 11.269,4.67 3.008,3.01 4.668,7.04 4.668,11.27 v 0"
         style="fill:#231f20;fill-opacity:1;fill-rule:evenodd;stroke:none"
         transform="matrix(0.13333333,0,0,-0.13333333,0,363.74667)" />
      <path
         id="path56"
         d="m 231.109,1882.44 c 0,4.24 -1.699,8.27 -4.668,11.27 -3.003,2.97 -7.039,4.63 -11.269,4.63 -4.195,0 -8.274,-1.66 -11.242,-4.63 -2.996,-3 -4.657,-7.03 -4.657,-11.27 0,-4.23 1.661,-8.26 4.657,-11.27 2.968,-2.97 7.047,-4.67 11.242,-4.67 4.23,0 8.266,1.7 11.269,4.67 2.969,3.01 4.668,7.04 4.668,11.27 v 0"
         style="fill:#231f20;fill-opacity:1;fill-rule:evenodd;stroke:none"
         transform="matrix(0.13333333,0,0,-0.13333333,0,363.74667)" />
      <path
         id="path57"
         d="m 289.555,1882.44 c 0,4.24 -1.7,8.27 -4.66,11.27 -3.008,2.97 -7.043,4.63 -11.278,4.63 -4.23,0 -8.269,-1.66 -11.238,-4.63 -3,-3 -4.664,-7.03 -4.664,-11.27 0,-4.23 1.664,-8.26 4.664,-11.27 2.969,-2.97 7.008,-4.67 11.238,-4.67 4.235,0 8.27,1.7 11.278,4.67 2.96,3.01 4.66,7.04 4.66,11.27 v 0"
         style="fill:#231f20;fill-opacity:1;fill-rule:evenodd;stroke:none"
         transform="matrix(0.13333333,0,0,-0.13333333,0,363.74667)" />
      <path
         id="path58"
         d="m 348.004,1882.44 c 0,4.24 -1.699,8.27 -4.664,11.27 -3.008,2.97 -7.039,4.63 -11.274,4.63 -4.234,0 -8.273,-1.66 -11.281,-4.63 -2.957,-3 -4.625,-7.03 -4.625,-11.27 0,-4.23 1.668,-8.26 4.625,-11.27 3.008,-2.97 7.047,-4.67 11.281,-4.67 4.235,0 8.266,1.7 11.274,4.67 2.965,3.01 4.664,7.04 4.664,11.27 v 0"
         style="fill:#231f20;fill-opacity:1;fill-rule:evenodd;stroke:none"
         transform="matrix(0.13333333,0,0,-0.13333333,0,363.74667)" />
      <path
         id="path59"
         d="m 406.453,1882.44 c 0,4.24 -1.695,8.27 -4.66,11.27 -3.008,2.97 -7.043,4.63 -11.273,4.63 -4.235,0 -8.274,-1.66 -11.282,-4.63 -2.965,-3 -4.66,-7.03 -4.66,-11.27 0,-4.23 1.695,-8.26 4.66,-11.27 3.008,-2.97 7.047,-4.67 11.282,-4.67 4.23,0 8.265,1.7 11.273,4.67 2.965,3.01 4.66,7.04 4.66,11.27 v 0"
         style="fill:#231f20;fill-opacity:1;fill-rule:evenodd;stroke:none"
         transform="matrix(0.13333333,0,0,-0.13333333,0,363.74667)" />
      <path
         id="path60"
         d="m 464.902,1882.44 c 0,4.24 -1.699,8.27 -4.664,11.27 -3.008,2.97 -7.039,4.63 -11.273,4.63 -4.235,0 -8.274,-1.66 -11.277,-4.63 -2.965,-3 -4.661,-7.03 -4.661,-11.27 0,-4.23 1.696,-8.26 4.661,-11.27 3.003,-2.97 7.042,-4.67 11.277,-4.67 4.234,0 8.265,1.7 11.273,4.67 2.965,3.01 4.664,7.04 4.664,11.27 v 0"
         style="fill:#231f20;fill-opacity:1;fill-rule:evenodd;stroke:none"
         transform="matrix(0.13333333,0,0,-0.13333333,0,363.74667)" />
      <path
         id="path61"
         d="m 523.355,2407.32 c 0,4.23 -1.707,8.27 -4.667,11.27 -3.008,2.97 -7.043,4.67 -11.278,4.67 -4.23,0 -8.269,-1.7 -11.277,-4.67 -2.965,-3 -4.664,-7.04 -4.664,-11.27 0,-4.23 1.699,-8.27 4.664,-11.28 3.008,-2.97 7.047,-4.67 11.277,-4.67 4.235,0 8.27,1.7 11.278,4.67 2.96,3.01 4.667,7.05 4.667,11.28 v 0"
         style="fill:#231f20;fill-opacity:1;fill-rule:evenodd;stroke:none"
         transform="matrix(0.13333333,0,0,-0.13333333,0,363.74667)" />
      <path
         id="path62"
         d="m 581.801,2407.32 c 0,4.23 -1.703,8.27 -4.668,11.27 -3.008,2.97 -7.039,4.67 -11.274,4.67 -4.234,0 -8.265,-1.7 -11.281,-4.67 -2.961,-3 -4.66,-7.04 -4.66,-11.27 0,-4.23 1.699,-8.27 4.66,-11.28 3.016,-2.97 7.047,-4.67 11.281,-4.67 4.235,0 8.266,1.7 11.274,4.67 2.965,3.01 4.668,7.05 4.668,11.28 v 0"
         style="fill:#231f20;fill-opacity:1;fill-rule:evenodd;stroke:none"
         transform="matrix(0.13333333,0,0,-0.13333333,0,363.74667)" />
      <path
         id="path63"
         d="m 640.211,2407.32 c 0,4.23 -1.66,8.27 -4.625,11.27 -3.008,2.97 -7.039,4.67 -11.273,4.67 -4.231,0 -8.266,-1.7 -11.282,-4.67 -2.965,-3 -4.664,-7.04 -4.664,-11.27 0,-4.23 1.699,-8.27 4.664,-11.28 3.016,-2.97 7.051,-4.67 11.282,-4.67 4.234,0 8.265,1.7 11.273,4.67 2.965,3.01 4.625,7.05 4.625,11.28 v 0"
         style="fill:#231f20;fill-opacity:1;fill-rule:evenodd;stroke:none"
         transform="matrix(0.13333333,0,0,-0.13333333,0,363.74667)" />
      <path
         id="path64"
         d="m 698.656,2407.32 c 0,4.23 -1.66,8.27 -4.664,11.27 -2.969,2.97 -7,4.67 -11.234,4.67 -4.227,0 -8.266,-1.7 -11.278,-4.67 -2.964,-3 -4.664,-7.04 -4.664,-11.27 0,-4.23 1.7,-8.27 4.664,-11.28 3.012,-2.97 7.051,-4.67 11.278,-4.67 4.234,0 8.265,1.7 11.234,4.67 3.004,3.01 4.664,7.05 4.664,11.28 v 0"
         style="fill:#231f20;fill-opacity:1;fill-rule:evenodd;stroke:none"
         transform="matrix(0.13333333,0,0,-0.13333333,0,363.74667)" />
      <path
         id="path65"
         d="m 757.105,2407.32 c 0,4.23 -1.66,8.27 -4.664,11.27 -2.968,2.97 -7.003,4.67 -11.234,4.67 -4.23,0 -8.269,-1.7 -11.281,-4.67 -2.961,-3 -4.66,-7.04 -4.66,-11.27 0,-4.23 1.699,-8.27 4.66,-11.28 3.012,-2.97 7.051,-4.67 11.281,-4.67 4.231,0 8.266,1.7 11.234,4.67 3.004,3.01 4.664,7.05 4.664,11.28 v 0"
         style="fill:#231f20;fill-opacity:1;fill-rule:evenodd;stroke:none"
         transform="matrix(0.13333333,0,0,-0.13333333,0,363.74667)" />
      <path
         id="path66"
         d="m 815.551,2407.32 c 0,4.23 -1.66,8.27 -4.66,11.27 -2.969,2.97 -7.043,4.67 -11.239,4.67 -4.226,0 -8.304,-1.7 -11.269,-4.67 -3.012,-3 -4.672,-7.04 -4.672,-11.27 0,-4.23 1.66,-8.27 4.672,-11.28 2.965,-2.97 7.043,-4.67 11.269,-4.67 4.196,0 8.27,1.7 11.239,4.67 3,3.01 4.66,7.05 4.66,11.28 v 0"
         style="fill:#231f20;fill-opacity:1;fill-rule:evenodd;stroke:none"
         transform="matrix(0.13333333,0,0,-0.13333333,0,363.74667)" />
      <path
         id="path67"
         d="m 874,2407.32 c 0,4.23 -1.66,8.27 -4.664,11.27 -2.969,2.97 -7.039,4.67 -11.238,4.67 -4.227,0 -8.301,-1.7 -11.266,-4.67 -3.016,-3 -4.676,-7.04 -4.676,-11.27 0,-4.23 1.66,-8.27 4.676,-11.28 2.965,-2.97 7.039,-4.67 11.266,-4.67 4.199,0 8.269,1.7 11.238,4.67 3.004,3.01 4.664,7.05 4.664,11.28 v 0"
         style="fill:#231f20;fill-opacity:1;fill-rule:evenodd;stroke:none"
         transform="matrix(0.13333333,0,0,-0.13333333,0,363.74667)" />
      <path
         id="path68"
         d="m 932.445,2407.32 c 0,4.23 -1.66,8.27 -4.668,11.27 -2.964,2.97 -7.035,4.67 -11.234,4.67 -4.23,0 -8.301,-1.7 -11.266,-4.67 -3.011,-3 -4.668,-7.04 -4.668,-11.27 0,-4.23 1.657,-8.27 4.668,-11.28 2.965,-2.97 7.036,-4.67 11.266,-4.67 4.199,0 8.27,1.7 11.234,4.67 3.008,3.01 4.668,7.05 4.668,11.28 v 0"
         style="fill:#231f20;fill-opacity:1;fill-rule:evenodd;stroke:none"
         transform="matrix(0.13333333,0,0,-0.13333333,0,363.74667)" />
      <path
         id="path69"
         d="m 990.895,1882.44 c 0,4.24 -1.661,8.27 -4.668,11.27 -2.965,2.97 -7.039,4.63 -11.27,4.63 -4.195,0 -8.269,-1.66 -11.23,-4.63 -3.008,-3 -4.668,-7.03 -4.668,-11.27 0,-4.23 1.66,-8.26 4.668,-11.27 2.961,-2.97 7.035,-4.67 11.23,-4.67 4.231,0 8.305,1.7 11.27,4.67 3.007,3.01 4.668,7.04 4.668,11.27 v 0"
         style="fill:#231f20;fill-opacity:1;fill-rule:evenodd;stroke:none"
         transform="matrix(0.13333333,0,0,-0.13333333,0,363.74667)" />
      <path
         id="path70"
         d="m 1049.34,1882.44 c 0,4.24 -1.66,8.27 -4.67,11.27 -2.96,2.97 -7.03,4.63 -11.26,4.63 -4.2,0 -8.27,-1.66 -11.24,-4.63 -3,-3 -4.67,-7.03 -4.67,-11.27 0,-4.23 1.67,-8.26 4.67,-11.27 2.97,-2.97 7.04,-4.67 11.24,-4.67 4.23,0 8.3,1.7 11.26,4.67 3.01,3.01 4.67,7.04 4.67,11.27 v 0"
         style="fill:#231f20;fill-opacity:1;fill-rule:evenodd;stroke:none"
         transform="matrix(0.13333333,0,0,-0.13333333,0,363.74667)" />
      <path
         id="path71"
         d="m 1107.8,1882.44 c 0,4.24 -1.66,8.27 -4.67,11.27 -2.98,2.97 -7.05,4.63 -11.28,4.63 -4.19,0 -8.27,-1.66 -11.23,-4.63 -3.01,-3 -4.67,-7.03 -4.67,-11.27 0,-4.23 1.66,-8.26 4.67,-11.27 2.96,-2.97 7.04,-4.67 11.23,-4.67 4.23,0 8.3,1.7 11.28,4.67 3.01,3.01 4.67,7.04 4.67,11.27 v 0"
         style="fill:#231f20;fill-opacity:1;fill-rule:evenodd;stroke:none"
         transform="matrix(0.13333333,0,0,-0.13333333,0,363.74667)" />
      <path
         id="path72"
         d="m 1166.23,1882.44 c 0,4.24 -1.68,8.27 -4.66,11.27 -3.01,2.97 -7.04,4.63 -11.26,4.63 -4.25,0 -8.28,-1.66 -11.24,-4.63 -3,-3 -4.66,-7.03 -4.66,-11.27 0,-4.23 1.66,-8.26 4.66,-11.27 2.96,-2.97 6.99,-4.67 11.24,-4.67 4.22,0 8.25,1.7 11.26,4.67 2.98,3.01 4.66,7.04 4.66,11.27 v 0"
         style="fill:#231f20;fill-opacity:1;fill-rule:evenodd;stroke:none"
         transform="matrix(0.13333333,0,0,-0.13333333,0,363.74667)" />
      <path
         id="path73"
         d="m 1224.69,1882.44 c 0,4.24 -1.72,8.27 -4.67,11.27 -3,2.97 -7.04,4.63 -11.28,4.63 -4.22,0 -8.26,-1.66 -11.24,-4.63 -3,-3 -4.66,-7.03 -4.66,-11.27 0,-4.23 1.66,-8.26 4.66,-11.27 2.98,-2.97 7.02,-4.67 11.24,-4.67 4.24,0 8.28,1.7 11.28,4.67 2.95,3.01 4.67,7.04 4.67,11.27 v 0"
         style="fill:#231f20;fill-opacity:1;fill-rule:evenodd;stroke:none"
         transform="matrix(0.13333333,0,0,-0.13333333,0,363.74667)" />
      <path
         id="path74"
         d="m 1283.13,1882.44 c 0,4.24 -1.71,8.27 -4.67,11.27 -3.01,2.97 -7.04,4.63 -11.28,4.63 -4.23,0 -8.26,-1.66 -11.27,-4.63 -2.97,-3 -4.63,-7.03 -4.63,-11.27 0,-4.23 1.66,-8.26 4.63,-11.27 3.01,-2.97 7.04,-4.67 11.27,-4.67 4.24,0 8.27,1.7 11.28,4.67 2.96,3.01 4.67,7.04 4.67,11.27 v 0"
         style="fill:#231f20;fill-opacity:1;fill-rule:evenodd;stroke:none"
         transform="matrix(0.13333333,0,0,-0.13333333,0,363.74667)" />
      <path
         id="path75"
         d="m 1341.58,1882.44 c 0,4.24 -1.7,8.27 -4.67,11.27 -3.01,2.97 -7.04,4.63 -11.27,4.63 -4.23,0 -8.26,-1.66 -11.27,-4.63 -2.97,-3 -4.67,-7.03 -4.67,-11.27 0,-4.23 1.7,-8.26 4.67,-11.27 3.01,-2.97 7.04,-4.67 11.27,-4.67 4.23,0 8.26,1.7 11.27,4.67 2.97,3.01 4.67,7.04 4.67,11.27 v 0"
         style="fill:#231f20;fill-opacity:1;fill-rule:evenodd;stroke:none"
         transform="matrix(0.13333333,0,0,-0.13333333,0,363.74667)" />
      <path
         id="path76"
         d="m 1400.02,1882.44 c 0,4.24 -1.69,8.27 -4.66,11.27 -3.01,2.97 -7.04,4.63 -11.27,4.63 -4.23,0 -8.26,-1.66 -11.27,-4.63 -2.97,-3 -4.67,-7.03 -4.67,-11.27 0,-4.23 1.7,-8.26 4.67,-11.27 3.01,-2.97 7.04,-4.67 11.27,-4.67 4.23,0 8.26,1.7 11.27,4.67 2.97,3.01 4.66,7.04 4.66,11.27 v 0"
         style="fill:#231f20;fill-opacity:1;fill-rule:evenodd;stroke:none"
         transform="matrix(0.13333333,0,0,-0.13333333,0,363.74667)" />
      <path
         id="path77"
         d="m 1458.47,2407.32 c 0,4.23 -1.7,8.27 -4.67,11.27 -3,2.97 -7.04,4.67 -11.27,4.67 -4.22,0 -8.26,-1.7 -11.27,-4.67 -2.96,-3 -4.66,-7.04 -4.66,-11.27 0,-4.23 1.7,-8.27 4.66,-11.28 3.01,-2.97 7.05,-4.67 11.27,-4.67 4.23,0 8.27,1.7 11.27,4.67 2.97,3.01 4.67,7.05 4.67,11.28 v 0"
         style="fill:#231f20;fill-opacity:1;fill-rule:evenodd;stroke:none"
         transform="matrix(0.13333333,0,0,-0.13333333,0,363.74667)" />
      <path
         id="path78"
         d="m 1516.92,2407.32 c 0,4.23 -1.67,8.27 -4.67,11.27 -3.01,2.97 -7.04,4.67 -11.27,4.67 -4.23,0 -8.26,-1.7 -11.27,-4.67 -2.97,-3 -4.67,-7.04 -4.67,-11.27 0,-4.23 1.7,-8.27 4.67,-11.28 3.01,-2.97 7.04,-4.67 11.27,-4.67 4.23,0 8.26,1.7 11.27,4.67 3,3.01 4.67,7.05 4.67,11.28 v 0"
         style="fill:#231f20;fill-opacity:1;fill-rule:evenodd;stroke:none"
         transform="matrix(0.13333333,0,0,-0.13333333,0,363.74667)" />
      <path
         id="path79"
         d="m 1575.34,2407.32 c 0,4.23 -1.66,8.27 -4.61,11.27 -3.03,2.97 -7.06,4.67 -11.29,4.67 -4.24,0 -8.27,-1.7 -11.28,-4.67 -2.96,-3 -4.67,-7.04 -4.67,-11.27 0,-4.23 1.71,-8.27 4.67,-11.28 3.01,-2.97 7.04,-4.67 11.28,-4.67 4.23,0 8.26,1.7 11.29,4.67 2.95,3.01 4.61,7.05 4.61,11.28 v 0"
         style="fill:#231f20;fill-opacity:1;fill-rule:evenodd;stroke:none"
         transform="matrix(0.13333333,0,0,-0.13333333,0,363.74667)" />
      <path
         id="path80"
         d="m 1633.8,2407.32 c 0,4.23 -1.69,8.27 -4.69,11.27 -2.96,2.97 -7,4.67 -11.23,4.67 -4.23,0 -8.27,-1.7 -11.27,-4.67 -2.97,-3 -4.67,-7.04 -4.67,-11.27 0,-4.23 1.7,-8.27 4.67,-11.28 3,-2.97 7.04,-4.67 11.27,-4.67 4.23,0 8.27,1.7 11.23,4.67 3,3.01 4.69,7.05 4.69,11.28 v 0"
         style="fill:#231f20;fill-opacity:1;fill-rule:evenodd;stroke:none"
         transform="matrix(0.13333333,0,0,-0.13333333,0,363.74667)" />
      <path
         id="path81"
         d="m 1692.23,2407.32 c 0,4.23 -1.66,8.27 -4.67,11.27 -2.97,2.97 -7.04,4.67 -11.23,4.67 -4.24,0 -8.27,-1.7 -11.28,-4.67 -2.96,-3 -4.66,-7.04 -4.66,-11.27 0,-4.23 1.7,-8.27 4.66,-11.28 3.01,-2.97 7.04,-4.67 11.28,-4.67 4.19,0 8.26,1.7 11.23,4.67 3.01,3.01 4.67,7.05 4.67,11.28 v 0"
         style="fill:#231f20;fill-opacity:1;fill-rule:evenodd;stroke:none"
         transform="matrix(0.13333333,0,0,-0.13333333,0,363.74667)" />
      <path
         id="path82"
         d="m 1750.68,2407.32 c 0,4.23 -1.66,8.27 -4.67,11.27 -2.97,2.97 -7.04,4.67 -11.23,4.67 -4.24,0 -8.31,-1.7 -11.28,-4.67 -3.01,-3 -4.67,-7.04 -4.67,-11.27 0,-4.23 1.66,-8.27 4.67,-11.28 2.97,-2.97 7.04,-4.67 11.28,-4.67 4.19,0 8.26,1.7 11.23,4.67 3.01,3.01 4.67,7.05 4.67,11.28 v 0"
         style="fill:#231f20;fill-opacity:1;fill-rule:evenodd;stroke:none"
         transform="matrix(0.13333333,0,0,-0.13333333,0,363.74667)" />
      <path
         id="path83"
         d="m 1809.13,2407.32 c 0,4.23 -1.66,8.27 -4.67,11.27 -2.97,2.97 -7.04,4.67 -11.23,4.67 -4.24,0 -8.31,-1.7 -11.28,-4.67 -3.01,-3 -4.67,-7.04 -4.67,-11.27 0,-4.23 1.66,-8.27 4.67,-11.28 2.97,-2.97 7.04,-4.67 11.28,-4.67 4.19,0 8.26,1.7 11.23,4.67 3.01,3.01 4.67,7.05 4.67,11.28 v 0"
         style="fill:#231f20;fill-opacity:1;fill-rule:evenodd;stroke:none"
         transform="matrix(0.13333333,0,0,-0.13333333,0,363.74667)" />
      <path
         id="path84"
         d="m 1867.57,2407.32 c 0,4.23 -1.66,8.27 -4.66,11.27 -2.97,2.97 -7.05,4.67 -11.24,4.67 -4.23,0 -8.31,-1.7 -11.27,-4.67 -3.01,-3 -4.67,-7.04 -4.67,-11.27 0,-4.23 1.66,-8.27 4.67,-11.28 2.96,-2.97 7.04,-4.67 11.27,-4.67 4.19,0 8.27,1.7 11.24,4.67 3,3.01 4.66,7.05 4.66,11.28 v 0"
         style="fill:#231f20;fill-opacity:1;fill-rule:evenodd;stroke:none"
         transform="matrix(0.13333333,0,0,-0.13333333,0,363.74667)" />
      <path
         id="path85"
         d="m 53.6602,721.129 c 0,4.242 -1.6563,8.269 -4.668,11.281 -2.9609,2.969 -7.0352,4.66 -11.2695,4.66 -4.1914,0 -8.2579,-1.691 -11.2227,-4.66 -3.0078,-3.012 -4.668,-7.039 -4.668,-11.281 0,-4.219 1.6602,-8.25 4.668,-11.258 2.9648,-2.973 7.0313,-4.672 11.2227,-4.672 4.2343,0 8.3086,1.699 11.2695,4.672 3.0117,3.008 4.668,7.039 4.668,11.258 v 0"
         style="fill:#231f20;fill-opacity:1;fill-rule:evenodd;stroke:none"
         transform="matrix(0.13333333,0,0,-0.13333333,0,363.74667)" />
      <path
         id="path86"
         d="m 112.109,757.82 c 0,4.231 -1.66,8.27 -4.668,11.27 -2.964,2.961 -7.035,4.66 -11.2691,4.66 -4.1953,0 -8.2617,-1.699 -11.2266,-4.66 -3.0078,-3 -4.668,-7.039 -4.668,-11.27 0,-4.23 1.6602,-8.269 4.668,-11.269 2.9649,-2.973 7.0313,-4.672 11.2266,-4.672 4.2341,0 8.3051,1.699 11.2691,4.672 3.008,3 4.668,7.039 4.668,11.269 v 0"
         style="fill:#231f20;fill-opacity:1;fill-rule:evenodd;stroke:none"
         transform="matrix(0.13333333,0,0,-0.13333333,0,363.74667)" />
      <path
         id="path87"
         d="m 170.559,865.898 c 0,4.192 -1.664,8.274 -4.668,11.231 -2.965,3.012 -7.039,4.672 -11.274,4.672 -4.191,0 -8.273,-1.66 -11.222,-4.672 -3.008,-2.957 -4.668,-7.039 -4.668,-11.231 0,-4.238 1.66,-8.308 4.668,-11.277 2.949,-3 7.031,-4.66 11.222,-4.66 4.235,0 8.309,1.66 11.274,4.66 3.004,2.969 4.668,7.039 4.668,11.277 v 0"
         style="fill:#231f20;fill-opacity:1;fill-rule:evenodd;stroke:none"
         transform="matrix(0.13333333,0,0,-0.13333333,0,363.74667)" />
      <path
         id="path88"
         d="m 229.004,1027.9 c 0,4.24 -1.699,8.31 -4.668,11.27 -3.004,3.01 -7.035,4.67 -11.27,4.67 -4.195,0 -8.277,-1.66 -11.242,-4.67 -2.992,-2.96 -4.652,-7.03 -4.652,-11.27 0,-4.19 1.66,-8.28 4.652,-11.24 2.965,-2.99 7.047,-4.66 11.242,-4.66 4.235,0 8.266,1.67 11.27,4.66 2.969,2.96 4.668,7.05 4.668,11.24 v 0"
         style="fill:#231f20;fill-opacity:1;fill-rule:evenodd;stroke:none"
         transform="matrix(0.13333333,0,0,-0.13333333,0,363.74667)" />
      <path
         id="path89"
         d="m 287.449,1181.84 c 0,4.19 -1.695,8.27 -4.66,11.23 -3.008,3.01 -7.043,4.67 -11.273,4.67 -4.235,0 -8.274,-1.66 -11.243,-4.67 -2.992,-2.96 -4.664,-7.04 -4.664,-11.23 0,-4.24 1.672,-8.31 4.664,-11.28 2.969,-3.01 7.008,-4.67 11.243,-4.67 4.23,0 8.265,1.66 11.273,4.67 2.965,2.97 4.66,7.04 4.66,11.28 v 0"
         style="fill:#231f20;fill-opacity:1;fill-rule:evenodd;stroke:none"
         transform="matrix(0.13333333,0,0,-0.13333333,0,363.74667)" />
      <path
         id="path90"
         d="m 345.898,1201.74 c 0,4.19 -1.699,8.25 -4.664,11.22 -3.007,3.01 -7.035,4.67 -11.273,4.67 -4.234,0 -8.273,-1.66 -11.277,-4.67 -2.957,-2.97 -4.625,-7.03 -4.625,-11.22 0,-4.25 1.668,-8.28 4.625,-11.29 3.004,-3 7.043,-4.66 11.277,-4.66 4.238,0 8.266,1.66 11.273,4.66 2.965,3.01 4.664,7.04 4.664,11.29 v 0"
         style="fill:#231f20;fill-opacity:1;fill-rule:evenodd;stroke:none"
         transform="matrix(0.13333333,0,0,-0.13333333,0,363.74667)" />
      <path
         id="path91"
         d="m 404.352,956.191 c 0,4.219 -1.7,8.27 -4.668,11.27 -3.004,2.961 -7.032,4.641 -11.266,4.641 -4.238,0 -8.277,-1.68 -11.285,-4.641 -2.969,-3 -4.653,-7.051 -4.653,-11.27 0,-4.25 1.684,-8.281 4.653,-11.242 3.008,-3 7.047,-4.66 11.285,-4.66 4.234,0 8.262,1.66 11.266,4.66 2.968,2.961 4.668,6.992 4.668,11.242 v 0"
         style="fill:#231f20;fill-opacity:1;fill-rule:evenodd;stroke:none"
         transform="matrix(0.13333333,0,0,-0.13333333,0,363.74667)" />
      <path
         id="path92"
         d="m 462.797,496.922 c 0,4.238 -1.699,8.308 -4.668,11.277 -3,3.012 -7.031,4.672 -11.266,4.672 -4.23,0 -8.273,-1.66 -11.281,-4.672 -2.969,-2.969 -4.652,-7.039 -4.652,-11.277 0,-4.192 1.683,-8.262 4.652,-11.211 3.008,-3.031 7.051,-4.691 11.281,-4.691 4.235,0 8.266,1.66 11.266,4.691 2.969,2.949 4.668,7.019 4.668,11.211 v 0"
         style="fill:#231f20;fill-opacity:1;fill-rule:evenodd;stroke:none"
         transform="matrix(0.13333333,0,0,-0.13333333,0,363.74667)" />
      <path
         id="path93"
         d="m 521.246,222.512 c 0,4.187 -1.699,8.269 -4.664,11.226 -3.008,3.012 -7.035,4.672 -11.266,4.672 -4.23,0 -8.281,-1.66 -11.289,-4.672 -2.964,-2.957 -4.668,-7.039 -4.668,-11.226 0,-4.231 1.704,-8.313 4.668,-11.282 3.008,-2.992 7.059,-4.66 11.289,-4.66 4.231,0 8.258,1.668 11.266,4.66 2.965,2.969 4.664,7.051 4.664,11.282 v 0"
         style="fill:#231f20;fill-opacity:1;fill-rule:evenodd;stroke:none"
         transform="matrix(0.13333333,0,0,-0.13333333,0,363.74667)" />
      <path
         id="path94"
         d="m 579.691,564.719 c 0,4.23 -1.699,8.261 -4.664,11.269 -3.007,2.973 -7.035,4.672 -11.261,4.672 -4.235,0 -8.278,-1.699 -11.289,-4.672 -2.965,-3.008 -4.668,-7.039 -4.668,-11.269 0,-4.231 1.703,-8.258 4.668,-11.27 3.011,-2.969 7.054,-4.668 11.289,-4.668 4.226,0 8.254,1.699 11.261,4.668 2.965,3.012 4.664,7.039 4.664,11.27 v 0"
         style="fill:#231f20;fill-opacity:1;fill-rule:evenodd;stroke:none"
         transform="matrix(0.13333333,0,0,-0.13333333,0,363.74667)" />
      <path
         id="path95"
         d="m 638.105,1160.92 c 0,4.19 -1.66,8.27 -4.625,11.23 -3.007,3.01 -7.035,4.67 -11.261,4.67 -4.235,0 -8.278,-1.66 -11.289,-4.67 -2.965,-2.96 -4.664,-7.04 -4.664,-11.23 0,-4.24 1.699,-8.31 4.664,-11.28 3.011,-3.01 7.054,-4.67 11.289,-4.67 4.226,0 8.254,1.66 11.261,4.67 2.965,2.97 4.625,7.04 4.625,11.28 v 0"
         style="fill:#231f20;fill-opacity:1;fill-rule:evenodd;stroke:none"
         transform="matrix(0.13333333,0,0,-0.13333333,0,363.74667)" />
      <path
         id="path96"
         d="m 696.555,966.91 c 0,4.231 -1.66,8.25 -4.664,11.27 -2.969,2.968 -6.996,4.672 -11.227,4.672 -4.234,0 -8.277,-1.704 -11.289,-4.672 -2.965,-3.02 -4.664,-7.039 -4.664,-11.27 0,-4.242 1.699,-8.262 4.664,-11.262 3.012,-2.98 7.055,-4.648 11.289,-4.648 4.231,0 8.258,1.668 11.227,4.648 3.004,3 4.664,7.02 4.664,11.262 v 0"
         style="fill:#231f20;fill-opacity:1;fill-rule:evenodd;stroke:none"
         transform="matrix(0.13333333,0,0,-0.13333333,0,363.74667)" />
      <path
         id="path97"
         d="m 755,260.441 c 0,4.231 -1.66,8.27 -4.664,11.27 -2.969,2.969 -6.996,4.668 -11.227,4.668 -4.23,0 -8.273,-1.699 -11.289,-4.668 -2.961,-3 -4.66,-7.039 -4.66,-11.27 0,-4.23 1.699,-8.269 4.66,-11.281 3.016,-2.949 7.059,-4.621 11.289,-4.621 4.231,0 8.258,1.672 11.227,4.621 3.004,3.012 4.664,7.051 4.664,11.281 v 0"
         style="fill:#231f20;fill-opacity:1;fill-rule:evenodd;stroke:none"
         transform="matrix(0.13333333,0,0,-0.13333333,0,363.74667)" />
      <path
         id="path98"
         d="m 813.445,660.07 c 0,4.239 -1.66,8.309 -4.66,11.282 -2.969,3 -7.039,4.668 -11.226,4.668 -4.235,0 -8.317,-1.668 -11.282,-4.668 -3.011,-2.973 -4.672,-7.043 -4.672,-11.282 0,-4.191 1.661,-8.261 4.672,-11.23 2.965,-3.012 7.047,-4.668 11.282,-4.668 4.187,0 8.257,1.656 11.226,4.668 3,2.969 4.66,7.039 4.66,11.23 v 0"
         style="fill:#231f20;fill-opacity:1;fill-rule:evenodd;stroke:none"
         transform="matrix(0.13333333,0,0,-0.13333333,0,363.74667)" />
      <path
         id="path99"
         d="m 871.895,1198.29 c 0,4.21 -1.653,8.31 -4.665,11.27 -2.968,3.02 -7.035,4.68 -11.238,4.68 -4.219,0 -8.301,-1.66 -11.265,-4.68 -3.012,-2.96 -4.672,-7.06 -4.672,-11.27 0,-4.19 1.66,-8.27 4.672,-11.24 2.964,-3 7.046,-4.66 11.265,-4.66 4.203,0 8.27,1.66 11.238,4.66 3.012,2.97 4.665,7.05 4.665,11.24 v 0"
         style="fill:#231f20;fill-opacity:1;fill-rule:evenodd;stroke:none"
         transform="matrix(0.13333333,0,0,-0.13333333,0,363.74667)" />
      <path
         id="path100"
         d="m 930.344,343.559 c 0,4.23 -1.656,8.269 -4.668,11.269 -2.965,2.973 -7.031,4.672 -11.238,4.672 -4.219,0 -8.301,-1.699 -11.27,-4.672 -3.008,-3 -4.66,-7.039 -4.66,-11.269 0,-4.231 1.652,-8.258 4.66,-11.27 2.969,-2.969 7.051,-4.668 11.27,-4.668 4.207,0 8.273,1.699 11.238,4.668 3.012,3.012 4.668,7.039 4.668,11.27 v 0"
         style="fill:#231f20;fill-opacity:1;fill-rule:evenodd;stroke:none"
         transform="matrix(0.13333333,0,0,-0.13333333,0,363.74667)" />
      <path
         id="path101"
         d="m 988.789,721.129 c 0,4.242 -1.66,8.269 -4.668,11.281 -2.965,2.969 -7.035,4.66 -11.269,4.66 -4.196,0 -8.266,-1.691 -11.235,-4.66 -3.004,-3.012 -4.664,-7.039 -4.664,-11.281 0,-4.219 1.66,-8.25 4.664,-11.258 2.969,-2.973 7.039,-4.672 11.235,-4.672 4.234,0 8.304,1.699 11.269,4.672 3.008,3.008 4.668,7.039 4.668,11.258 v 0"
         style="fill:#231f20;fill-opacity:1;fill-rule:evenodd;stroke:none"
         transform="matrix(0.13333333,0,0,-0.13333333,0,363.74667)" />
      <path
         id="path102"
         d="m 1047.24,1046.83 c 0,4.23 -1.66,8.27 -4.67,11.26 -2.97,2.98 -7.04,4.66 -11.26,4.66 -4.21,0 -8.28,-1.68 -11.25,-4.66 -3,-2.99 -4.66,-7.03 -4.66,-11.26 0,-4.24 1.66,-8.27 4.66,-11.28 2.97,-2.96 7.04,-4.62 11.25,-4.62 4.22,0 8.29,1.66 11.26,4.62 3.01,3.01 4.67,7.04 4.67,11.28 v 0"
         style="fill:#231f20;fill-opacity:1;fill-rule:evenodd;stroke:none"
         transform="matrix(0.13333333,0,0,-0.13333333,0,363.74667)" />
      <path
         id="path103"
         d="m 1105.69,243.941 c 0,4.239 -1.67,8.309 -4.67,11.278 -2.97,3 -7.04,4.672 -11.27,4.672 -4.2,0 -8.27,-1.672 -11.24,-4.672 -3,-2.969 -4.66,-7.039 -4.66,-11.278 0,-4.191 1.66,-8.261 4.66,-11.23 2.97,-3.012 7.04,-4.672 11.24,-4.672 4.23,0 8.3,1.66 11.27,4.672 3,2.969 4.67,7.039 4.67,11.23 v 0"
         style="fill:#231f20;fill-opacity:1;fill-rule:evenodd;stroke:none"
         transform="matrix(0.13333333,0,0,-0.13333333,0,363.74667)" />
      <path
         id="path104"
         d="m 1164.14,1216.02 c 0,4.23 -1.71,8.26 -4.67,11.27 -3.01,2.97 -7.04,4.67 -11.28,4.67 -4.23,0 -8.26,-1.7 -11.23,-4.67 -3.01,-3.01 -4.67,-7.04 -4.67,-11.27 0,-4.24 1.66,-8.27 4.67,-11.25 2.97,-2.98 7,-4.67 11.23,-4.67 4.24,0 8.27,1.69 11.28,4.67 2.96,2.98 4.67,7.01 4.67,11.25 v 0"
         style="fill:#231f20;fill-opacity:1;fill-rule:evenodd;stroke:none"
         transform="matrix(0.13333333,0,0,-0.13333333,0,363.74667)" />
      <path
         id="path105"
         d="m 1222.58,260.441 c 0,4.231 -1.71,8.27 -4.66,11.27 -3.01,2.969 -7.05,4.668 -11.28,4.668 -4.23,0 -8.27,-1.699 -11.23,-4.668 -3.01,-3 -4.67,-7.039 -4.67,-11.27 0,-4.23 1.66,-8.269 4.67,-11.281 2.96,-2.949 7,-4.621 11.23,-4.621 4.23,0 8.27,1.672 11.28,4.621 2.95,3.012 4.66,7.051 4.66,11.281 v 0"
         style="fill:#231f20;fill-opacity:1;fill-rule:evenodd;stroke:none"
         transform="matrix(0.13333333,0,0,-0.13333333,0,363.74667)" />
      <path
         id="path106"
         d="m 1281.03,1154.99 c 0,4.24 -1.71,8.26 -4.67,11.26 -3.01,2.98 -7.04,4.67 -11.28,4.67 -4.23,0 -8.26,-1.69 -11.27,-4.67 -2.97,-3 -4.63,-7.02 -4.63,-11.26 0,-4.22 1.66,-8.25 4.63,-11.27 3.01,-2.96 7.04,-4.66 11.27,-4.66 4.24,0 8.27,1.7 11.28,4.66 2.96,3.02 4.67,7.05 4.67,11.27 v 0"
         style="fill:#231f20;fill-opacity:1;fill-rule:evenodd;stroke:none"
         transform="matrix(0.13333333,0,0,-0.13333333,0,363.74667)" />
      <path
         id="path107"
         d="m 1339.48,281.359 c 0,4.231 -1.7,8.301 -4.67,11.27 -3.01,3.012 -7.04,4.672 -11.27,4.672 -4.23,0 -8.26,-1.66 -11.27,-4.672 -2.97,-2.969 -4.67,-7.039 -4.67,-11.27 0,-4.199 1.7,-8.269 4.67,-11.238 3.01,-3 7.04,-4.672 11.27,-4.672 4.23,0 8.26,1.672 11.27,4.672 2.97,2.969 4.67,7.039 4.67,11.238 v 0"
         style="fill:#231f20;fill-opacity:1;fill-rule:evenodd;stroke:none"
         transform="matrix(0.13333333,0,0,-0.13333333,0,363.74667)" />
      <path
         id="path108"
         d="m 1397.92,1194.59 c 0,4.22 -1.69,8.29 -4.66,11.29 -3.01,2.95 -7.04,4.67 -11.27,4.67 -4.23,0 -8.26,-1.72 -11.27,-4.67 -2.97,-3 -4.67,-7.07 -4.67,-11.29 0,-4.23 1.7,-8.26 4.67,-11.27 3.01,-2.96 7.04,-4.62 11.27,-4.62 4.23,0 8.26,1.66 11.27,4.62 2.97,3.01 4.66,7.04 4.66,11.27 v 0"
         style="fill:#231f20;fill-opacity:1;fill-rule:evenodd;stroke:none"
         transform="matrix(0.13333333,0,0,-0.13333333,0,363.74667)" />
      <path
         id="path109"
         d="m 1456.37,222.512 c 0,4.187 -1.7,8.269 -4.67,11.226 -3,3.012 -7.04,4.672 -11.27,4.672 -4.22,0 -8.26,-1.66 -11.26,-4.672 -2.97,-2.957 -4.67,-7.039 -4.67,-11.226 0,-4.231 1.7,-8.313 4.67,-11.282 3,-2.992 7.04,-4.66 11.26,-4.66 4.23,0 8.27,1.668 11.27,4.66 2.97,2.969 4.67,7.051 4.67,11.282 v 0"
         style="fill:#231f20;fill-opacity:1;fill-rule:evenodd;stroke:none"
         transform="matrix(0.13333333,0,0,-0.13333333,0,363.74667)" />
      <path
         id="path110"
         d="m 1514.82,1166.54 c 0,4.24 -1.69,8.28 -4.67,11.26 -3.01,2.98 -7.04,4.66 -11.27,4.66 -4.23,0 -8.26,-1.68 -11.27,-4.66 -2.97,-2.98 -4.67,-7.02 -4.67,-11.26 0,-4.23 1.7,-8.25 4.67,-11.27 3.01,-2.97 7.04,-4.67 11.27,-4.67 4.23,0 8.26,1.7 11.27,4.67 2.98,3.02 4.67,7.04 4.67,11.27 v 0"
         style="fill:#231f20;fill-opacity:1;fill-rule:evenodd;stroke:none"
         transform="matrix(0.13333333,0,0,-0.13333333,0,363.74667)" />
      <path
         id="path111"
         d="m 1573.24,486.09 c 0,4.199 -1.66,8.269 -4.62,11.238 -3.02,3 -7.05,4.672 -11.28,4.672 -4.24,0 -8.27,-1.672 -11.28,-4.672 -2.96,-2.969 -4.67,-7.039 -4.67,-11.238 0,-4.231 1.71,-8.301 4.67,-11.27 3.01,-3.011 7.04,-4.672 11.28,-4.672 4.23,0 8.26,1.661 11.28,4.672 2.96,2.969 4.62,7.039 4.62,11.27 v 0"
         style="fill:#231f20;fill-opacity:1;fill-rule:evenodd;stroke:none"
         transform="matrix(0.13333333,0,0,-0.13333333,0,363.74667)" />
      <path
         id="path112"
         d="m 1631.69,588.121 c 0,4.238 -1.68,8.309 -4.67,11.277 -2.97,3.012 -7.01,4.672 -11.24,4.672 -4.23,0 -8.27,-1.66 -11.27,-4.672 -2.97,-2.968 -4.67,-7.039 -4.67,-11.277 0,-4.191 1.7,-8.262 4.67,-11.23 3,-3.012 7.04,-4.672 11.27,-4.672 4.23,0 8.27,1.66 11.24,4.672 2.99,2.968 4.67,7.039 4.67,11.23 v 0"
         style="fill:#231f20;fill-opacity:1;fill-rule:evenodd;stroke:none"
         transform="matrix(0.13333333,0,0,-0.13333333,0,363.74667)" />
      <path
         id="path113"
         d="m 1690.13,1181.84 c 0,4.19 -1.66,8.27 -4.67,11.23 -2.96,3.01 -7.04,4.67 -11.23,4.67 -4.23,0 -8.27,-1.66 -11.28,-4.67 -2.95,-2.96 -4.66,-7.04 -4.66,-11.23 0,-4.24 1.71,-8.31 4.66,-11.28 3.01,-3.01 7.05,-4.67 11.28,-4.67 4.19,0 8.27,1.66 11.23,4.67 3.01,2.97 4.67,7.04 4.67,11.28 v 0"
         style="fill:#231f20;fill-opacity:1;fill-rule:evenodd;stroke:none"
         transform="matrix(0.13333333,0,0,-0.13333333,0,363.74667)" />
      <path
         id="path114"
         d="m 1748.58,328.031 c 0,4.231 -1.66,8.27 -4.67,11.27 -2.97,2.969 -7.04,4.668 -11.23,4.668 -4.24,0 -8.31,-1.699 -11.28,-4.668 -3.01,-3 -4.67,-7.039 -4.67,-11.27 0,-4.23 1.66,-8.261 4.67,-11.269 2.97,-2.973 7.04,-4.672 11.28,-4.672 4.19,0 8.26,1.699 11.23,4.672 3.01,3.008 4.67,7.039 4.67,11.269 v 0"
         style="fill:#231f20;fill-opacity:1;fill-rule:evenodd;stroke:none"
         transform="matrix(0.13333333,0,0,-0.13333333,0,363.74667)" />
      <path
         id="path115"
         d="m 1807.03,576.379 c 0,4.23 -1.66,8.262 -4.67,11.269 -2.97,2.973 -7.04,4.672 -11.23,4.672 -4.24,0 -8.31,-1.699 -11.28,-4.672 -3.01,-3.007 -4.67,-7.039 -4.67,-11.269 0,-4.238 1.66,-8.27 4.67,-11.277 2.97,-2.961 7.04,-4.633 11.28,-4.633 4.19,0 8.26,1.672 11.23,4.633 3.01,3.007 4.67,7.039 4.67,11.277 v 0"
         style="fill:#231f20;fill-opacity:1;fill-rule:evenodd;stroke:none"
         transform="matrix(0.13333333,0,0,-0.13333333,0,363.74667)" />
      <path
         id="path116"
         d="m 1865.47,1218.42 c 0,4.23 -1.67,8.26 -4.66,11.27 -2.97,2.96 -7.05,4.67 -11.24,4.67 -4.23,0 -8.31,-1.71 -11.27,-4.67 -3.01,-3.01 -4.67,-7.04 -4.67,-11.27 0,-4.23 1.66,-8.26 4.67,-11.27 2.96,-2.97 7.04,-4.67 11.27,-4.67 4.19,0 8.27,1.7 11.24,4.67 2.99,3.01 4.66,7.04 4.66,11.27 v 0"
         style="fill:#231f20;fill-opacity:1;fill-rule:evenodd;stroke:none"
         transform="matrix(0.13333333,0,0,-0.13333333,0,363.74667)" />
    </g>
  </g>
</svg>
