<?xml version="1.0" encoding="UTF-8" standalone="no"?>
<!-- Created with Inkscape (http://www.inkscape.org/) -->

<svg
   version="1.1"
   id="svg1"
   width="176.66667"
   height="176.66667"
   viewBox="0 0 176.66667 176.66667"
   sodipodi:docname="pha08f40.eps"
   xmlns:inkscape="http://www.inkscape.org/namespaces/inkscape"
   xmlns:sodipodi="http://sodipodi.sourceforge.net/DTD/sodipodi-0.dtd"
   xmlns="http://www.w3.org/2000/svg"
   xmlns:svg="http://www.w3.org/2000/svg">
  <defs
     id="defs1" />
  <sodipodi:namedview
     id="namedview1"
     pagecolor="#ffffff"
     bordercolor="#000000"
     borderopacity="0.25"
     inkscape:showpageshadow="2"
     inkscape:pageopacity="0.0"
     inkscape:pagecheckerboard="0"
     inkscape:deskcolor="#d1d1d1">
    <inkscape:page
       x="0"
       y="0"
       inkscape:label="1"
       id="page1"
       width="176.66667"
       height="176.66667"
       margin="0"
       bleed="0" />
  </sodipodi:namedview>
  <g
     id="g1"
     inkscape:groupmode="layer"
     inkscape:label="1">
    <g
       id="group-R5">
      <path
         id="path2"
         d="M 992.141,332.5 H 661.195 V 659.984 H 992.141 V 332.5"
         style="fill:#e5e4e4;fill-opacity:1;fill-rule:nonzero;stroke:none"
         transform="matrix(0.13333333,0,0,-0.13333333,0,176.66667)" />
      <path
         id="path3"
         d="m 4.1015669,-1.6062969 v -0.421875 H 3.2343794 v -3.65625 H 2.8828169 c -0.9257813,1.21875 -1.8515625,2.5546875 -2.70703127,3.8320313 v 0.2460937 H 2.5195356 v 0.65625003 c 0,0.5859375 -0.035156,0.64453125 -0.8203125,0.703125 V -8.28125e-4 H 4.0078169 V -0.24692187 C 3.2812544,-0.30551562 3.2343794,-0.35239062 3.2343794,-0.95004687 V -1.6062969 Z M 2.5195356,-2.0281719 H 0.75000438 C 1.3359419,-3.0242656 1.9218794,-3.8797344 2.5078169,-4.6766094 h 0.011719 z m 2.6455078,0.8671875 c -0.2109375,0 -0.4335937,0.140625 -0.4335937,0.36328128 0,0.15234375 0.070312,0.22265625 0.1171875,0.234375 0.3046875,0.0703125 0.5625,0.26953125 0.5625,0.59765625 0,0.33984375 -0.2578125,0.57421875 -0.6914063,0.76171875 l 0.09375,0.25781252 c 0.5507813,-0.16406252 1.1835938,-0.55078127 1.1835938,-1.24218752 0,-0.6328125 -0.5039063,-0.97265628 -0.8320313,-0.97265628 z m 4.6201172,-3.7851562 h 2.0976564 l 0.234375,-0.5859375 -0.05859,-0.070312 H 9.4921919 l -0.3515625,2.7421875 c 0.2109375,-0.082031 0.5507812,-0.1875 0.9257816,-0.1875 0.984375,0 1.464843,0.5742187 1.464843,1.359375 0,0.6796875 -0.375,1.33593748 -1.136718,1.33593748 -0.5507816,0 -0.9140629,-0.29296875 -1.1132816,-0.45703125 -0.082031,-0.0703125 -0.1523438,-0.0585938 -0.234375,0 -0.1054688,0.09375 -0.1875,0.2109375 -0.1875,0.29296875 -0.023437,0.10546875 0.023437,0.1875 0.140625,0.3046875 0.1289062,0.12890625 0.515625,0.31640625 0.9257812,0.31640625 0.4804684,-0.01171875 1.0781254,-0.24609375 1.5703124,-0.6328125 0.550781,-0.45703125 0.796875,-0.96093753 0.796875,-1.51171873 0,-0.7382813 -0.585937,-1.5117188 -1.734375,-1.5117188 -0.246094,0 -0.6679686,0.140625 -1.0078124,0.2695313 z m 24.3896484,1.8632812 c 0.269531,-1.2539062 1.113281,-1.828125 1.664063,-2.0859375 0.328125,-0.1523437 0.679687,-0.2578125 0.972656,-0.3164062 l -0.05859,-0.28125 c -0.363281,0.058594 -0.796875,0.1640625 -1.148437,0.28125 -0.960938,0.3515625 -2.332032,1.3710937 -2.332032,3.3398437 0,1.38281253 0.796875,2.25000003 1.851563,2.25000003 1.078125,0 1.839844,-0.90234375 1.839844,-1.98046873 0,-0.9257813 -0.65625,-1.6640625 -1.617188,-1.6640625 -0.175781,0 -0.363281,0.070312 -0.5625,0.1523437 z m 0.820313,0.046875 c 0.820312,0 1.195312,0.7382813 1.195312,1.4882813 0,0.59765623 -0.210937,1.34765623 -0.914062,1.34765623 -0.738282,0 -1.195313,-0.87890623 -1.195313,-1.95703123 0,-0.234375 0.01172,-0.4570313 0.04687,-0.6210938 0.222656,-0.1171875 0.527344,-0.2578125 0.867188,-0.2578125 z m 3.111328,1.875 c -0.210938,0 -0.433594,0.140625 -0.433594,0.36328128 0,0.15234375 0.07031,0.22265625 0.117187,0.234375 0.304688,0.0703125 0.5625,0.26953125 0.5625,0.59765625 0,0.33984375 -0.257812,0.57421875 -0.691406,0.76171875 l 0.09375,0.25781252 c 0.550781,-0.16406252 1.183594,-0.55078127 1.183594,-1.24218752 0,-0.6328125 -0.503906,-0.97265628 -0.832031,-0.97265628 z m 7.271484,-4.4414062 H 41.94434 c -0.03516,0.3867187 -0.08203,0.8320312 -0.164062,1.3242187 h 0.257812 c 0.222657,-0.5859375 0.269532,-0.6679687 0.867188,-0.6679687 h 1.945312 c -0.714843,1.5585937 -1.722656,3.421875 -2.671875,4.95703123 l 0.05859,0.09375 0.667969,-0.08203125 C 43.772465,-1.8406719 44.604497,-3.6687969 45.448247,-5.4969219 Z M 2.1562544,26.753078 c -1.34765627,0 -1.83984377,1.605469 -1.83984377,2.917969 0,1.417969 0.48046875,2.90625 1.83984377,2.90625 1.359375,0 1.828125,-1.59375 1.828125,-2.917969 0,-1.382812 -0.46875,-2.90625 -1.828125,-2.90625 z m 0,0.304688 c 0.8085937,0 1.03125,1.324218 1.03125,2.601562 0,1.265625 -0.2226563,2.613281 -1.03125,2.613281 -0.7734375,0 -1.0429688,-1.359375 -1.0429688,-2.613281 0,-1.253906 0.2226563,-2.601562 1.0429688,-2.601562 z m 3.008789,4.253906 c -0.2109375,0 -0.4335937,0.140625 -0.4335937,0.363281 0,0.152344 0.070312,0.222656 0.1171875,0.234375 0.3046875,0.07031 0.5625,0.269531 0.5625,0.597656 0,0.339844 -0.2578125,0.574219 -0.6914063,0.761719 l 0.09375,0.257813 c 0.5507813,-0.164063 1.1835938,-0.550782 1.1835938,-1.242188 0,-0.632812 -0.5039063,-0.972656 -0.8320313,-0.972656 z m 6.7060546,1.160156 v -0.246094 c -0.820312,-0.05859 -0.878906,-0.128906 -0.878906,-0.785156 v -4.6875 c -0.492188,0.199219 -1.0195314,0.375 -1.5937501,0.46875 v 0.210938 l 0.4335937,0.01172 c 0.3867184,0.02344 0.4218754,0.07031 0.4218754,0.539063 v 3.457031 c 0,0.65625 -0.03516,0.726563 -0.8554691,0.785156 v 0.246094 z m 24.776367,-1.265625 c -0.269531,0.574219 -0.386718,0.609375 -0.867187,0.609375 h -1.6875 l 1.277344,-1.335937 c 0.832031,-0.890625 1.195312,-1.417969 1.195312,-2.203125 0,-0.949219 -0.726562,-1.523438 -1.511719,-1.523438 -0.527343,0 -0.949218,0.234375 -1.21875,0.539063 l -0.515625,0.726562 0.199219,0.175781 c 0.234375,-0.351562 0.609375,-0.832031 1.230469,-0.832031 0.65625,0 1.054687,0.433594 1.054687,1.195313 0,0.773437 -0.5625,1.511718 -1.125,2.179687 -0.445312,0.515625 -0.949218,1.03125 -1.453125,1.523438 v 0.210937 h 3.363282 c 0.105468,-0.410156 0.199218,-0.796875 0.316406,-1.183594 z m 1.458985,0.105469 c -0.210938,0 -0.433594,0.140625 -0.433594,0.363281 0,0.152344 0.07031,0.222656 0.117187,0.234375 0.304688,0.07031 0.5625,0.269531 0.5625,0.597656 0,0.339844 -0.257812,0.574219 -0.691406,0.761719 l 0.09375,0.257813 c 0.550781,-0.164063 1.183594,-0.550782 1.183594,-1.242188 0,-0.632812 -0.503906,-0.972656 -0.832031,-0.972656 z m 4.013672,-3.304688 c 0.222656,-0.328125 0.585937,-0.714843 1.078125,-0.714843 0.480468,0 0.855468,0.292968 0.855468,0.855468 0,0.65625 -0.609375,1.007813 -1.429687,1.277344 l 0.05859,0.257813 c 0.140625,-0.04687 0.363281,-0.105469 0.574218,-0.105469 0.515625,0 1.148438,0.339844 1.148438,1.171875 0,0.890625 -0.457031,1.359375 -1.089844,1.359375 -0.515625,0 -0.890625,-0.246094 -1.125,-0.457031 -0.07031,-0.05859 -0.140625,-0.04687 -0.210937,0 -0.08203,0.05859 -0.199219,0.175781 -0.210938,0.292968 -0.01172,0.117188 0.02344,0.210938 0.152344,0.328125 0.117187,0.105469 0.480469,0.304688 0.890625,0.304688 0.65625,0 2.367187,-0.667969 2.367187,-2.121094 0,-0.65625 -0.46875,-1.21875 -1.253906,-1.371094 v -0.01172 c 0.257813,-0.1875 0.480469,-0.339844 0.609375,-0.492188 0.175781,-0.164062 0.28125,-0.375 0.28125,-0.632812 0,-0.691407 -0.527344,-1.195313 -1.347656,-1.195313 -0.46875,0 -0.890625,0.234375 -1.136719,0.503906 l -0.398437,0.574219 z m 26.255859,-1.253906 c -0.960938,0 -1.59375,0.726563 -1.59375,1.476563 0,0.632812 0.386719,1.066406 0.972656,1.394531 -0.304687,0.199219 -0.65625,0.445312 -0.796875,0.574219 -0.199219,0.199218 -0.398437,0.445312 -0.398437,0.855468 0,0.972657 0.761718,1.523438 1.722656,1.523438 0.761719,0 1.78125,-0.574219 1.78125,-1.628906 0,-0.785157 -0.5625,-1.207032 -1.183594,-1.558594 0.398438,-0.28125 0.644531,-0.503906 0.703125,-0.585938 0.175781,-0.1875 0.269531,-0.457031 0.269531,-0.714843 0,-0.726563 -0.621093,-1.335938 -1.476562,-1.335938 z m -0.08203,0.292969 c 0.410156,0 0.878906,0.328125 0.878906,1.089844 0,0.539062 -0.246094,0.867187 -0.550781,1.113281 -0.632813,-0.316406 -1.171875,-0.609375 -1.171875,-1.277344 0,-0.457031 0.304687,-0.925781 0.84375,-0.925781 z m 0.08203,5.25 c -0.574219,0 -1.101563,-0.46875 -1.101563,-1.289063 0,-0.492187 0.304688,-0.949218 0.738282,-1.230468 0.691406,0.351562 1.335937,0.738281 1.335937,1.40625 0,0.691406 -0.421875,1.113281 -0.972656,1.113281 z m 2.938477,-0.984375 c -0.210938,0 -0.433594,0.140625 -0.433594,0.363281 0,0.152344 0.07031,0.222656 0.117187,0.234375 0.304688,0.07031 0.5625,0.269531 0.5625,0.597656 0,0.339844 -0.257812,0.574219 -0.691406,0.761719 l 0.09375,0.257813 c 0.550781,-0.164063 1.183594,-0.550782 1.183594,-1.242188 0,-0.632812 -0.503906,-0.972656 -0.832031,-0.972656 z m 5.43164,-4.558594 c -1.160156,0 -1.839844,1.054688 -1.839844,1.921875 0,0.949219 0.65625,1.640625 1.617188,1.640625 0.164062,0 0.339844,-0.03516 0.539062,-0.140625 l 0.597657,-0.316406 c -0.292969,1.359375 -1.277344,2.261719 -2.566407,2.472656 l 0.04687,0.28125 c 0.222657,0 0.773438,-0.09375 1.265625,-0.292969 1.207032,-0.492187 2.121094,-1.652343 2.121094,-3.316406 0,-1.21875 -0.65625,-2.25 -1.78125,-2.25 z m -0.117187,0.304688 c 0.867187,0 1.101562,1.113281 1.101562,1.898437 0,0.1875 0,0.398438 -0.03516,0.597656 -0.1875,0.140625 -0.492188,0.257813 -0.808594,0.257813 -0.75,0 -1.207031,-0.65625 -1.207031,-1.453125 0,-0.527344 0.257812,-1.300781 0.949219,-1.300781 z m 23.815429,5.414062 v -0.246094 c -0.820312,-0.05859 -0.878906,-0.128906 -0.878906,-0.785156 v -4.6875 c -0.492187,0.199219 -1.019531,0.375 -1.59375,0.46875 v 0.210938 l 0.433594,0.01172 c 0.386719,0.02344 0.421875,0.07031 0.421875,0.539063 v 3.457031 c 0,0.65625 -0.03516,0.726563 -0.855469,0.785156 v 0.246094 z m 3.01758,-5.71875 c -1.34766,0 -1.83985,1.605469 -1.83985,2.917969 0,1.417969 0.48047,2.90625 1.83985,2.90625 1.35937,0 1.82812,-1.59375 1.82812,-2.917969 0,-1.382812 -0.46875,-2.90625 -1.82812,-2.90625 z m 0,0.304688 c 0.80859,0 1.03125,1.324218 1.03125,2.601562 0,1.265625 -0.22266,2.613281 -1.03125,2.613281 -0.77344,0 -1.04297,-1.359375 -1.04297,-2.613281 0,-1.253906 0.22266,-2.601562 1.04297,-2.601562 z m 3.00879,4.253906 c -0.21094,0 -0.4336,0.140625 -0.4336,0.363281 0,0.152344 0.0703,0.222656 0.11719,0.234375 0.30469,0.07031 0.5625,0.269531 0.5625,0.597656 0,0.339844 -0.25781,0.574219 -0.6914,0.761719 l 0.0937,0.257813 c 0.55078,-0.164063 1.18359,-0.550782 1.18359,-1.242188 0,-0.632812 -0.50391,-0.972656 -0.83203,-0.972656 z m 6.70898,1.160156 v -0.246094 c -0.82031,-0.05859 -0.8789,-0.128906 -0.8789,-0.785156 v -4.6875 c -0.49219,0.199219 -1.01954,0.375 -1.59375,0.46875 v 0.210938 l 0.43359,0.01172 c 0.38672,0.02344 0.42187,0.07031 0.42187,0.539063 v 3.457031 c 0,0.65625 -0.0352,0.726563 -0.85546,0.785156 v 0.246094 z m 4.31836,0 v -0.246094 c -0.82031,-0.05859 -0.8789,-0.128906 -0.8789,-0.785156 v -4.6875 c -0.49219,0.199219 -1.01954,0.375 -1.59375,0.46875 v 0.210938 l 0.43359,0.01172 c 0.38672,0.02344 0.42187,0.07031 0.42187,0.539063 v 3.457031 c 0,0.65625 -0.0352,0.726563 -0.85546,0.785156 V 32.47183 Z M 98.428715,-0.89438281 c 0.292969,0 0.503907,-0.19921879 0.503907,-0.51562499 0,-0.2929688 -0.210938,-0.515625 -0.503907,-0.515625 -0.292968,0 -0.492187,0.2226562 -0.492187,0.515625 0,0.3164062 0.199219,0.51562499 0.492187,0.51562499 z m 2.917965,0 c 0.30469,0 0.50391,-0.19921879 0.50391,-0.51562499 0,-0.2929688 -0.19922,-0.515625 -0.50391,-0.515625 -0.28125,0 -0.49218,0.2226562 -0.49218,0.515625 0,0.3164062 0.21093,0.51562499 0.49218,0.51562499 z m 2.90625,0 c 0.28125,0 0.49219,-0.19921879 0.49219,-0.51562499 0,-0.2929688 -0.21094,-0.515625 -0.49219,-0.515625 -0.30468,0 -0.5039,0.2226562 -0.5039,0.515625 0,0.3164062 0.19922,0.51562499 0.5039,0.51562499 z M 64.122075,-8.28125e-4 V -0.24692187 c -0.820313,-0.0585938 -0.878907,-0.12890625 -0.878907,-0.78515623 v -4.6875 c -0.492187,0.1992187 -1.019531,0.375 -1.59375,0.46875 v 0.2109375 l 0.433594,0.011719 c 0.386719,0.023437 0.421875,0.070312 0.421875,0.5390625 v 3.4570313 c 0,0.65624998 -0.03516,0.72656248 -0.855469,0.78515623 V -8.28125e-4 Z M 68.689458,-1.2664531 c -0.269532,0.57421873 -0.386719,0.60937498 -0.867188,0.60937498 h -1.6875 l 1.277344,-1.33593748 c 0.832031,-0.890625 1.195312,-1.4179688 1.195312,-2.203125 0,-0.9492188 -0.726562,-1.5234375 -1.511718,-1.5234375 -0.527344,0 -0.949219,0.234375 -1.21875,0.5390625 l -0.515625,0.7265625 0.199218,0.1757812 c 0.234375,-0.3515625 0.609375,-0.8320312 1.230469,-0.8320312 0.65625,0 1.054688,0.4335937 1.054688,1.1953125 0,0.7734375 -0.5625,1.5117187 -1.125,2.1796875 -0.445313,0.515625 -0.949219,1.03124998 -1.453125,1.52343748 v 0.210937495 h 3.363281 C 68.736333,-0.41098437 68.830083,-0.79770312 68.94727,-1.1844219 Z m 1.458984,0.1054687 c -0.210938,0 -0.433594,0.140625 -0.433594,0.36328128 0,0.15234375 0.07031,0.22265625 0.117188,0.234375 0.304687,0.0703125 0.5625,0.26953125 0.5625,0.59765625 0,0.33984375 -0.257813,0.57421875 -0.691407,0.76171875 l 0.09375,0.25781252 c 0.550782,-0.16406252 1.183594,-0.55078127 1.183594,-1.24218752 0,-0.6328125 -0.503906,-0.97265628 -0.832031,-0.97265628 z m 5.449219,1.160156275 V -0.24692187 c -0.820313,-0.0585938 -0.878907,-0.12890625 -0.878907,-0.78515623 v -4.6875 c -0.492187,0.1992187 -1.019531,0.375 -1.59375,0.46875 v 0.2109375 l 0.433594,0.011719 c 0.386719,0.023437 0.421875,0.070312 0.421875,0.5390625 v 3.4570313 c 0,0.65624998 -0.03516,0.72656248 -0.855469,0.78515623 V -8.28125e-4 Z M 77.223637,-4.4656719 c 0.222656,-0.328125 0.585938,-0.7148437 1.078125,-0.7148437 0.480469,0 0.855469,0.2929687 0.855469,0.8554687 0,0.65625 -0.609375,1.0078125 -1.429688,1.2773438 l 0.05859,0.2578125 c 0.140625,-0.046875 0.363281,-0.1054688 0.574219,-0.1054688 0.515625,0 1.148437,0.3398438 1.148437,1.171875 0,0.89062503 -0.457031,1.35937503 -1.089843,1.35937503 -0.515625,0 -0.890625,-0.24609375 -1.125,-0.45703125 -0.07031,-0.0585938 -0.140625,-0.046875 -0.210938,0 -0.08203,0.0585938 -0.199219,0.17578125 -0.210937,0.29296875 -0.01172,0.1171875 0.02344,0.2109375 0.152343,0.328125 0.117188,0.10546875 0.480469,0.3046875 0.890625,0.3046875 0.65625,0 2.367188,-0.66796875 2.367188,-2.12109373 0,-0.65625 -0.46875,-1.21875 -1.253906,-1.3710938 v -0.011719 c 0.257812,-0.1875 0.480468,-0.3398438 0.609375,-0.4921875 0.175781,-0.1640625 0.28125,-0.375 0.28125,-0.6328125 0,-0.6914063 -0.527344,-1.1953125 -1.347657,-1.1953125 -0.46875,0 -0.890625,0.234375 -1.136718,0.5039062 l -0.398438,0.5742188 z m 0,0"
         style="fill:#231f20;fill-opacity:1;fill-rule:nonzero;stroke:none"
         aria-label="4, 56, 7&#10;0, 12, 38, 910, 11&#10;…&#10;12, 13"
         transform="matrix(1.3333333,0,0,1.3333333,7.4453067,125.60267)" />
      <path
         id="path4"
         d="M 1322.5,2.5 H 2.5 v 1320 h 1320 z"
         style="fill:none;stroke:#231f20;stroke-width:5;stroke-linecap:butt;stroke-linejoin:miter;stroke-miterlimit:10;stroke-dasharray:none;stroke-opacity:1"
         transform="matrix(0.13333333,0,0,-0.13333333,0,176.66667)" />
      <path
         id="path5"
         d="M 1322.5,992.5 H 2.5"
         style="fill:none;stroke:#231f20;stroke-width:5;stroke-linecap:butt;stroke-linejoin:miter;stroke-miterlimit:10;stroke-dasharray:none;stroke-opacity:1"
         transform="matrix(0.13333333,0,0,-0.13333333,0,176.66667)" />
      <path
         id="path6"
         d="M 1322.5,662.5 H 2.5"
         style="fill:none;stroke:#231f20;stroke-width:5;stroke-linecap:butt;stroke-linejoin:miter;stroke-miterlimit:10;stroke-dasharray:none;stroke-opacity:1"
         transform="matrix(0.13333333,0,0,-0.13333333,0,176.66667)" />
      <path
         id="path7"
         d="M 1322.5,332.5 H 2.5"
         style="fill:none;stroke:#231f20;stroke-width:5;stroke-linecap:butt;stroke-linejoin:miter;stroke-miterlimit:10;stroke-dasharray:none;stroke-opacity:1"
         transform="matrix(0.13333333,0,0,-0.13333333,0,176.66667)" />
      <path
         id="path8"
         d="m 332.5,2.5 v 1320"
         style="fill:none;stroke:#231f20;stroke-width:5;stroke-linecap:butt;stroke-linejoin:miter;stroke-miterlimit:10;stroke-dasharray:none;stroke-opacity:1"
         transform="matrix(0.13333333,0,0,-0.13333333,0,176.66667)" />
      <path
         id="path9"
         d="m 662.5,2.5 v 1320"
         style="fill:none;stroke:#231f20;stroke-width:5;stroke-linecap:butt;stroke-linejoin:miter;stroke-miterlimit:10;stroke-dasharray:none;stroke-opacity:1"
         transform="matrix(0.13333333,0,0,-0.13333333,0,176.66667)" />
      <path
         id="path10"
         d="m 992.5,2.5 v 1320"
         style="fill:none;stroke:#231f20;stroke-width:5;stroke-linecap:butt;stroke-linejoin:miter;stroke-miterlimit:10;stroke-dasharray:none;stroke-opacity:1"
         transform="matrix(0.13333333,0,0,-0.13333333,0,176.66667)" />
      <path
         id="path11"
         d="m 150.875,1154.75 c 0,11.2 9.074,20.27 20.273,20.27 11.2,0 20.274,-9.07 20.274,-20.27 0,-11.2 -9.074,-20.28 -20.274,-20.28 -11.199,0 -20.273,9.08 -20.273,20.28"
         style="fill:#231f20;fill-opacity:1;fill-rule:nonzero;stroke:none"
         transform="matrix(0.13333333,0,0,-0.13333333,0,176.66667)" />
      <path
         id="path12"
         d="m 478.305,1154.75 c 0,11.2 9.082,20.27 20.281,20.27 11.195,0 20.269,-9.07 20.269,-20.27 0,-11.2 -9.074,-20.28 -20.269,-20.28 -11.199,0 -20.281,9.08 -20.281,20.28"
         style="fill:#231f20;fill-opacity:1;fill-rule:nonzero;stroke:none"
         transform="matrix(0.13333333,0,0,-0.13333333,0,176.66667)" />
      <path
         id="path13"
         d="m 805.742,1154.75 c 0,11.2 9.071,20.27 20.281,20.27 11.184,0 20.266,-9.07 20.266,-20.27 0,-11.2 -9.082,-20.28 -20.266,-20.28 -11.21,0 -20.281,9.08 -20.281,20.28"
         style="fill:#231f20;fill-opacity:1;fill-rule:nonzero;stroke:none"
         transform="matrix(0.13333333,0,0,-0.13333333,0,176.66667)" />
      <path
         id="path14"
         d="m 1133.16,1154.75 c 0,11.2 9.09,20.27 20.29,20.27 11.19,0 20.26,-9.07 20.26,-20.27 0,-11.2 -9.07,-20.28 -20.26,-20.28 -11.2,0 -20.29,9.08 -20.29,20.28"
         style="fill:#231f20;fill-opacity:1;fill-rule:nonzero;stroke:none"
         transform="matrix(0.13333333,0,0,-0.13333333,0,176.66667)" />
      <path
         id="path15"
         d="M 171.148,171.039 H 498.586 L 172.535,497.402 H 499.973 L 826.023,171.039 H 1153.45 L 827.395,497.402 H 1154.82 L 171.148,831.566 H 498.586 L 171.148,1154.75 H 498.586 L 826.023,831.566 H 1153.45 L 826.023,1154.75 h 327.427"
         style="fill:none;stroke:#231f20;stroke-width:7.5;stroke-linecap:butt;stroke-linejoin:bevel;stroke-miterlimit:10;stroke-dasharray:none;stroke-opacity:1"
         transform="matrix(0.13333333,0,0,-0.13333333,0,176.66667)" />
      <path
         id="path16"
         d="m 150.875,831.566 c 0,11.2 9.074,20.27 20.273,20.27 11.2,0 20.274,-9.07 20.274,-20.27 0,-11.199 -9.074,-20.277 -20.274,-20.277 -11.199,0 -20.273,9.078 -20.273,20.277"
         style="fill:#231f20;fill-opacity:1;fill-rule:nonzero;stroke:none"
         transform="matrix(0.13333333,0,0,-0.13333333,0,176.66667)" />
      <path
         id="path17"
         d="m 478.305,831.566 c 0,11.2 9.082,20.27 20.281,20.27 11.195,0 20.269,-9.07 20.269,-20.27 0,-11.199 -9.074,-20.277 -20.269,-20.277 -11.199,0 -20.281,9.078 -20.281,20.277"
         style="fill:#231f20;fill-opacity:1;fill-rule:nonzero;stroke:none"
         transform="matrix(0.13333333,0,0,-0.13333333,0,176.66667)" />
      <path
         id="path18"
         d="m 805.742,831.566 c 0,11.2 9.071,20.27 20.281,20.27 11.184,0 20.266,-9.07 20.266,-20.27 0,-11.199 -9.082,-20.277 -20.266,-20.277 -11.21,0 -20.281,9.078 -20.281,20.277"
         style="fill:#231f20;fill-opacity:1;fill-rule:nonzero;stroke:none"
         transform="matrix(0.13333333,0,0,-0.13333333,0,176.66667)" />
      <path
         id="path19"
         d="m 1133.16,831.566 c 0,11.2 9.09,20.27 20.29,20.27 11.19,0 20.26,-9.07 20.26,-20.27 0,-11.199 -9.07,-20.277 -20.26,-20.277 -11.2,0 -20.29,9.078 -20.29,20.277"
         style="fill:#231f20;fill-opacity:1;fill-rule:nonzero;stroke:none"
         transform="matrix(0.13333333,0,0,-0.13333333,0,176.66667)" />
      <path
         id="path20"
         d="m 152.262,497.402 c 0,11.196 9.078,20.27 20.273,20.27 11.199,0 20.274,-9.074 20.274,-20.27 0,-11.207 -9.075,-20.277 -20.274,-20.277 -11.195,0 -20.273,9.07 -20.273,20.277"
         style="fill:#231f20;fill-opacity:1;fill-rule:nonzero;stroke:none"
         transform="matrix(0.13333333,0,0,-0.13333333,0,176.66667)" />
      <path
         id="path21"
         d="m 479.695,497.402 c 0,11.196 9.075,20.27 20.278,20.27 11.195,0 20.269,-9.074 20.269,-20.27 0,-11.207 -9.074,-20.277 -20.269,-20.277 -11.203,0 -20.278,9.07 -20.278,20.277"
         style="fill:#231f20;fill-opacity:1;fill-rule:nonzero;stroke:none"
         transform="matrix(0.13333333,0,0,-0.13333333,0,176.66667)" />
      <path
         id="path22"
         d="m 807.117,497.402 c 0,11.196 9.082,20.27 20.278,20.27 11.191,0 20.273,-9.074 20.273,-20.27 0,-11.207 -9.082,-20.277 -20.273,-20.277 -11.196,0 -20.278,9.07 -20.278,20.277"
         style="fill:#231f20;fill-opacity:1;fill-rule:nonzero;stroke:none"
         transform="matrix(0.13333333,0,0,-0.13333333,0,176.66667)" />
      <path
         id="path23"
         d="m 1134.56,497.402 c 0,11.196 9.06,20.27 20.26,20.27 11.2,0 20.28,-9.074 20.28,-20.27 0,-11.207 -9.08,-20.277 -20.28,-20.277 -11.2,0 -20.26,9.07 -20.26,20.277"
         style="fill:#231f20;fill-opacity:1;fill-rule:nonzero;stroke:none"
         transform="matrix(0.13333333,0,0,-0.13333333,0,176.66667)" />
      <path
         id="path24"
         d="m 150.875,171.039 c 0,11.199 9.074,20.27 20.273,20.27 11.2,0 20.274,-9.071 20.274,-20.27 0,-11.199 -9.074,-20.277 -20.274,-20.277 -11.199,0 -20.273,9.078 -20.273,20.277"
         style="fill:#231f20;fill-opacity:1;fill-rule:nonzero;stroke:none"
         transform="matrix(0.13333333,0,0,-0.13333333,0,176.66667)" />
      <path
         id="path25"
         d="m 478.305,171.039 c 0,11.199 9.082,20.27 20.281,20.27 11.195,0 20.269,-9.071 20.269,-20.27 0,-11.199 -9.074,-20.277 -20.269,-20.277 -11.199,0 -20.281,9.078 -20.281,20.277"
         style="fill:#231f20;fill-opacity:1;fill-rule:nonzero;stroke:none"
         transform="matrix(0.13333333,0,0,-0.13333333,0,176.66667)" />
      <path
         id="path26"
         d="m 805.742,171.039 c 0,11.199 9.071,20.27 20.281,20.27 11.184,0 20.266,-9.071 20.266,-20.27 0,-11.199 -9.082,-20.277 -20.266,-20.277 -11.21,0 -20.281,9.078 -20.281,20.277"
         style="fill:#231f20;fill-opacity:1;fill-rule:nonzero;stroke:none"
         transform="matrix(0.13333333,0,0,-0.13333333,0,176.66667)" />
      <path
         id="path27"
         d="m 1133.16,171.039 c 0,11.199 9.09,20.27 20.29,20.27 11.19,0 20.26,-9.071 20.26,-20.27 0,-11.199 -9.07,-20.277 -20.26,-20.277 -11.2,0 -20.29,9.078 -20.29,20.277"
         style="fill:#231f20;fill-opacity:1;fill-rule:nonzero;stroke:none"
         transform="matrix(0.13333333,0,0,-0.13333333,0,176.66667)" />
    </g>
  </g>
</svg>
