<?xml version="1.0" encoding="UTF-8" standalone="no"?>
<!-- Created with Inkscape (http://www.inkscape.org/) -->

<svg
   version="1.1"
   id="svg1"
   width="394.92001"
   height="134.88"
   viewBox="0 0 394.92001 134.88"
   sodipodi:docname="pha08f02.eps"
   xmlns:inkscape="http://www.inkscape.org/namespaces/inkscape"
   xmlns:sodipodi="http://sodipodi.sourceforge.net/DTD/sodipodi-0.dtd"
   xmlns="http://www.w3.org/2000/svg"
   xmlns:svg="http://www.w3.org/2000/svg">
  <defs
     id="defs1" />
  <sodipodi:namedview
     id="namedview1"
     pagecolor="#ffffff"
     bordercolor="#000000"
     borderopacity="0.25"
     inkscape:showpageshadow="2"
     inkscape:pageopacity="0.0"
     inkscape:pagecheckerboard="0"
     inkscape:deskcolor="#d1d1d1">
    <inkscape:page
       x="0"
       y="0"
       inkscape:label="1"
       id="page1"
       width="394.92001"
       height="134.88"
       margin="0"
       bleed="0" />
  </sodipodi:namedview>
  <g
     id="g1"
     inkscape:groupmode="layer"
     inkscape:label="1">
    <g
       id="group-R5">
      <path
         id="path2"
         d="m 2.6953125,1.3237941 c -0.890625,-0.76171879 -1.40625,-2.20312504 -1.40625,-3.75 0,-1.546875 0.515625,-3 1.40625,-3.75 L 2.5429688,-6.3871434 c -1.3242188,0.9023437 -1.9101563,2.3320312 -1.9101563,3.9492187 0,1.62890626 0.5859375,3.08203126 1.9101563,3.9609375 z m 3.8935547,-1.67578129 -0.09375,-0.234375 c -0.09375,0.0585938 -0.2226563,0.10546875 -0.328125,0.10546875 -0.1523438,0 -0.3164063,-0.140625 -0.3164063,-0.55078126 v -1.6640625 c 0,-0.46875 -0.082031,-0.84375 -0.3984375,-1.1015625 -0.1992187,-0.1640625 -0.46875,-0.2460937 -0.7382812,-0.2460937 -0.515625,0.1054687 -1.1015625,0.4570312 -1.3476563,0.6328125 -0.1757812,0.1289062 -0.2929687,0.2226562 -0.2929687,0.3632812 0,0.1992188 0.234375,0.3867188 0.3984375,0.3867188 0.1289062,0 0.2226562,-0.070312 0.2578125,-0.2109375 0.070312,-0.28125 0.1523437,-0.4804688 0.2695312,-0.5976563 0.09375,-0.1054687 0.2226563,-0.1757812 0.4101563,-0.1757812 0.4453125,0 0.75,0.3632812 0.75,1.0195312 v 0.1640625 c -0.1992188,0.1523438 -0.8554688,0.3984375 -1.3945313,0.5742188 -0.4921875,0.1757812 -0.7265625,0.4570312 -0.7265625,0.90234371 0,0.5625 0.4453125,1.08984375 1.078125,1.08984375 0.2695313,0 0.703125,-0.328125 1.0664063,-0.57421875 0.046875,0.15234375 0.09375,0.28125 0.2109375,0.41015625 0.1054687,0.08203125 0.2929687,0.1640625 0.421875,0.1640625 z M 5.1591797,-0.76214344 c -0.1640625,0.1640625 -0.4804688,0.31640625 -0.7148438,0.328125 -0.28125,0 -0.6445312,-0.22265625 -0.6445312,-0.69140626 0,-0.328125 0.1992187,-0.4921875 0.5507812,-0.65625 0.1875,-0.09375 0.6210938,-0.28125 0.8085938,-0.375 z M 6.7939453,-6.1762059 c 0.890625,0.7382812 1.4179688,2.203125 1.4179688,3.75 0,1.54687496 -0.5039063,2.98828121 -1.4179688,3.75 l 0.1640625,0.1992187 c 1.3476563,-0.91406249 1.8984375,-2.33203124 1.8984375,-3.9492187 0,-1.6289063 -0.5507812,-3.0585938 -1.8984375,-3.9609375 z m 158.0039047,7.5 c -0.89062,-0.76171879 -1.40625,-2.20312504 -1.40625,-3.75 0,-1.546875 0.51563,-3 1.40625,-3.75 l -0.15234,-0.2109375 c -1.32422,0.9023437 -1.91016,2.3320312 -1.91016,3.9492187 0,1.62890626 0.58594,3.08203126 1.91016,3.9609375 z m 2.00977,-4.9570313 v -2.7773437 c -0.33985,0.1171875 -0.89063,0.2578125 -1.3125,0.3164062 v 0.2109375 c 0.58593,0.046875 0.59765,0.1054688 0.59765,0.6679688 v 5.00390621 c 0.49219,0.234375 0.94922,0.31640625 1.32422,0.31640625 1.20703,0 2.26172,-0.9375 2.26172,-2.26171876 0,-1.0546875 -0.80859,-1.8867187 -1.78125,-1.8867187 -0.0937,0 -0.22266,0.023437 -0.36328,0.09375 z m 0,0.2695313 c 0.16406,-0.1054688 0.44531,-0.1757813 0.70312,-0.1757813 0.73828,0 1.3711,0.5976563 1.3711,1.6171875 0,1.05468751 -0.48047,1.68750001 -1.21875,1.68750001 -0.48047,-0.0117188 -0.75,-0.328125 -0.8086,-0.50390625 -0.0351,-0.0820313 -0.0469,-0.17578125 -0.0469,-0.30468746 z m 3.16699,-2.8125 c 0.89062,0.7382812 1.41797,2.203125 1.41797,3.75 0,1.54687496 -0.50391,2.98828121 -1.41797,3.75 l 0.16406,0.1992187 c 1.34766,-0.91406249 1.89844,-2.33203124 1.89844,-3.9492187 0,-1.6289063 -0.55078,-3.0585938 -1.89844,-3.9609375 z m 0,0"
         style="fill:#231f20;fill-opacity:1;fill-rule:nonzero;stroke:none"
         aria-label="(a)(b)"
         transform="matrix(1.3333333,0,0,1.3333333,82.25,130.55916)" />
      <path
         id="path3"
         d="m 4.1875,969.906 0.38672,0.047 h 0.41016 l 0.38671,-0.027 h 0.39844 l 0.41797,-0.02 h 0.37891 l 0.41406,-0.031 0.375,-0.027 0.41406,-0.035 0.37891,-0.028 0.40625,-0.031 0.38672,-0.027 0.41015,-0.032 0.38672,-0.062 0.78512,-0.078 0.4102,-0.063 0.4141,-0.031 0.7851,-0.121 0.3828,-0.059 0.4141,-0.082 0.7851,-0.117 0.3868,-0.094 0.4023,-0.05 2.375,-0.536 0.4141,-0.078 0.3711,-0.121 0.7968,-0.203 1.586,-0.441 0.8164,-0.235 0.7969,-0.261 1.5703,-0.567 0.3828,-0.109 0.414,-0.149 0.7891,-0.328 1.582,-0.609 3.168,-1.403 0.875,-0.414 0.8555,-0.445 1.7265,-0.879 3.4258,-1.933 0.875,-0.52 0.8594,-0.527 1.7227,-1.121 3.4296,-2.336 0.4375,-0.325 0.4063,-0.32 0.8906,-0.617 1.7227,-1.316 3.4258,-2.786 6.8867,-6.179 0.4101,-0.383 0.3867,-0.387 0.8125,-0.785 1.6133,-1.582 3.1992,-3.336 6.4102,-7.176 0.4141,-0.504 0.4023,-0.464 0.793,-0.938 1.6172,-1.965 3.2148,-4.012 6.418,-8.5 0.4179,-0.55 0.3711,-0.539 2.375,-3.332 3.1407,-4.567 6.3007,-9.562 12.5857,-20.856 0.446,-0.734 0.414,-0.723 0.843,-1.523 1.723,-3.024 3.399,-6.179 6.867,-12.805 13.648,-27.309 25.516,-56.097 27.633,-66.5 27.125,-68.731 25.339,-64.961 27.422,-68.929 25.637,-60.911 25.137,-54.699 0.41,-0.879 0.437,-0.847 0.852,-1.758 1.699,-3.457 3.399,-6.824 6.824,-13.274 13.625,-24.93 0.41,-0.703 0.379,-0.675 0.793,-1.375 1.609,-2.754 3.164,-5.364 6.36,-10.339 0.41,-0.618 0.379,-0.644 0.793,-1.231 1.621,-2.492 3.144,-4.832 6.368,-9.258 0.878,-1.23 0.86,-1.199 1.719,-2.375 3.425,-4.629 6.914,-8.758 0.422,-0.527 0.43,-0.532 0.84,-1.023 1.738,-2.051 3.457,-3.953 6.883,-7.387 0.441,-0.406 0.41,-0.441 0.84,-0.848 1.707,-1.672 3.371,-3.191 0.438,-0.383 0.402,-0.399 0.86,-0.773 1.699,-1.492 3.379,-2.844 0.398,-0.352 0.442,-0.351 0.847,-0.676 1.711,-1.316 3.36,-2.547 6.765,-4.516 0.383,-0.262 0.41,-0.234 0.789,-0.469 1.582,-0.91 3.137,-1.726 0.41,-0.203 0.391,-0.208 0.781,-0.41 1.582,-0.761 3.164,-1.438 0.391,-0.176 0.39,-0.172 0.801,-0.324 1.551,-0.613 0.402,-0.148 0.391,-0.145 0.801,-0.297 1.582,-0.555 0.39,-0.144 0.391,-0.117 0.801,-0.266 1.582,-0.469 0.371,-0.117 0.41,-0.117 2.363,-0.613 0.418,-0.09 0.442,-0.117 0.847,-0.176 0.442,-0.086 0.41,-0.09 0.859,-0.176 0.879,-0.175 0.84,-0.145 1.699,-0.266 0.438,-0.058 0.41,-0.059 0.879,-0.117 0.422,-0.059 0.429,-0.031 0.86,-0.086 0.429,-0.027 0.411,-0.063 0.429,-0.027 0.418,-0.027 0.871,-0.063 0.418,-0.027 h 0.442 l 0.41,-0.028 h 0.437 l 0.442,-0.031 h 0.41 l 0.437,-0.027 h 2.141 l 0.41,0.027 h 0.879 l 0.41,0.031 0.438,0.028 h 0.41 l 0.879,0.058 0.422,0.032 0.429,0.027 0.411,0.027 0.449,0.032 0.84,0.089 0.429,0.055 0.418,0.031 0.871,0.118 0.418,0.031 0.442,0.058 0.847,0.118 0.422,0.054 0.371,0.09 0.789,0.117 1.614,0.293 0.41,0.059 0.379,0.09 0.793,0.176 1.601,0.347 0.418,0.09 0.383,0.09 0.82,0.203 1.582,0.441 3.192,0.938 0.422,0.144 0.371,0.118 0.82,0.261 1.582,0.559 3.203,1.23 0.399,0.149 0.383,0.176 0.82,0.32 1.582,0.703 3.191,1.465 0.442,0.234 0.429,0.203 0.86,0.442 1.726,0.879 3.457,1.906 0.442,0.234 0.437,0.262 0.852,0.496 1.758,1.027 3.457,2.2 0.41,0.261 1.316,0.879 1.731,1.172 3.457,2.461 6.914,5.305 0.437,0.32 0.41,0.352 2.551,2.109 3.399,2.902 6.797,6.18 13.593,13.652 0.41,0.442 0.379,0.406 0.793,0.863 1.582,1.715 3.164,3.489 6.356,7.238 12.687,15.351 27.481,36.473 25.664,36.652 25.164,36.856 27.305,39.312 25.488,34.719 27.629,34.043 0.41,0.496 0.438,0.473 0.851,0.965 1.668,1.933 3.398,3.781 6.77,7.352 13.563,13.684 0.41,0.379 0.382,0.382 0.79,0.758 1.582,1.496 3.164,2.903 6.328,5.625 0.383,0.32 0.41,0.351 0.789,0.68 1.554,1.336 3.165,2.582 6.328,4.985 0.437,0.32 0.41,0.32 0.879,0.649 1.699,1.257 3.43,2.461 6.856,4.625 0.437,0.274 0.41,0.293 0.879,0.519 1.699,1.082 3.43,2.055 6.856,3.844 0.41,0.199 0.379,0.199 0.82,0.414 1.582,0.817 3.223,1.554 0.382,0.18 0.411,0.203 0.789,0.383 1.613,0.707 3.191,1.402 0.41,0.153 0.383,0.172 0.821,0.32 1.582,0.644 3.191,1.204 6.418,2.16 0.379,0.125 0.41,0.121 0.762,0.226 1.582,0.465 3.137,0.86 0.378,0.078 0.411,0.125 0.793,0.168 1.55,0.386 3.137,0.703 0.41,0.063 0.379,0.078 0.793,0.152 1.551,0.293 0.41,0.094 0.383,0.059 0.789,0.14 1.555,0.231 0.41,0.062 0.379,0.059 0.793,0.121 1.55,0.231 0.411,0.035 0.382,0.058 0.789,0.082 1.555,0.18 0.438,0.059 0.41,0.019 0.851,0.094 0.879,0.058 0.848,0.094 0.41,0.028 0.441,0.019 0.848,0.059 0.41,0.035 0.442,0.027 0.847,0.031 0.411,0.032 0.441,0.027 h 0.41 l 0.438,0.035 h 0.41 l 0.441,0.028 h 0.41 l 0.438,0.031 h 0.851 l 0.411,0.019 h 3.835 l 0.442,-0.019 h 0.848 l 0.41,-0.031 h 0.851 l 0.438,-0.028 h 0.41 l 0.441,-0.035 0.41,-0.027 0.848,-0.032 0.442,-0.031 0.41,-0.027 0.879,-0.035 0.41,-0.028 0.437,-0.031 0.86,-0.078 0.402,-0.031 0.437,-0.032 0.852,-0.058 1.699,-0.172 0.379,-0.031 0.41,-0.063 2.375,-0.261 0.41,-0.059 0.379,-0.027 0.793,-0.125 1.61,-0.231 0.383,-0.062 0.41,-0.047 2.371,-0.352 3.164,-0.586 0.41,-0.062 0.391,-0.09 0.812,-0.141 1.582,-0.324 3.164,-0.707 0.41,-0.09 0.379,-0.09 0.793,-0.203 1.61,-0.379 3.164,-0.82 0.441,-0.117 0.41,-0.113 0.879,-0.243 1.699,-0.496 3.457,-1.023 6.883,-2.262 0.442,-0.141 0.41,-0.171 0.879,-0.301 1.726,-0.617 3.43,-1.278 6.883,-2.793 0.41,-0.14 0.383,-0.184 0.82,-0.34 1.609,-0.676 3.196,-1.41 6.445,-2.988 12.859,-6.387 25.196,-14.097 27.36,-16.633 25.52,-15.891 27.66,-16.57 27.16,-14.77 0.41,-0.203 0.38,-0.176 0.79,-0.41 1.58,-0.793 3.16,-1.55 6.33,-3.016 0.41,-0.18 0.41,-0.203 0.79,-0.351 1.59,-0.735 3.16,-1.402 6.33,-2.727 0.41,-0.207 0.44,-0.172 0.85,-0.351 1.73,-0.703 3.42,-1.379 6.89,-2.61 0.41,-0.144 0.44,-0.176 0.85,-0.293 1.73,-0.613 3.42,-1.172 6.86,-2.227 0.41,-0.148 0.41,-0.117 0.79,-0.235 1.61,-0.468 3.19,-0.938 6.42,-1.726 0.41,-0.09 0.38,-0.117 0.82,-0.176 1.58,-0.41 3.23,-0.735 6.41,-1.344 0.76,-0.175 2.38,-0.442 3.13,-0.554 0.41,-0.063 0.38,-0.055 0.79,-0.148 1.56,-0.234 3.16,-0.469 0.38,-0.059 0.41,-0.047 0.76,-0.129 1.59,-0.203 0.38,-0.031 0.41,-0.058 0.79,-0.086 1.55,-0.207 0.41,-0.032 0.38,-0.054 0.79,-0.09 1.56,-0.149 3.16,-0.293 0.41,-0.027 0.44,-0.027 0.85,-0.09 1.7,-0.117 0.44,-0.032 0.41,-0.027 2.55,-0.176 h 0.44 l 0.44,-0.027 0.85,-0.059 h 0.41 l 0.43,-0.031 0.85,-0.027 0.41,-0.032 h 0.44 l 0.85,-0.058 h 0.85 l 0.85,-0.027 0.44,-0.032 h 0.85 l 0.41,-0.027 h 1.29 l 0.44,-0.031 h 5.95 l 0.44,0.031 h 1.26 l 0.44,0.027 h 0.85 l 0.44,0.032 h 0.85 l 0.38,0.027 h 0.41 l 0.79,0.027 0.41,0.031 h 0.38 l 0.79,0.032 0.41,0.027 0.38,0.031 0.82,0.039 1.58,0.079 0.38,0.027 h 0.41 l 2.38,0.176 0.41,0.031 h 0.41 l 0.79,0.058 1.58,0.145 0.41,0.027 0.38,0.032 0.79,0.058 1.61,0.149 3.17,0.32 0.41,0.027 0.38,0.063 0.82,0.086 1.58,0.176 3.17,0.382 0.46,0.059 1.32,0.176 1.79,0.261 3.54,0.5 0.44,0.086 0.44,0.059 0.88,0.148 1.79,0.293 3.54,0.614 0.44,0.058 0.47,0.086 0.88,0.18 1.79,0.32 3.54,0.676 0.88,0.176 0.88,0.203 1.79,0.351 0.44,0.086 0.44,0.121 0.9,0.172 0.44,0.09 0.44,0.117 0.88,0.176"
         style="fill:none;stroke:#3871c1;stroke-width:7.5;stroke-linecap:square;stroke-linejoin:miter;stroke-miterlimit:3.25;stroke-dasharray:none;stroke-opacity:1"
         transform="matrix(0.13333333,0,0,-0.13333333,0,134.88)" />
      <path
         id="path4"
         d="M 4.1875,514.57 H 1324.55"
         style="fill:none;stroke:#231f20;stroke-width:5;stroke-linecap:butt;stroke-linejoin:miter;stroke-miterlimit:3.25;stroke-dasharray:none;stroke-opacity:1"
         transform="matrix(0.13333333,0,0,-0.13333333,0,134.88)" />
      <path
         id="path5"
         d="M 3.86719,178.914 V 1011.59"
         style="fill:none;stroke:#231f20;stroke-width:5;stroke-linecap:butt;stroke-linejoin:miter;stroke-miterlimit:3.25;stroke-dasharray:none;stroke-opacity:1"
         transform="matrix(0.13333333,0,0,-0.13333333,0,134.88)" />
      <path
         id="path6"
         d="m 1627.88,150.262 0.41,2.492 0.39,2.754 0.41,3.047 0.39,3.308 0.43,3.606 0.41,3.867 0.82,8.523 0.41,4.661 0.39,4.89 0.84,10.574 0.39,5.657 0.39,5.918 0.82,12.48 0.41,6.594 0.42,6.797 0.82,14.238 1.64,30.848 0.41,8.175 0.39,8.348 0.82,17.195 1.64,36.125 0.39,9.344 0.43,9.492 0.8,19.25 1.62,39.551 3.28,81.5 0.39,10.262 0.39,10.222 0.84,20.415 1.62,40.339 3.27,76.907 0.44,9.882 0.43,9.727 0.88,18.922 1.8,35.531 0.43,8.36 0.45,8.132 0.88,15.567 1.77,28.093 0.45,6.352 0.43,6.098 0.88,11.308 0.43,5.215 0.45,4.918 0.88,8.945 0.45,3.981 0.43,3.687 0.45,3.395 0.45,3.059 0.45,2.718 0.45,2.434 0.43,2.074 0.45,1.762 0.42,1.433 0.45,1.121 0.43,0.754 0.45,0.477 0.43,0.105 0.43,-0.226 0.45,-0.524 0.47,-0.878 0.45,-1.184 0.43,-1.52 0.45,-1.843 0.43,-2.168 0.43,-2.461 0.45,-2.813 0.45,-3.105 0.43,-3.395 0.45,-3.719 0.42,-4.023 0.9,-8.93 0.45,-4.89 0.45,-5.196 0.88,-11.156 0.43,-6.008 0.45,-6.238 0.88,-13.266 1.78,-29.328 0.41,-7.355 0.41,-7.531 0.82,-15.586 1.64,-32.953 3.3,-71.665 0.43,-9.343 0.41,-9.407 0.82,-18.98 1.66,-38.359 3.28,-76.461 0.41,-9.375 0.41,-9.317 0.86,-18.425 1.64,-35.715 0.39,-8.645 0.43,-8.551 0.8,-16.672 1.68,-31.582 0.41,-7.5 0.41,-7.324 0.82,-14.09 0.41,-6.742 0.41,-6.59 0.82,-12.507 0.41,-5.95 0.41,-5.742 0.86,-10.808 0.41,-5.071 0.41,-4.836 0.82,-8.961 0.41,-4.043 0.39,-3.808 0.39,-3.574 0.41,-3.34 0.41,-3.11 0.41,-2.839 0.41,-2.61 0.39,-2.371 0.4,-2.109 0.43,-1.844 0.41,-1.613 0.39,-1.368 0.39,-1.121 0.41,-0.851 0.41,-0.613 0.41,-0.352 0.41,-0.117 0.41,0.144 0.37,0.41 0.43,0.645 0.41,0.879 0.39,1.144 0.43,1.375 0.37,1.641 0.41,1.875 0.41,2.109 0.41,2.344 0.41,2.578 0.39,2.813 0.41,3.047 0.82,6.738 0.41,3.723 0.37,3.925 0.82,8.496 0.41,4.54 0.41,4.777 0.8,10.074 0.41,5.332 0.41,5.512 0.82,11.543 1.61,25.078 0.41,6.617 0.37,6.801 0.84,13.941 1.6,29.328 3.26,62.84 0.43,8.821 0.43,8.847 0.88,17.813 1.78,35.738 3.47,70.082 0.43,8.469 0.45,8.371 0.88,16.445 1.76,31.434 0.45,7.527 0.43,7.36 0.88,14.234 1.75,26.391 0.45,6.156 0.43,5.918 0.88,11.25 0.45,5.273 0.43,5.102 0.88,9.484 0.45,4.399 0.43,4.16 0.45,3.922 0.43,3.671 0.45,3.458 0.43,3.183 0.45,2.934 0.43,2.691 0.42,2.442 0.45,2.195 0.43,1.926 0.45,1.675 0.45,1.411 0.43,1.136 0.45,0.91 0.43,0.614 0.45,0.386 0.43,0.106 0.41,-0.141 0.45,-0.379 0.43,-0.675 0.45,-0.907 0.43,-1.144 0.43,-1.41 0.43,-1.547 0.41,-1.758 0.39,-1.965 0.43,-2.168 0.41,-2.402 0.39,-2.578 0.84,-5.797 0.39,-3.196 0.43,-3.367 0.82,-7.328 0.41,-3.922 0.41,-4.133 0.8,-8.761 0.43,-4.625 0.41,-4.778 0.82,-10.019 1.64,-21.793 0.41,-5.813 0.41,-5.882 0.82,-12.129 1.62,-25.485 0.43,-6.59 0.41,-6.656 0.82,-13.535 1.64,-27.684 3.25,-56.574 0.41,-7.066 0.41,-7.024 0.82,-14 1.64,-27.421 3.28,-51.422 0.45,-6.504 0.43,-6.36 0.91,-12.3 0.43,-5.95 0.45,-5.769 0.88,-11.067 0.43,-5.312 0.47,-5.098 0.88,-9.668 0.45,-4.543 0.43,-4.363 0.88,-8.113 0.47,-3.75 0.45,-3.547 0.43,-3.34 0.44,-3.137 0.43,-2.898 0.45,-2.695 0.43,-2.461 0.47,-2.254 0.45,-2.024 0.43,-1.789 0.45,-1.582 0.43,-1.316 0.45,-1.145 0.47,-0.879 0.43,-0.64 0.45,-0.442 0.43,-0.207 0.45,0.032 0.43,0.234 0.42,0.5 0.49,0.699 0.43,0.91 0.45,1.145 0.43,1.375 0.45,1.582 0.43,1.789 0.43,2.019 0.49,2.227 0.43,2.441 0.45,2.598 0.88,5.859 0.43,3.223 0.46,3.43 0.88,7.351 0.45,3.957 0.43,4.129 0.88,8.731 0.47,4.601 0.45,4.774 0.88,9.933 1.78,21.446 0.45,5.562 0.41,5.656 0.87,11.575 1.74,24.109 3.5,50.512 0.41,6.383 0.43,6.421 0.9,12.766 1.75,25.258 3.48,47.961 0.41,5.625 0.45,5.531 0.86,10.777 0.45,5.227 0.43,5.086 0.9,9.793 0.39,4.715 0.45,4.566 0.88,8.731 0.45,4.136 0.42,3.977 0.88,7.5 0.41,3.523 0.45,3.332 0.43,3.164 0.45,3 0.43,2.813 0.45,2.66 0.86,4.746 0.43,2.106 0.43,1.91 0.45,1.73 0.43,1.555 0.43,1.367 0.45,1.18 0.45,0.957 0.43,0.797 0.39,0.558 0.41,0.41 0.39,0.235 0.43,0.086 0.41,-0.086 0.39,-0.266 0.43,-0.445 0.41,-0.578 0.37,-0.731 0.41,-0.918 0.41,-1.047 0.41,-1.226 0.41,-1.383 0.41,-1.523 0.41,-1.703 0.39,-1.848 0.41,-1.953 0.41,-2.149 0.82,-4.707 0.41,-2.547 0.41,-2.707 0.78,-5.793 0.41,-3.078 0.41,-3.222 0.82,-6.797 1.62,-14.906 0.4,-4.024 0.43,-4.074 0.8,-8.457 1.62,-17.903 3.26,-38.789 6.5,-81.363 0.43,-5.363 0.47,-5.274 0.88,-10.418 1.76,-19.925 0.43,-4.778 0.45,-4.687 0.88,-9.055 1.75,-16.785 0.45,-3.895 0.43,-3.75 0.88,-7.152 0.43,-3.367 0.45,-3.223 0.88,-6.004 0.47,-2.785 0.43,-2.605 0.45,-2.492 0.45,-2.317 0.43,-2.137 0.44,-1.992 0.43,-1.844 0.45,-1.671 0.43,-1.493 0.45,-1.347 0.43,-1.172 0.45,-0.996 0.43,-0.821 0.43,-0.675 0.45,-0.496 0.45,-0.325 0.43,-0.144 0.45,0.027 0.43,0.176 0.45,0.352 0.43,0.527 0.45,0.676 0.46,0.847 0.43,1.028 0.45,1.172 0.43,1.343 0.45,1.496 0.43,1.641 0.45,1.816 0.43,1.961 0.88,4.368 0.45,2.402 0.43,2.551 0.88,5.476 0.45,2.957 0.43,3.078 0.88,6.504 0.41,3.223 0.41,3.281 0.82,6.887 1.68,14.82 3.28,32.903 0.82,8.726 0.8,8.883 1.66,18.016 3.3,36.156 0.41,4.445 0.41,4.43 0.82,8.726 1.64,16.965 0.41,4.137 0.41,4.043 0.82,7.898 1.64,14.953 0.41,3.504 0.41,3.457 0.86,6.629 0.41,3.164 0.41,3.075 0.82,5.836 0.41,2.753 0.39,2.661 0.84,4.945 0.39,2.32 0.43,2.199 0.8,4.043 0.43,1.817 0.41,1.668 0.37,1.586 0.41,1.433 0.42,1.317 0.41,1.203 0.39,1.086 0.41,0.969 0.41,0.816 0.41,0.734 0.41,0.559 0.37,0.465 0.41,0.32 0.41,0.211 0.41,0.078 0.39,-0.058 0.41,-0.141 0.41,-0.293 0.41,-0.445 0.39,-0.524 0.39,-0.672 0.41,-0.757 0.41,-0.918 0.41,-1.016 0.39,-1.152 0.41,-1.262 0.41,-1.371 0.41,-1.489 0.37,-1.617 0.41,-1.699 0.82,-3.785 0.39,-2.016 0.41,-2.133 0.82,-4.578 1.61,-10.281 0.43,-2.812 0.37,-2.875 0.82,-5.996 1.62,-12.864 0.39,-3.379 0.41,-3.445 0.8,-7.066 1.6,-14.676 3.22,-30.852 0.88,-8.554 0.88,-8.532 1.78,-16.957 0.43,-4.187 0.43,-4.137 0.88,-8.195 1.74,-15.828 0.43,-3.828 0.44,-3.754 0.88,-7.297 0.43,-3.543 0.45,-3.457 0.88,-6.684 0.43,-3.191 0.45,-3.133 0.88,-5.918 0.41,-2.844 0.43,-2.695 0.88,-5.125 0.45,-2.375 0.43,-2.285 0.45,-2.168 0.43,-2.051 0.45,-1.895 0.44,-1.828 0.86,-3.218 0.45,-1.438 0.43,-1.289 0.45,-1.199 0.43,-1.028 0.45,-0.91 0.41,-0.789 0.43,-0.644 0.45,-0.528 0.43,-0.41 0.45,-0.234 0.43,-0.149 0.45,0.032 0.45,0.117 0.43,0.265 0.43,0.411 0.45,0.527 0.43,0.672 0.44,0.762 0.43,0.937 0.45,1.027 0.43,1.168 0.41,1.293 0.45,1.407 0.43,1.519 0.41,1.527 0.43,1.61 0.8,3.574 0.43,1.902 0.39,2.024 0.82,4.308 0.41,2.254 0.41,2.375 0.84,4.981 1.6,10.847 0.42,2.891 0.41,2.93 0.82,6.094 1.64,12.773 3.24,27.457 0.41,3.504 0.41,3.582 0.82,7.117 1.64,14.274 3.26,27.851 0.41,3.379 0.41,3.305 0.82,6.535 1.64,12.414 0.41,3 0.41,2.891 0.82,5.625 1.62,10.406 0.45,2.605 0.45,2.52 0.88,4.75 0.45,2.219 0.43,2.117 0.88,3.922 0.43,1.781 0.47,1.707 0.45,1.582 0.45,1.43 0.43,1.351 0.43,1.231 0.44,1.117 0.43,0.988 0.45,0.859 0.43,0.754 0.49,0.649 0.43,0.5 0.43,0.371 0.45,0.266 0.43,0.152 0.45,0.027 0.43,-0.121 0.45,-0.199 0.43,-0.352 0.45,-0.464 0.47,-0.598 0.43,-0.692 0.44,-0.832 0.43,-0.937 0.45,-1.016 0.43,-1.179 0.45,-1.289 0.45,-1.372 0.43,-1.492 0.47,-1.582 0.88,-3.519 0.45,-1.934 0.43,-1.988 0.88,-4.317 1.79,-9.664 0.43,-2.601 0.43,-2.735 0.88,-5.589 1.8,-12.008 3.51,-26.371 0.45,-3.368 0.43,-3.394 0.88,-6.828 1.72,-13.77 3.5,-26.984 0.43,-3.258 0.41,-3.215 0.88,-6.301 1.73,-12.046 0.43,-2.868 0.45,-2.785 0.88,-5.418 1.72,-9.929 0.45,-2.286 0.45,-2.226 0.84,-4.133 0.45,-1.965 0.43,-1.844 0.88,-3.425 0.43,-1.582 0.43,-1.465 0.43,-1.379 0.43,-1.262 0.44,-1.172 0.43,-1.082 0.45,-0.965 0.41,-0.851 0.43,-0.762 0.45,-0.644 0.43,-0.555 0.45,-0.441 0.43,-0.325 0.41,-0.23 0.45,-0.117 h 0.43 l 0.45,0.086 0.43,0.214 0.45,0.286 0.41,0.437 0.43,0.496 0.45,0.617 0.43,0.735 0.45,0.816 0.41,0.879 0.37,0.941 0.41,1.051 0.41,1.117 0.41,1.2 0.41,1.289 0.8,2.812 0.41,1.524 0.41,1.613 0.82,3.426 1.6,7.707 0.41,2.078 0.43,2.168 0.78,4.48 1.64,9.614 3.23,21.32 0.41,2.812 0.41,2.848 0.82,5.715 1.6,11.633 3.26,23.316 0.41,2.871 0.37,2.84 0.84,5.625 1.6,10.93 0.41,2.66 0.41,2.613 0.82,5.074 1.6,9.606 0.45,2.461 0.43,2.394 0.88,4.578 0.45,2.196 0.45,2.109 0.88,3.949 0.43,1.875 0.43,1.797 0.45,1.696 0.43,1.582 0.45,1.519 0.43,1.445 0.88,2.567 0.45,1.148 0.44,1.051 0.43,0.965 0.43,0.859 0.45,0.758 0.43,0.676 0.45,0.555 0.43,0.472 0.45,0.352 0.43,0.265 0.45,0.168 0.45,0.063 0.43,-0.031 0.43,-0.141 0.45,-0.246 0.43,-0.32 0.45,-0.43 0.43,-0.539 0.45,-0.645 0.42,-0.726 0.45,-0.824 0.45,-0.911 0.43,-0.984 0.45,-1.117 0.43,-1.203 0.43,-1.258 0.88,-2.844 0.45,-1.523 0.43,-1.641 0.88,-3.492 0.45,-1.844 0.45,-1.933 0.86,-4.075 1.75,-8.961 0.45,-2.371 0.43,-2.457 0.9,-5.008 1.74,-10.605 0.82,-5.16 0.84,-5.274 1.62,-10.695 3.28,-21.766 0.82,-5.39 0.84,-5.305 1.62,-10.375 3.28,-19.133 0.43,-2.187 0.39,-2.149 0.84,-4.156 0.4,-1.961 0.41,-1.933 0.82,-3.692 0.41,-1.719 0.41,-1.707 0.86,-3.164 0.41,-1.464 0.41,-1.438 0.82,-2.605 0.41,-1.172 0.41,-1.145 0.41,-1.023 0.41,-0.969 0.41,-0.906 0.41,-0.821 0.41,-0.734 0.41,-0.645 0.41,-0.585 0.41,-0.497 0.41,-0.414 0.41,-0.347 0.41,-0.266 0.41,-0.176 0.41,-0.086 0.41,-0.031 0.43,0.086 0.45,0.149 0.45,0.261 0.43,0.383 0.43,0.441 0.46,0.528 0.45,0.644 0.45,0.731 0.43,0.793 0.45,0.906 0.45,0.996 0.45,1.082 0.43,1.145 0.45,1.261 0.88,2.723 0.47,1.492 0.43,1.555 0.88,3.34 1.79,7.527 0.43,2.055 0.45,2.105 0.88,4.391 1.78,9.375 0.45,2.441 0.47,2.492 0.87,5.086 1.78,10.528 3.56,21.765 0.43,2.719 0.45,2.703 0.89,5.383 1.76,10.555 0.47,2.57 0.45,2.555 0.88,4.945 1.78,9.438 0.45,2.199 0.43,2.168 0.85,4.129 0.43,1.968 0.45,1.934 0.88,3.656 0.43,1.723 0.45,1.676 0.88,3.105 0.41,1.461 0.43,1.383 0.9,2.547 0.43,1.144 0.45,1.086 0.43,0.989 0.43,0.918 0.45,0.816 0.43,0.766 0.41,0.664 0.44,0.586 0.43,0.503 0.45,0.415 0.43,0.339 0.45,0.246 0.43,0.172 0.45,0.086 0.45,-0.027 0.39,-0.09 0.45,-0.176 0.43,-0.23 0.45,-0.352 0.45,-0.414 0.43,-0.523 0.43,-0.586 0.45,-0.672 0.43,-0.738 0.45,-0.844 0.41,-0.91 0.43,-0.965 0.45,-1.09 0.43,-1.141 0.44,-1.199 0.88,-2.64 0.43,-1.403 0.45,-1.504 0.84,-3.183 1.78,-7.067 0.43,-1.937 0.43,-1.953 0.88,-4.071 1.74,-8.671 0.41,-2.118 0.41,-2.136 0.82,-4.364 1.6,-8.961 3.3,-18.55 0.39,-2.321 0.39,-2.308 0.82,-4.625 1.64,-9.051 3.24,-17.09 0.41,-1.984 0.41,-1.965 0.84,-3.781 0.37,-1.844 0.41,-1.785 0.82,-3.461 0.42,-1.641 0.41,-1.582 0.82,-3.047 0.41,-1.433 0.41,-1.379 0.78,-2.61 0.43,-1.199 0.39,-1.14 0.41,-1.086 0.43,-1.028 0.39,-0.965 0.41,-0.878 0.41,-0.848 0.41,-0.766 0.39,-0.703 0.41,-0.613 0.41,-0.586 0.41,-0.496 0.41,-0.403 0.41,-0.39 0.41,-0.293 0.41,-0.203 0.45,-0.176 0.43,-0.09 h 0.43 l 0.45,0.09 0.43,0.144 0.45,0.235 0.43,0.32 0.45,0.383 0.43,0.496 0.44,0.559 0.47,0.617 0.43,0.699 0.45,0.793 0.43,0.852 0.88,1.961 0.45,1.054 0.45,1.172 0.86,2.488 0.45,1.352 0.43,1.402 0.88,3.02 0.45,1.609 0.46,1.637 0.88,3.492 1.76,7.559 0.43,1.996 0.45,2.047 0.88,4.195 1.8,8.758 3.49,18.543 0.45,2.375 0.43,2.34 0.9,4.718 1.78,9.317 3.51,17.636 0.41,1.938 0.41,1.902 0.82,3.692 0.43,1.785 0.43,1.75 0.8,3.379 0.41,1.601 0.41,1.555 0.82,2.992 0.43,1.43 0.39,1.383 0.84,2.582 0.39,1.195 0.41,1.145 0.43,1.089 0.43,1.016 0.41,0.965 0.41,0.937 0.82,1.618 0.41,0.73 0.41,0.68 0.42,0.582 0.41,0.527 0.41,0.473 0.41,0.402 0.41,0.356 0.41,0.257 0.41,0.215 0.43,0.145 0.41,0.058 0.41,0.028 0.41,-0.059 0.43,-0.14 0.39,-0.18 0.41,-0.266 0.43,-0.32 0.39,-0.383 0.41,-0.434 0.43,-0.539 0.39,-0.582 0.41,-0.613 0.43,-0.707 0.43,-0.758 0.41,-0.824 0.41,-0.879 0.82,-1.953 0.41,-1.059 0.41,-1.121 0.82,-2.367 0.41,-1.258 0.41,-1.324 0.82,-2.777 1.66,-6.125 0.39,-1.61 0.41,-1.64 0.82,-3.371 1.6,-7.149 3.24,-15.445 0.8,-3.977 0.81,-4.043 1.64,-8.117 3.22,-15.906 0.41,-1.934 0.41,-1.906 0.78,-3.75 1.62,-7.176 0.41,-1.726 0.41,-1.703 0.82,-3.278 1.6,-6.066 0.39,-1.402 0.41,-1.383 0.82,-2.61 0.41,-1.226 0.38,-1.203 0.82,-2.196 0.41,-1.054 0.41,-0.969 0.39,-0.938 0.41,-0.847 0.41,-0.821 0.41,-0.761 0.41,-0.703 0.37,-0.649 0.45,-0.64 0.43,-0.559 0.45,-0.496 0.43,-0.442 0.45,-0.351 0.43,-0.293 0.44,-0.234 0.43,-0.149 0.45,-0.086 h 0.43 l 0.45,0.059 0.43,0.117 0.45,0.203 0.43,0.297 0.45,0.32 0.43,0.41 0.45,0.469 0.43,0.559 0.45,0.613 0.43,0.676 0.45,0.73 0.43,0.821 0.86,1.789 0.43,0.996 0.45,1.054 0.87,2.286 0.43,1.234 0.45,1.277 0.88,2.731 0.43,1.433 0.45,1.493 0.88,3.105 1.76,6.773 3.51,15.09 7,32.754 0.41,1.875 0.41,1.84 0.82,3.664 1.64,7.067 0.82,3.335 0.82,3.247 1.62,6.07 0.41,1.43 0.41,1.382 0.82,2.641 0.41,1.258 0.41,1.203 0.82,2.273 0.41,1.063 0.41,1.027 0.41,0.969 0.41,0.906 0.41,0.848 0.41,0.812 0.82,1.477 0.41,0.644 0.41,0.586 0.41,0.524 0.41,0.492 0.41,0.414 0.41,0.383 0.41,0.293 0.41,0.262 0.41,0.179 0.41,0.145 0.37,0.086 h 0.41 l 0.41,-0.028 0.41,-0.089 0.41,-0.141 0.41,-0.246 0.41,-0.262 0.41,-0.324 0.41,-0.371 0.41,-0.442 0.41,-0.476 0.42,-0.551 0.41,-0.613 0.41,-0.649 0.41,-0.707 0.41,-0.754 0.82,-1.675 0.82,-1.875 0.82,-2.075 0.45,-1.203 0.43,-1.226 0.87,-2.668 1.8,-5.86 0.43,-1.582 0.45,-1.613 0.88,-3.34 1.78,-7.054 0.45,-1.856 0.43,-1.875 0.87,-3.769 1.8,-7.774 3.54,-15.789 0.45,-1.961 0.43,-1.937 0.91,-3.86 1.76,-7.469 0.43,-1.828 0.45,-1.781 0.9,-3.492 1.76,-6.527 0.45,-1.524 0.43,-1.492 0.91,-2.871 0.43,-1.356 0.45,-1.308 0.88,-2.488 0.43,-1.149 0.47,-1.113 0.45,-1.055 0.43,-1 0.45,-0.937 0.43,-0.875 0.88,-1.582 0.45,-0.672 0.42,-0.649 0.45,-0.554 0.43,-0.528 0.45,-0.437 0.41,-0.383 0.43,-0.352 0.45,-0.254 0.43,-0.214 0.45,-0.118 0.43,-0.086 0.45,-0.031 0.41,0.059 0.43,0.09 0.45,0.175 0.43,0.235 0.45,0.293 0.43,0.351 0.45,0.411 0.41,0.464 0.43,0.532 0.45,0.586 0.43,0.64 0.44,0.703 0.43,0.766 0.45,0.812 0.84,1.797 0.45,0.957 0.43,1.032 0.88,2.199 0.45,1.164 0.41,1.23 0.88,2.582 1.76,5.657 0.41,1.488 0.43,1.523 0.88,3.196 1.73,6.683 0.43,1.723 0.45,1.769 0.88,3.536 1.72,7.269 3.5,14.707 0.41,1.703 1.23,5.012 1.6,6.469 0.41,1.582 0.41,1.554 0.82,3.047 1.62,5.746 0.82,2.692 0.78,2.547 0.41,1.23 0.41,1.168 0.82,2.262 0.41,1.086 0.41,1.015 0.8,1.942 0.82,1.762 0.82,1.55 0.42,0.731 0.37,0.672 0.41,0.617 0.41,0.551 0.41,0.535 0.41,0.465 0.41,0.445 0.41,0.371 0.39,0.32 0.41,0.274 0.41,0.23 0.41,0.172 0.41,0.121 0.41,0.063 0.41,0.031 0.37,-0.063 0.41,-0.058 0.41,-0.152 0.41,-0.172 0.41,-0.235 0.41,-0.289 0.41,-0.355 0.39,-0.379 0.41,-0.445 0.41,-0.465 0.82,-1.11 0.41,-0.644 0.41,-0.672 0.37,-0.707 0.82,-1.582 0.45,-0.938 0.43,-0.968 0.88,-2.11 0.45,-1.117 0.43,-1.168 0.88,-2.461 0.45,-1.289 0.43,-1.344 0.88,-2.793 1.79,-5.964 0.43,-1.555 0.45,-1.61 0.88,-3.257 1.76,-6.762 3.94,-15.832 0.45,-1.781 0.88,-3.52 1.76,-6.887 0.43,-1.695 0.45,-1.668 0.88,-3.277 1.78,-6.239 0.45,-1.503 0.42,-1.43 0.88,-2.813 0.45,-1.355 0.43,-1.309 0.88,-2.5 0.45,-1.199 0.43,-1.137 0.88,-2.14 0.45,-0.996 0.43,-0.965 0.88,-1.754 0.41,-0.77 0.41,-0.707 0.41,-0.632 0.41,-0.625 0.41,-0.586 0.41,-0.524 0.41,-0.465 0.41,-0.414 0.41,-0.379 0.41,-0.324 0.41,-0.262 0.41,-0.23 0.41,-0.184 0.41,-0.14 0.41,-0.063 0.41,-0.027 0.41,0.027 0.45,0.063 0.41,0.109 0.41,0.18 0.41,0.234 0.41,0.266 0.41,0.32 0.41,0.383 0.41,0.414 0.41,0.465 0.41,0.5 0.41,0.558 0.41,0.61 0.41,0.648 0.82,1.434 0.41,0.765 0.41,0.817 0.82,1.781 0.41,0.938 0.41,1 0.82,2.086 0.41,1.078 0.41,1.136 0.82,2.379 1.64,5.075 0.41,1.339 0.41,1.379 0.82,2.813 1.66,5.832 3.29,12.367 0.41,1.523 0.39,1.547 0.82,3.106 1.6,6.125 0.41,1.515 0.39,1.536 0.82,2.984 1.6,5.793 0.41,1.414 0.39,1.371 0.82,2.699 1.6,5.121 0.41,1.243 0.39,1.171 0.82,2.274 1.61,4.137 0.41,0.968 0.39,0.907 0.82,1.699 0.41,0.793 0.37,0.761 0.82,1.372 0.41,0.644 0.39,0.586 0.41,0.566 0.41,0.493 0.41,0.472 0.37,0.403 0.41,0.355 0.41,0.324 0.41,0.289 0.39,0.231 0.41,0.183 0.41,0.141 0.41,0.121 0.37,0.031 0.41,0.028 0.41,-0.059 0.41,-0.094 0.41,-0.105 0.4,-0.184 0.41,-0.23 0.41,-0.266 0.41,-0.293 0.37,-0.351 0.41,-0.41 0.45,-0.497 0.43,-0.535 0.45,-0.586 0.42,-0.613 0.45,-0.695 0.43,-0.735 0.86,-1.582 0.43,-0.879 0.45,-0.906 0.88,-1.965 1.76,-4.394 0.43,-1.176 0.45,-1.223 0.84,-2.554 1.76,-5.485 3.51,-11.976 0.41,-1.582 1.33,-4.746 1.76,-6.41 3.47,-12.575 0.45,-1.519 0.43,-1.504 0.88,-2.953 1.76,-5.598 0.45,-1.344 0.43,-1.293 0.86,-2.523 1.76,-4.621 0.41,-1.004 0.41,-0.938 0.82,-1.808 0.41,-0.852 0.41,-0.797 0.78,-1.515 0.41,-0.68 0.41,-0.644 0.41,-0.618 0.41,-0.586 0.41,-0.519 0.41,-0.477 0.41,-0.433 0.41,-0.41 0.41,-0.356 0.41,-0.293 0.41,-0.258 0.41,-0.234 0.39,-0.184 0.41,-0.113 0.41,-0.086 0.41,-0.062 h 0.41 l 0.41,0.062 0.41,0.086 0.41,0.145 0.41,0.179 0.41,0.235 0.41,0.261 0.41,0.325 0.41,0.351 0.41,0.414 0.37,0.43 0.41,0.476 0.41,0.528 0.41,0.586 0.82,1.258 0.41,0.675 0.41,0.735 0.82,1.554 0.41,0.844 0.41,0.879 0.81,1.84 0.41,0.973 0.41,1.027 0.82,2.105 1.64,4.547 3.24,10.192 0.45,1.461 0.43,1.504 0.92,3.011 1.75,6.117 3.54,12.375 0.45,1.489 0.43,1.523 0.88,2.965 1.75,5.734 0.47,1.379 0.45,1.352 0.88,2.633 1.76,4.918 0.43,1.152 0.45,1.109 0.9,2.102 0.45,1.004 0.43,0.965 0.87,1.781 0.45,0.832 0.43,0.785 0.45,0.762 0.43,0.707 0.45,0.637 0.47,0.625 0.43,0.554 0.45,0.496 0.43,0.473 0.45,0.434 0.43,0.351 0.45,0.324 0.43,0.262 0.45,0.231 0.43,0.152 0.44,0.121 0.47,0.078 h 0.43 l 0.45,-0.031 0.43,-0.078 0.45,-0.153 0.43,-0.168 0.45,-0.246 0.43,-0.293 0.41,-0.293 0.41,-0.339 0.45,-0.415 0.41,-0.441 0.41,-0.465 0.41,-0.535 0.82,-1.137 0.41,-0.644 0.41,-0.68 0.82,-1.461 0.41,-0.797 0.43,-0.812 0.82,-1.754 0.41,-0.91 0.41,-0.965 0.82,-2.027 1.64,-4.336 0.45,-1.137 1.23,-3.613 1.64,-5.071 0.82,-2.629 0.84,-2.671 1.64,-5.473 3.32,-11.082 0.41,-1.371 1.23,-4.043 1.66,-5.27 0.82,-2.519 0.83,-2.461 1.64,-4.656 0.41,-1.09 0.41,-1.059 0.82,-2.016 0.39,-0.996 0.41,-0.937 0.82,-1.785 0.41,-0.86 0.37,-0.812 0.82,-1.555 0.41,-0.707 0.41,-0.676 0.8,-1.257 0.41,-0.586 0.41,-0.524 0.41,-0.492 0.41,-0.473 0.37,-0.418 0.41,-0.371 0.41,-0.355 0.41,-0.289 0.41,-0.262 0.41,-0.246 0.39,-0.168 0.41,-0.152 0.41,-0.079 0.41,-0.066 0.41,-0.027 0.37,0.027 0.42,0.066 0.41,0.079 0.41,0.152 0.41,0.168 0.41,0.246 0.39,0.262 0.41,0.289 0.41,0.355 0.41,0.371 0.41,0.418 0.37,0.473 0.41,0.465 0.82,1.117 0.82,1.23 0.39,0.665 0.41,0.738 0.82,1.488 1.6,3.426 0.41,0.91 0.41,0.965 0.8,2 1.64,4.269 0.43,1.204 0.45,1.257 0.88,2.551 1.76,5.301 3.48,11.172 0.44,1.433 1.31,4.211 1.76,5.606 3.52,10.515 0.45,1.231 0.43,1.199 0.87,2.348 0.45,1.109 0.43,1.09 0.88,2.105 0.45,1 0.43,0.965 0.88,1.848 0.45,0.844 0.43,0.816 0.88,1.551 0.45,0.711 0.43,0.672 0.45,0.617 0.43,0.586 0.44,0.519 0.43,0.504 0.45,0.465 0.43,0.414 0.45,0.352 0.43,0.324 0.45,0.293 0.43,0.23 0.45,0.184 0.43,0.141 0.45,0.089 0.43,0.063 h 0.41 l 0.82,-0.121 0.41,-0.125 0.82,-0.34 0.41,-0.246 0.82,-0.578 0.41,-0.36 0.82,-0.812 0.41,-0.477 0.41,-0.492 0.82,-1.109 0.41,-0.613 0.41,-0.645 0.82,-1.383 0.82,-1.523 0.82,-1.641 0.82,-1.758 0.82,-1.875 1.64,-4.039 0.39,-1.09 0.41,-1.078 0.83,-2.23 1.64,-4.688 3.28,-9.906 0.41,-1.281 0.41,-1.258 0.82,-2.555 1.64,-5.066 3.28,-9.758 0.88,-2.523 0.9,-2.399 1.75,-4.566 0.47,-1.059 0.45,-1.058 0.88,-1.954 0.43,-0.968 0.45,-0.907 0.9,-1.703 0.45,-0.816 0.43,-0.766 0.45,-0.738 0.43,-0.664 0.45,-0.645 0.46,-0.617 0.88,-1.086 0.43,-0.496 0.45,-0.441 0.43,-0.387 0.47,-0.351 0.45,-0.325 0.43,-0.261 0.45,-0.2 0.43,-0.171 0.45,-0.153 0.47,-0.094 0.43,-0.027 h 0.45 l 0.43,0.063 0.44,0.089 0.43,0.141 0.47,0.207 0.45,0.238 0.43,0.262 0.45,0.32 0.43,0.356 0.45,0.414 0.43,0.43 0.47,0.507 0.45,0.524 0.43,0.586 0.45,0.613 0.88,1.348 0.46,0.738 0.43,0.758 0.88,1.64 0.45,0.879 0.43,0.907 0.92,1.906 1.76,4.164 0.43,1.074 0.45,1.121 0.88,2.278 1.71,4.781 3.5,10.187 0.43,1.289 0.45,1.325 0.88,2.605 1.76,5.152 3.47,9.883 0.41,1.168 0.45,1.137 0.88,2.23 0.43,1.09 0.45,1.047 0.88,2.027 0.43,0.965 0.41,0.973 0.88,1.781 0.45,0.852 0.43,0.824 0.88,1.523 0.44,0.723 0.41,0.68 0.43,0.64 0.45,0.618 0.43,0.55 0.45,0.539 0.43,0.493 0.88,0.875 0.45,0.355 0.41,0.32 0.43,0.293 0.45,0.262 0.43,0.215 0.45,0.172 0.43,0.113 0.82,0.113 h 0.39 l 0.41,-0.019 0.82,-0.18 0.41,-0.14 0.41,-0.18 0.41,-0.207 0.41,-0.258 0.41,-0.293 0.37,-0.324 0.41,-0.352 0.41,-0.383 0.82,-0.875 0.41,-0.507 0.41,-0.524 0.8,-1.137 0.41,-0.617 0.41,-0.644 0.82,-1.379 0.82,-1.524 0.82,-1.613 1.61,-3.519 0.82,-1.875 0.82,-1.989 1.62,-4.16 3.24,-8.965 0.82,-2.347 0.82,-2.305 1.62,-4.723 3.24,-9.168 0.45,-1.203 0.43,-1.168 0.92,-2.316 1.76,-4.43 0.43,-1.047 0.45,-1.027 0.88,-1.965 1.75,-3.57 0.43,-0.86 0.45,-0.785 0.88,-1.461 0.43,-0.672 0.47,-0.679 0.88,-1.196 0.45,-0.539 0.43,-0.492 0.45,-0.465 0.43,-0.441 0.45,-0.383 0.87,-0.644 0.43,-0.262 0.45,-0.235 0.43,-0.183 0.45,-0.141 0.43,-0.086 0.45,-0.066 0.43,-0.027 0.45,0.027 0.47,0.066 0.43,0.121 0.45,0.137 0.43,0.215 0.45,0.23 0.43,0.262 0.45,0.293 0.43,0.352 0.87,0.816 0.45,0.473 0.88,1.051 0.43,0.593 0.45,0.617 0.88,1.336 0.43,0.711 0.45,0.766 0.9,1.582 1.76,3.57 0.41,0.871 0.41,0.911 0.82,1.902 1.64,4.016 3.32,8.679 0.41,1.141 0.41,1.105 0.82,2.289 1.64,4.598 3.3,9.004 0.82,2.168 0.82,2.133 1.64,4.043 0.41,0.968 0.41,0.938 0.82,1.844 1.64,3.429 0.41,0.786 0.41,0.765 0.86,1.43 0.82,1.355 0.82,1.196 0.41,0.586 0.41,0.535 0.41,0.496 0.41,0.472 0.41,0.434 0.41,0.41 0.82,0.707 0.41,0.293 0.41,0.262 0.41,0.234 0.37,0.2 0.41,0.179 0.83,0.235 0.39,0.058 0.41,0.031 h 0.41 l 0.41,-0.031 0.41,-0.058 0.37,-0.114 0.41,-0.121 0.41,-0.179 0.41,-0.2 0.39,-0.234 0.41,-0.262 0.41,-0.293 0.82,-0.707 0.37,-0.379 0.82,-0.91 0.41,-0.465 0.39,-0.531 0.82,-1.113 0.41,-0.582 0.41,-0.645 0.78,-1.32 0.41,-0.703 0.41,-0.731 0.8,-1.55 1.61,-3.344 0.41,-0.879 0.41,-0.91 0.8,-1.875 1.64,-3.903 0.37,-1.015 0.41,-1.028 0.82,-2.078 1.62,-4.254 3.22,-8.668 0.88,-2.351 0.88,-2.309 1.76,-4.48 0.43,-1.11 0.41,-1.089 0.88,-2.11 1.76,-3.98 0.87,-1.875 0.88,-1.766 0.45,-0.844 0.43,-0.816 0.88,-1.555 0.45,-0.734 0.43,-0.676 0.88,-1.324 0.45,-0.578 0.41,-0.586 0.88,-1.031 0.43,-0.465 0.88,-0.817 0.44,-0.351 0.43,-0.321 0.45,-0.293 0.43,-0.246 0.45,-0.199 0.43,-0.172 0.45,-0.121 0.43,-0.09 0.45,-0.062 0.43,-0.02 0.45,0.02 0.43,0.062 0.45,0.09 0.41,0.153 0.43,0.171 0.45,0.2 0.43,0.261 0.45,0.293 0.43,0.325 0.45,0.351 0.42,0.387 0.45,0.441 0.43,0.465 0.88,1.027 0.88,1.168 0.88,1.293 0.41,0.645 0.41,0.672 0.8,1.433 1.64,3.102 0.82,1.707 0.82,1.758 1.64,3.75 0.41,0.965 1.23,2.992 1.61,4.121 3.28,8.469 1.64,4.222 1.64,4.157 0.82,1.996 0.8,1.964 1.64,3.782 0.41,0.902 0.41,0.883 0.82,1.703 0.82,1.629 0.82,1.555 0.41,0.738 0.41,0.707 0.82,1.336 0.41,0.644 0.37,0.618 0.82,1.152 0.47,0.582 0.47,0.555 0.45,0.504 0.47,0.492 0.43,0.433 0.47,0.383 0.45,0.387 0.47,0.32 0.46,0.293 0.43,0.231 0.47,0.242 0.45,0.144 0.47,0.149 0.43,0.078 0.94,0.062 0.45,-0.031 0.47,-0.078 0.43,-0.121 0.46,-0.152 0.45,-0.172 0.47,-0.231 0.47,-0.261 0.43,-0.325 0.47,-0.351 0.45,-0.383 0.47,-0.41 0.43,-0.465 0.47,-0.508 0.46,-0.523 0.92,-1.172 0.43,-0.645 0.47,-0.644 0.92,-1.442 1.81,-3.215 0.47,-0.875 0.43,-0.91 0.94,-1.855 1.82,-4.012 0.45,-1.015 0.47,-1.09 0.89,-2.137 1.82,-4.484 0.47,-1.141 0.45,-1.141 0.94,-2.289 0.43,-1.168 0.46,-1.144 0.45,-1.145 0.47,-1.136"
         style="fill:none;stroke:#3871c1;stroke-width:7.5;stroke-linecap:square;stroke-linejoin:miter;stroke-miterlimit:3.25;stroke-dasharray:none;stroke-opacity:1"
         transform="matrix(0.13333333,0,0,-0.13333333,0,134.88)" />
      <path
         id="path7"
         d="M 1624.54,514.57 H 2957"
         style="fill:none;stroke:#231f20;stroke-width:5;stroke-linecap:butt;stroke-linejoin:miter;stroke-miterlimit:3.25;stroke-dasharray:none;stroke-opacity:1"
         transform="matrix(0.13333333,0,0,-0.13333333,0,134.88)" />
      <path
         id="path8"
         d="M 1624.54,102.828 V 926.332"
         style="fill:none;stroke:#231f20;stroke-width:5;stroke-linecap:butt;stroke-linejoin:miter;stroke-miterlimit:3.25;stroke-dasharray:none;stroke-opacity:1"
         transform="matrix(0.13333333,0,0,-0.13333333,0,134.88)" />
    </g>
  </g>
</svg>
