<?xml version="1.0" encoding="UTF-8" standalone="no"?>
<!-- Created with Inkscape (http://www.inkscape.org/) -->

<svg
   version="1.1"
   id="svg1"
   width="416.62668"
   height="144.89333"
   viewBox="0 0 416.62668 144.89333"
   sodipodi:docname="pha08f09.eps"
   xmlns:inkscape="http://www.inkscape.org/namespaces/inkscape"
   xmlns:sodipodi="http://sodipodi.sourceforge.net/DTD/sodipodi-0.dtd"
   xmlns="http://www.w3.org/2000/svg"
   xmlns:svg="http://www.w3.org/2000/svg">
  <defs
     id="defs1" />
  <sodipodi:namedview
     id="namedview1"
     pagecolor="#ffffff"
     bordercolor="#000000"
     borderopacity="0.25"
     inkscape:showpageshadow="2"
     inkscape:pageopacity="0.0"
     inkscape:pagecheckerboard="0"
     inkscape:deskcolor="#d1d1d1">
    <inkscape:page
       x="0"
       y="0"
       inkscape:label="1"
       id="page1"
       width="416.62668"
       height="144.89333"
       margin="0"
       bleed="0" />
  </sodipodi:namedview>
  <g
     id="g1"
     inkscape:groupmode="layer"
     inkscape:label="1">
    <g
       id="group-R5">
      <path
         id="path2"
         d="m 79.7188,1044.12 h 9.582 l 0.4062,-0.03 h 1.6172 l 0.3946,-0.03 h 0.7968 l 0.4024,-0.01 h 0.3906 l 0.4062,-0.03 h 0.3907 l 0.4062,-0.02 h 0.3946 l 0.7968,-0.03 3.9844,-0.25 0.8205,-0.08 0.797,-0.1 0.8,-0.07 0.793,-0.1 0.797,-0.12 0.399,-0.05 0.398,-0.08 0.797,-0.13 0.449,-0.06 0.43,-0.08 0.863,-0.21 0.426,-0.07 0.426,-0.1 0.867,-0.22 0.449,-0.12 0.43,-0.13 0.859,-0.25 1.723,-0.57 0.449,-0.18 0.43,-0.14 0.859,-0.35 0.438,-0.2 0.441,-0.21 0.875,-0.39 0.844,-0.44 0.863,-0.48 1.754,-1.05 0.422,-0.28 0.441,-0.3 0.852,-0.61 0.453,-0.32 0.414,-0.33 0.883,-0.7 0.418,-0.37 0.445,-0.37 0.848,-0.8 1.75,-1.7 0.418,-0.47 0.445,-0.47 0.875,-0.97 1.723,-2.12 0.445,-0.58 0.414,-0.59 0.879,-1.19 1.723,-2.6 0.418,-0.65 1.187,-2.01 1.621,-2.91 0.426,-0.74 1.191,-2.4 1.625,-3.41 0.426,-0.9 0.399,-0.93 0.793,-1.89 1.621,-3.96 3.238,-8.885 0.391,-1.199 0.433,-1.215 0.797,-2.519 1.621,-5.25 0.391,-1.372 0.43,-1.386 0.796,-2.871 1.61,-5.973 0.402,-1.543 0.418,-1.594 0.797,-3.215 1.621,-6.75 3.242,-14.671 0.403,-1.911 0.394,-1.941 0.793,-3.934 1.57,-8.214 3.188,-17.637 0.797,-4.68 0.769,-4.781 1.594,-9.891 3.164,-21.066 0.399,-2.734 0.394,-2.793 0.797,-5.657 1.598,-11.601 3.16,-24.504 6.355,-53.945 0.422,-3.875 0.442,-3.907 0.851,-7.906 1.723,-16.133 3.437,-33.394 6.903,-70.59 0.418,-4.535 0.425,-4.563 0.868,-9.137 1.718,-18.351 3.434,-36.93 6.898,-73.066 0.399,-4.156 0.398,-4.137 0.801,-8.242 1.594,-16.235 3.211,-31.277 0.425,-3.785 0.399,-3.758 0.797,-7.398 1.597,-14.348 3.211,-26.735 0.414,-3.148 0.399,-3.086 0.805,-6.023 1.589,-11.407 0.399,-2.714 0.418,-2.668 0.797,-5.125 1.597,-9.539 0.399,-2.215 0.422,-2.145 0.797,-4.105 0.402,-1.969 0.39,-1.871 0.801,-3.535 0.403,-1.668 0.421,-1.59 0.797,-2.965 0.403,-1.344 0.394,-1.3 0.797,-2.313 0.453,-1.117 0.418,-1.051 0.449,-0.918 0.426,-0.851 0.446,-0.747 0.417,-0.621 0.458,-0.547 0.417,-0.421 0.422,-0.325 0.453,-0.222 0.418,-0.129 0.457,-0.024 0.418,0.098 0.45,0.199 0.425,0.301 0.446,0.422 0.418,0.523 0.461,0.625 0.414,0.746 0.445,0.872 0.43,0.968 0.449,1.071 0.426,1.195 0.441,1.324 0.426,1.418 0.43,1.543 0.437,1.668 0.422,1.77 0.461,1.894 0.418,1.992 0.867,4.356 0.449,2.367 0.434,2.465 0.863,5.281 0.453,2.836 0.418,2.937 0.875,6.227 0.446,3.285 0.418,3.414 0.875,7.149 1.75,15.687 0.418,4.211 0.445,4.305 0.875,8.965 1.738,19.25 3.461,43.504 0.43,5.753 0.449,5.879 0.844,11.977 1.715,24.976 3.418,53.586 6.82,117.571 0.851,15.234 0.864,15.32 1.699,30.622 3.433,60.617 0.43,7.468 0.418,7.399 0.848,14.691 1.711,28.742 3.414,54.133 0.398,5.957 0.399,5.84 0.797,11.485 1.593,21.765 0.403,5.215 0.394,5.078 0.797,9.809 1.598,18.25 0.398,4.234 0.395,4.113 0.797,7.84 0.402,3.711 0.394,3.59 0.793,6.69 0.407,3.16 0.394,3 0.403,2.83 0.394,2.69 0.402,2.54 0.395,2.37 0.797,4.29 0.402,1.89 0.395,1.71 0.402,1.57 0.395,1.4 0.402,1.21 0.394,1.08 0.403,0.87 0.394,0.72 0.403,0.54 0.394,0.35 0.403,0.18 0.39,0.03 0.406,-0.17 0.399,-0.36 0.398,-0.55 0.395,-0.69 0.402,-0.9 0.395,-1.1 0.398,-1.24 0.399,-1.44 0.406,-1.62 0.387,-1.82 0.406,-1.99 0.394,-2.17 0.403,-2.37 0.394,-2.53 0.797,-5.63 0.398,-3.09 0.399,-3.26 0.797,-7.08 0.429,-4.13 0.45,-4.359 0.843,-9.285 0.446,-4.957 0.433,-5.156 0.86,-10.934 0.429,-5.723 0.422,-5.957 0.871,-12.449 1.739,-27.043 0.429,-7.195 0.418,-7.371 0.875,-15.215 1.715,-32.246 3.461,-70.672 0.426,-9.316 0.449,-9.391 0.875,-19.047 1.715,-38.871 3.461,-79.414 0.426,-9.957 0.422,-9.942 0.871,-19.777 1.742,-39.035 3.433,-74.238 0.407,-8.219 0.418,-8.07 0.797,-15.789 1.621,-29.93 0.406,-7.102 0.39,-6.922 0.825,-13.371 1.59,-24.527 0.429,-5.633 0.391,-5.449 0.801,-10.262 0.402,-4.804 0.418,-4.582 0.797,-8.465 0.394,-3.914 0.403,-3.637 0.418,-3.406 0.406,-3.192 0.391,-2.914 0.406,-2.664 0.394,-2.414 0.43,-2.144 0.395,-1.918 0.402,-1.618 0.394,-1.371 0.403,-1.117 0.418,-0.82 0.406,-0.578 0.391,-0.274 0.406,-0.023 0.394,0.25 0.422,0.523 0.399,0.824 0.398,1.071 0.399,1.367 0.402,1.644 0.391,1.918 0.421,2.188 0.407,2.465 0.386,2.765 0.407,3.02 0.394,3.309 0.426,3.558 0.394,3.84 0.797,8.488 0.407,4.657 0.414,4.906 0.8,10.586 0.403,5.672 0.394,5.929 0.825,12.578 0.402,6.524 0.394,6.746 0.766,14.172 1.598,30.836 0.398,8.187 0.399,8.387 0.769,17.336 1.598,36.605 0.398,9.512 0.399,9.664 0.769,19.695 1.594,40.715 3.172,84.891 0.797,21.574 0.769,21.531 1.594,42.805 0.394,10.594 0.407,10.504 0.769,20.82 1.594,40.41 0.395,9.809 0.402,9.695 0.766,18.899 1.597,35.761 0.395,8.492 0.398,8.27 0.774,15.883 1.597,28.988 0.414,7.172 0.434,6.848 0.863,12.746 0.426,5.85 0.422,5.54 0.875,9.98 0.418,4.46 0.429,4.08 0.418,3.71 0.457,3.31 0.418,2.94 0.422,2.55 0.43,2.14 0.441,1.74 0.422,1.32 0.43,0.95 0.414,0.52 0.461,0.1 0.418,-0.31 0.422,-0.72 0.426,-1.14 0.421,-1.54 0.458,-1.97 0.414,-2.39 0.418,-2.81 0.433,-3.22 0.445,-3.61 0.415,-4.03 0.429,-4.46 0.422,-4.83 0.43,-5.23 0.445,-5.65 0.848,-12.429 0.875,-13.953 0.84,-15.383 0.429,-8.25 0.418,-8.554 0.871,-18.133 1.715,-39.918 0.43,-10.711 0.426,-10.926 0.867,-22.637 1.715,-47.839 3.422,-102.747 0.414,-12.328 0.406,-12.347 0.797,-24.758 1.593,-49.207 0.391,-12.18 0.406,-12.074 0.797,-23.906 1.614,-46.196 0.398,-11.156 0.394,-10.957 0.797,-21.289 0.407,-10.34 0.39,-10.07 0.801,-19.41 0.398,-9.282 0.399,-9.023 0.816,-17.105 0.403,-8.098 0.394,-7.766 0.797,-14.492 0.406,-6.699 0.395,-6.356 0.398,-5.976 0.399,-5.598 0.398,-5.183 0.399,-4.805 0.398,-4.383 0.395,-3.984 0.433,-3.559 0.395,-3.164 0.402,-2.691 0.395,-2.289 0.402,-1.844 0.394,-1.395 0.403,-0.945 0.394,-0.523 0.403,-0.051 0.394,0.402 0.403,0.844 0.39,1.293 0.406,1.746 0.399,2.191 0.422,2.641 0.394,3.109 0.403,3.536 0.394,3.984 0.406,4.433 0.391,4.86 0.406,5.301 0.391,5.73 0.801,12.676 0.445,7.566 0.422,8.047 0.879,17.434 0.418,9.383 0.441,9.816 0.879,20.812 0.422,11.012 0.426,11.379 0.871,23.758 1.746,51.273 0.414,13.473 0.457,13.723 0.863,28.011 1.723,57.852 3.484,118.082 0.426,14.551 0.453,14.41 0.84,28.348 1.742,54.16 0.449,12.894 0.43,12.578 0.863,24.157 0.434,11.523 0.441,11.156 0.875,21.047 0.418,9.887 0.434,9.391 0.441,8.941 0.422,8.434 0.453,7.918 0.418,7.407 0.45,6.87 0.425,6.3 0.422,5.74 0.446,5.17 0.421,4.58 0.45,3.98 0.429,3.39 0.446,2.78 0.421,2.15 0.426,1.52 0.422,0.89 0.445,0.28 0.43,-0.33 0.418,-0.94 0.43,-1.55 0.418,-2.16 0.418,-2.79 0.429,-3.39 0.426,-4.01 0.426,-4.57 0.441,-5.22 0.422,-5.77 0.43,-6.35 0.418,-6.92 0.851,-15.55 0.415,-8.586 0.433,-9.113 0.848,-19.754 0.441,-10.578 0.422,-11.078 0.848,-23.465 0.422,-12.371 0.429,-12.75 0.848,-26.598 1.715,-56.98 0.429,-14.871 0.415,-15.11 0.851,-30.703 1.715,-62.785 0.848,-31.625 0.843,-31.469 1.7,-61.687 0.445,-14.988 0.422,-14.743 0.847,-28.714 0.43,-13.918 0.422,-13.575 0.844,-26.019 0.426,-12.426 0.421,-11.976 0.868,-22.563 0.425,-10.535 0.422,-10.016 0.852,-18.371 0.387,-7.801 0.406,-7.269 0.394,-6.746 0.403,-6.176 0.394,-5.652 0.403,-5.059 0.394,-4.508 0.398,-3.91 0.399,-3.309 0.402,-2.742 0.395,-2.113 0.402,-1.492 0.375,-0.875 0.399,-0.274 0.398,0.348 0.395,0.969 0.406,1.597 0.39,2.219 0.407,2.836 0.394,3.461 0.403,4.059 0.394,4.683 0.399,5.254 0.398,5.879 0.398,6.449 0.399,7.02 0.402,7.594 0.391,8.144 0.406,8.691 0.395,9.215 0.796,19.973 0.403,10.707 0.371,11.18 0.793,23.707 1.594,52.148 0.406,13.922 0.394,14.191 0.793,29.235 1.594,60.961 0.406,15.636 0.391,15.719 0.801,31.625 1.566,63.168 0.403,15.617 0.394,15.516 0.797,30.48 1.594,58.274 0.425,14.996 0.446,14.59 0.847,27.836 0.446,13.176 0.422,12.656 0.847,23.609 0.453,10.879 0.422,10.258 0.418,9.586 0.453,8.91 0.422,8.23 0.43,7.46 0.445,6.75 0.418,5.97 0.43,5.19 0.422,4.43 0.441,3.59 0.426,2.81 0.426,1.96 0.453,1.15 0.422,0.33 0.414,-0.5 0.461,-1.37 0.418,-2.17 0.422,-3.03 0.449,-3.84 0.422,-4.68 0.429,-5.48 0.414,-6.28 0.446,-7.07 0.433,-7.87 0.422,-8.611 0.446,-9.367 0.421,-10.082 0.426,-10.809 0.449,-11.457 0.84,-24.899 0.43,-13.375 0.445,-13.968 0.852,-29.481 1.734,-64.508 0.434,-17.05 0.418,-17.36 0.875,-35.437 1.715,-72.664 3.433,-142.914 0.426,-15.688 0.394,-15.39 0.797,-29.633 0.407,-14.196 0.39,-13.746 0.824,-25.996 0.403,-12.23 0.394,-11.625 0.403,-11.063 0.394,-10.433 0.399,-9.785 0.394,-9.141 0.438,-8.438 0.39,-7.75 0.407,-6.996 0.394,-6.273 0.399,-5.527 0.398,-4.758 0.422,-3.957 0.394,-3.192 0.407,-2.359 0.39,-1.574 0.406,-0.746 0.391,0.05 0.406,0.871 0.418,1.719 0.399,2.516 0.398,3.308 0.403,4.137 0.394,4.957 0.395,5.727 0.402,6.5 0.418,7.293 0.406,8.019 0.391,8.793 0.402,9.488 0.797,21.094 0.422,11.528 0.398,12.175 0.801,26.149 1.621,58.691 0.399,15.817 0.398,16.234 0.797,33.441 1.621,70.032 3.211,143.382 0.422,18.879 0.441,18.602 0.875,36.109 0.422,17.426 0.453,16.922 0.864,32.172 0.429,15.164 0.446,14.488 0.429,13.801 0.446,12.996 0.421,12.227 0.454,11.406 0.418,10.527 0.445,9.648 0.43,8.71 0.445,7.77 0.418,6.78 0.461,5.79 0.418,4.76 0.445,3.76 0.426,2.69 0.445,1.64 0.426,0.58 0.445,-0.48 0.418,-1.54 0.461,-2.64 0.422,-3.66 0.441,-4.74 0.43,-5.77 0.445,-6.83 0.418,-7.81 0.457,-8.79 0.418,-9.79 0.446,-10.726 0.429,-11.637 0.446,-12.519 0.875,-27.543 0.418,-14.969 0.453,-15.688 0.867,-33.425 1.746,-73.508 0.426,-19.477 0.449,-19.82 0.867,-40.367 1.75,-82.051 0.418,-20.442 0.446,-20.3 0.875,-39.868 1.746,-75.253 0.421,-17.231 0.415,-16.66 0.878,-31.281 0.418,-14.539 0.426,-13.774 0.852,-25.027 0.441,-11.156 0.422,-10.235 0.43,-9.238 0.422,-8.266 0.425,-7.222 0.422,-6.153 0.446,-5.105 0.429,-4.012 0.418,-2.883 0.43,-1.769 0.418,-0.649 0.418,0.473 0.461,1.617 0.418,2.738 0.426,3.864 0.418,5.004 0.421,6.074 0.454,7.172 0.417,8.242 0.422,9.293 0.43,10.309 0.422,11.277 0.871,25.426 0.422,14.074 0.426,14.914 0.851,32.148 1.715,72.371 0.426,19.446 0.418,19.898 0.875,40.785 1.715,83.977 0.429,21.094 0.418,21.015 0.848,41.504 0.422,20.383 0.457,19.988 0.832,38.731 0.434,18.574 0.417,17.977 0.875,33.941 0.418,15.84 0.43,15.015 0.852,27.368 0.386,11.48 0.399,10.582 0.43,9.679 0.39,8.77 0.403,7.8 0.398,6.82 0.398,5.81 0.399,4.78 0.398,3.74 0.395,2.68 0.402,1.61 0.395,0.56 0.406,-0.5 0.391,-1.59 0.406,-2.67 0.394,-3.73 0.399,-4.81 0.394,-5.83 0.403,-6.87 0.394,-7.9 0.403,-8.86 0.394,-9.868 0.406,-10.773 0.391,-11.731 0.402,-12.582 0.399,-13.441 0.797,-29.289 0.398,-15.731 0.395,-16.461 0.796,-34.746 0.407,-18.199 0.39,-18.703 0.801,-38.621 1.613,-80.633 0.797,-41.09 0.801,-40.918 1.594,-79.465 0.398,-19.023 0.399,-18.555 0.793,-35.531 0.406,-16.859 0.394,-16.164 0.797,-30.157 0.403,-13.871 0.394,-12.996 0.399,-12.105 0.394,-11.153 0.406,-10.187 0.391,-9.164 0.406,-8.145 0.395,-7.047 0.457,-6.425 0.418,-5.102 0.422,-3.789 0.453,-2.438 0.418,-1.074 0.429,0.301 0.446,1.645 0.414,3.035 0.461,4.386 0.418,5.727 0.422,7.047 0.453,8.371 0.422,9.633 0.425,10.859 0.442,12.102 0.426,13.25 0.453,14.34 0.422,15.441 0.871,33.84 0.422,18.304 0.445,19.106 0.847,40.437 0.454,21.168 0.421,21.688 0.875,44.672 1.711,92.097 0.454,23.086 0.418,22.922 0.878,45.11 0.418,21.988 0.446,21.516 0.847,41.187 0.446,19.547 0.425,18.73 0.418,17.821 0.461,16.91 0.418,15.89 0.446,14.79 0.429,13.648 0.422,12.48 0.446,11.202 0.421,9.9 0.426,8.61 0.453,7.21 0.414,5.81 0.446,4.39 0.429,2.93 0.426,1.5 h 0.442 l 0.425,-1.48 0.426,-2.92 0.453,-4.4 0.418,-5.85 0.449,-7.27 0.434,-8.67 0.414,-10.06 0.414,-10.577 0.406,-11.707 0.391,-12.805 0.406,-13.867 0.391,-14.867 0.43,-15.809 0.8,-34.266 0.395,-18.355 0.426,-19.043 0.797,-40.055 1.621,-85.758 0.394,-22.164 0.403,-22.332 0.82,-44.781 1.621,-87.855 0.394,-21.145 0.399,-20.668 0.82,-39.617 0.403,-18.777 0.394,-18.032 0.824,-33.492 0.399,-15.34 0.398,-14.316 0.395,-13.274 0.402,-12.152 0.426,-10.98 0.394,-9.793 0.399,-8.539 0.394,-7.27 0.426,-5.953 0.402,-4.656 0.395,-3.289 0.398,-1.942 0.403,-0.547 0.422,0.821 0.398,2.191 0.395,3.559 0.402,4.91 0.426,6.273 0.394,7.574 0.399,8.887 0.402,10.16 0.395,11.383 0.425,12.57 0.395,13.75 0.398,14.817 0.403,15.887 0.82,34.664 0.398,18.675 0.399,19.45 0.82,41.039 0.399,20.992 0.402,21.469 0.769,44.078 1.594,90.449 0.399,22.629 0.394,22.441 0.805,44.102 1.566,82.68 0.395,19.066 0.398,18.281 0.403,17.43 0.394,16.535 0.402,15.52 0.395,14.515 0.398,13.399 0.379,12.254 0.395,11.053 0.398,9.84 0.399,8.54 0.398,7.24 0.403,5.9 0.394,4.54 0.399,3.13 0.398,1.78 0.398,0.34 0.403,-1.07 0.371,-2.46 0.398,-3.9 0.399,-5.25 0.398,-6.64 0.395,-8 0.402,-9.29 0.398,-10.601 0.399,-11.852 0.398,-13.078 0.395,-14.226 0.379,-15.332 0.398,-16.387 0.797,-35.711 0.395,-19.168 0.402,-19.973 0.793,-42.011 1.566,-90.024 0.403,-23.289 0.398,-23.383 0.797,-46.781 1.594,-91.148 0.426,-23.582 0.421,-22.887 0.871,-43.25 0.422,-20.172 0.426,-19.055 0.871,-34.484 0.422,-15.246 0.422,-13.82 0.449,-12.352 0.426,-10.758 0.426,-9.187 0.418,-7.52 0.449,-5.824 0.426,-4.113 0.426,-2.364 0.417,-0.601 0.45,1.148 0.425,2.91 0.418,4.657 0.426,6.402 0.449,8.117 0.426,9.766 0.418,11.398 0.426,12.981 0.449,14.515 0.426,15.938 0.418,17.328 0.426,18.629 0.871,40.84 0.422,21.992 0.425,22.933 0.872,48.161 1.714,102.445 0.852,52.297 0.867,51.695 1.723,97.598 0.422,22.48 0.422,21.516 0.449,20.402 0.426,19.196 0.421,17.91 0.446,16.508 0.426,15.039 0.421,13.519 0.426,11.889 0.446,10.22 0.425,8.47 0.422,6.73 0.422,4.9 0.449,3.06 0.426,1.23 0.426,-0.67 0.394,-2.3 0.399,-3.9 0.394,-5.54 0.403,-7.08 0.425,-8.68 0.395,-10.15 0.398,-11.663 0.403,-13.09 0.394,-14.477 0.403,-15.761 0.797,-35.239 0.398,-19.297 0.422,-20.328 0.793,-43.328 0.402,-22.812 0.399,-23.473 0.796,-48.437 1.618,-99.965 0.398,-24.992 0.402,-24.758 0.793,-48.41 0.399,-23.434 0.398,-22.762 0.797,-43.152 0.402,-20.199 0.418,-19.149 0.403,-18.027 0.398,-16.789 0.395,-15.512 0.402,-14.121 0.395,-12.699 0.402,-11.207 0.398,-9.656 0.395,-8.075 0.402,-6.425 0.422,-4.754 0.399,-3.086 0.398,-1.371 0.398,0.351 0.399,2.039 0.398,3.762 0.399,5.476 0.398,7.125 0.399,8.79 0.422,10.386 0.402,11.953 0.394,13.446 0.403,14.886 0.394,16.289 0.399,17.61 0.797,38.828 0.402,21.012 0.394,22.019 0.825,46.461 0.422,26.324 0.449,26.942 0.847,55.129 1.743,111.172 0.445,27.066 0.426,26.492 0.875,50.637 0.441,23.828 0.426,22.703 0.875,41.434 0.418,18.535 0.449,16.883 0.426,15.164 0.449,13.356 0.422,11.48 0.445,9.53 0.426,7.52 0.449,5.48 0.422,3.39 0.426,1.27 0.445,-0.85 0.426,-2.96 0.445,-5.08 0.426,-7.14 0.449,-9.23 0.422,-11.2 0.446,-13.125 0.425,-15.019 0.426,-16.778 0.449,-18.48 0.418,-20.07 0.45,-21.543 0.875,-47.04 0.417,-25.226 0.454,-26.191 0.871,-54.618 1.715,-113.847 0.449,-28.469 0.426,-28.137 0.867,-54.664 0.449,-26.172 0.426,-25.25 0.871,-46.968 0.422,-21.489 0.449,-19.945 0.426,-18.332 0.445,-16.582 0.426,-14.738 0.445,-12.805 0.426,-10.781 0.445,-8.715 0.426,-6.477 0.426,-4.359 0.422,-2.242 0.422,-0.094 0.421,2.039 0.426,4.184 0.445,6.3 0.426,8.395 0.422,10.433 0.426,12.403 0.422,14.34 0.426,16.195 0.421,17.895 0.422,19.578 0.871,43.652 0.426,23.832 0.422,24.977 0.848,52.863 1.718,112.984 0.422,28.789 0.422,28.692 0.848,56.398 0.426,27.34 0.449,26.598 0.844,50.254 0.422,23.359 0.425,21.988 0.422,20.492 0.426,18.879 0.445,17.141 0.426,15.305 0.422,13.381 0.426,11.35 0.422,9.26 0.421,7.12 0.422,4.94 0.45,2.7 0.425,0.49 0.422,-1.8 0.426,-4.04 0.422,-6.22 0.422,-8.44 0.426,-10.58 0.425,-12.66 0.446,-14.697 0.421,-16.574 0.422,-18.434 0.426,-20.14 0.422,-21.738 0.426,-23.219 0.422,-24.547 0.871,-52.516 1.691,-114.16 0.797,-54.93 0.797,-54.414 0.398,-26.644 0.403,-26.07 0.797,-49.907 0.394,-23.582 0.399,-22.465 0.402,-21.238 0.394,-19.898 0.403,-18.453 0.394,-16.911 0.403,-15.285 0.398,-13.527 0.395,-11.75 0.402,-9.859 0.394,-7.969 0.403,-5.977 0.398,-3.984 0.395,-1.945 0.402,0.097 0.395,2.145 0.398,4.183 0.402,6.203 0.395,8.165 0.402,10.136 0.395,12.024 0.398,13.847 0.403,15.618 0.394,17.281 0.403,18.875 0.394,20.347 0.801,44.696 0.371,24.109 0.398,25.102 0.797,52.664 0.403,27.273 0.394,27.688 0.797,56.054 1.598,110.399 0.394,26.336 0.399,25.558 0.402,24.602 0.394,23.531 0.403,22.317 0.394,20.964 0.399,19.504 0.402,17.922 0.395,16.262 0.398,14.492 0.399,12.629 0.398,10.7 0.402,8.73 0.395,6.67 0.398,4.58 0.399,2.49 0.426,0.28 0.449,-2.25 0.422,-4.73 0.421,-7.2 0.45,-9.63 0.425,-12 0.418,-14.296 0.45,-16.485 0.425,-18.605 0.422,-20.547 0.871,-46.469 0.426,-25.601 0.449,-26.965 0.844,-57.281 0.449,-29.93 0.426,-30.5 0.867,-62.012 0.426,-31.054 0.418,-30.801 0.875,-60.067 0.426,-28.812 0.445,-27.762 0.426,-26.523 0.422,-25.075 0.449,-23.46 0.422,-21.692 0.426,-19.746 0.449,-17.68 0.422,-15.488 0.422,-13.199 0.449,-10.809 0.426,-8.316 0.418,-5.801 0.449,-3.187 0.426,-0.602 0.422,2.02 0.445,4.605 0.426,7.199 0.425,9.735 0.45,12.203 0.418,14.57 0.425,16.879 0.45,19.055 0.425,21.093 0.418,22.981 0.45,24.726 0.843,54.016 1.746,120.703 0.422,31.602 0.426,31.726 0.871,62.926 0.426,30.777 0.422,30.008 0.871,56.906 0.398,24.754 0.426,23.375 0.395,21.895 0.402,20.246 0.395,18.445 0.402,16.594 0.398,14.566 0.418,12.47 0.403,10.31 0.394,8.07 0.403,5.78 0.398,3.43 0.394,1.08 0.426,-1.3 0.403,-3.64 0.394,-6 0.402,-8.31 0.395,-10.58 0.426,-12.78 0.398,-14.889 0.395,-16.945 0.402,-18.848 0.395,-20.66 0.402,-22.348 0.422,-23.875 0.394,-25.277 0.801,-54.09 1.617,-117.387 0.403,-30.175 0.394,-30.137 0.824,-59.371 0.399,-28.832 0.398,-28.043 0.797,-52.918 0.399,-24.551 0.422,-23.035 0.398,-21.418 0.394,-19.594 0.403,-17.707 0.398,-15.664 0.422,-13.523 0.402,-11.305 0.399,-8.988 0.394,-6.629 0.403,-4.207 0.394,-1.77 0.426,0.699 0.399,3.165 0.398,5.578 0.398,7.992 0.395,10.387 0.402,12.652 0.422,14.871 0.399,16.977 0.398,19 0.402,20.918 0.821,46.89 0.371,25.199 0.398,26.426 0.797,55.879 1.567,118.879 0.402,30.109 0.398,29.891 0.797,58.289 0.395,28.047 0.402,27.066 0.77,50.5 0.402,23.114 0.394,21.488 0.403,19.695 0.398,17.801 0.395,15.793 0.379,13.651 0.394,11.45 0.399,9.14 0.394,6.8 0.403,4.38 0.402,1.97 0.394,-0.5 0.375,-2.93 0.395,-5.39 0.402,-7.79 0.399,-10.14 0.394,-12.42 0.403,-14.647 0.394,-16.762 0.375,-18.796 0.399,-20.672 0.398,-22.442 0.797,-49.574 0.398,-26.82 0.399,-27.914 0.773,-58.504 1.594,-122.039 0.398,-30.383 0.399,-29.93 0.769,-57.726 0.403,-27.391 0.394,-26.195 0.801,-47.989 0.395,-21.492 0.375,-19.621 0.398,-17.633 0.398,-15.488 0.403,-13.273 0.394,-10.957 0.403,-8.559 0.394,-6.109 0.426,-3.782 0.422,-0.8 0.422,2.191 0.422,5.156 0.453,8.09 0.422,10.981 0.421,13.8 0.422,16.461 0.426,19.047 0.449,21.469 0.422,23.683 0.426,25.77 0.422,27.617 0.422,29.289 0.875,62.504 0.422,32.742 0.421,33.395 0.872,67.656 0.421,33.723 0.426,33.269 0.871,64.18 0.422,30.379 0.426,28.879 0.426,27.199 0.418,25.223 0.449,23.113 0.426,20.766 0.425,18.254 0.418,15.592 0.426,12.79 0.449,9.89 0.422,6.92 0.422,3.87 0.426,0.8 0.449,-2.32 0.418,-5.38 0.426,-8.45 0.426,-11.4 0.426,-14.29 0.441,-17.065 0.426,-19.672 0.425,-22.188 0.418,-24.453 0.875,-55.008 0.426,-30.086 0.418,-31.496 0.852,-66.113 1.719,-137.117 0.417,-33.59 0.45,-32.801 0.425,-31.676 0.426,-30.304 0.418,-28.688 0.449,-26.793 0.426,-24.707 0.418,-22.41 0.403,-18.625 0.402,-16.336 0.394,-13.871 0.399,-11.356 0.394,-8.691 0.403,-6 0.398,-3.262 0.399,-0.472 0.398,2.289 0.426,5.078 0.394,7.797 0.403,10.508 0.394,13.097 0.403,15.59 0.398,18.027 0.395,20.274 0.402,22.414 0.394,24.351 0.801,53.887 0.395,29.113 0.402,30.309 0.797,63.149 0.398,32.421 0.395,32.645 0.82,65 0.403,31.875 0.398,31.125 0.797,59.098 0.394,27.539 0.403,25.871 0.398,24.058 0.399,22.063 0.398,19.844 0.395,17.531 0.402,15.047 0.398,12.45 0.399,9.76 0.402,7 0.39,4.18 0.4,1.3 0.4,-1.55 0.42,-4.43 0.4,-7.25 0.4,-10.03 0.4,-12.75 0.4,-15.36 0.39,-17.887 0.41,-20.218 0.4,-22.457 0.39,-24.489 0.8,-54.379 0.4,-29.468 0.4,-30.704 0.79,-64.101 1.62,-132.074 0.42,-35.039 0.43,-34.094 0.44,-32.844 0.43,-31.305 0.45,-29.433 0.42,-27.344 0.43,-24.976 0.44,-22.387 0.43,-19.571 0.45,-16.585 0.42,-13.45 0.42,-10.16 0.45,-6.797 0.42,-3.336 0.45,0.121 0.42,3.586 0.43,7.075 0.45,10.433 0.42,13.746 0.45,16.91 0.42,19.922 0.42,22.782 0.45,25.425 0.43,27.817 0.44,29.957 0.42,31.836 0.88,68.078 1.74,144.777 0.43,36.031 0.42,35.27 0.45,34.215 0.42,32.793 0.45,31.074 0.42,29.066 0.42,26.797 0.45,24.254 0.43,21.465 0.44,18.498 0.43,15.32 0.42,12.02 0.45,8.6 0.42,5.08 0.45,1.52 0.43,-2.07 0.42,-5.66 0.44,-9.16 0.43,-12.6 0.45,-15.935 0.42,-19.125 0.42,-22.093 0.45,-24.899 0.43,-27.461 0.44,-29.762 0.43,-31.753 0.87,-68.36 1.74,-146.625 0.4,-34.238 0.4,-33.668 0.82,-64.422 0.4,-30.18 0.4,-28.511 0.4,-26.598 0.42,-24.453 0.4,-22.067 0.4,-19.519 0.39,-16.789 0.43,-13.945 0.4,-10.93 0.39,-7.844 0.4,-4.683 0.43,-1.493 0.39,1.719 0.4,4.957 0.4,8.09 0.42,11.23 0.41,14.223 0.39,17.129 0.4,19.875 0.43,22.461 0.39,24.852 0.4,27.023 0.82,59.687 0.4,32.149 0.4,33.32 0.82,68.985 0.8,70.125 0.82,68.871 0.4,33.195 0.4,32.004 0.82,59.269 0.4,26.77 0.4,24.504 0.39,22.066 0.43,19.395 0.4,16.584 0.39,13.62 0.4,10.5 0.43,7.3 0.39,4.07 0.4,0.77 0.4,-2.57 0.42,-5.86 0.4,-9.08 0.4,-12.27 0.4,-15.326 0.43,-18.25 0.39,-21.047 0.4,-23.633 0.4,-26.019 0.42,-28.192 0.41,-30.097 0.39,-31.758 0.82,-67.305 0.4,-34.293 0.4,-34.734 0.77,-69.656 0.4,-34.317 0.4,-33.593 0.79,-63.825 0.41,-29.711 0.39,-27.859 0.4,-25.77 0.4,-23.515 0.4,-20.996 0.39,-18.297 0.4,-15.465 0.4,-12.477 0.41,-9.39 0.39,-6.199 0.4,-2.965 0.37,0.297 0.4,3.566 0.4,6.797 0.39,10.008 0.4,13.101 0.4,16.082 0.4,18.953 0.4,21.641 0.4,24.152 0.4,26.454 0.39,28.507 0.8,62.258 0.4,33.219 0.4,34.191 0.77,70.172 0.4,35.367 0.4,35.137 0.79,68.336 0.4,32.617 0.4,31.172 0.4,29.485 0.4,27.496 0.39,25.304 0.4,22.836 0.4,20.196 0.4,17.375 0.4,14.37 0.37,11.29 0.4,8.03 0.4,4.76 0.4,1.4 0.4,-1.97 0.39,-5.27 0.4,-8.62 0.4,-11.84 0.4,-14.96 0.4,-17.96 0.4,-20.785 0.4,-23.461 0.39,-25.918 0.8,-58.231 0.42,-34.562 0.43,-36.238 0.87,-75.793 0.42,-38.801 0.43,-38.824 0.87,-76.199 0.42,-36.536 0.42,-34.961 0.45,-33.019 0.42,-30.731 0.43,-28.113 0.45,-25.176 0.42,-21.964 0.42,-18.528 0.43,-14.894 0.45,-11.078 0.42,-7.125 0.42,-3.133 0.45,0.918 0.43,4.953 0.42,8.992 0.42,12.875 0.45,16.637 0.42,20.265 0.42,23.633 0.45,26.774 0.43,29.609 0.42,32.148 0.87,70.5 0.43,37.579 0.42,38.597 0.87,78.563 0.43,39.129 0.42,38.421 0.87,73.184 0.42,33.922 0.45,31.652 0.42,29.032 0.43,26.074 0.42,22.836 0.45,19.347 0.42,15.63 0.43,11.76 0.44,7.75 0.43,3.63 0.42,-0.52 0.42,-4.68 0.45,-8.79 0.43,-12.8 0.42,-16.68 0.44,-20.401 0.43,-23.852 0.42,-27.078 0.43,-30.008 0.44,-32.59 0.43,-34.816 0.42,-36.684 0.87,-77.246 0.4,-37.05 0.4,-37.204 0.8,-73.441 0.39,-35.508 0.43,-34.219 0.8,-63.3 0.4,-28.438 0.39,-25.949 0.4,-23.156 0.41,-20.149 0.39,-16.98 0.42,-13.574 0.4,-10.086 0.4,-6.473 0.4,-2.793 0.39,0.945 0.4,4.637 0.4,8.289 0.42,11.883 0.4,15.363 0.4,18.703 0.4,21.809 0.4,24.781 0.4,27.469 0.79,61.883 0.43,33.836 0.4,35.312 0.79,73.641 0.4,37.605 0.4,37.649 0.82,73.836 0.4,35.484 0.4,34.02 0.8,62.402 0.39,27.719 0.4,25.031 0.4,22.062 0.42,18.916 0.4,15.52 0.4,12.03 0.4,8.34 0.4,4.6 0.39,0.83 0.41,-2.99 0.39,-6.75 0.43,-10.48 0.4,-14.1 0.39,-17.556 0.4,-20.864 0.4,-23.96 0.4,-26.786 0.4,-29.421 0.82,-65.344 0.4,-35.285 0.39,-36.551 0.8,-75.43 0.45,-41.32 0.42,-40.961 0.87,-78.942 0.45,-37.05 0.43,-34.789 0.45,-32.172 0.42,-29.114 0.45,-25.722 0.42,-22.039 0.43,-18.028 0.44,-13.824 0.42,-9.465 0.45,-4.98 0.43,-0.395 0.44,4.18 0.43,8.691 0.45,13.125 0.42,17.383 0.45,21.465 0.42,25.274 0.45,28.765 0.42,31.949 0.45,34.692 0.42,37.074 0.45,38.949 0.87,81.731 1.75,164.508 0.42,38.39 0.45,36.344 0.42,33.808 0.45,30.883 0.42,27.567 0.43,23.875 0.45,19.955 0.42,15.71 0.45,11.31 0.42,6.75 0.45,2.09 0.42,-2.59 0.45,-7.23 0.42,-11.8 0.45,-16.23 0.42,-20.473 0.45,-24.453 0.43,-28.114 0.45,-31.476 0.42,-34.418 0.45,-36.93 0.42,-38.996 0.87,-82.207 0.45,-42.183 0.42,-42.211 0.87,-82.371 0.45,-39.122 0.43,-37.082 0.45,-34.562 0.42,-31.629 0.42,-27.793 0.43,-24.203 0.42,-20.348 0.44,-16.234 0.43,-11.906 0.42,-7.414 0.42,-2.844 0.43,1.769 0.43,6.352 0.44,10.879 0.42,15.293 0.43,19.496 0.42,23.457 0.42,27.168 0.43,30.558 0.45,33.52 0.42,36.109 0.42,38.246 0.85,81.055 0.42,41.793 0.45,41.957 0.85,82.301 0.42,39.348 0.42,37.476 0.43,35.137 0.44,32.348 0.43,29.187 0.42,25.652 0.43,21.768 0.42,17.62 0.42,13.25 0.45,8.73 0.42,4.04 0.43,-0.64 0.42,-5.35 0.43,-10.01 0.42,-14.52 0.45,-18.88 0.42,-23.008 0.42,-26.816 0.43,-30.332 0.42,-33.449 0.42,-36.157 0.42,-38.421 0.88,-81.633 0.42,-42.207 0.43,-42.407 0.84,-83.343 0.45,-39.844 0.42,-37.984 0.43,-35.61 0.42,-32.801 0.42,-29.554 0.43,-25.922 0.45,-21.969 0.42,-17.73 0.42,-13.246 0.43,-8.618 0.42,-3.855 0.42,0.945 0.41,5.231 0.39,9.359 0.4,13.375 0.4,17.277 0.4,20.973 0.39,24.43 0.4,27.64 0.4,30.504 0.4,33.098 0.42,35.262 0.79,75.504 1.6,158.828 0.4,38.742 0.4,37.48 0.4,35.789 0.39,33.688 0.4,31.203 0.4,28.391 0.4,25.199 0.4,21.766 0.4,18.082 0.4,14.16 0.39,10.12 0.4,5.9 0.4,1.64 0.4,-2.61 0.4,-6.9 0.39,-11.08 0.4,-15.12 0.4,-19.028 0.4,-22.707 0.4,-26.153 0.4,-29.258 0.4,-32.07 0.79,-71.074 0.4,-38.168 0.4,-39.371 0.8,-80.535 0.39,-40.25 0.4,-39.59 0.8,-75.453 0.4,-34.989 0.4,-32.621 0.4,-29.883 0.39,-26.796 0.4,-23.36 0.4,-19.695 0.4,-15.762 0.4,-11.679 0.39,-7.45 0.4,-3.113 0.41,1.246 0.39,5.629 0.4,9.91 0.4,14.094 0.4,18.129 0.4,21.965 0.42,27.84 0.45,31.652 0.42,35.039 0.43,37.976 0.44,40.368 0.43,42.183 0.87,87.629 0.42,44.227 0.45,43.679 0.42,42.536 0.42,40.785 0.45,38.527 0.43,35.656 0.42,32.352 0.45,28.566 0.42,24.375 0.45,19.872 0.43,15.06 0.42,10.06 0.44,4.91 0.43,-0.35 0.43,-5.58 0.44,-10.75 0.42,-15.74 0.43,-20.568 0.45,-25.101 0.42,-29.262 0.42,-33.043 0.45,-36.383 0.87,-80.609 0.42,-43.133 0.43,-44.226 0.87,-89.223 0.42,-43.754 0.45,-42.332 0.85,-78.148 0.45,-34.661 0.42,-31.082 0.45,-27.039 0.42,-22.613 0.43,-17.879 0.44,-12.851 0.42,-7.668 0.43,-2.368 0.45,2.989 0.42,8.316 0.42,13.5 0.45,18.523 0.43,23.258 0.42,27.723 0.45,31.746 0.42,35.336 0.45,38.422 0.42,40.992 0.87,87.258 1.72,177.976 0.4,38.829 0.4,36.722 0.42,34.199 0.4,31.192 0.4,27.844 0.4,24.14 0.42,20.098 0.4,15.8 0.4,11.34 0.4,6.67 0.4,1.97 0.42,-2.79 0.4,-7.52 0.39,-12.15 0.4,-16.64 0.4,-20.918 0.42,-24.926 0.4,-28.664 0.4,-31.977 0.4,-34.937 0.4,-37.45 0.42,-39.492 0.8,-83.054 0.4,-42.508 0.4,-42.457 0.82,-82.602 0.4,-39.097 0.39,-36.93 0.4,-34.289 0.43,-31.258 0.39,-27.762 0.4,-23.929 0.4,-19.825 0.42,-15.39 0.4,-10.832 0.4,-6.051 0.41,-1.27 0.39,3.61 0.42,8.394 0.4,13.098 0.4,17.629 0.4,21.965 0.4,25.976 0.42,29.707 0.4,32.992 0.4,35.938 0.39,38.348 0.4,40.293 0.82,84.367 0.4,42.953 0.4,42.758 0.83,82.609 0.39,38.789 0.4,36.461 0.4,33.621 0.4,30.324 0.42,26.7 0.4,22.64 0.4,18.326 0.39,13.77 0.4,8.88 0.4,4.22 0.4,-0.52 0.4,-5.29 0.4,-9.93 0.4,-14.49 0.4,-18.884 0.37,-23.008 0.4,-26.867 0.39,-30.379 0.4,-33.543 0.4,-36.242 0.4,-38.519 0.4,-40.289 0.8,-83.84 0.37,-42.512 0.4,-42.187 0.4,-41.313 0.39,-39.918 0.4,-38.004 0.4,-35.609 0.4,-32.797 0.4,-29.508 0.37,-25.871 0.4,-21.891 0.4,-17.609 0.4,-13.145 0.4,-8.464 0.39,-3.688 0.4,1.117 0.4,5.953 0.4,10.707 0.37,15.317 0.4,19.723 0.4,23.929 0.4,27.766 0.4,31.305 0.39,34.414 0.4,37.101 0.4,39.301 0.4,40.988 0.77,84.946 0.4,42.847 0.4,42.387 0.8,81.152 0.39,37.707 0.4,35.141 0.41,32.094 0.36,28.664 0.41,24.828 0.39,20.67 0.4,16.24 0.4,11.63 0.4,6.8 0.4,1.91 0.39,-2.98 0.4,-7.9 0.37,-12.67 0.4,-17.29 0.41,-21.711 0.39,-25.828 0.43,-32.293 0.44,-36.262 0.42,-39.691 0.43,-42.481 0.42,-44.625 0.45,-46.121 0.85,-93.711 0.42,-46.191 0.45,-44.75 0.42,-42.656 0.43,-39.895 0.42,-36.461 0.42,-32.519 0.45,-28.016 0.43,-23.109 0.42,-17.828 0.42,-12.247 0.45,-6.507 0.42,-0.621 0.42,5.277 0.43,11.086 0.45,16.73 0.42,22.118 0.42,27.167 0.43,31.797 0.45,35.911 0.42,39.519 0.42,42.461 0.43,44.746 0.87,93.535 0.42,47.336 0.43,46.695 0.42,45.344 0.44,43.254 0.43,40.496 0.42,37.074 0.42,33.102 0.46,28.559 0.42,23.586 0.42,18.2 0.42,12.55 0.45,6.7 0.43,0.73 0.42,-5.28 0.42,-11.19 0.45,-16.93 0.43,-22.386 0.42,-27.539 0.42,-32.227 0.45,-36.433 0.42,-40.016 0.42,-42.988 0.85,-92.109 0.45,-47.661 0.42,-47.691 0.43,-47.016 0.42,-45.519 0.45,-43.328 0.42,-40.422 0.43,-36.879 0.42,-32.719 0.4,-26.324 0.42,-21.891 0.4,-17.109 0.4,-12.098 0.4,-6.925 0.39,-1.645 0.4,3.66 0.4,8.942 0.4,14.074 0.4,19.023 0.4,23.731 0.4,28.066 0.39,32.024 0.43,35.558 0.79,79.613 0.4,42.907 0.4,44.222 0.8,89.778 0.39,44.281 0.4,43.055 0.8,79.91 0.41,35.73 0.43,32.227 0.39,28.242 0.39,23.852 0.4,19.16 0.4,14.14 0.39,8.91 0.41,3.58 0.39,-1.84 0.41,-7.2 0.39,-12.47 0.39,-17.57 0.43,-22.472 0.4,-26.996 0.4,-31.153 0.39,-34.867 0.4,-38.066 0.4,-40.742 0.8,-87.161 1.6,-179.046 0.42,-41.989 0.4,-39.617 0.4,-36.68 0.39,-33.222 0.41,-29.235 0.39,-24.879 0.4,-20.097 0.4,-15.063 0.39,-9.808 0.41,-4.36 0.39,1.094 0.4,6.602 0.42,11.953 0.4,17.207 0.4,22.137 0.39,26.82 0.45,34.937 0.45,39.621 0.45,43.602 0.45,46.742 0.45,49.11 0.45,50.5 0.88,101.632 0.44,49.254 0.44,46.985 0.45,43.882 0.45,39.946 0.45,35.285 0.45,29.98 0.44,24.104 0.45,17.78 0.45,11.13 0.45,4.26 0.45,-2.7 0.45,-9.59 0.45,-16.35 0.44,-22.778 0.45,-28.844 0.45,-34.308 0.45,-39.2 0.45,-43.359 0.9,-95.891 0.45,-50.777 0.41,-51.426 0.9,-100.953 0.45,-47.664 0.45,-44.551 0.45,-40.664 0.44,-35.984 0.45,-30.606 0.45,-24.707 0.45,-18.273 0.45,-11.555 0.45,-4.558 0.45,2.488 0.45,9.515 0.45,16.36 0.44,22.933 0.45,29.04 0.45,34.636 0.45,39.598 0.44,43.777 0.44,47.188 0.9,100.906 0.43,51.844 0.45,51.453 0.9,97.941 0.45,44.598 0.45,40.566 0.44,35.711 0.45,30.227 0.45,24.137 0.45,17.58 0.44,10.69 0.44,3.58"
         style="fill:none;stroke:#3871c1;stroke-width:7.5;stroke-linecap:square;stroke-linejoin:miter;stroke-miterlimit:3.25;stroke-dasharray:none;stroke-opacity:1"
         transform="matrix(0.13333333,0,0,-0.13333333,0,144.89333)" />
      <path
         id="path3"
         d="m 1794.71,958.355 0.41,-0.175 1.19,-0.598 1.62,-0.848 3.19,-1.921 0.8,-0.497 0.79,-0.523 1.59,-1.02 3.21,-2.011 0.41,-0.227 0.39,-0.246 1.6,-0.898 0.8,-0.43 0.4,-0.227 0.39,-0.195 0.79,-0.375 0.8,-0.344 0.8,-0.324 0.41,-0.148 0.39,-0.125 0.42,-0.149 0.4,-0.125 0.39,-0.105 0.4,-0.121 0.4,-0.102 1.6,-0.297 0.4,-0.047 1.59,-0.101 h 0.45 l 0.85,0.051 0.45,0.027 0.84,0.094 0.45,0.078 0.42,0.078 0.45,0.094 0.42,0.101 0.42,0.125 0.45,0.125 0.43,0.125 0.45,0.149 0.84,0.32 0.45,0.176 0.43,0.195 0.86,0.406 1.75,0.875 0.42,0.219 0.43,0.25 0.86,0.496 1.76,1.02 0.41,0.273 0.45,0.25 0.85,0.524 1.74,1.015 0.43,0.235 0.43,0.25 1.31,0.644 0.42,0.195 0.89,0.375 0.41,0.145 0.45,0.152 0.42,0.149 0.45,0.125 0.42,0.097 0.43,0.079 0.45,0.074 0.42,0.054 0.45,0.028 0.42,0.015 0.42,-0.015 0.45,-0.028 0.41,-0.078 0.45,-0.074 0.86,-0.25 0.41,-0.144 0.8,-0.403 0.4,-0.222 0.42,-0.25 0.8,-0.602 0.4,-0.34 0.43,-0.379 0.4,-0.402 0.79,-0.895 0.44,-0.492 0.39,-0.555 0.79,-1.14 0.43,-0.645 0.39,-0.652 0.8,-1.449 0.4,-0.793 0.42,-0.801 0.8,-1.738 0.41,-0.926 0.41,-0.965 0.8,-2.047 1.62,-4.578 0.39,-1.242 0.43,-1.293 0.79,-2.691 1.63,-5.883 0.39,-1.567 0.42,-1.617 0.8,-3.359 1.62,-7.199 0.4,-1.891 0.42,-1.945 0.8,-4.008 1.61,-8.469 3.25,-18.727 0.4,-2.433 0.39,-2.496 0.79,-5.059 1.58,-10.453 3.19,-22.219 6.33,-48.14 12.69,-100.2 27.54,-188.886 0.4,-2.692 0.4,-2.714 0.8,-5.399 1.58,-10.957 3.23,-22.363 6.42,-46.246 0.41,-2.914 0.41,-2.934 2.39,-17.488 3.2,-22.879 0.41,-2.793 0.43,-2.789 0.79,-5.477 1.59,-10.66 3.22,-19.723 0.45,-2.464 0.41,-2.414 0.88,-4.657 0.45,-2.218 0.42,-2.168 0.87,-4.106 0.43,-1.941 0.45,-1.871 0.88,-3.489 0.41,-1.613 0.45,-1.52 0.87,-2.789 0.42,-1.246 0.45,-1.144 0.43,-1.071 0.44,-0.949 0.43,-0.82 0.44,-0.746 0.43,-0.625 0.44,-0.496 0.43,-0.399 0.43,-0.277 0.44,-0.145 0.42,-0.023 0.45,0.094 0.43,0.203 0.43,0.371 0.43,0.473 0.45,0.625 0.43,0.746 0.45,0.894 0.42,1.024 0.45,1.168 0.42,1.293 0.45,1.472 0.43,1.598 0.45,1.742 0.41,1.914 0.43,2.051 0.45,2.18 0.43,2.343 0.44,2.516 0.86,5.453 0.43,2.965 0.44,3.109 0.88,6.727 0.42,3.586 0.46,3.738 0.87,7.969 0.42,4.207 0.45,4.355 0.85,9.215 1.73,20.242 0.44,5.332 0.45,5.481 0.84,11.406 1.7,24.403 3.43,54.957 0.41,7.398 0.43,7.496 0.84,15.297 1.72,31.695 3.42,67.035 0.41,8.645 0.43,8.664 0.87,17.457 1.71,35.18 3.43,70.304 0.41,8.692 0.43,8.617 0.84,17.129 1.72,33.473 3.41,62.679 0.41,6.84 0.38,6.731 0.8,13.097 1.6,24.657 0.4,5.8 0.4,5.684 0.79,10.879 1.6,19.867 0.41,4.531 0.39,4.379 0.79,8.219 0.41,3.836 0.38,3.633 0.8,6.73 0.41,3.054 0.39,2.9 0.41,2.66 0.39,2.5 0.4,2.27 0.39,2.05 0.41,1.87 0.39,1.65 0.41,1.44 0.39,1.23 0.41,1.01 0.39,0.8 0.41,0.6 0.39,0.35 0.4,0.17 0.39,-0.08 0.41,-0.29 0.38,-0.5 0.41,-0.72 0.39,-0.95 0.41,-1.17 0.39,-1.39 0.41,-1.6 0.39,-1.81 0.4,-2.06 0.39,-2.26 0.41,-2.49 0.38,-2.69 0.41,-2.91 0.39,-3.11 0.81,-6.872 0.41,-3.765 0.39,-3.985 0.79,-8.539 0.41,-4.562 0.38,-4.777 0.8,-10.129 0.43,-5.836 0.45,-6.024 0.85,-12.726 1.75,-27.938 0.42,-7.476 0.42,-7.641 0.87,-15.859 1.73,-33.692 0.44,-8.793 0.42,-8.945 0.87,-18.277 1.71,-37.95 3.47,-79.914 0.43,-10.226 0.45,-10.242 0.87,-20.547 1.7,-41.082 3.48,-80.387 0.41,-9.711 0.43,-9.641 0.88,-18.949 1.73,-36.43 0.43,-8.742 0.42,-8.617 0.88,-16.734 1.71,-31.328 0.4,-6.868 0.43,-6.699 0.8,-12.828 0.39,-6.152 0.4,-5.922 0.82,-11.309 0.41,-5.328 0.39,-5.133 0.82,-9.609 0.4,-4.481 0.39,-4.234 0.8,-7.848 0.43,-3.558 0.39,-3.34 0.41,-3.086 0.39,-2.863 0.41,-2.617 0.41,-2.364 0.4,-2.14 0.4,-1.895 0.39,-1.617 0.4,-1.398 0.42,-1.141 0.41,-0.899 0.39,-0.648 0.4,-0.371 0.4,-0.152 0.43,0.101 0.4,0.371 0.39,0.602 0.41,0.871 0.39,1.121 0.43,1.344 0.41,1.621 0.39,1.84 0.4,2.09 0.39,2.367 0.42,2.562 0.4,2.844 0.4,3.062 0.39,3.286 0.41,3.535 0.8,7.769 0.41,4.207 0.39,4.434 0.8,9.539 0.43,5.082 0.4,5.301 0.79,11.207 0.41,5.902 0.41,6.074 0.8,12.75 1.63,27.567 0.4,7.176 0.4,7.293 0.76,15.043 1.59,31.628 3.17,68.129 0.39,8.844 0.41,8.914 0.77,17.981 1.58,36.363 3.18,72.824 0.39,8.988 0.4,8.977 0.78,17.73 1.6,34.657 0.39,8.449 0.41,8.363 0.76,16.406 1.59,31.454 0.4,7.527 0.39,7.391 0.78,14.375 1.59,26.816 0.39,6.273 0.41,6.102 0.78,11.648 0.39,5.532 0.4,5.351 0.8,10.09 0.42,5.156 0.43,4.887 0.45,4.625 0.41,4.391 0.43,4.129 0.41,3.863 0.88,6.937 0.42,3.067 0.44,2.789 0.42,2.519 0.45,2.235 0.41,1.968 0.41,1.672 0.43,1.399 0.45,1.109 0.42,0.832 0.44,0.547 0.41,0.273 0.47,-0.027 0.41,-0.301 0.41,-0.589 0.43,-0.875 0.43,-1.176 0.45,-1.438 0.42,-1.722 0.42,-2.016 0.43,-2.273 0.45,-2.559 0.41,-2.836 0.43,-3.094 0.42,-3.386 0.43,-3.625 0.45,-3.922 0.85,-8.559 0.42,-4.687 0.46,-4.903 0.83,-10.582 0.43,-5.629 0.42,-5.879 0.88,-12.422 1.7,-27.371 0.43,-7.351 0.42,-7.539 0.88,-15.586 1.7,-33.156 3.43,-72.539 0.42,-8.856 0.41,-8.949 0.8,-18.028 1.58,-36.531 3.22,-73.484 0.4,-9.086 0.39,-9.07 0.8,-17.954 1.59,-35.136 3.21,-65.742 0.4,-7.672 0.39,-7.543 0.79,-14.645 1.61,-27.39 0.43,-6.426 0.39,-6.25 0.8,-11.953 1.6,-21.539 0.39,-4.907 0.4,-4.66 0.79,-8.715 0.41,-4.031 0.39,-3.785 0.82,-6.949 0.41,-3.11 0.39,-2.89 0.41,-2.668 0.39,-2.41 0.41,-2.192 0.39,-1.945 0.4,-1.719 0.39,-1.469 0.44,-1.316 0.43,-1.023 0.45,-0.747 0.43,-0.449 0.41,-0.176 0.45,0.125 0.44,0.399 0.44,0.695 0.42,0.973 0.42,1.269 0.45,1.543 0.43,1.848 0.45,2.09 0.41,2.414 0.47,2.668 0.41,2.933 0.42,3.239 0.46,3.484 0.42,3.762 0.45,4.012 0.42,4.285 0.45,4.562 0.84,9.832 0.44,5.301 0.43,5.527 0.86,11.778 1.76,26.273 0.42,7.098 0.45,7.297 0.85,15.191 1.74,32.52 3.48,72.168 0.42,9.562 0.43,9.637 0.87,19.551 1.75,39.918 3.46,81.277 0.43,9.957 0.43,9.941 0.86,19.77 1.7,38.902 0.42,9.563 0.43,9.48 0.87,18.656 1.68,36.086 0.42,8.688 0.43,8.598 0.84,16.734 1.72,31.648 0.43,7.496 0.42,7.321 0.85,14.094 1.72,25.906 0.43,5.945 0.41,5.758 0.85,10.879 0.42,5.097 0.43,4.887 0.86,9.09 0.43,4.207 0.43,3.984 0.42,3.735 0.42,3.488 0.43,3.254 0.42,3.017 0.42,2.8 0.43,2.53 0.45,2.29 0.42,2.05 0.42,1.81 0.43,1.55 0.43,1.32 0.41,1.07 0.42,0.82 0.43,0.58 0.42,0.32 0.43,0.09 0.44,-0.14 0.41,-0.41 0.43,-0.64 0.43,-0.9 0.42,-1.12 0.42,-1.35 0.39,-1.49 0.41,-1.67 0.4,-1.89 0.41,-2.09 0.39,-2.29 0.4,-2.47 0.8,-5.549 0.38,-3.054 0.41,-3.243 0.8,-7.05 0.37,-3.782 0.4,-3.961 0.79,-8.468 0.41,-4.485 0.39,-4.625 0.8,-9.789 1.59,-21.367 0.41,-5.684 0.39,-5.847 0.8,-12.078 1.6,-25.606 0.39,-6.672 0.37,-6.793 0.8,-13.871 1.6,-28.836 3.19,-60.988 6.34,-127.648 0.43,-8.594 0.44,-8.582 0.85,-17.008 1.72,-33.422 3.46,-63.406 0.43,-7.52 0.42,-7.445 0.87,-14.547 1.72,-27.738 0.45,-6.649 0.42,-6.523 0.86,-12.676 1.72,-23.781 0.44,-5.605 0.42,-5.454 0.86,-10.531 0.43,-5.031 0.45,-4.906 0.84,-9.391 0.43,-4.453 0.45,-4.336 0.84,-8.219 1.74,-14.64 0.43,-3.289 0.43,-3.165 0.87,-5.847 0.42,-2.715 0.43,-2.563 0.85,-4.707 0.43,-2.144 0.45,-1.992 0.43,-1.867 0.42,-1.719 0.42,-1.567 0.46,-1.445 0.42,-1.324 0.41,-1.164 0.43,-0.973 0.4,-0.875 0.4,-0.746 0.39,-0.609 0.41,-0.559 0.39,-0.426 0.4,-0.297 0.42,-0.222 0.4,-0.094 h 0.4 l 0.4,0.094 0.39,0.176 0.41,0.296 0.39,0.395 0.43,0.473 0.4,0.578 0.4,0.644 0.4,0.746 0.4,0.852 0.39,0.918 0.43,0.996 0.39,1.074 0.8,2.41 0.41,1.293 0.39,1.399 0.82,2.988 1.59,6.75 0.4,1.844 0.39,1.89 0.83,3.957 1.6,8.543 3.24,19.125 0.39,2.539 0.41,2.594 0.8,5.227 1.6,10.758 3.22,22.414 0.42,3.086 0.44,3.113 0.88,6.25 1.74,12.551 3.48,25.226 6.99,49.832 13.94,97.414 0.42,3.016 0.42,3.035 0.88,6.106 1.69,12.273 3.43,24.977 6.86,51.82 0.84,6.625 0.86,6.652 1.71,13.367 3.43,26.844 6.83,52.996 0.39,3.02 0.41,2.976 0.81,5.957 1.59,11.703 3.18,22.489 0.41,2.715 0.4,2.691 0.8,5.301 1.59,10.312 3.18,19.2 0.41,2.261 0.39,2.246 0.79,4.356 1.63,8.32 0.4,1.996 0.4,1.961 0.8,3.809 1.6,7.226 0.39,1.715 0.4,1.672 0.79,3.266 1.6,6.043 0.39,1.441 0.41,1.367 0.79,2.696 1.59,4.937 0.45,1.215 0.43,1.215 0.86,2.273 0.43,1.098 0.43,1.015 0.86,1.973 0.47,0.941 0.41,0.899 0.88,1.66 0.41,0.777 0.43,0.75 0.87,1.387 0.45,0.656 0.42,0.625 0.88,1.145 0.42,0.519 0.44,0.493 0.86,0.902 0.44,0.418 0.84,0.758 0.46,0.316 0.42,0.328 0.45,0.274 0.41,0.273 0.43,0.223 0.45,0.219 0.84,0.402 0.45,0.144 0.43,0.157 0.44,0.117 0.43,0.133 0.42,0.078 0.45,0.094 0.84,0.101 0.47,0.055 0.41,0.023 0.45,0.016 h 1.3 l 0.85,-0.039 0.44,-0.024 0.42,-0.031 0.44,-0.055 0.86,-0.101 0.43,-0.039 0.43,-0.078 0.88,-0.133 1.72,-0.242 0.41,-0.055 0.41,-0.066 1.19,-0.157 0.43,-0.05 0.8,-0.098 0.39,-0.024 0.43,-0.05 1.58,-0.102 0.43,-0.019 h 0.4 l 0.41,-0.024 h 0.82 l 0.39,0.024 h 0.41 l 0.39,0.019 0.43,0.024 0.79,0.054 0.79,0.098 0.43,0.055 0.8,0.093 0.82,0.157 0.8,0.144 0.79,0.18 0.42,0.094 0.4,0.101 0.8,0.227 0.42,0.101 1.19,0.367 1.62,0.528 0.4,0.152 0.42,0.121 0.81,0.297 1.62,0.57 3.24,1.192 0.39,0.129 0.4,0.144 0.77,0.274 1.59,0.523 0.4,0.11 0.39,0.117 0.81,0.234 0.4,0.09 0.38,0.129 0.79,0.176 0.4,0.101 1.99,0.367 0.39,0.055 0.38,0.047 0.79,0.101 0.4,0.028 0.4,0.043 0.4,0.027 h 0.4 l 0.39,0.027 h 1.58 l 1.59,-0.097 1.6,-0.203 0.39,-0.071 0.37,-0.05 1.2,-0.223 0.79,-0.207 0.8,-0.168 1.58,-0.445 1.59,-0.5 1.59,-0.547 0.85,-0.301 0.87,-0.328 1.72,-0.625 0.42,-0.149 0.43,-0.175 0.87,-0.293 1.72,-0.598 0.85,-0.301 0.86,-0.273 0.42,-0.129 0.43,-0.149 0.87,-0.218 0.42,-0.133 0.43,-0.094 0.87,-0.219 0.42,-0.105 0.43,-0.074 0.87,-0.176 0.42,-0.074 0.43,-0.051 0.45,-0.07 1.27,-0.153 0.45,-0.027 1.27,-0.07 0.45,-0.024 h 1.27 l 0.44,0.024 h 0.42 l 0.86,0.043 0.43,0.027 0.42,0.051 0.43,0.027 0.45,0.047 1.27,0.148 0.45,0.078 0.84,0.102 1.72,0.25 0.4,0.066 0.4,0.055 0.8,0.125 0.42,0.055 1.2,0.14 0.39,0.032 0.4,0.054 1.21,0.063 h 1.61 l 1.2,-0.063 0.39,-0.054 0.8,-0.157 0.42,-0.07 0.4,-0.101 1.19,-0.368 0.4,-0.179 0.4,-0.145 0.8,-0.402 0.39,-0.223 0.43,-0.25 0.8,-0.547 0.39,-0.297 0.41,-0.332 0.79,-0.718 0.41,-0.391 0.39,-0.43 0.82,-0.894 0.4,-0.504 0.4,-0.527 0.8,-1.082 0.39,-0.602 0.4,-0.625 0.79,-1.344 0.43,-0.722 0.4,-0.747 0.79,-1.566 0.41,-0.824 0.39,-0.871 0.8,-1.844 1.62,-4.063 0.42,-1.191 0.44,-1.25 0.86,-2.586 1.74,-5.672 0.45,-1.527 0.42,-1.563 0.87,-3.269 1.75,-7.043 0.42,-1.867 0.45,-1.922 0.88,-3.934 1.73,-8.386 3.46,-18.731 0.45,-2.512 0.43,-2.543 0.87,-5.203 1.75,-10.832 3.45,-23.211 6.98,-50.972 0.42,-3.262 0.42,-3.285 0.85,-6.61 1.72,-13.269 3.4,-26.742 6.83,-53.164 13.64,-100.164 1.6,-11.153 1.6,-11.105 3.19,-22.117 6.37,-44.497 1.6,-11.257 1.56,-11.356 3.18,-22.859 6.38,-45.973 0.42,-3.086 0.45,-3.062 0.85,-6.125 1.75,-12.051 3.44,-23.113 0.44,-2.762 0.42,-2.715 0.87,-5.355 1.72,-10.157 0.43,-2.418 0.45,-2.394 0.84,-4.578 1.74,-8.442 0.43,-1.968 0.42,-1.868 0.87,-3.562 0.43,-1.664 0.45,-1.574 0.84,-2.911 0.45,-1.347 0.43,-1.219 0.42,-1.168 0.44,-1.051 0.42,-0.972 0.43,-0.844 0.45,-0.77 0.42,-0.675 0.42,-0.547 0.45,-0.45 0.43,-0.347 0.42,-0.223 0.44,-0.117 h 0.43 l 0.43,0.094 0.45,0.246 0.41,0.347 0.43,0.473 0.45,0.625 0.42,0.723 0.42,0.847 0.43,0.997 0.45,1.117 0.42,1.246 0.4,1.297 0.43,1.418 0.39,1.515 0.4,1.672 0.4,1.766 0.39,1.894 0.82,4.16 0.41,2.27 0.39,2.41 0.8,5.164 0.39,2.781 0.43,2.891 0.8,6.199 0.39,3.285 0.4,3.415 0.83,7.222 1.59,15.985 0.43,4.308 0.39,4.457 0.8,9.238 1.62,20.024 0.4,5.281 0.4,5.43 0.82,11.207 1.59,23.726 3.23,52.497 0.41,6.996 0.39,7.07 0.81,14.394 1.62,29.684 3.23,62.305 0.37,7.828 0.4,7.859 0.8,15.821 1.56,31.824 3.17,63.621 0.4,7.875 0.4,7.84 0.8,15.558 1.56,30.559 3.17,57.879 0.39,6.847 0.41,6.743 0.76,13.203 1.6,24.996 0.39,5.933 0.41,5.793 0.76,11.239 1.6,20.668 0.39,4.804 0.4,4.61 0.78,8.793 0.4,4.133 0.4,3.957 0.8,7.39 0.39,3.438 0.37,3.234 0.4,3.074 0.4,2.883 0.4,2.694 0.4,2.48 0.39,2.33 0.4,2.09 0.42,2.06 0.43,1.84 0.43,1.58 0.41,1.36 0.45,1.1 0.43,0.88 0.42,0.61 0.42,0.41 0.43,0.11 0.45,-0.09 0.42,-0.38 0.42,-0.6 0.43,-0.86 0.42,-1.1 0.45,-1.37 0.42,-1.6 0.43,-1.84 0.42,-2.11 0.45,-2.34 0.42,-2.6 0.43,-2.837 0.42,-3.079 0.87,-6.875 0.43,-3.812 0.41,-4.035 0.85,-8.789 0.45,-4.731 0.42,-4.98 0.85,-10.606 0.42,-5.636 0.45,-5.825 0.85,-12.328 1.72,-27.043 0.42,-7.25 0.42,-7.418 0.88,-15.363 1.72,-32.672 0.42,-8.543 0.42,-8.664 0.85,-17.754 1.72,-36.906 3.43,-77.871 0.4,-9.285 0.4,-9.344 0.8,-18.75 1.59,-37.527 3.21,-74.008 0.4,-9.043 0.4,-8.965 0.8,-17.684 1.58,-34.336 3.23,-63.078 0.39,-7.273 0.4,-7.121 0.79,-13.723 0.41,-6.598 0.39,-6.449 0.8,-12.328 0.39,-5.898 0.41,-5.703 0.79,-10.809 0.4,-5.106 0.42,-4.906 0.8,-9.164 0.4,-4.258 0.39,-4.058 0.4,-3.809 0.41,-3.613 0.4,-3.383 0.4,-3.141 0.39,-2.914 0.4,-2.687 0.4,-2.442 0.4,-2.214 0.4,-1.993 0.39,-1.718 0.4,-1.496 0.4,-1.27 0.4,-1.019 0.42,-0.747 0.43,-0.578 0.42,-0.273 0.45,0.023 0.42,0.305 0.45,0.57 0.43,0.871 0.43,1.172 0.43,1.446 0.43,1.718 0.45,2.016 0.42,2.289 0.42,2.563 0.44,2.843 0.43,3.11 0.87,7.05 0.42,3.93 0.46,4.188 0.87,9.14 0.42,4.953 0.42,5.207 0.88,11.106 0.45,5.926 0.42,6.152 0.87,12.949 1.74,28.438 0.43,7.597 0.42,7.793 0.87,16.082 1.74,34.071 3.47,74.16 6.94,158.082 0.4,9.09 0.39,9.039 0.83,17.832 1.62,34.687 0.4,8.438 0.4,8.32 0.82,16.262 1.62,30.976 0.39,7.364 0.41,7.226 0.82,13.953 0.39,6.688 0.4,6.558 0.83,12.524 0.39,5.976 0.4,5.774 0.82,10.961 0.4,5.156 0.39,4.949 0.83,9.246 0.4,4.305 0.39,4.063 0.41,3.828 0.41,3.617 0.41,3.359 0.4,3.137 0.4,2.887 0.42,2.636 0.4,2.415 0.4,2.175 0.4,1.914 0.42,1.649 0.4,1.41 0.4,1.172 0.39,0.906 0.43,0.668 0.39,0.398 0.41,0.149 0.39,-0.102 0.43,-0.371 0.39,-0.597 0.4,-0.879 0.4,-1.114 0.43,-1.367 0.39,-1.621 0.4,-1.867 0.4,-2.117 0.42,-2.364 0.41,-2.597 0.38,-2.86 0.83,-6.425 0.4,-3.485 0.39,-3.734 0.78,-8.094 0.4,-4.363 0.4,-4.602 0.79,-9.785 0.41,-5.234 0.39,-5.399 0.8,-11.379 1.59,-25 0.41,-6.707 0.38,-6.843 0.78,-14.172 1.59,-30.11 3.2,-66.011 0.39,-8.664 0.4,-8.766 0.77,-17.711 1.59,-36.078 3.2,-73.215 0.39,-9.117 0.37,-9.117 0.8,-18.074 1.6,-35.586 3.18,-67.387 0.42,-8.59 0.42,-8.492 0.88,-16.461 1.72,-30.875 0.42,-7.254 0.42,-7.043 0.88,-13.496 1.72,-24.359 0.42,-5.5 0.45,-5.282 0.85,-9.785 0.45,-4.535 0.42,-4.258 0.85,-7.742 0.44,-3.488 0.42,-3.211 0.42,-2.942 0.45,-2.636 0.43,-2.391 0.42,-2.117 0.42,-1.82 0.45,-1.543 0.43,-1.27 0.41,-0.973 0.45,-0.695 0.43,-0.398 0.43,-0.125 0.41,0.152 0.45,0.473 0.43,0.722 0.43,1.02 0.44,1.293 0.42,1.594 0.43,1.871 0.42,2.14 0.45,2.438 0.42,2.715 0.43,2.964 0.45,3.262 0.42,3.512 0.42,3.789 0.43,4.055 0.45,4.308 0.42,4.555 0.86,9.914 0.43,5.305 0.42,5.578 0.87,11.828 1.72,26.344 0.4,6.629 0.4,6.82 0.8,14.144 1.62,30.184 3.21,66.762 0.4,8.867 0.4,8.914 0.8,18.129 1.61,37.051 3.21,76.031 0.4,9.539 0.4,9.559 0.82,19.05 1.6,37.75 3.21,72.715 0.39,8.723 0.41,8.613 0.82,16.902 1.59,32.36 0.4,7.758 0.39,7.629 0.82,14.789 1.6,27.695 0.45,7.016 0.42,6.855 0.87,13.012 0.45,6.207 0.43,5.98 0.87,11.223 0.44,5.281 0.43,5.055 0.88,9.336 0.41,4.316 0.45,4.086 0.88,7.374 0.42,3.29 0.45,3.05 0.42,2.8 0.45,2.51 0.43,2.28 0.44,2 0.42,1.77 0.45,1.47 0.42,1.22 0.45,0.97 0.43,0.7 0.45,0.45 0.41,0.17 0.45,-0.1 0.43,-0.35 0.45,-0.59 0.42,-0.88 0.45,-1.12 0.42,-1.37 0.45,-1.62 0.43,-1.87 0.42,-2.14 0.45,-2.36 0.42,-2.62 0.45,-2.86 0.43,-3.09 0.45,-3.334 0.41,-3.566 0.44,-3.778 0.43,-4.015 0.87,-8.688 0.45,-4.679 0.42,-4.879 0.88,-10.364 1.74,-23.066 0.45,-6.219 0.43,-6.402 0.86,-13.293 1.75,-28.442 0.42,-7.316 0.43,-7.449 0.86,-15.266 1.69,-31.773 3.44,-67.438 0.43,-8.668 0.42,-8.738 0.85,-17.535 1.72,-35.258 3.41,-70.176 0.42,-8.636 0.45,-8.594 0.85,-17.039 1.72,-33.313 0.42,-8.144 0.43,-8.063 0.84,-15.894 1.71,-30.606 0.43,-7.422 0.43,-7.269 0.84,-14.242 1.72,-27.047 0.42,-6.426 0.42,-6.324 0.88,-12.227 1.69,-22.789 0.41,-4.98 0.38,-4.875 0.8,-9.344 0.41,-4.481 0.39,-4.355 0.8,-8.32 0.4,-3.961 0.42,-3.832 0.8,-7.27 1.59,-12.949 0.41,-2.914 0.39,-2.789 0.8,-5.184 0.39,-2.39 0.41,-2.266 0.79,-4.125 0.4,-1.875 0.39,-1.77 0.41,-1.617 0.39,-1.523 0.4,-1.391 0.4,-1.242 0.39,-1.148 0.41,-1.024 0.39,-0.922 0.4,-0.769 0.4,-0.672 0.4,-0.574 0.41,-0.446 0.39,-0.328 0.4,-0.246 0.4,-0.121 h 0.39 l 0.41,0.07 0.39,0.2 0.4,0.3 0.4,0.375 0.39,0.496 0.41,0.575 0.39,0.672 0.4,0.773 0.4,0.844 0.39,0.949 0.41,1.019 0.39,1.118 0.4,1.195 0.79,2.617 0.41,1.418 0.39,1.524 0.81,3.183 1.59,7.219 0.42,2.121 0.45,2.191 0.85,4.559 1.74,9.832 3.46,21.863 0.42,2.918 0.45,2.914 0.85,5.922 1.74,12.153 3.46,24.902 13.82,98.019 25.82,175.317 0.4,2.953 0.4,2.996 0.81,6.004 1.56,12.125 3.18,24.727 6.33,50.351 0.4,3.133 0.38,3.144 0.79,6.27 1.59,12.43 3.17,24.359 0.8,5.922 0.76,5.879 1.6,11.48 3.17,21.84 0.42,2.813 0.44,2.793 0.85,5.5 1.72,10.5 0.42,2.55 0.45,2.481 0.85,4.863 1.72,9.234 0.42,2.196 0.42,2.14 0.88,4.184 1.72,7.793 0.41,1.844 0.43,1.793 0.88,3.437 1.71,6.321 0.42,1.472 0.43,1.426 0.86,2.68 0.42,1.281 0.43,1.238 0.88,2.34 0.41,1.098 0.43,1.047 0.87,1.996 0.42,0.914 0.43,0.875 0.87,1.644 0.42,0.77 0.85,1.386 0.45,0.633 0.42,0.617 0.43,0.555 0.84,1.02 0.88,0.875 0.42,0.394 0.42,0.348 0.45,0.328 0.43,0.27 0.84,0.5 0.4,0.171 0.42,0.168 0.8,0.25 0.8,0.153 0.39,0.054 0.8,0.043 0.8,-0.043 0.79,-0.105 0.42,-0.078 0.8,-0.195 0.8,-0.247 0.8,-0.3 0.79,-0.348 0.8,-0.371 0.41,-0.223 0.43,-0.211 0.78,-0.414 1.6,-0.918 0.8,-0.508 0.78,-0.468 1.62,-0.942 0.41,-0.25 1.19,-0.672 1.6,-0.871 0.42,-0.203 0.4,-0.199 1.59,-0.695 1.19,-0.453 0.8,-0.247 0.4,-0.097 0.42,-0.125 0.4,-0.078 0.4,-0.094 0.4,-0.078 0.44,-0.078 1.35,-0.149 h 0.45 l 0.45,-0.023 h 0.45 l 0.43,0.023 0.44,0.028 1.34,0.152 0.45,0.07 0.89,0.199 0.45,0.129 0.45,0.094 1.35,0.453 0.89,0.344 0.9,0.375 0.9,0.395 0.9,0.457 1.76,0.968 0.45,0.274 0.45,0.25 0.89,0.547 1.8,1.121 3.59,2.289 0.88,0.547 0.9,0.574 1.78,1.043 0.9,0.5 0.89,0.469 1.34,0.675 0.44,0.203"
         style="fill:none;stroke:#3871c1;stroke-width:7.5;stroke-linecap:square;stroke-linejoin:miter;stroke-miterlimit:3.25;stroke-dasharray:none;stroke-opacity:1"
         transform="matrix(0.13333333,0,0,-0.13333333,0,144.89333)" />
      <path
         id="path4"
         d="m 2.6945406,1.3247228 c -0.890625,-0.76171874 -1.40625,-2.20312499 -1.40625,-3.75 0,-1.546875 0.515625,-3 1.40625,-3.75 L 2.5421969,-6.3862147 c -1.3242188,0.9023438 -1.91015628,2.3320313 -1.91015628,3.9492188 0,1.62890621 0.58593748,3.08203121 1.91015628,3.9609375 z m 4.3212891,-1.67578124 -0.09375,-0.234375 c -0.09375,0.0585938 -0.2226563,0.10546875 -0.328125,0.10546875 -0.1523438,0 -0.3164063,-0.140625 -0.3164063,-0.55078121 v -1.6640625 c 0,-0.46875 -0.082031,-0.84375 -0.3984375,-1.1015625 -0.1992187,-0.1640625 -0.46875,-0.2460938 -0.7382812,-0.2460938 -0.515625,0.1054688 -1.1015625,0.4570313 -1.3476563,0.6328125 -0.1757812,0.1289063 -0.2929687,0.2226563 -0.2929687,0.3632813 0,0.1992187 0.234375,0.3867187 0.3984375,0.3867187 0.1289062,0 0.2226562,-0.070312 0.2578125,-0.2109375 0.070312,-0.28125 0.1523437,-0.4804687 0.2695312,-0.5976562 0.09375,-0.1054688 0.2226563,-0.1757813 0.4101563,-0.1757813 0.4453125,0 0.75,0.3632813 0.75,1.0195313 v 0.1640625 c -0.1992188,0.1523437 -0.8554688,0.3984375 -1.3945313,0.5742187 -0.4921875,0.1757813 -0.7265625,0.4570313 -0.7265625,0.90234376 0,0.5625 0.4453125,1.08984375 1.078125,1.08984375 0.2695313,0 0.703125,-0.328125 1.0664063,-0.57421875 0.046875,0.15234375 0.09375,0.28125 0.2109375,0.41015625 0.1054687,0.08203125 0.2929687,0.1640625 0.421875,0.1640625 z M 5.5861422,-0.76121469 c -0.1640625,0.1640625 -0.4804688,0.31640625 -0.7148438,0.328125 -0.28125,0 -0.6445312,-0.22265625 -0.6445312,-0.69140621 0,-0.328125 0.1992187,-0.4921875 0.5507812,-0.65625 0.1875,-0.09375 0.6210938,-0.28125 0.8085938,-0.375 z M 7.4757906,-6.1752772 c 0.890625,0.7382813 1.4179688,2.203125 1.4179688,3.75 0,1.54687501 -0.5039063,2.98828126 -1.4179688,3.75 l 0.1640625,0.1992188 c 1.3476563,-0.91406254 1.8984375,-2.33203129 1.8984375,-3.9492188 0,-1.6289062 -0.5507812,-3.0585937 -1.8984375,-3.9609375 z M -23.898233,-13.335433 v -0.246094 c -0.820312,-0.05859 -0.878906,-0.128906 -0.878906,-0.785156 v -4.6875 c -0.492188,0.199218 -1.019531,0.375 -1.59375,0.46875 v 0.210937 l 0.433594,0.01172 c 0.386718,0.02344 0.421875,0.07031 0.421875,0.539062 v 3.457032 c 0,0.65625 -0.03516,0.726562 -0.855469,0.785156 v 0.246094 z m -38.135742,-85.930664 c -0.269531,0.574218 -0.386719,0.609375 -0.867188,0.609375 h -1.6875 l 1.277344,-1.335938 c 0.832031,-0.89063 1.195313,-1.41797 1.195313,-2.20313 0,-0.94921 -0.726563,-1.52343 -1.511719,-1.52343 -0.527344,0 -0.949219,0.23437 -1.21875,0.53906 l -0.515625,0.72656 0.199219,0.17578 c 0.234375,-0.35156 0.609375,-0.83203 1.230468,-0.83203 0.65625,0 1.054688,0.4336 1.054688,1.19531 0,0.77344 -0.5625,1.51172 -1.125,2.179693 -0.445313,0.515625 -0.949219,1.03125 -1.453125,1.523437 v 0.210938 h 3.363281 c 0.105469,-0.410157 0.199219,-0.796875 0.316406,-1.183594 z m -0.246094,39.005859 v -0.246094 c -0.820312,-0.05859 -0.878906,-0.128906 -0.878906,-0.785156 v -4.6875 c -0.492188,0.199219 -1.019531,0.375 -1.59375,0.46875 v 0.210937 l 0.433594,0.01172 c 0.386718,0.02344 0.421875,0.07031 0.421875,0.539063 v 3.457031 c 0,0.65625 -0.03516,0.726562 -0.855469,0.785156 v 0.246094 z M 108.96602,-90.931137 c -0.26953,0.574219 -0.38671,0.609375 -0.86718,0.609375 h -1.6875 l 1.27734,-1.335937 c 0.83203,-0.890625 1.19531,-1.417969 1.19531,-2.203125 0,-0.949219 -0.72656,-1.523438 -1.51172,-1.523438 -0.52734,0 -0.94921,0.234375 -1.21875,0.539063 l -0.51562,0.726562 0.19922,0.175782 c 0.23437,-0.351563 0.60937,-0.832032 1.23047,-0.832032 0.65625,0 1.05468,0.433594 1.05468,1.195313 0,0.773437 -0.5625,1.511719 -1.125,2.179687 -0.44531,0.515625 -0.94921,1.03125 -1.45312,1.523438 v 0.210937 h 3.36328 c 0.10547,-0.410156 0.19922,-0.796875 0.31641,-1.183593 z m -0.24609,34.564454 v -0.246094 c -0.82031,-0.05859 -0.87891,-0.128906 -0.87891,-0.785156 v -4.6875 c -0.49218,0.199218 -1.01953,0.375 -1.59375,0.46875 v 0.210937 l 0.4336,0.01172 c 0.38672,0.02344 0.42187,0.07031 0.42187,0.539062 v 3.457032 c 0,0.65625 -0.0352,0.726562 -0.85547,0.785156 v 0.246094 z M 8.9171969,-14.601058 c -0.2695313,0.574218 -0.3867188,0.609375 -0.8671875,0.609375 h -1.6875 l 1.2773437,-1.335938 c 0.8320313,-0.890625 1.1953125,-1.417969 1.1953125,-2.203125 0,-0.949219 -0.7265625,-1.523437 -1.5117187,-1.523437 -0.5273438,0 -0.9492188,0.234375 -1.21875,0.539062 l -0.515625,0.726563 0.1992187,0.175781 c 0.234375,-0.351563 0.609375,-0.832031 1.2304688,-0.832031 0.65625,0 1.0546875,0.433593 1.0546875,1.195312 0,0.773438 -0.5625,1.511719 -1.125,2.179688 -0.4453125,0.515625 -0.9492188,1.03125 -1.453125,1.523437 v 0.210938 h 3.3632812 c 0.1054688,-0.410157 0.1992188,-0.796875 0.3164063,-1.183594 z m 29.6308591,-3.199219 c 0.222656,-0.328125 0.585938,-0.714844 1.078125,-0.714844 0.480469,0 0.855469,0.292969 0.855469,0.855469 0,0.65625 -0.609375,1.007812 -1.429688,1.277344 l 0.05859,0.257812 c 0.140625,-0.04687 0.363281,-0.105469 0.574219,-0.105469 0.515625,0 1.148437,0.339844 1.148437,1.171875 0,0.890625 -0.457031,1.359375 -1.089843,1.359375 -0.515625,0 -0.890625,-0.246093 -1.125,-0.457031 -0.07031,-0.05859 -0.140625,-0.04687 -0.210938,0 -0.08203,0.05859 -0.199219,0.175781 -0.210937,0.292969 -0.01172,0.117187 0.02344,0.210937 0.152343,0.328125 0.117188,0.105469 0.480469,0.304687 0.890625,0.304687 0.65625,0 2.367188,-0.667968 2.367188,-2.121093 0,-0.65625 -0.46875,-1.21875 -1.253906,-1.371094 v -0.01172 c 0.257812,-0.1875 0.480468,-0.339844 0.609375,-0.492187 0.175781,-0.164063 0.28125,-0.375 0.28125,-0.632813 0,-0.691406 -0.527344,-1.195312 -1.347657,-1.195312 -0.46875,0 -0.890625,0.234375 -1.136718,0.503906 l -0.398438,0.574219 z m 35.90918,2.859375 v -0.421875 h -0.867188 v -3.65625 h -0.351562 c -0.925781,1.21875 -1.851563,2.554687 -2.707031,3.832031 v 0.246094 h 2.34375 v 0.65625 c 0,0.585937 -0.03516,0.644531 -0.820313,0.703125 v 0.246094 h 2.308594 v -0.246094 c -0.726563,-0.05859 -0.773438,-0.105469 -0.773438,-0.703125 v -0.65625 z m -1.582031,-0.421875 h -1.769532 c 0.585938,-0.996094 1.171875,-1.851563 1.757813,-2.648438 h 0.01172 z m 74.724605,2.027344 v -0.246094 c -0.82031,-0.05859 -0.8789,-0.128906 -0.8789,-0.785156 v -4.6875 c -0.49219,0.199218 -1.01953,0.375 -1.59375,0.46875 v 0.210937 l 0.43359,0.01172 c 0.38672,0.02344 0.42188,0.07031 0.42188,0.539062 v 3.457032 c 0,0.65625 -0.0352,0.726562 -0.85547,0.785156 v 0.246094 z m 32.81836,-1.265625 c -0.26953,0.574218 -0.38672,0.609375 -0.86718,0.609375 h -1.6875 l 1.27734,-1.335938 c 0.83203,-0.890625 1.19531,-1.417969 1.19531,-2.203125 0,-0.949219 -0.72656,-1.523437 -1.51172,-1.523437 -0.52734,0 -0.94922,0.234375 -1.21875,0.539062 l -0.51562,0.726563 0.19922,0.175781 c 0.23437,-0.351563 0.60937,-0.832031 1.23047,-0.832031 0.65625,0 1.05468,0.433593 1.05468,1.195312 0,0.773438 -0.5625,1.511719 -1.125,2.179688 -0.44531,0.515625 -0.94922,1.03125 -1.45312,1.523437 v 0.210938 h 3.36328 c 0.10547,-0.410157 0.19922,-0.796875 0.31641,-1.183594 z m 29.62793,-3.199219 c 0.22266,-0.328125 0.58594,-0.714844 1.07813,-0.714844 0.48047,0 0.85547,0.292969 0.85547,0.855469 0,0.65625 -0.60938,1.007812 -1.42969,1.277344 l 0.0586,0.257812 c 0.14063,-0.04687 0.36328,-0.105469 0.57422,-0.105469 0.51563,0 1.14844,0.339844 1.14844,1.171875 0,0.890625 -0.45703,1.359375 -1.08984,1.359375 -0.51563,0 -0.89063,-0.246093 -1.125,-0.457031 -0.0703,-0.05859 -0.14063,-0.04687 -0.21094,0 -0.082,0.05859 -0.19922,0.175781 -0.21094,0.292969 -0.0117,0.117187 0.0234,0.210937 0.15234,0.328125 0.11719,0.105469 0.48047,0.304687 0.89063,0.304687 0.65625,0 2.36719,-0.667968 2.36719,-2.121093 0,-0.65625 -0.46875,-1.21875 -1.25391,-1.371094 v -0.01172 c 0.25781,-0.1875 0.48047,-0.339844 0.60938,-0.492187 0.17578,-0.164063 0.28125,-0.375 0.28125,-0.632813 0,-0.691406 -0.52735,-1.195312 -1.34766,-1.195312 -0.46875,0 -0.89063,0.234375 -1.13672,0.503906 l -0.39844,0.574219 z m 35.91211,2.859375 v -0.421875 h -0.86719 v -3.65625 h -0.35156 c -0.92578,1.21875 -1.85156,2.554687 -2.70703,3.832031 v 0.246094 h 2.34375 v 0.65625 c 0,0.585937 -0.0352,0.644531 -0.82031,0.703125 v 0.246094 h 2.30859 v -0.246094 c -0.72656,-0.05859 -0.77344,-0.105469 -0.77344,-0.703125 v -0.65625 z m -1.58203,-0.421875 h -1.76953 c 0.58594,-0.996094 1.17187,-1.851563 1.75781,-2.648438 h 0.0117 z M 171.71993,1.3247228 c -0.89062,-0.76171874 -1.40625,-2.20312499 -1.40625,-3.75 0,-1.546875 0.51563,-3 1.40625,-3.75 l -0.15234,-0.2109375 c -1.32422,0.9023438 -1.91016,2.3320313 -1.91016,3.9492188 0,1.62890621 0.58594,3.08203121 1.91016,3.9609375 z m 1.79004,-4.9570312 v -2.7773438 c -0.33984,0.1171875 -0.89062,0.2578125 -1.3125,0.3164063 v 0.2109375 c 0.58594,0.046875 0.59766,0.1054687 0.59766,0.6679687 v 5.00390626 c 0.49218,0.234375 0.94922,0.31640625 1.32422,0.31640625 1.20703,0 2.26171,-0.9375 2.26171,-2.26171871 0,-1.0546875 -0.80859,-1.8867188 -1.78125,-1.8867188 -0.0937,0 -0.22265,0.023437 -0.36328,0.09375 z m 0,0.2695312 c 0.16406,-0.1054687 0.44531,-0.1757812 0.70313,-0.1757812 0.73828,0 1.37109,0.5976562 1.37109,1.6171875 0,1.05468746 -0.48047,1.68749996 -1.21875,1.68749996 -0.48047,-0.0117188 -0.75,-0.328125 -0.80859,-0.50390625 -0.0352,-0.0820313 -0.0469,-0.17578125 -0.0469,-0.30468751 z m 3.60938,-2.8125 c 0.89062,0.7382813 1.41796,2.203125 1.41796,3.75 0,1.54687501 -0.5039,2.98828126 -1.41796,3.75 l 0.16406,0.1992188 c 1.34765,-0.91406254 1.89844,-2.33203129 1.89844,-3.9492188 0,-1.6289062 -0.55079,-3.0585937 -1.89844,-3.9609375 z m 0,0"
         style="fill:#231f20;fill-opacity:1;fill-rule:nonzero;stroke:none"
         aria-label="(a)&#10;1&#10;2&#10;1&#10;2&#10;1&#10;2341234&#10;(b)"
         transform="matrix(1.3333333,0,0,1.3333333,87.649467,140.57355)" />
      <path
         id="path5"
         d="m 79.7188,289.277 v 16.137"
         style="fill:none;stroke:#231f20;stroke-width:5;stroke-linecap:butt;stroke-linejoin:miter;stroke-miterlimit:3.25;stroke-dasharray:none;stroke-opacity:1"
         transform="matrix(0.13333333,0,0,-0.13333333,0,144.89333)" />
      <path
         id="path6"
         d="m 405.414,259.277 v 30"
         style="fill:none;stroke:#231f20;stroke-width:5;stroke-linecap:butt;stroke-linejoin:miter;stroke-miterlimit:3.25;stroke-dasharray:none;stroke-opacity:1"
         transform="matrix(0.13333333,0,0,-0.13333333,0,144.89333)" />
      <path
         id="path7"
         d="m 731.137,259.277 v 30"
         style="fill:none;stroke:#231f20;stroke-width:5;stroke-linecap:butt;stroke-linejoin:miter;stroke-miterlimit:3.25;stroke-dasharray:none;stroke-opacity:1"
         transform="matrix(0.13333333,0,0,-0.13333333,0,144.89333)" />
      <path
         id="path8"
         d="m 1056.83,259.277 v 30"
         style="fill:none;stroke:#231f20;stroke-width:5;stroke-linecap:butt;stroke-linejoin:miter;stroke-miterlimit:3.25;stroke-dasharray:none;stroke-opacity:1"
         transform="matrix(0.13333333,0,0,-0.13333333,0,144.89333)" />
      <path
         id="path9"
         d="m 1382.52,259.277 v 30"
         style="fill:none;stroke:#231f20;stroke-width:5;stroke-linecap:butt;stroke-linejoin:miter;stroke-miterlimit:3.25;stroke-dasharray:none;stroke-opacity:1"
         transform="matrix(0.13333333,0,0,-0.13333333,0,144.89333)" />
      <path
         id="path10"
         d="M 79.7188,289.277 H 1409.67"
         style="fill:none;stroke:#231f20;stroke-width:5;stroke-linecap:butt;stroke-linejoin:miter;stroke-miterlimit:3.25;stroke-dasharray:none;stroke-opacity:1"
         transform="matrix(0.13333333,0,0,-0.13333333,0,144.89333)" />
      <path
         id="path11"
         d="M 79.7188,289.277 H 95.8477"
         style="fill:none;stroke:#231f20;stroke-width:5;stroke-linecap:butt;stroke-linejoin:miter;stroke-miterlimit:3.25;stroke-dasharray:none;stroke-opacity:1"
         transform="matrix(0.13333333,0,0,-0.13333333,0,144.89333)" />
      <path
         id="path12"
         d="m 49.7188,666.699 h 30"
         style="fill:none;stroke:#231f20;stroke-width:5;stroke-linecap:butt;stroke-linejoin:miter;stroke-miterlimit:3.25;stroke-dasharray:none;stroke-opacity:1"
         transform="matrix(0.13333333,0,0,-0.13333333,0,144.89333)" />
      <path
         id="path13"
         d="m 49.7188,1044.12 h 30"
         style="fill:none;stroke:#231f20;stroke-width:5;stroke-linecap:butt;stroke-linejoin:miter;stroke-miterlimit:3.25;stroke-dasharray:none;stroke-opacity:1"
         transform="matrix(0.13333333,0,0,-0.13333333,0,144.89333)" />
      <path
         id="path14"
         d="M 79.7188,289.277 V 1086.05"
         style="fill:none;stroke:#231f20;stroke-width:5;stroke-linecap:butt;stroke-linejoin:miter;stroke-miterlimit:3.25;stroke-dasharray:none;stroke-opacity:1"
         transform="matrix(0.13333333,0,0,-0.13333333,0,144.89333)" />
      <path
         id="path15"
         d="m 1794.71,292.465 v 16.137"
         style="fill:none;stroke:#231f20;stroke-width:5;stroke-linecap:butt;stroke-linejoin:miter;stroke-miterlimit:3.25;stroke-dasharray:none;stroke-opacity:1"
         transform="matrix(0.13333333,0,0,-0.13333333,0,144.89333)" />
      <path
         id="path16"
         d="m 2120.42,262.465 v 30"
         style="fill:none;stroke:#231f20;stroke-width:5;stroke-linecap:butt;stroke-linejoin:miter;stroke-miterlimit:3.25;stroke-dasharray:none;stroke-opacity:1"
         transform="matrix(0.13333333,0,0,-0.13333333,0,144.89333)" />
      <path
         id="path17"
         d="m 2446.14,262.465 v 30"
         style="fill:none;stroke:#231f20;stroke-width:5;stroke-linecap:butt;stroke-linejoin:miter;stroke-miterlimit:3.25;stroke-dasharray:none;stroke-opacity:1"
         transform="matrix(0.13333333,0,0,-0.13333333,0,144.89333)" />
      <path
         id="path18"
         d="m 2771.84,262.465 v 30"
         style="fill:none;stroke:#231f20;stroke-width:5;stroke-linecap:butt;stroke-linejoin:miter;stroke-miterlimit:3.25;stroke-dasharray:none;stroke-opacity:1"
         transform="matrix(0.13333333,0,0,-0.13333333,0,144.89333)" />
      <path
         id="path19"
         d="m 3097.52,262.465 v 30"
         style="fill:none;stroke:#231f20;stroke-width:5;stroke-linecap:butt;stroke-linejoin:miter;stroke-miterlimit:3.25;stroke-dasharray:none;stroke-opacity:1"
         transform="matrix(0.13333333,0,0,-0.13333333,0,144.89333)" />
      <path
         id="path20"
         d="M 1794.71,292.465 H 3124.67"
         style="fill:none;stroke:#231f20;stroke-width:5;stroke-linecap:butt;stroke-linejoin:miter;stroke-miterlimit:3.25;stroke-dasharray:none;stroke-opacity:1"
         transform="matrix(0.13333333,0,0,-0.13333333,0,144.89333)" />
      <path
         id="path21"
         d="m 1794.71,292.465 h 16.13"
         style="fill:none;stroke:#231f20;stroke-width:5;stroke-linecap:butt;stroke-linejoin:miter;stroke-miterlimit:3.25;stroke-dasharray:none;stroke-opacity:1"
         transform="matrix(0.13333333,0,0,-0.13333333,0,144.89333)" />
      <path
         id="path22"
         d="m 1764.71,625.414 h 30"
         style="fill:none;stroke:#231f20;stroke-width:5;stroke-linecap:butt;stroke-linejoin:miter;stroke-miterlimit:3.25;stroke-dasharray:none;stroke-opacity:1"
         transform="matrix(0.13333333,0,0,-0.13333333,0,144.89333)" />
      <path
         id="path23"
         d="m 1764.71,958.355 h 30"
         style="fill:none;stroke:#231f20;stroke-width:5;stroke-linecap:butt;stroke-linejoin:miter;stroke-miterlimit:3.25;stroke-dasharray:none;stroke-opacity:1"
         transform="matrix(0.13333333,0,0,-0.13333333,0,144.89333)" />
      <path
         id="path24"
         d="M 1794.71,292.465 V 1086.05"
         style="fill:none;stroke:#231f20;stroke-width:5;stroke-linecap:butt;stroke-linejoin:miter;stroke-miterlimit:3.25;stroke-dasharray:none;stroke-opacity:1"
         transform="matrix(0.13333333,0,0,-0.13333333,0,144.89333)" />
    </g>
  </g>
</svg>
