<?xml version="1.0" encoding="UTF-8" standalone="no"?>
<!-- Created with Inkscape (http://www.inkscape.org/) -->

<svg
   version="1.1"
   id="svg1"
   width="227.36"
   height="157.89333"
   viewBox="0 0 227.36 157.89333"
   sodipodi:docname="pha08f13.eps"
   xmlns:inkscape="http://www.inkscape.org/namespaces/inkscape"
   xmlns:sodipodi="http://sodipodi.sourceforge.net/DTD/sodipodi-0.dtd"
   xmlns="http://www.w3.org/2000/svg"
   xmlns:svg="http://www.w3.org/2000/svg">
  <defs
     id="defs1" />
  <sodipodi:namedview
     id="namedview1"
     pagecolor="#ffffff"
     bordercolor="#000000"
     borderopacity="0.25"
     inkscape:showpageshadow="2"
     inkscape:pageopacity="0.0"
     inkscape:pagecheckerboard="0"
     inkscape:deskcolor="#d1d1d1">
    <inkscape:page
       x="0"
       y="0"
       inkscape:label="1"
       id="page1"
       width="227.36"
       height="157.89333"
       margin="0"
       bleed="0" />
  </sodipodi:namedview>
  <g
     id="g1"
     inkscape:groupmode="layer"
     inkscape:label="1">
    <g
       id="group-R5">
      <path
         id="path2"
         d="m 852.688,1090.46 1.304,0.65 3.086,1.35 1.887,0.73 1.887,0.62 1.714,0.45 1.497,0.14 1.328,-0.14 1.718,-0.45 1.961,-0.62 1.993,-0.73 3.378,-1.35 1.438,-0.65 -11.816,42.73 -11.375,-42.73"
         style="fill:#3871c1;fill-opacity:1;fill-rule:nonzero;stroke:none"
         transform="matrix(0.13333333,0,0,-0.13333333,0,157.89333)" />
      <path
         id="path3"
         d="m 864.055,147.48 v 955.71"
         style="fill:none;stroke:#3871c1;stroke-width:7.5;stroke-linecap:butt;stroke-linejoin:miter;stroke-miterlimit:3.25;stroke-dasharray:none;stroke-opacity:1"
         transform="matrix(0.13333333,0,0,-0.13333333,0,157.89333)" />
      <path
         id="path4"
         d="m 2.1568391,-5.7182459 c -1.34765629,0 -1.83984379,1.6054687 -1.83984379,2.9179687 0,1.4179688 0.48046875,2.90625001 1.83984379,2.90625001 1.359375,0 1.828125,-1.59375001 1.828125,-2.91796871 0,-1.3828125 -0.46875,-2.90625 -1.828125,-2.90625 z m 0,0.3046875 c 0.8085937,0 1.03125,1.3242187 1.03125,2.6015625 0,1.265625 -0.2226563,2.61328121 -1.03125,2.61328121 -0.7734375,0 -1.0429688,-1.35937501 -1.0429688,-2.61328121 0,-1.2539063 0.2226563,-2.6015625 1.0429688,-2.6015625 z M 41.221292,5.040625e-4 V -0.24558969 C 40.40098,-0.30418344 40.342386,-0.37449594 40.342386,-1.0307459 v -4.6875 c -0.492188,0.1992187 -1.019531,0.375 -1.59375,0.46875 v 0.2109375 l 0.433594,0.011719 c 0.386718,0.023437 0.421875,0.070312 0.421875,0.5390625 v 3.4570313 c 0,0.65624996 -0.03516,0.72656246 -0.855469,0.78515621 V 5.040625e-4 Z M 44.23887,-5.7182459 c -1.347656,0 -1.839843,1.6054687 -1.839843,2.9179687 0,1.4179688 0.480468,2.90625001 1.839843,2.90625001 1.359375,0 1.828125,-1.59375001 1.828125,-2.91796871 0,-1.3828125 -0.46875,-2.90625 -1.828125,-2.90625 z m 0,0.3046875 c 0.808594,0 1.03125,1.3242187 1.03125,2.6015625 0,1.265625 -0.222656,2.61328121 -1.03125,2.61328121 -0.773437,0 -1.042968,-1.35937501 -1.042968,-2.61328121 0,-1.2539063 0.222656,-2.6015625 1.042968,-2.6015625 z m -84.366211,3.609375 v -0.46875 h -3.773437 v 0.46875 z m 3.916993,1.8046874625 V -0.24558969 c -0.820313,-0.0585938 -0.878907,-0.12890625 -0.878907,-0.78515621 v -4.6875 c -0.492187,0.1992187 -1.019531,0.375 -1.59375,0.46875 v 0.2109375 l 0.433594,0.011719 c 0.386719,0.023437 0.421875,0.070312 0.421875,0.5390625 v 3.4570313 c 0,0.65624996 -0.03516,0.72656246 -0.855469,0.78515621 V 5.040625e-4 Z M -33.189841,-5.7182459 c -1.347656,0 -1.839843,1.6054687 -1.839843,2.9179687 0,1.4179688 0.480468,2.90625001 1.839843,2.90625001 1.359375,0 1.828125,-1.59375001 1.828125,-2.91796871 0,-1.3828125 -0.46875,-2.90625 -1.828125,-2.90625 z m 0,0.3046875 c 0.808594,0 1.03125,1.3242187 1.03125,2.6015625 0,1.265625 -0.222656,2.61328121 -1.03125,2.61328121 -0.773437,0 -1.042968,-1.35937501 -1.042968,-2.61328121 0,-1.2539063 0.222656,-2.6015625 1.042968,-2.6015625 z m -46.787109,3.609375 v -0.46875 h -3.773437 v 0.46875 z m 4.166016,0.5390625 c -0.269532,0.57421871 -0.386719,0.60937496 -0.867188,0.60937496 h -1.6875 l 1.277344,-1.33593746 c 0.832031,-0.890625 1.195312,-1.4179688 1.195312,-2.203125 0,-0.9492188 -0.726562,-1.5234375 -1.511718,-1.5234375 -0.527344,0 -0.949219,0.234375 -1.21875,0.5390625 l -0.515625,0.7265625 0.199218,0.1757812 c 0.234375,-0.3515625 0.609375,-0.8320312 1.230469,-0.8320312 0.65625,0 1.054688,0.4335937 1.054688,1.1953125 0,0.7734375 -0.5625,1.5117187 -1.125,2.1796875 -0.445313,0.515625 -0.949219,1.03124996 -1.453125,1.52343746 V 5.040625e-4 h 3.363281 C -75.764059,-0.40965219 -75.670309,-0.79637094 -75.553122,-1.1830897 Z m 2.771484,-4.453125 c -1.347656,0 -1.839844,1.6054687 -1.839844,2.9179687 0,1.4179688 0.480469,2.90625001 1.839844,2.90625001 1.359375,0 1.828125,-1.59375001 1.828125,-2.91796871 0,-1.3828125 -0.46875,-2.90625 -1.828125,-2.90625 z m 0,0.3046875 c 0.808594,0 1.03125,1.3242187 1.03125,2.6015625 0,1.265625 -0.222656,2.61328121 -1.03125,2.61328121 -0.773437,0 -1.042969,-1.35937501 -1.042969,-2.61328121 0,-1.2539063 0.222657,-2.6015625 1.042969,-2.6015625 z m 154.429688,4.1484375 c -0.269532,0.57421871 -0.386719,0.60937496 -0.867188,0.60937496 h -1.6875 l 1.277344,-1.33593746 c 0.832031,-0.890625 1.195312,-1.4179688 1.195312,-2.203125 0,-0.9492188 -0.726562,-1.5234375 -1.511718,-1.5234375 -0.527344,0 -0.949219,0.234375 -1.21875,0.5390625 l -0.515625,0.7265625 0.199218,0.1757812 c 0.234375,-0.3515625 0.609375,-0.8320312 1.230469,-0.8320312 0.65625,0 1.054688,0.4335937 1.054688,1.1953125 0,0.7734375 -0.5625,1.5117187 -1.125,2.1796875 -0.445313,0.515625 -0.949219,1.03124996 -1.453125,1.52343746 V 5.040625e-4 h 3.363281 C 81.437113,-0.40965219 81.530863,-0.79637094 81.64805,-1.1830897 Z m 2.774414,-4.453125 c -1.347657,0 -1.839844,1.6054687 -1.839844,2.9179687 0,1.4179688 0.480469,2.90625001 1.839844,2.90625001 1.359375,0 1.828125,-1.59375001 1.828125,-2.91796871 0,-1.3828125 -0.46875,-2.90625 -1.828125,-2.90625 z m 0,0.3046875 c 0.808593,0 1.03125,1.3242187 1.03125,2.6015625 0,1.265625 -0.222657,2.61328121 -1.03125,2.61328121 -0.773438,0 -1.042969,-1.35937501 -1.042969,-2.61328121 0,-1.2539063 0.222656,-2.6015625 1.042969,-2.6015625 z M -2.1966766,-107.75047 v -0.2461 c -0.8203125,-0.0586 -0.8789062,-0.1289 -0.8789062,-0.78515 v -4.6875 c -0.4921875,0.19922 -1.0195313,0.375 -1.59375,0.46875 v 0.21093 l 0.4335937,0.0117 c 0.3867188,0.0234 0.421875,0.0703 0.421875,0.53907 v 3.45703 c 0,0.65625 -0.035156,0.72656 -0.8554687,0.78515 v 0.2461 z m 0,0"
         style="fill:#231f20;fill-opacity:1;fill-rule:nonzero;stroke:none"
         aria-label="010–10–2020&#10;1"
         transform="matrix(1.3333333,0,0,1.3333333,112.26093,153.57355)" />
      <path
         id="path5"
         d="m 66.5977,1130.27 0.4765,0.06 0.5156,0.04 0.961,0.1 1.957,0.2 3.9063,0.39 0.5078,0.05 0.4883,0.05 0.9882,0.1 1.9571,0.19 3.9062,0.32 0.9649,0.1 0.9882,0.08 1.9571,0.15 0.4844,0.03 0.4765,0.05 0.9961,0.07 1.9492,0.13 0.4883,0.03 0.4844,0.05 0.9844,0.05 1.9531,0.12 0.4844,0.03 0.5078,0.02 0.9687,0.05 1.9571,0.1 1.0625,0.06 1.0702,0.02 1.066,0.05 1.04,0.05 h 0.531 l 1.062,0.06 h 0.535 l 0.536,0.02 h 0.535 l 1.039,0.02 0.531,0.03 h 1.066 l 0.532,0.02 h 2.644 l 0.532,0.03 h 1.601 l 0.535,-0.03 h 2.637 l 0.535,-0.02 h 0.531 l 0.536,-0.03 h 1.062 l 0.539,-0.02 0.5,-0.02 h 0.535 l 0.531,-0.03 h 0.54 l 2.136,-0.1 h 0.508 l 2.129,-0.11 1.07,-0.07 1.063,-0.05 1.043,-0.05 2.133,-0.15 0.476,-0.03 0.516,-0.05 2.969,-0.23 0.48,-0.05 0.508,-0.02 0.988,-0.11 1.981,-0.18 0.484,-0.05 0.508,-0.05 0.992,-0.1 5.941,-0.68 0.481,-0.08 0.508,-0.05 0.984,-0.13 5.941,-0.84 7.926,-1.24 0.969,-0.16 0.961,-0.17 1.957,-0.33 3.887,-0.69 7.769,-1.45 0.477,-0.07 0.484,-0.1 0.969,-0.17 1.957,-0.39 3.883,-0.73 7.761,-1.45 0.52,-0.11 1.594,-0.3 2.109,-0.37 4.188,-0.74 0.531,-0.1 0.535,-0.08 1.043,-0.18 2.101,-0.36 4.219,-0.65 0.531,-0.11 0.532,-0.08 1.047,-0.15 2.105,-0.3 1.07,-0.15 1.036,-0.13 2.109,-0.28 0.531,-0.08 0.531,-0.04 1.039,-0.13 2.118,-0.25 1.062,-0.11 1.039,-0.12 2.106,-0.2 0.484,-0.06 0.508,-0.02 0.969,-0.11 0.504,-0.02 0.484,-0.05 0.992,-0.08 0.484,-0.03 0.508,-0.04 0.957,-0.06 1.981,-0.12 0.484,-0.03 0.481,-0.05 0.996,-0.05 h 0.48 l 0.508,-0.03 0.988,-0.05 0.489,-0.02 h 0.476 l 0.508,-0.02 0.484,-0.03 h 0.481 l 0.512,-0.03 h 0.484 l 0.476,-0.02 h 0.989 l 0.484,-0.03 h 4.926 l 0.484,0.03 h 0.989 l 0.484,0.02 h 0.508 l 0.48,0.03 h 0.512 l 0.961,0.05 0.988,0.02 0.488,0.03 0.508,0.02 0.965,0.06 0.508,0.02 0.48,0.03 0.993,0.05 1.066,0.05 1.062,0.07 0.536,0.06 0.531,0.02 1.066,0.11 0.535,0.02 0.532,0.05 1.039,0.1 2.672,0.25 0.531,0.08 1.07,0.1 2.129,0.25 4.262,0.56 2.137,0.3 2.132,0.34 4.266,0.71 8.508,1.6 0.531,0.1 0.508,0.1 1.062,0.23 2.086,0.43 4.192,0.89 8.347,1.83 0.535,0.1 0.504,0.13 1.079,0.23 2.078,0.45 4.183,0.91 8.36,1.73 0.484,0.1 0.508,0.1 0.957,0.19 1.957,0.37 3.914,0.69 0.48,0.08 0.481,0.1 0.973,0.15 1.945,0.3 3.918,0.56 0.476,0.08 0.481,0.05 0.996,0.13 1.945,0.23 1.938,0.2 1.957,0.2 0.508,0.03 0.476,0.05 0.973,0.08 0.476,0.02 0.508,0.05 1.93,0.1 0.508,0.03 1.929,0.1 0.508,0.02 h 0.508 l 0.531,0.03 h 0.531 l 0.536,0.02 h 1.074 l 0.508,0.03 h 1.593 l 0.539,-0.03 h 1.036 l 0.531,-0.02 h 0.539 l 1.062,-0.05 h 0.536 l 0.504,-0.02 1.07,-0.06 0.527,-0.05 1.07,-0.05 0.508,-0.05 0.532,-0.03 1.07,-0.1 0.539,-0.02 0.531,-0.05 1.039,-0.11 0.531,-0.07 0.536,-0.05 1.062,-0.13 0.508,-0.05 2.668,-0.38 1.039,-0.15 2.133,-0.36 0.512,-0.1 1.597,-0.3 2.106,-0.43 4.242,-0.99 0.476,-0.13 0.516,-0.13 0.984,-0.28 1.957,-0.54 3.961,-1.19 0.481,-0.17 0.508,-0.15 0.996,-0.34 1.957,-0.68 3.957,-1.42 0.508,-0.21 0.476,-0.17 0.996,-0.41 1.977,-0.79 3.941,-1.64 7.895,-3.61 0.965,-0.46 0.984,-0.48 1.934,-0.94 3.863,-1.93 7.738,-3.99 0.969,-0.5 0.988,-0.51 1.93,-0.99 3.863,-2.04 7.742,-3.95 1.063,-0.51 1.043,-0.54 2.109,-1.02 4.192,-1.99 0.531,-0.24 0.531,-0.25 1.039,-0.48 2.113,-0.91 4.188,-1.79 1.062,-0.39 1.039,-0.45 2.118,-0.78 0.507,-0.18 0.532,-0.2 1.039,-0.36 2.105,-0.71 1.071,-0.35 1.035,-0.31 2.113,-0.64 0.508,-0.14 0.531,-0.13 1.039,-0.28 2.106,-0.51 0.484,-0.12 0.508,-0.11 0.969,-0.2 0.503,-0.1 0.485,-0.1 0.992,-0.21 0.961,-0.15 0.988,-0.17 0.973,-0.16 0.984,-0.12 0.481,-0.06 0.508,-0.07 1.449,-0.15 0.508,-0.05 0.488,-0.06 0.48,-0.02 0.504,-0.06 0.961,-0.04 0.512,-0.03 0.965,-0.05 h 0.484 l 0.508,-0.02 h 2.941 l 0.493,0.02 h 0.476 l 0.484,0.03 0.508,0.02 0.965,0.05 0.508,0.05 0.48,0.03 0.485,0.05 0.508,0.03 0.964,0.09 0.989,0.13 0.48,0.05 0.481,0.08 0.996,0.13 0.476,0.08 0.508,0.09 0.973,0.16 1.949,0.4 0.531,0.11 1.602,0.37 2.137,0.55 1.066,0.29 1.039,0.33 2.129,0.66 0.539,0.18 0.531,0.2 1.067,0.39 2.101,0.79 4.274,1.79 0.531,0.26 0.531,0.23 1.07,0.51 2.106,1.04 4.262,2.2 8.488,4.98 0.527,0.33 0.508,0.33 1.043,0.66 2.105,1.35 4.165,2.71 8.332,5.62 1.058,0.71 1.043,0.69 2.086,1.39 4.16,2.71 8.36,5.09 0.961,0.56 0.964,0.53 1.957,1.01 0.481,0.26 0.484,0.23 0.989,0.47 2.414,1.15 0.476,0.2 0.996,0.41 1.934,0.79 0.508,0.17 0.476,0.19 0.965,0.32 1.957,0.61 0.481,0.16 1.449,0.37 0.48,0.11 0.504,0.12 0.973,0.21 0.476,0.07 0.485,0.1 0.969,0.15 0.507,0.06 0.477,0.07 0.965,0.11 0.968,0.04 0.508,0.03 0.481,0.02 h 0.48 l 0.489,0.03 0.48,-0.03 h 0.484 l 0.477,-0.02 0.508,-0.03 0.488,-0.02 1.445,-0.15 0.481,-0.08 1.019,-0.15 0.532,-0.1 0.535,-0.13 0.535,-0.1 0.504,-0.15 0.531,-0.13 1.07,-0.31 0.532,-0.17 0.507,-0.17 1.067,-0.41 0.531,-0.24 0.508,-0.23 1.062,-0.48 0.536,-0.25 0.515,-0.28 1.067,-0.58 1.062,-0.61 1.039,-0.69 0.531,-0.35 0.536,-0.38 1.043,-0.76 2.105,-1.71 0.531,-0.45 0.531,-0.49 1.047,-0.99 2.133,-2.1 0.508,-0.59 0.531,-0.56 1.067,-1.21 2.109,-2.57 0.508,-0.69 0.527,-0.69 1.07,-1.41 2.114,-3.05 4.211,-6.8 0.48,-0.87 0.504,-0.86 0.996,-1.78 1.953,-3.76 3.938,-8.15 0.508,-1.07 0.476,-1.08 0.996,-2.27 1.953,-4.64 3.965,-10.01 0.961,-2.63 0.992,-2.72 1.977,-5.59 3.941,-11.93 7.871,-26.74 0.532,-1.96 0.535,-1.97 1.066,-3.99 2.129,-8.2 4.27,-17.211 8.531,-37.789 0.535,-2.488 1.598,-7.617 2.156,-10.352 4.266,-21.515 8.535,-45.852 0.508,-2.945 0.531,-2.922 1.039,-5.938 2.105,-12.015 4.196,-24.547 8.379,-51.215 16.753,-108.395 0.481,-3.226 0.484,-3.246 0.993,-6.5 1.953,-13.004 3.91,-26.074 7.82,-52.129 15.637,-101.813 0.508,-3.328 0.531,-3.344 1.074,-6.636 2.133,-13.168 4.211,-25.805 8.484,-49.156 0.531,-2.946 0.536,-2.921 1.062,-5.813 2.11,-11.445 4.234,-22.047 8.484,-40.442 0.481,-2.207 0.508,-2.187 0.992,-4.285 1.984,-8.387 3.957,-15.816 0.485,-1.875 0.507,-1.852 0.993,-3.691 1.953,-7.055 3.964,-13.156 0.504,-1.52 0.481,-1.527 0.984,-2.969 1.989,-5.687 0.507,-1.348 0.481,-1.344 0.996,-2.609 1.973,-4.93 0.488,-1.191 0.508,-1.141 0.984,-2.23 1.984,-4.2 0.485,-0.961 0.508,-0.968 0.988,-1.848 1.976,-3.402 0.481,-0.789 0.488,-0.743 0.961,-1.437 0.484,-0.691 0.489,-0.661 0.961,-1.25 0.504,-0.578 0.484,-0.551 0.973,-1.05 0.957,-0.969 0.968,-0.859 0.957,-0.762 0.508,-0.328 0.485,-0.332 0.488,-0.301 0.957,-0.508 0.484,-0.23 0.489,-0.211 0.484,-0.168 0.48,-0.153 0.473,-0.129 0.512,-0.101 0.484,-0.078 0.485,-0.051 0.332,-0.02"
         style="fill:none;stroke:#3871c1;stroke-width:7.5;stroke-linecap:square;stroke-linejoin:miter;stroke-miterlimit:3.25;stroke-dasharray:none;stroke-opacity:1"
         transform="matrix(0.13333333,0,0,-0.13333333,0,157.89333)" />
      <path
         id="path6"
         d="m 864.574,147.48 1.067,0.102 0.476,0.109 0.485,0.11 0.507,0.129 0.965,0.359 0.481,0.211 0.965,0.5 0.492,0.281 0.476,0.297 0.961,0.711 0.489,0.391 0.507,0.402 0.961,0.859 0.481,0.489 0.488,0.5 0.969,1.07 0.472,0.578 0.485,0.613 0.996,1.25 1.926,2.821 0.535,0.828 0.508,0.871 1.066,1.801 2.102,3.91 0.507,1.066 0.532,1.063 1.07,2.238 2.086,4.789 0.535,1.274 0.531,1.296 1.039,2.641 2.102,5.672 4.219,12.488 0.539,1.699 0.508,1.7 1.062,3.476 2.109,7.246 4.192,15.664 0.535,2.051 0.527,2.078 1.043,4.25 2.102,8.731 4.219,18.535 0.488,2.234 0.508,2.258 0.957,4.594 1.98,9.371 3.906,19.555 7.875,42.043 15.692,93.644 34.055,223.996 0.535,3.453 0.527,3.422 1.047,6.887 2.078,13.711 4.191,27.117 8.348,52.914 0.508,3.223 0.527,3.254 1.043,6.418 2.09,12.722 4.184,24.961 8.35,47.707 0.97,5.332 1,5.305 1.95,10.465 3.87,20.312 7.81,38.188 0.96,4.515 0.99,4.473 1.96,8.781 3.89,16.891 7.79,30.975 1.05,3.91 1.05,3.83 2.14,7.49 4.22,14.09 0.52,1.71 0.54,1.64 1.04,3.3 2.13,6.35 4.22,11.88 1.07,2.8 1.04,2.72 2.09,5.25 1.08,2.54 1.06,2.46 2.1,4.73 0.55,1.12 0.52,1.13 1.05,2.19 2.11,4.19 4.23,7.62 0.49,0.84 0.5,0.78 1,1.6 1.95,3 0.51,0.71 0.49,0.71 0.98,1.37 1.98,2.57 0.48,0.63 0.5,0.58 0.98,1.17 1.98,2.19 0.51,0.53 1.47,1.47 1.96,1.8 0.5,0.41 0.48,0.43 0.99,0.79 0.51,0.39 0.49,0.34 0.97,0.72 0.5,0.33 0.51,0.3 0.99,0.64 1.95,1.09 0.51,0.25 0.48,0.22 0.99,0.47 0.48,0.23 0.51,0.18 0.99,0.37 0.47,0.18 0.53,0.15 0.96,0.31 0.51,0.13 0.47,0.12 1,0.23 0.97,0.2 0.95,0.16 1.94,0.2 0.49,0.02 0.5,0.03 0.48,0.02 h 0.48 l 0.48,0.03 0.49,-0.03 h 0.48 l 1.45,-0.07 0.48,-0.05 0.49,-0.03 0.47,-0.07 0.48,-0.05 0.49,-0.08 0.48,-0.05 0.48,-0.08 0.49,-0.1 0.96,-0.17 0.48,-0.11 0.48,-0.12 0.97,-0.23 0.49,-0.13 0.5,-0.12 2.9,-0.92 1.92,-0.71 1.94,-0.79 0.47,-0.2 0.49,-0.23 0.97,-0.43 1.92,-0.92 3.89,-2 0.5,-0.29 0.54,-0.29 1.05,-0.59 2.11,-1.24 4.18,-2.57 8.39,-5.51 0.54,-0.36 0.52,-0.33 1.06,-0.71 2.08,-1.41 4.21,-2.82 8.38,-5.49 0.49,-0.31 0.51,-0.3 0.95,-0.61 1.97,-1.2 3.93,-2.27 0.48,-0.29 0.49,-0.25 0.98,-0.55 1.95,-1.05 3.93,-1.98 0.47,-0.23 0.51,-0.23 0.97,-0.46 1.95,-0.88 0.51,-0.21 1.44,-0.61 1.99,-0.76 0.48,-0.2 0.48,-0.17 0.98,-0.37 1.96,-0.66 0.48,-0.14 0.49,-0.18 1,-0.28 2.48,-0.72 0.53,-0.12 1.07,-0.28 0.54,-0.13 0.49,-0.09 1.08,-0.24 0.52,-0.12 0.53,-0.11 1.08,-0.17 1.06,-0.2 1.05,-0.16 1.07,-0.15 0.53,-0.05 0.53,-0.08 2.13,-0.2 0.54,-0.03 0.51,-0.05 2.66,-0.12 h 3.17 l 0.54,0.02 h 0.52 l 1.6,0.08 0.53,0.04 0.55,0.03 0.51,0.05 2.66,0.26 1.07,0.13 1.07,0.15 1.04,0.17 0.52,0.08 0.53,0.1 1.08,0.18 2.12,0.43 0.49,0.1 0.51,0.13 1,0.23 1.97,0.51 0.49,0.12 0.5,0.14 0.98,0.27 1.99,0.58 0.47,0.15 0.51,0.16 2.98,0.99 3.96,1.47 0.51,0.18 0.48,0.2 1,0.38 1.97,0.82 3.96,1.72 7.95,3.71 0.48,0.23 0.49,0.25 0.96,0.49 1.96,0.96 3.89,1.98 7.77,4.01 1.92,1.02 1.96,1.01 3.87,2 7.78,3.92 1.07,0.51 1.04,0.5 2.11,1.02 4.2,1.93 0.54,0.25 0.53,0.23 1.05,0.46 2.11,0.92 4.2,1.72 1.08,0.41 1.03,0.4 2.11,0.79 4.22,1.47 1.05,0.36 1.06,0.33 2.11,0.63 4.22,1.2 0.49,0.12 0.48,0.13 1,0.26 1.95,0.45 0.51,0.11 0.49,0.12 0.98,0.2 1.97,0.39 0.47,0.1 0.51,0.09 0.99,0.18 1.95,0.33 0.49,0.08 0.51,0.08 0.99,0.12 1.96,0.28 0.48,0.05 0.5,0.06 0.97,0.1 0.51,0.04 0.48,0.06 0.99,0.1 0.48,0.05 0.51,0.03 0.48,0.04 0.48,0.03 0.51,0.05 0.48,0.03 1,0.05 0.48,0.02 0.5,0.03 0.97,0.05 0.51,0.02 h 0.48 l 0.48,0.03 h 0.51 l 0.48,0.02 h 1.47 l 0.51,0.03 h 0.97 l 0.51,-0.03 h 1.59 l 0.54,-0.02 h 0.53 l 2.14,-0.1 h 0.53 l 0.53,-0.05 1.59,-0.08 1.07,-0.08 0.53,-0.02 0.54,-0.05 1.06,-0.08 3.21,-0.3 1.06,-0.13 2.11,-0.25 0.53,-0.05 1.6,-0.23 2.14,-0.27 4.26,-0.69 0.54,-0.09 0.52,-0.1 1.08,-0.18 2.13,-0.37 4.8,-0.92 0.51,-0.1 1.05,-0.2 2.09,-0.43 4.19,-0.89 8.38,-1.83 0.5,-0.1 0.54,-0.12 3.13,-0.7 4.18,-0.9 8.38,-1.76 0.49,-0.1 0.49,-0.08 0.98,-0.19 1.96,-0.39 3.89,-0.71 0.5,-0.1 0.48,-0.08 0.96,-0.18 1.96,-0.3 3.92,-0.64 0.47,-0.05 0.51,-0.07 0.96,-0.16 1.96,-0.25 0.47,-0.07 0.5,-0.06 0.98,-0.12 1.96,-0.23 0.49,-0.08 0.47,-0.05 0.99,-0.1 1.93,-0.2 0.51,-0.03 1.45,-0.15 1.95,-0.16 0.54,-0.04 0.53,-0.03 1.07,-0.08 0.5,-0.02 0.53,-0.05 2.67,-0.13 0.51,-0.03 2.14,-0.09 h 0.53 l 0.51,-0.03 0.53,-0.03 h 0.54 l 0.53,-0.02 h 1.06 l 0.51,-0.03 h 4.76 l 0.55,0.03 h 1.05 l 0.52,0.02 h 0.54 l 0.53,0.03 h 0.53 l 1.6,0.07 h 0.51 l 2.67,0.13 0.5,0.03 1.06,0.07 0.54,0.03 0.53,0.05 1.04,0.05 0.53,0.05 0.54,0.02 1.07,0.11 2.11,0.18 0.51,0.05 0.47,0.03 2.97,0.29 3.97,0.46 0.49,0.06 0.47,0.07 0.99,0.1 5.94,0.84 0.49,0.08 0.5,0.07 1,0.13 1.97,0.33 3.93,0.63 7.93,1.4 0.49,0.08 0.47,0.09 2.91,0.53 3.87,0.75 7.75,1.44 0.95,0.21 0.98,0.18 1.95,0.35 3.86,0.74 7.77,1.37 0.51,0.1 0.54,0.07 1.03,0.19 2.11,0.35 4.21,0.69 0.52,0.07 0.53,0.07 1.04,0.16 2.11,0.3 4.21,0.58 0.54,0.09 0.51,0.04 1.06,0.16 2.09,0.25 1.05,0.1 1.04,0.14 2.11,0.22 0.54,0.05 0.51,0.05 1.07,0.1 2.1,0.2 0.51,0.06 0.53,0.05 1.04,0.07 2.11,0.18 0.49,0.03 0.5,0.02 0.96,0.07 0.51,0.03 0.49,0.05 0.98,0.05 0.96,0.05 1.01,0.06 1.94,0.1 0.49,0.02 0.51,0.03 0.95,0.05 h 0.51 l 0.49,0.02 0.99,0.03 0.49,0.03 h 0.47 l 0.51,0.02 h 0.49 l 0.49,0.02 h 0.5 l 0.47,0.03 h 0.98 l 0.51,0.02 h 2.44 l 0.51,0.03 h 1.95 l 0.48,-0.03 h 2.46 l 0.48,-0.02 h 0.99 l 0.49,-0.03 0.99,-0.02 h 0.48 l 0.47,-0.02 1,-0.03 h 0.48 l 0.51,-0.03 0.96,-0.02 0.56,-0.03 0.54,-0.02 1.08,-0.05 h 0.57 l 0.55,-0.03 1.09,-0.05 0.54,-0.05 0.55,-0.03 1.1,-0.05 2.18,-0.13 0.55,-0.02 0.55,-0.05 1.09,-0.05 2.21,-0.16 4.36,-0.35 0.56,-0.02 0.54,-0.06 1.09,-0.1 2.21,-0.17 4.36,-0.41 0.55,-0.05 0.55,-0.07 3.26,-0.31 0.57,-0.08 0.55,-0.04 1.1,-0.11 0.53,-0.08 0.55,-0.05 0.55,-0.04 0.54,-0.06"
         style="fill:none;stroke:#3871c1;stroke-width:7.5;stroke-linecap:square;stroke-linejoin:miter;stroke-miterlimit:3.25;stroke-dasharray:none;stroke-opacity:1"
         transform="matrix(0.13333333,0,0,-0.13333333,0,157.89333)" />
      <path
         id="path7"
         d="m 66.5977,117.461 v 30"
         style="fill:none;stroke:#231f20;stroke-width:5;stroke-linecap:butt;stroke-linejoin:miter;stroke-miterlimit:3.25;stroke-dasharray:none;stroke-opacity:1"
         transform="matrix(0.13333333,0,0,-0.13333333,0,157.89333)" />
      <path
         id="path8"
         d="m 465.328,117.461 v 30"
         style="fill:none;stroke:#231f20;stroke-width:5;stroke-linecap:butt;stroke-linejoin:miter;stroke-miterlimit:3.25;stroke-dasharray:none;stroke-opacity:1"
         transform="matrix(0.13333333,0,0,-0.13333333,0,157.89333)" />
      <path
         id="path9"
         d="m 864.066,117.461 v 30"
         style="fill:none;stroke:#231f20;stroke-width:5;stroke-linecap:butt;stroke-linejoin:miter;stroke-miterlimit:3.25;stroke-dasharray:none;stroke-opacity:1"
         transform="matrix(0.13333333,0,0,-0.13333333,0,157.89333)" />
      <path
         id="path10"
         d="m 1262.79,117.461 v 30"
         style="fill:none;stroke:#231f20;stroke-width:5;stroke-linecap:butt;stroke-linejoin:miter;stroke-miterlimit:3.25;stroke-dasharray:none;stroke-opacity:1"
         transform="matrix(0.13333333,0,0,-0.13333333,0,157.89333)" />
      <path
         id="path11"
         d="m 1661.52,117.461 v 30"
         style="fill:none;stroke:#231f20;stroke-width:5;stroke-linecap:butt;stroke-linejoin:miter;stroke-miterlimit:3.25;stroke-dasharray:none;stroke-opacity:1"
         transform="matrix(0.13333333,0,0,-0.13333333,0,157.89333)" />
      <path
         id="path12"
         d="m 834.066,1133.19 h 29.997 m 0.003,-985.729 h 18.895 m -816.3633,0 H 1661.52"
         style="fill:none;stroke:#231f20;stroke-width:5;stroke-linecap:butt;stroke-linejoin:miter;stroke-miterlimit:3.25;stroke-dasharray:none;stroke-opacity:1"
         transform="matrix(0.13333333,0,0,-0.13333333,0,157.89333)" />
      <path
         id="path13"
         d="M 864.066,147.461 V 1133.19"
         style="fill:none;stroke:#231f20;stroke-width:5;stroke-linecap:butt;stroke-linejoin:miter;stroke-miterlimit:3.25;stroke-dasharray:none;stroke-opacity:1"
         transform="matrix(0.13333333,0,0,-0.13333333,0,157.89333)" />
    </g>
  </g>
</svg>
