<?xml version="1.0" encoding="UTF-8" standalone="no"?>
<!-- Created with Inkscape (http://www.inkscape.org/) -->

<svg
   version="1.1"
   id="svg1"
   width="221.18668"
   height="152.89333"
   viewBox="0 0 221.18668 152.89333"
   sodipodi:docname="pha08f49.eps"
   xmlns:inkscape="http://www.inkscape.org/namespaces/inkscape"
   xmlns:sodipodi="http://sodipodi.sourceforge.net/DTD/sodipodi-0.dtd"
   xmlns="http://www.w3.org/2000/svg"
   xmlns:svg="http://www.w3.org/2000/svg">
  <defs
     id="defs1" />
  <sodipodi:namedview
     id="namedview1"
     pagecolor="#ffffff"
     bordercolor="#000000"
     borderopacity="0.25"
     inkscape:showpageshadow="2"
     inkscape:pageopacity="0.0"
     inkscape:pagecheckerboard="0"
     inkscape:deskcolor="#d1d1d1">
    <inkscape:page
       x="0"
       y="0"
       inkscape:label="1"
       id="page1"
       width="221.18668"
       height="152.89333"
       margin="0"
       bleed="0" />
  </sodipodi:namedview>
  <g
     id="g1"
     inkscape:groupmode="layer"
     inkscape:label="1">
    <g
       id="group-R5">
      <path
         id="path2"
         d="m 1.6296016,-3.0817469 v -0.984375 c -0.4335938,0.1875 -0.83203129,0.2929688 -1.26562504,0.3632813 v 0.1992187 c 0.50390625,0.070312 0.55078125,0.1054688 0.55078125,0.703125 v 1.86328128 c 0,0.59765625 -0.0585938,0.64453125 -0.62109375,0.703125 V 2.84375e-4 H 2.3678828 V -0.23409062 C 1.6764766,-0.29268437 1.6296016,-0.33955937 1.6296016,-0.93721562 V -2.5778406 c 0.1992187,-0.5039063 0.4804687,-0.7734375 0.7148437,-0.7734375 0.1523438,0 0.2578125,0.046875 0.3867188,0.1875 0.046875,0.046875 0.1289062,0.058594 0.234375,0.011719 0.1757812,-0.082031 0.2929687,-0.2578125 0.2929687,-0.4335937 0,-0.2226563 -0.2109375,-0.4570313 -0.5273437,-0.4570313 -0.421875,0 -0.8085938,0.5039063 -1.078125,0.9609375 z m 5.6103515,2.73046878 -0.09375,-0.234375 c -0.09375,0.0585938 -0.2226562,0.10546875 -0.328125,0.10546875 -0.1523437,0 -0.3164062,-0.140625 -0.3164062,-0.55078123 v -1.6640625 c 0,-0.46875 -0.082031,-0.84375 -0.3984375,-1.1015625 -0.1992188,-0.1640625 -0.46875,-0.2460938 -0.7382813,-0.2460938 -0.515625,0.1054688 -1.1015625,0.4570313 -1.3476562,0.6328125 -0.1757813,0.1289063 -0.2929688,0.2226563 -0.2929688,0.3632813 0,0.1992187 0.234375,0.3867187 0.3984375,0.3867187 0.1289063,0 0.2226563,-0.070312 0.2578125,-0.2109375 0.070312,-0.28125 0.1523438,-0.4804687 0.2695313,-0.5976562 0.09375,-0.1054688 0.2226562,-0.1757813 0.4101562,-0.1757813 0.4453125,0 0.75,0.3632813 0.75,1.0195313 v 0.1640625 c -0.1992187,0.1523437 -0.8554687,0.3984375 -1.3945312,0.5742187 -0.4921875,0.1757813 -0.7265625,0.4570313 -0.7265625,0.90234378 0,0.5625 0.4453125,1.08984375 1.078125,1.08984375 0.2695312,0 0.703125,-0.328125 1.0664062,-0.57421875 0.046875,0.15234375 0.09375,0.28125 0.2109375,0.41015625 0.1054688,0.08203125 0.2929688,0.1640625 0.421875,0.1640625 z M 5.8102656,-0.76143437 c -0.1640625,0.1640625 -0.4804687,0.31640625 -0.7148437,0.328125 -0.28125,0 -0.6445313,-0.22265625 -0.6445313,-0.69140623 0,-0.328125 0.1992188,-0.4921875 0.5507813,-0.65625 0.1875,-0.09375 0.6210937,-0.28125 0.8085937,-0.375 z m 6.1318364,0.3046875 -0.292969,-0.0234375 c -0.328125,-0.046875 -0.386719,-0.0820313 -0.386719,-0.55078123 v -5.3789063 c -0.339844,0.1171875 -0.9375,0.2578125 -1.4062499,0.3164063 v 0.2109375 c 0.6445309,0.046875 0.6914059,0.082031 0.6914059,0.6679687 v 1.2773438 c -0.210937,-0.082031 -0.46875,-0.1054688 -0.5976559,-0.1054688 -1.21875,0 -2.3203125,0.984375 -2.3203125,2.2382813 0,1.25390623 0.9492187,1.91015623 1.6640625,1.91015623 0.1054687,0 0.3515625,-0.046875 0.703125,-0.2578125 l 0.5507809,-0.328125 v 0.5859375 c 0.527344,-0.1875 1.195313,-0.3046875 1.394532,-0.33984375 z m -1.394532,-0.3046875 c -0.210937,0.1640625 -0.539062,0.3046875 -0.8671872,0.3046875 -0.5742187,0 -1.2304687,-0.52734375 -1.2304687,-1.59375003 0,-1.3007812 0.7617187,-1.6523437 1.171875,-1.6523437 0.3398437,0 0.7148439,0.140625 0.9257809,0.4570312 z m 2.712891,-4.06640623 c 0.257812,0 0.457031,-0.2109375 0.457031,-0.4570313 0,-0.2695312 -0.199219,-0.46875 -0.457031,-0.46875 -0.234375,0 -0.457031,0.1992188 -0.457031,0.46875 0,0.2460938 0.222656,0.4570313 0.457031,0.4570313 z M 14.315148,2.84375e-4 V -0.23409062 c -0.585937,-0.0585938 -0.644531,-0.10546875 -0.644531,-0.71484375 V -4.0544031 c -0.398437,0.1523437 -0.820312,0.2695312 -1.277344,0.3515625 v 0.2109375 c 0.539063,0.09375 0.5625,0.1289062 0.5625,0.6796875 v 1.86328123 c 0,0.609375 -0.05859,0.65625 -0.621093,0.71484375 V 2.84375e-4 Z m 4.69336,-0.445312495 -0.257813,-0.0117188 c -0.339843,-0.0234375 -0.410156,-0.0820313 -0.410156,-0.52734375 V -3.9958094 c -0.480469,0.09375 -0.949219,0.140625 -1.417969,0.1640625 v 0.1992188 c 0.65625,0.09375 0.703125,0.1289062 0.703125,0.6445312 v 2.09765628 c -0.304687,0.29296875 -0.644531,0.43359375 -0.972656,0.43359375 -0.398437,0 -0.785156,-0.22265625 -0.785156,-1.01953123 v -1.2070313 c 0,-0.609375 0,-1.03125 0.02344,-1.3125 -0.433593,0.082031 -0.867187,0.140625 -1.289062,0.1640625 v 0.1992188 c 0.515625,0.1054687 0.550781,0.140625 0.550781,0.6328125 v 1.7695312 c 0,0.97265628 0.515625,1.33593753 1.113281,1.33593753 0.246094,0 0.433594,-0.0703125 0.691407,-0.22265625 0.257812,-0.15234375 0.46875,-0.31640625 0.667968,-0.46875 v 0.64453125 l 0.05859,0.046875 c 0.445313,-0.12890625 0.902344,-0.2578125 1.324219,-0.31640625 z m 2.970703,-2.48437498 c -0.03516,-0.2226563 -0.128906,-0.75 -0.199219,-0.9609375 -0.1875,-0.070312 -0.433594,-0.1523438 -0.796875,-0.1523438 -0.832031,0 -1.371094,0.5273438 -1.371094,1.1601563 0,0.6914062 0.585938,0.9960937 1.125,1.2421875 0.445313,0.2109375 0.703125,0.421875 0.703125,0.82031248 0,0.375 -0.304687,0.6328125 -0.632812,0.6328125 -0.539063,0 -0.949219,-0.52734375 -1.113281,-1.11328128 l -0.234375,0.035156 c 0,0.32812498 0.08203,0.93749998 0.152343,1.06640623 0.164063,0.140625 0.574219,0.3046875 1.03125,0.3046875 0.726563,0 1.488282,-0.421875 1.488282,-1.24218753 0,-0.6210937 -0.457032,-0.9375 -1.136719,-1.21875 -0.410156,-0.1757812 -0.761719,-0.375 -0.761719,-0.7851562 0,-0.3515625 0.246094,-0.6210938 0.585938,-0.6210938 0.433593,0 0.75,0.3632813 0.925781,0.890625 z M -34.701453,14.335245 c -0.328125,0.304688 -0.667969,0.445313 -1.019531,0.445313 -0.632813,0 -1.335938,-0.503906 -1.347657,-1.722656 1.066407,-0.04687 2.191407,-0.128907 2.355469,-0.164063 0.152344,-0.03516 0.199219,-0.105469 0.199219,-0.28125 0,-0.703125 -0.597656,-1.371094 -1.347656,-1.371094 -0.46875,0 -0.949219,0.246094 -1.324219,0.65625 -0.363281,0.410157 -0.597656,0.960938 -0.597656,1.582032 0,1.007812 0.65625,1.910156 1.757812,1.910156 0.28125,0 0.902344,-0.164063 1.464844,-0.867188 z m -1.371094,-2.753906 c 0.492188,0 0.796875,0.421875 0.785156,0.890625 0,0.128906 -0.04687,0.1875 -0.210937,0.1875 -0.527344,0.01172 -1.019531,0.02344 -1.523438,0.02344 0.128907,-0.726563 0.527344,-1.101563 0.949219,-1.101563 z m 6.061524,3.703125 v -0.234375 c -0.550782,-0.07031 -0.65625,-0.152344 -0.996094,-0.667969 l -0.878906,-1.324218 c 0.292968,-0.445313 0.527343,-0.773438 0.703125,-0.996094 0.328125,-0.375 0.445312,-0.421875 0.984375,-0.480469 v -0.234375 h -1.628907 v 0.234375 c 0.386719,0.03516 0.445313,0.08203 0.28125,0.375 -0.164062,0.292969 -0.339843,0.574219 -0.515625,0.832031 l -0.539062,-0.820312 c -0.152344,-0.257813 -0.128906,-0.339844 0.257812,-0.386719 v -0.234375 h -1.804687 v 0.234375 c 0.503906,0.05859 0.621094,0.128906 0.890625,0.574219 l 0.773437,1.21875 c -0.257812,0.410156 -0.503906,0.761719 -0.75,1.078125 -0.363281,0.457031 -0.457031,0.527344 -1.019531,0.597656 v 0.234375 h 1.6875 v -0.234375 c -0.46875,-0.07031 -0.492187,-0.152344 -0.316406,-0.457031 0.164062,-0.328125 0.375,-0.65625 0.574219,-0.960938 l 0.667968,1.054688 c 0.152344,0.246094 0.08203,0.316406 -0.304687,0.363281 v 0.234375 z m 2.654296,-0.328125 -0.08203,-0.234375 c -0.128906,0.07031 -0.328125,0.152344 -0.5625,0.152344 -0.222656,0 -0.515625,-0.128906 -0.515625,-0.855469 v -2.320312 h 0.960938 c 0.105468,-0.05859 0.128906,-0.257813 0.05859,-0.351563 h -1.019531 v -1.230469 l -0.128906,-0.01172 -0.585938,0.585937 v 0.65625 h -0.410156 l -0.246094,0.269531 0.03516,0.08203 h 0.621093 v 2.625 c 0,0.703125 0.316407,1.066406 0.878907,1.066406 0.08203,0 0.234375,-0.03516 0.386718,-0.117188 z m 3.418946,-0.621094 c -0.328125,0.304688 -0.667969,0.445313 -1.019531,0.445313 -0.632813,0 -1.335938,-0.503906 -1.347657,-1.722656 1.066407,-0.04687 2.191407,-0.128907 2.355469,-0.164063 0.152344,-0.03516 0.199219,-0.105469 0.199219,-0.28125 0,-0.703125 -0.597656,-1.371094 -1.347656,-1.371094 -0.46875,0 -0.949219,0.246094 -1.324219,0.65625 -0.363281,0.410157 -0.597656,0.960938 -0.597656,1.582032 0,1.007812 0.65625,1.910156 1.757812,1.910156 0.28125,0 0.902344,-0.164063 1.464844,-0.867188 z m -1.371094,-2.753906 c 0.492188,0 0.796875,0.421875 0.785156,0.890625 0,0.128906 -0.04687,0.1875 -0.210937,0.1875 -0.527344,0.01172 -1.019531,0.02344 -1.523438,0.02344 0.128907,-0.726563 0.527344,-1.101563 0.949219,-1.101563 z m 6.495117,3.703125 v -0.234375 c -0.527344,-0.05859 -0.574219,-0.09375 -0.574219,-0.703125 v -1.734375 c 0,-0.878906 -0.445312,-1.371094 -1.160156,-1.371094 -0.257812,0 -0.492187,0.105469 -0.75,0.269532 -0.222656,0.152343 -0.421875,0.292968 -0.597656,0.421875 v -0.714844 c -0.398438,0.175781 -0.820313,0.28125 -1.253906,0.363281 v 0.210938 c 0.492187,0.09375 0.539062,0.117187 0.539062,0.691406 v 1.863281 c 0,0.597656 -0.04687,0.644531 -0.65625,0.703125 v 0.234375 h 1.957031 v -0.234375 c -0.527343,-0.05859 -0.585937,-0.09375 -0.585937,-0.703125 v -2.109375 c 0.269531,-0.234375 0.621094,-0.46875 0.984375,-0.46875 0.597656,0 0.820312,0.410156 0.820312,1.03125 v 1.5 c 0,0.621094 -0.07031,0.691406 -0.597656,0.75 v 0.234375 z m 2.727539,-0.328125 -0.08203,-0.234375 c -0.128906,0.07031 -0.328125,0.152344 -0.5625,0.152344 -0.222656,0 -0.515625,-0.128906 -0.515625,-0.855469 v -2.320312 h 0.960938 c 0.105468,-0.05859 0.128906,-0.257813 0.05859,-0.351563 h -1.019531 v -1.230469 l -0.128906,-0.01172 -0.585938,0.585937 v 0.65625 h -0.410156 l -0.246094,0.269531 0.03516,0.08203 h 0.621093 v 2.625 c 0,0.703125 0.316407,1.066406 0.878907,1.066406 0.08203,0 0.234375,-0.03516 0.386718,-0.117188 z m 0,0"
         style="fill:#231f20;fill-opacity:1;fill-rule:nonzero;stroke:none"
         aria-label="radius&#10;extent"
         transform="matrix(1.3333333,0,0,1.3333333,146.68267,128.19493)" />
      <path
         id="path3"
         d="m 75.3945,345.484 h 0.9141 l 0.4727,-0.023 h 1.8515 l 0.4649,-0.027 h 1.3867 l 0.4687,-0.024 h 0.4453 l 0.4649,-0.023 0.9375,-0.02 h 0.4531 l 0.4609,-0.023 0.918,-0.028 0.4649,-0.023 h 0.4687 l 0.918,-0.043 0.9375,-0.051 0.9101,-0.023 1.8516,-0.094 0.9375,-0.047 0.918,-0.07 1.8515,-0.09 0.4649,-0.051 0.4687,-0.023 0.918,-0.071 1.8476,-0.117 0.4649,-0.047 0.457,-0.019 0.9336,-0.074 5.5547,-0.493 0.492,-0.042 0.52,-0.051 0.98,-0.117 2.016,-0.211 4.012,-0.446 0.492,-0.047 0.511,-0.066 1.012,-0.117 1.992,-0.235 4.008,-0.543 0.512,-0.07 0.492,-0.066 3.02,-0.43 4.007,-0.582 8.012,-1.266 0.481,-0.089 0.468,-0.067 0.934,-0.172 1.867,-0.304 3.75,-0.657 7.485,-1.367 15,-2.875 29.367,-5.902 0.98,-0.192 1.012,-0.211 1.992,-0.398 3.984,-0.773 7.969,-1.524 0.985,-0.183 1.003,-0.192 1.993,-0.351 3.984,-0.727 7.969,-1.383 0.449,-0.066 0.469,-0.074 0.937,-0.161 1.856,-0.308 3.718,-0.586 0.469,-0.07 0.446,-0.067 0.937,-0.14 1.856,-0.286 3.726,-0.511 0.934,-0.141 0.922,-0.117 1.871,-0.262 3.699,-0.469 0.469,-0.046 0.472,-0.071 0.934,-0.117 1.851,-0.207 3.711,-0.402 0.512,-0.043 0.492,-0.075 3.024,-0.277 0.511,-0.051 0.493,-0.047 1.007,-0.093 2.02,-0.16 0.512,-0.051 0.492,-0.047 3.027,-0.211 0.512,-0.043 0.492,-0.023 3.024,-0.211 0.519,-0.028 0.492,-0.023 1.004,-0.051 0.496,-0.016 0.516,-0.023 1.008,-0.051 0.492,-0.023 0.512,-0.02 1.011,-0.051 0.493,-0.023 h 0.511 l 1.012,-0.043 0.488,-0.023 h 0.52 l 0.492,-0.028 h 0.512 l 0.496,-0.023 h 0.515 l 0.493,-0.024 h 1.007 l 0.516,-0.019 h 2.02 l 0.492,-0.024 h 2.484 l 0.488,0.024 h 1.477 l 0.492,0.019 h 1.004 l 0.492,0.024 h 0.496 l 0.493,0.023 0.98,0.028 h 0.492 l 0.496,0.023 1.004,0.02 3.938,0.191 1.992,0.113 0.492,0.028 0.492,0.043 0.985,0.046 1.976,0.165 0.512,0.023 1.48,0.141 1.965,0.168 0.488,0.043 0.497,0.074 1.003,0.094 1.973,0.207 3.961,0.496 0.441,0.066 0.465,0.078 0.926,0.113 1.844,0.278 3.707,0.586 0.449,0.074 0.465,0.094 0.91,0.16 1.852,0.332 3.683,0.746 0.934,0.191 0.922,0.18 1.843,0.426 3.688,0.89 7.379,1.997 0.492,0.14 0.512,0.137 0.988,0.309 2.016,0.628 3.984,1.313 0.512,0.168 0.496,0.16 1.008,0.352 1.992,0.726 4.004,1.5 0.496,0.192 0.492,0.207 1.004,0.402 2.02,0.82 3.984,1.707 8.016,3.778 0.468,0.234 0.442,0.23 0.945,0.469 1.871,0.965 3.727,2.012 7.472,4.316 0.938,0.563 0.941,0.586 1.848,1.172 3.75,2.41 7.461,5.179 0.469,0.328 0.441,0.329 0.934,0.66 1.832,1.379 3.652,2.789 7.316,5.953 0.469,0.398 0.441,0.375 0.918,0.797 1.852,1.574 3.656,3.254 7.309,6.891 0.492,0.496 0.516,0.469 2.972,2.972 3.973,4.082 7.937,8.715 0.497,0.586 0.515,0.586 0.981,1.172 1.992,2.418 3.965,4.988 7.945,10.735 0.934,1.312 0.918,1.313 1.847,2.695 3.727,5.508 7.41,11.601 14.812,25.313 0.52,0.914 0.492,0.894 1.004,1.825 2.02,3.683 4.004,7.477 8.035,15.492 16.078,32.813 31.551,70.144 29.437,69.84 31.918,77.375 29.789,70.851 32.301,71.954 0.98,2.105 0.989,2.086 1.992,4.145 3.961,8.187 7.922,15.957 15.839,30.023 0.469,0.817 0.449,0.851 0.938,1.633 1.848,3.285 3.683,6.45 7.403,12.394 0.445,0.75 0.469,0.75 0.945,1.477 1.82,2.953 3.711,5.742 7.375,10.941 0.52,0.707 0.492,0.71 1.008,1.4 1.992,2.77 4.008,5.37 8.011,9.95 0.52,0.59 0.492,0.59 1.008,1.17 1.988,2.25 4.012,4.33 8.016,7.86 0.937,0.83 0.934,0.83 1.879,1.6 3.75,3.02 0.468,0.35 0.446,0.35 0.933,0.71 1.879,1.33 3.75,2.51 1.871,1.12 1.856,1.08 0.937,0.52 0.942,0.49 1.871,0.93 0.468,0.22 0.469,0.23 0.934,0.43 1.879,0.79 0.468,0.19 0.469,0.16 0.942,0.36 1.843,0.65 0.942,0.28 0.918,0.28 0.441,0.15 0.469,0.11 0.91,0.24 0.453,0.11 0.469,0.1 0.906,0.2 0.473,0.1 0.441,0.09 0.918,0.17 0.938,0.14 0.445,0.07 0.465,0.07 0.453,0.04 0.469,0.06 0.437,0.04 0.473,0.05 0.441,0.05 0.469,0.02 0.469,0.04 0.449,0.03 h 0.469 l 0.445,0.02 0.469,0.02 h 1.383 l 0.445,-0.02 h 0.469 l 0.441,-0.02 0.469,-0.03 0.449,-0.02 0.469,-0.02 0.445,-0.05 0.938,-0.09 0.445,-0.05 0.473,-0.05 0.437,-0.06 0.914,-0.13 0.469,-0.09 0.469,-0.07 0.918,-0.17 0.445,-0.08 0.469,-0.1 0.914,-0.21 0.441,-0.12 0.473,-0.09 0.91,-0.26 1.832,-0.54 0.512,-0.13 0.496,-0.18 0.984,-0.34 1.992,-0.75 0.493,-0.19 0.511,-0.22 0.989,-0.41 1.992,-0.92 0.98,-0.47 1.012,-0.51 1.992,-1.08 3.985,-2.37 0.492,-0.3 1.476,-0.99 1.992,-1.38 3.985,-2.98 0.492,-0.38 0.512,-0.39 0.988,-0.82 1.992,-1.67 3.985,-3.56 0.445,-0.42 1.402,-1.34 1.852,-1.8 3.73,-3.82 7.403,-8.32 0.468,-0.54 1.407,-1.69 1.855,-2.27 3.703,-4.71 7.43,-10.06 0.516,-0.702 0.492,-0.727 1.004,-1.425 2.015,-2.934 4.035,-6.027 8.036,-12.7 16.105,-27.835 0.492,-0.918 0.488,-0.895 0.989,-1.828 1.992,-3.68 3.934,-7.445 7.902,-15.434 15.82,-32.57 29.481,-65.742 31.972,-75.985 29.84,-72.375 29.24,-69.566 31.76,-70.852 0.47,-0.96 0.47,-0.985 0.92,-1.969 1.85,-3.867 3.7,-7.683 7.41,-15.028 14.81,-28.383 0.49,-0.937 0.52,-0.914 1.01,-1.824 1.98,-3.614 4.02,-7.101 8.03,-13.641 0.49,-0.82 0.52,-0.82 1.01,-1.641 1.99,-3.207 4.03,-6.301 8.02,-11.937 0.94,-1.309 0.93,-1.34 1.88,-2.601 3.75,-5.039 7.5,-9.418 0.94,-1.129 0.93,-1.098 1.88,-2.16 3.75,-4.149 7.48,-7.781 0.46,-0.441 0.47,-0.469 0.92,-0.894 1.82,-1.801 3.68,-3.496 7.36,-6.633 0.45,-0.399 0.46,-0.371 0.92,-0.8 1.83,-1.543 3.68,-3.028 7.35,-5.719 0.5,-0.375 0.49,-0.351 1.01,-0.746 1.99,-1.434 3.98,-2.785 7.97,-5.184 0.5,-0.328 0.49,-0.304 1,-0.606 2,-1.172 3.98,-2.3 7.97,-4.262 0.94,-0.469 0.93,-0.449 1.86,-0.914 3.73,-1.735 0.44,-0.211 0.47,-0.207 0.94,-0.402 1.85,-0.82 3.72,-1.547 0.94,-0.375 0.92,-0.352 1.87,-0.722 3.73,-1.364 7.42,-2.484 0.5,-0.16 0.52,-0.168 1.01,-0.305 2.01,-0.586 4.03,-1.101 0.49,-0.141 0.52,-0.117 3.02,-0.774 4.04,-0.914 0.49,-0.117 0.51,-0.09 1.01,-0.234 2.01,-0.402 0.5,-0.09 0.52,-0.094 3.01,-0.566 0.5,-0.094 0.51,-0.094 3.03,-0.496 4.03,-0.582 0.49,-0.066 0.5,-0.051 0.97,-0.141 2,-0.234 0.49,-0.07 0.49,-0.047 0.99,-0.118 1.99,-0.187 1.97,-0.184 2,-0.191 0.48,-0.023 0.49,-0.043 2.96,-0.211 0.52,-0.028 0.49,-0.023 0.98,-0.067 2.46,-0.117 0.52,-0.023 0.98,-0.051 h 0.5 l 1.47,-0.066 h 0.49 l 0.5,-0.028 h 0.51 l 0.49,-0.023 h 0.49 l 0.5,-0.024 h 0.99 l 0.48,-0.019 h 1.48 l 0.52,-0.024 h 2.86 l 0.47,0.024 h 1.82 l 0.47,0.019 h 0.94 l 0.45,0.024 h 0.47 l 0.47,0.023 0.9,0.028 h 0.47 l 0.45,0.023 0.94,0.02 0.44,0.023 h 0.47 l 0.92,0.051 0.93,0.043 0.92,0.023 1.85,0.09 0.47,0.027 0.44,0.024 0.94,0.051 1.85,0.117 0.45,0.039 0.47,0.027 0.91,0.051 1.85,0.137 0.47,0.047 0.45,0.027 0.93,0.066 1.85,0.164 3.68,0.329 0.5,0.05 0.51,0.043 1.01,0.117 2,0.192 4,0.469 0.49,0.043 0.5,0.074 3.01,0.351 3.99,0.536 0.52,0.05 0.49,0.067 1.01,0.148 1.99,0.274 4.01,0.609 8.46,1.34 0.47,0.066 2.81,0.492 3.72,0.637 7.48,1.356 14.96,2.882 29.31,5.883 0.5,0.094 0.49,0.117 1,0.192 1.98,0.394 3.98,0.777 7.95,1.524 0.51,0.09 1.48,0.273 2,0.363 3.98,0.723 7.94,1.387 0.47,0.066 0.45,0.071 0.93,0.164 1.85,0.304 3.71,0.586 0.94,0.141 0.91,0.14 1.87,0.286 3.7,0.531 0.47,0.055 0.45,0.066 0.94,0.117 1.85,0.262 3.71,0.469 0.46,0.066 0.47,0.051 0.91,0.117 1.88,0.207 3.71,0.422 1.02,0.098 1.04,0.117 2.08,0.187 4.65,0.418 0.5,0.024 1.06,0.093 2.07,0.141 0.51,0.051 0.51,0.023 1.04,0.067 2.08,0.14 2.07,0.094 0.51,0.051 2.58,0.117 1.05,0.02 1.04,0.046 1.03,0.028 0.51,0.023 h 0.52 l 1.03,0.043 h 1.03 l 0.51,0.024 h 0.54 l 0.52,0.027 h 2.58 l 0.51,0.023 h 0.52"
         style="fill:none;stroke:#3871c1;stroke-width:7.5;stroke-linecap:square;stroke-linejoin:miter;stroke-miterlimit:3.25;stroke-dasharray:none;stroke-opacity:1"
         transform="matrix(0.13333333,0,0,-0.13333333,0,152.89333)" />
      <path
         id="path4"
         d="M 75.3945,155.293 V 115.238 H 1583.46 v 40.055"
         style="fill:none;stroke:#231f20;stroke-width:3.5;stroke-linecap:butt;stroke-linejoin:miter;stroke-miterlimit:3.25;stroke-dasharray:none;stroke-opacity:1"
         transform="matrix(0.13333333,0,0,-0.13333333,0,152.89333)" />
      <path
         id="path5"
         d="M 0,345.484 H 1658.86"
         style="fill:none;stroke:#231f20;stroke-width:3.5;stroke-linecap:butt;stroke-linejoin:miter;stroke-miterlimit:3.25;stroke-dasharray:none;stroke-opacity:1"
         transform="matrix(0.13333333,0,0,-0.13333333,0,152.89333)" />
      <path
         id="path6"
         d="M 829.43,329.449 V 1146.67"
         style="fill:none;stroke:#231f20;stroke-width:3.5;stroke-linecap:butt;stroke-linejoin:miter;stroke-miterlimit:3.25;stroke-dasharray:none;stroke-opacity:1"
         transform="matrix(0.13333333,0,0,-0.13333333,0,152.89333)" />
      <path
         id="path7"
         d="m 829.43,305.406 v -40.058 h 754.03 v 40.058"
         style="fill:none;stroke:#231f20;stroke-width:3.5;stroke-linecap:butt;stroke-linejoin:miter;stroke-miterlimit:3.25;stroke-dasharray:none;stroke-opacity:1"
         transform="matrix(0.13333333,0,0,-0.13333333,0,152.89333)" />
    </g>
  </g>
</svg>
