<?xml version="1.0" encoding="UTF-8" standalone="no"?>
<!-- Created with Inkscape (http://www.inkscape.org/) -->

<svg
   version="1.1"
   id="svg1"
   width="552.88"
   height="163"
   viewBox="0 0 552.88 163"
   sodipodi:docname="pha08f55.eps"
   xmlns:inkscape="http://www.inkscape.org/namespaces/inkscape"
   xmlns:sodipodi="http://sodipodi.sourceforge.net/DTD/sodipodi-0.dtd"
   xmlns="http://www.w3.org/2000/svg"
   xmlns:svg="http://www.w3.org/2000/svg">
  <defs
     id="defs1" />
  <sodipodi:namedview
     id="namedview1"
     pagecolor="#ffffff"
     bordercolor="#000000"
     borderopacity="0.25"
     inkscape:showpageshadow="2"
     inkscape:pageopacity="0.0"
     inkscape:pagecheckerboard="0"
     inkscape:deskcolor="#d1d1d1">
    <inkscape:page
       x="0"
       y="0"
       inkscape:label="1"
       id="page1"
       width="552.88"
       height="163"
       margin="0"
       bleed="0" />
  </sodipodi:namedview>
  <g
     id="g1"
     inkscape:groupmode="layer"
     inkscape:label="1">
    <g
       id="group-R5">
      <path
         id="path2"
         d="m 2.6958797,1.3238244 c -0.890625,-0.76171878 -1.40625,-2.20312503 -1.40625,-3.75 0,-1.546875 0.515625,-3 1.40625,-3.75 L 2.5435359,-6.3871131 c -1.3242187,0.9023437 -1.91015621,2.3320312 -1.91015621,3.9492187 0,1.62890627 0.58593751,3.08203127 1.91015621,3.9609375 z m 4.321289,-1.67578128 -0.09375,-0.234375 c -0.09375,0.0585938 -0.2226562,0.10546875 -0.328125,0.10546875 -0.1523437,0 -0.3164062,-0.140625 -0.3164062,-0.55078127 v -1.6640625 c 0,-0.46875 -0.082031,-0.84375 -0.3984375,-1.1015625 -0.1992188,-0.1640625 -0.46875,-0.2460937 -0.7382813,-0.2460937 -0.515625,0.1054687 -1.1015625,0.4570312 -1.3476562,0.6328125 -0.1757813,0.1289062 -0.2929688,0.2226562 -0.2929688,0.3632812 0,0.1992188 0.234375,0.3867188 0.3984375,0.3867188 0.1289063,0 0.2226563,-0.070312 0.2578125,-0.2109375 0.070312,-0.28125 0.1523438,-0.4804688 0.2695313,-0.5976563 0.09375,-0.1054687 0.2226562,-0.1757812 0.4101562,-0.1757812 0.4453125,0 0.75,0.3632812 0.75,1.0195312 v 0.1640625 c -0.1992187,0.1523438 -0.8554687,0.3984375 -1.3945312,0.5742188 -0.4921875,0.1757812 -0.7265625,0.4570312 -0.7265625,0.90234372 0,0.5625 0.4453125,1.08984375 1.078125,1.08984375 0.2695312,0 0.703125,-0.328125 1.0664062,-0.57421875 0.046875,0.15234375 0.09375,0.28125 0.2109375,0.41015625 0.1054688,0.08203125 0.2929688,0.1640625 0.421875,0.1640625 z M 5.5874812,-0.76211313 c -0.1640625,0.1640625 -0.4804687,0.31640625 -0.7148437,0.328125 -0.28125,0 -0.6445313,-0.22265625 -0.6445313,-0.69140627 0,-0.328125 0.1992188,-0.4921875 0.5507813,-0.65625 0.1875,-0.09375 0.6210937,-0.28125 0.8085937,-0.375 z M 7.4742,-6.1761756 c 0.890625,0.7382812 1.4179687,2.203125 1.4179687,3.75 0,1.54687497 -0.5039062,2.98828122 -1.4179687,3.75 L 7.6382625,1.5230431 C 8.9859187,0.60898062 9.5367,-0.80898813 9.5367,-2.4261756 c 0,-1.6289063 -0.5507813,-3.0585938 -1.8984375,-3.9609375 z M 81.056231,-99.085355 c -0.07031,-0.5625 -0.117187,-0.914063 -0.152344,-1.242185 -0.339843,-0.10547 -0.714843,-0.21094 -1.136718,-0.21094 -1.160157,0 -1.851563,0.738281 -1.851563,1.605468 0,1.019532 0.914063,1.464844 1.488281,1.769532 0.667969,0.363281 1.171875,0.679687 1.171875,1.347656 0,0.65625 -0.410156,1.078125 -1.089843,1.078125 -0.925782,0 -1.324219,-0.914063 -1.464844,-1.464844 l -0.269531,0.07031 c 0.05859,0.433593 0.175781,1.207031 0.246093,1.394531 0.08203,0.04687 0.210938,0.105469 0.445313,0.1875 0.222656,0.05859 0.503906,0.140625 0.878906,0.140625 1.195313,0 1.992188,-0.761719 1.992188,-1.710938 0,-1.007812 -0.855469,-1.429687 -1.546875,-1.78125 -0.714844,-0.375 -1.148438,-0.679687 -1.148438,-1.335937 0,-0.492188 0.304688,-0.996088 0.996094,-0.996088 0.785156,0 1.019531,0.621088 1.183594,1.207025 z m 1.283203,-0.292969 c 0.257813,0 0.457032,-0.210938 0.457032,-0.457031 0,-0.269535 -0.199219,-0.468755 -0.457032,-0.468755 -0.234375,0 -0.457031,0.19922 -0.457031,0.468755 0,0.246093 0.222656,0.457031 0.457031,0.457031 z m 1.054688,4.828125 v -0.234375 c -0.585938,-0.05859 -0.644531,-0.105469 -0.644531,-0.714844 v -3.105469 c -0.398438,0.152344 -0.820313,0.269532 -1.277344,0.351563 v 0.210937 c 0.539062,0.09375 0.5625,0.128907 0.5625,0.679688 v 1.863281 c 0,0.609375 -0.05859,0.65625 -0.621094,0.714844 v 0.234375 z m 4.582031,0 v -0.234375 c -0.527344,-0.05859 -0.574219,-0.09375 -0.574219,-0.703125 v -1.734375 c 0,-0.878906 -0.445312,-1.371094 -1.160156,-1.371094 -0.257812,0 -0.492187,0.105469 -0.75,0.269531 -0.222656,0.152344 -0.421875,0.292969 -0.597656,0.421875 v -0.714843 c -0.398438,0.175781 -0.820313,0.28125 -1.253906,0.363281 v 0.210937 c 0.492187,0.09375 0.539062,0.117188 0.539062,0.691407 v 1.863281 c 0,0.597656 -0.04687,0.644531 -0.65625,0.703125 v 0.234375 h 1.957031 v -0.234375 c -0.527343,-0.05859 -0.585937,-0.09375 -0.585937,-0.703125 v -2.109375 c 0.269531,-0.234375 0.621094,-0.46875 0.984375,-0.46875 0.597656,0 0.820312,0.410156 0.820312,1.03125 v 1.5 c 0,0.621094 -0.07031,0.691406 -0.597656,0.75 v 0.234375 z m 3.149414,-0.996094 c -0.410156,0.386719 -0.703125,0.492188 -1.089844,0.492188 -0.503906,0 -1.359375,-0.410157 -1.359375,-1.664063 0,-0.949219 0.515625,-1.441406 1.113282,-1.441406 0.316406,0 0.632812,0.117187 0.902343,0.375 0.08203,0.07031 0.117188,0.09375 0.164063,0.09375 0.105469,0 0.304687,-0.199219 0.304687,-0.386719 0,-0.105469 -0.03516,-0.175781 -0.152343,-0.28125 -0.140625,-0.117187 -0.433594,-0.234375 -0.796875,-0.234375 -0.351563,0 -0.890625,0.140625 -1.359375,0.503906 -0.597657,0.46875 -0.902344,1.078125 -0.902344,1.769532 0,0.960937 0.667969,1.875 1.804687,1.875 0.527344,0 1.136719,-0.398438 1.523438,-0.914063 z m -9.295898,11.53125 c -0.128907,0.410156 -0.304688,0.703125 -0.457032,0.878906 -0.210937,0.234375 -0.515625,0.28125 -1.007812,0.28125 -0.375,0 -0.679688,-0.02344 -0.867188,-0.117187 -0.164062,-0.09375 -0.199218,-0.269531 -0.199218,-0.761719 v -3.550781 c 0,-0.761719 0.07031,-0.808594 0.785156,-0.867188 v -0.246093 h -2.34375 v 0.246093 c 0.726562,0.05859 0.785156,0.105469 0.785156,0.867188 v 3.597656 c 0,0.773438 -0.07031,0.832031 -0.820312,0.878906 v 0.257813 h 4.078125 c 0.07031,-0.28125 0.269531,-1.136719 0.316406,-1.417969 z m 3.873047,1.113281 -0.09375,-0.234375 c -0.09375,0.05859 -0.222657,0.105469 -0.328125,0.105469 -0.152344,0 -0.316407,-0.140625 -0.316407,-0.550781 v -1.664063 c 0,-0.46875 -0.08203,-0.84375 -0.398437,-1.101562 -0.199219,-0.164063 -0.46875,-0.246094 -0.738281,-0.246094 -0.515625,0.105469 -1.101563,0.457031 -1.347657,0.632813 -0.175781,0.128906 -0.292968,0.222656 -0.292968,0.363281 0,0.199219 0.234375,0.386719 0.398437,0.386719 0.128906,0 0.222656,-0.07031 0.257813,-0.210938 0.07031,-0.28125 0.152343,-0.480469 0.269531,-0.597656 0.09375,-0.105469 0.222656,-0.175781 0.410156,-0.175781 0.445313,0 0.75,0.363281 0.75,1.019531 v 0.164062 c -0.199219,0.152344 -0.855469,0.398438 -1.394531,0.574219 -0.492188,0.175781 -0.726563,0.457031 -0.726563,0.902344 0,0.5625 0.445313,1.089844 1.078125,1.089844 0.269532,0 0.703125,-0.328125 1.066407,-0.574219 0.04687,0.152344 0.09375,0.28125 0.210937,0.410156 0.105469,0.08203 0.292969,0.164063 0.421875,0.164063 z m -1.429688,-0.410156 c -0.164062,0.164063 -0.480469,0.316406 -0.714844,0.328125 -0.28125,0 -0.644531,-0.222656 -0.644531,-0.691406 0,-0.328125 0.199219,-0.492188 0.550781,-0.65625 0.1875,-0.09375 0.621094,-0.28125 0.808594,-0.375 z m 5.680664,0.761719 v -0.234375 c -0.527344,-0.05859 -0.574219,-0.09375 -0.574219,-0.703125 v -1.734375 c 0,-0.878906 -0.445312,-1.371094 -1.160156,-1.371094 -0.257812,0 -0.492187,0.105469 -0.75,0.269531 -0.222656,0.152344 -0.421875,0.292969 -0.597656,0.421875 v -0.714843 c -0.398438,0.175781 -0.820313,0.28125 -1.253906,0.363281 v 0.210937 c 0.492187,0.09375 0.539062,0.117188 0.539062,0.691407 v 1.863281 c 0,0.597656 -0.04687,0.644531 -0.65625,0.703125 v 0.234375 h 1.957031 v -0.234375 c -0.527343,-0.05859 -0.585937,-0.09375 -0.585937,-0.703125 v -2.109375 c 0.269531,-0.234375 0.621094,-0.46875 0.984375,-0.46875 0.597656,0 0.820312,0.410156 0.820312,1.03125 v 1.5 c 0,0.621094 -0.07031,0.691406 -0.597656,0.75 v 0.234375 z m 3.146485,-0.996094 c -0.410157,0.386719 -0.703125,0.492188 -1.089844,0.492188 -0.503906,0 -1.359375,-0.410157 -1.359375,-1.664063 0,-0.949219 0.515625,-1.441406 1.113281,-1.441406 0.316406,0 0.632813,0.117187 0.902344,0.375 0.08203,0.07031 0.117187,0.09375 0.164062,0.09375 0.105469,0 0.304688,-0.199219 0.304688,-0.386719 0,-0.105469 -0.03516,-0.175781 -0.152344,-0.28125 -0.140625,-0.117187 -0.433594,-0.234375 -0.796875,-0.234375 -0.351562,0 -0.890625,0.140625 -1.359375,0.503906 -0.597656,0.46875 -0.902344,1.078125 -0.902344,1.769532 0,0.960937 0.667969,1.875 1.804688,1.875 0.527344,0 1.136719,-0.398438 1.523437,-0.914063 z m 3.348632,-0.246094 -0.117187,0.210938 c -0.339844,0.550781 -0.515625,0.738281 -1.207031,0.738281 h -0.890625 c 0.738281,-1.207031 1.464843,-2.367187 2.203125,-3.515625 l -0.05859,-0.128906 h -2.074219 c -0.328125,0 -0.433594,-0.04687 -0.492187,-0.199219 h -0.1875 c -0.07031,0.398438 -0.210938,0.972656 -0.304688,1.3125 l 0.222656,0.08203 0.128907,-0.246093 c 0.246093,-0.503907 0.363281,-0.644532 1.019531,-0.644532 0.199219,0 0.492187,0 0.796875,0 -0.738281,1.207032 -1.464844,2.355469 -2.238281,3.492188 l 0.04687,0.140625 h 2.976562 c 0.128906,-0.363281 0.28125,-0.785156 0.410156,-1.136719 z m 2.188477,-2.800781 c -0.820313,0 -1.980469,0.679688 -1.980469,2.15625 0,1.007813 0.738281,1.992188 1.980469,1.992188 0.890625,0 1.945314,-0.691407 1.945314,-2.144532 0,-1.113281 -0.832033,-2.003906 -1.945314,-2.003906 z m -0.09375,0.304688 c 0.785156,0 1.207031,0.84375 1.207031,1.898437 0,1.242188 -0.457031,1.652344 -1.019531,1.652344 -0.738281,0 -1.230469,-0.84375 -1.230469,-1.980469 0,-1.019531 0.480469,-1.570312 1.042969,-1.570312 z m 4.749024,0.808593 c -0.0352,-0.222656 -0.12891,-0.75 -0.19922,-0.960937 -0.1875,-0.07031 -0.43359,-0.152344 -0.79687,-0.152344 -0.83204,0 -1.3711,0.527344 -1.3711,1.160156 0,0.691407 0.58594,0.996094 1.125,1.242188 0.44531,0.210937 0.70313,0.421875 0.70313,0.820312 0,0.375 -0.30469,0.632813 -0.63282,0.632813 -0.53906,0 -0.94921,-0.527344 -1.11328,-1.113281 l -0.23437,0.03516 c 0,0.328125 0.082,0.9375 0.15234,1.066406 0.16406,0.140625 0.57422,0.304688 1.03125,0.304688 0.72656,0 1.48828,-0.421875 1.48828,-1.242188 0,-0.621094 -0.45703,-0.9375 -1.13672,-1.21875 -0.41015,-0.175781 -0.76171,-0.375 -0.76171,-0.785156 0,-0.351563 0.24609,-0.621094 0.58593,-0.621094 0.4336,0 0.75,0.363281 0.92578,0.890625 z m 8.13867,-1.007812 h -1.62891 v 0.234375 c 0.57422,0.07031 0.63282,0.128906 0.51563,0.597656 -0.16406,0.667969 -0.41016,1.453125 -0.60938,2.074219 h -0.0234 c -0.375,-0.960938 -0.73828,-1.921875 -1.07813,-2.859375 h -0.23437 c -0.375,1.042969 -0.70313,1.96875 -1.04297,2.824219 h -0.0117 c -0.23438,-0.691407 -0.45703,-1.394532 -0.66797,-2.097657 -0.12891,-0.398437 -0.082,-0.457031 0.45703,-0.539062 v -0.234375 h -1.86328 v 0.234375 c 0.43359,0.05859 0.51563,0.117187 0.67969,0.585937 0.36328,1.078125 0.70312,2.144532 1.03125,3.210938 h 0.25781 c 0.35156,-0.996094 0.72656,-1.898438 1.06641,-2.789063 0.36328,0.9375 0.73828,1.828125 1.08984,2.789063 h 0.25781 c 0.41016,-1.21875 0.8086,-2.414063 1.07813,-3.128906 0.1875,-0.492188 0.26953,-0.597657 0.72656,-0.667969 z m 0.4541,-0.890625 c 0.25782,0 0.45703,-0.210938 0.45703,-0.457031 0,-0.269532 -0.19921,-0.46875 -0.45703,-0.46875 -0.23437,0 -0.45703,0.199218 -0.45703,0.46875 0,0.246093 0.22266,0.457031 0.45703,0.457031 z m 1.05469,4.828125 v -0.234375 c -0.58594,-0.05859 -0.64453,-0.105469 -0.64453,-0.714844 v -3.105469 c -0.39844,0.152344 -0.82031,0.269532 -1.27734,0.351563 v 0.210937 c 0.53906,0.09375 0.5625,0.128907 0.5625,0.679688 v 1.863281 c 0,0.609375 -0.0586,0.65625 -0.6211,0.714844 v 0.234375 z m 4.5791,0 v -0.234375 c -0.52734,-0.05859 -0.57422,-0.09375 -0.57422,-0.703125 v -1.734375 c 0,-0.878906 -0.44531,-1.371094 -1.16015,-1.371094 -0.25782,0 -0.49219,0.105469 -0.75,0.269531 -0.22266,0.152344 -0.42188,0.292969 -0.59766,0.421875 v -0.714843 c -0.39844,0.175781 -0.82031,0.28125 -1.25391,0.363281 v 0.210937 c 0.49219,0.09375 0.53907,0.117188 0.53907,0.691407 v 1.863281 c 0,0.597656 -0.0469,0.644531 -0.65625,0.703125 v 0.234375 h 1.95703 v -0.234375 c -0.52735,-0.05859 -0.58594,-0.09375 -0.58594,-0.703125 v -2.109375 c 0.26953,-0.234375 0.62109,-0.46875 0.98438,-0.46875 0.59765,0 0.82031,0.410156 0.82031,1.03125 v 1.5 c 0,0.621094 -0.0703,0.691406 -0.59766,0.75 v 0.234375 z m 4.28613,-0.457031 -0.29296,-0.02344 c -0.32813,-0.04687 -0.38672,-0.08203 -0.38672,-0.550781 v -5.378906 c -0.33985,0.117187 -0.9375,0.257812 -1.40625,0.316406 v 0.210937 c 0.64453,0.04687 0.6914,0.08203 0.6914,0.667969 v 1.277344 c -0.21093,-0.08203 -0.46875,-0.105469 -0.59765,-0.105469 -1.21875,0 -2.32032,0.984375 -2.32032,2.238281 0,1.253907 0.94922,1.910157 1.66407,1.910157 0.10547,0 0.35156,-0.04687 0.70312,-0.257813 l 0.55078,-0.328125 v 0.585938 c 0.52735,-0.1875 1.19532,-0.304688 1.39453,-0.339844 z m -1.39453,-0.304688 c -0.21093,0.164063 -0.53906,0.304688 -0.86718,0.304688 -0.57422,0 -1.23047,-0.527344 -1.23047,-1.59375 0,-1.300782 0.76172,-1.652344 1.17187,-1.652344 0.33985,0 0.71485,0.140625 0.92578,0.457031 z m 3.27539,-3.28125 c -0.82031,0 -1.98046,0.679688 -1.98046,2.15625 0,1.007813 0.73828,1.992188 1.98046,1.992188 0.89063,0 1.94532,-0.691407 1.94532,-2.144532 0,-1.113281 -0.83203,-2.003906 -1.94532,-2.003906 z m -0.0937,0.304688 c 0.78516,0 1.20704,0.84375 1.20704,1.898437 0,1.242188 -0.45704,1.652344 -1.01954,1.652344 -0.73828,0 -1.23046,-0.84375 -1.23046,-1.980469 0,-1.019531 0.48046,-1.570312 1.04296,-1.570312 z m 8.00684,-0.199219 h -1.62891 v 0.234375 c 0.57422,0.07031 0.63282,0.128906 0.51563,0.597656 -0.16406,0.667969 -0.41016,1.453125 -0.60938,2.074219 h -0.0234 c -0.375,-0.960938 -0.73829,-1.921875 -1.07813,-2.859375 h -0.23437 c -0.375,1.042969 -0.70313,1.96875 -1.04297,2.824219 h -0.0117 c -0.23438,-0.691407 -0.45703,-1.394532 -0.66797,-2.097657 -0.12891,-0.398437 -0.082,-0.457031 0.45703,-0.539062 v -0.234375 h -1.86328 v 0.234375 c 0.43359,0.05859 0.51562,0.117187 0.67969,0.585937 0.36328,1.078125 0.70312,2.144532 1.03125,3.210938 h 0.25781 c 0.35156,-0.996094 0.72656,-1.898438 1.06641,-2.789063 0.36328,0.9375 0.73828,1.828125 1.08984,2.789063 h 0.25781 c 0.41016,-1.21875 0.8086,-2.414063 1.07813,-3.128906 0.1875,-0.492188 0.26953,-0.597657 0.72656,-0.667969 z m -139.8486328,7.013672 c -1.3476563,0 -1.8398442,1.605469 -1.8398442,2.917969 0,1.417968 0.4804692,2.90625 1.8398442,2.90625 1.359375,0 1.828125,-1.59375 1.828125,-2.917969 0,-1.382813 -0.46875,-2.90625 -1.828125,-2.90625 z m 0,0.304687 c 0.8085937,0 1.03125,1.324219 1.03125,2.601563 0,1.265625 -0.2226563,2.613281 -1.03125,2.613281 -0.7734375,0 -1.0429688,-1.359375 -1.0429688,-2.613281 0,-1.253906 0.2226563,-2.601563 1.0429688,-2.601563 z m 3.196289,5.519532 c 0.28125,0 0.5039063,-0.199219 0.5039063,-0.515625 0,-0.292969 -0.2226563,-0.515625 -0.5039063,-0.515625 -0.2929687,0 -0.5039062,0.222656 -0.5039062,0.515625 0,0.316406 0.2109375,0.515625 0.5039062,0.515625 z m 2.390625,-5.050782 h 2.0976563 l 0.234375,-0.585937 -0.0585938,-0.07031 h -2.5664562 l -0.3515625,2.742188 c 0.2109375,-0.08203 0.5507812,-0.1875 0.9257812,-0.1875 0.984375,0 1.4648438,0.574219 1.4648438,1.359375 0,0.679687 -0.375,1.335937 -1.1367188,1.335937 -0.5507812,0 -0.9140625,-0.292968 -1.1132812,-0.457031 -0.082031,-0.07031 -0.1523438,-0.05859 -0.234375,0 -0.1054688,0.09375 -0.1875,0.210938 -0.1875,0.292969 -0.023437,0.105469 0.023437,0.1875 0.140625,0.304687 0.1289062,0.128907 0.515625,0.316407 0.9257812,0.316407 0.4804688,-0.01172 1.078125,-0.246094 1.57031255,-0.632813 0.55078125,-0.457031 0.796875,-0.960937 0.796875,-1.511719 0,-0.738281 -0.5859375,-1.511718 -1.73437505,-1.511718 -0.2460937,0 -0.6679687,0.140625 -1.0078125,0.269531 z M 232.13143,-79.474027 c -1.34766,0 -1.83985,1.605469 -1.83985,2.917969 0,1.417968 0.48047,2.90625 1.83985,2.90625 1.35937,0 1.82812,-1.59375 1.82812,-2.917969 0,-1.382813 -0.46875,-2.90625 -1.82812,-2.90625 z m 0,0.304687 c 0.80859,0 1.03125,1.324219 1.03125,2.601563 0,1.265625 -0.22266,2.613281 -1.03125,2.613281 -0.77344,0 -1.04297,-1.359375 -1.04297,-2.613281 0,-1.253906 0.22265,-2.601563 1.04297,-2.601563 z m 3.19336,5.519532 c 0.28125,0 0.5039,-0.199219 0.5039,-0.515625 0,-0.292969 -0.22265,-0.515625 -0.5039,-0.515625 -0.29297,0 -0.50391,0.222656 -0.50391,0.515625 0,0.316406 0.21094,0.515625 0.50391,0.515625 z m 2.39355,-5.050782 h 2.09766 l 0.23437,-0.585937 -0.0586,-0.07031 h -2.56641 l -0.35156,2.742188 c 0.21094,-0.08203 0.55078,-0.1875 0.92578,-0.1875 0.98438,0 1.46484,0.574219 1.46484,1.359375 0,0.679687 -0.375,1.335937 -1.13671,1.335937 -0.55079,0 -0.91407,-0.292968 -1.11329,-0.457031 -0.082,-0.07031 -0.15234,-0.05859 -0.23437,0 -0.10547,0.09375 -0.1875,0.210938 -0.1875,0.292969 -0.0234,0.105469 0.0234,0.1875 0.14062,0.304687 0.12891,0.128907 0.51563,0.316407 0.92579,0.316407 0.48046,-0.01172 1.07812,-0.246094 1.57031,-0.632813 0.55078,-0.457031 0.79687,-0.960937 0.79687,-1.511719 0,-0.738281 -0.58593,-1.511718 -1.73437,-1.511718 -0.2461,0 -0.66797,0.140625 -1.00781,0.269531 z m -316.96289,53.083008 v -0.46875 h -3.773438 v 0.46875 z m 1.22168,-2.660156 c 0.222656,-0.328125 0.585937,-0.714844 1.078125,-0.714844 0.480468,0 0.855468,0.292969 0.855468,0.855469 0,0.65625 -0.609375,1.007812 -1.429687,1.277344 l 0.05859,0.257812 c 0.140625,-0.04687 0.363281,-0.105469 0.574218,-0.105469 0.515625,0 1.148438,0.339844 1.148438,1.171875 0,0.890625 -0.457031,1.359375 -1.089844,1.359375 -0.515625,0 -0.890625,-0.246093 -1.125,-0.457031 -0.07031,-0.05859 -0.140625,-0.04687 -0.210937,0 -0.08203,0.05859 -0.199219,0.175781 -0.210938,0.292969 -0.01172,0.117187 0.02344,0.210937 0.152344,0.328125 0.117187,0.105469 0.480469,0.304687 0.890625,0.304687 0.65625,0 2.367187,-0.667968 2.367187,-2.121093 0,-0.65625 -0.46875,-1.21875 -1.253906,-1.371094 v -0.01172 c 0.257813,-0.1875 0.480469,-0.339844 0.609375,-0.492187 0.175781,-0.164063 0.28125,-0.375 0.28125,-0.632813 0,-0.691406 -0.527344,-1.195312 -1.347656,-1.195312 -0.46875,0 -0.890625,0.234375 -1.136719,0.503906 l -0.398437,0.574219 z m 238.77832,2.660156 v -0.46875 h -3.77344 v 0.46875 z m 1.22461,-2.660156 c 0.22266,-0.328125 0.58594,-0.714844 1.07812,-0.714844 0.48047,0 0.85547,0.292969 0.85547,0.855469 0,0.65625 -0.60937,1.007812 -1.42968,1.277344 l 0.0586,0.257812 c 0.14062,-0.04687 0.36328,-0.105469 0.57422,-0.105469 0.51562,0 1.14844,0.339844 1.14844,1.171875 0,0.890625 -0.45704,1.359375 -1.08985,1.359375 -0.51562,0 -0.89062,-0.246093 -1.125,-0.457031 -0.0703,-0.05859 -0.14062,-0.04687 -0.21094,0 -0.082,0.05859 -0.19921,0.175781 -0.21093,0.292969 -0.0117,0.117187 0.0234,0.210937 0.15234,0.328125 0.11719,0.105469 0.48047,0.304687 0.89063,0.304687 0.65625,0 2.36718,-0.667968 2.36718,-2.121093 0,-0.65625 -0.46875,-1.21875 -1.2539,-1.371094 v -0.01172 c 0.25781,-0.1875 0.48047,-0.339844 0.60937,-0.492187 0.17578,-0.164063 0.28125,-0.375 0.28125,-0.632813 0,-0.691406 -0.52734,-1.195312 -1.34765,-1.195312 -0.46875,0 -0.89063,0.234375 -1.13672,0.503906 l -0.39844,0.574219 z m -74.340821,0 c 0.222656,-0.328125 0.585938,-0.714844 1.078125,-0.714844 0.480469,0 0.855469,0.292969 0.855469,0.855469 0,0.65625 -0.609375,1.007812 -1.429688,1.277344 l 0.05859,0.257812 c 0.140625,-0.04687 0.363281,-0.105469 0.574219,-0.105469 0.515625,0 1.148437,0.339844 1.148437,1.171875 0,0.890625 -0.457031,1.359375 -1.089843,1.359375 -0.515625,0 -0.890625,-0.246093 -1.125,-0.457031 -0.07031,-0.05859 -0.140625,-0.04687 -0.210938,0 -0.08203,0.05859 -0.199219,0.175781 -0.210937,0.292969 -0.01172,0.117187 0.02344,0.210937 0.152343,0.328125 0.117188,0.105469 0.480469,0.304687 0.890625,0.304687 0.65625,0 2.367188,-0.667968 2.367188,-2.121093 0,-0.65625 -0.46875,-1.21875 -1.253906,-1.371094 v -0.01172 c 0.257812,-0.1875 0.480468,-0.339844 0.609375,-0.492187 0.175781,-0.164063 0.28125,-0.375 0.28125,-0.632813 0,-0.691406 -0.527344,-1.195312 -1.347657,-1.195312 -0.46875,0 -0.890625,0.234375 -1.136718,0.503906 l -0.398438,0.574219 z m 240.000001,0 c 0.22266,-0.328125 0.58594,-0.714844 1.07812,-0.714844 0.48047,0 0.85547,0.292969 0.85547,0.855469 0,0.65625 -0.60937,1.007812 -1.42968,1.277344 l 0.0586,0.257812 c 0.14062,-0.04687 0.36328,-0.105469 0.57422,-0.105469 0.51562,0 1.14844,0.339844 1.14844,1.171875 0,0.890625 -0.45704,1.359375 -1.08985,1.359375 -0.51562,0 -0.89062,-0.246093 -1.125,-0.457031 -0.0703,-0.05859 -0.14062,-0.04687 -0.21094,0 -0.082,0.05859 -0.19921,0.175781 -0.21093,0.292969 -0.0117,0.117187 0.0234,0.210937 0.15234,0.328125 0.11719,0.105469 0.48047,0.304687 0.89063,0.304687 0.65625,0 2.36718,-0.667968 2.36718,-2.121093 0,-0.65625 -0.46875,-1.21875 -1.2539,-1.371094 v -0.01172 c 0.25781,-0.1875 0.48047,-0.339844 0.60937,-0.492187 0.17578,-0.164063 0.28125,-0.375 0.28125,-0.632813 0,-0.691406 -0.52734,-1.195312 -1.34765,-1.195312 -0.46875,0 -0.89063,0.234375 -1.13672,0.503906 l -0.39844,0.574219 z M -39.931073,-41.470121 v -0.46875 h -3.773438 v 0.46875 z m 3.919921,1.804688 v -0.246094 c -0.820312,-0.05859 -0.878906,-0.128906 -0.878906,-0.785156 v -4.6875 c -0.492187,0.199218 -1.019531,0.375 -1.59375,0.46875 v 0.210937 l 0.433594,0.01172 c 0.386719,0.02344 0.421875,0.07031 0.421875,0.539062 v 3.457032 c 0,0.65625 -0.03516,0.726562 -0.855469,0.785156 v 0.246094 z m 1.892579,0.105468 c 0.28125,0 0.503906,-0.199218 0.503906,-0.515625 0,-0.292968 -0.222656,-0.515625 -0.503906,-0.515625 -0.292969,0 -0.503907,0.222657 -0.503907,0.515625 0,0.316407 0.210938,0.515625 0.503907,0.515625 z m 2.393554,-5.050781 h 2.097656 l 0.234375,-0.585937 -0.05859,-0.07031 h -2.566407 l -0.351562,2.742188 c 0.210937,-0.08203 0.550781,-0.1875 0.925781,-0.1875 0.984375,0 1.464844,0.574218 1.464844,1.359375 0,0.679687 -0.375,1.335937 -1.136719,1.335937 -0.550781,0 -0.914062,-0.292969 -1.113281,-0.457031 -0.08203,-0.07031 -0.152344,-0.05859 -0.234375,0 -0.105469,0.09375 -0.1875,0.210937 -0.1875,0.292969 -0.02344,0.105468 0.02344,0.1875 0.140625,0.304687 0.128906,0.128906 0.515625,0.316406 0.925781,0.316406 0.480469,-0.01172 1.078125,-0.246093 1.570313,-0.632812 0.550781,-0.457031 0.796875,-0.960938 0.796875,-1.511719 0,-0.738281 -0.585938,-1.511719 -1.734375,-1.511719 -0.246094,0 -0.667969,0.140625 -1.007813,0.269532 z m 231.295899,3.140625 v -0.46875 h -3.77344 v 0.46875 z m 3.91699,1.804688 v -0.246094 c -0.82031,-0.05859 -0.8789,-0.128906 -0.8789,-0.785156 v -4.6875 c -0.49219,0.199218 -1.01954,0.375 -1.59375,0.46875 v 0.210937 l 0.43359,0.01172 c 0.38672,0.02344 0.42187,0.07031 0.42187,0.539062 v 3.457032 c 0,0.65625 -0.0351,0.726562 -0.85546,0.785156 v 0.246094 z m 1.89551,0.105468 c 0.28125,0 0.50391,-0.199218 0.50391,-0.515625 0,-0.292968 -0.22266,-0.515625 -0.50391,-0.515625 -0.29297,0 -0.50391,0.222657 -0.50391,0.515625 0,0.316407 0.21094,0.515625 0.50391,0.515625 z m 2.39062,-5.050781 h 2.09766 l 0.23438,-0.585937 -0.0586,-0.07031 h -2.5664 l -0.35157,2.742188 c 0.21094,-0.08203 0.55078,-0.1875 0.92578,-0.1875 0.98438,0 1.46485,0.574218 1.46485,1.359375 0,0.679687 -0.375,1.335937 -1.13672,1.335937 -0.55078,0 -0.91406,-0.292969 -1.11328,-0.457031 -0.082,-0.07031 -0.15235,-0.05859 -0.23438,0 -0.10547,0.09375 -0.1875,0.210937 -0.1875,0.292969 -0.0234,0.105468 0.0234,0.1875 0.14063,0.304687 0.1289,0.128906 0.51562,0.316406 0.92578,0.316406 0.48047,-0.01172 1.07812,-0.246093 1.57031,-0.632812 0.55078,-0.457031 0.79688,-0.960938 0.79688,-1.511719 0,-0.738281 -0.58594,-1.511719 -1.73438,-1.511719 -0.24609,0 -0.66797,0.140625 -1.00781,0.269532 z m 77.37305,4.945313 v -0.246094 c -0.82031,-0.05859 -0.8789,-0.128906 -0.8789,-0.785156 v -4.6875 c -0.49219,0.199218 -1.01954,0.375 -1.59375,0.46875 v 0.210937 l 0.43359,0.01172 c 0.38672,0.02344 0.42187,0.07031 0.42187,0.539062 v 3.457032 c 0,0.65625 -0.0351,0.726562 -0.85546,0.785156 v 0.246094 z m 1.89551,0.105468 c 0.28125,0 0.50391,-0.199218 0.50391,-0.515625 0,-0.292968 -0.22266,-0.515625 -0.50391,-0.515625 -0.29297,0 -0.50391,0.222657 -0.50391,0.515625 0,0.316407 0.21094,0.515625 0.50391,0.515625 z m 2.39062,-5.050781 h 2.09766 l 0.23438,-0.585937 -0.0586,-0.07031 h -2.5664 l -0.35157,2.742188 c 0.21094,-0.08203 0.55078,-0.1875 0.92578,-0.1875 0.98438,0 1.46485,0.574218 1.46485,1.359375 0,0.679687 -0.375,1.335937 -1.13672,1.335937 -0.55078,0 -0.91406,-0.292969 -1.11328,-0.457031 -0.082,-0.07031 -0.15235,-0.05859 -0.23438,0 -0.10547,0.09375 -0.1875,0.210937 -0.1875,0.292969 -0.0234,0.105468 0.0234,0.1875 0.14063,0.304687 0.1289,0.128906 0.51562,0.316406 0.92578,0.316406 0.48047,-0.01172 1.07812,-0.246093 1.57031,-0.632812 0.55078,-0.457031 0.79688,-0.960938 0.79688,-1.511719 0,-0.738281 -0.58594,-1.511719 -1.73438,-1.511719 -0.24609,0 -0.66797,0.140625 -1.00781,0.269532 z m -243.263668,4.945313 v -0.246094 c -0.820312,-0.05859 -0.878906,-0.128906 -0.878906,-0.785156 v -4.6875 c -0.492187,0.199218 -1.019531,0.375 -1.59375,0.46875 v 0.210937 l 0.433594,0.01172 c 0.386719,0.02344 0.421875,0.07031 0.421875,0.539062 v 3.457032 c 0,0.65625 -0.03516,0.726562 -0.855469,0.785156 v 0.246094 z m 1.895508,0.105468 c 0.28125,0 0.503907,-0.199218 0.503907,-0.515625 0,-0.292968 -0.222657,-0.515625 -0.503907,-0.515625 -0.292968,0 -0.503906,0.222657 -0.503906,0.515625 0,0.316407 0.210938,0.515625 0.503906,0.515625 z m 2.390625,-5.050781 h 2.097657 l 0.234375,-0.585937 -0.05859,-0.07031 h -2.566406 l -0.351563,2.742188 c 0.210938,-0.08203 0.550781,-0.1875 0.925781,-0.1875 0.984375,0 1.464844,0.574218 1.464844,1.359375 0,0.679687 -0.375,1.335937 -1.136719,1.335937 -0.550781,0 -0.914062,-0.292969 -1.113281,-0.457031 -0.08203,-0.07031 -0.152344,-0.05859 -0.234375,0 -0.105469,0.09375 -0.1875,0.210937 -0.1875,0.292969 -0.02344,0.105468 0.02344,0.1875 0.140625,0.304687 0.128906,0.128906 0.515625,0.316406 0.925781,0.316406 0.480469,-0.01172 1.078125,-0.246093 1.570313,-0.632812 0.550781,-0.457031 0.796875,-0.960938 0.796875,-1.511719 0,-0.738281 -0.585938,-1.511719 -1.734375,-1.511719 -0.246094,0 -0.667969,0.140625 -1.007813,0.269532 z M 242.27986,1.3238244 c -0.89062,-0.76171878 -1.40625,-2.20312503 -1.40625,-3.75 0,-1.546875 0.51563,-3 1.40625,-3.75 l -0.15234,-0.2109375 c -1.32422,0.9023437 -1.91016,2.3320312 -1.91016,3.9492187 0,1.62890627 0.58594,3.08203127 1.91016,3.9609375 z m 1.78711,-4.9570313 v -2.7773437 c -0.33984,0.1171875 -0.89062,0.2578125 -1.3125,0.3164062 v 0.2109375 c 0.58594,0.046875 0.59766,0.1054688 0.59766,0.6679688 v 5.00390622 c 0.49219,0.234375 0.94922,0.31640625 1.32422,0.31640625 1.20703,0 2.26172,-0.9375 2.26172,-2.26171877 0,-1.0546875 -0.8086,-1.8867187 -1.78125,-1.8867187 -0.0937,0 -0.22266,0.023437 -0.36328,0.09375 z m 0,0.2695313 c 0.16407,-0.1054688 0.44532,-0.1757813 0.70313,-0.1757813 0.73828,0 1.37109,0.5976563 1.37109,1.6171875 0,1.05468752 -0.48047,1.68750002 -1.21875,1.68750002 -0.48047,-0.0117188 -0.75,-0.328125 -0.80859,-0.50390625 -0.0352,-0.0820313 -0.0469,-0.17578125 -0.0469,-0.30468747 z m 3.61231,-2.8125 c 0.89062,0.7382812 1.41797,2.203125 1.41797,3.75 0,1.54687497 -0.50391,2.98828122 -1.41797,3.75 l 0.16406,0.1992187 c 1.34766,-0.91406248 1.89844,-2.33203123 1.89844,-3.9492187 0,-1.6289063 -0.55078,-3.0585938 -1.89844,-3.9609375 z m 0,0"
         style="fill:#231f20;fill-opacity:1;fill-rule:nonzero;stroke:none"
         aria-label="(a)&#10;Sinc&#10;Lanczos window&#10;0.50.5&#10;–3–333&#10;–1.5–1.51.5 1.5&#10;(b)"
         transform="matrix(1.3333333,0,0,1.3333333,111.2844,158.68021)" />
      <path
         id="path3"
         d="m 45,387.824 0.5039,0.492 0.5391,0.52 1.0078,1.043 2.0547,2.027 4.125,4.141 8.2734,8.301 16.457,16.629 4.4688,4.464 4.5039,4.403 8.9258,8.644 0.5273,0.528 0.586,0.515 1.0976,1.074 2.2577,2.09 4.461,4.114 8.938,7.898 0.543,0.438 0.496,0.437 3.129,2.66 4.179,3.395 8.348,6.457 0.531,0.383 0.512,0.371 1.039,0.773 2.074,1.481 4.192,2.859 8.332,5.242 0.511,0.301 0.496,0.316 1.047,0.571 2.035,1.136 4.082,2.145 0.543,0.254 1.508,0.762 2.071,0.949 4.089,1.816 0.493,0.18 0.511,0.238 1.008,0.406 2.07,0.746 1.008,0.383 1.043,0.352 2.031,0.66 1.012,0.32 1.039,0.317 2.039,0.582 0.492,0.105 0.547,0.18 1.012,0.254 2.055,0.433 0.547,0.125 0.566,0.133 1.113,0.215 0.532,0.094 0.582,0.105 1.093,0.176 0.551,0.109 0.563,0.067 1.113,0.148 0.535,0.059 0.559,0.082 1.113,0.117 0.547,0.059 0.566,0.062 0.528,0.035 0.586,0.063 0.527,0.035 0.57,0.035 0.547,0.031 0.563,0.036 h 0.531 l 0.586,0.015 h 0.535 l 0.558,0.035 h 2.227 l 0.539,-0.035 h 0.574 l 0.567,-0.015 h 0.535 l 0.578,-0.036 0.531,-0.031 0.571,-0.035 0.543,-0.063 0.574,-0.035 0.543,-0.035 0.558,-0.062 0.543,-0.059 0.575,-0.066 0.535,-0.051 1.113,-0.141 0.551,-0.093 0.547,-0.055 1.101,-0.207 0.57,-0.078 0.54,-0.098 1.113,-0.219 0.57,-0.101 0.539,-0.129 1.106,-0.223 2.215,-0.566 0.542,-0.125 0.5,-0.145 1.047,-0.277 2.063,-0.617 0.547,-0.176 0.496,-0.184 1.047,-0.355 2.066,-0.727 0.5,-0.172 0.547,-0.234 1.008,-0.406 2.097,-0.867 4.114,-1.891 0.547,-0.25 0.492,-0.27 1.051,-0.519 2.046,-1.125 4.153,-2.367 0.504,-0.325 0.547,-0.316 1.019,-0.625 2.086,-1.328 4.145,-2.856 0.543,-0.41 0.57,-0.382 1.109,-0.852 2.25,-1.68 4.492,-3.605 8.954,-7.992 1.144,-1.071 1.113,-1.074 2.246,-2.226 4.497,-4.579 8.964,-9.921 0.575,-0.641 0.546,-0.629 1.098,-1.262 2.188,-2.621 4.386,-5.387 8.852,-11.269 17.609,-24.516 32.867,-50.133 35.665,-54.765 0.531,-0.766 0.512,-0.746 1.042,-1.496 2.083,-3.008 4.164,-5.926 8.328,-11.402 0.5,-0.699 0.531,-0.664 1.019,-1.391 2.094,-2.695 4.192,-5.277 8.277,-9.961 0.52,-0.606 0.507,-0.555 1.039,-1.14 2.02,-2.246 4.09,-4.336 0.519,-0.547 0.5,-0.492 1.008,-1.055 2.07,-2.023 4.047,-3.84 0.532,-0.461 0.515,-0.453 1.004,-0.914 2.035,-1.778 4.094,-3.297 0.492,-0.398 1.528,-1.156 2.062,-1.481 4.086,-2.722 0.527,-0.36 0.575,-0.308 1.078,-0.661 2.218,-1.281 0.571,-0.32 0.539,-0.277 1.105,-0.563 2.215,-1.078 0.582,-0.25 0.527,-0.231 1.114,-0.48 0.543,-0.238 0.558,-0.242 1.102,-0.391 0.547,-0.207 0.566,-0.211 3.324,-1.039 0.547,-0.141 0.531,-0.14 1.114,-0.27 0.566,-0.121 0.539,-0.129 1.11,-0.211 0.574,-0.109 0.539,-0.102 0.562,-0.078 0.547,-0.062 0.571,-0.098 0.527,-0.07 0.586,-0.032 0.531,-0.058 0.563,-0.063 1.082,-0.066 0.578,-0.051 h 1.101 l 0.543,-0.012 0.571,0.012 h 1.109 l 0.535,0.051 0.563,0.039 0.554,0.027 0.559,0.063 0.547,0.019 0.551,0.071 1.031,0.129 0.5,0.101 0.547,0.051 1.004,0.207 1.046,0.172 1.024,0.269 1.039,0.25 0.5,0.121 0.531,0.161 1.012,0.277 0.547,0.203 0.508,0.148 1.007,0.348 0.547,0.192 0.5,0.191 1.051,0.418 1.004,0.43 1.055,0.48 2.054,0.981 0.508,0.289 0.543,0.261 1.012,0.571 2.066,1.218 0.528,0.321 0.511,0.308 1.043,0.672 2.063,1.418 1.012,0.774 1.035,0.789 2.058,1.648 4.16,3.613 0.528,0.493 0.582,0.55 1.113,1.086 2.234,2.274 4.473,4.929 0.567,0.637 0.57,0.656 1.109,1.364 2.246,2.789 4.465,5.965 0.567,0.793 0.546,0.796 1.133,1.606 2.223,3.297 4.492,7 8.942,15.574 0.558,1.019 0.543,1.04 1.117,2.093 2.184,4.25 4.402,8.891 8.766,19.223 0.558,1.281 0.547,1.258 1.114,2.562 2.179,5.235 4.407,10.796 8.769,22.954 0.508,1.398 0.539,1.394 1.019,2.809 2.059,5.703 4.082,11.696 8.203,24.421 16.399,52.918 0.535,1.883 0.582,1.891 1.097,3.789 2.227,7.64 4.438,15.52 8.882,31.973 17.782,67.152 33.191,132.496 35.969,144.746 0.531,2.176 0.586,2.16 1.094,4.305 2.191,8.613 4.442,17.031 8.804,33.414 17.66,63.504 1.012,3.551 1.051,3.524 2.055,6.98 4.125,13.71 8.238,26.39 0.5,1.61 0.512,1.59 1.043,3.16 2.062,6.28 4.105,12.25 8.25,23.3 0.528,1.51 0.578,1.49 1.102,3.01 2.25,5.84 4.472,11.39 0.528,1.38 0.574,1.36 1.109,2.73 2.242,5.36 4.465,10.22 0.527,1.27 0.586,1.23 1.11,2.44 2.242,4.75 4.48,9.1 8.879,16.33 0.559,0.85 0.492,0.9 1.059,1.7 2.086,3.32 4.183,6.22 0.504,0.73 0.531,0.73 1.039,1.41 2.055,2.76 4.192,5.06 0.5,0.62 0.543,0.56 1.05,1.17 2.098,2.16 0.496,0.53 0.512,0.51 1.031,1 2.106,1.89 0.546,0.44 0.493,0.41 1.05,0.85 2.082,1.6 0.508,0.36 0.555,0.35 1.039,0.73 2.051,1.28 0.504,0.29 0.543,0.28 1.011,0.54 1.02,0.51 0.996,0.46 0.516,0.23 0.531,0.21 1.535,0.57 0.492,0.17 1.016,0.33 0.547,0.14 0.507,0.16 0.512,0.13 0.492,0.09 0.524,0.12 1.504,0.29 0.547,0.07 1.519,0.18 1.012,0.07 h 0.512 l 0.378,0.03"
         style="fill:none;stroke:#3871c1;stroke-width:7.5;stroke-linecap:square;stroke-linejoin:miter;stroke-miterlimit:3.25;stroke-dasharray:none;stroke-opacity:1"
         transform="matrix(0.13333333,0,0,-0.13333333,0,163)" />
      <path
         id="path4"
         d="m 885.527,1218.46 1.137,-0.07 1.008,-0.06 1.019,-0.12 0.547,-0.07 0.504,-0.06 1.004,-0.18 0.516,-0.14 0.496,-0.1 1.023,-0.28 0.532,-0.12 1.523,-0.47 1.004,-0.39 1.055,-0.42 1.019,-0.44 1.004,-0.47 2.074,-1.05 0.528,-0.31 0.566,-0.32 1.102,-0.69 2.222,-1.49 0.535,-0.37 0.532,-0.43 1.117,-0.86 2.219,-1.78 0.574,-0.48 0.527,-0.51 1.117,-1.02 2.207,-2.15 4.438,-4.82 0.582,-0.63 0.539,-0.67 1.109,-1.33 2.215,-2.81 4.422,-6.11 0.566,-0.8 0.547,-0.82 1.114,-1.68 2.21,-3.45 4.438,-7.38 0.535,-0.89 0.512,-0.92 1.043,-1.84 2.062,-3.76 4.141,-7.98 8.273,-17.48 0.5,-1.14 0.52,-1.19 1.039,-2.36 2.051,-4.79 4.144,-9.97 8.278,-21.36 1.144,-3.04 1.11,-3.07 2.238,-6.2 4.465,-12.82 9,-27.08 17.937,-59.29 0.52,-1.926 0.57,-1.902 1.09,-3.872 2.21,-7.789 4.4,-15.8 8.81,-32.5 17.6,-67.832 32.85,-132.246 35.6,-142.231 33.24,-121.559 1.01,-3.484 1.05,-3.41 2.02,-6.856 4.09,-13.414 8.14,-25.902 0.52,-1.602 0.5,-1.542 1.01,-3.137 2.03,-6.184 4.09,-12.125 8.13,-23.113 0.57,-1.524 0.55,-1.519 1.09,-3.008 2.24,-5.894 4.42,-11.496 8.83,-21.555 0.54,-1.305 0.58,-1.269 1.1,-2.543 2.18,-4.961 4.44,-9.602 8.83,-17.73 0.52,-0.946 0.54,-0.996 1.01,-1.886 2.05,-3.747 4.16,-7.164 1.02,-1.703 1.05,-1.679 2.05,-3.293 4.1,-6.258 0.52,-0.77 0.53,-0.734 1.02,-1.484 2.06,-2.844 4.14,-5.379 1.02,-1.281 1.04,-1.235 2.07,-2.402 4.11,-4.496 0.58,-0.617 0.53,-0.524 1.14,-1.121 2.2,-2.144 1.15,-1.004 1.12,-0.981 2.24,-1.89 0.54,-0.442 0.58,-0.418 1.09,-0.871 2.27,-1.617 0.53,-0.383 0.56,-0.379 1.12,-0.73 2.24,-1.348 0.57,-0.332 0.54,-0.32 1.1,-0.59 1.16,-0.559 1.1,-0.551 0.58,-0.25 0.53,-0.261 1.15,-0.481 2.21,-0.879 1.14,-0.379 1.09,-0.351 0.59,-0.18 0.53,-0.168 1.11,-0.281 0.57,-0.129 0.56,-0.16 0.55,-0.129 0.57,-0.082 0.57,-0.121 0.54,-0.117 1.14,-0.172 0.51,-0.07 0.52,-0.059 0.52,-0.07 0.53,-0.071 0.51,-0.019 0.53,-0.063 1.02,-0.066 h 0.55 l 0.5,-0.051 h 0.54 l 0.5,-0.012 0.54,0.012 h 1.05 l 0.5,0.051 0.54,0.039 0.52,0.027 0.53,0.043 0.51,0.02 0.54,0.058 0.5,0.063 0.54,0.039 0.51,0.098 0.53,0.062 0.5,0.051 0.54,0.09 0.52,0.117 0.54,0.082 0.51,0.09 1.04,0.269 0.54,0.078 0.5,0.133 1.04,0.27 0.5,0.179 0.55,0.11 1.06,0.32 0.49,0.199 0.55,0.153 1.05,0.379 2.07,0.8 0.51,0.18 0.53,0.238 1.06,0.43 2.09,0.981 4.16,2.199 0.52,0.32 0.52,0.27 1.01,0.601 2.06,1.301 4.07,2.75 1.02,0.758 1.04,0.769 2.03,1.578 4.08,3.36 0.55,0.449 0.5,0.453 1,0.906 2.07,1.836 4.1,3.899 8.17,8.551 0.56,0.636 0.55,0.602 1.13,1.258 2.22,2.547 4.43,5.246 8.86,11.214 17.78,24.672 33.15,50.743 35.92,54.945 0.56,0.793 0.55,0.773 1.11,1.633 2.22,3.148 4.4,6.227 8.81,12.027 0.56,0.723 0.54,0.734 1.1,1.434 2.2,2.875 4.43,5.574 8.8,10.598 0.51,0.601 0.54,0.586 1.02,1.192 2.05,2.273 4.11,4.508 8.24,8.383 0.5,0.5 0.52,0.492 1.01,0.977 2.06,1.914 4.12,3.672 8.22,6.699 0.58,0.429 0.54,0.434 1.11,0.816 2.24,1.586 4.46,3.02 0.54,0.348 0.58,0.355 1.1,0.684 2.22,1.336 4.48,2.461 0.57,0.285 0.52,0.281 1.16,0.547 2.2,1.082 0.57,0.246 0.55,0.226 1.1,0.516 2.25,0.899 0.52,0.23 0.59,0.199 1.11,0.442 2.25,0.742 0.53,0.215 0.58,0.164 1.1,0.355 2.23,0.625 0.52,0.145 0.52,0.144 1.04,0.262 0.54,0.125 0.5,0.137 1.04,0.211 0.52,0.101 0.53,0.133 1.05,0.176 0.51,0.105 0.54,0.09 1,0.164 0.55,0.098 0.5,0.055 1.05,0.152 0.53,0.082 0.52,0.051 1.05,0.09 0.49,0.066 0.55,0.031 0.5,0.07 0.54,0.028 1.02,0.07 0.54,0.031 0.49,0.036 h 0.55 l 0.49,0.015 h 0.55 l 0.5,0.035 h 2.61 l 0.54,-0.035 h 0.5 l 0.54,-0.015 0.5,-0.036 h 0.51 l 0.53,-0.031 0.51,-0.035 0.54,-0.063 0.51,-0.035 0.54,-0.035 0.52,-0.062 0.5,-0.035 0.53,-0.059 1.04,-0.117 0.52,-0.078 0.52,-0.063 1.02,-0.141 0.55,-0.07 0.49,-0.109 1.05,-0.176 1.01,-0.203 1.05,-0.18 2.03,-0.449 0.51,-0.094 0.51,-0.117 1.04,-0.254 2.03,-0.551 1.01,-0.316 1.02,-0.285 2.06,-0.629 4.08,-1.461 1.01,-0.379 1.02,-0.41 2.06,-0.832 4.05,-1.836 0.52,-0.219 3.56,-1.773 4.07,-2.184 0.59,-0.305 0.53,-0.285 1.11,-0.636 2.21,-1.34 4.44,-2.711 8.88,-6.063 0.53,-0.402 0.57,-0.379 1.09,-0.832 2.2,-1.645 4.44,-3.457 8.87,-7.242 1.01,-0.898 1.03,-0.879 2.07,-1.813 4.16,-3.664 8.26,-7.601 16.54,-16.031 4.58,-4.582 4.62,-4.653 9.22,-9.324 0.56,-0.594 0.61,-0.57 1.14,-1.172 2.31,-2.309 4.64,-4.656 0.56,-0.613 7.48,-7.465 0.59,-0.582 0.57,-0.551"
         style="fill:none;stroke:#3871c1;stroke-width:7.5;stroke-linecap:square;stroke-linejoin:miter;stroke-miterlimit:3.25;stroke-dasharray:none;stroke-opacity:1"
         transform="matrix(0.13333333,0,0,-0.13333333,0,163)" />
      <path
         id="path5"
         d="m 45,387.824 0.5039,0.492 0.5391,0.52 1.0078,1.043 2.0547,2.027 4.125,4.141 8.2734,8.402 16.457,17.227 35.7661,39.328 33.375,38.988 32.742,39.988 35.469,45.11 33.164,43.363 35.882,47.899 35.254,47.636 32.867,44.532 35.665,47.984 33.273,44.078 32.668,42.191 35.391,44.219 33.046,39.395 35.79,40.313 35.144,36.7 32.809,31.35 35.543,30.54 33.191,25.02 1.145,0.76 1.105,0.78 2.23,1.57 4.512,3.04 8.988,5.88 17.989,10.92 0.531,0.33 0.586,0.31 1.094,0.63 2.191,1.24 4.442,2.44 8.804,4.68 0.571,0.3 0.539,0.28 1.109,0.57 2.223,1.11 4.386,2.15 8.832,4.12 0.508,0.25 0.504,0.22 1.051,0.43 2.055,0.93 4.125,1.77 8.238,3.33 0.5,0.2 0.512,0.21 1.043,0.37 2.062,0.81 4.105,1.51 8.25,2.83 0.528,0.18 0.578,0.19 1.102,0.35 2.25,0.69 4.472,1.36 0.528,0.16 0.574,0.16 1.109,0.36 2.242,0.63 4.465,1.19 0.527,0.14 0.586,0.16 1.11,0.28 2.242,0.54 4.48,1.04 8.879,1.9 0.559,0.1 0.492,0.1 3.145,0.57 4.183,0.69 0.504,0.1 0.531,0.09 1.039,0.16 2.055,0.32 4.192,0.56 0.5,0.06 0.543,0.07 3.148,0.39 0.496,0.03 0.512,0.06 1.031,0.12 2.106,0.2 0.546,0.07 0.493,0.04 1.05,0.1 2.082,0.17 0.508,0.04 0.555,0.05 1.039,0.06 2.051,0.17 0.504,0.03 0.543,0.03 1.515,0.09 h 0.516 l 1.512,0.1 0.531,0.03 1.019,0.04 0.516,0.02 h 0.492 l 1.016,0.03 0.547,0.03 h 0.507 l 0.512,0.03 h 0.492 l 0.524,0.03 h 1.008 l 0.496,0.04 h 2.066 l 0.512,0.03 h 1.39"
         style="fill:none;stroke:#da1259;stroke-width:7.5;stroke-linecap:square;stroke-linejoin:miter;stroke-miterlimit:3.25;stroke-dasharray:none;stroke-opacity:1"
         transform="matrix(0.13333333,0,0,-0.13333333,0,163)" />
      <path
         id="path6"
         d="m 885.527,1218.46 h 1.653 l 0.492,-0.03 h 1.566 l 0.504,-0.04 h 1.004 l 0.516,-0.03 h 0.496 l 1.023,-0.03 h 0.532 l 0.511,-0.03 1.012,-0.03 0.496,-0.02 h 0.508 l 1.055,-0.07 0.503,-0.04 h 0.516 l 1.004,-0.06 2.074,-0.12 0.528,-0.03 0.566,-0.03 1.102,-0.08 2.222,-0.17 1.067,-0.07 1.117,-0.1 2.219,-0.22 0.574,-0.08 0.527,-0.01 3.324,-0.38 4.438,-0.54 0.582,-0.07 0.539,-0.07 3.324,-0.47 4.422,-0.7 0.566,-0.08 0.547,-0.11 3.324,-0.56 4.438,-0.86 0.535,-0.09 0.512,-0.1 1.043,-0.23 2.062,-0.43 4.141,-0.92 8.273,-2.03 1.02,-0.26 1.039,-0.28 2.051,-0.57 4.144,-1.17 8.278,-2.57 0.566,-0.19 0.578,-0.16 1.11,-0.37 2.238,-0.76 4.465,-1.56 9,-3.35 0.535,-0.23 0.562,-0.22 1.118,-0.45 2.246,-0.91 4.496,-1.86 8.98,-3.94 0.52,-0.25 0.57,-0.25 1.09,-0.52 2.21,-1.03 4.4,-2.11 8.81,-4.45 17.6,-9.72 0.5,-0.3 0.51,-0.3 1.04,-0.61 2.03,-1.2 4.13,-2.47 8.2,-5.13 16.44,-10.95 35.6,-26.8 33.24,-28.55 32.59,-31.03 35.37,-36.79 33.01,-36.919 35.79,-42.516 33.39,-41.586 32.74,-42.219 35.53,-46.992 33.15,-44.57 35.92,-48.641 35.28,-47.652 32.9,-43.988 35.68,-46.758 33.3,-42.367 32.64,-40.102 35.46,-41.488 33.07,-36.582 0.56,-0.59 0.57,-0.629 1.15,-1.242 6.92,-7.324 9.22,-9.59 0.56,-0.59 0.61,-0.613 1.14,-1.164 2.31,-2.368 4.64,-4.695 0.56,-0.586 0.57,-0.597 6.91,-6.895 0.59,-0.582 0.57,-0.551"
         style="fill:none;stroke:#da1259;stroke-width:7.5;stroke-linecap:square;stroke-linejoin:miter;stroke-miterlimit:3.25;stroke-dasharray:none;stroke-opacity:1"
         transform="matrix(0.13333333,0,0,-0.13333333,0,163)" />
      <path
         id="path7"
         d="m 1473.73,993.613 h 99.35"
         style="fill:none;stroke:#3871c1;stroke-width:7.5;stroke-linecap:square;stroke-linejoin:miter;stroke-miterlimit:3.25;stroke-dasharray:none;stroke-opacity:1"
         transform="matrix(0.13333333,0,0,-0.13333333,0,163)" />
      <path
         id="path8"
         d="m 1473.73,873.613 h 99.35"
         style="fill:none;stroke:#da1259;stroke-width:7.5;stroke-linecap:square;stroke-linejoin:miter;stroke-miterlimit:3.25;stroke-dasharray:none;stroke-opacity:1"
         transform="matrix(0.13333333,0,0,-0.13333333,0,163)" />
      <path
         id="path9"
         d="m 2445,387.824 h 3.1 l 0.5,0.02 h 2.55 l 0.56,0.035 h 0.52 l 0.99,0.031 h 1.06 l 0.99,0.035 h 0.55 l 0.52,0.02 1.03,0.035 h 0.5 l 0.53,0.031 1.04,0.035 2.05,0.067 1.02,0.066 1.04,0.035 2.08,0.082 0.99,0.063 1.06,0.07 2.05,0.129 0.51,0.035 0.53,0.032 1.01,0.046 6.18,0.489 0.56,0.023 0.59,0.07 3.33,0.29 4.48,0.433 0.55,0.059 0.58,0.062 1.1,0.145 2.24,0.258 4.47,0.523 0.53,0.098 0.58,0.066 1.1,0.152 2.25,0.293 4.47,0.664 8.93,1.395 0.55,0.09 0.51,0.094 1.03,0.156 2.08,0.375 4.18,0.73 8.36,1.598 16.68,3.402 0.5,0.11 0.5,0.136 1.05,0.168 2.02,0.45 4.09,0.886 8.22,1.75 0.47,0.086 0.53,0.125 1.01,0.196 2.07,0.445 4.08,0.855 8.2,1.637 0.55,0.141 0.56,0.097 1.11,0.219 6.64,1.223 0.55,0.14 0.57,0.086 3.31,0.571 4.44,0.738 0.55,0.074 0.56,0.113 1.1,0.153 2.23,0.347 0.57,0.094 0.54,0.059 3.33,0.488 0.55,0.07 0.55,0.039 1.1,0.176 2.23,0.238 4.41,0.485 0.55,0.066 0.51,0.059 1.04,0.097 2.06,0.196 0.55,0.015 0.49,0.032 1.05,0.109 2.07,0.129 0.5,0.019 0.55,0.036 1,0.054 0.54,0.035 0.51,0.04 1.05,0.07 h 0.5 l 0.52,0.027 0.53,0.031 h 0.5 l 0.5,0.028 h 0.54 l 0.51,0.035 h 0.51 l 0.55,0.019 h 1.04 l 0.49,0.036 h 5.71 l 0.51,-0.036 h 1.05 l 0.51,-0.019 h 0.5 l 0.54,-0.035 h 0.51 l 1.05,-0.059 h 0.49 l 0.51,-0.027 1.05,-0.07 0.54,-0.04 0.5,-0.035 1.06,-0.054 0.53,-0.036 0.57,-0.019 1.1,-0.098 0.57,-0.031 0.58,-0.078 1.11,-0.078 1.14,-0.137 1.1,-0.105 2.25,-0.243 0.57,-0.101 0.53,-0.059 1.16,-0.156 2.22,-0.309 0.56,-0.101 0.57,-0.106 1.13,-0.14 2.22,-0.418 1.13,-0.192 1.12,-0.226 2.26,-0.461 1.13,-0.27 1.1,-0.246 2.25,-0.539 0.58,-0.133 0.53,-0.144 1.15,-0.297 2.23,-0.606 4.48,-1.324 0.57,-0.156 0.55,-0.199 1.1,-0.348 2.19,-0.723 4.38,-1.617 0.58,-0.187 0.55,-0.231 3.32,-1.324 4.41,-1.859 0.52,-0.25 0.59,-0.27 1.05,-0.488 2.24,-1.024 4.39,-2.195 8.82,-4.769 0.51,-0.293 0.53,-0.321 1.01,-0.589 2.06,-1.235 4.12,-2.547 8.2,-5.41 16.43,-12.168 1.14,-0.863 3.32,-2.676 4.48,-3.664 8.89,-7.57 17.83,-15.91 33.27,-30.2 1.03,-0.89 1.05,-0.887 2.02,-1.77 4.08,-3.46 8.15,-6.614 0.53,-0.406 0.52,-0.445 1,-0.762 2.04,-1.563 4.09,-3.05 8.16,-5.61 0.53,-0.363 0.57,-0.344 1.09,-0.734 2.22,-1.359 4.42,-2.575 0.59,-0.297 0.52,-0.316 1.12,-0.582 2.2,-1.16 4.44,-2.137 0.54,-0.215 0.54,-0.273 1.11,-0.469 2.22,-0.887 0.57,-0.226 0.53,-0.196 3.34,-1.152 0.55,-0.187 0.56,-0.172 1.1,-0.344 0.54,-0.16 0.57,-0.149 1.1,-0.285 0.54,-0.156 0.58,-0.117 1.1,-0.258 0.55,-0.141 0.56,-0.125 1.1,-0.179 1.03,-0.207 1.03,-0.184 1.02,-0.121 1.03,-0.164 0.53,-0.031 0.5,-0.071 0.54,-0.043 1.01,-0.058 0.53,-0.071 0.52,-0.035 h 0.49 l 0.55,-0.031 0.51,-0.023 h 3.1 l 0.5,0.023 h 0.5 l 0.55,0.031 1.02,0.071 0.5,0.058 0.53,0.035 1.02,0.114 0.55,0.066 1.01,0.129 0.54,0.066 1.52,0.274 0.53,0.101 0.51,0.106 1.04,0.215 1.02,0.238 1.06,0.281 0.5,0.129 0.49,0.145 1.05,0.324 0.51,0.137 0.54,0.179 1.01,0.367 0.55,0.157 0.49,0.203 1.01,0.41 2.1,0.848 0.54,0.246 0.57,0.254 1.12,0.547 2.23,1.136 0.57,0.332 0.55,0.309 1.14,0.637 2.22,1.347 0.55,0.395 0.58,0.344 1.11,0.75 2.25,1.628 4.46,3.532 0.56,0.48 0.54,0.477 1.15,0.98 2.22,2.055 4.5,4.512 0.52,0.589 0.57,0.606 1.12,1.23 2.24,2.575 4.48,5.457 0.57,0.707 0.53,0.703 1.12,1.453 2.18,2.98 4.41,6.36 1.06,1.648 1.13,1.711 2.19,3.465 4.38,7.316 0.57,0.942 0.54,0.972 1.12,1.934 2.16,3.965 4.42,8.289 8.77,18.098 0.51,1.113 0.52,1.098 1.03,2.281 2.06,4.597 4.09,9.497 8.2,20.277 0.5,1.328 0.51,1.293 1.04,2.695 2.03,5.418 4.12,11.145 8.19,23.402 0.55,1.645 0.56,1.652 1.11,3.324 2.22,6.699 4.45,13.782 8.88,28.761 17.78,61.887 33.2,127.594 35.96,146.004 35.31,137.328 1.01,3.734 1.04,3.766 2.06,7.445 4.13,14.631 8.23,28.31 1.02,3.42 1.03,3.42 2.08,6.78 4.11,13.21 8.24,25.2 0.53,1.65 0.57,1.66 1.12,3.22 2.24,6.4 4.47,12.38 0.53,1.53 0.57,1.48 1.11,2.97 2.24,5.83 4.46,11.24 0.54,1.36 0.58,1.34 1.12,2.69 2.23,5.23 4.49,9.98 8.87,17.98 0.56,0.95 0.5,0.95 1.05,1.9 2.09,3.68 4.18,6.84 0.5,0.81 0.54,0.81 1.03,1.58 2.06,3.04 4.18,5.62 0.51,0.65 0.55,0.66 1.04,1.28 2.1,2.4 1.01,1.13 1.04,1.12 2.09,2.08 0.55,0.47 0.51,0.51 1.04,0.92 2.07,1.78 0.52,0.41 0.56,0.42 1.03,0.74 2.05,1.44 0.51,0.31 0.53,0.32 1.02,0.59 1.02,0.59 1.51,0.75 0.53,0.22 1.54,0.67 0.49,0.18 1.03,0.36 0.54,0.16 1.01,0.31 1.01,0.25 0.49,0.1 0.52,0.13 0.5,0.09 0.54,0.06 0.51,0.11 0.52,0.05 0.5,0.03 0.51,0.06 0.49,0.04 h 0.52 l 0.37,0.03"
         style="fill:none;stroke:#3871c1;stroke-width:7.5;stroke-linecap:square;stroke-linejoin:miter;stroke-miterlimit:3.25;stroke-dasharray:none;stroke-opacity:1"
         transform="matrix(0.13333333,0,0,-0.13333333,0,163)" />
      <path
         id="path10"
         d="m 3285.53,1218.46 1.13,-0.07 0.52,-0.03 0.5,-0.06 0.51,-0.03 0.5,-0.09 0.55,-0.07 1.51,-0.29 1.02,-0.24 1.02,-0.28 0.53,-0.16 0.51,-0.2 1.01,-0.34 0.49,-0.24 0.52,-0.18 1.04,-0.44 1.03,-0.51 1.01,-0.53 2.07,-1.17 0.52,-0.35 0.57,-0.36 1.09,-0.76 2.24,-1.65 1.05,-0.88 1.11,-0.96 2.23,-1.99 0.57,-0.53 0.53,-0.55 1.12,-1.13 2.21,-2.37 4.44,-5.33 0.58,-0.72 0.53,-0.74 1.12,-1.49 2.22,-3.1 4.41,-6.75 0.58,-0.88 0.54,-0.91 1.12,-1.85 2.2,-3.8 4.45,-8.13 0.52,-0.98 0.51,-1.02 1.05,-2.03 2.07,-4.18 4.13,-8.73 8.28,-19.2 1,-2.53 1.06,-2.6 2.05,-5.26 4.14,-10.89 8.27,-23.25 1.14,-3.29 3.35,-10.07 4.47,-13.88 9,-29.2 17.93,-63.338 35.21,-137.547 32.84,-133.422 35.61,-136.969 0.52,-1.867 0.53,-1.902 1.03,-3.704 2.09,-7.441 4.14,-14.605 8.32,-28.274 0.53,-1.742 0.51,-1.715 1.03,-3.414 2.1,-6.812 4.15,-13.313 8.29,-25.516 1.01,-3.035 1.05,-3.008 2.03,-5.933 4.07,-11.617 8.13,-22.016 1.03,-2.66 1.01,-2.594 2.05,-5.172 4.09,-10.027 8.13,-18.824 0.56,-1.227 0.55,-1.199 1.1,-2.379 2.23,-4.719 4.43,-9.004 0.52,-1.109 0.57,-1.066 1.08,-2.149 2.23,-4.223 4.43,-8.011 0.54,-0.992 0.56,-0.946 1.12,-1.879 2.17,-3.722 4.45,-7.043 8.81,-12.594 0.53,-0.648 0.53,-0.668 1.01,-1.348 2.07,-2.516 4.15,-4.785 1.01,-1.144 1.05,-1.102 2.05,-2.117 4.11,-3.965 0.52,-0.48 0.52,-0.469 1.03,-0.906 2.05,-1.747 0.55,-0.398 0.49,-0.402 1.05,-0.821 2.08,-1.504 0.49,-0.375 0.5,-0.351 1.06,-0.719 2.06,-1.344 1.02,-0.636 1.04,-0.606 2.05,-1.113 0.57,-0.297 0.54,-0.273 1.15,-0.582 2.19,-1.028 0.59,-0.238 0.57,-0.231 1.11,-0.453 2.25,-0.808 0.52,-0.184 0.58,-0.203 1.09,-0.309 0.6,-0.16 0.53,-0.156 1.16,-0.332 0.52,-0.113 0.57,-0.125 1.11,-0.215 0.55,-0.152 0.59,-0.09 1.1,-0.184 0.57,-0.09 0.54,-0.094 0.57,-0.066 0.54,-0.066 1.15,-0.114 0.53,-0.035 0.57,-0.058 0.58,-0.036 0.53,-0.035 1.14,-0.054 h 3.35 l 0.55,0.023 1.14,0.066 0.52,0.036 0.57,0.035 0.55,0.023 1.13,0.121 0.55,0.059 1.14,0.137 0.55,0.093 1.14,0.172 0.49,0.067 0.54,0.09 1.04,0.218 0.52,0.114 0.52,0.089 1.02,0.215 0.55,0.149 0.49,0.129 3.14,0.851 0.53,0.16 0.53,0.149 3.14,1.051 4.17,1.64 0.55,0.192 0.49,0.226 3.15,1.426 4.67,2.344 0.53,0.273 1.05,0.563 2.1,1.179 4.16,2.477 0.53,0.316 0.51,0.332 1.01,0.653 2.06,1.332 4.07,2.777 8.18,6.008 16.39,13.328 0.54,0.488 0.56,0.481 1.13,0.957 6.65,5.886 8.87,7.989 17.77,16.297 0.5,0.488 0.55,0.453 1.02,0.973 2.07,1.89 4.15,3.746 8.28,7.344 0.54,0.438 0.5,0.472 1.05,0.887 2.05,1.805 4.15,3.523 8.3,6.84 0.57,0.43 0.54,0.449 1.14,0.91 2.23,1.754 4.51,3.457 8.96,6.555 0.58,0.402 0.57,0.371 1.1,0.809 2.26,1.507 4.49,2.961 8.96,5.481 0.56,0.316 0.55,0.313 1.11,0.629 2.22,1.23 4.39,2.34 0.53,0.285 0.6,0.262 1.06,0.57 2.23,1.078 4.4,2.067 0.55,0.25 0.55,0.215 1.11,0.476 2.2,0.957 4.42,1.75 1.08,0.438 1.1,0.39 2.23,0.782 4.39,1.48 0.52,0.156 0.54,0.16 1,0.325 2.05,0.605 0.53,0.117 0.5,0.157 1.04,0.281 2.05,0.551 1.01,0.25 1.05,0.242 2.05,0.48 4.13,0.879 2.03,0.391 2.06,0.383 0.53,0.066 0.51,0.074 1.02,0.176 2.06,0.316 0.48,0.059 0.55,0.062 1.03,0.153 0.5,0.07 0.52,0.067 1.03,0.097 0.51,0.059 0.53,0.051 1.01,0.105 2.05,0.215 0.59,0.035 0.54,0.074 1.11,0.067 0.56,0.05 0.58,0.036 1.1,0.054 0.54,0.035 1.16,0.075 0.52,0.035 0.58,0.027 0.52,0.031 h 0.59 l 0.55,0.028 0.54,0.035 h 0.57 l 0.54,0.019 h 1.15 l 0.53,0.036 h 6.16 l 0.52,-0.036 h 0.58 l 0.57,-0.019 h 0.52 l 0.6,-0.035 h 0.53 l 0.56,-0.028 h 0.57 l 0.55,-0.031 1.1,-0.062 1.13,-0.075 1.12,-0.035 0.52,-0.031 0.59,-0.059 1.1,-0.05 0.58,-0.035 0.54,-0.032 1.13,-0.109 0.54,-0.031 0.58,-0.047 3.32,-0.293 0.53,-0.059 0.53,-0.066 1.03,-0.098 2.08,-0.223 4.15,-0.511 0.55,-0.067 0.5,-0.039 1.05,-0.168 2.09,-0.293 4.14,-0.597 0.56,-0.09 0.48,-0.063 1.04,-0.156 2.1,-0.351 4.15,-0.735 8.33,-1.527 1.01,-0.176 1.05,-0.211 2.03,-0.391 4.1,-0.828 8.16,-1.711 16.29,-3.461 0.6,-0.121 0.51,-0.117 1.13,-0.215 2.2,-0.5 4.45,-0.898 8.87,-1.824 0.54,-0.078 0.57,-0.133 1.08,-0.215 2.2,-0.418 4.44,-0.856 8.87,-1.554 1.02,-0.196 1.03,-0.156 2.06,-0.336 4.16,-0.64 0.5,-0.106 0.52,-0.054 1.03,-0.157 2.07,-0.316 4.14,-0.582 1.02,-0.11 1.04,-0.132 2.05,-0.289 4.14,-0.481 1.01,-0.109 1.07,-0.145 2.05,-0.176 4.15,-0.418 1.14,-0.128 1.15,-0.086 2.29,-0.188 0.61,-0.082 0.58,-0.023 1.13,-0.09 2.3,-0.168 0.6,-0.035 0.57,-0.067 1.16,-0.043 2.31,-0.133 2.29,-0.128 2.3,-0.118 0.56,-0.035 h 0.61 l 1.72,-0.097 h 0.6 l 1.14,-0.071 h 0.57 l 0.56,-0.031 1.18,-0.035 h 0.57 l 0.56,-0.02 1.18,-0.035 h 0.58 l 0.56,-0.031 h 1.73 l 0.59,-0.035 h 1.7 l 0.61,-0.02 h 3.44"
         style="fill:none;stroke:#3871c1;stroke-width:7.5;stroke-linecap:square;stroke-linejoin:miter;stroke-miterlimit:3.25;stroke-dasharray:none;stroke-opacity:1"
         transform="matrix(0.13333333,0,0,-0.13333333,0,163)" />
      <path
         id="path11"
         d="m 45,352.824 v 35"
         style="fill:none;stroke:#231f20;stroke-width:5;stroke-linecap:butt;stroke-linejoin:miter;stroke-miterlimit:3.25;stroke-dasharray:none;stroke-opacity:1"
         transform="matrix(0.13333333,0,0,-0.13333333,0,163)" />
      <path
         id="path12"
         d="m 465.004,352.824 v 35"
         style="fill:none;stroke:#231f20;stroke-width:5;stroke-linecap:butt;stroke-linejoin:miter;stroke-miterlimit:3.25;stroke-dasharray:none;stroke-opacity:1"
         transform="matrix(0.13333333,0,0,-0.13333333,0,163)" />
      <path
         id="path13"
         d="m 1305,352.824 v 35 m -420.02,0 v 19.922"
         style="fill:none;stroke:#231f20;stroke-width:5;stroke-linecap:butt;stroke-linejoin:miter;stroke-miterlimit:3.25;stroke-dasharray:none;stroke-opacity:1"
         transform="matrix(0.13333333,0,0,-0.13333333,0,163)" />
      <path
         id="path14"
         d="m 1725,352.824 v 35"
         style="fill:none;stroke:#231f20;stroke-width:5;stroke-linecap:butt;stroke-linejoin:miter;stroke-miterlimit:3.25;stroke-dasharray:none;stroke-opacity:1"
         transform="matrix(0.13333333,0,0,-0.13333333,0,163)" />
      <path
         id="path15"
         d="m 849.98,803.145 h 35 m 0,-415.321 h 19.922 m -859.902,0 h 1680"
         style="fill:none;stroke:#231f20;stroke-width:5;stroke-linecap:butt;stroke-linejoin:miter;stroke-miterlimit:3.25;stroke-dasharray:none;stroke-opacity:1"
         transform="matrix(0.13333333,0,0,-0.13333333,0,163)" />
      <path
         id="path16"
         d="m 884.98,1218.46 h 19.922"
         style="fill:none;stroke:#231f20;stroke-width:5;stroke-linecap:butt;stroke-linejoin:miter;stroke-miterlimit:3.25;stroke-dasharray:none;stroke-opacity:1"
         transform="matrix(0.13333333,0,0,-0.13333333,0,163)" />
      <path
         id="path17"
         d="m 884.98,180.16 v 1038.3"
         style="fill:none;stroke:#231f20;stroke-width:5;stroke-linecap:butt;stroke-linejoin:miter;stroke-miterlimit:3.25;stroke-dasharray:none;stroke-opacity:1"
         transform="matrix(0.13333333,0,0,-0.13333333,0,163)" />
      <path
         id="path18"
         d="m 2445,352.824 v 35"
         style="fill:none;stroke:#231f20;stroke-width:5;stroke-linecap:butt;stroke-linejoin:miter;stroke-miterlimit:3.25;stroke-dasharray:none;stroke-opacity:1"
         transform="matrix(0.13333333,0,0,-0.13333333,0,163)" />
      <path
         id="path19"
         d="m 2865,352.824 v 35"
         style="fill:none;stroke:#231f20;stroke-width:5;stroke-linecap:butt;stroke-linejoin:miter;stroke-miterlimit:3.25;stroke-dasharray:none;stroke-opacity:1"
         transform="matrix(0.13333333,0,0,-0.13333333,0,163)" />
      <path
         id="path20"
         d="m 3705,352.824 v 35 m -420.02,0 v 19.922"
         style="fill:none;stroke:#231f20;stroke-width:5;stroke-linecap:butt;stroke-linejoin:miter;stroke-miterlimit:3.25;stroke-dasharray:none;stroke-opacity:1"
         transform="matrix(0.13333333,0,0,-0.13333333,0,163)" />
      <path
         id="path21"
         d="m 4125,352.824 v 35"
         style="fill:none;stroke:#231f20;stroke-width:5;stroke-linecap:butt;stroke-linejoin:miter;stroke-miterlimit:3.25;stroke-dasharray:none;stroke-opacity:1"
         transform="matrix(0.13333333,0,0,-0.13333333,0,163)" />
      <path
         id="path22"
         d="m 3249.98,803.145 h 35 m 0,-415.321 h 19.91 m -859.89,0 h 1680"
         style="fill:none;stroke:#231f20;stroke-width:5;stroke-linecap:butt;stroke-linejoin:miter;stroke-miterlimit:3.25;stroke-dasharray:none;stroke-opacity:1"
         transform="matrix(0.13333333,0,0,-0.13333333,0,163)" />
      <path
         id="path23"
         d="m 3284.98,1218.46 h 19.91"
         style="fill:none;stroke:#231f20;stroke-width:5;stroke-linecap:butt;stroke-linejoin:miter;stroke-miterlimit:3.25;stroke-dasharray:none;stroke-opacity:1"
         transform="matrix(0.13333333,0,0,-0.13333333,0,163)" />
      <path
         id="path24"
         d="m 3284.98,180.16 v 1038.3"
         style="fill:none;stroke:#231f20;stroke-width:5;stroke-linecap:butt;stroke-linejoin:miter;stroke-miterlimit:3.25;stroke-dasharray:none;stroke-opacity:1"
         transform="matrix(0.13333333,0,0,-0.13333333,0,163)" />
    </g>
  </g>
</svg>
