<?xml version="1.0" encoding="UTF-8" standalone="no"?>
<!-- Created with Inkscape (http://www.inkscape.org/) -->

<svg
   version="1.1"
   id="svg1"
   width="564.59998"
   height="141.53333"
   viewBox="0 0 564.59998 141.53333"
   sodipodi:docname="pha08f14.eps"
   xmlns:inkscape="http://www.inkscape.org/namespaces/inkscape"
   xmlns:sodipodi="http://sodipodi.sourceforge.net/DTD/sodipodi-0.dtd"
   xmlns="http://www.w3.org/2000/svg"
   xmlns:svg="http://www.w3.org/2000/svg">
  <defs
     id="defs1" />
  <sodipodi:namedview
     id="namedview1"
     pagecolor="#ffffff"
     bordercolor="#000000"
     borderopacity="0.25"
     inkscape:showpageshadow="2"
     inkscape:pageopacity="0.0"
     inkscape:pagecheckerboard="0"
     inkscape:deskcolor="#d1d1d1">
    <inkscape:page
       x="0"
       y="0"
       inkscape:label="1"
       id="page1"
       width="564.59998"
       height="141.53333"
       margin="0"
       bleed="0" />
  </sodipodi:namedview>
  <g
     id="g1"
     inkscape:groupmode="layer"
     inkscape:label="1">
    <g
       id="group-R5">
      <path
         id="path2"
         d="m 4.2180125,-1.8053078 v -0.46875 H 0.444575 v 0.46875 z M 8.1379344,-6.203125e-4 V -0.24671406 C 7.3176219,-0.30530781 7.2590281,-0.37562031 7.2590281,-1.0318703 v -4.6875 c -0.4921875,0.1992187 -1.0195312,0.375 -1.59375,0.46875 v 0.2109375 l 0.4335938,0.011719 c 0.3867187,0.023437 0.421875,0.070312 0.421875,0.5390625 V -1.03187 c 0,0.65624999 -0.035156,0.72656249 -0.8554688,0.78515624 V -6.203125e-4 Z M 10.030513,0.10484844 c 0.28125,0 0.503906,-0.19921875 0.503906,-0.515625 0,-0.29296875 -0.222656,-0.515625 -0.503906,-0.515625 -0.2929692,0 -0.5039067,0.22265625 -0.5039067,0.515625 0,0.31640625 0.2109375,0.515625 0.5039067,0.515625 z m 3.17871,-5.82421874 c -1.347656,0 -1.839843,1.6054687 -1.839843,2.9179687 0,1.4179688 0.480468,2.90625004 1.839843,2.90625004 1.359375,0 1.828125,-1.59375004 1.828125,-2.91796874 0,-1.3828125 -0.46875,-2.90625 -1.828125,-2.90625 z m 0,0.3046875 c 0.808594,0 1.03125,1.3242187 1.03125,2.6015625 0,1.265625 -0.222656,2.61328124 -1.03125,2.61328124 -0.773437,0 -1.042968,-1.35937504 -1.042968,-2.61328124 0,-1.2539063 0.222656,-2.6015625 1.042968,-2.6015625 z M 85.045161,-6.203125e-4 V -0.24671406 c -0.820313,-0.0585938 -0.878906,-0.12890625 -0.878906,-0.78515624 v -4.6875 c -0.492188,0.1992187 -1.019532,0.375 -1.59375,0.46875 v 0.2109375 l 0.433593,0.011719 c 0.386719,0.023437 0.421875,0.070312 0.421875,0.5390625 V -1.03187 c 0,0.65624999 -0.03516,0.72656249 -0.855468,0.78515624 V -6.203125e-4 Z M 86.937739,0.10484844 c 0.28125,0 0.503906,-0.19921875 0.503906,-0.515625 0,-0.29296875 -0.222656,-0.515625 -0.503906,-0.515625 -0.292969,0 -0.503906,0.22265625 -0.503906,0.515625 0,0.31640625 0.210937,0.515625 0.503906,0.515625 z M 90.11645,-5.7193703 c -1.347656,0 -1.839844,1.6054687 -1.839844,2.9179687 0,1.4179688 0.480469,2.90625004 1.839844,2.90625004 1.359375,0 1.828125,-1.59375004 1.828125,-2.91796874 0,-1.3828125 -0.46875,-2.90625 -1.828125,-2.90625 z m 0,0.3046875 c 0.808594,0 1.03125,1.3242187 1.03125,2.6015625 0,1.265625 -0.222656,2.61328124 -1.03125,2.61328124 -0.773438,0 -1.042969,-1.35937504 -1.042969,-2.61328124 0,-1.2539063 0.222656,-2.6015625 1.042969,-2.6015625 z m -66.084961,3.609375 v -0.46875 h -3.773437 v 0.46875 z M 26.6477,-5.7193703 c -1.347656,0 -1.839844,1.6054687 -1.839844,2.9179687 0,1.4179688 0.480469,2.90625004 1.839844,2.90625004 1.359375,0 1.828125,-1.59375004 1.828125,-2.91796874 0,-1.3828125 -0.46875,-2.90625 -1.828125,-2.90625 z m 0,0.3046875 c 0.808594,0 1.03125,1.3242187 1.03125,2.6015625 0,1.265625 -0.222656,2.61328124 -1.03125,2.61328124 -0.773438,0 -1.042969,-1.35937504 -1.042969,-2.61328124 0,-1.2539063 0.222656,-2.6015625 1.042969,-2.6015625 z m 3.196289,5.51953124 c 0.28125,0 0.503906,-0.19921875 0.503906,-0.515625 0,-0.29296875 -0.222656,-0.515625 -0.503906,-0.515625 -0.292969,0 -0.503906,0.22265625 -0.503906,0.515625 0,0.31640625 0.210937,0.515625 0.503906,0.515625 z m 2.390625,-5.05078124 h 2.097656 l 0.234375,-0.5859375 -0.05859,-0.070312 h -2.566407 l -0.351562,2.7421875 c 0.210937,-0.082031 0.550781,-0.1875 0.925781,-0.1875 0.984375,0 1.464844,0.5742187 1.464844,1.359375 0,0.6796875 -0.375,1.33593749 -1.136719,1.33593749 -0.550781,0 -0.914062,-0.29296875 -1.113281,-0.45703125 -0.08203,-0.0703125 -0.152344,-0.0585938 -0.234375,0 -0.105469,0.09375 -0.1875,0.2109375 -0.1875,0.29296875 -0.02344,0.10546875 0.02344,0.1875 0.140625,0.3046875 0.128906,0.12890625 0.515625,0.31640625 0.925781,0.31640625 0.480469,-0.01171875 1.078125,-0.24609375 1.570313,-0.6328125 0.550781,-0.45703125 0.796875,-0.96093754 0.796875,-1.51171874 0,-0.7382813 -0.585938,-1.5117188 -1.734375,-1.5117188 -0.246094,0 -0.667969,0.140625 -1.007813,0.2695313 z m 31.696289,-0.7734375 c -1.347656,0 -1.839844,1.6054687 -1.839844,2.9179687 0,1.4179688 0.480469,2.90625004 1.839844,2.90625004 1.359375,0 1.828125,-1.59375004 1.828125,-2.91796874 0,-1.3828125 -0.46875,-2.90625 -1.828125,-2.90625 z m 0,0.3046875 c 0.808594,0 1.03125,1.3242187 1.03125,2.6015625 0,1.265625 -0.222656,2.61328124 -1.03125,2.61328124 -0.773437,0 -1.042969,-1.35937504 -1.042969,-2.61328124 0,-1.2539063 0.222657,-2.6015625 1.042969,-2.6015625 z m 3.196289,5.51953124 c 0.28125,0 0.503906,-0.19921875 0.503906,-0.515625 0,-0.29296875 -0.222656,-0.515625 -0.503906,-0.515625 -0.292969,0 -0.503906,0.22265625 -0.503906,0.515625 0,0.31640625 0.210937,0.515625 0.503906,0.515625 z m 2.390625,-5.05078124 h 2.097656 l 0.234375,-0.5859375 -0.05859,-0.070312 h -2.566407 l -0.351562,2.7421875 c 0.210937,-0.082031 0.550781,-0.1875 0.925781,-0.1875 0.984375,0 1.464844,0.5742187 1.464844,1.359375 0,0.6796875 -0.375,1.33593749 -1.136719,1.33593749 -0.550781,0 -0.914062,-0.29296875 -1.113281,-0.45703125 -0.08203,-0.0703125 -0.152344,-0.0585938 -0.234375,0 -0.105469,0.09375 -0.1875,0.2109375 -0.1875,0.29296875 -0.02344,0.10546875 0.02344,0.1875 0.140625,0.3046875 0.128906,0.12890625 0.515625,0.31640625 0.925781,0.31640625 0.480469,-0.01171875 1.078125,-0.24609375 1.570313,-0.6328125 0.550781,-0.45703125 0.796875,-0.96093754 0.796875,-1.51171874 0,-0.7382813 -0.585938,-1.5117188 -1.734375,-1.5117188 -0.246094,0 -0.667969,0.140625 -1.007813,0.2695313 z M 44.914302,14.325552 c -0.890625,-0.761719 -1.40625,-2.203125 -1.40625,-3.75 0,-1.5468754 0.515625,-3.0000004 1.40625,-3.7500004 L 44.761958,6.6146141 c -1.324219,0.9023437 -1.910156,2.3320312 -1.910156,3.9492189 0,1.628906 0.585937,3.082031 1.910156,3.960937 z m 4.318359,-1.675782 -0.09375,-0.234375 c -0.09375,0.05859 -0.222656,0.105469 -0.328125,0.105469 -0.152344,0 -0.316406,-0.140625 -0.316406,-0.550781 V 10.30602 c 0,-0.4687497 -0.08203,-0.8437497 -0.398438,-1.1015622 -0.199219,-0.1640625 -0.46875,-0.2460937 -0.738281,-0.2460937 -0.515625,0.1054687 -1.101563,0.4570312 -1.347656,0.6328125 -0.175782,0.1289062 -0.292969,0.2226562 -0.292969,0.3632812 0,0.1992192 0.234375,0.3867192 0.398437,0.3867192 0.128907,0 0.222657,-0.07031 0.257813,-0.210938 0.07031,-0.2812499 0.152344,-0.4804687 0.269531,-0.5976562 0.09375,-0.1054687 0.222656,-0.1757812 0.410156,-0.1757812 0.445313,0 0.75,0.3632812 0.75,1.0195314 v 0.164062 c -0.199218,0.152344 -0.855468,0.398438 -1.394531,0.574219 -0.492187,0.175781 -0.726562,0.457031 -0.726562,0.902344 0,0.5625 0.445312,1.089844 1.078125,1.089844 0.269531,0 0.703125,-0.328125 1.066406,-0.574219 0.04687,0.152344 0.09375,0.28125 0.210937,0.410156 0.105469,0.08203 0.292969,0.164063 0.421875,0.164063 z m -1.429688,-0.410156 c -0.164062,0.164063 -0.480468,0.316406 -0.714843,0.328125 -0.28125,0 -0.644532,-0.222656 -0.644532,-0.691406 0,-0.328125 0.199219,-0.492188 0.550782,-0.65625 0.1875,-0.09375 0.621093,-0.28125 0.808593,-0.375 z m 1.889649,-5.4140624 c 0.890625,0.7382812 1.417969,2.203125 1.417969,3.7500004 0,1.546875 -0.503907,2.988281 -1.417969,3.75 l 0.164062,0.199218 c 1.347657,-0.914062 1.898438,-2.332031 1.898438,-3.949218 0,-1.6289067 -0.550781,-3.0585942 -1.898438,-3.9609379 z M 194.31958,14.325552 c -0.89063,-0.761719 -1.40625,-2.203125 -1.40625,-3.75 0,-1.5468754 0.51562,-3.0000004 1.40625,-3.7500004 l -0.15235,-0.2109375 c -1.32422,0.9023437 -1.91015,2.3320312 -1.91015,3.9492189 0,1.628906 0.58593,3.082031 1.91015,3.960937 z m 1.79003,-4.9570317 V 6.5911766 c -0.33984,0.1171875 -0.89062,0.2578125 -1.3125,0.3164062 v 0.2109375 c 0.58594,0.046875 0.59766,0.1054688 0.59766,0.6679688 v 5.0039059 c 0.49219,0.234375 0.94922,0.316407 1.32422,0.316407 1.20703,0 2.26172,-0.9375 2.26172,-2.261719 0,-1.0546877 -0.8086,-1.8867189 -1.78125,-1.8867189 -0.0937,0 -0.22266,0.023437 -0.36328,0.09375 z m 0,0.2695313 c 0.16407,-0.1054688 0.44532,-0.1757813 0.70313,-0.1757813 0.73828,0 1.37109,0.5976567 1.37109,1.6171877 0,1.054687 -0.48047,1.6875 -1.21875,1.6875 -0.48047,-0.01172 -0.75,-0.328125 -0.80859,-0.503906 -0.0352,-0.08203 -0.0469,-0.175782 -0.0469,-0.304688 z m 3.60938,-2.8125 c 0.89062,0.7382812 1.41797,2.203125 1.41797,3.7500004 0,1.546875 -0.50391,2.988281 -1.41797,3.75 l 0.16406,0.199218 c 1.34766,-0.914062 1.89844,-2.332031 1.89844,-3.949218 0,-1.6289067 -0.55078,-3.0585942 -1.89844,-3.9609379 z m 144.69726,7.5000004 c -0.89062,-0.761719 -1.40625,-2.203125 -1.40625,-3.75 0,-1.5468754 0.51563,-3.0000004 1.40625,-3.7500004 l -0.15234,-0.2109375 c -1.32422,0.9023437 -1.91016,2.3320312 -1.91016,3.9492189 0,1.628906 0.58594,3.082031 1.91016,3.960937 z m 3.93457,-2.320313 c -0.41015,0.386719 -0.70312,0.492188 -1.08984,0.492188 -0.50391,0 -1.35937,-0.410157 -1.35937,-1.664063 0,-0.9492187 0.51562,-1.4414062 1.11328,-1.4414062 0.3164,0 0.63281,0.1171875 0.90234,0.375 0.082,0.070312 0.11719,0.09375 0.16406,0.09375 0.10547,0 0.30469,-0.1992187 0.30469,-0.3867187 0,-0.1054688 -0.0352,-0.1757813 -0.15234,-0.28125 -0.14063,-0.1171875 -0.4336,-0.234375 -0.79688,-0.234375 -0.35156,0 -0.89062,0.140625 -1.35937,0.5039062 -0.59766,0.46875 -0.90235,1.0781247 -0.90235,1.7695317 0,0.960937 0.66797,1.875 1.80469,1.875 0.52734,0 1.13672,-0.398438 1.52344,-0.914063 z m 0.70313,-5.1796874 c 0.89062,0.7382812 1.41797,2.203125 1.41797,3.7500004 0,1.546875 -0.50391,2.988281 -1.41797,3.75 l 0.16406,0.199218 c 1.34766,-0.914062 1.89844,-2.332031 1.89844,-3.949218 0,-1.6289067 -0.55078,-3.0585942 -1.89844,-3.9609379 z M 154.62817,-1.8053078 v -0.46875 h -3.77344 v 0.46875 z m 3.91699,1.8046874875 V -0.24671406 c -0.82031,-0.0585938 -0.87891,-0.12890625 -0.87891,-0.78515624 v -4.6875 c -0.49218,0.1992187 -1.01953,0.375 -1.59375,0.46875 v 0.2109375 l 0.4336,0.011719 c 0.38672,0.023437 0.42187,0.070312 0.42187,0.5390625 V -1.03187 c 0,0.65624999 -0.0351,0.72656249 -0.85547,0.78515624 v 0.2460937475 z m 1.89551,0.1054687525 c 0.28125,0 0.50391,-0.19921875 0.50391,-0.515625 0,-0.29296875 -0.22266,-0.515625 -0.50391,-0.515625 -0.29297,0 -0.50391,0.22265625 -0.50391,0.515625 0,0.31640625 0.21094,0.515625 0.50391,0.515625 z m 3.17578,-5.82421874 c -1.34766,0 -1.83984,1.6054687 -1.83984,2.9179687 0,1.4179688 0.48047,2.90625004 1.83984,2.90625004 1.35938,0 1.82813,-1.59375004 1.82813,-2.91796874 0,-1.3828125 -0.46875,-2.90625 -1.82813,-2.90625 z m 0,0.3046875 c 0.80859,0 1.03125,1.3242187 1.03125,2.6015625 0,1.265625 -0.22266,2.61328124 -1.03125,2.61328124 -0.77344,0 -1.04297,-1.35937504 -1.04297,-2.61328124 0,-1.2539063 0.22266,-2.6015625 1.04297,-2.6015625 z m 71.83594,5.4140624875 V -0.24671406 c -0.82031,-0.0585938 -0.87891,-0.12890625 -0.87891,-0.78515624 v -4.6875 c -0.49219,0.1992187 -1.01953,0.375 -1.59375,0.46875 v 0.2109375 l 0.4336,0.011719 c 0.38671,0.023437 0.42187,0.070312 0.42187,0.5390625 V -1.03187 c 0,0.65624999 -0.0352,0.72656249 -0.85547,0.78515624 V -6.203125e-4 Z M 237.3479,0.10484844 c 0.28125,0 0.5039,-0.19921875 0.5039,-0.515625 0,-0.29296875 -0.22265,-0.515625 -0.5039,-0.515625 -0.29297,0 -0.50391,0.22265625 -0.50391,0.515625 0,0.31640625 0.21094,0.515625 0.50391,0.515625 z m 3.17578,-5.82421874 c -1.34766,0 -1.83985,1.6054687 -1.83985,2.9179687 0,1.4179688 0.48047,2.90625004 1.83985,2.90625004 1.35937,0 1.82812,-1.59375004 1.82812,-2.91796874 0,-1.3828125 -0.46875,-2.90625 -1.82812,-2.90625 z m 0,0.3046875 c 0.80859,0 1.03125,1.3242187 1.03125,2.6015625 0,1.265625 -0.22266,2.61328124 -1.03125,2.61328124 -0.77344,0 -1.04297,-1.35937504 -1.04297,-2.61328124 0,-1.2539063 0.22265,-2.6015625 1.04297,-2.6015625 z m -66.08496,3.609375 v -0.46875 h -3.77344 v 0.46875 z m 2.61621,-3.9140625 c -1.34766,0 -1.83985,1.6054687 -1.83985,2.9179687 0,1.4179688 0.48047,2.90625004 1.83985,2.90625004 1.35937,0 1.82812,-1.59375004 1.82812,-2.91796874 0,-1.3828125 -0.46875,-2.90625 -1.82812,-2.90625 z m 0,0.3046875 c 0.80859,0 1.03125,1.3242187 1.03125,2.6015625 0,1.265625 -0.22266,2.61328124 -1.03125,2.61328124 -0.77344,0 -1.04297,-1.35937504 -1.04297,-2.61328124 0,-1.2539063 0.22265,-2.6015625 1.04297,-2.6015625 z m 3.19629,5.51953124 c 0.28125,0 0.5039,-0.19921875 0.5039,-0.515625 0,-0.29296875 -0.22265,-0.515625 -0.5039,-0.515625 -0.29297,0 -0.50391,0.22265625 -0.50391,0.515625 0,0.31640625 0.21094,0.515625 0.50391,0.515625 z m 2.39062,-5.05078124 h 2.09766 l 0.23437,-0.5859375 -0.0586,-0.070312 h -2.56641 l -0.35156,2.7421875 c 0.21094,-0.082031 0.55078,-0.1875 0.92578,-0.1875 0.98438,0 1.46484,0.5742187 1.46484,1.359375 0,0.6796875 -0.375,1.33593749 -1.13671,1.33593749 -0.55079,0 -0.91407,-0.29296875 -1.11329,-0.45703125 -0.082,-0.0703125 -0.15234,-0.0585938 -0.23437,0 -0.10547,0.09375 -0.1875,0.2109375 -0.1875,0.29296875 -0.0234,0.10546875 0.0234,0.1875 0.14062,0.3046875 0.12891,0.12890625 0.51563,0.31640625 0.92579,0.31640625 0.48046,-0.01171875 1.07812,-0.24609375 1.57031,-0.6328125 0.55078,-0.45703125 0.79687,-0.96093754 0.79687,-1.51171874 0,-0.7382813 -0.58593,-1.5117188 -1.73437,-1.5117188 -0.2461,0 -0.66797,0.140625 -1.00781,0.2695313 z m 31.69922,-0.7734375 c -1.34766,0 -1.83984,1.6054687 -1.83984,2.9179687 0,1.4179688 0.48046,2.90625004 1.83984,2.90625004 1.35937,0 1.82812,-1.59375004 1.82812,-2.91796874 0,-1.3828125 -0.46875,-2.90625 -1.82812,-2.90625 z m 0,0.3046875 c 0.80859,0 1.03125,1.3242187 1.03125,2.6015625 0,1.265625 -0.22266,2.61328124 -1.03125,2.61328124 -0.77344,0 -1.04297,-1.35937504 -1.04297,-2.61328124 0,-1.2539063 0.22266,-2.6015625 1.04297,-2.6015625 z m 3.19336,5.51953124 c 0.28125,0 0.50391,-0.19921875 0.50391,-0.515625 0,-0.29296875 -0.22266,-0.515625 -0.50391,-0.515625 -0.29297,0 -0.50391,0.22265625 -0.50391,0.515625 0,0.31640625 0.21094,0.515625 0.50391,0.515625 z m 2.39355,-5.05078124 h 2.09766 l 0.23437,-0.5859375 -0.0586,-0.070312 h -2.5664 l -0.35156,2.7421875 c 0.21094,-0.082031 0.55078,-0.1875 0.92578,-0.1875 0.98438,0 1.46485,0.5742187 1.46485,1.359375 0,0.6796875 -0.375,1.33593749 -1.13672,1.33593749 -0.55078,0 -0.91406,-0.29296875 -1.11328,-0.45703125 -0.082,-0.0703125 -0.15235,-0.0585938 -0.23438,0 -0.10547,0.09375 -0.1875,0.2109375 -0.1875,0.29296875 -0.0234,0.10546875 0.0234,0.1875 0.14063,0.3046875 0.1289,0.12890625 0.51562,0.31640625 0.92578,0.31640625 0.48047,-0.01171875 1.07812,-0.24609375 1.57031,-0.6328125 0.55078,-0.45703125 0.79688,-0.96093754 0.79688,-1.51171874 0,-0.7382813 -0.58594,-1.5117188 -1.73438,-1.5117188 -0.24609,0 -0.66797,0.140625 -1.00781,0.2695313 z m 84.65039,3.140625 v -0.46875 h -3.77343 v 0.46875 z m 3.91993,1.8046874875 V -0.24671406 c -0.82032,-0.0585938 -0.87891,-0.12890625 -0.87891,-0.78515624 v -4.6875 c -0.49219,0.1992187 -1.01953,0.375 -1.59375,0.46875 v 0.2109375 l 0.43359,0.011719 c 0.38672,0.023437 0.42188,0.070312 0.42188,0.5390625 V -1.03187 c 0,0.65624999 -0.0352,0.72656249 -0.85547,0.78515624 v 0.2460937475 z m 1.89257,0.1054687525 c 0.28125,0 0.50391,-0.19921875 0.50391,-0.515625 0,-0.29296875 -0.22266,-0.515625 -0.50391,-0.515625 -0.29296,0 -0.5039,0.22265625 -0.5039,0.515625 0,0.31640625 0.21094,0.515625 0.5039,0.515625 z m 3.17871,-5.82421874 c -1.34765,0 -1.83984,1.6054687 -1.83984,2.9179687 0,1.4179688 0.48047,2.90625004 1.83984,2.90625004 1.35938,0 1.82813,-1.59375004 1.82813,-2.91796874 0,-1.3828125 -0.46875,-2.90625 -1.82813,-2.90625 z m 0,0.3046875 c 0.8086,0 1.03125,1.3242187 1.03125,2.6015625 0,1.265625 -0.22265,2.61328124 -1.03125,2.61328124 -0.77343,0 -1.04296,-1.35937504 -1.04296,-2.61328124 0,-1.2539063 0.22265,-2.6015625 1.04296,-2.6015625 z m 71.83594,5.4140624875 V -0.24671406 c -0.82031,-0.0585938 -0.8789,-0.12890625 -0.8789,-0.78515624 v -4.6875 c -0.49219,0.1992187 -1.01954,0.375 -1.59375,0.46875 v 0.2109375 l 0.43359,0.011719 c 0.38672,0.023437 0.42187,0.070312 0.42187,0.5390625 V -1.03187 c 0,0.65624999 -0.0351,0.72656249 -0.85546,0.78515624 v 0.2460937475 z m 1.89258,0.1054687525 c 0.28125,0 0.50391,-0.19921875 0.50391,-0.515625 0,-0.29296875 -0.22266,-0.515625 -0.50391,-0.515625 -0.29297,0 -0.50391,0.22265625 -0.50391,0.515625 0,0.31640625 0.21094,0.515625 0.50391,0.515625 z m 3.17871,-5.82421874 c -1.34765,0 -1.83984,1.6054687 -1.83984,2.9179687 0,1.4179688 0.48047,2.90625004 1.83984,2.90625004 1.35938,0 1.82813,-1.59375004 1.82813,-2.91796874 0,-1.3828125 -0.46875,-2.90625 -1.82813,-2.90625 z m 0,0.3046875 c 0.8086,0 1.03125,1.3242187 1.03125,2.6015625 0,1.265625 -0.22265,2.61328124 -1.03125,2.61328124 -0.77344,0 -1.04297,-1.35937504 -1.04297,-2.61328124 0,-1.2539063 0.22266,-2.6015625 1.04297,-2.6015625 z m -66.08496,3.609375 v -0.46875 h -3.77344 v 0.46875 z m 2.61621,-3.9140625 c -1.34765,0 -1.83984,1.6054687 -1.83984,2.9179687 0,1.4179688 0.48047,2.90625004 1.83984,2.90625004 1.35938,0 1.82813,-1.59375004 1.82813,-2.91796874 0,-1.3828125 -0.46875,-2.90625 -1.82813,-2.90625 z m 0,0.3046875 c 0.8086,0 1.03125,1.3242187 1.03125,2.6015625 0,1.265625 -0.22265,2.61328124 -1.03125,2.61328124 -0.77344,0 -1.04297,-1.35937504 -1.04297,-2.61328124 0,-1.2539063 0.22266,-2.6015625 1.04297,-2.6015625 z m 3.19629,5.51953124 c 0.28125,0 0.50391,-0.19921875 0.50391,-0.515625 0,-0.29296875 -0.22266,-0.515625 -0.50391,-0.515625 -0.29297,0 -0.50391,0.22265625 -0.50391,0.515625 0,0.31640625 0.21094,0.515625 0.50391,0.515625 z m 2.39063,-5.05078124 h 2.09765 l 0.23438,-0.5859375 -0.0586,-0.070312 h -2.5664 l -0.35157,2.7421875 c 0.21094,-0.082031 0.55079,-0.1875 0.92579,-0.1875 0.98437,0 1.46484,0.5742187 1.46484,1.359375 0,0.6796875 -0.375,1.33593749 -1.13672,1.33593749 -0.55078,0 -0.91406,-0.29296875 -1.11328,-0.45703125 -0.082,-0.0703125 -0.15234,-0.0585938 -0.23438,0 -0.10546,0.09375 -0.1875,0.2109375 -0.1875,0.29296875 -0.0234,0.10546875 0.0234,0.1875 0.14063,0.3046875 0.12891,0.12890625 0.51562,0.31640625 0.92578,0.31640625 0.48047,-0.01171875 1.07813,-0.24609375 1.57031,-0.6328125 0.55078,-0.45703125 0.79688,-0.96093754 0.79688,-1.51171874 0,-0.7382813 -0.58594,-1.5117188 -1.73438,-1.5117188 -0.24609,0 -0.66797,0.140625 -1.00781,0.2695313 z m 31.69628,-0.7734375 c -1.34765,0 -1.83984,1.6054687 -1.83984,2.9179687 0,1.4179688 0.48047,2.90625004 1.83984,2.90625004 1.35938,0 1.82813,-1.59375004 1.82813,-2.91796874 0,-1.3828125 -0.46875,-2.90625 -1.82813,-2.90625 z m 0,0.3046875 c 0.8086,0 1.03125,1.3242187 1.03125,2.6015625 0,1.265625 -0.22265,2.61328124 -1.03125,2.61328124 -0.77343,0 -1.04296,-1.35937504 -1.04296,-2.61328124 0,-1.2539063 0.22265,-2.6015625 1.04296,-2.6015625 z m 3.19629,5.51953124 c 0.28125,0 0.50391,-0.19921875 0.50391,-0.515625 0,-0.29296875 -0.22266,-0.515625 -0.50391,-0.515625 -0.29297,0 -0.5039,0.22265625 -0.5039,0.515625 0,0.31640625 0.21093,0.515625 0.5039,0.515625 z m 2.39063,-5.05078124 h 2.09765 l 0.23438,-0.5859375 -0.0586,-0.070312 h -2.56641 l -0.35156,2.7421875 c 0.21093,-0.082031 0.55078,-0.1875 0.92578,-0.1875 0.98437,0 1.46484,0.5742187 1.46484,1.359375 0,0.6796875 -0.375,1.33593749 -1.13672,1.33593749 -0.55078,0 -0.91406,-0.29296875 -1.11328,-0.45703125 -0.082,-0.0703125 -0.15234,-0.0585938 -0.23437,0 -0.10547,0.09375 -0.1875,0.2109375 -0.1875,0.29296875 -0.0234,0.10546875 0.0234,0.1875 0.14062,0.3046875 0.12891,0.12890625 0.51563,0.31640625 0.92578,0.31640625 0.48047,-0.01171875 1.07813,-0.24609375 1.57032,-0.6328125 0.55078,-0.45703125 0.79687,-0.96093754 0.79687,-1.51171874 0,-0.7382813 -0.58594,-1.5117188 -1.73437,-1.5117188 -0.2461,0 -0.66797,0.140625 -1.00782,0.2695313 z m 0,0"
         style="fill:#231f20;fill-opacity:1;fill-rule:nonzero;stroke:none"
         aria-label="–1.01.0–0.50.5&#10;(a)(b)(c)&#10;–1.01.0–0.50.5–1.01.0–0.50.5"
         transform="matrix(1.3333333,0,0,1.3333333,19.469733,119.87973)" />
      <path
         id="path3"
         d="m 24.7617,282.402 h 0.7305 l 0.7226,0.012 1.461,0.02 2.9023,0.054 5.8789,0.117 h 0.3282 l 0.3906,0.012 h 0.7305 l 10.207,0.254 h 0.3711 l 0.414,0.012 0.793,0.023 1.5625,0.032 3.1758,0.128 6.332,0.196 h 0.3594 l 1.1992,0.058 1.5781,0.032 3.1719,0.121 6.3281,0.265 h 0.375 l 1.0938,0.063 1.4805,0.039 2.9726,0.137 5.8906,0.265 0.3672,0.012 1.1016,0.055 4.457,0.246 5.875,0.32 0.711,0.031 0.7343,0.055 1.4297,0.129 2.9333,0.148 5.778,0.375 0.351,0.028 0.375,0.027 0.731,0.047 1.429,0.144 2.895,0.188 5.816,0.476 0.364,0.032 0.414,0.023 0.781,0.063 1.559,0.136 3.152,0.266 6.277,0.578 3.125,0.324 9.43,0.985 0.351,0.054 0.375,0.039 0.723,0.079 1.473,0.191 2.926,0.328 5.867,0.738 0.355,0.063 0.375,0.027 0.75,0.09 1.446,0.242 2.933,0.387 5.863,0.867 0.399,0.078 1.18,0.153 1.574,0.246 3.191,0.527 6.348,1.082 0.375,0.063 0.426,0.054 0.785,0.141 1.578,0.266 3.191,0.601 6.352,1.25 0.773,0.125 0.758,0.149 1.606,0.355 3.089,0.656 6.235,1.379 0.773,0.176 0.778,0.168 1.585,0.391 3.102,0.746 6.246,1.57 0.363,0.094 0.356,0.129 0.711,0.171 1.457,0.364 2.937,0.801 5.805,1.695 0.387,0.086 0.336,0.101 0.726,0.246 1.457,0.411 2.879,0.882 5.863,1.864 1.555,0.535 1.559,0.558 3.183,1.047 6.309,2.258 12.598,5.008 0.379,0.129 0.359,0.164 0.719,0.316 4.461,1.891 5.859,2.652 11.773,5.727 0.371,0.215 0.36,0.175 0.711,0.352 1.433,0.813 2.887,1.519 5.793,3.16 11.524,6.875 0.39,0.258 1.199,0.731 1.559,0.98 3.117,2.031 6.258,4.203 12.559,9.082 0.355,0.305 0.371,0.27 2.184,1.664 2.918,2.336 5.836,4.746 11.679,10.156 0.41,0.379 0.372,0.351 0.835,0.727 1.563,1.488 3.152,2.985 6.368,6.191 12.656,13.238 0.371,0.41 0.39,0.45 0.782,0.84 1.547,1.734 3.14,3.516 6.196,7.269 12.453,15.531 23.172,32.688 25.164,41.527 23.464,45.199 25.457,56.825 24.997,64.66 23.312,69.133 25.262,85.586 0.379,1.328 1.097,4.043 1.465,5.414 2.969,10.937 5.879,22.36 0.39,1.414 0.336,1.437 0.75,2.836 1.465,5.742 2.989,11.637 5.863,23.773 0.387,1.504 0.339,1.477 0.731,2.976 1.43,5.993 2.89,12.089 0.371,1.508 0.34,1.563 0.77,3.051 1.429,6.171 0.36,1.539 0.375,1.543 0.722,3.125 0.328,1.563 0.383,1.539 0.356,1.59 0.363,1.562 0.344,0.762 0.39,-1.555 0.336,-1.601 0.391,-1.539 0.332,-1.563 0.371,-1.539 0.727,-3.125 0.343,-1.543 0.391,-1.543 0.707,-3.101 1.449,-6.137 5.77,-24.078 0.816,-3.227 0.774,-3.207 1.562,-6.343 3.113,-12.575 6.301,-24.519 12.555,-46.758 23.379,-79.27 25.394,-75.211 24.918,-64.082 23.215,-51.89 25.242,-48.586 23.52,-38.887 23.051,-32.722 25.019,-30.168 0.391,-0.379 0.332,-0.407 0.734,-0.8 1.449,-1.579 2.907,-3.132 5.875,-6.016 11.66,-11.359 0.394,-0.356 0.407,-0.383 0.773,-0.722 1.578,-1.453 3.184,-2.836 6.324,-5.481 12.641,-10.219 0.39,-0.265 0.34,-0.27 0.75,-0.562 1.465,-1.141 2.98,-2.172 5.887,-4.238 11.82,-7.891 0.379,-0.218 0.356,-0.231 0.707,-0.453 1.484,-0.894 2.891,-1.793 5.781,-3.43 11.598,-6.375 0.375,-0.203 0.402,-0.176 0.789,-0.426 1.551,-0.797 3.164,-1.574 6.27,-3.055 12.57,-5.593 0.379,-0.129 0.351,-0.145 0.723,-0.332 1.477,-0.617 2.929,-1.137 5.864,-2.32 0.351,-0.117 0.395,-0.153 0.726,-0.238 1.457,-0.539 2.926,-1.101 5.879,-2.032 0.375,-0.121 0.426,-0.117 0.773,-0.254 1.578,-0.543 3.196,-1.043 6.345,-1.93 0.43,-0.136 0.37,-0.11 0.78,-0.238 1.61,-0.476 3.16,-0.872 6.41,-1.753 0.35,-0.102 0.41,-0.086 0.78,-0.195 1.54,-0.403 3.1,-0.789 6.24,-1.488 0.41,-0.09 0.41,-0.062 0.78,-0.219 1.54,-0.328 3.1,-0.68 6.25,-1.312 0.39,-0.063 0.36,-0.078 0.74,-0.148 4.35,-0.875 5.81,-1.036 0.36,-0.066 0.36,-0.055 0.73,-0.117 1.44,-0.277 2.93,-0.512 5.82,-0.918 0.78,-0.113 0.79,-0.121 1.61,-0.27 3.13,-0.422 6.3,-0.902 0.43,-0.059 1.18,-0.168 1.56,-0.183 3.13,-0.41 6.32,-0.743 0.39,-0.062 0.37,-0.031 0.75,-0.067 1.45,-0.168 2.94,-0.332 5.87,-0.597 0.78,-0.067 0.73,-0.078 1.48,-0.144 2.94,-0.247 5.87,-0.531 0.36,-0.035 0.4,-0.023 0.71,-0.063 1.46,-0.152 2.86,-0.203 5.76,-0.41 0.4,-0.071 0.34,-0.012 0.71,-0.062 1.45,-0.086 2.87,-0.195 5.79,-0.371 0.38,-0.032 1.19,-0.058 4.72,-0.262 6.26,-0.355 3.12,-0.145 3.13,-0.148 6.28,-0.243 0.33,-0.023 0.4,-0.012 0.72,-0.027 1.45,-0.098 2.93,-0.105 5.86,-0.188 0.35,-0.023 h 0.39 l 0.72,-0.035 1.46,-0.032 2.92,-0.085 5.87,-0.207 0.37,-0.008 0.43,-0.024 0.82,-0.023 1.6,-0.031 3.28,-0.086 h 0.43 l 0.39,-0.012 0.79,-0.024 1.67,-0.035 3.23,-0.078 h 0.43 l 0.43,-0.012 0.81,-0.015 1.61,-0.012 3.28,-0.078 h 0.37 l 0.43,-0.012 0.82,-0.023 1.65,-0.024 0.38,-0.007 h 0.43 l 0.82,-0.02 h 0.8 l 0.43,-0.012 h 0.38"
         style="fill:none;stroke:#3871c1;stroke-width:7.5;stroke-linecap:square;stroke-linejoin:miter;stroke-miterlimit:3.25;stroke-dasharray:none;stroke-opacity:1"
         transform="matrix(0.13333333,0,0,-0.13333333,0,141.53333)" />
      <path
         id="path4"
         d="m 1521.52,280.461 h 0.74 l 0.72,0.019 1.45,0.012 2.92,0.055 5.86,0.105 h 0.33 l 0.4,0.016 0.73,0.016 1.45,0.015 2.91,0.078 5.84,0.164 0.38,0.02 h 0.41 l 0.79,0.016 1.57,0.031 3.17,0.086 6.33,0.176 0.41,0.023 h 0.37 l 0.78,0.035 1.62,0.027 3.13,0.114 6.33,0.265 h 0.38 l 1.09,0.059 4.45,0.156 5.89,0.239 0.37,0.023 1.1,0.051 4.45,0.258 5.89,0.296 0.7,0.032 0.74,0.043 1.43,0.07 2.93,0.215 5.78,0.324 0.39,0.023 0.33,0.036 0.74,0.031 1.43,0.148 2.88,0.18 5.82,0.402 0.78,0.114 0.79,0.058 1.55,0.117 3.16,0.231 6.27,0.566 6.28,0.606 6.28,0.636 0.35,0.047 0.37,0.043 0.73,0.071 1.48,0.148 2.91,0.348 5.88,0.703 0.35,0.043 0.37,0.047 0.75,0.086 1.45,0.175 2.93,0.391 5.87,0.805 0.38,0.054 0.42,0.047 0.78,0.129 1.57,0.25 3.19,0.453 6.35,1.035 0.41,0.055 0.39,0.067 0.79,0.128 1.61,0.282 3.16,0.535 6.34,1.164 0.81,0.144 0.77,0.141 1.55,0.316 3.11,0.625 6.22,1.313 0.77,0.176 0.83,0.164 1.54,0.344 3.1,0.718 6.24,1.489 0.38,0.089 0.35,0.086 0.71,0.164 1.46,0.391 0.92,0.203 2.02,0.543 5.8,1.551 0.39,0.094 0.34,0.144 2.17,0.574 2.91,0.868 5.83,1.746 0.37,0.101 0.41,0.168 0.78,0.223 1.56,0.519 3.18,1.012 6.31,2.145 12.6,4.683 0.38,0.133 0.35,0.145 0.73,0.3 4.45,1.77 5.86,2.539 11.78,5.426 0.37,0.16 0.36,0.16 0.71,0.379 1.44,0.699 2.91,1.461 5.77,2.992 11.56,6.493 0.35,0.234 0.4,0.203 2.36,1.402 3.15,1.918 6.26,3.985 12.52,8.566 0.35,0.293 0.38,0.242 0.73,0.528 1.45,1.05 2.93,2.164 5.86,4.52 11.64,9.613 0.81,0.672 0.81,0.684 1.56,1.386 3.17,2.817 6.36,5.82 12.65,12.5 0.38,0.426 0.39,0.363 0.77,0.824 1.55,1.645 3.13,3.34 6.21,6.82 12.45,14.684 23.17,30.812 25.2,39.227 23.44,42.617 25.45,53.613 24.99,61.012 23.32,65.273 25.25,80.75 0.38,1.266 0.35,1.277 0.75,2.497 1.47,5.121 2.96,10.328 5.89,21.093 0.39,1.348 0.32,1.348 0.76,2.699 1.47,5.422 2.98,10.937 5.87,22.465 0.39,1.403 0.34,1.402 0.72,2.801 1.44,5.648 2.93,11.445 0.7,2.872 0.73,2.886 1.44,5.801 0.35,1.457 0.38,1.449 0.72,2.961 0.71,2.942 0.36,1.468 0.37,1.477 0.26,0.551 0.45,-1.297 0.35,-1.465 0.39,-1.473 0.38,-1.472 0.33,-1.457 0.73,-2.961 0.37,-1.477 0.35,-1.449 0.71,-2.887 1.46,-5.785 5.79,-22.75 1.57,-6.059 1.57,-6.011 3.14,-11.864 6.26,-23.136 12.55,-44.098 23.43,-74.84 25.35,-70.957 24.91,-60.441 23.26,-48.988 25.2,-45.829 23.52,-36.703 23.09,-30.871 25.02,-28.429 0.36,-0.415 0.33,-0.351 2.22,-2.274 2.9,-2.941 5.84,-5.691 11.63,-10.711 0.46,-0.332 0.37,-0.364 0.82,-0.687 1.57,-1.371 3.14,-2.656 6.37,-5.192 12.64,-9.629 0.35,-0.25 0.34,-0.285 0.79,-0.512 1.46,-1.066 2.95,-2.074 5.89,-3.989 11.86,-7.41 0.33,-0.25 0.36,-0.215 0.75,-0.437 1.45,-0.836 2.89,-1.664 5.78,-3.246 11.55,-6.027 0.45,-0.176 0.37,-0.199 0.82,-0.395 1.55,-0.758 3.13,-1.488 6.31,-2.856 12.58,-5.285 0.33,-0.136 0.35,-0.129 0.76,-0.278 1.48,-0.57 2.93,-1.133 5.82,-2.148 0.79,-0.25 0.69,-0.262 1.45,-0.496 2.92,-1.02 5.85,-1.921 0.45,-0.133 0.38,-0.106 0.82,-0.246 4.74,-1.449 6.39,-1.863 0.38,-0.102 1.19,-0.367 4.74,-1.293 2.96,-0.746 3.44,-0.86 0.35,-0.089 1.19,-0.305 1.55,-0.356 3.09,-0.742 6.27,-1.398 0.38,-0.074 0.38,-0.086 0.81,-0.203 1.54,-0.305 3.1,-0.649 6.28,-1.238 0.36,-0.074 0.33,-0.059 0.77,-0.132 4.35,-0.786 5.81,-1.023 0.33,-0.07 0.43,-0.059 0.69,-0.102 1.46,-0.273 2.88,-0.437 5.89,-0.868 1.57,-0.25 1.57,-0.226 3.13,-0.453 6.34,-0.809 0.38,-0.055 0.37,-0.054 2.39,-0.305 3.13,-0.352 6.35,-0.703 0.35,-0.043 0.33,-0.047 0.78,-0.07 1.47,-0.187 2.94,-0.278 5.86,-0.586 0.43,-0.035 0.36,-0.023 0.68,-0.063 4.49,-0.418 5.87,-0.453 0.34,-0.027 0.35,-0.016 0.75,-0.058 1.45,-0.141 2.88,-0.223 5.75,-0.422 0.36,-0.015 0.42,-0.02 0.68,-0.054 4.31,-0.262 5.76,-0.363 0.45,-0.028 1.18,-0.058 1.56,-0.09 3.13,-0.153 6.3,-0.343 1.55,-0.074 1.56,-0.043 3.11,-0.149 6.3,-0.246 h 0.35 l 0.35,-0.016 0.76,-0.031 1.45,-0.058 2.93,-0.125 5.83,-0.192 h 0.34 l 0.43,-0.015 0.68,-0.02 1.46,-0.055 2.93,-0.07 5.83,-0.16 0.45,-0.016 h 0.39 l 0.85,-0.015 1.61,-0.098 3.24,-0.063 h 0.39 l 0.47,-0.023 0.75,-0.016 1.62,-0.031 3.3,-0.062 0.4,-0.016 h 0.39 l 0.85,-0.016 1.62,-0.043 3.3,-0.043 0.39,-0.019 h 0.39 l 0.85,-0.024 1.61,-0.015 0.39,-0.016 h 0.39 l 0.85,-0.012 h 0.37 l 0.47,-0.019 h 0.77"
         style="fill:none;stroke:#3871c1;stroke-width:7.5;stroke-linecap:square;stroke-linejoin:miter;stroke-miterlimit:3.25;stroke-dasharray:none;stroke-opacity:1"
         transform="matrix(0.13333333,0,0,-0.13333333,0,141.53333)" />
      <path
         id="path5"
         d="m 1521.52,589.711 h 0.74 l 0.39,0.019 h 0.33 l 0.39,0.016 h 0.34 l 0.39,0.016 0.33,0.011 0.39,0.028 0.34,0.019 0.39,0.028 0.34,0.015 0.39,0.043 0.33,0.032 0.74,0.058 0.38,0.043 0.4,0.043 0.72,0.129 0.34,0.027 0.39,0.059 0.73,0.101 0.33,0.063 0.39,0.062 0.73,0.129 1.45,0.305 0.33,0.066 0.4,0.067 0.73,0.176 1.45,0.375 0.37,0.089 0.36,0.102 0.72,0.199 1.46,0.457 0.37,0.114 0.35,0.109 0.73,0.258 1.49,0.5 2.9,1.164 0.79,0.324 0.79,0.375 1.57,0.746 3.17,1.594 0.39,0.242 0.41,0.199 0.78,0.457 1.58,0.907 3.17,1.984 0.78,0.535 0.78,0.52 1.62,1.113 3.13,2.344 6.33,5.25 0.38,0.304 1.09,1.036 1.47,1.375 2.98,2.863 5.89,6.222 0.37,0.422 0.36,0.399 0.74,0.828 1.51,1.719 2.94,3.507 5.89,7.563 0.7,0.953 0.74,0.996 1.43,1.961 2.93,4.102 5.78,8.707 0.39,0.582 0.33,0.531 0.74,1.152 1.43,2.305 2.88,4.77 5.82,10.019 0.37,0.711 0.41,0.684 0.79,1.418 1.55,2.878 3.16,5.883 6.27,12.41 12.56,27.278 0.35,0.828 0.37,0.836 0.73,1.719 1.48,3.441 2.91,7.004 5.88,14.574 11.72,31.363 0.38,1.133 0.42,1.078 0.78,2.25 1.57,4.563 3.19,9.238 6.35,19.184 12.7,41.133 0.81,2.66 0.77,2.675 1.55,5.375 3.11,10.887 6.22,22.571 0.77,2.875 0.83,2.882 1.54,5.875 3.1,11.86 0.41,1.508 0.37,1.492 0.81,3.047 1.55,6.058 3.1,12.363 0.38,1.457 0.35,1.45 0.71,2.965 0.39,1.468 0.33,1.473 0.74,2.941 0.38,1.493 0.15,0.632"
         style="fill:none;stroke:#da1259;stroke-width:7.5;stroke-linecap:square;stroke-linejoin:miter;stroke-miterlimit:3.25;stroke-dasharray:none;stroke-opacity:1"
         transform="matrix(0.13333333,0,0,-0.13333333,0,141.53333)" />
      <path
         id="path6"
         d="m 1720.02,969.152 0.92,-3.664 0.73,-2.945 0.34,-1.492 0.39,-1.477 0.73,-2.898 1.43,-5.801 2.91,-11.473 0.39,-1.418 0.34,-1.421 0.72,-2.813 1.45,-5.59 2.91,-11.027 5.83,-21.434 0.37,-1.437 0.41,-1.403 0.78,-2.839 1.56,-5.602 3.18,-11.023 6.31,-21.368 12.6,-39.894 0.38,-1.113 0.35,-1.118 0.73,-2.203 1.49,-4.359 2.96,-8.578 5.86,-16.594 11.78,-30.941 0.37,-0.887 0.36,-0.926 0.71,-1.75 1.44,-3.547 2.91,-6.933 5.77,-13.348 0.34,-0.856 0.38,-0.8 0.72,-1.586 1.43,-3.199 2.89,-6.254 5.8,-11.95 0.35,-0.8 0.4,-0.778 0.8,-1.582 1.56,-3.066 3.15,-6.035 6.26,-11.41 0.36,-0.676 0.43,-0.692 0.76,-1.367 1.55,-2.695 3.16,-5.25 6.26,-9.871 0.35,-0.555 0.38,-0.527 2.18,-3.266 2.93,-4.18 5.86,-7.855 0.33,-0.484 0.4,-0.473 0.72,-0.93 1.46,-1.836 2.91,-3.527 5.82,-6.559 0.42,-0.449 0.39,-0.426 0.81,-0.816 1.56,-1.606 3.17,-3.148 0.81,-0.746 0.79,-0.719 1.57,-1.441 3.19,-2.742 0.36,-0.309 0.41,-0.348 0.8,-0.64 1.56,-1.219 3.2,-2.391 0.77,-0.578 0.81,-0.511 1.55,-1.083 3.19,-2 0.38,-0.214 0.39,-0.266 0.77,-0.426 1.55,-0.847 0.4,-0.239 0.41,-0.207 0.76,-0.41 1.91,-0.961 0.42,-0.176 0.78,-0.367 1.54,-0.695 3.12,-1.258 0.37,-0.144 0.4,-0.118 0.79,-0.265 1.55,-0.535 0.4,-0.102 0.35,-0.125 0.83,-0.258 1.53,-0.398 0.79,-0.215 0.76,-0.18 0.77,-0.176 0.79,-0.14 0.39,-0.125 0.37,-0.074 0.82,-0.118 0.37,-0.074 0.39,-0.062 0.78,-0.117 0.34,-0.059 0.39,-0.027 0.72,-0.129 0.34,-0.035 0.37,-0.051 0.73,-0.074 0.37,-0.016 0.72,-0.074 0.36,-0.012 0.37,-0.016 0.36,-0.019 0.71,-0.039 0.39,-0.016 0.33,-0.016 h 0.38 l 0.35,-0.019 h 1.83 l 0.33,0.019 h 0.39 l 0.71,0.032 0.35,0.011 0.38,0.028 0.4,0.019 0.7,0.028 0.36,0.039 0.37,0.035 0.35,0.016 0.37,0.039 0.73,0.062 0.34,0.059 0.39,0.07 0.7,0.086 0.36,0.059 0.37,0.054 0.74,0.113 0.33,0.067 0.39,0.051 0.73,0.125 1.43,0.324 0.39,0.086 0.34,0.066 0.73,0.18 1.43,0.391 0.41,0.105 0.37,0.09 0.83,0.223 1.57,0.503 0.37,0.122 0.4,0.179 0.78,0.238 2.35,0.895 2.37,1.031 3.14,1.469 1.6,0.813 1.56,0.855 3.12,1.855 0.81,0.504 0.79,0.477 1.55,1.051 3.18,2.215 0.33,0.246 0.39,0.3 0.73,0.547 1.47,1.117 2.92,2.415 5.85,5.25 0.39,0.347 0.38,0.34 0.75,0.711 1.45,1.449 2.93,3.055 5.85,6.531 0.42,0.488 0.41,0.481 0.8,0.941 1.58,1.934 3.19,4.023 6.35,8.594 0.38,0.57 0.41,0.567 0.78,1.121 1.59,2.355 3.19,4.782 6.35,10.148 0.79,1.313 0.78,1.332 1.57,2.652 3.11,5.504 6.26,11.504 12.48,25.457 0.39,0.797 0.33,0.781 0.74,1.617 1.45,3.207 2.94,6.598 5.81,13.644 11.66,29.563 0.38,1.066 0.41,1.043 0.78,2.11 1.56,4.285 3.17,8.746 6.33,18.14 12.62,38.969 0.38,1.211 0.35,1.199 0.75,2.395 1.47,4.844 2.96,9.82 5.89,20.336 0.39,1.301 0.32,1.265 0.76,2.61 1.47,5.289 2.98,10.648 5.87,22.008 0.39,1.367 0.34,1.383 0.72,2.762 1.44,5.586 2.93,11.293 0.34,1.421 0.36,1.43 0.73,2.914 1.44,5.758 0.35,1.457 0.38,1.453 0.72,2.926 0.33,1.457 0.38,1.508 0.36,1.469 0.26,1.007"
         style="fill:none;stroke:#da1259;stroke-width:7.5;stroke-linecap:square;stroke-linejoin:miter;stroke-miterlimit:3.25;stroke-dasharray:none;stroke-opacity:1"
         transform="matrix(0.13333333,0,0,-0.13333333,0,141.53333)" />
      <path
         id="path7"
         d="m 2116.25,969.152 0.8,-3.257 0.38,-1.457 0.33,-1.477 0.73,-2.898 0.37,-1.458 0.35,-1.453 0.71,-2.89 1.46,-5.782 5.79,-22.464 0.78,-2.977 0.79,-3 1.57,-5.863 3.14,-11.617 6.26,-22.461 12.55,-42.129 0.34,-1.192 0.38,-1.129 0.74,-2.363 1.45,-4.59 2.93,-9.129 5.85,-17.609 11.74,-32.871 0.77,-2.16 0.8,-2.098 1.58,-4.183 3.16,-8.141 6.36,-15.703 0.77,-1.914 0.82,-1.86 1.57,-3.765 3.17,-7.297 6.35,-14.035 0.39,-0.828 0.41,-0.817 0.74,-1.644 1.58,-3.27 3.13,-6.355 6.22,-12.168 0.38,-0.735 0.4,-0.722 0.75,-1.45 1.57,-2.855 3.15,-5.606 6.19,-10.582 0.36,-0.585 0.4,-0.606 0.7,-1.187 1.44,-2.305 2.9,-4.539 5.79,-8.528 0.43,-0.515 0.35,-0.528 0.68,-0.996 1.51,-1.984 2.9,-3.844 5.8,-7.273 0.75,-0.918 0.81,-0.945 1.58,-1.79 3.12,-3.476 0.81,-0.82 0.76,-0.871 1.65,-1.59 3.11,-3.082 0.37,-0.391 0.39,-0.352 0.83,-0.785 1.55,-1.418 3.13,-2.754 6.34,-4.886 0.33,-0.254 0.35,-0.246 0.77,-0.524 1.48,-1.035 2.92,-1.844 0.78,-0.461 0.68,-0.464 1.49,-0.836 2.91,-1.532 0.79,-0.39 0.77,-0.336 1.47,-0.695 0.33,-0.141 0.36,-0.199 0.76,-0.293 1.47,-0.625 0.35,-0.117 0.33,-0.149 0.79,-0.309 1.46,-0.488 0.35,-0.164 0.35,-0.101 0.77,-0.239 1.46,-0.457 0.35,-0.113 0.33,-0.086 0.76,-0.176 1.44,-0.39 0.34,-0.067 0.41,-0.086 0.68,-0.14 1.45,-0.321 0.33,-0.054 0.43,-0.075 0.66,-0.109 0.35,-0.047 0.41,-0.054 0.69,-0.086 0.35,-0.059 0.41,-0.07 0.33,-0.059 0.35,-0.027 0.75,-0.074 0.69,-0.051 0.41,-0.039 0.34,-0.012 0.35,-0.016 1.09,-0.058 0.35,-0.016 0.33,-0.016 h 0.41 l 0.36,-0.019 h 1.77 l 0.33,0.019 h 0.43 l 0.68,0.032 h 0.34 l 0.43,0.011 0.33,0.047 0.33,0.016 0.35,0.012 0.42,0.039 0.33,0.019 0.34,0.032 0.42,0.039 0.68,0.062 0.76,0.129 0.37,0.059 0.37,0.027 0.8,0.133 0.76,0.105 2.36,0.465 1.57,0.332 0.36,0.09 0.43,0.105 0.74,0.231 1.57,0.41 0.45,0.16 0.37,0.102 0.73,0.234 1.63,0.547 0.36,0.125 1.19,0.461 1.57,0.617 0.37,0.16 0.37,0.149 0.79,0.371 1.57,0.707 0.37,0.16 0.44,0.176 0.74,0.406 1.57,0.805 3.17,1.695 0.36,0.254 0.33,0.195 0.77,0.457 1.45,0.899 2.9,1.937 0.35,0.25 0.33,0.223 0.79,0.539 1.46,1.074 2.91,2.262 0.33,0.269 0.43,0.317 0.69,0.597 1.45,1.184 2.91,2.598 5.82,5.582 0.46,0.426 1.19,1.238 1.57,1.652 3.14,3.488 6.37,7.555 1.56,2.024 1.58,2.054 3.14,4.239 6.36,9.097 0.35,0.547 0.34,0.57 0.79,1.094 1.46,2.27 2.95,4.683 5.89,9.86 0.35,0.632 0.43,0.661 0.68,1.293 1.48,2.628 2.96,5.372 5.96,11.257 0.33,0.707 0.36,0.711 0.75,1.434 1.45,2.906 2.89,5.981 5.78,12.41 11.55,26.929 0.82,1.918 0.82,1.934 1.55,3.934 3.13,7.992 6.31,16.644 12.58,35.95 0.33,1.117 0.35,1.074 0.76,2.262 1.48,4.445 2.93,9.094 5.82,18.781 0.79,2.41 0.69,2.406 1.45,4.879 2.92,9.868 5.85,20.429 0.45,1.422 0.38,1.422 0.82,2.836 1.59,5.723 3.15,11.648 0.38,1.473 0.45,1.472 0.74,3 1.59,5.953 3.23,12.188 0.38,1.523 0.37,1.543 0.82,3.102 1.58,6.238 0.38,1.559 0.45,1.562 0.74,3.172 1.59,6.367 0.46,1.578 0.37,1.633 0.37,1.614 0.37,1.593 0.47,1.629 0.36,1.617 0.17,0.793"
         style="fill:none;stroke:#da1259;stroke-width:7.5;stroke-linecap:square;stroke-linejoin:miter;stroke-miterlimit:3.25;stroke-dasharray:none;stroke-opacity:1"
         transform="matrix(0.13333333,0,0,-0.13333333,0,141.53333)" />
      <path
         id="path8"
         d="m 2512.5,969.152 0.59,-2.586 0.84,-3.211 1.58,-6.39 0.35,-1.606 0.37,-1.558 0.82,-3.082 1.55,-6.172 3.09,-12.184 6.27,-23.558 12.49,-44.317 0.36,-1.234 0.33,-1.207 0.77,-2.465 1.44,-4.875 2.91,-9.594 5.81,-18.582 11.68,-34.836 1.57,-4.468 1.57,-4.454 3.13,-8.687 6.34,-16.738 12.62,-30.903 0.35,-0.855 0.33,-0.824 0.78,-1.723 1.47,-3.336 2.94,-6.539 5.86,-12.539 0.79,-1.524 0.68,-1.527 1.48,-2.976 3.01,-5.813 5.87,-11.137 0.34,-0.675 0.35,-0.653 0.75,-1.308 1.45,-2.594 2.88,-5.039 5.75,-9.574 0.36,-0.582 0.42,-0.59 0.68,-1.11 1.44,-2.254 2.87,-4.394 5.76,-8.305 0.45,-0.551 0.36,-0.492 0.82,-1.086 1.56,-2.09 3.13,-4.042 6.3,-7.477 0.73,-0.93 2.38,-2.59 3.11,-3.269 6.3,-6.055 0.35,-0.293 0.35,-0.359 2.21,-1.91 2.93,-2.399 0.33,-0.301 0.35,-0.281 0.77,-0.566 1.46,-1.082 2.92,-2.09 0.34,-0.285 0.43,-0.235 0.68,-0.496 1.46,-0.933 2.93,-1.793 0.33,-0.196 0.43,-0.203 0.68,-0.422 1.47,-0.8 2.92,-1.446 0.45,-0.175 1.24,-0.571 1.61,-0.715 0.39,-0.199 0.38,-0.133 0.86,-0.32 1.61,-0.601 0.39,-0.145 0.47,-0.156 0.75,-0.266 1.62,-0.519 0.46,-0.11 1.24,-0.312 1.6,-0.43 1.64,-0.352 0.38,-0.113 0.45,-0.062 0.79,-0.157 0.39,-0.058 0.46,-0.078 0.76,-0.117 0.85,-0.102 0.84,-0.129 0.39,-0.059 2.01,-0.175 0.45,-0.012 0.39,-0.035 1.63,-0.071 h 0.37 l 0.47,-0.019 h 0.77"
         style="fill:none;stroke:#da1259;stroke-width:7.5;stroke-linecap:square;stroke-linejoin:miter;stroke-miterlimit:3.25;stroke-dasharray:none;stroke-opacity:1"
         transform="matrix(0.13333333,0,0,-0.13333333,0,141.53333)" />
      <path
         id="path9"
         d="m 1917.36,279.824 h 0.39 v 15"
         style="fill:none;stroke:#3871c1;stroke-width:5;stroke-linecap:butt;stroke-linejoin:miter;stroke-miterlimit:3.25;stroke-dasharray:none;stroke-opacity:1"
         transform="matrix(0.13333333,0,0,-0.13333333,0,141.53333)" />
      <path
         id="path10"
         d="m 1917.75,314.836 0.1,590.238"
         style="fill:none;stroke:#3871c1;stroke-width:5;stroke-linecap:butt;stroke-linejoin:miter;stroke-miterlimit:3.25;stroke-dasharray:30.0123, 20.0082;stroke-dashoffset:0;stroke-opacity:1"
         transform="matrix(0.13333333,0,0,-0.13333333,0,141.53333)" />
      <path
         id="path11"
         d="m 1917.86,915.078 v 15 h 15"
         style="fill:none;stroke:#3871c1;stroke-width:5;stroke-linecap:butt;stroke-linejoin:miter;stroke-miterlimit:3.25;stroke-dasharray:none;stroke-opacity:1"
         transform="matrix(0.13333333,0,0,-0.13333333,0,141.53333)" />
      <path
         id="path12"
         d="m 1952.65,930.078 h 336.39"
         style="fill:none;stroke:#3871c1;stroke-width:5;stroke-linecap:butt;stroke-linejoin:miter;stroke-miterlimit:3.25;stroke-dasharray:29.6817, 19.7878;stroke-dashoffset:0;stroke-opacity:1"
         transform="matrix(0.13333333,0,0,-0.13333333,0,141.53333)" />
      <path
         id="path13"
         d="m 2298.93,930.078 h 15 v -15"
         style="fill:none;stroke:#3871c1;stroke-width:5;stroke-linecap:butt;stroke-linejoin:miter;stroke-miterlimit:3.25;stroke-dasharray:none;stroke-opacity:1"
         transform="matrix(0.13333333,0,0,-0.13333333,0,141.53333)" />
      <path
         id="path14"
         d="m 2313.94,895.066 0.18,-590.238"
         style="fill:none;stroke:#3871c1;stroke-width:5;stroke-linecap:butt;stroke-linejoin:miter;stroke-miterlimit:3.25;stroke-dasharray:30.0123, 20.0082;stroke-dashoffset:0;stroke-opacity:1"
         transform="matrix(0.13333333,0,0,-0.13333333,0,141.53333)" />
      <path
         id="path15"
         d="m 2314.13,294.824 v -15 h 0.26"
         style="fill:none;stroke:#3871c1;stroke-width:5;stroke-linecap:butt;stroke-linejoin:miter;stroke-miterlimit:3.25;stroke-dasharray:none;stroke-opacity:1"
         transform="matrix(0.13333333,0,0,-0.13333333,0,141.53333)" />
      <path
         id="path16"
         d="m 3021.05,280.461 h 0.69 l 0.76,0.019 1.46,0.012 2.9,0.055 5.84,0.121 h 0.76 l 5.06,0.125 5.8,0.168 0.82,0.031 0.84,0.016 1.56,0.043 3.14,0.086 6.37,0.176 0.73,0.031 0.83,0.011 1.57,0.063 3.14,0.102 6.36,0.273 0.34,0.016 1.13,0.05 1.47,0.051 2.96,0.125 5.87,0.305 0.34,0.019 0.43,0.016 0.7,0.012 1.47,0.093 2.94,0.149 5.97,0.305 0.67,0.086 0.76,0.027 1.44,0.09 2.9,0.16 5.78,0.402 0.35,0.016 0.41,0.047 0.68,0.043 1.43,0.086 2.9,0.207 5.78,0.476 0.44,0.02 1.19,0.101 4.68,0.407 6.24,0.546 1.63,0.188 1.57,0.16 3.12,0.293 6.24,0.691 0.43,0.036 0.34,0.031 0.75,0.125 1.48,0.164 2.92,0.324 5.83,0.742 0.35,0.032 0.34,0.058 0.79,0.125 1.45,0.192 2.92,0.371 5.84,0.883 0.47,0.058 0.36,0.055 0.83,0.121 1.57,0.23 3.15,0.52 6.39,1.074 0.37,0.07 0.38,0.059 0.83,0.137 1.56,0.265 3.16,0.59 6.39,1.246 0.75,0.133 0.79,0.199 1.55,0.301 3.11,0.66 6.26,1.371 0.37,0.075 1.2,0.269 1.54,0.375 3.1,0.742 6.29,1.578 0.32,0.086 0.35,0.129 0.75,0.176 4.37,1.191 5.78,1.625 0.36,0.102 0.42,0.113 0.69,0.235 1.45,0.425 2.88,0.864 5.82,1.867 3.19,1.062 3.14,1.067 6.36,2.25 12.6,4.965 0.34,0.152 0.36,0.145 0.75,0.281 4.42,1.922 5.86,2.64 11.82,5.707 0.33,0.219 0.36,0.176 0.73,0.348 1.46,0.746 2.87,1.554 5.76,3.141 11.53,6.84 0.43,0.242 1.12,0.727 1.64,1.003 3.11,2.028 6.21,4.183 12.52,9.024 0.43,0.262 0.35,0.3 2.13,1.664 3,2.297 5.84,4.731 11.63,10.144 0.45,0.356 0.37,0.375 0.77,0.699 1.64,1.473 3.15,2.964 6.3,6.157 12.69,13.175 0.4,0.434 0.36,0.41 0.82,0.887 1.55,1.707 3.09,3.488 6.17,7.246 12.44,15.438 23.22,32.531 25.16,41.305 23.46,44.984 25.51,56.563 24.97,64.339 23.24,68.778 25.35,85.176 0.34,1.332 0.35,1.293 0.78,2.671 1.48,5.391 2.92,10.891 5.88,22.254 0.36,1.422 0.41,1.41 0.7,2.84 1.47,5.71 2.95,11.579 5.94,23.652 0.35,1.469 0.33,1.468 0.78,2.997 1.43,5.925 2.89,12.075 0.67,3.011 0.77,3.055 1.44,6.133 0.35,1.527 0.34,1.574 0.76,3.063 0.33,1.543 0.34,1.597 0.43,1.547 0.33,1.539 0.28,0.59 0.41,-1.367 0.42,-1.547 0.35,-1.598 0.74,-3.082 0.68,-3.07 0.36,-1.574 0.43,-1.524 0.66,-3.046 1.44,-6.118 5.77,-23.992 0.45,-1.578 0.38,-1.598 0.74,-3.191 1.64,-6.324 3.1,-12.5 6.23,-24.418 12.55,-46.488 23.42,-78.899 25.43,-74.855 24.92,-63.746 23.18,-51.602 25.19,-48.359 23.54,-38.707 23.08,-32.571 25.02,-29.976 0.35,-0.43 0.41,-0.367 0.69,-0.82 1.46,-1.579 2.9,-3.086 5.92,-6.023 11.61,-11.266 0.39,-0.39 0.45,-0.352 0.75,-0.703 1.57,-1.445 3.21,-2.828 6.3,-5.465 12.64,-10.16 0.4,-0.262 0.37,-0.305 0.7,-0.566 1.47,-1.082 3,-2.176 5.91,-4.203 11.78,-7.875 0.41,-0.223 0.35,-0.203 0.68,-0.476 1.45,-0.895 2.89,-1.769 5.85,-3.422 11.56,-6.332 1.56,-0.817 1.57,-0.793 3.2,-1.597 6.23,-2.993 12.57,-5.574 0.34,-0.137 0.43,-0.14 0.68,-0.32 1.47,-0.614 2.92,-1.136 5.92,-2.297 0.35,-0.141 0.35,-0.121 0.78,-0.266 1.44,-0.531 2.94,-1.082 5.84,-2.023 0.38,-0.122 0.46,-0.128 0.73,-0.262 1.58,-0.516 3.23,-1.043 6.3,-1.918 0.4,-0.14 0.45,-0.129 0.73,-0.211 1.58,-0.477 3.23,-0.894 6.34,-1.735 0.43,-0.086 0.37,-0.101 0.74,-0.176 1.62,-0.437 3.1,-0.762 6.2,-1.473 0.81,-0.176 0.75,-0.152 1.61,-0.371 3.11,-0.699 6.21,-1.289 0.43,-0.067 0.32,-0.074 0.69,-0.144 4.45,-0.836 5.78,-1.059 0.34,-0.078 0.36,-0.047 2.21,-0.41 2.89,-0.461 5.82,-0.965 0.82,-0.101 0.74,-0.118 1.58,-0.218 3.21,-0.481 6.27,-0.863 0.44,-0.035 1.12,-0.196 1.64,-0.195 3.13,-0.414 6.27,-0.746 0.44,-0.031 0.33,-0.059 0.71,-0.062 1.44,-0.157 3.03,-0.347 5.87,-0.555 0.7,-0.113 0.76,-0.075 1.49,-0.121 2.93,-0.261 5.88,-0.516 0.41,-0.039 0.35,-0.016 0.67,-0.07 1.44,-0.102 2.89,-0.25 5.83,-0.41 0.35,-0.035 0.34,-0.023 0.76,-0.043 1.45,-0.129 2.87,-0.195 5.75,-0.333 0.38,-0.019 0.44,-0.039 0.74,-0.027 4.76,-0.305 6.22,-0.313 3.11,-0.172 3.19,-0.144 6.23,-0.266 0.34,-0.011 h 0.43 l 0.69,-0.036 1.45,-0.054 2.92,-0.137 5.91,-0.199 0.35,-0.028 0.35,-0.011 2.22,-0.051 2.92,-0.086 5.83,-0.176 h 0.36 l 0.48,-0.023 0.78,-0.016 1.6,-0.031 3.32,-0.125 h 0.38 l 0.4,-0.02 0.83,-0.023 1.63,-0.031 3.23,-0.078 h 0.47 l 0.39,-0.016 0.85,-0.016 1.62,-0.015 3.23,-0.071 h 0.37 l 0.46,-0.019 0.78,-0.024 1.62,-0.015 0.46,-0.016 h 0.38 l 0.87,-0.012 h 0.36 l 0.4,-0.019 h 0.85"
         style="fill:none;stroke:#3871c1;stroke-width:7.5;stroke-linecap:square;stroke-linejoin:miter;stroke-miterlimit:3.25;stroke-dasharray:none;stroke-opacity:1"
         transform="matrix(0.13333333,0,0,-0.13333333,0,141.53333)" />
      <path
         id="path17"
         d="m 3021.05,363.152 0.35,-0.07 0.34,-0.074 0.76,-0.16 1.46,-0.332 2.9,-0.661 5.84,-1.281 11.62,-2.453 25.36,-4.992 23.62,-4.109 0.67,-0.102 0.76,-0.145 1.44,-0.214 2.9,-0.477 5.78,-0.855 0.35,-0.043 0.41,-0.059 0.68,-0.09 1.43,-0.195 2.9,-0.422 5.78,-0.781 0.44,-0.051 0.37,-0.039 0.82,-0.102 1.56,-0.218 3.12,-0.368 6.24,-0.726 0.46,-0.035 0.36,-0.055 0.81,-0.113 4.69,-0.473 6.24,-0.609 0.43,-0.032 0.34,-0.011 0.75,-0.075 1.48,-0.164 2.92,-0.211 0.35,-0.031 0.35,-0.043 2.21,-0.152 2.92,-0.242 0.35,-0.016 0.34,-0.016 0.79,-0.058 1.45,-0.086 2.92,-0.152 0.34,-0.028 0.43,-0.027 0.69,-0.035 1.47,-0.067 2.91,-0.132 0.47,-0.016 1.19,-0.086 1.57,-0.055 0.39,-0.015 0.36,-0.02 0.82,-0.023 1.58,-0.043 0.39,-0.02 h 0.44 l 0.75,-0.039 h 0.37 l 0.46,-0.015 0.75,-0.016 h 0.45 l 0.38,-0.02 0.74,-0.023 h 0.45 l 0.38,-0.016 h 0.83 l 0.37,-0.011 h 0.75 l 0.46,-0.016 h 1.56 l 0.39,-0.02 h 6.75 l 0.39,0.02 h 1.18 l 0.84,0.016 h 0.75 l 0.79,0.011 0.37,0.016 h 0.38 l 0.8,0.023 h 0.37 l 0.44,0.02 2.3,0.047 0.37,0.023 0.45,0.02 0.72,0.011 1.54,0.055 1.64,0.067 1.54,0.054 1.57,0.114 1.54,0.089 0.8,0.028 0.76,0.058 1.54,0.09 0.42,0.016 0.39,0.027 0.72,0.059 1.56,0.101 3.2,0.282 0.32,0.027 0.35,0.015 0.75,0.075 1.46,0.125 2.91,0.261 0.34,0.075 0.35,0.031 0.75,0.074 1.45,0.145 2.89,0.308 0.36,0.059 0.42,0.062 2.14,0.27 2.88,0.379 5.82,0.906 0.82,0.102 0.81,0.125 1.56,0.269 3.14,0.543 6.36,1.25 0.37,0.086 0.36,0.063 2.38,0.523 3.14,0.699 6.35,1.547 0.34,0.09 0.36,0.125 0.75,0.183 1.46,0.364 2.96,0.855 5.86,1.696 0.35,0.128 0.42,0.11 0.71,0.246 1.44,0.437 2.96,1.004 5.94,2.059 0.33,0.117 0.36,0.125 0.73,0.277 1.46,0.516 2.87,1.121 5.76,2.32 0.68,0.325 0.78,0.3 1.42,0.618 2.88,1.297 5.77,2.679 0.43,0.196 1.12,0.566 1.64,0.777 3.11,1.578 6.21,3.356 0.45,0.203 0.38,0.238 0.74,0.414 1.61,0.918 3.12,1.801 6.22,3.832 0.43,0.215 0.35,0.223 2.13,1.402 3,1.937 5.84,4.032 11.63,8.718 0.82,0.641 0.77,0.602 1.64,1.273 3.15,2.606 6.3,5.441 12.69,11.785 3.13,3.094 3.09,3.191 6.17,6.575 12.44,14.238 0.43,0.449 0.34,0.402 0.69,0.871 1.51,1.79 2.89,3.601 5.81,7.445 11.55,15.871 0.81,1.098 0.76,1.152 1.56,2.27 3.2,4.656 6.25,9.625 12.58,20.543 23.46,43.344 25.51,55.113 24.97,63.207 23.24,67.992 25.35,84.598 0.34,1.32 1.13,3.957 1.48,5.352 2.92,10.859 5.88,22.2 0.36,1.398 0.41,1.418 0.7,2.813 1.47,5.699 2.95,11.558 5.94,23.618 0.35,1.468 0.33,1.469 0.78,2.949 1.43,5.973 2.89,12 0.33,1.562 0.34,1.504 0.77,3.035 1.44,6.137 0.35,1.52 0.34,1.547 0.76,3.125 0.67,3.082 0.43,1.574 0.24,1.062"
         style="fill:none;stroke:#da1259;stroke-width:7.5;stroke-linecap:square;stroke-linejoin:miter;stroke-miterlimit:3.25;stroke-dasharray:none;stroke-opacity:1"
         transform="matrix(0.13333333,0,0,-0.13333333,0,141.53333)" />
      <path
         id="path18"
         d="m 3615.71,969.152 0.83,-3.418 0.34,-1.562 0.4,-1.524 0.68,-3.121 0.36,-1.527 0.43,-1.539 0.66,-3.086 1.44,-6.062 5.77,-23.973 0.45,-1.59 1.12,-4.773 1.64,-6.313 3.1,-12.484 6.23,-24.336 12.55,-46.332 23.42,-78.371 25.43,-73.989 24.92,-62.589 23.18,-50.336 25.19,-46.59 23.54,-36.828 0.75,-1.075 0.67,-1.004 1.53,-2.035 2.87,-4.027 5.75,-7.773 11.51,-14.575 0.37,-0.492 0.45,-0.453 0.72,-0.957 1.56,-1.832 3.21,-3.688 6.19,-7.015 12.52,-13.07 0.35,-0.34 1.1,-1.098 1.46,-1.426 2.9,-2.773 5.92,-5.379 11.61,-9.942 0.39,-0.304 1.2,-0.973 1.57,-1.258 3.21,-2.437 6.3,-4.707 1.55,-1.137 1.59,-1.101 3.22,-2.157 6.28,-4.16 0.4,-0.258 0.37,-0.234 0.7,-0.465 1.47,-0.922 3,-1.808 5.91,-3.442 0.71,-0.383 0.77,-0.421 1.45,-0.801 2.97,-1.578 5.88,-3.016 0.41,-0.211 0.35,-0.156 0.68,-0.375 1.45,-0.715 2.89,-1.316 5.85,-2.614 0.34,-0.148 0.35,-0.168 0.76,-0.309 1.44,-0.601 2.89,-1.207 5.78,-2.235 1.56,-0.597 1.57,-0.567 3.2,-1.082 6.23,-2.07 0.37,-0.133 0.45,-0.141 2.3,-0.734 3.21,-0.891 6.24,-1.71 0.34,-0.125 0.43,-0.106 0.68,-0.176 1.47,-0.375 2.92,-0.703 5.92,-1.301 0.7,-0.168 2.22,-0.429 2.94,-0.582 5.84,-1.094 0.38,-0.043 0.46,-0.074 0.73,-0.121 1.58,-0.246 3.23,-0.493 0.39,-0.058 1.18,-0.16 1.59,-0.246 3.14,-0.399 0.4,-0.031 0.45,-0.063 0.73,-0.121 1.58,-0.176 3.23,-0.328 0.39,-0.039 0.38,-0.066 0.81,-0.09 1.57,-0.145 3.19,-0.265 0.43,-0.027 0.37,-0.051 0.74,-0.043 1.62,-0.172 0.36,-0.016 0.36,-0.027 0.84,-0.059 1.54,-0.09 0.36,-0.027 0.38,-0.019 0.82,-0.055 1.54,-0.086 1.55,-0.074 1.55,-0.09 1.56,-0.109 1.61,-0.047 0.75,-0.043 0.81,-0.016 1.55,-0.047 0.37,-0.023 h 0.37 l 0.82,-0.031 h 0.38 l 0.43,-0.016 0.72,-0.02 h 0.37 l 0.46,-0.023 h 0.73 l 0.44,-0.016 h 0.38 l 0.74,-0.011 h 0.75 l 0.34,-0.016 h 1.11 l 0.35,-0.02 h 7.26 l 0.42,0.02 h 0.68 l 0.76,0.016 h 0.7 l 0.77,0.011 h 0.69 l 0.75,0.016 0.34,0.023 h 0.35 l 0.77,0.02 1.43,0.031 h 0.35 l 0.33,0.016 2.24,0.054 0.35,0.016 0.4,0.016 0.69,0.023 1.46,0.051 0.82,0.039 0.74,0.02 1.58,0.105 1.62,0.062 1.59,0.09 1.56,0.075 1.57,0.085 3.14,0.192 0.44,0.023 0.38,0.02 2.38,0.203 3.13,0.223 6.27,0.539 0.44,0.011 0.33,0.032 0.71,0.074 1.44,0.125 3.03,0.305 5.87,0.578 0.7,0.113 0.76,0.09 4.42,0.469 5.88,0.73 0.41,0.039 0.35,0.09 0.67,0.07 1.44,0.192 2.89,0.39 5.83,0.801 11.52,1.711 0.38,0.074 0.44,0.063 0.74,0.156 1.57,0.23 3.19,0.524 6.22,1.035 12.53,2.231 23.41,4.597 0.36,0.086 0.48,0.067 0.78,0.164 1.6,0.371 3.32,0.675 6.47,1.399 0.47,0.074 1.24,0.305 1.62,0.336 3.23,0.699 0.37,0.086 0.46,0.078 0.78,0.215 1.62,0.336 1.71,0.39 0.36,0.09 0.77,0.176 0.48,0.07"
         style="fill:none;stroke:#da1259;stroke-width:7.5;stroke-linecap:square;stroke-linejoin:miter;stroke-miterlimit:3.25;stroke-dasharray:none;stroke-opacity:1"
         transform="matrix(0.13333333,0,0,-0.13333333,0,141.53333)" />
      <path
         id="path19"
         d="m 3416.85,279.781 h 0.35 v 15"
         style="fill:none;stroke:#3871c1;stroke-width:5;stroke-linecap:butt;stroke-linejoin:miter;stroke-miterlimit:3.25;stroke-dasharray:none;stroke-opacity:1"
         transform="matrix(0.13333333,0,0,-0.13333333,0,141.53333)" />
      <path
         id="path20"
         d="m 3417.21,314.355 0.1,626.329"
         style="fill:none;stroke:#3871c1;stroke-width:5;stroke-linecap:butt;stroke-linejoin:miter;stroke-miterlimit:3.25;stroke-dasharray:29.3592, 19.5728;stroke-dashoffset:0;stroke-opacity:1"
         transform="matrix(0.13333333,0,0,-0.13333333,0,141.53333)" />
      <path
         id="path21"
         d="m 3417.31,950.469 v 15 h 15"
         style="fill:none;stroke:#3871c1;stroke-width:5;stroke-linecap:butt;stroke-linejoin:miter;stroke-miterlimit:3.25;stroke-dasharray:none;stroke-opacity:1"
         transform="matrix(0.13333333,0,0,-0.13333333,0,141.53333)" />
      <path
         id="path22"
         d="m 3452.1,965.469 h 336.46"
         style="fill:none;stroke:#3871c1;stroke-width:5;stroke-linecap:butt;stroke-linejoin:miter;stroke-miterlimit:3.25;stroke-dasharray:29.6872, 19.7915;stroke-dashoffset:0;stroke-opacity:1"
         transform="matrix(0.13333333,0,0,-0.13333333,0,141.53333)" />
      <path
         id="path23"
         d="m 3798.45,965.469 h 15 v -15"
         style="fill:none;stroke:#3871c1;stroke-width:5;stroke-linecap:butt;stroke-linejoin:miter;stroke-miterlimit:3.25;stroke-dasharray:none;stroke-opacity:1"
         transform="matrix(0.13333333,0,0,-0.13333333,0,141.53333)" />
      <path
         id="path24"
         d="m 3813.46,930.898 0.12,-626.332"
         style="fill:none;stroke:#3871c1;stroke-width:5;stroke-linecap:butt;stroke-linejoin:miter;stroke-miterlimit:3.25;stroke-dasharray:29.3592, 19.5728;stroke-dashoffset:0;stroke-opacity:1"
         transform="matrix(0.13333333,0,0,-0.13333333,0,141.53333)" />
      <path
         id="path25"
         d="m 3813.58,294.781 v -15 h 0.26"
         style="fill:none;stroke:#3871c1;stroke-width:5;stroke-linecap:butt;stroke-linejoin:miter;stroke-miterlimit:3.25;stroke-dasharray:none;stroke-opacity:1"
         transform="matrix(0.13333333,0,0,-0.13333333,0,141.53333)" />
      <path
         id="path26"
         d="m 222.887,251.719 v 30"
         style="fill:none;stroke:#231f20;stroke-width:5;stroke-linecap:butt;stroke-linejoin:miter;stroke-miterlimit:3.25;stroke-dasharray:none;stroke-opacity:1"
         transform="matrix(0.13333333,0,0,-0.13333333,0,141.53333)" />
      <path
         id="path27"
         d="m 420.984,251.719 v 30"
         style="fill:none;stroke:#231f20;stroke-width:5;stroke-linecap:butt;stroke-linejoin:miter;stroke-miterlimit:3.25;stroke-dasharray:none;stroke-opacity:1"
         transform="matrix(0.13333333,0,0,-0.13333333,0,141.53333)" />
      <path
         id="path28"
         d="m 619.102,281.719 v 14.664"
         style="fill:none;stroke:#231f20;stroke-width:5;stroke-linecap:butt;stroke-linejoin:miter;stroke-miterlimit:3.25;stroke-dasharray:none;stroke-opacity:1"
         transform="matrix(0.13333333,0,0,-0.13333333,0,141.53333)" />
      <path
         id="path29"
         d="m 817.223,251.719 v 30"
         style="fill:none;stroke:#231f20;stroke-width:5;stroke-linecap:butt;stroke-linejoin:miter;stroke-miterlimit:3.25;stroke-dasharray:none;stroke-opacity:1"
         transform="matrix(0.13333333,0,0,-0.13333333,0,141.53333)" />
      <path
         id="path30"
         d="m 1015.35,251.719 v 30"
         style="fill:none;stroke:#231f20;stroke-width:5;stroke-linecap:butt;stroke-linejoin:miter;stroke-miterlimit:3.25;stroke-dasharray:none;stroke-opacity:1"
         transform="matrix(0.13333333,0,0,-0.13333333,0,141.53333)" />
      <path
         id="path31"
         d="M 0,281.719 H 1238.19"
         style="fill:none;stroke:#231f20;stroke-width:5;stroke-linecap:butt;stroke-linejoin:miter;stroke-miterlimit:3.25;stroke-dasharray:none;stroke-opacity:1"
         transform="matrix(0.13333333,0,0,-0.13333333,0,141.53333)" />
      <path
         id="path32"
         d="m 619.102,281.719 h 14.66"
         style="fill:none;stroke:#231f20;stroke-width:5;stroke-linecap:butt;stroke-linejoin:miter;stroke-miterlimit:3.25;stroke-dasharray:none;stroke-opacity:1"
         transform="matrix(0.13333333,0,0,-0.13333333,0,141.53333)" />
      <path
         id="path33"
         d="m 589.102,626.27 h 30"
         style="fill:none;stroke:#231f20;stroke-width:5;stroke-linecap:butt;stroke-linejoin:miter;stroke-miterlimit:3.25;stroke-dasharray:none;stroke-opacity:1"
         transform="matrix(0.13333333,0,0,-0.13333333,0,141.53333)" />
      <path
         id="path34"
         d="m 589.102,970.84 h 30"
         style="fill:none;stroke:#231f20;stroke-width:5;stroke-linecap:butt;stroke-linejoin:miter;stroke-miterlimit:3.25;stroke-dasharray:none;stroke-opacity:1"
         transform="matrix(0.13333333,0,0,-0.13333333,0,141.53333)" />
      <path
         id="path35"
         d="M 619.102,243.418 V 1008.67"
         style="fill:none;stroke:#231f20;stroke-width:5;stroke-linecap:butt;stroke-linejoin:miter;stroke-miterlimit:3.25;stroke-dasharray:none;stroke-opacity:1"
         transform="matrix(0.13333333,0,0,-0.13333333,0,141.53333)" />
      <path
         id="path36"
         d="m 1719.65,249.824 v 30"
         style="fill:none;stroke:#231f20;stroke-width:5;stroke-linecap:butt;stroke-linejoin:miter;stroke-miterlimit:3.25;stroke-dasharray:none;stroke-opacity:1"
         transform="matrix(0.13333333,0,0,-0.13333333,0,141.53333)" />
      <path
         id="path37"
         d="m 1917.78,249.824 v 30"
         style="fill:none;stroke:#231f20;stroke-width:5;stroke-linecap:butt;stroke-linejoin:miter;stroke-miterlimit:3.25;stroke-dasharray:none;stroke-opacity:1"
         transform="matrix(0.13333333,0,0,-0.13333333,0,141.53333)" />
      <path
         id="path38"
         d="m 2115.86,279.824 v 14.664"
         style="fill:none;stroke:#231f20;stroke-width:5;stroke-linecap:butt;stroke-linejoin:miter;stroke-miterlimit:3.25;stroke-dasharray:none;stroke-opacity:1"
         transform="matrix(0.13333333,0,0,-0.13333333,0,141.53333)" />
      <path
         id="path39"
         d="m 2314.03,249.824 v 30"
         style="fill:none;stroke:#231f20;stroke-width:5;stroke-linecap:butt;stroke-linejoin:miter;stroke-miterlimit:3.25;stroke-dasharray:none;stroke-opacity:1"
         transform="matrix(0.13333333,0,0,-0.13333333,0,141.53333)" />
      <path
         id="path40"
         d="m 2512.07,249.824 v 30"
         style="fill:none;stroke:#231f20;stroke-width:5;stroke-linecap:butt;stroke-linejoin:miter;stroke-miterlimit:3.25;stroke-dasharray:none;stroke-opacity:1"
         transform="matrix(0.13333333,0,0,-0.13333333,0,141.53333)" />
      <path
         id="path41"
         d="m 1496.76,279.824 h 1238.2"
         style="fill:none;stroke:#231f20;stroke-width:5;stroke-linecap:butt;stroke-linejoin:miter;stroke-miterlimit:3.25;stroke-dasharray:none;stroke-opacity:1"
         transform="matrix(0.13333333,0,0,-0.13333333,0,141.53333)" />
      <path
         id="path42"
         d="m 2115.86,279.824 h 14.67"
         style="fill:none;stroke:#231f20;stroke-width:5;stroke-linecap:butt;stroke-linejoin:miter;stroke-miterlimit:3.25;stroke-dasharray:none;stroke-opacity:1"
         transform="matrix(0.13333333,0,0,-0.13333333,0,141.53333)" />
      <path
         id="path43"
         d="m 2085.86,604.961 h 30"
         style="fill:none;stroke:#231f20;stroke-width:5;stroke-linecap:butt;stroke-linejoin:miter;stroke-miterlimit:3.25;stroke-dasharray:none;stroke-opacity:1"
         transform="matrix(0.13333333,0,0,-0.13333333,0,141.53333)" />
      <path
         id="path44"
         d="m 2085.86,930.078 h 30"
         style="fill:none;stroke:#231f20;stroke-width:5;stroke-linecap:butt;stroke-linejoin:miter;stroke-miterlimit:3.25;stroke-dasharray:none;stroke-opacity:1"
         transform="matrix(0.13333333,0,0,-0.13333333,0,141.53333)" />
      <path
         id="path45"
         d="M 2115.86,242.195 V 1007.41"
         style="fill:none;stroke:#231f20;stroke-width:5;stroke-linecap:butt;stroke-linejoin:miter;stroke-miterlimit:3.25;stroke-dasharray:none;stroke-opacity:1"
         transform="matrix(0.13333333,0,0,-0.13333333,0,141.53333)" />
      <path
         id="path46"
         d="m 3219.1,249.781 v 30"
         style="fill:none;stroke:#231f20;stroke-width:5;stroke-linecap:butt;stroke-linejoin:miter;stroke-miterlimit:3.25;stroke-dasharray:none;stroke-opacity:1"
         transform="matrix(0.13333333,0,0,-0.13333333,0,141.53333)" />
      <path
         id="path47"
         d="m 3417.23,249.781 v 30"
         style="fill:none;stroke:#231f20;stroke-width:5;stroke-linecap:butt;stroke-linejoin:miter;stroke-miterlimit:3.25;stroke-dasharray:none;stroke-opacity:1"
         transform="matrix(0.13333333,0,0,-0.13333333,0,141.53333)" />
      <path
         id="path48"
         d="m 3615.36,279.781 v 14.688"
         style="fill:none;stroke:#231f20;stroke-width:5;stroke-linecap:butt;stroke-linejoin:miter;stroke-miterlimit:3.25;stroke-dasharray:none;stroke-opacity:1"
         transform="matrix(0.13333333,0,0,-0.13333333,0,141.53333)" />
      <path
         id="path49"
         d="m 3813.47,249.781 v 30"
         style="fill:none;stroke:#231f20;stroke-width:5;stroke-linecap:butt;stroke-linejoin:miter;stroke-miterlimit:3.25;stroke-dasharray:none;stroke-opacity:1"
         transform="matrix(0.13333333,0,0,-0.13333333,0,141.53333)" />
      <path
         id="path50"
         d="m 4011.58,249.781 v 30"
         style="fill:none;stroke:#231f20;stroke-width:5;stroke-linecap:butt;stroke-linejoin:miter;stroke-miterlimit:3.25;stroke-dasharray:none;stroke-opacity:1"
         transform="matrix(0.13333333,0,0,-0.13333333,0,141.53333)" />
      <path
         id="path51"
         d="M 2996.28,279.781 H 4234.49"
         style="fill:none;stroke:#231f20;stroke-width:5;stroke-linecap:butt;stroke-linejoin:miter;stroke-miterlimit:3.25;stroke-dasharray:none;stroke-opacity:1"
         transform="matrix(0.13333333,0,0,-0.13333333,0,141.53333)" />
      <path
         id="path52"
         d="m 3615.36,279.781 h 14.68"
         style="fill:none;stroke:#231f20;stroke-width:5;stroke-linecap:butt;stroke-linejoin:miter;stroke-miterlimit:3.25;stroke-dasharray:none;stroke-opacity:1"
         transform="matrix(0.13333333,0,0,-0.13333333,0,141.53333)" />
      <path
         id="path53"
         d="m 3585.36,622.598 h 30"
         style="fill:none;stroke:#231f20;stroke-width:5;stroke-linecap:butt;stroke-linejoin:miter;stroke-miterlimit:3.25;stroke-dasharray:none;stroke-opacity:1"
         transform="matrix(0.13333333,0,0,-0.13333333,0,141.53333)" />
      <path
         id="path54"
         d="m 3585.36,965.469 h 30"
         style="fill:none;stroke:#231f20;stroke-width:5;stroke-linecap:butt;stroke-linejoin:miter;stroke-miterlimit:3.25;stroke-dasharray:none;stroke-opacity:1"
         transform="matrix(0.13333333,0,0,-0.13333333,0,141.53333)" />
      <path
         id="path55"
         d="M 3615.36,242.195 V 1007.41"
         style="fill:none;stroke:#231f20;stroke-width:5;stroke-linecap:butt;stroke-linejoin:miter;stroke-miterlimit:3.25;stroke-dasharray:none;stroke-opacity:1"
         transform="matrix(0.13333333,0,0,-0.13333333,0,141.53333)" />
      <path
         id="path56"
         d="M 3.4556797,7.875e-4 V -0.24530625 C 2.6353672,-0.3039 2.5767734,-0.3742125 2.5767734,-1.0304625 v -4.6875 c -0.4921875,0.1992188 -1.0195312,0.375 -1.59374996,0.46875 v 0.2109375 l 0.43359376,0.011719 c 0.3867187,0.023437 0.421875,0.070312 0.421875,0.5390625 v 3.4570312 c 0,0.65625 -0.035156,0.7265625 -0.85546876,0.78515625 V 7.875e-4 Z m 1.8955078,0.10546875 c 0.28125,0 0.5039063,-0.19921875 0.5039063,-0.515625 0,-0.29296875 -0.2226563,-0.515625 -0.5039063,-0.515625 -0.2929687,0 -0.5039062,0.22265625 -0.5039062,0.515625 0,0.31640625 0.2109375,0.515625 0.5039062,0.515625 z M 8.5269688,-5.7179625 c -1.3476563,0 -1.8398438,1.6054688 -1.8398438,2.9179688 0,1.4179687 0.4804688,2.90624995 1.8398438,2.90624995 1.359375,0 1.8281252,-1.59374995 1.8281252,-2.91796875 0,-1.3828125 -0.4687502,-2.90625 -1.8281252,-2.90625 z m 0,0.3046875 c 0.8085937,0 1.03125,1.3242188 1.03125,2.6015625 0,1.265625 -0.2226563,2.61328125 -1.03125,2.61328125 -0.7734375,0 -1.0429688,-1.35937495 -1.0429688,-2.61328125 0,-1.2539062 0.2226563,-2.6015625 1.0429688,-2.6015625 z M 2.1548984,34.032038 c -1.34765621,0 -1.83984371,1.605468 -1.83984371,2.917968 0,1.417969 0.48046875,2.90625 1.83984371,2.90625 1.359375,0 1.828125,-1.59375 1.828125,-2.917968 0,-1.382813 -0.46875,-2.90625 -1.828125,-2.90625 z m 0,0.304687 c 0.8085938,0 1.03125,1.324219 1.03125,2.601563 0,1.265625 -0.2226562,2.613281 -1.03125,2.613281 -0.7734375,0 -1.0429687,-1.359375 -1.0429687,-2.613281 0,-1.253907 0.2226562,-2.601563 1.0429687,-2.601563 z m 3.1962891,5.519531 c 0.28125,0 0.5039063,-0.199218 0.5039063,-0.515625 0,-0.292968 -0.2226563,-0.515625 -0.5039063,-0.515625 -0.2929687,0 -0.5039062,0.222657 -0.5039062,0.515625 0,0.316407 0.2109375,0.515625 0.5039062,0.515625 z m 2.390625,-5.050781 h 2.0976563 l 0.2343752,-0.585937 -0.05859,-0.07031 H 7.4488438 l -0.3515625,2.742188 c 0.2109375,-0.08203 0.5507812,-0.1875 0.9257812,-0.1875 0.984375,0 1.4648438,0.574218 1.4648438,1.359375 0,0.679687 -0.375,1.335937 -1.1367188,1.335937 -0.5507812,0 -0.9140625,-0.292969 -1.1132812,-0.457031 -0.082031,-0.07031 -0.1523438,-0.05859 -0.234375,0 -0.1054688,0.09375 -0.1875,0.210937 -0.1875,0.292969 -0.023437,0.105468 0.023437,0.1875 0.140625,0.304687 0.1289062,0.128906 0.515625,0.316406 0.9257812,0.316406 0.4804688,-0.01172 1.078125,-0.246093 1.5703125,-0.632812 0.550781,-0.457031 0.796875,-0.960938 0.796875,-1.511719 0,-0.738281 -0.5859375,-1.511719 -1.734375,-1.511719 -0.2460937,0 -0.6679687,0.140625 -1.0078125,0.269532 z M -146.29237,3.7507875 V 3.5046938 c -0.82031,-0.058594 -0.8789,-0.1289063 -0.8789,-0.7851563 v -4.6875 c -0.49219,0.1992188 -1.01953,0.375 -1.59375,0.46875 v 0.2109375 l 0.43359,0.011719 c 0.38672,0.023437 0.42188,0.070312 0.42188,0.53906245 V 2.7195375 c 0,0.65625 -0.0352,0.7265625 -0.85547,0.7851563 v 0.2460937 z m 1.89258,0.1054688 c 0.28125,0 0.50391,-0.1992188 0.50391,-0.515625 0,-0.2929688 -0.22266,-0.515625 -0.50391,-0.515625 -0.29297,0 -0.50391,0.2226562 -0.50391,0.515625 0,0.3164062 0.21094,0.515625 0.50391,0.515625 z m 3.17871,-5.8242188 c -1.34765,0 -1.83984,1.60546875 -1.83984,2.91796875 0,1.41796875 0.48047,2.90625005 1.83984,2.90625005 1.35938,0 1.82813,-1.59375 1.82813,-2.9179688 0,-1.3828125 -0.46875,-2.90625 -1.82813,-2.90625 z m 0,0.3046875 c 0.8086,0 1.03125,1.32421875 1.03125,2.6015625 0,1.265625 -0.22265,2.6132813 -1.03125,2.6132813 -0.77344,0 -1.04297,-1.359375 -1.04297,-2.6132813 0,-1.25390625 0.22266,-2.6015625 1.04297,-2.6015625 z m -6.37207,35.695313 c -1.34765,0 -1.83984,1.605468 -1.83984,2.917968 0,1.417969 0.48047,2.90625 1.83984,2.90625 1.35938,0 1.82813,-1.59375 1.82813,-2.917968 0,-1.382813 -0.46875,-2.90625 -1.82813,-2.90625 z m 0,0.304687 c 0.8086,0 1.03125,1.324219 1.03125,2.601563 0,1.265625 -0.22265,2.613281 -1.03125,2.613281 -0.77344,0 -1.04297,-1.359375 -1.04297,-2.613281 0,-1.253907 0.22266,-2.601563 1.04297,-2.601563 z m 3.19336,5.519531 c 0.28125,0 0.50391,-0.199218 0.50391,-0.515625 0,-0.292968 -0.22266,-0.515625 -0.50391,-0.515625 -0.29297,0 -0.50391,0.222657 -0.50391,0.515625 0,0.316407 0.21094,0.515625 0.50391,0.515625 z m 2.39356,-5.050781 h 2.09765 l 0.23438,-0.585937 -0.0586,-0.07031 h -2.5664 l -0.35157,2.742188 c 0.21094,-0.08203 0.55079,-0.1875 0.92579,-0.1875 0.98437,0 1.46484,0.574218 1.46484,1.359375 0,0.679687 -0.375,1.335937 -1.13672,1.335937 -0.55078,0 -0.91406,-0.292969 -1.11328,-0.457031 -0.082,-0.07031 -0.15234,-0.05859 -0.23438,0 -0.10546,0.09375 -0.1875,0.210937 -0.1875,0.292969 -0.0234,0.105468 0.0234,0.1875 0.14063,0.304687 0.12891,0.128906 0.51562,0.316406 0.92578,0.316406 0.48047,-0.01172 1.07813,-0.246093 1.57031,-0.632812 0.55078,-0.457031 0.79688,-0.960938 0.79688,-1.511719 0,-0.738281 -0.58594,-1.511719 -1.73438,-1.511719 -0.24609,0 -0.66797,0.140625 -1.00781,0.269532 z M -296.29237,3.7507875 V 3.5046938 c -0.82031,-0.058594 -0.8789,-0.1289063 -0.8789,-0.7851563 v -4.6875 c -0.49219,0.1992188 -1.01953,0.375 -1.59375,0.46875 v 0.2109375 l 0.43359,0.011719 c 0.38672,0.023437 0.42188,0.070312 0.42188,0.53906245 V 2.7195375 c 0,0.65625 -0.0352,0.7265625 -0.85547,0.7851563 v 0.2460937 z m 1.89258,0.1054688 c 0.28125,0 0.50391,-0.1992188 0.50391,-0.515625 0,-0.2929688 -0.22266,-0.515625 -0.50391,-0.515625 -0.29297,0 -0.50391,0.2226562 -0.50391,0.515625 0,0.3164062 0.21094,0.515625 0.50391,0.515625 z m 3.17871,-5.8242188 c -1.34765,0 -1.83984,1.60546875 -1.83984,2.91796875 0,1.41796875 0.48047,2.90625005 1.83984,2.90625005 1.35938,0 1.82813,-1.59375 1.82813,-2.9179688 0,-1.3828125 -0.46875,-2.90625 -1.82813,-2.90625 z m 0,0.3046875 c 0.8086,0 1.03125,1.32421875 1.03125,2.6015625 0,1.265625 -0.22265,2.6132813 -1.03125,2.6132813 -0.77344,0 -1.04297,-1.359375 -1.04297,-2.6132813 0,-1.25390625 0.22266,-2.6015625 1.04297,-2.6015625 z m -6.37207,35.695313 c -1.34765,0 -1.83984,1.605468 -1.83984,2.917968 0,1.417969 0.48047,2.90625 1.83984,2.90625 1.35938,0 1.82813,-1.59375 1.82813,-2.917968 0,-1.382813 -0.46875,-2.90625 -1.82813,-2.90625 z m 0,0.304687 c 0.8086,0 1.03125,1.324219 1.03125,2.601563 0,1.265625 -0.22265,2.613281 -1.03125,2.613281 -0.77344,0 -1.04297,-1.359375 -1.04297,-2.613281 0,-1.253907 0.22266,-2.601563 1.04297,-2.601563 z m 3.19336,5.519531 c 0.28125,0 0.50391,-0.199218 0.50391,-0.515625 0,-0.292968 -0.22266,-0.515625 -0.50391,-0.515625 -0.29297,0 -0.50391,0.222657 -0.50391,0.515625 0,0.316407 0.21094,0.515625 0.50391,0.515625 z m 2.39356,-5.050781 h 2.09765 l 0.23438,-0.585937 -0.0586,-0.07031 h -2.5664 l -0.35157,2.742188 c 0.21094,-0.08203 0.55079,-0.1875 0.92579,-0.1875 0.98437,0 1.46484,0.574218 1.46484,1.359375 0,0.679687 -0.375,1.335937 -1.13672,1.335937 -0.55078,0 -0.91406,-0.292969 -1.11328,-0.457031 -0.082,-0.07031 -0.15234,-0.05859 -0.23438,0 -0.10546,0.09375 -0.1875,0.210937 -0.1875,0.292969 -0.0234,0.105468 0.0234,0.1875 0.14063,0.304687 0.12891,0.128906 0.51562,0.316406 0.92578,0.316406 0.48047,-0.01172 1.07813,-0.246093 1.57031,-0.632812 0.55078,-0.457031 0.79688,-0.960938 0.79688,-1.511719 0,-0.738281 -0.58594,-1.511719 -1.73438,-1.511719 -0.24609,0 -0.66797,0.140625 -1.00781,0.269532 z m 0,0"
         style="fill:#231f20;fill-opacity:1;fill-rule:nonzero;stroke:none"
         aria-label="1.0&#10;0.5&#10;1.0&#10;0.5&#10;1.0&#10;0.5"
         transform="matrix(1.3333333,0,0,1.3333333,462.02133,9.9052)" />
    </g>
  </g>
</svg>
