<?xml version="1.0" encoding="UTF-8" standalone="no"?>
<!-- Created with Inkscape (http://www.inkscape.org/) -->

<svg
   version="1.1"
   id="svg1"
   width="423.35999"
   height="146.38667"
   viewBox="0 0 423.35999 146.38667"
   sodipodi:docname="pha08f51.eps"
   xmlns:inkscape="http://www.inkscape.org/namespaces/inkscape"
   xmlns:sodipodi="http://sodipodi.sourceforge.net/DTD/sodipodi-0.dtd"
   xmlns="http://www.w3.org/2000/svg"
   xmlns:svg="http://www.w3.org/2000/svg">
  <defs
     id="defs1" />
  <sodipodi:namedview
     id="namedview1"
     pagecolor="#ffffff"
     bordercolor="#000000"
     borderopacity="0.25"
     inkscape:showpageshadow="2"
     inkscape:pageopacity="0.0"
     inkscape:pagecheckerboard="0"
     inkscape:deskcolor="#d1d1d1">
    <inkscape:page
       x="0"
       y="0"
       inkscape:label="1"
       id="page1"
       width="423.35999"
       height="146.38667"
       margin="0"
       bleed="0" />
  </sodipodi:namedview>
  <g
     id="g1"
     inkscape:groupmode="layer"
     inkscape:label="1">
    <g
       id="group-R5">
      <path
         id="path2"
         d="m 4.2199594,-1.8033062 v -0.46875 H 0.44652188 v 0.46875 z M 8.1369516,0.00138125 V -0.2447125 C 7.3166391,-0.30330625 7.2580453,-0.37361875 7.2580453,-1.0298687 v -4.6875 c -0.4921875,0.1992187 -1.0195312,0.375 -1.59375,0.46875 v 0.2109375 l 0.4335938,0.011719 c 0.3867187,0.023437 0.421875,0.070312 0.421875,0.5390625 v 3.4570313 c 0,0.65624995 -0.035156,0.72656245 -0.8554688,0.7851562 v 0.24609375 z m 93.5478484,0 V -0.2447125 c -0.82031,-0.0585938 -0.8789,-0.12890625 -0.8789,-0.7851562 v -4.6875 c -0.49219,0.1992187 -1.019534,0.375 -1.593753,0.46875 v 0.2109375 l 0.433594,0.011719 c 0.386719,0.023437 0.421879,0.070312 0.421879,0.5390625 v 3.4570313 c 0,0.65624995 -0.0352,0.72656245 -0.855473,0.7851562 V 0.00138125 Z M 50.075428,11.324623 c -0.890625,-0.761718 -1.40625,-2.2031246 -1.40625,-3.7499996 0,-1.546875 0.515625,-3 1.40625,-3.75 L 49.923084,3.6136859 c -1.324218,0.9023438 -1.910156,2.3320313 -1.910156,3.9492188 0,1.6289062 0.585938,3.0820313 1.910156,3.9609373 z m 4.321289,-1.6757808 -0.09375,-0.234375 c -0.09375,0.058594 -0.222656,0.1054687 -0.328125,0.1054687 -0.152344,0 -0.316406,-0.140625 -0.316406,-0.5507812 V 7.3050922 c 0,-0.46875 -0.08203,-0.84375 -0.398438,-1.1015625 -0.199218,-0.1640625 -0.46875,-0.2460938 -0.738281,-0.2460938 -0.515625,0.1054688 -1.101562,0.4570313 -1.347656,0.6328125 -0.175781,0.1289063 -0.292969,0.2226563 -0.292969,0.3632813 0,0.1992187 0.234375,0.3867187 0.398438,0.3867187 0.128906,0 0.222656,-0.070312 0.257812,-0.2109375 0.07031,-0.28125 0.152344,-0.4804687 0.269531,-0.5976562 0.09375,-0.1054688 0.222657,-0.1757813 0.410157,-0.1757813 0.445312,0 0.75,0.3632813 0.75,1.0195313 v 0.1640625 c -0.199219,0.1523437 -0.855469,0.3984375 -1.394532,0.5742187 -0.492187,0.1757813 -0.726562,0.4570313 -0.726562,0.9023438 0,0.5625 0.445312,1.0898433 1.078125,1.0898433 0.269531,0 0.703125,-0.3281246 1.066406,-0.5742183 0.04687,0.1523437 0.09375,0.28125 0.210938,0.4101562 0.105468,0.082031 0.292968,0.1640621 0.421875,0.1640621 z M 52.96703,9.2386859 c -0.164063,0.1640625 -0.480469,0.3164063 -0.714844,0.328125 -0.28125,0 -0.644531,-0.2226562 -0.644531,-0.6914062 0,-0.328125 0.199218,-0.4921875 0.550781,-0.65625 0.1875,-0.09375 0.621094,-0.28125 0.808594,-0.375 z m 1.886718,-5.4140625 c 0.890625,0.7382813 1.417969,2.203125 1.417969,3.75 0,1.546875 -0.503906,2.9882816 -1.417969,3.7499996 l 0.164063,0.199219 c 1.347656,-0.914062 1.898437,-2.3320311 1.898437,-3.9492186 0,-1.6289062 -0.550781,-3.0585937 -1.898437,-3.9609375 z M 223.52465,11.324623 c -0.89063,-0.761718 -1.40625,-2.2031246 -1.40625,-3.7499996 0,-1.546875 0.51562,-3 1.40625,-3.75 L 223.3723,3.6136859 c -1.32422,0.9023438 -1.91015,2.3320313 -1.91015,3.9492188 0,1.6289062 0.58593,3.0820313 1.91015,3.9609373 z m 1.79004,-4.9570308 V 3.5902484 c -0.33985,0.1171875 -0.89063,0.2578125 -1.3125,0.3164063 v 0.2109375 c 0.58593,0.046875 0.59765,0.1054687 0.59765,0.6679687 v 5.0039063 c 0.49219,0.2343748 0.94922,0.3164058 1.32422,0.3164058 1.20703,0 2.26172,-0.9374996 2.26172,-2.2617183 0,-1.0546875 -0.80859,-1.8867188 -1.78125,-1.8867188 -0.0937,0 -0.22266,0.023437 -0.36328,0.09375 z m 0,0.2695312 c 0.16406,-0.1054687 0.44531,-0.1757812 0.70312,-0.1757812 0.73828,0 1.37109,0.5976562 1.37109,1.6171875 0,1.0546875 -0.48046,1.6875 -1.21875,1.6875 -0.48046,-0.011719 -0.75,-0.328125 -0.80859,-0.5039063 -0.0352,-0.082031 -0.0469,-0.1757812 -0.0469,-0.3046875 z m 3.6123,-2.8125 c 0.89063,0.7382813 1.41797,2.203125 1.41797,3.75 0,1.546875 -0.50391,2.9882816 -1.41797,3.7499996 l 0.16406,0.199219 c 1.34766,-0.914062 1.89844,-2.3320311 1.89844,-3.9492186 0,-1.6289062 -0.55078,-3.0585937 -1.89844,-3.9609375 z m -50.92383,-5.6279296 v -0.46875 h -3.77344 v 0.46875 z m 3.91992,1.80468745 V -0.2447125 c -0.82031,-0.0585938 -0.8789,-0.12890625 -0.8789,-0.7851562 v -4.6875 c -0.49219,0.1992187 -1.01953,0.375 -1.59375,0.46875 v 0.2109375 l 0.43359,0.011719 c 0.38672,0.023437 0.42188,0.070312 0.42188,0.5390625 v 3.4570313 c 0,0.65624995 -0.0352,0.72656245 -0.85547,0.7851562 v 0.24609375 z m 93.54786,0 V -0.2447125 c -0.82032,-0.0585938 -0.87891,-0.12890625 -0.87891,-0.7851562 v -4.6875 c -0.49219,0.1992187 -1.01953,0.375 -1.59375,0.46875 v 0.2109375 l 0.43359,0.011719 c 0.38672,0.023437 0.42188,0.070312 0.42188,0.5390625 v 3.4570313 c 0,0.65624995 -0.0352,0.72656245 -0.85547,0.7851562 v 0.24609375 z m 0,0"
         style="fill:#231f20;fill-opacity:1;fill-rule:nonzero;stroke:none"
         aria-label="–11&#10;(a)(b)&#10;–11"
         transform="matrix(1.3333333,0,0,1.3333333,25.8812,128.73253)" />
      <path
         id="path3"
         d="m 2.1562187,-5.7189219 c -1.3476562,0 -1.8398437,1.6054688 -1.8398437,2.9179688 0,1.4179687 0.48046875,2.90624998 1.8398437,2.90624998 1.359375,0 1.828125,-1.59374998 1.828125,-2.91796878 0,-1.3828125 -0.46875,-2.90625 -1.828125,-2.90625 z m 0,0.3046875 c 0.8085938,0 1.03125,1.3242188 1.03125,2.6015625 0,1.265625 -0.2226562,2.61328128 -1.03125,2.61328128 -0.7734375,0 -1.0429687,-1.35937498 -1.0429687,-2.61328128 0,-1.2539062 0.2226562,-2.6015625 1.0429687,-2.6015625 z m 3.1962891,5.51953128 c 0.28125,0 0.5039063,-0.19921875 0.5039063,-0.515625 0,-0.29296875 -0.2226563,-0.515625 -0.5039063,-0.515625 -0.2929687,0 -0.5039062,0.22265625 -0.5039062,0.515625 0,0.31640625 0.2109375,0.515625 0.5039062,0.515625 z m 2.390625,-5.05078128 h 2.0976563 l 0.2343749,-0.5859375 -0.05859,-0.070312 H 7.4501641 l -0.3515625,2.7421875 c 0.2109375,-0.082031 0.5507812,-0.1875 0.9257812,-0.1875 0.984375,0 1.4648438,0.5742188 1.4648438,1.359375 0,0.6796875 -0.375,1.33593753 -1.1367188,1.33593753 -0.5507812,0 -0.9140625,-0.29296875 -1.1132812,-0.45703125 -0.082031,-0.0703125 -0.1523438,-0.0585938 -0.234375,0 -0.1054688,0.09375 -0.1875,0.2109375 -0.1875,0.29296875 -0.023437,0.10546875 0.023437,0.1875 0.140625,0.3046875 0.1289062,0.12890625 0.515625,0.31640625 0.9257812,0.31640625 0.4804688,-0.01171875 1.078125,-0.24609375 1.5703125,-0.6328125 0.5507817,-0.45703125 0.7968747,-0.96093748 0.7968747,-1.51171878 0,-0.7382812 -0.5859372,-1.5117187 -1.7343747,-1.5117187 -0.2460937,0 -0.6679687,0.140625 -1.0078125,0.2695312 z m 0,0"
         style="fill:#231f20;fill-opacity:1;fill-rule:nonzero;stroke:none"
         aria-label="0.5"
         transform="matrix(1.3333333,0,0,1.3333333,306.89067,63.398667)" />
      <path
         id="path4"
         d="m 239.109,253.816 h 0.321 l 0.281,799.644 h 958.099 l 0.34,-799.644 h 0.34"
         style="fill:none;stroke:#3871c1;stroke-width:7.5;stroke-linecap:square;stroke-linejoin:miter;stroke-miterlimit:3.25;stroke-dasharray:none;stroke-opacity:1"
         transform="matrix(0.13333333,0,0,-0.13333333,0,146.38667)" />
      <path
         id="path5"
         d="m 239.605,223.816 v 30"
         style="fill:none;stroke:#231f20;stroke-width:5;stroke-linecap:butt;stroke-linejoin:miter;stroke-miterlimit:3.25;stroke-dasharray:none;stroke-opacity:1"
         transform="matrix(0.13333333,0,0,-0.13333333,0,146.38667)" />
      <path
         id="path6"
         d="m 718.801,223.816 v 30"
         style="fill:none;stroke:#231f20;stroke-width:5;stroke-linecap:butt;stroke-linejoin:miter;stroke-miterlimit:3.25;stroke-dasharray:none;stroke-opacity:1"
         transform="matrix(0.13333333,0,0,-0.13333333,0,146.38667)" />
      <path
         id="path7"
         d="m 1197.99,223.816 v 30"
         style="fill:none;stroke:#231f20;stroke-width:5;stroke-linecap:butt;stroke-linejoin:miter;stroke-miterlimit:3.25;stroke-dasharray:none;stroke-opacity:1"
         transform="matrix(0.13333333,0,0,-0.13333333,0,146.38667)" />
      <path
         id="path8"
         d="M 0,253.816 H 1437.6"
         style="fill:none;stroke:#231f20;stroke-width:5;stroke-linecap:butt;stroke-linejoin:miter;stroke-miterlimit:3.25;stroke-dasharray:none;stroke-opacity:1"
         transform="matrix(0.13333333,0,0,-0.13333333,0,146.38667)" />
      <path
         id="path9"
         d="m 688.801,1053.46 h 30"
         style="fill:none;stroke:#231f20;stroke-width:5;stroke-linecap:butt;stroke-linejoin:miter;stroke-miterlimit:3.25;stroke-dasharray:none;stroke-opacity:1"
         transform="matrix(0.13333333,0,0,-0.13333333,0,146.38667)" />
      <path
         id="path10"
         d="M 718.801,209.395 V 1097.88"
         style="fill:none;stroke:#231f20;stroke-width:5;stroke-linecap:butt;stroke-linejoin:miter;stroke-miterlimit:3.25;stroke-dasharray:none;stroke-opacity:1"
         transform="matrix(0.13333333,0,0,-0.13333333,0,146.38667)" />
      <path
         id="path11"
         d="m 1976.71,253.816 h 0.32 l 0.28,0.188 0.3,0.496 0.31,0.488 0.28,0.5 0.29,0.469 0.59,0.984 0.58,0.997 0.59,0.988 1.18,1.953 4.71,7.859 9.4,15.703 20.43,34.063 19.05,31.836 18.7,31.191 20.26,33.828 18.94,31.563 20.49,34.219 20.13,33.589 18.77,31.36 20.37,33.98 19.01,31.723 18.61,31.086 20.24,33.758 18.85,31.476 20.45,34.121 20.07,33.512 18.73,31.231 20.32,33.906 18.96,31.609 20.52,34.301 20.17,33.641 18.8,31.382 20.39,34.044 0.3,0.49 0.31,0.49 0.6,1.02 1.17,1.97 2.39,3.96 4.77,7.94 0.29,0.53 0.29,0.49 1.79,2.97 2.37,3.99 4.77,7.94 0.28,0.46 0.31,0.51 0.58,0.95 1.17,1.96 2.32,3.9 0.31,0.47 0.28,0.5 0.58,0.96 1.17,1.96 0.57,0.99 0.6,0.96 0.28,0.49 0.3,0.47 0.28,0.5 0.32,0.49 0.27,0.24 0.3,-0.5 0.28,-0.46 0.28,-0.5 0.33,-0.5 0.28,-0.46 0.86,-1.49 0.31,-0.47 0.57,-0.99 1.17,-1.93 4.67,-7.78 0.31,-0.55 0.31,-0.52 0.65,-1.06 1.25,-2.11 2.53,-4.22 5.07,-8.45 10.13,-16.9 18.89,-31.527 20.49,-34.195 20.1,-33.567 18.75,-31.308 20.35,-33.926 18.98,-31.692 18.61,-31.078 20.22,-33.687 18.83,-31.461 20.44,-34.086 19.06,-31.855 18.7,-31.196 20.28,-33.855 18.94,-31.586 20.52,-34.242 20.12,-33.621 18.81,-31.348 20.36,-34.024 19.04,-31.738 18.65,-31.121 20.23,-33.75 18.85,-31.516 0.68,-1.093 0.65,-1.114 1.34,-2.187 2.62,-4.402 5.26,-8.782 0.34,-0.566 0.31,-0.547 0.68,-1.094 1.3,-2.187 2.63,-4.403 0.67,-1.093 0.66,-1.125 0.34,-0.547 0.31,-0.547 0.68,-1.094 0.31,-0.547 0.34,-0.547 0.31,-0.546 0.68,-1.094 0.31,-0.567 0.34,-0.293 h 0.33"
         style="fill:none;stroke:#3871c1;stroke-width:7.5;stroke-linecap:square;stroke-linejoin:miter;stroke-miterlimit:3.25;stroke-dasharray:none;stroke-opacity:1"
         transform="matrix(0.13333333,0,0,-0.13333333,0,146.38667)" />
      <path
         id="path12"
         d="m 1977.21,223.816 v 30"
         style="fill:none;stroke:#231f20;stroke-width:5;stroke-linecap:butt;stroke-linejoin:miter;stroke-miterlimit:3.25;stroke-dasharray:none;stroke-opacity:1"
         transform="matrix(0.13333333,0,0,-0.13333333,0,146.38667)" />
      <path
         id="path13"
         d="m 2456.4,253.816 v 17.012"
         style="fill:none;stroke:#231f20;stroke-width:5;stroke-linecap:butt;stroke-linejoin:miter;stroke-miterlimit:3.25;stroke-dasharray:none;stroke-opacity:1"
         transform="matrix(0.13333333,0,0,-0.13333333,0,146.38667)" />
      <path
         id="path14"
         d="m 2935.6,223.816 v 30"
         style="fill:none;stroke:#231f20;stroke-width:5;stroke-linecap:butt;stroke-linejoin:miter;stroke-miterlimit:3.25;stroke-dasharray:none;stroke-opacity:1"
         transform="matrix(0.13333333,0,0,-0.13333333,0,146.38667)" />
      <path
         id="path15"
         d="m 1737.61,253.816 h 1437.6"
         style="fill:none;stroke:#231f20;stroke-width:5;stroke-linecap:butt;stroke-linejoin:miter;stroke-miterlimit:3.25;stroke-dasharray:none;stroke-opacity:1"
         transform="matrix(0.13333333,0,0,-0.13333333,0,146.38667)" />
      <path
         id="path16"
         d="m 2426.4,653.688 h 30"
         style="fill:none;stroke:#231f20;stroke-width:5;stroke-linecap:butt;stroke-linejoin:miter;stroke-miterlimit:3.25;stroke-dasharray:none;stroke-opacity:1"
         transform="matrix(0.13333333,0,0,-0.13333333,0,146.38667)" />
      <path
         id="path17"
         d="M 2456.4,209.395 V 1097.88"
         style="fill:none;stroke:#231f20;stroke-width:5;stroke-linecap:butt;stroke-linejoin:miter;stroke-miterlimit:3.25;stroke-dasharray:none;stroke-opacity:1"
         transform="matrix(0.13333333,0,0,-0.13333333,0,146.38667)" />
      <path
         id="path18"
         d="m 2.1552266,-5.7185375 c -1.34765629,0 -1.83984379,1.6054688 -1.83984379,2.9179688 0,1.4179687 0.48046875,2.90624995 1.83984379,2.90624995 1.359375,0 1.828125,-1.59374995 1.828125,-2.91796875 0,-1.3828125 -0.46875,-2.90625 -1.828125,-2.90625 z m 0,0.3046875 c 0.8085937,0 1.03125,1.3242188 1.03125,2.6015625 0,1.265625 -0.2226563,2.61328125 -1.03125,2.61328125 -0.7734375,0 -1.0429688,-1.35937495 -1.0429688,-2.61328125 0,-1.2539062 0.2226563,-2.6015625 1.0429688,-2.6015625 z m 3.196289,5.51953125 c 0.28125,0 0.5039063,-0.19921875 0.5039063,-0.515625 0,-0.29296875 -0.2226563,-0.515625 -0.5039063,-0.515625 -0.2929687,0 -0.5039062,0.22265625 -0.5039062,0.515625 0,0.31640625 0.2109375,0.515625 0.5039062,0.515625 z M 7.7421406,-4.9451 H 9.8397969 L 10.074172,-5.5310375 10.015578,-5.60135 H 7.4491719 l -0.3515625,2.7421875 c 0.2109375,-0.082031 0.5507812,-0.1875 0.9257812,-0.1875 0.984375,0 1.4648438,0.5742188 1.4648438,1.359375 0,0.6796875 -0.375,1.3359375 -1.1367188,1.3359375 -0.5507812,0 -0.9140625,-0.29296875 -1.1132812,-0.45703125 -0.082031,-0.0703125 -0.1523438,-0.0585938 -0.234375,0 -0.1054688,0.09375 -0.1875,0.2109375 -0.1875,0.29296875 -0.023437,0.10546875 0.023437,0.1875 0.140625,0.3046875 0.1289062,0.12890625 0.515625,0.31640625 0.9257812,0.31640625 C 8.3632344,0.0939625 8.9608906,-0.1404125 9.4530781,-0.52713125 10.003859,-0.9841625 10.249953,-1.4880687 10.249953,-2.03885 c 0,-0.7382812 -0.5859374,-1.5117187 -1.7343749,-1.5117187 -0.2460937,0 -0.6679687,0.140625 -1.0078125,0.2695312 z m 0,0"
         style="fill:#231f20;fill-opacity:1;fill-rule:nonzero;stroke:none"
         aria-label="0.5"
         transform="matrix(1.3333333,0,0,1.3333333,72.669333,15.843467)" />
    </g>
  </g>
</svg>
