<?xml version="1.0" encoding="UTF-8" standalone="no"?>
<!-- Created with Inkscape (http://www.inkscape.org/) -->

<svg
   version="1.1"
   id="svg1"
   width="392.97333"
   height="134.14667"
   viewBox="0 0 392.97333 134.14667"
   sodipodi:docname="pha08f08.eps"
   xmlns:inkscape="http://www.inkscape.org/namespaces/inkscape"
   xmlns:sodipodi="http://sodipodi.sourceforge.net/DTD/sodipodi-0.dtd"
   xmlns="http://www.w3.org/2000/svg"
   xmlns:svg="http://www.w3.org/2000/svg">
  <defs
     id="defs1" />
  <sodipodi:namedview
     id="namedview1"
     pagecolor="#ffffff"
     bordercolor="#000000"
     borderopacity="0.25"
     inkscape:showpageshadow="2"
     inkscape:pageopacity="0.0"
     inkscape:pagecheckerboard="0"
     inkscape:deskcolor="#d1d1d1">
    <inkscape:page
       x="0"
       y="0"
       inkscape:label="1"
       id="page1"
       width="392.97333"
       height="134.14667"
       margin="0"
       bleed="0" />
  </sodipodi:namedview>
  <g
     id="g1"
     inkscape:groupmode="layer"
     inkscape:label="1">
    <g
       id="group-R5">
      <path
         id="path2"
         d="M 74.8477,169.695 H 950.563 l 0.789,0.028 h 6.535 l 0.379,0.031 h 2.988 l 0.734,0.027 h 2.227 l 0.762,0.032 h 1.464 l 0.379,0.027 h 1.496 l 0.379,0.031 h 1.114 l 0.351,0.027 h 0.762 l 1.496,0.059 h 0.73 l 0.735,0.031 0.379,0.028 h 0.383 l 0.73,0.031 h 0.383 l 0.379,0.027 0.734,0.031 1.492,0.059 0.352,0.027 0.383,0.032 0.73,0.027 0.703,0.059 0.735,0.031 0.379,0.027 0.351,0.031 2.199,0.176 0.352,0.028 0.379,0.031 0.734,0.058 0.352,0.059 0.379,0.027 0.734,0.09 0.352,0.028 0.351,0.058 0.731,0.09 1.464,0.203 0.383,0.031 0.352,0.059 0.73,0.117 0.352,0.059 0.383,0.086 0.73,0.117 0.352,0.09 0.383,0.058 0.73,0.145 1.437,0.324 0.379,0.117 0.352,0.086 0.734,0.176 0.379,0.117 0.352,0.09 0.734,0.234 0.352,0.086 0.379,0.117 2.194,0.793 0.38,0.145 0.41,0.176 0.8,0.324 0.38,0.176 0.41,0.176 0.79,0.378 0.38,0.207 0.41,0.204 0.79,0.41 1.58,0.937 0.38,0.235 0.41,0.265 0.79,0.528 1.59,1.171 0.38,0.321 0.41,0.324 0.79,0.672 1.58,1.465 0.79,0.793 0.79,0.82 1.58,1.816 0.39,0.469 0.41,0.496 0.79,1.028 1.58,2.226 0.38,0.586 0.41,0.613 0.79,1.262 1.58,2.695 0.38,0.704 0.41,0.73 0.79,1.523 1.59,3.282 0.38,0.793 0.35,0.847 0.73,1.7 1.5,3.605 0.35,0.965 0.38,0.969 0.73,1.992 1.49,4.277 0.36,1.113 0.38,1.141 0.73,2.344 1.46,4.98 2.96,11.106 0.76,3.047 0.74,3.132 1.46,6.622 0.38,1.73 0.35,1.758 0.77,3.601 1.46,7.559 0.38,1.965 0.35,2.019 0.74,4.075 1.49,8.582 2.96,18.722 0.38,2.696 0.41,2.753 0.79,5.594 1.61,11.719 3.2,25.43 0.41,3.371 0.41,3.426 0.79,6.945 1.58,14.414 3.22,30.848 0.38,4.043 0.41,4.101 0.8,8.262 1.61,17.051 3.19,35.949 6.41,78.226 0.39,5.039 0.41,5.039 0.76,10.192 1.58,20.566 3.13,41.836 6.3,84.633 0.38,5.254 0.41,5.211 0.79,10.433 1.56,20.645 3.16,40.234 0.38,4.887 0.38,4.859 0.79,9.649 1.59,18.781 3.13,35.442 0.38,3.953 0.35,3.871 0.74,7.621 1.46,14.613 0.38,3.551 0.35,3.449 0.74,6.805 1.46,12.832 0.38,3.07 0.35,2.985 0.74,5.839 1.46,10.864 0.38,2.554 0.35,2.457 0.74,4.782 1.46,8.664 0.38,1.988 0.35,1.906 0.73,3.606 0.39,1.695 0.35,1.617 0.73,3.024 0.38,1.398 0.35,1.32 0.38,1.231 0.35,1.172 0.39,1.09 0.38,0.984 0.35,0.937 0.38,0.86 0.35,0.754 0.38,0.707 0.35,0.614 0.38,0.52 0.35,0.48 0.39,0.38 0.35,0.29 0.38,0.2 0.35,0.16 0.38,0.05 0.35,-0.02 0.38,-0.13 0.35,-0.18 0.39,-0.26 0.35,-0.32 0.38,-0.43 0.38,-0.54 0.41,-0.635 0.38,-0.738 0.41,-0.844 0.38,-0.918 0.41,-0.984 0.79,-2.32 0.41,-1.289 0.38,-1.371 0.79,-3.024 0.41,-1.637 0.41,-1.734 0.8,-3.719 0.38,-2.027 0.41,-2.074 0.79,-4.395 0.41,-2.34 0.38,-2.441 0.79,-5.059 0.41,-2.671 0.38,-2.754 0.79,-5.711 1.61,-12.364 0.38,-3.285 0.41,-3.336 0.79,-6.914 1.59,-14.648 3.19,-32.289 0.38,-4.274 0.41,-4.336 0.79,-8.847 1.58,-18.278 3.2,-38.558 0.35,-4.629 0.38,-4.688 0.73,-9.433 1.5,-19.137 2.96,-39.129 5.94,-79.898 0.39,-4.981 0.35,-4.98 0.76,-9.961 1.46,-19.777 2.99,-38.934 5.92,-73.969 0.38,-4.316 0.35,-4.305 0.73,-8.496 1.47,-16.668 2.9,-31.848 0.35,-3.836 0.38,-3.808 0.73,-7.5 1.44,-14.621 2.9,-27.598 0.38,-3.281 0.35,-3.25 0.73,-6.418 1.47,-12.391 2.9,-23.117 0.38,-2.723 0.35,-2.695 0.73,-5.305 1.44,-10.164 2.93,-18.781 0.38,-2.371 0.41,-2.344 0.79,-4.601 1.55,-8.7 0.41,-2.109 0.38,-2.051 0.8,-4.015 1.58,-7.618 0.41,-1.816 0.38,-1.785 0.79,-3.457 1.58,-6.594 3.17,-11.746 0.38,-1.32 0.41,-1.317 0.79,-2.55 1.58,-4.805 0.38,-1.141 0.38,-1.113 0.79,-2.168 1.58,-4.043 0.42,-0.937 0.38,-0.938 0.79,-1.816 1.58,-3.371 0.38,-0.79 0.41,-0.793 0.79,-1.492 1.58,-2.812 0.35,-0.617 0.39,-0.614 0.73,-1.144 1.46,-2.168 0.38,-0.528 0.36,-0.496 0.76,-0.968 1.46,-1.786 0.35,-0.441 0.38,-0.41 0.74,-0.789 1.46,-1.496 0.38,-0.321 0.38,-0.351 0.74,-0.645 1.46,-1.203 0.38,-0.293 0.35,-0.261 0.74,-0.528 1.46,-0.996 0.38,-0.234 0.38,-0.207 0.73,-0.438 1.47,-0.793 0.38,-0.176 0.35,-0.175 0.73,-0.352 1.5,-0.613 0.35,-0.149 0.38,-0.144 0.73,-0.266 1.47,-0.496 0.41,-0.148 2.05,-0.586 0.82,-0.203 0.41,-0.09 0.41,-0.117 0.82,-0.176 1.67,-0.32 0.41,-0.059 0.41,-0.09 0.82,-0.144 2.46,-0.352 0.82,-0.09 1.64,-0.203 0.41,-0.031 0.41,-0.059 1.23,-0.086 0.41,-0.058 2.46,-0.176 1.67,-0.09 0.82,-0.059 0.82,-0.027 0.82,-0.059 0.83,-0.031 h 0.41 l 0.41,-0.027 0.82,-0.031 h 0.41 l 0.41,-0.028 h 0.41 l 0.41,-0.031 M 74.8477,169.695 H 800.688 l 1.457,0.028 h 5.828 l 0.41,0.031 h 3.574 l 0.793,0.027 h 1.992 l 0.379,0.032 h 1.582 l 0.793,0.027 h 0.789 l 0.793,0.031 1.61,0.027 h 0.382 l 0.41,0.032 h 0.79 l 0.382,0.027 h 0.411 l 0.789,0.031 h 0.41 l 0.383,0.028 2.371,0.089 h 0.41 l 0.383,0.028 0.789,0.031 0.82,0.059 0.793,0.027 0.379,0.031 0.41,0.028 2.375,0.175 0.379,0.032 0.351,0.027 0.762,0.059 0.352,0.031 0.383,0.027 0.73,0.09 0.383,0.027 0.351,0.032 0.762,0.086 1.465,0.214 0.379,0.02 0.391,0.059 0.722,0.117 0.352,0.058 0.383,0.059 0.73,0.117 0.383,0.059 0.379,0.09 0.734,0.117 1.465,0.32 0.762,0.176 0.73,0.176 0.383,0.089 0.352,0.118 0.761,0.203 0.352,0.097 0.379,0.11 0.734,0.234 1.492,0.496 0.352,0.149 0.383,0.117 0.73,0.293 1.496,0.644 0.352,0.176 0.379,0.176 0.734,0.351 1.492,0.79 0.352,0.214 0.383,0.227 0.73,0.437 1.438,0.969 0.378,0.262 0.352,0.266 0.734,0.554 1.434,1.172 0.383,0.324 0.351,0.321 0.731,0.675 1.437,1.465 0.379,0.379 0.352,0.383 0.734,0.82 1.465,1.758 0.352,0.469 0.351,0.496 0.731,0.969 1.464,2.136 0.352,0.559 0.352,0.586 0.734,1.172 1.465,2.547 0.351,0.675 0.379,0.672 0.703,1.438 1.465,3.015 2.903,6.856 0.41,1.027 0.379,1.024 0.793,2.168 1.582,4.57 0.379,1.203 0.41,1.258 0.761,2.519 1.582,5.422 0.411,1.407 0.382,1.464 0.79,2.989 1.582,6.297 3.136,14.152 0.41,1.902 0.379,1.934 0.793,4.016 1.582,8.406 0.379,2.199 0.41,2.227 0.793,4.57 1.551,9.551 0.41,2.488 0.383,2.551 0.789,5.156 1.582,10.809 3.164,23.554 0.352,2.93 0.383,2.93 0.73,6.007 1.465,12.45 2.93,26.632 5.89,59.942 0.379,4.012 0.352,4.074 0.734,8.23 1.465,16.789 2.957,35.008 5.891,74.649 0.379,5.211 0.41,5.253 0.793,10.543 1.582,21.239 3.191,42.894 6.387,85.25 0.383,5.215 0.41,5.191 0.789,10.313 1.613,20.324 3.164,39.031 0.82,9.375 0.79,9.161 1.582,17.785 3.195,32.933 0.379,3.598 0.351,3.551 0.762,6.883 1.496,13.097 0.352,3.133 0.379,3.043 0.734,5.918 1.492,11.051 0.383,2.578 0.379,2.519 0.734,4.829 0.379,2.32 0.352,2.226 0.761,4.247 0.352,2.027 0.383,1.933 0.762,3.629 0.351,1.723 0.379,1.617 0.734,3.043 0.379,1.379 0.383,1.32 0.36,1.258 0.371,1.145 0.382,1.09 0.379,0.996 0.352,0.937 0.391,0.813 0.371,0.757 0.351,0.676 0.383,0.584 0.379,0.54 0.351,0.4 0.383,0.35 0.379,0.26 0.383,0.21 0.352,0.1 0.378,0.02 0.383,-0.05 0.352,-0.16 0.379,-0.23 0.383,-0.32 0.351,-0.38 0.379,-0.46 0.383,-0.57 0.379,-0.645 0.351,-0.731 0.383,-0.793 0.379,-0.875 0.352,-0.968 0.761,-2.168 0.352,-1.172 0.383,-1.258 0.73,-2.719 0.352,-1.504 0.351,-1.554 0.735,-3.336 0.379,-1.786 0.351,-1.839 0.734,-3.938 1.465,-8.668 0.352,-2.336 0.379,-2.441 0.734,-5.039 1.465,-10.836 0.352,-2.875 0.351,-2.922 0.731,-6.07 1.464,-12.832 0.383,-3.34 0.352,-3.391 0.73,-7.008 1.465,-14.554 2.902,-31.477 5.855,-70.312 0.38,-5.028 0.41,-5.07 0.8,-10.235 1.58,-20.703 3.16,-42.16 6.33,-85.23 0.38,-5.27 0.41,-5.246 0.79,-10.512 1.58,-20.777 3.17,-40.633 6.33,-75.969 0.38,-4.187 0.35,-4.133 0.73,-8.172 1.5,-15.996 2.95,-30.351 0.36,-3.633 0.38,-3.606 0.73,-7.089 1.46,-13.77 2.96,-25.781 0.38,-3.074 0.38,-3.02 0.74,-5.945 1.46,-11.457 2.96,-21.211 0.38,-2.489 0.35,-2.461 0.74,-4.835 1.49,-9.227 2.96,-16.875 0.38,-2.141 0.41,-2.109 0.79,-4.07 1.61,-7.766 0.41,-1.844 0.38,-1.816 0.82,-3.516 1.59,-6.711 0.41,-1.582 0.41,-1.55 0.79,-3.047 1.58,-5.715 3.22,-10.137 0.38,-1.141 0.41,-1.113 0.8,-2.199 1.61,-4.07 0.41,-0.969 0.38,-0.938 0.82,-1.816 1.58,-3.398 0.41,-0.821 0.42,-0.761 0.78,-1.524 1.61,-2.812 0.38,-0.672 0.41,-0.645 0.79,-1.23 1.61,-2.317 0.39,-0.527 0.41,-0.496 0.76,-0.996 1.58,-1.848 0.41,-0.437 0.38,-0.442 0.79,-0.789 1.55,-1.496 0.41,-0.352 0.38,-0.351 0.8,-0.645 1.58,-1.199 0.38,-0.265 0.38,-0.293 0.79,-0.528 1.58,-0.937 0.38,-0.235 0.41,-0.203 0.79,-0.41 0.77,-0.41 0.79,-0.352 0.41,-0.168 0.38,-0.183 0.79,-0.324 1.58,-0.586 0.38,-0.145 0.38,-0.117 0.79,-0.266 0.41,-0.117 0.39,-0.117 0.79,-0.234 0.38,-0.118 0.41,-0.086 0.76,-0.207 1.58,-0.351 0.38,-0.086 0.35,-0.059 0.74,-0.148 0.38,-0.059 0.35,-0.086 0.73,-0.117 0.38,-0.058 0.35,-0.059 0.74,-0.117 1.46,-0.207 0.38,-0.028 0.35,-0.058 0.74,-0.09 0.38,-0.027 0.35,-0.032 0.73,-0.086 0.38,-0.031 0.35,-0.027 0.74,-0.059 1.46,-0.148 h 0.38 l 0.35,-0.028 0.73,-0.058 0.39,-0.031 0.35,-0.028 0.73,-0.031 0.38,-0.027 h 0.35 l 0.73,-0.059 1.5,-0.059 0.35,-0.031 h 0.38 l 0.73,-0.027 0.35,-0.031 h 0.39 l 0.73,-0.028 h 0.35 l 0.38,-0.031 h 0.73 l 1.47,-0.059 h 0.79 l 0.79,-0.027 h 0.79 l 0.79,-0.031 h 0.79 l 0.79,-0.027 1.62,-0.032 h 2.37 l 0.79,-0.027 h 3.19 l 0.38,-0.031 h 6.77 l 0.79,-0.028 h 126.92 m -1197.6023,0 H 651.324 l 0.379,0.028 h 6.301 l 0.762,0.031 h 3.691 l 0.731,0.027 h 1.816 l 0.351,0.032 h 0.735 l 1.465,0.027 h 0.73 l 0.735,0.031 h 1.433 l 0.383,0.027 h 0.352 l 0.73,0.032 1.465,0.027 h 0.351 l 0.383,0.031 0.703,0.028 h 0.731 l 0.734,0.031 0.379,0.027 h 0.352 l 0.734,0.031 1.465,0.086 h 0.351 l 0.352,0.032 0.73,0.058 h 0.383 l 0.352,0.028 0.73,0.058 0.352,0.031 h 0.383 l 0.73,0.059 1.438,0.117 0.41,0.059 0.379,0.027 0.793,0.09 0.41,0.027 0.379,0.032 0.801,0.117 0.402,0.027 0.379,0.059 0.793,0.097 1.582,0.227 0.41,0.059 0.379,0.085 0.793,0.118 0.41,0.09 0.379,0.058 0.793,0.176 0.379,0.058 0.41,0.086 0.793,0.176 1.582,0.41 0.379,0.09 0.41,0.117 0.793,0.235 0.379,0.117 0.41,0.144 0.793,0.266 0.379,0.117 0.41,0.145 0.793,0.293 1.582,0.644 0.379,0.176 0.41,0.207 0.793,0.379 0.379,0.176 0.383,0.207 0.789,0.437 0.41,0.235 0.383,0.207 0.789,0.496 1.582,1.055 0.391,0.265 0.343,0.262 0.762,0.558 1.465,1.2 0.379,0.324 0.351,0.351 0.735,0.672 1.492,1.496 0.351,0.379 0.383,0.411 0.731,0.851 1.465,1.785 0.382,0.5 0.352,0.469 0.762,1.023 1.464,2.2 0.379,0.554 0.352,0.618 0.734,1.199 1.493,2.636 0.351,0.676 0.383,0.731 0.73,1.437 1.465,3.133 0.383,0.82 0.352,0.852 0.761,1.726 1.465,3.692 2.957,8.351 0.383,1.231 0.41,1.258 0.789,2.578 1.613,5.539 0.379,1.465 0.411,1.472 0.793,3.067 1.609,6.476 0.391,1.707 0.402,1.719 0.789,3.547 1.613,7.5 3.192,16.727 0.41,2.257 0.383,2.286 0.789,4.687 1.613,9.844 3.191,21.621 0.41,2.871 0.383,2.93 0.821,5.976 1.582,12.449 3.191,26.926 0.41,3.485 0.383,3.546 0.789,7.176 1.555,14.856 3.164,31.609 6.269,70.406 0.379,4.688 0.41,4.719 0.762,9.543 1.582,19.394 3.137,40.02 6.269,83.351 0.379,4.918 0.352,4.93 2.199,29.613 2.93,39.207 0.351,4.856 0.379,4.839 0.735,9.637 1.464,19.106 2.93,37.082 0.352,4.508 0.379,4.515 0.734,8.883 1.465,17.34 2.93,32.812 0.351,3.903 0.352,3.859 0.73,7.59 1.465,14.527 2.93,26.457 0.41,3.278 0.383,3.226 0.789,6.242 0.41,2.985 0.41,2.933 0.793,5.594 0.379,2.703 0.41,2.602 0.793,4.945 1.582,8.977 0.41,2.015 0.379,1.934 0.793,3.597 0.41,1.676 0.379,1.582 0.793,2.899 0.41,1.324 0.379,1.23 0.41,1.137 0.383,1.063 0.41,0.937 0.41,0.844 0.379,0.785 0.411,0.678 0.382,0.55 0.41,0.51 0.379,0.41 0.411,0.29 0.382,0.2 0.411,0.13 0.378,0.02 0.411,-0.08 0.41,-0.15 0.383,-0.27 0.418,-0.35 0.371,-0.46 0.41,-0.54 0.383,-0.645 0.41,-0.691 0.379,-0.832 0.41,-0.903 0.383,-1 0.41,-1.109 0.379,-1.168 0.41,-1.293 0.41,-1.348 0.793,-3.019 0.379,-1.61 0.41,-1.734 0.793,-3.719 0.379,-1.953 0.41,-2.09 0.793,-4.394 0.379,-2.168 0.351,-2.227 0.762,-4.687 1.465,-10.223 0.383,-2.723 0.351,-2.812 0.762,-5.777 1.465,-12.329 0.379,-3.222 0.391,-3.305 0.722,-6.777 1.465,-14.235 2.961,-30.937 0.379,-4.074 0.383,-4.129 0.73,-8.379 1.496,-17.258 2.957,-36.18 5.918,-77.105 0.352,-4.84 0.383,-4.863 0.73,-9.754 1.438,-19.567 2.898,-39.175 5.832,-76.903 0.703,-9.375 0.731,-9.254 1.464,-18.347 2.903,-35.504 5.801,-65.715 0.41,-4.16 0.379,-4.129 0.793,-8.176 1.582,-15.82 3.132,-29.707 0.411,-3.516 0.382,-3.484 0.79,-6.856 1.582,-13.215 3.136,-24.46 0.41,-2.872 0.379,-2.843 0.793,-5.535 1.582,-10.637 0.379,-2.547 0.41,-2.52 0.793,-4.921 1.551,-9.407 0.41,-2.254 0.383,-2.226 0.789,-4.336 1.582,-8.262 3.164,-14.855 0.352,-1.582 0.383,-1.582 0.73,-3.075 1.465,-5.8 0.383,-1.379 0.351,-1.375 0.731,-2.637 1.465,-5.039 0.382,-1.172 0.352,-1.203 0.762,-2.254 1.465,-4.309 2.929,-7.644 0.379,-0.879 0.352,-0.852 0.734,-1.668 1.465,-3.078 0.762,-1.464 0.73,-1.375 1.465,-2.61 0.352,-0.613 0.382,-0.617 0.731,-1.172 1.465,-2.168 0.382,-0.496 0.352,-0.5 0.731,-0.965 1.496,-1.817 0.379,-0.441 0.41,-0.43 0.793,-0.886 1.582,-1.582 0.41,-0.352 0.41,-0.383 0.789,-0.672 1.582,-1.261 0.41,-0.293 0.383,-0.293 0.82,-0.555 1.582,-1.027 0.411,-0.235 0.378,-0.203 0.793,-0.441 1.61,-0.789 0.383,-0.207 0.41,-0.176 0.789,-0.32 0.41,-0.176 0.383,-0.149 0.82,-0.32 0.379,-0.148 0.41,-0.118 0.793,-0.293 1.582,-0.468 0.82,-0.235 0.79,-0.203 0.382,-0.09 0.411,-0.086 0.789,-0.175 0.41,-0.09 0.383,-0.086 0.82,-0.176 1.582,-0.266 0.379,-0.058 0.351,-0.059 0.762,-0.117 0.352,-0.058 0.382,-0.059 0.762,-0.086 0.352,-0.059 0.379,-0.031 0.734,-0.086 1.492,-0.176 0.762,-0.058 0.734,-0.059 0.379,-0.058 0.352,-0.032 0.761,-0.058 0.352,-0.028 h 0.383 l 0.762,-0.058 1.464,-0.09 0.762,-0.059 0.731,-0.027 0.382,-0.031 h 0.379 l 0.743,-0.028 0.371,-0.031 h 0.351 l 0.762,-0.027 1.496,-0.059 h 0.352 l 0.378,-0.031 0.735,-0.027 h 0.762 l 0.73,-0.032 h 0.762 l 0.734,-0.027 1.492,-0.031 h 0.735 l 0.73,-0.027 h 1.438 l 0.379,-0.032 h 2.55 l 0.352,-0.027 h 3.281 l 0.731,-0.031 h 5.859 l 1.437,-0.028 h 276.595 m -1197.6023,0 H 501.887 l 0.371,0.028 h 6.359 l 0.383,0.031 h 3.168 l 0.785,0.027 h 2.352 l 0.718,0.032 h 1.477 l 0.371,0.027 h 1.117 l 1.465,0.031 0.383,0.027 h 1.105 l 0.356,0.032 h 0.383 l 0.738,0.027 h 0.723 l 0.765,0.031 1.461,0.059 0.387,0.027 h 0.351 l 0.754,0.031 0.356,0.028 h 0.383 l 0.734,0.058 h 0.387 l 0.34,0.032 0.765,0.027 1.461,0.09 0.387,0.027 0.351,0.031 0.766,0.059 0.344,0.027 0.383,0.032 0.734,0.058 0.387,0.028 0.347,0.058 0.758,0.059 1.461,0.148 0.414,0.059 0.383,0.058 0.82,0.086 0.379,0.059 0.414,0.059 0.789,0.117 0.825,0.117 0.785,0.148 1.613,0.293 0.387,0.086 0.398,0.09 0.797,0.176 0.402,0.086 0.418,0.117 0.793,0.207 0.403,0.086 0.386,0.117 0.825,0.235 1.601,0.5 0.387,0.144 0.41,0.148 0.785,0.293 0.414,0.176 0.414,0.145 0.789,0.351 0.411,0.176 0.382,0.176 0.817,0.383 1.582,0.847 0.418,0.207 0.398,0.235 0.801,0.496 1.609,1.055 0.371,0.293 0.418,0.292 0.793,0.618 1.606,1.347 0.383,0.352 0.41,0.351 0.789,0.762 1.551,1.641 0.414,0.41 0.383,0.469 0.785,0.906 1.586,2.023 0.382,0.528 0.415,0.554 0.785,1.145 1.554,2.461 0.411,0.644 0.382,0.672 0.789,1.379 1.582,2.957 0.379,0.793 0.387,0.821 0.785,1.667 1.582,3.575 0.383,0.937 0.402,0.969 0.797,1.992 1.555,4.246 0.414,1.145 1.168,3.515 1.582,5.039 3.133,11.368 0.387,1.433 0.339,1.465 0.739,3.02 1.461,6.355 0.386,1.672 0.352,1.668 0.73,3.457 1.496,7.266 0.352,1.906 0.387,1.933 0.718,3.926 1.477,8.231 2.926,18.047 0.351,2.402 0.379,2.433 0.739,4.981 1.461,10.34 2.921,22.414 0.383,2.957 0.356,2.988 0.734,6.094 1.492,12.629 2.938,26.953 0.371,3.809 0.414,3.867 0.797,7.879 1.582,16.203 3.179,34.277 6.364,75.348 0.418,4.98 0.371,5.008 0.793,10.082 1.617,20.426 3.164,41.801 6.383,85.578 0.351,4.98 0.379,5.008 0.735,9.957 1.504,19.809 2.976,38.933 0.352,4.778 0.383,4.746 0.73,9.437 1.496,18.539 2.957,35.547 0.383,4.27 0.379,4.215 0.734,8.359 1.492,16.137 0.352,3.921 0.383,3.872 0.73,7.558 1.496,14.528 0.379,3.492 0.383,3.422 0.731,6.714 1.496,12.653 0.351,2.996 0.379,2.949 0.734,5.688 1.493,10.543 0.351,2.441 0.383,2.34 0.731,4.515 0.351,2.133 0.383,2.082 0.703,3.93 0.379,1.848 0.351,1.781 0.735,3.367 0.379,1.555 0.351,1.488 0.735,2.766 0.351,1.257 0.379,1.204 0.352,1.105 0.383,1.027 0.351,0.965 0.352,0.879 0.379,0.789 0.351,0.735 0.383,0.644 0.352,0.584 0.378,0.48 0.352,0.4 0.352,0.35 0.382,0.26 0.352,0.18 0.379,0.1 0.351,0.02 0.383,-0.05 0.352,-0.16 0.351,-0.2 0.379,-0.32 0.352,-0.35 0.383,-0.48 0.351,-0.52 0.379,-0.614 0.352,-0.676 0.351,-0.754 0.383,-0.859 0.352,-0.91 0.378,-0.997 0.735,-2.214 0.351,-1.231 0.352,-1.32 0.73,-2.813 0.383,-1.55 0.352,-1.59 0.73,-3.422 0.352,-1.844 0.383,-1.875 0.73,-4.016 1.438,-8.851 0.41,-2.609 0.379,-2.661 0.793,-5.574 1.59,-12.066 0.402,-3.199 0.379,-3.278 0.793,-6.762 1.582,-14.335 0.41,-3.75 0.379,-3.829 0.793,-7.793 1.582,-16.324 3.164,-35.219 0.379,-4.593 0.41,-4.66 0.793,-9.438 1.582,-19.332 3.164,-40.16 6.297,-84.117 0.391,-4.981 0.343,-4.972 0.762,-9.942 1.465,-19.859 2.957,-39.406 5.89,-76.079 0.379,-4.574 0.352,-4.57 0.734,-9.02 1.493,-17.754 2.929,-34.164 5.918,-62.199 0.383,-3.894 0.41,-3.84 0.789,-7.586 1.613,-14.649 3.192,-27.304 0.391,-3.223 0.402,-3.164 0.789,-6.242 1.613,-11.981 3.192,-21.945 0.41,-2.578 0.383,-2.52 0.789,-4.921 1.613,-9.403 0.41,-2.258 0.379,-2.226 0.82,-4.305 1.582,-8.234 0.41,-1.961 0.383,-1.934 0.821,-3.75 1.582,-7.148 3.191,-12.715 0.41,-1.438 0.383,-1.406 0.789,-2.722 1.555,-5.129 0.41,-1.2 0.379,-1.203 0.793,-2.312 1.582,-4.336 0.379,-1.028 0.383,-0.996 0.789,-1.961 1.582,-3.632 0.382,-0.879 0.379,-0.852 0.793,-1.609 1.582,-3.047 0.379,-0.703 0.41,-0.703 0.762,-1.348 1.582,-2.52 0.383,-0.585 0.41,-0.586 0.762,-1.114 1.582,-2.05 0.379,-0.5 0.41,-0.469 0.762,-0.906 1.582,-1.672 0.383,-0.379 0.41,-0.383 0.789,-0.731 1.554,-1.378 0.379,-0.293 0.352,-0.262 0.734,-0.559 1.465,-1.023 0.379,-0.235 0.352,-0.234 0.734,-0.469 1.465,-0.82 0.351,-0.176 0.379,-0.207 0.735,-0.351 1.464,-0.672 0.352,-0.149 0.379,-0.144 0.734,-0.293 1.465,-0.527 0.352,-0.118 0.379,-0.117 0.734,-0.234 0.352,-0.09 0.378,-0.117 0.735,-0.203 0.351,-0.09 0.379,-0.117 0.743,-0.176 1.457,-0.321 0.351,-0.058 0.352,-0.09 0.73,-0.144 0.383,-0.059 0.352,-0.059 0.73,-0.117 0.383,-0.09 0.351,-0.027 0.731,-0.117 1.465,-0.207 0.41,-0.059 0.383,-0.027 0.789,-0.09 0.41,-0.059 0.41,-0.027 0.793,-0.09 0.379,-0.027 0.41,-0.031 0.793,-0.086 1.582,-0.118 0.41,-0.031 0.379,-0.027 0.793,-0.059 h 0.41 l 0.379,-0.031 0.793,-0.059 h 0.41 l 0.379,-0.027 0.793,-0.031 1.61,-0.086 h 0.382 l 0.41,-0.031 0.79,-0.028 h 0.793 l 0.789,-0.031 0.41,-0.027 h 0.383 l 0.789,-0.032 1.582,-0.027 h 0.793 l 0.789,-0.031 h 0.82 l 0.793,-0.027 h 1.582 l 1.582,-0.032 h 0.73 l 0.762,-0.027 h 2.961 l 1.465,-0.031 h 5.918 l 0.379,-0.028 h 426.86 m -1197.6023,0 H 351.914 l 0.371,0.028 h 6.887 l 1.473,0.031 h 2.168 l 0.722,0.027 h 1.477 l 1.429,0.032 h 0.793 l 0.789,0.027 h 0.786 l 0.796,0.031 h 0.786 l 0.797,0.027 1.582,0.032 h 0.382 l 0.403,0.027 h 0.8 l 0.379,0.031 h 0.407 l 0.797,0.028 0.371,0.031 h 0.386 l 0.793,0.027 1.582,0.09 h 0.403 l 0.386,0.027 0.793,0.032 0.403,0.027 0.386,0.031 0.793,0.059 0.371,0.027 h 0.418 l 0.786,0.059 1.582,0.148 0.386,0.028 0.411,0.031 0.753,0.086 0.418,0.031 0.379,0.059 0.785,0.086 0.418,0.031 0.379,0.058 0.785,0.086 1.59,0.235 0.379,0.058 0.352,0.059 0.738,0.117 0.371,0.059 0.356,0.09 0.734,0.117 0.387,0.086 0.371,0.058 2.195,0.528 0.352,0.089 0.386,0.086 0.739,0.207 0.379,0.125 0.339,0.11 0.739,0.203 0.383,0.117 0.355,0.149 0.758,0.234 1.469,0.555 0.339,0.175 0.387,0.149 0.735,0.32 1.464,0.703 0.379,0.176 0.352,0.207 0.758,0.41 1.472,0.848 0.356,0.234 0.371,0.266 0.734,0.496 1.461,1.086 0.387,0.293 0.351,0.293 0.766,0.613 1.461,1.32 0.785,0.789 0.797,0.821 1.613,1.789 0.371,0.469 0.418,0.496 0.793,0.996 1.606,2.199 0.383,0.586 0.41,0.613 0.789,1.231 1.613,2.695 0.383,0.703 0.414,0.735 0.785,1.523 1.582,3.25 0.41,0.852 0.407,0.878 0.796,1.844 1.583,3.899 0.414,1.023 0.406,1.055 0.797,2.168 1.582,4.66 0.398,1.23 0.387,1.231 0.812,2.605 1.582,5.481 3.2,12.363 0.382,1.668 0.415,1.672 0.785,3.457 1.554,7.324 0.379,1.902 0.414,1.934 0.758,3.984 1.582,8.379 0.383,2.2 0.414,2.226 0.758,4.539 1.582,9.551 3.133,20.898 0.383,2.774 0.382,2.851 0.789,5.762 1.582,12.043 3.133,25.984 0.383,3.43 0.387,3.485 0.785,7.062 1.582,14.617 3.105,31.172 0.379,3.781 0.36,3.836 0.718,7.766 1.477,15.879 2.922,33.281 5.84,71.777 0.371,4.688 0.347,4.687 0.739,9.438 1.461,19.101 2.933,38.844 5.832,78.688 0.41,5.3 0.383,5.305 0.789,10.582 1.582,20.981 3.164,40.925 0.415,5.012 0.402,4.981 0.793,9.836 1.582,19.253 3.172,36.442 0.371,4.336 0.414,4.305 0.797,8.406 1.582,16.148 0.371,3.895 0.414,3.836 0.785,7.441 1.582,14.121 0.414,3.371 0.383,3.285 0.785,6.348 1.582,11.816 0.414,2.754 0.387,2.661 0.785,5.132 1.582,9.223 0.383,1.965 0.387,1.902 0.718,3.543 0.36,1.672 0.379,1.582 0.738,2.965 0.371,1.34 0.387,1.293 0.351,1.195 0.379,1.117 0.352,1.051 0.387,0.938 0.371,0.89 0.355,0.813 0.383,0.738 0.379,0.616 0.355,0.58 0.371,0.46 0.356,0.42 0.383,0.32 0.383,0.24 0.355,0.15 0.383,0.08 0.34,-0.02 0.386,-0.1 0.379,-0.15 0.352,-0.26 0.387,-0.32 0.371,-0.41 0.351,-0.5 0.387,-0.58 0.351,-0.647 0.383,-0.738 0.371,-0.817 0.356,-0.879 0.383,-0.996 0.734,-2.168 0.387,-1.23 0.34,-1.289 0.765,-2.813 0.352,-1.523 0.387,-1.582 0.722,-3.426 0.387,-1.813 0.351,-1.91 0.766,-4.035 1.461,-8.914 0.387,-2.402 0.347,-2.489 0.758,-5.16 1.461,-11.129 0.414,-3.195 0.383,-3.273 0.82,-6.778 1.582,-14.355 3.223,-31.906 0.387,-4.243 0.398,-4.308 0.797,-8.789 1.613,-18.164 3.215,-38.465 0.387,-4.981 0.41,-5.011 0.785,-10.129 1.617,-20.578 3.192,-42.235 6.414,-86.23 0.383,-5.305 0.41,-5.273 0.789,-10.512 1.551,-20.891 3.168,-40.984 0.382,-5.012 0.415,-5.008 0.785,-9.961 1.554,-19.574 3.164,-37.73 0.379,-4.571 0.387,-4.543 0.785,-8.964 1.582,-17.547 3.137,-33.254 0.414,-3.985 0.371,-3.953 0.797,-7.765 1.582,-15.059 3.133,-28.152 0.387,-3.106 0.339,-3.078 0.739,-6.062 1.461,-11.661 2.964,-21.652 0.352,-2.547 0.387,-2.519 0.718,-4.922 1.477,-9.465 2.926,-17.344 0.351,-2.019 0.379,-1.992 0.739,-3.899 1.461,-7.41 0.382,-1.789 0.356,-1.758 0.726,-3.398 1.457,-6.504 0.383,-1.582 0.356,-1.524 0.734,-2.988 1.492,-5.652 2.938,-10.137 0.371,-1.262 0.414,-1.23 0.797,-2.403 1.582,-4.511 0.402,-1.055 0.383,-1.023 0.812,-2.024 1.582,-3.777 0.418,-0.879 0.379,-0.879 0.793,-1.672 1.61,-3.133 0.383,-0.761 0.414,-0.704 0.785,-1.406 1.582,-2.578 0.418,-0.617 0.371,-0.586 0.793,-1.141 1.617,-2.109 0.383,-0.5 0.402,-0.496 0.797,-0.91 1.582,-1.727 0.398,-0.41 0.418,-0.383 0.786,-0.762 1.578,-1.375 0.418,-0.324 0.383,-0.32 0.781,-0.586 1.621,-1.113 0.351,-0.235 0.379,-0.234 0.735,-0.441 1.504,-0.821 0.371,-0.203 1.113,-0.559 1.492,-0.644 0.352,-0.145 0.383,-0.148 0.73,-0.293 1.496,-0.527 0.379,-0.118 0.352,-0.117 0.761,-0.234 1.465,-0.41 0.762,-0.176 0.734,-0.203 0.379,-0.059 0.352,-0.09 0.761,-0.175 0.352,-0.059 0.383,-0.086 0.73,-0.117 1.496,-0.266 0.762,-0.117 0.731,-0.086 0.382,-0.051 0.352,-0.066 0.762,-0.09 0.351,-0.058 0.379,-0.028 0.734,-0.09 1.493,-0.144 0.351,-0.031 0.383,-0.028 0.731,-0.058 0.351,-0.032 0.383,-0.027 0.703,-0.059 0.379,-0.031 0.351,-0.027 0.735,-0.031 1.465,-0.086 0.351,-0.032 0.379,-0.027 0.735,-0.031 h 0.351 l 0.352,-0.028 0.73,-0.031 h 0.383 l 0.352,-0.027 0.73,-0.031 1.465,-0.028 0.351,-0.031 h 0.383 l 0.703,-0.027 h 0.731 l 0.734,-0.032 h 0.379 l 0.352,-0.027 h 0.734 l 1.465,-0.031 h 0.703 l 0.73,-0.027 h 0.735 l 0.73,-0.032 h 1.465 l 1.438,-0.027 h 3.574 l 0.379,-0.031 h 6.328 l 0.793,-0.028 h 576.36 m -1197.6023,0 H 202.18 l 0.379,0.028 h 6.257 l 0.739,0.031 h 2.965 l 1.46,0.027 h 1.844 l 0.383,0.032 h 1.465 l 0.73,0.027 h 1.496 l 0.379,0.031 h 0.407 l 0.796,0.027 h 0.817 l 0.793,0.032 h 0.406 l 0.387,0.027 h 0.797 l 1.609,0.059 0.406,0.031 h 0.379 l 0.817,0.027 0.386,0.031 h 0.411 l 0.785,0.059 h 0.414 l 0.418,0.027 0.785,0.059 1.582,0.09 0.812,0.058 0.797,0.059 0.414,0.027 0.371,0.032 0.829,0.058 0.382,0.059 0.403,0.027 0.8,0.09 1.614,0.176 0.398,0.027 0.387,0.059 0.797,0.097 0.812,0.11 0.785,0.117 0.418,0.086 0.379,0.058 0.821,0.149 1.582,0.293 0.41,0.086 0.387,0.09 0.785,0.175 0.383,0.086 0.414,0.09 0.785,0.203 0.765,0.235 0.789,0.234 1.582,0.5 0.379,0.145 0.407,0.117 0.765,0.324 0.414,0.145 0.371,0.148 0.797,0.359 0.387,0.168 0.398,0.176 0.797,0.379 1.555,0.82 0.414,0.235 0.371,0.207 0.797,0.496 1.551,1.027 0.418,0.293 0.371,0.262 0.793,0.617 1.582,1.289 0.758,0.703 0.797,0.762 1.585,1.609 0.379,0.442 0.407,0.437 0.761,0.91 1.586,1.993 0.371,0.496 0.356,0.5 0.734,1.054 1.461,2.254 0.387,0.586 0.351,0.617 0.739,1.231 1.457,2.695 0.386,0.703 0.352,0.731 0.723,1.496 1.472,3.191 2.926,7.246 0.383,0.989 0.352,1.023 0.738,2.082 1.457,4.395 0.387,1.172 0.339,1.171 0.739,2.43 1.461,5.129 0.386,1.348 0.352,1.375 0.73,2.812 1.465,5.918 2.938,13.184 0.398,1.906 0.387,1.961 0.797,4.016 1.597,8.464 0.383,2.2 0.414,2.254 0.785,4.601 1.582,9.637 0.418,2.519 0.379,2.551 0.785,5.215 1.59,10.898 3.192,23.758 0.383,3.137 0.414,3.23 0.785,6.496 1.582,13.536 3.199,29.089 6.348,65.95 0.355,4.16 0.383,4.187 0.734,8.438 1.493,17.285 2.953,35.914 5.949,76.203 0.355,4.93 0.379,4.887 0.739,9.898 1.488,19.867 2.957,39.961 5.945,79.195 0.352,4.739 0.355,4.719 0.735,9.406 1.464,18.543 2.899,35.738 0.355,4.348 0.371,4.269 0.739,8.473 1.441,16.488 2.891,30.879 0.386,3.641 0.352,3.597 0.734,7.008 1.461,13.418 0.352,3.184 0.387,3.164 0.695,6.133 1.473,11.507 0.339,2.723 0.383,2.645 1.09,7.578 0.356,2.375 0.722,4.57 0.387,2.199 0.351,2.106 0.739,4.023 0.347,1.902 0.371,1.848 0.711,3.426 0.414,1.754 0.379,1.644 0.407,1.582 0.382,1.489 0.415,1.382 0.371,1.309 0.796,2.32 0.415,1.051 0.371,0.945 0.414,0.844 0.383,0.758 0.382,0.678 0.403,0.55 0.386,0.51 0.411,0.38 0.382,0.32 0.403,0.2 0.386,0.13 0.414,0.02 0.379,-0.08 0.407,-0.15 0.382,-0.27 0.415,-0.35 0.371,-0.41 0.386,-0.56 0.41,-0.612 0.383,-0.708 0.403,-0.816 0.386,-0.879 0.411,-0.996 0.382,-1.078 0.403,-1.148 0.386,-1.258 0.793,-2.785 0.403,-1.524 0.386,-1.609 0.793,-3.492 0.371,-1.875 0.418,-1.954 0.786,-4.164 1.582,-9.347 0.386,-2.547 0.411,-2.613 0.753,-5.473 1.582,-11.867 0.418,-3.133 0.379,-3.223 0.785,-6.656 1.59,-14.141 0.379,-3.461 0.352,-3.515 0.738,-7.18 1.461,-14.969 2.953,-32.226 5.899,-71.696 0.339,-4.738 0.387,-4.75 0.735,-9.554 1.464,-19.301 2.961,-39.289 5.887,-79.27 0.387,-5.336 0.398,-5.301 0.797,-10.605 1.613,-21.012 3.188,-41.074 0.383,-5.043 0.41,-5.008 0.789,-9.898 1.613,-19.516 3.164,-37.437 0.41,-4.543 0.407,-4.481 0.796,-8.84 1.583,-17.293 3.199,-32.668 0.398,-3.894 0.387,-3.867 0.812,-7.59 1.582,-14.707 3.2,-27.332 0.382,-3.164 0.415,-3.137 0.785,-6.152 1.554,-11.778 0.379,-2.871 0.414,-2.781 0.758,-5.508 1.582,-10.547 0.383,-2.519 0.414,-2.52 0.758,-4.863 1.582,-9.348 3.133,-16.933 0.765,-3.867 0.789,-3.75 1.582,-7.118 0.379,-1.699 0.387,-1.672 0.785,-3.25 1.582,-6.152 0.383,-1.465 0.387,-1.437 0.785,-2.782 1.582,-5.246 3.105,-9.316 0.379,-0.965 0.36,-0.969 0.718,-1.875 1.477,-3.543 0.371,-0.82 0.352,-0.82 0.738,-1.614 1.461,-2.988 0.355,-0.703 0.379,-0.672 0.739,-1.348 1.46,-2.492 0.352,-0.613 0.387,-0.559 0.691,-1.14 1.477,-2.082 0.371,-0.496 0.347,-0.469 0.739,-0.938 1.461,-1.73 0.355,-0.41 0.383,-0.379 0.734,-0.762 1.461,-1.437 0.352,-0.321 0.387,-0.324 0.726,-0.644 1.442,-1.141 0.371,-0.293 0.351,-0.266 0.738,-0.496 1.465,-0.937 0.41,-0.235 0.383,-0.234 0.789,-0.441 0.411,-0.235 0.382,-0.203 0.789,-0.383 0.411,-0.176 0.382,-0.203 0.789,-0.351 1.582,-0.617 0.817,-0.293 0.793,-0.293 0.387,-0.118 0.402,-0.117 0.793,-0.234 0.387,-0.117 0.406,-0.117 0.797,-0.204 1.582,-0.382 0.371,-0.086 0.414,-0.09 0.797,-0.176 0.371,-0.086 0.414,-0.058 0.797,-0.149 0.371,-0.059 0.414,-0.058 0.785,-0.145 1.582,-0.207 0.414,-0.058 0.383,-0.059 0.785,-0.086 0.414,-0.031 0.383,-0.059 0.785,-0.086 0.414,-0.031 0.387,-0.027 0.785,-0.09 1.582,-0.117 0.77,-0.059 0.718,-0.058 h 0.36 l 0.379,-0.028 0.738,-0.058 h 0.371 l 0.387,-0.032 2.195,-0.086 0.762,-0.058 h 0.726 l 0.356,-0.031 h 0.383 l 0.738,-0.028 0.383,-0.031 h 0.34 l 0.765,-0.027 1.461,-0.032 h 0.738 l 0.754,-0.027 h 0.356 l 0.383,-0.031 h 1.461 l 0.765,-0.027 h 1.461 l 0.387,-0.032 h 1.844 l 0.734,-0.027 h 3.367 L 539,169.723 h 6.41 l 0.797,-0.028 h 726.243 m -1197.6023,0.262 0.3515,0.031 h 0.3828 l 0.7266,0.028 h 0.3867 l 0.3516,0.031 0.7304,0.027 h 0.3868 l 0.3437,0.031 0.7344,0.028 1.4883,0.058 0.3593,0.032 0.379,0.027 0.7382,0.031 0.3516,0.028 0.3711,0.031 0.7383,0.058 h 0.3515 l 0.3868,0.028 0.7265,0.058 1.4688,0.149 0.3711,0.027 0.3554,0.031 0.7344,0.086 0.3867,0.032 0.3477,0.027 0.7304,0.09 0.379,0.058 0.3867,0.028 0.7226,0.117 1.4727,0.207 0.3555,0.059 0.371,0.058 0.7344,0.117 0.3516,0.059 0.3867,0.086 0.7227,0.148 0.3867,0.059 0.3515,0.086 0.7383,0.148 1.4571,0.352 0.4179,0.117 0.3985,0.086 0.7968,0.234 0.387,0.118 0.398,0.117 0.801,0.265 0.398,0.118 0.387,0.144 0.797,0.293 1.609,0.645 0.371,0.175 0.418,0.176 0.786,0.352 0.414,0.207 0.382,0.203 0.817,0.41 0.383,0.207 0.41,0.234 0.793,0.469 1.582,1.024 0.41,0.265 0.387,0.293 0.812,0.586 1.582,1.289 0.414,0.352 0.371,0.351 0.797,0.731 1.617,1.613 0.379,0.438 0.407,0.441 0.797,0.906 1.582,1.992 0.816,1.055 0.785,1.145 1.582,2.429 0.387,0.586 0.379,0.617 0.738,1.289 1.488,2.723 0.36,0.735 0.379,0.73 0.757,1.523 1.457,3.254 0.387,0.848 0.383,0.879 0.734,1.816 1.493,3.84 2.953,8.699 0.765,2.403 0.739,2.492 1.488,5.273 0.387,1.375 0.339,1.407 0.77,2.902 1.461,6.094 0.383,1.582 0.383,1.64 0.738,3.309 1.492,7.004 2.949,15.476 0.387,2.012 0.351,2.051 0.739,4.25 1.457,8.816 2.933,19.219 0.344,2.551 0.352,2.578 0.738,5.301 1.465,10.957 2.93,23.613 0.707,6.27 0.722,6.386 1.477,13.215 2.922,28.125 5.836,62.637 0.371,4.539 0.414,4.57 0.797,9.231 1.574,18.894 3.164,39.168 6.332,82.707 0.379,5.274 0.418,5.304 0.785,10.633 1.582,21.332 3.164,42.625 6.332,82.852 0.344,4.656 0.383,4.625 0.734,9.145 1.465,17.964 2.965,34.121 0.379,4.075 0.339,4.05 0.739,7.934 1.496,15.293 2.957,28.063 0.355,3.257 0.371,3.2 0.739,6.175 1.461,11.637 0.386,2.746 0.379,2.664 0.739,5.16 1.46,9.496 0.383,2.188 0.356,2.121 0.754,4.008 0.351,1.902 0.383,1.817 0.727,3.429 0.351,1.582 0.387,1.524 0.379,1.461 0.351,1.351 0.387,1.289 0.344,1.231 0.765,2.168 0.379,1.058 0.407,0.969 0.414,0.871 0.382,0.758 0.415,0.678 0.402,0.58 0.383,0.51 0.41,0.38 0.406,0.29 0.387,0.2 0.41,0.13 0.387,0.02 0.398,-0.08 0.414,-0.19 0.383,-0.26 0.414,-0.38 0.406,-0.47 0.379,-0.55 0.414,-0.643 0.403,-0.738 0.386,-0.844 0.411,-0.906 0.414,-1.032 0.371,-1.136 0.414,-1.211 0.418,-1.282 0.785,-2.906 0.41,-1.551 0.387,-1.671 0.785,-3.598 0.41,-1.938 0.402,-2.027 0.797,-4.301 0.414,-2.289 0.371,-2.371 0.829,-4.98 0.382,-2.61 0.403,-2.691 0.8,-5.656 1.614,-12.188 0.398,-3.254 0.387,-3.308 0.797,-6.856 1.597,-14.535 3.2,-32.168 0.41,-4.184 0.387,-4.281 0.785,-8.64 1.582,-17.922 3.136,-37.825 6.27,-81.39 0.414,-5.246 0.371,-5.239 0.797,-10.554 1.551,-21.149 3.164,-42.34 6.273,-82.871 0.371,-4.687 0.356,-4.688 0.734,-9.296 1.461,-18.278 2.934,-35.418 0.386,-4.308 0.352,-4.278 0.723,-8.465 1.472,-16.554 2.926,-31.61 0.383,-3.808 0.352,-3.781 0.738,-7.411 1.457,-14.472 2.926,-27.246 0.386,-3.254 0.352,-3.192 0.73,-6.328 1.465,-12.187 2.938,-22.707 0.398,-2.899 0.387,-2.871 0.797,-5.625 1.597,-10.723 0.383,-2.578 0.414,-2.55 0.785,-4.981 1.582,-9.461 0.418,-2.285 0.379,-2.258 0.785,-4.363 1.59,-8.293 3.192,-14.969 0.383,-1.73 0.414,-1.7 0.785,-3.281 1.582,-6.211 0.418,-1.492 0.371,-1.437 0.828,-2.813 1.582,-5.301 0.371,-1.261 0.414,-1.231 0.797,-2.402 1.582,-4.481 3.184,-7.851 0.355,-0.852 0.383,-0.789 0.734,-1.582 1.493,-2.961 0.382,-0.703 0.356,-0.672 0.726,-1.32 1.489,-2.461 0.386,-0.586 0.352,-0.586 0.766,-1.082 1.46,-2.051 0.754,-0.937 0.739,-0.91 1.492,-1.7 0.355,-0.41 1.118,-1.113 1.488,-1.406 0.351,-0.321 0.387,-0.293 0.727,-0.617 1.492,-1.113 0.383,-0.262 0.351,-0.265 0.77,-0.497 1.457,-0.91 0.765,-0.41 0.731,-0.41 1.488,-0.73 0.352,-0.149 0.355,-0.176 2.199,-0.879 0.352,-0.117 0.379,-0.144 0.711,-0.235 1.457,-0.461 0.355,-0.097 0.371,-0.117 0.739,-0.176 0.351,-0.086 0.352,-0.117 0.738,-0.149 0.371,-0.086 0.356,-0.09 0.734,-0.144 1.43,-0.293 0.386,-0.059 0.352,-0.058 0.734,-0.117 0.371,-0.059 0.36,-0.059 0.73,-0.117 0.352,-0.031 0.387,-0.059 0.695,-0.086 1.473,-0.175 0.339,-0.032 0.383,-0.058 0.738,-0.059 0.708,-0.058 0.722,-0.086 0.387,-0.032 0.351,-0.027 0.739,-0.031 1.429,-0.117 0.414,-0.028 h 0.379 l 0.789,-0.058 0.415,-0.032 h 0.371 l 0.796,-0.058 h 0.415 l 0.371,-0.028 2.379,-0.089 0.382,-0.028 h 0.403 l 0.8,-0.031 h 0.379 l 0.407,-0.027 h 0.797 l 0.371,-0.032 h 0.386 l 0.793,-0.027 1.582,-0.031 h 0.789 l 0.793,-0.027 h 1.953 l 0.418,-0.032 h 2.368 l 0.386,-0.027 h 3.164 l 0.379,-0.031 h 6.797 l 1.461,-0.028 h 874.872"
         style="fill:none;stroke:#3871c1;stroke-width:7.5;stroke-linecap:square;stroke-linejoin:miter;stroke-miterlimit:3.25;stroke-dasharray:none;stroke-opacity:1"
         transform="matrix(0.13333333,0,0,-0.13333333,0,134.14667)" />
      <path
         id="path3"
         d="m 1674.85,169.695 h 523.7 l 0.36,113.438 0.38,2.226 0.35,2.254 0.39,2.317 0.73,4.715 0.35,2.402 0.38,2.433 0.73,4.981 1.47,10.34 2.93,22.414 0.37,2.957 0.36,2.988 0.73,6.094 1.5,12.629 2.93,26.953 0.38,3.809 0.41,3.867 0.8,7.879 1.58,16.203 3.18,34.277 6.36,75.348 0.42,4.98 0.37,5.008 0.79,10.082 1.61,20.426 3.17,41.801 6.38,85.578 0.36,4.98 0.38,5.008 0.73,9.957 1.5,19.809 2.98,38.933 0.35,4.778 0.38,4.746 0.74,9.437 1.49,18.539 2.96,35.547 0.38,4.27 0.38,4.215 0.73,8.359 1.5,16.137 0.35,3.921 0.38,3.872 0.73,7.558 1.5,14.528 0.38,3.492 0.38,3.422 0.73,6.714 1.49,12.653 0.36,2.996 0.38,2.949 0.73,5.688 1.49,10.543 0.36,2.441 0.38,2.34 0.73,4.515 0.35,2.133 0.38,2.082 0.7,3.93 0.38,1.848 0.36,1.781 0.73,3.367 0.38,1.555 0.35,1.488 0.73,2.766 0.36,1.257 0.38,1.204 0.35,1.105 0.38,1.027 0.35,0.965 0.35,0.879 0.38,0.789 0.35,0.735 0.38,0.644 0.36,0.584 0.38,0.48 0.35,0.4 0.35,0.35 0.38,0.26 0.35,0.18 0.38,0.1 0.36,0.02 0.38,-0.05 0.35,-0.16 0.35,-0.2 0.38,-0.32 0.35,-0.35 0.38,-0.48 0.35,-0.52 0.39,-0.614 0.35,-0.676 0.35,-0.754 0.38,-0.859 0.35,-0.91 0.38,-0.997 0.73,-2.214 0.36,-1.231 0.35,-1.32 0.73,-2.813 0.38,-1.55 0.35,-1.59 0.73,-3.422 0.36,-1.844 0.38,-1.875 0.73,-4.016 1.43,-8.851 0.41,-2.609 0.39,-2.661 0.79,-5.574 1.59,-12.066 0.4,-3.199 0.38,-3.278 0.79,-6.762 1.58,-14.335 0.41,-3.75 0.38,-3.829 0.79,-7.793 1.59,-16.324 3.16,-35.219 0.38,-4.593 0.41,-4.66 0.79,-9.438 1.58,-19.332 3.17,-40.16 6.3,-84.117 0.39,-4.981 0.34,-4.972 0.76,-9.942 1.47,-19.859 2.96,-39.406 5.88,-76.079 0.39,-4.574 0.35,-4.57 0.73,-9.02 1.49,-17.754 2.93,-34.164 5.92,-62.199 0.38,-3.894 0.41,-3.84 0.79,-7.586 1.61,-14.649 3.2,-27.304 0.39,-3.223 0.4,-3.164 0.79,-6.242 1.61,-11.981 0.38,-2.871 0.41,-2.843 0.79,-5.567 1.61,-10.664 0.41,-2.578 0.39,-2.52 0.41,-2.488 0.38,-2.433 0.41,-113.993 h 523.77"
         style="fill:none;stroke:#3871c1;stroke-width:7.5;stroke-linecap:square;stroke-linejoin:miter;stroke-miterlimit:3.25;stroke-dasharray:none;stroke-opacity:1"
         transform="matrix(0.13333333,0,0,-0.13333333,0,134.14667)" />
      <path
         id="path4"
         d="m 2.6962797,1.3230128 c -0.890625,-0.76171874 -1.40625,-2.20312499 -1.40625,-3.75 0,-1.546875 0.515625,-3 1.40625,-3.75 L 2.5439359,-6.3879247 c -1.3242187,0.9023438 -1.91015621,2.3320313 -1.91015621,3.9492188 0,1.62890621 0.58593751,3.08203121 1.91015621,3.9609375 z m 4.321289,-1.67578124 -0.09375,-0.234375 c -0.09375,0.0585938 -0.2226562,0.10546875 -0.328125,0.10546875 -0.1523437,0 -0.3164062,-0.140625 -0.3164062,-0.55078121 v -1.6640625 c 0,-0.46875 -0.082031,-0.84375 -0.3984375,-1.1015625 -0.1992188,-0.1640625 -0.46875,-0.2460938 -0.7382813,-0.2460938 -0.515625,0.1054688 -1.1015625,0.4570313 -1.3476562,0.6328125 -0.1757813,0.1289063 -0.2929688,0.2226563 -0.2929688,0.3632813 0,0.1992187 0.234375,0.3867187 0.3984375,0.3867187 0.1289063,0 0.2226563,-0.070312 0.2578125,-0.2109375 0.070312,-0.28125 0.1523438,-0.4804687 0.2695313,-0.5976562 0.09375,-0.1054688 0.2226562,-0.1757813 0.4101562,-0.1757813 0.4453125,0 0.75,0.3632813 0.75,1.0195313 v 0.1640625 c -0.1992187,0.1523437 -0.8554687,0.3984375 -1.3945312,0.5742187 -0.4921875,0.1757813 -0.7265625,0.4570313 -0.7265625,0.90234376 0,0.5625 0.4453125,1.08984375 1.078125,1.08984375 0.2695312,0 0.703125,-0.328125 1.0664062,-0.57421875 0.046875,0.15234375 0.09375,0.28125 0.2109375,0.41015625 0.1054688,0.08203125 0.2929688,0.1640625 0.421875,0.1640625 z M 5.5878812,-0.76292469 c -0.1640625,0.1640625 -0.4804687,0.31640625 -0.7148437,0.328125 -0.28125,0 -0.6445313,-0.22265625 -0.6445313,-0.69140621 0,-0.328125 0.1992188,-0.4921875 0.5507813,-0.65625 0.1875,-0.09375 0.6210937,-0.28125 0.8085937,-0.375 z M 7.4746,-6.1769872 c 0.890625,0.7382813 1.4179687,2.203125 1.4179687,3.75 0,1.54687501 -0.5039062,2.98828126 -1.4179687,3.75 L 7.6386625,1.5222316 C 8.9863187,0.60816906 9.5371,-0.80979969 9.5371,-2.4269872 c 0,-1.6289062 -0.5507813,-3.0585937 -1.8984375,-3.9609375 z m 154.91016,7.5 c -0.89063,-0.76171874 -1.40625,-2.20312499 -1.40625,-3.75 0,-1.546875 0.51562,-3 1.40625,-3.75 l -0.15235,-0.2109375 c -1.32422,0.9023438 -1.91015,2.3320313 -1.91015,3.9492188 0,1.62890621 0.58593,3.08203121 1.91015,3.9609375 z m 1.79004,-4.9570312 v -2.7773438 c -0.33985,0.1171875 -0.89063,0.2578125 -1.3125,0.3164063 v 0.2109375 c 0.58593,0.046875 0.59765,0.1054687 0.59765,0.6679687 v 5.00390626 c 0.49219,0.234375 0.94922,0.31640625 1.32422,0.31640625 1.20703,0 2.26172,-0.9375 2.26172,-2.26171871 0,-1.0546875 -0.80859,-1.8867188 -1.78125,-1.8867188 -0.0937,0 -0.22266,0.023437 -0.36328,0.09375 z m 0,0.2695312 c 0.16406,-0.1054687 0.44531,-0.1757812 0.70312,-0.1757812 0.73828,0 1.37109,0.5976562 1.37109,1.6171875 0,1.05468746 -0.48046,1.68749996 -1.21875,1.68749996 -0.48046,-0.0117188 -0.75,-0.328125 -0.80859,-0.50390625 -0.0352,-0.0820313 -0.0469,-0.17578125 -0.0469,-0.30468751 z m 3.6123,-2.8125 c 0.89062,0.7382813 1.41797,2.203125 1.41797,3.75 0,1.54687501 -0.50391,2.98828126 -1.41797,3.75 l 0.16406,0.1992188 c 1.34766,-0.91406254 1.89844,-2.33203129 1.89844,-3.9492188 0,-1.6289062 -0.55078,-3.0585937 -1.89844,-3.9609375 z m 0,0"
         style="fill:#231f20;fill-opacity:1;fill-rule:nonzero;stroke:none"
         aria-label="(a)(b)"
         transform="matrix(1.3333333,0,0,1.3333333,83.033867,129.82583)" />
      <path
         id="path5"
         d="M 673.648,169.695 V 1002.37 M 0,169.695 h 1347.3"
         style="fill:none;stroke:#231f20;stroke-width:5;stroke-linecap:butt;stroke-linejoin:miter;stroke-miterlimit:3.25;stroke-dasharray:none;stroke-opacity:1"
         transform="matrix(0.13333333,0,0,-0.13333333,0,134.14667)" />
      <path
         id="path6"
         d="M 2273.65,169.695 V 1002.37 M 1600,169.695 h 1347.3"
         style="fill:none;stroke:#231f20;stroke-width:5;stroke-linecap:butt;stroke-linejoin:miter;stroke-miterlimit:3.25;stroke-dasharray:none;stroke-opacity:1"
         transform="matrix(0.13333333,0,0,-0.13333333,0,134.14667)" />
    </g>
  </g>
</svg>
