<?xml version="1.0" encoding="UTF-8" standalone="no"?>
<!-- Created with Inkscape (http://www.inkscape.org/) -->

<svg
   version="1.1"
   id="svg1"
   width="405.77332"
   height="137.42667"
   viewBox="0 0 405.77332 137.42667"
   sodipodi:docname="pha08f01.eps"
   xmlns:inkscape="http://www.inkscape.org/namespaces/inkscape"
   xmlns:sodipodi="http://sodipodi.sourceforge.net/DTD/sodipodi-0.dtd"
   xmlns="http://www.w3.org/2000/svg"
   xmlns:svg="http://www.w3.org/2000/svg">
  <defs
     id="defs1" />
  <sodipodi:namedview
     id="namedview1"
     pagecolor="#ffffff"
     bordercolor="#000000"
     borderopacity="0.25"
     inkscape:showpageshadow="2"
     inkscape:pageopacity="0.0"
     inkscape:pagecheckerboard="0"
     inkscape:deskcolor="#d1d1d1">
    <inkscape:page
       x="0"
       y="0"
       inkscape:label="1"
       id="page1"
       width="405.77332"
       height="137.42667"
       margin="0"
       bleed="0" />
  </sodipodi:namedview>
  <g
     id="g1"
     inkscape:groupmode="layer"
     inkscape:label="1">
    <g
       id="group-R5">
      <path
         id="path2"
         d="m 2.6967203,1.3239503 c -0.890625,-0.76171874 -1.40625,-2.20312499 -1.40625,-3.75 0,-1.546875 0.515625,-3 1.40625,-3.75 L 2.5443766,-6.3869872 c -1.3242188,0.9023438 -1.91015629,2.3320313 -1.91015629,3.9492188 0,1.62890621 0.58593749,3.08203121 1.91015629,3.9609375 z m 3.8935547,-1.67578124 -0.09375,-0.234375 c -0.09375,0.0585938 -0.2226563,0.10546875 -0.328125,0.10546875 -0.1523438,0 -0.3164063,-0.140625 -0.3164063,-0.55078121 v -1.6640625 c 0,-0.46875 -0.082031,-0.84375 -0.3984375,-1.1015625 C 5.2543375,-3.9612059 4.9848062,-4.0432372 4.715275,-4.0432372 4.19965,-3.9377684 3.6137125,-3.5862059 3.3676187,-3.4104247 3.1918375,-3.2815184 3.07465,-3.1877684 3.07465,-3.0471434 c 0,0.1992187 0.234375,0.3867187 0.3984375,0.3867187 0.1289062,0 0.2226562,-0.070312 0.2578125,-0.2109375 0.070312,-0.28125 0.1523437,-0.4804687 0.2695312,-0.5976562 0.09375,-0.1054688 0.2226563,-0.1757813 0.4101563,-0.1757813 0.4453125,0 0.75,0.3632813 0.75,1.0195313 v 0.1640625 c -0.1992188,0.1523437 -0.8554688,0.3984375 -1.3945313,0.5742187 -0.4921875,0.1757813 -0.7265625,0.4570313 -0.7265625,0.90234376 0,0.5625 0.4453125,1.08984375 1.078125,1.08984375 0.2695313,0 0.703125,-0.328125 1.0664063,-0.57421875 0.046875,0.15234375 0.09375,0.28125 0.2109375,0.41015625 0.1054687,0.08203125 0.2929687,0.1640625 0.421875,0.1640625 z M 5.1605875,-0.76198719 c -0.1640625,0.1640625 -0.4804688,0.31640625 -0.7148438,0.328125 -0.28125,0 -0.6445312,-0.22265625 -0.6445312,-0.69140621 0,-0.328125 0.1992187,-0.4921875 0.5507812,-0.65625 0.1875,-0.09375 0.6210938,-0.28125 0.8085938,-0.375 z M 6.7953531,-6.1760497 c 0.890625,0.7382813 1.4179688,2.203125 1.4179688,3.75 0,1.54687501 -0.5039063,2.98828126 -1.4179688,3.75 l 0.1640625,0.1992188 c 1.3476563,-0.91406254 1.8984375,-2.33203129 1.8984375,-3.9492188 0,-1.6289062 -0.5507812,-3.0585937 -1.8984375,-3.9609375 z M -32.649959,-12.940698 v -0.246094 c -0.820313,-0.05859 -0.878907,-0.128906 -0.878907,-0.785156 v -4.6875 c -0.492187,0.199219 -1.019531,0.375 -1.59375,0.46875 v 0.210937 l 0.433594,0.01172 c 0.386719,0.02344 0.421875,0.07031 0.421875,0.539063 v 3.457031 c 0,0.65625 -0.03516,0.726562 -0.855469,0.785156 v 0.246094 z m -28.620118,-79.467774 v -0.246093 c -0.820312,-0.05859 -0.878906,-0.128907 -0.878906,-0.785157 v -4.6875 c -0.492187,0.199219 -1.019531,0.375 -1.59375,0.46875 v 0.210938 l 0.433594,0.01172 c 0.386719,0.02344 0.421875,0.07031 0.421875,0.539062 v 3.457031 c 0,0.65625 -0.03516,0.726563 -0.855469,0.785157 v 0.246093 z m 1.713868,0.105469 c 0.28125,0 0.503906,-0.199219 0.503906,-0.515625 0,-0.292969 -0.222656,-0.515625 -0.503906,-0.515625 -0.292969,0 -0.503907,0.222656 -0.503907,0.515625 0,0.316406 0.210938,0.515625 0.503907,0.515625 z m 3.251953,-5.824219 c -1.347657,0 -1.839844,1.605469 -1.839844,2.917969 0,1.417969 0.480469,2.90625 1.839844,2.90625 1.359375,0 1.828125,-1.59375 1.828125,-2.917969 0,-1.382812 -0.46875,-2.90625 -1.828125,-2.90625 z m 0,0.304688 c 0.808593,0 1.03125,1.324219 1.03125,2.601562 0,1.265625 -0.222657,2.613282 -1.03125,2.613282 -0.773438,0 -1.042969,-1.359375 -1.042969,-2.613282 0,-1.253906 0.222656,-2.601562 1.042969,-2.601562 z m -6.621094,34.825195 c -1.347656,0 -1.839844,1.605469 -1.839844,2.917969 0,1.417969 0.480469,2.90625 1.839844,2.90625 1.359375,0 1.828125,-1.59375 1.828125,-2.917969 0,-1.382812 -0.46875,-2.90625 -1.828125,-2.90625 z m 0,0.304688 c 0.808594,0 1.03125,1.324219 1.03125,2.601562 0,1.265625 -0.222656,2.613282 -1.03125,2.613282 -0.773438,0 -1.042969,-1.359375 -1.042969,-2.613282 0,-1.253906 0.222656,-2.601562 1.042969,-2.601562 z m 3.246094,5.519531 c 0.28125,0 0.503906,-0.199219 0.503906,-0.515625 0,-0.292969 -0.222656,-0.515625 -0.503906,-0.515625 -0.292969,0 -0.503907,0.222656 -0.503907,0.515625 0,0.316406 0.210938,0.515625 0.503907,0.515625 z m 2.589843,-5.050781 h 2.097657 l 0.234375,-0.585938 -0.05859,-0.07031 h -2.566406 l -0.351563,2.742187 c 0.210938,-0.08203 0.550781,-0.1875 0.925781,-0.1875 0.984375,0 1.464844,0.574219 1.464844,1.359375 0,0.679688 -0.375,1.335938 -1.136719,1.335938 -0.550781,0 -0.914062,-0.292969 -1.113281,-0.457031 -0.08203,-0.07031 -0.152344,-0.05859 -0.234375,0 -0.105469,0.09375 -0.1875,0.210937 -0.1875,0.292968 -0.02344,0.105469 0.02344,0.1875 0.140625,0.304688 0.128906,0.128906 0.515625,0.316406 0.925781,0.316406 0.480469,-0.01172 1.078125,-0.246094 1.570313,-0.632812 0.550781,-0.457032 0.796875,-0.960938 0.796875,-1.511719 0,-0.738281 -0.585938,-1.511719 -1.734375,-1.511719 -0.246094,0 -0.667969,0.140625 -1.007813,0.269531 z M 103.36078,-92.408472 v -0.246093 c -0.82031,-0.05859 -0.8789,-0.128907 -0.8789,-0.785157 v -4.6875 c -0.49219,0.199219 -1.01953,0.375 -1.59375,0.46875 v 0.210938 l 0.43359,0.01172 c 0.38672,0.02344 0.42188,0.07031 0.42188,0.539062 v 3.457031 c 0,0.65625 -0.0352,0.726563 -0.85547,0.785157 v 0.246093 z m 1.71387,0.105469 c 0.28125,0 0.50391,-0.199219 0.50391,-0.515625 0,-0.292969 -0.22266,-0.515625 -0.50391,-0.515625 -0.29297,0 -0.50391,0.222656 -0.50391,0.515625 0,0.316406 0.21094,0.515625 0.50391,0.515625 z m 3.25195,-5.824219 c -1.34765,0 -1.83984,1.605469 -1.83984,2.917969 0,1.417969 0.48047,2.90625 1.83984,2.90625 1.35938,0 1.82813,-1.59375 1.82813,-2.917969 0,-1.382812 -0.46875,-2.90625 -1.82813,-2.90625 z m 0,0.304688 c 0.8086,0 1.03125,1.324219 1.03125,2.601562 0,1.265625 -0.22265,2.613282 -1.03125,2.613282 -0.77343,0 -1.04297,-1.359375 -1.04297,-2.613282 0,-1.253906 0.22266,-2.601562 1.04297,-2.601562 z m -6.62109,34.825195 c -1.34766,0 -1.839844,1.605469 -1.839844,2.917969 0,1.417969 0.480464,2.90625 1.839844,2.90625 1.35937,0 1.82812,-1.59375 1.82812,-2.917969 0,-1.382812 -0.46875,-2.90625 -1.82812,-2.90625 z m 0,0.304688 c 0.80859,0 1.03125,1.324219 1.03125,2.601562 0,1.265625 -0.22266,2.613282 -1.03125,2.613282 -0.77344,0 -1.04297,-1.359375 -1.04297,-2.613282 0,-1.253906 0.22266,-2.601562 1.04297,-2.601562 z m 3.24609,5.519531 c 0.28125,0 0.50391,-0.199219 0.50391,-0.515625 0,-0.292969 -0.22266,-0.515625 -0.50391,-0.515625 -0.29297,0 -0.5039,0.222656 -0.5039,0.515625 0,0.316406 0.21093,0.515625 0.5039,0.515625 z m 2.58985,-5.050781 h 2.09765 l 0.23438,-0.585938 -0.0586,-0.07031 h -2.5664 l -0.35156,2.742187 c 0.21093,-0.08203 0.55078,-0.1875 0.92578,-0.1875 0.98437,0 1.46484,0.574219 1.46484,1.359375 0,0.679688 -0.375,1.335938 -1.13672,1.335938 -0.55078,0 -0.91406,-0.292969 -1.11328,-0.457031 -0.082,-0.07031 -0.15234,-0.05859 -0.23437,0 -0.10547,0.09375 -0.1875,0.210937 -0.1875,0.292968 -0.0234,0.105469 0.0234,0.1875 0.14062,0.304688 0.12891,0.128906 0.51563,0.316406 0.92578,0.316406 0.48047,-0.01172 1.07813,-0.246094 1.57031,-0.632812 0.55079,-0.457032 0.79688,-0.960938 0.79688,-1.511719 0,-0.738281 -0.58594,-1.511719 -1.73438,-1.511719 -0.24609,0 -0.66796,0.140625 -1.00781,0.269531 z m -124.787113,48.017578 c -0.269531,0.574219 -0.386718,0.609375 -0.867187,0.609375 h -1.6875 l 1.277344,-1.335938 c 0.832031,-0.890625 1.195312,-1.417968 1.195312,-2.203125 0,-0.949218 -0.726562,-1.523437 -1.511719,-1.523437 -0.527343,0 -0.949218,0.234375 -1.21875,0.539062 l -0.515625,0.726563 0.199219,0.175781 c 0.234375,-0.351562 0.609375,-0.832031 1.230469,-0.832031 0.65625,0 1.054687,0.433594 1.054687,1.195312 0,0.773438 -0.5625,1.511719 -1.125,2.179688 -0.445312,0.515625 -0.949218,1.03125 -1.453125,1.523437 v 0.210938 h 3.363282 c 0.105468,-0.410156 0.199218,-0.796875 0.316406,-1.183594 z m 12.2167974,-3.199219 c 0.2226562,-0.328125 0.5859375,-0.714844 1.078125,-0.714844 0.4804687,0 0.8554687,0.292969 0.8554687,0.855469 0,0.65625 -0.609375,1.007813 -1.4296875,1.277344 l 0.058594,0.257812 c 0.140625,-0.04687 0.3632812,-0.105468 0.5742187,-0.105468 0.515625,0 1.1484375,0.339843 1.1484375,1.171875 0,0.890625 -0.4570312,1.359375 -1.0898437,1.359375 -0.515625,0 -0.890625,-0.246094 -1.125,-0.457032 -0.070312,-0.05859 -0.140625,-0.04687 -0.2109375,0 -0.082031,0.05859 -0.1992188,0.175782 -0.2109375,0.292969 -0.011719,0.117188 0.023437,0.210938 0.1523437,0.328125 0.1171875,0.105469 0.4804688,0.304688 0.890625,0.304688 0.65625,0 2.3671875,-0.667969 2.3671875,-2.121094 0,-0.65625 -0.46875,-1.21875 -1.2539062,-1.371094 v -0.01172 c 0.2578125,-0.1875 0.4804687,-0.339843 0.609375,-0.492187 0.1757812,-0.164063 0.28125,-0.375 0.28125,-0.632813 0,-0.691406 -0.5273438,-1.195312 -1.3476563,-1.195312 -0.46875,0 -0.890625,0.234375 -1.1367187,0.503906 l -0.3984375,0.574219 z m 18.4980466,2.859375 v -0.421875 h -0.867187 v -3.65625 h -0.351563 c -0.925781,1.21875 -1.851562,2.554688 -2.707031,3.832031 v 0.246094 h 2.34375 v 0.65625 c 0,0.585938 -0.03516,0.644531 -0.820313,0.703125 v 0.246094 h 2.308594 v -0.246094 c -0.726562,-0.05859 -0.773437,-0.105469 -0.773437,-0.703125 v -0.65625 z m -1.582031,-0.421875 h -1.769531 c 0.585937,-0.996094 1.171875,-1.851562 1.757812,-2.648437 h 0.01172 z m 14.009766,-2.917969 h 2.097656 l 0.234375,-0.585937 -0.05859,-0.07031 h -2.566406 l -0.351563,2.742188 c 0.210938,-0.08203 0.550782,-0.1875 0.925782,-0.1875 0.984375,0 1.464843,0.574219 1.464843,1.359375 0,0.679687 -0.375,1.335937 -1.136718,1.335937 -0.550782,0 -0.914063,-0.292968 -1.113282,-0.457031 -0.08203,-0.07031 -0.152343,-0.05859 -0.234375,0 -0.105468,0.09375 -0.1875,0.210938 -0.1875,0.292969 -0.02344,0.105469 0.02344,0.1875 0.140625,0.304687 0.128907,0.128907 0.515625,0.316407 0.925782,0.316407 0.480468,-0.01172 1.078125,-0.246094 1.570312,-0.632813 0.550781,-0.457031 0.796875,-0.960937 0.796875,-1.511719 0,-0.738281 -0.585937,-1.511718 -1.734375,-1.511718 -0.246094,0 -0.667969,0.140625 -1.007812,0.269531 z m 15.017578,1.863282 c 0.269531,-1.253907 1.113281,-1.828125 1.664062,-2.085938 0.328125,-0.152344 0.679688,-0.257812 0.972656,-0.316406 l -0.05859,-0.28125 c -0.363282,0.05859 -0.796875,0.164062 -1.148438,0.28125 -0.960937,0.351562 -2.332031,1.371094 -2.332031,3.339844 0,1.382812 0.796875,2.25 1.851562,2.25 1.078125,0 1.839844,-0.902344 1.839844,-1.980469 0,-0.925781 -0.65625,-1.664063 -1.617187,-1.664063 -0.175782,0 -0.363282,0.07031 -0.5625,0.152344 z m 0.820312,0.04688 c 0.820313,0 1.195313,0.738281 1.195313,1.488281 0,0.597656 -0.210938,1.347656 -0.914063,1.347656 -0.738281,0 -1.195312,-0.878906 -1.195312,-1.957031 0,-0.234375 0.01172,-0.457031 0.04687,-0.621094 0.222656,-0.117187 0.527343,-0.257812 0.867187,-0.257812 z m 17.126953,-2.566407 h -3.433593 c -0.03516,0.386719 -0.08203,0.832032 -0.164063,1.324219 h 0.257813 c 0.222656,-0.585937 0.269531,-0.667969 0.867187,-0.667969 h 1.945313 c -0.714844,1.558594 -1.722657,3.421875 -2.671875,4.957032 l 0.05859,0.09375 0.667969,-0.08203 c 0.867188,-1.863281 1.699219,-3.691406 2.542969,-5.519531 z m 13.365235,-0.117187 c -0.960938,0 -1.59375,0.726562 -1.59375,1.476562 0,0.632813 0.386718,1.066407 0.972656,1.394532 -0.304688,0.199218 -0.65625,0.445312 -0.796875,0.574218 -0.199219,0.199219 -0.398438,0.445313 -0.398438,0.855469 0,0.972656 0.761719,1.523438 1.722657,1.523438 0.761718,0 1.78125,-0.574219 1.78125,-1.628907 0,-0.785156 -0.5625,-1.207031 -1.183594,-1.558593 0.398437,-0.28125 0.644531,-0.503907 0.703125,-0.585938 0.175781,-0.1875 0.269531,-0.457031 0.269531,-0.714844 0,-0.726562 -0.621094,-1.335937 -1.476562,-1.335937 z m -0.08203,0.292969 c 0.410157,0 0.878907,0.328125 0.878907,1.089843 0,0.539063 -0.246094,0.867188 -0.550782,1.113282 -0.632812,-0.316407 -1.171875,-0.609375 -1.171875,-1.277344 0,-0.457031 0.304688,-0.925781 0.84375,-0.925781 z m 0.08203,5.25 c -0.574219,0 -1.101563,-0.46875 -1.101563,-1.289063 0,-0.492187 0.304688,-0.949219 0.738281,-1.230469 0.691407,0.351563 1.335938,0.738282 1.335938,1.40625 0,0.691407 -0.421875,1.113282 -0.972656,1.113282 z m 59.680666,0.175781 v -0.246094 c -0.82031,-0.05859 -0.87891,-0.128906 -0.87891,-0.785156 v -4.6875 c -0.49219,0.199219 -1.01953,0.375 -1.59375,0.46875 v 0.210937 l 0.4336,0.01172 c 0.38671,0.02344 0.42187,0.07031 0.42187,0.539063 v 3.457031 c 0,0.65625 -0.0352,0.726562 -0.85547,0.785156 v 0.246094 z m 15.40429,-1.265625 c -0.26953,0.574219 -0.38671,0.609375 -0.86718,0.609375 h -1.6875 l 1.27734,-1.335938 c 0.83203,-0.890625 1.19531,-1.417968 1.19531,-2.203125 0,-0.949218 -0.72656,-1.523437 -1.51172,-1.523437 -0.52734,0 -0.94921,0.234375 -1.21875,0.539062 l -0.51562,0.726563 0.19922,0.175781 c 0.23437,-0.351562 0.60937,-0.832031 1.23047,-0.832031 0.65625,0 1.05468,0.433594 1.05468,1.195312 0,0.773438 -0.5625,1.511719 -1.125,2.179688 -0.44531,0.515625 -0.94921,1.03125 -1.45312,1.523437 v 0.210938 h 3.36328 c 0.10547,-0.410156 0.19922,-0.796875 0.31641,-1.183594 z m 12.2168,-3.199219 c 0.22266,-0.328125 0.58594,-0.714844 1.07813,-0.714844 0.48047,0 0.85547,0.292969 0.85547,0.855469 0,0.65625 -0.60938,1.007813 -1.42969,1.277344 l 0.0586,0.257812 c 0.14063,-0.04687 0.36328,-0.105468 0.57422,-0.105468 0.51563,0 1.14844,0.339843 1.14844,1.171875 0,0.890625 -0.45703,1.359375 -1.08985,1.359375 -0.51562,0 -0.89062,-0.246094 -1.125,-0.457032 -0.0703,-0.05859 -0.14062,-0.04687 -0.21093,0 -0.082,0.05859 -0.19922,0.175782 -0.21094,0.292969 -0.0117,0.117188 0.0234,0.210938 0.15234,0.328125 0.11719,0.105469 0.48047,0.304688 0.89063,0.304688 0.65625,0 2.36719,-0.667969 2.36719,-2.121094 0,-0.65625 -0.46875,-1.21875 -1.25391,-1.371094 v -0.01172 c 0.25781,-0.1875 0.48047,-0.339843 0.60937,-0.492187 0.17579,-0.164063 0.28125,-0.375 0.28125,-0.632813 0,-0.691406 -0.52734,-1.195312 -1.34765,-1.195312 -0.46875,0 -0.89063,0.234375 -1.13672,0.503906 l -0.39844,0.574219 z m 18.49805,2.859375 v -0.421875 h -0.86719 v -3.65625 h -0.35156 c -0.92578,1.21875 -1.85156,2.554688 -2.70703,3.832031 v 0.246094 h 2.34375 v 0.65625 c 0,0.585938 -0.0352,0.644531 -0.82032,0.703125 v 0.246094 h 2.3086 v -0.246094 c -0.72656,-0.05859 -0.77344,-0.105469 -0.77344,-0.703125 v -0.65625 z m -1.58203,-0.421875 h -1.76953 c 0.58593,-0.996094 1.17187,-1.851562 1.75781,-2.648437 h 0.0117 z m 14.00976,-2.917969 h 2.09766 l 0.23437,-0.585937 -0.0586,-0.07031 h -2.56641 l -0.35156,2.742188 c 0.21094,-0.08203 0.55078,-0.1875 0.92578,-0.1875 0.98438,0 1.46485,0.574219 1.46485,1.359375 0,0.679687 -0.375,1.335937 -1.13672,1.335937 -0.55078,0 -0.91406,-0.292968 -1.11328,-0.457031 -0.082,-0.07031 -0.15235,-0.05859 -0.23438,0 -0.10547,0.09375 -0.1875,0.210938 -0.1875,0.292969 -0.0234,0.105469 0.0234,0.1875 0.14063,0.304687 0.1289,0.128907 0.51562,0.316407 0.92578,0.316407 0.48047,-0.01172 1.07812,-0.246094 1.57031,-0.632813 0.55078,-0.457031 0.79688,-0.960937 0.79688,-1.511719 0,-0.738281 -0.58594,-1.511718 -1.73438,-1.511718 -0.24609,0 -0.66797,0.140625 -1.00781,0.269531 z m 15.01758,1.863282 c 0.26953,-1.253907 1.11328,-1.828125 1.66406,-2.085938 0.32813,-0.152344 0.67969,-0.257812 0.97266,-0.316406 l -0.0586,-0.28125 c -0.36329,0.05859 -0.79688,0.164062 -1.14844,0.28125 -0.96094,0.351562 -2.33203,1.371094 -2.33203,3.339844 0,1.382812 0.79687,2.25 1.85156,2.25 1.07812,0 1.83984,-0.902344 1.83984,-1.980469 0,-0.925781 -0.65625,-1.664063 -1.61718,-1.664063 -0.17579,0 -0.36329,0.07031 -0.5625,0.152344 z m 0.82031,0.04688 c 0.82032,0 1.19532,0.738281 1.19532,1.488281 0,0.597656 -0.21094,1.347656 -0.91407,1.347656 -0.73828,0 -1.19531,-0.878906 -1.19531,-1.957031 0,-0.234375 0.0117,-0.457031 0.0469,-0.621094 0.22265,-0.117187 0.52734,-0.257812 0.86718,-0.257812 z m 17.12696,-2.566407 h -3.4336 c -0.0352,0.386719 -0.082,0.832032 -0.16406,1.324219 h 0.25781 c 0.22266,-0.585937 0.26953,-0.667969 0.86719,-0.667969 h 1.94531 c -0.71484,1.558594 -1.72265,3.421875 -2.67187,4.957032 l 0.0586,0.09375 0.66797,-0.08203 c 0.86719,-1.863281 1.69922,-3.691406 2.54297,-5.519531 z m 13.36523,-0.117187 c -0.96094,0 -1.59375,0.726562 -1.59375,1.476562 0,0.632813 0.38672,1.066407 0.97266,1.394532 -0.30469,0.199218 -0.65625,0.445312 -0.79688,0.574218 -0.19922,0.199219 -0.39844,0.445313 -0.39844,0.855469 0,0.972656 0.76172,1.523438 1.72266,1.523438 0.76172,0 1.78125,-0.574219 1.78125,-1.628907 0,-0.785156 -0.5625,-1.207031 -1.18359,-1.558593 0.39843,-0.28125 0.64453,-0.503907 0.70312,-0.585938 0.17578,-0.1875 0.26953,-0.457031 0.26953,-0.714844 0,-0.726562 -0.62109,-1.335937 -1.47656,-1.335937 z m -0.082,0.292969 c 0.41016,0 0.87891,0.328125 0.87891,1.089843 0,0.539063 -0.2461,0.867188 -0.55079,1.113282 -0.63281,-0.316407 -1.17187,-0.609375 -1.17187,-1.277344 0,-0.457031 0.30469,-0.925781 0.84375,-0.925781 z m 0.082,5.25 c -0.57422,0 -1.10156,-0.46875 -1.10156,-1.289063 0,-0.492187 0.30469,-0.949219 0.73828,-1.230469 0.69141,0.351563 1.33594,0.738282 1.33594,1.40625 0,0.691407 -0.42188,1.113282 -0.97266,1.113282 z M 166.78852,1.3239503 c -0.89063,-0.76171874 -1.40625,-2.20312499 -1.40625,-3.75 0,-1.546875 0.51562,-3 1.40625,-3.75 l -0.15235,-0.2109375 c -1.32422,0.9023438 -1.91015,2.3320313 -1.91015,3.9492188 0,1.62890621 0.58593,3.08203121 1.91015,3.9609375 z m 2.00976,-4.9570312 v -2.7773438 c -0.33984,0.1171875 -0.89062,0.2578125 -1.3125,0.3164063 v 0.2109375 c 0.58594,0.046875 0.59766,0.1054687 0.59766,0.6679687 v 5.00390626 c 0.49219,0.234375 0.94922,0.31640625 1.32422,0.31640625 1.20703,0 2.26172,-0.9375 2.26172,-2.26171871 0,-1.0546875 -0.8086,-1.8867188 -1.78125,-1.8867188 -0.0937,0 -0.22266,0.023437 -0.36328,0.09375 z m 0,0.2695312 c 0.16407,-0.1054687 0.44532,-0.1757812 0.70313,-0.1757812 0.73828,0 1.37109,0.5976562 1.37109,1.6171875 0,1.05468746 -0.48047,1.68749996 -1.21875,1.68749996 -0.48047,-0.0117188 -0.75,-0.328125 -0.80859,-0.50390625 -0.0352,-0.0820313 -0.0469,-0.17578125 -0.0469,-0.30468751 z m 3.16699,-2.8125 c 0.89063,0.7382813 1.41797,2.203125 1.41797,3.75 0,1.54687501 -0.5039,2.98828126 -1.41797,3.75 l 0.16407,0.1992188 c 1.34765,-0.91406254 1.89843,-2.33203129 1.89843,-3.9492188 0,-1.6289062 -0.55078,-3.0585937 -1.89843,-3.9609375 z m 0,0"
         style="fill:#231f20;fill-opacity:1;fill-rule:nonzero;stroke:none"
         aria-label="(a)&#10;1&#10;1.0&#10;0.5&#10;1.0&#10;0.5&#10;234567812345678&#10;(b)"
         transform="matrix(1.3333333,0,0,1.3333333,86.775467,133.10583)" />
      <path
         id="path3"
         d="m 172.109,567.176 c -3.418,3.402 -7.543,5.105 -12.382,5.105 -4.844,0 -8.965,-1.703 -12.36,-5.105 -3.398,-3.406 -5.097,-7.524 -5.097,-12.348 0,-4.859 1.699,-8.988 5.097,-12.383 3.395,-3.394 7.516,-5.097 12.36,-5.097 4.851,0 8.988,1.703 12.398,5.097 3.406,3.395 5.105,7.524 5.105,12.383 0,4.824 -1.707,8.942 -5.121,12.348 v 0"
         style="fill:#3871c1;fill-opacity:1;fill-rule:nonzero;stroke:none"
         transform="matrix(0.13333333,0,0,-0.13333333,0,137.42667)" />
      <path
         id="path4"
         d="m 323.695,928.992 c -3.418,3.41 -7.543,5.113 -12.382,5.113 -4.844,0 -8.965,-1.703 -12.36,-5.113 -3.394,-3.402 -5.098,-7.519 -5.098,-12.344 0,-4.859 1.704,-8.988 5.098,-12.386 3.395,-3.395 7.516,-5.094 12.36,-5.094 4.855,0 8.992,1.699 12.398,5.094 3.402,3.398 5.105,7.527 5.105,12.386 0,4.825 -1.707,8.942 -5.121,12.344 v 0"
         style="fill:#3871c1;fill-opacity:1;fill-rule:nonzero;stroke:none"
         transform="matrix(0.13333333,0,0,-0.13333333,0,137.42667)" />
      <path
         id="path5"
         d="m 475.277,855.773 c -3.414,3.411 -7.543,5.11 -12.382,5.11 -4.844,0 -8.957,-1.699 -12.36,-5.11 -3.394,-3.406 -5.097,-7.519 -5.097,-12.343 0,-4.86 1.703,-8.989 5.097,-12.387 3.403,-3.395 7.516,-5.094 12.36,-5.094 4.859,0 8.996,1.699 12.398,5.094 3.406,3.398 5.105,7.527 5.105,12.387 0,4.824 -1.703,8.937 -5.121,12.343 v 0"
         style="fill:#3871c1;fill-opacity:1;fill-rule:nonzero;stroke:none"
         transform="matrix(0.13333333,0,0,-0.13333333,0,137.42667)" />
      <path
         id="path6"
         d="m 626.863,514.992 c -3.41,3.403 -7.543,5.106 -12.383,5.106 -4.839,0 -8.957,-1.703 -12.355,-5.106 -3.398,-3.406 -5.098,-7.523 -5.098,-12.344 0,-4.863 1.7,-8.988 5.098,-12.386 3.398,-3.399 7.516,-5.094 12.355,-5.094 4.86,0 8.993,1.695 12.399,5.094 3.41,3.398 5.109,7.523 5.109,12.386 0,4.821 -1.711,8.938 -5.125,12.344 v 0"
         style="fill:#3871c1;fill-opacity:1;fill-rule:nonzero;stroke:none"
         transform="matrix(0.13333333,0,0,-0.13333333,0,137.42667)" />
      <path
         id="path7"
         d="m 778.453,656.449 c -3.414,3.406 -7.547,5.114 -12.383,5.114 -4.843,0 -8.961,-1.708 -12.359,-5.114 -3.398,-3.41 -5.098,-7.519 -5.098,-12.344 0,-4.859 1.7,-8.992 5.098,-12.386 3.398,-3.403 7.516,-5.102 12.359,-5.102 4.86,0 8.989,1.699 12.399,5.102 3.406,3.394 5.105,7.527 5.105,12.386 0,4.825 -1.703,8.934 -5.121,12.344 v 0"
         style="fill:#3871c1;fill-opacity:1;fill-rule:nonzero;stroke:none"
         transform="matrix(0.13333333,0,0,-0.13333333,0,137.42667)" />
      <path
         id="path8"
         d="m 930.039,712.938 c -3.414,3.41 -7.543,5.113 -12.379,5.113 -4.847,0 -8.965,-1.703 -12.363,-5.113 -3.399,-3.403 -5.094,-7.52 -5.094,-12.344 0,-4.86 1.695,-8.985 5.094,-12.383 3.398,-3.398 7.516,-5.098 12.363,-5.098 4.856,0 8.985,1.7 12.395,5.098 3.406,3.398 5.113,7.523 5.113,12.383 0,4.824 -1.711,8.941 -5.129,12.344 v 0"
         style="fill:#3871c1;fill-opacity:1;fill-rule:nonzero;stroke:none"
         transform="matrix(0.13333333,0,0,-0.13333333,0,137.42667)" />
      <path
         id="path9"
         d="m 1081.62,754.008 c -3.41,3.406 -7.54,5.109 -12.38,5.109 -4.85,0 -8.96,-1.703 -12.36,-5.109 -3.39,-3.41 -5.09,-7.52 -5.09,-12.344 0,-4.859 1.7,-8.988 5.09,-12.391 3.4,-3.39 7.51,-5.093 12.36,-5.093 4.86,0 8.99,1.703 12.4,5.093 3.41,3.403 5.11,7.532 5.11,12.391 0,4.824 -1.71,8.934 -5.13,12.344 v 0"
         style="fill:#3871c1;fill-opacity:1;fill-rule:nonzero;stroke:none"
         transform="matrix(0.13333333,0,0,-0.13333333,0,137.42667)" />
      <path
         id="path10"
         d="m 1233.21,453.199 c -3.41,3.406 -7.55,5.11 -12.38,5.11 -4.85,0 -8.96,-1.704 -12.36,-5.11 -3.4,-3.402 -5.1,-7.523 -5.1,-12.347 0,-4.852 1.7,-8.985 5.1,-12.375 3.4,-3.407 7.51,-5.098 12.36,-5.098 4.85,0 8.99,1.691 12.39,5.098 3.41,3.39 5.11,7.523 5.11,12.375 0,4.824 -1.7,8.945 -5.12,12.347 v 0"
         style="fill:#3871c1;fill-opacity:1;fill-rule:nonzero;stroke:none"
         transform="matrix(0.13333333,0,0,-0.13333333,0,137.42667)" />
      <path
         id="path11"
         d="m 1384.79,662.691 c -3.41,3.411 -7.53,5.114 -12.38,5.114 -4.83,0 -8.96,-1.703 -12.36,-5.114 -3.39,-3.402 -5.09,-7.515 -5.09,-12.339 0,-4.86 1.7,-8.989 5.09,-12.383 3.4,-3.403 7.53,-5.102 12.36,-5.102 4.86,0 9,1.699 12.39,5.102 3.41,3.394 5.12,7.523 5.12,12.383 0,4.824 -1.71,8.937 -5.13,12.339 v 0"
         style="fill:#3871c1;fill-opacity:1;fill-rule:nonzero;stroke:none"
         transform="matrix(0.13333333,0,0,-0.13333333,0,137.42667)" />
      <path
         id="path12"
         d="m 159.789,553.285 0.352,0.965 0.379,0.969 0.734,1.902 1.496,3.867 2.988,7.766 5.946,15.703 11.894,31.992 25.813,70.34 24.082,64.399 23.636,58.914 0.387,0.964 0.41,0.938 0.789,1.875 1.614,3.75 3.191,7.379 6.41,14.336 12.805,26.773 0.387,0.738 1.113,2.223 1.492,2.899 2.988,5.683 5.977,10.899 0.762,1.289 0.761,1.316 1.493,2.555 2.992,5.011 5.976,9.454 0.379,0.613 0.41,0.613 0.821,1.211 1.605,2.371 3.258,4.567 0.41,0.562 0.375,0.555 0.828,1.113 1.61,2.133 3.25,4.105 0.824,0.996 0.789,0.969 1.64,1.903 3.223,3.597 6.477,6.488 0.41,0.352 0.375,0.371 0.824,0.707 1.582,1.383 3.164,2.539 0.82,0.594 0.79,0.586 1.582,1.109 3.195,2.027 0.383,0.227 0.41,0.234 0.789,0.477 1.582,0.844 0.41,0.199 0.375,0.215 0.797,0.371 1.613,0.738 0.379,0.152 0.41,0.168 0.793,0.325 0.407,0.148 0.382,0.145 0.793,0.293 0.407,0.152 0.382,0.105 0.793,0.266 1.606,0.473 0.351,0.093 0.387,0.079 0.731,0.179 0.757,0.172 0.739,0.149 0.379,0.066 0.351,0.047 0.762,0.121 0.351,0.059 0.383,0.066 0.379,0.027 0.348,0.051 0.765,0.063 0.352,0.027 0.758,0.059 h 0.351 l 0.387,0.031 h 0.379 l 0.352,0.035 h 1.496 l 0.379,-0.035 h 0.351 l 0.375,-0.031 h 0.387 l 0.351,-0.028 0.383,-0.031 0.352,-0.027 0.379,-0.063 0.379,-0.031 0.355,-0.02 0.762,-0.121 0.351,-0.058 0.762,-0.114 0.352,-0.058 0.379,-0.063 0.73,-0.152 0.766,-0.172 0.73,-0.168 0.379,-0.094 0.352,-0.117 0.765,-0.207 0.352,-0.086 0.379,-0.121 0.734,-0.23 1.488,-0.528 0.414,-0.152 0.383,-0.172 0.817,-0.32 1.613,-0.703 0.383,-0.176 0.41,-0.211 0.82,-0.371 1.61,-0.86 0.382,-0.199 0.407,-0.234 0.793,-0.473 1.613,-0.969 3.219,-2.168 0.824,-0.582 0.789,-0.586 1.613,-1.257 3.223,-2.692 0.375,-0.386 0.414,-0.352 0.82,-0.734 1.61,-1.524 3.195,-3.242 0.383,-0.387 0.379,-0.41 0.757,-0.785 1.5,-1.676 2.989,-3.488 6.004,-7.676 0.382,-0.504 0.375,-0.519 0.766,-1.032 1.496,-2.105 2.988,-4.363 6,-9.375 0.387,-0.586 0.379,-0.617 2.199,-3.684 2.922,-5.106 5.895,-10.699 11.777,-23.511 0.816,-1.708 0.797,-1.703 1.61,-3.425 3.187,-7 6.395,-14.473 12.773,-30.68 23.848,-61.582 25.84,-68.804 25.371,-64.02 0.379,-0.879 0.351,-0.879 0.762,-1.758 1.461,-3.457 2.965,-6.828 5.918,-13.242 0.379,-0.789 0.351,-0.82 0.762,-1.614 1.465,-3.164 2.961,-6.211 5.918,-11.863 0.41,-0.793 0.379,-0.762 0.82,-1.55 1.582,-3.02 3.223,-5.918 6.418,-11.043 0.41,-0.644 0.379,-0.645 0.82,-1.289 1.613,-2.539 3.192,-4.875 6.418,-8.906 0.379,-0.496 0.382,-0.469 0.731,-0.938 1.488,-1.875 3.024,-3.488 0.351,-0.437 1.145,-1.231 1.492,-1.582 2.988,-2.988 0.375,-0.352 0.356,-0.351 0.765,-0.676 1.492,-1.317 0.762,-0.644 0.731,-0.617 1.496,-1.199 0.379,-0.266 0.382,-0.293 0.735,-0.555 1.523,-1.027 2.985,-1.902 0.824,-0.469 0.789,-0.442 1.64,-0.82 0.383,-0.176 0.407,-0.203 0.824,-0.351 1.609,-0.676 0.82,-0.293 0.817,-0.262 0.414,-0.148 0.383,-0.117 1.64,-0.469 0.789,-0.176 0.817,-0.164 0.824,-0.156 0.406,-0.09 0.414,-0.059 0.383,-0.058 0.41,-0.059 0.407,-0.027 0.414,-0.059 0.812,-0.058 0.387,-0.032 0.41,-0.027 h 0.41 l 0.41,-0.031 h 1.614 l 0.41,0.031 h 0.402 l 1.238,0.086 0.375,0.058 0.414,0.032 2.047,0.293 0.387,0.086 1.641,0.351 0.379,0.09 0.793,0.234 0.41,0.086 0.379,0.118 0.82,0.265 0.383,0.145 0.406,0.117 0.793,0.293 1.582,0.644 0.816,0.352 0.797,0.352 1.989,0.996 0.382,0.207 0.821,0.468 1.578,0.938 0.387,0.234 0.41,0.235 0.785,0.527 1.617,1.082 3.164,2.375 0.82,0.645 2.371,2.019 3.196,2.961 0.379,0.352 0.351,0.378 0.762,0.735 1.465,1.523 2.988,3.192 5.949,7.09 0.352,0.468 0.379,0.469 0.734,0.969 1.492,1.933 2.989,4.043 5.918,8.614 0.82,1.23 0.793,1.231 1.609,2.488 3.223,5.156 6.445,10.754 12.891,23.113 24.082,45.825 0.383,0.695 0.351,0.707 0.731,1.414 1.496,2.809 2.93,5.562 5.917,10.93 0.352,0.672 0.379,0.679 0.734,1.336 1.465,2.672 2.957,5.274 5.891,10.253 0.82,1.348 0.789,1.344 1.613,2.672 3.192,5.179 6.387,9.879 0.41,0.586 0.41,0.614 0.793,1.171 1.582,2.286 3.223,4.46 6.386,8.286 0.379,0.445 0.383,0.461 0.73,0.875 1.497,1.766 2.988,3.335 0.379,0.415 0.351,0.402 0.762,0.797 1.496,1.523 2.988,2.934 0.379,0.351 0.352,0.34 0.762,0.68 1.496,1.348 2.988,2.46 0.352,0.293 1.14,0.875 1.496,1.09 2.989,2.043 0.378,0.266 0.411,0.246 0.82,0.492 1.613,0.938 0.41,0.226 0.411,0.219 0.789,0.43 1.613,0.828 0.41,0.172 0.41,0.199 0.82,0.351 1.61,0.68 0.41,0.149 0.41,0.171 0.793,0.293 1.61,0.524 1.64,0.472 0.383,0.125 0.41,0.11 0.82,0.18 0.411,0.109 0.378,0.094 0.821,0.152 0.41,0.074 0.41,0.067 0.793,0.152 1.231,0.168 0.41,0.031 0.379,0.059 0.82,0.062 0.41,0.047 0.41,0.031 0.383,0.036 h 0.41 l 0.41,0.027 h 0.411 l 0.41,0.031 h 1.992 l 0.41,-0.031 h 0.379 l 0.41,-0.027 0.383,-0.036 0.41,-0.031 0.379,-0.027 0.41,-0.02 0.383,-0.027 0.41,-0.035 0.41,-0.059 0.379,-0.031 0.793,-0.121 0.41,-0.047 0.379,-0.066 0.793,-0.118 0.41,-0.089 0.41,-0.051 0.79,-0.18 0.382,-0.062 0.41,-0.082 0.79,-0.211 1.582,-0.371 0.41,-0.125 0.383,-0.122 0.789,-0.23 1.613,-0.492 0.379,-0.121 0.41,-0.145 0.793,-0.269 1.582,-0.618 0.41,-0.14 0.379,-0.149 0.793,-0.328 1.582,-0.672 3.191,-1.461 0.383,-0.203 0.352,-0.179 0.73,-0.371 1.496,-0.77 2.957,-1.609 5.95,-3.551 0.351,-0.231 0.379,-0.234 0.734,-0.465 1.493,-0.965 2.961,-1.996 5.918,-4.101 0.41,-0.293 0.41,-0.266 0.789,-0.578 4.836,-3.43 6.414,-4.609 0.41,-0.293 0.383,-0.293 0.82,-0.551 1.61,-1.109 3.195,-2.231 6.445,-4.191 0.379,-0.234 0.352,-0.227 0.761,-0.477 1.496,-0.906 3.016,-1.754 0.352,-0.215 1.144,-0.617 1.492,-0.812 2.989,-1.524 1.523,-0.703 1.496,-0.676 0.379,-0.175 0.352,-0.153 0.761,-0.32 1.496,-0.613 0.762,-0.289 0.731,-0.293 1.523,-0.528 0.352,-0.117 0.382,-0.113 0.762,-0.274 1.492,-0.433 0.352,-0.117 0.383,-0.094 0.73,-0.199 0.383,-0.094 0.352,-0.113 0.73,-0.18 0.383,-0.078 0.351,-0.063 0.731,-0.179 1.496,-0.262 0.352,-0.082 0.378,-0.059 0.735,-0.121 0.351,-0.031 0.379,-0.063 0.735,-0.078 0.379,-0.062 0.351,-0.031 0.383,-0.059 0.352,-0.027 0.378,-0.036 0.352,-0.031 0.383,-0.027 0.355,-0.02 h 0.375 l 0.383,-0.027 h 0.352 l 0.379,-0.035 h 0.351 l 0.383,-0.031 h 1.465 l 0.351,0.031 h 0.762 l 0.352,0.035 0.379,0.027 h 0.351 l 0.383,0.02 0.351,0.027 0.379,0.031 0.352,0.036 0.383,0.027 0.379,0.059 0.734,0.066 0.352,0.059 0.379,0.046 0.734,0.094 0.351,0.059 0.379,0.062 0.735,0.141 0.41,0.058 0.379,0.09 0.793,0.176 0.82,0.18 0.789,0.172 0.41,0.121 0.383,0.078 0.789,0.246 1.613,0.461 0.379,0.117 0.411,0.145 0.792,0.269 1.61,0.59 3.195,1.309 0.379,0.179 0.41,0.168 0.793,0.387 1.61,0.769 3.195,1.692 0.379,0.23 0.41,0.243 0.793,0.429 1.582,0.973 3.189,2.058 0.38,0.227 0.39,0.266 0.73,0.492 1.49,1.031 2.99,2.168 5.95,4.652 11.89,10.172 0.41,0.387 1.23,1.047 1.61,1.441 3.23,2.84 6.44,5.598 0.82,0.691 0.79,0.68 1.61,1.348 3.23,2.585 6.47,4.797 0.38,0.258 0.38,0.246 0.74,0.524 1.52,0.965 0.38,0.234 0.35,0.23 0.76,0.473 1.53,0.879 0.35,0.23 1.14,0.618 1.49,0.793 0.39,0.175 0.38,0.211 0.76,0.34 1.49,0.676 0.39,0.184 1.52,0.582 0.35,0.14 0.76,0.278 0.38,0.109 0.38,0.152 1.14,0.352 0.36,0.078 0.76,0.215 1.52,0.351 0.35,0.082 0.38,0.059 0.77,0.152 0.76,0.114 0.38,0.027 0.35,0.059 1.52,0.125 0.35,0.015 0.39,0.031 h 1.84 l 0.38,-0.031 h 0.36 l 0.76,-0.047 0.35,-0.027 0.38,-0.035 0.35,-0.059 0.38,-0.058 0.38,-0.036 0.35,-0.058 0.38,-0.082 0.35,-0.059 0.39,-0.058 0.38,-0.094 0.35,-0.078 0.73,-0.188 0.38,-0.105 0.38,-0.094 0.73,-0.23 0.36,-0.122 0.38,-0.14 0.73,-0.274 0.76,-0.293 0.73,-0.324 0.36,-0.168 0.38,-0.152 0.73,-0.371 0.38,-0.18 0.35,-0.207 0.76,-0.41 1.47,-0.879 0.38,-0.23 0.35,-0.243 0.73,-0.492 1.5,-1.082 2.96,-2.437 0.38,-0.356 0.41,-0.34 0.79,-0.765 1.61,-1.582 0.41,-0.446 0.38,-0.398 0.82,-0.879 1.61,-1.828 0.38,-0.465 0.41,-0.473 0.79,-0.984 1.61,-2.059 3.2,-4.457 0.41,-0.582 0.41,-0.613 0.79,-1.203 1.61,-2.52 3.19,-5.367 6.42,-12.094 0.38,-0.765 0.35,-0.758 0.76,-1.551 1.5,-3.136 2.99,-6.59 5.97,-14.215 11.99,-31.953 0.41,-1.153 0.37,-1.168 0.82,-2.308 1.62,-4.715 3.25,-9.559 6.48,-19.629 12.97,-40.312 0.41,-1.23 0.39,-1.231 0.78,-2.461 1.62,-4.91 3.17,-9.738 6.38,-19.012 0.37,-1.172 0.41,-1.144 0.8,-2.313 1.59,-4.57 3.18,-8.907 6.37,-16.816 0.37,-0.937 0.35,-0.938 0.76,-1.848 1.47,-3.601 2.98,-6.945 0.36,-0.848 0.39,-0.82 0.72,-1.672 1.5,-3.223 2.95,-6.094 0.76,-1.465 0.75,-1.433 1.48,-2.754 2.97,-5.156 0.37,-0.617 0.35,-0.614 0.76,-1.172 1.47,-2.257 2.99,-4.129 0.39,-0.528 1.23,-1.496 1.6,-1.844 0.39,-0.41 0.41,-0.441 0.82,-0.82 1.6,-1.493 0.39,-0.351 0.41,-0.352 0.78,-0.644 0.41,-0.324 0.42,-0.293 0.8,-0.555 0.82,-0.527 0.78,-0.469 0.41,-0.235 0.41,-0.207 0.8,-0.379 0.82,-0.351 0.37,-0.149 0.41,-0.144 0.41,-0.117 0.41,-0.149 0.39,-0.086 0.41,-0.117 0.41,-0.09 0.41,-0.058 0.37,-0.086 0.41,-0.031 0.41,-0.059 0.41,-0.027 0.39,-0.032 h 1.2 l 0.82,0.059 0.41,0.059 0.39,0.058 0.41,0.059 0.82,0.176 0.37,0.089 0.82,0.235 0.41,0.144 0.39,0.149 0.82,0.32 0.37,0.148 1.11,0.555 0.77,0.41 0.74,0.469 0.37,0.234 1.15,0.793 1.49,1.172 0.76,0.645 0.74,0.672 1.52,1.465 0.35,0.382 1.14,1.231 1.5,1.758 0.76,0.937 0.73,0.965 1.52,2.023 2.99,4.481 0.76,1.172 0.76,1.23 1.5,2.578 2.99,5.45 0.76,1.406 2.19,4.394 2.97,6.243 5.88,13.503 11.78,30.442 0.41,1.082 0.39,1.086 0.82,2.168 1.58,4.422 3.18,8.847 6.39,17.871 0.82,2.227 0.8,2.227 1.6,4.425 3.21,8.758 6.38,16.965 0.37,0.965 0.36,0.969 0.76,1.902 1.5,3.75 2.95,7.266 0.39,0.91 0.37,0.879 0.74,1.757 1.49,3.426 2.99,6.594 0.76,1.582 0.74,1.582 1.49,3.047 2.98,5.769 0.35,0.676 0.4,0.703 0.76,1.34 1.48,2.586 2.97,4.84 0.43,0.609 0.41,0.649 0.82,1.195 1.68,2.313 0.41,0.566 0.41,0.519 0.84,1.063 1.68,1.949 0.82,0.942 0.82,0.859 0.84,0.844 0.82,0.785 0.45,0.387 1.23,1.054 1.66,1.266 0.41,0.285 0.41,0.266 0.86,0.519 0.82,0.477 0.84,0.433 0.41,0.215 0.82,0.352 0.41,0.14 0.45,0.153 0.82,0.293 0.41,0.105 0.41,0.094 0.43,0.09 0.82,0.176 0.41,0.058 0.41,0.028 0.45,0.066 0.41,0.027 h 1.25 l 1.23,-0.093 0.41,-0.059 0.45,-0.063"
         style="fill:none;stroke:#3871c1;stroke-width:7.5;stroke-linecap:square;stroke-linejoin:miter;stroke-miterlimit:3.25;stroke-dasharray:none;stroke-opacity:1"
         transform="matrix(0.13333333,0,0,-0.13333333,0,137.42667)" />
      <path
         id="path13"
         d="m 311.371,252.816 v 30"
         style="fill:none;stroke:#231f20;stroke-width:5;stroke-linecap:butt;stroke-linejoin:miter;stroke-miterlimit:3.25;stroke-dasharray:none;stroke-opacity:1"
         transform="matrix(0.13333333,0,0,-0.13333333,0,137.42667)" />
      <path
         id="path14"
         d="m 462.953,252.816 v 30"
         style="fill:none;stroke:#231f20;stroke-width:5;stroke-linecap:butt;stroke-linejoin:miter;stroke-miterlimit:3.25;stroke-dasharray:none;stroke-opacity:1"
         transform="matrix(0.13333333,0,0,-0.13333333,0,137.42667)" />
      <path
         id="path15"
         d="m 614.535,252.816 v 30"
         style="fill:none;stroke:#231f20;stroke-width:5;stroke-linecap:butt;stroke-linejoin:miter;stroke-miterlimit:3.25;stroke-dasharray:none;stroke-opacity:1"
         transform="matrix(0.13333333,0,0,-0.13333333,0,137.42667)" />
      <path
         id="path16"
         d="m 766.117,252.816 v 30"
         style="fill:none;stroke:#231f20;stroke-width:5;stroke-linecap:butt;stroke-linejoin:miter;stroke-miterlimit:3.25;stroke-dasharray:none;stroke-opacity:1"
         transform="matrix(0.13333333,0,0,-0.13333333,0,137.42667)" />
      <path
         id="path17"
         d="m 917.699,252.816 v 30"
         style="fill:none;stroke:#231f20;stroke-width:5;stroke-linecap:butt;stroke-linejoin:miter;stroke-miterlimit:3.25;stroke-dasharray:none;stroke-opacity:1"
         transform="matrix(0.13333333,0,0,-0.13333333,0,137.42667)" />
      <path
         id="path18"
         d="m 1069.28,252.816 v 30"
         style="fill:none;stroke:#231f20;stroke-width:5;stroke-linecap:butt;stroke-linejoin:miter;stroke-miterlimit:3.25;stroke-dasharray:none;stroke-opacity:1"
         transform="matrix(0.13333333,0,0,-0.13333333,0,137.42667)" />
      <path
         id="path19"
         d="m 1220.86,252.816 v 30"
         style="fill:none;stroke:#231f20;stroke-width:5;stroke-linecap:butt;stroke-linejoin:miter;stroke-miterlimit:3.25;stroke-dasharray:none;stroke-opacity:1"
         transform="matrix(0.13333333,0,0,-0.13333333,0,137.42667)" />
      <path
         id="path20"
         d="m 1372.48,252.816 v 30"
         style="fill:none;stroke:#231f20;stroke-width:5;stroke-linecap:butt;stroke-linejoin:miter;stroke-miterlimit:3.25;stroke-dasharray:none;stroke-opacity:1"
         transform="matrix(0.13333333,0,0,-0.13333333,0,137.42667)" />
      <path
         id="path21"
         d="m 129.789,634.141 h 30 m 0,-351.325 H 1397.73"
         style="fill:none;stroke:#231f20;stroke-width:5;stroke-linecap:butt;stroke-linejoin:miter;stroke-miterlimit:3.25;stroke-dasharray:none;stroke-opacity:1"
         transform="matrix(0.13333333,0,0,-0.13333333,0,137.42667)" />
      <path
         id="path22"
         d="m 129.789,985.473 h 30"
         style="fill:none;stroke:#231f20;stroke-width:5;stroke-linecap:butt;stroke-linejoin:miter;stroke-miterlimit:3.25;stroke-dasharray:none;stroke-opacity:1"
         transform="matrix(0.13333333,0,0,-0.13333333,0,137.42667)" />
      <path
         id="path23"
         d="M 159.789,282.816 V 1024.5"
         style="fill:none;stroke:#231f20;stroke-width:5;stroke-linecap:butt;stroke-linejoin:miter;stroke-miterlimit:3.25;stroke-dasharray:none;stroke-opacity:1"
         transform="matrix(0.13333333,0,0,-0.13333333,0,137.42667)" />
      <path
         id="path24"
         d="m 1817.66,568.23 c -3.41,3.403 -7.55,5.11 -12.39,5.11 -4.84,0 -8.95,-1.707 -12.36,-5.11 -3.39,-3.41 -5.1,-7.523 -5.1,-12.347 0,-4.86 1.71,-8.988 5.1,-12.383 3.41,-3.395 7.52,-5.098 12.36,-5.098 4.87,0 8.99,1.703 12.4,5.098 3.41,3.395 5.11,7.523 5.11,12.383 0,4.824 -1.71,8.937 -5.12,12.347 v 0"
         style="fill:#3871c1;fill-opacity:1;fill-rule:nonzero;stroke:none"
         transform="matrix(0.13333333,0,0,-0.13333333,0,137.42667)" />
      <path
         id="path25"
         d="m 1969.25,930.047 c -3.42,3.41 -7.55,5.113 -12.39,5.113 -4.84,0 -8.96,-1.703 -12.36,-5.113 -3.4,-3.402 -5.1,-7.52 -5.1,-12.344 0,-4.859 1.7,-8.988 5.1,-12.387 3.4,-3.394 7.52,-5.093 12.36,-5.093 4.86,0 9,1.699 12.4,5.093 3.41,3.399 5.11,7.528 5.11,12.387 0,4.824 -1.71,8.942 -5.12,12.344 v 0"
         style="fill:#3871c1;fill-opacity:1;fill-rule:nonzero;stroke:none"
         transform="matrix(0.13333333,0,0,-0.13333333,0,137.42667)" />
      <path
         id="path26"
         d="m 2120.83,856.828 c -3.41,3.41 -7.54,5.11 -12.37,5.11 -4.86,0 -8.97,-1.7 -12.37,-5.11 -3.39,-3.406 -5.09,-7.519 -5.09,-12.344 0,-4.855 1.7,-8.988 5.09,-12.386 3.4,-3.395 7.51,-5.094 12.37,-5.094 4.84,0 8.98,1.699 12.39,5.094 3.4,3.398 5.11,7.531 5.11,12.386 0,4.825 -1.71,8.938 -5.13,12.344 v 0"
         style="fill:#3871c1;fill-opacity:1;fill-rule:nonzero;stroke:none"
         transform="matrix(0.13333333,0,0,-0.13333333,0,137.42667)" />
      <path
         id="path27"
         d="m 2272.41,516.047 c -3.41,3.402 -7.54,5.101 -12.37,5.101 -4.85,0 -8.97,-1.699 -12.36,-5.101 -3.4,-3.406 -5.1,-7.524 -5.1,-12.344 0,-4.863 1.7,-8.988 5.1,-12.387 3.39,-3.398 7.51,-5.093 12.36,-5.093 4.85,0 8.98,1.695 12.39,5.093 3.4,3.399 5.11,7.524 5.11,12.387 0,4.82 -1.71,8.938 -5.13,12.344 v 0"
         style="fill:#3871c1;fill-opacity:1;fill-rule:nonzero;stroke:none"
         transform="matrix(0.13333333,0,0,-0.13333333,0,137.42667)" />
      <path
         id="path28"
         d="m 2423.99,657.504 c -3.4,3.406 -7.53,5.109 -12.37,5.109 -4.84,0 -8.96,-1.703 -12.36,-5.109 -3.39,-3.41 -5.1,-7.52 -5.1,-12.344 0,-4.859 1.71,-8.988 5.1,-12.39 3.4,-3.395 7.52,-5.094 12.36,-5.094 4.85,0 8.99,1.699 12.39,5.094 3.41,3.402 5.11,7.531 5.11,12.39 0,4.824 -1.71,8.934 -5.13,12.344 v 0"
         style="fill:#3871c1;fill-opacity:1;fill-rule:nonzero;stroke:none"
         transform="matrix(0.13333333,0,0,-0.13333333,0,137.42667)" />
      <path
         id="path29"
         d="m 2575.6,713.992 c -3.42,3.406 -7.55,5.113 -12.39,5.113 -4.84,0 -8.96,-1.707 -12.37,-5.113 -3.39,-3.402 -5.09,-7.519 -5.09,-12.344 0,-4.859 1.7,-8.984 5.09,-12.382 3.41,-3.399 7.53,-5.098 12.37,-5.098 4.86,0 9,1.699 12.4,5.098 3.4,3.398 5.11,7.523 5.11,12.382 0,4.825 -1.72,8.942 -5.12,12.344 v 0"
         style="fill:#3871c1;fill-opacity:1;fill-rule:nonzero;stroke:none"
         transform="matrix(0.13333333,0,0,-0.13333333,0,137.42667)" />
      <path
         id="path30"
         d="m 2727.18,755.063 c -3.42,3.406 -7.54,5.113 -12.39,5.113 -4.84,0 -8.96,-1.707 -12.36,-5.113 -3.4,-3.411 -5.1,-7.52 -5.1,-12.344 0,-4.86 1.7,-8.989 5.1,-12.391 3.4,-3.39 7.52,-5.098 12.36,-5.098 4.86,0 9,1.708 12.4,5.098 3.41,3.402 5.11,7.531 5.11,12.391 0,4.824 -1.7,8.933 -5.12,12.344 v 0"
         style="fill:#3871c1;fill-opacity:1;fill-rule:nonzero;stroke:none"
         transform="matrix(0.13333333,0,0,-0.13333333,0,137.42667)" />
      <path
         id="path31"
         d="m 2878.76,454.258 c -3.42,3.402 -7.54,5.105 -12.38,5.105 -4.85,0 -8.97,-1.703 -12.37,-5.105 -3.39,-3.406 -5.09,-7.528 -5.09,-12.352 0,-4.851 1.7,-8.984 5.09,-12.379 3.4,-3.402 7.52,-5.093 12.37,-5.093 4.85,0 8.99,1.691 12.4,5.093 3.4,3.395 5.11,7.528 5.11,12.379 0,4.824 -1.71,8.946 -5.13,12.352 v 0"
         style="fill:#3871c1;fill-opacity:1;fill-rule:nonzero;stroke:none"
         transform="matrix(0.13333333,0,0,-0.13333333,0,137.42667)" />
      <path
         id="path32"
         d="m 3030.34,663.75 c -3.42,3.406 -7.54,5.109 -12.38,5.109 -4.83,0 -8.97,-1.703 -12.36,-5.109 -3.39,-3.406 -5.1,-7.52 -5.1,-12.348 0,-4.855 1.71,-8.98 5.1,-12.382 3.39,-3.395 7.53,-5.094 12.36,-5.094 4.85,0 8.99,1.699 12.4,5.094 3.41,3.402 5.11,7.527 5.11,12.382 0,4.828 -1.71,8.942 -5.13,12.348 v 0"
         style="fill:#3871c1;fill-opacity:1;fill-rule:nonzero;stroke:none"
         transform="matrix(0.13333333,0,0,-0.13333333,0,137.42667)" />
      <path
         id="path33"
         d="m 1805.34,554.34 151.58,361.816 151.59,-73.218 151.58,-340.778 151.58,141.473 151.58,56.492 151.58,41.07 151.59,-300.82 151.61,209.496"
         style="fill:none;stroke:#3871c1;stroke-width:7.5;stroke-linecap:square;stroke-linejoin:miter;stroke-miterlimit:3.25;stroke-dasharray:none;stroke-opacity:1"
         transform="matrix(0.13333333,0,0,-0.13333333,0,137.42667)" />
      <path
         id="path34"
         d="m 1956.92,253.871 v 30"
         style="fill:none;stroke:#231f20;stroke-width:5;stroke-linecap:butt;stroke-linejoin:miter;stroke-miterlimit:3.25;stroke-dasharray:none;stroke-opacity:1"
         transform="matrix(0.13333333,0,0,-0.13333333,0,137.42667)" />
      <path
         id="path35"
         d="m 2108.51,253.871 v 30"
         style="fill:none;stroke:#231f20;stroke-width:5;stroke-linecap:butt;stroke-linejoin:miter;stroke-miterlimit:3.25;stroke-dasharray:none;stroke-opacity:1"
         transform="matrix(0.13333333,0,0,-0.13333333,0,137.42667)" />
      <path
         id="path36"
         d="m 2260.09,253.871 v 30"
         style="fill:none;stroke:#231f20;stroke-width:5;stroke-linecap:butt;stroke-linejoin:miter;stroke-miterlimit:3.25;stroke-dasharray:none;stroke-opacity:1"
         transform="matrix(0.13333333,0,0,-0.13333333,0,137.42667)" />
      <path
         id="path37"
         d="m 2411.67,253.871 v 30"
         style="fill:none;stroke:#231f20;stroke-width:5;stroke-linecap:butt;stroke-linejoin:miter;stroke-miterlimit:3.25;stroke-dasharray:none;stroke-opacity:1"
         transform="matrix(0.13333333,0,0,-0.13333333,0,137.42667)" />
      <path
         id="path38"
         d="m 2563.25,253.871 v 30"
         style="fill:none;stroke:#231f20;stroke-width:5;stroke-linecap:butt;stroke-linejoin:miter;stroke-miterlimit:3.25;stroke-dasharray:none;stroke-opacity:1"
         transform="matrix(0.13333333,0,0,-0.13333333,0,137.42667)" />
      <path
         id="path39"
         d="m 2714.83,253.871 v 30"
         style="fill:none;stroke:#231f20;stroke-width:5;stroke-linecap:butt;stroke-linejoin:miter;stroke-miterlimit:3.25;stroke-dasharray:none;stroke-opacity:1"
         transform="matrix(0.13333333,0,0,-0.13333333,0,137.42667)" />
      <path
         id="path40"
         d="m 2866.42,253.871 v 30"
         style="fill:none;stroke:#231f20;stroke-width:5;stroke-linecap:butt;stroke-linejoin:miter;stroke-miterlimit:3.25;stroke-dasharray:none;stroke-opacity:1"
         transform="matrix(0.13333333,0,0,-0.13333333,0,137.42667)" />
      <path
         id="path41"
         d="m 3018.03,253.871 v 30"
         style="fill:none;stroke:#231f20;stroke-width:5;stroke-linecap:butt;stroke-linejoin:miter;stroke-miterlimit:3.25;stroke-dasharray:none;stroke-opacity:1"
         transform="matrix(0.13333333,0,0,-0.13333333,0,137.42667)" />
      <path
         id="path42"
         d="m 1775.34,635.191 h 30 m 0,-351.32 h 1237.94"
         style="fill:none;stroke:#231f20;stroke-width:5;stroke-linecap:butt;stroke-linejoin:miter;stroke-miterlimit:3.25;stroke-dasharray:none;stroke-opacity:1"
         transform="matrix(0.13333333,0,0,-0.13333333,0,137.42667)" />
      <path
         id="path43"
         d="m 1775.34,986.527 h 30"
         style="fill:none;stroke:#231f20;stroke-width:5;stroke-linecap:butt;stroke-linejoin:miter;stroke-miterlimit:3.25;stroke-dasharray:none;stroke-opacity:1"
         transform="matrix(0.13333333,0,0,-0.13333333,0,137.42667)" />
      <path
         id="path44"
         d="M 1805.34,283.871 V 1025.55"
         style="fill:none;stroke:#231f20;stroke-width:5;stroke-linecap:butt;stroke-linejoin:miter;stroke-miterlimit:3.25;stroke-dasharray:none;stroke-opacity:1"
         transform="matrix(0.13333333,0,0,-0.13333333,0,137.42667)" />
    </g>
  </g>
</svg>
