<?xml version="1.0" encoding="UTF-8" standalone="no"?>
<!-- Created with Inkscape (http://www.inkscape.org/) -->

<svg
   version="1.1"
   id="svg1"
   width="328.78668"
   height="222.8"
   viewBox="0 0 328.78668 222.8"
   sodipodi:docname="pha10f02.eps"
   xmlns:inkscape="http://www.inkscape.org/namespaces/inkscape"
   xmlns:sodipodi="http://sodipodi.sourceforge.net/DTD/sodipodi-0.dtd"
   xmlns="http://www.w3.org/2000/svg"
   xmlns:svg="http://www.w3.org/2000/svg">
  <defs
     id="defs1" />
  <sodipodi:namedview
     id="namedview1"
     pagecolor="#ffffff"
     bordercolor="#000000"
     borderopacity="0.25"
     inkscape:showpageshadow="2"
     inkscape:pageopacity="0.0"
     inkscape:pagecheckerboard="0"
     inkscape:deskcolor="#d1d1d1">
    <inkscape:page
       x="0"
       y="0"
       inkscape:label="1"
       id="page1"
       width="328.78668"
       height="222.8"
       margin="0"
       bleed="0" />
  </sodipodi:namedview>
  <g
     id="g1"
     inkscape:groupmode="layer"
     inkscape:label="1">
    <g
       id="group-R5">
      <g
         id="g2"
         aria-label="(s = 0, t = 0)&#10;(s = 1, t = 1)&#10;(x = 0, y = 0)&#10;(x = x&#10;r&#10;, y = y&#10;r&#10;)"
         transform="matrix(1.3333333,0,0,1.3333333,46.121867,9.9013333)">
        <path
           id="path2"
           d="m 2.6947328,1.3249766 c -0.890625,-0.76171879 -1.40625,-2.20312504 -1.40625,-3.75 0,-1.546875 0.515625,-3 1.40625,-3.75 L 2.5423891,-6.3859609 c -1.3242188,0.9023437 -1.91015629,2.3320312 -1.91015629,3.9492187 0,1.62890626 0.58593749,3.08203126 1.91015629,3.9609375 z m 0,0"
           style="fill:#231f20;fill-opacity:1;fill-rule:nonzero;stroke:none" />
        <path
           id="path3"
           d="m 4.1332094,0.10622656 c 0.7265625,0 1.6289062,-0.66796875 1.6289062,-1.35937496 0,-0.3867188 -0.2226562,-0.6445313 -0.7617187,-1.0546875 -0.3164063,-0.2460938 -0.5859375,-0.46875 -0.5859375,-0.796875 0,-0.3046875 0.234375,-0.5039063 0.4921875,-0.5039063 0.3046875,0 0.515625,0.1757813 0.703125,0.4101563 0.046875,0.070312 0.1054687,0.082031 0.1992187,0.035156 0.1289063,-0.082031 0.2226563,-0.2226562 0.2226563,-0.375 0,-0.234375 -0.3046875,-0.5039062 -0.703125,-0.5039062 -0.2929688,0 -0.7265625,0.1875 -0.9960938,0.4335937 -0.3632812,0.3164063 -0.46875,0.5976563 -0.46875,0.8789063 0,0.4570312 0.375,0.7851562 0.7851563,1.0898437 0.421875,0.3398438 0.515625,0.5390625 0.515625,0.76171876 0,0.28125 -0.234375,0.5390625 -0.5976563,0.5390625 -0.2929687,0 -0.6210937,-0.19921875 -0.8554687,-0.55078125 -0.046875,-0.0585938 -0.1171875,-0.0820313 -0.234375,-0.0234375 -0.1523438,0.0820313 -0.2695313,0.22265625 -0.2578125,0.375 0,0.31640625 0.4921875,0.64453125 0.9140625,0.64453145 z m 0,0"
           style="fill:#231f20;fill-opacity:1;fill-rule:nonzero;stroke:none" />
        <path
           id="path4"
           d="M 12.948639,-2.8937734 V -3.3390859 H 8.6595766 v 0.4453125 z m 0,1.6523437 V -1.6867422 H 8.6595766 v 0.4453125 z m 4.661133,-4.4765625 c -1.347656,0 -1.839844,1.6054688 -1.839844,2.9179688 0,1.4179687 0.480469,2.90624996 1.839844,2.90624996 1.359375,0 1.828125,-1.59374996 1.828125,-2.91796876 0,-1.3828125 -0.46875,-2.90625 -1.828125,-2.90625 z m 0,0.3046875 c 0.808594,0 1.03125,1.3242188 1.03125,2.6015625 0,1.265625 -0.222656,2.61328126 -1.03125,2.61328126 -0.773438,0 -1.042969,-1.35937496 -1.042969,-2.61328126 0,-1.2539062 0.222656,-2.6015625 1.042969,-2.6015625 z m 3.005859,4.2539063 c -0.210937,0 -0.433593,0.140625 -0.433593,0.36328121 0,0.15234375 0.07031,0.22265625 0.117187,0.234375 0.304688,0.0703125 0.5625,0.26953125 0.5625,0.59765625 0,0.33984375 -0.257812,0.57421875 -0.691406,0.76171875 l 0.09375,0.25781249 c 0.550781,-0.16406249 1.183594,-0.55078124 1.183594,-1.24218749 0,-0.6328125 -0.503907,-0.97265621 -0.832032,-0.97265621 z m 0,0"
           style="fill:#231f20;fill-opacity:1;fill-rule:nonzero;stroke:none" />
        <path
           id="path5"
           d="m 26.914459,-3.9015859 h -1.054687 l 0.316406,-1.359375 -0.08203,-0.046875 -0.679688,0.5507812 -0.210937,0.8554688 H 24.66446 l -0.222656,0.2695312 0.02344,0.082031 h 0.667968 l -0.527343,2.4726562 c -0.199219,0.92578126 -0.02344,1.18359376 0.1875,1.18359376 0.480468,0 1.148437,-0.59765625 1.453125,-0.9609375 l -0.12891,-0.18749966 c -0.210937,0.22265621 -0.65625,0.51562496 -0.808593,0.51562496 -0.105469,0 -0.140625,-0.09375 -0.05859,-0.53906246 l 0.539062,-2.484375 0.890625,-0.035156 z m 0,0"
           style="fill:#231f20;fill-opacity:1;fill-rule:nonzero;stroke:none" />
        <path
           id="path6"
           d="m 33.430084,-2.8937734 v -0.4453125 h -4.289062 v 0.4453125 z m 0,1.6523437 v -0.4453125 h -4.289062 v 0.4453125 z m 4.664063,-4.4765625 c -1.347656,0 -1.839844,1.6054688 -1.839844,2.9179688 0,1.4179687 0.480469,2.90624996 1.839844,2.90624996 1.359375,0 1.828125,-1.59374996 1.828125,-2.91796876 0,-1.3828125 -0.46875,-2.90625 -1.828125,-2.90625 z m 0,0.3046875 c 0.808594,0 1.03125,1.3242188 1.03125,2.6015625 0,1.265625 -0.222656,2.61328126 -1.03125,2.61328126 -0.773438,0 -1.042969,-1.35937496 -1.042969,-2.61328126 0,-1.2539062 0.222656,-2.6015625 1.042969,-2.6015625 z m 2.572266,-0.7617187 c 0.890625,0.7382812 1.417968,2.203125 1.417968,3.75 0,1.54687496 -0.503906,2.98828121 -1.417968,3.75 l 0.164062,0.1992187 c 1.347656,-0.91406249 1.898438,-2.33203124 1.898438,-3.9492187 0,-1.6289063 -0.550782,-3.0585938 -1.898438,-3.9609375 z M 171.32169,120.99978 c -0.89063,-0.76172 -1.40625,-2.20312 -1.40625,-3.75 0,-1.54687 0.51562,-3 1.40625,-3.75 l -0.15235,-0.21094 c -1.32422,0.90235 -1.91015,2.33203 -1.91015,3.94922 0,1.62891 0.58593,3.08203 1.91015,3.96094 z m 0,0"
           style="fill:#231f20;fill-opacity:1;fill-rule:nonzero;stroke:none" />
        <path
           id="path7"
           d="m 172.76016,119.78103 c 0.72656,0 1.62891,-0.66797 1.62891,-1.35937 0,-0.38672 -0.22266,-0.64454 -0.76172,-1.05469 -0.31641,-0.2461 -0.58594,-0.46875 -0.58594,-0.79688 0,-0.30468 0.23438,-0.5039 0.49219,-0.5039 0.30469,0 0.51562,0.17578 0.70312,0.41015 0.0469,0.0703 0.10547,0.082 0.19922,0.0352 0.12891,-0.082 0.22266,-0.22266 0.22266,-0.375 0,-0.23438 -0.30469,-0.50391 -0.70313,-0.50391 -0.29296,0 -0.72656,0.1875 -0.99609,0.4336 -0.36328,0.3164 -0.46875,0.59765 -0.46875,0.8789 0,0.45703 0.375,0.78516 0.78516,1.08985 0.42187,0.33984 0.51562,0.53906 0.51562,0.76172 0,0.28125 -0.23437,0.53906 -0.59765,0.53906 -0.29297,0 -0.6211,-0.19922 -0.85547,-0.55078 -0.0469,-0.0586 -0.11719,-0.082 -0.23438,-0.0234 -0.15234,0.082 -0.26953,0.22266 -0.25781,0.375 0,0.31641 0.49219,0.64453 0.91406,0.64453 z m 0,0"
           style="fill:#231f20;fill-opacity:1;fill-rule:nonzero;stroke:none" />
        <path
           id="path8"
           d="m 181.57559,116.78103 v -0.44531 h -4.28906 v 0.44531 z m 0,1.65234 v -0.44531 h -4.28906 v 0.44531 z m 5.96192,1.24219 v -0.24609 c -0.82032,-0.0586 -0.87891,-0.12891 -0.87891,-0.78516 v -4.6875 c -0.49219,0.19922 -1.01953,0.375 -1.59375,0.46875 v 0.21094 l 0.43359,0.0117 c 0.38672,0.0234 0.42188,0.0703 0.42188,0.53906 v 3.45703 c 0,0.65625 -0.0352,0.72656 -0.85547,0.78516 v 0.24609 z m 1.708,-1.16015 c -0.21093,0 -0.43359,0.14062 -0.43359,0.36328 0,0.15234 0.0703,0.22265 0.11719,0.23437 0.30469,0.0703 0.5625,0.26953 0.5625,0.59766 0,0.33984 -0.25781,0.57422 -0.69141,0.76172 l 0.0937,0.25781 c 0.55078,-0.16406 1.1836,-0.55078 1.1836,-1.24219 0,-0.63281 -0.50391,-0.97265 -0.83204,-0.97265 z m 0,0"
           style="fill:#231f20;fill-opacity:1;fill-rule:nonzero;stroke:none" />
        <path
           id="path9"
           d="m 195.54141,115.77322 h -1.05469 l 0.31641,-1.35938 -0.082,-0.0469 -0.67969,0.55078 -0.21094,0.85547 h -0.53906 l -0.22265,0.26953 0.0234,0.082 h 0.66797 l -0.52734,2.47266 c -0.19922,0.92578 -0.0234,1.18359 0.1875,1.18359 0.48047,0 1.14844,-0.59766 1.45312,-0.96094 l -0.1289,-0.1875 c -0.21094,0.22266 -0.65625,0.51563 -0.8086,0.51563 -0.10547,0 -0.14062,-0.0937 -0.0586,-0.53906 l 0.53906,-2.48438 0.89063,-0.0352 z m 0,0"
           style="fill:#231f20;fill-opacity:1;fill-rule:nonzero;stroke:none" />
        <path
           id="path10"
           d="m 202.05704,116.78103 v -0.44531 h -4.28907 v 0.44531 z m 0,1.65234 v -0.44531 h -4.28907 v 0.44531 z m 5.96191,1.24219 v -0.24609 c -0.82031,-0.0586 -0.8789,-0.12891 -0.8789,-0.78516 v -4.6875 c -0.49219,0.19922 -1.01954,0.375 -1.59375,0.46875 v 0.21094 l 0.43359,0.0117 c 0.38672,0.0234 0.42187,0.0703 0.42187,0.53906 v 3.45703 c 0,0.65625 -0.0351,0.72656 -0.85546,0.78516 v 0.24609 z m 1.27442,-6.17578 c 0.89062,0.73828 1.41796,2.20313 1.41796,3.75 0,1.54688 -0.5039,2.98828 -1.41796,3.75 l 0.16406,0.19922 c 1.34765,-0.91406 1.89844,-2.33203 1.89844,-3.94922 0,-1.62891 -0.55079,-3.05859 -1.89844,-3.96094 z M -31.896087,36.589625 c -0.890625,-0.761719 -1.40625,-2.203125 -1.40625,-3.75 0,-1.546875 0.515625,-3 1.40625,-3.75 l -0.152344,-0.210938 c -1.324219,0.902344 -1.910156,2.332032 -1.910156,3.949219 0,1.628906 0.585937,3.082031 1.910156,3.960938 z m 0,0"
           style="fill:#231f20;fill-opacity:1;fill-rule:nonzero;stroke:none" />
        <path
           id="path11"
           d="m -30.703705,32.347437 c 0.316407,-0.398437 0.492188,-0.515625 0.574219,-0.515625 0.09375,0 0.175781,0.128907 0.304688,0.574219 l 0.304687,0.9375 c -0.5625,0.832031 -0.984375,1.359375 -1.242187,1.359375 -0.09375,0 -0.164063,-0.03516 -0.210938,-0.09375 -0.04687,-0.05859 -0.09375,-0.09375 -0.140625,-0.09375 -0.175781,0 -0.363281,0.210938 -0.363281,0.421875 -0.01172,0.257813 0.175781,0.433594 0.410156,0.433594 0.421875,0 0.84375,-0.433594 1.640625,-1.699219 l 0.28125,0.878906 c 0.175781,0.5625 0.363281,0.820313 0.597656,0.820313 0.304688,0 0.726563,-0.328125 1.136719,-0.972656 l -0.152344,-0.175782 c -0.28125,0.339844 -0.503906,0.515625 -0.644531,0.515625 -0.152344,0 -0.28125,-0.257812 -0.457031,-0.820312 l -0.292969,-0.902344 c 0.199219,-0.28125 0.398438,-0.527344 0.585938,-0.738281 0.234375,-0.292969 0.410156,-0.445313 0.539062,-0.445313 0.08203,0 0.152344,0.03516 0.210938,0.105469 0.04687,0.04687 0.08203,0.07031 0.128906,0.07031 0.140625,0 0.339844,-0.175782 0.351562,-0.398438 0,-0.199219 -0.140625,-0.386719 -0.375,-0.386719 -0.398437,0 -0.785156,0.386719 -1.535156,1.476563 l -0.152344,-0.492188 c -0.222656,-0.644531 -0.339843,-0.984375 -0.585937,-0.984375 -0.292969,0 -0.691406,0.386719 -1.066406,0.9375 z m 0,0"
           style="fill:#231f20;fill-opacity:1;fill-rule:nonzero;stroke:none" />
        <path
           id="path12"
           d="m -20.420502,32.370875 v -0.445313 h -4.289062 v 0.445313 z m 0,1.652344 v -0.445313 h -4.289062 v 0.445313 z m 4.661133,-4.476563 c -1.347656,0 -1.839843,1.605469 -1.839843,2.917969 0,1.417969 0.480468,2.90625 1.839843,2.90625 1.359375,0 1.828125,-1.59375 1.828125,-2.917969 0,-1.382812 -0.46875,-2.90625 -1.828125,-2.90625 z m 0,0.304688 c 0.808594,0 1.03125,1.324218 1.03125,2.601562 0,1.265625 -0.222656,2.613281 -1.03125,2.613281 -0.773437,0 -1.042968,-1.359375 -1.042968,-2.613281 0,-1.253906 0.222656,-2.601562 1.042968,-2.601562 z m 3.008789,4.253906 c -0.210937,0 -0.433593,0.140625 -0.433593,0.363281 0,0.152344 0.07031,0.222656 0.117187,0.234375 0.304688,0.07031 0.5625,0.269531 0.5625,0.597656 0,0.339844 -0.257812,0.574219 -0.691406,0.761719 l 0.09375,0.257813 c 0.550781,-0.164063 1.183594,-0.550782 1.183594,-1.242188 0,-0.632812 -0.503907,-0.972656 -0.832032,-0.972656 z m 0,0"
           style="fill:#231f20;fill-opacity:1;fill-rule:nonzero;stroke:none" />
        <path
           id="path13"
           d="m -7.3453062,34.585719 c -0.058594,-0.808594 -0.1171875,-1.628907 -0.2109375,-2.308594 -0.070312,-0.714844 -0.2109375,-1.054688 -0.4570313,-1.054688 -0.328125,0 -0.7734375,0.515625 -1.0664062,0.960938 l 0.1523437,0.210937 c 0.2226563,-0.316406 0.4570313,-0.527343 0.5273438,-0.527343 0.070312,0 0.1171875,0.117187 0.1875,0.5625 0.1289062,0.820312 0.2695312,2.226562 0.28125,2.929687 -0.4453125,0.597656 -1.1601563,1.394531 -2.1210933,2.015625 l 0.070312,0.199219 0.9375,-0.234375 c 0.5039063,-0.5625 1.0898438,-1.359375 1.6171875,-2.121094 0.4804688,-0.667969 1.2421875,-1.863281 1.6289063,-2.542969 0.234375,-0.398437 0.328125,-0.703125 0.3164062,-0.960937 0,-0.292969 -0.1523437,-0.492188 -0.3515625,-0.492188 -0.1523437,0 -0.3164062,0.105469 -0.375,0.246094 -0.035156,0.07031 -0.046875,0.164063 -0.011719,0.222656 0.035156,0.105469 0.09375,0.246094 0.09375,0.421875 0.011719,0.65625 -0.8203125,1.886719 -1.2070313,2.472657 z m 0,0"
           style="fill:#231f20;fill-opacity:1;fill-rule:nonzero;stroke:none" />
        <path
           id="path14"
           d="m 1.2767641,32.370875 v -0.445313 h -4.2890625 v 0.445313 z m 0,1.652344 v -0.445313 h -4.2890625 v 0.445313 z m 4.6640625,-4.476563 c -1.3476563,0 -1.8398438,1.605469 -1.8398438,2.917969 0,1.417969 0.4804688,2.90625 1.8398438,2.90625 1.359375,0 1.828125,-1.59375 1.828125,-2.917969 0,-1.382812 -0.46875,-2.90625 -1.828125,-2.90625 z m 0,0.304688 c 0.8085937,0 1.03125,1.324218 1.03125,2.601562 0,1.265625 -0.2226563,2.613281 -1.03125,2.613281 -0.7734375,0 -1.0429688,-1.359375 -1.0429688,-2.613281 0,-1.253906 0.2226563,-2.601562 1.0429688,-2.601562 z m 2.5722656,-0.761719 c 0.890625,0.738281 1.4179687,2.203125 1.4179687,3.75 0,1.546875 -0.5039062,2.988281 -1.4179687,3.75 l 0.1640625,0.199219 c 1.3476563,-0.914063 1.8984373,-2.332032 1.8984373,-3.949219 0,-1.628906 -0.550781,-3.058594 -1.8984373,-3.960938 z M 138.78458,155.75759 c -0.89063,-0.76172 -1.40625,-2.20312 -1.40625,-3.75 0,-1.54687 0.51562,-3 1.40625,-3.75 l -0.15235,-0.21093 c -1.32422,0.90234 -1.91015,2.33203 -1.91015,3.94921 0,1.62891 0.58593,3.08204 1.91015,3.96094 z m 0,0"
           style="fill:#231f20;fill-opacity:1;fill-rule:nonzero;stroke:none" />
        <path
           id="path15"
           d="m 139.97696,151.51541 c 0.31641,-0.39844 0.49219,-0.51563 0.57422,-0.51563 0.0937,0 0.17578,0.12891 0.30469,0.57422 l 0.30468,0.9375 c -0.5625,0.83203 -0.98437,1.35937 -1.24218,1.35937 -0.0937,0 -0.16407,-0.0351 -0.21094,-0.0937 -0.0469,-0.0586 -0.0937,-0.0937 -0.14063,-0.0937 -0.17578,0 -0.36328,0.21094 -0.36328,0.42188 -0.0117,0.25781 0.17578,0.43359 0.41016,0.43359 0.42187,0 0.84375,-0.43359 1.64062,-1.69922 l 0.28125,0.87891 c 0.17578,0.5625 0.36328,0.82031 0.59766,0.82031 0.30469,0 0.72656,-0.32812 1.13672,-0.97265 l -0.15235,-0.17578 c -0.28125,0.33984 -0.5039,0.51562 -0.64453,0.51562 -0.15234,0 -0.28125,-0.25781 -0.45703,-0.82031 l -0.29297,-0.90235 c 0.19922,-0.28125 0.39844,-0.52734 0.58594,-0.73828 0.23438,-0.29297 0.41016,-0.44531 0.53906,-0.44531 0.082,0 0.15235,0.0352 0.21094,0.10547 0.0469,0.0469 0.082,0.0703 0.12891,0.0703 0.14062,0 0.33984,-0.17578 0.35156,-0.39844 0,-0.19921 -0.14063,-0.38671 -0.375,-0.38671 -0.39844,0 -0.78516,0.38671 -1.53516,1.47656 l -0.15234,-0.49219 c -0.22266,-0.64453 -0.33984,-0.98437 -0.58594,-0.98437 -0.29297,0 -0.6914,0.38671 -1.0664,0.9375 z m 0,0"
           style="fill:#231f20;fill-opacity:1;fill-rule:nonzero;stroke:none" />
        <path
           id="path16"
           d="m 150.26016,151.53884 v -0.44531 h -4.28906 v 0.44531 z m 0,1.65235 v -0.44532 h -4.28906 v 0.44532 z m 0,0"
           style="fill:#231f20;fill-opacity:1;fill-rule:nonzero;stroke:none" />
        <path
           id="path17"
           d="m 153.53848,151.51541 c 0.31641,-0.39844 0.49219,-0.51563 0.57422,-0.51563 0.0937,0 0.17578,0.12891 0.30469,0.57422 l 0.30469,0.9375 c -0.5625,0.83203 -0.98438,1.35937 -1.24219,1.35937 -0.0937,0 -0.16406,-0.0351 -0.21094,-0.0937 -0.0469,-0.0586 -0.0937,-0.0937 -0.14062,-0.0937 -0.17578,0 -0.36328,0.21094 -0.36328,0.42188 -0.0117,0.25781 0.17578,0.43359 0.41015,0.43359 0.42188,0 0.84375,-0.43359 1.64063,-1.69922 l 0.28125,0.87891 c 0.17578,0.5625 0.36328,0.82031 0.59765,0.82031 0.30469,0 0.72657,-0.32812 1.13672,-0.97265 l -0.15234,-0.17578 c -0.28125,0.33984 -0.50391,0.51562 -0.64453,0.51562 -0.15235,0 -0.28125,-0.25781 -0.45703,-0.82031 l -0.29297,-0.90235 c 0.19922,-0.28125 0.39843,-0.52734 0.58593,-0.73828 0.23438,-0.29297 0.41016,-0.44531 0.53907,-0.44531 0.082,0 0.15234,0.0352 0.21093,0.10547 0.0469,0.0469 0.082,0.0703 0.12891,0.0703 0.14063,0 0.33984,-0.17578 0.35156,-0.39844 0,-0.19921 -0.14062,-0.38671 -0.375,-0.38671 -0.39843,0 -0.78515,0.38671 -1.53515,1.47656 l -0.15235,-0.49219 c -0.22265,-0.64453 -0.33984,-0.98437 -0.58593,-0.98437 -0.29297,0 -0.69141,0.38671 -1.06641,0.9375 z m 0,0"
           style="fill:#231f20;fill-opacity:1;fill-rule:nonzero;stroke:none" />
        <path
           id="path18"
           d="m 158.65079,153.34939 v -0.98437 c -0.4336,0.1875 -0.83203,0.29296 -1.26563,0.36328 v 0.19922 c 0.50391,0.0703 0.55078,0.10546 0.55078,0.70312 v 1.86328 c 0,0.59766 -0.0586,0.64453 -0.62109,0.70313 v 0.23437 h 2.07422 v -0.23437 c -0.69141,-0.0586 -0.73828,-0.10547 -0.73828,-0.70313 v -1.64062 c 0.19922,-0.50391 0.48047,-0.77344 0.71484,-0.77344 0.15234,0 0.25781,0.0469 0.38672,0.1875 0.0469,0.0469 0.12891,0.0586 0.23437,0.0117 0.17579,-0.082 0.29297,-0.25781 0.29297,-0.4336 0,-0.22265 -0.21093,-0.45703 -0.52734,-0.45703 -0.42188,0 -0.80859,0.50391 -1.07813,0.96094 z m 1.4414,-0.0762 c -0.21093,0 -0.43359,0.14062 -0.43359,0.36328 0,0.15234 0.0703,0.22266 0.11719,0.23437 0.30468,0.0703 0.5625,0.26954 0.5625,0.59766 0,0.33984 -0.25782,0.57422 -0.69141,0.76172 l 0.0937,0.25781 c 0.55078,-0.16406 1.18359,-0.55078 1.18359,-1.24219 0,-0.63281 -0.5039,-0.97265 -0.83203,-0.97265 z m 0,0"
           style="fill:#231f20;fill-opacity:1;fill-rule:nonzero;stroke:none" />
        <path
           id="path19"
           d="m 165.5004,153.75369 c -0.0586,-0.8086 -0.11719,-1.62891 -0.21094,-2.3086 -0.0703,-0.71484 -0.21094,-1.05468 -0.45703,-1.05468 -0.32813,0 -0.77344,0.51562 -1.06641,0.96093 l 0.15235,0.21094 c 0.22265,-0.31641 0.45703,-0.52734 0.52734,-0.52734 0.0703,0 0.11719,0.11718 0.1875,0.5625 0.12891,0.82031 0.26953,2.22656 0.28125,2.92968 -0.44531,0.59766 -1.16016,1.39454 -2.12109,2.01563 l 0.0703,0.19922 0.9375,-0.23438 c 0.5039,-0.5625 1.08984,-1.35937 1.61719,-2.12109 0.48046,-0.66797 1.24218,-1.86328 1.6289,-2.54297 0.23438,-0.39844 0.32813,-0.70312 0.31641,-0.96094 0,-0.29297 -0.15235,-0.49218 -0.35156,-0.49218 -0.15235,0 -0.31641,0.10546 -0.375,0.24609 -0.0352,0.0703 -0.0469,0.16406 -0.0117,0.22266 0.0351,0.10546 0.0937,0.24609 0.0937,0.42187 0.0117,0.65625 -0.82032,1.88672 -1.20703,2.47266 z m 0,0"
           style="fill:#231f20;fill-opacity:1;fill-rule:nonzero;stroke:none" />
        <path
           id="path20"
           d="m 174.12247,151.53884 v -0.44531 h -4.28907 v 0.44531 z m 0,1.65235 v -0.44532 h -4.28907 v 0.44532 z m 0,0"
           style="fill:#231f20;fill-opacity:1;fill-rule:nonzero;stroke:none" />
        <path
           id="path21"
           d="m 178.7836,153.75369 c -0.0586,-0.8086 -0.11719,-1.62891 -0.21094,-2.3086 -0.0703,-0.71484 -0.21094,-1.05468 -0.45703,-1.05468 -0.32812,0 -0.77344,0.51562 -1.06641,0.96093 l 0.15235,0.21094 c 0.22265,-0.31641 0.45703,-0.52734 0.52734,-0.52734 0.0703,0 0.11719,0.11718 0.1875,0.5625 0.12891,0.82031 0.26953,2.22656 0.28125,2.92968 -0.44531,0.59766 -1.16015,1.39454 -2.12109,2.01563 l 0.0703,0.19922 0.9375,-0.23438 c 0.50391,-0.5625 1.08984,-1.35937 1.61719,-2.12109 0.48047,-0.66797 1.24219,-1.86328 1.6289,-2.54297 0.23438,-0.39844 0.32813,-0.70312 0.31641,-0.96094 0,-0.29297 -0.15234,-0.49218 -0.35156,-0.49218 -0.15235,0 -0.31641,0.10546 -0.375,0.24609 -0.0352,0.0703 -0.0469,0.16406 -0.0117,0.22266 0.0352,0.10546 0.0937,0.24609 0.0937,0.42187 0.0117,0.65625 -0.82031,1.88672 -1.20703,2.47266 z m 0,0"
           style="fill:#231f20;fill-opacity:1;fill-rule:nonzero;stroke:none" />
        <path
           id="path22"
           d="m 182.23477,153.34939 v -0.98437 c -0.43359,0.1875 -0.83203,0.29296 -1.26562,0.36328 v 0.19922 c 0.5039,0.0703 0.55078,0.10546 0.55078,0.70312 v 1.86328 c 0,0.59766 -0.0586,0.64453 -0.6211,0.70313 v 0.23437 h 2.07422 v -0.23437 c -0.6914,-0.0586 -0.73828,-0.10547 -0.73828,-0.70313 v -1.64062 c 0.19922,-0.50391 0.48047,-0.77344 0.71485,-0.77344 0.15234,0 0.25781,0.0469 0.38671,0.1875 0.0469,0.0469 0.12891,0.0586 0.23438,0.0117 0.17578,-0.082 0.29297,-0.25781 0.29297,-0.4336 0,-0.22265 -0.21094,-0.45703 -0.52735,-0.45703 -0.42187,0 -0.80859,0.50391 -1.07812,0.96094 z m 1.00781,-5.0918 c 0.89063,0.73828 1.41797,2.20313 1.41797,3.75 0,1.54688 -0.5039,2.98828 -1.41797,3.75 l 0.16407,0.19922 c 1.34765,-0.91406 1.89843,-2.33203 1.89843,-3.94922 0,-1.6289 -0.55078,-3.05859 -1.89843,-3.96093 z m 0,0"
           style="fill:#231f20;fill-opacity:1;fill-rule:nonzero;stroke:none" />
      </g>
      <path
         id="path23"
         d="m 823.902,424.738 h 1169.5 v 1169.5 h -1169.5 z"
         style="fill:#cac9c9;fill-opacity:1;fill-rule:nonzero;stroke:none"
         transform="matrix(0.13333333,0,0,-0.13333333,0,222.8)" />
      <path
         id="path24"
         d="M 1995.9,1596.74 H 821.402 V 422.238 H 1995.9 V 1596.74 m -5,-5 V 427.238 H 826.402 V 1591.74 H 1990.9"
         style="fill:#231f20;fill-opacity:1;fill-rule:nonzero;stroke:none"
         transform="matrix(0.13333333,0,0,-0.13333333,0,222.8)" />
      <path
         id="path25"
         d="m 502.543,100.891 320.625,320.629 -3.535,3.531 -320.625,-320.629 3.535,-3.531"
         style="fill:#231f20;fill-opacity:1;fill-rule:nonzero;stroke:none"
         transform="matrix(0.13333333,0,0,-0.13333333,0,222.8)" />
      <path
         id="path26"
         d="m 500.668,1273.09 320.633,320.63 -3.539,3.54 -320.629,-320.63"
         style="fill:#231f20;fill-opacity:1;fill-rule:nonzero;stroke:none"
         transform="matrix(0.13333333,0,0,-0.13333333,0,222.8)" />
      <path
         id="path27"
         d="m 1669.14,1271.22 323.43,323.44 -3.53,3.53 -323.44,-323.43 3.54,-3.54"
         style="fill:#231f20;fill-opacity:1;fill-rule:nonzero;stroke:none"
         transform="matrix(0.13333333,0,0,-0.13333333,0,222.8)" />
      <path
         id="path28"
         d="m 1672.88,99.0195 328.1,328.1015 -3.53,3.539 -328.11,-328.109 3.54,-3.5315"
         style="fill:#231f20;fill-opacity:1;fill-rule:nonzero;stroke:none"
         transform="matrix(0.13333333,0,0,-0.13333333,0,222.8)" />
      <path
         id="path29"
         d="m 805.727,427.961 c 0,10.199 8.273,18.469 18.476,18.469 10.207,0 18.477,-8.27 18.477,-18.469 0,-10.211 -8.27,-18.481 -18.477,-18.481 -10.203,0 -18.476,8.27 -18.476,18.481"
         style="fill:#231f20;fill-opacity:1;fill-rule:nonzero;stroke:none"
         transform="matrix(0.13333333,0,0,-0.13333333,0,222.8)" />
      <path
         id="path30"
         d="m 2012,428.559 c 0,-10.2 -8.27,-18.469 -18.48,-18.469 -10.19,0 -18.48,8.269 -18.48,18.469 0,10.211 8.29,18.48 18.48,18.48 10.21,0 18.48,-8.269 18.48,-18.48"
         style="fill:#231f20;fill-opacity:1;fill-rule:nonzero;stroke:none"
         transform="matrix(0.13333333,0,0,-0.13333333,0,222.8)" />
      <path
         id="path31"
         d="m 802.984,1594.83 c 0,10.2 8.27,18.47 18.477,18.47 10.199,0 18.473,-8.27 18.473,-18.47 0,-10.21 -8.274,-18.48 -18.473,-18.48 -10.207,0 -18.477,8.27 -18.477,18.48"
         style="fill:#231f20;fill-opacity:1;fill-rule:nonzero;stroke:none"
         transform="matrix(0.13333333,0,0,-0.13333333,0,222.8)" />
      <path
         id="path32"
         d="m 1971.06,1593.68 c 0,10.2 8.27,18.47 18.48,18.47 10.2,0 18.47,-8.27 18.47,-18.47 0,-10.2 -8.27,-18.48 -18.47,-18.48 -10.21,0 -18.48,8.28 -18.48,18.48"
         style="fill:#231f20;fill-opacity:1;fill-rule:nonzero;stroke:none"
         transform="matrix(0.13333333,0,0,-0.13333333,0,222.8)" />
      <path
         id="path33"
         d="M 1666.9,103.25 H 504.902 l 309.219,309.219 c 2.902,-1.891 6.363,-2.989 10.082,-2.989 8.211,0 15.168,5.352 17.574,12.758 H 1666.9 V 103.25 m -1164.498,4.57 v 1159.92 h 319 V 446.219 c -8.875,-1.348 -15.675,-9.008 -15.675,-18.258 0,-4.68 1.738,-8.949 4.605,-12.211 L 502.402,107.82"
         style="fill:#f1f1f1;fill-opacity:1;fill-rule:nonzero;stroke:none"
         transform="matrix(0.13333333,0,0,-0.13333333,0,222.8)" />
      <path
         id="path34"
         d="M 1666.9,427.238 H 842.668 c 0.008,0.242 0.012,0.481 0.012,0.723 0,9.449 -7.11,17.258 -16.278,18.348 V 1267.74 H 1666.9 V 427.238"
         style="fill:#e7e6e7;fill-opacity:1;fill-rule:nonzero;stroke:none"
         transform="matrix(0.13333333,0,0,-0.13333333,0,222.8)" />
      <path
         id="path35"
         d="M 1666.9,422.238 H 841.777 c 0.516,1.582 0.825,3.262 0.891,5 H 1666.9 v -5 m -845.498,23.981 v 821.521 h 5 V 446.309 c -0.722,0.082 -1.453,0.121 -2.199,0.121 -0.953,0 -1.887,-0.071 -2.801,-0.211"
         style="fill:#c5c4c4;fill-opacity:1;fill-rule:nonzero;stroke:none"
         transform="matrix(0.13333333,0,0,-0.13333333,0,222.8)" />
      <path
         id="path36"
         d="m 504.902,103.25 h -2.5 v 4.57 l 307.93,307.93 c 1.106,-1.262 2.383,-2.359 3.789,-3.281 L 504.902,103.25"
         style="fill:#c5c4c4;fill-opacity:1;fill-rule:nonzero;stroke:none"
         transform="matrix(0.13333333,0,0,-0.13333333,0,222.8)" />
      <path
         id="path37"
         d="m 824.203,409.48 c -3.719,0 -7.18,1.098 -10.082,2.989 -1.406,0.922 -2.683,2.019 -3.789,3.281 -2.867,3.262 -4.605,7.531 -4.605,12.211 0,9.25 6.8,16.91 15.675,18.258 0.914,0.14 1.848,0.211 2.801,0.211 0.746,0 1.477,-0.039 2.199,-0.121 9.168,-1.09 16.278,-8.899 16.278,-18.348 0,-0.242 -0.004,-0.481 -0.012,-0.723 -0.066,-1.738 -0.375,-3.418 -0.891,-5 -2.406,-7.406 -9.363,-12.758 -17.574,-12.758"
         style="fill:#c5c4c4;fill-opacity:1;fill-rule:nonzero;stroke:none"
         transform="matrix(0.13333333,0,0,-0.13333333,0,222.8)" />
      <path
         id="path38"
         d="M 1671.9,98.25 H 497.402 v 1174.49 h 324 v -5 h -319 V 107.82 l -3.394,-3.398 3.535,-3.531 2.359,2.359 H 1666.9 v 318.988 h 5 V 105.109 l -2.56,-2.558 2.56,-2.5627 V 98.25"
         style="fill:#4f4c4c;fill-opacity:1;fill-rule:nonzero;stroke:none"
         transform="matrix(0.13333333,0,0,-0.13333333,0,222.8)" />
      <path
         id="path39"
         d="m 1671.9,427.238 h -5 V 1267.74 H 826.402 v 5 h 841.218 l 1.52,-1.52 1.52,1.52 h 1.24 V 427.238"
         style="fill:#454142;fill-opacity:1;fill-rule:nonzero;stroke:none"
         transform="matrix(0.13333333,0,0,-0.13333333,0,222.8)" />
      <path
         id="path40"
         d="m 1671.9,422.238 h -5 v 5 h 5 v -5 M 826.402,1267.74 h -5 v 5 h 5 v -5"
         style="fill:#231f20;fill-opacity:1;fill-rule:nonzero;stroke:none"
         transform="matrix(0.13333333,0,0,-0.13333333,0,222.8)" />
      <path
         id="path41"
         d="m 502.543,100.891 -3.535,3.531 3.394,3.398 v -4.57 h 2.5 l -2.359,-2.359"
         style="fill:#231f20;fill-opacity:1;fill-rule:nonzero;stroke:none"
         transform="matrix(0.13333333,0,0,-0.13333333,0,222.8)" />
      <path
         id="path42"
         d="m 1669.14,1271.22 -1.52,1.52 h 3.04 l -1.52,-1.52"
         style="fill:#231f20;fill-opacity:1;fill-rule:nonzero;stroke:none"
         transform="matrix(0.13333333,0,0,-0.13333333,0,222.8)" />
      <path
         id="path43"
         d="m 1671.9,99.9883 -2.56,2.5627 2.56,2.558 v -5.1207"
         style="fill:#231f20;fill-opacity:1;fill-rule:nonzero;stroke:none"
         transform="matrix(0.13333333,0,0,-0.13333333,0,222.8)" />
      <path
         id="path44"
         d="m 481.191,1268.49 c 0,10.21 8.266,18.47 18.473,18.47 10.203,0 18.473,-8.26 18.473,-18.47 0,-10.2 -8.27,-18.47 -18.473,-18.47 -10.207,0 -18.473,8.27 -18.473,18.47"
         style="fill:#ffffff;fill-opacity:1;fill-rule:nonzero;stroke:none"
         transform="matrix(0.13333333,0,0,-0.13333333,0,222.8)" />
      <path
         id="path45"
         d="m 481.191,1268.49 h 2.5 c 0.016,8.82 7.149,15.96 15.973,15.97 8.824,-0.01 15.953,-7.15 15.973,-15.97 -0.02,-8.82 -7.149,-15.95 -15.973,-15.97 -8.824,0.02 -15.957,7.15 -15.973,15.97 h -2.5 -2.5 c 0,-11.59 9.387,-20.97 20.973,-20.97 11.586,0 20.969,9.38 20.973,20.97 -0.004,11.58 -9.387,20.97 -20.973,20.97 -11.586,0 -20.973,-9.39 -20.973,-20.97 h 2.5"
         style="fill:#231f20;fill-opacity:1;fill-rule:nonzero;stroke:none"
         transform="matrix(0.13333333,0,0,-0.13333333,0,222.8)" />
      <path
         id="path46"
         d="m 1649.13,1268.87 c 0,10.2 8.27,18.47 18.47,18.47 10.21,0 18.48,-8.27 18.48,-18.47 0,-10.2 -8.27,-18.47 -18.48,-18.47 -10.2,0 -18.47,8.27 -18.47,18.47"
         style="fill:#ffffff;fill-opacity:1;fill-rule:nonzero;stroke:none"
         transform="matrix(0.13333333,0,0,-0.13333333,0,222.8)" />
      <path
         id="path47"
         d="m 1649.13,1268.87 h 2.5 c 0.01,8.83 7.15,15.96 15.97,15.97 8.83,-0.01 15.96,-7.14 15.98,-15.97 -0.02,-8.82 -7.15,-15.96 -15.98,-15.97 -8.82,0.01 -15.96,7.15 -15.97,15.97 h -2.5 -2.5 c 0,-11.58 9.39,-20.97 20.97,-20.97 11.59,0 20.98,9.39 20.98,20.97 0,11.59 -9.39,20.97 -20.98,20.97 -11.58,0 -20.97,-9.38 -20.97,-20.97 h 2.5"
         style="fill:#231f20;fill-opacity:1;fill-rule:nonzero;stroke:none"
         transform="matrix(0.13333333,0,0,-0.13333333,0,222.8)" />
      <path
         id="path48"
         d="m 1651.9,106.551 c 0,10.199 8.28,18.469 18.48,18.469 10.2,0 18.47,-8.27 18.47,-18.469 0,-10.2112 -8.27,-18.4807 -18.47,-18.4807 -10.2,0 -18.48,8.2695 -18.48,18.4807"
         style="fill:#ffffff;fill-opacity:1;fill-rule:nonzero;stroke:none"
         transform="matrix(0.13333333,0,0,-0.13333333,0,222.8)" />
      <path
         id="path49"
         d="m 1651.9,106.551 h 2.5 c 0.02,8.82 7.16,15.949 15.98,15.969 8.82,-0.02 15.96,-7.149 15.97,-15.969 -0.01,-8.8322 -7.15,-15.9612 -15.97,-15.9807 -8.82,0.0195 -15.96,7.1602 -15.98,15.9807 h -2.5 -2.5 c 0,-11.5901 9.4,-20.9729 20.98,-20.9729 11.58,0 20.97,9.3828 20.97,20.9729 0,11.578 -9.39,20.969 -20.97,20.969 -11.58,0 -20.98,-9.379 -20.98,-20.969 h 2.5"
         style="fill:#231f20;fill-opacity:1;fill-rule:nonzero;stroke:none"
         transform="matrix(0.13333333,0,0,-0.13333333,0,222.8)" />
      <path
         id="path50"
         d="m 481.379,103.469 c 0,10.211 8.269,18.472 18.469,18.472 10.207,0 18.472,-8.261 18.472,-18.472 C 518.32,93.2695 510.055,85 499.848,85 c -10.2,0 -18.469,8.2695 -18.469,18.469"
         style="fill:#ffffff;fill-opacity:1;fill-rule:nonzero;stroke:none"
         transform="matrix(0.13333333,0,0,-0.13333333,0,222.8)" />
      <path
         id="path51"
         d="m 481.379,103.469 h 2.5 c 0.016,8.82 7.152,15.961 15.969,15.972 8.824,-0.011 15.957,-7.152 15.972,-15.972 -0.015,-8.8206 -7.148,-15.9573 -15.972,-15.969 -8.817,0.0117 -15.953,7.1484 -15.969,15.969 h -2.5 -2.5 c 0,-11.5901 9.387,-20.969 20.969,-20.969 11.586,0 20.972,9.3789 20.972,20.969 0,11.59 -9.386,20.972 -20.972,20.972 -11.582,0 -20.969,-9.382 -20.969,-20.972 h 2.5"
         style="fill:#231f20;fill-opacity:1;fill-rule:nonzero;stroke:none"
         transform="matrix(0.13333333,0,0,-0.13333333,0,222.8)" />
    </g>
  </g>
</svg>
