<?xml version="1.0" encoding="UTF-8" standalone="no"?>
<!-- Created with Inkscape (http://www.inkscape.org/) -->

<svg
   version="1.1"
   id="svg1"
   width="160.30667"
   height="129.53333"
   viewBox="0 0 160.30667 129.53333"
   sodipodi:docname="pha10f18.eps"
   xmlns:inkscape="http://www.inkscape.org/namespaces/inkscape"
   xmlns:sodipodi="http://sodipodi.sourceforge.net/DTD/sodipodi-0.dtd"
   xmlns="http://www.w3.org/2000/svg"
   xmlns:svg="http://www.w3.org/2000/svg">
  <defs
     id="defs1" />
  <sodipodi:namedview
     id="namedview1"
     pagecolor="#ffffff"
     bordercolor="#000000"
     borderopacity="0.25"
     inkscape:showpageshadow="2"
     inkscape:pageopacity="0.0"
     inkscape:pagecheckerboard="0"
     inkscape:deskcolor="#d1d1d1">
    <inkscape:page
       x="0"
       y="0"
       inkscape:label="1"
       id="page1"
       width="160.30667"
       height="129.53333"
       margin="0"
       bleed="0" />
  </sodipodi:namedview>
  <g
     id="g1"
     inkscape:groupmode="layer"
     inkscape:label="1">
    <g
       id="group-R5">
      <path
         id="path2"
         d="m 63.9336,938.27 c 0,-16.961 -13.75,-30.723 -30.7109,-30.723 C 16.25,907.547 2.5,921.309 2.5,938.27 c 0,16.972 13.75,30.722 30.7227,30.722 16.9609,0 30.7109,-13.75 30.7109,-30.722 z"
         style="fill:none;stroke:#8b8889;stroke-width:5;stroke-linecap:butt;stroke-linejoin:miter;stroke-miterlimit:10;stroke-dasharray:none;stroke-opacity:1"
         transform="matrix(0.13333333,0,0,-0.13333333,0,129.53333)" />
      <path
         id="path3"
         d="m 972.629,938.27 c 0,-16.961 -13.75,-30.723 -30.727,-30.723 -16.961,0 -30.718,13.762 -30.718,30.723 0,16.972 13.757,30.722 30.718,30.722 16.977,0 30.727,-13.75 30.727,-30.722 z"
         style="fill:none;stroke:#8b8889;stroke-width:5;stroke-linecap:butt;stroke-linejoin:miter;stroke-miterlimit:10;stroke-dasharray:none;stroke-opacity:1"
         transform="matrix(0.13333333,0,0,-0.13333333,0,129.53333)" />
      <path
         id="path4"
         d="m 745.461,938.27 c 0,-16.961 -13.762,-30.723 -30.727,-30.723 -16.968,0 -30.718,13.762 -30.718,30.723 0,16.972 13.75,30.722 30.718,30.722 16.965,0 30.727,-13.75 30.727,-30.722 z"
         style="fill:none;stroke:#8b8889;stroke-width:5;stroke-linecap:butt;stroke-linejoin:miter;stroke-miterlimit:10;stroke-dasharray:none;stroke-opacity:1"
         transform="matrix(0.13333333,0,0,-0.13333333,0,129.53333)" />
      <path
         id="path5"
         d="m 518.281,938.27 c 0,-16.961 -13.75,-30.723 -30.722,-30.723 -16.961,0 -30.711,13.762 -30.711,30.723 0,16.972 13.75,30.722 30.711,30.722 16.972,0 30.722,-13.75 30.722,-30.722 z"
         style="fill:none;stroke:#8b8889;stroke-width:5;stroke-linecap:butt;stroke-linejoin:miter;stroke-miterlimit:10;stroke-dasharray:none;stroke-opacity:1"
         transform="matrix(0.13333333,0,0,-0.13333333,0,129.53333)" />
      <path
         id="path6"
         d="m 291.113,938.27 c 0,-16.961 -13.758,-30.723 -30.722,-30.723 -16.961,0 -30.723,13.762 -30.723,30.723 0,16.972 13.762,30.722 30.723,30.722 16.964,0 30.722,-13.75 30.722,-30.722 z"
         style="fill:none;stroke:#8b8889;stroke-width:5;stroke-linecap:butt;stroke-linejoin:miter;stroke-miterlimit:10;stroke-dasharray:none;stroke-opacity:1"
         transform="matrix(0.13333333,0,0,-0.13333333,0,129.53333)" />
      <path
         id="path7"
         d="m 1199.79,938.27 c 0,-16.961 -13.75,-30.723 -30.71,-30.723 -16.97,0 -30.72,13.762 -30.72,30.723 0,16.972 13.75,30.722 30.72,30.722 16.96,0 30.71,-13.75 30.71,-30.722 z"
         style="fill:none;stroke:#8b8889;stroke-width:5;stroke-linecap:butt;stroke-linejoin:miter;stroke-miterlimit:10;stroke-dasharray:none;stroke-opacity:1"
         transform="matrix(0.13333333,0,0,-0.13333333,0,129.53333)" />
      <path
         id="path8"
         d="m 63.9336,712.012 c 0,-16.961 -13.75,-30.723 -30.7109,-30.723 C 16.25,681.289 2.5,695.051 2.5,712.012 c 0,16.961 13.75,30.722 30.7227,30.722 16.9609,0 30.7109,-13.761 30.7109,-30.722 z"
         style="fill:none;stroke:#8b8889;stroke-width:5;stroke-linecap:butt;stroke-linejoin:miter;stroke-miterlimit:10;stroke-dasharray:none;stroke-opacity:1"
         transform="matrix(0.13333333,0,0,-0.13333333,0,129.53333)" />
      <path
         id="path9"
         d="m 972.629,712.012 c 0,-16.961 -13.75,-30.723 -30.727,-30.723 -16.961,0 -30.718,13.762 -30.718,30.723 0,16.961 13.757,30.722 30.718,30.722 16.977,0 30.727,-13.761 30.727,-30.722 z"
         style="fill:none;stroke:#8b8889;stroke-width:5;stroke-linecap:butt;stroke-linejoin:miter;stroke-miterlimit:10;stroke-dasharray:none;stroke-opacity:1"
         transform="matrix(0.13333333,0,0,-0.13333333,0,129.53333)" />
      <path
         id="path10"
         d="m 745.461,712.012 c 0,-16.961 -13.762,-30.723 -30.727,-30.723 -16.968,0 -30.718,13.762 -30.718,30.723 0,16.961 13.75,30.722 30.718,30.722 16.965,0 30.727,-13.761 30.727,-30.722 z"
         style="fill:none;stroke:#8b8889;stroke-width:5;stroke-linecap:butt;stroke-linejoin:miter;stroke-miterlimit:10;stroke-dasharray:none;stroke-opacity:1"
         transform="matrix(0.13333333,0,0,-0.13333333,0,129.53333)" />
      <path
         id="path11"
         d="m 518.281,712.012 c 0,-16.961 -13.75,-30.723 -30.722,-30.723 -16.961,0 -30.711,13.762 -30.711,30.723 0,16.961 13.75,30.722 30.711,30.722 16.972,0 30.722,-13.761 30.722,-30.722 z"
         style="fill:none;stroke:#8b8889;stroke-width:5;stroke-linecap:butt;stroke-linejoin:miter;stroke-miterlimit:10;stroke-dasharray:none;stroke-opacity:1"
         transform="matrix(0.13333333,0,0,-0.13333333,0,129.53333)" />
      <path
         id="path12"
         d="m 291.113,712.012 c 0,-16.961 -13.758,-30.723 -30.722,-30.723 -16.961,0 -30.723,13.762 -30.723,30.723 0,16.961 13.762,30.722 30.723,30.722 16.964,0 30.722,-13.761 30.722,-30.722 z"
         style="fill:none;stroke:#8b8889;stroke-width:5;stroke-linecap:butt;stroke-linejoin:miter;stroke-miterlimit:10;stroke-dasharray:none;stroke-opacity:1"
         transform="matrix(0.13333333,0,0,-0.13333333,0,129.53333)" />
      <path
         id="path13"
         d="m 1199.79,712.012 c 0,-16.961 -13.75,-30.723 -30.71,-30.723 -16.97,0 -30.72,13.762 -30.72,30.723 0,16.961 13.75,30.722 30.72,30.722 16.96,0 30.71,-13.761 30.71,-30.722 z"
         style="fill:none;stroke:#8b8889;stroke-width:5;stroke-linecap:butt;stroke-linejoin:miter;stroke-miterlimit:10;stroke-dasharray:none;stroke-opacity:1"
         transform="matrix(0.13333333,0,0,-0.13333333,0,129.53333)" />
      <path
         id="path14"
         d="m 63.9336,485.754 c 0,-16.977 -13.75,-30.727 -30.7109,-30.727 -16.9727,0 -30.7227,13.75 -30.7227,30.727 0,16.961 13.75,30.711 30.7227,30.711 16.9609,0 30.7109,-13.75 30.7109,-30.711 z"
         style="fill:none;stroke:#8b8889;stroke-width:5;stroke-linecap:butt;stroke-linejoin:miter;stroke-miterlimit:10;stroke-dasharray:none;stroke-opacity:1"
         transform="matrix(0.13333333,0,0,-0.13333333,0,129.53333)" />
      <path
         id="path15"
         d="m 972.629,485.754 c 0,-16.977 -13.75,-30.727 -30.727,-30.727 -16.961,0 -30.718,13.75 -30.718,30.727 0,16.961 13.757,30.711 30.718,30.711 16.977,0 30.727,-13.75 30.727,-30.711 z"
         style="fill:none;stroke:#8b8889;stroke-width:5;stroke-linecap:butt;stroke-linejoin:miter;stroke-miterlimit:10;stroke-dasharray:none;stroke-opacity:1"
         transform="matrix(0.13333333,0,0,-0.13333333,0,129.53333)" />
      <path
         id="path16"
         d="m 745.461,485.754 c 0,-16.977 -13.762,-30.727 -30.727,-30.727 -16.968,0 -30.718,13.75 -30.718,30.727 0,16.961 13.75,30.711 30.718,30.711 16.965,0 30.727,-13.75 30.727,-30.711 z"
         style="fill:none;stroke:#8b8889;stroke-width:5;stroke-linecap:butt;stroke-linejoin:miter;stroke-miterlimit:10;stroke-dasharray:none;stroke-opacity:1"
         transform="matrix(0.13333333,0,0,-0.13333333,0,129.53333)" />
      <path
         id="path17"
         d="m 518.281,485.754 c 0,-16.977 -13.75,-30.727 -30.722,-30.727 -16.961,0 -30.711,13.75 -30.711,30.727 0,16.961 13.75,30.711 30.711,30.711 16.972,0 30.722,-13.75 30.722,-30.711 z"
         style="fill:none;stroke:#8b8889;stroke-width:5;stroke-linecap:butt;stroke-linejoin:miter;stroke-miterlimit:10;stroke-dasharray:none;stroke-opacity:1"
         transform="matrix(0.13333333,0,0,-0.13333333,0,129.53333)" />
      <path
         id="path18"
         d="m 291.113,485.754 c 0,-16.977 -13.758,-30.727 -30.722,-30.727 -16.961,0 -30.723,13.75 -30.723,30.727 0,16.961 13.762,30.711 30.723,30.711 16.964,0 30.722,-13.75 30.722,-30.711 z"
         style="fill:none;stroke:#8b8889;stroke-width:5;stroke-linecap:butt;stroke-linejoin:miter;stroke-miterlimit:10;stroke-dasharray:none;stroke-opacity:1"
         transform="matrix(0.13333333,0,0,-0.13333333,0,129.53333)" />
      <path
         id="path19"
         d="m 1199.79,485.754 c 0,-16.977 -13.75,-30.727 -30.71,-30.727 -16.97,0 -30.72,13.75 -30.72,30.727 0,16.961 13.75,30.711 30.72,30.711 16.96,0 30.71,-13.75 30.71,-30.711 z"
         style="fill:none;stroke:#8b8889;stroke-width:5;stroke-linecap:butt;stroke-linejoin:miter;stroke-miterlimit:10;stroke-dasharray:none;stroke-opacity:1"
         transform="matrix(0.13333333,0,0,-0.13333333,0,129.53333)" />
      <path
         id="path20"
         d="m 63.9336,259.48 c 0,-16.96 -13.75,-30.71 -30.7109,-30.71 C 16.25,228.77 2.5,242.52 2.5,259.48 c 0,16.973 13.75,30.723 30.7227,30.723 16.9609,0 30.7109,-13.75 30.7109,-30.723 z"
         style="fill:none;stroke:#8b8889;stroke-width:5;stroke-linecap:butt;stroke-linejoin:miter;stroke-miterlimit:10;stroke-dasharray:none;stroke-opacity:1"
         transform="matrix(0.13333333,0,0,-0.13333333,0,129.53333)" />
      <path
         id="path21"
         d="m 972.629,259.48 c 0,-16.96 -13.75,-30.71 -30.727,-30.71 -16.961,0 -30.718,13.75 -30.718,30.71 0,16.973 13.757,30.723 30.718,30.723 16.977,0 30.727,-13.75 30.727,-30.723 z"
         style="fill:none;stroke:#8b8889;stroke-width:5;stroke-linecap:butt;stroke-linejoin:miter;stroke-miterlimit:10;stroke-dasharray:none;stroke-opacity:1"
         transform="matrix(0.13333333,0,0,-0.13333333,0,129.53333)" />
      <path
         id="path22"
         d="m 745.461,259.48 c 0,-16.96 -13.762,-30.71 -30.727,-30.71 -16.968,0 -30.718,13.75 -30.718,30.71 0,16.973 13.75,30.723 30.718,30.723 16.965,0 30.727,-13.75 30.727,-30.723 z"
         style="fill:none;stroke:#8b8889;stroke-width:5;stroke-linecap:butt;stroke-linejoin:miter;stroke-miterlimit:10;stroke-dasharray:none;stroke-opacity:1"
         transform="matrix(0.13333333,0,0,-0.13333333,0,129.53333)" />
      <path
         id="path23"
         d="m 518.281,259.48 c 0,-16.96 -13.75,-30.71 -30.722,-30.71 -16.961,0 -30.711,13.75 -30.711,30.71 0,16.973 13.75,30.723 30.711,30.723 16.972,0 30.722,-13.75 30.722,-30.723 z"
         style="fill:none;stroke:#8b8889;stroke-width:5;stroke-linecap:butt;stroke-linejoin:miter;stroke-miterlimit:10;stroke-dasharray:none;stroke-opacity:1"
         transform="matrix(0.13333333,0,0,-0.13333333,0,129.53333)" />
      <path
         id="path24"
         d="m 291.113,259.48 c 0,-16.96 -13.758,-30.71 -30.722,-30.71 -16.961,0 -30.723,13.75 -30.723,30.71 0,16.973 13.762,30.723 30.723,30.723 16.964,0 30.722,-13.75 30.722,-30.723 z"
         style="fill:none;stroke:#8b8889;stroke-width:5;stroke-linecap:butt;stroke-linejoin:miter;stroke-miterlimit:10;stroke-dasharray:none;stroke-opacity:1"
         transform="matrix(0.13333333,0,0,-0.13333333,0,129.53333)" />
      <path
         id="path25"
         d="m 1199.79,259.48 c 0,-16.96 -13.75,-30.71 -30.71,-30.71 -16.97,0 -30.72,13.75 -30.72,30.71 0,16.973 13.75,30.723 30.72,30.723 16.96,0 30.71,-13.75 30.71,-30.723 z"
         style="fill:none;stroke:#8b8889;stroke-width:5;stroke-linecap:butt;stroke-linejoin:miter;stroke-miterlimit:10;stroke-dasharray:none;stroke-opacity:1"
         transform="matrix(0.13333333,0,0,-0.13333333,0,129.53333)" />
      <path
         id="path26"
         d="M 63.9336,33.2227 C 63.9336,16.2617 50.1836,2.5 33.2227,2.5 16.25,2.5 2.5,16.2617 2.5,33.2227 c 0,16.9609 13.75,30.7226 30.7227,30.7226 16.9609,0 30.7109,-13.7617 30.7109,-30.7226 z"
         style="fill:none;stroke:#8b8889;stroke-width:5;stroke-linecap:butt;stroke-linejoin:miter;stroke-miterlimit:10;stroke-dasharray:none;stroke-opacity:1"
         transform="matrix(0.13333333,0,0,-0.13333333,0,129.53333)" />
      <path
         id="path27"
         d="M 972.629,33.2227 C 972.629,16.2617 958.879,2.5 941.902,2.5 c -16.961,0 -30.718,13.7617 -30.718,30.7227 0,16.9609 13.757,30.7226 30.718,30.7226 16.977,0 30.727,-13.7617 30.727,-30.7226 z"
         style="fill:none;stroke:#8b8889;stroke-width:5;stroke-linecap:butt;stroke-linejoin:miter;stroke-miterlimit:10;stroke-dasharray:none;stroke-opacity:1"
         transform="matrix(0.13333333,0,0,-0.13333333,0,129.53333)" />
      <path
         id="path28"
         d="M 745.461,33.2227 C 745.461,16.2617 731.699,2.5 714.734,2.5 c -16.968,0 -30.718,13.7617 -30.718,30.7227 0,16.9609 13.75,30.7226 30.718,30.7226 16.965,0 30.727,-13.7617 30.727,-30.7226 z"
         style="fill:none;stroke:#8b8889;stroke-width:5;stroke-linecap:butt;stroke-linejoin:miter;stroke-miterlimit:10;stroke-dasharray:none;stroke-opacity:1"
         transform="matrix(0.13333333,0,0,-0.13333333,0,129.53333)" />
      <path
         id="path29"
         d="M 518.281,33.2227 C 518.281,16.2617 504.531,2.5 487.559,2.5 c -16.961,0 -30.711,13.7617 -30.711,30.7227 0,16.9609 13.75,30.7226 30.711,30.7226 16.972,0 30.722,-13.7617 30.722,-30.7226 z"
         style="fill:none;stroke:#8b8889;stroke-width:5;stroke-linecap:butt;stroke-linejoin:miter;stroke-miterlimit:10;stroke-dasharray:none;stroke-opacity:1"
         transform="matrix(0.13333333,0,0,-0.13333333,0,129.53333)" />
      <path
         id="path30"
         d="M 291.113,33.2227 C 291.113,16.2617 277.355,2.5 260.391,2.5 c -16.961,0 -30.723,13.7617 -30.723,30.7227 0,16.9609 13.762,30.7226 30.723,30.7226 16.964,0 30.722,-13.7617 30.722,-30.7226 z"
         style="fill:none;stroke:#8b8889;stroke-width:5;stroke-linecap:butt;stroke-linejoin:miter;stroke-miterlimit:10;stroke-dasharray:none;stroke-opacity:1"
         transform="matrix(0.13333333,0,0,-0.13333333,0,129.53333)" />
      <path
         id="path31"
         d="m 1199.79,33.2227 c 0,-16.961 -13.75,-30.7227 -30.71,-30.7227 -16.97,0 -30.72,13.7617 -30.72,30.7227 0,16.9609 13.75,30.7226 30.72,30.7226 16.96,0 30.71,-13.7617 30.71,-30.7226 z"
         style="fill:none;stroke:#8b8889;stroke-width:5;stroke-linecap:butt;stroke-linejoin:miter;stroke-miterlimit:10;stroke-dasharray:none;stroke-opacity:1"
         transform="matrix(0.13333333,0,0,-0.13333333,0,129.53333)" />
      <path
         id="path32"
         d="m 499.824,188.055 c -4.863,11.797 0.762,25.304 12.559,30.168 11.797,4.863 25.305,-0.762 30.156,-12.559 4.863,-11.797 -0.762,-25.305 -12.559,-30.168 -11.789,-4.859 -25.292,0.766 -30.156,12.559"
         style="fill:#231f20;fill-opacity:1;fill-rule:nonzero;stroke:none"
         transform="matrix(0.13333333,0,0,-0.13333333,0,129.53333)" />
      <path
         id="path33"
         d="m 830.664,674.949 c -4.863,11.801 0.762,25.305 12.559,30.168 11.797,4.856 25.293,-0.762 30.156,-12.558 4.863,-11.797 -0.762,-25.301 -12.559,-30.168 -11.797,-4.864 -25.293,0.761 -30.156,12.558"
         style="fill:#231f20;fill-opacity:1;fill-rule:nonzero;stroke:none"
         transform="matrix(0.13333333,0,0,-0.13333333,0,129.53333)" />
      <path
         id="path34"
         d="m 663.895,432.441 c -4.852,11.797 0.761,25.301 12.558,30.157 11.801,4.863 25.305,-0.75 30.168,-12.559 4.863,-11.785 -0.762,-25.293 -12.558,-30.156 -11.797,-4.863 -25.301,0.762 -30.168,12.558"
         style="fill:#231f20;fill-opacity:1;fill-rule:nonzero;stroke:none"
         transform="matrix(0.13333333,0,0,-0.13333333,0,129.53333)" />
      <path
         id="path35"
         d="m 293.926,677.938 c -4.863,11.796 0.762,25.304 12.558,30.16 11.797,4.863 25.301,-0.754 30.157,-12.563 4.863,-11.785 -0.75,-25.293 -12.547,-30.152 -11.797,-4.867 -25.305,0.758 -30.168,12.555"
         style="fill:#231f20;fill-opacity:1;fill-rule:nonzero;stroke:none"
         transform="matrix(0.13333333,0,0,-0.13333333,0,129.53333)" />
      <path
         id="path36"
         d="M 314.59,687.059 1057.27,193.535"
         style="fill:none;stroke:#231f20;stroke-width:10;stroke-linecap:butt;stroke-linejoin:miter;stroke-miterlimit:10;stroke-dasharray:none;stroke-opacity:1"
         transform="matrix(0.13333333,0,0,-0.13333333,0,129.53333)" />
      <path
         id="path37"
         d="m 1038.38,183.309 c -4.86,11.796 0.76,25.304 12.56,30.16 11.79,4.859 25.29,-0.766 30.15,-12.563 4.87,-11.797 -0.76,-25.293 -12.55,-30.152 -11.8,-4.863 -25.3,0.762 -30.16,12.555"
         style="fill:#231f20;fill-opacity:1;fill-rule:nonzero;stroke:none"
         transform="matrix(0.13333333,0,0,-0.13333333,0,129.53333)" />
      <path
         id="path38"
         d="M 849.531,684.453 517.93,190.676"
         style="fill:none;stroke:#231f20;stroke-width:10;stroke-linecap:butt;stroke-linejoin:miter;stroke-miterlimit:10;stroke-dasharray:none;stroke-opacity:1"
         transform="matrix(0.13333333,0,0,-0.13333333,0,129.53333)" />
      <path
         id="path39"
         d="M 309.734,687.219 C 400.059,824.91 641.063,826.453 848.059,690.684 1055.04,554.91 1149.62,333.223 1059.3,195.535 968.977,57.8438 727.969,56.2891 520.977,192.07 313.992,327.844 219.414,549.531 309.734,687.219 Z"
         style="fill:none;stroke:#231f20;stroke-width:5;stroke-linecap:butt;stroke-linejoin:miter;stroke-miterlimit:10;stroke-dasharray:20.0688, 20.0688;stroke-dashoffset:0;stroke-opacity:1"
         transform="matrix(0.13333333,0,0,-0.13333333,0,129.53333)" />
    </g>
  </g>
</svg>
