<?xml version="1.0" encoding="UTF-8" standalone="no"?>
<!-- Created with Inkscape (http://www.inkscape.org/) -->

<svg
   version="1.1"
   id="svg1"
   width="177.88"
   height="143.42667"
   viewBox="0 0 177.88 143.42667"
   sodipodi:docname="pha10f04.eps"
   xmlns:inkscape="http://www.inkscape.org/namespaces/inkscape"
   xmlns:sodipodi="http://sodipodi.sourceforge.net/DTD/sodipodi-0.dtd"
   xmlns="http://www.w3.org/2000/svg"
   xmlns:svg="http://www.w3.org/2000/svg">
  <defs
     id="defs1" />
  <sodipodi:namedview
     id="namedview1"
     pagecolor="#ffffff"
     bordercolor="#000000"
     borderopacity="0.25"
     inkscape:showpageshadow="2"
     inkscape:pageopacity="0.0"
     inkscape:pagecheckerboard="0"
     inkscape:deskcolor="#d1d1d1">
    <inkscape:page
       x="0"
       y="0"
       inkscape:label="1"
       id="page1"
       width="177.88"
       height="143.42667"
       margin="0"
       bleed="0" />
  </sodipodi:namedview>
  <g
     id="g1"
     inkscape:groupmode="layer"
     inkscape:label="1">
    <g
       id="group-R5">
      <path
         id="path2"
         d="M 686.148,638.191 1069.48,571.52 1329.47,884.852 946.145,951.52 686.148,638.191"
         style="fill:#d3d2d2;fill-opacity:1;fill-rule:evenodd;stroke:#231f20;stroke-width:5;stroke-linecap:butt;stroke-linejoin:miter;stroke-miterlimit:10;stroke-dasharray:none;stroke-opacity:1"
         transform="matrix(0.13333333,0,0,-0.13333333,0,143.42667)" />
      <g
         id="g2"
         aria-label="y&#10;x&#10;z&#10;n"
         transform="matrix(1.3333333,0,0,1.3333333,0.73177067,18.962133)">
        <path
           id="path3"
           d="M 2.1552736,-0.68058437 C 2.0966798,-1.4891781 2.0380861,-2.3094906 1.9443361,-2.9891781 1.8740236,-3.7040219 1.7333986,-4.0438656 1.4873048,-4.0438656 c -0.328125,0 -0.77343749,0.515625 -1.06640624,0.9609375 l 0.15234375,0.2109375 c 0.22265625,-0.3164063 0.45703129,-0.5273438 0.52734379,-0.5273438 0.070312,0 0.1171875,0.1171875 0.1875,0.5625 0.1289062,0.8203125 0.2695312,2.22656253 0.28125,2.92968753 C 1.1240236,0.69050938 0.40917981,1.4873844 -0.55175769,2.1084781 l 0.0703125,0.1992188 0.9375,-0.234375 C 0.95996106,1.5108219 1.5458986,0.71394688 2.0732423,-0.04777187 2.5537111,-0.71574062 3.3154298,-1.9110531 3.7021486,-2.5907406 c 0.234375,-0.3984375 0.328125,-0.703125 0.3164062,-0.9609375 0,-0.2929688 -0.1523437,-0.4921875 -0.3515625,-0.4921875 -0.1523437,0 -0.3164062,0.1054687 -0.375,0.2460937 -0.035156,0.070312 -0.046875,0.1640625 -0.011719,0.2226563 0.035156,0.1054687 0.09375,0.2460937 0.09375,0.421875 0.011719,0.65625 -0.8203125,1.8867187 -1.2070313,2.47265623 z M 41.260742,87.189533 c 0.316407,-0.398438 0.492188,-0.515625 0.574219,-0.515625 0.09375,0 0.175781,0.128906 0.304688,0.574219 l 0.304687,0.9375 c -0.5625,0.832031 -0.984375,1.359375 -1.242187,1.359375 -0.09375,0 -0.164063,-0.03516 -0.210938,-0.09375 -0.04687,-0.05859 -0.09375,-0.09375 -0.140625,-0.09375 -0.175781,0 -0.363281,0.210937 -0.363281,0.421875 -0.01172,0.257812 0.175781,0.433593 0.410156,0.433593 0.421875,0 0.84375,-0.433593 1.640625,-1.699218 l 0.28125,0.878906 c 0.175781,0.5625 0.363281,0.820312 0.597656,0.820312 0.304688,0 0.726563,-0.328125 1.136719,-0.972656 l -0.152344,-0.175781 c -0.28125,0.339844 -0.503906,0.515625 -0.644531,0.515625 -0.152344,0 -0.28125,-0.257813 -0.457031,-0.820313 l -0.292969,-0.902343 c 0.199219,-0.28125 0.398438,-0.527344 0.585938,-0.738282 0.234375,-0.292968 0.410156,-0.445312 0.539062,-0.445312 0.08203,0 0.152344,0.03516 0.210938,0.105469 0.04687,0.04687 0.08203,0.07031 0.128906,0.07031 0.140625,0 0.339844,-0.175781 0.351562,-0.398437 0,-0.199219 -0.140625,-0.386719 -0.375,-0.386719 -0.398437,0 -0.785156,0.386719 -1.535156,1.476562 l -0.152344,-0.492187 c -0.222656,-0.644531 -0.339843,-0.984375 -0.585937,-0.984375 -0.292969,0 -0.691406,0.386719 -1.066406,0.9375 z m 4.03125,-34.910156 c -0.222656,0.246093 -0.398437,0.351562 -0.550781,0.351562 -0.152344,0 -0.304687,-0.01172 -0.726562,-0.09375 -0.433594,-0.07031 -0.703125,-0.105469 -0.949219,-0.105469 -0.222656,0 -0.445313,0.1875 -0.65625,0.527344 -0.140625,0.234375 -0.246094,0.445313 -0.375,0.726563 l 0.234375,0.105468 c 0.257812,-0.457031 0.46875,-0.761718 0.890625,-0.761718 0.222656,0 0.621094,0.02344 0.855469,0.05859 0.199218,0.01172 0.398437,0 0.550781,-0.03516 -0.832031,0.890625 -1.875,1.910156 -2.496094,2.578125 -0.550781,0.574219 -0.480469,0.832031 -0.328125,0.902344 0.04687,0.01172 0.07031,-0.02344 0.105469,-0.08203 0.08203,-0.117188 0.1875,-0.234375 0.292969,-0.304688 0.117187,-0.08203 0.269531,-0.09375 0.550781,0.04687 0.398437,0.199219 0.914062,0.433594 1.207031,0.433594 0.386719,0 0.75,-0.269531 1.242188,-1.242188 L 44.94043,55.220783 c -0.410156,0.609375 -0.679688,0.761719 -0.925781,0.761719 -0.222657,0 -0.515625,-0.117188 -0.808594,-0.210938 -0.269531,-0.117187 -0.503906,-0.164062 -0.679688,-0.152344 0.667969,-0.703125 1.851563,-1.886718 2.425782,-2.542968 0.246093,-0.269532 0.410156,-0.457032 0.527343,-0.597657 z m 0,0"
           style="fill:#231f20;fill-opacity:1;fill-rule:nonzero;stroke:none" />
        <path
           id="path4"
           d="m 84.880859,-6.7040219 v -0.2695312 c -0.503906,-0.058594 -0.550781,-0.09375 -0.550781,-0.6796875 v -1.7109375 c 0,-0.8906249 -0.445312,-1.4062499 -1.160156,-1.4062499 -0.257813,0 -0.457031,0.09375 -0.726563,0.257812 -0.210937,0.140625 -0.386718,0.269532 -0.574218,0.398438 v -0.679688 c -0.480469,0.152344 -1.019532,0.28125 -1.488282,0.351563 v 0.234375 c 0.457032,0.09375 0.503907,0.117187 0.503907,0.6796874 v 1.8632812 c 0,0.5976563 -0.04687,0.6210938 -0.621094,0.6914063 v 0.2695312 h 2.085937 v -0.2695312 c -0.421875,-0.058594 -0.480468,-0.09375 -0.480468,-0.6679688 v -2.1445312 c 0.246093,-0.1992188 0.503906,-0.3515629 0.785156,-0.3515629 0.410156,0 0.691406,0.2695316 0.691406,0.9140629 v 1.5117187 c 0,0.6445313 -0.04687,0.6796875 -0.480469,0.7382813 v 0.2695312 z m 0,0"
           style="fill:#231f20;fill-opacity:1;fill-rule:nonzero;stroke:none" />
      </g>
      <path
         id="path5"
         d="m 1063.03,885.203 c 0,-9.664 -7.84,-17.5 -17.5,-17.5 -9.67,0 -17.5,7.836 -17.5,17.5 0,9.664 7.83,17.5 17.5,17.5 9.66,0 17.5,-7.836 17.5,-17.5"
         style="fill:#231f20;fill-opacity:1;fill-rule:nonzero;stroke:none"
         transform="matrix(0.13333333,0,0,-0.13333333,0,143.42667)" />
      <path
         id="path6"
         d="m 1018.23,753.008 c 0,-9.664 -7.83,-17.5 -17.5,-17.5 -9.66,0 -17.5,7.836 -17.5,17.5 0,9.66 7.84,17.5 17.5,17.5 9.67,0 17.5,-7.84 17.5,-17.5"
         style="fill:#231f20;fill-opacity:1;fill-rule:nonzero;stroke:none"
         transform="matrix(0.13333333,0,0,-0.13333333,0,143.42667)" />
      <path
         id="path7"
         d="m 1094.53,687.359 c 0,-9.66 -7.84,-17.5 -17.5,-17.5 -9.66,0 -17.5,7.84 -17.5,17.5 0,9.664 7.84,17.5 17.5,17.5 9.66,0 17.5,-7.836 17.5,-17.5"
         style="fill:#231f20;fill-opacity:1;fill-rule:nonzero;stroke:none"
         transform="matrix(0.13333333,0,0,-0.13333333,0,143.42667)" />
      <path
         id="path8"
         d="M 80.3906,281.813 414.938,453.285"
         style="fill:none;stroke:#231f20;stroke-width:7.5;stroke-linecap:butt;stroke-linejoin:miter;stroke-miterlimit:10;stroke-dasharray:none;stroke-opacity:1"
         transform="matrix(0.13333333,0,0,-0.13333333,0,143.42667)" />
      <path
         id="path9"
         d="m 405.352,448.371 -21.559,13.242 0.43,0.774 37.757,3.617 c 12.161,3.199 24.325,6.394 36.489,9.59 -9.699,-8.008 -19.399,-16.012 -29.094,-24.02 l -24.98,-28.539 -0.825,-0.004 1.782,25.34"
         style="fill:#231f20;fill-opacity:1;fill-rule:nonzero;stroke:none"
         transform="matrix(0.13333333,0,0,-0.13333333,0,143.42667)" />
      <path
         id="path10"
         d="M 80.3906,962.516 V 281.813 L 467.359,109.043"
         style="fill:none;stroke:#231f20;stroke-width:7.5;stroke-linecap:butt;stroke-linejoin:miter;stroke-miterlimit:10;stroke-dasharray:none;stroke-opacity:1"
         transform="matrix(0.13333333,0,0,-0.13333333,0,143.42667)" />
      <path
         id="path11"
         d="m 80.3906,951.75 21.6174,-13.148 0.492,0.738 -14.0039,35.25 c -2.6992,12.281 -5.3984,24.562 -8.1055,36.84 -2.6992,-12.278 -5.4023,-24.559 -8.1054,-36.84 l -14.0039,-35.25 0.371,-0.738 21.7383,13.148"
         style="fill:#231f20;fill-opacity:1;fill-rule:nonzero;stroke:none"
         transform="matrix(0.13333333,0,0,-0.13333333,0,143.42667)" />
      <path
         id="path12"
         d="m 457.523,113.43 -3.191,25.101 0.871,0.149 26.481,-27.16 c 10.113,-7.469 20.226,-14.9458 30.336,-22.4223 -12.313,2.539 -24.625,5.0859 -36.946,7.6211 l -37.894,1.5859 -0.524,0.6367 20.867,14.4886"
         style="fill:#231f20;fill-opacity:1;fill-rule:nonzero;stroke:none"
         transform="matrix(0.13333333,0,0,-0.13333333,0,143.42667)" />
      <path
         id="path13"
         d="M 1045.53,885.203 80.3906,281.813"
         style="fill:none;stroke:#231f20;stroke-width:5;stroke-linecap:butt;stroke-linejoin:miter;stroke-miterlimit:10;stroke-dasharray:none;stroke-opacity:1"
         transform="matrix(0.13333333,0,0,-0.13333333,0,143.42667)" />
      <path
         id="path14"
         d="M 1077.03,687.359 80.3906,281.813"
         style="fill:none;stroke:#231f20;stroke-width:5;stroke-linecap:butt;stroke-linejoin:miter;stroke-miterlimit:10;stroke-dasharray:none;stroke-opacity:1"
         transform="matrix(0.13333333,0,0,-0.13333333,0,143.42667)" />
      <path
         id="path15"
         d="M 998.484,758.738 885.074,1030.6"
         style="fill:none;stroke:#231f20;stroke-width:7.5;stroke-linecap:butt;stroke-linejoin:miter;stroke-miterlimit:10;stroke-dasharray:none;stroke-opacity:1"
         transform="matrix(0.13333333,0,0,-0.13333333,0,143.42667)" />
      <path
         id="path16"
         d="m 889.219,1020.66 -14.887,-20.46 -0.738,0.49 -0.649,37.93 c -2.238,12.37 -4.472,24.74 -6.707,37.12 7.223,-10.29 14.446,-20.59 21.668,-30.88 l 26.492,-27.14 -0.05,-0.83 -25.129,3.77"
         style="fill:#231f20;fill-opacity:1;fill-rule:nonzero;stroke:none"
         transform="matrix(0.13333333,0,0,-0.13333333,0,143.42667)" />
      <path
         id="path17"
         d="m 1045.53,885.203 -44.8,-132.195"
         style="fill:none;stroke:#231f20;stroke-width:5;stroke-linecap:butt;stroke-linejoin:miter;stroke-miterlimit:10;stroke-dasharray:20, 20;stroke-dashoffset:0;stroke-opacity:1"
         transform="matrix(0.13333333,0,0,-0.13333333,0,143.42667)" />
      <path
         id="path18"
         d="m 1077.03,687.359 -76.3,65.649"
         style="fill:none;stroke:#231f20;stroke-width:5;stroke-linecap:butt;stroke-linejoin:miter;stroke-miterlimit:10;stroke-dasharray:20, 20;stroke-dashoffset:0;stroke-opacity:1"
         transform="matrix(0.13333333,0,0,-0.13333333,0,143.42667)" />
      <path
         id="path19"
         d="M 458.469,475.594 998.75,752.496"
         style="fill:none;stroke:#231f20;stroke-width:5;stroke-linecap:butt;stroke-linejoin:miter;stroke-miterlimit:10;stroke-dasharray:none;stroke-opacity:1"
         transform="matrix(0.13333333,0,0,-0.13333333,0,143.42667)" />
    </g>
  </g>
</svg>
