<?xml version="1.0" encoding="UTF-8" standalone="no"?>
<!-- Created with Inkscape (http://www.inkscape.org/) -->

<svg
   version="1.1"
   id="svg1"
   width="160.30667"
   height="144.61333"
   viewBox="0 0 160.30667 144.61333"
   sodipodi:docname="pha10f15.eps"
   xmlns:inkscape="http://www.inkscape.org/namespaces/inkscape"
   xmlns:sodipodi="http://sodipodi.sourceforge.net/DTD/sodipodi-0.dtd"
   xmlns="http://www.w3.org/2000/svg"
   xmlns:svg="http://www.w3.org/2000/svg">
  <defs
     id="defs1" />
  <sodipodi:namedview
     id="namedview1"
     pagecolor="#ffffff"
     bordercolor="#000000"
     borderopacity="0.25"
     inkscape:showpageshadow="2"
     inkscape:pageopacity="0.0"
     inkscape:pagecheckerboard="0"
     inkscape:deskcolor="#d1d1d1">
    <inkscape:page
       x="0"
       y="0"
       inkscape:label="1"
       id="page1"
       width="160.30667"
       height="144.61333"
       margin="0"
       bleed="0" />
  </sodipodi:namedview>
  <g
     id="g1"
     inkscape:groupmode="layer"
     inkscape:label="1">
    <g
       id="group-R5">
      <path
         id="path2"
         d="m 63.9453,1051.4 c 0,-16.97 -13.75,-30.72 -30.7226,-30.72 -16.9727,0 -30.7227,13.75 -30.7227,30.72 0,16.97 13.75,30.72 30.7227,30.72 16.9726,0 30.7226,-13.75 30.7226,-30.72 z"
         style="fill:none;stroke:#8b8889;stroke-width:5;stroke-linecap:butt;stroke-linejoin:miter;stroke-miterlimit:10;stroke-dasharray:none;stroke-opacity:1"
         transform="matrix(0.13333333,0,0,-0.13333333,0,144.61333)" />
      <path
         id="path3"
         d="m 1086.21,1051.4 c 0,-16.97 -13.75,-30.72 -30.72,-30.72 -16.95,0 -30.71,13.75 -30.71,30.72 0,16.97 13.76,30.72 30.71,30.72 16.97,0 30.72,-13.75 30.72,-30.72 z"
         style="fill:none;stroke:#8b8889;stroke-width:5;stroke-linecap:butt;stroke-linejoin:miter;stroke-miterlimit:10;stroke-dasharray:none;stroke-opacity:1"
         transform="matrix(0.13333333,0,0,-0.13333333,0,144.61333)" />
      <path
         id="path4"
         d="m 972.629,1051.4 c 0,-16.97 -13.75,-30.72 -30.715,-30.72 -16.973,0 -30.723,13.75 -30.723,30.72 0,16.97 13.75,30.72 30.723,30.72 16.965,0 30.715,-13.75 30.715,-30.72 z"
         style="fill:none;stroke:#8b8889;stroke-width:5;stroke-linecap:butt;stroke-linejoin:miter;stroke-miterlimit:10;stroke-dasharray:none;stroke-opacity:1"
         transform="matrix(0.13333333,0,0,-0.13333333,0,144.61333)" />
      <path
         id="path5"
         d="m 859.043,1051.4 c 0,-16.97 -13.75,-30.72 -30.723,-30.72 -16.965,0 -30.722,13.75 -30.722,30.72 0,16.97 13.757,30.72 30.722,30.72 16.973,0 30.723,-13.75 30.723,-30.72 z"
         style="fill:none;stroke:#8b8889;stroke-width:5;stroke-linecap:butt;stroke-linejoin:miter;stroke-miterlimit:10;stroke-dasharray:none;stroke-opacity:1"
         transform="matrix(0.13333333,0,0,-0.13333333,0,144.61333)" />
      <path
         id="path6"
         d="m 745.461,1051.4 c 0,-16.97 -13.762,-30.72 -30.727,-30.72 -16.961,0 -30.711,13.75 -30.711,30.72 0,16.97 13.75,30.72 30.711,30.72 16.965,0 30.727,-13.75 30.727,-30.72 z"
         style="fill:none;stroke:#8b8889;stroke-width:5;stroke-linecap:butt;stroke-linejoin:miter;stroke-miterlimit:10;stroke-dasharray:none;stroke-opacity:1"
         transform="matrix(0.13333333,0,0,-0.13333333,0,144.61333)" />
      <path
         id="path7"
         d="m 631.875,1051.4 c 0,-16.97 -13.762,-30.72 -30.723,-30.72 -16.972,0 -30.722,13.75 -30.722,30.72 0,16.97 13.75,30.72 30.722,30.72 16.961,0 30.723,-13.75 30.723,-30.72 z"
         style="fill:none;stroke:#8b8889;stroke-width:5;stroke-linecap:butt;stroke-linejoin:miter;stroke-miterlimit:10;stroke-dasharray:none;stroke-opacity:1"
         transform="matrix(0.13333333,0,0,-0.13333333,0,144.61333)" />
      <path
         id="path8"
         d="m 518.281,1051.4 c 0,-16.97 -13.75,-30.72 -30.722,-30.72 -16.954,0 -30.711,13.75 -30.711,30.72 0,16.97 13.757,30.72 30.711,30.72 16.972,0 30.722,-13.75 30.722,-30.72 z"
         style="fill:none;stroke:#8b8889;stroke-width:5;stroke-linecap:butt;stroke-linejoin:miter;stroke-miterlimit:10;stroke-dasharray:none;stroke-opacity:1"
         transform="matrix(0.13333333,0,0,-0.13333333,0,144.61333)" />
      <path
         id="path9"
         d="m 404.695,1051.4 c 0,-16.97 -13.75,-30.72 -30.711,-30.72 -16.972,0 -30.722,13.75 -30.722,30.72 0,16.97 13.75,30.72 30.722,30.72 16.961,0 30.711,-13.75 30.711,-30.72 z"
         style="fill:none;stroke:#8b8889;stroke-width:5;stroke-linecap:butt;stroke-linejoin:miter;stroke-miterlimit:10;stroke-dasharray:none;stroke-opacity:1"
         transform="matrix(0.13333333,0,0,-0.13333333,0,144.61333)" />
      <path
         id="path10"
         d="m 291.113,1051.4 c 0,-16.97 -13.75,-30.72 -30.722,-30.72 -16.961,0 -30.723,13.75 -30.723,30.72 0,16.97 13.762,30.72 30.723,30.72 16.972,0 30.722,-13.75 30.722,-30.72 z"
         style="fill:none;stroke:#8b8889;stroke-width:5;stroke-linecap:butt;stroke-linejoin:miter;stroke-miterlimit:10;stroke-dasharray:none;stroke-opacity:1"
         transform="matrix(0.13333333,0,0,-0.13333333,0,144.61333)" />
      <path
         id="path11"
         d="m 177.527,1051.4 c 0,-16.97 -13.757,-30.72 -30.718,-30.72 -16.965,0 -30.715,13.75 -30.715,30.72 0,16.97 13.75,30.72 30.715,30.72 16.961,0 30.718,-13.75 30.718,-30.72 z"
         style="fill:none;stroke:#8b8889;stroke-width:5;stroke-linecap:butt;stroke-linejoin:miter;stroke-miterlimit:10;stroke-dasharray:none;stroke-opacity:1"
         transform="matrix(0.13333333,0,0,-0.13333333,0,144.61333)" />
      <path
         id="path12"
         d="m 1199.8,1051.4 c 0,-16.97 -13.76,-30.72 -30.72,-30.72 -16.97,0 -30.72,13.75 -30.72,30.72 0,16.97 13.75,30.72 30.72,30.72 16.96,0 30.72,-13.75 30.72,-30.72 z"
         style="fill:none;stroke:#8b8889;stroke-width:5;stroke-linecap:butt;stroke-linejoin:miter;stroke-miterlimit:10;stroke-dasharray:none;stroke-opacity:1"
         transform="matrix(0.13333333,0,0,-0.13333333,0,144.61333)" />
      <path
         id="path13"
         d="m 63.9453,938.273 c 0,-16.968 -13.75,-30.722 -30.7226,-30.722 C 16.25,907.551 2.5,921.305 2.5,938.273 c 0,16.961 13.75,30.715 30.7227,30.715 16.9726,0 30.7226,-13.754 30.7226,-30.715 z"
         style="fill:none;stroke:#8b8889;stroke-width:5;stroke-linecap:butt;stroke-linejoin:miter;stroke-miterlimit:10;stroke-dasharray:none;stroke-opacity:1"
         transform="matrix(0.13333333,0,0,-0.13333333,0,144.61333)" />
      <path
         id="path14"
         d="m 1086.21,938.273 c 0,-16.968 -13.75,-30.722 -30.72,-30.722 -16.95,0 -30.71,13.754 -30.71,30.722 0,16.961 13.76,30.715 30.71,30.715 16.97,0 30.72,-13.754 30.72,-30.715 z"
         style="fill:none;stroke:#8b8889;stroke-width:5;stroke-linecap:butt;stroke-linejoin:miter;stroke-miterlimit:10;stroke-dasharray:none;stroke-opacity:1"
         transform="matrix(0.13333333,0,0,-0.13333333,0,144.61333)" />
      <path
         id="path15"
         d="m 972.629,938.273 c 0,-16.968 -13.75,-30.722 -30.715,-30.722 -16.973,0 -30.723,13.754 -30.723,30.722 0,16.961 13.75,30.715 30.723,30.715 16.965,0 30.715,-13.754 30.715,-30.715 z"
         style="fill:none;stroke:#8b8889;stroke-width:5;stroke-linecap:butt;stroke-linejoin:miter;stroke-miterlimit:10;stroke-dasharray:none;stroke-opacity:1"
         transform="matrix(0.13333333,0,0,-0.13333333,0,144.61333)" />
      <path
         id="path16"
         d="m 859.043,938.273 c 0,-16.968 -13.75,-30.722 -30.723,-30.722 -16.965,0 -30.722,13.754 -30.722,30.722 0,16.961 13.757,30.715 30.722,30.715 16.973,0 30.723,-13.754 30.723,-30.715 z"
         style="fill:none;stroke:#8b8889;stroke-width:5;stroke-linecap:butt;stroke-linejoin:miter;stroke-miterlimit:10;stroke-dasharray:none;stroke-opacity:1"
         transform="matrix(0.13333333,0,0,-0.13333333,0,144.61333)" />
      <path
         id="path17"
         d="m 745.461,938.273 c 0,-16.968 -13.762,-30.722 -30.727,-30.722 -16.961,0 -30.711,13.754 -30.711,30.722 0,16.961 13.75,30.715 30.711,30.715 16.965,0 30.727,-13.754 30.727,-30.715 z"
         style="fill:none;stroke:#8b8889;stroke-width:5;stroke-linecap:butt;stroke-linejoin:miter;stroke-miterlimit:10;stroke-dasharray:none;stroke-opacity:1"
         transform="matrix(0.13333333,0,0,-0.13333333,0,144.61333)" />
      <path
         id="path18"
         d="m 631.875,938.273 c 0,-16.968 -13.762,-30.722 -30.723,-30.722 -16.972,0 -30.722,13.754 -30.722,30.722 0,16.961 13.75,30.715 30.722,30.715 16.961,0 30.723,-13.754 30.723,-30.715 z"
         style="fill:none;stroke:#8b8889;stroke-width:5;stroke-linecap:butt;stroke-linejoin:miter;stroke-miterlimit:10;stroke-dasharray:none;stroke-opacity:1"
         transform="matrix(0.13333333,0,0,-0.13333333,0,144.61333)" />
      <path
         id="path19"
         d="m 518.281,938.273 c 0,-16.968 -13.75,-30.722 -30.722,-30.722 -16.954,0 -30.711,13.754 -30.711,30.722 0,16.961 13.757,30.715 30.711,30.715 16.972,0 30.722,-13.754 30.722,-30.715 z"
         style="fill:none;stroke:#8b8889;stroke-width:5;stroke-linecap:butt;stroke-linejoin:miter;stroke-miterlimit:10;stroke-dasharray:none;stroke-opacity:1"
         transform="matrix(0.13333333,0,0,-0.13333333,0,144.61333)" />
      <path
         id="path20"
         d="m 404.695,938.273 c 0,-16.968 -13.75,-30.722 -30.711,-30.722 -16.972,0 -30.722,13.754 -30.722,30.722 0,16.961 13.75,30.715 30.722,30.715 16.961,0 30.711,-13.754 30.711,-30.715 z"
         style="fill:none;stroke:#8b8889;stroke-width:5;stroke-linecap:butt;stroke-linejoin:miter;stroke-miterlimit:10;stroke-dasharray:none;stroke-opacity:1"
         transform="matrix(0.13333333,0,0,-0.13333333,0,144.61333)" />
      <path
         id="path21"
         d="m 291.113,938.273 c 0,-16.968 -13.75,-30.722 -30.722,-30.722 -16.961,0 -30.723,13.754 -30.723,30.722 0,16.961 13.762,30.715 30.723,30.715 16.972,0 30.722,-13.754 30.722,-30.715 z"
         style="fill:none;stroke:#8b8889;stroke-width:5;stroke-linecap:butt;stroke-linejoin:miter;stroke-miterlimit:10;stroke-dasharray:none;stroke-opacity:1"
         transform="matrix(0.13333333,0,0,-0.13333333,0,144.61333)" />
      <path
         id="path22"
         d="m 177.527,938.273 c 0,-16.968 -13.757,-30.722 -30.718,-30.722 -16.965,0 -30.715,13.754 -30.715,30.722 0,16.961 13.75,30.715 30.715,30.715 16.961,0 30.718,-13.754 30.718,-30.715 z"
         style="fill:none;stroke:#8b8889;stroke-width:5;stroke-linecap:butt;stroke-linejoin:miter;stroke-miterlimit:10;stroke-dasharray:none;stroke-opacity:1"
         transform="matrix(0.13333333,0,0,-0.13333333,0,144.61333)" />
      <path
         id="path23"
         d="m 1199.8,938.273 c 0,-16.968 -13.76,-30.722 -30.72,-30.722 -16.97,0 -30.72,13.754 -30.72,30.722 0,16.961 13.75,30.715 30.72,30.715 16.96,0 30.72,-13.754 30.72,-30.715 z"
         style="fill:none;stroke:#8b8889;stroke-width:5;stroke-linecap:butt;stroke-linejoin:miter;stroke-miterlimit:10;stroke-dasharray:none;stroke-opacity:1"
         transform="matrix(0.13333333,0,0,-0.13333333,0,144.61333)" />
      <path
         id="path24"
         d="m 63.9453,825.137 c 0,-16.961 -13.75,-30.715 -30.7226,-30.715 C 16.25,794.422 2.5,808.176 2.5,825.137 c 0,16.968 13.75,30.722 30.7227,30.722 16.9726,0 30.7226,-13.754 30.7226,-30.722 z"
         style="fill:none;stroke:#8b8889;stroke-width:5;stroke-linecap:butt;stroke-linejoin:miter;stroke-miterlimit:10;stroke-dasharray:none;stroke-opacity:1"
         transform="matrix(0.13333333,0,0,-0.13333333,0,144.61333)" />
      <path
         id="path25"
         d="m 1086.21,825.137 c 0,-16.961 -13.75,-30.715 -30.72,-30.715 -16.95,0 -30.71,13.754 -30.71,30.715 0,16.968 13.76,30.722 30.71,30.722 16.97,0 30.72,-13.754 30.72,-30.722 z"
         style="fill:none;stroke:#8b8889;stroke-width:5;stroke-linecap:butt;stroke-linejoin:miter;stroke-miterlimit:10;stroke-dasharray:none;stroke-opacity:1"
         transform="matrix(0.13333333,0,0,-0.13333333,0,144.61333)" />
      <path
         id="path26"
         d="m 972.629,825.137 c 0,-16.961 -13.75,-30.715 -30.715,-30.715 -16.973,0 -30.723,13.754 -30.723,30.715 0,16.968 13.75,30.722 30.723,30.722 16.965,0 30.715,-13.754 30.715,-30.722 z"
         style="fill:none;stroke:#8b8889;stroke-width:5;stroke-linecap:butt;stroke-linejoin:miter;stroke-miterlimit:10;stroke-dasharray:none;stroke-opacity:1"
         transform="matrix(0.13333333,0,0,-0.13333333,0,144.61333)" />
      <path
         id="path27"
         d="m 859.043,825.137 c 0,-16.961 -13.75,-30.715 -30.723,-30.715 -16.965,0 -30.722,13.754 -30.722,30.715 0,16.968 13.757,30.722 30.722,30.722 16.973,0 30.723,-13.754 30.723,-30.722 z"
         style="fill:none;stroke:#8b8889;stroke-width:5;stroke-linecap:butt;stroke-linejoin:miter;stroke-miterlimit:10;stroke-dasharray:none;stroke-opacity:1"
         transform="matrix(0.13333333,0,0,-0.13333333,0,144.61333)" />
      <path
         id="path28"
         d="m 745.461,825.137 c 0,-16.961 -13.762,-30.715 -30.727,-30.715 -16.961,0 -30.711,13.754 -30.711,30.715 0,16.968 13.75,30.722 30.711,30.722 16.965,0 30.727,-13.754 30.727,-30.722 z"
         style="fill:none;stroke:#8b8889;stroke-width:5;stroke-linecap:butt;stroke-linejoin:miter;stroke-miterlimit:10;stroke-dasharray:none;stroke-opacity:1"
         transform="matrix(0.13333333,0,0,-0.13333333,0,144.61333)" />
      <path
         id="path29"
         d="m 631.875,825.137 c 0,-16.961 -13.762,-30.715 -30.723,-30.715 -16.972,0 -30.722,13.754 -30.722,30.715 0,16.968 13.75,30.722 30.722,30.722 16.961,0 30.723,-13.754 30.723,-30.722 z"
         style="fill:none;stroke:#8b8889;stroke-width:5;stroke-linecap:butt;stroke-linejoin:miter;stroke-miterlimit:10;stroke-dasharray:none;stroke-opacity:1"
         transform="matrix(0.13333333,0,0,-0.13333333,0,144.61333)" />
      <path
         id="path30"
         d="m 518.281,825.137 c 0,-16.961 -13.75,-30.715 -30.722,-30.715 -16.954,0 -30.711,13.754 -30.711,30.715 0,16.968 13.757,30.722 30.711,30.722 16.972,0 30.722,-13.754 30.722,-30.722 z"
         style="fill:none;stroke:#8b8889;stroke-width:5;stroke-linecap:butt;stroke-linejoin:miter;stroke-miterlimit:10;stroke-dasharray:none;stroke-opacity:1"
         transform="matrix(0.13333333,0,0,-0.13333333,0,144.61333)" />
      <path
         id="path31"
         d="m 404.695,825.137 c 0,-16.961 -13.75,-30.715 -30.711,-30.715 -16.972,0 -30.722,13.754 -30.722,30.715 0,16.968 13.75,30.722 30.722,30.722 16.961,0 30.711,-13.754 30.711,-30.722 z"
         style="fill:none;stroke:#8b8889;stroke-width:5;stroke-linecap:butt;stroke-linejoin:miter;stroke-miterlimit:10;stroke-dasharray:none;stroke-opacity:1"
         transform="matrix(0.13333333,0,0,-0.13333333,0,144.61333)" />
      <path
         id="path32"
         d="m 291.113,825.137 c 0,-16.961 -13.75,-30.715 -30.722,-30.715 -16.961,0 -30.723,13.754 -30.723,30.715 0,16.968 13.762,30.722 30.723,30.722 16.972,0 30.722,-13.754 30.722,-30.722 z"
         style="fill:none;stroke:#8b8889;stroke-width:5;stroke-linecap:butt;stroke-linejoin:miter;stroke-miterlimit:10;stroke-dasharray:none;stroke-opacity:1"
         transform="matrix(0.13333333,0,0,-0.13333333,0,144.61333)" />
      <path
         id="path33"
         d="m 177.527,825.137 c 0,-16.961 -13.757,-30.715 -30.718,-30.715 -16.965,0 -30.715,13.754 -30.715,30.715 0,16.968 13.75,30.722 30.715,30.722 16.961,0 30.718,-13.754 30.718,-30.722 z"
         style="fill:none;stroke:#8b8889;stroke-width:5;stroke-linecap:butt;stroke-linejoin:miter;stroke-miterlimit:10;stroke-dasharray:none;stroke-opacity:1"
         transform="matrix(0.13333333,0,0,-0.13333333,0,144.61333)" />
      <path
         id="path34"
         d="m 1199.8,825.137 c 0,-16.961 -13.76,-30.715 -30.72,-30.715 -16.97,0 -30.72,13.754 -30.72,30.715 0,16.968 13.75,30.722 30.72,30.722 16.96,0 30.72,-13.754 30.72,-30.722 z"
         style="fill:none;stroke:#8b8889;stroke-width:5;stroke-linecap:butt;stroke-linejoin:miter;stroke-miterlimit:10;stroke-dasharray:none;stroke-opacity:1"
         transform="matrix(0.13333333,0,0,-0.13333333,0,144.61333)" />
      <path
         id="path35"
         d="m 63.9453,712.008 c 0,-16.969 -13.75,-30.719 -30.7226,-30.719 -16.9727,0 -30.7227,13.75 -30.7227,30.719 0,16.969 13.75,30.719 30.7227,30.719 16.9726,0 30.7226,-13.75 30.7226,-30.719 z"
         style="fill:none;stroke:#8b8889;stroke-width:5;stroke-linecap:butt;stroke-linejoin:miter;stroke-miterlimit:10;stroke-dasharray:none;stroke-opacity:1"
         transform="matrix(0.13333333,0,0,-0.13333333,0,144.61333)" />
      <path
         id="path36"
         d="m 1086.21,712.008 c 0,-16.969 -13.75,-30.719 -30.72,-30.719 -16.95,0 -30.71,13.75 -30.71,30.719 0,16.969 13.76,30.719 30.71,30.719 16.97,0 30.72,-13.75 30.72,-30.719 z"
         style="fill:none;stroke:#8b8889;stroke-width:5;stroke-linecap:butt;stroke-linejoin:miter;stroke-miterlimit:10;stroke-dasharray:none;stroke-opacity:1"
         transform="matrix(0.13333333,0,0,-0.13333333,0,144.61333)" />
      <path
         id="path37"
         d="m 972.629,712.008 c 0,-16.969 -13.75,-30.719 -30.715,-30.719 -16.973,0 -30.723,13.75 -30.723,30.719 0,16.969 13.75,30.719 30.723,30.719 16.965,0 30.715,-13.75 30.715,-30.719 z"
         style="fill:none;stroke:#8b8889;stroke-width:5;stroke-linecap:butt;stroke-linejoin:miter;stroke-miterlimit:10;stroke-dasharray:none;stroke-opacity:1"
         transform="matrix(0.13333333,0,0,-0.13333333,0,144.61333)" />
      <path
         id="path38"
         d="m 859.043,712.008 c 0,-16.969 -13.75,-30.719 -30.723,-30.719 -16.965,0 -30.722,13.75 -30.722,30.719 0,16.969 13.757,30.719 30.722,30.719 16.973,0 30.723,-13.75 30.723,-30.719 z"
         style="fill:none;stroke:#8b8889;stroke-width:5;stroke-linecap:butt;stroke-linejoin:miter;stroke-miterlimit:10;stroke-dasharray:none;stroke-opacity:1"
         transform="matrix(0.13333333,0,0,-0.13333333,0,144.61333)" />
      <path
         id="path39"
         d="m 745.461,712.008 c 0,-16.969 -13.762,-30.719 -30.727,-30.719 -16.961,0 -30.711,13.75 -30.711,30.719 0,16.969 13.75,30.719 30.711,30.719 16.965,0 30.727,-13.75 30.727,-30.719 z"
         style="fill:none;stroke:#8b8889;stroke-width:5;stroke-linecap:butt;stroke-linejoin:miter;stroke-miterlimit:10;stroke-dasharray:none;stroke-opacity:1"
         transform="matrix(0.13333333,0,0,-0.13333333,0,144.61333)" />
      <path
         id="path40"
         d="m 631.875,712.008 c 0,-16.969 -13.762,-30.719 -30.723,-30.719 -16.972,0 -30.722,13.75 -30.722,30.719 0,16.969 13.75,30.719 30.722,30.719 16.961,0 30.723,-13.75 30.723,-30.719 z"
         style="fill:none;stroke:#8b8889;stroke-width:5;stroke-linecap:butt;stroke-linejoin:miter;stroke-miterlimit:10;stroke-dasharray:none;stroke-opacity:1"
         transform="matrix(0.13333333,0,0,-0.13333333,0,144.61333)" />
      <path
         id="path41"
         d="m 518.281,712.008 c 0,-16.969 -13.75,-30.719 -30.722,-30.719 -16.954,0 -30.711,13.75 -30.711,30.719 0,16.969 13.757,30.719 30.711,30.719 16.972,0 30.722,-13.75 30.722,-30.719 z"
         style="fill:none;stroke:#8b8889;stroke-width:5;stroke-linecap:butt;stroke-linejoin:miter;stroke-miterlimit:10;stroke-dasharray:none;stroke-opacity:1"
         transform="matrix(0.13333333,0,0,-0.13333333,0,144.61333)" />
      <path
         id="path42"
         d="m 404.695,712.008 c 0,-16.969 -13.75,-30.719 -30.711,-30.719 -16.972,0 -30.722,13.75 -30.722,30.719 0,16.969 13.75,30.719 30.722,30.719 16.961,0 30.711,-13.75 30.711,-30.719 z"
         style="fill:none;stroke:#8b8889;stroke-width:5;stroke-linecap:butt;stroke-linejoin:miter;stroke-miterlimit:10;stroke-dasharray:none;stroke-opacity:1"
         transform="matrix(0.13333333,0,0,-0.13333333,0,144.61333)" />
      <path
         id="path43"
         d="m 291.113,712.008 c 0,-16.969 -13.75,-30.719 -30.722,-30.719 -16.961,0 -30.723,13.75 -30.723,30.719 0,16.969 13.762,30.719 30.723,30.719 16.972,0 30.722,-13.75 30.722,-30.719 z"
         style="fill:none;stroke:#8b8889;stroke-width:5;stroke-linecap:butt;stroke-linejoin:miter;stroke-miterlimit:10;stroke-dasharray:none;stroke-opacity:1"
         transform="matrix(0.13333333,0,0,-0.13333333,0,144.61333)" />
      <path
         id="path44"
         d="m 177.527,712.008 c 0,-16.969 -13.757,-30.719 -30.718,-30.719 -16.965,0 -30.715,13.75 -30.715,30.719 0,16.969 13.75,30.719 30.715,30.719 16.961,0 30.718,-13.75 30.718,-30.719 z"
         style="fill:none;stroke:#8b8889;stroke-width:5;stroke-linecap:butt;stroke-linejoin:miter;stroke-miterlimit:10;stroke-dasharray:none;stroke-opacity:1"
         transform="matrix(0.13333333,0,0,-0.13333333,0,144.61333)" />
      <path
         id="path45"
         d="m 1199.8,712.008 c 0,-16.969 -13.76,-30.719 -30.72,-30.719 -16.97,0 -30.72,13.75 -30.72,30.719 0,16.969 13.75,30.719 30.72,30.719 16.96,0 30.72,-13.75 30.72,-30.719 z"
         style="fill:none;stroke:#8b8889;stroke-width:5;stroke-linecap:butt;stroke-linejoin:miter;stroke-miterlimit:10;stroke-dasharray:none;stroke-opacity:1"
         transform="matrix(0.13333333,0,0,-0.13333333,0,144.61333)" />
      <path
         id="path46"
         d="m 63.9453,598.879 c 0,-16.969 -13.75,-30.723 -30.7226,-30.723 C 16.25,568.156 2.5,581.91 2.5,598.879 c 0,16.961 13.75,30.723 30.7227,30.723 16.9726,0 30.7226,-13.762 30.7226,-30.723 z"
         style="fill:none;stroke:#8b8889;stroke-width:5;stroke-linecap:butt;stroke-linejoin:miter;stroke-miterlimit:10;stroke-dasharray:none;stroke-opacity:1"
         transform="matrix(0.13333333,0,0,-0.13333333,0,144.61333)" />
      <path
         id="path47"
         d="m 1086.21,598.879 c 0,-16.969 -13.75,-30.723 -30.72,-30.723 -16.95,0 -30.71,13.754 -30.71,30.723 0,16.961 13.76,30.723 30.71,30.723 16.97,0 30.72,-13.762 30.72,-30.723 z"
         style="fill:none;stroke:#8b8889;stroke-width:5;stroke-linecap:butt;stroke-linejoin:miter;stroke-miterlimit:10;stroke-dasharray:none;stroke-opacity:1"
         transform="matrix(0.13333333,0,0,-0.13333333,0,144.61333)" />
      <path
         id="path48"
         d="m 972.629,598.879 c 0,-16.969 -13.75,-30.723 -30.715,-30.723 -16.973,0 -30.723,13.754 -30.723,30.723 0,16.961 13.75,30.723 30.723,30.723 16.965,0 30.715,-13.762 30.715,-30.723 z"
         style="fill:none;stroke:#8b8889;stroke-width:5;stroke-linecap:butt;stroke-linejoin:miter;stroke-miterlimit:10;stroke-dasharray:none;stroke-opacity:1"
         transform="matrix(0.13333333,0,0,-0.13333333,0,144.61333)" />
      <path
         id="path49"
         d="m 859.043,598.879 c 0,-16.969 -13.75,-30.723 -30.723,-30.723 -16.965,0 -30.722,13.754 -30.722,30.723 0,16.961 13.757,30.723 30.722,30.723 16.973,0 30.723,-13.762 30.723,-30.723 z"
         style="fill:none;stroke:#8b8889;stroke-width:5;stroke-linecap:butt;stroke-linejoin:miter;stroke-miterlimit:10;stroke-dasharray:none;stroke-opacity:1"
         transform="matrix(0.13333333,0,0,-0.13333333,0,144.61333)" />
      <path
         id="path50"
         d="m 745.461,598.879 c 0,-16.969 -13.762,-30.723 -30.727,-30.723 -16.961,0 -30.711,13.754 -30.711,30.723 0,16.961 13.75,30.723 30.711,30.723 16.965,0 30.727,-13.762 30.727,-30.723 z"
         style="fill:none;stroke:#8b8889;stroke-width:5;stroke-linecap:butt;stroke-linejoin:miter;stroke-miterlimit:10;stroke-dasharray:none;stroke-opacity:1"
         transform="matrix(0.13333333,0,0,-0.13333333,0,144.61333)" />
      <path
         id="path51"
         d="m 631.875,598.879 c 0,-16.969 -13.762,-30.723 -30.723,-30.723 -16.972,0 -30.722,13.754 -30.722,30.723 0,16.961 13.75,30.723 30.722,30.723 16.961,0 30.723,-13.762 30.723,-30.723 z"
         style="fill:none;stroke:#8b8889;stroke-width:5;stroke-linecap:butt;stroke-linejoin:miter;stroke-miterlimit:10;stroke-dasharray:none;stroke-opacity:1"
         transform="matrix(0.13333333,0,0,-0.13333333,0,144.61333)" />
      <path
         id="path52"
         d="m 518.281,598.879 c 0,-16.969 -13.75,-30.723 -30.722,-30.723 -16.954,0 -30.711,13.754 -30.711,30.723 0,16.961 13.757,30.723 30.711,30.723 16.972,0 30.722,-13.762 30.722,-30.723 z"
         style="fill:none;stroke:#8b8889;stroke-width:5;stroke-linecap:butt;stroke-linejoin:miter;stroke-miterlimit:10;stroke-dasharray:none;stroke-opacity:1"
         transform="matrix(0.13333333,0,0,-0.13333333,0,144.61333)" />
      <path
         id="path53"
         d="m 404.695,598.879 c 0,-16.969 -13.75,-30.723 -30.711,-30.723 -16.972,0 -30.722,13.754 -30.722,30.723 0,16.961 13.75,30.723 30.722,30.723 16.961,0 30.711,-13.762 30.711,-30.723 z"
         style="fill:none;stroke:#8b8889;stroke-width:5;stroke-linecap:butt;stroke-linejoin:miter;stroke-miterlimit:10;stroke-dasharray:none;stroke-opacity:1"
         transform="matrix(0.13333333,0,0,-0.13333333,0,144.61333)" />
      <path
         id="path54"
         d="m 291.113,598.879 c 0,-16.969 -13.75,-30.723 -30.722,-30.723 -16.961,0 -30.723,13.754 -30.723,30.723 0,16.961 13.762,30.723 30.723,30.723 16.972,0 30.722,-13.762 30.722,-30.723 z"
         style="fill:none;stroke:#8b8889;stroke-width:5;stroke-linecap:butt;stroke-linejoin:miter;stroke-miterlimit:10;stroke-dasharray:none;stroke-opacity:1"
         transform="matrix(0.13333333,0,0,-0.13333333,0,144.61333)" />
      <path
         id="path55"
         d="m 177.527,598.879 c 0,-16.969 -13.757,-30.723 -30.718,-30.723 -16.965,0 -30.715,13.754 -30.715,30.723 0,16.961 13.75,30.723 30.715,30.723 16.961,0 30.718,-13.762 30.718,-30.723 z"
         style="fill:none;stroke:#8b8889;stroke-width:5;stroke-linecap:butt;stroke-linejoin:miter;stroke-miterlimit:10;stroke-dasharray:none;stroke-opacity:1"
         transform="matrix(0.13333333,0,0,-0.13333333,0,144.61333)" />
      <path
         id="path56"
         d="m 1199.8,598.879 c 0,-16.969 -13.76,-30.723 -30.72,-30.723 -16.97,0 -30.72,13.754 -30.72,30.723 0,16.961 13.75,30.723 30.72,30.723 16.96,0 30.72,-13.762 30.72,-30.723 z"
         style="fill:none;stroke:#8b8889;stroke-width:5;stroke-linecap:butt;stroke-linejoin:miter;stroke-miterlimit:10;stroke-dasharray:none;stroke-opacity:1"
         transform="matrix(0.13333333,0,0,-0.13333333,0,144.61333)" />
      <path
         id="path57"
         d="m 63.9453,485.742 c 0,-16.961 -13.75,-30.711 -30.7226,-30.711 -16.9727,0 -30.7227,13.75 -30.7227,30.711 0,16.973 13.75,30.723 30.7227,30.723 16.9726,0 30.7226,-13.75 30.7226,-30.723 z"
         style="fill:none;stroke:#8b8889;stroke-width:5;stroke-linecap:butt;stroke-linejoin:miter;stroke-miterlimit:10;stroke-dasharray:none;stroke-opacity:1"
         transform="matrix(0.13333333,0,0,-0.13333333,0,144.61333)" />
      <path
         id="path58"
         d="m 1086.21,485.742 c 0,-16.961 -13.75,-30.711 -30.72,-30.711 -16.95,0 -30.71,13.75 -30.71,30.711 0,16.973 13.76,30.723 30.71,30.723 16.97,0 30.72,-13.75 30.72,-30.723 z"
         style="fill:none;stroke:#8b8889;stroke-width:5;stroke-linecap:butt;stroke-linejoin:miter;stroke-miterlimit:10;stroke-dasharray:none;stroke-opacity:1"
         transform="matrix(0.13333333,0,0,-0.13333333,0,144.61333)" />
      <path
         id="path59"
         d="m 972.629,485.742 c 0,-16.961 -13.75,-30.711 -30.715,-30.711 -16.973,0 -30.723,13.75 -30.723,30.711 0,16.973 13.75,30.723 30.723,30.723 16.965,0 30.715,-13.75 30.715,-30.723 z"
         style="fill:none;stroke:#8b8889;stroke-width:5;stroke-linecap:butt;stroke-linejoin:miter;stroke-miterlimit:10;stroke-dasharray:none;stroke-opacity:1"
         transform="matrix(0.13333333,0,0,-0.13333333,0,144.61333)" />
      <path
         id="path60"
         d="m 859.043,485.742 c 0,-16.961 -13.75,-30.711 -30.723,-30.711 -16.965,0 -30.722,13.75 -30.722,30.711 0,16.973 13.757,30.723 30.722,30.723 16.973,0 30.723,-13.75 30.723,-30.723 z"
         style="fill:none;stroke:#8b8889;stroke-width:5;stroke-linecap:butt;stroke-linejoin:miter;stroke-miterlimit:10;stroke-dasharray:none;stroke-opacity:1"
         transform="matrix(0.13333333,0,0,-0.13333333,0,144.61333)" />
      <path
         id="path61"
         d="m 745.461,485.742 c 0,-16.961 -13.762,-30.711 -30.727,-30.711 -16.961,0 -30.711,13.75 -30.711,30.711 0,16.973 13.75,30.723 30.711,30.723 16.965,0 30.727,-13.75 30.727,-30.723 z"
         style="fill:none;stroke:#8b8889;stroke-width:5;stroke-linecap:butt;stroke-linejoin:miter;stroke-miterlimit:10;stroke-dasharray:none;stroke-opacity:1"
         transform="matrix(0.13333333,0,0,-0.13333333,0,144.61333)" />
      <path
         id="path62"
         d="m 631.875,485.742 c 0,-16.961 -13.762,-30.711 -30.723,-30.711 -16.972,0 -30.722,13.75 -30.722,30.711 0,16.973 13.75,30.723 30.722,30.723 16.961,0 30.723,-13.75 30.723,-30.723 z"
         style="fill:none;stroke:#8b8889;stroke-width:5;stroke-linecap:butt;stroke-linejoin:miter;stroke-miterlimit:10;stroke-dasharray:none;stroke-opacity:1"
         transform="matrix(0.13333333,0,0,-0.13333333,0,144.61333)" />
      <path
         id="path63"
         d="m 518.281,485.742 c 0,-16.961 -13.75,-30.711 -30.722,-30.711 -16.954,0 -30.711,13.75 -30.711,30.711 0,16.973 13.757,30.723 30.711,30.723 16.972,0 30.722,-13.75 30.722,-30.723 z"
         style="fill:none;stroke:#8b8889;stroke-width:5;stroke-linecap:butt;stroke-linejoin:miter;stroke-miterlimit:10;stroke-dasharray:none;stroke-opacity:1"
         transform="matrix(0.13333333,0,0,-0.13333333,0,144.61333)" />
      <path
         id="path64"
         d="m 404.695,485.742 c 0,-16.961 -13.75,-30.711 -30.711,-30.711 -16.972,0 -30.722,13.75 -30.722,30.711 0,16.973 13.75,30.723 30.722,30.723 16.961,0 30.711,-13.75 30.711,-30.723 z"
         style="fill:none;stroke:#8b8889;stroke-width:5;stroke-linecap:butt;stroke-linejoin:miter;stroke-miterlimit:10;stroke-dasharray:none;stroke-opacity:1"
         transform="matrix(0.13333333,0,0,-0.13333333,0,144.61333)" />
      <path
         id="path65"
         d="m 291.113,485.742 c 0,-16.961 -13.75,-30.711 -30.722,-30.711 -16.961,0 -30.723,13.75 -30.723,30.711 0,16.973 13.762,30.723 30.723,30.723 16.972,0 30.722,-13.75 30.722,-30.723 z"
         style="fill:none;stroke:#8b8889;stroke-width:5;stroke-linecap:butt;stroke-linejoin:miter;stroke-miterlimit:10;stroke-dasharray:none;stroke-opacity:1"
         transform="matrix(0.13333333,0,0,-0.13333333,0,144.61333)" />
      <path
         id="path66"
         d="m 177.527,485.742 c 0,-16.961 -13.757,-30.711 -30.718,-30.711 -16.965,0 -30.715,13.75 -30.715,30.711 0,16.973 13.75,30.723 30.715,30.723 16.961,0 30.718,-13.75 30.718,-30.723 z"
         style="fill:none;stroke:#8b8889;stroke-width:5;stroke-linecap:butt;stroke-linejoin:miter;stroke-miterlimit:10;stroke-dasharray:none;stroke-opacity:1"
         transform="matrix(0.13333333,0,0,-0.13333333,0,144.61333)" />
      <path
         id="path67"
         d="m 1199.8,485.742 c 0,-16.961 -13.76,-30.711 -30.72,-30.711 -16.97,0 -30.72,13.75 -30.72,30.711 0,16.973 13.75,30.723 30.72,30.723 16.96,0 30.72,-13.75 30.72,-30.723 z"
         style="fill:none;stroke:#8b8889;stroke-width:5;stroke-linecap:butt;stroke-linejoin:miter;stroke-miterlimit:10;stroke-dasharray:none;stroke-opacity:1"
         transform="matrix(0.13333333,0,0,-0.13333333,0,144.61333)" />
      <path
         id="path68"
         d="m 63.9453,372.617 c 0,-16.972 -13.75,-30.722 -30.7226,-30.722 -16.9727,0 -30.7227,13.75 -30.7227,30.722 0,16.965 13.75,30.715 30.7227,30.715 16.9726,0 30.7226,-13.75 30.7226,-30.715 z"
         style="fill:none;stroke:#8b8889;stroke-width:5;stroke-linecap:butt;stroke-linejoin:miter;stroke-miterlimit:10;stroke-dasharray:none;stroke-opacity:1"
         transform="matrix(0.13333333,0,0,-0.13333333,0,144.61333)" />
      <path
         id="path69"
         d="m 1086.21,372.617 c 0,-16.972 -13.75,-30.722 -30.72,-30.722 -16.95,0 -30.71,13.75 -30.71,30.722 0,16.965 13.76,30.715 30.71,30.715 16.97,0 30.72,-13.75 30.72,-30.715 z"
         style="fill:none;stroke:#8b8889;stroke-width:5;stroke-linecap:butt;stroke-linejoin:miter;stroke-miterlimit:10;stroke-dasharray:none;stroke-opacity:1"
         transform="matrix(0.13333333,0,0,-0.13333333,0,144.61333)" />
      <path
         id="path70"
         d="m 972.629,372.617 c 0,-16.972 -13.75,-30.722 -30.715,-30.722 -16.973,0 -30.723,13.75 -30.723,30.722 0,16.965 13.75,30.715 30.723,30.715 16.965,0 30.715,-13.75 30.715,-30.715 z"
         style="fill:none;stroke:#8b8889;stroke-width:5;stroke-linecap:butt;stroke-linejoin:miter;stroke-miterlimit:10;stroke-dasharray:none;stroke-opacity:1"
         transform="matrix(0.13333333,0,0,-0.13333333,0,144.61333)" />
      <path
         id="path71"
         d="m 859.043,372.617 c 0,-16.972 -13.75,-30.722 -30.723,-30.722 -16.965,0 -30.722,13.75 -30.722,30.722 0,16.965 13.757,30.715 30.722,30.715 16.973,0 30.723,-13.75 30.723,-30.715 z"
         style="fill:none;stroke:#8b8889;stroke-width:5;stroke-linecap:butt;stroke-linejoin:miter;stroke-miterlimit:10;stroke-dasharray:none;stroke-opacity:1"
         transform="matrix(0.13333333,0,0,-0.13333333,0,144.61333)" />
      <path
         id="path72"
         d="m 745.461,372.617 c 0,-16.972 -13.762,-30.722 -30.727,-30.722 -16.961,0 -30.711,13.75 -30.711,30.722 0,16.965 13.75,30.715 30.711,30.715 16.965,0 30.727,-13.75 30.727,-30.715 z"
         style="fill:none;stroke:#8b8889;stroke-width:5;stroke-linecap:butt;stroke-linejoin:miter;stroke-miterlimit:10;stroke-dasharray:none;stroke-opacity:1"
         transform="matrix(0.13333333,0,0,-0.13333333,0,144.61333)" />
      <path
         id="path73"
         d="m 631.875,372.617 c 0,-16.972 -13.762,-30.722 -30.723,-30.722 -16.972,0 -30.722,13.75 -30.722,30.722 0,16.965 13.75,30.715 30.722,30.715 16.961,0 30.723,-13.75 30.723,-30.715 z"
         style="fill:none;stroke:#8b8889;stroke-width:5;stroke-linecap:butt;stroke-linejoin:miter;stroke-miterlimit:10;stroke-dasharray:none;stroke-opacity:1"
         transform="matrix(0.13333333,0,0,-0.13333333,0,144.61333)" />
      <path
         id="path74"
         d="m 518.281,372.617 c 0,-16.972 -13.75,-30.722 -30.722,-30.722 -16.954,0 -30.711,13.75 -30.711,30.722 0,16.965 13.757,30.715 30.711,30.715 16.972,0 30.722,-13.75 30.722,-30.715 z"
         style="fill:none;stroke:#8b8889;stroke-width:5;stroke-linecap:butt;stroke-linejoin:miter;stroke-miterlimit:10;stroke-dasharray:none;stroke-opacity:1"
         transform="matrix(0.13333333,0,0,-0.13333333,0,144.61333)" />
      <path
         id="path75"
         d="m 404.695,372.617 c 0,-16.972 -13.75,-30.722 -30.711,-30.722 -16.972,0 -30.722,13.75 -30.722,30.722 0,16.965 13.75,30.715 30.722,30.715 16.961,0 30.711,-13.75 30.711,-30.715 z"
         style="fill:none;stroke:#8b8889;stroke-width:5;stroke-linecap:butt;stroke-linejoin:miter;stroke-miterlimit:10;stroke-dasharray:none;stroke-opacity:1"
         transform="matrix(0.13333333,0,0,-0.13333333,0,144.61333)" />
      <path
         id="path76"
         d="m 291.113,372.617 c 0,-16.972 -13.75,-30.722 -30.722,-30.722 -16.961,0 -30.723,13.75 -30.723,30.722 0,16.965 13.762,30.715 30.723,30.715 16.972,0 30.722,-13.75 30.722,-30.715 z"
         style="fill:none;stroke:#8b8889;stroke-width:5;stroke-linecap:butt;stroke-linejoin:miter;stroke-miterlimit:10;stroke-dasharray:none;stroke-opacity:1"
         transform="matrix(0.13333333,0,0,-0.13333333,0,144.61333)" />
      <path
         id="path77"
         d="m 177.527,372.617 c 0,-16.972 -13.757,-30.722 -30.718,-30.722 -16.965,0 -30.715,13.75 -30.715,30.722 0,16.965 13.75,30.715 30.715,30.715 16.961,0 30.718,-13.75 30.718,-30.715 z"
         style="fill:none;stroke:#8b8889;stroke-width:5;stroke-linecap:butt;stroke-linejoin:miter;stroke-miterlimit:10;stroke-dasharray:none;stroke-opacity:1"
         transform="matrix(0.13333333,0,0,-0.13333333,0,144.61333)" />
      <path
         id="path78"
         d="m 1199.8,372.617 c 0,-16.972 -13.76,-30.722 -30.72,-30.722 -16.97,0 -30.72,13.75 -30.72,30.722 0,16.965 13.75,30.715 30.72,30.715 16.96,0 30.72,-13.75 30.72,-30.715 z"
         style="fill:none;stroke:#8b8889;stroke-width:5;stroke-linecap:butt;stroke-linejoin:miter;stroke-miterlimit:10;stroke-dasharray:none;stroke-opacity:1"
         transform="matrix(0.13333333,0,0,-0.13333333,0,144.61333)" />
      <path
         id="path79"
         d="m 63.9453,259.484 c 0,-16.964 -13.75,-30.722 -30.7226,-30.722 C 16.25,228.762 2.5,242.52 2.5,259.484 c 0,16.961 13.75,30.723 30.7227,30.723 16.9726,0 30.7226,-13.762 30.7226,-30.723 z"
         style="fill:none;stroke:#8b8889;stroke-width:5;stroke-linecap:butt;stroke-linejoin:miter;stroke-miterlimit:10;stroke-dasharray:none;stroke-opacity:1"
         transform="matrix(0.13333333,0,0,-0.13333333,0,144.61333)" />
      <path
         id="path80"
         d="m 1086.21,259.484 c 0,-16.964 -13.75,-30.722 -30.72,-30.722 -16.95,0 -30.71,13.758 -30.71,30.722 0,16.961 13.76,30.723 30.71,30.723 16.97,0 30.72,-13.762 30.72,-30.723 z"
         style="fill:none;stroke:#8b8889;stroke-width:5;stroke-linecap:butt;stroke-linejoin:miter;stroke-miterlimit:10;stroke-dasharray:none;stroke-opacity:1"
         transform="matrix(0.13333333,0,0,-0.13333333,0,144.61333)" />
      <path
         id="path81"
         d="m 972.629,259.484 c 0,-16.964 -13.75,-30.722 -30.715,-30.722 -16.973,0 -30.723,13.758 -30.723,30.722 0,16.961 13.75,30.723 30.723,30.723 16.965,0 30.715,-13.762 30.715,-30.723 z"
         style="fill:none;stroke:#8b8889;stroke-width:5;stroke-linecap:butt;stroke-linejoin:miter;stroke-miterlimit:10;stroke-dasharray:none;stroke-opacity:1"
         transform="matrix(0.13333333,0,0,-0.13333333,0,144.61333)" />
      <path
         id="path82"
         d="m 859.043,259.484 c 0,-16.964 -13.75,-30.722 -30.723,-30.722 -16.965,0 -30.722,13.758 -30.722,30.722 0,16.961 13.757,30.723 30.722,30.723 16.973,0 30.723,-13.762 30.723,-30.723 z"
         style="fill:none;stroke:#8b8889;stroke-width:5;stroke-linecap:butt;stroke-linejoin:miter;stroke-miterlimit:10;stroke-dasharray:none;stroke-opacity:1"
         transform="matrix(0.13333333,0,0,-0.13333333,0,144.61333)" />
      <path
         id="path83"
         d="m 745.461,259.484 c 0,-16.964 -13.762,-30.722 -30.727,-30.722 -16.961,0 -30.711,13.758 -30.711,30.722 0,16.961 13.75,30.723 30.711,30.723 16.965,0 30.727,-13.762 30.727,-30.723 z"
         style="fill:none;stroke:#8b8889;stroke-width:5;stroke-linecap:butt;stroke-linejoin:miter;stroke-miterlimit:10;stroke-dasharray:none;stroke-opacity:1"
         transform="matrix(0.13333333,0,0,-0.13333333,0,144.61333)" />
      <path
         id="path84"
         d="m 631.875,259.484 c 0,-16.964 -13.762,-30.722 -30.723,-30.722 -16.972,0 -30.722,13.758 -30.722,30.722 0,16.961 13.75,30.723 30.722,30.723 16.961,0 30.723,-13.762 30.723,-30.723 z"
         style="fill:none;stroke:#8b8889;stroke-width:5;stroke-linecap:butt;stroke-linejoin:miter;stroke-miterlimit:10;stroke-dasharray:none;stroke-opacity:1"
         transform="matrix(0.13333333,0,0,-0.13333333,0,144.61333)" />
      <path
         id="path85"
         d="m 518.281,259.484 c 0,-16.964 -13.75,-30.722 -30.722,-30.722 -16.954,0 -30.711,13.758 -30.711,30.722 0,16.961 13.757,30.723 30.711,30.723 16.972,0 30.722,-13.762 30.722,-30.723 z"
         style="fill:none;stroke:#8b8889;stroke-width:5;stroke-linecap:butt;stroke-linejoin:miter;stroke-miterlimit:10;stroke-dasharray:none;stroke-opacity:1"
         transform="matrix(0.13333333,0,0,-0.13333333,0,144.61333)" />
      <path
         id="path86"
         d="m 404.695,259.484 c 0,-16.964 -13.75,-30.722 -30.711,-30.722 -16.972,0 -30.722,13.758 -30.722,30.722 0,16.961 13.75,30.723 30.722,30.723 16.961,0 30.711,-13.762 30.711,-30.723 z"
         style="fill:none;stroke:#8b8889;stroke-width:5;stroke-linecap:butt;stroke-linejoin:miter;stroke-miterlimit:10;stroke-dasharray:none;stroke-opacity:1"
         transform="matrix(0.13333333,0,0,-0.13333333,0,144.61333)" />
      <path
         id="path87"
         d="m 291.113,259.484 c 0,-16.964 -13.75,-30.722 -30.722,-30.722 -16.961,0 -30.723,13.758 -30.723,30.722 0,16.961 13.762,30.723 30.723,30.723 16.972,0 30.722,-13.762 30.722,-30.723 z"
         style="fill:none;stroke:#8b8889;stroke-width:5;stroke-linecap:butt;stroke-linejoin:miter;stroke-miterlimit:10;stroke-dasharray:none;stroke-opacity:1"
         transform="matrix(0.13333333,0,0,-0.13333333,0,144.61333)" />
      <path
         id="path88"
         d="m 177.527,259.484 c 0,-16.964 -13.757,-30.722 -30.718,-30.722 -16.965,0 -30.715,13.758 -30.715,30.722 0,16.961 13.75,30.723 30.715,30.723 16.961,0 30.718,-13.762 30.718,-30.723 z"
         style="fill:none;stroke:#8b8889;stroke-width:5;stroke-linecap:butt;stroke-linejoin:miter;stroke-miterlimit:10;stroke-dasharray:none;stroke-opacity:1"
         transform="matrix(0.13333333,0,0,-0.13333333,0,144.61333)" />
      <path
         id="path89"
         d="m 1199.8,259.484 c 0,-16.964 -13.76,-30.722 -30.72,-30.722 -16.97,0 -30.72,13.758 -30.72,30.722 0,16.961 13.75,30.723 30.72,30.723 16.96,0 30.72,-13.762 30.72,-30.723 z"
         style="fill:none;stroke:#8b8889;stroke-width:5;stroke-linecap:butt;stroke-linejoin:miter;stroke-miterlimit:10;stroke-dasharray:none;stroke-opacity:1"
         transform="matrix(0.13333333,0,0,-0.13333333,0,144.61333)" />
      <path
         id="path90"
         d="m 63.9453,146.348 c 0,-16.961 -13.75,-30.711 -30.7226,-30.711 -16.9727,0 -30.7227,13.75 -30.7227,30.711 0,16.972 13.75,30.722 30.7227,30.722 16.9726,0 30.7226,-13.75 30.7226,-30.722 z"
         style="fill:none;stroke:#8b8889;stroke-width:5;stroke-linecap:butt;stroke-linejoin:miter;stroke-miterlimit:10;stroke-dasharray:none;stroke-opacity:1"
         transform="matrix(0.13333333,0,0,-0.13333333,0,144.61333)" />
      <path
         id="path91"
         d="m 1086.21,146.348 c 0,-16.961 -13.75,-30.711 -30.72,-30.711 -16.95,0 -30.71,13.75 -30.71,30.711 0,16.972 13.76,30.722 30.71,30.722 16.97,0 30.72,-13.75 30.72,-30.722 z"
         style="fill:none;stroke:#8b8889;stroke-width:5;stroke-linecap:butt;stroke-linejoin:miter;stroke-miterlimit:10;stroke-dasharray:none;stroke-opacity:1"
         transform="matrix(0.13333333,0,0,-0.13333333,0,144.61333)" />
      <path
         id="path92"
         d="m 972.629,146.348 c 0,-16.961 -13.75,-30.711 -30.715,-30.711 -16.973,0 -30.723,13.75 -30.723,30.711 0,16.972 13.75,30.722 30.723,30.722 16.965,0 30.715,-13.75 30.715,-30.722 z"
         style="fill:none;stroke:#8b8889;stroke-width:5;stroke-linecap:butt;stroke-linejoin:miter;stroke-miterlimit:10;stroke-dasharray:none;stroke-opacity:1"
         transform="matrix(0.13333333,0,0,-0.13333333,0,144.61333)" />
      <path
         id="path93"
         d="m 859.043,146.348 c 0,-16.961 -13.75,-30.711 -30.723,-30.711 -16.965,0 -30.722,13.75 -30.722,30.711 0,16.972 13.757,30.722 30.722,30.722 16.973,0 30.723,-13.75 30.723,-30.722 z"
         style="fill:none;stroke:#8b8889;stroke-width:5;stroke-linecap:butt;stroke-linejoin:miter;stroke-miterlimit:10;stroke-dasharray:none;stroke-opacity:1"
         transform="matrix(0.13333333,0,0,-0.13333333,0,144.61333)" />
      <path
         id="path94"
         d="m 745.461,146.348 c 0,-16.961 -13.762,-30.711 -30.727,-30.711 -16.961,0 -30.711,13.75 -30.711,30.711 0,16.972 13.75,30.722 30.711,30.722 16.965,0 30.727,-13.75 30.727,-30.722 z"
         style="fill:none;stroke:#8b8889;stroke-width:5;stroke-linecap:butt;stroke-linejoin:miter;stroke-miterlimit:10;stroke-dasharray:none;stroke-opacity:1"
         transform="matrix(0.13333333,0,0,-0.13333333,0,144.61333)" />
      <path
         id="path95"
         d="m 631.875,146.348 c 0,-16.961 -13.762,-30.711 -30.723,-30.711 -16.972,0 -30.722,13.75 -30.722,30.711 0,16.972 13.75,30.722 30.722,30.722 16.961,0 30.723,-13.75 30.723,-30.722 z"
         style="fill:none;stroke:#8b8889;stroke-width:5;stroke-linecap:butt;stroke-linejoin:miter;stroke-miterlimit:10;stroke-dasharray:none;stroke-opacity:1"
         transform="matrix(0.13333333,0,0,-0.13333333,0,144.61333)" />
      <path
         id="path96"
         d="m 518.281,146.348 c 0,-16.961 -13.75,-30.711 -30.722,-30.711 -16.954,0 -30.711,13.75 -30.711,30.711 0,16.972 13.757,30.722 30.711,30.722 16.972,0 30.722,-13.75 30.722,-30.722 z"
         style="fill:none;stroke:#8b8889;stroke-width:5;stroke-linecap:butt;stroke-linejoin:miter;stroke-miterlimit:10;stroke-dasharray:none;stroke-opacity:1"
         transform="matrix(0.13333333,0,0,-0.13333333,0,144.61333)" />
      <path
         id="path97"
         d="m 404.695,146.348 c 0,-16.961 -13.75,-30.711 -30.711,-30.711 -16.972,0 -30.722,13.75 -30.722,30.711 0,16.972 13.75,30.722 30.722,30.722 16.961,0 30.711,-13.75 30.711,-30.722 z"
         style="fill:none;stroke:#8b8889;stroke-width:5;stroke-linecap:butt;stroke-linejoin:miter;stroke-miterlimit:10;stroke-dasharray:none;stroke-opacity:1"
         transform="matrix(0.13333333,0,0,-0.13333333,0,144.61333)" />
      <path
         id="path98"
         d="m 291.113,146.348 c 0,-16.961 -13.75,-30.711 -30.722,-30.711 -16.961,0 -30.723,13.75 -30.723,30.711 0,16.972 13.762,30.722 30.723,30.722 16.972,0 30.722,-13.75 30.722,-30.722 z"
         style="fill:none;stroke:#8b8889;stroke-width:5;stroke-linecap:butt;stroke-linejoin:miter;stroke-miterlimit:10;stroke-dasharray:none;stroke-opacity:1"
         transform="matrix(0.13333333,0,0,-0.13333333,0,144.61333)" />
      <path
         id="path99"
         d="m 177.527,146.348 c 0,-16.961 -13.757,-30.711 -30.718,-30.711 -16.965,0 -30.715,13.75 -30.715,30.711 0,16.972 13.75,30.722 30.715,30.722 16.961,0 30.718,-13.75 30.718,-30.722 z"
         style="fill:none;stroke:#8b8889;stroke-width:5;stroke-linecap:butt;stroke-linejoin:miter;stroke-miterlimit:10;stroke-dasharray:none;stroke-opacity:1"
         transform="matrix(0.13333333,0,0,-0.13333333,0,144.61333)" />
      <path
         id="path100"
         d="m 1199.8,146.348 c 0,-16.961 -13.76,-30.711 -30.72,-30.711 -16.97,0 -30.72,13.75 -30.72,30.711 0,16.972 13.75,30.722 30.72,30.722 16.96,0 30.72,-13.75 30.72,-30.722 z"
         style="fill:none;stroke:#8b8889;stroke-width:5;stroke-linecap:butt;stroke-linejoin:miter;stroke-miterlimit:10;stroke-dasharray:none;stroke-opacity:1"
         transform="matrix(0.13333333,0,0,-0.13333333,0,144.61333)" />
      <path
         id="path101"
         d="M 63.9453,33.2188 C 63.9453,16.25 50.1953,2.5 33.2227,2.5 16.25,2.5 2.5,16.25 2.5,33.2188 c 0,16.9726 13.75,30.7226 30.7227,30.7226 16.9726,0 30.7226,-13.75 30.7226,-30.7226 z"
         style="fill:none;stroke:#8b8889;stroke-width:5;stroke-linecap:butt;stroke-linejoin:miter;stroke-miterlimit:10;stroke-dasharray:none;stroke-opacity:1"
         transform="matrix(0.13333333,0,0,-0.13333333,0,144.61333)" />
      <path
         id="path102"
         d="M 1086.21,33.2188 C 1086.21,16.25 1072.46,2.5 1055.49,2.5 c -16.95,0 -30.71,13.75 -30.71,30.7188 0,16.9726 13.76,30.7226 30.71,30.7226 16.97,0 30.72,-13.75 30.72,-30.7226 z"
         style="fill:none;stroke:#8b8889;stroke-width:5;stroke-linecap:butt;stroke-linejoin:miter;stroke-miterlimit:10;stroke-dasharray:none;stroke-opacity:1"
         transform="matrix(0.13333333,0,0,-0.13333333,0,144.61333)" />
      <path
         id="path103"
         d="M 972.629,33.2188 C 972.629,16.25 958.879,2.5 941.914,2.5 c -16.973,0 -30.723,13.75 -30.723,30.7188 0,16.9726 13.75,30.7226 30.723,30.7226 16.965,0 30.715,-13.75 30.715,-30.7226 z"
         style="fill:none;stroke:#8b8889;stroke-width:5;stroke-linecap:butt;stroke-linejoin:miter;stroke-miterlimit:10;stroke-dasharray:none;stroke-opacity:1"
         transform="matrix(0.13333333,0,0,-0.13333333,0,144.61333)" />
      <path
         id="path104"
         d="M 859.043,33.2188 C 859.043,16.25 845.293,2.5 828.32,2.5 c -16.965,0 -30.722,13.75 -30.722,30.7188 0,16.9726 13.757,30.7226 30.722,30.7226 16.973,0 30.723,-13.75 30.723,-30.7226 z"
         style="fill:none;stroke:#8b8889;stroke-width:5;stroke-linecap:butt;stroke-linejoin:miter;stroke-miterlimit:10;stroke-dasharray:none;stroke-opacity:1"
         transform="matrix(0.13333333,0,0,-0.13333333,0,144.61333)" />
      <path
         id="path105"
         d="M 745.461,33.2188 C 745.461,16.25 731.699,2.5 714.734,2.5 c -16.961,0 -30.711,13.75 -30.711,30.7188 0,16.9726 13.75,30.7226 30.711,30.7226 16.965,0 30.727,-13.75 30.727,-30.7226 z"
         style="fill:none;stroke:#8b8889;stroke-width:5;stroke-linecap:butt;stroke-linejoin:miter;stroke-miterlimit:10;stroke-dasharray:none;stroke-opacity:1"
         transform="matrix(0.13333333,0,0,-0.13333333,0,144.61333)" />
      <path
         id="path106"
         d="M 631.875,33.2188 C 631.875,16.25 618.113,2.5 601.152,2.5 584.18,2.5 570.43,16.25 570.43,33.2188 c 0,16.9726 13.75,30.7226 30.722,30.7226 16.961,0 30.723,-13.75 30.723,-30.7226 z"
         style="fill:none;stroke:#8b8889;stroke-width:5;stroke-linecap:butt;stroke-linejoin:miter;stroke-miterlimit:10;stroke-dasharray:none;stroke-opacity:1"
         transform="matrix(0.13333333,0,0,-0.13333333,0,144.61333)" />
      <path
         id="path107"
         d="M 518.281,33.2188 C 518.281,16.25 504.531,2.5 487.559,2.5 c -16.954,0 -30.711,13.75 -30.711,30.7188 0,16.9726 13.757,30.7226 30.711,30.7226 16.972,0 30.722,-13.75 30.722,-30.7226 z"
         style="fill:none;stroke:#8b8889;stroke-width:5;stroke-linecap:butt;stroke-linejoin:miter;stroke-miterlimit:10;stroke-dasharray:none;stroke-opacity:1"
         transform="matrix(0.13333333,0,0,-0.13333333,0,144.61333)" />
      <path
         id="path108"
         d="M 404.695,33.2188 C 404.695,16.25 390.945,2.5 373.984,2.5 c -16.972,0 -30.722,13.75 -30.722,30.7188 0,16.9726 13.75,30.7226 30.722,30.7226 16.961,0 30.711,-13.75 30.711,-30.7226 z"
         style="fill:none;stroke:#8b8889;stroke-width:5;stroke-linecap:butt;stroke-linejoin:miter;stroke-miterlimit:10;stroke-dasharray:none;stroke-opacity:1"
         transform="matrix(0.13333333,0,0,-0.13333333,0,144.61333)" />
      <path
         id="path109"
         d="M 291.113,33.2188 C 291.113,16.25 277.363,2.5 260.391,2.5 c -16.961,0 -30.723,13.75 -30.723,30.7188 0,16.9726 13.762,30.7226 30.723,30.7226 16.972,0 30.722,-13.75 30.722,-30.7226 z"
         style="fill:none;stroke:#8b8889;stroke-width:5;stroke-linecap:butt;stroke-linejoin:miter;stroke-miterlimit:10;stroke-dasharray:none;stroke-opacity:1"
         transform="matrix(0.13333333,0,0,-0.13333333,0,144.61333)" />
      <path
         id="path110"
         d="M 177.527,33.2188 C 177.527,16.25 163.77,2.5 146.809,2.5 c -16.965,0 -30.715,13.75 -30.715,30.7188 0,16.9726 13.75,30.7226 30.715,30.7226 16.961,0 30.718,-13.75 30.718,-30.7226 z"
         style="fill:none;stroke:#8b8889;stroke-width:5;stroke-linecap:butt;stroke-linejoin:miter;stroke-miterlimit:10;stroke-dasharray:none;stroke-opacity:1"
         transform="matrix(0.13333333,0,0,-0.13333333,0,144.61333)" />
      <path
         id="path111"
         d="M 1199.8,33.2188 C 1199.8,16.25 1186.04,2.5 1169.08,2.5 c -16.97,0 -30.72,13.75 -30.72,30.7188 0,16.9726 13.75,30.7226 30.72,30.7226 16.96,0 30.72,-13.75 30.72,-30.7226 z"
         style="fill:none;stroke:#8b8889;stroke-width:5;stroke-linecap:butt;stroke-linejoin:miter;stroke-miterlimit:10;stroke-dasharray:none;stroke-opacity:1"
         transform="matrix(0.13333333,0,0,-0.13333333,0,144.61333)" />
      <path
         id="path112"
         d="m 623.215,550.188 c 0,16.566 13.426,30 30,30 16.57,0 30,-13.434 30,-30 0,-16.575 -13.43,-30 -30,-30 -16.574,0 -30,13.425 -30,30"
         style="fill:#231f20;fill-opacity:1;fill-rule:nonzero;stroke:none"
         transform="matrix(0.13333333,0,0,-0.13333333,0,144.61333)" />
      <path
         id="path113"
         d="m 403.113,876.031 c 0,16.567 13.43,30 30,30 16.575,0 30,-13.433 30,-30 0,-16.566 -13.425,-30 -30,-30 -16.57,0 -30,13.434 -30,30"
         style="fill:#231f20;fill-opacity:1;fill-rule:nonzero;stroke:none"
         transform="matrix(0.13333333,0,0,-0.13333333,0,144.61333)" />
      <path
         id="path114"
         d="M 432.656,876.535 874.219,221.848"
         style="fill:none;stroke:#231f20;stroke-width:10;stroke-linecap:butt;stroke-linejoin:miter;stroke-miterlimit:10;stroke-dasharray:none;stroke-opacity:1"
         transform="matrix(0.13333333,0,0,-0.13333333,0,144.61333)" />
      <path
         id="path115"
         d="m 845.762,219.844 c 0,16.574 13.437,30 30,30 16.574,0 30,-13.426 30,-30 0,-16.563 -13.426,-30 -30,-30 -16.563,0 -30,13.437 -30,30"
         style="fill:#231f20;fill-opacity:1;fill-rule:nonzero;stroke:none"
         transform="matrix(0.13333333,0,0,-0.13333333,0,144.61333)" />
      <path
         id="path116"
         d="m 406.406,405.449 c 0,16.574 13.438,30 30,30 16.574,0 30,-13.426 30,-30 0,-16.562 -13.426,-30 -30,-30 -16.562,0 -30,13.438 -30,30"
         style="fill:#231f20;fill-opacity:1;fill-rule:nonzero;stroke:none"
         transform="matrix(0.13333333,0,0,-0.13333333,0,144.61333)" />
      <path
         id="path117"
         d="m 841.582,692.48 c 0,16.575 13.43,30 30,30 16.563,0 30,-13.425 30,-30 0,-16.566 -13.437,-30 -30,-30 -16.57,0 -30,13.434 -30,30"
         style="fill:#231f20;fill-opacity:1;fill-rule:nonzero;stroke:none"
         transform="matrix(0.13333333,0,0,-0.13333333,0,144.61333)" />
      <path
         id="path118"
         d="M 869.773,693.898 431.66,401.484"
         style="fill:none;stroke:#231f20;stroke-width:10;stroke-linecap:butt;stroke-linejoin:miter;stroke-miterlimit:10;stroke-dasharray:none;stroke-opacity:1"
         transform="matrix(0.13333333,0,0,-0.13333333,0,144.61333)" />
    </g>
  </g>
</svg>
