<?xml version="1.0" encoding="UTF-8" standalone="no"?>
<!-- Created with Inkscape (http://www.inkscape.org/) -->

<svg
   version="1.1"
   id="svg1"
   width="176.46667"
   height="124.09333"
   viewBox="0 0 176.46667 124.09333"
   sodipodi:docname="pha10f08.eps"
   xmlns:inkscape="http://www.inkscape.org/namespaces/inkscape"
   xmlns:sodipodi="http://sodipodi.sourceforge.net/DTD/sodipodi-0.dtd"
   xmlns="http://www.w3.org/2000/svg"
   xmlns:svg="http://www.w3.org/2000/svg">
  <defs
     id="defs1" />
  <sodipodi:namedview
     id="namedview1"
     pagecolor="#ffffff"
     bordercolor="#000000"
     borderopacity="0.25"
     inkscape:showpageshadow="2"
     inkscape:pageopacity="0.0"
     inkscape:pagecheckerboard="0"
     inkscape:deskcolor="#d1d1d1">
    <inkscape:page
       x="0"
       y="0"
       inkscape:label="1"
       id="page1"
       width="176.46667"
       height="124.09333"
       margin="0"
       bleed="0" />
  </sodipodi:namedview>
  <g
     id="g1"
     inkscape:groupmode="layer"
     inkscape:label="1">
    <g
       id="group-R5">
      <g
         id="g2"
         aria-label="r&#10;θ&#10;θ&#10;θ′&#10;θ′&#10;r′"
         transform="matrix(1.3333333,0,0,1.3333333,11.180733,33.7736)">
        <path
           id="path2"
           d="m 0.56171562,-2.9532469 c 0.26953125,-0.2460937 0.55078128,-0.4335937 0.63281248,-0.4335937 0.070312,0 0.070312,0.09375 0.023437,0.3867187 -0.1757812,0.9609375 -0.42187498,2.07421878 -0.65624998,3.03515628 l 0.0703125,0.0703125 c 0.19921875,-0.0703125 0.43359378,-0.12890625 0.63281248,-0.1640625 0.1171875,-0.5859375 0.2226563,-1.16015628 0.3632813,-1.75781248 0.1640625,-0.4101563 0.4453125,-0.8320313 0.6445312,-1.1132813 0.1992188,-0.2929687 0.3398438,-0.3867187 0.4570313,-0.3867187 0.09375,0 0.1992187,0.046875 0.3046875,0.1523437 0.046875,0.046875 0.1171875,0.046875 0.1992187,0 0.082031,-0.070312 0.1640625,-0.1523437 0.234375,-0.2695312 0.070312,-0.1171875 0.070312,-0.2695313 0,-0.3867188 -0.070312,-0.1171875 -0.234375,-0.2226562 -0.3867187,-0.2226562 -0.3515625,0 -0.890625,0.609375 -1.3476563,1.5 h -0.023437 l 0.09375,-0.4570313 c 0.1289063,-0.6328125 0.1171875,-1.0429687 -0.1054687,-1.0429687 -0.2460938,0 -0.79687503,0.375 -1.25390628,0.8789062 z M 38.609567,24.872925 c -1.59375,0 -2.613281,2.671875 -2.613281,4.558594 0,0.9375 0.257812,1.957031 1.265625,1.957031 1.617187,0 2.566406,-2.695312 2.566406,-4.617187 0,-0.972657 -0.257812,-1.898438 -1.21875,-1.898438 z m -1.699219,2.917969 c 0.269532,-1.347656 0.84375,-2.613281 1.570313,-2.613281 0.585937,0 0.644531,0.890625 0.644531,1.371093 0,0.410157 -0.05859,0.796875 -0.105469,1.242188 z m 2.039063,0.421875 c -0.246094,1.429687 -0.820313,2.859375 -1.570313,2.859375 -0.527343,0 -0.667968,-0.773438 -0.667968,-1.476563 0,-0.46875 0.05859,-0.925781 0.128906,-1.382812 z m 11.493164,-4.623047 c -1.59375,0 -2.613281,2.671875 -2.613281,4.558594 0,0.9375 0.257812,1.957031 1.265625,1.957031 1.617187,0 2.566406,-2.695313 2.566406,-4.617188 0,-0.972656 -0.257813,-1.898437 -1.21875,-1.898437 z m -1.699219,2.917969 c 0.269531,-1.347657 0.84375,-2.613282 1.570313,-2.613282 0.585937,0 0.644531,0.890625 0.644531,1.371094 0,0.410156 -0.05859,0.796875 -0.105469,1.242188 z m 2.039063,0.421875 c -0.246094,1.429687 -0.820313,2.859375 -1.570313,2.859375 -0.527344,0 -0.667969,-0.773438 -0.667969,-1.476563 0,-0.46875 0.05859,-0.925781 0.128907,-1.382812 z m 37.737304,0.720703 c -1.59375,0 -2.613281,2.671875 -2.613281,4.558594 0,0.9375 0.257813,1.957031 1.265625,1.957031 1.617188,0 2.566406,-2.695313 2.566406,-4.617188 0,-0.972656 -0.257812,-1.898437 -1.21875,-1.898437 z m -1.699218,2.917969 c 0.269531,-1.347657 0.84375,-2.613282 1.570312,-2.613282 0.585938,0 0.644531,0.890625 0.644531,1.371094 0,0.410156 -0.05859,0.796875 -0.105468,1.242188 z m 2.039062,0.421875 c -0.246094,1.429687 -0.820312,2.859375 -1.570312,2.859375 -0.527344,0 -0.667969,-0.773438 -0.667969,-1.476563 0,-0.46875 0.05859,-0.925781 0.128906,-1.382812 z m 0,0"
           style="fill:#231f20;fill-opacity:1;fill-rule:nonzero;stroke:none" />
        <path
           id="path3"
           d="M 90.467966,30.521363 91.077341,29.2323 c 0.175781,-0.386719 0.28125,-0.621094 0.316406,-0.738281 0.03516,-0.08203 0.04687,-0.152344 0.04687,-0.222656 0,-0.09375 -0.02344,-0.164063 -0.08203,-0.222657 -0.07031,-0.05859 -0.152344,-0.09375 -0.257813,-0.09375 -0.128906,0 -0.246094,0.03516 -0.339844,0.117188 -0.105468,0.08203 -0.175781,0.222656 -0.234375,0.398437 -0.03516,0.128907 -0.08203,0.375 -0.117187,0.761719 l -0.140625,1.289063 z m 0,0"
           style="fill:#231f20;fill-opacity:1;fill-rule:nonzero;stroke:none" />
        <path
           id="path4"
           d="m 98.252145,29.79187 c -1.59375,0 -2.613281,2.671875 -2.613281,4.558594 0,0.9375 0.257813,1.957031 1.265625,1.957031 1.617188,0 2.566406,-2.695312 2.566406,-4.617187 0,-0.972656 -0.257812,-1.898438 -1.21875,-1.898438 z m -1.699218,2.917969 c 0.269531,-1.347656 0.84375,-2.613281 1.570312,-2.613281 0.585938,0 0.644531,0.890625 0.644531,1.371094 0,0.410156 -0.05859,0.796875 -0.105468,1.242187 z m 2.039062,0.421875 c -0.246094,1.429688 -0.820312,2.859375 -1.570312,2.859375 -0.527344,0 -0.667969,-0.773437 -0.667969,-1.476562 0,-0.46875 0.05859,-0.925782 0.128906,-1.382813 z m 0,0"
           style="fill:#231f20;fill-opacity:1;fill-rule:nonzero;stroke:none" />
        <path
           id="path5"
           d="m 100.20039,32.662964 0.60937,-1.289062 c 0.17578,-0.386719 0.28125,-0.621094 0.31641,-0.738282 0.0352,-0.08203 0.0469,-0.152343 0.0469,-0.222656 0,-0.09375 -0.0234,-0.164062 -0.082,-0.222656 -0.0703,-0.05859 -0.15234,-0.09375 -0.25781,-0.09375 -0.12891,0 -0.24609,0.03516 -0.33984,0.117187 -0.10547,0.08203 -0.17578,0.222657 -0.23438,0.398438 -0.0351,0.128906 -0.082,0.375 -0.11719,0.761719 l -0.14062,1.289062 z m 0,0"
           style="fill:#231f20;fill-opacity:1;fill-rule:nonzero;stroke:none" />
        <path
           id="path6"
           d="m 72.213083,-17.285278 c 0.269531,-0.246094 0.550781,-0.433594 0.632812,-0.433594 0.07031,0 0.07031,0.09375 0.02344,0.386719 -0.175781,0.960937 -0.421875,2.074219 -0.65625,3.035156 l 0.07031,0.07031 c 0.199219,-0.07031 0.433594,-0.128907 0.632813,-0.164063 0.117187,-0.585937 0.222656,-1.160156 0.363281,-1.757812 0.164063,-0.410157 0.445313,-0.832032 0.644531,-1.113282 0.199219,-0.292968 0.339844,-0.386718 0.457032,-0.386718 0.09375,0 0.199218,0.04687 0.304687,0.152343 0.04687,0.04687 0.117188,0.04687 0.199219,0 0.08203,-0.07031 0.164062,-0.152343 0.234375,-0.269531 0.07031,-0.117187 0.07031,-0.269531 0,-0.386719 -0.07031,-0.117187 -0.234375,-0.222656 -0.386719,-0.222656 -0.351562,0 -0.890625,0.609375 -1.347656,1.5 h -0.02344 l 0.09375,-0.457031 c 0.128907,-0.632813 0.117188,-1.042969 -0.105468,-1.042969 -0.246094,0 -0.796875,0.375 -1.253907,0.878906 z m 0,0"
           style="fill:#231f20;fill-opacity:1;fill-rule:nonzero;stroke:none" />
        <path
           id="path7"
           d="m 75.743356,-17.871216 0.609375,-1.289062 c 0.175782,-0.386719 0.28125,-0.621094 0.316407,-0.738281 0.03516,-0.08203 0.04687,-0.152344 0.04687,-0.222657 0,-0.09375 -0.02344,-0.164062 -0.08203,-0.222656 -0.07031,-0.05859 -0.152343,-0.09375 -0.257812,-0.09375 -0.128906,0 -0.246094,0.03516 -0.339844,0.117188 -0.105469,0.08203 -0.175781,0.222656 -0.234375,0.398437 -0.03516,0.128906 -0.08203,0.375 -0.117187,0.761719 l -0.140625,1.289062 z m 0,0"
           style="fill:#231f20;fill-opacity:1;fill-rule:nonzero;stroke:none" />
      </g>
      <path
         id="path8"
         d="M 1322.18,2.13281 C 996.566,200.219 613.07,278.012 244.988,210.723"
         style="fill:none;stroke:#231f20;stroke-width:5;stroke-linecap:butt;stroke-linejoin:miter;stroke-miterlimit:10;stroke-dasharray:none;stroke-opacity:1"
         transform="matrix(0.13333333,0,0,-0.13333333,0,124.09333)" />
      <path
         id="path9"
         d="m 198.086,540.543 7.305,-6.832"
         style="fill:none;stroke:#231f20;stroke-width:5;stroke-linecap:butt;stroke-linejoin:miter;stroke-miterlimit:10;stroke-dasharray:none;stroke-opacity:1"
         transform="matrix(0.13333333,0,0,-0.13333333,0,124.09333)" />
      <path
         id="path10"
         d="M 220.395,519.684 512.973,246.094"
         style="fill:none;stroke:#231f20;stroke-width:5;stroke-linecap:butt;stroke-linejoin:miter;stroke-miterlimit:10;stroke-dasharray:20.5417, 20.5417;stroke-dashoffset:0;stroke-opacity:1"
         transform="matrix(0.13333333,0,0,-0.13333333,0,124.09333)" />
      <path
         id="path11"
         d="m 520.473,239.082 7.304,-6.832"
         style="fill:none;stroke:#231f20;stroke-width:5;stroke-linecap:butt;stroke-linejoin:miter;stroke-miterlimit:10;stroke-dasharray:none;stroke-opacity:1"
         transform="matrix(0.13333333,0,0,-0.13333333,0,124.09333)" />
      <path
         id="path12"
         d="M 2.5625,723.375 162.359,573.949"
         style="fill:none;stroke:#231f20;stroke-width:7.5;stroke-linecap:butt;stroke-linejoin:miter;stroke-miterlimit:10;stroke-dasharray:none;stroke-opacity:1"
         transform="matrix(0.13333333,0,0,-0.13333333,0,124.09333)" />
      <path
         id="path13"
         d="m 154.492,581.305 5.16,24.773 0.875,-0.148 16.188,-34.305 c 7.125,-10.359 14.246,-20.723 21.371,-31.082 -10.816,6.414 -21.633,12.832 -32.445,19.242 l -35.313,13.848 -0.289,0.777 24.453,6.895"
         style="fill:#231f20;fill-opacity:1;fill-rule:nonzero;stroke:none"
         transform="matrix(0.13333333,0,0,-0.13333333,0,124.09333)" />
      <path
         id="path14"
         d="M 666.621,403.297 530.191,232.008"
         style="fill:none;stroke:#231f20;stroke-width:7.5;stroke-linecap:butt;stroke-linejoin:miter;stroke-miterlimit:10;stroke-dasharray:none;stroke-opacity:1"
         transform="matrix(0.13333333,0,0,-0.13333333,0,124.09333)" />
      <path
         id="path15"
         d="m 659.91,394.871 8.719,-23.754 0.844,0.274 11.011,36.297 c 5.536,11.292 11.075,22.582 16.61,33.871 -9.766,-7.926 -19.528,-15.852 -29.297,-23.77 l -32.91,-18.848 -0.168,-0.812 25.191,-3.258"
         style="fill:#231f20;fill-opacity:1;fill-rule:nonzero;stroke:none"
         transform="matrix(0.13333333,0,0,-0.13333333,0,124.09333)" />
      <path
         id="path16"
         d="M 527.727,233.688 490.094,747.086"
         style="fill:none;stroke:#231f20;stroke-width:7.5;stroke-linecap:butt;stroke-linejoin:miter;stroke-miterlimit:10;stroke-dasharray:none;stroke-opacity:1"
         transform="matrix(0.13333333,0,0,-0.13333333,0,124.09333)" />
      <path
         id="path17"
         d="m 490.883,736.344 -20.602,-14.692 -0.539,0.703 11.387,36.176 c 1.797,12.446 3.594,24.891 5.391,37.336 3.593,-12.047 7.179,-24.097 10.777,-36.148 l 16.543,-34.133 -0.32,-0.766 -22.637,11.524"
         style="fill:#231f20;fill-opacity:1;fill-rule:nonzero;stroke:none"
         transform="matrix(0.13333333,0,0,-0.13333333,0,124.09333)" />
      <path
         id="path18"
         d="m 430.969,323.004 c 21.711,23.262 51.902,38.715 86.136,41.219 35.274,2.59 68.305,-9.051 93.477,-30.047"
         style="fill:none;stroke:#231f20;stroke-width:5;stroke-linecap:butt;stroke-linejoin:miter;stroke-miterlimit:10;stroke-dasharray:none;stroke-opacity:1"
         transform="matrix(0.13333333,0,0,-0.13333333,0,124.09333)" />
      <path
         id="path19"
         d="M 968.941,170.914 1106.37,668.098"
         style="fill:none;stroke:#231f20;stroke-width:7.5;stroke-linecap:butt;stroke-linejoin:miter;stroke-miterlimit:10;stroke-dasharray:none;stroke-opacity:1"
         transform="matrix(0.13333333,0,0,-0.13333333,0,124.09333)" />
      <path
         id="path20"
         d="m 1103.5,657.719 -24.34,-6.914 -0.28,0.84 22.89,30.246 c 5.88,11.117 11.75,22.234 17.63,33.351 -0.67,-12.554 -1.34,-25.109 -2,-37.668 l 4.1,-37.707 -0.55,-0.613 -17.45,18.465"
         style="fill:#231f20;fill-opacity:1;fill-rule:nonzero;stroke:none"
         transform="matrix(0.13333333,0,0,-0.13333333,0,124.09333)" />
      <path
         id="path21"
         d="m 835.105,645.984 2.661,-9.636"
         style="fill:none;stroke:#231f20;stroke-width:5;stroke-linecap:butt;stroke-linejoin:miter;stroke-miterlimit:10;stroke-dasharray:none;stroke-opacity:1"
         transform="matrix(0.13333333,0,0,-0.13333333,0,124.09333)" />
      <path
         id="path22"
         d="M 843.262,616.398 961.469,187.488"
         style="fill:none;stroke:#231f20;stroke-width:5;stroke-linecap:butt;stroke-linejoin:miter;stroke-miterlimit:10;stroke-dasharray:20.6929, 20.6929;stroke-dashoffset:0;stroke-opacity:1"
         transform="matrix(0.13333333,0,0,-0.13333333,0,124.09333)" />
      <path
         id="path23"
         d="m 964.219,177.516 2.656,-9.641"
         style="fill:none;stroke:#231f20;stroke-width:5;stroke-linecap:butt;stroke-linejoin:miter;stroke-miterlimit:10;stroke-dasharray:none;stroke-opacity:1"
         transform="matrix(0.13333333,0,0,-0.13333333,0,124.09333)" />
      <path
         id="path24"
         d="M 757.383,929.68 822.109,694.809"
         style="fill:none;stroke:#231f20;stroke-width:7.5;stroke-linecap:butt;stroke-linejoin:miter;stroke-miterlimit:10;stroke-dasharray:none;stroke-opacity:1"
         transform="matrix(0.13333333,0,0,-0.13333333,0,124.09333)" />
      <path
         id="path25"
         d="m 819.246,705.191 17.352,18.418 0.668,-0.582 -4.129,-37.699 c 0.656,-12.558 1.316,-25.117 1.968,-37.676 -5.867,11.121 -11.73,22.246 -17.601,33.364 l -22.863,30.261 0.16,0.813 24.445,-6.899"
         style="fill:#231f20;fill-opacity:1;fill-rule:nonzero;stroke:none"
         transform="matrix(0.13333333,0,0,-0.13333333,0,124.09333)" />
      <path
         id="path26"
         d="M 1120.3,314.434 966.875,167.875"
         style="fill:none;stroke:#231f20;stroke-width:7.5;stroke-linecap:butt;stroke-linejoin:miter;stroke-miterlimit:10;stroke-dasharray:none;stroke-opacity:1"
         transform="matrix(0.13333333,0,0,-0.13333333,0,124.09333)" />
      <path
         id="path27"
         d="m 1112.51,306.992 5.42,-24.715 0.88,0.157 15.81,34.468 c 7.02,10.442 14.04,20.875 21.05,31.317 -10.75,-6.528 -21.5,-13.063 -32.24,-19.586 l -35.16,-14.231 -0.28,-0.773 24.52,-6.637"
         style="fill:#231f20;fill-opacity:1;fill-rule:nonzero;stroke:none"
         transform="matrix(0.13333333,0,0,-0.13333333,0,124.09333)" />
      <path
         id="path28"
         d="m 929.254,309.883 c 25.059,7.047 52.293,7.558 79.216,0.117 25.68,-7.098 47.88,-20.547 65.39,-38.184"
         style="fill:none;stroke:#231f20;stroke-width:5;stroke-linecap:butt;stroke-linejoin:miter;stroke-miterlimit:10;stroke-dasharray:none;stroke-opacity:1"
         transform="matrix(0.13333333,0,0,-0.13333333,0,124.09333)" />
      <path
         id="path29"
         d="m 545.277,232.25 c 0,-9.66 -7.836,-17.5 -17.5,-17.5 -9.664,0 -17.5,7.84 -17.5,17.5 0,9.664 7.836,17.5 17.5,17.5 9.664,0 17.5,-7.836 17.5,-17.5"
         style="fill:#231f20;fill-opacity:1;fill-rule:nonzero;stroke:none"
         transform="matrix(0.13333333,0,0,-0.13333333,0,124.09333)" />
      <path
         id="path30"
         d="m 984.375,167.875 c 0,-9.66 -7.836,-17.5 -17.5,-17.5 -9.664,0 -17.5,7.84 -17.5,17.5 0,9.664 7.836,17.5 17.5,17.5 9.664,0 17.5,-7.836 17.5,-17.5"
         style="fill:#231f20;fill-opacity:1;fill-rule:nonzero;stroke:none"
         transform="matrix(0.13333333,0,0,-0.13333333,0,124.09333)" />
    </g>
  </g>
</svg>
