<?xml version="1.0" encoding="UTF-8" standalone="no"?>
<!-- Created with Inkscape (http://www.inkscape.org/) -->

<svg
   version="1.1"
   id="svg1"
   width="385.65332"
   height="97.693336"
   viewBox="0 0 385.65332 97.693336"
   sodipodi:docname="pha10f17.eps"
   xmlns:inkscape="http://www.inkscape.org/namespaces/inkscape"
   xmlns:sodipodi="http://sodipodi.sourceforge.net/DTD/sodipodi-0.dtd"
   xmlns="http://www.w3.org/2000/svg"
   xmlns:svg="http://www.w3.org/2000/svg">
  <defs
     id="defs1" />
  <sodipodi:namedview
     id="namedview1"
     pagecolor="#ffffff"
     bordercolor="#000000"
     borderopacity="0.25"
     inkscape:showpageshadow="2"
     inkscape:pageopacity="0.0"
     inkscape:pagecheckerboard="0"
     inkscape:deskcolor="#d1d1d1">
    <inkscape:page
       x="0"
       y="0"
       inkscape:label="1"
       id="page1"
       width="385.65332"
       height="97.693336"
       margin="0"
       bleed="0" />
  </sodipodi:namedview>
  <g
     id="g1"
     inkscape:groupmode="layer"
     inkscape:label="1">
    <g
       id="group-R5">
      <path
         id="path2"
         d="M 725.953,6.78516 H 2.5 V 730.242 h 723.453 z"
         style="fill:none;stroke:#231f20;stroke-width:5;stroke-linecap:butt;stroke-linejoin:miter;stroke-miterlimit:10;stroke-dasharray:none;stroke-opacity:1"
         transform="matrix(0.13333333,0,0,-0.13333333,0,97.693333)" />
      <path
         id="path3"
         d="m 55.2148,641.172 c 0,14.051 11.3907,25.449 25.4493,25.449 14.0547,0 25.4489,-11.398 25.4489,-25.449 0,-14.055 -11.3942,-25.449 -25.4489,-25.449 -14.0586,0 -25.4493,11.394 -25.4493,25.449 z"
         style="fill:none;stroke:#231f20;stroke-width:5;stroke-linecap:butt;stroke-linejoin:miter;stroke-miterlimit:10;stroke-dasharray:none;stroke-opacity:1"
         transform="matrix(0.13333333,0,0,-0.13333333,0,97.693333)" />
      <path
         id="path4"
         d="m 411.484,641.172 c 0,14.051 11.399,25.449 25.45,25.449 14.05,0 25.449,-11.398 25.449,-25.449 0,-14.055 -11.399,-25.449 -25.449,-25.449 -14.051,0 -25.45,11.394 -25.45,25.449 z"
         style="fill:none;stroke:#231f20;stroke-width:5;stroke-linecap:butt;stroke-linejoin:miter;stroke-miterlimit:10;stroke-dasharray:none;stroke-opacity:1"
         transform="matrix(0.13333333,0,0,-0.13333333,0,97.693333)" />
      <path
         id="path5"
         d="m 233.352,641.172 c 0,14.051 11.394,25.449 25.449,25.449 14.051,0 25.445,-11.398 25.445,-25.449 0,-14.055 -11.394,-25.449 -25.445,-25.449 -14.055,0 -25.449,11.394 -25.449,25.449 z"
         style="fill:none;stroke:#231f20;stroke-width:5;stroke-linecap:butt;stroke-linejoin:miter;stroke-miterlimit:10;stroke-dasharray:none;stroke-opacity:1"
         transform="matrix(0.13333333,0,0,-0.13333333,0,97.693333)" />
      <path
         id="path6"
         d="m 589.625,641.172 c 0,14.051 11.391,25.449 25.441,25.449 14.059,0 25.454,-11.398 25.454,-25.449 0,-14.055 -11.395,-25.449 -25.454,-25.449 -14.05,0 -25.441,11.394 -25.441,25.449 z"
         style="fill:none;stroke:#231f20;stroke-width:5;stroke-linecap:butt;stroke-linejoin:miter;stroke-miterlimit:10;stroke-dasharray:none;stroke-opacity:1"
         transform="matrix(0.13333333,0,0,-0.13333333,0,97.693333)" />
      <path
         id="path7"
         d="m 55.2148,103.137 c 0,14.051 11.3907,25.437 25.4493,25.437 14.0547,0 25.4489,-11.386 25.4489,-25.437 0,-14.0667 -11.3942,-25.4534 -25.4489,-25.4534 -14.0586,0 -25.4493,11.3867 -25.4493,25.4534 z"
         style="fill:none;stroke:#231f20;stroke-width:5;stroke-linecap:butt;stroke-linejoin:miter;stroke-miterlimit:10;stroke-dasharray:none;stroke-opacity:1"
         transform="matrix(0.13333333,0,0,-0.13333333,0,97.693333)" />
      <path
         id="path8"
         d="m 411.484,103.137 c 0,14.051 11.399,25.437 25.45,25.437 14.05,0 25.449,-11.386 25.449,-25.437 0,-14.0667 -11.399,-25.4534 -25.449,-25.4534 -14.051,0 -25.45,11.3867 -25.45,25.4534 z"
         style="fill:none;stroke:#231f20;stroke-width:5;stroke-linecap:butt;stroke-linejoin:miter;stroke-miterlimit:10;stroke-dasharray:none;stroke-opacity:1"
         transform="matrix(0.13333333,0,0,-0.13333333,0,97.693333)" />
      <path
         id="path9"
         d="m 233.352,103.137 c 0,14.051 11.394,25.437 25.449,25.437 14.051,0 25.445,-11.386 25.445,-25.437 0,-14.0667 -11.394,-25.4534 -25.445,-25.4534 -14.055,0 -25.449,11.3867 -25.449,25.4534 z"
         style="fill:none;stroke:#231f20;stroke-width:5;stroke-linecap:butt;stroke-linejoin:miter;stroke-miterlimit:10;stroke-dasharray:none;stroke-opacity:1"
         transform="matrix(0.13333333,0,0,-0.13333333,0,97.693333)" />
      <path
         id="path10"
         d="m 589.625,103.137 c 0,14.051 11.391,25.437 25.441,25.437 14.059,0 25.454,-11.386 25.454,-25.437 0,-14.0667 -11.395,-25.4534 -25.454,-25.4534 -14.05,0 -25.441,11.3867 -25.441,25.4534 z"
         style="fill:none;stroke:#231f20;stroke-width:5;stroke-linecap:butt;stroke-linejoin:miter;stroke-miterlimit:10;stroke-dasharray:none;stroke-opacity:1"
         transform="matrix(0.13333333,0,0,-0.13333333,0,97.693333)" />
      <path
         id="path11"
         d="m 55.2148,461.824 c 0,14.055 11.3907,25.449 25.4493,25.449 14.0547,0 25.4489,-11.394 25.4489,-25.449 0,-14.051 -11.3942,-25.445 -25.4489,-25.445 -14.0586,0 -25.4493,11.394 -25.4493,25.445 z"
         style="fill:none;stroke:#231f20;stroke-width:5;stroke-linecap:butt;stroke-linejoin:miter;stroke-miterlimit:10;stroke-dasharray:none;stroke-opacity:1"
         transform="matrix(0.13333333,0,0,-0.13333333,0,97.693333)" />
      <path
         id="path12"
         d="m 411.484,461.824 c 0,14.055 11.399,25.449 25.45,25.449 14.05,0 25.449,-11.394 25.449,-25.449 0,-14.051 -11.399,-25.445 -25.449,-25.445 -14.051,0 -25.45,11.394 -25.45,25.445 z"
         style="fill:none;stroke:#231f20;stroke-width:5;stroke-linecap:butt;stroke-linejoin:miter;stroke-miterlimit:10;stroke-dasharray:none;stroke-opacity:1"
         transform="matrix(0.13333333,0,0,-0.13333333,0,97.693333)" />
      <path
         id="path13"
         d="m 233.352,461.824 c 0,14.055 11.394,25.449 25.449,25.449 14.051,0 25.445,-11.394 25.445,-25.449 0,-14.051 -11.394,-25.445 -25.445,-25.445 -14.055,0 -25.449,11.394 -25.449,25.445 z"
         style="fill:none;stroke:#231f20;stroke-width:5;stroke-linecap:butt;stroke-linejoin:miter;stroke-miterlimit:10;stroke-dasharray:none;stroke-opacity:1"
         transform="matrix(0.13333333,0,0,-0.13333333,0,97.693333)" />
      <path
         id="path14"
         d="m 589.625,461.824 c 0,14.055 11.391,25.449 25.441,25.449 14.059,0 25.454,-11.394 25.454,-25.449 0,-14.051 -11.395,-25.445 -25.454,-25.445 -14.05,0 -25.441,11.394 -25.441,25.445 z"
         style="fill:none;stroke:#231f20;stroke-width:5;stroke-linecap:butt;stroke-linejoin:miter;stroke-miterlimit:10;stroke-dasharray:none;stroke-opacity:1"
         transform="matrix(0.13333333,0,0,-0.13333333,0,97.693333)" />
      <path
         id="path15"
         d="m 55.2148,282.48 c 0,14.051 11.3907,25.45 25.4493,25.45 14.0547,0 25.4489,-11.399 25.4489,-25.45 0,-14.05 -11.3942,-25.449 -25.4489,-25.449 -14.0586,0 -25.4493,11.399 -25.4493,25.449 z"
         style="fill:none;stroke:#231f20;stroke-width:5;stroke-linecap:butt;stroke-linejoin:miter;stroke-miterlimit:10;stroke-dasharray:none;stroke-opacity:1"
         transform="matrix(0.13333333,0,0,-0.13333333,0,97.693333)" />
      <path
         id="path16"
         d="m 411.484,282.48 c 0,14.051 11.399,25.45 25.45,25.45 14.05,0 25.449,-11.399 25.449,-25.45 0,-14.05 -11.399,-25.449 -25.449,-25.449 -14.051,0 -25.45,11.399 -25.45,25.449 z"
         style="fill:none;stroke:#231f20;stroke-width:5;stroke-linecap:butt;stroke-linejoin:miter;stroke-miterlimit:10;stroke-dasharray:none;stroke-opacity:1"
         transform="matrix(0.13333333,0,0,-0.13333333,0,97.693333)" />
      <path
         id="path17"
         d="m 233.352,282.48 c 0,14.051 11.394,25.45 25.449,25.45 14.051,0 25.445,-11.399 25.445,-25.45 0,-14.05 -11.394,-25.449 -25.445,-25.449 -14.055,0 -25.449,11.399 -25.449,25.449 z"
         style="fill:none;stroke:#231f20;stroke-width:5;stroke-linecap:butt;stroke-linejoin:miter;stroke-miterlimit:10;stroke-dasharray:none;stroke-opacity:1"
         transform="matrix(0.13333333,0,0,-0.13333333,0,97.693333)" />
      <path
         id="path18"
         d="m 589.625,282.48 c 0,14.051 11.391,25.45 25.441,25.45 14.059,0 25.454,-11.399 25.454,-25.45 0,-14.05 -11.395,-25.449 -25.454,-25.449 -14.05,0 -25.441,11.399 -25.441,25.449 z"
         style="fill:none;stroke:#231f20;stroke-width:5;stroke-linecap:butt;stroke-linejoin:miter;stroke-miterlimit:10;stroke-dasharray:none;stroke-opacity:1"
         transform="matrix(0.13333333,0,0,-0.13333333,0,97.693333)" />
      <path
         id="path19"
         d="m 367.637,410.145 c 0,17.179 13.926,31.105 31.097,31.105 17.172,0 31.102,-13.926 31.102,-31.105 0,-17.168 -13.93,-31.09 -31.102,-31.09 -17.171,0 -31.097,13.922 -31.097,31.09"
         style="fill:#231f20;fill-opacity:1;fill-rule:nonzero;stroke:none"
         transform="matrix(0.13333333,0,0,-0.13333333,0,97.693333)" />
      <path
         id="path20"
         d="M 398.535,665.996 V 155.215"
         style="fill:none;stroke:#231f20;stroke-width:10;stroke-linecap:butt;stroke-linejoin:miter;stroke-miterlimit:10;stroke-dasharray:none;stroke-opacity:1"
         transform="matrix(0.13333333,0,0,-0.13333333,0,97.693333)" />
      <path
         id="path21"
         d="M 154.277,408.523 H 641.426"
         style="fill:none;stroke:#231f20;stroke-width:10;stroke-linecap:butt;stroke-linejoin:miter;stroke-miterlimit:10;stroke-dasharray:none;stroke-opacity:1"
         transform="matrix(0.13333333,0,0,-0.13333333,0,97.693333)" />
      <path
         id="path22"
         d="M 642.109,157.031 H 153.145 v 508.965 h 488.964 z"
         style="fill:none;stroke:#231f20;stroke-width:5;stroke-linecap:butt;stroke-linejoin:miter;stroke-miterlimit:10;stroke-dasharray:20, 20;stroke-dashoffset:0;stroke-opacity:1"
         transform="matrix(0.13333333,0,0,-0.13333333,0,97.693333)" />
      <path
         id="path23"
         d="m 1240.17,545.449 c 0,14.055 11.38,25.449 25.44,25.449 14.06,0 25.45,-11.394 25.45,-25.449 0,-14.054 -11.39,-25.449 -25.45,-25.449 -14.06,0 -25.44,11.395 -25.44,25.449 z"
         style="fill:none;stroke:#231f20;stroke-width:5;stroke-linecap:butt;stroke-linejoin:miter;stroke-miterlimit:10;stroke-dasharray:none;stroke-opacity:1"
         transform="matrix(0.13333333,0,0,-0.13333333,0,97.693333)" />
      <path
         id="path24"
         d="M 1810.62,4.48047 H 1087.16 V 727.93 h 723.46 z"
         style="fill:none;stroke:#231f20;stroke-width:5;stroke-linecap:butt;stroke-linejoin:miter;stroke-miterlimit:10;stroke-dasharray:none;stroke-opacity:1"
         transform="matrix(0.13333333,0,0,-0.13333333,0,97.693333)" />
      <path
         id="path25"
         d="m 1452.29,407.844 c 0,17.168 13.93,31.09 31.11,31.09 17.17,0 31.09,-13.922 31.09,-31.09 0,-17.18 -13.92,-31.106 -31.09,-31.106 -17.18,0 -31.11,13.926 -31.11,31.106"
         style="fill:#231f20;fill-opacity:1;fill-rule:nonzero;stroke:none"
         transform="matrix(0.13333333,0,0,-0.13333333,0,97.693333)" />
      <path
         id="path26"
         d="M 1483.19,663.68 V 152.898"
         style="fill:none;stroke:#231f20;stroke-width:10;stroke-linecap:butt;stroke-linejoin:miter;stroke-miterlimit:10;stroke-dasharray:none;stroke-opacity:1"
         transform="matrix(0.13333333,0,0,-0.13333333,0,97.693333)" />
      <path
         id="path27"
         d="m 1238.94,406.211 h 487.14"
         style="fill:none;stroke:#231f20;stroke-width:10;stroke-linecap:butt;stroke-linejoin:miter;stroke-miterlimit:10;stroke-dasharray:none;stroke-opacity:1"
         transform="matrix(0.13333333,0,0,-0.13333333,0,97.693333)" />
      <path
         id="path28"
         d="M 1726.77,154.727 H 1237.8 V 663.68 h 488.97 z"
         style="fill:none;stroke:#231f20;stroke-width:5;stroke-linecap:butt;stroke-linejoin:miter;stroke-miterlimit:10;stroke-dasharray:20, 20;stroke-dashoffset:0;stroke-opacity:1"
         transform="matrix(0.13333333,0,0,-0.13333333,0,97.693333)" />
      <path
         id="path29"
         d="m 1242.41,185.684 c 0,14.05 11.4,25.449 25.45,25.449 14.05,0 25.45,-11.399 25.45,-25.449 0,-14.051 -11.4,-25.45 -25.45,-25.45 -14.05,0 -25.45,11.399 -25.45,25.45 z"
         style="fill:none;stroke:#231f20;stroke-width:5;stroke-linecap:butt;stroke-linejoin:miter;stroke-miterlimit:10;stroke-dasharray:none;stroke-opacity:1"
         transform="matrix(0.13333333,0,0,-0.13333333,0,97.693333)" />
      <path
         id="path30"
         d="m 1603.11,546.824 c 0,14.055 11.39,25.442 25.44,25.442 14.06,0 25.44,-11.387 25.44,-25.442 0,-14.058 -11.38,-25.445 -25.44,-25.445 -14.05,0 -25.44,11.387 -25.44,25.445 z"
         style="fill:none;stroke:#231f20;stroke-width:5;stroke-linecap:butt;stroke-linejoin:miter;stroke-miterlimit:10;stroke-dasharray:none;stroke-opacity:1"
         transform="matrix(0.13333333,0,0,-0.13333333,0,97.693333)" />
      <path
         id="path31"
         d="m 1602.05,184.813 c 0,14.054 11.4,25.453 25.45,25.453 14.05,0 25.45,-11.399 25.45,-25.453 0,-14.051 -11.4,-25.45 -25.45,-25.45 -14.05,0 -25.45,11.399 -25.45,25.45 z"
         style="fill:none;stroke:#231f20;stroke-width:5;stroke-linecap:butt;stroke-linejoin:miter;stroke-miterlimit:10;stroke-dasharray:none;stroke-opacity:1"
         transform="matrix(0.13333333,0,0,-0.13333333,0,97.693333)" />
      <path
         id="path32"
         d="m 2889.86,2.5 h -723.44 v 723.457 h 723.44 z"
         style="fill:none;stroke:#231f20;stroke-width:5;stroke-linecap:butt;stroke-linejoin:miter;stroke-miterlimit:10;stroke-dasharray:none;stroke-opacity:1"
         transform="matrix(0.13333333,0,0,-0.13333333,0,97.693333)" />
      <path
         id="path33"
         d="m 2531.55,405.859 c 0,17.176 13.93,31.094 31.1,31.094 17.17,0 31.1,-13.918 31.1,-31.094 0,-17.179 -13.93,-31.101 -31.1,-31.101 -17.17,0 -31.1,13.922 -31.1,31.101"
         style="fill:#231f20;fill-opacity:1;fill-rule:nonzero;stroke:none"
         transform="matrix(0.13333333,0,0,-0.13333333,0,97.693333)" />
      <path
         id="path34"
         d="M 2562.45,661.699 V 150.93"
         style="fill:none;stroke:#231f20;stroke-width:10;stroke-linecap:butt;stroke-linejoin:miter;stroke-miterlimit:10;stroke-dasharray:none;stroke-opacity:1"
         transform="matrix(0.13333333,0,0,-0.13333333,0,97.693333)" />
      <path
         id="path35"
         d="m 2318.19,404.238 h 487.15"
         style="fill:none;stroke:#231f20;stroke-width:10;stroke-linecap:butt;stroke-linejoin:miter;stroke-miterlimit:10;stroke-dasharray:none;stroke-opacity:1"
         transform="matrix(0.13333333,0,0,-0.13333333,0,97.693333)" />
      <path
         id="path36"
         d="m 2806.03,152.742 h -488.97 v 508.957 h 488.97 z"
         style="fill:none;stroke:#231f20;stroke-width:5;stroke-linecap:butt;stroke-linejoin:miter;stroke-miterlimit:10;stroke-dasharray:20, 20;stroke-dashoffset:0;stroke-opacity:1"
         transform="matrix(0.13333333,0,0,-0.13333333,0,97.693333)" />
      <path
         id="path37"
         d="m 2502.15,363.711 c 0,14.062 11.39,25.449 25.45,25.449 14.05,0 25.45,-11.387 25.45,-25.449 0,-14.055 -11.4,-25.449 -25.45,-25.449 -14.06,0 -25.45,11.394 -25.45,25.449 z"
         style="fill:none;stroke:#231f20;stroke-width:5;stroke-linecap:butt;stroke-linejoin:miter;stroke-miterlimit:10;stroke-dasharray:none;stroke-opacity:1"
         transform="matrix(0.13333333,0,0,-0.13333333,0,97.693333)" />
    </g>
  </g>
</svg>
