<?xml version="1.0" encoding="UTF-8" standalone="no"?>
<!-- Created with Inkscape (http://www.inkscape.org/) -->

<svg
   version="1.1"
   id="svg1"
   width="350.78668"
   height="275.93332"
   viewBox="0 0 350.78668 275.93332"
   sodipodi:docname="pha15f05.eps"
   xmlns:inkscape="http://www.inkscape.org/namespaces/inkscape"
   xmlns:sodipodi="http://sodipodi.sourceforge.net/DTD/sodipodi-0.dtd"
   xmlns="http://www.w3.org/2000/svg"
   xmlns:svg="http://www.w3.org/2000/svg">
  <defs
     id="defs1" />
  <sodipodi:namedview
     id="namedview1"
     pagecolor="#ffffff"
     bordercolor="#000000"
     borderopacity="0.25"
     inkscape:showpageshadow="2"
     inkscape:pageopacity="0.0"
     inkscape:pagecheckerboard="0"
     inkscape:deskcolor="#d1d1d1">
    <inkscape:page
       x="0"
       y="0"
       inkscape:label="1"
       id="page1"
       width="350.78668"
       height="275.93332"
       margin="0"
       bleed="0" />
  </sodipodi:namedview>
  <g
     id="g1"
     inkscape:groupmode="layer"
     inkscape:label="1">
    <g
       id="group-R5">
      <path
         id="path2"
         d="M 2.7435781,1.3472422 C 1.8412344,0.57380469 1.3021719,-0.89103906 1.3021719,-2.4613516 c 0,-1.5703125 0.5273437,-3.046875 1.4414062,-3.796875 L 2.5795156,-6.4691641 c -1.3359375,0.9023438 -1.93359373,2.3554688 -1.93359373,3.9960938 0,1.65234374 0.59765623,3.11718749 1.93359373,4.0195312 z m 4.3652344,-1.69921876 -0.082031,-0.24609375 c -0.09375,0.0585938 -0.2226562,0.10546875 -0.3398437,0.10546875 -0.1523438,0 -0.3164063,-0.140625 -0.3164063,-0.55078124 v -1.6992188 c 0,-0.46875 -0.09375,-0.84375 -0.4101562,-1.1132812 -0.1992188,-0.1640625 -0.46875,-0.2460938 -0.75,-0.2460938 -0.515625,0.1054688 -1.1132813,0.4570313 -1.3710938,0.6445313 -0.1640625,0.1289062 -0.2929687,0.2226562 -0.2929687,0.3632812 0,0.2109375 0.2460937,0.3867188 0.4101562,0.3867188 0.1289063,0 0.2226563,-0.058594 0.2578125,-0.2109375 0.082031,-0.28125 0.1640625,-0.4804688 0.28125,-0.5976563 0.09375,-0.1054687 0.2226563,-0.1757812 0.4101563,-0.1757812 0.4570312,0 0.7617187,0.3632812 0.7617187,1.03125 v 0.1640625 c -0.1992187,0.1640625 -0.8671875,0.4101562 -1.4179687,0.5859375 -0.4921875,0.1757812 -0.7382813,0.4570312 -0.7382813,0.9023437 0,0.57421879 0.4570313,1.11328129 1.1015625,1.11328129 0.2695313,0 0.7148438,-0.328125 1.078125,-0.5859375 0.046875,0.1640625 0.09375,0.29296875 0.2109375,0.421875 C 6.00725,0.02302344 6.19475,0.10505469 6.335375,0.10505469 Z M 5.6674062,-0.76213281 c -0.1757812,0.1640625 -0.4921875,0.31640625 -0.7265625,0.328125 -0.28125,0 -0.6445312,-0.234375 -0.6445312,-0.70312499 0,-0.328125 0.1992187,-0.5039063 0.5507812,-0.6679688 0.1875,-0.09375 0.6328125,-0.28125 0.8203125,-0.3867187 z M 7.5746328,-6.2582266 c 0.9140625,0.7382813 1.4414063,2.2265625 1.4414063,3.796875 0,1.57031254 -0.5039063,3.02343754 -1.4414063,3.8085938 l 0.1757813,0.1992187 c 1.359375,-0.92578121 1.921875,-2.36718746 1.921875,-4.0078125 0,-1.6523437 -0.5625,-3.09375 -1.921875,-4.0078125 z M 2.4271719,108.03474 c -0.9023438,-0.77344 -1.44140628,-2.23828 -1.44140628,-3.80859 0,-1.57031 0.52734378,-3.04688 1.44140628,-3.79688 l -0.1640625,-0.21093 c -1.33593753,0.90234 -1.93359378,2.35546 -1.93359378,3.99609 0,1.65234 0.59765625,3.11719 1.93359378,4.01953 z M 4.226,102.99568 v -2.8125 c -0.328125,0.11719 -0.890625,0.26953 -1.3242188,0.32812 v 0.21094 c 0.5859375,0.0469 0.609375,0.10547 0.609375,0.66797 v 5.07422 c 0.5039063,0.24609 0.9609375,0.32812 1.3359375,0.32812 1.2304688,0 2.296875,-0.94921 2.296875,-2.28515 0,-1.07813 -0.8203125,-1.92188 -1.8046875,-1.92188 -0.09375,0 -0.2226562,0.0352 -0.3632812,0.0937 z m 0,0.28125 c 0.1640625,-0.10547 0.4570312,-0.17578 0.7148437,-0.17578 0.7617188,0 1.3945313,0.59765 1.3945313,1.64062 0,1.05469 -0.4804688,1.71094 -1.2421875,1.71094 -0.4804688,-0.0117 -0.75,-0.32812 -0.8085938,-0.51562 C 4.2494375,105.85505 4.226,105.7613 4.226,105.6324 Z m 3.6650391,-2.84766 c 0.9140625,0.73828 1.4414062,2.22657 1.4414062,3.79688 0,1.57031 -0.5039062,3.02344 -1.4414062,3.80859 l 0.1757812,0.19922 c 1.359375,-0.92578 1.921875,-2.36719 1.921875,-4.00781 0,-1.65235 -0.5625,-3.09375 -1.921875,-4.00781 z m 0,0"
         style="fill:#231f20;fill-opacity:1;fill-rule:nonzero;stroke:none"
         aria-label="(a)&#10;(b)"
         transform="matrix(1.3333333,0,0,1.3333333,179.36533,129.30133)" />
      <path
         id="path3"
         d="M 281.367,1239.74 H 2.5 v 171.17 h 278.867 v -171.17"
         style="fill:#e5e4e4;fill-opacity:1;fill-rule:nonzero;stroke:none"
         transform="matrix(0.13333333,0,0,-0.13333333,0,275.93333)" />
      <path
         id="path4"
         d="m 1954.36,1238.76 h -278.88 v 171.16 h 278.88 v -171.16"
         style="fill:#e5e4e4;fill-opacity:1;fill-rule:nonzero;stroke:none"
         transform="matrix(0.13333333,0,0,-0.13333333,0,275.93333)" />
      <path
         id="path5"
         d="M 2.5,1410.91 H 2512.36 V 1239.74 H 2.5 Z"
         style="fill:none;stroke:#231f20;stroke-width:5;stroke-linecap:butt;stroke-linejoin:miter;stroke-miterlimit:10;stroke-dasharray:none;stroke-opacity:1"
         transform="matrix(0.13333333,0,0,-0.13333333,0,275.93333)" />
      <path
         id="path6"
         d="M 2512.36,1410.91 V 1239.74"
         style="fill:none;stroke:#231f20;stroke-width:5;stroke-linecap:butt;stroke-linejoin:miter;stroke-miterlimit:10;stroke-dasharray:none;stroke-opacity:1"
         transform="matrix(0.13333333,0,0,-0.13333333,0,275.93333)" />
      <path
         id="path7"
         d="M 2233.49,1410.91 V 1239.74"
         style="fill:none;stroke:#231f20;stroke-width:5;stroke-linecap:butt;stroke-linejoin:miter;stroke-miterlimit:10;stroke-dasharray:none;stroke-opacity:1"
         transform="matrix(0.13333333,0,0,-0.13333333,0,275.93333)" />
      <path
         id="path8"
         d="M 1954.62,1410.91 V 1239.74"
         style="fill:none;stroke:#231f20;stroke-width:5;stroke-linecap:butt;stroke-linejoin:miter;stroke-miterlimit:10;stroke-dasharray:none;stroke-opacity:1"
         transform="matrix(0.13333333,0,0,-0.13333333,0,275.93333)" />
      <path
         id="path9"
         d="M 1675.73,1410.91 V 1239.74"
         style="fill:none;stroke:#231f20;stroke-width:5;stroke-linecap:butt;stroke-linejoin:miter;stroke-miterlimit:10;stroke-dasharray:none;stroke-opacity:1"
         transform="matrix(0.13333333,0,0,-0.13333333,0,275.93333)" />
      <path
         id="path10"
         d="M 1396.87,1410.91 V 1239.74"
         style="fill:none;stroke:#231f20;stroke-width:5;stroke-linecap:butt;stroke-linejoin:miter;stroke-miterlimit:10;stroke-dasharray:none;stroke-opacity:1"
         transform="matrix(0.13333333,0,0,-0.13333333,0,275.93333)" />
      <path
         id="path11"
         d="M 1117.99,1410.91 V 1239.74"
         style="fill:none;stroke:#231f20;stroke-width:5;stroke-linecap:butt;stroke-linejoin:miter;stroke-miterlimit:10;stroke-dasharray:none;stroke-opacity:1"
         transform="matrix(0.13333333,0,0,-0.13333333,0,275.93333)" />
      <path
         id="path12"
         d="M 839.109,1410.91 V 1239.74"
         style="fill:none;stroke:#231f20;stroke-width:5;stroke-linecap:butt;stroke-linejoin:miter;stroke-miterlimit:10;stroke-dasharray:none;stroke-opacity:1"
         transform="matrix(0.13333333,0,0,-0.13333333,0,275.93333)" />
      <path
         id="path13"
         d="M 560.242,1410.91 V 1239.74"
         style="fill:none;stroke:#231f20;stroke-width:5;stroke-linecap:butt;stroke-linejoin:miter;stroke-miterlimit:10;stroke-dasharray:none;stroke-opacity:1"
         transform="matrix(0.13333333,0,0,-0.13333333,0,275.93333)" />
      <path
         id="path14"
         d="M 281.367,1410.91 V 1239.74"
         style="fill:none;stroke:#231f20;stroke-width:5;stroke-linecap:butt;stroke-linejoin:miter;stroke-miterlimit:10;stroke-dasharray:none;stroke-opacity:1"
         transform="matrix(0.13333333,0,0,-0.13333333,0,275.93333)" />
      <g
         id="g14"
         aria-label="o.x&#10;o.y&#10;o.zd.xd.y&#10;d.z&#10;o.xo.y&#10;o.z&#10;..."
         transform="matrix(1.3333333,0,0,1.3333333,9.6895867,103.028)">
        <path
           id="path15"
           d="M 3.7044897,-2.9653359 C 3.3412084,-3.3168984 2.9193334,-3.4926797 2.4154272,-3.4926797 c -0.515625,0 -0.9492188,0.1757813 -1.3125,0.5273438 -0.35156251,0.3515625 -0.53906251,0.7851562 -0.53906251,1.2890625 0,0.4921875 0.1875,0.91406246 0.53906251,1.26562496 0.3632812,0.36328125 0.796875,0.5390625 1.3125,0.5390625 0.5039062,0 0.9257812,-0.17578125 1.2890625,-0.52734375 0.3632812,-0.36328125 0.5390625,-0.78515621 0.5390625,-1.27734371 0,-0.5039063 -0.1757813,-0.9375 -0.5390625,-1.2890625 z m -0.234375,2.33203121 c -0.2929688,0.29296875 -0.6445313,0.43359375 -1.0546875,0.43359375 -0.4335938,0 -0.7851563,-0.140625 -1.078125,-0.4453125 -0.2929688,-0.28125 -0.44531251,-0.63281246 -0.44531251,-1.04296876 0,-0.4101562 0.15234371,-0.75 0.44531251,-1.0546875 0.2929687,-0.28125 0.6445312,-0.421875 1.078125,-0.421875 0.4101562,0 0.7617187,0.140625 1.0546875,0.421875 0.3046875,0.2929688 0.4453125,0.6445313 0.4453125,1.0546875 0,0.4101563 -0.140625,0.76171876 -0.4453125,1.05468751 z m 3.2871094,-0.15234375 c -0.1054688,0.10546875 -0.1523438,0.22265625 -0.1523438,0.375 0,0.140625 0.046875,0.26953125 0.1523438,0.375 0.1054687,0.10546875 0.2226562,0.15234375 0.375,0.15234375 h 0.140625 c 0.140625,0 0.2695312,-0.046875 0.3632812,-0.15234375 0.1054688,-0.10546875 0.1640625,-0.22265625 0.1640625,-0.375 0,-0.140625 -0.046875,-0.26953125 -0.1523437,-0.375 -0.1054688,-0.10546875 -0.234375,-0.15234375 -0.375,-0.15234375 h -0.140625 c -0.1523438,0 -0.2695313,0.046875 -0.375,0.15234375 z M 13.571677,-3.0590859 c 0.08203,0 0.152344,-0.011719 0.175781,-0.011719 0.02344,-0.011719 0.04687,-0.035156 0.05859,-0.058594 0.02344,-0.035156 0.03516,-0.058594 0.03516,-0.09375 0,-0.046875 -0.01172,-0.082031 -0.04687,-0.1171875 -0.04687,-0.035156 -0.09375,-0.046875 -0.164062,-0.046875 h -0.902344 c -0.08203,0 -0.140625,0.011719 -0.175781,0.046875 -0.03516,0.035156 -0.04687,0.070312 -0.04687,0.1171875 0,0.046875 0.01172,0.082031 0.04687,0.1171875 0.03516,0.035156 0.09375,0.046875 0.164062,0.046875 h 0.375 l -1.089843,1.0664062 -1.101563,-1.0664062 h 0.386719 c 0.08203,0 0.140625,-0.011719 0.164062,-0.046875 0.03516,-0.035156 0.05859,-0.058594 0.05859,-0.1171875 0,-0.046875 -0.02344,-0.082031 -0.05859,-0.1171875 -0.02344,-0.035156 -0.08203,-0.046875 -0.164062,-0.046875 h -0.890625 c -0.08203,0 -0.140625,0.011719 -0.175781,0.046875 -0.03516,0.035156 -0.05859,0.070312 -0.05859,0.1171875 0,0.023437 0.01172,0.058594 0.03516,0.09375 0.02344,0.023437 0.04687,0.046875 0.07031,0.058594 0.02344,0 0.08203,0.011719 0.175781,0.011719 l 1.335937,1.2773437 -1.5,1.45312501 c -0.105468,0 -0.164062,0.0117188 -0.1875,0.0117188 -0.02344,0.0117188 -0.04687,0.0234375 -0.07031,0.0585938 -0.023438,0.0234375 -0.035156,0.0585938 -0.035156,0.09375 0,0.046875 0.023437,0.08203125 0.058593,0.1171875 0.03516,0.03515625 0.09375,0.0468750025 0.164063,0.0468750025 h 1.066406 c 0.08203,0 0.128906,-0.0117187525 0.175781,-0.0468750025 0.03516,-0.03515625 0.04687,-0.0703125 0.04687,-0.1171875 0,-0.046875 -0.01172,-0.09375 -0.04687,-0.1171875 -0.03516,-0.0351563 -0.09375,-0.046875 -0.175781,-0.046875 H 10.74747 l 1.265625,-1.23046871 1.265625,1.23046871 h -0.539062 c -0.08203,0 -0.140625,0.0117188 -0.175781,0.046875 -0.03516,0.0234375 -0.04687,0.0703125 -0.04687,0.1171875 0,0.046875 0.01172,0.08203125 0.04687,0.1171875 0.03516,0.03515625 0.09375,0.0468750025 0.175781,0.0468750025 h 1.054687 c 0.08203,0 0.140625,-0.0117187525 0.175782,-0.0468750025 0.03516,-0.03515625 0.04687,-0.0703125 0.04687,-0.1171875 0,-0.0351563 -0.01172,-0.0703125 -0.03516,-0.09375 -0.01172,-0.0351563 -0.03516,-0.046875 -0.05859,-0.0585938 -0.02344,0 -0.09375,-0.0117188 -0.1875,-0.0117188 l -1.5,-1.44140621 z m 18.041016,0.09375 c -0.363281,-0.3515625 -0.785156,-0.5273438 -1.289063,-0.5273438 -0.515625,0 -0.949218,0.1757813 -1.3125,0.5273438 -0.351562,0.3515625 -0.539062,0.7851562 -0.539062,1.2890625 0,0.4921875 0.1875,0.91406246 0.539062,1.26562496 0.363282,0.36328125 0.796875,0.5390625 1.3125,0.5390625 0.503907,0 0.925782,-0.17578125 1.289063,-0.52734375 0.363281,-0.36328125 0.539062,-0.78515621 0.539062,-1.27734371 0,-0.5039063 -0.175781,-0.9375 -0.539062,-1.2890625 z m -0.234375,2.33203121 c -0.292969,0.29296875 -0.644531,0.43359375 -1.054688,0.43359375 -0.433593,0 -0.785156,-0.140625 -1.078125,-0.4453125 -0.292968,-0.28125 -0.445312,-0.63281246 -0.445312,-1.04296876 0,-0.4101562 0.152344,-0.75 0.445312,-1.0546875 0.292969,-0.28125 0.644532,-0.421875 1.078125,-0.421875 0.410157,0 0.761719,0.140625 1.054688,0.421875 0.304687,0.2929688 0.445312,0.6445313 0.445312,1.0546875 0,0.4101563 -0.140625,0.76171876 -0.445312,1.05468751 z m 3.287109,-0.15234375 c -0.105469,0.10546875 -0.152344,0.22265625 -0.152344,0.375 0,0.140625 0.04687,0.26953125 0.152344,0.375 0.105469,0.10546875 0.222656,0.15234375 0.375,0.15234375 h 0.140625 c 0.140625,0 0.269531,-0.046875 0.363281,-0.15234375 0.105469,-0.10546875 0.164063,-0.22265625 0.164063,-0.375 0,-0.140625 -0.04687,-0.26953125 -0.152344,-0.375 -0.105469,-0.10546875 -0.234375,-0.15234375 -0.375,-0.15234375 h -0.140625 c -0.152344,0 -0.269531,0.046875 -0.375,0.15234375 z m 4.69336,1.95703124 h -1.03125 c -0.07031,0 -0.128907,0.023437 -0.164063,0.046875 -0.03516,0.035156 -0.05859,0.070312 -0.05859,0.1171875 0,0.058594 0.02344,0.09375 0.05859,0.1171875 0.03516,0.035156 0.09375,0.046875 0.164063,0.046875 h 1.816406 c 0.08203,0 0.128906,-0.011719 0.175781,-0.046875 0.02344,-0.023437 0.04687,-0.070312 0.04687,-0.1171875 0,-0.046875 -0.02344,-0.082031 -0.04687,-0.1171875 -0.04687,-0.023437 -0.09375,-0.046875 -0.175781,-0.046875 h -0.433594 l 2.074219,-4.2304687 c 0.117187,0 0.1875,-0.011719 0.210937,-0.011719 0.03516,-0.011719 0.04687,-0.023437 0.07031,-0.058594 0.02344,-0.023437 0.03516,-0.058594 0.03516,-0.09375 0,-0.046875 -0.01172,-0.082031 -0.04687,-0.1171875 -0.03516,-0.035156 -0.09375,-0.046875 -0.175781,-0.046875 h -0.878906 c -0.08203,0 -0.140625,0.011719 -0.175782,0.046875 -0.03516,0.035156 -0.04687,0.070312 -0.04687,0.1171875 0,0.058594 0.01172,0.082031 0.04687,0.1171875 0.03516,0.035156 0.09375,0.046875 0.175782,0.046875 h 0.433593 l -1.324218,2.69531246 -1.335938,-2.69531246 h 0.433594 c 0.08203,0 0.128906,-0.011719 0.175781,-0.046875 0.03516,-0.035156 0.04687,-0.070312 0.04687,-0.1171875 0,-0.046875 -0.01172,-0.082031 -0.04687,-0.1171875 -0.04687,-0.035156 -0.09375,-0.046875 -0.175781,-0.046875 h -0.902344 c -0.04687,0 -0.105469,0.011719 -0.128906,0.011719 -0.02344,0.023437 -0.04687,0.035156 -0.07031,0.058594 -0.01172,0.035156 -0.02344,0.058594 -0.02344,0.09375 0,0.046875 0.02344,0.082031 0.05859,0.1171875 0.03516,0.035156 0.08203,0.046875 0.164062,0.046875 h 0.09375 l 1.535156,3.0585937125 z m 20.162109,-4.1367187 c -0.363281,-0.3515625 -0.785156,-0.5273438 -1.289063,-0.5273438 -0.515625,0 -0.949218,0.1757813 -1.3125,0.5273438 -0.351562,0.3515625 -0.539062,0.7851562 -0.539062,1.2890625 0,0.4921875 0.1875,0.91406246 0.539062,1.26562496 0.363282,0.36328125 0.796875,0.5390625 1.3125,0.5390625 0.503907,0 0.925782,-0.17578125 1.289063,-0.52734375 0.363281,-0.36328125 0.539062,-0.78515621 0.539062,-1.27734371 0,-0.5039063 -0.175781,-0.9375 -0.539062,-1.2890625 z m -0.234375,2.33203121 c -0.292969,0.29296875 -0.644531,0.43359375 -1.054688,0.43359375 -0.433593,0 -0.785156,-0.140625 -1.078125,-0.4453125 -0.292968,-0.28125 -0.445312,-0.63281246 -0.445312,-1.04296876 0,-0.4101562 0.152344,-0.75 0.445312,-1.0546875 0.292969,-0.28125 0.644532,-0.421875 1.078125,-0.421875 0.410157,0 0.761719,0.140625 1.054688,0.421875 0.304687,0.2929688 0.445312,0.6445313 0.445312,1.0546875 0,0.4101563 -0.140625,0.76171876 -0.445312,1.05468751 z m 3.287109,-0.15234375 c -0.105468,0.10546875 -0.152343,0.22265625 -0.152343,0.375 0,0.140625 0.04687,0.26953125 0.152343,0.375 0.105469,0.10546875 0.222657,0.15234375 0.375,0.15234375 h 0.140625 c 0.140625,0 0.269532,-0.046875 0.363282,-0.15234375 0.105468,-0.10546875 0.164062,-0.22265625 0.164062,-0.375 0,-0.140625 -0.04687,-0.26953125 -0.152344,-0.375 -0.105468,-0.10546875 -0.234375,-0.15234375 -0.375,-0.15234375 H 62.94863 c -0.152343,0 -0.269531,0.046875 -0.375,0.15234375 z m 3.840821,-2.60156246 v 0.7734375 c 0,0.070312 0.02344,0.1289062 0.04687,0.1640625 0.03516,0.035156 0.08203,0.058594 0.128906,0.058594 0.04687,0 0.08203,-0.023437 0.105469,-0.058594 0.03516,-0.035156 0.04687,-0.09375 0.04687,-0.1640625 v -0.4453125 h 2.050781 l -2.449219,2.76562496 v 0.2929687525 h 3 V -0.77392969 c 0,-0.0820313 -0.01172,-0.140625 -0.04687,-0.17578125 -0.02344,-0.0351563 -0.05859,-0.046875 -0.105469,-0.046875 -0.05859,0 -0.105468,0.0117188 -0.128906,0.046875 -0.02344,0.0351563 -0.04687,0.09375 -0.04687,0.17578125 v 0.4453125 h -2.203125 l 2.449219,-2.76562501 v -0.2929687 z m 20.557617,-1.5234375 c -0.08203,0 -0.140625,0.023437 -0.175781,0.046875 -0.03516,0.035156 -0.05859,0.082031 -0.05859,0.1171875 0,0.058594 0.02344,0.082031 0.05859,0.1171875 0.03516,0.035156 0.09375,0.046875 0.175781,0.046875 h 0.433594 v 1.8632812 c -0.386719,-0.5273437 -0.867188,-0.7734375 -1.441407,-0.7734375 -0.304687,0 -0.585937,0.070312 -0.867187,0.234375 -0.269531,0.1640625 -0.480469,0.3867188 -0.632813,0.6679688 -0.164062,0.2929687 -0.246093,0.5976562 -0.246093,0.9140625 0,0.3046875 0.08203,0.5976562 0.246093,0.89062496 0.152344,0.29296875 0.363282,0.515625 0.632813,0.66796875 0.28125,0.1640625 0.5625,0.24609375 0.867187,0.24609375 0.574219,0 1.054688,-0.26953125 1.441407,-0.78515625 v 0.6562500025 h 0.773437 c 0.08203,0 0.128906,-0.0117187525 0.175781,-0.0468750025 0.03516,-0.03515625 0.04687,-0.0703125 0.04687,-0.1171875 0,-0.046875 -0.01172,-0.09375 -0.04687,-0.1171875 -0.04687,-0.0351563 -0.09375,-0.046875 -0.175781,-0.046875 H 87.733787 V -4.9106484 Z m 0.01172,4.27734371 c -0.28125,0.29296875 -0.621094,0.43359375 -0.996094,0.43359375 -0.398438,0 -0.738281,-0.140625 -1.007813,-0.43359375 -0.28125,-0.29296875 -0.433593,-0.64453121 -0.433593,-1.05468751 0,-0.421875 0.152343,-0.7734375 0.433593,-1.0546875 0.269532,-0.28125 0.609375,-0.421875 1.007813,-0.421875 0.375,0 0.714844,0.140625 0.996094,0.421875 0.28125,0.28125 0.421875,0.6328125 0.421875,1.0546875 0,0.4101563 -0.140625,0.76171876 -0.421875,1.05468751 z m 3.500976,-0.15234375 c -0.105469,0.10546875 -0.152344,0.22265625 -0.152344,0.375 0,0.140625 0.04687,0.26953125 0.152344,0.375 0.105469,0.10546875 0.222656,0.15234375 0.375,0.15234375 h 0.140625 c 0.140625,0 0.269531,-0.046875 0.363281,-0.15234375 0.105469,-0.10546875 0.164063,-0.22265625 0.164063,-0.375 0,-0.140625 -0.04687,-0.26953125 -0.152344,-0.375 -0.105469,-0.10546875 -0.234375,-0.15234375 -0.375,-0.15234375 h -0.140625 c -0.152344,0 -0.269531,0.046875 -0.375,0.15234375 z m 6.814453,-2.27343746 c 0.08203,0 0.152344,-0.011719 0.175781,-0.011719 0.02344,-0.011719 0.04687,-0.035156 0.05859,-0.058594 0.02344,-0.035156 0.03516,-0.058594 0.03516,-0.09375 0,-0.046875 -0.01172,-0.082031 -0.04687,-0.1171875 -0.04687,-0.035156 -0.09375,-0.046875 -0.164062,-0.046875 h -0.902344 c -0.08203,0 -0.140625,0.011719 -0.175781,0.046875 -0.03516,0.035156 -0.04687,0.070312 -0.04687,0.1171875 0,0.046875 0.01172,0.082031 0.04687,0.1171875 0.03516,0.035156 0.09375,0.046875 0.164062,0.046875 h 0.375 l -1.089843,1.0664062 -1.101563,-1.0664062 h 0.386719 c 0.08203,0 0.140625,-0.011719 0.164062,-0.046875 0.03516,-0.035156 0.05859,-0.058594 0.05859,-0.1171875 0,-0.046875 -0.02344,-0.082031 -0.05859,-0.1171875 -0.02344,-0.035156 -0.08203,-0.046875 -0.164062,-0.046875 h -0.890625 c -0.08203,0 -0.140625,0.011719 -0.175781,0.046875 -0.03516,0.035156 -0.05859,0.070312 -0.05859,0.1171875 0,0.023437 0.01172,0.058594 0.03516,0.09375 0.02344,0.023437 0.04687,0.046875 0.07031,0.058594 0.02344,0 0.08203,0.011719 0.175781,0.011719 l 1.335937,1.2773437 -1.5,1.45312501 c -0.105468,0 -0.164062,0.0117188 -0.1875,0.0117188 -0.02344,0.0117188 -0.04687,0.0234375 -0.07031,0.0585938 -0.02344,0.0234375 -0.03516,0.0585938 -0.03516,0.09375 0,0.046875 0.02344,0.08203125 0.05859,0.1171875 0.03516,0.03515625 0.09375,0.0468750025 0.164063,0.0468750025 h 1.066406 c 0.08203,0 0.128906,-0.0117187525 0.175781,-0.0468750025 0.03516,-0.03515625 0.04687,-0.0703125 0.04687,-0.1171875 0,-0.046875 -0.01172,-0.09375 -0.04687,-0.1171875 -0.03516,-0.0351563 -0.09375,-0.046875 -0.175781,-0.046875 h -0.527344 l 1.265625,-1.23046871 1.265625,1.23046871 h -0.539062 c -0.08203,0 -0.140625,0.0117188 -0.175781,0.046875 -0.03516,0.0234375 -0.04687,0.0703125 -0.04687,0.1171875 0,0.046875 0.01172,0.08203125 0.04687,0.1171875 0.03516,0.03515625 0.09375,0.0468750025 0.175781,0.0468750025 h 1.054687 c 0.08203,0 0.140625,-0.0117187525 0.175782,-0.0468750025 0.03516,-0.03515625 0.04687,-0.0703125 0.04687,-0.1171875 0,-0.0351563 -0.01172,-0.0703125 -0.03516,-0.09375 -0.01172,-0.0351563 -0.03516,-0.046875 -0.05859,-0.0585938 -0.02344,0 -0.09375,-0.0117188 -0.1875,-0.0117188 l -1.5,-1.44140621 z M 114.8832,-4.9106484 c -0.082,0 -0.14062,0.023437 -0.17578,0.046875 -0.0352,0.035156 -0.0586,0.082031 -0.0586,0.1171875 0,0.058594 0.0234,0.082031 0.0586,0.1171875 0.0352,0.035156 0.0937,0.046875 0.17578,0.046875 h 0.43359 v 1.8632812 c -0.38671,-0.5273437 -0.86718,-0.7734375 -1.4414,-0.7734375 -0.30469,0 -0.58594,0.070312 -0.86719,0.234375 -0.26953,0.1640625 -0.48047,0.3867188 -0.63281,0.6679688 -0.16406,0.2929687 -0.2461,0.5976562 -0.2461,0.9140625 0,0.3046875 0.082,0.5976562 0.2461,0.89062496 0.15234,0.29296875 0.36328,0.515625 0.63281,0.66796875 0.28125,0.1640625 0.5625,0.24609375 0.86719,0.24609375 0.57422,0 1.05469,-0.26953125 1.4414,-0.78515625 v 0.6562500025 h 0.77344 c 0.082,0 0.12891,-0.0117187525 0.17578,-0.0468750025 0.0352,-0.03515625 0.0469,-0.0703125 0.0469,-0.1171875 0,-0.046875 -0.0117,-0.09375 -0.0469,-0.1171875 -0.0469,-0.0351563 -0.0937,-0.046875 -0.17578,-0.046875 h -0.44531 V -4.9106484 Z m 0.0117,4.27734371 c -0.28125,0.29296875 -0.62109,0.43359375 -0.99609,0.43359375 -0.39844,0 -0.73829,-0.140625 -1.00782,-0.43359375 -0.28125,-0.29296875 -0.43359,-0.64453121 -0.43359,-1.05468751 0,-0.421875 0.15234,-0.7734375 0.43359,-1.0546875 0.26953,-0.28125 0.60938,-0.421875 1.00782,-0.421875 0.375,0 0.71484,0.140625 0.99609,0.421875 0.28125,0.28125 0.42187,0.6328125 0.42187,1.0546875 0,0.4101563 -0.14062,0.76171876 -0.42187,1.05468751 z m 3.49805,-0.15234375 c -0.10547,0.10546875 -0.15235,0.22265625 -0.15235,0.375 0,0.140625 0.0469,0.26953125 0.15235,0.375 0.10547,0.10546875 0.22265,0.15234375 0.375,0.15234375 h 0.14062 c 0.14063,0 0.26953,-0.046875 0.36328,-0.15234375 0.10547,-0.10546875 0.16407,-0.22265625 0.16407,-0.375 0,-0.140625 -0.0469,-0.26953125 -0.15235,-0.375 -0.10547,-0.10546875 -0.23437,-0.15234375 -0.375,-0.15234375 h -0.14062 c -0.15235,0 -0.26953,0.046875 -0.375,0.15234375 z m 4.69336,1.95703124 h -1.03125 c -0.0703,0 -0.12891,0.023437 -0.16407,0.046875 -0.0351,0.035156 -0.0586,0.070312 -0.0586,0.1171875 0,0.058594 0.0234,0.09375 0.0586,0.1171875 0.0352,0.035156 0.0937,0.046875 0.16407,0.046875 h 1.8164 c 0.082,0 0.12891,-0.011719 0.17578,-0.046875 0.0234,-0.023437 0.0469,-0.070312 0.0469,-0.1171875 0,-0.046875 -0.0234,-0.082031 -0.0469,-0.1171875 -0.0469,-0.023437 -0.0937,-0.046875 -0.17578,-0.046875 h -0.43359 l 2.07422,-4.2304687 c 0.11718,0 0.1875,-0.011719 0.21093,-0.011719 0.0352,-0.011719 0.0469,-0.023437 0.0703,-0.058594 0.0234,-0.023437 0.0351,-0.058594 0.0351,-0.09375 0,-0.046875 -0.0117,-0.082031 -0.0469,-0.1171875 -0.0352,-0.035156 -0.0937,-0.046875 -0.17578,-0.046875 h -0.87891 c -0.082,0 -0.14062,0.011719 -0.17578,0.046875 -0.0352,0.035156 -0.0469,0.070312 -0.0469,0.1171875 0,0.058594 0.0117,0.082031 0.0469,0.1171875 0.0352,0.035156 0.0937,0.046875 0.17578,0.046875 h 0.43359 l -1.32421,2.69531246 -1.33594,-2.69531246 h 0.43359 c 0.082,0 0.12891,-0.011719 0.17578,-0.046875 0.0352,-0.035156 0.0469,-0.070312 0.0469,-0.1171875 0,-0.046875 -0.0117,-0.082031 -0.0469,-0.1171875 -0.0469,-0.035156 -0.0937,-0.046875 -0.17578,-0.046875 h -0.90234 c -0.0469,0 -0.10547,0.011719 -0.12891,0.011719 -0.0234,0.023437 -0.0469,0.035156 -0.0703,0.058594 -0.0117,0.035156 -0.0234,0.058594 -0.0234,0.09375 0,0.046875 0.0234,0.082031 0.0586,0.1171875 0.0352,0.035156 0.082,0.046875 0.16406,0.046875 h 0.0937 l 1.53515,3.0585937125 z m 19.70507,-6.0820312 c -0.082,0 -0.14062,0.023437 -0.17578,0.046875 -0.0352,0.035156 -0.0586,0.082031 -0.0586,0.1171875 0,0.058594 0.0234,0.082031 0.0586,0.1171875 0.0352,0.035156 0.0937,0.046875 0.17578,0.046875 h 0.4336 v 1.8632812 c -0.38672,-0.5273437 -0.86719,-0.7734375 -1.44141,-0.7734375 -0.30469,0 -0.58594,0.070312 -0.86719,0.234375 -0.26953,0.1640625 -0.48047,0.3867188 -0.63281,0.6679688 -0.16406,0.2929687 -0.24609,0.5976562 -0.24609,0.9140625 0,0.3046875 0.082,0.5976562 0.24609,0.89062496 0.15234,0.29296875 0.36328,0.515625 0.63281,0.66796875 0.28125,0.1640625 0.5625,0.24609375 0.86719,0.24609375 0.57422,0 1.05469,-0.26953125 1.44141,-0.78515625 v 0.6562500025 h 0.77343 c 0.082,0 0.12891,-0.0117187525 0.17579,-0.0468750025 0.0352,-0.03515625 0.0469,-0.0703125 0.0469,-0.1171875 0,-0.046875 -0.0117,-0.09375 -0.0469,-0.1171875 -0.0469,-0.0351563 -0.0937,-0.046875 -0.17579,-0.046875 H 143.5531 V -4.9106484 Z m 0.0117,4.27734371 c -0.28125,0.29296875 -0.62109,0.43359375 -0.99609,0.43359375 -0.39844,0 -0.73828,-0.140625 -1.00781,-0.43359375 -0.28125,-0.29296875 -0.4336,-0.64453121 -0.4336,-1.05468751 0,-0.421875 0.15235,-0.7734375 0.4336,-1.0546875 0.26953,-0.28125 0.60937,-0.421875 1.00781,-0.421875 0.375,0 0.71484,0.140625 0.99609,0.421875 0.28125,0.28125 0.42188,0.6328125 0.42188,1.0546875 0,0.4101563 -0.14063,0.76171876 -0.42188,1.05468751 z m 3.50098,-0.15234375 c -0.10547,0.10546875 -0.15234,0.22265625 -0.15234,0.375 0,0.140625 0.0469,0.26953125 0.15234,0.375 0.10547,0.10546875 0.22266,0.15234375 0.375,0.15234375 h 0.14062 c 0.14063,0 0.26954,-0.046875 0.36329,-0.15234375 0.10546,-0.10546875 0.16406,-0.22265625 0.16406,-0.375 0,-0.140625 -0.0469,-0.26953125 -0.15235,-0.375 -0.10546,-0.10546875 -0.23437,-0.15234375 -0.375,-0.15234375 h -0.14062 c -0.15234,0 -0.26953,0.046875 -0.375,0.15234375 z m 3.83789,-2.60156246 v 0.7734375 c 0,0.070312 0.0234,0.1289062 0.0469,0.1640625 0.0352,0.035156 0.082,0.058594 0.12891,0.058594 0.0469,0 0.082,-0.023437 0.10547,-0.058594 0.0352,-0.035156 0.0469,-0.09375 0.0469,-0.1640625 v -0.4453125 h 2.05079 l -2.44922,2.76562496 v 0.2929687525 h 3 V -0.77392969 c 0,-0.0820313 -0.0117,-0.140625 -0.0469,-0.17578125 -0.0234,-0.0351563 -0.0586,-0.046875 -0.10547,-0.046875 -0.0586,0 -0.10547,0.0117188 -0.1289,0.046875 -0.0234,0.0351563 -0.0469,0.09375 -0.0469,0.17578125 v 0.4453125 h -2.20312 l 2.44922,-2.76562501 v -0.2929687 z m 21.01758,0.421875 c -0.36328,-0.3515625 -0.78516,-0.5273438 -1.28906,-0.5273438 -0.51563,0 -0.94922,0.1757813 -1.3125,0.5273438 -0.35157,0.3515625 -0.53907,0.7851562 -0.53907,1.2890625 0,0.4921875 0.1875,0.91406246 0.53907,1.26562496 0.36328,0.36328125 0.79687,0.5390625 1.3125,0.5390625 0.5039,0 0.92578,-0.17578125 1.28906,-0.52734375 0.36328,-0.36328125 0.53906,-0.78515621 0.53906,-1.27734371 0,-0.5039063 -0.17578,-0.9375 -0.53906,-1.2890625 z m -0.23438,2.33203121 c -0.29297,0.29296875 -0.64453,0.43359375 -1.05468,0.43359375 -0.4336,0 -0.78516,-0.140625 -1.07813,-0.4453125 -0.29297,-0.28125 -0.44531,-0.63281246 -0.44531,-1.04296876 0,-0.4101562 0.15234,-0.75 0.44531,-1.0546875 0.29297,-0.28125 0.64453,-0.421875 1.07813,-0.421875 0.41015,0 0.76171,0.140625 1.05468,0.421875 0.30469,0.2929688 0.44532,0.6445313 0.44532,1.0546875 0,0.4101563 -0.14063,0.76171876 -0.44532,1.05468751 z m 3.28711,-0.15234375 c -0.10547,0.10546875 -0.15234,0.22265625 -0.15234,0.375 0,0.140625 0.0469,0.26953125 0.15234,0.375 0.10547,0.10546875 0.22266,0.15234375 0.375,0.15234375 h 0.14063 c 0.14062,0 0.26953,-0.046875 0.36328,-0.15234375 0.10547,-0.10546875 0.16406,-0.22265625 0.16406,-0.375 0,-0.140625 -0.0469,-0.26953125 -0.15234,-0.375 -0.10547,-0.10546875 -0.23438,-0.15234375 -0.375,-0.15234375 h -0.14063 c -0.15234,0 -0.26953,0.046875 -0.375,0.15234375 z m 6.81738,-2.27343746 c 0.082,0 0.15235,-0.011719 0.17579,-0.011719 0.0234,-0.011719 0.0469,-0.035156 0.0586,-0.058594 0.0234,-0.035156 0.0352,-0.058594 0.0352,-0.09375 0,-0.046875 -0.0117,-0.082031 -0.0469,-0.1171875 -0.0469,-0.035156 -0.0937,-0.046875 -0.16406,-0.046875 h -0.90235 c -0.082,0 -0.14062,0.011719 -0.17578,0.046875 -0.0352,0.035156 -0.0469,0.070312 -0.0469,0.1171875 0,0.046875 0.0117,0.082031 0.0469,0.1171875 0.0352,0.035156 0.0937,0.046875 0.16407,0.046875 h 0.375 l -1.08985,1.0664062 -1.10156,-1.0664062 h 0.38672 c 0.082,0 0.14062,-0.011719 0.16406,-0.046875 0.0352,-0.035156 0.0586,-0.058594 0.0586,-0.1171875 0,-0.046875 -0.0234,-0.082031 -0.0586,-0.1171875 -0.0234,-0.035156 -0.082,-0.046875 -0.16406,-0.046875 h -0.89063 c -0.082,0 -0.14062,0.011719 -0.17578,0.046875 -0.0352,0.035156 -0.0586,0.070312 -0.0586,0.1171875 0,0.023437 0.0117,0.058594 0.0352,0.09375 0.0234,0.023437 0.0469,0.046875 0.0703,0.058594 0.0234,0 0.082,0.011719 0.17578,0.011719 l 1.33594,1.2773437 -1.5,1.45312501 c -0.10547,0 -0.16407,0.0117188 -0.1875,0.0117188 -0.0234,0.0117188 -0.0469,0.0234375 -0.0703,0.0585938 -0.0234,0.0234375 -0.0352,0.0585938 -0.0352,0.09375 0,0.046875 0.0234,0.08203125 0.0586,0.1171875 0.0352,0.03515625 0.0937,0.0468750025 0.16406,0.0468750025 h 1.06641 c 0.082,0 0.12891,-0.0117187525 0.17578,-0.0468750025 0.0352,-0.03515625 0.0469,-0.0703125 0.0469,-0.1171875 0,-0.046875 -0.0117,-0.09375 -0.0469,-0.1171875 -0.0352,-0.0351563 -0.0937,-0.046875 -0.17578,-0.046875 h -0.52734 l 1.26562,-1.23046871 1.26563,1.23046871 h -0.53907 c -0.082,0 -0.14062,0.0117188 -0.17578,0.046875 -0.0352,0.0234375 -0.0469,0.0703125 -0.0469,0.1171875 0,0.046875 0.0117,0.08203125 0.0469,0.1171875 0.0352,0.03515625 0.0937,0.0468750025 0.17578,0.0468750025 h 1.05469 c 0.082,0 0.14063,-0.0117187525 0.17578,-0.0468750025 0.0352,-0.03515625 0.0469,-0.0703125 0.0469,-0.1171875 0,-0.0351563 -0.0117,-0.0703125 -0.0352,-0.09375 -0.0117,-0.0351563 -0.0352,-0.046875 -0.0586,-0.0585938 -0.0234,0 -0.0937,-0.0117188 -0.1875,-0.0117188 l -1.5,-1.44140621 z m 18.03809,0.09375 c -0.36328,-0.3515625 -0.78516,-0.5273438 -1.28906,-0.5273438 -0.51563,0 -0.94922,0.1757813 -1.3125,0.5273438 -0.35156,0.3515625 -0.53906,0.7851562 -0.53906,1.2890625 0,0.4921875 0.1875,0.91406246 0.53906,1.26562496 0.36328,0.36328125 0.79687,0.5390625 1.3125,0.5390625 0.5039,0 0.92578,-0.17578125 1.28906,-0.52734375 0.36328,-0.36328125 0.53906,-0.78515621 0.53906,-1.27734371 0,-0.5039063 -0.17578,-0.9375 -0.53906,-1.2890625 z m -0.23437,2.33203121 c -0.29297,0.29296875 -0.64454,0.43359375 -1.05469,0.43359375 -0.4336,0 -0.78516,-0.140625 -1.07813,-0.4453125 -0.29297,-0.28125 -0.44531,-0.63281246 -0.44531,-1.04296876 0,-0.4101562 0.15234,-0.75 0.44531,-1.0546875 0.29297,-0.28125 0.64453,-0.421875 1.07813,-0.421875 0.41015,0 0.76172,0.140625 1.05469,0.421875 0.30468,0.2929688 0.44531,0.6445313 0.44531,1.0546875 0,0.4101563 -0.14063,0.76171876 -0.44531,1.05468751 z m 3.28711,-0.15234375 c -0.10547,0.10546875 -0.15235,0.22265625 -0.15235,0.375 0,0.140625 0.0469,0.26953125 0.15235,0.375 0.10546,0.10546875 0.22265,0.15234375 0.375,0.15234375 h 0.14062 c 0.14063,0 0.26953,-0.046875 0.36328,-0.15234375 0.10547,-0.10546875 0.16406,-0.22265625 0.16406,-0.375 0,-0.140625 -0.0469,-0.26953125 -0.15234,-0.375 -0.10547,-0.10546875 -0.23437,-0.15234375 -0.375,-0.15234375 h -0.14062 c -0.15235,0 -0.26954,0.046875 -0.375,0.15234375 z m 4.69628,1.95703124 h -1.03125 c -0.0703,0 -0.1289,0.023437 -0.16406,0.046875 -0.0351,0.035156 -0.0586,0.070312 -0.0586,0.1171875 0,0.058594 0.0234,0.09375 0.0586,0.1171875 0.0352,0.035156 0.0937,0.046875 0.16406,0.046875 h 1.81641 c 0.082,0 0.12891,-0.011719 0.17578,-0.046875 0.0234,-0.023437 0.0469,-0.070312 0.0469,-0.1171875 0,-0.046875 -0.0234,-0.082031 -0.0469,-0.1171875 -0.0469,-0.023437 -0.0937,-0.046875 -0.17578,-0.046875 h -0.43359 l 2.07422,-4.2304687 c 0.11718,0 0.1875,-0.011719 0.21093,-0.011719 0.0352,-0.011719 0.0469,-0.023437 0.0703,-0.058594 0.0234,-0.023437 0.0351,-0.058594 0.0351,-0.09375 0,-0.046875 -0.0117,-0.082031 -0.0469,-0.1171875 -0.0352,-0.035156 -0.0937,-0.046875 -0.17578,-0.046875 h -0.87891 c -0.082,0 -0.14063,0.011719 -0.17578,0.046875 -0.0352,0.035156 -0.0469,0.070312 -0.0469,0.1171875 0,0.058594 0.0117,0.082031 0.0469,0.1171875 0.0351,0.035156 0.0937,0.046875 0.17578,0.046875 h 0.43359 l -1.32422,2.69531246 -1.33593,-2.69531246 h 0.43359 c 0.082,0 0.12891,-0.011719 0.17578,-0.046875 0.0352,-0.035156 0.0469,-0.070312 0.0469,-0.1171875 0,-0.046875 -0.0117,-0.082031 -0.0469,-0.1171875 -0.0469,-0.035156 -0.0937,-0.046875 -0.17578,-0.046875 h -0.90234 c -0.0469,0 -0.10547,0.011719 -0.12891,0.011719 -0.0234,0.023437 -0.0469,0.035156 -0.0703,0.058594 -0.0117,0.035156 -0.0234,0.058594 -0.0234,0.09375 0,0.046875 0.0234,0.082031 0.0586,0.1171875 0.0352,0.035156 0.082,0.046875 0.16407,0.046875 h 0.0937 l 1.53515,3.0585937125 z m 20.15918,-4.1367187 c -0.36328,-0.3515625 -0.78515,-0.5273438 -1.28906,-0.5273438 -0.51562,0 -0.94922,0.1757813 -1.3125,0.5273438 -0.35156,0.3515625 -0.53906,0.7851562 -0.53906,1.2890625 0,0.4921875 0.1875,0.91406246 0.53906,1.26562496 0.36328,0.36328125 0.79688,0.5390625 1.3125,0.5390625 0.50391,0 0.92578,-0.17578125 1.28906,-0.52734375 0.36329,-0.36328125 0.53907,-0.78515621 0.53907,-1.27734371 0,-0.5039063 -0.17578,-0.9375 -0.53907,-1.2890625 z m -0.23437,2.33203121 c -0.29297,0.29296875 -0.64453,0.43359375 -1.05469,0.43359375 -0.43359,0 -0.78515,-0.140625 -1.07812,-0.4453125 -0.29297,-0.28125 -0.44532,-0.63281246 -0.44532,-1.04296876 0,-0.4101562 0.15235,-0.75 0.44532,-1.0546875 0.29297,-0.28125 0.64453,-0.421875 1.07812,-0.421875 0.41016,0 0.76172,0.140625 1.05469,0.421875 0.30469,0.2929688 0.44531,0.6445313 0.44531,1.0546875 0,0.4101563 -0.14062,0.76171876 -0.44531,1.05468751 z m 3.29004,-0.15234375 c -0.10547,0.10546875 -0.15235,0.22265625 -0.15235,0.375 0,0.140625 0.0469,0.26953125 0.15235,0.375 0.10547,0.10546875 0.22265,0.15234375 0.375,0.15234375 h 0.14062 c 0.14063,0 0.26953,-0.046875 0.36328,-0.15234375 0.10547,-0.10546875 0.16407,-0.22265625 0.16407,-0.375 0,-0.140625 -0.0469,-0.26953125 -0.15235,-0.375 -0.10547,-0.10546875 -0.23437,-0.15234375 -0.375,-0.15234375 h -0.14062 c -0.15235,0 -0.26953,0.046875 -0.375,0.15234375 z m 3.83789,-2.60156246 v 0.7734375 c 0,0.070312 0.0234,0.1289062 0.0469,0.1640625 0.0352,0.035156 0.082,0.058594 0.12891,0.058594 0.0469,0 0.082,-0.023437 0.10547,-0.058594 0.0352,-0.035156 0.0469,-0.09375 0.0469,-0.1640625 v -0.4453125 h 2.05078 l -2.44921,2.76562496 v 0.2929687525 h 3 V -0.77392969 c 0,-0.0820313 -0.0117,-0.140625 -0.0469,-0.17578125 -0.0234,-0.0351563 -0.0586,-0.046875 -0.10547,-0.046875 -0.0586,0 -0.10547,0.0117188 -0.1289,0.046875 -0.0234,0.0351563 -0.0469,0.09375 -0.0469,0.17578125 v 0.4453125 h -2.20312 l 2.44921,-2.76562501 v -0.2929687 z m 0,0"
           style="fill:#231f20;fill-opacity:1;fill-rule:nonzero;stroke:none" />
        <path
           id="path16"
           d="m 250.70058,-1.5590859 c 0.28125,0 0.50391,-0.1992188 0.50391,-0.515625 0,-0.2929688 -0.22266,-0.515625 -0.50391,-0.515625 -0.29297,0 -0.5039,0.2226562 -0.5039,0.515625 0,0.3164062 0.21093,0.515625 0.5039,0.515625 z m 2.05371,0 c 0.28125,0 0.50391,-0.1992188 0.50391,-0.515625 0,-0.2929688 -0.22266,-0.515625 -0.50391,-0.515625 -0.29296,0 -0.5039,0.2226562 -0.5039,0.515625 0,0.3164062 0.21094,0.515625 0.5039,0.515625 z m 2.05079,0 c 0.28125,0 0.5039,-0.1992188 0.5039,-0.515625 0,-0.2929688 -0.22265,-0.515625 -0.5039,-0.515625 -0.29297,0 -0.50391,0.2226562 -0.50391,0.515625 0,0.3164062 0.21094,0.515625 0.50391,0.515625 z m 0,0"
           style="fill:#231f20;fill-opacity:1;fill-rule:nonzero;stroke:none" />
      </g>
      <path
         id="path17"
         d="m 1117.9,2066.98 h 557.93 V 1920.97 H 1117.9 Z"
         style="fill:none;stroke:#231f20;stroke-width:5;stroke-linecap:butt;stroke-linejoin:miter;stroke-miterlimit:10;stroke-dasharray:none;stroke-opacity:1"
         transform="matrix(0.13333333,0,0,-0.13333333,0,275.93333)" />
      <path
         id="path18"
         d="M 1536.35,2066.98 V 1920.97"
         style="fill:none;stroke:#231f20;stroke-width:5;stroke-linecap:butt;stroke-linejoin:miter;stroke-miterlimit:10;stroke-dasharray:none;stroke-opacity:1"
         transform="matrix(0.13333333,0,0,-0.13333333,0,275.93333)" />
      <path
         id="path19"
         d="M 1396.87,2066.98 V 1920.97"
         style="fill:none;stroke:#231f20;stroke-width:5;stroke-linecap:butt;stroke-linejoin:miter;stroke-miterlimit:10;stroke-dasharray:none;stroke-opacity:1"
         transform="matrix(0.13333333,0,0,-0.13333333,0,275.93333)" />
      <path
         id="path20"
         d="M 1257.38,2066.98 V 1920.97"
         style="fill:none;stroke:#231f20;stroke-width:5;stroke-linecap:butt;stroke-linejoin:miter;stroke-miterlimit:10;stroke-dasharray:none;stroke-opacity:1"
         transform="matrix(0.13333333,0,0,-0.13333333,0,275.93333)" />
      <path
         id="path21"
         d="M 1.7928516,-0.2098125 1.7342578,-0.373875 c -0.082031,0.046875 -0.2226562,0.10546875 -0.375,0.10546875 -0.1523437,0 -0.3398437,-0.09375 -0.3398437,-0.57421875 V -2.3895 h 0.6328125 c 0.070312,-0.035156 0.09375,-0.1757813 0.035156,-0.234375 H 1.0194141 v -0.8203125 l -0.09375,-0.011719 -0.38671875,0.3984375 v 0.433594 H 0.26941406 l -0.1640625,0.1757812 0.0234375,0.058594 h 0.41015625 v 1.74609375 c 0,0.48046875 0.2109375,0.71484375 0.58593749,0.71484375 0.058594,0 0.1523438,-0.0234375 0.2578125,-0.08203125 z m 2.3935547,-1.5996094 c -0.9023438,0 -1.2304688,1.06640627 -1.2304688,1.94531252 0,0.94921878 0.328125,1.93359378 1.2304688,1.93359378 0.9023437,0 1.21875,-1.0664063 1.21875,-1.94531253 0,-0.92578125 -0.3164063,-1.93359377 -1.21875,-1.93359377 z m -0.011719,0.1992188 c 0.5390625,0 0.6914063,0.89062497 0.6914063,1.73437497 0,0.84375 -0.140625,1.74609373 -0.6796875,1.74609373 -0.5273438,0 -0.703125,-0.91406248 -0.703125,-1.74609373 0,-0.83203125 0.1523437,-1.73437497 0.6914062,-1.73437497 z m 11.5576177,1.4003906 -0.05859,-0.1640625 c -0.08203,0.046875 -0.222656,0.10546875 -0.375,0.10546875 -0.152344,0 -0.339844,-0.09375 -0.339844,-0.57421875 V -2.3895 h 0.632813 c 0.07031,-0.035156 0.09375,-0.1757813 0.03516,-0.234375 h -0.667969 v -0.8203125 l -0.09375,-0.011719 -0.386719,0.3984375 v 0.4335938 h -0.269531 l -0.164062,0.1757812 0.02344,0.058594 h 0.410156 v 1.74609375 c 0,0.48046875 0.210938,0.71484375 0.585938,0.71484375 0.05859,0 0.152344,-0.0234375 0.257812,-0.08203125 z m 3.260742,2.2089844 V 1.8351094 c -0.550781,-0.035156 -0.585938,-0.09375 -0.585938,-0.515625 v -3.1289063 c -0.328125,0.1289063 -0.679687,0.2460938 -1.066406,0.3164063 v 0.1289062 l 0.28125,0.011719 c 0.269531,0.011719 0.292969,0.046875 0.292969,0.36328122 V 1.3194844 c 0,0.421875 -0.03516,0.4804687 -0.574219,0.515625 v 0.1640625 z m 10.681641,-2.21191409 -0.05859,-0.1640625 c -0.08203,0.046875 -0.222656,0.10546875 -0.375,0.10546875 -0.152344,0 -0.339844,-0.09375 -0.339844,-0.57421875 V -2.3924297 h 0.632813 c 0.07031,-0.035156 0.09375,-0.1757812 0.03516,-0.234375 H 28.90125 v -0.8203125 l -0.09375,-0.011719 -0.386719,0.3984375 V -2.626805 H 28.15125 l -0.164062,0.1757813 0.02344,0.058594 h 0.410156 v 1.74609376 c 0,0.48046875 0.210938,0.71484375 0.585938,0.71484375 0.05859,0 0.152344,-0.0234375 0.257812,-0.08203125 z M 33.099492,1.1554219 C 32.923711,1.5421406 32.84168,1.5655781 32.513555,1.5655781 h -1.113282 l 0.84375,-0.90234373 c 0.550782,-0.5859375 0.796875,-0.9375 0.796875,-1.46484375 0,-0.62109372 -0.480468,-1.00781252 -1.007812,-1.00781252 -0.351563,0 -0.632813,0.1523438 -0.808594,0.3515625 l -0.339844,0.49218752 0.128907,0.1171875 c 0.152343,-0.23437502 0.410156,-0.56250002 0.808593,-0.56250002 0.445313,0 0.714844,0.2929688 0.714844,0.79687502 0,0.515625 -0.375,1.0078125 -0.75,1.453125 C 31.482305,1.1905781 31.15418,1.5304219 30.814336,1.8585469 v 0.140625 h 2.238281 c 0.08203,-0.2695313 0.140625,-0.5390625 0.210938,-0.7851563 z m 10.514649,-1.36816409 -0.05859,-0.1640625 c -0.08203,0.046875 -0.222656,0.10546875 -0.375,0.10546875 -0.152344,0 -0.339844,-0.09375 -0.339844,-0.57421875 V -2.3924297 h 0.632813 c 0.07031,-0.035156 0.09375,-0.1757812 0.03516,-0.234375 h -0.667969 v -0.8203125 l -0.09375,-0.011719 -0.386719,0.3984375 v 0.4335937 h -0.269531 l -0.164062,0.1757813 0.02344,0.058594 h 0.410156 v 1.74609376 c 0,0.48046875 0.210938,0.71484375 0.585938,0.71484375 0.05859,0 0.152344,-0.0234375 0.257812,-0.08203125 z m 1.467773,-0.76464844 c 0.140625,-0.22265627 0.386719,-0.46874997 0.714844,-0.46874997 0.316406,0 0.574219,0.1875 0.574219,0.56249997 0,0.4453125 -0.410157,0.6796875 -0.960938,0.84375 l 0.03516,0.17578125 c 0.09375,-0.0234375 0.246094,-0.05859375 0.386719,-0.05859375 0.339844,0 0.761719,0.22265625 0.761719,0.7734375 0,0.58593753 -0.304688,0.91406253 -0.726563,0.91406253 -0.339843,0 -0.585937,-0.1757813 -0.738281,-0.3164063 -0.04687,-0.035156 -0.105469,-0.035156 -0.152344,0 -0.04687,0.046875 -0.128906,0.1289063 -0.128906,0.1992188 -0.01172,0.070312 0.01172,0.140625 0.09375,0.2226562 0.07031,0.070312 0.316406,0.1992188 0.597656,0.1992188 0.433594,0 1.570313,-0.4453125 1.570313,-1.41796878 0,-0.43359375 -0.304688,-0.80859375 -0.832031,-0.9140625 v -0.0117188 c 0.175781,-0.1171875 0.316406,-0.22265625 0.410156,-0.31640625 0.105469,-0.1171875 0.1875,-0.2578125 0.1875,-0.43359367 0,-0.4453125 -0.363281,-0.7851563 -0.902344,-0.7851563 -0.316406,0 -0.585937,0.1523438 -0.761719,0.3398438 l -0.257812,0.375 z m 0,0"
         style="fill:#231f20;fill-opacity:1;fill-rule:nonzero;stroke:none"
         aria-label="t&#10;0&#10;t&#10;1&#10;t&#10;2&#10;t&#10;3"
         transform="matrix(1.3333333,0,0,1.3333333,154.84,13.436)" />
      <path
         id="path22"
         d="M 1196.15,1920.97 154.766,1410.91"
         style="fill:none;stroke:#231f20;stroke-width:5;stroke-linecap:butt;stroke-linejoin:miter;stroke-miterlimit:10;stroke-dasharray:none;stroke-opacity:1"
         transform="matrix(0.13333333,0,0,-0.13333333,0,275.93333)" />
      <path
         id="path23"
         d="m 1327.2,1920.97 498.23,-510.06"
         style="fill:none;stroke:#231f20;stroke-width:5;stroke-linecap:butt;stroke-linejoin:miter;stroke-miterlimit:10;stroke-dasharray:none;stroke-opacity:1"
         transform="matrix(0.13333333,0,0,-0.13333333,0,275.93333)" />
      <path
         id="path24"
         d="M 1465.41,1920.97 2512.36,1553.21"
         style="fill:none;stroke:#231f20;stroke-width:5;stroke-linecap:butt;stroke-linejoin:miter;stroke-miterlimit:10;stroke-dasharray:none;stroke-opacity:1"
         transform="matrix(0.13333333,0,0,-0.13333333,0,275.93333)" />
      <path
         id="path25"
         d="m 1602.9,1920.97 909.46,-267.86"
         style="fill:none;stroke:#231f20;stroke-width:5;stroke-linecap:butt;stroke-linejoin:miter;stroke-miterlimit:10;stroke-dasharray:none;stroke-opacity:1"
         transform="matrix(0.13333333,0,0,-0.13333333,0,275.93333)" />
      <path
         id="path26"
         d="M 1954.6,479.91 H 839.133 V 651.07 H 1954.6 V 479.91"
         style="fill:#e5e4e4;fill-opacity:1;fill-rule:nonzero;stroke:none"
         transform="matrix(0.13333333,0,0,-0.13333333,0,275.93333)" />
      <path
         id="path27"
         d="M 839.188,652.699 H 1954.6 V 481.539 H 839.188 Z"
         style="fill:none;stroke:#231f20;stroke-width:5;stroke-linecap:butt;stroke-linejoin:miter;stroke-miterlimit:10;stroke-dasharray:none;stroke-opacity:1"
         transform="matrix(0.13333333,0,0,-0.13333333,0,275.93333)" />
      <path
         id="path28"
         d="M 1675.81,652.699 V 481.539"
         style="fill:none;stroke:#231f20;stroke-width:5;stroke-linecap:butt;stroke-linejoin:miter;stroke-miterlimit:10;stroke-dasharray:none;stroke-opacity:1"
         transform="matrix(0.13333333,0,0,-0.13333333,0,275.93333)" />
      <path
         id="path29"
         d="M 1396.94,652.699 V 481.539"
         style="fill:none;stroke:#231f20;stroke-width:5;stroke-linecap:butt;stroke-linejoin:miter;stroke-miterlimit:10;stroke-dasharray:none;stroke-opacity:1"
         transform="matrix(0.13333333,0,0,-0.13333333,0,275.93333)" />
      <path
         id="path30"
         d="M 1118.07,652.699 V 481.539"
         style="fill:none;stroke:#231f20;stroke-width:5;stroke-linecap:butt;stroke-linejoin:miter;stroke-miterlimit:10;stroke-dasharray:none;stroke-opacity:1"
         transform="matrix(0.13333333,0,0,-0.13333333,0,275.93333)" />
      <g
         id="g30"
         aria-label="ox[0]&#10;ox[1]&#10;ox[2]&#10;ox[3]&#10;..."
         transform="matrix(1.3333333,0,0,1.3333333,114.8464,204.12133)">
        <path
           id="path31"
           d="M 3.7040672,-2.9650234 C 3.3407859,-3.3165859 2.9189109,-3.4923672 2.4150047,-3.4923672 c -0.515625,0 -0.9492188,0.1757813 -1.3125,0.5273438 -0.35156251,0.3515625 -0.53906251,0.7851562 -0.53906251,1.2890625 0,0.4921875 0.1875,0.91406246 0.53906251,1.26562496 0.3632812,0.36328125 0.796875,0.5390625 1.3125,0.5390625 0.5039062,0 0.9257812,-0.17578125 1.2890625,-0.52734375 0.3632812,-0.36328125 0.5390625,-0.78515621 0.5390625,-1.27734371 0,-0.5039063 -0.1757813,-0.9375 -0.5390625,-1.2890625 z m -0.234375,2.33203121 c -0.2929688,0.29296875 -0.6445313,0.43359375 -1.0546875,0.43359375 -0.4335938,0 -0.7851563,-0.140625 -1.078125,-0.4453125 -0.2929688,-0.28125 -0.44531251,-0.63281246 -0.44531251,-1.04296876 0,-0.4101562 0.15234371,-0.75 0.44531251,-1.0546875 0.2929687,-0.28125 0.6445312,-0.421875 1.078125,-0.421875 0.4101562,0 0.7617187,0.140625 1.0546875,0.421875 0.3046875,0.2929688 0.4453125,0.6445313 0.4453125,1.0546875 0,0.4101563 -0.140625,0.76171876 -0.4453125,1.05468751 z M 8.7724266,-3.0587734 c 0.082031,0 0.1523437,-0.011719 0.1757812,-0.011719 0.023437,-0.011719 0.046875,-0.035156 0.058594,-0.058594 0.023437,-0.035156 0.035156,-0.058594 0.035156,-0.09375 0,-0.046875 -0.011719,-0.082031 -0.046875,-0.1171875 -0.046875,-0.035156 -0.09375,-0.046875 -0.1640625,-0.046875 H 7.9286766 c -0.082031,0 -0.140625,0.011719 -0.1757813,0.046875 -0.035156,0.035156 -0.046875,0.070312 -0.046875,0.1171875 0,0.046875 0.011719,0.082031 0.046875,0.1171875 0.035156,0.035156 0.09375,0.046875 0.1640625,0.046875 h 0.375 L 7.2021141,-1.9923672 6.1005516,-3.0587734 h 0.3867187 c 0.082031,0 0.140625,-0.011719 0.1640625,-0.046875 0.035156,-0.035156 0.058594,-0.058594 0.058594,-0.1171875 0,-0.046875 -0.023437,-0.082031 -0.058594,-0.1171875 -0.023437,-0.035156 -0.082031,-0.046875 -0.1640625,-0.046875 h -0.890625 c -0.082031,0 -0.140625,0.011719 -0.1757812,0.046875 -0.035156,0.035156 -0.058594,0.070312 -0.058594,0.1171875 0,0.023437 0.011719,0.058594 0.035156,0.09375 0.023437,0.023437 0.046875,0.046875 0.070312,0.058594 0.023437,0 0.082031,0.011719 0.1757812,0.011719 l 1.3359375,1.2773437 -1.5,1.45312501 c -0.1054687,0 -0.1640625,0.0117188 -0.1875,0.0117188 -0.023437,0.0117188 -0.046875,0.0234375 -0.070312,0.0585938 -0.023437,0.0234375 -0.035156,0.0585938 -0.035156,0.09375 0,0.046875 0.023437,0.08203125 0.058594,0.1171875 0.035156,0.03515625 0.09375,0.0468750025 0.1640625,0.0468750025 h 1.0664063 c 0.082031,0 0.1289062,-0.0117187525 0.1757812,-0.0468750025 0.035156,-0.03515625 0.046875,-0.0703125 0.046875,-0.1171875 0,-0.046875 -0.011719,-0.09375 -0.046875,-0.1171875 -0.035156,-0.0351563 -0.09375,-0.046875 -0.1757812,-0.046875 H 5.9482078 l 1.265625,-1.23046871 1.265625,1.23046871 H 7.9403953 c -0.082031,0 -0.140625,0.0117188 -0.1757812,0.046875 -0.035156,0.0234375 -0.046875,0.0703125 -0.046875,0.1171875 0,0.046875 0.011719,0.08203125 0.046875,0.1171875 0.035156,0.03515625 0.09375,0.0468750025 0.1757812,0.0468750025 h 1.0546875 c 0.082031,0 0.140625,-0.0117187525 0.1757813,-0.0468750025 0.035156,-0.03515625 0.046875,-0.0703125 0.046875,-0.1171875 0,-0.0351563 -0.011719,-0.0703125 -0.035156,-0.09375 -0.011719,-0.0351563 -0.035156,-0.046875 -0.058594,-0.0585938 -0.023437,0 -0.09375,-0.0117188 -0.1875,-0.0117188 l -1.5,-1.44140621 z m 4.1777344,-1.5234375 c 0.08203,0 0.140625,-0.011719 0.175781,-0.046875 0.02344,-0.035156 0.04687,-0.058594 0.04687,-0.1054688 0,-0.046875 -0.02344,-0.09375 -0.04687,-0.1289062 -0.03516,-0.023437 -0.09375,-0.046875 -0.175781,-0.046875 H 11.83688 v 5.9179687 h 1.113281 c 0.08203,0 0.140625,-0.0117187 0.175781,-0.046875 0.02344,-0.0234375 0.04687,-0.0703125 0.04687,-0.1171875 0,-0.046875 -0.02344,-0.09375 -0.04687,-0.1171875 -0.03516,-0.0351563 -0.09375,-0.046875 -0.175781,-0.046875 h -0.785156 v -5.2617187 z m 5.270508,0.9375 c -0.04687,-0.1523438 -0.105469,-0.328125 -0.199219,-0.515625 -0.08203,-0.1992188 -0.175781,-0.328125 -0.246094,-0.421875 -0.117187,-0.140625 -0.257812,-0.2460938 -0.433593,-0.328125 -0.175782,-0.070312 -0.351563,-0.1054688 -0.550782,-0.1054688 -0.398437,0 -0.726562,0.1523438 -0.984375,0.4804688 -0.339843,0.4101562 -0.515625,0.9726562 -0.515625,1.6757812 v 0.8085938 c 0,0.3046875 0.03516,0.5625 0.09375,0.7851562 0.03516,0.1640625 0.105469,0.33984376 0.1875,0.52734376 0.105469,0.1875 0.175782,0.328125 0.257813,0.41015625 0.117187,0.140625 0.257812,0.24609375 0.433594,0.3281250025 C 16.4277,0.07013281 16.6152,0.11700781 16.814419,0.11700781 c 0.398437,0 0.726562,-0.1640625 0.984375,-0.48046875 0.339844,-0.421875 0.503906,-0.98437496 0.503906,-1.68749996 v -0.8085938 c 0,-0.3046875 -0.02344,-0.5625 -0.08203,-0.7851562 z m -0.246094,1.5585937 c 0,0.4921875 -0.105469,0.9375 -0.304687,1.31250001 -0.210938,0.375 -0.503907,0.5625 -0.855469,0.5625 -0.199219,0 -0.363281,-0.0585938 -0.503906,-0.140625 -0.105469,-0.0703125 -0.199219,-0.140625 -0.257813,-0.234375 -0.105469,-0.1640625 -0.210937,-0.375 -0.304687,-0.63281251 -0.08203,-0.28125 -0.128907,-0.5625 -0.128907,-0.8671875 v -0.7265625 c 0,-0.5039062 0.105469,-0.9375 0.316407,-1.3125 0.210937,-0.375 0.492187,-0.5625 0.867187,-0.5625 0.1875,0 0.351563,0.046875 0.492188,0.1289063 0.105468,0.070312 0.199218,0.1523437 0.257812,0.2460937 0.117188,0.1523438 0.210938,0.3632813 0.292969,0.6328125 0.09375,0.2695313 0.128906,0.5625 0.128906,0.8671875 z m 2.677734,2.76562501 c -0.08203,0 -0.128906,0.0117188 -0.164062,0.046875 -0.03516,0.0351563 -0.04687,0.0703125 -0.04687,0.1171875 0,0.046875 0.01172,0.09375 0.04687,0.1171875 0.03516,0.0351563 0.08203,0.046875 0.164062,0.046875 h 1.125 v -5.9179687 h -1.125 c -0.08203,0 -0.128906,0.023437 -0.164062,0.046875 -0.03516,0.035156 -0.04687,0.082031 -0.04687,0.1289062 0,0.046875 0.01172,0.070312 0.04687,0.1054688 0.03516,0.035156 0.08203,0.046875 0.164062,0.046875 h 0.796875 V 0.67950781 Z M 31.61227,-2.9650234 c -0.363281,-0.3515625 -0.785156,-0.5273438 -1.289062,-0.5273438 -0.515625,0 -0.949219,0.1757813 -1.3125,0.5273438 -0.351563,0.3515625 -0.539063,0.7851562 -0.539063,1.2890625 0,0.4921875 0.1875,0.91406246 0.539063,1.26562496 0.363281,0.36328125 0.796875,0.5390625 1.3125,0.5390625 0.503906,0 0.925781,-0.17578125 1.289062,-0.52734375 0.363282,-0.36328125 0.539063,-0.78515621 0.539063,-1.27734371 0,-0.5039063 -0.175781,-0.9375 -0.539063,-1.2890625 z m -0.234375,2.33203121 c -0.292968,0.29296875 -0.644531,0.43359375 -1.054687,0.43359375 -0.433594,0 -0.785156,-0.140625 -1.078125,-0.4453125 -0.292969,-0.28125 -0.445313,-0.63281246 -0.445313,-1.04296876 0,-0.4101562 0.152344,-0.75 0.445313,-1.0546875 0.292969,-0.28125 0.644531,-0.421875 1.078125,-0.421875 0.410156,0 0.761719,0.140625 1.054687,0.421875 0.304688,0.2929688 0.445313,0.6445313 0.445313,1.0546875 0,0.4101563 -0.140625,0.76171876 -0.445313,1.05468751 z M 36.68063,-3.0587734 c 0.08203,0 0.152343,-0.011719 0.175781,-0.011719 0.02344,-0.011719 0.04687,-0.035156 0.05859,-0.058594 0.02344,-0.035156 0.03516,-0.058594 0.03516,-0.09375 0,-0.046875 -0.01172,-0.082031 -0.04687,-0.1171875 -0.04687,-0.035156 -0.09375,-0.046875 -0.164063,-0.046875 H 35.83688 c -0.08203,0 -0.140625,0.011719 -0.175782,0.046875 -0.03516,0.035156 -0.04687,0.070312 -0.04687,0.1171875 0,0.046875 0.01172,0.082031 0.04687,0.1171875 0.03516,0.035156 0.09375,0.046875 0.164063,0.046875 h 0.375 l -1.089844,1.0664062 -1.101562,-1.0664062 h 0.386718 c 0.08203,0 0.140625,-0.011719 0.164063,-0.046875 0.03516,-0.035156 0.05859,-0.058594 0.05859,-0.1171875 0,-0.046875 -0.02344,-0.082031 -0.05859,-0.1171875 -0.02344,-0.035156 -0.08203,-0.046875 -0.164063,-0.046875 h -0.890625 c -0.08203,0 -0.140625,0.011719 -0.175781,0.046875 -0.03516,0.035156 -0.05859,0.070312 -0.05859,0.1171875 0,0.023437 0.01172,0.058594 0.03516,0.09375 0.02344,0.023437 0.04687,0.046875 0.07031,0.058594 0.02344,0 0.08203,0.011719 0.175781,0.011719 l 1.335938,1.2773437 -1.5,1.45312501 c -0.105469,0 -0.164063,0.0117188 -0.1875,0.0117188 -0.02344,0.0117188 -0.04687,0.0234375 -0.07031,0.0585938 -0.02344,0.0234375 -0.03516,0.0585938 -0.03516,0.09375 0,0.046875 0.02344,0.08203125 0.05859,0.1171875 0.03516,0.03515625 0.09375,0.0468750025 0.164062,0.0468750025 h 1.066407 c 0.08203,0 0.128906,-0.0117187525 0.175781,-0.0468750025 0.03516,-0.03515625 0.04687,-0.0703125 0.04687,-0.1171875 0,-0.046875 -0.01172,-0.09375 -0.04687,-0.1171875 -0.03516,-0.0351563 -0.09375,-0.046875 -0.175781,-0.046875 h -0.527344 l 1.265625,-1.23046871 1.265625,1.23046871 h -0.539063 c -0.08203,0 -0.140625,0.0117188 -0.175781,0.046875 -0.03516,0.0234375 -0.04687,0.0703125 -0.04687,0.1171875 0,0.046875 0.01172,0.08203125 0.04687,0.1171875 0.03516,0.03515625 0.09375,0.0468750025 0.175781,0.0468750025 h 1.054688 c 0.08203,0 0.140625,-0.0117187525 0.175781,-0.0468750025 0.03516,-0.03515625 0.04687,-0.0703125 0.04687,-0.1171875 0,-0.0351563 -0.01172,-0.0703125 -0.03516,-0.09375 -0.01172,-0.0351563 -0.03516,-0.046875 -0.05859,-0.0585938 -0.02344,0 -0.09375,-0.0117188 -0.1875,-0.0117188 l -1.5,-1.44140621 z m 4.180664,-1.5234375 c 0.08203,0 0.140625,-0.011719 0.175781,-0.046875 0.02344,-0.035156 0.04687,-0.058594 0.04687,-0.1054688 0,-0.046875 -0.02344,-0.09375 -0.04687,-0.1289062 -0.03516,-0.023437 -0.09375,-0.046875 -0.175781,-0.046875 h -1.113281 v 5.9179687 h 1.113281 c 0.08203,0 0.140625,-0.0117187 0.175781,-0.046875 0.02344,-0.0234375 0.04687,-0.0703125 0.04687,-0.1171875 0,-0.046875 -0.02344,-0.09375 -0.04687,-0.1171875 -0.03516,-0.0351563 -0.09375,-0.046875 -0.175781,-0.046875 h -0.785156 v -5.2617187 z m 2.513672,0.082031 c -0.07031,0.023437 -0.117188,0.046875 -0.128907,0.070312 -0.03516,0.035156 -0.04687,0.070312 -0.04687,0.1054688 0,0.046875 0.02344,0.09375 0.05859,0.1171875 0.02344,0.035156 0.05859,0.058594 0.09375,0.058594 0.03516,0 0.07031,-0.011719 0.128906,-0.035156 l 1.066407,-0.328125 v 4.18359371 h -1.136719 c -0.08203,0 -0.128906,0.0117188 -0.164063,0.046875 -0.03516,0.0234375 -0.04687,0.0703125 -0.04687,0.1171875 0,0.046875 0.01172,0.08203125 0.04687,0.1171875 0.03516,0.03515625 0.08203,0.0468750025 0.164063,0.0468750025 h 2.589844 c 0.08203,0 0.128906,-0.0117187525 0.164062,-0.0468750025 0.03516,-0.03515625 0.04687,-0.0703125 0.04687,-0.1171875 0,-0.046875 -0.01172,-0.09375 -0.04687,-0.1171875 -0.03516,-0.0351563 -0.08203,-0.046875 -0.164062,-0.046875 h -1.125 V -4.9689297 Z m 5.188476,5.17968751 c -0.08203,0 -0.128906,0.0117188 -0.164062,0.046875 -0.03516,0.0351563 -0.04687,0.0703125 -0.04687,0.1171875 0,0.046875 0.01172,0.09375 0.04687,0.1171875 0.03516,0.0351563 0.08203,0.046875 0.164062,0.046875 h 1.125 v -5.9179687 h -1.125 c -0.08203,0 -0.128906,0.023437 -0.164062,0.046875 -0.03516,0.035156 -0.04687,0.082031 -0.04687,0.1289062 0,0.046875 0.01172,0.070312 0.04687,0.1054688 0.03516,0.035156 0.08203,0.046875 0.164062,0.046875 h 0.796875 V 0.67950781 Z M 59.523403,-2.9650234 c -0.363281,-0.3515625 -0.785156,-0.5273438 -1.289062,-0.5273438 -0.515625,0 -0.949219,0.1757813 -1.3125,0.5273438 -0.351563,0.3515625 -0.539063,0.7851562 -0.539063,1.2890625 0,0.4921875 0.1875,0.91406246 0.539063,1.26562496 0.363281,0.36328125 0.796875,0.5390625 1.3125,0.5390625 0.503906,0 0.925781,-0.17578125 1.289062,-0.52734375 0.363281,-0.36328125 0.539063,-0.78515621 0.539063,-1.27734371 0,-0.5039063 -0.175782,-0.9375 -0.539063,-1.2890625 z m -0.234375,2.33203121 c -0.292969,0.29296875 -0.644531,0.43359375 -1.054687,0.43359375 -0.433594,0 -0.785157,-0.140625 -1.078125,-0.4453125 -0.292969,-0.28125 -0.445313,-0.63281246 -0.445313,-1.04296876 0,-0.4101562 0.152344,-0.75 0.445313,-1.0546875 0.292968,-0.28125 0.644531,-0.421875 1.078125,-0.421875 0.410156,0 0.761718,0.140625 1.054687,0.421875 0.304688,0.2929688 0.445313,0.6445313 0.445313,1.0546875 0,0.4101563 -0.140625,0.76171876 -0.445313,1.05468751 z m 5.302735,-2.42578121 c 0.08203,0 0.152343,-0.011719 0.175781,-0.011719 0.02344,-0.011719 0.04687,-0.035156 0.05859,-0.058594 0.02344,-0.035156 0.03516,-0.058594 0.03516,-0.09375 0,-0.046875 -0.01172,-0.082031 -0.04687,-0.1171875 -0.04687,-0.035156 -0.09375,-0.046875 -0.164063,-0.046875 h -0.902343 c -0.08203,0 -0.140625,0.011719 -0.175782,0.046875 -0.03516,0.035156 -0.04687,0.070312 -0.04687,0.1171875 0,0.046875 0.01172,0.082031 0.04687,0.1171875 0.03516,0.035156 0.09375,0.046875 0.164063,0.046875 h 0.375 l -1.089844,1.0664062 -1.101562,-1.0664062 h 0.386718 c 0.08203,0 0.140625,-0.011719 0.164063,-0.046875 0.03516,-0.035156 0.05859,-0.058594 0.05859,-0.1171875 0,-0.046875 -0.02344,-0.082031 -0.05859,-0.1171875 -0.02344,-0.035156 -0.08203,-0.046875 -0.164063,-0.046875 h -0.890625 c -0.08203,0 -0.140625,0.011719 -0.175781,0.046875 -0.03516,0.035156 -0.05859,0.070312 -0.05859,0.1171875 0,0.023437 0.01172,0.058594 0.03516,0.09375 0.02344,0.023437 0.04687,0.046875 0.07031,0.058594 0.02344,0 0.08203,0.011719 0.175781,0.011719 l 1.335938,1.2773437 -1.5,1.45312501 c -0.105469,0 -0.164063,0.0117188 -0.1875,0.0117188 -0.02344,0.0117188 -0.04687,0.0234375 -0.07031,0.0585938 -0.02344,0.0234375 -0.03516,0.0585938 -0.03516,0.09375 0,0.046875 0.02344,0.08203125 0.05859,0.1171875 0.03516,0.03515625 0.09375,0.0468750025 0.164062,0.0468750025 h 1.066407 c 0.08203,0 0.128906,-0.0117187525 0.175781,-0.0468750025 0.03516,-0.03515625 0.04687,-0.0703125 0.04687,-0.1171875 0,-0.046875 -0.01172,-0.09375 -0.04687,-0.1171875 -0.03516,-0.0351563 -0.09375,-0.046875 -0.175781,-0.046875 h -0.527344 l 1.265625,-1.23046871 1.265625,1.23046871 h -0.539063 c -0.08203,0 -0.140625,0.0117188 -0.175781,0.046875 -0.03516,0.0234375 -0.04687,0.0703125 -0.04687,0.1171875 0,0.046875 0.01172,0.08203125 0.04687,0.1171875 0.03516,0.03515625 0.09375,0.0468750025 0.175781,0.0468750025 h 1.054688 c 0.08203,0 0.140625,-0.0117187525 0.175781,-0.0468750025 0.03516,-0.03515625 0.04687,-0.0703125 0.04687,-0.1171875 0,-0.0351563 -0.01172,-0.0703125 -0.03516,-0.09375 -0.01172,-0.0351563 -0.03516,-0.046875 -0.05859,-0.0585938 -0.02344,0 -0.09375,-0.0117188 -0.1875,-0.0117188 l -1.5,-1.44140621 z m 4.180664,-1.5234375 c 0.08203,0 0.140625,-0.011719 0.175781,-0.046875 0.02344,-0.035156 0.04687,-0.058594 0.04687,-0.1054688 0,-0.046875 -0.02344,-0.09375 -0.04687,-0.1289062 -0.03516,-0.023437 -0.09375,-0.046875 -0.175781,-0.046875 h -1.113282 v 5.9179687 h 1.113282 c 0.08203,0 0.140625,-0.0117187 0.175781,-0.046875 0.02344,-0.0234375 0.04687,-0.0703125 0.04687,-0.1171875 0,-0.046875 -0.02344,-0.09375 -0.04687,-0.1171875 -0.03516,-0.0351563 -0.09375,-0.046875 -0.175781,-0.046875 H 67.98727 v -5.2617187 z m 2.443359,4.23046871 c 0.480469,-0.421875 1.113281,-1.00781251 1.875,-1.78125001 0.304687,-0.2929687 0.527344,-0.515625 0.632812,-0.6679687 0.117188,-0.1523438 0.210938,-0.2929688 0.257813,-0.421875 0.04687,-0.1171875 0.07031,-0.2460938 0.07031,-0.3984375 0,-0.3632813 -0.140625,-0.6796875 -0.433593,-0.9726563 -0.304688,-0.28125 -0.65625,-0.421875 -1.066407,-0.421875 -0.246093,0 -0.492187,0.058594 -0.726562,0.1757813 -0.246094,0.1289062 -0.433594,0.2929687 -0.5625,0.5039062 -0.140625,0.2109375 -0.210938,0.3867188 -0.210938,0.515625 0,0.035156 0.01172,0.070312 0.04687,0.09375 0.02344,0.035156 0.07031,0.058594 0.117188,0.058594 0.03516,0 0.08203,-0.023437 0.105469,-0.046875 0.02344,-0.011719 0.04687,-0.058594 0.05859,-0.1171875 0.05859,-0.2460938 0.210938,-0.4453125 0.433594,-0.609375 0.210938,-0.1640625 0.46875,-0.2460938 0.75,-0.2460938 0.316406,0 0.597656,0.1054688 0.820313,0.3164063 0.234375,0.2226562 0.339843,0.46875 0.339843,0.75 0,0.1054687 -0.02344,0.2109375 -0.05859,0.3046875 -0.04687,0.1054687 -0.117188,0.2226562 -0.222657,0.3632812 -0.105468,0.140625 -0.304687,0.3515625 -0.609375,0.6445313 -0.632812,0.609375 -1.277343,1.21875 -1.945312,1.81640621 v 0.4921875025 h 3.164062 V -0.45721094 c 0,-0.0820312 -0.01172,-0.140625 -0.04687,-0.1640625 -0.03516,-0.0351563 -0.07031,-0.046875 -0.117187,-0.046875 -0.04687,0 -0.08203,0.0117188 -0.117188,0.046875 -0.02344,0.0234375 -0.04687,0.0820313 -0.04687,0.1640625 v 0.12890625 h -2.507812 z m 5.258789,1.03125 c -0.08203,0 -0.128906,0.0117188 -0.164062,0.046875 -0.03516,0.0351563 -0.04687,0.0703125 -0.04687,0.1171875 0,0.046875 0.01172,0.09375 0.04687,0.1171875 0.03516,0.0351563 0.08203,0.046875 0.164062,0.046875 h 1.125 v -5.9179687 h -1.125 c -0.08203,0 -0.128906,0.023437 -0.164062,0.046875 -0.03516,0.035156 -0.04687,0.082031 -0.04687,0.1289062 0,0.046875 0.01172,0.070312 0.04687,0.1054688 0.03516,0.035156 0.08203,0.046875 0.164062,0.046875 H 77.27145 V 0.67950781 Z M 87.431606,-2.9650234 c -0.363281,-0.3515625 -0.785156,-0.5273438 -1.289062,-0.5273438 -0.515625,0 -0.949219,0.1757813 -1.3125,0.5273438 -0.351563,0.3515625 -0.539063,0.7851562 -0.539063,1.2890625 0,0.4921875 0.1875,0.91406246 0.539063,1.26562496 0.363281,0.36328125 0.796875,0.5390625 1.3125,0.5390625 0.503906,0 0.925781,-0.17578125 1.289062,-0.52734375 0.363282,-0.36328125 0.539063,-0.78515621 0.539063,-1.27734371 0,-0.5039063 -0.175781,-0.9375 -0.539063,-1.2890625 z m -0.234375,2.33203121 c -0.292968,0.29296875 -0.644531,0.43359375 -1.054687,0.43359375 -0.433594,0 -0.785156,-0.140625 -1.078125,-0.4453125 -0.292969,-0.28125 -0.445313,-0.63281246 -0.445313,-1.04296876 0,-0.4101562 0.152344,-0.75 0.445313,-1.0546875 0.292969,-0.28125 0.644531,-0.421875 1.078125,-0.421875 0.410156,0 0.761719,0.140625 1.054687,0.421875 0.304688,0.2929688 0.445313,0.6445313 0.445313,1.0546875 0,0.4101563 -0.140625,0.76171876 -0.445313,1.05468751 z m 5.302735,-2.42578121 c 0.08203,0 0.152343,-0.011719 0.175781,-0.011719 0.02344,-0.011719 0.04687,-0.035156 0.05859,-0.058594 0.02344,-0.035156 0.03516,-0.058594 0.03516,-0.09375 0,-0.046875 -0.01172,-0.082031 -0.04687,-0.1171875 -0.04687,-0.035156 -0.09375,-0.046875 -0.164063,-0.046875 h -0.902343 c -0.08203,0 -0.140625,0.011719 -0.175782,0.046875 -0.03516,0.035156 -0.04687,0.070312 -0.04687,0.1171875 0,0.046875 0.01172,0.082031 0.04687,0.1171875 0.03516,0.035156 0.09375,0.046875 0.164063,0.046875 h 0.375 l -1.089844,1.0664062 -1.101562,-1.0664062 h 0.386718 c 0.08203,0 0.140625,-0.011719 0.164063,-0.046875 0.03516,-0.035156 0.05859,-0.058594 0.05859,-0.1171875 0,-0.046875 -0.02344,-0.082031 -0.05859,-0.1171875 -0.02344,-0.035156 -0.08203,-0.046875 -0.164063,-0.046875 h -0.890625 c -0.08203,0 -0.140625,0.011719 -0.175781,0.046875 -0.03516,0.035156 -0.05859,0.070312 -0.05859,0.1171875 0,0.023437 0.01172,0.058594 0.03516,0.09375 0.02344,0.023437 0.04687,0.046875 0.07031,0.058594 0.02344,0 0.08203,0.011719 0.175781,0.011719 l 1.335938,1.2773437 -1.5,1.45312501 c -0.105469,0 -0.164063,0.0117188 -0.1875,0.0117188 -0.02344,0.0117188 -0.04687,0.0234375 -0.07031,0.0585938 -0.02344,0.0234375 -0.03516,0.0585938 -0.03516,0.09375 0,0.046875 0.02344,0.08203125 0.05859,0.1171875 0.03516,0.03515625 0.09375,0.0468750025 0.164062,0.0468750025 h 1.066407 c 0.08203,0 0.128906,-0.0117187525 0.175781,-0.0468750025 0.03516,-0.03515625 0.04687,-0.0703125 0.04687,-0.1171875 0,-0.046875 -0.01172,-0.09375 -0.04687,-0.1171875 -0.03516,-0.0351563 -0.09375,-0.046875 -0.175781,-0.046875 h -0.527344 l 1.265625,-1.23046871 1.265625,1.23046871 h -0.539063 c -0.08203,0 -0.140625,0.0117188 -0.175781,0.046875 -0.03516,0.0234375 -0.04687,0.0703125 -0.04687,0.1171875 0,0.046875 0.01172,0.08203125 0.04687,0.1171875 0.03516,0.03515625 0.09375,0.0468750025 0.175781,0.0468750025 h 1.054688 c 0.08203,0 0.140625,-0.0117187525 0.175781,-0.0468750025 0.03516,-0.03515625 0.04687,-0.0703125 0.04687,-0.1171875 0,-0.0351563 -0.01172,-0.0703125 -0.03516,-0.09375 -0.01172,-0.0351563 -0.03516,-0.046875 -0.05859,-0.0585938 -0.02344,0 -0.09375,-0.0117188 -0.1875,-0.0117188 l -1.5,-1.44140621 z m 4.180664,-1.5234375 c 0.08203,0 0.140625,-0.011719 0.175781,-0.046875 0.02344,-0.035156 0.04687,-0.058594 0.04687,-0.1054688 0,-0.046875 -0.02344,-0.09375 -0.04687,-0.1289062 -0.03516,-0.023437 -0.09375,-0.046875 -0.175781,-0.046875 h -1.113282 v 5.9179687 h 1.113282 c 0.08203,0 0.140625,-0.0117187 0.175781,-0.046875 0.02344,-0.0234375 0.04687,-0.0703125 0.04687,-0.1171875 0,-0.046875 -0.02344,-0.09375 -0.04687,-0.1171875 -0.03516,-0.0351563 -0.09375,-0.046875 -0.175781,-0.046875 h -0.785157 v -5.2617187 z m 5.08008,1.453125 c 0.1289,-0.1992188 0.1875,-0.4101563 0.1875,-0.6210938 0,-0.3515625 -0.12891,-0.6445312 -0.39844,-0.890625 -0.25781,-0.2460937 -0.59766,-0.375 -1.00781,-0.375 -0.41016,0 -0.761721,0.1054688 -1.089846,0.328125 -0.222656,0.1523438 -0.328125,0.2929688 -0.328125,0.3984375 0,0.035156 0.01172,0.082031 0.04687,0.1054688 0.03516,0.035156 0.05859,0.046875 0.105469,0.046875 0.03516,0 0.05859,-0.011719 0.08203,-0.011719 0.02344,-0.023437 0.04687,-0.058594 0.09375,-0.1054687 0.117188,-0.1289063 0.269531,-0.2460938 0.457031,-0.3164063 0.199211,-0.082031 0.398431,-0.1171875 0.632811,-0.1171875 0.3164,0 0.57422,0.09375 0.78515,0.28125 0.19922,0.1875 0.29297,0.4101563 0.29297,0.6445313 0,0.234375 -0.0937,0.4453125 -0.28125,0.6210937 -0.19922,0.1875 -0.43359,0.2695313 -0.72656,0.2695313 h -0.29297 c -0.0586,0 -0.10547,0.011719 -0.14062,0.046875 -0.0352,0.035156 -0.0469,0.070312 -0.0469,0.1171875 0,0.058594 0.0117,0.09375 0.0469,0.1171875 0.0352,0.035156 0.0937,0.046875 0.16406,0.046875 0.24609,0 0.49219,0.058594 0.72656,0.1640625 0.23438,0.1171875 0.42188,0.2578125 0.53906,0.4453125 0.12891,0.1875 0.1875,0.375 0.1875,0.5742187 0,0.28125 -0.11718,0.55078126 -0.375,0.79687501 -0.25781,0.22265625 -0.57421,0.3515625 -0.96093,0.3515625 -0.44532,0 -0.878906,-0.15234375 -1.289062,-0.45703125 -0.04687,-0.0351563 -0.09375,-0.046875 -0.128906,-0.046875 -0.04687,0 -0.08203,0.0117188 -0.105469,0.046875 -0.03516,0.0234375 -0.04687,0.0585938 -0.04687,0.10546875 0,0.046875 0.01172,0.09375 0.05859,0.12890625 0.117187,0.12890625 0.328125,0.24609375 0.632812,0.375 0.304688,0.1171875 0.597665,0.17578125 0.878915,0.17578125 0.48047,0 0.86718,-0.15234375 1.19531,-0.45703125 0.31641,-0.3046875 0.46875,-0.64453125 0.46875,-1.03124996 0,-0.2578125 -0.0703,-0.5039063 -0.23438,-0.7382813 -0.15234,-0.234375 -0.38671,-0.421875 -0.6914,-0.5507812 0.24609,-0.1171875 0.43359,-0.28125 0.5625,-0.46875 z m 2.61914,3.80859371 c -0.082,0 -0.12891,0.0117188 -0.16406,0.046875 -0.0352,0.0351563 -0.0469,0.0703125 -0.0469,0.1171875 0,0.046875 0.0117,0.09375 0.0469,0.1171875 0.0352,0.0351563 0.082,0.046875 0.16406,0.046875 h 1.125 v -5.9179687 h -1.125 c -0.082,0 -0.12891,0.023437 -0.16406,0.046875 -0.0352,0.035156 -0.0469,0.082031 -0.0469,0.1289062 0,0.046875 0.0117,0.070312 0.0469,0.1054688 0.0352,0.035156 0.082,0.046875 0.16406,0.046875 h 0.79687 v 5.26171872 z m 0,0"
           style="fill:#231f20;fill-opacity:1;fill-rule:nonzero;stroke:none" />
        <path
           id="path32"
           d="m 116.91305,-1.3361172 c 0.28125,0 0.50391,-0.1992187 0.50391,-0.515625 0,-0.2929687 -0.22266,-0.515625 -0.50391,-0.515625 -0.29297,0 -0.5039,0.2226563 -0.5039,0.515625 0,0.3164063 0.21093,0.515625 0.5039,0.515625 z m 2.05078,0 c 0.28125,0 0.50391,-0.1992187 0.50391,-0.515625 0,-0.2929687 -0.22266,-0.515625 -0.50391,-0.515625 -0.29297,0 -0.5039,0.2226563 -0.5039,0.515625 0,0.3164063 0.21093,0.515625 0.5039,0.515625 z m 2.05371,0 c 0.28125,0 0.50391,-0.1992187 0.50391,-0.515625 0,-0.2929687 -0.22266,-0.515625 -0.50391,-0.515625 -0.29296,0 -0.5039,0.2226563 -0.5039,0.515625 0,0.3164063 0.21094,0.515625 0.5039,0.515625 z m 0,0"
           style="fill:#231f20;fill-opacity:1;fill-rule:nonzero;stroke:none" />
      </g>
      <path
         id="path33"
         d="M 839.188,424.68 H 1954.6 V 253.512 H 839.188 Z"
         style="fill:none;stroke:#231f20;stroke-width:5;stroke-linecap:butt;stroke-linejoin:miter;stroke-miterlimit:10;stroke-dasharray:none;stroke-opacity:1"
         transform="matrix(0.13333333,0,0,-0.13333333,0,275.93333)" />
      <path
         id="path34"
         d="M 1675.81,424.68 V 253.512"
         style="fill:none;stroke:#231f20;stroke-width:5;stroke-linecap:butt;stroke-linejoin:miter;stroke-miterlimit:10;stroke-dasharray:none;stroke-opacity:1"
         transform="matrix(0.13333333,0,0,-0.13333333,0,275.93333)" />
      <path
         id="path35"
         d="M 1396.94,424.68 V 253.512"
         style="fill:none;stroke:#231f20;stroke-width:5;stroke-linecap:butt;stroke-linejoin:miter;stroke-miterlimit:10;stroke-dasharray:none;stroke-opacity:1"
         transform="matrix(0.13333333,0,0,-0.13333333,0,275.93333)" />
      <path
         id="path36"
         d="M 1118.07,424.68 V 253.512"
         style="fill:none;stroke:#231f20;stroke-width:5;stroke-linecap:butt;stroke-linejoin:miter;stroke-miterlimit:10;stroke-dasharray:none;stroke-opacity:1"
         transform="matrix(0.13333333,0,0,-0.13333333,0,275.93333)" />
      <g
         id="g36"
         aria-label="oy[0]oy[1]oy[2]oy[3]&#10;..."
         transform="matrix(1.3333333,0,0,1.3333333,114.8464,234.52653)">
        <path
           id="path37"
           d="M 3.7040672,-2.9642359 C 3.3407859,-3.3157984 2.9189109,-3.4915797 2.4150047,-3.4915797 c -0.515625,0 -0.9492188,0.1757813 -1.3125,0.5273438 -0.35156251,0.3515625 -0.53906251,0.7851562 -0.53906251,1.2890625 0,0.4921875 0.1875,0.91406246 0.53906251,1.26562496 0.3632812,0.36328125 0.796875,0.5390625 1.3125,0.5390625 0.5039062,0 0.9257812,-0.17578125 1.2890625,-0.52734375 0.3632812,-0.36328125 0.5390625,-0.78515621 0.5390625,-1.27734371 0,-0.5039063 -0.1757813,-0.9375 -0.5390625,-1.2890625 z m -0.234375,2.33203121 c -0.2929688,0.29296875 -0.6445313,0.43359375 -1.0546875,0.43359375 -0.4335938,0 -0.7851563,-0.140625 -1.078125,-0.4453125 -0.2929688,-0.28125 -0.44531251,-0.63281246 -0.44531251,-1.04296876 0,-0.4101562 0.15234371,-0.75 0.44531251,-1.0546875 0.2929687,-0.28125 0.6445312,-0.421875 1.078125,-0.421875 0.4101562,0 0.7617187,0.140625 1.0546875,0.421875 0.3046875,0.2929688 0.4453125,0.6445313 0.4453125,1.0546875 0,0.4101563 -0.140625,0.76171876 -0.4453125,1.05468751 z M 6.6513328,1.1724828 h -1.03125 c -0.070312,0 -0.1289062,0.023437 -0.1640625,0.046875 -0.035156,0.035156 -0.058594,0.070312 -0.058594,0.1171875 0,0.058594 0.023437,0.09375 0.058594,0.1171875 0.035156,0.035156 0.09375,0.046875 0.1640625,0.046875 h 1.8164063 c 0.082031,0 0.1289062,-0.011719 0.1757812,-0.046875 0.023437,-0.023437 0.046875,-0.070312 0.046875,-0.1171875 0,-0.046875 -0.023437,-0.082031 -0.046875,-0.1171875 -0.046875,-0.023437 -0.09375,-0.046875 -0.1757812,-0.046875 H 7.0028953 l 2.0742188,-4.2304687 c 0.1171875,0 0.1875,-0.011719 0.2109375,-0.011719 0.035156,-0.011719 0.046875,-0.023437 0.070312,-0.058594 0.023437,-0.023437 0.035156,-0.058594 0.035156,-0.09375 0,-0.046875 -0.011719,-0.082031 -0.046875,-0.1171875 -0.035156,-0.035156 -0.09375,-0.046875 -0.1757812,-0.046875 H 8.2919578 c -0.082031,0 -0.140625,0.011719 -0.1757812,0.046875 -0.035156,0.035156 -0.046875,0.070312 -0.046875,0.1171875 0,0.058594 0.011719,0.082031 0.046875,0.1171875 0.035156,0.035156 0.09375,0.046875 0.1757812,0.046875 H 8.7255516 L 7.4013328,-0.36267344 6.0653953,-3.0579859 h 0.4335938 c 0.082031,0 0.1289062,-0.011719 0.1757812,-0.046875 0.035156,-0.035156 0.046875,-0.070312 0.046875,-0.1171875 0,-0.046875 -0.011719,-0.082031 -0.046875,-0.1171875 -0.046875,-0.035156 -0.09375,-0.046875 -0.1757812,-0.046875 H 5.5966453 c -0.046875,0 -0.1054687,0.011719 -0.1289062,0.011719 -0.023437,0.023437 -0.046875,0.035156 -0.070312,0.058594 -0.011719,0.035156 -0.023437,0.058594 -0.023437,0.09375 0,0.046875 0.023437,0.082031 0.058594,0.1171875 0.035156,0.035156 0.082031,0.046875 0.1640625,0.046875 h 0.09375 l 1.535155,3.0585932125 z m 6.2988282,-5.7539062 c 0.08203,0 0.140625,-0.011719 0.175781,-0.046875 0.02344,-0.035156 0.04687,-0.058594 0.04687,-0.1054688 0,-0.046875 -0.02344,-0.09375 -0.04687,-0.1289062 -0.03516,-0.023437 -0.09375,-0.046875 -0.175781,-0.046875 H 11.83688 v 5.9179687 h 1.113281 c 0.08203,0 0.140625,-0.0117187 0.175781,-0.046875 0.02344,-0.0234375 0.04687,-0.0703125 0.04687,-0.1171875 0,-0.046875 -0.02344,-0.09375 -0.04687,-0.1171875 -0.03516,-0.0351563 -0.09375,-0.046875 -0.175781,-0.046875 h -0.785156 v -5.2617187 z m 5.270508,0.9375 c -0.04687,-0.1523438 -0.105469,-0.328125 -0.199219,-0.515625 -0.08203,-0.1992188 -0.175781,-0.328125 -0.246094,-0.421875 -0.117187,-0.140625 -0.257812,-0.2460938 -0.433593,-0.328125 -0.175782,-0.070312 -0.351563,-0.1054688 -0.550782,-0.1054688 -0.398437,0 -0.726562,0.1523438 -0.984375,0.4804688 -0.339843,0.4101562 -0.515625,0.9726562 -0.515625,1.6757812 v 0.8085938 c 0,0.3046875 0.03516,0.5625 0.09375,0.7851562 0.03516,0.1640625 0.105469,0.33984376 0.1875,0.52734376 0.105469,0.1875 0.175782,0.328125 0.257813,0.41015625 0.117187,0.140625 0.257812,0.24609375 0.433594,0.3281250025 C 16.4277,0.07092031 16.6152,0.11779531 16.814419,0.11779531 c 0.398437,0 0.726562,-0.1640625 0.984375,-0.48046875 0.339844,-0.421875 0.503906,-0.98437496 0.503906,-1.68749996 v -0.8085938 c 0,-0.3046875 -0.02344,-0.5625 -0.08203,-0.7851562 z m -0.246094,1.5585937 c 0,0.4921875 -0.105469,0.9375 -0.304687,1.31250001 -0.210938,0.375 -0.503907,0.5625 -0.855469,0.5625 -0.199219,0 -0.363281,-0.0585938 -0.503906,-0.140625 -0.105469,-0.0703125 -0.199219,-0.140625 -0.257813,-0.234375 -0.105469,-0.1640625 -0.210937,-0.375 -0.304687,-0.63281251 -0.08203,-0.28125 -0.128907,-0.5625 -0.128907,-0.8671875 v -0.7265625 c 0,-0.5039062 0.105469,-0.9375 0.316407,-1.3125 0.210937,-0.375 0.492187,-0.5625 0.867187,-0.5625 0.1875,0 0.351563,0.046875 0.492188,0.1289063 0.105468,0.070312 0.199218,0.1523437 0.257812,0.2460937 0.117188,0.1523438 0.210938,0.3632813 0.292969,0.6328125 0.09375,0.2695313 0.128906,0.5625 0.128906,0.8671875 z m 2.677734,2.76562501 c -0.08203,0 -0.128906,0.0117188 -0.164062,0.046875 -0.03516,0.0351563 -0.04687,0.0703125 -0.04687,0.1171875 0,0.046875 0.01172,0.09375 0.04687,0.1171875 0.03516,0.0351563 0.08203,0.046875 0.164062,0.046875 h 1.125 v -5.9179687 h -1.125 c -0.08203,0 -0.128906,0.023437 -0.164062,0.046875 -0.03516,0.035156 -0.04687,0.082031 -0.04687,0.1289062 0,0.046875 0.01172,0.070312 0.04687,0.1054688 0.03516,0.035156 0.08203,0.046875 0.164062,0.046875 h 0.796875 V 0.68029531 Z M 31.61227,-2.9642359 c -0.363281,-0.3515625 -0.785156,-0.5273438 -1.289062,-0.5273438 -0.515625,0 -0.949219,0.1757813 -1.3125,0.5273438 -0.351563,0.3515625 -0.539063,0.7851562 -0.539063,1.2890625 0,0.4921875 0.1875,0.91406246 0.539063,1.26562496 0.363281,0.36328125 0.796875,0.5390625 1.3125,0.5390625 0.503906,0 0.925781,-0.17578125 1.289062,-0.52734375 0.363282,-0.36328125 0.539063,-0.78515621 0.539063,-1.27734371 0,-0.5039063 -0.175781,-0.9375 -0.539063,-1.2890625 z m -0.234375,2.33203121 c -0.292968,0.29296875 -0.644531,0.43359375 -1.054687,0.43359375 -0.433594,0 -0.785156,-0.140625 -1.078125,-0.4453125 -0.292969,-0.28125 -0.445313,-0.63281246 -0.445313,-1.04296876 0,-0.4101562 0.152344,-0.75 0.445313,-1.0546875 0.292969,-0.28125 0.644531,-0.421875 1.078125,-0.421875 0.410156,0 0.761719,0.140625 1.054687,0.421875 0.304688,0.2929688 0.445313,0.6445313 0.445313,1.0546875 0,0.4101563 -0.140625,0.76171876 -0.445313,1.05468751 z m 3.181641,1.80468749 h -1.03125 c -0.07031,0 -0.128906,0.023437 -0.164063,0.046875 -0.03516,0.035156 -0.05859,0.070312 -0.05859,0.1171875 0,0.058594 0.02344,0.09375 0.05859,0.1171875 0.03516,0.035156 0.09375,0.046875 0.164063,0.046875 h 1.816406 c 0.08203,0 0.128906,-0.011719 0.175781,-0.046875 0.02344,-0.023437 0.04687,-0.070312 0.04687,-0.1171875 0,-0.046875 -0.02344,-0.082031 -0.04687,-0.1171875 -0.04687,-0.023437 -0.09375,-0.046875 -0.175781,-0.046875 h -0.433594 l 2.074219,-4.2304687 c 0.117188,0 0.1875,-0.011719 0.210938,-0.011719 0.03516,-0.011719 0.04687,-0.023437 0.07031,-0.058594 0.02344,-0.023437 0.03516,-0.058594 0.03516,-0.09375 0,-0.046875 -0.01172,-0.082031 -0.04687,-0.1171875 -0.03516,-0.035156 -0.09375,-0.046875 -0.175781,-0.046875 h -0.878906 c -0.08203,0 -0.140625,0.011719 -0.175781,0.046875 -0.03516,0.035156 -0.04687,0.070312 -0.04687,0.1171875 0,0.058594 0.01172,0.082031 0.04687,0.1171875 0.03516,0.035156 0.09375,0.046875 0.175781,0.046875 h 0.433594 l -1.324219,2.69531246 -1.335938,-2.69531246 h 0.433594 c 0.08203,0 0.128906,-0.011719 0.175781,-0.046875 0.03516,-0.035156 0.04687,-0.070312 0.04687,-0.1171875 0,-0.046875 -0.01172,-0.082031 -0.04687,-0.1171875 -0.04687,-0.035156 -0.09375,-0.046875 -0.175781,-0.046875 h -0.902344 c -0.04687,0 -0.105468,0.011719 -0.128906,0.011719 -0.02344,0.023437 -0.04687,0.035156 -0.07031,0.058594 -0.01172,0.035156 -0.02344,0.058594 -0.02344,0.09375 0,0.046875 0.02344,0.082031 0.05859,0.1171875 0.03516,0.035156 0.08203,0.046875 0.164062,0.046875 h 0.09375 l 1.535157,3.0585937125 z m 6.298828,-5.7539062 c 0.08203,0 0.140625,-0.011719 0.175781,-0.046875 0.02344,-0.035156 0.04687,-0.058594 0.04687,-0.1054688 0,-0.046875 -0.02344,-0.09375 -0.04687,-0.1289062 -0.03516,-0.023437 -0.09375,-0.046875 -0.175781,-0.046875 h -1.113281 v 5.9179687 h 1.113281 c 0.08203,0 0.140625,-0.0117187 0.175781,-0.046875 0.02344,-0.0234375 0.04687,-0.0703125 0.04687,-0.1171875 0,-0.046875 -0.02344,-0.09375 -0.04687,-0.1171875 -0.03516,-0.0351563 -0.09375,-0.046875 -0.175781,-0.046875 h -0.785156 v -5.2617187 z m 2.516602,0.082031 c -0.07031,0.023437 -0.117188,0.046875 -0.128907,0.070312 -0.03516,0.035156 -0.04687,0.070312 -0.04687,0.1054688 0,0.046875 0.02344,0.09375 0.05859,0.1171875 0.02344,0.035156 0.05859,0.058594 0.09375,0.058594 0.03516,0 0.07031,-0.011719 0.128906,-0.035156 l 1.066407,-0.328125 v 4.18359371 h -1.136719 c -0.08203,0 -0.128906,0.0117188 -0.164063,0.046875 -0.03516,0.0234375 -0.04687,0.0703125 -0.04687,0.1171875 0,0.046875 0.01172,0.08203125 0.04687,0.1171875 0.03516,0.03515625 0.08203,0.0468750025 0.164063,0.0468750025 h 2.589844 c 0.08203,0 0.128906,-0.0117187525 0.164062,-0.0468750025 0.03516,-0.03515625 0.04687,-0.0703125 0.04687,-0.1171875 0,-0.046875 -0.01172,-0.09375 -0.04687,-0.1171875 -0.03516,-0.0351563 -0.08203,-0.046875 -0.164062,-0.046875 h -1.125 V -4.9681422 Z m 5.185547,5.17968751 c -0.08203,0 -0.128907,0.0117188 -0.164063,0.046875 -0.03516,0.0351563 -0.04687,0.0703125 -0.04687,0.1171875 0,0.046875 0.01172,0.09375 0.04687,0.1171875 0.03516,0.0351563 0.08203,0.046875 0.164063,0.046875 h 1.125 v -5.9179687 h -1.125 c -0.08203,0 -0.128907,0.023437 -0.164063,0.046875 -0.03516,0.035156 -0.04687,0.082031 -0.04687,0.1289062 0,0.046875 0.01172,0.070312 0.04687,0.1054688 0.03516,0.035156 0.08203,0.046875 0.164063,0.046875 h 0.796875 v 5.26171872 z m 10.96289,-3.64453121 c -0.363281,-0.3515625 -0.785156,-0.5273438 -1.289062,-0.5273438 -0.515625,0 -0.949219,0.1757813 -1.3125,0.5273438 -0.351563,0.3515625 -0.539063,0.7851562 -0.539063,1.2890625 0,0.4921875 0.1875,0.91406246 0.539063,1.26562496 0.363281,0.36328125 0.796875,0.5390625 1.3125,0.5390625 0.503906,0 0.925781,-0.17578125 1.289062,-0.52734375 0.363281,-0.36328125 0.539063,-0.78515621 0.539063,-1.27734371 0,-0.5039063 -0.175782,-0.9375 -0.539063,-1.2890625 z m -0.234375,2.33203121 c -0.292969,0.29296875 -0.644531,0.43359375 -1.054687,0.43359375 -0.433594,0 -0.785157,-0.140625 -1.078125,-0.4453125 -0.292969,-0.28125 -0.445313,-0.63281246 -0.445313,-1.04296876 0,-0.4101562 0.152344,-0.75 0.445313,-1.0546875 0.292968,-0.28125 0.644531,-0.421875 1.078125,-0.421875 0.410156,0 0.761718,0.140625 1.054687,0.421875 0.304688,0.2929688 0.445313,0.6445313 0.445313,1.0546875 0,0.4101563 -0.140625,0.76171876 -0.445313,1.05468751 z m 3.181641,1.80468749 h -1.03125 c -0.07031,0 -0.128906,0.023437 -0.164063,0.046875 -0.03516,0.035156 -0.05859,0.070312 -0.05859,0.1171875 0,0.058594 0.02344,0.09375 0.05859,0.1171875 0.03516,0.035156 0.09375,0.046875 0.164063,0.046875 h 1.816406 c 0.08203,0 0.128906,-0.011719 0.175781,-0.046875 0.02344,-0.023437 0.04687,-0.070312 0.04687,-0.1171875 0,-0.046875 -0.02344,-0.082031 -0.04687,-0.1171875 -0.04687,-0.023437 -0.09375,-0.046875 -0.175781,-0.046875 h -0.433594 l 2.074219,-4.2304687 c 0.117188,0 0.1875,-0.011719 0.210938,-0.011719 0.03516,-0.011719 0.04687,-0.023437 0.07031,-0.058594 0.02344,-0.023437 0.03516,-0.058594 0.03516,-0.09375 0,-0.046875 -0.01172,-0.082031 -0.04687,-0.1171875 -0.03516,-0.035156 -0.09375,-0.046875 -0.175781,-0.046875 h -0.878906 c -0.08203,0 -0.140625,0.011719 -0.175781,0.046875 -0.03516,0.035156 -0.04687,0.070312 -0.04687,0.1171875 0,0.058594 0.01172,0.082031 0.04687,0.1171875 0.03516,0.035156 0.09375,0.046875 0.175781,0.046875 h 0.433594 l -1.324219,2.69531246 -1.335938,-2.69531246 h 0.433594 c 0.08203,0 0.128906,-0.011719 0.175781,-0.046875 0.03516,-0.035156 0.04687,-0.070312 0.04687,-0.1171875 0,-0.046875 -0.01172,-0.082031 -0.04687,-0.1171875 -0.04687,-0.035156 -0.09375,-0.046875 -0.175781,-0.046875 h -0.902344 c -0.04687,0 -0.105468,0.011719 -0.128906,0.011719 -0.02344,0.023437 -0.04687,0.035156 -0.07031,0.058594 -0.01172,0.035156 -0.02344,0.058594 -0.02344,0.09375 0,0.046875 0.02344,0.082031 0.05859,0.1171875 0.03516,0.035156 0.08203,0.046875 0.164062,0.046875 h 0.09375 l 1.535157,3.0585937125 z m 6.298828,-5.7539062 c 0.08203,0 0.140625,-0.011719 0.175781,-0.046875 0.02344,-0.035156 0.04687,-0.058594 0.04687,-0.1054688 0,-0.046875 -0.02344,-0.09375 -0.04687,-0.1289062 -0.03516,-0.023437 -0.09375,-0.046875 -0.175781,-0.046875 h -1.113281 v 5.9179687 h 1.113281 c 0.08203,0 0.140625,-0.0117187 0.175781,-0.046875 0.02344,-0.0234375 0.04687,-0.0703125 0.04687,-0.1171875 0,-0.046875 -0.02344,-0.09375 -0.04687,-0.1171875 -0.03516,-0.0351563 -0.09375,-0.046875 -0.175781,-0.046875 h -0.785156 v -5.2617185 z m 2.446289,4.23046871 c 0.480469,-0.421875 1.113281,-1.00781251 1.875,-1.78125001 0.304687,-0.2929687 0.527344,-0.515625 0.632812,-0.6679687 0.117188,-0.1523438 0.210938,-0.2929688 0.257813,-0.421875 0.04687,-0.1171875 0.07031,-0.2460938 0.07031,-0.3984375 0,-0.3632813 -0.140625,-0.6796875 -0.433593,-0.9726563 -0.304688,-0.28125 -0.65625,-0.421875 -1.066407,-0.421875 -0.246093,0 -0.492187,0.058594 -0.726562,0.1757813 -0.246094,0.1289062 -0.433594,0.2929687 -0.5625,0.5039062 -0.140625,0.2109375 -0.210938,0.3867188 -0.210938,0.515625 0,0.035156 0.01172,0.070312 0.04687,0.09375 0.02344,0.035156 0.07031,0.058594 0.117188,0.058594 0.03516,0 0.08203,-0.023437 0.105469,-0.046875 0.02344,-0.011719 0.04687,-0.058594 0.05859,-0.1171875 0.05859,-0.2460938 0.210938,-0.4453125 0.433594,-0.609375 0.210938,-0.1640625 0.46875,-0.2460938 0.75,-0.2460938 0.316406,0 0.597656,0.1054688 0.820313,0.3164063 0.234375,0.2226562 0.339843,0.46875 0.339843,0.75 0,0.1054687 -0.02344,0.2109375 -0.05859,0.3046875 -0.04687,0.1054687 -0.117188,0.2226562 -0.222657,0.3632812 -0.105468,0.140625 -0.304687,0.3515625 -0.609375,0.6445313 -0.632812,0.609375 -1.277343,1.21875 -1.945312,1.81640621 V 6.078125e-4 h 3.164062 V -0.45642344 c 0,-0.0820313 -0.01172,-0.140625 -0.04687,-0.1640625 -0.03516,-0.0351563 -0.07031,-0.046875 -0.117187,-0.046875 -0.04687,0 -0.08203,0.0117188 -0.117188,0.046875 -0.02344,0.0234375 -0.04687,0.0820313 -0.04687,0.1640625 v 0.12890625 h -2.507812 z m 5.255859,1.03125 c -0.08203,0 -0.128906,0.0117188 -0.164062,0.046875 -0.03516,0.0351563 -0.04687,0.0703125 -0.04687,0.1171875 0,0.046875 0.01172,0.09375 0.04687,0.1171875 0.03516,0.0351563 0.08203,0.046875 0.164062,0.046875 h 1.125 v -5.9179687 h -1.125 c -0.08203,0 -0.128906,0.023437 -0.164062,0.046875 -0.03516,0.035156 -0.04687,0.082031 -0.04687,0.1289062 0,0.046875 0.01172,0.070312 0.04687,0.1054688 0.03516,0.035156 0.08203,0.046875 0.164062,0.046875 H 77.26852 V 0.68029531 Z M 87.431606,-2.9642359 c -0.363281,-0.3515625 -0.785156,-0.5273438 -1.289062,-0.5273438 -0.515625,0 -0.949219,0.1757813 -1.3125,0.5273438 -0.351563,0.3515625 -0.539063,0.7851562 -0.539063,1.2890625 0,0.4921875 0.1875,0.91406246 0.539063,1.26562496 0.363281,0.36328125 0.796875,0.5390625 1.3125,0.5390625 0.503906,0 0.925781,-0.17578125 1.289062,-0.52734375 0.363282,-0.36328125 0.539063,-0.78515621 0.539063,-1.27734371 0,-0.5039063 -0.175781,-0.9375 -0.539063,-1.2890625 z m -0.234375,2.33203121 c -0.292968,0.29296875 -0.644531,0.43359375 -1.054687,0.43359375 -0.433594,0 -0.785156,-0.140625 -1.078125,-0.4453125 -0.292969,-0.28125 -0.445313,-0.63281246 -0.445313,-1.04296876 0,-0.4101562 0.152344,-0.75 0.445313,-1.0546875 0.292969,-0.28125 0.644531,-0.421875 1.078125,-0.421875 0.410156,0 0.761719,0.140625 1.054687,0.421875 0.304688,0.2929688 0.445313,0.6445313 0.445313,1.0546875 0,0.4101563 -0.140625,0.76171876 -0.445313,1.05468751 z m 3.181641,1.80468749 h -1.03125 c -0.07031,0 -0.128906,0.023437 -0.164063,0.046875 -0.03516,0.035156 -0.05859,0.070312 -0.05859,0.1171875 0,0.058594 0.02344,0.09375 0.05859,0.1171875 0.03516,0.035156 0.09375,0.046875 0.164063,0.046875 h 1.816406 c 0.08203,0 0.128906,-0.011719 0.175781,-0.046875 0.02344,-0.023437 0.04687,-0.070312 0.04687,-0.1171875 0,-0.046875 -0.02344,-0.082031 -0.04687,-0.1171875 -0.04687,-0.023437 -0.09375,-0.046875 -0.175781,-0.046875 h -0.433594 l 2.074219,-4.2304687 c 0.117188,0 0.1875,-0.011719 0.210938,-0.011719 0.03516,-0.011719 0.04687,-0.023437 0.07031,-0.058594 0.02344,-0.023437 0.03516,-0.058594 0.03516,-0.09375 0,-0.046875 -0.01172,-0.082031 -0.04687,-0.1171875 -0.03516,-0.035156 -0.09375,-0.046875 -0.175781,-0.046875 h -0.878906 c -0.08203,0 -0.140625,0.011719 -0.175781,0.046875 -0.03516,0.035156 -0.04687,0.070312 -0.04687,0.1171875 0,0.058594 0.01172,0.082031 0.04687,0.1171875 0.03516,0.035156 0.09375,0.046875 0.175781,0.046875 h 0.433594 l -1.324219,2.69531246 -1.335938,-2.69531246 h 0.433594 c 0.08203,0 0.128906,-0.011719 0.175781,-0.046875 0.03516,-0.035156 0.04687,-0.070312 0.04687,-0.1171875 0,-0.046875 -0.01172,-0.082031 -0.04687,-0.1171875 -0.04687,-0.035156 -0.09375,-0.046875 -0.175781,-0.046875 h -0.902344 c -0.04687,0 -0.105468,0.011719 -0.128906,0.011719 -0.02344,0.023437 -0.04687,0.035156 -0.07031,0.058594 -0.01172,0.035156 -0.02344,0.058594 -0.02344,0.09375 0,0.046875 0.02344,0.082031 0.05859,0.1171875 0.03516,0.035156 0.08203,0.046875 0.164062,0.046875 h 0.09375 l 1.535157,3.0585937125 z m 6.301758,-5.7539062 c 0.08203,0 0.140625,-0.011719 0.175781,-0.046875 0.02344,-0.035156 0.04687,-0.058594 0.04687,-0.1054688 0,-0.046875 -0.02344,-0.09375 -0.04687,-0.1289062 -0.03516,-0.023437 -0.09375,-0.046875 -0.175781,-0.046875 h -1.113282 v 5.9179687 h 1.113282 c 0.08203,0 0.140625,-0.0117187 0.175781,-0.046875 0.02344,-0.0234375 0.04687,-0.0703125 0.04687,-0.1171875 0,-0.046875 -0.02344,-0.09375 -0.04687,-0.1171875 -0.03516,-0.0351563 -0.09375,-0.046875 -0.175781,-0.046875 h -0.785157 v -5.2617187 z m 5.08008,1.453125 c 0.1289,-0.1992188 0.1875,-0.4101563 0.1875,-0.6210938 0,-0.3515625 -0.12891,-0.6445312 -0.39844,-0.890625 -0.25781,-0.2460937 -0.59766,-0.375 -1.00781,-0.375 -0.41016,0 -0.761721,0.1054688 -1.089846,0.328125 -0.222656,0.1523438 -0.328125,0.2929688 -0.328125,0.3984375 0,0.035156 0.01172,0.082031 0.04687,0.1054688 0.03516,0.035156 0.05859,0.046875 0.105469,0.046875 0.03516,0 0.05859,-0.011719 0.08203,-0.011719 0.02344,-0.023437 0.04687,-0.058594 0.09375,-0.1054687 0.117188,-0.1289063 0.269531,-0.2460938 0.457031,-0.3164063 0.199211,-0.082031 0.398431,-0.1171875 0.632811,-0.1171875 0.3164,0 0.57422,0.09375 0.78515,0.28125 0.19922,0.1875 0.29297,0.4101563 0.29297,0.6445313 0,0.234375 -0.0937,0.4453125 -0.28125,0.6210937 -0.19922,0.1875 -0.43359,0.2695313 -0.72656,0.2695313 h -0.29297 c -0.0586,0 -0.10547,0.011719 -0.14062,0.046875 -0.0352,0.035156 -0.0469,0.070312 -0.0469,0.1171875 0,0.058594 0.0117,0.09375 0.0469,0.1171875 0.0352,0.035156 0.0937,0.046875 0.16406,0.046875 0.24609,0 0.49219,0.058594 0.72656,0.1640625 0.23438,0.1171875 0.42188,0.2578125 0.53906,0.4453125 0.12891,0.1875 0.1875,0.375 0.1875,0.5742187 0,0.28125 -0.11718,0.55078126 -0.375,0.79687501 -0.25781,0.22265625 -0.57421,0.3515625 -0.96093,0.3515625 -0.44532,0 -0.878906,-0.15234375 -1.289062,-0.45703125 -0.04687,-0.0351563 -0.09375,-0.046875 -0.128906,-0.046875 -0.04687,0 -0.08203,0.0117188 -0.105469,0.046875 -0.03516,0.0234375 -0.04687,0.0585938 -0.04687,0.10546875 0,0.046875 0.01172,0.09375 0.05859,0.12890625 0.117187,0.12890625 0.328125,0.24609375 0.632812,0.375 0.304688,0.1171875 0.597665,0.17578125 0.878915,0.17578125 0.48047,0 0.86718,-0.15234375 1.19531,-0.45703125 0.31641,-0.3046875 0.46875,-0.64453125 0.46875,-1.03124996 0,-0.2578125 -0.0703,-0.5039063 -0.23438,-0.7382813 -0.15234,-0.234375 -0.38671,-0.421875 -0.6914,-0.5507812 0.24609,-0.1171875 0.43359,-0.28125 0.5625,-0.46875 z m 2.61914,3.80859371 c -0.082,0 -0.12891,0.0117188 -0.16406,0.046875 -0.0352,0.0351563 -0.0469,0.0703125 -0.0469,0.1171875 0,0.046875 0.0117,0.09375 0.0469,0.1171875 0.0352,0.0351563 0.082,0.046875 0.16406,0.046875 h 1.125 v -5.9179687 h -1.125 c -0.082,0 -0.12891,0.023437 -0.16406,0.046875 -0.0352,0.035156 -0.0469,0.082031 -0.0469,0.1289062 0,0.046875 0.0117,0.070312 0.0469,0.1054688 0.0352,0.035156 0.082,0.046875 0.16406,0.046875 h 0.79687 v 5.26171872 z m 0,0"
           style="fill:#231f20;fill-opacity:1;fill-rule:nonzero;stroke:none" />
        <path
           id="path38"
           d="m 116.91305,-1.3382594 c 0.28125,0 0.50391,-0.1992187 0.50391,-0.515625 0,-0.2929687 -0.22266,-0.515625 -0.50391,-0.515625 -0.29297,0 -0.5039,0.2226563 -0.5039,0.515625 0,0.3164063 0.21093,0.515625 0.5039,0.515625 z m 2.05078,0 c 0.28125,0 0.50391,-0.1992187 0.50391,-0.515625 0,-0.2929687 -0.22266,-0.515625 -0.50391,-0.515625 -0.29297,0 -0.5039,0.2226563 -0.5039,0.515625 0,0.3164063 0.21093,0.515625 0.5039,0.515625 z m 2.05371,0 c 0.28125,0 0.50391,-0.1992187 0.50391,-0.515625 0,-0.2929687 -0.22266,-0.515625 -0.50391,-0.515625 -0.29296,0 -0.5039,0.2226563 -0.5039,0.515625 0,0.3164063 0.21094,0.515625 0.5039,0.515625 z m 0,0"
           style="fill:#231f20;fill-opacity:1;fill-rule:nonzero;stroke:none" />
      </g>
      <path
         id="path39"
         d="m 1117.9,952.672 h 557.93 V 806.68 H 1117.9 Z"
         style="fill:none;stroke:#231f20;stroke-width:5;stroke-linecap:butt;stroke-linejoin:miter;stroke-miterlimit:10;stroke-dasharray:none;stroke-opacity:1"
         transform="matrix(0.13333333,0,0,-0.13333333,0,275.93333)" />
      <path
         id="path40"
         d="M 1536.35,952.672 V 806.68"
         style="fill:none;stroke:#231f20;stroke-width:5;stroke-linecap:butt;stroke-linejoin:miter;stroke-miterlimit:10;stroke-dasharray:none;stroke-opacity:1"
         transform="matrix(0.13333333,0,0,-0.13333333,0,275.93333)" />
      <path
         id="path41"
         d="M 1396.87,952.672 V 806.68"
         style="fill:none;stroke:#231f20;stroke-width:5;stroke-linecap:butt;stroke-linejoin:miter;stroke-miterlimit:10;stroke-dasharray:none;stroke-opacity:1"
         transform="matrix(0.13333333,0,0,-0.13333333,0,275.93333)" />
      <path
         id="path42"
         d="M 1257.38,952.672 V 806.68"
         style="fill:none;stroke:#231f20;stroke-width:5;stroke-linecap:butt;stroke-linejoin:miter;stroke-miterlimit:10;stroke-dasharray:none;stroke-opacity:1"
         transform="matrix(0.13333333,0,0,-0.13333333,0,275.93333)" />
      <path
         id="path43"
         d="m 1.7928516,-0.21097812 -0.058594,-0.1640625 c -0.082031,0.046875 -0.2226562,0.10546875 -0.375,0.10546875 -0.1523437,0 -0.3398437,-0.09375 -0.3398437,-0.57421875 V -2.3906656 h 0.6328125 c 0.070312,-0.035156 0.09375,-0.1757813 0.035156,-0.234375 H 1.0194141 v -0.8203125 l -0.09375,-0.011719 -0.38671875,0.3984375 v 0.4335938 H 0.26941406 l -0.1640625,0.1757812 0.0234375,0.058594 h 0.41015625 v 1.74609373 c 0,0.48046875 0.2109375,0.71484375 0.58593749,0.71484375 0.058594,0 0.1523438,-0.0234375 0.2578125,-0.08203125 z M 4.1864063,-1.8076578 c -0.9023438,0 -1.2304688,1.06640624 -1.2304688,1.94531249 0,0.94921871 0.328125,1.93359371 1.2304688,1.93359371 0.9023437,0 1.21875,-1.0664062 1.21875,-1.94531246 0,-0.92578125 -0.3164063,-1.93359374 -1.21875,-1.93359374 z m -0.011719,0.1992187 c 0.5390625,0 0.6914063,0.89062504 0.6914063,1.73437504 0,0.84375 -0.140625,1.74609376 -0.6796875,1.74609376 -0.5273438,0 -0.703125,-0.91406251 -0.703125,-1.74609376 0,-0.83203125 0.1523437,-1.73437504 0.6914062,-1.73437504 z m 11.5576177,1.40039066 -0.05859,-0.1640625 c -0.08203,0.046875 -0.222656,0.10546875 -0.375,0.10546875 -0.152344,0 -0.339844,-0.09375 -0.339844,-0.57421875 V -2.3877359 h 0.632813 c 0.07031,-0.035156 0.09375,-0.1757813 0.03516,-0.234375 h -0.667969 v -0.8203125 l -0.09375,-0.011719 -0.386719,0.3984375 v 0.4335938 h -0.269531 l -0.164062,0.1757812 0.02344,0.058594 h 0.410156 v 1.74609371 c 0,0.48046875 0.210938,0.71484375 0.585938,0.71484375 0.05859,0 0.152344,-0.0234375 0.257812,-0.08203125 z M 18.993047,2.0009359 V 1.8368734 c -0.550781,-0.035156 -0.585938,-0.09375 -0.585938,-0.515625 v -3.1289062 c -0.328125,0.1289062 -0.679687,0.2460937 -1.066406,0.3164062 v 0.1289063 l 0.28125,0.011719 c 0.269531,0.011719 0.292969,0.046875 0.292969,0.36328129 V 1.3212484 c 0,0.421875 -0.03516,0.4804688 -0.574219,0.515625 v 0.1640625 z m 10.678711,-2.21191402 -0.05859,-0.1640625 c -0.08203,0.046875 -0.222656,0.10546875 -0.375,0.10546875 -0.152344,0 -0.339844,-0.09375 -0.339844,-0.57421875 V -2.3906656 h 0.632813 c 0.07031,-0.035156 0.09375,-0.1757813 0.03516,-0.234375 H 28.89832 v -0.8203125 l -0.09375,-0.011719 -0.386718,0.3984375 v 0.4335938 H 28.14832 l -0.164062,0.1757812 0.02344,0.058594 h 0.410157 v 1.74609373 c 0,0.48046875 0.210937,0.71484375 0.585937,0.71484375 0.05859,0 0.152344,-0.0234375 0.257813,-0.08203125 z M 33.096563,1.1571859 C 32.920781,1.5439047 32.83875,1.5673422 32.510625,1.5673422 h -1.113281 l 0.84375,-0.90234376 c 0.550781,-0.5859375 0.796875,-0.9375 0.796875,-1.46484375 0,-0.62109379 -0.480469,-1.00781249 -1.007813,-1.00781249 -0.351562,0 -0.632812,0.1523437 -0.808593,0.3515625 l -0.339844,0.49218749 0.128906,0.1171875 c 0.152344,-0.23437499 0.410156,-0.56249999 0.808594,-0.56249999 0.445312,0 0.714844,0.2929687 0.714844,0.79687499 0,0.515625 -0.375,1.0078125 -0.75,1.453125 C 31.479375,1.1923422 31.15125,1.5321859 30.811406,1.8603109 v 0.140625 h 2.238282 c 0.08203,-0.2695312 0.140625,-0.5390625 0.210937,-0.7851562 z m 10.517578,-1.36816402 -0.05859,-0.1640625 c -0.08203,0.046875 -0.222656,0.10546875 -0.375,0.10546875 -0.152344,0 -0.339844,-0.09375 -0.339844,-0.57421875 V -2.3906656 h 0.632813 c 0.07031,-0.035156 0.09375,-0.1757813 0.03516,-0.234375 h -0.667969 v -0.8203125 l -0.09375,-0.011719 -0.386719,0.3984375 v 0.4335938 h -0.269531 l -0.164062,0.1757812 0.02344,0.058594 h 0.410156 v 1.74609373 c 0,0.48046875 0.210938,0.71484375 0.585938,0.71484375 0.05859,0 0.152344,-0.0234375 0.257812,-0.08203125 z m 1.464843,-0.76464844 c 0.140625,-0.22265624 0.386719,-0.46875004 0.714844,-0.46875004 0.316406,0 0.574219,0.1875 0.574219,0.56250004 0,0.4453125 -0.410156,0.6796875 -0.960938,0.84375 l 0.03516,0.17578125 c 0.09375,-0.0234375 0.246093,-0.05859375 0.386718,-0.05859375 0.339844,0 0.761719,0.22265625 0.761719,0.7734375 0,0.58593746 -0.304687,0.91406246 -0.726562,0.91406246 -0.339844,0 -0.585938,-0.1757812 -0.738282,-0.3164062 -0.04687,-0.035156 -0.105468,-0.035156 -0.152343,0 -0.04687,0.046875 -0.128907,0.1289062 -0.128907,0.1992187 -0.01172,0.070312 0.01172,0.140625 0.09375,0.2226563 0.07031,0.070312 0.316407,0.1992187 0.597657,0.1992187 0.433593,0 1.570312,-0.4453125 1.570312,-1.41796871 0,-0.43359375 -0.304687,-0.80859375 -0.832031,-0.9140625 v -0.0117188 c 0.175781,-0.1171875 0.316406,-0.22265625 0.410156,-0.31640625 0.105469,-0.1171875 0.1875,-0.2578125 0.1875,-0.43359374 0,-0.4453125 -0.363281,-0.7851562 -0.902344,-0.7851562 -0.316406,0 -0.585937,0.1523437 -0.761718,0.3398437 l -0.257813,0.375 z m 0,0"
         style="fill:#231f20;fill-opacity:1;fill-rule:nonzero;stroke:none"
         aria-label="t&#10;0&#10;t&#10;1&#10;t&#10;2&#10;t&#10;3"
         transform="matrix(1.3333333,0,0,1.3333333,154.84,162.00787)" />
      <path
         id="path44"
         d="m 1.0312031,0.10570469 c 0.28125,0 0.5039063,-0.19921875 0.5039063,-0.515625 0,-0.29296875 -0.2226563,-0.515625 -0.5039063,-0.515625 -0.29296873,0 -0.50390623,0.22265625 -0.50390623,0.515625 0,0.31640625 0.2109375,0.515625 0.50390623,0.515625 z m 2.0507813,0 c 0.28125,0 0.5039062,-0.19921875 0.5039062,-0.515625 0,-0.29296875 -0.2226562,-0.515625 -0.5039062,-0.515625 -0.2929688,0 -0.5039063,0.22265625 -0.5039063,0.515625 0,0.31640625 0.2109375,0.515625 0.5039063,0.515625 z m 2.0537109,0 c 0.28125,0 0.5039063,-0.19921875 0.5039063,-0.515625 0,-0.29296875 -0.2226563,-0.515625 -0.5039063,-0.515625 -0.2929687,0 -0.5039062,0.22265625 -0.5039062,0.515625 0,0.31640625 0.2109375,0.515625 0.5039062,0.515625 z m 0,0"
         style="fill:#231f20;fill-opacity:1;fill-rule:nonzero;stroke:none"
         aria-label="..."
         transform="matrix(0,-1.3333333,1.3333333,0,131.92547,257.164)" />
      <path
         id="path45"
         d="M 1186.85,806.68 978.563,652.699"
         style="fill:none;stroke:#231f20;stroke-width:5;stroke-linecap:butt;stroke-linejoin:miter;stroke-miterlimit:10;stroke-dasharray:none;stroke-opacity:1"
         transform="matrix(0.13333333,0,0,-0.13333333,0,275.93333)" />
      <path
         id="path46"
         d="M 1330.23,805.039 1260.9,652.699"
         style="fill:none;stroke:#231f20;stroke-width:5;stroke-linecap:butt;stroke-linejoin:miter;stroke-miterlimit:10;stroke-dasharray:none;stroke-opacity:1"
         transform="matrix(0.13333333,0,0,-0.13333333,0,275.93333)" />
      <path
         id="path47"
         d="m 1468.44,804.891 61.58,-152.192"
         style="fill:none;stroke:#231f20;stroke-width:5;stroke-linecap:butt;stroke-linejoin:miter;stroke-miterlimit:10;stroke-dasharray:none;stroke-opacity:1"
         transform="matrix(0.13333333,0,0,-0.13333333,0,275.93333)" />
      <path
         id="path48"
         d="M 1613.12,804.172 1812.6,652.699"
         style="fill:none;stroke:#231f20;stroke-width:5;stroke-linecap:butt;stroke-linejoin:miter;stroke-miterlimit:10;stroke-dasharray:none;stroke-opacity:1"
         transform="matrix(0.13333333,0,0,-0.13333333,0,275.93333)" />
    </g>
  </g>
</svg>
