<?xml version="1.0" encoding="UTF-8" standalone="no"?>
<!-- Created with Inkscape (http://www.inkscape.org/) -->

<svg
   version="1.1"
   id="svg1"
   width="372.16"
   height="53.146667"
   viewBox="0 0 372.16 53.146667"
   sodipodi:docname="pha15f04.eps"
   xmlns:inkscape="http://www.inkscape.org/namespaces/inkscape"
   xmlns:sodipodi="http://sodipodi.sourceforge.net/DTD/sodipodi-0.dtd"
   xmlns="http://www.w3.org/2000/svg"
   xmlns:svg="http://www.w3.org/2000/svg">
  <defs
     id="defs1">
    <linearGradient
       x1="0"
       y1="0"
       x2="1"
       y2="0"
       gradientUnits="userSpaceOnUse"
       gradientTransform="matrix(-278.887,-2.44e-5,-2.44e-5,278.887,2791.24,177.295)"
       spreadMethod="pad"
       id="linearGradient17">
      <stop
         style="stop-opacity:1;stop-color:#ffffff"
         offset="0"
         id="stop15" />
      <stop
         style="stop-opacity:1;stop-color:#231f20"
         offset="0.44112911"
         id="stop16" />
      <stop
         style="stop-opacity:1;stop-color:#231f20"
         offset="1"
         id="stop17" />
    </linearGradient>
    <clipPath
       clipPathUnits="userSpaceOnUse"
       id="clipPath17">
      <path
         d="m 2512,174 h 279 v 6 h -279 z"
         id="path17" />
    </clipPath>
  </defs>
  <sodipodi:namedview
     id="namedview1"
     pagecolor="#ffffff"
     bordercolor="#000000"
     borderopacity="0.25"
     inkscape:showpageshadow="2"
     inkscape:pageopacity="0.0"
     inkscape:pagecheckerboard="0"
     inkscape:deskcolor="#d1d1d1">
    <inkscape:page
       x="0"
       y="0"
       inkscape:label="1"
       id="page1"
       width="372.16"
       height="53.146667"
       margin="0"
       bleed="0" />
  </sodipodi:namedview>
  <g
     id="g1"
     inkscape:groupmode="layer"
     inkscape:label="1">
    <g
       id="group-R5">
      <path
         id="path2"
         d="M 2.5,396.094 H 2512.35 V 224.934 H 2.5 Z"
         style="fill:none;stroke:#231f20;stroke-width:5;stroke-linecap:butt;stroke-linejoin:miter;stroke-miterlimit:10;stroke-dasharray:none;stroke-opacity:1"
         transform="matrix(0.13333333,0,0,-0.13333333,0,53.146667)" />
      <path
         id="path3"
         d="M 2512.35,396.094 V 224.934"
         style="fill:none;stroke:#231f20;stroke-width:5;stroke-linecap:butt;stroke-linejoin:miter;stroke-miterlimit:10;stroke-dasharray:none;stroke-opacity:1"
         transform="matrix(0.13333333,0,0,-0.13333333,0,53.146667)" />
      <path
         id="path4"
         d="M 2233.5,396.094 V 224.934"
         style="fill:none;stroke:#231f20;stroke-width:5;stroke-linecap:butt;stroke-linejoin:miter;stroke-miterlimit:10;stroke-dasharray:none;stroke-opacity:1"
         transform="matrix(0.13333333,0,0,-0.13333333,0,53.146667)" />
      <path
         id="path5"
         d="M 1954.61,396.094 V 224.934"
         style="fill:none;stroke:#231f20;stroke-width:5;stroke-linecap:butt;stroke-linejoin:miter;stroke-miterlimit:10;stroke-dasharray:none;stroke-opacity:1"
         transform="matrix(0.13333333,0,0,-0.13333333,0,53.146667)" />
      <path
         id="path6"
         d="M 1675.74,396.094 V 224.934"
         style="fill:none;stroke:#231f20;stroke-width:5;stroke-linecap:butt;stroke-linejoin:miter;stroke-miterlimit:10;stroke-dasharray:none;stroke-opacity:1"
         transform="matrix(0.13333333,0,0,-0.13333333,0,53.146667)" />
      <path
         id="path7"
         d="M 1396.88,396.094 V 224.934"
         style="fill:none;stroke:#231f20;stroke-width:5;stroke-linecap:butt;stroke-linejoin:miter;stroke-miterlimit:10;stroke-dasharray:none;stroke-opacity:1"
         transform="matrix(0.13333333,0,0,-0.13333333,0,53.146667)" />
      <path
         id="path8"
         d="M 1118,396.094 V 224.934"
         style="fill:none;stroke:#231f20;stroke-width:5;stroke-linecap:butt;stroke-linejoin:miter;stroke-miterlimit:10;stroke-dasharray:none;stroke-opacity:1"
         transform="matrix(0.13333333,0,0,-0.13333333,0,53.146667)" />
      <path
         id="path9"
         d="M 839.121,396.094 V 224.934"
         style="fill:none;stroke:#231f20;stroke-width:5;stroke-linecap:butt;stroke-linejoin:miter;stroke-miterlimit:10;stroke-dasharray:none;stroke-opacity:1"
         transform="matrix(0.13333333,0,0,-0.13333333,0,53.146667)" />
      <path
         id="path10"
         d="M 560.242,396.094 V 224.934"
         style="fill:none;stroke:#231f20;stroke-width:5;stroke-linecap:butt;stroke-linejoin:miter;stroke-miterlimit:10;stroke-dasharray:none;stroke-opacity:1"
         transform="matrix(0.13333333,0,0,-0.13333333,0,53.146667)" />
      <path
         id="path11"
         d="M 281.379,396.094 V 224.934"
         style="fill:none;stroke:#231f20;stroke-width:5;stroke-linecap:butt;stroke-linejoin:miter;stroke-miterlimit:10;stroke-dasharray:none;stroke-opacity:1"
         transform="matrix(0.13333333,0,0,-0.13333333,0,53.146667)" />
      <g
         id="g11"
         aria-label="o.x&#10;o.y&#10;o.zd.xd.yd.zo.x&#10;o.y&#10;o.z&#10;...&#10;ray[0]&#10;ray[1]"
         transform="matrix(1.3333333,0,0,1.3333333,9.6895867,15.550267)">
        <path
           id="path12"
           d="M 3.7044897,-2.9644578 C 3.3412084,-3.3160203 2.9193334,-3.4918016 2.4154272,-3.4918016 c -0.515625,0 -0.9492188,0.1757813 -1.3125,0.5273438 -0.35156251,0.3515625 -0.53906251,0.7851562 -0.53906251,1.2890625 0,0.4921875 0.1875,0.91406249 0.53906251,1.26562499 0.3632812,0.36328125 0.796875,0.5390625 1.3125,0.5390625 0.5039062,0 0.9257812,-0.17578125 1.2890625,-0.52734375 0.3632812,-0.36328125 0.5390625,-0.78515624 0.5390625,-1.27734374 0,-0.5039063 -0.1757813,-0.9375 -0.5390625,-1.2890625 z m -0.234375,2.33203124 c -0.2929688,0.29296875 -0.6445313,0.43359375 -1.0546875,0.43359375 -0.4335938,0 -0.7851563,-0.140625 -1.078125,-0.4453125 -0.2929688,-0.28125 -0.44531251,-0.63281249 -0.44531251,-1.04296879 0,-0.4101562 0.15234371,-0.75 0.44531251,-1.0546875 0.2929687,-0.28125 0.6445312,-0.421875 1.078125,-0.421875 0.4101562,0 0.7617187,0.140625 1.0546875,0.421875 0.3046875,0.2929688 0.4453125,0.6445313 0.4453125,1.0546875 0,0.4101563 -0.140625,0.76171879 -0.4453125,1.05468754 z m 3.2871094,-0.15234375 c -0.1054688,0.10546875 -0.1523438,0.22265625 -0.1523438,0.375 0,0.140625 0.046875,0.26953125 0.1523438,0.375 0.1054687,0.10546875 0.2226562,0.15234375 0.375,0.15234375 h 0.140625 c 0.140625,0 0.2695312,-0.046875 0.3632812,-0.15234375 0.1054688,-0.10546875 0.1640625,-0.22265625 0.1640625,-0.375 0,-0.140625 -0.046875,-0.26953125 -0.1523437,-0.375 -0.1054688,-0.10546875 -0.234375,-0.15234375 -0.375,-0.15234375 h -0.140625 c -0.1523438,0 -0.2695313,0.046875 -0.375,0.15234375 z M 13.571677,-3.0582078 c 0.08203,0 0.152344,-0.011719 0.175781,-0.011719 0.02344,-0.011719 0.04687,-0.035156 0.05859,-0.058594 0.02344,-0.035156 0.03516,-0.058594 0.03516,-0.09375 0,-0.046875 -0.01172,-0.082031 -0.04687,-0.1171875 -0.04687,-0.035156 -0.09375,-0.046875 -0.164062,-0.046875 h -0.902344 c -0.08203,0 -0.140625,0.011719 -0.175781,0.046875 -0.03516,0.035156 -0.04687,0.070312 -0.04687,0.1171875 0,0.046875 0.01172,0.082031 0.04687,0.1171875 0.03516,0.035156 0.09375,0.046875 0.164062,0.046875 h 0.375 l -1.089843,1.0664062 -1.101563,-1.0664062 h 0.386719 c 0.08203,0 0.140625,-0.011719 0.164062,-0.046875 0.03516,-0.035156 0.05859,-0.058594 0.05859,-0.1171875 0,-0.046875 -0.02344,-0.082031 -0.05859,-0.1171875 -0.02344,-0.035156 -0.08203,-0.046875 -0.164062,-0.046875 h -0.890625 c -0.08203,0 -0.140625,0.011719 -0.175781,0.046875 -0.03516,0.035156 -0.05859,0.070312 -0.05859,0.1171875 0,0.023437 0.01172,0.058594 0.03516,0.09375 0.02344,0.023437 0.04687,0.046875 0.07031,0.058594 0.02344,0 0.08203,0.011719 0.175781,0.011719 l 1.335937,1.2773437 -1.5,1.45312504 c -0.105468,0 -0.164062,0.0117188 -0.1875,0.0117188 -0.02344,0.0117188 -0.04687,0.0234375 -0.07031,0.0585938 -0.023438,0.0234375 -0.035156,0.0585938 -0.035156,0.09375 0,0.046875 0.023437,0.08203125 0.058593,0.1171875 0.03516,0.03515625 0.09375,0.0468749975 0.164063,0.0468749975 h 1.066406 c 0.08203,0 0.128906,-0.0117187475 0.175781,-0.0468749975 0.03516,-0.03515625 0.04687,-0.0703125 0.04687,-0.1171875 0,-0.046875 -0.01172,-0.09375 -0.04687,-0.1171875 -0.03516,-0.0351563 -0.09375,-0.046875 -0.175781,-0.046875 H 10.74747 l 1.265625,-1.23046874 1.265625,1.23046874 h -0.539062 c -0.08203,0 -0.140625,0.0117188 -0.175781,0.046875 -0.03516,0.0234375 -0.04687,0.0703125 -0.04687,0.1171875 0,0.046875 0.01172,0.08203125 0.04687,0.1171875 0.03516,0.03515625 0.09375,0.0468749975 0.175781,0.0468749975 h 1.054687 c 0.08203,0 0.140625,-0.0117187475 0.175782,-0.0468749975 0.03516,-0.03515625 0.04687,-0.0703125 0.04687,-0.1171875 0,-0.0351563 -0.01172,-0.0703125 -0.03516,-0.09375 -0.01172,-0.0351563 -0.03516,-0.046875 -0.05859,-0.0585938 -0.02344,0 -0.09375,-0.0117188 -0.1875,-0.0117188 l -1.5,-1.44140624 z m 18.041016,0.09375 c -0.363281,-0.3515625 -0.785156,-0.5273438 -1.289063,-0.5273438 -0.515625,0 -0.949218,0.1757813 -1.3125,0.5273438 -0.351562,0.3515625 -0.539062,0.7851562 -0.539062,1.2890625 0,0.4921875 0.1875,0.91406249 0.539062,1.26562499 0.363282,0.36328125 0.796875,0.5390625 1.3125,0.5390625 0.503907,0 0.925782,-0.17578125 1.289063,-0.52734375 0.363281,-0.36328125 0.539062,-0.78515624 0.539062,-1.27734374 0,-0.5039063 -0.175781,-0.9375 -0.539062,-1.2890625 z m -0.234375,2.33203124 c -0.292969,0.29296875 -0.644531,0.43359375 -1.054688,0.43359375 -0.433593,0 -0.785156,-0.140625 -1.078125,-0.4453125 -0.292968,-0.28125 -0.445312,-0.63281249 -0.445312,-1.04296879 0,-0.4101562 0.152344,-0.75 0.445312,-1.0546875 0.292969,-0.28125 0.644532,-0.421875 1.078125,-0.421875 0.410157,0 0.761719,0.140625 1.054688,0.421875 0.304687,0.2929688 0.445312,0.6445313 0.445312,1.0546875 0,0.4101563 -0.140625,0.76171879 -0.445312,1.05468754 z m 3.287109,-0.15234375 c -0.105469,0.10546875 -0.152344,0.22265625 -0.152344,0.375 0,0.140625 0.04687,0.26953125 0.152344,0.375 0.105469,0.10546875 0.222656,0.15234375 0.375,0.15234375 h 0.140625 c 0.140625,0 0.269531,-0.046875 0.363281,-0.15234375 0.105469,-0.10546875 0.164063,-0.22265625 0.164063,-0.375 0,-0.140625 -0.04687,-0.26953125 -0.152344,-0.375 -0.105469,-0.10546875 -0.234375,-0.15234375 -0.375,-0.15234375 h -0.140625 c -0.152344,0 -0.269531,0.046875 -0.375,0.15234375 z m 4.69336,1.95703121 h -1.03125 c -0.07031,0 -0.128907,0.023437 -0.164063,0.046875 -0.03516,0.035156 -0.05859,0.070312 -0.05859,0.1171875 0,0.058594 0.02344,0.09375 0.05859,0.1171875 0.03516,0.035156 0.09375,0.046875 0.164063,0.046875 h 1.816406 c 0.08203,0 0.128906,-0.011719 0.175781,-0.046875 0.02344,-0.023437 0.04687,-0.070312 0.04687,-0.1171875 0,-0.046875 -0.02344,-0.082031 -0.04687,-0.1171875 -0.04687,-0.023437 -0.09375,-0.046875 -0.175781,-0.046875 h -0.433594 l 2.074219,-4.2304687 c 0.117187,0 0.1875,-0.011719 0.210937,-0.011719 0.03516,-0.011719 0.04687,-0.023437 0.07031,-0.058594 0.02344,-0.023437 0.03516,-0.058594 0.03516,-0.09375 0,-0.046875 -0.01172,-0.082031 -0.04687,-0.1171875 -0.03516,-0.035156 -0.09375,-0.046875 -0.175781,-0.046875 h -0.878906 c -0.08203,0 -0.140625,0.011719 -0.175782,0.046875 -0.03516,0.035156 -0.04687,0.070312 -0.04687,0.1171875 0,0.058594 0.01172,0.082031 0.04687,0.1171875 0.03516,0.035156 0.09375,0.046875 0.175782,0.046875 h 0.433593 l -1.324218,2.69531249 -1.335938,-2.69531249 h 0.433594 c 0.08203,0 0.128906,-0.011719 0.175781,-0.046875 0.03516,-0.035156 0.04687,-0.070312 0.04687,-0.1171875 0,-0.046875 -0.01172,-0.082031 -0.04687,-0.1171875 -0.04687,-0.035156 -0.09375,-0.046875 -0.175781,-0.046875 h -0.902344 c -0.04687,0 -0.105469,0.011719 -0.128906,0.011719 -0.02344,0.023437 -0.04687,0.035156 -0.07031,0.058594 -0.01172,0.035156 -0.02344,0.058594 -0.02344,0.09375 0,0.046875 0.02344,0.082031 0.05859,0.1171875 0.03516,0.035156 0.08203,0.046875 0.164062,0.046875 h 0.09375 l 1.535156,3.0585937375 z m 20.162109,-4.1367187 c -0.363281,-0.3515625 -0.785156,-0.5273438 -1.289063,-0.5273438 -0.515625,0 -0.949218,0.1757813 -1.3125,0.5273438 -0.351562,0.3515625 -0.539062,0.7851562 -0.539062,1.2890625 0,0.4921875 0.1875,0.91406249 0.539062,1.26562499 0.363282,0.36328125 0.796875,0.5390625 1.3125,0.5390625 0.503907,0 0.925782,-0.17578125 1.289063,-0.52734375 0.363281,-0.36328125 0.539062,-0.78515624 0.539062,-1.27734374 0,-0.5039063 -0.175781,-0.9375 -0.539062,-1.2890625 z m -0.234375,2.33203124 c -0.292969,0.29296875 -0.644531,0.43359375 -1.054688,0.43359375 -0.433593,0 -0.785156,-0.140625 -1.078125,-0.4453125 -0.292968,-0.28125 -0.445312,-0.63281249 -0.445312,-1.04296879 0,-0.4101562 0.152344,-0.75 0.445312,-1.0546875 0.292969,-0.28125 0.644532,-0.421875 1.078125,-0.421875 0.410157,0 0.761719,0.140625 1.054688,0.421875 0.304687,0.2929688 0.445312,0.6445313 0.445312,1.0546875 0,0.4101563 -0.140625,0.76171879 -0.445312,1.05468754 z m 3.287109,-0.15234375 c -0.105468,0.10546875 -0.152343,0.22265625 -0.152343,0.375 0,0.140625 0.04687,0.26953125 0.152343,0.375 0.105469,0.10546875 0.222657,0.15234375 0.375,0.15234375 h 0.140625 c 0.140625,0 0.269532,-0.046875 0.363282,-0.15234375 0.105468,-0.10546875 0.164062,-0.22265625 0.164062,-0.375 0,-0.140625 -0.04687,-0.26953125 -0.152344,-0.375 -0.105468,-0.10546875 -0.234375,-0.15234375 -0.375,-0.15234375 H 62.94863 c -0.152343,0 -0.269531,0.046875 -0.375,0.15234375 z m 3.840821,-2.60156249 v 0.7734375 c 0,0.070312 0.02344,0.1289062 0.04687,0.1640625 0.03516,0.035156 0.08203,0.058594 0.128906,0.058594 0.04687,0 0.08203,-0.023437 0.105469,-0.058594 0.03516,-0.035156 0.04687,-0.09375 0.04687,-0.1640625 v -0.4453125 h 2.050781 l -2.449219,2.76562499 V 3.859375e-4 h 3 V -0.77305156 c 0,-0.0820313 -0.01172,-0.140625 -0.04687,-0.17578125 -0.02344,-0.0351563 -0.05859,-0.046875 -0.105469,-0.046875 -0.05859,0 -0.105468,0.0117188 -0.128906,0.046875 -0.02344,0.0351563 -0.04687,0.09375 -0.04687,0.17578125 v 0.4453125 h -2.203125 l 2.449219,-2.76562504 v -0.2929687 z m 20.557617,-1.5234375 c -0.08203,0 -0.140625,0.023437 -0.175781,0.046875 -0.03516,0.035156 -0.05859,0.082031 -0.05859,0.1171875 0,0.058594 0.02344,0.082031 0.05859,0.1171875 0.03516,0.035156 0.09375,0.046875 0.175781,0.046875 h 0.433594 v 1.8632812 c -0.386719,-0.5273437 -0.867188,-0.7734375 -1.441407,-0.7734375 -0.304687,0 -0.585937,0.070312 -0.867187,0.234375 -0.269531,0.1640625 -0.480469,0.3867188 -0.632813,0.6679688 -0.164062,0.2929687 -0.246093,0.5976562 -0.246093,0.9140625 0,0.3046875 0.08203,0.5976562 0.246093,0.89062499 0.152344,0.29296875 0.363282,0.515625 0.632813,0.66796875 0.28125,0.1640625 0.5625,0.24609375 0.867187,0.24609375 0.574219,0 1.054688,-0.26953125 1.441407,-0.78515625 V 3.859375e-4 h 0.773437 c 0.08203,0 0.128906,-0.0117187475 0.175781,-0.0468749975 0.03516,-0.03515625 0.04687,-0.0703125 0.04687,-0.1171875 0,-0.046875 -0.01172,-0.09375 -0.04687,-0.1171875 -0.04687,-0.0351563 -0.09375,-0.046875 -0.175781,-0.046875 H 87.733787 V -4.9097703 Z m 0.01172,4.27734374 c -0.28125,0.29296875 -0.621094,0.43359375 -0.996094,0.43359375 -0.398438,0 -0.738281,-0.140625 -1.007813,-0.43359375 -0.28125,-0.29296875 -0.433593,-0.64453124 -0.433593,-1.05468754 0,-0.421875 0.152343,-0.7734375 0.433593,-1.0546875 0.269532,-0.28125 0.609375,-0.421875 1.007813,-0.421875 0.375,0 0.714844,0.140625 0.996094,0.421875 0.28125,0.28125 0.421875,0.6328125 0.421875,1.0546875 0,0.4101563 -0.140625,0.76171879 -0.421875,1.05468754 z m 3.500976,-0.15234375 c -0.105469,0.10546875 -0.152344,0.22265625 -0.152344,0.375 0,0.140625 0.04687,0.26953125 0.152344,0.375 0.105469,0.10546875 0.222656,0.15234375 0.375,0.15234375 h 0.140625 c 0.140625,0 0.269531,-0.046875 0.363281,-0.15234375 0.105469,-0.10546875 0.164063,-0.22265625 0.164063,-0.375 0,-0.140625 -0.04687,-0.26953125 -0.152344,-0.375 -0.105469,-0.10546875 -0.234375,-0.15234375 -0.375,-0.15234375 h -0.140625 c -0.152344,0 -0.269531,0.046875 -0.375,0.15234375 z m 6.814453,-2.27343749 c 0.08203,0 0.152344,-0.011719 0.175781,-0.011719 0.02344,-0.011719 0.04687,-0.035156 0.05859,-0.058594 0.02344,-0.035156 0.03516,-0.058594 0.03516,-0.09375 0,-0.046875 -0.01172,-0.082031 -0.04687,-0.1171875 -0.04687,-0.035156 -0.09375,-0.046875 -0.164062,-0.046875 h -0.902344 c -0.08203,0 -0.140625,0.011719 -0.175781,0.046875 -0.03516,0.035156 -0.04687,0.070312 -0.04687,0.1171875 0,0.046875 0.01172,0.082031 0.04687,0.1171875 0.03516,0.035156 0.09375,0.046875 0.164062,0.046875 h 0.375 l -1.089843,1.0664062 -1.101563,-1.0664062 h 0.386719 c 0.08203,0 0.140625,-0.011719 0.164062,-0.046875 0.03516,-0.035156 0.05859,-0.058594 0.05859,-0.1171875 0,-0.046875 -0.02344,-0.082031 -0.05859,-0.1171875 -0.02344,-0.035156 -0.08203,-0.046875 -0.164062,-0.046875 h -0.890625 c -0.08203,0 -0.140625,0.011719 -0.175781,0.046875 -0.03516,0.035156 -0.05859,0.070312 -0.05859,0.1171875 0,0.023437 0.01172,0.058594 0.03516,0.09375 0.02344,0.023437 0.04687,0.046875 0.07031,0.058594 0.02344,0 0.08203,0.011719 0.175781,0.011719 l 1.335937,1.2773437 -1.5,1.45312504 c -0.105468,0 -0.164062,0.0117188 -0.1875,0.0117188 -0.02344,0.0117188 -0.04687,0.0234375 -0.07031,0.0585938 -0.02344,0.0234375 -0.03516,0.0585938 -0.03516,0.09375 0,0.046875 0.02344,0.08203125 0.05859,0.1171875 0.03516,0.03515625 0.09375,0.0468749975 0.164063,0.0468749975 h 1.066406 c 0.08203,0 0.128906,-0.0117187475 0.175781,-0.0468749975 0.03516,-0.03515625 0.04687,-0.0703125 0.04687,-0.1171875 0,-0.046875 -0.01172,-0.09375 -0.04687,-0.1171875 -0.03516,-0.0351563 -0.09375,-0.046875 -0.175781,-0.046875 h -0.527344 l 1.265625,-1.23046874 1.265625,1.23046874 h -0.539062 c -0.08203,0 -0.140625,0.0117188 -0.175781,0.046875 -0.03516,0.0234375 -0.04687,0.0703125 -0.04687,0.1171875 0,0.046875 0.01172,0.08203125 0.04687,0.1171875 0.03516,0.03515625 0.09375,0.0468749975 0.175781,0.0468749975 h 1.054687 c 0.08203,0 0.140625,-0.0117187475 0.175782,-0.0468749975 0.03516,-0.03515625 0.04687,-0.0703125 0.04687,-0.1171875 0,-0.0351563 -0.01172,-0.0703125 -0.03516,-0.09375 -0.01172,-0.0351563 -0.03516,-0.046875 -0.05859,-0.0585938 -0.02344,0 -0.09375,-0.0117188 -0.1875,-0.0117188 l -1.5,-1.44140624 z M 114.8832,-4.9097703 c -0.082,0 -0.14062,0.023437 -0.17578,0.046875 -0.0352,0.035156 -0.0586,0.082031 -0.0586,0.1171875 0,0.058594 0.0234,0.082031 0.0586,0.1171875 0.0352,0.035156 0.0937,0.046875 0.17578,0.046875 h 0.43359 v 1.8632812 c -0.38671,-0.5273437 -0.86718,-0.7734375 -1.4414,-0.7734375 -0.30469,0 -0.58594,0.070312 -0.86719,0.234375 -0.26953,0.1640625 -0.48047,0.3867188 -0.63281,0.6679688 -0.16406,0.2929687 -0.2461,0.5976562 -0.2461,0.9140625 0,0.3046875 0.082,0.5976562 0.2461,0.89062499 0.15234,0.29296875 0.36328,0.515625 0.63281,0.66796875 0.28125,0.1640625 0.5625,0.24609375 0.86719,0.24609375 0.57422,0 1.05469,-0.26953125 1.4414,-0.78515625 V 3.859375e-4 h 0.77344 c 0.082,0 0.12891,-0.0117187475 0.17578,-0.0468749975 0.0352,-0.03515625 0.0469,-0.0703125 0.0469,-0.1171875 0,-0.046875 -0.0117,-0.09375 -0.0469,-0.1171875 -0.0469,-0.0351563 -0.0937,-0.046875 -0.17578,-0.046875 h -0.44531 V -4.9097703 Z m 0.0117,4.27734374 c -0.28125,0.29296875 -0.62109,0.43359375 -0.99609,0.43359375 -0.39844,0 -0.73829,-0.140625 -1.00782,-0.43359375 -0.28125,-0.29296875 -0.43359,-0.64453124 -0.43359,-1.05468754 0,-0.421875 0.15234,-0.7734375 0.43359,-1.0546875 0.26953,-0.28125 0.60938,-0.421875 1.00782,-0.421875 0.375,0 0.71484,0.140625 0.99609,0.421875 0.28125,0.28125 0.42187,0.6328125 0.42187,1.0546875 0,0.4101563 -0.14062,0.76171879 -0.42187,1.05468754 z m 3.49805,-0.15234375 c -0.10547,0.10546875 -0.15235,0.22265625 -0.15235,0.375 0,0.140625 0.0469,0.26953125 0.15235,0.375 0.10547,0.10546875 0.22265,0.15234375 0.375,0.15234375 h 0.14062 c 0.14063,0 0.26953,-0.046875 0.36328,-0.15234375 0.10547,-0.10546875 0.16407,-0.22265625 0.16407,-0.375 0,-0.140625 -0.0469,-0.26953125 -0.15235,-0.375 -0.10547,-0.10546875 -0.23437,-0.15234375 -0.375,-0.15234375 h -0.14062 c -0.15235,0 -0.26953,0.046875 -0.375,0.15234375 z m 4.69629,1.95703121 h -1.03125 c -0.0703,0 -0.12891,0.023437 -0.16407,0.046875 -0.0352,0.035156 -0.0586,0.070312 -0.0586,0.1171875 0,0.058594 0.0234,0.09375 0.0586,0.1171875 0.0352,0.035156 0.0937,0.046875 0.16407,0.046875 h 1.8164 c 0.082,0 0.12891,-0.011719 0.17578,-0.046875 0.0234,-0.023437 0.0469,-0.070312 0.0469,-0.1171875 0,-0.046875 -0.0234,-0.082031 -0.0469,-0.1171875 -0.0469,-0.023437 -0.0937,-0.046875 -0.17578,-0.046875 h -0.43359 l 2.07422,-4.2304687 c 0.11718,0 0.1875,-0.011719 0.21093,-0.011719 0.0352,-0.011719 0.0469,-0.023437 0.0703,-0.058594 0.0234,-0.023437 0.0352,-0.058594 0.0352,-0.09375 0,-0.046875 -0.0117,-0.082031 -0.0469,-0.1171875 -0.0352,-0.035156 -0.0937,-0.046875 -0.17578,-0.046875 h -0.87891 c -0.082,0 -0.14062,0.011719 -0.17578,0.046875 -0.0352,0.035156 -0.0469,0.070312 -0.0469,0.1171875 0,0.058594 0.0117,0.082031 0.0469,0.1171875 0.0352,0.035156 0.0937,0.046875 0.17578,0.046875 h 0.43359 l -1.32421,2.69531249 -1.33594,-2.69531249 h 0.43359 c 0.082,0 0.12891,-0.011719 0.17578,-0.046875 0.0352,-0.035156 0.0469,-0.070312 0.0469,-0.1171875 0,-0.046875 -0.0117,-0.082031 -0.0469,-0.1171875 -0.0469,-0.035156 -0.0937,-0.046875 -0.17578,-0.046875 h -0.90234 c -0.0469,0 -0.10547,0.011719 -0.12891,0.011719 -0.0234,0.023437 -0.0469,0.035156 -0.0703,0.058594 -0.0117,0.035156 -0.0234,0.058594 -0.0234,0.09375 0,0.046875 0.0234,0.082031 0.0586,0.1171875 0.0352,0.035156 0.082,0.046875 0.16406,0.046875 h 0.0937 l 1.53515,3.0585937375 z m 19.70214,-6.0820312 c -0.082,0 -0.14062,0.023437 -0.17578,0.046875 -0.0352,0.035156 -0.0586,0.082031 -0.0586,0.1171875 0,0.058594 0.0234,0.082031 0.0586,0.1171875 0.0352,0.035156 0.0937,0.046875 0.17578,0.046875 h 0.4336 v 1.8632812 c -0.38672,-0.5273437 -0.86719,-0.7734375 -1.44141,-0.7734375 -0.30469,0 -0.58594,0.070312 -0.86719,0.234375 -0.26953,0.1640625 -0.48047,0.3867188 -0.63281,0.6679688 -0.16406,0.2929687 -0.24609,0.5976562 -0.24609,0.9140625 0,0.3046875 0.082,0.5976562 0.24609,0.89062499 0.15234,0.29296875 0.36328,0.515625 0.63281,0.66796875 0.28125,0.1640625 0.5625,0.24609375 0.86719,0.24609375 0.57422,0 1.05469,-0.26953125 1.44141,-0.78515625 V 3.859375e-4 h 0.77343 c 0.082,0 0.12891,-0.0117187475 0.17579,-0.0468749975 0.0352,-0.03515625 0.0469,-0.0703125 0.0469,-0.1171875 0,-0.046875 -0.0117,-0.09375 -0.0469,-0.1171875 -0.0469,-0.0351563 -0.0937,-0.046875 -0.17579,-0.046875 H 143.5531 V -4.9097703 Z m 0.0117,4.27734374 c -0.28125,0.29296875 -0.62109,0.43359375 -0.99609,0.43359375 -0.39844,0 -0.73828,-0.140625 -1.00781,-0.43359375 -0.28125,-0.29296875 -0.4336,-0.64453124 -0.4336,-1.05468754 0,-0.421875 0.15235,-0.7734375 0.4336,-1.0546875 0.26953,-0.28125 0.60937,-0.421875 1.00781,-0.421875 0.375,0 0.71484,0.140625 0.99609,0.421875 0.28125,0.28125 0.42188,0.6328125 0.42188,1.0546875 0,0.4101563 -0.14063,0.76171879 -0.42188,1.05468754 z m 3.50098,-0.15234375 c -0.10547,0.10546875 -0.15234,0.22265625 -0.15234,0.375 0,0.140625 0.0469,0.26953125 0.15234,0.375 0.10547,0.10546875 0.22266,0.15234375 0.375,0.15234375 h 0.14062 c 0.14063,0 0.26954,-0.046875 0.36329,-0.15234375 0.10546,-0.10546875 0.16406,-0.22265625 0.16406,-0.375 0,-0.140625 -0.0469,-0.26953125 -0.15235,-0.375 -0.10546,-0.10546875 -0.23437,-0.15234375 -0.375,-0.15234375 h -0.14062 c -0.15234,0 -0.26953,0.046875 -0.375,0.15234375 z m 3.83789,-2.60156249 v 0.7734375 c 0,0.070312 0.0234,0.1289062 0.0469,0.1640625 0.0352,0.035156 0.082,0.058594 0.12891,0.058594 0.0469,0 0.082,-0.023437 0.10547,-0.058594 0.0352,-0.035156 0.0469,-0.09375 0.0469,-0.1640625 v -0.4453125 h 2.05079 l -2.44922,2.76562499 V 3.859375e-4 h 3 V -0.77305156 c 0,-0.0820313 -0.0117,-0.140625 -0.0469,-0.17578125 -0.0234,-0.0351563 -0.0586,-0.046875 -0.10547,-0.046875 -0.0586,0 -0.10547,0.0117188 -0.1289,0.046875 -0.0234,0.0351563 -0.0469,0.09375 -0.0469,0.17578125 v 0.4453125 h -2.20312 l 2.44922,-2.76562504 v -0.2929687 z m 21.01758,0.421875 c -0.36328,-0.3515625 -0.78516,-0.5273438 -1.28906,-0.5273438 -0.51563,0 -0.94922,0.1757813 -1.3125,0.5273438 -0.35157,0.3515625 -0.53907,0.7851562 -0.53907,1.2890625 0,0.4921875 0.1875,0.91406249 0.53907,1.26562499 0.36328,0.36328125 0.79687,0.5390625 1.3125,0.5390625 0.5039,0 0.92578,-0.17578125 1.28906,-0.52734375 0.36328,-0.36328125 0.53906,-0.78515624 0.53906,-1.27734374 0,-0.5039063 -0.17578,-0.9375 -0.53906,-1.2890625 z m -0.23438,2.33203124 c -0.29297,0.29296875 -0.64453,0.43359375 -1.05468,0.43359375 -0.4336,0 -0.78516,-0.140625 -1.07813,-0.4453125 -0.29297,-0.28125 -0.44531,-0.63281249 -0.44531,-1.04296879 0,-0.4101562 0.15234,-0.75 0.44531,-1.0546875 0.29297,-0.28125 0.64453,-0.421875 1.07813,-0.421875 0.41015,0 0.76171,0.140625 1.05468,0.421875 0.30469,0.2929688 0.44532,0.6445313 0.44532,1.0546875 0,0.4101563 -0.14063,0.76171879 -0.44532,1.05468754 z m 3.28711,-0.15234375 c -0.10547,0.10546875 -0.15234,0.22265625 -0.15234,0.375 0,0.140625 0.0469,0.26953125 0.15234,0.375 0.10547,0.10546875 0.22266,0.15234375 0.375,0.15234375 h 0.14063 c 0.14062,0 0.26953,-0.046875 0.36328,-0.15234375 0.10547,-0.10546875 0.16406,-0.22265625 0.16406,-0.375 0,-0.140625 -0.0469,-0.26953125 -0.15234,-0.375 -0.10547,-0.10546875 -0.23438,-0.15234375 -0.375,-0.15234375 h -0.14063 c -0.15234,0 -0.26953,0.046875 -0.375,0.15234375 z m 6.81738,-2.27343749 c 0.082,0 0.15235,-0.011719 0.17579,-0.011719 0.0234,-0.011719 0.0469,-0.035156 0.0586,-0.058594 0.0234,-0.035156 0.0352,-0.058594 0.0352,-0.09375 0,-0.046875 -0.0117,-0.082031 -0.0469,-0.1171875 -0.0469,-0.035156 -0.0937,-0.046875 -0.16406,-0.046875 h -0.90235 c -0.082,0 -0.14062,0.011719 -0.17578,0.046875 -0.0352,0.035156 -0.0469,0.070312 -0.0469,0.1171875 0,0.046875 0.0117,0.082031 0.0469,0.1171875 0.0352,0.035156 0.0937,0.046875 0.16407,0.046875 h 0.375 l -1.08985,1.0664062 -1.10156,-1.0664062 h 0.38672 c 0.082,0 0.14062,-0.011719 0.16406,-0.046875 0.0352,-0.035156 0.0586,-0.058594 0.0586,-0.1171875 0,-0.046875 -0.0234,-0.082031 -0.0586,-0.1171875 -0.0234,-0.035156 -0.082,-0.046875 -0.16406,-0.046875 h -0.89063 c -0.082,0 -0.14062,0.011719 -0.17578,0.046875 -0.0352,0.035156 -0.0586,0.070312 -0.0586,0.1171875 0,0.023437 0.0117,0.058594 0.0352,0.09375 0.0234,0.023437 0.0469,0.046875 0.0703,0.058594 0.0234,0 0.082,0.011719 0.17578,0.011719 l 1.33594,1.2773437 -1.5,1.45312504 c -0.10547,0 -0.16407,0.0117188 -0.1875,0.0117188 -0.0234,0.0117188 -0.0469,0.0234375 -0.0703,0.0585938 -0.0234,0.0234375 -0.0352,0.0585938 -0.0352,0.09375 0,0.046875 0.0234,0.08203125 0.0586,0.1171875 0.0352,0.03515625 0.0937,0.0468749975 0.16406,0.0468749975 h 1.06641 c 0.082,0 0.12891,-0.0117187475 0.17578,-0.0468749975 0.0352,-0.03515625 0.0469,-0.0703125 0.0469,-0.1171875 0,-0.046875 -0.0117,-0.09375 -0.0469,-0.1171875 -0.0352,-0.0351563 -0.0937,-0.046875 -0.17578,-0.046875 h -0.52734 l 1.26562,-1.23046874 1.26563,1.23046874 h -0.53907 c -0.082,0 -0.14062,0.0117188 -0.17578,0.046875 -0.0352,0.0234375 -0.0469,0.0703125 -0.0469,0.1171875 0,0.046875 0.0117,0.08203125 0.0469,0.1171875 0.0352,0.03515625 0.0937,0.0468749975 0.17578,0.0468749975 h 1.05469 c 0.082,0 0.14063,-0.0117187475 0.17578,-0.0468749975 0.0352,-0.03515625 0.0469,-0.0703125 0.0469,-0.1171875 0,-0.0351563 -0.0117,-0.0703125 -0.0352,-0.09375 -0.0117,-0.0351563 -0.0352,-0.046875 -0.0586,-0.0585938 -0.0234,0 -0.0937,-0.0117188 -0.1875,-0.0117188 l -1.5,-1.44140624 z m 18.03809,0.09082 c -0.36328,-0.3515625 -0.78516,-0.5273437 -1.28906,-0.5273437 -0.51563,0 -0.94922,0.1757812 -1.3125,0.5273437 -0.35156,0.3515625 -0.53906,0.7851563 -0.53906,1.2890625 0,0.4921875 0.1875,0.9140625 0.53906,1.265625 0.36328,0.36328125 0.79687,0.5390625 1.3125,0.5390625 0.5039,0 0.92578,-0.17578125 1.28906,-0.52734375 0.36328,-0.36328125 0.53906,-0.78515625 0.53906,-1.27734375 0,-0.5039062 -0.17578,-0.9375 -0.53906,-1.2890625 z m -0.23437,2.33203125 c -0.29297,0.29296875 -0.64454,0.43359375 -1.05469,0.43359375 -0.4336,0 -0.78516,-0.140625 -1.07813,-0.4453125 -0.29297,-0.28125 -0.44531,-0.6328125 -0.44531,-1.0429687 0,-0.4101563 0.15234,-0.75 0.44531,-1.0546875 0.29297,-0.28125 0.64453,-0.421875 1.07813,-0.421875 0.41015,0 0.76172,0.140625 1.05469,0.421875 0.30468,0.2929687 0.44531,0.6445312 0.44531,1.0546875 0,0.4101562 -0.14063,0.7617187 -0.44531,1.05468745 z M 202.12051,-0.7877 c -0.10547,0.10546875 -0.15235,0.22265625 -0.15235,0.375 0,0.140625 0.0469,0.26953125 0.15235,0.375 0.10546,0.10546875 0.22265,0.15234375 0.375,0.15234375 h 0.14062 c 0.14063,0 0.26953,-0.046875 0.36328,-0.15234375 0.10547,-0.10546875 0.16406,-0.22265625 0.16406,-0.375 0,-0.140625 -0.0469,-0.26953125 -0.15234,-0.375 -0.10547,-0.10546875 -0.23437,-0.15234375 -0.375,-0.15234375 h -0.14062 c -0.15235,0 -0.26954,0.046875 -0.375,0.15234375 z m 4.69628,1.9570313 h -1.03125 c -0.0703,0 -0.1289,0.023437 -0.16406,0.046875 -0.0351,0.035156 -0.0586,0.070312 -0.0586,0.1171875 0,0.058594 0.0234,0.09375 0.0586,0.1171875 0.0352,0.035156 0.0937,0.046875 0.16406,0.046875 h 1.81641 c 0.082,0 0.12891,-0.011719 0.17578,-0.046875 0.0234,-0.023437 0.0469,-0.070312 0.0469,-0.1171875 0,-0.046875 -0.0234,-0.082031 -0.0469,-0.1171875 -0.0469,-0.023437 -0.0937,-0.046875 -0.17578,-0.046875 h -0.43359 l 2.07422,-4.2304688 c 0.11718,0 0.1875,-0.011719 0.21093,-0.011719 0.0352,-0.011719 0.0469,-0.023437 0.0703,-0.058594 0.0234,-0.023437 0.0351,-0.058594 0.0351,-0.09375 0,-0.046875 -0.0117,-0.082031 -0.0469,-0.1171875 -0.0352,-0.035156 -0.0937,-0.046875 -0.17578,-0.046875 h -0.87891 c -0.082,0 -0.14063,0.011719 -0.17578,0.046875 -0.0352,0.035156 -0.0469,0.070312 -0.0469,0.1171875 0,0.058594 0.0117,0.082031 0.0469,0.1171875 0.0351,0.035156 0.0937,0.046875 0.17578,0.046875 h 0.43359 l -1.32422,2.6953125 -1.33593,-2.6953125 h 0.43359 c 0.082,0 0.12891,-0.011719 0.17578,-0.046875 0.0352,-0.035156 0.0469,-0.070312 0.0469,-0.1171875 0,-0.046875 -0.0117,-0.082031 -0.0469,-0.1171875 -0.0469,-0.035156 -0.0937,-0.046875 -0.17578,-0.046875 h -0.90234 c -0.0469,0 -0.10547,0.011719 -0.12891,0.011719 -0.0234,0.023437 -0.0469,0.035156 -0.0703,0.058594 -0.0117,0.035156 -0.0234,0.058594 -0.0234,0.09375 0,0.046875 0.0234,0.082031 0.0586,0.1171875 0.0352,0.035156 0.082,0.046875 0.16407,0.046875 h 0.0937 l 1.53515,3.05859375 z m 20.15918,-4.1337891 c -0.36328,-0.3515625 -0.78515,-0.5273438 -1.28906,-0.5273438 -0.51562,0 -0.94922,0.1757813 -1.3125,0.5273438 -0.35156,0.3515625 -0.53906,0.7851562 -0.53906,1.2890625 0,0.4921875 0.1875,0.91406249 0.53906,1.26562499 0.36328,0.36328125 0.79688,0.5390625 1.3125,0.5390625 0.50391,0 0.92578,-0.17578125 1.28906,-0.52734375 0.36329,-0.36328125 0.53907,-0.78515624 0.53907,-1.27734374 0,-0.5039063 -0.17578,-0.9375 -0.53907,-1.2890625 z m -0.23437,2.33203124 c -0.29297,0.29296875 -0.64453,0.43359375 -1.05469,0.43359375 -0.43359,0 -0.78515,-0.140625 -1.07812,-0.4453125 -0.29297,-0.28125 -0.44532,-0.63281249 -0.44532,-1.04296879 0,-0.4101562 0.15235,-0.75 0.44532,-1.0546875 0.29297,-0.28125 0.64453,-0.421875 1.07812,-0.421875 0.41016,0 0.76172,0.140625 1.05469,0.421875 0.30469,0.2929688 0.44531,0.6445313 0.44531,1.0546875 0,0.4101563 -0.14062,0.76171879 -0.44531,1.05468754 z m 3.29004,-0.15234375 c -0.10547,0.10546875 -0.15235,0.22265625 -0.15235,0.375 0,0.140625 0.0469,0.26953125 0.15235,0.375 0.10547,0.10546875 0.22265,0.15234375 0.375,0.15234375 h 0.14062 c 0.14063,0 0.26953,-0.046875 0.36328,-0.15234375 0.10547,-0.10546875 0.16407,-0.22265625 0.16407,-0.375 0,-0.140625 -0.0469,-0.26953125 -0.15235,-0.375 -0.10547,-0.10546875 -0.23437,-0.15234375 -0.375,-0.15234375 h -0.14062 c -0.15235,0 -0.26953,0.046875 -0.375,0.15234375 z m 3.83789,-2.60156249 v 0.7734375 c 0,0.070312 0.0234,0.1289062 0.0469,0.1640625 0.0352,0.035156 0.082,0.058594 0.12891,0.058594 0.0469,0 0.082,-0.023437 0.10547,-0.058594 0.0352,-0.035156 0.0469,-0.09375 0.0469,-0.1640625 v -0.4453125 h 2.05078 l -2.44921,2.76562499 V 3.859375e-4 h 3 V -0.77305156 c 0,-0.0820313 -0.0117,-0.140625 -0.0469,-0.17578125 -0.0234,-0.0351563 -0.0586,-0.046875 -0.10547,-0.046875 -0.0586,0 -0.10547,0.0117188 -0.1289,0.046875 -0.0234,0.0351563 -0.0469,0.09375 -0.0469,0.17578125 v 0.4453125 h -2.20312 l 2.44921,-2.76562504 v -0.2929687 z m 0,0"
           style="fill:#231f20;fill-opacity:1;fill-rule:nonzero;stroke:none" />
        <path
           id="path13"
           d="m 250.70351,-1.5611375 c 0.28125,0 0.50391,-0.1992187 0.50391,-0.515625 0,-0.2929687 -0.22266,-0.515625 -0.50391,-0.515625 -0.29297,0 -0.5039,0.2226563 -0.5039,0.515625 0,0.3164063 0.21093,0.515625 0.5039,0.515625 z m 2.05078,0 c 0.28125,0 0.50391,-0.1992187 0.50391,-0.515625 0,-0.2929687 -0.22266,-0.515625 -0.50391,-0.515625 -0.29296,0 -0.5039,0.2226563 -0.5039,0.515625 0,0.3164063 0.21094,0.515625 0.5039,0.515625 z m 2.05079,0 c 0.28125,0 0.5039,-0.1992187 0.5039,-0.515625 0,-0.2929687 -0.22265,-0.515625 -0.5039,-0.515625 -0.29297,0 -0.50391,0.2226563 -0.50391,0.515625 0,0.3164063 0.21094,0.515625 0.50391,0.515625 z m 0,0"
           style="fill:#231f20;fill-opacity:1;fill-rule:nonzero;stroke:none" />
        <path
           id="path14"
           d="m 63.320701,19.374409 c -0.08203,0 -0.140625,0.01172 -0.175782,0.04687 -0.03516,0.03516 -0.04687,0.07031 -0.04687,0.117188 0,0.05859 0.01172,0.08203 0.05859,0.117187 0.03516,0.03516 0.08203,0.04687 0.164063,0.04687 h 0.597656 v 2.742188 h -0.785156 c -0.07031,0 -0.140625,0.01172 -0.175782,0.04687 -0.02344,0.02344 -0.04687,0.05859 -0.04687,0.105469 0,0.04687 0.02344,0.08203 0.05859,0.117187 0.03516,0.03516 0.09375,0.04687 0.164063,0.04687 h 2.566406 c 0.08203,0 0.140625,-0.01172 0.175781,-0.04687 0.03516,-0.03516 0.04687,-0.07031 0.04687,-0.117187 0,-0.04687 -0.01172,-0.09375 -0.04687,-0.117188 -0.03516,-0.03516 -0.09375,-0.04687 -0.175781,-0.04687 h -1.453125 v -1.804687 c 0.503906,-0.433594 0.855469,-0.714844 1.054687,-0.832032 0.199219,-0.117187 0.375,-0.175781 0.515625,-0.175781 0.07031,0 0.128907,0.02344 0.199219,0.04687 0.07031,0.04687 0.152344,0.105469 0.246094,0.199219 0.04687,0.04687 0.08203,0.08203 0.09375,0.08203 0.01172,0.01172 0.03516,0.01172 0.07031,0.01172 0.04687,0 0.09375,-0.01172 0.117188,-0.04687 0.03516,-0.03516 0.05859,-0.07031 0.05859,-0.117188 0,-0.08203 -0.08203,-0.175781 -0.257813,-0.304687 -0.164062,-0.128906 -0.351562,-0.199219 -0.550781,-0.199219 -0.175781,0 -0.375,0.05859 -0.585938,0.175781 -0.210937,0.105469 -0.527343,0.351563 -0.960937,0.738282 v -0.832032 z m 7.836914,3.386719 c 0.08203,0 0.140625,-0.01172 0.175781,-0.04687 0.03516,-0.03516 0.04687,-0.07031 0.04687,-0.117187 0,-0.04687 -0.01172,-0.09375 -0.04687,-0.117188 -0.03516,-0.03516 -0.09375,-0.04687 -0.175781,-0.04687 h -0.445313 v -2.167969 c 0,-0.257812 -0.117187,-0.492187 -0.351562,-0.703125 -0.222657,-0.199218 -0.550782,-0.292968 -0.960938,-0.292968 -0.210937,0 -0.527344,0.04687 -0.925781,0.152343 -0.257813,0.07031 -0.410156,0.128907 -0.445313,0.164063 -0.02344,0.03516 -0.03516,0.05859 -0.03516,0.105469 0,0.04687 0.01172,0.08203 0.04687,0.117187 0.02344,0.03516 0.05859,0.04687 0.105469,0.04687 0.02344,0 0.07031,-0.01172 0.152344,-0.03516 0.46875,-0.152344 0.832031,-0.222656 1.078125,-0.222656 0.339843,0 0.597656,0.05859 0.761718,0.199218 0.175782,0.128907 0.246094,0.28125 0.246094,0.46875 v 0.527344 c -0.199219,-0.03516 -0.398437,-0.07031 -0.574219,-0.09375 -0.175781,-0.02344 -0.339843,-0.02344 -0.492187,-0.02344 -0.5625,0 -0.996094,0.117187 -1.277344,0.351562 -0.304687,0.234375 -0.445312,0.515625 -0.445312,0.832031 0,0.28125 0.117187,0.539063 0.339843,0.738282 0.210938,0.199218 0.527344,0.292968 0.914063,0.292968 0.550781,0 1.066406,-0.199218 1.535156,-0.597656 v 0.46875 z m -0.773438,-0.914062 c -0.246094,0.246093 -0.503906,0.433593 -0.75,0.550781 -0.246094,0.105469 -0.503906,0.164062 -0.796875,0.164062 -0.292969,0 -0.515625,-0.07031 -0.679687,-0.199218 -0.152344,-0.140625 -0.234375,-0.304688 -0.234375,-0.503907 0,-0.210937 0.105468,-0.398437 0.304687,-0.550781 0.269531,-0.199219 0.644531,-0.304687 1.125,-0.304687 0.1875,0 0.375,0 0.550781,0.02344 0.164063,0.02344 0.339844,0.05859 0.480469,0.105469 z m 3.310547,2.085937 h -1.03125 c -0.07031,0 -0.128906,0.02344 -0.164062,0.04687 -0.03516,0.03516 -0.05859,0.07031 -0.05859,0.117188 0,0.05859 0.02344,0.09375 0.05859,0.117187 0.03516,0.03516 0.09375,0.04687 0.164062,0.04687 h 1.816406 c 0.08203,0 0.128907,-0.01172 0.175782,-0.04687 0.02344,-0.02344 0.04687,-0.07031 0.04687,-0.117187 0,-0.04687 -0.02344,-0.08203 -0.04687,-0.117188 -0.04687,-0.02344 -0.09375,-0.04687 -0.175782,-0.04687 h -0.433593 l 2.074218,-4.230469 c 0.117188,0 0.1875,-0.01172 0.210938,-0.01172 0.03516,-0.01172 0.04687,-0.02344 0.07031,-0.05859 0.02344,-0.02344 0.03516,-0.05859 0.03516,-0.09375 0,-0.04687 -0.01172,-0.08203 -0.04687,-0.117188 -0.03516,-0.03516 -0.09375,-0.04687 -0.175782,-0.04687 h -0.878906 c -0.08203,0 -0.140625,0.01172 -0.175781,0.04687 -0.03516,0.03516 -0.04687,0.07031 -0.04687,0.117188 0,0.05859 0.01172,0.08203 0.04687,0.117187 0.03516,0.03516 0.09375,0.04687 0.175781,0.04687 h 0.433594 l -1.324219,2.695313 -1.335937,-2.695313 h 0.433593 c 0.08203,0 0.128907,-0.01172 0.175782,-0.04687 0.03516,-0.03516 0.04687,-0.07031 0.04687,-0.117187 0,-0.04687 -0.01172,-0.08203 -0.04687,-0.117188 -0.04687,-0.03516 -0.09375,-0.04687 -0.175782,-0.04687 h -0.902343 c -0.04687,0 -0.105469,0.01172 -0.128907,0.01172 -0.02344,0.02344 -0.04687,0.03516 -0.07031,0.05859 -0.01172,0.03516 -0.02344,0.05859 -0.02344,0.09375 0,0.04687 0.02344,0.08203 0.05859,0.117187 0.03516,0.03516 0.08203,0.04687 0.164063,0.04687 h 0.09375 l 1.535156,3.058594 z m 6.298828,-5.753906 c 0.08203,0 0.140625,-0.01172 0.175781,-0.04687 0.02344,-0.03516 0.04687,-0.05859 0.04687,-0.105469 0,-0.04687 -0.02344,-0.09375 -0.04687,-0.128906 -0.03516,-0.02344 -0.09375,-0.04687 -0.175781,-0.04687 h -1.113281 v 5.917969 h 1.113281 c 0.08203,0 0.140625,-0.01172 0.175781,-0.04687 0.02344,-0.02344 0.04687,-0.07031 0.04687,-0.117188 0,-0.04687 -0.02344,-0.09375 -0.04687,-0.117187 -0.03516,-0.03516 -0.09375,-0.04687 -0.175781,-0.04687 h -0.785156 v -5.261719 z m 5.270508,0.9375 c -0.04687,-0.152344 -0.105469,-0.328125 -0.199219,-0.515625 -0.08203,-0.199219 -0.175781,-0.328125 -0.246094,-0.421875 -0.117187,-0.140625 -0.257812,-0.246094 -0.433593,-0.328125 -0.175782,-0.07031 -0.351563,-0.105469 -0.550782,-0.105469 -0.398437,0 -0.726562,0.152344 -0.984375,0.480469 -0.339843,0.410156 -0.515625,0.972656 -0.515625,1.675781 v 0.808594 c 0,0.304687 0.03516,0.5625 0.09375,0.785156 0.03516,0.164063 0.105469,0.339844 0.1875,0.527344 0.105469,0.1875 0.175782,0.328125 0.257813,0.410156 0.117187,0.140625 0.257812,0.246094 0.433594,0.328125 0.164062,0.07031 0.351562,0.117188 0.550781,0.117188 0.398437,0 0.726562,-0.164063 0.984375,-0.480469 0.339844,-0.421875 0.503906,-0.984375 0.503906,-1.6875 v -0.808594 c 0,-0.304687 -0.02344,-0.5625 -0.08203,-0.785156 z m -0.246094,1.558594 c 0,0.492187 -0.105469,0.9375 -0.304687,1.3125 -0.210938,0.375 -0.503907,0.5625 -0.855469,0.5625 -0.199219,0 -0.363281,-0.05859 -0.503906,-0.140625 -0.105469,-0.07031 -0.199219,-0.140625 -0.257813,-0.234375 -0.105469,-0.164063 -0.210937,-0.375 -0.304687,-0.632813 -0.08203,-0.28125 -0.128907,-0.5625 -0.128907,-0.867187 v -0.726563 c 0,-0.503906 0.105469,-0.9375 0.316407,-1.3125 0.210937,-0.375 0.492187,-0.5625 0.867187,-0.5625 0.1875,0 0.351563,0.04687 0.492188,0.128906 0.105468,0.07031 0.199218,0.152344 0.257812,0.246094 0.117188,0.152344 0.210938,0.363281 0.292969,0.632813 0.09375,0.269531 0.128906,0.5625 0.128906,0.867187 z m 2.677735,2.765625 c -0.08203,0 -0.128907,0.01172 -0.164063,0.04687 -0.03516,0.03516 -0.04687,0.07031 -0.04687,0.117187 0,0.04687 0.01172,0.09375 0.04687,0.117188 0.03516,0.03516 0.08203,0.04687 0.164063,0.04687 h 1.125 v -5.917969 h -1.125 c -0.08203,0 -0.128907,0.02344 -0.164063,0.04687 -0.03516,0.03516 -0.04687,0.08203 -0.04687,0.128906 0,0.04687 0.01172,0.07031 0.04687,0.105469 0.03516,0.03516 0.08203,0.04687 0.164063,0.04687 h 0.796875 v 5.261719 z M 230.64394,18.735738 c -0.082,0 -0.14062,0.01172 -0.17578,0.04687 -0.0352,0.03516 -0.0469,0.07031 -0.0469,0.117187 0,0.05859 0.0117,0.08203 0.0586,0.117188 0.0352,0.03516 0.082,0.04687 0.16406,0.04687 h 0.59766 v 2.742187 h -0.78516 c -0.0703,0 -0.14062,0.01172 -0.17578,0.04687 -0.0234,0.02344 -0.0469,0.05859 -0.0469,0.105469 0,0.04687 0.0234,0.08203 0.0586,0.117187 0.0352,0.03516 0.0937,0.04687 0.16406,0.04687 h 2.56641 c 0.082,0 0.14062,-0.01172 0.17578,-0.04687 0.0352,-0.03516 0.0469,-0.07031 0.0469,-0.117187 0,-0.04687 -0.0117,-0.09375 -0.0469,-0.117188 -0.0352,-0.03516 -0.0937,-0.04687 -0.17578,-0.04687 h -1.45313 v -1.804687 c 0.50391,-0.433594 0.85547,-0.714844 1.05469,-0.832031 0.19922,-0.117188 0.375,-0.175782 0.51563,-0.175782 0.0703,0 0.1289,0.02344 0.19922,0.04687 0.0703,0.04687 0.15234,0.105469 0.24609,0.199219 0.0469,0.04687 0.082,0.08203 0.0937,0.08203 0.0117,0.01172 0.0352,0.01172 0.0703,0.01172 0.0469,0 0.0937,-0.01172 0.11719,-0.04687 0.0352,-0.03516 0.0586,-0.07031 0.0586,-0.117187 0,-0.08203 -0.082,-0.175782 -0.25781,-0.304688 -0.16406,-0.128906 -0.35156,-0.199219 -0.55078,-0.199219 -0.17578,0 -0.375,0.05859 -0.58594,0.175782 -0.21094,0.105468 -0.52734,0.351562 -0.96094,0.738281 v -0.832031 z m 7.83399,3.386718 c 0.082,0 0.14062,-0.01172 0.17578,-0.04687 0.0352,-0.03516 0.0469,-0.07031 0.0469,-0.117187 0,-0.04687 -0.0117,-0.09375 -0.0469,-0.117188 -0.0352,-0.03516 -0.0937,-0.04687 -0.17578,-0.04687 h -0.44532 v -2.167968 c 0,-0.257813 -0.11718,-0.492188 -0.35156,-0.703125 -0.22265,-0.199219 -0.55078,-0.292969 -0.96094,-0.292969 -0.21093,0 -0.52734,0.04687 -0.92578,0.152344 -0.25781,0.07031 -0.41015,0.128906 -0.44531,0.164062 -0.0234,0.03516 -0.0352,0.05859 -0.0352,0.105469 0,0.04687 0.0117,0.08203 0.0469,0.117187 0.0234,0.03516 0.0586,0.04687 0.10547,0.04687 0.0234,0 0.0703,-0.01172 0.15234,-0.03516 0.46875,-0.152344 0.83203,-0.222656 1.07813,-0.222656 0.33984,0 0.59765,0.05859 0.76172,0.199219 0.17578,0.128906 0.24609,0.28125 0.24609,0.46875 v 0.527343 c -0.19922,-0.03516 -0.39844,-0.07031 -0.57422,-0.09375 -0.17578,-0.02344 -0.33984,-0.02344 -0.49219,-0.02344 -0.5625,0 -0.99609,0.117187 -1.27734,0.351562 -0.30469,0.234375 -0.44531,0.515625 -0.44531,0.832032 0,0.28125 0.11718,0.539062 0.33984,0.738281 0.21094,0.199219 0.52734,0.292969 0.91406,0.292969 0.55078,0 1.06641,-0.199219 1.53516,-0.597657 v 0.46875 z m -0.77344,-0.914062 c -0.24609,0.246094 -0.50391,0.433594 -0.75,0.550781 -0.24609,0.105469 -0.50391,0.164063 -0.79688,0.164063 -0.29296,0 -0.51562,-0.07031 -0.67968,-0.199219 -0.15235,-0.140625 -0.23438,-0.304688 -0.23438,-0.503906 0,-0.210938 0.10547,-0.398438 0.30469,-0.550782 0.26953,-0.199218 0.64453,-0.304687 1.125,-0.304687 0.1875,0 0.375,0 0.55078,0.02344 0.16406,0.02344 0.33984,0.05859 0.48047,0.105469 z m 3.31348,2.085937 h -1.03125 c -0.0703,0 -0.12891,0.02344 -0.16407,0.04687 -0.0352,0.03516 -0.0586,0.07031 -0.0586,0.117188 0,0.05859 0.0234,0.09375 0.0586,0.117187 0.0352,0.03516 0.0937,0.04687 0.16407,0.04687 h 1.8164 c 0.082,0 0.12891,-0.01172 0.17578,-0.04687 0.0234,-0.02344 0.0469,-0.07031 0.0469,-0.117187 0,-0.04687 -0.0234,-0.08203 -0.0469,-0.117188 -0.0469,-0.02344 -0.0937,-0.04687 -0.17578,-0.04687 h -0.43359 l 2.07422,-4.230468 c 0.11718,0 0.1875,-0.01172 0.21093,-0.01172 0.0352,-0.01172 0.0469,-0.02344 0.0703,-0.05859 0.0234,-0.02344 0.0352,-0.05859 0.0352,-0.09375 0,-0.04687 -0.0117,-0.08203 -0.0469,-0.117187 -0.0352,-0.03516 -0.0937,-0.04687 -0.17578,-0.04687 h -0.87891 c -0.082,0 -0.14062,0.01172 -0.17578,0.04687 -0.0352,0.03516 -0.0469,0.07031 -0.0469,0.117187 0,0.05859 0.0117,0.08203 0.0469,0.117188 0.0352,0.03516 0.0937,0.04687 0.17578,0.04687 h 0.43359 l -1.32421,2.695312 -1.33594,-2.695312 h 0.43359 c 0.082,0 0.12891,-0.01172 0.17578,-0.04687 0.0352,-0.03516 0.0469,-0.07031 0.0469,-0.117188 0,-0.04687 -0.0117,-0.08203 -0.0469,-0.117187 -0.0469,-0.03516 -0.0937,-0.04687 -0.17578,-0.04687 h -0.90234 c -0.0469,0 -0.10547,0.01172 -0.12891,0.01172 -0.0234,0.02344 -0.0469,0.03516 -0.0703,0.05859 -0.0117,0.03516 -0.0234,0.05859 -0.0234,0.09375 0,0.04687 0.0234,0.08203 0.0586,0.117188 0.0352,0.03516 0.082,0.04687 0.16406,0.04687 h 0.0937 l 1.53515,3.058593 z m 6.29882,-5.753906 c 0.082,0 0.14063,-0.01172 0.17579,-0.04687 0.0234,-0.03516 0.0469,-0.05859 0.0469,-0.105469 0,-0.04687 -0.0234,-0.09375 -0.0469,-0.128906 -0.0352,-0.02344 -0.0937,-0.04687 -0.17579,-0.04687 h -1.11328 v 5.917969 h 1.11328 c 0.082,0 0.14063,-0.01172 0.17579,-0.04687 0.0234,-0.02344 0.0469,-0.07031 0.0469,-0.117188 0,-0.04687 -0.0234,-0.09375 -0.0469,-0.117187 -0.0352,-0.03516 -0.0937,-0.04687 -0.17579,-0.04687 h -0.78515 v -5.261719 z m 2.51661,0.08203 c -0.0703,0.02344 -0.11719,0.04687 -0.12891,0.07031 -0.0352,0.03516 -0.0469,0.07031 -0.0469,0.105469 0,0.04687 0.0234,0.09375 0.0586,0.117187 0.0234,0.03516 0.0586,0.05859 0.0937,0.05859 0.0352,0 0.0703,-0.01172 0.1289,-0.03516 l 1.06641,-0.328125 v 4.183593 h -1.13672 c -0.082,0 -0.1289,0.01172 -0.16406,0.04687 -0.0352,0.02344 -0.0469,0.07031 -0.0469,0.117188 0,0.04687 0.0117,0.08203 0.0469,0.117187 0.0352,0.03516 0.082,0.04687 0.16406,0.04687 h 2.58985 c 0.082,0 0.1289,-0.01172 0.16406,-0.04687 0.0352,-0.03516 0.0469,-0.07031 0.0469,-0.117187 0,-0.04687 -0.0117,-0.09375 -0.0469,-0.117188 -0.0352,-0.03516 -0.082,-0.04687 -0.16406,-0.04687 h -1.125 v -4.640625 z m 5.18554,5.179688 c -0.082,0 -0.1289,0.01172 -0.16406,0.04687 -0.0352,0.03516 -0.0469,0.07031 -0.0469,0.117187 0,0.04687 0.0117,0.09375 0.0469,0.117188 0.0352,0.03516 0.082,0.04687 0.16406,0.04687 h 1.125 V 17.2123 h -1.125 c -0.082,0 -0.1289,0.02344 -0.16406,0.04687 -0.0352,0.03516 -0.0469,0.08203 -0.0469,0.128906 0,0.04687 0.0117,0.07031 0.0469,0.105469 0.0352,0.03516 0.082,0.04687 0.16406,0.04687 h 0.79688 v 5.261719 z m 0,0"
           style="fill:#231f20;fill-opacity:1;fill-rule:nonzero;stroke:none" />
      </g>
      <path
         id="path15"
         d="m 2512,174 h 279 v 6 h -279 z"
         style="fill:url(#linearGradient17);fill-opacity:1;fill-rule:nonzero;stroke:none"
         transform="matrix(0.13333333,0,0,-0.13333333,0,53.146667)"
         clip-path="url(#clipPath17)" />
      <path
         id="path18"
         d="M 2.5,177.102 H 2512.35"
         style="fill:none;stroke:#231f20;stroke-width:5;stroke-linecap:butt;stroke-linejoin:miter;stroke-miterlimit:10;stroke-dasharray:none;stroke-opacity:1"
         transform="matrix(0.13333333,0,0,-0.13333333,0,53.146667)" />
      <path
         id="path19"
         d="M 1675.74,201.836 V 152.355"
         style="fill:none;stroke:#231f20;stroke-width:5;stroke-linecap:butt;stroke-linejoin:miter;stroke-miterlimit:10;stroke-dasharray:none;stroke-opacity:1"
         transform="matrix(0.13333333,0,0,-0.13333333,0,53.146667)" />
      <path
         id="path20"
         d="M 2.5,203.527 V 154.055"
         style="fill:none;stroke:#231f20;stroke-width:5;stroke-linecap:butt;stroke-linejoin:miter;stroke-miterlimit:10;stroke-dasharray:none;stroke-opacity:1"
         transform="matrix(0.13333333,0,0,-0.13333333,0,53.146667)" />
    </g>
  </g>
</svg>
