<?xml version="1.0" encoding="UTF-8" standalone="no"?>
<!-- Created with Inkscape (http://www.inkscape.org/) -->

<svg
   version="1.1"
   id="svg1"
   width="279.45334"
   height="224.48"
   viewBox="0 0 279.45334 224.48"
   sodipodi:docname="pha15f03.eps"
   xmlns:inkscape="http://www.inkscape.org/namespaces/inkscape"
   xmlns:sodipodi="http://sodipodi.sourceforge.net/DTD/sodipodi-0.dtd"
   xmlns="http://www.w3.org/2000/svg"
   xmlns:svg="http://www.w3.org/2000/svg">
  <defs
     id="defs1" />
  <sodipodi:namedview
     id="namedview1"
     pagecolor="#ffffff"
     bordercolor="#000000"
     borderopacity="0.25"
     inkscape:showpageshadow="2"
     inkscape:pageopacity="0.0"
     inkscape:pagecheckerboard="0"
     inkscape:deskcolor="#d1d1d1">
    <inkscape:page
       x="0"
       y="0"
       inkscape:label="1"
       id="page1"
       width="279.45334"
       height="224.48"
       margin="0"
       bleed="0" />
  </sodipodi:namedview>
  <g
     id="g1"
     inkscape:groupmode="layer"
     inkscape:label="1">
    <g
       id="group-R5">
      <path
         id="path2"
         d="M 2.7414344,1.3468859 C 1.8390906,0.57344844 1.3000281,-0.89139531 1.3000281,-2.4617078 c 0,-1.5703125 0.5273438,-3.046875 1.4414063,-3.796875 L 2.5773719,-6.4695203 c -1.3359375,0.9023437 -1.93359377,2.3554687 -1.93359377,3.9960937 0,1.65234379 0.59765627,3.11718754 1.93359377,4.0195313 z m 4.3652344,-1.69921871 -0.082031,-0.24609375 c -0.09375,0.0585938 -0.2226562,0.10546875 -0.3398437,0.10546875 -0.1523438,0 -0.3164063,-0.140625 -0.3164063,-0.55078129 v -1.6992187 c 0,-0.46875 -0.09375,-0.84375 -0.4101562,-1.1132813 -0.1992188,-0.1640625 -0.46875,-0.2460937 -0.75,-0.2460937 -0.515625,0.1054687 -1.1132813,0.4570312 -1.3710938,0.6445312 -0.1640625,0.1289063 -0.2929687,0.2226563 -0.2929687,0.3632813 0,0.2109375 0.2460937,0.3867187 0.4101562,0.3867187 0.1289063,0 0.2226563,-0.058594 0.2578125,-0.2109375 0.082031,-0.28125 0.1640625,-0.4804687 0.28125,-0.5976562 0.09375,-0.1054688 0.2226563,-0.1757813 0.4101563,-0.1757813 0.4570312,0 0.7617187,0.3632813 0.7617187,1.03125 v 0.1640625 c -0.1992187,0.1640625 -0.8671875,0.4101563 -1.4179687,0.5859375 -0.4921875,0.1757813 -0.7382813,0.4570313 -0.7382813,0.9023438 0,0.57421874 0.4570313,1.11328124 1.1015625,1.11328124 0.2695313,0 0.7148438,-0.328125 1.078125,-0.5859375 0.046875,0.1640625 0.09375,0.29296875 0.2109375,0.421875 0.1054688,0.08203125 0.2929688,0.1640625 0.4335938,0.1640625 z M 5.6652625,-0.76248906 c -0.1757812,0.1640625 -0.4921875,0.31640625 -0.7265625,0.328125 -0.28125,0 -0.6445312,-0.234375 -0.6445312,-0.70312504 0,-0.328125 0.1992187,-0.5039062 0.5507812,-0.6679687 0.1875,-0.09375 0.6328125,-0.28125 0.8203125,-0.3867188 z M 7.5754188,-6.2585828 c 0.9140625,0.7382812 1.4414062,2.2265625 1.4414062,3.796875 0,1.57031249 -0.5039062,3.02343749 -1.4414062,3.8085937 L 7.7512,1.5461047 c 1.359375,-0.92578126 1.921875,-2.36718751 1.921875,-4.0078125 0,-1.6523438 -0.5625,-3.09375 -1.921875,-4.0078125 z M 2.4279578,84.292198 C 1.5256141,83.518761 0.98655156,82.053917 0.98655156,80.483605 c 0,-1.570313 0.52734374,-3.046875 1.44140624,-3.796875 L 2.2638953,76.475792 c -1.33593749,0.902344 -1.93359374,2.355469 -1.93359374,3.996094 0,1.652344 0.59765625,3.117187 1.93359374,4.019531 z m 1.7988281,-5.039062 v -2.8125 c -0.328125,0.117187 -0.890625,0.269531 -1.3242187,0.328125 v 0.210937 c 0.5859375,0.04687 0.609375,0.105469 0.609375,0.667969 v 5.074219 c 0.5039062,0.246094 0.9609375,0.328125 1.3359375,0.328125 1.2304687,0 2.296875,-0.949219 2.296875,-2.285156 0,-1.078125 -0.8203125,-1.921875 -1.8046875,-1.921875 -0.09375,0 -0.2226563,0.03516 -0.3632813,0.09375 z m 0,0.28125 c 0.1640625,-0.105469 0.4570313,-0.175781 0.7148438,-0.175781 0.7617187,0 1.3945312,0.597656 1.3945312,1.640625 0,1.054687 -0.4804687,1.710937 -1.2421875,1.710937 -0.4804687,-0.01172 -0.75,-0.328125 -0.8085937,-0.515625 -0.035156,-0.08203 -0.058594,-0.175781 -0.058594,-0.304687 z M 7.891825,76.68673 c 0.9140625,0.738281 1.4414063,2.226562 1.4414063,3.796875 0,1.570312 -0.5039063,3.023437 -1.4414063,3.808593 l 0.1757813,0.199219 c 1.359375,-0.925781 1.921875,-2.367187 1.921875,-4.007812 0,-1.652344 -0.5625,-3.09375 -1.921875,-4.007813 z m 0,0"
         style="fill:#231f20;fill-opacity:1;fill-rule:nonzero;stroke:none"
         aria-label="(a)&#10;(b)"
         transform="matrix(1.3333333,0,0,1.3333333,132.41507,109.50493)" />
      <path
         id="path3"
         d="m 234.438,1038.89 h 609.64"
         style="fill:none;stroke:#231f20;stroke-width:5;stroke-linecap:butt;stroke-linejoin:miter;stroke-miterlimit:10;stroke-dasharray:none;stroke-opacity:1"
         transform="matrix(0.13333333,0,0,-0.13333333,0,224.48)" />
      <path
         id="path4"
         d="m 836.895,1038.89 -8.766,14.42 0.492,0.32 23.504,-9.33 c 8.184,-1.8 16.371,-3.6 24.559,-5.41 -8.188,-1.8 -16.375,-3.6 -24.559,-5.4 l -23.504,-9.33 -0.492,0.24 8.766,14.49"
         style="fill:#231f20;fill-opacity:1;fill-rule:nonzero;stroke:none"
         transform="matrix(0.13333333,0,0,-0.13333333,0,224.48)" />
      <path
         id="path5"
         d="m 2.6826078,-0.32833594 -0.082031,-0.234375 c -0.1289063,0.0703125 -0.328125,0.15234375 -0.5625,0.15234375 -0.2226563,0 -0.515625,-0.12890625 -0.515625,-0.85546871 v -2.3203125 h 0.9609375 c 0.1054687,-0.058594 0.1289062,-0.2578125 0.058594,-0.3515625 H 1.5224516 v -1.2304688 l -0.1289063,-0.011719 -0.58593749,0.5859375 v 0.65625 H 0.39745156 l -0.24609375,0.2695312 0.0351563,0.082031 h 0.62109375 v 2.62499996 c 0,0.703125 0.31640624,1.06640625 0.87890624,1.06640625 0.082031,0 0.234375,-0.03515625 0.3867187,-0.1171875 z M 4.0097562,-4.8283359 c 0.2578125,0 0.4570313,-0.2109375 0.4570313,-0.4570313 0,-0.2695312 -0.1992188,-0.46875 -0.4570313,-0.46875 -0.234375,0 -0.4570312,0.1992188 -0.4570312,0.46875 0,0.2460938 0.2226562,0.4570313 0.4570312,0.4570313 z M 5.0644437,-2.109375e-4 V -0.23458594 C 4.4785062,-0.29317969 4.4199125,-0.34005469 4.4199125,-0.94942969 V -4.0548984 C 4.021475,-3.9025547 3.5996,-3.7853672 3.1425687,-3.7033359 v 0.2109375 c 0.5390625,0.09375 0.5625,0.1289062 0.5625,0.6796875 v 1.86328121 c 0,0.609375 -0.058594,0.65625 -0.6210937,0.71484375 v 0.2343750025 z m 7.2978513,0 V -0.23458594 c -0.503906,-0.0585938 -0.585937,-0.09375 -0.585937,-0.69140625 V -2.6603672 c 0,-0.890625 -0.433594,-1.3828125 -1.136719,-1.3828125 -0.257812,0 -0.492187,0.1054688 -0.6796874,0.234375 -0.2226563,0.140625 -0.4804688,0.3046875 -0.7382813,0.5039063 -0.1875,-0.46875 -0.5742187,-0.7382813 -1.0078125,-0.7382813 -0.28125,0 -0.5039062,0.1054688 -0.7382812,0.2460938 -0.2695313,0.1640625 -0.46875,0.328125 -0.65625,0.4570312 v -0.7265625 c -0.3984375,0.1757813 -0.8554688,0.2929688 -1.2539063,0.3632813 v 0.2109375 c 0.5273438,0.082031 0.5507813,0.1289062 0.5507813,0.703125 v 1.86328121 c 0,0.5859375 -0.082031,0.6328125 -0.6679688,0.69140625 V -2.109375e-4 H 7.3466703 V -0.23458594 C 6.9013578,-0.29317969 6.8310453,-0.34005469 6.8310453,-0.92599219 V -3.0470859 c 0.2695313,-0.2226563 0.6210938,-0.46875 0.984375,-0.46875 0.5507813,0 0.7851563,0.375 0.7851563,1.0429687 v 1.54687501 c 0,0.59765625 -0.082031,0.6328125 -0.6445313,0.69140625 v 0.2343750025 h 1.921875 V -0.23458594 C 9.3857328,-0.29317969 9.3037016,-0.34005469 9.3037016,-0.91427344 V -2.6603672 c 0,-0.1757812 -0.011719,-0.2695312 -0.023437,-0.3867187 0.3398437,-0.28125 0.6796875,-0.46875 1.0078134,-0.46875 0.5625,0 0.796875,0.4101562 0.796875,1.0546875 v 1.49999996 c 0,0.6328125 -0.105469,0.66796875 -0.632814,0.7265625 V -2.109375e-4 Z M 15.948233,-0.94942969 c -0.328125,0.3046875 -0.667969,0.4453125 -1.019531,0.4453125 -0.632813,0 -1.335938,-0.50390621 -1.347657,-1.72265621 1.066407,-0.046875 2.191407,-0.1289063 2.355469,-0.1640625 0.152344,-0.035156 0.199219,-0.1054688 0.199219,-0.28125 0,-0.703125 -0.597656,-1.3710938 -1.347656,-1.3710938 -0.46875,0 -0.949219,0.2460938 -1.324219,0.65625 -0.363281,0.4101563 -0.597656,0.9609375 -0.597656,1.5820313 0,1.00781246 0.65625,1.91015621 1.757812,1.91015621 0.28125,0 0.902344,-0.1640625 1.464844,-0.8671875 z M 14.577139,-3.7033359 c 0.492188,0 0.796875,0.421875 0.785156,0.890625 0,0.1289062 -0.04687,0.1875 -0.210937,0.1875 -0.527344,0.011719 -1.019531,0.023437 -1.523438,0.023437 0.128907,-0.7265625 0.527344,-1.1015625 0.949219,-1.101562 z m 0,0"
         style="fill:#231f20;fill-opacity:1;fill-rule:nonzero;stroke:none"
         aria-label="time"
         transform="matrix(1.3333333,0,0,1.3333333,125.45053,91.012)" />
      <path
         id="path6"
         d="M 2093.38,1584.54 H 204.371 v 96.59 H 2093.38 Z"
         style="fill:none;stroke:#231f20;stroke-width:5;stroke-linecap:butt;stroke-linejoin:miter;stroke-miterlimit:10;stroke-dasharray:none;stroke-opacity:1"
         transform="matrix(0.13333333,0,0,-0.13333333,0,224.48)" />
      <path
         id="path7"
         d="m 5.5318359,-1.5829766 c -0.4570312,0.90234379 -0.9375,1.39453129 -1.8632812,1.39453129 -1.359375,0 -2.3554688,-1.14843749 -2.3554688,-2.83593749 0,-1.3710938 0.796875,-2.6367188 2.3085938,-2.6367188 0.9726562,0 1.5117187,0.3867188 1.7460937,1.3359375 l 0.2695313,-0.058594 c -0.058594,-0.4804688 -0.1054688,-0.84375 -0.1875,-1.359375 -0.2460938,-0.046875 -0.8554688,-0.2460938 -1.59375,-0.2460938 -2.0039063,0 -3.45703126,1.2539063 -3.45703126,3.140625 0,1.4296875 0.98437496,2.98828129 3.22265626,2.98828129 0.6445312,0 1.40625,-0.1875 1.6523437,-0.24609375 0.1640625,-0.3046875 0.3867188,-0.96093754 0.515625,-1.38281254 z m 0.8642579,-4.265625 v 0.2460938 c 0.6679687,0.046875 0.7382812,0.082031 0.7382812,0.8789062 v 3.5976563 c 0,0.74999999 -0.070312,0.82031249 -0.7851562,0.86718749 v 0.2578124975 h 2.4375 V -0.25875781 c -0.8085938,-0.046875 -0.890625,-0.09375 -0.890625,-0.85546879 v -1.4179687 l 0.6679687,0.1757812 c 0.09375,0.011719 0.2695313,0.011719 0.3984375,0 0.8789063,-0.1171875 1.757813,-0.6914062 1.757813,-1.8515625 0,-0.5859375 -0.234375,-1.0078125 -0.585938,-1.265625 -0.3632812,-0.2695312 -0.8671875,-0.375 -1.5117187,-0.375 z m 1.5,0.8203125 c 0,-0.2578125 0.023437,-0.3632812 0.09375,-0.421875 0.070312,-0.070312 0.2578125,-0.1171875 0.5039062,-0.1171875 0.7382813,0 1.359375,0.421875 1.359375,1.3945313 0,1.1367187 -0.7148437,1.453125 -1.3007812,1.453125 -0.2929688,0 -0.5390625,-0.058594 -0.65625,-0.1054688 z M 17.49668,-5.8486016 h -2.144532 v 0.2460938 c 0.632813,0.046875 0.820313,0.1523437 0.878907,0.5039062 0.03516,0.28125 0.05859,0.65625 0.05859,1.4882813 v 0.6796875 c 0,1.4882812 -0.410156,2.56640624 -1.699218,2.56640624 -1.113282,0 -1.699219,-0.82031254 -1.699219,-2.27343754 v -2.0507812 c 0,-0.8085938 0.08203,-0.8671875 0.785156,-0.9140625 v -0.2460938 h -2.332031 v 0.2460938 c 0.714844,0.070312 0.785156,0.1054687 0.785156,0.9140625 v 2.25 c 0,1.0546875 0.257813,1.72265624 0.796875,2.14453124 0.398438,0.3046875 0.914063,0.43359375 1.441406,0.43359375 0.585938,0 1.195313,-0.19921875 1.605469,-0.62109375 0.527344,-0.55078124 0.679688,-1.32421874 0.679688,-2.37890624 v -0.75 c 0,-0.8320313 0.02344,-1.21875 0.04687,-1.453125 0.04687,-0.375 0.257812,-0.5039063 0.796875,-0.5390625 z M 5.9976563,38.486359 H 3.7125 v 0.246094 c 0.890625,0.07031 0.9492188,0.117188 0.9492188,0.773438 v 0.761718 c 0,0.375 -0.1054688,0.480469 -0.2929688,0.585938 -0.1875,0.09375 -0.46875,0.164062 -0.7734375,0.164062 -1.7460938,0 -2.5078125,-1.511718 -2.5078125,-2.8125 0,-1.664062 1.0078125,-2.671875 2.390625,-2.671875 0.8554688,0 1.5351563,0.292969 1.7460938,1.394532 l 0.2578125,-0.05859 c -0.070312,-0.585938 -0.1171875,-1.089844 -0.140625,-1.394531 -0.2929688,-0.07031 -0.984375,-0.269532 -1.734375,-0.269532 -1.7578126,0 -3.4335938,1.019532 -3.4335938,3.105469 0,1.78125 1.3242187,3.023438 3.3046875,3.023438 0.7148438,0 1.453125,-0.199219 2.015625,-0.339844 -0.058594,-0.246094 -0.070312,-0.527344 -0.070312,-0.84375 v -0.761719 c 0,-0.539062 0.035156,-0.585937 0.5742188,-0.65625 z M 6.61875,35.345734 v 0.246094 c 0.6679688,0.04687 0.7382813,0.08203 0.7382813,0.878906 v 3.597657 c 0,0.75 -0.070312,0.820312 -0.7851563,0.867187 v 0.257813 h 2.4375 V 40.935578 C 8.2007813,40.888703 8.11875,40.841828 8.11875,40.080109 v -1.417968 l 0.6679688,0.175781 c 0.09375,0.01172 0.2695312,0.01172 0.3984375,0 0.8789067,-0.117188 1.7578127,-0.691406 1.7578127,-1.851563 0,-0.585937 -0.234375,-1.007812 -0.585938,-1.265625 -0.363281,-0.269531 -0.8671872,-0.375 -1.5117185,-0.375 z m 1.5,0.820313 c 0,-0.257813 0.023437,-0.363281 0.09375,-0.421875 0.070312,-0.07031 0.2578125,-0.117188 0.5039063,-0.117188 0.7382812,0 1.3593747,0.421875 1.3593747,1.394532 0,1.136718 -0.7148435,1.453125 -1.300781,1.453125 -0.2929687,0 -0.5390625,-0.05859 -0.65625,-0.105469 z m 9.603516,-0.820313 h -2.144532 v 0.246094 c 0.632813,0.04687 0.820313,0.152344 0.878907,0.503906 0.03516,0.28125 0.05859,0.65625 0.05859,1.488282 v 0.679687 c 0,1.488281 -0.410156,2.566406 -1.699218,2.566406 -1.113282,0 -1.699219,-0.820312 -1.699219,-2.273437 v -2.050781 c 0,-0.808594 0.08203,-0.867188 0.785156,-0.914063 v -0.246094 h -2.332031 v 0.246094 c 0.714844,0.07031 0.785156,0.105469 0.785156,0.914063 v 2.25 c 0,1.054687 0.257813,1.722656 0.796875,2.144531 0.398438,0.304687 0.914063,0.433594 1.441406,0.433594 0.585938,0 1.195313,-0.199219 1.605469,-0.621094 0.527344,-0.550781 0.679688,-1.324219 0.679688,-2.378906 v -0.75 c 0,-0.832032 0.02344,-1.21875 0.04687,-1.453125 0.04687,-0.375 0.257812,-0.503907 0.796875,-0.539063 z m 0,0"
         style="fill:#231f20;fill-opacity:1;fill-rule:nonzero;stroke:none"
         aria-label="CPU&#10;GPU"
         transform="matrix(1.3333333,0,0,1.3333333,0.3,10.442667)" />
      <path
         id="path8"
         d="M 448.559,1584.54 H 204.371 v 96.59 h 244.188 v -96.59"
         style="fill:#e5e4e4;fill-opacity:1;fill-rule:nonzero;stroke:none"
         transform="matrix(0.13333333,0,0,-0.13333333,0,224.48)" />
      <path
         id="path9"
         d="M 448.559,1584.54 H 204.371 v 96.59 h 244.188 z"
         style="fill:none;stroke:#231f20;stroke-width:5;stroke-linecap:butt;stroke-linejoin:miter;stroke-miterlimit:10;stroke-dasharray:none;stroke-opacity:1"
         transform="matrix(0.13333333,0,0,-0.13333333,0,224.48)" />
      <path
         id="path10"
         d="M 2075.45,1167.46 H 204.371 v 96.59 H 2075.45 Z"
         style="fill:none;stroke:#231f20;stroke-width:5;stroke-linecap:butt;stroke-linejoin:miter;stroke-miterlimit:10;stroke-dasharray:none;stroke-opacity:1"
         transform="matrix(0.13333333,0,0,-0.13333333,0,224.48)" />
      <path
         id="path11"
         d="M 1186.75,1167.46 H 463.785 v 96.59 h 722.965 v -96.59"
         style="fill:#e5e4e4;fill-opacity:1;fill-rule:nonzero;stroke:none"
         transform="matrix(0.13333333,0,0,-0.13333333,0,224.48)" />
      <path
         id="path12"
         d="M 1186.75,1167.46 H 463.785 v 96.59 h 722.965 z"
         style="fill:none;stroke:#231f20;stroke-width:5;stroke-linecap:butt;stroke-linejoin:miter;stroke-miterlimit:10;stroke-dasharray:none;stroke-opacity:1"
         transform="matrix(0.13333333,0,0,-0.13333333,0,224.48)" />
      <path
         id="path13"
         d="m 448.559,1555.28 10.961,-228.6"
         style="fill:none;stroke:#231f20;stroke-width:5;stroke-linecap:butt;stroke-linejoin:miter;stroke-miterlimit:10;stroke-dasharray:none;stroke-opacity:1"
         transform="matrix(0.13333333,0,0,-0.13333333,0,224.48)" />
      <path
         id="path14"
         d="m 459.18,1333.85 13.972,9.45 0.348,-0.48 -8.191,-23.92 c -1.407,-8.26 -2.821,-16.52 -4.223,-24.79 -2.195,8.09 -4.383,16.18 -6.578,24.28 l -10.445,23.02 0.218,0.5 14.899,-8.06"
         style="fill:#231f20;fill-opacity:1;fill-rule:nonzero;stroke:none"
         transform="matrix(0.13333333,0,0,-0.13333333,0,224.48)" />
      <path
         id="path15"
         d="m 1184.05,1294.06 8.87,228.69"
         style="fill:none;stroke:#231f20;stroke-width:5;stroke-linecap:butt;stroke-linejoin:miter;stroke-miterlimit:10;stroke-dasharray:none;stroke-opacity:1"
         transform="matrix(0.13333333,0,0,-0.13333333,0,224.48)" />
      <path
         id="path16"
         d="m 1192.64,1515.57 -14.73,-8.2 -0.32,0.51 10.24,23.11 c 2.12,8.12 4.24,16.23 6.35,24.34 1.49,-8.25 2.96,-16.51 4.45,-24.76 l 8.42,-23.84 -0.27,-0.48 -14.14,9.32"
         style="fill:#231f20;fill-opacity:1;fill-rule:nonzero;stroke:none"
         transform="matrix(0.13333333,0,0,-0.13333333,0,224.48)" />
      <path
         id="path17"
         d="M 2.1435984,-4.140625e-4 V -0.23478906 c -0.5742187,-0.0585938 -0.65625,-0.10546875 -0.65625,-0.703125 V -6.4105703 c -0.3046875,0.1054687 -0.85546871,0.2578125 -1.32421871,0.3164062 v 0.2109375 c 0.5625,0.046875 0.62109375,0.082031 0.62109375,0.6914063 v 4.25390624 c 0,0.59765625 -0.0820313,0.64453125 -0.64453125,0.703125 V -4.140625e-4 Z M 6.207075,-0.35197656 l -0.09375,-0.234375 c -0.09375,0.0585938 -0.2226562,0.10546875 -0.328125,0.10546875 -0.1523437,0 -0.3164062,-0.140625 -0.3164062,-0.55078129 v -1.6640625 c 0,-0.46875 -0.082031,-0.84375 -0.3984375,-1.1015625 C 4.8711375,-3.9613516 4.6016063,-4.0433828 4.332075,-4.0433828 3.81645,-3.9379141 3.2305125,-3.5863516 2.9844188,-3.4105703 2.8086375,-3.2816641 2.69145,-3.1879141 2.69145,-3.0472891 c 0,0.1992188 0.234375,0.3867188 0.3984375,0.3867188 0.1289063,0 0.2226563,-0.070312 0.2578125,-0.2109375 0.070312,-0.28125 0.1523438,-0.4804688 0.2695313,-0.5976563 0.09375,-0.1054687 0.2226562,-0.1757812 0.4101562,-0.1757812 0.4453125,0 0.75,0.3632812 0.75,1.0195312 v 0.1640625 c -0.1992187,0.1523438 -0.8554687,0.3984375 -1.3945312,0.5742188 -0.4921875,0.1757812 -0.7265625,0.4570312 -0.7265625,0.90234374 0,0.5625 0.4453125,1.08984375 1.078125,1.08984375 0.2695312,0 0.703125,-0.328125 1.0664062,-0.57421875 0.046875,0.15234375 0.09375,0.28125 0.2109375,0.41015625 0.1054688,0.08203125 0.2929688,0.1640625 0.421875,0.1640625 z M 4.7773875,-0.76213281 c -0.1640625,0.1640625 -0.4804687,0.31640625 -0.7148437,0.328125 -0.28125,0 -0.6445313,-0.22265625 -0.6445313,-0.69140629 0,-0.328125 0.1992188,-0.4921875 0.5507813,-0.65625 0.1875,-0.09375 0.6210937,-0.28125 0.8085937,-0.375 z m 5.9707035,0.31640625 -0.257813,-0.0117188 c -0.339844,-0.0234375 -0.410156,-0.0820313 -0.410156,-0.52734375 V -3.9965078 c -0.4804689,0.09375 -0.9492189,0.140625 -1.4179689,0.1640625 v 0.1992187 c 0.65625,0.09375 0.703125,0.1289063 0.703125,0.6445313 v 2.09765624 c -0.3046875,0.29296875 -0.6445312,0.43359375 -0.9726562,0.43359375 -0.3984375,0 -0.7851563,-0.22265625 -0.7851563,-1.01953129 v -1.2070312 c 0,-0.609375 0,-1.03125 0.023437,-1.3125 -0.4335937,0.082031 -0.8671875,0.140625 -1.2890625,0.1640625 v 0.1992187 c 0.515625,0.1054688 0.5507813,0.140625 0.5507813,0.6328125 v 1.7695313 c 0,0.97265624 0.515625,1.33593749 1.1132812,1.33593749 0.2460938,0 0.4335938,-0.0703125 0.6914063,-0.22265625 0.2578125,-0.15234375 0.46875,-0.31640625 0.6679687,-0.46875 v 0.64453125 l 0.058594,0.046875 c 0.4453125,-0.12890625 0.9023444,-0.2578125 1.3242194,-0.31640625 z m 4.825195,0.4453124975 V -0.23478906 c -0.527344,-0.0585938 -0.574219,-0.09375 -0.574219,-0.703125 V -2.6722891 c 0,-0.8789062 -0.445312,-1.3710937 -1.160156,-1.3710937 -0.257813,0 -0.492188,0.1054687 -0.75,0.2695312 -0.222656,0.1523438 -0.421875,0.2929688 -0.597656,0.421875 v -0.7148437 c -0.398438,0.1757812 -0.820313,0.28125 -1.253907,0.3632812 v 0.2109375 c 0.492188,0.09375 0.539063,0.1171875 0.539063,0.6914063 v 1.86328124 c 0,0.59765625 -0.04687,0.64453125 -0.65625,0.703125 v 0.2343749975 h 1.957031 V -0.23478906 c -0.527344,-0.0585938 -0.585937,-0.09375 -0.585937,-0.703125 V -3.0472891 c 0.269531,-0.234375 0.621093,-0.46875 0.984375,-0.46875 0.597656,0 0.820312,0.4101563 0.820312,1.03125 v 1.50000004 c 0,0.62109375 -0.07031,0.69140625 -0.597656,0.75 V -4.140625e-4 Z M 19.264692,-0.99650781 c -0.410156,0.38671875 -0.703125,0.4921875 -1.089844,0.4921875 -0.503906,0 -1.359375,-0.41015625 -1.359375,-1.66406249 0,-0.9492188 0.515625,-1.4414063 1.113282,-1.4414063 0.316406,0 0.632812,0.1171875 0.902343,0.375 0.08203,0.070312 0.117188,0.09375 0.164063,0.09375 0.105469,0 0.304687,-0.1992187 0.304687,-0.3867187 0,-0.1054688 -0.03516,-0.1757813 -0.152343,-0.28125 -0.140625,-0.1171875 -0.433594,-0.234375 -0.796875,-0.234375 -0.351563,0 -0.890625,0.140625 -1.359375,0.5039062 -0.597657,0.46875 -0.902344,1.078125 -0.902344,1.7695313 0,0.96093749 0.667969,1.87499999 1.804687,1.87499999 0.527344,0 1.136719,-0.3984375 1.523438,-0.9140625 z m 4.854492,0.9960937475 V -0.23478906 c -0.527343,-0.046875 -0.597656,-0.09375 -0.597656,-0.69140625 V -2.5082266 c 0,-1.078125 -0.503906,-1.5351562 -1.242187,-1.5351562 -0.480469,0 -0.972657,0.3398437 -1.289063,0.65625 v -3.0234375 c -0.339844,0.1054687 -0.890625,0.2578125 -1.3125,0.3164062 v 0.2109375 c 0.585938,0.046875 0.609375,0.09375 0.609375,0.6679688 v 4.28906249 c 0,0.59765625 -0.08203,0.64453125 -0.621094,0.69140625 v 0.2343749975 h 1.910157 V -0.23478906 c -0.539063,-0.0585938 -0.585938,-0.1171875 -0.585938,-0.69140625 V -3.0707266 c 0.257813,-0.28125 0.597656,-0.4570312 0.9375,-0.4570312 0.609375,0 0.890625,0.3632812 0.890625,1.1015625 v 1.49999999 c 0,0.5859375 -0.08203,0.6328125 -0.597656,0.69140625 v 0.2343749975 z m 0,0"
         style="fill:#231f20;fill-opacity:1;fill-rule:nonzero;stroke:none"
         aria-label="launch"
         transform="matrix(1.3333333,0,0,1.3333333,72.2864,37.801333)" />
      <path
         id="path18"
         d="m 2093.38,1167.46 h -563.46 v 96.59 h 563.46 v -96.59"
         style="fill:#e5e4e4;fill-opacity:1;fill-rule:nonzero;stroke:none"
         transform="matrix(0.13333333,0,0,-0.13333333,0,224.48)" />
      <path
         id="path19"
         d="m 2093.38,1167.46 h -563.46 v 96.59 h 563.46 z"
         style="fill:none;stroke:#231f20;stroke-width:5;stroke-linecap:butt;stroke-linejoin:miter;stroke-miterlimit:10;stroke-dasharray:none;stroke-opacity:1"
         transform="matrix(0.13333333,0,0,-0.13333333,0,224.48)" />
      <path
         id="path20"
         d="m 1518.28,1556.79 10.96,-228.59"
         style="fill:none;stroke:#231f20;stroke-width:5;stroke-linecap:butt;stroke-linejoin:miter;stroke-miterlimit:10;stroke-dasharray:none;stroke-opacity:1"
         transform="matrix(0.13333333,0,0,-0.13333333,0,224.48)" />
      <path
         id="path21"
         d="m 1528.9,1335.36 13.98,9.45 0.35,-0.47 -8.21,-23.92 c -1.4,-8.27 -2.81,-16.53 -4.21,-24.8 -2.19,8.09 -4.39,16.18 -6.58,24.28 l -10.45,23.02 0.22,0.51 14.9,-8.07"
         style="fill:#231f20;fill-opacity:1;fill-rule:nonzero;stroke:none"
         transform="matrix(0.13333333,0,0,-0.13333333,0,224.48)" />
      <path
         id="path22"
         d="M 2.1451719,-4.140625e-4 V -0.23478906 c -0.5742188,-0.0585938 -0.65625,-0.10546875 -0.65625,-0.703125 V -6.4105703 c -0.3046875,0.1054687 -0.85546877,0.2578125 -1.32421877,0.3164062 v 0.2109375 c 0.5625,0.046875 0.62109375,0.082031 0.62109375,0.6914063 v 4.25390624 c 0,0.59765625 -0.0820313,0.64453125 -0.64453125,0.703125 v 0.2343749975 z m 4.0605469,-0.3515624975 -0.09375,-0.234375 c -0.09375,0.0585938 -0.2226563,0.10546875 -0.328125,0.10546875 -0.1523438,0 -0.3164063,-0.140625 -0.3164063,-0.55078129 v -1.6640625 c 0,-0.46875 -0.082031,-0.84375 -0.3984375,-1.1015625 -0.1992187,-0.1640625 -0.46875,-0.2460937 -0.7382812,-0.2460937 -0.515625,0.1054687 -1.1015625,0.4570312 -1.3476563,0.6328125 -0.1757812,0.1289062 -0.2929687,0.2226562 -0.2929687,0.3632812 0,0.1992188 0.234375,0.3867188 0.3984375,0.3867188 0.1289062,0 0.2226562,-0.070312 0.2578125,-0.2109375 0.070312,-0.28125 0.1523437,-0.4804688 0.2695312,-0.5976563 0.09375,-0.1054687 0.2226563,-0.1757812 0.4101563,-0.1757812 0.4453125,0 0.75,0.3632812 0.75,1.0195312 v 0.1640625 C 4.5768125,-2.3090078 3.9205625,-2.0629141 3.3815,-1.8871328 c -0.4921875,0.1757812 -0.7265625,0.4570312 -0.7265625,0.90234374 0,0.5625 0.4453125,1.08984375 1.078125,1.08984375 0.2695313,0 0.703125,-0.328125 1.0664063,-0.57421875 0.046875,0.15234375 0.09375,0.28125 0.2109375,0.41015625 0.1054687,0.08203125 0.2929687,0.1640625 0.421875,0.1640625 z M 4.7760313,-0.76213281 c -0.1640625,0.1640625 -0.4804688,0.31640625 -0.7148438,0.328125 -0.28125,0 -0.6445312,-0.22265625 -0.6445312,-0.69140629 0,-0.328125 0.1992187,-0.4921875 0.5507812,-0.65625 0.1875,-0.09375 0.6210938,-0.28125 0.8085938,-0.375 z m 5.9707027,0.31640625 -0.257812,-0.0117188 c -0.339844,-0.0234375 -0.410156,-0.0820313 -0.410156,-0.52734375 V -3.9965078 c -0.4804691,0.09375 -0.9492191,0.140625 -1.4179691,0.1640625 v 0.1992187 c 0.65625,0.09375 0.703125,0.1289063 0.703125,0.6445313 v 2.09765624 c -0.3046875,0.29296875 -0.6445313,0.43359375 -0.9726563,0.43359375 -0.3984375,0 -0.7851562,-0.22265625 -0.7851562,-1.01953129 v -1.2070312 c 0,-0.609375 0,-1.03125 0.023437,-1.3125 -0.4335938,0.082031 -0.8671875,0.140625 -1.2890625,0.1640625 v 0.1992187 c 0.515625,0.1054688 0.5507812,0.140625 0.5507812,0.6328125 v 1.7695313 c 0,0.97265624 0.515625,1.33593749 1.1132813,1.33593749 0.2460937,0 0.4335937,-0.0703125 0.6914062,-0.22265625 0.2578125,-0.15234375 0.46875,-0.31640625 0.6679688,-0.46875 v 0.64453125 l 0.058594,0.046875 c 0.4453125,-0.12890625 0.9023436,-0.2578125 1.3242186,-0.31640625 z M 15.57193,-4.140625e-4 V -0.23478906 c -0.527344,-0.0585938 -0.574219,-0.09375 -0.574219,-0.703125 V -2.6722891 c 0,-0.8789062 -0.445313,-1.3710937 -1.160156,-1.3710937 -0.257813,0 -0.492188,0.1054687 -0.75,0.2695312 -0.222657,0.1523438 -0.421875,0.2929688 -0.597657,0.421875 v -0.7148437 c -0.398437,0.1757812 -0.820312,0.28125 -1.253906,0.3632812 v 0.2109375 c 0.492188,0.09375 0.539063,0.1171875 0.539063,0.6914063 v 1.86328124 c 0,0.59765625 -0.04687,0.64453125 -0.65625,0.703125 v 0.2343749975 h 1.957031 V -0.23478906 c -0.527344,-0.0585938 -0.585938,-0.09375 -0.585938,-0.703125 V -3.0472891 c 0.269532,-0.234375 0.621094,-0.46875 0.984375,-0.46875 0.597657,0 0.820313,0.4101563 0.820313,1.03125 v 1.50000004 c 0,0.62109375 -0.07031,0.69140625 -0.597656,0.75 V -4.140625e-4 Z M 19.266266,-0.99650781 c -0.410157,0.38671875 -0.703125,0.4921875 -1.089844,0.4921875 -0.503906,0 -1.359375,-0.41015625 -1.359375,-1.66406249 0,-0.9492188 0.515625,-1.4414063 1.113281,-1.4414063 0.316406,0 0.632813,0.1171875 0.902344,0.375 0.08203,0.070312 0.117187,0.09375 0.164062,0.09375 0.105469,0 0.304688,-0.1992187 0.304688,-0.3867187 0,-0.1054688 -0.03516,-0.1757813 -0.152344,-0.28125 -0.140625,-0.1171875 -0.433594,-0.234375 -0.796875,-0.234375 -0.351562,0 -0.890625,0.140625 -1.359375,0.5039062 -0.597656,0.46875 -0.902344,1.078125 -0.902344,1.7695313 0,0.96093749 0.667969,1.87499999 1.804688,1.87499999 0.527344,0 1.136719,-0.3984375 1.523437,-0.9140625 z m 4.854492,0.9960937475 V -0.23478906 c -0.527344,-0.046875 -0.597656,-0.09375 -0.597656,-0.69140625 V -2.5082266 c 0,-1.078125 -0.503907,-1.5351562 -1.242188,-1.5351562 -0.480469,0 -0.972656,0.3398437 -1.289062,0.65625 v -3.0234375 c -0.339844,0.1054687 -0.890625,0.2578125 -1.3125,0.3164062 v 0.2109375 c 0.585937,0.046875 0.609375,0.09375 0.609375,0.6679688 v 4.28906249 c 0,0.59765625 -0.08203,0.64453125 -0.621094,0.69140625 v 0.2343749975 h 1.910156 V -0.23478906 c -0.539062,-0.0585938 -0.585937,-0.1171875 -0.585937,-0.69140625 V -3.0707266 c 0.257812,-0.28125 0.597656,-0.4570312 0.9375,-0.4570312 0.609375,0 0.890625,0.3632812 0.890625,1.1015625 v 1.49999999 c 0,0.5859375 -0.08203,0.6328125 -0.597657,0.69140625 v 0.2343749975 z m 0,0"
         style="fill:#231f20;fill-opacity:1;fill-rule:nonzero;stroke:none"
         aria-label="launch"
         transform="matrix(1.3333333,0,0,1.3333333,213.74133,37.801333)" />
      <path
         id="path23"
         d="m 1520.04,1584.54 h -318.42 v 96.59 h 318.42 v -96.59"
         style="fill:#e5e4e4;fill-opacity:1;fill-rule:nonzero;stroke:none"
         transform="matrix(0.13333333,0,0,-0.13333333,0,224.48)" />
      <path
         id="path24"
         d="m 1520.04,1584.54 h -318.42 v 96.59 h 318.42 z"
         style="fill:none;stroke:#231f20;stroke-width:5;stroke-linecap:butt;stroke-linejoin:miter;stroke-miterlimit:10;stroke-dasharray:none;stroke-opacity:1"
         transform="matrix(0.13333333,0,0,-0.13333333,0,224.48)" />
      <path
         id="path25"
         d="M 5.5675781,-3.4926016 H 4.1261719 v 0.1992188 c 0.515625,0.070312 0.5625,0.1171875 0.4570312,0.5273437 -0.140625,0.5976563 -0.3632812,1.2890625 -0.5390625,1.83984379 H 4.0324219 C 3.6925781,-1.7816641 3.3644531,-2.6254141 3.0714844,-3.4574453 H 2.8605469 C 2.5207031,-2.5433828 2.2277344,-1.7113516 1.9347656,-0.94963281 H 1.9113281 C 1.7121094,-1.5590078 1.5128906,-2.1918203 1.3253906,-2.8129141 1.2082031,-3.1644766 1.2550781,-3.2230703 1.7355469,-3.2933828 V -3.4926016 H 0.07148438 v 0.1992188 c 0.38671875,0.046875 0.45703125,0.1054687 0.59765625,0.5273437 0.328125,0.9609375 0.63281247,1.89843754 0.92578127,2.85937504 h 0.234375 c 0.3046875,-0.890625 0.6328125,-1.69921874 0.9375,-2.49609374 0.328125,0.84375 0.65625,1.62890624 0.984375,2.49609374 H 3.9738281 C 4.3371094,-0.99650781 4.6886719,-2.0629141 4.9347656,-2.6957266 5.0988281,-3.1410391 5.1691406,-3.2347891 5.5675781,-3.2933828 Z m 4.0664063,3.17578129 -0.082031,-0.19921875 c -0.082031,0.046875 -0.1875,0.0820313 -0.2929687,0.0820313 -0.1289063,0 -0.28125,-0.1171875 -0.28125,-0.48046875 V -2.4027578 c 0,-0.4101563 -0.070312,-0.7382813 -0.3515625,-0.9726563 -0.1757813,-0.1523437 -0.421875,-0.2226562 -0.65625,-0.2226562 -0.4570313,0.09375 -0.984375,0.3984375 -1.2070313,0.5625 -0.1523437,0.1171875 -0.2578125,0.1992187 -0.2578125,0.3164062 0,0.1875 0.2109375,0.3515625 0.3515625,0.3515625 0.1171875,0 0.1992188,-0.058594 0.234375,-0.1875 0.070312,-0.2460937 0.140625,-0.421875 0.2460938,-0.5273437 0.082031,-0.09375 0.1992187,-0.1640625 0.3515625,-0.1640625 0.4101562,0 0.6796875,0.328125 0.6796875,0.9140625 v 0.140625 c -0.1757813,0.140625 -0.7617188,0.3632812 -1.2421875,0.515625 -0.4453125,0.1523437 -0.6445313,0.3984375 -0.6445313,0.79687499 0,0.50390625 0.3867188,0.97265625 0.9609375,0.97265625 0.234375,0 0.6210938,-0.29296875 0.9375,-0.515625 0.046875,0.140625 0.09375,0.2578125 0.1992188,0.36328125 0.082031,0.08203125 0.2460937,0.15234375 0.375,0.15234375 z m -1.265625,-0.3515625 c -0.1523438,0.140625 -0.4335938,0.28125 -0.6445313,0.28125 -0.2460937,0 -0.5625,-0.19921875 -0.5625,-0.609375 0,-0.29296879 0.1757813,-0.44531249 0.4804688,-0.58593749 0.1757812,-0.082031 0.5507812,-0.2460938 0.7265625,-0.3398438 z M 11.113477,-4.2894766 c 0.234375,0 0.410156,-0.1875 0.410156,-0.4101562 0,-0.234375 -0.175781,-0.4101563 -0.398438,-0.4101563 -0.222656,0 -0.410156,0.1757813 -0.410156,0.4101563 0,0.2226562 0.1875,0.4101562 0.398438,0.4101562 z m 0.9375,4.2890625375 V -0.21135156 c -0.515625,-0.046875 -0.5625,-0.09375 -0.5625,-0.6328125 V -3.6097891 c -0.351563,0.140625 -0.738282,0.2460938 -1.136719,0.3164063 v 0.1875 c 0.480469,0.082031 0.503906,0.1171875 0.503906,0.609375 v 1.65234374 c 0,0.5390625 -0.05859,0.5859375 -0.5625,0.6328125 V -4.140625e-4 Z M 14.728711,-0.29338281 14.64668,-0.49260156 c -0.105469,0.046875 -0.292969,0.12890625 -0.492188,0.12890625 -0.199219,0 -0.46875,-0.1171875 -0.46875,-0.76171879 v -2.0625 h 0.867188 c 0.09375,-0.058594 0.117187,-0.234375 0.04687,-0.3046875 h -0.914063 v -1.1015625 l -0.105469,-0.011719 -0.527343,0.5273437 v 0.5859375 h -0.363282 l -0.210937,0.2226563 0.02344,0.082031 h 0.550782 v 2.33203129 c 0,0.6328125 0.28125,0.94921875 0.785156,0.94921875 0.08203,0 0.199219,-0.03515625 0.339844,-0.10546875 z M -48.385547,-24.448656 c 0.234375,0 0.410156,-0.1875 0.410156,-0.410157 0,-0.234375 -0.175781,-0.410156 -0.398437,-0.410156 -0.222656,0 -0.410156,0.175781 -0.410156,0.410156 0,0.222657 0.1875,0.410157 0.398437,0.410157 z m 0.9375,4.289062 v -0.210937 c -0.515625,-0.04687 -0.5625,-0.09375 -0.5625,-0.632813 v -2.765625 c -0.351562,0.140625 -0.738281,0.246094 -1.136719,0.316406 v 0.1875 c 0.480469,0.08203 0.503907,0.117188 0.503907,0.609375 v 1.652344 c 0,0.539063 -0.05859,0.585938 -0.5625,0.632813 v 0.210937 z m 4.265625,-0.410156 -0.257812,-0.02344 c -0.292969,-0.03516 -0.351563,-0.07031 -0.351563,-0.492187 v -4.769531 c -0.292969,0.105468 -0.832031,0.222656 -1.242187,0.28125 v 0.1875 c 0.574218,0.03516 0.609375,0.05859 0.609375,0.597656 v 1.125 c -0.175782,-0.07031 -0.410157,-0.09375 -0.527344,-0.09375 -1.089844,0 -2.0625,0.878906 -2.0625,1.992187 0,1.113282 0.84375,1.699219 1.476562,1.699219 0.105469,0 0.316407,-0.04687 0.632813,-0.234375 l 0.480469,-0.28125 v 0.515625 c 0.46875,-0.164062 1.066406,-0.269531 1.242187,-0.304687 z m -1.242187,-0.269531 c -0.1875,0.140625 -0.480469,0.269531 -0.761719,0.269531 -0.515625,0 -1.101563,-0.457031 -1.101563,-1.417969 0,-1.160156 0.667969,-1.464844 1.042969,-1.464844 0.304688,0 0.632813,0.128907 0.820313,0.398438 z m 3.27832,0.679687 v -0.210937 c -0.515625,-0.04687 -0.585938,-0.09375 -0.585938,-0.621094 v -4.863281 c -0.269531,0.09375 -0.761718,0.234375 -1.183593,0.28125 v 0.1875 c 0.503906,0.03516 0.550781,0.05859 0.550781,0.609375 v 3.785156 c 0,0.527344 -0.07031,0.574219 -0.574219,0.621094 v 0.210937 z m 3.149414,-0.84375 c -0.292969,0.269531 -0.597656,0.398438 -0.914062,0.398438 -0.5625,0 -1.183594,-0.445313 -1.195313,-1.535157 0.960938,-0.03516 1.957031,-0.117187 2.085938,-0.140625 0.152343,-0.03516 0.1875,-0.09375 0.1875,-0.257812 0,-0.621094 -0.539063,-1.21875 -1.195313,-1.21875 -0.421875,0 -0.855469,0.222656 -1.183594,0.585937 -0.328125,0.363282 -0.527343,0.855469 -0.527343,1.40625 0,0.902344 0.574218,1.699219 1.558593,1.699219 0.257813,0 0.808594,-0.140625 1.3125,-0.773437 z m -1.230469,-2.449219 c 0.445313,0 0.714844,0.375 0.703125,0.796875 0,0.105469 -0.04687,0.164063 -0.1875,0.164063 -0.46875,0.01172 -0.902343,0.02344 -1.347656,0.02344 0.117188,-0.65625 0.46875,-0.984375 0.832031,-0.984375 z M 5.7873047,16.842359 c 0.234375,0 0.4101562,-0.1875 0.4101562,-0.410156 0,-0.234375 -0.1757812,-0.410156 -0.3984375,-0.410156 -0.2226562,0 -0.4101562,0.175781 -0.4101562,0.410156 0,0.222656 0.1875,0.410156 0.3984375,0.410156 z m 0.9375,4.289063 v -0.210938 c -0.515625,-0.04687 -0.5625,-0.09375 -0.5625,-0.632812 v -2.765625 c -0.3515625,0.140625 -0.7382813,0.246094 -1.1367188,0.316406 v 0.1875 c 0.4804688,0.08203 0.5039063,0.117188 0.5039063,0.609375 v 1.652344 c 0,0.539062 -0.058594,0.585937 -0.5625,0.632812 v 0.210938 z m 4.2656253,-0.410156 -0.257813,-0.02344 c -0.292969,-0.03516 -0.351562,-0.07031 -0.351562,-0.492187 v -4.769532 c -0.292969,0.105469 -0.8320316,0.222657 -1.2421878,0.28125 v 0.1875 c 0.5742187,0.03516 0.609375,0.05859 0.609375,0.597657 v 1.125 c -0.1757813,-0.07031 -0.4101563,-0.09375 -0.5273438,-0.09375 -1.0898437,0 -2.0625,0.878906 -2.0625,1.992187 0,1.113281 0.84375,1.699219 1.4765625,1.699219 0.1054688,0 0.3164063,-0.04687 0.6328125,-0.234375 l 0.4804688,-0.28125 V 21.22517 C 10.216992,21.061109 10.814648,20.955641 10.99043,20.920484 Z M 9.7482422,20.451734 c -0.1875,0.140625 -0.4804688,0.269532 -0.7617188,0.269532 -0.515625,0 -1.1015625,-0.457032 -1.1015625,-1.417969 0,-1.160156 0.6679688,-1.464844 1.0429688,-1.464844 0.3046875,0 0.6328125,0.128906 0.8203125,0.398438 z m 3.2812498,0.679688 v -0.210938 c -0.515625,-0.04687 -0.585937,-0.09375 -0.585937,-0.621093 v -4.863282 c -0.269532,0.09375 -0.761719,0.234375 -1.183594,0.28125 v 0.1875 c 0.503906,0.03516 0.550781,0.05859 0.550781,0.609375 v 3.785157 c 0,0.527343 -0.07031,0.574218 -0.574219,0.621093 v 0.210938 z m 3.146485,-0.84375 c -0.292969,0.269531 -0.597657,0.398437 -0.914063,0.398437 -0.5625,0 -1.183594,-0.445312 -1.195312,-1.535156 0.960937,-0.03516 1.957031,-0.117187 2.085937,-0.140625 0.152344,-0.03516 0.1875,-0.09375 0.1875,-0.257812 0,-0.621094 -0.539062,-1.21875 -1.195312,-1.21875 -0.421875,0 -0.855469,0.222656 -1.183594,0.585937 -0.328125,0.363281 -0.527344,0.855469 -0.527344,1.40625 0,0.902344 0.574219,1.699219 1.558594,1.699219 0.257812,0 0.808594,-0.140625 1.3125,-0.773438 z m -1.230469,-2.449219 c 0.445312,0 0.714844,0.375 0.703125,0.796875 0,0.105469 -0.04687,0.164063 -0.1875,0.164063 -0.46875,0.01172 -0.902344,0.02344 -1.347656,0.02344 0.117187,-0.65625 0.46875,-0.984375 0.832031,-0.984375 z m 35.305664,-42.495117 c 0.234375,0 0.410156,-0.1875 0.410156,-0.410156 0,-0.234375 -0.175781,-0.410157 -0.398437,-0.410157 -0.222657,0 -0.410157,0.175782 -0.410157,0.410157 0,0.222656 0.1875,0.410156 0.398438,0.410156 z m 0.9375,4.289062 v -0.210937 c -0.515625,-0.04687 -0.5625,-0.09375 -0.5625,-0.632813 v -2.765625 c -0.351563,0.140625 -0.738281,0.246094 -1.136719,0.316407 v 0.1875 c 0.480469,0.08203 0.503906,0.117187 0.503906,0.609375 v 1.652343 c 0,0.539063 -0.05859,0.585938 -0.5625,0.632813 v 0.210937 z m 4.265625,-0.410156 -0.257813,-0.02344 c -0.292968,-0.03516 -0.351562,-0.07031 -0.351562,-0.492188 v -4.769531 c -0.292969,0.105469 -0.832031,0.222656 -1.242188,0.28125 v 0.1875 c 0.574219,0.03516 0.609375,0.05859 0.609375,0.597656 v 1.125 c -0.175781,-0.07031 -0.410156,-0.09375 -0.527343,-0.09375 -1.089844,0 -2.0625,0.878906 -2.0625,1.992188 0,1.113281 0.84375,1.699218 1.476562,1.699218 0.105469,0 0.316406,-0.04687 0.632813,-0.234375 l 0.480468,-0.28125 v 0.515625 c 0.46875,-0.164062 1.066407,-0.269531 1.242188,-0.304687 z m -1.242188,-0.269531 c -0.1875,0.140625 -0.480468,0.269531 -0.761718,0.269531 -0.515625,0 -1.101563,-0.457031 -1.101563,-1.417969 0,-1.160156 0.667969,-1.464843 1.042969,-1.464843 0.304687,0 0.632812,0.128906 0.820312,0.398437 z m 3.28125,0.679687 v -0.210937 c -0.515625,-0.04687 -0.585937,-0.09375 -0.585937,-0.621094 v -4.863281 c -0.269531,0.09375 -0.761719,0.234375 -1.183594,0.28125 v 0.1875 c 0.503906,0.03516 0.550781,0.05859 0.550781,0.609375 v 3.785156 c 0,0.527344 -0.07031,0.574219 -0.574218,0.621094 v 0.210937 z m 3.146485,-0.84375 c -0.292969,0.269532 -0.597656,0.398438 -0.914063,0.398438 -0.5625,0 -1.183593,-0.445313 -1.195312,-1.535156 0.960937,-0.03516 1.957031,-0.117188 2.085937,-0.140625 0.152344,-0.03516 0.1875,-0.09375 0.1875,-0.257813 0,-0.621094 -0.539062,-1.21875 -1.195312,-1.21875 -0.421875,0 -0.855469,0.222656 -1.183594,0.585938 -0.328125,0.363281 -0.527344,0.855468 -0.527344,1.40625 0,0.902343 0.574219,1.699218 1.558594,1.699218 0.257813,0 0.808594,-0.140625 1.3125,-0.773437 z m -1.230469,-2.449218 c 0.445313,0 0.714844,0.375 0.703125,0.796875 0,0.105468 -0.04687,0.164062 -0.1875,0.164062 -0.46875,0.01172 -0.902344,0.02344 -1.347656,0.02344 0.117187,-0.65625 0.46875,-0.984375 0.832031,-0.984375 z M -98.266406,16.74568 c 0.234375,0 0.410156,-0.1875 0.410156,-0.410157 0,-0.234375 -0.175781,-0.410156 -0.398437,-0.410156 -0.222657,0 -0.410157,0.175781 -0.410157,0.410156 0,0.222657 0.1875,0.410157 0.398438,0.410157 z m 0.9375,4.289062 v -0.210937 c -0.515625,-0.04687 -0.5625,-0.09375 -0.5625,-0.632813 v -2.765625 c -0.351563,0.140625 -0.738281,0.246094 -1.136719,0.316406 v 0.1875 c 0.480469,0.08203 0.503906,0.117188 0.503906,0.609375 v 1.652344 c 0,0.539063 -0.05859,0.585938 -0.5625,0.632813 v 0.210937 z m 4.265625,-0.410156 -0.257813,-0.02344 c -0.292968,-0.03516 -0.351562,-0.07031 -0.351562,-0.492187 V 15.33943 c -0.292969,0.105468 -0.832031,0.222656 -1.242188,0.28125 v 0.1875 c 0.574219,0.03516 0.609375,0.05859 0.609375,0.597656 v 1.125 c -0.175781,-0.07031 -0.410156,-0.09375 -0.527343,-0.09375 -1.089844,0 -2.0625,0.878906 -2.0625,1.992187 0,1.113282 0.84375,1.699219 1.476562,1.699219 0.105469,0 0.316406,-0.04687 0.632813,-0.234375 l 0.480468,-0.28125 v 0.515625 c 0.46875,-0.164062 1.066407,-0.269531 1.242188,-0.304687 z m -1.242188,-0.269531 c -0.1875,0.140625 -0.480468,0.269531 -0.761718,0.269531 -0.515625,0 -1.101563,-0.457031 -1.101563,-1.417969 0,-1.160156 0.667969,-1.464844 1.042969,-1.464844 0.304687,0 0.632812,0.128907 0.820312,0.398438 z m 3.278321,0.679687 v -0.210937 c -0.515625,-0.04687 -0.585938,-0.09375 -0.585938,-0.621094 V 15.33943 c -0.269531,0.09375 -0.761719,0.234375 -1.183594,0.28125 v 0.1875 c 0.503907,0.03516 0.550782,0.05859 0.550782,0.609375 v 3.785156 c 0,0.527344 -0.07031,0.574219 -0.574219,0.621094 v 0.210937 z m 3.149414,-0.84375 c -0.292969,0.269531 -0.597657,0.398438 -0.914063,0.398438 -0.5625,0 -1.183594,-0.445313 -1.195312,-1.535157 0.960937,-0.03516 1.957031,-0.117187 2.085937,-0.140625 0.152344,-0.03516 0.1875,-0.09375 0.1875,-0.257812 0,-0.621094 -0.539062,-1.21875 -1.195312,-1.21875 -0.421875,0 -0.855469,0.222656 -1.183594,0.585937 -0.328125,0.363282 -0.527344,0.855469 -0.527344,1.40625 0,0.902344 0.574219,1.699219 1.558594,1.699219 0.257812,0 0.808594,-0.140625 1.3125,-0.773437 z m -1.230469,-2.449219 c 0.445312,0 0.714844,0.375 0.703125,0.796875 0,0.105469 -0.04687,0.164063 -0.1875,0.164063 -0.46875,0.01172 -0.902344,0.02344 -1.347656,0.02344 0.117187,-0.65625 0.46875,-0.984375 0.832031,-0.984375 z m 0,0"
         style="fill:#231f20;fill-opacity:1;fill-rule:nonzero;stroke:none"
         aria-label="wait&#10;idle&#10;idle&#10;idle&#10;idle"
         transform="matrix(1.3333333,0,0,1.3333333,168.1,37.801333)" />
      <path
         id="path26"
         d="M 2093.38,590.859 H 222.301 v 96.598 H 2093.38 Z"
         style="fill:none;stroke:#231f20;stroke-width:5;stroke-linecap:butt;stroke-linejoin:miter;stroke-miterlimit:10;stroke-dasharray:none;stroke-opacity:1"
         transform="matrix(0.13333333,0,0,-0.13333333,0,224.48)" />
      <path
         id="path27"
         d="m 5.5318359,-1.5810875 c -0.4570312,0.90234375 -0.9375,1.39453125 -1.8632812,1.39453125 -1.359375,0 -2.3554688,-1.14843755 -2.3554688,-2.83593755 0,-1.3710937 0.796875,-2.6367187 2.3085938,-2.6367187 0.9726562,0 1.5117187,0.3867187 1.7460937,1.3359375 l 0.2695313,-0.058594 c -0.058594,-0.4804687 -0.1054688,-0.84375 -0.1875,-1.359375 -0.2460938,-0.046875 -0.8554688,-0.2460937 -1.59375,-0.2460937 -2.0039063,0 -3.45703126,1.2539062 -3.45703126,3.140625 0,1.4296875 0.98437496,2.98828125 3.22265626,2.98828125 0.6445312,0 1.40625,-0.1875 1.6523437,-0.24609375 0.1640625,-0.3046875 0.3867188,-0.9609375 0.515625,-1.3828125 z m 0.8642579,-4.265625 v 0.2460937 c 0.6679687,0.046875 0.7382812,0.082031 0.7382812,0.8789063 v 3.5976562 c 0,0.75000005 -0.070312,0.82031255 -0.7851562,0.86718755 v 0.2578125 h 2.4375 v -0.2578125 c -0.8085938,-0.046875 -0.890625,-0.09375 -0.890625,-0.85546875 v -1.4179688 l 0.6679687,0.1757813 c 0.09375,0.011719 0.2695313,0.011719 0.3984375,0 0.8789063,-0.1171875 1.757813,-0.6914063 1.757813,-1.8515625 0,-0.5859375 -0.234375,-1.0078125 -0.585938,-1.265625 -0.3632812,-0.2695313 -0.8671875,-0.375 -1.5117187,-0.375 z m 1.5,0.8203125 c 0,-0.2578125 0.023437,-0.3632813 0.09375,-0.421875 0.070312,-0.070312 0.2578125,-0.1171875 0.5039062,-0.1171875 0.7382813,0 1.359375,0.421875 1.359375,1.3945312 0,1.1367188 -0.7148437,1.453125 -1.3007812,1.453125 -0.2929688,0 -0.5390625,-0.058594 -0.65625,-0.1054687 z M 17.49668,-5.8467125 h -2.144532 v 0.2460937 c 0.632813,0.046875 0.820313,0.1523438 0.878907,0.5039063 0.03516,0.28125 0.05859,0.65625 0.05859,1.4882812 v 0.6796875 c 0,1.4882813 -0.410156,2.5664063 -1.699218,2.5664063 -1.113282,0 -1.699219,-0.8203125 -1.699219,-2.2734375 v -2.0507813 c 0,-0.8085937 0.08203,-0.8671875 0.785156,-0.9140625 v -0.2460937 h -2.332031 v 0.2460937 c 0.714844,0.070312 0.785156,0.1054688 0.785156,0.9140625 v 2.25 c 0,1.0546875 0.257813,1.7226563 0.796875,2.1445313 0.398438,0.3046875 0.914063,0.43359375 1.441406,0.43359375 0.585938,0 1.195313,-0.19921875 1.605469,-0.62109375 0.527344,-0.5507813 0.679688,-1.3242188 0.679688,-2.3789063 v -0.75 c 0,-0.8320312 0.02344,-1.21875 0.04687,-1.453125 0.04687,-0.375 0.257812,-0.5039062 0.796875,-0.5390625 z M 5.9976563,39.531217 H 3.7125 v 0.246094 c 0.890625,0.07031 0.9492188,0.117187 0.9492188,0.773437 v 0.761719 c 0,0.375 -0.1054688,0.480469 -0.2929688,0.585938 -0.1875,0.09375 -0.46875,0.164062 -0.7734375,0.164062 -1.7460938,0 -2.5078125,-1.511719 -2.5078125,-2.8125 0,-1.664062 1.0078125,-2.671875 2.390625,-2.671875 0.8554688,0 1.5351563,0.292969 1.7460938,1.394531 l 0.2578125,-0.05859 C 5.4117193,37.328095 5.3648438,36.824189 5.3414063,36.519501 5.0484375,36.449191 4.3570313,36.24997 3.6070313,36.24997 c -1.7578126,0 -3.4335938,1.019531 -3.4335938,3.105469 0,1.78125 1.3242187,3.023437 3.3046875,3.023437 0.7148438,0 1.453125,-0.199218 2.015625,-0.339843 -0.058594,-0.246094 -0.070312,-0.527344 -0.070312,-0.84375 v -0.761719 c 0,-0.539063 0.035156,-0.585938 0.5742188,-0.65625 z M 6.61875,36.390592 v 0.246094 c 0.6679688,0.04687 0.7382813,0.08203 0.7382813,0.878906 v 3.597656 c 0,0.75 -0.070312,0.820313 -0.7851563,0.867188 v 0.257812 h 2.4375 V 41.980436 C 8.2007813,41.933561 8.11875,41.886686 8.11875,41.124967 v -1.417969 l 0.6679688,0.175782 c 0.09375,0.01172 0.2695312,0.01172 0.3984375,0 0.8789067,-0.117188 1.7578127,-0.691407 1.7578127,-1.851563 0,-0.585937 -0.234375,-1.007812 -0.585938,-1.265625 -0.363281,-0.269531 -0.8671872,-0.375 -1.5117185,-0.375 z m 1.5,0.820313 c 0,-0.257813 0.023437,-0.363282 0.09375,-0.421875 0.070312,-0.07031 0.2578125,-0.117188 0.5039063,-0.117188 0.7382812,0 1.3593747,0.421875 1.3593747,1.394531 0,1.136719 -0.7148435,1.453125 -1.300781,1.453125 -0.2929687,0 -0.5390625,-0.05859 -0.65625,-0.105468 z m 9.603516,-0.820313 h -2.144532 v 0.246094 c 0.632813,0.04687 0.820313,0.152344 0.878907,0.503906 0.03516,0.28125 0.05859,0.65625 0.05859,1.488281 v 0.679688 c 0,1.488281 -0.410156,2.566406 -1.699218,2.566406 -1.113282,0 -1.699219,-0.820312 -1.699219,-2.273437 v -2.050782 c 0,-0.808593 0.08203,-0.867187 0.785156,-0.914062 v -0.246094 h -2.332031 v 0.246094 c 0.714844,0.07031 0.785156,0.105469 0.785156,0.914062 v 2.25 c 0,1.054688 0.257813,1.722657 0.796875,2.144532 0.398438,0.304687 0.914063,0.433593 1.441406,0.433593 0.585938,0 1.195313,-0.199218 1.605469,-0.621093 0.527344,-0.550782 0.679688,-1.324219 0.679688,-2.378907 v -0.75 c 0,-0.832031 0.02344,-1.21875 0.04687,-1.453125 0.04687,-0.375 0.257812,-0.503906 0.796875,-0.539062 z m 0,0"
         style="fill:#231f20;fill-opacity:1;fill-rule:nonzero;stroke:none"
         aria-label="CPU&#10;GPU"
         transform="matrix(1.3333333,0,0,1.3333333,0.3,142.45187)" />
      <path
         id="path28"
         d="M 2093.38,172.859 H 204.371 v 98.45 H 2093.38 Z"
         style="fill:none;stroke:#231f20;stroke-width:5;stroke-linecap:butt;stroke-linejoin:miter;stroke-miterlimit:10;stroke-dasharray:none;stroke-opacity:1"
         transform="matrix(0.13333333,0,0,-0.13333333,0,224.48)" />
      <path
         id="path29"
         d="M 1204.67,173.789 H 481.715 v 96.59 h 722.955 v -96.59"
         style="fill:#e5e4e4;fill-opacity:1;fill-rule:nonzero;stroke:none"
         transform="matrix(0.13333333,0,0,-0.13333333,0,224.48)" />
      <path
         id="path30"
         d="M 1204.67,173.789 H 481.715 v 96.59 h 722.955 z"
         style="fill:none;stroke:#231f20;stroke-width:5;stroke-linecap:butt;stroke-linejoin:miter;stroke-miterlimit:10;stroke-dasharray:none;stroke-opacity:1"
         transform="matrix(0.13333333,0,0,-0.13333333,0,224.48)" />
      <path
         id="path31"
         d="m 466.488,561.602 10.961,-228.59"
         style="fill:none;stroke:#231f20;stroke-width:5;stroke-linecap:butt;stroke-linejoin:miter;stroke-miterlimit:10;stroke-dasharray:none;stroke-opacity:1"
         transform="matrix(0.13333333,0,0,-0.13333333,0,224.48)" />
      <path
         id="path32"
         d="m 477.109,340.18 13.977,9.449 0.344,-0.481 -8.192,-23.918 c -1.406,-8.269 -2.816,-16.531 -4.222,-24.789 -2.196,8.09 -4.383,16.18 -6.578,24.27 l -10.446,23.027 0.219,0.5 14.898,-8.058"
         style="fill:#231f20;fill-opacity:1;fill-rule:nonzero;stroke:none"
         transform="matrix(0.13333333,0,0,-0.13333333,0,224.48)" />
      <path
         id="path33"
         d="M 2.1435672,-2.03125e-4 V -0.23457813 c -0.5742188,-0.0585938 -0.65625,-0.10546875 -0.65625,-0.703125 V -6.4103594 c -0.3046875,0.1054688 -0.85546876,0.2578125 -1.32421876,0.3164063 v 0.2109375 c 0.5625,0.046875 0.62109375,0.082031 0.62109375,0.6914062 v 4.25390627 c 0,0.59765625 -0.0820313,0.64453125 -0.64453125,0.703125 v 0.234375005 z m 4.0634766,-0.351562505 -0.09375,-0.234375 c -0.09375,0.0585938 -0.2226563,0.10546875 -0.328125,0.10546875 -0.1523438,0 -0.3164063,-0.140625 -0.3164063,-0.55078122 v -1.6640625 c 0,-0.46875 -0.082031,-0.84375 -0.3984375,-1.1015625 -0.1992187,-0.1640625 -0.46875,-0.2460938 -0.7382812,-0.2460938 -0.515625,0.1054688 -1.1015625,0.4570313 -1.3476563,0.6328125 -0.1757812,0.1289063 -0.2929687,0.2226563 -0.2929687,0.3632813 0,0.1992187 0.234375,0.3867187 0.3984375,0.3867187 0.1289062,0 0.2226562,-0.070312 0.2578125,-0.2109375 0.070312,-0.28125 0.1523437,-0.4804687 0.2695312,-0.5976562 0.09375,-0.1054688 0.2226563,-0.1757813 0.4101563,-0.1757813 0.4453125,0 0.75,0.3632813 0.75,1.0195313 v 0.1640625 c -0.1992188,0.1523437 -0.8554688,0.3984375 -1.3945313,0.5742187 -0.4921875,0.1757813 -0.7265625,0.4570313 -0.7265625,0.90234377 0,0.5625 0.4453125,1.08984375 1.078125,1.08984375 0.2695313,0 0.703125,-0.328125 1.0664063,-0.57421875 0.046875,0.15234375 0.09375,0.28125 0.2109375,0.41015625 C 5.1172,0.02323437 5.3047,0.10526562 5.4336063,0.10526562 Z M 4.7773563,-0.76192188 c -0.1640625,0.1640625 -0.4804688,0.31640625 -0.7148438,0.328125 -0.28125,0 -0.6445312,-0.22265625 -0.6445312,-0.69140622 0,-0.328125 0.1992187,-0.4921875 0.5507812,-0.65625 0.1875,-0.09375 0.6210938,-0.28125 0.8085938,-0.375 z m 5.9707027,0.31640625 -0.257812,-0.0117188 c -0.339844,-0.0234375 -0.410156,-0.0820313 -0.410156,-0.52734375 V -3.9962969 c -0.4804691,0.09375 -0.9492191,0.140625 -1.4179691,0.1640625 v 0.1992188 c 0.65625,0.09375 0.703125,0.1289062 0.703125,0.6445312 v 2.09765627 c -0.3046875,0.29296875 -0.6445313,0.43359375 -0.9726563,0.43359375 -0.3984375,0 -0.7851562,-0.22265625 -0.7851562,-1.01953122 v -1.2070313 c 0,-0.609375 0,-1.03125 0.023437,-1.3125 -0.4335938,0.082031 -0.8671875,0.140625 -1.2890625,0.1640625 v 0.1992188 c 0.515625,0.1054687 0.5507812,0.140625 0.5507812,0.6328125 v 1.7695312 c 0,0.97265627 0.515625,1.33593752 1.1132813,1.33593752 0.2460937,0 0.4335937,-0.0703125 0.6914062,-0.22265625 0.2578125,-0.15234375 0.46875,-0.31640625 0.6679688,-0.46875 v 0.64453125 l 0.058594,0.046875 c 0.4453125,-0.12890625 0.9023436,-0.2578125 1.3242186,-0.31640625 z m 4.825196,0.445312505 V -0.23457813 c -0.527344,-0.0585938 -0.574219,-0.09375 -0.574219,-0.703125 V -2.6720781 c 0,-0.8789063 -0.445313,-1.3710938 -1.160156,-1.3710938 -0.257813,0 -0.492188,0.1054688 -0.75,0.2695313 -0.222657,0.1523437 -0.421875,0.2929687 -0.597657,0.421875 v -0.7148438 c -0.398437,0.1757813 -0.820312,0.28125 -1.253906,0.3632813 v 0.2109375 c 0.492188,0.09375 0.539063,0.1171875 0.539063,0.6914062 v 1.86328127 c 0,0.59765625 -0.04687,0.64453125 -0.65625,0.703125 v 0.234375005 h 1.957031 V -0.23457813 c -0.527344,-0.0585938 -0.585938,-0.09375 -0.585938,-0.703125 V -3.0470781 c 0.269532,-0.234375 0.621094,-0.46875 0.984375,-0.46875 0.597657,0 0.820313,0.4101562 0.820313,1.03125 v 1.49999997 c 0,0.62109375 -0.07031,0.69140625 -0.597656,0.75 v 0.234375005 z m 3.691406,-0.996093755 c -0.410156,0.38671875 -0.703125,0.4921875 -1.089844,0.4921875 -0.503906,0 -1.359375,-0.41015625 -1.359375,-1.66406252 0,-0.9492187 0.515625,-1.4414062 1.113281,-1.4414062 0.316407,0 0.632813,0.1171875 0.902344,0.375 0.08203,0.070312 0.117188,0.09375 0.164063,0.09375 0.105468,0 0.304687,-0.1992188 0.304687,-0.3867188 0,-0.1054687 -0.03516,-0.1757812 -0.152344,-0.28125 -0.140625,-0.1171875 -0.433593,-0.234375 -0.796875,-0.234375 -0.351562,0 -0.890625,0.140625 -1.359375,0.5039063 -0.597656,0.46875 -0.902343,1.078125 -0.902343,1.7695312 0,0.96093752 0.667968,1.87500002 1.804687,1.87500002 0.527344,0 1.136719,-0.3984375 1.523438,-0.9140625 z m 4.854492,0.996093755 V -0.23457813 c -0.527344,-0.046875 -0.597656,-0.09375 -0.597656,-0.69140625 V -2.5080156 c 0,-1.078125 -0.503906,-1.5351563 -1.242188,-1.5351563 -0.480468,0 -0.972656,0.3398438 -1.289062,0.65625 v -3.0234375 c -0.339844,0.1054688 -0.890625,0.2578125 -1.3125,0.3164063 v 0.2109375 c 0.585937,0.046875 0.609375,0.09375 0.609375,0.6679687 v 4.28906252 c 0,0.59765625 -0.08203,0.64453125 -0.621094,0.69140625 v 0.234375005 h 1.910156 V -0.23457813 c -0.539062,-0.0585938 -0.585937,-0.1171875 -0.585937,-0.69140625 V -3.0705156 c 0.257812,-0.28125 0.597656,-0.4570313 0.9375,-0.4570313 0.609375,0 0.890625,0.3632813 0.890625,1.1015625 v 1.50000002 c 0,0.5859375 -0.08203,0.6328125 -0.597656,0.69140625 v 0.234375005 z m 0,0"
         style="fill:#231f20;fill-opacity:1;fill-rule:nonzero;stroke:none"
         aria-label="launch"
         transform="matrix(1.3333333,0,0,1.3333333,74.677067,170.28933)" />
      <path
         id="path34"
         d="m 1768.15,173.789 h -563.48 v 96.59 h 563.48 v -96.59"
         style="fill:#e5e4e4;fill-opacity:1;fill-rule:nonzero;stroke:none"
         transform="matrix(0.13333333,0,0,-0.13333333,0,224.48)" />
      <path
         id="path35"
         d="m 1768.15,173.789 h -563.48 v 96.59 h 563.48 z"
         style="fill:none;stroke:#231f20;stroke-width:5;stroke-linecap:butt;stroke-linejoin:miter;stroke-miterlimit:10;stroke-dasharray:none;stroke-opacity:1"
         transform="matrix(0.13333333,0,0,-0.13333333,0,224.48)" />
      <path
         id="path36"
         d="M 784.918,563.109 1148.44,326.5"
         style="fill:none;stroke:#231f20;stroke-width:5;stroke-linecap:butt;stroke-linejoin:miter;stroke-miterlimit:10;stroke-dasharray:none;stroke-opacity:1"
         transform="matrix(0.13333333,0,0,-0.13333333,0,224.48)" />
      <path
         id="path37"
         d="m 1142.42,330.422 0.51,16.859 h 0.6 l 14.6,-20.64 c 5.88,-5.969 11.76,-11.95 17.64,-17.93 -7.85,2.961 -15.7,5.918 -23.54,8.879 l -24.78,4.992 -0.28,0.469 15.25,7.371"
         style="fill:#231f20;fill-opacity:1;fill-rule:nonzero;stroke:none"
         transform="matrix(0.13333333,0,0,-0.13333333,0,224.48)" />
      <path
         id="path38"
         d="m 2.1445391,-0.00100313 v -0.234375 c -0.5742188,-0.0585938 -0.65625,-0.10546875 -0.65625,-0.703125 V -6.4111594 c -0.3046875,0.1054688 -0.85546879,0.2578125 -1.32421879,0.3164063 v 0.2109375 c 0.5625,0.046875 0.62109375,0.082031 0.62109375,0.6914062 v 4.25390627 c 0,0.59765625 -0.0820313,0.64453125 -0.64453125,0.703125 v 0.234375 z m 4.0605468,-0.3515625 -0.09375,-0.234375 c -0.09375,0.0585938 -0.2226562,0.10546875 -0.328125,0.10546875 -0.1523437,0 -0.3164062,-0.140625 -0.3164062,-0.55078122 v -1.6640625 c 0,-0.46875 -0.082031,-0.84375 -0.3984375,-1.1015625 -0.1992188,-0.1640625 -0.46875,-0.2460938 -0.7382813,-0.2460938 -0.515625,0.1054688 -1.1015625,0.4570313 -1.3476562,0.6328125 -0.1757813,0.1289063 -0.2929688,0.2226563 -0.2929688,0.3632813 0,0.1992187 0.234375,0.3867187 0.3984375,0.3867187 0.1289063,0 0.2226563,-0.070312 0.2578125,-0.2109375 0.070312,-0.28125 0.1523438,-0.4804687 0.2695313,-0.5976562 0.09375,-0.1054688 0.2226562,-0.1757813 0.4101562,-0.1757813 0.4453125,0 0.75,0.3632813 0.75,1.0195313 v 0.1640625 c -0.1992187,0.1523437 -0.8554687,0.3984375 -1.3945312,0.5742187 -0.4921875,0.1757813 -0.7265625,0.4570313 -0.7265625,0.90234377 0,0.5625 0.4453125,1.08984375 1.078125,1.08984375 0.2695312,0 0.703125,-0.328125 1.0664062,-0.57421875 0.046875,0.15234375 0.09375,0.28125 0.2109375,0.41015625 0.1054688,0.08203125 0.2929688,0.1640625 0.421875,0.1640625 z M 4.7753984,-0.76272188 c -0.1640625,0.1640625 -0.4804687,0.31640625 -0.7148437,0.328125 -0.28125,0 -0.6445313,-0.22265625 -0.6445313,-0.69140622 0,-0.328125 0.1992188,-0.4921875 0.5507813,-0.65625 0.1875,-0.09375 0.6210937,-0.28125 0.8085937,-0.375 z m 5.9736326,0.31640625 -0.257812,-0.0117188 c -0.339844,-0.0234375 -0.410156,-0.0820312 -0.410156,-0.52734375 V -3.9970969 c -0.4804692,0.09375 -0.9492192,0.140625 -1.4179692,0.1640625 v 0.1992188 c 0.65625,0.09375 0.703125,0.1289062 0.703125,0.6445312 v 2.09765627 c -0.3046875,0.29296875 -0.6445313,0.43359375 -0.9726563,0.43359375 -0.3984375,0 -0.7851562,-0.22265625 -0.7851562,-1.01953122 v -1.2070313 c 0,-0.609375 0,-1.03125 0.023437,-1.3125 -0.4335938,0.082031 -0.8671875,0.140625 -1.2890625,0.1640625 v 0.1992188 c 0.515625,0.1054687 0.5507812,0.140625 0.5507812,0.6328125 v 1.7695312 c 0,0.97265627 0.515625,1.33593752 1.1132813,1.33593752 0.2460937,0 0.4335937,-0.0703125 0.6914062,-0.22265625 0.2578125,-0.15234375 0.46875,-0.31640625 0.6679688,-0.46875 v 0.64453125 l 0.058594,0.046875 c 0.4453125,-0.12890625 0.9023437,-0.2578125 1.3242187,-0.31640625 z m 4.825196,0.4453125 v -0.234375 c -0.527344,-0.0585938 -0.574219,-0.09375 -0.574219,-0.703125 V -2.6728781 c 0,-0.8789063 -0.445313,-1.3710938 -1.160156,-1.3710938 -0.257813,0 -0.492188,0.1054688 -0.75,0.2695313 -0.222657,0.1523437 -0.421875,0.2929687 -0.597657,0.421875 v -0.7148438 c -0.398437,0.1757813 -0.820312,0.28125 -1.253906,0.3632813 v 0.2109375 c 0.492188,0.09375 0.539063,0.1171875 0.539063,0.6914062 v 1.86328127 c 0,0.59765625 -0.04687,0.64453125 -0.65625,0.703125 v 0.234375 h 1.957031 v -0.234375 c -0.527344,-0.0585938 -0.585938,-0.09375 -0.585938,-0.703125 V -3.0478781 c 0.269532,-0.234375 0.621094,-0.46875 0.984375,-0.46875 0.597657,0 0.820313,0.4101562 0.820313,1.03125 v 1.49999997 c 0,0.62109375 -0.07031,0.69140625 -0.597656,0.75 v 0.234375 z m 3.691406,-0.99609375 c -0.410156,0.38671875 -0.703125,0.4921875 -1.089844,0.4921875 -0.503906,0 -1.359375,-0.41015625 -1.359375,-1.66406252 0,-0.9492187 0.515625,-1.4414062 1.113281,-1.4414062 0.316407,0 0.632813,0.1171875 0.902344,0.375 0.08203,0.070312 0.117188,0.09375 0.164063,0.09375 0.105468,0 0.304687,-0.1992188 0.304687,-0.3867188 0,-0.1054687 -0.03516,-0.1757812 -0.152344,-0.28125 -0.140625,-0.1171875 -0.433593,-0.234375 -0.796875,-0.234375 -0.351562,0 -0.890625,0.140625 -1.359375,0.5039063 -0.597656,0.46875 -0.902343,1.078125 -0.902343,1.7695312 0,0.96093752 0.667968,1.87500002 1.804687,1.87500002 0.527344,0 1.136719,-0.3984375 1.523438,-0.9140625 z m 4.854492,0.99609375 v -0.234375 c -0.527344,-0.046875 -0.597656,-0.09375 -0.597656,-0.69140625 V -2.5088156 c 0,-1.078125 -0.503906,-1.5351563 -1.242188,-1.5351563 -0.480468,0 -0.972656,0.3398438 -1.289062,0.65625 v -3.0234375 c -0.339844,0.1054688 -0.890625,0.2578125 -1.3125,0.3164063 v 0.2109375 c 0.585937,0.046875 0.609375,0.09375 0.609375,0.6679687 v 4.28906252 c 0,0.59765625 -0.08203,0.64453125 -0.621094,0.69140625 v 0.234375 h 1.910156 v -0.234375 c -0.539062,-0.0585938 -0.585937,-0.1171875 -0.585937,-0.69140625 V -3.0713156 c 0.257812,-0.28125 0.597656,-0.4570313 0.9375,-0.4570313 0.609375,0 0.890625,0.3632813 0.890625,1.1015625 v 1.50000002 c 0,0.5859375 -0.08203,0.6328125 -0.597656,0.69140625 v 0.234375 z m 0,0"
         style="fill:#231f20;fill-opacity:1;fill-rule:nonzero;stroke:none"
         aria-label="launch"
         transform="matrix(1.3333333,0,0,1.3333333,148.27733,170.2904)" />
      <path
         id="path39"
         d="m 784.918,590.859 h -318.43 v 96.598 h 318.43 v -96.598"
         style="fill:#e5e4e4;fill-opacity:1;fill-rule:nonzero;stroke:none"
         transform="matrix(0.13333333,0,0,-0.13333333,0,224.48)" />
      <path
         id="path40"
         d="m 784.918,590.859 h -318.43 v 96.598 h 318.43 z"
         style="fill:none;stroke:#231f20;stroke-width:5;stroke-linecap:butt;stroke-linejoin:miter;stroke-miterlimit:10;stroke-dasharray:none;stroke-opacity:1"
         transform="matrix(0.13333333,0,0,-0.13333333,0,224.48)" />
      <path
         id="path41"
         d="M 463.785,590.859 H 204.371 v 96.598 h 259.414 v -96.598"
         style="fill:#e5e4e4;fill-opacity:1;fill-rule:nonzero;stroke:none"
         transform="matrix(0.13333333,0,0,-0.13333333,0,224.48)" />
      <path
         id="path42"
         d="M 463.785,590.859 H 204.371 v 96.598 h 259.414 z"
         style="fill:none;stroke:#231f20;stroke-width:5;stroke-linecap:butt;stroke-linejoin:miter;stroke-miterlimit:10;stroke-dasharray:none;stroke-opacity:1"
         transform="matrix(0.13333333,0,0,-0.13333333,0,224.48)" />
      <path
         id="path43"
         d="m 1.0788594,-4.2887141 c 0.234375,0 0.4101562,-0.1875 0.4101562,-0.4101562 0,-0.234375 -0.1757812,-0.4101563 -0.3984375,-0.4101563 -0.22265622,0 -0.41015622,0.1757813 -0.41015622,0.4101563 0,0.2226562 0.1875,0.4101562 0.39843752,0.4101562 z m 0.9375,4.2890625375 V -0.21058906 c -0.515625,-0.046875 -0.5625,-0.09375 -0.5625,-0.6328125 V -3.6090266 c -0.3515625,0.140625 -0.73828127,0.2460938 -1.13671877,0.3164063 v 0.1875 c 0.48046875,0.082031 0.50390625,0.1171875 0.50390625,0.609375 v 1.65234374 c 0,0.5390625 -0.0585938,0.5859375 -0.5625,0.6328125 V 3.484375e-4 Z M 6.2819844,-0.40980781 6.0241719,-0.43324531 C 5.7312031,-0.46840156 5.6726094,-0.50355781 5.6726094,-0.92543281 V -5.6949641 c -0.2929688,0.1054688 -0.8320313,0.2226563 -1.2421875,0.28125 v 0.1875 c 0.5742187,0.035156 0.609375,0.058594 0.609375,0.5976563 v 1.125 c -0.1757813,-0.070312 -0.4101563,-0.09375 -0.5273438,-0.09375 -1.0898437,0 -2.0625,0.8789062 -2.0625,1.9921875 0,1.11328124 0.84375,1.69921874 1.4765625,1.69921874 0.1054688,0 0.3164063,-0.046875 0.6328125,-0.234375 l 0.4804688,-0.28125 v 0.515625 c 0.46875,-0.1640625 1.0664062,-0.26953125 1.2421875,-0.3046875 z M 5.0397969,-0.67933906 c -0.1875,0.140625 -0.4804688,0.26953125 -0.7617188,0.26953125 -0.515625,0 -1.1015625,-0.45703125 -1.1015625,-1.41796879 0,-1.1601562 0.6679688,-1.4648437 1.0429688,-1.4648437 0.3046875,0 0.6328125,0.1289062 0.8203125,0.3984375 z M 8.3181172,3.484375e-4 V -0.21058906 c -0.515625,-0.046875 -0.5859375,-0.09375 -0.5859375,-0.62109375 V -5.6949641 c -0.2695313,0.09375 -0.7617188,0.234375 -1.1835938,0.28125 v 0.1875 c 0.5039063,0.035156 0.5507813,0.058594 0.5507813,0.609375 v 3.78515629 c 0,0.52734375 -0.070312,0.57421875 -0.5742188,0.62109375 V 3.484375e-4 Z M 11.467531,-0.84340156 c -0.292968,0.26953125 -0.597656,0.3984375 -0.914062,0.3984375 -0.5625002,0 -1.183594,-0.4453125 -1.1953127,-1.53515624 0.9609377,-0.035156 1.9570317,-0.1171875 2.0859377,-0.140625 0.152344,-0.035156 0.1875,-0.09375 0.1875,-0.2578125 0,-0.6210938 -0.539063,-1.21875 -1.195313,-1.21875 -0.421875,0 -0.8554685,0.2226562 -1.1835935,0.5859375 -0.328125,0.3632812 -0.5273437,0.8554687 -0.5273437,1.40625 0,0.90234374 0.5742187,1.69921874 1.5585942,1.69921874 0.257812,0 0.808593,-0.140625 1.3125,-0.7734375 z M 10.237063,-3.2926203 c 0.445312,0 0.714843,0.375 0.703125,0.796875 0,0.1054687 -0.04687,0.1640625 -0.1875,0.1640625 -0.46875,0.011719 -0.9023442,0.023437 -1.3476567,0.023437 0.1171875,-0.65625 0.46875,-0.984375 0.8320317,-0.9843745 z M -157.57837,-4.2887141 c 0.23438,0 0.41016,-0.1875 0.41016,-0.4101562 0,-0.234375 -0.17578,-0.4101563 -0.39844,-0.4101563 -0.22265,0 -0.41015,0.1757813 -0.41015,0.4101563 0,0.2226562 0.1875,0.4101562 0.39843,0.4101562 z m 0.9375,4.2890625375 V -0.21058906 c -0.51562,-0.046875 -0.5625,-0.09375 -0.5625,-0.6328125 V -3.6090266 c -0.35156,0.140625 -0.73828,0.2460938 -1.13672,0.3164063 v 0.1875 c 0.48047,0.082031 0.50391,0.1171875 0.50391,0.609375 v 1.65234374 c 0,0.5390625 -0.0586,0.5859375 -0.5625,0.6328125 V 3.484375e-4 Z m 4.26563,-0.4101562475 -0.25781,-0.0234375 c -0.29297,-0.0351563 -0.35157,-0.0703125 -0.35157,-0.4921875 V -5.6949641 c -0.29297,0.1054688 -0.83203,0.2226563 -1.24218,0.28125 v 0.1875 c 0.57421,0.035156 0.60937,0.058594 0.60937,0.5976563 v 1.125 c -0.17578,-0.070312 -0.41016,-0.09375 -0.52734,-0.09375 -1.08985,0 -2.0625,0.8789062 -2.0625,1.9921875 0,1.11328124 0.84375,1.69921874 1.47656,1.69921874 0.10547,0 0.31641,-0.046875 0.63281,-0.234375 l 0.48047,-0.28125 v 0.515625 c 0.46875,-0.1640625 1.06641,-0.26953125 1.24219,-0.3046875 z m -1.24219,-0.26953125 c -0.1875,0.140625 -0.48047,0.26953125 -0.76172,0.26953125 -0.51562,0 -1.10156,-0.45703125 -1.10156,-1.41796879 0,-1.1601562 0.66797,-1.4648437 1.04297,-1.4648437 0.30469,0 0.63281,0.1289062 0.82031,0.3984375 z m 3.27832,0.6796874975 V -0.21058906 c -0.51562,-0.046875 -0.58594,-0.09375 -0.58594,-0.62109375 V -5.6949641 c -0.26953,0.09375 -0.76172,0.234375 -1.18359,0.28125 v 0.1875 c 0.50391,0.035156 0.55078,0.058594 0.55078,0.609375 v 3.78515629 c 0,0.52734375 -0.0703,0.57421875 -0.57422,0.62109375 V 3.484375e-4 Z m 3.14941,-0.8437499975 c -0.29296,0.26953125 -0.59765,0.3984375 -0.91406,0.3984375 -0.5625,0 -1.18359,-0.4453125 -1.19531,-1.53515624 0.96094,-0.035156 1.95703,-0.1171875 2.08594,-0.140625 0.15234,-0.035156 0.1875,-0.09375 0.1875,-0.2578125 0,-0.6210938 -0.53907,-1.21875 -1.19532,-1.21875 -0.42187,0 -0.85546,0.2226562 -1.18359,0.5859375 -0.32812,0.3632812 -0.52734,0.8554687 -0.52734,1.40625 0,0.90234374 0.57422,1.69921874 1.55859,1.69921874 0.25781,0 0.80859,-0.140625 1.3125,-0.7734375 z m -1.23046,-2.44921874 c 0.44531,0 0.71484,0.375 0.70312,0.796875 0,0.1054687 -0.0469,0.1640625 -0.1875,0.1640625 -0.46875,0.011719 -0.90234,0.023437 -1.34766,0.023437 0.11719,-0.65625 0.46875,-0.984375 0.83204,-0.9843745 z M -47.662352,-46.165667 c 0.234375,0 0.410157,-0.1875 0.410157,-0.410156 0,-0.234375 -0.175782,-0.410157 -0.398438,-0.410157 -0.222656,0 -0.410156,0.175782 -0.410156,0.410157 0,0.222656 0.1875,0.410156 0.398437,0.410156 z m 0.9375,4.289062 v -0.210937 c -0.515625,-0.04687 -0.5625,-0.09375 -0.5625,-0.632813 v -2.765625 c -0.351562,0.140625 -0.738281,0.246094 -1.136718,0.316407 v 0.1875 c 0.480468,0.08203 0.503906,0.117187 0.503906,0.609375 v 1.652343 c 0,0.539063 -0.05859,0.585938 -0.5625,0.632813 v 0.210937 z m 4.265625,-0.410156 -0.257812,-0.02344 c -0.292969,-0.03516 -0.351563,-0.07031 -0.351563,-0.492188 v -4.769531 c -0.292968,0.105469 -0.832031,0.222656 -1.242187,0.28125 v 0.1875 c 0.574219,0.03516 0.609375,0.05859 0.609375,0.597656 v 1.125 c -0.175781,-0.07031 -0.410156,-0.09375 -0.527344,-0.09375 -1.089844,0 -2.0625,0.878906 -2.0625,1.992188 0,1.113281 0.84375,1.699218 1.476563,1.699218 0.105468,0 0.316406,-0.04687 0.632812,-0.234375 l 0.480469,-0.28125 v 0.515625 c 0.46875,-0.164062 1.066406,-0.269531 1.242187,-0.304687 z m -1.242187,-0.269531 c -0.1875,0.140625 -0.480469,0.269531 -0.761719,0.269531 -0.515625,0 -1.101562,-0.457031 -1.101562,-1.417969 0,-1.160156 0.667968,-1.464843 1.042968,-1.464843 0.304688,0 0.632813,0.128906 0.820313,0.398437 z m 3.28125,0.679687 v -0.210937 c -0.515625,-0.04687 -0.585938,-0.09375 -0.585938,-0.621094 v -4.863281 c -0.269531,0.09375 -0.761718,0.234375 -1.183593,0.28125 v 0.1875 c 0.503906,0.03516 0.550781,0.05859 0.550781,0.609375 v 3.785156 c 0,0.527344 -0.07031,0.574219 -0.574219,0.621094 v 0.210937 z m 3.146484,-0.84375 c -0.292968,0.269532 -0.597656,0.398438 -0.914062,0.398438 -0.5625,0 -1.183594,-0.445313 -1.195313,-1.535156 0.960938,-0.03516 1.957032,-0.117188 2.085938,-0.140625 0.152344,-0.03516 0.1875,-0.09375 0.1875,-0.257813 0,-0.621094 -0.539063,-1.21875 -1.195313,-1.21875 -0.421875,0 -0.855468,0.222656 -1.183593,0.585938 -0.328125,0.363281 -0.527344,0.855468 -0.527344,1.40625 0,0.902343 0.574219,1.699218 1.558594,1.699218 0.257812,0 0.808593,-0.140625 1.3125,-0.773437 z m -1.230468,-2.449218 c 0.445312,0 0.714843,0.375 0.703125,0.796875 0,0.105468 -0.04687,0.164062 -0.1875,0.164062 -0.46875,0.01172 -0.902344,0.02344 -1.347657,0.02344 0.117188,-0.65625 0.46875,-0.984375 0.832032,-0.984375 z m 0,0"
         style="fill:#231f20;fill-opacity:1;fill-rule:nonzero;stroke:none"
         aria-label="idleidle&#10;idle"
         transform="matrix(1.3333333,0,0,1.3333333,251.56933,198.76907)" />
    </g>
  </g>
</svg>
