<?xml version="1.0" encoding="UTF-8" standalone="no"?>
<!-- Created with Inkscape (http://www.inkscape.org/) -->

<svg
   version="1.1"
   id="svg1"
   width="334.77332"
   height="264.57333"
   viewBox="0 0 334.77332 264.57333"
   sodipodi:docname="pha13f03.eps"
   xmlns:inkscape="http://www.inkscape.org/namespaces/inkscape"
   xmlns:sodipodi="http://sodipodi.sourceforge.net/DTD/sodipodi-0.dtd"
   xmlns="http://www.w3.org/2000/svg"
   xmlns:svg="http://www.w3.org/2000/svg">
  <defs
     id="defs1" />
  <sodipodi:namedview
     id="namedview1"
     pagecolor="#ffffff"
     bordercolor="#000000"
     borderopacity="0.25"
     inkscape:showpageshadow="2"
     inkscape:pageopacity="0.0"
     inkscape:pagecheckerboard="0"
     inkscape:deskcolor="#d1d1d1">
    <inkscape:page
       x="0"
       y="0"
       inkscape:label="1"
       id="page1"
       width="334.77332"
       height="264.57333"
       margin="0"
       bleed="0" />
  </sodipodi:namedview>
  <g
     id="g1"
     inkscape:groupmode="layer"
     inkscape:label="1">
    <g
       id="group-R5">
      <path
         id="path2"
         d="m 1.0199594,-2.2865469 v -0.46875 c -0.29296878,0.1171875 -0.62109378,0.2109375 -0.87890628,0.2578125 v 0.140625 c 0.375,0.046875 0.3984375,0.058594 0.3984375,0.4570313 v 2.70703122 c 0,0.39843748 -0.0585938,0.43359378 -0.43359375,0.46874998 V 1.4400156 H 1.5238656 V 1.2759531 C 1.0551156,1.2290781 1.0199594,1.2056406 1.0199594,0.74860937 v -0.78515625 c 0.070312,0.046875 0.234375,0.10546875 0.4101562,0.10546875 0.7734375,-0.140625 1.4882813,-0.7265625 1.4882813,-1.62890627 0,-0.5976562 -0.3867188,-1.1367187 -1.0546875,-1.1367187 -0.070312,0 -0.1875,0.035156 -0.2929688,0.09375 z m 0,0.1992188 c 0.1523437,-0.1171875 0.3984375,-0.2460938 0.5976562,-0.2460938 0.4335938,0 0.796875,0.3632813 0.796875,0.9960938 0,0.67968747 -0.328125,1.11328122 -0.8320312,1.11328122 -0.2109375,0 -0.4335938,-0.09375 -0.5625,-0.234375 z m 5.1357422,0.2783203 c -0.9023438,0 -1.2304688,1.06640624 -1.2304688,1.94531249 0,0.94921871 0.328125,1.93359371 1.2304688,1.93359371 0.9023437,0 1.21875,-1.0664062 1.21875,-1.94531246 0,-0.92578125 -0.3164063,-1.93359374 -1.21875,-1.93359374 z m -0.011719,0.1992187 c 0.5390625,0 0.6914063,0.89062504 0.6914063,1.73437504 0,0.84375 -0.140625,1.74609376 -0.6796875,1.74609376 -0.5273438,0 -0.703125,-0.91406251 -0.703125,-1.74609376 0,-0.83203125 0.1523437,-1.73437504 0.6914062,-1.73437504 z M 35.018983,54.490797 v -0.46875 c -0.292969,0.117187 -0.621094,0.210937 -0.878906,0.257812 v 0.140625 c 0.375,0.04687 0.398437,0.05859 0.398437,0.457032 v 2.707031 c 0,0.398437 -0.05859,0.433594 -0.433594,0.46875 v 0.164062 h 1.417969 v -0.164062 c -0.46875,-0.04687 -0.503906,-0.07031 -0.503906,-0.527344 v -0.785156 c 0.07031,0.04687 0.234375,0.105469 0.410156,0.105469 0.773438,-0.140625 1.488281,-0.726563 1.488281,-1.628907 0,-0.597656 -0.386718,-1.136718 -1.054687,-1.136718 -0.07031,0 -0.1875,0.03516 -0.292969,0.09375 z m 0,0.199219 c 0.152344,-0.117188 0.398437,-0.246094 0.597656,-0.246094 0.433594,0 0.796875,0.363281 0.796875,0.996094 0,0.679687 -0.328125,1.113281 -0.832031,1.113281 -0.210938,0 -0.433594,-0.09375 -0.5625,-0.234375 z m 6.005859,4.086914 v -0.164063 c -0.550781,-0.03516 -0.585937,-0.09375 -0.585937,-0.515625 v -3.128906 c -0.328125,0.128906 -0.679688,0.246094 -1.066407,0.316406 v 0.128906 l 0.28125,0.01172 c 0.269532,0.01172 0.292969,0.04687 0.292969,0.363281 v 2.308594 c 0,0.421875 -0.03516,0.480469 -0.574219,0.515625 v 0.164063 z m 0,0"
         style="fill:#231f20;fill-opacity:1;fill-rule:nonzero;stroke:none"
         aria-label="p&#10;0&#10;p&#10;1"
         transform="matrix(1.3333333,0,0,1.3333333,43.647867,49.634667)" />
      <path
         id="path3"
         d="m 236.57,1782 c -7.215,-75.93 -49.937,-119.14 -118.418,-120.09 -19.4293,91.38 -59.7848,156.68 -91.0934,203.72 1.9844,-1.13 3.8477,-2.38 5.9609,-3.59 C 88.8984,1828.15 146.492,1793.1 236.57,1782"
         style="fill:#cecdcd;fill-opacity:1;fill-rule:nonzero;stroke:none"
         transform="matrix(0.13333333,0,0,-0.13333333,0,264.57333)" />
      <path
         id="path4"
         d="m 249.473,1780.65 c -7.825,-81.19 -55.403,-129.74 -128.782,-131.77 2.114,-11.45 4.036,-23.21 5.414,-35.44 l -12.875,-1.4 C 98.9258,1735.57 43.8672,1817.25 7.46875,1871.31 L 0,1882.62 c 0,0 3.13672,1.21 5.30078,3.54 2.1875,2.3 3.39844,5.65 3.39844,5.65 10.46878,-6.22 20.80468,-12.33 31.02738,-18.6 66.2304,-40.22 128.6914,-78.33 242.6284,-81.66 l -0.363,-12.93 c -11.308,0.29 -22.082,1.05 -32.519,2.03 z M 118.152,1661.91 c 68.481,0.95 111.203,44.16 118.418,120.09 -90.078,11.1 -147.6716,46.15 -203.5505,80.04 -2.1132,1.21 -3.9765,2.46 -5.9609,3.59 31.3086,-47.04 71.6641,-112.34 91.0934,-203.72"
         style="fill:#231f20;fill-opacity:1;fill-rule:nonzero;stroke:none"
         transform="matrix(0.13333333,0,0,-0.13333333,0,264.57333)" />
      <path
         id="path5"
         d="m 196.184,1700.27 c -20.371,-19.82 -47.075,-25.36 -59.629,-12.45 -12.571,13 -6.203,39.5 14.16,59.25 20.39,19.81 47.098,25.34 59.656,12.41 12.567,-12.93 6.223,-39.47 -14.187,-59.21"
         style="fill:#ffffff;fill-opacity:1;fill-rule:nonzero;stroke:none"
         transform="matrix(0.13333333,0,0,-0.13333333,0,264.57333)" />
      <path
         id="path6"
         d="m 188.391,1700.04 c -9.094,-8.04 -22.051,-8.25 -28.95,-0.44 -6.914,7.79 -5.156,20.61 3.938,28.67 9.094,8.04 22.043,8.27 28.957,0.45 6.894,-7.79 5.125,-20.61 -3.945,-28.68"
         style="fill:#231f20;fill-opacity:1;fill-rule:nonzero;stroke:none"
         transform="matrix(0.13333333,0,0,-0.13333333,0,264.57333)" />
      <path
         id="path7"
         d="m 2141.59,1009.02 c 10.35,-8.68 208.45,-170.481 208.45,-170.481 v -39.008 h -70.66 V 5.39063 h -48.6 L 2180.75,689.719 h -60.62 l -10.61,-429.547 h -42.44 L 2023.88,689.48 597.727,674.832 555.586,245.711 H 510.078 L 494.91,675.281 H 460.059 L 403.918,2.64063 353.145,2.5 343.352,783.641 c 0,0 -52.563,13.961 -54.582,17.328 -3.196,5.32 -2.989,28.371 0,33.23 4.316,6.992 159.304,145.36 171.289,160.375 25.761,0 1671.181,23.126 1681.531,14.446"
         style="fill:#e5e4e4;fill-opacity:1;fill-rule:nonzero;stroke:none"
         transform="matrix(0.13333333,0,0,-0.13333333,0,264.57333)" />
      <path
         id="path8"
         d="m 2141.59,1009.02 c 10.35,-8.68 208.45,-170.481 208.45,-170.481 v -39.008 h -70.66 V 5.39063 h -48.6 L 2180.75,689.719 h -60.62 l -10.61,-429.547 h -42.44 L 2023.88,689.48 597.727,674.832 555.586,245.711 H 510.078 L 494.91,675.281 H 460.059 L 403.918,2.64063 353.145,2.5 343.352,783.641 c 0,0 -52.563,13.961 -54.582,17.328 -3.196,5.32 -2.989,28.371 0,33.23 4.316,6.992 159.304,145.36 171.289,160.375 25.761,0 1671.181,23.126 1681.531,14.446 z"
         style="fill:none;stroke:#231f20;stroke-width:5;stroke-linecap:butt;stroke-linejoin:miter;stroke-miterlimit:10;stroke-dasharray:none;stroke-opacity:1"
         transform="matrix(0.13333333,0,0,-0.13333333,0,264.57333)" />
      <path
         id="path9"
         d="m 2120.13,689.719 h -97.01 L 597.488,675.281 H 494.91"
         style="fill:#e5e4e4;fill-opacity:1;fill-rule:nonzero;stroke:#231f20;stroke-width:5;stroke-linecap:butt;stroke-linejoin:miter;stroke-miterlimit:10;stroke-dasharray:none;stroke-opacity:1"
         transform="matrix(0.13333333,0,0,-0.13333333,0,264.57333)" />
      <path
         id="path10"
         d="m 343.352,783.641 1837.398,15.89 h 98.63"
         style="fill:#e5e4e4;fill-opacity:1;fill-rule:nonzero;stroke:#231f20;stroke-width:5;stroke-linecap:butt;stroke-linejoin:miter;stroke-miterlimit:10;stroke-dasharray:none;stroke-opacity:1"
         transform="matrix(0.13333333,0,0,-0.13333333,0,264.57333)" />
      <path
         id="path11"
         d="M 282.449,1612.04 664.309,943.949"
         style="fill:none;stroke:#231f20;stroke-width:7.5;stroke-linecap:butt;stroke-linejoin:miter;stroke-miterlimit:10;stroke-dasharray:none;stroke-opacity:1"
         transform="matrix(0.13333333,0,0,-0.13333333,0,264.57333)" />
      <path
         id="path12"
         d="M 1552.55,1096.79 664.309,943.949"
         style="fill:none;stroke:#231f20;stroke-width:7.5;stroke-linecap:butt;stroke-linejoin:miter;stroke-miterlimit:10;stroke-dasharray:none;stroke-opacity:1"
         transform="matrix(0.13333333,0,0,-0.13333333,0,264.57333)" />
      <path
         id="path13"
         d="m 1552.55,1096.79 557.5,595.6"
         style="fill:none;stroke:#231f20;stroke-width:7.5;stroke-linecap:butt;stroke-linejoin:miter;stroke-miterlimit:10;stroke-dasharray:none;stroke-opacity:1"
         transform="matrix(0.13333333,0,0,-0.13333333,0,264.57333)" />
      <path
         id="path14"
         d="m 255.195,1615.65 c 0,-12.44 10.071,-22.51 22.508,-22.51 12.426,0 22.492,10.07 22.492,22.51 0,12.41 -10.066,22.49 -22.492,22.49 -12.437,0 -22.508,-10.08 -22.508,-22.49"
         style="fill:#231f20;fill-opacity:1;fill-rule:nonzero;stroke:none"
         transform="matrix(0.13333333,0,0,-0.13333333,0,264.57333)" />
      <path
         id="path15"
         d="m 1596.2,964.871 c 0,0 1.48,-43.48 9.58,-55.281 8.12,-11.789 59.2,-56 177,-53.801 117.8,2.211 156.16,29.402 168.28,34.641 40.9,17.691 50.11,65.172 50.11,65.172 l -404.97,9.269"
         style="fill:#d3d2d2;fill-opacity:1;fill-rule:nonzero;stroke:none"
         transform="matrix(0.13333333,0,0,-0.13333333,0,264.57333)" />
      <path
         id="path16"
         d="m 1596.2,964.871 c 0,0 1.48,-43.48 9.58,-55.281 8.12,-11.789 59.2,-56 177,-53.801 117.8,2.211 156.16,29.402 168.28,34.641 40.9,17.691 50.11,65.172 50.11,65.172 z"
         style="fill:none;stroke:#231f20;stroke-width:6.94497;stroke-linecap:butt;stroke-linejoin:miter;stroke-miterlimit:10;stroke-dasharray:none;stroke-opacity:1"
         transform="matrix(0.13333333,0,0,-0.13333333,0,264.57333)" />
      <path
         id="path17"
         d="m 1954.31,1066.96 c 33.72,-13.83 104.46,-28.86 104.28,-80.522 -0.19,-53.348 -112.76,-100.047 -205.63,-106.676 -86.56,-6.192 -190.68,-11.614 -284.65,40.347 -39.8,23.211 -59.15,67.434 -38.14,93.411 9.96,16.58 57.28,53.55 114.59,61.33 57.32,7.76 309.55,-7.89 309.55,-7.89"
         style="fill:#d3d2d2;fill-opacity:1;fill-rule:nonzero;stroke:none"
         transform="matrix(0.13333333,0,0,-0.13333333,0,264.57333)" />
      <path
         id="path18"
         d="m 1954.31,1066.96 c 33.72,-13.83 104.46,-28.86 104.28,-80.522 -0.19,-53.348 -112.76,-100.047 -205.63,-106.676 -86.56,-6.192 -190.68,-11.614 -284.65,40.347 -39.8,23.211 -59.15,67.434 -38.14,93.411 9.96,16.58 57.28,53.55 114.59,61.33 57.32,7.76 309.55,-7.89 309.55,-7.89 z"
         style="fill:none;stroke:#231f20;stroke-width:6.94497;stroke-linecap:butt;stroke-linejoin:miter;stroke-miterlimit:10;stroke-dasharray:none;stroke-opacity:1"
         transform="matrix(0.13333333,0,0,-0.13333333,0,264.57333)" />
      <path
         id="path19"
         d="m 1616.79,1056.88 c -40.2,-17.93 -95.92,-45.27 -69.61,-83.958 30.53,-44.891 95.19,-74.383 238.9,-72.16 143.71,2.207 207.29,23.929 246.53,69.168 39.25,45.25 -37.58,76.28 -53.62,81.44 -16.03,5.18 -43.11,12.44 -43.11,12.44 l -290.75,9.4 -28.34,-16.33"
         style="fill:#d3d2d2;fill-opacity:1;fill-rule:nonzero;stroke:none"
         transform="matrix(0.13333333,0,0,-0.13333333,0,264.57333)" />
      <path
         id="path20"
         d="m 1616.79,1056.88 c -40.2,-17.93 -95.92,-45.27 -69.61,-83.958 30.53,-44.891 95.19,-74.383 238.9,-72.16 143.71,2.207 207.29,23.929 246.53,69.168 39.25,45.25 -37.58,76.28 -53.62,81.44 -16.03,5.18 -43.11,12.44 -43.11,12.44 l -290.75,9.4 z"
         style="fill:none;stroke:#231f20;stroke-width:6.94497;stroke-linecap:butt;stroke-linejoin:miter;stroke-miterlimit:10;stroke-dasharray:none;stroke-opacity:1"
         transform="matrix(0.13333333,0,0,-0.13333333,0,264.57333)" />
      <path
         id="path21"
         d="m 1557.41,1049.82 c 2.51,-11.57 5.99,-23.6 23.6,-35.2 12.14,-8.01 26.73,-2.93 34.47,1.13 7.73,4.05 8.63,18.59 6.05,27.44 -2.57,8.83 -4.69,25.04 -22.04,32.23 -12.89,5.35 -49.27,7.55 -42.08,-25.6 z m 143.16,-76.66 c -15.31,1.449 -27.45,2.59 -86.05,6.641 -58.58,4.051 -71.84,28.379 -82.53,46.429 -10.69,18.05 -14.74,42.75 -1.1,59.33 13.63,16.57 38.69,16.94 56.01,20.26 17.32,3.32 11.05,2.95 28.58,9.58 0,0 100.38,-143.709 85.09,-142.24"
         style="fill:#d3d2d2;fill-opacity:1;fill-rule:nonzero;stroke:none"
         transform="matrix(0.13333333,0,0,-0.13333333,0,264.57333)" />
      <path
         id="path22"
         d="m 1557.41,1049.82 c 2.51,-11.57 5.99,-23.6 23.6,-35.2 12.14,-8.01 26.73,-2.93 34.47,1.13 7.73,4.05 8.63,18.59 6.05,27.44 -2.57,8.83 -4.69,25.04 -22.04,32.23 -12.89,5.35 -49.27,7.55 -42.08,-25.6 z m 143.16,-76.66 c -15.31,1.449 -27.45,2.59 -86.05,6.641 -58.58,4.051 -71.84,28.379 -82.53,46.429 -10.69,18.05 -14.74,42.75 -1.1,59.33 13.63,16.57 38.69,16.94 56.01,20.26 17.32,3.32 11.05,2.95 28.58,9.58 0,0 100.38,-143.709 85.09,-142.24 z"
         style="fill:none;stroke:#231f20;stroke-width:6.94497;stroke-linecap:butt;stroke-linejoin:miter;stroke-miterlimit:10;stroke-dasharray:none;stroke-opacity:1"
         transform="matrix(0.13333333,0,0,-0.13333333,0,264.57333)" />
      <path
         id="path23"
         d="m 1973.04,1137.7 c -15.47,-67.27 -26.39,-104.28 -40.47,-128.05 -13.85,-23.337 -32.62,-44.779 -56.39,-70.759 -7.93,-8.661 -33.71,-21.539 -71.31,-20.45 -37.58,1.11 -67.99,4.981 -90.08,22.129 -22.1,17.129 -46.44,52.489 -53.63,59.68 -7.18,7.18 -49.31,95.26 -48.98,137.45 0.35,42.19 356.82,4.84 356.82,4.84"
         style="fill:#d3d2d2;fill-opacity:1;fill-rule:nonzero;stroke:#231f20;stroke-width:6.94497;stroke-linecap:butt;stroke-linejoin:miter;stroke-miterlimit:10;stroke-dasharray:none;stroke-opacity:1"
         transform="matrix(0.13333333,0,0,-0.13333333,0,264.57333)" />
      <path
         id="path24"
         d="m 1793,1199.52 c 39.51,-0.15 136.98,-1.39 172.72,-41.55 35.75,-40.17 -59.32,-87.33 -214.46,-77.39 -155.12,9.95 -139.65,54.91 -137.81,63.39 14.37,36.1 107.42,55.82 179.55,55.55"
         style="fill:#d3d2d2;fill-opacity:1;fill-rule:nonzero;stroke:none"
         transform="matrix(0.13333333,0,0,-0.13333333,0,264.57333)" />
      <path
         id="path25"
         d="m 1793,1199.52 c 39.51,-0.15 136.98,-1.39 172.72,-41.55 35.75,-40.17 -59.32,-87.33 -214.46,-77.39 -155.12,9.95 -139.65,54.91 -137.81,63.39 14.37,36.1 107.42,55.82 179.55,55.55 z"
         style="fill:none;stroke:#231f20;stroke-width:6.94497;stroke-linecap:butt;stroke-linejoin:miter;stroke-miterlimit:10;stroke-dasharray:none;stroke-opacity:1"
         transform="matrix(0.13333333,0,0,-0.13333333,0,264.57333)" />
      <path
         id="path26"
         d="m 1949.15,1137.7 c 0,-22.6 -70.78,-40.91 -158.09,-40.91 -87.3,0 -158.08,18.31 -158.08,40.91 0,22.6 70.78,40.9 158.08,40.9 87.31,0 158.09,-18.3 158.09,-40.9"
         style="fill:#a7a5a6;fill-opacity:1;fill-rule:nonzero;stroke:none"
         transform="matrix(0.13333333,0,0,-0.13333333,0,264.57333)" />
      <path
         id="path27"
         d="m 1949.15,1137.7 c 0,-22.6 -70.78,-40.91 -158.09,-40.91 -87.3,0 -158.08,18.31 -158.08,40.91 0,22.6 70.78,40.9 158.08,40.9 87.31,0 158.09,-18.3 158.09,-40.9 z"
         style="fill:none;stroke:#231f20;stroke-width:5;stroke-linecap:butt;stroke-linejoin:miter;stroke-miterlimit:10;stroke-dasharray:none;stroke-opacity:1"
         transform="matrix(0.13333333,0,0,-0.13333333,0,264.57333)" />
      <path
         id="path28"
         d="m 641.809,943.969 c 0,-12.418 10.078,-22.508 22.507,-22.508 12.414,0 22.493,10.09 22.493,22.508 0,12.422 -10.079,22.492 -22.493,22.492 -12.429,0 -22.507,-10.07 -22.507,-22.492"
         style="fill:#231f20;fill-opacity:1;fill-rule:nonzero;stroke:none"
         transform="matrix(0.13333333,0,0,-0.13333333,0,264.57333)" />
      <path
         id="path29"
         d="m 2087.56,1692.39 c 0,-12.43 10.07,-22.5 22.51,-22.5 12.4,0 22.49,10.07 22.49,22.5 0,12.42 -10.09,22.5 -22.49,22.5 -12.44,0 -22.51,-10.08 -22.51,-22.5"
         style="fill:#231f20;fill-opacity:1;fill-rule:nonzero;stroke:none"
         transform="matrix(0.13333333,0,0,-0.13333333,0,264.57333)" />
      <path
         id="path30"
         d="m 1530.05,1096.81 c 0,-12.42 10.08,-22.51 22.5,-22.51 12.42,0 22.5,10.09 22.5,22.51 0,12.41 -10.08,22.49 -22.5,22.49 -12.42,0 -22.5,-10.08 -22.5,-22.49"
         style="fill:#231f20;fill-opacity:1;fill-rule:nonzero;stroke:none"
         transform="matrix(0.13333333,0,0,-0.13333333,0,264.57333)" />
      <path
         id="path31"
         d="m 2236.69,1983.66 9.71,-37.63 17.31,34.79 1.67,-38.82 24.17,30.43 -6.44,-38.32 29.97,24.74 -14.27,-36.15 34.46,17.97 -21.48,-32.4 37.46,10.43 -27.76,-27.23 38.8,2.4 -32.8,-20.86 38.46,-5.72 -36.43,-13.59 36.43,-13.58 -38.46,-5.71 32.8,-20.86 -38.8,2.4 27.76,-27.22 -37.46,10.41 21.48,-32.39 -34.46,17.97 14.27,-36.15 -29.97,24.75 6.44,-38.34 -24.17,30.44 -1.67,-38.83 -17.31,34.8 -9.71,-37.64 -9.71,37.64 -17.3,-34.8 -1.67,38.83 -24.17,-30.44 6.44,38.34 -29.98,-24.75 14.28,36.15 -34.46,-17.97 21.47,32.39 -37.45,-10.41 27.74,27.22 -38.78,-2.4 32.79,20.86 -38.45,5.71 36.43,13.58 -36.43,13.59 38.45,5.72 -32.79,20.86 38.78,-2.4 -27.74,27.23 37.45,-10.43 -21.47,32.4 34.46,-17.97 -14.28,36.15 29.98,-24.74 -6.44,38.32 24.17,-30.43 1.67,38.82 17.3,-34.79 9.71,37.63"
         style="fill:#fddd1b;fill-opacity:1;fill-rule:nonzero;stroke:none"
         transform="matrix(0.13333333,0,0,-0.13333333,0,264.57333)" />
      <path
         id="path32"
         d="m 2236.69,1983.66 9.71,-37.63 17.31,34.79 1.67,-38.82 24.17,30.43 -6.44,-38.32 29.97,24.74 -14.27,-36.15 34.46,17.97 -21.48,-32.4 37.46,10.43 -27.76,-27.23 38.8,2.4 -32.8,-20.86 38.46,-5.72 -36.43,-13.59 36.43,-13.58 -38.46,-5.71 32.8,-20.86 -38.8,2.4 27.76,-27.22 -37.46,10.41 21.48,-32.39 -34.46,17.97 14.27,-36.15 -29.97,24.75 6.44,-38.34 -24.17,30.44 -1.67,-38.83 -17.31,34.8 -9.71,-37.64 -9.71,37.64 -17.3,-34.8 -1.67,38.83 -24.17,-30.44 6.44,38.34 -29.98,-24.75 14.28,36.15 -34.46,-17.97 21.47,32.39 -37.45,-10.41 27.74,27.22 -38.78,-2.4 32.79,20.86 -38.45,5.71 36.43,13.58 -36.43,13.59 38.45,5.72 -32.79,20.86 38.78,-2.4 -27.74,27.23 37.45,-10.43 -21.47,32.4 34.46,-17.97 -14.28,36.15 29.98,-24.74 -6.44,38.32 24.17,-30.43 1.67,38.82 17.3,-34.79 z"
         style="fill:none;stroke:#231f20;stroke-width:5;stroke-linecap:butt;stroke-linejoin:bevel;stroke-miterlimit:10;stroke-dasharray:none;stroke-opacity:1"
         transform="matrix(0.13333333,0,0,-0.13333333,0,264.57333)" />
      <g
         id="g32"
         aria-label="f(p&#10;0&#10;→p&#10;1&#10;→p&#10;2&#10;)&#10;L&#10;e&#10;(p&#10;3&#10;→p&#10;2&#10;)&#10;p&#10;2&#10;p&#10;3"
         transform="matrix(1.3333333,0,0,1.3333333,58.124533,150.47747)">
        <path
           id="path33"
           d="M 0.71519375,-3.9030219 0.4456625,-3.6452094 0.4691,-3.5514594 h 0.75 C 1.0667562,-2.6608344 0.94956875,-1.9108344 0.7269125,-0.66864687 0.43394375,1.0774469 0.2112875,1.4524469 0.0941,1.5930719 0.01206875,1.6985406 -0.140275,1.7688531 -0.29261875,1.7688531 c -0.15234375,0 -0.421875,-0.082031 -0.5625,-0.2226562 -0.0585938,-0.058594 -0.09375,-0.058594 -0.17578125,0 -0.1289063,0.1054687 -0.234375,0.2578125 -0.234375,0.375 -0.011719,0.2109375 0.29296875,0.3867187 0.55078125,0.3867187 0.24609375,0 0.62109375,-0.140625 1.01953125,-0.5625 C 0.797225,1.2297906 1.1370687,0.56182188 1.453475,-0.98505312 1.6526937,-1.9928656 1.7464437,-2.5436469 1.9105062,-3.5280219 l 0.9023438,-0.09375 0.1875,-0.28125 H 1.9808187 c 0.2695313,-1.6640625 0.5390625,-2.0742187 0.8671875,-2.0742187 0.1992188,0 0.3867188,0.1171875 0.5742188,0.3164062 0.058594,0.070312 0.1523437,0.058594 0.2226562,0.011719 0.09375,-0.070312 0.2226563,-0.234375 0.2226563,-0.375 0.011719,-0.1640625 -0.2226563,-0.3867188 -0.5390625,-0.3867188 -0.3632813,0 -0.8671875,0.2578125 -1.2890625,0.7265625 -0.3984375,0.4453125 -0.6210938,1.1015625 -0.75,1.78125 z m 0,0"
           style="fill:#231f20;fill-opacity:1;fill-rule:nonzero;stroke:none" />
        <path
           id="path34"
           d="M 4.9632406,0.87822813 C 4.3655844,0.37432188 4.0140219,-0.58661562 4.0140219,-1.6178656 c 0,-1.03125 0.3398437,-2.0039063 0.9492187,-2.4960938 l -0.1171875,-0.140625 c -0.8671875,0.5976563 -1.265625,1.5585938 -1.265625,2.625 0,1.08984378 0.3984375,2.05078128 1.265625,2.6484375 z M 7.2923422,-2.2858344 v -0.46875 c -0.2929688,0.1171875 -0.6210938,0.2109375 -0.8789063,0.2578125 v 0.140625 c 0.375,0.046875 0.3984375,0.058594 0.3984375,0.4570313 v 2.70703123 c 0,0.39843747 -0.058594,0.43359377 -0.4335937,0.46874997 V 1.4407281 H 7.7962484 V 1.2766656 C 7.3274984,1.2297906 7.2923422,1.2063531 7.2923422,0.74932188 v -0.78515625 c 0.070312,0.046875 0.234375,0.10546875 0.4101562,0.10546875 0.7734375,-0.140625 1.4882813,-0.7265625 1.4882813,-1.62890628 0,-0.5976562 -0.3867188,-1.1367187 -1.0546875,-1.1367187 -0.070312,0 -0.1875,0.035156 -0.2929688,0.09375 z m 0,0.1992188 c 0.1523437,-0.1171875 0.3984375,-0.2460938 0.5976562,-0.2460938 0.4335938,0 0.796875,0.3632813 0.796875,0.9960938 0,0.67968748 -0.328125,1.11328123 -0.8320312,1.11328123 -0.2109375,0 -0.4335938,-0.09375 -0.5625,-0.234375 z m 5.1386718,0.2783203 c -0.902344,0 -1.230469,1.06640624 -1.230469,1.94531249 0,0.94921871 0.328125,1.93359371 1.230469,1.93359371 0.902344,0 1.21875,-1.0664062 1.21875,-1.94531246 0,-0.92578125 -0.316406,-1.93359374 -1.21875,-1.93359374 z m -0.01172,0.1992187 c 0.539063,0 0.691407,0.89062504 0.691407,1.73437504 0,0.84375 -0.140625,1.74609376 -0.679688,1.74609376 -0.527344,0 -0.703125,-0.91406251 -0.703125,-1.74609376 0,-0.83203125 0.152344,-1.73437504 0.691406,-1.73437504 z m 0,0"
           style="fill:#231f20;fill-opacity:1;fill-rule:nonzero;stroke:none" />
        <path
           id="path35"
           d="m 20.373397,-3.8561469 c 0.175781,0.3398438 0.304687,0.5859375 0.386719,0.7382813 0.09375,0.1289062 0.246093,0.3398437 0.46875,0.6210937 h -7.007813 v 0.4453125 h 7.007813 c -0.292969,0.3164063 -0.585938,0.7734375 -0.867188,1.35937503 h 0.351563 c 0.375,-0.42187503 0.703125,-0.73828123 0.972656,-0.96093753 0.269531,-0.2226562 0.550781,-0.3984375 0.84375,-0.5390625 v -0.1992187 c -0.257813,-0.1054688 -0.527344,-0.2695313 -0.808594,-0.4921875 -0.292969,-0.2226563 -0.621094,-0.5507813 -1.019531,-0.9726563 z m 0,0"
           style="fill:#231f20;fill-opacity:1;fill-rule:nonzero;stroke:none" />
        <path
           id="path36"
           d="m 23.889022,-2.2858344 v -0.46875 c -0.292969,0.1171875 -0.621094,0.2109375 -0.878906,0.2578125 v 0.140625 c 0.375,0.046875 0.398437,0.058594 0.398437,0.4570313 v 2.70703123 c 0,0.39843747 -0.05859,0.43359377 -0.433594,0.46874997 v 0.1640625 h 1.417969 V 1.2766656 c -0.46875,-0.046875 -0.503906,-0.070312 -0.503906,-0.52734372 v -0.78515625 c 0.07031,0.046875 0.234375,0.10546875 0.410156,0.10546875 0.773438,-0.140625 1.488281,-0.7265625 1.488281,-1.62890628 0,-0.5976562 -0.386718,-1.1367187 -1.054687,-1.1367187 -0.07031,0 -0.1875,0.035156 -0.292969,0.09375 z m 0,0.1992188 c 0.152344,-0.1171875 0.398437,-0.2460938 0.597656,-0.2460938 0.433594,0 0.796875,0.3632813 0.796875,0.9960938 0,0.67968748 -0.328125,1.11328123 -0.832031,1.11328123 -0.210938,0 -0.433594,-0.09375 -0.5625,-0.234375 z m 6.00293,4.086914 V 1.8362359 c -0.550782,-0.035156 -0.585938,-0.09375 -0.585938,-0.515625 v -3.1289062 c -0.328125,0.1289062 -0.679687,0.2460937 -1.066406,0.3164062 v 0.1289063 l 0.28125,0.011719 c 0.269531,0.011719 0.292969,0.046875 0.292969,0.36328129 V 1.3206109 c 0,0.421875 -0.03516,0.4804688 -0.574219,0.515625 v 0.1640625 z m 0,0"
           style="fill:#231f20;fill-opacity:1;fill-rule:nonzero;stroke:none" />
        <path
           id="path37"
           d="m 36.970077,-3.8561469 c 0.175781,0.3398438 0.304687,0.5859375 0.386718,0.7382813 0.09375,0.1289062 0.246094,0.3398437 0.46875,0.6210937 h -7.007812 v 0.4453125 h 7.007812 c -0.292968,0.3164063 -0.585937,0.7734375 -0.867187,1.35937503 h 0.351562 c 0.375,-0.42187503 0.703125,-0.73828123 0.972657,-0.96093753 0.269531,-0.2226562 0.550781,-0.3984375 0.84375,-0.5390625 v -0.1992187 c -0.257813,-0.1054688 -0.527344,-0.2695313 -0.808594,-0.4921875 -0.292969,-0.2226563 -0.621094,-0.5507813 -1.019531,-0.9726563 z m 0,0"
           style="fill:#231f20;fill-opacity:1;fill-rule:nonzero;stroke:none" />
        <path
           id="path38"
           d="m 40.989608,-3.4225531 v -0.7148438 c -0.421875,0.1757813 -0.925781,0.328125 -1.3125,0.3984375 v 0.2109375 c 0.5625,0.070312 0.597656,0.09375 0.597656,0.6796875 v 4.0664063 c 0,0.5859375 -0.08203,0.6445312 -0.65625,0.703125 v 0.234375 h 2.132813 V 1.9211969 C 41.048202,1.8508844 40.989608,1.8040094 40.989608,1.1243219 v -1.18359377 c 0.117187,0.0703125 0.363281,0.15234375 0.621094,0.1640625 1.171875,-0.2109375 2.238281,-1.08984375 2.238281,-2.44921873 0,-0.890625 -0.597656,-1.6992188 -1.59375,-1.6992188 -0.105469,0 -0.28125,0.046875 -0.445313,0.140625 z m 0,0.3046875 c 0.246094,-0.1875 0.609375,-0.3867188 0.902344,-0.3867188 0.65625,0 1.207031,0.5390625 1.207031,1.5117188 0,1.00781248 -0.515625,1.66406248 -1.265625,1.66406248 -0.304688,0 -0.644531,-0.15234375 -0.84375,-0.3515625 z m 6.893554,3.85253904 C 47.613631,1.3088922 47.496444,1.3440484 47.015975,1.3440484 h -1.6875 l 1.277344,-1.33593746 c 0.832031,-0.890625 1.195312,-1.41796874 1.195312,-2.20312504 0,-0.9492187 -0.726562,-1.5234375 -1.511719,-1.5234375 -0.527343,0 -0.949218,0.234375 -1.21875,0.5390625 l -0.515625,0.7265625 0.199219,0.1757813 c 0.234375,-0.3515625 0.609375,-0.8320313 1.230469,-0.8320313 0.65625,0 1.054687,0.4335938 1.054687,1.1953125 0,0.7734375 -0.5625,1.51171879 -1.125,2.17968754 -0.445312,0.515625 -0.949218,1.03124996 -1.453125,1.52343746 v 0.2109375 h 3.363282 c 0.105468,-0.4101562 0.199218,-0.796875 0.316406,-1.18359371 z M 47.470077,-6.1764594 c 0.890625,0.7382813 1.417968,2.203125 1.417968,3.75 0,1.54687503 -0.503906,2.98828128 -1.417968,3.75 l 0.164062,0.1992188 c 1.347656,-0.91406252 1.898438,-2.33203127 1.898438,-3.9492188 0,-1.6289062 -0.550782,-3.0585937 -1.898438,-3.9609375 z m 0,0"
           style="fill:#231f20;fill-opacity:1;fill-rule:nonzero;stroke:none" />
        <path
           id="path39"
           d="m 174.08824,-77.490912 c -0.23437,0.445312 -0.43359,0.714843 -0.63281,0.914062 -0.22266,0.222656 -0.52735,0.269531 -1.05469,0.269531 -0.39844,0 -0.67969,-0.01172 -0.80859,-0.117187 -0.14063,-0.105469 -0.16407,-0.316406 -0.0937,-0.644531 l 0.70312,-3.726563 c 0.12891,-0.679687 0.16406,-0.738281 0.87891,-0.796875 l 0.0586,-0.234375 h -2.25 l -0.0586,0.234375 c 0.73828,0.07031 0.78515,0.105469 0.64453,0.796875 l -0.73828,3.761719 c -0.14063,0.679687 -0.19922,0.75 -0.89063,0.796875 l -0.0586,0.246094 h 3.97266 c 0.14062,-0.28125 0.46875,-1.101563 0.57421,-1.40625 z m 0,0"
           style="fill:#231f20;fill-opacity:1;fill-rule:nonzero;stroke:none" />
        <path
           id="path40"
           d="m 176.78941,-74.625678 c -0.21094,0.199219 -0.44531,0.292969 -0.67969,0.292969 -0.42187,0 -0.89062,-0.328125 -0.90234,-1.148438 0.71484,-0.02344 1.46484,-0.08203 1.57031,-0.105469 0.10547,-0.02344 0.14063,-0.07031 0.14063,-0.1875 0,-0.46875 -0.41016,-0.914062 -0.90235,-0.914062 -0.3164,0 -0.63281,0.164062 -0.8789,0.433594 -0.2461,0.28125 -0.39844,0.644531 -0.39844,1.054687 0,0.679688 0.43359,1.277344 1.17188,1.277344 0.1875,0 0.59765,-0.105469 0.97265,-0.585938 z m -0.91406,-1.839844 c 0.32812,0 0.52734,0.292969 0.52734,0.597656 0,0.08203 -0.0352,0.117188 -0.15234,0.117188 -0.33984,0.02344 -0.66797,0.02344 -1.00781,0.02344 0.0937,-0.480468 0.35156,-0.738281 0.63281,-0.738281 z m 2.99414,1.353516 c -0.59766,-0.503906 -0.94922,-1.464844 -0.94922,-2.496094 0,-1.03125 0.33985,-2.003906 0.94922,-2.496094 l -0.11719,-0.140625 c -0.86718,0.597657 -1.26562,1.558594 -1.26562,2.625 0,1.089844 0.39844,2.050782 1.26562,2.648438 z m 2.3291,-3.164063 v -0.46875 c -0.29297,0.117188 -0.62109,0.210938 -0.8789,0.257813 v 0.140625 c 0.375,0.04687 0.39843,0.05859 0.39843,0.457031 v 2.707031 c 0,0.398438 -0.0586,0.433594 -0.43359,0.46875 v 0.164063 h 1.41797 v -0.164063 c -0.46875,-0.04687 -0.50391,-0.07031 -0.50391,-0.527343 v -0.785157 c 0.0703,0.04687 0.23438,0.105469 0.41016,0.105469 0.77344,-0.140625 1.48828,-0.726562 1.48828,-1.628906 0,-0.597656 -0.38672,-1.136719 -1.05469,-1.136719 -0.0703,0 -0.1875,0.03516 -0.29297,0.09375 z m 0,0.199219 c 0.15235,-0.117187 0.39844,-0.246094 0.59766,-0.246094 0.43359,0 0.79687,0.363282 0.79687,0.996094 0,0.679688 -0.32812,1.113281 -0.83203,1.113281 -0.21094,0 -0.43359,-0.09375 -0.5625,-0.234375 z m 4.21289,1.107422 c 0.14063,-0.222656 0.38672,-0.46875 0.71485,-0.46875 0.3164,0 0.57422,0.1875 0.57422,0.5625 0,0.445312 -0.41016,0.679687 -0.96094,0.84375 l 0.0351,0.175781 c 0.0937,-0.02344 0.2461,-0.05859 0.38672,-0.05859 0.33985,0 0.76172,0.222657 0.76172,0.773438 0,0.585937 -0.30469,0.914062 -0.72656,0.914062 -0.33984,0 -0.58594,-0.175781 -0.73828,-0.316406 -0.0469,-0.03516 -0.10547,-0.03516 -0.15235,0 -0.0469,0.04687 -0.1289,0.128906 -0.1289,0.199219 -0.0117,0.07031 0.0117,0.140625 0.0937,0.222656 0.0703,0.07031 0.3164,0.199219 0.59765,0.199219 0.4336,0 1.57032,-0.445313 1.57032,-1.417969 0,-0.433594 -0.30469,-0.808594 -0.83203,-0.914062 v -0.01172 c 0.17578,-0.117188 0.3164,-0.222656 0.41015,-0.316406 0.10547,-0.117188 0.1875,-0.257813 0.1875,-0.433594 0,-0.445313 -0.36328,-0.785156 -0.90234,-0.785156 -0.31641,0 -0.58594,0.152343 -0.76172,0.339843 l -0.25781,0.375 z m 0,0"
           style="fill:#231f20;fill-opacity:1;fill-rule:nonzero;stroke:none" />
        <path
           id="path41"
           d="m 194.27965,-79.846381 c 0.17578,0.339844 0.30468,0.585937 0.38672,0.738281 0.0937,0.128906 0.24609,0.339844 0.46875,0.621094 h -7.00782 v 0.445312 h 7.00782 c -0.29297,0.316407 -0.58594,0.773438 -0.86719,1.359375 h 0.35156 c 0.375,-0.421875 0.70313,-0.738281 0.97266,-0.960937 0.26953,-0.222656 0.55078,-0.398438 0.84375,-0.539063 v -0.199218 c -0.25782,-0.105469 -0.52735,-0.269532 -0.8086,-0.492188 -0.29297,-0.222656 -0.62109,-0.550781 -1.01953,-0.972656 z m 0,0"
           style="fill:#231f20;fill-opacity:1;fill-rule:nonzero;stroke:none" />
        <path
           id="path42"
           d="m 197.79527,-78.276069 v -0.46875 c -0.29297,0.117188 -0.62109,0.210938 -0.8789,0.257813 v 0.140625 c 0.375,0.04687 0.39843,0.05859 0.39843,0.457031 v 2.707031 c 0,0.398438 -0.0586,0.433594 -0.43359,0.46875 v 0.164063 h 1.41797 v -0.164063 c -0.46875,-0.04687 -0.50391,-0.07031 -0.50391,-0.527343 v -0.785157 c 0.0703,0.04687 0.23438,0.105469 0.41016,0.105469 0.77344,-0.140625 1.48828,-0.726562 1.48828,-1.628906 0,-0.597656 -0.38672,-1.136719 -1.05469,-1.136719 -0.0703,0 -0.1875,0.03516 -0.29297,0.09375 z m 0,0.199219 c 0.15235,-0.117187 0.39844,-0.246094 0.59766,-0.246094 0.43359,0 0.79687,0.363282 0.79687,0.996094 0,0.679688 -0.32812,1.113281 -0.83203,1.113281 -0.21094,0 -0.43359,-0.09375 -0.5625,-0.234375 z m 6.16992,3.240234 c -0.17578,0.386719 -0.25781,0.410157 -0.58593,0.410157 h -1.11329 l 0.84375,-0.902344 c 0.55079,-0.585938 0.79688,-0.9375 0.79688,-1.464844 0,-0.621094 -0.48047,-1.007812 -1.00781,-1.007812 -0.35157,0 -0.63282,0.152343 -0.8086,0.351562 l -0.33984,0.492188 0.12891,0.117187 c 0.15234,-0.234375 0.41015,-0.5625 0.80859,-0.5625 0.44531,0 0.71484,0.292969 0.71484,0.796875 0,0.515625 -0.375,1.007813 -0.75,1.453125 -0.30468,0.351563 -0.63281,0.691406 -0.97265,1.019531 v 0.140625 h 2.23828 c 0.082,-0.269531 0.14062,-0.539062 0.21094,-0.785156 z m 0.67676,-5.267578 c 0.59766,0.492188 0.94922,1.464844 0.94922,2.496094 0,1.03125 -0.33984,1.992188 -0.94922,2.496094 l 0.11719,0.140625 c 0.89062,-0.609375 1.26562,-1.558594 1.26562,-2.636719 0,-1.078125 -0.375,-2.039062 -1.26562,-2.636719 z m -98.00976,47.610352 v -0.46875 c -0.29297,0.117187 -0.6211,0.210937 -0.87891,0.257812 v 0.140625 c 0.375,0.04687 0.39844,0.05859 0.39844,0.457032 v 2.707031 c 0,0.398437 -0.0586,0.433594 -0.4336,0.46875 v 0.164062 h 1.41797 v -0.164062 c -0.46875,-0.04687 -0.5039,-0.07031 -0.5039,-0.527344 v -0.785156 c 0.0703,0.04687 0.23437,0.105469 0.41015,0.105469 0.77344,-0.140625 1.48828,-0.726563 1.48828,-1.628907 0,-0.597656 -0.38672,-1.136718 -1.05468,-1.136718 -0.0703,0 -0.1875,0.03516 -0.29297,0.09375 z m 0,0.199219 c 0.15234,-0.117188 0.39843,-0.246094 0.59765,-0.246094 0.4336,0 0.79688,0.363281 0.79688,0.996094 0,0.679687 -0.32813,1.113281 -0.83203,1.113281 -0.21094,0 -0.4336,-0.09375 -0.5625,-0.234375 z m 6.16992,3.243164 c -0.17578,0.386718 -0.25781,0.410156 -0.58594,0.410156 h -1.11328 l 0.84375,-0.902344 c 0.55078,-0.585937 0.79687,-0.9375 0.79687,-1.464844 0,-0.621093 -0.48046,-1.007812 -1.00781,-1.007812 -0.35156,0 -0.63281,0.152344 -0.80859,0.351562 l -0.33985,0.492188 0.12891,0.117187 c 0.15234,-0.234375 0.41016,-0.5625 0.80859,-0.5625 0.44532,0 0.71485,0.292969 0.71485,0.796875 0,0.515625 -0.375,1.007813 -0.75,1.453125 -0.30469,0.351563 -0.63281,0.691407 -0.97266,1.019532 v 0.140625 h 2.23828 c 0.082,-0.269532 0.14063,-0.539063 0.21094,-0.785157 z m 45.19043,-61.107422 v -0.46875 c -0.29297,0.117187 -0.6211,0.210937 -0.87891,0.257812 v 0.140625 c 0.375,0.04687 0.39844,0.05859 0.39844,0.457032 v 2.707031 c 0,0.398437 -0.0586,0.433594 -0.4336,0.46875 v 0.164062 h 1.41797 v -0.164062 c -0.46875,-0.04687 -0.5039,-0.07031 -0.5039,-0.527344 v -0.785156 c 0.0703,0.04687 0.23437,0.105469 0.41015,0.105469 0.77344,-0.140625 1.48828,-0.726563 1.48828,-1.628907 0,-0.597656 -0.38671,-1.136718 -1.05468,-1.136718 -0.0703,0 -0.1875,0.03516 -0.29297,0.09375 z m 0,0.199219 c 0.15234,-0.117188 0.39843,-0.246094 0.59765,-0.246094 0.4336,0 0.79688,0.363281 0.79688,0.996094 0,0.679687 -0.32813,1.113281 -0.83203,1.113281 -0.21094,0 -0.4336,-0.09375 -0.5625,-0.234375 z m 4.21289,1.110351 c 0.14062,-0.222656 0.38672,-0.46875 0.71484,-0.46875 0.31641,0 0.57422,0.1875 0.57422,0.5625 0,0.445313 -0.41016,0.679688 -0.96094,0.84375 l 0.0352,0.175781 c 0.0937,-0.02344 0.24609,-0.05859 0.38672,-0.05859 0.33984,0 0.76172,0.222656 0.76172,0.773437 0,0.585938 -0.30469,0.914063 -0.72657,0.914063 -0.33984,0 -0.58593,-0.175782 -0.73828,-0.316407 -0.0469,-0.03516 -0.10547,-0.03516 -0.15234,0 -0.0469,0.04687 -0.12891,0.128907 -0.12891,0.199219 -0.0117,0.07031 0.0117,0.140625 0.0937,0.222656 0.0703,0.07031 0.31641,0.199219 0.59766,0.199219 0.43359,0 1.57031,-0.445312 1.57031,-1.417969 0,-0.433593 -0.30469,-0.808593 -0.83203,-0.914062 v -0.01172 c 0.17578,-0.117187 0.31641,-0.222656 0.41016,-0.316406 0.10547,-0.117188 0.1875,-0.257813 0.1875,-0.433594 0,-0.445312 -0.36328,-0.785156 -0.90235,-0.785156 -0.3164,0 -0.58593,0.152344 -0.76172,0.339844 l -0.25781,0.375 z m 0,0"
           style="fill:#231f20;fill-opacity:1;fill-rule:nonzero;stroke:none" />
      </g>
      <g
         id="g42"
         aria-label="G&#10;(&#10;p"
         transform="matrix(1.3086932,-0.25514665,0.25514665,1.3086932,136.89867,125.27333)">
        <path
           id="path43"
           d="m 5.8855787,-4.2848737 c 0.038337,-0.6253134 0.077254,-1.1311199 0.1080694,-1.4116574 -0.2785847,-0.1020712 -0.8494987,-0.296954 -1.5895443,-0.2979628 -2.2338814,0.00623 -3.80099031,1.491614 -3.80937062,3.5554948 0.003337,1.63634702 1.10878022,2.58017038 2.67162912,2.58638319 0.7170412,-0.003476 1.3434384,-0.21565498 1.9196314,-0.35404591 -0.037618,-0.17448561 -0.01353,-0.42051653 0.03103,-0.71031369 L 5.3720462,-1.650873 c 0.1070607,-0.6716118 0.1597969,-0.6971483 0.6557644,-0.7914833 l 0.05411,-0.2162991 -2.1833876,-0.0078 -0.070097,0.2370609 c 0.9013659,0.092157 0.9198853,0.1196466 0.803565,0.7775137 l -0.175205,0.83741622 c -0.1056872,0.48084934 -0.4703559,0.63660089 -1.019639,0.63696557 -1.2778264,0.001598 -1.9582686,-0.97875929 -1.9579142,-2.32784139 0.00115,-1.6593514 1.0349615,-3.1651291 2.6943129,-3.1639807 0.9445527,-0.00688 1.4565824,0.3675553 1.4477624,1.3926234 z m 0,0"
           style="fill:#231f20;fill-opacity:1;fill-rule:nonzero;stroke:none" />
        <path
           id="path44"
           d="M 8.8298584,1.3275746 C 7.9275485,0.5666275 7.4218066,-0.88112458 7.4120322,-2.4232116 7.4160026,-3.9745584 7.9238266,-5.415733 8.8233793,-6.171626 l -0.148155,-0.219915 c -1.3354771,0.9096918 -1.9123142,2.3374114 -1.9182373,3.9600137 0.00558,1.62484491 0.5940787,3.07679229 1.915242,3.9552185 z m 1.9390856,-4.7558883 -0.0057,-0.7055391 C 10.33656,-3.9663093 9.8408824,-3.8122209 9.4551622,-3.73221 l -0.00586,0.2137669 c 0.5748198,0.052372 0.6048418,0.082103 0.6099808,0.6681356 l -0.0055,4.0702506 c -0.0064,0.5837896 -0.088831,0.6393477 -0.6630715,0.706483 l 0.00116,0.2390138 2.1258765,-0.00341 -0.0012,-0.2390137 C 10.8267,1.848218 10.764415,1.8002565 10.765713,1.1199643 l 0.0035,-1.18132394 c 0.106052,0.06843374 0.363875,0.1545178 0.62365,0.16934624 1.164178,-0.21478593 2.23091,-1.09329742 2.233507,-2.4538817 -0.0043,-0.8963015 -0.598919,-1.7047058 -1.58948,-1.7067983 -0.108005,0.00282 -0.284733,0.051942 -0.458929,0.1493138 z m -7.94e-4,0.3102693 c 0.240387,-0.1919212 0.611783,-0.3821793 0.899048,-0.3858703 0.655045,0.00832 1.206935,0.5457319 1.197826,1.5110465 0.0049,1.01580832 -0.504423,1.66868608 -1.255971,1.66543483 -0.298767,0.001448 -0.651139,-0.15082686 -0.838286,-0.35446497 z m 0,0"
           style="fill:#231f20;fill-opacity:1;fill-rule:nonzero;stroke:none" />
      </g>
      <path
         id="path45"
         d="M 2.3039765,-0.00441136 2.300865,-0.17216947 C 1.7583094,-0.20631135 1.7212706,-0.26129009 1.7192428,-0.67956412 L 1.7201662,-3.8075045 C 1.3967316,-3.679532 1.0387904,-3.558287 0.65531258,-3.4897783 l 5.7938e-4,0.1195069 0.28277997,0.019313 c 0.26201807,0.00333 0.28979717,0.04456 0.28676057,0.3663319 l 0.00428,2.30513698 c 0.00203,0.41827403 -0.032189,0.47129996 -0.57669749,0.50841371 l 0.003112,0.16775811 z m 0,0"
         style="fill:#231f20;fill-opacity:1;fill-rule:nonzero;stroke:none"
         aria-label="1"
         transform="matrix(1.3086932,-0.25514665,0.25514665,1.3086932,155.67733,124.328)" />
      <g
         id="g45"
         aria-label="↔&#10;p"
         transform="matrix(1.3086932,-0.25514665,0.25514665,1.3086932,158.93467,120.97733)">
        <path
           id="path46"
           d="M 7.8453796,-2.8886056 C 7.563973,-3.0986815 7.245238,-3.4234896 6.8639278,-3.8560127 l -0.3470184,0.00398 c 0.2023396,0.4931456 0.4919221,0.9674822 0.8454533,1.3587712 l -5.7548489,3.206e-4 c 0.3887569,-0.4017825 0.6577171,-0.862739 0.8621493,-1.3601549 l -0.3447759,-0.00752 C 1.7431475,-3.4335874 1.4138545,-3.0918481 1.1482204,-2.8929096 0.89184605,-2.6802265 0.61919483,-2.506535 0.33250922,-2.3833372 l -0.001373,0.1907625 c 0.29486154,0.1410628 0.5622337,0.300645 0.81615088,0.5292403 0.2699043,0.2078334 0.6001415,0.534884 0.9814518,0.96740709 l 0.3447759,0.007522 C 2.261915,-1.195296 1.9930944,-1.6536454 1.6072991,-2.0631641 l 5.7548489,-3.206e-4 c -0.3564927,0.4200122 -0.6462149,0.8649815 -0.8413874,1.37614208 l 0.3470184,-0.003981 C 7.2495187,-1.1183526 7.5673096,-1.4623344 7.8444458,-1.6590304 8.0915605,-1.8854582 8.3757139,-2.0569072 8.6393951,-2.18459 l 0.00137,-0.1907625 C 8.3689114,-2.5119303 8.090037,-2.673755 7.8453796,-2.8886056 Z m 0,0"
           style="fill:#231f20;fill-opacity:1;fill-rule:nonzero;stroke:none" />
        <path
           id="path47"
           d="m 10.529434,-3.4279202 -0.0057,-0.705539 c -0.426665,0.1675434 -0.9223428,0.3216318 -1.3080631,0.4016428 l -0.00586,0.2137668 c 0.5748196,0.052372 0.6048412,0.082103 0.6099805,0.6681356 l -0.00555,4.0702506 C 9.8078641,1.8041262 9.725396,1.8596844 9.1511557,1.9268197 l 0.00116,0.2390137 2.1258763,-0.00341 -0.0012,-0.2390137 C 10.587191,1.8486116 10.524905,1.80065 10.526204,1.1203579 l 0.0035,-1.18132401 c 0.106052,0.06843375 0.363874,0.1545178 0.62365,0.16934624 1.164178,-0.21478592 2.230909,-1.09329741 2.233506,-2.45388173 -0.0043,-0.8963014 -0.598918,-1.7047058 -1.589479,-1.7067983 -0.108005,0.00282 -0.284733,0.051942 -0.458929,0.1493138 z m -7.94e-4,0.3102693 c 0.240387,-0.1919212 0.611784,-0.3821793 0.899049,-0.3858702 0.655045,0.00832 1.206935,0.5457318 1.197825,1.5110464 0.0049,1.01580835 -0.504422,1.66868611 -1.25597,1.66543486 -0.298767,0.001448 -0.65114,-0.15082686 -0.838286,-0.35446497 z m 0,0"
           style="fill:#231f20;fill-opacity:1;fill-rule:nonzero;stroke:none" />
      </g>
      <path
         id="path48"
         d="M 2.4688714,-0.84463447 C 2.2983664,-0.45999794 2.2203833,-0.4274442 1.8871095,-0.43272326 L 0.77704119,-0.43423638 1.6092439,-1.3345935 c 0.5671481,-0.5819118 0.8021812,-0.930089 0.799574,-1.4678699 0.00159,-0.6205387 -0.4714499,-1.0112483 -0.9977286,-1.0063987 -0.3585206,0.00174 -0.63818905,0.1501829 -0.8073206,0.3440569 l -0.33768372,0.507255 0.12232874,0.1074253 c 0.15285467,-0.2328656 0.40864965,-0.5650556 0.80391928,-0.5715684 0.4412784,0.00246 0.7162472,0.3067931 0.7140797,0.8078249 0.00709,0.5147765 -0.3650981,1.015304 -0.7490803,1.4538355 -0.29478653,0.34846686 -0.63558182,0.68796371 -0.96263242,1.01820087 L 0.19079436,6.7920745e-4 2.4246757,-0.00555423 C 2.5130023,-0.27487921 2.5645798,-0.5394295 2.6369192,-0.7879926 Z m 0,0"
         style="fill:#231f20;fill-opacity:1;fill-rule:nonzero;stroke:none"
         aria-label="2"
         transform="matrix(1.3086932,-0.25514665,0.25514665,1.3086932,177.39467,120.09467)" />
      <path
         id="path49"
         d="m 0.4037637,-6.177888 c 0.8930502,0.7472024 1.4217965,2.1994395 1.4178261,3.7507862 0.00977,1.54208711 -0.4980496,2.98326168 -1.41134703,3.7484144 L 0.57214244,1.5319679 C 1.9213642,0.61301644 2.4729545,-0.80768594 2.4651329,-2.4210286 2.4732985,-4.0551332 1.9148205,-5.4773487 0.57513775,-6.3832642 Z m 0,0"
         style="fill:#231f20;fill-opacity:1;fill-rule:nonzero;stroke:none"
         aria-label=")"
         transform="matrix(1.3086932,-0.25514665,0.25514665,1.3086932,180.65333,116.74267)" />
      <g
         id="g49"
         aria-label="G&#10;(&#10;p"
         transform="matrix(0.89632232,-0.98710895,0.98710895,0.89632232,227.78667,87.082667)">
        <path
           id="path50"
           d="m 5.8811493,-4.2970594 c 0.038199,-0.6203609 0.079489,-1.1327244 0.1088091,-1.396784 -0.2687458,-0.1042106 -0.8401423,-0.2976741 -1.5787721,-0.291798 -2.2395229,-0.0084 -3.8130276,1.4837033 -3.81264927,3.5411367 0.003773,1.64279552 1.11155857,2.58386895 2.67946407,2.5847821 0.7134004,0.001204 1.3291766,-0.20969893 1.8913024,-0.34022745 -0.02433,-0.18368541 -0.012361,-0.43198934 0.034311,-0.7118046 L 5.37195,-1.650283 c 0.1068073,-0.6668299 0.1501861,-0.7062191 0.6602573,-0.7894806 l 0.052156,-0.2214787 -2.1898622,-0.00601 -0.06163,0.2459101 c 0.8836225,0.084073 0.9238096,0.1108984 0.8004487,0.7769304 l -0.1896767,0.83705203 c -0.089354,0.47686254 -0.4536349,0.63351981 -1.0093773,0.63161956 -1.2778185,0.004774 -1.952019,-0.98176779 -1.9536011,-2.32580079 -0.010853,-1.6680249 1.0400167,-3.1604314 2.6993659,-3.1634064 0.9459487,-0.00418 1.4423536,0.3681825 1.4425428,1.3968992 z m 0,0"
           style="fill:#231f20;fill-opacity:1;fill-rule:nonzero;stroke:none" />
        <path
           id="path51"
           d="M 8.8286316,1.3328405 C 7.944617,0.56847399 7.4086338,-0.87598282 7.4166268,-2.4186589 7.4167421,-3.9700107 7.9347048,-5.4217366 8.8251166,-6.166939 l -0.147285,-0.2145003 c -1.3209067,0.898668 -1.9121638,2.3219728 -1.9154707,3.939539 -0.0041,1.63411981 0.589417,3.08964616 1.916389,3.9583247 z m 1.9297394,-4.7518621 0.0012,-0.7134004 c -0.414739,0.1708171 -0.9280019,0.320293 -1.3135221,0.4012622 l -0.0017,0.2073189 c 0.5691041,0.068913 0.6014131,0.087062 0.5979171,0.6759115 l 0.0031,4.065206 c -0.0035,0.5888495 -0.072902,0.6518721 -0.6475912,0.6988348 l -0.00329,0.240426 2.1236482,0.00281 0.0033,-0.2404261 C 10.827823,1.8523045 10.755327,1.8073298 10.754935,1.1270366 l -8.86e-4,-1.18637482 c 0.129237,0.07259782 0.374349,0.15078114 0.630531,0.17142584 1.172316,-0.22555606 2.234648,-1.09520793 2.233863,-2.45579442 0.01,-0.89549 -0.590228,-1.6959525 -1.585838,-1.6941675 -0.09932,-0.00479 -0.284603,0.05265 -0.454128,0.1274383 z m 0.0022,0.2987627 c 0.257879,-0.1866742 0.615878,-0.3851144 0.905965,-0.3794275 0.66374,-0.00119 1.210502,0.5312232 1.205207,1.5016034 9.87e-4,1.01216306 -0.511782,1.66772051 -1.25829,1.66492087 -0.315316,0.001393 -0.640005,-0.14699441 -0.854302,-0.3481328 z m 0,0"
           style="fill:#231f20;fill-opacity:1;fill-rule:nonzero;stroke:none" />
      </g>
      <path
         id="path52"
         d="m 2.4708558,-0.83471442 c -0.1760104,0.38142916 -0.2516985,0.40266887 -0.5835684,0.40326388 l -1.11148461,-0.0038 L 1.6237352,-1.3318296 C 2.16642,-1.9195768 2.4078469,-2.2812606 2.4168271,-2.8117736 2.4132433,-3.4258525 1.9255141,-3.8060916 1.402879,-3.806396 1.0544555,-3.8065989 0.7737409,-3.6625056 0.59783186,-3.4552882 l -0.33925412,0.4980008 0.11896543,0.1135829 c 0.16095129,-0.2411226 0.42521381,-0.5602256 0.83197383,-0.5655067 0.4398671,-0.00369 0.7077134,0.2912907 0.708207,0.7973722 -0.00818,0.5139594 -0.3805435,1.0103643 -0.7505111,1.4571085 -0.31551912,0.34981633 -0.64679394,0.68228117 -0.97806877,1.01474601 L 0.19063853,0.00112004 2.4222836,8.4317016e-4 C 2.5012649,-0.26082263 2.5644905,-0.53983996 2.6347959,-0.79362794 Z m 0,0"
         style="fill:#231f20;fill-opacity:1;fill-rule:nonzero;stroke:none"
         aria-label="2"
         transform="matrix(0.89632232,-0.98710895,0.98710895,0.89632232,242.27333,75.097333)" />
      <g
         id="g52"
         aria-label="↔&#10;p"
         transform="matrix(0.89632232,-0.98710895,0.98710895,0.89632232,242.87867,70.461333)">
        <path
           id="path53"
           d="m 7.8384008,-2.8908856 c -0.2726339,-0.1956543 -0.596423,-0.534807 -0.973761,-0.9677971 l -0.3484234,-2.03e-4 c 0.2078124,0.5077789 0.4929088,0.9612109 0.8552891,1.3602959 l -5.7576623,0.00453 C 1.9900927,-2.8990213 2.2694144,-3.3584309 2.467564,-3.8549373 L 2.1191406,-3.8551402 C 1.7412952,-3.4170718 1.4186962,-3.0924848 1.1521413,-2.8979328 0.88399061,-2.6702736 0.62690946,-2.500153 0.33043915,-2.3734112 l -8.9939e-4,0.1907653 c 0.2923792,0.1302379 0.55793319,0.3006629 0.82109344,0.5207487 0.2639581,0.2035322 0.5964229,0.534807 0.973761,0.96779719 l 0.3484234,2.0292e-4 C 2.2736809,-1.2095538 1.9964624,-1.65431 1.6175285,-2.054193 l 5.7576623,-0.00453 C 7.0154949,-1.6529635 6.7282953,-1.2022297 6.52147,-0.69784546 l 0.3484234,2.0292e-4 C 7.2477387,-1.1357109 7.561662,-1.4524201 7.8368927,-1.65485 8.1050434,-1.8825092 8.3708003,-2.0605076 8.6420412,-2.1801695 l 8.994e-4,-0.1907653 C 8.3757908,-2.5082526 8.101561,-2.6707998 7.8384008,-2.8908856 Z m 0,0"
           style="fill:#231f20;fill-opacity:1;fill-rule:nonzero;stroke:none" />
        <path
           id="path54"
           d="m 10.516525,-3.4192528 0.0012,-0.7134005 c -0.41474,0.1708171 -0.9280026,0.320293 -1.3135229,0.4012622 l -0.0017,0.2073189 c 0.5691042,0.068913 0.6014135,0.087062 0.5979174,0.6759116 l 0.00315,4.0652059 c -0.0035,0.5888495 -0.072902,0.6518722 -0.6475919,0.6988348 l -0.00329,0.2404261 2.1236474,0.00281 0.0033,-0.2404261 C 10.585977,1.8520733 10.513481,1.8070986 10.513089,1.1268053 l -8.86e-4,-1.18637476 c 0.129237,0.07259782 0.374349,0.15078114 0.630531,0.17142584 1.172317,-0.22555606 2.234648,-1.09520793 2.233864,-2.45579448 0.01,-0.89549 -0.590229,-1.6959524 -1.585838,-1.6941674 -0.09932,-0.00479 -0.284603,0.05265 -0.454129,0.1274383 z m 0.0022,0.2987626 c 0.257879,-0.1866742 0.615877,-0.3851144 0.905964,-0.3794274 0.66374,-0.00119 1.210502,0.5312232 1.205207,1.5016033 9.87e-4,1.01216312 -0.511782,1.66772056 -1.25829,1.66492093 -0.315316,0.001393 -0.640004,-0.14699441 -0.854302,-0.3481328 z m 0,0"
           style="fill:#231f20;fill-opacity:1;fill-rule:nonzero;stroke:none" />
      </g>
      <path
         id="path55"
         d="M 0.52602049,-2.9781884 C 0.6609445,-3.1956774 0.9054617,-3.449364 1.2373315,-3.449959 c 0.3153163,-0.00139 0.5713966,0.1934635 0.5695978,0.5749941 0.00369,0.4398672 -0.4142457,0.6768987 -0.96929159,0.8326565 l 0.0416815,0.1679298 c 0.0914437,-0.00389 0.25069769,-0.037692 0.39180219,-0.039186 0.3318699,-5.95e-4 0.7526882,0.2187943 0.7515859,0.7579831 -0.0035,0.58884948 -0.3016638,0.92291018 -0.7249773,0.92739337 -0.33974768,-0.008081 -0.58007232,-0.18558564 -0.73054907,-0.33387153 -0.0401871,-0.0268252 -0.10640147,-0.0300169 -0.14978029,0.009372 -0.0520546,0.047267 -0.13881219,0.12604533 -0.13412608,0.20093547 -0.0197453,0.0654164 0.018048,0.14190245 0.0968263,0.22866007 0.0630227,0.0694061 0.31441684,0.18937238 0.58795013,0.19426141 C 1.4079182,0.06748396 2.5496227,-0.38354046 2.5462418,-1.3460428 2.5425565,-1.7859099 2.2369169,-2.1573718 1.7111915,-2.2656736 l -0.00788,-0.00868 C 1.8831087,-2.3901273 2.021123,-2.4996191 2.1252321,-2.5941531 2.2301392,-2.7052406 2.3035349,-2.8510313 2.3036364,-3.025243 2.3086264,-3.472988 1.9430549,-3.8058587 1.4038661,-3.806961 1.0885499,-3.805571 0.82438885,-3.6606768 0.64927774,-3.470013 l -0.26745423,0.3853174 z m 0,0"
         style="fill:#231f20;fill-opacity:1;fill-rule:nonzero;stroke:none"
         aria-label="3"
         transform="matrix(0.89632232,-0.98710895,0.98710895,0.89632232,257.148,58.716)" />
      <path
         id="path56"
         d="M 0.41416053,-6.170273 C 1.299771,-5.4390138 1.8262806,-3.9701255 1.8261653,-2.4187737 1.8181723,-0.87609763 1.3341146,0.5606705 0.41767554,1.3295064 L 0.57443427,1.5195752 C 1.9126925,0.60515163 2.4700445,-0.80319544 2.4733514,-2.4207616 c 0.0041,-1.6341198 -0.5492299,-3.062821 -1.89983543,-3.9575268 z m 0,0"
         style="fill:#231f20;fill-opacity:1;fill-rule:nonzero;stroke:none"
         aria-label=")"
         transform="matrix(0.89632232,-0.98710895,0.98710895,0.89632232,257.75467,54.08)" />
      <g
         id="g56"
         aria-label="f(p&#10;1&#10;→p&#10;2&#10;→p&#10;3&#10;)"
         transform="matrix(1.3333333,0,0,1.3333333,135.38133,142.1228)">
        <path
           id="path57"
           d="m 0.71595313,-3.9036234 -0.26953125,0.2578125 0.0234375,0.09375 H 1.2198594 c -0.1523438,0.890625 -0.26953127,1.640625 -0.49218752,2.88281246 -0.29296875,1.74609374 -0.515625,2.12109374 -0.6328125,2.26171874 -0.08203125,0.1054688 -0.234375,0.1757813 -0.38671875,0.1757813 -0.15234375,0 -0.421875,-0.082031 -0.5625,-0.2226563 -0.0585938,-0.058594 -0.09375,-0.058594 -0.17578123,0 -0.1289063,0.1054688 -0.234375,0.2578125 -0.234375,0.375 -0.011719,0.2109375 0.29296873,0.3867188 0.55078123,0.3867188 0.24609375,0 0.62109375,-0.140625 1.01953125,-0.5625 C 0.79798438,1.2291891 1.1378281,0.56122031 1.4542344,-0.98565469 1.6534531,-1.9934672 1.7472031,-2.5442484 1.9112656,-3.5286234 l 0.9023438,-0.09375 0.1875,-0.28125 H 1.9815781 c 0.2695313,-1.6640625 0.5390625,-2.0742188 0.8671875,-2.0742188 0.1992188,0 0.3867188,0.1171875 0.5742188,0.3164063 0.058594,0.070312 0.1523437,0.058594 0.2226562,0.011719 0.09375,-0.070312 0.2226563,-0.234375 0.2226563,-0.375 0.011719,-0.1640625 -0.2226563,-0.3867187 -0.5390625,-0.3867187 -0.3632813,0 -0.8671875,0.2578125 -1.2890625,0.7265625 -0.3984375,0.4453125 -0.6210938,1.1015625 -0.75,1.78125 z m 0,0"
           style="fill:#231f20;fill-opacity:1;fill-rule:nonzero;stroke:none" />
        <path
           id="path58"
           d="M 4.7823594,0.87762656 C 4.1847031,0.37372031 3.8331406,-0.58721719 3.8331406,-1.6184672 c 0,-1.03125 0.3398438,-2.0039062 0.9492188,-2.4960937 l -0.1171875,-0.140625 c -0.8671875,0.5976562 -1.265625,1.5585937 -1.265625,2.625 0,1.08984371 0.3984375,2.05078121 1.265625,2.6484375 z M 7.1114609,-2.2864359 v -0.46875 c -0.2929687,0.1171875 -0.6210937,0.2109375 -0.8789062,0.2578125 v 0.140625 c 0.375,0.046875 0.3984375,0.058594 0.3984375,0.4570312 v 2.70703126 c 0,0.39843754 -0.058594,0.43359374 -0.4335938,0.46875004 V 1.4401266 H 7.6153672 V 1.2760641 C 7.1466172,1.2291891 7.1114609,1.2057516 7.1114609,0.74872031 v -0.78515625 c 0.070312,0.046875 0.234375,0.10546875 0.4101563,0.10546875 0.7734375,-0.140625 1.4882812,-0.7265625 1.4882812,-1.62890621 0,-0.5976563 -0.3867187,-1.1367188 -1.0546875,-1.1367188 -0.070312,0 -0.1875,0.035156 -0.2929687,0.09375 z m 0,0.1992187 c 0.1523438,-0.1171875 0.3984375,-0.2460937 0.5976563,-0.2460937 0.4335937,0 0.796875,0.3632812 0.796875,0.9960937 0,0.67968751 -0.328125,1.11328126 -0.8320313,1.11328126 -0.2109375,0 -0.4335937,-0.09375 -0.5625,-0.234375 z M 13.11732,1.9996969 V 1.8356344 c -0.550781,-0.035156 -0.585937,-0.09375 -0.585937,-0.515625 v -3.1289063 c -0.328125,0.1289063 -0.679688,0.2460938 -1.066406,0.3164063 v 0.1289062 l 0.28125,0.011719 c 0.269531,0.011719 0.292968,0.046875 0.292968,0.36328123 V 1.3200094 c 0,0.421875 -0.03516,0.4804687 -0.574218,0.515625 v 0.1640625 z m 0,0"
           style="fill:#231f20;fill-opacity:1;fill-rule:nonzero;stroke:none" />
        <path
           id="path59"
           d="m 20.192516,-3.8567484 c 0.175781,0.3398437 0.304687,0.5859375 0.386718,0.7382812 0.09375,0.1289063 0.246094,0.3398438 0.46875,0.6210938 h -7.007812 v 0.4453125 h 7.007812 c -0.292968,0.3164062 -0.585937,0.7734375 -0.867187,1.35937496 h 0.351562 c 0.375,-0.42187496 0.703125,-0.73828126 0.972657,-0.96093746 0.269531,-0.2226563 0.550781,-0.3984375 0.84375,-0.5390625 v -0.1992188 c -0.257813,-0.1054687 -0.527344,-0.2695312 -0.808594,-0.4921875 -0.292969,-0.2226562 -0.621094,-0.5507812 -1.019531,-0.9726562 z m 0,0"
           style="fill:#231f20;fill-opacity:1;fill-rule:nonzero;stroke:none" />
        <path
           id="path60"
           d="m 23.708141,-2.2864359 v -0.46875 c -0.292969,0.1171875 -0.621094,0.2109375 -0.878907,0.2578125 v 0.140625 c 0.375,0.046875 0.398438,0.058594 0.398438,0.4570312 v 2.70703126 c 0,0.39843754 -0.05859,0.43359374 -0.433594,0.46875004 v 0.1640625 h 1.417969 V 1.2760641 c -0.46875,-0.046875 -0.503906,-0.070312 -0.503906,-0.52734379 v -0.78515625 c 0.07031,0.046875 0.234375,0.10546875 0.410156,0.10546875 0.773437,-0.140625 1.488281,-0.7265625 1.488281,-1.62890621 0,-0.5976563 -0.386719,-1.1367188 -1.054687,-1.1367188 -0.07031,0 -0.1875,0.035156 -0.292969,0.09375 z m 0,0.1992187 c 0.152343,-0.1171875 0.398437,-0.2460937 0.597656,-0.2460937 0.433594,0 0.796875,0.3632812 0.796875,0.9960937 0,0.67968751 -0.328125,1.11328126 -0.832031,1.11328126 -0.210938,0 -0.433594,-0.09375 -0.5625,-0.234375 z m 6.166992,3.2431641 C 29.699352,1.5426656 29.61732,1.5661031 29.289195,1.5661031 h -1.113281 l 0.84375,-0.90234372 c 0.550781,-0.5859375 0.796875,-0.9375 0.796875,-1.46484375 0,-0.62109373 -0.480469,-1.00781253 -1.007812,-1.00781253 -0.351563,0 -0.632813,0.1523438 -0.808594,0.3515625 l -0.339844,0.49218753 0.128906,0.1171875 c 0.152344,-0.23437503 0.410157,-0.56250003 0.808594,-0.56250003 0.445313,0 0.714844,0.2929688 0.714844,0.79687503 0,0.515625 -0.375,1.0078125 -0.75,1.453125 C 28.257945,1.1911031 27.92982,1.5309469 27.589977,1.8590719 v 0.140625 h 2.238281 c 0.08203,-0.2695313 0.140625,-0.5390625 0.210937,-0.7851563 z m 0,0"
           style="fill:#231f20;fill-opacity:1;fill-rule:nonzero;stroke:none" />
        <path
           id="path61"
           d="m 36.789195,-3.8567484 c 0.175782,0.3398437 0.304688,0.5859375 0.386719,0.7382812 0.09375,0.1289063 0.246094,0.3398438 0.46875,0.6210938 h -7.007812 v 0.4453125 h 7.007812 c -0.292969,0.3164062 -0.585937,0.7734375 -0.867187,1.35937496 h 0.351562 c 0.375,-0.42187496 0.703125,-0.73828126 0.972656,-0.96093746 0.269532,-0.2226563 0.550782,-0.3984375 0.84375,-0.5390625 V -2.3919047 C 38.687633,-2.4973734 38.418102,-2.6614359 38.136852,-2.8840922 37.843883,-3.1067484 37.515758,-3.4348734 37.11732,-3.8567484 Z m 0,0"
           style="fill:#231f20;fill-opacity:1;fill-rule:nonzero;stroke:none" />
        <path
           id="path62"
           d="m 40.808727,-3.4231547 v -0.7148437 c -0.421875,0.1757812 -0.925782,0.328125 -1.3125,0.3984375 v 0.2109375 c 0.5625,0.070312 0.597656,0.09375 0.597656,0.6796875 v 4.0664062 c 0,0.5859375 -0.08203,0.6445313 -0.65625,0.703125 v 0.234375 h 2.132812 V 1.9205953 C 40.86732,1.8502828 40.808727,1.8034078 40.808727,1.1237203 v -1.18359374 c 0.117187,0.0703125 0.363281,0.15234375 0.621093,0.1640625 1.171875,-0.2109375 2.238282,-1.08984375 2.238282,-2.44921876 0,-0.890625 -0.597657,-1.6992187 -1.59375,-1.6992187 -0.105469,0 -0.28125,0.046875 -0.445313,0.140625 z m 0,0.3046875 c 0.246093,-0.1875 0.609375,-0.3867187 0.902343,-0.3867187 0.65625,0 1.207032,0.5390625 1.207032,1.5117187 0,1.00781251 -0.515625,1.66406251 -1.265625,1.66406251 -0.304688,0 -0.644532,-0.15234375 -0.84375,-0.3515625 z m 3.952148,0.6533203 c 0.222656,-0.328125 0.585938,-0.7148437 1.078125,-0.7148437 0.480469,0 0.855469,0.2929687 0.855469,0.8554687 0,0.65625 -0.609375,1.0078125 -1.429688,1.2773438 l 0.05859,0.25781248 c 0.140625,-0.046875 0.363281,-0.10546875 0.574219,-0.10546875 0.515625,0 1.148437,0.33984375 1.148437,1.171875 0,0.89062497 -0.457031,1.35937497 -1.089843,1.35937497 -0.515625,0 -0.890625,-0.2460937 -1.125,-0.4570312 -0.07031,-0.058594 -0.140625,-0.046875 -0.210938,0 -0.08203,0.058594 -0.199219,0.1757812 -0.210937,0.2929687 -0.01172,0.1171875 0.02344,0.2109375 0.152343,0.328125 0.117188,0.1054688 0.480469,0.3046875 0.890625,0.3046875 0.65625,0 2.367188,-0.6679687 2.367188,-2.12109372 0,-0.65625 -0.46875,-1.21874998 -1.253906,-1.37109378 v -0.011719 c 0.257812,-0.1875 0.480468,-0.3398438 0.609375,-0.4921875 0.175781,-0.1640625 0.28125,-0.375 0.28125,-0.6328125 0,-0.6914063 -0.527344,-1.1953125 -1.347657,-1.1953125 -0.46875,0 -0.890625,0.234375 -1.136718,0.5039062 l -0.398438,0.5742188 z m 2.52832,-3.711914 c 0.890625,0.7382812 1.417969,2.203125 1.417969,3.75 0,1.54687496 -0.503906,2.98828121 -1.417969,3.75 l 0.164063,0.1992187 c 1.347656,-0.91406249 1.898437,-2.33203124 1.898437,-3.9492187 0,-1.6289063 -0.550781,-3.0585938 -1.898437,-3.9609375 z m 0,0"
           style="fill:#231f20;fill-opacity:1;fill-rule:nonzero;stroke:none" />
      </g>
      <path
         id="path63"
         d="m 1408.67,986.926 c 43.33,61.024 69.29,30.194 143.88,109.874"
         style="fill:none;stroke:#231f20;stroke-width:3.5;stroke-linecap:butt;stroke-linejoin:miter;stroke-miterlimit:10;stroke-dasharray:none;stroke-opacity:1"
         transform="matrix(0.13333333,0,0,-0.13333333,0,264.57333)" />
    </g>
  </g>
</svg>
