<?xml version="1.0" encoding="UTF-8" standalone="no"?>
<!-- Created with Inkscape (http://www.inkscape.org/) -->

<svg
   version="1.1"
   id="svg1"
   width="252.38667"
   height="82.279999"
   viewBox="0 0 252.38667 82.279999"
   sodipodi:docname="pha13f01.eps"
   xmlns:inkscape="http://www.inkscape.org/namespaces/inkscape"
   xmlns:sodipodi="http://sodipodi.sourceforge.net/DTD/sodipodi-0.dtd"
   xmlns="http://www.w3.org/2000/svg"
   xmlns:svg="http://www.w3.org/2000/svg">
  <defs
     id="defs1" />
  <sodipodi:namedview
     id="namedview1"
     pagecolor="#ffffff"
     bordercolor="#000000"
     borderopacity="0.25"
     inkscape:showpageshadow="2"
     inkscape:pageopacity="0.0"
     inkscape:pagecheckerboard="0"
     inkscape:deskcolor="#d1d1d1">
    <inkscape:page
       x="0"
       y="0"
       inkscape:label="1"
       id="page1"
       width="252.38667"
       height="82.279999"
       margin="0"
       bleed="0" />
  </sodipodi:namedview>
  <g
     id="g1"
     inkscape:groupmode="layer"
     inkscape:label="1">
    <g
       id="group-R5">
      <g
         id="g2"
         aria-label="L&#10;i&#10;(p, ω)&#10;t(p, ω)&#10;L&#10;o&#10;(p′, ω)&#10;p′"
         transform="matrix(1.3333333,0,0,1.3333333,8.14584,55.863333)">
        <path
           id="path2"
           d="m 4.3583934,-1.5000391 c -0.234375,0.4453125 -0.4335937,0.71484379 -0.6328125,0.91406254 -0.2226562,0.22265625 -0.5273437,0.26953125 -1.0546875,0.26953125 -0.3984375,0 -0.6796875,-0.0117188 -0.8085937,-0.1171875 -0.140625,-0.10546875 -0.1640625,-0.31640625 -0.09375,-0.64453129 l 0.703125,-3.7265625 c 0.1289062,-0.6796875 0.1640625,-0.7382812 0.8789062,-0.796875 l 0.058594,-0.234375 h -2.25 l -0.058594,0.234375 c 0.7382813,0.070312 0.7851563,0.1054688 0.6445313,0.796875 L 1.0068309,-1.0430078 C 0.86620594,-0.36332031 0.80761219,-0.29300781 0.11620594,-0.24613281 L 0.05761219,-3.90625e-5 H 4.0302684 C 4.1708934,-0.28128906 4.4990184,-1.1016016 4.6044872,-1.4062891 Z m 0,0"
           style="fill:#231f20;fill-opacity:1;fill-rule:nonzero;stroke:none" />
        <path
           id="path3"
           d="m 6.0078075,-2.8271875 c 0.2578125,0 0.4570312,-0.2109375 0.4570312,-0.4570313 0,-0.2695312 -0.1992187,-0.46875 -0.4570312,-0.46875 -0.234375,0 -0.4570313,0.1992188 -0.4570313,0.46875 0,0.2460938 0.2226563,0.4570313 0.4570313,0.4570313 z M 7.062495,2.0009375 V 1.7665625 C 6.4765575,1.7079687 6.4179637,1.6610937 6.4179637,1.0517187 V -2.05375 C 6.0195262,-1.9014063 5.5976512,-1.7842188 5.14062,-1.7021875 V -1.49125 c 0.5390625,0.09375 0.5625,0.1289062 0.5625,0.6796875 v 1.8632812 c 0,0.609375 -0.058594,0.65625 -0.6210938,0.7148438 v 0.234375 z M 9.0927684,1.3241797 c -0.890625,-0.76171876 -1.40625,-2.20312501 -1.40625,-3.75 0,-1.546875 0.515625,-3 1.40625,-3.75 L 8.9404247,-6.3867578 c -1.3242188,0.9023437 -1.9101563,2.3320312 -1.9101563,3.9492187 0,1.62890629 0.5859375,3.08203129 1.9101563,3.9609375 z m 1.9394536,-4.7460938 v -0.7148437 c -0.421875,0.1757812 -0.925782,0.328125 -1.3125004,0.3984375 v 0.2109375 c 0.5625004,0.070312 0.5976564,0.09375 0.5976564,0.6796875 v 4.0664062 c 0,0.5859375 -0.08203,0.6445313 -0.6562502,0.703125 v 0.234375 H 11.79394 V 1.9218359 C 11.090815,1.8515234 11.032222,1.8046484 11.032222,1.1249609 v -1.18359371 c 0.117187,0.0703125 0.363281,0.15234375 0.621093,0.1640625 1.171875,-0.2109375 2.238282,-1.08984375 2.238282,-2.44921879 0,-0.890625 -0.597657,-1.6992187 -1.59375,-1.6992187 -0.105469,0 -0.28125,0.046875 -0.445313,0.140625 z m 0,0.3046875 c 0.246093,-0.1875 0.609375,-0.3867187 0.902343,-0.3867187 0.65625,0 1.207032,0.5390625 1.207032,1.5117187 0,1.00781254 -0.515625,1.66406254 -1.265625,1.66406254 -0.304688,0 -0.644532,-0.15234375 -0.84375,-0.3515625 z m 3.776367,1.9570313 c -0.210938,0 -0.433594,0.140625 -0.433594,0.36328124 0,0.15234375 0.07031,0.22265625 0.117188,0.234375 0.304687,0.0703125 0.5625,0.26953125 0.5625,0.59765625 0,0.33984375 -0.257813,0.57421875 -0.691407,0.76171875 l 0.09375,0.25781246 c 0.550782,-0.16406246 1.183594,-0.55078121 1.183594,-1.24218746 0,-0.6328125 -0.503906,-0.97265624 -0.832031,-0.97265624 z m 0,0"
           style="fill:#231f20;fill-opacity:1;fill-rule:nonzero;stroke:none" />
        <path
           id="path4"
           d="m 22.419917,-3.8437891 c 0.292969,0.2578125 0.503906,0.7148438 0.503906,1.3828125 -0.01172,1.0078125 -0.398437,2.05078129 -1.136719,2.05078129 -0.304687,0 -0.515625,-0.3046875 -0.492187,-0.87890629 0.02344,-0.46875 0.234375,-1.359375 0.351562,-1.7226562 l -0.05859,-0.035156 -0.667969,0.140625 c -0.03516,0.28125 -0.09375,0.75 -0.1875,1.1367188 -0.199219,0.85546874 -0.5625,1.31249999 -0.949219,1.31249999 -0.28125,0 -0.539062,-0.33984375 -0.539062,-0.99609379 0,-1.0078125 0.46875,-1.921875 1.160156,-2.4492187 L 20.26367,-4.1016013 c -1.042969,0.5390625 -1.757813,1.5585938 -1.757813,2.765625 0,0.93750004 0.421875,1.44140629 0.9375,1.44140629 0.386719,0 0.902344,-0.3984375 1.230469,-0.890625 0.04687,0.50390625 0.328125,0.890625 0.761719,0.890625 0.375,0 0.738281,-0.22265625 1.066406,-0.515625 0.5625,-0.52734375 0.996094,-1.30078129 0.996094,-2.21484379 0,-0.9023437 -0.398438,-1.4179687 -0.691406,-1.4179687 -0.152344,0 -0.316407,0.070312 -0.375,0.1289062 z m 0,0"
           style="fill:#231f20;fill-opacity:1;fill-rule:nonzero;stroke:none" />
        <path
           id="path5"
           d="m 24.212886,-6.1758203 c 0.890625,0.7382812 1.417968,2.203125 1.417968,3.75 0,1.54687499 -0.503906,2.98828124 -1.417968,3.75 l 0.164062,0.1992187 c 1.347656,-0.91406246 1.898438,-2.33203121 1.898438,-3.9492187 0,-1.6289063 -0.550782,-3.0585938 -1.898438,-3.9609375 z m 0,0"
           style="fill:#231f20;fill-opacity:1;fill-rule:nonzero;stroke:none" />
        <path
           id="path6"
           d="m 77.459956,-21.398477 h -1.054688 l 0.316407,-1.359375 -0.08203,-0.04687 -0.679687,0.550782 -0.210938,0.855468 h -0.539062 l -0.222656,0.269532 0.02344,0.08203 h 0.667969 l -0.527344,2.472656 c -0.199219,0.925781 -0.02344,1.183594 0.1875,1.183594 0.480469,0 1.148438,-0.597656 1.453125,-0.960938 l -0.128906,-0.1875 c -0.210938,0.222657 -0.65625,0.515625 -0.808594,0.515625 -0.105469,0 -0.140625,-0.09375 -0.05859,-0.539062 l 0.539063,-2.484375 0.890625,-0.03516 z m 0,0"
           style="fill:#231f20;fill-opacity:1;fill-rule:nonzero;stroke:none" />
        <path
           id="path7"
           d="m 79.871089,-16.171914 c -0.890625,-0.761719 -1.40625,-2.203125 -1.40625,-3.75 0,-1.546875 0.515625,-3 1.40625,-3.75 l -0.152344,-0.210938 c -1.324219,0.902344 -1.910156,2.332032 -1.910156,3.949219 0,1.628906 0.585937,3.082031 1.910156,3.960938 z m 1.942383,-4.746094 v -0.714844 c -0.421875,0.175782 -0.925782,0.328125 -1.3125,0.398438 v 0.210937 c 0.5625,0.07031 0.597656,0.09375 0.597656,0.679688 v 4.066406 c 0,0.585938 -0.08203,0.644531 -0.65625,0.703125 v 0.234375 h 2.132812 v -0.234375 c -0.703125,-0.07031 -0.761718,-0.117187 -0.761718,-0.796875 v -1.183594 c 0.117187,0.07031 0.363281,0.152344 0.621093,0.164063 1.171875,-0.210938 2.238282,-1.089844 2.238282,-2.449219 0,-0.890625 -0.597657,-1.699219 -1.59375,-1.699219 -0.105469,0 -0.28125,0.04687 -0.445313,0.140625 z m 0,0.304688 c 0.246093,-0.1875 0.609375,-0.386719 0.902343,-0.386719 0.65625,0 1.207032,0.539062 1.207032,1.511719 0,1.007812 -0.515625,1.664062 -1.265625,1.664062 -0.304688,0 -0.644532,-0.152344 -0.84375,-0.351562 z m 3.773437,1.957031 c -0.210937,0 -0.433594,0.140625 -0.433594,0.363281 0,0.152344 0.07031,0.222656 0.117188,0.234375 0.304687,0.07031 0.5625,0.269531 0.5625,0.597656 0,0.339844 -0.257813,0.574219 -0.691406,0.761719 l 0.09375,0.257813 c 0.550781,-0.164063 1.183593,-0.550782 1.183593,-1.242188 0,-0.632812 -0.503906,-0.972656 -0.832031,-0.972656 z m 0,0"
           style="fill:#231f20;fill-opacity:1;fill-rule:nonzero;stroke:none" />
        <path
           id="path8"
           d="m 93.198237,-21.339883 c 0.292969,0.257813 0.503906,0.714844 0.503906,1.382813 -0.01172,1.007812 -0.398437,2.050781 -1.136718,2.050781 -0.304688,0 -0.515625,-0.304688 -0.492188,-0.878906 0.02344,-0.46875 0.234375,-1.359375 0.351563,-1.722657 l -0.05859,-0.03516 -0.667969,0.140625 c -0.03516,0.28125 -0.09375,0.75 -0.1875,1.136719 -0.199219,0.855469 -0.5625,1.3125 -0.949219,1.3125 -0.28125,0 -0.539062,-0.339844 -0.539062,-0.996094 0,-1.007812 0.46875,-1.921875 1.160156,-2.449219 l -0.140625,-0.199218 c -1.042969,0.539062 -1.757812,1.558593 -1.757812,2.765625 0,0.9375 0.421875,1.441406 0.9375,1.441406 0.386718,0 0.902343,-0.398438 1.230468,-0.890625 0.04687,0.503906 0.328125,0.890625 0.761719,0.890625 0.375,0 0.738281,-0.222656 1.066406,-0.515625 0.5625,-0.527344 0.996094,-1.300781 0.996094,-2.214844 0,-0.902344 -0.398437,-1.417969 -0.691406,-1.417969 -0.152344,0 -0.316406,0.07031 -0.375,0.128907 z m 0,0"
           style="fill:#231f20;fill-opacity:1;fill-rule:nonzero;stroke:none" />
        <path
           id="path9"
           d="m 94.991206,-23.671914 c 0.890625,0.738281 1.417969,2.203125 1.417969,3.75 0,1.546875 -0.503907,2.988281 -1.417969,3.75 l 0.164062,0.199219 c 1.347657,-0.914063 1.898438,-2.332032 1.898438,-3.949219 0,-1.628906 -0.550781,-3.058594 -1.898438,-3.960938 z m 0,0"
           style="fill:#231f20;fill-opacity:1;fill-rule:nonzero;stroke:none" />
        <path
           id="path10"
           d="m 134.18457,-1.5000391 c -0.23438,0.4453125 -0.4336,0.71484379 -0.63282,0.91406254 -0.22265,0.22265625 -0.52734,0.26953125 -1.05468,0.26953125 -0.39844,0 -0.67969,-0.0117188 -0.8086,-0.1171875 -0.14062,-0.10546875 -0.16406,-0.31640625 -0.0937,-0.64453129 l 0.70313,-3.7265625 c 0.1289,-0.6796875 0.16406,-0.7382812 0.8789,-0.796875 l 0.0586,-0.234375 h -2.25 l -0.0586,0.234375 c 0.73828,0.070312 0.78516,0.1054688 0.64453,0.796875 l -0.73828,3.7617188 c -0.14062,0.67968749 -0.19922,0.74999999 -0.89062,0.79687499 l -0.0586,0.2460937475 h 3.97266 C 133.99707,-0.28128906 134.32519,-1.1016016 134.43066,-1.4062891 Z m 0,0"
           style="fill:#231f20;fill-opacity:1;fill-rule:nonzero;stroke:none" />
        <path
           id="path11"
           d="m 136.92089,-2.0420313 c -0.82031,0 -1.98047,0.6796875 -1.98047,2.15625005 0,1.00781245 0.73829,1.99218745 1.98047,1.99218745 0.89063,0 1.94532,-0.6914062 1.94532,-2.1445312 0,-1.1132813 -0.83204,-2.0039063 -1.94532,-2.0039063 z m -0.0937,0.3046875 c 0.78516,0 1.20703,0.84375005 1.20703,1.89843755 0,1.24218745 -0.45703,1.65234375 -1.01953,1.65234375 -0.73828,0 -1.23047,-0.84375 -1.23047,-1.98046875 0,-1.01953125 0.48047,-1.57031255 1.04297,-1.57031255 z m 3.542,3.0615235 c -0.89063,-0.76171876 -1.40625,-2.20312501 -1.40625,-3.75 0,-1.546875 0.51562,-3 1.40625,-3.75 l -0.15235,-0.2109375 c -1.32422,0.9023437 -1.91015,2.3320312 -1.91015,3.9492187 0,1.62890629 0.58593,3.08203129 1.91015,3.9609375 z m 1.94238,-4.7460938 v -0.7148437 c -0.42188,0.1757812 -0.92578,0.328125 -1.3125,0.3984375 v 0.2109375 c 0.5625,0.070312 0.59765,0.09375 0.59765,0.6796875 v 4.0664062 c 0,0.5859375 -0.082,0.6445313 -0.65625,0.703125 v 0.234375 h 2.13282 v -0.234375 c -0.70313,-0.070312 -0.76172,-0.1171875 -0.76172,-0.796875 v -1.18359371 c 0.11719,0.0703125 0.36328,0.15234375 0.62109,0.1640625 1.17188,-0.2109375 2.23828,-1.08984375 2.23828,-2.44921879 0,-0.890625 -0.59765,-1.6992187 -1.59375,-1.6992187 -0.10547,0 -0.28125,0.046875 -0.44531,0.140625 z m 0,0.3046875 c 0.24609,-0.1875 0.60937,-0.3867187 0.90234,-0.3867187 0.65625,0 1.20703,0.5390625 1.20703,1.5117187 0,1.00781254 -0.51562,1.66406254 -1.26562,1.66406254 -0.30469,0 -0.64453,-0.15234375 -0.84375,-0.3515625 z m 0,0"
           style="fill:#231f20;fill-opacity:1;fill-rule:nonzero;stroke:none" />
        <path
           id="path12"
           d="m 146.29882,-3.5391016 0.60938,-1.2890625 c 0.17578,-0.3867187 0.28125,-0.6210937 0.3164,-0.7382812 0.0352,-0.082031 0.0469,-0.1523438 0.0469,-0.2226563 0,-0.09375 -0.0234,-0.1640625 -0.082,-0.2226562 -0.0703,-0.058594 -0.15235,-0.09375 -0.25781,-0.09375 -0.12891,0 -0.2461,0.035156 -0.33985,0.1171875 -0.10547,0.082031 -0.17578,0.2226562 -0.23437,0.3984375 -0.0352,0.1289062 -0.082,0.375 -0.11719,0.7617187 l -0.14063,1.2890625 z m 0,0"
           style="fill:#231f20;fill-opacity:1;fill-rule:nonzero;stroke:none" />
        <path
           id="path13"
           d="m 148.31445,-1.1601953 c -0.21094,0 -0.4336,0.140625 -0.4336,0.36328124 0,0.15234375 0.0703,0.22265625 0.11719,0.234375 0.30469,0.0703125 0.5625,0.26953125 0.5625,0.59765625 0,0.33984375 -0.25781,0.57421875 -0.6914,0.76171875 l 0.0937,0.25781246 c 0.55078,-0.16406246 1.18359,-0.55078121 1.18359,-1.24218746 0,-0.6328125 -0.50391,-0.97265624 -0.83203,-0.97265624 z m 0,0"
           style="fill:#231f20;fill-opacity:1;fill-rule:nonzero;stroke:none" />
        <path
           id="path14"
           d="m 155.92578,-3.8437891 c 0.29297,0.2578125 0.5039,0.7148438 0.5039,1.3828125 -0.0117,1.0078125 -0.39843,2.05078129 -1.13672,2.05078129 -0.30468,0 -0.51562,-0.3046875 -0.49218,-0.87890629 0.0234,-0.46875 0.23437,-1.359375 0.35156,-1.7226562 l -0.0586,-0.035156 -0.66797,0.140625 c -0.0352,0.28125 -0.0937,0.75 -0.1875,1.1367188 -0.19922,0.85546874 -0.5625,1.31249999 -0.94922,1.31249999 -0.28125,0 -0.53906,-0.33984375 -0.53906,-0.99609379 0,-1.0078125 0.46875,-1.921875 1.16015,-2.4492187 l -0.14062,-0.1992188 c -1.04297,0.5390625 -1.75782,1.5585938 -1.75782,2.765625 0,0.93750004 0.42188,1.44140629 0.9375,1.44140629 0.38672,0 0.90235,-0.3984375 1.23047,-0.890625 0.0469,0.50390625 0.32813,0.890625 0.76172,0.890625 0.375,0 0.73828,-0.22265625 1.06641,-0.515625 0.5625,-0.52734375 0.99609,-1.30078129 0.99609,-2.21484379 0,-0.9023437 -0.39844,-1.4179687 -0.6914,-1.4179687 -0.15235,0 -0.31641,0.070312 -0.375,0.1289062 z m 0,0"
           style="fill:#231f20;fill-opacity:1;fill-rule:nonzero;stroke:none" />
        <path
           id="path15"
           d="m 157.71875,-6.1758203 c 0.89062,0.7382812 1.41796,2.203125 1.41796,3.75 0,1.54687499 -0.5039,2.98828124 -1.41796,3.75 l 0.16406,0.1992187 c 1.34765,-0.91406246 1.89844,-2.33203121 1.89844,-3.9492187 0,-1.6289063 -0.55079,-3.0585938 -1.89844,-3.9609375 z m 20.2998,-6.9462887 v -0.714844 c -0.42188,0.175781 -0.92578,0.328125 -1.3125,0.398437 v 0.210938 c 0.5625,0.07031 0.59766,0.09375 0.59766,0.679687 v 4.0664066 c 0,0.5859375 -0.082,0.6445313 -0.65625,0.703125 v 0.234375 h 2.13281 v -0.234375 c -0.70313,-0.070312 -0.76172,-0.1171875 -0.76172,-0.796875 v -1.1835937 c 0.11719,0.070312 0.36328,0.1523437 0.62109,0.1640625 1.17188,-0.2109375 2.23828,-1.0898434 2.23828,-2.4492184 0,-0.890625 -0.59765,-1.699219 -1.59375,-1.699219 -0.10546,0 -0.28125,0.04687 -0.44531,0.140625 z m 0,0.304687 c 0.24609,-0.1875 0.60937,-0.386719 0.90234,-0.386719 0.65625,0 1.20703,0.539063 1.20703,1.511719 0,1.007813 -0.51562,1.664063 -1.26562,1.664063 -0.30469,0 -0.64453,-0.152344 -0.84375,-0.351563 z m 0,0"
           style="fill:#231f20;fill-opacity:1;fill-rule:nonzero;stroke:none" />
        <path
           id="path16"
           d="m 182.00878,-13.239297 0.60938,-1.289062 c 0.17578,-0.386719 0.28125,-0.621094 0.31641,-0.738282 0.0351,-0.08203 0.0469,-0.152343 0.0469,-0.222656 0,-0.09375 -0.0234,-0.164062 -0.082,-0.222656 -0.0703,-0.05859 -0.15234,-0.09375 -0.25781,-0.09375 -0.12891,0 -0.2461,0.03516 -0.33985,0.117187 -0.10547,0.08203 -0.17578,0.222657 -0.23437,0.398438 -0.0352,0.128906 -0.082,0.375 -0.11719,0.761719 l -0.14062,1.289062 z m 0,0"
           style="fill:#231f20;fill-opacity:1;fill-rule:nonzero;stroke:none" />
      </g>
      <path
         id="path17"
         d="m 1781.56,330.332 -2.03,-148.437 -21.27,39.687 -25.51,-24.098 v 53.864 l -48.2,-14.168 25.53,48.191 -77.97,-11.34 35.43,31.184 v 46.777 l -24.08,28.352 46.77,52.449 36.86,-11.34 8.5,39.688 21.27,-53.868 24.1,51.036 0.6,-127.977"
         style="fill:#d3d2d2;fill-opacity:1;fill-rule:nonzero;stroke:none"
         transform="matrix(0.13333333,0,0,-0.13333333,0,82.28)" />
      <path
         id="path18"
         d="m 40,315.141 c 0,-11.043 -8.9492,-20 -19.9961,-20 -11.04687,0 -20.0039,8.957 -20.0039,20 0,11.05 8.95703,20 20.0039,20 11.0469,0 19.9961,-8.95 19.9961,-20"
         style="fill:#231f20;fill-opacity:1;fill-rule:nonzero;stroke:none"
         transform="matrix(0.13333333,0,0,-0.13333333,0,82.28)" />
      <path
         id="path19"
         d="M 1780.16,0 V 617.078"
         style="fill:none;stroke:#231f20;stroke-width:10;stroke-linecap:butt;stroke-linejoin:miter;stroke-miterlimit:10;stroke-dasharray:none;stroke-opacity:1"
         transform="matrix(0.13333333,0,0,-0.13333333,0,82.28)" />
      <path
         id="path20"
         d="m 1800.12,315.141 c 0,-11.043 -8.95,-20 -20,-20 -11.06,0 -20,8.957 -20,20 0,11.05 8.94,20 20,20 11.05,0 20,-8.95 20,-20"
         style="fill:#231f20;fill-opacity:1;fill-rule:nonzero;stroke:none"
         transform="matrix(0.13333333,0,0,-0.13333333,0,82.28)" />
      <path
         id="path21"
         d="m 1414.5,315.141 h 365.62"
         style="fill:none;stroke:#231f20;stroke-width:7.5;stroke-linecap:butt;stroke-linejoin:miter;stroke-miterlimit:10;stroke-dasharray:none;stroke-opacity:1"
         transform="matrix(0.13333333,0,0,-0.13333333,0,82.28)" />
      <path
         id="path22"
         d="m 1425.27,315.141 13.15,21.617 -0.74,0.492 -35.25,-14.004 c -12.28,-2.699 -24.56,-5.398 -36.84,-8.105 12.28,-2.7 24.56,-5.399 36.84,-8.106 l 35.25,-14.004 0.74,0.371 -13.15,21.739"
         style="fill:#231f20;fill-opacity:1;fill-rule:nonzero;stroke:none"
         transform="matrix(0.13333333,0,0,-0.13333333,0,82.28)" />
      <path
         id="path23"
         d="m 477.668,315.141 h 15"
         style="fill:none;stroke:#231f20;stroke-width:5;stroke-linecap:butt;stroke-linejoin:miter;stroke-miterlimit:10;stroke-dasharray:none;stroke-opacity:1"
         transform="matrix(0.13333333,0,0,-0.13333333,0,82.28)" />
      <path
         id="path24"
         d="M 512.387,315.141 H 1340.72"
         style="fill:none;stroke:#231f20;stroke-width:5;stroke-linecap:butt;stroke-linejoin:miter;stroke-miterlimit:10;stroke-dasharray:29.5834, 19.7223;stroke-dashoffset:0;stroke-opacity:1"
         transform="matrix(0.13333333,0,0,-0.13333333,0,82.28)" />
      <path
         id="path25"
         d="m 1350.59,315.141 h 15"
         style="fill:none;stroke:#231f20;stroke-width:5;stroke-linecap:butt;stroke-linejoin:miter;stroke-miterlimit:10;stroke-dasharray:none;stroke-opacity:1"
         transform="matrix(0.13333333,0,0,-0.13333333,0,82.28)" />
      <path
         id="path26"
         d="M 20.0039,315.141 H 428.75"
         style="fill:none;stroke:#231f20;stroke-width:7.5;stroke-linecap:butt;stroke-linejoin:miter;stroke-miterlimit:10;stroke-dasharray:none;stroke-opacity:1"
         transform="matrix(0.13333333,0,0,-0.13333333,0,82.28)" />
      <path
         id="path27"
         d="m 417.984,315.141 -13.148,21.617 0.734,0.492 35.25,-14.004 c 12.285,-2.699 24.567,-5.398 36.848,-8.105 -12.281,-2.7 -24.563,-5.399 -36.848,-8.106 l -35.25,-14.004 -0.734,0.371 13.148,21.739"
         style="fill:#231f20;fill-opacity:1;fill-rule:nonzero;stroke:none"
         transform="matrix(0.13333333,0,0,-0.13333333,0,82.28)" />
    </g>
  </g>
</svg>
