<?xml version="1.0" encoding="UTF-8" standalone="no"?>
<!-- Created with Inkscape (http://www.inkscape.org/) -->

<svg
   version="1.1"
   id="svg1"
   width="315.57333"
   height="264.57333"
   viewBox="0 0 315.57333 264.57333"
   sodipodi:docname="pha13f05.eps"
   xmlns:inkscape="http://www.inkscape.org/namespaces/inkscape"
   xmlns:sodipodi="http://sodipodi.sourceforge.net/DTD/sodipodi-0.dtd"
   xmlns="http://www.w3.org/2000/svg"
   xmlns:svg="http://www.w3.org/2000/svg">
  <defs
     id="defs1" />
  <sodipodi:namedview
     id="namedview1"
     pagecolor="#ffffff"
     bordercolor="#000000"
     borderopacity="0.25"
     inkscape:showpageshadow="2"
     inkscape:pageopacity="0.0"
     inkscape:pagecheckerboard="0"
     inkscape:deskcolor="#d1d1d1">
    <inkscape:page
       x="0"
       y="0"
       inkscape:label="1"
       id="page1"
       width="315.57333"
       height="264.57333"
       margin="0"
       bleed="0" />
  </sodipodi:namedview>
  <g
     id="g1"
     inkscape:groupmode="layer"
     inkscape:label="1">
    <g
       id="group-R5">
      <path
         id="path2"
         d="m 1.0199594,-2.2865469 v -0.46875 c -0.29296878,0.1171875 -0.62109378,0.2109375 -0.87890628,0.2578125 v 0.140625 c 0.375,0.046875 0.3984375,0.058594 0.3984375,0.4570313 v 2.70703122 c 0,0.39843748 -0.0585938,0.43359378 -0.43359375,0.46874998 V 1.4400156 H 1.5238656 V 1.2759531 C 1.0551156,1.2290781 1.0199594,1.2056406 1.0199594,0.74860937 v -0.78515625 c 0.070312,0.046875 0.234375,0.10546875 0.4101562,0.10546875 0.7734375,-0.140625 1.4882813,-0.7265625 1.4882813,-1.62890627 0,-0.5976562 -0.3867188,-1.1367187 -1.0546875,-1.1367187 -0.070312,0 -0.1875,0.035156 -0.2929688,0.09375 z m 0,0.1992188 c 0.1523437,-0.1171875 0.3984375,-0.2460938 0.5976562,-0.2460938 0.4335938,0 0.796875,0.3632813 0.796875,0.9960938 0,0.67968747 -0.328125,1.11328122 -0.8320312,1.11328122 -0.2109375,0 -0.4335938,-0.09375 -0.5625,-0.234375 z m 5.1357422,0.2783203 c -0.9023438,0 -1.2304688,1.06640624 -1.2304688,1.94531249 0,0.94921871 0.328125,1.93359371 1.2304688,1.93359371 0.9023437,0 1.21875,-1.0664062 1.21875,-1.94531246 0,-0.92578125 -0.3164063,-1.93359374 -1.21875,-1.93359374 z m -0.011719,0.1992187 c 0.5390625,0 0.6914063,0.89062504 0.6914063,1.73437504 0,0.84375 -0.140625,1.74609376 -0.6796875,1.74609376 -0.5273438,0 -0.703125,-0.91406251 -0.703125,-1.74609376 0,-0.83203125 0.1523437,-1.73437504 0.6914062,-1.73437504 z M 35.018983,54.490797 v -0.46875 c -0.292969,0.117187 -0.621094,0.210937 -0.878906,0.257812 v 0.140625 c 0.375,0.04687 0.398437,0.05859 0.398437,0.457032 v 2.707031 c 0,0.398437 -0.05859,0.433594 -0.433594,0.46875 v 0.164062 h 1.417969 v -0.164062 c -0.46875,-0.04687 -0.503906,-0.07031 -0.503906,-0.527344 v -0.785156 c 0.07031,0.04687 0.234375,0.105469 0.410156,0.105469 0.773438,-0.140625 1.488281,-0.726563 1.488281,-1.628907 0,-0.597656 -0.386718,-1.136718 -1.054687,-1.136718 -0.07031,0 -0.1875,0.03516 -0.292969,0.09375 z m 0,0.199219 c 0.152344,-0.117188 0.398437,-0.246094 0.597656,-0.246094 0.433594,0 0.796875,0.363281 0.796875,0.996094 0,0.679687 -0.328125,1.113281 -0.832031,1.113281 -0.210938,0 -0.433594,-0.09375 -0.5625,-0.234375 z m 6.005859,4.086914 v -0.164063 c -0.550781,-0.03516 -0.585937,-0.09375 -0.585937,-0.515625 v -3.128906 c -0.328125,0.128906 -0.679688,0.246094 -1.066407,0.316406 v 0.128906 l 0.28125,0.01172 c 0.269532,0.01172 0.292969,0.04687 0.292969,0.363281 v 2.308594 c 0,0.421875 -0.03516,0.480469 -0.574219,0.515625 v 0.164063 z m 0,0"
         style="fill:#231f20;fill-opacity:1;fill-rule:nonzero;stroke:none"
         aria-label="p&#10;0&#10;p&#10;1"
         transform="matrix(1.3333333,0,0,1.3333333,43.647867,49.634667)" />
      <path
         id="path3"
         d="m 236.57,1782 c -7.215,-75.93 -49.937,-119.14 -118.418,-120.09 -19.4293,91.38 -59.7848,156.68 -91.0934,203.72 1.9844,-1.13 3.8477,-2.38 5.9609,-3.59 C 88.8984,1828.15 146.492,1793.1 236.57,1782"
         style="fill:#cecdcd;fill-opacity:1;fill-rule:nonzero;stroke:none"
         transform="matrix(0.13333333,0,0,-0.13333333,0,264.57333)" />
      <path
         id="path4"
         d="m 249.473,1780.65 c -7.825,-81.19 -55.403,-129.74 -128.782,-131.77 2.114,-11.45 4.036,-23.21 5.414,-35.44 l -12.875,-1.4 C 98.9258,1735.57 43.8672,1817.25 7.46875,1871.31 L 0,1882.62 c 0,0 3.13672,1.21 5.30078,3.54 2.1875,2.3 3.39844,5.65 3.39844,5.65 10.46878,-6.22 20.80468,-12.33 31.02738,-18.6 66.2304,-40.22 128.6914,-78.33 242.6284,-81.66 l -0.363,-12.93 c -11.308,0.29 -22.082,1.05 -32.519,2.03 z M 118.152,1661.91 c 68.481,0.95 111.203,44.16 118.418,120.09 -90.078,11.1 -147.6716,46.15 -203.5505,80.04 -2.1132,1.21 -3.9765,2.46 -5.9609,3.59 31.3086,-47.04 71.6641,-112.34 91.0934,-203.72"
         style="fill:#231f20;fill-opacity:1;fill-rule:nonzero;stroke:none"
         transform="matrix(0.13333333,0,0,-0.13333333,0,264.57333)" />
      <path
         id="path5"
         d="m 196.184,1700.27 c -20.371,-19.82 -47.075,-25.36 -59.629,-12.45 -12.571,13 -6.203,39.5 14.16,59.25 20.39,19.81 47.098,25.34 59.656,12.41 12.567,-12.93 6.223,-39.47 -14.187,-59.21"
         style="fill:#ffffff;fill-opacity:1;fill-rule:nonzero;stroke:none"
         transform="matrix(0.13333333,0,0,-0.13333333,0,264.57333)" />
      <path
         id="path6"
         d="m 188.391,1700.04 c -9.094,-8.04 -22.051,-8.25 -28.95,-0.44 -6.914,7.79 -5.156,20.61 3.938,28.67 9.094,8.04 22.043,8.27 28.957,0.45 6.894,-7.79 5.125,-20.61 -3.945,-28.68"
         style="fill:#231f20;fill-opacity:1;fill-rule:nonzero;stroke:none"
         transform="matrix(0.13333333,0,0,-0.13333333,0,264.57333)" />
      <path
         id="path7"
         d="m 2141.59,1009.02 c 10.35,-8.68 208.45,-170.481 208.45,-170.481 v -39.008 h -70.66 V 5.39063 h -48.6 L 2180.75,689.719 h -60.62 l -10.61,-429.547 h -42.44 L 2023.88,689.48 597.727,674.832 555.586,245.711 H 510.078 L 494.91,675.281 H 460.059 L 403.918,2.64063 353.145,2.5 343.352,783.641 c 0,0 -52.563,13.961 -54.582,17.328 -3.196,5.32 -2.989,28.371 0,33.23 4.316,6.992 159.304,145.36 171.289,160.375 25.761,0 1671.181,23.126 1681.531,14.446"
         style="fill:#e5e4e4;fill-opacity:1;fill-rule:nonzero;stroke:none"
         transform="matrix(0.13333333,0,0,-0.13333333,0,264.57333)" />
      <path
         id="path8"
         d="m 2141.59,1009.02 c 10.35,-8.68 208.45,-170.481 208.45,-170.481 v -39.008 h -70.66 V 5.39063 h -48.6 L 2180.75,689.719 h -60.62 l -10.61,-429.547 h -42.44 L 2023.88,689.48 597.727,674.832 555.586,245.711 H 510.078 L 494.91,675.281 H 460.059 L 403.918,2.64063 353.145,2.5 343.352,783.641 c 0,0 -52.563,13.961 -54.582,17.328 -3.196,5.32 -2.989,28.371 0,33.23 4.316,6.992 159.304,145.36 171.289,160.375 25.761,0 1671.181,23.126 1681.531,14.446 z"
         style="fill:none;stroke:#231f20;stroke-width:5;stroke-linecap:butt;stroke-linejoin:miter;stroke-miterlimit:10;stroke-dasharray:none;stroke-opacity:1"
         transform="matrix(0.13333333,0,0,-0.13333333,0,264.57333)" />
      <path
         id="path9"
         d="m 2120.13,689.719 h -97.01 L 597.488,675.281 H 494.91"
         style="fill:#e5e4e4;fill-opacity:1;fill-rule:nonzero;stroke:#231f20;stroke-width:5;stroke-linecap:butt;stroke-linejoin:miter;stroke-miterlimit:10;stroke-dasharray:none;stroke-opacity:1"
         transform="matrix(0.13333333,0,0,-0.13333333,0,264.57333)" />
      <path
         id="path10"
         d="m 343.352,783.641 1837.398,15.89 h 98.63"
         style="fill:#e5e4e4;fill-opacity:1;fill-rule:nonzero;stroke:#231f20;stroke-width:5;stroke-linecap:butt;stroke-linejoin:miter;stroke-miterlimit:10;stroke-dasharray:none;stroke-opacity:1"
         transform="matrix(0.13333333,0,0,-0.13333333,0,264.57333)" />
      <path
         id="path11"
         d="M 282.449,1612.04 664.309,943.949"
         style="fill:none;stroke:#231f20;stroke-width:7.5;stroke-linecap:butt;stroke-linejoin:miter;stroke-miterlimit:10;stroke-dasharray:none;stroke-opacity:1"
         transform="matrix(0.13333333,0,0,-0.13333333,0,264.57333)" />
      <path
         id="path12"
         d="M 1552.55,1096.79 664.309,943.949"
         style="fill:none;stroke:#231f20;stroke-width:7.5;stroke-linecap:butt;stroke-linejoin:miter;stroke-miterlimit:10;stroke-dasharray:none;stroke-opacity:1"
         transform="matrix(0.13333333,0,0,-0.13333333,0,264.57333)" />
      <path
         id="path13"
         d="m 1552.55,1096.79 557.5,595.6"
         style="fill:none;stroke:#231f20;stroke-width:7.5;stroke-linecap:butt;stroke-linejoin:miter;stroke-miterlimit:10;stroke-dasharray:none;stroke-opacity:1"
         transform="matrix(0.13333333,0,0,-0.13333333,0,264.57333)" />
      <path
         id="path14"
         d="m 255.195,1615.65 c 0,-12.44 10.071,-22.51 22.508,-22.51 12.426,0 22.492,10.07 22.492,22.51 0,12.41 -10.066,22.49 -22.492,22.49 -12.437,0 -22.508,-10.08 -22.508,-22.49"
         style="fill:#231f20;fill-opacity:1;fill-rule:nonzero;stroke:none"
         transform="matrix(0.13333333,0,0,-0.13333333,0,264.57333)" />
      <path
         id="path15"
         d="m 1596.2,964.871 c 0,0 1.48,-43.48 9.58,-55.281 8.12,-11.789 59.2,-56 177,-53.801 117.8,2.211 156.16,29.402 168.28,34.641 40.9,17.691 50.11,65.172 50.11,65.172 l -404.97,9.269"
         style="fill:#d3d2d2;fill-opacity:1;fill-rule:nonzero;stroke:none"
         transform="matrix(0.13333333,0,0,-0.13333333,0,264.57333)" />
      <path
         id="path16"
         d="m 1596.2,964.871 c 0,0 1.48,-43.48 9.58,-55.281 8.12,-11.789 59.2,-56 177,-53.801 117.8,2.211 156.16,29.402 168.28,34.641 40.9,17.691 50.11,65.172 50.11,65.172 z"
         style="fill:none;stroke:#231f20;stroke-width:6.94497;stroke-linecap:butt;stroke-linejoin:miter;stroke-miterlimit:10;stroke-dasharray:none;stroke-opacity:1"
         transform="matrix(0.13333333,0,0,-0.13333333,0,264.57333)" />
      <path
         id="path17"
         d="m 1954.31,1066.96 c 33.72,-13.83 104.46,-28.86 104.28,-80.522 -0.19,-53.348 -112.76,-100.047 -205.63,-106.676 -86.56,-6.192 -190.68,-11.614 -284.65,40.347 -39.8,23.211 -59.15,67.434 -38.14,93.411 9.96,16.58 57.28,53.55 114.59,61.33 57.32,7.76 309.55,-7.89 309.55,-7.89"
         style="fill:#d3d2d2;fill-opacity:1;fill-rule:nonzero;stroke:none"
         transform="matrix(0.13333333,0,0,-0.13333333,0,264.57333)" />
      <path
         id="path18"
         d="m 1954.31,1066.96 c 33.72,-13.83 104.46,-28.86 104.28,-80.522 -0.19,-53.348 -112.76,-100.047 -205.63,-106.676 -86.56,-6.192 -190.68,-11.614 -284.65,40.347 -39.8,23.211 -59.15,67.434 -38.14,93.411 9.96,16.58 57.28,53.55 114.59,61.33 57.32,7.76 309.55,-7.89 309.55,-7.89 z"
         style="fill:none;stroke:#231f20;stroke-width:6.94497;stroke-linecap:butt;stroke-linejoin:miter;stroke-miterlimit:10;stroke-dasharray:none;stroke-opacity:1"
         transform="matrix(0.13333333,0,0,-0.13333333,0,264.57333)" />
      <path
         id="path19"
         d="m 1616.79,1056.88 c -40.2,-17.93 -95.92,-45.27 -69.61,-83.958 30.53,-44.891 95.19,-74.383 238.9,-72.16 143.71,2.207 207.29,23.929 246.53,69.168 39.25,45.25 -37.58,76.28 -53.62,81.44 -16.03,5.18 -43.11,12.44 -43.11,12.44 l -290.75,9.4 -28.34,-16.33"
         style="fill:#d3d2d2;fill-opacity:1;fill-rule:nonzero;stroke:none"
         transform="matrix(0.13333333,0,0,-0.13333333,0,264.57333)" />
      <path
         id="path20"
         d="m 1616.79,1056.88 c -40.2,-17.93 -95.92,-45.27 -69.61,-83.958 30.53,-44.891 95.19,-74.383 238.9,-72.16 143.71,2.207 207.29,23.929 246.53,69.168 39.25,45.25 -37.58,76.28 -53.62,81.44 -16.03,5.18 -43.11,12.44 -43.11,12.44 l -290.75,9.4 z"
         style="fill:none;stroke:#231f20;stroke-width:6.94497;stroke-linecap:butt;stroke-linejoin:miter;stroke-miterlimit:10;stroke-dasharray:none;stroke-opacity:1"
         transform="matrix(0.13333333,0,0,-0.13333333,0,264.57333)" />
      <path
         id="path21"
         d="m 1557.41,1049.82 c 2.51,-11.57 5.99,-23.6 23.6,-35.2 12.14,-8.01 26.73,-2.93 34.47,1.13 7.73,4.05 8.63,18.59 6.05,27.44 -2.57,8.83 -4.69,25.04 -22.04,32.23 -12.89,5.35 -49.27,7.55 -42.08,-25.6 z m 143.16,-76.66 c -15.31,1.449 -27.45,2.59 -86.05,6.641 -58.58,4.051 -71.84,28.379 -82.53,46.429 -10.69,18.05 -14.74,42.75 -1.1,59.33 13.63,16.57 38.69,16.94 56.01,20.26 17.32,3.32 11.05,2.95 28.58,9.58 0,0 100.38,-143.709 85.09,-142.24"
         style="fill:#d3d2d2;fill-opacity:1;fill-rule:nonzero;stroke:none"
         transform="matrix(0.13333333,0,0,-0.13333333,0,264.57333)" />
      <path
         id="path22"
         d="m 1557.41,1049.82 c 2.51,-11.57 5.99,-23.6 23.6,-35.2 12.14,-8.01 26.73,-2.93 34.47,1.13 7.73,4.05 8.63,18.59 6.05,27.44 -2.57,8.83 -4.69,25.04 -22.04,32.23 -12.89,5.35 -49.27,7.55 -42.08,-25.6 z m 143.16,-76.66 c -15.31,1.449 -27.45,2.59 -86.05,6.641 -58.58,4.051 -71.84,28.379 -82.53,46.429 -10.69,18.05 -14.74,42.75 -1.1,59.33 13.63,16.57 38.69,16.94 56.01,20.26 17.32,3.32 11.05,2.95 28.58,9.58 0,0 100.38,-143.709 85.09,-142.24 z"
         style="fill:none;stroke:#231f20;stroke-width:6.94497;stroke-linecap:butt;stroke-linejoin:miter;stroke-miterlimit:10;stroke-dasharray:none;stroke-opacity:1"
         transform="matrix(0.13333333,0,0,-0.13333333,0,264.57333)" />
      <path
         id="path23"
         d="m 1973.04,1137.7 c -15.47,-67.27 -26.39,-104.28 -40.47,-128.05 -13.85,-23.337 -32.62,-44.779 -56.39,-70.759 -7.93,-8.661 -33.71,-21.539 -71.31,-20.45 -37.58,1.11 -67.99,4.981 -90.08,22.129 -22.1,17.129 -46.44,52.489 -53.63,59.68 -7.18,7.18 -49.31,95.26 -48.98,137.45 0.35,42.19 356.82,4.84 356.82,4.84"
         style="fill:#d3d2d2;fill-opacity:1;fill-rule:nonzero;stroke:#231f20;stroke-width:6.94497;stroke-linecap:butt;stroke-linejoin:miter;stroke-miterlimit:10;stroke-dasharray:none;stroke-opacity:1"
         transform="matrix(0.13333333,0,0,-0.13333333,0,264.57333)" />
      <path
         id="path24"
         d="m 1793,1199.52 c 39.51,-0.15 136.98,-1.39 172.72,-41.55 35.75,-40.17 -59.32,-87.33 -214.46,-77.39 -155.12,9.95 -139.65,54.91 -137.81,63.39 14.37,36.1 107.42,55.82 179.55,55.55"
         style="fill:#d3d2d2;fill-opacity:1;fill-rule:nonzero;stroke:none"
         transform="matrix(0.13333333,0,0,-0.13333333,0,264.57333)" />
      <path
         id="path25"
         d="m 1793,1199.52 c 39.51,-0.15 136.98,-1.39 172.72,-41.55 35.75,-40.17 -59.32,-87.33 -214.46,-77.39 -155.12,9.95 -139.65,54.91 -137.81,63.39 14.37,36.1 107.42,55.82 179.55,55.55 z"
         style="fill:none;stroke:#231f20;stroke-width:6.94497;stroke-linecap:butt;stroke-linejoin:miter;stroke-miterlimit:10;stroke-dasharray:none;stroke-opacity:1"
         transform="matrix(0.13333333,0,0,-0.13333333,0,264.57333)" />
      <path
         id="path26"
         d="m 1949.15,1137.7 c 0,-22.6 -70.78,-40.91 -158.09,-40.91 -87.3,0 -158.08,18.31 -158.08,40.91 0,22.6 70.78,40.9 158.08,40.9 87.31,0 158.09,-18.3 158.09,-40.9"
         style="fill:#a7a5a6;fill-opacity:1;fill-rule:nonzero;stroke:none"
         transform="matrix(0.13333333,0,0,-0.13333333,0,264.57333)" />
      <path
         id="path27"
         d="m 1949.15,1137.7 c 0,-22.6 -70.78,-40.91 -158.09,-40.91 -87.3,0 -158.08,18.31 -158.08,40.91 0,22.6 70.78,40.9 158.08,40.9 87.31,0 158.09,-18.3 158.09,-40.9 z"
         style="fill:none;stroke:#231f20;stroke-width:5;stroke-linecap:butt;stroke-linejoin:miter;stroke-miterlimit:10;stroke-dasharray:none;stroke-opacity:1"
         transform="matrix(0.13333333,0,0,-0.13333333,0,264.57333)" />
      <path
         id="path28"
         d="m 641.809,943.969 c 0,-12.418 10.078,-22.508 22.507,-22.508 12.414,0 22.493,10.09 22.493,22.508 0,12.422 -10.079,22.492 -22.493,22.492 -12.429,0 -22.507,-10.07 -22.507,-22.492"
         style="fill:#231f20;fill-opacity:1;fill-rule:nonzero;stroke:none"
         transform="matrix(0.13333333,0,0,-0.13333333,0,264.57333)" />
      <path
         id="path29"
         d="m 2087.56,1692.39 c 0,-12.43 10.07,-22.5 22.51,-22.5 12.4,0 22.49,10.07 22.49,22.5 0,12.42 -10.09,22.5 -22.49,22.5 -12.44,0 -22.51,-10.08 -22.51,-22.5"
         style="fill:#231f20;fill-opacity:1;fill-rule:nonzero;stroke:none"
         transform="matrix(0.13333333,0,0,-0.13333333,0,264.57333)" />
      <path
         id="path30"
         d="m 1530.05,1096.81 c 0,-12.42 10.08,-22.51 22.5,-22.51 12.42,0 22.5,10.09 22.5,22.51 0,12.41 -10.08,22.49 -22.5,22.49 -12.42,0 -22.5,-10.08 -22.5,-22.49"
         style="fill:#231f20;fill-opacity:1;fill-rule:nonzero;stroke:none"
         transform="matrix(0.13333333,0,0,-0.13333333,0,264.57333)" />
      <path
         id="path31"
         d="m 2236.69,1983.66 9.71,-37.63 17.31,34.79 1.67,-38.82 24.17,30.43 -6.44,-38.32 29.97,24.74 -14.27,-36.15 34.46,17.97 -21.48,-32.4 37.46,10.43 -27.76,-27.23 38.8,2.4 -32.8,-20.86 38.46,-5.72 -36.43,-13.59 36.43,-13.58 -38.46,-5.71 32.8,-20.86 -38.8,2.4 27.76,-27.22 -37.46,10.41 21.48,-32.39 -34.46,17.97 14.27,-36.15 -29.97,24.75 6.44,-38.34 -24.17,30.44 -1.67,-38.83 -17.31,34.8 -9.71,-37.64 -9.71,37.64 -17.3,-34.8 -1.67,38.83 -24.17,-30.44 6.44,38.34 -29.98,-24.75 14.28,36.15 -34.46,-17.97 21.47,32.39 -37.45,-10.41 27.74,27.22 -38.78,-2.4 32.79,20.86 -38.45,5.71 36.43,13.58 -36.43,13.59 38.45,5.72 -32.79,20.86 38.78,-2.4 -27.74,27.23 37.45,-10.43 -21.47,32.4 34.46,-17.97 -14.28,36.15 29.98,-24.74 -6.44,38.32 24.17,-30.43 1.67,38.82 17.3,-34.79 9.71,37.63"
         style="fill:#fddd1b;fill-opacity:1;fill-rule:nonzero;stroke:none"
         transform="matrix(0.13333333,0,0,-0.13333333,0,264.57333)" />
      <path
         id="path32"
         d="m 2236.69,1983.66 9.71,-37.63 17.31,34.79 1.67,-38.82 24.17,30.43 -6.44,-38.32 29.97,24.74 -14.27,-36.15 34.46,17.97 -21.48,-32.4 37.46,10.43 -27.76,-27.23 38.8,2.4 -32.8,-20.86 38.46,-5.72 -36.43,-13.59 36.43,-13.58 -38.46,-5.71 32.8,-20.86 -38.8,2.4 27.76,-27.22 -37.46,10.41 21.48,-32.39 -34.46,17.97 14.27,-36.15 -29.97,24.75 6.44,-38.34 -24.17,30.44 -1.67,-38.83 -17.31,34.8 -9.71,-37.64 -9.71,37.64 -17.3,-34.8 -1.67,38.83 -24.17,-30.44 6.44,38.34 -29.98,-24.75 14.28,36.15 -34.46,-17.97 21.47,32.39 -37.45,-10.41 27.74,27.22 -38.78,-2.4 32.79,20.86 -38.45,5.71 36.43,13.58 -36.43,13.59 38.45,5.72 -32.79,20.86 38.78,-2.4 -27.74,27.23 37.45,-10.43 -21.47,32.4 34.46,-17.97 -14.28,36.15 29.98,-24.74 -6.44,38.32 24.17,-30.43 1.67,38.82 17.3,-34.79 z"
         style="fill:none;stroke:#231f20;stroke-width:5;stroke-linecap:butt;stroke-linejoin:bevel;stroke-miterlimit:10;stroke-dasharray:none;stroke-opacity:1"
         transform="matrix(0.13333333,0,0,-0.13333333,0,264.57333)" />
      <path
         id="path33"
         d="m 1.0185859,-2.2857422 v -0.46875 c -0.29296871,0.1171875 -0.62109371,0.2109375 -0.87890621,0.2578125 v 0.140625 c 0.375,0.046875 0.3984375,0.058594 0.3984375,0.4570313 v 2.70703121 c 0,0.39843749 -0.0585938,0.43359379 -0.43359375,0.46874999 V 1.4408203 H 1.5224922 V 1.2767578 C 1.0537422,1.2298828 1.0185859,1.2064453 1.0185859,0.74941406 v -0.78515625 c 0.070312,0.046875 0.234375,0.10546875 0.4101563,0.10546875 0.7734375,-0.140625 1.4882812,-0.7265625 1.4882812,-1.62890626 0,-0.5976562 -0.3867187,-1.1367187 -1.0546875,-1.1367187 -0.070312,0 -0.1875,0.035156 -0.2929687,0.09375 z m 0,0.1992188 c 0.1523438,-0.1171875 0.3984375,-0.2460938 0.5976563,-0.2460938 0.4335937,0 0.796875,0.3632813 0.796875,0.9960938 0,0.67968746 -0.328125,1.11328121 -0.8320313,1.11328121 -0.2109375,0 -0.4335937,-0.09375 -0.5625,-0.234375 z m 6.1699219,3.243164 C 7.0127266,1.5433594 6.9306953,1.5667969 6.6025703,1.5667969 H 5.4892891 l 0.84375,-0.90234377 c 0.5507812,-0.5859375 0.796875,-0.9375 0.796875,-1.46484375 0,-0.62109378 -0.4804688,-1.00781248 -1.0078125,-1.00781248 -0.3515625,0 -0.6328125,0.1523437 -0.8085938,0.3515625 l -0.3398437,0.49218748 0.1289062,0.1171875 C 5.2549141,-1.0816406 5.5127266,-1.4097656 5.9111641,-1.4097656 c 0.4453125,0 0.7148437,0.2929687 0.7148437,0.79687498 0,0.515625 -0.375,1.0078125 -0.75,1.453125 C 5.5713203,1.1917969 5.2431953,1.5316406 4.9033516,1.8597656 v 0.140625 H 7.1416328 C 7.2236641,1.7308594 7.2822578,1.4613281 7.3525703,1.2152344 Z M 52.378938,-59.950781 v -0.46875 c -0.292969,0.117187 -0.621094,0.210937 -0.878907,0.257812 v 0.140625 c 0.375,0.04687 0.398438,0.05859 0.398438,0.457032 v 2.707031 c 0,0.398437 -0.05859,0.433594 -0.433594,0.46875 v 0.164062 h 1.417969 v -0.164062 c -0.46875,-0.04687 -0.503906,-0.07031 -0.503906,-0.527344 v -0.785156 c 0.07031,0.04687 0.234375,0.105469 0.410156,0.105469 0.773437,-0.140625 1.488281,-0.726563 1.488281,-1.628907 0,-0.597656 -0.386719,-1.136718 -1.054687,-1.136718 -0.07031,0 -0.1875,0.03516 -0.292969,0.09375 z m 0,0.199219 c 0.152343,-0.117188 0.398437,-0.246094 0.597656,-0.246094 0.433594,0 0.796875,0.363281 0.796875,0.996094 0,0.679687 -0.328125,1.113281 -0.832031,1.113281 -0.210938,0 -0.433594,-0.09375 -0.5625,-0.234375 z m 4.21289,1.110351 c 0.140625,-0.222656 0.386719,-0.46875 0.714844,-0.46875 0.316406,0 0.574219,0.1875 0.574219,0.5625 0,0.445313 -0.410157,0.679688 -0.960938,0.84375 l 0.03516,0.175781 c 0.09375,-0.02344 0.246094,-0.05859 0.386719,-0.05859 0.339844,0 0.761719,0.222656 0.761719,0.773437 0,0.585938 -0.304688,0.914063 -0.726563,0.914063 -0.339843,0 -0.585937,-0.175782 -0.738281,-0.316407 -0.04687,-0.03516 -0.105469,-0.03516 -0.152344,0 -0.04687,0.04687 -0.128906,0.128907 -0.128906,0.199219 -0.01172,0.07031 0.01172,0.140625 0.09375,0.222656 0.07031,0.07031 0.316406,0.199219 0.597656,0.199219 0.433594,0 1.570313,-0.445312 1.570313,-1.417969 0,-0.433593 -0.304688,-0.808593 -0.832031,-0.914062 v -0.01172 c 0.175781,-0.117187 0.316406,-0.222656 0.410156,-0.316406 0.105469,-0.117188 0.1875,-0.257813 0.1875,-0.433594 0,-0.445312 -0.363281,-0.785156 -0.902344,-0.785156 -0.316406,0 -0.585937,0.152344 -0.761719,0.339844 l -0.257812,0.375 z m 0,0"
         style="fill:#231f20;fill-opacity:1;fill-rule:nonzero;stroke:none"
         aria-label="p&#10;2&#10;p&#10;3"
         transform="matrix(1.3333333,0,0,1.3333333,198.94267,110.2)" />
    </g>
  </g>
</svg>
