<?xml version="1.0" encoding="UTF-8" standalone="no"?>
<!-- Created with Inkscape (http://www.inkscape.org/) -->

<svg
   version="1.1"
   id="svg1"
   width="137.44"
   height="106.16"
   viewBox="0 0 137.44 106.16"
   sodipodi:docname="pha13f09.eps"
   xmlns:inkscape="http://www.inkscape.org/namespaces/inkscape"
   xmlns:sodipodi="http://sodipodi.sourceforge.net/DTD/sodipodi-0.dtd"
   xmlns="http://www.w3.org/2000/svg"
   xmlns:svg="http://www.w3.org/2000/svg">
  <defs
     id="defs1" />
  <sodipodi:namedview
     id="namedview1"
     pagecolor="#ffffff"
     bordercolor="#000000"
     borderopacity="0.25"
     inkscape:showpageshadow="2"
     inkscape:pageopacity="0.0"
     inkscape:pagecheckerboard="0"
     inkscape:deskcolor="#d1d1d1">
    <inkscape:page
       x="0"
       y="0"
       inkscape:label="1"
       id="page1"
       width="137.44"
       height="106.16"
       margin="0"
       bleed="0" />
  </sodipodi:namedview>
  <g
     id="g1"
     inkscape:groupmode="layer"
     inkscape:label="1">
    <g
       id="group-R5">
      <path
         id="path2"
         d="M 464.48,794.004 708.27,4.53125"
         style="fill:#fddd1b;fill-opacity:1;fill-rule:nonzero;stroke:#e6ec1b;stroke-width:15;stroke-linecap:butt;stroke-linejoin:miter;stroke-miterlimit:10;stroke-dasharray:none;stroke-opacity:1"
         transform="matrix(0.13333333,0,0,-0.13333333,0,106.16)" />
      <path
         id="path3"
         d="m 491.816,739.277 c 18.969,-5.808 24.344,-10.394 36.774,-0.136 12.426,10.269 5.758,30.519 24.34,25.648 18.586,-4.867 22.226,-15.305 40.066,4.098"
         style="fill:#fddd1b;fill-opacity:1;fill-rule:nonzero;stroke:#e6ec1b;stroke-width:15;stroke-linecap:butt;stroke-linejoin:miter;stroke-miterlimit:10;stroke-dasharray:none;stroke-opacity:1"
         transform="matrix(0.13333333,0,0,-0.13333333,0,106.16)" />
      <path
         id="path4"
         d="m 506.934,691.813 c 18.968,-5.813 24.343,-10.399 36.765,-0.137 12.434,10.262 5.766,30.515 24.348,25.644 18.586,-4.863 22.226,-15.308 40.066,4.098"
         style="fill:#fddd1b;fill-opacity:1;fill-rule:nonzero;stroke:#e6ec1b;stroke-width:15;stroke-linecap:butt;stroke-linejoin:miter;stroke-miterlimit:10;stroke-dasharray:none;stroke-opacity:1"
         transform="matrix(0.13333333,0,0,-0.13333333,0,106.16)" />
      <path
         id="path5"
         d="m 522.051,644.34 c 18.965,-5.809 24.344,-10.395 36.765,-0.137 12.434,10.27 5.762,30.52 24.348,25.652 18.582,-4.867 22.227,-15.304 40.066,4.094"
         style="fill:#fddd1b;fill-opacity:1;fill-rule:nonzero;stroke:#e6ec1b;stroke-width:15;stroke-linecap:butt;stroke-linejoin:miter;stroke-miterlimit:10;stroke-dasharray:none;stroke-opacity:1"
         transform="matrix(0.13333333,0,0,-0.13333333,0,106.16)" />
      <path
         id="path6"
         d="m 537.168,596.875 c 18.965,-5.809 24.348,-10.395 36.77,-0.137 12.429,10.27 5.757,30.52 24.343,25.645 18.582,-4.867 22.227,-15.305 40.071,4.101"
         style="fill:#fddd1b;fill-opacity:1;fill-rule:nonzero;stroke:#e6ec1b;stroke-width:15;stroke-linecap:butt;stroke-linejoin:miter;stroke-miterlimit:10;stroke-dasharray:none;stroke-opacity:1"
         transform="matrix(0.13333333,0,0,-0.13333333,0,106.16)" />
      <path
         id="path7"
         d="m 552.285,549.402 c 18.965,-5.808 24.348,-10.394 36.77,-0.132 12.429,10.265 5.758,30.515 24.343,25.64 18.582,-4.859 22.227,-15.301 40.071,4.106"
         style="fill:#fddd1b;fill-opacity:1;fill-rule:nonzero;stroke:#e6ec1b;stroke-width:15;stroke-linecap:butt;stroke-linejoin:miter;stroke-miterlimit:10;stroke-dasharray:none;stroke-opacity:1"
         transform="matrix(0.13333333,0,0,-0.13333333,0,106.16)" />
      <path
         id="path8"
         d="m 567.402,501.934 c 18.965,-5.801 24.344,-10.391 36.77,-0.133 12.43,10.269 5.75,30.515 24.344,25.648 18.586,-4.871 22.226,-15.304 40.058,4.094"
         style="fill:#fddd1b;fill-opacity:1;fill-rule:nonzero;stroke:#e6ec1b;stroke-width:15;stroke-linecap:butt;stroke-linejoin:miter;stroke-miterlimit:10;stroke-dasharray:none;stroke-opacity:1"
         transform="matrix(0.13333333,0,0,-0.13333333,0,106.16)" />
      <path
         id="path9"
         d="m 582.52,454.469 c 18.964,-5.809 24.335,-10.391 36.765,-0.137 12.434,10.27 5.766,30.516 24.348,25.648 18.574,-4.863 22.226,-15.308 40.058,4.098"
         style="fill:#fddd1b;fill-opacity:1;fill-rule:nonzero;stroke:#e6ec1b;stroke-width:15;stroke-linecap:butt;stroke-linejoin:miter;stroke-miterlimit:10;stroke-dasharray:none;stroke-opacity:1"
         transform="matrix(0.13333333,0,0,-0.13333333,0,106.16)" />
      <path
         id="path10"
         d="m 597.637,407.004 c 18.965,-5.813 24.336,-10.399 36.758,-0.141 12.441,10.27 5.761,30.52 24.355,25.649 18.574,-4.864 22.227,-15.305 40.066,4.101"
         style="fill:#fddd1b;fill-opacity:1;fill-rule:nonzero;stroke:#e6ec1b;stroke-width:15;stroke-linecap:butt;stroke-linejoin:miter;stroke-miterlimit:10;stroke-dasharray:none;stroke-opacity:1"
         transform="matrix(0.13333333,0,0,-0.13333333,0,106.16)" />
      <path
         id="path11"
         d="m 612.754,359.531 c 18.965,-5.808 24.336,-10.39 36.766,-0.136 12.433,10.273 5.753,30.515 24.347,25.644 18.574,-4.863 22.227,-15.301 40.071,4.102"
         style="fill:#fddd1b;fill-opacity:1;fill-rule:nonzero;stroke:#e6ec1b;stroke-width:15;stroke-linecap:butt;stroke-linejoin:miter;stroke-miterlimit:10;stroke-dasharray:none;stroke-opacity:1"
         transform="matrix(0.13333333,0,0,-0.13333333,0,106.16)" />
      <path
         id="path12"
         d="m 627.871,312.063 c 18.965,-5.801 24.336,-10.391 36.77,-0.137 12.422,10.269 5.75,30.523 24.336,25.644 18.582,-4.867 22.222,-15.293 40.066,4.102"
         style="fill:#fddd1b;fill-opacity:1;fill-rule:nonzero;stroke:#e6ec1b;stroke-width:15;stroke-linecap:butt;stroke-linejoin:miter;stroke-miterlimit:10;stroke-dasharray:none;stroke-opacity:1"
         transform="matrix(0.13333333,0,0,-0.13333333,0,106.16)" />
      <path
         id="path13"
         d="m 642.98,264.602 c 18.973,-5.801 24.344,-10.391 36.766,-0.137 12.442,10.273 5.762,30.515 24.348,25.644 18.582,-4.867 22.222,-15.304 40.066,4.098"
         style="fill:#fddd1b;fill-opacity:1;fill-rule:nonzero;stroke:#e6ec1b;stroke-width:15;stroke-linecap:butt;stroke-linejoin:miter;stroke-miterlimit:10;stroke-dasharray:none;stroke-opacity:1"
         transform="matrix(0.13333333,0,0,-0.13333333,0,106.16)" />
      <path
         id="path14"
         d="m 658.098,217.129 c 18.972,-5.809 24.343,-10.391 36.765,-0.137 12.434,10.274 5.762,30.52 24.348,25.645 18.582,-4.864 22.234,-15.301 40.066,4.101"
         style="fill:#fddd1b;fill-opacity:1;fill-rule:nonzero;stroke:#e6ec1b;stroke-width:15;stroke-linecap:butt;stroke-linejoin:miter;stroke-miterlimit:10;stroke-dasharray:none;stroke-opacity:1"
         transform="matrix(0.13333333,0,0,-0.13333333,0,106.16)" />
      <path
         id="path15"
         d="m 673.215,169.656 c 18.973,-5.797 24.344,-10.386 36.765,-0.133 12.43,10.274 5.762,30.516 24.344,25.641 18.586,-4.859 22.231,-15.301 40.071,4.106"
         style="fill:#fddd1b;fill-opacity:1;fill-rule:nonzero;stroke:#e6ec1b;stroke-width:15;stroke-linecap:butt;stroke-linejoin:miter;stroke-miterlimit:10;stroke-dasharray:none;stroke-opacity:1"
         transform="matrix(0.13333333,0,0,-0.13333333,0,106.16)" />
      <path
         id="path16"
         d="m 688.328,122.188 c 18.977,-5.79 24.348,-10.391 36.77,-0.125 12.429,10.261 5.761,30.515 24.343,25.64 18.586,-4.859 22.231,-15.301 40.071,4.106"
         style="fill:#fddd1b;fill-opacity:1;fill-rule:nonzero;stroke:#e6ec1b;stroke-width:15;stroke-linecap:butt;stroke-linejoin:miter;stroke-miterlimit:10;stroke-dasharray:none;stroke-opacity:1"
         transform="matrix(0.13333333,0,0,-0.13333333,0,106.16)" />
      <path
         id="path17"
         d="m 703.445,74.7266 c 18.977,-5.8125 24.348,-10.3907 36.77,-0.1368 12.43,10.2735 5.762,30.5192 24.348,25.6442 18.582,-4.8629 22.222,-15.3004 40.066,4.102"
         style="fill:#fddd1b;fill-opacity:1;fill-rule:nonzero;stroke:#e6ec1b;stroke-width:15;stroke-linecap:butt;stroke-linejoin:miter;stroke-miterlimit:10;stroke-dasharray:none;stroke-opacity:1"
         transform="matrix(0.13333333,0,0,-0.13333333,0,106.16)" />
      <path
         id="path18"
         d="m 718.563,27.2578 c 18.976,-5.8047 24.347,-10.3945 36.769,-0.1406 12.434,10.2773 5.762,30.5195 24.348,25.6484 18.582,-4.8633 22.222,-15.3047 40.066,4.0977"
         style="fill:#fddd1b;fill-opacity:1;fill-rule:nonzero;stroke:#e6ec1b;stroke-width:15;stroke-linecap:butt;stroke-linejoin:miter;stroke-miterlimit:10;stroke-dasharray:none;stroke-opacity:1"
         transform="matrix(0.13333333,0,0,-0.13333333,0,106.16)" />
      <path
         id="path19"
         d="M 1028.34,91.5625 H 445.156 V 618.992 h 583.184 z"
         style="fill:none;stroke:#231f20;stroke-width:5;stroke-linecap:butt;stroke-linejoin:miter;stroke-miterlimit:10;stroke-dasharray:none;stroke-opacity:1"
         transform="matrix(0.13333333,0,0,-0.13333333,0,106.16)" />
      <path
         id="path20"
         d="m 714.246,355.293 c 0,-12.422 10.078,-22.512 22.512,-22.512 12.414,0 22.488,10.09 22.488,22.512 0,12.41 -10.074,22.488 -22.488,22.488 -12.434,0 -22.512,-10.078 -22.512,-22.488"
         style="fill:#231f20;fill-opacity:1;fill-rule:nonzero;stroke:none"
         transform="matrix(0.13333333,0,0,-0.13333333,0,106.16)" />
      <path
         id="path21"
         d="m 714.246,355.293 c 0,-12.422 10.078,-22.512 22.512,-22.512 12.414,0 22.488,10.09 22.488,22.512 0,12.41 -10.074,22.488 -22.488,22.488 -12.434,0 -22.512,-10.078 -22.512,-22.488 z"
         style="fill:none;stroke:#231f20;stroke-width:5;stroke-linecap:butt;stroke-linejoin:miter;stroke-miterlimit:10;stroke-dasharray:none;stroke-opacity:1"
         transform="matrix(0.13333333,0,0,-0.13333333,0,106.16)" />
      <path
         id="path22"
         d="M 456.969,791.68 700.762,2.21875"
         style="fill:none;stroke:#231f20;stroke-width:15;stroke-linecap:butt;stroke-linejoin:miter;stroke-miterlimit:10;stroke-dasharray:none;stroke-opacity:1"
         transform="matrix(0.13333333,0,0,-0.13333333,0,106.16)" />
      <path
         id="path23"
         d="m 483.887,355.293 c 0,-12.422 10.074,-22.512 22.504,-22.512 12.418,0 22.496,10.09 22.496,22.512 0,12.41 -10.078,22.488 -22.496,22.488 -12.43,0 -22.504,-10.078 -22.504,-22.488 z"
         style="fill:none;stroke:#231f20;stroke-width:5;stroke-linecap:butt;stroke-linejoin:miter;stroke-miterlimit:10;stroke-dasharray:none;stroke-opacity:1"
         transform="matrix(0.13333333,0,0,-0.13333333,0,106.16)" />
      <path
         id="path24"
         d="M 1.03516,580.957 524.711,430.254"
         style="fill:none;stroke:#231f20;stroke-width:7.5;stroke-linecap:butt;stroke-linejoin:miter;stroke-miterlimit:10;stroke-dasharray:none;stroke-opacity:1"
         transform="matrix(0.13333333,0,0,-0.13333333,0,106.16)" />
      <path
         id="path25"
         d="m 514.363,433.234 -6.66,24.414 0.848,0.262 30.004,-23.203 c 11.054,-5.992 22.109,-11.98 33.164,-17.977 -12.547,0.797 -25.098,1.598 -37.649,2.395 l -37.746,-3.703 -0.609,0.558 18.648,17.254"
         style="fill:#231f20;fill-opacity:1;fill-rule:nonzero;stroke:none"
         transform="matrix(0.13333333,0,0,-0.13333333,0,106.16)" />
    </g>
  </g>
</svg>
