<svg id="Layer_1" data-name="Layer 1" xmlns="http://www.w3.org/2000/svg" viewBox="0 0 781.73 303.22"><defs><style>.cls-1,.cls-4{fill:none;}.cls-1,.cls-8{stroke:#000;}.cls-1,.cls-4,.cls-8{stroke-miterlimit:10;}.cls-2{fill:#a6a6a6;}.cls-3{fill:#666;}.cls-4{stroke:#0071bc;}.cls-5{fill:#0071bc;}.cls-6{fill:#a6cde8;}.cls-7{fill:#66aad7;}.cls-8{fill:#fcee21;stroke-width:0.3px;}</style></defs><title>Shading normal errors</title><line class="cls-1" x1="69.35" y1="168.92" x2="355.16" y2="168.92"/><line class="cls-1" x1="212.13" y1="33.08" x2="212.13" y2="169.21"/><polygon points="206.63 37.99 212.13 33.73 217.64 37.99 212.13 24.98 206.63 37.99"/><polygon class="cls-2" points="207.83 36.44 212.13 26.29 212.13 33.1 207.83 36.44"/><polygon class="cls-3" points="216.43 36.44 212.13 26.29 212.13 33.1 216.43 36.44"/><line class="cls-4" x1="86.29" y1="236.58" x2="338.33" y2="101.79"/><line class="cls-4" x1="148.14" y1="49.46" x2="212.34" y2="169.5"/><polygon class="cls-5" points="145.6 56.39 148.44 50.03 155.31 51.2 144.31 42.32 145.6 56.39"/><polygon class="cls-6" points="145.92 54.45 144.93 43.47 148.15 49.48 145.92 54.45"/><polygon class="cls-7" points="153.51 50.39 144.93 43.47 148.15 49.48 153.51 50.39"/><path d="M207.55,9.68c0-1,0-1.82-.08-2.62H209l.11,1.6h0a3.56,3.56,0,0,1,3.2-1.82c1.34,0,3.42.8,3.42,4.12v5.78H214V11.16c0-1.56-.58-2.86-2.24-2.86a2.5,2.5,0,0,0-2.36,1.8,2.53,2.53,0,0,0-.12.82v5.82h-1.77Z"/><path d="M222.91,13.76c0,.41,0,.86,0,1.55v3.27a3.27,3.27,0,0,1-.8,2.58,3,3,0,0,1-2.06.68,3.65,3.65,0,0,1-1.87-.47l.25-.78A3.25,3.25,0,0,0,220,21c1.05,0,1.82-.55,1.82-2v-.63h0a2,2,0,0,1-1.79.95,2.52,2.52,0,0,1-2.4-2.75,2.71,2.71,0,0,1,2.54-3,1.88,1.88,0,0,1,1.76,1h0l0-.85ZM221.85,16a1.65,1.65,0,0,0-.06-.46,1.48,1.48,0,0,0-1.44-1.09c-1,0-1.67.83-1.67,2.14,0,1.1.55,2,1.66,2a1.5,1.5,0,0,0,1.42-1.05,1.81,1.81,0,0,0,.09-.55Z"/><path d="M133.33,27.44c0-1,0-1.82-.08-2.63h1.56l.1,1.61h0a3.57,3.57,0,0,1,3.2-1.83c1.34,0,3.42.81,3.42,4.13V34.5h-1.76V28.92c0-1.56-.58-2.86-2.24-2.86a2.5,2.5,0,0,0-2.36,1.8,2.53,2.53,0,0,0-.12.82V34.5h-1.76Z"/><path d="M143.68,36.11a2.66,2.66,0,0,0,1.35.41c.75,0,1.1-.38,1.1-.84s-.29-.76-1-1c-1-.36-1.49-.92-1.49-1.6a1.73,1.73,0,0,1,1.94-1.65,2.78,2.78,0,0,1,1.39.35l-.26.74a2.19,2.19,0,0,0-1.15-.32c-.61,0-.95.35-.95.77s.34.67,1.08,1c1,.37,1.48.86,1.48,1.7,0,1-.77,1.69-2.11,1.69a3.28,3.28,0,0,1-1.59-.38Z"/><polygon class="cls-8" points="24.32 201.65 22.74 211.33 27.69 202.87 24.37 212.09 30.79 204.68 25.82 213.13 33.49 207.04 27.06 214.43 35.73 209.85 28.04 215.93 37.4 213.02 28.73 217.59 38.46 216.44 29.1 219.34 38.88 220 29.14 221.13 38.63 223.58 28.86 222.91 37.74 227.06 28.25 224.59 36.22 230.3 27.34 226.14 34.12 233.22 26.17 227.49 31.53 235.7 24.76 228.61 28.53 237.66 23.18 229.45 25.21 239.03 21.46 229.98 21.7 239.78 19.68 230.19 18.12 239.86 17.89 230.06 14.58 239.29 16.16 229.61 11.2 238.07 14.53 228.85 8.11 236.26 13.07 227.81 5.4 233.91 11.84 226.51 3.17 231.09 10.86 225.01 1.5 227.92 10.17 223.35 0.43 224.5 9.8 221.6 0.02 220.94 9.75 219.81 0.26 217.36 10.04 218.03 1.16 213.88 10.65 216.35 2.68 210.64 11.55 214.8 4.78 207.72 12.73 213.45 7.37 205.24 14.14 212.33 10.37 203.28 15.72 211.5 13.68 201.91 17.43 210.96 17.19 201.16 19.22 210.75 20.78 201.08 21 210.88 24.32 201.65"/><line class="cls-1" x1="427.34" y1="168.11" x2="713.15" y2="168.11"/><line class="cls-1" x1="570.12" y1="32.27" x2="570.12" y2="168.4"/><polygon points="564.62 37.18 570.12 32.92 575.63 37.18 570.12 24.16 564.62 37.18"/><polygon class="cls-2" points="565.82 35.62 570.12 25.48 570.12 32.29 565.82 35.62"/><polygon class="cls-3" points="574.42 35.62 570.12 25.48 570.12 32.29 574.42 35.62"/><line class="cls-4" x1="444.28" y1="235.77" x2="696.32" y2="100.98"/><line class="cls-4" x1="506.13" y1="48.65" x2="570.33" y2="168.69"/><polygon class="cls-5" points="503.59 55.57 506.43 49.22 513.29 50.38 502.3 41.5 503.59 55.57"/><polygon class="cls-6" points="503.91 53.63 502.92 42.66 506.13 48.66 503.91 53.63"/><polygon class="cls-7" points="511.5 49.58 502.92 42.66 506.13 48.66 511.5 49.58"/><line class="cls-1" x1="79.32" y1="205.04" x2="210.65" y2="169.22"/><polygon points="85.5 209.06 79.94 204.87 82.61 198.44 71.5 207.18 85.5 209.06"/><polygon class="cls-2" points="83.68 208.31 72.77 206.83 79.33 205.04 83.68 208.31"/><polygon class="cls-3" points="81.42 200.02 72.77 206.83 79.33 205.04 81.42 200.02"/><path d="M53,211c0,1.24.7,2.2,1.66,2.2s2-1.24,2-3.84a6.6,6.6,0,0,0-1.6-4.54v-.06h1.66a6.27,6.27,0,0,1,1.66,4.64c0,3.6-1.82,5.26-3.66,5.26A2.61,2.61,0,0,1,52.22,213h-.08a2.71,2.71,0,0,1-2.56,1.72c-1.68,0-3.54-1.42-3.54-5.1a7,7,0,0,1,1.7-4.8h1.62v.06a7,7,0,0,0-1.6,4.7c0,2.7,1.14,3.68,2.06,3.68s1.6-1,1.6-2.18l0-3.7H53Z"/><path d="M61.15,209.91a.6.6,0,0,1-.65.63.61.61,0,0,1-.62-.63.63.63,0,0,1,.64-.64A.61.61,0,0,1,61.15,209.91ZM60,217.14V211.5h1v5.64Z"/><polygon class="cls-8" points="767.15 104.93 765.57 114.6 770.52 106.14 767.2 115.36 773.62 107.96 768.65 116.41 776.33 110.31 769.89 117.7 778.56 113.12 770.87 119.2 780.23 116.29 771.56 120.86 781.29 119.72 771.93 122.61 781.71 123.28 771.98 124.41 781.47 126.86 771.69 126.18 780.57 130.33 771.08 127.87 779.05 133.58 770.17 129.41 776.95 136.49 769 130.77 774.36 138.97 767.59 131.88 771.36 140.93 766.01 132.72 768.04 142.31 764.29 133.25 764.54 143.05 762.51 133.46 760.95 143.13 760.72 133.34 757.41 142.56 758.99 132.89 754.03 141.34 757.36 132.13 750.94 139.53 755.91 131.08 748.23 137.18 754.67 129.78 746 134.37 753.69 128.28 744.33 131.2 753 126.63 743.26 127.77 752.63 124.87 742.85 124.21 752.58 123.08 743.09 120.63 752.87 121.31 743.99 117.16 753.48 119.62 745.51 113.91 754.39 118.07 747.61 111 755.56 116.72 750.2 108.52 756.97 115.61 753.2 106.56 758.55 114.77 756.51 105.18 760.27 114.24 760.02 104.44 762.05 114.03 763.61 104.35 763.84 114.15 767.15 104.93"/><line class="cls-1" x1="701.96" y1="135.15" x2="569.74" y2="167.54"/><polygon points="695.88 130.98 701.33 135.31 698.5 141.67 709.83 133.23 695.88 130.98"/><polygon class="cls-2" points="697.68 131.77 708.56 133.54 701.94 135.16 697.68 131.77"/><polygon class="cls-3" points="699.73 140.13 708.56 133.54 701.94 135.16 699.73 140.13"/><path d="M724.5,131.07c0,1.24.7,2.2,1.66,2.2s2-1.24,2-3.84a6.6,6.6,0,0,0-1.61-4.54v-.06h1.66a6.23,6.23,0,0,1,1.67,4.64c0,3.6-1.83,5.26-3.67,5.26a2.61,2.61,0,0,1-2.52-1.72h-.08a2.71,2.71,0,0,1-2.56,1.72c-1.68,0-3.54-1.42-3.54-5.1a7,7,0,0,1,1.7-4.8h1.62v.06a7,7,0,0,0-1.6,4.7c0,2.7,1.14,3.68,2.06,3.68s1.6-1,1.6-2.18l0-3.7h1.66Z"/><path d="M732.66,129.94a.61.61,0,0,1-.66.63.6.6,0,0,1-.61-.63.62.62,0,0,1,.64-.64A.61.61,0,0,1,732.66,129.94Zm-1.15,7.23v-5.64h1v5.64Z"/><path d="M73.93,260.34a13.19,13.19,0,0,0-2.52,8.18,13.48,13.48,0,0,0,2.52,8.12H72.55a12.93,12.93,0,0,1-2.62-8.12,13.2,13.2,0,0,1,2.62-8.18Z"/><path d="M81.15,274.22,81,273H81a3.61,3.61,0,0,1-3,1.44,2.76,2.76,0,0,1-3-2.78c0-2.34,2.08-3.62,5.82-3.6v-.2a2,2,0,0,0-2.2-2.24,4.82,4.82,0,0,0-2.52.72l-.4-1.16a6,6,0,0,1,3.18-.86c3,0,3.68,2,3.68,4v3.62a13.63,13.63,0,0,0,.16,2.32Zm-.26-4.94c-1.92,0-4.1.3-4.1,2.18a1.56,1.56,0,0,0,1.66,1.68,2.41,2.41,0,0,0,2.34-1.62,1.84,1.84,0,0,0,.1-.56Z"/><path d="M84.37,276.64a13.54,13.54,0,0,0,2.52-8.18,13.26,13.26,0,0,0-2.52-8.12h1.36a12.74,12.74,0,0,1,2.62,8.14,13,13,0,0,1-2.62,8.16Z"/><path d="M433.93,261.38a13.19,13.19,0,0,0-2.52,8.18,13.48,13.48,0,0,0,2.52,8.12h-1.38a12.93,12.93,0,0,1-2.62-8.12,13.2,13.2,0,0,1,2.62-8.18Z"/><path d="M435.71,275.26c0-.66.08-1.64.08-2.5v-11.7h1.74v6.08h0a3.61,3.61,0,0,1,3.3-1.78c2.4,0,4.1,2,4.08,4.94,0,3.46-2.18,5.18-4.34,5.18a3.45,3.45,0,0,1-3.24-1.82h-.06l-.08,1.6Zm1.82-3.88a3.3,3.3,0,0,0,.08.64,2.72,2.72,0,0,0,2.64,2.06c1.84,0,2.94-1.5,2.94-3.72,0-1.94-1-3.6-2.88-3.6a2.81,2.81,0,0,0-2.68,2.16,3.47,3.47,0,0,0-.1.72Z"/><path d="M446.05,277.68a13.54,13.54,0,0,0,2.52-8.18,13.26,13.26,0,0,0-2.52-8.12h1.36a12.74,12.74,0,0,1,2.62,8.14,13,13,0,0,1-2.62,8.16Z"/></svg>