<svg id="Layer_1" data-name="Layer 1" xmlns="http://www.w3.org/2000/svg" viewBox="0 0 406.78 192.38"><defs><style>.cls-1,.cls-2,.cls-3{fill:none;}.cls-1{stroke:#999;}.cls-1,.cls-2,.cls-3,.cls-4{stroke-miterlimit:10;}.cls-1,.cls-2{stroke-width:0.5px;}.cls-2,.cls-3,.cls-4{stroke:#000;}.cls-3{stroke-dasharray:4;}.cls-4{fill:#fff;}</style></defs><title>Malleys method</title><path class="cls-1" d="M75.51,127.87c.82-5.79,4.53-11.67,11.4-17.37,29.32-24.28,105.11-36,169.28-26.14,46.66,7.15,74.33,23.73,74.69,41.58"/><path class="cls-2" d="M330.88,125.94c.14,6.7-3.57,13.58-11.58,20.21C290,170.44,214.2,182.14,150,172.3c-49.13-7.54-77.2-25.52-74.51-44.43"/><polyline class="cls-2" points="314.01 64.35 406.23 64.56 292.27 192.13 0.56 191.46 77.17 105.69"/><polyline class="cls-1" points="77.17 105.69 114.52 63.89 314.01 64.35"/><path class="cls-2" d="M75.34,131c0-1,0-1.91,0-2.87A127.84,127.84,0,0,1,331,126.22"/><circle cx="164.87" cy="160.24" r="6.22"/><circle cx="274.27" cy="131.42" r="6.22"/><circle cx="142.12" cy="108.25" r="6.22"/><line class="cls-3" x1="141.89" y1="107.84" x2="141.89" y2="55.1"/><line class="cls-3" x1="274.22" y1="131.44" x2="274.22" y2="43.38"/><line class="cls-3" x1="164.68" y1="160.74" x2="164.68" y2="131.28"/><circle class="cls-4" cx="274.27" cy="42.44" r="6.22"/><circle class="cls-4" cx="164.87" cy="131.23" r="6.22"/><circle class="cls-4" cx="142.12" cy="55.47" r="6.22"/></svg>