<svg id="Layer_1" data-name="Layer 1" xmlns="http://www.w3.org/2000/svg" viewBox="0 0 162.33 161.66"><defs><style>.cls-1{fill:none;stroke:#000;stroke-miterlimit:10;}</style></defs><title>Sample right triangle</title><polygon class="cls-1" points="15.32 1.2 15.32 144.3 159.56 144.3 15.32 1.2"/><path d="M95.86,154c0,1,0,1.88.08,2.64H94.38l-.1-1.58h0a3.64,3.64,0,0,1-3.2,1.8c-1.52,0-3.34-.84-3.34-4.24V147h1.76v5.36c0,1.84.56,3.08,2.16,3.08a2.54,2.54,0,0,0,2.32-1.6,2.57,2.57,0,0,0,.16-.9V147h1.76Z"/><path d="M2.14,62.79,4,68.23a24.89,24.89,0,0,1,.78,2.48h.06c.22-.8.5-1.6.82-2.48l1.88-5.44H9.42l-3.8,9.68H3.94L.26,62.79Z"/><path d="M109.59,60.54a13.19,13.19,0,0,0-2.52,8.18,13.48,13.48,0,0,0,2.52,8.12h-1.38a12.93,12.93,0,0,1-2.62-8.12,13.2,13.2,0,0,1,2.62-8.18Z"/><path d="M119.55,71.78c0,1,0,1.88.08,2.64h-1.56l-.1-1.58h0a3.64,3.64,0,0,1-3.2,1.8c-1.52,0-3.34-.84-3.34-4.24V64.74h1.76V70.1c0,1.84.56,3.08,2.16,3.08a2.54,2.54,0,0,0,2.32-1.6,2.57,2.57,0,0,0,.16-.9V64.74h1.76Z"/><path d="M121.17,76.88a28.78,28.78,0,0,0,1.2-4.78l2-.2a24.38,24.38,0,0,1-1.9,4.86Z"/><path d="M134,63.06h0l-2.26,1.22-.34-1.34,2.84-1.52h1.5v13H134Z"/><path d="M145,68.36v1.3h-4.94v-1.3Z"/><path d="M155.19,71.78c0,1,0,1.88.08,2.64h-1.56l-.1-1.58h0a3.64,3.64,0,0,1-3.2,1.8c-1.52,0-3.34-.84-3.34-4.24V64.74h1.76V70.1c0,1.84.56,3.08,2.16,3.08a2.54,2.54,0,0,0,2.32-1.6,2.57,2.57,0,0,0,.16-.9V64.74h1.76Z"/><path d="M157.05,76.84a13.54,13.54,0,0,0,2.52-8.18,13.26,13.26,0,0,0-2.52-8.12h1.36A12.74,12.74,0,0,1,161,68.68a13,13,0,0,1-2.62,8.16Z"/><circle cx="97.2" cy="82.28" r="6.22"/></svg>