<?xml version="1.0" encoding="UTF-8"?>
<svg xmlns="http://www.w3.org/2000/svg" xmlns:xlink="http://www.w3.org/1999/xlink" width="360pt" height="96pt" viewBox="0 0 360 96" version="1.1">
<defs>
<clipPath id="clip1">
  <path d="M 13 3 L 100 3 L 100 91 L 13 91 Z M 13 3 "/>
</clipPath>
<clipPath id="clip2">
  <path d="M 122 42 L 235 42 L 235 67 L 122 67 Z M 122 42 "/>
</clipPath>
<clipPath id="clip3">
  <path d="M 273 52 L 297 52 L 297 91 L 273 91 Z M 273 52 "/>
</clipPath>
<clipPath id="clip4">
  <path d="M 291 27 L 322 27 L 322 91 L 291 91 Z M 291 27 "/>
</clipPath>
<clipPath id="clip5">
  <path d="M 310 3 L 346 3 L 346 91 L 310 91 Z M 310 3 "/>
</clipPath>
<clipPath id="clip6">
  <path d="M 258 3 L 325 3 L 325 91 L 258 91 Z M 258 3 "/>
</clipPath>
</defs>
<g id="surface315">
<path style="fill:none;stroke-width:1.6;stroke-linecap:square;stroke-linejoin:miter;stroke:rgb(36.84082%,50.67749%,70.979309%);stroke-opacity:1;stroke-miterlimit:3.25;" d="M 91.613281 99.011719 L 169.351562 99.011719 " transform="matrix(1,0,0,1,-74,-13)"/>
<path style="fill:none;stroke-width:1.6;stroke-linecap:square;stroke-linejoin:miter;stroke:rgb(36.84082%,50.67749%,70.979309%);stroke-opacity:1;stroke-miterlimit:3.25;" d="M 118.046875 99.011719 L 118.046875 72.582031 " transform="matrix(1,0,0,1,-74,-13)"/>
<path style="fill:none;stroke-width:1.6;stroke-linecap:square;stroke-linejoin:miter;stroke:rgb(36.84082%,50.67749%,70.979309%);stroke-opacity:1;stroke-miterlimit:3.25;" d="M 118.046875 72.582031 L 169.351562 72.582031 " transform="matrix(1,0,0,1,-74,-13)"/>
<path style="fill:none;stroke-width:1.6;stroke-linecap:square;stroke-linejoin:miter;stroke:rgb(36.84082%,50.67749%,70.979309%);stroke-opacity:1;stroke-miterlimit:3.25;" d="M 142.921875 99.011719 L 142.921875 47.703125 " transform="matrix(1,0,0,1,-74,-13)"/>
<path style="fill:none;stroke-width:1.6;stroke-linecap:square;stroke-linejoin:miter;stroke:rgb(36.84082%,50.67749%,70.979309%);stroke-opacity:1;stroke-miterlimit:3.25;" d="M 142.921875 47.703125 L 169.351562 47.703125 " transform="matrix(1,0,0,1,-74,-13)"/>
<path style="fill:none;stroke-width:1.6;stroke-linecap:square;stroke-linejoin:miter;stroke:rgb(36.84082%,50.67749%,70.979309%);stroke-opacity:1;stroke-miterlimit:3.25;" d="M 169.351562 99.011719 L 169.351562 21.273438 " transform="matrix(1,0,0,1,-74,-13)"/>
<g clip-path="url(#clip1)" clip-rule="nonzero">
<path style="fill:none;stroke-width:1.6;stroke-linecap:square;stroke-linejoin:miter;stroke:rgb(36.84082%,50.67749%,70.979309%);stroke-opacity:1;stroke-miterlimit:3.25;" d="M 91.613281 99.011719 L 91.640625 98.988281 L 91.710938 98.917969 L 91.804688 98.820312 L 91.996094 98.628906 L 92.378906 98.25 L 93.140625 97.484375 L 94.796875 95.832031 L 97.855469 92.773438 L 99.496094 91.128906 L 101.03125 89.597656 L 105.84375 84.785156 L 107.492188 83.132812 L 109.035156 81.59375 L 110.542969 80.082031 L 112.183594 78.445312 L 113.710938 76.917969 L 115.367188 75.257812 L 116.996094 73.632812 L 118.511719 72.117188 L 120.15625 70.46875 L 123.355469 67.269531 L 124.992188 65.636719 L 129.710938 60.917969 L 131.222656 59.402344 L 140.851562 49.773438 L 142.390625 48.238281 L 143.898438 46.726562 L 145.535156 45.089844 L 147.0625 43.566406 L 148.71875 41.910156 L 150.261719 40.363281 L 153.421875 37.203125 L 154.957031 35.671875 L 156.617188 34.007812 L 159.773438 30.851562 L 161.425781 29.203125 L 162.964844 27.660156 L 164.476562 26.152344 L 166.117188 24.511719 L 167.644531 22.980469 L 167.671875 22.953125 L 167.699219 22.929688 L 168.554688 22.074219 L 168.605469 22.019531 L 168.925781 21.699219 L 168.953125 21.675781 L 168.980469 21.648438 L 169.03125 21.59375 L 169.140625 21.488281 L 169.167969 21.460938 L 169.191406 21.433594 L 169.246094 21.378906 L 169.273438 21.355469 L 169.328125 21.300781 L 169.351562 21.273438 " transform="matrix(1,0,0,1,-74,-13)"/>
</g>
<g clip-path="url(#clip2)" clip-rule="nonzero">
<path style="fill:none;stroke-width:1;stroke-linecap:butt;stroke-linejoin:miter;stroke:rgb(0%,0%,0%);stroke-opacity:1;stroke-miterlimit:3.25;" d="M 198.773438 76.222656 L 206.523438 71.90625 L 214.269531 68.253906 L 222.015625 65.265625 L 229.761719 62.941406 L 237.507812 61.28125 L 245.253906 60.285156 L 253 59.957031 L 260.746094 60.285156 L 268.492188 61.28125 L 276.238281 62.941406 L 283.984375 65.265625 L 291.730469 68.253906 L 299.476562 71.90625 L 303.640625 74.226562 " transform="matrix(1,0,0,1,-74,-13)"/>
</g>
<path style="fill-rule:nonzero;fill:rgb(0%,0%,0%);fill-opacity:1;stroke-width:0.03;stroke-linecap:square;stroke-linejoin:miter;stroke:rgb(0%,0%,0%);stroke-opacity:1;stroke-miterlimit:3.25;" d="M 303.855469 72.984375 L 303.847656 73.136719 L 303.816406 73.488281 L 303.789062 73.695312 L 303.75 73.902344 L 303.703125 74.082031 L 303.640625 74.226562 L 303.558594 74.339844 L 303.429688 74.476562 L 303.273438 74.621094 L 303.105469 74.765625 L 302.808594 75.003906 L 302.675781 75.105469 L 307.226562 76.222656 Z M 303.855469 72.984375 " transform="matrix(1,0,0,1,-74,-13)"/>
<path style="fill:none;stroke-width:1.6;stroke-linecap:square;stroke-linejoin:miter;stroke:rgb(36.84082%,50.67749%,70.979309%);stroke-opacity:1;stroke-miterlimit:3.25;" d="M 336.671875 99.011719 L 414.386719 99.011719 " transform="matrix(1,0,0,1,-74,-13)"/>
<g clip-path="url(#clip3)" clip-rule="nonzero">
<path style="fill:none;stroke-width:1.6;stroke-linecap:square;stroke-linejoin:miter;stroke:rgb(36.84082%,50.67749%,70.979309%);stroke-opacity:1;stroke-miterlimit:3.25;" d="M 363.078125 99.011719 L 363.078125 98.617188 L 363.074219 98.578125 L 363.074219 98.261719 L 363.070312 98.242188 L 363.070312 98.046875 L 363.066406 97.96875 L 363.0625 97.8125 L 363.0625 97.664062 L 363.058594 97.519531 L 363.054688 97.511719 L 363.054688 97.445312 L 363.050781 97.375 L 363.046875 97.226562 L 363.046875 97.15625 L 363.042969 97.085938 L 363.039062 96.941406 L 363.035156 96.933594 L 363.035156 96.871094 L 363.03125 96.800781 L 363.023438 96.65625 L 363.023438 96.578125 L 363.019531 96.503906 L 363.011719 96.347656 L 362.992188 96.039062 L 362.992188 96.003906 L 362.988281 95.964844 L 362.984375 95.894531 L 362.976562 95.75 L 362.957031 95.460938 L 362.914062 94.835938 L 362.859375 94.226562 L 362.804688 93.65625 L 362.738281 93.042969 L 362.667969 92.46875 L 362.597656 91.90625 L 362.507812 91.300781 L 362.421875 90.738281 L 362.320312 90.128906 L 362.214844 89.53125 L 362.109375 88.980469 L 361.988281 88.382812 L 361.867188 87.828125 L 361.730469 87.230469 L 361.589844 86.644531 L 361.453125 86.105469 L 361.296875 85.519531 L 361.144531 84.976562 L 360.988281 84.449219 L 360.816406 83.882812 L 360.648438 83.355469 L 360.457031 82.789062 L 360.265625 82.234375 L 360.082031 81.726562 L 359.875 81.175781 L 359.675781 80.667969 L 359.476562 80.171875 L 359.25 79.640625 L 359.039062 79.152344 L 358.800781 78.625 L 358.570312 78.136719 L 358.34375 77.664062 L 358.089844 77.160156 L 357.847656 76.691406 L 357.578125 76.191406 L 357.3125 75.707031 L 357.054688 75.257812 L 356.773438 74.78125 L 356.503906 74.339844 L 356.234375 73.914062 L 355.9375 73.460938 L 355.65625 73.039062 L 355.644531 73.027344 L 355.636719 73.011719 L 355.617188 72.984375 L 355.578125 72.925781 L 355.496094 72.808594 L 355.492188 72.804688 L 355.488281 72.796875 L 355.476562 72.78125 L 355.457031 72.753906 L 355.417969 72.695312 L 355.410156 72.6875 L 355.40625 72.679688 L 355.398438 72.667969 L 355.375 72.636719 L 355.371094 72.632812 L 355.367188 72.625 L 355.355469 72.609375 L 355.347656 72.59375 L 355.339844 72.589844 L 355.335938 72.582031 " transform="matrix(1,0,0,1,-74,-13)"/>
</g>
<path style="fill:none;stroke-width:1.6;stroke-linecap:square;stroke-linejoin:miter;stroke:rgb(36.84082%,50.67749%,70.979309%);stroke-opacity:1;stroke-miterlimit:3.25;" d="M 355.335938 72.582031 L 355.414062 72.566406 L 355.496094 72.554688 L 355.652344 72.527344 L 356.601562 72.375 L 357.953125 72.175781 L 359.199219 72.011719 L 360.410156 71.863281 L 361.710938 71.71875 L 362.910156 71.59375 L 364.203125 71.472656 L 365.457031 71.363281 L 366.621094 71.269531 L 367.871094 71.179688 L 369.035156 71.097656 L 370.164062 71.027344 L 371.386719 70.953125 L 372.519531 70.890625 L 373.742188 70.828125 L 374.933594 70.773438 L 376.042969 70.722656 L 377.238281 70.671875 L 378.351562 70.628906 L 379.550781 70.585938 L 380.726562 70.542969 L 381.820312 70.507812 L 383 70.472656 L 384.097656 70.441406 L 385.171875 70.410156 L 386.335938 70.382812 L 387.417969 70.355469 L 388.589844 70.328125 L 389.734375 70.304688 L 390.800781 70.28125 L 391.957031 70.257812 L 393.03125 70.238281 L 394.082031 70.21875 L 395.222656 70.199219 L 396.285156 70.183594 L 397.433594 70.164062 L 398.503906 70.148438 L 399.554688 70.132812 L 400.691406 70.117188 L 401.75 70.105469 L 402.894531 70.089844 L 404.019531 70.078125 L 405.066406 70.066406 L 406.199219 70.054688 L 407.257812 70.042969 L 408.292969 70.03125 L 409.417969 70.023438 L 410.460938 70.011719 L 410.753906 70.011719 L 411.046875 70.007812 L 411.191406 70.007812 L 411.339844 70.003906 L 411.628906 70.003906 " transform="matrix(1,0,0,1,-74,-13)"/>
<g clip-path="url(#clip4)" clip-rule="nonzero">
<path style="fill:none;stroke-width:1.6;stroke-linecap:square;stroke-linejoin:miter;stroke:rgb(36.84082%,50.67749%,70.979309%);stroke-opacity:1;stroke-miterlimit:3.25;" d="M 387.953125 99.011719 L 387.953125 98.277344 L 387.949219 98.242188 L 387.949219 97.855469 L 387.945312 97.816406 L 387.945312 97.550781 L 387.941406 97.515625 L 387.941406 97.289062 L 387.9375 97.269531 L 387.9375 97.136719 L 387.925781 96.679688 L 387.925781 96.539062 L 387.914062 96.117188 L 387.914062 96.097656 L 387.910156 96.078125 L 387.910156 95.972656 L 387.90625 95.832031 L 387.894531 95.550781 L 387.894531 95.480469 L 387.890625 95.410156 L 387.886719 95.273438 L 387.875 94.996094 L 387.875 94.960938 L 387.871094 94.925781 L 387.871094 94.855469 L 387.863281 94.71875 L 387.851562 94.441406 L 387.851562 94.402344 L 387.847656 94.367188 L 387.84375 94.292969 L 387.839844 94.140625 L 387.792969 93.238281 L 387.789062 93.222656 L 387.789062 93.171875 L 387.785156 93.101562 L 387.773438 92.960938 L 387.757812 92.679688 L 387.722656 92.121094 L 387.632812 90.910156 L 387.53125 89.722656 L 387.425781 88.617188 L 387.296875 87.421875 L 387.160156 86.308594 L 387.019531 85.21875 L 386.851562 84.042969 L 386.679688 82.949219 L 386.484375 81.765625 L 386.277344 80.609375 L 386.070312 79.535156 L 385.835938 78.378906 L 385.601562 77.300781 L 385.339844 76.140625 L 385.066406 75.007812 L 384.796875 73.953125 L 384.496094 72.820312 L 384.199219 71.769531 L 383.902344 70.746094 L 383.5625 69.640625 L 383.234375 68.617188 L 382.867188 67.519531 L 382.496094 66.445312 L 382.136719 65.453125 L 381.734375 64.386719 L 381.351562 63.402344 L 380.960938 62.441406 L 380.527344 61.410156 L 380.113281 60.457031 L 379.648438 59.433594 L 379.207031 58.492188 L 378.765625 57.574219 L 378.273438 56.589844 L 377.800781 55.683594 L 377.28125 54.710938 L 376.757812 53.769531 L 376.261719 52.902344 L 375.714844 51.976562 L 375.191406 51.121094 L 374.667969 50.292969 L 374.09375 49.410156 L 373.546875 48.597656 L 373.539062 48.582031 L 373.527344 48.570312 L 373.507812 48.542969 L 373.46875 48.484375 L 373.394531 48.371094 L 373.238281 48.148438 L 373.226562 48.136719 L 373.21875 48.121094 L 373.160156 48.039062 L 373.082031 47.925781 L 373.074219 47.914062 L 373.0625 47.898438 L 373.003906 47.816406 L 372.996094 47.800781 L 372.984375 47.789062 L 372.964844 47.761719 L 372.957031 47.746094 L 372.945312 47.734375 L 372.9375 47.71875 L 372.925781 47.703125 " transform="matrix(1,0,0,1,-74,-13)"/>
</g>
<path style="fill:none;stroke-width:1.6;stroke-linecap:square;stroke-linejoin:miter;stroke:rgb(36.84082%,50.67749%,70.979309%);stroke-opacity:1;stroke-miterlimit:3.25;" d="M 372.925781 47.703125 L 372.945312 47.703125 L 372.96875 47.699219 L 373.007812 47.691406 L 373.089844 47.675781 L 373.582031 47.59375 L 374.285156 47.480469 L 374.945312 47.375 L 375.585938 47.273438 L 376.28125 47.171875 L 376.925781 47.074219 L 377.625 46.976562 L 378.304688 46.878906 L 378.941406 46.792969 L 379.628906 46.699219 L 380.265625 46.617188 L 380.890625 46.539062 L 381.566406 46.453125 L 382.195312 46.378906 L 382.875 46.296875 L 383.539062 46.222656 L 384.15625 46.152344 L 384.828125 46.078125 L 385.449219 46.011719 L 386.125 45.941406 L 386.785156 45.871094 L 387.398438 45.8125 L 388.0625 45.746094 L 388.679688 45.6875 L 389.285156 45.628906 L 389.941406 45.570312 L 390.550781 45.515625 L 391.210938 45.457031 L 391.855469 45.402344 L 392.457031 45.351562 L 393.109375 45.296875 L 393.714844 45.246094 L 394.308594 45.199219 L 394.949219 45.152344 L 395.546875 45.105469 L 396.195312 45.058594 L 396.800781 45.015625 L 397.390625 44.972656 L 398.03125 44.925781 L 398.625 44.886719 L 399.269531 44.84375 L 399.902344 44.800781 L 400.492188 44.765625 L 401.128906 44.722656 L 401.722656 44.6875 L 402.300781 44.652344 L 402.933594 44.613281 L 403.519531 44.578125 L 403.558594 44.578125 L 403.601562 44.574219 L 403.847656 44.5625 L 403.855469 44.558594 L 403.886719 44.558594 L 403.925781 44.554688 L 404.007812 44.550781 L 404.050781 44.550781 L 404.089844 44.546875 L 404.109375 44.546875 L 404.132812 44.542969 L 404.171875 44.542969 " transform="matrix(1,0,0,1,-74,-13)"/>
<g clip-path="url(#clip5)" clip-rule="nonzero">
<path style="fill:none;stroke-width:1.6;stroke-linecap:square;stroke-linejoin:miter;stroke:rgb(36.84082%,50.67749%,70.979309%);stroke-opacity:1;stroke-miterlimit:3.25;" d="M 414.386719 99.011719 L 414.386719 98.800781 L 414.382812 98.773438 L 414.382812 97.898438 L 414.378906 97.847656 L 414.378906 97.527344 L 414.375 97.316406 L 414.375 97.203125 L 414.371094 97.085938 L 414.371094 96.800781 L 414.367188 96.742188 L 414.367188 96.628906 L 414.363281 96.398438 L 414.363281 96.339844 L 414.359375 96.285156 L 414.359375 96.167969 L 414.355469 95.941406 L 414.34375 95.480469 L 414.34375 95.375 L 414.339844 95.265625 L 414.335938 95.050781 L 414.324219 94.625 L 414.320312 94.597656 L 414.320312 94.515625 L 414.316406 94.410156 L 414.308594 94.195312 L 414.296875 93.765625 L 414.296875 93.738281 L 414.292969 93.714844 L 414.292969 93.660156 L 414.289062 93.554688 L 414.28125 93.347656 L 414.265625 92.925781 L 414.265625 92.898438 L 414.261719 92.875 L 414.261719 92.820312 L 414.257812 92.714844 L 414.25 92.507812 L 414.230469 92.085938 L 414.230469 92.058594 L 414.226562 92.03125 L 414.226562 91.972656 L 414.21875 91.859375 L 414.210938 91.632812 L 414.1875 91.175781 L 414.136719 90.265625 L 414.136719 90.214844 L 414.132812 90.160156 L 414.125 90.054688 L 414.113281 89.84375 L 414.089844 89.417969 L 414.035156 88.570312 L 413.898438 86.734375 L 413.746094 84.9375 L 413.582031 83.261719 L 413.386719 81.449219 L 413.183594 79.765625 L 412.96875 78.117188 L 412.710938 76.332031 L 412.457031 74.671875 L 412.15625 72.882812 L 411.84375 71.128906 L 411.53125 69.503906 L 411.175781 67.746094 L 410.824219 66.117188 L 410.421875 64.355469 L 410.007812 62.640625 L 409.601562 61.046875 L 409.144531 59.328125 L 408.699219 57.734375 L 408.242188 56.183594 L 407.730469 54.511719 L 407.234375 52.960938 L 406.679688 51.292969 L 406.117188 49.667969 L 405.570312 48.167969 L 404.964844 46.550781 L 404.378906 45.054688 L 403.789062 43.601562 L 403.132812 42.039062 L 402.503906 40.597656 L 401.804688 39.046875 L 401.132812 37.617188 L 400.460938 36.226562 L 399.714844 34.738281 L 399.003906 33.363281 L 398.214844 31.890625 L 397.421875 30.464844 L 396.671875 29.148438 L 395.839844 27.742188 L 395.046875 26.449219 L 394.257812 25.195312 L 393.382812 23.859375 L 392.554688 22.625 L 392.542969 22.605469 L 392.527344 22.582031 L 392.496094 22.542969 L 392.4375 22.457031 L 392.324219 22.285156 L 392.089844 21.949219 L 392.074219 21.925781 L 392.058594 21.90625 L 392.027344 21.863281 L 391.96875 21.777344 L 391.851562 21.609375 L 391.835938 21.589844 L 391.824219 21.566406 L 391.792969 21.527344 L 391.734375 21.441406 L 391.71875 21.421875 L 391.703125 21.398438 L 391.675781 21.359375 L 391.660156 21.335938 L 391.644531 21.316406 L 391.628906 21.292969 L 391.617188 21.273438 " transform="matrix(1,0,0,1,-74,-13)"/>
</g>
<g clip-path="url(#clip6)" clip-rule="nonzero">
<path style="fill:none;stroke-width:1.6;stroke-linecap:square;stroke-linejoin:miter;stroke:rgb(36.84082%,50.67749%,70.979309%);stroke-opacity:1;stroke-miterlimit:3.25;" d="M 336.648438 99.011719 L 336.679688 98.964844 L 336.714844 98.917969 L 336.78125 98.820312 L 336.917969 98.628906 L 337.1875 98.25 L 337.726562 97.484375 L 338.894531 95.832031 L 339.988281 94.289062 L 341.058594 92.773438 L 342.21875 91.128906 L 343.304688 89.597656 L 344.480469 87.9375 L 345.632812 86.304688 L 346.707031 84.785156 L 347.875 83.132812 L 348.964844 81.59375 L 350.03125 80.082031 L 351.191406 78.445312 L 353.441406 75.257812 L 354.59375 73.632812 L 355.664062 72.117188 L 356.828125 70.46875 L 357.914062 68.933594 L 359.089844 67.269531 L 360.246094 65.636719 L 361.324219 64.113281 L 362.492188 62.460938 L 363.585938 60.917969 L 364.652344 59.402344 L 365.8125 57.761719 L 366.898438 56.230469 L 368.070312 54.570312 L 369.222656 52.941406 L 370.296875 51.421875 L 371.460938 49.773438 L 372.550781 48.238281 L 373.617188 46.726562 L 374.773438 45.089844 L 375.855469 43.566406 L 377.023438 41.910156 L 378.117188 40.363281 L 379.1875 38.847656 L 380.351562 37.203125 L 381.4375 35.671875 L 382.613281 34.007812 L 383.765625 32.375 L 384.84375 30.851562 L 386.007812 29.203125 L 387.097656 27.660156 L 388.167969 26.152344 L 389.328125 24.511719 L 390.410156 22.980469 L 390.425781 22.953125 L 390.445312 22.929688 L 390.484375 22.875 L 390.558594 22.769531 L 390.710938 22.554688 L 391.011719 22.128906 L 391.050781 22.074219 L 391.085938 22.019531 L 391.164062 21.914062 L 391.3125 21.699219 L 391.332031 21.675781 L 391.390625 21.59375 L 391.464844 21.488281 L 391.503906 21.433594 L 391.539062 21.378906 L 391.558594 21.355469 L 391.617188 21.273438 " transform="matrix(1,0,0,1,-74,-13)"/>
</g>
</g>
</svg>
