<?xml version="1.0" encoding="UTF-8" standalone="no"?>
<!-- Created with Inkscape (http://www.inkscape.org/) -->

<svg
   version="1.1"
   id="svg1"
   width="297.74667"
   height="162.97333"
   viewBox="0 0 297.74667 162.97333"
   sodipodi:docname="pha09f46.eps"
   xmlns:inkscape="http://www.inkscape.org/namespaces/inkscape"
   xmlns:sodipodi="http://sodipodi.sourceforge.net/DTD/sodipodi-0.dtd"
   xmlns="http://www.w3.org/2000/svg"
   xmlns:svg="http://www.w3.org/2000/svg">
  <defs
     id="defs1" />
  <sodipodi:namedview
     id="namedview1"
     pagecolor="#ffffff"
     bordercolor="#000000"
     borderopacity="0.25"
     inkscape:showpageshadow="2"
     inkscape:pageopacity="0.0"
     inkscape:pagecheckerboard="0"
     inkscape:deskcolor="#d1d1d1">
    <inkscape:page
       x="0"
       y="0"
       inkscape:label="1"
       id="page1"
       width="297.74667"
       height="162.97333"
       margin="0"
       bleed="0" />
  </sodipodi:namedview>
  <g
     id="g1"
     inkscape:groupmode="layer"
     inkscape:label="1">
    <g
       id="group-R5">
      <g
         id="g2"
         aria-label="θ&#10;o&#10; = –1&#10;θ&#10;o&#10; = –1.3&#10;θ&#10;o&#10; = –1.4&#10;25&#10;20&#10;15&#10;10&#10;5&#10;–&#10;π"
         transform="matrix(1.3333333,0,0,1.3333333,255.03733,61.4968)">
        <path
           id="path2"
           d="m 3.1419219,-6.4106859 c -1.59375,0 -2.61328127,2.671875 -2.61328127,4.5585937 0,0.93750001 0.2578125,1.95703126 1.26562497,1.95703126 1.6171875,0 2.5664063,-2.69531246 2.5664063,-4.61718746 0,-0.9726563 -0.2578125,-1.8984375 -1.21875,-1.8984375 z m -1.6992188,2.9179687 c 0.2695313,-1.3476562 0.84375,-2.6132812 1.5703125,-2.6132812 0.5859375,0 0.6445313,0.890625 0.6445313,1.3710937 0,0.4101563 -0.058594,0.796875 -0.1054688,1.2421875 z m 2.0390625,0.421875 c -0.2460937,1.4296875 -0.8203125,2.85937501 -1.5703125,2.85937501 -0.5273437,0 -0.6679687,-0.7734375 -0.6679687,-1.47656251 0,-0.46875 0.058594,-0.9257812 0.1289062,-1.3828125 z m 0,0"
           style="fill:#231f20;fill-opacity:1;fill-rule:nonzero;stroke:none" />
        <path
           id="path3"
           d="m 5.8284453,-0.69486563 c -0.5507812,0 -1.3125,0.45703125 -1.3125,1.44140625 0,0.66796878 0.4921875,1.32421878 1.3125,1.32421878 0.5976563,0 1.3007813,-0.4570313 1.3007813,-1.42968753 0,-0.73828125 -0.5507813,-1.3359375 -1.3007813,-1.3359375 z m -0.058594,0.19921875 c 0.515625,0 0.8085937,0.57421875 0.8085937,1.27734375 0,0.82031253 -0.3164062,1.08984373 -0.6796875,1.08984373 -0.4921875,0 -0.8203125,-0.5625 -0.8203125,-1.31249998 0,-0.6796875 0.3164063,-1.0546875 0.6914063,-1.0546875 z m 0,0"
           style="fill:#231f20;fill-opacity:1;fill-rule:nonzero;stroke:none" />
        <path
           id="path4"
           d="m 14.383133,-2.8950609 v -0.4453125 h -4.371094 v 0.4453125 z m 0,1.6523437 v -0.4453125 h -4.371094 v 0.4453125 z m 6.626953,-1.03125 h -3.574219 l -0.117187,0.46875 h 3.585937 z m 0,0"
           style="fill:#231f20;fill-opacity:1;fill-rule:nonzero;stroke:none" />
        <path
           id="path5"
           d="M 24.795242,-5.296875e-4 V -0.24662344 C 23.97493,-0.30521719 23.916336,-0.37552969 23.916336,-1.0317797 v -4.6875 c -0.492188,0.1992188 -1.019531,0.375 -1.59375,0.46875 v 0.2109375 l 0.433594,0.011719 c 0.386718,0.023437 0.421875,0.070312 0.421875,0.5390625 v 3.4570312 c 0,0.65625001 -0.03516,0.72656251 -0.855469,0.78515626 v 0.2460937525 z m 0,0"
           style="fill:#231f20;fill-opacity:1;fill-rule:nonzero;stroke:none" />
        <path
           id="path6"
           d="m 3.1419219,8.5893141 c -1.59375,0 -2.61328127,2.6718749 -2.61328127,4.5585939 0,0.9375 0.2578125,1.957031 1.26562497,1.957031 1.6171875,0 2.5664063,-2.695312 2.5664063,-4.617187 0,-0.9726567 -0.2578125,-1.8984379 -1.21875,-1.8984379 z M 1.4427031,11.507283 c 0.2695313,-1.347656 0.84375,-2.6132814 1.5703125,-2.6132814 0.5859375,0 0.6445313,0.890625 0.6445313,1.3710934 0,0.410157 -0.058594,0.796875 -0.1054688,1.242188 z m 2.0390625,0.421875 c -0.2460937,1.429687 -0.8203125,2.859375 -1.5703125,2.859375 -0.5273437,0 -0.6679687,-0.773438 -0.6679687,-1.476563 0,-0.46875 0.058594,-0.925781 0.1289062,-1.382812 z m 0,0"
           style="fill:#231f20;fill-opacity:1;fill-rule:nonzero;stroke:none" />
        <path
           id="path7"
           d="m 5.8284453,14.305134 c -0.5507812,0 -1.3125,0.457032 -1.3125,1.441407 0,0.667968 0.4921875,1.324218 1.3125,1.324218 0.5976563,0 1.3007813,-0.457031 1.3007813,-1.429687 0,-0.738281 -0.5507813,-1.335938 -1.3007813,-1.335938 z m -0.058594,0.199219 c 0.515625,0 0.8085937,0.574219 0.8085937,1.277344 0,0.820312 -0.3164062,1.089844 -0.6796875,1.089844 -0.4921875,0 -0.8203125,-0.5625 -0.8203125,-1.3125 0,-0.679688 0.3164063,-1.054688 0.6914063,-1.054688 z m 0,0"
           style="fill:#231f20;fill-opacity:1;fill-rule:nonzero;stroke:none" />
        <path
           id="path8"
           d="m 14.383133,12.104939 v -0.445312 h -4.371094 v 0.445312 z m 0,1.652344 V 13.31197 h -4.371094 v 0.445313 z m 6.626953,-1.03125 h -3.574219 l -0.117187,0.46875 h 3.585937 z m 0,0"
           style="fill:#231f20;fill-opacity:1;fill-rule:nonzero;stroke:none" />
        <path
           id="path9"
           d="M 24.795242,14.99947 V 14.753377 C 23.97493,14.694783 23.916336,14.62447 23.916336,13.96822 V 9.2807203 c -0.492188,0.1992188 -1.019531,0.375 -1.59375,0.46875 v 0.2109375 l 0.433594,0.011719 c 0.386718,0.023437 0.421875,0.070312 0.421875,0.5390622 v 3.457031 c 0,0.65625 -0.03516,0.726563 -0.855469,0.785157 v 0.246093 z m 1.892578,0.105469 c 0.28125,0 0.503907,-0.199219 0.503907,-0.515625 0,-0.292969 -0.222657,-0.515625 -0.503907,-0.515625 -0.292968,0 -0.503906,0.222656 -0.503906,0.515625 0,0.316406 0.210938,0.515625 0.503906,0.515625 z M 28.472,10.534627 c 0.222656,-0.328125 0.585938,-0.7148442 1.078125,-0.7148442 0.480469,0 0.855469,0.2929692 0.855469,0.8554692 0,0.65625 -0.609375,1.007812 -1.429688,1.277343 l 0.05859,0.257813 c 0.140625,-0.04687 0.363281,-0.105469 0.574219,-0.105469 0.515625,0 1.148437,0.339844 1.148437,1.171875 0,0.890625 -0.457031,1.359375 -1.089843,1.359375 -0.515625,0 -0.890625,-0.246094 -1.125,-0.457031 -0.07031,-0.05859 -0.140625,-0.04687 -0.210938,0 -0.08203,0.05859 -0.199219,0.175781 -0.210937,0.292969 -0.01172,0.117187 0.02344,0.210937 0.152343,0.328125 0.117188,0.105468 0.480469,0.304687 0.890625,0.304687 0.65625,0 2.367188,-0.667969 2.367188,-2.121094 0,-0.65625 -0.46875,-1.21875 -1.253906,-1.371093 v -0.01172 c 0.257812,-0.1875 0.480468,-0.339844 0.609375,-0.492188 0.175781,-0.164062 0.28125,-0.375 0.28125,-0.632812 0,-0.6914064 -0.527344,-1.1953127 -1.347657,-1.1953127 -0.46875,0 -0.890625,0.234375 -1.136718,0.5039063 L 28.2845,10.358845 Z m 0,0"
           style="fill:#231f20;fill-opacity:1;fill-rule:nonzero;stroke:none" />
        <path
           id="path10"
           d="m 3.1419219,23.589314 c -1.59375,0 -2.61328127,2.671875 -2.61328127,4.558594 0,0.9375 0.2578125,1.957031 1.26562497,1.957031 1.6171875,0 2.5664063,-2.695312 2.5664063,-4.617187 0,-0.972657 -0.2578125,-1.898438 -1.21875,-1.898438 z m -1.6992188,2.917969 c 0.2695313,-1.347656 0.84375,-2.613281 1.5703125,-2.613281 0.5859375,0 0.6445313,0.890625 0.6445313,1.371093 0,0.410157 -0.058594,0.796875 -0.1054688,1.242188 z m 2.0390625,0.421875 c -0.2460937,1.429687 -0.8203125,2.859375 -1.5703125,2.859375 -0.5273437,0 -0.6679687,-0.773438 -0.6679687,-1.476563 0,-0.46875 0.058594,-0.925781 0.1289062,-1.382812 z m 0,0"
           style="fill:#231f20;fill-opacity:1;fill-rule:nonzero;stroke:none" />
        <path
           id="path11"
           d="m 5.8284453,29.305134 c -0.5507812,0 -1.3125,0.457032 -1.3125,1.441407 0,0.667968 0.4921875,1.324218 1.3125,1.324218 0.5976563,0 1.3007813,-0.457031 1.3007813,-1.429687 0,-0.738281 -0.5507813,-1.335938 -1.3007813,-1.335938 z m -0.058594,0.199219 c 0.515625,0 0.8085937,0.574219 0.8085937,1.277344 0,0.820312 -0.3164062,1.089844 -0.6796875,1.089844 -0.4921875,0 -0.8203125,-0.5625 -0.8203125,-1.3125 0,-0.679688 0.3164063,-1.054688 0.6914063,-1.054688 z m 0,0"
           style="fill:#231f20;fill-opacity:1;fill-rule:nonzero;stroke:none" />
        <path
           id="path12"
           d="m 14.383133,27.104939 v -0.445312 h -4.371094 v 0.445312 z m 0,1.652344 V 28.31197 h -4.371094 v 0.445313 z m 6.626953,-1.03125 h -3.574219 l -0.117187,0.46875 h 3.585937 z m 0,0"
           style="fill:#231f20;fill-opacity:1;fill-rule:nonzero;stroke:none" />
        <path
           id="path13"
           d="m 23.260086,29.99947 v -0.140625 c -0.457031,-0.03516 -0.480469,-0.07031 -0.480469,-0.433593 v -2.601563 c -0.28125,0.105469 -0.574219,0.199219 -0.890625,0.257813 v 0.117187 l 0.234375,0.01172 c 0.222656,0.01172 0.246094,0.03516 0.246094,0.292969 v 1.921875 c 0,0.363281 -0.03516,0.398437 -0.480469,0.433593 v 0.140625 z m 2.970703,0.05859 c 0.152344,0 0.28125,-0.117187 0.28125,-0.292969 0,-0.152343 -0.128906,-0.28125 -0.28125,-0.28125 -0.164062,0 -0.28125,0.128907 -0.28125,0.28125 0,0.175782 0.117188,0.292969 0.28125,0.292969 z m 3.764649,-0.949219 V 28.87447 H 29.514969 V 26.835408 H 29.31575 c -0.515625,0.679687 -1.03125,1.417969 -1.5,2.132812 v 0.140625 h 1.300781 v 0.363282 c 0,0.328125 -0.02344,0.351562 -0.457031,0.386718 v 0.140625 h 1.277344 v -0.140625 c -0.410156,-0.03516 -0.421875,-0.05859 -0.421875,-0.386718 V 29.108845 Z M 29.116531,28.87447 h -0.996093 c 0.339843,-0.550781 0.65625,-1.03125 0.984375,-1.476562 h 0.01172 z M -116.91081,-39.398967 c -0.15235,0.316406 -0.21094,0.339844 -0.48047,0.339844 h -0.9375 l 0.70312,-0.75 c 0.46875,-0.492188 0.66797,-0.785157 0.66797,-1.21875 0,-0.527344 -0.41015,-0.84375 -0.84375,-0.84375 -0.29297,0 -0.52734,0.128906 -0.67968,0.292968 l -0.28125,0.410157 0.10546,0.09375 c 0.12891,-0.1875 0.33985,-0.46875 0.67969,-0.46875 0.375,0 0.59766,0.246093 0.59766,0.667968 0,0.433594 -0.31641,0.84375 -0.63281,1.21875 -0.2461,0.28125 -0.52735,0.574219 -0.8086,0.84375 v 0.117188 h 1.875 c 0.0586,-0.222656 0.10547,-0.445313 0.17578,-0.65625 z m 3.01758,-2.050781 h 1.16015 l 0.12891,-0.328125 -0.0234,-0.03516 h -1.42969 l -0.1875,1.523438 c 0.10547,-0.04687 0.30469,-0.09375 0.51563,-0.09375 0.53906,0 0.80859,0.316406 0.80859,0.75 0,0.375 -0.21094,0.738281 -0.63281,0.738281 -0.30469,0 -0.51563,-0.152344 -0.62109,-0.246094 -0.0469,-0.04687 -0.082,-0.03516 -0.12891,0 -0.0586,0.04687 -0.10547,0.105469 -0.10547,0.164063 -0.0117,0.05859 0.0117,0.09375 0.082,0.164062 0.0703,0.07031 0.28125,0.175782 0.51563,0.175782 0.25781,0 0.59765,-0.128907 0.86718,-0.351563 0.30469,-0.257812 0.44532,-0.539062 0.44532,-0.84375 0,-0.410156 -0.32813,-0.84375 -0.96094,-0.84375 -0.14063,0 -0.375,0.08203 -0.5625,0.152344 z m -3.01758,22.432617 c -0.15235,0.316406 -0.21094,0.339843 -0.48047,0.339843 h -0.9375 l 0.70312,-0.75 c 0.46875,-0.492187 0.66797,-0.785156 0.66797,-1.21875 0,-0.527343 -0.41015,-0.84375 -0.84375,-0.84375 -0.29297,0 -0.52734,0.128907 -0.67968,0.292969 l -0.28125,0.410156 0.10546,0.09375 c 0.12891,-0.1875 0.33985,-0.46875 0.67969,-0.46875 0.375,0 0.59766,0.246094 0.59766,0.667969 0,0.433594 -0.31641,0.84375 -0.63281,1.21875 -0.2461,0.28125 -0.52735,0.574219 -0.8086,0.84375 v 0.117188 h 1.875 c 0.0586,-0.222657 0.10547,-0.445313 0.17578,-0.65625 z m 3.45117,-2.472657 c -0.75,0 -1.01953,0.890625 -1.01953,1.617188 0,0.796875 0.26953,1.617187 1.01953,1.617187 0.76172,0 1.01953,-0.890625 1.01953,-1.617187 0,-0.773438 -0.25781,-1.617188 -1.01953,-1.617188 z m 0,0.164063 c 0.44531,0 0.57422,0.738281 0.57422,1.453125 0,0.703125 -0.11719,1.453125 -0.57422,1.453125 -0.43359,0 -0.57422,-0.761719 -0.57422,-1.464844 0,-0.691406 0.11719,-1.441406 0.57422,-1.441406 z M -117.05144,2.0649 V 1.924275 c -0.45703,-0.035156 -0.48047,-0.070312 -0.48047,-0.4335938 v -2.6015625 c -0.28125,0.1054688 -0.57421,0.1992188 -0.89062,0.25781255 v 0.1171875 l 0.23437,0.0117188 c 0.22266,0.0117188 0.2461,0.0351563 0.2461,0.29296875 v 1.9218749 c 0,0.3632813 -0.0352,0.3984375 -0.48047,0.4335938 V 2.0649 Z m 3.15821,-2.75390625 h 1.16015 l 0.12891,-0.32812505 -0.0234,-0.035156 h -1.42969 l -0.1875,1.5234375 c 0.10547,-0.046875 0.30469,-0.09375 0.51563,-0.09375 0.53906,0 0.80859,0.31640625 0.80859,0.75 0,0.375 -0.21094,0.7382812 -0.63281,0.7382812 -0.30469,0 -0.51563,-0.1523437 -0.62109,-0.2460937 -0.0469,-0.046875 -0.082,-0.035156 -0.12891,0 -0.0586,0.046875 -0.10547,0.1054687 -0.10547,0.1640625 -0.0117,0.058594 0.0117,0.09375 0.082,0.1640625 0.0703,0.070313 0.28125,0.1757812 0.51563,0.1757812 0.25781,0 0.59765,-0.1289062 0.86718,-0.3515625 0.30469,-0.2578125 0.44532,-0.5390625 0.44532,-0.84374995 0,-0.41015625 -0.32813,-0.84375 -0.96094,-0.84375 -0.14063,0 -0.375,0.08203125 -0.5625,0.15234375 z m -3.15821,23.13574225 v -0.140625 c -0.45703,-0.03516 -0.48047,-0.07031 -0.48047,-0.433594 v -2.601562 c -0.28125,0.105468 -0.57421,0.199218 -0.89062,0.257812 v 0.117188 l 0.23437,0.01172 c 0.22266,0.01172 0.2461,0.03516 0.2461,0.292969 v 1.921875 c 0,0.363281 -0.0352,0.398438 -0.48047,0.433594 v 0.140625 z m 3.5918,-3.175781 c -0.75,0 -1.01953,0.890625 -1.01953,1.617187 0,0.796875 0.26953,1.617188 1.01953,1.617188 0.76172,0 1.01953,-0.890625 1.01953,-1.617188 0,-0.773437 -0.25781,-1.617187 -1.01953,-1.617187 z m 0,0.164062 c 0.44531,0 0.57422,0.738281 0.57422,1.453125 0,0.703125 -0.11719,1.453125 -0.57422,1.453125 -0.43359,0 -0.57422,-0.761719 -0.57422,-1.464844 0,-0.691406 0.11719,-1.441406 0.57422,-1.441406 z m -0.43359,20.636719 h 1.16015 l 0.12891,-0.328125 -0.0234,-0.03516 h -1.42969 l -0.1875,1.523437 c 0.10547,-0.04687 0.30469,-0.09375 0.51563,-0.09375 0.53906,0 0.80859,0.316406 0.80859,0.75 0,0.375 -0.21094,0.738281 -0.63281,0.738281 -0.30469,0 -0.51563,-0.152343 -0.62109,-0.246093 -0.0469,-0.04687 -0.082,-0.03516 -0.12891,0 -0.0586,0.04687 -0.10547,0.105468 -0.10547,0.164062 -0.0117,0.05859 0.0117,0.09375 0.082,0.164063 0.0703,0.07031 0.28125,0.175781 0.51563,0.175781 0.25781,0 0.59765,-0.128906 0.86718,-0.351563 0.30469,-0.257812 0.44532,-0.539062 0.44532,-0.84375 0,-0.410156 -0.32813,-0.84375 -0.96094,-0.84375 -0.14063,0 -0.375,0.08203 -0.5625,0.152344 z M -188.9196,70.22115 v -0.257813 h -2.09766 v 0.257813 z m 4.2539,-4.324219 c -0.0703,0.117188 -0.11718,0.140625 -0.25781,0.140625 -0.39844,0 -0.8789,-0.01172 -1.21875,-0.01172 -0.52734,-0.01172 -0.75,0.234375 -0.8789,0.386719 l 0.082,0.117188 c 0.15234,-0.128907 0.33984,-0.1875 0.64453,-0.1875 0,0.527343 -0.0937,1.40625 -0.39844,1.851562 l 0.0352,0.09375 c 0.0937,0 0.1875,-0.02344 0.32812,-0.09375 0.0469,-0.05859 0.25781,-0.527344 0.25781,-1.746094 v -0.09375 c 0.21094,0 0.42188,0 0.70313,0 -0.0234,0.433594 -0.0469,0.84375 -0.0469,1.300782 0,0.503906 0.17579,0.632812 0.375,0.632812 0.16407,0 0.35157,-0.117187 0.45704,-0.28125 l -0.0586,-0.09375 c -0.0703,0.02344 -0.14062,0.04687 -0.21094,0.04687 -0.11718,0 -0.19921,-0.117187 -0.19921,-0.46875 0,-0.363281 0,-0.761719 0.0117,-1.125 0.10547,0 0.31641,0 0.38672,-0.02344 0.0469,-0.07031 0.0937,-0.222657 0.11719,-0.410157 z m 0,0"
           style="fill:#231f20;fill-opacity:1;fill-rule:nonzero;stroke:none" />
      </g>
      <path
         id="path14"
         d="M 2.5781231,-1.1089354 V -1.3925292 H 0.26952938 v 0.2835938 z m 0,0"
         style="fill:#231f20;fill-opacity:1;fill-rule:nonzero;stroke:none"
         aria-label="–"
         transform="matrix(1.3333333,0,0,1.2121212,5.77344,155.13323)" />
      <path
         id="path15"
         d="M 2.0611366,-0.70343562 C 1.9087928,-0.38702937 1.8501991,-0.36359187 1.5806678,-0.36359187 H 0.64316781 L 1.3462928,-1.1135919 c 0.46875,-0.4921875 0.6679688,-0.7851562 0.6679688,-1.21875 0,-0.5273437 -0.4101563,-0.84375 -0.84375,-0.84375 -0.29296879,0 -0.52734379,0.1289063 -0.67968754,0.2929688 l -0.28125,0.4101562 0.10546875,0.09375 c 0.12890625,-0.1875 0.33984375,-0.46875 0.6796875,-0.46875 0.37499999,0 0.59765629,0.2460938 0.59765629,0.6679688 0,0.4335937 -0.3164063,0.84375 -0.63281254,1.21874998 -0.24609375,0.28125 -0.52734375,0.57421875 -0.80859375,0.84375 V -3.10625e-4 H 2.0259803 C 2.0845741,-0.22296687 2.1314491,-0.44562312 2.2017616,-0.65656062 Z M 164.53282,-7.3333184 c -0.0703,0.1171875 -0.11719,0.140625 -0.25782,0.140625 -0.39843,0 -0.8789,-0.011719 -1.21875,-0.011719 -0.52734,-0.011719 -0.75,0.234375 -0.8789,0.3867188 l 0.082,0.1171875 c 0.15234,-0.1289063 0.33984,-0.1875 0.64453,-0.1875 0,0.5273437 -0.0937,1.40625 -0.39844,1.8515625 l 0.0352,0.09375 c 0.0937,0 0.1875,-0.023437 0.32812,-0.09375 0.0469,-0.058594 0.25782,-0.5273438 0.25782,-1.7460938 v -0.09375 c 0.21093,0 0.42187,0 0.70312,0 -0.0234,0.4335938 -0.0469,0.84375 -0.0469,1.3007813 0,0.5039062 0.17578,0.6328125 0.375,0.6328125 0.16406,0 0.35156,-0.1171875 0.45703,-0.28125 l -0.0586,-0.09375 c -0.0703,0.023437 -0.14062,0.046875 -0.21093,0.046875 -0.11719,0 -0.19922,-0.1171875 -0.19922,-0.46875 0,-0.3632813 0,-0.7617188 0.0117,-1.125 0.10546,0 0.3164,0 0.38671,-0.023437 0.0469,-0.070312 0.0937,-0.2226563 0.11719,-0.4101563 z m 0,0"
         style="fill:#231f20;fill-opacity:1;fill-rule:nonzero;stroke:none"
         aria-label="2&#10;π"
         transform="matrix(1.3333333,0,0,1.3333333,5.9197867,159.13323)" />
      <path
         id="path16"
         d="M 2.5785547,-1.1089354 V -1.3925292 H 0.26996094 v 0.2835938 z m 0,0"
         style="fill:#231f20;fill-opacity:1;fill-rule:nonzero;stroke:none"
         aria-label="–"
         transform="matrix(1.3333333,0,0,1.2121212,222.25333,155.13323)" />
      <path
         id="path17"
         d="M 2.0613281,-0.70343562 C 1.9089844,-0.38702937 1.8503906,-0.36359187 1.5808594,-0.36359187 H 0.64335937 L 1.3464844,-1.1135919 c 0.46875,-0.4921875 0.6679687,-0.7851562 0.6679687,-1.21875 0,-0.5273437 -0.4101562,-0.84375 -0.84375,-0.84375 -0.29296873,0 -0.52734373,0.1289063 -0.67968748,0.2929688 l -0.28125,0.4101562 0.10546875,0.09375 c 0.12890625,-0.1875 0.33984375,-0.46875 0.6796875,-0.46875 0.37500003,0 0.59765623,0.2460938 0.59765623,0.6679688 0,0.4335937 -0.3164062,0.84375 -0.63281248,1.21874998 -0.24609375,0.28125 -0.52734375,0.57421875 -0.80859375,0.84375 V -3.10625e-4 H 2.0261719 C 2.0847656,-0.22296687 2.1316406,-0.44562312 2.2019531,-0.65656062 Z M -123.33223,-3.0090997 v -0.2578125 h -2.09765 v 0.2578125 z m 4.25391,-4.3242187 c -0.0703,0.1171875 -0.11719,0.140625 -0.25781,0.140625 -0.39844,0 -0.87891,-0.011719 -1.21875,-0.011719 -0.52735,-0.011719 -0.75,0.234375 -0.87891,0.3867188 l 0.082,0.1171875 c 0.15235,-0.1289063 0.33985,-0.1875 0.64453,-0.1875 0,0.5273437 -0.0937,1.40625 -0.39843,1.8515625 l 0.0352,0.09375 c 0.0937,0 0.1875,-0.023437 0.32813,-0.09375 0.0469,-0.058594 0.25781,-0.5273438 0.25781,-1.7460938 v -0.09375 c 0.21094,0 0.42187,0 0.70312,0 -0.0234,0.4335938 -0.0469,0.84375 -0.0469,1.3007813 0,0.5039062 0.17578,0.6328125 0.375,0.6328125 0.16406,0 0.35156,-0.1171875 0.45703,-0.28125 l -0.0586,-0.09375 c -0.0703,0.023437 -0.14063,0.046875 -0.21094,0.046875 -0.11719,0 -0.19922,-0.1171875 -0.19922,-0.46875 0,-0.3632813 0,-0.7617188 0.0117,-1.125 0.10547,0 0.31641,0 0.38672,-0.023437 0.0469,-0.070312 0.0937,-0.2226563 0.11719,-0.4101563 z m 0,0"
         style="fill:#231f20;fill-opacity:1;fill-rule:nonzero;stroke:none"
         aria-label="2&#10;–&#10;π"
         transform="matrix(1.3333333,0,0,1.3333333,222.4,159.13323)" />
      <path
         id="path18"
         d="M 2.5780781,-1.1089354 V -1.3925292 H 0.26948437 v 0.2835938 z m 0,0"
         style="fill:#231f20;fill-opacity:1;fill-rule:nonzero;stroke:none"
         aria-label="–"
         transform="matrix(1.3333333,0,0,1.2121212,60.586,155.13323)" />
      <path
         id="path19"
         d="M 2.2838078,-0.89093562 V -1.1253106 H 1.8033391 V -3.1643731 H 1.6041203 c -0.515625,0.6796875 -1.03124999,1.4179687 -1.49999999,2.1328125 v 0.14062498 H 1.4049016 v 0.36328125 c 0,0.328125 -0.023437,0.3515625 -0.45703129,0.38671875 V -3.10625e-4 H 2.2252141 V -0.14093562 c -0.4101563,-0.0351563 -0.421875,-0.0585938 -0.421875,-0.38671875 V -0.89093562 Z M 1.4049016,-1.1253106 H 0.40880781 c 0.33984375,-0.5507813 0.65624999,-1.03125 0.98437499,-1.4765625 h 0.011719 z M 82.311152,-7.3333184 c -0.07031,0.1171875 -0.117188,0.140625 -0.257813,0.140625 -0.398437,0 -0.878906,-0.011719 -1.21875,-0.011719 -0.527344,-0.011719 -0.75,0.234375 -0.878906,0.3867188 l 0.08203,0.1171875 c 0.152344,-0.1289063 0.339844,-0.1875 0.644531,-0.1875 0,0.5273437 -0.09375,1.40625 -0.398437,1.8515625 l 0.03516,0.09375 c 0.09375,0 0.1875,-0.023437 0.328125,-0.09375 0.04687,-0.058594 0.257813,-0.5273438 0.257813,-1.7460938 v -0.09375 c 0.210937,0 0.421875,0 0.703125,0 -0.02344,0.4335938 -0.04687,0.84375 -0.04687,1.3007813 0,0.5039062 0.175781,0.6328125 0.375,0.6328125 0.164062,0 0.351562,-0.1171875 0.457031,-0.28125 l -0.05859,-0.09375 c -0.07031,0.023437 -0.140625,0.046875 -0.210937,0.046875 -0.117188,0 -0.199219,-0.1171875 -0.199219,-0.46875 0,-0.3632813 0,-0.7617188 0.01172,-1.125 0.105468,0 0.316406,0 0.386718,-0.023437 0.04687,-0.070312 0.09375,-0.2226563 0.117188,-0.4101563 z m 0,0"
         style="fill:#231f20;fill-opacity:1;fill-rule:nonzero;stroke:none"
         aria-label="4&#10;π"
         transform="matrix(1.3333333,0,0,1.3333333,60.732267,159.13323)" />
      <path
         id="path20"
         d="M 2.57825,-1.1089354 V -1.3925292 H 0.26965625 v 0.2835938 z m 0,0"
         style="fill:#231f20;fill-opacity:1;fill-rule:nonzero;stroke:none"
         aria-label="–"
         transform="matrix(1.3333333,0,0,1.2121212,167.43733,155.13323)" />
      <path
         id="path21"
         d="M 2.2866094,-0.89093562 V -1.1253106 H 1.8061406 V -3.1643731 H 1.6069219 c -0.515625,0.6796875 -1.03125002,1.4179687 -1.50000002,2.1328125 v 0.14062498 H 1.4077031 v 0.36328125 c 0,0.328125 -0.023437,0.3515625 -0.45703122,0.38671875 V -3.10625e-4 H 2.2280156 V -0.14093562 c -0.4101562,-0.0351563 -0.421875,-0.0585938 -0.421875,-0.38671875 V -0.89093562 Z M 1.4077031,-1.1253106 H 0.41160938 c 0.33984375,-0.5507813 0.65625002,-1.03125 0.98437502,-1.4765625 h 0.011719 z m 0,0"
         style="fill:#231f20;fill-opacity:1;fill-rule:nonzero;stroke:none"
         aria-label="4"
         transform="matrix(1.3333333,0,0,1.3333333,167.584,159.13323)" />
      <path
         id="path22"
         d="M 34.2773,163.488 H 1040.7 l 5.5,0.032 h 22 l 5.5,0.031 h 5.49 l 5.5,0.019 5.52,0.032 10.98,0.046 5.49,0.063 11,0.16 5.53,0.09 5.5,0.141 5.47,0.16 5.5,0.199 5.5,0.258 5.53,0.32 5.48,0.359 5.5,0.461 5.5,0.582 5.5,0.68 5.51,0.82 5.5,0.981 5.49,1.137 5.49,1.382 5.49,1.579 5.5,1.878 5.53,2.133 5.49,2.489 5.5,2.832 5.49,3.23 5.49,3.648 5.52,4.09 5.49,4.532 5.5,5.046 5.5,5.543 5.5,6.047 5.52,6.551 5.48,7.09 5.5,7.555 5.5,7.996 5.48,8.437 5.53,8.797 5.5,9.086 5.5,9.359 5.5,9.477 5.49,9.531 5.49,9.481 5.52,9.316 5.49,9.07 5.49,8.668 5.5,8.172 5.5,7.578 5.52,6.832 5.5,6.008 5.49,5.106 5.49,4.121 5.5,3.039 5.49,1.98 5.52,0.813 5.5,-0.321 5.5,-1.429 5.49,-2.578 5.5,-3.618 5.51,-4.628 5.5,-5.582 5.48,-6.426 5.5,-7.164 5.5,-7.84 5.53,-10.285 5.5,-8.157 5.49,-8.593 5.49,-8.875 5.5,-9.094 5.49,-9.16 5.51,-9.117 5.5,-8.985 5.5,-8.75 5.5,-8.437 5.49,-8.102 5.52,-7.68 5.49,-7.238 5.5,-6.762 5.49,-6.281 5.49,-5.789 5.53,-5.281 5.49,-4.82 5.5,-4.348 5.5,-3.91 5.48,-3.492 5.5,-3.098 5.51,-2.731 5.5,-2.402 5.5,-2.109 5.5,-1.821 5.5,-1.566 5.52,-1.344 5.49,-1.148 5.5,-0.988 5.49,-0.832 5.48,-0.711 5.53,-0.559 5.5,-0.512 5.5,-0.418 5.49,-0.3 5.5,-0.29 5.48,-0.21 5.53,-0.18 5.49,-0.129 5.49,-0.109 5.5,-0.082 5.5,-0.008 5.53,-0.032"
         style="fill:none;stroke:#3871c1;stroke-width:10;stroke-linecap:square;stroke-linejoin:miter;stroke-miterlimit:3.25;stroke-dasharray:none;stroke-opacity:1"
         transform="matrix(0.13333333,0,0,-0.13333333,0,162.97333)" />
      <path
         id="path23"
         d="M 34.2773,163.488 H 1189.19 l 5.49,0.032 h 22.01 l 5.5,0.031 h 5.49 l 5.49,0.019 5.52,0.032 5.49,0.027 11,0.101 5.5,0.079 5.52,0.089 5.48,0.09 5.5,0.16 5.5,0.184 5.48,0.227 5.53,0.32 5.5,0.359 5.5,0.481 5.5,0.562 5.49,0.68 5.49,0.859 5.52,1.039 5.49,1.262 5.49,1.469 5.5,1.808 5.5,2.133 5.52,2.5 5.5,2.969 5.49,3.441 5.49,3.981 5.5,4.609 5.49,5.309 5.52,6.019 5.5,6.821 5.5,7.679 5.49,8.59 5.5,9.563 5.51,10.547 5.5,11.562 5.48,12.629 5.5,13.645 5.5,14.668 5.53,15.656 5.5,16.574 5.49,17.453 5.49,18.199 5.5,18.836 5.49,19.344 5.51,19.691 11,39.684 5.5,19.633 5.49,19.199 5.52,18.535 5.49,17.735 5.5,16.664 5.49,15.425 5.49,14.004 5.53,12.453 5.49,10.727 5.5,8.879 5.5,7.004 5.48,5.078 5.5,3.109 5.51,1.157 5.5,-0.692 5.5,-2.476 5.5,-4.164 5.5,-5.692 5.52,-7 5.49,-8.176 5.5,-9.082 5.49,-9.851 5.48,-10.301 5.53,-10.551 5.5,-10.574 5.5,-10.355 5.49,-9.93 5.5,-9.301 5.48,-8.461 5.53,-7.465 5.49,-6.308 5.49,-5.051 5.5,-3.676 5.5,-2.242 5.53,-0.75"
         style="fill:none;stroke:#da1259;stroke-width:10;stroke-linecap:square;stroke-linejoin:miter;stroke-miterlimit:3.25;stroke-dasharray:none;stroke-opacity:1"
         transform="matrix(0.13333333,0,0,-0.13333333,0,162.97333)" />
      <path
         id="path24"
         d="M 34.2773,163.488 H 1238.69 l 5.49,0.032 h 22.02 l 10.98,0.05 h 5.5 l 5.48,0.032 5.53,0.046 11,0.102 5.5,0.09 10.98,0.262 5.52,0.168 5.49,0.218 5.49,0.282 5.5,0.371 5.5,0.429 5.52,0.578 5.5,0.684 5.49,0.859 5.49,1.059 5.5,1.281 5.49,1.559 5.52,1.91 5.5,2.262 5.5,2.718 5.49,3.192 5.5,3.808 5.51,4.461 5.5,5.207 5.48,6.063 5.5,6.969 5.5,8.031 5.53,9.141 5.5,10.39 5.49,11.719 5.49,13.121 5.5,14.613 5.49,16.188 5.51,17.84 5.5,19.515 5.5,21.192 5.5,22.89 5.49,24.582 5.52,26.231 5.49,27.773 5.5,29.258 5.49,30.566 5.49,31.743 5.53,32.754 5.49,33.55 5.5,34.137 5.5,34.484 5.48,34.579 5.5,34.433 5.51,34.004 5.5,33.383 5.5,32.48 5.5,31.352 5.5,30.051 5.52,28.543 5.49,26.929 5.5,25.125 5.49,23.273 5.48,21.39 5.53,19.43 5.5,17.48 5.5,15.53 5.49,13.66 5.5,11.79 5.48,10.03 5.53,8.33 5.49,6.73 5.49,5.12 5.5,3.62 5.5,2.16 5.53,0.7"
         style="fill:none;stroke:#2f8a3a;stroke-width:10;stroke-linecap:square;stroke-linejoin:miter;stroke-miterlimit:3.25;stroke-dasharray:none;stroke-opacity:1"
         transform="matrix(0.13333333,0,0,-0.13333333,0,162.97333)" />
      <path
         id="path25"
         d="m 34.2773,133.488 v 30"
         style="fill:none;stroke:#231f20;stroke-width:5;stroke-linecap:butt;stroke-linejoin:miter;stroke-miterlimit:3.25;stroke-dasharray:none;stroke-opacity:1"
         transform="matrix(0.13333333,0,0,-0.13333333,0,162.97333)" />
      <path
         id="path26"
         d="m 445.371,133.488 v 30"
         style="fill:none;stroke:#231f20;stroke-width:5;stroke-linecap:butt;stroke-linejoin:miter;stroke-miterlimit:3.25;stroke-dasharray:none;stroke-opacity:1"
         transform="matrix(0.13333333,0,0,-0.13333333,0,162.97333)" />
      <path
         id="path27"
         d="m 1267.55,133.488 v 30"
         style="fill:none;stroke:#231f20;stroke-width:5;stroke-linecap:butt;stroke-linejoin:miter;stroke-miterlimit:3.25;stroke-dasharray:none;stroke-opacity:1"
         transform="matrix(0.13333333,0,0,-0.13333333,0,162.97333)" />
      <path
         id="path28"
         d="m 1678.68,133.488 v 30"
         style="fill:none;stroke:#231f20;stroke-width:5;stroke-linecap:butt;stroke-linejoin:miter;stroke-miterlimit:3.25;stroke-dasharray:none;stroke-opacity:1"
         transform="matrix(0.13333333,0,0,-0.13333333,0,162.97333)" />
      <path
         id="path29"
         d="M 0,163.488 H 1712.91"
         style="fill:none;stroke:#231f20;stroke-width:5;stroke-linecap:butt;stroke-linejoin:miter;stroke-miterlimit:3.25;stroke-dasharray:none;stroke-opacity:1"
         transform="matrix(0.13333333,0,0,-0.13333333,0,162.97333)" />
      <path
         id="path30"
         d="m 856.453,163.488 h 20.32"
         style="fill:none;stroke:#231f20;stroke-width:5;stroke-linecap:butt;stroke-linejoin:miter;stroke-miterlimit:3.25;stroke-dasharray:none;stroke-opacity:1"
         transform="matrix(0.13333333,0,0,-0.13333333,0,162.97333)" />
      <path
         id="path31"
         d="m 826.453,367.293 h 30"
         style="fill:none;stroke:#231f20;stroke-width:5;stroke-linecap:butt;stroke-linejoin:miter;stroke-miterlimit:3.25;stroke-dasharray:none;stroke-opacity:1"
         transform="matrix(0.13333333,0,0,-0.13333333,0,162.97333)" />
      <path
         id="path32"
         d="m 826.453,571.098 h 30"
         style="fill:none;stroke:#231f20;stroke-width:5;stroke-linecap:butt;stroke-linejoin:miter;stroke-miterlimit:3.25;stroke-dasharray:none;stroke-opacity:1"
         transform="matrix(0.13333333,0,0,-0.13333333,0,162.97333)" />
      <path
         id="path33"
         d="m 826.453,774.902 h 30"
         style="fill:none;stroke:#231f20;stroke-width:5;stroke-linecap:butt;stroke-linejoin:miter;stroke-miterlimit:3.25;stroke-dasharray:none;stroke-opacity:1"
         transform="matrix(0.13333333,0,0,-0.13333333,0,162.97333)" />
      <path
         id="path34"
         d="m 826.453,978.699 h 30"
         style="fill:none;stroke:#231f20;stroke-width:5;stroke-linecap:butt;stroke-linejoin:miter;stroke-miterlimit:3.25;stroke-dasharray:none;stroke-opacity:1"
         transform="matrix(0.13333333,0,0,-0.13333333,0,162.97333)" />
      <path
         id="path35"
         d="m 826.453,1182.52 h 30"
         style="fill:none;stroke:#231f20;stroke-width:5;stroke-linecap:butt;stroke-linejoin:miter;stroke-miterlimit:3.25;stroke-dasharray:none;stroke-opacity:1"
         transform="matrix(0.13333333,0,0,-0.13333333,0,162.97333)" />
      <path
         id="path36"
         d="M 856.453,163.488 V 1200.97"
         style="fill:none;stroke:#231f20;stroke-width:5;stroke-linecap:butt;stroke-linejoin:miter;stroke-miterlimit:3.25;stroke-dasharray:none;stroke-opacity:1"
         transform="matrix(0.13333333,0,0,-0.13333333,0,162.97333)" />
      <path
         id="path37"
         d="m 1784.8,783.297 h 109.99"
         style="fill:none;stroke:#3871c1;stroke-width:10;stroke-linecap:square;stroke-linejoin:miter;stroke-miterlimit:3.25;stroke-dasharray:none;stroke-opacity:1"
         transform="matrix(0.13333333,0,0,-0.13333333,0,162.97333)" />
      <path
         id="path38"
         d="m 1784.8,633.309 h 109.99"
         style="fill:none;stroke:#da1259;stroke-width:10;stroke-linecap:square;stroke-linejoin:miter;stroke-miterlimit:3.25;stroke-dasharray:none;stroke-opacity:1"
         transform="matrix(0.13333333,0,0,-0.13333333,0,162.97333)" />
      <path
         id="path39"
         d="m 1784.8,483.297 h 109.99"
         style="fill:none;stroke:#2f8a3a;stroke-width:10;stroke-linecap:square;stroke-linejoin:miter;stroke-miterlimit:3.25;stroke-dasharray:none;stroke-opacity:1"
         transform="matrix(0.13333333,0,0,-0.13333333,0,162.97333)" />
    </g>
  </g>
</svg>
