<?xml version="1.0" encoding="UTF-8" standalone="no"?>
<!-- Created with Inkscape (http://www.inkscape.org/) -->

<svg
   version="1.1"
   id="svg1"
   width="146.84"
   height="129.54668"
   viewBox="0 0 146.84 129.54668"
   sodipodi:docname="pha09f03.eps"
   xmlns:inkscape="http://www.inkscape.org/namespaces/inkscape"
   xmlns:sodipodi="http://sodipodi.sourceforge.net/DTD/sodipodi-0.dtd"
   xmlns="http://www.w3.org/2000/svg"
   xmlns:svg="http://www.w3.org/2000/svg">
  <defs
     id="defs1" />
  <sodipodi:namedview
     id="namedview1"
     pagecolor="#ffffff"
     bordercolor="#000000"
     borderopacity="0.25"
     inkscape:showpageshadow="2"
     inkscape:pageopacity="0.0"
     inkscape:pagecheckerboard="0"
     inkscape:deskcolor="#d1d1d1">
    <inkscape:page
       x="0"
       y="0"
       inkscape:label="1"
       id="page1"
       width="146.84"
       height="129.54668"
       margin="0"
       bleed="0" />
  </sodipodi:namedview>
  <g
     id="g1"
     inkscape:groupmode="layer"
     inkscape:label="1">
    <g
       id="group-R5">
      <path
         id="path2"
         d="m 632.145,4.99609 c -0.079,0 -0.157,0 -0.235,0 -0.051,0 -0.105,0 -0.156,0 C 573.664,4.99219 463.145,42.457 344.016,105.23 c 6.047,-0.07 12.125,-0.101 18.25,-0.101 91.359,0 174.754,7.855 238.203,20.805 23.144,-20.063 41.508,-38.8832 54.043,-55.4223 12.676,-16.6758 19.273,-31.0898 19.222,-41.6133 -0.007,-4.4414 -1.097,-8.1718 -3.32,-11.3906 C 664.965,9.46484 651.816,4.99609 632.145,4.99609 M 124.063,250.41 c -23.145,20.063 -41.5083,38.883 -54.0435,55.426 -12.6757,16.676 -19.2773,31.09 -19.2226,41.613 0.0078,4.442 1.0976,8.172 3.3203,11.391 v 0 0 0 c 5.4492,8.039 18.5976,12.508 38.2656,12.508 0.0781,0 0.1563,0 0.2344,0 0.0508,0 0.1055,0 0.1562,0 58.0896,0 168.6176,-37.457 287.7426,-100.231 -6.047,0.071 -12.125,0.106 -18.25,0.106 -91.356,0 -174.754,-7.864 -238.203,-20.813"
         style="fill:#e9e9e9;fill-opacity:1;fill-rule:nonzero;stroke:none"
         transform="matrix(0.13333333,0,0,-0.13333333,0,129.54667)" />
      <path
         id="path3"
         d="m 52.0586,360.262 2.0586,-1.422 c 5.4726,8.07 18.6992,12.543 38.5,12.508 62.6878,0.074 186.6838,-43.629 316.6168,-115.77 77.371,-42.922 143.704,-88.539 190.598,-129.094 23.445,-20.269 42.027,-39.2809 54.68,-55.9723 12.676,-16.6758 19.273,-31.0898 19.222,-41.6133 -0.007,-4.4414 -1.097,-8.1718 -3.32,-11.3906 C 664.941,9.43359 651.715,4.96094 631.91,4.99609 569.223,4.92188 445.234,48.6328 315.297,120.77 c -77.371,42.918 -143.703,88.535 -190.598,129.089 -23.445,20.27 -42.031,39.282 -54.6795,55.977 -12.6757,16.676 -19.2773,31.09 -19.2226,41.613 0.0078,4.442 1.0976,8.172 3.3203,11.391 l -2.0586,1.422 -2.0547,1.426 c -2.8516,-4.106 -4.2148,-8.965 -4.207,-14.239 0.0508,-12.535 7.3008,-27.511 20.2383,-44.633 C 104.914,251.57 196.414,181.027 312.867,116.398 443.379,44.0547 567.277,0.0664063 631.91,-0.00390625 652.289,0.03125 667.23,4.29297 674.527,14.6602 c 2.852,4.1054 4.215,8.9648 4.207,14.2382 -0.05,12.5352 -7.3,27.5079 -20.238,44.6329 C 619.617,124.77 528.117,195.313 411.66,259.949 281.152,332.293 157.25,376.273 92.6172,376.348 72.2422,376.313 57.3008,372.051 50.0039,361.688 l 2.0547,-1.426"
         style="fill:#231f20;fill-opacity:1;fill-rule:nonzero;stroke:none"
         transform="matrix(0.13333333,0,0,-0.13333333,0,129.54667)" />
      <path
         id="path4"
         d="M 333.07,105.395 C 148.027,108.824 2.5,144.57 2.5,188.176 c 0,24.086 44.4336,45.781 115.426,60.953 47.441,-41.645 115.363,-88.566 194.941,-132.731 6.758,-3.746 13.492,-7.414 20.203,-11.003 m 273.535,21.82 c -47.441,41.64 -115.363,88.562 -194.945,132.734 -6.754,3.746 -13.488,7.41 -20.199,11 185.055,-3.426 330.57,-39.183 330.57,-82.773 0,-24.098 -44.433,-45.789 -115.426,-60.961"
         style="fill:#f4f4f4;fill-opacity:1;fill-rule:nonzero;stroke:none"
         transform="matrix(0.13333333,0,0,-0.13333333,0,129.54667)" />
      <path
         id="path5"
         d="m 362.266,105.129 c -6.125,0 -12.203,0.031 -18.25,0.101 -9.528,5.02 -19.11,10.204 -28.719,15.54 -77.371,42.918 -143.703,88.535 -190.598,129.089 -0.215,0.184 -0.426,0.368 -0.636,0.551 63.449,12.949 146.847,20.813 238.203,20.813 6.125,0 12.203,-0.035 18.25,-0.106 9.527,-5.019 19.109,-10.203 28.718,-15.539 77.371,-42.922 143.704,-88.539 190.598,-129.094 0.215,-0.183 0.426,-0.367 0.637,-0.55 -63.449,-12.95 -146.844,-20.805 -238.203,-20.805"
         style="fill:#e3e3e3;fill-opacity:1;fill-rule:nonzero;stroke:none"
         transform="matrix(0.13333333,0,0,-0.13333333,0,129.54667)" />
      <path
         id="path6"
         d="m 344.016,105.23 c -3.657,0.043 -7.321,0.098 -10.946,0.165 -6.711,3.589 -13.445,7.257 -20.203,11.003 -79.578,44.165 -147.5,91.086 -194.941,132.731 2.019,0.43 4.074,0.859 6.137,1.281 0.21,-0.183 0.421,-0.367 0.636,-0.551 46.895,-40.554 113.227,-86.171 190.598,-129.089 9.609,-5.336 19.191,-10.52 28.719,-15.54 m 256.453,20.704 c -0.211,0.183 -0.422,0.367 -0.637,0.55 -46.894,40.555 -113.227,86.172 -190.598,129.094 -9.609,5.336 -19.191,10.52 -28.718,15.539 3.656,-0.043 7.32,-0.097 10.945,-0.168 6.711,-3.59 13.445,-7.254 20.199,-11 79.582,-44.172 147.504,-91.094 194.945,-132.734 -2.019,-0.43 -4.074,-0.86 -6.136,-1.281"
         style="fill:#4f4c4c;fill-opacity:1;fill-rule:nonzero;stroke:none"
         transform="matrix(0.13333333,0,0,-0.13333333,0,129.54667)" />
      <path
         id="path7"
         d="M 2.5,188.176 H 5 c 0.00391,4.972 2.16016,9.965 6.6797,15.074 15.7812,18.008 60.2539,34.828 122.2113,46.551 61.988,11.808 141.586,18.922 228.375,18.922 99.191,0 188.992,-9.293 253.832,-24.266 32.414,-7.477 58.593,-16.394 76.465,-26.156 8.937,-4.871 15.781,-9.957 20.289,-15.051 4.519,-5.109 6.675,-10.102 6.679,-15.074 -0.004,-4.977 -2.16,-9.969 -6.679,-15.082 C 697.07,155.086 652.602,138.266 590.645,126.547 528.66,114.734 449.059,107.625 362.266,107.629 263.078,107.625 173.277,116.914 108.438,131.887 76.0234,139.363 49.8438,148.277 31.9688,158.043 23.0352,162.914 16.1875,168 11.6797,173.094 7.16016,178.207 5.00391,183.199 5,188.176 H 2.5 0 c -0.00390625,-6.496 2.875,-12.699 7.9375,-18.399 17.7656,-19.836 62.5938,-36.168 125.0155,-48.144 62.391,-11.883 142.246,-19.004 229.313,-19.004 99.511,0 189.589,9.301 254.957,24.383 32.691,7.554 59.199,16.531 77.734,26.64 9.27,5.063 16.559,10.407 21.637,16.125 5.062,5.7 7.941,11.903 7.937,18.399 0.004,6.488 -2.875,12.691 -7.937,18.39 -17.766,19.836 -62.59,36.168 -125.012,48.145 -62.391,11.887 -142.246,19.008 -229.316,19.012 C 262.758,273.719 172.68,264.418 107.313,249.328 74.6211,241.777 48.1133,232.801 29.5742,222.691 20.3047,217.629 13.0156,212.285 7.9375,206.566 2.875,200.867 -0.00390625,194.664 0,188.176 h 2.5"
         style="fill:#231f20;fill-opacity:1;fill-rule:nonzero;stroke:none"
         transform="matrix(0.13333333,0,0,-0.13333333,0,129.54667)" />
      <path
         id="path8"
         d="m 361.402,197.922 h 7.5 v 709.711 h -7.5 z"
         style="fill:#231f20;fill-opacity:1;fill-rule:nonzero;stroke:none"
         transform="matrix(0.13333333,0,0,-0.13333333,0,129.54667)" />
      <path
         id="path9"
         d="m 365.152,896.863 -21.617,-13.148 -0.492,0.738 14.004,35.25 c 2.699,12.285 5.398,24.563 8.105,36.844 2.7,-12.281 5.399,-24.559 8.106,-36.844 l 14.004,-35.25 -0.371,-0.738 -21.739,13.148"
         style="fill:#231f20;fill-opacity:1;fill-rule:nonzero;stroke:none"
         transform="matrix(0.13333333,0,0,-0.13333333,0,129.54667)" />
      <path
         id="path10"
         d="m 382.629,180.859 c 0,-10.222 -8.281,-18.507 -18.496,-18.507 -10.223,0 -18.508,8.285 -18.508,18.507 0,10.204 8.285,18.496 18.508,18.496 10.215,0 18.496,-8.292 18.496,-18.496"
         style="fill:#231f20;fill-opacity:1;fill-rule:nonzero;stroke:none"
         transform="matrix(0.13333333,0,0,-0.13333333,0,129.54667)" />
      <path
         id="path11"
         d="M 3.2336375,5.09375e-4 V -0.17527187 c -0.328125,-0.046875 -0.3632812,-0.0585938 -0.3632812,-0.45703125 V -1.7690219 c 0,-0.5976562 -0.2929688,-0.9375 -0.7734375,-0.9375 -0.1757813,0 -0.3046875,0.058594 -0.4804688,0.1640625 -0.140625,0.09375 -0.2578125,0.1875 -0.3867187,0.2695313 v -0.4570313 c -0.3164063,0.1054688 -0.6679688,0.1875 -0.9960938,0.234375 v 0.1640625 c 0.31640625,0.058594 0.33984375,0.070312 0.33984375,0.4453125 v 1.24218753 c 0,0.3984375 -0.0234375,0.421875 -0.41015625,0.46875 V 5.09375e-4 H 1.5578563 V -0.17527187 c -0.28125,-0.0351563 -0.328125,-0.0585938 -0.328125,-0.4453125 V -2.0619906 c 0.1640625,-0.1289063 0.3398437,-0.2226563 0.5273437,-0.2226563 0.28125,0 0.4570313,0.1757813 0.4570313,0.609375 v 1.00781253 c 0,0.421875 -0.035156,0.45703125 -0.3164063,0.4921875 V 5.09375e-4 Z M 7.9240672,-1.1362094 c -0.234375,0.035156 -0.5390625,0.070312 -0.84375,0.082031 -0.2109375,-0.1054688 -0.3984375,-0.1523438 -0.6210938,-0.1523438 -0.515625,0 -1.1367187,0.30468753 -1.1367187,0.98437503 0,0.38671875 0.2460937,0.6796875 0.5742187,0.796875 -0.1054687,0.1171875 -0.3046875,0.28125 -0.5859375,0.38671875 -0.011719,0.0703125 0.023437,0.19921872 0.082031,0.29296872 0.070312,0.1289063 0.2109375,0.2578125 0.4453125,0.3398438 -0.1523438,0.09375 -0.3398438,0.2226562 -0.46875,0.3398437 -0.1171875,0.09375 -0.1757813,0.1875 -0.1757813,0.328125 0,0.3398438 0.3632813,0.7265625 1.1015625,0.7265625 0.796875,0 1.5585938,-0.5507812 1.5585938,-1.2070312 0,-0.6210938 -0.5273438,-0.7265625 -0.9023438,-0.7265625 -0.1992187,0 -0.375,0.011719 -0.5859375,0.011719 -0.2695312,0 -0.375,-0.12890622 -0.375,-0.23437497 0,-0.0703125 0.058594,-0.15234375 0.1171875,-0.19921875 0.09375,0.0117188 0.1992188,0.0351563 0.2929688,0.0351563 0.5625,0 1.1132812,-0.31640625 1.1132812,-0.94921875 0,-0.19921875 -0.070312,-0.36328125 -0.1640625,-0.4921875 l 0.3398438,0.0351563 c 0.1054687,-0.0703125 0.2226562,-0.24609375 0.2578125,-0.35156253 z m -1.5117188,0.1289063 c 0.3046875,0 0.46875,0.35156248 0.46875,0.77343748 0,0.4453125 -0.1640625,0.6796875 -0.4101562,0.69140625 -0.3046875,-0.0117188 -0.46875,-0.33984375 -0.46875,-0.7734375 0,-0.45703125 0.1992187,-0.69140623 0.4101562,-0.69140623 z m 0.070312,2.6132812 c 0.234375,0 0.3867188,0.011719 0.5390625,0.058594 0.1875,0.058594 0.3164063,0.1992187 0.3164063,0.4101562 0,0.328125 -0.28125,0.5976563 -0.7734375,0.5976563 -0.46875,0 -0.7851563,-0.2695313 -0.7851563,-0.5742188 0,-0.1523437 0.082031,-0.2578125 0.1875,-0.3632812 0.09375,-0.09375 0.2226563,-0.1289063 0.515625,-0.1289065 z m 0,0"
         style="fill:#231f20;fill-opacity:1;fill-rule:nonzero;stroke:none"
         aria-label="n&#10;g"
         transform="matrix(1.3333333,0,0,1.3333333,54.969733,13.132133)" />
      <path
         id="path12"
         d="M 374.629,194.301 752.84,794.848 746.496,798.844 368.281,198.297"
         style="fill:#231f20;fill-opacity:1;fill-rule:nonzero;stroke:none"
         transform="matrix(0.13333333,0,0,-0.13333333,0,129.54667)" />
      <path
         id="path13"
         d="m 743.926,787.734 -25.305,0.395 -0.016,0.887 30.633,22.367 c 8.828,8.949 17.664,17.902 26.492,26.855 -4.253,-11.832 -8.511,-23.664 -12.769,-35.5 l -6.945,-37.285 -0.703,-0.43 -11.387,22.711"
         style="fill:#231f20;fill-opacity:1;fill-rule:nonzero;stroke:none"
         transform="matrix(0.13333333,0,0,-0.13333333,0,129.54667)" />
      <path
         id="path14"
         d="m 3.2357703,0.00111406 v -0.17578125 c -0.328125,-0.046875 -0.3632812,-0.0585938 -0.3632812,-0.45703125 V -1.7684172 c 0,-0.5976562 -0.2929688,-0.9375 -0.7734375,-0.9375 -0.1757813,0 -0.3046875,0.058594 -0.4804688,0.1640625 -0.140625,0.09375 -0.2578125,0.1875 -0.3867187,0.2695313 v -0.4570313 c -0.31640629,0.1054688 -0.66796879,0.1875 -0.99609379,0.234375 v 0.1640625 c 0.31640625,0.058594 0.33984375,0.070312 0.33984375,0.4453125 v 1.24218751 c 0,0.3984375 -0.0234375,0.421875 -0.41015625,0.46875 V 0.00111406 H 1.5599891 v -0.17578125 c -0.28125,-0.0351563 -0.328125,-0.0585938 -0.328125,-0.4453125 V -2.0613859 c 0.1640625,-0.1289063 0.3398437,-0.2226563 0.5273437,-0.2226563 0.28125,0 0.4570313,0.1757813 0.4570313,0.609375 v 1.00781251 c 0,0.421875 -0.035156,0.45703125 -0.3164063,0.4921875 v 0.17578125 z m 3.788086,-0.43359375 c -0.023437,-0.140625 -0.082031,-0.5390625 -0.140625,-0.67968751 -0.140625,-0.046875 -0.2929688,-0.09375 -0.5625,-0.09375 -0.609375,0 -0.9726563,0.36328126 -0.9726563,0.82031251 0,0.4921875 0.4570313,0.71484375 0.7617188,0.85546875 0.3398437,0.17578125 0.4570312,0.31640625 0.4570312,0.515625 0,0.21093754 -0.1640625,0.36328124 -0.3632812,0.36328124 -0.3632813,0 -0.6328125,-0.38671874 -0.7617188,-0.77343749 l -0.1757812,0.0234375 c 0,0.2578125 0.058594,0.67968749 0.1054687,0.77343749 0.1054688,0.082031 0.421875,0.1992188 0.7265625,0.1992188 0.5039063,0 1.0429688,-0.28125 1.0429688,-0.86718754 0,-0.4453125 -0.3164063,-0.65625 -0.7851563,-0.85546875 -0.2929687,-0.12890625 -0.46875,-0.26953125 -0.46875,-0.48046875 0,-0.2109375 0.1523438,-0.36328125 0.328125,-0.36328125 0.2929688,0 0.4921875,0.234375 0.6328125,0.609375 z m 0,0"
         style="fill:#231f20;fill-opacity:1;fill-rule:nonzero;stroke:none"
         aria-label="n&#10;s"
         transform="matrix(1.3333333,0,0,1.3333333,103.43173,30.947733)" />
      <path
         id="path15"
         d="m 1018.92,964.57 5.65,-21.965 10.11,20.305 0.96,-22.656 14.11,17.754 -3.75,-22.363 17.48,14.441 -8.33,-21.102 20.11,10.496 -12.54,-18.906 21.86,6.086 -16.19,-15.89 22.64,1.398 -19.14,-12.168 22.44,-3.34 -21.25,-7.922 21.25,-7.929 -22.44,-3.329 19.14,-12.175 -22.64,1.406 16.19,-15.891 -21.86,6.075 12.54,-18.895 -20.11,10.484 8.33,-21.093 -17.48,14.445 3.75,-22.371 -14.11,17.762 -0.96,-22.657 -10.11,20.305 -5.65,-21.965 -5.68,21.965 -10.1,-20.305 -0.97,22.657 -14.111,-17.762 3.765,22.371 -17.488,-14.445 8.332,21.093 -20.109,-10.484 12.531,18.895 -21.848,-6.075 16.184,15.891 -22.641,-1.406 19.145,12.175 -22.434,3.329 21.238,7.929 -21.238,7.922 22.434,3.34 -19.145,12.168 22.641,-1.398 -16.184,15.89 21.848,-6.086 -12.531,18.906 20.109,-10.496 -8.332,21.102 17.488,-14.441 -3.765,22.363 14.111,-17.754 0.97,22.656 10.1,-20.305 5.68,21.965"
         style="fill:#fddd1b;fill-opacity:1;fill-rule:nonzero;stroke:none"
         transform="matrix(0.13333333,0,0,-0.13333333,0,129.54667)" />
      <path
         id="path16"
         d="m 1018.92,964.57 -1.7,-0.437 6.83,-26.508 9.17,18.43 0.88,-20.563 12.8,16.117 -3.41,-20.3 15.86,13.105 -7.55,-19.152 18.25,9.527 -11.38,-17.156 19.84,5.519 -14.69,-14.418 20.54,1.27 -17.36,-11.043 20.35,-3.031 -19.28,-7.188 19.28,-7.199 -20.35,-3.02 17.36,-11.054 -20.55,1.277 14.7,-14.422 -19.84,5.512 11.38,-17.145 -18.25,9.516 7.55,-19.137 -15.86,13.102 3.41,-20.309 -12.8,16.129 -0.88,-20.562 -9.17,18.425 -5.14,-19.937 -5.15,19.934 -9.16,-18.422 -0.89,20.558 -12.8,-16.121 3.422,20.309 -15.875,-13.11 7.559,19.141 -18.246,-9.516 11.371,17.145 -19.832,-5.512 14.687,14.422 -20.543,-1.277 17.371,11.054 -20.355,3.02 19.273,7.199 -19.273,7.188 20.355,3.031 -17.371,11.043 20.539,-1.27 -14.679,14.418 19.828,-5.519 -11.371,17.156 18.246,-9.527 -7.559,19.152 15.875,-13.109 -3.422,20.3 12.8,-16.109 0.89,20.559 9.16,-18.426 6.85,26.504 -1.69,0.437 -1.7,-0.437 1.7,0.437 -1.7,0.438 -4.5,-17.422 -11.03,22.18 -1.07,-24.754 -15.417,19.398 4.117,-24.426 -19.105,15.774 9.101,-23.051 -21.968,11.469 13.687,-20.656 -23.863,6.648 17.68,-17.359 -24.731,1.523 20.91,-13.293 -24.508,-3.648 23.207,-8.653 -23.203,-8.66 24.504,-3.64 -20.91,-13.301 24.731,1.535 -17.672,-17.356 23.855,6.637 -13.687,-20.648 21.968,11.461 -9.101,-23.047 19.105,15.777 -4.117,-24.437 15.417,19.406 1.07,-24.75 11.03,22.18 6.2,-23.993 6.17,23.989 11.05,-22.176 1.05,24.746 15.4,-19.398 -4.09,24.437 19.1,-15.785 -9.1,23.051 21.98,-11.461 -13.7,20.648 23.87,-6.637 -17.69,17.356 24.73,-1.535 -20.9,13.301 24.51,3.64 -23.22,8.66 23.22,8.653 -24.51,3.648 20.9,13.293 -24.73,-1.523 17.69,17.359 -23.87,-6.648 13.7,20.656 -21.98,-11.469 9.1,23.055 -19.1,-15.782 4.09,24.426 -15.4,-19.39 -1.05,24.75 -11.04,-22.176 -6.18,23.988 -1.7,-6.57 1.7,-0.438"
         style="fill:#231f20;fill-opacity:1;fill-rule:nonzero;stroke:none"
         transform="matrix(0.13333333,0,0,-0.13333333,0,129.54667)" />
    </g>
  </g>
</svg>
