<?xml version="1.0" encoding="UTF-8" standalone="no"?>
<!-- Created with Inkscape (http://www.inkscape.org/) -->

<svg
   version="1.1"
   id="svg1"
   width="184.49333"
   height="140.10667"
   viewBox="0 0 184.49333 140.10667"
   sodipodi:docname="pha09f52.eps"
   xmlns:inkscape="http://www.inkscape.org/namespaces/inkscape"
   xmlns:sodipodi="http://sodipodi.sourceforge.net/DTD/sodipodi-0.dtd"
   xmlns="http://www.w3.org/2000/svg"
   xmlns:svg="http://www.w3.org/2000/svg">
  <defs
     id="defs1" />
  <sodipodi:namedview
     id="namedview1"
     pagecolor="#ffffff"
     bordercolor="#000000"
     borderopacity="0.25"
     inkscape:showpageshadow="2"
     inkscape:pageopacity="0.0"
     inkscape:pagecheckerboard="0"
     inkscape:deskcolor="#d1d1d1">
    <inkscape:page
       x="0"
       y="0"
       inkscape:label="1"
       id="page1"
       width="184.49333"
       height="140.10667"
       margin="0"
       bleed="0" />
  </sodipodi:namedview>
  <g
     id="g1"
     inkscape:groupmode="layer"
     inkscape:label="1">
    <g
       id="group-R5">
      <path
         id="path2"
         d="m 78.1953,903.641 1.25,-15.395 1.25,-6.266 1.2695,-4.769 1.25,-3.981 1.25,-3.496 1.25,-3.125 1.25,-2.871 1.25,-2.675 1.2618,-2.481 1.25,-2.344 1.25,-2.226 1.25,-2.11 1.25,-2.031 1.25,-1.933 1.2695,-1.875 1.25,-1.797 1.25,-1.739 1.2499,-1.679 1.25,-1.641 1.25,-1.586 1.27,-1.539 1.25,-1.504 1.25,-1.465 1.25,-1.425 1.25,-1.407 1.269,-1.367 1.25,-1.328 1.25,-1.309 1.25,-1.289 1.25,-1.269 1.25,-1.231 1.27,-1.211 1.25,-1.211 1.25,-1.171 1.25,-1.153 1.25,-1.133 1.25,-1.113 1.269,-1.113 2.5,-2.149 1.25,-1.054 2.5,-2.071 1.27,-1.015 2.508,-1.992 1.242,-0.981 2.508,-1.91 1.265,-0.938 1.25,-0.937 2.5,-1.84 1.25,-0.894 1.25,-0.879 1.274,-0.899 1.25,-0.863 1.25,-0.875 1.25,-0.84 1.25,-0.859 1.25,-0.84 1.265,-0.82 1.25,-0.84 1.25,-0.801 1.25,-0.82 2.5,-1.602 1.266,-0.781 2.5,-1.567 2.5,-1.519 1.269,-0.766 1.25,-0.758 2.5,-1.484 1.25,-0.723 1.25,-0.742 1.27,-0.722 1.25,-0.704 1.25,-0.722 3.75,-2.11 1.269,-0.683 1.25,-0.703 2.5,-1.367 2.5,-1.329 1.27,-0.683 1.25,-0.664 1.25,-0.645 1.25,-0.664 2.5,-1.289 1.27,-0.644 1.25,-0.649 1.25,-0.625 1.25,-0.641 2.5,-1.25 1.269,-0.628 1.25,-0.606 1.25,-0.625 3.75,-1.812 1.274,-0.606 1.25,-0.586 1.246,-0.605 3.75,-1.758 1.277,-0.586 1.25,-0.586 1.25,-0.566 1.25,-0.586 1.25,-0.567 1.269,-0.566 3.75,-1.699 1.25,-0.547 1.25,-0.567 1.266,-0.546 6.25,-2.735 1.266,-0.527 1.25,-0.547 2.5,-1.055 1.25,-0.547 1.25,-0.531 1.269,-0.504 3.75,-1.586 2.5,-1.011 1.27,-0.528 6.25,-2.539 1.269,-0.492 1.25,-0.504 1.25,-0.488 1.25,-0.508 2.5,-0.977 1.27,-0.488 6.25,-2.441 1.269,-0.469 1.25,-0.488 1.25,-0.469 1.25,-0.488 2.5,-0.938 1.27,-0.469 5.008,-1.875 1.265,-0.468 1.25,-0.45 1.25,-0.468 1.25,-0.45 1.25,-0.468 1.25,-0.45 1.274,-0.449 1.25,-0.468 5,-1.797 1.265,-0.45 1.25,-0.449 1.25,-0.429 2.5,-0.899 1.25,-0.43 1.274,-0.453 2.5,-0.855 1.25,-0.449 2.5,-0.86 1.262,-0.429 6.25,-2.149 1.269,-0.43 1.25,-0.429 1.25,-0.41 2.5,-0.864 1.25,-0.41 1.27,-0.43 2.5,-0.82 1.25,-0.43 2.5,-0.82 1.269,-0.41 5,-1.637 1.27,-0.41 3.75,-1.23 1.25,-0.391 1.25,-0.41 1.269,-0.41 1.25,-0.391 1.25,-0.41 1.25,-0.391 1.25,-0.41 1.25,-0.391 1.27,-0.394 1.258,-0.406 4.992,-1.563 1.273,-0.41 5,-1.562 1.25,-0.372 1.274,-0.39 3.75,-1.172 1.25,-0.375 1.25,-0.387 1.265,-0.39 1.25,-0.371 1.25,-0.391 1.25,-0.371 1.25,-0.395 1.25,-0.367 1.274,-0.391 2.5,-0.742 1.25,-0.39 2.5,-0.743 1.261,-0.371 2.5,-0.746 1.25,-0.386 1.25,-0.372 1.27,-0.371 3.75,-1.113 1.25,-0.351 1.25,-0.372 1.269,-0.375 2.5,-0.738 1.25,-0.351 2.5,-0.743 1.27,-0.351 2.5,-0.742 1.25,-0.352 1.25,-0.371 1.25,-0.352 1.27,-0.375 1.25,-0.347 1.25,-0.371 2.5,-0.703 1.25,-0.372 1.269,-0.351 2.5,-0.703 1.25,-0.371 2.5,-0.703 1.274,-0.352 2.496,-0.707 1.254,-0.367 2.496,-0.703 1.277,-0.352 1.25,-0.351 1.25,-0.333 2.5,-0.703 1.269,-0.351 3.75,-1.055 1.25,-0.332 1.25,-0.351 1.266,-0.352 1.25,-0.352 1.25,-0.332 2.5,-0.703 1.25,-0.332 1.266,-0.351 1.25,-0.332 2.5,-0.704 1.25,-0.332 1.25,-0.351 1.269,-0.336 1.25,-0.348 2.5,-0.664 1.25,-0.351 1.25,-0.332 1.27,-0.352 2.5,-0.668 1.25,-0.348 2.5,-0.664 1.269,-0.332 1.25,-0.351 5,-1.328 1.27,-0.332 1.25,-0.352 5,-1.328 1.269,-0.332 5,-1.328 1.27,-0.332 3.75,-0.996 1.258,-0.317 1.242,-0.328 1.273,-0.332 3.75,-1 1.25,-0.308 1.25,-0.336 1.274,-0.329 1.25,-0.332 1.25,-0.312 3.75,-0.996 1.265,-0.317 2.5,-0.66 1.25,-0.312 2.5,-0.664 1.274,-0.313 1.25,-0.336 1.25,-0.308 1.25,-0.332 1.25,-0.313 1.25,-0.332 1.262,-0.332 1.25,-0.312 1.25,-0.332 1.25,-0.313 1.25,-0.336 1.25,-0.308 1.269,-0.317 1.25,-0.328 1.25,-0.316 1.25,-0.329 1.25,-0.312 1.25,-0.332 1.27,-0.313 1.25,-0.312 1.25,-0.332 1.25,-0.313 1.25,-0.332 1.269,-0.316 1.25,-0.309 1.25,-0.336 3.75,-0.933 1.27,-0.332 2.5,-0.625 1.25,-0.332 2.5,-0.625 1.269,-0.313 1.25,-0.332 5,-1.25 1.278,-0.332 6.242,-1.562 1.273,-0.313 1.25,-0.336 5,-1.25 1.274,-0.308 5,-1.25 1.25,-0.332 1.265,-0.313 6.25,-1.562 1.266,-0.313 6.25,-1.562 1.269,-0.313 5,-1.25 1.27,-0.312 6.25,-1.563 1.269,-0.297 6.25,-1.558 1.27,-0.317 6.25,-1.558 1.27,-0.317 1.25,-0.289 5,-1.25 1.269,-0.312 3.75,-0.938 1.25,-0.293 1.25,-0.312 1.27,-0.313 6.25,-1.562 1.277,-0.313 1.25,-0.293 5,-1.25 1.269,-0.312 1.25,-0.313 1.25,-0.293 2.5,-0.625 1.266,-0.312 5,-1.25 1.25,-0.293 1.266,-0.317 6.25,-1.558 1.269,-0.317 1.25,-0.289 5,-1.25 1.27,-0.316 3.75,-0.934 1.25,-0.293 1.25,-0.312 1.269,-0.313 6.25,-1.562 1.27,-0.313 3.75,-0.937 1.25,-0.293 1.25,-0.313 1.273,-0.312 6.25,-1.563 1.274,-0.312 5,-1.25 1.265,-0.313 6.25,-1.562 1.274,-0.313 6.25,-1.562 1.265,-0.313 3.75,-0.937 1.25,-0.332 1.25,-0.313 1.274,-0.312 6.25,-1.563 1.262,-0.312 1.25,-0.336 5,-1.25 1.269,-0.309 1.25,-0.316 1.25,-0.328 3.75,-0.942 1.27,-0.328 3.75,-0.937 1.25,-0.332 1.25,-0.313 1.269,-0.312 1.258,-0.313 1.242,-0.332 2.508,-0.625 1.242,-0.332 1.27,-0.312 1.25,-0.313 1.25,-0.336 2.5,-0.625 1.273,-0.328 1.25,-0.312 1.25,-0.332 2.5,-0.625 1.25,-0.332 1.274,-0.313 1.25,-0.332 1.25,-0.312 1.25,-0.332 1.25,-0.317 1.25,-0.328 1.265,-0.313 1.25,-0.332 1.25,-0.312 1.25,-0.332 1.25,-0.313 1.25,-0.332 1.274,-0.332 1.25,-0.316 2.5,-0.66 1.25,-0.313 1.25,-0.332 1.265,-0.332 1.25,-0.312 2.5,-0.664 1.25,-0.317 1.25,-0.328 1.274,-0.332 1.25,-0.332 1.25,-0.312 3.75,-0.997 1.261,-0.332 1.25,-0.332 1.25,-0.312 3.75,-0.996 1.27,-0.332 5,-1.328 1.269,-0.332 6.25,-1.664 1.27,-0.329 1.258,-0.351 4.992,-1.328 1.273,-0.352 3.75,-0.996 1.25,-0.355 1.25,-0.328 1.274,-0.333 1.25,-0.355 2.5,-0.664 1.25,-0.348 1.25,-0.332 1.266,-0.355 1.25,-0.328 1.25,-0.352 1.25,-0.336 1.25,-0.347 1.25,-0.333 1.273,-0.355 1.25,-0.348 1.25,-0.336 1.25,-0.351 1.25,-0.328 1.25,-0.356 1.269,-0.347 1.25,-0.352 1.25,-0.336 3.75,-1.055 1.266,-0.351 1.25,-0.348 1.25,-0.336 2.5,-0.699 1.266,-0.352 6.25,-1.757 1.269,-0.371 5,-1.411 1.25,-0.371 1.27,-0.347 1.25,-0.352 1.25,-0.375 2.5,-0.699 1.25,-0.371 1.269,-0.356 1.25,-0.367 1.25,-0.351 1.25,-0.372 1.25,-0.355 1.25,-0.367 1.278,-0.352 2.5,-0.746 1.25,-0.347 2.5,-0.747 1.265,-0.371 1.25,-0.367 1.25,-0.351 3.75,-1.114 1.274,-0.371 4.993,-1.484 1.25,-0.391 1.27,-0.371 2.5,-0.746 1.25,-0.387 1.25,-0.371 1.27,-0.371 1.25,-0.391 1.25,-0.375 1.25,-0.39 1.25,-0.367 1.25,-0.391 1.27,-0.371 2.5,-0.785 1.25,-0.367 2.5,-0.782 1.27,-0.39 1.25,-0.371 5,-1.563 1.27,-0.39 2.5,-0.782 1.25,-0.41 2.5,-0.785 1.27,-0.391 1.25,-0.41 1.25,-0.387 1.25,-0.41 1.25,-0.39 1.25,-0.41 1.27,-0.391 2.5,-0.82 1.25,-0.391 2.5,-0.82 1.27,-0.411 1.25,-0.414 1.25,-0.39 1.25,-0.43 1.25,-0.41 1.27,-0.41 3.75,-1.231 1.25,-0.429 1.25,-0.411 1.27,-0.41 1.25,-0.429 1.25,-0.411 1.25,-0.429 1.25,-0.41 1.25,-0.43 1.26,-0.43 2.5,-0.855 1.25,-0.41 2.5,-0.86 1.27,-0.429 1.25,-0.45 3.75,-1.289 1.25,-0.453 1.27,-0.43 1.25,-0.449 1.25,-0.429 2.5,-0.895 1.25,-0.43 1.27,-0.449 6.25,-2.246 1.27,-0.449 1.25,-0.473 1.25,-0.449 1.25,-0.465 1.25,-0.449 1.25,-0.469 1.27,-0.453 5,-1.875 1.27,-0.469 3.75,-1.406 1.25,-0.484 1.25,-0.469 1.27,-0.488 1.25,-0.473 5,-1.949 1.27,-0.489 3.75,-1.464 1.25,-0.508 1.25,-0.488 1.27,-0.512 1.25,-0.485 5,-2.035 1.27,-0.504 1.25,-0.511 1.25,-0.524 1.25,-0.512 2.5,-1.054 1.27,-0.504 3.75,-1.586 1.25,-0.543 1.25,-0.527 1.27,-0.528 6.25,-2.738 1.27,-0.543 1.25,-0.551 1.25,-0.566 1.25,-0.543 2.5,-1.137 1.27,-0.562 2.5,-1.137 1.25,-0.586 1.25,-0.562 1.27,-0.586 5,-2.344 1.25,-0.606 1.27,-0.586 5,-2.425 1.25,-0.625 1.27,-0.606 3.75,-1.875 1.25,-0.644 1.25,-0.625 1.27,-0.645 3.75,-1.93 1.25,-0.664 1.25,-0.644 1.27,-0.668 1.25,-0.664 1.25,-0.68 1.25,-0.664 2.5,-1.371 1.27,-0.68 6.25,-3.515 1.26,-0.723 1.25,-0.727 1.25,-0.738 1.25,-0.726 2.5,-1.481 1.27,-0.766 1.25,-0.738 1.25,-0.781 1.25,-0.766 1.25,-0.777 1.27,-0.781 1.25,-0.782 3.75,-2.402 1.25,-0.82 1.27,-0.82 3.75,-2.52 1.25,-0.859 1.25,-0.883 1.27,-0.86 1.25,-0.875 2.5,-1.8 2.5,-1.832 1.27,-0.938 1.25,-0.937 2.5,-1.918 1.25,-0.973 1.25,-0.996 1.27,-0.996 2.5,-2.035 3.75,-3.164 1.27,-1.09 2.5,-2.231 1.25,-1.129 1.25,-1.156 1.25,-1.168 1.27,-1.191 2.5,-2.461 2.5,-2.539 1.25,-1.328 1.27,-1.329 1.25,-1.367 1.25,-1.406 1.25,-1.426 1.25,-1.465 1.27,-1.503 1.25,-1.547 1.25,-1.578 1.25,-1.641 1.25,-1.68 1.25,-1.742 1.27,-1.793 1.25,-1.875 1.25,-1.934 1.25,-2.031 1.25,-2.109 1.25,-2.227 1.27,-2.343 1.25,-2.481 1.25,-2.656 1.25,-2.875 1.25,-3.145 1.25,-3.496 1.27,-3.984 1.25,-4.766 1.25,-6.269 1.25,-15.391"
         style="fill:none;stroke:#3871c1;stroke-width:10;stroke-linecap:butt;stroke-linejoin:miter;stroke-miterlimit:3.25;stroke-dasharray:none;stroke-opacity:1"
         transform="matrix(0.13333333,0,0,-0.13333333,0,140.10667)" />
      <g
         id="g2"
         aria-label="2π&#10;π&#10;–1.01.0–0.50.5&#10;h"
         transform="matrix(1.3333333,0,0,1.3333333,75.8484,9.9009333)">
        <path
           id="path3"
           d="m 3.7025672,-1.2645672 c -0.2695313,0.57421876 -0.3867188,0.60937501 -0.8671875,0.60937501 h -1.6875 L 2.4252234,-1.9911297 c 0.8320313,-0.890625 1.1953125,-1.4179687 1.1953125,-2.203125 0,-0.9492187 -0.7265625,-1.5234375 -1.5117187,-1.5234375 -0.5273438,0 -0.9492188,0.234375 -1.21875001,0.5390625 l -0.515625,0.7265625 0.19921875,0.1757813 c 0.234375,-0.3515625 0.60937496,-0.8320313 1.23046876,-0.8320313 0.65625,0 1.0546875,0.4335938 1.0546875,1.1953125 0,0.7734375 -0.5625,1.5117188 -1.125,2.1796875 -0.4453125,0.515625 -0.94921876,1.03125001 -1.45312501,1.52343751 v 0.2109375 H 3.6439734 c 0.1054688,-0.41015625 0.1992188,-0.796875 0.3164063,-1.18359371 z m 0,0"
           style="fill:#231f20;fill-opacity:1;fill-rule:nonzero;stroke:none" />
        <path
           id="path4"
           d="M 9.1371375,-4.1590984 C 8.973075,-3.9130047 8.879325,-3.9012859 8.64495,-3.9012859 c -0.7148437,0 -1.5351562,-0.035156 -2.2148437,-0.035156 -1.0078125,0 -1.4296875,0.515625 -1.6757813,0.8554688 l 0.1640625,0.1992187 C 5.2465125,-3.2333172 5.5863563,-3.4090984 6.1019813,-3.3973797 5.9262,-2.3075359 5.26995,-0.53800469 4.7308875,-0.03409844 l 0.046875,0.140625 c 0.1523438,0 0.4570313,-0.0703125 0.6914063,-0.19921875 0.421875,-0.62109375 0.84375,-2.26171871 1.0546875,-3.30468751 0.3867187,0 0.75,0.011719 1.2773437,0.035156 -0.1523437,0.6445312 -0.3632812,1.4765625 -0.5507812,2.41406246 -0.1757813,0.796875 0,1.0546875 0.2929687,1.0546875 0.3867188,0 0.84375,-0.31640625 1.21875,-0.78515625 L 8.64495,-0.90128594 c -0.2109375,0.1875 -0.5039062,0.375 -0.6445312,0.375 -0.1054688,0 -0.1523438,-0.15234375 -0.046875,-0.65624996 0.140625,-0.7734375 0.3046875,-1.5703125 0.4453125,-2.1679688 0.1640625,0 0.515625,0.011719 0.6445312,-0.035156 0.09375,-0.1171875 0.2109375,-0.328125 0.328125,-0.6796875 z m 0,42.0000004 C 8.973075,38.086995 8.879325,38.098714 8.64495,38.098714 c -0.7148437,0 -1.5351562,-0.03516 -2.2148437,-0.03516 -1.0078125,0 -1.4296875,0.515625 -1.6757813,0.855469 l 0.1640625,0.199218 C 5.2465125,38.766683 5.5863563,38.590902 6.1019813,38.60262 5.9262,39.692464 5.26995,41.461995 4.7308875,41.965902 l 0.046875,0.140625 c 0.1523438,0 0.4570313,-0.07031 0.6914063,-0.199219 0.421875,-0.621094 0.84375,-2.261719 1.0546875,-3.304688 0.3867187,0 0.75,0.01172 1.2773437,0.03516 -0.1523437,0.644531 -0.3632812,1.476562 -0.5507812,2.414062 -0.1757813,0.796875 0,1.054688 0.2929687,1.054688 0.3867188,0 0.84375,-0.316407 1.21875,-0.785157 L 8.64495,41.098714 c -0.2109375,0.1875 -0.5039062,0.375 -0.6445312,0.375 -0.1054688,0 -0.1523438,-0.152344 -0.046875,-0.65625 0.140625,-0.773437 0.3046875,-1.570312 0.4453125,-2.167969 0.1640625,0 0.515625,0.01172 0.6445312,-0.03516 0.09375,-0.117187 0.2109375,-0.328125 0.328125,-0.679687 z m 0,0"
           style="fill:#231f20;fill-opacity:1;fill-rule:nonzero;stroke:none" />
        <path
           id="path5"
           d="m -52.66755,85.530355 v -0.46875 h -3.773437 v 0.46875 z m 3.916992,1.804687 v -0.246094 c -0.820312,-0.05859 -0.878906,-0.128906 -0.878906,-0.785156 v -4.6875 c -0.492188,0.199219 -1.019531,0.375 -1.59375,0.46875 v 0.210938 l 0.433594,0.01172 c 0.386718,0.02344 0.421875,0.07031 0.421875,0.539063 v 3.457031 c 0,0.65625 -0.03516,0.726563 -0.855469,0.785156 v 0.246094 z m 1.895508,0.105469 c 0.28125,0 0.503906,-0.199219 0.503906,-0.515625 0,-0.292969 -0.222656,-0.515625 -0.503906,-0.515625 -0.292969,0 -0.503906,0.222656 -0.503906,0.515625 0,0.316406 0.210937,0.515625 0.503906,0.515625 z m 3.175781,-5.824219 c -1.347656,0 -1.839843,1.605469 -1.839843,2.917969 0,1.417969 0.480468,2.90625 1.839843,2.90625 1.359375,0 1.828125,-1.59375 1.828125,-2.917969 0,-1.382812 -0.46875,-2.90625 -1.828125,-2.90625 z m 0,0.304688 c 0.808594,0 1.03125,1.324218 1.03125,2.601562 0,1.265625 -0.222656,2.613281 -1.03125,2.613281 -0.773437,0 -1.042968,-1.359375 -1.042968,-2.613281 0,-1.253906 0.222656,-2.601562 1.042968,-2.601562 z m 117.928711,5.414062 v -0.246094 c -0.820312,-0.05859 -0.878906,-0.128906 -0.878906,-0.785156 v -4.6875 c -0.492188,0.199219 -1.019531,0.375 -1.59375,0.46875 v 0.210938 l 0.433594,0.01172 c 0.386718,0.02344 0.421875,0.07031 0.421875,0.539063 v 3.457031 c 0,0.65625 -0.03516,0.726563 -0.855469,0.785156 v 0.246094 z m 1.895508,0.105469 c 0.28125,0 0.503906,-0.199219 0.503906,-0.515625 0,-0.292969 -0.222656,-0.515625 -0.503906,-0.515625 -0.292969,0 -0.503906,0.222656 -0.503906,0.515625 0,0.316406 0.210937,0.515625 0.503906,0.515625 z m 3.175781,-5.824219 c -1.347656,0 -1.839844,1.605469 -1.839844,2.917969 0,1.417969 0.480469,2.90625 1.839844,2.90625 1.359375,0 1.828125,-1.59375 1.828125,-2.917969 0,-1.382812 -0.46875,-2.90625 -1.828125,-2.90625 z m 0,0.304688 c 0.808594,0 1.03125,1.324218 1.03125,2.601562 0,1.265625 -0.222656,2.613281 -1.03125,2.613281 -0.773437,0 -1.042969,-1.359375 -1.042969,-2.613281 0,-1.253906 0.222657,-2.601562 1.042969,-2.601562 z m -100.552734,3.609375 v -0.46875 h -3.773438 v 0.46875 z m 2.619141,-3.914063 c -1.347657,0 -1.839844,1.605469 -1.839844,2.917969 0,1.417969 0.480469,2.90625 1.839844,2.90625 1.359375,0 1.828125,-1.59375 1.828125,-2.917969 0,-1.382812 -0.46875,-2.90625 -1.828125,-2.90625 z m 0,0.304688 c 0.808593,0 1.03125,1.324218 1.03125,2.601562 0,1.265625 -0.222657,2.613281 -1.03125,2.613281 -0.773438,0 -1.042969,-1.359375 -1.042969,-2.613281 0,-1.253906 0.222656,-2.601562 1.042969,-2.601562 z m 3.193359,5.519531 c 0.28125,0 0.503906,-0.199219 0.503906,-0.515625 0,-0.292969 -0.222656,-0.515625 -0.503906,-0.515625 -0.292969,0 -0.503906,0.222656 -0.503906,0.515625 0,0.316406 0.210937,0.515625 0.503906,0.515625 z m 2.393555,-5.050781 h 2.097656 l 0.234375,-0.585938 -0.05859,-0.07031 h -2.566406 l -0.351563,2.742187 c 0.210938,-0.08203 0.550782,-0.1875 0.925782,-0.1875 0.984375,0 1.464843,0.574219 1.464843,1.359375 0,0.679688 -0.375,1.335938 -1.136718,1.335938 -0.550782,0 -0.914063,-0.292969 -1.113282,-0.457032 -0.08203,-0.07031 -0.152343,-0.05859 -0.234375,0 -0.105468,0.09375 -0.1875,0.210938 -0.1875,0.292969 -0.02344,0.105469 0.02344,0.1875 0.140625,0.304688 0.128907,0.128906 0.515625,0.316406 0.925782,0.316406 0.480468,-0.01172 1.078125,-0.246094 1.570312,-0.632813 0.550781,-0.457031 0.796875,-0.960937 0.796875,-1.511718 0,-0.738282 -0.585937,-1.511719 -1.734375,-1.511719 -0.246094,0 -0.667969,0.140625 -1.007812,0.269531 z m 54.676757,-0.773438 c -1.347656,0 -1.839843,1.605469 -1.839843,2.917969 0,1.417969 0.480468,2.90625 1.839843,2.90625 1.359375,0 1.828125,-1.59375 1.828125,-2.917969 0,-1.382812 -0.46875,-2.90625 -1.828125,-2.90625 z m 0,0.304688 c 0.808594,0 1.03125,1.324218 1.03125,2.601562 0,1.265625 -0.222656,2.613281 -1.03125,2.613281 -0.773437,0 -1.042968,-1.359375 -1.042968,-2.613281 0,-1.253906 0.222656,-2.601562 1.042968,-2.601562 z m 3.19336,5.519531 c 0.28125,0 0.503906,-0.199219 0.503906,-0.515625 0,-0.292969 -0.222656,-0.515625 -0.503906,-0.515625 -0.292969,0 -0.503906,0.222656 -0.503906,0.515625 0,0.316406 0.210937,0.515625 0.503906,0.515625 z m 2.393554,-5.050781 h 2.097657 l 0.234375,-0.585938 -0.05859,-0.07031 h -2.566406 l -0.351563,2.742187 c 0.210938,-0.08203 0.550781,-0.1875 0.925781,-0.1875 0.984375,0 1.464844,0.574219 1.464844,1.359375 0,0.679688 -0.375,1.335938 -1.136719,1.335938 -0.550781,0 -0.914062,-0.292969 -1.113281,-0.457032 -0.08203,-0.07031 -0.152344,-0.05859 -0.234375,0 -0.105469,0.09375 -0.1875,0.210938 -0.1875,0.292969 -0.02344,0.105469 0.02344,0.1875 0.140625,0.304688 0.128906,0.128906 0.515625,0.316406 0.925781,0.316406 0.480469,-0.01172 1.078125,-0.246094 1.570313,-0.632813 0.550781,-0.457031 0.796875,-0.960937 0.796875,-1.511718 0,-0.738282 -0.585938,-1.511719 -1.734375,-1.511719 -0.246094,0 -0.667969,0.140625 -1.007813,0.269531 z m 0,0"
           style="fill:#231f20;fill-opacity:1;fill-rule:nonzero;stroke:none" />
        <path
           id="path6"
           d="m 15.421317,93.440511 c -0.246094,0.246094 -0.527344,0.410156 -0.621094,0.410156 -0.07031,0 -0.08203,-0.05859 -0.02344,-0.316406 l 0.46875,-2.015625 c 0.222656,-0.984375 -0.03516,-1.148438 -0.257813,-1.148438 -0.164062,0 -0.363281,0.07031 -0.597656,0.1875 -0.410156,0.222657 -1.078125,0.691407 -1.664062,1.5 h -0.02344 l 0.808594,-3.738281 c 0.05859,-0.246094 0.04687,-0.316406 -0.03516,-0.316406 -0.128907,0 -0.609375,0.246094 -1.324219,0.316406 l -0.02344,0.210938 0.257813,0.01172 c 0.351562,0.01172 0.398437,0.03516 0.304687,0.503907 -0.351562,1.851562 -0.75,3.667968 -1.136718,5.402343 l 0.05859,0.07031 c 0.199219,-0.07031 0.433594,-0.128906 0.644532,-0.164063 0.08203,-0.445312 0.246093,-1.242187 0.328125,-1.640625 0.445312,-0.785156 1.5,-1.792968 1.910156,-1.792968 0.140625,0 0.175781,0.164062 0.07031,0.644531 l -0.480468,2.085937 c -0.140625,0.621094 -0.07031,0.867188 0.164062,0.867188 0.257813,0 0.808594,-0.316406 1.289063,-0.867188 z m 0,0"
           style="fill:#231f20;fill-opacity:1;fill-rule:nonzero;stroke:none" />
      </g>
      <path
         id="path7"
         d="m 78.1953,193.543 v 30"
         style="fill:none;stroke:#231f20;stroke-width:5;stroke-linecap:butt;stroke-linejoin:miter;stroke-miterlimit:3.25;stroke-dasharray:none;stroke-opacity:1"
         transform="matrix(0.13333333,0,0,-0.13333333,0,140.10667)" />
      <path
         id="path8"
         d="m 391.215,193.543 v 30"
         style="fill:none;stroke:#231f20;stroke-width:5;stroke-linecap:butt;stroke-linejoin:miter;stroke-miterlimit:3.25;stroke-dasharray:none;stroke-opacity:1"
         transform="matrix(0.13333333,0,0,-0.13333333,0,140.10667)" />
      <path
         id="path9"
         d="m 1017.26,193.543 v 30"
         style="fill:none;stroke:#231f20;stroke-width:5;stroke-linecap:butt;stroke-linejoin:miter;stroke-miterlimit:3.25;stroke-dasharray:none;stroke-opacity:1"
         transform="matrix(0.13333333,0,0,-0.13333333,0,140.10667)" />
      <path
         id="path10"
         d="m 1330.26,193.543 v 30"
         style="fill:none;stroke:#231f20;stroke-width:5;stroke-linecap:butt;stroke-linejoin:miter;stroke-miterlimit:3.25;stroke-dasharray:none;stroke-opacity:1"
         transform="matrix(0.13333333,0,0,-0.13333333,0,140.10667)" />
      <path
         id="path11"
         d="M 78.1953,223.543 H 1330.26"
         style="fill:none;stroke:#231f20;stroke-width:5;stroke-linecap:butt;stroke-linejoin:miter;stroke-miterlimit:3.25;stroke-dasharray:none;stroke-opacity:1"
         transform="matrix(0.13333333,0,0,-0.13333333,0,140.10667)" />
      <path
         id="path12"
         d="m 704.23,223.543 h 14.836"
         style="fill:none;stroke:#231f20;stroke-width:5;stroke-linecap:butt;stroke-linejoin:miter;stroke-miterlimit:3.25;stroke-dasharray:none;stroke-opacity:1"
         transform="matrix(0.13333333,0,0,-0.13333333,0,140.10667)" />
      <path
         id="path13"
         d="m 674.23,610.457 h 30"
         style="fill:none;stroke:#231f20;stroke-width:5;stroke-linecap:butt;stroke-linejoin:miter;stroke-miterlimit:3.25;stroke-dasharray:none;stroke-opacity:1"
         transform="matrix(0.13333333,0,0,-0.13333333,0,140.10667)" />
      <path
         id="path14"
         d="m 674.23,997.352 h 30"
         style="fill:none;stroke:#231f20;stroke-width:5;stroke-linecap:butt;stroke-linejoin:miter;stroke-miterlimit:3.25;stroke-dasharray:none;stroke-opacity:1"
         transform="matrix(0.13333333,0,0,-0.13333333,0,140.10667)" />
      <path
         id="path15"
         d="M 704.23,223.543 V 997.352"
         style="fill:none;stroke:#231f20;stroke-width:5;stroke-linecap:butt;stroke-linejoin:miter;stroke-miterlimit:3.25;stroke-dasharray:none;stroke-opacity:1"
         transform="matrix(0.13333333,0,0,-0.13333333,0,140.10667)" />
    </g>
  </g>
</svg>
