<?xml version="1.0" encoding="UTF-8" standalone="no"?>
<!-- Created with Inkscape (http://www.inkscape.org/) -->

<svg
   version="1.1"
   id="svg1"
   width="229.54668"
   height="130.78667"
   viewBox="0 0 229.54668 130.78667"
   sodipodi:docname="pha09f24.eps"
   xmlns:inkscape="http://www.inkscape.org/namespaces/inkscape"
   xmlns:sodipodi="http://sodipodi.sourceforge.net/DTD/sodipodi-0.dtd"
   xmlns="http://www.w3.org/2000/svg"
   xmlns:svg="http://www.w3.org/2000/svg">
  <defs
     id="defs1" />
  <sodipodi:namedview
     id="namedview1"
     pagecolor="#ffffff"
     bordercolor="#000000"
     borderopacity="0.25"
     inkscape:showpageshadow="2"
     inkscape:pageopacity="0.0"
     inkscape:pagecheckerboard="0"
     inkscape:deskcolor="#d1d1d1">
    <inkscape:page
       x="0"
       y="0"
       inkscape:label="1"
       id="page1"
       width="229.54668"
       height="130.78667"
       margin="0"
       bleed="0" />
  </sodipodi:namedview>
  <g
     id="g1"
     inkscape:groupmode="layer"
     inkscape:label="1">
    <g
       id="group-R5">
      <path
         id="path2"
         d="m 161.762,922.523 c -0.137,-50.39 -25.614,-81.418 -70.6057,-86.21 -18.3477,58.937 -48.8633,99.449 -72.3243,128.492 1.3672,-0.614 2.6836,-1.328 4.1407,-2.008 C 61.793,943.906 101.82,924.344 161.762,922.523"
         style="fill:#cecdcd;fill-opacity:1;fill-rule:nonzero;stroke:none"
         transform="matrix(0.13333333,0,0,-0.13333333,0,130.78667)" />
      <path
         id="path3"
         d="m 170.328,922.422 c -0.211,-53.887 -28.555,-88.727 -76.7108,-94.527 2.082,-7.407 4.0625,-15.024 5.7109,-22.989 l -8.3789,-1.703 C 74.0234,883.602 32.8359,934.004 5.59375,967.352 L 0,974.336 c 0,0 1.98047,0.992 3.27734,2.656 1.29688,1.653 1.88282,3.926 1.88282,3.926 7.26954,-3.445 14.43364,-6.844 21.53904,-10.352 46.0235,-22.441 89.4458,-43.722 164.6058,-38.972 l 0.547,-8.531 c -7.461,-0.504 -14.59,-0.653 -21.524,-0.641 z M 91.1563,836.313 c 44.9917,4.792 70.4687,35.82 70.6057,86.21 -59.942,1.821 -99.969,21.383 -138.7893,40.274 -1.4571,0.68 -2.7735,1.394 -4.1407,2.008 23.461,-29.043 53.9766,-69.555 72.3243,-128.492"
         style="fill:#231f20;fill-opacity:1;fill-rule:nonzero;stroke:none"
         transform="matrix(0.13333333,0,0,-0.13333333,0,130.78667)" />
      <path
         id="path4"
         d="m 140.152,866.293 c -12.199,-14.27 -29.425,-19.547 -38.468,-11.805 -9.0629,7.778 -6.4848,25.602 5.718,39.84 12.211,14.266 29.438,19.531 38.493,11.785 9.05,-7.742 6.484,-25.582 -5.743,-39.82"
         style="fill:#ffffff;fill-opacity:1;fill-rule:nonzero;stroke:none"
         transform="matrix(0.13333333,0,0,-0.13333333,0,130.78667)" />
      <path
         id="path5"
         d="m 135.039,865.676 c -5.492,-5.84 -14,-6.77 -19.008,-2.055 -5.031,4.703 -4.648,13.242 0.84,19.102 5.492,5.847 14.004,6.781 19.024,2.066 5.011,-4.711 4.628,-13.266 -0.856,-19.113"
         style="fill:#231f20;fill-opacity:1;fill-rule:nonzero;stroke:none"
         transform="matrix(0.13333333,0,0,-0.13333333,0,130.78667)" />
      <path
         id="path6"
         d="M 186.363,168.777 H 1721.6"
         style="fill:none;stroke:#231f20;stroke-width:5;stroke-linecap:butt;stroke-linejoin:miter;stroke-miterlimit:10;stroke-dasharray:none;stroke-opacity:1"
         transform="matrix(0.13333333,0,0,-0.13333333,0,130.78667)" />
      <path
         id="path7"
         d="M 421.68,506.215 591.852,796.93"
         style="fill:none;stroke:#231f20;stroke-width:10;stroke-linecap:butt;stroke-linejoin:miter;stroke-miterlimit:10;stroke-dasharray:none;stroke-opacity:1"
         transform="matrix(0.13333333,0,0,-0.13333333,0,130.78667)" />
      <path
         id="path8"
         d="M 1625.94,169.359 V 659.195"
         style="fill:none;stroke:#231f20;stroke-width:7.5;stroke-linecap:butt;stroke-linejoin:miter;stroke-miterlimit:10;stroke-dasharray:none;stroke-opacity:1"
         transform="matrix(0.13333333,0,0,-0.13333333,0,130.78667)" />
      <path
         id="path9"
         d="m 1625.94,648.43 -21.62,-13.153 -0.49,0.739 14.01,35.25 c 2.69,12.285 5.4,24.562 8.1,36.843 2.71,-12.281 5.4,-24.558 8.11,-36.843 l 14,-35.25 -0.37,-0.739 -21.74,13.153"
         style="fill:#231f20;fill-opacity:1;fill-rule:nonzero;stroke:none"
         transform="matrix(0.13333333,0,0,-0.13333333,0,130.78667)" />
      <path
         id="path10"
         d="m 3.1413906,-6.4113141 c -1.59375,0 -2.61328122,2.671875 -2.61328122,4.5585938 0,0.93749999 0.2578125,1.95703124 1.26562502,1.95703124 1.6171875,0 2.5664062,-2.69531254 2.5664062,-4.61718754 0,-0.9726562 -0.2578125,-1.8984375 -1.21875,-1.8984375 z m -1.6992187,2.9179688 c 0.2695312,-1.3476563 0.84375,-2.6132813 1.5703125,-2.6132813 0.5859375,0 0.6445312,0.890625 0.6445312,1.3710938 0,0.4101562 -0.058594,0.796875 -0.1054687,1.2421875 z m 2.0390625,0.421875 c -0.2460938,1.4296875 -0.8203125,2.85937499 -1.5703125,2.85937499 -0.5273438,0 -0.6679688,-0.7734375 -0.6679688,-1.47656249 0,-0.46875 0.058594,-0.9257813 0.1289063,-1.3828125 z m 0,0"
         style="fill:#231f20;fill-opacity:1;fill-rule:nonzero;stroke:none"
         aria-label="θ"
         transform="matrix(1.3333333,0,0,1.3333333,207.67867,100.8492)" />
      <path
         id="path11"
         d="M 976.078,153.738 V 120.93 h 651.382 v 35.242"
         style="fill:none;stroke:#231f20;stroke-width:5;stroke-linecap:butt;stroke-linejoin:miter;stroke-miterlimit:10;stroke-dasharray:none;stroke-opacity:1"
         transform="matrix(0.13333333,0,0,-0.13333333,0,130.78667)" />
      <g
         id="g11"
         aria-label="dA&#10;dA cos θ"
         transform="matrix(1.3333333,0,0,1.3333333,166.416,126.46688)">
        <path
           id="path12"
           d="M 4.6508906,-0.45562875 4.3579219,-0.47906625 C 4.0297969,-0.52594125 3.9712031,-0.5610975 3.9712031,-1.0298475 v -5.3789063 c -0.3398437,0.1171875 -0.9375,0.2578125 -1.40625,0.3164063 V -5.88141 c 0.6445313,0.046875 0.6914063,0.082031 0.6914063,0.6679687 v 1.2773438 c -0.2109375,-0.082031 -0.46875,-0.1054688 -0.5976563,-0.1054688 -1.21875,0 -2.32031247,0.984375 -2.32031247,2.2382813 0,1.25390625 0.94921877,1.91015625 1.66406247,1.91015625 0.1054688,0 0.3515625,-0.046875 0.703125,-0.2578125 l 0.5507813,-0.328125 v 0.5859375 c 0.5273437,-0.1875 1.1953125,-0.3046875 1.3945312,-0.33984375 z m -1.3945312,-0.3046875 c -0.2109375,0.1640625 -0.5390625,0.3046875 -0.8671875,0.3046875 -0.5742188,0 -1.2304688,-0.52734375 -1.2304688,-1.59375005 0,-1.3007812 0.7617188,-1.6523437 1.171875,-1.6523437 0.3398438,0 0.7148438,0.140625 0.9257813,0.4570312 z m 0,0"
           style="fill:#231f20;fill-opacity:1;fill-rule:nonzero;stroke:none" />
        <path
           id="path13"
           d="M 10.340344,-0.24469125 C 9.6958125,-0.303285 9.6372188,-0.38531625 9.53175,-1.0298475 9.3325313,-2.0962538 9.1333125,-3.2212538 8.9575313,-4.38141 L 8.6997188,-5.97516 8.4184688,-5.9048475 5.7114375,-1.10016 C 5.2895625,-0.36187875 5.1958125,-0.31500375 4.65675,-0.24469125 L 4.5864375,0.0014025 h 1.9335938 l 0.058594,-0.24609375 c -0.6914062,-0.046875 -0.7617187,-0.1171875 -0.4921875,-0.65625 0.1992188,-0.41015625 0.46875,-0.93750005 0.6210938,-1.21875005 H 8.59425 C 8.688,-1.6040663 8.7583125,-1.1704725 8.8169063,-0.7954725 8.8755,-0.40875375 8.8403438,-0.303285 8.21925,-0.24469125 L 8.1489375,0.0014025 H 10.28175 Z M 8.5356563,-2.50641 H 6.90675 c 0.3867188,-0.7617188 0.8085938,-1.5 1.2539063,-2.3203125 h 0.023437 z m 0,0"
           style="fill:#231f20;fill-opacity:1;fill-rule:nonzero;stroke:none" />
        <path
           id="path14"
           d="m -53.494617,-85.246644 -0.292969,-0.02344 c -0.328125,-0.04687 -0.386719,-0.08203 -0.386719,-0.550781 v -5.378906 c -0.339843,0.117187 -0.9375,0.257812 -1.40625,0.316406 v 0.210937 c 0.644532,0.04687 0.691407,0.08203 0.691407,0.667969 v 1.277344 c -0.210938,-0.08203 -0.46875,-0.105469 -0.597657,-0.105469 -1.21875,0 -2.320312,0.984375 -2.320312,2.238281 0,1.253907 0.949219,1.910157 1.664062,1.910157 0.105469,0 0.351563,-0.04687 0.703125,-0.257813 l 0.550782,-0.328125 v 0.585938 c 0.527343,-0.1875 1.195312,-0.304688 1.394531,-0.339844 z m -1.394531,-0.304688 c -0.210938,0.164063 -0.539063,0.304688 -0.867188,0.304688 -0.574219,0 -1.230469,-0.527344 -1.230469,-1.59375 0,-1.300782 0.761719,-1.652344 1.171875,-1.652344 0.339844,0 0.714844,0.140625 0.925782,0.457031 z m 0,0"
           style="fill:#231f20;fill-opacity:1;fill-rule:nonzero;stroke:none" />
        <path
           id="path15"
           d="m -47.805164,-85.035707 c -0.644531,-0.05859 -0.703125,-0.140625 -0.808594,-0.785156 -0.199219,-1.066406 -0.398437,-2.191406 -0.574219,-3.351563 l -0.257812,-1.59375 -0.28125,0.07031 -2.707031,4.804687 c -0.421875,0.738282 -0.515625,0.785157 -1.054688,0.855469 l -0.07031,0.246094 h 1.933593 l 0.05859,-0.246094 c -0.691406,-0.04687 -0.761719,-0.117187 -0.492187,-0.65625 0.199218,-0.410156 0.46875,-0.9375 0.621093,-1.21875 h 1.886719 c 0.09375,0.515625 0.164063,0.949219 0.222656,1.324219 0.05859,0.386719 0.02344,0.492187 -0.597656,0.550781 l -0.07031,0.246094 h 2.132812 z m -1.804688,-2.261719 h -1.628906 c 0.386719,-0.761718 0.808594,-1.5 1.253906,-2.320312 h 0.02344 z m 0,0"
           style="fill:#231f20;fill-opacity:1;fill-rule:nonzero;stroke:none" />
        <path
           id="path16"
           d="m -41.860828,-85.785707 c -0.410156,0.386719 -0.703125,0.492188 -1.089844,0.492188 -0.503906,0 -1.359375,-0.410157 -1.359375,-1.664063 0,-0.949219 0.515625,-1.441406 1.113281,-1.441406 0.316407,0 0.632813,0.117187 0.902344,0.375 0.08203,0.07031 0.117188,0.09375 0.164063,0.09375 0.105468,0 0.304687,-0.199219 0.304687,-0.386719 0,-0.105469 -0.03516,-0.175781 -0.152344,-0.28125 -0.140625,-0.117187 -0.433593,-0.234375 -0.796875,-0.234375 -0.351562,0 -0.890625,0.140625 -1.359375,0.503906 -0.597656,0.46875 -0.902343,1.078125 -0.902343,1.769532 0,0.960937 0.667968,1.875 1.804687,1.875 0.527344,0 1.136719,-0.398438 1.523438,-0.914063 z m 2.598633,-3.046875 c -0.820313,0 -1.980469,0.679688 -1.980469,2.15625 0,1.007813 0.738281,1.992188 1.980469,1.992188 0.890625,0 1.945312,-0.691407 1.945312,-2.144532 0,-1.113281 -0.832031,-2.003906 -1.945312,-2.003906 z m -0.09375,0.304688 c 0.785156,0 1.207031,0.84375 1.207031,1.898437 0,1.242188 -0.457031,1.652344 -1.019531,1.652344 -0.738282,0 -1.230469,-0.84375 -1.230469,-1.980469 0,-1.019531 0.480469,-1.570312 1.042969,-1.570312 z m 5.258789,0.808593 c -0.03516,-0.222656 -0.128906,-0.75 -0.199219,-0.960937 -0.1875,-0.07031 -0.433594,-0.152344 -0.796875,-0.152344 -0.832031,0 -1.371094,0.527344 -1.371094,1.160156 0,0.691407 0.585938,0.996094 1.125,1.242188 0.445313,0.210937 0.703125,0.421875 0.703125,0.820312 0,0.375 -0.304687,0.632813 -0.632812,0.632813 -0.539063,0 -0.949219,-0.527344 -1.113281,-1.113281 l -0.234375,0.03516 c 0,0.328125 0.08203,0.9375 0.152343,1.066406 0.164063,0.140625 0.574219,0.304688 1.03125,0.304688 0.726563,0 1.488282,-0.421875 1.488282,-1.242188 0,-0.621094 -0.457032,-0.9375 -1.136719,-1.21875 -0.410156,-0.175781 -0.761719,-0.375 -0.761719,-0.785156 0,-0.351563 0.246094,-0.621094 0.585938,-0.621094 0.433593,0 0.75,0.363281 0.925781,0.890625 z m 0,0"
           style="fill:#231f20;fill-opacity:1;fill-rule:nonzero;stroke:none" />
        <path
           id="path17"
           d="m -28.492664,-91.199769 c -1.59375,0 -2.613281,2.671875 -2.613281,4.558593 0,0.9375 0.257812,1.957032 1.265625,1.957032 1.617187,0 2.566406,-2.695313 2.566406,-4.617188 0,-0.972656 -0.257813,-1.898437 -1.21875,-1.898437 z m -1.699219,2.917968 c 0.269531,-1.347656 0.84375,-2.613281 1.570313,-2.613281 0.585937,0 0.644531,0.890625 0.644531,1.371094 0,0.410156 -0.05859,0.796875 -0.105469,1.242187 z m 2.039063,0.421875 c -0.246094,1.429688 -0.820313,2.859375 -1.570313,2.859375 -0.527344,0 -0.667969,-0.773437 -0.667969,-1.476562 0,-0.46875 0.05859,-0.925781 0.128907,-1.382813 z m 0,0"
           style="fill:#231f20;fill-opacity:1;fill-rule:nonzero;stroke:none" />
      </g>
      <path
         id="path18"
         d="m 1146.71,459.59 125.82,90.578 176.95,-105.031"
         style="fill:none;stroke:#3871c1;stroke-width:7.5;stroke-linecap:butt;stroke-linejoin:miter;stroke-miterlimit:10;stroke-dasharray:none;stroke-opacity:1"
         transform="matrix(0.13333333,0,0,-0.13333333,0,130.78667)" />
      <path
         id="path19"
         d="m 1020.89,369.008 125.82,90.582"
         style="fill:none;stroke:#3871c1;stroke-width:20;stroke-linecap:butt;stroke-linejoin:miter;stroke-miterlimit:10;stroke-dasharray:none;stroke-opacity:1"
         transform="matrix(0.13333333,0,0,-0.13333333,0,130.78667)" />
      <path
         id="path20"
         d="m 698.813,560.344 228.125,-258.977 93.952,67.641"
         style="fill:none;stroke:#3871c1;stroke-width:7.5;stroke-linecap:butt;stroke-linejoin:miter;stroke-miterlimit:10;stroke-dasharray:none;stroke-opacity:1"
         transform="matrix(0.13333333,0,0,-0.13333333,0,130.78667)" />
      <path
         id="path21"
         d="M 551.129,425.367 698.813,560.344"
         style="fill:none;stroke:#3871c1;stroke-width:20;stroke-linecap:butt;stroke-linejoin:miter;stroke-miterlimit:10;stroke-dasharray:none;stroke-opacity:1"
         transform="matrix(0.13333333,0,0,-0.13333333,0,130.78667)" />
      <path
         id="path22"
         d="M 197.035,404.371 415.453,301.367 552.633,426.738"
         style="fill:none;stroke:#3871c1;stroke-width:7.5;stroke-linecap:butt;stroke-linejoin:miter;stroke-miterlimit:10;stroke-dasharray:none;stroke-opacity:1"
         transform="matrix(0.13333333,0,0,-0.13333333,0,130.78667)" />
      <path
         id="path23"
         d="M 519.758,673.766 1019.98,370.281"
         style="fill:none;stroke:#231f20;stroke-width:5;stroke-linecap:butt;stroke-linejoin:miter;stroke-miterlimit:10;stroke-dasharray:20, 20;stroke-dashoffset:0;stroke-opacity:1"
         transform="matrix(0.13333333,0,0,-0.13333333,0,130.78667)" />
      <path
         id="path24"
         d="M 198.961,639.645 974.535,169.098"
         style="fill:none;stroke:#231f20;stroke-width:5;stroke-linecap:butt;stroke-linejoin:miter;stroke-miterlimit:10;stroke-dasharray:none;stroke-opacity:1"
         transform="matrix(0.13333333,0,0,-0.13333333,0,130.78667)" />
      <path
         id="path25"
         d="M 369.133,931.828 1627.28,168.508"
         style="fill:none;stroke:#231f20;stroke-width:5;stroke-linecap:butt;stroke-linejoin:miter;stroke-miterlimit:10;stroke-dasharray:none;stroke-opacity:1"
         transform="matrix(0.13333333,0,0,-0.13333333,0,130.78667)" />
      <path
         id="path26"
         d="m 645.281,914.945 c -77.902,0 -98.176,-20.972 -120.703,-58.199 -16.277,-26.91 -16.598,-63.594 -11.773,-91.176"
         style="fill:none;stroke:#231f20;stroke-width:5;stroke-linecap:butt;stroke-linejoin:miter;stroke-miterlimit:10;stroke-dasharray:none;stroke-opacity:1"
         transform="matrix(0.13333333,0,0,-0.13333333,0,130.78667)" />
      <path
         id="path27"
         d="m 511.301,774.551 13.637,16.078 0.582,-0.453 -1.809,-31.559 c 1.094,-10.418 2.187,-20.84 3.277,-31.262 -5.367,9 -10.726,18 -16.093,27.004 l -20.344,24.196 0.097,0.679 20.653,-4.683"
         style="fill:#231f20;fill-opacity:1;fill-rule:nonzero;stroke:none"
         transform="matrix(0.13333333,0,0,-0.13333333,0,130.78667)" />
    </g>
  </g>
</svg>
