<?xml version="1.0" encoding="UTF-8" standalone="no"?>
<!-- Created with Inkscape (http://www.inkscape.org/) -->

<svg
   version="1.1"
   id="svg1"
   width="127.17333"
   height="104.73333"
   viewBox="0 0 127.17333 104.73333"
   sodipodi:docname="pha09f49.eps"
   xmlns:inkscape="http://www.inkscape.org/namespaces/inkscape"
   xmlns:sodipodi="http://sodipodi.sourceforge.net/DTD/sodipodi-0.dtd"
   xmlns="http://www.w3.org/2000/svg"
   xmlns:svg="http://www.w3.org/2000/svg">
  <defs
     id="defs1" />
  <sodipodi:namedview
     id="namedview1"
     pagecolor="#ffffff"
     bordercolor="#000000"
     borderopacity="0.25"
     inkscape:showpageshadow="2"
     inkscape:pageopacity="0.0"
     inkscape:pagecheckerboard="0"
     inkscape:deskcolor="#d1d1d1">
    <inkscape:page
       x="0"
       y="0"
       inkscape:label="1"
       id="page1"
       width="127.17333"
       height="104.73333"
       margin="0"
       bleed="0" />
  </sodipodi:namedview>
  <g
     id="g1"
     inkscape:groupmode="layer"
     inkscape:label="1">
    <g
       id="group-R5">
      <g
         id="g2"
         aria-label="ω&#10;o&#10;θ&#10;t"
         transform="matrix(1.3333333,0,0,1.3333333,15.1584,9.9005333)">
        <path
           id="path2"
           d="m 4.3606922,-3.8423922 c 0.2929687,0.2578125 0.5039062,0.7148438 0.5039062,1.3828125 -0.011719,1.0078125 -0.3984375,2.05078126 -1.1367187,2.05078126 -0.3046875,0 -0.515625,-0.3046875 -0.4921875,-0.87890626 0.023437,-0.46875 0.234375,-1.359375 0.3515625,-1.7226562 l -0.058594,-0.035156 -0.6679687,0.140625 c -0.035156,0.28125 -0.09375,0.75 -0.1875,1.1367188 -0.1992188,0.85546871 -0.5625,1.31249996 -0.9492188,1.31249996 -0.28125,0 -0.5390625,-0.33984375 -0.5390625,-0.99609376 0,-1.0078125 0.46875,-1.921875 1.1601563,-2.4492187 L 2.204442,-4.1002044 c -1.0429688,0.5390625 -1.75781251,1.5585938 -1.75781251,2.765625 0,0.93750001 0.421875,1.44140626 0.93750001,1.44140626 0.3867187,0 0.9023437,-0.3984375 1.2304687,-0.890625 0.046875,0.50390625 0.328125,0.890625 0.7617188,0.890625 0.375,0 0.7382812,-0.22265625 1.0664062,-0.515625 0.5625,-0.52734375 0.9960938,-1.30078126 0.9960938,-2.21484376 0,-0.9023437 -0.3984375,-1.4179687 -0.6914063,-1.4179687 -0.1523437,0 -0.3164062,0.070313 -0.375,0.1289062 z m 0,0"
           style="fill:#231f20;fill-opacity:1;fill-rule:nonzero;stroke:none" />
        <path
           id="path3"
           d="m 7.2757312,-0.69590781 c -0.5507812,0 -1.3125,0.45703125 -1.3125,1.44140625 0,0.66796876 0.4921875,1.32421876 1.3125,1.32421876 0.5976563,0 1.3007813,-0.4570313 1.3007813,-1.42968751 0,-0.73828125 -0.5507812,-1.3359375 -1.3007813,-1.3359375 z m -0.058594,0.19921875 c 0.515625,0 0.8085938,0.57421875 0.8085938,1.27734375 0,0.82031251 -0.3164063,1.08984371 -0.6796876,1.08984371 -0.4921875,0 -0.8203125,-0.5625 -0.8203125,-1.31249996 0,-0.6796875 0.3164063,-1.0546875 0.6914063,-1.0546875 z m 0,0"
           style="fill:#231f20;fill-opacity:1;fill-rule:nonzero;stroke:none" />
        <path
           id="path4"
           d="m 31.47495,47.336319 c -1.59375,0 -2.613281,2.671875 -2.613281,4.558594 0,0.9375 0.257812,1.957031 1.265625,1.957031 1.617187,0 2.566406,-2.695313 2.566406,-4.617188 0,-0.972656 -0.257813,-1.898437 -1.21875,-1.898437 z m -1.699219,2.917969 c 0.269531,-1.347657 0.84375,-2.613282 1.570313,-2.613282 0.585937,0 0.644531,0.890625 0.644531,1.371094 0,0.410156 -0.05859,0.796875 -0.105469,1.242188 z m 2.039063,0.421875 c -0.246094,1.429687 -0.820313,2.859375 -1.570313,2.859375 -0.527344,0 -0.667969,-0.773438 -0.667969,-1.476563 0,-0.46875 0.05859,-0.925781 0.128907,-1.382812 z m 0,0"
           style="fill:#231f20;fill-opacity:1;fill-rule:nonzero;stroke:none" />
        <path
           id="path5"
           d="m 34.419286,55.536514 -0.05859,-0.164062 c -0.08203,0.04687 -0.222656,0.105468 -0.375,0.105468 -0.152344,0 -0.339844,-0.09375 -0.339844,-0.574218 v -1.546875 h 0.632813 c 0.07031,-0.03516 0.09375,-0.175782 0.03516,-0.234375 h -0.667969 v -0.820313 l -0.09375,-0.01172 -0.386718,0.398438 v 0.433594 h -0.269532 l -0.164062,0.175781 0.02344,0.05859 h 0.410157 v 1.746093 c 0,0.480469 0.210937,0.714844 0.585937,0.714844 0.05859,0 0.152344,-0.02344 0.257813,-0.08203 z m 0,0"
           style="fill:#231f20;fill-opacity:1;fill-rule:nonzero;stroke:none" />
      </g>
      <path
         id="path6"
         d="m 373.223,441.805 c 0,-9.66 -7.836,-17.5 -17.5,-17.5 -9.664,0 -17.5,7.84 -17.5,17.5 0,9.664 7.836,17.5 17.5,17.5 9.664,0 17.5,-7.836 17.5,-17.5"
         style="fill:#231f20;fill-opacity:1;fill-rule:nonzero;stroke:none"
         transform="matrix(0.13333333,0,0,-0.13333333,0,104.73333)" />
      <path
         id="path7"
         d="M 0,441.805 H 953.75"
         style="fill:none;stroke:#231f20;stroke-width:5;stroke-linecap:butt;stroke-linejoin:miter;stroke-miterlimit:10;stroke-dasharray:none;stroke-opacity:1"
         transform="matrix(0.13333333,0,0,-0.13333333,0,104.73333)" />
      <path
         id="path8"
         d="M 0,2.5 H 953.75"
         style="fill:none;stroke:#231f20;stroke-width:5;stroke-linecap:butt;stroke-linejoin:miter;stroke-miterlimit:10;stroke-dasharray:none;stroke-opacity:1"
         transform="matrix(0.13333333,0,0,-0.13333333,0,104.73333)" />
      <path
         id="path9"
         d="M 57.1992,712.77 355.723,441.805"
         style="fill:none;stroke:#231f20;stroke-width:7.5;stroke-linecap:butt;stroke-linejoin:miter;stroke-miterlimit:10;stroke-dasharray:none;stroke-opacity:1"
         transform="matrix(0.13333333,0,0,-0.13333333,0,104.73333)" />
      <path
         id="path10"
         d="m 65.1719,705.531 24.2617,7.168 -0.2148,0.86 -35.5118,13.324 c -10.9101,6.258 -21.8164,12.512 -32.7304,18.762 7.2812,-10.254 14.5547,-20.508 21.832,-30.766 l 16.6953,-34.059 0.793,-0.222 4.875,24.933"
         style="fill:#231f20;fill-opacity:1;fill-rule:nonzero;stroke:none"
         transform="matrix(0.13333333,0,0,-0.13333333,0,104.73333)" />
      <path
         id="path11"
         d="M 639.668,2.5 355.723,441.805"
         style="fill:none;stroke:#231f20;stroke-width:7.5;stroke-linecap:butt;stroke-linejoin:miter;stroke-miterlimit:10;stroke-dasharray:none;stroke-opacity:1"
         transform="matrix(0.13333333,0,0,-0.13333333,0,104.73333)" />
      <path
         id="path12"
         d="m 357.266,440.391 v -10"
         style="fill:none;stroke:#231f20;stroke-width:5;stroke-linecap:butt;stroke-linejoin:miter;stroke-miterlimit:10;stroke-dasharray:none;stroke-opacity:1"
         transform="matrix(0.13333333,0,0,-0.13333333,0,104.73333)" />
      <path
         id="path13"
         d="M 357.266,410.492 V 22.4492"
         style="fill:none;stroke:#231f20;stroke-width:5;stroke-linecap:butt;stroke-linejoin:miter;stroke-miterlimit:10;stroke-dasharray:19.8996, 19.8996;stroke-dashoffset:0;stroke-opacity:1"
         transform="matrix(0.13333333,0,0,-0.13333333,0,104.73333)" />
      <path
         id="path14"
         d="M 357.266,12.5 V 2.5"
         style="fill:none;stroke:#231f20;stroke-width:5;stroke-linecap:butt;stroke-linejoin:miter;stroke-miterlimit:10;stroke-dasharray:none;stroke-opacity:1"
         transform="matrix(0.13333333,0,0,-0.13333333,0,104.73333)" />
      <path
         id="path15"
         d="M 455.859,286.875 C 427.02,268.203 392.637,257.352 355.723,257.352"
         style="fill:none;stroke:#231f20;stroke-width:5;stroke-linecap:butt;stroke-linejoin:miter;stroke-miterlimit:10;stroke-dasharray:none;stroke-opacity:1"
         transform="matrix(0.13333333,0,0,-0.13333333,0,104.73333)" />
    </g>
  </g>
</svg>
