<?xml version="1.0" encoding="UTF-8" standalone="no"?>
<!-- Created with Inkscape (http://www.inkscape.org/) -->

<svg
   version="1.1"
   id="svg1"
   width="384"
   height="121.61333"
   viewBox="0 0 384 121.61333"
   sodipodi:docname="pha09f20.eps"
   xmlns:inkscape="http://www.inkscape.org/namespaces/inkscape"
   xmlns:sodipodi="http://sodipodi.sourceforge.net/DTD/sodipodi-0.dtd"
   xmlns="http://www.w3.org/2000/svg"
   xmlns:svg="http://www.w3.org/2000/svg">
  <defs
     id="defs1" />
  <sodipodi:namedview
     id="namedview1"
     pagecolor="#ffffff"
     bordercolor="#000000"
     borderopacity="0.25"
     inkscape:showpageshadow="2"
     inkscape:pageopacity="0.0"
     inkscape:pagecheckerboard="0"
     inkscape:deskcolor="#d1d1d1">
    <inkscape:page
       x="0"
       y="0"
       inkscape:label="1"
       id="page1"
       width="384"
       height="121.61333"
       margin="0"
       bleed="0" />
  </sodipodi:namedview>
  <g
     id="g1"
     inkscape:groupmode="layer"
     inkscape:label="1">
    <g
       id="group-R5">
      <g
         id="g2"
         aria-label="n&#10;(a)(b)&#10;n&#10;ω&#10;m&#10;ω&#10;m"
         transform="matrix(1.3333333,0,0,1.3333333,101.8984,9.894)">
        <path
           id="path2"
           d="M 4.8633094,3.984375e-4 V -0.26913281 c -0.5039063,-0.0585938 -0.5507813,-0.09375 -0.5507813,-0.6796875 V -2.6597578 c 0,-0.890625 -0.4453125,-1.40625 -1.1601562,-1.40625 -0.2578125,0 -0.4570313,0.09375 -0.7265625,0.2578125 -0.2109375,0.140625 -0.3867188,0.2695312 -0.5742188,0.3984375 v -0.6796875 c -0.4804687,0.1523437 -1.01953122,0.28125 -1.48828122,0.3515625 v 0.234375 c 0.45703125,0.09375 0.50390625,0.1171875 0.50390625,0.6796875 v 1.86328124 c 0,0.59765625 -0.046875,0.62109375 -0.62109375,0.69140625 V 3.984375e-4 H 2.3320594 V -0.26913281 c -0.421875,-0.0585938 -0.4804688,-0.09375 -0.4804688,-0.66796875 V -3.0816328 c 0.2460938,-0.1992188 0.5039063,-0.3515625 0.7851563,-0.3515625 0.4101562,0 0.6914062,0.2695312 0.6914062,0.9140625 v 1.5117187 c 0,0.64453129 -0.046875,0.67968754 -0.4804687,0.73828129 V 3.984375e-4 Z m 0,0"
           style="fill:#231f20;fill-opacity:1;fill-rule:nonzero;stroke:none" />
        <path
           id="path3"
           d="m -6.2900109,81.873445 c -0.890625,-0.761718 -1.40625,-2.203125 -1.40625,-3.75 0,-1.546875 0.515625,-3 1.40625,-3.75 l -0.1523438,-0.210937 c -1.3242187,0.902344 -1.9101562,2.332031 -1.9101562,3.949219 0,1.628906 0.5859375,3.082031 1.9101562,3.960937 z m 4.321289,-1.675781 -0.09375,-0.234375 c -0.09375,0.05859 -0.2226562,0.105469 -0.328125,0.105469 -0.1523437,0 -0.3164062,-0.140625 -0.3164062,-0.550781 v -1.664063 c 0,-0.46875 -0.082031,-0.84375 -0.3984375,-1.101562 -0.1992188,-0.164063 -0.46875,-0.246094 -0.7382813,-0.246094 -0.515625,0.105469 -1.1015625,0.457031 -1.3476562,0.632812 -0.1757813,0.128907 -0.2929688,0.222657 -0.2929688,0.363282 0,0.199218 0.234375,0.386718 0.3984375,0.386718 0.1289063,0 0.2226563,-0.07031 0.2578125,-0.210937 0.070312,-0.28125 0.1523438,-0.480469 0.2695313,-0.597656 0.09375,-0.105469 0.2226562,-0.175782 0.4101562,-0.175782 0.4453125,0 0.75,0.363282 0.75,1.019532 v 0.164062 c -0.1992187,0.152344 -0.8554687,0.398438 -1.3945312,0.574219 -0.4921875,0.175781 -0.7265625,0.457031 -0.7265625,0.902344 0,0.5625 0.4453125,1.089843 1.078125,1.089843 0.2695312,0 0.703125,-0.328125 1.0664062,-0.574218 0.046875,0.152343 0.09375,0.28125 0.2109375,0.410156 0.1054688,0.08203 0.2929688,0.164062 0.421875,0.164062 z m -1.4296875,-0.410156 c -0.1640625,0.164062 -0.4804687,0.316406 -0.7148437,0.328125 -0.28125,0 -0.6445313,-0.222656 -0.6445313,-0.691406 0,-0.328125 0.1992188,-0.492188 0.5507813,-0.65625 0.1875,-0.09375 0.6210937,-0.28125 0.8085937,-0.375 z m 1.8896485,-5.414063 c 0.89062496,0.738282 1.41796871,2.203125 1.41796871,3.75 0,1.546875 -0.50390625,2.988282 -1.41796871,3.75 l 0.1640625,0.199219 c 1.34765621,-0.914062 1.89843746,-2.332031 1.89843746,-3.949219 0,-1.628906 -0.55078125,-3.058593 -1.89843746,-3.960937 z m 147.0410109,7.5 c -0.89062,-0.761718 -1.40625,-2.203125 -1.40625,-3.75 0,-1.546875 0.51563,-3 1.40625,-3.75 l -0.15234,-0.210937 c -1.32422,0.902344 -1.91016,2.332031 -1.91016,3.949219 0,1.628906 0.58594,3.082031 1.91016,3.960937 z m 1.79004,-4.957031 V 74.13907 c -0.33984,0.117188 -0.89062,0.257813 -1.3125,0.316407 v 0.210937 c 0.58594,0.04687 0.59766,0.105469 0.59766,0.667969 v 5.003906 c 0.49219,0.234375 0.94922,0.316406 1.32422,0.316406 1.20703,0 2.26172,-0.9375 2.26172,-2.261718 0,-1.054688 -0.8086,-1.886719 -1.78125,-1.886719 -0.0937,0 -0.22266,0.02344 -0.36328,0.09375 z m 0,0.269531 c 0.16407,-0.105468 0.44532,-0.175781 0.70313,-0.175781 0.73828,0 1.37109,0.597656 1.37109,1.617188 0,1.054687 -0.48047,1.6875 -1.21875,1.6875 -0.48047,-0.01172 -0.75,-0.328125 -0.80859,-0.503907 -0.0352,-0.08203 -0.0469,-0.175781 -0.0469,-0.304687 z m 3.60938,-2.8125 c 0.89062,0.738282 1.41797,2.203125 1.41797,3.75 0,1.546875 -0.50391,2.988282 -1.41797,3.75 l 0.16406,0.199219 c 1.34766,-0.914062 1.89844,-2.332031 1.89844,-3.949219 0,-1.628906 -0.55078,-3.058593 -1.89844,-3.960937 z m 0,0"
           style="fill:#231f20;fill-opacity:1;fill-rule:nonzero;stroke:none" />
        <path
           id="path4"
           d="M 156.08499,3.984375e-4 V -0.26913281 c -0.50391,-0.0585938 -0.55078,-0.09375 -0.55078,-0.6796875 V -2.6597578 c 0,-0.890625 -0.44531,-1.40625 -1.16016,-1.40625 -0.25781,0 -0.45703,0.09375 -0.72656,0.2578125 -0.21094,0.140625 -0.38672,0.2695312 -0.57422,0.3984375 v -0.6796875 c -0.48047,0.1523437 -1.01953,0.28125 -1.48828,0.3515625 v 0.234375 c 0.45703,0.09375 0.50391,0.1171875 0.50391,0.6796875 v 1.86328124 c 0,0.59765625 -0.0469,0.62109375 -0.6211,0.69140625 V 3.984375e-4 h 2.08594 V -0.26913281 c -0.42188,-0.0585938 -0.48047,-0.09375 -0.48047,-0.66796875 V -3.0816328 c 0.24609,-0.1992188 0.50391,-0.3515625 0.78516,-0.3515625 0.41015,0 0.6914,0.2695312 0.6914,0.9140625 v 1.5117187 c 0,0.64453129 -0.0469,0.67968754 -0.48047,0.73828129 V 3.984375e-4 Z m 0,0"
           style="fill:#231f20;fill-opacity:1;fill-rule:nonzero;stroke:none" />
        <path
           id="path5"
           d="m -62.220675,29.352937 c 0.292969,0.257813 0.503906,0.714844 0.503906,1.382813 -0.01172,1.007812 -0.398437,2.050781 -1.136718,2.050781 -0.304688,0 -0.515625,-0.304687 -0.492188,-0.878906 0.02344,-0.46875 0.234375,-1.359375 0.351563,-1.722656 l -0.05859,-0.03516 -0.667969,0.140625 c -0.03516,0.28125 -0.09375,0.75 -0.1875,1.136719 -0.199219,0.855469 -0.5625,1.3125 -0.949219,1.3125 -0.28125,0 -0.539062,-0.339844 -0.539062,-0.996094 0,-1.007812 0.46875,-1.921875 1.160156,-2.449218 l -0.140625,-0.199219 c -1.042969,0.539062 -1.757812,1.558594 -1.757812,2.765625 0,0.9375 0.421875,1.441406 0.9375,1.441406 0.386718,0 0.902343,-0.398437 1.230468,-0.890625 0.04687,0.503906 0.328125,0.890625 0.761719,0.890625 0.375,0 0.738281,-0.222656 1.066406,-0.515625 0.5625,-0.527344 0.996094,-1.300781 0.996094,-2.214844 0,-0.902343 -0.398437,-1.417968 -0.691406,-1.417968 -0.152344,0 -0.316406,0.07031 -0.375,0.128906 z m 0,0"
           style="fill:#231f20;fill-opacity:1;fill-rule:nonzero;stroke:none" />
        <path
           id="path6"
           d="M -56.056612,35.197664 V 35.04532 c -0.351563,-0.03516 -0.398438,-0.05859 -0.398438,-0.46875 v -1.160156 c 0,-0.585937 -0.292969,-0.914062 -0.761719,-0.914062 -0.164062,0 -0.316406,0.07031 -0.445312,0.152343 -0.152344,0.09375 -0.328125,0.210938 -0.503906,0.339844 -0.117188,-0.316406 -0.375,-0.492187 -0.65625,-0.492187 -0.199219,0 -0.339844,0.07031 -0.492188,0.164062 -0.1875,0.117188 -0.316406,0.222656 -0.445312,0.304688 v -0.480469 c -0.257813,0.117187 -0.5625,0.1875 -0.832032,0.246094 v 0.128906 c 0.351563,0.05859 0.363282,0.09375 0.363282,0.46875 v 1.242187 c 0,0.398438 -0.04687,0.433594 -0.445313,0.46875 v 0.152344 h 1.265625 V 35.04532 c -0.292969,-0.03516 -0.339844,-0.07031 -0.339844,-0.46875 v -1.40625 c 0.175782,-0.152343 0.410157,-0.316406 0.644532,-0.316406 0.375,0 0.527343,0.246094 0.527343,0.691406 v 1.03125 c 0,0.398438 -0.05859,0.433594 -0.421875,0.46875 v 0.152344 h 1.277344 V 35.04532 c -0.328125,-0.03516 -0.386719,-0.07031 -0.386719,-0.457031 v -1.171875 c 0,-0.105469 0,-0.175781 -0.01172,-0.246094 0.222656,-0.1875 0.457031,-0.316406 0.667968,-0.316406 0.386719,0 0.527344,0.269531 0.527344,0.703125 v 0.996094 c 0,0.433594 -0.05859,0.457031 -0.421875,0.492187 v 0.152344 z m 0,0"
           style="fill:#231f20;fill-opacity:1;fill-rule:nonzero;stroke:none" />
        <path
           id="path7"
           d="m 126.59768,-3.8433516 c 0.29297,0.2578125 0.50391,0.7148438 0.50391,1.3828125 -0.0117,1.0078125 -0.39844,2.05078129 -1.13672,2.05078129 -0.30469,0 -0.51562,-0.3046875 -0.49219,-0.87890629 0.0234,-0.46875 0.23438,-1.359375 0.35157,-1.7226562 l -0.0586,-0.035156 -0.66797,0.140625 c -0.0352,0.28125 -0.0937,0.75 -0.1875,1.1367188 -0.19921,0.85546874 -0.5625,1.31249999 -0.94921,1.31249999 -0.28125,0 -0.53907,-0.33984375 -0.53907,-0.99609379 0,-1.0078125 0.46875,-1.921875 1.16016,-2.4492187 l -0.14063,-0.1992188 c -1.04296,0.5390625 -1.75781,1.5585938 -1.75781,2.765625 0,0.93750004 0.42188,1.44140629 0.9375,1.44140629 0.38672,0 0.90235,-0.3984375 1.23047,-0.890625 0.0469,0.50390625 0.32813,0.890625 0.76172,0.890625 0.375,0 0.73828,-0.22265625 1.06641,-0.515625 0.5625,-0.52734375 0.99609,-1.30078129 0.99609,-2.21484379 0,-0.9023437 -0.39844,-1.4179687 -0.69141,-1.4179687 -0.15234,0 -0.3164,0.070313 -0.375,0.1289062 z m 0,0"
           style="fill:#231f20;fill-opacity:1;fill-rule:nonzero;stroke:none" />
        <path
           id="path8"
           d="M 132.76175,2.001375 V 1.8490312 c -0.35157,-0.035156 -0.39844,-0.058594 -0.39844,-0.46875 V 0.220125 c 0,-0.5859375 -0.29297,-0.9140625 -0.76172,-0.9140625 -0.16406,0 -0.31641,0.0703125 -0.44531,0.15234375 -0.15235,0.09375 -0.32813,0.2109375 -0.50391,0.33984375 -0.11719,-0.31640625 -0.375,-0.4921875 -0.65625,-0.4921875 -0.19922,0 -0.33984,0.0703125 -0.49219,0.1640625 -0.1875,0.1171875 -0.3164,0.22265625 -0.44531,0.3046875 v -0.48046875 c -0.25781,0.1171875 -0.5625,0.1875 -0.83203,0.24609375 v 0.12890625 c 0.35156,0.0585938 0.36328,0.09375 0.36328,0.46875 V 1.3802812 c 0,0.3984375 -0.0469,0.4335938 -0.44531,0.46875 V 2.001375 h 1.26562 V 1.8490312 c -0.29296,-0.035156 -0.33984,-0.070312 -0.33984,-0.46875 v -1.40624995 c 0.17578,-0.15234375 0.41016,-0.31640625 0.64453,-0.31640625 0.375,0 0.52735,0.24609375 0.52735,0.69140625 V 1.3802812 c 0,0.3984375 -0.0586,0.4335938 -0.42188,0.46875 V 2.001375 h 1.27734 V 1.8490312 C 130.76956,1.813875 130.71097,1.7787187 130.71097,1.392 V 0.220125 c 0,-0.10546875 0,-0.17578125 -0.0117,-0.24609375 0.22265,-0.1875 0.45703,-0.31640625 0.66797,-0.31640625 0.38671,0 0.52734,0.26953125 0.52734,0.703125 v 0.9960937 c 0,0.4335938 -0.0586,0.4570313 -0.42188,0.4921875 V 2.001375 Z m 0,0"
           style="fill:#231f20;fill-opacity:1;fill-rule:nonzero;stroke:none" />
      </g>
      <path
         id="path9"
         d="M 91.8906,182.324 H 1358.68"
         style="fill:none;stroke:#3871c1;stroke-width:10;stroke-linecap:butt;stroke-linejoin:miter;stroke-miterlimit:10;stroke-dasharray:none;stroke-opacity:1"
         transform="matrix(0.13333333,0,0,-0.13333333,0,121.61333)" />
      <path
         id="path10"
         d="M 1613.21,182.523 H 2880"
         style="fill:none;stroke:#3871c1;stroke-width:10;stroke-linecap:butt;stroke-linejoin:miter;stroke-miterlimit:10;stroke-dasharray:none;stroke-opacity:1"
         transform="matrix(0.13333333,0,0,-0.13333333,0,121.61333)" />
      <path
         id="path11"
         d="M 725.289,182.324 V 859.82"
         style="fill:none;stroke:#231f20;stroke-width:5;stroke-linecap:butt;stroke-linejoin:miter;stroke-miterlimit:10;stroke-dasharray:none;stroke-opacity:1"
         transform="matrix(0.13333333,0,0,-0.13333333,0,121.61333)" />
      <path
         id="path12"
         d="m 725.289,850.844 -18.016,-10.957 -0.41,0.617 11.672,29.375 c 2.246,10.234 4.5,20.469 6.754,30.703 2.25,-10.234 4.5,-20.469 6.754,-30.703 l 11.668,-29.375 -0.309,-0.617 -18.113,10.957"
         style="fill:#231f20;fill-opacity:1;fill-rule:nonzero;stroke:none"
         transform="matrix(0.13333333,0,0,-0.13333333,0,121.61333)" />
      <path
         id="path13"
         d="M 2246.61,182.613 V 859.82"
         style="fill:none;stroke:#231f20;stroke-width:5;stroke-linecap:butt;stroke-linejoin:miter;stroke-miterlimit:10;stroke-dasharray:none;stroke-opacity:1"
         transform="matrix(0.13333333,0,0,-0.13333333,0,121.61333)" />
      <path
         id="path14"
         d="m 2246.61,850.844 -18.02,-10.957 -0.4,0.617 11.66,29.375 c 2.26,10.234 4.51,20.469 6.76,30.703 2.25,-10.234 4.5,-20.469 6.76,-30.703 l 11.66,-29.375 -0.3,-0.617 -18.12,10.957"
         style="fill:#231f20;fill-opacity:1;fill-rule:nonzero;stroke:none"
         transform="matrix(0.13333333,0,0,-0.13333333,0,121.61333)" />
      <path
         id="path15"
         d="m 109.016,129.504 71.32,112.406 33.062,-116.652 48.399,114.98 69.758,-116.472 40.246,101.148 53.906,-70.176 44.117,71.356 58.594,-102.328 37.75,122.168 56.406,-114.141 31.387,104.383 37.09,-108.969 46.531,105.094 21.938,-90.18 37.089,121.59 25.688,-61.941 22.82,-68.829 22.805,109.043 52.422,-109.359 16.078,118.465 45.648,-110.117 39.95,108.968 16.62,-120.164 34.73,106.399 39.94,-100.942 37.1,107.825 54.89,-103.879 18.81,97.304 75.19,-112.421 36.55,112.113"
         style="fill:none;stroke:#231f20;stroke-width:5;stroke-linecap:butt;stroke-linejoin:round;stroke-miterlimit:10;stroke-dasharray:20, 15;stroke-dashoffset:0;stroke-opacity:1"
         transform="matrix(0.13333333,0,0,-0.13333333,0,121.61333)" />
      <path
         id="path16"
         d="m 1649.87,221.012 222.54,-66.426 335.28,59.422 310.07,-71.25 353.26,79.129"
         style="fill:none;stroke:#231f20;stroke-width:5;stroke-linecap:butt;stroke-linejoin:round;stroke-miterlimit:4;stroke-dasharray:20, 15;stroke-dashoffset:0;stroke-opacity:1"
         transform="matrix(0.13333333,0,0,-0.13333333,0,121.61333)" />
      <path
         id="path17"
         d="M 789.395,239.047 46.3398,490.25"
         style="fill:none;stroke:#231f20;stroke-width:7.5;stroke-linecap:butt;stroke-linejoin:miter;stroke-miterlimit:10;stroke-dasharray:none;stroke-opacity:1"
         transform="matrix(0.13333333,0,0,-0.13333333,0,121.61333)" />
      <path
         id="path18"
         d="m 56.5391,486.797 5.5312,-24.688 -0.8555,-0.23 -28.9101,24.559 C 21.5391,492.926 10.7656,499.418 0,505.914 c 12.5,-1.371 25,-2.75 37.5,-4.121 l 37.875,1.977 0.582,-0.586 -19.4179,-16.387"
         style="fill:#231f20;fill-opacity:1;fill-rule:nonzero;stroke:none"
         transform="matrix(0.13333333,0,0,-0.13333333,0,121.61333)" />
      <path
         id="path19"
         d="M 2095.46,201.145 1957.4,837.5"
         style="fill:none;stroke:#231f20;stroke-width:7.5;stroke-linecap:butt;stroke-linejoin:miter;stroke-miterlimit:10;stroke-dasharray:none;stroke-opacity:1"
         transform="matrix(0.13333333,0,0,-0.13333333,0,121.61333)" />
      <path
         id="path20"
         d="m 1959.69,826.977 -18.34,-17.434 -0.64,0.617 6.21,37.418 c 0.03,12.574 0.07,25.152 0.11,37.727 5.25,-11.434 10.49,-22.86 15.73,-34.289 l 21.17,-31.481 -0.21,-0.801 -24.03,8.243"
         style="fill:#231f20;fill-opacity:1;fill-rule:nonzero;stroke:none"
         transform="matrix(0.13333333,0,0,-0.13333333,0,121.61333)" />
    </g>
  </g>
</svg>
