<?xml version="1.0" encoding="UTF-8" standalone="no"?>
<!-- Created with Inkscape (http://www.inkscape.org/) -->

<svg
   version="1.1"
   id="svg1"
   width="206.34666"
   height="162.96001"
   viewBox="0 0 206.34666 162.96001"
   sodipodi:docname="pha09f06.eps"
   xmlns:inkscape="http://www.inkscape.org/namespaces/inkscape"
   xmlns:sodipodi="http://sodipodi.sourceforge.net/DTD/sodipodi-0.dtd"
   xmlns="http://www.w3.org/2000/svg"
   xmlns:svg="http://www.w3.org/2000/svg">
  <defs
     id="defs1" />
  <sodipodi:namedview
     id="namedview1"
     pagecolor="#ffffff"
     bordercolor="#000000"
     borderopacity="0.25"
     inkscape:showpageshadow="2"
     inkscape:pageopacity="0.0"
     inkscape:pagecheckerboard="0"
     inkscape:deskcolor="#d1d1d1">
    <inkscape:page
       x="0"
       y="0"
       inkscape:label="1"
       id="page1"
       width="206.34666"
       height="162.96001"
       margin="0"
       bleed="0" />
  </sodipodi:namedview>
  <g
     id="g1"
     inkscape:groupmode="layer"
     inkscape:label="1">
    <g
       id="group-R5">
      <g
         id="g2"
         aria-label="ω&#10;?&#10;ω&#10;k&#10;ω&#10;θ&#10;n"
         transform="matrix(1.3333333,0,0,1.3333333,41.540667,153.91989)">
        <path
           id="path2"
           d="m 4.3581719,-3.8451934 c 0.2929687,0.2578125 0.5039062,0.7148437 0.5039062,1.3828125 -0.011719,1.0078125 -0.3984375,2.05078121 -1.1367187,2.05078121 -0.3046875,0 -0.515625,-0.3046875 -0.4921875,-0.87890621 0.023437,-0.46875 0.234375,-1.359375 0.3515625,-1.7226563 l -0.058594,-0.035156 -0.6679687,0.140625 c -0.035156,0.28125 -0.09375,0.75 -0.1875,1.1367187 -0.1992188,0.85546876 -0.5625,1.31250001 -0.9492188,1.31250001 -0.28125,0 -0.5390625,-0.33984375 -0.5390625,-0.99609371 0,-1.0078125 0.46875,-1.921875 1.1601563,-2.4492188 l -0.140625,-0.1992187 c -1.0429688,0.5390625 -1.75781252,1.5585937 -1.75781252,2.765625 0,0.93749996 0.421875,1.44140621 0.93750002,1.44140621 0.3867187,0 0.9023437,-0.3984375 1.2304687,-0.890625 0.046875,0.50390625 0.328125,0.890625 0.7617188,0.890625 0.375,0 0.7382812,-0.22265625 1.0664062,-0.515625 0.5625,-0.52734375 0.9960938,-1.30078121 0.9960938,-2.21484371 0,-0.9023438 -0.3984375,-1.4179688 -0.6914063,-1.4179688 -0.1523437,0 -0.3164062,0.070312 -0.375,0.1289063 z m 0,0"
           style="fill:#231f20;fill-opacity:1;fill-rule:nonzero;stroke:none" />
        <path
           id="path3"
           d="M 8.1667656,1.7885956 H 6.7019219 v -3.0351562 c 0,-0.070312 -0.035156,-0.1054688 -0.09375,-0.1054688 -0.058594,0 -0.09375,0.035156 -0.09375,0.1054688 V 1.7885956 H 5.0495781 c -0.070312,0 -0.1054687,0.035156 -0.1054687,0.1054688 0,0.058594 0.035156,0.09375 0.1054687,0.09375 h 3.1171875 c 0.070312,0 0.09375,-0.035156 0.09375,-0.09375 0,-0.070312 -0.023437,-0.1054688 -0.09375,-0.1054688 z m 0,0"
           style="fill:#231f20;fill-opacity:1;fill-rule:nonzero;stroke:none" />
        <path
           id="path4"
           d="m 119.72634,-83.09324 c 0.29296,0.257812 0.5039,0.714843 0.5039,1.382812 -0.0117,1.007813 -0.39844,2.050781 -1.13672,2.050781 -0.30468,0 -0.51562,-0.304687 -0.49218,-0.878906 0.0234,-0.46875 0.23437,-1.359375 0.35156,-1.722656 l -0.0586,-0.03516 -0.66796,0.140625 c -0.0352,0.28125 -0.0937,0.75 -0.1875,1.136718 -0.19922,0.855469 -0.5625,1.3125 -0.94922,1.3125 -0.28125,0 -0.53907,-0.339843 -0.53907,-0.996093 0,-1.007813 0.46875,-1.921875 1.16016,-2.449219 l -0.14062,-0.199219 c -1.04297,0.539063 -1.75782,1.558594 -1.75782,2.765625 0,0.9375 0.42188,1.441406 0.9375,1.441406 0.38672,0 0.90235,-0.398437 1.23047,-0.890625 0.0469,0.503907 0.32813,0.890625 0.76172,0.890625 0.375,0 0.73828,-0.222656 1.06641,-0.515625 0.5625,-0.527343 0.99609,-1.300781 0.99609,-2.214843 0,-0.902344 -0.39844,-1.417969 -0.69141,-1.417969 -0.15234,0 -0.3164,0.07031 -0.375,0.128906 z m 0,0"
           style="fill:#231f20;fill-opacity:1;fill-rule:nonzero;stroke:none" />
        <path
           id="path5"
           d="m 122.93727,-80.907693 c 0,-0.02344 -0.0117,-0.04687 -0.0234,-0.05859 -0.0234,-0.02344 -0.0469,-0.03516 -0.0586,-0.03516 -0.0234,0 -0.0586,0.02344 -0.10547,0.05859 v 4.851563 c 0.0469,0.03516 0.082,0.05859 0.10547,0.05859 0.0586,0 0.082,-0.02344 0.082,-0.08203 z m -0.98437,-0.03516 -0.0586,-0.04687 c -0.0117,-0.01172 -0.0234,-0.01172 -0.0352,-0.01172 -0.0586,0 -0.0937,0.03516 -0.0937,0.09375 v 4.792968 c 0,0.01172 0.0117,0.03516 0.0352,0.05859 0.0234,0.01172 0.0352,0.02344 0.0586,0.02344 0.0234,0 0.0586,-0.02344 0.0937,-0.05859 z m 0,0"
           style="fill:#231f20;fill-opacity:1;fill-rule:nonzero;stroke:none" />
        <path
           id="path6"
           d="m -0.52561719,-74.854959 c 0.29296875,0.257812 0.50390625,0.714844 0.50390625,1.382812 -0.01171875,1.007813 -0.3984375,2.050782 -1.13671876,2.050782 -0.3046875,0 -0.515625,-0.304688 -0.4921875,-0.878907 0.023437,-0.46875 0.234375,-1.359375 0.3515625,-1.722656 l -0.058594,-0.03516 -0.6679688,0.140625 c -0.035156,0.28125 -0.09375,0.75 -0.1875,1.136719 -0.1992187,0.855468 -0.5625,1.3125 -0.9492187,1.3125 -0.28125,0 -0.5390625,-0.339844 -0.5390625,-0.996094 0,-1.007813 0.46875,-1.921875 1.1601562,-2.449219 l -0.140625,-0.199219 c -1.0429687,0.539063 -1.7578125,1.558594 -1.7578125,2.765625 0,0.9375 0.421875,1.441407 0.9375,1.441407 0.3867188,0 0.9023438,-0.398438 1.2304688,-0.890625 0.046875,0.503906 0.328125,0.890625 0.7617187,0.890625 0.375,0 0.73828126,-0.222657 1.06640626,-0.515625 0.5625,-0.527344 0.99609375,-1.300782 0.99609375,-2.214844 0,-0.902344 -0.3984375,-1.417969 -0.69140625,-1.417969 -0.15234375,0 -0.31640625,0.07031 -0.375,0.128906 z M 108.23024,-22.870584 c -1.59375,0 -2.61328,2.671875 -2.61328,4.558594 0,0.9375 0.25781,1.957031 1.26563,1.957031 1.61718,0 2.5664,-2.695313 2.5664,-4.617188 0,-0.972656 -0.25781,-1.898437 -1.21875,-1.898437 z m -1.69922,2.917969 c 0.26953,-1.347657 0.84375,-2.613282 1.57032,-2.613282 0.58593,0 0.64453,0.890625 0.64453,1.371094 0,0.410156 -0.0586,0.796875 -0.10547,1.242188 z m 2.03907,0.421875 c -0.2461,1.429687 -0.82032,2.859375 -1.57032,2.859375 -0.52734,0 -0.66797,-0.773438 -0.66797,-1.476563 0,-0.46875 0.0586,-0.925781 0.12891,-1.382812 z m 0,0"
           style="fill:#231f20;fill-opacity:1;fill-rule:nonzero;stroke:none" />
        <path
           id="path7"
           d="m 121.83278,-108.01023 v -0.26953 c -0.50391,-0.0586 -0.55078,-0.0937 -0.55078,-0.67969 v -1.71094 c 0,-0.89062 -0.44531,-1.40625 -1.16016,-1.40625 -0.25781,0 -0.45703,0.0937 -0.72656,0.25781 -0.21094,0.14063 -0.38672,0.26954 -0.57422,0.39844 v -0.67969 c -0.48047,0.15235 -1.01953,0.28125 -1.48828,0.35157 v 0.23437 c 0.45703,0.0937 0.50391,0.11719 0.50391,0.67969 v 1.86328 c 0,0.59766 -0.0469,0.62109 -0.6211,0.69141 v 0.26953 h 2.08594 v -0.26953 c -0.42187,-0.0586 -0.48047,-0.0937 -0.48047,-0.66797 v -2.14453 c 0.2461,-0.19922 0.50391,-0.35157 0.78516,-0.35157 0.41015,0 0.6914,0.26954 0.6914,0.91407 v 1.51172 c 0,0.64453 -0.0469,0.67968 -0.48046,0.73828 v 0.26953 z m 0,0"
           style="fill:#231f20;fill-opacity:1;fill-rule:nonzero;stroke:none" />
      </g>
      <path
         id="path8"
         d="M 1439.45,917.473 V 1170.81"
         style="fill:none;stroke:#231f20;stroke-width:7.5;stroke-linecap:butt;stroke-linejoin:miter;stroke-miterlimit:10;stroke-dasharray:none;stroke-opacity:1"
         transform="matrix(0.13333333,0,0,-0.13333333,0,162.96)" />
      <path
         id="path9"
         d="m 1439.45,1160.05 -21.62,-13.16 -0.49,0.74 14.01,35.25 c 2.69,12.29 5.4,24.57 8.1,36.85 2.71,-12.28 5.4,-24.56 8.11,-36.85 l 14,-35.25 -0.37,-0.74 -21.74,13.16"
         style="fill:#231f20;fill-opacity:1;fill-rule:nonzero;stroke:none"
         transform="matrix(0.13333333,0,0,-0.13333333,0,162.96)" />
      <path
         id="path10"
         d="M 272.598,143.559 H 1439.45 v 724.996"
         style="fill:none;stroke:#231f20;stroke-width:7.5;stroke-linecap:butt;stroke-linejoin:miter;stroke-miterlimit:10;stroke-dasharray:none;stroke-opacity:1"
         transform="matrix(0.13333333,0,0,-0.13333333,0,162.96)" />
      <path
         id="path11"
         d="m 283.363,143.559 13.153,21.621 -0.739,0.492 -35.25,-14.012 c -12.285,-2.691 -24.566,-5.398 -36.843,-8.101 12.277,-2.707 24.558,-5.399 36.843,-8.11 l 35.25,-14 0.739,0.371 -13.153,21.739"
         style="fill:#231f20;fill-opacity:1;fill-rule:nonzero;stroke:none"
         transform="matrix(0.13333333,0,0,-0.13333333,0,162.96)" />
      <path
         id="path12"
         d="m 1439.45,857.789 -21.62,-13.148 -0.49,0.738 14.01,35.25 c 2.69,12.281 5.4,24.562 8.1,36.844 2.71,-12.282 5.4,-24.563 8.11,-36.844 l 14,-35.25 -0.37,-0.738 -21.74,13.148"
         style="fill:#231f20;fill-opacity:1;fill-rule:nonzero;stroke:none"
         transform="matrix(0.13333333,0,0,-0.13333333,0,162.96)" />
      <path
         id="path13"
         d="M 48.9141,143.559 H 223.684"
         style="fill:none;stroke:#231f20;stroke-width:7.5;stroke-linecap:butt;stroke-linejoin:miter;stroke-miterlimit:10;stroke-dasharray:none;stroke-opacity:1"
         transform="matrix(0.13333333,0,0,-0.13333333,0,162.96)" />
      <path
         id="path14"
         d="m 59.6836,143.559 13.1484,21.621 -0.7382,0.492 -35.25,-14.012 C 24.5586,148.969 12.2813,146.262 0,143.559 c 12.2813,-2.707 24.5586,-5.399 36.8438,-8.11 l 35.25,-14 0.7382,0.371 -13.1484,21.739"
         style="fill:#231f20;fill-opacity:1;fill-rule:nonzero;stroke:none"
         transform="matrix(0.13333333,0,0,-0.13333333,0,162.96)" />
      <path
         id="path15"
         d="M 1439.45,143.559 269.805,888.918"
         style="fill:none;stroke:#231f20;stroke-width:7.5;stroke-linecap:butt;stroke-linejoin:miter;stroke-miterlimit:10;stroke-dasharray:none;stroke-opacity:1"
         transform="matrix(0.13333333,0,0,-0.13333333,0,162.96)" />
      <path
         id="path16"
         d="m 278.887,883.133 -0.528,-25.297 -0.886,-0.016 -22.203,30.75 c -8.907,8.879 -17.809,17.754 -26.715,26.637 11.804,-4.32 23.617,-8.644 35.429,-12.965 l 37.25,-7.137 0.426,-0.71 -22.773,-11.262"
         style="fill:#231f20;fill-opacity:1;fill-rule:nonzero;stroke:none"
         transform="matrix(0.13333333,0,0,-0.13333333,0,162.96)" />
      <path
         id="path17"
         d="M 225.645,919.23 V 144.98"
         style="fill:none;stroke:#231f20;stroke-width:5;stroke-linecap:butt;stroke-linejoin:miter;stroke-miterlimit:10;stroke-dasharray:20, 20;stroke-dashoffset:0;stroke-opacity:1"
         transform="matrix(0.13333333,0,0,-0.13333333,0,162.96)" />
      <path
         id="path18"
         d="M 222.832,917.824 H 1442.52"
         style="fill:none;stroke:#231f20;stroke-width:5;stroke-linecap:butt;stroke-linejoin:miter;stroke-miterlimit:10;stroke-dasharray:20, 20;stroke-dashoffset:0;stroke-opacity:1"
         transform="matrix(0.13333333,0,0,-0.13333333,0,162.96)" />
    </g>
  </g>
</svg>
