<?xml version="1.0" encoding="UTF-8" standalone="no"?>
<!-- Created with Inkscape (http://www.inkscape.org/) -->

<svg
   version="1.1"
   id="svg1"
   width="144.65334"
   height="175.56"
   viewBox="0 0 144.65334 175.56"
   sodipodi:docname="pha09f42.eps"
   xmlns:inkscape="http://www.inkscape.org/namespaces/inkscape"
   xmlns:sodipodi="http://sodipodi.sourceforge.net/DTD/sodipodi-0.dtd"
   xmlns="http://www.w3.org/2000/svg"
   xmlns:svg="http://www.w3.org/2000/svg">
  <defs
     id="defs1" />
  <sodipodi:namedview
     id="namedview1"
     pagecolor="#ffffff"
     bordercolor="#000000"
     borderopacity="0.25"
     inkscape:showpageshadow="2"
     inkscape:pageopacity="0.0"
     inkscape:pagecheckerboard="0"
     inkscape:deskcolor="#d1d1d1">
    <inkscape:page
       x="0"
       y="0"
       inkscape:label="1"
       id="page1"
       width="144.65334"
       height="175.56"
       margin="0"
       bleed="0" />
  </sodipodi:namedview>
  <g
     id="g1"
     inkscape:groupmode="layer"
     inkscape:label="1">
    <g
       id="group-R5">
      <g
         id="g2"
         aria-label="h&#10;h = –1&#10;h = 1&#10;ω&#10;γ&#10;γ&#10;n"
         transform="matrix(1.3333333,0,0,1.3333333,101.82293,73.6532)">
        <path
           id="path2"
           d="m 4.1845578,-0.97329844 c -0.2460937,0.24609375 -0.5273437,0.41015625 -0.6210937,0.41015625 -0.070312,0 -0.082031,-0.0585938 -0.023437,-0.31640625 l 0.46875,-2.01562496 c 0.2226562,-0.984375 -0.035156,-1.1484375 -0.2578125,-1.1484375 -0.1640625,0 -0.3632813,0.070312 -0.5976563,0.1875 -0.4101562,0.2226562 -1.078125,0.6914062 -1.6640625,1.5 h -0.023437 l 0.8085938,-3.7382813 c 0.058594,-0.2460937 0.046875,-0.3164062 -0.035156,-0.3164062 -0.1289062,0 -0.609375,0.2460937 -1.32421874,0.3164062 l -0.0234375,0.2109375 0.25781254,0.011719 c 0.3515625,0.011719 0.3984375,0.035156 0.3046875,0.5039062 -0.3515625,1.8515625 -0.75000004,3.6679688 -1.13671879,5.40234376 l 0.0585938,0.0703125 c 0.19921875,-0.0703125 0.43359375,-0.12890625 0.64453129,-0.1640625 0.082031,-0.4453125 0.2460938,-1.24218746 0.328125,-1.64062496 0.4453125,-0.7851563 1.5,-1.7929688 1.9101563,-1.7929688 0.140625,0 0.1757812,0.1640625 0.070312,0.6445313 l -0.4804688,2.08593746 c -0.140625,0.62109375 -0.070312,0.8671875 0.1640625,0.8671875 0.2578125,0 0.8085938,-0.31640625 1.2890624,-0.8671875 z M -34.446302,72.216155 c -0.246093,0.246093 -0.527343,0.410156 -0.621093,0.410156 -0.07031,0 -0.08203,-0.05859 -0.02344,-0.316406 l 0.46875,-2.015625 c 0.222656,-0.984375 -0.03516,-1.148438 -0.257812,-1.148438 -0.164063,0 -0.363282,0.07031 -0.597657,0.1875 -0.410156,0.222656 -1.078125,0.691406 -1.664062,1.5 h -0.02344 l 0.808594,-3.738281 c 0.05859,-0.246094 0.04687,-0.316406 -0.03516,-0.316406 -0.128906,0 -0.609375,0.246093 -1.324219,0.316406 l -0.02344,0.210937 0.257812,0.01172 c 0.351563,0.01172 0.398438,0.03516 0.304688,0.503906 -0.351563,1.851563 -0.75,3.667969 -1.136719,5.402344 l 0.05859,0.07031 c 0.199218,-0.07031 0.433593,-0.128907 0.644531,-0.164063 0.08203,-0.445312 0.246094,-1.242187 0.328125,-1.640625 0.445312,-0.785156 1.5,-1.792969 1.910156,-1.792969 0.140625,0 0.175781,0.164063 0.07031,0.644532 l -0.480469,2.085937 c -0.140625,0.621094 -0.07031,0.867188 0.164062,0.867188 0.257813,0 0.808594,-0.316407 1.289063,-0.867188 z m 0,0"
           style="fill:#231f20;fill-opacity:1;fill-rule:nonzero;stroke:none" />
        <path
           id="path3"
           d="m -27.230481,70.29428 v -0.445313 h -4.289063 v 0.445313 z m 0,1.652343 v -0.445312 h -4.289063 v 0.445312 z m 6.723633,-0.5625 v -0.46875 h -3.773438 v 0.46875 z m 3.916992,1.804688 v -0.246094 c -0.820313,-0.05859 -0.878906,-0.128906 -0.878906,-0.785156 v -4.6875 c -0.492188,0.199219 -1.019532,0.375 -1.59375,0.46875 v 0.210937 l 0.433593,0.01172 c 0.386719,0.02344 0.421875,0.07031 0.421875,0.539063 v 3.457031 c 0,0.65625 -0.03516,0.726562 -0.855468,0.785156 v 0.246094 z m 0,0"
           style="fill:#231f20;fill-opacity:1;fill-rule:nonzero;stroke:none" />
        <path
           id="path4"
           d="m -2.6298953,-26.83072 c -0.2460938,0.246093 -0.5273438,0.410156 -0.6210938,0.410156 -0.070312,0 -0.082031,-0.05859 -0.023437,-0.316406 l 0.46875,-2.015625 c 0.2226563,-0.984375 -0.035156,-1.148438 -0.2578125,-1.148438 -0.1640625,0 -0.3632812,0.07031 -0.5976562,0.1875 -0.4101563,0.222656 -1.078125,0.691406 -1.6640625,1.5 h -0.023437 l 0.8085937,-3.738281 c 0.058594,-0.246094 0.046875,-0.316406 -0.035156,-0.316406 -0.1289063,0 -0.609375,0.246093 -1.3242188,0.316406 l -0.023437,0.210937 0.2578125,0.01172 c 0.3515625,0.01172 0.3984375,0.03516 0.3046875,0.503906 -0.3515625,1.851563 -0.75,3.667969 -1.1367187,5.402344 l 0.058594,0.07031 c 0.1992188,-0.07031 0.4335938,-0.128907 0.6445313,-0.164063 0.082031,-0.445312 0.2460937,-1.242187 0.328125,-1.640625 0.4453125,-0.785156 1.5,-1.792969 1.9101562,-1.792969 0.140625,0 0.1757813,0.164063 0.070312,0.644532 l -0.4804687,2.085937 c -0.140625,0.621094 -0.070313,0.867188 0.1640625,0.867188 0.2578125,0 0.8085937,-0.316407 1.2890625,-0.867188 z m 0,0"
           style="fill:#231f20;fill-opacity:1;fill-rule:nonzero;stroke:none" />
        <path
           id="path5"
           d="m 4.585925,-28.752595 v -0.445313 H 0.2968625 v 0.445313 z m 0,1.652343 v -0.445312 H 0.2968625 v 0.445312 z m 5.961914,1.242188 v -0.246094 c -0.8203124,-0.05859 -0.8789062,-0.128906 -0.8789062,-0.785156 v -4.6875 c -0.4921875,0.199219 -1.0195312,0.375 -1.59375,0.46875 v 0.210937 l 0.4335938,0.01172 c 0.3867187,0.02344 0.421875,0.07031 0.421875,0.539063 v 3.457031 c 0,0.65625 -0.035156,0.726562 -0.8554688,0.785156 v 0.246094 z m 0,0"
           style="fill:#231f20;fill-opacity:1;fill-rule:nonzero;stroke:none" />
        <path
           id="path6"
           d="m -72.007825,-21.322908 c 0.292969,0.257813 0.503906,0.714844 0.503906,1.382813 -0.01172,1.007812 -0.398437,2.050781 -1.136718,2.050781 -0.304688,0 -0.515625,-0.304688 -0.492188,-0.878906 0.02344,-0.46875 0.234375,-1.359375 0.351563,-1.722657 l -0.05859,-0.03516 -0.667969,0.140625 c -0.03516,0.28125 -0.09375,0.75 -0.1875,1.136719 -0.199219,0.855469 -0.5625,1.3125 -0.949219,1.3125 -0.28125,0 -0.539062,-0.339844 -0.539062,-0.996094 0,-1.007812 0.46875,-1.921875 1.160156,-2.449219 l -0.140625,-0.199218 c -1.042969,0.539062 -1.757812,1.558593 -1.757812,2.765625 0,0.9375 0.421875,1.441406 0.9375,1.441406 0.386718,0 0.902343,-0.398438 1.230468,-0.890625 0.04687,0.503906 0.328125,0.890625 0.761719,0.890625 0.375,0 0.738281,-0.222656 1.066406,-0.515625 0.5625,-0.527344 0.996094,-1.300781 0.996094,-2.214844 0,-0.902344 -0.398437,-1.417969 -0.691406,-1.417969 -0.152344,0 -0.316406,0.07031 -0.375,0.128907 z m 23.141602,-5.050781 c 0.07031,-0.585938 0.03516,-1.757813 -0.105469,-2.472656 -0.152344,-0.796875 -0.375,-1.054688 -0.621094,-1.054688 -0.28125,0 -0.703125,0.328125 -1.136719,1.03125 l 0.210938,0.199219 c 0.292969,-0.421875 0.457031,-0.574219 0.5625,-0.574219 0.08203,0 0.164062,0.117188 0.246094,0.375 0.328125,0.972656 0.386718,2.390625 0.257812,3.152344 -0.386719,0.714844 -0.855469,1.652344 -0.996094,2.039062 l 0.105469,0.128907 c 0.269531,-0.02344 0.714844,-0.234375 0.855469,-0.351563 0.105469,-0.269531 0.339844,-1.171875 0.46875,-1.78125 0.105469,-0.140625 0.328125,-0.457031 0.644531,-0.890625 0.609375,-0.785156 1.441406,-1.863281 1.453125,-2.660156 0.01172,-0.398438 -0.164062,-0.667969 -0.386719,-0.667969 -0.1875,0 -0.363281,0.152344 -0.363281,0.316406 0,0.04687 0.01172,0.09375 0.03516,0.140625 0.04687,0.07031 0.128907,0.246094 0.128907,0.457032 0,0.773437 -0.84375,1.980468 -1.335938,2.613281 z m 28.318359,24.0468749 c 0.07031,-0.5859375 0.03516,-1.7578125 -0.105469,-2.4726562 -0.152344,-0.796875 -0.375,-1.0546875 -0.621094,-1.0546875 -0.28125,0 -0.703125,0.328125 -1.136718,1.03125 l 0.210937,0.1992187 c 0.292969,-0.421875 0.457031,-0.5742187 0.5625,-0.5742187 0.08203,0 0.164063,0.1171875 0.246094,0.375 0.328125,0.9726562 0.386719,2.390625 0.257812,3.1523437 -0.386718,0.71484379 -0.855468,1.65234379 -0.996093,2.03906254 l 0.105468,0.12890625 c 0.269532,-0.0234375 0.714844,-0.234375 0.855469,-0.3515625 0.105469,-0.26953125 0.339844,-1.17187499 0.46875,-1.78124999 0.105469,-0.140625 0.328125,-0.4570313 0.644531,-0.890625 0.609375,-0.7851563 1.441407,-1.8632813 1.453125,-2.6601563 0.01172,-0.3984375 -0.164062,-0.6679687 -0.386718,-0.6679687 -0.1875,0 -0.363282,0.1523437 -0.363282,0.3164062 0,0.046875 0.01172,0.09375 0.03516,0.140625 0.04687,0.070312 0.128906,0.2460938 0.128906,0.4570313 0,0.7734375 -0.84375,1.9804687 -1.335938,2.6132812 z m 0,0"
           style="fill:#231f20;fill-opacity:1;fill-rule:nonzero;stroke:none" />
        <path
           id="path7"
           d="m -45.661145,-47.810212 v -0.269532 c -0.503907,-0.05859 -0.550782,-0.09375 -0.550782,-0.679687 v -1.710938 c 0,-0.890625 -0.445312,-1.40625 -1.160156,-1.40625 -0.257812,0 -0.457031,0.09375 -0.726562,0.257813 -0.210938,0.140625 -0.386719,0.269531 -0.574219,0.398437 v -0.679687 c -0.480469,0.152344 -1.019531,0.28125 -1.488281,0.351562 v 0.234375 c 0.457031,0.09375 0.503906,0.117188 0.503906,0.679688 v 1.863281 c 0,0.597656 -0.04687,0.621094 -0.621094,0.691406 v 0.269532 h 2.085938 v -0.269532 c -0.421875,-0.05859 -0.480469,-0.09375 -0.480469,-0.667968 v -2.144532 c 0.246094,-0.199218 0.503906,-0.351562 0.785156,-0.351562 0.410156,0 0.691406,0.269531 0.691406,0.914062 v 1.511719 c 0,0.644531 -0.04687,0.679688 -0.480468,0.738281 v 0.269532 z m 0,0"
           style="fill:#231f20;fill-opacity:1;fill-rule:nonzero;stroke:none" />
      </g>
      <path
         id="path8"
         d="m 1081.14,545.758 c 0,239.64 -194.277,433.914 -433.913,433.914 -239.637,0 -433.907,-194.274 -433.907,-433.914 0,-239.637 194.27,-433.906 433.907,-433.906 239.636,0 433.913,194.269 433.913,433.906 z"
         style="fill:none;stroke:#231f20;stroke-width:7.5;stroke-linecap:butt;stroke-linejoin:miter;stroke-miterlimit:10;stroke-dasharray:none;stroke-opacity:1"
         transform="matrix(0.13333333,0,0,-0.13333333,0,175.56)" />
      <path
         id="path9"
         d="M 513.441,132.871 786.672,958.375"
         style="fill:none;stroke:#231f20;stroke-width:7.5;stroke-linecap:butt;stroke-linejoin:miter;stroke-miterlimit:10;stroke-dasharray:none;stroke-opacity:1"
         transform="matrix(0.13333333,0,0,-0.13333333,0,175.56)" />
      <path
         id="path10"
         d="m 416.734,912.965 9.493,-3.145"
         style="fill:none;stroke:#231f20;stroke-width:7.5;stroke-linecap:butt;stroke-linejoin:miter;stroke-miterlimit:10;stroke-dasharray:none;stroke-opacity:1"
         transform="matrix(0.13333333,0,0,-0.13333333,0,175.56)" />
      <path
         id="path11"
         d="M 446.285,903.184 717.078,813.547"
         style="fill:none;stroke:#231f20;stroke-width:7.5;stroke-linecap:butt;stroke-linejoin:miter;stroke-miterlimit:10;stroke-dasharray:21.1291, 21.1291;stroke-dashoffset:0;stroke-opacity:1"
         transform="matrix(0.13333333,0,0,-0.13333333,0,175.56)" />
      <path
         id="path12"
         d="m 727.109,810.23 9.493,-3.144"
         style="fill:none;stroke:#231f20;stroke-width:7.5;stroke-linecap:butt;stroke-linejoin:miter;stroke-miterlimit:10;stroke-dasharray:none;stroke-opacity:1"
         transform="matrix(0.13333333,0,0,-0.13333333,0,175.56)" />
      <path
         id="path13"
         d="M 52.0898,1033.65 416.734,912.965"
         style="fill:none;stroke:#231f20;stroke-width:7.5;stroke-linecap:butt;stroke-linejoin:miter;stroke-miterlimit:10;stroke-dasharray:none;stroke-opacity:1"
         transform="matrix(0.13333333,0,0,-0.13333333,0,175.56)" />
      <path
         id="path14"
         d="m 62.3164,1030.27 19.2774,16.39 -0.5508,0.69 -37.8633,-2.21 c -12.5117,1.29 -25.0156,2.58 -37.52345,3.88 10.80855,-6.42 21.62105,-12.85 32.42965,-19.27 l 29.0625,-24.37 0.8204,0.12 -5.6524,24.77"
         style="fill:#231f20;fill-opacity:1;fill-rule:nonzero;stroke:none"
         transform="matrix(0.13333333,0,0,-0.13333333,0,175.56)" />
      <path
         id="path15"
         d="M 647.227,545.758 215.422,1237.18"
         style="fill:none;stroke:#231f20;stroke-width:7.5;stroke-linecap:butt;stroke-linejoin:miter;stroke-miterlimit:10;stroke-dasharray:none;stroke-opacity:1"
         transform="matrix(0.13333333,0,0,-0.13333333,0,175.56)" />
      <path
         id="path16"
         d="m 221.129,1228.04 -11.371,-22.6 -0.809,0.36 -6.797,37.33 c -4.214,11.84 -8.425,23.69 -12.64,35.54 8.801,-8.99 17.593,-17.98 26.39,-26.96 l 30.547,-22.48 0.078,-0.82 -25.398,-0.37"
         style="fill:#231f20;fill-opacity:1;fill-rule:nonzero;stroke:none"
         transform="matrix(0.13333333,0,0,-0.13333333,0,175.56)" />
      <path
         id="path17"
         d="m 283.59,960.055 c 10.836,30.605 32.055,56.285 59.418,72.835"
         style="fill:none;stroke:#231f20;stroke-width:5;stroke-linecap:butt;stroke-linejoin:miter;stroke-miterlimit:10;stroke-dasharray:none;stroke-opacity:1"
         transform="matrix(0.13333333,0,0,-0.13333333,0,175.56)" />
      <path
         id="path18"
         d="m 546.793,868.285 c -10.051,-29.269 -29.57,-54.137 -54.906,-70.941"
         style="fill:none;stroke:#231f20;stroke-width:5;stroke-linecap:butt;stroke-linejoin:miter;stroke-miterlimit:10;stroke-dasharray:none;stroke-opacity:1"
         transform="matrix(0.13333333,0,0,-0.13333333,0,175.56)" />
      <path
         id="path19"
         d="m 804.172,958.375 c 0,-9.664 -7.832,-17.5 -17.5,-17.5 -9.668,0 -17.5,7.836 -17.5,17.5 0,9.66 7.832,17.5 17.5,17.5 9.668,0 17.5,-7.84 17.5,-17.5"
         style="fill:#231f20;fill-opacity:1;fill-rule:nonzero;stroke:none"
         transform="matrix(0.13333333,0,0,-0.13333333,0,175.56)" />
      <path
         id="path20"
         d="m 754.102,807.086 c 0,-9.664 -7.832,-17.5 -17.5,-17.5 -9.668,0 -17.5,7.836 -17.5,17.5 0,9.664 7.832,17.5 17.5,17.5 9.668,0 17.5,-7.836 17.5,-17.5"
         style="fill:#231f20;fill-opacity:1;fill-rule:nonzero;stroke:none"
         transform="matrix(0.13333333,0,0,-0.13333333,0,175.56)" />
      <path
         id="path21"
         d="m 530.941,132.871 c 0,-9.672 -7.832,-17.5 -17.5,-17.5 -9.668,0 -17.5,7.828 -17.5,17.5 0,9.66 7.832,17.5 17.5,17.5 9.668,0 17.5,-7.84 17.5,-17.5"
         style="fill:#231f20;fill-opacity:1;fill-rule:nonzero;stroke:none"
         transform="matrix(0.13333333,0,0,-0.13333333,0,175.56)" />
    </g>
  </g>
</svg>
