<?xml version="1.0" encoding="UTF-8" standalone="no"?>
<!-- Created with Inkscape (http://www.inkscape.org/) -->

<svg
   version="1.1"
   id="svg1"
   width="354.94666"
   height="88.146667"
   viewBox="0 0 354.94666 88.146667"
   sodipodi:docname="pha09f16.eps"
   xmlns:inkscape="http://www.inkscape.org/namespaces/inkscape"
   xmlns:sodipodi="http://sodipodi.sourceforge.net/DTD/sodipodi-0.dtd"
   xmlns="http://www.w3.org/2000/svg"
   xmlns:svg="http://www.w3.org/2000/svg">
  <defs
     id="defs1" />
  <sodipodi:namedview
     id="namedview1"
     pagecolor="#ffffff"
     bordercolor="#000000"
     borderopacity="0.25"
     inkscape:showpageshadow="2"
     inkscape:pageopacity="0.0"
     inkscape:pagecheckerboard="0"
     inkscape:deskcolor="#d1d1d1">
    <inkscape:page
       x="0"
       y="0"
       inkscape:label="1"
       id="page1"
       width="354.94666"
       height="88.146667"
       margin="0"
       bleed="0" />
  </sodipodi:namedview>
  <g
     id="g1"
     inkscape:groupmode="layer"
     inkscape:label="1">
    <g
       id="group-R5">
      <path
         id="path2"
         d="M 2583.23,196.34 H 2.5 V 457.242 H 2583.23 V 196.34"
         style="fill:#bec9eb;fill-opacity:1;fill-rule:nonzero;stroke:none"
         transform="matrix(0.13333333,0,0,-0.13333333,0,88.146667)" />
      <path
         id="path3"
         d="M 5.2611391,-0.15358594 C 5.0384828,-0.22389844 4.8627016,-0.30592969 4.6517641,-0.58717969 4.4642641,-0.83327344 4.3002016,-1.1262422 4.0892641,-1.5363984 3.8900453,-1.9348359 3.6556703,-2.4856172 3.5502016,-2.7317109 c 0.7265625,-0.2578125 1.3945312,-0.8203125 1.3945312,-1.7226563 0,-0.5390625 -0.2226562,-0.9023437 -0.5273437,-1.1132812 C 4.1009828,-5.7785859 3.6322328,-5.8371797 3.1400453,-5.8371797 H 1.1830141 l -0.058594,0.234375 c 0.7148438,0.070312 0.7617188,0.09375 0.609375,0.84375 l -0.6914062,3.609375 c -0.15234379,0.79687501 -0.21093754,0.83203126 -0.90234379,0.90234376 l -0.046875,0.24609375 H 2.3431703 l 0.058594,-0.24609375 C 1.6752016,-0.30592969 1.6166078,-0.35280469 1.7689516,-1.1496797 l 0.2695312,-1.4179687 h 0.375 c 0.3164063,0 0.4335938,0.070312 0.5859375,0.421875 0.1875,0.4570312 0.375,0.890625 0.609375,1.33593746 0.328125,0.59765625 0.6328125,0.83203125 1.4882813,0.87890625 h 0.09375 z M 2.0853578,-2.8488984 2.5072328,-5.0754609 c 0.046875,-0.234375 0.09375,-0.3398438 0.1757813,-0.3984375 0.082031,-0.058594 0.2226562,-0.09375 0.3984375,-0.09375 0.65625,0 1.0664062,0.3984375 1.0664062,1.1835937 0,0.5625 -0.2695312,1.03125 -0.6796875,1.3125 -0.2578125,0.1757813 -0.5742187,0.2226563 -0.9609375,0.2226563 z m 0,0"
         style="fill:#231f20;fill-opacity:1;fill-rule:nonzero;stroke:none"
         aria-label="R"
         transform="matrix(1.3333333,0,0,1.3333333,112.37187,13.404)" />
      <path
         id="path4"
         d="M 5.2610953,-0.15296562 C 5.0384391,-0.22327812 4.8626578,-0.30530937 4.6517203,-0.58655937 4.4642203,-0.83265312 4.3001578,-1.1256219 4.0892203,-1.5357781 3.8900016,-1.9342156 3.6556266,-2.4849969 3.5501578,-2.7310906 c 0.7265625,-0.2578125 1.3945313,-0.8203125 1.3945313,-1.7226563 0,-0.5390625 -0.2226563,-0.9023437 -0.5273438,-1.1132812 C 4.1009391,-5.7779656 3.6321891,-5.8365594 3.1400016,-5.8365594 H 1.1829703 l -0.058594,0.234375 c 0.7148437,0.070312 0.7617187,0.09375 0.609375,0.84375 l -0.6914063,3.609375 c -0.15234374,0.79687503 -0.21093749,0.83203128 -0.90234374,0.90234378 l -0.046875,0.246093745 H 2.3431266 L 2.4017203,-0.24671562 C 1.6751578,-0.30530937 1.6165641,-0.35218437 1.7689078,-1.1490594 l 0.2695313,-1.4179687 h 0.375 c 0.3164062,0 0.4335937,0.070312 0.5859375,0.421875 0.1875,0.4570312 0.375,0.890625 0.609375,1.33593748 0.328125,0.59765625 0.6328125,0.83203125 1.4882812,0.87890625 h 0.09375 z M 2.0853141,-2.8482781 2.5071891,-5.0748406 c 0.046875,-0.234375 0.09375,-0.3398438 0.1757812,-0.3984375 0.082031,-0.058594 0.2226563,-0.09375 0.3984375,-0.09375 0.65625,0 1.0664063,0.3984375 1.0664063,1.1835937 0,0.5625 -0.2695313,1.03125 -0.6796875,1.3125 -0.2578125,0.1757813 -0.5742188,0.2226563 -0.9609375,0.2226563 z m 10.3798829,9.328125 c -0.164063,0.1757812 -0.234375,0.234375 -0.46875,0.234375 H 8.6097281 c -0.2460937,0 -0.3398437,-0.023437 -0.4453125,-0.234375 h -0.1875 C 7.8714469,6.9837531 7.7191031,7.5579719 7.5550406,8.0853156 H 7.8245719 C 7.9769156,7.7220344 8.1292594,7.4525031 8.2698844,7.2767219 8.4339469,7.0775031 8.5980094,7.0071906 9.3714469,7.0071906 H 9.8284781 L 8.9730094,11.472034 c -0.1289063,0.714844 -0.1875,0.785157 -0.9492188,0.832032 l -0.058594,0.246093 h 2.4492194 l 0.05859,-0.246093 C 9.6644156,12.257191 9.5941031,12.198597 9.7347281,11.472034 L 10.566759,7.0071906 h 0.539063 c 0.703125,0 0.890625,0.058594 0.972656,0.28125 0.08203,0.1875 0.105469,0.4570313 0.105469,0.796875 l 0.269531,-0.023437 c 0.05859,-0.4921875 0.128906,-1.171875 0.210938,-1.5820312 z M -5.2008187,-20.520153 c -0.1640625,0.175781 -0.234375,0.234375 -0.46875,0.234375 h -3.3867188 c -0.2460937,0 -0.3398437,-0.02344 -0.4453125,-0.234375 h -0.1875 c -0.1054687,0.503906 -0.2578125,1.078125 -0.421875,1.605469 h 0.2695313 c 0.1523437,-0.363282 0.3046875,-0.632813 0.4453125,-0.808594 0.1640625,-0.199219 0.328125,-0.269531 1.1015625,-0.269531 h 0.4570312 l -0.8554687,4.464843 c -0.1289063,0.714844 -0.1875,0.785157 -0.9492188,0.832032 l -0.058594,0.246093 H -7.2516 l 0.058594,-0.246093 c -0.8085938,-0.04687 -0.8789063,-0.105469 -0.7382813,-0.832032 l 0.8320313,-4.464843 h 0.5390625 c 0.703125,0 0.890625,0.05859 0.9726562,0.28125 0.082031,0.1875 0.1054688,0.457031 0.1054688,0.796875 l 0.2695312,-0.02344 c 0.058594,-0.492187 0.1289063,-1.171875 0.2109375,-1.582031 z m 0,0"
         style="fill:#231f20;fill-opacity:1;fill-rule:nonzero;stroke:none"
         aria-label="R&#10;T&#10;T"
         transform="matrix(1.3333333,0,0,1.3333333,130.9188,58.274267)" />
      <path
         id="path5"
         d="M 2583.23,196.34 H 2.5 v 260.902 h 2580.73 z"
         style="fill:none;stroke:#231f20;stroke-width:5;stroke-linecap:butt;stroke-linejoin:miter;stroke-miterlimit:10;stroke-dasharray:none;stroke-opacity:1"
         transform="matrix(0.13333333,0,0,-0.13333333,0,88.146667)" />
      <path
         id="path6"
         d="M 614.41,658.461 775.605,497.266"
         style="fill:none;stroke:#bf2623;stroke-width:7.5;stroke-linecap:butt;stroke-linejoin:miter;stroke-miterlimit:10;stroke-dasharray:none;stroke-opacity:1"
         transform="matrix(0.13333333,0,0,-0.13333333,0,88.146667)" />
      <path
         id="path7"
         d="m 767.992,504.883 5.988,24.586 0.868,-0.176 15.023,-34.828 c 6.777,-10.594 13.551,-21.188 20.324,-31.785 -10.593,6.773 -21.187,13.55 -31.789,20.316 l -34.82,15.031 -0.262,0.782 24.668,6.074"
         style="fill:#bf2623;fill-opacity:1;fill-rule:nonzero;stroke:none"
         transform="matrix(0.13333333,0,0,-0.13333333,0,88.146667)" />
      <path
         id="path8"
         d="m 1033.29,457.242 96.45,-212.246"
         style="fill:none;stroke:#2c3892;stroke-width:7.5;stroke-linecap:butt;stroke-linejoin:miter;stroke-miterlimit:10;stroke-dasharray:none;stroke-opacity:1"
         transform="matrix(0.13333333,0,0,-0.13333333,0,88.146667)" />
      <path
         id="path9"
         d="m 1125.29,254.801 14.24,20.914 0.75,-0.473 1.84,-37.883 c 2.62,-12.296 5.24,-24.597 7.86,-36.894 -7.54,10.062 -15.08,20.125 -22.62,30.187 l -27.33,26.301 0.03,0.824 25.23,-2.976"
         style="fill:#2c3892;fill-opacity:1;fill-rule:nonzero;stroke:none"
         transform="matrix(0.13333333,0,0,-0.13333333,0,88.146667)" />
      <path
         id="path10"
         d="m 1152.71,196.34 79.07,210.777"
         style="fill:none;stroke:#2c3892;stroke-width:7.5;stroke-linecap:butt;stroke-linejoin:miter;stroke-miterlimit:10;stroke-dasharray:none;stroke-opacity:1"
         transform="matrix(0.13333333,0,0,-0.13333333,0,88.146667)" />
      <path
         id="path11"
         d="m 1227.99,397.031 -24.86,-4.718 -0.2,0.867 25.49,28.086 c 6.85,10.55 13.69,21.101 20.54,31.648 -1.79,-12.445 -3.57,-24.898 -5.36,-37.344 l 0.74,-37.918 -0.61,-0.562 -15.74,19.941"
         style="fill:#2c3892;fill-opacity:1;fill-rule:nonzero;stroke:none"
         transform="matrix(0.13333333,0,0,-0.13333333,0,88.146667)" />
      <path
         id="path12"
         d="M 814.348,457.242 910.797,244.996"
         style="fill:none;stroke:#2c3892;stroke-width:7.5;stroke-linecap:butt;stroke-linejoin:miter;stroke-miterlimit:10;stroke-dasharray:none;stroke-opacity:1"
         transform="matrix(0.13333333,0,0,-0.13333333,0,88.146667)" />
      <path
         id="path13"
         d="m 906.344,254.801 14.242,20.914 0.746,-0.473 1.844,-37.883 c 2.621,-12.296 5.242,-24.597 7.859,-36.894 -7.539,10.062 -15.078,20.125 -22.621,30.187 l -27.328,26.301 0.027,0.824 25.231,-2.976"
         style="fill:#2c3892;fill-opacity:1;fill-rule:nonzero;stroke:none"
         transform="matrix(0.13333333,0,0,-0.13333333,0,88.146667)" />
      <path
         id="path14"
         d="m 933.766,196.34 79.064,210.777"
         style="fill:none;stroke:#2c3892;stroke-width:7.5;stroke-linecap:butt;stroke-linejoin:miter;stroke-miterlimit:10;stroke-dasharray:none;stroke-opacity:1"
         transform="matrix(0.13333333,0,0,-0.13333333,0,88.146667)" />
      <path
         id="path15"
         d="m 1009.05,397.031 -24.862,-4.718 -0.2,0.867 25.492,28.086 c 6.84,10.55 13.68,21.101 20.53,31.648 -1.78,-12.445 -3.57,-24.898 -5.35,-37.344 l 0.73,-37.918 -0.6,-0.562 -15.74,19.941"
         style="fill:#2c3892;fill-opacity:1;fill-rule:nonzero;stroke:none"
         transform="matrix(0.13333333,0,0,-0.13333333,0,88.146667)" />
      <path
         id="path16"
         d="m 1471.18,457.242 96.45,-212.246"
         style="fill:none;stroke:#2c3892;stroke-width:7.5;stroke-linecap:butt;stroke-linejoin:miter;stroke-miterlimit:10;stroke-dasharray:none;stroke-opacity:1"
         transform="matrix(0.13333333,0,0,-0.13333333,0,88.146667)" />
      <path
         id="path17"
         d="m 1563.18,254.801 14.24,20.914 0.75,-0.473 1.83,-37.883 c 2.62,-12.296 5.25,-24.597 7.87,-36.894 -7.54,10.062 -15.08,20.125 -22.63,30.187 l -27.32,26.301 0.02,0.824 25.24,-2.976"
         style="fill:#2c3892;fill-opacity:1;fill-rule:nonzero;stroke:none"
         transform="matrix(0.13333333,0,0,-0.13333333,0,88.146667)" />
      <path
         id="path18"
         d="m 1590.6,196.34 79.07,210.777"
         style="fill:none;stroke:#2c3892;stroke-width:7.5;stroke-linecap:butt;stroke-linejoin:miter;stroke-miterlimit:10;stroke-dasharray:none;stroke-opacity:1"
         transform="matrix(0.13333333,0,0,-0.13333333,0,88.146667)" />
      <path
         id="path19"
         d="m 1665.88,397.035 -24.85,-4.722 -0.2,0.867 25.49,28.086 c 6.84,10.55 13.68,21.101 20.53,31.648 -1.79,-12.445 -3.56,-24.898 -5.35,-37.344 l 0.73,-37.918 -0.6,-0.562 -15.75,19.945"
         style="fill:#2c3892;fill-opacity:1;fill-rule:nonzero;stroke:none"
         transform="matrix(0.13333333,0,0,-0.13333333,0,88.146667)" />
      <path
         id="path20"
         d="m 1252.24,457.242 96.45,-212.246"
         style="fill:none;stroke:#2c3892;stroke-width:7.5;stroke-linecap:butt;stroke-linejoin:miter;stroke-miterlimit:10;stroke-dasharray:none;stroke-opacity:1"
         transform="matrix(0.13333333,0,0,-0.13333333,0,88.146667)" />
      <path
         id="path21"
         d="m 1344.23,254.801 14.24,20.914 0.75,-0.473 1.84,-37.883 c 2.62,-12.296 5.24,-24.597 7.86,-36.894 -7.54,10.062 -15.08,20.125 -22.63,30.187 l -27.32,26.301 0.03,0.824 25.23,-2.976"
         style="fill:#2c3892;fill-opacity:1;fill-rule:nonzero;stroke:none"
         transform="matrix(0.13333333,0,0,-0.13333333,0,88.146667)" />
      <path
         id="path22"
         d="m 1371.66,196.34 79.07,210.777"
         style="fill:none;stroke:#2c3892;stroke-width:7.5;stroke-linecap:butt;stroke-linejoin:miter;stroke-miterlimit:10;stroke-dasharray:none;stroke-opacity:1"
         transform="matrix(0.13333333,0,0,-0.13333333,0,88.146667)" />
      <path
         id="path23"
         d="m 1446.94,397.035 -24.86,-4.722 -0.19,0.867 25.49,28.086 c 6.83,10.55 13.68,21.101 20.53,31.648 -1.79,-12.445 -3.57,-24.898 -5.36,-37.344 l 0.74,-37.918 -0.61,-0.562 -15.74,19.945"
         style="fill:#2c3892;fill-opacity:1;fill-rule:nonzero;stroke:none"
         transform="matrix(0.13333333,0,0,-0.13333333,0,88.146667)" />
      <path
         id="path24"
         d="m 1909.08,457.242 96.44,-212.246"
         style="fill:none;stroke:#2c3892;stroke-width:7.5;stroke-linecap:butt;stroke-linejoin:miter;stroke-miterlimit:10;stroke-dasharray:none;stroke-opacity:1"
         transform="matrix(0.13333333,0,0,-0.13333333,0,88.146667)" />
      <path
         id="path25"
         d="m 2001.07,254.801 14.24,20.914 0.75,-0.473 1.84,-37.883 c 2.61,-12.296 5.24,-24.597 7.86,-36.894 -7.54,10.062 -15.08,20.125 -22.63,30.187 l -27.32,26.301 0.02,0.824 25.24,-2.976"
         style="fill:#2c3892;fill-opacity:1;fill-rule:nonzero;stroke:none"
         transform="matrix(0.13333333,0,0,-0.13333333,0,88.146667)" />
      <path
         id="path26"
         d="m 2028.48,196.34 79.08,210.777"
         style="fill:none;stroke:#2c3892;stroke-width:7.5;stroke-linecap:butt;stroke-linejoin:miter;stroke-miterlimit:10;stroke-dasharray:none;stroke-opacity:1"
         transform="matrix(0.13333333,0,0,-0.13333333,0,88.146667)" />
      <path
         id="path27"
         d="m 2103.77,397.035 -24.85,-4.715 -0.2,0.86 25.49,28.086 c 6.84,10.55 13.69,21.101 20.53,31.648 -1.79,-12.445 -3.57,-24.898 -5.35,-37.344 l 0.72,-37.918 -0.6,-0.562 -15.74,19.945"
         style="fill:#2c3892;fill-opacity:1;fill-rule:nonzero;stroke:none"
         transform="matrix(0.13333333,0,0,-0.13333333,0,88.146667)" />
      <path
         id="path28"
         d="m 1690.13,457.242 96.45,-212.246"
         style="fill:none;stroke:#2c3892;stroke-width:7.5;stroke-linecap:butt;stroke-linejoin:miter;stroke-miterlimit:10;stroke-dasharray:none;stroke-opacity:1"
         transform="matrix(0.13333333,0,0,-0.13333333,0,88.146667)" />
      <path
         id="path29"
         d="m 1782.12,254.801 14.24,20.914 0.75,-0.473 1.84,-37.883 c 2.62,-12.296 5.24,-24.597 7.86,-36.894 -7.54,10.062 -15.08,20.125 -22.63,30.187 l -27.32,26.301 0.03,0.824 25.23,-2.976"
         style="fill:#2c3892;fill-opacity:1;fill-rule:nonzero;stroke:none"
         transform="matrix(0.13333333,0,0,-0.13333333,0,88.146667)" />
      <path
         id="path30"
         d="m 1809.55,196.34 79.07,210.777"
         style="fill:none;stroke:#2c3892;stroke-width:7.5;stroke-linecap:butt;stroke-linejoin:miter;stroke-miterlimit:10;stroke-dasharray:none;stroke-opacity:1"
         transform="matrix(0.13333333,0,0,-0.13333333,0,88.146667)" />
      <path
         id="path31"
         d="m 1884.83,397.035 -24.85,-4.722 -0.2,0.867 25.49,28.086 c 6.83,10.55 13.68,21.101 20.53,31.648 -1.79,-12.445 -3.57,-24.898 -5.36,-37.344 l 0.74,-37.918 -0.61,-0.562 -15.74,19.945"
         style="fill:#2c3892;fill-opacity:1;fill-rule:nonzero;stroke:none"
         transform="matrix(0.13333333,0,0,-0.13333333,0,88.146667)" />
      <path
         id="path32"
         d="M 2346.97,457.242 2443.4,244.996"
         style="fill:none;stroke:#2c3892;stroke-width:7.5;stroke-linecap:butt;stroke-linejoin:miter;stroke-miterlimit:10;stroke-dasharray:none;stroke-opacity:1"
         transform="matrix(0.13333333,0,0,-0.13333333,0,88.146667)" />
      <path
         id="path33"
         d="m 2438.95,254.801 14.24,20.914 0.75,-0.473 1.84,-37.879 c 2.61,-12.3 5.24,-24.601 7.86,-36.898 -7.54,10.062 -15.08,20.125 -22.62,30.187 l -27.33,26.301 0.03,0.824 25.23,-2.976"
         style="fill:#2c3892;fill-opacity:1;fill-rule:nonzero;stroke:none"
         transform="matrix(0.13333333,0,0,-0.13333333,0,88.146667)" />
      <path
         id="path34"
         d="m 2466.37,196.34 79.08,210.777"
         style="fill:none;stroke:#2c3892;stroke-width:7.5;stroke-linecap:butt;stroke-linejoin:miter;stroke-miterlimit:10;stroke-dasharray:none;stroke-opacity:1"
         transform="matrix(0.13333333,0,0,-0.13333333,0,88.146667)" />
      <path
         id="path35"
         d="m 2541.67,397.035 -24.86,-4.715 -0.2,0.86 25.49,28.086 c 6.84,10.55 13.69,21.101 20.53,31.648 -1.79,-12.445 -3.57,-24.898 -5.35,-37.344 l 0.72,-37.918 -0.6,-0.562 -15.73,19.945"
         style="fill:#2c3892;fill-opacity:1;fill-rule:nonzero;stroke:none"
         transform="matrix(0.13333333,0,0,-0.13333333,0,88.146667)" />
      <path
         id="path36"
         d="m 2128.02,457.242 96.44,-212.246"
         style="fill:none;stroke:#2c3892;stroke-width:7.5;stroke-linecap:butt;stroke-linejoin:miter;stroke-miterlimit:10;stroke-dasharray:none;stroke-opacity:1"
         transform="matrix(0.13333333,0,0,-0.13333333,0,88.146667)" />
      <path
         id="path37"
         d="m 2220,254.801 14.24,20.914 0.76,-0.473 1.83,-37.879 c 2.62,-12.3 5.25,-24.601 7.86,-36.898 -7.54,10.062 -15.08,20.125 -22.61,30.187 l -27.34,26.301 0.03,0.824 25.23,-2.976"
         style="fill:#2c3892;fill-opacity:1;fill-rule:nonzero;stroke:none"
         transform="matrix(0.13333333,0,0,-0.13333333,0,88.146667)" />
      <path
         id="path38"
         d="m 2247.43,196.34 79.08,210.777"
         style="fill:none;stroke:#2c3892;stroke-width:7.5;stroke-linecap:butt;stroke-linejoin:miter;stroke-miterlimit:10;stroke-dasharray:none;stroke-opacity:1"
         transform="matrix(0.13333333,0,0,-0.13333333,0,88.146667)" />
      <path
         id="path39"
         d="m 2322.72,397.035 -24.85,-4.715 -0.21,0.86 25.5,28.086 c 6.84,10.55 13.68,21.101 20.53,31.648 -1.79,-12.445 -3.58,-24.898 -5.36,-37.344 l 0.73,-37.918 -0.61,-0.562 -15.73,19.945"
         style="fill:#2c3892;fill-opacity:1;fill-rule:nonzero;stroke:none"
         transform="matrix(0.13333333,0,0,-0.13333333,0,88.146667)" />
      <path
         id="path40"
         d="m 1033.22,457.242 161.19,161.196"
         style="fill:none;stroke:#231f20;stroke-width:7.5;stroke-linecap:butt;stroke-linejoin:miter;stroke-miterlimit:10;stroke-dasharray:none;stroke-opacity:1"
         transform="matrix(0.13333333,0,0,-0.13333333,0,88.146667)" />
      <path
         id="path41"
         d="m 1186.8,610.82 -24.59,5.985 0.18,0.871 34.82,15.023 c 10.6,6.778 21.19,13.551 31.79,20.324 -6.77,-10.597 -13.55,-21.187 -20.32,-31.785 l -15.03,-34.828 -0.78,-0.258 -6.07,24.668"
         style="fill:#231f20;fill-opacity:1;fill-rule:nonzero;stroke:none"
         transform="matrix(0.13333333,0,0,-0.13333333,0,88.146667)" />
      <path
         id="path42"
         d="M 814.27,457.242 975.465,618.438"
         style="fill:none;stroke:#231f20;stroke-width:7.5;stroke-linecap:butt;stroke-linejoin:miter;stroke-miterlimit:10;stroke-dasharray:none;stroke-opacity:1"
         transform="matrix(0.13333333,0,0,-0.13333333,0,88.146667)" />
      <path
         id="path43"
         d="m 967.848,610.82 -24.586,5.985 0.176,0.871 34.828,15.023 c 10.589,6.778 21.187,13.551 31.784,20.324 -6.77,-10.597 -13.55,-21.187 -20.323,-31.785 l -15.024,-34.828 -0.781,-0.258 -6.074,24.668"
         style="fill:#231f20;fill-opacity:1;fill-rule:nonzero;stroke:none"
         transform="matrix(0.13333333,0,0,-0.13333333,0,88.146667)" />
      <path
         id="path44"
         d="m 1253.07,457.242 161.19,161.196"
         style="fill:none;stroke:#231f20;stroke-width:7.5;stroke-linecap:butt;stroke-linejoin:miter;stroke-miterlimit:10;stroke-dasharray:none;stroke-opacity:1"
         transform="matrix(0.13333333,0,0,-0.13333333,0,88.146667)" />
      <path
         id="path45"
         d="m 1406.65,610.82 -24.58,5.993 0.17,0.863 34.83,15.027 c 10.59,6.774 21.19,13.547 31.78,20.32 -6.77,-10.597 -13.54,-21.187 -20.32,-31.785 l -15.02,-34.828 -0.79,-0.258 -6.07,24.668"
         style="fill:#231f20;fill-opacity:1;fill-rule:nonzero;stroke:none"
         transform="matrix(0.13333333,0,0,-0.13333333,0,88.146667)" />
      <path
         id="path46"
         d="m 1472.92,457.242 161.2,161.196"
         style="fill:none;stroke:#231f20;stroke-width:7.5;stroke-linecap:butt;stroke-linejoin:miter;stroke-miterlimit:10;stroke-dasharray:none;stroke-opacity:1"
         transform="matrix(0.13333333,0,0,-0.13333333,0,88.146667)" />
      <path
         id="path47"
         d="m 1626.5,610.82 -24.58,5.985 0.17,0.871 34.83,15.023 c 10.59,6.778 21.19,13.551 31.79,20.324 -6.78,-10.597 -13.55,-21.187 -20.33,-31.785 l -15.02,-34.828 -0.79,-0.258 -6.07,24.668"
         style="fill:#231f20;fill-opacity:1;fill-rule:nonzero;stroke:none"
         transform="matrix(0.13333333,0,0,-0.13333333,0,88.146667)" />
      <path
         id="path48"
         d="m 1692.77,457.242 161.19,161.196"
         style="fill:none;stroke:#231f20;stroke-width:7.5;stroke-linecap:butt;stroke-linejoin:miter;stroke-miterlimit:10;stroke-dasharray:none;stroke-opacity:1"
         transform="matrix(0.13333333,0,0,-0.13333333,0,88.146667)" />
      <path
         id="path49"
         d="m 1846.34,610.82 -24.58,5.985 0.18,0.871 34.82,15.023 c 10.6,6.778 21.19,13.551 31.79,20.324 -6.78,-10.597 -13.55,-21.187 -20.32,-31.785 l -15.02,-34.828 -0.79,-0.258 -6.08,24.668"
         style="fill:#231f20;fill-opacity:1;fill-rule:nonzero;stroke:none"
         transform="matrix(0.13333333,0,0,-0.13333333,0,88.146667)" />
      <path
         id="path50"
         d="m 1909.58,457.242 161.19,161.196"
         style="fill:none;stroke:#231f20;stroke-width:7.5;stroke-linecap:butt;stroke-linejoin:miter;stroke-miterlimit:10;stroke-dasharray:none;stroke-opacity:1"
         transform="matrix(0.13333333,0,0,-0.13333333,0,88.146667)" />
      <path
         id="path51"
         d="m 2063.15,610.82 -24.58,5.985 0.18,0.871 34.82,15.023 c 10.6,6.778 21.19,13.551 31.79,20.324 -6.78,-10.597 -13.55,-21.187 -20.33,-31.785 l -15.02,-34.828 -0.79,-0.258 -6.07,24.668"
         style="fill:#231f20;fill-opacity:1;fill-rule:nonzero;stroke:none"
         transform="matrix(0.13333333,0,0,-0.13333333,0,88.146667)" />
      <path
         id="path52"
         d="m 2129.43,457.242 161.19,161.196"
         style="fill:none;stroke:#231f20;stroke-width:7.5;stroke-linecap:butt;stroke-linejoin:miter;stroke-miterlimit:10;stroke-dasharray:none;stroke-opacity:1"
         transform="matrix(0.13333333,0,0,-0.13333333,0,88.146667)" />
      <path
         id="path53"
         d="m 2283,610.82 -24.58,5.985 0.18,0.871 34.82,15.023 c 10.6,6.778 21.19,13.551 31.79,20.324 -6.78,-10.597 -13.54,-21.187 -20.32,-31.785 l -15.02,-34.828 -0.79,-0.258 -6.08,24.668"
         style="fill:#231f20;fill-opacity:1;fill-rule:nonzero;stroke:none"
         transform="matrix(0.13333333,0,0,-0.13333333,0,88.146667)" />
      <path
         id="path54"
         d="m 2349.27,457.242 161.19,161.196"
         style="fill:none;stroke:#231f20;stroke-width:7.5;stroke-linecap:butt;stroke-linejoin:miter;stroke-miterlimit:10;stroke-dasharray:none;stroke-opacity:1"
         transform="matrix(0.13333333,0,0,-0.13333333,0,88.146667)" />
      <path
         id="path55"
         d="m 2502.85,610.82 -24.58,5.985 0.17,0.871 34.83,15.023 c 10.59,6.778 21.19,13.551 31.78,20.324 -6.77,-10.597 -13.54,-21.187 -20.32,-31.785 l -15.02,-34.828 -0.79,-0.258 -6.07,24.668"
         style="fill:#231f20;fill-opacity:1;fill-rule:nonzero;stroke:none"
         transform="matrix(0.13333333,0,0,-0.13333333,0,88.146667)" />
      <path
         id="path56"
         d="M 932.988,195.797 1094.18,34.5898"
         style="fill:none;stroke:#231f20;stroke-width:7.5;stroke-linecap:butt;stroke-linejoin:miter;stroke-miterlimit:10;stroke-dasharray:none;stroke-opacity:1"
         transform="matrix(0.13333333,0,0,-0.13333333,0,88.146667)" />
      <path
         id="path57"
         d="m 1086.57,42.2031 5.99,24.5821 0.87,-0.1758 15.02,-34.8242 C 1115.22,21.1914 1122,10.5938 1128.77,0 c -10.6,6.77344 -21.19,13.5508 -31.78,20.3203 l -34.83,15.0274 -0.26,0.7851 24.67,6.0703"
         style="fill:#231f20;fill-opacity:1;fill-rule:nonzero;stroke:none"
         transform="matrix(0.13333333,0,0,-0.13333333,0,88.146667)" />
      <path
         id="path58"
         d="M 1152.84,195.797 1314.03,34.5898"
         style="fill:none;stroke:#231f20;stroke-width:7.5;stroke-linecap:butt;stroke-linejoin:miter;stroke-miterlimit:10;stroke-dasharray:none;stroke-opacity:1"
         transform="matrix(0.13333333,0,0,-0.13333333,0,88.146667)" />
      <path
         id="path59"
         d="m 1306.42,42.2031 5.99,24.5821 0.87,-0.1758 15.02,-34.8242 c 6.77,-10.5938 13.55,-21.1914 20.32,-31.7852 -10.6,6.77344 -21.19,13.5508 -31.79,20.3203 l -34.82,15.0274 -0.26,0.7851 24.67,6.0703"
         style="fill:#231f20;fill-opacity:1;fill-rule:nonzero;stroke:none"
         transform="matrix(0.13333333,0,0,-0.13333333,0,88.146667)" />
      <path
         id="path60"
         d="M 1372.69,195.797 1533.88,34.5898"
         style="fill:none;stroke:#231f20;stroke-width:7.5;stroke-linecap:butt;stroke-linejoin:miter;stroke-miterlimit:10;stroke-dasharray:none;stroke-opacity:1"
         transform="matrix(0.13333333,0,0,-0.13333333,0,88.146667)" />
      <path
         id="path61"
         d="m 1526.27,42.2031 5.99,24.5821 0.87,-0.1758 15.02,-34.8242 C 1554.93,21.1914 1561.7,10.5938 1568.47,0 c -10.59,6.77344 -21.19,13.5508 -31.79,20.3203 l -34.82,15.0274 -0.25,0.7851 24.66,6.0703"
         style="fill:#231f20;fill-opacity:1;fill-rule:nonzero;stroke:none"
         transform="matrix(0.13333333,0,0,-0.13333333,0,88.146667)" />
      <path
         id="path62"
         d="M 1592.54,195.797 1753.73,34.5898"
         style="fill:none;stroke:#231f20;stroke-width:7.5;stroke-linecap:butt;stroke-linejoin:miter;stroke-miterlimit:10;stroke-dasharray:none;stroke-opacity:1"
         transform="matrix(0.13333333,0,0,-0.13333333,0,88.146667)" />
      <path
         id="path63"
         d="m 1746.12,42.207 5.98,24.5782 0.87,-0.1758 15.02,-34.8242 c 6.78,-10.5938 13.56,-21.1914 20.33,-31.7852 -10.6,6.77734 -21.2,13.5508 -31.79,20.3203 l -34.83,15.0313 -0.25,0.7812 24.67,6.0742"
         style="fill:#231f20;fill-opacity:1;fill-rule:nonzero;stroke:none"
         transform="matrix(0.13333333,0,0,-0.13333333,0,88.146667)" />
      <path
         id="path64"
         d="M 1809.34,195.797 1970.54,34.5898"
         style="fill:none;stroke:#231f20;stroke-width:7.5;stroke-linecap:butt;stroke-linejoin:miter;stroke-miterlimit:10;stroke-dasharray:none;stroke-opacity:1"
         transform="matrix(0.13333333,0,0,-0.13333333,0,88.146667)" />
      <path
         id="path65"
         d="m 1962.92,42.2031 6,24.5821 0.87,-0.1758 15.02,-34.8242 c 6.78,-10.5938 13.55,-21.1914 20.32,-31.7852 -10.59,6.77344 -21.19,13.5508 -31.79,20.3203 l -34.82,15.0274 -0.26,0.7812 24.66,6.0742"
         style="fill:#231f20;fill-opacity:1;fill-rule:nonzero;stroke:none"
         transform="matrix(0.13333333,0,0,-0.13333333,0,88.146667)" />
      <path
         id="path66"
         d="M 2029.19,195.797 2190.39,34.5898"
         style="fill:none;stroke:#231f20;stroke-width:7.5;stroke-linecap:butt;stroke-linejoin:miter;stroke-miterlimit:10;stroke-dasharray:none;stroke-opacity:1"
         transform="matrix(0.13333333,0,0,-0.13333333,0,88.146667)" />
      <path
         id="path67"
         d="m 2182.78,42.2031 5.98,24.5821 0.87,-0.1758 15.02,-34.8242 c 6.78,-10.5938 13.56,-21.1914 20.33,-31.7852 -10.6,6.77344 -21.2,13.5508 -31.79,20.3203 l -34.83,15.0274 -0.25,0.7851 24.67,6.0703"
         style="fill:#231f20;fill-opacity:1;fill-rule:nonzero;stroke:none"
         transform="matrix(0.13333333,0,0,-0.13333333,0,88.146667)" />
      <path
         id="path68"
         d="M 2249.04,195.797 2410.23,34.5898"
         style="fill:none;stroke:#231f20;stroke-width:7.5;stroke-linecap:butt;stroke-linejoin:miter;stroke-miterlimit:10;stroke-dasharray:none;stroke-opacity:1"
         transform="matrix(0.13333333,0,0,-0.13333333,0,88.146667)" />
      <path
         id="path69"
         d="m 2402.62,42.2031 5.99,24.5821 0.87,-0.1758 15.02,-34.8242 c 6.77,-10.5938 13.55,-21.1914 20.32,-31.7852 -10.6,6.77344 -21.19,13.5508 -31.79,20.3203 l -34.82,15.0274 -0.26,0.7851 24.67,6.0703"
         style="fill:#231f20;fill-opacity:1;fill-rule:nonzero;stroke:none"
         transform="matrix(0.13333333,0,0,-0.13333333,0,88.146667)" />
      <path
         id="path70"
         d="M 2466.32,196.434 2627.51,35.2422"
         style="fill:none;stroke:#231f20;stroke-width:7.5;stroke-linecap:butt;stroke-linejoin:miter;stroke-miterlimit:10;stroke-dasharray:none;stroke-opacity:1"
         transform="matrix(0.13333333,0,0,-0.13333333,0,88.146667)" />
      <path
         id="path71"
         d="m 2619.9,42.8555 5.99,24.5859 0.87,-0.1758 15.02,-34.8242 C 2648.56,21.8438 2655.34,11.25 2662.1,0.652344 2651.51,7.42578 2640.91,14.2031 2630.32,20.9766 L 2595.49,36 l -0.26,0.7813 24.67,6.0742"
         style="fill:#231f20;fill-opacity:1;fill-rule:nonzero;stroke:none"
         transform="matrix(0.13333333,0,0,-0.13333333,0,88.146667)" />
      <g
         id="g71"
         aria-label="Air (η = 1)&#10;Glass (η = 1.5)&#10;Air (η = 1)"
         transform="matrix(1.3333333,0,0,1.3333333,7.4828133,22.562267)">
        <path
           id="path72"
           d="M 6.059765,1.75e-4 V -0.2576375 C 5.4738275,-0.3045125 5.35664,-0.38654375 5.0636713,-1.1599812 c -0.5742188,-1.5703125 -1.171875,-3.28125 -1.734375,-4.828125 l -0.28125,0.082031 -1.8632813,4.7226563 C 0.86835875,-0.38654375 0.75117125,-0.32795 0.1769525,-0.2576375 V 1.75e-4 h 1.9570313 v -0.2578125 c -0.6796875,-0.0585938 -0.75,-0.15234375 -0.5625,-0.71484375 C 1.6886713,-1.3474812 1.8292963,-1.7224812 1.9699213,-2.1326375 h 1.921875 c 0.1992187,0.5507813 0.375,1.03125 0.4921875,1.3828125 C 4.5011713,-0.3982625 4.41914,-0.32795 3.85664,-0.2576375 V 1.75e-4 Z M 3.76289,-2.5193562 H 2.1105463 c 0.2695312,-0.7382813 0.5507812,-1.5234375 0.84375,-2.296875 H 2.966015 Z M 7.4103509,-4.82795 c 0.2578125,0 0.4570313,-0.2109375 0.4570313,-0.4570312 0,-0.2695313 -0.1992188,-0.46875 -0.4570313,-0.46875 -0.234375,0 -0.4570312,0.1992187 -0.4570312,0.46875 0,0.2460937 0.2226562,0.4570312 0.4570312,0.4570312 z M 8.4650384,1.75e-4 V -0.2342 C 7.8791009,-0.29279375 7.8205072,-0.33966875 7.8205072,-0.94904375 V -4.0545125 C 7.4220697,-3.9021687 7.0001947,-3.7849812 6.5431634,-3.70295 v 0.2109375 c 0.5390625,0.09375 0.5625,0.1289063 0.5625,0.6796875 v 1.86328125 c 0,0.609375 -0.058594,0.65625 -0.6210937,0.71484375 V 1.75e-4 Z M 10.23164,-3.0818562 v -0.984375 c -0.4335937,0.1875 -0.8320312,0.2929687 -1.265625,0.3632812 v 0.1992188 c 0.5039063,0.070312 0.5507813,0.1054687 0.5507813,0.703125 v 1.8632812 c 0,0.59765625 -0.058594,0.64453125 -0.6210938,0.703125 V 1.75e-4 H 10.969921 V -0.2342 C 10.278515,-0.29279375 10.23164,-0.33966875 10.23164,-0.937325 V -2.57795 c 0.199219,-0.5039062 0.480469,-0.7734375 0.714844,-0.7734375 0.152344,0 0.257812,0.046875 0.386719,0.1875 0.04687,0.046875 0.128906,0.058594 0.234375,0.011719 0.175781,-0.082031 0.292968,-0.2578125 0.292968,-0.4335938 0,-0.2226562 -0.210937,-0.4570312 -0.527343,-0.4570312 -0.421875,0 -0.808594,0.5039062 -1.078125,0.9609375 z m 6.448242,4.40625 c -0.890625,-0.7617188 -1.40625,-2.20312505 -1.40625,-3.75 0,-1.546875 0.515625,-3 1.40625,-3.75 l -0.152344,-0.2109375 c -1.324218,0.9023437 -1.910156,2.3320312 -1.910156,3.9492187 0,1.62890625 0.585938,3.08203125 1.910156,3.9609375 z m 0,0"
           style="fill:#231f20;fill-opacity:1;fill-rule:nonzero;stroke:none" />
        <path
           id="path73"
           d="M 18.76289,-2.2146687 18.95039,-3.0467 c 0.175781,-0.6914062 0.140625,-0.9960937 -0.07031,-0.9960937 -0.246094,0 -0.796875,0.3398437 -1.289063,0.8671875 l 0.140625,0.1992187 c 0.222656,-0.2226562 0.503906,-0.4101562 0.585938,-0.4101562 0.04687,0 0.07031,0.082031 0,0.375 -0.210938,0.984375 -0.46875,2.0742187 -0.714844,3.04687495 l 0.05859,0.0703125 C 17.82539,0.04705 18.071484,-0.0232625 18.305859,-0.0701375 c 0.105469,-0.5390625 0.246094,-1.1132812 0.351562,-1.5117187 0.597657,-0.9257813 1.570313,-1.8867188 1.910157,-1.8867188 0.117187,0 0.152343,0.1171875 0.02344,0.6914063 -0.175781,0.7382812 -0.339844,1.4648437 -0.515625,2.2148437 -0.292969,1.3125 -0.480469,2.1679688 -0.457031,2.34375 0.05859,0.2226563 0.375,0.5273438 0.621094,0.5273438 l 0.05859,-0.1171875 c -0.03516,-0.1640625 -0.01172,-0.5390625 0.164063,-1.42968755 0.222656,-1.125 0.457031,-2.24999995 0.773437,-3.55078125 0.257813,-1.1132812 0.05859,-1.2539062 -0.140625,-1.2539062 -0.152343,0 -0.375,0.070312 -0.597656,0.1992187 -0.398437,0.2460938 -1.054687,0.7382813 -1.710937,1.6289063 z m 0,0"
           style="fill:#231f20;fill-opacity:1;fill-rule:nonzero;stroke:none" />
        <path
           id="path74"
           d="m 28.480663,-2.8943562 v -0.4453125 h -4.289062 v 0.4453125 z m 0,1.6523437 V -1.687325 h -4.289062 v 0.4453125 z M 34.442577,1.75e-4 V -0.24591875 C 33.622265,-0.3045125 33.563671,-0.374825 33.563671,-1.031075 v -4.6875 c -0.492187,0.1992188 -1.019531,0.375 -1.59375,0.46875 v 0.2109375 l 0.433594,0.011719 c 0.386719,0.023437 0.421875,0.070312 0.421875,0.5390625 v 3.4570312 c 0,0.65625 -0.03516,0.7265625 -0.855469,0.78515625 V 1.75e-4 Z m 1.274415,-6.1757812 c 0.890625,0.7382812 1.417968,2.203125 1.417968,3.75 0,1.54687495 -0.503906,2.9882812 -1.417968,3.75 l 0.164062,0.1992187 c 1.347656,-0.9140625 1.898438,-2.33203125 1.898438,-3.9492187 0,-1.6289063 -0.550782,-3.0585938 -1.898438,-3.9609375 z M 6.2238275,16.960136 H 3.9386713 v 0.246094 c 0.890625,0.07031 0.9492187,0.117187 0.9492187,0.773437 v 0.761719 c 0,0.375 -0.1054687,0.480469 -0.2929687,0.585937 -0.1875,0.09375 -0.46875,0.164063 -0.7734375,0.164063 -1.7460938,0 -2.5078125,-1.511719 -2.5078125,-2.8125 0,-1.664063 1.0078125,-2.671875 2.390625,-2.671875 0.8554687,0 1.5351562,0.292969 1.7460937,1.394531 l 0.2578125,-0.05859 C 5.63789,14.757011 5.591015,14.253105 5.5675775,13.948417 c -0.2929687,-0.07031 -0.984375,-0.269531 -1.734375,-0.269531 -1.7578125,0 -3.43359375,1.019531 -3.43359375,3.105469 0,1.78125 1.32421875,3.023437 3.30468755,3.023437 0.7148437,0 1.453125,-0.199219 2.015625,-0.339844 -0.058594,-0.246093 -0.070312,-0.527343 -0.070312,-0.84375 V 17.86248 c 0,-0.539063 0.035156,-0.585938 0.5742187,-0.65625 z m 2.3291016,2.707031 v -0.234375 c -0.5742188,-0.05859 -0.65625,-0.105469 -0.65625,-0.703125 V 13.257011 C 7.5919916,13.36248 7.0412103,13.514823 6.5724603,13.573417 v 0.210938 c 0.5625,0.04687 0.6210938,0.08203 0.6210938,0.691406 v 4.253906 c 0,0.597656 -0.082031,0.644531 -0.6445313,0.703125 v 0.234375 z m 4.0605469,-0.351562 -0.09375,-0.234375 c -0.09375,0.05859 -0.222656,0.105468 -0.328125,0.105468 -0.152344,0 -0.316406,-0.140625 -0.316406,-0.550781 v -1.664062 c 0,-0.46875 -0.08203,-0.84375 -0.398438,-1.101563 -0.199219,-0.164062 -0.46875,-0.246094 -0.738281,-0.246094 -0.515625,0.105469 -1.1015626,0.457032 -1.3476563,0.632813 -0.1757813,0.128906 -0.2929688,0.222656 -0.2929688,0.363281 0,0.199219 0.234375,0.386719 0.3984375,0.386719 0.1289063,0 0.2226563,-0.07031 0.2578125,-0.210938 0.070312,-0.28125 0.1523438,-0.480468 0.2695311,-0.597656 0.09375,-0.105469 0.222656,-0.175781 0.410156,-0.175781 0.445313,0 0.75,0.363281 0.75,1.019531 v 0.164063 c -0.199218,0.152343 -0.855468,0.398437 -1.3945308,0.574218 -0.4921875,0.175782 -0.7265625,0.457032 -0.7265625,0.902344 0,0.5625 0.4453125,1.089844 1.0781253,1.089844 0.269531,0 0.703125,-0.328125 1.066406,-0.574219 0.04687,0.152344 0.09375,0.28125 0.210937,0.410156 0.105469,0.08203 0.292969,0.164063 0.421875,0.164063 z m -1.429688,-0.410157 c -0.164062,0.164063 -0.480468,0.316407 -0.714843,0.328125 -0.28125,0 -0.6445316,-0.222656 -0.6445316,-0.691406 0,-0.328125 0.1992186,-0.492187 0.5507816,-0.65625 0.1875,-0.09375 0.621093,-0.28125 0.808593,-0.375 z m 4.335938,-2.167968 c -0.03516,-0.222657 -0.128906,-0.75 -0.199219,-0.960938 -0.1875,-0.07031 -0.433594,-0.152344 -0.796875,-0.152344 -0.832031,0 -1.371094,0.527344 -1.371094,1.160157 0,0.691406 0.585938,0.996093 1.125,1.242187 0.445313,0.210938 0.703125,0.421875 0.703125,0.820313 0,0.375 -0.304687,0.632812 -0.632812,0.632812 -0.539063,0 -0.949219,-0.527344 -1.113281,-1.113281 l -0.234375,0.03516 c 0,0.328125 0.08203,0.9375 0.152343,1.066406 0.164063,0.140625 0.574219,0.304688 1.03125,0.304688 0.726563,0 1.488282,-0.421875 1.488282,-1.242188 0,-0.621093 -0.457032,-0.9375 -1.136719,-1.21875 -0.410156,-0.175781 -0.761719,-0.375 -0.761719,-0.785156 0,-0.351562 0.246094,-0.621094 0.585938,-0.621094 0.433593,0 0.75,0.363282 0.925781,0.890625 z m 3.257812,0 c -0.03516,-0.222657 -0.128906,-0.75 -0.199218,-0.960938 -0.1875,-0.07031 -0.433594,-0.152344 -0.796875,-0.152344 -0.832032,0 -1.371094,0.527344 -1.371094,1.160157 0,0.691406 0.585937,0.996093 1.125,1.242187 0.445312,0.210938 0.703125,0.421875 0.703125,0.820313 0,0.375 -0.304688,0.632812 -0.632813,0.632812 -0.539062,0 -0.949218,-0.527344 -1.113281,-1.113281 l -0.234375,0.03516 c 0,0.328125 0.08203,0.9375 0.152344,1.066406 0.164062,0.140625 0.574219,0.304688 1.03125,0.304688 0.726562,0 1.488281,-0.421875 1.488281,-1.242188 0,-0.621093 -0.457031,-0.9375 -1.136719,-1.21875 -0.410156,-0.175781 -0.761718,-0.375 -0.761718,-0.785156 0,-0.351562 0.246093,-0.621094 0.585937,-0.621094 0.433594,0 0.75,0.363282 0.925781,0.890625 z m 5.15918,4.253906 c -0.890625,-0.761719 -1.40625,-2.203125 -1.40625,-3.75 0,-1.546875 0.515625,-3 1.40625,-3.75 l -0.152344,-0.210938 c -1.324218,0.902344 -1.910156,2.332032 -1.910156,3.949219 0,1.628906 0.585938,3.082031 1.910156,3.960938 z m 0,0"
           style="fill:#231f20;fill-opacity:1;fill-rule:nonzero;stroke:none" />
        <path
           id="path75"
           d="m 26.016796,17.452323 0.1875,-0.832031 c 0.175782,-0.691406 0.140625,-0.996094 -0.07031,-0.996094 -0.246094,0 -0.796875,0.339844 -1.289063,0.867188 l 0.140625,0.199219 c 0.222657,-0.222657 0.503907,-0.410157 0.585938,-0.410157 0.04687,0 0.07031,0.08203 0,0.375 -0.210938,0.984375 -0.46875,2.074219 -0.714844,3.046875 l 0.05859,0.07031 c 0.164062,-0.05859 0.410156,-0.128906 0.644531,-0.175781 0.105469,-0.539063 0.246094,-1.113282 0.351563,-1.511719 0.597656,-0.925781 1.570312,-1.886719 1.910156,-1.886719 0.117187,0 0.152344,0.117188 0.02344,0.691406 -0.175781,0.738282 -0.339843,1.464844 -0.515625,2.214844 -0.292968,1.3125 -0.480468,2.167969 -0.457031,2.34375 0.05859,0.222656 0.375,0.527344 0.621094,0.527344 l 0.05859,-0.117188 c -0.03516,-0.164062 -0.01172,-0.539062 0.164062,-1.429687 0.222656,-1.125 0.457031,-2.25 0.773438,-3.550781 0.257812,-1.113282 0.05859,-1.253907 -0.140625,-1.253907 -0.152344,0 -0.375,0.07031 -0.597657,0.199219 -0.398437,0.246094 -1.054687,0.738281 -1.710937,1.628906 z m 0,0"
           style="fill:#231f20;fill-opacity:1;fill-rule:nonzero;stroke:none" />
        <path
           id="path76"
           d="m 35.73457,16.772636 v -0.445313 h -4.289063 v 0.445313 z m 0,1.652344 v -0.445313 h -4.289063 v 0.445313 z m 5.961914,1.242187 v -0.246094 c -0.820313,-0.05859 -0.878907,-0.128906 -0.878907,-0.785156 v -4.6875 c -0.492187,0.199219 -1.019531,0.375 -1.59375,0.46875 v 0.210938 l 0.433594,0.01172 c 0.386719,0.02344 0.421875,0.07031 0.421875,0.539063 v 3.457031 c 0,0.65625 -0.03516,0.726563 -0.855469,0.785156 v 0.246094 z m 1.895508,0.105469 c 0.28125,0 0.503906,-0.199219 0.503906,-0.515625 0,-0.292969 -0.222656,-0.515625 -0.503906,-0.515625 -0.292969,0 -0.503907,0.222656 -0.503907,0.515625 0,0.316406 0.210938,0.515625 0.503907,0.515625 z m 2.390625,-5.050781 h 2.097656 l 0.234375,-0.585938 -0.05859,-0.07031 h -2.566406 l -0.351563,2.742187 c 0.210938,-0.08203 0.550782,-0.1875 0.925782,-0.1875 0.984375,0 1.464843,0.574219 1.464843,1.359375 0,0.679688 -0.375,1.335938 -1.136718,1.335938 -0.550782,0 -0.914063,-0.292969 -1.113282,-0.457032 -0.08203,-0.07031 -0.152343,-0.05859 -0.234375,0 -0.105468,0.09375 -0.1875,0.210938 -0.1875,0.292969 -0.02344,0.105469 0.02344,0.1875 0.140625,0.304688 0.128907,0.128906 0.515625,0.316406 0.925782,0.316406 0.480468,-0.01172 1.078125,-0.246094 1.570312,-0.632813 0.550781,-0.457031 0.796875,-0.960937 0.796875,-1.511718 0,-0.738282 -0.585937,-1.511719 -1.734375,-1.511719 -0.246094,0 -0.667969,0.140625 -1.007812,0.269531 z m 3.360351,-1.230469 c 0.890625,0.738281 1.417969,2.203125 1.417969,3.75 0,1.546875 -0.503906,2.988281 -1.417969,3.75 l 0.164063,0.199219 c 1.347656,-0.914063 1.898437,-2.332032 1.898437,-3.949219 0,-1.628906 -0.550781,-3.058594 -1.898437,-3.960938 z M 6.059765,39.334159 V 39.076347 C 5.4738275,39.029472 5.35664,38.947441 5.0636713,38.174003 4.4894525,36.603691 3.8917963,34.892753 3.3292963,33.345878 l -0.28125,0.08203 -1.8632813,4.722657 C 0.86835875,38.94744 0.75117125,39.006033 0.1769525,39.076346 v 0.257812 h 1.9570313 v -0.257812 c -0.6796875,-0.05859 -0.75,-0.152344 -0.5625,-0.714844 0.1171875,-0.375 0.2578125,-0.75 0.3984375,-1.160156 h 1.921875 c 0.1992187,0.550781 0.375,1.03125 0.4921875,1.382812 0.1171875,0.351563 0.035156,0.421875 -0.5273438,0.492188 v 0.257812 z M 3.76289,36.814628 H 2.1105463 c 0.2695312,-0.738281 0.5507812,-1.523437 0.84375,-2.296875 h 0.011719 z m 3.6474609,-2.308594 c 0.2578125,0 0.4570313,-0.210937 0.4570313,-0.457031 0,-0.269531 -0.1992188,-0.46875 -0.4570313,-0.46875 -0.234375,0 -0.4570312,0.199219 -0.4570312,0.46875 0,0.246094 0.2226562,0.457031 0.4570312,0.457031 z m 1.0546875,4.828125 V 39.099784 C 7.8791009,39.041191 7.8205072,38.994316 7.8205072,38.384941 v -3.105469 c -0.3984375,0.152344 -0.8203125,0.269531 -1.2773438,0.351562 v 0.210938 c 0.5390625,0.09375 0.5625,0.128906 0.5625,0.679687 v 1.863282 c 0,0.609375 -0.058594,0.65625 -0.6210937,0.714843 v 0.234375 z M 10.23164,36.252128 v -0.984375 c -0.4335937,0.1875 -0.8320312,0.292969 -1.265625,0.363281 v 0.199219 c 0.5039063,0.07031 0.5507813,0.105469 0.5507813,0.703125 v 1.863281 c 0,0.597657 -0.058594,0.644532 -0.6210938,0.703125 v 0.234375 H 10.969921 V 39.099784 C 10.278515,39.041191 10.23164,38.994316 10.23164,38.396659 v -1.640625 c 0.199219,-0.503906 0.480469,-0.773437 0.714844,-0.773437 0.152344,0 0.257812,0.04687 0.386719,0.1875 0.04687,0.04687 0.128906,0.05859 0.234375,0.01172 0.175781,-0.08203 0.292968,-0.257813 0.292968,-0.433594 0,-0.222656 -0.210937,-0.457031 -0.527343,-0.457031 -0.421875,0 -0.808594,0.503906 -1.078125,0.960937 z m 6.448242,4.40625 c -0.890625,-0.761719 -1.40625,-2.203125 -1.40625,-3.75 0,-1.546875 0.515625,-3 1.40625,-3.75 l -0.152344,-0.210937 c -1.324218,0.902343 -1.910156,2.332031 -1.910156,3.949218 0,1.628907 0.585938,3.082032 1.910156,3.960938 z m 0,0"
           style="fill:#231f20;fill-opacity:1;fill-rule:nonzero;stroke:none" />
        <path
           id="path77"
           d="m 18.76289,37.119316 0.1875,-0.832032 c 0.175781,-0.691406 0.140625,-0.996093 -0.07031,-0.996093 -0.246094,0 -0.796875,0.339843 -1.289063,0.867187 l 0.140625,0.199219 c 0.222656,-0.222656 0.503906,-0.410156 0.585938,-0.410156 0.04687,0 0.07031,0.08203 0,0.375 -0.210938,0.984375 -0.46875,2.074218 -0.714844,3.046875 l 0.05859,0.07031 c 0.164062,-0.05859 0.410156,-0.128906 0.644531,-0.175781 0.105469,-0.539063 0.246094,-1.113281 0.351562,-1.511719 0.597657,-0.925781 1.570313,-1.886719 1.910157,-1.886719 0.117187,0 0.152343,0.117188 0.02344,0.691407 -0.175781,0.738281 -0.339844,1.464843 -0.515625,2.214843 -0.292969,1.3125 -0.480469,2.167969 -0.457031,2.34375 0.05859,0.222657 0.375,0.527344 0.621094,0.527344 l 0.05859,-0.117187 c -0.03516,-0.164063 -0.01172,-0.539063 0.164063,-1.429688 0.222656,-1.125 0.457031,-2.25 0.773437,-3.550781 0.257813,-1.113281 0.05859,-1.253906 -0.140625,-1.253906 -0.152343,0 -0.375,0.07031 -0.597656,0.199218 -0.398437,0.246094 -1.054687,0.738282 -1.710937,1.628907 z m 0,0"
           style="fill:#231f20;fill-opacity:1;fill-rule:nonzero;stroke:none" />
        <path
           id="path78"
           d="m 28.480663,36.439628 v -0.445312 h -4.289062 v 0.445312 z m 0,1.652344 v -0.445313 h -4.289062 v 0.445313 z m 5.961914,1.242187 v -0.246093 c -0.820312,-0.05859 -0.878906,-0.128907 -0.878906,-0.785157 v -4.6875 c -0.492187,0.199219 -1.019531,0.375 -1.59375,0.46875 v 0.210938 l 0.433594,0.01172 c 0.386719,0.02344 0.421875,0.07031 0.421875,0.539062 v 3.457031 c 0,0.65625 -0.03516,0.726563 -0.855469,0.785157 v 0.246093 z m 1.274415,-6.175781 c 0.890625,0.738281 1.417968,2.203125 1.417968,3.75 0,1.546875 -0.503906,2.988281 -1.417968,3.75 l 0.164062,0.199219 c 1.347656,-0.914063 1.898438,-2.332031 1.898438,-3.949219 0,-1.628906 -0.550782,-3.058594 -1.898438,-3.960937 z m 0,0"
           style="fill:#231f20;fill-opacity:1;fill-rule:nonzero;stroke:none" />
      </g>
    </g>
  </g>
</svg>
