<?xml version="1.0" encoding="UTF-8" standalone="no"?>
<!-- Created with Inkscape (http://www.inkscape.org/) -->

<svg
   version="1.1"
   id="svg1"
   width="150.86667"
   height="34.546665"
   viewBox="0 0 150.86667 34.546665"
   sodipodi:docname="pha09f22.eps"
   xmlns:inkscape="http://www.inkscape.org/namespaces/inkscape"
   xmlns:sodipodi="http://sodipodi.sourceforge.net/DTD/sodipodi-0.dtd"
   xmlns="http://www.w3.org/2000/svg"
   xmlns:svg="http://www.w3.org/2000/svg">
  <defs
     id="defs1" />
  <sodipodi:namedview
     id="namedview1"
     pagecolor="#ffffff"
     bordercolor="#000000"
     borderopacity="0.25"
     inkscape:showpageshadow="2"
     inkscape:pageopacity="0.0"
     inkscape:pagecheckerboard="0"
     inkscape:deskcolor="#d1d1d1">
    <inkscape:page
       x="0"
       y="0"
       inkscape:label="1"
       id="page1"
       width="150.86667"
       height="34.546665"
       margin="0"
       bleed="0" />
  </sodipodi:namedview>
  <g
     id="g1"
     inkscape:groupmode="layer"
     inkscape:label="1">
    <g
       id="group-R5">
      <path
         id="path2"
         d="M 378.32,221.086 V 159.711"
         style="fill:none;stroke:#231f20;stroke-width:5;stroke-linecap:butt;stroke-linejoin:miter;stroke-miterlimit:10;stroke-dasharray:none;stroke-opacity:1"
         transform="matrix(0.13333333,0,0,-0.13333333,0,34.546667)" />
      <path
         id="path3"
         d="M 406.941,242.012 V 159.855"
         style="fill:none;stroke:#231f20;stroke-width:5;stroke-linecap:butt;stroke-linejoin:miter;stroke-miterlimit:10;stroke-dasharray:none;stroke-opacity:1"
         transform="matrix(0.13333333,0,0,-0.13333333,0,34.546667)" />
      <path
         id="path4"
         d="M 445.281,210.52 V 159.738"
         style="fill:none;stroke:#231f20;stroke-width:5;stroke-linecap:butt;stroke-linejoin:miter;stroke-miterlimit:10;stroke-dasharray:none;stroke-opacity:1"
         transform="matrix(0.13333333,0,0,-0.13333333,0,34.546667)" />
      <path
         id="path5"
         d="M 469.18,249.316 V 159.82"
         style="fill:none;stroke:#231f20;stroke-width:5;stroke-linecap:butt;stroke-linejoin:miter;stroke-miterlimit:10;stroke-dasharray:none;stroke-opacity:1"
         transform="matrix(0.13333333,0,0,-0.13333333,0,34.546667)" />
      <path
         id="path6"
         d="M 505.637,214.023 V 159.902"
         style="fill:none;stroke:#231f20;stroke-width:5;stroke-linecap:butt;stroke-linejoin:miter;stroke-miterlimit:10;stroke-dasharray:none;stroke-opacity:1"
         transform="matrix(0.13333333,0,0,-0.13333333,0,34.546667)" />
      <path
         id="path7"
         d="M 525.488,245.238 V 159.82"
         style="fill:none;stroke:#231f20;stroke-width:5;stroke-linecap:butt;stroke-linejoin:miter;stroke-miterlimit:10;stroke-dasharray:none;stroke-opacity:1"
         transform="matrix(0.13333333,0,0,-0.13333333,0,34.546667)" />
      <path
         id="path8"
         d="M 548.984,212.148 V 159.66"
         style="fill:none;stroke:#231f20;stroke-width:5;stroke-linecap:butt;stroke-linejoin:miter;stroke-miterlimit:10;stroke-dasharray:none;stroke-opacity:1"
         transform="matrix(0.13333333,0,0,-0.13333333,0,34.546667)" />
      <path
         id="path9"
         d="M 577.344,243.691 V 159.66"
         style="fill:none;stroke:#231f20;stroke-width:5;stroke-linecap:butt;stroke-linejoin:miter;stroke-miterlimit:10;stroke-dasharray:none;stroke-opacity:1"
         transform="matrix(0.13333333,0,0,-0.13333333,0,34.546667)" />
      <path
         id="path10"
         d="M 592.734,216.953 V 159.82"
         style="fill:none;stroke:#231f20;stroke-width:5;stroke-linecap:butt;stroke-linejoin:miter;stroke-miterlimit:10;stroke-dasharray:none;stroke-opacity:1"
         transform="matrix(0.13333333,0,0,-0.13333333,0,34.546667)" />
      <path
         id="path11"
         d="M 616.23,253.801 V 159.738"
         style="fill:none;stroke:#231f20;stroke-width:5;stroke-linecap:butt;stroke-linejoin:miter;stroke-miterlimit:10;stroke-dasharray:none;stroke-opacity:1"
         transform="matrix(0.13333333,0,0,-0.13333333,0,34.546667)" />
      <path
         id="path12"
         d="M 647.02,215.082 V 159.574"
         style="fill:none;stroke:#231f20;stroke-width:5;stroke-linecap:butt;stroke-linejoin:miter;stroke-miterlimit:10;stroke-dasharray:none;stroke-opacity:1"
         transform="matrix(0.13333333,0,0,-0.13333333,0,34.546667)" />
      <path
         id="path13"
         d="M 662.41,246.223 V 159.738"
         style="fill:none;stroke:#231f20;stroke-width:5;stroke-linecap:butt;stroke-linejoin:miter;stroke-miterlimit:10;stroke-dasharray:none;stroke-opacity:1"
         transform="matrix(0.13333333,0,0,-0.13333333,0,34.546667)" />
      <path
         id="path14"
         d="M 695.227,214.27 V 159.492"
         style="fill:none;stroke:#231f20;stroke-width:5;stroke-linecap:butt;stroke-linejoin:miter;stroke-miterlimit:10;stroke-dasharray:none;stroke-opacity:1"
         transform="matrix(0.13333333,0,0,-0.13333333,0,34.546667)" />
      <path
         id="path15"
         d="M 707.781,248.176 V 159.82"
         style="fill:none;stroke:#231f20;stroke-width:5;stroke-linecap:butt;stroke-linejoin:miter;stroke-miterlimit:10;stroke-dasharray:none;stroke-opacity:1"
         transform="matrix(0.13333333,0,0,-0.13333333,0,34.546667)" />
      <path
         id="path16"
         d="M 734.922,216.875 V 159.82"
         style="fill:none;stroke:#231f20;stroke-width:5;stroke-linecap:butt;stroke-linejoin:miter;stroke-miterlimit:10;stroke-dasharray:none;stroke-opacity:1"
         transform="matrix(0.13333333,0,0,-0.13333333,0,34.546667)" />
      <path
         id="path17"
         d="M 758.02,247.602 V 159.738"
         style="fill:none;stroke:#231f20;stroke-width:5;stroke-linecap:butt;stroke-linejoin:miter;stroke-miterlimit:10;stroke-dasharray:none;stroke-opacity:1"
         transform="matrix(0.13333333,0,0,-0.13333333,0,34.546667)" />
      <path
         id="path18"
         d="m 177.461,212.414 45.547,35.926 21.109,-37.274 30.906,36.739 44.54,-37.223 25.703,32.324 34.422,-22.426 28.171,22.801 37.414,-32.699 24.102,39.043 36.016,-36.477 20.047,33.356 23.683,-34.824 29.719,33.59 14.004,-28.825 23.687,38.86 16.399,-19.797 14.57,-21.992 14.563,34.843 33.472,-34.945 10.266,37.856 29.148,-35.192 25.512,34.824 10.613,-38.402 22.18,34.004 25.508,-32.254 23.679,34.453 35.059,-33.195 12.004,31.094 48.016,-35.922 23.339,35.824"
         style="fill:none;stroke:#3871c1;stroke-width:7.5;stroke-linecap:butt;stroke-linejoin:round;stroke-miterlimit:10;stroke-dasharray:none;stroke-opacity:1"
         transform="matrix(0.13333333,0,0,-0.13333333,0,34.546667)" />
      <path
         id="path19"
         d="M 0,160.586 H 1131.47"
         style="fill:none;stroke:#231f20;stroke-width:7.5;stroke-linecap:butt;stroke-linejoin:miter;stroke-miterlimit:10;stroke-dasharray:none;stroke-opacity:1"
         transform="matrix(0.13333333,0,0,-0.13333333,0,34.546667)" />
      <path
         id="path20"
         d="m 375.73,145.891 v -19.297 h 382.954 v 20.722"
         style="fill:none;stroke:#231f20;stroke-width:5;stroke-linecap:butt;stroke-linejoin:miter;stroke-miterlimit:10;stroke-dasharray:none;stroke-opacity:1"
         transform="matrix(0.13333333,0,0,-0.13333333,0,34.546667)" />
      <g
         id="g20"
         aria-label="dA"
         transform="matrix(1.3333333,0,0,1.3333333,68.736,30.22636)">
        <path
           id="path21"
           d="m 4.651125,-0.45687937 -0.2929687,-0.0234375 c -0.328125,-0.046875 -0.3867188,-0.0820313 -0.3867188,-0.55078123 v -5.3789063 c -0.3398437,0.1171875 -0.9375,0.2578125 -1.40625,0.3164063 v 0.2109375 c 0.6445313,0.046875 0.6914063,0.082031 0.6914063,0.6679687 v 1.2773438 c -0.2109375,-0.082031 -0.46875,-0.1054688 -0.5976563,-0.1054688 -1.21875,0 -2.3203125,0.984375 -2.3203125,2.2382813 0,1.25390623 0.9492188,1.91015623 1.6640625,1.91015623 0.1054688,0 0.3515625,-0.046875 0.703125,-0.2578125 l 0.5507813,-0.328125 v 0.5859375 c 0.5273437,-0.1875 1.1953125,-0.3046875 1.3945312,-0.33984375 z m -1.3945312,-0.3046875 c -0.2109375,0.1640625 -0.5390625,0.3046875 -0.8671875,0.3046875 -0.5742188,0 -1.2304688,-0.52734375 -1.2304688,-1.59375003 0,-1.3007812 0.7617188,-1.6523437 1.171875,-1.6523437 0.3398438,0 0.7148438,0.140625 0.9257813,0.4570312 z m 0,0"
           style="fill:#231f20;fill-opacity:1;fill-rule:nonzero;stroke:none" />
        <path
           id="path22"
           d="M 10.340578,-0.24594187 C 9.6960469,-0.30453562 9.6374531,-0.38656687 9.5319844,-1.0310981 9.3327656,-2.0975044 9.1335469,-3.2225044 8.9577656,-4.3826606 l -0.2578125,-1.59375 -0.28125,0.070312 -2.7070312,4.8046875 c -0.421875,0.73828123 -0.515625,0.78515623 -1.0546875,0.85546873 L 4.5866719,1.51875e-4 h 1.9335937 l 0.058594,-0.246093745 c -0.6914063,-0.046875 -0.7617188,-0.1171875 -0.4921875,-0.65625 0.1992187,-0.41015623 0.46875,-0.93750003 0.6210937,-1.21875003 h 1.8867188 c 0.09375,0.515625 0.1640625,0.9492188 0.2226562,1.32421878 0.058594,0.38671875 0.023437,0.4921875 -0.5976562,0.55078125 L 8.1491719,1.51875e-4 H 10.281984 Z M 8.5358906,-2.5076606 H 6.9069844 c 0.3867187,-0.7617188 0.8085937,-1.5 1.2539062,-2.3203125 h 0.023437 z m 0,0"
           style="fill:#231f20;fill-opacity:1;fill-rule:nonzero;stroke:none" />
      </g>
    </g>
  </g>
</svg>
