<?xml version="1.0" encoding="UTF-8" standalone="no"?>
<!-- Created with Inkscape (http://www.inkscape.org/) -->

<svg
   version="1.1"
   id="svg1"
   width="413.77332"
   height="171.92"
   viewBox="0 0 413.77332 171.92"
   sodipodi:docname="pha09f17.eps"
   xmlns:inkscape="http://www.inkscape.org/namespaces/inkscape"
   xmlns:sodipodi="http://sodipodi.sourceforge.net/DTD/sodipodi-0.dtd"
   xmlns="http://www.w3.org/2000/svg"
   xmlns:svg="http://www.w3.org/2000/svg">
  <defs
     id="defs1" />
  <sodipodi:namedview
     id="namedview1"
     pagecolor="#ffffff"
     bordercolor="#000000"
     borderopacity="0.25"
     inkscape:showpageshadow="2"
     inkscape:pageopacity="0.0"
     inkscape:pagecheckerboard="0"
     inkscape:deskcolor="#d1d1d1">
    <inkscape:page
       x="0"
       y="0"
       inkscape:label="1"
       id="page1"
       width="413.77332"
       height="171.92"
       margin="0"
       bleed="0" />
  </sodipodi:namedview>
  <g
     id="g1"
     inkscape:groupmode="layer"
     inkscape:label="1">
    <g
       id="group-R5">
      <path
         id="path2"
         d="M 3.6803516,-4.5337688 C 3.6100391,-5.0962688 3.5631641,-5.4478313 3.5280078,-5.7759563 3.1881641,-5.881425 2.8131641,-5.9868938 2.3912891,-5.9868938 c -1.1601563,0 -1.85156254,0.7382813 -1.85156254,1.6054688 0,1.0195312 0.91406254,1.4648437 1.48828124,1.7695312 0.6679688,0.3632813 1.171875,0.6796875 1.171875,1.3476563 0,0.65625 -0.4101562,1.078125 -1.0898437,1.078125 -0.9257813,0 -1.32421879,-0.9140625 -1.46484379,-1.4648438 l -0.26953125,0.070312 c 0.0585938,0.4335938 0.17578125,1.2070313 0.24609375,1.3945313 0.0820313,0.046875 0.2109375,0.10546875 0.44531249,0.1875 0.2226563,0.05859375 0.5039063,0.140625 0.8789063,0.140625 1.1953125,0 1.9921875,-0.76171875 1.9921875,-1.7109375 0,-1.0078125 -0.8554688,-1.4296875 -1.546875,-1.78125 -0.7148438,-0.375 -1.1484375,-0.6796875 -1.1484375,-1.3359375 0,-0.4921875 0.3046875,-0.9960938 0.9960937,-0.9960938 0.7851563,0 1.0195313,0.6210938 1.1835938,1.2070313 z M 5.429375,-4.8267375 c 0.2578125,0 0.4570312,-0.2109375 0.4570312,-0.4570313 0,-0.2695312 -0.1992187,-0.46875 -0.4570312,-0.46875 -0.234375,0 -0.4570313,0.1992188 -0.4570313,0.46875 0,0.2460938 0.2226563,0.4570313 0.4570313,0.4570313 z m 1.0546875,4.828125 v -0.234375 C 5.898125,-0.29158125 5.8395312,-0.33845625 5.8395312,-0.94783125 V -4.0533 C 5.4410937,-3.9009563 5.0192187,-3.7837688 4.5621875,-3.7017375 V -3.4908 c 0.5390625,0.09375 0.5625,0.1289062 0.5625,0.6796875 v 1.86328125 c 0,0.609375 -0.058594,0.65625 -0.6210938,0.71484375 v 0.234375 z m 4.8515625,0 v -0.234375 c -0.527344,-0.0585938 -0.574219,-0.09375 -0.574219,-0.703125 v -1.734375 c 0,-0.8789063 -0.445312,-1.3710938 -1.160156,-1.3710938 -0.2578125,0 -0.4921875,0.1054688 -0.75,0.2695313 -0.2226563,0.1523437 -0.421875,0.2929687 -0.5976563,0.421875 v -0.7148438 c -0.3984375,0.1757813 -0.8203125,0.28125 -1.2539062,0.3632813 V -3.4908 C 7.491875,-3.39705 7.53875,-3.3736125 7.53875,-2.7993938 v 1.8632813 c 0,0.59765625 -0.046875,0.64453125 -0.65625,0.703125 v 0.234375 h 1.9570312 v -0.234375 c -0.5273437,-0.0585938 -0.5859375,-0.09375 -0.5859375,-0.703125 v -2.109375 c 0.2695313,-0.234375 0.6210938,-0.46875 0.984375,-0.46875 0.5976563,0 0.8203123,0.4101562 0.8203123,1.03125 v 1.5 c 0,0.62109375 -0.070312,0.69140625 -0.597656,0.75 v 0.234375 z m 4.300781,-3.9375 c -0.328125,0.046875 -0.785156,0.1054687 -1.230469,0.1171875 -0.257812,-0.140625 -0.550781,-0.2226563 -0.855468,-0.2226563 -0.691407,0 -1.617188,0.46875 -1.617188,1.5 0,0.609375 0.386719,1.03125 0.796875,1.2070313 -0.152344,0.1757812 -0.433594,0.41015625 -0.796875,0.5390625 -0.01172,0.09375 0.02344,0.24609375 0.105469,0.38671875 0.117187,0.1875 0.339844,0.38671875 0.65625,0.4921875 -0.210938,0.1640625 -0.5625,0.4453125 -0.738281,0.6328125 -0.140625,0.12890625 -0.222657,0.30468745 -0.222657,0.50390625 0.01172,0.5039062 0.5625,1.0898437 1.558594,1.0898437 1.195313,0 2.25,-0.8671875 2.25,-1.78124995 0,-0.87890625 -0.738281,-1.0546875 -1.289062,-1.0546875 -0.304688,0 -0.621094,0 -0.949219,0 -0.410156,0 -0.5625,-0.1640625 -0.5625,-0.33984375 0,-0.12890625 0.140625,-0.2929688 0.269531,-0.375 0.140625,0.023437 0.304688,0.046875 0.457031,0.046875 0.761719,0 1.570313,-0.46875 1.570313,-1.4414063 0,-0.328125 -0.09375,-0.5976562 -0.269531,-0.796875 l 0.515625,0.023437 C 15.425469,-3.4908 15.612969,-3.725175 15.683281,-3.8658 Z M 13.456719,-3.77205 c 0.515625,0 0.84375,0.5039062 0.84375,1.21875 0,0.7148437 -0.351563,1.0664062 -0.75,1.0664062 -0.503907,0 -0.84375,-0.5039062 -0.84375,-1.2070312 0,-0.703125 0.351562,-1.078125 0.75,-1.078125 z m 0.199218,3.8671875 c 0.375,0 0.632813,0.03515625 0.867188,0.1171875 0.257812,0.1171875 0.410156,0.33984375 0.410156,0.64453125 0,0.56249995 -0.445312,0.99609375 -1.300781,0.99609375 -0.667969,0 -1.183594,-0.3632813 -1.183594,-0.85546875 0,-0.2578125 0.175781,-0.515625 0.410156,-0.703125 0.164063,-0.140625 0.363282,-0.19921875 0.796875,-0.19921875 z m 4.239258,-0.09375 v -0.234375 c -0.574218,-0.0585938 -0.65625,-0.10546875 -0.65625,-0.703125 v -5.4726563 c -0.304687,0.1054688 -0.855468,0.2578125 -1.324218,0.3164063 v 0.2109375 c 0.5625,0.046875 0.621093,0.082031 0.621093,0.6914062 v 4.2539063 c 0,0.59765625 -0.08203,0.64453125 -0.644531,0.703125 v 0.234375 z m 3.541992,-0.94921875 c -0.328125,0.3046875 -0.667968,0.4453125 -1.019531,0.4453125 -0.632812,0 -1.335937,-0.50390625 -1.347656,-1.72265625 1.066406,-0.046875 2.191406,-0.1289063 2.355469,-0.1640625 0.152343,-0.035156 0.199218,-0.1054688 0.199218,-0.28125 0,-0.703125 -0.597656,-1.3710938 -1.347656,-1.3710938 -0.46875,0 -0.949219,0.2460938 -1.324219,0.65625 -0.363281,0.4101563 -0.597656,0.9609375 -0.597656,1.5820313 0,1.0078125 0.65625,1.91015625 1.757813,1.91015625 0.28125,0 0.902343,-0.1640625 1.464843,-0.8671875 z M 20.066094,-3.7017375 c 0.492187,0 0.796875,0.421875 0.785156,0.890625 0,0.1289062 -0.04687,0.1875 -0.210938,0.1875 -0.527343,0.011719 -1.019531,0.023437 -1.523437,0.023437 0.128906,-0.7265625 0.527344,-1.1015625 0.949219,-1.101562 z m 5.047851,-1.125 c 0.257813,0 0.457032,-0.2109375 0.457032,-0.4570313 0,-0.2695312 -0.199219,-0.46875 -0.457032,-0.46875 -0.234375,0 -0.457031,0.1992188 -0.457031,0.46875 0,0.2460938 0.222656,0.4570313 0.457031,0.4570313 z m 1.054688,4.828125 v -0.234375 C 25.582695,-0.2915813 25.524102,-0.33845625 25.524102,-0.94783125 V -4.0533 c -0.398438,0.1523437 -0.820313,0.2695312 -1.277344,0.3515625 V -3.4908 c 0.539062,0.09375 0.5625,0.1289062 0.5625,0.6796875 v 1.86328125 c 0,0.609375 -0.05859,0.65625 -0.621094,0.71484375 v 0.234375 z m 4.848633,0 v -0.234375 c -0.527344,-0.0585938 -0.574219,-0.09375 -0.574219,-0.703125 v -1.734375 c 0,-0.8789063 -0.445313,-1.3710938 -1.160156,-1.3710938 -0.257813,0 -0.492188,0.1054688 -0.75,0.2695313 -0.222657,0.1523437 -0.421875,0.2929687 -0.597657,0.421875 v -0.7148438 c -0.398437,0.1757813 -0.820312,0.28125 -1.253906,0.3632813 V -3.4908 c 0.492188,0.09375 0.539063,0.1171875 0.539063,0.6914062 v 1.8632813 c 0,0.59765625 -0.04687,0.64453125 -0.65625,0.703125 v 0.234375 h 1.957031 v -0.234375 c -0.527344,-0.0585938 -0.585938,-0.09375 -0.585938,-0.703125 v -2.109375 c 0.269532,-0.234375 0.621094,-0.46875 0.984375,-0.46875 0.597657,0 0.820313,0.4101562 0.820313,1.03125 v 1.5 c 0,0.62109375 -0.07031,0.69140625 -0.597656,0.75 v 0.234375 z m 2.724609,-0.328125 -0.08203,-0.234375 c -0.128907,0.0703125 -0.328125,0.15234375 -0.5625,0.15234375 -0.222657,0 -0.515625,-0.12890625 -0.515625,-0.85546875 V -3.58455 h 0.960937 c 0.105469,-0.058594 0.128906,-0.2578125 0.05859,-0.3515625 H 32.581719 V -5.1665813 L 32.452812,-5.1783 31.866875,-4.5923625 v 0.65625 h -0.410156 l -0.246094,0.2695312 0.03516,0.082031 h 0.621094 v 2.625 c 0,0.703125 0.316406,1.06640625 0.878906,1.06640625 0.08203,0 0.234375,-0.03515625 0.386719,-0.1171875 z m 3.418945,-0.62109375 c -0.328125,0.3046875 -0.667968,0.4453125 -1.019531,0.4453125 -0.632812,0 -1.335937,-0.50390625 -1.347656,-1.72265625 1.066406,-0.046875 2.191406,-0.1289063 2.355469,-0.1640625 0.152343,-0.035156 0.199218,-0.1054688 0.199218,-0.28125 0,-0.703125 -0.597656,-1.3710938 -1.347656,-1.3710938 -0.46875,0 -0.949219,0.2460938 -1.324219,0.65625 -0.363281,0.4101563 -0.597656,0.9609375 -0.597656,1.5820313 0,1.0078125 0.65625,1.91015625 1.757813,1.91015625 0.28125,0 0.902343,-0.1640625 1.464843,-0.8671875 z M 35.789727,-3.7017375 c 0.492187,0 0.796875,0.421875 0.785156,0.890625 0,0.1289062 -0.04687,0.1875 -0.210938,0.1875 -0.527343,0.011719 -1.019531,0.023437 -1.523437,0.023437 0.128906,-0.7265625 0.527344,-1.1015625 0.949219,-1.101562 z m 3.413085,0.6210937 v -0.984375 c -0.433593,0.1875 -0.832031,0.2929688 -1.265625,0.3632813 v 0.1992187 c 0.503907,0.070312 0.550782,0.1054688 0.550782,0.703125 v 1.8632813 c 0,0.59765625 -0.05859,0.64453125 -0.621094,0.703125 v 0.234375 h 2.074219 v -0.234375 c -0.691407,-0.0585938 -0.738282,-0.10546875 -0.738282,-0.703125 v -1.640625 c 0.199219,-0.5039063 0.480469,-0.7734375 0.714844,-0.7734375 0.152344,0 0.257813,0.046875 0.386719,0.1875 0.04687,0.046875 0.128906,0.058594 0.234375,0.011719 0.175781,-0.082031 0.292969,-0.2578125 0.292969,-0.4335937 0,-0.2226563 -0.210938,-0.4570313 -0.527344,-0.4570313 -0.421875,0 -0.808594,0.5039063 -1.078125,0.9609375 z m 2.244141,-0.8554687 -0.234375,0.2695312 0.03516,0.082031 h 0.632813 v 2.66015625 c 0,0.59765625 -0.07031,0.6328125 -0.644531,0.69140625 v 0.234375 h 2.121093 V -0.22126875 C 42.653984,-0.29158125 42.583672,-0.3267375 42.583672,-0.9829875 V -3.58455 h 0.972656 c 0.105469,-0.046875 0.140625,-0.2695313 0.09375,-0.3515625 H 42.583672 V -4.287675 c -0.01172,-0.7734375 0.09375,-1.1953125 0.210937,-1.3710938 0.09375,-0.1640625 0.246094,-0.2695312 0.480469,-0.2695312 0.292969,0 0.539063,0.1640625 0.726563,0.328125 0.08203,0.09375 0.164062,0.09375 0.246093,0.035156 0.08203,-0.082031 0.140625,-0.1523437 0.164063,-0.2226562 0.04687,-0.09375 0.03516,-0.2109375 -0.04687,-0.3164063 -0.140625,-0.1640625 -0.398438,-0.2929687 -0.703125,-0.3046875 -0.351563,0.046875 -0.679688,0.2109375 -0.996094,0.4921875 -0.480469,0.4101563 -0.632812,0.8554688 -0.691406,1.0546875 -0.05859,0.1875 -0.09375,0.4570313 -0.09375,0.7265625 v 0.1992188 z m 6.087891,3.5859375 -0.09375,-0.234375 c -0.09375,0.0585938 -0.222657,0.10546875 -0.328125,0.10546875 -0.152344,0 -0.316407,-0.140625 -0.316407,-0.55078125 V -2.693925 c 0,-0.46875 -0.08203,-0.84375 -0.398437,-1.1015625 -0.199219,-0.1640625 -0.46875,-0.2460938 -0.738281,-0.2460938 -0.515625,0.1054688 -1.101563,0.4570313 -1.347657,0.6328125 -0.175781,0.1289063 -0.292968,0.2226563 -0.292968,0.3632813 0,0.1992187 0.234375,0.3867187 0.398437,0.3867187 0.128906,0 0.222656,-0.070312 0.257813,-0.2109375 0.07031,-0.28125 0.152343,-0.4804687 0.269531,-0.5976562 0.09375,-0.1054688 0.222656,-0.1757813 0.410156,-0.1757813 0.445313,0 0.75,0.3632813 0.75,1.0195313 V -2.45955 c -0.199219,0.1523437 -0.855469,0.3984375 -1.394531,0.5742187 -0.492188,0.1757813 -0.726563,0.4570313 -0.726563,0.9023438 0,0.5625 0.445313,1.08984375 1.078125,1.08984375 0.269532,0 0.703125,-0.328125 1.066407,-0.57421875 0.04687,0.15234375 0.09375,0.28125 0.210937,0.41015625 0.105469,0.08203125 0.292969,0.1640625 0.421875,0.1640625 z m -1.429688,-0.41015625 c -0.164062,0.1640625 -0.480469,0.31640625 -0.714844,0.328125 -0.28125,0 -0.644531,-0.22265625 -0.644531,-0.69140625 0,-0.328125 0.199219,-0.4921875 0.550781,-0.65625 0.1875,-0.09375 0.621094,-0.28125 0.808594,-0.375 z m 4.992188,-0.234375 c -0.410157,0.38671875 -0.703125,0.4921875 -1.089844,0.4921875 -0.503906,0 -1.359375,-0.41015625 -1.359375,-1.66406255 0,-0.9492187 0.515625,-1.4414062 1.113281,-1.4414062 0.316406,0 0.632813,0.1171875 0.902344,0.375 0.08203,0.070312 0.117187,0.09375 0.164062,0.09375 0.105469,0 0.304688,-0.1992188 0.304688,-0.3867188 0,-0.1054687 -0.03516,-0.1757812 -0.152344,-0.28125 -0.140625,-0.1171875 -0.433594,-0.234375 -0.796875,-0.234375 -0.351562,0 -0.890625,0.140625 -1.359375,0.5039063 -0.597656,0.46875 -0.902344,1.078125 -0.902344,1.7695312 0,0.96093755 0.667969,1.87500005 1.804688,1.87500005 0.527344,0 1.136719,-0.3984375 1.523437,-0.9140625 z m 3.703125,0.046875 c -0.328125,0.3046875 -0.667969,0.4453125 -1.019532,0.4453125 -0.632812,0 -1.335937,-0.50390625 -1.347656,-1.72265625 1.066406,-0.046875 2.191406,-0.1289063 2.355469,-0.1640625 0.152344,-0.035156 0.199219,-0.1054688 0.199219,-0.28125 0,-0.703125 -0.597657,-1.3710938 -1.347657,-1.3710938 -0.46875,0 -0.949218,0.2460938 -1.324218,0.65625 -0.363282,0.4101563 -0.597657,0.9609375 -0.597657,1.5820313 0,1.0078125 0.65625,1.91015625 1.757813,1.91015625 0.28125,0 0.902344,-0.1640625 1.464844,-0.8671875 z M 53.429375,-3.7017375 c 0.492187,0 0.796875,0.421875 0.785156,0.890625 0,0.1289062 -0.04687,0.1875 -0.210937,0.1875 -0.527344,0.011719 -1.019532,0.023437 -1.523438,0.023437 0.128906,-0.7265625 0.527344,-1.1015625 0.949219,-1.101562 z m 6.524414,5.0273437 c -0.890625,-0.7617187 -1.40625,-2.20312495 -1.40625,-3.75 0,-1.546875 0.515625,-3 1.40625,-3.75 l -0.152344,-0.2109375 c -1.324218,0.9023438 -1.910156,2.3320313 -1.910156,3.9492188 0,1.62890625 0.585938,3.08203125 1.910156,3.9609375 z M 64.814141,-4.52205 c -0.04687,-0.421875 -0.09375,-1.0078125 -0.09375,-1.3242188 h -3.960938 v 0.2460938 c 0.691406,0.058594 0.761719,0.1054687 0.761719,0.890625 v 3.5742187 c 0,0.77343755 -0.07031,0.8320313 -0.785156,0.8789063 v 0.2578125 h 2.449218 V -0.256425 C 62.364922,-0.3033 62.294609,-0.36189375 62.294609,-1.1353313 v -1.6289062 h 0.925782 c 0.820312,0 0.855468,0.1054687 0.972656,0.7265625 h 0.246094 V -3.77205 h -0.246094 c -0.117188,0.5742187 -0.152344,0.65625 -0.972656,0.65625 h -0.925782 v -2.1445313 c 0,-0.2578125 0.02344,-0.2695312 0.28125,-0.2695312 h 0.691407 c 0.679687,0 0.878906,0.070312 1.019531,0.3164062 0.128906,0.1875 0.175781,0.3632813 0.257812,0.7265625 z m 1.804687,1.4414062 v -0.984375 c -0.433594,0.1875 -0.832031,0.2929688 -1.265625,0.3632813 v 0.1992187 c 0.503906,0.070312 0.550781,0.1054688 0.550781,0.703125 v 1.8632813 c 0,0.59765625 -0.05859,0.64453125 -0.621093,0.703125 v 0.234375 h 2.074218 v -0.234375 c -0.691406,-0.0585938 -0.738281,-0.10546875 -0.738281,-0.703125 v -1.640625 c 0.199219,-0.5039063 0.480469,-0.7734375 0.714844,-0.7734375 0.152344,0 0.257812,0.046875 0.386719,0.1875 0.04687,0.046875 0.128906,0.058594 0.234375,0.011719 0.175781,-0.082031 0.292968,-0.2578125 0.292968,-0.4335937 0,-0.2226563 -0.210937,-0.4570313 -0.527343,-0.4570313 -0.421875,0 -0.808594,0.5039063 -1.078125,0.9609375 z m 5.000977,2.13281255 c -0.328125,0.3046875 -0.667969,0.4453125 -1.019532,0.4453125 -0.632812,0 -1.335937,-0.50390625 -1.347656,-1.72265625 1.066406,-0.046875 2.191406,-0.1289063 2.355469,-0.1640625 0.152344,-0.035156 0.199219,-0.1054688 0.199219,-0.28125 0,-0.703125 -0.597657,-1.3710938 -1.347657,-1.3710938 -0.46875,0 -0.949218,0.2460938 -1.324218,0.65625 -0.363282,0.4101563 -0.597657,0.9609375 -0.597657,1.5820313 0,1.0078125 0.65625,1.91015625 1.757813,1.91015625 0.28125,0 0.902344,-0.1640625 1.464844,-0.8671875 z M 70.248711,-3.7017375 c 0.492187,0 0.796875,0.421875 0.785156,0.890625 0,0.1289062 -0.04687,0.1875 -0.210937,0.1875 -0.527344,0.011719 -1.019532,0.023437 -1.523438,0.023437 0.128906,-0.7265625 0.527344,-1.1015625 0.949219,-1.101562 z M 74.918633,-2.9283 c -0.03516,-0.2226563 -0.128906,-0.75 -0.199219,-0.9609375 -0.1875,-0.070312 -0.433594,-0.1523438 -0.796875,-0.1523438 -0.832031,0 -1.371094,0.5273438 -1.371094,1.1601563 0,0.6914062 0.585938,0.9960937 1.125,1.2421875 0.445313,0.2109375 0.703125,0.421875 0.703125,0.8203125 0,0.375 -0.304687,0.6328125 -0.632812,0.6328125 -0.539063,0 -0.949219,-0.52734375 -1.113281,-1.1132813 l -0.234375,0.035156 c 0,0.328125 0.08203,0.9375 0.152343,1.06640625 0.164063,0.140625 0.574219,0.3046875 1.03125,0.3046875 0.726563,0 1.488282,-0.421875 1.488282,-1.24218755 0,-0.6210937 -0.457032,-0.9375 -1.136719,-1.21875 -0.410156,-0.1757812 -0.761719,-0.375 -0.761719,-0.7851562 0,-0.3515625 0.246094,-0.6210938 0.585938,-0.6210938 0.433593,0 0.75,0.3632813 0.925781,0.890625 z m 5.129883,2.9296875 v -0.234375 c -0.527344,-0.0585938 -0.574219,-0.09375 -0.574219,-0.703125 v -1.734375 c 0,-0.8789063 -0.445313,-1.3710938 -1.160156,-1.3710938 -0.257813,0 -0.492188,0.1054688 -0.75,0.2695313 -0.222657,0.1523437 -0.421875,0.2929687 -0.597657,0.421875 v -0.7148438 c -0.398437,0.1757813 -0.820312,0.28125 -1.253906,0.3632813 V -3.4908 c 0.492188,0.09375 0.539063,0.1171875 0.539063,0.6914062 v 1.8632813 c 0,0.59765625 -0.04687,0.64453125 -0.65625,0.703125 v 0.234375 h 1.957031 v -0.234375 c -0.527344,-0.0585938 -0.585938,-0.09375 -0.585938,-0.703125 v -2.109375 c 0.269532,-0.234375 0.621094,-0.46875 0.984375,-0.46875 0.597657,0 0.820313,0.4101562 0.820313,1.03125 v 1.5 c 0,0.62109375 -0.07031,0.69140625 -0.597656,0.75 v 0.234375 z m 3.585937,-0.94921875 c -0.328125,0.3046875 -0.667969,0.4453125 -1.019531,0.4453125 -0.632813,0 -1.335938,-0.50390625 -1.347656,-1.72265625 1.066406,-0.046875 2.191406,-0.1289063 2.355468,-0.1640625 0.152344,-0.035156 0.199219,-0.1054688 0.199219,-0.28125 0,-0.703125 -0.597656,-1.3710938 -1.347656,-1.3710938 -0.46875,0 -0.949219,0.2460938 -1.324219,0.65625 -0.363281,0.4101563 -0.597656,0.9609375 -0.597656,1.5820313 0,1.0078125 0.65625,1.91015625 1.757812,1.91015625 0.28125,0 0.902344,-0.1640625 1.464844,-0.8671875 z M 82.263359,-3.7017375 c 0.492188,0 0.796875,0.421875 0.785157,0.890625 0,0.1289062 -0.04687,0.1875 -0.210938,0.1875 -0.527344,0.011719 -1.019531,0.023437 -1.523437,0.023437 0.128906,-0.7265625 0.527343,-1.1015625 0.949218,-1.101562 z m 3.896485,3.703125 v -0.234375 c -0.574219,-0.0585938 -0.65625,-0.10546875 -0.65625,-0.703125 v -5.4726563 c -0.304688,0.1054688 -0.855469,0.2578125 -1.324219,0.3164063 v 0.2109375 c 0.5625,0.046875 0.621094,0.082031 0.621094,0.6914062 v 4.2539063 c 0,0.59765625 -0.08203,0.64453125 -0.644532,0.703125 v 0.234375 z m 0.541992,-6.1757813 c 0.890625,0.7382813 1.417969,2.203125 1.417969,3.75 0,1.54687505 -0.503907,2.9882813 -1.417969,3.75 l 0.164062,0.1992188 c 1.347657,-0.9140625 1.898438,-2.33203125 1.898438,-3.9492188 0,-1.6289062 -0.550781,-3.0585937 -1.898438,-3.9609375 z M 5.3326953,7.524825 c -0.046875,-0.5273438 -0.09375,-1.1835938 -0.09375,-1.59375 h -0.1875 C 4.9108203,6.0951375 4.8287891,6.1537312 4.5944141,6.1537312 h -3.5625 c -0.24609379,0 -0.36328129,-0.023437 -0.49218754,-0.2226562 H 0.36394531 C 0.34050781,6.4232625 0.29363281,7.0092 0.25847656,7.5482625 h 0.2578125 C 0.62175781,7.149825 0.69207031,6.9037312 0.79753906,6.7396687 0.91472656,6.54045 1.1022266,6.4701375 1.8405078,6.4701375 h 0.5625 v 4.4296875 c 0,0.703125 -0.070312,0.796875 -0.890625,0.84375 v 0.257812 h 2.578125 V 11.743575 C 3.2350391,11.6967 3.1647266,11.60295 3.1647266,10.899825 V 6.4701375 h 0.6445312 c 0.6679688,0 0.8320313,0.058594 0.9726563,0.2695312 0.1054687,0.1523438 0.1875,0.375 0.28125,0.8085938 z m 4.8369137,4.476562 V 11.767012 C 9.6422656,11.720137 9.5719531,11.673262 9.5719531,11.075606 V 9.493575 c 0,-1.078125 -0.5039062,-1.5351563 -1.2421875,-1.5351563 -0.4804687,0 -0.9726562,0.3398438 -1.2890625,0.65625 V 5.5912312 C 6.7008594,5.6967 6.1500781,5.8490437 5.7282031,5.9076375 V 6.118575 c 0.5859375,0.046875 0.609375,0.09375 0.609375,0.6679687 v 4.2890623 c 0,0.597656 -0.082031,0.644531 -0.6210937,0.691406 v 0.234375 H 7.6266406 V 11.767012 C 7.0875781,11.708419 7.0407031,11.649825 7.0407031,11.075606 V 8.931075 c 0.2578125,-0.28125 0.5976563,-0.4570313 0.9375,-0.4570313 0.609375,0 0.890625,0.3632813 0.890625,1.1015625 v 1.4999998 c 0,0.585938 -0.082031,0.632813 -0.5976562,0.691406 v 0.234375 z m 1.40918,-4.8281245 c 0.257813,0 0.457031,-0.2109375 0.457031,-0.4570313 0,-0.2695312 -0.199218,-0.46875 -0.457031,-0.46875 -0.234375,0 -0.457031,0.1992188 -0.457031,0.46875 0,0.2460938 0.222656,0.4570313 0.457031,0.4570313 z m 1.054688,4.8281245 v -0.234375 c -0.585938,-0.05859 -0.644532,-0.105468 -0.644532,-0.714843 V 7.9467 C 11.590508,8.0990437 11.168633,8.2162312 10.711602,8.2982625 V 8.5092 c 0.539062,0.09375 0.5625,0.1289062 0.5625,0.6796875 v 1.8632815 c 0,0.609375 -0.05859,0.65625 -0.621094,0.714843 v 0.234375 z m 4.848632,0 v -0.234375 c -0.527343,-0.05859 -0.574218,-0.09375 -0.574218,-0.703125 V 9.3295125 c 0,-0.8789063 -0.445313,-1.3710938 -1.160157,-1.3710938 -0.257812,0 -0.492187,0.1054688 -0.75,0.2695313 -0.222656,0.1523437 -0.421875,0.2929687 -0.597656,0.421875 V 7.9349812 c -0.398437,0.1757813 -0.820312,0.28125 -1.253906,0.3632813 V 8.5092 c 0.492187,0.09375 0.539062,0.1171875 0.539062,0.6914062 v 1.8632808 c 0,0.597657 -0.04687,0.644532 -0.65625,0.703125 v 0.234375 h 1.957032 v -0.234375 c -0.527344,-0.05859 -0.585938,-0.09375 -0.585938,-0.703125 V 8.9545125 c 0.269531,-0.234375 0.621094,-0.46875 0.984375,-0.46875 0.597656,0 0.820313,0.4101562 0.820313,1.03125 v 1.4999995 c 0,0.621094 -0.07031,0.691407 -0.597657,0.75 v 0.234375 z m 6.908203,-0.457031 -0.292968,-0.02344 c -0.328125,-0.04687 -0.386719,-0.08203 -0.386719,-0.550782 V 5.5912312 c -0.339844,0.1171875 -0.9375,0.2578125 -1.40625,0.3164063 V 6.118575 c 0.644531,0.046875 0.691406,0.082031 0.691406,0.6679687 v 1.2773438 c -0.210937,-0.082031 -0.46875,-0.1054688 -0.597656,-0.1054688 -1.21875,0 -2.320313,0.984375 -2.320313,2.2382813 0,1.253906 0.949219,1.910156 1.664063,1.910156 0.105469,0 0.351562,-0.04687 0.703125,-0.257812 l 0.550781,-0.328125 v 0.585937 c 0.527344,-0.1875 1.195313,-0.304687 1.394531,-0.339844 z m -1.394531,-0.304687 c -0.210937,0.164062 -0.539062,0.304687 -0.867187,0.304687 -0.574219,0 -1.230469,-0.527344 -1.230469,-1.5937498 0,-1.3007812 0.761719,-1.6523437 1.171875,-1.6523437 0.339844,0 0.714844,0.140625 0.925781,0.4570312 z m 2.712891,-4.0664065 c 0.257812,0 0.457031,-0.2109375 0.457031,-0.4570313 0,-0.2695312 -0.199219,-0.46875 -0.457031,-0.46875 -0.234375,0 -0.457031,0.1992188 -0.457031,0.46875 0,0.2460938 0.222656,0.4570313 0.457031,0.4570313 z m 1.054687,4.8281245 v -0.234375 c -0.585937,-0.05859 -0.644531,-0.105468 -0.644531,-0.714843 V 7.9467 C 25.720391,8.0990437 25.298516,8.2162312 24.841484,8.2982625 V 8.5092 c 0.539063,0.09375 0.5625,0.1289062 0.5625,0.6796875 v 1.8632815 c 0,0.609375 -0.05859,0.65625 -0.621093,0.714843 v 0.234375 z m 3.547852,-0.949218 c -0.328125,0.304687 -0.667969,0.445312 -1.019531,0.445312 -0.632813,0 -1.335938,-0.503906 -1.347657,-1.722656 1.066407,-0.046875 2.191407,-0.1289063 2.355469,-0.1640625 0.152344,-0.035156 0.199219,-0.1054688 0.199219,-0.28125 0,-0.703125 -0.597656,-1.3710938 -1.347656,-1.3710938 -0.46875,0 -0.949219,0.2460938 -1.324219,0.65625 C 27.463555,9.024825 27.22918,9.5756062 27.22918,10.1967 c 0,1.007812 0.65625,1.910156 1.757812,1.910156 0.28125,0 0.902344,-0.164062 1.464844,-0.867187 z M 28.940117,8.2982625 c 0.492188,0 0.796875,0.421875 0.785156,0.890625 0,0.1289062 -0.04687,0.1875 -0.210937,0.1875 -0.527344,0.011719 -1.019531,0.023437 -1.523438,0.023437 0.128907,-0.7265625 0.527344,-1.1015625 0.949219,-1.101562 z m 3.893555,3.7031245 v -0.234375 c -0.574219,-0.05859 -0.65625,-0.105468 -0.65625,-0.703125 V 5.5912312 C 31.872734,5.6967 31.321953,5.8490437 30.853203,5.9076375 V 6.118575 c 0.5625,0.046875 0.621094,0.082031 0.621094,0.6914062 v 4.2539058 c 0,0.597657 -0.08203,0.644532 -0.644531,0.703125 v 0.234375 z m 3.544922,-0.949218 c -0.328125,0.304687 -0.667969,0.445312 -1.019532,0.445312 -0.632812,0 -1.335937,-0.503906 -1.347656,-1.722656 1.066406,-0.046875 2.191406,-0.1289063 2.355469,-0.1640625 0.152344,-0.035156 0.199219,-0.1054688 0.199219,-0.28125 0,-0.703125 -0.597657,-1.3710938 -1.347657,-1.3710938 -0.46875,0 -0.949218,0.2460938 -1.324218,0.65625 -0.363282,0.4101563 -0.597657,0.9609375 -0.597657,1.5820313 0,1.007812 0.65625,1.910156 1.757813,1.910156 0.28125,0 0.902344,-0.164062 1.464844,-0.867187 z M 35.0075,8.2982625 c 0.492187,0 0.796875,0.421875 0.785156,0.890625 0,0.1289062 -0.04687,0.1875 -0.210937,0.1875 -0.527344,0.011719 -1.019532,0.023437 -1.523438,0.023437 C 34.187187,8.673262 34.585625,8.298262 35.0075,8.2982625 Z m 5.34668,2.7070315 c -0.410157,0.386718 -0.703125,0.492187 -1.089844,0.492187 -0.503906,0 -1.359375,-0.410156 -1.359375,-1.6640623 0,-0.9492187 0.515625,-1.4414062 1.113281,-1.4414062 0.316406,0 0.632813,0.1171875 0.902344,0.375 0.08203,0.070312 0.117187,0.09375 0.164062,0.09375 0.105469,0 0.304688,-0.1992188 0.304688,-0.3867188 0,-0.1054687 -0.03516,-0.1757812 -0.152344,-0.28125 -0.140625,-0.1171875 -0.433594,-0.234375 -0.796875,-0.234375 -0.351562,0 -0.890625,0.140625 -1.359375,0.5039063 -0.597656,0.46875 -0.902344,1.078125 -0.902344,1.769531 0,0.960938 0.667969,1.875 1.804688,1.875 0.527344,0 1.136719,-0.398437 1.523437,-0.914062 z m 3.035156,0.667968 -0.08203,-0.234375 c -0.128907,0.07031 -0.328125,0.152344 -0.5625,0.152344 -0.222657,0 -0.515625,-0.128906 -0.515625,-0.855469 V 8.41545 h 0.960937 c 0.105469,-0.058594 0.128906,-0.2578125 0.05859,-0.3515625 H 42.22918 V 6.8334187 L 42.100273,6.8217 41.514336,7.4076375 v 0.65625 H 41.10418 l -0.246094,0.2695312 0.03516,0.082031 H 41.51434 V 11.04045 c 0,0.703125 0.316406,1.066406 0.878906,1.066406 0.08203,0 0.234375,-0.03516 0.386719,-0.117187 z m 1.737305,-2.7539058 v -0.984375 c -0.433594,0.1875 -0.832032,0.2929688 -1.265625,0.3632813 v 0.1992187 c 0.503906,0.070312 0.550781,0.1054688 0.550781,0.703125 v 1.8632808 c 0,0.597657 -0.05859,0.644532 -0.621094,0.703125 v 0.234375 h 2.074219 v -0.234375 c -0.691406,-0.05859 -0.738281,-0.105468 -0.738281,-0.703125 V 9.4232625 c 0.199218,-0.5039063 0.480468,-0.7734375 0.714843,-0.7734375 0.152344,0 0.257813,0.046875 0.386719,0.1875 0.04687,0.046875 0.128906,0.058594 0.234375,0.011719 0.175781,-0.082031 0.292969,-0.2578125 0.292969,-0.4335937 0,-0.2226563 -0.210938,-0.4570313 -0.527344,-0.4570313 -0.421875,0 -0.808594,0.5039063 -1.078125,0.9609375 z m 2.982421,-1.7460937 c 0.257813,0 0.457032,-0.2109375 0.457032,-0.4570313 0,-0.2695312 -0.199219,-0.46875 -0.457032,-0.46875 -0.234375,0 -0.457031,0.1992188 -0.457031,0.46875 0,0.2460938 0.222656,0.4570313 0.457031,0.4570313 z m 1.054688,4.8281245 v -0.234375 c -0.585938,-0.05859 -0.644531,-0.105468 -0.644531,-0.714843 V 7.9467 C 48.120781,8.0990437 47.698906,8.2162312 47.241875,8.2982625 V 8.5092 c 0.539062,0.09375 0.5625,0.1289062 0.5625,0.6796875 v 1.8632815 c 0,0.609375 -0.05859,0.65625 -0.621094,0.714843 v 0.234375 z m 3.65332,-0.996093 c -0.410156,0.386718 -0.703125,0.492187 -1.089843,0.492187 -0.503907,0 -1.359375,-0.410156 -1.359375,-1.6640623 0,-0.9492187 0.515625,-1.4414062 1.113281,-1.4414062 0.316406,0 0.632812,0.1171875 0.902344,0.375 0.08203,0.070312 0.117187,0.09375 0.164062,0.09375 0.105469,0 0.304688,-0.1992188 0.304688,-0.3867188 0,-0.1054687 -0.03516,-0.1757812 -0.152344,-0.28125 -0.140625,-0.1171875 -0.433594,-0.234375 -0.796875,-0.234375 -0.351563,0 -0.890625,0.140625 -1.359375,0.5039063 -0.597656,0.46875 -0.902344,1.078125 -0.902344,1.769531 0,0.960938 0.667969,1.875 1.804688,1.875 0.527343,0 1.136718,-0.398437 1.523437,-0.914062 z m -206.45215,52.177734 c 0.22266,-0.328125 0.58594,-0.714844 1.07813,-0.714844 0.48047,0 0.85547,0.292969 0.85547,0.855469 0,0.65625 -0.60938,1.007813 -1.42969,1.277344 l 0.0586,0.257812 c 0.14063,-0.04687 0.36328,-0.105468 0.57422,-0.105468 0.51563,0 1.14844,0.339843 1.14844,1.171875 0,0.890625 -0.45703,1.359375 -1.08985,1.359375 -0.51562,0 -0.89062,-0.246094 -1.125,-0.457032 -0.0703,-0.05859 -0.14062,-0.04687 -0.21093,0 -0.082,0.05859 -0.19922,0.175782 -0.21094,0.292969 -0.0117,0.117188 0.0234,0.210938 0.15234,0.328125 0.11719,0.105469 0.48047,0.304688 0.89063,0.304688 0.65625,0 2.36719,-0.667969 2.36719,-2.121094 0,-0.65625 -0.46875,-1.21875 -1.25391,-1.371094 v -0.01172 c 0.25781,-0.1875 0.48047,-0.339843 0.60937,-0.492187 0.17579,-0.164063 0.28125,-0.375 0.28125,-0.632813 0,-0.691406 -0.52734,-1.195312 -1.34765,-1.195312 -0.46875,0 -0.89063,0.234375 -1.13672,0.503906 l -0.39844,0.574219 z m 5.71289,-1.253906 c -1.34765,0 -1.83984,1.605469 -1.83984,2.917969 0,1.417968 0.48047,2.90625 1.83984,2.90625 1.35938,0 1.82813,-1.59375 1.82813,-2.917969 0,-1.382813 -0.46875,-2.90625 -1.82813,-2.90625 z m 0,0.304687 c 0.8086,0 1.03125,1.324219 1.03125,2.601563 0,1.265625 -0.22265,2.613281 -1.03125,2.613281 -0.77343,0 -1.04297,-1.359375 -1.04297,-2.613281 0,-1.253906 0.22266,-2.601563 1.04297,-2.601563 z m 57.02344,2.332032 c 0.269531,-1.253907 1.113281,-1.828125 1.664062,-2.085938 0.328125,-0.152344 0.679688,-0.257812 0.972657,-0.316406 l -0.05859,-0.28125 c -0.363281,0.05859 -0.796875,0.164062 -1.148438,0.28125 -0.960937,0.351562 -2.332031,1.371094 -2.332031,3.339844 0,1.382812 0.796875,2.25 1.851563,2.25 1.078125,0 1.839843,-0.902344 1.839843,-1.980469 0,-0.925781 -0.65625,-1.664063 -1.617187,-1.664063 -0.175781,0 -0.363281,0.07031 -0.5625,0.152344 z m 0.820312,0.04687 c 0.820313,0 1.195313,0.738281 1.195313,1.488281 0,0.597656 -0.210938,1.347656 -0.914063,1.347656 -0.738281,0 -1.195312,-0.878906 -1.195312,-1.957031 0,-0.234375 0.01172,-0.457031 0.04687,-0.621094 0.222656,-0.117187 0.527344,-0.257812 0.867187,-0.257812 z m 4.426758,-2.683594 c -1.347656,0 -1.839843,1.605469 -1.839843,2.917969 0,1.417968 0.480468,2.90625 1.839843,2.90625 1.359375,0 1.828125,-1.59375 1.828125,-2.917969 0,-1.382813 -0.46875,-2.90625 -1.828125,-2.90625 z m 0,0.304687 c 0.808594,0 1.03125,1.324219 1.03125,2.601563 0,1.265625 -0.222656,2.613281 -1.03125,2.613281 -0.773437,0 -1.042968,-1.359375 -1.042968,-2.613281 0,-1.253906 0.222656,-2.601563 1.042968,-2.601563 z m 57.972657,-0.304687 c -1.160157,0 -1.839844,1.054687 -1.839844,1.921875 0,0.949219 0.65625,1.640625 1.617187,1.640625 0.164063,0 0.339844,-0.03516 0.539063,-0.140625 l 0.597656,-0.316406 c -0.292969,1.359375 -1.277344,2.261718 -2.566406,2.472656 l 0.04687,0.28125 c 0.222656,0 0.773437,-0.09375 1.265625,-0.292969 1.207031,-0.492187 2.121094,-1.652344 2.121094,-3.316406 0,-1.21875 -0.65625,-2.25 -1.78125,-2.25 z m -0.117188,0.304687 c 0.867188,0 1.101563,1.113282 1.101563,1.898438 0,0.1875 0,0.398437 -0.03516,0.597656 -0.1875,0.140625 -0.492187,0.257813 -0.808593,0.257813 -0.75,0 -1.207032,-0.65625 -1.207032,-1.453125 0,-0.527344 0.257813,-1.300782 0.949219,-1.300782 z m 4.415039,-0.304687 c -1.347656,0 -1.839844,1.605469 -1.839844,2.917969 0,1.417968 0.480469,2.90625 1.839844,2.90625 1.359375,0 1.828125,-1.59375 1.828125,-2.917969 0,-1.382813 -0.46875,-2.90625 -1.828125,-2.90625 z m 0,0.304687 c 0.808594,0 1.03125,1.324219 1.03125,2.601563 0,1.265625 -0.222656,2.613281 -1.03125,2.613281 -0.773437,0 -1.042969,-1.359375 -1.042969,-2.613281 0,-1.253906 0.222657,-2.601563 1.042969,-2.601563 z M -217.47297,-49.440019 v -0.246094 c -0.82031,-0.05859 -0.8789,-0.128906 -0.8789,-0.785156 v -4.6875 c -0.49219,0.199219 -1.01954,0.375 -1.59375,0.46875 v 0.210938 l 0.43359,0.01172 c 0.38672,0.02344 0.42187,0.07031 0.42187,0.539063 v 3.457031 c 0,0.65625 -0.0352,0.726563 -0.85546,0.785156 v 0.246094 z m 0,0"
         style="fill:#231f20;fill-opacity:1;fill-rule:nonzero;stroke:none"
         aria-label="Single interface (Fresnel)&#10;Thin dielectric&#10;306090&#10;1"
         transform="matrix(1.3333333,0,0,1.3333333,294.57333,77.4044)" />
      <path
         id="path3"
         d="M 85.8242,146.871 H 302.867 l 9.199,0.027 h 44.852 l 4.883,0.024 h 19.605 l 9.793,0.039 h 20.559 l 2.281,0.027 h 16.215 l 2.449,0.043 h 15.504 l 0.621,0.008 h 8.66 l 9.918,0.039 h 4.645 l 4.613,0.031 h 9.816 l 0.598,0.02 h 8.078 l 9.258,0.043 h 2.27 l 2.285,0.019 h 4.523 l 9.086,0.039 h 1.121 l 1.125,0.02 h 6.797 l 9.086,0.07 h 4.906 l 4.938,0.02 9.832,0.058 h 4.933 l 4.918,0.032 9.848,0.058 h 2.281 l 2.301,0.032 4.59,0.031 9.203,0.07 h 2.27 l 2.308,0.027 13.758,0.082 h 2.52 l 2.484,0.02 4.961,0.039 9.945,0.082 h 2.512 l 2.496,0.039 4.965,0.031 9.929,0.079 h 0.622 l 0.621,0.039 h 1.218 l 2.461,0.023 4.875,0.039 9.758,0.117 19.559,0.203 h 1.117 l 1.156,0.028 h 2.278 l 31.894,0.41 0.613,0.043 h 1.871 l 2.454,0.039 4.945,0.059 9.902,0.16 19.77,0.332 0.562,0.027 h 0.586 l 1.149,0.02 2.308,0.031 13.848,0.269 18.461,0.379 h 1.238 l 3.738,0.09 14.989,0.352 19.996,0.511 h 0.621 l 0.629,0.028 1.211,0.031 2.445,0.051 4.922,0.16 9.824,0.269 19.629,0.622 0.57,0.019 h 0.563 l 1.152,0.027 2.281,0.09 4.575,0.141 9.172,0.34 18.308,0.679 1.242,0.063 1.25,0.019 2.489,0.122 4.933,0.207 9.945,0.41 19.856,0.89 0.586,0.032 0.558,0.031 1.184,0.058 2.309,0.122 4.644,0.207 9.266,0.461 18.542,1.039 2.25,0.132 2.28,0.11 4.55,0.258 9.07,0.57 18.18,1.18 0.62,0.062 0.62,0.039 1.24,0.078 2.45,0.184 4.95,0.328 9.85,0.73 19.7,1.54 0.59,0.019 0.57,0.063 1.15,0.097 2.3,0.211 4.59,0.379 9.2,0.789 18.4,1.723 0.65,0.058 1.86,0.18 2.48,0.262 4.98,0.508 10,1.043 19.94,2.207 0.59,0.089 0.62,0.063 1.22,0.148 7.36,0.879 9.78,1.25 19.56,2.633 0.6,0.059 1.69,0.261 2.3,0.329 4.55,0.652 9.14,1.359 18.26,2.93 0.62,0.09 0.62,0.121 1.23,0.207 2.47,0.41 4.97,0.859 9.87,1.774 19.83,3.758 0.56,0.129 0.59,0.101 8.07,1.66 9.26,1.989 18.5,4.171 36.23,9.348 39.32,12.043 0.59,0.199 0.55,0.18 1.16,0.379 2.28,0.812 4.59,1.559 9.17,3.281 18.36,6.949 0.63,0.27 0.61,0.238 3.74,1.512 4.96,2.039 9.94,4.191 19.88,9.059 0.6,0.27 0.59,0.3 1.15,0.532 2.32,1.121 4.62,2.269 9.31,4.739 18.58,10.031 1.12,0.64 1.15,0.661 2.28,1.296 4.55,2.672 9.08,5.461 18.22,11.688 1.24,0.84 1.22,0.82 2.49,1.687 4.93,3.399 9.89,7.101 19.72,15.172 0.6,0.442 0.56,0.476 1.16,0.949 2.3,1.868 4.62,3.84 9.2,7.898 18.43,16.887 0.62,0.597 0.65,0.621 1.24,1.184 2.48,2.418 5.01,4.977 9.99,10.265 19.97,22.008 0.62,0.715 0.59,0.703 1.25,1.453 2.44,2.863 4.89,5.903 9.82,12.144 19.62,26.125 1.12,1.598 1.15,1.629 2.28,3.25 4.59,6.597 9.14,13.649 18.31,29.183 0.59,1.04 1.86,3.105 2.49,4.234 4.97,8.547 9.91,17.805 19.85,38.32 0.56,1.172 0.59,1.184 1.16,2.371 2.3,4.765 4.65,9.739 9.25,20.101 18.53,43.16 1.12,2.778 1.13,2.812 2.27,5.625 4.53,11.481 9.08,23.754 18.17,50.941 1.23,3.609 1.21,3.657 2.49,7.367 4.91,15.058 9.86,31.243 19.69,67.539 0.57,2.07 0.58,2.094 1.13,4.179 2.31,8.454 4.59,17.191 9.2,35.699 18.37,76.916 0.64,2.81 0.66,2.85 1.27,5.67 2.58,11.54 5.11,23.49 10.27,49.04 0.65,3.17 0.62,3.16 1.31,6.39 2.53,12.87 5.15,26.33 0.63,3.34 0.65,3.35 1.27,6.74 2.57,13.64 0.65,3.46 0.62,3.43 1.3,6.95 0.63,3.49 0.65,3.49 0.64,3.53 0.63,3.52"
         style="fill:none;stroke:#3871c1;stroke-width:10;stroke-linecap:square;stroke-linejoin:miter;stroke-miterlimit:3.25;stroke-dasharray:none;stroke-opacity:1"
         transform="matrix(0.13333333,0,0,-0.13333333,0,171.92)" />
      <path
         id="path4"
         d="M 85.8242,188.488 H 250.57 l 4.934,0.032 h 47.363 l 9.199,0.031 h 24.969 l 4.969,0.019 h 14.914 l 4.883,0.039 H 376.5 l 4.906,0.032 h 12.071 l 2.281,0.039 h 4.586 l 9.144,0.011 h 4.551 l 4.59,0.039 h 9.762 l 0.617,0.02 h 8.664 l 9.91,0.07 h 4.973 l 4.933,0.02 9.918,0.039 h 1.149 l 1.164,0.019 h 2.332 l 4.613,0.051 9.258,0.02 h 1.156 l 1.152,0.019 h 2.305 l 4.621,0.032 9.258,0.031 0.551,0.027 h 4.004 l 4.523,0.031 9.086,0.063 h 0.551 l 0.57,0.027 h 3.403 l 4.519,0.031 9.086,0.09 h 2.457 l 2.449,0.032 4.938,0.027 9.832,0.082 h 1.238 l 1.223,0.039 2.472,0.02 4.918,0.039 9.848,0.082 h 0.563 l 0.562,0.031 h 1.156 l 2.301,0.039 4.59,0.019 9.203,0.122 h 1.113 l 1.157,0.039 2.308,0.031 4.586,0.047 9.172,0.09 0.625,0.031 h 1.895 l 2.484,0.058 4.961,0.063 9.945,0.141 h 1.27 l 1.242,0.039 2.496,0.019 4.965,0.09 9.929,0.148 h 0.622 l 0.621,0.032 h 1.218 l 2.461,0.058 14.633,0.274 19.559,0.379 h 0.566 l 0.551,0.031 h 1.156 l 2.278,0.058 4.558,0.079 9.117,0.222 18.219,0.469 h 0.613 l 0.621,0.031 1.25,0.028 2.454,0.062 4.945,0.117 9.902,0.293 19.77,0.598 0.562,0.031 0.586,0.02 3.457,0.09 4.617,0.191 9.231,0.309 18.461,0.679 1.238,0.063 1.246,0.027 2.492,0.121 14.989,0.621 19.996,0.918 1.25,0.063 1.211,0.047 2.445,0.152 4.922,0.238 9.824,0.512 19.629,1.117 1.133,0.063 1.152,0.089 2.281,0.122 4.575,0.289 9.172,0.57 18.308,1.269 0.621,0.032 0.621,0.047 3.739,0.261 4.933,0.36 9.945,0.781 19.856,1.66 0.586,0.02 0.558,0.05 1.184,0.098 2.309,0.211 4.644,0.41 9.266,0.86 18.542,1.859 2.25,0.242 6.83,0.699 9.07,1.008 18.18,2.133 1.24,0.18 1.24,0.148 2.45,0.301 4.95,0.621 9.85,1.301 19.7,2.789 36.8,5.898 0.65,0.121 0.62,0.09 1.24,0.238 7.46,1.332 10,1.872 19.94,4 0.59,0.097 0.62,0.121 1.22,0.27 2.45,0.512 4.91,1.058 9.78,2.192 19.56,4.636 36.54,9.821 39.61,12.582 36.98,13.781 36.23,15.793 39.32,20 36.7,21.773 39.76,27.481 37.17,29.754 36.4,33.492 39.49,41.719 36.87,44.449 39.96,54.762 39.23,60.878 36.59,63.457 39.67,76.231 37.04,78.156 36.3,82.86 39.39,96.433 36.75,95.25 0.64,1.68 0.66,1.72 1.27,3.4 2.58,6.84 5.11,13.73 10.27,27.65 0.65,1.72 0.62,1.74 1.31,3.5 2.53,6.95 5.15,13.99 0.63,1.78 0.65,1.75 1.27,3.52 2.57,7.03 0.65,1.75 0.62,1.77 1.3,3.52 0.63,1.75 1.29,3.55 0.63,1.75"
         style="fill:none;stroke:#da1259;stroke-width:10;stroke-linecap:square;stroke-linejoin:miter;stroke-miterlimit:3.25;stroke-dasharray:none;stroke-opacity:1"
         transform="matrix(0.13333333,0,0,-0.13333333,0,171.92)" />
      <path
         id="path5"
         d="m 85.8242,146.871 v 23.07"
         style="fill:none;stroke:#231f20;stroke-width:3.6;stroke-linecap:butt;stroke-linejoin:miter;stroke-miterlimit:3.25;stroke-dasharray:none;stroke-opacity:1"
         transform="matrix(0.13333333,0,0,-0.13333333,0,171.92)" />
      <path
         id="path6"
         d="m 708.52,116.871 v 30"
         style="fill:none;stroke:#231f20;stroke-width:3.6;stroke-linecap:butt;stroke-linejoin:miter;stroke-miterlimit:3.25;stroke-dasharray:none;stroke-opacity:1"
         transform="matrix(0.13333333,0,0,-0.13333333,0,171.92)" />
      <path
         id="path7"
         d="m 1331.22,116.871 v 30"
         style="fill:none;stroke:#231f20;stroke-width:3.6;stroke-linecap:butt;stroke-linejoin:miter;stroke-miterlimit:3.25;stroke-dasharray:none;stroke-opacity:1"
         transform="matrix(0.13333333,0,0,-0.13333333,0,171.92)" />
      <path
         id="path8"
         d="m 1953.93,116.871 v 30"
         style="fill:none;stroke:#231f20;stroke-width:3.6;stroke-linecap:butt;stroke-linejoin:miter;stroke-miterlimit:3.25;stroke-dasharray:none;stroke-opacity:1"
         transform="matrix(0.13333333,0,0,-0.13333333,0,171.92)" />
      <path
         id="path9"
         d="M 46.9219,146.871 H 1992.85"
         style="fill:none;stroke:#231f20;stroke-width:3.6;stroke-linecap:butt;stroke-linejoin:miter;stroke-miterlimit:3.25;stroke-dasharray:none;stroke-opacity:1"
         transform="matrix(0.13333333,0,0,-0.13333333,0,171.92)" />
      <path
         id="path10"
         d="m 55.8242,1229.25 h 30"
         style="fill:none;stroke:#231f20;stroke-width:3.6;stroke-linecap:butt;stroke-linejoin:miter;stroke-miterlimit:3.25;stroke-dasharray:none;stroke-opacity:1"
         transform="matrix(0.13333333,0,0,-0.13333333,0,171.92)" />
      <path
         id="path11"
         d="M 85.8242,86.7305 V 1289.38"
         style="fill:none;stroke:#231f20;stroke-width:3.6;stroke-linecap:butt;stroke-linejoin:miter;stroke-miterlimit:3.25;stroke-dasharray:none;stroke-opacity:1"
         transform="matrix(0.13333333,0,0,-0.13333333,0,171.92)" />
      <path
         id="path12"
         d="m 2086.84,720.426 h 83.38"
         style="fill:none;stroke:#3871c1;stroke-width:10;stroke-linecap:square;stroke-linejoin:miter;stroke-miterlimit:3.25;stroke-dasharray:none;stroke-opacity:1"
         transform="matrix(0.13333333,0,0,-0.13333333,0,171.92)" />
      <path
         id="path13"
         d="m 2086.84,600.426 h 83.38"
         style="fill:none;stroke:#da1259;stroke-width:10;stroke-linecap:square;stroke-linejoin:miter;stroke-miterlimit:3.25;stroke-dasharray:none;stroke-opacity:1"
         transform="matrix(0.13333333,0,0,-0.13333333,0,171.92)" />
    </g>
  </g>
</svg>
