<?xml version="1.0" encoding="UTF-8" standalone="no"?>
<!-- Created with Inkscape (http://www.inkscape.org/) -->

<svg
   version="1.1"
   id="svg1"
   width="320.37332"
   height="175.25333"
   viewBox="0 0 320.37332 175.25333"
   sodipodi:docname="pha09f26.eps"
   xmlns:inkscape="http://www.inkscape.org/namespaces/inkscape"
   xmlns:sodipodi="http://sodipodi.sourceforge.net/DTD/sodipodi-0.dtd"
   xmlns="http://www.w3.org/2000/svg"
   xmlns:svg="http://www.w3.org/2000/svg">
  <defs
     id="defs1" />
  <sodipodi:namedview
     id="namedview1"
     pagecolor="#ffffff"
     bordercolor="#000000"
     borderopacity="0.25"
     inkscape:showpageshadow="2"
     inkscape:pageopacity="0.0"
     inkscape:pagecheckerboard="0"
     inkscape:deskcolor="#d1d1d1">
    <inkscape:page
       x="0"
       y="0"
       inkscape:label="1"
       id="page1"
       width="320.37332"
       height="175.25333"
       margin="0"
       bleed="0" />
  </sodipodi:namedview>
  <g
     id="g1"
     inkscape:groupmode="layer"
     inkscape:label="1">
    <g
       id="group-R5">
      <g
         id="g2"
         aria-label="0&#10;α = 0.05&#10;α = 0.25&#10;α = 0.75&#10;0.5&#10;–&#10;π"
         transform="matrix(1.3333333,0,0,1.3333333,126.28853,168.74656)">
        <path
           id="path2"
           d="m 1.9222719,-5.0862872 c -1.20703127,0 -1.64062502,1.4296875 -1.64062502,2.6015625 0,1.265625 0.43359375,2.57812501 1.64062502,2.57812501 1.1953125,0 1.6289062,-1.41796871 1.6289062,-2.58984371 0,-1.2304688 -0.4335937,-2.5898438 -1.6289062,-2.5898438 z m -0.011719,0.2695313 c 0.7265625,0 0.9257813,1.1835937 0.9257813,2.3203125 0,1.125 -0.1992188,2.32031246 -0.9140625,2.32031246 -0.703125,0 -0.92578127,-1.20703126 -0.92578127,-2.33203126 0,-1.1132812 0.18749997,-2.3085937 0.91406247,-2.3085937 z m 0,0"
           style="fill:#231f20;fill-opacity:1;fill-rule:nonzero;stroke:none" />
        <path
           id="path3"
           d="m 123.63614,-72.492537 c -0.22266,0.316406 -0.41016,0.46875 -0.50391,0.46875 -0.1289,0 -0.1875,-0.363281 -0.3164,-1.40625 0.3164,-0.445313 0.73828,-1.054688 1.05468,-1.617188 l -0.082,-0.07031 -0.42187,0.105469 c -0.15235,0.328125 -0.36328,0.75 -0.58594,1.125 h -0.0234 c -0.14062,-0.84375 -0.3164,-1.230469 -0.80859,-1.230469 -0.84375,0 -1.93359,1.148437 -1.94531,2.4375 0,0.738281 0.30468,1.253906 0.76172,1.253906 0.48046,0 1.03125,-0.480469 1.53515,-1.277344 h 0.0234 c 0.082,0.972657 0.23437,1.277344 0.48047,1.277344 0.28125,0 0.64453,-0.257812 1.00781,-0.914062 z m -1.91016,-2.296875 c 0.35157,0 0.46875,0.785156 0.53907,1.664062 -0.49219,0.855469 -0.91407,1.183594 -1.19532,1.183594 -0.21093,0 -0.39843,-0.304687 -0.38672,-0.878906 0,-1.007813 0.53907,-1.96875 1.04297,-1.96875 z m 0,0"
           style="fill:#231f20;fill-opacity:1;fill-rule:nonzero;stroke:none" />
        <path
           id="path4"
           d="m 129.99063,-74.086287 v -0.398438 h -3.80859 v 0.398438 z m 0,1.464844 v -0.398438 h -3.80859 v 0.398438 z m 4.14844,-3.984375 c -1.20703,0 -1.64063,1.429687 -1.64063,2.601562 0,1.265625 0.4336,2.578125 1.64063,2.578125 1.19531,0 1.6289,-1.417969 1.6289,-2.589844 0,-1.230468 -0.43359,-2.589843 -1.6289,-2.589843 z m -0.0117,0.269531 c 0.72656,0 0.92578,1.183594 0.92578,2.320312 0,1.125 -0.19922,2.320313 -0.91406,2.320313 -0.70313,0 -0.92578,-1.207031 -0.92578,-2.332031 0,-1.113282 0.1875,-2.308594 0.91406,-2.308594 z m 2.8418,4.910156 c 0.25781,0 0.44531,-0.1875 0.44531,-0.457031 0,-0.257813 -0.1875,-0.457031 -0.44531,-0.457031 -0.25782,0 -0.44532,0.199218 -0.44532,0.457031 0,0.269531 0.1875,0.457031 0.44532,0.457031 z m 2.833,-5.179687 c -1.20703,0 -1.64062,1.429687 -1.64062,2.601562 0,1.265625 0.43359,2.578125 1.64062,2.578125 1.19532,0 1.62891,-1.417969 1.62891,-2.589844 0,-1.230468 -0.43359,-2.589843 -1.62891,-2.589843 z m -0.0117,0.269531 c 0.72656,0 0.92578,1.183594 0.92578,2.320312 0,1.125 -0.19922,2.320313 -0.91407,2.320313 -0.70312,0 -0.92578,-1.207031 -0.92578,-2.332031 0,-1.113282 0.1875,-2.308594 0.91407,-2.308594 z m 3.14941,0.410156 h 1.86328 l 0.21094,-0.515625 -0.0469,-0.07031 h -2.28515 l -0.31641,2.449218 c 0.1875,-0.07031 0.49219,-0.164062 0.83203,-0.164062 0.86719,0 1.30078,0.503906 1.30078,1.207031 0,0.609375 -0.33984,1.183594 -1.01953,1.183594 -0.48047,0 -0.80859,-0.246094 -0.98437,-0.398438 -0.082,-0.07031 -0.14063,-0.05859 -0.21094,0 -0.0937,0.07031 -0.16406,0.175782 -0.17578,0.257813 -0.0117,0.09375 0.0351,0.164062 0.1289,0.269531 0.12891,0.117188 0.45704,0.28125 0.83204,0.28125 0.42187,0 0.96093,-0.210937 1.39453,-0.5625 0.48047,-0.398437 0.70312,-0.855469 0.70312,-1.335937 0,-0.65625 -0.51562,-1.359375 -1.53515,-1.359375 -0.22266,0 -0.59766,0.128906 -0.90235,0.246093 z m 0,0"
           style="fill:#231f20;fill-opacity:1;fill-rule:nonzero;stroke:none" />
        <path
           id="path5"
           d="m 123.63614,-60.492537 c -0.22266,0.316406 -0.41016,0.46875 -0.50391,0.46875 -0.1289,0 -0.1875,-0.363281 -0.3164,-1.40625 0.3164,-0.445313 0.73828,-1.054688 1.05468,-1.617188 l -0.082,-0.07031 -0.42187,0.105469 c -0.15235,0.328125 -0.36328,0.75 -0.58594,1.125 h -0.0234 c -0.14062,-0.84375 -0.3164,-1.230469 -0.80859,-1.230469 -0.84375,0 -1.93359,1.148437 -1.94531,2.4375 0,0.738281 0.30468,1.253906 0.76172,1.253906 0.48046,0 1.03125,-0.480469 1.53515,-1.277344 h 0.0234 c 0.082,0.972657 0.23437,1.277344 0.48047,1.277344 0.28125,0 0.64453,-0.257812 1.00781,-0.914062 z m -1.91016,-2.296875 c 0.35157,0 0.46875,0.785156 0.53907,1.664062 -0.49219,0.855469 -0.91407,1.183594 -1.19532,1.183594 -0.21093,0 -0.39843,-0.304687 -0.38672,-0.878906 0,-1.007813 0.53907,-1.96875 1.04297,-1.96875 z m 0,0"
           style="fill:#231f20;fill-opacity:1;fill-rule:nonzero;stroke:none" />
        <path
           id="path6"
           d="m 129.99063,-62.086287 v -0.398438 h -3.80859 v 0.398438 z m 0,1.464844 v -0.398438 h -3.80859 v 0.398438 z m 4.14844,-3.984375 c -1.20703,0 -1.64063,1.429687 -1.64063,2.601562 0,1.265625 0.4336,2.578125 1.64063,2.578125 1.19531,0 1.6289,-1.417969 1.6289,-2.589844 0,-1.230468 -0.43359,-2.589843 -1.6289,-2.589843 z m -0.0117,0.269531 c 0.72656,0 0.92578,1.183594 0.92578,2.320312 0,1.125 -0.19922,2.320313 -0.91406,2.320313 -0.70313,0 -0.92578,-1.207031 -0.92578,-2.332031 0,-1.113282 0.1875,-2.308594 0.91406,-2.308594 z m 2.8418,4.910156 c 0.25781,0 0.44531,-0.1875 0.44531,-0.457031 0,-0.257813 -0.1875,-0.457031 -0.44531,-0.457031 -0.25782,0 -0.44532,0.199218 -0.44532,0.457031 0,0.269531 0.1875,0.457031 0.44532,0.457031 z m 4.2041,-1.21875 c -0.23438,0.503906 -0.33985,0.539063 -0.77344,0.539063 h -1.5 l 1.13672,-1.195313 c 0.73828,-0.785156 1.06641,-1.253906 1.06641,-1.945312 0,-0.84375 -0.64454,-1.359375 -1.34766,-1.359375 -0.46875,0 -0.84375,0.210937 -1.07813,0.480468 l -0.45703,0.644532 0.17578,0.164062 c 0.19922,-0.316406 0.53907,-0.75 1.08985,-0.75 0.58594,0 0.9375,0.398438 0.9375,1.066406 0,0.691407 -0.50391,1.347657 -0.9961,1.933594 -0.39843,0.46875 -0.85546,0.925781 -1.30078,1.359375 v 0.1875 h 3 c 0.0937,-0.363281 0.17578,-0.714844 0.28125,-1.042969 z m 1.7666,-3.28125 h 1.86328 l 0.21094,-0.515625 -0.0469,-0.07031 h -2.28515 l -0.31641,2.449218 c 0.1875,-0.07031 0.49219,-0.164062 0.83203,-0.164062 0.86719,0 1.30078,0.503906 1.30078,1.207031 0,0.609375 -0.33984,1.183594 -1.01953,1.183594 -0.48047,0 -0.80859,-0.246094 -0.98437,-0.398438 -0.082,-0.07031 -0.14063,-0.05859 -0.21094,0 -0.0937,0.07031 -0.16406,0.175782 -0.17578,0.257813 -0.0117,0.09375 0.0351,0.164062 0.1289,0.269531 0.12891,0.117188 0.45704,0.28125 0.83204,0.28125 0.42187,0 0.96093,-0.210937 1.39453,-0.5625 0.48047,-0.398437 0.70312,-0.855469 0.70312,-1.335937 0,-0.65625 -0.51562,-1.359375 -1.53515,-1.359375 -0.22266,0 -0.59766,0.128906 -0.90235,0.246093 z m 0,0"
           style="fill:#231f20;fill-opacity:1;fill-rule:nonzero;stroke:none" />
        <path
           id="path7"
           d="m 123.63614,-48.492537 c -0.22266,0.316406 -0.41016,0.46875 -0.50391,0.46875 -0.1289,0 -0.1875,-0.363281 -0.3164,-1.40625 0.3164,-0.445313 0.73828,-1.054688 1.05468,-1.617188 l -0.082,-0.07031 -0.42187,0.105469 c -0.15235,0.328125 -0.36328,0.75 -0.58594,1.125 h -0.0234 c -0.14062,-0.84375 -0.3164,-1.230469 -0.80859,-1.230469 -0.84375,0 -1.93359,1.148437 -1.94531,2.4375 0,0.738281 0.30468,1.253906 0.76172,1.253906 0.48046,0 1.03125,-0.480469 1.53515,-1.277344 h 0.0234 c 0.082,0.972657 0.23437,1.277344 0.48047,1.277344 0.28125,0 0.64453,-0.257812 1.00781,-0.914062 z m -1.91016,-2.296875 c 0.35157,0 0.46875,0.785156 0.53907,1.664062 -0.49219,0.855469 -0.91407,1.183594 -1.19532,1.183594 -0.21093,0 -0.39843,-0.304687 -0.38672,-0.878906 0,-1.007813 0.53907,-1.96875 1.04297,-1.96875 z m 0,0"
           style="fill:#231f20;fill-opacity:1;fill-rule:nonzero;stroke:none" />
        <path
           id="path8"
           d="m 128.4086,-49.12535 v -0.246093 h -2.39062 v 0.246093 z m 0,0.914063 v -0.246094 h -2.39062 v 0.246094 z m 5.00391,-2.484375 c -0.75,0 -1.01954,0.890625 -1.01954,1.617187 0,0.796875 0.26954,1.617188 1.01954,1.617188 0.76171,0 1.01953,-0.890625 1.01953,-1.617188 0,-0.773437 -0.25782,-1.617187 -1.01953,-1.617187 z m 0,0.164062 c 0.44531,0 0.57421,0.738282 0.57421,1.453125 0,0.703125 -0.11718,1.453125 -0.57421,1.453125 -0.4336,0 -0.57422,-0.761718 -0.57422,-1.464843 0,-0.691407 0.11718,-1.441407 0.57422,-1.441407 z m 3.21679,3.070313 c 0.15235,0 0.28125,-0.117188 0.28125,-0.292969 0,-0.152344 -0.1289,-0.28125 -0.28125,-0.28125 -0.16406,0 -0.28125,0.128906 -0.28125,0.28125 0,0.175781 0.11719,0.292969 0.28125,0.292969 z m 3.48926,-3.175781 h -1.91016 c -0.0234,0.210937 -0.0469,0.46875 -0.0937,0.738281 h 0.14063 c 0.12891,-0.328125 0.15234,-0.375 0.48047,-0.375 h 1.08984 c -0.39844,0.867187 -0.96094,1.910156 -1.48828,2.753906 l 0.0352,0.05859 0.36328,-0.04687 c 0.48047,-1.03125 0.94922,-2.050781 1.41797,-3.070313 z m 2.36426,0.363281 h 1.16015 l 0.12891,-0.328125 -0.0234,-0.03516 h -1.42968 l -0.1875,1.523437 c 0.10546,-0.04687 0.30468,-0.09375 0.51562,-0.09375 0.53906,0 0.80859,0.316406 0.80859,0.75 0,0.375 -0.21093,0.738281 -0.63281,0.738281 -0.30469,0 -0.51562,-0.152343 -0.62109,-0.246093 -0.0469,-0.04687 -0.082,-0.03516 -0.12891,0 -0.0586,0.04687 -0.10547,0.105468 -0.10547,0.164062 -0.0117,0.05859 0.0117,0.09375 0.082,0.164063 0.0703,0.07031 0.28125,0.175781 0.51563,0.175781 0.25781,0 0.59766,-0.128906 0.86719,-0.351563 0.30468,-0.257812 0.44531,-0.539062 0.44531,-0.84375 0,-0.410156 -0.32813,-0.84375 -0.96094,-0.84375 -0.14062,0 -0.375,0.08203 -0.5625,0.152344 z M -11.255462,-68.675154 c -0.75,0 -1.019532,0.890625 -1.019532,1.617187 0,0.796875 0.269532,1.617188 1.019532,1.617188 0.761718,0 1.019531,-0.890625 1.019531,-1.617188 0,-0.773437 -0.257813,-1.617187 -1.019531,-1.617187 z m 0,0.164062 c 0.445312,0 0.574218,0.738281 0.574218,1.453125 0,0.703125 -0.117187,1.453125 -0.574218,1.453125 -0.433594,0 -0.574219,-0.761719 -0.574219,-1.464844 0,-0.691406 0.117187,-1.441406 0.574219,-1.441406 z m 3.2167964,3.070313 c 0.1523437,0 0.28125,-0.117188 0.28125,-0.292969 0,-0.152344 -0.1289063,-0.28125 -0.28125,-0.28125 -0.1640625,0 -0.28125,0.128906 -0.28125,0.28125 0,0.175781 0.1171875,0.292969 0.28125,0.292969 z m 2.0126953,-2.8125 h 1.1601562 l 0.1289063,-0.328125 -0.023437,-0.03516 h -1.4296875 l -0.1875,1.523438 c 0.1054687,-0.04687 0.3046875,-0.09375 0.515625,-0.09375 0.5390625,0 0.8085937,0.316406 0.8085937,0.75 0,0.375 -0.2109375,0.738281 -0.6328125,0.738281 -0.3046875,0 -0.515625,-0.152344 -0.6210937,-0.246094 -0.046875,-0.04687 -0.082031,-0.03516 -0.1289063,0 -0.058594,0.04687 -0.1054687,0.105469 -0.1054687,0.164063 -0.011719,0.05859 0.011719,0.09375 0.082031,0.164062 0.070312,0.07031 0.28125,0.175782 0.515625,0.175782 0.2578125,0 0.5976563,-0.128907 0.8671875,-0.351563 0.3046875,-0.257812 0.4453125,-0.539062 0.4453125,-0.84375 0,-0.410156 -0.328125,-0.84375 -0.9609375,-0.84375 -0.140625,0 -0.375,0.08203 -0.5625,0.152344 z M -92.37265,-1.0081622 v -0.2578125 h -2.097656 v 0.2578125 z m 4.253906,-4.3242187 c -0.07031,0.1171875 -0.117187,0.140625 -0.257812,0.140625 -0.398438,0 -0.878906,-0.011719 -1.21875,-0.011719 -0.527344,-0.011719 -0.75,0.234375 -0.878906,0.3867188 l 0.08203,0.1171875 c 0.152344,-0.1289063 0.339844,-0.1875 0.644531,-0.1875 0,0.5273437 -0.09375,1.40625 -0.398437,1.8515625 l 0.03516,0.09375 c 0.09375,0 0.1875,-0.023437 0.328125,-0.09375 0.04687,-0.058594 0.257812,-0.5273438 0.257812,-1.7460938 v -0.09375 c 0.210938,0 0.421875,0 0.703125,0 -0.02344,0.4335938 -0.04687,0.84375 -0.04687,1.3007813 0,0.5039062 0.175782,0.6328125 0.375,0.6328125 0.164063,0 0.351563,-0.1171875 0.457032,-0.28125 l -0.05859,-0.09375 c -0.07031,0.023437 -0.140625,0.046875 -0.210938,0.046875 -0.117187,0 -0.199218,-0.1171875 -0.199218,-0.46875 0,-0.3632813 0,-0.7617188 0.01172,-1.125 0.105469,0 0.316407,0 0.386719,-0.023437 0.04687,-0.070312 0.09375,-0.2226563 0.117188,-0.4101563 z m 0,0"
           style="fill:#231f20;fill-opacity:1;fill-rule:nonzero;stroke:none" />
      </g>
      <path
         id="path9"
         d="M 2.5787147,-1.1079042 V -1.3914979 H 0.27012094 v 0.2835937 z m 0,0"
         style="fill:#231f20;fill-opacity:1;fill-rule:nonzero;stroke:none"
         aria-label="–"
         transform="matrix(1.3333333,0,0,1.2121212,5.75312,167.41323)" />
      <path
         id="path10"
         d="M 2.0617181,-0.70249813 C 1.9093744,-0.38609188 1.8507806,-0.36265438 1.5812494,-0.36265438 H 0.64374938 L 1.3468744,-1.1126544 c 0.46875,-0.4921875 0.6679687,-0.7851562 0.6679687,-1.21875 0,-0.5273437 -0.4101562,-0.84375 -0.84375,-0.84375 -0.29296872,0 -0.52734372,0.1289063 -0.67968747,0.2929688 l -0.28125,0.4101562 0.10546875,0.09375 c 0.12890625,-0.1875 0.33984375,-0.46875 0.6796875,-0.46875 0.37500002,0 0.59765622,0.2460938 0.59765622,0.6679688 0,0.4335937 -0.3164062,0.84375 -0.63281247,1.21874997 -0.24609375,0.28125 -0.52734375,0.57421875 -0.80859375,0.84375 V 6.26875e-4 H 2.0265619 C 2.0851556,-0.22202938 2.1320306,-0.44468563 2.2023431,-0.65562313 Z M 186.4709,-7.3323809 c -0.0703,0.1171875 -0.11719,0.140625 -0.25781,0.140625 -0.39844,0 -0.87891,-0.011719 -1.21875,-0.011719 -0.52735,-0.011719 -0.75,0.234375 -0.87891,0.3867188 l 0.082,0.1171875 c 0.15234,-0.1289063 0.33984,-0.1875 0.64453,-0.1875 0,0.5273437 -0.0937,1.40625 -0.39844,1.8515625 l 0.0352,0.09375 c 0.0937,0 0.1875,-0.023437 0.32813,-0.09375 0.0469,-0.058594 0.25781,-0.5273438 0.25781,-1.7460938 v -0.09375 c 0.21094,0 0.42187,0 0.70312,0 -0.0234,0.4335938 -0.0469,0.84375 -0.0469,1.3007813 0,0.5039062 0.17578,0.6328125 0.375,0.6328125 0.16406,0 0.35156,-0.1171875 0.45703,-0.28125 l -0.0586,-0.09375 c -0.0703,0.023437 -0.14063,0.046875 -0.21094,0.046875 -0.11719,0 -0.19922,-0.1171875 -0.19922,-0.46875 0,-0.3632813 0,-0.7617188 0.0117,-1.125 0.10547,0 0.3164,0 0.38672,-0.023437 0.0469,-0.070312 0.0937,-0.2226563 0.11718,-0.4101563 z m 0,0"
         style="fill:#231f20;fill-opacity:1;fill-rule:nonzero;stroke:none"
         aria-label="2&#10;π"
         transform="matrix(1.3333333,0,0,1.3333333,5.89948,171.41323)" />
      <path
         id="path11"
         d="M 2.5794063,-1.1079042 V -1.3914979 H 0.2708125 v 0.2835937 z m 0,0"
         style="fill:#231f20;fill-opacity:1;fill-rule:nonzero;stroke:none"
         aria-label="–"
         transform="matrix(1.3333333,0,0,1.2121212,251.48267,167.41323)" />
      <path
         id="path12"
         d="M 2.0621797,-0.70249813 C 1.9098359,-0.38609188 1.8512422,-0.36265438 1.5817109,-0.36265438 H 0.64421094 L 1.3473359,-1.1126544 c 0.46875,-0.4921875 0.6679688,-0.7851562 0.6679688,-1.21875 0,-0.5273437 -0.4101563,-0.84375 -0.84375,-0.84375 -0.29296876,0 -0.52734376,0.1289063 -0.67968751,0.2929688 l -0.28125,0.4101562 0.10546875,0.09375 c 0.12890625,-0.1875 0.33984375,-0.46875 0.6796875,-0.46875 0.37499996,0 0.59765626,0.2460938 0.59765626,0.6679688 0,0.4335937 -0.3164063,0.84375 -0.63281251,1.21874997 -0.24609375,0.28125 -0.52734375,0.57421875 -0.80859375,0.84375 V 6.26875e-4 H 2.0270234 C 2.0856172,-0.22202938 2.1324922,-0.44468563 2.2028047,-0.65562313 Z M -139.7845,-3.0081622 v -0.2578125 h -2.09766 v 0.2578125 z m 4.25391,-4.3242187 c -0.0703,0.1171875 -0.11719,0.140625 -0.25782,0.140625 -0.39843,0 -0.8789,-0.011719 -1.21875,-0.011719 -0.52734,-0.011719 -0.75,0.234375 -0.8789,0.3867188 l 0.082,0.1171875 c 0.15234,-0.1289063 0.33984,-0.1875 0.64453,-0.1875 0,0.5273437 -0.0937,1.40625 -0.39844,1.8515625 l 0.0352,0.09375 c 0.0937,0 0.1875,-0.023437 0.32812,-0.09375 0.0469,-0.058594 0.25782,-0.5273438 0.25782,-1.7460938 v -0.09375 c 0.21093,0 0.42187,0 0.70312,0 -0.0234,0.4335938 -0.0469,0.84375 -0.0469,1.3007813 0,0.5039062 0.17578,0.6328125 0.375,0.6328125 0.16406,0 0.35156,-0.1171875 0.45703,-0.28125 l -0.0586,-0.09375 c -0.0703,0.023437 -0.14062,0.046875 -0.21093,0.046875 -0.11719,0 -0.19922,-0.1171875 -0.19922,-0.46875 0,-0.3632813 0,-0.7617188 0.0117,-1.125 0.10547,0 0.3164,0 0.38672,-0.023437 0.0469,-0.070312 0.0937,-0.2226563 0.11718,-0.4101563 z m 0,0"
         style="fill:#231f20;fill-opacity:1;fill-rule:nonzero;stroke:none"
         aria-label="2&#10;–&#10;π"
         transform="matrix(1.3333333,0,0,1.3333333,251.62933,171.41323)" />
      <path
         id="path13"
         d="M 2.5779047,-1.1079042 V -1.3914979 H 0.26931094 v 0.2835937 z m 0,0"
         style="fill:#231f20;fill-opacity:1;fill-rule:nonzero;stroke:none"
         aria-label="–"
         transform="matrix(1.3333333,0,0,1.2121212,67.8792,167.41323)" />
      <path
         id="path14"
         d="M 2.2865641,-0.88999813 V -1.1243731 H 1.8060953 V -3.1634356 H 1.6068766 c -0.515625,0.6796875 -1.03125004,1.4179687 -1.50000004,2.1328125 v 0.14062497 H 1.4076578 v 0.36328125 c 0,0.328125 -0.023437,0.3515625 -0.45703124,0.38671875 V 6.26875e-4 H 2.2279703 V -0.13999813 c -0.4101562,-0.0351563 -0.421875,-0.0585938 -0.421875,-0.38671875 V -0.88999813 Z M 1.4076578,-1.1243731 H 0.41156406 c 0.33984375,-0.5507813 0.65625004,-1.03125 0.98437504,-1.4765625 h 0.011719 z M 93.282658,-7.3323809 c -0.07031,0.1171875 -0.117188,0.140625 -0.257813,0.140625 -0.398437,0 -0.878906,-0.011719 -1.21875,-0.011719 -0.527343,-0.011719 -0.75,0.234375 -0.878906,0.3867188 l 0.08203,0.1171875 c 0.152344,-0.1289063 0.339844,-0.1875 0.644532,-0.1875 0,0.5273437 -0.09375,1.40625 -0.398438,1.8515625 l 0.03516,0.09375 c 0.09375,0 0.1875,-0.023437 0.328125,-0.09375 0.04687,-0.058594 0.257813,-0.5273438 0.257813,-1.7460938 v -0.09375 c 0.210937,0 0.421875,0 0.703125,0 -0.02344,0.4335938 -0.04687,0.84375 -0.04687,1.3007813 0,0.5039062 0.175781,0.6328125 0.375,0.6328125 0.164062,0 0.351562,-0.1171875 0.457031,-0.28125 l -0.05859,-0.09375 c -0.07031,0.023437 -0.140625,0.046875 -0.210937,0.046875 -0.117188,0 -0.199219,-0.1171875 -0.199219,-0.46875 0,-0.3632813 0,-0.7617188 0.01172,-1.125 0.105469,0 0.316406,0 0.386719,-0.023437 0.04687,-0.070312 0.09375,-0.2226563 0.117187,-0.4101563 z m 0,0"
         style="fill:#231f20;fill-opacity:1;fill-rule:nonzero;stroke:none"
         aria-label="4&#10;π"
         transform="matrix(1.3333333,0,0,1.3333333,68.025467,171.41323)" />
      <path
         id="path15"
         d="M 2.5786563,-1.1079042 V -1.3914979 H 0.2700625 v 0.2835937 z m 0,0"
         style="fill:#231f20;fill-opacity:1;fill-rule:nonzero;stroke:none"
         aria-label="–"
         transform="matrix(1.3333333,0,0,1.2121212,189.35867,167.41323)" />
      <path
         id="path16"
         d="M 2.2850859,-0.88999813 V -1.1243731 H 1.8046172 V -3.1634356 H 1.6053984 c -0.515625,0.6796875 -1.03124996,1.4179687 -1.49999996,2.1328125 v 0.14062497 H 1.4061797 v 0.36328125 c 0,0.328125 -0.023437,0.3515625 -0.45703126,0.38671875 V 6.26875e-4 H 2.2264922 V -0.13999813 c -0.4101563,-0.0351563 -0.421875,-0.0585938 -0.421875,-0.38671875 V -0.88999813 Z M 1.4061797,-1.1243731 H 0.41008594 c 0.33984375,-0.5507813 0.65624996,-1.03125 0.98437496,-1.4765625 h 0.011719 z m 0,0"
         style="fill:#231f20;fill-opacity:1;fill-rule:nonzero;stroke:none"
         aria-label="4"
         transform="matrix(1.3333333,0,0,1.3333333,189.504,171.41323)" />
      <path
         id="path17"
         d="m 34.125,157.488 0.5508,43.563 0.5898,41.871 1.1367,78.976 0.5665,37.207 0.5859,35.743 1.1367,67.238 0.5547,31.641 0.582,30.351 1.1524,57.051 2.2773,100.68 0.5664,22.648 0.586,21.703 1.1367,40.731 0.5508,19.101 0.5859,18.305 1.1484,34.398 0.5586,16.121 0.5821,15.461 1.1406,29.032 2.289,51.273 0.5508,11.535 0.586,11.082 1.1484,20.828 0.5859,9.813 0.5586,9.41 1.1446,17.69 0.5859,8.35 0.5508,8.03 1.1445,15.11 2.2852,26.96 0.5859,6.12 0.5547,5.9 1.1484,11.13 0.586,5.27 0.5508,5.1 1.1406,9.63 0.5859,4.54 0.5664,4.43 1.1367,8.35 2.2891,15.05 0.6172,3.75 0.6445,3.61 1.2305,6.86 0.6133,3.25 0.6172,3.13 1.2578,5.94 0.6172,2.82 0.6093,2.73 1.2305,5.21 2.4883,9.41 0.6172,2.17 0.6172,2.1 1.2304,4.01 2.4883,7.33 0.6133,1.7 0.6172,1.67 1.2578,3.13 2.4648,5.81 0.6133,1.34 0.6133,1.32 1.2617,2.52 2.457,4.63 0.6446,1.09 0.6133,1.04 1.2304,2.07 2.4919,3.75 0.614,0.9 0.617,0.85 1.238,1.67 2.492,3.1 0.614,0.73 0.617,0.71 1.23,1.38 2.488,2.58 1.168,1.11 1.137,1.09 2.32,2.04 0.586,0.47 0.586,0.5 1.137,0.91 2.32,1.72 0.586,0.44 0.582,0.42 1.153,0.79 2.304,1.49 4.629,2.69 0.594,0.3 0.586,0.32 1.141,0.59 2.316,1.13 0.582,0.27 0.586,0.3 1.145,0.49 2.312,1.01 0.586,0.25 0.586,0.24 1.137,0.44 2.32,0.88 4.629,1.61 0.551,0.17 0.597,0.22 1.137,0.34 2.262,0.67 4.535,1.26 0.551,0.15 0.597,0.14 1.11,0.27 2.289,0.56 4.535,1.02 1.117,0.24 1.141,0.23 2.289,0.44 4.535,0.85 1.109,0.18 1.149,0.21 2.258,0.37 4.539,0.67 4.914,0.71 4.933,0.62 0.614,0.05 0.617,0.09 1.23,0.15 7.375,0.8 2.461,0.23 2.492,0.23 4.918,0.46 9.848,0.77 0.559,0.06 0.578,0.03 1.152,0.09 2.277,0.14 4.61,0.32 0.586,0.03 0.55,0.03 1.172,0.09 2.285,0.12 4.598,0.25 0.582,0.04 0.567,0.06 1.136,0.06 2.313,0.11 4.609,0.24 9.16,0.4 0.614,0.03 0.644,0.04 1.231,0.06 2.492,0.09 4.988,0.2 0.617,0.03 0.633,0.03 1.242,0.02 7.469,0.27 1.23,0.06 1.262,0.03 2.488,0.08 14.938,0.44 h 0.613 l 0.617,0.03 1.204,0.03 2.461,0.07 4.867,0.11 9.773,0.24 h 0.617 l 0.614,0.02 h 1.23 l 2.441,0.06 4.887,0.12 9.793,0.17 h 1.137 l 1.117,0.03 2.281,0.03 4.575,0.09 9.101,0.14 h 1.149 l 1.14,0.04 2.285,0.03 4.539,0.06 9.145,0.12 0.613,0.02 h 1.848 l 2.457,0.03 14.863,0.18 h 0.61 l 0.617,0.03 h 1.226 l 2.492,0.03 4.922,0.05 9.899,0.09 h 2.316 l 2.293,0.03 4.621,0.03 9.227,0.09 h 1.152 l 1.164,0.03 h 2.321 l 4.593,0.03 9.227,0.08 h 2.262 l 2.285,0.03 4.504,0.03 9.054,0.06 h 4.543 l 4.508,0.03 9.055,0.06 h 2.469 l 2.425,0.04 4.922,0.01 9.821,0.03 h 0.617 l 0.613,0.04 h 3.687 l 4.891,0.02 9.852,0.04 h 1.136 l 1.137,0.02 h 6.867 l 9.164,0.07 18.317,0.06 h 4.98 l 4.946,0.02 29.789,0.09 h 9.761 l 29.274,0.09 h 9.07 l 9.082,0.02 18.199,0.04 h 9.879 l 9.836,0.03 19.746,0.03 h 9.207 l 9.196,0.02 h 23.406 l 4.98,0.03 h 19.946 l 9.972,0.03 h 43.739 l 4.566,0.03 h 71.664 l 4.625,0.03 h 93.523 l 0.61,-0.03 h 75.76 l 9.96,-0.03 h 29.3 l 9.74,-0.03 h 27.35 l 9.12,-0.03 h 19.73 l 19.78,-0.02 h 4.6 l 4.63,-0.03 h 9.2 l 18.45,-0.03 h 4.52 l 4.51,-0.04 h 9.05 l 18.08,-0.02 h 2.46 l 2.43,-0.03 h 4.92 l 9.82,-0.03 19.6,-0.03 h 2.28 l 2.32,-0.03 h 4.57 l 9.14,-0.04 h 4.57 l 4.6,-0.02 9.14,-0.02 h 4.95 l 4.98,-0.03 9.9,-0.03 h 2.49 l 2.49,-0.04 h 4.96 l 9.92,-0.05 h 4.63 l 4.63,-0.04 9.26,-0.02 h 1.14 l 1.17,-0.04 h 2.32 l 4.63,-0.03 9.26,-0.01 h 1.14 l 1.14,-0.04 h 2.26 l 13.62,-0.09 h 2.28 l 2.26,-0.03 13.62,-0.09 h 2.49 l 2.46,-0.03 14.77,-0.08 h 0.62 l 0.61,-0.03 h 1.23 l 2.46,-0.03 4.92,-0.03 9.88,-0.09 h 1.14 l 1.14,-0.03 h 2.32 l 4.57,-0.06 9.2,-0.08 h 1.17 l 1.14,-0.03 2.29,-0.03 4.6,-0.03 9.19,-0.12 h 1.26 l 1.23,-0.03 7.48,-0.09 9.96,-0.14 h 0.64 l 0.62,-0.04 h 1.23 l 2.49,-0.05 4.99,-0.06 9.98,-0.18 h 0.58 l 0.62,-0.03 h 1.23 l 2.43,-0.05 4.89,-0.09 9.79,-0.2 h 0.61 l 0.62,-0.03 1.23,-0.03 2.43,-0.06 4.89,-0.09 9.79,-0.27 h 0.58 l 0.56,-0.02 3.43,-0.1 4.57,-0.14 9.11,-0.26 0.59,-0.03 h 0.55 l 1.15,-0.06 2.28,-0.06 4.57,-0.17 9.11,-0.36 1.23,-0.05 1.26,-0.06 2.46,-0.08 4.96,-0.25 2.46,-0.11 2.49,-0.12 4.95,-0.26 2.46,-0.12 2.46,-0.14 4.95,-0.29 9.9,-0.68 0.59,-0.03 0.58,-0.06 1.16,-0.09 2.3,-0.18 4.6,-0.35 1.17,-0.12 1.15,-0.08 2.31,-0.21 4.63,-0.43 0.56,-0.07 1.75,-0.16 2.29,-0.25 4.63,-0.49 9.23,-1.17 0.58,-0.06 0.56,-0.09 1.14,-0.14 2.26,-0.36 4.54,-0.7 1.11,-0.18 1.14,-0.21 2.26,-0.38 4.54,-0.85 1.11,-0.23 1.15,-0.23 2.25,-0.47 4.54,-1.03 1.12,-0.29 1.14,-0.27 2.26,-0.58 4.54,-1.29 0.61,-0.17 0.62,-0.21 1.23,-0.37 2.46,-0.8 0.61,-0.2 0.59,-0.23 1.23,-0.45 2.46,-0.91 1.23,-0.47 1.23,-0.5 2.46,-1.05 4.92,-2.28 1.24,-0.65 1.2,-0.64 2.46,-1.38 0.61,-0.39 0.62,-0.35 1.23,-0.76 2.46,-1.61 0.61,-0.44 0.62,-0.41 1.23,-0.87 2.46,-1.9 4.89,-4.29 0.59,-0.53 0.59,-0.55 1.14,-1.17 2.28,-2.47 0.56,-0.63 0.59,-0.65 1.14,-1.38 2.28,-2.9 0.59,-0.79 0.56,-0.8 1.17,-1.61 2.28,-3.5 0.56,-0.91 0.59,-0.97 1.14,-1.97 2.28,-4.24 0.59,-1.12 0.56,-1.17 1.17,-2.4 2.28,-5.19 0.56,-1.37 0.59,-1.44 1.14,-2.95 2.28,-6.46 0.59,-1.72 0.56,-1.76 1.14,-3.73 0.58,-1.92 0.59,-2 1.14,-4.16 0.56,-2.2 0.59,-2.23 1.14,-4.71 2.28,-10.3 0.65,-3.14 0.65,-3.23 1.28,-6.85 0.62,-3.61 0.64,-3.75 1.29,-7.93 0.64,-4.2 0.65,-4.36 1.26,-9.22 2.58,-20.88 0.61,-5.76 0.65,-5.98 1.29,-12.77 0.64,-6.82 0.65,-7.1 1.25,-15.11 0.65,-8.08 0.64,-8.44 1.29,-18.03 0.62,-9.64 0.64,-10.05 1.29,-21.563 0.65,-11.535 0.64,-12.07 1.26,-25.864 0.65,-13.894 0.64,-14.524 1.29,-31.21 0.61,-16.727 0.65,-17.52 1.29,-37.668 0.64,-20.222 0.65,-21.211 1.26,-45.527 0.64,-24.461 0.65,-25.606 1.28,-55.051 0.62,-29.5 0.64,-30.937 1.29,-66.36 0.65,-35.535 0.64,-37.207 1.26,-79.687 0.65,-42.602 0.64,-44.527 0.65,-46.543 0.64,-48.641"
         style="fill:none;stroke:#3871c1;stroke-width:10;stroke-linecap:square;stroke-linejoin:miter;stroke-miterlimit:3.25;stroke-dasharray:none;stroke-opacity:1"
         transform="matrix(0.13333333,0,0,-0.13333333,0,175.25333)" />
      <path
         id="path18"
         d="m 34.125,157.488 0.5508,8.84 0.5898,8.793 1.1367,17.348 2.2891,33.89 4.5664,64.719 0.5664,7.793 0.586,7.77 1.1367,15.289 2.2851,29.883 4.5703,56.98 0.5508,6.887 0.586,6.797 1.1484,13.476 2.2891,26.277 4.5664,50.04 9.1445,90.761 0.6172,5.742 0.6445,5.657 1.2305,11.191 2.4883,21.824 4.9453,41.282 0.6172,4.98 0.6172,4.898 1.2304,9.696 2.4883,18.863 4.9531,35.711 0.6133,4.309 0.6133,4.222 1.2617,8.41 2.457,16.289 4.9802,30.907 9.91,55.453 1.168,5.976 1.137,5.856 2.32,11.437 4.629,21.762 0.586,2.641 0.582,2.597 1.153,5.133 2.304,10.02 4.629,19.043 1.18,4.562 1.141,4.52 2.316,8.758 4.625,16.69 9.258,30.36 0.551,1.73 0.597,1.73 1.137,3.39 2.262,6.66 4.535,12.71 0.551,1.52 0.597,1.53 1.11,3.02 2.289,5.85 4.535,11.25 1.117,2.71 1.141,2.66 2.289,5.21 4.535,9.96 9.055,18.25 0.613,1.17 1.848,3.43 2.453,4.46 4.933,8.52 9.836,15.53 1.235,1.81 1.226,1.8 2.492,3.48 4.918,6.68 9.848,12.28 0.559,0.68 0.578,0.66 1.152,1.32 2.277,2.61 4.61,4.98 9.191,9.25 0.582,0.57 0.567,0.52 1.136,1.08 2.313,2.12 4.609,4.07 9.16,7.58 0.614,0.51 0.644,0.46 1.231,0.97 2.492,1.87 4.988,3.64 9.961,6.7 0.617,0.42 0.613,0.38 1.262,0.79 2.488,1.55 4.977,2.97 9.961,5.5 1.23,0.64 1.204,0.64 2.461,1.27 4.867,2.4 9.773,4.51 2.461,1.05 2.441,1.06 4.887,2.02 9.793,3.81 0.551,0.21 0.586,0.2 1.117,0.42 2.281,0.81 4.575,1.61 9.101,3.02 0.598,0.18 0.551,0.17 1.14,0.38 2.285,0.71 4.539,1.37 9.145,2.61 0.613,0.14 1.848,0.54 2.457,0.64 4.949,1.28 9.914,2.44 1.227,0.29 1.226,0.26 2.492,0.59 4.922,1.12 9.899,2.07 0.594,0.12 0.55,0.12 1.172,0.23 2.293,0.44 4.621,0.91 9.227,1.7 0.594,0.12 0.558,0.08 1.164,0.21 2.321,0.41 4.593,0.77 9.227,1.49 0.586,0.11 1.676,0.27 2.285,0.33 4.504,0.69 9.054,1.29 0.567,0.06 0.586,0.09 1.105,0.14 2.285,0.33 4.508,0.58 9.055,1.18 0.613,0.05 0.625,0.09 1.231,0.15 2.425,0.29 4.922,0.59 9.821,1.07 19.66,2.03 0.55,0.06 0.586,0.06 1.137,0.12 6.867,0.61 9.164,0.82 18.317,1.5 0.644,0.06 0.614,0.05 1.23,0.09 2.492,0.17 4.946,0.38 9.929,0.71 19.86,1.29 1.23,0.06 1.242,0.08 7.289,0.45 9.754,0.55 19.52,1 1.105,0.06 3.43,0.17 13.617,0.61 18.199,0.77 2.457,0.12 2.461,0.08 4.961,0.21 9.836,0.35 19.746,0.67 h 0.559 l 0.582,0.03 1.152,0.03 2.309,0.09 4.605,0.12 9.196,0.3 h 0.586 l 0.55,0.02 1.18,0.03 2.277,0.06 13.801,0.35 0.649,0.03 0.613,0.03 1.262,0.03 17.425,0.4 h 0.645 l 0.613,0.03 1.262,0.04 2.488,0.03 4.981,0.11 9.972,0.21 h 0.614 l 0.617,0.03 h 1.23 l 2.426,0.06 4.922,0.09 9.785,0.17 h 0.613 l 0.618,0.03 h 1.203 l 2.461,0.06 4.886,0.06 9.789,0.14 0.582,0.03 h 0.555 l 1.149,0.03 16,0.21 h 1.136 l 1.141,0.02 2.289,0.04 4.566,0.02 9.145,0.13 h 2.457 l 2.488,0.02 4.953,0.06 h 1.239 l 1.23,0.03 h 2.492 l 4.946,0.06 h 2.46 l 2.493,0.03 14.847,0.09 h 1.18 l 1.141,0.03 h 2.316 l 4.625,0.02 h 2.309 l 2.32,0.03 h 5.777 l 1.137,0.03 h 8.113 l 1.145,0.03 h 14.859 l 1.137,0.03 h 18.691 l 0.575,-0.03 h 15.293 l 2.484,-0.03 h 4.91 l 4.923,-0.03 h 4.91 l 4.94,-0.03 h 1.23 l 1.23,-0.02 h 2.45 l 4.9,-0.03 h 1.17 l 1.15,-0.03 h 2.27 l 4.61,-0.04 h 1.14 l 1.14,-0.02 h 2.29 l 4.59,-0.03 0.58,-0.03 h 1.71 l 2.32,-0.03 4.57,-0.03 9.2,-0.08 h 1.23 l 1.27,-0.03 2.46,-0.03 4.97,-0.04 9.96,-0.11 0.61,-0.04 h 1.88 l 2.49,-0.04 4.95,-0.06 9.96,-0.16 h 1.23 l 1.19,-0.03 2.48,-0.03 4.86,-0.08 9.79,-0.15 h 0.58 l 0.61,-0.03 h 1.23 l 2.43,-0.06 4.9,-0.08 9.74,-0.18 0.59,-0.04 h 0.57 l 1.14,-0.02 2.29,-0.03 4.53,-0.12 9.12,-0.18 0.58,-0.02 h 0.56 l 3.42,-0.09 4.55,-0.09 9.12,-0.23 0.6,-0.03 h 0.63 l 1.22,-0.03 2.49,-0.06 4.92,-0.14 9.87,-0.26 19.78,-0.6 0.56,-0.03 0.58,-0.02 1.15,-0.03 2.31,-0.09 4.63,-0.15 9.2,-0.32 18.45,-0.67 1.12,-0.06 1.14,-0.03 2.26,-0.12 4.51,-0.17 9.05,-0.39 18.08,-0.84 2.46,-0.12 2.43,-0.11 4.92,-0.25 9.82,-0.52 19.6,-1.14 0.58,-0.03 0.56,-0.03 1.14,-0.09 2.32,-0.12 4.57,-0.29 9.14,-0.62 18.31,-1.31 0.61,-0.03 0.62,-0.06 1.26,-0.09 2.46,-0.17 4.98,-0.41 9.9,-0.82 0.62,-0.03 0.64,-0.06 1.23,-0.13 2.49,-0.19 4.96,-0.45 9.92,-0.94 0.56,-0.02 1.76,-0.18 16.2,-1.64 0.59,-0.08 0.55,-0.06 1.17,-0.12 2.32,-0.26 4.63,-0.5 9.26,-1.09 0.58,-0.09 0.56,-0.06 1.14,-0.14 2.26,-0.27 13.62,-1.76 0.59,-0.08 0.55,-0.09 1.14,-0.15 2.26,-0.31 4.54,-0.64 9.08,-1.36 0.65,-0.09 0.61,-0.09 1.23,-0.2 2.46,-0.39 4.93,-0.78 9.84,-1.67 0.62,-0.11 0.61,-0.1 1.23,-0.23 2.46,-0.44 4.92,-0.91 9.88,-1.9 0.55,-0.13 0.59,-0.1 1.14,-0.23 2.32,-0.51 4.57,-0.97 9.2,-2.04 0.58,-0.15 0.59,-0.12 1.14,-0.29 2.29,-0.53 4.6,-1.11 9.19,-2.38 0.62,-0.17 0.64,-0.18 1.23,-0.32 2.5,-0.67 4.98,-1.44 9.96,-2.99 0.64,-0.18 1.85,-0.62 2.49,-0.78 4.99,-1.67 9.98,-3.51 0.58,-0.24 0.62,-0.24 1.23,-0.44 2.43,-0.94 4.89,-1.92 9.79,-4.1 0.61,-0.3 1.85,-0.79 2.43,-1.11 4.89,-2.32 9.79,-4.89 0.58,-0.32 0.56,-0.3 3.43,-1.84 4.57,-2.58 9.11,-5.46 0.59,-0.37 0.55,-0.35 3.43,-2.19 4.57,-3.08 9.11,-6.56 1.23,-0.94 1.26,-0.94 2.46,-1.97 4.96,-4.01 9.9,-8.73 2.46,-2.34 2.46,-2.41 4.95,-4.98 9.9,-10.86 1.17,-1.35 1.16,-1.39 2.3,-2.78 4.6,-5.82 9.26,-12.6 0.56,-0.85 1.75,-2.55 2.29,-3.46 4.63,-7.27 9.23,-15.81 0.58,-1.03 0.56,-1.02 1.14,-2.12 2.26,-4.27 4.54,-8.93 1.11,-2.35 1.14,-2.34 2.26,-4.81 4.54,-10.08 0.56,-1.29 0.55,-1.31 1.15,-2.67 2.25,-5.42 4.54,-11.33 9.06,-24.92 0.61,-1.78 0.62,-1.81 1.23,-3.69 2.46,-7.56 4.89,-15.88 1.23,-4.16 1.23,-4.22 2.46,-8.645 4.92,-18.246 1.24,-4.75 1.2,-4.867 2.46,-9.93 4.92,-20.977 9.81,-46.691 0.59,-2.938 0.59,-2.953 1.14,-5.976 2.28,-12.282 4.57,-25.832 0.59,-3.351 0.56,-3.395 1.17,-6.824 2.28,-14.062 4.57,-29.528 0.59,-3.843 0.56,-3.868 1.17,-7.82 2.28,-16.051 4.57,-33.812 9.17,-74.766 0.65,-5.598 0.65,-5.652 1.28,-11.457 2.55,-23.582 5.13,-49.836 0.61,-6.504 0.65,-6.562 1.29,-13.27 2.54,-27.336 5.13,-57.742 0.65,-7.5 0.64,-7.59 1.26,-15.379 2.58,-31.613 5.1,-66.684 0.64,-8.699 0.65,-8.73 1.28,-17.75 2.55,-36.449 0.65,-9.282 0.64,-9.406 1.26,-19.012 0.65,-9.64 0.64,-9.731 0.65,-9.808 0.64,-9.903"
         style="fill:none;stroke:#da1259;stroke-width:10;stroke-linecap:square;stroke-linejoin:miter;stroke-miterlimit:3.25;stroke-dasharray:none;stroke-opacity:1"
         transform="matrix(0.13333333,0,0,-0.13333333,0,175.25333)" />
      <path
         id="path19"
         d="m 34.125,157.488 0.5508,2.953 0.5898,2.957 1.1367,5.864 2.2891,11.66 4.5664,22.969 9.1445,44.531 18.2852,83.762 39.6675,159.726 37.028,125.711 36.301,104.762 39.402,96.242 36.734,76.027 39.848,69.817 39.117,57.871 36.469,45.93 39.547,42.42 36.914,33.72 36.211,28.39 39.297,26.31 36.621,20.91 39.715,19.28 39.035,15.97 1.105,0.41 1.141,0.45 2.289,0.81 4.535,1.67 9.082,3.19 18.199,6.01 0.618,0.2 0.609,0.18 1.23,0.38 2.461,0.79 4.961,1.49 9.836,2.9 19.746,5.43 0.559,0.14 0.582,0.15 1.152,0.29 2.309,0.59 4.605,1.17 9.196,2.23 18.394,4.16 0.649,0.11 0.613,0.15 1.262,0.26 2.488,0.53 4.98,1 9.957,1.96 0.645,0.12 0.613,0.11 1.262,0.23 2.488,0.48 4.981,0.91 9.972,1.73 0.614,0.08 0.617,0.12 1.23,0.2 2.426,0.41 4.922,0.76 9.785,1.5 1.231,0.18 1.203,0.18 2.461,0.34 4.886,0.68 9.789,1.28 0.582,0.06 0.555,0.1 1.149,0.14 2.289,0.26 4.566,0.57 9.145,1.01 0.582,0.06 0.554,0.06 7.996,0.82 9.145,0.86 1.23,0.11 1.227,0.09 2.488,0.23 4.953,0.41 0.625,0.04 0.614,0.06 1.23,0.07 2.492,0.22 4.946,0.35 0.617,0.02 0.613,0.06 1.23,0.09 2.493,0.14 4.949,0.32 9.898,0.57 1.18,0.05 1.141,0.06 2.316,0.12 4.625,0.2 0.559,0.03 0.586,0.03 1.164,0.03 2.32,0.1 4.602,0.16 0.578,0.04 h 0.597 l 1.137,0.05 2.309,0.07 0.597,0.03 h 0.586 l 1.137,0.02 2.32,0.09 h 1.164 l 1.145,0.03 2.312,0.06 0.586,0.02 h 0.559 l 1.168,0.04 2.316,0.03 0.559,0.03 h 1.699 l 0.559,0.02 h 0.586 l 1.117,0.03 h 2.277 l 0.555,0.03 h 2.289 l 0.551,0.03 h 5.101 l 0.555,0.03 h 5.687 l 0.559,-0.03 h 3.965 l 1.133,-0.03 h 2.839 l 0.555,-0.03 h 1.699 l 0.586,-0.03 h 1.118 l 2.285,-0.02 0.613,-0.03 h 0.613 l 1.235,-0.03 2.421,-0.04 0.625,-0.02 h 0.606 l 3.711,-0.09 0.601,-0.03 h 0.625 l 1.235,-0.04 2.449,-0.07 4.923,-0.16 1.23,-0.06 1.23,-0.03 2.45,-0.11 4.94,-0.18 4.91,-0.23 4.9,-0.26 1.17,-0.06 3.42,-0.17 4.61,-0.29 0.55,-0.04 0.59,-0.03 1.14,-0.06 2.29,-0.17 4.59,-0.29 0.58,-0.06 0.57,-0.03 1.14,-0.09 2.32,-0.17 4.57,-0.35 9.2,-0.77 1.23,-0.11 1.27,-0.1 2.46,-0.23 4.97,-0.47 9.96,-1.03 0.61,-0.05 0.62,-0.09 1.26,-0.12 2.49,-0.29 4.95,-0.56 9.96,-1.23 0.61,-0.09 0.62,-0.06 1.19,-0.17 2.48,-0.32 4.86,-0.65 9.79,-1.41 0.58,-0.08 0.61,-0.09 1.23,-0.2 2.43,-0.36 4.9,-0.76 9.74,-1.61 0.59,-0.08 0.57,-0.12 1.14,-0.18 2.29,-0.41 4.53,-0.78 9.12,-1.71 18.23,-3.66 0.6,-0.12 0.63,-0.14 1.22,-0.27 2.49,-0.53 4.92,-1.07 9.87,-2.3 19.78,-4.91 0.56,-0.15 0.58,-0.14 1.15,-0.33 6.94,-1.85 9.2,-2.61 18.45,-5.54 36.16,-12.36 39.23,-15.94 36.62,-17.52 39.69,-22.37 37.04,-24.53 36.32,-28.04 39.44,-35.62 36.76,-39.03 39.88,-49.68 39.11,-57.741 36.5,-63.352 39.58,-80.972 36.95,-89.387 36.24,-102.887 39.28,-131.953 36.68,-145.781 0.65,-2.754 1.93,-8.348 2.55,-11.222 5.13,-22.825 10.22,-47.25 1.29,-6.039 1.26,-6.09 2.58,-12.308 5.1,-25.02 0.64,-3.152 0.65,-3.207 1.28,-6.352 2.55,-12.89 0.65,-3.231 0.64,-3.25 1.26,-6.527 1.29,-6.563 1.29,-6.621"
         style="fill:none;stroke:#2f8a3a;stroke-width:10;stroke-linecap:square;stroke-linejoin:miter;stroke-miterlimit:3.25;stroke-dasharray:none;stroke-opacity:1"
         transform="matrix(0.13333333,0,0,-0.13333333,0,175.25333)" />
      <path
         id="path20"
         d="m 34.125,127.488 v 30"
         style="fill:none;stroke:#231f20;stroke-width:5;stroke-linecap:butt;stroke-linejoin:miter;stroke-miterlimit:3.25;stroke-dasharray:none;stroke-opacity:1"
         transform="matrix(0.13333333,0,0,-0.13333333,0,175.25333)" />
      <path
         id="path21"
         d="m 500.063,127.488 v 30"
         style="fill:none;stroke:#231f20;stroke-width:5;stroke-linecap:butt;stroke-linejoin:miter;stroke-miterlimit:3.25;stroke-dasharray:none;stroke-opacity:1"
         transform="matrix(0.13333333,0,0,-0.13333333,0,175.25333)" />
      <path
         id="path22"
         d="m 966,127.488 v 30"
         style="fill:none;stroke:#231f20;stroke-width:5;stroke-linecap:butt;stroke-linejoin:miter;stroke-miterlimit:3.25;stroke-dasharray:none;stroke-opacity:1"
         transform="matrix(0.13333333,0,0,-0.13333333,0,175.25333)" />
      <path
         id="path23"
         d="m 1431.93,127.488 v 30"
         style="fill:none;stroke:#231f20;stroke-width:5;stroke-linecap:butt;stroke-linejoin:miter;stroke-miterlimit:3.25;stroke-dasharray:none;stroke-opacity:1"
         transform="matrix(0.13333333,0,0,-0.13333333,0,175.25333)" />
      <path
         id="path24"
         d="m 1897.9,127.488 v 30"
         style="fill:none;stroke:#231f20;stroke-width:5;stroke-linecap:butt;stroke-linejoin:miter;stroke-miterlimit:3.25;stroke-dasharray:none;stroke-opacity:1"
         transform="matrix(0.13333333,0,0,-0.13333333,0,175.25333)" />
      <path
         id="path25"
         d="M 34.125,157.488 H 1897.9"
         style="fill:none;stroke:#231f20;stroke-width:5;stroke-linecap:butt;stroke-linejoin:miter;stroke-miterlimit:3.25;stroke-dasharray:none;stroke-opacity:1"
         transform="matrix(0.13333333,0,0,-0.13333333,0,175.25333)" />
      <path
         id="path26"
         d="m 966,157.488 h 22.086"
         style="fill:none;stroke:#231f20;stroke-width:5;stroke-linecap:butt;stroke-linejoin:miter;stroke-miterlimit:3.25;stroke-dasharray:none;stroke-opacity:1"
         transform="matrix(0.13333333,0,0,-0.13333333,0,175.25333)" />
      <path
         id="path27"
         d="m 936,733.434 h 30.008"
         style="fill:none;stroke:#231f20;stroke-width:5;stroke-linecap:butt;stroke-linejoin:miter;stroke-miterlimit:3.25;stroke-dasharray:none;stroke-opacity:1"
         transform="matrix(0.13333333,0,0,-0.13333333,0,175.25333)" />
      <path
         id="path28"
         d="M 966,157.488 V 1309.38"
         style="fill:none;stroke:#231f20;stroke-width:5;stroke-linecap:butt;stroke-linejoin:miter;stroke-miterlimit:3.25;stroke-dasharray:none;stroke-opacity:1"
         transform="matrix(0.13333333,0,0,-0.13333333,0,175.25333)" />
      <path
         id="path29"
         d="m 2015.67,775.531 h 99.35"
         style="fill:none;stroke:#3871c1;stroke-width:10;stroke-linecap:square;stroke-linejoin:miter;stroke-miterlimit:3.25;stroke-dasharray:none;stroke-opacity:1"
         transform="matrix(0.13333333,0,0,-0.13333333,0,175.25333)" />
      <path
         id="path30"
         d="m 2015.67,655.547 h 99.35"
         style="fill:none;stroke:#da1259;stroke-width:10;stroke-linecap:square;stroke-linejoin:miter;stroke-miterlimit:3.25;stroke-dasharray:none;stroke-opacity:1"
         transform="matrix(0.13333333,0,0,-0.13333333,0,175.25333)" />
      <path
         id="path31"
         d="m 2015.67,535.531 h 99.35"
         style="fill:none;stroke:#2f8a3a;stroke-width:10;stroke-linecap:square;stroke-linejoin:miter;stroke-miterlimit:3.25;stroke-dasharray:none;stroke-opacity:1"
         transform="matrix(0.13333333,0,0,-0.13333333,0,175.25333)" />
    </g>
  </g>
</svg>
