<?xml version="1.0" encoding="UTF-8" standalone="no"?>
<!-- Created with Inkscape (http://www.inkscape.org/) -->

<svg
   version="1.1"
   id="svg1"
   width="215.42667"
   height="140.44"
   viewBox="0 0 215.42667 140.44"
   sodipodi:docname="pha09f44.eps"
   xmlns:inkscape="http://www.inkscape.org/namespaces/inkscape"
   xmlns:sodipodi="http://sodipodi.sourceforge.net/DTD/sodipodi-0.dtd"
   xmlns="http://www.w3.org/2000/svg"
   xmlns:svg="http://www.w3.org/2000/svg">
  <defs
     id="defs1" />
  <sodipodi:namedview
     id="namedview1"
     pagecolor="#ffffff"
     bordercolor="#000000"
     borderopacity="0.25"
     inkscape:showpageshadow="2"
     inkscape:pageopacity="0.0"
     inkscape:pagecheckerboard="0"
     inkscape:deskcolor="#d1d1d1">
    <inkscape:page
       x="0"
       y="0"
       inkscape:label="1"
       id="page1"
       width="215.42667"
       height="140.44"
       margin="0"
       bleed="0" />
  </sodipodi:namedview>
  <g
     id="g1"
     inkscape:groupmode="layer"
     inkscape:label="1">
    <g
       id="group-R5">
      <g
         id="g2"
         aria-label="ω&#10;o&#10;R(p = 0)TRT(p = 2)&#10;TT(p = 1)"
         transform="matrix(1.3333333,0,0,1.3333333,11.692187,9.8973333)">
        <path
           id="path2"
           d="m 4.3587897,-3.8429219 c 0.2929687,0.2578125 0.5039062,0.7148438 0.5039062,1.3828125 -0.011719,1.0078125 -0.3984375,2.05078127 -1.1367187,2.05078127 -0.3046875,0 -0.515625,-0.3046875 -0.4921875,-0.87890627 0.023437,-0.46875 0.234375,-1.359375 0.3515625,-1.7226562 l -0.058594,-0.035156 -0.6679687,0.140625 c -0.035156,0.28125 -0.09375,0.75 -0.1875,1.1367188 -0.1992188,0.85546872 -0.5625,1.31249997 -0.9492188,1.31249997 -0.28125,0 -0.5390625,-0.33984375 -0.5390625,-0.99609377 0,-1.0078125 0.46875,-1.921875 1.1601563,-2.4492187 l -0.140625,-0.1992188 c -1.0429688,0.5390625 -1.75781251,1.5585938 -1.75781251,2.765625 0,0.93750002 0.421875,1.44140627 0.93750001,1.44140627 0.3867187,0 0.9023437,-0.3984375 1.2304687,-0.890625 0.046875,0.50390625 0.328125,0.890625 0.7617188,0.890625 0.375,0 0.7382812,-0.22265625 1.0664062,-0.515625 0.5625,-0.52734375 0.9960938,-1.30078127 0.9960938,-2.21484377 0,-0.9023437 -0.3984375,-1.4179687 -0.6914063,-1.4179687 -0.1523437,0 -0.3164062,0.070312 -0.375,0.1289062 z m 0,0"
           style="fill:#231f20;fill-opacity:1;fill-rule:nonzero;stroke:none" />
        <path
           id="path3"
           d="m 6.7376959,-0.6964375 c -0.5507812,0 -1.3125,0.45703125 -1.3125,1.44140625 0,0.66796875 0.4921875,1.32421875 1.3125,1.32421875 0.5976563,0 1.3007813,-0.4570313 1.3007813,-1.4296875 0,-0.73828125 -0.5507813,-1.3359375 -1.3007813,-1.3359375 z m -0.058594,0.19921875 c 0.515625,0 0.8085937,0.57421875 0.8085937,1.27734375 0,0.8203125 -0.3164062,1.0898437 -0.6796875,1.0898437 -0.4921875,0 -0.8203125,-0.5625 -0.8203125,-1.31249995 0,-0.6796875 0.3164063,-1.0546875 0.6914063,-1.0546875 z m 0,0"
           style="fill:#231f20;fill-opacity:1;fill-rule:nonzero;stroke:none" />
        <path
           id="path4"
           d="m 59.647852,-0.15151563 c -0.222656,-0.0703125 -0.398437,-0.15234375 -0.609375,-0.43359375 -0.1875,-0.24609375 -0.351562,-0.53906252 -0.5625,-0.94921872 -0.199219,-0.3984375 -0.433594,-0.9492188 -0.539062,-1.1953125 0.726562,-0.2578125 1.394531,-0.8203125 1.394531,-1.7226563 0,-0.5390625 -0.222656,-0.9023437 -0.527344,-1.1132812 -0.316406,-0.2109375 -0.785156,-0.2695313 -1.277344,-0.2695313 h -1.957031 l -0.05859,0.234375 c 0.714844,0.070312 0.761719,0.09375 0.609375,0.84375 l -0.691406,3.609375 c -0.152344,0.79687502 -0.210937,0.83203127 -0.902344,0.90234377 l -0.04687,0.246093755 h 2.25 l 0.05859,-0.246093755 C 56.06192,-0.30385943 56.003326,-0.35073438 56.15567,-1.1476094 l 0.269531,-1.4179687 h 0.375 c 0.316406,0 0.433594,0.070312 0.585937,0.421875 0.1875,0.4570312 0.375,0.890625 0.609375,1.33593747 0.328125,0.59765625 0.632813,0.83203125 1.488282,0.87890625 h 0.09375 z m -3.175781,-2.69531247 0.421875,-2.2265625 c 0.04687,-0.234375 0.09375,-0.3398438 0.175781,-0.3984375 0.08203,-0.058594 0.222656,-0.09375 0.398438,-0.09375 0.65625,0 1.066406,0.3984375 1.066406,1.1835937 0,0.5625 -0.269531,1.03125 -0.679688,1.3125 -0.257812,0.1757813 -0.574218,0.2226563 -0.960937,0.2226563 z m 0,0"
           style="fill:#231f20;fill-opacity:1;fill-rule:nonzero;stroke:none" />
        <path
           id="path5"
           d="m 62.472071,1.3250469 c -0.890625,-0.76171878 -1.40625,-2.20312503 -1.40625,-3.75 0,-1.546875 0.515625,-3 1.40625,-3.75 l -0.152344,-0.2109375 c -1.324219,0.9023437 -1.910156,2.3320312 -1.910156,3.9492187 0,1.62890627 0.585937,3.08203127 1.910156,3.9609375 z m 0,0"
           style="fill:#231f20;fill-opacity:1;fill-rule:nonzero;stroke:none" />
        <path
           id="path6"
           d="m 65.586329,-4.6280781 -0.09375,-0.046875 c -0.210938,0.1171875 -0.492188,0.328125 -0.65625,0.5273437 l -0.105469,0.4101563 c -0.292969,0.1054687 -0.621094,0.2695312 -0.855469,0.4453125 l 0.05859,0.2226562 c 0.210938,-0.1054687 0.445313,-0.234375 0.726563,-0.328125 -0.328125,1.5585938 -0.667969,3.14062502 -1.007813,4.7109375 -0.128906,0.5625 -0.222656,0.6328125 -0.785156,0.7382813 l -0.03516,0.234375 2.074219,-0.1054688 0.02344,-0.234375 -0.210938,-0.023437 c -0.445307,-0.035157 -0.492182,-0.117188 -0.386713,-0.632813 l 0.246093,-1.26562498 c 0.175782,0.0703125 0.386719,0.08203125 0.539063,0.08203125 0.574219,-0.140625 1.21875,-0.5390625 1.664062,-1.04296875 0.515625,-0.58593752 0.773438,-1.26562502 0.773438,-1.86328122 0,-0.796875 -0.375,-1.2421875 -1.300781,-1.2421875 -0.246094,0 -0.585938,0.035156 -0.832032,0.1054687 z m -0.246094,1.0429687 c 0.164063,-0.046875 0.363281,-0.070312 0.515625,-0.070312 0.515625,0 0.9375,0.1992188 0.9375,0.9960938 0,1.1601562 -0.867187,2.36718747 -1.511719,2.36718747 -0.210937,0 -0.457031,-0.1640625 -0.550781,-0.3046875 z m 0,0"
           style="fill:#231f20;fill-opacity:1;fill-rule:nonzero;stroke:none" />
        <path
           id="path7"
           d="m 74.603907,-2.8937031 v -0.4453125 h -4.289063 v 0.4453125 z m 0,1.6523437 v -0.4453125 h -4.289063 v 0.4453125 z m 4.661133,-4.4765625 c -1.347657,0 -1.839844,1.6054688 -1.839844,2.9179688 0,1.4179687 0.480469,2.90624997 1.839844,2.90624997 1.359375,0 1.828125,-1.59374997 1.828125,-2.91796877 0,-1.3828125 -0.46875,-2.90625 -1.828125,-2.90625 z m 0,0.3046875 c 0.808593,0 1.03125,1.3242188 1.03125,2.6015625 0,1.265625 -0.222657,2.61328127 -1.03125,2.61328127 -0.773438,0 -1.042969,-1.35937497 -1.042969,-2.61328127 0,-1.2539062 0.222656,-2.6015625 1.042969,-2.6015625 z m 2.575195,-0.7617187 c 0.890625,0.7382812 1.417969,2.203125 1.417969,3.75 0,1.54687497 -0.503906,2.98828122 -1.417969,3.75 l 0.164063,0.1992187 c 1.347656,-0.91406248 1.898437,-2.33203123 1.898437,-3.9492187 0,-1.6289063 -0.550781,-3.0585938 -1.898437,-3.9609375 z m 0,0"
           style="fill:#231f20;fill-opacity:1;fill-rule:nonzero;stroke:none" />
        <path
           id="path8"
           d="m 113.25234,-6.0694844 c -0.16406,0.1757813 -0.23437,0.234375 -0.46875,0.234375 h -3.38671 c -0.2461,0 -0.33985,-0.023437 -0.44532,-0.234375 h -0.1875 c -0.10547,0.5039063 -0.25781,1.078125 -0.42187,1.6054688 h 0.26953 c 0.15234,-0.3632813 0.30469,-0.6328125 0.44531,-0.8085938 0.16406,-0.1992187 0.32813,-0.2695312 1.10156,-0.2695312 h 0.45704 l -0.85547,4.4648437 c -0.12891,0.71484377 -0.1875,0.78515627 -0.94922,0.83203127 l -0.0586,0.246093755 h 2.44922 l 0.0586,-0.246093755 c -0.8086,-0.046875 -0.87891,-0.10546875 -0.73828,-0.83203127 l 0.83203,-4.4648437 h 0.53906 c 0.70312,0 0.89062,0.058594 0.97266,0.28125 0.082,0.1875 0.10546,0.4570312 0.10546,0.796875 l 0.26954,-0.023437 c 0.0586,-0.4921875 0.1289,-1.171875 0.21093,-1.5820313 z m 4.96875,5.91796877 c -0.22265,-0.0703125 -0.39843,-0.15234375 -0.60937,-0.43359375 -0.1875,-0.24609375 -0.35156,-0.53906252 -0.5625,-0.94921872 -0.19922,-0.3984375 -0.43359,-0.9492188 -0.53906,-1.1953125 0.72656,-0.2578125 1.39453,-0.8203125 1.39453,-1.7226563 0,-0.5390625 -0.22266,-0.9023437 -0.52735,-1.1132812 -0.3164,-0.2109375 -0.78515,-0.2695313 -1.27734,-0.2695313 h -1.95703 l -0.0586,0.234375 c 0.71484,0.070312 0.76171,0.09375 0.60937,0.84375 l -0.69141,3.609375 C 113.85,-0.35073438 113.79141,-0.31557813 113.1,-0.24526563 l -0.0469,0.246093755 h 2.25 l 0.0586,-0.246093755 c -0.72656,-0.0585938 -0.78516,-0.10546875 -0.63281,-0.90234377 l 0.26953,-1.4179687 h 0.375 c 0.3164,0 0.43359,0.070312 0.58594,0.421875 0.1875,0.4570312 0.375,0.890625 0.60937,1.33593747 0.32813,0.59765625 0.63281,0.83203125 1.48828,0.87890625 h 0.0937 z m -3.17578,-2.69531247 0.42188,-2.2265625 c 0.0469,-0.234375 0.0937,-0.3398438 0.17578,-0.3984375 0.082,-0.058594 0.22266,-0.09375 0.39844,-0.09375 0.65625,0 1.0664,0.3984375 1.0664,1.1835937 0,0.5625 -0.26953,1.03125 -0.67968,1.3125 -0.25782,0.1757813 -0.57422,0.2226563 -0.96094,0.2226563 z m 9.02344,-3.2226563 c -0.16406,0.1757813 -0.23437,0.234375 -0.46875,0.234375 h -3.38672 c -0.24609,0 -0.33984,-0.023437 -0.44531,-0.234375 h -0.1875 c -0.10547,0.5039063 -0.25781,1.078125 -0.42188,1.6054688 h 0.26954 c 0.15234,-0.3632813 0.30468,-0.6328125 0.44531,-0.8085938 0.16406,-0.1992187 0.32812,-0.2695312 1.10156,-0.2695312 h 0.45703 l -0.85547,4.4648437 c -0.1289,0.71484377 -0.1875,0.78515627 -0.94922,0.83203127 l -0.0586,0.246093755 h 2.44922 l 0.0586,-0.246093755 c -0.80859,-0.046875 -0.8789,-0.10546875 -0.73828,-0.83203127 l 0.83203,-4.4648437 h 0.53907 c 0.70312,0 0.89062,0.058594 0.97265,0.28125 0.082,0.1875 0.10547,0.4570312 0.10547,0.796875 l 0.26953,-0.023437 c 0.0586,-0.4921875 0.12891,-1.171875 0.21094,-1.5820313 z m 0,0"
           style="fill:#231f20;fill-opacity:1;fill-rule:nonzero;stroke:none" />
        <path
           id="path9"
           d="m 126.47402,1.3250469 c -0.89062,-0.76171878 -1.40625,-2.20312503 -1.40625,-3.75 0,-1.546875 0.51563,-3 1.40625,-3.75 l -0.15234,-0.2109375 c -1.32422,0.9023437 -1.91016,2.3320312 -1.91016,3.9492187 0,1.62890627 0.58594,3.08203127 1.91016,3.9609375 z m 0,0"
           style="fill:#231f20;fill-opacity:1;fill-rule:nonzero;stroke:none" />
        <path
           id="path10"
           d="m 129.76699,-4.6280781 -0.0937,-0.046875 c -0.21093,0.1171875 -0.49218,0.328125 -0.65625,0.5273437 l -0.10547,0.4101563 c -0.29296,0.1054687 -0.62109,0.2695312 -0.85546,0.4453125 l 0.0586,0.2226562 c 0.21094,-0.1054687 0.44531,-0.234375 0.72656,-0.328125 -0.32812,1.5585938 -0.66797,3.14062502 -1.00781,4.7109375 -0.12891,0.5625 -0.22266,0.6328125 -0.78516,0.7382813 l -0.0352,0.234375 2.07422,-0.1054688 0.0234,-0.234375 -0.21093,-0.023437 c -0.44532,-0.035156 -0.49219,-0.1171875 -0.38672,-0.6328125 l 0.24609,-1.26562498 c 0.17578,0.0703125 0.38672,0.08203125 0.53906,0.08203125 0.57422,-0.140625 1.21875,-0.5390625 1.66407,-1.04296875 0.51562,-0.58593752 0.77343,-1.26562502 0.77343,-1.86328122 0,-0.796875 -0.375,-1.2421875 -1.30078,-1.2421875 -0.24609,0 -0.58594,0.035156 -0.83203,0.1054687 z m -0.24609,1.0429687 c 0.16406,-0.046875 0.36328,-0.070312 0.51562,-0.070312 0.51563,0 0.9375,0.1992188 0.9375,0.9960938 0,1.1601562 -0.86718,2.36718747 -1.51171,2.36718747 -0.21094,0 -0.45704,-0.1640625 -0.55079,-0.3046875 z m 0,0"
           style="fill:#231f20;fill-opacity:1;fill-rule:nonzero;stroke:none" />
        <path
           id="path11"
           d="m 138.7875,-2.8937031 v -0.4453125 h -4.28906 v 0.4453125 z m 0,1.6523437 v -0.4453125 h -4.28906 v 0.4453125 z m 6.20801,-0.023437 c -0.26953,0.57421877 -0.38672,0.60937502 -0.86719,0.60937502 h -1.6875 l 1.27734,-1.33593752 c 0.83204,-0.890625 1.19532,-1.4179687 1.19532,-2.203125 0,-0.9492187 -0.72657,-1.5234375 -1.51172,-1.5234375 -0.52735,0 -0.94922,0.234375 -1.21875,0.5390625 l -0.51563,0.7265625 0.19922,0.1757813 c 0.23438,-0.3515625 0.60938,-0.8320313 1.23047,-0.8320313 0.65625,0 1.05469,0.4335938 1.05469,1.1953125 0,0.7734375 -0.5625,1.5117188 -1.125,2.1796875 -0.44531,0.515625 -0.94922,1.03125002 -1.45313,1.52343752 V 8.28125e-4 h 3.36328 c 0.10547,-0.410156255 0.19922,-0.796875005 0.31641,-1.183593725 z m 1.02539,-4.9101562 c 0.89062,0.7382812 1.41797,2.203125 1.41797,3.75 0,1.54687497 -0.50391,2.98828122 -1.41797,3.75 l 0.16406,0.1992187 c 1.34766,-0.91406248 1.89844,-2.33203123 1.89844,-3.9492187 0,-1.6289063 -0.55078,-3.0585938 -1.89844,-3.9609375 z m 0,0"
           style="fill:#231f20;fill-opacity:1;fill-rule:nonzero;stroke:none" />
        <path
           id="path12"
           d="m 85.947657,88.594578 c -0.164063,0.175781 -0.234375,0.234375 -0.46875,0.234375 h -3.386719 c -0.246094,0 -0.339844,-0.02344 -0.445312,-0.234375 h -0.1875 c -0.105469,0.503906 -0.257813,1.078125 -0.421875,1.605469 h 0.269531 c 0.152344,-0.363281 0.304687,-0.632813 0.445312,-0.808594 0.164063,-0.199219 0.328125,-0.269531 1.101563,-0.269531 h 0.457031 l -0.855469,4.464844 c -0.128906,0.714843 -0.1875,0.785156 -0.949218,0.832031 l -0.05859,0.246094 h 2.449219 l 0.05859,-0.246094 c -0.808593,-0.04687 -0.878906,-0.105469 -0.738281,-0.832031 l 0.832031,-4.464844 h 0.539063 c 0.703125,0 0.890625,0.05859 0.972656,0.28125 0.08203,0.1875 0.105469,0.457031 0.105469,0.796875 l 0.269531,-0.02344 c 0.05859,-0.492187 0.128906,-1.171875 0.210938,-1.582031 z m 5.425781,0 c -0.164062,0.175781 -0.234375,0.234375 -0.46875,0.234375 h -3.386719 c -0.246093,0 -0.339843,-0.02344 -0.445312,-0.234375 h -0.1875 c -0.105469,0.503906 -0.257813,1.078125 -0.421875,1.605469 h 0.269531 c 0.152344,-0.363281 0.304688,-0.632813 0.445313,-0.808594 0.164062,-0.199219 0.328125,-0.269531 1.101562,-0.269531 h 0.457031 l -0.855468,4.464844 c -0.128907,0.714843 -0.1875,0.785156 -0.949219,0.832031 l -0.05859,0.246094 h 2.449219 l 0.05859,-0.246094 c -0.808594,-0.04687 -0.878907,-0.105469 -0.738282,-0.832031 l 0.832032,-4.464844 h 0.539062 c 0.703125,0 0.890625,0.05859 0.972656,0.28125 0.08203,0.1875 0.105469,0.457031 0.105469,0.796875 l 0.269531,-0.02344 c 0.05859,-0.492187 0.128907,-1.171875 0.210938,-1.582031 z m 0,0"
           style="fill:#231f20;fill-opacity:1;fill-rule:nonzero;stroke:none" />
        <path
           id="path13"
           d="m 93.778712,95.989109 c -0.890625,-0.761718 -1.40625,-2.203125 -1.40625,-3.75 0,-1.546875 0.515625,-3 1.40625,-3.75 l -0.152344,-0.210937 c -1.324219,0.902344 -1.910156,2.332031 -1.910156,3.949219 0,1.628906 0.585937,3.082031 1.910156,3.960937 z m 0,0"
           style="fill:#231f20;fill-opacity:1;fill-rule:nonzero;stroke:none" />
        <path
           id="path14"
           d="m 97.07168,90.035984 -0.09375,-0.04687 c -0.210937,0.117188 -0.492187,0.328125 -0.65625,0.527344 l -0.105468,0.410156 c -0.292969,0.105469 -0.621094,0.269532 -0.855469,0.445313 l 0.05859,0.222656 c 0.210937,-0.105469 0.445312,-0.234375 0.726562,-0.328125 -0.328125,1.558594 -0.667969,3.140625 -1.007812,4.710938 -0.128907,0.5625 -0.222657,0.632812 -0.785157,0.738281 l -0.03516,0.234375 2.074219,-0.105469 0.02344,-0.234375 -0.210937,-0.02344 C 95.759175,96.551608 95.7123,96.46958 95.817769,95.953955 l 0.246094,-1.265625 c 0.175781,0.07031 0.386719,0.08203 0.539062,0.08203 0.574219,-0.140625 1.21875,-0.539062 1.664063,-1.042968 0.515625,-0.585938 0.773437,-1.265625 0.773437,-1.863282 0,-0.796875 -0.375,-1.242187 -1.300781,-1.242187 -0.246094,0 -0.585937,0.03516 -0.832031,0.105469 z m -0.246093,1.042969 c 0.164062,-0.04687 0.363281,-0.07031 0.515625,-0.07031 0.515625,0 0.9375,0.199218 0.9375,0.996093 0,1.160157 -0.867188,2.367188 -1.511719,2.367188 -0.210938,0 -0.457031,-0.164063 -0.550781,-0.304688 z m 0,0"
           style="fill:#231f20;fill-opacity:1;fill-rule:nonzero;stroke:none" />
        <path
           id="path15"
           d="m 106.09219,91.770359 v -0.445312 h -4.28906 v 0.445312 z m 0,1.652344 v -0.445312 h -4.28906 v 0.445312 z m 5.96191,1.242188 v -0.246094 c -0.82031,-0.05859 -0.8789,-0.128906 -0.8789,-0.785156 v -4.6875 c -0.49219,0.199218 -1.01954,0.375 -1.59375,0.46875 v 0.210937 l 0.43359,0.01172 c 0.38672,0.02344 0.42187,0.07031 0.42187,0.539062 v 3.457032 c 0,0.65625 -0.0352,0.726562 -0.85546,0.785156 v 0.246094 z m 1.27149,-6.175782 c 0.89062,0.738282 1.41797,2.203125 1.41797,3.75 0,1.546875 -0.50391,2.988282 -1.41797,3.75 l 0.16406,0.199219 c 1.34766,-0.914062 1.89844,-2.332031 1.89844,-3.949219 0,-1.628906 -0.55078,-3.058593 -1.89844,-3.960937 z m 0,0"
           style="fill:#231f20;fill-opacity:1;fill-rule:nonzero;stroke:none" />
      </g>
      <path
         id="path16"
         d="M 0,730.699 H 1615.71"
         style="fill:none;stroke:#231f20;stroke-width:5;stroke-linecap:butt;stroke-linejoin:miter;stroke-miterlimit:10;stroke-dasharray:none;stroke-opacity:1"
         transform="matrix(0.13333333,0,0,-0.13333333,0,140.44)" />
      <path
         id="path17"
         d="M 0,335.328 H 1615.71"
         style="fill:none;stroke:#231f20;stroke-width:5;stroke-linecap:butt;stroke-linejoin:miter;stroke-miterlimit:10;stroke-dasharray:none;stroke-opacity:1"
         transform="matrix(0.13333333,0,0,-0.13333333,0,140.44)" />
      <path
         id="path18"
         d="M 55.0977,971.27 320.152,730.699"
         style="fill:none;stroke:#231f20;stroke-width:7.5;stroke-linecap:butt;stroke-linejoin:miter;stroke-miterlimit:10;stroke-dasharray:none;stroke-opacity:1"
         transform="matrix(0.13333333,0,0,-0.13333333,0,140.44)" />
      <path
         id="path19"
         d="m 63.0703,964.031 24.2695,7.176 -0.2226,0.852 -35.5117,13.328 c -10.9063,6.254 -21.8164,12.508 -32.7266,18.753 7.2774,-10.249 14.5547,-20.503 21.8359,-30.761 l 16.6875,-34.059 0.7969,-0.218 4.8711,24.929"
         style="fill:#231f20;fill-opacity:1;fill-rule:nonzero;stroke:none"
         transform="matrix(0.13333333,0,0,-0.13333333,0,140.44)" />
      <path
         id="path20"
         d="M 587.094,969.164 320.152,730.699"
         style="fill:none;stroke:#231f20;stroke-width:7.5;stroke-linecap:butt;stroke-linejoin:miter;stroke-miterlimit:10;stroke-dasharray:none;stroke-opacity:1"
         transform="matrix(0.13333333,0,0,-0.13333333,0,140.44)" />
      <path
         id="path21"
         d="m 579.063,961.992 4.597,-24.883 0.875,0.125 16.965,33.926 c 7.355,10.195 14.715,20.391 22.074,30.59 -10.957,-6.164 -21.918,-12.332 -32.875,-18.5 l -35.617,-13.039 -0.309,-0.77 24.29,-7.449"
         style="fill:#231f20;fill-opacity:1;fill-rule:nonzero;stroke:none"
         transform="matrix(0.13333333,0,0,-0.13333333,0,140.44)" />
      <path
         id="path22"
         d="m 582.832,335.824 -5.535,8.324"
         style="fill:none;stroke:#231f20;stroke-width:5;stroke-linecap:butt;stroke-linejoin:miter;stroke-miterlimit:10;stroke-dasharray:none;stroke-opacity:1"
         transform="matrix(0.13333333,0,0,-0.13333333,0,140.44)" />
      <path
         id="path23"
         d="M 566.352,360.594 331.16,714.148"
         style="fill:none;stroke:#231f20;stroke-width:5;stroke-linecap:butt;stroke-linejoin:miter;stroke-miterlimit:10;stroke-dasharray:19.7506, 19.7506;stroke-dashoffset:0;stroke-opacity:1"
         transform="matrix(0.13333333,0,0,-0.13333333,0,140.44)" />
      <path
         id="path24"
         d="m 325.688,722.375 -5.536,8.324"
         style="fill:none;stroke:#231f20;stroke-width:5;stroke-linecap:butt;stroke-linejoin:miter;stroke-miterlimit:10;stroke-dasharray:none;stroke-opacity:1"
         transform="matrix(0.13333333,0,0,-0.13333333,0,140.44)" />
      <path
         id="path25"
         d="M 1115.25,970.063 850.953,729.922"
         style="fill:none;stroke:#231f20;stroke-width:7.5;stroke-linecap:butt;stroke-linejoin:miter;stroke-miterlimit:10;stroke-dasharray:none;stroke-opacity:1"
         transform="matrix(0.13333333,0,0,-0.13333333,0,140.44)" />
      <path
         id="path26"
         d="m 1107.29,962.816 4.8,-24.839 0.87,0.132 16.68,34.067 c 7.27,10.262 14.54,20.519 21.82,30.774 -10.91,-6.255 -21.82,-12.516 -32.73,-18.77 l -35.5,-13.344 -0.3,-0.77 24.36,-7.25"
         style="fill:#231f20;fill-opacity:1;fill-rule:nonzero;stroke:none"
         transform="matrix(0.13333333,0,0,-0.13333333,0,140.44)" />
      <path
         id="path27"
         d="m 582.832,335.824 5.625,8.266"
         style="fill:none;stroke:#231f20;stroke-width:5;stroke-linecap:butt;stroke-linejoin:miter;stroke-miterlimit:10;stroke-dasharray:none;stroke-opacity:1"
         transform="matrix(0.13333333,0,0,-0.13333333,0,140.44)" />
      <path
         id="path28"
         d="M 599.625,360.508 839.742,713.445"
         style="fill:none;stroke:#231f20;stroke-width:5;stroke-linecap:butt;stroke-linejoin:miter;stroke-miterlimit:10;stroke-dasharray:19.8546, 19.8546;stroke-dashoffset:0;stroke-opacity:1"
         transform="matrix(0.13333333,0,0,-0.13333333,0,140.44)" />
      <path
         id="path29"
         d="m 845.328,721.656 5.625,8.266"
         style="fill:none;stroke:#231f20;stroke-width:5;stroke-linecap:butt;stroke-linejoin:miter;stroke-miterlimit:10;stroke-dasharray:none;stroke-opacity:1"
         transform="matrix(0.13333333,0,0,-0.13333333,0,140.44)" />
      <path
         id="path30"
         d="M 847.953,93.625 582.832,335.824"
         style="fill:none;stroke:#231f20;stroke-width:7.5;stroke-linecap:butt;stroke-linejoin:miter;stroke-miterlimit:10;stroke-dasharray:none;stroke-opacity:1"
         transform="matrix(0.13333333,0,0,-0.13333333,0,140.44)" />
      <path
         id="path31"
         d="m 840.004,100.883 -24.289,-7.09 0.215,-0.8594 35.465,-13.4375 c 10.89,-6.2891 21.781,-12.5781 32.671,-18.8672 -7.246,10.2774 -14.492,20.5586 -21.73,30.8359 l -16.582,34.1092 -0.797,0.227 -4.953,-24.918"
         style="fill:#231f20;fill-opacity:1;fill-rule:nonzero;stroke:none"
         transform="matrix(0.13333333,0,0,-0.13333333,0,140.44)" />
      <path
         id="path32"
         d="m 337.652,730.699 c 0,-9.664 -7.839,-17.5 -17.5,-17.5 -9.664,0 -17.5,7.836 -17.5,17.5 0,9.66 7.836,17.5 17.5,17.5 9.661,0 17.5,-7.84 17.5,-17.5"
         style="fill:#231f20;fill-opacity:1;fill-rule:nonzero;stroke:none"
         transform="matrix(0.13333333,0,0,-0.13333333,0,140.44)" />
      <path
         id="path33"
         d="m 868.453,730.699 c 0,-9.664 -7.84,-17.5 -17.5,-17.5 -9.664,0 -17.5,7.836 -17.5,17.5 0,9.66 7.836,17.5 17.5,17.5 9.66,0 17.5,-7.84 17.5,-17.5"
         style="fill:#231f20;fill-opacity:1;fill-rule:nonzero;stroke:none"
         transform="matrix(0.13333333,0,0,-0.13333333,0,140.44)" />
      <path
         id="path34"
         d="m 600.332,335.824 c 0,-9.66 -7.836,-17.5 -17.5,-17.5 -9.664,0 -17.5,7.84 -17.5,17.5 0,9.664 7.836,17.5 17.5,17.5 9.664,0 17.5,-7.836 17.5,-17.5"
         style="fill:#231f20;fill-opacity:1;fill-rule:nonzero;stroke:none"
         transform="matrix(0.13333333,0,0,-0.13333333,0,140.44)" />
    </g>
  </g>
</svg>
