<?xml version="1.0" encoding="UTF-8" standalone="no"?>
<!-- Created with Inkscape (http://www.inkscape.org/) -->

<svg
   version="1.1"
   id="svg1"
   width="347.12"
   height="167.75999"
   viewBox="0 0 347.12 167.75999"
   sodipodi:docname="pha09f05.eps"
   xmlns:inkscape="http://www.inkscape.org/namespaces/inkscape"
   xmlns:sodipodi="http://sodipodi.sourceforge.net/DTD/sodipodi-0.dtd"
   xmlns="http://www.w3.org/2000/svg"
   xmlns:svg="http://www.w3.org/2000/svg">
  <defs
     id="defs1" />
  <sodipodi:namedview
     id="namedview1"
     pagecolor="#ffffff"
     bordercolor="#000000"
     borderopacity="0.25"
     inkscape:showpageshadow="2"
     inkscape:pageopacity="0.0"
     inkscape:pagecheckerboard="0"
     inkscape:deskcolor="#d1d1d1">
    <inkscape:page
       x="0"
       y="0"
       inkscape:label="1"
       id="page1"
       width="347.12"
       height="167.75999"
       margin="0"
       bleed="0" />
  </sodipodi:namedview>
  <g
     id="g1"
     inkscape:groupmode="layer"
     inkscape:label="1">
    <g
       id="group-R5">
      <path
         id="path2"
         d="m 155.176,1203.67 22.043,-4.27 63.715,-11.23 71.207,-9.08 80.121,-5.2 90.789,-6.2 103.773,-8.64 119.731,-6.09 139.672,-2.75 165.073,-3.87 198.09,-5.9 242.11,-3.06 302.62,-0.2 23.51,-0.23"
         style="fill:none;stroke:#3871c1;stroke-width:10;stroke-linecap:butt;stroke-linejoin:miter;stroke-miterlimit:3.25;stroke-dasharray:none;stroke-opacity:1"
         transform="matrix(0.13333333,0,0,-0.13333333,0,167.76)" />
      <path
         id="path3"
         d="m 155.176,762.586 14.414,-0.918 37.258,-2.148 38.656,-1.989 39.723,-1.828 41.136,-1.734 42.176,-1.574 43.926,-1.504 44.992,-1.387 46.754,-1.27 48.137,-1.218 49.949,-1.133 51.289,-1.074 53.445,-0.969 54.821,-0.945 56.609,-0.879 58.324,-0.813 60.461,-0.781 62.219,-0.715 64.695,-0.711 66.43,-0.644 68.54,-0.625 70.98,-0.586 73.47,-0.536 75.58,-0.558 78.03,-0.52 80.83,-0.457 83.32,-0.5 86.12,-0.449 30.17,-0.137"
         style="fill:none;stroke:#bf1b2c;stroke-width:10;stroke-linecap:butt;stroke-linejoin:miter;stroke-miterlimit:3.25;stroke-dasharray:none;stroke-opacity:1"
         transform="matrix(0.13333333,0,0,-0.13333333,0,167.76)" />
      <path
         id="path4"
         d="m 155.188,600.234 7,-0.379 77.343,-3.378 77.34,-2.754 77.309,-2.215 77.343,-1.848 77.309,-1.531 77.34,-1.359 77.344,-1.141 77.32,-0.981 77.344,-0.847 77.308,-0.774 77.342,-0.679 77.34,-0.618 77.31,-0.539 77.34,-0.527 77.31,-0.437 77.34,-0.411 77.31,-0.39 77.34,-0.363 77.34,-0.34 77.33,-0.301 68.84,-0.258"
         style="fill:none;stroke:#27963c;stroke-width:10;stroke-linecap:butt;stroke-linejoin:miter;stroke-miterlimit:3.25;stroke-dasharray:none;stroke-opacity:1"
         transform="matrix(0.13333333,0,0,-0.13333333,0,167.76)" />
      <path
         id="path5"
         d="m 436.355,223.621 v 35.297"
         style="fill:none;stroke:#231f20;stroke-width:5;stroke-linecap:butt;stroke-linejoin:miter;stroke-miterlimit:3.25;stroke-dasharray:none;stroke-opacity:1"
         transform="matrix(0.13333333,0,0,-0.13333333,0,167.76)" />
      <path
         id="path6"
         d="m 787.871,223.621 v 35.297"
         style="fill:none;stroke:#231f20;stroke-width:5;stroke-linecap:butt;stroke-linejoin:miter;stroke-miterlimit:3.25;stroke-dasharray:none;stroke-opacity:1"
         transform="matrix(0.13333333,0,0,-0.13333333,0,167.76)" />
      <path
         id="path7"
         d="m 1139.37,223.621 v 35.297"
         style="fill:none;stroke:#231f20;stroke-width:5;stroke-linecap:butt;stroke-linejoin:miter;stroke-miterlimit:3.25;stroke-dasharray:none;stroke-opacity:1"
         transform="matrix(0.13333333,0,0,-0.13333333,0,167.76)" />
      <path
         id="path8"
         d="m 1490.85,223.621 v 35.297"
         style="fill:none;stroke:#231f20;stroke-width:5;stroke-linecap:butt;stroke-linejoin:miter;stroke-miterlimit:3.25;stroke-dasharray:none;stroke-opacity:1"
         transform="matrix(0.13333333,0,0,-0.13333333,0,167.76)" />
      <path
         id="path9"
         d="m 119.871,571.203 h 35.305 m 0,-312.285 h 19.195 m -19.195,0 H 1772.05"
         style="fill:none;stroke:#231f20;stroke-width:5;stroke-linecap:butt;stroke-linejoin:miter;stroke-miterlimit:3.25;stroke-dasharray:none;stroke-opacity:1"
         transform="matrix(0.13333333,0,0,-0.13333333,0,167.76)" />
      <path
         id="path10"
         d="m 119.871,883.473 h 35.305"
         style="fill:none;stroke:#231f20;stroke-width:5;stroke-linecap:butt;stroke-linejoin:miter;stroke-miterlimit:3.25;stroke-dasharray:none;stroke-opacity:1"
         transform="matrix(0.13333333,0,0,-0.13333333,0,167.76)" />
      <path
         id="path11"
         d="m 119.871,1195.74 h 35.305"
         style="fill:none;stroke:#231f20;stroke-width:5;stroke-linecap:butt;stroke-linejoin:miter;stroke-miterlimit:3.25;stroke-dasharray:none;stroke-opacity:1"
         transform="matrix(0.13333333,0,0,-0.13333333,0,167.76)" />
      <path
         id="path12"
         d="M 155.176,258.918 V 1258.21"
         style="fill:none;stroke:#231f20;stroke-width:5;stroke-linecap:butt;stroke-linejoin:miter;stroke-miterlimit:3.25;stroke-dasharray:none;stroke-opacity:1"
         transform="matrix(0.13333333,0,0,-0.13333333,0,167.76)" />
      <path
         id="path13"
         d="m 1954.9,875.203 h 187.83"
         style="fill:none;stroke:#3871c1;stroke-width:10;stroke-linecap:butt;stroke-linejoin:miter;stroke-miterlimit:3.25;stroke-dasharray:none;stroke-opacity:1"
         transform="matrix(0.13333333,0,0,-0.13333333,0,167.76)" />
      <path
         id="path14"
         d="m 1954.9,733.984 h 187.83"
         style="fill:none;stroke:#bf1b2c;stroke-width:10;stroke-linecap:butt;stroke-linejoin:miter;stroke-miterlimit:3.25;stroke-dasharray:none;stroke-opacity:1"
         transform="matrix(0.13333333,0,0,-0.13333333,0,167.76)" />
      <path
         id="path15"
         d="m 1954.9,592.766 h 187.83"
         style="fill:none;stroke:#27963c;stroke-width:10;stroke-linecap:butt;stroke-linejoin:miter;stroke-miterlimit:3.25;stroke-dasharray:none;stroke-opacity:1"
         transform="matrix(0.13333333,0,0,-0.13333333,0,167.76)" />
      <g
         id="g15"
         aria-label="2.5&#10;2.0&#10;1.5&#10;Diamond&#10;Sapphire&#10;Glass (BK7)&#10;400500600700&#10;λ"
         transform="matrix(1.3333333,0,0,1.3333333,0,11.717333)">
        <path
           id="path16"
           d="M 3.2929688,-1.1239375 C 3.0585938,-0.62003125 2.953125,-0.584875 2.5195313,-0.584875 H 1.0195312 L 2.15625,-1.7801875 C 2.8945313,-2.5653437 3.2226563,-3.0340937 3.2226563,-3.7255 c 0,-0.84375 -0.6445313,-1.359375 -1.3476563,-1.359375 -0.46875,0 -0.84375,0.2109375 -1.078125,0.4804688 L 0.33984375,-3.959875 0.515625,-3.7958125 c 0.19921875,-0.3164062 0.5390625,-0.75 1.0898437,-0.75 0.5859376,0 0.9375001,0.3984375 0.9375001,1.0664063 0,0.6914062 -0.5039063,1.3476562 -0.9960938,1.9335937 -0.3984375,0.46875 -0.85546875,0.92578125 -1.30078125,1.359375 v 0.1875 H 3.2460938 c 0.09375,-0.36328125 0.1757812,-0.71484375 0.28125,-1.0429687 z m 1.461914,1.21875 c 0.2578125,0 0.4453125,-0.1875 0.4453125,-0.45703125 0,-0.2578125 -0.1875,-0.45703125 -0.4453125,-0.45703125 -0.2578125,0 -0.4453125,0.19921875 -0.4453125,0.45703125 0,0.26953125 0.1875,0.45703125 0.4453125,0.45703125 z m 2.1269531,-4.5 h 1.8632813 l 0.2109375,-0.515625 -0.046875,-0.070312 H 6.6240234 l -0.3164062,2.4492188 c 0.1875,-0.070312 0.4921875,-0.1640625 0.8320312,-0.1640625 0.8671875,0 1.3007813,0.5039062 1.3007813,1.2070312 0,0.609375 -0.3398438,1.18359375 -1.0195313,1.18359375 -0.4804687,0 -0.8085937,-0.24609375 -0.984375,-0.3984375 -0.082031,-0.0703125 -0.140625,-0.0585938 -0.2109375,0 -0.09375,0.0703125 -0.1640625,0.17578125 -0.1757812,0.2578125 -0.011719,0.09375 0.035156,0.1640625 0.1289062,0.26953125 0.1289063,0.1171875 0.4570313,0.28125 0.8320313,0.28125 0.421875,0 0.9609375,-0.2109375 1.3945312,-0.5625 0.4804688,-0.3984375 0.703125,-0.8554687 0.703125,-1.3359375 0,-0.65625 -0.515625,-1.359375 -1.5351562,-1.359375 -0.2226563,0 -0.5976563,0.1289063 -0.9023438,0.2460938 z M 3.2929688,30.094813 C 3.0585938,30.598719 2.953125,30.633875 2.5195313,30.633875 H 1.0195312 L 2.15625,29.438563 c 0.7382813,-0.785157 1.0664063,-1.253907 1.0664063,-1.945313 0,-0.84375 -0.6445313,-1.359375 -1.3476563,-1.359375 -0.46875,0 -0.84375,0.210938 -1.078125,0.480469 L 0.33984375,27.258875 0.515625,27.422938 c 0.19921875,-0.316407 0.5390625,-0.75 1.0898437,-0.75 0.5859376,0 0.9375001,0.398437 0.9375001,1.066406 0,0.691406 -0.5039063,1.347656 -0.9960938,1.933594 -0.3984375,0.46875 -0.85546875,0.925781 -1.30078125,1.359375 v 0.1875 H 3.2460938 c 0.09375,-0.363282 0.1757812,-0.714844 0.28125,-1.042969 z m 1.461914,1.21875 c 0.2578125,0 0.4453125,-0.1875 0.4453125,-0.457032 0,-0.257812 -0.1875,-0.457031 -0.4453125,-0.457031 -0.2578125,0 -0.4453125,0.199219 -0.4453125,0.457031 0,0.269532 0.1875,0.457032 0.4453125,0.457032 z m 2.8300781,-5.179688 c -1.2070312,0 -1.640625,1.429688 -1.640625,2.601563 0,1.265625 0.4335938,2.578125 1.640625,2.578125 1.1953125,0 1.6289063,-1.417969 1.6289063,-2.589844 0,-1.230469 -0.4335938,-2.589844 -1.6289063,-2.589844 z m -0.011719,0.269531 c 0.7265625,0 0.9257812,1.183594 0.9257812,2.320313 0,1.125 -0.1992187,2.320312 -0.9140625,2.320312 -0.703125,0 -0.9257812,-1.207031 -0.9257812,-2.332031 0,-1.113281 0.1875,-2.308594 0.9140625,-2.308594 z M 3.0703125,62.441492 V 62.230555 C 2.34375,62.171961 2.296875,62.101648 2.296875,61.52743 V 57.355555 C 1.8515625,57.531336 1.3828125,57.68368 0.8671875,57.77743 v 0.1875 l 0.3867187,0.01172 c 0.3515625,0.01172 0.3867188,0.05859 0.3867188,0.46875 v 3.082032 c 0,0.574218 -0.035156,0.644531 -0.7734375,0.703125 v 0.210937 z m 1.6845703,0.09375 c 0.2578125,0 0.4453125,-0.1875 0.4453125,-0.457031 0,-0.257813 -0.1875,-0.457031 -0.4453125,-0.457031 -0.2578125,0 -0.4453125,0.199218 -0.4453125,0.457031 0,0.269531 0.1875,0.457031 0.4453125,0.457031 z m 2.1269531,-4.5 h 1.8632813 l 0.2109375,-0.515625 -0.046875,-0.07031 H 6.6240234 l -0.3164062,2.449218 c 0.1875,-0.07031 0.4921875,-0.164062 0.8320312,-0.164062 0.8671875,0 1.3007813,0.503906 1.3007813,1.207031 0,0.609375 -0.3398438,1.183594 -1.0195313,1.183594 -0.4804687,0 -0.8085937,-0.246094 -0.984375,-0.398438 -0.082031,-0.07031 -0.140625,-0.05859 -0.2109375,0 -0.09375,0.07031 -0.1640625,0.175782 -0.1757812,0.257813 -0.011719,0.09375 0.035156,0.164062 0.1289062,0.269531 0.1289063,0.117188 0.4570313,0.28125 0.8320313,0.28125 0.421875,0 0.9609375,-0.210937 1.3945312,-0.5625 0.4804688,-0.398437 0.703125,-0.855469 0.703125,-1.335937 0,-0.65625 -0.515625,-1.359375 -1.5351562,-1.359375 -0.2226563,0 -0.5976563,0.128906 -0.9023438,0.246093 z M 217.57617,27.373133 v 0.234375 c 0.60938,0.04687 0.67969,0.08203 0.67969,0.761719 v 3.210937 c 0,0.679688 -0.0703,0.726563 -0.75,0.785156 v 0.210938 h 1.88672 c 0.98437,0 1.78125,-0.199219 2.3789,-0.667969 0.6211,-0.457031 0.98438,-1.171875 0.98438,-2.132812 0,-0.75 -0.28125,-1.335938 -0.66797,-1.722657 -0.49219,-0.46875 -1.25391,-0.679687 -2.26172,-0.679687 z m 1.35938,0.820312 c 0,-0.304687 0.0351,-0.398437 0.10547,-0.457031 0.082,-0.04687 0.29296,-0.09375 0.63281,-0.09375 0.52734,0 0.99609,0.09375 1.35937,0.328125 0.63282,0.375 0.9375,1.089844 0.9375,1.921875 0,1.277344 -0.67968,2.390625 -2.17968,2.390625 -0.58594,0 -0.85547,-0.152344 -0.85547,-0.75 z m 5.99121,0.09375 c 0.23437,0 0.41015,-0.1875 0.41015,-0.410156 0,-0.234375 -0.17578,-0.410156 -0.39843,-0.410156 -0.22266,0 -0.41016,0.175781 -0.41016,0.410156 0,0.222656 0.1875,0.410156 0.39844,0.410156 z m 0.9375,4.289063 V 32.36532 c -0.51563,-0.04687 -0.5625,-0.09375 -0.5625,-0.632812 v -2.765625 c -0.35156,0.140625 -0.73828,0.246094 -1.13672,0.316406 v 0.1875 c 0.48047,0.08203 0.50391,0.117188 0.50391,0.609375 v 1.652344 c 0,0.539062 -0.0586,0.585937 -0.5625,0.632812 v 0.210938 z m 3.89355,-0.316406 -0.082,-0.199219 c -0.082,0.04687 -0.1875,0.08203 -0.29297,0.08203 -0.1289,0 -0.28125,-0.117187 -0.28125,-0.480469 v -1.488281 c 0,-0.410156 -0.0703,-0.738281 -0.35156,-0.972656 -0.17578,-0.152344 -0.42188,-0.222656 -0.65625,-0.222656 -0.45703,0.09375 -0.98438,0.398437 -1.20703,0.5625 -0.15235,0.117187 -0.25781,0.199218 -0.25781,0.316406 0,0.1875 0.21093,0.351562 0.35156,0.351562 0.11719,0 0.19922,-0.05859 0.23437,-0.1875 0.0703,-0.246093 0.14063,-0.421875 0.2461,-0.527343 0.082,-0.09375 0.19922,-0.164063 0.35156,-0.164063 0.41016,0 0.67969,0.328125 0.67969,0.914063 v 0.140625 c -0.17578,0.140625 -0.76172,0.363281 -1.24219,0.515625 -0.44531,0.152343 -0.64453,0.398437 -0.64453,0.796875 0,0.503906 0.38672,0.972656 0.96094,0.972656 0.23437,0 0.62109,-0.292969 0.9375,-0.515625 0.0469,0.140625 0.0937,0.257812 0.19921,0.363281 0.082,0.08203 0.2461,0.152344 0.375,0.152344 z m -1.26562,-0.351563 c -0.15235,0.140625 -0.4336,0.28125 -0.64453,0.28125 -0.2461,0 -0.5625,-0.199219 -0.5625,-0.609375 0,-0.292969 0.17578,-0.445312 0.48046,-0.585937 0.17579,-0.08203 0.55079,-0.246094 0.72657,-0.339844 z m 8.04199,0.667969 V 32.36532 c -0.45703,-0.04687 -0.52734,-0.08203 -0.52734,-0.609375 V 30.20907 c 0,-0.785156 -0.38672,-1.230468 -1.00782,-1.230468 -0.23437,0 -0.43359,0.105468 -0.60937,0.210937 -0.19922,0.117188 -0.4336,0.269531 -0.65625,0.445313 -0.16406,-0.410157 -0.50391,-0.65625 -0.89063,-0.65625 -0.25781,0 -0.44531,0.09375 -0.65625,0.222656 -0.24609,0.152344 -0.42187,0.292969 -0.58593,0.410156 v -0.65625 c -0.35157,0.164063 -0.76172,0.269531 -1.11329,0.328125 v 0.1875 c 0.46875,0.07031 0.49219,0.117188 0.49219,0.621094 v 1.664062 c 0,0.515625 -0.0703,0.5625 -0.60937,0.609375 v 0.210938 h 1.69922 V 32.36532 c -0.39844,-0.04687 -0.45704,-0.09375 -0.45704,-0.609375 v -1.886718 c 0.23438,-0.199219 0.55079,-0.410157 0.86719,-0.410157 0.49219,0 0.69141,0.328125 0.69141,0.914063 v 1.382812 c 0,0.527344 -0.0703,0.5625 -0.5625,0.609375 v 0.210938 h 1.71094 V 32.36532 c -0.4336,-0.04687 -0.51563,-0.09375 -0.51563,-0.597656 V 30.20907 c 0,-0.152343 0,-0.246093 -0.0234,-0.339843 0.30469,-0.257813 0.60938,-0.410157 0.90235,-0.410157 0.5039,0 0.70312,0.351563 0.70312,0.925782 v 1.335937 c 0,0.5625 -0.0937,0.597656 -0.5625,0.644531 v 0.210938 z m 3.00879,-3.597656 c -0.72656,0 -1.75781,0.609375 -1.75781,1.921875 0,0.890625 0.65625,1.769531 1.75781,1.769531 0.78515,0 1.73437,-0.609375 1.73437,-1.898438 0,-0.996093 -0.73828,-1.792968 -1.73437,-1.792968 z m -0.082,0.269531 c 0.6914,0 1.07812,0.761719 1.07812,1.699219 0,1.089843 -0.41015,1.464843 -0.91406,1.464843 -0.65625,0 -1.08984,-0.761718 -1.08984,-1.769531 0,-0.902344 0.43359,-1.394531 0.92578,-1.394531 z m 6.69726,3.328125 V 32.36532 c -0.45703,-0.04687 -0.5039,-0.08203 -0.5039,-0.621093 v -1.546875 c 0,-0.773438 -0.39844,-1.21875 -1.03125,-1.21875 -0.23438,0 -0.4336,0.105468 -0.66797,0.246093 -0.19922,0.128907 -0.375,0.257813 -0.52735,0.375 v -0.644531 c -0.35156,0.164063 -0.73828,0.257813 -1.11328,0.328125 v 0.1875 c 0.4336,0.08203 0.48047,0.105469 0.48047,0.621094 v 1.652344 c 0,0.527343 -0.0469,0.5625 -0.58594,0.621093 v 0.210938 h 1.73438 V 32.36532 c -0.46875,-0.04687 -0.51563,-0.08203 -0.51563,-0.621093 v -1.886719 c 0.23438,-0.199219 0.55079,-0.398438 0.86719,-0.398438 0.53906,0 0.72656,0.351563 0.72656,0.902344 v 1.347656 c 0,0.550782 -0.0586,0.609375 -0.52734,0.65625 v 0.210938 z m 4.83985,-0.410156 -0.25782,-0.02344 c -0.29296,-0.03516 -0.35156,-0.07031 -0.35156,-0.492187 v -4.769532 c -0.29297,0.105469 -0.83203,0.222657 -1.24219,0.28125 v 0.1875 c 0.57422,0.03516 0.60938,0.05859 0.60938,0.597657 v 1.125 c -0.17578,-0.07031 -0.41016,-0.09375 -0.52734,-0.09375 -1.08985,0 -2.0625,0.878906 -2.0625,1.992187 0,1.113281 0.84375,1.699219 1.47656,1.699219 0.10547,0 0.3164,-0.04687 0.63281,-0.234375 l 0.48047,-0.28125 v 0.515625 c 0.46875,-0.164063 1.06641,-0.269531 1.24219,-0.304688 z m -1.24219,-0.269532 c -0.1875,0.140625 -0.48047,0.269532 -0.76172,0.269532 -0.51562,0 -1.10156,-0.457032 -1.10156,-1.417969 0,-1.160156 0.66797,-1.464844 1.04297,-1.464844 0.30468,0 0.63281,0.128906 0.82031,0.398438 z m -29.25,10.772461 c -0.0586,-0.503906 -0.10547,-0.820312 -0.12891,-1.101562 -0.30468,-0.105469 -0.64453,-0.1875 -1.00781,-0.1875 -1.03125,0 -1.65234,0.65625 -1.65234,1.417969 0,0.914062 0.80859,1.3125 1.32422,1.582031 0.59765,0.316406 1.03125,0.597656 1.03125,1.195312 0,0.585938 -0.35157,0.960938 -0.94922,0.960938 -0.83203,0 -1.19532,-0.808594 -1.32422,-1.300781 l -0.22266,0.05859 c 0.0469,0.386719 0.15235,1.066407 0.21094,1.242188 0.0703,0.03516 0.19922,0.09375 0.39844,0.164062 0.19922,0.05859 0.45703,0.117188 0.78515,0.117188 1.05469,0 1.76953,-0.667969 1.76953,-1.511719 0,-0.890625 -0.76171,-1.265625 -1.38281,-1.59375 -0.63281,-0.328125 -1.01953,-0.597656 -1.01953,-1.183594 0,-0.433593 0.26953,-0.878906 0.89063,-0.878906 0.6914,0 0.90234,0.550781 1.05468,1.066406 z m 4.46484,3.714844 -0.082,-0.199219 c -0.082,0.04687 -0.1875,0.08203 -0.29297,0.08203 -0.1289,0 -0.28125,-0.117188 -0.28125,-0.480469 v -1.488281 c 0,-0.410157 -0.0703,-0.738282 -0.35156,-0.972657 -0.17578,-0.152343 -0.42187,-0.222656 -0.65625,-0.222656 -0.45703,0.09375 -0.98437,0.398438 -1.20703,0.5625 -0.15234,0.117188 -0.25781,0.199219 -0.25781,0.316406 0,0.1875 0.21093,0.351563 0.35156,0.351563 0.11719,0 0.19922,-0.05859 0.23437,-0.1875 0.0703,-0.246094 0.14063,-0.421875 0.2461,-0.527344 0.082,-0.09375 0.19922,-0.164062 0.35156,-0.164062 0.41016,0 0.67969,0.328125 0.67969,0.914062 v 0.140625 c -0.17578,0.140625 -0.76172,0.363281 -1.24219,0.515625 -0.44531,0.152344 -0.64453,0.398438 -0.64453,0.796875 0,0.503906 0.38672,0.972656 0.96094,0.972656 0.23437,0 0.62109,-0.292968 0.9375,-0.515625 0.0469,0.140625 0.0937,0.257813 0.19922,0.363282 0.082,0.08203 0.24609,0.152343 0.375,0.152343 z m -1.26562,-0.351562 c -0.15235,0.140625 -0.4336,0.28125 -0.64453,0.28125 -0.2461,0 -0.5625,-0.199219 -0.5625,-0.609375 0,-0.292969 0.17578,-0.445313 0.48047,-0.585938 0.17578,-0.08203 0.55078,-0.246094 0.72656,-0.339844 z m 2.92383,-2.378907 v -0.621093 c -0.375,0.140625 -0.82032,0.28125 -1.16016,0.339843 v 0.1875 c 0.50391,0.07031 0.52734,0.08203 0.52734,0.597657 v 3.621093 c 0,0.527344 -0.0703,0.574219 -0.57422,0.621094 v 0.222656 h 1.88672 V 48.3995 c -0.62109,-0.04687 -0.67968,-0.09375 -0.67968,-0.703125 v -1.042969 c 0.10546,0.05859 0.32812,0.140625 0.5625,0.140625 1.03125,-0.1875 1.99218,-0.960937 1.99218,-2.179687 0,-0.785156 -0.52734,-1.511719 -1.41797,-1.511719 -0.0937,0 -0.24609,0.04687 -0.39843,0.128906 z m 0,0.269532 c 0.22265,-0.164063 0.55078,-0.339844 0.80859,-0.339844 0.58594,0 1.06641,0.480469 1.06641,1.335937 0,0.914063 -0.44532,1.488282 -1.11329,1.488282 -0.28125,0 -0.58593,-0.128907 -0.76171,-0.316407 z m 4.61718,-0.269532 v -0.621093 c -0.375,0.140625 -0.82031,0.28125 -1.16015,0.339843 v 0.1875 c 0.5039,0.07031 0.52734,0.08203 0.52734,0.597657 v 3.621093 c 0,0.527344 -0.0703,0.574219 -0.57422,0.621094 v 0.222656 h 1.88672 V 48.3995 c -0.62109,-0.04687 -0.67969,-0.09375 -0.67969,-0.703125 v -1.042969 c 0.10547,0.05859 0.32813,0.140625 0.5625,0.140625 1.03125,-0.1875 1.99219,-0.960937 1.99219,-2.179687 0,-0.785156 -0.52734,-1.511719 -1.41797,-1.511719 -0.0937,0 -0.24609,0.04687 -0.39844,0.128906 z m 0,0.269532 c 0.22266,-0.164063 0.55078,-0.339844 0.8086,-0.339844 0.58593,0 1.0664,0.480469 1.0664,1.335937 0,0.914063 -0.44531,1.488282 -1.11328,1.488282 -0.28125,0 -0.58594,-0.128907 -0.76172,-0.316407 z m 7.40625,2.777343 v -0.210937 c -0.46875,-0.03516 -0.52734,-0.08203 -0.52734,-0.609375 v -1.40625 c 0,-0.960938 -0.45703,-1.371094 -1.10156,-1.371094 -0.4336,0 -0.86719,0.304688 -1.14844,0.585938 v -2.683594 c -0.30469,0.09375 -0.78516,0.222656 -1.17188,0.28125 V 41.462 c 0.52735,0.04687 0.53907,0.09375 0.53907,0.597656 v 3.820313 c 0,0.527344 -0.0703,0.574219 -0.55078,0.609375 v 0.210937 h 1.69921 v -0.210937 c -0.46875,-0.04687 -0.51562,-0.105469 -0.51562,-0.609375 v -1.910156 c 0.23437,-0.257813 0.52734,-0.410157 0.83203,-0.410157 0.53906,0 0.78516,0.328125 0.78516,0.984375 v 1.335938 c 0,0.515625 -0.0586,0.5625 -0.52735,0.609375 v 0.210937 z m 1.78418,-4.289062 c 0.23438,0 0.41016,-0.1875 0.41016,-0.410156 0,-0.234375 -0.17578,-0.410157 -0.39844,-0.410157 -0.22265,0 -0.41015,0.175782 -0.41015,0.410157 0,0.222656 0.1875,0.410156 0.39843,0.410156 z m 0.9375,4.289062 v -0.210937 c -0.51562,-0.04687 -0.5625,-0.09375 -0.5625,-0.632813 v -2.765625 c -0.35156,0.140625 -0.73828,0.246094 -1.13672,0.316407 v 0.1875 c 0.48047,0.08203 0.50391,0.117187 0.50391,0.609375 v 1.652343 c 0,0.539063 -0.0586,0.585938 -0.5625,0.632813 v 0.210937 z m 1.84864,-2.742187 v -0.878906 c -0.38672,0.175781 -0.73829,0.269531 -1.13672,0.328125 v 0.175781 c 0.45703,0.07031 0.5039,0.105469 0.5039,0.632812 v 1.652344 c 0,0.527344 -0.0586,0.574219 -0.55078,0.621094 v 0.210937 h 1.83985 v -0.210937 c -0.6211,-0.04687 -0.65625,-0.09375 -0.65625,-0.621094 v -1.464844 c 0.17578,-0.445312 0.43359,-0.691406 0.63281,-0.691406 0.1289,0 0.22265,0.04687 0.33984,0.175781 0.0469,0.04687 0.11719,0.04687 0.21094,0.01172 0.15234,-0.07031 0.25781,-0.234375 0.25781,-0.398437 0,-0.1875 -0.1875,-0.398438 -0.45703,-0.398438 -0.38672,0 -0.73828,0.457031 -0.97266,0.855469 z m 4.80468,1.898437 c -0.29297,0.269532 -0.59765,0.398438 -0.91406,0.398438 -0.5625,0 -1.18359,-0.445313 -1.19531,-1.535156 0.96094,-0.03516 1.95703,-0.117188 2.08594,-0.140625 0.15234,-0.03516 0.1875,-0.09375 0.1875,-0.257813 0,-0.621094 -0.53907,-1.21875 -1.19532,-1.21875 -0.42187,0 -0.85547,0.222656 -1.18359,0.585938 -0.32813,0.363281 -0.52734,0.855468 -0.52734,1.40625 0,0.902343 0.57421,1.699218 1.55859,1.699218 0.25781,0 0.80859,-0.140625 1.3125,-0.773437 z m -1.23047,-2.449218 c 0.44532,0 0.71485,0.375 0.70313,0.796875 0,0.105468 -0.0469,0.164062 -0.1875,0.164062 -0.46875,0.01172 -0.90234,0.02344 -1.34766,0.02344 0.11719,-0.65625 0.46875,-0.984375 0.83203,-0.984375 z m -24.01757,15 h -2.03907 v 0.222656 c 0.78516,0.05859 0.84375,0.105469 0.84375,0.691406 v 0.679688 c 0,0.328125 -0.0937,0.433593 -0.25781,0.515625 -0.17578,0.09375 -0.42187,0.140625 -0.6914,0.140625 -1.54688,0 -2.22657,-1.335938 -2.22657,-2.496094 0,-1.476563 0.89063,-2.378906 2.1211,-2.378906 0.76172,0 1.37109,0.269531 1.55859,1.242187 l 0.22266,-0.04687 c -0.0586,-0.527344 -0.10547,-0.960937 -0.12891,-1.242187 -0.25781,-0.05859 -0.86719,-0.234375 -1.53516,-0.234375 -1.57031,0 -3.05859,0.902343 -3.05859,2.753906 0,1.59375 1.17188,2.683594 2.94141,2.683594 0.63281,0 1.28906,-0.175782 1.79297,-0.292969 -0.0469,-0.210938 -0.0586,-0.46875 -0.0586,-0.75 v -0.679688 c 0,-0.480468 0.0352,-0.515625 0.51563,-0.585937 z m 2.77441,2.414062 v -0.210937 c -0.51562,-0.04687 -0.58594,-0.09375 -0.58594,-0.621094 v -4.863281 c -0.26953,0.09375 -0.76172,0.234375 -1.18359,0.28125 v 0.1875 c 0.50391,0.03516 0.55078,0.05859 0.55078,0.609375 v 3.785156 c 0,0.527344 -0.0703,0.574219 -0.57422,0.621094 v 0.210937 z m 3.86133,-0.316406 -0.082,-0.199219 c -0.082,0.04687 -0.1875,0.08203 -0.29297,0.08203 -0.12891,0 -0.28125,-0.117187 -0.28125,-0.480468 V 58.41903 c 0,-0.410156 -0.0703,-0.738281 -0.35156,-0.972656 -0.17578,-0.152344 -0.42188,-0.222656 -0.65625,-0.222656 -0.45703,0.09375 -0.98438,0.398437 -1.20703,0.5625 -0.15235,0.117187 -0.25782,0.199219 -0.25782,0.316406 0,0.1875 0.21094,0.351563 0.35157,0.351563 0.11718,0 0.19921,-0.05859 0.23437,-0.1875 0.0703,-0.246094 0.14063,-0.421875 0.24609,-0.527344 0.082,-0.09375 0.19922,-0.164063 0.35157,-0.164063 0.41015,0 0.67968,0.328125 0.67968,0.914063 v 0.140625 c -0.17578,0.140625 -0.76171,0.363281 -1.24218,0.515625 -0.44532,0.152344 -0.64453,0.398437 -0.64453,0.796875 0,0.503906 0.38671,0.972656 0.96093,0.972656 0.23438,0 0.6211,-0.292969 0.9375,-0.515625 0.0469,0.140625 0.0937,0.257813 0.19922,0.363281 0.082,0.08203 0.2461,0.152344 0.375,0.152344 z m -1.26563,-0.351563 c -0.15234,0.140625 -0.43359,0.28125 -0.64453,0.28125 -0.24609,0 -0.5625,-0.199218 -0.5625,-0.609375 0,-0.292968 0.17578,-0.445312 0.48047,-0.585937 0.17578,-0.08203 0.55078,-0.246094 0.72656,-0.339844 z m 4.28907,-1.933593 c -0.0234,-0.199219 -0.11719,-0.667969 -0.17578,-0.855469 -0.17579,-0.07031 -0.38672,-0.140625 -0.71485,-0.140625 -0.73828,0 -1.21875,0.480469 -1.21875,1.03125 0,0.621094 0.51563,0.890625 0.9961,1.113281 0.39843,0.175781 0.63281,0.375 0.63281,0.726563 0,0.339843 -0.26953,0.5625 -0.5625,0.5625 -0.48047,0 -0.84375,-0.46875 -0.98438,-0.996094 l -0.21093,0.03516 c 0,0.292969 0.0703,0.832031 0.1289,0.949219 0.14063,0.117187 0.51563,0.269531 0.91406,0.269531 0.64454,0 1.32422,-0.375 1.32422,-1.101562 0,-0.550782 -0.41015,-0.84375 -1.00781,-1.089844 -0.36328,-0.152344 -0.67969,-0.339844 -0.67969,-0.691406 0,-0.316407 0.21094,-0.550782 0.51563,-0.550782 0.39844,0 0.67969,0.316407 0.83203,0.785157 z m 3.25781,0 c -0.0234,-0.199219 -0.11719,-0.667969 -0.17578,-0.855469 -0.17578,-0.07031 -0.38672,-0.140625 -0.71485,-0.140625 -0.73828,0 -1.21875,0.480469 -1.21875,1.03125 0,0.621094 0.51563,0.890625 0.9961,1.113281 0.39844,0.175781 0.63281,0.375 0.63281,0.726563 0,0.339843 -0.26953,0.5625 -0.5625,0.5625 -0.48047,0 -0.84375,-0.46875 -0.98437,-0.996094 l -0.21094,0.03516 c 0,0.292969 0.0703,0.832031 0.1289,0.949219 0.14063,0.117187 0.51563,0.269531 0.91407,0.269531 0.64453,0 1.32422,-0.375 1.32422,-1.101562 0,-0.550782 -0.41016,-0.84375 -1.00782,-1.089844 -0.36328,-0.152344 -0.67968,-0.339844 -0.67968,-0.691406 0,-0.316407 0.21093,-0.550782 0.51562,-0.550782 0.39844,0 0.67969,0.316407 0.83203,0.785157 z m 5.17969,3.773437 c -0.79688,-0.667969 -1.25391,-1.957031 -1.25391,-3.328125 0,-1.382812 0.45703,-2.671875 1.25391,-3.339844 L 240.73535,55.1495 c -1.17187,0.785156 -1.69922,2.074219 -1.69922,3.503906 0,1.453125 0.52735,2.730469 1.69922,3.515625 z m 3.68847,-3.996094 c 0.44532,-0.117187 1.07813,-0.433593 1.07813,-1.195312 0,-0.363281 -0.15235,-0.714844 -0.44531,-0.914063 -0.2461,-0.175781 -0.59766,-0.269531 -1.19532,-0.269531 h -2.0625 v 0.222656 c 0.64453,0.04687 0.66797,0.09375 0.66797,0.761719 v 3.222656 c 0,0.679688 -0.0469,0.726563 -0.72656,0.773438 v 0.222656 h 1.76953 c 0.62109,0 1.16016,-0.09375 1.55859,-0.316406 0.48047,-0.269531 0.77344,-0.679688 0.77344,-1.207031 0,-0.808594 -0.62109,-1.160157 -1.41797,-1.277344 z m -1.27734,-0.07031 v -1.570313 c 0,-0.269531 0.0352,-0.351562 0.10547,-0.398437 0.082,-0.04687 0.25781,-0.08203 0.45703,-0.08203 0.75,0 1.05469,0.480468 1.05469,1.019531 0,0.679687 -0.36328,1.03125 -1.24219,1.03125 z m 0,0.257812 h 0.36328 c 0.98438,0 1.53516,0.363282 1.53516,1.183594 0,0.832031 -0.58594,1.171875 -1.24219,1.183594 -0.50391,0 -0.65625,-0.152344 -0.65625,-0.726563 z m 8.90039,2.636719 v -0.222656 c -0.39844,-0.04687 -0.5625,-0.117188 -0.98438,-0.574219 -0.39843,-0.433594 -1.26562,-1.429687 -1.875,-2.179687 0.53907,-0.550782 1.11329,-1.125 1.41797,-1.40625 0.50391,-0.457032 0.69141,-0.539063 1.30078,-0.597657 V 55.61825 h -1.9219 v 0.222656 l 0.17578,0.02344 c 0.36328,0.04687 0.36328,0.117187 0.14063,0.410156 -0.36329,0.445313 -0.91407,0.996094 -1.34766,1.417969 -0.22266,0.210937 -0.38672,0.316406 -0.5625,0.363281 v -1.394531 c 0,-0.714844 0.082,-0.773438 0.70312,-0.820313 V 55.61825 h -2.07421 v 0.222656 c 0.63281,0.04687 0.70312,0.09375 0.70312,0.820313 v 3.128906 c 0,0.703125 -0.0703,0.761719 -0.67969,0.808594 v 0.222656 h 2.08594 v -0.222656 c -0.65625,-0.04687 -0.73828,-0.105469 -0.73828,-0.808594 v -1.523437 c 0.14062,-0.02344 0.24609,0.01172 0.43359,0.222656 0.71485,0.855469 1.3711,1.640625 1.98047,2.332031 z m 4.28906,-4.992187 H 253.418 c -0.0234,0.351562 -0.0703,0.75 -0.14063,1.195312 h 0.23438 c 0.1875,-0.539062 0.23437,-0.609375 0.76172,-0.609375 h 1.73437 c -0.63281,1.394531 -1.53515,3.058594 -2.3789,4.417969 l 0.0586,0.08203 0.58594,-0.08203 c 0.77343,-1.640625 1.52343,-3.28125 2.27343,-4.898438 z m 1.10742,-0.503907 c 0.79688,0.65625 1.26563,1.957032 1.26563,3.339844 0,1.371094 -0.45703,2.648438 -1.26563,3.328125 l 0.15235,0.175781 c 1.18359,-0.808593 1.6875,-2.0625 1.6875,-3.503906 0,-1.441406 -0.50391,-2.71875 -1.6875,-3.515625 z M 41.519531,101.95419 v -0.375 h -0.761719 v -3.257815 h -0.316406 c -0.832031,1.089844 -1.640625,2.273435 -2.402344,3.410155 v 0.22266 h 2.074219 v 0.58594 c 0,0.52734 -0.02344,0.57421 -0.726562,0.63281 v 0.21094 H 41.4375 v -0.21094 c -0.644531,-0.0586 -0.679688,-0.10547 -0.679688,-0.63281 v -0.58594 z m -1.40625,-0.375 h -1.570312 c 0.527343,-0.87891 1.042968,-1.640627 1.558593,-2.355471 h 0.01172 z m 3.524414,-3.281252 c -1.207031,0 -1.640625,1.429687 -1.640625,2.601562 0,1.26563 0.433594,2.57813 1.640625,2.57813 1.195313,0 1.628907,-1.41797 1.628907,-2.58985 0,-1.230467 -0.433594,-2.589842 -1.628907,-2.589842 z m -0.01172,0.269531 c 0.726562,0 0.925781,1.183594 0.925781,2.320311 0,1.125 -0.199219,2.32031 -0.914063,2.32031 -0.703125,0 -0.925781,-1.20703 -0.925781,-2.33203 0,-1.113279 0.1875,-2.308591 0.914063,-2.308591 z m 3.852539,-0.269531 c -1.207032,0 -1.640625,1.429687 -1.640625,2.601562 0,1.26563 0.433593,2.57813 1.640625,2.57813 1.195312,0 1.628906,-1.41797 1.628906,-2.58985 0,-1.230467 -0.433594,-2.589842 -1.628906,-2.589842 z m -0.01172,0.269531 c 0.726562,0 0.925781,1.183594 0.925781,2.320311 0,1.125 -0.199219,2.32031 -0.914062,2.32031 -0.703125,0 -0.925782,-1.20703 -0.925782,-2.33203 0,-1.113279 0.1875,-2.308591 0.914063,-2.308591 z m 26.777344,0.410156 h 1.863281 L 76.318356,98.462 76.271486,98.39169 H 73.98633 l -0.316406,2.44922 c 0.1875,-0.0703 0.492187,-0.16407 0.832031,-0.16407 0.867188,0 1.300781,0.50391 1.300781,1.20704 0,0.60937 -0.339843,1.18359 -1.019531,1.18359 -0.480469,0 -0.808594,-0.24609 -0.984375,-0.39844 -0.08203,-0.0703 -0.140625,-0.0586 -0.210937,0 -0.09375,0.0703 -0.164063,0.17578 -0.175782,0.25781 -0.01172,0.0937 0.03516,0.16407 0.128907,0.26954 0.128906,0.11718 0.457031,0.28125 0.832031,0.28125 0.421875,0 0.960937,-0.21094 1.394531,-0.5625 0.480469,-0.39844 0.703125,-0.85547 0.703125,-1.33594 0,-0.65625 -0.515625,-1.35938 -1.535156,-1.35938 -0.222656,0 -0.597656,0.12891 -0.902344,0.2461 z m 4.543945,-0.679687 c -1.207031,0 -1.640625,1.429687 -1.640625,2.601562 0,1.26563 0.433594,2.57813 1.640625,2.57813 1.195312,0 1.628906,-1.41797 1.628906,-2.58985 0,-1.230467 -0.433594,-2.589842 -1.628906,-2.589842 z m -0.01172,0.269531 c 0.726563,0 0.925781,1.183594 0.925781,2.320311 0,1.125 -0.199218,2.32031 -0.914062,2.32031 -0.703125,0 -0.925781,-1.20703 -0.925781,-2.33203 0,-1.113279 0.1875,-2.308591 0.914062,-2.308591 z m 3.852539,-0.269531 c -1.207031,0 -1.640625,1.429687 -1.640625,2.601562 0,1.26563 0.433594,2.57813 1.640625,2.57813 1.195313,0 1.628906,-1.41797 1.628906,-2.58985 0,-1.230467 -0.433593,-2.589842 -1.628906,-2.589842 z m -0.01172,0.269531 c 0.726563,0 0.925782,1.183594 0.925782,2.320311 0,1.125 -0.199219,2.32031 -0.914063,2.32031 -0.703125,0 -0.925781,-1.20703 -0.925781,-2.33203 0,-1.113279 0.1875,-2.308591 0.914062,-2.308591 z m 26.663088,2.074221 c 0.23438,-1.113284 0.98438,-1.61719 1.46485,-1.851565 0.30468,-0.140625 0.60937,-0.234375 0.8789,-0.28125 l -0.0586,-0.257812 c -0.31641,0.05859 -0.70313,0.140625 -1.03125,0.257812 -0.84375,0.316406 -2.0625,1.21875 -2.0625,2.964845 0,1.24219 0.70312,2.00391 1.64062,2.00391 0.96094,0 1.64063,-0.8086 1.64063,-1.75782 0,-0.82031 -0.58594,-1.47656 -1.44141,-1.47656 -0.15234,0 -0.32812,0.0469 -0.5039,0.12891 z m 0.72657,0.0469 c 0.72656,0 1.0664,0.65625 1.0664,1.32422 0,0.52735 -0.19922,1.19531 -0.82031,1.19531 -0.65625,0 -1.06641,-0.78515 -1.06641,-1.74609 0,-0.21094 0.0117,-0.39844 0.0469,-0.55078 0.19922,-0.10547 0.46875,-0.22266 0.77344,-0.22266 z m 3.93164,-2.390622 c -1.20703,0 -1.64063,1.429687 -1.64063,2.601562 0,1.26563 0.4336,2.57813 1.64063,2.57813 1.19531,0 1.6289,-1.41797 1.6289,-2.58985 0,-1.230467 -0.43359,-2.589842 -1.6289,-2.589842 z m -0.0117,0.269531 c 0.72656,0 0.92578,1.183594 0.92578,2.320311 0,1.125 -0.19922,2.32031 -0.91406,2.32031 -0.70313,0 -0.92578,-1.20703 -0.92578,-2.33203 0,-1.113279 0.1875,-2.308591 0.91406,-2.308591 z m 3.85254,-0.269531 c -1.20703,0 -1.64063,1.429687 -1.64063,2.601562 0,1.26563 0.4336,2.57813 1.64063,2.57813 1.19531,0 1.6289,-1.41797 1.6289,-2.58985 0,-1.230467 -0.43359,-2.589842 -1.6289,-2.589842 z m -0.0117,0.269531 c 0.72656,0 0.92578,1.183594 0.92578,2.320311 0,1.125 -0.19922,2.32031 -0.91406,2.32031 -0.70313,0 -0.92578,-1.20703 -0.92578,-2.33203 0,-1.113279 0.1875,-2.308591 0.91406,-2.308591 z m 29.13573,-0.175781 h -3.05859 c -0.0234,0.351562 -0.0703,0.75 -0.14063,1.195312 h 0.23438 c 0.1875,-0.539062 0.23437,-0.609375 0.76172,-0.609375 h 1.73437 c -0.63281,1.394535 -1.53515,3.058595 -2.3789,4.417965 l 0.0586,0.082 0.58594,-0.082 c 0.77342,-1.64062 1.52342,-3.28125 2.27342,-4.898434 z m 2.18848,-0.09375 c -1.20703,0 -1.64062,1.429687 -1.64062,2.601562 0,1.26563 0.4336,2.57813 1.64062,2.57813 1.19531,0 1.6289,-1.41797 1.6289,-2.58985 0,-1.230467 -0.43359,-2.589842 -1.6289,-2.589842 z m -0.0117,0.269531 c 0.72656,0 0.92578,1.183594 0.92578,2.320311 0,1.125 -0.19922,2.32031 -0.91407,2.32031 -0.70312,0 -0.92578,-1.20703 -0.92578,-2.33203 0,-1.113279 0.1875,-2.308591 0.91407,-2.308591 z m 3.85254,-0.269531 c -1.20703,0 -1.64063,1.429687 -1.64063,2.601562 0,1.26563 0.4336,2.57813 1.64063,2.57813 1.19531,0 1.62889,-1.41797 1.62889,-2.58985 0,-1.230467 -0.43359,-2.589842 -1.62889,-2.589842 z m -0.0117,0.269531 c 0.72656,0 0.92578,1.183594 0.92578,2.320311 0,1.125 -0.19922,2.32031 -0.91406,2.32031 -0.70313,0 -0.92578,-1.20703 -0.92578,-2.33203 0,-1.113279 0.1875,-2.308591 0.91406,-2.308591 z m 0,0"
           style="fill:#231f20;fill-opacity:1;fill-rule:nonzero;stroke:none" />
        <path
           id="path17"
           d="m 98.419922,112.7618 c -0.28125,0.38672 -0.503906,0.52735 -0.597656,0.52735 -0.08203,0 -0.140625,-0.0937 -0.199219,-0.49219 -0.164063,-1.13672 -0.292969,-2.60156 -0.363281,-3.33984 -0.152344,-1.72266 -0.46875,-2.07422 -0.9375,-2.07422 -0.257813,0 -0.632813,0.17578 -0.84375,0.35156 l 0.05859,0.22266 c 0.117188,-0.0469 0.257813,-0.0937 0.386719,-0.0937 0.28125,0.0117 0.480469,0.17578 0.609375,0.97265 0.05859,0.33985 0.09375,0.70313 0.117188,1.13672 -0.609375,1.44141 -1.582032,2.89453 -2.285157,3.76172 l 0.07031,0.16406 c 0.222656,-0.0469 0.433594,-0.10547 0.632812,-0.16406 0.351563,-0.50391 1.207032,-2.14453 1.652344,-3.16406 0.03516,0.64453 0.105469,1.24219 0.234375,2.35547 0.05859,0.64453 0.210938,0.97265 0.503906,0.97265 0.269532,0 0.667969,-0.22265 1.136719,-0.9375 z m 0,0"
           style="fill:#231f20;fill-opacity:1;fill-rule:nonzero;stroke:none" />
      </g>
    </g>
  </g>
</svg>
