<?xml version="1.0" encoding="UTF-8" standalone="no"?>
<!-- Created with Inkscape (http://www.inkscape.org/) -->

<svg
   version="1.1"
   id="svg1"
   width="222.65334"
   height="167.21333"
   viewBox="0 0 222.65334 167.21333"
   sodipodi:docname="pha09f10.eps"
   xmlns:inkscape="http://www.inkscape.org/namespaces/inkscape"
   xmlns:sodipodi="http://sodipodi.sourceforge.net/DTD/sodipodi-0.dtd"
   xmlns="http://www.w3.org/2000/svg"
   xmlns:svg="http://www.w3.org/2000/svg">
  <defs
     id="defs1" />
  <sodipodi:namedview
     id="namedview1"
     pagecolor="#ffffff"
     bordercolor="#000000"
     borderopacity="0.25"
     inkscape:showpageshadow="2"
     inkscape:pageopacity="0.0"
     inkscape:pagecheckerboard="0"
     inkscape:deskcolor="#d1d1d1">
    <inkscape:page
       x="0"
       y="0"
       inkscape:label="1"
       id="page1"
       width="222.65334"
       height="167.21333"
       margin="0"
       bleed="0" />
  </sodipodi:namedview>
  <g
     id="g1"
     inkscape:groupmode="layer"
     inkscape:label="1">
    <g
       id="group-R5">
      <g
         id="g2"
         aria-label="ω&#10;i?&#10;ω&#10;t?&#10;ω&#10;t&#10;ω&#10;i&#10;θ&#10;i&#10;θ&#10;t"
         transform="matrix(1.3333333,0,0,1.3333333,10.234893,75.559733)">
        <path
           id="path2"
           d="m 4.3589863,-3.8446047 c 0.2929687,0.2578125 0.5039062,0.7148438 0.5039062,1.3828125 -0.011719,1.0078125 -0.3984375,2.05078126 -1.1367187,2.05078126 -0.3046875,0 -0.515625,-0.3046875 -0.4921875,-0.87890626 0.023437,-0.46875 0.234375,-1.359375 0.3515625,-1.7226562 l -0.058594,-0.035156 -0.6679687,0.140625 c -0.035156,0.28125 -0.09375,0.75 -0.1875,1.1367188 -0.1992188,0.85546871 -0.5625,1.31249996 -0.9492188,1.31249996 -0.28125,0 -0.5390625,-0.33984375 -0.5390625,-0.99609376 0,-1.0078125 0.46875,-1.921875 1.1601563,-2.4492187 l -0.140625,-0.1992188 c -1.0429688,0.5390625 -1.75781255,1.5585938 -1.75781255,2.765625 0,0.93750001 0.421875,1.44140626 0.93750005,1.44140626 0.3867187,0 0.9023437,-0.3984375 1.2304687,-0.890625 0.046875,0.50390625 0.328125,0.890625 0.7617188,0.890625 0.375,0 0.7382812,-0.22265625 1.0664062,-0.515625 0.5625,-0.52734375 0.9960938,-1.30078126 0.9960938,-2.21484376 0,-0.9023437 -0.3984375,-1.4179687 -0.6914063,-1.4179687 -0.1523437,0 -0.3164062,0.070312 -0.375,0.1289062 z m 0,0"
           style="fill:#231f20;fill-opacity:1;fill-rule:nonzero;stroke:none" />
        <path
           id="path3"
           d="m 6.5503925,-1.2108156 c 0.1757813,0 0.3046875,-0.1523438 0.3046875,-0.3164063 0,-0.1757812 -0.1289062,-0.3046875 -0.2929687,-0.3046875 -0.1640625,0 -0.3046875,0.1289063 -0.3046875,0.3046875 0,0.1640625 0.140625,0.3164063 0.2929687,0.3164063 z m 0.703125,3.2109375 V 1.8477781 C 6.8667988,1.8126219 6.8316425,1.7774656 6.8316425,1.3673094 v -2.07421877 c -0.2695312,0.10546875 -0.5507812,0.1875 -0.8554687,0.234375 v 0.140625 c 0.3632812,0.0585938 0.375,0.09375 0.375,0.45703125 V 1.3673094 c 0,0.4101562 -0.035156,0.4453125 -0.421875,0.4804687 v 0.1523438 z m 0,0"
           style="fill:#231f20;fill-opacity:1;fill-rule:nonzero;stroke:none" />
        <path
           id="path4"
           d="M 10.854103,1.7891844 H 9.3892597 v -3.0351563 c 0,-0.070312 -0.035156,-0.1054687 -0.09375,-0.1054687 -0.058594,0 -0.09375,0.035156 -0.09375,0.1054687 V 1.7891844 H 7.7369159 c -0.070312,0 -0.1054687,0.035156 -0.1054687,0.1054687 0,0.058594 0.035156,0.09375 0.1054687,0.09375 h 3.1171871 c 0.07031,0 0.09375,-0.035156 0.09375,-0.09375 0,-0.070312 -0.02344,-0.1054687 -0.09375,-0.1054687 z m 0,0"
           style="fill:#231f20;fill-opacity:1;fill-rule:nonzero;stroke:none" />
        <path
           id="path5"
           d="m 149.49863,-2.5936281 c 0.29297,0.2578125 0.50391,0.7148437 0.50391,1.3828125 -0.0117,1.00781248 -0.39844,2.05078123 -1.13672,2.05078123 -0.30469,0 -0.51562,-0.3046875 -0.49219,-0.87890625 0.0234,-0.46875 0.23438,-1.35937498 0.35157,-1.72265628 l -0.0586,-0.035156 -0.66797,0.140625 c -0.0351,0.28125 -0.0937,0.74999998 -0.1875,1.13671873 -0.19921,0.85546875 -0.5625,1.3125 -0.94921,1.3125 -0.28125,0 -0.53907,-0.33984375 -0.53907,-0.99609375 0,-1.00781248 0.46875,-1.92187498 1.16016,-2.44921878 l -0.14063,-0.1992187 c -1.04296,0.5390625 -1.75781,1.5585937 -1.75781,2.76562498 0,0.9375 0.42188,1.44140622 0.9375,1.44140622 0.38672,0 0.90235,-0.39843747 1.23047,-0.89062497 0.0469,0.50390625 0.32813,0.89062497 0.76172,0.89062497 0.375,0 0.73828,-0.2226562 1.06641,-0.51562497 0.5625,-0.52734375 0.99609,-1.30078125 0.99609,-2.21484373 0,-0.9023438 -0.39844,-1.4179688 -0.69141,-1.4179688 -0.15234,0 -0.3164,0.070312 -0.375,0.1289063 z m 0,0"
           style="fill:#231f20;fill-opacity:1;fill-rule:nonzero;stroke:none" />
        <path
           id="path6"
           d="m 152.67442,3.0401609 -0.0586,-0.1640625 c -0.082,0.046875 -0.22265,0.1054688 -0.375,0.1054688 -0.15234,0 -0.33984,-0.09375 -0.33984,-0.5742188 V 0.86047344 h 0.63281 c 0.0703,-0.0351563 0.0937,-0.17578125 0.0352,-0.234375 h -0.66797 v -0.8203125 l -0.0937,-0.0117188 -0.38672,0.3984375 v 0.43359375 h -0.26953 l -0.16406,0.17578125 0.0234,0.0585938 h 0.41016 V 2.6065672 c 0,0.4804687 0.21094,0.7148437 0.58594,0.7148437 0.0586,0 0.15234,-0.023437 0.25781,-0.082031 z m 0,0"
           style="fill:#231f20;fill-opacity:1;fill-rule:nonzero;stroke:none" />
        <path
           id="path7"
           d="m 156.21348,3.0401609 h -1.46485 V 0.00500469 c 0,-0.0703125 -0.0351,-0.10546875 -0.0937,-0.10546875 -0.0586,0 -0.0937,0.03515625 -0.0937,0.10546875 V 3.0401609 h -1.46484 c -0.0703,0 -0.10547,0.035156 -0.10547,0.1054688 0,0.058594 0.0352,0.09375 0.10547,0.09375 h 3.11719 c 0.0703,0 0.0937,-0.035156 0.0937,-0.09375 0,-0.070312 -0.0234,-0.1054688 -0.0937,-0.1054688 z m 0,0"
           style="fill:#231f20;fill-opacity:1;fill-rule:nonzero;stroke:none" />
        <path
           id="path8"
           d="m 147.69395,59.656372 c 0.29297,0.257812 0.5039,0.714844 0.5039,1.382812 -0.0117,1.007813 -0.39843,2.050782 -1.13672,2.050782 -0.30468,0 -0.51562,-0.304688 -0.49218,-0.878907 0.0234,-0.46875 0.23437,-1.359375 0.35156,-1.722656 l -0.0586,-0.03516 -0.66797,0.140625 c -0.0352,0.28125 -0.0937,0.75 -0.1875,1.136719 -0.19922,0.855468 -0.5625,1.3125 -0.94922,1.3125 -0.28125,0 -0.53906,-0.339844 -0.53906,-0.996094 0,-1.007813 0.46875,-1.921875 1.16015,-2.449219 l -0.14062,-0.199219 c -1.04297,0.539063 -1.75782,1.558594 -1.75782,2.765625 0,0.9375 0.42188,1.441407 0.9375,1.441407 0.38672,0 0.90235,-0.398438 1.23047,-0.890625 0.0469,0.503906 0.32813,0.890625 0.76172,0.890625 0.375,0 0.73828,-0.222657 1.06641,-0.515625 0.5625,-0.527344 0.99609,-1.300782 0.99609,-2.214844 0,-0.902344 -0.39844,-1.417969 -0.6914,-1.417969 -0.15235,0 -0.31641,0.07031 -0.375,0.128906 z m 0,0"
           style="fill:#231f20;fill-opacity:1;fill-rule:nonzero;stroke:none" />
        <path
           id="path9"
           d="m 150.8668,65.290161 -0.0586,-0.164063 c -0.082,0.04687 -0.22265,0.105469 -0.375,0.105469 -0.15234,0 -0.33984,-0.09375 -0.33984,-0.574219 v -1.546875 h 0.63281 c 0.0703,-0.03516 0.0937,-0.175781 0.0352,-0.234375 h -0.66797 v -0.820312 l -0.0937,-0.01172 -0.38672,0.398438 v 0.433593 h -0.26953 l -0.16406,0.175782 0.0234,0.05859 h 0.41015 v 1.746094 c 0,0.480469 0.21094,0.714844 0.58594,0.714844 0.0586,0 0.15234,-0.02344 0.25781,-0.08203 z m 0,0"
           style="fill:#231f20;fill-opacity:1;fill-rule:nonzero;stroke:none" />
        <path
           id="path10"
           d="m 6.3042988,-49.468628 c 0.2929687,0.257812 0.5039062,0.714844 0.5039062,1.382812 -0.011719,1.007813 -0.3984375,2.050782 -1.1367187,2.050782 -0.3046875,0 -0.515625,-0.304688 -0.4921875,-0.878907 0.023437,-0.46875 0.234375,-1.359375 0.3515625,-1.722656 l -0.058594,-0.03516 -0.6679687,0.140625 c -0.035156,0.28125 -0.09375,0.75 -0.1875,1.136719 -0.1992188,0.855468 -0.5625,1.3125 -0.9492188,1.3125 -0.28125,0 -0.5390625,-0.339844 -0.5390625,-0.996094 0,-1.007813 0.46875,-1.921875 1.1601563,-2.449219 l -0.140625,-0.199219 c -1.0429688,0.539063 -1.7578125,1.558594 -1.7578125,2.765625 0,0.9375 0.421875,1.441407 0.9375,1.441407 0.3867187,0 0.9023437,-0.398438 1.2304687,-0.890625 0.046875,0.503906 0.328125,0.890625 0.7617188,0.890625 0.375,0 0.7382812,-0.222657 1.0664062,-0.515625 0.5625,-0.527344 0.9960938,-1.300782 0.9960938,-2.214844 0,-0.902344 -0.3984375,-1.417969 -0.6914063,-1.417969 -0.1523437,0 -0.3164062,0.07031 -0.375,0.128906 z m 0,0"
           style="fill:#231f20;fill-opacity:1;fill-rule:nonzero;stroke:none" />
        <path
           id="path11"
           d="m 8.495705,-46.834839 c 0.1757813,0 0.3046875,-0.152344 0.3046875,-0.316406 0,-0.175782 -0.1289062,-0.304688 -0.2929687,-0.304688 -0.1640625,0 -0.3046875,0.128906 -0.3046875,0.304688 0,0.164062 0.140625,0.316406 0.2929687,0.316406 z m 0.703125,3.210937 v -0.152343 c -0.3867187,-0.03516 -0.421875,-0.07031 -0.421875,-0.480469 v -2.074219 c -0.2695312,0.105469 -0.5507812,0.1875 -0.8554687,0.234375 v 0.140625 c 0.3632812,0.05859 0.375,0.09375 0.375,0.457031 v 1.242188 c 0,0.410156 -0.035156,0.445312 -0.421875,0.480469 v 0.152343 z m 0,0"
           style="fill:#231f20;fill-opacity:1;fill-rule:nonzero;stroke:none" />
        <path
           id="path12"
           d="m 70.968361,-36.454956 c -1.59375,0 -2.613281,2.671875 -2.613281,4.558594 0,0.9375 0.257812,1.957031 1.265625,1.957031 1.617187,0 2.566406,-2.695313 2.566406,-4.617188 0,-0.972656 -0.257812,-1.898437 -1.21875,-1.898437 z m -1.699219,2.917969 c 0.269532,-1.347657 0.84375,-2.613282 1.570313,-2.613282 0.585937,0 0.644531,0.890625 0.644531,1.371094 0,0.410156 -0.05859,0.796875 -0.105469,1.242188 z m 2.039063,0.421875 c -0.246094,1.429687 -0.820313,2.859375 -1.570313,2.859375 -0.527343,0 -0.667968,-0.773438 -0.667968,-1.476563 0,-0.46875 0.05859,-0.925781 0.128906,-1.382812 z m 0,0"
           style="fill:#231f20;fill-opacity:1;fill-rule:nonzero;stroke:none" />
        <path
           id="path13"
           d="m 73.109963,-31.254761 c 0.175781,0 0.304687,-0.152344 0.304687,-0.316406 0,-0.175781 -0.128906,-0.304688 -0.292968,-0.304688 -0.164063,0 -0.304688,0.128907 -0.304688,0.304688 0,0.164062 0.140625,0.316406 0.292969,0.316406 z m 0.703125,3.210938 v -0.152344 c -0.386719,-0.03516 -0.421875,-0.07031 -0.421875,-0.480469 v -2.074219 c -0.269531,0.105469 -0.550781,0.1875 -0.855469,0.234375 v 0.140625 c 0.363281,0.05859 0.375,0.09375 0.375,0.457032 v 1.242187 c 0,0.410156 -0.03516,0.445313 -0.421875,0.480469 v 0.152344 z m 0,0"
           style="fill:#231f20;fill-opacity:1;fill-rule:nonzero;stroke:none" />
        <path
           id="path14"
           d="m 97.197853,16.589966 c -1.59375,0 -2.613281,2.671875 -2.613281,4.558593 0,0.9375 0.257813,1.957032 1.265625,1.957032 1.617188,0 2.566406,-2.695313 2.566406,-4.617188 0,-0.972656 -0.257812,-1.898437 -1.21875,-1.898437 z m -1.699218,2.917968 c 0.269531,-1.347656 0.84375,-2.613281 1.570312,-2.613281 0.585938,0 0.644531,0.890625 0.644531,1.371094 0,0.410156 -0.05859,0.796875 -0.105468,1.242187 z m 2.039062,0.421875 c -0.246094,1.429688 -0.820312,2.859375 -1.570312,2.859375 -0.527344,0 -0.667969,-0.773437 -0.667969,-1.476562 0,-0.46875 0.05859,-0.925781 0.128906,-1.382813 z m 0,0"
           style="fill:#231f20;fill-opacity:1;fill-rule:nonzero;stroke:none" />
        <path
           id="path15"
           d="m 100.14512,24.790161 -0.0586,-0.164063 c -0.082,0.04687 -0.222661,0.105469 -0.375005,0.105469 -0.152343,0 -0.339843,-0.09375 -0.339843,-0.574219 v -1.546875 h 0.632808 c 0.0703,-0.03516 0.0937,-0.175781 0.0352,-0.234375 h -0.667968 v -0.820312 l -0.09375,-0.01172 -0.386719,0.398438 v 0.433593 h -0.269531 l -0.164063,0.175782 0.02344,0.05859 h 0.410156 v 1.746094 c 0,0.480469 0.210937,0.714844 0.585937,0.714844 0.05859,0 0.152344,-0.02344 0.257813,-0.08203 z m 0,0"
           style="fill:#231f20;fill-opacity:1;fill-rule:nonzero;stroke:none" />
      </g>
      <path
         id="path16"
         d="M 52.9883,754.629 H 1618.5"
         style="fill:none;stroke:#231f20;stroke-width:7.5;stroke-linecap:butt;stroke-linejoin:miter;stroke-miterlimit:10;stroke-dasharray:none;stroke-opacity:1"
         transform="matrix(0.13333333,0,0,-0.13333333,0,167.21333)" />
      <path
         id="path17"
         d="m 63.7539,754.629 13.1524,21.613 -0.7383,0.492 -35.25,-14 C 28.6328,760.031 16.3516,757.332 4.07422,754.629 16.3516,751.926 28.6328,749.227 40.918,746.523 l 35.25,-14.003 0.7383,0.371 -13.1524,21.738"
         style="fill:#231f20;fill-opacity:1;fill-rule:nonzero;stroke:none"
         transform="matrix(0.13333333,0,0,-0.13333333,0,167.21333)" />
      <path
         id="path18"
         d="m 1607.72,754.629 -13.14,21.613 0.74,0.492 35.25,-14 c 12.28,-2.703 24.56,-5.402 36.84,-8.105 -12.28,-2.703 -24.56,-5.402 -36.84,-8.106 l -35.25,-14.003 -0.74,0.371 13.14,21.738"
         style="fill:#231f20;fill-opacity:1;fill-rule:nonzero;stroke:none"
         transform="matrix(0.13333333,0,0,-0.13333333,0,167.21333)" />
      <path
         id="path19"
         d="M 941.055,38 V 1205.18"
         style="fill:none;stroke:#231f20;stroke-width:7.5;stroke-linecap:butt;stroke-linejoin:miter;stroke-miterlimit:10;stroke-dasharray:none;stroke-opacity:1"
         transform="matrix(0.13333333,0,0,-0.13333333,0,167.21333)" />
      <path
         id="path20"
         d="m 941.055,1194.41 -21.617,-13.15 -0.493,0.74 14.004,35.25 c 2.699,12.28 5.403,24.56 8.106,36.84 2.699,-12.28 5.398,-24.56 8.105,-36.84 l 14.004,-35.25 -0.371,-0.74 -21.738,13.15"
         style="fill:#231f20;fill-opacity:1;fill-rule:nonzero;stroke:none"
         transform="matrix(0.13333333,0,0,-0.13333333,0,167.21333)" />
      <path
         id="path21"
         d="M 49,1142.09 940.227,758.391"
         style="fill:none;stroke:#231f20;stroke-width:7.5;stroke-linecap:butt;stroke-linejoin:miter;stroke-miterlimit:10;stroke-dasharray:none;stroke-opacity:1"
         transform="matrix(0.13333333,0,0,-0.13333333,0,167.21333)" />
      <path
         id="path22"
         d="m 58.8906,1137.83 20.625,14.66 -0.4843,0.74 -37.9141,1.08 c -12.3477,2.38 -24.6953,4.75 -37.04298,7.12 10.20708,-7.34 20.42188,-14.67 30.63278,-22.01 l 26.8399,-26.8 0.8242,0.04 -3.4805,25.17"
         style="fill:#231f20;fill-opacity:1;fill-rule:nonzero;stroke:none"
         transform="matrix(0.13333333,0,0,-0.13333333,0,167.21333)" />
      <path
         id="path23"
         d="M 1632.59,72.3398 940.461,755.047"
         style="fill:none;stroke:#231f20;stroke-width:7.5;stroke-linecap:butt;stroke-linejoin:miter;stroke-miterlimit:10;stroke-dasharray:none;stroke-opacity:1"
         transform="matrix(0.13333333,0,0,-0.13333333,0,167.21333)" />
      <path
         id="path24"
         d="m 1624.92,79.9102 -24.54,-6.1602 0.18,-0.8594 34.93,-14.8008 c 10.64,-6.6992 21.28,-13.3906 31.92,-20.0898 -6.84,10.5391 -13.69,21.0898 -20.53,31.6406 l -15.27,34.7184 -0.78,0.262 -5.91,-24.7108"
         style="fill:#231f20;fill-opacity:1;fill-rule:nonzero;stroke:none"
         transform="matrix(0.13333333,0,0,-0.13333333,0,167.21333)" />
      <path
         id="path25"
         d="m 2.5,754.82 v 10"
         style="fill:none;stroke:#231f20;stroke-width:5;stroke-linecap:butt;stroke-linejoin:miter;stroke-miterlimit:10;stroke-dasharray:none;stroke-opacity:1"
         transform="matrix(0.13333333,0,0,-0.13333333,0,167.21333)" />
      <path
         id="path26"
         d="M 2.5,785.168 V 1141.26"
         style="fill:none;stroke:#231f20;stroke-width:5;stroke-linecap:butt;stroke-linejoin:miter;stroke-miterlimit:10;stroke-dasharray:20.348, 20.348;stroke-dashoffset:0;stroke-opacity:1"
         transform="matrix(0.13333333,0,0,-0.13333333,0,167.21333)" />
      <path
         id="path27"
         d="m 2.5,1151.43 v 10"
         style="fill:none;stroke:#231f20;stroke-width:5;stroke-linecap:butt;stroke-linejoin:miter;stroke-miterlimit:10;stroke-dasharray:none;stroke-opacity:1"
         transform="matrix(0.13333333,0,0,-0.13333333,0,167.21333)" />
      <path
         id="path28"
         d="M 1667.41,38 V 48"
         style="fill:none;stroke:#231f20;stroke-width:5;stroke-linecap:butt;stroke-linejoin:miter;stroke-miterlimit:10;stroke-dasharray:none;stroke-opacity:1"
         transform="matrix(0.13333333,0,0,-0.13333333,0,167.21333)" />
      <path
         id="path29"
         d="M 1667.41,67.8984 V 734.629"
         style="fill:none;stroke:#231f20;stroke-width:5;stroke-linecap:butt;stroke-linejoin:miter;stroke-miterlimit:10;stroke-dasharray:19.9023, 19.9023;stroke-dashoffset:0;stroke-opacity:1"
         transform="matrix(0.13333333,0,0,-0.13333333,0,167.21333)" />
      <path
         id="path30"
         d="m 1667.41,744.578 v 10"
         style="fill:none;stroke:#231f20;stroke-width:5;stroke-linecap:butt;stroke-linejoin:miter;stroke-miterlimit:10;stroke-dasharray:none;stroke-opacity:1"
         transform="matrix(0.13333333,0,0,-0.13333333,0,167.21333)" />
      <path
         id="path31"
         d="m 1104.05,594.805 c -41.87,-41.875 -99.7,-67.766 -163.589,-67.766"
         style="fill:none;stroke:#231f20;stroke-width:5;stroke-linecap:butt;stroke-linejoin:miter;stroke-miterlimit:10;stroke-dasharray:none;stroke-opacity:1"
         transform="matrix(0.13333333,0,0,-0.13333333,0,167.21333)" />
      <path
         id="path32"
         d="m 727.285,848.445 c 35.125,83.039 117.344,141.297 213.176,141.297"
         style="fill:none;stroke:#231f20;stroke-width:5;stroke-linecap:butt;stroke-linejoin:miter;stroke-miterlimit:10;stroke-dasharray:none;stroke-opacity:1"
         transform="matrix(0.13333333,0,0,-0.13333333,0,167.21333)" />
    </g>
  </g>
</svg>
