<?xml version="1.0" encoding="UTF-8" standalone="no"?>
<!-- Created with Inkscape (http://www.inkscape.org/) -->

<svg
   version="1.1"
   id="svg1"
   width="239.96001"
   height="108.94667"
   viewBox="0 0 239.96001 108.94667"
   sodipodi:docname="pha09f07.eps"
   xmlns:inkscape="http://www.inkscape.org/namespaces/inkscape"
   xmlns:sodipodi="http://sodipodi.sourceforge.net/DTD/sodipodi-0.dtd"
   xmlns="http://www.w3.org/2000/svg"
   xmlns:svg="http://www.w3.org/2000/svg">
  <defs
     id="defs1" />
  <sodipodi:namedview
     id="namedview1"
     pagecolor="#ffffff"
     bordercolor="#000000"
     borderopacity="0.25"
     inkscape:showpageshadow="2"
     inkscape:pageopacity="0.0"
     inkscape:pagecheckerboard="0"
     inkscape:deskcolor="#d1d1d1">
    <inkscape:page
       x="0"
       y="0"
       inkscape:label="1"
       id="page1"
       width="239.96001"
       height="108.94667"
       margin="0"
       bleed="0" />
  </sodipodi:namedview>
  <g
     id="g1"
     inkscape:groupmode="layer"
     inkscape:label="1">
    <g
       id="group-R5">
      <g
         id="g2"
         aria-label="ω&#10;o?&#10;ω&#10;r?&#10;ω&#10;o&#10;ω&#10;r&#10;θ&#10;o&#10;θ&#10;r&#10;ω&#10;ok&#10;ω&#10;rk"
         transform="matrix(1.3333333,0,0,1.3333333,17.047333,99.90604)">
        <path
           id="path2"
           d="M 4.3590312,-3.8435925 C 4.652,-3.58578 4.8629375,-3.1287487 4.8629375,-2.46078 4.8512187,-1.4529675 4.4645,-0.40999875 3.7262187,-0.40999875 c -0.3046875,0 -0.515625,-0.3046875 -0.4921875,-0.87890625 0.023437,-0.46875 0.234375,-1.359375 0.3515625,-1.7226562 L 3.527,-3.0467175 2.8590312,-2.9060925 c -0.035156,0.28125 -0.09375,0.75 -0.1875,1.1367188 -0.1992187,0.8554687 -0.5625,1.31249995 -0.9492187,1.31249995 -0.28125,0 -0.5390625,-0.33984375 -0.5390625,-0.99609375 0,-1.0078125 0.46875,-1.921875 1.1601562,-2.4492187 L 2.2027812,-4.101405 c -1.0429687,0.5390625 -1.75781245,1.5585938 -1.75781245,2.765625 0,0.9375 0.421875,1.44140625 0.93749995,1.44140625 0.3867188,0 0.9023438,-0.3984375 1.2304688,-0.890625 0.046875,0.50390625 0.328125,0.890625 0.7617187,0.890625 0.375,0 0.7382813,-0.22265625 1.0664063,-0.515625 0.5625,-0.52734375 0.9960937,-1.30078125 0.9960937,-2.21484375 0,-0.9023437 -0.3984375,-1.4179687 -0.6914062,-1.4179687 -0.1523438,0 -0.3164063,0.070312 -0.375,0.1289062 z m 0,0"
           style="fill:#231f20;fill-opacity:1;fill-rule:nonzero;stroke:none" />
        <path
           id="path3"
           d="m 6.7379375,-0.69417844 c -0.5507813,0 -1.3125,0.45703125 -1.3125,1.44140625 0,0.66796879 0.4921875,1.32421879 1.3125,1.32421879 0.5976562,0 1.3007812,-0.4570313 1.3007812,-1.42968754 0,-0.73828125 -0.5507812,-1.3359375 -1.3007812,-1.3359375 z m -0.058594,0.19921875 c 0.515625,0 0.8085938,0.57421875 0.8085938,1.27734375 0,0.82031254 -0.3164063,1.08984374 -0.6796875,1.08984374 -0.4921875,0 -0.8203125,-0.5625 -0.8203125,-1.31249999 0,-0.6796875 0.3164062,-1.0546875 0.6914062,-1.0546875 z m 0,0"
           style="fill:#231f20;fill-opacity:1;fill-rule:nonzero;stroke:none" />
        <path
           id="path4"
           d="m 11.765281,1.7901966 h -1.464844 v -3.0351563 c 0,-0.070312 -0.03516,-0.1054687 -0.09375,-0.1054687 -0.05859,0 -0.09375,0.035156 -0.09375,0.1054687 V 1.7901966 H 8.6480937 c -0.070312,0 -0.1054687,0.035156 -0.1054687,0.1054687 0,0.058594 0.035156,0.09375 0.1054687,0.09375 h 3.1171873 c 0.07031,0 0.09375,-0.035156 0.09375,-0.09375 0,-0.070312 -0.02344,-0.1054687 -0.09375,-0.1054687 z m 0,0"
           style="fill:#231f20;fill-opacity:1;fill-rule:nonzero;stroke:none" />
        <path
           id="path5"
           d="m 143.31704,-3.8435925 c 0.29297,0.2578125 0.50391,0.7148438 0.50391,1.3828125 -0.0117,1.0078125 -0.39844,2.05078125 -1.13672,2.05078125 -0.30469,0 -0.51563,-0.3046875 -0.49219,-0.87890625 0.0234,-0.46875 0.23437,-1.359375 0.35156,-1.7226562 l -0.0586,-0.035156 -0.66797,0.140625 c -0.0352,0.28125 -0.0937,0.75 -0.1875,1.1367188 -0.19922,0.8554687 -0.5625,1.31249995 -0.94922,1.31249995 -0.28125,0 -0.53906,-0.33984375 -0.53906,-0.99609375 0,-1.0078125 0.46875,-1.921875 1.16015,-2.4492187 l -0.14062,-0.1992188 c -1.04297,0.5390625 -1.75781,1.5585938 -1.75781,2.765625 0,0.9375 0.42187,1.44140625 0.9375,1.44140625 0.38672,0 0.90234,-0.3984375 1.23047,-0.890625 0.0469,0.50390625 0.32812,0.890625 0.76171,0.890625 0.375,0 0.73829,-0.22265625 1.06641,-0.515625 0.5625,-0.52734375 0.99609,-1.30078125 0.99609,-2.21484375 0,-0.9023437 -0.39843,-1.4179687 -0.6914,-1.4179687 -0.15235,0 -0.31641,0.070312 -0.375,0.1289062 z m 0,0"
           style="fill:#231f20;fill-opacity:1;fill-rule:nonzero;stroke:none" />
        <path
           id="path6"
           d="m 145.42934,-0.06136594 v -0.64453125 c -0.29297,0.1171875 -0.55078,0.1875 -0.85547,0.24609375 v 0.12890625 c 0.35157,0.046875 0.375,0.0703125 0.375,0.46875 V 1.3800403 c 0,0.3984375 -0.0351,0.4335938 -0.41015,0.46875 v 0.1523438 h 1.38281 V 1.8487903 c -0.46875,-0.035156 -0.49219,-0.070312 -0.49219,-0.46875 V 0.27847781 c 0.12891,-0.33984375 0.31641,-0.515625 0.48047,-0.515625 0.0937,0 0.16406,0.0351563 0.2461,0.12890625 0.0351,0.03515625 0.0937,0.03515625 0.16406,0.01171875 0.11719,-0.05859375 0.1875,-0.17578125 0.1875,-0.29296875 0,-0.15234375 -0.14063,-0.3046875 -0.33985,-0.3046875 -0.29296,0 -0.55078,0.33984375 -0.72656,0.6328125 z m 0,0"
           style="fill:#231f20;fill-opacity:1;fill-rule:nonzero;stroke:none" />
        <path
           id="path7"
           d="m 150.3102,1.7901966 h -1.46484 v -3.0351563 c 0,-0.070312 -0.0352,-0.1054687 -0.0937,-0.1054687 -0.0586,0 -0.0937,0.035156 -0.0937,0.1054687 v 3.0351563 h -1.46484 c -0.0703,0 -0.10547,0.035156 -0.10547,0.1054687 0,0.058594 0.0352,0.09375 0.10547,0.09375 h 3.11718 c 0.0703,0 0.0937,-0.035156 0.0937,-0.09375 0,-0.070312 -0.0234,-0.1054687 -0.0937,-0.1054687 z m 0,0"
           style="fill:#231f20;fill-opacity:1;fill-rule:nonzero;stroke:none" />
        <path
           id="path8"
           d="m 14.595359,-71.343592 c 0.292969,0.257812 0.503907,0.714843 0.503907,1.382812 -0.01172,1.007813 -0.398438,2.050781 -1.136719,2.050781 -0.304688,0 -0.515625,-0.304687 -0.492188,-0.878906 0.02344,-0.46875 0.234375,-1.359375 0.351563,-1.722656 l -0.05859,-0.03516 -0.667969,0.140625 c -0.03516,0.28125 -0.09375,0.75 -0.1875,1.136718 -0.199218,0.855469 -0.5625,1.3125 -0.949218,1.3125 -0.28125,0 -0.539063,-0.339843 -0.539063,-0.996093 0,-1.007813 0.46875,-1.921875 1.160156,-2.449219 l -0.140625,-0.199219 c -1.042968,0.539063 -1.757812,1.558594 -1.757812,2.765625 0,0.9375 0.421875,1.441406 0.9375,1.441406 0.386719,0 0.902344,-0.398437 1.230469,-0.890625 0.04687,0.503907 0.328125,0.890625 0.761718,0.890625 0.375,0 0.738282,-0.222656 1.066407,-0.515625 0.5625,-0.527343 0.996093,-1.300781 0.996093,-2.214843 0,-0.902344 -0.398437,-1.417969 -0.691406,-1.417969 -0.152344,0 -0.316406,0.07031 -0.375,0.128906 z m 0,0"
           style="fill:#231f20;fill-opacity:1;fill-rule:nonzero;stroke:none" />
        <path
           id="path9"
           d="m 16.971336,-68.194178 c -0.550781,0 -1.3125,0.457031 -1.3125,1.441406 0,0.667969 0.492187,1.324219 1.3125,1.324219 0.597656,0 1.300781,-0.457032 1.300781,-1.429688 0,-0.738281 -0.550781,-1.335937 -1.300781,-1.335937 z m -0.05859,0.199218 c 0.515625,0 0.808594,0.574219 0.808594,1.277344 0,0.820313 -0.316406,1.089844 -0.679688,1.089844 -0.492187,0 -0.820312,-0.5625 -0.820312,-1.3125 0,-0.679688 0.316406,-1.054688 0.691406,-1.054688 z m 0,0"
           style="fill:#231f20;fill-opacity:1;fill-rule:nonzero;stroke:none" />
        <path
           id="path10"
           d="m 138.26333,-71.343592 c 0.29297,0.257812 0.5039,0.714843 0.5039,1.382812 -0.0117,1.007813 -0.39843,2.050781 -1.13671,2.050781 -0.30469,0 -0.51563,-0.304687 -0.49219,-0.878906 0.0234,-0.46875 0.23437,-1.359375 0.35156,-1.722656 l -0.0586,-0.03516 -0.66797,0.140625 c -0.0352,0.28125 -0.0937,0.75 -0.1875,1.136718 -0.19922,0.855469 -0.5625,1.3125 -0.94922,1.3125 -0.28125,0 -0.53906,-0.339843 -0.53906,-0.996093 0,-1.007813 0.46875,-1.921875 1.16015,-2.449219 l -0.14062,-0.199219 c -1.04297,0.539063 -1.75781,1.558594 -1.75781,2.765625 0,0.9375 0.42187,1.441406 0.9375,1.441406 0.38671,0 0.90234,-0.398437 1.23046,-0.890625 0.0469,0.503907 0.32813,0.890625 0.76172,0.890625 0.375,0 0.73828,-0.222656 1.06641,-0.515625 0.5625,-0.527343 0.99609,-1.300781 0.99609,-2.214843 0,-0.902344 -0.39843,-1.417969 -0.6914,-1.417969 -0.15235,0 -0.31641,0.07031 -0.375,0.128906 z m 0,0"
           style="fill:#231f20;fill-opacity:1;fill-rule:nonzero;stroke:none" />
        <path
           id="path11"
           d="m 140.3727,-67.561366 v -0.644531 c -0.29297,0.117187 -0.55078,0.1875 -0.85547,0.246094 v 0.128906 c 0.35157,0.04687 0.375,0.07031 0.375,0.46875 v 1.242187 c 0,0.398438 -0.0352,0.433594 -0.41015,0.46875 v 0.152344 h 1.38281 v -0.152344 c -0.46875,-0.03516 -0.49219,-0.07031 -0.49219,-0.46875 v -1.101562 c 0.12891,-0.339844 0.31641,-0.515625 0.48047,-0.515625 0.0937,0 0.16406,0.03516 0.2461,0.128906 0.0352,0.03516 0.0937,0.03516 0.16406,0.01172 0.11719,-0.05859 0.1875,-0.175781 0.1875,-0.292969 0,-0.152344 -0.14063,-0.304687 -0.33985,-0.304687 -0.29296,0 -0.55078,0.339843 -0.72656,0.632812 z m 0,0"
           style="fill:#231f20;fill-opacity:1;fill-rule:nonzero;stroke:none" />
        <path
           id="path12"
           d="m 64.194969,-38.118007 c -1.59375,0 -2.613282,2.671875 -2.613282,4.558594 0,0.9375 0.257813,1.957031 1.265625,1.957031 1.617188,0 2.566407,-2.695312 2.566407,-4.617187 0,-0.972656 -0.257813,-1.898438 -1.21875,-1.898438 z m -1.699219,2.917969 c 0.269531,-1.347656 0.84375,-2.613281 1.570312,-2.613281 0.585938,0 0.644532,0.890625 0.644532,1.371094 0,0.410156 -0.05859,0.796875 -0.105469,1.242187 z m 2.039062,0.421875 c -0.246093,1.429688 -0.820312,2.859375 -1.570312,2.859375 -0.527344,0 -0.667969,-0.773437 -0.667969,-1.476562 0,-0.46875 0.05859,-0.925782 0.128906,-1.382813 z m 0,0"
           style="fill:#231f20;fill-opacity:1;fill-rule:nonzero;stroke:none" />
        <path
           id="path13"
           d="m 66.52407,-32.405116 c -0.550781,0 -1.3125,0.457031 -1.3125,1.441406 0,0.667969 0.492188,1.324219 1.3125,1.324219 0.597657,0 1.300782,-0.457031 1.300782,-1.429687 0,-0.738282 -0.550782,-1.335938 -1.300782,-1.335938 z m -0.05859,0.199219 c 0.515625,0 0.808593,0.574219 0.808593,1.277344 0,0.820312 -0.316406,1.089843 -0.679687,1.089843 -0.492188,0 -0.820313,-0.5625 -0.820313,-1.3125 0,-0.679687 0.316407,-1.054687 0.691407,-1.054687 z m 0,0"
           style="fill:#231f20;fill-opacity:1;fill-rule:nonzero;stroke:none" />
        <path
           id="path14"
           d="m 89.202781,-37.118983 c -1.59375,0 -2.613281,2.671875 -2.613281,4.558594 0,0.9375 0.257812,1.957031 1.265625,1.957031 1.617187,0 2.566406,-2.695313 2.566406,-4.617188 0,-0.972656 -0.257812,-1.898437 -1.21875,-1.898437 z m -1.699219,2.917969 c 0.269532,-1.347657 0.84375,-2.613282 1.570313,-2.613282 0.585937,0 0.644531,0.890625 0.644531,1.371094 0,0.410156 -0.05859,0.796875 -0.105469,1.242188 z m 2.039063,0.421875 c -0.246094,1.429687 -0.820313,2.859375 -1.570313,2.859375 -0.527343,0 -0.667968,-0.773438 -0.667968,-1.476563 0,-0.46875 0.05859,-0.925781 0.128906,-1.382812 z m 0,0"
           style="fill:#231f20;fill-opacity:1;fill-rule:nonzero;stroke:none" />
        <path
           id="path15"
           d="m 91.083641,-30.77035 v -0.644532 c -0.292969,0.117188 -0.550782,0.1875 -0.855469,0.246094 v 0.128906 c 0.351562,0.04687 0.375,0.07031 0.375,0.46875 v 1.242188 c 0,0.398437 -0.03516,0.433594 -0.410156,0.46875 v 0.152344 h 1.382812 v -0.152344 c -0.46875,-0.03516 -0.492187,-0.07031 -0.492187,-0.46875 v -1.101563 c 0.128906,-0.339843 0.316406,-0.515625 0.480468,-0.515625 0.09375,0 0.164063,0.03516 0.246094,0.128907 0.03516,0.03516 0.09375,0.03516 0.164063,0.01172 0.117187,-0.05859 0.1875,-0.175781 0.1875,-0.292968 0,-0.152344 -0.140625,-0.304688 -0.339844,-0.304688 -0.292969,0 -0.550781,0.339844 -0.726563,0.632813 z m 0,0"
           style="fill:#231f20;fill-opacity:1;fill-rule:nonzero;stroke:none" />
        <path
           id="path16"
           d="m 68.176414,-69.240077 c 0.292969,0.257813 0.503906,0.714844 0.503906,1.382813 -0.01172,1.007812 -0.398437,2.050781 -1.136718,2.050781 -0.304688,0 -0.515625,-0.304688 -0.492188,-0.878906 0.02344,-0.46875 0.234375,-1.359375 0.351563,-1.722657 l -0.05859,-0.03516 -0.667969,0.140625 c -0.03516,0.28125 -0.09375,0.75 -0.1875,1.136719 -0.199219,0.855469 -0.5625,1.3125 -0.949219,1.3125 -0.28125,0 -0.539062,-0.339844 -0.539062,-0.996094 0,-1.007812 0.46875,-1.921875 1.160156,-2.449219 l -0.140625,-0.199218 c -1.042969,0.539062 -1.757812,1.558593 -1.757812,2.765625 0,0.9375 0.421875,1.441406 0.9375,1.441406 0.386718,0 0.902343,-0.398438 1.230468,-0.890625 0.04687,0.503906 0.328125,0.890625 0.761719,0.890625 0.375,0 0.738281,-0.222656 1.066406,-0.515625 0.5625,-0.527344 0.996094,-1.300781 0.996094,-2.214844 0,-0.902344 -0.398437,-1.417969 -0.691406,-1.417969 -0.152344,0 -0.316406,0.07031 -0.375,0.128907 z m 0,0"
           style="fill:#231f20;fill-opacity:1;fill-rule:nonzero;stroke:none" />
        <path
           id="path17"
           d="m 70.552391,-66.093592 c -0.550782,0 -1.3125,0.457031 -1.3125,1.441406 0,0.667969 0.492187,1.324219 1.3125,1.324219 0.597656,0 1.300781,-0.457032 1.300781,-1.429688 0,-0.738281 -0.550781,-1.335937 -1.300781,-1.335937 z m -0.05859,0.199218 c 0.515625,0 0.808594,0.574219 0.808594,1.277344 0,0.820313 -0.316407,1.089844 -0.679688,1.089844 -0.492187,0 -0.820312,-0.5625 -0.820312,-1.3125 0,-0.679688 0.316406,-1.054688 0.691406,-1.054688 z m 0,0"
           style="fill:#231f20;fill-opacity:1;fill-rule:nonzero;stroke:none" />
        <path
           id="path18"
           d="m 73.906883,-67.05453 c 0,-0.02344 -0.01172,-0.04687 -0.02344,-0.05859 -0.02344,-0.02344 -0.04687,-0.03516 -0.05859,-0.03516 -0.02344,0 -0.05859,0.02344 -0.105469,0.05859 v 4.851562 c 0.04687,0.03516 0.08203,0.05859 0.105469,0.05859 0.05859,0 0.08203,-0.02344 0.08203,-0.08203 z m -0.984375,-0.03516 -0.05859,-0.04687 c -0.01172,-0.01172 -0.02344,-0.01172 -0.03516,-0.01172 -0.05859,0 -0.09375,0.03516 -0.09375,0.09375 v 4.792969 c 0,0.01172 0.01172,0.03516 0.03516,0.05859 0.02344,0.01172 0.03516,0.02344 0.05859,0.02344 0.02344,0 0.05859,-0.02344 0.09375,-0.05859 z m 0,0"
           style="fill:#231f20;fill-opacity:1;fill-rule:nonzero;stroke:none" />
        <path
           id="path19"
           d="m 83.844383,-69.240077 c 0.292969,0.257813 0.503906,0.714844 0.503906,1.382813 -0.01172,1.007812 -0.398437,2.050781 -1.136719,2.050781 -0.304687,0 -0.515625,-0.304688 -0.492187,-0.878906 0.02344,-0.46875 0.234375,-1.359375 0.351562,-1.722657 l -0.05859,-0.03516 -0.667969,0.140625 c -0.03516,0.28125 -0.09375,0.75 -0.1875,1.136719 -0.199219,0.855469 -0.5625,1.3125 -0.949219,1.3125 -0.28125,0 -0.539062,-0.339844 -0.539062,-0.996094 0,-1.007812 0.46875,-1.921875 1.160156,-2.449219 l -0.140625,-0.199218 c -1.042969,0.539062 -1.757813,1.558593 -1.757813,2.765625 0,0.9375 0.421875,1.441406 0.9375,1.441406 0.386719,0 0.902344,-0.398438 1.230469,-0.890625 0.04687,0.503906 0.328125,0.890625 0.761719,0.890625 0.375,0 0.738281,-0.222656 1.066406,-0.515625 0.5625,-0.527344 0.996094,-1.300781 0.996094,-2.214844 0,-0.902344 -0.398438,-1.417969 -0.691406,-1.417969 -0.152344,0 -0.316407,0.07031 -0.375,0.128907 z m 0,0"
           style="fill:#231f20;fill-opacity:1;fill-rule:nonzero;stroke:none" />
        <path
           id="path20"
           d="m 85.956687,-65.46078 v -0.644531 c -0.292968,0.117187 -0.550781,0.1875 -0.855468,0.246094 v 0.128906 c 0.351562,0.04687 0.375,0.07031 0.375,0.46875 v 1.242187 c 0,0.398438 -0.03516,0.433594 -0.410157,0.46875 v 0.152344 h 1.382813 v -0.152344 c -0.46875,-0.03516 -0.492188,-0.07031 -0.492188,-0.46875 v -1.101562 c 0.128907,-0.339844 0.316407,-0.515625 0.480469,-0.515625 0.09375,0 0.164063,0.03516 0.246094,0.128906 0.03516,0.03516 0.09375,0.03516 0.164062,0.01172 0.117188,-0.05859 0.1875,-0.175781 0.1875,-0.292969 0,-0.152344 -0.140625,-0.304687 -0.339843,-0.304687 -0.292969,0 -0.550782,0.339843 -0.726563,0.632812 z m 0,0"
           style="fill:#231f20;fill-opacity:1;fill-rule:nonzero;stroke:none" />
        <path
           id="path21"
           d="m 89.158836,-67.05453 c 0,-0.02344 -0.01172,-0.04687 -0.02344,-0.05859 -0.02344,-0.02344 -0.04687,-0.03516 -0.05859,-0.03516 -0.02344,0 -0.05859,0.02344 -0.105469,0.05859 v 4.851562 c 0.04687,0.03516 0.08203,0.05859 0.105469,0.05859 0.05859,0 0.08203,-0.02344 0.08203,-0.08203 z m -0.984375,-0.03516 -0.05859,-0.04687 c -0.01172,-0.01172 -0.02344,-0.01172 -0.03516,-0.01172 -0.05859,0 -0.09375,0.03516 -0.09375,0.09375 v 4.792969 c 0,0.01172 0.01172,0.03516 0.03516,0.05859 0.02344,0.01172 0.03516,0.02344 0.05859,0.02344 0.02344,0 0.05859,-0.02344 0.09375,-0.05859 z m 0,0"
           style="fill:#231f20;fill-opacity:1;fill-rule:nonzero;stroke:none" />
      </g>
      <path
         id="path22"
         d="m 1665.07,137.078 h 134.65"
         style="fill:none;stroke:#231f20;stroke-width:5;stroke-linecap:butt;stroke-linejoin:miter;stroke-miterlimit:10;stroke-dasharray:none;stroke-opacity:1"
         transform="matrix(0.13333333,0,0,-0.13333333,0,108.94667)" />
      <path
         id="path23"
         d="M 180.891,137.078 H 1616.15"
         style="fill:none;stroke:#231f20;stroke-width:7.5;stroke-linecap:butt;stroke-linejoin:miter;stroke-miterlimit:10;stroke-dasharray:none;stroke-opacity:1"
         transform="matrix(0.13333333,0,0,-0.13333333,0,108.94667)" />
      <path
         id="path24"
         d="m 191.656,137.078 13.149,21.621 -0.739,0.492 -35.25,-14.003 c -12.285,-2.7 -24.562,-5.403 -36.843,-8.11 12.281,-2.703 24.558,-5.398 36.843,-8.101 l 35.25,-14.004 0.739,0.371 -13.149,21.734"
         style="fill:#231f20;fill-opacity:1;fill-rule:nonzero;stroke:none"
         transform="matrix(0.13333333,0,0,-0.13333333,0,108.94667)" />
      <path
         id="path25"
         d="m 1605.38,137.078 -13.14,21.621 0.74,0.492 35.24,-14.003 c 12.29,-2.7 24.56,-5.403 36.85,-8.11 -12.29,-2.703 -24.56,-5.398 -36.85,-8.101 l -35.24,-14.004 -0.74,0.371 13.14,21.734"
         style="fill:#231f20;fill-opacity:1;fill-rule:nonzero;stroke:none"
         transform="matrix(0.13333333,0,0,-0.13333333,0,108.94667)" />
      <path
         id="path26"
         d="M 0,137.078 H 131.973"
         style="fill:none;stroke:#231f20;stroke-width:5;stroke-linecap:butt;stroke-linejoin:miter;stroke-miterlimit:10;stroke-dasharray:none;stroke-opacity:1"
         transform="matrix(0.13333333,0,0,-0.13333333,0,108.94667)" />
      <path
         id="path27"
         d="M 897.961,138.984 V 764.488"
         style="fill:none;stroke:#231f20;stroke-width:7.5;stroke-linecap:butt;stroke-linejoin:miter;stroke-miterlimit:10;stroke-dasharray:none;stroke-opacity:1"
         transform="matrix(0.13333333,0,0,-0.13333333,0,108.94667)" />
      <path
         id="path28"
         d="m 897.961,753.723 -21.617,-13.153 -0.492,0.739 14.003,35.25 c 2.7,12.285 5.399,24.566 8.106,36.843 2.699,-12.277 5.398,-24.558 8.102,-36.843 l 14.003,-35.25 -0.371,-0.739 -21.734,13.153"
         style="fill:#231f20;fill-opacity:1;fill-rule:nonzero;stroke:none"
         transform="matrix(0.13333333,0,0,-0.13333333,0,108.94667)" />
      <path
         id="path29"
         d="M 173.484,776.555 897.117,140.852"
         style="fill:none;stroke:#231f20;stroke-width:7.5;stroke-linecap:butt;stroke-linejoin:miter;stroke-miterlimit:10;stroke-dasharray:none;stroke-opacity:1"
         transform="matrix(0.13333333,0,0,-0.13333333,0,108.94667)" />
      <path
         id="path30"
         d="m 181.578,769.445 24.145,7.563 -0.231,0.855 -35.722,12.742 c -11.008,6.079 -22.02,12.153 -33.032,18.227 7.442,-10.137 14.887,-20.266 22.328,-30.402 l 17.243,-33.785 0.8,-0.211 4.469,25.011"
         style="fill:#231f20;fill-opacity:1;fill-rule:nonzero;stroke:none"
         transform="matrix(0.13333333,0,0,-0.13333333,0,108.94667)" />
      <path
         id="path31"
         d="M 1623.01,775.352 897.961,138.984"
         style="fill:none;stroke:#231f20;stroke-width:7.5;stroke-linecap:butt;stroke-linejoin:miter;stroke-miterlimit:10;stroke-dasharray:none;stroke-opacity:1"
         transform="matrix(0.13333333,0,0,-0.13333333,0,108.94667)" />
      <path
         id="path32"
         d="m 1614.91,768.246 4.38,-24.922 0.88,0.125 17.25,33.774 c 7.45,10.132 14.89,20.261 22.35,30.394 -11.02,-6.07 -22.03,-12.144 -33.04,-18.211 l -35.73,-12.73 -0.32,-0.762 24.23,-7.668"
         style="fill:#231f20;fill-opacity:1;fill-rule:nonzero;stroke:none"
         transform="matrix(0.13333333,0,0,-0.13333333,0,108.94667)" />
      <path
         id="path33"
         d="m 132.48,137.629 v 10"
         style="fill:none;stroke:#231f20;stroke-width:5;stroke-linecap:butt;stroke-linejoin:miter;stroke-miterlimit:10;stroke-dasharray:none;stroke-opacity:1"
         transform="matrix(0.13333333,0,0,-0.13333333,0,108.94667)" />
      <path
         id="path34"
         d="M 132.48,167.402 V 790.395"
         style="fill:none;stroke:#231f20;stroke-width:5;stroke-linecap:butt;stroke-linejoin:miter;stroke-miterlimit:10;stroke-dasharray:19.7775, 19.7775;stroke-dashoffset:0;stroke-opacity:1"
         transform="matrix(0.13333333,0,0,-0.13333333,0,108.94667)" />
      <path
         id="path35"
         d="m 132.48,800.285 v 10 c 0,0 3.426,0 9.961,0"
         style="fill:none;stroke:#231f20;stroke-width:5;stroke-linecap:butt;stroke-linejoin:miter;stroke-miterlimit:10;stroke-dasharray:none;stroke-opacity:1"
         transform="matrix(0.13333333,0,0,-0.13333333,0,108.94667)" />
      <path
         id="path36"
         d="m 162.566,810.289 c 198.055,0.035 1311.994,0.234 1481.544,0.258"
         style="fill:none;stroke:#231f20;stroke-width:5;stroke-linecap:butt;stroke-linejoin:miter;stroke-miterlimit:10;stroke-dasharray:20.156, 20.156;stroke-dashoffset:0;stroke-opacity:1"
         transform="matrix(0.13333333,0,0,-0.13333333,0,108.94667)" />
      <path
         id="path37"
         d="m 1654.23,810.547 c 4.78,0 8.14,0 9.95,0 0,0 -0.01,-3.484 -0.01,-9.961"
         style="fill:none;stroke:#231f20;stroke-width:5;stroke-linecap:butt;stroke-linejoin:miter;stroke-miterlimit:10;stroke-dasharray:none;stroke-opacity:1"
         transform="matrix(0.13333333,0,0,-0.13333333,0,108.94667)" />
      <path
         id="path38"
         d="m 1664.16,780.766 c -0.04,-115.102 -0.05,-529.211 -0.05,-625.09"
         style="fill:none;stroke:#231f20;stroke-width:5;stroke-linecap:butt;stroke-linejoin:miter;stroke-miterlimit:10;stroke-dasharray:19.842, 19.842;stroke-dashoffset:0;stroke-opacity:1"
         transform="matrix(0.13333333,0,0,-0.13333333,0,108.94667)" />
      <path
         id="path39"
         d="m 1664.11,145.723 c 0,-6.473 0,-9.961 0,-9.961"
         style="fill:none;stroke:#231f20;stroke-width:5;stroke-linecap:butt;stroke-linejoin:miter;stroke-miterlimit:10;stroke-dasharray:none;stroke-opacity:1"
         transform="matrix(0.13333333,0,0,-0.13333333,0,108.94667)" />
      <path
         id="path40"
         d="m 720.719,294.07 c 43.051,49.516 106.5,80.825 177.265,80.825 70.375,0 133.526,-30.969 176.556,-80.012"
         style="fill:none;stroke:#231f20;stroke-width:5;stroke-linecap:butt;stroke-linejoin:miter;stroke-miterlimit:10;stroke-dasharray:none;stroke-opacity:1"
         transform="matrix(0.13333333,0,0,-0.13333333,0,108.94667)" />
    </g>
  </g>
</svg>
