<?xml version="1.0" encoding="UTF-8" standalone="no"?>
<!-- Created with Inkscape (http://www.inkscape.org/) -->

<svg
   version="1.1"
   id="svg1"
   width="276.06668"
   height="148.06667"
   viewBox="0 0 276.06668 148.06667"
   sodipodi:docname="pha09f53.eps"
   xmlns:inkscape="http://www.inkscape.org/namespaces/inkscape"
   xmlns:sodipodi="http://sodipodi.sourceforge.net/DTD/sodipodi-0.dtd"
   xmlns="http://www.w3.org/2000/svg"
   xmlns:svg="http://www.w3.org/2000/svg">
  <defs
     id="defs1" />
  <sodipodi:namedview
     id="namedview1"
     pagecolor="#ffffff"
     bordercolor="#000000"
     borderopacity="0.25"
     inkscape:showpageshadow="2"
     inkscape:pageopacity="0.0"
     inkscape:pagecheckerboard="0"
     inkscape:deskcolor="#d1d1d1">
    <inkscape:page
       x="0"
       y="0"
       inkscape:label="1"
       id="page1"
       width="276.06668"
       height="148.06667"
       margin="0"
       bleed="0" />
  </sodipodi:namedview>
  <g
     id="g1"
     inkscape:groupmode="layer"
     inkscape:label="1">
    <g
       id="group-R5">
      <g
         id="g2"
         aria-label="s = 0.5&#10;s = 0.1&#10;–ππ&#10;1&#10;2"
         transform="matrix(1.3333333,0,0,1.3333333,245.36,65.562)">
        <path
           id="path2"
           d="m 1.0190625,0.10584375 c 0.7265625,0 1.6289062,-0.66796875 1.6289062,-1.35937495 0,-0.3867188 -0.2226562,-0.6445313 -0.7617187,-1.0546875 -0.3164063,-0.2460938 -0.5859375,-0.46875 -0.5859375,-0.796875 0,-0.3046875 0.234375,-0.5039063 0.4921875,-0.5039063 0.3046875,0 0.515625,0.1757813 0.703125,0.4101563 0.046875,0.070312 0.1054687,0.082031 0.1992187,0.035156 0.1289063,-0.082031 0.2226563,-0.2226562 0.2226563,-0.375 0,-0.234375 -0.3046875,-0.5039062 -0.703125,-0.5039062 -0.2929688,0 -0.7265625,0.1875 -0.9960938,0.4335937 -0.3632812,0.3164063 -0.46874995,0.5976563 -0.46874995,0.8789063 0,0.4570312 0.37499995,0.7851562 0.78515625,1.0898437 0.421875,0.3398438 0.515625,0.5390625 0.515625,0.76171875 0,0.28125 -0.234375,0.5390625 -0.5976563,0.5390625 -0.2929687,0 -0.6210937,-0.19921875 -0.8554687,-0.55078125 C 0.5503125,-0.948844 0.48,-0.9722815 0.3628125,-0.9136877 c -0.15234375,0.0820313 -0.26953125,0.22265625 -0.2578125,0.375 0,0.31640625 0.4921875,0.64453125 0.9140625,0.64453145 z m 0,0"
           style="fill:#231f20;fill-opacity:1;fill-rule:nonzero;stroke:none" />
        <path
           id="path3"
           d="M 9.8344922,-2.8941562 V -3.3394687 H 5.5454297 v 0.4453125 z m 0,1.6523437 V -1.687125 H 5.5454297 v 0.4453125 z M 14.495625,-5.718375 c -1.347656,0 -1.839844,1.6054688 -1.839844,2.9179688 0,1.4179687 0.480469,2.90624995 1.839844,2.90624995 1.359375,0 1.828125,-1.59374995 1.828125,-2.91796875 0,-1.3828125 -0.46875,-2.90625 -1.828125,-2.90625 z m 0,0.3046875 c 0.808594,0 1.03125,1.3242188 1.03125,2.6015625 0,1.265625 -0.222656,2.61328125 -1.03125,2.61328125 -0.773438,0 -1.042969,-1.35937495 -1.042969,-2.61328125 0,-1.2539062 0.222656,-2.6015625 1.042969,-2.6015625 z m 3.193359,5.51953125 c 0.28125,0 0.503907,-0.19921875 0.503907,-0.515625 0,-0.29296875 -0.222657,-0.515625 -0.503907,-0.515625 -0.292968,0 -0.503906,0.22265625 -0.503906,0.515625 0,0.31640625 0.210938,0.515625 0.503906,0.515625 z m 2.393555,-5.05078125 h 2.097656 L 22.41457,-5.530875 22.35598,-5.601187 H 19.78957 L 19.438008,-2.859 c 0.210937,-0.082031 0.550781,-0.1875 0.925781,-0.1875 0.984375,0 1.464844,0.5742188 1.464844,1.359375 0,0.6796875 -0.375,1.3359375 -1.136719,1.3359375 -0.550781,0 -0.914062,-0.29296875 -1.113281,-0.45703125 -0.08203,-0.0703125 -0.152344,-0.0585938 -0.234375,0 -0.105469,0.09375 -0.1875,0.2109375 -0.1875,0.29296875 -0.02344,0.10546875 0.02344,0.1875 0.140625,0.3046875 0.128906,0.12890625 0.515625,0.31640625 0.925781,0.31640625 C 20.703633,0.094125 21.301289,-0.14025 21.793477,-0.52696875 22.344258,-0.984 22.590352,-1.4879062 22.590352,-2.0386875 c 0,-0.7382812 -0.585938,-1.5117187 -1.734375,-1.5117187 -0.246094,0 -0.667969,0.140625 -1.007813,0.2695312 z m 0,0"
           style="fill:#231f20;fill-opacity:1;fill-rule:nonzero;stroke:none" />
        <path
           id="path4"
           d="m 1.0190625,12.105844 c 0.7265625,0 1.6289062,-0.667969 1.6289062,-1.359375 0,-0.386719 -0.2226562,-0.644531 -0.7617187,-1.0546877 C 1.5698437,9.4456875 1.3003125,9.2230313 1.3003125,8.8949063 1.3003125,8.5902188 1.5346875,8.391 1.7925,8.391 c 0.3046875,0 0.515625,0.1757813 0.703125,0.4101563 0.046875,0.070312 0.1054687,0.082031 0.1992187,0.035156 C 2.82375,8.7542813 2.9175,8.6136563 2.9175,8.4613125 c 0,-0.234375 -0.3046875,-0.5039062 -0.703125,-0.5039062 -0.2929688,0 -0.7265625,0.1875 -0.9960938,0.4335937 C 0.855,8.7074063 0.74953125,8.9886563 0.74953125,9.2699063 c 0,0.4570312 0.37499995,0.7851567 0.78515625,1.0898437 0.421875,0.339844 0.515625,0.539063 0.515625,0.761719 0,0.28125 -0.234375,0.539062 -0.5976563,0.539062 -0.2929687,0 -0.6210937,-0.199218 -0.8554687,-0.550781 C 0.5503125,11.05116 0.48,11.02772 0.3628125,11.08631 0.21046875,11.16834 0.09328125,11.308966 0.105,11.46131 c 0,0.316406 0.4921875,0.644531 0.9140625,0.644531 z m 0,0"
           style="fill:#231f20;fill-opacity:1;fill-rule:nonzero;stroke:none" />
        <path
           id="path5"
           d="M 9.8344922,9.1058438 V 8.6605313 H 5.5454297 v 0.4453125 z m 0,1.6523442 V 10.312875 H 5.5454297 v 0.445313 z M 14.495625,6.281625 c -1.347656,0 -1.839844,1.6054688 -1.839844,2.9179688 0,1.4179692 0.480469,2.9062502 1.839844,2.9062502 1.359375,0 1.828125,-1.59375 1.828125,-2.917969 0,-1.3828125 -0.46875,-2.90625 -1.828125,-2.90625 z m 0,0.3046875 c 0.808594,0 1.03125,1.3242188 1.03125,2.6015625 0,1.265625 -0.222656,2.613281 -1.03125,2.613281 -0.773438,0 -1.042969,-1.359375 -1.042969,-2.613281 0,-1.2539062 0.222656,-2.6015625 1.042969,-2.6015625 z m 3.193359,5.5195315 c 0.28125,0 0.503907,-0.199219 0.503907,-0.515625 0,-0.292969 -0.222657,-0.515625 -0.503907,-0.515625 -0.292968,0 -0.503906,0.222656 -0.503906,0.515625 0,0.316406 0.210938,0.515625 0.503906,0.515625 z m 4.479493,-0.105469 V 11.754281 C 21.348164,11.695688 21.28957,11.625375 21.28957,10.969125 v -4.6875 c -0.492187,0.1992188 -1.019531,0.375 -1.59375,0.46875 v 0.2109375 l 0.433594,0.011719 c 0.386719,0.023437 0.421875,0.070312 0.421875,0.5390625 v 3.457031 c 0,0.65625 -0.03516,0.726563 -0.855469,0.785156 v 0.246094 z m -201.969727,44.52832 v -0.46875 h -3.77344 v 0.46875 z m 0,0"
           style="fill:#231f20;fill-opacity:1;fill-rule:nonzero;stroke:none" />
        <path
           id="path6"
           d="m -174.52488,54.173227 c -0.16407,0.246093 -0.25782,0.257812 -0.49219,0.257812 -0.71484,0 -1.53516,-0.03516 -2.21484,-0.03516 -1.00782,0 -1.42969,0.515625 -1.67579,0.855469 l 0.16407,0.199218 c 0.32812,-0.351562 0.66797,-0.527343 1.18359,-0.515625 -0.17578,1.089844 -0.83203,2.859375 -1.37109,3.363282 l 0.0469,0.140625 c 0.15235,0 0.45703,-0.07031 0.69141,-0.199219 0.42187,-0.621094 0.84375,-2.261719 1.05469,-3.304688 0.38671,0 0.75,0.01172 1.27734,0.03516 -0.15234,0.644531 -0.36328,1.476562 -0.55078,2.414062 -0.17578,0.796875 0,1.054688 0.29297,1.054688 0.38672,0 0.84375,-0.316407 1.21875,-0.785157 l -0.11719,-0.222656 c -0.21094,0.1875 -0.50391,0.375 -0.64453,0.375 -0.10547,0 -0.15235,-0.152344 -0.0469,-0.65625 0.14063,-0.773437 0.30469,-1.570312 0.44532,-2.167969 0.16406,0 0.51562,0.01172 0.64453,-0.03516 0.0937,-0.117187 0.21093,-0.328125 0.32812,-0.679687 z m 154.819333,0 c -0.164062,0.246093 -0.257812,0.257812 -0.492187,0.257812 -0.714844,0 -1.535157,-0.03516 -2.214844,-0.03516 -1.007813,0 -1.429688,0.515625 -1.675781,0.855469 l 0.164062,0.199218 c 0.328125,-0.351562 0.667969,-0.527343 1.183594,-0.515625 -0.175781,1.089844 -0.832031,2.859375 -1.371094,3.363282 l 0.04687,0.140625 c 0.152344,0 0.457031,-0.07031 0.691406,-0.199219 0.421875,-0.621094 0.84375,-2.261719 1.054688,-3.304688 0.386719,0 0.75,0.01172 1.277344,0.03516 -0.152344,0.644531 -0.363282,1.476562 -0.550782,2.414062 -0.175781,0.796875 0,1.054688 0.292969,1.054688 0.386719,0 0.84375,-0.316407 1.21875,-0.785157 l -0.117187,-0.222656 c -0.210938,0.1875 -0.503907,0.375 -0.644532,0.375 -0.105468,0 -0.152343,-0.152344 -0.04687,-0.65625 0.140625,-0.773437 0.304688,-1.570312 0.445313,-2.167969 0.164062,0 0.515625,0.01172 0.644531,-0.03516 0.09375,-0.117187 0.210938,-0.328125 0.328125,-0.679687 z m 0,0"
           style="fill:#231f20;fill-opacity:1;fill-rule:nonzero;stroke:none" />
        <path
           id="path7"
           d="M -107.52879,12.665414 V 12.41932 c -0.82031,-0.05859 -0.87891,-0.128906 -0.87891,-0.785156 V 6.9466641 c -0.49218,0.1992187 -1.01953,0.375 -1.59375,0.46875 v 0.2109375 l 0.4336,0.011719 c 0.38672,0.023437 0.42187,0.070312 0.42187,0.5390625 v 3.4570309 c 0,0.65625 -0.0352,0.726563 -0.85547,0.785156 v 0.246094 z m 1.5791,-36.931641 c -0.26953,0.574219 -0.38672,0.609375 -0.86719,0.609375 h -1.6875 l 1.27735,-1.335937 c 0.83203,-0.890625 1.19531,-1.417969 1.19531,-2.203125 0,-0.949219 -0.72656,-1.523438 -1.51172,-1.523438 -0.52734,0 -0.94922,0.234375 -1.21875,0.539063 l -0.51562,0.726562 0.19922,0.175782 c 0.23437,-0.351563 0.60937,-0.832032 1.23046,-0.832032 0.65625,0 1.05469,0.433594 1.05469,1.195313 0,0.773437 -0.5625,1.511719 -1.125,2.179687 -0.44531,0.515625 -0.94922,1.03125 -1.45312,1.523438 v 0.210937 h 3.36328 c 0.10547,-0.410156 0.19922,-0.796875 0.3164,-1.183593 z m 0,0"
           style="fill:#231f20;fill-opacity:1;fill-rule:nonzero;stroke:none" />
      </g>
      <path
         id="path8"
         d="m 47.4297,150.68 h 0.9687 l 0.9649,0.023 1.918,0.027 3.8671,0.051 7.711,0.074 h 0.4765 l 0.4922,0.028 h 0.9414 l 5.8086,0.07 7.711,0.098 0.5234,0.031 h 1.5625 l 2.0859,0.047 4.1914,0.051 8.3594,0.121 0.5196,0.023 h 0.5234 l 1.0391,0.024 2.0859,0.027 4.1873,0.078 8.363,0.145 h 0.965 l 0.973,0.023 1.957,0.051 3.895,0.078 7.816,0.145 h 0.492 l 0.473,0.027 h 0.992 l 1.934,0.047 3.918,0.078 7.789,0.172 0.5,0.023 h 0.472 l 0.965,0.024 5.731,0.152 7.664,0.195 h 0.472 l 0.473,0.032 0.965,0.023 5.73,0.145 7.668,0.226 h 0.52 l 0.496,0.024 1.039,0.027 2.086,0.07 4.14,0.129 8.309,0.274 h 0.524 l 0.523,0.023 1.039,0.023 2.063,0.075 4.164,0.144 8.285,0.301 0.5,0.023 0.468,0.028 0.965,0.027 1.965,0.07 3.867,0.172 7.739,0.324 h 0.5 l 0.464,0.028 0.973,0.051 1.934,0.074 3.867,0.172 7.769,0.371 2.082,0.097 2.11,0.102 4.191,0.223 8.41,0.449 1.039,0.047 1.043,0.074 2.114,0.098 4.187,0.25 8.406,0.523 0.524,0.023 0.5,0.024 1.039,0.074 2.062,0.125 4.114,0.27 8.238,0.574 0.52,0.047 0.519,0.027 1.016,0.074 2.086,0.149 4.117,0.297 8.234,0.644 0.477,0.051 0.492,0.027 0.969,0.098 1.914,0.144 3.84,0.325 7.691,0.672 0.469,0.05 0.5,0.047 0.965,0.074 1.91,0.176 11.539,1.114 0.515,0.078 1.563,0.148 2.086,0.223 4.168,0.422 8.336,0.941 16.695,2.012 0.469,0.074 0.496,0.07 2.902,0.371 3.895,0.524 7.789,1.094 15.582,2.378 0.941,0.153 0.965,0.144 1.91,0.325 3.793,0.644 7.645,1.344 15.254,2.875 2.086,0.394 2.058,0.426 4.141,0.867 8.285,1.782 16.551,3.898 0.492,0.098 0.473,0.125 6.773,1.734 7.715,2.035 15.453,4.414 0.52,0.18 0.519,0.144 1.07,0.321 2.083,0.621 4.191,1.32 8.359,2.676 16.77,5.781 0.496,0.199 0.523,0.172 1.016,0.371 6.176,2.309 8.215,3.148 16.445,6.723 30.684,13.942 33.265,16.917 31.031,17.02 33.637,18.852 33.043,17.613 0.473,0.25 0.5,0.246 0.965,0.469 1.91,0.968 3.843,1.86 7.711,3.672 0.477,0.199 0.492,0.226 0.973,0.446 1.91,0.867 3.863,1.711 7.692,3.273 0.523,0.227 0.524,0.195 3.125,1.266 4.187,1.59 8.359,2.996 0.524,0.203 1.562,0.519 2.086,0.672 4.164,1.313 8.36,2.359 0.5,0.121 0.472,0.121 0.965,0.25 1.957,0.473 3.899,0.918 0.992,0.195 0.965,0.227 1.933,0.394 3.922,0.747 0.469,0.074 0.5,0.074 0.965,0.176 1.965,0.32 0.464,0.074 0.5,0.074 0.965,0.153 1.961,0.269 0.496,0.075 0.469,0.05 0.996,0.125 1.934,0.219 0.496,0.078 0.473,0.051 0.992,0.098 1.929,0.199 0.5,0.023 0.473,0.051 0.941,0.074 0.497,0.047 0.472,0.024 0.942,0.078 0.496,0.027 0.472,0.024 0.942,0.074 0.5,0.023 0.469,0.024 0.964,0.05 0.473,0.024 h 0.469 l 0.472,0.023 0.497,0.032 0.472,0.023 h 0.469 l 0.473,0.023 h 0.5 l 0.468,0.028 h 0.942 l 0.5,0.023 h 4.758 l 0.5,-0.023 h 0.468 l 0.473,-0.028 h 0.469 l 0.5,-0.023 h 0.472 l 0.469,-0.023 h 0.473 l 0.969,-0.055 0.941,-0.047 0.965,-0.051 0.941,-0.051 0.969,-0.046 0.473,-0.051 0.496,-0.024 0.941,-0.078 1.906,-0.144 2.086,-0.203 2.063,-0.196 0.519,-0.078 0.52,-0.047 1.047,-0.121 2.054,-0.273 4.168,-0.598 4.141,-0.719 0.523,-0.078 0.524,-0.097 1.016,-0.2 2.082,-0.418 4.14,-0.871 2.086,-0.492 2.059,-0.496 4.144,-1.066 0.496,-0.129 0.469,-0.121 2.902,-0.821 3.872,-1.14 7.738,-2.508 0.5,-0.168 0.469,-0.176 0.964,-0.324 1.942,-0.692 3.867,-1.418 7.738,-3.027 0.547,-0.195 0.524,-0.223 1.039,-0.422 2.109,-0.894 4.188,-1.785 8.39,-3.77 16.766,-8.164 32.945,-17.637 30.731,-17.211 33.32,-18.289 31.11,-15.824 30.48,-13.914 33.07,-13.098 0.5,-0.175 0.47,-0.176 2.9,-1.039 3.86,-1.364 7.72,-2.632 15.43,-4.961 0.53,-0.145 0.51,-0.176 1.05,-0.297 2.11,-0.644 4.16,-1.219 8.36,-2.383 16.75,-4.386 0.49,-0.125 0.47,-0.125 1,-0.25 1.93,-0.469 3.92,-0.941 7.81,-1.813 15.64,-3.348 0.93,-0.195 0.97,-0.176 1.91,-0.394 3.82,-0.75 7.67,-1.434 15.33,-2.656 0.5,-0.098 0.52,-0.078 3.12,-0.519 4.14,-0.645 8.31,-1.238 16.62,-2.313 0.5,-0.07 0.47,-0.051 2.9,-0.371 3.9,-0.496 7.74,-0.918 0.49,-0.051 0.48,-0.047 0.96,-0.129 1.96,-0.218 11.61,-1.27 0.55,-0.051 1.56,-0.144 2.11,-0.227 4.19,-0.418 8.42,-0.797 1.03,-0.097 1.05,-0.074 2.1,-0.2 4.19,-0.371 8.41,-0.695 0.53,-0.051 0.52,-0.023 1.01,-0.098 2.06,-0.152 4.14,-0.324 8.24,-0.594 0.52,-0.047 0.52,-0.027 1.02,-0.075 2.09,-0.148 12.35,-0.817 0.49,-0.023 0.48,-0.027 0.96,-0.078 1.91,-0.094 3.88,-0.25 7.68,-0.445 0.47,-0.024 0.5,-0.027 0.94,-0.047 1.94,-0.102 11.53,-0.597 2.08,-0.098 2.09,-0.121 4.19,-0.176 8.86,-0.422 h 0.52 l 3.12,-0.148 4.17,-0.172 8.36,-0.324 0.47,-0.028 0.5,-0.023 0.96,-0.027 1.97,-0.071 3.89,-0.148 7.79,-0.274 h 0.47 l 0.49,-0.023 0.97,-0.023 1.96,-0.079 11.69,-0.371 h 0.47 l 0.47,-0.023 0.97,-0.027 1.91,-0.047 3.79,-0.129 7.65,-0.196 0.48,-0.023 h 0.48 l 0.94,-0.023 13.37,-0.352 h 0.53 l 0.51,-0.027 1.05,-0.024 2.06,-0.047 4.14,-0.074 8.28,-0.199 h 1.05 l 1.01,-0.027 2.09,-0.047 12.42,-0.227 0.47,-0.023 h 0.5 l 0.97,-0.024 1.93,-0.023 3.88,-0.074 7.71,-0.129 h 0.5 l 0.47,-0.024 h 0.97 l 1.93,-0.047 3.87,-0.05 7.74,-0.122 h 1.07 l 1.09,-0.023 6.47,-0.078 8.61,-0.121 h 1.09 l 1.07,-0.028 6.47,-0.074 h 0.55 l 0.54,-0.027 h 1.07 l 2.16,-0.024 h 0.54 l 0.55,-0.027 h 2.16 l 0.52,-0.023 h 0.54"
         style="fill:none;stroke:#3871c1;stroke-width:10;stroke-linecap:square;stroke-linejoin:miter;stroke-miterlimit:3.25;stroke-dasharray:none;stroke-opacity:1"
         transform="matrix(0.13333333,0,0,-0.13333333,0,148.06667)" />
      <path
         id="path9"
         d="M 47.4297,149.316 H 504.59 l 2.109,0.028 h 33.262 l 4.098,0.023 h 12.351 l 4.094,0.024 h 4.785 l 0.965,0.027 h 5.758 l 3.816,0.023 h 0.973 l 0.969,0.024 h 3.816 l 1.934,0.023 h 0.945 l 0.969,0.024 h 1.91 l 3.844,0.031 0.523,0.023 h 1.535 l 2.086,0.028 h 0.52 l 0.519,0.023 h 1.039 l 2.086,0.024 h 0.524 l 0.515,0.023 h 1.047 l 2.063,0.024 4.164,0.074 h 0.519 l 0.52,0.023 1.047,0.028 2.082,0.027 0.519,0.023 h 0.524 l 1.039,0.028 2.058,0.047 0.524,0.027 h 0.515 l 1.047,0.023 2.078,0.071 4.172,0.129 0.469,0.023 h 0.5 l 0.965,0.051 1.933,0.074 0.496,0.023 h 0.477 l 2.898,0.153 0.993,0.047 0.964,0.023 1.942,0.121 3.867,0.227 0.496,0.023 0.469,0.024 0.992,0.074 1.938,0.152 0.468,0.024 0.5,0.05 2.899,0.223 0.5,0.051 0.469,0.047 0.996,0.101 1.933,0.172 3.867,0.422 0.524,0.078 0.547,0.07 1.039,0.125 2.109,0.274 0.524,0.07 0.515,0.106 1.043,0.144 2.11,0.324 0.519,0.102 0.547,0.098 1.047,0.175 2.101,0.395 4.196,0.894 0.523,0.122 0.539,0.128 1.047,0.27 2.109,0.547 1.04,0.297 1.066,0.32 2.086,0.645 0.547,0.175 0.519,0.172 1.039,0.375 2.114,0.77 4.187,1.761 0.524,0.223 1.562,0.742 2.059,1.039 0.523,0.301 0.492,0.274 1.039,0.593 2.063,1.243 1.047,0.644 1.039,0.691 2.058,1.465 4.118,3.301 0.523,0.445 0.516,0.473 1.019,0.941 2.082,2.032 0.496,0.523 0.524,0.547 1.043,1.117 2.058,2.356 0.52,0.621 0.519,0.644 1.016,1.289 2.062,2.778 4.141,6.281 0.473,0.789 0.5,0.797 0.965,1.684 1.91,3.527 0.492,0.918 0.473,0.941 0.968,1.906 1.91,4.094 0.497,1.043 0.468,1.09 0.973,2.231 1.934,4.718 3.839,10.469 0.477,1.41 0.492,1.442 0.973,2.949 1.91,6.23 0.492,1.637 0.473,1.66 0.969,3.399 1.929,7.14 0.946,3.778 0.968,3.89 1.938,8.211 3.84,18.106 0.523,2.632 0.524,2.684 1.039,5.531 2.086,11.606 0.543,3.05 0.519,3.079 1.047,6.324 2.078,13.297 0.523,3.449 0.524,3.519 1.039,7.219 2.086,15.106 4.187,33.168 0.524,4.441 0.523,4.492 1.039,9.18 2.086,19.121 4.164,41.453 0.524,5.481 0.519,5.531 1.043,11.289 2.11,23.316 4.164,49.637 0.5,6.055 0.472,6.082 0.965,12.297 1.957,25.156 3.899,52.144 7.812,108.454 0.469,6.82 0.5,6.797 0.965,13.543 1.965,26.816 3.89,51.801 0.496,6.25 0.469,6.176 0.996,12.152 1.934,23.418 0.496,5.629 0.473,5.558 0.992,10.817 1.929,20.414 0.5,4.738 0.473,4.617 0.941,8.875 0.497,4.27 0.472,4.144 0.942,7.89 0.496,3.77 0.472,3.62 0.942,6.82 0.5,3.2 0.469,3.06 0.964,5.67 0.473,2.61 0.469,2.48 0.472,2.31 0.497,2.15 0.472,1.99 0.469,1.83 0.473,1.69 0.5,1.52 0.468,1.36 0.473,1.19 0.469,1.04 0.5,0.87 0.469,0.69 0.472,0.55 0.469,0.37 0.496,0.2 0.477,0.05 0.464,-0.12 0.477,-0.3 0.492,-0.45 0.473,-0.62 0.469,-0.79 0.5,-0.94 0.468,-1.12 0.473,-1.29 0.469,-1.44 0.5,-1.61 0.472,-1.77 0.469,-1.91 0.473,-2.08 0.969,-4.61 0.464,-2.53 0.477,-2.71 0.965,-5.82 0.469,-3.13 0.472,-3.28 0.969,-6.97 0.473,-3.67 0.496,-3.82 0.941,-8.04 1.906,-17.535 0.524,-5.058 0.523,-5.207 1.039,-10.793 2.063,-22.969 4.14,-50.605 8.309,-112.453 0.523,-7.262 0.524,-7.246 1.016,-14.539 2.082,-28.969 4.14,-57.078 8.289,-106.696 0.496,-5.804 0.469,-5.754 0.969,-11.387 1.933,-22.082 3.872,-41.547 0.5,-4.937 0.464,-4.887 0.969,-9.598 1.938,-18.507 3.867,-34.332 0.5,-4.016 0.469,-3.996 0.964,-7.817 1.942,-14.98 0.492,-3.621 0.473,-3.57 0.964,-6.973 1.938,-13.348 0.496,-3.226 0.469,-3.149 0.969,-6.203 1.937,-11.805 3.867,-21.558 0.547,-2.703 0.524,-2.653 1.039,-5.211 2.109,-9.824 0.52,-2.355 0.519,-2.309 1.047,-4.515 2.102,-8.504 0.523,-2.039 0.523,-1.981 1.039,-3.898 2.11,-7.34 4.195,-13.098 0.516,-1.515 0.523,-1.465 1.039,-2.875 2.11,-5.41 0.523,-1.29 0.524,-1.261 1.039,-2.457 2.109,-4.617 0.519,-1.114 0.52,-1.066 1.043,-2.11 2.105,-3.945 4.196,-7.019 0.523,-0.793 0.52,-0.77 1.019,-1.488 2.055,-2.828 1.047,-1.34 1.012,-1.266 2.062,-2.433 0.52,-0.567 0.519,-0.547 1.016,-1.093 2.062,-2.055 4.114,-3.649 0.523,-0.421 0.523,-0.399 1.016,-0.789 2.063,-1.488 0.515,-0.371 0.524,-0.352 1.015,-0.672 2.059,-1.261 1.043,-0.598 1.019,-0.57 2.055,-1.067 4.121,-1.906 0.469,-0.227 0.5,-0.199 0.941,-0.371 1.934,-0.742 0.472,-0.176 0.493,-0.172 0.945,-0.32 1.934,-0.652 0.472,-0.145 0.473,-0.121 0.969,-0.301 1.906,-0.547 3.844,-0.965 0.5,-0.101 0.464,-0.098 0.973,-0.226 1.91,-0.395 0.469,-0.098 0.496,-0.101 0.969,-0.172 1.908,-0.348 0.47,-0.078 0.5,-0.07 0.94,-0.148 1.94,-0.297 3.84,-0.524 1.05,-0.148 1.04,-0.125 2.06,-0.219 1.04,-0.105 1.04,-0.122 2.08,-0.175 2.09,-0.196 6.25,-0.449 0.52,-0.047 0.52,-0.023 1.04,-0.074 2.6,-0.129 0.53,-0.047 5.21,-0.25 6.25,-0.219 0.47,-0.031 h 0.49 l 0.97,-0.047 1.94,-0.051 0.49,-0.023 h 0.5 l 2.9,-0.074 0.5,-0.024 h 0.47 l 0.99,-0.023 1.94,-0.051 3.89,-0.078 h 0.97 l 0.97,-0.024 1.93,-0.023 0.5,-0.027 h 1.46 l 1.93,-0.047 h 0.97 l 0.97,-0.024 h 1.96 l 3.9,-0.051 h 0.93 l 0.95,-0.023 h 1.91 l 0.47,-0.031 h 1.44 l 1.91,-0.024 h 1.91 l 1.91,-0.023 3.8,-0.024 h 4.76 l 0.96,-0.023 h 5.72 l 3.81,-0.027 h 5.16 l 1.04,-0.024 h 12.41 l 2.06,-0.023 h 33.63 l 1.93,-0.028 h 458.35"
         style="fill:none;stroke:#da1259;stroke-width:10;stroke-linecap:square;stroke-linejoin:miter;stroke-miterlimit:3.25;stroke-dasharray:none;stroke-opacity:1"
         transform="matrix(0.13333333,0,0,-0.13333333,0,148.06667)" />
      <path
         id="path10"
         d="m 1730.57,637.469 h 84.12"
         style="fill:none;stroke:#3871c1;stroke-width:10;stroke-linecap:square;stroke-linejoin:miter;stroke-miterlimit:3.25;stroke-dasharray:none;stroke-opacity:1"
         transform="matrix(0.13333333,0,0,-0.13333333,0,148.06667)" />
      <path
         id="path11"
         d="m 1730.57,517.469 h 84.12"
         style="fill:none;stroke:#da1259;stroke-width:10;stroke-linecap:square;stroke-linejoin:miter;stroke-miterlimit:3.25;stroke-dasharray:none;stroke-opacity:1"
         transform="matrix(0.13333333,0,0,-0.13333333,0,148.06667)" />
      <path
         id="path12"
         d="M 2.3423672,-1.0087872 V -1.2665997 H 0.24471094 v 0.2578125 z m 4.2539062,-4.3242187 c -0.070312,0.1171875 -0.1171875,0.140625 -0.2578125,0.140625 -0.3984375,0 -0.8789062,-0.011719 -1.21875,-0.011719 -0.5273437,-0.011719 -0.75,0.234375 -0.8789062,0.3867188 l 0.082031,0.1171875 c 0.1523438,-0.1289063 0.3398438,-0.1875 0.6445313,-0.1875 0,0.5273437 -0.09375,1.40625 -0.3984375,1.8515625 l 0.035156,0.09375 c 0.09375,0 0.1875,-0.023437 0.328125,-0.09375 0.046875,-0.058594 0.2578125,-0.5273438 0.2578125,-1.7460938 v -0.09375 c 0.2109375,0 0.421875,0 0.703125,0 -0.023437,0.4335938 -0.046875,0.84375 -0.046875,1.3007813 0,0.5039062 0.1757813,0.6328125 0.375,0.6328125 0.1640625,0 0.3515625,-0.1171875 0.4570313,-0.28125 l -0.058594,-0.09375 c -0.070312,0.023437 -0.140625,0.046875 -0.2109375,0.046875 -0.1171875,0 -0.1992187,-0.1171875 -0.1992187,-0.46875 0,-0.3632813 0,-0.7617188 0.011719,-1.125 0.1054688,0 0.3164063,0 0.3867188,-0.023437 0.046875,-0.070312 0.09375,-0.2226563 0.1171875,-0.4101563 z m 0,0"
         style="fill:#231f20;fill-opacity:1;fill-rule:nonzero;stroke:none"
         aria-label="–&#10;π"
         transform="matrix(1.3333333,0,0,1.3333333,54.162,141.55989)" />
      <path
         id="path13"
         d="M 2.5773719,-1.1085917 V -1.3921854 H 0.26877812 v 0.2835937 z m 0,0"
         style="fill:#231f20;fill-opacity:1;fill-rule:nonzero;stroke:none"
         aria-label="–"
         transform="matrix(1.3333333,0,0,1.2121212,59.915067,140.22656)" />
      <path
         id="path14"
         d="M 2.062875,-0.70312313 C 1.9105313,-0.38671688 1.8519375,-0.36327938 1.5824063,-0.36327938 H 0.64490625 L 1.3480313,-1.1132794 C 1.8167813,-1.6054669 2.016,-1.8984356 2.016,-2.3320294 c 0,-0.5273437 -0.4101562,-0.84375 -0.84375,-0.84375 -0.29296875,0 -0.52734375,0.1289063 -0.6796875,0.2929688 l -0.28125,0.4101562 0.10546875,0.09375 c 0.12890625,-0.1875 0.33984375,-0.46875 0.6796875,-0.46875 0.37500005,0 0.59765625,0.2460938 0.59765625,0.6679688 0,0.4335937 -0.3164062,0.84375 -0.6328125,1.21874997 -0.24609375,0.28125 -0.52734375,0.57421875 -0.80859375,0.84375 V 1.875e-6 H 2.0277188 C 2.0863125,-0.22265438 2.1331875,-0.44531063 2.2035,-0.65624813 Z M 78.671273,-7.3330059 c -0.07031,0.1171875 -0.117187,0.140625 -0.257812,0.140625 -0.398438,0 -0.878906,-0.011719 -1.21875,-0.011719 -0.527344,-0.011719 -0.75,0.234375 -0.878906,0.3867188 l 0.08203,0.1171875 c 0.152344,-0.1289063 0.339844,-0.1875 0.644531,-0.1875 0,0.5273437 -0.09375,1.40625 -0.398437,1.8515625 l 0.03516,0.09375 c 0.09375,0 0.1875,-0.023437 0.328125,-0.09375 0.04687,-0.058594 0.257812,-0.5273438 0.257812,-1.7460938 v -0.09375 c 0.210938,0 0.421875,0 0.703125,0 -0.02344,0.4335938 -0.04687,0.84375 -0.04687,1.3007813 0,0.5039062 0.175782,0.6328125 0.375,0.6328125 0.164063,0 0.351563,-0.1171875 0.457032,-0.28125 l -0.05859,-0.09375 c -0.07031,0.023437 -0.140625,0.046875 -0.210938,0.046875 -0.117187,0 -0.199218,-0.1171875 -0.199218,-0.46875 0,-0.3632813 0,-0.7617188 0.01172,-1.125 0.105469,0 0.316407,0 0.386719,-0.023437 0.04687,-0.070312 0.09375,-0.2226563 0.117188,-0.4101563 z m 0,0"
         style="fill:#231f20;fill-opacity:1;fill-rule:nonzero;stroke:none"
         aria-label="2&#10;π"
         transform="matrix(1.3333333,0,0,1.3333333,60.062,144.22656)" />
      <path
         id="path15"
         d="M 2.5776719,-1.1085917 V -1.3921854 H 0.26907812 v 0.2835937 z m 0,0"
         style="fill:#231f20;fill-opacity:1;fill-rule:nonzero;stroke:none"
         aria-label="–"
         transform="matrix(1.3333333,0,0,1.2121212,161.91467,140.22656)" />
      <path
         id="path16"
         d="M 2.0614453,-0.70312313 C 1.9091016,-0.38671688 1.8505078,-0.36327938 1.5809766,-0.36327938 H 0.64347656 L 1.3466016,-1.1132794 c 0.46875,-0.4921875 0.6679687,-0.7851562 0.6679687,-1.21875 0,-0.5273437 -0.4101562,-0.84375 -0.84375,-0.84375 -0.29296874,0 -0.52734374,0.1289063 -0.67968749,0.2929688 l -0.28125,0.4101562 0.10546875,0.09375 c 0.12890625,-0.1875 0.33984375,-0.46875 0.6796875,-0.46875 0.37500004,0 0.59765624,0.2460938 0.59765624,0.6679688 0,0.4335937 -0.3164062,0.84375 -0.63281249,1.21874997 -0.24609375,0.28125 -0.52734375,0.57421875 -0.80859375,0.84375 V 1.875e-6 H 2.0262891 C 2.0848828,-0.22265438 2.1317578,-0.44531063 2.2020703,-0.65624813 Z m 0,0"
         style="fill:#231f20;fill-opacity:1;fill-rule:nonzero;stroke:none"
         aria-label="2"
         transform="matrix(1.3333333,0,0,1.3333333,162.06,144.22656)" />
      <path
         id="path17"
         d="m 47.4297,119.316 v 30"
         style="fill:none;stroke:#231f20;stroke-width:5;stroke-linecap:butt;stroke-linejoin:miter;stroke-miterlimit:3.25;stroke-dasharray:none;stroke-opacity:1"
         transform="matrix(0.13333333,0,0,-0.13333333,0,148.06667)" />
      <path
         id="path18"
         d="m 440.344,119.316 v 30"
         style="fill:none;stroke:#231f20;stroke-width:5;stroke-linecap:butt;stroke-linejoin:miter;stroke-miterlimit:3.25;stroke-dasharray:none;stroke-opacity:1"
         transform="matrix(0.13333333,0,0,-0.13333333,0,148.06667)" />
      <path
         id="path19"
         d="m 1226.13,119.316 v 30"
         style="fill:none;stroke:#231f20;stroke-width:5;stroke-linecap:butt;stroke-linejoin:miter;stroke-miterlimit:3.25;stroke-dasharray:none;stroke-opacity:1"
         transform="matrix(0.13333333,0,0,-0.13333333,0,148.06667)" />
      <path
         id="path20"
         d="m 1619.01,119.316 v 30"
         style="fill:none;stroke:#231f20;stroke-width:5;stroke-linecap:butt;stroke-linejoin:miter;stroke-miterlimit:3.25;stroke-dasharray:none;stroke-opacity:1"
         transform="matrix(0.13333333,0,0,-0.13333333,0,148.06667)" />
      <path
         id="path21"
         d="M 14.6875,149.316 H 1651.76"
         style="fill:none;stroke:#231f20;stroke-width:5;stroke-linecap:butt;stroke-linejoin:miter;stroke-miterlimit:3.25;stroke-dasharray:none;stroke-opacity:1"
         transform="matrix(0.13333333,0,0,-0.13333333,0,148.06667)" />
      <path
         id="path22"
         d="m 833.223,149.316 h 19.398"
         style="fill:none;stroke:#231f20;stroke-width:5;stroke-linecap:butt;stroke-linejoin:miter;stroke-miterlimit:3.25;stroke-dasharray:none;stroke-opacity:1"
         transform="matrix(0.13333333,0,0,-0.13333333,0,148.06667)" />
      <path
         id="path23"
         d="m 803.223,513.551 h 30"
         style="fill:none;stroke:#231f20;stroke-width:5;stroke-linecap:butt;stroke-linejoin:miter;stroke-miterlimit:3.25;stroke-dasharray:none;stroke-opacity:1"
         transform="matrix(0.13333333,0,0,-0.13333333,0,148.06667)" />
      <path
         id="path24"
         d="m 803.223,877.805 h 30"
         style="fill:none;stroke:#231f20;stroke-width:5;stroke-linecap:butt;stroke-linejoin:miter;stroke-miterlimit:3.25;stroke-dasharray:none;stroke-opacity:1"
         transform="matrix(0.13333333,0,0,-0.13333333,0,148.06667)" />
      <path
         id="path25"
         d="M 833.223,98.7383 V 1110.49"
         style="fill:none;stroke:#231f20;stroke-width:5;stroke-linecap:butt;stroke-linejoin:miter;stroke-miterlimit:3.25;stroke-dasharray:none;stroke-opacity:1"
         transform="matrix(0.13333333,0,0,-0.13333333,0,148.06667)" />
    </g>
  </g>
</svg>
