<?xml version="1.0" encoding="UTF-8" standalone="no"?>
<!-- Created with Inkscape (http://www.inkscape.org/) -->

<svg
   version="1.1"
   id="svg1"
   width="256.13333"
   height="76.066666"
   viewBox="0 0 256.13333 76.066666"
   sodipodi:docname="pha09f43.eps"
   xmlns:inkscape="http://www.inkscape.org/namespaces/inkscape"
   xmlns:sodipodi="http://sodipodi.sourceforge.net/DTD/sodipodi-0.dtd"
   xmlns="http://www.w3.org/2000/svg"
   xmlns:svg="http://www.w3.org/2000/svg">
  <defs
     id="defs1" />
  <sodipodi:namedview
     id="namedview1"
     pagecolor="#ffffff"
     bordercolor="#000000"
     borderopacity="0.25"
     inkscape:showpageshadow="2"
     inkscape:pageopacity="0.0"
     inkscape:pagecheckerboard="0"
     inkscape:deskcolor="#d1d1d1">
    <inkscape:page
       x="0"
       y="0"
       inkscape:label="1"
       id="page1"
       width="256.13333"
       height="76.066666"
       margin="0"
       bleed="0" />
  </sodipodi:namedview>
  <g
     id="g1"
     inkscape:groupmode="layer"
     inkscape:label="1">
    <g
       id="group-R5">
      <path
         id="path2"
         d="m 4.476975,-1.0902812 c -0.2578125,0.35156245 -0.46875,0.5273437 -0.5742188,0.5273437 -0.1523437,0 -0.2109375,-0.421875 -0.3515625,-1.59375 0.3515625,-0.4921875 0.8203125,-1.1835937 1.1835938,-1.8164062 l -0.09375,-0.070312 -0.46875,0.1171875 c -0.1875,0.375 -0.421875,0.84375 -0.6679688,1.265625 H 3.4691625 C 3.3168187,-3.6098125 3.1176,-4.0434062 2.5668187,-4.0434062 1.6176,-4.0434062 0.39885,-2.7543437 0.38713125,-1.3012187 0.3754125,-0.48090625 0.726975,0.10503125 1.2426,0.10503125 c 0.5273437,0 1.1601562,-0.5390625 1.7226562,-1.44140625 h 0.023437 c 0.09375,1.08984375 0.2578125,1.44140625 0.5507813,1.44140625 0.3164062,0 0.7148437,-0.29296875 1.1367187,-1.03125 z m -2.1679688,-2.578125 c 0.4101563,0 0.5390625,0.8671875 0.6210938,1.8632812 -0.5507813,0.9609375 -1.03125,1.3359375 -1.3476563,1.3359375 -0.2460937,0 -0.4453125,-0.3515625 -0.4335937,-0.9960937 0,-1.1367188 0.5976562,-2.203125 1.1601562,-2.203125 z m 0,0"
         style="fill:#231f20;fill-opacity:1;fill-rule:nonzero;stroke:none"
         aria-label="α"
         transform="matrix(1.3333333,0,0,1.3333333,23.5932,17.969333)" />
      <path
         id="path3"
         d="M 1.57813,416.742 320.59,564.664 V 416.742"
         style="fill:none;stroke:#231f20;stroke-width:7.5;stroke-linecap:butt;stroke-linejoin:miter;stroke-miterlimit:10;stroke-dasharray:none;stroke-opacity:1"
         transform="matrix(0.13333333,0,0,-0.13333333,0,76.066667)" />
      <path
         id="path4"
         d="M 320.59,416.742 639.605,564.664 V 416.742"
         style="fill:none;stroke:#231f20;stroke-width:7.5;stroke-linecap:butt;stroke-linejoin:miter;stroke-miterlimit:10;stroke-dasharray:none;stroke-opacity:1"
         transform="matrix(0.13333333,0,0,-0.13333333,0,76.066667)" />
      <path
         id="path5"
         d="M 641.195,416.742 960.211,564.664 V 416.742"
         style="fill:none;stroke:#231f20;stroke-width:7.5;stroke-linecap:butt;stroke-linejoin:miter;stroke-miterlimit:10;stroke-dasharray:none;stroke-opacity:1"
         transform="matrix(0.13333333,0,0,-0.13333333,0,76.066667)" />
      <path
         id="path6"
         d="M 960.211,416.742 1279.22,564.664 V 416.742"
         style="fill:none;stroke:#231f20;stroke-width:7.5;stroke-linecap:butt;stroke-linejoin:miter;stroke-miterlimit:10;stroke-dasharray:none;stroke-opacity:1"
         transform="matrix(0.13333333,0,0,-0.13333333,0,76.066667)" />
      <path
         id="path7"
         d="m 1279.22,416.742 319.02,147.922 V 416.742"
         style="fill:none;stroke:#231f20;stroke-width:7.5;stroke-linecap:butt;stroke-linejoin:miter;stroke-miterlimit:10;stroke-dasharray:none;stroke-opacity:1"
         transform="matrix(0.13333333,0,0,-0.13333333,0,76.066667)" />
      <path
         id="path8"
         d="m 1598.24,416.742 319.01,147.922 V 416.742"
         style="fill:none;stroke:#231f20;stroke-width:7.5;stroke-linecap:butt;stroke-linejoin:miter;stroke-miterlimit:10;stroke-dasharray:none;stroke-opacity:1"
         transform="matrix(0.13333333,0,0,-0.13333333,0,76.066667)" />
      <path
         id="path9"
         d="M 1.57813,416.742 H 11.5781"
         style="fill:none;stroke:#231f20;stroke-width:5;stroke-linecap:butt;stroke-linejoin:miter;stroke-miterlimit:10;stroke-dasharray:none;stroke-opacity:1"
         transform="matrix(0.13333333,0,0,-0.13333333,0,76.066667)" />
      <path
         id="path10"
         d="M 31.5313,416.742 H 1897.27"
         style="fill:none;stroke:#231f20;stroke-width:5;stroke-linecap:butt;stroke-linejoin:miter;stroke-miterlimit:10;stroke-dasharray:19.9545, 19.9545;stroke-dashoffset:0;stroke-opacity:1"
         transform="matrix(0.13333333,0,0,-0.13333333,0,76.066667)" />
      <path
         id="path11"
         d="m 1907.25,416.742 h 10"
         style="fill:none;stroke:#231f20;stroke-width:5;stroke-linecap:butt;stroke-linejoin:miter;stroke-miterlimit:10;stroke-dasharray:none;stroke-opacity:1"
         transform="matrix(0.13333333,0,0,-0.13333333,0,76.066667)" />
      <path
         id="path12"
         d="m 148.363,484.801 c 9.61,-20.684 14.973,-43.742 14.973,-68.059"
         style="fill:none;stroke:#231f20;stroke-width:5;stroke-linecap:butt;stroke-linejoin:miter;stroke-miterlimit:10;stroke-dasharray:none;stroke-opacity:1"
         transform="matrix(0.13333333,0,0,-0.13333333,0,76.066667)" />
      <path
         id="path13"
         d="M 1.57813,153.785 320.59,5.875 v 147.91"
         style="fill:none;stroke:#231f20;stroke-width:7.5;stroke-linecap:butt;stroke-linejoin:miter;stroke-miterlimit:10;stroke-dasharray:none;stroke-opacity:1"
         transform="matrix(0.13333333,0,0,-0.13333333,0,76.066667)" />
      <path
         id="path14"
         d="M 320.59,153.785 639.605,5.875 v 147.91"
         style="fill:none;stroke:#231f20;stroke-width:7.5;stroke-linecap:butt;stroke-linejoin:miter;stroke-miterlimit:10;stroke-dasharray:none;stroke-opacity:1"
         transform="matrix(0.13333333,0,0,-0.13333333,0,76.066667)" />
      <path
         id="path15"
         d="M 641.195,153.785 960.211,5.875 v 147.91"
         style="fill:none;stroke:#231f20;stroke-width:7.5;stroke-linecap:butt;stroke-linejoin:miter;stroke-miterlimit:10;stroke-dasharray:none;stroke-opacity:1"
         transform="matrix(0.13333333,0,0,-0.13333333,0,76.066667)" />
      <path
         id="path16"
         d="M 960.211,153.785 1279.22,5.875 v 147.91"
         style="fill:none;stroke:#231f20;stroke-width:7.5;stroke-linecap:butt;stroke-linejoin:miter;stroke-miterlimit:10;stroke-dasharray:none;stroke-opacity:1"
         transform="matrix(0.13333333,0,0,-0.13333333,0,76.066667)" />
      <path
         id="path17"
         d="M 1279.22,153.785 1598.24,5.875 v 147.91"
         style="fill:none;stroke:#231f20;stroke-width:7.5;stroke-linecap:butt;stroke-linejoin:miter;stroke-miterlimit:10;stroke-dasharray:none;stroke-opacity:1"
         transform="matrix(0.13333333,0,0,-0.13333333,0,76.066667)" />
      <path
         id="path18"
         d="M 1598.24,153.785 1917.25,5.875 v 147.91"
         style="fill:none;stroke:#231f20;stroke-width:7.5;stroke-linecap:butt;stroke-linejoin:miter;stroke-miterlimit:10;stroke-dasharray:none;stroke-opacity:1"
         transform="matrix(0.13333333,0,0,-0.13333333,0,76.066667)" />
      <path
         id="path19"
         d="M 1.57813,153.785 H 11.5781"
         style="fill:none;stroke:#231f20;stroke-width:5;stroke-linecap:butt;stroke-linejoin:miter;stroke-miterlimit:10;stroke-dasharray:none;stroke-opacity:1"
         transform="matrix(0.13333333,0,0,-0.13333333,0,76.066667)" />
      <path
         id="path20"
         d="M 31.5313,153.785 H 1897.27"
         style="fill:none;stroke:#231f20;stroke-width:5;stroke-linecap:butt;stroke-linejoin:miter;stroke-miterlimit:10;stroke-dasharray:19.9545, 19.9545;stroke-dashoffset:0;stroke-opacity:1"
         transform="matrix(0.13333333,0,0,-0.13333333,0,76.066667)" />
      <path
         id="path21"
         d="m 1907.25,153.785 h 10"
         style="fill:none;stroke:#231f20;stroke-width:5;stroke-linecap:butt;stroke-linejoin:miter;stroke-miterlimit:10;stroke-dasharray:none;stroke-opacity:1"
         transform="matrix(0.13333333,0,0,-0.13333333,0,76.066667)" />
    </g>
  </g>
</svg>
