<?xml version="1.0" encoding="UTF-8" standalone="no"?>
<!-- Created with Inkscape (http://www.inkscape.org/) -->

<svg
   version="1.1"
   id="svg1"
   width="278.58667"
   height="110.33333"
   viewBox="0 0 278.58667 110.33333"
   sodipodi:docname="pha09f23.eps"
   xmlns:inkscape="http://www.inkscape.org/namespaces/inkscape"
   xmlns:sodipodi="http://sodipodi.sourceforge.net/DTD/sodipodi-0.dtd"
   xmlns="http://www.w3.org/2000/svg"
   xmlns:svg="http://www.w3.org/2000/svg">
  <defs
     id="defs1" />
  <sodipodi:namedview
     id="namedview1"
     pagecolor="#ffffff"
     bordercolor="#000000"
     borderopacity="0.25"
     inkscape:showpageshadow="2"
     inkscape:pageopacity="0.0"
     inkscape:pagecheckerboard="0"
     inkscape:deskcolor="#d1d1d1">
    <inkscape:page
       x="0"
       y="0"
       inkscape:label="1"
       id="page1"
       width="278.58667"
       height="110.33333"
       margin="0"
       bleed="0" />
  </sodipodi:namedview>
  <g
     id="g1"
     inkscape:groupmode="layer"
     inkscape:label="1">
    <g
       id="group-R5">
      <path
         id="path2"
         d="m 34.125,148.617 h 169.063 l 0.722,0.016 h 7.992 l 0.743,0.019 h 3.25 l 0.332,0.016 h 2.043 l 0.339,0.02 h 1.016 l 1.352,0.019 h 0.683 l 0.688,0.016 h 0.664 l 0.695,0.015 h 0.684 l 0.664,0.016 1.355,0.019 0.352,0.02 h 0.332 l 0.683,0.016 h 0.332 l 0.336,0.019 0.692,0.016 h 0.332 l 0.332,0.019 0.683,0.02 1.356,0.031 0.351,0.016 0.332,0.019 0.684,0.02 0.672,0.035 0.687,0.016 0.664,0.039 0.684,0.035 1.356,0.066 0.742,0.035 0.734,0.051 1.473,0.09 0.371,0.019 0.371,0.036 0.742,0.054 1.457,0.121 3.32,0.317 0.372,0.055 0.742,0.085 1.453,0.176 2.961,0.422 0.363,0.067 0.367,0.054 0.742,0.141 1.458,0.265 0.742,0.141 2.211,0.473 2.933,0.738 0.703,0.176 0.684,0.195 1.379,0.418 0.332,0.109 0.351,0.102 0.684,0.23 1.371,0.473 0.348,0.129 0.34,0.121 0.683,0.266 1.387,0.539 2.746,1.195 0.352,0.164 0.332,0.156 0.687,0.332 1.371,0.704 2.762,1.511 0.336,0.196 0.348,0.211 0.687,0.421 1.367,0.864 2.742,1.879 0.352,0.246 1.004,0.734 1.351,1.039 2.696,2.235 0.332,0.296 0.332,0.286 0.683,0.613 1.336,1.23 2.707,2.653 0.332,0.336 0.336,0.351 0.668,0.719 1.348,1.461 2.695,3.074 5.399,6.875 0.363,0.508 0.371,0.492 0.723,1.024 1.461,2.109 2.933,4.394 5.836,9.668 0.367,0.629 0.372,0.653 0.722,1.3 1.473,2.672 2.922,5.535 5.847,11.899 0.344,0.723 0.332,0.738 0.684,1.461 1.367,2.988 2.723,6.152 5.468,12.973 10.899,28.356 0.371,1.015 0.371,1.004 0.734,2.059 1.493,4.109 2.96,8.383 5.903,17.301 11.832,36.367 23.234,75.394 21.656,70.696 23.489,72.406 21.933,60.504 1.473,3.797 1.496,3.746 2.977,7.398 5.937,14.297 11.887,26.484 0.351,0.778 0.372,0.754 0.738,1.527 1.437,3.023 2.914,5.891 5.836,11.281 0.371,0.692 0.371,0.664 0.723,1.355 1.457,2.672 2.918,5.199 5.836,9.864 0.332,0.562 0.336,0.543 0.684,1.094 1.359,2.164 2.723,4.203 5.449,7.957 0.664,0.949 0.684,0.934 1.378,1.844 2.704,3.59 5.449,6.707 0.371,0.445 1.105,1.265 1.473,1.668 2.941,3.2 0.743,0.777 0.73,0.75 1.477,1.48 2.957,2.829 0.367,0.351 1.109,1.004 1.473,1.301 2.961,2.461 5.883,4.394 0.347,0.243 0.34,0.23 0.684,0.453 1.386,0.887 2.747,1.648 0.703,0.387 0.683,0.371 1.371,0.723 2.758,1.332 0.336,0.16 0.348,0.156 0.687,0.305 1.375,0.562 0.352,0.137 0.351,0.121 0.684,0.262 1.371,0.496 0.352,0.125 0.332,0.102 0.687,0.23 1.387,0.406 0.34,0.102 0.347,0.094 0.688,0.175 1.371,0.332 0.352,0.082 1.003,0.215 0.332,0.055 0.352,0.066 0.664,0.125 0.676,0.102 0.683,0.105 0.333,0.059 0.332,0.031 0.683,0.086 1.336,0.145 0.352,0.031 0.332,0.019 0.332,0.04 0.675,0.031 0.352,0.019 0.332,0.016 h 0.332 l 0.34,0.019 h 0.332 l 0.352,0.02 h 1.339 l 0.344,-0.02 h 0.34 l 1,-0.054 0.348,-0.016 0.668,-0.035 0.336,-0.039 0.332,-0.012 0.351,-0.035 1.34,-0.141 0.684,-0.093 0.332,-0.051 0.339,-0.031 0.684,-0.114 0.332,-0.043 0.332,-0.074 0.676,-0.121 1.348,-0.266 0.742,-0.175 0.722,-0.176 1.473,-0.387 0.367,-0.086 0.352,-0.129 0.738,-0.214 1.453,-0.469 0.742,-0.242 0.739,-0.266 1.461,-0.559 2.937,-1.277 0.352,-0.148 1.105,-0.528 1.453,-0.738 2.942,-1.617 0.371,-0.211 0.351,-0.235 0.739,-0.437 1.457,-0.914 2.941,-1.969 0.332,-0.242 0.352,-0.231 0.683,-0.511 1.367,-1 2.723,-2.164 0.344,-0.285 0.351,-0.278 0.684,-0.562 1.348,-1.176 2.742,-2.461 0.332,-0.316 0.355,-0.332 0.688,-0.657 1.351,-1.316 2.743,-2.774 5.468,-6.031 0.368,-0.426 0.367,-0.433 0.742,-0.863 1.473,-1.793 2.968,-3.707 5.93,-7.969 1.473,-2.11 1.496,-2.14 2.953,-4.446 5.922,-9.445 0.371,-0.594 0.351,-0.601 0.739,-1.231 1.461,-2.461 2.898,-5.078 5.816,-10.687 11.637,-23.434 0.34,-0.715 0.332,-0.738 0.684,-1.461 1.351,-2.933 2.711,-6.016 5.43,-12.441 10.851,-26.598 23.536,-64.828 21.972,-67.676 21.531,-70.207 23.36,-75.977 0.332,-1.07 0.351,-1.07 0.664,-2.164 1.379,-4.27 2.723,-8.488 5.449,-16.668 10.899,-31.727 0.371,-1.035 0.363,-1.019 0.742,-2.059 1.473,-4.062 2.961,-7.961 5.918,-15.278 0.371,-0.91 0.371,-0.933 0.73,-1.832 1.485,-3.602 2.949,-7.031 5.91,-13.285 0.332,-0.739 0.352,-0.742 0.683,-1.476 1.395,-2.879 2.754,-5.59 5.519,-10.461 0.34,-0.613 0.352,-0.618 0.683,-1.214 1.387,-2.387 2.746,-4.606 5.516,-8.437 0.351,-0.481 0.996,-1.418 1.36,-1.867 2.703,-3.531 0.332,-0.426 0.352,-0.418 0.675,-0.824 1.356,-1.621 2.707,-3.059 0.664,-0.734 0.684,-0.727 1.355,-1.382 2.687,-2.625 0.352,-0.313 0.34,-0.301 0.664,-0.617 1.348,-1.176 2.714,-2.199 0.735,-0.559 0.742,-0.546 1.453,-1.055 2.942,-1.949 0.371,-0.231 0.359,-0.211 0.723,-0.437 1.484,-0.844 2.93,-1.551 0.742,-0.347 0.723,-0.356 1.476,-0.648 0.36,-0.157 0.351,-0.16 0.742,-0.297 1.477,-0.582 0.351,-0.121 0.371,-0.14 0.743,-0.266 1.453,-0.492 2.941,-0.895 0.352,-0.086 0.332,-0.089 0.683,-0.196 1.375,-0.332 0.352,-0.09 0.332,-0.07 0.684,-0.156 1.367,-0.297 0.332,-0.074 0.351,-0.071 0.696,-0.121 1.367,-0.261 0.332,-0.051 0.351,-0.059 0.692,-0.121 1.348,-0.195 0.351,-0.051 0.332,-0.055 2.063,-0.261 0.351,-0.055 0.332,-0.031 2.059,-0.211 0.332,-0.039 0.351,-0.035 0.684,-0.071 1.367,-0.121 0.344,-0.019 0.351,-0.032 0.684,-0.054 1.356,-0.09 0.382,-0.02 0.371,-0.035 0.731,-0.031 0.371,-0.035 1.848,-0.086 0.761,-0.035 1.473,-0.075 h 0.371 l 1.106,-0.054 h 0.39 l 0.36,-0.016 0.742,-0.016 0.742,-0.035 0.734,-0.019 1.493,-0.035 h 0.371 l 0.371,-0.016 0.742,-0.02 h 0.734 l 0.742,-0.019 0.379,-0.016 h 1.114 l 1.476,-0.031 h 0.731 l 0.761,-0.019 h 1.848 l 0.371,-0.02 h 1.492 l 0.735,-0.016 h 3.64 l 0.723,-0.019 h 8.008 l 0.371,-0.016 h 169.086"
         style="fill:none;stroke:#3871c1;stroke-width:10;stroke-linecap:butt;stroke-linejoin:miter;stroke-miterlimit:3.25;stroke-dasharray:none;stroke-opacity:1"
         transform="matrix(0.13333333,0,0,-0.13333333,0,110.33333)" />
      <path
         id="path3"
         d="m 34.125,188.82 h 4.7578 l 0.6719,0.012 h 2.0547 l 0.6719,0.02 h 1.3671 l 1.3555,0.019 h 0.3516 l 0.332,0.016 h 0.6836 l 1.3594,0.019 h 0.6836 l 0.6836,0.016 1.3554,0.019 0.3516,0.02 h 1.0156 l 1.3594,0.031 2.7187,0.055 h 0.375 l 0.3672,0.016 5.1641,0.121 0.3672,0.019 h 0.3711 l 0.7422,0.02 1.4765,0.05 2.9531,0.086 0.3672,0.02 h 0.3711 l 0.7422,0.035 4.4219,0.16 5.9101,0.246 0.3321,0.02 0.3515,0.015 0.6836,0.032 1.3907,0.074 2.7382,0.121 5.5274,0.301 0.3476,0.019 0.336,0.012 0.6836,0.055 1.3867,0.074 2.7617,0.176 5.4996,0.367 0.352,0.019 0.332,0.012 0.676,0.055 1.347,0.09 2.707,0.207 5.399,0.426 0.351,0.015 0.336,0.039 0.668,0.047 1.348,0.129 2.707,0.223 5.399,0.496 1.48,0.14 1.461,0.141 2.93,0.297 5.875,0.637 0.347,0.035 0.367,0.051 0.743,0.07 1.457,0.176 2.937,0.332 5.871,0.722 0.336,0.051 0.348,0.035 0.687,0.09 1.352,0.195 2.746,0.352 5.469,0.77 0.344,0.054 0.339,0.055 0.684,0.086 4.109,0.633 5.469,0.863 0.371,0.047 0.371,0.074 0.735,0.121 1.492,0.246 2.961,0.512 5.937,1.055 2.957,0.562 2.969,0.578 5.938,1.211 0.351,0.074 0.371,0.071 0.723,0.156 4.375,0.949 5.82,1.336 11.633,2.918 0.352,0.09 0.332,0.105 0.691,0.176 1.352,0.367 2.707,0.758 5.433,1.563 10.86,3.39 1.476,0.496 1.473,0.508 2.941,1.004 5.887,2.125 11.777,4.656 0.703,0.286 0.684,0.296 1.379,0.582 2.738,1.196 5.504,2.511 10.984,5.434 0.352,0.176 1.004,0.527 1.351,0.719 2.696,1.461 5.39,3.058 10.778,6.629 0.363,0.243 0.371,0.23 0.723,0.492 1.461,0.969 2.933,1.984 5.836,4.149 11.703,9.086 0.676,0.566 0.684,0.563 1.367,1.156 2.723,2.34 5.468,4.886 0.676,0.633 0.684,0.653 1.367,1.281 2.723,2.617 5.449,5.469 0.371,0.367 1.105,1.16 1.493,1.567 2.96,3.179 5.903,6.66 11.832,14.59 0.371,0.477 0.363,0.492 0.719,0.953 1.445,1.949 2.922,3.953 5.801,8.282 11.613,18.05 0.34,0.563 0.332,0.547 0.684,1.125 1.355,2.269 2.707,4.618 5.41,9.601 10.828,20.707 0.743,1.477 0.722,1.476 1.477,3.004 2.93,6.117 5.875,12.711 11.742,27.317 21.933,57.601 23.77,70.703 23.324,73.301 0.332,1.047 0.336,1.082 0.684,2.098 1.359,4.226 2.723,8.403 5.449,16.504 0.332,1.023 0.332,0.996 0.684,2.043 1.378,4.008 2.704,7.945 5.449,15.379 0.738,2.043 0.738,2 1.473,3.996 2.941,7.762 5.907,14.68 0.367,0.878 0.367,0.864 0.742,1.734 1.473,3.379 2.961,6.523 5.883,11.899 0.347,0.656 0.34,0.629 0.684,1.27 1.386,2.441 2.747,4.617 0.703,1.094 0.683,1.066 1.371,2.078 2.758,3.817 0.336,0.457 0.348,0.441 0.687,0.864 1.375,1.648 0.352,0.406 0.351,0.387 0.684,0.758 1.371,1.437 0.352,0.332 0.332,0.332 0.687,0.657 1.387,1.211 0.34,0.281 0.347,0.273 0.688,0.547 1.371,0.988 0.352,0.231 1.003,0.633 0.332,0.195 0.352,0.191 0.664,0.371 0.676,0.313 0.683,0.316 0.665,0.286 0.683,0.238 1.004,0.32 0.332,0.09 0.352,0.086 0.332,0.09 0.675,0.136 0.332,0.059 0.352,0.047 1.004,0.109 0.332,0.016 0.352,0.019 0.332,0.02 h 0.668 l 0.339,-0.02 0.344,-0.019 1.004,-0.106 0.336,-0.05 0.348,-0.055 0.336,-0.051 0.668,-0.144 0.332,-0.082 0.351,-0.094 1.008,-0.313 0.332,-0.121 0.684,-0.25 0.671,-0.277 0.684,-0.32 1.34,-0.703 1.348,-0.829 0.742,-0.488 0.722,-0.508 1.473,-1.144 0.367,-0.321 0.352,-0.292 0.738,-0.649 1.453,-1.394 0.371,-0.372 1.11,-1.156 1.461,-1.637 2.937,-3.636 0.352,-0.492 0.367,-0.5 0.738,-1.016 1.453,-2.109 2.942,-4.563 0.371,-0.621 0.351,-0.598 0.739,-1.242 1.457,-2.555 2.941,-5.429 0.332,-0.668 0.352,-0.653 0.683,-1.351 1.367,-2.758 2.723,-5.766 5.469,-12.449 10.937,-28.105 0.735,-2.039 0.742,-2.059 1.473,-4.129 2.968,-8.437 5.93,-17.438 11.844,-36.406 23.273,-73.07 21.699,-64.586 23.536,-61.907 0.332,-0.847 0.351,-0.824 0.684,-1.653 1.375,-3.269 2.734,-6.43 5.508,-12.48 10.988,-23.293 0.332,-0.688 0.332,-0.668 0.672,-1.351 1.348,-2.672 2.687,-5.254 5.379,-10.129 10.781,-18.789 0.352,-0.613 1.105,-1.797 1.465,-2.375 2.91,-4.657 5.84,-8.914 11.688,-16.343 0.332,-0.457 0.351,-0.438 0.664,-0.898 1.379,-1.758 2.723,-3.449 5.449,-6.641 10.899,-12.215 1.476,-1.551 1.473,-1.527 2.961,-2.988 5.918,-5.731 11.816,-10.461 0.332,-0.281 0.352,-0.277 0.683,-0.582 1.395,-1.125 2.754,-2.196 5.519,-4.218 11.024,-7.774 0.351,-0.226 0.332,-0.215 0.664,-0.453 1.36,-0.879 2.703,-1.723 5.422,-3.305 10.808,-6.101 0.372,-0.207 1.105,-0.582 1.453,-0.758 2.942,-1.508 5.867,-2.867 11.73,-5.238 0.352,-0.145 0.332,-0.152 2.058,-0.848 2.735,-1.105 5.469,-2.125 10.957,-3.922 0.382,-0.121 2.586,-0.864 2.969,-0.968 5.938,-1.844 11.867,-3.356 0.371,-0.089 0.351,-0.106 0.743,-0.195 1.453,-0.367 2.902,-0.758 5.84,-1.426 11.648,-2.598 0.664,-0.14 0.696,-0.141 1.347,-0.273 2.723,-0.551 5.43,-1.059 0.343,-0.07 0.352,-0.051 0.664,-0.14 1.375,-0.25 2.706,-0.489 5.43,-0.929 0.37,-0.055 0.36,-0.07 2.22,-0.371 2.96,-0.457 5.89,-0.895 0.37,-0.055 0.36,-0.066 0.74,-0.109 1.46,-0.208 2.96,-0.406 5.88,-0.793 0.36,-0.035 0.33,-0.051 0.7,-0.09 1.37,-0.175 2.74,-0.332 5.51,-0.633 0.35,-0.035 0.33,-0.055 0.69,-0.066 1.38,-0.161 2.75,-0.281 5.5,-0.566 0.34,-0.031 0.34,-0.036 0.67,-0.07 1.36,-0.125 2.69,-0.246 5.4,-0.473 0.33,-0.035 0.33,-0.019 0.68,-0.051 1.34,-0.125 2.71,-0.207 5.38,-0.406 0.37,-0.02 0.36,-0.035 0.74,-0.055 1.47,-0.086 2.91,-0.191 5.86,-0.371 0.73,-0.035 0.72,-0.051 1.48,-0.07 2.92,-0.161 5.85,-0.297 0.34,-0.015 h 0.35 l 0.68,-0.039 1.36,-0.071 2.74,-0.105 0.33,-0.016 0.35,-0.019 0.67,-0.016 1.37,-0.051 2.72,-0.109 h 0.36 l 0.34,-0.016 0.68,-0.019 1.37,-0.055 2.72,-0.086 h 0.34 l 0.35,-0.015 0.68,-0.02 1.36,-0.031 2.74,-0.074 h 0.37 l 0.38,-0.016 0.77,-0.019 1.52,-0.036 h 0.76 l 0.77,-0.019 1.52,-0.031 h 0.38 l 0.39,-0.016 h 0.75 l 1.53,-0.039 h 0.75 l 0.77,-0.016 1.52,-0.019 h 0.39 l 0.37,-0.016 h 1.52 l 0.77,-0.019 h 0.77 l 0.76,-0.02 h 2.67 l 0.38,-0.012 h 4.57"
         style="fill:none;stroke:#da1259;stroke-width:10;stroke-linecap:butt;stroke-linejoin:miter;stroke-miterlimit:3.25;stroke-dasharray:none;stroke-opacity:1"
         transform="matrix(0.13333333,0,0,-0.13333333,0,110.33333)" />
      <path
         id="path4"
         d="m 34.125,118.617 v 30"
         style="fill:none;stroke:#231f20;stroke-width:5;stroke-linecap:butt;stroke-linejoin:miter;stroke-miterlimit:3.25;stroke-dasharray:none;stroke-opacity:1"
         transform="matrix(0.13333333,0,0,-0.13333333,0,110.33333)" />
      <path
         id="path5"
         d="m 311.609,118.617 v 30"
         style="fill:none;stroke:#231f20;stroke-width:5;stroke-linecap:butt;stroke-linejoin:miter;stroke-miterlimit:3.25;stroke-dasharray:none;stroke-opacity:1"
         transform="matrix(0.13333333,0,0,-0.13333333,0,110.33333)" />
      <path
         id="path6"
         d="m 589.098,148.617 v 13.711"
         style="fill:none;stroke:#231f20;stroke-width:5;stroke-linecap:butt;stroke-linejoin:miter;stroke-miterlimit:3.25;stroke-dasharray:none;stroke-opacity:1"
         transform="matrix(0.13333333,0,0,-0.13333333,0,110.33333)" />
      <path
         id="path7"
         d="m 866.586,118.617 v 30"
         style="fill:none;stroke:#231f20;stroke-width:5;stroke-linecap:butt;stroke-linejoin:miter;stroke-miterlimit:3.25;stroke-dasharray:none;stroke-opacity:1"
         transform="matrix(0.13333333,0,0,-0.13333333,0,110.33333)" />
      <path
         id="path8"
         d="m 1144.09,118.617 v 30"
         style="fill:none;stroke:#231f20;stroke-width:5;stroke-linecap:butt;stroke-linejoin:miter;stroke-miterlimit:3.25;stroke-dasharray:none;stroke-opacity:1"
         transform="matrix(0.13333333,0,0,-0.13333333,0,110.33333)" />
      <path
         id="path9"
         d="M 10.9922,148.617 H 1167.21"
         style="fill:none;stroke:#231f20;stroke-width:5;stroke-linecap:butt;stroke-linejoin:miter;stroke-miterlimit:3.25;stroke-dasharray:none;stroke-opacity:1"
         transform="matrix(0.13333333,0,0,-0.13333333,0,110.33333)" />
      <path
         id="path10"
         d="m 559.098,401.176 h 30"
         style="fill:none;stroke:#231f20;stroke-width:5;stroke-linecap:butt;stroke-linejoin:miter;stroke-miterlimit:3.25;stroke-dasharray:none;stroke-opacity:1"
         transform="matrix(0.13333333,0,0,-0.13333333,0,110.33333)" />
      <path
         id="path11"
         d="m 559.098,653.727 h 30"
         style="fill:none;stroke:#231f20;stroke-width:5;stroke-linecap:butt;stroke-linejoin:miter;stroke-miterlimit:3.25;stroke-dasharray:none;stroke-opacity:1"
         transform="matrix(0.13333333,0,0,-0.13333333,0,110.33333)" />
      <path
         id="path12"
         d="m 589.098,112.895 v 714.57"
         style="fill:none;stroke:#231f20;stroke-width:5;stroke-linecap:butt;stroke-linejoin:miter;stroke-miterlimit:3.25;stroke-dasharray:none;stroke-opacity:1"
         transform="matrix(0.13333333,0,0,-0.13333333,0,110.33333)" />
      <path
         id="path13"
         d="m 1223.05,575.961 h 89.61"
         style="fill:none;stroke:#3871c1;stroke-width:10;stroke-linecap:butt;stroke-linejoin:miter;stroke-miterlimit:3.25;stroke-dasharray:none;stroke-opacity:1"
         transform="matrix(0.13333333,0,0,-0.13333333,0,110.33333)" />
      <path
         id="path14"
         d="m 1223.05,455.961 h 89.61"
         style="fill:none;stroke:#da1259;stroke-width:10;stroke-linecap:butt;stroke-linejoin:miter;stroke-miterlimit:3.25;stroke-dasharray:none;stroke-opacity:1"
         transform="matrix(0.13333333,0,0,-0.13333333,0,110.33333)" />
      <path
         id="path15"
         d="m 1.9216297,-0.00120625 v -0.140625 C 1.4645984,-0.1769875 1.4411609,-0.21214375 1.4411609,-0.575425 v -2.6015625 c -0.28125,0.1054688 -0.57421871,0.1992188 -0.89062496,0.2578125 v 0.1171875 l 0.234375,0.011719 C 1.0075672,-2.77855 1.0310047,-2.7551125 1.0310047,-2.4973 v 1.921875 c 0,0.36328125 -0.0351563,0.3984375 -0.48046876,0.43359375 v 0.140625 z m 2.493164,0.05859375 c 0.1523438,0 0.28125,-0.1171875 0.28125,-0.29296875 0,-0.15234375 -0.1289062,-0.28125 -0.28125,-0.28125 -0.1640625,0 -0.28125,0.12890625 -0.28125,0.28125 0,0.17578125 0.1171875,0.29296875 0.28125,0.29296875 z m 2.4433594,-3.234375 c -0.75,0 -1.0195312,0.890625 -1.0195312,1.6171875 0,0.796875 0.2695312,1.6171875 1.0195312,1.6171875 0.7617188,0 1.0195313,-0.890625 1.0195313,-1.6171875 0,-0.7734375 -0.2578125,-1.6171875 -1.0195313,-1.6171875 z m 0,0.1640625 c 0.4453125,0 0.5742188,0.7382813 0.5742188,1.453125 0,0.703125 -0.1171875,1.453125 -0.5742188,1.453125 -0.4335937,0 -0.5742187,-0.76171875 -0.5742187,-1.4648437 0,-0.6914063 0.1171875,-1.4414063 0.5742187,-1.4414063 z M 99.556395,9.9069969 c 0.28125,-0.070312 0.667965,-0.2695313 0.667965,-0.7382813 0,-0.234375 -0.0937,-0.4570312 -0.269527,-0.5742187 -0.164063,-0.1054688 -0.375,-0.1757813 -0.75,-0.1757813 H 97.91577 v 0.140625 c 0.398438,0.035156 0.421875,0.070312 0.421875,0.4804688 v 2.0156246 c 0,0.421875 -0.03516,0.445313 -0.46875,0.480469 v 0.140625 h 1.113282 c 0.386718,0 0.726562,-0.05859 0.972656,-0.199219 0.304687,-0.164062 0.480467,-0.421875 0.480467,-0.761718 0,-0.492188 -0.38672,-0.714844 -0.878905,-0.7851566 z M 98.75952,9.8601219 V 8.8874656 c 0,-0.1640625 0.01172,-0.2226562 0.05859,-0.2578125 0.04687,-0.023437 0.164063,-0.046875 0.28125,-0.046875 0.480469,0 0.667969,0.3046875 0.667969,0.6445313 0,0.421875 -0.222656,0.6328125 -0.773438,0.6328125 z m 0,0.1757811 h 0.222657 c 0.609375,0 0.960937,0.222656 0.960937,0.738281 0,0.515625 -0.363281,0.726563 -0.773437,0.726563 -0.316407,0 -0.410157,-0.09375 -0.410157,-0.445313 z m 5.69824,1.113281 c -0.1875,0.164063 -0.375,0.246094 -0.57422,0.246094 -0.35156,0 -0.73828,-0.28125 -0.73828,-0.960937 0.58594,-0.02344 1.21875,-0.07031 1.30078,-0.08203 0.0937,-0.02344 0.11719,-0.05859 0.11719,-0.164062 0,-0.3867189 -0.33984,-0.7617189 -0.75,-0.7617189 -0.25781,0 -0.53906,0.140625 -0.73828,0.3632813 -0.21094,0.2343746 -0.32812,0.5390626 -0.32812,0.8789066 0,0.5625 0.36328,1.066406 0.97265,1.066406 0.15235,0 0.50391,-0.09375 0.82031,-0.480469 z m -0.76172,-1.5351559 c 0.26954,0 0.44532,0.2460938 0.4336,0.5039059 0,0.07031 -0.0234,0.09375 -0.11719,0.09375 -0.29297,0.01172 -0.5625,0.02344 -0.84375,0.02344 0.0703,-0.4101564 0.29297,-0.6210939 0.52734,-0.6210939 z m 4.25977,1.5117189 c -0.23438,0.210937 -0.39844,0.269531 -0.60938,0.269531 -0.28125,0 -0.76171,-0.234375 -0.76171,-0.925781 0,-0.5273439 0.29296,-0.7968751 0.62109,-0.7968751 0.17578,0 0.35156,0.058594 0.50391,0.1992187 0.0469,0.046875 0.0703,0.058594 0.0937,0.058594 0.0586,0 0.16406,-0.1054688 0.16406,-0.2109375 0,-0.058594 -0.0117,-0.1054688 -0.082,-0.1640625 -0.0703,-0.058594 -0.2461,-0.1289063 -0.44532,-0.1289063 -0.1875,0 -0.49218,0.082031 -0.75,0.28125 -0.33984,0.2578125 -0.5039,0.5976557 -0.5039,0.9843747 0,0.539063 0.375,1.042969 1.00781,1.042969 0.29297,0 0.62109,-0.222656 0.84375,-0.503906 z m 3.94336,0.550781 v -0.128906 c -0.1875,-0.01172 -0.31641,-0.08203 -0.50391,-0.28125 -0.16406,-0.175781 -0.66797,-0.761719 -0.77343,-0.914063 0.22265,-0.246093 0.30468,-0.351562 0.43359,-0.4687496 0.19922,-0.1875 0.30469,-0.234375 0.64453,-0.2929688 V 9.4616844 l -1.01953,0.046875 v 0.1289062 c 0.23437,0.023437 0.24609,0.058594 0.15234,0.2226563 -0.0937,0.1289062 -0.24609,0.3281251 -0.36328,0.4335941 -0.0703,0.08203 -0.16406,0.152343 -0.3164,0.175781 V 8.1140281 c -0.1875,0.070312 -0.48047,0.1523438 -0.71485,0.1757813 v 0.1171875 c 0.30469,0.023437 0.32813,0.046875 0.32813,0.3867187 v 2.3671874 c 0,0.316406 -0.0234,0.351563 -0.36328,0.386719 v 0.128906 h 1.125 v -0.128906 c -0.32813,-0.03516 -0.375,-0.05859 -0.375,-0.386719 v -0.5625 c 0.0352,-0.01172 0.0703,-0.01172 0.082,-0.01172 0.0469,0 0.0937,0.02344 0.16406,0.105469 0.26953,0.339844 0.58594,0.738281 0.82031,0.996094 z m 5.41992,0 v -0.128906 c -0.28125,-0.03516 -0.32812,-0.04687 -0.32812,-0.386719 v -0.960937 c 0,-0.4921879 -0.2461,-0.7734379 -0.63282,-0.7734379 -0.14062,0 -0.26953,0.058594 -0.375,0.1289063 -0.1289,0.082031 -0.26953,0.1757812 -0.42187,0.28125 -0.0937,-0.2578125 -0.30469,-0.4101563 -0.55078,-0.4101563 -0.16407,0 -0.28125,0.058594 -0.41016,0.140625 -0.15234,0.09375 -0.25781,0.1875 -0.36328,0.2578125 V 9.4148094 c -0.22266,0.1054687 -0.48047,0.1640625 -0.69141,0.2109375 v 0.1054687 c 0.28125,0.046875 0.30469,0.070312 0.30469,0.3984374 v 1.03125 c 0,0.328125 -0.0469,0.351563 -0.375,0.386719 v 0.128906 h 1.05469 v -0.128906 c -0.2461,-0.03516 -0.29297,-0.05859 -0.29297,-0.386719 V 9.9890281 c 0.15234,-0.1289062 0.35156,-0.2695312 0.55078,-0.2695312 0.30469,0 0.43359,0.2109375 0.43359,0.5859371 v 0.855469 c 0,0.328125 -0.0469,0.351563 -0.35156,0.386719 v 0.128906 h 1.06641 v -0.128906 c -0.26953,-0.03516 -0.31641,-0.05859 -0.31641,-0.375 v -0.972656 c 0,-0.105469 -0.0117,-0.152344 -0.0234,-0.2109379 0.19922,-0.1640625 0.38672,-0.2695312 0.5625,-0.2695312 0.31641,0 0.44532,0.234375 0.44532,0.5859371 v 0.832032 c 0,0.363281 -0.0586,0.375 -0.35157,0.410156 v 0.128906 z m 4.71094,-0.199219 -0.0469,-0.128906 c -0.0586,0.03516 -0.1289,0.05859 -0.1875,0.05859 -0.082,0 -0.17578,-0.07031 -0.17578,-0.304688 v -0.925781 c 0,-0.2578124 -0.0469,-0.4687499 -0.22265,-0.6093749 -0.10547,-0.09375 -0.25782,-0.140625 -0.41016,-0.140625 -0.28125,0.058594 -0.60938,0.2578125 -0.75,0.3515625 -0.0937,0.070312 -0.16406,0.1289063 -0.16406,0.1992188 0,0.1171876 0.1289,0.2226566 0.22265,0.2226566 0.0703,0 0.12891,-0.03516 0.15235,-0.117188 0.0352,-0.1523436 0.082,-0.2695311 0.14062,-0.3281249 0.0586,-0.070312 0.12891,-0.1054687 0.23438,-0.1054687 0.24609,0 0.41015,0.2109375 0.41015,0.5624996 v 0.09375 c -0.10547,0.09375 -0.46875,0.222657 -0.77343,0.328125 -0.26954,0.09375 -0.39844,0.246094 -0.39844,0.492188 0,0.316406 0.24609,0.609375 0.59765,0.609375 0.15235,0 0.38672,-0.1875 0.58594,-0.316406 0.0234,0.08203 0.0586,0.152343 0.12891,0.222656 0.0469,0.04687 0.15234,0.09375 0.23437,0.09375 z m -0.79688,-0.222656 c -0.0937,0.09375 -0.26953,0.175781 -0.39843,0.1875 -0.15235,0 -0.35157,-0.128906 -0.35157,-0.386719 0,-0.1875 0.10547,-0.28125 0.30469,-0.375 0.10547,-0.04687 0.33984,-0.152343 0.44531,-0.199218 z m 4.68164,0.421875 v -0.128906 c -0.28125,-0.03516 -0.3164,-0.04687 -0.3164,-0.386719 v -0.972656 c 0,-0.4804689 -0.2461,-0.7617189 -0.64453,-0.7617189 -0.14063,0 -0.26953,0.058594 -0.41016,0.1523438 -0.12891,0.082031 -0.23437,0.1640625 -0.33984,0.234375 V 9.4148094 c -0.22266,0.1054687 -0.45703,0.1640625 -0.69141,0.2109375 v 0.1054687 c 0.26953,0.058594 0.30469,0.070312 0.30469,0.3867184 v 1.042969 c 0,0.328125 -0.0352,0.351563 -0.375,0.386719 v 0.128906 h 1.08984 v -0.128906 c -0.29297,-0.03516 -0.32812,-0.04687 -0.32812,-0.386719 V 9.9773094 c 0.15234,-0.1289063 0.35156,-0.2578125 0.55078,-0.2578125 0.32812,0 0.45703,0.234375 0.45703,0.5742191 v 0.832031 c 0,0.351562 -0.0352,0.386719 -0.32813,0.421875 v 0.128906 z m 4.37696,0 v -0.128906 c -0.28125,-0.03516 -0.31641,-0.04687 -0.31641,-0.386719 v -0.972656 c 0,-0.4804689 -0.24609,-0.7617189 -0.64453,-0.7617189 -0.14063,0 -0.26953,0.058594 -0.41016,0.1523438 -0.1289,0.082031 -0.23437,0.1640625 -0.33984,0.234375 V 9.4148094 c -0.22266,0.1054687 -0.45703,0.1640625 -0.69141,0.2109375 v 0.1054687 c 0.26953,0.058594 0.30469,0.070312 0.30469,0.3867184 v 1.042969 c 0,0.328125 -0.0352,0.351563 -0.375,0.386719 v 0.128906 h 1.08984 v -0.128906 c -0.29296,-0.03516 -0.32812,-0.04687 -0.32812,-0.386719 V 9.9773094 c 0.15234,-0.1289063 0.35156,-0.2578125 0.55078,-0.2578125 0.32813,0 0.45703,0.234375 0.45703,0.5742191 v 0.832031 c 0,0.351562 -0.0351,0.386719 -0.32812,0.421875 v 0.128906 z m 4.10449,-1.007812 v -0.257813 h -2.09766 v 0.257813 z m 3.86719,-1.5117191 c -0.0469,-0.3164063 -0.0703,-0.515625 -0.0937,-0.6914063 -0.1875,-0.058594 -0.39844,-0.1171875 -0.6211,-0.1171875 -0.65625,0 -1.03125,0.4101563 -1.03125,0.890625 0,0.5625 0.50391,0.8203129 0.82032,0.9843749 0.375,0.199219 0.65625,0.375 0.65625,0.75 0,0.363281 -0.23438,0.597656 -0.60938,0.597656 -0.51562,0 -0.73828,-0.503906 -0.82031,-0.808593 l -0.14063,0.03516 c 0.0234,0.234375 0.0937,0.667969 0.12891,0.773437 0.0469,0.02344 0.12891,0.05859 0.24609,0.105469 0.12891,0.03516 0.29297,0.07031 0.49219,0.07031 0.66797,0 1.11328,-0.410157 1.11328,-0.9375 0,-0.5625 -0.48047,-0.796875 -0.86719,-0.9960941 -0.39843,-0.2109375 -0.63281,-0.375 -0.63281,-0.7382813 0,-0.28125 0.16406,-0.5507812 0.55078,-0.5507812 0.4336,0 0.57422,0.3398437 0.65625,0.65625 z m 2.47265,0.6210937 V 9.3796531 c -0.23437,0.09375 -0.51562,0.1757813 -0.72656,0.2109375 v 0.1289063 c 0.31641,0.035156 0.32813,0.046875 0.32813,0.3750001 v 2.261719 c 0,0.328125 -0.0352,0.351562 -0.36329,0.386718 v 0.128907 h 1.1836 v -0.128907 c -0.38672,-0.03516 -0.42188,-0.05859 -0.42188,-0.445312 v -0.65625 c 0.0703,0.03516 0.19922,0.09375 0.35157,0.09375 0.64453,-0.117188 1.24218,-0.609375 1.24218,-1.359375 0,-0.4921876 -0.32812,-0.9492189 -0.89062,-0.9492189 -0.0586,0 -0.15235,0.023437 -0.2461,0.082031 z m 0,0.1640625 c 0.14063,-0.1054687 0.33985,-0.2109375 0.50391,-0.2109375 0.36328,0 0.66797,0.3046874 0.66797,0.8320314 0,0.5625 -0.28125,0.925781 -0.70313,0.925781 -0.16406,0 -0.35156,-0.08203 -0.46875,-0.1875 z m 3.93164,-0.9492187 c 0.14063,0 0.2461,-0.1171875 0.2461,-0.2578125 0,-0.140625 -0.10547,-0.2578125 -0.2461,-0.2578125 -0.1289,0 -0.25781,0.1171875 -0.25781,0.2578125 0,0.140625 0.12891,0.2578125 0.25781,0.2578125 z m 0.58594,2.6835936 v -0.128906 c -0.32812,-0.03516 -0.36328,-0.05859 -0.36328,-0.398438 V 9.4148094 c -0.22266,0.09375 -0.45703,0.1640625 -0.70313,0.1992187 v 0.1171875 c 0.29297,0.058594 0.31641,0.070312 0.31641,0.3867184 v 1.03125 c 0,0.339844 -0.0352,0.363282 -0.35156,0.398438 v 0.128906 z m 2.8125,-0.691406 -0.0586,0.117187 c -0.19922,0.304688 -0.29297,0.410157 -0.67969,0.410157 h -0.49219 c 0.41016,-0.667969 0.8086,-1.3125 1.21875,-1.9570316 l -0.0234,-0.070312 h -1.14843 c -0.1875,0 -0.2461,-0.023437 -0.28125,-0.1054688 h -0.10547 c -0.0352,0.2109375 -0.11719,0.5390625 -0.16406,0.7265624 l 0.11718,0.04687 0.0703,-0.140625 c 0.14062,-0.2812499 0.21093,-0.3632811 0.57421,-0.3632811 0.10547,0 0.26954,0 0.44532,0 -0.41016,0.6796871 -0.82032,1.3124991 -1.25391,1.9570311 l 0.0352,0.07031 h 1.65234 c 0.0703,-0.199219 0.15234,-0.433594 0.22266,-0.632812 z m 3.36035,0 -0.0586,0.117187 c -0.19922,0.304688 -0.29297,0.410157 -0.67969,0.410157 h -0.49219 c 0.41016,-0.667969 0.8086,-1.3125 1.21875,-1.9570316 l -0.0234,-0.070312 h -1.14844 c -0.1875,0 -0.2461,-0.023437 -0.28125,-0.1054688 h -0.10547 c -0.0352,0.2109375 -0.11719,0.5390625 -0.16406,0.7265624 l 0.11718,0.04687 0.0703,-0.140625 c 0.14062,-0.2812499 0.21093,-0.3632811 0.57422,-0.3632811 0.10546,0 0.26953,0 0.44531,0 -0.41016,0.6796871 -0.82031,1.3124991 -1.25391,1.9570311 l 0.0352,0.07031 h 1.65234 c 0.0703,-0.199219 0.15235,-0.433594 0.22266,-0.632812 z m 2.10645,-1.9921876 c 0.14062,0 0.24609,-0.1171875 0.24609,-0.2578125 0,-0.140625 -0.10547,-0.2578125 -0.24609,-0.2578125 -0.12891,0 -0.25781,0.1171875 -0.25781,0.2578125 0,0.140625 0.1289,0.2578125 0.25781,0.2578125 z m 0.58594,2.6835936 v -0.128906 c -0.32813,-0.03516 -0.36329,-0.05859 -0.36329,-0.398438 V 9.4148094 c -0.22265,0.09375 -0.45703,0.1640625 -0.70312,0.1992187 v 0.1171875 c 0.29297,0.058594 0.31641,0.070312 0.31641,0.3867184 v 1.03125 c 0,0.339844 -0.0352,0.363282 -0.35157,0.398438 v 0.128906 z m 2.83593,-0.550781 c -0.23437,0.210937 -0.39843,0.269531 -0.60937,0.269531 -0.28125,0 -0.76172,-0.234375 -0.76172,-0.925781 0,-0.5273439 0.29297,-0.7968751 0.62109,-0.7968751 0.17578,0 0.35157,0.058594 0.50391,0.1992187 0.0469,0.046875 0.0703,0.058594 0.0937,0.058594 0.0586,0 0.16406,-0.1054688 0.16406,-0.2109375 0,-0.058594 -0.0117,-0.1054688 -0.082,-0.1640625 -0.0703,-0.058594 -0.24609,-0.1289063 -0.44531,-0.1289063 -0.1875,0 -0.49219,0.082031 -0.75,0.28125 -0.33985,0.2578125 -0.50391,0.5976557 -0.50391,0.9843747 0,0.539063 0.375,1.042969 1.00781,1.042969 0.29297,0 0.6211,-0.222656 0.84375,-0.503906 z m 3.94629,0.550781 v -0.128906 c -0.29297,-0.02344 -0.32812,-0.05859 -0.32812,-0.386719 v -0.878906 c 0,-0.5976564 -0.28125,-0.8554689 -0.69141,-0.8554689 -0.26953,0 -0.53906,0.1875 -0.71484,0.3632813 V 8.1140281 c -0.19922,0.058594 -0.49219,0.140625 -0.73828,0.1757813 v 0.1171875 c 0.32812,0.023437 0.33984,0.046875 0.33984,0.3632812 v 2.3906249 c 0,0.328125 -0.0469,0.363281 -0.33984,0.386719 v 0.128906 h 1.05468 v -0.128906 c -0.29297,-0.03516 -0.3164,-0.07031 -0.3164,-0.386719 V 9.9655906 c 0.14062,-0.1523437 0.32812,-0.2460937 0.51562,-0.2460937 0.33985,0 0.49219,0.1992187 0.49219,0.6093751 v 0.832031 c 0,0.328125 -0.0352,0.351563 -0.32813,0.386719 v 0.128906 z m 2.38477,-2.6835936 c 0.14062,0 0.24609,-0.1171875 0.24609,-0.2578125 0,-0.140625 -0.10547,-0.2578125 -0.24609,-0.2578125 -0.12891,0 -0.25782,0.1171875 -0.25782,0.2578125 0,0.140625 0.12891,0.2578125 0.25782,0.2578125 z m 0.58593,2.6835936 v -0.128906 c -0.32812,-0.03516 -0.36328,-0.05859 -0.36328,-0.398438 V 9.4148094 c -0.22265,0.09375 -0.45703,0.1640625 -0.70312,0.1992187 v 0.1171875 c 0.29297,0.058594 0.3164,0.070312 0.3164,0.3867184 v 1.03125 c 0,0.339844 -0.0352,0.363282 -0.35156,0.398438 v 0.128906 z m 3.49219,0 v -0.128906 c -0.28125,-0.03516 -0.3164,-0.04687 -0.3164,-0.386719 v -0.972656 c 0,-0.4804689 -0.2461,-0.7617189 -0.64454,-0.7617189 -0.14062,0 -0.26953,0.058594 -0.41015,0.1523438 -0.12891,0.082031 -0.23438,0.1640625 -0.33985,0.234375 V 9.4148094 c -0.22265,0.1054687 -0.45703,0.1640625 -0.6914,0.2109375 v 0.1054687 c 0.26953,0.058594 0.30469,0.070312 0.30469,0.3867184 v 1.042969 c 0,0.328125 -0.0352,0.351563 -0.375,0.386719 v 0.128906 h 1.08984 v -0.128906 c -0.29297,-0.03516 -0.32813,-0.04687 -0.32813,-0.386719 V 9.9773094 c 0.15235,-0.1289063 0.35157,-0.2578125 0.55079,-0.2578125 0.32812,0 0.45703,0.234375 0.45703,0.5742191 v 0.832031 c 0,0.351562 -0.0352,0.386719 -0.32813,0.421875 v 0.128906 z m 3.00586,-2.2499999 c -0.45703,0 -1.08984,0.375 -1.08984,1.2070309 0,0.550782 0.41015,1.101563 1.08984,1.101563 0.50391,0 1.08985,-0.386719 1.08985,-1.195313 0,-0.6093746 -0.46875,-1.1132809 -1.08985,-1.1132809 z m -0.0469,0.1640625 c 0.43359,0 0.66797,0.4804684 0.66797,1.0664064 0,0.679687 -0.25782,0.914062 -0.5625,0.914062 -0.41016,0 -0.67969,-0.46875 -0.67969,-1.101562 0,-0.5625001 0.26953,-0.8789064 0.57422,-0.8789064 z M 100.65796,21.180434 c -0.0234,-0.28125 -0.0469,-0.65625 -0.0469,-0.878906 h -0.10547 c -0.082,0.09375 -0.1289,0.117188 -0.25781,0.117188 h -1.980467 c -0.140625,0 -0.199219,0 -0.269531,-0.117188 h -0.105469 c -0.01172,0.269531 -0.03516,0.597656 -0.05859,0.902344 h 0.140625 c 0.05859,-0.222656 0.105469,-0.363281 0.164063,-0.445313 0.07031,-0.117187 0.164062,-0.164062 0.585937,-0.164062 h 0.304688 v 2.460937 c 0,0.398438 -0.03516,0.445313 -0.492188,0.480469 v 0.140625 h 1.429688 v -0.140625 c -0.46875,-0.03516 -0.515625,-0.08203 -0.515625,-0.480469 v -2.460937 h 0.363281 c 0.374998,0 0.457028,0.03516 0.539058,0.164062 0.0586,0.07031 0.10547,0.199219 0.15234,0.445313 z m 2.21191,0.785157 v -0.550782 c -0.23437,0.105469 -0.45703,0.164063 -0.70312,0.210938 v 0.105469 c 0.28125,0.03516 0.3164,0.05859 0.3164,0.386718 v 1.042969 c 0,0.328125 -0.0352,0.351563 -0.35156,0.386719 v 0.128906 h 1.14844 v -0.128906 c -0.38672,-0.03516 -0.41016,-0.05859 -0.41016,-0.386719 v -0.925781 c 0.11719,-0.269531 0.26953,-0.421875 0.39844,-0.421875 0.082,0 0.14062,0.02344 0.21094,0.105469 0.0352,0.02344 0.082,0.03516 0.14062,0.01172 0.0937,-0.04687 0.16406,-0.152343 0.16406,-0.246093 0,-0.128907 -0.1289,-0.257813 -0.29296,-0.257813 -0.2461,0 -0.45704,0.28125 -0.60938,0.539063 z m 3.23731,-0.539063 c -0.45703,0 -1.08985,0.375 -1.08985,1.207031 0,0.550782 0.41016,1.101563 1.08985,1.101563 0.5039,0 1.08984,-0.386719 1.08984,-1.195313 0,-0.609375 -0.46875,-1.113281 -1.08984,-1.113281 z m -0.0469,0.164063 c 0.4336,0 0.66797,0.480468 0.66797,1.066406 0,0.679687 -0.25781,0.914062 -0.5625,0.914062 -0.41016,0 -0.67969,-0.46875 -0.67969,-1.101562 0,-0.5625 0.26953,-0.878906 0.57422,-0.878906 z m 6.20215,-0.105469 h -0.90234 v 0.128906 c 0.32812,0.04687 0.35156,0.07031 0.29297,0.339844 -0.0937,0.363281 -0.23438,0.796875 -0.33985,1.148437 h -0.0117 c -0.21093,-0.539062 -0.42187,-1.066406 -0.59765,-1.582031 h -0.14063 c -0.19922,0.574219 -0.38672,1.089844 -0.57422,1.570313 h -0.0117 c -0.1289,-0.386719 -0.24609,-0.785157 -0.36328,-1.171875 -0.082,-0.222657 -0.0469,-0.257813 0.2461,-0.304688 v -0.128906 h -1.03125 v 0.128906 c 0.23437,0.03516 0.28125,0.07031 0.375,0.328125 0.19922,0.597656 0.39843,1.195313 0.57422,1.792969 h 0.14062 c 0.19922,-0.5625 0.41016,-1.054688 0.59766,-1.558594 0.19922,0.527344 0.41015,1.019531 0.60937,1.558594 h 0.14063 c 0.22265,-0.679688 0.44531,-1.347656 0.59765,-1.746094 0.10547,-0.269531 0.15235,-0.339844 0.39844,-0.375 z m 2.85645,0.164062 v -1.535156 c -0.1875,0.07031 -0.49219,0.140625 -0.72657,0.175781 v 0.117188 c 0.31641,0.02344 0.32813,0.05859 0.32813,0.363281 v 2.789063 c 0.28125,0.128906 0.52734,0.175781 0.73828,0.175781 0.66797,0 1.25391,-0.515625 1.25391,-1.253906 0,-0.585938 -0.44532,-1.054688 -0.98438,-1.054688 -0.0586,0 -0.12891,0.02344 -0.21094,0.05859 z m 0,0.152344 c 0.0937,-0.04687 0.24609,-0.09375 0.38671,-0.09375 0.42188,0 0.77344,0.328125 0.77344,0.902344 0,0.585937 -0.26953,0.9375 -0.6914,0.9375 -0.25782,-0.01172 -0.41016,-0.175781 -0.44532,-0.28125 -0.0117,-0.04687 -0.0234,-0.09375 -0.0234,-0.175781 z m 4.11035,0.164063 v -0.550782 c -0.23438,0.105469 -0.45703,0.164063 -0.70313,0.210938 v 0.105469 c 0.28125,0.03516 0.31641,0.05859 0.31641,0.386718 v 1.042969 c 0,0.328125 -0.0352,0.351563 -0.35156,0.386719 v 0.128906 h 1.14843 v -0.128906 c -0.38672,-0.03516 -0.41015,-0.05859 -0.41015,-0.386719 v -0.925781 c 0.11718,-0.269531 0.26953,-0.421875 0.39843,-0.421875 0.082,0 0.14063,0.02344 0.21094,0.105469 0.0352,0.02344 0.082,0.03516 0.14063,0.01172 0.0937,-0.04687 0.16406,-0.152343 0.16406,-0.246093 0,-0.128907 -0.12891,-0.257813 -0.29297,-0.257813 -0.24609,0 -0.45703,0.28125 -0.60937,0.539063 z m 2.79199,-0.972657 c 0.14062,0 0.24609,-0.117187 0.24609,-0.257812 0,-0.140625 -0.10547,-0.257813 -0.24609,-0.257813 -0.12891,0 -0.25781,0.117188 -0.25781,0.257813 0,0.140625 0.1289,0.257812 0.25781,0.257812 z m 0.58594,2.683594 v -0.128906 c -0.32813,-0.03516 -0.36328,-0.05859 -0.36328,-0.398438 v -1.734375 c -0.22266,0.09375 -0.45704,0.164063 -0.70313,0.199219 v 0.117188 c 0.29297,0.05859 0.31641,0.07031 0.31641,0.386718 v 1.03125 c 0,0.339844 -0.0352,0.363282 -0.35157,0.398438 v 0.128906 z m 3.46875,-0.257812 -0.16407,-0.01172 c -0.1875,-0.02344 -0.22265,-0.04687 -0.22265,-0.304688 v -2.988281 c -0.17578,0.07031 -0.51563,0.140625 -0.77344,0.175781 v 0.117188 c 0.35156,0.02344 0.38672,0.04687 0.38672,0.375 v 0.703125 c -0.11719,-0.03516 -0.26953,-0.05859 -0.33984,-0.05859 -0.67969,0 -1.28907,0.550781 -1.28907,1.242188 0,0.703125 0.52735,1.066406 0.92578,1.066406 0.0586,0 0.19922,-0.02344 0.39844,-0.140625 l 0.30469,-0.1875 v 0.328125 c 0.28125,-0.105469 0.65625,-0.164063 0.77344,-0.1875 z m -0.77344,-0.164063 c -0.12891,0.08203 -0.30469,0.164063 -0.48047,0.164063 -0.32812,0 -0.69141,-0.292969 -0.69141,-0.878907 0,-0.726562 0.42188,-0.925781 0.65625,-0.925781 0.1875,0 0.38672,0.08203 0.51563,0.257813 z m 4.7168,-1.769531 c -0.17579,0.03516 -0.4336,0.05859 -0.67969,0.07031 -0.14063,-0.08203 -0.30469,-0.128906 -0.48047,-0.128906 -0.38672,0 -0.89063,0.257813 -0.89063,0.832031 0,0.339844 0.21094,0.574219 0.4336,0.667969 -0.0703,0.105469 -0.23438,0.234375 -0.4336,0.304688 -0.0117,0.05859 0.0117,0.140625 0.0469,0.210937 0.0703,0.105469 0.19922,0.222656 0.375,0.28125 -0.11719,0.09375 -0.31641,0.246094 -0.41016,0.351563 -0.082,0.07031 -0.1289,0.164062 -0.1289,0.28125 0.0117,0.28125 0.3164,0.609375 0.86718,0.609375 0.66797,0 1.25391,-0.492188 1.25391,-0.996094 0,-0.492188 -0.41016,-0.585938 -0.71484,-0.585938 -0.17578,0 -0.35157,0 -0.52735,0 -0.23437,0 -0.3164,-0.09375 -0.3164,-0.1875 0,-0.07031 0.082,-0.164062 0.15234,-0.210937 0.0703,0.01172 0.16406,0.02344 0.24609,0.02344 0.4336,0 0.87891,-0.257812 0.87891,-0.796875 0,-0.175781 -0.0586,-0.339843 -0.15234,-0.445312 l 0.29297,0.01172 c 0.0703,-0.04687 0.17578,-0.175782 0.22265,-0.257813 z m -1.20704,0.09375 c 0.28125,0 0.46875,0.28125 0.46875,0.679687 0,0.386719 -0.19921,0.585938 -0.41015,0.597657 -0.28125,0 -0.48047,-0.28125 -0.48047,-0.679688 0,-0.386719 0.19922,-0.597656 0.42187,-0.597656 z m 0.10547,2.15625 c 0.21094,0 0.36328,0.01172 0.48047,0.05859 0.15235,0.05859 0.23438,0.1875 0.23438,0.363281 0,0.304687 -0.2461,0.550781 -0.72657,0.550781 -0.36328,0 -0.65625,-0.210937 -0.65625,-0.480469 0,-0.140625 0.10547,-0.28125 0.23438,-0.386718 0.082,-0.08203 0.19922,-0.105469 0.43359,-0.105469 z m 4.3711,-0.585938 c -0.1875,0.164063 -0.375,0.246094 -0.57422,0.246094 -0.35156,0 -0.73828,-0.28125 -0.73828,-0.960937 0.58593,-0.02344 1.21875,-0.07031 1.30078,-0.08203 0.0937,-0.02344 0.11719,-0.05859 0.11719,-0.164062 0,-0.386719 -0.33985,-0.761719 -0.75,-0.761719 -0.25782,0 -0.53907,0.140625 -0.73829,0.363281 -0.21093,0.234375 -0.32812,0.539063 -0.32812,0.878907 0,0.5625 0.36328,1.066406 0.97266,1.066406 0.15234,0 0.5039,-0.09375 0.82031,-0.480469 z m -0.76172,-1.535156 c 0.26953,0 0.44531,0.246094 0.43359,0.503906 0,0.07031 -0.0234,0.09375 -0.11719,0.09375 -0.29296,0.01172 -0.5625,0.02344 -0.84375,0.02344 0.0703,-0.410156 0.29297,-0.621094 0.52735,-0.621094 z m 4.60547,1.054688 v -0.257813 h -2.09766 v 0.257813 z m 4.96875,0.914062 c -0.10547,-0.02344 -0.22266,-0.08203 -0.35157,-0.234375 -0.1289,-0.128906 -0.23437,-0.257812 -0.41015,-0.515625 -0.15235,-0.222656 -0.36328,-0.5625 -0.44531,-0.726562 0.375,-0.164063 0.63281,-0.421875 0.63281,-0.855469 0,-0.304688 -0.12891,-0.527344 -0.32813,-0.65625 -0.1875,-0.128906 -0.43359,-0.175781 -0.79687,-0.175781 h -1.24219 v 0.140625 c 0.38672,0.03516 0.43359,0.05859 0.43359,0.480468 v 2.015625 c 0,0.421875 -0.0469,0.445313 -0.45703,0.480469 v 0.140625 h 1.3125 v -0.140625 c -0.39843,-0.03516 -0.44531,-0.05859 -0.44531,-0.480469 v -0.796875 h 0.16406 c 0.25782,0 0.33985,0.05859 0.42188,0.199219 0.15234,0.246094 0.33984,0.550781 0.51562,0.796875 0.22266,0.328125 0.4336,0.433594 0.8086,0.457031 0.0586,0 0.11718,0 0.17578,0 z m -2.09766,-1.488281 v -1.230469 c 0,-0.140625 0.0234,-0.199219 0.0586,-0.222656 0.0352,-0.03516 0.11719,-0.04687 0.26954,-0.04687 0.375,0 0.73828,0.199219 0.73828,0.738281 0,0.269531 -0.082,0.46875 -0.28125,0.621094 -0.12891,0.09375 -0.29297,0.140625 -0.53907,0.140625 z m 5.83594,1.054687 c -0.1875,0.164063 -0.375,0.246094 -0.57422,0.246094 -0.35156,0 -0.73828,-0.28125 -0.73828,-0.960937 0.58594,-0.02344 1.21875,-0.07031 1.30078,-0.08203 0.0937,-0.02344 0.11719,-0.05859 0.11719,-0.164062 0,-0.386719 -0.33985,-0.761719 -0.75,-0.761719 -0.25782,0 -0.53907,0.140625 -0.73828,0.363281 -0.21094,0.234375 -0.32813,0.539063 -0.32813,0.878907 0,0.5625 0.36328,1.066406 0.97266,1.066406 0.15234,0 0.5039,-0.09375 0.82031,-0.480469 z m -0.76172,-1.535156 c 0.26953,0 0.44531,0.246094 0.43359,0.503906 0,0.07031 -0.0234,0.09375 -0.11718,0.09375 -0.29297,0.01172 -0.5625,0.02344 -0.84375,0.02344 0.0703,-0.410156 0.29296,-0.621094 0.52734,-0.621094 z m 2.94434,-0.621094 c 0.14062,0 0.24609,-0.117187 0.24609,-0.257812 0,-0.140625 -0.10547,-0.257813 -0.24609,-0.257813 -0.12891,0 -0.25782,0.117188 -0.25782,0.257813 0,0.140625 0.12891,0.257812 0.25782,0.257812 z m 0.58593,2.683594 v -0.128906 c -0.32812,-0.03516 -0.36328,-0.05859 -0.36328,-0.398438 v -1.734375 c -0.22265,0.09375 -0.45703,0.164063 -0.70312,0.199219 v 0.117188 c 0.29297,0.05859 0.3164,0.07031 0.3164,0.386718 v 1.03125 c 0,0.339844 -0.0351,0.363282 -0.35156,0.398438 v 0.128906 z m 2.27051,-0.175781 -0.0469,-0.128906 c -0.0703,0.03516 -0.17579,0.08203 -0.30469,0.08203 -0.12891,0 -0.29297,-0.08203 -0.29297,-0.480469 V 21.68434 h 0.53906 c 0.0586,-0.03516 0.0703,-0.140625 0.0234,-0.199219 h -0.5625 v -0.679688 l -0.0703,-0.01172 -0.32813,0.328125 v 0.363281 h -0.22265 l -0.14063,0.152344 0.0234,0.04687 h 0.33984 v 1.453125 c 0,0.398437 0.17578,0.597656 0.49219,0.597656 0.0469,0 0.12891,-0.02344 0.21094,-0.05859 z m 2.88574,-0.515625 -0.0586,0.117187 c -0.19922,0.304688 -0.29297,0.410157 -0.67969,0.410157 h -0.49219 c 0.41016,-0.667969 0.8086,-1.3125 1.21875,-1.957032 l -0.0234,-0.07031 h -1.14844 c -0.1875,0 -0.24609,-0.02344 -0.28125,-0.105469 h -0.10547 c -0.0352,0.210938 -0.11719,0.539063 -0.16406,0.726563 l 0.11719,0.04687 0.0703,-0.140625 c 0.14062,-0.28125 0.21094,-0.363282 0.57422,-0.363282 0.10547,0 0.26953,0 0.44531,0 -0.41016,0.679688 -0.82031,1.3125 -1.25391,1.957032 l 0.0352,0.07031 h 1.65234 c 0.0703,-0.199219 0.15235,-0.433594 0.22266,-0.632812 z M 11.832762,26.884536 c -0.75,0 -1.019531,0.890625 -1.019531,1.617187 0,0.796875 0.269531,1.617188 1.019531,1.617188 0.761719,0 1.019532,-0.890625 1.019532,-1.617188 0,-0.773437 -0.257813,-1.617187 -1.019532,-1.617187 z m 0,0.164062 c 0.445313,0 0.574219,0.738282 0.574219,1.453125 0,0.703125 -0.117187,1.453125 -0.574219,1.453125 -0.433593,0 -0.574218,-0.761718 -0.574218,-1.464843 0,-0.691407 0.117187,-1.441407 0.574218,-1.441407 z m 3.219727,3.070313 c 0.152344,0 0.28125,-0.117188 0.28125,-0.292969 0,-0.152344 -0.128906,-0.28125 -0.28125,-0.28125 -0.164062,0 -0.28125,0.128906 -0.28125,0.28125 0,0.175781 0.117188,0.292969 0.28125,0.292969 z m 2.009766,-2.8125 h 1.160156 l 0.128906,-0.328125 -0.02344,-0.03516 h -1.429688 l -0.1875,1.523437 c 0.105469,-0.04687 0.304688,-0.09375 0.515625,-0.09375 0.539063,0 0.808594,0.316406 0.808594,0.75 0,0.375 -0.210938,0.738281 -0.632813,0.738281 -0.304687,0 -0.515625,-0.152343 -0.621093,-0.246093 -0.04687,-0.04687 -0.08203,-0.03516 -0.128907,0 -0.05859,0.04687 -0.105468,0.105468 -0.105468,0.164062 -0.01172,0.05859 0.01172,0.09375 0.08203,0.164063 0.07031,0.07031 0.28125,0.175781 0.515625,0.175781 0.257812,0 0.597656,-0.128906 0.867187,-0.351563 0.304688,-0.257812 0.445313,-0.539062 0.445313,-0.84375 0,-0.410156 -0.328125,-0.84375 -0.960938,-0.84375 -0.140625,0 -0.375,0.08203 -0.5625,0.152344 z m -50.487305,34.12207 v -0.257812 h -2.097656 v 0.257812 z m 4.253906,-4.324218 c -0.07031,0.117187 -0.117187,0.140625 -0.257812,0.140625 -0.398438,0 -0.878907,-0.01172 -1.21875,-0.01172 -0.527344,-0.01172 -0.75,0.234375 -0.878907,0.386719 l 0.08203,0.117187 c 0.152343,-0.128906 0.339843,-0.1875 0.644531,-0.1875 0,0.527344 -0.09375,1.40625 -0.398438,1.851563 l 0.03516,0.09375 c 0.09375,0 0.1875,-0.02344 0.328125,-0.09375 0.04687,-0.05859 0.257812,-0.527344 0.257812,-1.746094 v -0.09375 c 0.210938,0 0.421875,0 0.703125,0 -0.02344,0.433594 -0.04687,0.84375 -0.04687,1.300781 0,0.503906 0.175781,0.632813 0.375,0.632813 0.164063,0 0.351563,-0.117188 0.457031,-0.28125 l -0.05859,-0.09375 c -0.07031,0.02344 -0.140625,0.04687 -0.210938,0.04687 -0.117187,0 -0.199219,-0.117188 -0.199219,-0.46875 0,-0.363282 0,-0.761719 0.01172,-1.125 0.105469,0 0.316406,0 0.386719,-0.02344 0.04687,-0.07031 0.09375,-0.222656 0.117187,-0.410156 z m 0,0"
         style="fill:#231f20;fill-opacity:1;fill-rule:nonzero;stroke:none"
         aria-label="1.0&#10;Beckmann–Spizzichino&#10;Trowbridge–Reitz&#10;0.5&#10;–&#10;π"
         transform="matrix(1.3333333,0,0,1.3333333,47.691733,20.579733)" />
      <path
         id="path16"
         d="M 2.5787147,-1.1094511 V -1.3930448 H 0.27012094 v 0.2835937 z m 0,0"
         style="fill:#231f20;fill-opacity:1;fill-rule:nonzero;stroke:none"
         aria-label="–"
         transform="matrix(1.3333333,0,0,1.2121212,5.75312,102.49323)" />
      <path
         id="path17"
         d="M 2.0617181,-0.70390437 C 1.9093744,-0.38749812 1.8507806,-0.36406062 1.5812494,-0.36406062 H 0.64374938 L 1.3468744,-1.1140606 c 0.46875,-0.4921875 0.6679687,-0.7851563 0.6679687,-1.21875 0,-0.5273438 -0.4101562,-0.84375 -0.84375,-0.84375 -0.29296872,0 -0.52734372,0.1289062 -0.67968747,0.2929687 l -0.28125,0.4101563 0.10546875,0.09375 c 0.12890625,-0.1875 0.33984375,-0.46875 0.6796875,-0.46875 0.37500002,0 0.59765622,0.2460937 0.59765622,0.6679687 0,0.4335938 -0.3164062,0.84375 -0.63281247,1.21875003 -0.24609375,0.28125 -0.52734375,0.57421875 -0.80859375,0.84375 V -7.79375e-4 H 2.0265619 C 2.0851556,-0.22343562 2.1320306,-0.44609187 2.2023431,-0.65702937 Z M 111.09004,-7.3308575 c -0.0703,0.1171875 -0.11719,0.140625 -0.25781,0.140625 -0.39844,0 -0.87891,-0.011719 -1.21875,-0.011719 -0.52735,-0.011719 -0.75,0.234375 -0.87891,0.3867187 l 0.082,0.1171875 c 0.15234,-0.1289062 0.33984,-0.1875 0.64453,-0.1875 0,0.5273438 -0.0937,1.40625 -0.39844,1.8515625 l 0.0352,0.09375 c 0.0937,0 0.1875,-0.023437 0.32813,-0.09375 0.0469,-0.058594 0.25781,-0.5273437 0.25781,-1.7460937 v -0.09375 c 0.21094,0 0.42187,0 0.70312,0 -0.0234,0.4335937 -0.0469,0.84375 -0.0469,1.3007812 0,0.5039063 0.17578,0.6328125 0.375,0.6328125 0.16406,0 0.35156,-0.1171875 0.45703,-0.28125 l -0.0586,-0.09375 c -0.0703,0.023437 -0.14063,0.046875 -0.21094,0.046875 -0.11719,0 -0.19922,-0.1171875 -0.19922,-0.46875 0,-0.3632812 0,-0.7617187 0.0117,-1.125 0.10547,0 0.3164,0 0.38672,-0.023437 0.0469,-0.070312 0.0937,-0.2226562 0.11718,-0.4101562 z m 0,0"
         style="fill:#231f20;fill-opacity:1;fill-rule:nonzero;stroke:none"
         aria-label="2&#10;π"
         transform="matrix(1.3333333,0,0,1.3333333,5.89948,106.49323)" />
      <path
         id="path18"
         d="M 2.5795469,-1.1094511 V -1.3930448 H 0.27095312 v 0.2835937 z m 0,0"
         style="fill:#231f20;fill-opacity:1;fill-rule:nonzero;stroke:none"
         aria-label="–"
         transform="matrix(1.3333333,0,0,1.2121212,150.97467,102.49323)" />
      <path
         id="path19"
         d="M 2.0623203,-0.70390437 C 1.9099766,-0.38749812 1.8513828,-0.36406062 1.5818516,-0.36406062 H 0.64435156 L 1.3474766,-1.1140606 c 0.46875,-0.4921875 0.6679687,-0.7851563 0.6679687,-1.21875 0,-0.5273438 -0.4101562,-0.84375 -0.84375,-0.84375 -0.29296874,0 -0.52734374,0.1289062 -0.67968749,0.2929687 l -0.28125,0.4101563 0.10546875,0.09375 c 0.12890625,-0.1875 0.33984375,-0.46875 0.6796875,-0.46875 0.37500004,0 0.59765624,0.2460937 0.59765624,0.6679687 0,0.4335938 -0.3164062,0.84375 -0.63281249,1.21875003 -0.24609375,0.28125 -0.52734375,0.57421875 -0.80859375,0.84375 V -7.79375e-4 H 2.0271641 C 2.0857578,-0.22343562 2.1326328,-0.44609187 2.2029453,-0.65702937 Z M -83.25018,-3.0066387 v -0.2578125 h -2.097656 v 0.2578125 z m 4.253907,-4.3242188 c -0.07031,0.1171875 -0.117188,0.140625 -0.257813,0.140625 -0.398437,0 -0.878906,-0.011719 -1.21875,-0.011719 -0.527344,-0.011719 -0.75,0.234375 -0.878906,0.3867187 l 0.08203,0.1171875 c 0.152344,-0.1289062 0.339844,-0.1875 0.644531,-0.1875 0,0.5273438 -0.09375,1.40625 -0.398437,1.8515625 l 0.03516,0.09375 c 0.09375,0 0.1875,-0.023437 0.328125,-0.09375 0.04687,-0.058594 0.257813,-0.5273437 0.257813,-1.7460937 v -0.09375 c 0.210937,0 0.421875,0 0.703125,0 -0.02344,0.4335937 -0.04687,0.84375 -0.04687,1.3007812 0,0.5039063 0.175781,0.6328125 0.375,0.6328125 0.164062,0 0.351562,-0.1171875 0.457031,-0.28125 l -0.05859,-0.09375 c -0.07031,0.023437 -0.140625,0.046875 -0.210937,0.046875 -0.117188,0 -0.199219,-0.1171875 -0.199219,-0.46875 0,-0.3632812 0,-0.7617187 0.01172,-1.125 0.105468,0 0.316406,0 0.386718,-0.023437 0.04687,-0.070312 0.09375,-0.2226562 0.117188,-0.4101562 z m 0,0"
         style="fill:#231f20;fill-opacity:1;fill-rule:nonzero;stroke:none"
         aria-label="2&#10;–&#10;π"
         transform="matrix(1.3333333,0,0,1.3333333,151.12133,106.49323)" />
      <path
         id="path20"
         d="M 2.576925,-1.1094511 V -1.3930448 H 0.26833125 v 0.2835937 z m 0,0"
         style="fill:#231f20;fill-opacity:1;fill-rule:nonzero;stroke:none"
         aria-label="–"
         transform="matrix(1.3333333,0,0,1.2121212,42.7516,102.49323)" />
      <path
         id="path21"
         d="M 2.2855844,-0.89140437 V -1.1257794 H 1.8051156 V -3.1648419 H 1.6058969 c -0.515625,0.6796875 -1.03125003,1.4179688 -1.50000003,2.1328125 v 0.14062503 H 1.4066781 v 0.36328125 c 0,0.328125 -0.023437,0.3515625 -0.45703123,0.38671875 V -7.79375e-4 H 2.2269906 V -0.14140437 c -0.4101562,-0.0351563 -0.421875,-0.0585938 -0.421875,-0.38671875 V -0.89140437 Z M 1.4066781,-1.1257794 H 0.41058437 c 0.33984375,-0.5507812 0.65625003,-1.03125 0.98437503,-1.4765625 h 0.011719 z M 55.591248,-7.3308575 c -0.07031,0.1171875 -0.117187,0.140625 -0.257812,0.140625 -0.398438,0 -0.878906,-0.011719 -1.21875,-0.011719 -0.527344,-0.011719 -0.75,0.234375 -0.878906,0.3867187 l 0.08203,0.1171875 c 0.152344,-0.1289062 0.339844,-0.1875 0.644531,-0.1875 0,0.5273438 -0.09375,1.40625 -0.398437,1.8515625 l 0.03516,0.09375 c 0.09375,0 0.1875,-0.023437 0.328125,-0.09375 0.04687,-0.058594 0.257812,-0.5273437 0.257812,-1.7460937 v -0.09375 c 0.210938,0 0.421875,0 0.703125,0 -0.02344,0.4335937 -0.04687,0.84375 -0.04687,1.3007812 0,0.5039063 0.175782,0.6328125 0.375,0.6328125 0.164063,0 0.351563,-0.1171875 0.457032,-0.28125 l -0.05859,-0.09375 c -0.07031,0.023437 -0.140625,0.046875 -0.210938,0.046875 -0.117187,0 -0.199218,-0.1171875 -0.199218,-0.46875 0,-0.3632812 0,-0.7617187 0.01172,-1.125 0.105469,0 0.316407,0 0.386719,-0.023437 0.04687,-0.070312 0.09375,-0.2226562 0.117188,-0.4101562 z m 0,0"
         style="fill:#231f20;fill-opacity:1;fill-rule:nonzero;stroke:none"
         aria-label="4&#10;π"
         transform="matrix(1.3333333,0,0,1.3333333,42.897867,106.49323)" />
      <path
         id="path22"
         d="M 2.5767172,-1.1094511 V -1.3930448 H 0.26812344 v 0.2835937 z m 0,0"
         style="fill:#231f20;fill-opacity:1;fill-rule:nonzero;stroke:none"
         aria-label="–"
         transform="matrix(1.3333333,0,0,1.2121212,113.97453,102.49323)" />
      <path
         id="path23"
         d="M 2.2853766,-0.89140437 V -1.1257794 H 1.8049078 V -3.1648419 H 1.6056891 c -0.515625,0.6796875 -1.03125004,1.4179688 -1.50000004,2.1328125 v 0.14062503 H 1.4064703 v 0.36328125 c 0,0.328125 -0.023437,0.3515625 -0.45703124,0.38671875 V -7.79375e-4 H 2.2267828 V -0.14140437 c -0.4101562,-0.0351563 -0.421875,-0.0585938 -0.421875,-0.38671875 V -0.89140437 Z M 1.4064703,-1.1257794 H 0.41037656 c 0.33984375,-0.5507812 0.65625004,-1.03125 0.98437504,-1.4765625 h 0.011719 z m 0,0"
         style="fill:#231f20;fill-opacity:1;fill-rule:nonzero;stroke:none"
         aria-label="4"
         transform="matrix(1.3333333,0,0,1.3333333,114.1208,106.49323)" />
      <path
         id="path24"
         d="m 458.031,696.277 89.032,-42.55"
         style="fill:none;stroke:#231f20;stroke-width:3.5;stroke-linecap:butt;stroke-linejoin:miter;stroke-miterlimit:3.25;stroke-dasharray:none;stroke-opacity:1"
         transform="matrix(0.13333333,0,0,-0.13333333,0,110.33333)" />
    </g>
  </g>
</svg>
