<?xml version="1.0" encoding="UTF-8" standalone="no"?>
<!-- Created with Inkscape (http://www.inkscape.org/) -->

<svg
   version="1.1"
   id="svg1"
   width="298.61334"
   height="192.25333"
   viewBox="0 0 298.61334 192.25333"
   sodipodi:docname="pha09f12.eps"
   xmlns:inkscape="http://www.inkscape.org/namespaces/inkscape"
   xmlns:sodipodi="http://sodipodi.sourceforge.net/DTD/sodipodi-0.dtd"
   xmlns="http://www.w3.org/2000/svg"
   xmlns:svg="http://www.w3.org/2000/svg">
  <defs
     id="defs1" />
  <sodipodi:namedview
     id="namedview1"
     pagecolor="#ffffff"
     bordercolor="#000000"
     borderopacity="0.25"
     inkscape:showpageshadow="2"
     inkscape:pageopacity="0.0"
     inkscape:pagecheckerboard="0"
     inkscape:deskcolor="#d1d1d1">
    <inkscape:page
       x="0"
       y="0"
       inkscape:label="1"
       id="page1"
       width="298.61334"
       height="192.25333"
       margin="0"
       bleed="0" />
  </sodipodi:namedview>
  <g
     id="g1"
     inkscape:groupmode="layer"
     inkscape:label="1">
    <g
       id="group-R5">
      <g
         id="g2"
         aria-label="η&#10;λ&#10;k&#10;5&#10;4&#10;3&#10;2&#10;1&#10;400500600700"
         transform="matrix(1.3333333,0,0,1.3333333,292.51067,97.933067)">
        <path
           id="path2"
           d="m 1.6648516,-2.2144484 0.1875,-0.8320313 c 0.1757812,-0.6914062 0.140625,-0.9960937 -0.070312,-0.9960937 -0.2460938,0 -0.79687504,0.3398437 -1.28906254,0.8671875 l 0.140625,0.1992187 c 0.22265625,-0.2226562 0.50390624,-0.4101562 0.58593754,-0.4101562 0.046875,0 0.070312,0.082031 0,0.375 -0.2109375,0.984375 -0.46875004,2.07421871 -0.71484379,3.04687496 l 0.0585938,0.0703125 c 0.1640625,-0.05859375 0.41015625,-0.12890625 0.64453119,-0.17578125 0.1054688,-0.5390625 0.2460938,-1.11328121 0.3515625,-1.51171871 0.5976564,-0.9257813 1.5703126,-1.8867188 1.9101563,-1.8867188 0.1171875,0 0.1523437,0.1171875 0.023437,0.6914063 -0.1757813,0.7382812 -0.3398438,1.4648437 -0.515625,2.21484371 -0.2929688,1.3125 -0.4804688,2.16796879 -0.4570313,2.34374999 0.058594,0.2226563 0.375,0.5273438 0.6210938,0.5273438 L 3.2000078,2.1918016 C 3.1648516,2.0277391 3.1882891,1.6527391 3.3640703,0.76211406 c 0.2226563,-1.125 0.4570313,-2.24999996 0.7734375,-3.55078126 0.2578125,-1.1132812 0.058594,-1.2539062 -0.140625,-1.2539062 -0.1523437,0 -0.375,0.070312 -0.5976562,0.1992187 -0.3984375,0.2460938 -1.0546875,0.7382813 -1.7109375,1.6289063 z M -115.11249,66.469145 c -0.28125,0.386719 -0.50391,0.527344 -0.59766,0.527344 -0.082,0 -0.14062,-0.09375 -0.19922,-0.492187 -0.16406,-1.136719 -0.29297,-2.601563 -0.36328,-3.339844 -0.15234,-1.722656 -0.46875,-2.074219 -0.9375,-2.074219 -0.25781,0 -0.63281,0.175781 -0.84375,0.351563 l 0.0586,0.222656 c 0.11718,-0.04687 0.25781,-0.09375 0.38671,-0.09375 0.28125,0.01172 0.48047,0.175781 0.60938,0.972656 0.0586,0.339844 0.0937,0.703125 0.11719,1.136719 -0.60938,1.441406 -1.58203,2.894531 -2.28516,3.761719 l 0.0703,0.164062 c 0.22266,-0.04687 0.4336,-0.105469 0.63282,-0.164062 0.35156,-0.503907 1.20703,-2.144532 1.65234,-3.164063 0.0352,0.644531 0.10547,1.242188 0.23437,2.355469 0.0586,0.644531 0.21094,0.972656 0.50391,0.972656 0.26953,0 0.66797,-0.222656 1.13672,-0.9375 z M 4.1140703,-11.841402 c -0.234375,0.257813 -0.421875,0.410157 -0.515625,0.410157 -0.1054687,0 -0.1875,-0.09375 -0.3515625,-0.433594 -0.2226562,-0.386719 -0.5742187,-1.195313 -0.7382812,-1.769531 0.2460937,-0.28125 0.75,-0.75 1.171875,-0.75 0.1523437,0 0.2578125,0.03516 0.3398437,0.08203 0.035156,0.01172 0.09375,0 0.140625,-0.04687 0.09375,-0.09375 0.1875,-0.257813 0.1875,-0.363281 0,-0.140625 -0.140625,-0.28125 -0.3867187,-0.28125 -0.4101563,0 -1.0664063,0.574218 -1.5703125,1.089843 -0.2578125,0.257813 -0.4921875,0.480469 -0.7734375,0.808594 h -0.011719 c 0.3046875,-1.335937 0.5976563,-2.660156 0.9023438,-4.007812 0.035156,-0.175782 0.046875,-0.257813 -0.046875,-0.257813 -0.1171875,0 -0.5976563,0.234375 -1.3242188,0.316406 l -0.046875,0.210938 0.28125,0.01172 c 0.3515625,0.01172 0.3984375,0.04687 0.328125,0.410156 -0.3867187,1.875 -0.79687499,3.679687 -1.23046874,5.519531 l 0.0703125,0.04687 c 0.1875,-0.07031 0.41015625,-0.128906 0.64453124,-0.164062 0.09375,-0.515625 0.2109375,-1.042969 0.3046875,-1.523438 0.09375,-0.152344 0.2695313,-0.339844 0.5039063,-0.574219 0.2226562,0.632813 0.46875,1.207032 0.6914062,1.675782 0.2226563,0.480468 0.3984375,0.585937 0.5859375,0.585937 0.1875,0 0.5742188,-0.152344 0.9960938,-0.820312 z m 0,0"
           style="fill:#231f20;fill-opacity:1;fill-rule:nonzero;stroke:none" />
        <path
           id="path3"
           d="m -218.16425,-71.258394 h 1.86328 l 0.21094,-0.515625 -0.0469,-0.07031 h -2.28515 l -0.31641,2.449219 c 0.1875,-0.07031 0.49219,-0.164063 0.83203,-0.164063 0.86719,0 1.30078,0.503906 1.30078,1.207031 0,0.609375 -0.33984,1.183594 -1.01953,1.183594 -0.48047,0 -0.80859,-0.246094 -0.98437,-0.398437 -0.082,-0.07031 -0.14063,-0.05859 -0.21094,0 -0.0937,0.07031 -0.16406,0.175781 -0.17578,0.257812 -0.0117,0.09375 0.0352,0.164063 0.12891,0.269531 0.1289,0.117188 0.45703,0.28125 0.83203,0.28125 0.42187,0 0.96093,-0.210937 1.39453,-0.5625 0.48047,-0.398437 0.70312,-0.855468 0.70312,-1.335937 0,-0.65625 -0.51562,-1.359375 -1.53515,-1.359375 -0.22266,0 -0.59766,0.128906 -0.90235,0.246094 z m 2.42578,26.326172 v -0.375 h -0.76172 v -3.257812 h -0.3164 c -0.83203,1.089843 -1.64063,2.273437 -2.40235,3.410156 v 0.222656 h 2.07422 v 0.585938 c 0,0.527343 -0.0234,0.574218 -0.72656,0.632812 v 0.210938 h 2.05078 v -0.210938 c -0.64453,-0.05859 -0.67969,-0.105469 -0.67969,-0.632812 v -0.585938 z m -1.40625,-0.375 h -1.57031 c 0.52734,-0.878906 1.04297,-1.640625 1.55859,-2.355469 h 0.0117 z m -1.55859,21.181641 c 0.19922,-0.292969 0.51562,-0.632813 0.96094,-0.632813 0.42187,0 0.76171,0.257813 0.76171,0.75 0,0.597657 -0.55078,0.914063 -1.27734,1.136719 l 0.0469,0.234375 c 0.1289,-0.03516 0.32812,-0.08203 0.51562,-0.08203 0.45703,0 1.01953,0.292969 1.01953,1.03125 0,0.785156 -0.39844,1.21875 -0.97265,1.21875 -0.45704,0 -0.78516,-0.222656 -0.98438,-0.410156 -0.0703,-0.05859 -0.12891,-0.04687 -0.19922,0 -0.0703,0.05859 -0.17578,0.164062 -0.1875,0.257812 -0.0117,0.105469 0.0234,0.1875 0.12891,0.292969 0.10547,0.09375 0.43359,0.269531 0.80859,0.269531 0.57422,0 2.09766,-0.585937 2.09766,-1.886719 0,-0.585937 -0.41016,-1.078125 -1.11328,-1.21875 v -0.01172 c 0.22265,-0.164063 0.42187,-0.304688 0.53906,-0.433594 0.15234,-0.152344 0.24609,-0.339844 0.24609,-0.574219 0,-0.597656 -0.46875,-1.054687 -1.18359,-1.054687 -0.43359,0 -0.79688,0.199218 -1.01953,0.457031 l -0.35156,0.503906 z m 2.61328,26.2001951 c -0.23438,0.5039062 -0.33984,0.5390625 -0.77344,0.5390625 h -1.5 l 1.13672,-1.1953125 c 0.73828,-0.78515629 1.06641,-1.25390629 1.06641,-1.94531254 0,-0.84374996 -0.64453,-1.35937496 -1.34766,-1.35937496 -0.46875,0 -0.84375,0.2109375 -1.07812,0.4804687 l -0.45704,0.64453126 0.17579,0.1640625 c 0.19921,-0.31640625 0.53906,-0.74999996 1.08984,-0.74999996 0.58594,0 0.9375,0.39843746 0.9375,1.06640621 0,0.69140625 -0.50391,1.34765629 -0.99609,1.93359379 -0.39844,0.46875 -0.85547,0.9257812 -1.30079,1.359375 v 0.1875 h 3 c 0.0937,-0.3632813 0.17579,-0.7148438 0.28125,-1.0429688 z m -0.22266,24.4746089 v -0.210937 c -0.72656,-0.05859 -0.77343,-0.128906 -0.77343,-0.703125 v -4.171875 c -0.44532,0.175781 -0.91407,0.328125 -1.42969,0.421875 v 0.1875 l 0.38672,0.01172 c 0.35156,0.01172 0.38672,0.05859 0.38672,0.46875 v 3.082031 c 0,0.574219 -0.0352,0.644531 -0.77344,0.703125 v 0.210937 z m 42.21973,30.275391 v -0.375 h -0.76172 v -3.257812 h -0.31641 c -0.83203,1.089843 -1.64062,2.273437 -2.40234,3.410156 v 0.222656 h 2.07422 v 0.585938 c 0,0.527343 -0.0234,0.574218 -0.72656,0.632812 v 0.210938 h 2.05078 v -0.210938 c -0.64453,-0.05859 -0.67969,-0.105469 -0.67969,-0.632812 v -0.585938 z m -1.40625,-0.375 h -1.57031 c 0.52734,-0.878906 1.04297,-1.640625 1.55859,-2.355469 h 0.0117 z m 3.52148,-3.28125 c -1.20703,0 -1.64062,1.429688 -1.64062,2.601563 0,1.265625 0.43359,2.578125 1.64062,2.578125 1.19532,0 1.62891,-1.417969 1.62891,-2.589844 0,-1.230469 -0.43359,-2.589844 -1.62891,-2.589844 z m -0.0117,0.269531 c 0.72657,0 0.92579,1.183594 0.92579,2.320313 0,1.125 -0.19922,2.320312 -0.91407,2.320312 -0.70312,0 -0.92578,-1.207031 -0.92578,-2.332031 0,-1.113281 0.1875,-2.308594 0.91406,-2.308594 z m 3.85254,-0.269531 c -1.20703,0 -1.64062,1.429688 -1.64062,2.601563 0,1.265625 0.43359,2.578125 1.64062,2.578125 1.19532,0 1.62891,-1.417969 1.62891,-2.589844 0,-1.230469 -0.43359,-2.589844 -1.62891,-2.589844 z m -0.0117,0.269531 c 0.72656,0 0.92578,1.183594 0.92578,2.320313 0,1.125 -0.19922,2.320312 -0.91407,2.320312 -0.70312,0 -0.92578,-1.207031 -0.92578,-2.332031 0,-1.113281 0.1875,-2.308594 0.91407,-2.308594 z m 30.97558,0.410157 h 1.86328 l 0.21094,-0.515625 -0.0469,-0.07031 h -2.28515 l -0.31641,2.449219 c 0.1875,-0.07031 0.49219,-0.164063 0.83203,-0.164063 0.86719,0 1.30078,0.503907 1.30078,1.207032 0,0.609375 -0.33984,1.183593 -1.01953,1.183593 -0.48047,0 -0.80859,-0.246093 -0.98437,-0.398437 -0.082,-0.07031 -0.14063,-0.05859 -0.21094,0 -0.0937,0.07031 -0.16406,0.175781 -0.17578,0.257812 -0.0117,0.09375 0.0352,0.164063 0.12891,0.269532 0.1289,0.117187 0.45703,0.28125 0.83203,0.28125 0.42187,0 0.96093,-0.210938 1.39453,-0.5625 0.48047,-0.398438 0.70312,-0.855469 0.70312,-1.335938 0,-0.65625 -0.51562,-1.359375 -1.53515,-1.359375 -0.22266,0 -0.59766,0.128906 -0.90235,0.246094 z m 4.54102,-0.679688 c -1.20703,0 -1.64063,1.429688 -1.64063,2.601563 0,1.265625 0.4336,2.578125 1.64063,2.578125 1.19531,0 1.6289,-1.417969 1.6289,-2.589844 0,-1.230469 -0.43359,-2.589844 -1.6289,-2.589844 z m -0.0117,0.269531 c 0.72656,0 0.92578,1.183594 0.92578,2.320313 0,1.125 -0.19922,2.320312 -0.91406,2.320312 -0.70313,0 -0.92578,-1.207031 -0.92578,-2.332031 0,-1.113281 0.1875,-2.308594 0.91406,-2.308594 z m 3.85254,-0.269531 c -1.20703,0 -1.64063,1.429688 -1.64063,2.601563 0,1.265625 0.4336,2.578125 1.64063,2.578125 1.19531,0 1.6289,-1.417969 1.6289,-2.589844 0,-1.230469 -0.43359,-2.589844 -1.6289,-2.589844 z m -0.0117,0.269531 c 0.72656,0 0.92578,1.183594 0.92578,2.320313 0,1.125 -0.19922,2.320312 -0.91406,2.320312 -0.70313,0 -0.92578,-1.207031 -0.92578,-2.332031 0,-1.113281 0.1875,-2.308594 0.91406,-2.308594 z m 30.858397,2.074219 c 0.234375,-1.113281 0.984375,-1.617187 1.464843,-1.851562 0.304688,-0.140625 0.609375,-0.234375 0.878907,-0.28125 l -0.05859,-0.257813 c -0.316406,0.05859 -0.703125,0.140625 -1.03125,0.257813 -0.84375,0.316406 -2.0625,1.21875 -2.0625,2.964843 0,1.242188 0.703125,2.003907 1.640625,2.003907 0.960937,0 1.640625,-0.808594 1.640625,-1.757813 0,-0.820312 -0.585938,-1.476562 -1.441406,-1.476562 -0.152344,0 -0.328125,0.04687 -0.503907,0.128906 z m 0.726562,0.04687 c 0.726563,0 1.066406,0.65625 1.066406,1.324219 0,0.527344 -0.199218,1.195312 -0.820312,1.195312 -0.65625,0 -1.066406,-0.785156 -1.066406,-1.746093 0,-0.210938 0.01172,-0.398438 0.04687,-0.550782 0.199218,-0.105468 0.46875,-0.222656 0.773437,-0.222656 z m 3.931641,-2.390625 c -1.207032,0 -1.640625,1.429688 -1.640625,2.601563 0,1.265625 0.433593,2.578125 1.640625,2.578125 1.195312,0 1.628906,-1.417969 1.628906,-2.589844 0,-1.230469 -0.433594,-2.589844 -1.628906,-2.589844 z m -0.01172,0.269531 c 0.726562,0 0.925781,1.183594 0.925781,2.320313 0,1.125 -0.199219,2.320312 -0.914062,2.320312 -0.703125,0 -0.925782,-1.207031 -0.925782,-2.332031 0,-1.113281 0.1875,-2.308594 0.914063,-2.308594 z m 3.852539,-0.269531 c -1.207031,0 -1.640625,1.429688 -1.640625,2.601563 0,1.265625 0.433594,2.578125 1.640625,2.578125 1.195312,0 1.628906,-1.417969 1.628906,-2.589844 0,-1.230469 -0.433594,-2.589844 -1.628906,-2.589844 z m -0.01172,0.269531 c 0.726563,0 0.925781,1.183594 0.925781,2.320313 0,1.125 -0.199218,2.320312 -0.914062,2.320312 -0.703125,0 -0.925781,-1.207031 -0.925781,-2.332031 0,-1.113281 0.1875,-2.308594 0.914062,-2.308594 z m 33.331055,-0.175781 h -3.058594 c -0.02344,0.351563 -0.07031,0.75 -0.140625,1.195313 h 0.234375 c 0.1875,-0.539063 0.234375,-0.609375 0.761719,-0.609375 h 1.734375 c -0.632813,1.394531 -1.535156,3.058593 -2.378906,4.417968 l 0.05859,0.08203 0.585938,-0.08203 c 0.773437,-1.640625 1.523437,-3.28125 2.273437,-4.898437 z m 2.185547,-0.09375 c -1.207031,0 -1.640625,1.429688 -1.640625,2.601563 0,1.265625 0.433594,2.578125 1.640625,2.578125 1.195312,0 1.628906,-1.417969 1.628906,-2.589844 0,-1.230469 -0.433594,-2.589844 -1.628906,-2.589844 z m -0.01172,0.269531 c 0.726563,0 0.925781,1.183594 0.925781,2.320313 0,1.125 -0.199218,2.320312 -0.914062,2.320312 -0.703125,0 -0.925781,-1.207031 -0.925781,-2.332031 0,-1.113281 0.1875,-2.308594 0.914062,-2.308594 z m 3.852539,-0.269531 c -1.207031,0 -1.640625,1.429688 -1.640625,2.601563 0,1.265625 0.433594,2.578125 1.640625,2.578125 1.195313,0 1.628906,-1.417969 1.628906,-2.589844 0,-1.230469 -0.433593,-2.589844 -1.628906,-2.589844 z m -0.01172,0.269531 c 0.726563,0 0.925782,1.183594 0.925782,2.320313 0,1.125 -0.199219,2.320312 -0.914063,2.320312 -0.703125,0 -0.925781,-1.207031 -0.925781,-2.332031 0,-1.113281 0.1875,-2.308594 0.914062,-2.308594 z m 0,0"
           style="fill:#231f20;fill-opacity:1;fill-rule:nonzero;stroke:none" />
      </g>
      <path
         id="path4"
         d="m 80.5625,681.563 9.457,-0.047 14.6755,-0.266 15.063,-0.672 15.433,-1.094 15.825,-1.691 16.265,-2.969 16.66,-3.133 17.118,-2.257 17.57,-1.922 18.086,-1.934 18.539,-1.359 19.101,-0.164 19.625,0.644 20.196,1.016 20.797,2.254 21.418,4.894 22.054,5.391 22.766,3.848 23.437,3.164 24.204,2.714 24.992,1.942 25.769,0.781 26.664,-0.32 27.575,-1.555 28.496,-2.656 29.539,-3.613 30.554,-4.766 31.668,-6.563 32.844,-7.011 34.106,-7.324 35.41,-4.336 36.777,0.324 38.258,9.961 39.848,27.187 41.48,38.172 43.246,48.137 45.112,49.922 47.14,44.508 49.28,34.867 51.56,14.14 54.03,6.856 56.65,10.527 59.5,10.485 62.56,2.347 65.82,18.656 69.37,69.052 73.29,82.7 77.42,67.15 81.98,62.87 86.97,59.13 92.39,58.29 28.61,18.08"
         style="fill:none;stroke:#3871c1;stroke-width:10;stroke-linecap:butt;stroke-linejoin:miter;stroke-miterlimit:3.25;stroke-dasharray:none;stroke-opacity:1"
         transform="matrix(0.13333333,0,0,-0.13333333,0,192.25333)" />
      <path
         id="path5"
         d="m 80.5547,653.684 9.4648,2.625 14.6755,2.461 15.063,1.73 15.433,1.68 15.825,0.664 16.265,-1.34 16.66,-2.41 17.118,-2.785 17.57,-3.27 18.086,-3.75 18.539,-3.723 19.101,-3.164 19.625,-2.91 20.196,-2.898 20.797,-2.696 21.418,-2.363 22.054,-2.324 22.766,-2.609 23.437,-2.52 24.204,-1.875 24.992,-1.875 25.769,-2.488 26.664,-2.629 27.575,-1.875 28.496,-2.781 29.539,-4.629 30.554,-8.008 31.668,-13.965 32.844,-17.754 34.106,-18.723 35.41,-24.238 36.777,-36.269 38.258,-39.832 39.848,-37.719 41.48,-34.172 43.246,-27.16 45.112,-20.949 47.14,-13.18 49.28,-9.242 51.56,-8.969 54.03,-7.371 56.65,-5.52 59.5,-4.269 62.56,-3.809 65.82,-2.761 69.37,-1.129 73.29,-0.243 77.42,0.211 81.98,0.723 86.97,1.258 92.39,1.539 28.61,0.371"
         style="fill:none;stroke:#da1259;stroke-width:10;stroke-linecap:butt;stroke-linejoin:miter;stroke-miterlimit:3.25;stroke-dasharray:none;stroke-opacity:1"
         transform="matrix(0.13333333,0,0,-0.13333333,0,192.25333)" />
      <path
         id="path6"
         d="m 474.043,203.289 v 30"
         style="fill:none;stroke:#231f20;stroke-width:5;stroke-linecap:butt;stroke-linejoin:miter;stroke-miterlimit:3.25;stroke-dasharray:none;stroke-opacity:1"
         transform="matrix(0.13333333,0,0,-0.13333333,0,192.25333)" />
      <path
         id="path7"
         d="m 867.5,203.289 v 30"
         style="fill:none;stroke:#231f20;stroke-width:5;stroke-linecap:butt;stroke-linejoin:miter;stroke-miterlimit:3.25;stroke-dasharray:none;stroke-opacity:1"
         transform="matrix(0.13333333,0,0,-0.13333333,0,192.25333)" />
      <path
         id="path8"
         d="m 1260.96,203.289 v 30"
         style="fill:none;stroke:#231f20;stroke-width:5;stroke-linecap:butt;stroke-linejoin:miter;stroke-miterlimit:3.25;stroke-dasharray:none;stroke-opacity:1"
         transform="matrix(0.13333333,0,0,-0.13333333,0,192.25333)" />
      <path
         id="path9"
         d="m 1654.45,203.289 v 30"
         style="fill:none;stroke:#231f20;stroke-width:5;stroke-linecap:butt;stroke-linejoin:miter;stroke-miterlimit:3.25;stroke-dasharray:none;stroke-opacity:1"
         transform="matrix(0.13333333,0,0,-0.13333333,0,192.25333)" />
      <path
         id="path10"
         d="M 80.5547,233.289 H 1969.21"
         style="fill:none;stroke:#231f20;stroke-width:5;stroke-linecap:butt;stroke-linejoin:miter;stroke-miterlimit:3.25;stroke-dasharray:none;stroke-opacity:1"
         transform="matrix(0.13333333,0,0,-0.13333333,0,192.25333)" />
      <path
         id="path11"
         d="m 50.5547,466.73 h 30"
         style="fill:none;stroke:#231f20;stroke-width:5;stroke-linecap:butt;stroke-linejoin:miter;stroke-miterlimit:3.25;stroke-dasharray:none;stroke-opacity:1"
         transform="matrix(0.13333333,0,0,-0.13333333,0,192.25333)" />
      <path
         id="path12"
         d="m 50.5547,700.207 h 30"
         style="fill:none;stroke:#231f20;stroke-width:5;stroke-linecap:butt;stroke-linejoin:miter;stroke-miterlimit:3.25;stroke-dasharray:none;stroke-opacity:1"
         transform="matrix(0.13333333,0,0,-0.13333333,0,192.25333)" />
      <path
         id="path13"
         d="m 50.5547,933.641 h 30"
         style="fill:none;stroke:#231f20;stroke-width:5;stroke-linecap:butt;stroke-linejoin:miter;stroke-miterlimit:3.25;stroke-dasharray:none;stroke-opacity:1"
         transform="matrix(0.13333333,0,0,-0.13333333,0,192.25333)" />
      <path
         id="path14"
         d="m 50.5547,1167.07 h 30"
         style="fill:none;stroke:#231f20;stroke-width:5;stroke-linecap:butt;stroke-linejoin:miter;stroke-miterlimit:3.25;stroke-dasharray:none;stroke-opacity:1"
         transform="matrix(0.13333333,0,0,-0.13333333,0,192.25333)" />
      <path
         id="path15"
         d="m 50.5547,1400.54 h 30"
         style="fill:none;stroke:#231f20;stroke-width:5;stroke-linecap:butt;stroke-linejoin:miter;stroke-miterlimit:3.25;stroke-dasharray:none;stroke-opacity:1"
         transform="matrix(0.13333333,0,0,-0.13333333,0,192.25333)" />
      <path
         id="path16"
         d="M 80.5547,233.289 V 1400.54"
         style="fill:none;stroke:#231f20;stroke-width:5;stroke-linecap:butt;stroke-linejoin:miter;stroke-miterlimit:3.25;stroke-dasharray:none;stroke-opacity:1"
         transform="matrix(0.13333333,0,0,-0.13333333,0,192.25333)" />
      <path
         id="path17"
         d="m 2062.29,845.871 h 99.35"
         style="fill:none;stroke:#3871c1;stroke-width:11.52;stroke-linecap:square;stroke-linejoin:miter;stroke-miterlimit:3.25;stroke-dasharray:none;stroke-opacity:1"
         transform="matrix(0.13333333,0,0,-0.13333333,0,192.25333)" />
      <path
         id="path18"
         d="m 2062.29,725.871 h 99.35"
         style="fill:none;stroke:#da1259;stroke-width:11.52;stroke-linecap:square;stroke-linejoin:miter;stroke-miterlimit:3.25;stroke-dasharray:none;stroke-opacity:1"
         transform="matrix(0.13333333,0,0,-0.13333333,0,192.25333)" />
    </g>
  </g>
</svg>
