<?xml version="1.0" encoding="UTF-8" standalone="no"?>
<!-- Created with Inkscape (http://www.inkscape.org/) -->

<svg
   version="1.1"
   id="svg1"
   width="143.53333"
   height="150.92"
   viewBox="0 0 143.53333 150.92"
   sodipodi:docname="pha09f48.eps"
   xmlns:inkscape="http://www.inkscape.org/namespaces/inkscape"
   xmlns:sodipodi="http://sodipodi.sourceforge.net/DTD/sodipodi-0.dtd"
   xmlns="http://www.w3.org/2000/svg"
   xmlns:svg="http://www.w3.org/2000/svg">
  <defs
     id="defs1" />
  <sodipodi:namedview
     id="namedview1"
     pagecolor="#ffffff"
     bordercolor="#000000"
     borderopacity="0.25"
     inkscape:showpageshadow="2"
     inkscape:pageopacity="0.0"
     inkscape:pagecheckerboard="0"
     inkscape:deskcolor="#d1d1d1">
    <inkscape:page
       x="0"
       y="0"
       inkscape:label="1"
       id="page1"
       width="143.53333"
       height="150.92"
       margin="0"
       bleed="0" />
  </sodipodi:namedview>
  <g
     id="g1"
     inkscape:groupmode="layer"
     inkscape:label="1">
    <g
       id="group-R5">
      <g
         id="g2"
         aria-label="γ&#10;t&#10;l&#10;a&#10;/2&#10;γ&#10;t&#10;ω"
         transform="matrix(1.3333333,0,0,1.3333333,53.984933,48.194933)">
        <path
           id="path2"
           d="M 2.2730188,-0.51534062 C 2.3433313,-1.1012781 2.308175,-2.2731531 2.16755,-2.9879969 c -0.1523437,-0.796875 -0.375,-1.0546875 -0.6210937,-1.0546875 -0.28125,0 -0.70312505,0.328125 -1.1367188,1.03125 l 0.2109375,0.1992188 c 0.29296875,-0.421875 0.4570313,-0.5742188 0.5625,-0.5742188 0.082031,0 0.1640625,0.1171875 0.2460938,0.375 0.328125,0.9726563 0.3867187,2.39062503 0.2578125,3.15234378 C 1.3003625,0.85575313 0.8316125,1.7932531 0.6909875,2.1799719 L 0.79645625,2.3088781 C 1.0659875,2.2854406 1.5113,2.0745031 1.651925,1.9573156 1.7573938,1.6877844 1.9917688,0.78544063 2.120675,0.17606563 2.2261438,0.03544063 2.4488,-0.28096562 2.7652063,-0.71455937 3.3745813,-1.4997156 4.2066125,-2.5778406 4.2183313,-3.3747156 4.23005,-3.7731531 4.0542688,-4.0426844 3.8316125,-4.0426844 c -0.1875,0 -0.3632812,0.1523438 -0.3632812,0.3164063 0,0.046875 0.011719,0.09375 0.035156,0.140625 0.046875,0.070312 0.1289063,0.2460937 0.1289063,0.4570312 0,0.7734375 -0.84375,1.9804688 -1.3359375,2.61328128 z m 0,0"
           style="fill:#231f20;fill-opacity:1;fill-rule:nonzero;stroke:none" />
        <path
           id="path3"
           d="M 6.058175,1.7903234 5.9995813,1.6262609 c -0.082031,0.046875 -0.2226563,0.1054688 -0.375,0.1054688 -0.1523438,0 -0.3398438,-0.09375 -0.3398438,-0.5742188 V -0.38936406 H 5.91755 c 0.070312,-0.0351563 0.09375,-0.17578125 0.035156,-0.234375 H 5.2847375 V -1.4440516 l -0.09375,-0.011719 -0.3867187,0.3984375 v 0.43359374 H 4.5347375 l -0.1640625,0.17578125 0.023437,0.0585938 H 4.8042688 V 1.3567297 c 0,0.4804687 0.2109375,0.7148437 0.5859375,0.7148437 0.058594,0 0.1523437,-0.023437 0.2578125,-0.082031 z m 0,0"
           style="fill:#231f20;fill-opacity:1;fill-rule:nonzero;stroke:none" />
        <path
           id="path4"
           d="m 25.288644,-4.36495 c -0.164063,0.1757813 -0.410156,0.328125 -0.480469,0.328125 -0.03516,0 -0.05859,-0.035156 -0.02344,-0.2109375 0.257812,-1.1835937 0.503906,-2.34375 0.75,-3.5039062 0.02344,-0.1289063 0.01172,-0.1875 -0.04687,-0.1875 -0.07031,0 -0.410157,0.1640625 -0.878907,0.2109375 l -0.02344,0.1523437 h 0.152344 c 0.28125,0 0.316406,0.046875 0.257812,0.3046875 -0.199219,0.984375 -0.410156,1.96875 -0.621094,2.953125 -0.128906,0.5859375 -0.03516,0.7265625 0.08203,0.7265625 0.1875,0 0.609375,-0.2695312 0.925781,-0.6445312 z m 3.670898,2.0126953 c -0.175781,0.1640625 -0.386719,0.3046875 -0.433594,0.3046875 -0.03516,0 -0.05859,-0.046875 -0.01172,-0.2578125 0.140625,-0.7617187 0.316406,-1.5703125 0.410156,-1.9453125 l -0.01172,-0.023437 c -0.07031,0 -0.140625,-0.023437 -0.234375,-0.035156 -0.117187,-0.023437 -0.246094,-0.046875 -0.363281,-0.046875 -0.386719,0 -0.820313,0.2109375 -1.125,0.46875 -0.433594,0.3632812 -0.714844,1.0195312 -0.714844,1.6171875 0,0.4804687 0.1875,0.6796875 0.351563,0.6796875 0.152343,0 0.351562,-0.1054688 0.550781,-0.2695313 0.257812,-0.2109375 0.539062,-0.4921875 0.773437,-0.8320312 h 0.01172 l -0.117187,0.5742187 c -0.08203,0.4335938 0,0.5273438 0.105468,0.5273438 0.152344,0 0.550782,-0.2226563 0.878907,-0.6210938 z m -1.828125,0.375 c -0.08203,0 -0.164062,-0.1171875 -0.164062,-0.3867187 0,-0.5976563 0.246093,-1.3125 0.65625,-1.6054688 0.09375,-0.082031 0.269531,-0.1289062 0.421875,-0.1289062 0.152343,0 0.316406,0.046875 0.398437,0.082031 -0.03516,0.1992188 -0.128906,0.6328125 -0.1875,0.8671875 -0.210937,0.4101563 -0.890625,1.171875 -1.125,1.1718752 z m 0,0"
           style="fill:#231f20;fill-opacity:1;fill-rule:nonzero;stroke:none" />
        <path
           id="path5"
           d="M 32.106027,-9.6501062 H 31.60212 l -1.957031,6.3867187 h 0.503906 z M 36.10212,-4.92745 c -0.269531,0.5742188 -0.386718,0.609375 -0.867187,0.609375 h -1.6875 l 1.277344,-1.3359375 c 0.832031,-0.890625 1.195312,-1.4179687 1.195312,-2.203125 0,-0.9492187 -0.726562,-1.5234375 -1.511719,-1.5234375 -0.527343,0 -0.949218,0.234375 -1.21875,0.5390625 l -0.515625,0.7265625 0.199219,0.1757813 C 33.207589,-8.2907312 33.582589,-8.7712 34.203683,-8.7712 c 0.65625,0 1.054687,0.4335938 1.054687,1.1953125 0,0.7734375 -0.5625,1.5117188 -1.125,2.1796875 -0.445312,0.515625 -0.949218,1.03125 -1.453125,1.5234375 v 0.2109375 h 3.363282 c 0.105468,-0.4101562 0.199218,-0.796875 0.316406,-1.1835937 z m 0,0"
           style="fill:#231f20;fill-opacity:1;fill-rule:nonzero;stroke:none" />
        <path
           id="path6"
           d="m 45.272042,42.817667 c 0.07031,-0.585937 0.03516,-1.757812 -0.105469,-2.472656 -0.152343,-0.796875 -0.375,-1.054688 -0.621093,-1.054688 -0.28125,0 -0.703125,0.328125 -1.136719,1.03125 l 0.210937,0.199219 c 0.292969,-0.421875 0.457032,-0.574219 0.5625,-0.574219 0.08203,0 0.164063,0.117188 0.246094,0.375 0.328125,0.972657 0.386719,2.390625 0.257813,3.152344 -0.386719,0.714844 -0.855469,1.652344 -0.996094,2.039063 l 0.105469,0.128906 c 0.269531,-0.02344 0.714843,-0.234375 0.855468,-0.351563 0.105469,-0.269531 0.339844,-1.171875 0.46875,-1.78125 0.105469,-0.140625 0.328125,-0.457031 0.644532,-0.890625 0.609375,-0.785156 1.441406,-1.863281 1.453125,-2.660156 0.01172,-0.398437 -0.164063,-0.667969 -0.386719,-0.667969 -0.1875,0 -0.363281,0.152344 -0.363281,0.316407 0,0.04687 0.01172,0.09375 0.03516,0.140625 0.04687,0.07031 0.128906,0.246093 0.128906,0.457031 0,0.773437 -0.84375,1.980469 -1.335937,2.613281 z m 0,0"
           style="fill:#231f20;fill-opacity:1;fill-rule:nonzero;stroke:none" />
        <path
           id="path7"
           d="m 49.060128,45.120402 -0.05859,-0.164063 c -0.08203,0.04687 -0.222656,0.105469 -0.375,0.105469 -0.152343,0 -0.339843,-0.09375 -0.339843,-0.574219 v -1.546875 h 0.632812 c 0.07031,-0.03516 0.09375,-0.175781 0.03516,-0.234375 h -0.667968 v -0.820312 l -0.09375,-0.01172 -0.386719,0.398437 v 0.433594 h -0.269531 l -0.164063,0.175781 0.02344,0.05859 h 0.410156 v 1.746094 c 0,0.480469 0.210937,0.714844 0.585937,0.714844 0.05859,0 0.152344,-0.02344 0.257813,-0.08203 z m 0,0"
           style="fill:#231f20;fill-opacity:1;fill-rule:nonzero;stroke:none" />
        <path
           id="path8"
           d="m -36.129325,-27.843466 c 0.292969,0.257813 0.503906,0.714844 0.503906,1.382813 -0.01172,1.007812 -0.398437,2.050781 -1.136718,2.050781 -0.304688,0 -0.515625,-0.304687 -0.492188,-0.878906 0.02344,-0.46875 0.234375,-1.359375 0.351563,-1.722656 l -0.05859,-0.03516 -0.667969,0.140625 c -0.03516,0.28125 -0.09375,0.75 -0.1875,1.136719 -0.199219,0.855469 -0.5625,1.3125 -0.949219,1.3125 -0.28125,0 -0.539062,-0.339844 -0.539062,-0.996094 0,-1.007812 0.46875,-1.921875 1.160156,-2.449218 l -0.140625,-0.199219 c -1.042969,0.539062 -1.757812,1.558594 -1.757812,2.765625 0,0.9375 0.421875,1.441406 0.9375,1.441406 0.386718,0 0.902343,-0.398437 1.230468,-0.890625 0.04687,0.503906 0.328125,0.890625 0.761719,0.890625 0.375,0 0.738281,-0.222656 1.066406,-0.515625 0.5625,-0.527344 0.996094,-1.300781 0.996094,-2.214844 0,-0.902343 -0.398437,-1.417968 -0.691406,-1.417968 -0.152344,0 -0.316406,0.07031 -0.375,0.128906 z m 0,0"
           style="fill:#231f20;fill-opacity:1;fill-rule:nonzero;stroke:none" />
      </g>
      <path
         id="path9"
         d="M 1060.45,371.488 C 1123,630.309 963.887,890.824 705.066,953.371 446.246,1015.92 185.723,856.813 123.176,597.992 60.625,339.164 219.734,78.6602 478.555,16.1016 737.379,-46.4414 997.898,112.66 1060.45,371.488 Z"
         style="fill:none;stroke:#231f20;stroke-width:5;stroke-linecap:butt;stroke-linejoin:miter;stroke-miterlimit:10;stroke-dasharray:none;stroke-opacity:1"
         transform="matrix(0.13333333,0,0,-0.13333333,0,150.92)" />
      <path
         id="path10"
         d="M 438.73,943.199 44.9375,1112.53"
         style="fill:none;stroke:#231f20;stroke-width:7.5;stroke-linecap:butt;stroke-linejoin:miter;stroke-miterlimit:10;stroke-dasharray:none;stroke-opacity:1"
         transform="matrix(0.13333333,0,0,-0.13333333,0,150.92)" />
      <path
         id="path11"
         d="m 54.8281,1108.28 3.5391,-25.06 -0.8711,-0.16 -26.8516,26.79 c -10.2148,7.33 -20.4297,14.67 -30.6445,22 12.3477,-2.37 24.6992,-4.74 37.0508,-7.11 l 37.9101,-1.06 0.5352,-0.63 -20.668,-14.77"
         style="fill:#231f20;fill-opacity:1;fill-rule:nonzero;stroke:none"
         transform="matrix(0.13333333,0,0,-0.13333333,0,150.92)" />
      <path
         id="path12"
         d="M 1060.45,371.488 438.73,943.199 591.813,484.742 Z"
         style="fill:none;stroke:#231f20;stroke-width:7.5;stroke-linecap:butt;stroke-linejoin:bevel;stroke-miterlimit:10;stroke-dasharray:none;stroke-opacity:1"
         transform="matrix(0.13333333,0,0,-0.13333333,0,150.92)" />
      <path
         id="path13"
         d="m 591.813,484.742 6.722,7.403"
         style="fill:none;stroke:#231f20;stroke-width:5;stroke-linecap:butt;stroke-linejoin:miter;stroke-miterlimit:10;stroke-dasharray:none;stroke-opacity:1"
         transform="matrix(0.13333333,0,0,-0.13333333,0,150.92)" />
      <path
         id="path14"
         d="M 612.055,507.012 902.656,826.754"
         style="fill:none;stroke:#231f20;stroke-width:5;stroke-linecap:butt;stroke-linejoin:miter;stroke-miterlimit:10;stroke-dasharray:20.0962, 20.0962;stroke-dashoffset:0;stroke-opacity:1"
         transform="matrix(0.13333333,0,0,-0.13333333,0,150.92)" />
      <path
         id="path15"
         d="m 909.418,834.184 6.727,7.402"
         style="fill:none;stroke:#231f20;stroke-width:5;stroke-linecap:butt;stroke-linejoin:miter;stroke-miterlimit:10;stroke-dasharray:none;stroke-opacity:1"
         transform="matrix(0.13333333,0,0,-0.13333333,0,150.92)" />
      <path
         id="path16"
         d="M 716.809,623.344 684.141,653.336 714.133,686 746.797,656"
         style="fill:none;stroke:#231f20;stroke-width:5;stroke-linecap:butt;stroke-linejoin:miter;stroke-miterlimit:10;stroke-dasharray:none;stroke-opacity:1"
         transform="matrix(0.13333333,0,0,-0.13333333,0,150.92)" />
      <path
         id="path17"
         d="M 562.949,828.969 C 544.031,809.02 520.215,793.754 493.43,785.121"
         style="fill:none;stroke:#231f20;stroke-width:5;stroke-linecap:butt;stroke-linejoin:miter;stroke-miterlimit:10;stroke-dasharray:none;stroke-opacity:1"
         transform="matrix(0.13333333,0,0,-0.13333333,0,150.92)" />
      <path
         id="path18"
         d="m 898.992,410.504 c 6.582,27.332 19.926,52.031 38.156,72.226"
         style="fill:none;stroke:#231f20;stroke-width:5;stroke-linecap:butt;stroke-linejoin:miter;stroke-miterlimit:10;stroke-dasharray:none;stroke-opacity:1"
         transform="matrix(0.13333333,0,0,-0.13333333,0,150.92)" />
    </g>
  </g>
</svg>
