<?xml version="1.0" encoding="UTF-8" standalone="no"?>
<!-- Created with Inkscape (http://www.inkscape.org/) -->

<svg
   version="1.1"
   id="svg1"
   width="406.07999"
   height="187.54668"
   viewBox="0 0 406.07999 187.54668"
   sodipodi:docname="pha09f41.eps"
   xmlns:inkscape="http://www.inkscape.org/namespaces/inkscape"
   xmlns:sodipodi="http://sodipodi.sourceforge.net/DTD/sodipodi-0.dtd"
   xmlns="http://www.w3.org/2000/svg"
   xmlns:svg="http://www.w3.org/2000/svg">
  <defs
     id="defs1" />
  <sodipodi:namedview
     id="namedview1"
     pagecolor="#ffffff"
     bordercolor="#000000"
     borderopacity="0.25"
     inkscape:showpageshadow="2"
     inkscape:pageopacity="0.0"
     inkscape:pagecheckerboard="0"
     inkscape:deskcolor="#d1d1d1">
    <inkscape:page
       x="0"
       y="0"
       inkscape:label="1"
       id="page1"
       width="406.07999"
       height="187.54668"
       margin="0"
       bleed="0" />
  </sodipodi:namedview>
  <g
     id="g1"
     inkscape:groupmode="layer"
     inkscape:label="1">
    <g
       id="group-R5">
      <path
         id="path2"
         d="M 10.0156,517.813 C 222.953,593.23 465.355,653.035 667.574,599.746 872.191,545.82 895.973,327.012 1152.04,338.93 c 170.26,7.929 249.09,29.922 379.59,125.191"
         style="fill:none;stroke:#a7a5a6;stroke-width:60;stroke-linecap:butt;stroke-linejoin:miter;stroke-miterlimit:10;stroke-dasharray:none;stroke-opacity:1"
         transform="matrix(0.13333333,0,0,-0.13333333,0,187.54667)" />
      <path
         id="path3"
         d="M 326.422,732.32 707.758,584.012"
         style="fill:none;stroke:#231f20;stroke-width:7.5;stroke-linecap:butt;stroke-linejoin:miter;stroke-miterlimit:10;stroke-dasharray:none;stroke-opacity:1"
         transform="matrix(0.13333333,0,0,-0.13333333,0,187.54667)" />
      <path
         id="path4"
         d="m 338.969,727.441 25.113,19.231 -0.641,0.902 -47.406,-0.344 c -15.531,2.418 -31.062,4.84 -46.597,7.25 13.085,-8.71 26.167,-17.421 39.25,-26.136 l 34.726,-32.281 1.024,0.093 -5.469,31.285"
         style="fill:#231f20;fill-opacity:1;fill-rule:nonzero;stroke:none"
         transform="matrix(0.13333333,0,0,-0.13333333,0,187.54667)" />
      <path
         id="path5"
         d="M 708.063,583.895 615.094,344.828"
         style="fill:none;stroke:#231f20;stroke-width:7.5;stroke-linecap:butt;stroke-linejoin:miter;stroke-miterlimit:10;stroke-dasharray:none;stroke-opacity:1"
         transform="matrix(0.13333333,0,0,-0.13333333,0,187.54667)" />
      <path
         id="path6"
         d="M 807.797,840.359 708.063,583.895"
         style="fill:none;stroke:#231f20;stroke-width:7.5;stroke-linecap:butt;stroke-linejoin:miter;stroke-miterlimit:10;stroke-dasharray:none;stroke-opacity:1"
         transform="matrix(0.13333333,0,0,-0.13333333,0,187.54667)" />
      <path
         id="path7"
         d="M 1111.93,703.211 707.758,584.012"
         style="fill:none;stroke:#231f20;stroke-width:7.5;stroke-linecap:butt;stroke-linejoin:miter;stroke-miterlimit:10;stroke-dasharray:none;stroke-opacity:1"
         transform="matrix(0.13333333,0,0,-0.13333333,0,187.54667)" />
      <path
         id="path8"
         d="m 1101.6,700.164 -6.5,-24.453 0.85,-0.258 29.85,23.399 c 11.01,6.066 22.03,12.128 33.04,18.199 -12.54,-0.883 -25.09,-1.77 -37.63,-2.649 l -37.77,3.457 -0.6,-0.558 18.76,-17.137"
         style="fill:#231f20;fill-opacity:1;fill-rule:nonzero;stroke:none"
         transform="matrix(0.13333333,0,0,-0.13333333,0,187.54667)" />
      <path
         id="path9"
         d="m 760.297,718.211 c 40.195,-15.742 71.582,-49.031 84.777,-90.43"
         style="fill:none;stroke:#231f20;stroke-width:5;stroke-linecap:butt;stroke-linejoin:miter;stroke-miterlimit:10;stroke-dasharray:none;stroke-opacity:1"
         transform="matrix(0.13333333,0,0,-0.13333333,0,187.54667)" />
      <path
         id="path10"
         d="m 2743.16,862.164 c 42.35,-77.961 66.41,-167.305 66.41,-262.266"
         style="fill:none;stroke:#231f20;stroke-width:5;stroke-linecap:butt;stroke-linejoin:miter;stroke-miterlimit:10;stroke-dasharray:none;stroke-opacity:1"
         transform="matrix(0.13333333,0,0,-0.13333333,0,187.54667)" />
      <path
         id="path11"
         d="M 2259.36,1341.72 V 599.898"
         style="fill:none;stroke:#231f20;stroke-width:7.5;stroke-linecap:butt;stroke-linejoin:miter;stroke-miterlimit:10;stroke-dasharray:none;stroke-opacity:1"
         transform="matrix(0.13333333,0,0,-0.13333333,0,187.54667)" />
      <path
         id="path12"
         d="m 2259.36,1330.96 21.62,-13.15 0.48,0.73 -14,35.25 c -2.69,12.29 -5.4,24.57 -8.1,36.85 -2.71,-12.28 -5.4,-24.56 -8.11,-36.85 l -14,-35.25 0.37,-0.73 21.74,13.15"
         style="fill:#231f20;fill-opacity:1;fill-rule:nonzero;stroke:none"
         transform="matrix(0.13333333,0,0,-0.13333333,0,187.54667)" />
      <path
         id="path13"
         d="M 2996.67,599.898 H 2254.85"
         style="fill:none;stroke:#231f20;stroke-width:7.5;stroke-linecap:butt;stroke-linejoin:miter;stroke-miterlimit:10;stroke-dasharray:none;stroke-opacity:1"
         transform="matrix(0.13333333,0,0,-0.13333333,0,187.54667)" />
      <path
         id="path14"
         d="m 2985.9,599.898 -13.15,-21.617 0.75,-0.492 35.24,14.004 c 12.29,2.699 24.56,5.398 36.85,8.105 -12.29,2.7 -24.56,5.399 -36.85,8.106 l -35.24,14.004 -0.75,-0.371 13.15,-21.739"
         style="fill:#231f20;fill-opacity:1;fill-rule:nonzero;stroke:none"
         transform="matrix(0.13333333,0,0,-0.13333333,0,187.54667)" />
      <path
         id="path15"
         d="M 2913.56,949.637 2259.36,599.898"
         style="fill:none;stroke:#231f20;stroke-width:7.5;stroke-linecap:butt;stroke-linejoin:miter;stroke-miterlimit:10;stroke-dasharray:none;stroke-opacity:1"
         transform="matrix(0.13333333,0,0,-0.13333333,0,187.54667)" />
      <path
         id="path16"
         d="m 2904.06,944.559 -1.39,-25.262 0.87,-0.082 24.49,28.965 c 9.56,8.172 19.12,16.347 28.67,24.519 -12.1,-3.406 -24.21,-6.816 -36.32,-10.219 l -37.68,-4.273 -0.48,-0.672 21.84,-12.976"
         style="fill:#231f20;fill-opacity:1;fill-rule:nonzero;stroke:none"
         transform="matrix(0.13333333,0,0,-0.13333333,0,187.54667)" />
      <path
         id="path17"
         d="m 2693.26,599.898 c 0,239.649 -194.27,433.912 -433.9,433.912 -239.65,0 -433.92,-194.263 -433.92,-433.912 0,-239.636 194.27,-433.91 433.92,-433.91 239.63,0 433.9,194.274 433.9,433.91 z"
         style="fill:none;stroke:#231f20;stroke-width:5;stroke-linecap:butt;stroke-linejoin:miter;stroke-miterlimit:10;stroke-dasharray:none;stroke-opacity:1"
         transform="matrix(0.13333333,0,0,-0.13333333,0,187.54667)" />
      <g
         id="g17"
         aria-label="x&#10;z&#10;(a)(b)&#10;y&#10;ω&#10;ω&#10;θ&#10;ϕ"
         transform="matrix(1.3333333,0,0,1.3333333,40.742667,84.404)">
        <path
           id="path18"
           d="m 0.77307813,-2.9192109 c 0.31640627,-0.3984375 0.49218747,-0.515625 0.57421877,-0.515625 0.09375,0 0.1757812,0.1289062 0.3046875,0.5742187 l 0.3046875,0.9375 c -0.5625,0.8320313 -0.98437502,1.35937501 -1.24218752,1.35937501 -0.09375,0 -0.1640625,-0.0351563 -0.2109375,-0.09375 -0.046875,-0.0585938 -0.09375,-0.09375 -0.140625,-0.09375 -0.17578125,0 -0.363281255,0.2109375 -0.363281255,0.421875 -0.011718745,0.2578125 0.175781255,0.43359375 0.410156255,0.43359375 0.421875,0 0.84375002,-0.43359375 1.64062502,-1.69921876 l 0.28125,0.87890626 c 0.1757812,0.5625 0.3632812,0.8203125 0.5976562,0.8203125 0.3046875,0 0.7265625,-0.328125 1.1367188,-0.97265625 L 3.9137031,-1.0442109 c -0.28125,0.33984371 -0.5039062,0.51562496 -0.6445312,0.51562496 -0.1523438,0 -0.28125,-0.2578125 -0.4570313,-0.82031246 L 2.5191719,-2.2512422 c 0.1992187,-0.28125 0.3984375,-0.5273437 0.5859375,-0.7382812 0.234375,-0.2929688 0.4101562,-0.4453125 0.5390625,-0.4453125 0.082031,0 0.1523437,0.035156 0.2109375,0.1054687 0.046875,0.046875 0.082031,0.070312 0.1289062,0.070312 0.140625,0 0.3398438,-0.1757812 0.3515625,-0.3984375 0,-0.1992187 -0.140625,-0.3867187 -0.375,-0.3867187 -0.3984375,0 -0.7851562,0.3867187 -1.5351562,1.4765625 l -0.1523438,-0.492187 c -0.2226562,-0.6445313 -0.3398437,-0.984375 -0.5859375,-0.984375 -0.2929687,0 -0.69140622,0.3867187 -1.06640622,0.9375 z M 203.03284,-60.053977 c -0.22265,0.246094 -0.39843,0.351563 -0.55078,0.351563 -0.15234,0 -0.30469,-0.01172 -0.72656,-0.09375 -0.43359,-0.07031 -0.70313,-0.105469 -0.94922,-0.105469 -0.22266,0 -0.44531,0.1875 -0.65625,0.527344 -0.14062,0.234375 -0.24609,0.445312 -0.375,0.726562 l 0.23438,0.105469 c 0.25781,-0.457031 0.46875,-0.761719 0.89062,-0.761719 0.22266,0 0.62109,0.02344 0.85547,0.05859 0.19922,0.01172 0.39844,0 0.55078,-0.03516 -0.83203,0.890625 -1.875,1.910156 -2.49609,2.578125 -0.55078,0.574219 -0.48047,0.832031 -0.32813,0.902344 0.0469,0.01172 0.0703,-0.02344 0.10547,-0.08203 0.082,-0.117187 0.1875,-0.234375 0.29297,-0.304687 0.11719,-0.08203 0.26953,-0.09375 0.55078,0.04687 0.39844,0.199219 0.91406,0.433594 1.20703,0.433594 0.38672,0 0.75,-0.269532 1.24219,-1.242188 l -0.19922,-0.164062 c -0.41016,0.609375 -0.67969,0.761718 -0.92578,0.761718 -0.22266,0 -0.51563,-0.117187 -0.80859,-0.210937 -0.26954,-0.117188 -0.50391,-0.164063 -0.67969,-0.152344 0.66797,-0.703125 1.85156,-1.886719 2.42578,-2.542969 0.24609,-0.269531 0.41016,-0.457031 0.52734,-0.597656 z m 0,0"
           style="fill:#231f20;fill-opacity:1;fill-rule:nonzero;stroke:none" />
        <path
           id="path19"
           d="m 37.824836,75.441141 c -0.890625,-0.761719 -1.40625,-2.203125 -1.40625,-3.75 0,-1.546875 0.515625,-3 1.40625,-3.75 l -0.152344,-0.210938 c -1.324219,0.902344 -1.910156,2.332031 -1.910156,3.949219 0,1.628906 0.585937,3.082031 1.910156,3.960937 z m 4.321289,-1.675782 -0.09375,-0.234375 c -0.09375,0.05859 -0.222656,0.105469 -0.328125,0.105469 -0.152344,0 -0.316406,-0.140625 -0.316406,-0.550781 v -1.664063 c 0,-0.46875 -0.08203,-0.84375 -0.398438,-1.101562 -0.199219,-0.164063 -0.46875,-0.246094 -0.738281,-0.246094 -0.515625,0.105469 -1.101563,0.457031 -1.347656,0.632813 -0.175782,0.128906 -0.292969,0.222656 -0.292969,0.363281 0,0.199219 0.234375,0.386719 0.398437,0.386719 0.128907,0 0.222657,-0.07031 0.257813,-0.210938 0.07031,-0.28125 0.152344,-0.480469 0.269531,-0.597656 0.09375,-0.105469 0.222656,-0.175781 0.410156,-0.175781 0.445313,0 0.75,0.363281 0.75,1.019531 v 0.164062 c -0.199218,0.152344 -0.855468,0.398438 -1.394531,0.574219 -0.492187,0.175781 -0.726562,0.457031 -0.726562,0.902344 0,0.5625 0.445312,1.089844 1.078125,1.089844 0.269531,0 0.703125,-0.328125 1.066406,-0.574219 0.04687,0.152344 0.09375,0.28125 0.210937,0.410156 0.105469,0.08203 0.292969,0.164063 0.421875,0.164063 z m -1.429688,-0.410156 c -0.164062,0.164063 -0.480468,0.316406 -0.714843,0.328125 -0.28125,0 -0.644532,-0.222656 -0.644532,-0.691406 0,-0.328125 0.199219,-0.492188 0.550782,-0.65625 0.1875,-0.09375 0.621093,-0.28125 0.808593,-0.375 z m 1.889649,-5.414062 c 0.890625,0.738281 1.417969,2.203125 1.417969,3.75 0,1.546875 -0.503907,2.988281 -1.417969,3.75 l 0.164062,0.199218 c 1.347657,-0.914062 1.898438,-2.332031 1.898438,-3.949218 0,-1.628907 -0.550781,-3.058594 -1.898438,-3.960938 z m 150.067384,7.5 c -0.89063,-0.761719 -1.40625,-2.203125 -1.40625,-3.75 0,-1.546875 0.51562,-3 1.40625,-3.75 l -0.15235,-0.210938 c -1.32421,0.902344 -1.91015,2.332031 -1.91015,3.949219 0,1.628906 0.58594,3.082031 1.91015,3.960937 z m 1.79004,-4.957032 v -2.777343 c -0.33985,0.117187 -0.89063,0.257812 -1.3125,0.316406 v 0.210937 c 0.58594,0.04687 0.59765,0.105469 0.59765,0.667969 v 5.003906 c 0.49219,0.234375 0.94922,0.316407 1.32422,0.316407 1.20703,0 2.26172,-0.9375 2.26172,-2.261719 0,-1.054688 -0.80859,-1.886719 -1.78125,-1.886719 -0.0937,0 -0.22265,0.02344 -0.36328,0.09375 z m 0,0.269532 c 0.16406,-0.105469 0.44531,-0.175782 0.70312,-0.175782 0.73828,0 1.3711,0.597657 1.3711,1.617188 0,1.054687 -0.48047,1.6875 -1.21875,1.6875 -0.48047,-0.01172 -0.75,-0.328125 -0.8086,-0.503906 -0.0351,-0.08203 -0.0469,-0.175782 -0.0469,-0.304688 z m 3.6123,-2.8125 c 0.89063,0.738281 1.41797,2.203125 1.41797,3.75 0,1.546875 -0.50391,2.988281 -1.41797,3.75 l 0.16406,0.199218 c 1.34766,-0.914062 1.89844,-2.332031 1.89844,-3.949218 0,-1.628907 -0.55078,-3.058594 -1.89844,-3.960938 z m 0,0"
           style="fill:#231f20;fill-opacity:1;fill-rule:nonzero;stroke:none" />
        <path
           id="path20"
           d="m 268.63148,26.102273 c -0.0586,-0.808593 -0.11719,-1.628906 -0.21094,-2.308593 -0.0703,-0.714844 -0.21094,-1.054688 -0.45703,-1.054688 -0.32813,0 -0.77344,0.515625 -1.06641,0.960938 l 0.15235,0.210937 c 0.22265,-0.316406 0.45703,-0.527344 0.52734,-0.527344 0.0703,0 0.11719,0.117188 0.1875,0.5625 0.12891,0.820313 0.26953,2.226563 0.28125,2.929688 -0.44531,0.597656 -1.16016,1.394531 -2.12109,2.015625 l 0.0703,0.199219 0.9375,-0.234375 c 0.5039,-0.5625 1.08984,-1.359375 1.61719,-2.121094 0.48046,-0.667969 1.24218,-1.863281 1.6289,-2.542969 0.23438,-0.398437 0.32813,-0.703125 0.31641,-0.960937 0,-0.292969 -0.15235,-0.492188 -0.35156,-0.492188 -0.15235,0 -0.31641,0.105469 -0.375,0.246094 -0.0352,0.07031 -0.0469,0.164062 -0.0117,0.222656 0.0351,0.105469 0.0937,0.246094 0.0937,0.421875 0.0117,0.65625 -0.82032,1.886719 -1.20703,2.472656 z M 84.28382,10.460672 c 0.292969,0.257812 0.503907,0.714844 0.503907,1.382812 -0.01172,1.007813 -0.398438,2.050782 -1.136719,2.050782 -0.304688,0 -0.515625,-0.304688 -0.492188,-0.878907 0.02344,-0.46875 0.234375,-1.359375 0.351563,-1.722656 l -0.05859,-0.03516 -0.667969,0.140625 c -0.03516,0.28125 -0.09375,0.75 -0.1875,1.136719 -0.199218,0.855468 -0.5625,1.3125 -0.949218,1.3125 -0.28125,0 -0.539063,-0.339844 -0.539063,-0.996094 0,-1.007813 0.46875,-1.921875 1.160156,-2.449219 L 82.12757,10.202859 c -1.042968,0.539063 -1.757812,1.558594 -1.757812,2.765625 0,0.9375 0.421875,1.441407 0.9375,1.441407 0.386719,0 0.902344,-0.398438 1.230469,-0.890625 0.04687,0.503906 0.328125,0.890625 0.761718,0.890625 0.375,0 0.738282,-0.222657 1.066407,-0.515625 0.5625,-0.527344 0.996093,-1.300782 0.996093,-2.214844 0,-0.902344 -0.398437,-1.417969 -0.691406,-1.417969 -0.152344,0 -0.316406,0.07031 -0.375,0.128906 z m 174.99902,-35.947266 c 0.29297,0.257813 0.50391,0.714844 0.50391,1.382813 -0.0117,1.007812 -0.39844,2.050781 -1.13672,2.050781 -0.30469,0 -0.51562,-0.304687 -0.49219,-0.878906 0.0234,-0.46875 0.23438,-1.359375 0.35157,-1.722656 l -0.0586,-0.03516 -0.66797,0.140625 c -0.0352,0.28125 -0.0937,0.75 -0.1875,1.136719 -0.19922,0.855469 -0.5625,1.3125 -0.94922,1.3125 -0.28125,0 -0.53906,-0.339844 -0.53906,-0.996094 0,-1.007812 0.46875,-1.921875 1.16016,-2.449218 l -0.14063,-0.199219 c -1.04297,0.539062 -1.75781,1.558594 -1.75781,2.765625 0,0.9375 0.42188,1.441406 0.9375,1.441406 0.38672,0 0.90234,-0.398437 1.23047,-0.890625 0.0469,0.503906 0.32812,0.890625 0.76172,0.890625 0.375,0 0.73828,-0.222656 1.0664,-0.515625 0.5625,-0.527344 0.9961,-1.300781 0.9961,-2.214844 0,-0.902343 -0.39844,-1.417968 -0.69141,-1.417968 -0.15234,0 -0.3164,0.07031 -0.375,0.128906 z M 54.94593,1.7331328 c -1.59375,0 -2.613282,2.671875 -2.613282,4.5585938 0,0.9375 0.257813,1.9570312 1.265625,1.9570312 1.617188,0 2.566407,-2.6953125 2.566407,-4.6171875 0,-0.9726562 -0.257813,-1.8984375 -1.21875,-1.8984375 z m -1.699219,2.9179688 c 0.269531,-1.3476563 0.84375,-2.6132813 1.570312,-2.6132813 0.585938,0 0.644532,0.890625 0.644532,1.3710938 0,0.4101562 -0.05859,0.796875 -0.105469,1.2421875 z m 2.039062,0.421875 c -0.246093,1.4296875 -0.820312,2.859375 -1.570312,2.859375 -0.527344,0 -0.667969,-0.7734375 -0.667969,-1.4765625 0,-0.46875 0.05859,-0.9257813 0.128906,-1.3828125 z m 200.724607,-4.80761722 -0.1289,-0.0820312 -0.44532,0.3515625 c -0.57421,2.60156252 -0.97265,4.46484372 -1.125,5.27343752 -0.45703,-0.1640625 -0.85546,-0.65625 -0.85546,-1.4296875 0,-1.0546875 0.5039,-1.6171875 1.3125,-1.9804687 l -0.11719,-0.2695313 c -1.06641,0.375 -1.95703,1.1367188 -1.95703,2.3554687 0,0.9257813 0.53906,1.6640625 1.51172,1.8515625 -0.082,0.3867188 -0.15235,0.7734375 -0.23438,1.1367188 -0.15234,0.7265625 0.0469,1.03125 0.19922,1.0898438 l 0.0586,-0.023437 c 0.14063,-0.6679688 0.35157,-1.6523438 0.48047,-2.203125 1.21875,-0.058594 2.33203,-0.9960938 2.33203,-2.3203125 0,-1.0546875 -0.59765,-1.6523438 -1.34765,-1.9570313 -0.0586,-0.035156 -0.0586,-0.1523437 0.0117,-0.4335937 z m 0.41016,3.83203122 c 0,1.0429688 -0.57422,1.8515625 -1.62891,1.8164063 0.17578,-0.8671875 0.63282,-2.9648438 0.72657,-3.3515625 0.35156,0.140625 0.90234,0.6796875 0.90234,1.5351562 z m 0,0"
           style="fill:#231f20;fill-opacity:1;fill-rule:nonzero;stroke:none" />
      </g>
    </g>
  </g>
</svg>
