<?xml version="1.0" encoding="UTF-8" standalone="no"?>
<!-- Created with Inkscape (http://www.inkscape.org/) -->

<svg
   version="1.1"
   id="svg1"
   width="197.65334"
   height="187.93333"
   viewBox="0 0 197.65334 187.93333"
   sodipodi:docname="pha09f51.eps"
   xmlns:inkscape="http://www.inkscape.org/namespaces/inkscape"
   xmlns:sodipodi="http://sodipodi.sourceforge.net/DTD/sodipodi-0.dtd"
   xmlns="http://www.w3.org/2000/svg"
   xmlns:svg="http://www.w3.org/2000/svg">
  <defs
     id="defs1" />
  <sodipodi:namedview
     id="namedview1"
     pagecolor="#ffffff"
     bordercolor="#000000"
     borderopacity="0.25"
     inkscape:showpageshadow="2"
     inkscape:pageopacity="0.0"
     inkscape:pagecheckerboard="0"
     inkscape:deskcolor="#d1d1d1">
    <inkscape:page
       x="0"
       y="0"
       inkscape:label="1"
       id="page1"
       width="197.65334"
       height="187.93333"
       margin="0"
       bleed="0" />
  </sodipodi:namedview>
  <g
     id="g1"
     inkscape:groupmode="layer"
     inkscape:label="1">
    <g
       id="group-R5">
      <g
         id="g2"
         aria-label="ω&#10;γ&#10;o&#10;γ&#10;o&#10;γ&#10;o&#10;γ&#10;t&#10;γ&#10;t"
         transform="matrix(1.3333333,0,0,1.3333333,1.5197867,45.097333)">
        <path
           id="path2"
           d="m 4.3591834,-3.8435078 c 0.2929688,0.2578125 0.5039063,0.7148437 0.5039063,1.3828125 -0.011719,1.0078125 -0.3984375,2.05078124 -1.1367188,2.05078124 -0.3046875,0 -0.515625,-0.3046875 -0.4921875,-0.87890624 0.023437,-0.46875 0.234375,-1.359375 0.3515625,-1.7226563 l -0.058594,-0.035156 -0.6679688,0.140625 c -0.035156,0.28125 -0.09375,0.75 -0.1875,1.1367187 -0.1992187,0.85546879 -0.5625,1.31250004 -0.9492187,1.31250004 -0.28125,0 -0.5390625,-0.33984375 -0.5390625,-0.99609374 0,-1.0078125 0.46875,-1.921875 1.1601562,-2.4492188 l -0.140625,-0.1992187 c -1.0429687,0.5390625 -1.75781246,1.5585937 -1.75781246,2.765625 0,0.93749999 0.421875,1.44140624 0.93749996,1.44140624 0.3867188,0 0.9023438,-0.3984375 1.2304688,-0.890625 0.046875,0.50390625 0.328125,0.890625 0.7617187,0.890625 0.375,0 0.7382813,-0.22265625 1.0664063,-0.515625 0.5625,-0.52734375 0.9960937,-1.30078124 0.9960937,-2.21484374 0,-0.9023438 -0.3984375,-1.4179688 -0.6914062,-1.4179688 -0.1523438,0 -0.3164063,0.070312 -0.375,0.1289063 z M 24.187308,-11.434328 c 0.07031,-0.585938 0.03516,-1.757813 -0.105468,-2.472656 -0.152344,-0.796875 -0.375,-1.054688 -0.621094,-1.054688 -0.28125,0 -0.703125,0.328125 -1.136719,1.03125 l 0.210938,0.199219 c 0.292968,-0.421875 0.457031,-0.574219 0.5625,-0.574219 0.08203,0 0.164062,0.117188 0.246093,0.375 0.328125,0.972656 0.386719,2.390625 0.257813,3.152344 -0.386719,0.714844 -0.855469,1.6523436 -0.996094,2.0390624 l 0.105469,0.1289062 c 0.269531,-0.023437 0.714844,-0.234375 0.855469,-0.3515625 0.105468,-0.2695312 0.339843,-1.1718751 0.46875,-1.7812501 0.105468,-0.140625 0.328125,-0.457031 0.644531,-0.890625 0.609375,-0.785156 1.441406,-1.863281 1.453125,-2.660156 0.01172,-0.398438 -0.164063,-0.667969 -0.386719,-0.667969 -0.1875,0 -0.363281,0.152344 -0.363281,0.316406 0,0.04687 0.01172,0.09375 0.03516,0.140625 0.04687,0.07031 0.128906,0.246094 0.128906,0.457032 0,0.773437 -0.84375,1.980468 -1.335937,2.613281 z m 0,0"
           style="fill:#231f20;fill-opacity:1;fill-rule:nonzero;stroke:none" />
        <path
           id="path3"
           d="m 27.717582,-11.615969 c -0.550781,0 -1.3125,0.457031 -1.3125,1.441406 0,0.6679692 0.492187,1.3242192 1.3125,1.3242192 0.597656,0 1.300781,-0.4570312 1.300781,-1.4296872 0,-0.738282 -0.550781,-1.335938 -1.300781,-1.335938 z m -0.05859,0.199219 c 0.515625,0 0.808594,0.574219 0.808594,1.277344 0,0.8203122 -0.316406,1.0898435 -0.679688,1.0898435 -0.492187,0 -0.820312,-0.5625 -0.820312,-1.3125005 0,-0.679687 0.316406,-1.054687 0.691406,-1.054687 z m 0,0"
           style="fill:#231f20;fill-opacity:1;fill-rule:nonzero;stroke:none" />
        <path
           id="path4"
           d="m 44.188285,-17.103273 c 0.07031,-0.585938 0.03516,-1.757813 -0.105469,-2.472657 -0.152344,-0.796875 -0.375,-1.054687 -0.621094,-1.054687 -0.28125,0 -0.703125,0.328125 -1.136718,1.03125 l 0.210937,0.199219 c 0.292969,-0.421875 0.457031,-0.574219 0.5625,-0.574219 0.08203,0 0.164063,0.117187 0.246094,0.375 0.328125,0.972656 0.386719,2.390625 0.257812,3.152344 -0.386718,0.714843 -0.855468,1.652343 -0.996093,2.039062 l 0.105468,0.128906 c 0.269532,-0.02344 0.714844,-0.234375 0.855469,-0.351562 0.105469,-0.269531 0.339844,-1.171875 0.46875,-1.78125 0.105469,-0.140625 0.328125,-0.457031 0.644531,-0.890625 0.609375,-0.785156 1.441407,-1.863281 1.453125,-2.660156 0.01172,-0.398438 -0.164062,-0.667969 -0.386718,-0.667969 -0.1875,0 -0.363282,0.152344 -0.363282,0.316406 0,0.04687 0.01172,0.09375 0.03516,0.140625 0.04687,0.07031 0.128906,0.246094 0.128906,0.457031 0,0.773438 -0.84375,1.980469 -1.335938,2.613282 z m 0,0"
           style="fill:#231f20;fill-opacity:1;fill-rule:nonzero;stroke:none" />
        <path
           id="path5"
           d="m 47.715629,-17.281984 c -0.550782,0 -1.3125,0.457031 -1.3125,1.441406 0,0.667969 0.492187,1.324219 1.3125,1.324219 0.597656,0 1.300781,-0.457032 1.300781,-1.429688 0,-0.738281 -0.550781,-1.335937 -1.300781,-1.335937 z m -0.05859,0.199218 c 0.515625,0 0.808594,0.574219 0.808594,1.277344 0,0.820313 -0.316407,1.089844 -0.679688,1.089844 -0.492187,0 -0.820312,-0.5625 -0.820312,-1.3125 0,-0.679688 0.316406,-1.054688 0.691406,-1.054688 z m 0,0"
           style="fill:#231f20;fill-opacity:1;fill-rule:nonzero;stroke:none" />
        <path
           id="path6"
           d="m 124.52325,82.564695 c 0.0703,-0.585937 0.0352,-1.757812 -0.10547,-2.472656 -0.15235,-0.796875 -0.375,-1.054687 -0.6211,-1.054687 -0.28125,0 -0.70312,0.328125 -1.13672,1.03125 l 0.21094,0.199218 c 0.29297,-0.421875 0.45703,-0.574218 0.5625,-0.574218 0.082,0 0.16406,0.117187 0.2461,0.375 0.32812,0.972656 0.38671,2.390625 0.25781,3.152343 -0.38672,0.714844 -0.85547,1.652344 -0.9961,2.039063 l 0.10547,0.128906 c 0.26953,-0.02344 0.71485,-0.234375 0.85547,-0.351562 0.10547,-0.269532 0.33985,-1.171875 0.46875,-1.78125 0.10547,-0.140625 0.32813,-0.457032 0.64453,-0.890625 0.60938,-0.785157 1.44141,-1.863282 1.45313,-2.660157 0.0117,-0.398437 -0.16406,-0.667968 -0.38672,-0.667968 -0.1875,0 -0.36328,0.152343 -0.36328,0.316406 0,0.04687 0.0117,0.09375 0.0352,0.140625 0.0469,0.07031 0.12891,0.246094 0.12891,0.457031 0,0.773438 -0.84375,1.980469 -1.33594,2.613281 z m 0,0"
           style="fill:#231f20;fill-opacity:1;fill-rule:nonzero;stroke:none" />
        <path
           id="path7"
           d="m 128.05059,82.385984 c -0.55078,0 -1.3125,0.457032 -1.3125,1.441407 0,0.667968 0.49219,1.324218 1.3125,1.324218 0.59766,0 1.30078,-0.457031 1.30078,-1.429687 0,-0.738281 -0.55078,-1.335938 -1.30078,-1.335938 z m -0.0586,0.199219 c 0.51562,0 0.80859,0.574219 0.80859,1.277344 0,0.820312 -0.31641,1.089844 -0.67969,1.089844 -0.49219,0 -0.82031,-0.5625 -0.82031,-1.3125 0,-0.679688 0.31641,-1.054688 0.69141,-1.054688 z m 0,0"
           style="fill:#231f20;fill-opacity:1;fill-rule:nonzero;stroke:none" />
        <path
           id="path8"
           d="m 55.523246,29.563719 c 0.07031,-0.585938 0.03516,-1.757813 -0.105469,-2.472657 -0.152344,-0.796875 -0.375,-1.054687 -0.621094,-1.054687 -0.28125,0 -0.703125,0.328125 -1.136718,1.03125 l 0.210937,0.199219 c 0.292969,-0.421875 0.457031,-0.574219 0.5625,-0.574219 0.08203,0 0.164063,0.117187 0.246094,0.375 0.328125,0.972656 0.386719,2.390625 0.257812,3.152344 -0.386718,0.714843 -0.855468,1.652343 -0.996093,2.039062 l 0.105468,0.128906 c 0.269532,-0.02344 0.714844,-0.234375 0.855469,-0.351562 0.105469,-0.269531 0.339844,-1.171875 0.46875,-1.78125 0.105469,-0.140625 0.328125,-0.457031 0.644531,-0.890625 0.609375,-0.785156 1.441407,-1.863281 1.453125,-2.660156 0.01172,-0.398438 -0.164062,-0.667969 -0.386718,-0.667969 -0.1875,0 -0.363282,0.152344 -0.363282,0.316406 0,0.04687 0.01172,0.09375 0.03516,0.140625 0.04687,0.07031 0.128906,0.246094 0.128906,0.457031 0,0.773438 -0.84375,1.980469 -1.335938,2.613282 z m 0,0"
           style="fill:#231f20;fill-opacity:1;fill-rule:nonzero;stroke:none" />
        <path
           id="path9"
           d="m 59.308402,31.869383 -0.05859,-0.164063 c -0.08203,0.04687 -0.222656,0.105469 -0.375,0.105469 -0.152343,0 -0.339843,-0.09375 -0.339843,-0.574219 v -1.546875 h 0.632812 c 0.07031,-0.03516 0.09375,-0.175781 0.03516,-0.234375 h -0.667968 v -0.820312 l -0.09375,-0.01172 -0.386719,0.398438 v 0.433593 h -0.269531 l -0.164063,0.175782 0.02344,0.05859 h 0.410156 v 1.746094 c 0,0.480469 0.210937,0.714844 0.585937,0.714844 0.05859,0 0.152344,-0.02344 0.257813,-0.08203 z m 0,0"
           style="fill:#231f20;fill-opacity:1;fill-rule:nonzero;stroke:none" />
        <path
           id="path10"
           d="m 81.855277,52.564695 c 0.07031,-0.585937 0.03516,-1.757812 -0.105469,-2.472656 -0.152343,-0.796875 -0.375,-1.054687 -0.621093,-1.054687 -0.28125,0 -0.703125,0.328125 -1.136719,1.03125 l 0.210937,0.199218 c 0.292969,-0.421875 0.457032,-0.574218 0.5625,-0.574218 0.08203,0 0.164063,0.117187 0.246094,0.375 0.328125,0.972656 0.386719,2.390625 0.257813,3.152343 -0.386719,0.714844 -0.855469,1.652344 -0.996094,2.039063 l 0.105469,0.128906 c 0.269531,-0.02344 0.714843,-0.234375 0.855468,-0.351562 0.105469,-0.269532 0.339844,-1.171875 0.46875,-1.78125 0.105469,-0.140625 0.328125,-0.457032 0.644532,-0.890625 0.609375,-0.785157 1.441406,-1.863282 1.453125,-2.660157 0.01172,-0.398437 -0.164063,-0.667968 -0.386719,-0.667968 -0.1875,0 -0.363281,0.152343 -0.363281,0.316406 0,0.04687 0.01172,0.09375 0.03516,0.140625 0.04687,0.07031 0.128906,0.246094 0.128906,0.457031 0,0.773438 -0.84375,1.980469 -1.335937,2.613281 z m 0,0"
           style="fill:#231f20;fill-opacity:1;fill-rule:nonzero;stroke:none" />
        <path
           id="path11"
           d="m 85.640433,54.870359 -0.05859,-0.164062 c -0.08203,0.04687 -0.222657,0.105469 -0.375,0.105469 -0.152344,0 -0.339844,-0.09375 -0.339844,-0.574219 v -1.546875 h 0.632812 c 0.07031,-0.03516 0.09375,-0.175781 0.03516,-0.234375 h -0.667969 v -0.820313 l -0.09375,-0.01172 -0.386719,0.398437 v 0.433594 h -0.269531 l -0.164063,0.175781 0.02344,0.05859 h 0.410156 v 1.746094 c 0,0.480468 0.210938,0.714843 0.585938,0.714843 0.05859,0 0.152343,-0.02344 0.257812,-0.08203 z m 0,0"
           style="fill:#231f20;fill-opacity:1;fill-rule:nonzero;stroke:none" />
      </g>
      <path
         id="path12"
         d="M 1060.43,423.797 C 1122.99,682.613 963.883,943.137 705.063,1005.68 446.238,1068.23 185.719,909.125 123.168,650.301 60.625,391.48 219.73,130.961 478.555,68.4219 737.379,5.87109 997.895,164.98 1060.43,423.797 Z"
         style="fill:none;stroke:#231f20;stroke-width:5;stroke-linecap:butt;stroke-linejoin:miter;stroke-miterlimit:10;stroke-dasharray:none;stroke-opacity:1"
         transform="matrix(0.13333333,0,0,-0.13333333,0,187.93333)" />
      <path
         id="path13"
         d="M 438.727,995.512 44.9375,1164.84"
         style="fill:none;stroke:#231f20;stroke-width:7.5;stroke-linecap:butt;stroke-linejoin:miter;stroke-miterlimit:10;stroke-dasharray:none;stroke-opacity:1"
         transform="matrix(0.13333333,0,0,-0.13333333,0,187.93333)" />
      <path
         id="path14"
         d="m 54.8281,1160.58 3.5391,-25.05 -0.8672,-0.16 -26.8555,26.79 c -10.2148,7.33 -20.4297,14.66 -30.6445,22 12.3477,-2.37 24.6992,-4.74 37.0508,-7.11 l 37.914,-1.06 0.5313,-0.63 -20.668,-14.78"
         style="fill:#231f20;fill-opacity:1;fill-rule:nonzero;stroke:none"
         transform="matrix(0.13333333,0,0,-0.13333333,0,187.93333)" />
      <path
         id="path15"
         d="M 1060.43,423.797 438.727,995.512"
         style="fill:none;stroke:#231f20;stroke-width:7.5;stroke-linecap:butt;stroke-linejoin:bevel;stroke-miterlimit:10;stroke-dasharray:none;stroke-opacity:1"
         transform="matrix(0.13333333,0,0,-0.13333333,0,187.93333)" />
      <path
         id="path16"
         d="m 301.977,1405.05 3.168,-9.48"
         style="fill:none;stroke:#231f20;stroke-width:5;stroke-linecap:butt;stroke-linejoin:bevel;stroke-miterlimit:4;stroke-dasharray:none;stroke-opacity:1"
         transform="matrix(0.13333333,0,0,-0.13333333,0,187.93333)" />
      <path
         id="path17"
         d="M 311.445,1376.7 585.488,555.969"
         style="fill:none;stroke:#231f20;stroke-width:5;stroke-linecap:butt;stroke-linejoin:bevel;stroke-miterlimit:4;stroke-dasharray:19.8915, 19.8915;stroke-dashoffset:0;stroke-opacity:1"
         transform="matrix(0.13333333,0,0,-0.13333333,0,187.93333)" />
      <path
         id="path18"
         d="m 588.637,546.535 3.172,-9.488"
         style="fill:none;stroke:#231f20;stroke-width:5;stroke-linecap:butt;stroke-linejoin:bevel;stroke-miterlimit:4;stroke-dasharray:none;stroke-opacity:1"
         transform="matrix(0.13333333,0,0,-0.13333333,0,187.93333)" />
      <path
         id="path19"
         d="m 1481.86,324.391 -9.73,2.32"
         style="fill:none;stroke:#231f20;stroke-width:5;stroke-linecap:butt;stroke-linejoin:bevel;stroke-miterlimit:4;stroke-dasharray:none;stroke-opacity:1"
         transform="matrix(0.13333333,0,0,-0.13333333,0,187.93333)" />
      <path
         id="path20"
         d="M 1452.79,331.34 611.207,532.414"
         style="fill:none;stroke:#231f20;stroke-width:5;stroke-linecap:butt;stroke-linejoin:bevel;stroke-miterlimit:4;stroke-dasharray:19.8913, 19.8913;stroke-dashoffset:0;stroke-opacity:1"
         transform="matrix(0.13333333,0,0,-0.13333333,0,187.93333)" />
      <path
         id="path21"
         d="m 601.531,534.723 -9.722,2.324"
         style="fill:none;stroke:#231f20;stroke-width:5;stroke-linecap:butt;stroke-linejoin:bevel;stroke-miterlimit:4;stroke-dasharray:none;stroke-opacity:1"
         transform="matrix(0.13333333,0,0,-0.13333333,0,187.93333)" />
      <path
         id="path22"
         d="M 438.727,995.512 652.465,1367.07"
         style="fill:none;stroke:#231f20;stroke-width:7.5;stroke-linecap:butt;stroke-linejoin:miter;stroke-miterlimit:10;stroke-dasharray:none;stroke-opacity:1"
         transform="matrix(0.13333333,0,0,-0.13333333,0,187.93333)" />
      <path
         id="path23"
         d="m 647.094,1357.74 -25.293,-0.62 -0.059,0.88 29.711,23.57 c 8.469,9.31 16.938,18.6 25.402,27.9 -3.785,-11.99 -7.562,-23.99 -11.343,-35.98 l -5.446,-37.54 -0.687,-0.45 -12.285,22.24"
         style="fill:#231f20;fill-opacity:1;fill-rule:nonzero;stroke:none"
         transform="matrix(0.13333333,0,0,-0.13333333,0,187.93333)" />
      <path
         id="path24"
         d="M 1062.76,423.797 1260.35,43.4102"
         style="fill:none;stroke:#231f20;stroke-width:7.5;stroke-linecap:butt;stroke-linejoin:miter;stroke-miterlimit:10;stroke-dasharray:none;stroke-opacity:1"
         transform="matrix(0.13333333,0,0,-0.13333333,0,187.93333)" />
      <path
         id="path25"
         d="m 1255.39,52.9609 13.12,21.6407 0.77,-0.4297 3.83,-37.7422 c 3.26,-12.1484 6.52,-24.2891 9.79,-36.4297 -8.06,9.64844 -16.12,19.3008 -24.18,28.9609 l -28.68,24.8282 -0.01,0.8203 25.36,-1.6485"
         style="fill:#231f20;fill-opacity:1;fill-rule:nonzero;stroke:none"
         transform="matrix(0.13333333,0,0,-0.13333333,0,187.93333)" />
      <path
         id="path26"
         d="m 583.574,862.313 c -22.289,-24.231 -50.582,-42.848 -82.511,-53.5"
         style="fill:none;stroke:#231f20;stroke-width:5;stroke-linecap:butt;stroke-linejoin:miter;stroke-miterlimit:10;stroke-dasharray:none;stroke-opacity:1"
         transform="matrix(0.13333333,0,0,-0.13333333,0,187.93333)" />
      <path
         id="path27"
         d="m 257.906,1073.26 c 30.145,70.01 99.754,119.03 180.821,119.03 35.738,0 69.246,-9.53 98.132,-26.18"
         style="fill:none;stroke:#231f20;stroke-width:5;stroke-linecap:butt;stroke-linejoin:miter;stroke-miterlimit:10;stroke-dasharray:none;stroke-opacity:1"
         transform="matrix(0.13333333,0,0,-0.13333333,0,187.93333)" />
      <path
         id="path28"
         d="m 871.313,470.27 c 8.828,30.699 24.933,58.32 46.32,80.875"
         style="fill:none;stroke:#231f20;stroke-width:5;stroke-linecap:butt;stroke-linejoin:miter;stroke-miterlimit:10;stroke-dasharray:none;stroke-opacity:1"
         transform="matrix(0.13333333,0,0,-0.13333333,0,187.93333)" />
      <path
         id="path29"
         d="M 1253.77,378.891 C 1242.76,320.789 1206.21,271.738 1156.24,243.84"
         style="fill:none;stroke:#231f20;stroke-width:5;stroke-linecap:butt;stroke-linejoin:miter;stroke-miterlimit:10;stroke-dasharray:none;stroke-opacity:1"
         transform="matrix(0.13333333,0,0,-0.13333333,0,187.93333)" />
    </g>
  </g>
</svg>
