<?xml version="1.0" encoding="UTF-8" standalone="no"?>
<!-- Created with Inkscape (http://www.inkscape.org/) -->

<svg
   version="1.1"
   id="svg1"
   width="355.76001"
   height="116.92"
   viewBox="0 0 355.76001 116.92"
   sodipodi:docname="pha09f21.eps"
   xmlns:inkscape="http://www.inkscape.org/namespaces/inkscape"
   xmlns:sodipodi="http://sodipodi.sourceforge.net/DTD/sodipodi-0.dtd"
   xmlns="http://www.w3.org/2000/svg"
   xmlns:svg="http://www.w3.org/2000/svg">
  <defs
     id="defs1" />
  <sodipodi:namedview
     id="namedview1"
     pagecolor="#ffffff"
     bordercolor="#000000"
     borderopacity="0.25"
     inkscape:showpageshadow="2"
     inkscape:pageopacity="0.0"
     inkscape:pagecheckerboard="0"
     inkscape:deskcolor="#d1d1d1">
    <inkscape:page
       x="0"
       y="0"
       inkscape:label="1"
       id="page1"
       width="355.76001"
       height="116.92"
       margin="0"
       bleed="0" />
  </sodipodi:namedview>
  <g
     id="g1"
     inkscape:groupmode="layer"
     inkscape:label="1">
    <g
       id="group-R5">
      <path
         id="path2"
         d="m 2.6952781,1.3256206 c -0.890625,-0.76171872 -1.40625,-2.20312497 -1.40625,-3.75 0,-1.546875 0.515625,-3 1.40625,-3.75 L 2.5429344,-6.3853169 c -1.3242188,0.9023438 -1.91015628,2.3320313 -1.91015628,3.9492188 0,1.62890623 0.58593748,3.08203123 1.91015628,3.9609375 z m 4.3212891,-1.67578122 -0.09375,-0.234375 c -0.09375,0.0585938 -0.2226563,0.10546875 -0.328125,0.10546875 -0.1523438,0 -0.3164063,-0.140625 -0.3164063,-0.55078123 v -1.6640625 c 0,-0.46875 -0.082031,-0.84375 -0.3984375,-1.1015625 -0.1992187,-0.1640625 -0.46875,-0.2460938 -0.7382812,-0.2460938 -0.515625,0.1054688 -1.1015625,0.4570313 -1.3476563,0.6328125 -0.1757812,0.1289063 -0.2929687,0.2226563 -0.2929687,0.3632813 0,0.1992187 0.234375,0.3867187 0.3984375,0.3867187 0.1289062,0 0.2226562,-0.070312 0.2578125,-0.2109375 0.070312,-0.28125 0.1523437,-0.4804687 0.2695312,-0.5976562 0.09375,-0.1054688 0.2226563,-0.1757813 0.4101563,-0.1757813 0.4453125,0 0.75,0.3632813 0.75,1.0195313 v 0.1640625 c -0.1992188,0.1523437 -0.8554688,0.3984375 -1.3945313,0.5742187 -0.4921875,0.1757813 -0.7265625,0.4570313 -0.7265625,0.90234378 0,0.5625 0.4453125,1.08984375 1.078125,1.08984375 0.2695313,0 0.703125,-0.328125 1.0664063,-0.57421875 0.046875,0.15234375 0.09375,0.28125 0.2109375,0.41015625 0.1054687,0.08203125 0.2929687,0.1640625 0.421875,0.1640625 z M 5.5868797,-0.76031687 c -0.1640625,0.1640625 -0.4804688,0.31640625 -0.7148438,0.328125 -0.28125,0 -0.6445312,-0.22265625 -0.6445312,-0.69140623 0,-0.328125 0.1992187,-0.4921875 0.5507812,-0.65625 0.1875,-0.09375 0.6210938,-0.28125 0.8085938,-0.375 z M 7.4765281,-6.1743794 c 0.890625,0.7382813 1.4179688,2.203125 1.4179688,3.75 0,1.54687503 -0.5039063,2.98828128 -1.4179688,3.75 l 0.1640625,0.1992188 c 1.3476563,-0.91406252 1.8984375,-2.33203127 1.8984375,-3.9492188 0,-1.6289062 -0.5507812,-3.0585937 -1.8984375,-3.9609375 z m 90.5390629,7.5 c -0.890625,-0.76171872 -1.40625,-2.20312497 -1.40625,-3.75 0,-1.546875 0.515625,-3 1.40625,-3.75 l -0.152344,-0.2109375 c -1.324219,0.9023438 -1.910156,2.3320313 -1.910156,3.9492188 0,1.62890623 0.585937,3.08203123 1.910156,3.9609375 z M 99.8027,-3.6314106 v -2.7773438 c -0.339844,0.1171875 -0.890625,0.2578125 -1.3125,0.3164063 v 0.2109375 c 0.585937,0.046875 0.597656,0.1054687 0.597656,0.6679687 v 5.00390628 c 0.492188,0.234375 0.949214,0.31640625 1.324214,0.31640625 1.20704,0 2.26172,-0.9375 2.26172,-2.26171873 0,-1.0546875 -0.80859,-1.8867188 -1.78125,-1.8867188 -0.0937,0 -0.22265,0.023437 -0.36328,0.09375 z m 0,0.2695312 c 0.164062,-0.1054687 0.44531,-0.1757812 0.70312,-0.1757812 0.73829,0 1.3711,0.5976562 1.3711,1.6171875 0,1.05468748 -0.48047,1.68749998 -1.21875,1.68749998 -0.48047,-0.0117188 -0.750001,-0.328125 -0.808595,-0.50390625 -0.03516,-0.0820313 -0.04687,-0.17578125 -0.04687,-0.30468753 z m 3.6123,-2.8125 c 0.89063,0.7382813 1.41797,2.203125 1.41797,3.75 0,1.54687503 -0.5039,2.98828128 -1.41797,3.75 l 0.16407,0.1992188 c 1.34765,-0.91406252 1.89843,-2.33203127 1.89843,-3.9492188 0,-1.6289062 -0.55078,-3.0585937 -1.89843,-3.9609375 z m 91.32715,7.5 c -0.89062,-0.76171872 -1.40625,-2.20312497 -1.40625,-3.75 0,-1.546875 0.51563,-3 1.40625,-3.75 l -0.15234,-0.2109375 c -1.32422,0.9023438 -1.91016,2.3320313 -1.91016,3.9492188 0,1.62890623 0.58594,3.08203123 1.91016,3.9609375 z m 3.93457,-2.32031247 c -0.41015,0.38671875 -0.70312,0.4921875 -1.08984,0.4921875 -0.50391,0 -1.35938,-0.41015625 -1.35938,-1.66406253 0,-0.9492187 0.51563,-1.4414062 1.11329,-1.4414062 0.3164,0 0.63281,0.1171875 0.90234,0.375 0.082,0.070312 0.11719,0.09375 0.16406,0.09375 0.10547,0 0.30469,-0.1992188 0.30469,-0.3867188 0,-0.1054687 -0.0352,-0.1757812 -0.15234,-0.28125 -0.14063,-0.1171875 -0.4336,-0.234375 -0.79688,-0.234375 -0.35156,0 -0.89062,0.140625 -1.35937,0.5039063 -0.59766,0.46875 -0.90235,1.078125 -0.90235,1.7695312 0,0.96093753 0.66797,1.87500003 1.80469,1.87500003 0.52734,0 1.13672,-0.3984375 1.52344,-0.9140625 z m 0.7002,-5.17968753 c 0.89062,0.7382813 1.41797,2.203125 1.41797,3.75 0,1.54687503 -0.50391,2.98828128 -1.41797,3.75 l 0.16406,0.1992188 c 1.34766,-0.91406252 1.89844,-2.33203127 1.89844,-3.9492188 0,-1.6289062 -0.55078,-3.0585937 -1.89844,-3.9609375 z m 0,0"
         style="fill:#231f20;fill-opacity:1;fill-rule:nonzero;stroke:none"
         aria-label="(a)(b)(c)"
         transform="matrix(1.3333333,0,0,1.3333333,42.929733,112.59969)" />
      <path
         id="path3"
         d="m 147.207,664.777 c 1.555,-45.336 -20.332,-74.086 -60.6328,-79.882 -18.4687,52.39 -47.2578,87.808 -69.3164,113.164 1.25,-0.52 2.4492,-1.11 3.7852,-1.672 35.539,-15.703 72.1992,-31.961 126.164,-31.61"
         style="fill:#cecdcd;fill-opacity:1;fill-rule:nonzero;stroke:none"
         transform="matrix(0.13333333,0,0,-0.13333333,0,116.92)" />
      <path
         id="path4"
         d="m 154.922,664.961 c 1.594,-48.469 -22.742,-80.742 -65.8595,-87.559 2.1172,-6.589 4.1602,-13.379 5.8984,-20.488 l -7.4804,-1.805 C 69.5898,626.855 30.8672,670.813 5.26172,699.902 L 0,705.996 c 0,0 1.75,0.957 2.85156,2.5 1.11328,1.531 1.57422,3.594 1.57422,3.594 6.64842,-2.86 13.21092,-5.68 19.71482,-8.594 C 66.2813,684.84 106.035,667.148 173.469,673.91 l 0.777,-7.656 c -6.687,-0.695 -13.094,-1.066 -19.324,-1.293 z M 86.5742,584.895 c 40.3008,5.796 62.1878,34.546 60.6328,79.882 -53.9648,-0.351 -90.625,15.907 -126.164,31.61 -1.336,0.562 -2.5352,1.152 -3.7852,1.672 22.0586,-25.356 50.8477,-60.774 69.3164,-113.164"
         style="fill:#231f20;fill-opacity:1;fill-rule:nonzero;stroke:none"
         transform="matrix(0.13333333,0,0,-0.13333333,0,116.92)" />
      <path
         id="path5"
         d="m 129.641,613.48 c -10.5,-13.238 -25.813,-18.558 -34.2113,-11.898 -8.3984,6.699 -6.6797,22.813 3.8164,36.027 10.5119,13.231 25.8319,18.543 34.2309,11.879 8.41,-6.668 6.687,-22.793 -3.836,-36.008"
         style="fill:#ffffff;fill-opacity:1;fill-rule:nonzero;stroke:none"
         transform="matrix(0.13333333,0,0,-0.13333333,0,116.92)" />
      <path
         id="path6"
         d="m 125.059,612.754 c -4.746,-5.438 -12.364,-6.555 -17.032,-2.477 -4.668,4.063 -4.609,11.758 0.118,17.203 4.753,5.45 12.375,6.567 17.05,2.497 4.668,-4.079 4.602,-11.778 -0.136,-17.223"
         style="fill:#231f20;fill-opacity:1;fill-rule:nonzero;stroke:none"
         transform="matrix(0.13333333,0,0,-0.13333333,0,116.92)" />
      <path
         id="path7"
         d="m 583.938,263.086 c 23.64,142.266 50.132,278.559 73.777,420.82"
         style="fill:none;stroke:#231f20;stroke-width:7.5;stroke-linecap:butt;stroke-linejoin:miter;stroke-miterlimit:10;stroke-dasharray:none;stroke-opacity:1"
         transform="matrix(0.13333333,0,0,-0.13333333,0,116.92)" />
      <path
         id="path8"
         d="m 436.953,374.922 59.414,-46.723 87.571,-65.113"
         style="fill:none;stroke:#231f20;stroke-width:7.5;stroke-linecap:butt;stroke-linejoin:miter;stroke-miterlimit:10;stroke-dasharray:20, 20;stroke-dashoffset:0;stroke-opacity:1"
         transform="matrix(0.13333333,0,0,-0.13333333,0,116.92)" />
      <path
         id="path9"
         d="m 167.949,586.422 269.004,-211.5"
         style="fill:none;stroke:#231f20;stroke-width:7.5;stroke-linecap:butt;stroke-linejoin:miter;stroke-miterlimit:10;stroke-dasharray:none;stroke-opacity:1"
         transform="matrix(0.13333333,0,0,-0.13333333,0,116.92)" />
      <path
         id="path10"
         d="m 138.184,265.969 66.269,68.711 111.875,-146.383 141.199,214.34 86.899,-166.543 c 0,0 157.5,78.047 157.5,79.164"
         style="fill:none;stroke:#3871c1;stroke-width:10;stroke-linecap:butt;stroke-linejoin:miter;stroke-miterlimit:10;stroke-dasharray:none;stroke-opacity:1"
         transform="matrix(0.13333333,0,0,-0.13333333,0,116.92)" />
      <path
         id="path11"
         d="m 1239.43,700.344 c 1.57,-45.328 -20.32,-74.082 -60.62,-79.883 -18.47,52.391 -47.26,87.812 -69.32,113.156 1.25,-0.512 2.44,-1.105 3.78,-1.668 35.55,-15.699 72.2,-31.961 126.16,-31.605"
         style="fill:#cecdcd;fill-opacity:1;fill-rule:nonzero;stroke:none"
         transform="matrix(0.13333333,0,0,-0.13333333,0,116.92)" />
      <path
         id="path12"
         d="m 1247.15,700.527 c 1.6,-48.464 -22.75,-80.742 -65.85,-87.558 2.11,-6.59 4.15,-13.379 5.89,-20.489 l -7.48,-1.804 c -17.89,71.746 -56.6,115.703 -82.22,144.793 l -5.25,6.094 c 0,0 1.74,0.957 2.85,2.5 1.11,1.527 1.57,3.593 1.57,3.593 6.65,-2.859 13.2,-5.679 19.71,-8.593 42.15,-18.657 81.89,-36.348 149.33,-29.59 l 0.78,-7.653 c -6.69,-0.699 -13.1,-1.066 -19.33,-1.293 z m -68.34,-80.066 c 40.3,5.801 62.19,34.555 60.62,79.883 -53.96,-0.356 -90.61,15.906 -126.16,31.605 -1.34,0.563 -2.53,1.156 -3.78,1.668 22.06,-25.344 50.85,-60.765 69.32,-113.156"
         style="fill:#231f20;fill-opacity:1;fill-rule:nonzero;stroke:none"
         transform="matrix(0.13333333,0,0,-0.13333333,0,116.92)" />
      <path
         id="path13"
         d="m 1221.88,649.047 c -10.5,-13.234 -25.83,-18.559 -34.21,-11.899 -8.41,6.7 -6.68,22.813 3.81,36.02 10.51,13.238 25.83,18.547 34.22,11.887 8.42,-6.664 6.69,-22.793 -3.82,-36.008"
         style="fill:#ffffff;fill-opacity:1;fill-rule:nonzero;stroke:none"
         transform="matrix(0.13333333,0,0,-0.13333333,0,116.92)" />
      <path
         id="path14"
         d="m 1217.29,648.32 c -4.74,-5.433 -12.37,-6.55 -17.03,-2.48 -4.67,4.062 -4.62,11.762 0.12,17.211 4.76,5.441 12.37,6.562 17.04,2.484 4.67,-4.07 4.61,-11.769 -0.13,-17.215"
         style="fill:#231f20;fill-opacity:1;fill-rule:nonzero;stroke:none"
         transform="matrix(0.13333333,0,0,-0.13333333,0,116.92)" />
      <path
         id="path15"
         d="m 1444.38,358.938 -317,97.808"
         style="fill:none;stroke:#231f20;stroke-width:7.5;stroke-linecap:butt;stroke-linejoin:miter;stroke-miterlimit:10;stroke-dasharray:none;stroke-opacity:1"
         transform="matrix(0.13333333,0,0,-0.13333333,0,116.92)" />
      <path
         id="path16"
         d="m 1664.8,290.93 -158.92,49.031 -61.5,18.977"
         style="fill:none;stroke:#231f20;stroke-width:7.5;stroke-linecap:butt;stroke-linejoin:miter;stroke-miterlimit:10;stroke-dasharray:20, 20;stroke-dashoffset:0;stroke-opacity:1"
         transform="matrix(0.13333333,0,0,-0.13333333,0,116.92)" />
      <path
         id="path17"
         d="m 1260.33,618.02 407.4,-326.79"
         style="fill:none;stroke:#231f20;stroke-width:7.5;stroke-linecap:butt;stroke-linejoin:miter;stroke-miterlimit:10;stroke-dasharray:none;stroke-opacity:1"
         transform="matrix(0.13333333,0,0,-0.13333333,0,116.92)" />
      <path
         id="path18"
         d="m 1153.83,265.969 66.26,68.711 111.88,-146.383 141.2,214.34 86.9,-166.543 c 0,0 157.5,78.047 157.5,79.164"
         style="fill:none;stroke:#3871c1;stroke-width:10;stroke-linecap:butt;stroke-linejoin:miter;stroke-miterlimit:10;stroke-dasharray:none;stroke-opacity:1"
         transform="matrix(0.13333333,0,0,-0.13333333,0,116.92)" />
      <path
         id="path19"
         d="m 2059.11,580.027 c 1.55,-45.32 -20.32,-74.07 -60.63,-79.875 -18.46,52.399 -47.25,87.817 -69.32,113.161 1.25,-0.508 2.45,-1.106 3.79,-1.672 35.55,-15.7 72.2,-31.957 126.16,-31.614"
         style="fill:#cecdcd;fill-opacity:1;fill-rule:nonzero;stroke:none"
         transform="matrix(0.13333333,0,0,-0.13333333,0,116.92)" />
      <path
         id="path20"
         d="m 2066.83,580.227 c 1.6,-48.473 -22.75,-80.75 -65.85,-87.567 2.11,-6.594 4.15,-13.379 5.89,-20.48 l -7.48,-1.813 c -17.9,71.75 -56.62,115.707 -82.22,144.789 l -5.26,6.106 c 0,0 1.74,0.957 2.86,2.488 1.11,1.531 1.56,3.605 1.56,3.605 6.66,-2.867 13.21,-5.683 19.71,-8.593 42.14,-18.664 81.9,-36.356 149.34,-29.59 l 0.77,-7.656 c -6.69,-0.696 -13.09,-1.071 -19.32,-1.289 z m -68.35,-80.075 c 40.31,5.805 62.18,34.555 60.63,79.875 -53.96,-0.343 -90.61,15.914 -126.16,31.614 -1.34,0.566 -2.54,1.164 -3.79,1.672 22.07,-25.344 50.86,-60.762 69.32,-113.161"
         style="fill:#231f20;fill-opacity:1;fill-rule:nonzero;stroke:none"
         transform="matrix(0.13333333,0,0,-0.13333333,0,116.92)" />
      <path
         id="path21"
         d="m 2041.54,528.738 c -10.49,-13.234 -25.81,-18.55 -34.2,-11.89 -8.4,6.699 -6.68,22.808 3.82,36.011 10.51,13.246 25.83,18.547 34.22,11.887 8.41,-6.672 6.69,-22.793 -3.84,-36.008"
         style="fill:#ffffff;fill-opacity:1;fill-rule:nonzero;stroke:none"
         transform="matrix(0.13333333,0,0,-0.13333333,0,116.92)" />
      <path
         id="path22"
         d="m 2036.97,528.012 c -4.74,-5.434 -12.37,-6.547 -17.03,-2.477 -4.68,4.067 -4.62,11.762 0.12,17.207 4.74,5.442 12.37,6.567 17.04,2.492 4.67,-4.074 4.61,-11.777 -0.13,-17.222"
         style="fill:#231f20;fill-opacity:1;fill-rule:nonzero;stroke:none"
         transform="matrix(0.13333333,0,0,-0.13333333,0,116.92)" />
      <path
         id="path23"
         d="M 2516.23,712.09 2195.7,295.469 2363.72,319.004 2068.98,506.43"
         style="fill:none;stroke:#231f20;stroke-width:7.5;stroke-linecap:butt;stroke-linejoin:bevel;stroke-miterlimit:10;stroke-dasharray:none;stroke-opacity:1"
         transform="matrix(0.13333333,0,0,-0.13333333,0,116.92)" />
      <path
         id="path24"
         d="m 2099.47,265.969 66.26,68.711 111.89,-146.383 141.2,214.34 86.89,-166.543 c 0,0 157.5,78.047 157.5,79.164"
         style="fill:none;stroke:#3871c1;stroke-width:10;stroke-linecap:butt;stroke-linejoin:miter;stroke-miterlimit:10;stroke-dasharray:none;stroke-opacity:1"
         transform="matrix(0.13333333,0,0,-0.13333333,0,116.92)" />
      <path
         id="path25"
         d="m 683.715,858.477 5.656,-21.961 10.106,20.3 0.968,-22.656 14.102,17.758 -3.75,-22.367 17.48,14.445 -8.332,-21.101 20.118,10.496 -12.54,-18.907 21.856,6.079 -16.191,-15.883 22.636,1.398 -19.129,-12.172 22.43,-3.336 -21.25,-7.922 21.25,-7.929 -22.43,-3.336 19.129,-12.172 -22.636,1.402 16.191,-15.883 -21.856,6.075 12.54,-18.903 -20.118,10.493 8.332,-21.094 -17.48,14.437 3.75,-22.371 -14.102,17.762 -0.968,-22.656 -10.106,20.304 -5.656,-21.964 -5.672,21.964 -10.098,-20.304 -0.976,22.656 -14.114,-17.762 3.77,22.371 -17.488,-14.437 8.328,21.094 -20.106,-10.493 12.528,18.903 -21.844,-6.075 16.18,15.883 -22.637,-1.402 19.141,12.172 -22.43,3.336 21.238,7.929 -21.238,7.922 22.43,3.336 -19.141,12.172 22.637,-1.398 -16.18,15.883 21.844,-6.079 -12.528,18.907 20.106,-10.496 -8.328,21.101 17.488,-14.445 -3.77,22.367 14.114,-17.758 0.976,22.656 10.098,-20.3 5.672,21.961"
         style="fill:#fddd1b;fill-opacity:1;fill-rule:nonzero;stroke:none"
         transform="matrix(0.13333333,0,0,-0.13333333,0,116.92)" />
      <path
         id="path26"
         d="m 683.715,858.477 5.656,-21.961 10.106,20.3 0.968,-22.656 14.102,17.758 -3.75,-22.367 17.48,14.445 -8.332,-21.101 20.118,10.496 -12.54,-18.907 21.856,6.079 -16.191,-15.883 22.636,1.398 -19.129,-12.172 22.43,-3.336 -21.25,-7.922 21.25,-7.929 -22.43,-3.336 19.129,-12.172 -22.636,1.402 16.191,-15.883 -21.856,6.075 12.54,-18.903 -20.118,10.493 8.332,-21.094 -17.48,14.437 3.75,-22.371 -14.102,17.762 -0.968,-22.656 -10.106,20.304 -5.656,-21.964 -5.672,21.964 -10.098,-20.304 -0.976,22.656 -14.114,-17.762 3.77,22.371 -17.488,-14.437 8.328,21.094 -20.106,-10.493 12.528,18.903 -21.844,-6.075 16.18,15.883 -22.637,-1.402 19.141,12.172 -22.43,3.336 21.238,7.929 -21.238,7.922 22.43,3.336 -19.141,12.172 22.637,-1.398 -16.18,15.883 21.844,-6.079 -12.528,18.907 20.106,-10.496 -8.328,21.101 17.488,-14.445 -3.77,22.367 14.114,-17.758 0.976,22.656 10.098,-20.3 z"
         style="fill:none;stroke:#231f20;stroke-width:3.5;stroke-linecap:butt;stroke-linejoin:miter;stroke-miterlimit:7;stroke-dasharray:none;stroke-opacity:1"
         transform="matrix(0.13333333,0,0,-0.13333333,0,116.92)" />
      <path
         id="path27"
         d="m 1034.42,567.766 5.66,-21.965 10.11,20.304 0.96,-22.66 14.1,17.762 -3.75,-22.367 17.48,14.441 -8.33,-21.097 20.12,10.492 -12.54,-18.906 21.86,6.078 -16.19,-15.883 22.63,1.402 -19.13,-12.176 22.43,-3.332 -21.25,-7.925 21.25,-7.93 -22.43,-3.336 19.13,-12.172 -22.63,1.406 16.19,-15.882 -21.86,6.074 12.54,-18.903 -20.12,10.489 8.33,-21.094 -17.48,14.437 3.75,-22.367 -14.1,17.758 -0.96,-22.656 -10.11,20.308 -5.66,-21.968 -5.67,21.968 -10.1,-20.308 -0.97,22.656 -14.12,-17.758 3.77,22.367 -17.486,-14.437 8.332,21.094 -20.11,-10.489 12.532,18.903 -21.848,-6.074 16.184,15.882 -22.637,-1.406 19.141,12.172 -22.434,3.336 21.238,7.93 -21.238,7.925 22.434,3.332 -19.141,12.176 22.637,-1.402 -16.184,15.883 21.848,-6.078 -12.532,18.906 20.11,-10.492 -8.332,21.097 17.486,-14.441 -3.77,22.367 14.12,-17.762 0.97,22.66 10.1,-20.304 5.67,21.965"
         style="fill:#fddd1b;fill-opacity:1;fill-rule:nonzero;stroke:none"
         transform="matrix(0.13333333,0,0,-0.13333333,0,116.92)" />
      <path
         id="path28"
         d="m 1034.42,567.766 5.66,-21.965 10.11,20.304 0.96,-22.66 14.1,17.762 -3.75,-22.367 17.48,14.441 -8.33,-21.097 20.12,10.492 -12.54,-18.906 21.86,6.078 -16.19,-15.883 22.63,1.402 -19.13,-12.176 22.43,-3.332 -21.25,-7.925 21.25,-7.93 -22.43,-3.336 19.13,-12.172 -22.63,1.406 16.19,-15.882 -21.86,6.074 12.54,-18.903 -20.12,10.489 8.33,-21.094 -17.48,14.437 3.75,-22.367 -14.1,17.758 -0.96,-22.656 -10.11,20.308 -5.66,-21.968 -5.67,21.968 -10.1,-20.308 -0.97,22.656 -14.12,-17.758 3.77,22.367 -17.486,-14.437 8.332,21.094 -20.11,-10.489 12.532,18.903 -21.848,-6.074 16.184,15.882 -22.637,-1.406 19.141,12.172 -22.434,3.336 21.238,7.93 -21.238,7.925 22.434,3.332 -19.141,12.176 22.637,-1.402 -16.184,15.883 21.848,-6.078 -12.532,18.906 20.11,-10.492 -8.332,21.097 17.486,-14.441 -3.77,22.367 14.12,-17.762 0.97,22.66 10.1,-20.304 z"
         style="fill:none;stroke:#231f20;stroke-width:3.5;stroke-linecap:butt;stroke-linejoin:miter;stroke-miterlimit:7;stroke-dasharray:none;stroke-opacity:1"
         transform="matrix(0.13333333,0,0,-0.13333333,0,116.92)" />
      <path
         id="path29"
         d="m 2582.01,869.875 5.67,-21.965 10.09,20.305 0.98,-22.656 14.1,17.757 -3.75,-22.367 17.48,14.442 -8.34,-21.098 20.12,10.492 -12.54,-18.906 21.86,6.078 -16.2,-15.883 22.64,1.403 -19.12,-12.172 22.42,-3.336 -21.25,-7.926 21.25,-7.93 -22.42,-3.336 19.12,-12.172 -22.64,1.407 16.2,-15.883 -21.86,6.074 12.54,-18.902 -20.12,10.488 8.34,-21.094 -17.48,14.438 3.75,-22.367 -14.1,17.757 -0.98,-22.656 -10.09,20.309 -5.67,-21.969 -5.66,21.969 -10.1,-20.309 -0.98,22.656 -14.12,-17.757 3.77,22.367 -17.48,-14.438 8.32,21.094 -20.1,-10.488 12.52,18.902 -21.83,-6.074 16.17,15.883 -22.64,-1.407 19.14,12.172 -22.42,3.336 21.23,7.93 -21.23,7.926 22.42,3.336 -19.14,12.172 22.64,-1.403 -16.17,15.883 21.83,-6.078 -12.52,18.906 20.1,-10.492 -8.32,21.098 17.48,-14.442 -3.77,22.367 14.12,-17.757 0.98,22.656 10.1,-20.305 5.66,21.965"
         style="fill:#fddd1b;fill-opacity:1;fill-rule:nonzero;stroke:none"
         transform="matrix(0.13333333,0,0,-0.13333333,0,116.92)" />
      <path
         id="path30"
         d="m 2582.01,869.875 5.67,-21.965 10.09,20.305 0.98,-22.656 14.1,17.757 -3.75,-22.367 17.48,14.442 -8.34,-21.098 20.12,10.492 -12.54,-18.906 21.86,6.078 -16.2,-15.883 22.64,1.403 -19.12,-12.172 22.42,-3.336 -21.25,-7.926 21.25,-7.93 -22.42,-3.336 19.12,-12.172 -22.64,1.407 16.2,-15.883 -21.86,6.074 12.54,-18.902 -20.12,10.488 8.34,-21.094 -17.48,14.438 3.75,-22.367 -14.1,17.757 -0.98,-22.656 -10.09,20.309 -5.67,-21.969 -5.66,21.969 -10.1,-20.309 -0.98,22.656 -14.12,-17.757 3.77,22.367 -17.48,-14.438 8.32,21.094 -20.1,-10.488 12.52,18.902 -21.83,-6.074 16.17,15.883 -22.64,-1.407 19.14,12.172 -22.42,3.336 21.23,7.93 -21.23,7.926 22.42,3.336 -19.14,12.172 22.64,-1.403 -16.17,15.883 21.83,-6.078 -12.52,18.906 20.1,-10.492 -8.32,21.098 17.48,-14.442 -3.77,22.367 14.12,-17.757 0.98,22.656 10.1,-20.305 z"
         style="fill:none;stroke:#231f20;stroke-width:3.5;stroke-linecap:butt;stroke-linejoin:miter;stroke-miterlimit:7;stroke-dasharray:none;stroke-opacity:1"
         transform="matrix(0.13333333,0,0,-0.13333333,0,116.92)" />
    </g>
  </g>
</svg>
