<?xml version="1.0" encoding="UTF-8" standalone="no"?>
<!-- Created with Inkscape (http://www.inkscape.org/) -->

<svg
   version="1.1"
   id="svg1"
   width="143.53333"
   height="150.90668"
   viewBox="0 0 143.53333 150.90668"
   sodipodi:docname="pha09f50.eps"
   xmlns:inkscape="http://www.inkscape.org/namespaces/inkscape"
   xmlns:sodipodi="http://sodipodi.sourceforge.net/DTD/sodipodi-0.dtd"
   xmlns="http://www.w3.org/2000/svg"
   xmlns:svg="http://www.w3.org/2000/svg">
  <defs
     id="defs1" />
  <sodipodi:namedview
     id="namedview1"
     pagecolor="#ffffff"
     bordercolor="#000000"
     borderopacity="0.25"
     inkscape:showpageshadow="2"
     inkscape:pageopacity="0.0"
     inkscape:pagecheckerboard="0"
     inkscape:deskcolor="#d1d1d1">
    <inkscape:page
       x="0"
       y="0"
       inkscape:label="1"
       id="page1"
       width="143.53333"
       height="150.90668"
       margin="0"
       bleed="0" />
  </sodipodi:namedview>
  <g
     id="g1"
     inkscape:groupmode="layer"
     inkscape:label="1">
    <g
       id="group-R5">
      <g
         id="g2"
         aria-label="ω&#10;γ&#10;t&#10;γ&#10;t&#10;γ&#10;t&#10;γ&#10;t"
         transform="matrix(1.3333333,0,0,1.3333333,0,14.36)">
        <path
           id="path2"
           d="m 4.359375,-3.8442187 c 0.2929687,0.2578125 0.5039062,0.7148437 0.5039062,1.3828125 -0.011719,1.0078125 -0.3984375,2.0507812 -1.1367187,2.0507812 -0.3046875,0 -0.515625,-0.3046875 -0.4921875,-0.8789062 0.023437,-0.46875 0.234375,-1.359375 0.3515625,-1.7226563 l -0.058594,-0.035156 -0.6679688,0.140625 c -0.035156,0.28125 -0.09375,0.75 -0.1875,1.1367187 -0.1992187,0.85546875 -0.5625,1.3125 -0.9492188,1.3125 -0.28125,0 -0.5390625,-0.33984375 -0.5390625,-0.9960937 0,-1.0078125 0.46875,-1.921875 1.1601563,-2.4492188 L 2.203125,-4.1020312 c -1.0429688,0.5390625 -1.7578125,1.5585937 -1.7578125,2.765625 0,0.93749995 0.421875,1.4414062 0.9375,1.4414062 0.3867187,0 0.9023438,-0.3984375 1.2304688,-0.890625 C 2.6601563,-0.28171875 2.9414063,0.105 3.375,0.105 c 0.375,0 0.7382812,-0.22265625 1.0664062,-0.515625 0.5625,-0.52734375 0.9960938,-1.3007812 0.9960938,-2.2148437 0,-0.9023438 -0.3984375,-1.4179688 -0.6914063,-1.4179688 -0.1523437,0 -0.3164062,0.070312 -0.375,0.1289063 z M 58.523437,31.563984 c 0.07031,-0.585937 0.03516,-1.757812 -0.105468,-2.472656 -0.152344,-0.796875 -0.375,-1.054687 -0.621094,-1.054687 -0.28125,0 -0.703125,0.328125 -1.136719,1.03125 l 0.210938,0.199218 c 0.292968,-0.421875 0.457031,-0.574218 0.5625,-0.574218 0.08203,0 0.164062,0.117187 0.246093,0.375 0.328125,0.972656 0.386719,2.390625 0.257813,3.152343 -0.386719,0.714844 -0.855469,1.652344 -0.996094,2.039063 l 0.105469,0.128906 c 0.269531,-0.02344 0.714844,-0.234375 0.855469,-0.351562 0.105468,-0.269532 0.339843,-1.171875 0.46875,-1.78125 0.105468,-0.140625 0.328125,-0.457032 0.644531,-0.890625 0.609375,-0.785157 1.441406,-1.863282 1.453125,-2.660157 0.01172,-0.398437 -0.164063,-0.667968 -0.386719,-0.667968 -0.1875,0 -0.363281,0.152343 -0.363281,0.316406 0,0.04687 0.01172,0.09375 0.03516,0.140625 0.04687,0.07031 0.128906,0.246094 0.128906,0.457031 0,0.773438 -0.84375,1.980469 -1.335937,2.613281 z m 0,0"
           style="fill:#231f20;fill-opacity:1;fill-rule:nonzero;stroke:none" />
        <path
           id="path3"
           d="M 62.308594,33.869648 62.25,33.705586 c -0.08203,0.04687 -0.222656,0.105469 -0.375,0.105469 -0.152344,0 -0.339844,-0.09375 -0.339844,-0.574219 v -1.546875 h 0.632813 c 0.07031,-0.03516 0.09375,-0.175781 0.03516,-0.234375 H 61.53516 v -0.820313 l -0.09375,-0.01172 -0.386719,0.398437 v 0.433594 H 60.78516 l -0.164062,0.175781 0.02344,0.05859 h 0.410156 v 1.746094 c 0,0.480468 0.210938,0.714843 0.585938,0.714843 0.05859,0 0.152344,-0.02344 0.257812,-0.08203 z m 0,0"
           style="fill:#231f20;fill-opacity:1;fill-rule:nonzero;stroke:none" />
        <path
           id="path4"
           d="m 47.522461,74.896992 c 0.07031,-0.585937 0.03516,-1.757812 -0.105469,-2.472656 -0.152344,-0.796875 -0.375,-1.054688 -0.621094,-1.054688 -0.28125,0 -0.703125,0.328125 -1.136718,1.03125 l 0.210937,0.199219 c 0.292969,-0.421875 0.457031,-0.574219 0.5625,-0.574219 0.08203,0 0.164063,0.117188 0.246094,0.375 0.328125,0.972657 0.386719,2.390625 0.257812,3.152344 -0.386718,0.714844 -0.855468,1.652344 -0.996093,2.039063 l 0.105468,0.128906 c 0.269532,-0.02344 0.714844,-0.234375 0.855469,-0.351563 0.105469,-0.269531 0.339844,-1.171875 0.46875,-1.78125 0.105469,-0.140625 0.328125,-0.457031 0.644531,-0.890625 0.609375,-0.785156 1.441407,-1.863281 1.453125,-2.660156 0.01172,-0.398437 -0.164062,-0.667969 -0.386718,-0.667969 -0.1875,0 -0.363282,0.152344 -0.363282,0.316407 0,0.04687 0.01172,0.09375 0.03516,0.140625 0.04687,0.07031 0.128906,0.246093 0.128906,0.457031 0,0.773437 -0.84375,1.980469 -1.335938,2.613281 z m 0,0"
           style="fill:#231f20;fill-opacity:1;fill-rule:nonzero;stroke:none" />
        <path
           id="path5"
           d="m 51.307617,77.202656 -0.05859,-0.164062 c -0.08203,0.04687 -0.222656,0.105469 -0.375,0.105469 -0.152343,0 -0.339843,-0.09375 -0.339843,-0.574219 v -1.546875 h 0.632812 c 0.07031,-0.03516 0.09375,-0.175781 0.03516,-0.234375 H 50.53418 V 73.968281 L 50.44043,73.956563 50.053711,74.355 v 0.433594 H 49.78418 l -0.164063,0.175781 0.02344,0.05859 h 0.410156 v 1.746094 c 0,0.480468 0.210937,0.714843 0.585937,0.714843 0.05859,0 0.152344,-0.02344 0.257813,-0.08203 z m 0,0"
           style="fill:#231f20;fill-opacity:1;fill-rule:nonzero;stroke:none" />
        <path
           id="path6"
           d="m 82.523437,53.565938 c 0.07031,-0.585938 0.03516,-1.757813 -0.105468,-2.472657 -0.152344,-0.796875 -0.375,-1.054687 -0.621094,-1.054687 -0.28125,0 -0.703125,0.328125 -1.136719,1.03125 l 0.210938,0.199219 c 0.292968,-0.421875 0.457031,-0.574219 0.5625,-0.574219 0.08203,0 0.164062,0.117187 0.246093,0.375 0.328125,0.972656 0.386719,2.390625 0.257813,3.152344 -0.386719,0.714843 -0.855469,1.652343 -0.996094,2.039062 l 0.105469,0.128906 c 0.269531,-0.02344 0.714844,-0.234375 0.855469,-0.351562 0.105468,-0.269531 0.339843,-1.171875 0.46875,-1.78125 0.105468,-0.140625 0.328125,-0.457031 0.644531,-0.890625 0.609375,-0.785156 1.441406,-1.863281 1.453125,-2.660156 0.01172,-0.398438 -0.164063,-0.667969 -0.386719,-0.667969 -0.1875,0 -0.363281,0.152344 -0.363281,0.316406 0,0.04687 0.01172,0.09375 0.03516,0.140625 0.04687,0.07031 0.128906,0.246094 0.128906,0.457031 0,0.773438 -0.84375,1.980469 -1.335937,2.613282 z m 0,0"
           style="fill:#231f20;fill-opacity:1;fill-rule:nonzero;stroke:none" />
        <path
           id="path7"
           d="M 86.308594,55.868672 86.25,55.704609 c -0.08203,0.04687 -0.222656,0.105469 -0.375,0.105469 -0.152344,0 -0.339844,-0.09375 -0.339844,-0.574219 v -1.546875 h 0.632813 c 0.07031,-0.03516 0.09375,-0.175781 0.03516,-0.234375 H 85.53516 v -0.820312 l -0.09375,-0.01172 -0.386719,0.398438 v 0.433593 H 84.78516 l -0.164062,0.175782 0.02344,0.05859 h 0.410156 v 1.746094 c 0,0.480469 0.210938,0.714844 0.585938,0.714844 0.05859,0 0.152344,-0.02344 0.257812,-0.08203 z m 0,0"
           style="fill:#231f20;fill-opacity:1;fill-rule:nonzero;stroke:none" />
        <path
           id="path8"
           d="m 78.855469,65.896992 c 0.07031,-0.585937 0.03516,-1.757812 -0.105469,-2.472656 -0.152344,-0.796875 -0.375,-1.054688 -0.621094,-1.054688 -0.28125,0 -0.703125,0.328125 -1.136719,1.03125 l 0.210938,0.199219 c 0.292969,-0.421875 0.457031,-0.574219 0.5625,-0.574219 0.08203,0 0.164062,0.117188 0.246094,0.375 0.328125,0.972657 0.386718,2.390625 0.257812,3.152344 -0.386719,0.714844 -0.855469,1.652344 -0.996094,2.039063 l 0.105469,0.128906 c 0.269531,-0.02344 0.714844,-0.234375 0.855469,-0.351563 0.105469,-0.269531 0.339844,-1.171875 0.46875,-1.78125 0.105469,-0.140625 0.328125,-0.457031 0.644531,-0.890625 0.609375,-0.785156 1.441406,-1.863281 1.453125,-2.660156 0.01172,-0.398437 -0.164062,-0.667969 -0.386719,-0.667969 -0.1875,0 -0.363281,0.152344 -0.363281,0.316407 0,0.04687 0.01172,0.09375 0.03516,0.140625 0.04687,0.07031 0.128907,0.246093 0.128907,0.457031 0,0.773437 -0.84375,1.980469 -1.335938,2.613281 z m 0,0"
           style="fill:#231f20;fill-opacity:1;fill-rule:nonzero;stroke:none" />
        <path
           id="path9"
           d="m 82.640625,68.202656 -0.05859,-0.164062 c -0.08203,0.04687 -0.222656,0.105469 -0.375,0.105469 -0.152344,0 -0.339844,-0.09375 -0.339844,-0.574219 V 66.022969 H 82.5 c 0.07031,-0.03516 0.09375,-0.175781 0.03516,-0.234375 h -0.667969 v -0.820313 l -0.09375,-0.01172 -0.386718,0.398437 v 0.433594 h -0.269532 l -0.164062,0.175781 0.02344,0.05859 h 0.410157 v 1.746094 c 0,0.480468 0.210937,0.714843 0.585937,0.714843 0.05859,0 0.152344,-0.02344 0.257813,-0.08203 z m 0,0"
           style="fill:#231f20;fill-opacity:1;fill-rule:nonzero;stroke:none" />
      </g>
      <path
         id="path10"
         d="M 1060.44,371.48 C 1122.99,630.309 963.883,890.824 705.063,953.371 446.238,1015.91 185.719,856.813 123.168,597.984 60.625,339.176 219.73,78.6484 478.555,16.1094 737.379,-46.4492 997.895,112.66 1060.44,371.48 Z"
         style="fill:none;stroke:#231f20;stroke-width:5;stroke-linecap:butt;stroke-linejoin:miter;stroke-miterlimit:10;stroke-dasharray:none;stroke-opacity:1"
         transform="matrix(0.13333333,0,0,-0.13333333,0,150.90667)" />
      <path
         id="path11"
         d="M 438.727,943.199 44.9375,1112.53"
         style="fill:none;stroke:#231f20;stroke-width:7.5;stroke-linecap:butt;stroke-linejoin:miter;stroke-miterlimit:10;stroke-dasharray:none;stroke-opacity:1"
         transform="matrix(0.13333333,0,0,-0.13333333,0,150.90667)" />
      <path
         id="path12"
         d="m 54.8281,1108.28 3.5391,-25.06 -0.8711,-0.16 -26.8516,26.79 c -10.2148,7.33 -20.4297,14.67 -30.6445,22 12.3477,-2.37 24.6992,-4.74 37.0508,-7.11 l 37.914,-1.06 0.5313,-0.63 -20.668,-14.77"
         style="fill:#231f20;fill-opacity:1;fill-rule:nonzero;stroke:none"
         transform="matrix(0.13333333,0,0,-0.13333333,0,150.90667)" />
      <path
         id="path13"
         d="M 1060.44,371.48 438.727,943.199"
         style="fill:none;stroke:#231f20;stroke-width:7.5;stroke-linecap:butt;stroke-linejoin:bevel;stroke-miterlimit:10;stroke-dasharray:none;stroke-opacity:1"
         transform="matrix(0.13333333,0,0,-0.13333333,0,150.90667)" />
      <path
         id="path14"
         d="m 438.727,943.199 3.168,-9.488"
         style="fill:none;stroke:#231f20;stroke-width:5;stroke-linecap:butt;stroke-linejoin:bevel;stroke-miterlimit:4;stroke-dasharray:none;stroke-opacity:1"
         transform="matrix(0.13333333,0,0,-0.13333333,0,150.90667)" />
      <path
         id="path15"
         d="M 448.27,914.605 585.449,503.777"
         style="fill:none;stroke:#231f20;stroke-width:5;stroke-linecap:butt;stroke-linejoin:bevel;stroke-miterlimit:4;stroke-dasharray:20.1452, 20.1452;stroke-dashoffset:0;stroke-opacity:1"
         transform="matrix(0.13333333,0,0,-0.13333333,0,150.90667)" />
      <path
         id="path16"
         d="m 588.637,494.227 3.172,-9.485 9.718,-2.351"
         style="fill:none;stroke:#231f20;stroke-width:5;stroke-linecap:butt;stroke-linejoin:bevel;stroke-miterlimit:4;stroke-dasharray:none;stroke-opacity:1"
         transform="matrix(0.13333333,0,0,-0.13333333,0,150.90667)" />
      <path
         id="path17"
         d="M 621.059,477.672 1040.96,376.188"
         style="fill:none;stroke:#231f20;stroke-width:5;stroke-linecap:butt;stroke-linejoin:bevel;stroke-miterlimit:4;stroke-dasharray:20.0926, 20.0926;stroke-dashoffset:0;stroke-opacity:1"
         transform="matrix(0.13333333,0,0,-0.13333333,0,150.90667)" />
      <path
         id="path18"
         d="m 1050.72,373.828 9.72,-2.348"
         style="fill:none;stroke:#231f20;stroke-width:5;stroke-linecap:butt;stroke-linejoin:bevel;stroke-miterlimit:4;stroke-dasharray:none;stroke-opacity:1"
         transform="matrix(0.13333333,0,0,-0.13333333,0,150.90667)" />
      <path
         id="path19"
         d="M 591.809,484.742 584.68,477.73"
         style="fill:none;stroke:#231f20;stroke-width:5;stroke-linecap:butt;stroke-linejoin:bevel;stroke-miterlimit:4;stroke-dasharray:none;stroke-opacity:1"
         transform="matrix(0.13333333,0,0,-0.13333333,0,150.90667)" />
      <path
         id="path20"
         d="M 570.348,463.641 262.289,160.797"
         style="fill:none;stroke:#231f20;stroke-width:5;stroke-linecap:butt;stroke-linejoin:bevel;stroke-miterlimit:4;stroke-dasharray:20.0927, 20.0927;stroke-dashoffset:0;stroke-opacity:1"
         transform="matrix(0.13333333,0,0,-0.13333333,0,150.90667)" />
      <path
         id="path21"
         d="m 255.121,153.754 -7.129,-7.012"
         style="fill:none;stroke:#231f20;stroke-width:5;stroke-linecap:butt;stroke-linejoin:bevel;stroke-miterlimit:4;stroke-dasharray:none;stroke-opacity:1"
         transform="matrix(0.13333333,0,0,-0.13333333,0,150.90667)" />
      <path
         id="path22"
         d="M 247.992,146.742 1061.91,372.398"
         style="fill:none;stroke:#231f20;stroke-width:7.5;stroke-linecap:butt;stroke-linejoin:bevel;stroke-miterlimit:10;stroke-dasharray:none;stroke-opacity:1"
         transform="matrix(0.13333333,0,0,-0.13333333,0,150.90667)" />
      <path
         id="path23"
         d="m 863.09,318.324 c -4.676,17.239 -7.168,35.364 -7.168,54.074 0,53.18 20.148,101.661 53.234,138.204"
         style="fill:none;stroke:#231f20;stroke-width:5;stroke-linecap:butt;stroke-linejoin:miter;stroke-miterlimit:10;stroke-dasharray:none;stroke-opacity:1"
         transform="matrix(0.13333333,0,0,-0.13333333,0,150.90667)" />
      <path
         id="path24"
         d="m 396.555,292.785 c 24.047,-25.039 41.828,-56.129 50.832,-90.758"
         style="fill:none;stroke:#231f20;stroke-width:5;stroke-linecap:butt;stroke-linejoin:miter;stroke-miterlimit:10;stroke-dasharray:none;stroke-opacity:1"
         transform="matrix(0.13333333,0,0,-0.13333333,0,150.90667)" />
      <path
         id="path25"
         d="M 592.457,801.852 C 569.105,775.68 539.172,755.523 505.258,743.949"
         style="fill:none;stroke:#231f20;stroke-width:5;stroke-linecap:butt;stroke-linejoin:miter;stroke-miterlimit:10;stroke-dasharray:none;stroke-opacity:1"
         transform="matrix(0.13333333,0,0,-0.13333333,0,150.90667)" />
    </g>
  </g>
</svg>
