<?xml version="1.0" encoding="UTF-8" standalone="no"?>
<!-- Created with Inkscape (http://www.inkscape.org/) -->

<svg
   version="1.1"
   id="svg1"
   width="191.78667"
   height="193.77333"
   viewBox="0 0 191.78667 193.77333"
   sodipodi:docname="pha09f19.eps"
   xmlns:inkscape="http://www.inkscape.org/namespaces/inkscape"
   xmlns:sodipodi="http://sodipodi.sourceforge.net/DTD/sodipodi-0.dtd"
   xmlns="http://www.w3.org/2000/svg"
   xmlns:svg="http://www.w3.org/2000/svg">
  <defs
     id="defs1">
    <linearGradient
       x1="0"
       y1="0"
       x2="1"
       y2="0"
       gradientUnits="userSpaceOnUse"
       gradientTransform="matrix(358.398,247.324,247.324,-358.398,754.404,289.25)"
       spreadMethod="pad"
       id="linearGradient17">
      <stop
         style="stop-opacity:1;stop-color:#b4b3b3"
         offset="0"
         id="stop14" />
      <stop
         style="stop-opacity:1;stop-color:#b4b3b3"
         offset="0.157765"
         id="stop15" />
      <stop
         style="stop-opacity:1;stop-color:#ebebeb"
         offset="0.901646"
         id="stop16" />
      <stop
         style="stop-opacity:1;stop-color:#ebebeb"
         offset="1"
         id="stop17" />
    </linearGradient>
    <clipPath
       clipPathUnits="userSpaceOnUse"
       id="clipPath17">
      <path
         d="m 1045.76,48.4297 c -0.04,0 -0.09,0 -0.14,0 -0.01,0 -0.02,0 -0.03,0 -3.27,0 -5.98,0.4922 -7.95,1.3398 -1.99,0.8711 -3.22,2 -3.98,3.5313 L 747.582,671.262 1057,148.031 l -21.01,0.199 0.05,-0.82 30,-23.211 c 8.58,-9.199 17.15,-18.39 25.73,-27.5896 -3.93,11.9416 -7.85,23.9026 -11.78,35.8396 l -5.89,37.473 -0.8,0.379 -9.85,-18.449 L 753.449,676.078 1150.67,138.73 c 0.99,-1.679 1.5,-3.71 1.5,-6.171 0.05,-6.7 -4.12,-16.34 -11.85,-26.61 -7.72,-10.2888 -18.89,-21.2888 -32.45,-31.2693 -22.53,-16.5977 -47.45,-26.25 -62.11,-26.25"
         transform="translate(0,-2.5000001e-5)"
         id="path17" />
    </clipPath>
    <linearGradient
       x1="0"
       y1="0"
       x2="1"
       y2="0"
       gradientUnits="userSpaceOnUse"
       gradientTransform="matrix(358.398,247.324,247.324,-358.398,754.404,289.25)"
       spreadMethod="pad"
       id="linearGradient21">
      <stop
         style="stop-opacity:1;stop-color:#231f20"
         offset="0"
         id="stop18" />
      <stop
         style="stop-opacity:1;stop-color:#231f20"
         offset="0.157765"
         id="stop19" />
      <stop
         style="stop-opacity:1;stop-color:#5a5758"
         offset="0.901646"
         id="stop20" />
      <stop
         style="stop-opacity:1;stop-color:#5a5758"
         offset="1"
         id="stop21" />
    </linearGradient>
    <clipPath
       clipPathUnits="userSpaceOnUse"
       id="clipPath21">
      <path
         d="m 1061.39,147.988 -4.39,0.043 -309.418,523.231 -15.793,34.117 21.66,-29.301 310.001,-524.226 -2.06,-3.864"
         transform="translate(0,-2.5000001e-5)"
         id="path21" />
    </clipPath>
    <linearGradient
       x1="0"
       y1="0"
       x2="1"
       y2="0"
       gradientUnits="userSpaceOnUse"
       gradientTransform="matrix(358.398,247.324,247.324,-358.398,754.404,289.25)"
       spreadMethod="pad"
       id="linearGradient25">
      <stop
         style="stop-opacity:1;stop-color:#231f20"
         offset="0"
         id="stop22" />
      <stop
         style="stop-opacity:1;stop-color:#231f20"
         offset="0.157765"
         id="stop23" />
      <stop
         style="stop-opacity:1;stop-color:#5a5758"
         offset="0.901646"
         id="stop24" />
      <stop
         style="stop-opacity:1;stop-color:#5a5758"
         offset="1"
         id="stop25" />
    </linearGradient>
    <clipPath
       clipPathUnits="userSpaceOnUse"
       id="clipPath25">
      <path
         d="m 1091.77,96.6094 c -8.58,9.1996 -17.15,18.3906 -25.73,27.5896 l -30,23.211 -0.05,0.82 21.01,-0.199 4.39,-0.043 2.06,3.864 9.85,18.449 0.8,-0.379 5.89,-37.473 c 3.93,-11.937 7.85,-23.898 11.78,-35.8396"
         transform="translate(0,-2.5000001e-5)"
         id="path25" />
    </clipPath>
    <linearGradient
       x1="0"
       y1="0"
       x2="1"
       y2="0"
       gradientUnits="userSpaceOnUse"
       gradientTransform="matrix(-270.098,-370.206,-370.206,270.098,509.883,1088.96)"
       spreadMethod="pad"
       id="linearGradient31">
      <stop
         style="stop-opacity:1;stop-color:#ffffff"
         offset="0"
         id="stop27" />
      <stop
         style="stop-opacity:1;stop-color:#ffffff"
         offset="0.0983536"
         id="stop28" />
      <stop
         style="stop-opacity:1;stop-color:#ffffff"
         offset="0.38557187"
         id="stop29" />
      <stop
         style="stop-opacity:1;stop-color:#c8c7c7"
         offset="0.842235"
         id="stop30" />
      <stop
         style="stop-opacity:1;stop-color:#c8c7c7"
         offset="1"
         id="stop31" />
    </linearGradient>
    <clipPath
       clipPathUnits="userSpaceOnUse"
       id="clipPath31">
      <path
         d="M 685.906,747.988 C 559.301,818.098 125.234,1058.55 78.5547,1084.4 l -0.1094,0.06 -0.1367,0.06 -3.6367,2.02 c -2.9688,2.53 -4.6211,6.92 -4.6289,13.34 -0.0274,10.6 4.6992,26 13.4922,43.45 8.7734,17.46 21.5548,37.05 37.4418,56.45 l 0.011,0.01 c 17.407,21.29 35.778,38.96 52.352,51.25 16.449,12.25 31.281,19.03 40.89,19.03 0.051,0 0.102,0 0.149,0 3.539,-0.01 6.262,-0.85 8.351,-2.45 l -1.769,-1.73 2.031,-2.22 c 0.024,-0.03 0.043,-0.04 0.067,-0.07 v 0 0 l 1.843,1.69 0.254,-0.3 0.024,-0.03 0.023,-0.02 c 32.473,-35.62 370.914,-407.01 466.902,-512.284 l -493.648,387.144 19.574,7.35 -0.277,0.84 -36.375,10.74 c -11.336,5.45 -22.664,10.91 -33.996,16.36 8,-9.7 15.996,-19.41 23.988,-29.12 l 19.098,-32.77 0.808,-0.16 2.539,20.87 492.09,-385.922"
         transform="translate(0,-2.5000001e-5)"
         id="path31" />
    </clipPath>
    <linearGradient
       x1="0"
       y1="0"
       x2="1"
       y2="0"
       gradientUnits="userSpaceOnUse"
       gradientTransform="matrix(-270.098,-370.206,-370.206,270.098,509.883,1088.96)"
       spreadMethod="pad"
       id="linearGradient35">
      <stop
         style="stop-opacity:1;stop-color:#5a5758"
         offset="0"
         id="stop32" />
      <stop
         style="stop-opacity:1;stop-color:#5a5758"
         offset="0.0983536"
         id="stop33" />
      <stop
         style="stop-opacity:1;stop-color:#231f20"
         offset="0.842235"
         id="stop34" />
      <stop
         style="stop-opacity:1;stop-color:#231f20"
         offset="1"
         id="stop35" />
    </linearGradient>
    <clipPath
       clipPathUnits="userSpaceOnUse"
       id="clipPath35">
      <path
         d="m 707.031,736.289 c -5.511,3.055 -12.633,6.996 -21.125,11.699 l -492.09,385.922 0.532,4.35 4.109,1.54 493.648,-387.144 c 5.95,-6.519 10.973,-12.031 14.926,-16.367"
         transform="translate(0,-2.5000001e-5)"
         id="path35" />
    </clipPath>
    <linearGradient
       x1="0"
       y1="0"
       x2="1"
       y2="0"
       gradientUnits="userSpaceOnUse"
       gradientTransform="matrix(-270.098,-370.206,-370.206,270.098,509.883,1088.96)"
       spreadMethod="pad"
       id="linearGradient39">
      <stop
         style="stop-opacity:1;stop-color:#5a5758"
         offset="0"
         id="stop36" />
      <stop
         style="stop-opacity:1;stop-color:#5a5758"
         offset="0.0983536"
         id="stop37" />
      <stop
         style="stop-opacity:1;stop-color:#231f20"
         offset="0.842235"
         id="stop38" />
      <stop
         style="stop-opacity:1;stop-color:#231f20"
         offset="1"
         id="stop39" />
    </linearGradient>
    <clipPath
       clipPathUnits="userSpaceOnUse"
       id="clipPath39">
      <path
         d="m 191.277,1113.04 -0.808,0.16 -19.098,32.77 c -7.992,9.71 -15.988,19.42 -23.988,29.12 11.332,-5.45 22.66,-10.91 33.996,-16.36 l 36.375,-10.74 0.277,-0.84 -19.574,-7.35 -4.109,-1.54 -0.532,-4.35 -2.539,-20.87"
         transform="translate(0,-2.5000001e-5)"
         id="path39" />
    </clipPath>
    <linearGradient
       x1="0"
       y1="0"
       x2="1"
       y2="0"
       gradientUnits="userSpaceOnUse"
       gradientTransform="matrix(-270.098,-370.206,-370.206,270.098,509.883,1088.96)"
       spreadMethod="pad"
       id="linearGradient45">
      <stop
         style="stop-opacity:1;stop-color:#c8c7c7"
         offset="0"
         id="stop42" />
      <stop
         style="stop-opacity:1;stop-color:#c8c7c7"
         offset="0.0983536"
         id="stop43" />
      <stop
         style="stop-opacity:1;stop-color:#9e9d9d"
         offset="0.842235"
         id="stop44" />
      <stop
         style="stop-opacity:1;stop-color:#9e9d9d"
         offset="1"
         id="stop45" />
    </linearGradient>
    <clipPath
       clipPathUnits="userSpaceOnUse"
       id="clipPath45">
      <path
         d="m 223.059,1263.6 v 0 0 c -0.024,0.03 -0.043,0.04 -0.067,0.07 l -2.031,2.22 1.769,1.73 c 0.047,-0.04 0.098,-0.08 0.149,-0.12 v 0 l 0.019,-0.02 0.016,-0.02 c 0.059,-0.04 0.848,-0.92 1.961,-2.14 l 0.027,-0.03 -1.843,-1.69"
         transform="translate(0,-2.5000001e-5)"
         id="path45" />
    </clipPath>
  </defs>
  <sodipodi:namedview
     id="namedview1"
     pagecolor="#ffffff"
     bordercolor="#000000"
     borderopacity="0.25"
     inkscape:showpageshadow="2"
     inkscape:pageopacity="0.0"
     inkscape:pagecheckerboard="0"
     inkscape:deskcolor="#d1d1d1">
    <inkscape:page
       x="0"
       y="0"
       inkscape:label="1"
       id="page1"
       width="191.78667"
       height="193.77333"
       margin="0"
       bleed="0" />
  </sodipodi:namedview>
  <g
     id="g1"
     inkscape:groupmode="layer"
     inkscape:label="1">
    <g
       id="group-R5">
      <g
         id="g2"
         aria-label="n&#10;η&#10;i"
         transform="matrix(1.3333333,0,0,1.3333333,101.71933,12.034667)">
        <path
           id="path2"
           d="M 4.8628437,3.671875e-4 V -0.26916406 c -0.5039062,-0.0585938 -0.5507812,-0.09375 -0.5507812,-0.6796875 V -2.6597891 c 0,-0.890625 -0.4453125,-1.40625 -1.1601563,-1.40625 -0.2578125,0 -0.4570312,0.09375 -0.7265625,0.2578125 -0.2109375,0.140625 -0.3867187,0.2695313 -0.5742187,0.3984375 v -0.6796875 c -0.4804688,0.1523438 -1.01953125,0.28125 -1.48828125,0.3515625 v 0.234375 C 0.819875,-3.4097891 0.86675,-3.3863516 0.86675,-2.8238516 v 1.86328129 c 0,0.59765625 -0.046875,0.62109375 -0.62109375,0.69140625 V 3.671875e-4 H 2.3315937 V -0.26916406 C 1.9097187,-0.32775781 1.851125,-0.36291406 1.851125,-0.93713281 V -3.0816641 c 0.2460937,-0.1992187 0.5039062,-0.3515625 0.7851562,-0.3515625 0.4101563,0 0.6914063,0.2695313 0.6914063,0.9140625 v 1.5117188 c 0,0.64453124 -0.046875,0.67968749 -0.4804688,0.73828124 V 3.671875e-4 Z m 0,0"
           style="fill:#231f20;fill-opacity:1;fill-rule:nonzero;stroke:none" />
        <path
           id="path3"
           d="m -70.966258,55.265992 0.1875,-0.832031 c 0.175781,-0.691406 0.140625,-0.996094 -0.07031,-0.996094 -0.246094,0 -0.796875,0.339844 -1.289063,0.867188 l 0.140625,0.199218 c 0.222656,-0.222656 0.503906,-0.410156 0.585938,-0.410156 0.04687,0 0.07031,0.08203 0,0.375 -0.210938,0.984375 -0.46875,2.074219 -0.714844,3.046875 l 0.05859,0.07031 c 0.164062,-0.05859 0.410156,-0.128907 0.644531,-0.175782 0.105469,-0.539062 0.246094,-1.113281 0.351562,-1.511718 0.597657,-0.925782 1.570313,-1.886719 1.910157,-1.886719 0.117187,0 0.152343,0.117187 0.02344,0.691406 -0.175781,0.738281 -0.339844,1.464844 -0.515625,2.214844 -0.292969,1.3125 -0.480469,2.167969 -0.457031,2.34375 0.05859,0.222656 0.375,0.527344 0.621094,0.527344 l 0.05859,-0.117188 c -0.03516,-0.164062 -0.01172,-0.539062 0.164063,-1.429687 0.222656,-1.125 0.457031,-2.25 0.773437,-3.550782 0.257813,-1.113281 0.05859,-1.253906 -0.140625,-1.253906 -0.152343,0 -0.375,0.07031 -0.597656,0.199219 -0.398437,0.246094 -1.054687,0.738281 -1.710937,1.628906 z m 0,0"
           style="fill:#231f20;fill-opacity:1;fill-rule:nonzero;stroke:none" />
        <path
           id="path4"
           d="m -67.239695,56.270875 c 0.175781,0 0.304687,-0.152344 0.304687,-0.316406 0,-0.175782 -0.128906,-0.304688 -0.292969,-0.304688 -0.164062,0 -0.304687,0.128906 -0.304687,0.304688 0,0.164062 0.140625,0.316406 0.292969,0.316406 z m 0.703125,3.210937 v -0.152343 c -0.386719,-0.03516 -0.421875,-0.07031 -0.421875,-0.480469 v -2.074219 c -0.269532,0.105469 -0.550782,0.1875 -0.855469,0.234375 v 0.140625 c 0.363281,0.05859 0.375,0.09375 0.375,0.457031 V 58.849 c 0,0.410156 -0.03516,0.445312 -0.421875,0.480469 v 0.152343 z m 0,0"
           style="fill:#231f20;fill-opacity:1;fill-rule:nonzero;stroke:none" />
      </g>
      <path
         id="path5"
         d="M 0,0 H 1438.36 V 726.66 H 0 Z"
         style="fill:#e5e4e4;fill-opacity:1;fill-rule:nonzero;stroke:none"
         transform="matrix(0.13333333,0,0,-0.13333333,0,193.77333)" />
      <path
         id="path6"
         d="m 0,721.66 h 1438.36 v 10 H 0 Z"
         style="fill:#231f20;fill-opacity:1;fill-rule:nonzero;stroke:none"
         transform="matrix(0.13333333,0,0,-0.13333333,0,193.77333)" />
      <path
         id="path7"
         d="m 715.43,726.66 h 7.5 v 677.742 h -7.5 z"
         style="fill:#231f20;fill-opacity:1;fill-rule:nonzero;stroke:none"
         transform="matrix(0.13333333,0,0,-0.13333333,0,193.77333)" />
      <path
         id="path8"
         d="m 719.18,1393.64 21.621,-13.15 0.488,0.74 -14.004,35.24 c -2.695,12.29 -5.398,24.57 -8.105,36.85 -2.703,-12.28 -5.403,-24.56 -8.106,-36.85 l -14.004,-35.24 0.371,-0.74 21.739,13.15"
         style="fill:#231f20;fill-opacity:1;fill-rule:nonzero;stroke:none"
         transform="matrix(0.13333333,0,0,-0.13333333,0,193.77333)" />
      <path
         id="path9"
         d="m 183.559,1141.95 533.308,-418.239 4.625,5.898 -533.304,418.241 -4.629,-5.9"
         style="fill:#231f20;fill-opacity:1;fill-rule:nonzero;stroke:none"
         transform="matrix(0.13333333,0,0,-0.13333333,0,193.77333)" />
      <path
         id="path10"
         d="m 194.348,1138.26 23.683,8.89 -0.277,0.84 -36.375,10.74 c -11.336,5.45 -22.664,10.91 -33.996,16.36 8,-9.7 15.996,-19.41 23.988,-29.12 l 19.098,-32.77 0.808,-0.16 3.071,25.22"
         style="fill:#231f20;fill-opacity:1;fill-rule:nonzero;stroke:none"
         transform="matrix(0.13333333,0,0,-0.13333333,0,193.77333)" />
      <path
         id="path11"
         d="m 715.953,724.75 347.687,-587.949 6.45,3.82 -347.684,587.949 -6.453,-3.82"
         style="fill:#231f20;fill-opacity:1;fill-rule:nonzero;stroke:none"
         transform="matrix(0.13333333,0,0,-0.13333333,0,193.77333)" />
      <path
         id="path12"
         d="m 1061.39,147.988 11.91,22.313 0.8,-0.379 5.89,-37.473 c 3.93,-11.937 7.85,-23.898 11.78,-35.8396 -8.58,9.1996 -17.15,18.3906 -25.73,27.5896 l -30,23.211 -0.05,0.82 25.4,-0.242"
         style="fill:#231f20;fill-opacity:1;fill-rule:nonzero;stroke:none"
         transform="matrix(0.13333333,0,0,-0.13333333,0,193.77333)" />
      <path
         id="path13"
         d="m 724.18,0 v 40 h -10 V 0 h 10 m 0,80 v 40 h -10 V 80 h 10 m 0,80 v 40 h -10 v -40 h 10 m 0,80 v 40 h -10 v -40 h 10 m 0,80 v 40 h -10 v -40 h 10 m 0,80 v 40 h -10 v -40 h 10 m 0,80 v 40 h -10 v -40 h 10 m 0,80 v 40 h -10 v -40 h 10 m 0,80 v 40 h -10 v -40 h 10 m 0,80 v 6.66 h -10 V 720 h 10"
         style="fill:#231f20;fill-opacity:1;fill-rule:nonzero;stroke:none"
         transform="matrix(0.13333333,0,0,-0.13333333,0,193.77333)" />
      <path
         id="path14"
         d="m 1045.76,48.4297 c -0.04,0 -0.09,0 -0.14,0 -0.01,0 -0.02,0 -0.03,0 -3.27,0 -5.98,0.4922 -7.95,1.3398 -1.99,0.8711 -3.22,2 -3.98,3.5313 L 747.582,671.262 1057,148.031 l -21.01,0.199 0.05,-0.82 30,-23.211 c 8.58,-9.199 17.15,-18.39 25.73,-27.5896 -3.93,11.9416 -7.85,23.9026 -11.78,35.8396 l -5.89,37.473 -0.8,0.379 -9.85,-18.449 L 753.449,676.078 1150.67,138.73 c 0.99,-1.679 1.5,-3.71 1.5,-6.171 0.05,-6.7 -4.12,-16.34 -11.85,-26.61 -7.72,-10.2888 -18.89,-21.2888 -32.45,-31.2693 -22.53,-16.5977 -47.45,-26.25 -62.11,-26.25"
         style="fill:url(#linearGradient17);fill-opacity:1;fill-rule:nonzero;stroke:none"
         transform="matrix(0.13333333,0,0,-0.13333333,0,193.77333)"
         clip-path="url(#clipPath17)" />
      <path
         id="path18"
         d="m 1061.39,147.988 -4.39,0.043 -309.418,523.231 -15.793,34.117 21.66,-29.301 310.001,-524.226 -2.06,-3.864"
         style="fill:url(#linearGradient21);fill-opacity:1;fill-rule:nonzero;stroke:none"
         transform="matrix(0.13333333,0,0,-0.13333333,0,193.77333)"
         clip-path="url(#clipPath21)" />
      <path
         id="path22"
         d="m 1091.77,96.6094 c -8.58,9.1996 -17.15,18.3906 -25.73,27.5896 l -30,23.211 -0.05,0.82 21.01,-0.199 4.39,-0.043 2.06,3.864 9.85,18.449 0.8,-0.379 5.89,-37.473 c 3.93,-11.937 7.85,-23.898 11.78,-35.8396"
         style="fill:url(#linearGradient25);fill-opacity:1;fill-rule:nonzero;stroke:none"
         transform="matrix(0.13333333,0,0,-0.13333333,0,193.77333)"
         clip-path="url(#clipPath25)" />
      <path
         id="path26"
         d="M 1154.76,141.602 706.633,747.82 1029.15,51.1406 l 0.01,-0.0195 c 1.32,-2.7422 3.67,-4.7422 6.51,-5.9492 2.84,-1.211 6.2,-1.7305 9.95,-1.7422 16.56,0.0703 41.85,10.1289 65.21,27.2187 13.92,10.25 25.41,21.543 33.49,32.3006 8.05,10.789 12.8,20.992 12.85,29.61 0.01,3.679 -0.93,7.132 -3.01,9.953 l -4.03,-2.973 c 1.35,-1.828 2.03,-4.109 2.04,-6.98 0.05,-6.7 -4.12,-16.34 -11.85,-26.61 -7.72,-10.2888 -18.89,-21.2888 -32.45,-31.2693 -22.6,-16.6602 -47.61,-26.3086 -62.25,-26.25 -3.28,0 -6,0.4805 -7.98,1.3398 -1.99,0.8711 -3.23,2.0118 -3.98,3.5391 l -2.25,-1.0898 2.27,1.0507 -301.891,652.1095 418.951,-566.75 4.02,2.973"
         style="fill:#231f20;fill-opacity:1;fill-rule:nonzero;stroke:none"
         transform="matrix(0.13333333,0,0,-0.13333333,0,193.77333)" />
      <path
         id="path27"
         d="M 685.906,747.988 C 559.301,818.098 125.234,1058.55 78.5547,1084.4 l -0.1094,0.06 -0.1367,0.06 -3.6367,2.02 c -2.9688,2.53 -4.6211,6.92 -4.6289,13.34 -0.0274,10.6 4.6992,26 13.4922,43.45 8.7734,17.46 21.5548,37.05 37.4418,56.45 l 0.011,0.01 c 17.407,21.29 35.778,38.96 52.352,51.25 16.449,12.25 31.281,19.03 40.89,19.03 0.051,0 0.102,0 0.149,0 3.539,-0.01 6.262,-0.85 8.351,-2.45 l -1.769,-1.73 2.031,-2.22 c 0.024,-0.03 0.043,-0.04 0.067,-0.07 v 0 0 l 1.843,1.69 0.254,-0.3 0.024,-0.03 0.023,-0.02 c 32.473,-35.62 370.914,-407.01 466.902,-512.284 l -493.648,387.144 19.574,7.35 -0.277,0.84 -36.375,10.74 c -11.336,5.45 -22.664,10.91 -33.996,16.36 8,-9.7 15.996,-19.41 23.988,-29.12 l 19.098,-32.77 0.808,-0.16 2.539,20.87 492.09,-385.922"
         style="fill:url(#linearGradient31);fill-opacity:1;fill-rule:nonzero;stroke:none"
         transform="matrix(0.13333333,0,0,-0.13333333,0,193.77333)"
         clip-path="url(#clipPath31)" />
      <path
         id="path32"
         d="m 707.031,736.289 c -5.511,3.055 -12.633,6.996 -21.125,11.699 l -492.09,385.922 0.532,4.35 4.109,1.54 493.648,-387.144 c 5.95,-6.519 10.973,-12.031 14.926,-16.367"
         style="fill:url(#linearGradient35);fill-opacity:1;fill-rule:nonzero;stroke:none"
         transform="matrix(0.13333333,0,0,-0.13333333,0,193.77333)"
         clip-path="url(#clipPath35)" />
      <path
         id="path36"
         d="m 191.277,1113.04 -0.808,0.16 -19.098,32.77 c -7.992,9.71 -15.988,19.42 -23.988,29.12 11.332,-5.45 22.66,-10.91 33.996,-16.36 l 36.375,-10.74 0.277,-0.84 -19.574,-7.35 -4.109,-1.54 -0.532,-4.35 -2.539,-20.87"
         style="fill:url(#linearGradient39);fill-opacity:1;fill-rule:nonzero;stroke:none"
         transform="matrix(0.13333333,0,0,-0.13333333,0,193.77333)"
         clip-path="url(#clipPath39)" />
      <path
         id="path40"
         d="m 719.148,726.727 1.204,2.195 C 713.469,732.699 132.953,1054.27 78.5547,1084.4 l -0.1094,0.06 -0.1367,0.06 -3.8438,2.14 -1.2148,-2.19 1.5859,1.94 c -3.0703,2.49 -4.7851,6.93 -4.7929,13.47 -0.0274,10.6 4.6992,26 13.4922,43.45 8.7773,17.47 21.5588,37.06 37.4528,56.46 l -0.023,-0.02 0.023,0.02 c 17.407,21.29 35.778,38.96 52.352,51.25 16.535,12.31 31.433,19.1 41.039,19.03 3.676,-0.01 6.473,-0.91 8.59,-2.64 l 1.582,1.93 -1.77,-1.76 0.098,-0.1 0.019,-0.02 0.016,-0.02 c 0.059,-0.04 0.859,-0.94 1.988,-2.17 l 1.844,1.68 -1.894,-1.63 0.304,-0.35 0.024,-0.03 0.023,-0.02 c 37.664,-41.31 486.934,-534.331 492.113,-539.913 l 1.832,1.7 1.204,2.195 -1.204,-2.195 1.836,1.703 c -5.117,5.511 -454.437,498.59 -492.086,539.87 l -1.847,-1.68 1.894,1.63 -0.304,0.36 -0.024,0.02 -0.023,0.03 c -1.156,1.26 -1.762,1.97 -2.211,2.41 l -1.735,-1.8 1.766,1.77 -0.094,0.09 -0.09,0.09 -0.097,0.08 c -3.18,2.61 -7.262,3.77 -11.754,3.77 -11.746,-0.07 -26.988,-7.45 -44.016,-20.02 -16.988,-12.6 -35.601,-30.52 -53.246,-52.09 l 0.02,0.02 -0.02,-0.02 c -16.101,-19.67 -29.074,-39.52 -38.0506,-57.39 -8.9648,-17.88 -13.9961,-33.69 -14.0234,-45.69 -0.0078,-7.32 1.9492,-13.5 6.625,-17.34 l 0.1758,-0.15 4.1484,-2.3 0.1133,-0.06 0.2539,-0.11 0.9844,2.29 -1.211,-2.18 C 130.539,1049.89 711.023,728.336 717.949,724.535 l 13.539,-7.43 -10.504,11.325 -1.836,-1.703"
         style="fill:#231f20;fill-opacity:1;fill-rule:nonzero;stroke:none"
         transform="matrix(0.13333333,0,0,-0.13333333,0,193.77333)" />
      <path
         id="path41"
         d="m 228.594,1268.66 v 0 l 1.844,1.69 -1.844,-1.69 m 0,0 v 0 0 l 1.844,1.69 -1.844,-1.69 c -1.129,1.23 -1.731,1.93 -2.18,2.38 v 0 l -0.09,0.09 1.789,1.74 0.219,-0.23 h 0.004 l 0.289,-0.31 0.445,-0.48 1.368,-1.5 -1.844,-1.69"
         style="fill:#c8c7c7;fill-opacity:1;fill-rule:nonzero;stroke:none"
         transform="matrix(0.13333333,0,0,-0.13333333,0,193.77333)" />
      <path
         id="path42"
         d="m 223.059,1263.6 v 0 0 c -0.024,0.03 -0.043,0.04 -0.067,0.07 l -2.031,2.22 1.769,1.73 c 0.047,-0.04 0.098,-0.08 0.149,-0.12 v 0 l 0.019,-0.02 0.016,-0.02 c 0.059,-0.04 0.848,-0.92 1.961,-2.14 l 0.027,-0.03 -1.843,-1.69"
         style="fill:url(#linearGradient45);fill-opacity:1;fill-rule:nonzero;stroke:none"
         transform="matrix(0.13333333,0,0,-0.13333333,0,193.77333)"
         clip-path="url(#clipPath45)" />
      <path
         id="path46"
         d="m 224.902,1265.29 -0.027,0.03 c -1.113,1.22 -1.902,2.1 -1.961,2.14 l -0.016,0.02 -0.019,0.02 v 0 c -0.051,0.04 -0.102,0.08 -0.149,0.12 l 3.594,3.51 0.09,-0.09 c 0.449,-0.45 1.051,-1.15 2.18,-2.38 l -1.848,-1.69 1.848,1.69 v 0 l -3.692,-3.37 m 1.844,1.68 1.848,1.69 v 0 0 l -1.848,-1.69"
         style="fill:#231f20;fill-opacity:1;fill-rule:nonzero;stroke:none"
         transform="matrix(0.13333333,0,0,-0.13333333,0,193.77333)" />
      <path
         id="path47"
         d="m 77.207,1082.27 1.6211,4.74 -2.3867,1.31 -3.1875,-3.85 -2.4297,-4.37 3.9531,-2.2 2.4297,4.37 1.6211,4.74 -1.6211,-4.74 2.4297,4.37 -3.957,2.2 -5.6172,-8.21 c 1.6406,-1.36 3.5156,-2.4 5.5234,-3.08 l 4.0508,9.09 -2.4297,-4.37"
         style="fill:#231f20;fill-opacity:1;fill-rule:nonzero;stroke:none"
         transform="matrix(0.13333333,0,0,-0.13333333,0,193.77333)" />
      <path
         id="path48"
         d="m 178.762,1152.49 1.933,-1.58 c 16.086,19.66 29.051,39.52 38.024,57.38 8.965,17.88 13.996,33.69 14.019,45.68 0.008,7.32 -1.949,13.49 -6.625,17.33 l 0.012,-0.01 -0.012,0.01 c -3.175,2.61 -7.254,3.77 -11.738,3.76 -11.738,-0.07 -26.98,-7.45 -44.008,-20.01 -16.988,-12.6 -35.613,-30.53 -53.269,-52.1 -16.094,-19.66 -29.0589,-39.52 -38.0316,-57.38 -8.9609,-17.88 -13.9922,-33.69 -14.0195,-45.68 -0.0078,-7.32 1.9492,-13.49 6.6211,-17.33 l -0.0391,0.03 0.0391,-0.04 c 3.1797,-2.6 7.2578,-3.76 11.7422,-3.75 11.7421,0.07 26.9848,7.45 44.0158,20.01 16.988,12.6 35.609,30.52 53.269,52.1 l -1.933,1.58 -1.938,1.58 c -17.418,-21.29 -35.801,-38.96 -52.379,-51.25 -16.539,-12.31 -31.4333,-19.09 -41.0348,-19.02 -3.6719,0 -6.461,0.91 -8.5743,2.63 l 0.0391,-0.04 -0.0391,0.04 c -3.0664,2.49 -4.7773,6.93 -4.789,13.46 -0.0235,10.59 4.6992,25.99 13.4883,43.43 8.7734,17.47 21.5508,37.06 37.4338,56.46 17.418,21.29 35.797,38.96 52.375,51.25 16.539,12.31 31.433,19.1 41.031,19.03 3.672,-0.01 6.461,-0.91 8.574,-2.63 v 0 c 3.067,-2.5 4.781,-6.93 4.789,-13.46 0.028,-10.6 -4.699,-25.99 -13.484,-43.44 -8.774,-17.46 -21.551,-37.05 -37.43,-56.46 l 1.938,-1.58"
         style="fill:#231f20;fill-opacity:1;fill-rule:nonzero;stroke:none"
         transform="matrix(0.13333333,0,0,-0.13333333,0,193.77333)" />
      <path
         id="path49"
         d="m 1109.36,72.6914 1.48,-2.0117 c 13.91,10.2422 25.4,21.5117 33.47,32.2693 8.05,10.781 12.81,20.973 12.86,29.59 0,3.68 -0.94,7.133 -3.02,9.949 -3.7,5 -10.06,7.071 -17.53,7.063 -16.66,-0.063 -40.59,-9.903 -63.92,-27.012 -13.91,-10.23 -25.4,-21.5 -33.47,-32.2577 -8.05,-10.7813 -12.81,-20.9727 -12.86,-29.5899 0,-3.6797 0.94,-7.1406 3.02,-9.9609 3.7,-5 10.06,-7.0703 17.53,-7.0586 16.66,0.0586 40.58,9.8984 63.92,27.0078 l -1.48,2.0117 -1.49,2.0195 c -22.65,-16.7226 -46.2,-26.0898 -60.95,-26.039 -6.66,0.0078 -11.18,1.8281 -13.5,5.0273 -1.35,1.8399 -2.04,4.1211 -2.05,6.9922 -0.04,6.6992 4.12,16.3281 11.86,26.5899 7.71,10.2773 18.88,21.2697 32.43,31.2307 22.66,16.718 46.21,26.097 60.96,26.039 6.66,-0.012 11.18,-1.832 13.5,-5.031 1.35,-1.829 2.04,-4.11 2.05,-6.981 0.04,-6.699 -4.12,-16.328 -11.86,-26.59 -7.71,-10.2888 -18.88,-21.2693 -32.44,-31.2381 l 1.49,-2.0195"
         style="fill:#231f20;fill-opacity:1;fill-rule:nonzero;stroke:none"
         transform="matrix(0.13333333,0,0,-0.13333333,0,193.77333)" />
      <g
         id="g49"
         aria-label="η&#10;o"
         transform="matrix(1.3333333,0,0,1.3333333,5.20052,108.18787)">
        <path
           id="path50"
           d="m 1.6630866,-2.2151188 0.1875,-0.8320312 c 0.1757812,-0.6914063 0.140625,-0.9960938 -0.070312,-0.9960938 -0.2460938,0 -0.79687504,0.3398438 -1.28906254,0.8671875 l 0.140625,0.1992188 c 0.22265625,-0.2226563 0.50390624,-0.4101563 0.58593754,-0.4101563 0.046875,0 0.070312,0.082031 0,0.375 -0.2109375,0.984375 -0.46875004,2.0742188 -0.71484379,3.04687505 l 0.0585938,0.0703125 C 0.72558656,0.0466 0.97168031,-0.0237125 1.2060553,-0.0705875 1.3115241,-0.60965 1.4521491,-1.1838688 1.5576178,-1.5823063 2.1552741,-2.5080875 3.1279303,-3.469025 3.4677741,-3.469025 c 0.1171875,0 0.1523437,0.1171875 0.023437,0.6914062 -0.1757813,0.7382813 -0.3398438,1.4648438 -0.515625,2.2148438 -0.2929688,1.3125 -0.4804688,2.1679687 -0.4570313,2.34375 0.058594,0.2226562 0.375,0.5273437 0.6210938,0.5273437 L 3.1982428,2.1911312 C 3.1630866,2.0270687 3.1865241,1.6520687 3.3623053,0.76144375 c 0.2226563,-1.125 0.4570313,-2.25000005 0.7734375,-3.55078125 0.2578125,-1.1132813 0.058594,-1.2539063 -0.140625,-1.2539063 -0.1523437,0 -0.375,0.070312 -0.5976562,0.1992188 -0.3984375,0.2460937 -1.0546875,0.7382812 -1.7109375,1.6289062 z m 0,0"
           style="fill:#231f20;fill-opacity:1;fill-rule:nonzero;stroke:none" />
        <path
           id="path51"
           d="m 6.1162116,-0.69461094 c -0.5507813,0 -1.3125,0.45703125 -1.3125,1.44140625 0,0.66796879 0.4921875,1.32421879 1.3125,1.32421879 0.5976562,0 1.3007812,-0.4570313 1.3007812,-1.42968754 0,-0.73828125 -0.5507812,-1.3359375 -1.3007812,-1.3359375 z m -0.058594,0.19921875 c 0.515625,0 0.8085938,0.57421875 0.8085938,1.27734375 0,0.82031254 -0.3164063,1.08984374 -0.6796875,1.08984374 -0.4921875,0 -0.8203125,-0.5625 -0.8203125,-1.31249999 0,-0.6796875 0.3164062,-1.0546875 0.6914062,-1.0546875 z m 0,0"
           style="fill:#231f20;fill-opacity:1;fill-rule:nonzero;stroke:none" />
      </g>
    </g>
  </g>
</svg>
