<?xml version="1.0" encoding="UTF-8" standalone="no"?>
<!-- Created with Inkscape (http://www.inkscape.org/) -->

<svg
   version="1.1"
   id="svg1"
   width="383.84"
   height="150.16"
   viewBox="0 0 383.84 150.16"
   sodipodi:docname="pha14f21.eps"
   xmlns:inkscape="http://www.inkscape.org/namespaces/inkscape"
   xmlns:sodipodi="http://sodipodi.sourceforge.net/DTD/sodipodi-0.dtd"
   xmlns="http://www.w3.org/2000/svg"
   xmlns:svg="http://www.w3.org/2000/svg">
  <defs
     id="defs1" />
  <sodipodi:namedview
     id="namedview1"
     pagecolor="#ffffff"
     bordercolor="#000000"
     borderopacity="0.25"
     inkscape:showpageshadow="2"
     inkscape:pageopacity="0.0"
     inkscape:pagecheckerboard="0"
     inkscape:deskcolor="#d1d1d1">
    <inkscape:page
       x="0"
       y="0"
       inkscape:label="1"
       id="page1"
       width="383.84"
       height="150.16"
       margin="0"
       bleed="0" />
  </sodipodi:namedview>
  <g
     id="g1"
     inkscape:groupmode="layer"
     inkscape:label="1">
    <g
       id="group-R5">
      <path
         id="path2"
         d="M 786.133,157.824 H 0 v 651.453 h 298.133 c 4.269,-1.562 9.312,-2.984 15.226,-4.23 h 51.289 c 0,0 8.145,0.996 20.797,4.23 H 786.133 V 157.824"
         style="fill:#f2f1f1;fill-opacity:1;fill-rule:nonzero;stroke:none"
         transform="matrix(0.13333333,0,0,-0.13333333,0,150.16)" />
      <path
         id="path3"
         d="m 2877.89,157.824 h -878.9 c 10.07,4.934 29.58,16.953 43.22,40.832 31.85,55.801 84.37,94.106 68.59,122.446 -1.59,2.855 -3.89,4.128 -6.73,4.128 -21.31,0 -73.39,-71.578 -89.52,-88.398 -15.64,-16.336 -53.81,-14.469 -72.46,-24.129 -16.18,-8.379 -43.66,-40.121 -12.38,-54.879 h -844.1 V 809.281 H 2877.89 V 157.824 m -662.85,648.637 c 0,0 -46.08,-6.805 -82.99,-43.414 -36.93,-36.613 -38.26,-69.512 -14.1,-84.973 3.84,-2.453 8.51,-3.508 13.73,-3.508 27.66,0 70.39,29.61 82.6,37.258 14.8,9.258 34.16,31.172 47.75,40.129 12.62,8.301 44.32,41.488 -6.72,54.508 h -40.27 m -569.45,0 c -52.46,-12.516 -19.86,-44.422 -6.89,-52.395 13.96,-8.601 33.88,-29.671 49.08,-38.562 12.56,-7.352 56.51,-35.805 84.94,-35.809 5.37,0 10.17,1.012 14.12,3.371 24.86,14.86 23.49,46.473 -14.5,81.668 -37.96,35.188 -85.32,41.727 -85.32,41.727 h -41.43"
         style="fill:#f2f1f1;fill-opacity:1;fill-rule:nonzero;stroke:none"
         transform="matrix(0.13333333,0,0,-0.13333333,0,150.16)" />
      <path
         id="path4"
         d="m 385.445,809.277 h -87.312 c -42.582,15.582 -7.91,45.106 6.68,53.036 17.304,9.406 41.953,32.429 60.785,42.156 15.558,8.035 69.961,39.136 105.16,39.136 6.637,0 12.59,-1.109 17.472,-3.683 30.77,-16.234 29.075,-50.801 -17.937,-89.27 -29.492,-24.125 -63.555,-35.929 -84.848,-41.375"
         style="fill:#e5e4e4;fill-opacity:1;fill-rule:nonzero;stroke:none"
         transform="matrix(0.13333333,0,0,-0.13333333,0,150.16)" />
      <path
         id="path5"
         d="m 364.648,805.047 h -51.289 c -5.914,1.246 -10.957,2.668 -15.226,4.23 h 87.312 c -12.652,-3.234 -20.797,-4.23 -20.797,-4.23"
         style="fill:#dedddd;fill-opacity:1;fill-rule:nonzero;stroke:none"
         transform="matrix(0.13333333,0,0,-0.13333333,0,150.16)" />
      <path
         id="path6"
         d="m 313.359,805.047 0.516,2.445 c -13.227,2.778 -21.84,6.453 -26.945,10.336 -5.102,3.926 -6.754,7.75 -6.793,11.723 -0.059,5.644 3.929,12.191 9.363,17.812 5.387,5.625 12.055,10.34 16.508,12.754 17.773,9.707 42.398,32.699 60.734,42.129 7.856,4.059 25.25,13.785 45.078,22.516 19.789,8.734 42.043,16.371 58.934,16.343 6.367,0 11.918,-1.074 16.312,-3.394 12.844,-6.852 19.286,-16.445 19.332,-28.305 0.067,-15.359 -11.441,-35.383 -37.687,-56.816 -23.168,-18.961 -49.301,-30.254 -69.633,-36.781 -10.168,-3.266 -18.879,-5.34 -25.031,-6.594 -3.078,-0.629 -5.52,-1.051 -7.18,-1.317 -1.664,-0.265 -2.519,-0.367 -2.519,-0.367 l 0.3,-2.484 v 2.5 h -51.289 v -2.5 l 0.516,2.445 -0.516,-2.445 v -2.5 h 51.442 l 0.148,0.019 c 0.223,0.051 59.223,7.172 106.926,46.153 26.762,21.937 39.457,42.808 39.523,60.687 0.043,13.867 -8.003,25.41 -22,32.727 -5.371,2.828 -11.73,3.969 -18.644,3.972 -18.305,-0.031 -40.852,-7.945 -60.949,-16.769 -20.063,-8.832 -37.649,-18.668 -45.356,-22.648 -19.32,-10.024 -43.992,-33.079 -60.828,-42.176 -4.957,-2.703 -11.879,-7.598 -17.73,-13.688 -5.797,-6.094 -10.696,-13.371 -10.754,-21.273 -0.035,-5.586 2.734,-11.184 8.773,-15.707 6.039,-4.563 15.285,-8.36 28.934,-11.242 l 0.254,-0.055 h 0.261 v 2.5"
         style="fill:#231f20;fill-opacity:1;fill-rule:nonzero;stroke:none"
         transform="matrix(0.13333333,0,0,-0.13333333,0,150.16)" />
      <path
         id="path7"
         d="M 348.73,807.715 60.5156,1093.06 55.2383,1087.73 343.453,802.383"
         style="fill:#231f20;fill-opacity:1;fill-rule:nonzero;stroke:none"
         transform="matrix(0.13333333,0,0,-0.13333333,0,150.16)" />
      <path
         id="path8"
         d="m 65.5273,1082.82 -5.8632,-24.62 -0.8711,0.18 -15.1992,34.75 c -6.8243,10.56 -13.6524,21.12 -20.4805,31.68 10.6328,-6.72 21.2578,-13.44 31.8867,-20.16 l 34.9023,-14.85 0.2618,-0.78 -24.6368,-6.2"
         style="fill:#231f20;fill-opacity:1;fill-rule:nonzero;stroke:none"
         transform="matrix(0.13333333,0,0,-0.13333333,0,150.16)" />
      <path
         id="path9"
         d="m 348.246,801.977 332.231,232.623 -4.301,6.15 -332.235,-232.629"
         style="fill:#231f20;fill-opacity:1;fill-rule:nonzero;stroke:none"
         transform="matrix(0.13333333,0,0,-0.13333333,0,150.16)" />
      <path
         id="path10"
         d="m 669.504,1031.5 -23.172,10.16 0.324,0.83 36.907,8.75 c 11.609,4.83 23.218,9.66 34.832,14.49 -8.512,-9.26 -17.024,-18.52 -25.536,-27.77 l -20.843,-31.69 -0.817,-0.12 -1.695,25.35"
         style="fill:#231f20;fill-opacity:1;fill-rule:nonzero;stroke:none"
         transform="matrix(0.13333333,0,0,-0.13333333,0,150.16)" />
      <path
         id="path11"
         d="m 0,803.953 h 786.133 v 5 H 0 Z"
         style="fill:#231f20;fill-opacity:1;fill-rule:nonzero;stroke:none"
         transform="matrix(0.13333333,0,0,-0.13333333,0,150.16)" />
      <path
         id="path12"
         d="M 0.402344,152.504 H 786.53134 v 5 H 0.402344 Z"
         style="fill:#231f20;fill-opacity:1;fill-rule:nonzero;stroke:none"
         transform="matrix(0.13333333,0,0,-0.13333333,0,150.16)" />
      <path
         id="path13"
         d="m 2131.68,674.566 c -5.22,0 -9.89,1.055 -13.73,3.508 -24.16,15.461 -22.83,48.36 14.1,84.973 36.91,36.609 82.99,43.414 82.99,43.414 h 40.27 c 51.04,-13.02 19.34,-46.207 6.72,-54.508 -13.59,-8.957 -32.95,-30.871 -47.75,-40.129 -12.21,-7.648 -54.94,-37.258 -82.6,-37.258"
         style="fill:#dedddd;fill-opacity:1;fill-rule:nonzero;stroke:none"
         transform="matrix(0.13333333,0,0,-0.13333333,0,150.16)" />
      <path
         id="path14"
         d="m 2255.31,806.461 -0.62,-2.426 c 10.32,-2.621 16.96,-6.066 20.88,-9.687 3.92,-3.641 5.28,-7.309 5.31,-11.215 0.03,-5.528 -3.12,-11.723 -7.36,-17.051 -4.21,-5.324 -9.42,-9.785 -12.86,-12.039 -7.1,-4.691 -15.35,-12.453 -23.75,-20.203 -8.37,-7.746 -16.87,-15.473 -23.96,-19.895 -6.18,-3.875 -19.82,-13.121 -35.35,-21.41 -15.5,-8.301 -32.95,-15.512 -45.92,-15.465 -4.89,0 -9.06,0.985 -12.38,3.114 -9.91,6.39 -15.04,15.488 -15.08,26.937 -0.03,14.793 9.03,33.789 29.59,54.149 18.14,17.996 38.58,28.695 54.48,34.882 7.95,3.094 14.77,5.059 19.57,6.246 2.41,0.594 4.31,0.993 5.6,1.243 1.29,0.25 1.94,0.343 1.94,0.343 l -0.36,2.477 v -2.5 h 40.27 v 2.5 l -0.62,-2.426 0.62,2.426 v 2.5 h -40.45 l -0.19,-0.027 c -0.25,-0.059 -46.8,-6.887 -84.38,-44.114 -21.08,-20.922 -31.03,-40.851 -31.07,-57.699 -0.04,-13.031 6.21,-24.058 17.38,-31.152 4.35,-2.781 9.54,-3.903 15.08,-3.899 14.69,0.043 32.43,7.637 48.27,16.051 15.79,8.43 29.63,17.813 35.65,21.586 7.72,4.836 16.3,12.695 24.71,20.461 8.38,7.758 16.6,15.43 23.1,19.695 3.95,2.614 9.41,7.293 14.03,13.117 4.58,5.821 8.41,12.782 8.44,20.153 0.03,5.191 -2.09,10.496 -6.92,14.898 -4.83,4.422 -12.22,8.09 -23.03,10.852 l -0.3,0.078 h -0.32 v -2.5"
         style="fill:#231f20;fill-opacity:1;fill-rule:nonzero;stroke:none"
         transform="matrix(0.13333333,0,0,-0.13333333,0,150.16)" />
      <path
         id="path15"
         d="m 1992.4,155.004 h -55.27 c -2.77,0.848 -5.24,1.793 -7.42,2.82 h 69.28 c -4.06,-1.984 -6.59,-2.82 -6.59,-2.82"
         style="fill:#e5e4e4;fill-opacity:1;fill-rule:nonzero;stroke:none"
         transform="matrix(0.13333333,0,0,-0.13333333,0,150.16)" />
      <path
         id="path16"
         d="m 1998.99,157.824 h -69.28 c -31.28,14.758 -3.8,46.5 12.38,54.879 18.65,9.66 56.82,7.793 72.46,24.129 16.13,16.82 68.21,88.398 89.52,88.398 2.84,0 5.14,-1.273 6.73,-4.128 15.78,-28.34 -36.74,-66.645 -68.59,-122.446 -13.64,-23.879 -33.15,-35.898 -43.22,-40.832"
         style="fill:#dedddd;fill-opacity:1;fill-rule:nonzero;stroke:none"
         transform="matrix(0.13333333,0,0,-0.13333333,0,150.16)" />
      <path
         id="path17"
         d="m 1937.13,155.004 0.73,2.391 c -7.71,2.359 -12.72,5.433 -15.74,8.714 -3.01,3.289 -4.18,6.758 -4.2,10.543 -0.03,6.278 3.6,13.512 8.72,19.754 5.08,6.242 11.59,11.5 16.6,14.078 8.66,4.532 22.79,6.555 36.7,9.329 13.91,2.839 27.79,6.382 36.42,15.289 8.27,8.636 25.23,30.64 42.88,50.582 8.81,9.953 17.77,19.363 25.75,26.203 7.92,6.89 15.11,10.972 19.08,10.843 2.08,-0.082 3.23,-0.652 4.55,-2.843 1.77,-3.203 2.57,-6.461 2.57,-9.973 0.13,-12.168 -10.36,-27.707 -24.77,-45.945 -14.34,-18.281 -32.31,-39.426 -46.38,-64.074 -9.33,-16.336 -21.48,-26.985 -31.3,-33.547 -4.9,-3.282 -9.22,-5.535 -12.3,-6.965 -1.54,-0.715 -2.76,-1.223 -3.59,-1.547 l -1.23,-0.457 0.78,-2.375 v 2.5 h -55.27 v -2.5 l 0.73,2.391 -0.73,-2.391 v -2.5 h 55.68 l 0.38,0.129 c 0.28,0.105 31.56,10.457 51.19,44.785 13.77,24.133 31.54,45.078 45.98,63.465 14.37,18.43 25.7,34.129 25.83,49.031 0.01,4.285 -1.01,8.477 -3.21,12.406 -1.86,3.512 -5.3,5.493 -8.91,5.41 -6.69,-0.128 -14,-4.992 -22.34,-12.046 -12.41,-10.657 -26.62,-26.797 -39.3,-41.883 -12.65,-15.063 -23.81,-29.121 -29.68,-35.238 -7.03,-7.43 -20.05,-11.122 -33.8,-13.848 -13.74,-2.789 -28.02,-4.66 -38.01,-9.789 -5.8,-3.024 -12.63,-8.582 -18.17,-15.36 -5.51,-6.777 -9.81,-14.769 -9.85,-22.914 -0.01,-4.882 1.68,-9.793 5.53,-13.933 3.83,-4.153 9.68,-7.571 17.95,-10.106 l 0.35,-0.109 h 0.38 v 2.5"
         style="fill:#231f20;fill-opacity:1;fill-rule:nonzero;stroke:none"
         transform="matrix(0.13333333,0,0,-0.13333333,0,150.16)" />
      <path
         id="path18"
         d="m 1772.72,679.695 c -28.43,0.004 -72.38,28.457 -84.94,35.809 -15.2,8.891 -35.12,29.961 -49.08,38.562 -12.97,7.973 -45.57,39.879 6.89,52.395 h 41.43 c 0,0 47.36,-6.539 85.32,-41.727 37.99,-35.195 39.36,-66.808 14.5,-81.668 -3.95,-2.359 -8.75,-3.371 -14.12,-3.371"
         style="fill:#dedddd;fill-opacity:1;fill-rule:nonzero;stroke:none"
         transform="matrix(0.13333333,0,0,-0.13333333,0,150.16)" />
      <path
         id="path19"
         d="m 1645.59,806.461 -0.58,2.43 c -11.09,-2.653 -18.65,-6.161 -23.61,-10.407 -4.97,-4.218 -7.19,-9.375 -7.16,-14.445 0.04,-7.187 4,-13.894 8.72,-19.496 4.75,-5.605 10.37,-10.102 14.43,-12.605 6.68,-4.106 15.13,-11.481 23.75,-18.938 8.65,-7.465 17.47,-15.016 25.38,-19.656 6.2,-3.629 20.43,-12.645 36.67,-20.739 16.27,-8.085 34.51,-15.371 49.53,-15.41 5.67,0 10.95,1.067 15.4,3.727 11.46,6.789 17.96,17.437 17.92,30.062 -0.05,16.309 -10.32,35.473 -32,55.586 -38.65,35.766 -86.44,42.309 -86.68,42.368 l -0.17,0.023 h -41.89 l -0.29,-0.07 0.58,-2.43 v -2.5 h 41.43 v 2.5 l -0.35,-2.477 c 0.01,-0.004 0.68,-0.093 2.01,-0.336 9.34,-1.671 49.33,-10.472 81.96,-40.746 21.16,-19.57 30.44,-37.816 30.4,-51.918 -0.05,-10.906 -5.26,-19.597 -15.49,-25.773 -3.43,-2.059 -7.77,-3.016 -12.83,-3.016 -13.41,-0.039 -31.36,6.907 -47.3,14.883 -15.99,7.973 -30.02,16.863 -36.38,20.582 -7.28,4.254 -16.02,11.68 -24.63,19.125 -8.63,7.449 -17.12,14.914 -24.4,19.41 -3.55,2.172 -8.91,6.461 -13.23,11.578 -4.37,5.118 -7.58,11.059 -7.54,16.266 0.03,3.68 1.38,7.141 5.42,10.652 4.04,3.485 10.89,6.813 21.51,9.336 l -0.58,2.434 v -2.5 2.5"
         style="fill:#231f20;fill-opacity:1;fill-rule:nonzero;stroke:none"
         transform="matrix(0.13333333,0,0,-0.13333333,0,150.16)" />
      <path
         id="path20"
         d="m 1768.28,603.898 -91.55,204.094 -6.85,-3.066 91.56,-204.098"
         style="fill:#231f20;fill-opacity:1;fill-rule:nonzero;stroke:none"
         transform="matrix(0.13333333,0,0,-0.13333333,0,150.16)" />
      <path
         id="path21"
         d="m 1760.46,612.188 -25.11,3.148 -0.14,-0.875 27.19,-26.43 c 7.5,-10.097 14.99,-20.199 22.48,-30.297 -2.56,12.309 -5.12,24.625 -7.68,36.934 l -1.65,37.895 -0.65,0.523 -14.44,-20.898"
         style="fill:#231f20;fill-opacity:1;fill-rule:nonzero;stroke:none"
         transform="matrix(0.13333333,0,0,-0.13333333,0,150.16)" />
      <path
         id="path22"
         d="m 1866.19,385.605 -77.89,173.665 -6.84,-3.071 77.89,-173.664"
         style="fill:#231f20;fill-opacity:1;fill-rule:nonzero;stroke:none"
         transform="matrix(0.13333333,0,0,-0.13333333,0,150.16)" />
      <path
         id="path23"
         d="m 1970.96,152.051 -84.75,188.926 -6.84,-3.071 84.75,-188.926"
         style="fill:#231f20;fill-opacity:1;fill-rule:nonzero;stroke:none"
         transform="matrix(0.13333333,0,0,-0.13333333,0,150.16)" />
      <path
         id="path24"
         d="m 1887.2,329.613 -14.34,-20.843 -0.75,0.472 -1.65,37.895 c -2.57,12.312 -5.13,24.621 -7.69,36.933 7.49,-10.101 14.98,-20.199 22.48,-30.297 l 27.2,-26.433 -0.04,-0.82 -25.21,3.093"
         style="fill:#231f20;fill-opacity:1;fill-rule:nonzero;stroke:none"
         transform="matrix(0.13333333,0,0,-0.13333333,0,150.16)" />
      <path
         id="path25"
         d="m 2037.52,335.965 -73.46,-184.059 6.96,-2.777 73.47,184.055"
         style="fill:#231f20;fill-opacity:1;fill-rule:nonzero;stroke:none"
         transform="matrix(0.13333333,0,0,-0.13333333,0,150.16)" />
      <path
         id="path26"
         d="m 2037.01,324.574 15.21,-20.222 0.73,0.5 0.06,37.929 c 2.05,12.41 4.09,24.817 6.13,37.223 -7.06,-10.406 -14.12,-20.809 -21.19,-31.211 l -26.07,-27.551 0.07,-0.824 25.06,4.156"
         style="fill:#231f20;fill-opacity:1;fill-rule:nonzero;stroke:none"
         transform="matrix(0.13333333,0,0,-0.13333333,0,150.16)" />
      <path
         id="path27"
         d="m 2126.22,558.176 -70.56,-176.781 6.96,-2.782 70.57,176.782"
         style="fill:#231f20;fill-opacity:1;fill-rule:nonzero;stroke:none"
         transform="matrix(0.13333333,0,0,-0.13333333,0,150.16)" />
      <path
         id="path28"
         d="m 2225.89,807.852 -81.53,-204.247 6.96,-2.781 81.54,204.246"
         style="fill:#231f20;fill-opacity:1;fill-rule:nonzero;stroke:none"
         transform="matrix(0.13333333,0,0,-0.13333333,0,150.16)" />
      <path
         id="path29"
         d="m 2151.84,612.215 24.95,4.199 0.17,-0.867 -26.06,-27.551 c -7.06,-10.402 -14.13,-20.805 -21.19,-31.211 2.04,12.41 4.09,24.817 6.13,37.223 l 0.07,37.93 0.61,0.55 15.32,-20.273"
         style="fill:#231f20;fill-opacity:1;fill-rule:nonzero;stroke:none"
         transform="matrix(0.13333333,0,0,-0.13333333,0,150.16)" />
      <path
         id="path30"
         d="m 1675.94,809.125 -288.21,285.345 -5.28,-5.33 288.22,-285.347"
         style="fill:#231f20;fill-opacity:1;fill-rule:nonzero;stroke:none"
         transform="matrix(0.13333333,0,0,-0.13333333,0,150.16)" />
      <path
         id="path31"
         d="m 1392.74,1084.23 -5.86,-24.62 -0.87,0.18 -15.2,34.75 c -6.83,10.56 -13.65,21.12 -20.48,31.68 10.63,-6.72 21.26,-13.44 31.89,-20.16 l 34.9,-14.85 0.26,-0.78 -24.64,-6.2"
         style="fill:#231f20;fill-opacity:1;fill-rule:nonzero;stroke:none"
         transform="matrix(0.13333333,0,0,-0.13333333,0,150.16)" />
      <path
         id="path32"
         d="m 2231.55,803.445 326.06,241.205 -4.46,6.03 -326.06,-241.207"
         style="fill:#231f20;fill-opacity:1;fill-rule:nonzero;stroke:none"
         transform="matrix(0.13333333,0,0,-0.13333333,0,150.16)" />
      <path
         id="path33"
         d="m 2546.73,1041.27 -23.43,9.55 0.3,0.84 36.66,9.7 c 11.49,5.13 22.96,10.27 34.45,15.4 -8.27,-9.48 -16.54,-18.95 -24.8,-28.43 l -20.02,-32.22 -0.81,-0.15 -2.35,25.31"
         style="fill:#231f20;fill-opacity:1;fill-rule:nonzero;stroke:none"
         transform="matrix(0.13333333,0,0,-0.13333333,0,150.16)" />
      <path
         id="path34"
         d="m 1085.61,803.961 h 1792.28 v 5 H 1085.61 Z"
         style="fill:#231f20;fill-opacity:1;fill-rule:nonzero;stroke:none"
         transform="matrix(0.13333333,0,0,-0.13333333,0,150.16)" />
      <path
         id="path35"
         d="m 1086.53,152.504 h 1792.28 v 5 H 1086.53 Z"
         style="fill:#231f20;fill-opacity:1;fill-rule:nonzero;stroke:none"
         transform="matrix(0.13333333,0,0,-0.13333333,0,150.16)" />
      <g
         id="g35"
         aria-label="p&#10;r&#10;+&#10;(ω&#10;o&#10;, ω&#10;i&#10;)&#10;(a)(b)&#10;p&#10;t&#10;+&#10;(ω&#10;o&#10;, ω′)&#10;p&#10;r&#10;–&#10;(–ω′, ω″)&#10;p&#10;t&#10;+&#10;(–ω″, ω&#10;i&#10;)&#10;ω&#10;o&#10;ω′&#10;ω″&#10;ω&#10;i"
         transform="matrix(1.3333333,0,0,1.3333333,28.492667,15.617333)">
        <path
           id="path36"
           d="m 2.1558906,-4.6290156 -0.09375,-0.046875 c -0.2109375,0.1171875 -0.4921875,0.328125 -0.65625,0.5273437 l -0.1054687,0.4101563 c -0.2929688,0.1054687 -0.62109377,0.2695312 -0.85546877,0.4453125 l 0.0585938,0.2226562 c 0.2109375,-0.1054687 0.4453125,-0.234375 0.72656247,-0.328125 -0.32812497,1.5585938 -0.66796872,3.14062503 -1.00781247,4.7109375 -0.12890625,0.5625 -0.222656255,0.6328125 -0.78515625,0.7382813 L -0.59801562,2.2850469 1.4762031,2.1795781 1.4996406,1.9452031 1.2887031,1.9217656 C 0.84339063,1.8866094 0.79651563,1.8045781 0.90198438,1.2889531 L 1.1480781,0.02332813 c 0.1757813,0.0703125 0.3867188,0.08203125 0.5390625,0.08203125 0.5742188,-0.140625 1.21875,-0.5390625 1.6640625,-1.04296875 0.515625,-0.58593753 0.7734375,-1.26562503 0.7734375,-1.86328123 0,-0.796875 -0.375,-1.2421875 -1.3007812,-1.2421875 -0.2460938,0 -0.5859375,0.035156 -0.8320313,0.1054687 z m -0.2460937,1.0429687 c 0.1640625,-0.046875 0.3632812,-0.070312 0.515625,-0.070312 0.515625,0 0.9375,0.1992188 0.9375,0.9960938 0,1.1601562 -0.8671875,2.36718748 -1.5117188,2.36718748 -0.2109375,0 -0.4570312,-0.1640625 -0.5507812,-0.3046875 z m 0,0"
           style="fill:#231f20;fill-opacity:1;fill-rule:nonzero;stroke:none" />
        <path
           id="path37"
           d="m 6.0025703,-1.0811641 v -0.984375 c -0.4335937,0.1875 -0.8320312,0.2929688 -1.265625,0.3632813 v 0.1992187 c 0.5039063,0.070312 0.5507813,0.1054688 0.5507813,0.70312504 V 1.0633672 c 0,0.5976562 -0.058594,0.6445312 -0.6210938,0.703125 v 0.234375 H 6.7408516 V 1.7664922 C 6.0494453,1.7078984 6.0025703,1.6610234 6.0025703,1.0633672 V -0.57725781 C 6.2017891,-1.0811641 6.4830391,-1.3506953 6.7174141,-1.3506953 c 0.1523437,0 0.2578125,0.046875 0.3867187,0.1875 0.046875,0.046875 0.1289063,0.058594 0.234375,0.011719 0.1757813,-0.082031 0.2929688,-0.2578125 0.2929688,-0.4335937 0,-0.2226563 -0.2109375,-0.4570313 -0.5273438,-0.4570313 -0.421875,0 -0.8085937,0.5039063 -1.078125,0.9609375 z m 4.7548827,-3.993164 V -5.5079219 H 8.8824531 v -1.875 H 8.3551094 v 1.875 H 6.4683906 v 0.4335938 h 1.8867188 v 2.0742187 h 0.5273437 v -2.0742187 z m 1.417969,6.3984375 c -0.890625,-0.76171877 -1.40625,-2.20312502 -1.40625,-3.75 0,-1.546875 0.515625,-3 1.40625,-3.75 l -0.152344,-0.2109375 c -1.324219,0.9023437 -1.910156,2.3320312 -1.910156,3.9492187 0,1.62890628 0.585937,3.08203128 1.910156,3.9609375 z m 0,0"
           style="fill:#231f20;fill-opacity:1;fill-rule:nonzero;stroke:none" />
        <path
           id="path38"
           d="m 16.953742,-3.8438594 c 0.292969,0.2578125 0.503906,0.7148438 0.503906,1.3828125 -0.01172,1.0078125 -0.398437,2.05078128 -1.136718,2.05078128 -0.304688,0 -0.515625,-0.3046875 -0.492188,-0.87890628 0.02344,-0.46875 0.234375,-1.359375 0.351563,-1.7226562 l -0.05859,-0.035156 -0.667969,0.140625 c -0.03516,0.28125 -0.09375,0.75 -0.1875,1.1367188 -0.199219,0.85546873 -0.5625,1.31249998 -0.949219,1.31249998 -0.28125,0 -0.539062,-0.33984375 -0.539062,-0.99609378 0,-1.0078125 0.46875,-1.921875 1.160156,-2.4492187 l -0.140625,-0.1992188 c -1.042969,0.5390625 -1.757812,1.5585938 -1.757812,2.765625 0,0.93750003 0.421875,1.44140628 0.9375,1.44140628 0.386718,0 0.902343,-0.3984375 1.230468,-0.890625 0.04687,0.50390625 0.328125,0.890625 0.761719,0.890625 0.375,0 0.738281,-0.22265625 1.066406,-0.515625 0.5625,-0.52734375 0.996094,-1.30078128 0.996094,-2.21484378 0,-0.9023437 -0.398437,-1.4179687 -0.691406,-1.4179687 -0.152344,0 -0.316406,0.070312 -0.375,0.1289062 z m 0,0"
           style="fill:#231f20;fill-opacity:1;fill-rule:nonzero;stroke:none" />
        <path
           id="path39"
           d="m 20.645148,-2.0421016 c -0.820312,0 -1.980468,0.6796875 -1.980468,2.15625004 0,1.00781246 0.738281,1.99218746 1.980468,1.99218746 0.890625,0 1.945313,-0.6914062 1.945313,-2.14453121 0,-1.11328129 -0.832031,-2.00390629 -1.945313,-2.00390629 z m -0.09375,0.3046875 c 0.785157,0 1.207032,0.84375004 1.207032,1.89843754 0,1.24218746 -0.457032,1.65234376 -1.019532,1.65234376 -0.738281,0 -1.230468,-0.84375001 -1.230468,-1.98046876 0,-1.01953124 0.480468,-1.57031254 1.042968,-1.57031254 z m 1.6875,0.5771485 c -0.210937,0 -0.433593,0.140625 -0.433593,0.36328123 0,0.15234375 0.07031,0.22265625 0.117187,0.234375 0.304688,0.0703125 0.5625,0.26953125 0.5625,0.59765625 0,0.33984375 -0.257812,0.57421875 -0.691406,0.76171875 l 0.09375,0.25781247 c 0.550781,-0.16406247 1.183594,-0.55078122 1.183594,-1.24218747 0,-0.6328125 -0.503907,-0.97265623 -0.832032,-0.97265623 z m 0,0"
           style="fill:#231f20;fill-opacity:1;fill-rule:nonzero;stroke:none" />
        <path
           id="path40"
           d="m 29.850227,-3.8438594 c 0.292968,0.2578125 0.503906,0.7148438 0.503906,1.3828125 -0.01172,1.0078125 -0.398438,2.05078128 -1.136719,2.05078128 -0.304687,0 -0.515625,-0.3046875 -0.492187,-0.87890628 0.02344,-0.46875 0.234375,-1.359375 0.351562,-1.7226562 l -0.05859,-0.035156 -0.667968,0.140625 c -0.03516,0.28125 -0.09375,0.75 -0.1875,1.1367188 -0.199219,0.85546873 -0.5625,1.31249998 -0.949219,1.31249998 -0.28125,0 -0.539063,-0.33984375 -0.539063,-0.99609378 0,-1.0078125 0.46875,-1.921875 1.160157,-2.4492187 l -0.140625,-0.1992188 c -1.042969,0.5390625 -1.757813,1.5585938 -1.757813,2.765625 0,0.93750003 0.421875,1.44140628 0.9375,1.44140628 0.386719,0 0.902344,-0.3984375 1.230469,-0.890625 0.04687,0.50390625 0.328125,0.890625 0.761719,0.890625 0.375,0 0.738281,-0.22265625 1.066406,-0.515625 0.5625,-0.52734375 0.996094,-1.30078128 0.996094,-2.21484378 0,-0.9023437 -0.398438,-1.4179687 -0.691407,-1.4179687 -0.152343,0 -0.316406,0.070312 -0.375,0.1289062 z m 0,0"
           style="fill:#231f20;fill-opacity:1;fill-rule:nonzero;stroke:none" />
        <path
           id="path41"
           d="m 32.451789,-2.8272578 c 0.257813,0 0.457031,-0.2109375 0.457031,-0.4570313 0,-0.2695312 -0.199218,-0.46875 -0.457031,-0.46875 -0.234375,0 -0.457031,0.1992188 -0.457031,0.46875 0,0.2460938 0.222656,0.4570313 0.457031,0.4570313 z m 1.054688,4.828125 V 1.7664922 C 32.920539,1.7078984 32.861945,1.6610234 32.861945,1.0516484 v -3.1054687 c -0.398437,0.1523437 -0.820312,0.2695312 -1.277343,0.3515625 v 0.2109375 c 0.539062,0.09375 0.5625,0.1289062 0.5625,0.67968749 V 1.0516484 c 0,0.609375 -0.05859,0.65625 -0.621094,0.7148438 v 0.234375 z m -0.254883,-8.1767578 c 0.890625,0.7382812 1.417968,2.203125 1.417968,3.75 0,1.54687498 -0.503906,2.98828123 -1.417968,3.75 l 0.164062,0.1992187 c 1.347656,-0.91406247 1.898438,-2.33203122 1.898438,-3.9492187 0,-1.6289063 -0.550782,-3.0585938 -1.898438,-3.9609375 z M 15.582648,98.991102 c -0.890625,-0.761719 -1.40625,-2.203125 -1.40625,-3.75 0,-1.546875 0.515625,-3 1.40625,-3.75 l -0.152343,-0.210938 c -1.324219,0.902344 -1.910157,2.332031 -1.910157,3.949219 0,1.628906 0.585938,3.082031 1.910157,3.960937 z m 4.32129,-1.675782 -0.09375,-0.234375 c -0.09375,0.05859 -0.222657,0.105469 -0.328125,0.105469 -0.152344,0 -0.316407,-0.140625 -0.316407,-0.550781 V 94.97157 c 0,-0.46875 -0.08203,-0.84375 -0.398437,-1.101562 -0.199219,-0.164063 -0.46875,-0.246094 -0.738281,-0.246094 -0.515625,0.105469 -1.101563,0.457031 -1.347657,0.632813 -0.175781,0.128906 -0.292968,0.222656 -0.292968,0.363281 0,0.199219 0.234375,0.386719 0.398437,0.386719 0.128906,0 0.222656,-0.07031 0.257813,-0.210938 0.07031,-0.28125 0.152343,-0.480469 0.269531,-0.597656 0.09375,-0.105469 0.222656,-0.175781 0.410156,-0.175781 0.445313,0 0.75,0.363281 0.75,1.019531 v 0.164062 c -0.199219,0.152344 -0.855469,0.398438 -1.394531,0.574219 -0.492188,0.175781 -0.726563,0.457031 -0.726563,0.902344 0,0.5625 0.445313,1.089844 1.078125,1.089844 0.269532,0 0.703125,-0.328125 1.066407,-0.574219 0.04687,0.152344 0.09375,0.28125 0.210937,0.410156 0.105469,0.08203 0.292969,0.164063 0.421875,0.164063 z M 18.47425,96.905164 c -0.164062,0.164063 -0.480469,0.316406 -0.714844,0.328125 -0.28125,0 -0.644531,-0.222656 -0.644531,-0.691406 0,-0.328125 0.199219,-0.492188 0.550781,-0.65625 0.1875,-0.09375 0.621094,-0.28125 0.808594,-0.375 z m 1.889648,-5.414062 c 0.890625,0.738281 1.417969,2.203125 1.417969,3.75 0,1.546875 -0.503906,2.988281 -1.417969,3.75 l 0.164063,0.199218 c 1.347656,-0.914062 1.898437,-2.332031 1.898437,-3.949218 0,-1.628907 -0.550781,-3.058594 -1.898437,-3.960938 z m 153.407222,7.5 c -0.89062,-0.761719 -1.40625,-2.203125 -1.40625,-3.75 0,-1.546875 0.51563,-3 1.40625,-3.75 l -0.15234,-0.210938 c -1.32422,0.902344 -1.91016,2.332031 -1.91016,3.949219 0,1.628906 0.58594,3.082031 1.91016,3.960937 z m 1.79004,-4.957032 v -2.777343 c -0.33984,0.117187 -0.89062,0.257812 -1.3125,0.316406 v 0.210937 c 0.58594,0.04687 0.59766,0.105469 0.59766,0.667969 v 5.003906 c 0.49219,0.234375 0.94922,0.316407 1.32422,0.316407 1.20703,0 2.26172,-0.9375 2.26172,-2.261719 0,-1.054688 -0.8086,-1.886719 -1.78125,-1.886719 -0.0937,0 -0.22266,0.02344 -0.36328,0.09375 z m 0,0.269532 c 0.16407,-0.105469 0.44532,-0.175782 0.70313,-0.175782 0.73828,0 1.37109,0.597657 1.37109,1.617188 0,1.054687 -0.48047,1.6875 -1.21875,1.6875 -0.48047,-0.01172 -0.75,-0.328125 -0.80859,-0.503906 -0.0352,-0.08203 -0.0469,-0.175782 -0.0469,-0.304688 z m 3.60938,-2.8125 c 0.89062,0.738281 1.41797,2.203125 1.41797,3.75 0,1.546875 -0.50391,2.988281 -1.41797,3.75 l 0.16406,0.199218 c 1.34766,-0.914062 1.89844,-2.332031 1.89844,-3.949218 0,-1.628907 -0.55078,-3.058594 -1.89844,-3.960938 z m 0,0"
           style="fill:#231f20;fill-opacity:1;fill-rule:nonzero;stroke:none" />
        <path
           id="path42"
           d="m 105.54163,25.60243 -0.0937,-0.04687 c -0.21093,0.117187 -0.49218,0.328125 -0.65625,0.527343 l -0.10547,0.410157 c -0.29296,0.105468 -0.62109,0.269531 -0.85546,0.445312 l 0.0586,0.222656 c 0.21094,-0.105468 0.44531,-0.234375 0.72656,-0.328125 -0.32812,1.558594 -0.66797,3.140625 -1.00781,4.710938 -0.12891,0.5625 -0.22266,0.632812 -0.78516,0.738281 l -0.0352,0.234375 2.07422,-0.105469 0.0234,-0.234375 -0.21093,-0.02344 c -0.44532,-0.03516 -0.49219,-0.117188 -0.38672,-0.632813 l 0.24609,-1.265625 c 0.17578,0.07031 0.38672,0.08203 0.53906,0.08203 0.57422,-0.140625 1.21875,-0.539063 1.66407,-1.042969 0.51562,-0.585938 0.77343,-1.265625 0.77343,-1.863281 0,-0.796875 -0.375,-1.242188 -1.30078,-1.242188 -0.24609,0 -0.58594,0.03516 -0.83203,0.105469 z m -0.24609,1.042968 c 0.16406,-0.04687 0.36328,-0.07031 0.51562,-0.07031 0.51563,0 0.9375,0.199219 0.9375,0.996094 0,1.160156 -0.86718,2.367187 -1.51171,2.367187 -0.21094,0 -0.45704,-0.164062 -0.55079,-0.304687 z m 0,0"
           style="fill:#231f20;fill-opacity:1;fill-rule:nonzero;stroke:none" />
        <path
           id="path43"
           d="m 110.443,31.904188 -0.082,-0.234375 c -0.12891,0.07031 -0.32813,0.152343 -0.5625,0.152343 -0.22266,0 -0.51563,-0.128906 -0.51563,-0.855468 v -2.320313 h 0.96094 c 0.10547,-0.05859 0.12891,-0.257812 0.0586,-0.351562 h -1.01953 v -1.230469 l -0.1289,-0.01172 -0.58594,0.585938 v 0.65625 h -0.41016 l -0.24609,0.269531 0.0352,0.08203 h 0.62109 v 2.625 c 0,0.703125 0.31641,1.066406 0.87891,1.066406 0.082,0 0.23437,-0.03516 0.38671,-0.117187 z m 3.18457,-6.747071 v -0.433594 h -1.875 v -1.875 h -0.52734 v 1.875 h -1.88672 v 0.433594 h 1.88672 v 2.074219 h 0.52734 v -2.074219 z m 1.41504,6.398438 c -0.89063,-0.761719 -1.40625,-2.203125 -1.40625,-3.75 0,-1.546875 0.51562,-3 1.40625,-3.75 l -0.15234,-0.210938 c -1.32422,0.902344 -1.91016,2.332031 -1.91016,3.949219 0,1.628906 0.58594,3.082031 1.91016,3.960937 z m 0,0"
           style="fill:#231f20;fill-opacity:1;fill-rule:nonzero;stroke:none" />
        <path
           id="path44"
           d="m 119.82093,26.387586 c 0.29297,0.257812 0.50391,0.714844 0.50391,1.382812 -0.0117,1.007813 -0.39844,2.050782 -1.13672,2.050782 -0.30469,0 -0.51563,-0.304688 -0.49219,-0.878907 0.0234,-0.46875 0.23437,-1.359375 0.35156,-1.722656 l -0.0586,-0.03516 -0.66797,0.140625 c -0.0352,0.28125 -0.0937,0.75 -0.1875,1.136719 -0.19922,0.855468 -0.5625,1.3125 -0.94922,1.3125 -0.28125,0 -0.53906,-0.339844 -0.53906,-0.996094 0,-1.007813 0.46875,-1.921875 1.16015,-2.449219 l -0.14062,-0.199219 c -1.04297,0.539063 -1.75781,1.558594 -1.75781,2.765625 0,0.9375 0.42187,1.441407 0.9375,1.441407 0.38672,0 0.90234,-0.398438 1.23047,-0.890625 0.0469,0.503906 0.32812,0.890625 0.76171,0.890625 0.375,0 0.73829,-0.222657 1.06641,-0.515625 0.5625,-0.527344 0.99609,-1.300782 0.99609,-2.214844 0,-0.902344 -0.39843,-1.417969 -0.6914,-1.417969 -0.15235,0 -0.31641,0.07031 -0.375,0.128906 z m 0,0"
           style="fill:#231f20;fill-opacity:1;fill-rule:nonzero;stroke:none" />
        <path
           id="path45"
           d="m 123.51234,28.189344 c -0.82032,0 -1.98047,0.679687 -1.98047,2.15625 0,1.007812 0.73828,1.992187 1.98047,1.992187 0.89062,0 1.94531,-0.691406 1.94531,-2.144531 0,-1.113281 -0.83203,-2.003906 -1.94531,-2.003906 z m -0.0937,0.304687 c 0.78515,0 1.20703,0.84375 1.20703,1.898438 0,1.242187 -0.45703,1.652344 -1.01953,1.652344 -0.73829,0 -1.23047,-0.84375 -1.23047,-1.980469 0,-1.019531 0.48047,-1.570313 1.04297,-1.570313 z m 1.6875,0.577149 c -0.21094,0 -0.4336,0.140625 -0.4336,0.363281 0,0.152344 0.0703,0.222656 0.11719,0.234375 0.30469,0.07031 0.5625,0.269531 0.5625,0.597656 0,0.339844 -0.25781,0.574219 -0.69141,0.761719 l 0.0937,0.257812 c 0.55078,-0.164062 1.1836,-0.550781 1.1836,-1.242187 0,-0.632813 -0.50391,-0.972656 -0.83203,-0.972656 z m 0,0"
           style="fill:#231f20;fill-opacity:1;fill-rule:nonzero;stroke:none" />
        <path
           id="path46"
           d="m 132.71741,26.387586 c 0.29297,0.257812 0.50391,0.714844 0.50391,1.382812 -0.0117,1.007813 -0.39844,2.050782 -1.13672,2.050782 -0.30469,0 -0.51562,-0.304688 -0.49219,-0.878907 0.0234,-0.46875 0.23438,-1.359375 0.35157,-1.722656 l -0.0586,-0.03516 -0.66797,0.140625 c -0.0351,0.28125 -0.0937,0.75 -0.1875,1.136719 -0.19921,0.855468 -0.5625,1.3125 -0.94921,1.3125 -0.28125,0 -0.53907,-0.339844 -0.53907,-0.996094 0,-1.007813 0.46875,-1.921875 1.16016,-2.449219 l -0.14063,-0.199219 c -1.04296,0.539063 -1.75781,1.558594 -1.75781,2.765625 0,0.9375 0.42188,1.441407 0.9375,1.441407 0.38672,0 0.90235,-0.398438 1.23047,-0.890625 0.0469,0.503906 0.32813,0.890625 0.76172,0.890625 0.375,0 0.73828,-0.222657 1.06641,-0.515625 0.5625,-0.527344 0.99609,-1.300782 0.99609,-2.214844 0,-0.902344 -0.39844,-1.417969 -0.69141,-1.417969 -0.15234,0 -0.3164,0.07031 -0.375,0.128906 z m 0,0"
           style="fill:#231f20;fill-opacity:1;fill-rule:nonzero;stroke:none" />
        <path
           id="path47"
           d="m 134.8971,26.692273 0.60938,-1.289062 c 0.17578,-0.386719 0.28125,-0.621094 0.3164,-0.738281 0.0352,-0.08203 0.0469,-0.152344 0.0469,-0.222657 0,-0.09375 -0.0234,-0.164062 -0.082,-0.222656 -0.0703,-0.05859 -0.15235,-0.09375 -0.25782,-0.09375 -0.1289,0 -0.24609,0.03516 -0.33984,0.117188 -0.10547,0.08203 -0.17578,0.222656 -0.23437,0.398437 -0.0352,0.128906 -0.082,0.375 -0.11719,0.761719 l -0.14063,1.289062 z m 0,0"
           style="fill:#231f20;fill-opacity:1;fill-rule:nonzero;stroke:none" />
        <path
           id="path48"
           d="m 136.47913,24.055555 c 0.89063,0.738281 1.41797,2.203125 1.41797,3.75 0,1.546875 -0.5039,2.988281 -1.41797,3.75 l 0.16407,0.199218 c 1.34765,-0.914062 1.89843,-2.332031 1.89843,-3.949218 0,-1.628907 -0.55078,-3.058594 -1.89843,-3.960938 z m 0,0"
           style="fill:#231f20;fill-opacity:1;fill-rule:nonzero;stroke:none" />
        <path
           id="path49"
           d="m 128.12366,74.372938 -0.0937,-0.04687 c -0.21093,0.117187 -0.49218,0.328125 -0.65625,0.527343 l -0.10546,0.410157 c -0.29297,0.105468 -0.6211,0.269531 -0.85547,0.445312 l 0.0586,0.222656 c 0.21094,-0.105468 0.44531,-0.234375 0.72656,-0.328125 -0.32812,1.558594 -0.66797,3.140625 -1.00781,4.710938 -0.12891,0.5625 -0.22266,0.632812 -0.78516,0.738281 l -0.0352,0.234375 2.07422,-0.105469 0.0234,-0.234375 -0.21093,-0.02344 c -0.44532,-0.03516 -0.49219,-0.117188 -0.38672,-0.632813 l 0.24609,-1.265625 c 0.17578,0.07031 0.38672,0.08203 0.53906,0.08203 0.57422,-0.140625 1.21875,-0.539063 1.66407,-1.042969 0.51562,-0.585938 0.77343,-1.265625 0.77343,-1.863281 0,-0.796875 -0.375,-1.242188 -1.30078,-1.242188 -0.24609,0 -0.58593,0.03516 -0.83203,0.105469 z m -0.24609,1.042968 c 0.16406,-0.04687 0.36328,-0.07031 0.51563,-0.07031 0.51562,0 0.9375,0.199219 0.9375,0.996094 0,1.160156 -0.86719,2.367187 -1.51172,2.367187 -0.21094,0 -0.45703,-0.164062 -0.55078,-0.304687 z m 0,0"
           style="fill:#231f20;fill-opacity:1;fill-rule:nonzero;stroke:none" />
        <path
           id="path50"
           d="m 131.97034,77.917859 v -0.984375 c -0.43359,0.1875 -0.83203,0.292969 -1.26562,0.363282 v 0.199218 c 0.5039,0.07031 0.55078,0.105469 0.55078,0.703125 v 1.863282 c 0,0.597656 -0.0586,0.644531 -0.62109,0.703125 v 0.234375 h 2.07421 v -0.234375 c -0.6914,-0.05859 -0.73828,-0.105469 -0.73828,-0.703125 v -1.640625 c 0.19922,-0.503907 0.48047,-0.773438 0.71485,-0.773438 0.15234,0 0.25781,0.04687 0.38672,0.1875 0.0469,0.04687 0.1289,0.05859 0.23437,0.01172 0.17578,-0.08203 0.29297,-0.257813 0.29297,-0.433594 0,-0.222656 -0.21094,-0.457031 -0.52734,-0.457031 -0.42188,0 -0.8086,0.503906 -1.07813,0.960937 z m 4.21582,-3.720703 v -0.46875 h -3.77343 v 0.46875 z m 1.59668,6.128907 c -0.89062,-0.761719 -1.40625,-2.203125 -1.40625,-3.75 0,-1.546875 0.51563,-3 1.40625,-3.75 l -0.15234,-0.210938 c -1.32422,0.902344 -1.91016,2.332031 -1.91016,3.949219 0,1.628906 0.58594,3.082031 1.91016,3.960937 z m 4.6377,-3.128907 v -0.46875 h -3.77344 v 0.46875 z m 0,0"
           style="fill:#231f20;fill-opacity:1;fill-rule:nonzero;stroke:none" />
        <path
           id="path51"
           d="m 147.2428,75.158094 c 0.29297,0.257812 0.50391,0.714844 0.50391,1.382812 -0.0117,1.007813 -0.39844,2.050782 -1.13672,2.050782 -0.30469,0 -0.51562,-0.304688 -0.49219,-0.878907 0.0234,-0.46875 0.23438,-1.359375 0.35157,-1.722656 l -0.0586,-0.03516 -0.66797,0.140625 c -0.0351,0.28125 -0.0937,0.75 -0.1875,1.136719 -0.19921,0.855468 -0.5625,1.3125 -0.94921,1.3125 -0.28125,0 -0.53907,-0.339844 -0.53907,-0.996094 0,-1.007813 0.46875,-1.921875 1.16016,-2.449219 l -0.14063,-0.199219 c -1.04296,0.539063 -1.75781,1.558594 -1.75781,2.765625 0,0.9375 0.42188,1.441407 0.9375,1.441407 0.38672,0 0.90235,-0.398438 1.23047,-0.890625 0.0469,0.503906 0.32813,0.890625 0.76172,0.890625 0.375,0 0.73828,-0.222657 1.06641,-0.515625 0.5625,-0.527344 0.99609,-1.300782 0.99609,-2.214844 0,-0.902344 -0.39844,-1.417969 -0.69141,-1.417969 -0.15234,0 -0.3164,0.07031 -0.375,0.128906 z m 0,0"
           style="fill:#231f20;fill-opacity:1;fill-rule:nonzero;stroke:none" />
        <path
           id="path52"
           d="m 149.42249,75.462781 0.60938,-1.289062 c 0.17578,-0.386719 0.28125,-0.621094 0.3164,-0.738281 0.0352,-0.08203 0.0469,-0.152344 0.0469,-0.222657 0,-0.09375 -0.0234,-0.164062 -0.082,-0.222656 -0.0703,-0.05859 -0.15235,-0.09375 -0.25782,-0.09375 -0.1289,0 -0.24609,0.03516 -0.33984,0.117188 -0.10547,0.08203 -0.17578,0.222656 -0.23437,0.398437 -0.0352,0.128906 -0.082,0.375 -0.11719,0.761719 l -0.14063,1.289062 z m 0,0"
           style="fill:#231f20;fill-opacity:1;fill-rule:nonzero;stroke:none" />
        <path
           id="path53"
           d="m 151.43519,77.841688 c -0.21094,0 -0.4336,0.140625 -0.4336,0.363281 0,0.152344 0.0703,0.222656 0.11719,0.234375 0.30469,0.07031 0.5625,0.269531 0.5625,0.597656 0,0.339844 -0.25781,0.574219 -0.69141,0.761719 l 0.0937,0.257812 c 0.55079,-0.164062 1.1836,-0.550781 1.1836,-1.242187 0,-0.632813 -0.50391,-0.972656 -0.83203,-0.972656 z m 0,0"
           style="fill:#231f20;fill-opacity:1;fill-rule:nonzero;stroke:none" />
        <path
           id="path54"
           d="m 159.04652,75.158094 c 0.29296,0.257812 0.5039,0.714844 0.5039,1.382812 -0.0117,1.007813 -0.39844,2.050782 -1.13672,2.050782 -0.30468,0 -0.51562,-0.304688 -0.49218,-0.878907 0.0234,-0.46875 0.23437,-1.359375 0.35156,-1.722656 l -0.0586,-0.03516 -0.66796,0.140625 c -0.0352,0.28125 -0.0937,0.75 -0.1875,1.136719 -0.19922,0.855468 -0.5625,1.3125 -0.94922,1.3125 -0.28125,0 -0.53907,-0.339844 -0.53907,-0.996094 0,-1.007813 0.46875,-1.921875 1.16016,-2.449219 l -0.14062,-0.199219 c -1.04297,0.539063 -1.75782,1.558594 -1.75782,2.765625 0,0.9375 0.42188,1.441407 0.9375,1.441407 0.38672,0 0.90235,-0.398438 1.23047,-0.890625 0.0469,0.503906 0.32813,0.890625 0.76172,0.890625 0.375,0 0.73828,-0.222657 1.06641,-0.515625 0.5625,-0.527344 0.99609,-1.300782 0.99609,-2.214844 0,-0.902344 -0.39844,-1.417969 -0.69141,-1.417969 -0.15234,0 -0.3164,0.07031 -0.375,0.128906 z m 0,0"
           style="fill:#231f20;fill-opacity:1;fill-rule:nonzero;stroke:none" />
        <path
           id="path55"
           d="m 161.33167,75.462781 0.60938,-1.289062 c 0.17578,-0.386719 0.29297,-0.621094 0.32812,-0.738281 0.0234,-0.08203 0.0469,-0.152344 0.0469,-0.222657 0,-0.09375 -0.0352,-0.164062 -0.0937,-0.222656 -0.0703,-0.05859 -0.14063,-0.09375 -0.25782,-0.09375 -0.11718,0 -0.23437,0.03516 -0.33984,0.117188 -0.0937,0.08203 -0.17578,0.222656 -0.23437,0.398437 -0.0352,0.128906 -0.082,0.375 -0.11719,0.761719 l -0.12891,1.289062 z m 1.60547,0 0.60938,-1.289062 c 0.1875,-0.386719 0.29296,-0.621094 0.32812,-0.738281 0.0234,-0.08203 0.0469,-0.152344 0.0469,-0.222657 0,-0.09375 -0.0234,-0.164062 -0.0937,-0.222656 -0.0586,-0.05859 -0.14063,-0.09375 -0.2461,-0.09375 -0.1289,0 -0.24609,0.03516 -0.33984,0.117188 -0.10547,0.08203 -0.1875,0.222656 -0.23438,0.398437 -0.0352,0.128906 -0.082,0.375 -0.11718,0.761719 l -0.14063,1.289062 z m 0,0"
           style="fill:#231f20;fill-opacity:1;fill-rule:nonzero;stroke:none" />
        <path
           id="path56"
           d="m 164.58948,72.826063 c 0.89063,0.738281 1.41797,2.203125 1.41797,3.75 0,1.546875 -0.5039,2.988281 -1.41797,3.75 l 0.16407,0.199218 c 1.34765,-0.914062 1.89843,-2.332031 1.89843,-3.949218 0,-1.628907 -0.55078,-3.058594 -1.89843,-3.960938 z m 0,0"
           style="fill:#231f20;fill-opacity:1;fill-rule:nonzero;stroke:none" />
        <path
           id="path57"
           d="m 210.04945,25.60243 -0.0937,-0.04687 c -0.21094,0.117187 -0.49219,0.328125 -0.65625,0.527343 l -0.10547,0.410157 c -0.29297,0.105468 -0.6211,0.269531 -0.85547,0.445312 l 0.0586,0.222656 c 0.21094,-0.105468 0.44531,-0.234375 0.72656,-0.328125 -0.32812,1.558594 -0.66796,3.140625 -1.00781,4.710938 -0.1289,0.5625 -0.22265,0.632812 -0.78515,0.738281 l -0.0352,0.234375 2.07422,-0.105469 0.0234,-0.234375 -0.21094,-0.02344 c -0.44531,-0.03516 -0.49219,-0.117188 -0.38672,-0.632813 l 0.24609,-1.265625 c 0.17578,0.07031 0.38672,0.08203 0.53907,0.08203 0.57421,-0.140625 1.21875,-0.539063 1.66406,-1.042969 0.51562,-0.585938 0.77344,-1.265625 0.77344,-1.863281 0,-0.796875 -0.375,-1.242188 -1.30079,-1.242188 -0.24609,0 -0.58593,0.03516 -0.83203,0.105469 z m -0.2461,1.042968 c 0.16406,-0.04687 0.36328,-0.07031 0.51563,-0.07031 0.51562,0 0.9375,0.199219 0.9375,0.996094 0,1.160156 -0.86719,2.367187 -1.51172,2.367187 -0.21094,0 -0.45703,-0.164062 -0.55078,-0.304687 z m 0,0"
           style="fill:#231f20;fill-opacity:1;fill-rule:nonzero;stroke:none" />
        <path
           id="path58"
           d="m 214.95081,31.904188 -0.082,-0.234375 c -0.12891,0.07031 -0.32812,0.152343 -0.5625,0.152343 -0.22266,0 -0.51562,-0.128906 -0.51562,-0.855468 v -2.320313 h 0.96093 c 0.10547,-0.05859 0.12891,-0.257812 0.0586,-0.351562 h -1.01953 v -1.230469 l -0.12891,-0.01172 -0.58594,0.585938 v 0.65625 h -0.41015 l -0.2461,0.269531 0.0352,0.08203 h 0.62109 v 2.625 c 0,0.703125 0.31641,1.066406 0.87891,1.066406 0.082,0 0.23437,-0.03516 0.38672,-0.117187 z m 3.18457,-6.747071 v -0.433594 h -1.875 v -1.875 h -0.52734 v 1.875 h -1.88672 v 0.433594 h 1.88672 v 2.074219 h 0.52734 v -2.074219 z m 1.41797,6.398438 c -0.89062,-0.761719 -1.40625,-2.203125 -1.40625,-3.75 0,-1.546875 0.51563,-3 1.40625,-3.75 l -0.15234,-0.210938 c -1.32422,0.902344 -1.91016,2.332031 -1.91016,3.949219 0,1.628906 0.58594,3.082031 1.91016,3.960937 z m 4.6377,-3.128907 v -0.46875 h -3.77344 v 0.46875 z m 0,0"
           style="fill:#231f20;fill-opacity:1;fill-rule:nonzero;stroke:none" />
        <path
           id="path59"
           d="m 229.01038,26.387586 c 0.29297,0.257812 0.50391,0.714844 0.50391,1.382812 -0.0117,1.007813 -0.39844,2.050782 -1.13672,2.050782 -0.30469,0 -0.51562,-0.304688 -0.49219,-0.878907 0.0234,-0.46875 0.23438,-1.359375 0.35157,-1.722656 l -0.0586,-0.03516 -0.66797,0.140625 c -0.0351,0.28125 -0.0937,0.75 -0.1875,1.136719 -0.19922,0.855468 -0.5625,1.3125 -0.94922,1.3125 -0.28125,0 -0.53906,-0.339844 -0.53906,-0.996094 0,-1.007813 0.46875,-1.921875 1.16016,-2.449219 l -0.14063,-0.199219 c -1.04297,0.539063 -1.75781,1.558594 -1.75781,2.765625 0,0.9375 0.42188,1.441407 0.9375,1.441407 0.38672,0 0.90234,-0.398438 1.23047,-0.890625 0.0469,0.503906 0.32812,0.890625 0.76172,0.890625 0.375,0 0.73828,-0.222657 1.0664,-0.515625 0.5625,-0.527344 0.9961,-1.300782 0.9961,-2.214844 0,-0.902344 -0.39844,-1.417969 -0.69141,-1.417969 -0.15234,0 -0.3164,0.07031 -0.375,0.128906 z m 0,0"
           style="fill:#231f20;fill-opacity:1;fill-rule:nonzero;stroke:none" />
        <path
           id="path60"
           d="m 231.29554,26.692273 0.60937,-1.289062 c 0.17579,-0.386719 0.29297,-0.621094 0.32813,-0.738281 0.0234,-0.08203 0.0469,-0.152344 0.0469,-0.222657 0,-0.09375 -0.0351,-0.164062 -0.0937,-0.222656 -0.0703,-0.05859 -0.14062,-0.09375 -0.25781,-0.09375 -0.11719,0 -0.23437,0.03516 -0.33984,0.117188 -0.0937,0.08203 -0.17578,0.222656 -0.23438,0.398437 -0.0351,0.128906 -0.082,0.375 -0.11718,0.761719 l -0.12891,1.289062 z m 1.60547,0 0.60937,-1.289062 c 0.1875,-0.386719 0.29297,-0.621094 0.32813,-0.738281 0.0234,-0.08203 0.0469,-0.152344 0.0469,-0.222657 0,-0.09375 -0.0234,-0.164062 -0.0937,-0.222656 -0.0586,-0.05859 -0.14062,-0.09375 -0.24609,-0.09375 -0.12891,0 -0.24609,0.03516 -0.33984,0.117188 -0.10547,0.08203 -0.1875,0.222656 -0.23438,0.398437 -0.0352,0.128906 -0.082,0.375 -0.11719,0.761719 l -0.14062,1.289062 z m 0,0"
           style="fill:#231f20;fill-opacity:1;fill-rule:nonzero;stroke:none" />
        <path
           id="path61"
           d="m 234.98695,29.07118 c -0.21094,0 -0.4336,0.140625 -0.4336,0.363281 0,0.152344 0.0703,0.222656 0.11719,0.234375 0.30469,0.07031 0.5625,0.269531 0.5625,0.597656 0,0.339844 -0.25781,0.574219 -0.69141,0.761719 l 0.0937,0.257812 c 0.55078,-0.164062 1.1836,-0.550781 1.1836,-1.242187 0,-0.632813 -0.50391,-0.972656 -0.83203,-0.972656 z m 0,0"
           style="fill:#231f20;fill-opacity:1;fill-rule:nonzero;stroke:none" />
        <path
           id="path62"
           d="m 242.59827,26.387586 c 0.29297,0.257812 0.50391,0.714844 0.50391,1.382812 -0.0117,1.007813 -0.39844,2.050782 -1.13672,2.050782 -0.30469,0 -0.51562,-0.304688 -0.49219,-0.878907 0.0234,-0.46875 0.23438,-1.359375 0.35157,-1.722656 l -0.0586,-0.03516 -0.66797,0.140625 c -0.0352,0.28125 -0.0937,0.75 -0.1875,1.136719 -0.19922,0.855468 -0.5625,1.3125 -0.94922,1.3125 -0.28125,0 -0.53906,-0.339844 -0.53906,-0.996094 0,-1.007813 0.46875,-1.921875 1.16016,-2.449219 l -0.14063,-0.199219 c -1.04297,0.539063 -1.75781,1.558594 -1.75781,2.765625 0,0.9375 0.42188,1.441407 0.9375,1.441407 0.38672,0 0.90234,-0.398438 1.23047,-0.890625 0.0469,0.503906 0.32812,0.890625 0.76172,0.890625 0.375,0 0.73828,-0.222657 1.0664,-0.515625 0.5625,-0.527344 0.9961,-1.300782 0.9961,-2.214844 0,-0.902344 -0.39844,-1.417969 -0.69141,-1.417969 -0.15234,0 -0.3164,0.07031 -0.375,0.128906 z m 0,0"
           style="fill:#231f20;fill-opacity:1;fill-rule:nonzero;stroke:none" />
        <path
           id="path63"
           d="m 245.19691,27.404188 c 0.25781,0 0.45703,-0.210938 0.45703,-0.457032 0,-0.269531 -0.19922,-0.46875 -0.45703,-0.46875 -0.23438,0 -0.45704,0.199219 -0.45704,0.46875 0,0.246094 0.22266,0.457032 0.45704,0.457032 z m 1.05468,4.828125 v -0.234375 c -0.58593,-0.05859 -0.64453,-0.105469 -0.64453,-0.714844 v -3.105469 c -0.39844,0.152344 -0.82031,0.269531 -1.27734,0.351563 v 0.210937 c 0.53906,0.09375 0.5625,0.128906 0.5625,0.679688 v 1.863281 c 0,0.609375 -0.0586,0.65625 -0.6211,0.714844 v 0.234375 z m -0.25488,-8.176758 c 0.89063,0.738281 1.41797,2.203125 1.41797,3.75 0,1.546875 -0.50391,2.988281 -1.41797,3.75 l 0.16406,0.199218 c 1.34766,-0.914062 1.89844,-2.332031 1.89844,-3.949218 0,-1.628907 -0.55078,-3.058594 -1.89844,-3.960938 z m 0,0"
           style="fill:#231f20;fill-opacity:1;fill-rule:nonzero;stroke:none" />
        <path
           id="path64"
           d="m 113.62171,-5.5108516 c 0.29297,0.2578125 0.50391,0.7148438 0.50391,1.3828125 -0.0117,1.0078125 -0.39844,2.0507813 -1.13672,2.0507813 -0.30469,0 -0.51563,-0.3046875 -0.49219,-0.8789063 0.0234,-0.46875 0.23438,-1.359375 0.35156,-1.7226562 l -0.0586,-0.035156 -0.66797,0.140625 c -0.0352,0.28125 -0.0937,0.75 -0.1875,1.1367188 -0.19922,0.8554687 -0.5625,1.3125 -0.94922,1.3125 -0.28125,0 -0.53906,-0.3398438 -0.53906,-0.9960938 0,-1.0078125 0.46875,-1.921875 1.16016,-2.4492187 l -0.14063,-0.1992188 c -1.04297,0.5390625 -1.75781,1.5585938 -1.75781,2.765625 0,0.9375 0.42187,1.4414063 0.9375,1.4414063 0.38672,0 0.90234,-0.3984375 1.23047,-0.890625 0.0469,0.5039062 0.32812,0.890625 0.76172,0.890625 0.375,0 0.73828,-0.2226563 1.0664,-0.515625 0.5625,-0.5273438 0.9961,-1.3007813 0.9961,-2.2148438 0,-0.9023437 -0.39844,-1.4179687 -0.69141,-1.4179687 -0.15234,0 -0.31641,0.070312 -0.375,0.1289062 z m 0,0"
           style="fill:#231f20;fill-opacity:1;fill-rule:nonzero;stroke:none" />
        <path
           id="path65"
           d="m 116.53968,-2.3614375 c -0.55078,0 -1.3125,0.4570313 -1.3125,1.44140625 0,0.66796875 0.49219,1.32421875 1.3125,1.32421875 0.59766,0 1.30078,-0.45703125 1.30078,-1.4296875 0,-0.7382812 -0.55078,-1.3359375 -1.30078,-1.3359375 z m -0.0586,0.1992188 c 0.51562,0 0.80859,0.5742187 0.80859,1.2773437 0,0.8203125 -0.31641,1.08984375 -0.67969,1.08984375 -0.49219,0 -0.82031,-0.5625 -0.82031,-1.31249995 0,-0.6796875 0.31641,-1.0546875 0.69141,-1.0546875 z m 0,0"
           style="fill:#231f20;fill-opacity:1;fill-rule:nonzero;stroke:none" />
        <path
           id="path66"
           d="m 150.14905,45.489148 c 0.29297,0.257813 0.50391,0.714844 0.50391,1.382813 -0.0117,1.007812 -0.39844,2.050781 -1.13672,2.050781 -0.30469,0 -0.51562,-0.304687 -0.49219,-0.878906 0.0234,-0.46875 0.23438,-1.359375 0.35157,-1.722656 l -0.0586,-0.03516 -0.66797,0.140625 c -0.0351,0.28125 -0.0937,0.75 -0.1875,1.136719 -0.19921,0.855469 -0.5625,1.3125 -0.94921,1.3125 -0.28125,0 -0.53907,-0.339844 -0.53907,-0.996094 0,-1.007812 0.46875,-1.921875 1.16016,-2.449218 l -0.14063,-0.199219 c -1.04296,0.539062 -1.75781,1.558594 -1.75781,2.765625 0,0.9375 0.42188,1.441406 0.9375,1.441406 0.38672,0 0.90235,-0.398437 1.23047,-0.890625 0.0469,0.503906 0.32813,0.890625 0.76172,0.890625 0.375,0 0.73828,-0.222656 1.06641,-0.515625 0.5625,-0.527344 0.99609,-1.300781 0.99609,-2.214844 0,-0.902343 -0.39844,-1.417968 -0.69141,-1.417968 -0.15234,0 -0.3164,0.07031 -0.375,0.128906 z m 0,0"
           style="fill:#231f20;fill-opacity:1;fill-rule:nonzero;stroke:none" />
        <path
           id="path67"
           d="m 152.32874,45.793836 0.60938,-1.289063 c 0.17578,-0.386718 0.28125,-0.621093 0.3164,-0.738281 0.0352,-0.08203 0.0469,-0.152344 0.0469,-0.222656 0,-0.09375 -0.0234,-0.164063 -0.082,-0.222656 -0.0703,-0.05859 -0.15235,-0.09375 -0.25782,-0.09375 -0.1289,0 -0.24609,0.03516 -0.33984,0.117187 -0.10547,0.08203 -0.17578,0.222656 -0.23437,0.398438 -0.0352,0.128906 -0.082,0.375 -0.11719,0.761718 l -0.14063,1.289063 z m 0,0"
           style="fill:#231f20;fill-opacity:1;fill-rule:nonzero;stroke:none" />
        <path
           id="path68"
           d="m 199.21546,43.491102 c 0.29297,0.257812 0.50391,0.714843 0.50391,1.382812 -0.0117,1.007813 -0.39844,2.050781 -1.13672,2.050781 -0.30469,0 -0.51563,-0.304687 -0.49219,-0.878906 0.0234,-0.46875 0.23438,-1.359375 0.35156,-1.722656 l -0.0586,-0.03516 -0.66797,0.140625 c -0.0352,0.28125 -0.0937,0.75 -0.1875,1.136718 -0.19922,0.855469 -0.5625,1.3125 -0.94922,1.3125 -0.28125,0 -0.53906,-0.339843 -0.53906,-0.996093 0,-1.007813 0.46875,-1.921875 1.16016,-2.449219 l -0.14063,-0.199219 c -1.04297,0.539063 -1.75781,1.558594 -1.75781,2.765625 0,0.9375 0.42187,1.441406 0.9375,1.441406 0.38672,0 0.90234,-0.398437 1.23047,-0.890625 0.0469,0.503907 0.32812,0.890625 0.76172,0.890625 0.375,0 0.73828,-0.222656 1.0664,-0.515625 0.5625,-0.527343 0.9961,-1.300781 0.9961,-2.214843 0,-0.902344 -0.39844,-1.417969 -0.69141,-1.417969 -0.15234,0 -0.31641,0.07031 -0.375,0.128906 z m 0,0"
           style="fill:#231f20;fill-opacity:1;fill-rule:nonzero;stroke:none" />
        <path
           id="path69"
           d="m 201.50062,43.795789 0.60937,-1.289062 c 0.17578,-0.386719 0.29297,-0.621094 0.32813,-0.738282 0.0234,-0.08203 0.0469,-0.152343 0.0469,-0.222656 0,-0.09375 -0.0352,-0.164062 -0.0937,-0.222656 -0.0703,-0.05859 -0.14062,-0.09375 -0.25781,-0.09375 -0.11719,0 -0.23438,0.03516 -0.33984,0.117187 -0.0937,0.08203 -0.17579,0.222657 -0.23438,0.398438 -0.0352,0.128906 -0.082,0.375 -0.11719,0.761719 l -0.1289,1.289062 z m 1.60547,0 0.60937,-1.289062 c 0.1875,-0.386719 0.29297,-0.621094 0.32813,-0.738282 0.0234,-0.08203 0.0469,-0.152343 0.0469,-0.222656 0,-0.09375 -0.0234,-0.164062 -0.0937,-0.222656 -0.0586,-0.05859 -0.14062,-0.09375 -0.24609,-0.09375 -0.12891,0 -0.2461,0.03516 -0.33985,0.117187 -0.10547,0.08203 -0.1875,0.222657 -0.23437,0.398438 -0.0352,0.128906 -0.082,0.375 -0.11719,0.761719 l -0.14062,1.289062 z m 0,0"
           style="fill:#231f20;fill-opacity:1;fill-rule:nonzero;stroke:none" />
        <path
           id="path70"
           d="m 238.78675,-1.5088984 c 0.29297,0.2578125 0.50391,0.71484371 0.50391,1.38281246 -0.0117,1.0078125 -0.39844,2.05078124 -1.13672,2.05078124 -0.30469,0 -0.51563,-0.3046875 -0.49219,-0.8789062 0.0234,-0.46875004 0.23437,-1.35937504 0.35156,-1.72265629 l -0.0586,-0.0351563 -0.66797,0.140625 c -0.0352,0.28125 -0.0937,0.75 -0.1875,1.13671875 -0.19922,0.85546874 -0.5625,1.31249994 -0.94922,1.31249994 -0.28125,0 -0.53906,-0.3398437 -0.53906,-0.99609369 0,-1.0078125 0.46875,-1.92187491 1.16015,-2.44921871 l -0.14062,-0.1992187 c -1.04297,0.5390625 -1.75781,1.55859366 -1.75781,2.76562491 0,0.93749999 0.42187,1.44140629 0.9375,1.44140629 0.38672,0 0.90234,-0.3984375 1.23047,-0.8906251 0.0469,0.5039064 0.32812,0.8906251 0.76171,0.8906251 0.375,0 0.73829,-0.2226562 1.06641,-0.5156251 0.5625,-0.5273436 0.99609,-1.30078119 0.99609,-2.21484369 0,-0.90234371 -0.39843,-1.41796871 -0.6914,-1.41796871 -0.15235,0 -0.31641,0.070312 -0.375,0.1289063 z m 0,0"
           style="fill:#231f20;fill-opacity:1;fill-rule:nonzero;stroke:none" />
        <path
           id="path71"
           d="m 240.97816,1.1219609 c 0.17578,0 0.30468,-0.15234371 0.30468,-0.31640621 0,-0.17578125 -0.1289,-0.3046875 -0.29297,-0.3046875 -0.16406,0 -0.30468,0.12890625 -0.30468,0.3046875 0,0.1640625 0.14062,0.31640621 0.29297,0.31640621 z m 0.70312,3.2109375 V 4.1805547 c -0.38672,-0.035156 -0.42187,-0.070312 -0.42187,-0.4804688 V 1.6258672 c -0.26954,0.1054687 -0.55079,0.1875 -0.85547,0.234375 v 0.140625 c 0.36328,0.058594 0.375,0.09375 0.375,0.4570312 v 1.2421875 c 0,0.4101563 -0.0352,0.4453125 -0.42188,0.4804688 v 0.1523437 z m 0,0"
           style="fill:#231f20;fill-opacity:1;fill-rule:nonzero;stroke:none" />
      </g>
    </g>
  </g>
</svg>
