<?xml version="1.0" encoding="UTF-8" standalone="no"?>
<!-- Created with Inkscape (http://www.inkscape.org/) -->

<svg
   version="1.1"
   id="svg1"
   width="265.05334"
   height="154.81332"
   viewBox="0 0 265.05334 154.81332"
   sodipodi:docname="pha14f20.eps"
   xmlns:inkscape="http://www.inkscape.org/namespaces/inkscape"
   xmlns:sodipodi="http://sodipodi.sourceforge.net/DTD/sodipodi-0.dtd"
   xmlns="http://www.w3.org/2000/svg"
   xmlns:svg="http://www.w3.org/2000/svg">
  <defs
     id="defs1" />
  <sodipodi:namedview
     id="namedview1"
     pagecolor="#ffffff"
     bordercolor="#000000"
     borderopacity="0.25"
     inkscape:showpageshadow="2"
     inkscape:pageopacity="0.0"
     inkscape:pagecheckerboard="0"
     inkscape:deskcolor="#d1d1d1">
    <inkscape:page
       x="0"
       y="0"
       inkscape:label="1"
       id="page1"
       width="265.05334"
       height="154.81332"
       margin="0"
       bleed="0" />
  </sodipodi:namedview>
  <g
     id="g1"
     inkscape:groupmode="layer"
     inkscape:label="1">
    <g
       id="group-R5">
      <path
         id="path2"
         d="M 1987.42,22.5 H 0 V 403.121 H 1987.42 V 22.5 m -690.97,378.277 c 0,0 -46.06,-6.804 -82.98,-43.418 -36.93,-36.609 -38.27,-69.504 -14.09,-84.964 3.83,-2.454 8.51,-3.508 13.72,-3.508 27.65,0 70.38,29.605 82.6,37.258 14.8,9.25 34.15,31.171 47.75,40.121 12.6,8.3 44.31,41.496 -6.71,54.511 h -40.29"
         style="fill:#f2f1f1;fill-opacity:1;fill-rule:nonzero;stroke:none"
         transform="matrix(0.13333333,0,0,-0.13333333,0,154.81333)" />
      <path
         id="path3"
         d="m 1213.1,268.887 c -5.21,0 -9.89,1.054 -13.72,3.508 -24.18,15.46 -22.84,48.355 14.09,84.964 36.92,36.614 82.98,43.418 82.98,43.418 h 40.29 c 51.02,-13.015 19.31,-46.211 6.71,-54.511 -13.6,-8.95 -32.95,-30.871 -47.75,-40.121 -12.22,-7.653 -54.95,-37.258 -82.6,-37.258"
         style="fill:#dddcdc;fill-opacity:1;fill-rule:nonzero;stroke:none"
         transform="matrix(0.13333333,0,0,-0.13333333,0,154.81333)" />
      <path
         id="path4"
         d="m 1336.74,400.777 -0.62,-2.422 c 10.31,-2.625 16.95,-6.07 20.87,-9.687 3.92,-3.641 5.28,-7.309 5.31,-11.215 0.03,-5.527 -3.12,-11.723 -7.37,-17.055 -4.2,-5.328 -9.42,-9.789 -12.86,-12.043 -7.1,-4.687 -15.35,-12.449 -23.74,-20.203 -8.37,-7.742 -16.87,-15.472 -23.95,-19.89 -6.19,-3.875 -19.83,-13.121 -35.37,-21.41 -15.5,-8.297 -32.95,-15.508 -45.91,-15.465 -4.89,0.004 -9.06,0.988 -12.38,3.113 -9.91,6.395 -15.04,15.492 -15.08,26.941 -0.03,14.793 9.03,33.786 29.59,54.145 18.14,17.992 38.58,28.695 54.48,34.883 7.95,3.094 14.76,5.058 19.57,6.246 2.4,0.594 4.3,0.996 5.59,1.246 1.3,0.25 1.94,0.34 1.95,0.344 l -0.37,2.472 v -2.5 h 40.29 v 2.5 l -0.62,-2.422 0.62,2.422 v 2.5 h -40.47 l -0.19,-0.027 c -0.25,-0.059 -46.79,-6.891 -84.37,-44.113 -21.08,-20.926 -31.03,-40.852 -31.07,-57.696 -0.04,-13.031 6.21,-24.058 17.39,-31.152 4.35,-2.781 9.53,-3.902 15.07,-3.902 14.69,0.047 32.42,7.64 48.26,16.054 15.8,8.426 29.63,17.809 35.67,21.582 7.71,4.836 16.28,12.696 24.69,20.457 8.38,7.758 16.61,15.434 23.1,19.7 3.96,2.609 9.41,7.293 14.03,13.117 4.59,5.824 8.41,12.785 8.45,20.156 0.03,5.195 -2.09,10.496 -6.93,14.895 -4.82,4.425 -12.21,8.09 -23.01,10.851 l -0.31,0.078 h -0.31 v -2.5"
         style="fill:#231f20;fill-opacity:1;fill-rule:nonzero;stroke:none"
         transform="matrix(0.13333333,0,0,-0.13333333,0,154.81333)" />
      <path
         id="path5"
         d="m 260.141,934.867 c -4.543,-76.133 -45.743,-120.808 -114.129,-124.156 -22.633,90.633 -65.2386,154.48 -98.18,200.399 2.0157,-1.06 3.9258,-2.23 6.0821,-3.39 57.0239,-31.904 115.8129,-64.911 206.2269,-72.853"
         style="fill:#cecdcd;fill-opacity:1;fill-rule:nonzero;stroke:none"
         transform="matrix(0.13333333,0,0,-0.13333333,0,154.81333)" />
      <path
         id="path6"
         d="m 273.074,933.973 c -4.969,-81.403 -50.808,-131.598 -124.07,-136.2 2.5,-11.382 4.84,-23.05 6.641,-35.226 l -12.813,-1.848 C 124.203,883.645 66.3203,963.352 28.0469,1016.1 l -7.8555,11.04 c 0,0 3.0899,1.32 5.1797,3.72 2.0977,2.38 3.1953,5.78 3.1953,5.78 10.6797,-5.86 21.2149,-11.6 31.6484,-17.51 67.6012,-37.884 131.3632,-73.782 245.3442,-73.103 l 0.093,-12.945 c -11.304,-0.105 -22.101,0.273 -32.578,0.891 z M 146.012,810.711 c 68.386,3.348 109.586,48.023 114.129,124.156 -90.414,7.942 -149.203,40.949 -206.2269,72.853 -2.1563,1.16 -4.0664,2.33 -6.0821,3.39 32.9414,-45.919 75.547,-109.766 98.18,-200.399"
         style="fill:#231f20;fill-opacity:1;fill-rule:nonzero;stroke:none"
         transform="matrix(0.13333333,0,0,-0.13333333,0,154.81333)" />
      <path
         id="path7"
         d="m 222.641,851.77 c -19.668,-20.508 -46.157,-26.989 -59.157,-14.516 -13.015,12.543 -7.586,39.246 12.075,59.707 19.683,20.5 46.179,26.973 59.183,14.488 13.012,-12.488 7.598,-39.226 -12.101,-59.679"
         style="fill:#ffffff;fill-opacity:1;fill-rule:nonzero;stroke:none"
         transform="matrix(0.13333333,0,0,-0.13333333,0,154.81333)" />
      <path
         id="path8"
         d="m 214.855,851.273 c -8.8,-8.347 -21.742,-9.019 -28.902,-1.453 -7.191,7.543 -5.875,20.418 2.926,28.789 8.801,8.356 21.73,9.032 28.926,1.477 7.156,-7.551 5.84,-20.438 -2.95,-28.813"
         style="fill:#231f20;fill-opacity:1;fill-rule:nonzero;stroke:none"
         transform="matrix(0.13333333,0,0,-0.13333333,0,154.81333)" />
      <path
         id="path9"
         d="m 1509.54,1158.58 9.7,-37.63 17.32,34.79 1.66,-38.83 24.17,30.44 -6.44,-38.33 29.98,24.74 -14.28,-36.15 34.46,17.98 -21.47,-32.4 37.45,10.42 -27.74,-27.23 38.78,2.41 -32.8,-20.86 38.46,-5.73 -36.43,-13.58 36.43,-13.58 -38.46,-5.71 32.8,-20.865 -38.78,2.406 27.74,-27.23 -37.45,10.418 21.47,-32.391 -34.46,17.969 14.28,-36.157 -29.98,24.754 6.44,-38.336 -24.17,30.442 -1.66,-38.84 -17.32,34.805 -9.7,-37.641 -9.71,37.641 -17.31,-34.805 -1.67,38.84 -24.17,-30.442 6.45,38.336 -29.99,-24.754 14.28,36.157 -34.46,-17.969 21.48,32.391 -37.45,-10.418 27.75,27.23 -38.8,-2.406 32.8,20.865 -38.45,5.71 36.42,13.58 -36.42,13.58 38.45,5.73 -32.8,20.86 38.8,-2.41 -27.75,27.23 37.45,-10.42 -21.48,32.4 34.46,-17.98 -14.28,36.15 29.99,-24.74 -6.45,38.33 24.17,-30.44 1.67,38.83 17.31,-34.79 9.71,37.63"
         style="fill:#fddd1b;fill-opacity:1;fill-rule:nonzero;stroke:none"
         transform="matrix(0.13333333,0,0,-0.13333333,0,154.81333)" />
      <path
         id="path10"
         d="m 1509.54,1158.58 -2.42,-0.62 9.7,-37.64 c 0.26,-1.01 1.12,-1.75 2.16,-1.86 1.03,-0.11 2.03,0.44 2.5,1.37 l 13,26.12 1.24,-29.15 c 0.05,-1.04 0.74,-1.94 1.73,-2.27 0.99,-0.32 2.08,0.01 2.73,0.83 l 18.14,22.84 -4.83,-28.77 c -0.18,-1.02 0.31,-2.05 1.21,-2.57 0.9,-0.53 2.04,-0.43 2.84,0.23 l 22.5,18.57 -10.71,-27.13 c -0.39,-0.97 -0.13,-2.08 0.65,-2.78 0.77,-0.7 1.9,-0.84 2.83,-0.36 l 25.86,13.5 -16.12,-24.32 0.07,-2.85 c 0.61,-0.84 1.68,-1.22 2.69,-0.94 l 28.11,7.82 -20.83,-20.43 c -0.74,-0.73 -0.95,-1.85 -0.53,-2.8 0.43,-0.96 1.4,-1.55 2.44,-1.48 l 29.11,1.8 -24.62,-15.65 c -0.88,-0.56 -1.32,-1.61 -1.1,-2.63 0.21,-1.02 1.04,-1.8 2.07,-1.96 l 28.87,-4.29 -27.34,-10.2 c -0.98,-0.36 -1.63,-1.3 -1.63,-2.34 0,-1.04 0.65,-1.98 1.63,-2.34 l 27.33,-10.19 -28.86,-4.29 c -1.03,-0.15 -1.86,-0.93 -2.07,-1.95 -0.22,-1.02 0.22,-2.07 1.1,-2.63 l 24.62,-15.661 -29.11,1.804 c -1.04,0.067 -2.01,-0.523 -2.44,-1.476 -0.42,-0.949 -0.21,-2.071 0.53,-2.801 l 20.83,-20.441 -28.11,7.824 c -1,0.277 -2.08,-0.098 -2.69,-0.942 l -0.07,-2.851 16.12,-24.313 -25.86,13.489 c -0.93,0.48 -2.06,0.336 -2.83,-0.36 -0.78,-0.695 -1.04,-1.808 -0.65,-2.777 l 10.71,-27.129 -22.5,18.574 c -0.8,0.664 -1.94,0.758 -2.84,0.238 -0.9,-0.519 -1.39,-1.55 -1.21,-2.578 l 4.83,-28.773 -18.14,22.844 c -0.65,0.816 -1.74,1.148 -2.73,0.824 -0.99,-0.32 -1.68,-1.231 -1.73,-2.27 l -1.24,-29.148 -13,26.121 c -0.47,0.934 -1.47,1.48 -2.5,1.375 -1.04,-0.109 -1.9,-0.855 -2.16,-1.863 l -7.28,-28.25 -7.29,28.25 c -0.26,1.008 -1.12,1.754 -2.15,1.863 -1.04,0.105 -2.04,-0.441 -2.5,-1.375 l -13,-26.121 -1.25,29.148 c -0.05,1.039 -0.74,1.95 -1.73,2.27 -0.99,0.324 -2.08,-0.008 -2.73,-0.824 l -18.14,-22.84 4.84,28.769 c 0.17,1.028 -0.31,2.059 -1.21,2.578 -0.91,0.52 -2.04,0.426 -2.85,-0.238 l -22.5,-18.574 10.72,27.129 c 0.38,0.969 0.12,2.082 -0.66,2.777 -0.77,0.696 -1.9,0.84 -2.82,0.36 l -25.87,-13.485 16.12,24.309 -0.06,2.851 c -0.61,0.844 -1.69,1.219 -2.69,0.942 l -28.11,-7.824 20.83,20.441 c 0.74,0.73 0.95,1.852 0.53,2.801 -0.42,0.953 -1.4,1.543 -2.44,1.476 l -29.12,-1.804 24.62,15.661 c 0.88,0.56 1.32,1.61 1.11,2.63 -0.22,1.02 -1.05,1.8 -2.08,1.95 l -28.85,4.29 27.32,10.19 c 0.98,0.36 1.63,1.3 1.63,2.34 0,1.04 -0.65,1.98 -1.63,2.34 l -27.33,10.2 28.86,4.29 c 1.03,0.16 1.86,0.94 2.08,1.96 0.21,1.02 -0.23,2.07 -1.11,2.63 l -24.62,15.65 29.12,-1.8 c 1.04,-0.07 2.02,0.52 2.44,1.48 0.42,0.95 0.21,2.07 -0.53,2.8 l -20.83,20.43 28.11,-7.82 c 1,-0.28 2.08,0.1 2.69,0.94 l 0.06,2.85 -16.12,24.31 25.87,-13.49 c 0.92,-0.48 2.05,-0.34 2.82,0.36 0.78,0.7 1.04,1.81 0.66,2.78 l -10.72,27.13 22.5,-18.57 c 0.81,-0.66 1.94,-0.76 2.85,-0.23 0.9,0.52 1.38,1.55 1.21,2.57 l -4.84,28.77 18.14,-22.84 c 0.65,-0.82 1.74,-1.15 2.73,-0.83 0.99,0.33 1.68,1.23 1.73,2.27 l 1.25,29.15 13,-26.12 c 0.46,-0.93 1.46,-1.48 2.5,-1.37 1.03,0.11 1.89,0.85 2.15,1.86 l 9.71,37.64 -2.42,0.62 -2.42,-0.62 2.42,0.62 -2.42,0.62 -8.03,-31.14 -14.33,28.8 c -0.51,1.02 -1.65,1.57 -2.76,1.33 -1.12,-0.24 -1.93,-1.2 -1.98,-2.34 l -1.38,-32.14 -20,25.19 c -0.71,0.9 -1.94,1.2 -2.98,0.73 -1.04,-0.46 -1.63,-1.57 -1.45,-2.7 l 5.34,-31.72 -24.81,20.48 c -0.88,0.72 -2.14,0.76 -3.07,0.09 -0.92,-0.67 -1.27,-1.88 -0.85,-2.94 l 11.81,-29.91 -28.51,14.87 c -1.02,0.53 -2.26,0.31 -3.02,-0.54 -0.76,-0.85 -0.85,-2.1 -0.22,-3.05 l 17.77,-26.82 -30.99,8.62 c -1.1,0.31 -2.26,-0.17 -2.83,-1.15 -0.57,-0.99 -0.4,-2.24 0.41,-3.04 l 22.96,-22.53 -32.11,1.99 c -1.14,0.07 -2.18,-0.64 -2.53,-1.72 -0.35,-1.09 0.07,-2.27 1.04,-2.88 l 27.14,-17.27 -31.82,-4.73 c -1.12,-0.17 -1.99,-1.08 -2.11,-2.22 -0.12,-1.13 0.54,-2.2 1.61,-2.6 l 30.13,-11.24 -30.13,-11.24 c -1.07,-0.4 -1.73,-1.47 -1.61,-2.6 0.12,-1.14 0.99,-2.05 2.12,-2.21 l 31.81,-4.73 -27.14,-17.27 c -0.97,-0.609 -1.39,-1.797 -1.04,-2.879 0.35,-1.086 1.39,-1.793 2.53,-1.722 l 32.11,1.992 -22.96,-22.539 c -0.81,-0.797 -0.98,-2.047 -0.41,-3.035 0.57,-0.985 1.73,-1.461 2.83,-1.157 l 30.99,8.622 -17.77,-26.805 c -0.63,-0.949 -0.54,-2.207 0.22,-3.055 0.76,-0.847 2,-1.07 3.01,-0.543 l 28.52,14.871 -11.81,-29.918 c -0.42,-1.062 -0.07,-2.273 0.85,-2.941 0.93,-0.672 2.19,-0.633 3.07,0.094 l 24.81,20.484 -5.34,-31.726 c -0.18,-1.125 0.41,-2.235 1.45,-2.7 1.04,-0.461 2.27,-0.164 2.98,0.731 l 20,25.191 1.38,-32.14 c 0.05,-1.141 0.86,-2.102 1.98,-2.34 1.12,-0.239 2.25,0.312 2.76,1.332 l 14.33,28.801 8.03,-31.149 c 0.28,-1.105 1.28,-1.875 2.42,-1.875 1.14,0 2.13,0.77 2.42,1.875 l 8.03,31.152 14.33,-28.804 c 0.51,-1.024 1.65,-1.571 2.76,-1.332 1.12,0.238 1.93,1.199 1.98,2.34 l 1.37,32.136 20,-25.187 c 0.71,-0.895 1.94,-1.192 2.98,-0.731 1.04,0.465 1.64,1.575 1.45,2.7 l -5.33,31.726 24.81,-20.484 c 0.87,-0.727 2.13,-0.766 3.06,-0.094 0.92,0.668 1.27,1.879 0.85,2.941 l -11.81,29.918 28.52,-14.871 c 1.01,-0.527 2.25,-0.304 3.01,0.543 0.76,0.848 0.86,2.106 0.23,3.055 l -17.77,26.805 30.99,-8.622 c 1.1,-0.304 2.26,0.172 2.83,1.157 0.57,0.988 0.4,2.238 -0.41,3.035 l -22.96,22.539 32.1,-1.992 c 1.14,-0.071 2.18,0.636 2.53,1.722 0.35,1.082 -0.07,2.27 -1.03,2.879 l -27.15,17.27 31.83,4.73 c 1.12,0.16 2,1.07 2.12,2.21 0.11,1.13 -0.55,2.2 -1.62,2.6 l -30.14,11.24 30.14,11.24 c 1.07,0.4 1.73,1.47 1.62,2.6 -0.12,1.14 -1,2.05 -2.12,2.22 l -31.83,4.73 27.15,17.27 c 0.96,0.61 1.38,1.79 1.03,2.88 -0.35,1.08 -1.39,1.79 -2.53,1.72 l -32.1,-1.99 22.96,22.53 c 0.81,0.8 0.98,2.05 0.41,3.04 -0.57,0.98 -1.73,1.46 -2.83,1.15 l -31,-8.62 17.78,26.82 c 0.63,0.95 0.53,2.2 -0.23,3.05 -0.76,0.85 -2,1.07 -3.01,0.54 l -28.52,-14.87 11.81,29.91 c 0.42,1.06 0.07,2.27 -0.85,2.94 -0.92,0.67 -2.18,0.63 -3.06,-0.09 l -24.81,-20.48 5.33,31.72 c 0.19,1.13 -0.41,2.24 -1.45,2.7 -1.04,0.47 -2.27,0.17 -2.98,-0.73 l -20,-25.19 -1.37,32.14 c -0.05,1.14 -0.86,2.1 -1.98,2.34 -1.11,0.24 -2.25,-0.31 -2.76,-1.33 l -14.33,-28.81 -8.03,31.15 c -0.29,1.11 -1.28,1.88 -2.42,1.88 -1.14,0 -2.14,-0.77 -2.42,-1.88 l 2.42,-0.62"
         style="fill:#231f20;fill-opacity:1;fill-rule:nonzero;stroke:none"
         transform="matrix(0.13333333,0,0,-0.13333333,0,154.81333)" />
      <path
         id="path11"
         d="M 895.016,241.137 590.723,30.5 l 55.89,376.492 -351.367,383.59 -5.531,-5.066 348.957,-380.953 -57.91,-390.0747 318.519,220.4807 -4.265,6.168"
         style="fill:#231f20;fill-opacity:1;fill-rule:nonzero;stroke:none"
         transform="matrix(0.13333333,0,0,-0.13333333,0,154.81333)" />
      <path
         id="path12"
         d="m 1306.71,404.266 -13.95,-5.524 2.76,-6.972 13.95,5.523"
         style="fill:#231f20;fill-opacity:1;fill-rule:nonzero;stroke:none"
         transform="matrix(0.13333333,0,0,-0.13333333,0,154.81333)" />
      <path
         id="path13"
         d="m 1274.52,391.52 -27.36,-10.832 2.76,-6.977 27.36,10.836 z m -45.6,-18.055 -27.36,-10.836 2.76,-6.973 27.36,10.832 z m -45.6,-18.059 -27.36,-10.836 2.76,-6.972 27.36,10.836 z m -45.6,-18.058 -27.36,-10.832 2.76,-6.973 27.36,10.832 z m -45.6,-18.055 -27.36,-10.836 2.76,-6.973 27.36,10.832 z m -45.61,-18.059 -27.36,-10.836 2.77,-6.972 27.36,10.836 z m -45.6,-18.058 -27.355,-10.832 2.761,-6.973 27.364,10.832 z m -45.597,-18.055 -27.36,-10.836 2.762,-6.972 27.359,10.835"
         style="fill:#231f20;fill-opacity:1;fill-rule:nonzero;stroke:none"
         transform="matrix(0.13333333,0,0,-0.13333333,0,154.81333)" />
      <path
         id="path14"
         d="m 909.715,247.063 -13.945,-5.524 2.757,-6.973 13.946,5.524"
         style="fill:#231f20;fill-opacity:1;fill-rule:nonzero;stroke:none"
         transform="matrix(0.13333333,0,0,-0.13333333,0,154.81333)" />
      <path
         id="path15"
         d="m 1435.27,852.73 -130.79,-450.91 7.21,-2.086 130.78,450.907"
         style="fill:#231f20;fill-opacity:1;fill-rule:nonzero;stroke:none"
         transform="matrix(0.13333333,0,0,-0.13333333,0,154.81333)" />
      <path
         id="path16"
         d="m 1435.86,841.344 17.1,-18.653 0.68,0.571 -3.63,37.758 c 0.83,12.546 1.66,25.093 2.48,37.644 -6.02,-11.047 -12.03,-22.086 -18.05,-33.133 l -23.26,-29.949 0.14,-0.812 24.54,6.574"
         style="fill:#231f20;fill-opacity:1;fill-rule:nonzero;stroke:none"
         transform="matrix(0.13333333,0,0,-0.13333333,0,154.81333)" />
      <path
         id="path17"
         d="m 0,17.5 h 1987.42 v 10 H 0 Z"
         style="fill:#231f20;fill-opacity:1;fill-rule:nonzero;stroke:none"
         transform="matrix(0.13333333,0,0,-0.13333333,0,154.81333)" />
      <path
         id="path18"
         d="m 1308.09,398.121 h 679.801 v 10 H 1308.09 Z"
         style="fill:#231f20;fill-opacity:1;fill-rule:nonzero;stroke:none"
         transform="matrix(0.13333333,0,0,-0.13333333,0,154.81333)" />
      <path
         id="path19"
         d="M 0.472656,398.121 H 1308.0927 v 10 H 0.472656 Z"
         style="fill:#231f20;fill-opacity:1;fill-rule:nonzero;stroke:none"
         transform="matrix(0.13333333,0,0,-0.13333333,0,154.81333)" />
      <path
         id="path20"
         d="m 620.141,405.789 c 0,-12.426 10.074,-22.512 22.504,-22.512 12.418,0 22.496,10.086 22.496,22.512 0,12.414 -10.078,22.488 -22.496,22.488 -12.43,0 -22.504,-10.074 -22.504,-22.488"
         style="fill:#231f20;fill-opacity:1;fill-rule:nonzero;stroke:none"
         transform="matrix(0.13333333,0,0,-0.13333333,0,154.81333)" />
      <path
         id="path21"
         d="M 563.242,22.5117 C 563.242,10.082 573.32,0 585.754,0 598.164,0 608.242,10.082 608.242,22.5117 608.242,34.9219 598.164,45 585.754,45 573.32,45 563.242,34.9219 563.242,22.5117"
         style="fill:#231f20;fill-opacity:1;fill-rule:nonzero;stroke:none"
         transform="matrix(0.13333333,0,0,-0.13333333,0,154.81333)" />
      <path
         id="path22"
         d="m 874.648,238.063 c 0,-12.422 10.082,-22.508 22.508,-22.508 12.422,0 22.492,10.086 22.492,22.508 0,12.417 -10.07,22.492 -22.492,22.492 -12.426,0 -22.508,-10.075 -22.508,-22.492"
         style="fill:#231f20;fill-opacity:1;fill-rule:nonzero;stroke:none"
         transform="matrix(0.13333333,0,0,-0.13333333,0,154.81333)" />
      <path
         id="path23"
         d="m 1285.59,400.789 c 0,-12.426 10.07,-22.512 22.5,-22.512 12.42,0 22.5,10.086 22.5,22.512 0,12.414 -10.08,22.488 -22.5,22.488 -12.43,0 -22.5,-10.074 -22.5,-22.488"
         style="fill:#231f20;fill-opacity:1;fill-rule:nonzero;stroke:none"
         transform="matrix(0.13333333,0,0,-0.13333333,0,154.81333)" />
      <g
         id="g23"
         aria-label="T&#10;r&#10;β"
         transform="matrix(1.3333333,0,0,1.3333333,141.144,125.01747)">
        <path
           id="path24"
           d="m 5.7191484,-6.0716937 c -0.1640625,0.1757812 -0.234375,0.234375 -0.46875,0.234375 H 1.8636797 c -0.2460938,0 -0.3398438,-0.023437 -0.4453125,-0.234375 h -0.1875 C 1.1253984,-5.5677875 0.97305469,-4.9935687 0.80899219,-4.466225 H 1.0785234 C 1.2308672,-4.8295062 1.3832109,-5.0990375 1.5238359,-5.2748187 1.6878984,-5.4740375 1.8519609,-5.54435 2.6253984,-5.54435 h 0.4570313 l -0.8554688,4.4648438 c -0.1289062,0.7148437 -0.1875,0.7851562 -0.9492187,0.8320312 l -0.058594,0.24609375 h 2.449219 L 3.7269609,-0.247475 C 2.9183672,-0.29435 2.8480547,-0.35294375 2.9886797,-1.0795062 L 3.8207109,-5.54435 h 0.5390625 c 0.703125,0 0.890625,0.058594 0.9726563,0.28125 0.082031,0.1875 0.1054687,0.4570313 0.1054687,0.796875 l 0.2695313,-0.023437 c 0.058594,-0.4921875 0.1289062,-1.171875 0.2109375,-1.5820312 z m 0,0"
           style="fill:#231f20;fill-opacity:1;fill-rule:nonzero;stroke:none" />
        <path
           id="path25"
           d="m 5.7953203,-0.06290469 v -0.64453125 c -0.2929687,0.1171875 -0.5507812,0.1875 -0.8554687,0.24609375 v 0.12890625 c 0.3515625,0.046875 0.375,0.0703125 0.375,0.46875 V 1.3785016 c 0,0.3984375 -0.035156,0.4335937 -0.4101563,0.46875 V 1.9995953 H 6.2875078 V 1.8472516 C 5.8187578,1.8120953 5.7953203,1.7769391 5.7953203,1.3785016 V 0.27693906 c 0.1289063,-0.33984375 0.3164063,-0.515625 0.4804688,-0.515625 0.09375,0 0.1640625,0.0351563 0.2460937,0.12890625 0.035156,0.03515625 0.09375,0.03515625 0.1640625,0.01171875 0.1171875,-0.05859375 0.1875,-0.17578125 0.1875,-0.29296875 0,-0.15234375 -0.140625,-0.3046875 -0.3398437,-0.3046875 -0.2929688,0 -0.5507813,0.33984375 -0.7265625,0.6328125 z m 0,0"
           style="fill:#231f20;fill-opacity:1;fill-rule:nonzero;stroke:none" />
        <path
           id="path26"
           d="m -17.571867,11.169517 c 0.1875,-0.01172 0.585937,-0.09375 0.773437,-0.292969 0.07031,-0.117187 0.117188,-0.445312 0.316407,-1.6406246 0.175781,-1.078125 0.410156,-2.4023437 0.574218,-3.3398437 0.351563,-1.8867188 0.65625,-3.0703125 1.488282,-3.0703125 0.421875,0 0.679687,0.3398437 0.679687,0.84375 0,0.5625 -0.304687,1.0898437 -0.820312,1.453125 -0.140625,0.09375 -0.304688,0.140625 -0.527344,0.1640625 l -0.199219,0.3984375 c 0.796875,0.1171875 1.359375,0.609375 1.359375,1.3945312 0,0.7734375 -0.398437,1.40625 -1.347656,1.40625 -0.316406,0 -0.667969,-0.1171875 -0.867188,-0.2109375 l -0.08203,0.1640625 c 0.07031,0.2578125 0.316406,0.5507813 0.667969,0.5507813 0.328125,0 0.714844,-0.1523438 1.125,-0.3984375 0.65625,-0.3867188 1.207031,-1.0195313 1.230469,-1.7578125 0.01172,-0.8085938 -0.503907,-1.265625 -1.183594,-1.5351563 0.574219,-0.3867187 1.3125,-0.9257812 1.3125,-1.7578125 0,-0.6796875 -0.433594,-1.1015625 -1.042969,-1.1015625 -0.421875,0 -0.855469,0.1992188 -1.253906,0.5976563 -0.5625,0.5390625 -0.867188,1.2070312 -1.136719,2.6484375 -0.222656,1.2421875 -0.445312,2.4375 -0.65625,3.5507812 -0.246094,1.2890626 -0.351562,1.6523436 -0.457031,1.7460936 z m 0,0"
           style="fill:#231f20;fill-opacity:1;fill-rule:nonzero;stroke:none" />
      </g>
    </g>
  </g>
</svg>
