<?xml version="1.0" encoding="UTF-8" standalone="no"?>
<!-- Created with Inkscape (http://www.inkscape.org/) -->

<svg
   version="1.1"
   id="svg1"
   width="407.61334"
   height="134.73334"
   viewBox="0 0 407.61334 134.73334"
   sodipodi:docname="pha14f03.eps"
   xmlns:inkscape="http://www.inkscape.org/namespaces/inkscape"
   xmlns:sodipodi="http://sodipodi.sourceforge.net/DTD/sodipodi-0.dtd"
   xmlns="http://www.w3.org/2000/svg"
   xmlns:svg="http://www.w3.org/2000/svg">
  <defs
     id="defs1" />
  <sodipodi:namedview
     id="namedview1"
     pagecolor="#ffffff"
     bordercolor="#000000"
     borderopacity="0.25"
     inkscape:showpageshadow="2"
     inkscape:pageopacity="0.0"
     inkscape:pagecheckerboard="0"
     inkscape:deskcolor="#d1d1d1">
    <inkscape:page
       x="0"
       y="0"
       inkscape:label="1"
       id="page1"
       width="407.61334"
       height="134.73334"
       margin="0"
       bleed="0" />
  </sodipodi:namedview>
  <g
     id="g1"
     inkscape:groupmode="layer"
     inkscape:label="1">
    <g
       id="group-R5">
      <g
         id="g2"
         aria-label="σ&#10;maj&#10;τ&#10;tt&#10;4&#10;3&#10;2&#10;1&#10;1.0&#10;0.8&#10;0.6&#10;0.4&#10;0.2&#10;0.20.40.6&#10;(a)(b)&#10;0.81.00.20.40.60.81.0"
         transform="matrix(1.3333333,0,0,1.3333333,184.08933,42.056267)">
        <path
           id="path2"
           d="m 2.8949141,-4.0324344 c -1.4414063,-0.011719 -2.49609379,1.2539063 -2.49609379,2.6367188 0,0.96093748 0.50390625,1.49999998 1.25390629,1.49999998 1.1601562,0 2.1328125,-1.12499998 2.1328125,-2.30859378 0,-0.515625 -0.082031,-0.890625 -0.5039063,-1.2773437 l 0.011719,-0.023437 c 0.2929687,0.035156 0.5976562,0.082031 0.8671875,0.082031 0.28125,0 0.4804687,-0.2929687 0.5976562,-0.6328125 l -0.1640627,-0.105469 c -0.140625,0.140625 -0.2695312,0.1992187 -0.4804687,0.1992187 -0.328125,0 -0.7148438,-0.070312 -1.21875,-0.070312 z m -0.3398438,0.4570313 c 0.1757813,0 0.3398438,0.09375 0.4335938,0.2929687 0.1054687,0.2109375 0.1289062,0.4335938 0.1289062,0.8085938 0,0.7734375 -0.375,2.26171873 -1.2773437,2.26171873 -0.4570313,0 -0.7148438,-0.4453125 -0.7148438,-1.12500003 0,-1.0078125 0.5273438,-2.2382812 1.4296875,-2.2382812 z m 0,0"
           style="fill:#231f20;fill-opacity:1;fill-rule:nonzero;stroke:none" />
        <path
           id="path3"
           d="M 9.0648359,1.9997922 V 1.8474484 C 8.7132734,1.8122922 8.6663984,1.7888547 8.6663984,1.3786984 V 0.21854219 c 0,-0.5859375 -0.2929687,-0.9140625 -0.7617187,-0.9140625 -0.1640625,0 -0.3164063,0.0703125 -0.4453125,0.15234375 -0.1523438,0.09375 -0.328125,0.2109375 -0.5039063,0.33984375 -0.1171875,-0.31640625 -0.375,-0.4921875 -0.65625,-0.4921875 -0.1992187,0 -0.3398437,0.0703125 -0.4921875,0.1640625 -0.1875,0.1171875 -0.3164062,0.22265625 -0.4453125,0.3046875 v -0.48046875 c -0.2578125,0.1171875 -0.5625,0.1875 -0.8320312,0.24609375 v 0.12890625 c 0.3515625,0.0585938 0.3632812,0.09375 0.3632812,0.46875 V 1.3786984 c 0,0.3984375 -0.046875,0.4335938 -0.4453125,0.46875 v 0.1523438 h 1.265625 V 1.8474484 C 5.4203047,1.8122922 5.3734297,1.7771359 5.3734297,1.3786984 v -1.40624996 c 0.1757812,-0.15234375 0.4101562,-0.31640625 0.6445312,-0.31640625 0.375,0 0.5273438,0.24609375 0.5273438,0.69140625 V 1.3786984 c 0,0.3984375 -0.058594,0.4335938 -0.421875,0.46875 V 1.9997922 H 7.4007734 V 1.8474484 C 7.0726484,1.8122922 7.0140547,1.7771359 7.0140547,1.3904172 V 0.21854219 c 0,-0.10546875 0,-0.17578125 -0.011719,-0.24609375 0.2226563,-0.1875 0.4570313,-0.31640625 0.6679688,-0.31640625 0.3867187,0 0.5273437,0.26953125 0.5273437,0.703125 V 1.3552609 c 0,0.4335938 -0.058594,0.4570313 -0.421875,0.4921875 v 0.1523438 z m 2.7158201,-0.234375 -0.05859,-0.1523438 c -0.07031,0.035156 -0.152343,0.058594 -0.222656,0.058594 -0.105469,0 -0.210937,-0.082031 -0.210937,-0.3515625 V 0.19510469 c 0,-0.3046875 -0.05859,-0.55078125 -0.269532,-0.7265625 -0.128906,-0.10546875 -0.304687,-0.1640625 -0.492187,-0.1640625 -0.339844,0.0703125 -0.7265625,0.3046875 -0.9023438,0.421875 -0.1054687,0.0820312 -0.1875,0.15234375 -0.1875,0.234375 0,0.140625 0.1523438,0.2578125 0.2695313,0.2578125 0.082031,0 0.140625,-0.0351563 0.1640625,-0.12890625 0.046875,-0.1875 0.1054687,-0.31640625 0.1875,-0.3984375 0.05859,-0.0703125 0.152344,-0.1171875 0.269531,-0.1171875 0.292969,0 0.503906,0.24609375 0.503906,0.66796875 v 0.1171875 C 10.702531,0.46463594 10.257219,0.62869844 9.8939375,0.74588594 9.5658125,0.86307344 9.4134687,1.0505734 9.4134687,1.3435422 c 0,0.375 0.2929688,0.7265625 0.7148433,0.7265625 0.1875,0 0.46875,-0.2226563 0.714844,-0.3867188 0.02344,0.1054688 0.05859,0.1875 0.140625,0.2695313 0.07031,0.070312 0.1875,0.1171875 0.28125,0.1171875 z M 10.831437,1.4958859 c -0.117187,0.1054688 -0.328125,0.2109375 -0.480468,0.2109375 -0.1875,0 -0.433594,-0.140625 -0.433594,-0.4570312 0,-0.2109375 0.140625,-0.32812501 0.375,-0.43359376 0.117187,-0.0585938 0.410156,-0.1875 0.539062,-0.2578125 z m 1.675782,-2.7070312 c 0.164062,0 0.304687,-0.1523438 0.304687,-0.3164063 0,-0.1757812 -0.140625,-0.3046875 -0.292969,-0.3046875 -0.175781,0 -0.304687,0.1289063 -0.304687,0.3046875 0,0.1640625 0.128906,0.3164063 0.292969,0.3164063 z m -0.609375,0.87890624 c 0.375,0.046875 0.410156,0.0703125 0.410156,0.48046875 V 1.3201047 c 0,0.5507812 -0.01172,0.9023437 -0.04687,1.1601562 -0.03516,0.2109375 -0.08203,0.3398438 -0.152344,0.4335938 -0.08203,0.1054687 -0.246094,0.1757812 -0.433594,0.2226562 -0.09375,0.023437 -0.128906,0.070312 -0.128906,0.140625 0,0.140625 0.128906,0.2695313 0.222656,0.2695313 0.03516,0 0.09375,-0.023437 0.140625,-0.070312 0.140625,-0.1171875 0.527344,-0.5742188 0.726563,-1.171875 0.117187,-0.328125 0.140625,-0.5859375 0.140625,-0.9726563 v -2.03906246 c -0.257813,0.10546875 -0.550781,0.1875 -0.878906,0.234375 z m 0,0"
           style="fill:#231f20;fill-opacity:1;fill-rule:nonzero;stroke:none" />
        <path
           id="path4"
           d="m 3.9847578,4.8386594 c -0.1523437,0.2460937 -0.2578125,0.2578125 -0.46875,0.2578125 -0.5742187,0 -1.0078125,-0.035156 -1.4882812,-0.035156 C 1.0667891,5.0495969 0.64491406,5.5886594 0.41053906,5.9285031 l 0.1640625,0.1757813 C 1.0199141,5.6472531 1.4417891,5.5300656 2.1097578,5.5769406 1.9339766,6.2566281 1.7113203,7.1120969 1.4886641,8.0730344 c -0.1640625,0.7734375 0.011719,1.03125 0.3164062,1.03125 0.3867188,0 0.8554688,-0.328125 1.21875,-0.7851563 L 2.8949141,8.0964719 c -0.2109375,0.2109375 -0.46875,0.3867187 -0.609375,0.3867187 -0.1171875,0 -0.1757813,-0.1757812 -0.09375,-0.6210937 0.1523437,-0.7851563 0.3515625,-1.59375 0.5039062,-2.2617188 0.1523438,0 0.328125,0.011719 0.5039063,0.023437 0.3164062,0.011719 0.5859375,0.011719 0.703125,-0.023437 0.082031,-0.1171875 0.1875,-0.3398437 0.328125,-0.7265625 z M -71.234969,51.265417 h -1.054687 l 0.316406,-1.359375 -0.08203,-0.04687 -0.679688,0.550781 -0.210937,0.855469 h -0.539063 l -0.222656,0.269531 0.02344,0.08203 h 0.667969 l -0.527344,2.472656 c -0.199218,0.925781 -0.02344,1.183594 0.1875,1.183594 0.480469,0 1.148438,-0.597657 1.453125,-0.960938 l -0.128906,-0.1875 c -0.210937,0.222656 -0.65625,0.515625 -0.808594,0.515625 -0.105468,0 -0.140625,-0.09375 -0.05859,-0.539062 l 0.539062,-2.484375 0.890625,-0.03516 z m 182.214839,0 h -1.05468 l 0.3164,-1.359375 -0.082,-0.04687 -0.67969,0.550781 -0.21093,0.855469 h -0.53907 l -0.22265,0.269531 0.0234,0.08203 h 0.66796 l -0.52734,2.472656 c -0.19922,0.925781 -0.0234,1.183594 0.1875,1.183594 0.48047,0 1.14844,-0.597657 1.45313,-0.960938 l -0.12891,-0.1875 c -0.21094,0.222656 -0.65625,0.515625 -0.80859,0.515625 -0.10547,0 -0.14063,-0.09375 -0.0586,-0.539062 l 0.53906,-2.484375 0.89063,-0.03516 z m 0,0"
           style="fill:#231f20;fill-opacity:1;fill-rule:nonzero;stroke:none" />
        <path
           id="path5"
           d="m -134.42247,-26.262903 v -0.375 h -0.76172 v -3.257813 h -0.3164 c -0.83203,1.089844 -1.64063,2.273438 -2.40235,3.410157 v 0.222656 h 2.07422 v 0.585937 c 0,0.527344 -0.0234,0.574219 -0.72656,0.632813 v 0.210937 h 2.05078 v -0.210937 c -0.64453,-0.05859 -0.67969,-0.105469 -0.67969,-0.632813 v -0.585937 z m -1.40625,-0.375 h -1.57031 c 0.52734,-0.878906 1.04297,-1.640625 1.55859,-2.355469 h 0.0117 z m -1.55859,13.854492 c 0.19922,-0.292969 0.51562,-0.632812 0.96094,-0.632812 0.42187,0 0.76171,0.257812 0.76171,0.75 0,0.597656 -0.55078,0.914062 -1.27734,1.136718 l 0.0469,0.234375 c 0.1289,-0.03516 0.32812,-0.08203 0.51562,-0.08203 0.45703,0 1.01953,0.292969 1.01953,1.03125 0,0.7851563 -0.39844,1.2187501 -0.97265,1.2187501 -0.45704,0 -0.78516,-0.2226563 -0.98438,-0.4101563 -0.0703,-0.058594 -0.12891,-0.046875 -0.19922,0 -0.0703,0.058594 -0.17578,0.1640625 -0.1875,0.2578125 -0.0117,0.1054688 0.0234,0.1875 0.12891,0.2929688 0.10547,0.09375 0.43359,0.2695312 0.80859,0.2695312 0.57422,0 2.09766,-0.5859375 2.09766,-1.8867183 0,-0.585938 -0.41016,-1.078125 -1.11328,-1.21875 v -0.01172 c 0.22265,-0.164063 0.42187,-0.304688 0.53906,-0.433594 0.15234,-0.152344 0.24609,-0.339844 0.24609,-0.574219 0,-0.597656 -0.46875,-1.054687 -1.18359,-1.054687 -0.43359,0 -0.79688,0.199219 -1.01953,0.457031 l -0.35156,0.503906 z m 2.61328,18.8671876 c -0.23438,0.5039062 -0.33984,0.5390625 -0.77344,0.5390625 h -1.5 l 1.13672,-1.1953125 c 0.73828,-0.7851563 1.06641,-1.2539063 1.06641,-1.9453125 0,-0.84375 -0.64453,-1.359375 -1.34766,-1.359375 -0.46875,0 -0.84375,0.2109375 -1.07812,0.4804687 l -0.45704,0.6445313 0.17579,0.1640625 c 0.19921,-0.3164063 0.53906,-0.75 1.08984,-0.75 0.58594,0 0.9375,0.3984375 0.9375,1.0664062 0,0.6914063 -0.50391,1.3476563 -0.99609,1.9335938 -0.39844,0.46875 -0.85547,0.9257812 -1.30079,1.359375 v 0.1875 h 3 c 0.0937,-0.3632813 0.17579,-0.7148438 0.28125,-1.0429688 z m -0.22266,17.1445314 V 23.01737 c -0.72656,-0.05859 -0.77343,-0.128906 -0.77343,-0.703125 V 18.14237 c -0.44532,0.175782 -0.91407,0.328125 -1.42969,0.421875 v 0.1875 l 0.38672,0.01172 c 0.35156,0.01172 0.38672,0.05859 0.38672,0.46875 v 3.082031 c 0,0.574219 -0.0352,0.644532 -0.77344,0.703125 v 0.210938 z M 44.83925,-23.731653 v -0.210938 c -0.726563,-0.05859 -0.773438,-0.128906 -0.773438,-0.703125 v -4.171875 c -0.445312,0.175782 -0.914062,0.328125 -1.429687,0.421875 v 0.1875 l 0.386719,0.01172 c 0.351562,0.01172 0.386718,0.05859 0.386718,0.46875 v 3.082031 c 0,0.574219 -0.03516,0.644532 -0.773437,0.703125 v 0.210938 z m 1.68457,0.09375 c 0.257813,0 0.445313,-0.1875 0.445313,-0.457031 0,-0.257813 -0.1875,-0.457032 -0.445313,-0.457032 -0.257812,0 -0.445312,0.199219 -0.445312,0.457032 0,0.269531 0.1875,0.457031 0.445312,0.457031 z m 2.830078,-5.179688 c -1.207031,0 -1.640625,1.429688 -1.640625,2.601563 0,1.265625 0.433594,2.578125 1.640625,2.578125 1.195313,0 1.628907,-1.417969 1.628907,-2.589844 0,-1.230469 -0.433594,-2.589844 -1.628907,-2.589844 z m -0.01172,0.269532 c 0.726562,0 0.925781,1.183593 0.925781,2.320312 0,1.125 -0.199219,2.320313 -0.914063,2.320313 -0.703125,0 -0.925781,-1.207032 -0.925781,-2.332032 0,-1.113281 0.1875,-2.308593 0.914063,-2.308593 z m -5.651368,13.921875 c -1.207031,0 -1.640625,1.429687 -1.640625,2.601562 0,1.265625 0.433594,2.5781251 1.640625,2.5781251 1.195313,0 1.628907,-1.4179691 1.628907,-2.5898441 0,-1.230468 -0.433594,-2.589843 -1.628907,-2.589843 z m -0.01172,0.269531 c 0.726562,0 0.925781,1.183594 0.925781,2.320312 0,1.125 -0.199219,2.3203129 -0.914063,2.3203129 -0.703125,0 -0.925781,-1.2070309 -0.925781,-2.3320309 0,-1.113282 0.1875,-2.308594 0.914063,-2.308594 z m 2.844726,4.9101561 c 0.257813,0 0.445313,-0.1875 0.445313,-0.4570312 0,-0.2578129 -0.1875,-0.4570309 -0.445313,-0.4570309 -0.257812,0 -0.445312,0.199218 -0.445312,0.4570309 0,0.2695312 0.1875,0.4570312 0.445312,0.4570312 z m 2.888672,-5.1796871 c -0.855469,0 -1.417969,0.644531 -1.417969,1.3125 0,0.5625 0.339844,0.949218 0.867188,1.242187 -0.28125,0.175781 -0.585938,0.398438 -0.714844,0.515625 -0.175781,0.164063 -0.351562,0.386719 -0.351562,0.761719 0,0.8554686 0.679687,1.3476561 1.535156,1.3476561 0.679687,0 1.582031,-0.515625 1.582031,-1.4414061 0,-0.703125 -0.503906,-1.089844 -1.054687,-1.394531 0.363281,-0.246094 0.574218,-0.445313 0.632812,-0.515625 0.152344,-0.175782 0.234375,-0.410157 0.234375,-0.644532 0,-0.644531 -0.550781,-1.183593 -1.3125,-1.183593 z m -0.07031,0.257812 c 0.363281,0 0.773437,0.292969 0.773437,0.972656 0,0.480469 -0.210937,0.773438 -0.480469,0.984375 -0.574218,-0.269531 -1.042968,-0.539062 -1.042968,-1.125 0,-0.410156 0.269531,-0.832031 0.75,-0.832031 z m 0.07031,4.6640626 c -0.503906,0 -0.984375,-0.3984376 -0.984375,-1.1367186 0,-0.445313 0.28125,-0.84375 0.65625,-1.101563 0.621094,0.316407 1.183594,0.65625 1.183594,1.253907 0,0.621093 -0.375,0.9843746 -0.855469,0.9843746 z m -5.72168,9.26660159 c -1.207031,0 -1.640625,1.4296875 -1.640625,2.60156251 0,1.265625 0.433594,2.578125 1.640625,2.578125 1.195313,0 1.628907,-1.4179688 1.628907,-2.5898438 0,-1.23046871 -0.433594,-2.58984371 -1.628907,-2.58984371 z m -0.01172,0.26953125 c 0.726562,0 0.925781,1.18359376 0.925781,2.32031246 0,1.125 -0.199219,2.3203125 -0.914063,2.3203125 -0.703125,0 -0.925781,-1.2070312 -0.925781,-2.3320312 0,-1.1132813 0.1875,-2.30859376 0.914063,-2.30859376 z M 46.52382,4.7419797 c 0.257813,0 0.445313,-0.1875 0.445313,-0.4570313 0,-0.2578125 -0.1875,-0.4570312 -0.445313,-0.4570312 -0.257812,0 -0.445312,0.1992187 -0.445312,0.4570312 0,0.2695313 0.1875,0.4570313 0.445312,0.4570313 z m 2.009766,-2.8359375 c 0.234375,-1.11328126 0.984375,-1.61718751 1.464844,-1.85156251 0.304687,-0.140625 0.609375,-0.234375 0.878906,-0.28125 l -0.05859,-0.2578125 c -0.316406,0.0585938 -0.703125,0.140625 -1.03125,0.2578125 -0.84375,0.31640625 -2.0625,1.21875 -2.0625,2.96484371 0,1.2421875 0.703125,2.0039063 1.640625,2.0039063 0.960938,0 1.640625,-0.8085938 1.640625,-1.7578125 0,-0.8203125 -0.585937,-1.4765625 -1.441406,-1.4765625 -0.152344,0 -0.328125,0.046875 -0.503906,0.1289062 z m 0.726562,0.046875 c 0.726563,0 1.066407,0.65625 1.066407,1.3242187 0,0.5273438 -0.199219,1.1953125 -0.820313,1.1953125 -0.65625,0 -1.066406,-0.7851562 -1.066406,-1.7460937 0,-0.2109375 0.01172,-0.3984375 0.04687,-0.5507813 0.199219,-0.1054687 0.46875,-0.2226562 0.773437,-0.2226562 z M 43.690812,13.753698 c -1.207031,0 -1.640625,1.429688 -1.640625,2.601563 0,1.265625 0.433594,2.578125 1.640625,2.578125 1.195313,0 1.628907,-1.417969 1.628907,-2.589844 0,-1.230469 -0.433594,-2.589844 -1.628907,-2.589844 z m -0.01172,0.269532 c 0.726562,0 0.925781,1.183593 0.925781,2.320312 0,1.125 -0.199219,2.320313 -0.914063,2.320313 -0.703125,0 -0.925781,-1.207032 -0.925781,-2.332032 0,-1.113281 0.1875,-2.308593 0.914063,-2.308593 z m 2.844726,4.910156 c 0.257813,0 0.445313,-0.1875 0.445313,-0.457031 0,-0.257813 -0.1875,-0.457032 -0.445313,-0.457032 -0.257812,0 -0.445312,0.199219 -0.445312,0.457032 0,0.269531 0.1875,0.457031 0.445312,0.457031 z m 4.552735,-1.523438 v -0.375 H 50.314836 V 13.777136 H 49.99843 c -0.832032,1.089844 -1.640625,2.273437 -2.402344,3.410156 v 0.222656 h 2.074219 v 0.585938 c 0,0.527344 -0.02344,0.574219 -0.726563,0.632812 v 0.210938 h 2.050781 v -0.210938 c -0.644531,-0.05859 -0.679687,-0.105468 -0.679687,-0.632812 v -0.585938 z m -1.40625,-0.375 H 48.09999 c 0.527344,-0.878906 1.042969,-1.640625 1.558594,-2.355468 h 0.01172 z M 43.69081,27.942175 c -1.207031,0 -1.640625,1.429688 -1.640625,2.601563 0,1.265625 0.433594,2.578125 1.640625,2.578125 1.195313,0 1.628907,-1.417969 1.628907,-2.589844 0,-1.230469 -0.433594,-2.589844 -1.628907,-2.589844 z m -0.01172,0.269531 c 0.726562,0 0.925781,1.183594 0.925781,2.320313 0,1.125 -0.199219,2.320312 -0.914063,2.320312 -0.703125,0 -0.925781,-1.207031 -0.925781,-2.332031 0,-1.113281 0.1875,-2.308594 0.914063,-2.308594 z m 2.844726,4.910157 c 0.257813,0 0.445313,-0.1875 0.445313,-0.457032 0,-0.257812 -0.1875,-0.457031 -0.445313,-0.457031 -0.257812,0 -0.445312,0.199219 -0.445312,0.457031 0,0.269532 0.1875,0.457032 0.445312,0.457032 z m 4.201172,-1.21875 c -0.234375,0.503906 -0.339844,0.539062 -0.773437,0.539062 h -1.5 l 1.136718,-1.195312 c 0.738282,-0.785157 1.066407,-1.253907 1.066407,-1.945313 0,-0.84375 -0.644532,-1.359375 -1.347657,-1.359375 -0.46875,0 -0.84375,0.210938 -1.078125,0.480469 l -0.457031,0.644531 0.175781,0.164063 c 0.199219,-0.316407 0.539063,-0.75 1.089844,-0.75 0.585938,0 0.9375,0.398437 0.9375,1.066406 0,0.691406 -0.503906,1.347656 -0.996094,1.933594 -0.398437,0.46875 -0.855468,0.925781 -1.300781,1.359375 v 0.1875 h 3 c 0.09375,-0.363282 0.175781,-0.714844 0.28125,-1.042969 z m -160.810538,9.530273 c -1.20704,0 -1.64063,1.429687 -1.64063,2.601562 0,1.265625 0.43359,2.578125 1.64063,2.578125 1.19531,0 1.6289,-1.417968 1.6289,-2.589843 0,-1.230469 -0.43359,-2.589844 -1.6289,-2.589844 z m -0.0117,0.269531 c 0.72656,0 0.92578,1.183594 0.92578,2.320313 0,1.125 -0.19922,2.320312 -0.91406,2.320312 -0.70313,0 -0.92579,-1.207031 -0.92579,-2.332031 0,-1.113281 0.1875,-2.308594 0.91407,-2.308594 z m 2.84179,4.910156 c 0.25782,0 0.44532,-0.1875 0.44532,-0.457031 0,-0.257812 -0.1875,-0.457031 -0.44532,-0.457031 -0.25781,0 -0.44531,0.199219 -0.44531,0.457031 0,0.269531 0.1875,0.457031 0.44531,0.457031 z m 4.2041,-1.21875 c -0.23437,0.503907 -0.33984,0.539063 -0.77343,0.539063 h -1.5 l 1.13672,-1.195313 c 0.73828,-0.785156 1.0664,-1.253906 1.0664,-1.945312 0,-0.84375 -0.64453,-1.359375 -1.34765,-1.359375 -0.46875,0 -0.84375,0.210937 -1.07813,0.480469 l -0.45703,0.644531 0.17578,0.164062 c 0.19922,-0.316406 0.53906,-0.75 1.08984,-0.75 0.58594,0 0.9375,0.398438 0.9375,1.066407 0,0.691406 -0.5039,1.347656 -0.99609,1.933593 -0.39844,0.46875 -0.85547,0.925782 -1.30078,1.359375 v 0.1875 h 3 c 0.0937,-0.363281 0.17578,-0.714843 0.28125,-1.042968 z m 15.079103,-3.960937 c -1.207032,0 -1.640625,1.429687 -1.640625,2.601562 0,1.265625 0.433593,2.578125 1.640625,2.578125 1.195312,0 1.628906,-1.417968 1.628906,-2.589843 0,-1.230469 -0.433594,-2.589844 -1.628906,-2.589844 z m -0.01172,0.269531 c 0.726562,0 0.925781,1.183594 0.925781,2.320313 0,1.125 -0.199219,2.320312 -0.914062,2.320312 -0.703125,0 -0.925782,-1.207031 -0.925782,-2.332031 0,-1.113281 0.1875,-2.308594 0.914063,-2.308594 z m 2.841797,4.910156 c 0.257812,0 0.445312,-0.1875 0.445312,-0.457031 0,-0.257812 -0.1875,-0.457031 -0.445312,-0.457031 -0.257813,0 -0.445313,0.199219 -0.445313,0.457031 0,0.269531 0.1875,0.457031 0.445313,0.457031 z m 4.555664,-1.523437 v -0.375 h -0.761719 v -3.257813 h -0.316406 c -0.832032,1.089844 -1.640625,2.273438 -2.402344,3.410157 v 0.222656 h 2.074219 v 0.585937 c 0,0.527344 -0.02344,0.574219 -0.726563,0.632813 v 0.210937 h 2.050781 v -0.210937 c -0.644531,-0.05859 -0.679687,-0.105469 -0.679687,-0.632813 v -0.585937 z m -1.40625,-0.375 h -1.570313 c 0.527344,-0.878906 1.042969,-1.640625 1.558594,-2.355469 h 0.01172 z m 16.130859,-3.28125 c -1.207031,0 -1.640625,1.429687 -1.640625,2.601562 0,1.265625 0.433594,2.578125 1.640625,2.578125 1.195313,0 1.628906,-1.417968 1.628906,-2.589843 0,-1.230469 -0.433593,-2.589844 -1.628906,-2.589844 z m -0.01172,0.269531 c 0.726563,0 0.925782,1.183594 0.925782,2.320313 0,1.125 -0.199219,2.320312 -0.914063,2.320312 -0.703125,0 -0.925781,-1.207031 -0.925781,-2.332031 0,-1.113281 0.1875,-2.308594 0.914062,-2.308594 z m 2.844727,4.910156 c 0.257812,0 0.445312,-0.1875 0.445312,-0.457031 0,-0.257812 -0.1875,-0.457031 -0.445312,-0.457031 -0.257813,0 -0.445313,0.199219 -0.445313,0.457031 0,0.269531 0.1875,0.457031 0.445313,0.457031 z m 2.012695,-2.835937 c 0.234375,-1.113281 0.984375,-1.617188 1.464844,-1.851563 0.304687,-0.140625 0.609375,-0.234375 0.878906,-0.28125 l -0.05859,-0.257812 c -0.316406,0.05859 -0.703125,0.140625 -1.03125,0.257812 -0.84375,0.316407 -2.0625,1.21875 -2.0625,2.964844 0,1.242188 0.703125,2.003906 1.640625,2.003906 0.960938,0 1.640625,-0.808593 1.640625,-1.757812 0,-0.820313 -0.585937,-1.476563 -1.441406,-1.476563 -0.152344,0 -0.328125,0.04687 -0.503906,0.128907 z m 0.726563,0.04687 c 0.726562,0 1.066406,0.65625 1.066406,1.324219 0,0.527343 -0.199219,1.195312 -0.820313,1.195312 -0.65625,0 -1.066406,-0.785156 -1.066406,-1.746094 0,-0.210937 0.01172,-0.398437 0.04687,-0.550781 0.199219,-0.105469 0.46875,-0.222656 0.773438,-0.222656 z m -5.428711,23.616211 c -0.796875,-0.667969 -1.253906,-1.957031 -1.253906,-3.328125 0,-1.382813 0.457031,-2.671875 1.253906,-3.339844 l -0.140625,-0.175781 c -1.171875,0.785156 -1.699219,2.074219 -1.699219,3.503906 0,1.453125 0.527344,2.730469 1.699219,3.515625 z m 4.180664,-1.488281 -0.08203,-0.199219 c -0.08203,0.04687 -0.1875,0.08203 -0.292969,0.08203 -0.128906,0 -0.28125,-0.117187 -0.28125,-0.480469 v -1.488281 c 0,-0.410156 -0.07031,-0.738281 -0.351563,-0.972656 -0.175781,-0.152344 -0.421875,-0.222656 -0.65625,-0.222656 -0.457031,0.09375 -0.984375,0.398437 -1.207031,0.5625 -0.152344,0.117187 -0.257812,0.199218 -0.257812,0.316406 0,0.1875 0.210937,0.351562 0.351562,0.351562 0.117188,0 0.199219,-0.05859 0.234375,-0.1875 0.07031,-0.246093 0.140625,-0.421875 0.246094,-0.527343 0.08203,-0.09375 0.199219,-0.164063 0.351562,-0.164063 0.410157,0 0.679688,0.328125 0.679688,0.914063 v 0.140625 c -0.175781,0.140625 -0.761719,0.363281 -1.242188,0.515625 -0.445312,0.152343 -0.644531,0.398437 -0.644531,0.796875 0,0.503906 0.386719,0.972656 0.960938,0.972656 0.234375,0 0.621093,-0.292969 0.9375,-0.515625 0.04687,0.140625 0.09375,0.257812 0.199218,0.363281 0.08203,0.08203 0.246094,0.152344 0.375,0.152344 z m -1.265625,-0.351563 c -0.152344,0.140625 -0.433594,0.28125 -0.644531,0.28125 -0.246094,0 -0.5625,-0.199219 -0.5625,-0.609375 0,-0.292969 0.175781,-0.445312 0.480468,-0.585937 0.175782,-0.08203 0.550782,-0.246094 0.726563,-0.339844 z m 2.112305,-4.828125 c 0.796875,0.65625 1.265625,1.957031 1.265625,3.339844 0,1.371094 -0.457032,2.648437 -1.265625,3.328125 l 0.152343,0.175781 c 1.183594,-0.808594 1.6875,-2.0625 1.6875,-3.503906 0,-1.441406 -0.503906,-2.71875 -1.6875,-3.515625 z m 161.938469,6.667969 c -0.79687,-0.667969 -1.253899,-1.957031 -1.253899,-3.328125 0,-1.382813 0.457029,-2.671875 1.253899,-3.339844 l -0.14062,-0.175781 c -1.171873,0.785156 -1.699217,2.074219 -1.699217,3.503906 0,1.453125 0.527344,2.730469 1.699217,3.515625 z m 1.93067,-4.40625 v -2.460938 c -0.29297,0.105469 -0.78516,0.234375 -1.16016,0.28125 v 0.175782 c 0.50391,0.04687 0.52734,0.105468 0.52734,0.597656 v 4.453125 c 0.4336,0.199219 0.84375,0.28125 1.17188,0.28125 1.07812,0 2.01562,-0.832031 2.01562,-2.003906 0,-0.949219 -0.72656,-1.6875 -1.58203,-1.6875 -0.082,0 -0.19922,0.02344 -0.32812,0.08203 z m 0,0.246094 c 0.14062,-0.09375 0.39843,-0.152344 0.62109,-0.152344 0.66797,0 1.23047,0.527344 1.23047,1.441406 0,0.925781 -0.43359,1.488281 -1.08984,1.488281 -0.42188,0 -0.66797,-0.28125 -0.71485,-0.445312 -0.0352,-0.07031 -0.0469,-0.152344 -0.0469,-0.269531 z m 3.71777,-2.507813 c 0.79688,0.65625 1.26563,1.957031 1.26563,3.339844 0,1.371094 -0.45704,2.648437 -1.26563,3.328125 l 0.15234,0.175781 c 1.1836,-0.808594 1.6875,-2.0625 1.6875,-3.503906 0,-1.441406 -0.5039,-2.71875 -1.6875,-3.515625 z M -43.748641,41.433386 c -1.207031,0 -1.640625,1.429687 -1.640625,2.601562 0,1.265625 0.433594,2.578125 1.640625,2.578125 1.195313,0 1.628907,-1.417968 1.628907,-2.589843 0,-1.230469 -0.433594,-2.589844 -1.628907,-2.589844 z m -0.01172,0.269531 c 0.726562,0 0.925781,1.183594 0.925781,2.320313 0,1.125 -0.199219,2.320312 -0.914063,2.320312 -0.703125,0 -0.925781,-1.207031 -0.925781,-2.332031 0,-1.113281 0.1875,-2.308594 0.914063,-2.308594 z m 2.844726,4.910156 c 0.257813,0 0.445313,-0.1875 0.445313,-0.457031 0,-0.257812 -0.1875,-0.457031 -0.445313,-0.457031 -0.257812,0 -0.445312,0.199219 -0.445312,0.457031 0,0.269531 0.1875,0.457031 0.445312,0.457031 z m 2.891602,-5.179687 c -0.855469,0 -1.417969,0.644531 -1.417969,1.3125 0,0.5625 0.339844,0.949219 0.867187,1.242187 -0.28125,0.175782 -0.585937,0.398438 -0.714843,0.515625 -0.175782,0.164063 -0.351563,0.386719 -0.351563,0.761719 0,0.855469 0.679688,1.347656 1.535156,1.347656 0.679688,0 1.582032,-0.515625 1.582032,-1.441406 0,-0.703125 -0.503907,-1.089844 -1.054688,-1.394531 0.363281,-0.246094 0.574219,-0.445313 0.632813,-0.515625 0.152343,-0.175781 0.234375,-0.410156 0.234375,-0.644531 0,-0.644532 -0.550782,-1.183594 -1.3125,-1.183594 z m -0.07031,0.257812 c 0.363281,0 0.773438,0.292969 0.773438,0.972657 0,0.480468 -0.210938,0.773437 -0.480469,0.984375 -0.574219,-0.269532 -1.042969,-0.539063 -1.042969,-1.125 0,-0.410157 0.269531,-0.832032 0.75,-0.832032 z m 0.07031,4.664063 c -0.503907,0 -0.984375,-0.398438 -0.984375,-1.136719 0,-0.445312 0.28125,-0.84375 0.65625,-1.101562 0.621093,0.316406 1.183593,0.65625 1.183593,1.253906 0,0.621094 -0.375,0.984375 -0.855468,0.984375 z m 17.537109,0.164062 v -0.210937 c -0.726562,-0.05859 -0.773437,-0.128906 -0.773437,-0.703125 v -4.171875 c -0.445313,0.175781 -0.914063,0.328125 -1.429688,0.421875 v 0.1875 l 0.386719,0.01172 c 0.351562,0.01172 0.386719,0.05859 0.386719,0.46875 v 3.082031 c 0,0.574219 -0.03516,0.644531 -0.773438,0.703125 v 0.210937 z m 1.68457,0.09375 c 0.257813,0 0.445313,-0.1875 0.445313,-0.457031 0,-0.257812 -0.1875,-0.457031 -0.445313,-0.457031 -0.257812,0 -0.445312,0.199219 -0.445312,0.457031 0,0.269531 0.1875,0.457031 0.445312,0.457031 z m 2.830079,-5.179687 c -1.207032,0 -1.640625,1.429687 -1.640625,2.601562 0,1.265625 0.433593,2.578125 1.640625,2.578125 1.195312,0 1.628906,-1.417968 1.628906,-2.589843 0,-1.230469 -0.433594,-2.589844 -1.628906,-2.589844 z m -0.01172,0.269531 c 0.726562,0 0.925781,1.183594 0.925781,2.320313 0,1.125 -0.199219,2.320312 -0.914062,2.320312 -0.703125,0 -0.925782,-1.207031 -0.925782,-2.332031 0,-1.113281 0.1875,-2.308594 0.914063,-2.308594 z m 90.319336,-0.269531 c -1.207032,0 -1.640625,1.429687 -1.640625,2.601562 0,1.265625 0.433593,2.578125 1.640625,2.578125 1.195312,0 1.628906,-1.417968 1.628906,-2.589843 0,-1.230469 -0.433594,-2.589844 -1.628906,-2.589844 z m -0.01172,0.269531 c 0.726562,0 0.925781,1.183594 0.925781,2.320313 0,1.125 -0.199219,2.320312 -0.914062,2.320312 -0.703125,0 -0.925782,-1.207031 -0.925782,-2.332031 0,-1.113281 0.1875,-2.308594 0.914063,-2.308594 z m 2.841797,4.910156 c 0.257812,0 0.445312,-0.1875 0.445312,-0.457031 0,-0.257812 -0.1875,-0.457031 -0.445312,-0.457031 -0.257813,0 -0.445313,0.199219 -0.445313,0.457031 0,0.269531 0.1875,0.457031 0.445313,0.457031 z m 4.204101,-1.21875 c -0.234375,0.503907 -0.339843,0.539063 -0.773437,0.539063 h -1.5 l 1.136719,-1.195313 c 0.738281,-0.785156 1.066406,-1.253906 1.066406,-1.945312 0,-0.84375 -0.644531,-1.359375 -1.347656,-1.359375 -0.46875,0 -0.84375,0.210937 -1.078125,0.480469 l -0.457032,0.644531 0.175782,0.164062 c 0.199218,-0.316406 0.539062,-0.75 1.089843,-0.75 0.585938,0 0.9375,0.398438 0.9375,1.066407 0,0.691406 -0.503906,1.347656 -0.996093,1.933593 -0.398438,0.46875 -0.855469,0.925782 -1.300782,1.359375 v 0.1875 h 3 c 0.09375,-0.363281 0.175782,-0.714843 0.28125,-1.042968 z m 14.396485,-3.960937 c -1.207031,0 -1.640625,1.429687 -1.640625,2.601562 0,1.265625 0.433594,2.578125 1.640625,2.578125 1.195312,0 1.628906,-1.417968 1.628906,-2.589843 0,-1.230469 -0.433594,-2.589844 -1.628906,-2.589844 z m -0.01172,0.269531 c 0.726563,0 0.925781,1.183594 0.925781,2.320313 0,1.125 -0.199218,2.320312 -0.914062,2.320312 -0.703125,0 -0.925781,-1.207031 -0.925781,-2.332031 0,-1.113281 0.1875,-2.308594 0.914062,-2.308594 z m 2.844727,4.910156 c 0.257812,0 0.445312,-0.1875 0.445312,-0.457031 0,-0.257812 -0.1875,-0.457031 -0.445312,-0.457031 -0.257813,0 -0.445313,0.199219 -0.445313,0.457031 0,0.269531 0.1875,0.457031 0.445313,0.457031 z m 4.552739,-1.523437 v -0.375 h -0.76172 v -3.257813 h -0.31641 c -0.83203,1.089844 -1.64062,2.273438 -2.402344,3.410157 v 0.222656 h 2.074224 v 0.585937 c 0,0.527344 -0.0234,0.574219 -0.72656,0.632813 v 0.210937 h 2.05078 v -0.210937 c -0.64453,-0.05859 -0.67969,-0.105469 -0.67969,-0.632813 v -0.585937 z m -1.40625,-0.375 h -1.57031 c 0.52734,-0.878906 1.04297,-1.640625 1.55859,-2.355469 h 0.0117 z m 15.4541,-3.28125 c -1.20703,0 -1.64062,1.429687 -1.64062,2.601562 0,1.265625 0.43359,2.578125 1.64062,2.578125 1.19531,0 1.62891,-1.417968 1.62891,-2.589843 0,-1.230469 -0.4336,-2.589844 -1.62891,-2.589844 z m -0.0117,0.269531 c 0.72657,0 0.92578,1.183594 0.92578,2.320313 0,1.125 -0.19921,2.320312 -0.91406,2.320312 -0.70312,0 -0.92578,-1.207031 -0.92578,-2.332031 0,-1.113281 0.1875,-2.308594 0.91406,-2.308594 z m 2.84473,4.910156 c 0.25781,0 0.44531,-0.1875 0.44531,-0.457031 0,-0.257812 -0.1875,-0.457031 -0.44531,-0.457031 -0.25781,0 -0.44531,0.199219 -0.44531,0.457031 0,0.269531 0.1875,0.457031 0.44531,0.457031 z m 2.00976,-2.835937 c 0.23438,-1.113281 0.98438,-1.617188 1.46485,-1.851563 0.30469,-0.140625 0.60937,-0.234375 0.8789,-0.28125 l -0.0586,-0.257812 c -0.31641,0.05859 -0.70312,0.140625 -1.03125,0.257812 -0.84375,0.316407 -2.0625,1.21875 -2.0625,2.964844 0,1.242188 0.70313,2.003906 1.64063,2.003906 0.96093,0 1.64062,-0.808593 1.64062,-1.757812 0,-0.820313 -0.58594,-1.476563 -1.44141,-1.476563 -0.15234,0 -0.32812,0.04687 -0.5039,0.128907 z m 0.72657,0.04687 c 0.72656,0 1.0664,0.65625 1.0664,1.324219 0,0.527343 -0.19922,1.195312 -0.82031,1.195312 -0.65625,0 -1.06642,-0.785156 -1.06642,-1.746094 0,-0.210937 0.0117,-0.398437 0.0469,-0.550781 0.19922,-0.105469 0.46875,-0.222656 0.77344,-0.222656 z m 15.86425,-2.390625 c -1.20704,0 -1.64062,1.429687 -1.64062,2.601562 0,1.265625 0.43359,2.578125 1.64062,2.578125 1.19532,0 1.6289,-1.417968 1.6289,-2.589843 0,-1.230469 -0.43359,-2.589844 -1.6289,-2.589844 z m -0.0117,0.269531 c 0.72656,0 0.92578,1.183594 0.92578,2.320313 0,1.125 -0.19922,2.320312 -0.91406,2.320312 -0.70313,0 -0.9258,-1.207031 -0.9258,-2.332031 0,-1.113281 0.1875,-2.308594 0.91408,-2.308594 z m 2.84179,4.910156 c 0.25782,0 0.44532,-0.1875 0.44532,-0.457031 0,-0.257812 -0.1875,-0.457031 -0.44532,-0.457031 -0.25781,0 -0.44531,0.199219 -0.44531,0.457031 0,0.269531 0.1875,0.457031 0.44531,0.457031 z m 2.8916,-5.179687 c -0.85546,0 -1.41796,0.644531 -1.41796,1.3125 0,0.5625 0.33984,0.949219 0.86718,1.242187 -0.28125,0.175782 -0.58593,0.398438 -0.71484,0.515625 -0.17578,0.164063 -0.35157,0.386719 -0.35157,0.761719 0,0.855469 0.67968,1.347656 1.53515,1.347656 0.67969,0 1.58203,-0.515625 1.58203,-1.441406 0,-0.703125 -0.50389,-1.089844 -1.05468,-1.394531 0.36329,-0.246094 0.57422,-0.445313 0.63282,-0.515625 0.15234,-0.175781 0.23437,-0.410156 0.23437,-0.644531 0,-0.644532 -0.55078,-1.183594 -1.3125,-1.183594 z m -0.0703,0.257812 c 0.36328,0 0.77344,0.292969 0.77344,0.972657 0,0.480468 -0.21094,0.773437 -0.48047,0.984375 -0.57422,-0.269532 -1.04297,-0.539063 -1.04297,-1.125 0,-0.410157 0.26953,-0.832032 0.75,-0.832032 z m 0.0703,4.664063 c -0.5039,0 -0.98437,-0.398438 -0.98437,-1.136719 0,-0.445312 0.28125,-0.84375 0.65625,-1.101562 0.62109,0.316406 1.18359,0.65625 1.18359,1.253906 0,0.621094 -0.375,0.984375 -0.85547,0.984375 z m 16.85743,0.164062 v -0.210937 c -0.72657,-0.05859 -0.77344,-0.128906 -0.77344,-0.703125 v -4.171875 c -0.44531,0.175781 -0.91406,0.328125 -1.42969,0.421875 v 0.1875 l 0.38672,0.01172 c 0.35156,0.01172 0.38672,0.05859 0.38672,0.46875 v 3.082031 c 0,0.574219 -0.0352,0.644531 -0.77344,0.703125 v 0.210937 z m 1.68457,0.09375 c 0.25781,0 0.44531,-0.1875 0.44531,-0.457031 0,-0.257812 -0.1875,-0.457031 -0.44531,-0.457031 -0.25782,0 -0.44532,0.199219 -0.44532,0.457031 0,0.269531 0.1875,0.457031 0.44532,0.457031 z m 2.83008,-5.179687 c -1.20704,0 -1.64063,1.429687 -1.64063,2.601562 0,1.265625 0.43359,2.578125 1.64063,2.578125 1.19531,0 1.6289,-1.417968 1.6289,-2.589843 0,-1.230469 -0.43359,-2.589844 -1.6289,-2.589844 z m -0.0117,0.269531 c 0.72656,0 0.92578,1.183594 0.92578,2.320313 0,1.125 -0.19922,2.320312 -0.91406,2.320312 -0.70313,0 -0.92579,-1.207031 -0.92579,-2.332031 0,-1.113281 0.1875,-2.308594 0.91407,-2.308594 z m 0,0"
           style="fill:#231f20;fill-opacity:1;fill-rule:nonzero;stroke:none" />
      </g>
      <path
         id="path6"
         d="M 86.9766,974.906 H 308.059 l 0.371,-608.593 h 276.023 l 0.371,384.363 h 386.332 l 0.352,-160.156 h 221.122"
         style="fill:none;stroke:#3871c1;stroke-width:10;stroke-linecap:butt;stroke-linejoin:round;stroke-miterlimit:3.25;stroke-dasharray:none;stroke-opacity:1"
         transform="matrix(0.13333333,0,0,-0.13333333,0,134.73333)" />
      <path
         id="path7"
         d="m 86.9766,334.289 0.332,0.191 0.3555,0.192 0.6679,0.391 1.375,0.789 2.7032,1.582 5.4336,3.125 10.8402,6.296 23.523,13.641 21.973,12.731 21.535,12.476 23.355,13.535 21.821,12.617 23.621,13.696 23.203,13.445 0.676,0.391 0.679,0.398 1.352,0.778 2.703,1.57 5.398,3.14 0.356,0.2 1,0.574 1.351,0.793 8.125,4.695 0.739,0.418 0.719,0.442 1.476,0.839 2.938,1.707 0.371,0.211 0.347,0.211 2.219,1.27 2.91,1.699 1.481,0.852 1.461,0.859 1.843,1.055 0.352,0.207 1.109,0.633 0.368,0.234 0.371,0.203 0.371,0.039 0.347,0.02 h 0.368 l 0.738,0.031 h 0.371 l 0.371,0.015 0.723,0.024 1.472,0.031 0.332,0.016 h 0.356 l 0.68,0.039 1.378,0.035 2.723,0.07 5.481,0.16 10.957,0.313 21.472,0.633 23.293,0.668 21.746,0.633 23.571,0.687 23.136,0.668 21.567,0.637 23.418,0.664 21.832,0.633 23.676,0.683 23.242,0.668 0.664,0.035 0.683,0.02 4.063,0.105 5.414,0.161 0.348,0.015 h 0.336 l 0.667,0.031 1.372,0.039 2.707,0.071 0.336,0.015 h 0.335 l 0.68,0.036 1.356,0.035 h 0.336 l 0.332,0.019 0.683,0.02 0.332,0.015 h 0.352 l 0.676,0.012 0.371,0.024 h 0.363 l 0.367,0.015 0.371,0.11 0.371,0.136 0.352,0.141 1.473,0.562 0.738,0.262 1.461,0.567 0.742,0.281 0.738,0.261 1.457,0.563 2.949,1.109 11.75,4.426 21.95,8.266 21.5,8.101 23.34,8.789 21.785,8.196 23.601,8.89 23.192,8.739 21.601,8.136 23.449,8.825 21.887,8.242 21.445,8.07 23.274,8.773 21.726,8.176 23.536,8.875 21.972,8.278 21.567,8.121 0.351,0.129 1.11,0.418 1.457,0.546 2.918,1.106 5.855,2.195 0.352,0.141 0.367,0.14 0.738,0.266 1.457,0.563 2.918,1.086 5.856,2.199 0.336,0.14 0.335,0.121 0.68,0.266 1.375,0.508 0.668,0.25 0.684,0.262 0.351,0.125 0.332,0.14 0.336,0.121 0.352,0.125 0.34,0.09 0.347,0.071 0.664,0.156 1.375,0.308 2.723,0.637 0.352,0.094 0.336,0.066 0.683,0.156 1.356,0.321 2.722,0.633 5.465,1.257 23.639,5.493 23.23,5.379 21.64,5.007 23.48,5.45 21.92,5.082 21.5,4.972 23.31,5.414 21.76,5.039 0.37,0.094 0.38,0.082 2.27,0.539 9.13,2.102 0.36,0.09 0.39,0.086 2.27,0.535 3.04,0.699 0.38,0.082 0.37,0.094 0.76,0.175 1.53,0.352 0.37,0.094 0.39,0.082 0.75,0.176 0.39,0.089 0.37,0.082 0.39,0.09 0.37,0.082"
         style="fill:none;stroke:#da1259;stroke-width:10;stroke-linecap:butt;stroke-linejoin:miter;stroke-miterlimit:3.25;stroke-dasharray:none;stroke-opacity:1"
         transform="matrix(0.13333333,0,0,-0.13333333,0,134.73333)" />
      <path
         id="path8"
         d="m 86.9766,334.289 v 13.637"
         style="fill:none;stroke:#231f20;stroke-width:5;stroke-linecap:butt;stroke-linejoin:miter;stroke-miterlimit:3.25;stroke-dasharray:none;stroke-opacity:1"
         transform="matrix(0.13333333,0,0,-0.13333333,0,134.73333)" />
      <path
         id="path9"
         d="m 308.109,304.289 v 30"
         style="fill:none;stroke:#231f20;stroke-width:5;stroke-linecap:butt;stroke-linejoin:miter;stroke-miterlimit:3.25;stroke-dasharray:none;stroke-opacity:1"
         transform="matrix(0.13333333,0,0,-0.13333333,0,134.73333)" />
      <path
         id="path10"
         d="m 529.238,304.289 v 30"
         style="fill:none;stroke:#231f20;stroke-width:5;stroke-linecap:butt;stroke-linejoin:miter;stroke-miterlimit:3.25;stroke-dasharray:none;stroke-opacity:1"
         transform="matrix(0.13333333,0,0,-0.13333333,0,134.73333)" />
      <path
         id="path11"
         d="m 750.375,304.289 v 30"
         style="fill:none;stroke:#231f20;stroke-width:5;stroke-linecap:butt;stroke-linejoin:miter;stroke-miterlimit:3.25;stroke-dasharray:none;stroke-opacity:1"
         transform="matrix(0.13333333,0,0,-0.13333333,0,134.73333)" />
      <path
         id="path12"
         d="m 971.508,304.289 v 30"
         style="fill:none;stroke:#231f20;stroke-width:5;stroke-linecap:butt;stroke-linejoin:miter;stroke-miterlimit:3.25;stroke-dasharray:none;stroke-opacity:1"
         transform="matrix(0.13333333,0,0,-0.13333333,0,134.73333)" />
      <path
         id="path13"
         d="m 1192.63,304.289 v 30"
         style="fill:none;stroke:#231f20;stroke-width:5;stroke-linecap:butt;stroke-linejoin:miter;stroke-miterlimit:3.25;stroke-dasharray:none;stroke-opacity:1"
         transform="matrix(0.13333333,0,0,-0.13333333,0,134.73333)" />
      <path
         id="path14"
         d="M 87.6641,334.289 H 1215.67"
         style="fill:none;stroke:#231f20;stroke-width:5;stroke-linecap:butt;stroke-linejoin:miter;stroke-miterlimit:3.25;stroke-dasharray:none;stroke-opacity:1"
         transform="matrix(0.13333333,0,0,-0.13333333,0,134.73333)" />
      <path
         id="path15"
         d="m 56.9766,494.441 h 30"
         style="fill:none;stroke:#231f20;stroke-width:5;stroke-linecap:butt;stroke-linejoin:miter;stroke-miterlimit:3.25;stroke-dasharray:none;stroke-opacity:1"
         transform="matrix(0.13333333,0,0,-0.13333333,0,134.73333)" />
      <path
         id="path16"
         d="m 56.9766,654.598 h 30"
         style="fill:none;stroke:#231f20;stroke-width:5;stroke-linecap:butt;stroke-linejoin:miter;stroke-miterlimit:3.25;stroke-dasharray:none;stroke-opacity:1"
         transform="matrix(0.13333333,0,0,-0.13333333,0,134.73333)" />
      <path
         id="path17"
         d="m 56.9766,814.75 h 30"
         style="fill:none;stroke:#231f20;stroke-width:5;stroke-linecap:butt;stroke-linejoin:miter;stroke-miterlimit:3.25;stroke-dasharray:none;stroke-opacity:1"
         transform="matrix(0.13333333,0,0,-0.13333333,0,134.73333)" />
      <path
         id="path18"
         d="m 56.9766,974.906 h 30"
         style="fill:none;stroke:#231f20;stroke-width:5;stroke-linecap:butt;stroke-linejoin:miter;stroke-miterlimit:3.25;stroke-dasharray:none;stroke-opacity:1"
         transform="matrix(0.13333333,0,0,-0.13333333,0,134.73333)" />
      <path
         id="path19"
         d="M 86.9766,334.672 V 1010.5"
         style="fill:none;stroke:#231f20;stroke-width:5;stroke-linecap:butt;stroke-linejoin:miter;stroke-miterlimit:3.25;stroke-dasharray:none;stroke-opacity:1"
         transform="matrix(0.13333333,0,0,-0.13333333,0,134.73333)" />
      <path
         id="path20"
         d="m 1276.02,715.078 h 90"
         style="fill:none;stroke:#3871c1;stroke-width:10;stroke-linecap:butt;stroke-linejoin:round;stroke-miterlimit:3.25;stroke-dasharray:none;stroke-opacity:1"
         transform="matrix(0.13333333,0,0,-0.13333333,0,134.73333)" />
      <path
         id="path21"
         d="m 1276.02,625.078 h 90"
         style="fill:none;stroke:#da1259;stroke-width:10;stroke-linecap:butt;stroke-linejoin:miter;stroke-miterlimit:3.25;stroke-dasharray:none;stroke-opacity:1"
         transform="matrix(0.13333333,0,0,-0.13333333,0,134.73333)" />
      <path
         id="path22"
         d="m 3009.62,334.289 c -71.61,8.899 -143,20.473 -213.99,33.359 l -0.67,0.161 c -76.15,23.101 -149.85,51.476 -221.19,86.777 -53.71,26.578 -104.82,58.824 -153.21,94.066 l -0.68,0.282 c -80.68,4.754 -161.37,9.199 -242.04,14.007 -8.39,0.504 -16.79,1.028 -25.18,1.497 l -0.69,0.421 c -50.05,60.426 -90.56,126.575 -127.92,195.399 -33.81,62.277 -60.78,128.84 -86.07,194.941"
         style="fill:none;stroke:#3871c1;stroke-width:10;stroke-linecap:butt;stroke-linejoin:round;stroke-miterlimit:3.25;stroke-dasharray:none;stroke-opacity:1"
         transform="matrix(0.13333333,0,0,-0.13333333,0,134.73333)" />
      <path
         id="path23"
         d="m 2152.32,304.289 v 30"
         style="fill:none;stroke:#231f20;stroke-width:5;stroke-linecap:butt;stroke-linejoin:miter;stroke-miterlimit:3.25;stroke-dasharray:none;stroke-opacity:1"
         transform="matrix(0.13333333,0,0,-0.13333333,0,134.73333)" />
      <path
         id="path24"
         d="m 2366.63,304.289 v 30"
         style="fill:none;stroke:#231f20;stroke-width:5;stroke-linecap:butt;stroke-linejoin:miter;stroke-miterlimit:3.25;stroke-dasharray:none;stroke-opacity:1"
         transform="matrix(0.13333333,0,0,-0.13333333,0,134.73333)" />
      <path
         id="path25"
         d="m 2580.96,304.289 v 30"
         style="fill:none;stroke:#231f20;stroke-width:5;stroke-linecap:butt;stroke-linejoin:miter;stroke-miterlimit:3.25;stroke-dasharray:none;stroke-opacity:1"
         transform="matrix(0.13333333,0,0,-0.13333333,0,134.73333)" />
      <path
         id="path26"
         d="m 2795.3,304.289 v 30"
         style="fill:none;stroke:#231f20;stroke-width:5;stroke-linecap:butt;stroke-linejoin:miter;stroke-miterlimit:3.25;stroke-dasharray:none;stroke-opacity:1"
         transform="matrix(0.13333333,0,0,-0.13333333,0,134.73333)" />
      <path
         id="path27"
         d="m 3009.62,304.289 v 30"
         style="fill:none;stroke:#231f20;stroke-width:5;stroke-linecap:butt;stroke-linejoin:miter;stroke-miterlimit:3.25;stroke-dasharray:none;stroke-opacity:1"
         transform="matrix(0.13333333,0,0,-0.13333333,0,134.73333)" />
      <path
         id="path28"
         d="M 1937.98,334.289 H 3031.95"
         style="fill:none;stroke:#231f20;stroke-width:5;stroke-linecap:butt;stroke-linejoin:miter;stroke-miterlimit:3.25;stroke-dasharray:none;stroke-opacity:1"
         transform="matrix(0.13333333,0,0,-0.13333333,0,134.73333)" />
      <path
         id="path29"
         d="m 1907.98,387.551 h 30"
         style="fill:none;stroke:#231f20;stroke-width:5;stroke-linecap:butt;stroke-linejoin:miter;stroke-miterlimit:3.25;stroke-dasharray:none;stroke-opacity:1"
         transform="matrix(0.13333333,0,0,-0.13333333,0,134.73333)" />
      <path
         id="path30"
         d="m 1907.98,529.453 h 30"
         style="fill:none;stroke:#231f20;stroke-width:5;stroke-linecap:butt;stroke-linejoin:miter;stroke-miterlimit:3.25;stroke-dasharray:none;stroke-opacity:1"
         transform="matrix(0.13333333,0,0,-0.13333333,0,134.73333)" />
      <path
         id="path31"
         d="m 1907.98,671.363 h 30"
         style="fill:none;stroke:#231f20;stroke-width:5;stroke-linecap:butt;stroke-linejoin:miter;stroke-miterlimit:3.25;stroke-dasharray:none;stroke-opacity:1"
         transform="matrix(0.13333333,0,0,-0.13333333,0,134.73333)" />
      <path
         id="path32"
         d="m 1907.98,813.273 h 30"
         style="fill:none;stroke:#231f20;stroke-width:5;stroke-linecap:butt;stroke-linejoin:miter;stroke-miterlimit:3.25;stroke-dasharray:none;stroke-opacity:1"
         transform="matrix(0.13333333,0,0,-0.13333333,0,134.73333)" />
      <path
         id="path33"
         d="m 1907.98,955.199 h 30"
         style="fill:none;stroke:#231f20;stroke-width:5;stroke-linecap:butt;stroke-linejoin:miter;stroke-miterlimit:3.25;stroke-dasharray:none;stroke-opacity:1"
         transform="matrix(0.13333333,0,0,-0.13333333,0,134.73333)" />
      <path
         id="path34"
         d="M 1937.98,334.289 V 989.691"
         style="fill:none;stroke:#231f20;stroke-width:5;stroke-linecap:butt;stroke-linejoin:miter;stroke-miterlimit:3.25;stroke-dasharray:none;stroke-opacity:1"
         transform="matrix(0.13333333,0,0,-0.13333333,0,134.73333)" />
    </g>
  </g>
</svg>
