<?xml version="1.0" encoding="UTF-8" standalone="no"?>
<!-- Created with Inkscape (http://www.inkscape.org/) -->

<svg
   version="1.1"
   id="svg1"
   width="213"
   height="160.30667"
   viewBox="0 0 213 160.30667"
   sodipodi:docname="pha14f14.eps"
   xmlns:inkscape="http://www.inkscape.org/namespaces/inkscape"
   xmlns:sodipodi="http://sodipodi.sourceforge.net/DTD/sodipodi-0.dtd"
   xmlns="http://www.w3.org/2000/svg"
   xmlns:svg="http://www.w3.org/2000/svg">
  <defs
     id="defs1">
    <linearGradient
       x1="0"
       y1="0"
       x2="1"
       y2="0"
       gradientUnits="userSpaceOnUse"
       gradientTransform="matrix(-2.54e-5,-580.176,-580.176,2.54e-5,798.735,580.934)"
       spreadMethod="pad"
       id="linearGradient3">
      <stop
         style="stop-opacity:1;stop-color:#ffffff"
         offset="0"
         id="stop2" />
      <stop
         style="stop-opacity:1;stop-color:#918f8f"
         offset="1"
         id="stop3" />
    </linearGradient>
    <clipPath
       clipPathUnits="userSpaceOnUse"
       id="clipPath3">
      <path
         d="M 1597.47,0.761719 H 0 V 580.934 v -2.5 h 607.141 l 41.812,-19.746 -48.484,-19.137 35.722,-7.649 -10.207,-33.175 47.207,-42.098 25.516,21.687 h 42.098 l 28.066,-31.894 -10.199,70.168 43.371,-22.961 -12.758,43.375 h 48.481 l -21.692,22.965 34.477,18.465 H 1597.47 V 0.761719"
         transform="translate(0,2.5000001e-5)"
         id="path3" />
    </clipPath>
    <linearGradient
       x1="0"
       y1="0"
       x2="1"
       y2="0"
       gradientUnits="userSpaceOnUse"
       gradientTransform="matrix(-2.54e-5,-580.176,-580.176,2.54e-5,798.735,580.934)"
       spreadMethod="pad"
       id="linearGradient28">
      <stop
         style="stop-opacity:1;stop-color:#e9e8e8"
         offset="0"
         id="stop27" />
      <stop
         style="stop-opacity:1;stop-color:#b1b0b0"
         offset="1"
         id="stop28" />
    </linearGradient>
    <clipPath
       clipPathUnits="userSpaceOnUse"
       id="clipPath28">
      <path
         d="m 768.871,446.422 -28.066,31.894 h -42.098 l -25.516,-21.687 -47.207,42.098 10.207,33.175 -35.722,7.649 48.484,19.137 -41.812,19.746 h 243.41 l -34.477,-18.465 21.692,-22.965 h -48.481 l 12.758,-43.375 -43.371,22.961 10.199,-70.168"
         transform="translate(0,2.5000001e-5)"
         id="path28" />
    </clipPath>
  </defs>
  <sodipodi:namedview
     id="namedview1"
     pagecolor="#ffffff"
     bordercolor="#000000"
     borderopacity="0.25"
     inkscape:showpageshadow="2"
     inkscape:pageopacity="0.0"
     inkscape:pagecheckerboard="0"
     inkscape:deskcolor="#d1d1d1">
    <inkscape:page
       x="0"
       y="0"
       inkscape:label="1"
       id="page1"
       width="213"
       height="160.30667"
       margin="0"
       bleed="0" />
  </sodipodi:namedview>
  <g
     id="g1"
     inkscape:groupmode="layer"
     inkscape:label="1">
    <g
       id="group-R5">
      <g
         id="g4">
        <path
           d="m 0,0 v 579 h 609 v -1 h 2 v -1 h 2 v -1 h 2 v -1 h 2 v -1 h 2 v -1 h 2 v -1 h 2 v -1 h 2 v -1 h 3 v -1 h 2 v -1 h 2 v -1 h 2 v -1 h 2 v -1 h 2 v -1 h 2 v -1 h 2 v -1 h 3 v -1 h 2 v -1 h 2 v -2 h -1 v -1 h -3 v -1 h -2 v -1 h -3 v -1 h -2 v -1 h -3 v -1 h -3 v -1 h -2 v -1 h -3 v -1 h -2 v -1 h -3 v -1 h -2 v -1 h -3 v -1 h -2 v -1 h -3 v -1 h -2 v -1 h -3 v -1 h -2 v -1 h -1 v -1 h 4 v -1 h 5 v -1 h 5 v -1 h 4 v -1 h 5 v -1 h 5 v -1 h 4 v -1 h 1 v -1 h -1 v -3 h -1 v -4 h -1 v -3 h -1 v -3 h -1 v -3 h -1 v -4 h -1 v -3 h -1 v -3 h -1 v -3 h -1 v -4 h 1 v -1 h 2 v -1 h 1 v -1 h 1 v -1 h 1 v -1 h 1 v -1 h 1 v -1 h 1 v -1 h 1 v -1 h 2 v -1 h 1 v -1 h 1 v -1 h 1 v -1 h 1 v -1 h 1 v -1 h 1 v -1 h 1 v -1 h 1 v -1 h 2 v -1 h 1 v -1 h 1 v -1 h 1 v -1 h 1 v -1 h 1 v -1 h 1 v -1 h 1 v -1 h 2 v -1 h 1 v -1 h 1 v -1 h 1 v -1 h 1 v -1 h 1 v -1 h 1 v -1 h 1 v -1 h 2 v -1 h 1 v -1 h 1 v -1 h 1 v -1 h 1 v -1 h 1 v -1 h 2 v 1 h 1 v 1 h 2 v 1 h 1 v 1 h 1 v 1 h 1 v 1 h 1 v 1 h 2 v 1 h 1 v 1 h 1 v 1 h 1 v 1 h 1 v 1 h 1 v 1 h 2 v 1 h 1 v 1 h 1 v 1 h 1 v 1 h 1 v 1 h 1 v 1 h 2 v 1 h 1 v 1 h 44 v -2 h 1 v -1 h 1 v -1 h 1 v -1 h 1 v -1 h 1 v -1 h 1 v -1 h 1 v -1 h 1 v -2 h 1 v -1 h 1 v -1 h 1 v -1 h 1 v -1 h 1 v -1 h 1 v -1 h 1 v -2 h 1 v -1 h 1 v -1 h 1 v -1 h 1 v -1 h 1 v -1 h 1 v -1 h 1 v -2 h 1 v -1 h 1 v -1 h 1 v -1 h 1 v 3 h -1 v 7 h -1 v 7 h -1 v 7 h -1 v 6 h -1 v 7 h -1 v 7 h -1 v 7 h -1 v 7 h -1 v 7 h -1 v 3 h 2 v -1 h 2 v -1 h 2 v -1 h 2 v -1 h 2 v -1 h 2 v -1 h 2 v -1 h 2 v -1 h 1 v -1 h 2 v -1 h 2 v -1 h 2 v -1 h 2 v -1 h 2 v -1 h 2 v -1 h 2 v -1 h 2 v -1 h 1 v -1 h 2 v -1 h 2 v -1 h 2 v -1 h 2 v -1 h 1 v 2 h -1 v 3 h -1 v 3 h -1 v 4 h -1 v 3 h -1 v 4 h -1 v 3 h -1 v 3 h -1 v 4 h -1 v 3 h -1 v 4 h -1 v 3 h -1 v 4 h 46 v 1 h -1 v 1 h -1 v 2 h -1 v 1 h -1 v 1 h -1 v 1 h -1 v 1 h -1 v 1 h -1 v 1 h -1 v 1 h -1 v 1 h -1 v 1 h -1 v 1 h -1 v 1 h -1 v 1 h -1 v 1 h -1 v 1 h -1 v 1 h -1 v 1 h -1 v 3 h 2 v 1 h 1 v 1 h 2 v 1 h 2 v 1 h 2 v 1 h 2 v 1 h 2 v 1 h 2 v 1 h 1 v 1 h 2 v 1 h 2 v 1 h 2 v 1 h 2 v 1 h 2 v 1 h 2 v 1 h 2 v 1 h 1 v 1 h 2 v 1 h 748 V 0"
           style="fill:url(#linearGradient3);fill-opacity:1;fill-rule:nonzero;stroke:none"
           transform="matrix(0.13333333,0,0,-0.13333333,0,160.30667)"
           clip-path="url(#clipPath3)"
           id="path4" />
      </g>
      <g
         id="g5"
         aria-label="L&#10;o&#10;(z&#10;o&#10;, –ω)&#10;L&#10;i&#10;(z, ω)&#10;L&#10;s&#10;(z′, ω)"
         transform="matrix(1.3333333,0,0,1.3333333,98.119733,77.216533)">
        <path
           id="path5"
           d="m 4.3603953,-1.5012672 c -0.234375,0.4453125 -0.4335937,0.71484376 -0.6328125,0.91406251 -0.2226562,0.22265625 -0.5273437,0.26953125 -1.0546875,0.26953125 -0.3984375,0 -0.6796875,-0.0117188 -0.8085937,-0.1171875 -0.140625,-0.10546875 -0.1640625,-0.31640625 -0.09375,-0.64453126 l 0.703125,-3.7265625 c 0.1289062,-0.6796875 0.1640625,-0.7382812 0.8789062,-0.796875 l 0.058594,-0.234375 h -2.25 l -0.058594,0.234375 c 0.7382813,0.070312 0.7851563,0.1054688 0.6445313,0.796875 L 1.0088328,-1.0442359 C 0.86820781,-0.36454844 0.80961406,-0.29423594 0.11820781,-0.24736094 L 0.05961406,-0.00126719 H 4.0322703 c 0.140625,-0.28125 0.46875,-1.10156251 0.5742188,-1.40625001 z m 0,0"
           style="fill:#231f20;fill-opacity:1;fill-rule:nonzero;stroke:none" />
        <path
           id="path6"
           d="m 7.0967234,-2.0432594 c -0.8203125,0 -1.9804687,0.6796875 -1.9804687,2.15625002 0,1.00781248 0.7382812,1.99218748 1.9804687,1.99218748 0.890625,0 1.9453125,-0.6914062 1.9453125,-2.14453123 0,-1.11328127 -0.8320312,-2.00390627 -1.9453125,-2.00390627 z m -0.09375,0.3046875 c 0.7851563,0 1.2070313,0.84375002 1.2070313,1.89843752 0,1.24218748 -0.4570313,1.65234378 -1.0195313,1.65234378 -0.7382812,0 -1.2304687,-0.84375003 -1.2304687,-1.98046878 0,-1.01953122 0.4804687,-1.57031252 1.0429687,-1.57031252 z m 3.5390626,3.0615235 c -0.8906251,-0.76171879 -1.4062501,-2.20312504 -1.4062501,-3.75 0,-1.546875 0.515625,-3 1.4062501,-3.75 l -0.152344,-0.2109375 c -1.3242186,0.9023437 -1.9101561,2.3320312 -1.9101561,3.9492187 0,1.62890626 0.5859375,3.08203126 1.9101561,3.9609375 z m 0,0"
           style="fill:#231f20;fill-opacity:1;fill-rule:nonzero;stroke:none" />
        <path
           id="path7"
           d="m 14.746138,-4.1731422 c -0.222657,0.2460938 -0.398438,0.3515625 -0.550782,0.3515625 -0.152343,0 -0.304687,-0.011719 -0.726562,-0.09375 -0.433594,-0.070312 -0.703125,-0.1054687 -0.949219,-0.1054687 -0.222656,0 -0.445312,0.1875 -0.65625,0.5273437 -0.140625,0.234375 -0.246094,0.4453125 -0.375,0.7265625 l 0.234375,0.1054688 c 0.257813,-0.4570313 0.46875,-0.7617188 0.890625,-0.7617188 0.222656,0 0.621094,0.023437 0.855469,0.058594 0.199219,0.011719 0.398437,0 0.550781,-0.035156 -0.832031,0.890625 -1.875,1.9101563 -2.496094,2.57812501 -0.550781,0.57421875 -0.480468,0.83203125 -0.328125,0.90234375 0.04687,0.01171875 0.07031,-0.0234375 0.105469,-0.08203125 0.08203,-0.1171875 0.1875,-0.234375 0.292969,-0.3046875 0.117187,-0.0820313 0.269531,-0.09375 0.550781,0.046875 0.398438,0.19921875 0.914063,0.43359375 1.207031,0.43359375 0.386719,0 0.75,-0.26953125 1.242188,-1.24218746 l -0.199219,-0.1640625 c -0.410156,0.60937496 -0.679687,0.76171871 -0.925781,0.76171871 -0.222656,0 -0.515625,-0.1171875 -0.808594,-0.2109375 -0.269531,-0.1171875 -0.503906,-0.1640625 -0.679687,-0.15234375 0.667968,-0.70312496 1.851562,-1.88671876 2.425781,-2.54296876 0.246094,-0.2695312 0.410156,-0.4570312 0.527344,-0.5976562 z m 0,0"
           style="fill:#231f20;fill-opacity:1;fill-rule:nonzero;stroke:none" />
        <path
           id="path8"
           d="m 17.031294,-2.0432594 c -0.820313,0 -1.980469,0.6796875 -1.980469,2.15625002 0,1.00781248 0.738281,1.99218748 1.980469,1.99218748 0.890625,0 1.945312,-0.6914062 1.945312,-2.14453123 0,-1.11328127 -0.832031,-2.00390627 -1.945312,-2.00390627 z m -0.09375,0.3046875 c 0.785156,0 1.207031,0.84375002 1.207031,1.89843752 0,1.24218748 -0.457031,1.65234378 -1.019531,1.65234378 -0.738281,0 -1.230469,-0.84375003 -1.230469,-1.98046878 0,-1.01953122 0.480469,-1.57031252 1.042969,-1.57031252 z m 1.690429,0.5771485 c -0.210937,0 -0.433593,0.140625 -0.433593,0.36328121 0,0.15234375 0.07031,0.22265625 0.117187,0.234375 0.304688,0.0703125 0.5625,0.26953125 0.5625,0.59765625 0,0.33984375 -0.257812,0.57421875 -0.691406,0.76171875 l 0.09375,0.25781249 c 0.550781,-0.16406249 1.183594,-0.55078124 1.183594,-1.24218749 0,-0.6328125 -0.503907,-0.97265621 -0.832032,-0.97265621 z m 7.470704,-0.6445313 v -0.46875 h -3.773438 v 0.46875 z m 0,0"
           style="fill:#231f20;fill-opacity:1;fill-rule:nonzero;stroke:none" />
        <path
           id="path9"
           d="m 30.918013,-3.8450172 c 0.292968,0.2578125 0.503906,0.7148438 0.503906,1.3828125 -0.01172,1.0078125 -0.398438,2.05078126 -1.136719,2.05078126 -0.304687,0 -0.515625,-0.3046875 -0.492187,-0.87890626 0.02344,-0.46875 0.234375,-1.359375 0.351562,-1.7226562 l -0.05859,-0.035156 -0.667968,0.140625 c -0.03516,0.28125 -0.09375,0.75 -0.1875,1.1367188 -0.199219,0.85546871 -0.5625,1.31249996 -0.949219,1.31249996 -0.28125,0 -0.539063,-0.33984375 -0.539063,-0.99609376 0,-1.0078125 0.46875,-1.921875 1.160157,-2.4492187 l -0.140625,-0.1992188 c -1.042969,0.5390625 -1.757813,1.5585938 -1.757813,2.765625 0,0.93750001 0.421875,1.44140626 0.9375,1.44140626 0.386719,0 0.902344,-0.3984375 1.230469,-0.890625 0.04687,0.50390625 0.328125,0.890625 0.761719,0.890625 0.375,0 0.738281,-0.22265625 1.066406,-0.515625 0.5625,-0.52734375 0.996094,-1.30078126 0.996094,-2.21484376 0,-0.9023437 -0.398438,-1.4179687 -0.691407,-1.4179687 -0.152343,0 -0.316406,0.070313 -0.375,0.1289062 z m 0,0"
           style="fill:#231f20;fill-opacity:1;fill-rule:nonzero;stroke:none" />
        <path
           id="path10"
           d="m 32.710981,-6.1770484 c 0.890625,0.7382812 1.417969,2.203125 1.417969,3.75 0,1.54687496 -0.503906,2.98828121 -1.417969,3.75 l 0.164063,0.1992187 c 1.347656,-0.91406249 1.898437,-2.33203124 1.898437,-3.9492187 0,-1.6289063 -0.550781,-3.0585938 -1.898437,-3.9609375 z m 0,0"
           style="fill:#231f20;fill-opacity:1;fill-rule:nonzero;stroke:none" />
        <path
           id="path11"
           d="m 50.620161,50.421584 c -0.234375,0.445313 -0.433594,0.714844 -0.632813,0.914063 -0.222656,0.222656 -0.527343,0.269531 -1.054687,0.269531 -0.398438,0 -0.679688,-0.01172 -0.808594,-0.117187 -0.140625,-0.105469 -0.164062,-0.316407 -0.09375,-0.644532 l 0.703125,-3.726562 c 0.128906,-0.679688 0.164063,-0.738281 0.878906,-0.796875 l 0.05859,-0.234375 h -2.25 l -0.05859,0.234375 c 0.738282,0.07031 0.785157,0.105469 0.644532,0.796875 l -0.738282,3.761719 c -0.140625,0.679687 -0.199218,0.75 -0.890625,0.796875 l -0.05859,0.246093 h 3.972656 c 0.140625,-0.28125 0.46875,-1.101562 0.574219,-1.40625 z m 0,0"
           style="fill:#231f20;fill-opacity:1;fill-rule:nonzero;stroke:none" />
        <path
           id="path12"
           d="m 52.269575,49.094436 c 0.257813,0 0.457031,-0.210938 0.457031,-0.457031 0,-0.269532 -0.199218,-0.46875 -0.457031,-0.46875 -0.234375,0 -0.457031,0.199218 -0.457031,0.46875 0,0.246093 0.222656,0.457031 0.457031,0.457031 z m 1.054688,4.828125 v -0.234375 c -0.585938,-0.05859 -0.644532,-0.105469 -0.644532,-0.714844 v -3.105469 c -0.398437,0.152344 -0.820312,0.269532 -1.277343,0.351563 v 0.210937 c 0.539062,0.09375 0.5625,0.128907 0.5625,0.679688 v 1.863281 c 0,0.609375 -0.05859,0.65625 -0.621094,0.714844 v 0.234375 z m 2.030273,-0.676758 c -0.890625,-0.761719 -1.40625,-2.203125 -1.40625,-3.75 0,-1.546875 0.515625,-3 1.40625,-3.75 l -0.152344,-0.210937 c -1.324219,0.902343 -1.910156,2.332031 -1.910156,3.949218 0,1.628907 0.585937,3.082032 1.910156,3.960938 z m 0,0"
           style="fill:#231f20;fill-opacity:1;fill-rule:nonzero;stroke:none" />
        <path
           id="path13"
           d="m 59.555708,47.749709 c -0.222656,0.246094 -0.398438,0.351563 -0.550781,0.351563 -0.152344,0 -0.304688,-0.01172 -0.726563,-0.09375 -0.433594,-0.07031 -0.703125,-0.105469 -0.949219,-0.105469 -0.222656,0 -0.445312,0.1875 -0.65625,0.527344 -0.140625,0.234375 -0.246093,0.445312 -0.375,0.726562 l 0.234375,0.105469 c 0.257813,-0.457031 0.46875,-0.761719 0.890625,-0.761719 0.222657,0 0.621094,0.02344 0.855469,0.05859 0.199219,0.01172 0.398438,0 0.550781,-0.03516 -0.832031,0.890625 -1.875,1.910156 -2.496093,2.578125 -0.550782,0.574219 -0.480469,0.832031 -0.328125,0.902344 0.04687,0.01172 0.07031,-0.02344 0.105468,-0.08203 0.08203,-0.117187 0.1875,-0.234375 0.292969,-0.304687 0.117188,-0.08203 0.269531,-0.09375 0.550781,0.04687 0.398438,0.199219 0.914063,0.433594 1.207032,0.433594 0.386718,0 0.75,-0.269532 1.242187,-1.242188 l -0.199219,-0.164062 c -0.410156,0.609375 -0.679687,0.761718 -0.925781,0.761718 -0.222656,0 -0.515625,-0.117187 -0.808594,-0.210937 -0.269531,-0.117188 -0.503906,-0.164063 -0.679687,-0.152344 0.667969,-0.703125 1.851562,-1.886719 2.425781,-2.542969 0.246094,-0.269531 0.410156,-0.457031 0.527344,-0.597656 z m 0,0"
           style="fill:#231f20;fill-opacity:1;fill-rule:nonzero;stroke:none" />
        <path
           id="path14"
           d="m 60.37895,50.761428 c -0.210937,0 -0.433594,0.140625 -0.433594,0.363281 0,0.152344 0.07031,0.222657 0.117188,0.234375 0.304687,0.07031 0.5625,0.269532 0.5625,0.597657 0,0.339843 -0.257813,0.574218 -0.691406,0.761718 l 0.09375,0.257813 c 0.550781,-0.164063 1.183593,-0.550781 1.183593,-1.242188 0,-0.632812 -0.503906,-0.972656 -0.832031,-0.972656 z m 0,0"
           style="fill:#231f20;fill-opacity:1;fill-rule:nonzero;stroke:none" />
        <path
           id="path15"
           d="m 67.987348,48.077834 c 0.292969,0.257813 0.503907,0.714844 0.503907,1.382813 -0.01172,1.007812 -0.398438,2.050781 -1.136719,2.050781 -0.304688,0 -0.515625,-0.304687 -0.492188,-0.878906 0.02344,-0.46875 0.234375,-1.359375 0.351563,-1.722656 l -0.05859,-0.03516 -0.667969,0.140625 c -0.03516,0.28125 -0.09375,0.75 -0.1875,1.136719 -0.199218,0.855469 -0.5625,1.3125 -0.949218,1.3125 -0.28125,0 -0.539063,-0.339844 -0.539063,-0.996094 0,-1.007812 0.46875,-1.921875 1.160156,-2.449218 l -0.140625,-0.199219 c -1.042968,0.539062 -1.757812,1.558594 -1.757812,2.765625 0,0.9375 0.421875,1.441406 0.9375,1.441406 0.386719,0 0.902344,-0.398437 1.230469,-0.890625 0.04687,0.503906 0.328125,0.890625 0.761718,0.890625 0.375,0 0.738282,-0.222656 1.066407,-0.515625 0.5625,-0.527344 0.996093,-1.300781 0.996093,-2.214844 0,-0.902343 -0.398437,-1.417968 -0.691406,-1.417968 -0.152344,0 -0.316406,0.07031 -0.375,0.128906 z m 0,0"
           style="fill:#231f20;fill-opacity:1;fill-rule:nonzero;stroke:none" />
        <path
           id="path16"
           d="m 69.780317,45.745803 c 0.890625,0.738281 1.417969,2.203125 1.417969,3.75 0,1.546875 -0.503906,2.988281 -1.417969,3.75 l 0.164063,0.199219 c 1.347656,-0.914063 1.898437,-2.332031 1.898437,-3.949219 0,-1.628906 -0.550781,-3.058594 -1.898437,-3.960937 z m 0,0"
           style="fill:#231f20;fill-opacity:1;fill-rule:nonzero;stroke:none" />
        <path
           id="path17"
           d="m 29.696333,26.166702 c -0.234375,0.445312 -0.433594,0.714843 -0.632813,0.914062 -0.222656,0.222656 -0.527343,0.269531 -1.054687,0.269531 -0.398438,0 -0.679688,-0.01172 -0.808594,-0.117187 -0.140625,-0.105469 -0.164062,-0.316406 -0.09375,-0.644531 l 0.703125,-3.726563 c 0.128906,-0.679687 0.164063,-0.738281 0.878906,-0.796875 l 0.05859,-0.234375 h -2.25 l -0.05859,0.234375 c 0.738282,0.07031 0.785157,0.105469 0.644532,0.796875 l -0.738282,3.761719 c -0.140625,0.679687 -0.199218,0.75 -0.890625,0.796875 l -0.05859,0.246094 h 3.972656 c 0.140625,-0.28125 0.46875,-1.101563 0.574219,-1.40625 z m 0,0"
           style="fill:#231f20;fill-opacity:1;fill-rule:nonzero;stroke:none" />
        <path
           id="path18"
           d="m 33.00688,26.737991 c -0.03516,-0.222657 -0.128907,-0.75 -0.199219,-0.960938 -0.1875,-0.07031 -0.433594,-0.152344 -0.796875,-0.152344 -0.832031,0 -1.371094,0.527344 -1.371094,1.160157 0,0.691406 0.585938,0.996093 1.125,1.242187 0.445313,0.210938 0.703125,0.421875 0.703125,0.820313 0,0.375 -0.304687,0.632812 -0.632812,0.632812 -0.539063,0 -0.949219,-0.527344 -1.113282,-1.113281 l -0.234375,0.03516 c 0,0.328125 0.08203,0.9375 0.152344,1.066406 0.164063,0.140625 0.574219,0.304688 1.03125,0.304688 0.726563,0 1.488281,-0.421875 1.488281,-1.242188 0,-0.621093 -0.457031,-0.9375 -1.136718,-1.21875 -0.410157,-0.175781 -0.761719,-0.375 -0.761719,-0.785156 0,-0.351562 0.246094,-0.621094 0.585937,-0.621094 0.433594,0 0.75,0.363282 0.925782,0.890625 z m 2.012695,2.252929 c -0.890625,-0.761718 -1.40625,-2.203125 -1.40625,-3.75 0,-1.546875 0.515625,-3 1.40625,-3.75 l -0.152344,-0.210937 c -1.324218,0.902344 -1.910156,2.332031 -1.910156,3.949219 0,1.628906 0.585938,3.082031 1.910156,3.960937 z m 0,0"
           style="fill:#231f20;fill-opacity:1;fill-rule:nonzero;stroke:none" />
        <path
           id="path19"
           d="m 39.223677,23.494827 c -0.222657,0.246093 -0.398438,0.351562 -0.550782,0.351562 -0.152343,0 -0.304687,-0.01172 -0.726562,-0.09375 -0.433594,-0.07031 -0.703125,-0.105469 -0.949219,-0.105469 -0.222656,0 -0.445312,0.1875 -0.65625,0.527344 -0.140625,0.234375 -0.246094,0.445313 -0.375,0.726563 l 0.234375,0.105468 c 0.257813,-0.457031 0.46875,-0.761718 0.890625,-0.761718 0.222656,0 0.621094,0.02344 0.855469,0.05859 0.199219,0.01172 0.398437,0 0.550781,-0.03516 -0.832031,0.890625 -1.875,1.910156 -2.496094,2.578125 -0.550781,0.574219 -0.480468,0.832031 -0.328125,0.902344 0.04687,0.01172 0.07031,-0.02344 0.105469,-0.08203 0.08203,-0.117188 0.1875,-0.234375 0.292969,-0.304688 0.117187,-0.08203 0.269531,-0.09375 0.550781,0.04687 0.398438,0.199219 0.914063,0.433594 1.207031,0.433594 0.386719,0 0.75,-0.269531 1.242188,-1.242188 l -0.199219,-0.164062 c -0.410156,0.609375 -0.679687,0.761719 -0.925781,0.761719 -0.222656,0 -0.515625,-0.117188 -0.808594,-0.210938 -0.269531,-0.117187 -0.503906,-0.164062 -0.679687,-0.152344 0.667968,-0.703125 1.851562,-1.886718 2.425781,-2.542968 0.246094,-0.269532 0.410156,-0.457032 0.527344,-0.597657 z m 0,0"
           style="fill:#231f20;fill-opacity:1;fill-rule:nonzero;stroke:none" />
        <path
           id="path20"
           d="m 40.357466,24.127639 0.609375,-1.289062 c 0.175781,-0.386719 0.28125,-0.621094 0.316406,-0.738282 0.03516,-0.08203 0.04687,-0.152343 0.04687,-0.222656 0,-0.09375 -0.02344,-0.164062 -0.08203,-0.222656 -0.07031,-0.05859 -0.152344,-0.09375 -0.257813,-0.09375 -0.128906,0 -0.246094,0.03516 -0.339844,0.117187 -0.105468,0.08203 -0.175781,0.222657 -0.234375,0.398438 -0.03516,0.128906 -0.08203,0.375 -0.117187,0.761719 l -0.140625,1.289062 z m 0,0"
           style="fill:#231f20;fill-opacity:1;fill-rule:nonzero;stroke:none" />
        <path
           id="path21"
           d="m 41.652388,26.506545 c -0.210938,0 -0.433594,0.140625 -0.433594,0.363282 0,0.152343 0.07031,0.222656 0.117187,0.234375 0.304688,0.07031 0.5625,0.269531 0.5625,0.597656 0,0.339844 -0.257812,0.574219 -0.691406,0.761719 l 0.09375,0.257812 c 0.550781,-0.164062 1.183594,-0.550781 1.183594,-1.242187 0,-0.632813 -0.503906,-0.972657 -0.832031,-0.972657 z m 0,0"
           style="fill:#231f20;fill-opacity:1;fill-rule:nonzero;stroke:none" />
        <path
           id="path22"
           d="m 49.263716,23.822952 c 0.292968,0.257812 0.503906,0.714843 0.503906,1.382812 -0.01172,1.007813 -0.398438,2.050781 -1.136719,2.050781 -0.304687,0 -0.515625,-0.304687 -0.492187,-0.878906 0.02344,-0.46875 0.234375,-1.359375 0.351562,-1.722656 l -0.05859,-0.03516 -0.667968,0.140625 c -0.03516,0.28125 -0.09375,0.75 -0.1875,1.136718 -0.199219,0.855469 -0.5625,1.3125 -0.949219,1.3125 -0.28125,0 -0.539063,-0.339843 -0.539063,-0.996093 0,-1.007813 0.46875,-1.921875 1.160157,-2.449219 L 47.10747,23.565135 c -1.042969,0.539063 -1.757813,1.558594 -1.757813,2.765625 0,0.9375 0.421875,1.441406 0.9375,1.441406 0.386719,0 0.902344,-0.398437 1.230469,-0.890625 0.04687,0.503907 0.328125,0.890625 0.761719,0.890625 0.375,0 0.738281,-0.222656 1.066406,-0.515625 0.5625,-0.527343 0.996094,-1.300781 0.996094,-2.214843 0,-0.902344 -0.398438,-1.417969 -0.691407,-1.417969 -0.152343,0 -0.316406,0.07031 -0.375,0.128906 z m 0,0"
           style="fill:#231f20;fill-opacity:1;fill-rule:nonzero;stroke:none" />
        <path
           id="path23"
           d="m 51.056684,21.49092 c 0.890625,0.738282 1.417969,2.203125 1.417969,3.75 0,1.546875 -0.503906,2.988282 -1.417969,3.75 l 0.164063,0.199219 c 1.347656,-0.914062 1.898437,-2.332031 1.898437,-3.949219 0,-1.628906 -0.550781,-3.058593 -1.898437,-3.960937 z m 0,0"
           style="fill:#231f20;fill-opacity:1;fill-rule:nonzero;stroke:none" />
      </g>
      <path
         id="path24"
         d="M 0,0 H 1597.47 V 5 H 0 Z"
         style="fill:#231f20;fill-opacity:1;fill-rule:nonzero;stroke:none"
         transform="matrix(0.13333333,0,0,-0.13333333,0,160.30667)" />
      <path
         id="path25"
         d="m 0,578.434 h 1597.47 v 5 H 0 Z"
         style="fill:#231f20;fill-opacity:1;fill-rule:nonzero;stroke:none"
         transform="matrix(0.13333333,0,0,-0.13333333,0,160.30667)" />
      <path
         id="path26"
         d="m 1131.38,126.461 c 0,-12.422 10.08,-22.512 22.51,-22.512 12.41,0 22.49,10.09 22.49,22.512 0,12.418 -10.08,22.488 -22.49,22.488 -12.43,0 -22.51,-10.07 -22.51,-22.488"
         style="fill:#231f20;fill-opacity:1;fill-rule:nonzero;stroke:none"
         transform="matrix(0.13333333,0,0,-0.13333333,0,160.30667)" />
      <path
         id="path27"
         d="m 768.871,446.422 -28.066,31.894 h -42.098 l -25.516,-21.687 -47.207,42.098 10.207,33.175 -35.722,7.649 48.484,19.137 -41.812,19.746 h 243.41 l -34.477,-18.465 21.692,-22.965 h -48.481 l 12.758,-43.375 -43.371,22.961 10.199,-70.168"
         style="fill:url(#linearGradient28);fill-opacity:1;fill-rule:nonzero;stroke:none"
         transform="matrix(0.13333333,0,0,-0.13333333,0,160.30667)"
         clip-path="url(#clipPath28)" />
      <path
         id="path29"
         d="m 850.551,578.434 h -243.41 l -4.114,1.945 115.176,0.555 133.594,-1.832 -1.246,-0.668"
         style="fill:#7b7979;fill-opacity:1;fill-rule:nonzero;stroke:none"
         transform="matrix(0.13333333,0,0,-0.13333333,0,160.30667)" />
      <path
         id="path30"
         d="m 718.203,580.934 -0.035,-2.5 123.918,-1.7 -30.074,-16.105 19.953,-21.125 h -46.02 l 12.024,-40.891 -42.481,22.489 9.7,-66.707 -23.25,26.421 h -44.153 l -24.555,-20.875 -44.382,39.582 10.535,34.25 -30.301,6.493 46.164,18.214 -41.183,19.45 104.152,0.504 -0.012,2.5 -0.035,-2.5 0.035,2.5 -0.012,2.5 -126.199,-0.61 50.672,-23.929 -50.809,-20.055 41.145,-8.813 -9.875,-32.097 50.027,-44.617 26.473,22.503 h 40.051 l 32.883,-37.367 -10.704,73.625 44.258,-23.429 -13.484,45.859 h 50.934 l -23.426,24.805 41.375,22.16 -143.297,1.965 h -0.024 l 0.012,-2.5"
         style="fill:#231f20;fill-opacity:1;fill-rule:nonzero;stroke:none"
         transform="matrix(0.13333333,0,0,-0.13333333,0,160.30667)" />
      <path
         id="path31"
         d="m 552.754,1199.84 9.695,-37.64 17.321,34.8 1.668,-38.84 24.171,30.44 -6.437,-38.33 29.969,24.75 -14.278,-36.16 34.469,17.98 -21.48,-32.4 37.453,10.42 -27.746,-27.23 38.793,2.41 -32.797,-20.86 38.449,-5.72 -36.43,-13.58 36.43,-13.58 -38.449,-5.72 32.797,-20.86 -38.793,2.4 27.746,-27.22 -37.453,10.41 21.48,-32.396 -34.469,17.976 14.278,-36.148 -29.969,24.746 6.437,-38.34 -24.171,30.446 -1.668,-38.832 -17.321,34.793 -9.695,-37.637 -9.707,37.637 -17.317,-34.793 -1.664,38.832 -24.171,-30.446 6.445,38.34 -29.973,-24.746 14.27,36.148 -34.465,-17.976 21.48,32.396 -37.449,-10.41 27.746,27.22 -38.801,-2.4 32.805,20.86 -38.445,5.72 36.414,13.58 -36.414,13.58 38.445,5.72 -32.805,20.86 38.801,-2.41 -27.746,27.23 37.449,-10.42 -21.48,32.4 34.465,-17.98 -14.27,36.16 29.973,-24.75 -6.445,38.33 24.171,-30.44 1.664,38.84 17.317,-34.8 9.707,37.64"
         style="fill:#fddd1b;fill-opacity:1;fill-rule:nonzero;stroke:none"
         transform="matrix(0.13333333,0,0,-0.13333333,0,160.30667)" />
      <path
         id="path32"
         d="m 552.754,1199.84 -2.422,-0.63 9.699,-37.64 c 0.258,-1 1.121,-1.75 2.16,-1.86 1.036,-0.11 2.036,0.44 2.497,1.38 l 13,26.11 1.25,-29.15 c 0.042,-1.04 0.734,-1.94 1.726,-2.27 0.988,-0.32 2.082,0.01 2.731,0.83 l 18.144,22.84 -4.836,-28.77 c -0.172,-1.02 0.317,-2.05 1.219,-2.57 0.898,-0.53 2.035,-0.43 2.84,0.23 l 22.492,18.57 -10.715,-27.13 c -0.383,-0.97 -0.121,-2.08 0.652,-2.78 0.774,-0.69 1.907,-0.84 2.829,-0.35 l 25.871,13.49 -16.121,-24.32 0.058,-2.85 c 0.613,-0.84 1.692,-1.22 2.695,-0.94 l 28.106,7.82 -20.82,-20.43 c -0.746,-0.73 -0.957,-1.85 -0.536,-2.8 0.426,-0.96 1.399,-1.55 2.442,-1.48 l 29.113,1.8 -24.613,-15.65 c -0.879,-0.56 -1.32,-1.61 -1.106,-2.63 0.215,-1.02 1.047,-1.8 2.079,-1.96 l 28.851,-4.28 -27.336,-10.2 c -0.976,-0.36 -1.629,-1.3 -1.629,-2.34 0,-1.04 0.653,-1.98 1.629,-2.34 l 27.34,-10.2 -28.855,-4.29 c -1.032,-0.15 -1.864,-0.93 -2.079,-1.95 -0.214,-1.02 0.227,-2.07 1.106,-2.63 l 24.613,-15.66 -29.113,1.81 c -1.043,0.06 -2.016,-0.53 -2.442,-1.48 -0.421,-0.96 -0.21,-2.07 0.536,-2.8 l 20.824,-20.44 -28.113,7.82 c -1.004,0.28 -2.079,-0.1 -2.692,-0.94 l -0.058,-2.85 16.117,-24.313 -25.867,13.493 c -0.922,0.48 -2.055,0.34 -2.829,-0.36 -0.773,-0.7 -1.035,-1.8 -0.652,-2.773 l 10.715,-27.129 -22.492,18.566 c -0.805,0.664 -1.942,0.762 -2.84,0.238 -0.902,-0.519 -1.391,-1.55 -1.219,-2.578 l 4.836,-28.777 -18.144,22.851 c -0.649,0.817 -1.743,1.145 -2.731,0.825 -0.992,-0.325 -1.684,-1.231 -1.726,-2.274 l -1.25,-29.144 -13,26.113 c -0.461,0.934 -1.461,1.48 -2.497,1.371 -1.039,-0.105 -1.902,-0.851 -2.16,-1.859 l -7.277,-28.246 -7.285,28.246 c -0.262,1.008 -1.125,1.754 -2.16,1.859 -1.036,0.109 -2.036,-0.437 -2.5,-1.371 l -12.993,-26.113 -1.25,29.144 c -0.046,1.043 -0.734,1.949 -1.726,2.274 -0.992,0.32 -2.082,-0.008 -2.731,-0.825 l -18.144,-22.847 4.84,28.773 c 0.172,1.028 -0.317,2.059 -1.215,2.578 -0.902,0.524 -2.039,0.426 -2.844,-0.238 l -22.492,-18.57 10.707,27.133 c 0.383,0.973 0.121,2.073 -0.652,2.773 -0.778,0.7 -1.907,0.84 -2.832,0.36 l -25.86,-13.489 16.117,24.309 -0.058,2.85 c -0.613,0.84 -1.692,1.22 -2.696,0.94 l -28.105,-7.82 20.824,20.44 c 0.746,0.73 0.957,1.84 0.535,2.8 -0.425,0.95 -1.398,1.54 -2.437,1.48 l -29.121,-1.81 24.621,15.66 c 0.879,0.56 1.316,1.61 1.101,2.63 -0.214,1.02 -1.046,1.8 -2.078,1.95 l -28.855,4.29 27.332,10.2 c 0.976,0.36 1.625,1.3 1.625,2.34 0,1.04 -0.649,1.98 -1.625,2.34 l -27.328,10.2 28.851,4.28 c 1.032,0.16 1.864,0.94 2.078,1.96 0.215,1.02 -0.222,2.07 -1.101,2.63 l -24.621,15.65 29.121,-1.8 c 1.039,-0.07 2.012,0.52 2.437,1.48 0.422,0.95 0.211,2.07 -0.535,2.8 l -20.82,20.43 28.101,-7.82 c 1.004,-0.28 2.083,0.1 2.696,0.94 l 0.058,2.85 -16.121,24.32 25.867,-13.49 c 0.922,-0.49 2.051,-0.34 2.829,0.35 0.773,0.7 1.035,1.81 0.652,2.78 l -10.707,27.13 22.492,-18.57 c 0.805,-0.66 1.942,-0.76 2.844,-0.23 0.898,0.52 1.387,1.55 1.215,2.57 l -4.84,28.77 18.144,-22.84 c 0.649,-0.82 1.739,-1.15 2.731,-0.83 0.992,0.33 1.68,1.23 1.726,2.27 l 1.25,29.15 12.993,-26.11 c 0.464,-0.94 1.464,-1.49 2.5,-1.38 1.035,0.11 1.898,0.86 2.16,1.86 l 9.707,37.64 -2.422,0.63 -2.422,-0.63 2.422,0.63 -2.422,0.62 -8.031,-31.15 -14.328,28.8 c -0.508,1.02 -1.645,1.57 -2.758,1.34 -1.117,-0.24 -1.93,-1.2 -1.981,-2.34 l -1.379,-32.15 -20.003,25.2 c -0.711,0.89 -1.934,1.19 -2.977,0.72 -1.039,-0.46 -1.637,-1.57 -1.449,-2.7 l 5.336,-31.72 -24.801,20.49 c -0.883,0.72 -2.141,0.76 -3.063,0.09 -0.921,-0.67 -1.277,-1.88 -0.855,-2.94 l 11.805,-29.92 -28.52,14.87 c -1.012,0.53 -2.25,0.31 -3.015,-0.54 -0.762,-0.85 -0.856,-2.1 -0.223,-3.05 l 17.773,-26.82 -30.988,8.63 c -1.098,0.3 -2.266,-0.17 -2.836,-1.16 -0.57,-0.99 -0.398,-2.23 0.414,-3.04 l 22.961,-22.53 -32.109,1.99 c -1.137,0.07 -2.18,-0.64 -2.532,-1.72 -0.351,-1.09 0.075,-2.27 1.036,-2.88 l 27.144,-17.27 -31.816,-4.72 c -1.125,-0.17 -1.996,-1.08 -2.117,-2.22 -0.122,-1.13 0.543,-2.2 1.613,-2.6 l 30.137,-11.24 -30.137,-11.24 c -1.07,-0.4 -1.735,-1.47 -1.613,-2.6 0.121,-1.14 0.992,-2.05 2.117,-2.22 l 31.82,-4.73 -27.148,-17.26 c -0.961,-0.62 -1.387,-1.8 -1.036,-2.88 0.352,-1.09 1.395,-1.8 2.532,-1.73 l 32.109,1.99 -22.961,-22.53 c -0.812,-0.79 -0.984,-2.04 -0.414,-3.03 0.57,-0.99 1.738,-1.47 2.836,-1.16 l 30.988,8.62 -17.773,-26.813 c -0.633,-0.949 -0.539,-2.207 0.223,-3.055 0.765,-0.847 2.003,-1.07 3.015,-0.543 l 28.52,14.879 -11.805,-29.918 c -0.422,-1.058 -0.066,-2.269 0.855,-2.941 0.922,-0.668 2.18,-0.629 3.063,0.097 l 24.801,20.477 -5.336,-31.73 c -0.188,-1.125 0.41,-2.235 1.449,-2.7 1.043,-0.461 2.266,-0.164 2.977,0.731 l 20.003,25.195 1.379,-32.137 c 0.051,-1.136 0.864,-2.101 1.981,-2.336 1.113,-0.238 2.25,0.309 2.758,1.329 l 14.328,28.796 8.031,-31.148 c 0.285,-1.102 1.281,-1.875 2.422,-1.875 1.141,0 2.137,0.773 2.422,1.875 l 8.023,31.148 14.332,-28.796 c 0.508,-1.02 1.645,-1.567 2.758,-1.329 1.117,0.235 1.93,1.2 1.981,2.336 l 1.375,32.137 20.007,-25.195 c 0.707,-0.895 1.934,-1.192 2.977,-0.731 1.039,0.465 1.637,1.575 1.445,2.7 l -5.328,31.73 24.805,-20.477 c 0.879,-0.726 2.137,-0.765 3.058,-0.097 0.922,0.672 1.278,1.883 0.856,2.941 l -11.813,29.918 28.524,-14.879 c 1.012,-0.527 2.25,-0.304 3.012,0.543 0.765,0.848 0.859,2.106 0.226,3.055 l -17.777,26.813 30.996,-8.62 c 1.097,-0.31 2.265,0.17 2.836,1.16 0.57,0.99 0.398,2.24 -0.414,3.03 l -22.961,22.53 32.105,-1.99 c 1.137,-0.07 2.18,0.64 2.531,1.73 0.352,1.08 -0.074,2.26 -1.035,2.88 l -27.144,17.26 31.82,4.73 c 1.125,0.17 1.996,1.08 2.117,2.22 0.117,1.13 -0.543,2.2 -1.613,2.6 l -30.145,11.24 30.145,11.24 c 1.07,0.4 1.73,1.47 1.613,2.6 -0.121,1.14 -0.992,2.05 -2.121,2.22 l -31.816,4.72 27.144,17.27 c 0.961,0.61 1.387,1.79 1.035,2.88 -0.351,1.08 -1.394,1.79 -2.531,1.72 l -32.105,-1.99 22.961,22.53 c 0.812,0.81 0.984,2.05 0.414,3.04 -0.571,0.99 -1.739,1.46 -2.836,1.16 l -30.992,-8.63 17.773,26.82 c 0.633,0.95 0.539,2.2 -0.226,3.05 -0.762,0.85 -2,1.07 -3.012,0.54 l -28.528,-14.87 11.817,29.92 c 0.422,1.06 0.066,2.27 -0.856,2.94 -0.921,0.67 -2.179,0.63 -3.058,-0.09 l -24.805,-20.49 5.328,31.72 c 0.192,1.13 -0.406,2.24 -1.445,2.7 -1.043,0.47 -2.266,0.17 -2.977,-0.72 l -20.007,-25.2 -1.375,32.15 c -0.051,1.14 -0.864,2.1 -1.981,2.34 -1.113,0.23 -2.25,-0.32 -2.758,-1.34 l -14.332,-28.8 -8.023,31.15 c -0.285,1.11 -1.281,1.88 -2.422,1.88 -1.141,0 -2.137,-0.77 -2.422,-1.88 l 2.422,-0.62"
         style="fill:#231f20;fill-opacity:1;fill-rule:nonzero;stroke:none"
         transform="matrix(0.13333333,0,0,-0.13333333,0,160.30667)" />
      <path
         id="path33"
         d="m 613.313,864.973 101.355,-285.293 7.07,2.508 -101.359,285.292"
         style="fill:#231f20;fill-opacity:1;fill-rule:nonzero;stroke:none"
         transform="matrix(0.13333333,0,0,-0.13333333,0,160.30667)" />
      <path
         id="path34"
         d="m 620.449,856.078 24.77,-5.148 0.215,0.859 -24.996,28.531 c -6.653,10.664 -13.309,21.332 -19.969,32 1.566,-12.476 3.136,-24.957 4.699,-37.429 l -1.395,-37.907 0.59,-0.574 16.086,19.668"
         style="fill:#231f20;fill-opacity:1;fill-rule:nonzero;stroke:none"
         transform="matrix(0.13333333,0,0,-0.13333333,0,160.30667)" />
      <path
         id="path35"
         d="m 685.668,587.73 c 0,-12.417 10.078,-22.507 22.508,-22.507 12.422,0 22.492,10.09 22.492,22.507 0,12.422 -10.07,22.493 -22.492,22.493 -12.43,0 -22.508,-10.071 -22.508,-22.493"
         style="fill:#231f20;fill-opacity:1;fill-rule:nonzero;stroke:none"
         transform="matrix(0.13333333,0,0,-0.13333333,0,160.30667)" />
      <path
         id="path36"
         d="M 1030.41,259.168 715.887,583.543 710.5,578.324 1025.02,253.949"
         style="fill:#231f20;fill-opacity:1;fill-rule:nonzero;stroke:none"
         transform="matrix(0.13333333,0,0,-0.13333333,0,160.30667)" />
      <path
         id="path37"
         d="m 1156.57,129.059 -92.11,94.992 -5.38,-5.219 92.1,-94.992"
         style="fill:#231f20;fill-opacity:1;fill-rule:nonzero;stroke:none"
         transform="matrix(0.13333333,0,0,-0.13333333,0,160.30667)" />
      <path
         id="path38"
         d="m 1069.26,213.711 -6.36,-24.492 -0.87,0.191 -14.49,35.055 c -6.61,10.695 -13.22,21.394 -19.83,32.094 10.49,-6.938 20.98,-13.871 31.47,-20.805 l 34.59,-15.563 0.25,-0.785 -24.76,-5.695"
         style="fill:#231f20;fill-opacity:1;fill-rule:nonzero;stroke:none"
         transform="matrix(0.13333333,0,0,-0.13333333,0,160.30667)" />
      <path
         id="path39"
         d="m 928.43,335.77 c 0,-12.422 10.07,-22.512 22.5,-22.512 12.422,0 22.5,10.09 22.5,22.512 0,12.421 -10.078,22.488 -22.5,22.488 -12.43,0 -22.5,-10.067 -22.5,-22.488"
         style="fill:#231f20;fill-opacity:1;fill-rule:nonzero;stroke:none"
         transform="matrix(0.13333333,0,0,-0.13333333,0,160.30667)" />
    </g>
  </g>
</svg>
