<?xml version="1.0" encoding="UTF-8" standalone="no"?>
<!-- Created with Inkscape (http://www.inkscape.org/) -->

<svg
   version="1.1"
   id="svg1"
   width="173.26666"
   height="77.786667"
   viewBox="0 0 173.26666 77.786667"
   sodipodi:docname="pha14f13.eps"
   xmlns:inkscape="http://www.inkscape.org/namespaces/inkscape"
   xmlns:sodipodi="http://sodipodi.sourceforge.net/DTD/sodipodi-0.dtd"
   xmlns="http://www.w3.org/2000/svg"
   xmlns:svg="http://www.w3.org/2000/svg">
  <defs
     id="defs1">
    <linearGradient
       x1="0"
       y1="0"
       x2="1"
       y2="0"
       gradientUnits="userSpaceOnUse"
       gradientTransform="matrix(-2.54e-5,-580.181,-580.181,2.54e-5,649.751,580.942)"
       spreadMethod="pad"
       id="linearGradient3">
      <stop
         style="stop-opacity:1;stop-color:#ffffff"
         offset="0"
         id="stop2" />
      <stop
         style="stop-opacity:1;stop-color:#918f8f"
         offset="1"
         id="stop3" />
    </linearGradient>
    <clipPath
       clipPathUnits="userSpaceOnUse"
       id="clipPath3">
      <path
         d="M 0,0.761719 H 1299.51 V 580.94172 H 0 Z"
         id="path3" />
    </clipPath>
  </defs>
  <sodipodi:namedview
     id="namedview1"
     pagecolor="#ffffff"
     bordercolor="#000000"
     borderopacity="0.25"
     inkscape:showpageshadow="2"
     inkscape:pageopacity="0.0"
     inkscape:pagecheckerboard="0"
     inkscape:deskcolor="#d1d1d1">
    <inkscape:page
       x="0"
       y="0"
       inkscape:label="1"
       id="page1"
       width="173.26666"
       height="77.786667"
       margin="0"
       bleed="0" />
  </sodipodi:namedview>
  <g
     id="g1"
     inkscape:groupmode="layer"
     inkscape:label="1">
    <g
       id="group-R5">
      <path
         id="path2"
         d="M 0,0.761719 H 1299.51 V 580.94172 H 0 Z"
         style="fill:url(#linearGradient3);fill-opacity:1;fill-rule:nonzero;stroke:none"
         transform="matrix(0.13333333,0,0,-0.13333333,0,77.786667)"
         clip-path="url(#clipPath3)" />
      <path
         id="path4"
         d="M 0,0 H 1299.51 V 5 H 0 Z"
         style="fill:#231f20;fill-opacity:1;fill-rule:nonzero;stroke:none"
         transform="matrix(0.13333333,0,0,-0.13333333,0,77.786667)" />
      <path
         id="path5"
         d="m 0,578.441 h 1299.51 v 5 H 0 Z"
         style="fill:#231f20;fill-opacity:1;fill-rule:nonzero;stroke:none"
         transform="matrix(0.13333333,0,0,-0.13333333,0,77.786667)" />
      <path
         id="path6"
         d="m 370.012,440.469 c 0,-12.422 10.078,-22.508 22.508,-22.508 12.414,0 22.492,10.086 22.492,22.508 0,12.418 -10.078,22.492 -22.492,22.492 -12.43,0 -22.508,-10.074 -22.508,-22.492"
         style="fill:#231f20;fill-opacity:1;fill-rule:nonzero;stroke:none"
         transform="matrix(0.13333333,0,0,-0.13333333,0,77.786667)" />
      <path
         id="path7"
         d="m 1059.43,187.898 c 0,-12.421 10.08,-22.507 22.51,-22.507 12.42,0 22.49,10.086 22.49,22.507 0,12.418 -10.07,22.493 -22.49,22.493 -12.43,0 -22.51,-10.075 -22.51,-22.493"
         style="fill:#231f20;fill-opacity:1;fill-rule:nonzero;stroke:none"
         transform="matrix(0.13333333,0,0,-0.13333333,0,77.786667)" />
      <path
         id="path8"
         d="m 392.512,440.461 -1.297,-3.52 665.495,-245.3 H 396.262 v 248.82 h -3.75 l -1.297,-3.52 1.297,3.52 h -3.75 V 184.141 H 1098.74 L 388.762,445.836 v -5.375 h 3.75"
         style="fill:#231f20;fill-opacity:1;fill-rule:nonzero;stroke:none"
         transform="matrix(0.13333333,0,0,-0.13333333,0,77.786667)" />
      <path
         id="path9"
         d="m 527.035,390.875 c -20.183,-54.727 -72.793,-93.75 -134.523,-93.746 v -5 c 63.883,0.004 118.332,40.375 139.215,97.016 l -4.692,1.73"
         style="fill:#231f20;fill-opacity:1;fill-rule:nonzero;stroke:none"
         transform="matrix(0.13333333,0,0,-0.13333333,0,77.786667)" />
      <path
         id="path10"
         d="m 3.7845766,-4.1722703 c -0.2226563,0.2460937 -0.3984375,0.3515625 -0.5507813,0.3515625 -0.1523437,0 -0.3046875,-0.011719 -0.7265625,-0.09375 -0.4335937,-0.070312 -0.703125,-0.1054688 -0.9492187,-0.1054688 -0.2226563,0 -0.4453125,0.1875 -0.65625004,0.5273438 -0.140625,0.234375 -0.24609375,0.4453125 -0.375,0.7265625 l 0.234375,0.1054687 C 1.0189516,-3.1175828 1.2298891,-3.4222703 1.6517641,-3.4222703 c 0.2226562,0 0.6210937,0.023437 0.8554687,0.058594 0.1992188,0.011719 0.3984375,0 0.5507813,-0.035156 -0.8320313,0.890625 -1.875,1.9101562 -2.49609379,2.57812499 -0.55078125,0.57421875 -0.48046875,0.83203125 -0.328125,0.90234375 0.046875,0.01171875 0.0703125,-0.0234375 0.10546875,-0.0820312525 0.0820313,-0.1171874975 0.1875,-0.2343749975 0.29296875,-0.3046874975 0.1171875,-0.0820313 0.26953125,-0.09375 0.55078129,0.046875 0.3984375,0.19921875 0.9140625,0.43359375 1.2070312,0.43359375 0.3867188,0 0.75,-0.26953125 1.2421875,-1.24218754 l -0.1992187,-0.164063 c -0.4101563,0.60937504 -0.6796875,0.76171879 -0.9257813,0.76171879 -0.2226562,0 -0.515625,-0.1171875 -0.8085937,-0.2109375 C 1.4291078,-0.79727031 1.1947328,-0.84414531 1.0189516,-0.83242656 1.6869203,-1.5355516 2.8705141,-2.7191453 3.4447328,-3.3753953 3.6908266,-3.6449266 3.8548891,-3.8324266 3.9720766,-3.9730516 Z M 19.572663,-4.409575 c -1.59375,0 -2.613282,2.671875 -2.613282,4.55859375 0,0.93750005 0.257813,1.95703125 1.265625,1.95703125 1.617188,0 2.566407,-2.6953125 2.566407,-4.6171875 0,-0.9726562 -0.257813,-1.8984375 -1.21875,-1.8984375 z m -1.699219,2.9179688 c 0.269531,-1.3476563 0.84375,-2.6132813 1.570312,-2.6132813 0.585938,0 0.644532,0.890625 0.644532,1.3710938 0,0.4101562 -0.05859,0.796875 -0.105469,1.2421875 z m 2.039062,0.421875 c -0.246093,1.42968745 -0.820312,2.859375 -1.570312,2.859375 -0.527344,0 -0.667969,-0.7734375 -0.667969,-1.47656255 0,-0.46875 0.05859,-0.92578125 0.128906,-1.38281245 z m 24.911133,-7.1923829 c -0.246094,0.2460938 -0.527344,0.4453125 -0.644531,0.4453125 -0.05859,0 -0.07031,-0.082031 -0.03516,-0.3046875 0.316406,-1.7460937 0.691406,-3.4921879 1.125,-5.2851559 0.03516,-0.1875 0.01172,-0.257813 -0.07031,-0.257813 -0.128906,0 -0.621094,0.222656 -1.371094,0.316406 l -0.03516,0.222657 h 0.292969 c 0.398437,0 0.421875,0.03516 0.339844,0.445312 l -0.292969,1.488281 c -0.222656,-0.09375 -0.410156,-0.105468 -0.527344,-0.105468 -0.433594,0 -1.171875,0.328125 -1.59375,0.691406 -0.65625,0.574219 -1.054687,1.5351562 -1.054687,2.3789062 0,0.7148437 0.292968,1.078125 0.585937,1.078125 0.257813,0 0.539063,-0.140625 0.878906,-0.4101563 0.316407,-0.2460937 0.785157,-0.6445312 1.183594,-1.1835937 h 0.02344 l -0.164063,0.7617187 c -0.140625,0.6914063 -0.02344,0.8320313 0.164063,0.8320313 0.246093,0 0.84375,-0.3398438 1.324218,-0.9023438 z m -2.835937,0.5273438 c -0.152344,0 -0.28125,-0.1992188 -0.28125,-0.6679688 0,-0.75 0.351562,-1.8867189 0.960937,-2.3203129 0.152344,-0.117187 0.351563,-0.1875 0.621094,-0.1875 0.269531,0 0.597656,0.105469 0.738281,0.234375 l -0.292969,1.2890629 c -0.292968,0.5390625 -1.289062,1.6523438 -1.746093,1.6523438 z m 0,0"
         style="fill:#231f20;fill-opacity:1;fill-rule:nonzero;stroke:none"
         aria-label="z&#10;θ&#10;d"
         transform="matrix(1.3333333,0,0,1.3333333,42.871867,41.816933)" />
    </g>
  </g>
</svg>
