<?xml version="1.0" encoding="UTF-8" standalone="no"?>
<!-- Created with Inkscape (http://www.inkscape.org/) -->

<svg
   version="1.1"
   id="svg1"
   width="195.75999"
   height="115.84"
   viewBox="0 0 195.75999 115.84"
   sodipodi:docname="pha14f18.eps"
   xmlns:inkscape="http://www.inkscape.org/namespaces/inkscape"
   xmlns:sodipodi="http://sodipodi.sourceforge.net/DTD/sodipodi-0.dtd"
   xmlns="http://www.w3.org/2000/svg"
   xmlns:svg="http://www.w3.org/2000/svg">
  <defs
     id="defs1">
    <linearGradient
       x1="0"
       y1="0"
       x2="1"
       y2="0"
       gradientUnits="userSpaceOnUse"
       gradientTransform="matrix(-1.66e-5,-380.625,-380.625,1.66e-5,961.099,572.128)"
       spreadMethod="pad"
       id="linearGradient4">
      <stop
         style="stop-opacity:1;stop-color:#f7f7f7"
         offset="0"
         id="stop2" />
      <stop
         style="stop-opacity:1;stop-color:#c5c3c4"
         offset="0.966646"
         id="stop3" />
      <stop
         style="stop-opacity:1;stop-color:#918f8f"
         offset="1"
         id="stop4" />
    </linearGradient>
    <clipPath
       clipPathUnits="userSpaceOnUse"
       id="clipPath4">
      <path
         d="M 453,191 H 1468 V 573 H 453 Z"
         id="path4" />
    </clipPath>
  </defs>
  <sodipodi:namedview
     id="namedview1"
     pagecolor="#ffffff"
     bordercolor="#000000"
     borderopacity="0.25"
     inkscape:showpageshadow="2"
     inkscape:pageopacity="0.0"
     inkscape:pagecheckerboard="0"
     inkscape:deskcolor="#d1d1d1">
    <inkscape:page
       x="0"
       y="0"
       inkscape:label="1"
       id="page1"
       width="195.75999"
       height="115.84"
       margin="0"
       bleed="0" />
  </sodipodi:namedview>
  <g
     id="g1"
     inkscape:groupmode="layer"
     inkscape:label="1">
    <g
       id="group-R5">
      <path
         id="path2"
         d="M 453,191 H 1468 V 573 H 453 Z"
         style="fill:url(#linearGradient4);fill-opacity:1;fill-rule:nonzero;stroke:none"
         transform="matrix(0.13333333,0,0,-0.13333333,0,115.84)"
         clip-path="url(#clipPath4)" />
      <g
         id="g4"
         aria-label="0&#10;z&#10;thickness"
         transform="matrix(1.3333333,0,0,1.3333333,38.9636,92.511867)">
        <path
           id="path5"
           d="m 2.1571828,-5.7188609 c -1.34765624,0 -1.83984374,1.6054687 -1.83984374,2.9179687 0,1.4179688 0.48046875,2.90625001 1.83984374,2.90625001 1.359375,0 1.828125,-1.59375001 1.828125,-2.91796871 0,-1.3828125 -0.46875,-2.90625 -1.828125,-2.90625 z m 0,0.3046875 c 0.8085938,0 1.03125,1.3242187 1.03125,2.6015625 0,1.265625 -0.2226562,2.61328121 -1.03125,2.61328121 -0.7734375,0 -1.0429687,-1.35937501 -1.0429687,-2.61328121 0,-1.2539063 0.2226562,-2.6015625 1.0429687,-2.6015625 z m 0,0"
           style="fill:#231f20;fill-opacity:1;fill-rule:nonzero;stroke:none" />
        <path
           id="path6"
           d="m 11.248003,1.8280141 c -0.222656,0.2460937 -0.398437,0.3515625 -0.550781,0.3515625 -0.152344,0 -0.304688,-0.011719 -0.7265626,-0.09375 -0.4335938,-0.070312 -0.703125,-0.1054688 -0.9492188,-0.1054688 -0.2226562,0 -0.4453125,0.1875 -0.65625,0.5273438 -0.140625,0.234375 -0.2460937,0.4453125 -0.375,0.7265625 l 0.234375,0.1054687 c 0.2578125,-0.4570312 0.46875,-0.7617187 0.890625,-0.7617187 0.2226563,0 0.6210938,0.023437 0.8554688,0.058594 0.1992186,0.011719 0.3984376,0 0.5507816,-0.035156 -0.8320316,0.890625 -1.8750004,1.9101562 -2.4960941,2.578125 -0.5507813,0.5742187 -0.4804688,0.8320312 -0.328125,0.9023437 0.046875,0.011719 0.070312,-0.023437 0.1054687,-0.082031 0.082031,-0.1171875 0.1875,-0.234375 0.2929688,-0.3046875 0.1171875,-0.082031 0.2695312,-0.09375 0.5507812,0.046875 0.3984375,0.1992187 0.9140625,0.4335937 1.2070313,0.4335937 0.3867191,0 0.7500001,-0.2695312 1.2421871,-1.2421875 L 10.896441,4.7694203 c -0.410157,0.609375 -0.679688,0.7617188 -0.9257816,0.7617188 -0.2226563,0 -0.515625,-0.1171875 -0.8085938,-0.2109375 C 8.8925344,5.2030141 8.6581594,5.1561391 8.4823781,5.1678578 9.1503469,4.4647328 10.333941,3.2811391 10.908159,2.6248891 11.154253,2.3553578 11.318316,2.1678578 11.435503,2.0272328 Z m 0,0"
           style="fill:#231f20;fill-opacity:1;fill-rule:nonzero;stroke:none" />
        <path
           id="path7"
           d="m -26.539106,-38.329212 -0.08203,-0.234375 c -0.128907,0.07031 -0.328125,0.152343 -0.5625,0.152343 -0.222657,0 -0.515625,-0.128906 -0.515625,-0.855468 v -2.320313 h 0.960937 c 0.105469,-0.05859 0.128906,-0.257812 0.05859,-0.351562 h -1.019531 v -1.230469 l -0.128907,-0.01172 -0.585937,0.585938 v 0.65625 h -0.410156 l -0.246094,0.269531 0.03516,0.08203 h 0.621094 v 2.625 c 0,0.703125 0.316406,1.066406 0.878906,1.066406 0.08203,0 0.234375,-0.03516 0.386719,-0.117187 z m 4.731445,0.328125 v -0.234375 c -0.527344,-0.04687 -0.597656,-0.09375 -0.597656,-0.691407 V -40.5089 c 0,-1.078125 -0.503906,-1.535156 -1.242188,-1.535156 -0.480468,0 -0.972656,0.339844 -1.289062,0.65625 v -3.023438 c -0.339844,0.105469 -0.890625,0.257813 -1.3125,0.316407 v 0.210937 c 0.585937,0.04687 0.609375,0.09375 0.609375,0.667969 v 4.289062 c 0,0.597657 -0.08203,0.644532 -0.621094,0.691407 v 0.234375 h 1.910156 v -0.234375 c -0.539062,-0.05859 -0.585937,-0.117188 -0.585937,-0.691407 V -41.0714 c 0.257812,-0.28125 0.597656,-0.457031 0.9375,-0.457031 0.609375,0 0.890625,0.363281 0.890625,1.101562 v 1.5 c 0,0.585938 -0.08203,0.632813 -0.597656,0.691407 v 0.234375 z m 1.40918,-4.828125 c 0.257812,0 0.457031,-0.210938 0.457031,-0.457032 0,-0.269531 -0.199219,-0.46875 -0.457031,-0.46875 -0.234375,0 -0.457031,0.199219 -0.457031,0.46875 0,0.246094 0.222656,0.457032 0.457031,0.457032 z m 1.054687,4.828125 v -0.234375 c -0.585937,-0.05859 -0.644531,-0.105469 -0.644531,-0.714844 v -3.105469 c -0.398437,0.152344 -0.820312,0.269531 -1.277344,0.351563 v 0.210937 c 0.539063,0.09375 0.5625,0.128906 0.5625,0.679688 v 1.863281 c 0,0.609375 -0.05859,0.65625 -0.621093,0.714844 v 0.234375 z m 3.653321,-0.996094 c -0.410157,0.386719 -0.703125,0.492187 -1.089844,0.492187 -0.503906,0 -1.359375,-0.410156 -1.359375,-1.664062 0,-0.949219 0.515625,-1.441406 1.113281,-1.441406 0.316406,0 0.632813,0.117187 0.902344,0.375 0.08203,0.07031 0.117187,0.09375 0.164062,0.09375 0.105469,0 0.304688,-0.199219 0.304688,-0.386719 0,-0.105469 -0.03516,-0.175781 -0.152344,-0.28125 -0.140625,-0.117188 -0.433594,-0.234375 -0.796875,-0.234375 -0.351562,0 -0.890625,0.140625 -1.359375,0.503906 -0.597656,0.46875 -0.902344,1.078125 -0.902344,1.769531 0,0.960938 0.667969,1.875 1.804688,1.875 0.527344,0 1.136719,-0.398437 1.523437,-0.914062 z m 4.854492,0.996094 v -0.234375 c -0.339844,-0.02344 -0.574219,-0.152344 -0.902344,-0.492188 -0.304687,-0.316406 -1.207031,-1.382812 -1.394531,-1.652344 0.386719,-0.445312 0.550781,-0.632812 0.773437,-0.855468 0.351563,-0.328125 0.539063,-0.421875 1.160157,-0.527344 v -0.222656 l -1.828125,0.08203 v 0.234375 c 0.421875,0.03516 0.445312,0.117187 0.269531,0.386719 -0.175781,0.246093 -0.445313,0.597656 -0.644531,0.796875 -0.128907,0.140625 -0.292969,0.257812 -0.5625,0.316406 v -4.242188 c -0.351563,0.117188 -0.867188,0.269532 -1.300782,0.316407 v 0.210937 c 0.550782,0.04687 0.597657,0.09375 0.597657,0.691406 v 4.253907 c 0,0.574218 -0.05859,0.644531 -0.65625,0.703125 v 0.234375 h 2.015625 v -0.234375 c -0.574219,-0.05859 -0.65625,-0.105469 -0.65625,-0.703125 v -0.996094 c 0.05859,-0.02344 0.105468,-0.02344 0.140625,-0.02344 0.08203,0 0.164062,0.03516 0.28125,0.1875 0.492187,0.609375 1.054687,1.324219 1.476562,1.792969 z m 4.5937498,0 v -0.234375 c -0.5273438,-0.05859 -0.5742188,-0.09375 -0.5742188,-0.703125 v -1.734375 c 0,-0.878907 -0.4453125,-1.371094 -1.1601562,-1.371094 -0.2578125,0 -0.4921875,0.105469 -0.75,0.269531 -0.2226563,0.152344 -0.421875,0.292969 -0.5976563,0.421875 v -0.714844 c -0.3984375,0.175782 -0.8203125,0.28125 -1.2539065,0.363282 v 0.210937 c 0.492188,0.09375 0.539063,0.117188 0.539063,0.691406 v 1.863282 c 0,0.597656 -0.04687,0.644531 -0.65625,0.703125 v 0.234375 h 1.957031 v -0.234375 c -0.5273437,-0.05859 -0.5859375,-0.09375 -0.5859375,-0.703125 v -2.109375 c 0.2695313,-0.234375 0.6210938,-0.46875 0.984375,-0.46875 0.5976563,0 0.8203125,0.410156 0.8203125,1.03125 v 1.5 c 0,0.621093 -0.070312,0.691406 -0.5976562,0.75 v 0.234375 z m 3.5859375,-0.949219 c -0.328125,0.304687 -0.6679688,0.445312 -1.0195313,0.445312 -0.6328125,0 -1.3359375,-0.503906 -1.3476562,-1.722656 1.0664062,-0.04687 2.1914062,-0.128906 2.3554687,-0.164062 0.1523438,-0.03516 0.1992188,-0.105469 0.1992188,-0.28125 0,-0.703125 -0.5976563,-1.371094 -1.3476563,-1.371094 -0.46875,0 -0.9492187,0.246094 -1.3242187,0.65625 -0.3632813,0.410156 -0.5976563,0.960937 -0.5976563,1.582031 0,1.007813 0.65625,1.910156 1.7578125,1.910156 0.28125,0 0.9023438,-0.164062 1.4648438,-0.867187 z m -1.3710938,-2.753906 c 0.4921875,0 0.796875,0.421875 0.7851563,0.890625 0,0.128906 -0.046875,0.1875 -0.2109375,0.1875 -0.5273438,0.01172 -1.0195313,0.02344 -1.5234375,0.02344 0.1289062,-0.726562 0.5273437,-1.101562 0.9492187,-1.101562 z m 4.66992188,0.773437 c -0.0351563,-0.222656 -0.12890625,-0.75 -0.19921875,-0.960937 -0.1875,-0.07031 -0.43359375,-0.152344 -0.796875,-0.152344 -0.83203123,0 -1.37109373,0.527344 -1.37109373,1.160156 0,0.691406 0.5859375,0.996094 1.12499998,1.242188 0.4453125,0.210937 0.703125,0.421875 0.703125,0.820312 0,0.375 -0.3046875,0.632813 -0.6328125,0.632813 -0.53906248,0 -0.94921878,-0.527344 -1.11328128,-1.113282 l -0.234375,0.03516 c 0,0.328125 0.082031,0.9375 0.1523438,1.066406 0.1640625,0.140625 0.5742187,0.304687 1.03124998,0.304687 0.7265625,0 1.48828125,-0.421875 1.48828125,-1.242187 0,-0.621094 -0.45703125,-0.9375 -1.13671875,-1.21875 -0.41015625,-0.175781 -0.76171878,-0.375 -0.76171878,-0.785156 0,-0.351563 0.24609378,-0.621094 0.58593753,-0.621094 0.43359375,0 0.75,0.363281 0.92578125,0.890625 z m 3.25781252,0 c -0.035156,-0.222656 -0.1289063,-0.75 -0.1992188,-0.960937 -0.1875,-0.07031 -0.4335937,-0.152344 -0.796875,-0.152344 -0.8320312,0 -1.3710937,0.527344 -1.3710937,1.160156 0,0.691406 0.5859375,0.996094 1.125,1.242188 0.4453125,0.210937 0.703125,0.421875 0.703125,0.820312 0,0.375 -0.3046875,0.632813 -0.6328125,0.632813 -0.5390625,0 -0.9492188,-0.527344 -1.1132813,-1.113282 l -0.234375,0.03516 c 0,0.328125 0.082031,0.9375 0.1523438,1.066406 0.1640625,0.140625 0.5742187,0.304687 1.03125,0.304687 0.7265625,0 1.4882812,-0.421875 1.4882812,-1.242187 0,-0.621094 -0.4570312,-0.9375 -1.1367187,-1.21875 -0.4101563,-0.175781 -0.7617188,-0.375 -0.7617188,-0.785156 0,-0.351563 0.2460938,-0.621094 0.5859375,-0.621094 0.4335938,0 0.75,0.363281 0.9257813,0.890625 z m 0,0"
           style="fill:#231f20;fill-opacity:1;fill-rule:nonzero;stroke:none" />
      </g>
      <path
         id="path8"
         d="m 453.965,190.141 h 1014.27 v 5 H 453.965 Z"
         style="fill:#231f20;fill-opacity:1;fill-rule:nonzero;stroke:none"
         transform="matrix(0.13333333,0,0,-0.13333333,0,115.84)" />
      <path
         id="path9"
         d="m 453.965,569.629 h 1014.27 v 5 H 453.965 Z"
         style="fill:#231f20;fill-opacity:1;fill-rule:nonzero;stroke:none"
         transform="matrix(0.13333333,0,0,-0.13333333,0,115.84)" />
      <path
         id="path10"
         d="m 1002.48,611.813 -260.335,256.96 -5.266,-5.339 260.332,-256.957"
         style="fill:#231f20;fill-opacity:1;fill-rule:nonzero;stroke:none"
         transform="matrix(0.13333333,0,0,-0.13333333,0,115.84)" />
      <path
         id="path11"
         d="m 992.184,616.711 -24.547,-6.148 0.179,-0.868 34.924,-14.797 c 10.64,-6.707 21.28,-13.41 31.92,-20.113 -6.85,10.551 -13.69,21.098 -20.53,31.649 l -15.251,34.726 -0.781,0.262 -5.914,-24.711"
         style="fill:#231f20;fill-opacity:1;fill-rule:nonzero;stroke:none"
         transform="matrix(0.13333333,0,0,-0.13333333,0,115.84)" />
      <path
         id="path12"
         d="M 1078.85,165.969 1404.83,0 l 3.4,6.67969 -325.98,165.97231"
         style="fill:#231f20;fill-opacity:1;fill-rule:nonzero;stroke:none"
         transform="matrix(0.13333333,0,0,-0.13333333,0,115.84)" />
      <path
         id="path13"
         d="m 1090.15,164.422 21.53,13.301 -0.44,0.773 -37.76,3.516 c -12.18,3.164 -24.34,6.328 -36.52,9.492 9.72,-7.981 19.44,-15.957 29.16,-23.941 l 25.06,-28.473 0.82,-0.004 -1.85,25.336"
         style="fill:#231f20;fill-opacity:1;fill-rule:nonzero;stroke:none"
         transform="matrix(0.13333333,0,0,-0.13333333,0,115.84)" />
      <path
         id="path14"
         d="m 383.168,192.641 h 5 V 539.52 h -5 z"
         style="fill:#231f20;fill-opacity:1;fill-rule:nonzero;stroke:none"
         transform="matrix(0.13333333,0,0,-0.13333333,0,115.84)" />
      <path
         id="path15"
         d="m 385.668,532.34 -14.414,-8.766 -0.32,0.492 9.332,23.5 c 1.8,8.188 3.601,16.375 5.402,24.563 1.805,-8.188 3.605,-16.375 5.406,-24.563 l 9.332,-23.5 -0.246,-0.492 -14.492,8.766"
         style="fill:#231f20;fill-opacity:1;fill-rule:nonzero;stroke:none"
         transform="matrix(0.13333333,0,0,-0.13333333,0,115.84)" />
    </g>
  </g>
</svg>
