<?xml version="1.0" encoding="UTF-8" standalone="no"?>
<!-- Created with Inkscape (http://www.inkscape.org/) -->

<svg
   version="1.1"
   id="svg1"
   width="202.09332"
   height="103.49333"
   viewBox="0 0 202.09332 103.49333"
   sodipodi:docname="pha14f16.eps"
   xmlns:inkscape="http://www.inkscape.org/namespaces/inkscape"
   xmlns:sodipodi="http://sodipodi.sourceforge.net/DTD/sodipodi-0.dtd"
   xmlns="http://www.w3.org/2000/svg"
   xmlns:svg="http://www.w3.org/2000/svg">
  <defs
     id="defs1">
    <linearGradient
       x1="0"
       y1="0"
       x2="1"
       y2="0"
       gradientUnits="userSpaceOnUse"
       gradientTransform="matrix(-1.66e-5,-380.62,-380.62,1.66e-5,1008.55,437.3)"
       spreadMethod="pad"
       id="linearGradient4">
      <stop
         style="stop-opacity:1;stop-color:#f7f7f7"
         offset="0"
         id="stop2" />
      <stop
         style="stop-opacity:1;stop-color:#c5c3c4"
         offset="0.966646"
         id="stop3" />
      <stop
         style="stop-opacity:1;stop-color:#918f8f"
         offset="1"
         id="stop4" />
    </linearGradient>
    <clipPath
       clipPathUnits="userSpaceOnUse"
       id="clipPath4">
      <path
         d="M 1515.69,56.6797 H 501.418 V 437.301 h 436.539 c -5.883,-2.477 -14.176,-8.817 -23.203,-24.227 l -0.285,-0.48 -0.051,-0.563 c -0.004,-0.066 -0.07,-0.816 -0.07,-2.105 -0.008,-6.285 1.578,-25.93 20.121,-40.133 18.074,-13.707 61.129,-28.379 90.331,-28.473 6.7,0.004 12.69,0.778 17.59,2.684 5.97,2.289 10.72,5.601 13.51,11.535 2.79,5.899 3.82,13.945 3.84,26.223 0,1.371 -0.02,2.797 -0.04,4.273 -0.22,14.149 -8.95,24.184 -22.61,31.867 -12.87,7.301 -30.38,13.051 -51.031,19.399 H 1515.69 V 56.6797 m -398,143.2033 c -35.2,0 -89.6,-31.11 -105.16,-39.141 -18.831,-9.722 -43.475,-32.75 -60.784,-42.148 C 935.691,109.867 895.332,75 960.293,61.3242 h 51.277 c 0,0 58.64,7.1485 105.66,45.6138 47.01,38.457 48.71,73.019 17.94,89.257 -4.89,2.578 -10.84,3.688 -17.48,3.688"
         transform="translate(0,-2.5000001e-5)"
         id="path4" />
    </clipPath>
    <linearGradient
       x1="0"
       y1="0"
       x2="1"
       y2="0"
       gradientUnits="userSpaceOnUse"
       gradientTransform="matrix(-1.66e-5,-380.62,-380.62,1.66e-5,1008.55,437.3)"
       spreadMethod="pad"
       id="linearGradient11">
      <stop
         style="stop-opacity:1;stop-color:#e7e6e7"
         offset="0"
         id="stop9" />
      <stop
         style="stop-opacity:1;stop-color:#cecdcd"
         offset="0.966646"
         id="stop10" />
      <stop
         style="stop-opacity:1;stop-color:#b4b3b3"
         offset="1"
         id="stop11" />
    </linearGradient>
    <clipPath
       clipPathUnits="userSpaceOnUse"
       id="clipPath11">
      <path
         d="M 1011.57,61.3242 H 960.293 C 895.332,75 935.691,109.867 951.746,118.594 c 17.309,9.398 41.953,32.426 60.784,42.148 15.56,8.031 69.96,39.141 105.16,39.141 6.64,0 12.59,-1.11 17.48,-3.688 30.77,-16.238 29.07,-50.8 -17.94,-89.257 -47.02,-38.4653 -105.66,-45.6138 -105.66,-45.6138"
         transform="translate(0,-2.5000001e-5)"
         id="path11" />
    </clipPath>
    <linearGradient
       x1="0"
       y1="0"
       x2="1"
       y2="0"
       gradientUnits="userSpaceOnUse"
       gradientTransform="matrix(-1.66e-5,-380.62,-380.62,1.66e-5,1008.55,437.3)"
       spreadMethod="pad"
       id="linearGradient15">
      <stop
         style="stop-opacity:1;stop-color:#e7e6e7"
         offset="0"
         id="stop13" />
      <stop
         style="stop-opacity:1;stop-color:#cecdcd"
         offset="0.966646"
         id="stop14" />
      <stop
         style="stop-opacity:1;stop-color:#b4b3b3"
         offset="1"
         id="stop15" />
    </linearGradient>
    <clipPath
       clipPathUnits="userSpaceOnUse"
       id="clipPath15">
      <path
         d="m 1024.53,346.32 c -27.565,-0.004 -70.604,14.754 -87.026,27.442 -16.758,12.793 -18.149,30.59 -18.156,36.164 l 0.023,1.133 c 12.82,21.414 22.621,22.683 25.18,22.714 l 0.652,-0.035 0.094,-0.015 0.258,-0.067 h 35.324 c 22.231,-6.773 40.871,-12.773 53.741,-20.101 12.99,-7.461 19.82,-15.668 20.08,-27.61 0.02,-1.453 0.04,-2.847 0.04,-4.183 0.01,-11.996 -1.12,-19.434 -3.36,-24.071 -2.23,-4.593 -5.36,-6.859 -10.81,-9.031 -4,-1.566 -9.43,-2.34 -15.71,-2.34 -0.02,0 -0.04,0 -0.06,0 -0.09,0 -0.18,0 -0.27,0"
         transform="translate(0,-2.5000001e-5)"
         id="path15" />
    </clipPath>
  </defs>
  <sodipodi:namedview
     id="namedview1"
     pagecolor="#ffffff"
     bordercolor="#000000"
     borderopacity="0.25"
     inkscape:showpageshadow="2"
     inkscape:pageopacity="0.0"
     inkscape:pagecheckerboard="0"
     inkscape:deskcolor="#d1d1d1">
    <inkscape:page
       x="0"
       y="0"
       inkscape:label="1"
       id="page1"
       width="202.09332"
       height="103.49333"
       margin="0"
       bleed="0" />
  </sodipodi:namedview>
  <g
     id="g1"
     inkscape:groupmode="layer"
     inkscape:label="1">
    <g
       id="group-R5">
      <path
         id="path2"
         d="M 1515.69,56.6797 H 501.418 V 437.301 h 436.539 c -5.883,-2.477 -14.176,-8.817 -23.203,-24.227 l -0.285,-0.48 -0.051,-0.563 c -0.004,-0.066 -0.07,-0.816 -0.07,-2.105 -0.008,-6.285 1.578,-25.93 20.121,-40.133 18.074,-13.707 61.129,-28.379 90.331,-28.473 6.7,0.004 12.69,0.778 17.59,2.684 5.97,2.289 10.72,5.601 13.51,11.535 2.79,5.899 3.82,13.945 3.84,26.223 0,1.371 -0.02,2.797 -0.04,4.273 -0.22,14.149 -8.95,24.184 -22.61,31.867 -12.87,7.301 -30.38,13.051 -51.031,19.399 H 1515.69 V 56.6797 m -398,143.2033 c -35.2,0 -89.6,-31.11 -105.16,-39.141 -18.831,-9.722 -43.475,-32.75 -60.784,-42.148 C 935.691,109.867 895.332,75 960.293,61.3242 h 51.277 c 0,0 58.64,7.1485 105.66,45.6138 47.01,38.457 48.71,73.019 17.94,89.257 -4.89,2.578 -10.84,3.688 -17.48,3.688"
         style="fill:url(#linearGradient4);fill-opacity:1;fill-rule:nonzero;stroke:none"
         transform="matrix(0.13333333,0,0,-0.13333333,0,103.49333)"
         clip-path="url(#clipPath4)" />
      <g
         id="g4"
         aria-label="z = 0&#10;z = thickness"
         transform="matrix(1.3333333,0,0,1.3333333,38.963067,99.173027)">
        <path
           id="path5"
           d="m 3.7864891,-4.1727387 c -0.2226563,0.2460937 -0.3984375,0.3515625 -0.5507813,0.3515625 -0.1523437,0 -0.3046875,-0.011719 -0.7265625,-0.09375 -0.4335937,-0.070312 -0.703125,-0.1054688 -0.9492187,-0.1054688 -0.2226563,0 -0.4453125,0.1875 -0.65625004,0.5273438 -0.140625,0.234375 -0.24609375,0.4453125 -0.375,0.7265625 l 0.234375,0.1054687 C 1.0208641,-3.1180512 1.2318016,-3.4227387 1.6536766,-3.4227387 c 0.2226562,0 0.6210937,0.023437 0.8554687,0.058594 0.1992188,0.011719 0.3984375,0 0.5507813,-0.035156 -0.8320313,0.890625 -1.875,1.9101562 -2.49609379,2.57812495 C 0.01305156,-0.2469575 0.08336406,0.010855 0.23570781,0.0811675 0.28258281,0.09288625 0.30602031,0.05773 0.34117656,-8.6375e-4 c 0.0820313,-0.1171875 0.1875,-0.234375 0.29296875,-0.3046875 0.1171875,-0.0820313 0.26953125,-0.09375 0.55078129,0.046875 0.3984375,0.19921875 0.9140625,0.43359375 1.2070312,0.43359375 0.3867188,0 0.75,-0.26953125 1.2421875,-1.2421875 L 3.4349266,-1.2313325 c -0.4101563,0.609375 -0.6796875,0.76171875 -0.9257813,0.76171875 -0.2226562,0 -0.515625,-0.1171875 -0.8085937,-0.2109375 C 1.4310203,-0.79773875 1.1966453,-0.84461375 1.0208641,-0.832895 1.6888328,-1.53602 2.8724266,-2.7196137 3.4466453,-3.3758637 3.6927391,-3.645395 3.8568016,-3.832895 3.9739891,-3.97352 Z m 0,0"
           style="fill:#231f20;fill-opacity:1;fill-rule:nonzero;stroke:none" />
        <path
           id="path6"
           d="M 10.580434,-2.895395 V -3.3407075 H 6.2913719 v 0.4453125 z m 0,1.6523438 V -1.6883637 H 6.2913719 v 0.4453125 z m 4.661133,-4.4765625 c -1.347656,0 -1.839844,1.6054687 -1.839844,2.9179687 0,1.4179688 0.480469,2.90625 1.839844,2.90625 1.359375,0 1.828125,-1.59375 1.828125,-2.9179687 0,-1.3828125 -0.46875,-2.90625 -1.828125,-2.90625 z m 0,0.3046875 c 0.808594,0 1.03125,1.3242187 1.03125,2.6015625 0,1.265625 -0.222656,2.6132812 -1.03125,2.6132812 -0.773437,0 -1.042969,-1.359375 -1.042969,-2.6132812 0,-1.2539063 0.222657,-2.6015625 1.042969,-2.6015625 z m 0,0"
           style="fill:#231f20;fill-opacity:1;fill-rule:nonzero;stroke:none" />
        <path
           id="path7"
           d="m -25.437144,-42.170786 c -0.222656,0.246094 -0.398437,0.351563 -0.550781,0.351563 -0.152344,0 -0.304687,-0.01172 -0.726562,-0.09375 -0.433594,-0.07031 -0.703125,-0.105469 -0.949219,-0.105469 -0.222656,0 -0.445313,0.1875 -0.65625,0.527344 -0.140625,0.234375 -0.246094,0.445312 -0.375,0.726562 l 0.234375,0.105469 c 0.257812,-0.457031 0.46875,-0.761719 0.890625,-0.761719 0.222656,0 0.621094,0.02344 0.855469,0.05859 0.199218,0.01172 0.398437,0 0.550781,-0.03516 -0.832031,0.890625 -1.875,1.910156 -2.496094,2.578125 -0.550781,0.574219 -0.480469,0.832031 -0.328125,0.902344 0.04687,0.01172 0.07031,-0.02344 0.105469,-0.08203 0.08203,-0.117187 0.1875,-0.234375 0.292969,-0.304687 0.117187,-0.08203 0.269531,-0.09375 0.550781,0.04687 0.398437,0.199219 0.914062,0.433594 1.207031,0.433594 0.386719,0 0.75,-0.269532 1.242188,-1.242188 l -0.199219,-0.164062 c -0.410156,0.609375 -0.679688,0.761718 -0.925781,0.761718 -0.222657,0 -0.515625,-0.117187 -0.808594,-0.210937 -0.269531,-0.117188 -0.503906,-0.164063 -0.679688,-0.152344 0.667969,-0.703125 1.851563,-1.886719 2.425782,-2.542969 0.246093,-0.269531 0.410156,-0.457031 0.527343,-0.597656 z m 0,0"
           style="fill:#231f20;fill-opacity:1;fill-rule:nonzero;stroke:none" />
        <path
           id="path8"
           d="m -18.643198,-40.893442 v -0.445312 h -4.289063 v 0.445312 z m 0,1.652344 v -0.445313 h -4.289063 v 0.445313 z m 5.188476,0.914062 -0.08203,-0.234375 c -0.128906,0.07031 -0.328125,0.152344 -0.5625,0.152344 -0.222656,0 -0.515625,-0.128906 -0.515625,-0.855469 v -2.320312 h 0.960937 c 0.105469,-0.05859 0.128907,-0.257813 0.05859,-0.351563 h -1.019531 v -1.230468 l -0.128906,-0.01172 -0.585938,0.585937 v 0.65625 h -0.410156 l -0.246094,0.269532 0.03516,0.08203 h 0.621094 v 2.625 c 0,0.703125 0.316406,1.066406 0.878906,1.066406 0.08203,0 0.234375,-0.03516 0.386719,-0.117187 z m 4.7343751,0.328125 v -0.234375 c -0.5273437,-0.04687 -0.5976562,-0.09375 -0.5976562,-0.691406 v -1.582031 c 0,-1.078125 -0.5039063,-1.535156 -1.2421879,-1.535156 -0.480468,0 -0.972656,0.339843 -1.289062,0.65625 v -3.023438 c -0.339844,0.105469 -0.890625,0.257813 -1.3125,0.316406 v 0.210938 c 0.585937,0.04687 0.609375,0.09375 0.609375,0.667969 v 4.289062 c 0,0.597656 -0.08203,0.644531 -0.621094,0.691406 v 0.234375 h 1.910156 v -0.234375 c -0.539062,-0.05859 -0.585937,-0.117187 -0.585937,-0.691406 v -2.144531 c 0.257812,-0.28125 0.597656,-0.457031 0.9375,-0.457031 0.609375,0 0.890625,0.363281 0.890625,1.101562 v 1.5 c 0,0.585938 -0.08203,0.632813 -0.597656,0.691406 v 0.234375 z m 1.40625,-4.828125 c 0.2578125,0 0.4570313,-0.210937 0.4570313,-0.457031 0,-0.269531 -0.1992188,-0.46875 -0.4570313,-0.46875 -0.234375,0 -0.4570312,0.199219 -0.4570312,0.46875 0,0.246094 0.2226562,0.457031 0.4570312,0.457031 z m 1.0546875,4.828125 v -0.234375 c -0.5859375,-0.05859 -0.6445312,-0.105468 -0.6445312,-0.714843 v -3.105469 c -0.3984375,0.152344 -0.8203125,0.269531 -1.2773438,0.351562 v 0.210938 c 0.5390625,0.09375 0.5625,0.128906 0.5625,0.679687 v 1.863282 c 0,0.609375 -0.058594,0.65625 -0.6210937,0.714843 v 0.234375 z m 3.65625,-0.996093 c -0.4101562,0.386718 -0.703125,0.492187 -1.0898437,0.492187 -0.5039063,0 -1.359375,-0.410156 -1.359375,-1.664062 0,-0.949219 0.515625,-1.441407 1.1132812,-1.441407 0.3164063,0 0.6328125,0.117188 0.9023438,0.375 0.082031,0.07031 0.1171875,0.09375 0.1640625,0.09375 0.1054687,0 0.3046875,-0.199218 0.3046875,-0.386718 0,-0.105469 -0.035156,-0.175782 -0.1523438,-0.28125 -0.140625,-0.117188 -0.4335937,-0.234375 -0.796875,-0.234375 -0.3515625,0 -0.890625,0.140625 -1.359375,0.503906 -0.5976562,0.46875 -0.9023437,1.078125 -0.9023437,1.769531 0,0.960938 0.6679687,1.875 1.8046875,1.875 0.5273437,0 1.1367187,-0.398437 1.5234375,-0.914062 z m 4.8544922,0.996093 v -0.234375 c -0.3398437,-0.02344 -0.5742187,-0.152343 -0.9023437,-0.492187 -0.3046875,-0.316406 -1.20703129,-1.382813 -1.39453129,-1.652344 0.38671875,-0.445312 0.55078125,-0.632812 0.7734375,-0.855469 0.35156249,-0.328125 0.53906249,-0.421875 1.16015629,-0.527343 v -0.222657 l -1.82812504,0.08203 v 0.234375 c 0.421875,0.03516 0.4453125,0.117187 0.26953125,0.386718 -0.17578125,0.246094 -0.4453125,0.597657 -0.64453125,0.796875 -0.12890625,0.140625 -0.29296875,0.257813 -0.5625,0.316407 v -4.242188 c -0.35156246,0.117188 -0.86718746,0.269531 -1.30078126,0.316406 v 0.210938 c 0.5507813,0.04687 0.5976563,0.09375 0.5976563,0.691406 v 4.253906 c 0,0.574219 -0.058594,0.644532 -0.65625,0.703125 v 0.234375 h 2.01562496 v -0.234375 c -0.57421875,-0.05859 -0.65625,-0.105468 -0.65625,-0.703125 v -0.996093 c 0.0585938,-0.02344 0.10546875,-0.02344 0.140625,-0.02344 0.0820313,0 0.1640625,0.03516 0.28125,0.1875 0.4921875,0.609375 1.0546875,1.324219 1.47656254,1.792969 z m 4.59375,0 v -0.234375 c -0.5273437,-0.05859 -0.5742187,-0.09375 -0.5742187,-0.703125 v -1.734375 c 0,-0.878906 -0.4453125,-1.371093 -1.1601563,-1.371093 -0.2578125,0 -0.4921875,0.105468 -0.75,0.269531 -0.2226562,0.152344 -0.421875,0.292969 -0.5976562,0.421875 v -0.714844 c -0.3984375,0.175781 -0.8203125,0.28125 -1.2539063,0.363281 v 0.210938 c 0.4921875,0.09375 0.5390625,0.117187 0.5390625,0.691406 v 1.863281 c 0,0.597657 -0.046875,0.644532 -0.65625,0.703125 v 0.234375 h 1.9570313 v -0.234375 c -0.5273438,-0.05859 -0.5859375,-0.09375 -0.5859375,-0.703125 v -2.109375 c 0.2695312,-0.234375 0.6210937,-0.46875 0.984375,-0.46875 0.5976562,0 0.8203125,0.410157 0.8203125,1.03125 v 1.5 c 0,0.621094 -0.070312,0.691407 -0.5976563,0.75 v 0.234375 z m 3.5859372,-0.949218 c -0.328125,0.304687 -0.6679684,0.445312 -1.0195309,0.445312 -0.6328125,0 -1.3359375,-0.503906 -1.3476563,-1.722656 1.0664063,-0.04687 2.1914062,-0.128906 2.3554692,-0.164063 0.152343,-0.03516 0.199218,-0.105468 0.199218,-0.28125 0,-0.703125 -0.597656,-1.371093 -1.3476559,-1.371093 -0.46875,0 -0.9492188,0.246093 -1.3242188,0.65625 -0.3632812,0.410156 -0.5976562,0.960937 -0.5976562,1.582031 0,1.007812 0.65625,1.910156 1.7578125,1.910156 0.28125,0 0.9023434,-0.164062 1.4648434,-0.867187 z m -1.3710934,-2.753907 c 0.4921875,0 0.796875,0.421875 0.7851562,0.890625 0,0.128907 -0.046875,0.1875 -0.2109375,0.1875 -0.5273437,0.01172 -1.0195312,0.02344 -1.5234375,0.02344 0.1289063,-0.726563 0.5273438,-1.101563 0.9492188,-1.101563 z m 4.6669924,0.773438 c -0.03516,-0.222656 -0.128906,-0.75 -0.199219,-0.960938 -0.1875,-0.07031 -0.433594,-0.152343 -0.796875,-0.152343 -0.832031,0 -1.371094,0.527343 -1.371094,1.160156 0,0.691406 0.585938,0.996094 1.125,1.242187 0.445313,0.210938 0.703125,0.421875 0.703125,0.820313 0,0.375 -0.304687,0.632812 -0.632812,0.632812 -0.539063,0 -0.949219,-0.527343 -1.113281,-1.113281 l -0.234375,0.03516 c 0,0.328125 0.08203,0.9375 0.152343,1.066407 0.164063,0.140625 0.574219,0.304687 1.03125,0.304687 0.726563,0 1.488282,-0.421875 1.488282,-1.242187 0,-0.621094 -0.457032,-0.9375 -1.136719,-1.21875 -0.410156,-0.175782 -0.761719,-0.375 -0.761719,-0.785157 0,-0.351562 0.246094,-0.621093 0.585938,-0.621093 0.433593,0 0.75,0.363281 0.925781,0.890625 z m 3.257812,0 c -0.03516,-0.222656 -0.128906,-0.75 -0.199218,-0.960938 -0.1875,-0.07031 -0.433594,-0.152343 -0.796875,-0.152343 -0.832032,0 -1.371094,0.527343 -1.371094,1.160156 0,0.691406 0.585937,0.996094 1.125,1.242187 0.445312,0.210938 0.703125,0.421875 0.703125,0.820313 0,0.375 -0.304688,0.632812 -0.632813,0.632812 -0.539062,0 -0.949218,-0.527343 -1.113281,-1.113281 l -0.234375,0.03516 c 0,0.328125 0.08203,0.9375 0.152344,1.066407 0.164062,0.140625 0.574219,0.304687 1.03125,0.304687 0.726562,0 1.488281,-0.421875 1.488281,-1.242187 0,-0.621094 -0.457031,-0.9375 -1.136719,-1.21875 -0.410156,-0.175782 -0.761718,-0.375 -0.761718,-0.785157 0,-0.351562 0.246093,-0.621093 0.585937,-0.621093 0.433594,0 0.75,0.363281 0.925781,0.890625 z m 0,0"
           style="fill:#231f20;fill-opacity:1;fill-rule:nonzero;stroke:none" />
      </g>
      <path
         id="path9"
         d="M 1011.57,61.3242 H 960.293 C 895.332,75 935.691,109.867 951.746,118.594 c 17.309,9.398 41.953,32.426 60.784,42.148 15.56,8.031 69.96,39.141 105.16,39.141 6.64,0 12.59,-1.11 17.48,-3.688 30.77,-16.238 29.07,-50.8 -17.94,-89.257 -47.02,-38.4653 -105.66,-45.6138 -105.66,-45.6138"
         style="fill:url(#linearGradient11);fill-opacity:1;fill-rule:nonzero;stroke:none"
         transform="matrix(0.13333333,0,0,-0.13333333,0,103.49333)"
         clip-path="url(#clipPath11)" />
      <path
         id="path12"
         d="m 960.293,61.3242 0.516,2.4453 c -13.227,2.7774 -21.84,6.4532 -26.946,10.336 -5.105,3.9258 -6.758,7.75 -6.793,11.7226 -0.058,5.6446 3.926,12.1914 9.364,17.8169 5.386,5.625 12.05,10.339 16.507,12.753 17.774,9.704 42.399,32.7 60.739,42.122 7.85,4.054 25.25,13.789 45.07,22.515 19.79,8.735 42.05,16.375 58.94,16.348 6.37,0 11.92,-1.074 16.31,-3.399 12.85,-6.847 19.29,-16.445 19.33,-28.3 0.07,-15.36 -11.44,-35.379 -37.69,-56.809 -23.16,-18.9609 -49.3,-30.2617 -69.63,-36.7891 -10.17,-3.2656 -18.88,-5.3398 -25.04,-6.5937 -3.08,-0.6289 -5.52,-1.0508 -7.18,-1.3164 -1.66,-0.2656 -2.52,-0.3672 -2.52,-0.3711 l 0.3,-2.4805 v 2.5 h -51.277 v -2.5 l 0.516,2.4453 -0.516,-2.4453 v -2.5 h 51.427 l 0.15,0.0196 c 0.23,0.0507 59.23,7.1757 106.94,46.1602 26.76,21.934 39.46,42.801 39.52,60.68 0.05,13.863 -8,25.406 -22,32.722 -5.37,2.832 -11.73,3.973 -18.64,3.977 -18.31,-0.031 -40.85,-7.945 -60.95,-16.774 -20.07,-8.832 -37.65,-18.668 -45.36,-22.644 -19.317,-10.024 -43.989,-33.078 -60.825,-42.172 -4.957,-2.703 -11.879,-7.598 -17.731,-13.688 -5.801,-6.093 -10.695,-13.3706 -10.754,-21.2769 -0.039,-5.5859 2.735,-11.1836 8.774,-15.707 6.039,-4.5625 15.285,-8.3594 28.933,-11.2422 l 0.254,-0.0547 h 0.262 v 2.5"
         style="fill:#231f20;fill-opacity:1;fill-rule:nonzero;stroke:none"
         transform="matrix(0.13333333,0,0,-0.13333333,0,103.49333)" />
      <path
         id="path13"
         d="m 1024.53,346.32 c -27.565,-0.004 -70.604,14.754 -87.026,27.442 -16.758,12.793 -18.149,30.59 -18.156,36.164 l 0.023,1.133 c 12.82,21.414 22.621,22.683 25.18,22.714 l 0.652,-0.035 0.094,-0.015 0.258,-0.067 h 35.324 c 22.231,-6.773 40.871,-12.773 53.741,-20.101 12.99,-7.461 19.82,-15.668 20.08,-27.61 0.02,-1.453 0.04,-2.847 0.04,-4.183 0.01,-11.996 -1.12,-19.434 -3.36,-24.071 -2.23,-4.593 -5.36,-6.859 -10.81,-9.031 -4,-1.566 -9.43,-2.34 -15.71,-2.34 -0.02,0 -0.04,0 -0.06,0 -0.09,0 -0.18,0 -0.27,0"
         style="fill:url(#linearGradient15);fill-opacity:1;fill-rule:nonzero;stroke:none"
         transform="matrix(0.13333333,0,0,-0.13333333,0,103.49333)"
         clip-path="url(#clipPath15)" />
      <path
         id="path16"
         d="m 981.25,436.156 -0.73,-2.39 c 22.39,-6.821 41.16,-12.844 54.1,-20.211 12.99,-7.461 19.82,-15.668 20.08,-27.61 0.02,-1.453 0.04,-2.847 0.04,-4.183 0.01,-11.996 -1.12,-19.434 -3.36,-24.071 -2.23,-4.593 -5.36,-6.859 -10.81,-9.031 -4.01,-1.574 -9.47,-2.347 -15.77,-2.34 -27.558,-0.097 -70.823,14.715 -87.296,27.442 -16.758,12.793 -18.149,30.59 -18.156,36.164 l 0.027,1.273 0.023,0.383 -2.488,0.227 2.153,-1.27 c 12.968,21.914 22.906,23.203 25.488,23.234 l 0.652,-0.035 0.102,-0.015 0.187,0.965 -0.242,-0.954 0.055,-0.011 0.187,0.965 -0.242,-0.954 0.305,-0.078 h 35.695 v 2.5 l -0.73,-2.39 0.73,2.39 v 2.5 h -35.383 v -2.5 l 0.621,2.422 c -0.179,0.047 -0.851,0.195 -1.937,0.195 -4.715,0.036 -16.457,-2.925 -29.797,-25.699 l -0.285,-0.48 -0.051,-0.563 c -0.004,-0.066 -0.07,-0.816 -0.07,-2.105 -0.008,-6.285 1.578,-25.93 20.121,-40.133 18.074,-13.707 61.129,-28.379 90.331,-28.473 6.7,0.004 12.69,0.778 17.59,2.684 5.97,2.289 10.72,5.601 13.51,11.535 2.79,5.899 3.82,13.945 3.84,26.223 0,1.371 -0.02,2.797 -0.04,4.273 -0.22,14.149 -8.95,24.184 -22.61,31.867 -13.71,7.778 -32.68,13.797 -55.11,20.649 l -0.359,0.105 h -0.371 v -2.5"
         style="fill:#231f20;fill-opacity:1;fill-rule:nonzero;stroke:none"
         transform="matrix(0.13333333,0,0,-0.13333333,0,103.49333)" />
      <path
         id="path17"
         d="m 501.418,54.1797 h 1014.27 v 5 H 501.418 Z"
         style="fill:#231f20;fill-opacity:1;fill-rule:nonzero;stroke:none"
         transform="matrix(0.13333333,0,0,-0.13333333,0,103.49333)" />
      <path
         id="path18"
         d="m 973.926,438.82 h -51.281 c -64.961,13.676 -24.61,48.547 -8.547,57.27 17.308,9.398 41.949,32.422 60.785,42.148 17.887,9.239 278.147,235.446 322.937,235.446 1.51,0 2.77,-0.254 3.77,-0.782 15.39,-8.121 -181.42,-220.031 -183.88,-235.507 -3.79,-24.625 -14.92,-40.653 -38.42,-59.879 C 1032.28,439.047 973.926,438.82 973.926,438.82"
         style="fill:#ebebeb;fill-opacity:1;fill-rule:nonzero;stroke:none"
         transform="matrix(0.13333333,0,0,-0.13333333,0,103.49333)" />
      <path
         id="path19"
         d="m 1115.24,537.773 c -3.76,-24 -14.25,-39.195 -37.54,-58.324 -23.1,-18.914 -49.09,-28.472 -69.3,-33.273 -10.103,-2.403 -18.759,-3.621 -24.873,-4.235 -3.054,-0.304 -5.476,-0.461 -7.125,-0.539 -1.644,-0.082 -2.484,-0.082 -2.484,-0.082 h 0.008 -51.281 v -2.5 l 0.515,2.446 c -13.226,2.777 -21.844,6.453 -26.945,10.336 -5.106,3.925 -6.758,7.75 -6.797,11.726 -0.059,5.645 3.93,12.192 9.363,17.813 5.387,5.629 12.051,10.339 16.508,12.75 17.781,9.707 42.395,32.699 60.742,42.125 1.434,0.754 3.473,2.187 6.43,4.386 21.899,16.352 90.539,74.106 159.049,127.852 34.24,26.859 68.43,52.703 96.61,71.789 14.09,9.543 26.69,17.395 36.99,22.824 10.25,5.449 18.39,8.379 22.71,8.321 v -0.004 c 1.23,0.004 2.08,-0.215 2.6,-0.493 v 0 l 0.48,0.891 -0.91,-0.437 0.43,-0.454 0.48,0.891 -0.91,-0.437 0.43,0.21 -0.48,-0.093 0.05,-0.117 0.43,0.21 -0.48,-0.093 0.01,-0.121 c 0.04,-0.551 -0.5,-2.485 -1.78,-4.969 -4.77,-9.512 -18.55,-27.914 -36.4,-49.961 -26.8,-33.125 -62.88,-74.813 -92.47,-109.527 -14.8,-17.364 -27.97,-32.981 -37.57,-44.946 -4.81,-5.98 -8.71,-11.05 -11.51,-15 -1.4,-1.976 -2.52,-3.672 -3.35,-5.105 -0.82,-1.461 -1.38,-2.531 -1.62,-3.848 l 4.93,-0.781 c -0.05,0.043 0.68,1.758 2.1,3.867 5.31,8.227 19.47,25.547 37.56,46.945 27.16,32.137 63.29,73.7 92.66,109.188 14.68,17.746 27.67,33.969 37.03,46.781 4.68,6.41 8.45,11.961 11.1,16.477 2.61,4.586 4.23,7.84 4.32,10.879 v 0 c 0.07,1.32 -0.6,3.179 -2.19,3.972 l -0.13,0.067 0.13,-0.067 c -1.48,0.778 -3.15,1.071 -4.94,1.071 v 0 c -6.57,-0.067 -15.57,-3.786 -27.19,-10.039 -40.4,-21.93 -110.66,-76.332 -172.99,-126.356 -31.15,-25.004 -60.28,-48.898 -82.59,-67.039 -11.16,-9.07 -20.609,-16.703 -27.741,-22.309 -7.079,-5.578 -12.082,-9.238 -13.575,-9.98 -19.328,-10.027 -43.992,-33.078 -60.832,-42.176 -4.957,-2.699 -11.879,-7.594 -17.73,-13.683 -5.797,-6.09 -10.695,-13.372 -10.754,-21.274 -0.035,-5.586 2.734,-11.187 8.773,-15.711 6.039,-4.562 15.289,-8.363 28.942,-11.246 l 0.254,-0.051 h 51.539 0.012 c 0.253,0.028 59.092,0.18 106.932,39.258 23.71,19.328 35.48,36.184 39.32,61.434 l -4.95,0.761"
         style="fill:#231f20;fill-opacity:1;fill-rule:nonzero;stroke:none"
         transform="matrix(0.13333333,0,0,-0.13333333,0,103.49333)" />
      <path
         id="path20"
         d="m 501.418,433.656 h 1014.27 v 5 H 501.418 Z"
         style="fill:#231f20;fill-opacity:1;fill-rule:nonzero;stroke:none"
         transform="matrix(0.13333333,0,0,-0.13333333,0,103.49333)" />
      <path
         id="path21"
         d="M 976.559,441.488 716.227,698.445 710.961,693.109 971.289,436.148"
         style="fill:#231f20;fill-opacity:1;fill-rule:nonzero;stroke:none"
         transform="matrix(0.13333333,0,0,-0.13333333,0,103.49333)" />
      <path
         id="path22"
         d="m 721.254,688.207 -5.824,-24.617 -0.867,0.172 -15.254,34.726 c -6.848,10.547 -13.688,21.098 -20.532,31.649 10.641,-6.703 21.278,-13.407 31.914,-20.114 l 34.93,-14.796 0.262,-0.782 -24.629,-6.238"
         style="fill:#231f20;fill-opacity:1;fill-rule:nonzero;stroke:none"
         transform="matrix(0.13333333,0,0,-0.13333333,0,103.49333)" />
      <path
         id="path23"
         d="M 1000.21,63.9922 739.871,320.949 734.602,315.613 994.938,58.6563"
         style="fill:#231f20;fill-opacity:1;fill-rule:nonzero;stroke:none"
         transform="matrix(0.13333333,0,0,-0.13333333,0,103.49333)" />
      <path
         id="path24"
         d="m 744.898,310.719 -5.828,-24.625 -0.867,0.172 -15.254,34.726 c -6.84,10.547 -13.687,21.098 -20.527,31.649 10.641,-6.703 21.273,-13.407 31.918,-20.11 l 34.922,-14.797 0.265,-0.785 -24.629,-6.23"
         style="fill:#231f20;fill-opacity:1;fill-rule:nonzero;stroke:none"
         transform="matrix(0.13333333,0,0,-0.13333333,0,103.49333)" />
    </g>
  </g>
</svg>
