<?xml version="1.0" encoding="UTF-8" standalone="no"?>
<!-- Created with Inkscape (http://www.inkscape.org/) -->

<svg
   version="1.1"
   id="svg1"
   width="314.28"
   height="257.30667"
   viewBox="0 0 314.28 257.30667"
   sodipodi:docname="pha14f05.eps"
   xmlns:inkscape="http://www.inkscape.org/namespaces/inkscape"
   xmlns:sodipodi="http://sodipodi.sourceforge.net/DTD/sodipodi-0.dtd"
   xmlns="http://www.w3.org/2000/svg"
   xmlns:svg="http://www.w3.org/2000/svg">
  <defs
     id="defs1" />
  <sodipodi:namedview
     id="namedview1"
     pagecolor="#ffffff"
     bordercolor="#000000"
     borderopacity="0.25"
     inkscape:showpageshadow="2"
     inkscape:pageopacity="0.0"
     inkscape:pagecheckerboard="0"
     inkscape:deskcolor="#d1d1d1">
    <inkscape:page
       x="0"
       y="0"
       inkscape:label="1"
       id="page1"
       width="314.28"
       height="257.30667"
       margin="0"
       bleed="0" />
  </sodipodi:namedview>
  <g
     id="g1"
     inkscape:groupmode="layer"
     inkscape:label="1">
    <g
       id="group-R5">
      <path
         id="path2"
         d="m 1324.73,1166.21 c -50.47,0 -101.55,8.07 -151.63,16.19 -4.4,0.72 -9.19,1.65 -12.12,5.27 -6.32,7.82 0.59,21.72 -5.49,29.76 -26.33,-14.19 -58.92,-4.35 -86.62,-15.08 -12.33,-4.76 -23.23,-13.47 -35.91,-17.02 -4.79,-1.35 -9.65,-1.91 -14.54,-1.91 -12.88,0 -25.963,3.92 -38.51,7.83 -13.469,4.2 -27.945,9.14 -36.172,21.37 -9.011,13.41 -7.871,31.56 -6.351,48.02 -1.461,0.52 -2.91,0.77 -4.34,0.77 -8.594,0 -16.711,-8.62 -24.988,-17.23 -8.278,-8.62 -16.711,-17.24 -25.934,-17.24 -0.055,0 -0.109,0 -0.16,0.01 -1.059,0.01 -2.238,0.01 -3.531,0.01 -1.36,0 -2.844,-0.01 -4.434,-0.01 -1.586,0 -3.27,-0.01 -5.047,-0.01 -26.937,0 -73.867,1.01 -78.621,18.36 -6.805,24.83 7.406,58.3 0.707,91.18 0.02,13.74 6.188,13.32 -0.176,25.37 -6.215,11.75 43.617,17.81 54.098,25.24 17.312,12.3 34.617,24.59 51.934,36.89 -0.274,-0.05 -0.543,-0.07 -0.805,-0.07 -8.914,0 -13.016,26.44 -22.098,28.77 4.375,14.47 42.278,25.75 76.446,31.05 7.375,1.16 15.652,2.36 20.199,8.72 2.222,3.12 3.191,7.07 4.992,10.5 5.398,10.27 17.137,14.25 27.911,16.39 11.93,2.37 24.07,3.55 36.2,3.55 15.24,0 30.47,-1.86 45.31,-5.57 -7.34,5.07 -8.33,17.04 -3.98,25.18 4.36,8.15 12.55,13.03 20.77,16.17 7.35,2.81 15.26,4.49 23.06,4.49 7.73,0 15.36,-1.65 22.23,-5.49 13.8,-7.7 23.11,-25.7 18.58,-41.71 l 4.32,3.89 c 12.41,17.48 32.78,26.34 53.09,26.34 18.86,0 37.68,-7.64 50.04,-23.12 9.39,14.58 19.2,29.61 33.36,38.69 12.53,8.03 27.1,10.55 41.83,10.55 6.86,0 13.76,-0.55 20.5,-1.34 29.56,-3.46 62.25,-13.76 76.12,-42.1 27.1,12.9 55.45,22.75 84.44,29.33 6.76,1.53 13.65,2.89 20.54,2.89 1.58,0 3.15,-0.07 4.72,-0.23 9.9,-0.97 19.24,-5.27 28.38,-9.51 16.69,-7.74 33.38,-15.49 50.07,-23.23 9.56,-4.43 19.42,-9.1 26.39,-17.43 6.73,-8.03 10.06,-18.65 12.57,-29.12 4.14,-17.19 6.54,-34.86 7.17,-52.6 2.41,-17.68 19.85,-9.65 7.94,-45.24 -1.06,-38.68 -12.35,-52.44 -13.68,-70.76 -0.13,-1.76 -0.61,-2.48 -1.43,-2.48 -1.85,0 -5.41,3.71 -10.43,7.42 -5.01,3.71 -11.47,7.42 -19.14,7.42 -3.81,0 -7.93,-0.92 -12.31,-3.22 -40,-21.03 -79.99,-26.42 -118.74,-49.48 8.96,4.05 18.32,8.16 27.94,8.16 1.04,0 2.09,-0.05 3.14,-0.15 10.72,-1.04 21.63,-9.73 21.85,-21.33 0.17,-8.59 -5.25,-15.99 -10.42,-22.54 -15.46,-19.61 -34.77,-40.72 -58.14,-40.72 -1.21,0 -2.42,0.06 -3.64,0.18 -12.16,1.13 -23.09,8.13 -33.54,14.94 -2.2,-18.65 -21.54,-28.33 -38.45,-33.01 -31.3,-8.66 -63.26,-11.95 -95.47,-11.95"
         style="fill:#e3e3e3;fill-opacity:1;fill-rule:nonzero;stroke:none"
         transform="matrix(0.13333333,0,0,-0.13333333,0,257.30667)" />
      <path
         id="path3"
         d="m 1.0183188,-2.2848281 v -0.46875 C 0.72535,-2.6363906 0.397225,-2.5426406 0.1394125,-2.4957656 v 0.140625 c 0.375,0.046875 0.3984375,0.058594 0.3984375,0.4570312 v 2.70703127 c 0,0.39843753 -0.0585938,0.43359373 -0.43359375,0.46875003 V 1.4417344 H 1.522225 V 1.2776719 C 1.053475,1.2307969 1.0183188,1.2073594 1.0183188,0.75032812 v -0.78515625 c 0.070312,0.046875 0.234375,0.10546875 0.4101562,0.10546875 0.7734375,-0.140625 1.4882813,-0.7265625 1.4882813,-1.62890622 0,-0.5976563 -0.3867188,-1.1367188 -1.0546875,-1.1367188 -0.070312,0 -0.1875,0.035156 -0.2929688,0.09375 z m 0,0.1992187 c 0.1523437,-0.1171875 0.3984375,-0.2460937 0.5976562,-0.2460937 0.4335938,0 0.796875,0.3632812 0.796875,0.9960937 0,0.67968752 -0.328125,1.11328127 -0.8320312,1.11328127 -0.2109375,0 -0.4335938,-0.09375 -0.5625,-0.234375 z m 5.1386718,0.2783203 c -0.9023437,0 -1.2304687,1.06640629 -1.2304687,1.94531254 0,0.94921876 0.328125,1.93359376 1.2304687,1.93359376 0.9023438,0 1.21875,-1.0664063 1.21875,-1.94531251 0,-0.92578125 -0.3164062,-1.93359379 -1.21875,-1.93359379 z m -0.011719,0.1992188 c 0.5390625,0 0.6914062,0.89062499 0.6914062,1.73437499 0,0.84375 -0.140625,1.74609371 -0.6796875,1.74609371 -0.5273437,0 -0.703125,-0.91406246 -0.703125,-1.74609371 0,-0.83203125 0.1523438,-1.73437499 0.6914063,-1.73437499 z m 9.6474614,-7.4150391 v -0.6445312 c -0.292969,0.1171875 -0.550781,0.1875 -0.855469,0.2460937 v 0.1289063 c 0.351563,0.046875 0.375,0.070312 0.375,0.46875 v 1.2421875 c 0,0.3984375 -0.03516,0.4335937 -0.410156,0.46875 v 0.1523437 h 1.382812 v -0.1523437 c -0.46875,-0.035156 -0.492187,-0.070312 -0.492187,-0.46875 v -1.1015625 c 0.128906,-0.3398438 0.316406,-0.515625 0.480469,-0.515625 0.09375,0 0.164062,0.035156 0.246093,0.1289062 0.03516,0.035156 0.09375,0.035156 0.164063,0.011719 0.117187,-0.058594 0.1875,-0.1757813 0.1875,-0.2929688 0,-0.1523437 -0.140625,-0.3046875 -0.339844,-0.3046875 -0.292969,0 -0.550781,0.3398438 -0.726562,0.6328125 z m 4.230469,0.2548828 c -0.902344,0 -1.230469,1.0664063 -1.230469,1.9453125 0,0.9492188 0.328125,1.9335938 1.230469,1.9335938 0.902343,0 1.21875,-1.0664063 1.21875,-1.9453125 0,-0.9257813 -0.316407,-1.9335938 -1.21875,-1.9335938 z m -0.01172,0.1992188 c 0.539062,0 0.691406,0.890625 0.691406,1.734375 0,0.84375 -0.140625,1.7460937 -0.679687,1.7460937 -0.527344,0 -0.703125,-0.9140625 -0.703125,-1.7460937 0,-0.8320313 0.152343,-1.734375 0.691406,-1.734375 z m 0,0"
         style="fill:#231f20;fill-opacity:1;fill-rule:nonzero;stroke:none"
         aria-label="p&#10;0&#10;r&#10;0"
         transform="matrix(1.3333333,0,0,1.3333333,19.907867,51.648)" />
      <path
         id="path4"
         d="m 224.371,1796.13 c -15.344,-74.71 -62.476,-113.07 -130.6405,-106.66 -9.4961,92.94 -42.586,162.21 -68.6524,212.34 1.8438,-1.33 3.5703,-2.77 5.5352,-4.22 51.9023,-39.7 105.3987,-80.74 193.7577,-101.46"
         style="fill:#cecdcd;fill-opacity:1;fill-rule:nonzero;stroke:none"
         transform="matrix(0.13333333,0,0,-0.13333333,0,257.30667)" />
      <path
         id="path5"
         d="m 237.051,1793.4 c -16.516,-79.87 -69.024,-123.02 -142.1994,-117.15 0.8554,-11.62 1.5039,-23.51 1.5547,-35.82 H 83.457 C 82.5313,1764.77 36.582,1851.91 6.19922,1909.57 L 0,1921.61 c 0,0 3.24609,0.87 5.65625,2.95 2.41406,2.06 3.98047,5.26 3.98047,5.26 9.74218,-7.32 19.34768,-14.49 28.83988,-21.84 C 100,1860.86 157.996,1816.26 270.914,1800.7 l -1.75,-12.81 c -11.211,1.49 -21.84,3.41 -32.113,5.51 z M 93.7305,1689.47 c 68.1645,-6.41 115.2965,31.95 130.6405,106.66 -88.359,20.72 -141.8554,61.76 -193.7577,101.46 -1.9649,1.45 -3.6914,2.89 -5.5352,4.22 26.0664,-50.13 59.1563,-119.4 68.6524,-212.34"
         style="fill:#231f20;fill-opacity:1;fill-rule:nonzero;stroke:none"
         transform="matrix(0.13333333,0,0,-0.13333333,0,257.30667)" />
      <path
         id="path6"
         d="m 175.426,1719.21 c -22.391,-17.51 -49.528,-20.14 -60.621,-5.94 -11.098,14.26 -1.922,39.93 20.453,57.37 22.402,17.49 49.547,20.13 60.64,5.92 11.106,-14.21 1.934,-39.91 -20.472,-57.35"
         style="fill:#ffffff;fill-opacity:1;fill-rule:nonzero;stroke:none"
         transform="matrix(0.13333333,0,0,-0.13333333,0,257.30667)" />
      <path
         id="path7"
         d="m 167.645,1719.83 c -9.895,-7.01 -22.801,-5.83 -28.817,2.68 -6.039,8.48 -2.906,21.04 6.992,28.07 9.907,7.02 22.801,5.85 28.844,-2.65 6.012,-8.5 2.875,-21.06 -7.019,-28.1"
         style="fill:#231f20;fill-opacity:1;fill-rule:nonzero;stroke:none"
         transform="matrix(0.13333333,0,0,-0.13333333,0,257.30667)" />
      <path
         id="path8"
         d="M 2102.56,1009.02 C 2112.9,1000.35 2311,838.539 2311,838.539 v -39.008 h -70.66 V 5.39844 h -48.6 L 2141.71,689.719 h -60.63 l -10.61,-429.547 h -42.43 L 1984.82,689.469 558.684,674.82 516.543,245.711 H 471.035 L 455.875,675.27 H 421.016 L 364.879,2.62891 314.105,2.5 304.301,783.641 c 0,0 -52.547,13.949 -54.574,17.32 -3.2,5.32 -2.993,28.367 0,33.238 4.32,6.992 159.304,145.356 171.289,160.367 25.761,0 1671.184,23.124 1681.544,14.454"
         style="fill:#e5e4e4;fill-opacity:1;fill-rule:nonzero;stroke:none"
         transform="matrix(0.13333333,0,0,-0.13333333,0,257.30667)" />
      <path
         id="path9"
         d="m 2102.56,1009.02 -1.61,-1.92 c 10.39,-8.709 208.45,-170.491 208.46,-170.498 l 1.59,1.937 h -2.5 v -36.508 h -70.66 V 7.89844 h -43.78 L 2144.03,692.219 h -65.39 L 2068.03,262.672 H 2030.3 L 1987.08,691.988 556.414,677.301 514.277,248.211 H 473.449 L 458.285,677.77 h -39.57 L 362.578,5.12891 316.574,5.01172 306.777,785.57 l -1.836,0.481 c -0.023,0.008 -13.113,3.488 -26.464,7.39 -6.676,1.95 -13.414,4 -18.559,5.758 -2.57,0.879 -4.746,1.692 -6.273,2.352 l -1.719,0.828 -0.317,0.199 -0.726,-0.918 0.984,0.59 -0.258,0.328 -0.726,-0.918 0.984,0.59 c -0.433,0.648 -1.078,2.898 -1.414,5.648 -0.363,2.774 -0.551,6.133 -0.551,9.5 0,3.481 0.2,6.981 0.571,9.832 0.34,2.829 1.007,5.129 1.382,5.661 l -0.003,-0.012 0.015,0.019 c 0.211,0.301 1.199,1.391 2.641,2.84 11.008,11.082 50.344,46.91 88.222,81.621 18.95,17.36 37.555,34.461 52.129,48.102 14.61,13.687 25.028,23.711 28.11,27.547 l -1.953,1.558 v -2.5 c 21.757,0 1191.774,16.394 1567.054,16.394 35.2,0 63.4,-0.14 83,-0.46 9.79,-0.16 17.43,-0.36 22.69,-0.6 2.63,-0.12 4.67,-0.26 6.05,-0.4 l 1.5,-0.2 0.22,-0.04 0.53,1.65 -1.11,-1.31 0.58,-0.34 0.53,1.65 -1.11,-1.31 1.61,1.92 1.6,1.91 -1.12,0.59 c -0.99,0.3 -2.06,0.4 -3.82,0.56 -11.93,0.97 -51.42,1.38 -111.15,1.38 -375.33,0 -1545.429,-16.394 -1567.054,-16.394 h -1.203 l -0.75,-0.941 c -1.301,-1.641 -5.055,-5.484 -10.411,-10.68 -18.816,-18.261 -58.05,-54.105 -93.019,-86.125 -17.488,-16.011 -33.918,-31.058 -46.219,-42.511 -6.152,-5.719 -11.269,-10.539 -14.984,-14.137 -1.86,-1.801 -3.367,-3.293 -4.489,-4.453 -1.144,-1.199 -1.808,-1.891 -2.339,-2.707 h -0.004 c -1.145,-1.953 -1.637,-4.461 -2.082,-7.633 -0.411,-3.141 -0.61,-6.809 -0.614,-10.481 0.004,-3.546 0.192,-7.089 0.594,-10.16 0.434,-3.078 0.949,-5.597 2.09,-7.566 0.664,-0.992 1.195,-1.211 1.836,-1.621 2.301,-1.313 6.539,-2.832 11.996,-4.621 16.246,-5.309 42.219,-12.2 42.242,-12.211 l 0.641,2.422 -2.5,-0.032 L 311.637,-0.0117188 367.18,0.140625 423.316,672.77 h 30.145 l 15.16,-429.559 h 50.188 l 42.14,429.129 1421.621,14.609 43.21,-429.277 h 47.13 l 10.61,429.547 h 55.87 L 2189.41,2.89844 h 53.43 V 797.031 h 70.66 v 42.699 l -0.92,0.75 c 0,0 -12.38,10.11 -31.12,25.411 -56.18,45.91 -169.59,138.579 -177.3,145.039 l -1.6,-1.91"
         style="fill:#231f20;fill-opacity:1;fill-rule:nonzero;stroke:none"
         transform="matrix(0.13333333,0,0,-0.13333333,0,257.30667)" />
      <path
         id="path10"
         d="m 2081.08,689.719 h -97.02 L 558.457,675.27 H 455.875"
         style="fill:#e5e4e4;fill-opacity:1;fill-rule:nonzero;stroke:none"
         transform="matrix(0.13333333,0,0,-0.13333333,0,257.30667)" />
      <path
         id="path11"
         d="m 2081.08,692.219 h -97.03 L 558.434,677.77 l 0.023,-2.5 v 2.5 H 455.875 v -5 h 102.59 l 1425.615,14.449 h 97 v 5"
         style="fill:#231f20;fill-opacity:1;fill-rule:nonzero;stroke:none"
         transform="matrix(0.13333333,0,0,-0.13333333,0,257.30667)" />
      <path
         id="path12"
         d="m 304.301,783.641 1837.409,15.89 h 98.63"
         style="fill:#e5e4e4;fill-opacity:1;fill-rule:nonzero;stroke:none"
         transform="matrix(0.13333333,0,0,-0.13333333,0,257.30667)" />
      <path
         id="path13"
         d="m 304.324,781.141 1837.396,15.89 h 98.62 v 5 h -98.65 l -1837.409,-15.89 0.043,-5"
         style="fill:#231f20;fill-opacity:1;fill-rule:nonzero;stroke:none"
         transform="matrix(0.13333333,0,0,-0.13333333,0,257.30667)" />
      <path
         id="path14"
         d="M 240.152,1610.18 622.008,942.09 628.52,945.813 246.664,1613.9"
         style="fill:#231f20;fill-opacity:1;fill-rule:nonzero;stroke:none"
         transform="matrix(0.13333333,0,0,-0.13333333,0,257.30667)" />
      <path
         id="path15"
         d="m 1164.33,1388.95 907.86,299.86 -2.35,7.12 -907.86,-299.86"
         style="fill:#231f20;fill-opacity:1;fill-rule:nonzero;stroke:none"
         transform="matrix(0.13333333,0,0,-0.13333333,0,257.30667)" />
      <path
         id="path16"
         d="m 627.684,941.086 531.516,448.564 -4.84,5.73 -531.516,-448.564"
         style="fill:#231f20;fill-opacity:1;fill-rule:nonzero;stroke:none"
         transform="matrix(0.13333333,0,0,-0.13333333,0,257.30667)" />
      <path
         id="path17"
         d="m 1557.16,964.867 c 0,0 1.47,-43.488 9.58,-55.265 8.1,-11.801 59.2,-56.024 177.01,-53.801 117.78,2.199 156.14,29.39 168.27,34.629 40.91,17.691 50.11,65.16 50.11,65.16 l -404.97,9.277"
         style="fill:#d3d2d2;fill-opacity:1;fill-rule:nonzero;stroke:none"
         transform="matrix(0.13333333,0,0,-0.13333333,0,257.30667)" />
      <path
         id="path18"
         d="m 1557.16,964.867 -2.5,-0.082 c 0,-0.039 0.37,-10.957 1.76,-23.41 0.7,-6.23 1.65,-12.844 2.96,-18.715 1.33,-5.879 2.92,-10.98 5.3,-14.48 4.42,-6.371 18.82,-19.899 46.36,-32.129 27.5,-12.18 68.02,-22.832 124.23,-22.832 2.8,0 5.65,0.019 8.53,0.082 59.07,1.097 98.35,8.48 124.42,16.277 26.01,7.762 39.11,16.113 44.79,18.551 42.33,18.461 51.47,66.762 51.57,66.988 l 0.57,2.906 -410.58,9.407 0.09,-2.645 2.5,0.082 -0.06,-2.496 404.97,-9.277 0.06,2.496 -2.46,0.476 c 0,0 -0.12,-0.66 -0.44,-1.945 -2.22,-9.078 -13.66,-46.562 -48.2,-61.402 -6.45,-2.797 -18.59,-10.66 -44.24,-18.348 -25.58,-7.652 -64.38,-14.973 -123.09,-16.07 -2.85,-0.063 -5.66,-0.082 -8.43,-0.082 -55.58,0 -95.38,10.531 -122.21,22.41 -26.81,11.832 -40.78,25.242 -44.26,30.383 -1.68,2.398 -3.31,7.148 -4.54,12.738 -1.87,8.398 -3.04,18.742 -3.72,26.945 -0.68,8.207 -0.88,14.243 -0.88,14.258 l -2.5,-0.086 -0.06,-2.496 0.06,2.496"
         style="fill:#231f20;fill-opacity:1;fill-rule:nonzero;stroke:none"
         transform="matrix(0.13333333,0,0,-0.13333333,0,257.30667)" />
      <path
         id="path19"
         d="m 1915.26,1066.95 c 33.72,-13.82 104.47,-28.86 104.29,-80.512 -0.19,-53.352 -112.76,-100.047 -205.62,-106.676 -86.59,-6.192 -190.7,-11.621 -284.66,40.34 -39.8,23.218 -59.15,67.445 -38.15,93.418 9.95,16.58 57.3,53.55 114.6,61.32 57.32,7.77 309.54,-7.89 309.54,-7.89"
         style="fill:#d3d2d2;fill-opacity:1;fill-rule:nonzero;stroke:none"
         transform="matrix(0.13333333,0,0,-0.13333333,0,257.30667)" />
      <path
         id="path20"
         d="m 1915.26,1066.95 -0.94,-2.31 c 17.07,-6.99 43,-14.17 64.52,-25.91 10.75,-5.86 20.36,-12.84 27.21,-21.34 6.84,-8.51 10.99,-18.468 11,-30.761 v -0.199 0.027 -0.012 c -0.03,-12.418 -6.65,-24.761 -18.42,-36.48 -35.23,-35.227 -115.76,-62.844 -184.88,-67.703 -27.48,-1.973 -56.67,-3.864 -86.7,-3.864 -64.58,0 -132.96,8.711 -196.57,43.891 l -1.21,-2.187 1.26,2.16 c -28.07,16.328 -45.57,43.465 -45.5,66.058 0.01,8.774 2.55,16.84 8.04,23.63 l 0.11,0.14 0.09,0.14 c 4.52,7.63 18.71,21.03 38.69,33.12 20.01,12.14 45.88,23.2 74.1,27.02 11.13,1.51 30.19,2.14 53.41,2.14 46.84,0 110.77,-2.52 162.97,-5.03 26.1,-1.26 49.27,-2.51 65.91,-3.46 16.64,-0.94 26.73,-1.57 26.76,-1.57 l 0.15,2.5 -0.94,-2.31 0.94,2.31 0.16,2.5 c -0.03,0 -161.96,10.05 -255.95,10.06 -23.33,-0.01 -42.44,-0.62 -54.08,-2.19 -29.09,-3.94 -55.54,-15.27 -76.02,-27.7 -20.5,-12.48 -34.96,-25.86 -40.39,-34.81 l 2.14,-1.29 -1.94,1.57 c -6.26,-7.72 -9.16,-17.031 -9.15,-26.77 0.08,-25.117 18.71,-53.25 47.98,-70.379 l 0.02,-0.011 0.03,-0.008 c 64.66,-35.762 133.99,-44.512 198.99,-44.524 30.24,0.012 59.55,1.903 87.05,3.872 46.78,3.351 98.35,16.73 138.47,36.058 20.06,9.672 37.27,20.828 49.59,33.094 12.3,12.25 19.83,25.746 19.89,40.004 v 0.015 0.188 c 0.01,13.451 -4.66,24.691 -12.11,33.901 -22.37,27.57 -68.79,38.41 -93.73,48.73 l -0.38,0.16 -0.41,0.03 -0.16,-2.5"
         style="fill:#231f20;fill-opacity:1;fill-rule:nonzero;stroke:none"
         transform="matrix(0.13333333,0,0,-0.13333333,0,257.30667)" />
      <path
         id="path21"
         d="m 1577.75,1056.88 c -40.19,-17.94 -95.92,-45.27 -69.62,-83.954 30.53,-44.906 95.21,-74.387 238.91,-72.164 143.71,2.207 207.29,23.918 246.52,69.176 39.25,45.232 -37.58,76.272 -53.62,81.442 -16.01,5.17 -43.1,12.43 -43.1,12.43 l -290.76,9.4 -28.33,-16.33"
         style="fill:#d3d2d2;fill-opacity:1;fill-rule:nonzero;stroke:none"
         transform="matrix(0.13333333,0,0,-0.13333333,0,257.30667)" />
      <path
         id="path22"
         d="m 1577.75,1056.88 -1.02,2.28 c -16.52,-7.38 -35.75,-16.36 -51.01,-27.2 -7.63,-5.43 -14.28,-11.33 -19.1,-17.84 -4.81,-6.5 -7.79,-13.69 -7.79,-21.456 -0.01,-6.789 2.29,-13.887 7.23,-21.144 15.03,-22.129 38.25,-40.559 74.29,-53.34 36.04,-12.789 84.94,-20.039 151.77,-20.039 4.89,0 9.88,0.039 14.96,0.121 71.97,1.109 123.99,7.09 163.1,18.547 39.11,11.441 65.35,28.488 85.27,51.492 8.11,9.32 11.66,18.394 11.65,26.898 0,8.541 -3.55,16.261 -8.84,22.961 -15.93,20.04 -47.65,32.34 -57.55,35.6 -16.13,5.21 -43.21,12.46 -43.23,12.47 l -0.28,0.07 -291.75,9.43 -28.94,-16.68 1.24,-2.17 -1.02,2.28 1.02,-2.28 1.25,-2.17 27.72,15.98 290.04,-9.37 0.08,2.49 -0.65,-2.41 c 0.01,-0.01 6.76,-1.81 15.52,-4.27 8.76,-2.46 19.52,-5.56 27.46,-8.13 6.23,-2 22.28,-8.18 36.54,-17.61 7.13,-4.7 13.81,-10.22 18.63,-16.33 4.82,-6.13 7.76,-12.74 7.76,-19.861 -0.01,-7.086 -2.88,-14.914 -10.42,-23.625 -19.32,-22.25 -44.48,-38.691 -82.9,-49.965 -38.41,-11.269 -90.04,-17.25 -161.78,-18.347 -5.06,-0.082 -10.02,-0.121 -14.88,-0.121 -66.47,0 -114.84,7.23 -150.1,19.75 -35.27,12.539 -57.4,30.25 -71.83,51.441 -4.5,6.625 -6.36,12.68 -6.36,18.332 0,6.457 2.45,12.566 6.81,18.476 13.06,17.79 43.45,32.5 68.13,43.46 l 0.12,0.05 0.11,0.06 -1.25,2.17"
         style="fill:#231f20;fill-opacity:1;fill-rule:nonzero;stroke:none"
         transform="matrix(0.13333333,0,0,-0.13333333,0,257.30667)" />
      <path
         id="path23"
         d="m 1518.38,1049.81 c 2.5,-11.57 5.98,-23.58 23.58,-35.18 12.15,-8.02 26.73,-2.94 34.47,1.12 7.73,4.04 8.64,18.59 6.06,27.44 -2.57,8.84 -4.7,25.05 -22.04,32.23 -12.89,5.35 -49.26,7.56 -42.07,-25.61 z m 143.14,-76.654 c -15.31,1.449 -27.44,2.586 -86.03,6.641 -58.6,4.055 -71.86,28.383 -82.54,46.433 -10.68,18.05 -14.75,42.75 -1.11,59.32 13.63,16.58 38.7,16.96 56.02,20.27 17.32,3.32 11.05,2.95 28.57,9.58 0,0 100.39,-143.705 85.09,-142.244"
         style="fill:#d3d2d2;fill-opacity:1;fill-rule:nonzero;stroke:none"
         transform="matrix(0.13333333,0,0,-0.13333333,0,257.30667)" />
      <path
         id="path24"
         d="m 1518.38,1049.81 -2.44,-0.53 c 2.44,-11.67 6.44,-24.86 24.65,-36.74 5.15,-3.41 10.75,-4.66 16.02,-4.66 8.37,0.02 16,3.05 20.98,5.66 3.36,1.76 5.51,4.94 6.83,8.45 1.32,3.55 1.86,7.55 1.86,11.46 0,3.71 -0.49,7.33 -1.39,10.44 -1.24,4.22 -2.44,10.72 -5.64,17.15 -3.19,6.44 -8.57,12.87 -17.84,16.69 -4.55,1.88 -11.32,3.29 -18.44,3.31 -6.52,-0.02 -13.34,-1.2 -18.8,-4.77 -5.47,-3.54 -9.28,-9.77 -9.22,-18.46 0,-2.61 0.32,-5.44 0.99,-8.53 l 2.44,0.53 2.44,0.53 c -0.6,2.79 -0.87,5.27 -0.87,7.47 0.06,7.33 2.8,11.47 6.97,14.28 4.2,2.79 10.14,3.96 16.05,3.95 6.42,0.01 12.78,-1.36 16.52,-2.93 8.07,-3.36 12.43,-8.63 15.28,-14.3 2.84,-5.68 3.99,-11.7 5.32,-16.32 0.75,-2.56 1.2,-5.79 1.19,-9.04 0.01,-3.44 -0.5,-6.92 -1.55,-9.7 -1.05,-2.81 -2.58,-4.81 -4.46,-5.79 -4.52,-2.37 -11.53,-5.09 -18.66,-5.08 -4.51,0.01 -9.03,1.04 -13.27,3.83 -17.01,11.32 -19.96,22.16 -22.52,33.63 z m 143.14,-76.654 0.24,2.489 c -15.33,1.449 -27.51,2.593 -86.1,6.644 -28.98,2.016 -46.41,8.988 -57.92,17.488 -11.52,8.513 -17.28,18.663 -22.64,27.733 -5.7,9.62 -9.44,21.24 -9.43,32.2 0.01,8.92 2.42,17.34 8.1,24.25 6.32,7.7 15.42,11.76 25.31,14.28 9.88,2.52 20.4,3.44 29.25,5.13 8.66,1.65 11.65,2.43 14.69,3.69 2.98,1.23 5.59,2.71 14.29,6 l -0.88,2.34 -2.05,-1.43 c 0.01,-0.02 5.41,-7.74 13.53,-19.62 12.18,-17.82 30.45,-44.94 45.66,-69.11 7.6,-12.08 14.43,-23.42 19.34,-32.459 2.45,-4.515 4.43,-8.457 5.76,-11.578 1.34,-3.086 1.98,-5.508 1.94,-6.277 l -0.01,-0.164 1.12,-0.278 -0.7,0.868 -0.42,-0.59 1.12,-0.278 -0.7,0.868 0.73,-0.903 v 1.196 l -0.73,-0.293 0.73,-0.903 v 1.196 -0.122 l 0.01,0.122 h -0.01 v -0.122 l 0.01,0.122 -0.24,-2.489 -0.23,-2.492 0.46,-0.019 c 0.99,-0.043 2.33,0.46 3.03,1.457 0.7,0.968 0.82,1.949 0.83,2.824 -0.07,3.015 -1.57,6.687 -3.97,11.82 -8.45,17.664 -29.18,50.054 -47.87,78.194 -18.69,28.12 -35.29,51.88 -35.29,51.89 l -1.12,1.6 -1.82,-0.69 c -8.82,-3.34 -11.83,-4.99 -14.43,-6.06 -2.53,-1.05 -5.06,-1.75 -13.72,-3.4 -8.47,-1.63 -19.15,-2.56 -29.54,-5.19 -10.38,-2.65 -20.63,-7.07 -27.95,-15.95 -6.53,-7.94 -9.23,-17.62 -9.23,-27.43 0.01,-12.09 4.04,-24.44 10.13,-34.75 5.32,-8.98 11.53,-20.02 23.97,-29.206 12.43,-9.191 30.93,-16.406 60.55,-18.453 58.59,-4.051 70.67,-5.188 85.97,-6.637 l 0.23,2.492"
         style="fill:#231f20;fill-opacity:1;fill-rule:nonzero;stroke:none"
         transform="matrix(0.13333333,0,0,-0.13333333,0,257.30667)" />
      <path
         id="path25"
         d="m 1933.99,1137.7 c -15.46,-67.27 -26.37,-104.29 -40.46,-128.05 -13.85,-23.345 -32.61,-44.783 -56.38,-70.759 -7.95,-8.661 -33.73,-21.551 -71.31,-20.45 -37.59,1.11 -67.99,4.969 -90.1,22.122 -22.1,17.128 -46.42,52.5 -53.62,59.687 -7.18,7.18 -49.32,95.26 -48.99,137.45 0.36,42.19 356.83,4.84 356.83,4.84"
         style="fill:#d3d2d2;fill-opacity:1;fill-rule:nonzero;stroke:none"
         transform="matrix(0.13333333,0,0,-0.13333333,0,257.30667)" />
      <path
         id="path26"
         d="m 1931.56,1138.26 c -15.45,-67.21 -26.37,-104.08 -40.18,-127.33 -13.68,-23.071 -32.32,-44.395 -56.08,-70.352 -3.35,-3.683 -11.02,-8.742 -22.09,-12.707 -11.08,-3.992 -25.6,-6.992 -42.88,-6.992 -1.45,0 -2.93,0.019 -4.42,0.062 -37.49,1.09 -67.33,5.028 -88.64,21.598 -10.75,8.328 -22.31,21.356 -31.99,33.18 -9.74,11.867 -17.49,22.371 -21.39,26.301 -0.51,0.47 -2.01,2.62 -3.77,5.68 -6.28,10.86 -17.48,34.24 -27.03,59.4 -9.58,25.13 -17.49,52.22 -17.46,70.1 v 0.48 0 c 0.03,1.25 0.45,2.34 1.54,3.61 1.88,2.18 5.99,4.45 11.92,6.28 17.82,5.58 51.22,7.74 90.08,7.72 52.48,0 115.14,-3.81 164.65,-7.62 24.76,-1.9 46.23,-3.81 61.51,-5.24 15.29,-1.43 24.35,-2.38 24.37,-2.38 l 0.52,4.97 c -0.04,0 -145.65,15.27 -251.05,15.27 -29.77,0 -56.33,-1.21 -75.65,-4.37 -9.67,-1.58 -17.52,-3.63 -23.22,-6.41 -2.84,-1.4 -5.17,-2.98 -6.89,-4.92 -1.71,-1.93 -2.77,-4.31 -2.78,-6.87 v 0.01 -0.53 c 0.04,-21.93 10.61,-54.41 22,-82.62 5.7,-14.09 11.62,-27.06 16.58,-36.99 2.48,-4.97 4.72,-9.17 6.59,-12.39 1.9,-3.25 3.28,-5.407 4.55,-6.716 3.29,-3.261 11.31,-14.039 21.06,-25.933 9.8,-11.942 21.46,-25.164 32.8,-33.965 22.92,-17.727 53.88,-21.508 91.56,-22.645 1.54,-0.043 3.06,-0.062 4.56,-0.062 17.86,0 32.94,3.101 44.57,7.293 11.65,4.207 19.82,9.406 24.09,14.031 23.79,25.996 42.67,47.547 56.69,71.177 14.37,24.27 25.26,61.44 40.75,128.76 l -4.87,1.12"
         style="fill:#231f20;fill-opacity:1;fill-rule:nonzero;stroke:none"
         transform="matrix(0.13333333,0,0,-0.13333333,0,257.30667)" />
      <path
         id="path27"
         d="m 1753.96,1199.52 c 39.51,-0.16 136.98,-1.4 172.72,-41.56 35.75,-40.16 -59.33,-87.32 -214.46,-77.38 -155.13,9.95 -139.64,54.91 -137.81,63.38 14.37,36.11 107.41,55.83 179.55,55.56"
         style="fill:#d3d2d2;fill-opacity:1;fill-rule:nonzero;stroke:none"
         transform="matrix(0.13333333,0,0,-0.13333333,0,257.30667)" />
      <path
         id="path28"
         d="m 1753.96,1199.52 -0.01,-2.5 c 19.72,-0.08 53.85,-0.43 87.39,-5.75 33.55,-5.27 66.4,-15.68 83.47,-34.97 4.79,-5.39 6.88,-10.61 6.89,-15.7 0.01,-6.83 -3.88,-13.94 -11.93,-20.9 -24.1,-20.94 -84.31,-38.03 -166.4,-37.96 -13.12,0 -26.8,0.43 -40.99,1.34 -61.98,3.96 -96.46,13.58 -115.12,23.92 -18.64,10.43 -21.52,20.92 -21.61,28.17 0,3.65 0.81,6.44 1.21,8.26 l -2.45,0.53 2.33,-0.92 c 3.22,8.17 11.18,15.85 22.66,22.58 34.45,20.27 99.49,31.44 153.07,31.4 h 1.47 l 0.02,2.5 0.01,2.5 h -1.5 c -36.19,0 -77.3,-4.94 -111.32,-14.42 -17.01,-4.75 -32.26,-10.62 -44.28,-17.67 -11.99,-7.05 -20.87,-15.28 -24.78,-25.04 l -0.08,-0.19 -0.04,-0.2 c -0.33,-1.54 -1.33,-4.98 -1.32,-9.33 -0.09,-8.89 4.39,-21.7 24.19,-32.54 19.79,-10.93 54.84,-20.53 117.22,-24.54 14.29,-0.92 28.08,-1.35 41.31,-1.35 55.21,0 100.65,7.53 132.5,19.09 15.92,5.79 28.46,12.58 37.17,20.08 8.67,7.49 13.65,15.87 13.66,24.69 0,6.53 -2.78,13 -8.15,19.03 -18.68,20.87 -52.43,31.15 -86.43,36.58 -34.01,5.38 -68.37,5.73 -88.16,5.81 v -2.5"
         style="fill:#231f20;fill-opacity:1;fill-rule:nonzero;stroke:none"
         transform="matrix(0.13333333,0,0,-0.13333333,0,257.30667)" />
      <path
         id="path29"
         d="m 1910.11,1137.7 c 0,-22.59 -70.77,-40.91 -158.09,-40.91 -87.3,0 -158.08,18.32 -158.08,40.91 0,22.59 70.78,40.9 158.08,40.9 87.32,0 158.09,-18.31 158.09,-40.9"
         style="fill:#b2b1b1;fill-opacity:1;fill-rule:nonzero;stroke:none"
         transform="matrix(0.13333333,0,0,-0.13333333,0,257.30667)" />
      <path
         id="path30"
         d="m 1910.11,1137.7 h -2.5 c -0.01,-2.15 -0.82,-4.34 -2.68,-6.69 -6.42,-8.35 -25.78,-16.73 -52.87,-22.43 -27.1,-5.79 -61.99,-9.29 -100.04,-9.29 -43.47,0 -82.84,4.57 -111.15,11.91 -14.16,3.65 -25.55,8.02 -33.21,12.71 -3.83,2.34 -6.71,4.76 -8.55,7.1 -1.85,2.35 -2.67,4.54 -2.67,6.69 0,2.15 0.82,4.34 2.67,6.69 6.43,8.34 25.79,16.72 52.88,22.43 27.1,5.79 61.99,9.28 100.03,9.28 43.48,0 82.84,-4.57 111.16,-11.9 14.15,-3.66 25.54,-8.02 33.2,-12.71 3.83,-2.34 6.71,-4.76 8.55,-7.1 1.86,-2.35 2.67,-4.53 2.68,-6.69 h 2.5 2.5 c 0,3.5 -1.39,6.82 -3.75,9.79 -8.31,10.3 -28.19,18.25 -55.76,24.21 -27.55,5.89 -62.72,9.4 -101.08,9.4 -43.83,0 -83.51,-4.59 -112.41,-12.06 -14.45,-3.74 -26.21,-8.19 -34.56,-13.29 -4.17,-2.55 -7.5,-5.27 -9.86,-8.26 -2.36,-2.97 -3.76,-6.29 -3.75,-9.79 -0.01,-3.49 1.39,-6.82 3.75,-9.79 8.31,-10.3 28.19,-18.25 55.75,-24.22 27.55,-5.88 62.73,-9.4 101.08,-9.4 43.84,0.01 83.52,4.59 112.41,12.07 14.46,3.74 26.22,8.19 34.56,13.28 4.17,2.56 7.5,5.28 9.87,8.27 2.36,2.97 3.75,6.3 3.75,9.79 h -2.5"
         style="fill:#231f20;fill-opacity:1;fill-rule:nonzero;stroke:none"
         transform="matrix(0.13333333,0,0,-0.13333333,0,257.30667)" />
      <path
         id="path31"
         d="m 2225.29,1914.66 9.71,-37.64 17.32,34.8 1.66,-38.83 24.18,30.44 -6.45,-38.34 29.98,24.75 -14.28,-36.15 34.47,17.97 -21.48,-32.4 37.45,10.42 -27.75,-27.22 38.8,2.4 -32.81,-20.86 38.46,-5.71 -36.42,-13.59 36.42,-13.58 -38.46,-5.72 32.81,-20.85 -38.8,2.4 27.75,-27.23 -37.45,10.42 21.48,-32.4 -34.47,17.98 14.28,-36.15 -29.98,24.74 6.45,-38.33 -24.18,30.44 -1.66,-38.83 -17.32,34.79 -9.71,-37.64 -9.69,37.64 -17.32,-34.79 -1.67,38.83 -24.17,-30.44 6.45,38.33 -29.98,-24.74 14.27,36.15 -34.46,-17.98 21.48,32.4 -37.45,-10.42 27.75,27.23 -38.8,-2.4 32.79,20.85 -38.44,5.72 36.42,13.58 -36.42,13.59 38.44,5.71 -32.79,20.86 38.8,-2.4 -27.75,27.22 37.45,-10.42 -21.48,32.4 34.46,-17.97 -14.27,36.15 29.98,-24.75 -6.45,38.34 24.17,-30.44 1.67,38.83 17.32,-34.8 9.69,37.64"
         style="fill:#fddd1b;fill-opacity:1;fill-rule:nonzero;stroke:none"
         transform="matrix(0.13333333,0,0,-0.13333333,0,257.30667)" />
      <path
         id="path32"
         d="m 2225.29,1914.66 -2.42,-0.62 9.71,-37.64 c 0.26,-1.01 1.12,-1.76 2.16,-1.86 1.03,-0.11 2.03,0.44 2.5,1.37 l 13,26.12 1.25,-29.15 c 0.04,-1.04 0.73,-1.95 1.72,-2.27 0.99,-0.32 2.08,0.01 2.73,0.82 l 18.15,22.85 -4.85,-28.77 c -0.17,-1.03 0.32,-2.06 1.22,-2.58 0.9,-0.52 2.04,-0.43 2.84,0.23 l 22.5,18.58 -10.71,-27.13 c -0.39,-0.97 -0.12,-2.08 0.65,-2.78 0.77,-0.7 1.9,-0.84 2.83,-0.36 l 25.86,13.49 -16.11,-24.32 0.06,-2.85 c 0.61,-0.84 1.69,-1.22 2.69,-0.93 l 28.11,7.82 -20.83,-20.44 c -0.75,-0.73 -0.96,-1.85 -0.54,-2.8 0.43,-0.95 1.4,-1.54 2.44,-1.48 l 29.12,1.81 -24.62,-15.66 c -0.88,-0.56 -1.32,-1.61 -1.1,-2.63 0.22,-1.02 1.05,-1.8 2.08,-1.95 l 28.86,-4.29 -27.34,-10.19 c -0.97,-0.37 -1.63,-1.3 -1.63,-2.35 0,-1.04 0.66,-1.98 1.63,-2.34 l 27.34,-10.2 -28.86,-4.28 c -1.03,-0.16 -1.87,-0.94 -2.08,-1.96 -0.22,-1.02 0.22,-2.07 1.1,-2.63 l 24.62,-15.65 -29.12,1.8 c -1.04,0.06 -2.01,-0.53 -2.44,-1.48 -0.42,-0.95 -0.21,-2.07 0.54,-2.8 l 20.82,-20.43 -28.1,7.82 c -1,0.28 -2.08,-0.1 -2.69,-0.94 l -0.06,-2.85 16.11,-24.32 -25.86,13.49 c -0.93,0.49 -2.06,0.34 -2.83,-0.36 -0.77,-0.69 -1.04,-1.8 -0.65,-2.77 l 10.71,-27.13 -22.5,18.57 c -0.8,0.66 -1.94,0.76 -2.84,0.24 -0.9,-0.52 -1.39,-1.55 -1.22,-2.58 l 4.85,-28.77 -18.15,22.84 c -0.65,0.82 -1.74,1.15 -2.73,0.82 -0.99,-0.32 -1.68,-1.23 -1.72,-2.27 l -1.25,-29.14 -13,26.11 c -0.47,0.94 -1.47,1.48 -2.5,1.37 -1.04,-0.1 -1.9,-0.85 -2.16,-1.86 l -7.29,-28.24 -7.27,28.24 c -0.26,1.01 -1.13,1.76 -2.16,1.86 -1.04,0.11 -2.04,-0.43 -2.5,-1.37 l -13,-26.11 -1.25,29.14 c -0.05,1.05 -0.74,1.95 -1.73,2.27 -0.99,0.33 -2.08,0 -2.73,-0.82 l -18.13,-22.84 4.83,28.77 c 0.17,1.03 -0.31,2.06 -1.21,2.58 -0.91,0.52 -2.04,0.42 -2.84,-0.24 l -22.51,-18.57 10.72,27.13 c 0.38,0.97 0.12,2.08 -0.65,2.77 -0.78,0.7 -1.91,0.85 -2.83,0.36 l -25.87,-13.49 16.12,24.32 -0.06,2.85 c -0.61,0.84 -1.69,1.22 -2.7,0.94 l -28.09,-7.82 20.82,20.43 c 0.74,0.73 0.96,1.85 0.53,2.8 -0.42,0.95 -1.4,1.54 -2.44,1.48 l -29.12,-1.8 24.61,15.65 c 0.88,0.56 1.32,1.61 1.11,2.63 -0.22,1.02 -1.05,1.8 -2.08,1.96 l -28.85,4.28 27.33,10.2 c 0.98,0.37 1.63,1.3 1.63,2.34 0,1.05 -0.65,1.98 -1.63,2.35 l -27.33,10.19 28.85,4.29 c 1.03,0.15 1.86,0.93 2.08,1.95 0.21,1.02 -0.23,2.07 -1.11,2.63 l -24.61,15.66 29.12,-1.81 c 1.04,-0.06 2.02,0.53 2.44,1.48 0.43,0.95 0.21,2.07 -0.53,2.8 l -20.82,20.44 28.09,-7.82 c 1.01,-0.29 2.09,0.09 2.7,0.93 l 0.06,2.85 -16.12,24.32 25.87,-13.49 c 0.92,-0.48 2.05,-0.34 2.83,0.36 0.77,0.7 1.03,1.81 0.65,2.78 l -10.72,27.13 22.51,-18.58 c 0.8,-0.66 1.93,-0.75 2.84,-0.23 0.9,0.52 1.38,1.55 1.21,2.58 l -4.84,28.77 18.14,-22.85 c 0.65,-0.81 1.74,-1.14 2.73,-0.82 0.99,0.32 1.68,1.23 1.73,2.27 l 1.25,29.15 13,-26.12 c 0.46,-0.93 1.46,-1.48 2.5,-1.37 1.03,0.1 1.9,0.85 2.16,1.86 l 9.69,37.64 -2.42,0.62 -2.42,-0.62 2.42,0.62 -2.42,0.63 -8.02,-31.15 -14.33,28.8 c -0.51,1.02 -1.64,1.56 -2.76,1.33 -1.11,-0.24 -1.93,-1.2 -1.98,-2.34 l -1.38,-32.14 -20,25.19 c -0.71,0.9 -1.93,1.2 -2.98,0.73 -1.04,-0.46 -1.63,-1.57 -1.44,-2.69 l 5.33,-31.73 -24.81,20.48 c -0.88,0.72 -2.14,0.76 -3.06,0.09 -0.93,-0.67 -1.28,-1.88 -0.86,-2.94 l 11.82,-29.92 -28.52,14.88 c -1.01,0.53 -2.25,0.31 -3.02,-0.54 -0.76,-0.85 -0.85,-2.11 -0.22,-3.05 l 17.77,-26.82 -30.99,8.62 c -1.09,0.31 -2.26,-0.17 -2.83,-1.16 -0.57,-0.98 -0.4,-2.23 0.41,-3.03 l 22.96,-22.53 -32.11,1.99 c -1.13,0.07 -2.18,-0.64 -2.53,-1.72 -0.35,-1.09 0.08,-2.27 1.04,-2.89 l 27.14,-17.26 -31.81,-4.73 c -1.13,-0.17 -2,-1.08 -2.12,-2.21 -0.12,-1.14 0.54,-2.21 1.61,-2.6 l 30.14,-11.25 -30.14,-11.24 c -1.07,-0.4 -1.73,-1.47 -1.61,-2.6 0.12,-1.14 0.99,-2.05 2.12,-2.22 l 31.81,-4.73 -27.14,-17.25 c -0.96,-0.62 -1.39,-1.8 -1.04,-2.89 0.35,-1.08 1.4,-1.79 2.53,-1.72 l 32.11,1.99 -22.96,-22.53 c -0.81,-0.8 -0.98,-2.05 -0.41,-3.04 0.57,-0.99 1.74,-1.46 2.83,-1.16 l 30.99,8.63 -17.77,-26.82 c -0.63,-0.95 -0.54,-2.21 0.22,-3.05 0.77,-0.85 2.01,-1.07 3.02,-0.55 l 28.52,14.88 -11.82,-29.92 c -0.42,-1.05 -0.07,-2.27 0.86,-2.94 0.92,-0.66 2.18,-0.63 3.06,0.1 l 24.81,20.48 -5.33,-31.72 c -0.19,-1.13 0.4,-2.24 1.44,-2.7 1.05,-0.47 2.27,-0.16 2.98,0.73 l 20,25.18 1.38,-32.13 c 0.05,-1.14 0.87,-2.1 1.98,-2.34 1.12,-0.24 2.25,0.31 2.76,1.33 l 14.33,28.79 8.02,-31.14 c 0.29,-1.1 1.28,-1.88 2.42,-1.88 1.14,0 2.14,0.78 2.42,1.88 l 8.04,31.15 14.34,-28.8 c 0.5,-1.02 1.64,-1.57 2.75,-1.33 1.12,0.24 1.93,1.2 1.98,2.34 l 1.38,32.13 20.01,-25.18 c 0.71,-0.89 1.93,-1.2 2.97,-0.73 1.04,0.46 1.64,1.57 1.45,2.7 l -5.34,31.72 24.81,-20.48 c 0.88,-0.73 2.14,-0.76 3.06,-0.1 0.92,0.67 1.27,1.89 0.85,2.94 l -11.81,29.92 28.52,-14.88 c 1.01,-0.52 2.25,-0.3 3.01,0.55 0.77,0.84 0.86,2.1 0.23,3.05 l -17.77,26.82 30.99,-8.63 c 1.1,-0.3 2.27,0.17 2.84,1.16 0.57,0.99 0.4,2.24 -0.42,3.04 l -22.97,22.53 32.11,-1.99 c 1.14,-0.07 2.18,0.64 2.53,1.72 0.36,1.09 -0.07,2.28 -1.03,2.89 l -27.15,17.25 31.83,4.73 c 1.13,0.17 2,1.08 2.12,2.22 0.12,1.13 -0.55,2.2 -1.62,2.6 l -30.14,11.24 30.14,11.25 c 1.07,0.39 1.74,1.46 1.62,2.6 -0.12,1.13 -0.99,2.04 -2.12,2.21 l -31.83,4.73 27.15,17.26 c 0.96,0.62 1.39,1.8 1.03,2.89 -0.35,1.08 -1.39,1.79 -2.53,1.72 l -32.11,-1.99 22.97,22.53 c 0.82,0.8 0.99,2.05 0.42,3.03 -0.57,0.99 -1.74,1.47 -2.84,1.16 l -30.99,-8.62 17.77,26.82 c 0.63,0.94 0.54,2.2 -0.23,3.05 -0.76,0.85 -2,1.07 -3.01,0.54 l -28.52,-14.88 11.81,29.92 c 0.42,1.06 0.07,2.27 -0.85,2.94 -0.92,0.67 -2.18,0.63 -3.06,-0.09 l -24.81,-20.48 5.34,31.72 c 0.19,1.13 -0.41,2.24 -1.45,2.7 -1.04,0.47 -2.26,0.17 -2.97,-0.73 l -20.01,-25.19 -1.38,32.14 c -0.05,1.14 -0.86,2.1 -1.98,2.34 -1.11,0.23 -2.25,-0.31 -2.75,-1.33 l -14.34,-28.81 -8.04,31.16 c -0.28,1.1 -1.28,1.87 -2.42,1.87 -1.14,0 -2.13,-0.77 -2.42,-1.87 l 2.42,-0.63"
         style="fill:#231f20;fill-opacity:1;fill-rule:nonzero;stroke:none"
         transform="matrix(0.13333333,0,0,-0.13333333,0,257.30667)" />
      <path
         id="path33"
         d="m 220.906,1612.05 c 0,-12.42 10.078,-22.51 22.508,-22.51 12.414,0 22.492,10.09 22.492,22.51 0,12.42 -10.078,22.49 -22.492,22.49 -12.43,0 -22.508,-10.07 -22.508,-22.49"
         style="fill:#231f20;fill-opacity:1;fill-rule:nonzero;stroke:none"
         transform="matrix(0.13333333,0,0,-0.13333333,0,257.30667)" />
      <path
         id="path34"
         d="m 2048.52,1692.39 c 0,-12.43 10.06,-22.51 22.5,-22.51 12.42,0 22.5,10.08 22.5,22.51 0,12.41 -10.08,22.49 -22.5,22.49 -12.44,0 -22.5,-10.08 -22.5,-22.49"
         style="fill:#231f20;fill-opacity:1;fill-rule:nonzero;stroke:none"
         transform="matrix(0.13333333,0,0,-0.13333333,0,257.30667)" />
      <path
         id="path35"
         d="m 650.465,950.348 c 0,-12.84 -10.41,-23.246 -23.254,-23.246 -12.848,0 -23.258,10.406 -23.258,23.246 0,12.84 10.41,23.25 23.258,23.25 12.844,0 23.254,-10.41 23.254,-23.25"
         style="fill:#231f20;fill-opacity:1;fill-rule:nonzero;stroke:none"
         transform="matrix(0.13333333,0,0,-0.13333333,0,257.30667)" />
      <path
         id="path36"
         d="m 1180.03,1392.52 c 0,-12.84 -10.41,-23.26 -23.25,-23.26 -12.84,0 -23.25,10.42 -23.25,23.26 0,12.83 10.41,23.24 23.25,23.24 12.84,0 23.25,-10.41 23.25,-23.24"
         style="fill:#231f20;fill-opacity:1;fill-rule:nonzero;stroke:none"
         transform="matrix(0.13333333,0,0,-0.13333333,0,257.30667)" />
      <path
         id="path37"
         d="m 1540.69,1510.95 c 0,-12.84 -10.41,-23.25 -23.25,-23.25 -12.84,0 -23.25,10.41 -23.25,23.25 0,12.85 10.41,23.25 23.25,23.25 12.84,0 23.25,-10.4 23.25,-23.25"
         style="fill:#231f20;fill-opacity:1;fill-rule:nonzero;stroke:none"
         transform="matrix(0.13333333,0,0,-0.13333333,0,257.30667)" />
      <path
         id="path38"
         d="m 1.0195281,-2.2840641 v -0.46875 c -0.29296872,0.1171875 -0.62109372,0.2109375 -0.87890622,0.2578125 v 0.140625 c 0.375,0.046875 0.3984375,0.058594 0.3984375,0.4570313 v 2.70703124 c 0,0.39843746 -0.0585938,0.43359376 -0.43359375,0.46874996 V 1.4424984 H 1.5234344 V 1.2784359 C 1.0546844,1.2315609 1.0195281,1.2081234 1.0195281,0.75109219 v -0.78515625 c 0.070312,0.046875 0.234375,0.10546875 0.4101563,0.10546875 0.7734375,-0.140625 1.4882812,-0.7265625 1.4882812,-1.62890629 0,-0.5976562 -0.3867187,-1.1367187 -1.0546875,-1.1367187 -0.070312,0 -0.1875,0.035156 -0.2929687,0.09375 z m 0,0.1992188 c 0.1523438,-0.1171875 0.3984375,-0.2460938 0.5976563,-0.2460938 0.4335937,0 0.796875,0.3632813 0.796875,0.9960938 0,0.67968749 -0.328125,1.11328124 -0.8320313,1.11328124 -0.2109375,0 -0.4335937,-0.09375 -0.5625,-0.234375 z M 7.0253875,1.9991391 V 1.8350766 C 6.4746063,1.7999203 6.43945,1.7413266 6.43945,1.3194516 v -3.1289063 c -0.328125,0.1289063 -0.6796875,0.2460938 -1.0664062,0.3164063 v 0.1289062 l 0.28125,0.011719 c 0.2695312,0.011719 0.2929687,0.046875 0.2929687,0.36328121 V 1.3194516 c 0,0.421875 -0.035156,0.4804687 -0.5742187,0.515625 v 0.1640625 z m 8.1738285,-4.0605469 v -0.6445313 c -0.292969,0.1171875 -0.550782,0.1875 -0.855469,0.2460938 v 0.1289062 c 0.351562,0.046875 0.375,0.070312 0.375,0.46875 v 1.24218754 c 0,0.3984375 -0.03516,0.43359375 -0.410156,0.46875 v 0.15234375 h 1.382812 v -0.15234375 c -0.46875,-0.0351563 -0.492187,-0.0703125 -0.492187,-0.46875 V -1.7215641 c 0.128906,-0.3398437 0.316406,-0.515625 0.480468,-0.515625 0.09375,0 0.164063,0.035156 0.246094,0.1289063 0.03516,0.035156 0.09375,0.035156 0.164063,0.011719 0.117187,-0.058594 0.1875,-0.1757812 0.1875,-0.2929687 0,-0.1523438 -0.140625,-0.3046875 -0.339844,-0.3046875 -0.292969,0 -0.550781,0.3398437 -0.726563,0.6328125 z m 5.097656,4.0605469 V 1.8350766 c -0.550781,-0.035156 -0.585938,-0.09375 -0.585938,-0.515625 v -3.1289063 c -0.328125,0.1289063 -0.679687,0.2460938 -1.066406,0.3164063 v 0.1289062 l 0.28125,0.011719 c 0.269531,0.011719 0.292969,0.046875 0.292969,0.36328121 V 1.3194516 c 0,0.421875 -0.03516,0.4804687 -0.574219,0.515625 V 1.9991391 Z M 54.041013,-56.105353 v -0.46875 c -0.292969,0.117187 -0.621094,0.210937 -0.878907,0.257812 v 0.140625 c 0.375,0.04687 0.398438,0.05859 0.398438,0.457032 v 2.707031 c 0,0.398437 -0.05859,0.433594 -0.433594,0.46875 v 0.164062 h 1.417969 v -0.164062 c -0.46875,-0.04687 -0.503906,-0.07031 -0.503906,-0.527344 v -0.785156 c 0.07031,0.04687 0.234375,0.105469 0.410156,0.105469 0.773437,-0.140625 1.488281,-0.726563 1.488281,-1.628907 0,-0.597656 -0.386719,-1.136718 -1.054687,-1.136718 -0.07031,0 -0.1875,0.03516 -0.292969,0.09375 z m 0,0.199219 c 0.152343,-0.117188 0.398437,-0.246094 0.597656,-0.246094 0.433594,0 0.796875,0.363281 0.796875,0.996094 0,0.679687 -0.328125,1.113281 -0.832031,1.113281 -0.210938,0 -0.433594,-0.09375 -0.5625,-0.234375 z m 6.169921,3.243164 c -0.175781,0.386718 -0.257812,0.410156 -0.585937,0.410156 h -1.113281 l 0.84375,-0.902344 c 0.550781,-0.585937 0.796875,-0.9375 0.796875,-1.464844 0,-0.621093 -0.480469,-1.007812 -1.007813,-1.007812 -0.351562,0 -0.632812,0.152344 -0.808594,0.351562 l -0.339843,0.492188 0.128906,0.117187 c 0.152344,-0.234375 0.410156,-0.5625 0.808594,-0.5625 0.445312,0 0.714843,0.292969 0.714843,0.796875 0,0.515625 -0.375,1.007813 -0.75,1.453125 -0.304687,0.351563 -0.632812,0.691407 -0.972656,1.019532 v 0.140625 h 2.238281 c 0.08203,-0.269532 0.140625,-0.539063 0.210938,-0.785157 z m 6.070313,9.448242 v -0.644531 c -0.292969,0.117187 -0.550781,0.1875 -0.855469,0.246093 v 0.128907 c 0.351563,0.04687 0.375,0.07031 0.375,0.46875 v 1.242187 c 0,0.398438 -0.03516,0.433594 -0.410156,0.46875 v 0.152344 h 1.382812 v -0.152344 c -0.46875,-0.03516 -0.492187,-0.07031 -0.492187,-0.46875 v -1.101562 c 0.128906,-0.339844 0.316406,-0.515625 0.480469,-0.515625 0.09375,0 0.164062,0.03516 0.246093,0.128906 0.03516,0.03516 0.09375,0.03516 0.164063,0.01172 0.117187,-0.05859 0.1875,-0.175782 0.1875,-0.292969 0,-0.152344 -0.140625,-0.304688 -0.339844,-0.304688 -0.292969,0 -0.550781,0.339844 -0.726562,0.632813 z m 5.261719,3.219726 c -0.175782,0.386719 -0.257813,0.410157 -0.585938,0.410157 h -1.113281 l 0.84375,-0.902344 c 0.550781,-0.585938 0.796875,-0.9375 0.796875,-1.464844 0,-0.621094 -0.480469,-1.007812 -1.007813,-1.007812 -0.351562,0 -0.632812,0.152343 -0.808593,0.351562 l -0.339844,0.492188 0.128906,0.117187 c 0.152344,-0.234375 0.410156,-0.5625 0.808594,-0.5625 0.445312,0 0.714844,0.292969 0.714844,0.796875 0,0.515625 -0.375,1.007813 -0.75,1.453125 -0.304688,0.351563 -0.632813,0.691406 -0.972657,1.019531 v 0.140625 h 2.238282 c 0.08203,-0.269531 0.140625,-0.539062 0.210937,-0.785156 z m 27.032226,-13.801757 v -0.46875 c -0.292969,0.117187 -0.621094,0.210937 -0.878906,0.257812 v 0.140625 c 0.375,0.04687 0.398437,0.05859 0.398437,0.457031 v 2.707032 c 0,0.398437 -0.05859,0.433593 -0.433593,0.46875 v 0.164062 h 1.417968 v -0.164062 c -0.46875,-0.04687 -0.503906,-0.07031 -0.503906,-0.527344 v -0.785156 c 0.07031,0.04687 0.234375,0.105468 0.410156,0.105468 0.773438,-0.140625 1.488282,-0.726562 1.488282,-1.628906 0,-0.597656 -0.38672,-1.136719 -1.054688,-1.136719 -0.07031,0 -0.1875,0.03516 -0.292969,0.09375 z m 0,0.199218 c 0.152344,-0.117187 0.398438,-0.246093 0.597656,-0.246093 0.433594,0 0.796875,0.363281 0.796875,0.996093 0,0.679688 -0.328125,1.113282 -0.832031,1.113282 -0.210937,0 -0.433594,-0.09375 -0.5625,-0.234375 z m 4.209958,1.107422 c 0.14063,-0.222656 0.38672,-0.46875 0.71485,-0.46875 0.3164,0 0.57422,0.1875 0.57422,0.5625 0,0.445313 -0.41016,0.679688 -0.96094,0.84375 l 0.0352,0.175781 c 0.0937,-0.02344 0.2461,-0.05859 0.38672,-0.05859 0.33985,0 0.76172,0.222656 0.76172,0.773437 0,0.585938 -0.30469,0.914063 -0.72656,0.914063 -0.33984,0 -0.58594,-0.175782 -0.73828,-0.316407 -0.0469,-0.03516 -0.10547,-0.03516 -0.15235,0 -0.0469,0.04687 -0.1289,0.128907 -0.1289,0.199219 -0.0117,0.07031 0.0117,0.140625 0.0937,0.222656 0.0703,0.07031 0.3164,0.199219 0.59765,0.199219 0.4336,0 1.57032,-0.445312 1.57032,-1.417969 0,-0.433593 -0.30469,-0.808593 -0.83203,-0.914062 v -0.01172 c 0.17578,-0.117187 0.3164,-0.222656 0.41015,-0.316406 0.10547,-0.117188 0.1875,-0.257813 0.1875,-0.433594 0,-0.445312 -0.36328,-0.785156 -0.90234,-0.785156 -0.31641,0 -0.58594,0.152344 -0.76172,0.339844 l -0.25781,0.375 z m 53.41114,-20.71289 v -0.644532 c -0.29297,0.117188 -0.55079,0.1875 -0.85547,0.246094 v 0.128906 c 0.35156,0.04687 0.375,0.07031 0.375,0.46875 v 1.242188 c 0,0.398437 -0.0352,0.433594 -0.41016,0.46875 v 0.152344 h 1.38281 v -0.152344 c -0.46875,-0.03516 -0.49218,-0.07031 -0.49218,-0.46875 v -1.101563 c 0.1289,-0.339843 0.3164,-0.515625 0.48046,-0.515625 0.0937,0 0.16407,0.03516 0.2461,0.128907 0.0351,0.03516 0.0937,0.03516 0.16406,0.01172 0.11719,-0.05859 0.1875,-0.175781 0.1875,-0.292968 0,-0.152344 -0.14062,-0.304688 -0.33984,-0.304688 -0.29297,0 -0.55078,0.339844 -0.72657,0.632813 z m 3.30468,1.086914 c 0.14063,-0.222657 0.38672,-0.46875 0.71485,-0.46875 0.3164,0 0.57422,0.1875 0.57422,0.5625 0,0.445312 -0.41016,0.679687 -0.96094,0.84375 l 0.0351,0.175781 c 0.0937,-0.02344 0.2461,-0.05859 0.38672,-0.05859 0.33985,0 0.76172,0.222656 0.76172,0.773438 0,0.585937 -0.30469,0.914062 -0.72656,0.914062 -0.33984,0 -0.58594,-0.175781 -0.73828,-0.316406 -0.0469,-0.03516 -0.10547,-0.03516 -0.15235,0 -0.0469,0.04687 -0.1289,0.128906 -0.1289,0.199219 -0.0117,0.07031 0.0117,0.140625 0.0937,0.222656 0.0703,0.07031 0.3164,0.199219 0.59765,0.199219 0.4336,0 1.57032,-0.445313 1.57032,-1.417969 0,-0.433594 -0.30469,-0.808594 -0.83203,-0.914063 v -0.01172 c 0.17578,-0.117188 0.3164,-0.222657 0.41015,-0.316407 0.10547,-0.117187 0.1875,-0.257812 0.1875,-0.433593 0,-0.445313 -0.36328,-0.785157 -0.90234,-0.785157 -0.31641,0 -0.58594,0.152344 -0.76172,0.339844 l -0.25781,0.375 z m -13.04004,-15.621094 v -0.46875 c -0.29296,0.117187 -0.62109,0.210937 -0.8789,0.257812 v 0.140625 c 0.375,0.04687 0.39844,0.05859 0.39844,0.457032 v 2.707031 c 0,0.398437 -0.0586,0.433594 -0.4336,0.46875 v 0.164062 h 1.41797 v -0.164062 c -0.46875,-0.04687 -0.50391,-0.07031 -0.50391,-0.527344 v -0.785156 c 0.0703,0.04687 0.23438,0.105469 0.41016,0.105469 0.77344,-0.140625 1.48828,-0.726563 1.48828,-1.628907 0,-0.597656 -0.38672,-1.136718 -1.05469,-1.136718 -0.0703,0 -0.1875,0.03516 -0.29296,0.09375 z m 0,0.199219 c 0.15235,-0.117188 0.39844,-0.246094 0.59766,-0.246094 0.43359,0 0.79688,0.363281 0.79688,0.996094 0,0.679687 -0.32813,1.113281 -0.83204,1.113281 -0.21093,0 -0.43359,-0.09375 -0.5625,-0.234375 z m 6.42481,3.017578 v -0.28125 h -0.57422 v -2.449219 h -0.23437 c -0.6211,0.820313 -1.23047,1.710938 -1.80469,2.566406 v 0.164063 h 1.55859 v 0.433594 c 0,0.398437 -0.0234,0.433593 -0.53906,0.46875 v 0.164062 h 1.53516 v -0.164062 c -0.49219,-0.03516 -0.51563,-0.07031 -0.51563,-0.46875 v -0.433594 z m -1.05469,-0.28125 h -1.18359 c 0.39844,-0.667969 0.79687,-1.242188 1.17187,-1.769531 h 0.0117 z m 0,0"
         style="fill:#231f20;fill-opacity:1;fill-rule:nonzero;stroke:none"
         aria-label="p&#10;1&#10;r&#10;1&#10;p&#10;2&#10;r&#10;2&#10;p&#10;3&#10;r&#10;3&#10;p&#10;4"
         transform="matrix(1.3333333,0,0,1.3333333,70.289067,137.2212)" />
    </g>
  </g>
</svg>
