<?xml version="1.0" encoding="UTF-8" standalone="no"?>
<!-- Created with Inkscape (http://www.inkscape.org/) -->

<svg
   version="1.1"
   id="svg1"
   width="185.22667"
   height="148.38667"
   viewBox="0 0 185.22667 148.38667"
   sodipodi:docname="pha14f12.eps"
   xmlns:inkscape="http://www.inkscape.org/namespaces/inkscape"
   xmlns:sodipodi="http://sodipodi.sourceforge.net/DTD/sodipodi-0.dtd"
   xmlns="http://www.w3.org/2000/svg"
   xmlns:svg="http://www.w3.org/2000/svg">
  <defs
     id="defs1">
    <linearGradient
       x1="0"
       y1="0"
       x2="1"
       y2="0"
       gradientUnits="userSpaceOnUse"
       gradientTransform="matrix(-1.66e-5,-380.62,-380.62,1.66e-5,644.155,381.981)"
       spreadMethod="pad"
       id="linearGradient4">
      <stop
         style="stop-opacity:1;stop-color:#ffffff"
         offset="0"
         id="stop2" />
      <stop
         style="stop-opacity:1;stop-color:#918f8f"
         offset="0.6769"
         id="stop3" />
      <stop
         style="stop-opacity:1;stop-color:#918f8f"
         offset="1"
         id="stop4" />
    </linearGradient>
    <clipPath
       clipPathUnits="userSpaceOnUse"
       id="clipPath4">
      <path
         d="m 0,1.35938 h 1288.32 v 380.621 H 0 Z"
         transform="translate(0,2.5000001e-5)"
         id="path4" />
    </clipPath>
  </defs>
  <sodipodi:namedview
     id="namedview1"
     pagecolor="#ffffff"
     bordercolor="#000000"
     borderopacity="0.25"
     inkscape:showpageshadow="2"
     inkscape:pageopacity="0.0"
     inkscape:pagecheckerboard="0"
     inkscape:deskcolor="#d1d1d1">
    <inkscape:page
       x="0"
       y="0"
       inkscape:label="1"
       id="page1"
       width="185.22667"
       height="148.38667"
       margin="0"
       bleed="0" />
  </sodipodi:namedview>
  <g
     id="g1"
     inkscape:groupmode="layer"
     inkscape:label="1">
    <g
       id="group-R5">
      <path
         id="path2"
         d="m 0,1.35938 h 1288.32 v 380.621 H 0 Z"
         style="fill:url(#linearGradient4);fill-opacity:1;fill-rule:nonzero;stroke:none"
         transform="matrix(0.13333333,0,0,-0.13333333,0,148.38667)"
         clip-path="url(#clipPath4)" />
      <path
         id="path5"
         d="M 0,0 H 1288.32 V 5 H 0 Z"
         style="fill:#231f20;fill-opacity:1;fill-rule:nonzero;stroke:none"
         transform="matrix(0.13333333,0,0,-0.13333333,0,148.38667)" />
      <path
         id="path6"
         d="m 0,379.48 h 1288.32 v 5 H 0 Z"
         style="fill:#231f20;fill-opacity:1;fill-rule:nonzero;stroke:none"
         transform="matrix(0.13333333,0,0,-0.13333333,0,148.38667)" />
      <path
         id="path7"
         d="m 859.023,1110.37 9.704,-37.64 17.32,34.8 1.656,-38.83 24.184,30.43 -6.449,-38.33 29.972,24.75 -14.273,-36.16 34.461,17.98 -21.477,-32.4 37.445,10.42 -27.738,-27.22 38.789,2.4 -32.793,-20.859 38.442,-5.719 -36.414,-13.582 36.414,-13.586 -38.442,-5.719 32.793,-20.859 -38.789,2.402 27.738,-27.218 -37.445,10.418 21.477,-32.399 -34.461,17.977 14.273,-36.153 -29.972,24.747 6.449,-38.332 -24.184,30.433 -1.656,-38.832 -17.32,34.801 -9.704,-37.641 -9.707,37.641 -17.312,-34.801 -1.668,38.832 -24.176,-30.433 6.445,38.332 -29.968,-24.747 14.265,36.153 -34.461,-17.977 21.481,32.399 -37.445,-10.418 27.742,27.218 -38.797,-2.402 32.801,20.859 -38.45,5.719 36.418,13.586 -36.418,13.582 38.45,5.719 -32.801,20.859 38.797,-2.4 -27.742,27.22 37.445,-10.42 -21.481,32.4 34.461,-17.98 -14.265,36.16 29.968,-24.75 -6.445,38.33 24.176,-30.43 1.668,38.83 17.312,-34.8 9.707,37.64"
         style="fill:#fddd1b;fill-opacity:1;fill-rule:nonzero;stroke:none"
         transform="matrix(0.13333333,0,0,-0.13333333,0,148.38667)" />
      <path
         id="path8"
         d="m 859.023,1110.37 -2.421,-0.62 9.703,-37.64 c 0.261,-1.01 1.125,-1.76 2.16,-1.87 1.035,-0.11 2.035,0.44 2.5,1.37 l 12.996,26.12 1.246,-29.14 c 0.047,-1.04 0.734,-1.95 1.727,-2.27 0.988,-0.32 2.082,0 2.726,0.82 l 18.153,22.84 -4.84,-28.77 c -0.172,-1.02 0.312,-2.05 1.215,-2.58 0.906,-0.52 2.039,-0.42 2.843,0.24 l 22.492,18.58 -10.71,-27.14 c -0.383,-0.97 -0.122,-2.08 0.652,-2.77 0.773,-0.7 1.906,-0.84 2.828,-0.36 l 25.863,13.49 -16.121,-24.32 0.063,-2.85 c 0.613,-0.84 1.691,-1.22 2.695,-0.94 l 28.102,7.82 -20.817,-20.43 c -0.746,-0.73 -0.957,-1.85 -0.535,-2.8 0.426,-0.95 1.398,-1.54 2.441,-1.48 l 29.11,1.81 -24.614,-15.66 c -0.878,-0.56 -1.32,-1.61 -1.101,-2.629 0.215,-1.019 1.047,-1.8 2.078,-1.953 l 28.852,-4.293 -27.332,-10.195 c -0.977,-0.363 -1.625,-1.301 -1.625,-2.34 0,-1.043 0.648,-1.98 1.625,-2.344 l 27.332,-10.195 -28.852,-4.293 c -1.031,-0.152 -1.863,-0.933 -2.078,-1.949 -0.219,-1.02 0.223,-2.07 1.101,-2.633 l 24.614,-15.652 -29.11,1.801 c -1.043,0.066 -2.015,-0.528 -2.441,-1.477 -0.422,-0.953 -0.207,-2.07 0.535,-2.801 l 20.817,-20.429 -28.102,7.82 c -1.004,0.277 -2.082,-0.098 -2.695,-0.942 l -0.063,-2.847 16.121,-24.317 -25.863,13.489 c -0.922,0.48 -2.055,0.339 -2.828,-0.36 -0.774,-0.695 -1.035,-1.804 -0.652,-2.773 l 10.71,-27.133 -22.492,18.57 c -0.804,0.664 -1.937,0.758 -2.843,0.239 -0.903,-0.52 -1.387,-1.551 -1.215,-2.579 l 4.84,-28.769 -18.153,22.844 c -0.644,0.812 -1.738,1.144 -2.726,0.82 -0.993,-0.32 -1.68,-1.23 -1.727,-2.27 l -1.246,-29.144 -12.996,26.117 c -0.465,0.934 -1.465,1.481 -2.5,1.371 -1.035,-0.105 -1.899,-0.851 -2.16,-1.859 l -7.282,-28.254 -7.285,28.254 c -0.261,1.008 -1.125,1.754 -2.16,1.859 -1.035,0.11 -2.035,-0.437 -2.5,-1.371 l -12.992,-26.117 -1.25,29.144 c -0.047,1.04 -0.734,1.95 -1.727,2.27 -0.992,0.32 -2.082,-0.008 -2.73,-0.82 l -18.145,-22.844 4.84,28.769 c 0.172,1.028 -0.312,2.059 -1.219,2.579 -0.902,0.519 -2.035,0.425 -2.839,-0.239 l -22.496,-18.574 10.71,27.137 c 0.383,0.969 0.122,2.078 -0.652,2.773 -0.773,0.699 -1.906,0.84 -2.832,0.36 l -25.863,-13.489 16.121,24.317 -0.063,2.847 c -0.609,0.844 -1.687,1.219 -2.691,0.942 l -28.102,-7.82 20.821,20.429 c 0.746,0.727 0.957,1.848 0.535,2.801 -0.426,0.949 -1.399,1.543 -2.441,1.477 l -29.118,-1.801 24.618,15.652 c 0.878,0.563 1.324,1.613 1.105,2.633 -0.215,1.016 -1.047,1.797 -2.078,1.949 l -28.856,4.293 27.332,10.195 c 0.977,0.364 1.625,1.301 1.625,2.344 0,1.039 -0.648,1.977 -1.625,2.34 l -27.332,10.195 28.856,4.293 c 1.031,0.153 1.863,0.934 2.078,1.953 0.219,1.019 -0.227,2.069 -1.105,2.629 l -24.618,15.66 29.118,-1.81 c 1.042,-0.06 2.015,0.53 2.441,1.48 0.422,0.95 0.211,2.07 -0.535,2.8 l -20.821,20.43 28.102,-7.82 c 1.004,-0.28 2.082,0.1 2.691,0.94 l 0.063,2.85 -16.121,24.32 25.863,-13.49 c 0.926,-0.48 2.059,-0.34 2.832,0.36 0.774,0.69 1.035,1.8 0.652,2.77 l -10.71,27.14 22.496,-18.58 c 0.804,-0.66 1.937,-0.76 2.839,-0.24 0.907,0.53 1.391,1.56 1.219,2.58 l -4.84,28.77 18.145,-22.84 c 0.648,-0.82 1.738,-1.14 2.73,-0.82 0.993,0.32 1.68,1.23 1.727,2.27 l 1.25,29.14 12.992,-26.12 c 0.465,-0.93 1.465,-1.48 2.5,-1.37 1.035,0.11 1.899,0.85 2.16,1.87 l 9.707,37.64 -2.422,0.62 -2.421,-0.62 2.421,0.62 -2.421,0.63 -8.032,-31.16 -14.332,28.8 c -0.508,1.02 -1.64,1.57 -2.758,1.33 -1.113,-0.23 -1.925,-1.2 -1.976,-2.33 l -1.379,-32.14 -20.004,25.18 c -0.711,0.9 -1.933,1.2 -2.976,0.73 -1.04,-0.46 -1.637,-1.57 -1.45,-2.7 l 5.336,-31.71 -24.804,20.47 c -0.879,0.73 -2.137,0.77 -3.059,0.1 -0.922,-0.67 -1.273,-1.88 -0.855,-2.94 l 11.804,-29.92 -28.519,14.87 c -1.012,0.53 -2.25,0.31 -3.016,-0.54 -0.762,-0.85 -0.855,-2.1 -0.223,-3.06 l 17.774,-26.8 -30.988,8.62 c -1.098,0.31 -2.266,-0.17 -2.836,-1.16 -0.571,-0.99 -0.399,-2.24 0.414,-3.03 l 22.961,-22.53 -32.11,1.99 c -1.136,0.07 -2.179,-0.64 -2.531,-1.73 -0.352,-1.08 0.074,-2.27 1.035,-2.88 l 27.149,-17.26 -31.821,-4.735 c -1.125,-0.168 -2,-1.078 -2.117,-2.211 -0.117,-1.133 0.543,-2.203 1.613,-2.602 l 30.137,-11.242 -30.137,-11.242 c -1.07,-0.398 -1.73,-1.469 -1.613,-2.605 0.117,-1.133 0.992,-2.043 2.117,-2.211 l 31.821,-4.731 -27.149,-17.262 c -0.961,-0.613 -1.387,-1.8 -1.035,-2.882 0.352,-1.086 1.395,-1.793 2.531,-1.723 l 32.11,1.988 -22.961,-22.527 c -0.813,-0.801 -0.985,-2.047 -0.414,-3.035 0.57,-0.989 1.738,-1.465 2.836,-1.16 l 30.988,8.625 -17.774,-26.813 c -0.632,-0.949 -0.539,-2.207 0.223,-3.055 0.766,-0.847 2.004,-1.07 3.016,-0.543 l 28.519,14.875 -11.804,-29.918 c -0.418,-1.062 -0.067,-2.269 0.855,-2.941 0.922,-0.672 2.18,-0.633 3.059,0.094 l 24.804,20.48 -5.336,-31.722 c -0.187,-1.122 0.41,-2.235 1.45,-2.696 1.043,-0.465 2.265,-0.164 2.976,0.727 l 20.004,25.187 1.379,-32.136 c 0.051,-1.141 0.863,-2.102 1.976,-2.34 1.118,-0.235 2.25,0.312 2.758,1.332 l 14.332,28.801 8.032,-31.153 c 0.285,-1.105 1.281,-1.875 2.421,-1.875 1.141,0 2.137,0.77 2.422,1.875 l 8.028,31.153 14.336,-28.801 c 0.507,-1.02 1.64,-1.571 2.757,-1.332 1.114,0.238 1.926,1.199 1.977,2.34 l 1.375,32.136 20.008,-25.187 c 0.711,-0.891 1.933,-1.192 2.976,-0.727 1.039,0.461 1.637,1.574 1.45,2.696 l -5.336,31.722 24.8,-20.48 c 0.879,-0.727 2.141,-0.766 3.063,-0.094 0.922,0.672 1.273,1.879 0.855,2.941 l -11.808,29.918 28.512,-14.875 c 1.011,-0.527 2.253,-0.304 3.015,0.543 0.762,0.848 0.856,2.106 0.227,3.055 l -17.774,26.813 30.992,-8.625 c 1.098,-0.305 2.262,0.171 2.832,1.16 0.571,0.988 0.403,2.234 -0.414,3.035 l -22.953,22.527 32.102,-1.988 c 1.137,-0.07 2.176,0.637 2.531,1.723 0.352,1.082 -0.074,2.269 -1.035,2.878 l -27.141,17.266 31.813,4.731 c 1.129,0.168 2,1.078 2.121,2.211 0.117,1.136 -0.547,2.207 -1.613,2.605 l -30.137,11.242 30.137,11.242 c 1.066,0.399 1.73,1.469 1.613,2.602 -0.121,1.133 -0.992,2.043 -2.121,2.211 l -31.813,4.735 27.141,17.26 c 0.961,0.61 1.387,1.8 1.035,2.88 -0.355,1.09 -1.394,1.8 -2.531,1.73 l -32.102,-1.99 22.953,22.53 c 0.817,0.79 0.985,2.04 0.414,3.03 -0.57,0.99 -1.734,1.47 -2.832,1.16 l -30.992,-8.62 17.774,26.8 c 0.629,0.96 0.535,2.21 -0.227,3.06 -0.762,0.85 -2.004,1.07 -3.015,0.54 l -28.512,-14.87 11.808,29.92 c 0.418,1.06 0.067,2.27 -0.855,2.94 -0.922,0.67 -2.184,0.63 -3.063,-0.1 l -24.8,-20.47 5.336,31.71 c 0.187,1.13 -0.411,2.24 -1.45,2.7 -1.043,0.47 -2.265,0.17 -2.976,-0.73 l -20.008,-25.18 -1.375,32.14 c -0.051,1.13 -0.863,2.1 -1.977,2.33 -1.117,0.24 -2.25,-0.31 -2.757,-1.33 l -14.336,-28.8 -8.028,31.15 c -0.285,1.11 -1.281,1.88 -2.422,1.88 -1.14,0 -2.136,-0.77 -2.421,-1.87 l 2.421,-0.63"
         style="fill:#231f20;fill-opacity:1;fill-rule:nonzero;stroke:none"
         transform="matrix(0.13333333,0,0,-0.13333333,0,148.38667)" />
      <path
         id="path9"
         d="m 50.457,379.879 234.391,345.965 -6.207,4.207 L 44.25,384.086"
         style="fill:#231f20;fill-opacity:1;fill-rule:nonzero;stroke:none"
         transform="matrix(0.13333333,0,0,-0.13333333,0,148.38667)" />
      <path
         id="path10"
         d="m 275.703,719.035 -25.273,1.238 0.008,0.887 31.363,21.328 c 9.129,8.653 18.254,17.305 27.379,25.957 -4.653,-11.683 -9.309,-23.363 -13.953,-35.047 l -8.18,-37.039 -0.719,-0.402 -10.625,23.078"
         style="fill:#231f20;fill-opacity:1;fill-rule:nonzero;stroke:none"
         transform="matrix(0.13333333,0,0,-0.13333333,0,148.38667)" />
      <path
         id="path11"
         d="m 140.457,379.879 234.391,345.965 -6.207,4.207 L 134.25,384.086"
         style="fill:#231f20;fill-opacity:1;fill-rule:nonzero;stroke:none"
         transform="matrix(0.13333333,0,0,-0.13333333,0,148.38667)" />
      <path
         id="path12"
         d="m 365.703,719.035 -25.273,1.238 0.008,0.887 31.363,21.328 c 9.129,8.653 18.254,17.305 27.379,25.957 -4.653,-11.683 -9.309,-23.363 -13.953,-35.047 l -8.18,-37.039 -0.719,-0.402 -10.625,23.078"
         style="fill:#231f20;fill-opacity:1;fill-rule:nonzero;stroke:none"
         transform="matrix(0.13333333,0,0,-0.13333333,0,148.38667)" />
      <path
         id="path13"
         d="m 230.457,379.879 234.391,345.965 -6.207,4.207 L 224.25,384.086"
         style="fill:#231f20;fill-opacity:1;fill-rule:nonzero;stroke:none"
         transform="matrix(0.13333333,0,0,-0.13333333,0,148.38667)" />
      <path
         id="path14"
         d="m 455.703,719.035 -25.273,1.238 0.008,0.887 31.363,21.328 c 9.129,8.653 18.254,17.305 27.379,25.957 -4.653,-11.683 -9.309,-23.363 -13.953,-35.047 l -8.18,-37.039 -0.719,-0.402 -10.625,23.078"
         style="fill:#231f20;fill-opacity:1;fill-rule:nonzero;stroke:none"
         transform="matrix(0.13333333,0,0,-0.13333333,0,148.38667)" />
      <path
         id="path15"
         d="m 320.457,379.879 234.391,345.965 -6.207,4.207 L 314.25,384.086"
         style="fill:#231f20;fill-opacity:1;fill-rule:nonzero;stroke:none"
         transform="matrix(0.13333333,0,0,-0.13333333,0,148.38667)" />
      <path
         id="path16"
         d="m 545.703,719.035 -25.273,1.238 0.008,0.887 31.363,21.328 c 9.129,8.653 18.254,17.305 27.379,25.957 -4.653,-11.683 -9.309,-23.363 -13.953,-35.047 l -8.18,-37.039 -0.719,-0.402 -10.625,23.078"
         style="fill:#231f20;fill-opacity:1;fill-rule:nonzero;stroke:none"
         transform="matrix(0.13333333,0,0,-0.13333333,0,148.38667)" />
      <path
         id="path17"
         d="m 410.457,379.879 234.391,345.965 -6.207,4.207 L 404.25,384.086"
         style="fill:#231f20;fill-opacity:1;fill-rule:nonzero;stroke:none"
         transform="matrix(0.13333333,0,0,-0.13333333,0,148.38667)" />
      <path
         id="path18"
         d="m 635.703,719.035 -25.273,1.238 0.008,0.887 31.363,21.328 c 9.129,8.653 18.254,17.305 27.379,25.957 -4.653,-11.683 -9.309,-23.363 -13.953,-35.047 l -8.18,-37.039 -0.719,-0.402 -10.625,23.078"
         style="fill:#231f20;fill-opacity:1;fill-rule:nonzero;stroke:none"
         transform="matrix(0.13333333,0,0,-0.13333333,0,148.38667)" />
      <path
         id="path19"
         d="m 500.457,379.879 234.391,345.965 -6.207,4.207 L 494.25,384.086"
         style="fill:#231f20;fill-opacity:1;fill-rule:nonzero;stroke:none"
         transform="matrix(0.13333333,0,0,-0.13333333,0,148.38667)" />
      <path
         id="path20"
         d="m 725.703,719.035 -25.273,1.238 0.008,0.887 31.363,21.328 c 9.129,8.653 18.254,17.305 27.379,25.957 -4.653,-11.683 -9.309,-23.363 -13.953,-35.047 l -8.18,-37.039 -0.719,-0.402 -10.625,23.078"
         style="fill:#231f20;fill-opacity:1;fill-rule:nonzero;stroke:none"
         transform="matrix(0.13333333,0,0,-0.13333333,0,148.38667)" />
      <path
         id="path21"
         d="m 590.457,379.879 234.391,345.965 -6.207,4.207 L 584.25,384.086"
         style="fill:#231f20;fill-opacity:1;fill-rule:nonzero;stroke:none"
         transform="matrix(0.13333333,0,0,-0.13333333,0,148.38667)" />
      <path
         id="path22"
         d="m 815.703,719.035 -25.273,1.238 0.008,0.887 31.363,21.328 c 9.129,8.653 18.254,17.305 27.379,25.957 -4.653,-11.683 -9.309,-23.363 -13.953,-35.047 l -8.18,-37.039 -0.719,-0.402 -10.625,23.078"
         style="fill:#231f20;fill-opacity:1;fill-rule:nonzero;stroke:none"
         transform="matrix(0.13333333,0,0,-0.13333333,0,148.38667)" />
      <path
         id="path23"
         d="m 680.457,379.879 234.391,345.965 -6.207,4.207 L 674.25,384.086"
         style="fill:#231f20;fill-opacity:1;fill-rule:nonzero;stroke:none"
         transform="matrix(0.13333333,0,0,-0.13333333,0,148.38667)" />
      <path
         id="path24"
         d="m 905.703,719.035 -25.273,1.238 0.008,0.887 31.363,21.328 c 9.129,8.653 18.254,17.305 27.379,25.957 -4.653,-11.683 -9.309,-23.363 -13.953,-35.047 l -8.18,-37.039 -0.719,-0.402 -10.625,23.078"
         style="fill:#231f20;fill-opacity:1;fill-rule:nonzero;stroke:none"
         transform="matrix(0.13333333,0,0,-0.13333333,0,148.38667)" />
      <path
         id="path25"
         d="m 770.457,379.879 234.393,345.965 -6.209,4.207 L 764.25,384.086"
         style="fill:#231f20;fill-opacity:1;fill-rule:nonzero;stroke:none"
         transform="matrix(0.13333333,0,0,-0.13333333,0,148.38667)" />
      <path
         id="path26"
         d="m 995.703,719.035 -25.273,1.238 0.008,0.887 31.362,21.328 c 9.13,8.653 18.25,17.305 27.38,25.957 -4.65,-11.683 -9.31,-23.363 -13.96,-35.047 l -8.17,-37.039 -0.72,-0.402 -10.627,23.078"
         style="fill:#231f20;fill-opacity:1;fill-rule:nonzero;stroke:none"
         transform="matrix(0.13333333,0,0,-0.13333333,0,148.38667)" />
      <path
         id="path27"
         d="m 860.457,379.879 234.393,345.965 -6.21,4.207 -234.39,-345.965"
         style="fill:#231f20;fill-opacity:1;fill-rule:nonzero;stroke:none"
         transform="matrix(0.13333333,0,0,-0.13333333,0,148.38667)" />
      <path
         id="path28"
         d="m 1085.7,719.035 -25.27,1.238 0.01,0.887 31.36,21.328 c 9.13,8.653 18.25,17.305 27.38,25.957 -4.65,-11.683 -9.31,-23.363 -13.96,-35.047 l -8.17,-37.039 -0.72,-0.402 -10.63,23.078"
         style="fill:#231f20;fill-opacity:1;fill-rule:nonzero;stroke:none"
         transform="matrix(0.13333333,0,0,-0.13333333,0,148.38667)" />
      <path
         id="path29"
         d="m 950.457,379.879 234.393,345.965 -6.21,4.207 -234.39,-345.965"
         style="fill:#231f20;fill-opacity:1;fill-rule:nonzero;stroke:none"
         transform="matrix(0.13333333,0,0,-0.13333333,0,148.38667)" />
      <path
         id="path30"
         d="m 1175.7,719.035 -25.27,1.238 0.01,0.887 31.37,21.328 c 9.12,8.653 18.24,17.305 27.37,25.957 -4.65,-11.683 -9.31,-23.363 -13.96,-35.047 l -8.18,-37.039 -0.71,-0.402 -10.63,23.078"
         style="fill:#231f20;fill-opacity:1;fill-rule:nonzero;stroke:none"
         transform="matrix(0.13333333,0,0,-0.13333333,0,148.38667)" />
      <path
         id="path31"
         d="m 1040.46,379.879 234.39,345.965 -6.21,4.207 -234.39,-345.965"
         style="fill:#231f20;fill-opacity:1;fill-rule:nonzero;stroke:none"
         transform="matrix(0.13333333,0,0,-0.13333333,0,148.38667)" />
      <path
         id="path32"
         d="m 1265.7,719.035 -25.27,1.238 0.01,0.887 31.37,21.328 c 9.12,8.653 18.24,17.305 27.37,25.957 -4.65,-11.683 -9.31,-23.363 -13.96,-35.047 l -8.18,-37.039 -0.71,-0.402 -10.63,23.078"
         style="fill:#231f20;fill-opacity:1;fill-rule:nonzero;stroke:none"
         transform="matrix(0.13333333,0,0,-0.13333333,0,148.38667)" />
      <path
         id="path33"
         d="m 1130.46,379.879 234.39,345.965 -6.21,4.207 -234.39,-345.965"
         style="fill:#231f20;fill-opacity:1;fill-rule:nonzero;stroke:none"
         transform="matrix(0.13333333,0,0,-0.13333333,0,148.38667)" />
      <path
         id="path34"
         d="m 1355.7,719.035 -25.27,1.238 0.01,0.887 31.37,21.328 c 9.12,8.653 18.24,17.305 27.37,25.957 -4.65,-11.683 -9.31,-23.363 -13.96,-35.047 l -8.18,-37.039 -0.71,-0.402 -10.63,23.078"
         style="fill:#231f20;fill-opacity:1;fill-rule:nonzero;stroke:none"
         transform="matrix(0.13333333,0,0,-0.13333333,0,148.38667)" />
      <path
         id="path35"
         d="m 538.27,288.73 c 0,-12.417 10.082,-22.511 22.507,-22.511 12.414,0 22.493,10.094 22.493,22.511 0,12.422 -10.079,22.489 -22.493,22.489 -12.425,0 -22.507,-10.067 -22.507,-22.489"
         style="fill:#231f20;fill-opacity:1;fill-rule:nonzero;stroke:none"
         transform="matrix(0.13333333,0,0,-0.13333333,0,148.38667)" />
      <g
         id="g35"
         aria-label="L(z, ω)"
         transform="matrix(1.3333333,0,0,1.3333333,79.359333,117.36067)">
        <path
           id="path36"
           d="M 4.3594063,-1.5009687 C 4.1250313,-1.0556562 3.9258125,-0.786125 3.7265938,-0.58690625 3.5039375,-0.36425 3.19925,-0.317375 2.6719063,-0.317375 c -0.3984375,0 -0.6796875,-0.0117188 -0.8085938,-0.1171875 -0.140625,-0.10546875 -0.1640625,-0.31640625 -0.09375,-0.6445312 l 0.703125,-3.7265625 C 2.6015938,-5.4853437 2.63675,-5.5439375 3.3515938,-5.6025312 l 0.058594,-0.234375 h -2.25 l -0.058594,0.234375 c 0.7382812,0.070312 0.7851562,0.1054687 0.6445312,0.796875 l -0.7382812,3.7617187 c -0.14062505,0.6796875 -0.1992188,0.75 -0.89062505,0.796875 L 0.058625,-9.6875e-4 h 3.9726563 c 0.140625,-0.28125 0.46875,-1.10156245 0.5742187,-1.40624995 z m 0,0"
           style="fill:#231f20;fill-opacity:1;fill-rule:nonzero;stroke:none" />
        <path
           id="path37"
           d="m 7.4824531,1.32325 c -0.890625,-0.76171875 -1.40625,-2.203125 -1.40625,-3.75 0,-1.546875 0.515625,-3 1.40625,-3.75 L 7.3301094,-6.3876875 c -1.3242188,0.9023438 -1.9101563,2.3320313 -1.9101563,3.9492188 0,1.6289062 0.5859375,3.0820312 1.9101563,3.9609375 z m 0,0"
           style="fill:#231f20;fill-opacity:1;fill-rule:nonzero;stroke:none" />
        <path
           id="path38"
           d="m 11.686555,-4.1728437 c -0.222657,0.2460937 -0.398438,0.3515625 -0.550782,0.3515625 -0.152343,0 -0.304687,-0.011719 -0.726562,-0.09375 C 9.9756172,-3.9853437 9.7060859,-4.0205 9.4599922,-4.0205 c -0.2226563,0 -0.4453125,0.1875 -0.65625,0.5273438 -0.140625,0.234375 -0.2460938,0.4453125 -0.375,0.7265625 l 0.234375,0.1054687 c 0.2578125,-0.4570312 0.46875,-0.7617187 0.890625,-0.7617187 0.2226562,0 0.6210938,0.023437 0.8554688,0.058594 0.199219,0.011719 0.398437,0 0.550781,-0.035156 C 10.127961,-2.5087812 9.0849922,-1.48925 8.4638984,-0.82128125 7.9131172,-0.2470625 7.9834297,0.01075 8.1357734,0.0810625 8.1826484,0.09278125 8.2060859,0.057625 8.2412422,-9.6875e-4 c 0.082031,-0.1171875 0.1875,-0.234375 0.2929687,-0.3046875 0.1171875,-0.0820313 0.2695313,-0.09375 0.5507813,0.046875 0.3984375,0.19921875 0.9140625,0.43359375 1.2070308,0.43359375 0.386719,0 0.75,-0.26953125 1.242188,-1.2421875 l -0.199219,-0.1640625 c -0.410156,0.609375 -0.679687,0.76171875 -0.925781,0.76171875 -0.222656,0 -0.5156251,-0.1171875 -0.8085938,-0.2109375 C 9.3310859,-0.79784375 9.0967109,-0.84471875 8.9209297,-0.833 9.5888984,-1.536125 10.772492,-2.7197187 11.346711,-3.3759687 11.592805,-3.6455 11.756867,-3.833 11.874055,-3.973625 Z m 0,0"
           style="fill:#231f20;fill-opacity:1;fill-rule:nonzero;stroke:none" />
        <path
           id="path39"
           d="m 12.506867,-1.161125 c -0.210937,0 -0.433594,0.140625 -0.433594,0.36328125 0,0.15234375 0.07031,0.22265625 0.117188,0.234375 0.304687,0.0703125 0.5625,0.26953125 0.5625,0.59765625 0,0.33984375 -0.257813,0.57421875 -0.691406,0.76171875 l 0.09375,0.25781255 c 0.550781,-0.16406255 1.183593,-0.5507813 1.183593,-1.24218755 0,-0.6328125 -0.503906,-0.97265625 -0.832031,-0.97265625 z m 0,0"
           style="fill:#231f20;fill-opacity:1;fill-rule:nonzero;stroke:none" />
        <path
           id="path40"
           d="m 20.118195,-3.8447187 c 0.292969,0.2578125 0.503907,0.7148437 0.503907,1.3828125 -0.01172,1.0078125 -0.398438,2.0507812 -1.136719,2.0507812 -0.304688,0 -0.515625,-0.3046875 -0.492188,-0.8789062 0.02344,-0.46875 0.234375,-1.359375 0.351563,-1.7226563 l -0.05859,-0.035156 -0.667969,0.140625 c -0.03516,0.28125 -0.09375,0.75 -0.1875,1.1367187 -0.199218,0.85546875 -0.5625,1.3125 -0.949218,1.3125 -0.28125,0 -0.539063,-0.33984375 -0.539063,-0.9960937 0,-1.0078125 0.46875,-1.921875 1.160156,-2.4492188 L 17.961949,-4.102531 c -1.042968,0.5390625 -1.757812,1.5585937 -1.757812,2.765625 0,0.93749995 0.421875,1.4414062 0.9375,1.4414062 0.386719,0 0.902344,-0.3984375 1.230469,-0.890625 0.04687,0.50390625 0.328125,0.890625 0.761718,0.890625 0.375,0 0.738282,-0.22265625 1.066407,-0.515625 0.5625,-0.52734375 0.996093,-1.3007812 0.996093,-2.2148437 0,-0.9023438 -0.398437,-1.4179688 -0.691406,-1.4179688 -0.152344,0 -0.316406,0.070312 -0.375,0.1289063 z m 0,0"
           style="fill:#231f20;fill-opacity:1;fill-rule:nonzero;stroke:none" />
        <path
           id="path41"
           d="m 21.911164,-6.17675 c 0.890625,0.7382813 1.417969,2.203125 1.417969,3.75 0,1.546875 -0.503906,2.98828125 -1.417969,3.75 l 0.164063,0.1992188 c 1.347656,-0.91406255 1.898437,-2.3320313 1.898437,-3.9492188 0,-1.6289062 -0.550781,-3.0585937 -1.898437,-3.9609375 z m 0,0"
           style="fill:#231f20;fill-opacity:1;fill-rule:nonzero;stroke:none" />
      </g>
    </g>
  </g>
</svg>
