<?xml version="1.0" encoding="UTF-8" standalone="no"?>
<!-- Created with Inkscape (http://www.inkscape.org/) -->

<svg
   version="1.1"
   id="svg1"
   width="291.69333"
   height="74.053329"
   viewBox="0 0 291.69333 74.053329"
   sodipodi:docname="pha14f02.eps"
   xmlns:inkscape="http://www.inkscape.org/namespaces/inkscape"
   xmlns:sodipodi="http://sodipodi.sourceforge.net/DTD/sodipodi-0.dtd"
   xmlns="http://www.w3.org/2000/svg"
   xmlns:svg="http://www.w3.org/2000/svg">
  <defs
     id="defs1" />
  <sodipodi:namedview
     id="namedview1"
     pagecolor="#ffffff"
     bordercolor="#000000"
     borderopacity="0.25"
     inkscape:showpageshadow="2"
     inkscape:pageopacity="0.0"
     inkscape:pagecheckerboard="0"
     inkscape:deskcolor="#d1d1d1">
    <inkscape:page
       x="0"
       y="0"
       inkscape:label="1"
       id="page1"
       width="291.69333"
       height="74.053329"
       margin="0"
       bleed="0" />
  </sodipodi:namedview>
  <g
     id="g1"
     inkscape:groupmode="layer"
     inkscape:label="1">
    <g
       id="group-R5">
      <g
         id="g2"
         aria-label="L&#10;i&#10;(p, ω)L&#10;s&#10;(p′, –ω)L&#10;o&#10;(p&#10;s&#10;, –ω)&#10;p&#10;s"
         transform="matrix(1.3333333,0,0,1.3333333,5.47448,52.337733)">
        <path
           id="path2"
           d="m 4.3580072,-1.5013469 c -0.234375,0.4453125 -0.4335938,0.71484378 -0.6328125,0.91406253 -0.2226563,0.22265625 -0.5273438,0.26953125 -1.0546875,0.26953125 -0.3984375,0 -0.6796875,-0.0117188 -0.8085938,-0.1171875 -0.140625,-0.10546875 -0.1640625,-0.31640625 -0.09375,-0.64453128 l 0.703125,-3.7265625 c 0.1289063,-0.6796875 0.1640625,-0.7382812 0.8789063,-0.796875 l 0.058594,-0.234375 h -2.25 l -0.058594,0.234375 c 0.7382812,0.070312 0.7851562,0.1054688 0.6445312,0.796875 L 1.0064447,-1.0443156 C 0.86581969,-0.36462812 0.80722594,-0.29431562 0.11581969,-0.24744062 L 0.05722594,-0.00134687 H 4.0298822 c 0.140625,-0.28125 0.46875,-1.10156253 0.5742187,-1.40625003 z m 0,0"
           style="fill:#231f20;fill-opacity:1;fill-rule:nonzero;stroke:none" />
        <path
           id="path3"
           d="m 6.0074212,-2.8284953 c 0.2578125,0 0.4570313,-0.2109375 0.4570313,-0.4570313 0,-0.2695312 -0.1992188,-0.46875 -0.4570313,-0.46875 -0.234375,0 -0.4570312,0.1992188 -0.4570312,0.46875 0,0.2460938 0.2226562,0.4570313 0.4570312,0.4570313 z m 1.0546875,4.828125 V 1.7652547 C 6.4761712,1.7066609 6.4175775,1.6597859 6.4175775,1.0504109 V -2.0550578 C 6.01914,-1.9027141 5.597265,-1.7855266 5.1402337,-1.7034953 v 0.2109375 c 0.5390625,0.09375 0.5625,0.1289062 0.5625,0.67968749 V 1.0504109 c 0,0.609375 -0.058594,0.65625 -0.6210937,0.7148438 v 0.234375 z M 9.0923822,1.3228719 c -0.890625,-0.76171877 -1.40625,-2.20312502 -1.40625,-3.75 0,-1.546875 0.515625,-3 1.40625,-3.75 L 8.9400384,-6.3880656 c -1.3242187,0.9023437 -1.9101562,2.3320312 -1.9101562,3.9492187 0,1.62890628 0.5859375,3.08203128 1.9101562,3.9609375 z m 1.9394528,-4.7460938 v -0.7148437 c -0.421875,0.1757812 -0.925781,0.328125 -1.3124997,0.3984375 v 0.2109375 c 0.5624997,0.070312 0.5976567,0.09375 0.5976567,0.6796875 v 4.0664062 c 0,0.5859375 -0.08203,0.6445313 -0.6562504,0.703125 v 0.234375 H 11.793554 V 1.9205281 C 11.090429,1.8502156 11.031835,1.8033406 11.031835,1.1236531 v -1.18359372 c 0.117188,0.0703125 0.363282,0.15234375 0.621094,0.1640625 1.171875,-0.2109375 2.238281,-1.08984375 2.238281,-2.44921878 0,-0.890625 -0.597656,-1.6992187 -1.59375,-1.6992187 -0.105468,0 -0.28125,0.046875 -0.445312,0.140625 z m 0,0.3046875 c 0.246094,-0.1875 0.609375,-0.3867187 0.902344,-0.3867187 0.65625,0 1.207031,0.5390625 1.207031,1.5117187 0,1.00781253 -0.515625,1.66406253 -1.265625,1.66406253 -0.304687,0 -0.644531,-0.15234375 -0.84375,-0.3515625 z m 3.776368,1.9570313 c -0.210938,0 -0.433594,0.140625 -0.433594,0.36328123 0,0.15234375 0.07031,0.22265625 0.117187,0.234375 0.304688,0.0703125 0.5625,0.26953125 0.5625,0.59765625 0,0.33984375 -0.257812,0.57421875 -0.691406,0.76171875 l 0.09375,0.25781247 c 0.550781,-0.16406247 1.183594,-0.55078122 1.183594,-1.24218747 0,-0.6328125 -0.503906,-0.97265623 -0.832031,-0.97265623 z m 0,0"
           style="fill:#231f20;fill-opacity:1;fill-rule:nonzero;stroke:none" />
        <path
           id="path4"
           d="m 22.419531,-3.8450969 c 0.292968,0.2578125 0.503906,0.7148438 0.503906,1.3828125 -0.01172,1.0078125 -0.398438,2.05078128 -1.136719,2.05078128 -0.304687,0 -0.515625,-0.3046875 -0.492187,-0.87890628 0.02344,-0.46875 0.234375,-1.359375 0.351562,-1.7226562 l -0.05859,-0.035156 -0.667968,0.140625 c -0.03516,0.28125 -0.09375,0.75 -0.1875,1.1367188 -0.199219,0.85546873 -0.5625,1.31249998 -0.949219,1.31249998 -0.28125,0 -0.539063,-0.33984375 -0.539063,-0.99609378 0,-1.0078125 0.46875,-1.921875 1.160157,-2.4492187 l -0.140625,-0.1992188 c -1.042969,0.5390625 -1.757813,1.5585938 -1.757813,2.765625 0,0.93750003 0.421875,1.44140628 0.9375,1.44140628 0.386719,0 0.902344,-0.3984375 1.230469,-0.890625 0.04687,0.50390625 0.328125,0.890625 0.761719,0.890625 0.375,0 0.738281,-0.22265625 1.066406,-0.515625 0.5625,-0.52734375 0.996094,-1.30078128 0.996094,-2.21484378 0,-0.9023437 -0.398438,-1.4179687 -0.691407,-1.4179687 -0.152343,0 -0.316406,0.070312 -0.375,0.1289062 z m 0,0"
           style="fill:#231f20;fill-opacity:1;fill-rule:nonzero;stroke:none" />
        <path
           id="path5"
           d="m 24.212499,-6.1771281 c 0.890625,0.7382812 1.417969,2.203125 1.417969,3.75 0,1.54687498 -0.503906,2.98828123 -1.417969,3.75 l 0.164063,0.1992187 c 1.347656,-0.91406247 1.898437,-2.33203122 1.898437,-3.9492187 0,-1.6289063 -0.550781,-3.0585938 -1.898437,-3.9609375 z m 0,0"
           style="fill:#231f20;fill-opacity:1;fill-rule:nonzero;stroke:none" />
        <path
           id="path6"
           d="m 78.027929,-1.5013469 c -0.234375,0.4453125 -0.433594,0.71484378 -0.632812,0.91406253 -0.222657,0.22265625 -0.527344,0.26953125 -1.054688,0.26953125 -0.398437,0 -0.679687,-0.0117188 -0.808594,-0.1171875 -0.140625,-0.10546875 -0.164062,-0.31640625 -0.09375,-0.64453128 l 0.703125,-3.7265625 c 0.128907,-0.6796875 0.164063,-0.7382812 0.878907,-0.796875 l 0.05859,-0.234375 h -2.25 l -0.05859,0.234375 c 0.738281,0.070312 0.785156,0.1054688 0.644531,0.796875 l -0.738281,3.7617188 c -0.140625,0.67968748 -0.199219,0.74999998 -0.890625,0.79687498 l -0.05859,0.24609375 h 3.972656 c 0.140625,-0.28125 0.46875,-1.10156253 0.574219,-1.40625003 z m 0,0"
           style="fill:#231f20;fill-opacity:1;fill-rule:nonzero;stroke:none" />
        <path
           id="path7"
           d="m 81.341406,-0.93005781 c -0.03516,-0.22265629 -0.128907,-0.74999999 -0.199219,-0.96093749 -0.1875,-0.070312 -0.433594,-0.1523438 -0.796875,-0.1523438 -0.832031,0 -1.371094,0.5273438 -1.371094,1.16015629 0,0.69140625 0.585938,0.99609375 1.125,1.2421875 0.445313,0.2109375 0.703125,0.421875 0.703125,0.82031251 0,0.375 -0.304687,0.6328125 -0.632812,0.6328125 -0.539063,0 -0.949219,-0.5273438 -1.113282,-1.11328126 l -0.234375,0.0351563 c 0,0.32812506 0.08203,0.93750006 0.152344,1.06640626 0.164063,0.140625 0.574219,0.3046875 1.03125,0.3046875 0.726563,0 1.488281,-0.421875 1.488281,-1.24218751 0,-0.62109375 -0.457031,-0.9375 -1.136718,-1.21875 -0.410157,-0.17578125 -0.761719,-0.375 -0.761719,-0.78515619 0,-0.3515625 0.246094,-0.6210938 0.585937,-0.6210938 0.433594,0 0.75,0.3632813 0.925782,0.89062499 z m 2.012695,2.25292971 c -0.890625,-0.76171877 -1.40625,-2.20312502 -1.40625,-3.75 0,-1.546875 0.515625,-3 1.40625,-3.75 l -0.152344,-0.2109375 c -1.324219,0.9023437 -1.910156,2.3320312 -1.910156,3.9492187 0,1.62890628 0.585937,3.08203128 1.910156,3.9609375 z m 1.942383,-4.7460938 v -0.7148437 c -0.421875,0.1757812 -0.925782,0.328125 -1.3125,0.3984375 v 0.2109375 c 0.5625,0.070312 0.597656,0.09375 0.597656,0.6796875 v 4.0664062 c 0,0.5859375 -0.08203,0.6445313 -0.65625,0.703125 v 0.234375 h 2.132812 V 1.9205281 C 85.355077,1.8502156 85.296484,1.8033406 85.296484,1.1236531 v -1.18359372 c 0.117187,0.0703125 0.363281,0.15234375 0.621093,0.1640625 1.171875,-0.2109375 2.238282,-1.08984375 2.238282,-2.44921878 0,-0.890625 -0.597657,-1.6992187 -1.59375,-1.6992187 -0.105469,0 -0.28125,0.046875 -0.445313,0.140625 z m 0,0.3046875 c 0.246093,-0.1875 0.609375,-0.3867187 0.902343,-0.3867187 0.65625,0 1.207032,0.5390625 1.207032,1.5117187 0,1.00781253 -0.515625,1.66406253 -1.265625,1.66406253 -0.304688,0 -0.644532,-0.15234375 -0.84375,-0.3515625 z m 0,0"
           style="fill:#231f20;fill-opacity:1;fill-rule:nonzero;stroke:none" />
        <path
           id="path8"
           d="m 89.286718,-3.5404094 0.609375,-1.2890625 c 0.175781,-0.3867187 0.28125,-0.6210937 0.316406,-0.7382812 0.03516,-0.082031 0.04687,-0.1523438 0.04687,-0.2226563 0,-0.09375 -0.02344,-0.1640625 -0.08203,-0.2226562 -0.07031,-0.058594 -0.152344,-0.09375 -0.257812,-0.09375 -0.128907,0 -0.246094,0.035156 -0.339844,0.1171875 -0.105469,0.082031 -0.175781,0.2226562 -0.234375,0.3984375 -0.03516,0.1289062 -0.08203,0.375 -0.117188,0.7617187 l -0.140625,1.2890625 z m 0,0"
           style="fill:#231f20;fill-opacity:1;fill-rule:nonzero;stroke:none" />
        <path
           id="path9"
           d="m 91.302343,-1.1615031 c -0.210937,0 -0.433594,0.140625 -0.433594,0.36328123 0,0.15234375 0.07031,0.22265625 0.117188,0.234375 0.304687,0.0703125 0.5625,0.26953125 0.5625,0.59765625 0,0.33984375 -0.257813,0.57421875 -0.691406,0.76171875 l 0.09375,0.25781247 c 0.550781,-0.16406247 1.183593,-0.55078122 1.183593,-1.24218747 0,-0.6328125 -0.503906,-0.97265623 -0.832031,-0.97265623 z m 7.470703,-0.6445313 v -0.46875 h -3.773437 v 0.46875 z m 0,0"
           style="fill:#231f20;fill-opacity:1;fill-rule:nonzero;stroke:none" />
        <path
           id="path10"
           d="m 103.59238,-3.8450969 c 0.29297,0.2578125 0.50391,0.7148438 0.50391,1.3828125 -0.0117,1.0078125 -0.39844,2.05078128 -1.13672,2.05078128 -0.30469,0 -0.51563,-0.3046875 -0.49219,-0.87890628 0.0234,-0.46875 0.23438,-1.359375 0.35156,-1.7226562 l -0.0586,-0.035156 -0.66797,0.140625 c -0.0352,0.28125 -0.0937,0.75 -0.1875,1.1367188 -0.19922,0.85546873 -0.5625,1.31249998 -0.94922,1.31249998 -0.28125,0 -0.53906,-0.33984375 -0.53906,-0.99609378 0,-1.0078125 0.46875,-1.921875 1.16016,-2.4492187 l -0.14063,-0.1992188 c -1.04297,0.5390625 -1.75781,1.5585938 -1.75781,2.765625 0,0.93750003 0.42187,1.44140628 0.9375,1.44140628 0.38672,0 0.90234,-0.3984375 1.23047,-0.890625 0.0469,0.50390625 0.32812,0.890625 0.76172,0.890625 0.375,0 0.73828,-0.22265625 1.0664,-0.515625 0.5625,-0.52734375 0.9961,-1.30078128 0.9961,-2.21484378 0,-0.9023437 -0.39844,-1.4179687 -0.69141,-1.4179687 -0.15234,0 -0.31641,0.070312 -0.375,0.1289062 z m 0,0"
           style="fill:#231f20;fill-opacity:1;fill-rule:nonzero;stroke:none" />
        <path
           id="path11"
           d="m 105.38535,-6.1771281 c 0.89063,0.7382812 1.41797,2.203125 1.41797,3.75 0,1.54687498 -0.50391,2.98828123 -1.41797,3.75 l 0.16406,0.1992187 c 1.34766,-0.91406247 1.89844,-2.33203122 1.89844,-3.9492187 0,-1.6289063 -0.55078,-3.0585938 -1.89844,-3.9609375 z m 0,0"
           style="fill:#231f20;fill-opacity:1;fill-rule:nonzero;stroke:none" />
        <path
           id="path12"
           d="m 163.08555,-1.5013469 c -0.23438,0.4453125 -0.4336,0.71484378 -0.63282,0.91406253 -0.22265,0.22265625 -0.52734,0.26953125 -1.05468,0.26953125 -0.39844,0 -0.67969,-0.0117188 -0.8086,-0.1171875 -0.14062,-0.10546875 -0.16406,-0.31640625 -0.0937,-0.64453128 l 0.70313,-3.7265625 c 0.1289,-0.6796875 0.16406,-0.7382812 0.8789,-0.796875 l 0.0586,-0.234375 h -2.25 l -0.0586,0.234375 c 0.73828,0.070312 0.78516,0.1054688 0.64453,0.796875 l -0.73828,3.7617188 c -0.14062,0.67968748 -0.19922,0.74999998 -0.89062,0.79687498 l -0.0586,0.24609375 h 3.97266 c 0.14063,-0.28125 0.46875,-1.10156253 0.57422,-1.40625003 z m 0,0"
           style="fill:#231f20;fill-opacity:1;fill-rule:nonzero;stroke:none" />
        <path
           id="path13"
           d="m 165.82187,-2.0433391 c -0.82031,0 -1.98046,0.6796875 -1.98046,2.15625004 0,1.00781246 0.73828,1.99218746 1.98046,1.99218746 0.89063,0 1.94532,-0.6914062 1.94532,-2.14453121 0,-1.11328129 -0.83203,-2.00390629 -1.94532,-2.00390629 z m -0.0937,0.3046875 c 0.78516,0 1.20704,0.84375004 1.20704,1.89843754 0,1.24218746 -0.45704,1.65234376 -1.01954,1.65234376 -0.73828,0 -1.23046,-0.84375001 -1.23046,-1.98046876 0,-1.01953124 0.48046,-1.57031254 1.04296,-1.57031254 z m 3.542,3.0615235 c -0.89063,-0.76171877 -1.40625,-2.20312502 -1.40625,-3.75 0,-1.546875 0.51562,-3 1.40625,-3.75 l -0.15235,-0.2109375 c -1.32422,0.9023437 -1.91015,2.3320312 -1.91015,3.9492187 0,1.62890628 0.58593,3.08203128 1.91015,3.9609375 z m 1.93945,-4.7460938 v -0.7148437 c -0.42188,0.1757812 -0.92578,0.328125 -1.3125,0.3984375 v 0.2109375 c 0.5625,0.070312 0.59766,0.09375 0.59766,0.6796875 v 4.0664062 c 0,0.5859375 -0.082,0.6445313 -0.65625,0.703125 v 0.234375 h 2.13281 v -0.234375 c -0.70313,-0.070312 -0.76172,-0.1171875 -0.76172,-0.796875 v -1.18359372 c 0.11719,0.0703125 0.36328,0.15234375 0.62109,0.1640625 1.17188,-0.2109375 2.23828,-1.08984375 2.23828,-2.44921878 0,-0.890625 -0.59765,-1.6992187 -1.59375,-1.6992187 -0.10546,0 -0.28125,0.046875 -0.44531,0.140625 z m 0,0.3046875 c 0.24609,-0.1875 0.60937,-0.3867187 0.90234,-0.3867187 0.65625,0 1.20703,0.5390625 1.20703,1.5117187 0,1.00781253 -0.51562,1.66406253 -1.26562,1.66406253 -0.30469,0 -0.64453,-0.15234375 -0.84375,-0.3515625 z m 5.53711,2.18847659 c -0.0352,-0.22265629 -0.12891,-0.74999999 -0.19922,-0.96093749 -0.1875,-0.070312 -0.43359,-0.1523438 -0.79687,-0.1523438 -0.83204,0 -1.3711,0.5273438 -1.3711,1.16015629 0,0.69140625 0.58594,0.99609375 1.125,1.2421875 0.44531,0.2109375 0.70313,0.421875 0.70313,0.82031251 0,0.375 -0.30469,0.6328125 -0.63282,0.6328125 -0.53906,0 -0.94921,-0.5273438 -1.11328,-1.11328126 l -0.23437,0.0351563 c 0,0.32812506 0.082,0.93750006 0.15234,1.06640626 0.16406,0.140625 0.57422,0.3046875 1.03125,0.3046875 0.72656,0 1.48828,-0.421875 1.48828,-1.24218751 0,-0.62109375 -0.45703,-0.9375 -1.13672,-1.21875 -0.41015,-0.17578125 -0.76171,-0.375 -0.76171,-0.78515619 0,-0.3515625 0.24609,-0.6210938 0.58593,-0.6210938 0.4336,0 0.75,0.3632813 0.92578,0.89062499 z m 0.28125,-0.23144529 c -0.21094,0 -0.43359,0.140625 -0.43359,0.36328123 0,0.15234375 0.0703,0.22265625 0.11718,0.234375 0.30469,0.0703125 0.5625,0.26953125 0.5625,0.59765625 0,0.33984375 -0.25781,0.57421875 -0.6914,0.76171875 l 0.0937,0.25781247 c 0.55078,-0.16406247 1.18359,-0.55078122 1.18359,-1.24218747 0,-0.6328125 -0.50391,-0.97265623 -0.83203,-0.97265623 z m 7.4707,-0.6445313 v -0.46875 h -3.77344 v 0.46875 z m 0,0"
           style="fill:#231f20;fill-opacity:1;fill-rule:nonzero;stroke:none" />
        <path
           id="path14"
           d="m 189.3209,-3.8450969 c 0.29297,0.2578125 0.5039,0.7148438 0.5039,1.3828125 -0.0117,1.0078125 -0.39843,2.05078128 -1.13671,2.05078128 -0.30469,0 -0.51563,-0.3046875 -0.49219,-0.87890628 0.0234,-0.46875 0.23437,-1.359375 0.35156,-1.7226562 l -0.0586,-0.035156 -0.66797,0.140625 c -0.0352,0.28125 -0.0937,0.75 -0.1875,1.1367188 -0.19922,0.85546873 -0.5625,1.31249998 -0.94922,1.31249998 -0.28125,0 -0.53906,-0.33984375 -0.53906,-0.99609378 0,-1.0078125 0.46875,-1.921875 1.16015,-2.4492187 l -0.14062,-0.1992188 c -1.04297,0.5390625 -1.75781,1.5585938 -1.75781,2.765625 0,0.93750003 0.42187,1.44140628 0.9375,1.44140628 0.38671,0 0.90234,-0.3984375 1.23046,-0.890625 0.0469,0.50390625 0.32813,0.890625 0.76172,0.890625 0.375,0 0.73828,-0.22265625 1.06641,-0.515625 0.5625,-0.52734375 0.99609,-1.30078128 0.99609,-2.21484378 0,-0.9023437 -0.39843,-1.4179687 -0.6914,-1.4179687 -0.15235,0 -0.31641,0.070312 -0.375,0.1289062 z m 0,0"
           style="fill:#231f20;fill-opacity:1;fill-rule:nonzero;stroke:none" />
        <path
           id="path15"
           d="m 190.97031,-4.1146281 c 0.59766,0.4921875 0.94922,1.4648437 0.94922,2.4960937 0,1.03125003 -0.33984,1.99218753 -0.94922,2.49609378 l 0.11719,0.14062502 c 0.89062,-0.60937502 1.26562,-1.55859377 1.26562,-2.6367188 0,-1.078125 -0.375,-2.0390625 -1.26562,-2.6367187 z m 18.21973,-9.6533199 v -0.46875 c -0.29297,0.117187 -0.6211,0.210937 -0.87891,0.257812 v 0.140625 c 0.375,0.04687 0.39844,0.05859 0.39844,0.457031 v 2.707032 c 0,0.398437 -0.0586,0.433593 -0.43359,0.46875 v 0.164062 h 1.41796 v -0.164062 c -0.46875,-0.04687 -0.5039,-0.07031 -0.5039,-0.527344 v -0.785156 c 0.0703,0.04687 0.23437,0.105468 0.41015,0.105468 0.77344,-0.140625 1.48829,-0.726562 1.48829,-1.628906 0,-0.597656 -0.38672,-1.136719 -1.05469,-1.136719 -0.0703,0 -0.1875,0.03516 -0.29297,0.09375 z m 0,0.199218 c 0.15234,-0.117187 0.39844,-0.246093 0.59765,-0.246093 0.4336,0 0.79688,0.363281 0.79688,0.996093 0,0.679688 -0.32813,1.113282 -0.83203,1.113282 -0.21094,0 -0.4336,-0.09375 -0.5625,-0.234375 z m 5.08008,2.141602 c -0.0234,-0.152344 -0.082,-0.503906 -0.12891,-0.644531 -0.12891,-0.04687 -0.29297,-0.105469 -0.53906,-0.105469 -0.55078,0 -0.91406,0.351562 -0.91406,0.773437 0,0.46875 0.38671,0.65625 0.75,0.832032 0.30468,0.140625 0.48046,0.28125 0.48046,0.539062 0,0.2578126 -0.21093,0.4218751 -0.43359,0.4218751 -0.35156,0 -0.62109,-0.3398437 -0.73828,-0.7382811 l -0.15234,0.02344 c 0,0.222657 0.0586,0.6328129 0.0937,0.7148441 0.10546,0.082031 0.38671,0.1992188 0.6914,0.1992188 0.48047,0 0.9961,-0.28125 0.9961,-0.8320309 0,-0.410157 -0.31641,-0.621094 -0.76172,-0.808594 -0.26953,-0.117188 -0.50391,-0.257813 -0.50391,-0.527344 0,-0.234375 0.15234,-0.410156 0.38672,-0.410156 0.29297,0 0.50391,0.234375 0.62109,0.597656 z m 0,0"
           style="fill:#231f20;fill-opacity:1;fill-rule:nonzero;stroke:none" />
      </g>
      <path
         id="path16"
         d="m 969.848,286.816 c 0,-11.046 -8.95,-20 -20,-20 -11.043,0 -20,8.954 -20,20 0,11.043 8.957,20 20,20 11.05,0 20,-8.957 20,-20"
         style="fill:#231f20;fill-opacity:1;fill-rule:nonzero;stroke:none"
         transform="matrix(0.13333333,0,0,-0.13333333,0,74.053333)" />
      <path
         id="path17"
         d="m 2079.95,297.297 -1.84,-133.598 -19.14,35.727 -22.95,-21.692 v 48.481 l -43.38,-12.758 22.97,43.379 -70.18,-10.203 31.9,28.058 v 42.102 l -21.7,25.52 42.11,47.199 33.16,-10.203 7.66,35.718 19.14,-48.48 21.68,45.93 0.57,-115.18"
         style="fill:#d7d7d7;fill-opacity:1;fill-rule:nonzero;stroke:none"
         transform="matrix(0.13333333,0,0,-0.13333333,0,74.053333)" />
      <path
         id="path18"
         d="m 40,283.629 c 0,-11.047 -8.957,-20 -20,-20 -11.04297,0 -20,8.953 -20,20 0,11.039 8.95703,20.004 20,20.004 11.043,0 20,-8.965 20,-20.004"
         style="fill:#231f20;fill-opacity:1;fill-rule:nonzero;stroke:none"
         transform="matrix(0.13333333,0,0,-0.13333333,0,74.053333)" />
      <path
         id="path19"
         d="M 2078.68,0 V 555.371"
         style="fill:none;stroke:#231f20;stroke-width:10;stroke-linecap:butt;stroke-linejoin:miter;stroke-miterlimit:10;stroke-dasharray:none;stroke-opacity:1"
         transform="matrix(0.13333333,0,0,-0.13333333,0,74.053333)" />
      <path
         id="path20"
         d="m 2098.65,283.629 c 0,-11.047 -8.96,-20 -20.01,-20 -11.04,0 -19.99,8.953 -19.99,20 0,11.039 8.95,20.004 19.99,20.004 11.05,0 20.01,-8.965 20.01,-20.004"
         style="fill:#231f20;fill-opacity:1;fill-rule:nonzero;stroke:none"
         transform="matrix(0.13333333,0,0,-0.13333333,0,74.053333)" />
      <path
         id="path21"
         d="m 1747.18,283.629 h 324.17"
         style="fill:none;stroke:#231f20;stroke-width:7.5;stroke-linecap:butt;stroke-linejoin:miter;stroke-miterlimit:10;stroke-dasharray:none;stroke-opacity:1"
         transform="matrix(0.13333333,0,0,-0.13333333,0,74.053333)" />
      <path
         id="path22"
         d="m 1757.95,283.629 13.15,21.613 -0.74,0.496 -35.25,-14.004 c -12.28,-2.703 -24.56,-5.402 -36.84,-8.105 12.28,-2.699 24.56,-5.402 36.84,-8.106 l 35.25,-14.003 0.74,0.371 -13.15,21.738"
         style="fill:#231f20;fill-opacity:1;fill-rule:nonzero;stroke:none"
         transform="matrix(0.13333333,0,0,-0.13333333,0,74.053333)" />
      <path
         id="path23"
         d="m 364.785,283.629 h 15"
         style="fill:none;stroke:#231f20;stroke-width:5;stroke-linecap:butt;stroke-linejoin:miter;stroke-miterlimit:10;stroke-dasharray:none;stroke-opacity:1"
         transform="matrix(0.13333333,0,0,-0.13333333,0,74.053333)" />
      <path
         id="path24"
         d="M 399.645,283.629 H 1680.64"
         style="fill:none;stroke:#231f20;stroke-width:5;stroke-linecap:butt;stroke-linejoin:miter;stroke-miterlimit:10;stroke-dasharray:29.7906, 19.8604;stroke-dashoffset:0;stroke-opacity:1"
         transform="matrix(0.13333333,0,0,-0.13333333,0,74.053333)" />
      <path
         id="path25"
         d="m 1690.57,283.629 h 15"
         style="fill:none;stroke:#231f20;stroke-width:5;stroke-linecap:butt;stroke-linejoin:miter;stroke-miterlimit:10;stroke-dasharray:none;stroke-opacity:1"
         transform="matrix(0.13333333,0,0,-0.13333333,0,74.053333)" />
      <path
         id="path26"
         d="M 20,283.629 H 382.984"
         style="fill:none;stroke:#231f20;stroke-width:7.5;stroke-linecap:butt;stroke-linejoin:miter;stroke-miterlimit:10;stroke-dasharray:none;stroke-opacity:1"
         transform="matrix(0.13333333,0,0,-0.13333333,0,74.053333)" />
      <path
         id="path27"
         d="m 372.219,283.629 -13.153,21.613 0.739,0.496 35.25,-14.004 c 12.285,-2.703 24.562,-5.402 36.843,-8.105 -12.281,-2.699 -24.558,-5.402 -36.843,-8.106 l -35.25,-14.003 -0.739,0.371 13.153,21.738"
         style="fill:#231f20;fill-opacity:1;fill-rule:nonzero;stroke:none"
         transform="matrix(0.13333333,0,0,-0.13333333,0,74.053333)" />
    </g>
  </g>
</svg>
