<?xml version="1.0" encoding="UTF-8" standalone="no"?>
<!-- Created with Inkscape (http://www.inkscape.org/) -->

<svg
   version="1.1"
   id="svg1"
   width="178.66667"
   height="127.92"
   viewBox="0 0 178.66667 127.92"
   sodipodi:docname="pha14f19.eps"
   xmlns:inkscape="http://www.inkscape.org/namespaces/inkscape"
   xmlns:sodipodi="http://sodipodi.sourceforge.net/DTD/sodipodi-0.dtd"
   xmlns="http://www.w3.org/2000/svg"
   xmlns:svg="http://www.w3.org/2000/svg">
  <defs
     id="defs1">
    <linearGradient
       x1="0"
       y1="0"
       x2="1"
       y2="0"
       gradientUnits="userSpaceOnUse"
       gradientTransform="matrix(-1.79e-5,-409.941,-409.941,1.79e-5,670.015,409.941)"
       spreadMethod="pad"
       id="linearGradient3">
      <stop
         style="stop-opacity:1;stop-color:#ffffff"
         offset="0"
         id="stop2" />
      <stop
         style="stop-opacity:1;stop-color:#918f8f"
         offset="1"
         id="stop3" />
    </linearGradient>
    <clipPath
       clipPathUnits="userSpaceOnUse"
       id="clipPath3">
      <path
         d="M 1340.04,0 H 0 v 409.941 -1.632 h 636.453 c -5.25,-2.454 -12.762,-8.461 -21.226,-22.844 0,0 -2.153,-23.785 19.082,-40.027 17.269,-13.211 60.425,-27.958 88.808,-27.958 6.5,0 12.227,0.774 16.688,2.516 12.043,4.707 16.211,11.906 15.707,39.652 -0.453,25.125 -28.887,35.704 -71,48.661 H 1340.04 V 0"
         id="path3" />
    </clipPath>
    <linearGradient
       x1="0"
       y1="0"
       x2="1"
       y2="0"
       gradientUnits="userSpaceOnUse"
       gradientTransform="matrix(-1.79e-5,-409.941,-409.941,1.79e-5,670.015,409.941)"
       spreadMethod="pad"
       id="linearGradient13">
      <stop
         style="stop-opacity:1;stop-color:#e9e8e8"
         offset="0"
         id="stop12" />
      <stop
         style="stop-opacity:1;stop-color:#b1b0b0"
         offset="1"
         id="stop13" />
    </linearGradient>
    <clipPath
       clipPathUnits="userSpaceOnUse"
       id="clipPath13">
      <path
         d="m 723.117,317.48 c -28.383,0 -71.539,14.747 -88.808,27.958 -21.235,16.242 -19.082,40.027 -19.082,40.027 8.464,14.383 15.976,20.39 21.226,22.844 h 48.059 c 42.113,-12.957 70.547,-23.536 71,-48.661 0.504,-27.746 -3.664,-34.945 -15.707,-39.652 -4.461,-1.742 -10.188,-2.516 -16.688,-2.516"
         id="path13" />
    </clipPath>
  </defs>
  <sodipodi:namedview
     id="namedview1"
     pagecolor="#ffffff"
     bordercolor="#000000"
     borderopacity="0.25"
     inkscape:showpageshadow="2"
     inkscape:pageopacity="0.0"
     inkscape:pagecheckerboard="0"
     inkscape:deskcolor="#d1d1d1">
    <inkscape:page
       x="0"
       y="0"
       inkscape:label="1"
       id="page1"
       width="178.66667"
       height="127.92"
       margin="0"
       bleed="0" />
  </sodipodi:namedview>
  <g
     id="g1"
     inkscape:groupmode="layer"
     inkscape:label="1">
    <g
       id="group-R5">
      <g
         id="g4">
        <path
           d="m 0,0 v 409 h 637 v -1 h -1 v -1 h -1 v -1 h -2 v -1 h -1 v -1 h -1 v -1 h -2 v -1 h -1 v -1 h -1 v -1 h -1 v -2 h -1 v -1 h -1 v -1 h -1 v -1 h -1 v -1 h -1 v -2 h -1 v -1 h -1 v -2 h -1 v -1 h -1 v -2 h -1 v -10 h 1 v -5 h 1 v -2 h 1 v -3 h 1 v -2 h 1 v -2 h 1 v -2 h 1 v -2 h 1 v -1 h 1 v -1 h 1 v -2 h 1 v -1 h 1 v -1 h 1 v -1 h 1 v -1 h 1 v -1 h 1 v -1 h 1 v -1 h 1 v -1 h 1 v -1 h 2 v -1 h 1 v -1 h 2 v -1 h 2 v -1 h 1 v -1 h 2 v -1 h 2 v -1 h 2 v -1 h 2 v -1 h 2 v -1 h 2 v -1 h 3 v -1 h 2 v -1 h 3 v -1 h 2 v -1 h 3 v -1 h 3 v -1 h 3 v -1 h 3 v -1 h 3 v -1 h 4 v -1 h 3 v -1 h 4 v -1 h 5 v -1 h 4 v -1 h 7 v -1 h 7 v -1 h 17 v 1 h 5 v 1 h 3 v 1 h 3 v 1 h 2 v 1 h 1 v 1 h 2 v 1 h 1 v 1 h 1 v 2 h 1 v 1 h 1 v 2 h 1 v 3 h 1 v 3 h 1 v 6 h 1 v 21 h -1 v 4 h -1 v 2 h -1 v 2 h -1 v 2 h -1 v 2 h -1 v 1 h -1 v 1 h -1 v 1 h -1 v 1 h -1 v 1 h -1 v 1 h -1 v 1 h -1 v 1 h -2 v 1 h -1 v 1 h -2 v 1 h -1 v 1 h -2 v 1 h -2 v 1 h -2 v 1 h -2 v 1 h -2 v 1 h -2 v 1 h -2 v 1 h -2 v 1 h -3 v 1 h -2 v 1 h -3 v 1 h -3 v 1 h -3 v 1 h -2 v 1 h -3 v 1 h -3 v 1 h -3 v 1 h -4 v 1 h -3 v 1 h -3 v 1 h -1 v 1 h 656 V 0"
           style="fill:url(#linearGradient3);fill-opacity:1;fill-rule:nonzero;stroke:none"
           transform="matrix(0.13333333,0,0,-0.13333333,0,127.92)"
           clip-path="url(#clipPath3)"
           id="path4" />
      </g>
      <path
         id="path5"
         d="m 0,408.309 h 1340.04 v 5 H 0 Z"
         style="fill:#231f20;fill-opacity:1;fill-rule:nonzero;stroke:none"
         transform="matrix(0.13333333,0,0,-0.13333333,0,127.92)" />
      <path
         id="path6"
         d="M 298.313,857.676 C 293.762,781.543 252.566,736.871 184.18,733.512 161.555,824.148 118.938,887.996 86,933.914 c 2.0195,-1.055 3.9297,-2.234 6.0859,-3.387 57.0191,-31.906 115.8121,-64.914 206.2271,-72.851"
         style="fill:#cecdcd;fill-opacity:1;fill-rule:nonzero;stroke:none"
         transform="matrix(0.13333333,0,0,-0.13333333,0,127.92)" />
      <path
         id="path7"
         d="m 311.25,856.777 c -4.973,-81.406 -50.812,-131.593 -124.07,-136.203 2.5,-11.375 4.832,-23.047 6.633,-35.222 L 180.996,683.5 C 162.371,806.453 104.488,886.16 66.2188,938.906 l -7.8594,11.035 c 0,0 3.0976,1.329 5.1797,3.731 2.1015,2.379 3.1953,5.766 3.1953,5.766 C 77.418,953.59 87.9492,947.852 98.3906,941.934 165.992,904.051 229.746,868.152 343.73,868.832 l 0.086,-12.945 c -11.304,-0.106 -22.097,0.273 -32.566,0.89 z M 184.18,733.512 c 68.386,3.359 109.582,48.031 114.133,124.164 -90.415,7.937 -149.208,40.945 -206.2271,72.851 -2.1562,1.153 -4.0664,2.332 -6.0859,3.387 32.938,-45.918 75.555,-109.766 98.18,-200.402"
         style="fill:#231f20;fill-opacity:1;fill-rule:nonzero;stroke:none"
         transform="matrix(0.13333333,0,0,-0.13333333,0,127.92)" />
      <path
         id="path8"
         d="m 260.813,774.574 c -19.668,-20.511 -46.157,-26.988 -59.157,-14.515 -13.019,12.539 -7.59,39.254 12.074,59.707 19.688,20.504 46.18,26.972 59.18,14.492 13.02,-12.492 7.598,-39.231 -12.097,-59.684"
         style="fill:#ffffff;fill-opacity:1;fill-rule:nonzero;stroke:none"
         transform="matrix(0.13333333,0,0,-0.13333333,0,127.92)" />
      <path
         id="path9"
         d="m 253.027,774.082 c -8.797,-8.352 -21.742,-9.019 -28.906,-1.449 -7.187,7.543 -5.875,20.414 2.918,28.785 8.813,8.355 21.738,9.031 28.938,1.473 7.16,-7.551 5.839,-20.43 -2.95,-28.809"
         style="fill:#231f20;fill-opacity:1;fill-rule:nonzero;stroke:none"
         transform="matrix(0.13333333,0,0,-0.13333333,0,127.92)" />
      <path
         id="path10"
         d="m 668.004,414.41 -292.309,273.824 -5.129,-5.472 292.309,-273.824 5.129,5.472"
         style="fill:#231f20;fill-opacity:1;fill-rule:nonzero;stroke:none"
         transform="matrix(0.13333333,0,0,-0.13333333,0,127.92)" />
      <path
         id="path11"
         d="m 380.992,678.141 -5.187,-24.774 -0.871,0.153 -16.157,34.316 c -7.117,10.367 -14.23,20.734 -21.343,31.105 10.808,-6.425 21.621,-12.851 32.429,-19.273 l 35.297,-13.883 0.285,-0.769 -24.453,-6.875"
         style="fill:#231f20;fill-opacity:1;fill-rule:nonzero;stroke:none"
         transform="matrix(0.13333333,0,0,-0.13333333,0,127.92)" />
      <path
         id="path12"
         d="m 723.117,317.48 c -28.383,0 -71.539,14.747 -88.808,27.958 -21.235,16.242 -19.082,40.027 -19.082,40.027 8.464,14.383 15.976,20.39 21.226,22.844 h 48.059 c 42.113,-12.957 70.547,-23.536 71,-48.661 0.504,-27.746 -3.664,-34.945 -15.707,-39.652 -4.461,-1.742 -10.188,-2.516 -16.688,-2.516"
         style="fill:url(#linearGradient13);fill-opacity:1;fill-rule:nonzero;stroke:none"
         transform="matrix(0.13333333,0,0,-0.13333333,0,127.92)"
         clip-path="url(#clipPath13)" />
      <path
         id="path14"
         d="m 684.512,408.309 h -48.059 c 2.906,1.363 5.121,1.632 6.418,1.632 0.856,0 1.313,-0.117 1.313,-0.117 h 17.746 l 0.945,-0.886 0.832,0.886 h 15.863 c 1.664,-0.508 3.317,-1.015 4.942,-1.515"
         style="fill:#7b7979;fill-opacity:1;fill-rule:nonzero;stroke:none"
         transform="matrix(0.13333333,0,0,-0.13333333,0,127.92)" />
      <path
         id="path15"
         d="m 662.875,408.938 -0.945,0.886 h 1.777 l -0.832,-0.886"
         style="fill:#7b7979;fill-opacity:1;fill-rule:nonzero;stroke:none"
         transform="matrix(0.13333333,0,0,-0.13333333,0,127.92)" />
      <path
         id="path16"
         d="m 679.57,409.824 -0.73,-2.39 c 22.387,-6.825 41.152,-12.848 54.094,-20.215 12.988,-7.461 19.82,-15.672 20.078,-27.617 0.027,-1.454 0.043,-2.844 0.043,-4.184 0.011,-11.992 -1.121,-19.43 -3.356,-24.063 -2.234,-4.597 -5.363,-6.863 -10.804,-9.031 -4.02,-1.578 -9.477,-2.351 -15.778,-2.344 -27.558,-0.097 -70.824,14.719 -87.293,27.446 -16.765,12.801 -18.152,30.601 -18.16,36.164 l 0.027,1.265 0.024,0.383 -2.488,0.227 2.152,-1.27 c 12.976,21.926 22.918,23.211 25.492,23.246 l 0.652,-0.039 0.098,-0.015 0.192,0.968 -0.247,-0.953 0.055,-0.015 0.192,0.968 -0.247,-0.953 0.305,-0.078 h 35.699 v 2.5 l -0.73,-2.39 0.73,2.39 v 2.5 h -35.386 v -2.5 l 0.617,2.422 c -0.18,0.047 -0.848,0.195 -1.93,0.195 -4.711,0.032 -16.453,-2.925 -29.801,-25.711 l -0.285,-0.484 -0.051,-0.558 c -0.004,-0.067 -0.07,-0.813 -0.07,-2.098 -0.008,-6.274 1.574,-25.926 20.125,-40.137 18.07,-13.703 61.121,-28.379 90.328,-28.473 6.699,0.004 12.692,0.778 17.598,2.688 5.965,2.285 10.711,5.598 13.496,11.531 2.789,5.899 3.828,13.946 3.844,26.219 0,1.371 -0.016,2.797 -0.043,4.273 -0.211,14.153 -8.946,24.192 -22.606,31.875 -13.711,7.778 -32.679,13.797 -55.105,20.649 l -0.36,0.109 h -0.371 v -2.5"
         style="fill:#231f20;fill-opacity:1;fill-rule:nonzero;stroke:none"
         transform="matrix(0.13333333,0,0,-0.13333333,0,127.92)" />
      <path
         id="path17"
         d="m 957.117,411.621 c 0,-80.672 -32.687,-153.68 -85.551,-206.547 -52.867,-52.863 -125.875,-85.551 -206.546,-85.554 -80.672,0.003 -153.68,32.691 -206.547,85.554 -52.868,52.867 -85.559,125.875 -85.559,206.547 h -5 c 0.004,-164.086 133.02,-297.098 297.106,-297.101 164.085,0.003 297.097,133.015 297.097,297.101 h -5"
         style="fill:#231f20;fill-opacity:1;fill-rule:nonzero;stroke:none"
         transform="matrix(0.13333333,0,0,-0.13333333,0,127.92)" />
      <path
         id="path18"
         d="m 663.02,138.203 h 4 v 95.2773 h -4 z"
         style="fill:#231f20;fill-opacity:1;fill-rule:nonzero;stroke:none"
         transform="matrix(0.13333333,0,0,-0.13333333,0,127.92)" />
      <path
         id="path19"
         d="m 665.02,227.738 -11.528,-7.011 -0.265,0.39 7.472,18.805 c 1.442,6.547 2.879,13.101 4.321,19.648 1.441,-6.547 2.878,-13.101 4.32,-19.648 l 7.473,-18.805 -0.204,-0.39 -11.589,7.011"
         style="fill:#231f20;fill-opacity:1;fill-rule:nonzero;stroke:none"
         transform="matrix(0.13333333,0,0,-0.13333333,0,127.92)" />
      <path
         id="path20"
         d="m 741.59,148.941 -20.192,75.34 -3.863,-1.035 20.192,-75.34"
         style="fill:#231f20;fill-opacity:1;fill-rule:nonzero;stroke:none"
         transform="matrix(0.13333333,0,0,-0.13333333,0,127.92)" />
      <path
         id="path21"
         d="m 720.953,218.219 -9.32,-9.758 -0.356,0.312 2.344,20.094 c -0.301,6.699 -0.601,13.399 -0.906,20.098 3.086,-5.953 6.172,-11.91 9.262,-17.863 l 12.082,-16.223 -0.09,-0.43 -13.016,3.77"
         style="fill:#231f20;fill-opacity:1;fill-rule:nonzero;stroke:none"
         transform="matrix(0.13333333,0,0,-0.13333333,0,127.92)" />
      <path
         id="path22"
         d="m 808.895,178.297 -22.059,38.207 -3.465,-2 22.059,-38.211"
         style="fill:#231f20;fill-opacity:1;fill-rule:nonzero;stroke:none"
         transform="matrix(0.13333333,0,0,-0.13333333,0,127.92)" />
      <path
         id="path23"
         d="m 787.973,210.527 -6.473,-11.836 -0.426,0.211 -2.933,20.016 c -2.028,6.391 -4.055,12.785 -6.078,19.176 4.519,-4.949 9.042,-9.903 13.566,-14.852 l 15.863,-12.551 0.031,-0.437 -13.55,0.273"
         style="fill:#231f20;fill-opacity:1;fill-rule:nonzero;stroke:none"
         transform="matrix(0.13333333,0,0,-0.13333333,0,127.92)" />
      <path
         id="path24"
         d="m 865.711,224.742 -36.621,36.621 -2.828,-2.828 36.621,-36.621"
         style="fill:#231f20;fill-opacity:1;fill-rule:nonzero;stroke:none"
         transform="matrix(0.13333333,0,0,-0.13333333,0,127.92)" />
      <path
         id="path25"
         d="m 831.738,255.887 -3.191,-13.11 -0.465,0.094 -8.016,18.574 c -3.613,5.649 -7.222,11.305 -10.836,16.953 5.649,-3.613 11.297,-7.226 16.954,-10.839 l 18.574,-8.012 0.137,-0.418 -13.157,-3.242"
         style="fill:#231f20;fill-opacity:1;fill-rule:nonzero;stroke:none"
         transform="matrix(0.13333333,0,0,-0.13333333,0,127.92)" />
      <path
         id="path26"
         d="m 905.043,277.344 -60.473,34.914 -2,-3.461 60.473,-34.918"
         style="fill:#231f20;fill-opacity:1;fill-rule:nonzero;stroke:none"
         transform="matrix(0.13333333,0,0,-0.13333333,0,127.92)" />
      <path
         id="path27"
         d="m 848.547,307.656 0.301,-13.492 -0.469,-0.027 -12.551,15.867 c -4.949,4.523 -9.898,9.043 -14.851,13.57 6.39,-2.027 12.785,-4.058 19.179,-6.086 l 20.016,-2.929 0.238,-0.371 -11.863,-6.532"
         style="fill:#231f20;fill-opacity:1;fill-rule:nonzero;stroke:none"
         transform="matrix(0.13333333,0,0,-0.13333333,0,127.92)" />
      <path
         id="path28"
         d="m 927.688,334.566 -48.786,13.075 -1.035,-3.864 48.781,-13.074"
         style="fill:#231f20;fill-opacity:1;fill-rule:nonzero;stroke:none"
         transform="matrix(0.13333333,0,0,-0.13333333,0,127.92)" />
      <path
         id="path29"
         d="m 883.93,344.223 3.789,-12.953 -0.449,-0.153 -16.223,12.082 c -5.953,3.086 -11.91,6.172 -17.863,9.262 6.699,-0.305 13.398,-0.606 20.097,-0.91 l 20.094,2.344 0.332,-0.286 -9.777,-9.386"
         style="fill:#231f20;fill-opacity:1;fill-rule:nonzero;stroke:none"
         transform="matrix(0.13333333,0,0,-0.13333333,0,127.92)" />
      <path
         id="path30"
         d="m 916.266,393.254 h 24.7813 v 4 H 916.266 Z"
         style="fill:#231f20;fill-opacity:1;fill-rule:nonzero;stroke:none"
         transform="matrix(0.13333333,0,0,-0.13333333,0,127.92)" />
      <path
         id="path31"
         d="m 922.008,395.254 7.012,-11.527 -0.391,-0.266 -18.805,7.473 c -6.547,1.437 -13.101,2.879 -19.648,4.32 6.547,1.441 13.101,2.879 19.648,4.32 l 18.805,7.473 0.391,-0.203 -7.012,-11.59"
         style="fill:#231f20;fill-opacity:1;fill-rule:nonzero;stroke:none"
         transform="matrix(0.13333333,0,0,-0.13333333,0,127.92)" />
      <path
         id="path32"
         d="m 592.313,147.906 17.175,64.121 -3.859,1.036 -17.18,-64.122"
         style="fill:#231f20;fill-opacity:1;fill-rule:nonzero;stroke:none"
         transform="matrix(0.13333333,0,0,-0.13333333,0,127.92)" />
      <path
         id="path33"
         d="m 606.074,206.996 -12.953,-3.789 -0.148,0.449 12.078,16.227 c 3.086,5.953 6.176,11.91 9.262,17.859 -0.305,-6.699 -0.606,-13.398 -0.911,-20.097 l 2.352,-20.09 -0.293,-0.332 -9.387,9.773"
         style="fill:#231f20;fill-opacity:1;fill-rule:nonzero;stroke:none"
         transform="matrix(0.13333333,0,0,-0.13333333,0,127.92)" />
      <path
         id="path34"
         d="m 524.602,176.293 28.605,49.543 -3.465,2 -28.601,-49.539"
         style="fill:#231f20;fill-opacity:1;fill-rule:nonzero;stroke:none"
         transform="matrix(0.13333333,0,0,-0.13333333,0,127.92)" />
      <path
         id="path35"
         d="m 548.605,221.859 -13.492,-0.308 -0.031,0.476 15.871,12.547 c 4.52,4.953 9.043,9.903 13.567,14.856 -2.024,-6.395 -4.055,-12.785 -6.082,-19.18 l -2.93,-20.016 -0.371,-0.246 -6.532,11.871"
         style="fill:#231f20;fill-opacity:1;fill-rule:nonzero;stroke:none"
         transform="matrix(0.13333333,0,0,-0.13333333,0,127.92)" />
      <path
         id="path36"
         d="m 467.156,221.914 54.024,54.024 -2.828,2.828 -54.024,-54.024"
         style="fill:#231f20;fill-opacity:1;fill-rule:nonzero;stroke:none"
         transform="matrix(0.13333333,0,0,-0.13333333,0,127.92)" />
      <path
         id="path37"
         d="m 515.703,273.293 -13.109,3.195 0.094,0.461 18.574,8.012 c 5.648,3.613 11.301,7.227 16.953,10.84 -3.613,-5.649 -7.231,-11.301 -10.844,-16.953 l -8.012,-18.575 -0.414,-0.136 -3.242,13.156"
         style="fill:#231f20;fill-opacity:1;fill-rule:nonzero;stroke:none"
         transform="matrix(0.13333333,0,0,-0.13333333,0,127.92)" />
      <path
         id="path38"
         d="m 426.992,273.879 82.625,47.711 -2,3.461 -82.625,-47.707"
         style="fill:#231f20;fill-opacity:1;fill-rule:nonzero;stroke:none"
         transform="matrix(0.13333333,0,0,-0.13333333,0,127.92)" />
      <path
         id="path39"
         d="m 503.648,320.449 -11.839,6.481 0.207,0.418 20.015,2.933 c 6.391,2.032 12.789,4.059 19.18,6.086 -4.949,-4.523 -9.902,-9.047 -14.856,-13.57 l -12.546,-15.867 -0.442,-0.028 0.281,13.547"
         style="fill:#231f20;fill-opacity:1;fill-rule:nonzero;stroke:none"
         transform="matrix(0.13333333,0,0,-0.13333333,0,127.92)" />
      <path
         id="path40"
         d="m 403.391,330.703 48.312,12.945 -1.035,3.864 -48.313,-12.946"
         style="fill:#231f20;fill-opacity:1;fill-rule:nonzero;stroke:none"
         transform="matrix(0.13333333,0,0,-0.13333333,0,127.92)" />
      <path
         id="path41"
         d="m 445.641,344.09 -9.758,9.324 0.312,0.356 20.094,-2.348 c 6.699,0.301 13.399,0.605 20.098,0.906 -5.953,-3.086 -11.91,-6.172 -17.864,-9.262 l -16.226,-12.074 -0.434,0.086 3.778,13.012"
         style="fill:#231f20;fill-opacity:1;fill-rule:nonzero;stroke:none"
         transform="matrix(0.13333333,0,0,-0.13333333,0,127.92)" />
      <path
         id="path42"
         d="m 388.984,393.254 h 46.3281 v 4 H 388.984 Z"
         style="fill:#231f20;fill-opacity:1;fill-rule:nonzero;stroke:none"
         transform="matrix(0.13333333,0,0,-0.13333333,0,127.92)" />
      <path
         id="path43"
         d="m 429.57,395.254 -7.011,11.527 0.39,0.266 18.805,-7.473 c 6.547,-1.441 13.101,-2.879 19.648,-4.32 -6.547,-1.441 -13.101,-2.883 -19.648,-4.32 l -18.805,-7.473 -0.39,0.199 7.011,11.594"
         style="fill:#231f20;fill-opacity:1;fill-rule:nonzero;stroke:none"
         transform="matrix(0.13333333,0,0,-0.13333333,0,127.92)" />
    </g>
  </g>
</svg>
