<?xml version="1.0" encoding="UTF-8" standalone="no"?>
<!-- Created with Inkscape (http://www.inkscape.org/) -->

<svg
   version="1.1"
   id="svg1"
   width="171.77333"
   height="139.38667"
   viewBox="0 0 171.77333 139.38667"
   sodipodi:docname="pha14f15.eps"
   xmlns:inkscape="http://www.inkscape.org/namespaces/inkscape"
   xmlns:sodipodi="http://sodipodi.sourceforge.net/DTD/sodipodi-0.dtd"
   xmlns="http://www.w3.org/2000/svg"
   xmlns:svg="http://www.w3.org/2000/svg">
  <defs
     id="defs1">
    <linearGradient
       x1="0"
       y1="0"
       x2="1"
       y2="0"
       gradientUnits="userSpaceOnUse"
       gradientTransform="matrix(-1.66e-5,-380.62,-380.62,1.66e-5,644.155,381.988)"
       spreadMethod="pad"
       id="linearGradient4">
      <stop
         style="stop-opacity:1;stop-color:#ffffff"
         offset="0"
         id="stop2" />
      <stop
         style="stop-opacity:1;stop-color:#918f8f"
         offset="0.6769"
         id="stop3" />
      <stop
         style="stop-opacity:1;stop-color:#918f8f"
         offset="1"
         id="stop4" />
    </linearGradient>
    <clipPath
       clipPathUnits="userSpaceOnUse"
       id="clipPath4">
      <path
         d="M 0,1 H 1288 V 380 H 0 Z"
         transform="translate(0,2.5000001e-5)"
         id="path4" />
    </clipPath>
  </defs>
  <sodipodi:namedview
     id="namedview1"
     pagecolor="#ffffff"
     bordercolor="#000000"
     borderopacity="0.25"
     inkscape:showpageshadow="2"
     inkscape:pageopacity="0.0"
     inkscape:pagecheckerboard="0"
     inkscape:deskcolor="#d1d1d1">
    <inkscape:page
       x="0"
       y="0"
       inkscape:label="1"
       id="page1"
       width="171.77333"
       height="139.38667"
       margin="0"
       bleed="0" />
  </sodipodi:namedview>
  <g
     id="g1"
     inkscape:groupmode="layer"
     inkscape:label="1">
    <g
       id="group-R5">
      <path
         id="path2"
         d="M 0,1 H 1288 V 380 H 0 Z"
         style="fill:url(#linearGradient4);fill-opacity:1;fill-rule:nonzero;stroke:none"
         transform="matrix(0.13333333,0,0,-0.13333333,0,139.38667)"
         clip-path="url(#clipPath4)" />
      <g
         id="g4"
         aria-label="f(ω&#10;o&#10;, ω&#10;i&#10;)&#10;L&#10;i&#10;(ω&#10;i&#10;)"
         transform="matrix(1.3333333,0,0,1.3333333,17.845333,46.103867)">
        <path
           id="path5"
           d="m 0.71365625,-3.9011422 -0.26953125,0.2578125 0.0234375,0.09375 h 0.75 C 1.0652187,-2.6589547 0.94803125,-1.9089547 0.725375,-0.66676719 0.43240625,1.0793266 0.20975,1.4543266 0.0925625,1.5949516 c -0.08203125,0.1054687 -0.234375,0.1757812 -0.38671875,0.1757812 -0.15234375,0 -0.421875,-0.082031 -0.5625,-0.2226562 -0.0585938,-0.058594 -0.09375,-0.058594 -0.17578125,0 -0.1289063,0.1054687 -0.234375,0.2578125 -0.234375,0.375 -0.011719,0.2109375 0.29296875,0.3867187 0.55078125,0.3867187 0.24609375,0 0.62109375,-0.140625 1.01953125,-0.5625 C 0.7956875,1.2316703 1.1355312,0.56370156 1.4519375,-0.98317344 1.6511562,-1.9909859 1.7449062,-2.5417672 1.9089687,-3.5261422 l 0.9023438,-0.09375 0.1875,-0.28125 H 1.9792812 c 0.2695313,-1.6640625 0.5390625,-2.0742187 0.8671875,-2.0742187 0.1992188,0 0.3867188,0.1171875 0.5742188,0.3164062 0.058594,0.070312 0.1523437,0.058594 0.2226562,0.011719 0.09375,-0.070312 0.2226563,-0.234375 0.2226563,-0.375 0.011719,-0.1640625 -0.2226563,-0.3867188 -0.5390625,-0.3867188 -0.3632813,0 -0.8671875,0.2578125 -1.2890625,0.7265625 -0.3984375,0.4453125 -0.6210938,1.1015625 -0.75,1.78125 z m 0,0"
           style="fill:#231f20;fill-opacity:1;fill-rule:nonzero;stroke:none" />
        <path
           id="path6"
           d="m 6.2126797,1.3254203 c -0.890625,-0.76171874 -1.40625,-2.20312499 -1.40625,-3.75 0,-1.546875 0.515625,-3 1.40625,-3.75 L 6.0603359,-6.3855172 c -1.3242187,0.9023438 -1.9101562,2.3320313 -1.9101562,3.9492188 0,1.62890621 0.5859375,3.08203121 1.9101562,3.9609375 z m 0,0"
           style="fill:#231f20;fill-opacity:1;fill-rule:nonzero;stroke:none" />
        <path
           id="path7"
           d="m 10.991,-3.8425484 c 0.292969,0.2578125 0.503906,0.7148437 0.503906,1.3828125 -0.01172,1.0078125 -0.398437,2.05078121 -1.136718,2.05078121 -0.304688,0 -0.5156255,-0.3046875 -0.492188,-0.87890621 0.023437,-0.46875 0.234375,-1.359375 0.351563,-1.7226563 l -0.05859,-0.035156 -0.667969,0.140625 c -0.035156,0.28125 -0.09375,0.75 -0.1875,1.1367187 -0.1992187,0.85546876 -0.5625,1.31250001 -0.9492187,1.31250001 -0.28125,0 -0.5390626,-0.33984375 -0.5390626,-0.99609371 0,-1.0078125 0.4687501,-1.921875 1.1601563,-2.4492188 L 8.83475,-4.1003609 c -1.0429688,0.5390625 -1.7578125,1.5585937 -1.7578125,2.765625 0,0.93749996 0.421875,1.44140621 0.9375,1.44140621 0.3867188,0 0.9023438,-0.3984375 1.2304688,-0.890625 0.046875,0.50390625 0.328125,0.890625 0.7617187,0.890625 0.375,0 0.738281,-0.22265625 1.066406,-0.515625 0.5625,-0.52734375 0.996094,-1.30078121 0.996094,-2.21484371 0,-0.9023438 -0.398437,-1.4179688 -0.691406,-1.4179688 -0.152344,0 -0.316406,0.070312 -0.375,0.1289063 z m 0,0"
           style="fill:#231f20;fill-opacity:1;fill-rule:nonzero;stroke:none" />
        <path
           id="path8"
           d="m 14.503695,-2.0437203 c -0.820312,0 -1.980468,0.6796875 -1.980468,2.15624999 0,1.00781251 0.738281,1.99218751 1.980468,1.99218751 0.890625,0 1.945313,-0.6914063 1.945313,-2.14453126 0,-1.11328124 -0.832031,-2.00390624 -1.945313,-2.00390624 z m -0.09375,0.3046875 c 0.785157,0 1.207032,0.84374999 1.207032,1.89843749 0,1.24218751 -0.457032,1.65234371 -1.019532,1.65234371 -0.738281,0 -1.230468,-0.84374996 -1.230468,-1.98046871 0,-1.01953129 0.480468,-1.57031249 1.042968,-1.57031249 z m 1.6875,0.5800781 c -0.210937,0 -0.433593,0.140625 -0.433593,0.36328126 0,0.15234375 0.07031,0.22265625 0.117187,0.234375 0.304688,0.0703125 0.5625,0.26953125 0.5625,0.59765625 0,0.33984375 -0.257812,0.57421875 -0.691406,0.76171875 l 0.09375,0.25781254 c 0.550781,-0.16406254 1.183594,-0.55078129 1.183594,-1.24218754 0,-0.6328125 -0.503907,-0.97265626 -0.832032,-0.97265626 z m 0,0"
           style="fill:#231f20;fill-opacity:1;fill-rule:nonzero;stroke:none" />
        <path
           id="path9"
           d="m 23.708773,-3.8425484 c 0.292969,0.2578125 0.503907,0.7148437 0.503907,1.3828125 -0.01172,1.0078125 -0.398438,2.05078121 -1.136719,2.05078121 -0.304688,0 -0.515625,-0.3046875 -0.492188,-0.87890621 0.02344,-0.46875 0.234375,-1.359375 0.351563,-1.7226563 l -0.05859,-0.035156 -0.667969,0.140625 c -0.03516,0.28125 -0.09375,0.75 -0.1875,1.1367187 -0.199218,0.85546876 -0.5625,1.31250001 -0.949218,1.31250001 -0.28125,0 -0.539063,-0.33984375 -0.539063,-0.99609371 0,-1.0078125 0.46875,-1.921875 1.160156,-2.4492188 l -0.140625,-0.1992187 c -1.042968,0.5390625 -1.757812,1.5585937 -1.757812,2.765625 0,0.93749996 0.421875,1.44140621 0.9375,1.44140621 0.386719,0 0.902344,-0.3984375 1.230469,-0.890625 0.04687,0.50390625 0.328125,0.890625 0.761718,0.890625 0.375,0 0.738282,-0.22265625 1.066407,-0.515625 0.5625,-0.52734375 0.996093,-1.30078121 0.996093,-2.21484371 0,-0.9023438 -0.398437,-1.4179688 -0.691406,-1.4179688 -0.152344,0 -0.316406,0.070312 -0.375,0.1289063 z m 0,0"
           style="fill:#231f20;fill-opacity:1;fill-rule:nonzero;stroke:none" />
        <path
           id="path10"
           d="m 26.128695,-2.8288766 c 0.257813,0 0.457032,-0.2109375 0.457032,-0.4570312 0,-0.2695313 -0.199219,-0.46875 -0.457032,-0.46875 -0.234375,0 -0.457031,0.1992187 -0.457031,0.46875 0,0.2460937 0.222656,0.4570312 0.457031,0.4570312 z m 1.054688,4.828125 V 1.7648734 C 26.597445,1.7062797 26.538852,1.6594047 26.538852,1.0500297 v -3.1054688 c -0.398438,0.1523438 -0.820313,0.2695313 -1.277344,0.3515625 v 0.2109375 c 0.539062,0.09375 0.5625,0.1289063 0.5625,0.67968754 V 1.0500297 c 0,0.609375 -0.05859,0.65625 -0.621094,0.7148437 v 0.234375 z M 26.9285,-6.1745797 c 0.890625,0.7382813 1.417969,2.203125 1.417969,3.75 0,1.54687501 -0.503907,2.98828126 -1.417969,3.75 l 0.164062,0.1992188 C 28.440219,0.61057656 28.991,-0.80739219 28.991,-2.4245797 c 0,-1.6289062 -0.550781,-3.0585937 -1.898438,-3.9609375 z m 0,0"
           style="fill:#231f20;fill-opacity:1;fill-rule:nonzero;stroke:none" />
        <path
           id="path11"
           d="m 83.591586,2.500225 c -0.234375,0.4453125 -0.433594,0.7148438 -0.632813,0.9140625 -0.222656,0.2226563 -0.527343,0.2695313 -1.054687,0.2695313 -0.398438,0 -0.679688,-0.011719 -0.808594,-0.1171875 C 80.954867,3.4611625 80.93143,3.250225 81.001742,2.9221 l 0.703125,-3.7265625 c 0.128906,-0.6796875 0.164063,-0.7382812 0.878906,-0.796875 l 0.05859,-0.234375 h -2.25 l -0.05859,0.234375 c 0.738282,0.070312 0.785157,0.1054688 0.644532,0.796875 l -0.738282,3.7617188 c -0.140625,0.6796875 -0.199218,0.75 -0.890625,0.796875 l -0.05859,0.2460937 h 3.972656 c 0.140625,-0.28125 0.46875,-1.1015625 0.574219,-1.40625 z m 0,0"
           style="fill:#231f20;fill-opacity:1;fill-rule:nonzero;stroke:none" />
        <path
           id="path12"
           d="m 85.23807,1.1730766 c 0.257813,0 0.457032,-0.21093754 0.457032,-0.45703129 0,-0.26953125 -0.199219,-0.46875 -0.457032,-0.46875 -0.234375,0 -0.457031,0.19921875 -0.457031,0.46875 0,0.24609375 0.222656,0.45703129 0.457031,0.45703129 z m 1.054688,4.828125 V 5.7668266 C 85.70682,5.7082328 85.648227,5.6613578 85.648227,5.0519828 V 1.9465141 c -0.398438,0.1523437 -0.820313,0.2695312 -1.277344,0.3515625 v 0.2109375 c 0.539062,0.09375 0.5625,0.1289062 0.5625,0.6796875 v 1.8632812 c 0,0.609375 -0.05859,0.65625 -0.621094,0.7148438 v 0.234375 z m 2.030273,-0.6767578 c -0.890625,-0.7617188 -1.40625,-2.203125 -1.40625,-3.75 0,-1.54687505 0.515625,-3 1.40625,-3.75 l -0.152344,-0.2109375 c -1.324218,0.9023437 -1.910156,2.3320312 -1.910156,3.9492187 0,1.6289063 0.585938,3.0820313 1.910156,3.9609375 z m 0,0"
           style="fill:#231f20;fill-opacity:1;fill-rule:nonzero;stroke:none" />
        <path
           id="path13"
           d="m 93.101352,0.156475 c 0.292968,0.2578125 0.503906,0.71484375 0.503906,1.3828125 -0.01172,1.0078125 -0.398438,2.0507813 -1.136719,2.0507813 -0.304687,0 -0.515625,-0.3046875 -0.492187,-0.8789063 0.02344,-0.46875 0.234375,-1.359375 0.351562,-1.72265625 L 92.26932,0.95335 91.601352,1.093975 c -0.03516,0.28125 -0.09375,0.75 -0.1875,1.1367188 -0.199219,0.8554687 -0.5625,1.3125 -0.949219,1.3125 -0.28125,0 -0.539063,-0.3398438 -0.539063,-0.9960938 0,-1.0078125 0.46875,-1.921875 1.160157,-2.44921875 L 90.945102,-0.1013375 c -1.042969,0.5390625 -1.757813,1.5585938 -1.757813,2.765625 0,0.9375 0.421875,1.4414063 0.9375,1.4414063 0.386719,0 0.902344,-0.3984375 1.230469,-0.890625 0.04687,0.5039062 0.328125,0.890625 0.761719,0.890625 0.375,0 0.738281,-0.2226563 1.066406,-0.515625 0.5625,-0.5273438 0.996094,-1.3007813 0.996094,-2.2148438 0,-0.90234375 -0.398438,-1.41796875 -0.691407,-1.41796875 -0.152343,0 -0.316406,0.0703125 -0.375,0.12890625 z m 0,0"
           style="fill:#231f20;fill-opacity:1;fill-rule:nonzero;stroke:none" />
        <path
           id="path14"
           d="m 95.521273,1.1730766 c 0.257813,0 0.457032,-0.21093754 0.457032,-0.45703129 0,-0.26953125 -0.199219,-0.46875 -0.457032,-0.46875 -0.234375,0 -0.457031,0.19921875 -0.457031,0.46875 0,0.24609375 0.222656,0.45703129 0.457031,0.45703129 z m 1.054688,4.828125 V 5.7668266 C 95.990023,5.7082328 95.93143,5.6613578 95.93143,5.0519828 V 1.9465141 c -0.398438,0.1523437 -0.820313,0.2695312 -1.277344,0.3515625 v 0.2109375 c 0.539062,0.09375 0.5625,0.1289062 0.5625,0.6796875 v 1.8632812 c 0,0.609375 -0.05859,0.65625 -0.621094,0.7148438 v 0.234375 z m -0.254883,-8.1767578 c 0.890625,0.7382812 1.417969,2.20312495 1.417969,3.75 0,1.546875 -0.503906,2.9882812 -1.417969,3.75 l 0.164063,0.1992187 C 97.832797,4.6096 98.383578,3.1916313 98.383578,1.5744438 c 0,-1.6289063 -0.550781,-3.0585938 -1.898437,-3.9609375 z m 0,0"
           style="fill:#231f20;fill-opacity:1;fill-rule:nonzero;stroke:none" />
      </g>
      <path
         id="path15"
         d="M 0,0 H 1288.32 V 5 H 0 Z"
         style="fill:#231f20;fill-opacity:1;fill-rule:nonzero;stroke:none"
         transform="matrix(0.13333333,0,0,-0.13333333,0,139.38667)" />
      <path
         id="path16"
         d="m 0,379.488 h 1288.32 v 5 H 0 Z"
         style="fill:#231f20;fill-opacity:1;fill-rule:nonzero;stroke:none"
         transform="matrix(0.13333333,0,0,-0.13333333,0,139.38667)" />
      <path
         id="path17"
         d="m 1025.13,1042.94 9.7,-37.64 17.32,34.8 1.66,-38.83 24.18,30.44 -6.45,-38.331 29.97,24.751 -14.27,-36.161 34.47,17.972 -21.49,-32.39 37.46,10.414 -27.75,-27.223 38.8,2.403 -32.8,-20.86 38.45,-5.719 -36.42,-13.582 36.42,-13.586 -38.45,-5.714 32.8,-20.86 -38.8,2.403 27.75,-27.227 -37.46,10.418 21.49,-32.391 -34.47,17.969 14.27,-36.152 -29.97,24.746 6.45,-38.332 -24.18,30.441 -1.66,-38.84 -17.32,34.805 -9.7,-37.641 -9.7,37.641 -17.325,-34.805 -1.66,38.84 -24.179,-30.441 6.449,38.332 -29.977,-24.746 14.274,36.152 -34.465,-17.969 21.48,32.391 -37.449,-10.418 27.742,27.227 -38.793,-2.403 32.797,20.86 -38.445,5.714 36.422,13.586 -36.422,13.582 38.445,5.719 -32.797,20.86 38.793,-2.403 -27.742,27.223 37.449,-10.414 -21.48,32.39 34.465,-17.972 -14.274,36.161 29.977,-24.751 -6.449,38.331 24.179,-30.44 1.66,38.83 17.325,-34.8 9.7,37.64"
         style="fill:#fddd1b;fill-opacity:1;fill-rule:nonzero;stroke:none"
         transform="matrix(0.13333333,0,0,-0.13333333,0,139.38667)" />
      <path
         id="path18"
         d="m 1025.13,1042.94 -2.42,-0.62 9.7,-37.64 c 0.26,-1.01 1.13,-1.75 2.16,-1.86 1.04,-0.11 2.04,0.44 2.5,1.37 l 13,26.11 1.25,-29.14 c 0.04,-1.04 0.73,-1.945 1.72,-2.269 0.99,-0.321 2.08,0.007 2.73,0.824 l 18.14,22.845 -4.83,-28.767 c -0.18,-1.027 0.31,-2.059 1.21,-2.578 0.91,-0.52 2.04,-0.426 2.84,0.238 l 22.5,18.567 -10.71,-27.133 c -0.39,-0.969 -0.13,-2.078 0.65,-2.778 0.77,-0.695 1.9,-0.839 2.83,-0.359 l 25.86,13.492 -16.12,-24.312 0.06,-2.852 c 0.61,-0.84 1.69,-1.215 2.69,-0.937 l 28.11,7.816 -20.82,-20.43 c -0.74,-0.73 -0.96,-1.851 -0.53,-2.8 0.42,-0.954 1.4,-1.543 2.44,-1.481 l 29.12,1.805 -24.62,-15.656 c -0.88,-0.559 -1.32,-1.61 -1.11,-2.629 0.22,-1.02 1.05,-1.801 2.08,-1.953 l 28.86,-4.293 -27.33,-10.196 c -0.98,-0.363 -1.63,-1.297 -1.63,-2.34 0,-1.043 0.65,-1.976 1.63,-2.343 l 27.33,-10.196 -28.86,-4.289 c -1.03,-0.152 -1.86,-0.933 -2.08,-1.953 -0.21,-1.019 0.23,-2.07 1.11,-2.629 l 24.61,-15.656 -29.11,1.801 c -1.04,0.066 -2.02,-0.524 -2.44,-1.477 -0.43,-0.953 -0.21,-2.07 0.53,-2.801 l 20.82,-20.433 -28.11,7.82 c -1,0.277 -2.08,-0.098 -2.69,-0.941 l -0.06,-2.852 16.13,-24.308 -25.87,13.484 c -0.93,0.48 -2.06,0.34 -2.83,-0.359 -0.78,-0.696 -1.04,-1.805 -0.65,-2.774 l 10.71,-27.133 -22.5,18.571 c -0.8,0.664 -1.93,0.757 -2.84,0.238 -0.9,-0.52 -1.39,-1.555 -1.21,-2.578 l 4.83,-28.77 -18.14,22.848 c -0.65,0.812 -1.74,1.144 -2.73,0.82 -0.99,-0.32 -1.68,-1.226 -1.72,-2.269 l -1.25,-29.149 -13,26.121 c -0.46,0.934 -1.46,1.485 -2.5,1.375 -1.03,-0.109 -1.9,-0.855 -2.16,-1.863 l -7.28,-28.25 -7.28,28.25 c -0.26,1.008 -1.12,1.754 -2.16,1.863 -1.03,0.11 -2.03,-0.441 -2.5,-1.375 l -13,-26.121 -1.249,29.149 c -0.043,1.039 -0.73,1.949 -1.722,2.269 -0.992,0.324 -2.082,-0.004 -2.731,-0.82 l -18.148,-22.848 4.84,28.77 c 0.175,1.023 -0.313,2.054 -1.215,2.578 -0.902,0.519 -2.039,0.426 -2.84,-0.238 l -22.5,-18.575 10.715,27.137 c 0.379,0.969 0.121,2.078 -0.652,2.774 -0.778,0.699 -1.907,0.839 -2.833,0.359 l -25.867,-13.484 16.125,24.308 -0.062,2.852 c -0.61,0.843 -1.688,1.218 -2.692,0.941 l -28.109,-7.82 20.824,20.433 c 0.742,0.731 0.957,1.848 0.531,2.801 -0.421,0.953 -1.398,1.543 -2.437,1.477 l -29.117,-1.801 24.617,15.656 c 0.879,0.559 1.32,1.61 1.105,2.629 -0.218,1.02 -1.05,1.801 -2.078,1.953 l -28.855,4.289 27.332,10.196 c 0.976,0.367 1.629,1.3 1.629,2.343 0,1.043 -0.653,1.977 -1.629,2.34 l -27.332,10.199 28.855,4.29 c 1.028,0.152 1.86,0.933 2.078,1.953 0.215,1.019 -0.226,2.07 -1.105,2.629 l -24.617,15.656 29.117,-1.805 c 1.039,-0.062 2.016,0.527 2.437,1.481 0.426,0.949 0.211,2.07 -0.531,2.8 l -20.824,20.43 28.109,-7.816 c 1.004,-0.278 2.082,0.097 2.692,0.937 l 0.062,2.852 -16.125,24.312 25.867,-13.492 c 0.926,-0.48 2.055,-0.336 2.833,0.359 0.773,0.7 1.035,1.809 0.652,2.778 l -10.715,27.133 22.5,-18.567 c 0.801,-0.664 1.938,-0.758 2.84,-0.238 0.902,0.519 1.39,1.551 1.215,2.578 l -4.84,28.767 18.148,-22.845 c 0.649,-0.817 1.739,-1.145 2.731,-0.824 0.992,0.324 1.679,1.229 1.722,2.269 l 1.249,29.15 13,-26.12 c 0.47,-0.93 1.47,-1.48 2.5,-1.37 1.04,0.11 1.9,0.85 2.16,1.86 l 9.7,37.64 -2.42,0.62 -2.42,-0.62 2.42,0.62 -2.42,0.62 -8.03,-31.14 -14.34,28.8 c -0.504,1.02 -1.641,1.57 -2.754,1.33 -1.117,-0.24 -1.93,-1.2 -1.977,-2.34 l -1.375,-32.14 -20.011,25.2 c -0.707,0.89 -1.934,1.19 -2.973,0.72 -1.043,-0.46 -1.641,-1.57 -1.449,-2.7 l 5.336,-31.716 -24.805,20.476 c -0.879,0.73 -2.141,0.77 -3.062,0.1 -0.922,-0.67 -1.274,-1.88 -0.856,-2.94 l 11.813,-29.925 -28.528,14.875 c -1.008,0.53 -2.25,0.3 -3.011,-0.55 -0.762,-0.84 -0.856,-2.098 -0.227,-3.051 l 17.781,-26.805 -30.996,8.617 c -1.098,0.309 -2.262,-0.168 -2.832,-1.156 -0.57,-0.988 -0.402,-2.238 0.414,-3.035 l 22.957,-22.528 -32.101,1.989 c -1.137,0.07 -2.18,-0.641 -2.532,-1.723 -0.355,-1.086 0.075,-2.27 1.036,-2.883 l 27.14,-17.262 -31.816,-4.734 c -1.129,-0.168 -2,-1.074 -2.117,-2.211 -0.122,-1.133 0.543,-2.203 1.609,-2.601 l 30.141,-11.243 -30.141,-11.242 c -1.066,-0.398 -1.731,-1.469 -1.609,-2.601 0.117,-1.137 0.988,-2.047 2.117,-2.215 l 31.816,-4.731 -27.14,-17.261 c -0.961,-0.614 -1.391,-1.801 -1.036,-2.883 0.352,-1.086 1.395,-1.793 2.532,-1.723 l 32.105,1.988 -22.961,-22.535 c -0.816,-0.797 -0.984,-2.047 -0.414,-3.035 0.57,-0.984 1.734,-1.461 2.832,-1.156 l 30.992,8.625 -17.777,-26.809 c -0.629,-0.949 -0.535,-2.207 0.227,-3.054 0.761,-0.844 2.003,-1.071 3.011,-0.543 l 28.528,14.871 -11.813,-29.918 c -0.418,-1.063 -0.066,-2.274 0.856,-2.942 0.921,-0.672 2.183,-0.632 3.062,0.094 l 24.805,20.481 -5.336,-31.723 c -0.192,-1.121 0.406,-2.234 1.449,-2.695 1.039,-0.465 2.266,-0.164 2.973,0.726 l 20.011,25.192 1.375,-32.141 c 0.047,-1.141 0.86,-2.102 1.977,-2.34 1.113,-0.238 2.25,0.313 2.754,1.332 l 14.34,28.805 8.03,-31.153 c 0.28,-1.101 1.28,-1.875 2.42,-1.875 1.14,0 2.13,0.774 2.42,1.875 l 8.03,31.153 14.33,-28.805 c 0.51,-1.019 1.64,-1.566 2.76,-1.332 1.11,0.238 1.93,1.199 1.98,2.34 l 1.37,32.141 20.01,-25.192 c 0.71,-0.89 1.93,-1.191 2.98,-0.726 1.04,0.461 1.63,1.574 1.44,2.695 l -5.33,31.723 24.8,-20.481 c 0.88,-0.726 2.14,-0.766 3.06,-0.094 0.93,0.668 1.28,1.879 0.86,2.942 l -11.81,29.918 28.52,-14.871 c 1.01,-0.528 2.25,-0.301 3.02,0.543 0.76,0.847 0.85,2.105 0.22,3.054 l -17.78,26.809 31,-8.625 c 1.09,-0.305 2.26,0.172 2.83,1.156 0.57,0.988 0.4,2.238 -0.41,3.035 l -22.96,22.535 32.11,-1.988 c 1.13,-0.07 2.18,0.637 2.53,1.723 0.35,1.086 -0.08,2.269 -1.04,2.883 l -27.15,17.261 31.82,4.731 c 1.13,0.168 2,1.078 2.12,2.215 0.12,1.132 -0.54,2.203 -1.61,2.601 l -30.14,11.242 30.14,11.243 c 1.07,0.398 1.73,1.468 1.61,2.601 -0.12,1.137 -0.99,2.043 -2.12,2.211 l -31.82,4.734 27.15,17.262 c 0.96,0.613 1.39,1.797 1.04,2.883 -0.35,1.082 -1.4,1.793 -2.53,1.723 l -32.11,-1.989 22.96,22.528 c 0.81,0.797 0.98,2.047 0.41,3.035 -0.57,0.988 -1.74,1.465 -2.83,1.156 l -31,-8.617 17.78,26.805 c 0.63,0.953 0.54,2.211 -0.22,3.051 -0.77,0.85 -2.01,1.08 -3.02,0.55 l -28.52,-14.875 11.81,29.925 c 0.42,1.06 0.07,2.27 -0.86,2.94 -0.92,0.67 -2.18,0.63 -3.06,-0.1 l -24.8,-20.476 5.33,31.726 c 0.19,1.12 -0.4,2.23 -1.44,2.69 -1.05,0.47 -2.27,0.17 -2.98,-0.72 l -20.01,-25.2 -1.37,32.14 c -0.05,1.14 -0.87,2.1 -1.98,2.34 -1.12,0.24 -2.25,-0.31 -2.76,-1.34 l -14.33,-28.79 -8.03,31.14 c -0.29,1.11 -1.28,1.88 -2.42,1.88 -1.14,0 -2.14,-0.77 -2.42,-1.88 l 2.42,-0.62"
         style="fill:#231f20;fill-opacity:1;fill-rule:nonzero;stroke:none"
         transform="matrix(0.13333333,0,0,-0.13333333,0,139.38667)" />
      <path
         id="path19"
         d="M 857.363,384.488 H 504.652 l -18.91,0.258 53.863,28.859 -32.707,34.629 h 73.114 l -19.239,65.411 65.403,-34.629 -15.391,105.808 42.32,-48.094 h 63.489 l 38.472,32.704 71.184,-63.485 -15.391,-50.019 53.868,-11.543 -73.106,-28.86 65.742,-31.039"
         style="fill:#e9e9e9;fill-opacity:1;fill-rule:nonzero;stroke:none"
         transform="matrix(0.13333333,0,0,-0.13333333,0,139.38667)" />
      <path
         id="path20"
         d="m 687.188,381.988 -182.536,2.5 h 352.711 l 3.516,-1.66 -173.691,-0.84"
         style="fill:#7b7979;fill-opacity:1;fill-rule:nonzero;stroke:none"
         transform="matrix(0.13333333,0,0,-0.13333333,0,139.38667)" />
      <path
         id="path21"
         d="m 687.188,381.988 0.035,2.5 -191.77,2.625 48.215,25.832 -30.969,32.789 h 70.653 l -18.508,62.922 64.515,-34.156 -14.886,102.352 37.504,-42.622 h 65.535 l 37.515,31.891 68.364,-60.973 -15.723,-51.093 48.445,-10.379 -70.781,-27.942 64.508,-30.461 -162.664,-0.785 0.012,-2.5 0.035,2.5 -0.035,-2.5 0.011,-2.5 184.719,0.895 -74.008,34.941 75.43,29.774 -59.289,12.703 15.058,48.945 -74,66.004 -39.437,-33.52 h -61.438 l -47.132,53.567 15.89,-109.27 -66.293,35.102 19.969,-67.895 h -75.566 l 34.441,-36.468 -59.512,-31.887 211.149,-2.891 h 0.019 l -0.011,2.5"
         style="fill:#231f20;fill-opacity:1;fill-rule:nonzero;stroke:none"
         transform="matrix(0.13333333,0,0,-0.13333333,0,139.38667)" />
      <path
         id="path22"
         d="m 668.488,379.887 234.391,345.968 -6.207,4.208 L 662.281,384.09"
         style="fill:#231f20;fill-opacity:1;fill-rule:nonzero;stroke:none"
         transform="matrix(0.13333333,0,0,-0.13333333,0,139.38667)" />
      <path
         id="path23"
         d="m 893.734,719.043 -25.273,1.234 0.012,0.891 31.363,21.328 c 9.125,8.652 18.25,17.305 27.375,25.957 -4.652,-11.683 -9.301,-23.363 -13.953,-35.051 l -8.18,-37.035 -0.719,-0.406 -10.625,23.082"
         style="fill:#231f20;fill-opacity:1;fill-rule:nonzero;stroke:none"
         transform="matrix(0.13333333,0,0,-0.13333333,0,139.38667)" />
      <path
         id="path24"
         d="m 667.523,385.066 -343.207,238.418 -4.277,-6.16 343.207,-238.418"
         style="fill:#231f20;fill-opacity:1;fill-rule:nonzero;stroke:none"
         transform="matrix(0.13333333,0,0,-0.13333333,0,139.38667)" />
      <path
         id="path25"
         d="m 331.023,614.258 -1.535,-25.254 -0.883,0.019 -20.964,31.614 c -8.543,9.222 -17.09,18.445 -25.633,27.676 11.625,-4.793 23.258,-9.579 34.883,-14.364 l 36.937,-8.613 0.395,-0.727 -23.2,-10.351"
         style="fill:#231f20;fill-opacity:1;fill-rule:nonzero;stroke:none"
         transform="matrix(0.13333333,0,0,-0.13333333,0,139.38667)" />
    </g>
  </g>
</svg>
