<?xml version="1.0" encoding="UTF-8" standalone="no"?>
<!-- Created with Inkscape (http://www.inkscape.org/) -->

<svg
   version="1.1"
   id="svg1"
   width="216.39999"
   height="54.799999"
   viewBox="0 0 216.39999 54.799999"
   sodipodi:docname="pha14f01.eps"
   xmlns:inkscape="http://www.inkscape.org/namespaces/inkscape"
   xmlns:sodipodi="http://sodipodi.sourceforge.net/DTD/sodipodi-0.dtd"
   xmlns="http://www.w3.org/2000/svg"
   xmlns:svg="http://www.w3.org/2000/svg">
  <defs
     id="defs1" />
  <sodipodi:namedview
     id="namedview1"
     pagecolor="#ffffff"
     bordercolor="#000000"
     borderopacity="0.25"
     inkscape:showpageshadow="2"
     inkscape:pageopacity="0.0"
     inkscape:pagecheckerboard="0"
     inkscape:deskcolor="#d1d1d1">
    <inkscape:page
       x="0"
       y="0"
       inkscape:label="1"
       id="page1"
       width="216.39999"
       height="54.799999"
       margin="0"
       bleed="0" />
  </sodipodi:namedview>
  <g
     id="g1"
     inkscape:groupmode="layer"
     inkscape:label="1">
    <g
       id="group-R5">
      <path
         id="path2"
         d="m 1198.41,141.262 c -1.45,2.051 -3.09,4.105 -5.06,6.172 -0.42,0.425 -0.87,0.82 -1.29,1.226 4.81,-1.453 7.9,-3.57 6.35,-7.398 z m 52.06,22.156 c -14.86,27.812 -59.67,36.07 -98.29,35.836 -0.03,0.492 -0.01,0.988 -0.05,1.476 -0.94,11.086 -8.36,18.176 -19.67,21.157 -5.26,4.894 -11.94,8.75 -19.62,11.699 -3.79,11.766 -11.53,22.684 -23.78,31.18 -5.47,3.789 -11.27,5.754 -16.89,6.14 -1.46,3.391 -3.63,6.535 -6.19,8.989 -21.8,20.886 -61.23,6.57 -87.289,-0.696 -12.519,-3.496 -24.843,-7.461 -36.957,-11.832 -10.597,6.625 -23.082,3.246 -34.859,-3.644 -4.766,0.75 -9.57,1.328 -14.348,1.675 -30.238,43.848 -123.203,23.821 -139.746,-21.812 -2.758,-7.606 -3.383,-15.258 -2.176,-22.441 -2.312,-0.649 -4.621,-1.332 -6.894,-2.09 -11.074,2.156 -22.207,2.039 -31.555,-2.36 -5.359,-2.523 -9.859,-6.461 -13.75,-11.207 -43.64,8.188 -91.672,5.078 -134.379,-2.644 -17.097,-3.086 -24.304,-21.082 -16.007,-33.047 6.472,-9.336 14.199,-17.68 22.722,-25.324 -14.148,-5.02 -22.926,-20.391 -13.371,-32.168 0.887,-1.082 1.875,-2.051 2.797,-3.106 -0.141,-0.234 -0.266,-0.465 -0.406,-0.699 0.043,-0.016 0.093,-0.027 0.14,-0.047 -1.007,-1.711 -1.964,-3.473 -2.839,-5.328 -7.047,-14.8945 8.804,-26.8633 24.91,-28.0352 1.687,-3.2539 4.183,-6.1835 7.246,-8.5742 0.691,-5.1758 2.187,-10.332 4.511,-15.1992 10.711,-22.4219 35.586,-37.6562 62.493,-44.63281 28.343,-7.343746 69.336,-9.75781 97.781,-1.44531 7.07,2.07031 13.297,5.47652 18.351,9.69922 0.668,-0.2891 1.317,-0.5742 2.04,-0.8437 15.914,-6.06646 36.929,-7.76958 54.085,-6.88677 25.895,1.33203 54.79,7.22267 64.989,26.46877 1.824,1.1875 3.562,2.4844 5.238,3.8359 17.023,-10.4922 38.289,-10.8906 55.973,-3.789 17.175,-10.25 38.816,-11.8204 58.25,-6.6329 7.23,-8.1015 17.83,-13.1054 30.19,-10.2734 44.92,10.3008 96.98,24.5234 133.57,49.6211 6.49,4.4414 11.71,9.3906 15.69,14.6367 37.19,16.3594 77.82,45.4298 58.09,82.3438"
         style="fill:#d7d7d7;fill-opacity:1;fill-rule:nonzero;stroke:none"
         transform="matrix(0.13333333,0,0,-0.13333333,0,54.8)" />
      <g
         id="g2"
         aria-label="L&#10;i&#10;(p, ω)&#10;T&#10;r&#10;(p′→p)&#10;L&#10;s&#10;(p′, –ω)"
         transform="matrix(1.3333333,0,0,1.3333333,0,41.630213)">
        <path
           id="path3"
           d="M 4.359375,-1.5009803 C 4.125,-1.0556678 3.9257813,-0.78613656 3.7265625,-0.58691781 3.5039063,-0.36426156 3.1992188,-0.31738656 2.671875,-0.31738656 c -0.3984375,0 -0.6796875,-0.0117188 -0.8085938,-0.1171875 -0.140625,-0.10546875 -0.1640625,-0.31640625 -0.09375,-0.64453124 l 0.7031251,-3.7265625 c 0.1289062,-0.6796875 0.1640625,-0.7382813 0.8789062,-0.796875 l 0.058594,-0.234375 H 1.1601562 l -0.058594,0.234375 c 0.7382812,0.070312 0.7851562,0.1054687 0.6445312,0.796875 l -0.7382812,3.7617187 c -0.140625,0.67968754 -0.19921875,0.75000004 -0.890625,0.79687504 L 0.05859375,-9.803125e-4 H 4.03125 C 4.171875,-0.28223031 4.5,-1.1025428 4.6054687,-1.4072303 Z m 0,0"
           style="fill:#231f20;fill-opacity:1;fill-rule:nonzero;stroke:none" />
        <path
           id="path4"
           d="m 6.0058594,-2.8281287 c 0.2578125,0 0.4570312,-0.2109375 0.4570312,-0.4570313 0,-0.2695312 -0.1992187,-0.46875 -0.4570312,-0.46875 -0.234375,0 -0.4570313,0.1992188 -0.4570313,0.46875 0,0.2460938 0.2226563,0.4570313 0.4570313,0.4570313 z m 1.0546875,4.828125 V 1.7656213 C 6.4746094,1.7070275 6.4160156,1.6601525 6.4160156,1.0507775 V -2.0546912 C 6.0175781,-1.9023475 5.5957031,-1.78516 5.1386719,-1.7031287 v 0.2109375 c 0.5390625,0.09375 0.5625,0.1289062 0.5625,0.67968745 V 1.0507775 c 0,0.609375 -0.058594,0.65625 -0.6210938,0.7148438 v 0.234375 z M 9.0908203,1.3232384 c -0.890625,-0.76171871 -1.40625,-2.20312496 -1.40625,-3.75 0,-1.546875 0.515625,-3 1.40625,-3.75 L 8.9384766,-6.3876991 c -1.3242188,0.9023438 -1.9101563,2.3320313 -1.9101563,3.9492188 0,1.62890624 0.5859375,3.08203124 1.9101563,3.9609375 z m 1.9423827,-4.7460937 v -0.7148438 c -0.421875,0.1757813 -0.925781,0.328125 -1.3124999,0.3984375 v 0.2109375 c 0.5624999,0.070312 0.5976559,0.09375 0.5976559,0.6796875 v 4.0664063 c 0,0.5859375 -0.08203,0.6445312 -0.6562496,0.703125 v 0.234375 H 11.794922 V 1.9208947 C 11.091797,1.8505822 11.033203,1.8037072 11.033203,1.1240197 v -1.18359376 c 0.117188,0.0703125 0.363281,0.15234375 0.621094,0.1640625 1.171875,-0.2109375 2.238281,-1.08984375 2.238281,-2.44921874 0,-0.890625 -0.597656,-1.6992188 -1.59375,-1.6992188 -0.105469,0 -0.28125,0.046875 -0.445312,0.140625 z m 0,0.3046875 c 0.246094,-0.1875 0.609375,-0.3867188 0.902344,-0.3867188 0.65625,0 1.207031,0.5390625 1.207031,1.5117188 0,1.00781249 -0.515625,1.66406249 -1.265625,1.66406249 -0.304687,0 -0.644531,-0.15234375 -0.84375,-0.3515625 z m 3.776367,1.9570312 c -0.210937,0 -0.433593,0.140625 -0.433593,0.36328129 0,0.15234375 0.07031,0.22265625 0.117187,0.234375 0.304688,0.0703125 0.5625,0.26953125 0.5625,0.59765625 0,0.33984375 -0.257812,0.57421875 -0.691406,0.76171875 l 0.09375,0.25781251 c 0.550781,-0.16406251 1.183594,-0.55078126 1.183594,-1.24218751 0,-0.6328125 -0.503907,-0.97265629 -0.832032,-0.97265629 z m 0,0"
           style="fill:#231f20;fill-opacity:1;fill-rule:nonzero;stroke:none" />
        <path
           id="path5"
           d="m 22.417969,-3.8447303 c 0.292968,0.2578125 0.503906,0.7148437 0.503906,1.3828125 -0.01172,1.0078125 -0.398438,2.05078124 -1.136719,2.05078124 -0.304687,0 -0.515625,-0.3046875 -0.492187,-0.87890624 0.02344,-0.46875 0.234375,-1.359375 0.351562,-1.7226563 l -0.05859,-0.035156 -0.667968,0.140625 c -0.03516,0.28125 -0.09375,0.75 -0.1875,1.1367187 -0.199219,0.85546879 -0.5625,1.31250004 -0.949219,1.31250004 -0.28125,0 -0.539063,-0.33984375 -0.539063,-0.99609374 0,-1.0078125 0.46875,-1.921875 1.160157,-2.4492188 l -0.140625,-0.1992187 c -1.042969,0.5390625 -1.757813,1.5585937 -1.757813,2.765625 0,0.93749999 0.421875,1.44140624 0.9375,1.44140624 0.386719,0 0.902344,-0.3984375 1.230469,-0.890625 0.04687,0.50390625 0.328125,0.890625 0.761719,0.890625 0.375,0 0.738281,-0.22265625 1.066406,-0.515625 0.5625,-0.52734375 0.996094,-1.30078124 0.996094,-2.21484374 0,-0.9023438 -0.398438,-1.4179688 -0.691407,-1.4179688 -0.152343,0 -0.316406,0.070312 -0.375,0.1289063 z m 0,0"
           style="fill:#231f20;fill-opacity:1;fill-rule:nonzero;stroke:none" />
        <path
           id="path6"
           d="m 24.210937,-6.1767616 c 0.890625,0.7382813 1.417969,2.203125 1.417969,3.75 0,1.54687504 -0.503906,2.98828129 -1.417969,3.75 L 24.375,1.5224572 c 1.347656,-0.91406251 1.898437,-2.33203126 1.898437,-3.9492188 0,-1.6289062 -0.550781,-3.0585937 -1.898437,-3.9609375 z m 0,0"
           style="fill:#231f20;fill-opacity:1;fill-rule:nonzero;stroke:none" />
        <path
           id="path7"
           d="m 81.887695,-29.810551 c -0.164062,0.175782 -0.234375,0.234375 -0.46875,0.234375 h -3.386718 c -0.246094,0 -0.339844,-0.02344 -0.445313,-0.234375 h -0.1875 c -0.105469,0.503907 -0.257812,1.078125 -0.421875,1.605469 h 0.269531 c 0.152344,-0.363281 0.304688,-0.632812 0.445313,-0.808594 0.164062,-0.199218 0.328125,-0.269531 1.101562,-0.269531 h 0.457032 l -0.855469,4.464844 c -0.128906,0.714844 -0.1875,0.785156 -0.949219,0.832031 l -0.05859,0.246094 h 2.449219 l 0.05859,-0.246094 c -0.808594,-0.04687 -0.878906,-0.105469 -0.738281,-0.832031 l 0.832031,-4.464844 h 0.539062 c 0.703125,0 0.890625,0.05859 0.972657,0.28125 0.08203,0.1875 0.105468,0.457031 0.105468,0.796875 l 0.269532,-0.02344 c 0.05859,-0.492188 0.128906,-1.171875 0.210937,-1.582032 z m 0,0"
           style="fill:#231f20;fill-opacity:1;fill-rule:nonzero;stroke:none" />
        <path
           id="path8"
           d="m 83.226562,-24.821293 v -0.984375 c -0.433593,0.1875 -0.832031,0.292969 -1.265625,0.363281 v 0.199219 c 0.503907,0.07031 0.550782,0.105469 0.550782,0.703125 v 1.863281 c 0,0.597657 -0.05859,0.644532 -0.621094,0.703125 v 0.234375 h 2.074219 v -0.234375 c -0.691407,-0.05859 -0.738282,-0.105468 -0.738282,-0.703125 v -1.640625 c 0.199219,-0.503906 0.480469,-0.773437 0.714844,-0.773437 0.152344,0 0.257813,0.04687 0.386719,0.1875 0.04687,0.04687 0.128906,0.05859 0.234375,0.01172 0.175781,-0.08203 0.292969,-0.257813 0.292969,-0.433594 0,-0.222656 -0.210938,-0.457031 -0.527344,-0.457031 -0.421875,0 -0.808594,0.503906 -1.078125,0.960937 z m 3.29004,2.405274 c -0.890625,-0.761719 -1.40625,-2.203125 -1.40625,-3.75 0,-1.546875 0.515625,-3 1.40625,-3.75 l -0.152344,-0.210938 c -1.324219,0.902344 -1.910156,2.332031 -1.910156,3.949219 0,1.628906 0.585937,3.082031 1.910156,3.960937 z m 1.942382,-4.746094 v -0.714844 c -0.421875,0.175781 -0.925781,0.328125 -1.3125,0.398438 v 0.210937 c 0.5625,0.07031 0.597657,0.09375 0.597657,0.679688 v 4.066406 c 0,0.585937 -0.08203,0.644531 -0.65625,0.703125 v 0.234375 h 2.132812 v -0.234375 c -0.703125,-0.07031 -0.761719,-0.117188 -0.761719,-0.796875 v -1.183594 c 0.117188,0.07031 0.363282,0.152344 0.621094,0.164063 1.171875,-0.210938 2.238281,-1.089844 2.238281,-2.449219 0,-0.890625 -0.597656,-1.699219 -1.59375,-1.699219 -0.105468,0 -0.28125,0.04687 -0.445312,0.140625 z m 0,0.304687 c 0.246094,-0.1875 0.609375,-0.386718 0.902344,-0.386718 0.65625,0 1.207031,0.539062 1.207031,1.511718 0,1.007813 -0.515625,1.664063 -1.265625,1.664063 -0.304687,0 -0.644531,-0.152344 -0.84375,-0.351563 z m 0,0"
           style="fill:#231f20;fill-opacity:1;fill-rule:nonzero;stroke:none" />
        <path
           id="path9"
           d="m 92.449219,-27.279301 0.609375,-1.289062 c 0.175781,-0.386719 0.28125,-0.621094 0.316406,-0.738281 0.03516,-0.08203 0.04687,-0.152344 0.04687,-0.222657 0,-0.09375 -0.02344,-0.164062 -0.08203,-0.222656 -0.07031,-0.05859 -0.152344,-0.09375 -0.257813,-0.09375 -0.128906,0 -0.246094,0.03516 -0.339844,0.117188 -0.105468,0.08203 -0.175781,0.222656 -0.234375,0.398437 -0.03516,0.128906 -0.08203,0.375 -0.117187,0.761719 L 92.25,-27.279301 Z m 7.675781,-0.316406 c 0.17578,0.339844 0.30469,0.585938 0.38672,0.738281 0.0937,0.128907 0.24609,0.339844 0.46875,0.621094 h -7.007814 v 0.445313 h 7.007814 c -0.29297,0.316406 -0.58594,0.773437 -0.86719,1.359375 h 0.35156 c 0.375,-0.421875 0.70313,-0.738282 0.97266,-0.960938 0.26953,-0.222656 0.55078,-0.398437 0.84375,-0.539062 v -0.199219 c -0.25781,-0.105469 -0.52734,-0.269531 -0.80859,-0.492188 -0.29297,-0.222656 -0.6211,-0.550781 -1.01953,-0.972656 z m 0,0"
           style="fill:#231f20;fill-opacity:1;fill-rule:nonzero;stroke:none" />
        <path
           id="path10"
           d="m 104.14453,-27.162113 v -0.714844 c -0.42187,0.175781 -0.92578,0.328125 -1.3125,0.398438 v 0.210937 c 0.5625,0.07031 0.59766,0.09375 0.59766,0.679688 v 4.066406 c 0,0.585937 -0.082,0.644531 -0.65625,0.703125 v 0.234375 h 2.13281 v -0.234375 c -0.70312,-0.07031 -0.76172,-0.117188 -0.76172,-0.796875 v -1.183594 c 0.11719,0.07031 0.36328,0.152344 0.6211,0.164063 1.17187,-0.210938 2.23828,-1.089844 2.23828,-2.449219 0,-0.890625 -0.59766,-1.699219 -1.59375,-1.699219 -0.10547,0 -0.28125,0.04687 -0.44532,0.140625 z m 0,0.304687 c 0.2461,-0.1875 0.60938,-0.386718 0.90235,-0.386718 0.65625,0 1.20703,0.539062 1.20703,1.511718 0,1.007813 -0.51563,1.664063 -1.26563,1.664063 -0.30469,0 -0.64453,-0.152344 -0.84375,-0.351563 z m 3.60352,-3.058593 c 0.89062,0.738281 1.41797,2.203125 1.41797,3.75 0,1.546875 -0.50391,2.988281 -1.41797,3.75 l 0.16406,0.199218 c 1.34766,-0.914062 1.89844,-2.332031 1.89844,-3.949218 0,-1.628907 -0.55078,-3.058594 -1.89844,-3.960938 z m 0,0"
           style="fill:#231f20;fill-opacity:1;fill-rule:nonzero;stroke:none" />
        <path
           id="path11"
           d="m 78.087891,-1.5009803 c -0.234375,0.4453125 -0.433594,0.71484374 -0.632813,0.91406249 -0.222656,0.22265625 -0.527344,0.26953125 -1.054687,0.26953125 -0.398438,0 -0.679688,-0.0117188 -0.808594,-0.1171875 -0.140625,-0.10546875 -0.164063,-0.31640625 -0.09375,-0.64453124 l 0.703125,-3.7265625 c 0.128906,-0.6796875 0.164062,-0.7382813 0.878906,-0.796875 l 0.05859,-0.234375 h -2.25 l -0.05859,0.234375 c 0.738281,0.070312 0.785156,0.1054687 0.644531,0.796875 l -0.738281,3.7617187 c -0.140625,0.67968754 -0.199219,0.75000004 -0.890625,0.79687504 l -0.05859,0.2460937475 H 77.75977 C 77.900391,-0.28223031 78.228516,-1.1025428 78.333984,-1.4072303 Z m 0,0"
           style="fill:#231f20;fill-opacity:1;fill-rule:nonzero;stroke:none" />
        <path
           id="path12"
           d="m 81.398437,-0.92969125 c -0.03516,-0.22265625 -0.128906,-0.74999995 -0.199218,-0.96093745 -0.1875,-0.070312 -0.433594,-0.1523438 -0.796875,-0.1523438 -0.832032,0 -1.371094,0.5273438 -1.371094,1.16015625 0,0.69140625 0.585937,0.99609375 1.125,1.2421875 0.445312,0.2109375 0.703125,0.421875 0.703125,0.82031255 0,0.375 -0.304688,0.6328125 -0.632813,0.6328125 -0.539062,0 -0.949218,-0.5273438 -1.113281,-1.1132813 l -0.234375,0.0351563 c 0,0.3281251 0.08203,0.9375001 0.152344,1.0664063 0.164062,0.140625 0.574219,0.3046875 1.03125,0.3046875 0.726562,0 1.488281,-0.421875 1.488281,-1.24218755 0,-0.62109375 -0.457031,-0.9375 -1.136719,-1.21875 -0.410156,-0.17578125 -0.761718,-0.375 -0.761718,-0.78515615 0,-0.3515625 0.246093,-0.6210938 0.585937,-0.6210938 0.433594,0 0.75,0.3632813 0.925781,0.89062495 z m 2.012696,2.25292965 c -0.890625,-0.76171871 -1.40625,-2.20312496 -1.40625,-3.75 0,-1.546875 0.515625,-3 1.40625,-3.75 l -0.152344,-0.2109375 c -1.324219,0.9023438 -1.910156,2.3320313 -1.910156,3.9492188 0,1.62890624 0.585937,3.08203124 1.910156,3.9609375 z m 1.942383,-4.7460937 v -0.7148438 c -0.421875,0.1757813 -0.925782,0.328125 -1.3125,0.3984375 v 0.2109375 c 0.5625,0.070312 0.597656,0.09375 0.597656,0.6796875 v 4.0664063 c 0,0.5859375 -0.08203,0.6445312 -0.65625,0.703125 v 0.234375 h 2.132812 V 1.9208947 C 85.412109,1.8505822 85.353516,1.8037072 85.353516,1.1240197 v -1.18359376 c 0.117187,0.0703125 0.363281,0.15234375 0.621093,0.1640625 1.171875,-0.2109375 2.238282,-1.08984375 2.238282,-2.44921874 0,-0.890625 -0.597657,-1.6992188 -1.59375,-1.6992188 -0.105469,0 -0.28125,0.046875 -0.445313,0.140625 z m 0,0.3046875 c 0.246093,-0.1875 0.609375,-0.3867188 0.902343,-0.3867188 0.65625,0 1.207032,0.5390625 1.207032,1.5117188 0,1.00781249 -0.515625,1.66406249 -1.265625,1.66406249 -0.304688,0 -0.644532,-0.15234375 -0.84375,-0.3515625 z m 0,0"
           style="fill:#231f20;fill-opacity:1;fill-rule:nonzero;stroke:none" />
        <path
           id="path13"
           d="m 89.34375,-3.5400428 0.609375,-1.2890625 c 0.175781,-0.3867188 0.28125,-0.6210938 0.316406,-0.7382813 0.03516,-0.082031 0.04687,-0.1523437 0.04687,-0.2226562 0,-0.09375 -0.02344,-0.1640625 -0.08203,-0.2226563 -0.07031,-0.058594 -0.152344,-0.09375 -0.257813,-0.09375 -0.128906,0 -0.246093,0.035156 -0.339843,0.1171875 -0.105469,0.082031 -0.175782,0.2226563 -0.234375,0.3984375 -0.03516,0.1289063 -0.08203,0.375 -0.117188,0.7617188 l -0.140625,1.2890625 z m 0,0"
           style="fill:#231f20;fill-opacity:1;fill-rule:nonzero;stroke:none" />
        <path
           id="path14"
           d="m 91.359375,-1.1611366 c -0.210938,0 -0.433594,0.140625 -0.433594,0.36328129 0,0.15234375 0.07031,0.22265625 0.117188,0.234375 0.304687,0.0703125 0.5625,0.26953125 0.5625,0.59765625 0,0.33984375 -0.257813,0.57421875 -0.691407,0.76171875 l 0.09375,0.25781251 c 0.550782,-0.16406251 1.183594,-0.55078126 1.183594,-1.24218751 0,-0.6328125 -0.503906,-0.97265629 -0.832031,-0.97265629 z m 7.470703,-0.6445312 v -0.46875 h -3.773437 v 0.46875 z m 0,0"
           style="fill:#231f20;fill-opacity:1;fill-rule:nonzero;stroke:none" />
        <path
           id="path15"
           d="m 103.64941,-3.8447303 c 0.29297,0.2578125 0.50391,0.7148437 0.50391,1.3828125 -0.0117,1.0078125 -0.39844,2.05078124 -1.13672,2.05078124 -0.30469,0 -0.51562,-0.3046875 -0.49219,-0.87890624 0.0234,-0.46875 0.23438,-1.359375 0.35157,-1.7226563 l -0.0586,-0.035156 -0.66797,0.140625 c -0.0352,0.28125 -0.0937,0.75 -0.1875,1.1367187 -0.19921,0.85546879 -0.5625,1.31250004 -0.94921,1.31250004 -0.28125,0 -0.53907,-0.33984375 -0.53907,-0.99609374 0,-1.0078125 0.46875,-1.921875 1.16016,-2.4492188 l -0.14063,-0.1992187 c -1.04296,0.5390625 -1.757808,1.5585937 -1.757808,2.765625 0,0.93749999 0.421878,1.44140624 0.937498,1.44140624 0.38672,0 0.90235,-0.3984375 1.23047,-0.890625 0.0469,0.50390625 0.32813,0.890625 0.76172,0.890625 0.375,0 0.73828,-0.22265625 1.06641,-0.515625 0.5625,-0.52734375 0.99609,-1.30078124 0.99609,-2.21484374 0,-0.9023438 -0.39844,-1.4179688 -0.69141,-1.4179688 -0.15234,0 -0.3164,0.070312 -0.375,0.1289063 z m 0,0"
           style="fill:#231f20;fill-opacity:1;fill-rule:nonzero;stroke:none" />
        <path
           id="path16"
           d="m 105.44238,-6.1767616 c 0.89063,0.7382813 1.41797,2.203125 1.41797,3.75 0,1.54687504 -0.5039,2.98828129 -1.41797,3.75 l 0.16407,0.1992188 c 1.34765,-0.91406251 1.89843,-2.33203126 1.89843,-3.9492188 0,-1.6289062 -0.55078,-3.0585937 -1.89843,-3.9609375 z m 0,0"
           style="fill:#231f20;fill-opacity:1;fill-rule:nonzero;stroke:none" />
      </g>
      <path
         id="path17"
         d="m 50.9961,202.125 c 0,-11.047 -8.957,-20 -20,-20 -11.043,0 -20,8.953 -20,20 0,11.043 8.957,20 20,20 11.043,0 20,-8.957 20,-20"
         style="fill:#231f20;fill-opacity:1;fill-rule:nonzero;stroke:none"
         transform="matrix(0.13333333,0,0,-0.13333333,0,54.8)" />
      <path
         id="path18"
         d="m 912.516,202.125 c 0,-11.047 -8.957,-20 -20,-20 -11.047,0 -20,8.953 -20,20 0,11.043 8.953,20 20,20 11.043,0 20,-8.957 20,-20"
         style="fill:#231f20;fill-opacity:1;fill-rule:nonzero;stroke:none"
         transform="matrix(0.13333333,0,0,-0.13333333,0,54.8)" />
      <path
         id="path19"
         d="m 1275.23,202.125 h 347.76"
         style="fill:none;stroke:#231f20;stroke-width:7.5;stroke-linecap:butt;stroke-linejoin:miter;stroke-miterlimit:10;stroke-dasharray:none;stroke-opacity:1"
         transform="matrix(0.13333333,0,0,-0.13333333,0,54.8)" />
      <path
         id="path20"
         d="m 1286.01,202.125 13.14,21.613 -0.74,0.496 -35.25,-14.004 c -12.28,-2.703 -24.56,-5.402 -36.84,-8.105 12.28,-2.699 24.56,-5.402 36.84,-8.105 l 35.25,-14.004 0.74,0.371 -13.14,21.738"
         style="fill:#231f20;fill-opacity:1;fill-rule:nonzero;stroke:none"
         transform="matrix(0.13333333,0,0,-0.13333333,0,54.8)" />
      <path
         id="path21"
         d="m 430.141,202.125 h 15"
         style="fill:none;stroke:#231f20;stroke-width:5;stroke-linecap:butt;stroke-linejoin:miter;stroke-miterlimit:10;stroke-dasharray:none;stroke-opacity:1"
         transform="matrix(0.13333333,0,0,-0.13333333,0,54.8)" />
      <path
         id="path22"
         d="M 465.449,202.125 H 1216.87"
         style="fill:none;stroke:#231f20;stroke-width:5;stroke-linecap:butt;stroke-linejoin:miter;stroke-miterlimit:10;stroke-dasharray:30.4629, 20.3086;stroke-dashoffset:0;stroke-opacity:1"
         transform="matrix(0.13333333,0,0,-0.13333333,0,54.8)" />
      <path
         id="path23"
         d="m 1227.02,202.125 h 15"
         style="fill:none;stroke:#231f20;stroke-width:5;stroke-linecap:butt;stroke-linejoin:miter;stroke-miterlimit:10;stroke-dasharray:none;stroke-opacity:1"
         transform="matrix(0.13333333,0,0,-0.13333333,0,54.8)" />
      <path
         id="path24"
         d="M 30.9961,202.125 H 393.98"
         style="fill:none;stroke:#231f20;stroke-width:7.5;stroke-linecap:butt;stroke-linejoin:miter;stroke-miterlimit:10;stroke-dasharray:none;stroke-opacity:1"
         transform="matrix(0.13333333,0,0,-0.13333333,0,54.8)" />
      <path
         id="path25"
         d="m 383.215,202.125 -13.152,21.613 0.738,0.496 35.25,-14.004 c 12.285,-2.703 24.562,-5.402 36.844,-8.105 -12.282,-2.699 -24.559,-5.402 -36.844,-8.105 l -35.25,-14.004 -0.738,0.371 13.152,21.738"
         style="fill:#231f20;fill-opacity:1;fill-rule:nonzero;stroke:none"
         transform="matrix(0.13333333,0,0,-0.13333333,0,54.8)" />
    </g>
  </g>
</svg>
