<?xml version="1.0" encoding="UTF-8" standalone="no"?>
<!-- Created with Inkscape (http://www.inkscape.org/) -->

<svg
   version="1.1"
   id="svg1"
   width="262.02667"
   height="100.13333"
   viewBox="0 0 262.02667 100.13333"
   sodipodi:docname="pha14f04.eps"
   xmlns:inkscape="http://www.inkscape.org/namespaces/inkscape"
   xmlns:sodipodi="http://sodipodi.sourceforge.net/DTD/sodipodi-0.dtd"
   xmlns="http://www.w3.org/2000/svg"
   xmlns:svg="http://www.w3.org/2000/svg">
  <defs
     id="defs1" />
  <sodipodi:namedview
     id="namedview1"
     pagecolor="#ffffff"
     bordercolor="#000000"
     borderopacity="0.25"
     inkscape:showpageshadow="2"
     inkscape:pageopacity="0.0"
     inkscape:pagecheckerboard="0"
     inkscape:deskcolor="#d1d1d1">
    <inkscape:page
       x="0"
       y="0"
       inkscape:label="1"
       id="page1"
       width="262.02667"
       height="100.13333"
       margin="0"
       bleed="0" />
  </sodipodi:namedview>
  <g
     id="g1"
     inkscape:groupmode="layer"
     inkscape:label="1">
    <g
       id="group-R5">
      <path
         id="path2"
         d="m 1147.48,61.1133 c -85.25,0 -171.531,12.9805 -256.125,26.0273 -7.437,1.1524 -15.535,2.6563 -20.476,8.4688 -10.676,12.5746 0.996,34.8986 -9.277,47.8206 -44.473,-22.809 -99.512,-6.989 -146.309,-24.227 -20.82,-7.672 -39.238,-21.6522 -60.645,-27.3553 -8.097,-2.1602 -16.304,-3.0664 -24.562,-3.0664 -21.766,0 -43.867,6.3007 -65.047,12.5737 -22.762,6.75 -47.219,14.68 -61.113,34.36 -15.215,21.547 -13.289,50.703 -10.711,77.172 -2.473,0.832 -4.914,1.218 -7.336,1.218 -14.52,0 -28.234,-13.847 -42.219,-27.691 -13.98,-13.848 -28.226,-27.695 -43.805,-27.695 -0.089,0 -0.179,0 -0.269,0.004 -1.789,0.015 -3.793,0.023 -5.988,0.023 -2.293,0 -4.797,-0.008 -7.477,-0.016 -2.683,-0.003 -5.543,-0.011 -8.551,-0.011 -45.511,0 -124.734,1.625 -132.761,29.504 -11.5,39.902 12.504,93.679 1.199,146.543 0.027,22.058 10.457,21.402 -0.293,40.754 -10.496,18.878 73.672,28.625 91.371,40.578 29.242,19.754 58.48,39.511 87.723,59.261 -0.457,-0.074 -0.911,-0.113 -1.356,-0.113 -15.074,0 -21.992,42.5 -37.332,46.242 7.391,23.258 71.414,41.383 129.133,49.914 12.449,1.84 26.43,3.77 34.101,13.989 3.774,5.031 5.403,11.367 8.45,16.886 9.109,16.508 28.933,22.899 47.129,26.332 20.179,3.809 40.687,5.707 61.203,5.707 25.715,0 51.437,-2.988 76.492,-8.941 -12.414,8.141 -14.078,27.375 -6.723,40.465 7.356,13.098 21.196,20.937 35.078,25.984 12.418,4.512 25.774,7.207 38.946,7.207 13.066,0 25.957,-2.652 37.558,-8.816 23.293,-12.367 39.039,-41.305 31.379,-67.031 l 7.293,6.25 c 20.965,28.089 55.36,42.336 89.676,42.336 31.854,0 63.644,-12.282 84.544,-37.161 15.85,23.438 32.43,47.59 56.34,62.176 21.14,12.903 45.76,16.957 70.66,16.957 11.58,0 23.23,-0.879 34.62,-2.148 49.92,-5.578 105.15,-22.121 128.58,-67.656 45.77,20.73 93.65,36.55 142.61,47.117 11.45,2.468 23.08,4.66 34.73,4.66 2.65,0 5.3,-0.113 7.94,-0.363 16.74,-1.575 32.5,-8.477 47.94,-15.293 28.19,-12.442 56.39,-24.883 84.57,-37.329 16.14,-7.128 32.82,-14.632 44.59,-28.011 11.36,-12.906 16.98,-29.985 21.23,-46.797 6.98,-27.625 11.04,-56.024 12.1,-84.539 4.07,-28.403 33.53,-15.508 13.41,-72.699 -1.76,-62.164 -20.84,-84.286 -23.1,-113.711 -0.22,-2.832 -1.03,-3.993 -2.41,-3.993 -3.13,0 -9.14,5.961 -17.61,11.922 -8.48,5.965 -19.4,11.926 -32.34,11.926 -6.45,0 -13.4,-1.48 -20.79,-5.176 -67.58,-33.789 -135.11,-42.453 -200.57,-79.507 15.14,6.496 30.95,13.113 47.2,13.113 1.76,0 3.53,-0.078 5.3,-0.242 18.11,-1.676 36.54,-15.637 36.91,-34.278 0.29,-13.804 -8.87,-25.699 -17.59,-36.226 -26.12,-31.524 -58.74,-65.43 -98.21,-65.43 -2.03,0 -4.08,0.09 -6.15,0.273 -20.55,1.836 -39.01,13.067 -56.66,24.012 -3.73,-29.969 -36.39,-45.5232 -64.93,-53.0467 -52.89,-13.9219 -106.87,-19.207 -161.27,-19.207"
         style="fill:#dedddd;fill-opacity:1;fill-rule:nonzero;stroke:none"
         transform="matrix(0.13333333,0,0,-0.13333333,0,100.13333)" />
      <g
         id="g2"
         aria-label="t&#10;max&#10;T&#10;r&#10;T&#10;r&#10;T&#10;r&#10;T&#10;r&#10;T&#10;r"
         transform="matrix(1.3333333,0,0,1.3333333,244.49733,33.7016)">
        <path
           id="path3"
           d="M 3.0459453,-3.9012 H 1.9912578 L 2.3076641,-5.260575 2.2256328,-5.30745 1.5459453,-4.7566687 1.3350078,-3.9012 H 0.79594531 l -0.22265625,0.2695313 0.0234375,0.082031 H 1.2646953 l -0.52734374,2.4726563 c -0.19921875,0.9257812 -0.0234375,1.1835937 0.1875,1.1835937 0.48046874,0 1.14843754,-0.59765625 1.45312504,-0.9609375 l -0.1289063,-0.1875 c -0.2109375,0.22265625 -0.65625,0.515625 -0.8085937,0.515625 -0.1054688,0 -0.140625,-0.09375 -0.058594,-0.5390625 l 0.5390625,-2.484375 0.890625,-0.035156 z m 0,0"
           style="fill:#231f20;fill-opacity:1;fill-rule:nonzero;stroke:none" />
        <path
           id="path4"
           d="M 7.5430156,1.9991906 V 1.8468469 C 7.1914531,1.8116906 7.1445781,1.7882531 7.1445781,1.3780969 V 0.21794063 c 0,-0.5859375 -0.2929687,-0.9140625 -0.7617187,-0.9140625 -0.1640625,0 -0.3164063,0.0703125 -0.4453125,0.15234375 -0.1523438,0.09375 -0.328125,0.2109375 -0.5039063,0.33984375 -0.1171875,-0.31640625 -0.375,-0.4921875 -0.65625,-0.4921875 -0.1992187,0 -0.3398437,0.0703125 -0.4921875,0.1640625 -0.1875,0.1171875 -0.3164062,0.22265625 -0.4453125,0.3046875 v -0.48046875 c -0.2578125,0.1171875 -0.5625,0.1875 -0.8320312,0.24609375 v 0.12890625 c 0.3515625,0.0585938 0.3632812,0.09375 0.3632812,0.46875 V 1.3780969 c 0,0.3984375 -0.046875,0.4335937 -0.4453125,0.46875 v 0.1523437 h 1.265625 V 1.8468469 C 3.8984844,1.8116906 3.8516094,1.7765344 3.8516094,1.3780969 v -1.40625002 c 0.1757812,-0.15234375 0.4101562,-0.31640625 0.6445312,-0.31640625 0.375,0 0.5273438,0.24609375 0.5273438,0.69140625 V 1.3780969 c 0,0.3984375 -0.058594,0.4335937 -0.421875,0.46875 V 1.9991906 H 5.8789531 V 1.8468469 C 5.5508281,1.8116906 5.4922344,1.7765344 5.4922344,1.3898156 V 0.21794063 c 0,-0.10546875 0,-0.17578125 -0.011719,-0.24609375 0.2226563,-0.1875 0.4570313,-0.31640625 0.6679688,-0.31640625 0.3867187,0 0.5273437,0.26953125 0.5273437,0.703125 V 1.3546594 c 0,0.4335937 -0.058594,0.4570312 -0.421875,0.4921875 v 0.1523437 z m 2.7187504,-0.234375 -0.05859,-0.1523437 c -0.07031,0.035156 -0.152344,0.058594 -0.2226564,0.058594 -0.1054687,0 -0.2109375,-0.082031 -0.2109375,-0.3515625 V 0.19450313 c 0,-0.3046875 -0.058594,-0.55078125 -0.2695312,-0.7265625 -0.1289063,-0.10546875 -0.3046875,-0.1640625 -0.4921875,-0.1640625 -0.3398438,0.0703125 -0.7265625,0.3046875 -0.9023438,0.421875 -0.1054687,0.0820312 -0.1875,0.15234375 -0.1875,0.234375 0,0.140625 0.1523438,0.2578125 0.2695313,0.2578125 0.082031,0 0.140625,-0.0351563 0.1640625,-0.12890625 0.046875,-0.1875 0.1054687,-0.31640625 0.1875,-0.3984375 0.058594,-0.0703125 0.1523437,-0.1171875 0.2695312,-0.1171875 0.2929688,0 0.5039063,0.24609375 0.5039063,0.66796875 v 0.1171875 C 9.1836406,0.46403438 8.7383281,0.62809688 8.3750469,0.74528438 8.0469219,0.86247188 7.8945781,1.0499719 7.8945781,1.3429406 c 0,0.375 0.2929688,0.7265625 0.7148438,0.7265625 0.1875,0 0.46875,-0.2226562 0.7148437,-0.3867187 0.023437,0.1054687 0.058594,0.1875 0.140625,0.2695312 0.070312,0.070312 0.1875,0.1171875 0.28125,0.1171875 z M 9.3125469,1.4952844 c -0.1171875,0.1054687 -0.328125,0.2109375 -0.4804688,0.2109375 -0.1875,0 -0.4335937,-0.140625 -0.4335937,-0.4570313 0,-0.2109375 0.140625,-0.32812497 0.375,-0.43359372 0.1171875,-0.0585938 0.4101562,-0.1875 0.5390625,-0.2578125 z M 13.141648,1.9991906 V 1.8468469 C 12.778367,1.7999719 12.708055,1.7413781 12.485398,1.4015344 L 11.899461,0.51090938 c 0.199219,-0.29296875 0.339844,-0.50390625 0.46875,-0.65625 0.210937,-0.2578125 0.292969,-0.28125 0.65625,-0.328125 v -0.15234375 h -1.089844 v 0.15234375 c 0.257813,0.0351563 0.292969,0.0585938 0.1875,0.2578125 -0.105469,0.1875 -0.222656,0.375 -0.351562,0.55078125 l -0.351563,-0.55078125 c -0.105469,-0.1640625 -0.08203,-0.22265625 0.175781,-0.2578125 v -0.15234375 h -1.207031 v 0.15234375 c 0.328125,0.046875 0.410156,0.09375 0.585938,0.38671875 l 0.527343,0.80859375 C 11.325242,0.99137813 11.16118,1.2374719 10.997117,1.4484094 10.751023,1.7413781 10.69243,1.7999719 10.31743,1.8468469 v 0.1523437 h 1.125 V 1.8468469 C 11.126023,1.7999719 11.114305,1.7413781 11.231492,1.5421594 11.34868,1.3195031 11.477586,1.0968469 11.618211,0.89762813 l 0.445312,0.70312497 c 0.09375,0.1640625 0.04687,0.2109375 -0.210937,0.2460938 v 0.1523437 z m 0,0"
           style="fill:#231f20;fill-opacity:1;fill-rule:nonzero;stroke:none" />
        <path
           id="path5"
           d="m -14.930617,-3.9451453 c -0.164063,0.1757812 -0.234375,0.234375 -0.46875,0.234375 h -3.386719 c -0.246094,0 -0.339844,-0.023437 -0.445312,-0.234375 h -0.1875 c -0.105469,0.5039062 -0.257813,1.078125 -0.421875,1.6054687 h 0.269531 c 0.152344,-0.3632812 0.304687,-0.6328125 0.445312,-0.8085937 0.164063,-0.1992188 0.328125,-0.2695313 1.101563,-0.2695313 h 0.457031 l -0.855469,4.4648438 c -0.128906,0.7148437 -0.1875,0.7851562 -0.949218,0.8320312 l -0.05859,0.2460938 h 2.449219 l 0.05859,-0.2460938 c -0.808593,-0.046875 -0.878906,-0.1054687 -0.738281,-0.8320312 l 0.832031,-4.4648438 h 0.539063 c 0.703125,0 0.890625,0.058594 0.972656,0.28125 0.08203,0.1875 0.105469,0.4570313 0.105469,0.796875 l 0.269531,-0.023437 c 0.05859,-0.4921875 0.128906,-1.171875 0.210938,-1.5820312 z m 0,0"
           style="fill:#231f20;fill-opacity:1;fill-rule:nonzero;stroke:none" />
        <path
           id="path6"
           d="M -14.130812,2.0607141 V 1.4161828 c -0.292969,0.1171875 -0.550782,0.1875 -0.855469,0.2460938 v 0.1289062 c 0.351562,0.046875 0.375,0.070312 0.375,0.46875 v 1.2421875 c 0,0.3984375 -0.03516,0.4335938 -0.410156,0.46875 v 0.1523438 h 1.382812 V 3.9708703 c -0.46875,-0.035156 -0.492187,-0.070312 -0.492187,-0.46875 V 2.4005578 c 0.128906,-0.3398437 0.316406,-0.515625 0.480468,-0.515625 0.09375,0 0.164063,0.035156 0.246094,0.1289063 0.03516,0.035156 0.09375,0.035156 0.164063,0.011719 0.117187,-0.058594 0.1875,-0.1757812 0.1875,-0.2929687 0,-0.1523438 -0.140625,-0.3046875 -0.339844,-0.3046875 -0.292969,0 -0.550781,0.3398437 -0.726563,0.6328125 z m 0,0"
           style="fill:#231f20;fill-opacity:1;fill-rule:nonzero;stroke:none" />
        <path
           id="path7"
           d="m -46.77632,-1.2908484 c -0.164063,0.1757812 -0.234375,0.234375 -0.46875,0.234375 h -3.386719 c -0.246094,0 -0.339844,-0.023437 -0.445313,-0.234375 h -0.1875 c -0.105468,0.50390621 -0.257812,1.07812496 -0.421875,1.60546871 h 0.269532 c 0.152343,-0.36328125 0.304687,-0.6328125 0.445312,-0.80859375 0.164063,-0.19921875 0.328125,-0.26953125 1.101563,-0.26953125 h 0.457031 l -0.855469,4.46484379 c -0.128906,0.7148437 -0.1875,0.7851562 -0.949219,0.8320312 l -0.05859,0.2460938 h 2.449218 l 0.05859,-0.2460938 c -0.808594,-0.046875 -0.878906,-0.1054687 -0.738281,-0.8320312 l 0.832031,-4.46484379 h 0.539063 c 0.703125,0 0.890625,0.0585938 0.972656,0.28125 0.08203,0.1875 0.105469,0.45703125 0.105469,0.796875 l 0.269531,-0.0234375 c 0.05859,-0.4921875 0.128906,-1.171875 0.210937,-1.58203121 z m 0,0"
           style="fill:#231f20;fill-opacity:1;fill-rule:nonzero;stroke:none" />
        <path
           id="path8"
           d="M -45.979445,4.7150109 V 4.0704797 c -0.292969,0.1171875 -0.550782,0.1875 -0.855469,0.2460937 v 0.1289063 c 0.351562,0.046875 0.375,0.070312 0.375,0.46875 v 1.2421875 c 0,0.3984375 -0.03516,0.4335937 -0.410156,0.46875 v 0.1523437 h 1.382812 V 6.6251672 c -0.46875,-0.035156 -0.492187,-0.070312 -0.492187,-0.46875 V 5.0548547 c 0.128906,-0.3398438 0.316406,-0.515625 0.480468,-0.515625 0.09375,0 0.164063,0.035156 0.246094,0.1289062 0.03516,0.035156 0.09375,0.035156 0.164063,0.011719 0.117187,-0.058594 0.1875,-0.1757813 0.1875,-0.2929688 0,-0.1523437 -0.140625,-0.3046875 -0.339844,-0.3046875 -0.292969,0 -0.550781,0.3398438 -0.726563,0.6328125 z m 0,0"
           style="fill:#231f20;fill-opacity:1;fill-rule:nonzero;stroke:none" />
        <path
           id="path9"
           d="m -85.623977,2.8898156 c -0.164062,0.1757813 -0.234375,0.234375 -0.46875,0.234375 h -3.386718 c -0.246094,0 -0.339844,-0.023437 -0.445313,-0.234375 h -0.1875 c -0.105469,0.5039063 -0.257812,1.078125 -0.421875,1.6054688 h 0.269531 c 0.152344,-0.3632813 0.304688,-0.6328125 0.445313,-0.8085938 0.164062,-0.1992187 0.328125,-0.2695312 1.101562,-0.2695312 h 0.457032 l -0.855469,4.4648437 c -0.128906,0.7148438 -0.1875,0.7851563 -0.949219,0.8320313 l -0.05859,0.2460937 h 2.449219 l 0.05859,-0.2460937 c -0.808594,-0.046875 -0.878906,-0.1054688 -0.738281,-0.8320313 l 0.832031,-4.4648437 h 0.539062 c 0.703125,0 0.890625,0.058594 0.972657,0.28125 0.08203,0.1875 0.105468,0.4570312 0.105468,0.796875 l 0.269532,-0.023437 c 0.05859,-0.4921875 0.128906,-1.171875 0.210937,-1.5820313 z m 0,0"
           style="fill:#231f20;fill-opacity:1;fill-rule:nonzero;stroke:none" />
        <path
           id="path10"
           d="M -84.827102,8.895675 V 8.2511438 c -0.292968,0.1171875 -0.550781,0.1875 -0.855468,0.2460937 v 0.1289063 c 0.351562,0.046875 0.375,0.070312 0.375,0.46875 v 1.2421872 c 0,0.398438 -0.03516,0.433594 -0.410157,0.46875 v 0.152344 h 1.382813 v -0.152344 c -0.46875,-0.03516 -0.492188,-0.07031 -0.492188,-0.46875 V 9.2355188 c 0.128907,-0.3398438 0.316407,-0.515625 0.480469,-0.515625 0.09375,0 0.164063,0.035156 0.246094,0.1289062 0.03516,0.035156 0.09375,0.035156 0.164062,0.011719 0.117188,-0.058594 0.1875,-0.1757813 0.1875,-0.2929688 0,-0.1523437 -0.140625,-0.3046875 -0.339843,-0.3046875 -0.292969,0 -0.550782,0.3398438 -0.726563,0.6328125 z m 0,0"
           style="fill:#231f20;fill-opacity:1;fill-rule:nonzero;stroke:none" />
        <path
           id="path11"
           d="m -123.22359,6.3058313 c -0.16406,0.1757812 -0.23437,0.234375 -0.46875,0.234375 h -3.38671 c -0.2461,0 -0.33985,-0.023437 -0.44532,-0.234375 h -0.1875 c -0.10547,0.5039062 -0.25781,1.078125 -0.42187,1.6054687 h 0.26953 c 0.15234,-0.3632812 0.30469,-0.6328125 0.44531,-0.8085937 0.16406,-0.1992188 0.32813,-0.2695313 1.10156,-0.2695313 h 0.45704 l -0.85547,4.464844 c -0.12891,0.714844 -0.1875,0.785156 -0.94922,0.832031 l -0.0586,0.246094 h 2.44922 l 0.0586,-0.246094 c -0.8086,-0.04687 -0.87891,-0.105469 -0.73828,-0.832031 l 0.83203,-4.464844 h 0.53906 c 0.70312,0 0.89062,0.058594 0.97266,0.28125 0.082,0.1875 0.10546,0.4570313 0.10546,0.796875 l 0.26954,-0.023437 c 0.0586,-0.4921875 0.1289,-1.171875 0.21093,-1.5820312 z m 0,0"
           style="fill:#231f20;fill-opacity:1;fill-rule:nonzero;stroke:none" />
        <path
           id="path12"
           d="m -122.42671,12.31462 v -0.644531 c -0.29297,0.117188 -0.55078,0.1875 -0.85547,0.246094 v 0.128906 c 0.35156,0.04687 0.375,0.07031 0.375,0.46875 v 1.242188 c 0,0.398437 -0.0352,0.433593 -0.41016,0.46875 v 0.152343 h 1.38282 v -0.152343 c -0.46875,-0.03516 -0.49219,-0.07031 -0.49219,-0.46875 v -1.101563 c 0.12891,-0.339844 0.31641,-0.515625 0.48047,-0.515625 0.0937,0 0.16406,0.03516 0.24609,0.128906 0.0352,0.03516 0.0937,0.03516 0.16406,0.01172 0.11719,-0.05859 0.1875,-0.175781 0.1875,-0.292969 0,-0.152343 -0.14062,-0.304687 -0.33984,-0.304687 -0.29297,0 -0.55078,0.339844 -0.72656,0.632812 z m 0,0"
           style="fill:#231f20;fill-opacity:1;fill-rule:nonzero;stroke:none" />
        <path
           id="path13"
           d="m -154.92866,9.7218469 c -0.16407,0.1757812 -0.23438,0.234375 -0.46875,0.234375 h -3.38672 c -0.2461,0 -0.33985,-0.023437 -0.44532,-0.234375 h -0.1875 c -0.10546,0.5039061 -0.25781,1.0781251 -0.42187,1.6054691 h 0.26953 c 0.15234,-0.363282 0.30469,-0.632813 0.44531,-0.808594 0.16407,-0.199219 0.32813,-0.269531 1.10157,-0.269531 h 0.45703 l -0.85547,4.464843 c -0.12891,0.714844 -0.1875,0.785157 -0.94922,0.832032 l -0.0586,0.246093 h 2.44921 l 0.0586,-0.246093 c -0.8086,-0.04687 -0.87891,-0.105469 -0.73828,-0.832032 l 0.83203,-4.464843 h 0.53906 c 0.70313,0 0.89063,0.05859 0.97266,0.28125 0.082,0.1875 0.10547,0.457031 0.10547,0.796875 l 0.26953,-0.02344 c 0.0586,-0.492187 0.1289,-1.171875 0.21093,-1.5820311 z m 0,0"
           style="fill:#231f20;fill-opacity:1;fill-rule:nonzero;stroke:none" />
        <path
           id="path14"
           d="m -154.13179,15.730636 v -0.644531 c -0.29297,0.117187 -0.55078,0.1875 -0.85547,0.246093 v 0.128907 c 0.35156,0.04687 0.375,0.07031 0.375,0.46875 v 1.242187 c 0,0.398438 -0.0352,0.433594 -0.41015,0.46875 v 0.152344 h 1.38281 v -0.152344 c -0.46875,-0.03516 -0.49219,-0.07031 -0.49219,-0.46875 V 16.07048 c 0.12891,-0.339844 0.31641,-0.515625 0.48047,-0.515625 0.0937,0 0.16406,0.03516 0.24609,0.128906 0.0352,0.03516 0.0937,0.03516 0.16407,0.01172 0.11718,-0.05859 0.1875,-0.175782 0.1875,-0.292969 0,-0.152344 -0.14063,-0.304688 -0.33985,-0.304688 -0.29297,0 -0.55078,0.339844 -0.72656,0.632813 z m 0,0"
           style="fill:#231f20;fill-opacity:1;fill-rule:nonzero;stroke:none" />
      </g>
      <path
         id="path15"
         d="M 49.375,406.953 1890.7,590.418 1889.96,597.883 48.6328,414.414"
         style="fill:#231f20;fill-opacity:1;fill-rule:nonzero;stroke:none"
         transform="matrix(0.13333333,0,0,-0.13333333,0,100.13333)" />
      <path
         id="path16"
         d="m 1879.62,593.082 -15.24,20.211 0.7,0.555 36.45,-10.434 c 12.49,-1.473 24.98,-2.941 37.47,-4.414 -11.95,-3.906 -23.9,-7.812 -35.86,-11.719 l -33.69,-17.426 -0.77,0.293 10.94,22.934"
         style="fill:#231f20;fill-opacity:1;fill-rule:nonzero;stroke:none"
         transform="matrix(0.13333333,0,0,-0.13333333,0,100.13333)" />
      <path
         id="path17"
         d="m 49.0039,410.684 c 0,-12.84 -10.4101,-23.25 -23.25,-23.25 -12.8437,0 -23.2539,10.41 -23.2539,23.25 0,12.839 10.4102,23.254 23.2539,23.254 12.8399,0 23.25,-10.415 23.25,-23.254"
         style="fill:#ffffff;fill-opacity:1;fill-rule:nonzero;stroke:none"
         transform="matrix(0.13333333,0,0,-0.13333333,0,100.13333)" />
      <path
         id="path18"
         d="m 49.0039,410.684 h -2.5 c -0.0195,-11.461 -9.293,-20.731 -20.75,-20.75 C 14.293,389.953 5.01953,399.223 5,410.684 c 0.01953,11.461 9.293,20.73 20.7539,20.754 11.457,-0.024 20.7305,-9.293 20.75,-20.754 h 2.5 2.5 c 0,14.222 -11.5273,25.75 -25.75,25.754 C 11.5273,436.434 0,424.906 0,410.684 c 0,-14.223 11.5273,-25.75 25.7539,-25.75 14.2227,0 25.75,11.527 25.75,25.75 h -2.5"
         style="fill:#231f20;fill-opacity:1;fill-rule:nonzero;stroke:none"
         transform="matrix(0.13333333,0,0,-0.13333333,0,100.13333)" />
      <path
         id="path19"
         d="M 1810.48,2.5 V 5 H 202.098 l 0.004,741.047 H 1807.98 V 2.5 h 2.5 V 5 2.5 h 2.5 V 751.047 H 197.102 V 0 H 1812.98 v 2.5 h -2.5"
         style="fill:#231f20;fill-opacity:1;fill-rule:nonzero;stroke:none"
         transform="matrix(0.13333333,0,0,-0.13333333,0,100.13333)" />
      <path
         id="path20"
         d="m 471.355,450.449 c 0,-12.844 -10.41,-23.254 -23.25,-23.254 -12.839,0 -23.25,10.41 -23.25,23.254 0,12.836 10.411,23.25 23.25,23.25 12.84,0 23.25,-10.414 23.25,-23.25"
         style="fill:#231f20;fill-opacity:1;fill-rule:nonzero;stroke:none"
         transform="matrix(0.13333333,0,0,-0.13333333,0,100.13333)" />
      <path
         id="path21"
         d="m 471.355,450.449 h -2.5 c -0.019,-11.461 -9.289,-20.73 -20.75,-20.754 -11.46,0.024 -20.73,9.293 -20.753,20.754 0.023,11.453 9.293,20.731 20.753,20.75 11.461,-0.019 20.731,-9.297 20.75,-20.75 h 2.5 2.5 c 0,14.219 -11.527,25.75 -25.75,25.75 -14.222,0 -25.75,-11.531 -25.753,-25.75 0.003,-14.222 11.531,-25.75 25.753,-25.754 14.223,0.004 25.75,11.532 25.75,25.754 h -2.5"
         style="fill:#231f20;fill-opacity:1;fill-rule:nonzero;stroke:none"
         transform="matrix(0.13333333,0,0,-0.13333333,0,100.13333)" />
      <path
         id="path22"
         d="m 737.789,476.992 c 0,-12.844 -10.418,-23.254 -23.254,-23.254 -12.84,0 -23.25,10.41 -23.25,23.254 0,12.844 10.41,23.25 23.25,23.25 12.836,0 23.254,-10.406 23.254,-23.25"
         style="fill:#231f20;fill-opacity:1;fill-rule:nonzero;stroke:none"
         transform="matrix(0.13333333,0,0,-0.13333333,0,100.13333)" />
      <path
         id="path23"
         d="m 737.789,476.992 h -2.5 c -0.023,-11.461 -9.297,-20.73 -20.754,-20.754 -11.461,0.024 -20.73,9.293 -20.75,20.754 0.02,11.461 9.289,20.731 20.75,20.75 11.457,-0.019 20.731,-9.289 20.754,-20.75 h 2.5 2.5 c -0.004,14.223 -11.535,25.75 -25.754,25.75 -14.222,0 -25.75,-11.527 -25.75,-25.75 0,-14.222 11.528,-25.75 25.75,-25.754 14.219,0.004 25.75,11.532 25.754,25.754 h -2.5"
         style="fill:#231f20;fill-opacity:1;fill-rule:nonzero;stroke:none"
         transform="matrix(0.13333333,0,0,-0.13333333,0,100.13333)" />
      <path
         id="path24"
         d="m 1184.37,521.488 c 0,-12.84 -10.41,-23.25 -23.26,-23.25 -12.84,0 -23.25,10.41 -23.25,23.25 0,12.848 10.41,23.258 23.25,23.258 12.85,0 23.26,-10.41 23.26,-23.258"
         style="fill:#231f20;fill-opacity:1;fill-rule:nonzero;stroke:none"
         transform="matrix(0.13333333,0,0,-0.13333333,0,100.13333)" />
      <path
         id="path25"
         d="m 1184.37,521.488 h -2.5 c -0.03,-11.461 -9.3,-20.73 -20.76,-20.75 -11.46,0.02 -20.73,9.289 -20.75,20.75 0.02,11.465 9.29,20.739 20.75,20.758 11.46,-0.019 20.73,-9.293 20.76,-20.758 h 2.5 2.5 c -0.01,14.231 -11.53,25.758 -25.76,25.758 -14.22,0 -25.75,-11.527 -25.75,-25.758 0,-14.222 11.53,-25.75 25.75,-25.75 14.23,0 25.75,11.528 25.76,25.75 h -2.5"
         style="fill:#231f20;fill-opacity:1;fill-rule:nonzero;stroke:none"
         transform="matrix(0.13333333,0,0,-0.13333333,0,100.13333)" />
      <path
         id="path26"
         d="m 1526.73,555.605 c 0,-12.847 -10.41,-23.261 -23.26,-23.261 -12.84,0 -23.26,10.414 -23.26,23.261 0,12.84 10.42,23.25 23.26,23.25 12.85,0 23.26,-10.41 23.26,-23.25"
         style="fill:#231f20;fill-opacity:1;fill-rule:nonzero;stroke:none"
         transform="matrix(0.13333333,0,0,-0.13333333,0,100.13333)" />
      <path
         id="path27"
         d="m 1526.73,555.605 h -2.5 c -0.02,-11.464 -9.29,-20.742 -20.76,-20.761 -11.46,0.019 -20.73,9.297 -20.76,20.761 0.03,11.461 9.3,20.731 20.76,20.754 11.47,-0.023 20.74,-9.293 20.76,-20.754 h 2.5 2.5 c 0,14.223 -11.53,25.75 -25.76,25.75 -14.23,0 -25.75,-11.527 -25.76,-25.75 0.01,-14.226 11.53,-25.757 25.76,-25.761 14.23,0 25.76,11.535 25.76,25.761 h -2.5"
         style="fill:#231f20;fill-opacity:1;fill-rule:nonzero;stroke:none"
         transform="matrix(0.13333333,0,0,-0.13333333,0,100.13333)" />
      <path
         id="path28"
         d="m 1833.73,586.191 c 0,-12.839 -10.41,-23.25 -23.25,-23.25 -12.84,0 -23.25,10.411 -23.25,23.25 0,12.84 10.41,23.25 23.25,23.25 12.84,0 23.25,-10.41 23.25,-23.25"
         style="fill:#ffffff;fill-opacity:1;fill-rule:nonzero;stroke:none"
         transform="matrix(0.13333333,0,0,-0.13333333,0,100.13333)" />
      <path
         id="path29"
         d="m 1833.73,586.191 h -2.5 c -0.02,-11.461 -9.29,-20.73 -20.75,-20.75 -11.46,0.02 -20.73,9.289 -20.75,20.75 0.02,11.461 9.29,20.731 20.75,20.75 11.46,-0.019 20.73,-9.289 20.75,-20.75 h 2.5 2.5 c 0,14.223 -11.53,25.75 -25.75,25.75 -14.22,0 -25.75,-11.527 -25.75,-25.75 0,-14.222 11.53,-25.75 25.75,-25.75 14.22,0 25.75,11.528 25.75,25.75 h -2.5"
         style="fill:#231f20;fill-opacity:1;fill-rule:nonzero;stroke:none"
         transform="matrix(0.13333333,0,0,-0.13333333,0,100.13333)" />
    </g>
  </g>
</svg>
