<?xml version="1.0" encoding="UTF-8" standalone="no"?>
<!-- Created with Inkscape (http://www.inkscape.org/) -->

<svg
   version="1.1"
   id="svg1"
   width="330.58667"
   height="97.639999"
   viewBox="0 0 330.58667 97.639999"
   sodipodi:docname="pha14f08.eps"
   xmlns:inkscape="http://www.inkscape.org/namespaces/inkscape"
   xmlns:sodipodi="http://sodipodi.sourceforge.net/DTD/sodipodi-0.dtd"
   xmlns="http://www.w3.org/2000/svg"
   xmlns:svg="http://www.w3.org/2000/svg">
  <defs
     id="defs1" />
  <sodipodi:namedview
     id="namedview1"
     pagecolor="#ffffff"
     bordercolor="#000000"
     borderopacity="0.25"
     inkscape:showpageshadow="2"
     inkscape:pageopacity="0.0"
     inkscape:pagecheckerboard="0"
     inkscape:deskcolor="#d1d1d1">
    <inkscape:page
       x="0"
       y="0"
       inkscape:label="1"
       id="page1"
       width="330.58667"
       height="97.639999"
       margin="0"
       bleed="0" />
  </sodipodi:namedview>
  <g
     id="g1"
     inkscape:groupmode="layer"
     inkscape:label="1">
    <g
       id="group-R5">
      <path
         id="path2"
         d="m 1493.85,-0.00390625 c -88.05,0 -177.17,12.51170625 -264.55,25.09370625 -7.69,1.1016 -16.05,2.5508 -21.15,8.1563 -11.03,12.1289 1.03,33.6445 -9.58,46.0937 -45.94,-21.9804 -102.78,-6.7265 -151.11,-23.3476 -21.51,-7.3867 -40.53,-20.8711 -62.651,-26.3711 -8.36,-2.082 -16.836,-2.957 -25.368,-2.957 -22.48,0 -45.304,6.0742 -67.179,12.125 -23.512,6.5039 -48.774,14.1484 -63.125,33.1211 -15.715,20.7695 -13.731,48.8748 -11.071,74.3948 -2.55,0.804 -5.074,1.172 -7.57,1.172 -14.992,0 -29.16,-13.344 -43.601,-26.696 -14.442,-13.347 -29.157,-26.6951 -45.247,-26.6951 -0.093,0 -0.187,0 -0.281,0 -1.832,0.0196 -3.887,0.0274 -6.133,0.0274 -2.379,0 -4.98,-0.0078 -7.765,-0.0156 -2.789,-0.0079 -5.754,-0.0118 -8.883,-0.0118 -47.008,0 -128.793,1.5743 -137.086,28.4371 -11.875,38.473 12.926,90.313 1.238,141.266 0.032,21.27 10.801,20.629 -0.304,39.285 -10.836,18.199 76.101,27.594 94.379,39.117 30.203,19.043 60.402,38.086 90.605,57.129 -0.477,-0.074 -0.941,-0.109 -1.402,-0.109 -15.567,0 -22.707,40.969 -38.551,44.578 7.629,22.418 73.758,39.887 133.371,48.113 12.859,1.782 27.301,3.641 35.227,13.493 3.894,4.835 5.578,10.953 8.718,16.265 9.414,15.918 29.891,22.086 48.68,25.395 20.84,3.668 42.023,5.496 63.211,5.496 26.568,0 53.138,-2.879 79.018,-8.621 -12.82,7.847 -14.54,26.39 -6.95,39.015 7.6,12.618 21.89,20.184 36.24,25.047 12.82,4.344 26.61,6.942 40.22,6.942 13.49,0 26.81,-2.559 38.79,-8.496 24.06,-11.922 40.32,-39.817 32.41,-64.618 l 7.54,6.028 c 21.65,27.078 57.17,40.804 92.62,40.804 32.9,0 65.74,-11.836 87.32,-35.816 16.37,22.59 33.5,45.879 58.19,59.937 21.84,12.442 47.26,16.344 72.98,16.344 11.96,0 24,-0.847 35.76,-2.07 51.56,-5.371 108.6,-21.324 132.81,-65.227 47.27,19.993 96.73,35.235 147.3,45.422 11.83,2.387 23.85,4.496 35.89,4.496 2.72,0 5.45,-0.109 8.18,-0.347 17.29,-1.516 33.56,-8.172 49.52,-14.746 29.11,-11.993 58.22,-23.985 87.34,-35.985 16.68,-6.867 33.91,-14.101 46.06,-27.004 11.73,-12.433 17.53,-28.894 21.93,-45.117 7.21,-26.621 11.4,-53.992 12.5,-81.484 4.2,-27.387 34.63,-14.95 13.85,-70.082 -1.84,-59.918 -21.54,-81.254 -23.86,-109.614 -0.23,-2.73 -1.07,-3.847 -2.49,-3.847 -3.23,0 -9.45,5.746 -18.19,11.492 -8.75,5.746 -20.03,11.492 -33.4,11.492 -6.66,0 -13.84,-1.426 -21.48,-4.992 -69.8,-32.574 -139.55,-40.922 -207.16,-76.637 15.64,6.262 31.97,12.641 48.75,12.641 1.82,0 3.65,-0.074 5.47,-0.235 18.71,-1.613 37.75,-15.07 38.14,-33.043 0.28,-13.308 -9.18,-24.773 -18.19,-34.917 -26.97,-30.3911 -60.66,-63.0786 -101.44,-63.0786 -2.1,0 -4.22,0.0859 -6.35,0.2656 -21.22,1.7656 -40.28,12.5977 -58.51,23.1523 C 1723.63,40.7578 1689.89,25.7578 1660.4,18.5117 1605.8,5.08984 1550.04,-0.00390625 1493.85,-0.00390625"
         style="fill:#e2e1e2;fill-opacity:1;fill-rule:nonzero;stroke:none"
         transform="matrix(0.13333333,0,0,-0.13333333,0,97.64)" />
      <path
         id="path3"
         d="m 1372.68,77.1445 c 0,-12.8437 -10.41,-23.2539 -23.26,-23.2539 -12.84,0 -23.25,10.4102 -23.25,23.2539 0,12.8399 10.41,23.2505 23.25,23.2505 12.85,0 23.26,-10.4106 23.26,-23.2505"
         style="fill:#231f20;fill-opacity:1;fill-rule:nonzero;stroke:none"
         transform="matrix(0.13333333,0,0,-0.13333333,0,97.64)" />
      <path
         id="path4"
         d="m 1372.68,77.1445 h -2.5 c -0.03,-11.4609 -9.3,-20.7304 -20.76,-20.7539 -11.46,0.0235 -20.73,9.293 -20.75,20.7539 0.02,11.461 9.29,20.7305 20.75,20.75 11.46,-0.0195 20.73,-9.289 20.76,-20.75 h 2.5 2.5 c -0.01,14.2227 -11.53,25.7505 -25.76,25.7505 -14.22,0 -25.75,-11.5278 -25.75,-25.7505 0,-14.2226 11.53,-25.75 25.75,-25.7539 14.23,0.0039 25.75,11.5313 25.76,25.7539 h -2.5"
         style="fill:#231f20;fill-opacity:1;fill-rule:nonzero;stroke:none"
         transform="matrix(0.13333333,0,0,-0.13333333,0,97.64)" />
      <path
         id="path5"
         d="m 1022.71,283.77 324.68,-209.7778 4.07,6.3008 -324.68,209.777"
         style="fill:#231f20;fill-opacity:1;fill-rule:nonzero;stroke:none"
         transform="matrix(0.13333333,0,0,-0.13333333,0,97.64)" />
      <path
         id="path6"
         d="m 1048,286.918 c 0,-12.84 -10.41,-23.25 -23.25,-23.25 -12.85,0 -23.26,10.41 -23.26,23.25 0,12.844 10.41,23.254 23.26,23.254 12.84,0 23.25,-10.41 23.25,-23.254"
         style="fill:#231f20;fill-opacity:1;fill-rule:nonzero;stroke:none"
         transform="matrix(0.13333333,0,0,-0.13333333,0,97.64)" />
      <path
         id="path7"
         d="m 1048,286.918 h -2.5 c -0.02,-11.457 -9.29,-20.73 -20.75,-20.75 -11.47,0.02 -20.74,9.293 -20.76,20.75 0.02,11.461 9.29,20.73 20.76,20.754 11.46,-0.024 20.73,-9.293 20.75,-20.754 h 2.5 2.5 c 0,14.227 -11.53,25.75 -25.75,25.754 -14.23,0 -25.758,-11.527 -25.762,-25.754 0.004,-14.223 11.532,-25.75 25.762,-25.75 14.22,0 25.75,11.527 25.75,25.75 h -2.5"
         style="fill:#231f20;fill-opacity:1;fill-rule:nonzero;stroke:none"
         transform="matrix(0.13333333,0,0,-0.13333333,0,97.64)" />
      <path
         id="path8"
         d="m 256.996,546.441 c 24.852,-72.105 3.82,-129.113 -58.113,-158.316 -55.5,75.148 -119.2541,117.902 -167.2189,147.773 2.2656,-0.203 4.4843,-0.562 6.914,-0.804 64.8829,-7.735 131.8199,-15.813 218.4179,11.347"
         style="fill:#cecdcd;fill-opacity:1;fill-rule:nonzero;stroke:none"
         transform="matrix(0.13333333,0,0,-0.13333333,0,97.64)" />
      <path
         id="path9"
         d="m 269.301,550.551 c 26.465,-77.145 3.25,-141.024 -62.715,-173.235 6.652,-9.566 13.273,-19.468 19.574,-30.031 l -11.137,-6.597 C 150.895,447.227 66.9766,498.813 11.4688,532.965 L 0,540.168 c 0,0 2.34766,2.406 3.36328,5.422 1.03516,3 0.75391,6.555 0.75391,6.555 12.10161,-1.332 24.02731,-2.622 35.93751,-4.102 76.9413,-9.219 149.5703,-18.07 254.6683,26.043 l 5.023,-11.922 c -10.41,-4.426 -20.531,-8.184 -30.445,-11.613 z M 198.883,388.125 c 61.933,29.203 82.965,86.211 58.113,158.316 -86.598,-27.16 -153.535,-19.082 -218.4179,-11.347 -2.4297,0.242 -4.6484,0.601 -6.914,0.804 C 79.6289,506.027 143.383,463.273 198.883,388.125"
         style="fill:#231f20;fill-opacity:1;fill-rule:nonzero;stroke:none"
         transform="matrix(0.13333333,0,0,-0.13333333,0,97.64)" />
      <path
         id="path10"
         d="m 254.047,455.316 c -10.352,-26.453 -32.363,-42.55 -49.141,-35.984 -16.816,6.625 -21.992,33.383 -11.621,59.801 10.371,26.457 32.395,42.551 49.172,35.976 16.797,-6.582 21.992,-33.367 11.59,-59.793"
         style="fill:#ffffff;fill-opacity:1;fill-rule:nonzero;stroke:none"
         transform="matrix(0.13333333,0,0,-0.13333333,0,97.64)" />
      <path
         id="path11"
         d="m 247.035,451.891 c -4.945,-11.075 -16.648,-16.625 -26.16,-12.368 -9.523,4.227 -13.215,16.629 -8.281,27.719 4.949,11.086 16.644,16.649 26.179,12.406 9.493,-4.246 13.196,-16.66 8.262,-27.757"
         style="fill:#231f20;fill-opacity:1;fill-rule:nonzero;stroke:none"
         transform="matrix(0.13333333,0,0,-0.13333333,0,97.64)" />
      <path
         id="path12"
         d="m 1347.53,73.8203 13.28,6.961 -3.48,6.6445 -13.28,-6.961"
         style="fill:#231f20;fill-opacity:1;fill-rule:nonzero;stroke:none"
         transform="matrix(0.13333333,0,0,-0.13333333,0,97.64)" />
      <path
         id="path13"
         d="m 1378.87,90.2383 27.1,14.1877 -3.48,6.644 -27.1,-14.1872 z m 45.16,23.6487 27.09,14.187 -3.48,6.645 -27.09,-14.192 z m 45.15,23.644 27.1,14.188 -3.48,6.644 -27.1,-14.187 z m 45.16,23.649 27.09,14.187 -3.48,6.645 -27.09,-14.188 z m 45.15,23.644 27.1,14.192 -3.48,6.644 -27.1,-14.191 z m 45.16,23.649 27.09,14.187 -3.48,6.645 -27.09,-14.188 z m 45.15,23.648 27.1,14.188 -3.48,6.644 -27.1,-14.187 z m 45.16,23.649 27.09,14.187 -3.48,6.645 -27.09,-14.192 z m 45.15,23.644 27.1,14.188 -3.48,6.644 -27.1,-14.187 z m 45.16,23.649 27.09,14.187 -3.48,6.645 -27.09,-14.188 z m 45.15,23.648 27.1,14.187 -3.48,6.641 -27.09,-14.187 z m 45.16,23.644 27.09,14.188 -3.48,6.645 L 1872.1,357 Z m 45.15,23.649 27.1,14.187 -3.48,6.645 -27.09,-14.188 z m 45.16,23.644 27.09,14.192 -3.48,6.644 -27.09,-14.191 z m 45.15,23.649 27.1,14.187 -3.48,6.645 -27.09,-14.188 z m 45.16,23.648 27.09,14.188 -3.48,6.644 -27.09,-14.187 z m 45.15,23.649 27.1,14.187 -3.48,6.645 -27.09,-14.192 z m 45.16,23.644 27.09,14.188 -3.48,6.644 -27.09,-14.187"
         style="fill:#231f20;fill-opacity:1;fill-rule:nonzero;stroke:none"
         transform="matrix(0.13333333,0,0,-0.13333333,0,97.64)" />
      <path
         id="path14"
         d="m 2191.67,515.887 13.29,6.957 -3.48,6.644 -13.29,-6.957"
         style="fill:#231f20;fill-opacity:1;fill-rule:nonzero;stroke:none"
         transform="matrix(0.13333333,0,0,-0.13333333,0,97.64)" />
      <path
         id="path15"
         d="m 384.961,442.184 638.899,-155.293 1.77,7.285 -638.9,155.293"
         style="fill:#231f20;fill-opacity:1;fill-rule:nonzero;stroke:none"
         transform="matrix(0.13333333,0,0,-0.13333333,0,97.64)" />
      <path
         id="path16"
         d="m 2347.66,729.762 9.7,-37.637 17.32,34.801 1.66,-38.836 24.18,30.441 -6.44,-38.332 29.98,24.746 -14.28,-36.156 34.46,17.981 -21.47,-32.399 37.44,10.414 -27.74,-27.222 38.79,2.402 -32.8,-20.86 38.45,-5.71 -36.42,-13.59 36.42,-13.582 -38.45,-5.715 32.8,-20.863 -38.79,2.406 27.74,-27.223 -37.44,10.41 21.47,-32.39 -34.46,17.968 14.28,-36.152 -29.98,24.75 6.44,-38.336 -24.18,30.445 -1.66,-38.843 -17.32,34.804 -9.7,-37.64 -9.71,37.64 -17.31,-34.804 -1.66,38.843 -24.18,-30.445 6.45,38.336 -29.98,-24.75 14.27,36.152 -34.45,-17.968 21.47,32.39 -37.45,-10.41 27.75,27.223 -38.79,-2.406 32.79,20.863 -38.45,5.715 36.43,13.582 -36.43,13.59 38.45,5.71 -32.79,20.86 38.79,-2.402 -27.75,27.222 37.45,-10.414 -21.47,32.399 34.45,-17.981 -14.27,36.156 29.98,-24.746 -6.45,38.332 24.18,-30.441 1.66,38.836 17.31,-34.801 9.71,37.637"
         style="fill:#fddd1b;fill-opacity:1;fill-rule:nonzero;stroke:none"
         transform="matrix(0.13333333,0,0,-0.13333333,0,97.64)" />
      <path
         id="path17"
         d="m 2347.66,729.762 -2.42,-0.625 9.7,-37.637 c 0.26,-1.008 1.12,-1.754 2.16,-1.863 1.03,-0.11 2.03,0.441 2.5,1.375 l 13,26.117 1.24,-29.145 c 0.05,-1.039 0.74,-1.949 1.73,-2.269 0.99,-0.324 2.08,0.004 2.73,0.82 l 18.15,22.848 -4.84,-28.77 c -0.17,-1.027 0.31,-2.058 1.22,-2.578 0.9,-0.519 2.04,-0.426 2.84,0.238 l 22.5,18.575 -10.72,-27.141 c -0.38,-0.969 -0.12,-2.078 0.66,-2.777 0.77,-0.696 1.9,-0.84 2.83,-0.356 l 25.86,13.492 -16.12,-24.316 0.07,-2.848 c 0.61,-0.843 1.68,-1.218 2.69,-0.941 l 28.1,7.816 -20.83,-20.429 c -0.74,-0.731 -0.95,-1.848 -0.53,-2.801 0.43,-0.953 1.4,-1.543 2.44,-1.477 l 29.12,1.801 -24.62,-15.656 c -0.88,-0.559 -1.32,-1.61 -1.1,-2.629 0.21,-1.02 1.04,-1.801 2.07,-1.953 l 28.86,-4.285 -27.33,-10.2 c -0.98,-0.367 -1.63,-1.3 -1.63,-2.343 0,-1.043 0.65,-1.977 1.63,-2.34 l 27.33,-10.195 -28.86,-4.29 c -1.03,-0.152 -1.86,-0.933 -2.07,-1.953 -0.22,-1.019 0.22,-2.07 1.1,-2.629 l 24.62,-15.66 -29.12,1.809 c -1.04,0.062 -2.01,-0.527 -2.44,-1.481 -0.42,-0.949 -0.21,-2.07 0.53,-2.8 l 20.83,-20.43 -28.1,7.812 c -1.01,0.278 -2.08,-0.097 -2.69,-0.937 l -0.07,-2.852 16.12,-24.312 -25.86,13.484 c -0.93,0.485 -2.06,0.34 -2.83,-0.359 -0.78,-0.695 -1.04,-1.805 -0.66,-2.774 l 10.72,-27.132 -22.5,18.578 c -0.8,0.66 -1.94,0.758 -2.84,0.234 -0.91,-0.519 -1.39,-1.551 -1.22,-2.578 l 4.84,-28.773 -18.15,22.851 c -0.65,0.817 -1.74,1.145 -2.73,0.824 -0.99,-0.324 -1.68,-1.23 -1.73,-2.273 l -1.24,-29.152 -13,26.125 c -0.47,0.929 -1.47,1.48 -2.5,1.371 -1.04,-0.11 -1.9,-0.856 -2.16,-1.864 l -7.28,-28.25 -7.29,28.25 c -0.26,1.008 -1.12,1.754 -2.15,1.864 -1.04,0.109 -2.04,-0.442 -2.5,-1.375 l -13,-26.118 -1.24,29.149 c -0.05,1.043 -0.74,1.949 -1.73,2.273 -0.99,0.321 -2.08,-0.007 -2.73,-0.824 l -18.15,-22.851 4.84,28.773 c 0.17,1.027 -0.31,2.059 -1.22,2.578 -0.9,0.524 -2.03,0.426 -2.84,-0.234 l -22.49,-18.578 10.71,27.132 c 0.38,0.969 0.12,2.079 -0.66,2.778 -0.77,0.695 -1.9,0.84 -2.82,0.355 l -25.86,-13.484 16.12,24.312 -0.06,2.852 c -0.62,0.84 -1.69,1.215 -2.7,0.937 l -28.11,-7.812 20.83,20.43 c 0.74,0.73 0.95,1.851 0.53,2.8 -0.42,0.954 -1.4,1.543 -2.44,1.481 l -29.11,-1.809 24.61,15.66 c 0.88,0.559 1.32,1.61 1.11,2.629 -0.22,1.02 -1.05,1.801 -2.08,1.953 l -28.85,4.29 27.33,10.195 c 0.98,0.359 1.63,1.297 1.63,2.34 0,1.043 -0.65,1.976 -1.63,2.343 l -27.34,10.2 28.86,4.285 c 1.03,0.152 1.86,0.933 2.08,1.953 0.21,1.019 -0.23,2.07 -1.11,2.629 l -24.61,15.656 29.11,-1.801 c 1.04,-0.066 2.02,0.524 2.44,1.477 0.42,0.953 0.21,2.07 -0.53,2.801 l -20.83,20.429 28.11,-7.816 c 1.01,-0.277 2.08,0.098 2.7,0.941 l 0.06,2.848 -16.12,24.313 25.86,-13.489 c 0.92,-0.484 2.05,-0.34 2.82,0.356 0.78,0.699 1.04,1.808 0.66,2.777 l -10.71,27.141 22.49,-18.575 c 0.81,-0.664 1.94,-0.757 2.84,-0.238 0.91,0.52 1.39,1.551 1.22,2.578 l -4.84,28.77 18.15,-22.848 c 0.65,-0.816 1.74,-1.144 2.73,-0.82 0.99,0.32 1.68,1.23 1.73,2.269 l 1.24,29.141 13,-26.113 c 0.46,-0.934 1.46,-1.485 2.5,-1.375 1.03,0.109 1.89,0.855 2.15,1.863 l 9.71,37.637 -2.42,0.625 -2.42,-0.625 2.42,0.625 -2.42,0.625 -8.03,-31.149 -14.33,28.801 c -0.51,1.02 -1.65,1.566 -2.76,1.332 -1.12,-0.238 -1.93,-1.203 -1.98,-2.34 l -1.37,-32.136 -20.01,25.191 c -0.71,0.891 -1.94,1.191 -2.98,0.727 -1.04,-0.461 -1.63,-1.575 -1.45,-2.696 l 5.34,-31.722 -24.8,20.48 c -0.88,0.727 -2.14,0.766 -3.06,0.094 -0.93,-0.668 -1.28,-1.879 -0.86,-2.942 l 11.81,-29.922 -28.51,14.879 c -1.02,0.528 -2.26,0.305 -3.02,-0.543 -0.76,-0.847 -0.85,-2.105 -0.23,-3.054 l 17.78,-26.813 -31,8.621 c -1.1,0.305 -2.26,-0.172 -2.83,-1.16 -0.57,-0.988 -0.4,-2.234 0.41,-3.035 l 22.96,-22.527 -32.1,1.988 c -1.14,0.07 -2.18,-0.637 -2.53,-1.723 -0.35,-1.082 0.07,-2.269 1.04,-2.883 l 27.13,-17.261 -31.81,-4.727 c -1.13,-0.168 -2,-1.078 -2.12,-2.211 -0.12,-1.136 0.54,-2.207 1.61,-2.605 l 30.15,-11.246 -30.15,-11.242 c -1.07,-0.399 -1.73,-1.469 -1.61,-2.602 0.12,-1.137 0.99,-2.043 2.12,-2.215 l 31.81,-4.726 -27.13,-17.266 c -0.97,-0.613 -1.39,-1.801 -1.04,-2.883 0.35,-1.086 1.39,-1.793 2.53,-1.723 l 32.1,1.993 -22.96,-22.528 c -0.81,-0.797 -0.98,-2.047 -0.41,-3.035 0.57,-0.984 1.73,-1.465 2.83,-1.156 l 31,8.613 -17.77,-26.808 c -0.63,-0.95 -0.54,-2.207 0.22,-3.051 0.76,-0.848 2,-1.074 3.01,-0.547 l 28.52,14.871 -11.81,-29.918 c -0.42,-1.062 -0.07,-2.269 0.86,-2.941 0.92,-0.668 2.18,-0.629 3.06,0.093 l 24.8,20.485 -5.34,-31.727 c -0.18,-1.121 0.41,-2.234 1.45,-2.695 1.04,-0.465 2.27,-0.164 2.98,0.726 l 20.01,25.196 1.37,-32.145 c 0.05,-1.14 0.86,-2.101 1.98,-2.34 1.11,-0.234 2.25,0.313 2.76,1.332 l 14.33,28.805 8.03,-31.152 c 0.28,-1.102 1.28,-1.875 2.42,-1.875 1.14,0 2.14,0.773 2.42,1.875 l 8.03,31.152 14.33,-28.805 c 0.51,-1.019 1.65,-1.57 2.76,-1.332 1.12,0.239 1.93,1.2 1.98,2.34 l 1.37,32.145 20.01,-25.196 c 0.71,-0.89 1.94,-1.191 2.98,-0.726 1.04,0.461 1.64,1.574 1.45,2.695 l -5.34,31.727 24.82,-20.485 c 0.88,-0.722 2.13,-0.761 3.06,-0.093 0.92,0.672 1.27,1.879 0.85,2.941 l -11.81,29.918 28.52,-14.871 c 1.01,-0.527 2.25,-0.301 3.01,0.547 0.76,0.844 0.86,2.101 0.23,3.051 l -17.78,26.808 30.99,-8.613 c 1.1,-0.309 2.27,0.172 2.84,1.156 0.56,0.988 0.39,2.238 -0.42,3.035 l -22.96,22.528 32.11,-1.993 c 1.14,-0.07 2.18,0.637 2.53,1.723 0.35,1.082 -0.07,2.27 -1.03,2.883 l -27.15,17.266 31.82,4.726 c 1.12,0.172 2,1.078 2.12,2.215 0.11,1.133 -0.55,2.203 -1.62,2.602 l -30.13,11.242 30.13,11.246 c 1.07,0.398 1.73,1.472 1.62,2.605 -0.12,1.133 -1,2.043 -2.12,2.211 l -31.82,4.727 27.15,17.261 c 0.96,0.614 1.38,1.801 1.03,2.883 -0.35,1.086 -1.39,1.793 -2.53,1.723 L 2439,640.473 2461.96,663 c 0.81,0.801 0.98,2.047 0.42,3.035 -0.58,0.988 -1.74,1.465 -2.84,1.16 l -30.99,-8.621 17.78,26.813 c 0.63,0.949 0.53,2.207 -0.23,3.054 -0.76,0.848 -2,1.071 -3.01,0.543 l -28.52,-14.879 11.81,29.922 c 0.42,1.063 0.07,2.27 -0.85,2.942 -0.93,0.672 -2.18,0.633 -3.06,-0.094 l -24.82,-20.48 5.34,31.722 c 0.19,1.121 -0.41,2.235 -1.45,2.696 -1.04,0.464 -2.27,0.164 -2.98,-0.727 l -20.01,-25.191 -1.37,32.136 c -0.05,1.137 -0.86,2.102 -1.98,2.34 -1.11,0.234 -2.25,-0.312 -2.76,-1.332 l -14.33,-28.801 -8.03,31.149 c -0.28,1.101 -1.28,1.875 -2.42,1.875 -1.14,0 -2.14,-0.774 -2.42,-1.875 l 2.42,-0.625"
         style="fill:#231f20;fill-opacity:1;fill-rule:nonzero;stroke:none"
         transform="matrix(0.13333333,0,0,-0.13333333,0,97.64)" />
      <path
         id="path18"
         d="m 353.105,445.844 c 0,-12.426 10.075,-22.52 22.504,-22.52 12.422,0 22.496,10.094 22.496,22.52 0,12.418 -10.074,22.48 -22.496,22.48 -12.429,0 -22.504,-10.062 -22.504,-22.48"
         style="fill:#231f20;fill-opacity:1;fill-rule:nonzero;stroke:none"
         transform="matrix(0.13333333,0,0,-0.13333333,0,97.64)" />
      <path
         id="path19"
         d="m 2180.71,526.176 c 0,-12.422 10.08,-22.508 22.51,-22.508 12.41,0 22.49,10.086 22.49,22.508 0,12.422 -10.08,22.492 -22.49,22.492 -12.43,0 -22.51,-10.07 -22.51,-22.492"
         style="fill:#231f20;fill-opacity:1;fill-rule:nonzero;stroke:none"
         transform="matrix(0.13333333,0,0,-0.13333333,0,97.64)" />
      <path
         id="path20"
         d="m 1535.41,185.84 c 0,-12.418 10.07,-22.512 22.5,-22.512 12.42,0 22.5,10.094 22.5,22.512 0,12.418 -10.08,22.488 -22.5,22.488 -12.43,0 -22.5,-10.07 -22.5,-22.488"
         style="fill:#ffffff;fill-opacity:1;fill-rule:nonzero;stroke:none"
         transform="matrix(0.13333333,0,0,-0.13333333,0,97.64)" />
      <path
         id="path21"
         d="m 1535.41,185.84 h -2.5 c 0,-13.797 11.19,-25.004 25,-25.012 13.8,0.008 24.99,11.215 25,25.012 -0.01,13.801 -11.2,24.988 -25,24.988 -13.81,0 -25,-11.187 -25,-24.988 h 2.5 2.5 c 0.02,11.035 8.95,19.969 20,19.988 11.04,-0.019 19.98,-8.953 20,-19.988 -0.02,-11.035 -8.97,-19.988 -20,-20.012 -11.04,0.024 -19.98,8.977 -20,20.012 h -2.5"
         style="fill:#231f20;fill-opacity:1;fill-rule:nonzero;stroke:none"
         transform="matrix(0.13333333,0,0,-0.13333333,0,97.64)" />
      <path
         id="path22"
         d="m 1801.75,328.277 c 0,-12.422 10.08,-22.511 22.51,-22.511 12.42,0 22.49,10.089 22.49,22.511 0,12.418 -10.07,22.489 -22.49,22.489 -12.43,0 -22.51,-10.071 -22.51,-22.489"
         style="fill:#ffffff;fill-opacity:1;fill-rule:nonzero;stroke:none"
         transform="matrix(0.13333333,0,0,-0.13333333,0,97.64)" />
      <path
         id="path23"
         d="m 1801.75,328.277 h -2.5 c 0.01,-13.804 11.2,-25.007 25.01,-25.011 13.81,0.004 24.99,11.207 24.99,25.011 0,13.797 -11.18,24.989 -24.99,24.989 -13.81,0 -25,-11.188 -25.01,-24.989 h 2.5 2.5 c 0.02,11.032 8.96,19.969 20.01,19.989 11.04,-0.02 19.97,-8.953 19.99,-19.989 -0.02,-11.043 -8.95,-19.992 -19.99,-20.011 -11.05,0.019 -19.99,8.972 -20.01,20.011 h -2.5"
         style="fill:#231f20;fill-opacity:1;fill-rule:nonzero;stroke:none"
         transform="matrix(0.13333333,0,0,-0.13333333,0,97.64)" />
      <path
         id="path24"
         d="m 1936.5,398.852 c 0,-12.422 10.08,-22.504 22.5,-22.504 12.42,0 22.5,10.082 22.5,22.504 0,12.421 -10.08,22.496 -22.5,22.496 -12.42,0 -22.5,-10.075 -22.5,-22.496"
         style="fill:#ffffff;fill-opacity:1;fill-rule:nonzero;stroke:none"
         transform="matrix(0.13333333,0,0,-0.13333333,0,97.64)" />
      <path
         id="path25"
         d="m 1936.5,398.852 h -2.5 c 0,-13.801 11.19,-25 25,-25.004 13.8,0.004 25,11.203 25,25.004 0,13.804 -11.2,24.996 -25,24.996 -13.8,0 -25,-11.192 -25,-24.996 h 2.5 2.5 c 0.02,11.039 8.96,19.976 20,19.996 11.04,-0.02 19.98,-8.957 20,-19.996 -0.02,-11.039 -8.96,-19.985 -20,-20.004 -11.04,0.019 -19.98,8.965 -20,20.004 h -2.5"
         style="fill:#231f20;fill-opacity:1;fill-rule:nonzero;stroke:none"
         transform="matrix(0.13333333,0,0,-0.13333333,0,97.64)" />
    </g>
  </g>
</svg>
