<svg id="Layer_1" data-name="Layer 1" xmlns="http://www.w3.org/2000/svg" viewBox="0 0 485.7 297.54"><defs><style>.cls-1,.cls-2,.cls-6{fill:none;}.cls-1,.cls-2,.cls-5,.cls-6{stroke:#000;stroke-miterlimit:10;}.cls-1{stroke-width:0.5px;}.cls-3{fill:#a6a6a6;}.cls-4{fill:#666;}.cls-5{fill:#fcee21;stroke-width:0.3px;}.cls-6{stroke-dasharray:2;}.cls-7{fill:#bbbdbf;}.cls-8{fill:#fff;}.cls-9{fill:#212121;}</style></defs><title>BRDF</title><polygon class="cls-1" points="485.29 110.81 148.31 108.97 50.61 295.45 387.58 297.29 485.29 110.81"/><line class="cls-2" x1="267.76" y1="203.35" x2="267.76" y2="37.91"/><polygon points="273.26 42.82 267.76 38.56 262.26 42.82 267.76 29.8 273.26 42.82"/><polygon class="cls-3" points="272.06 41.26 267.76 31.11 267.76 37.92 272.06 41.26"/><polygon class="cls-4" points="263.46 41.26 267.76 31.11 267.76 37.92 263.46 41.26"/><path d="M262.72,11.62c0-1.2,0-2.19-.1-3.15h1.87l.12,1.92h.05a4.28,4.28,0,0,1,3.84-2.18c1.61,0,4.1,1,4.1,4.94v6.94h-2.11v-6.7c0-1.87-.69-3.43-2.69-3.43A3,3,0,0,0,265,12.12a3.17,3.17,0,0,0-.14,1v7h-2.11Z"/><polygon class="cls-5" points="392.78 12.26 391.2 21.93 396.15 13.47 392.82 22.69 399.25 15.29 394.28 23.74 401.95 17.64 395.52 25.04 404.18 20.45 396.5 26.54 405.86 23.62 397.19 28.19 406.92 27.05 397.56 29.95 407.34 30.61 397.6 31.74 407.09 34.19 397.32 33.51 406.19 37.66 396.71 35.2 404.67 40.91 395.8 36.74 402.58 43.82 394.63 38.1 399.99 46.3 393.22 39.21 396.99 48.26 391.63 40.05 393.67 49.64 389.92 40.58 390.16 50.38 388.14 40.79 386.58 50.47 386.35 40.67 383.04 49.89 384.62 40.22 379.66 48.68 382.99 39.46 376.57 46.86 381.53 38.41 373.86 44.51 380.29 37.12 371.63 41.7 379.31 35.61 369.96 38.53 378.63 33.96 368.89 35.1 378.25 32.2 368.48 31.54 378.21 30.41 368.72 27.96 378.5 28.64 369.62 24.49 379.11 26.95 371.14 21.24 380.01 25.41 373.23 18.33 381.19 24.05 375.83 15.85 382.6 22.94 378.83 13.89 384.18 22.1 382.14 12.51 385.89 21.57 385.65 11.77 387.68 21.36 389.24 11.68 389.46 21.48 392.78 12.26"/><line class="cls-2" x1="268.06" y1="203.35" x2="353.84" y2="81.12"/><polygon points="355.53 88.3 353.47 81.65 346.52 81.97 358.5 74.48 355.53 88.3"/><polygon class="cls-3" points="355.44 86.33 357.75 75.56 353.83 81.13 355.44 86.33"/><polygon class="cls-4" points="348.4 81.39 357.75 75.56 353.83 81.13 348.4 81.39"/><path d="M374.32,76.55c0,1.24.7,2.2,1.66,2.2s2-1.24,2-3.84a6.6,6.6,0,0,0-1.6-4.54v-.06h1.66A6.25,6.25,0,0,1,379.72,75c0,3.6-1.82,5.26-3.66,5.26a2.61,2.61,0,0,1-2.52-1.72h-.08a2.71,2.71,0,0,1-2.56,1.72c-1.68,0-3.54-1.42-3.54-5.1a7,7,0,0,1,1.7-4.8h1.62v.06a7,7,0,0,0-1.6,4.7c0,2.7,1.14,3.68,2.06,3.68s1.6-1,1.6-2.18l0-3.7h1.66Z"/><path d="M382.47,75.42a.6.6,0,0,1-.65.63.61.61,0,0,1-.62-.63.63.63,0,0,1,.64-.64A.61.61,0,0,1,382.47,75.42Zm-1.14,7.23V77h1v5.65Z"/><path d="M73.6,121.78c0,1.24.7,2.2,1.66,2.2s2-1.24,2-3.85a6.6,6.6,0,0,0-1.6-4.54v-.06h1.66A6.27,6.27,0,0,1,79,120.17c0,3.61-1.82,5.27-3.66,5.27a2.61,2.61,0,0,1-2.52-1.72h-.08a2.71,2.71,0,0,1-2.56,1.72c-1.68,0-3.54-1.42-3.54-5.11a7,7,0,0,1,1.7-4.8H70v.06a7,7,0,0,0-1.6,4.7c0,2.71,1.14,3.69,2.06,3.69s1.6-1,1.6-2.19l0-3.7h1.66Z"/><path d="M85.71,125a2.75,2.75,0,0,1-2.81,3,2.68,2.68,0,0,1-2.7-2.9,2.75,2.75,0,0,1,2.8-3A2.66,2.66,0,0,1,85.71,125Zm-4.47.06c0,1.23.71,2.16,1.71,2.16s1.71-.92,1.71-2.19c0-1-.47-2.16-1.69-2.16S81.24,124,81.24,125.07Z"/><polyline class="cls-6" points="267.57 203.23 357.64 158.04 357.64 77.67"/><polyline class="cls-6" points="87.72 126.19 87.72 238.13 267.57 203.23"/><line class="cls-2" x1="267.57" y1="203.23" x2="95.17" y2="129.38"/><polygon points="101.85 126.26 95.77 129.64 97.51 136.38 87.72 126.19 101.85 126.26"/><polygon class="cls-3" points="99.94 126.75 88.92 126.71 95.19 129.39 99.94 126.75"/><polygon class="cls-4" points="96.56 134.65 88.92 126.71 95.19 129.39 96.56 134.65"/><g id="Eye"><g id="_Group_" data-name="&lt;Group&gt;"><path class="cls-7" d="M44.07,91.6c4.53,12.28,1.13,22.14-9.39,27.38-9.8-12.69-20.89-19.8-29.23-24.75l1.19.12C17.8,95.44,29.31,96.58,44.07,91.6Z"/><path d="M34.68,119c10.52-5.24,13.92-15.1,9.39-27.38-14.76,5-26.27,3.84-37.43,2.75l-1.19-.12C13.79,99.18,24.88,106.29,34.68,119ZM46.17,90.85C51,104,47.24,115,36,120.8c1.18,1.62,2.35,3.3,3.47,5.09l-1.89,1.17C26.23,109,11.64,100.47,2,94.81L0,93.62a2.88,2.88,0,0,0,.56-1,3.28,3.28,0,0,0,.1-1.12c2.08.18,4.14.36,6.18.57,13.24,1.3,25.73,2.55,43.61-5.4l.9,2C49.58,89.55,47.86,90.23,46.17,90.85Z"/></g><path class="cls-8" d="M43.9,107.25c-1.68,4.57-5.4,7.42-8.3,6.35s-3.9-5.65-2.21-10.22S38.79,96,41.69,97,45.59,102.67,43.9,107.25Z"/><path class="cls-9" d="M42.71,107.86a3.53,3.53,0,0,1-4.44,2.22,3.81,3.81,0,1,1,4.44-2.22Z"/></g></svg>