<svg id="Layer_1" data-name="Layer 1" xmlns="http://www.w3.org/2000/svg" viewBox="0 0 436.33 348.54"><defs><style>.cls-1{fill:none;}.cls-1,.cls-2,.cls-3,.cls-6{stroke:#000;stroke-miterlimit:10;}.cls-2{fill:#999;opacity:0.5;}.cls-4{fill:#a6a6a6;}.cls-5{fill:#666;}.cls-6{fill:#fcee21;stroke-width:0.3px;}.cls-7{fill:#bbbdbf;}.cls-8{fill:#fff;}.cls-9{fill:#212121;}</style></defs><title>BSSRDF</title><polyline class="cls-1" points="122.47 273.51 131.04 283.53 150.03 271.29 177.03 275.51 188 270.87 202.35 264.12 225.13 274.24 271.96 259.9 297.7 236.69 289.26 229.94 312.88 223.62 305.92 212.56"/><polygon class="cls-2" points="435.51 161.56 98.53 159.72 0.82 346.2 337.8 348.04 435.51 161.56"/><circle class="cls-3" cx="121.09" cy="272.75" r="2.25"/><circle class="cls-3" cx="305.92" cy="212.56" r="2.25"/><line class="cls-1" x1="120.87" y1="272.56" x2="61" y2="143.63"/><polygon points="68.06 145.77 61.27 144.22 58.07 150.41 57.58 136.28 68.06 145.77"/><polygon class="cls-4" points="66.31 144.86 58.14 137.47 61.01 143.65 66.31 144.86"/><polygon class="cls-5" points="58.51 148.48 58.14 137.47 61.01 143.65 58.51 148.48"/><line class="cls-1" x1="305.11" y1="212.53" x2="344.66" y2="76"/><polygon points="348.58 82.24 344.48 76.62 338.01 79.18 346.92 68.21 348.58 82.24"/><polygon class="cls-4" points="347.86 80.41 346.55 69.47 344.66 76.02 347.86 80.41"/><polygon class="cls-5" points="339.6 78.02 346.55 69.47 344.66 76.02 339.6 78.02"/><polyline class="cls-6" points="354.45 28.56 349.5 37.02 352.82 27.8 346.4 35.2 351.37 26.75 343.69 32.85 350.13 25.46 341.47 30.04 349.15 23.95 339.79 26.87 348.46 22.3 338.73 23.44 348.09 20.54 338.31 19.88 348.05 18.75 338.56 16.3 348.33 16.98 339.45 12.83 348.94 15.29 340.98 9.58 349.85 13.75 343.07 6.67 351.02 12.39 345.66 4.19 352.43 11.28 348.66 2.23 354.01 10.44 351.98 0.85 355.73 9.91 355.49 0.11 357.51 9.7 359.07 0.02 359.3 9.82 362.61 0.6 361.04 10.27 365.99 1.81 362.66 11.03 369.08 3.63 364.12 12.08 371.79 5.98 365.36 13.38 374.02 8.79 366.33 14.88 375.69 11.96 367.02 16.53 376.76 15.39 367.39 18.29 377.17 18.95 367.44 20.08 376.93 22.53 367.15 21.85 376.03 26 366.54 23.54 374.51 29.25 365.63 25.09 372.42 32.16 364.46 26.44 369.82 34.64 363.05 27.55 366.82 36.6 361.47 28.39 363.51 37.98 359.76 28.92 360 38.72 357.97 29.13 356.41 38.81 356.19 29.01 352.87 38.23 354.45 28.56"/><path d="M110.3,283.75c0-1.24,0-2.24-.08-3.16h1.58l.08,1.66h0a3.81,3.81,0,0,1,3.44-1.88c2.34,0,4.1,2,4.1,4.92,0,3.48-2.12,5.2-4.4,5.2a3.39,3.39,0,0,1-3-1.52h0v5.26H110.3Zm1.74,2.58a4,4,0,0,0,.08.72,2.72,2.72,0,0,0,2.64,2.06c1.86,0,2.94-1.52,2.94-3.74,0-1.94-1-3.6-2.88-3.6a2.81,2.81,0,0,0-2.66,2.18,2.85,2.85,0,0,0-.12.72Z"/><path d="M126.17,290.06a2.76,2.76,0,0,1-2.81,3,2.68,2.68,0,0,1-2.7-2.9,2.76,2.76,0,0,1,2.8-3A2.67,2.67,0,0,1,126.17,290.06Zm-4.47.06c0,1.24.71,2.17,1.71,2.17s1.72-.92,1.72-2.19c0-1-.48-2.17-1.7-2.17S121.7,289.05,121.7,290.12Z"/><path d="M286.26,212.43c0-1.24,0-2.24-.08-3.16h1.58l.08,1.66h0a3.81,3.81,0,0,1,3.44-1.88c2.34,0,4.1,2,4.1,4.92,0,3.48-2.12,5.2-4.4,5.2a3.39,3.39,0,0,1-3-1.52h0v5.26h-1.74ZM288,215a4,4,0,0,0,.08.72,2.72,2.72,0,0,0,2.64,2.06c1.86,0,2.94-1.52,2.94-3.74,0-1.94-1-3.6-2.88-3.6a2.81,2.81,0,0,0-2.66,2.18,2.85,2.85,0,0,0-.12.72Z"/><path d="M298.17,214.38a.6.6,0,0,1-.65.63.61.61,0,0,1-.62-.63.63.63,0,0,1,.64-.64A.61.61,0,0,1,298.17,214.38ZM297,221.61V216h1v5.64Z"/><path d="M53.85,127c0,1.24.7,2.2,1.66,2.2s2-1.24,2-3.84a6.6,6.6,0,0,0-1.6-4.54v-.06h1.66a6.27,6.27,0,0,1,1.66,4.64c0,3.6-1.82,5.26-3.66,5.26a2.61,2.61,0,0,1-2.52-1.72H53a2.71,2.71,0,0,1-2.56,1.72c-1.68,0-3.54-1.42-3.54-5.1a7,7,0,0,1,1.7-4.8h1.62v.06a7,7,0,0,0-1.6,4.7c0,2.7,1.14,3.68,2.06,3.68s1.6-1,1.6-2.18l0-3.7h1.66Z"/><path d="M66,130.19a2.76,2.76,0,0,1-2.81,3,2.68,2.68,0,0,1-2.71-2.9,2.76,2.76,0,0,1,2.8-3A2.68,2.68,0,0,1,66,130.19Zm-4.48.06c0,1.24.71,2.17,1.71,2.17s1.72-.92,1.72-2.19c0-1-.48-2.17-1.69-2.17S61.49,129.18,61.49,130.25Z"/><path d="M349.63,58.87c0,1.24.7,2.2,1.66,2.2s2-1.24,2-3.84a6.6,6.6,0,0,0-1.6-4.54v-.06h1.66A6.27,6.27,0,0,1,355,57.27c0,3.6-1.82,5.26-3.66,5.26a2.61,2.61,0,0,1-2.52-1.72h-.08a2.71,2.71,0,0,1-2.56,1.72c-1.68,0-3.54-1.42-3.54-5.1a7,7,0,0,1,1.7-4.8H346v.06a7,7,0,0,0-1.6,4.7c0,2.7,1.14,3.68,2.06,3.68s1.6-1,1.6-2.18l0-3.7h1.66Z"/><path d="M357.78,57.74a.6.6,0,0,1-.65.63.61.61,0,0,1-.62-.63.63.63,0,0,1,.64-.64A.61.61,0,0,1,357.78,57.74ZM356.64,65V59.33h1V65Z"/><g id="Eye"><g id="_Group_" data-name="&lt;Group&gt;"><path class="cls-7" d="M51.3,88.41c-4.45,12.3-13.4,17.66-24.82,14.88.68-16-3.23-28.6-6.42-37.76.29.28.54.56.84.86C28.74,74.41,36.81,82.7,51.3,88.41Z"/><path d="M26.48,103.29c11.42,2.78,20.37-2.58,24.82-14.88-14.49-5.71-22.56-14-30.4-22-.3-.3-.55-.58-.84-.86C23.25,74.69,27.16,87.27,26.48,103.29ZM53.39,89.18c-4.78,13.16-14.77,19.19-27,16.39-.14,2-.32,4-.62,6.12l-2.19-.32c2.91-21.14-2.74-37.08-6.48-47.62l-.75-2.2a2.85,2.85,0,0,0,1-.36,3.27,3.27,0,0,0,.81-.8c1.47,1.49,2.92,2.94,4.35,4.42,9.29,9.53,18,18.54,36.83,24l-.61,2.13C56.84,90.38,55.08,89.79,53.39,89.18Z"/></g><path class="cls-8" d="M41.09,100.26c-4.24,2.42-8.91,2.2-10.44-.49s.66-6.83,4.89-9.24S44.45,88.34,46,91,45.33,97.85,41.09,100.26Z"/><path class="cls-9" d="M39.78,100a3.27,3.27,0,1,1-2.94-5.76A3.27,3.27,0,1,1,39.78,100Z"/></g></svg>