<svg id="Layer_1" data-name="Layer 1" xmlns="http://www.w3.org/2000/svg" viewBox="0 0 435.51 360.54"><defs><style>.cls-1,.cls-2,.cls-3,.cls-7{fill:none;}.cls-1{stroke:#999;}.cls-1,.cls-2,.cls-3,.cls-6,.cls-7,.cls-8{stroke-miterlimit:10;}.cls-2,.cls-3,.cls-6,.cls-7,.cls-8{stroke:#000;}.cls-2{stroke-width:0.5px;}.cls-4{fill:#a6a6a6;}.cls-5{fill:#666;}.cls-7{stroke-dasharray:2;}.cls-8{fill:#999;opacity:0.5;}</style></defs><title>Differential solid angle of dA</title><path class="cls-1" d="M357.76,265.21C357.76,231.4,295,204,217.61,204S77.46,231.4,77.46,265.21"/><polygon class="cls-2" points="435.09 173.8 98.11 171.96 0.41 358.45 337.39 360.29 435.09 173.8"/><line class="cls-3" x1="217.75" y1="265.74" x2="217.75" y2="100.29"/><polygon points="223.26 105.2 217.75 100.94 212.25 105.2 217.75 92.19 223.26 105.2"/><polygon class="cls-4" points="222.06 103.64 217.75 93.5 217.75 100.31 222.06 103.64"/><polygon class="cls-5" points="213.46 103.64 217.75 93.5 217.75 100.31 213.46 103.64"/><circle class="cls-6" cx="217.63" cy="265.45" r="2.25"/><path d="M212.16,279.75c0-1.49,0-2.69-.1-3.79H214l.1,2h0a4.58,4.58,0,0,1,4.13-2.26c2.81,0,4.92,2.38,4.92,5.91,0,4.17-2.54,6.24-5.28,6.24A4,4,0,0,1,214.3,286h-.05v6.32h-2.09Zm2.09,3.09a5.54,5.54,0,0,0,.09.87,3.27,3.27,0,0,0,3.17,2.47c2.23,0,3.53-1.82,3.53-4.49,0-2.32-1.22-4.32-3.46-4.32a3.37,3.37,0,0,0-3.19,2.62,3.44,3.44,0,0,0-.14.86Z"/><path d="M212.71,74c0-1.2,0-2.18-.1-3.14h1.88l.12,1.92h0a4.27,4.27,0,0,1,3.84-2.19c1.61,0,4.11,1,4.11,5v6.93h-2.11V75.78c0-1.88-.7-3.44-2.69-3.44a3.12,3.12,0,0,0-3,3.15v7h-2.11Z"/><path class="cls-3" d="M77.11,265.22a140.25,140.25,0,0,1,280.5,0"/><path class="cls-3" d="M77.23,265.17c0,33.84,62.8,61.27,140.27,61.27S357.76,299,357.76,265.17"/><line class="cls-7" x1="218.05" y1="264.62" x2="383.91" y2="15.06"/><line class="cls-7" x1="217.22" y1="265.03" x2="367.04" y2="34.25"/><line class="cls-7" x1="217.47" y1="265.6" x2="389.33" y2="49.23"/><line class="cls-7" x1="216.81" y1="265.45" x2="408.15" y2="36.98"/><polygon class="cls-8" points="384.29 14.99 408.81 37 389.3 49.75 367.04 33.75 384.29 14.99"/><polygon class="cls-8" points="278.71 172.83 288.5 181.68 280.71 186.81 271.81 180.37 278.71 172.83"/><path d="M297.82,183.12v11.7c0,.86,0,1.84.08,2.5h-1.58l-.08-1.68h0a3.58,3.58,0,0,1-3.3,1.9c-2.34,0-4.14-2-4.14-4.92,0-3.22,2-5.2,4.34-5.2A3.24,3.24,0,0,1,296,188.9h0v-5.78Zm-1.76,8.46a3.11,3.11,0,0,0-.08-.74,2.59,2.59,0,0,0-2.54-2c-1.82,0-2.9,1.6-2.9,3.74,0,2,1,3.58,2.86,3.58A2.65,2.65,0,0,0,296,194a3.06,3.06,0,0,0,.08-.76Z"/><path d="M307,193.88c0,1.24.7,2.2,1.66,2.2s2-1.24,2-3.84a6.6,6.6,0,0,0-1.6-4.54v-.06h1.66a6.27,6.27,0,0,1,1.66,4.64c0,3.6-1.82,5.26-3.66,5.26a2.61,2.61,0,0,1-2.52-1.72h-.08a2.71,2.71,0,0,1-2.56,1.72c-1.68,0-3.54-1.42-3.54-5.1a7,7,0,0,1,1.7-4.8h1.62v.06a7,7,0,0,0-1.6,4.7c0,2.7,1.14,3.68,2.06,3.68s1.6-1,1.6-2.18l0-3.7H307Z"/><path d="M412.37,2.54v11.7c0,.86,0,1.84.08,2.5h-1.58l-.08-1.68h0a3.58,3.58,0,0,1-3.3,1.9c-2.34,0-4.14-2-4.14-4.92,0-3.22,2-5.2,4.34-5.2a3.24,3.24,0,0,1,2.92,1.48h0V2.54ZM410.61,11a3.11,3.11,0,0,0-.08-.74,2.59,2.59,0,0,0-2.54-2c-1.82,0-2.9,1.6-2.9,3.74,0,2,1,3.58,2.86,3.58a2.65,2.65,0,0,0,2.58-2.1,3.06,3.06,0,0,0,.08-.76Z"/><path d="M417.53,12.5l-1.4,4.24h-1.8l4.58-13.48H421l4.6,13.48h-1.86l-1.44-4.24ZM422,11.14l-1.32-3.88c-.3-.88-.5-1.68-.7-2.46h0c-.2.8-.42,1.62-.68,2.44l-1.32,3.9Z"/><line class="cls-3" x1="385.87" y1="32.85" x2="363.93" y2="60.65"/><polygon points="362.9 54.84 364.25 60.24 369.82 60.3 359.91 65.74 362.9 54.84"/><polygon class="cls-4" points="362.89 56.41 360.56 64.92 363.94 60.64 362.89 56.41"/><polygon class="cls-5" points="368.29 60.68 360.56 64.92 363.94 60.64 368.29 60.68"/><line class="cls-3" x1="385.62" y1="32.86" x2="372.32" y2="65.68"/><polygon points="369.71 60.39 372.51 65.2 377.87 63.7 369.88 71.69 369.71 60.39"/><polygon class="cls-4" points="370.13 61.91 370.28 70.72 372.32 65.67 370.13 61.91"/><polygon class="cls-5" points="376.51 64.49 370.28 70.72 372.32 65.67 376.51 64.49"/><path d="M352.65,77c0-4.08,1.67-7.2,4.69-7.2s4.5,2.9,4.5,7.2c0,4.5-1.46,7.45-4.56,7.45C354.41,84.49,352.65,82,352.65,77Zm7.45-.76c0-2.84-.92-5.14-2.86-5.14s-2.84,2.42-2.84,5.14Zm-5.7,1.32c0,3.57,1.2,5.59,2.92,5.59,1.88,0,2.78-2.32,2.78-5.59Z"/></svg>