<svg id="Layer_1" data-name="Layer 1" xmlns="http://www.w3.org/2000/svg" viewBox="0 0 468.18 311.04"><defs><style>.cls-1{fill:#ccc;}.cls-2,.cls-6{fill:none;}.cls-2,.cls-3,.cls-6,.cls-7{stroke:#000;stroke-miterlimit:10;}.cls-4{fill:#a6a6a6;}.cls-5{fill:#666;}.cls-6{stroke-dasharray:4;}.cls-7{fill:#fcee21;stroke-width:0.3px;}</style></defs><title>Incident outgoing radiance</title><polygon class="cls-1" points="361.29 284.69 341.89 284.42 347.07 281.64 343.92 278.31 350.96 278.31 349.11 272.01 355.41 275.35 353.93 265.15 358 269.79 364.12 269.79 367.82 266.64 374.68 272.75 373.2 277.57 378.38 278.68 371.34 281.46 378.01 284.61 361.29 284.69"/><line class="cls-2" y1="281.77" x2="216.35" y2="281.77"/><circle class="cls-3" cx="109.45" cy="282.06" r="5.17"/><path d="M104.26,296.89c0-1.24,0-2.24-.08-3.16h1.58l.08,1.66h0a3.81,3.81,0,0,1,3.44-1.88c2.34,0,4.1,2,4.1,4.92,0,3.48-2.12,5.2-4.4,5.2a3.39,3.39,0,0,1-3-1.52h0v5.26h-1.74Zm1.74,2.58a4,4,0,0,0,.08.72,2.72,2.72,0,0,0,2.64,2.06c1.86,0,2.94-1.52,2.94-3.74,0-1.94-1-3.6-2.88-3.6a2.81,2.81,0,0,0-2.66,2.18,2.85,2.85,0,0,0-.12.72Z"/><line class="cls-2" x1="77.17" y1="89.28" x2="65.56" y2="19.36"/><polygon points="81.79 83.53 77.06 88.63 70.93 85.33 78.49 97.27 81.79 83.53"/><polygon class="cls-4" points="80.86 85.26 78.28 95.97 77.16 89.26 80.86 85.26"/><polygon class="cls-5" points="72.38 86.67 78.28 95.97 77.16 89.26 72.38 86.67"/><line class="cls-6" x1="94.68" y1="194.78" x2="78.49" y2="97.27"/><line class="cls-2" x1="109.08" y1="281.48" x2="96.01" y2="202.77"/><polygon points="102.25 206.71 96.12 203.41 91.39 208.51 94.68 194.78 102.25 206.71"/><polygon class="cls-4" points="100.8 205.37 94.9 196.07 96.01 202.79 100.8 205.37"/><polygon class="cls-5" points="92.32 206.78 94.9 196.07 96.01 202.79 92.32 206.78"/><polygon class="cls-7" points="70.29 0.6 68.72 10.27 73.67 1.81 70.34 11.03 76.76 3.63 71.8 12.08 79.47 5.98 73.04 13.38 81.7 8.79 74.02 14.88 83.37 11.96 74.7 16.53 84.44 15.39 75.08 18.29 84.85 18.95 75.12 20.08 84.61 22.53 74.83 21.85 83.71 26 74.22 23.54 82.19 29.25 73.32 25.09 80.1 32.16 72.14 26.44 77.5 34.64 70.73 27.55 74.5 36.6 69.15 28.39 71.19 37.98 67.44 28.92 67.68 38.72 65.66 29.13 64.09 38.81 63.87 29.01 60.55 38.23 62.13 28.56 57.18 37.02 60.51 27.8 54.08 35.2 59.05 26.75 51.38 32.85 57.81 25.46 49.15 30.04 56.83 23.95 47.47 26.87 56.14 22.3 46.41 23.44 55.77 20.54 45.99 19.88 55.73 18.75 46.24 16.3 56.01 16.98 47.13 12.83 56.62 15.29 48.66 9.58 57.53 13.75 50.75 6.67 58.7 12.39 53.34 4.19 60.11 11.28 56.34 2.23 61.7 10.44 59.66 0.85 63.41 9.91 63.17 0.11 65.19 9.7 66.75 0.02 66.98 9.82 70.29 0.6"/><path d="M117.43,226.4h1.74v12h5.76v1.46h-7.5Z"/><path d="M127.34,235.32a.6.6,0,0,1-.66.62.6.6,0,0,1-.61-.62.63.63,0,0,1,.64-.65A.61.61,0,0,1,127.34,235.32Zm-1.15,7.22V236.9h1v5.64Z"/><path d="M133.35,226a13.19,13.19,0,0,0-2.52,8.18,13.48,13.48,0,0,0,2.52,8.12H132a12.93,12.93,0,0,1-2.62-8.12A13.2,13.2,0,0,1,132,226Z"/><path d="M135.21,233.36c0-1.24,0-2.24-.08-3.16h1.58l.08,1.66h0a3.81,3.81,0,0,1,3.44-1.88c2.34,0,4.1,2,4.1,4.92,0,3.48-2.12,5.2-4.4,5.2a3.39,3.39,0,0,1-3-1.52h0v5.26h-1.74Zm1.74,2.58a4,4,0,0,0,.08.72,2.72,2.72,0,0,0,2.64,2.06c1.86,0,2.94-1.52,2.94-3.74,0-1.94-1-3.6-2.88-3.6a2.81,2.81,0,0,0-2.66,2.18,2.85,2.85,0,0,0-.12.72Z"/><path d="M145,242.34a28.78,28.78,0,0,0,1.2-4.78l2-.2a24.38,24.38,0,0,1-1.9,4.86Z"/><path d="M160.75,236.44c0,1.24.7,2.2,1.66,2.2s2-1.24,2-3.84a6.55,6.55,0,0,0-1.6-4.54v-.06h1.67a6.31,6.31,0,0,1,1.66,4.64c0,3.6-1.82,5.26-3.67,5.26a2.61,2.61,0,0,1-2.52-1.72h-.08a2.71,2.71,0,0,1-2.56,1.72c-1.68,0-3.54-1.42-3.54-5.1a7,7,0,0,1,1.7-4.8h1.62v.06a7,7,0,0,0-1.6,4.7c0,2.7,1.14,3.68,2.06,3.68s1.6-1,1.6-2.18l0-3.7h1.66Z"/><path d="M166.91,242.3a13.54,13.54,0,0,0,2.52-8.18,13.26,13.26,0,0,0-2.52-8.12h1.36a12.74,12.74,0,0,1,2.62,8.14,13,13,0,0,1-2.62,8.16Z"/><line class="cls-2" x1="251.84" y1="284.41" x2="468.18" y2="284.41"/><circle class="cls-3" cx="361.29" cy="284.69" r="5.17"/><path d="M356.09,299.52c0-1.24,0-2.24-.08-3.16h1.59l.08,1.66h0a3.79,3.79,0,0,1,3.44-1.88c2.34,0,4.1,2,4.1,4.92,0,3.48-2.12,5.2-4.4,5.2a3.42,3.42,0,0,1-3-1.52h0V310h-1.74Zm1.74,2.58a4,4,0,0,0,.08.72,2.73,2.73,0,0,0,2.65,2.06c1.86,0,2.94-1.52,2.94-3.74,0-1.94-1-3.6-2.88-3.6a3,3,0,0,0-2.79,2.9Z"/><line class="cls-2" x1="360.36" y1="283.94" x2="395.64" y2="212.36"/><polygon points="398.4 219.2 395.35 212.95 388.53 214.34 399.22 205.09 398.4 219.2"/><polygon class="cls-4" points="398.01 217.27 398.64 206.27 395.63 212.38 398.01 217.27"/><polygon class="cls-5" points="390.3 213.47 398.64 206.27 395.63 212.38 390.3 213.47"/><path d="M314.1,227.13h1.74v12h5.76v1.46h-7.5Z"/><path d="M328,240.4a2.76,2.76,0,0,1-2.81,3,2.68,2.68,0,0,1-2.7-2.9,2.76,2.76,0,0,1,2.8-3A2.67,2.67,0,0,1,328,240.4Zm-4.47.06c0,1.24.71,2.17,1.71,2.17s1.72-.92,1.72-2.19c0-1-.48-2.17-1.7-2.17S323.5,239.39,323.5,240.46Z"/><path d="M333.7,226.73a13.19,13.19,0,0,0-2.52,8.18A13.48,13.48,0,0,0,333.7,243h-1.38a12.93,12.93,0,0,1-2.62-8.12,13.2,13.2,0,0,1,2.62-8.18Z"/><path d="M335.56,234.09c0-1.24,0-2.24-.08-3.16h1.58l.08,1.66h0a3.81,3.81,0,0,1,3.44-1.88c2.34,0,4.1,2,4.1,4.92,0,3.48-2.12,5.2-4.4,5.2a3.39,3.39,0,0,1-3-1.52h0v5.26h-1.74Zm1.74,2.58a4,4,0,0,0,.08.72,2.72,2.72,0,0,0,2.64,2.06c1.86,0,2.94-1.52,2.94-3.74,0-1.94-1-3.6-2.88-3.6a2.81,2.81,0,0,0-2.66,2.18,2.85,2.85,0,0,0-.12.72Z"/><path d="M345.32,243.07a28.78,28.78,0,0,0,1.2-4.78l2-.2a24.38,24.38,0,0,1-1.9,4.86Z"/><path d="M361.1,237.17c0,1.24.7,2.2,1.66,2.2s2-1.24,2-3.84a6.6,6.6,0,0,0-1.6-4.54v-.06h1.66a6.27,6.27,0,0,1,1.66,4.64c0,3.6-1.82,5.26-3.66,5.26a2.61,2.61,0,0,1-2.52-1.72h-.08a2.71,2.71,0,0,1-2.56,1.72c-1.68,0-3.54-1.42-3.54-5.1a7,7,0,0,1,1.7-4.8h1.62V231a7,7,0,0,0-1.6,4.7c0,2.7,1.14,3.68,2.06,3.68s1.6-1,1.6-2.18l0-3.7h1.66Z"/><path d="M367.26,243a13.54,13.54,0,0,0,2.52-8.18,13.26,13.26,0,0,0-2.52-8.12h1.36a12.74,12.74,0,0,1,2.62,8.14,13,13,0,0,1-2.62,8.16Z"/></svg>