<svg id="Layer_1" data-name="Layer 1" xmlns="http://www.w3.org/2000/svg" viewBox="0 0 325.15 267.64"><defs><style>.cls-1,.cls-2,.cls-3,.cls-4{fill:none;stroke-miterlimit:10;}.cls-1,.cls-2,.cls-3{stroke:#000;}.cls-2{stroke-width:4px;}.cls-3{stroke-dasharray:4;}.cls-4{stroke:#fcee21;}.cls-5{fill:#a6a6a6;}.cls-6{fill:#666;}</style></defs><title>Lamberts Law</title><line class="cls-1" x1="187.94" y1="238.71" x2="325.15" y2="238.22"/><line class="cls-2" x1="144.99" y1="238.71" x2="187.94" y2="238.71"/><line class="cls-1" x1="81.57" y1="238.71" x2="144.99" y2="238.71"/><line class="cls-1" x1="45.58" y1="238.71" y2="238.71"/><path class="cls-3" d="M45.2,23.06s0,215.31.38,215.65"/><line class="cls-3" x1="81.57" y1="238.71" x2="81.57" y2="23.06"/><line class="cls-2" x1="45.58" y1="238.71" x2="81.57" y2="238.71"/><line class="cls-4" x1="79.28" y1="24.29" x2="79.28" y2="32.05"/><line class="cls-4" x1="81.57" y1="23.06" x2="45.2" y2="23.06"/><line class="cls-4" x1="47.7" y1="24.29" x2="47.7" y2="32.05"/><line class="cls-4" x1="51.64" y1="24.29" x2="51.64" y2="32.05"/><line class="cls-4" x1="55.59" y1="24.29" x2="55.59" y2="32.05"/><line class="cls-4" x1="59.54" y1="24.29" x2="59.54" y2="32.05"/><line class="cls-4" x1="63.49" y1="24.29" x2="63.49" y2="32.05"/><line class="cls-4" x1="67.44" y1="24.29" x2="67.44" y2="32.05"/><line class="cls-4" x1="71.38" y1="24.29" x2="71.38" y2="32.05"/><line class="cls-4" x1="75.33" y1="24.29" x2="75.33" y2="32.05"/><path d="M61.84,12.5l-1.4,4.24h-1.8L63.22,3.26h2.1l4.6,13.48H68.06L66.62,12.5Zm4.42-1.36L64.94,7.26c-.3-.88-.5-1.68-.7-2.46h0c-.2.8-.42,1.62-.68,2.44l-1.32,3.9Z"/><line class="cls-4" x1="307.95" y1="46.62" x2="303.78" y2="53.15"/><line class="cls-4" x1="310.55" y1="46.81" x2="279.88" y2="27.25"/><line class="cls-4" x1="281.32" y1="29.63" x2="277.15" y2="36.17"/><line class="cls-4" x1="284.65" y1="31.76" x2="280.48" y2="38.29"/><line class="cls-4" x1="287.98" y1="33.88" x2="283.81" y2="40.42"/><line class="cls-4" x1="291.31" y1="36" x2="287.14" y2="42.54"/><line class="cls-4" x1="294.63" y1="38.12" x2="290.46" y2="44.66"/><line class="cls-4" x1="297.96" y1="40.25" x2="293.79" y2="46.79"/><line class="cls-4" x1="301.29" y1="42.37" x2="297.12" y2="48.91"/><line class="cls-4" x1="304.62" y1="44.49" x2="300.45" y2="51.03"/><line class="cls-3" x1="279.61" y1="27.79" x2="145.13" y2="238.66"/><line class="cls-3" x1="310.38" y1="46.86" x2="188.06" y2="238.65"/><path d="M302.76,27.44l-1.4,4.24h-1.8l4.58-13.48h2.1l4.6,13.48H309l-1.44-4.24Zm4.42-1.36-1.32-3.88c-.3-.88-.5-1.68-.7-2.46h0c-.2.8-.42,1.62-.68,2.44l-1.32,3.9Z"/><path d="M59.66,258.4l-1.4,4.24h-1.8L61,249.16h2.1l4.6,13.48H65.88l-1.44-4.24ZM64.08,257l-1.32-3.88c-.3-.88-.5-1.68-.7-2.46h0c-.2.8-.42,1.62-.68,2.44L60,257Z"/><path d="M70.34,265.58V259h0l-1.44.7-.22-1,1.88-.88h1.22v7.8Z"/><path d="M160.4,258.4l-1.4,4.24h-1.8l4.58-13.48h2.1l4.6,13.48h-1.86l-1.44-4.24Zm4.42-1.36-1.32-3.88c-.3-.88-.5-1.68-.7-2.46h0c-.2.8-.42,1.62-.68,2.44l-1.32,3.9Z"/><path d="M169.18,264.84l1.26-1.18c1.66-1.5,2.52-2.44,2.52-3.46a1.36,1.36,0,0,0-1.52-1.4,3.06,3.06,0,0,0-1.68.62l-.42-.9a3.88,3.88,0,0,1,2.44-.84c1.88,0,2.66,1.18,2.66,2.26,0,1.5-1.14,2.6-2.66,3.94l-.62.56v0h3.42v1.1h-5.4Z"/><line class="cls-1" x1="167.99" y1="237.96" x2="167.99" y2="140.18"/><polygon points="173.49 145.09 167.99 140.84 162.48 145.09 167.99 132.08 173.49 145.09"/><polygon class="cls-5" points="172.29 143.54 167.99 133.39 167.99 140.2 172.29 143.54"/><polygon class="cls-6" points="163.69 143.54 167.99 133.39 167.99 140.2 163.69 143.54"/><line class="cls-1" x1="167.87" y1="238.66" x2="219.91" y2="155.88"/><polygon points="221.95 162.96 219.56 156.43 212.63 157.1 224.22 149.02 221.95 162.96"/><polygon class="cls-5" points="221.76 161 223.52 150.13 219.9 155.89 221.76 161"/><polygon class="cls-6" points="214.48 156.43 223.52 150.13 219.9 155.89 214.48 156.43"/><path class="cls-1" d="M168.13,210.44a28.17,28.17,0,0,1,14.48,4"/><path d="M175.05,201.1c0-4.08,1.66-7.2,4.68-7.2s4.5,2.9,4.5,7.2c0,4.5-1.46,7.44-4.56,7.44C176.81,208.54,175.05,206,175.05,201.1Zm7.44-.76c0-2.84-.92-5.14-2.86-5.14-1.78,0-2.84,2.42-2.84,5.14Zm-5.7,1.32c0,3.56,1.2,5.58,2.92,5.58,1.88,0,2.78-2.32,2.78-5.58Z"/><path d="M163.91,119c0-1,0-1.82-.08-2.62h1.56l.1,1.6h0a3.56,3.56,0,0,1,3.2-1.82c1.34,0,3.42.8,3.42,4.12v5.79h-1.76v-5.59c0-1.56-.58-2.86-2.24-2.86a2.5,2.5,0,0,0-2.36,1.8,2.53,2.53,0,0,0-.12.82v5.83h-1.76Z"/></svg>