<svg id="Layer_1" data-name="Layer 1" xmlns="http://www.w3.org/2000/svg" viewBox="0 0 396.19 254.9"><defs><style>.cls-1,.cls-2{fill:none;}.cls-1,.cls-2,.cls-5,.cls-6,.cls-7{stroke:#000;}.cls-1,.cls-2,.cls-5,.cls-7{stroke-miterlimit:10;}.cls-2{stroke-width:3px;}.cls-3{fill:#a6a6a6;}.cls-4{fill:#666;}.cls-7{fill:#b3b3b3;}</style></defs><title>Planar angle</title><path class="cls-1" d="M232.72,198.43a126.94,126.94,0,1,1,8.11-128.15"/><path class="cls-2" d="M240.83,70.28a127.11,127.11,0,0,1-8.11,128.15"/><line class="cls-1" x1="126.74" y1="127.31" x2="305.59" y2="38.58"/><polygon points="303.63 45.69 305 38.87 298.74 35.83 312.85 34.98 303.63 45.69"/><polygon class="cls-3" points="304.5 43.92 311.67 35.56 305.57 38.59 304.5 43.92"/><polygon class="cls-4" points="300.68 36.22 311.67 35.56 305.57 38.59 300.68 36.22"/><line class="cls-1" x1="126.87" y1="127.07" x2="292.74" y2="238.18"/><polygon points="285.6 240.02 292.2 237.82 291.73 230.87 299.48 242.69 285.6 240.02"/><polygon class="cls-3" points="287.56 239.89 298.38 241.96 292.73 238.17 287.56 239.89"/><polygon class="cls-4" points="292.35 232.74 298.38 241.96 292.73 238.17 292.35 232.74"/><circle class="cls-5" cx="127.05" cy="127.26" r="5.17"/><path class="cls-6" d="M111.3,139.68c0-1.24,0-2.24-.08-3.16h1.58l.08,1.66h0a3.81,3.81,0,0,1,3.45-1.88c2.34,0,4.1,2,4.1,4.92,0,3.48-2.12,5.2-4.41,5.2a3.39,3.39,0,0,1-3-1.52h0v5.26H111.3Zm1.74,2.58a4,4,0,0,0,.08.72,2.72,2.72,0,0,0,2.65,2.06c1.86,0,2.94-1.52,2.94-3.74,0-1.94-1-3.6-2.88-3.6a2.81,2.81,0,0,0-2.67,2.18,2.85,2.85,0,0,0-.12.72Z"/><path class="cls-6" d="M241.31,130.15a4.61,4.61,0,0,0,2.32.7c1.29,0,1.89-.64,1.89-1.44s-.5-1.3-1.81-1.78c-1.74-.62-2.56-1.58-2.56-2.74,0-1.56,1.26-2.84,3.35-2.84a4.83,4.83,0,0,1,2.38.6l-.44,1.28a3.77,3.77,0,0,0-2-.56c-1,0-1.63.6-1.63,1.32s.59,1.16,1.85,1.64c1.68.64,2.54,1.48,2.54,2.92,0,1.7-1.32,2.91-3.62,2.91a5.43,5.43,0,0,1-2.73-.67Z"/><path class="cls-7" d="M287,48C314.2,50.9,326,65.82,326,65.82c.45,25.36-17,16.07-5,19.75,42.71,13.1,22.69,45.25,44.62,51s48.16,5.74,14.35,24.8-67.22-22.75-69.48,12.91,19.88,48.16,16.6,54.51-53.1-4.45-56.56-6.55l33.64-63.3s7.65-19.33-8.54-44.54-22.23-34-22.84-42.38Z"/></svg>