<svg id="Layer_1" data-name="Layer 1" xmlns="http://www.w3.org/2000/svg" viewBox="0 0 549.16 438.99"><defs><style>.cls-1,.cls-6{fill:none;}.cls-1,.cls-2,.cls-5,.cls-6,.cls-7{stroke:#000;stroke-miterlimit:10;}.cls-2,.cls-5{fill:#b3b3b3;}.cls-3{fill:#a6a6a6;}.cls-4{fill:#666;}.cls-5{stroke-width:3px;}.cls-6{stroke-dasharray:2;}</style></defs><title>Projected solid angle</title><circle class="cls-1" cx="179.22" cy="259.76" r="178.72"/><path class="cls-2" d="M428,50.12c12-9.24,21.08-7,21.08-7,7.28,11.42-2.51,13.94,3.47,11,21.25-10.56,22,11.89,32.65,6s21.44-16,12.85,5.77-34,15.64-25,32.81,21.67,14.31,22.1,18.49S472,135.71,470,136.09l-3.87-42s-2.26-11.79-16-17-18.67-6.93-21.28-10.53Z"/><line class="cls-1" x1="178.51" y1="260.61" x2="481.35" y2="5.22"/><polygon points="481.14 12.6 480.85 5.64 474.04 4.18 487.54 0 481.14 12.6"/><polygon class="cls-3" points="481.56 10.67 486.54 0.85 481.33 5.24 481.56 10.67"/><polygon class="cls-4" points="476.01 4.1 486.54 0.85 481.33 5.24 476.01 4.1"/><line class="cls-1" x1="177.45" y1="261.62" x2="541.71" y2="105.93"/><polygon points="539.36 112.92 541.11 106.18 535.03 102.79 549.16 102.74 539.36 112.92"/><polygon class="cls-3" points="540.32 111.2 547.96 103.26 541.69 105.93 540.32 111.2"/><polygon class="cls-4" points="536.94 103.29 547.96 103.26 541.69 105.93 536.94 103.29"/><path class="cls-2" d="M273.6,181.12c7.2-6.77,13.06-8,13.06-8,5.2,3-.91,6.44,2.75,3.75,13-9.54,14.58-.33,21.06-5.35s12.85-11.88,8.46-.69S298,185.57,304.64,190.57s14.49.76,15,2.4-13.79,13.34-15.05,14L300,190.33s-2-4.39-11-3.28-12.21,1.61-14,.73Z"/><ellipse class="cls-1" cx="178.91" cy="259.87" rx="177.94" ry="48.82"/><path class="cls-5" d="M273.21,254.74a48.81,48.81,0,0,1,13.27-4.14c5.22,1.37-1,3.15,2.74,1.77,13.23-4.88,14.75-.43,21.34-3s13.1-6,8.56-.49-17.43,8.94-14.62,9.87,14.63.09,15.1.88-14.07,6.74-15.34,7.08l-4.42-8s-2-2.09-11.1-1.38-12.36,1-14.2.61Z"/><line class="cls-6" x1="273.21" y1="180.17" x2="273.21" y2="254.91"/><line class="cls-6" x1="320.55" y1="165.58" x2="320.55" y2="246.58"/><line class="cls-1" x1="177.73" y1="262.03" x2="177.73" y2="70.17"/><polygon points="183.24 75.08 177.73 70.82 172.23 75.08 177.73 62.06 183.24 75.08"/><polygon class="cls-3" points="182.03 73.52 177.73 63.38 177.73 70.19 182.03 73.52"/><polygon class="cls-4" points="173.44 73.52 177.73 63.38 177.73 70.19 173.44 73.52"/><path d="M172,275.69c0-1.52,0-2.75-.1-3.88h2l.09,2H174a4.69,4.69,0,0,1,4.23-2.31c2.88,0,5.05,2.43,5.05,6,0,4.28-2.61,6.39-5.42,6.39a4.15,4.15,0,0,1-3.66-1.87h0v6.47H172Zm2.14,3.18a4.73,4.73,0,0,0,.1.88,3.35,3.35,0,0,0,3.25,2.54c2.28,0,3.61-1.87,3.61-4.6,0-2.39-1.25-4.43-3.54-4.43a3.45,3.45,0,0,0-3.27,2.68,3.25,3.25,0,0,0-.15.89Z"/><path d="M190.09,57.32c0-1.2,0-2.18-.09-3.14h1.87L192,56.1h0a4.27,4.27,0,0,1,3.84-2.18c1.61,0,4.1,1,4.1,4.94V65.8h-2.11V59.1c0-1.87-.7-3.43-2.69-3.43a3,3,0,0,0-2.83,2.16,2.9,2.9,0,0,0-.14,1v7h-2.12Z"/><circle class="cls-7" cx="177.98" cy="261.44" r="2.25"/></svg>