<svg id="Layer_1" data-name="Layer 1" xmlns="http://www.w3.org/2000/svg" viewBox="0 0 277.23 276.43"><defs><style>.cls-1{fill:#ccc;}.cls-1,.cls-2,.cls-5,.cls-6{stroke:#000;stroke-miterlimit:10;}.cls-2,.cls-6{fill:none;}.cls-3{fill:#a6a6a6;}.cls-4{fill:#666;}.cls-5{fill:#b3b3b3;}.cls-6{stroke-width:0.5px;}</style></defs><title>Radiance</title><ellipse class="cls-1" cx="114.75" cy="161.05" rx="26.94" ry="10.44"/><polyline class="cls-2" points="114.53 8.1 114.53 162.14 269.12 162.14"/><polygon points="109.02 13.01 114.53 8.75 120.03 13.01 114.53 0 109.02 13.01"/><polygon class="cls-3" points="110.22 11.46 114.53 1.31 114.53 8.12 110.22 11.46"/><polygon class="cls-4" points="118.82 11.46 114.53 1.31 114.53 8.12 118.82 11.46"/><polygon points="264.21 167.64 268.47 162.14 264.21 156.63 277.23 162.14 264.21 167.64"/><polygon class="cls-3" points="265.77 166.44 275.91 162.14 269.1 162.14 265.77 166.44"/><polygon class="cls-4" points="265.77 157.84 275.91 162.14 269.1 162.14 265.77 157.84"/><line class="cls-2" x1="114.65" y1="161.78" x2="5.73" y2="270.69"/><polygon points="5.31 263.33 6.19 270.24 13.09 271.12 0 276.43 5.31 263.33"/><polygon class="cls-3" points="5.06 265.28 0.93 275.5 5.74 270.68 5.06 265.28"/><polygon class="cls-4" points="11.14 271.36 0.93 275.5 5.74 270.68 11.14 271.36"/><line class="cls-2" x1="114.41" y1="161.39" x2="132.71" y2="139.64"/><path d="M123.9,178.16v11.7c0,.86,0,1.84.08,2.5H122.4l-.08-1.68h0a3.6,3.6,0,0,1-3.31,1.9c-2.34,0-4.14-2-4.14-4.92,0-3.22,2-5.2,4.34-5.2a3.22,3.22,0,0,1,2.92,1.48h0v-5.78Zm-1.77,8.46a2.67,2.67,0,0,0-.08-.74,2.57,2.57,0,0,0-2.54-2c-1.82,0-2.9,1.6-2.9,3.74,0,2,1,3.58,2.86,3.58a2.77,2.77,0,0,0,2.66-2.86Z"/><path d="M129.05,188.12l-1.4,4.24h-1.8l4.58-13.48h2.11l4.6,13.48h-1.86l-1.44-4.24Zm4.43-1.36-1.32-3.88c-.31-.88-.5-1.68-.7-2.46h0c-.21.8-.42,1.62-.69,2.44l-1.32,3.9Z"/><path d="M158.91,127v11.7c0,.86,0,1.84.08,2.5h-1.58l-.08-1.68h0a3.58,3.58,0,0,1-3.3,1.9c-2.34,0-4.14-2-4.14-4.92,0-3.22,2-5.2,4.34-5.2a3.24,3.24,0,0,1,2.92,1.48h0V127Zm-1.76,8.46a3.11,3.11,0,0,0-.08-.74,2.59,2.59,0,0,0-2.54-2c-1.82,0-2.9,1.6-2.9,3.74,0,2,1,3.58,2.86,3.58a2.65,2.65,0,0,0,2.58-2.1,3.06,3.06,0,0,0,.08-.76Z"/><path d="M164.07,136.93l-1.4,4.24h-1.8l4.58-13.48h2.1l4.6,13.48h-1.86l-1.44-4.24Zm4.42-1.36-1.32-3.88c-.3-.88-.5-1.68-.7-2.46h0c-.2.8-.42,1.62-.68,2.44l-1.32,3.9Z"/><line class="cls-2" x1="174.91" y1="121.79" x2="174.91" y2="129.77"/><line class="cls-2" x1="170.28" y1="129.91" x2="179.55" y2="129.91"/><ellipse class="cls-5" cx="132.1" cy="140.38" rx="10.44" ry="26.94" transform="translate(-58.74 113.2) rotate(-38.63)"/><line class="cls-2" x1="132.71" y1="139.64" x2="214.58" y2="42.34"/><polygon points="215.63 49.64 214.16 42.83 207.21 42.55 219.8 36.14 215.63 49.64"/><polygon class="cls-3" points="215.71 47.67 218.95 37.14 214.57 42.35 215.71 47.67"/><polygon class="cls-4" points="209.13 42.13 218.95 37.14 214.57 42.35 209.13 42.13"/><line class="cls-2" x1="130.85" y1="138.38" x2="199.73" y2="44.69"/><line class="cls-2" x1="114.4" y1="160.7" x2="124.38" y2="147.16"/><line class="cls-2" x1="134.36" y1="141.21" x2="215.89" y2="56.81"/><line class="cls-2" x1="114.74" y1="161.59" x2="126.3" y2="149.58"/><ellipse class="cls-6" cx="132.51" cy="139.69" rx="1.62" ry="2.34" transform="translate(-59.99 135.93) rotate(-45.39)"/><ellipse class="cls-2" cx="207.75" cy="50.77" rx="4.12" ry="10.19" transform="translate(44.33 188.72) rotate(-53.9)"/><path d="M228.38,28.8c0,1.24.71,2.2,1.67,2.2s2-1.24,2-3.84a6.56,6.56,0,0,0-1.61-4.54v-.06h1.67a6.27,6.27,0,0,1,1.66,4.64c0,3.6-1.82,5.26-3.66,5.26a2.63,2.63,0,0,1-2.53-1.72h-.08A2.71,2.71,0,0,1,225,32.46c-1.68,0-3.54-1.42-3.54-5.1a7,7,0,0,1,1.7-4.8h1.62v.06a7,7,0,0,0-1.6,4.7c0,2.7,1.14,3.68,2.06,3.68s1.6-1,1.6-2.18l0-3.7h1.66Z"/></svg>