<svg id="Layer_1" data-name="Layer 1" xmlns="http://www.w3.org/2000/svg" viewBox="0 0 395.86 398.71"><defs><style>.cls-1,.cls-6,.cls-7{fill:none;}.cls-1,.cls-4,.cls-5,.cls-6,.cls-7{stroke:#000;stroke-miterlimit:10;}.cls-2{fill:#a6a6a6;}.cls-3{fill:#666;}.cls-5{fill:#999;opacity:0.5;}.cls-6{stroke-width:0.5px;}.cls-7{stroke-dasharray:2;}</style></defs><title>Sin dtheta dphi</title><circle class="cls-1" cx="179.22" cy="219.48" r="178.72"/><ellipse class="cls-1" cx="178.91" cy="219.59" rx="177.94" ry="48.82"/><line class="cls-1" x1="177.73" y1="221.75" x2="177.73" y2="29.89"/><polygon points="183.24 34.8 177.73 30.54 172.23 34.8 177.73 21.79 183.24 34.8"/><polygon class="cls-2" points="182.03 33.24 177.73 23.1 177.73 29.91 182.03 33.24"/><polygon class="cls-3" points="173.44 33.24 177.73 23.1 177.73 29.91 173.44 33.24"/><path d="M174,18.86,179.29,12c.5-.62,1-1.17,1.51-1.8v-.05h-6.29V8.47h8.86l0,1.32-5.18,6.75c-.48.64-1,1.22-1.49,1.82v.05h6.79v1.68H174Z"/><circle class="cls-4" cx="177.98" cy="221.16" r="2.25"/><line class="cls-1" x1="177.75" y1="221.01" x2="369.61" y2="220.27"/><polygon points="364.72 225.8 368.96 220.28 364.68 214.79 377.71 220.24 364.72 225.8"/><polygon class="cls-2" points="366.27 224.59 376.4 220.25 369.59 220.27 366.27 224.59"/><polygon class="cls-3" points="366.24 215.99 376.4 220.25 369.59 220.27 366.24 215.99"/><line class="cls-1" x1="179.3" y1="218.84" x2="43.63" y2="354.51"/><polygon points="43.21 347.14 44.09 354.05 51 354.93 37.9 360.24 43.21 347.14"/><polygon class="cls-2" points="42.96 349.1 38.83 359.31 43.65 354.49 42.96 349.1"/><polygon class="cls-3" points="49.04 355.18 38.83 359.31 43.65 354.49 49.04 355.18"/><path d="M388.88,215.37l1.38,2.08c.36.54.66,1,1,1.58h.06c.32-.58.64-1.08,1-1.6l1.36-2.06h1.9l-3.3,4.68,3.4,5h-2l-1.42-2.18c-.38-.56-.7-1.1-1-1.68h0c-.32.58-.66,1.1-1,1.68l-1.4,2.18h-1.94l3.44-4.94-3.28-4.74Z"/><path d="M23.75,361.77l2.12,5.72c.22.64.46,1.4.62,2h0c.18-.58.38-1.32.62-2l1.92-5.68h1.86l-2.64,6.9c-1.26,3.32-2.12,5-3.32,6.06a4.77,4.77,0,0,1-2.16,1.14l-.44-1.48a4.66,4.66,0,0,0,1.54-.86,5.34,5.34,0,0,0,1.48-2,1.26,1.26,0,0,0,.14-.42,1.53,1.53,0,0,0-.12-.46l-3.58-8.92Z"/><path d="M208.14,133.1c0-4.09,1.66-7.21,4.68-7.21s4.51,2.9,4.51,7.21c0,4.5-1.46,7.44-4.57,7.44C209.9,140.54,208.14,138,208.14,133.1Zm7.44-.76c0-2.84-.92-5.15-2.86-5.15-1.78,0-2.84,2.43-2.84,5.15Zm-5.7,1.32c0,3.56,1.2,5.58,2.92,5.58,1.88,0,2.78-2.32,2.78-5.58Z"/><path class="cls-1" d="M177.92,143.25a76.12,76.12,0,0,1,48.53,17.27"/><polygon class="cls-5" points="267.24 110 277.03 118.86 269.24 123.99 260.34 117.55 267.24 110"/><line class="cls-1" x1="263.43" y1="113.6" x2="177.52" y2="113.6"/><path d="M204.49,105.81a4.61,4.61,0,0,0,2.32.7c1.28,0,1.88-.64,1.88-1.44s-.5-1.3-1.8-1.78c-1.74-.62-2.56-1.58-2.56-2.74,0-1.56,1.26-2.84,3.34-2.84a4.83,4.83,0,0,1,2.38.6l-.44,1.28a3.77,3.77,0,0,0-2-.56c-1,0-1.62.6-1.62,1.32s.58,1.16,1.84,1.64c1.68.64,2.54,1.48,2.54,2.92,0,1.7-1.32,2.9-3.62,2.9a5.52,5.52,0,0,1-2.72-.66Z"/><path d="M214.61,95.21a1.09,1.09,0,0,1-2.18,0,1.07,1.07,0,0,1,1.1-1.1A1,1,0,0,1,214.61,95.21Zm-2,12.4V97.93h1.76v9.68Z"/><path d="M217.33,100.55c0-1,0-1.82-.08-2.62h1.56l.1,1.6h0a3.56,3.56,0,0,1,3.2-1.82c1.34,0,3.42.8,3.42,4.12v5.78h-1.76V102c0-1.56-.58-2.86-2.24-2.86a2.5,2.5,0,0,0-2.36,1.8,2.53,2.53,0,0,0-.12.82v5.82h-1.76Z"/><path d="M232,100.39c0-4.08,1.66-7.2,4.68-7.2s4.5,2.9,4.5,7.2c0,4.5-1.46,7.44-4.56,7.44C233.73,107.83,232,105.33,232,100.39Zm7.44-.76c0-2.84-.92-5.14-2.86-5.14-1.78,0-2.84,2.42-2.84,5.14Zm-5.7,1.32c0,3.56,1.2,5.58,2.92,5.58,1.88,0,2.78-2.32,2.78-5.58Z"/><path d="M287.77,93.49V105.2c0,.86,0,1.84.08,2.5h-1.58l-.08-1.68h0a3.58,3.58,0,0,1-3.3,1.9c-2.34,0-4.14-2-4.14-4.92,0-3.23,2-5.21,4.34-5.21A3.24,3.24,0,0,1,286,99.27h0V93.49ZM286,102a3.19,3.19,0,0,0-.08-.75,2.59,2.59,0,0,0-2.54-2c-1.82,0-2.9,1.6-2.9,3.75,0,2,1,3.58,2.86,3.58a2.65,2.65,0,0,0,2.58-2.1,3.06,3.06,0,0,0,.08-.76Z"/><path d="M290,100.47c0-4.08,1.66-7.2,4.68-7.2s4.5,2.9,4.5,7.2c0,4.51-1.46,7.45-4.56,7.45C291.75,107.92,290,105.42,290,100.47Zm7.44-.76c0-2.84-.92-5.14-2.86-5.14-1.78,0-2.84,2.42-2.84,5.14Zm-5.7,1.33c0,3.56,1.2,5.58,2.92,5.58,1.88,0,2.78-2.32,2.78-5.58Z"/><path d="M280.55,236.49a4.13,4.13,0,0,0,2.09.63c1.15,0,1.69-.57,1.69-1.29s-.45-1.17-1.62-1.61c-1.57-.55-2.31-1.42-2.31-2.46,0-1.41,1.14-2.56,3-2.56a4.31,4.31,0,0,1,2.14.54l-.39,1.15a3.44,3.44,0,0,0-1.78-.5c-.94,0-1.46.54-1.46,1.19s.52,1,1.65,1.47c1.52.58,2.29,1.34,2.29,2.63,0,1.53-1.19,2.61-3.26,2.61a5,5,0,0,1-2.45-.59Z"/><path d="M289.66,227a1,1,0,0,1-2,0,1,1,0,0,1,1-1A.94.94,0,0,1,289.66,227Zm-1.77,11.16V229.4h1.59v8.71Z"/><path d="M292.1,231.76c0-.9,0-1.64-.07-2.36h1.41l.09,1.44h0a3.21,3.21,0,0,1,2.88-1.64c1.21,0,3.08.72,3.08,3.71v5.2h-1.58v-5c0-1.4-.52-2.58-2-2.58a2.34,2.34,0,0,0-2.23,2.36v5.24H292.1Z"/><path d="M305.28,231.61c0-3.67,1.49-6.48,4.21-6.48s4.05,2.61,4.05,6.48c0,4-1.31,6.7-4.1,6.7C306.86,238.31,305.28,236.06,305.28,231.61Zm6.7-.68c0-2.56-.83-4.63-2.58-4.63-1.6,0-2.55,2.18-2.55,4.63Zm-5.13,1.19c0,3.2,1.08,5,2.63,5s2.5-2.09,2.5-5Z"/><path d="M326.87,225.33v10.53c0,.78,0,1.66.07,2.25h-1.43l-.07-1.51h0a3.23,3.23,0,0,1-3,1.71c-2.11,0-3.73-1.78-3.73-4.43,0-2.9,1.78-4.68,3.91-4.68a2.9,2.9,0,0,1,2.62,1.33h0v-5.2ZM325.28,233a3.05,3.05,0,0,0-.07-.67,2.34,2.34,0,0,0-2.29-1.84c-1.64,0-2.61,1.44-2.61,3.37,0,1.76.86,3.22,2.58,3.22a2.38,2.38,0,0,0,2.32-1.89,2.9,2.9,0,0,0,.07-.68Z"/><path d="M332.46,230.08a4.19,4.19,0,0,0-2,3.6,3.24,3.24,0,0,0,2.82,3.46v-5.29c0-1.88,1-2.63,2.22-2.63,1.71,0,3.56,1.64,3.56,4.3a4.59,4.59,0,0,1-4.32,4.77v3.39h-1.46v-3.39a4.41,4.41,0,0,1-4.39-4.57,5,5,0,0,1,3-4.52Zm2.25,7.06a3.28,3.28,0,0,0,2.81-3.58c0-1.78-1-3.19-2-3.19-.45,0-.76.4-.76,1.23Z"/><line class="cls-1" x1="277.03" y1="232.75" x2="269.02" y2="239.59"/><line class="cls-6" x1="277.03" y1="118.86" x2="178.05" y2="221"/><line class="cls-7" x1="277.03" y1="232.75" x2="277.03" y2="118.86"/><polyline class="cls-1" points="269.02 239.59 178.05 221 277.03 232.75"/><line class="cls-7" x1="269.02" y1="123.99" x2="269.02" y2="239.59"/><line class="cls-6" x1="178.05" y1="221" x2="269.02" y2="123.99"/><line class="cls-6" x1="260.34" y1="117.55" x2="178.05" y2="221"/></svg>