<svg id="Layer_1" data-name="Layer 1" xmlns="http://www.w3.org/2000/svg" viewBox="0 0 395.86 393.28"><defs><style>.cls-1,.cls-5{fill:none;}.cls-1,.cls-4,.cls-5{stroke:#000;stroke-miterlimit:10;}.cls-2{fill:#a6a6a6;}.cls-3{fill:#666;}.cls-5{stroke-dasharray:2;}</style></defs><title>Spherical coordinates</title><circle class="cls-1" cx="179.22" cy="214.05" r="178.72"/><ellipse class="cls-1" cx="178.91" cy="214.16" rx="177.94" ry="48.82"/><line class="cls-1" x1="177.73" y1="216.32" x2="177.73" y2="24.46"/><polygon points="183.24 29.37 177.73 25.11 172.23 29.37 177.73 16.35 183.24 29.37"/><polygon class="cls-2" points="182.03 27.81 177.73 17.67 177.73 24.48 182.03 27.81"/><polygon class="cls-3" points="173.44 27.81 177.73 17.67 177.73 24.48 173.44 27.81"/><path d="M174,13.43l5.26-6.84c.5-.62,1-1.17,1.51-1.8v0h-6.29V3h8.86l0,1.32-5.18,6.74c-.48.65-1,1.23-1.49,1.83V13h6.79v1.68H174Z"/><circle class="cls-4" cx="177.98" cy="215.73" r="2.25"/><line class="cls-1" x1="177.75" y1="215.58" x2="369.61" y2="214.84"/><polygon points="364.72 220.36 368.96 214.84 364.68 209.36 377.71 214.81 364.72 220.36"/><polygon class="cls-2" points="366.27 219.16 376.4 214.81 369.59 214.84 366.27 219.16"/><polygon class="cls-3" points="366.24 210.56 376.4 214.81 369.59 214.84 366.24 210.56"/><line class="cls-1" x1="179.3" y1="213.41" x2="43.63" y2="349.08"/><polygon points="43.21 341.71 44.09 348.62 51 349.5 37.9 354.81 43.21 341.71"/><polygon class="cls-2" points="42.96 343.66 38.83 353.88 43.65 349.06 42.96 343.66"/><polygon class="cls-3" points="49.04 349.74 38.83 353.88 43.65 349.06 49.04 349.74"/><path d="M388.88,209.94l1.38,2.08c.36.54.66,1,1,1.58h.06c.32-.58.64-1.08,1-1.6l1.36-2.06h1.9l-3.3,4.68,3.4,5h-2l-1.42-2.18c-.38-.56-.7-1.1-1-1.68h0c-.32.58-.66,1.1-1,1.68l-1.4,2.18h-1.94l3.44-4.94-3.28-4.74Z"/><path d="M23.75,356.33l2.12,5.72c.22.65.46,1.41.62,2h0c.18-.58.38-1.33.62-2l1.92-5.68h1.86l-2.64,6.91c-1.26,3.32-2.12,5-3.32,6.06a4.77,4.77,0,0,1-2.16,1.14L22.37,369a4.66,4.66,0,0,0,1.54-.86,5.34,5.34,0,0,0,1.48-2,1.26,1.26,0,0,0,.14-.42,1.53,1.53,0,0,0-.12-.46l-3.58-8.93Z"/><line class="cls-1" x1="178.87" y1="214.47" x2="261.76" y2="117.03"/><polygon points="262.77 124.34 261.34 117.53 254.39 117.21 267.01 110.86 262.77 124.34"/><polygon class="cls-2" points="262.87 122.37 266.16 111.86 261.75 117.05 262.87 122.37"/><polygon class="cls-3" points="256.32 116.8 266.16 111.86 261.75 117.05 256.32 116.8"/><polyline class="cls-5" points="267.01 110.86 267.01 237.15 178.15 215.87"/><path class="cls-1" d="M237.07,215a60.35,60.35,0,0,1,.58,8.35c0,1.94,0,4.43-.19,6.32"/><path d="M252.82,218.12a4.65,4.65,0,0,0-2.26,4A3.6,3.6,0,0,0,253.7,226v-5.88c0-2.08,1.14-2.92,2.46-2.92,1.9,0,4,1.82,4,4.78a5.11,5.11,0,0,1-4.8,5.3V231H253.7v-3.76a4.9,4.9,0,0,1-4.88-5.08,5.54,5.54,0,0,1,3.32-5Zm2.5,7.84c1.9-.26,3.12-1.74,3.12-4,0-2-1.16-3.54-2.28-3.54-.5,0-.84.44-.84,1.36Z"/><path d="M208.14,127.66c0-4.08,1.66-7.2,4.68-7.2s4.51,2.9,4.51,7.2c0,4.51-1.46,7.45-4.57,7.45C209.9,135.11,208.14,132.61,208.14,127.66Zm7.44-.76c0-2.84-.91-5.14-2.86-5.14-1.78,0-2.84,2.42-2.84,5.14Zm-5.7,1.32c0,3.57,1.2,5.59,2.92,5.59,1.89,0,2.78-2.32,2.78-5.59Z"/><path class="cls-1" d="M177.92,137.82a77.3,77.3,0,0,1,50.2,18.43"/></svg>