<svg id="Layer_1" data-name="Layer 1" xmlns="http://www.w3.org/2000/svg" viewBox="0 0 438.85 327.86"><defs><style>.cls-1,.cls-2{fill:none;}.cls-1,.cls-2,.cls-5,.cls-6{stroke:#000;stroke-miterlimit:10;}.cls-1{stroke-width:0.5px;}.cls-3{fill:#a6a6a6;}.cls-4{fill:#666;}.cls-6{fill:#fcee21;stroke-width:0.3px;}</style></defs><title>AreaLight multiple directions</title><polygon class="cls-1" points="435.09 141.12 98.11 139.28 0.41 325.76 337.39 327.6 435.09 141.12"/><line class="cls-2" x1="217.75" y1="233.06" x2="217.75" y2="63.56"/><polygon points="220.5 66.01 217.75 63.88 215 66.01 217.75 59.5 220.5 66.01"/><polygon class="cls-3" points="219.9 65.23 217.75 60.16 217.75 63.57 219.9 65.23"/><polygon class="cls-4" points="215.6 65.23 217.75 60.16 217.75 63.57 215.6 65.23"/><circle class="cls-5" cx="217.63" cy="232.76" r="2.25"/><polygon class="cls-6" points="402.12 1.47 398.14 25.87 410.63 4.54 402.23 27.79 418.43 9.11 405.91 30.42 425.26 15.05 409.03 33.69 430.88 22.13 411.51 37.48 435.1 30.13 413.24 41.66 437.79 38.77 414.18 46.08 438.84 47.75 414.29 50.6 438.22 56.78 413.56 55.07 435.95 65.53 412.03 59.32 432.12 73.72 409.74 63.22 426.84 81.07 406.77 66.64 420.3 87.32 403.23 69.45 412.73 92.27 399.23 71.56 404.37 95.74 394.91 72.9 395.52 97.61 390.42 73.43 386.48 97.83 385.91 73.12 377.55 96.38 381.53 71.98 369.04 93.31 377.44 70.06 361.24 88.74 373.76 67.43 354.41 82.81 370.64 64.16 348.79 75.72 368.16 60.37 344.57 67.72 366.43 56.19 341.88 59.08 365.49 51.77 340.83 50.1 365.38 47.25 341.45 41.07 366.11 42.78 343.72 32.32 367.64 38.53 347.56 24.13 369.93 34.63 352.83 16.78 372.89 31.21 359.37 10.53 376.44 28.4 366.94 5.58 380.44 26.29 375.3 2.12 384.76 24.95 384.15 0.24 389.25 24.42 393.19 0.02 393.76 24.73 402.12 1.47"/><path d="M212.46,43.92c0-1.2,0-2.19-.1-3.15h1.87l.12,1.92h.05a4.28,4.28,0,0,1,3.84-2.18c1.61,0,4.1,1,4.1,4.94v6.94h-2.11v-6.7c0-1.87-.69-3.43-2.69-3.43a3,3,0,0,0-2.83,2.16,3.28,3.28,0,0,0-.14,1v7h-2.11Z"/><line class="cls-2" x1="216.92" y1="232.83" x2="318.01" y2="103.12"/><polygon points="319.34 110.37 317.61 103.63 310.65 103.61 323 96.72 319.34 110.37"/><polygon class="cls-3" points="319.35 108.4 322.19 97.76 318 103.13 319.35 108.4"/><polygon class="cls-4" points="312.56 103.12 322.19 97.76 318 103.13 312.56 103.12"/><line class="cls-2" x1="217.89" y1="232.83" x2="330.49" y2="114.23"/><polygon points="331.1 121.58 330.05 114.7 323.12 114 336.07 108.35 331.1 121.58"/><polygon class="cls-3" points="331.31 119.62 335.17 109.3 330.48 114.24 331.31 119.62"/><polygon class="cls-4" points="325.07 113.7 335.17 109.3 330.48 114.24 325.07 113.7"/><line class="cls-2" x1="218.37" y1="233.31" x2="346.66" y2="132.25"/><polygon points="346.21 139.62 346.15 132.66 339.4 130.97 353.02 127.24 346.21 139.62"/><polygon class="cls-3" points="346.69 137.71 351.99 128.05 346.64 132.26 346.69 137.71"/><polygon class="cls-4" points="341.37 130.95 351.99 128.05 346.64 132.26 341.37 130.95"/></svg>