<svg id="Layer_1" data-name="Layer 1" xmlns="http://www.w3.org/2000/svg" viewBox="0 0 450.53 234.88"><defs><style>.cls-1{fill:none;}.cls-1,.cls-2{stroke:#000;}.cls-1,.cls-2,.cls-3{stroke-miterlimit:10;}.cls-2,.cls-3{fill:#e6e6e6;}.cls-3{stroke:gray;}.cls-4{fill:#a6a6a6;}.cls-5{fill:#666;}</style></defs><title>DistantLight approx power</title><circle class="cls-1" cx="117.44" cy="117.44" r="116.94"/><path class="cls-2" d="M116.74,233.72c-16.9,0-30.59-52-30.59-116.24S99.84,1.25,116.74,1.25"/><path class="cls-3" d="M116.74,1.25c16.89,0,30.58,52,30.58,116.23s-13.69,116.24-30.58,116.24"/><ellipse class="cls-2" cx="333.85" cy="117.48" rx="30.59" ry="116.24"/><line class="cls-1" x1="116.97" y1="1.2" x2="333.37" y2="1.2"/><line class="cls-1" x1="116.63" y1="233.7" x2="333.02" y2="233.7"/><line class="cls-1" x1="450.53" y1="9.48" x2="393.89" y2="9.48"/><polygon points="398.8 3.98 394.54 9.48 398.8 14.99 385.79 9.48 398.8 3.98"/><polygon class="cls-4" points="397.24 5.18 387.1 9.48 393.91 9.48 397.24 5.18"/><polygon class="cls-5" points="397.24 13.78 387.1 9.48 393.91 9.48 397.24 13.78"/><line class="cls-1" x1="450.53" y1="225.2" x2="393.89" y2="225.2"/><polygon points="398.8 219.7 394.54 225.2 398.8 230.7 385.79 225.2 398.8 219.7"/><polygon class="cls-4" points="397.24 220.9 387.1 225.2 393.91 225.2 397.24 220.9"/><polygon class="cls-5" points="397.24 229.5 387.1 225.2 393.91 225.2 397.24 229.5"/><line class="cls-1" x1="450.53" y1="40.3" x2="393.89" y2="40.3"/><polygon points="398.8 34.8 394.54 40.3 398.8 45.8 385.79 40.3 398.8 34.8"/><polygon class="cls-4" points="397.24 36 387.1 40.3 393.91 40.3 397.24 36"/><polygon class="cls-5" points="397.24 44.6 387.1 40.3 393.91 40.3 397.24 44.6"/><line class="cls-1" x1="450.53" y1="71.12" x2="393.89" y2="71.12"/><polygon points="398.8 65.61 394.54 71.12 398.8 76.62 385.79 71.12 398.8 65.61"/><polygon class="cls-4" points="397.24 66.81 387.1 71.12 393.91 71.12 397.24 66.81"/><polygon class="cls-5" points="397.24 75.41 387.1 71.12 393.91 71.12 397.24 75.41"/><line class="cls-1" x1="450.53" y1="101.93" x2="393.89" y2="101.93"/><polygon points="398.8 96.43 394.54 101.93 398.8 107.44 385.79 101.93 398.8 96.43"/><polygon class="cls-4" points="397.24 97.63 387.1 101.93 393.91 101.93 397.24 97.63"/><polygon class="cls-5" points="397.24 106.23 387.1 101.93 393.91 101.93 397.24 106.23"/><line class="cls-1" x1="450.53" y1="132.75" x2="393.89" y2="132.75"/><polygon points="398.8 127.25 394.54 132.75 398.8 138.25 385.79 132.75 398.8 127.25"/><polygon class="cls-4" points="397.24 128.45 387.1 132.75 393.91 132.75 397.24 128.45"/><polygon class="cls-5" points="397.24 137.05 387.1 132.75 393.91 132.75 397.24 137.05"/><line class="cls-1" x1="450.53" y1="163.57" x2="393.89" y2="163.57"/><polygon points="398.8 158.06 394.54 163.57 398.8 169.07 385.79 163.57 398.8 158.06"/><polygon class="cls-4" points="397.24 159.26 387.1 163.57 393.91 163.57 397.24 159.26"/><polygon class="cls-5" points="397.24 167.86 387.1 163.57 393.91 163.57 397.24 167.86"/><line class="cls-1" x1="450.53" y1="194.38" x2="393.89" y2="194.38"/><polygon points="398.8 188.88 394.54 194.38 398.8 199.89 385.79 194.38 398.8 188.88"/><polygon class="cls-4" points="397.24 190.08 387.1 194.38 393.91 194.38 397.24 190.08"/><polygon class="cls-5" points="397.24 198.68 387.1 194.38 393.91 194.38 397.24 198.68"/><rect class="cls-1" x="18.19" y="127.79" width="58.5" height="26.94" transform="translate(-81.7 66.91) rotate(-41.51)"/><rect class="cls-1" x="19.73" y="107.38" width="58.5" height="26.94" transform="translate(-67.79 62.81) rotate(-41.51)"/><line class="cls-1" x1="16.41" y1="150.34" x2="18.06" y2="130.03"/><line class="cls-1" x1="60.42" y1="111.58" x2="62.07" y2="91.27"/><line class="cls-1" x1="78.41" y1="131.78" x2="80.02" y2="111.59"/><line class="cls-1" x1="35.97" y1="150.31" x2="34.28" y2="170.76"/><ellipse class="cls-1" cx="187.61" cy="171.19" rx="21.58" ry="9.14" transform="translate(-31.26 42.34) rotate(-11.89)"/><path class="cls-1" d="M157,130.65c-1-4.94,7.57-10.94,19.23-13.39s22-.45,23,4.49"/><line class="cls-1" x1="156.9" y1="130.44" x2="166.67" y2="176.02"/><line class="cls-1" x1="199.17" y1="121.54" x2="208.59" y2="166.22"/><ellipse class="cls-1" cx="162.16" cy="59.02" rx="12.39" ry="5.25" transform="translate(-8.68 34.69) rotate(-11.89)"/><path class="cls-1" d="M144.59,35.74c-.6-2.84,4.35-6.28,11-7.69s12.61-.25,13.21,2.58"/><line class="cls-1" x1="144.53" y1="35.62" x2="150.14" y2="61.79"/><line class="cls-1" x1="168.8" y1="30.51" x2="174.21" y2="56.17"/></svg>