<svg id="Layer_1" data-name="Layer 1" xmlns="http://www.w3.org/2000/svg" viewBox="0 0 256.45 323.78"><defs><style>.cls-1,.cls-2{fill:none;}.cls-1,.cls-2,.cls-3{stroke:#000;stroke-miterlimit:10;}.cls-1{stroke-dasharray:4;}</style></defs><title>DistantLight shadow ray</title><circle class="cls-1" cx="128.22" cy="195.56" r="127.72"/><line class="cls-2" x1="127.57" y1="195.16" x2="255.64" y2="195.16"/><line class="cls-2" x1="72.07" y1="259.99" x2="72.07" y2="131.92"/><circle class="cls-3" cx="71.99" cy="259.54" r="5.17"/><circle class="cls-3" cx="72.02" cy="132.6" r="5.17"/><line class="cls-2" x1="71.95" y1="132.88" x2="71.95" y2="4.81"/><circle class="cls-3" cx="71.9" cy="5.67" r="5.17"/><path d="M180,204c0-1.14,0-2.12-.08-3h1.54l.06,1.9h.08a2.9,2.9,0,0,1,2.68-2.12,1.9,1.9,0,0,1,.5.06v1.66a2.64,2.64,0,0,0-.6-.06,2.47,2.47,0,0,0-2.36,2.26,5.19,5.19,0,0,0-.08.83v5.16H180Z"/><path d="M61.21,195.28c0-1.14,0-2.12-.08-3h1.55l0,1.9h.08A2.92,2.92,0,0,1,65.5,192a1.9,1.9,0,0,1,.5.06v1.66a2.64,2.64,0,0,0-.6-.06A2.48,2.48,0,0,0,63,196a5,5,0,0,0-.08.82v5.16H61.21Z"/><path d="M61.21,68.34c0-1.14,0-2.12-.08-3h1.55l0,1.9h.08A2.92,2.92,0,0,1,65.5,65.1a1.9,1.9,0,0,1,.5.06v1.66a2.64,2.64,0,0,0-.6-.06A2.48,2.48,0,0,0,63,69a5,5,0,0,0-.07.82V75H61.21Z"/><path d="M80,268.82c0-1.24,0-2.24-.08-3.16h1.58l.08,1.66h0A3.81,3.81,0,0,1,85,265.44c2.34,0,4.1,2,4.1,4.92,0,3.48-2.12,5.2-4.4,5.2a3.39,3.39,0,0,1-3-1.52h0v5.26H80Zm1.74,2.58a4,4,0,0,0,.08.72,2.72,2.72,0,0,0,2.64,2.06c1.86,0,2.94-1.52,2.94-3.74,0-1.94-1-3.6-2.88-3.6A2.81,2.81,0,0,0,81.83,269a2.85,2.85,0,0,0-.12.72Z"/></svg>