<svg id="Layer_1" data-name="Layer 1" xmlns="http://www.w3.org/2000/svg" viewBox="0 0 166.59 192.75"><defs><style>.cls-1,.cls-4{fill:none;stroke:#000;stroke-miterlimit:10;}.cls-2{fill:#a6a6a6;}.cls-3{fill:#666;}.cls-4{stroke-dasharray:4 4;}</style></defs><title>Gonio plot</title><path class="cls-1" d="M2,76.3C8.45,41.52,38.6-.45,80.73.52,122,1.47,149.61,43,155.53,76.3c9.49,53.27-31.12,115.94-76.77,116S-7.92,129.7,2,76.3Z"/><line class="cls-1" x1="78.51" y1="96.57" x2="54.06" y2="14.57"/><polygon points="60.74 17.7 54.24 15.2 50.19 20.85 51.74 6.81 60.74 17.7"/><polygon class="cls-2" points="59.14 16.55 52.12 8.06 54.06 14.59 59.14 16.55"/><polygon class="cls-3" points="50.9 19.01 52.12 8.06 54.06 14.59 50.9 19.01"/><line class="cls-1" x1="78.12" y1="95.98" x2="27.03" y2="38.83"/><polygon points="34.4 38.83 27.46 39.32 26.2 46.16 21.63 32.79 34.4 38.83"/><polygon class="cls-2" points="32.47 38.46 22.5 33.77 27.04 38.85 32.47 38.46"/><polygon class="cls-3" points="26.06 44.2 22.5 33.77 27.04 38.85 26.06 44.2"/><line class="cls-1" x1="77.92" y1="96.37" x2="12" y2="69.33"/><polygon points="18.63 66.1 12.6 69.58 14.45 76.29 4.5 66.26 18.63 66.1"/><polygon class="cls-2" points="16.73 66.62 5.71 66.75 12.01 69.34 16.73 66.62"/><polygon class="cls-3" points="13.47 74.58 5.71 66.75 12.01 69.34 13.47 74.58"/><line class="cls-1" x1="77.14" y1="96.57" x2="9.94" y2="107.65"/><polygon points="13.88 101.42 10.58 107.55 15.68 112.29 1.94 108.97 13.88 101.42"/><polygon class="cls-2" points="12.54 102.86 3.23 108.76 9.96 107.65 12.54 102.86"/><polygon class="cls-3" points="13.94 111.35 3.23 108.76 9.96 107.65 13.94 111.35"/><line class="cls-1" x1="78.12" y1="96.57" x2="25.26" y2="148.19"/><polygon points="24.93 140.82 25.72 147.74 32.62 148.7 19.46 153.85 24.93 140.82"/><polygon class="cls-2" points="24.65 142.77 20.4 152.94 25.27 148.18 24.65 142.77"/><polygon class="cls-3" points="30.66 148.93 20.4 152.94 25.27 148.18 30.66 148.93"/><line class="cls-1" x1="78.51" y1="96.57" x2="49.63" y2="174.8"/><polygon points="46.17 168.28 49.85 174.19 56.49 172.1 46.82 182.4 46.17 168.28"/><polygon class="cls-2" points="46.75 170.16 47.28 181.17 49.64 174.78 46.75 170.16"/><polygon class="cls-3" points="54.82 173.14 47.28 181.17 49.64 174.78 54.82 173.14"/><line class="cls-1" x1="78.32" y1="96.57" x2="102.77" y2="14.57"/><polygon points="106.64 20.85 102.59 15.2 96.1 17.7 105.09 6.81 106.64 20.85"/><polygon class="cls-2" points="105.94 19.01 104.71 8.06 102.77 14.59 105.94 19.01"/><polygon class="cls-3" points="97.7 16.56 104.71 8.06 102.77 14.59 97.7 16.56"/><line class="cls-1" x1="78.71" y1="95.98" x2="129.81" y2="38.83"/><polygon points="130.64 46.16 129.37 39.32 122.43 38.83 135.21 32.79 130.64 46.16"/><polygon class="cls-2" points="130.78 44.2 134.33 33.77 129.79 38.85 130.78 44.2"/><polygon class="cls-3" points="124.37 38.47 134.33 33.77 129.79 38.85 124.37 38.47"/><line class="cls-1" x1="78.91" y1="96.37" x2="144.84" y2="69.33"/><polygon points="142.38 76.29 144.24 69.58 138.21 66.1 152.33 66.26 142.38 76.29"/><polygon class="cls-2" points="143.37 74.58 151.12 66.75 144.82 69.34 143.37 74.58"/><polygon class="cls-3" points="140.1 66.63 151.12 66.75 144.82 69.34 140.1 66.63"/><line class="cls-1" x1="79.7" y1="96.57" x2="146.9" y2="107.65"/><polygon points="141.16 112.29 146.25 107.55 142.95 101.42 154.89 108.97 141.16 112.29"/><polygon class="cls-2" points="142.89 111.35 153.6 108.76 146.88 107.65 142.89 111.35"/><polygon class="cls-3" points="144.29 102.87 153.6 108.76 146.88 107.65 144.29 102.87"/><line class="cls-1" x1="78.71" y1="96.57" x2="131.58" y2="148.19"/><polygon points="124.22 148.7 131.11 147.74 131.91 140.82 137.37 153.85 124.22 148.7"/><polygon class="cls-2" points="126.17 148.93 136.43 152.94 131.56 148.18 126.17 148.93"/><polygon class="cls-3" points="132.18 142.78 136.43 152.94 131.56 148.18 132.18 142.78"/><line class="cls-1" x1="78.32" y1="96.57" x2="107.2" y2="174.8"/><polygon points="100.34 172.1 106.98 174.19 110.67 168.28 110.01 182.4 100.34 172.1"/><polygon class="cls-2" points="102.01 173.14 109.56 181.17 107.2 174.78 102.01 173.14"/><polygon class="cls-3" points="110.07 170.16 109.56 181.17 107.2 174.78 110.07 170.16"/><line class="cls-4" x1="78.08" y1="96.1" x2="139.69" y2="130.19"/><polygon points="132.73 132.63 139.12 129.88 138.06 123 146.78 134.11 132.73 132.63"/><polygon class="cls-2" points="134.68 132.33 145.63 133.48 139.67 130.18 134.68 132.33"/><polygon class="cls-3" points="138.84 124.81 145.63 133.48 139.67 130.18 138.84 124.81"/><path d="M160.43,137.65c0,1.24.7,2.2,1.66,2.2s2-1.24,2-3.84a6.6,6.6,0,0,0-1.6-4.54v-.06h1.66a6.27,6.27,0,0,1,1.66,4.64c0,3.6-1.82,5.26-3.66,5.26a2.61,2.61,0,0,1-2.52-1.72h-.08a2.71,2.71,0,0,1-2.56,1.72c-1.68,0-3.54-1.42-3.54-5.1a7,7,0,0,1,1.7-4.8h1.62v.06a7,7,0,0,0-1.6,4.7c0,2.7,1.14,3.68,2.06,3.68s1.6-1,1.6-2.18l0-3.7h1.66Z"/></svg>