<svg id="Layer_1" data-name="Layer 1" xmlns="http://www.w3.org/2000/svg" viewBox="0 0 435.51 295.55"><defs><style>.cls-1,.cls-2{fill:none;}.cls-1,.cls-2,.cls-5,.cls-6{stroke:#000;stroke-miterlimit:10;}.cls-1{stroke-width:0.5px;}.cls-3{fill:#a6a6a6;}.cls-4{fill:#666;}.cls-6{fill:#fcee21;stroke-width:0.3px;}</style></defs><title>Light Sample Li</title><polygon class="cls-1" points="435.09 108.82 98.11 106.98 0.41 293.46 337.39 295.3 435.09 108.82"/><line class="cls-2" x1="217.75" y1="200.75" x2="217.75" y2="31.25"/><polygon points="220.5 33.71 217.75 31.58 215 33.71 217.75 27.2 220.5 33.71"/><polygon class="cls-3" points="219.9 32.93 217.75 27.86 217.75 31.26 219.9 32.93"/><polygon class="cls-4" points="215.6 32.93 217.75 27.86 217.75 31.26 215.6 32.93"/><circle class="cls-5" cx="217.63" cy="200.46" r="2.25"/><line class="cls-2" x1="217.79" y1="200.47" x2="338.27" y2="52.34"/><polygon class="cls-6" points="356.9 15.49 355.32 25.17 360.27 16.71 356.94 25.93 363.37 18.52 358.4 26.98 366.07 20.88 359.64 28.27 368.3 23.69 360.62 29.77 369.98 26.86 361.31 31.43 371.04 30.28 361.68 33.18 371.46 33.85 361.72 34.98 371.21 37.42 361.44 36.75 370.31 40.9 360.83 38.44 368.79 44.15 359.92 39.98 366.7 47.06 358.74 41.34 364.11 49.54 357.34 42.45 361.1 51.5 355.75 43.29 357.79 52.88 354.04 43.82 354.28 53.62 352.26 44.03 350.7 53.7 350.47 43.91 347.16 53.13 348.73 43.46 343.78 51.91 347.11 42.7 340.69 50.1 345.65 41.65 337.98 47.75 344.41 40.35 335.75 44.94 343.43 38.85 334.07 41.77 342.75 37.2 333.01 38.34 342.37 35.44 332.6 34.78 342.33 33.65 332.84 31.2 342.62 31.88 333.74 27.73 343.23 30.19 335.26 24.48 344.13 28.64 337.35 21.57 345.31 27.29 339.94 19.09 346.71 26.17 342.95 17.13 348.3 25.34 346.26 15.75 350.01 24.8 349.77 15.01 351.79 24.6 353.36 14.92 353.58 24.72 356.9 15.49"/><path d="M331.62,89.61c0,1.49.84,2.64,2,2.64S336,90.76,336,87.64a8,8,0,0,0-1.92-5.45v-.07h2a7.53,7.53,0,0,1,2,5.57c0,4.32-2.18,6.31-4.39,6.31a3.13,3.13,0,0,1-3-2.06h-.09A3.26,3.26,0,0,1,327.52,94c-2,0-4.25-1.7-4.25-6.12a8.35,8.35,0,0,1,2-5.76h1.94v.07a8.35,8.35,0,0,0-1.92,5.64c0,3.24,1.37,4.42,2.47,4.42s1.92-1.18,1.92-2.62l0-4.44h2Z"/><path d="M341.4,93.05a.72.72,0,0,1-.78.76.76.76,0,0,1,0-1.52A.72.72,0,0,1,341.4,93.05ZM340,101.73V95h1.23v6.77Z"/><path d="M209.92,215.44c0-1.49,0-2.69-.09-3.8h1.89l.1,2h.05a4.55,4.55,0,0,1,4.12-2.26c2.81,0,4.92,2.38,4.92,5.9,0,4.18-2.54,6.24-5.28,6.24a4.06,4.06,0,0,1-3.57-1.82H212V228h-2.09Zm2.09,3.09a4.72,4.72,0,0,0,.1.87,3.25,3.25,0,0,0,3.16,2.47c2.24,0,3.53-1.83,3.53-4.49,0-2.33-1.22-4.32-3.45-4.32a3.38,3.38,0,0,0-3.2,2.62,3.44,3.44,0,0,0-.14.86Z"/><path d="M212.46,11.62c0-1.2,0-2.19-.1-3.15h1.87l.12,1.92h.05a4.28,4.28,0,0,1,3.84-2.18c1.61,0,4.1,1,4.1,4.94v6.94h-2.11v-6.7c0-1.87-.69-3.43-2.69-3.43a3,3,0,0,0-2.83,2.16,3.17,3.17,0,0,0-.14,1v7h-2.11Z"/></svg>