<svg id="Layer_1" data-name="Layer 1" xmlns="http://www.w3.org/2000/svg" viewBox="0 0 305.38 222.16"><defs><style>.cls-1,.cls-5{fill:none;}.cls-1,.cls-4,.cls-5{stroke:#000;stroke-miterlimit:10;}.cls-2{fill:#a6a6a6;}.cls-3{fill:#666;}.cls-5{stroke-dasharray:4;}</style></defs><title>Spotlight angles</title><polyline class="cls-1" points="297.28 216.66 5.15 216.43 204.02 5.89"/><polygon points="292.38 211.15 296.63 216.66 292.37 222.16 305.38 216.67 292.38 211.15"/><polygon class="cls-2" points="293.93 212.36 304.07 216.67 297.26 216.66 293.93 212.36"/><polygon class="cls-3" points="293.93 220.96 304.07 216.67 297.26 216.66 293.93 220.96"/><polygon points="204.65 13.24 203.57 6.36 196.64 5.68 209.58 0 204.65 13.24"/><polygon class="cls-2" points="204.84 11.28 208.68 0.95 204 5.91 204.84 11.28"/><polygon class="cls-3" points="198.59 5.38 208.68 0.95 204 5.91 198.59 5.38"/><line class="cls-1" x1="261.98" y1="70.46" x2="5.38" y2="216.67"/><polygon points="254.99 68.11 261.41 70.79 260.44 77.68 269.02 66.45 254.99 68.11"/><polygon class="cls-2" points="256.94 68.39 267.88 67.1 261.96 70.47 256.94 68.39"/><polygon class="cls-3" points="261.19 75.86 267.88 67.1 261.96 70.47 261.19 75.86"/><path class="cls-1" d="M68.67,202.82a61.16,61.16,0,0,1,1.5,13.55"/><path class="cls-1" d="M122.29,150a137.11,137.11,0,0,1,17.1,66.22"/><path class="cls-1" d="M168.78,43.33a287.54,287.54,0,0,1,57.78,173.34"/><circle class="cls-4" cx="282.91" cy="156.33" r="5.17"/><circle class="cls-4" cx="5.67" cy="216.14" r="5.17"/><line class="cls-5" x1="283.13" y1="156.65" x2="5.38" y2="216.67"/><path d="M108.21,205.3c0-4.89,2-8.64,5.62-8.64s5.4,3.48,5.4,8.64c0,5.4-1.76,8.93-5.47,8.93C110.32,214.23,108.21,211.23,108.21,205.3Zm8.93-.91c0-3.41-1.11-6.17-3.43-6.17-2.14,0-3.41,2.91-3.41,6.17ZM110.3,206c0,4.27,1.44,6.69,3.5,6.69,2.26,0,3.34-2.78,3.34-6.69Z"/><path d="M131.83,162.65v-8.34h-1.36V153h1.36v-.46a4.56,4.56,0,0,1,1.12-3.38,3.37,3.37,0,0,1,2.36-.9,4.08,4.08,0,0,1,1.5.28l-.24,1.36a2.63,2.63,0,0,0-1.12-.22c-1.5,0-1.88,1.32-1.88,2.8V153h2.34v1.34h-2.34v8.34Z"/><path d="M142.85,162.65l-.14-1.22h-.06a3.61,3.61,0,0,1-3,1.44,2.76,2.76,0,0,1-3-2.78c0-2.34,2.08-3.62,5.82-3.6v-.2a2,2,0,0,0-2.2-2.24,4.82,4.82,0,0,0-2.52.72l-.4-1.16a6,6,0,0,1,3.18-.86c3,0,3.68,2,3.68,4v3.62a13.63,13.63,0,0,0,.16,2.32Zm-.26-4.94c-1.92,0-4.1.3-4.1,2.18a1.56,1.56,0,0,0,1.66,1.68,2.41,2.41,0,0,0,2.34-1.62,1.84,1.84,0,0,0,.1-.56Z"/><path d="M147.13,148.45h1.76v14.2h-1.76Z"/><path d="M151.85,148.45h1.76v14.2h-1.76Z"/><path d="M165.33,157.73c0,3.58-2.48,5.14-4.82,5.14-2.62,0-4.64-1.92-4.64-5,0-3.24,2.12-5.14,4.8-5.14S165.33,154.77,165.33,157.73Zm-7.68.1c0,2.12,1.22,3.72,2.94,3.72s2.94-1.58,2.94-3.76c0-1.64-.82-3.72-2.9-3.72S157.65,156,157.65,157.83Z"/><path d="M173.53,162.65v-8.34h-4.06v8.34h-1.74v-8.34h-1.36V153h1.36v-.32a4.57,4.57,0,0,1,1.08-3.3,3.31,3.31,0,0,1,2.44-.9,3.1,3.1,0,0,1,1.38.34l-.36,1.3a2.57,2.57,0,0,0-1-.24c-1.38,0-1.76,1.18-1.76,2.7V153h4.06v-.46a4.57,4.57,0,0,1,1.14-3.38,3.35,3.35,0,0,1,2.34-.9,4,4,0,0,1,1.5.28l-.22,1.36a2.73,2.73,0,0,0-1.14-.22c-1.48,0-1.88,1.32-1.88,2.8V153h2.34v1.34h-2.32v8.34Z"/><path d="M179,160.53a6.17,6.17,0,0,0,3.12.88c1.78,0,2.82-.94,2.82-2.3s-.72-2-2.54-2.68c-2.2-.78-3.56-1.92-3.56-3.82,0-2.1,1.74-3.66,4.36-3.66a6.12,6.12,0,0,1,3,.66l-.48,1.42a5.37,5.37,0,0,0-2.56-.64c-1.84,0-2.54,1.1-2.54,2,0,1.26.82,1.88,2.68,2.6,2.28.88,3.44,2,3.44,4s-1.54,3.88-4.72,3.88a7,7,0,0,1-3.44-.86Z"/><path d="M191.13,150.19V153h2.52v1.34h-2.52v5.22c0,1.2.34,1.88,1.32,1.88a3.92,3.92,0,0,0,1-.12l.08,1.32a4.31,4.31,0,0,1-1.56.24,2.44,2.44,0,0,1-1.9-.74,3.59,3.59,0,0,1-.68-2.52v-5.28h-1.5V153h1.5v-2.32Z"/><path d="M201,162.65l-.14-1.22h-.06a3.61,3.61,0,0,1-3,1.44,2.76,2.76,0,0,1-3-2.78c0-2.34,2.08-3.62,5.82-3.6v-.2a2,2,0,0,0-2.2-2.24,4.82,4.82,0,0,0-2.52.72l-.4-1.16a6,6,0,0,1,3.18-.86c3,0,3.68,2,3.68,4v3.62a13.63,13.63,0,0,0,.16,2.32Zm-.26-4.94c-1.92,0-4.1.3-4.1,2.18a1.56,1.56,0,0,0,1.66,1.68,2.41,2.41,0,0,0,2.34-1.62,1.84,1.84,0,0,0,.1-.56Z"/><path d="M205.27,156c0-1.14,0-2.12-.08-3h1.54l.06,1.9h.08a2.9,2.9,0,0,1,2.68-2.12,1.9,1.9,0,0,1,.5.06v1.66a2.64,2.64,0,0,0-.6-.06,2.47,2.47,0,0,0-2.36,2.26,5,5,0,0,0-.08.82v5.16h-1.74Z"/><path d="M214.41,150.19V153h2.52v1.34h-2.52v5.22c0,1.2.34,1.88,1.32,1.88a3.92,3.92,0,0,0,1-.12l.08,1.32a4.31,4.31,0,0,1-1.56.24,2.44,2.44,0,0,1-1.9-.74,3.59,3.59,0,0,1-.68-2.52v-5.28h-1.5V153h1.5v-2.32Z"/><path d="M183.52,40.79v2.78H186v1.34h-2.52v5.22c0,1.2.34,1.88,1.32,1.88a3.92,3.92,0,0,0,1-.12l.08,1.33a4.31,4.31,0,0,1-1.56.24,2.47,2.47,0,0,1-1.9-.74,3.63,3.63,0,0,1-.68-2.53V44.91h-1.5V43.57h1.5V41.25Z"/><path d="M196.66,48.33c0,3.58-2.48,5.15-4.82,5.15-2.62,0-4.64-1.93-4.64-5,0-3.24,2.12-5.14,4.8-5.14S196.66,45.37,196.66,48.33Zm-7.68.1c0,2.12,1.22,3.72,2.94,3.72s2.94-1.58,2.94-3.76c0-1.64-.82-3.72-2.9-3.72S189,46.59,189,48.43Z"/><path d="M201,40.79v2.78h2.52v1.34H201v5.22c0,1.2.34,1.88,1.32,1.88a3.92,3.92,0,0,0,1-.12l.08,1.33a4.31,4.31,0,0,1-1.56.24,2.47,2.47,0,0,1-1.9-.74,3.63,3.63,0,0,1-.68-2.53V44.91h-1.5V43.57h1.5V41.25Z"/><path d="M210.86,53.26,210.72,52h-.06a3.58,3.58,0,0,1-3,1.45,2.77,2.77,0,0,1-3-2.79c0-2.34,2.08-3.62,5.82-3.6v-.2a2,2,0,0,0-2.2-2.24,4.82,4.82,0,0,0-2.52.72l-.4-1.16a6,6,0,0,1,3.18-.86c3,0,3.68,2,3.68,4v3.62a13.83,13.83,0,0,0,.16,2.33Zm-.26-4.95c-1.92,0-4.1.3-4.1,2.18a1.56,1.56,0,0,0,1.66,1.68,2.41,2.41,0,0,0,2.34-1.62,1.84,1.84,0,0,0,.1-.56Z"/><path d="M215.14,39.05h1.76V53.26h-1.76Z"/><path d="M222.12,53.26,218.7,39.77h1.84l1.6,6.82c.4,1.68.76,3.36,1,4.66h0c.22-1.34.64-2.94,1.1-4.68l1.8-6.8h1.82l1.64,6.84c.38,1.6.74,3.2.94,4.62h0c.28-1.48.66-3,1.08-4.66l1.78-6.8h1.78l-3.82,13.49h-1.82l-1.7-7a40.59,40.59,0,0,1-.88-4.4h0a42.11,42.11,0,0,1-1,4.4l-1.92,7Z"/><path d="M238.42,40.85a1.09,1.09,0,0,1-2.18,0,1.07,1.07,0,0,1,1.1-1.1A1,1,0,0,1,238.42,40.85Zm-2,12.41V43.57h1.76v9.69Z"/><path d="M249.5,39.05v11.7c0,.86,0,1.84.08,2.51H248l-.08-1.69h0a3.59,3.59,0,0,1-3.3,1.91c-2.34,0-4.14-2-4.14-4.93,0-3.22,2-5.2,4.34-5.2a3.24,3.24,0,0,1,2.92,1.48h0V39.05Zm-1.76,8.46a3.11,3.11,0,0,0-.08-.74,2.59,2.59,0,0,0-2.54-2c-1.82,0-2.9,1.6-2.9,3.74,0,2,1,3.58,2.86,3.58a2.65,2.65,0,0,0,2.58-2.1,3.06,3.06,0,0,0,.08-.76Z"/><path d="M254.54,40.79v2.78h2.52v1.34h-2.52v5.22c0,1.2.34,1.88,1.32,1.88a3.92,3.92,0,0,0,1-.12l.08,1.33a4.31,4.31,0,0,1-1.56.24,2.47,2.47,0,0,1-1.9-.74,3.63,3.63,0,0,1-.68-2.53V44.91h-1.5V43.57h1.5V41.25Z"/><path d="M259,39.05h1.76v6h0a3.27,3.27,0,0,1,1.26-1.24,3.62,3.62,0,0,1,1.8-.5c1.3,0,3.38.8,3.38,4.14v5.77h-1.76V47.69c0-1.56-.58-2.88-2.24-2.88a2.53,2.53,0,0,0-2.36,1.76,2.13,2.13,0,0,0-.12.84v5.85H259Z"/><path d="M285.36,169.32c0-1.25,0-2.25-.08-3.17h1.59l.08,1.67h0a3.79,3.79,0,0,1,3.44-1.89c2.34,0,4.1,2,4.1,4.93,0,3.48-2.12,5.2-4.4,5.2a3.42,3.42,0,0,1-3-1.52h0v5.26h-1.74Zm1.74,2.58a4,4,0,0,0,.08.72,2.74,2.74,0,0,0,2.65,2.06c1.86,0,2.94-1.52,2.94-3.74,0-1.94-1-3.61-2.88-3.61a2.83,2.83,0,0,0-2.67,2.19,3.39,3.39,0,0,0-.12.72Z"/></svg>