<svg id="Layer_1" data-name="Layer 1" xmlns="http://www.w3.org/2000/svg" viewBox="0 0 247.82 120.57"><defs><style>.cls-1{fill:none;stroke:#000;stroke-miterlimit:10;}</style></defs><title>Block number offset</title><rect class="cls-1" x="0.86" y="34.65" width="237.8" height="51.69"/><path d="M26.59,60.41c0,4.42-1.64,6.86-4.52,6.86-2.54,0-4.26-2.38-4.3-6.68s1.88-6.76,4.52-6.76S26.59,56.27,26.59,60.41Zm-7.06.2c0,3.38,1,5.3,2.64,5.3,1.8,0,2.66-2.1,2.66-5.42s-.82-5.3-2.64-5.3C20.65,55.19,19.53,57.07,19.53,60.61Z"/><path d="M60.66,56.19h0l-2.26,1.22L58,56.07l2.84-1.52h1.5v13h-1.7Z"/><path d="M99.56,55.19h0l-2.26,1.22-.34-1.34,2.84-1.52h1.5v13h-1.7Z"/><path d="M143.27,59.24c0,4.42-1.64,6.86-4.52,6.86-2.54,0-4.26-2.38-4.3-6.68s1.88-6.76,4.52-6.76S143.27,55.1,143.27,59.24Zm-7.06.2c0,3.38,1,5.3,2.64,5.3,1.8,0,2.66-2.1,2.66-5.42s-.82-5.3-2.64-5.3C137.33,54,136.21,55.9,136.21,59.44Z"/><path d="M177.34,54.85h0L175,56.07l-.34-1.34,2.84-1.52H179v13h-1.7Z"/><path d="M221.05,58.4c0,4.42-1.64,6.86-4.52,6.86-2.54,0-4.26-2.38-4.3-6.68s1.88-6.76,4.52-6.76S221.05,54.26,221.05,58.4Zm-7.06.2c0,3.38,1,5.3,2.64,5.3,1.8,0,2.66-2.1,2.66-5.42s-.82-5.3-2.64-5.3C215.11,53.18,214,55.06,214,58.6Z"/><line class="cls-1" x1="40.61" y1="34.31" x2="40.61" y2="86.15"/><line class="cls-1" x1="199" y1="34.31" x2="199" y2="86.15"/><line class="cls-1" x1="159.4" x2="159.4" y2="120.57"/><line class="cls-1" x1="119.8" y1="34.31" x2="119.8" y2="86.15"/><line class="cls-1" x1="80.2" y1="34.31" x2="80.2" y2="86.15"/><line class="cls-1" x1="1.01" y1="34.31" x2="1.01" y2="86.15"/><line class="cls-1" x1="238.59" y1="34.31" x2="238.59" y2="86.15"/><path d="M26.46,100.54a16.86,16.86,0,0,1,3.18-.28,5.57,5.57,0,0,1,3.7,1,2.83,2.83,0,0,1,1.12,2.38,3.2,3.2,0,0,1-2.28,3v0A3.47,3.47,0,0,1,35,110a3.63,3.63,0,0,1-1.14,2.7c-.94.86-2.46,1.26-4.66,1.26a20.34,20.34,0,0,1-2.7-.16Zm1.74,5.52h1.58c1.84,0,2.92-1,2.92-2.26,0-1.58-1.2-2.2-3-2.2a7.46,7.46,0,0,0-1.54.12Zm0,6.46a9.3,9.3,0,0,0,1.46.08c1.8,0,3.46-.66,3.46-2.62s-1.58-2.6-3.48-2.6H28.2Z"/><path d="M37.24,99.64H39v14.2H37.24Z"/><path d="M50.72,108.92c0,3.58-2.48,5.14-4.82,5.14-2.62,0-4.64-1.92-4.64-5,0-3.24,2.12-5.14,4.8-5.14S50.72,106,50.72,108.92ZM43,109c0,2.12,1.22,3.72,2.94,3.72s2.94-1.58,2.94-3.76c0-1.64-.82-3.72-2.9-3.72S43,107.18,43,109Z"/><path d="M59.84,113.48a6.48,6.48,0,0,1-2.78.56,4.6,4.6,0,0,1-4.82-4.94,4.92,4.92,0,0,1,5.2-5.14,5.88,5.88,0,0,1,2.44.5l-.4,1.36a4.08,4.08,0,0,0-2-.46,3.65,3.65,0,0,0-.06,7.28,5,5,0,0,0,2.16-.48Z"/><path d="M63.64,108.6h0c.24-.34.58-.76.86-1.1l2.84-3.34H69.5l-3.74,4,4.26,5.7H67.88l-3.34-4.64-.9,1v3.64H61.9V99.64h1.74Z"/><path d="M75.51,106.78c0-1,0-1.82-.08-2.62H77l.11,1.6h0a3.56,3.56,0,0,1,3.2-1.82c1.34,0,3.42.8,3.42,4.12v5.78H82v-5.58c0-1.56-.58-2.86-2.24-2.86a2.5,2.5,0,0,0-2.36,1.8,2.53,2.53,0,0,0-.12.82v5.82H75.51Z"/><path d="M94.72,111.2c0,1,0,1.88.08,2.64H93.24l-.1-1.58h0a3.64,3.64,0,0,1-3.2,1.8c-1.52,0-3.34-.84-3.34-4.24v-5.66h1.76v5.36c0,1.84.56,3.08,2.16,3.08A2.54,2.54,0,0,0,92.8,111a2.57,2.57,0,0,0,.16-.9v-5.94h1.76Z"/><path d="M97.64,106.78c0-1,0-1.82-.08-2.62H99.1l.08,1.56h.06a3.34,3.34,0,0,1,3-1.78,2.86,2.86,0,0,1,2.74,1.94h0a4,4,0,0,1,1.08-1.26,3.3,3.3,0,0,1,2.14-.68c1.28,0,3.18.84,3.18,4.2v5.7h-1.72v-5.48c0-1.86-.68-3-2.1-3a2.28,2.28,0,0,0-2.08,1.6,2.9,2.9,0,0,0-.14.88v6H103.7V108c0-1.54-.68-2.66-2-2.66A2.62,2.62,0,0,0,99.36,108v5.84H97.64Z"/><path d="M114.23,113.84c0-.66.08-1.64.08-2.5V99.64h1.75v6.08h0a3.61,3.61,0,0,1,3.3-1.78c2.4,0,4.1,2,4.08,4.94,0,3.46-2.18,5.18-4.34,5.18a3.47,3.47,0,0,1-3.25-1.82h-.06l-.08,1.6Zm1.83-3.88a3.3,3.3,0,0,0,.08.64,2.71,2.71,0,0,0,2.64,2.06c1.84,0,2.94-1.5,2.94-3.72,0-1.94-1-3.6-2.88-3.6a2.8,2.8,0,0,0-2.68,2.16,3.47,3.47,0,0,0-.1.72Z"/><path d="M126.67,109.32a3.11,3.11,0,0,0,3.33,3.36,6.36,6.36,0,0,0,2.68-.5l.3,1.26a7.84,7.84,0,0,1-3.22.6c-3,0-4.77-2-4.77-4.88s1.72-5.22,4.55-5.22c3.16,0,4,2.78,4,4.56a6.64,6.64,0,0,1-.06.82Zm5.17-1.26c0-1.12-.46-2.86-2.44-2.86-1.78,0-2.57,1.64-2.71,2.86Z"/><path d="M135.71,107.18c0-1.14,0-2.12-.08-3h1.54l.06,1.9h.08a2.9,2.9,0,0,1,2.68-2.12,1.85,1.85,0,0,1,.5.06v1.66a2.52,2.52,0,0,0-.6-.06,2.47,2.47,0,0,0-2.36,2.26,5,5,0,0,0-.08.82v5.16h-1.74Z"/><path d="M187.31,107c0,4.64-2.82,7.1-6.26,7.1S175,111.3,175,107.22c0-4.28,2.67-7.08,6.27-7.08S187.31,103,187.31,107Zm-10.46.22c0,2.88,1.56,5.46,4.3,5.46s4.32-2.54,4.32-5.6c0-2.68-1.4-5.48-4.3-5.48S176.85,104.22,176.85,107.18Z"/><path d="M195.81,113.84V105.5h-4.07v8.34H190V105.5h-1.36v-1.34H190v-.32a4.57,4.57,0,0,1,1.08-3.3,3.33,3.33,0,0,1,2.45-.9,3,3,0,0,1,1.38.34l-.36,1.3a2.57,2.57,0,0,0-1-.24c-1.39,0-1.77,1.18-1.77,2.7v.42h4.07v-.46a4.57,4.57,0,0,1,1.14-3.38,3.35,3.35,0,0,1,2.34-.9,4,4,0,0,1,1.5.28l-.22,1.36a2.73,2.73,0,0,0-1.14-.22c-1.48,0-1.88,1.32-1.88,2.8v.52h2.34v1.34h-2.32v8.34Z"/><path d="M201.06,112a4.65,4.65,0,0,0,2.33.7c1.28,0,1.88-.64,1.88-1.44s-.5-1.3-1.8-1.78c-1.75-.62-2.57-1.58-2.57-2.74,0-1.56,1.26-2.84,3.35-2.84a4.83,4.83,0,0,1,2.38.6l-.44,1.28a3.77,3.77,0,0,0-2-.56c-1,0-1.62.6-1.62,1.32s.58,1.16,1.84,1.64c1.68.64,2.54,1.48,2.54,2.92,0,1.7-1.32,2.9-3.62,2.9a5.56,5.56,0,0,1-2.73-.66Z"/><path d="M210.2,109.32a3.11,3.11,0,0,0,3.33,3.36,6.36,6.36,0,0,0,2.68-.5l.3,1.26a7.84,7.84,0,0,1-3.22.6,4.5,4.5,0,0,1-4.77-4.88c0-2.92,1.72-5.22,4.55-5.22,3.16,0,4,2.78,4,4.56a6.64,6.64,0,0,1-.06.82Zm5.17-1.26c0-1.12-.46-2.86-2.44-2.86-1.78,0-2.56,1.64-2.71,2.86Z"/><path d="M221.36,101.38v2.78h2.53v1.34h-2.53v5.22c0,1.2.34,1.88,1.32,1.88a3.94,3.94,0,0,0,1-.12l.08,1.32a4.33,4.33,0,0,1-1.57.24,2.44,2.44,0,0,1-1.9-.74,3.59,3.59,0,0,1-.68-2.52V105.5h-1.5v-1.34h1.5v-2.32Z"/><path d="M165.2,10.55h1.41V21.92H165.2Z"/><path d="M176,18a3.78,3.78,0,0,1-3.85,4.11,3.68,3.68,0,0,1-3.72-4A3.79,3.79,0,0,1,172.26,14,3.67,3.67,0,0,1,176,18Zm-6.14.08c0,1.7,1,3,2.35,3s2.35-1.27,2.35-3c0-1.31-.65-3-2.32-3S169.84,16.59,169.84,18.06Z"/><path d="M184.43,14.17c0,.56-.06,1.19-.06,2.13v4.5c0,1.77-.35,2.86-1.11,3.53a4.07,4.07,0,0,1-2.81.93,5,5,0,0,1-2.58-.64l.35-1.07a4.36,4.36,0,0,0,2.28.61c1.44,0,2.49-.75,2.49-2.71v-.86h0a2.76,2.76,0,0,1-2.46,1.3c-1.93,0-3.3-1.64-3.3-3.78,0-2.63,1.71-4.12,3.49-4.12a2.57,2.57,0,0,1,2.41,1.35h0l.06-1.17ZM183,17.23a2.12,2.12,0,0,0-.08-.64,2,2,0,0,0-2-1.49c-1.35,0-2.31,1.14-2.31,2.93,0,1.52.77,2.78,2.29,2.78a2,2,0,0,0,2-1.44,2.45,2.45,0,0,0,.12-.75Z"/><path d="M186.75,11.27a14.26,14.26,0,0,1,2.54-.22,4.51,4.51,0,0,1,3,.78,2.27,2.27,0,0,1,.89,1.91,2.57,2.57,0,0,1-1.82,2.37v0a2.78,2.78,0,0,1,2.22,2.7,2.94,2.94,0,0,1-.91,2.17,5.46,5.46,0,0,1-3.73,1,17.29,17.29,0,0,1-2.16-.12Zm1.39,4.42h1.27c1.47,0,2.33-.77,2.33-1.81,0-1.26-1-1.76-2.37-1.76a5.76,5.76,0,0,0-1.23.1Zm0,5.17a7.06,7.06,0,0,0,1.17.07c1.44,0,2.77-.53,2.77-2.1s-1.26-2.08-2.79-2.08h-1.15Z"/><path d="M195.37,10.55h1.41V21.92h-1.41Z"/><path d="M206.16,18a3.78,3.78,0,0,1-3.86,4.11,3.68,3.68,0,0,1-3.71-4A3.79,3.79,0,0,1,202.43,14,3.67,3.67,0,0,1,206.16,18Zm-6.15.08c0,1.7,1,3,2.36,3s2.35-1.27,2.35-3c0-1.31-.66-3-2.32-3S200,16.59,200,18.06Z"/><path d="M213.46,21.63a5.25,5.25,0,0,1-2.23.45,3.69,3.69,0,0,1-3.86-4A3.94,3.94,0,0,1,211.53,14a4.77,4.77,0,0,1,2,.4l-.32,1.09a3.33,3.33,0,0,0-1.64-.37,2.68,2.68,0,0,0-2.73,2.93,2.66,2.66,0,0,0,2.69,2.9,3.94,3.94,0,0,0,1.73-.39Z"/><path d="M216.49,17.72h0c.19-.27.46-.6.68-.88l2.28-2.67h1.69l-3,3.19,3.41,4.56h-1.71l-2.68-3.72-.72.8v2.92H215.1V10.55h1.39Z"/><path d="M222.46,20.22a4.91,4.91,0,0,0,2.5.71c1.42,0,2.26-.76,2.26-1.85s-.58-1.58-2-2.14c-1.76-.62-2.85-1.54-2.85-3.06,0-1.68,1.4-2.93,3.49-2.93a4.93,4.93,0,0,1,2.39.53l-.39,1.14a4.31,4.31,0,0,0-2-.51c-1.47,0-2,.88-2,1.61,0,1,.66,1.51,2.15,2.08,1.82.71,2.75,1.59,2.75,3.17s-1.23,3.11-3.78,3.11a5.62,5.62,0,0,1-2.75-.69Z"/><path d="M232.06,12a.83.83,0,0,1-.89.87.84.84,0,0,1-.85-.87.86.86,0,0,1,.88-.88A.83.83,0,0,1,232.06,12Zm-1.57,9.93V14.17h1.41v7.75Z"/><path d="M233.36,21.1l3.5-4.56c.34-.42.66-.78,1-1.2v0h-4.19V14.17h5.9v.88l-3.46,4.5c-.32.43-.64.82-1,1.22v0h4.53v1.12h-6.29Z"/><path d="M241.76,18.3A2.48,2.48,0,0,0,244.41,21a5.19,5.19,0,0,0,2.15-.4l.24,1a6.39,6.39,0,0,1-2.58.48,3.6,3.6,0,0,1-3.81-3.91c0-2.33,1.38-4.18,3.64-4.18,2.53,0,3.2,2.23,3.2,3.65a4.54,4.54,0,0,1-.05.66Zm4.13-1a2,2,0,0,0-2-2.29,2.35,2.35,0,0,0-2.16,2.29Z"/><polyline class="cls-1" points="0.5 90.11 0.5 94.35 158.05 94.35 158.05 89.93"/><polyline class="cls-1" points="160.67 90.02 160.67 94.54 238.46 94.54 238.46 89.93"/><polyline class="cls-1" points="238.46 33.32 238.46 28.8 160.67 28.8 160.67 33.41"/></svg>