<svg id="Layer_1" data-name="Layer 1" xmlns="http://www.w3.org/2000/svg" viewBox="0 0 464.13 156.4"><defs><style>.cls-1,.cls-2,.cls-3{fill:none;stroke-miterlimit:10;}.cls-1{stroke:#0071bc;stroke-width:4px;}.cls-2{stroke:#fff;}.cls-3{stroke:#000;}</style></defs><title>Cache line object layout</title><line class="cls-1" x1="165.41" y1="100.1" x2="381.75" y2="100.1"/><line class="cls-2" x1="237.58" y1="98.09" x2="237.58" y2="102.11"/><line class="cls-3" x1="309.58" y1="98.1" x2="309.58" y2="102.11"/><line class="cls-1" x1="129.32" y1="9.7" x2="345.65" y2="9.7"/><line class="cls-2" x1="201.49" y1="7.69" x2="201.49" y2="11.7"/><line class="cls-2" x1="273.49" y1="7.69" x2="273.49" y2="11.71"/><path d="M5.28,47.33a13.19,13.19,0,0,0-2.52,8.18,13.48,13.48,0,0,0,2.52,8.12H3.9a12.93,12.93,0,0,1-2.62-8.12A13.2,13.2,0,0,1,3.9,47.33Z"/><path d="M12.5,61.21,12.36,60H12.3a3.61,3.61,0,0,1-3,1.44,2.76,2.76,0,0,1-3-2.78c0-2.34,2.08-3.62,5.82-3.6v-.2A2,2,0,0,0,10,52.61a4.82,4.82,0,0,0-2.52.72l-.4-1.16a6,6,0,0,1,3.18-.86c3,0,3.68,2,3.68,4v3.62a13.63,13.63,0,0,0,.16,2.32Zm-.26-4.94c-1.92,0-4.1.3-4.1,2.18A1.56,1.56,0,0,0,9.8,60.13a2.41,2.41,0,0,0,2.34-1.62,1.84,1.84,0,0,0,.1-.56Z"/><path d="M15.72,63.63a13.54,13.54,0,0,0,2.52-8.18,13.26,13.26,0,0,0-2.52-8.12h1.36a12.74,12.74,0,0,1,2.62,8.14,13,13,0,0,1-2.62,8.16Z"/><path d="M5.28,137.51a13.2,13.2,0,0,0-2.52,8.19,13.48,13.48,0,0,0,2.52,8.12H3.9a12.93,12.93,0,0,1-2.62-8.12,13.21,13.21,0,0,1,2.62-8.19Z"/><path d="M7.06,151.4c0-.66.08-1.64.08-2.5V137.19H8.88v6.08h0a3.61,3.61,0,0,1,3.3-1.78c2.4,0,4.1,2,4.08,4.95,0,3.46-2.18,5.18-4.34,5.18a3.45,3.45,0,0,1-3.24-1.82H8.66l-.08,1.6Zm1.82-3.88a3.3,3.3,0,0,0,.08.64,2.72,2.72,0,0,0,2.64,2.06c1.84,0,2.94-1.5,2.94-3.72,0-1.95-1-3.61-2.88-3.61A2.81,2.81,0,0,0,9,145.05a3.57,3.57,0,0,0-.1.73Z"/><path d="M17.4,153.82a13.54,13.54,0,0,0,2.52-8.18,13.27,13.27,0,0,0-2.52-8.13h1.36a12.75,12.75,0,0,1,2.62,8.15,13,13,0,0,1-2.62,8.16Z"/><line class="cls-3" x1="20.91" y1="9.71" x2="453.88" y2="9.71"/><line class="cls-3" x1="20.58" x2="20.58" y2="18.67"/><line class="cls-3" x1="453.88" x2="453.88" y2="18.67"/><line class="cls-3" x1="309.44" x2="309.44" y2="18.67"/><line class="cls-3" x1="165.01" x2="165.01" y2="18.67"/><path d="M25,31.78c0,4.42-1.64,6.86-4.52,6.86-2.54,0-4.26-2.38-4.3-6.68s1.88-6.76,4.52-6.76S25,27.64,25,31.78ZM18,32c0,3.38,1,5.3,2.64,5.3,1.8,0,2.66-2.1,2.66-5.42s-.82-5.3-2.64-5.3C19.07,26.56,18,28.44,18,32Z"/><path d="M156.06,36.4a5.93,5.93,0,0,0,2.89.82c2.26,0,3-1.44,2.94-2.52,0-1.82-1.66-2.6-3.36-2.6h-1V30.78h1c1.28,0,2.9-.66,2.9-2.2,0-1-.66-2-2.28-2a4.81,4.81,0,0,0-2.61.86l-.46-1.28a6.24,6.24,0,0,1,3.41-1c2.56,0,3.72,1.52,3.72,3.1a3.23,3.23,0,0,1-2.4,3.06v0a3.39,3.39,0,0,1,2.9,3.34c0,2.08-1.62,3.9-4.74,3.9a6.68,6.68,0,0,1-3.39-.88Z"/><path d="M165.9,38.42V37.34L167.28,36c3.33-3.16,4.83-4.84,4.85-6.8a2.32,2.32,0,0,0-2.58-2.54,4.46,4.46,0,0,0-2.77,1.1l-.56-1.24a5.73,5.73,0,0,1,3.69-1.32,3.66,3.66,0,0,1,4,3.78c0,2.4-1.74,4.34-4.48,7l-1,1v0h5.84v1.46Z"/><path d="M307.47,26.66a6.36,6.36,0,0,0-1.32.08,5.28,5.28,0,0,0-4.52,4.62h.06a4,4,0,0,1,7.06,2.7,4.35,4.35,0,0,1-4.32,4.58c-2.78,0-4.6-2.16-4.6-5.54a8.17,8.17,0,0,1,2.2-5.86,7.08,7.08,0,0,1,4.16-1.92,8.45,8.45,0,0,1,1.28-.1Zm-.5,7.5c0-1.86-1.06-3-2.68-3a2.9,2.9,0,0,0-2.52,1.6,1.5,1.5,0,0,0-.2.78c0,2.14,1,3.72,2.86,3.72C306,37.28,307,36,307,34.16Z"/><path d="M315.75,38.42V34.88h-6V33.72l5.8-8.3h1.9V33.5h1.82v1.38h-1.82v3.54Zm0-4.92V29.16q0-1,.06-2h-.06c-.4.76-.72,1.32-1.08,1.92l-3.18,4.42v0Z"/><path d="M445.48,37.18a7.34,7.34,0,0,0,1.42-.06,4.9,4.9,0,0,0,2.72-1.26,5.71,5.71,0,0,0,1.72-3.46h-.06a3.82,3.82,0,0,1-3.06,1.4,3.77,3.77,0,0,1-3.84-4,4.46,4.46,0,0,1,4.44-4.62c2.66,0,4.3,2.16,4.3,5.48a8.21,8.21,0,0,1-2.24,6.1,6.5,6.5,0,0,1-3.78,1.74,8.2,8.2,0,0,1-1.62.1Zm.64-7.48a2.5,2.5,0,0,0,2.5,2.76,2.91,2.91,0,0,0,2.56-1.36,1.16,1.16,0,0,0,.16-.64c0-2.22-.82-3.92-2.66-3.92C447.18,26.54,446.12,27.86,446.12,29.7Z"/><path d="M462.14,26.66a6.36,6.36,0,0,0-1.32.08,5.28,5.28,0,0,0-4.52,4.62h.06a4,4,0,0,1,7.06,2.7,4.35,4.35,0,0,1-4.32,4.58c-2.78,0-4.6-2.16-4.6-5.54a8.17,8.17,0,0,1,2.2-5.86,7.08,7.08,0,0,1,4.16-1.92,8.45,8.45,0,0,1,1.28-.1Zm-.5,7.5c0-1.86-1.06-3-2.68-3a2.9,2.9,0,0,0-2.52,1.6,1.5,1.5,0,0,0-.2.78c0,2.14,1,3.72,2.86,3.72C460.62,37.28,461.64,36,461.64,34.16Z"/><line class="cls-3" x1="20.97" y1="100.24" x2="453.93" y2="100.24"/><line class="cls-3" x1="20.64" y1="90.53" x2="20.64" y2="109.21"/><line class="cls-3" x1="453.93" y1="90.53" x2="453.93" y2="109.21"/><line class="cls-3" x1="309.5" y1="90.53" x2="309.5" y2="109.21"/><line class="cls-3" x1="165.07" y1="90.53" x2="165.07" y2="109.21"/><path d="M25.07,122.31c0,4.42-1.64,6.87-4.52,6.87-2.54,0-4.26-2.39-4.3-6.69s1.88-6.76,4.52-6.76S25.07,118.17,25.07,122.31Zm-7.06.2c0,3.38,1,5.31,2.64,5.31,1.8,0,2.66-2.11,2.66-5.43s-.82-5.3-2.64-5.3C19.13,117.09,18,119,18,122.51Z"/><path d="M156.12,126.93a5.77,5.77,0,0,0,2.88.83c2.26,0,3-1.45,2.94-2.53,0-1.82-1.66-2.6-3.36-2.6h-1v-1.32h1c1.28,0,2.9-.66,2.9-2.2,0-1-.66-2-2.28-2a4.77,4.77,0,0,0-2.6.86l-.46-1.28a6.18,6.18,0,0,1,3.4-1c2.56,0,3.72,1.52,3.72,3.1a3.23,3.23,0,0,1-2.4,3.06v0a3.39,3.39,0,0,1,2.9,3.34c0,2.08-1.62,3.91-4.74,3.91a6.61,6.61,0,0,1-3.38-.88Z"/><path d="M166,129v-1.08l1.38-1.35c3.32-3.16,4.82-4.84,4.84-6.8a2.32,2.32,0,0,0-2.58-2.54,4.43,4.43,0,0,0-2.76,1.1l-.56-1.24a5.7,5.7,0,0,1,3.68-1.32,3.66,3.66,0,0,1,4,3.78c0,2.4-1.74,4.34-4.48,7l-1,1v0h5.84V129Z"/><path d="M307.53,117.19a6.36,6.36,0,0,0-1.32.08,5.28,5.28,0,0,0-4.52,4.62h.06a4,4,0,0,1,7.06,2.7,4.36,4.36,0,0,1-4.32,4.59c-2.78,0-4.6-2.17-4.6-5.55a8.17,8.17,0,0,1,2.2-5.86,7.08,7.08,0,0,1,4.16-1.92,8.45,8.45,0,0,1,1.28-.1Zm-.5,7.5c0-1.86-1.06-3-2.68-3a2.9,2.9,0,0,0-2.52,1.6,1.5,1.5,0,0,0-.2.78c0,2.14,1,3.73,2.86,3.73C306,127.82,307,126.55,307,124.69Z"/><path d="M315.81,129v-3.55h-6v-1.16l5.8-8.3h1.9V124h1.82v1.38h-1.82V129Zm0-4.93v-4.34q0-1,.06-2h-.06c-.4.76-.72,1.32-1.08,1.92L311.55,124v0Z"/><path d="M445.53,127.72a7.47,7.47,0,0,0,1.43-.06,5,5,0,0,0,2.72-1.27,5.71,5.71,0,0,0,1.72-3.46h-.06a3.82,3.82,0,0,1-3.06,1.4,3.77,3.77,0,0,1-3.85-4,4.46,4.46,0,0,1,4.45-4.62c2.66,0,4.3,2.16,4.3,5.48a8.26,8.26,0,0,1-2.24,6.11,6.5,6.5,0,0,1-3.79,1.74,8.2,8.2,0,0,1-1.62.1Zm.64-7.49a2.5,2.5,0,0,0,2.51,2.76,2.91,2.91,0,0,0,2.56-1.36,1.16,1.16,0,0,0,.16-.64c0-2.22-.82-3.92-2.66-3.92C447.23,117.07,446.17,118.39,446.17,120.23Z"/><path d="M462.2,117.19a6.36,6.36,0,0,0-1.32.08,5.28,5.28,0,0,0-4.53,4.62h.06a4,4,0,0,1,7.07,2.7,4.36,4.36,0,0,1-4.32,4.59c-2.79,0-4.61-2.17-4.61-5.55a8.17,8.17,0,0,1,2.2-5.86,7.11,7.11,0,0,1,4.17-1.92,8.45,8.45,0,0,1,1.28-.1Zm-.5,7.5c0-1.86-1.06-3-2.68-3a2.91,2.91,0,0,0-2.53,1.6,1.5,1.5,0,0,0-.2.78c0,2.14,1,3.73,2.87,3.73C460.68,127.82,461.7,126.55,461.7,124.69Z"/></svg>