<svg id="Layer_1" data-name="Layer 1" xmlns="http://www.w3.org/2000/svg" viewBox="0 0 422.65 259.8"><defs><style>.cls-1,.cls-2{fill:none;stroke:#000;stroke-miterlimit:10;}.cls-2{stroke-width:0.5px;}.cls-3{fill:#a6a6a6;}.cls-4{fill:#666;}</style></defs><title>Standard array layout</title><rect class="cls-1" x="99.11" y="36.53" width="305.09" height="13.81"/><rect class="cls-1" x="99.11" y="103.39" width="305.09" height="13.81"/><rect class="cls-1" x="99.11" y="69.96" width="305.09" height="13.81"/><rect class="cls-1" x="99.07" y="200.68" width="305.09" height="13.81"/><path class="cls-2" d="M404.3,42.72c21.63,0,19.93,14.34,11.42,16.77-9.51,2.72-315.25.25-324.25,2.43-10,2.43-13.8,13.58,2.52,15.33"/><polygon points="91.33 79.7 93.67 77.13 91.77 74.21 98.03 77.48 91.33 79.7"/><polygon class="cls-3" points="92.15 79.16 97.38 77.43 93.99 77.15 92.15 79.16"/><polygon class="cls-4" points="92.5 74.88 97.38 77.43 93.99 77.15 92.5 74.88"/><path class="cls-2" d="M405.08,76c21.63,0,19.93,14.34,11.43,16.77C407,95.45,101.25,93,92.26,95.17c-10,2.43-13.8,13.58,2.51,15.33"/><polygon points="92.11 112.94 94.46 110.37 92.56 107.46 98.82 110.72 92.11 112.94"/><polygon class="cls-3" points="92.94 112.41 98.17 110.67 94.77 110.4 92.94 112.41"/><polygon class="cls-4" points="93.28 108.12 98.17 110.67 94.77 110.4 93.28 108.12"/><polyline class="cls-2" points="99.74 32.51 99.74 24.01 404.3 24.01 404.3 32.03"/><path d="M229.15,7.06,230.43,12c.28,1.08.54,2.08.72,3.08h.06c.22-1,.54-2,.86-3.06l1.59-4.94h1.47l1.51,4.84c.36,1.16.64,2.18.86,3.16h.06a29.11,29.11,0,0,1,.74-3.14l1.38-4.86h1.74l-3.12,9.68h-1.6l-1.49-4.62c-.33-1.08-.62-2-.86-3.18h0a28.63,28.63,0,0,1-.89,3.2l-1.56,4.6h-1.6l-2.92-9.68Z"/><path d="M245.13,4.34a1.09,1.09,0,0,1-2.18,0,1.07,1.07,0,0,1,1.1-1.1A1,1,0,0,1,245.13,4.34Zm-2,12.4V7.06h1.76v9.68Z"/><path d="M256.22,2.54v11.7c0,.86,0,1.84.08,2.5h-1.59l-.08-1.68h0a3.57,3.57,0,0,1-3.3,1.9c-2.34,0-4.14-2-4.14-4.92,0-3.22,2-5.2,4.34-5.2a3.27,3.27,0,0,1,2.93,1.48h0V2.54ZM254.46,11a3.72,3.72,0,0,0-.08-.74,2.6,2.6,0,0,0-2.55-2c-1.82,0-2.9,1.6-2.9,3.74,0,2,1,3.58,2.86,3.58a2.66,2.66,0,0,0,2.59-2.1,3.62,3.62,0,0,0,.08-.76Z"/><path d="M261.25,4.28V7.06h2.52V8.4h-2.52v5.22c0,1.2.34,1.88,1.32,1.88a3.92,3.92,0,0,0,1-.12l.08,1.32a4.31,4.31,0,0,1-1.56.24,2.44,2.44,0,0,1-1.9-.74,3.59,3.59,0,0,1-.68-2.52V8.4H258V7.06h1.5V4.74Z"/><path d="M265.75,2.54h1.76v6h0a3.27,3.27,0,0,1,1.26-1.24,3.62,3.62,0,0,1,1.8-.5c1.3,0,3.39.8,3.39,4.14v5.76h-1.77V11.18c0-1.56-.58-2.88-2.24-2.88a2.53,2.53,0,0,0-2.36,1.76,2.13,2.13,0,0,0-.12.84v5.84h-1.76Z"/><circle cx="251.62" cy="129.03" r="1.46"/><circle cx="251.62" cy="141.03" r="1.46"/><circle cx="251.62" cy="153.03" r="1.46"/><circle cx="251.62" cy="165.03" r="1.46"/><circle cx="251.62" cy="177.03" r="1.46"/><circle cx="251.62" cy="189.03" r="1.46"/><polyline class="cls-1" points="71.42 167.64 71.42 216.02 80.21 216.02"/><polyline class="cls-1" points="81.03 37.85 71.42 37.85 71.42 156.97"/><line class="cls-1" x1="76.96" y1="153.59" x2="65.9" y2="160.7"/><line class="cls-1" x1="76.96" y1="163.94" x2="65.9" y2="171.05"/><path d="M1.46,116.21H3.22v6h0A3.27,3.27,0,0,1,4.52,121a3.62,3.62,0,0,1,1.8-.5c1.3,0,3.38.8,3.38,4.14v5.76H7.94v-5.56c0-1.56-.58-2.88-2.24-2.88a2.53,2.53,0,0,0-2.36,1.76,2.13,2.13,0,0,0-.12.84v5.84H1.46Z"/><path d="M13.54,125.89a3.1,3.1,0,0,0,3.32,3.36,6.36,6.36,0,0,0,2.68-.5l.3,1.26a7.84,7.84,0,0,1-3.22.6c-3,0-4.76-2-4.76-4.88s1.72-5.22,4.54-5.22c3.16,0,4,2.78,4,4.56a6.64,6.64,0,0,1-.06.82Zm5.16-1.26c0-1.12-.46-2.86-2.44-2.86-1.78,0-2.56,1.64-2.7,2.86Z"/><path d="M24.54,118a1.09,1.09,0,0,1-2.18,0,1.07,1.07,0,0,1,1.1-1.1A1,1,0,0,1,24.54,118Zm-2,12.4v-9.68h1.76v9.68Z"/><path d="M35.6,120.73c0,.7-.08,1.48-.08,2.66V129c0,2.22-.44,3.58-1.38,4.42a5.13,5.13,0,0,1-3.52,1.16,6.25,6.25,0,0,1-3.22-.8l.44-1.34a5.46,5.46,0,0,0,2.84.76c1.8,0,3.12-.94,3.12-3.38v-1.08h0a3.46,3.46,0,0,1-3.08,1.62c-2.4,0-4.12-2-4.12-4.72,0-3.28,2.14-5.14,4.36-5.14a3.22,3.22,0,0,1,3,1.68h0l.08-1.46Zm-1.82,3.82a2.51,2.51,0,0,0-.1-.8,2.54,2.54,0,0,0-2.46-1.86c-1.68,0-2.88,1.42-2.88,3.66,0,1.9,1,3.48,2.86,3.48a2.57,2.57,0,0,0,2.44-1.8,3.06,3.06,0,0,0,.14-.94Z"/><path d="M38.44,116.21H40.2v6h0A3.27,3.27,0,0,1,41.5,121a3.62,3.62,0,0,1,1.8-.5c1.3,0,3.38.8,3.38,4.14v5.76H44.92v-5.56c0-1.56-.58-2.88-2.24-2.88a2.53,2.53,0,0,0-2.36,1.76,2.13,2.13,0,0,0-.12.84v5.84H38.44Z"/><path d="M51.58,118v2.78H54.1v1.34H51.58v5.22c0,1.2.34,1.88,1.32,1.88a3.92,3.92,0,0,0,1-.12l.08,1.32a4.31,4.31,0,0,1-1.56.24,2.44,2.44,0,0,1-1.9-.74,3.59,3.59,0,0,1-.68-2.52v-5.28h-1.5v-1.34h1.5v-2.32Z"/><path d="M7,240.92a13.19,13.19,0,0,0-2.52,8.18A13.48,13.48,0,0,0,7,257.22H5.63A12.93,12.93,0,0,1,3,249.1a13.2,13.2,0,0,1,2.62-8.18Z"/><path d="M14.23,254.8l-.14-1.22H14a3.61,3.61,0,0,1-3,1.44,2.76,2.76,0,0,1-3-2.78c0-2.34,2.08-3.62,5.82-3.6v-.2a2,2,0,0,0-2.2-2.24,4.82,4.82,0,0,0-2.52.72l-.4-1.16A6,6,0,0,1,12,244.9c3,0,3.68,2,3.68,4v3.62a13.63,13.63,0,0,0,.16,2.32ZM14,249.86c-1.92,0-4.1.3-4.1,2.18a1.56,1.56,0,0,0,1.66,1.68,2.41,2.41,0,0,0,2.34-1.62,1.84,1.84,0,0,0,.1-.56Z"/><path d="M17.45,257.22A13.54,13.54,0,0,0,20,249a13.26,13.26,0,0,0-2.52-8.12h1.36a12.74,12.74,0,0,1,2.62,8.14,13,13,0,0,1-2.62,8.16Z"/></svg>