<?xml version="1.0" encoding="UTF-8" standalone="no"?>
<!-- Created with Inkscape (http://www.inkscape.org/) -->

<svg
   version="1.1"
   id="svg1"
   width="222.24001"
   height="303.90668"
   viewBox="0 0 222.24001 303.90668"
   sodipodi:docname="pha05f14.eps"
   xmlns:inkscape="http://www.inkscape.org/namespaces/inkscape"
   xmlns:sodipodi="http://sodipodi.sourceforge.net/DTD/sodipodi-0.dtd"
   xmlns="http://www.w3.org/2000/svg"
   xmlns:svg="http://www.w3.org/2000/svg">
  <defs
     id="defs1" />
  <sodipodi:namedview
     id="namedview1"
     pagecolor="#ffffff"
     bordercolor="#000000"
     borderopacity="0.25"
     inkscape:showpageshadow="2"
     inkscape:pageopacity="0.0"
     inkscape:pagecheckerboard="0"
     inkscape:deskcolor="#d1d1d1">
    <inkscape:page
       x="0"
       y="0"
       inkscape:label="1"
       id="page1"
       width="222.24001"
       height="303.90668"
       margin="0"
       bleed="0" />
  </sodipodi:namedview>
  <g
     id="g1"
     inkscape:groupmode="layer"
     inkscape:label="1">
    <g
       id="group-R5">
      <path
         id="path2"
         d="m 1565.38,2166.3 c 0,8.7 7.06,15.75 15.76,15.75 8.69,0 15.74,-7.05 15.74,-15.75 0,-8.7 -7.05,-15.75 -15.74,-15.75 -8.7,0 -15.76,7.05 -15.76,15.75"
         style="fill:#231f20;fill-opacity:1;fill-rule:nonzero;stroke:none"
         transform="matrix(0.13333333,0,0,-0.13333333,0,303.90667)" />
      <path
         id="path3"
         d="m 1565.38,2166.3 c 0,8.7 7.06,15.75 15.76,15.75 8.69,0 15.74,-7.05 15.74,-15.75 0,-8.7 -7.05,-15.75 -15.74,-15.75 -8.7,0 -15.76,7.05 -15.76,15.75 z"
         style="fill:none;stroke:#231f20;stroke-width:10;stroke-linecap:butt;stroke-linejoin:miter;stroke-miterlimit:10;stroke-dasharray:none;stroke-opacity:1"
         transform="matrix(0.13333333,0,0,-0.13333333,0,303.90667)" />
      <path
         id="path4"
         d="M 1576.53,2168.45 376.934,1597.88"
         style="fill:none;stroke:#231f20;stroke-width:7.5;stroke-linecap:butt;stroke-linejoin:miter;stroke-miterlimit:10;stroke-dasharray:none;stroke-opacity:1"
         transform="matrix(0.13333333,0,0,-0.13333333,0,303.90667)" />
      <path
         id="path5"
         d="m 385.438,1601.93 18.515,-12.14 -0.398,-0.66 -33.117,-2.19 c -10.715,-2.48 -21.434,-4.96 -32.157,-7.44 8.692,6.75 17.379,13.5 26.067,20.25 l 22.59,24.31 0.722,-0.01 -2.222,-22.12"
         style="fill:#231f20;fill-opacity:1;fill-rule:nonzero;stroke:none"
         transform="matrix(0.13333333,0,0,-0.13333333,0,303.90667)" />
      <path
         id="path6"
         d="M 1581.14,1846.3 H 184.77"
         style="fill:none;stroke:#231f20;stroke-width:5;stroke-linecap:butt;stroke-linejoin:miter;stroke-miterlimit:10;stroke-dasharray:none;stroke-opacity:1"
         transform="matrix(0.13333333,0,0,-0.13333333,0,303.90667)" />
      <path
         id="path7"
         d="M 1580.32,2279.35 V 1396.16"
         style="fill:none;stroke:#231f20;stroke-width:5;stroke-linecap:butt;stroke-linejoin:miter;stroke-miterlimit:10;stroke-dasharray:none;stroke-opacity:1"
         transform="matrix(0.13333333,0,0,-0.13333333,0,303.90667)" />
      <path
         id="path8"
         d="m 886.508,1846.3 c 0,8.7 7.051,15.75 15.75,15.75 8.699,0 15.75,-7.05 15.75,-15.75 0,-8.7 -7.051,-15.74 -15.75,-15.74 -8.699,0 -15.75,7.04 -15.75,15.74"
         style="fill:#ffffff;fill-opacity:1;fill-rule:nonzero;stroke:none"
         transform="matrix(0.13333333,0,0,-0.13333333,0,303.90667)" />
      <path
         id="path9"
         d="m 886.508,1846.3 c 0,8.7 7.051,15.75 15.75,15.75 8.699,0 15.75,-7.05 15.75,-15.75 0,-8.7 -7.051,-15.74 -15.75,-15.74 -8.699,0 -15.75,7.04 -15.75,15.74 z"
         style="fill:none;stroke:#231f20;stroke-width:5;stroke-linecap:butt;stroke-linejoin:miter;stroke-miterlimit:10;stroke-dasharray:none;stroke-opacity:1"
         transform="matrix(0.13333333,0,0,-0.13333333,0,303.90667)" />
      <path
         id="path10"
         d="m 4.4411016,-4.5240312 c -0.046875,-0.421875 -0.09375,-1.0078125 -0.09375,-1.3242188 H 0.38641406 v 0.2460938 c 0.69140624,0.058594 0.76171874,0.1054687 0.76171874,0.890625 v 3.5742187 c 0,0.7734375 -0.070312,0.83203125 -0.78515624,0.87890625 v 0.2578125 H 2.8121953 v -0.2578125 C 1.9918828,-0.30528125 1.9215703,-0.363875 1.9215703,-1.1373125 v -1.6289062 h 0.9257813 c 0.8203125,0 0.8554687,0.1054687 0.9726562,0.7265625 h 0.2460938 v -1.734375 H 3.8200078 c -0.1171875,0.5742187 -0.1523437,0.65625 -0.9726562,0.65625 H 1.9215703 v -2.1445313 c 0,-0.2578125 0.023437,-0.2695312 0.28125,-0.2695312 h 0.6914063 c 0.6796875,0 0.8789062,0.070312 1.0195312,0.3164062 0.1289063,0.1875 0.1757813,0.3632813 0.2578125,0.7265625 z m 1.4941406,-0.3046875 c 0.2578125,0 0.4570312,-0.2109375 0.4570312,-0.4570313 0,-0.2695312 -0.1992187,-0.46875 -0.4570312,-0.46875 -0.234375,0 -0.4570313,0.1992188 -0.4570313,0.46875 0,0.2460938 0.2226563,0.4570313 0.4570313,0.4570313 z m 1.0546875,4.82812495 v -0.234375 C 6.4039922,-0.2935625 6.3453984,-0.3404375 6.3453984,-0.9498125 V -4.0552812 C 5.9469609,-3.9029375 5.5250859,-3.78575 5.0680547,-3.7037187 v 0.2109375 c 0.5390625,0.09375 0.5625,0.1289062 0.5625,0.6796875 v 1.8632812 c 0,0.609375 -0.058594,0.65625 -0.6210938,0.71484375 v 0.234375 z m 2.5634765,0 v -0.234375 c -0.5742187,-0.0585938 -0.65625,-0.10546875 -0.65625,-0.703125 V -6.41075 c -0.3046875,0.1054688 -0.8554687,0.2578125 -1.3242187,0.3164063 v 0.2109375 c 0.5625,0.046875 0.6210937,0.082031 0.6210937,0.6914062 v 4.25390625 c 0,0.59765625 -0.082031,0.64453125 -0.6445312,0.703125 v 0.234375 z m 7.5263668,0 v -0.234375 c -0.503906,-0.0585938 -0.585937,-0.09375 -0.585937,-0.69140625 V -2.66075 c 0,-0.890625 -0.433594,-1.3828125 -1.136719,-1.3828125 -0.257812,0 -0.492187,0.1054688 -0.679687,0.234375 -0.222657,0.140625 -0.480469,0.3046875 -0.738282,0.5039063 -0.1875,-0.46875 -0.574218,-0.7382813 -1.007812,-0.7382813 -0.28125,0 -0.503906,0.1054688 -0.738281,0.2460938 -0.269532,0.1640625 -0.46875,0.328125 -0.65625,0.4570312 V -4.067 c -0.398438,0.1757813 -0.855469,0.2929688 -1.253907,0.3632813 v 0.2109375 c 0.527344,0.082031 0.550782,0.1289062 0.550782,0.703125 v 1.8632812 c 0,0.5859375 -0.08203,0.6328125 -0.667969,0.69140625 v 0.234375 h 1.898437 v -0.234375 C 11.618836,-0.2935625 11.548523,-0.3404375 11.548523,-0.926375 v -2.1210937 c 0.269532,-0.2226563 0.621094,-0.46875 0.984375,-0.46875 0.550782,0 0.785157,0.375 0.785157,1.0429687 v 1.546875 c 0,0.59765625 -0.08203,0.6328125 -0.644532,0.69140625 v 0.234375 h 1.921875 v -0.234375 C 14.103211,-0.2935625 14.02118,-0.3404375 14.02118,-0.91465625 V -2.66075 c 0,-0.1757812 -0.01172,-0.2695312 -0.02344,-0.3867187 0.339844,-0.28125 0.679688,-0.46875 1.007813,-0.46875 0.5625,0 0.796875,0.4101562 0.796875,1.0546875 v 1.49999995 c 0,0.6328125 -0.105469,0.66796875 -0.632813,0.7265625 v 0.234375 z M -62.054016,114.94863 v -0.25782 c -0.585937,-0.0469 -0.703125,-0.1289 -0.996093,-0.90234 -0.574219,-1.57031 -1.171875,-3.28125 -1.734375,-4.82813 l -0.28125,0.082 -1.863282,4.72265 c -0.316406,0.79688 -0.433593,0.85547 -1.007812,0.92578 v 0.25782 h 1.957031 v -0.25782 c -0.679687,-0.0586 -0.75,-0.15234 -0.5625,-0.71484 0.117188,-0.375 0.257813,-0.75 0.398438,-1.16016 h 1.921875 c 0.199218,0.55078 0.375,1.03125 0.492187,1.38282 0.117188,0.35156 0.03516,0.42187 -0.527344,0.49218 v 0.25782 z m -2.296875,-2.51954 h -1.652343 c 0.269531,-0.73828 0.550781,-1.52343 0.84375,-2.29687 h 0.01172 z m 3.975586,-0.90234 v -0.71484 c -0.421875,0.17578 -0.925781,0.32812 -1.3125,0.39843 v 0.21094 c 0.5625,0.0703 0.597657,0.0937 0.597657,0.67969 v 4.06641 c 0,0.58593 -0.08203,0.64453 -0.65625,0.70312 v 0.23438 h 2.132812 v -0.23438 c -0.703125,-0.0703 -0.761719,-0.11719 -0.761719,-0.79687 v -1.1836 c 0.117188,0.0703 0.363282,0.15235 0.621094,0.16406 1.171875,-0.21093 2.238281,-1.08984 2.238281,-2.44921 0,-0.89063 -0.597656,-1.69922 -1.59375,-1.69922 -0.105468,0 -0.28125,0.0469 -0.445312,0.14062 z m 0,0.30469 c 0.246094,-0.1875 0.609375,-0.38672 0.902344,-0.38672 0.65625,0 1.207031,0.53906 1.207031,1.51172 0,1.00781 -0.515625,1.66406 -1.265625,1.66406 -0.304687,0 -0.644531,-0.15234 -0.84375,-0.35156 z m 6.703125,2.16797 c -0.328125,0.30468 -0.667968,0.44531 -1.019531,0.44531 -0.632812,0 -1.335937,-0.50391 -1.347656,-1.72266 1.066406,-0.0469 2.191406,-0.1289 2.355469,-0.16406 0.152343,-0.0352 0.199218,-0.10547 0.199218,-0.28125 0,-0.70312 -0.597656,-1.37109 -1.347656,-1.37109 -0.46875,0 -0.949219,0.24609 -1.324219,0.65625 -0.363281,0.41015 -0.597656,0.96093 -0.597656,1.58203 0,1.00781 0.65625,1.91015 1.757813,1.91015 0.28125,0 0.902343,-0.16406 1.464843,-0.86718 z m -1.371093,-2.75391 c 0.492187,0 0.796875,0.42188 0.785156,0.89063 0,0.1289 -0.04687,0.1875 -0.210938,0.1875 -0.527343,0.0117 -1.019531,0.0234 -1.523437,0.0234 0.128906,-0.72656 0.527344,-1.10156 0.949219,-1.10156 z m 3.451171,0.62109 v -0.98437 c -0.433593,0.1875 -0.832031,0.29297 -1.265625,0.36328 v 0.19922 c 0.503907,0.0703 0.550782,0.10547 0.550782,0.70312 v 1.86329 c 0,0.59765 -0.05859,0.64453 -0.621094,0.70312 v 0.23438 h 2.074219 v -0.23438 c -0.691407,-0.0586 -0.738282,-0.10547 -0.738282,-0.70312 v -1.64063 c 0.199219,-0.50391 0.480469,-0.77344 0.714844,-0.77344 0.152344,0 0.257813,0.0469 0.386719,0.1875 0.04687,0.0469 0.128906,0.0586 0.234375,0.0117 0.175781,-0.082 0.292969,-0.25781 0.292969,-0.43359 0,-0.22266 -0.210938,-0.45703 -0.527344,-0.45703 -0.421875,0 -0.808594,0.5039 -1.078125,0.96093 z m 4.699219,2.75391 -0.08203,-0.23437 c -0.128906,0.0703 -0.328125,0.15234 -0.5625,0.15234 -0.222656,0 -0.515625,-0.12891 -0.515625,-0.85547 v -2.32031 h 0.960937 c 0.105469,-0.0586 0.128907,-0.25781 0.05859,-0.35156 h -1.019531 v -1.23047 l -0.128906,-0.0117 -0.585938,0.58594 v 0.65625 h -0.410156 l -0.246094,0.26953 0.03516,0.082 h 0.621094 v 2.625 c 0,0.70312 0.316406,1.0664 0.878906,1.0664 0.08203,0 0.234375,-0.0352 0.386719,-0.11718 z m 4.942383,-0.11719 -0.257813,-0.0117 c -0.339843,-0.0234 -0.410156,-0.082 -0.410156,-0.52734 v -3.01172 c -0.480469,0.0937 -0.949219,0.14063 -1.417969,0.16406 v 0.19922 c 0.65625,0.0937 0.703125,0.12891 0.703125,0.64453 v 2.09766 c -0.304687,0.29297 -0.644531,0.43359 -0.972656,0.43359 -0.398437,0 -0.785156,-0.22265 -0.785156,-1.01953 v -1.20703 c 0,-0.60937 0,-1.03125 0.02344,-1.3125 -0.433593,0.082 -0.867187,0.14063 -1.289062,0.16406 v 0.19922 c 0.515625,0.10547 0.550781,0.14063 0.550781,0.63282 v 1.76953 c 0,0.97265 0.515625,1.33593 1.113281,1.33593 0.246094,0 0.433594,-0.0703 0.691407,-0.22265 0.257812,-0.15235 0.46875,-0.31641 0.667968,-0.46875 v 0.64453 l 0.05859,0.0469 c 0.445313,-0.1289 0.902344,-0.25781 1.324219,-0.3164 z m 1.96875,-2.63672 v -0.98437 c -0.433594,0.1875 -0.832031,0.29297 -1.265625,0.36328 v 0.19922 c 0.503906,0.0703 0.550781,0.10547 0.550781,0.70312 v 1.86329 c 0,0.59765 -0.05859,0.64453 -0.621094,0.70312 v 0.23438 h 2.074219 v -0.23438 c -0.691406,-0.0586 -0.738281,-0.10547 -0.738281,-0.70312 v -1.64063 c 0.199219,-0.50391 0.480469,-0.77344 0.714844,-0.77344 0.152343,0 0.257812,0.0469 0.386718,0.1875 0.04687,0.0469 0.128907,0.0586 0.234375,0.0117 0.175782,-0.082 0.292969,-0.25781 0.292969,-0.43359 0,-0.22266 -0.210937,-0.45703 -0.527344,-0.45703 -0.421875,0 -0.808593,0.5039 -1.078125,0.96093 z m 5.106445,2.13282 c -0.328125,0.30468 -0.667968,0.44531 -1.019531,0.44531 -0.632812,0 -1.335937,-0.50391 -1.347656,-1.72266 1.066406,-0.0469 2.191406,-0.1289 2.355469,-0.16406 0.152343,-0.0352 0.199218,-0.10547 0.199218,-0.28125 0,-0.70312 -0.597656,-1.37109 -1.347656,-1.37109 -0.46875,0 -0.949219,0.24609 -1.324219,0.65625 -0.363281,0.41015 -0.597656,0.96093 -0.597656,1.58203 0,1.00781 0.65625,1.91015 1.757813,1.91015 0.28125,0 0.902343,-0.16406 1.464843,-0.86718 z m -1.371093,-2.75391 c 0.492187,0 0.796875,0.42188 0.785156,0.89063 0,0.1289 -0.04687,0.1875 -0.210938,0.1875 -0.527343,0.0117 -1.019531,0.0234 -1.523437,0.0234 0.128906,-0.72656 0.527344,-1.10156 0.949219,-1.10156 z M -146.15363,-51.744734 c -0.89062,-0.761719 -1.40625,-2.203125 -1.40625,-3.75 0,-1.546875 0.51563,-3 1.40625,-3.75 l -0.15234,-0.210938 c -1.32422,0.902344 -1.91016,2.332031 -1.91016,3.949219 0,1.628906 0.58594,3.082031 1.91016,3.960937 z m 3.89356,-1.675782 -0.0937,-0.234375 c -0.0937,0.05859 -0.22266,0.105469 -0.32813,0.105469 -0.15234,0 -0.3164,-0.140625 -0.3164,-0.550781 v -1.664063 c 0,-0.46875 -0.082,-0.84375 -0.39844,-1.101562 -0.19922,-0.164063 -0.46875,-0.246094 -0.73828,-0.246094 -0.51563,0.105469 -1.10156,0.457031 -1.34766,0.632813 -0.17578,0.128906 -0.29297,0.222656 -0.29297,0.363281 0,0.199219 0.23438,0.386719 0.39844,0.386719 0.12891,0 0.22266,-0.07031 0.25781,-0.210938 0.0703,-0.28125 0.15235,-0.480469 0.26954,-0.597656 0.0937,-0.105469 0.22265,-0.175781 0.41015,-0.175781 0.44531,0 0.75,0.363281 0.75,1.019531 v 0.164062 c -0.19922,0.152344 -0.85547,0.398438 -1.39453,0.574219 -0.49219,0.175781 -0.72656,0.457031 -0.72656,0.902344 0,0.5625 0.44531,1.089844 1.07812,1.089844 0.26953,0 0.70313,-0.328125 1.06641,-0.574219 0.0469,0.152344 0.0937,0.28125 0.21094,0.410156 0.10547,0.08203 0.29297,0.164063 0.42187,0.164063 z m -1.42969,-0.410156 c -0.16406,0.164063 -0.48047,0.316406 -0.71484,0.328125 -0.28125,0 -0.64453,-0.222656 -0.64453,-0.691406 0,-0.328125 0.19922,-0.492188 0.55078,-0.65625 0.1875,-0.09375 0.62109,-0.28125 0.80859,-0.375 z m 1.63477,-5.414062 c 0.89062,0.738281 1.41797,2.203125 1.41797,3.75 0,1.546875 -0.50391,2.988281 -1.41797,3.75 l 0.16406,0.199218 c 1.34766,-0.914062 1.89844,-2.332031 1.89844,-3.949218 0,-1.628907 -0.55078,-3.058594 -1.89844,-3.960938 z m -4.6377,123.512695 c -0.89062,-0.761719 -1.40625,-2.203125 -1.40625,-3.75 0,-1.546875 0.51563,-3 1.40625,-3.75 l -0.15234,-0.210938 c -1.32422,0.902344 -1.91016,2.332032 -1.91016,3.949219 0,1.628906 0.58594,3.082031 1.91016,3.960938 z m 2.00977,-4.957031 v -2.777344 c -0.33985,0.117187 -0.89063,0.257812 -1.3125,0.316406 v 0.210938 c 0.58594,0.04687 0.59765,0.105468 0.59765,0.667968 v 5.003907 c 0.49219,0.234375 0.94922,0.316406 1.32422,0.316406 1.20703,0 2.26172,-0.9375 2.26172,-2.261719 0,-1.054687 -0.80859,-1.886719 -1.78125,-1.886719 -0.0937,0 -0.22265,0.02344 -0.36328,0.09375 z m 0,0.269531 c 0.16406,-0.105469 0.44531,-0.175781 0.70312,-0.175781 0.73828,0 1.3711,0.597656 1.3711,1.617187 0,1.054688 -0.48047,1.6875 -1.21875,1.6875 -0.48047,-0.01172 -0.75,-0.328125 -0.8086,-0.503906 -0.0351,-0.08203 -0.0469,-0.175781 -0.0469,-0.304688 z m 3.16699,-2.8125 c 0.89063,0.738281 1.41797,2.203125 1.41797,3.75 0,1.546875 -0.50391,2.988281 -1.41797,3.75 l 0.16406,0.199219 c 1.34766,-0.914063 1.89844,-2.332032 1.89844,-3.949219 0,-1.628906 -0.55078,-3.058594 -1.89844,-3.960938 z m 0,0"
         style="fill:#231f20;fill-opacity:1;fill-rule:nonzero;stroke:none"
         aria-label="Film&#10;Aperture&#10;(a)&#10;(b)"
         transform="matrix(1.3333333,0,0,1.3333333,199.184,131.92267)" />
      <path
         id="path11"
         d="m 952.695,867.109 h 60.415"
         style="fill:none;stroke:#231f20;stroke-width:5;stroke-linecap:butt;stroke-linejoin:miter;stroke-miterlimit:10;stroke-dasharray:none;stroke-opacity:1"
         transform="matrix(0.13333333,0,0,-0.13333333,0,303.90667)" />
      <path
         id="path12"
         d="m 952.695,499.012 h 60.415"
         style="fill:none;stroke:#231f20;stroke-width:5;stroke-linecap:butt;stroke-linejoin:miter;stroke-miterlimit:10;stroke-dasharray:none;stroke-opacity:1"
         transform="matrix(0.13333333,0,0,-0.13333333,0,303.90667)" />
      <path
         id="path13"
         d="m 0.41013125,-5.8472312 v 0.2460937 C 1.0781,-5.5542625 1.1484125,-5.5191062 1.1484125,-4.7222312 v 3.5976562 c 0,0.75 -0.070312,0.8203125 -0.78515625,0.8671875 V 4.25e-4 H 2.8007563 v -0.2578125 c -0.8085938,-0.046875 -0.890625,-0.09375 -0.890625,-0.8554687 V -2.530825 L 2.5781,-2.3550437 c 0.09375,0.011719 0.2695313,0.011719 0.3984375,0 C 3.8554438,-2.4722312 4.73435,-3.04645 4.73435,-4.2066062 c 0,-0.5859375 -0.234375,-1.0078125 -0.5859375,-1.265625 -0.3632812,-0.2695313 -0.8671875,-0.375 -1.5117187,-0.375 z m 1.50000005,0.8203125 c 0,-0.2578125 0.023437,-0.3632813 0.09375,-0.421875 0.070312,-0.070312 0.2578125,-0.1171875 0.5039062,-0.1171875 0.7382813,0 1.359375,0.421875 1.359375,1.3945312 0,1.1367188 -0.7148437,1.453125 -1.3007812,1.453125 -0.2929688,0 -0.5390625,-0.058594 -0.65625,-0.1054687 z M 7.1337641,4.25e-4 V -0.23395 c -0.5742188,-0.0585938 -0.65625,-0.10546875 -0.65625,-0.703125 V -6.4097312 C 6.1728266,-6.3042625 5.6220453,-6.1519187 5.1532953,-6.093325 v 0.2109375 c 0.5625,0.046875 0.6210938,0.082031 0.6210938,0.6914063 v 4.2539062 c 0,0.59765625 -0.082031,0.64453125 -0.6445313,0.703125 V 4.25e-4 Z m 4.1220699,-0.3515625 -0.09375,-0.234375 c -0.09375,0.0585938 -0.222656,0.10546875 -0.328125,0.10546875 -0.152343,0 -0.316406,-0.140625 -0.316406,-0.55078125 v -1.6640625 c 0,-0.46875 -0.08203,-0.84375 -0.398437,-1.1015625 C 9.9198969,-3.9605125 9.6503656,-4.0425437 9.3808344,-4.0425437 8.8652094,-3.937075 8.2792719,-3.5855125 8.0331781,-3.4097312 7.8573969,-3.280825 7.7402094,-3.187075 7.7402094,-3.04645 c 0,0.1992188 0.234375,0.3867188 0.3984375,0.3867188 0.1289062,0 0.2226562,-0.070312 0.2578125,-0.2109375 0.070312,-0.28125 0.1523437,-0.4804688 0.2695312,-0.5976563 0.09375,-0.1054687 0.2226563,-0.1757812 0.4101563,-0.1757812 0.4453125,0 0.75,0.3632812 0.75,1.0195312 v 0.1640625 C 9.6269281,-2.3081687 8.9706781,-2.062075 8.4316156,-1.8862937 7.9394281,-1.7105125 7.7050531,-1.4292625 7.7050531,-0.98395 c 0,0.5625 0.4453125,1.08984375 1.078125,1.08984375 0.2695313,0 0.703125,-0.328125 1.0664063,-0.57421875 0.046875,0.15234375 0.09375,0.28125 0.2109376,0.41015625 0.105469,0.08203125 0.292969,0.1640625 0.421875,0.1640625 z M 9.8261469,-0.76129375 c -0.1640625,0.1640625 -0.4804688,0.31640625 -0.7148438,0.328125 -0.28125,0 -0.6445312,-0.22265625 -0.6445312,-0.69140625 0,-0.328125 0.1992187,-0.4921875 0.5507812,-0.65625 0.1875,-0.09375 0.6210938,-0.28125 0.8085938,-0.375 z M 16.289038,4.25e-4 V -0.23395 C 15.761694,-0.29254375 15.714819,-0.3277 15.714819,-0.937075 V -2.67145 c 0,-0.8789062 -0.445313,-1.3710937 -1.160156,-1.3710937 -0.257813,0 -0.492188,0.1054687 -0.75,0.2695312 -0.222657,0.1523438 -0.421875,0.2929688 -0.597657,0.421875 V -4.0659812 C 12.808569,-3.8902 12.386694,-3.7847312 11.9531,-3.7027 v 0.2109375 c 0.492188,0.09375 0.539063,0.1171875 0.539063,0.6914063 v 1.8632812 c 0,0.59765625 -0.04687,0.64453125 -0.65625,0.703125 V 4.25e-4 h 1.957031 V -0.23395 C 13.2656,-0.29254375 13.207006,-0.3277 13.207006,-0.937075 V -3.04645 c 0.269532,-0.234375 0.621094,-0.46875 0.984375,-0.46875 0.597657,0 0.820313,0.4101563 0.820313,1.03125 v 1.5 c 0,0.62109375 -0.07031,0.69140625 -0.597656,0.75 V 4.25e-4 Z m 3.603515,-0.94921875 c -0.328125,0.3046875 -0.667969,0.4453125 -1.019531,0.4453125 -0.632813,0 -1.335938,-0.50390625 -1.347656,-1.72265625 1.066406,-0.046875 2.191406,-0.1289062 2.355468,-0.1640625 0.152344,-0.035156 0.199219,-0.1054687 0.199219,-0.28125 0,-0.703125 -0.597656,-1.3710937 -1.347656,-1.3710937 -0.46875,0 -0.949219,0.2460937 -1.324219,0.65625 -0.363281,0.4101562 -0.597656,0.9609375 -0.597656,1.5820312 0,1.0078125 0.65625,1.91015625 1.757812,1.91015625 0.28125,0 0.902344,-0.1640625 1.464844,-0.8671875 z M 18.521459,-3.7027 c 0.492188,0 0.796875,0.421875 0.785157,0.890625 0,0.1289063 -0.04687,0.1875 -0.210938,0.1875 -0.527344,0.011719 -1.019531,0.023437 -1.523437,0.023437 C 17.701147,-3.3277 18.099584,-3.7027 18.521459,-3.7027 Z m 6.137696,-0.3398437 c -0.820313,0 -1.980469,0.6796875 -1.980469,2.15625 0,1.00781245 0.738281,1.99218745 1.980469,1.99218745 0.890625,0 1.945312,-0.69140625 1.945312,-2.14453125 0,-1.1132812 -0.832031,-2.0039062 -1.945312,-2.0039062 z m -0.09375,0.3046875 c 0.785156,0 1.207031,0.84375 1.207031,1.8984375 0,1.24218745 -0.457031,1.6523437 -1.019531,1.6523437 -0.738282,0 -1.230469,-0.84375 -1.230469,-1.9804687 0,-1.0195313 0.480469,-1.5703125 1.042969,-1.5703125 z m 2.824218,-0.1992188 -0.234375,0.2695313 0.03516,0.082031 h 0.632812 v 2.66015625 c 0,0.59765625 -0.07031,0.6328125 -0.644531,0.69140625 V 4.25e-4 H 29.29978 V -0.22223125 C 28.596655,-0.29254375 28.526342,-0.3277 28.526342,-0.98395 v -2.6015625 h 0.972656 c 0.105469,-0.046875 0.140625,-0.2695312 0.09375,-0.3515625 h -1.066406 v -0.3515625 c -0.01172,-0.7734375 0.09375,-1.1953125 0.210938,-1.3710937 0.09375,-0.1640625 0.246093,-0.2695313 0.480468,-0.2695313 0.292969,0 0.539063,0.1640625 0.726563,0.328125 0.08203,0.09375 0.164062,0.09375 0.246094,0.035156 0.08203,-0.082031 0.140625,-0.1523438 0.164062,-0.2226563 0.04687,-0.09375 0.03516,-0.2109375 -0.04687,-0.3164062 -0.140625,-0.1640625 -0.398437,-0.2929688 -0.703125,-0.3046875 -0.351562,0.046875 -0.679687,0.2109375 -0.996094,0.4921875 -0.480468,0.4101562 -0.632812,0.8554687 -0.691406,1.0546875 -0.05859,0.1875 -0.09375,0.4570312 -0.09375,0.7265625 v 0.199219 z M 5.5019281,6.8617531 l -0.234375,0.2695313 0.035156,0.082031 h 0.6328125 v 2.6601563 c 0,0.5976563 -0.070312,0.6328123 -0.6445313,0.6914063 v 0.234375 H 7.4120844 V 10.576597 C 6.7089594,10.506284 6.6386469,10.471128 6.6386469,9.8148781 V 7.2133156 h 0.9726562 c 0.1054688,-0.046875 0.140625,-0.2695312 0.09375,-0.3515625 H 6.6386469 V 6.5101906 c -0.011719,-0.7734375 0.09375,-1.1953125 0.2109375,-1.3710937 0.09375,-0.1640625 0.2460937,-0.2695313 0.4804687,-0.2695313 0.2929688,0 0.5390625,0.1640625 0.7265625,0.328125 0.082031,0.09375 0.1640625,0.09375 0.2460938,0.035156 0.082031,-0.082031 0.140625,-0.1523438 0.1640625,-0.2226563 0.046875,-0.09375 0.035156,-0.2109375 -0.046875,-0.3164062 C 8.2792719,4.5297219 8.0214594,4.4008156 7.7167719,4.3890969 7.3652094,4.4359719 7.0370844,4.6000344 6.7206781,4.8812844 6.2402094,5.2914406 6.0878656,5.7367531 6.0292719,5.9359719 c -0.058594,0.1875 -0.09375,0.4570312 -0.09375,0.7265625 V 6.8617531 Z M 9.9491938,6.7562844 c -0.8203125,0 -1.9804688,0.6796875 -1.9804688,2.15625 0,1.0078125 0.7382813,1.9921876 1.9804688,1.9921876 0.8906252,0 1.9453122,-0.691406 1.9453122,-2.1445314 0,-1.1132812 -0.832031,-2.0039062 -1.9453122,-2.0039062 z m -0.09375,0.3046875 c 0.7851562,0 1.2070312,0.84375 1.2070312,1.8984375 0,1.2421876 -0.457031,1.6523436 -1.019531,1.6523436 -0.7382815,0 -1.230469,-0.8437499 -1.230469,-1.9804686 0,-1.0195313 0.4804688,-1.5703125 1.0429688,-1.5703125 z m 5.9912112,2.7421875 c -0.410157,0.3867186 -0.703125,0.4921876 -1.089844,0.4921876 -0.503906,0 -1.359375,-0.4101564 -1.359375,-1.6640626 0,-0.9492188 0.515625,-1.4414063 1.113281,-1.4414063 0.316406,0 0.632813,0.1171875 0.902344,0.375 0.08203,0.070312 0.117187,0.09375 0.164062,0.09375 0.105469,0 0.304688,-0.1992187 0.304688,-0.3867187 0,-0.1054688 -0.03516,-0.1757813 -0.152344,-0.28125 -0.140625,-0.1171875 -0.433594,-0.234375 -0.796875,-0.234375 -0.351562,0 -0.890625,0.140625 -1.359375,0.5039062 -0.597656,0.46875 -0.902344,1.078125 -0.902344,1.7695313 0,0.9609375 0.667969,1.8750001 1.804688,1.8750001 0.527344,0 1.136719,-0.398438 1.523437,-0.9140626 z m 5.126953,0.5507816 -0.257813,-0.01172 c -0.339843,-0.02344 -0.410156,-0.08203 -0.410156,-0.5273439 V 6.8031594 c -0.480469,0.09375 -0.949219,0.140625 -1.417969,0.1640625 v 0.1992187 c 0.65625,0.09375 0.703125,0.1289063 0.703125,0.6445313 v 2.0976562 c -0.304687,0.2929689 -0.644531,0.4335939 -0.972656,0.4335939 -0.398437,0 -0.785156,-0.222656 -0.785156,-1.0195314 V 8.1156594 c 0,-0.609375 0,-1.03125 0.02344,-1.3125 -0.433593,0.082031 -0.867187,0.140625 -1.289062,0.1640625 v 0.1992187 c 0.515625,0.1054688 0.550781,0.140625 0.550781,0.6328125 v 1.7695313 c 0,0.9726566 0.515625,1.3359376 1.113281,1.3359376 0.246094,0 0.433594,-0.07031 0.691407,-0.222656 0.257812,-0.152344 0.46875,-0.316407 0.667968,-0.46875 v 0.644531 l 0.05859,0.04687 c 0.445313,-0.128906 0.902344,-0.257813 1.324219,-0.316406 z m 3.158203,-2.4843754 c -0.03516,-0.2226562 -0.128906,-0.75 -0.199219,-0.9609375 -0.1875,-0.070312 -0.433594,-0.1523437 -0.796875,-0.1523437 -0.832031,0 -1.371094,0.5273437 -1.371094,1.1601562 0,0.6914063 0.585938,0.9960938 1.125,1.2421875 0.445313,0.2109375 0.703125,0.421875 0.703125,0.8203125 0,0.3750004 -0.304687,0.6328124 -0.632812,0.6328124 -0.539063,0 -0.949219,-0.527344 -1.113281,-1.1132811 l -0.234375,0.035156 c 0,0.328125 0.08203,0.9375001 0.152343,1.0664061 0.164063,0.140625 0.574219,0.304688 1.03125,0.304688 0.726563,0 1.488282,-0.421875 1.488282,-1.2421878 0,-0.6210938 -0.457032,-0.9375 -1.136719,-1.21875 -0.410156,-0.1757813 -0.761719,-0.375 -0.761719,-0.7851563 0,-0.3515625 0.246094,-0.6210937 0.585938,-0.6210937 0.433593,0 0.75,0.3632812 0.925781,0.890625 z m 0,0"
         style="fill:#231f20;fill-opacity:1;fill-rule:nonzero;stroke:none"
         aria-label="Plane of&#10;focus"
         transform="matrix(1.3333333,0,0,1.3333333,20.562533,285.18693)" />
      <path
         id="path14"
         d="m 288.895,270.742 c 0,8.699 7.05,15.746 15.753,15.746 8.696,0 15.747,-7.047 15.747,-15.746 0,-8.703 -7.051,-15.754 -15.747,-15.754 -8.703,0 -15.753,7.051 -15.753,15.754"
         style="fill:#231f20;fill-opacity:1;fill-rule:nonzero;stroke:none"
         transform="matrix(0.13333333,0,0,-0.13333333,0,303.90667)" />
      <path
         id="path15"
         d="m 288.895,270.742 c 0,8.699 7.05,15.746 15.753,15.746 8.696,0 15.747,-7.047 15.747,-15.746 0,-8.703 -7.051,-15.754 -15.747,-15.754 -8.703,0 -15.753,7.051 -15.753,15.754 z"
         style="fill:none;stroke:#231f20;stroke-width:5;stroke-linecap:butt;stroke-linejoin:miter;stroke-miterlimit:10;stroke-dasharray:none;stroke-opacity:1"
         transform="matrix(0.13333333,0,0,-0.13333333,0,303.90667)" />
      <path
         id="path16"
         d="M 982.898,797.891 349.246,305.398"
         style="fill:none;stroke:#231f20;stroke-width:5;stroke-linecap:butt;stroke-linejoin:miter;stroke-miterlimit:10;stroke-dasharray:20, 20;stroke-dashoffset:0;stroke-opacity:1"
         transform="matrix(0.13333333,0,0,-0.13333333,0,303.90667)" />
      <path
         id="path17"
         d="m 356.34,310.91 19.699,-7.5 -0.234,-0.699 -30.352,-8.82 c -9.461,-4.5 -18.926,-9 -28.387,-13.5 6.7,8.05 13.399,16.109 20.098,24.168 l 16.027,27.242 0.68,0.129 2.469,-21.02"
         style="fill:#231f20;fill-opacity:1;fill-rule:nonzero;stroke:none"
         transform="matrix(0.13333333,0,0,-0.13333333,0,303.90667)" />
      <path
         id="path18"
         d="m 967.148,797.891 c 0,8.699 7.063,15.757 15.75,15.757 8.704,0 15.747,-7.058 15.747,-15.757 0,-8.7 -7.043,-15.75 -15.747,-15.75 -8.687,0 -15.75,7.05 -15.75,15.75"
         style="fill:#231f20;fill-opacity:1;fill-rule:nonzero;stroke:none"
         transform="matrix(0.13333333,0,0,-0.13333333,0,303.90667)" />
      <path
         id="path19"
         d="m 967.148,797.891 c 0,8.699 7.063,15.757 15.75,15.757 8.704,0 15.747,-7.058 15.747,-15.757 0,-8.7 -7.043,-15.75 -15.747,-15.75 -8.687,0 -15.75,7.05 -15.75,15.75 z"
         style="fill:none;stroke:#231f20;stroke-width:5;stroke-linecap:butt;stroke-linejoin:miter;stroke-miterlimit:10;stroke-dasharray:none;stroke-opacity:1"
         transform="matrix(0.13333333,0,0,-0.13333333,0,303.90667)" />
      <path
         id="path20"
         d="m 1558.36,1040.51 c 0,8.7 7.06,15.75 15.75,15.75 8.7,0 15.75,-7.05 15.75,-15.75 0,-8.7 -7.05,-15.75 -15.75,-15.75 -8.69,0 -15.75,7.05 -15.75,15.75"
         style="fill:#231f20;fill-opacity:1;fill-rule:nonzero;stroke:none"
         transform="matrix(0.13333333,0,0,-0.13333333,0,303.90667)" />
      <path
         id="path21"
         d="m 1558.36,1040.51 c 0,8.7 7.06,15.75 15.75,15.75 8.7,0 15.75,-7.05 15.75,-15.75 0,-8.7 -7.05,-15.75 -15.75,-15.75 -8.69,0 -15.75,7.05 -15.75,15.75 z"
         style="fill:none;stroke:#231f20;stroke-width:5;stroke-linecap:butt;stroke-linejoin:miter;stroke-miterlimit:10;stroke-dasharray:none;stroke-opacity:1"
         transform="matrix(0.13333333,0,0,-0.13333333,0,303.90667)" />
      <path
         id="path22"
         d="M 1574.11,1040.51 317.066,280.391"
         style="fill:none;stroke:#231f20;stroke-width:7.5;stroke-linecap:butt;stroke-linejoin:miter;stroke-miterlimit:10;stroke-dasharray:none;stroke-opacity:1"
         transform="matrix(0.13333333,0,0,-0.13333333,0,303.90667)" />
      <path
         id="path23"
         d="M 1572.41,682.488 H 176.055"
         style="fill:none;stroke:#231f20;stroke-width:5;stroke-linecap:butt;stroke-linejoin:miter;stroke-miterlimit:10;stroke-dasharray:none;stroke-opacity:1"
         transform="matrix(0.13333333,0,0,-0.13333333,0,303.90667)" />
      <path
         id="path24"
         d="M 1573.31,1153.56 V 270.371"
         style="fill:none;stroke:#231f20;stroke-width:5;stroke-linecap:butt;stroke-linejoin:miter;stroke-miterlimit:10;stroke-dasharray:none;stroke-opacity:1"
         transform="matrix(0.13333333,0,0,-0.13333333,0,303.90667)" />
      <path
         id="path25"
         d="m 965.254,683.809 c 0,8.703 7.051,15.75 15.754,15.75 8.687,0 15.738,-7.047 15.738,-15.75 0,-8.7 -7.051,-15.75 -15.738,-15.75 -8.703,0 -15.754,7.05 -15.754,15.75"
         style="fill:#ffffff;fill-opacity:1;fill-rule:nonzero;stroke:none"
         transform="matrix(0.13333333,0,0,-0.13333333,0,303.90667)" />
      <path
         id="path26"
         d="m 965.254,683.809 c 0,8.703 7.051,15.75 15.754,15.75 8.687,0 15.738,-7.047 15.738,-15.75 0,-8.7 -7.051,-15.75 -15.738,-15.75 -8.703,0 -15.754,7.05 -15.754,15.75 z"
         style="fill:none;stroke:#231f20;stroke-width:5;stroke-linecap:butt;stroke-linejoin:miter;stroke-miterlimit:10;stroke-dasharray:none;stroke-opacity:1"
         transform="matrix(0.13333333,0,0,-0.13333333,0,303.90667)" />
      <path
         id="path27"
         d="M 304.648,1153.56 V 270.371"
         style="fill:none;stroke:#231f20;stroke-width:5;stroke-linecap:butt;stroke-linejoin:miter;stroke-miterlimit:10;stroke-dasharray:none;stroke-opacity:1"
         transform="matrix(0.13333333,0,0,-0.13333333,0,303.90667)" />
      <path
         id="path28"
         d="m 4.4402422,-4.5230125 c -0.046875,-0.421875 -0.09375,-1.0078125 -0.09375,-1.3242187 H 0.38555469 v 0.2460937 c 0.69140621,0.058594 0.76171871,0.1054688 0.76171871,0.890625 v 3.5742188 c 0,0.77343745 -0.070312,0.8320312 -0.78515621,0.8789062 V 4.25e-4 H 2.8113359 V -0.2573875 C 1.9910234,-0.3042625 1.9207109,-0.36285625 1.9207109,-1.1362937 V -2.7652 h 0.9257813 c 0.8203125,0 0.8554687,0.1054688 0.9726562,0.7265625 h 0.2460938 v -1.734375 H 3.8191484 c -0.1171875,0.5742188 -0.1523437,0.65625 -0.9726562,0.65625 H 1.9207109 v -2.1445312 c 0,-0.2578125 0.023437,-0.2695313 0.28125,-0.2695313 h 0.6914063 c 0.6796875,0 0.8789062,0.070312 1.0195312,0.3164063 0.1289063,0.1875 0.1757813,0.3632812 0.2578125,0.7265625 z M 5.9343828,-4.8277 c 0.2578125,0 0.4570313,-0.2109375 0.4570313,-0.4570312 0,-0.2695313 -0.1992188,-0.46875 -0.4570313,-0.46875 -0.234375,0 -0.4570312,0.1992187 -0.4570312,0.46875 0,0.2460937 0.2226562,0.4570312 0.4570312,0.4570312 z M 6.9890703,4.25e-4 V -0.23395 C 6.4031328,-0.29254375 6.3445391,-0.33941875 6.3445391,-0.94879375 V -4.0542625 C 5.9461016,-3.9019187 5.5242266,-3.7847312 5.0671953,-3.7027 v 0.2109375 c 0.5390625,0.09375 0.5625,0.1289063 0.5625,0.6796875 v 1.86328125 c 0,0.609375 -0.058594,0.65625 -0.6210937,0.71484375 V 4.25e-4 Z m 2.5634766,0 V -0.23395 c -0.5742188,-0.0585938 -0.65625,-0.10546875 -0.65625,-0.703125 V -6.4097312 C 8.5916094,-6.3042625 8.0408281,-6.1519187 7.5720781,-6.093325 v 0.2109375 c 0.5625,0.046875 0.6210938,0.082031 0.6210938,0.6914063 v 4.2539062 c 0,0.59765625 -0.082031,0.64453125 -0.6445313,0.703125 V 4.25e-4 Z m 7.5263671,0 V -0.23395 C 16.575008,-0.29254375 16.492977,-0.3277 16.492977,-0.92535625 V -2.6597312 c 0,-0.890625 -0.433594,-1.3828125 -1.136719,-1.3828125 -0.257813,0 -0.492188,0.1054687 -0.679688,0.234375 -0.222656,0.140625 -0.480468,0.3046875 -0.738281,0.5039062 -0.1875,-0.46875 -0.574219,-0.7382812 -1.007812,-0.7382812 -0.28125,0 -0.503907,0.1054687 -0.738282,0.2460937 -0.269531,0.1640625 -0.46875,0.328125 -0.65625,0.4570313 V -4.0659812 C 11.137508,-3.8902 10.680477,-3.7730125 10.282039,-3.7027 v 0.2109375 c 0.527344,0.082031 0.550781,0.1289063 0.550781,0.703125 v 1.86328125 c 0,0.5859375 -0.08203,0.6328125 -0.667968,0.69140625 V 4.25e-4 h 1.898437 V -0.23395 C 11.617977,-0.2925438 11.547664,-0.33941875 11.547664,-0.92535625 V -3.04645 c 0.269531,-0.2226562 0.621094,-0.46875 0.984375,-0.46875 0.550781,0 0.785156,0.375 0.785156,1.0429688 v 1.54687495 c 0,0.59765625 -0.08203,0.6328125 -0.644531,0.69140625 V 4.25e-4 h 1.921875 V -0.23395 C 14.102352,-0.29254375 14.02032,-0.33941875 14.02032,-0.9136375 v -1.7460937 c 0,-0.1757813 -0.01172,-0.2695313 -0.02344,-0.3867188 0.339844,-0.28125 0.679687,-0.46875 1.007812,-0.46875 0.5625,0 0.796875,0.4101563 0.796875,1.0546875 v 1.5 c 0,0.6328125 -0.105468,0.66796875 -0.632812,0.7265625 V 4.25e-4 Z m 0,0"
         style="fill:#231f20;fill-opacity:1;fill-rule:nonzero;stroke:none"
         aria-label="Film"
         transform="matrix(1.3333333,0,0,1.3333333,198.67733,285.18693)" />
    </g>
  </g>
</svg>
