<?xml version="1.0" encoding="UTF-8" standalone="no"?>
<!-- Created with Inkscape (http://www.inkscape.org/) -->

<svg
   version="1.1"
   id="svg1"
   width="254.78667"
   height="135.61333"
   viewBox="0 0 254.78667 135.61333"
   sodipodi:docname="pha05f08.eps"
   xmlns:inkscape="http://www.inkscape.org/namespaces/inkscape"
   xmlns:sodipodi="http://sodipodi.sourceforge.net/DTD/sodipodi-0.dtd"
   xmlns="http://www.w3.org/2000/svg"
   xmlns:svg="http://www.w3.org/2000/svg">
  <defs
     id="defs1" />
  <sodipodi:namedview
     id="namedview1"
     pagecolor="#ffffff"
     bordercolor="#000000"
     borderopacity="0.25"
     inkscape:showpageshadow="2"
     inkscape:pageopacity="0.0"
     inkscape:pagecheckerboard="0"
     inkscape:deskcolor="#d1d1d1">
    <inkscape:page
       x="0"
       y="0"
       inkscape:label="1"
       id="page1"
       width="254.78667"
       height="135.61333"
       margin="0"
       bleed="0" />
  </sodipodi:namedview>
  <g
     id="g1"
     inkscape:groupmode="layer"
     inkscape:label="1">
    <g
       id="group-R5">
      <path
         id="path2"
         d="m 1260.85,107.391 c 53.32,108.41 83.27,230.39 83.27,359.355 0,129.543 -30.21,252.024 -83.97,360.793"
         style="fill:none;stroke:#231f20;stroke-width:5;stroke-linecap:round;stroke-linejoin:miter;stroke-miterlimit:10;stroke-dasharray:none;stroke-opacity:1"
         transform="matrix(0.13333333,0,0,-0.13333333,0,135.61333)" />
      <path
         id="path3"
         d="m 1258.37,107.723 c -53.32,108.41 -83.26,230.382 -83.26,359.355 0,129.539 30.21,252.02 83.97,360.781"
         style="fill:none;stroke:#231f20;stroke-width:5;stroke-linecap:round;stroke-linejoin:miter;stroke-miterlimit:10;stroke-dasharray:none;stroke-opacity:1"
         transform="matrix(0.13333333,0,0,-0.13333333,0,135.61333)" />
      <path
         id="path4"
         d="M 1887.14,465.746 H 0"
         style="fill:none;stroke:#231f20;stroke-width:5;stroke-linecap:butt;stroke-linejoin:miter;stroke-miterlimit:10;stroke-dasharray:none;stroke-opacity:1"
         transform="matrix(0.13333333,0,0,-0.13333333,0,135.61333)" />
      <path
         id="path5"
         d="m 1876.25,467.402 c 0,6.211 5.03,11.25 11.25,11.25 6.22,0 11.25,-5.039 11.25,-11.25 0,-6.211 -5.03,-11.25 -11.25,-11.25 -6.22,0 -11.25,5.039 -11.25,11.25"
         style="fill:#231f20;fill-opacity:1;fill-rule:nonzero;stroke:none"
         transform="matrix(0.13333333,0,0,-0.13333333,0,135.61333)" />
      <path
         id="path6"
         d="m 1876.25,467.402 c 0,6.211 5.03,11.25 11.25,11.25 6.22,0 11.25,-5.039 11.25,-11.25 0,-6.211 -5.03,-11.25 -11.25,-11.25 -6.22,0 -11.25,5.039 -11.25,11.25 z"
         style="fill:none;stroke:#231f20;stroke-width:5;stroke-linecap:butt;stroke-linejoin:miter;stroke-miterlimit:10;stroke-dasharray:none;stroke-opacity:1"
         transform="matrix(0.13333333,0,0,-0.13333333,0,135.61333)" />
      <path
         id="path7"
         d="m 1.25,732.402 h 10"
         style="fill:none;stroke:#231f20;stroke-width:5;stroke-linecap:butt;stroke-linejoin:miter;stroke-miterlimit:10;stroke-dasharray:none;stroke-opacity:1"
         transform="matrix(0.13333333,0,0,-0.13333333,0,135.61333)" />
      <path
         id="path8"
         d="M 31.043,732.402 H 1260 l 609.17,-257.261"
         style="fill:none;stroke:#231f20;stroke-width:5;stroke-linecap:butt;stroke-linejoin:miter;stroke-miterlimit:10;stroke-dasharray:19.7929, 19.7929;stroke-dashoffset:0;stroke-opacity:1"
         transform="matrix(0.13333333,0,0,-0.13333333,0,135.61333)" />
      <path
         id="path9"
         d="m 1878.29,471.293 9.21,-3.891 -9.76,-2.183"
         style="fill:none;stroke:#231f20;stroke-width:5;stroke-linecap:butt;stroke-linejoin:miter;stroke-miterlimit:10;stroke-dasharray:none;stroke-opacity:1"
         transform="matrix(0.13333333,0,0,-0.13333333,0,135.61333)" />
      <path
         id="path10"
         d="M 1858.01,460.809 1261.25,327.402 H 23.8516"
         style="fill:none;stroke:#231f20;stroke-width:5;stroke-linecap:butt;stroke-linejoin:miter;stroke-miterlimit:10;stroke-dasharray:20.2065, 20.2065;stroke-dashoffset:0;stroke-opacity:1"
         transform="matrix(0.13333333,0,0,-0.13333333,0,135.61333)" />
      <path
         id="path11"
         d="m 13.75,327.402 h -10"
         style="fill:none;stroke:#231f20;stroke-width:5;stroke-linecap:butt;stroke-linejoin:miter;stroke-miterlimit:10;stroke-dasharray:none;stroke-opacity:1"
         transform="matrix(0.13333333,0,0,-0.13333333,0,135.61333)" />
      <path
         id="path12"
         d="m 1887.5,467.402 -9.17,-4.004"
         style="fill:none;stroke:#231f20;stroke-width:5;stroke-linecap:butt;stroke-linejoin:miter;stroke-miterlimit:10;stroke-dasharray:none;stroke-opacity:1"
         transform="matrix(0.13333333,0,0,-0.13333333,0,135.61333)" />
      <path
         id="path13"
         d="M 1860.17,455.469 1263.75,194.902 H 22.4063"
         style="fill:none;stroke:#231f20;stroke-width:5;stroke-linecap:butt;stroke-linejoin:miter;stroke-miterlimit:10;stroke-dasharray:19.8136, 19.8136;stroke-dashoffset:0;stroke-opacity:1"
         transform="matrix(0.13333333,0,0,-0.13333333,0,135.61333)" />
      <path
         id="path14"
         d="M 12.5,194.902 H 2.5"
         style="fill:none;stroke:#231f20;stroke-width:5;stroke-linecap:butt;stroke-linejoin:miter;stroke-miterlimit:10;stroke-dasharray:none;stroke-opacity:1"
         transform="matrix(0.13333333,0,0,-0.13333333,0,135.61333)" />
      <g
         id="g14"
         aria-label="z = 0&#10;p"
         transform="matrix(1.3333333,0,0,1.3333333,156.68267,131.29303)">
        <path
           id="path15"
           d="m 3.7858516,-4.1719184 c -0.2226563,0.2460937 -0.3984375,0.3515625 -0.5507813,0.3515625 -0.1523437,0 -0.3046875,-0.011719 -0.7265625,-0.09375 -0.4335937,-0.070312 -0.703125,-0.1054688 -0.9492187,-0.1054688 -0.2226563,0 -0.4453125,0.1875 -0.65625004,0.5273438 -0.140625,0.234375 -0.24609375,0.4453125 -0.375,0.7265625 l 0.234375,0.1054687 C 1.0202266,-3.1172309 1.2311641,-3.4219184 1.6530391,-3.4219184 c 0.2226562,0 0.6210937,0.023437 0.8554687,0.058594 0.1992188,0.011719 0.3984375,0 0.5507813,-0.035156 -0.8320313,0.890625 -1.875,1.9101562 -2.49609379,2.57812496 -0.55078125,0.57421875 -0.48046875,0.83203125 -0.328125,0.90234375 0.046875,0.01171875 0.0703125,-0.0234375 0.10546875,-0.0820312475 0.0820313,-0.1171875025 0.1875,-0.2343750025 0.29296875,-0.3046875025 0.1171875,-0.0820313 0.26953125,-0.09375 0.55078129,0.046875 0.3984375,0.19921875 0.9140625,0.43359375 1.2070312,0.43359375 0.3867188,0 0.75,-0.26953125 1.2421875,-1.24218751 l -0.1992187,-0.164063 c -0.4101563,0.60937501 -0.6796875,0.76171876 -0.9257813,0.76171876 -0.2226562,0 -0.515625,-0.1171875 -0.8085937,-0.2109375 C 1.4303828,-0.79691844 1.1960078,-0.84379344 1.0202266,-0.83207469 1.6881953,-1.5351997 2.8717891,-2.7187934 3.4460078,-3.3750434 3.6921016,-3.6445747 3.8561641,-3.8320747 3.9733516,-3.9726997 Z m 0,0"
           style="fill:#231f20;fill-opacity:1;fill-rule:nonzero;stroke:none" />
        <path
           id="path16"
           d="M 10.579797,-2.8945747 V -3.3398872 H 6.2907344 v 0.4453125 z m 0,1.6523438 V -1.6875434 H 6.2907344 v 0.4453125 z m 4.661133,-4.4765625 c -1.347657,0 -1.839844,1.6054687 -1.839844,2.9179687 0,1.4179688 0.480469,2.90625001 1.839844,2.90625001 1.359375,0 1.828125,-1.59375001 1.828125,-2.91796871 0,-1.3828125 -0.46875,-2.90625 -1.828125,-2.90625 z m 0,0.3046875 c 0.808593,0 1.03125,1.3242187 1.03125,2.6015625 0,1.265625 -0.222657,2.61328121 -1.03125,2.61328121 -0.773438,0 -1.042969,-1.35937501 -1.042969,-2.61328121 0,-1.2539063 0.222656,-2.6015625 1.042969,-2.6015625 z M 70.386438,-37.546918 v -0.714844 c -0.421875,0.175781 -0.925782,0.328125 -1.3125,0.398437 v 0.210938 c 0.5625,0.07031 0.597656,0.09375 0.597656,0.679687 v 4.066407 c 0,0.585937 -0.08203,0.644531 -0.65625,0.703125 v 0.234375 h 2.132812 v -0.234375 c -0.703125,-0.07031 -0.761718,-0.117188 -0.761718,-0.796875 v -1.183594 c 0.117187,0.07031 0.363281,0.152344 0.621093,0.164062 1.171875,-0.210937 2.238282,-1.089843 2.238282,-2.449218 0,-0.890625 -0.597657,-1.699219 -1.59375,-1.699219 -0.105469,0 -0.28125,0.04687 -0.445313,0.140625 z m 0,0.304687 c 0.246093,-0.1875 0.609375,-0.386719 0.902343,-0.386719 0.65625,0 1.207032,0.539063 1.207032,1.511719 0,1.007813 -0.515625,1.664063 -1.265625,1.664063 -0.304688,0 -0.644532,-0.152344 -0.84375,-0.351563 z m 0,0"
           style="fill:#231f20;fill-opacity:1;fill-rule:nonzero;stroke:none" />
      </g>
      <path
         id="path17"
         d="M 1891.52,935.027 V 889.711"
         style="fill:none;stroke:#231f20;stroke-width:5;stroke-linecap:butt;stroke-linejoin:miter;stroke-miterlimit:10;stroke-dasharray:none;stroke-opacity:1"
         transform="matrix(0.13333333,0,0,-0.13333333,0,135.61333)" />
      <path
         id="path18"
         d="m 1258.52,913.789 h 633"
         style="fill:none;stroke:#231f20;stroke-width:5;stroke-linecap:butt;stroke-linejoin:miter;stroke-miterlimit:10;stroke-dasharray:none;stroke-opacity:1"
         transform="matrix(0.13333333,0,0,-0.13333333,0,135.61333)" />
      <path
         id="path19"
         d="m 1258.52,891.129 v 42.484"
         style="fill:none;stroke:#231f20;stroke-width:5;stroke-linecap:butt;stroke-linejoin:miter;stroke-miterlimit:10;stroke-dasharray:none;stroke-opacity:1"
         transform="matrix(0.13333333,0,0,-0.13333333,0,135.61333)" />
      <path
         id="path20"
         d="m 0.7155,-3.9013563 -0.26953125,0.2578125 0.0234375,0.09375 H 1.2194063 C 1.0670625,-2.6591688 0.949875,-1.9091688 0.72721875,-0.66698125 0.43425,1.0791125 0.21159375,1.4541125 0.09440625,1.5947375 0.012375,1.7002062 -0.13996875,1.7705187 -0.2923125,1.7705187 c -0.15234375,0 -0.421875,-0.082031 -0.5625,-0.2226562 -0.0585938,-0.058594 -0.09375,-0.058594 -0.1757812,0 -0.1289063,0.1054687 -0.234375,0.2578125 -0.234375,0.375 -0.011719,0.2109375 0.2929687,0.3867187 0.5507812,0.3867187 0.24609375,0 0.62109375,-0.140625 1.01953125,-0.5625 C 0.79753125,1.2314562 1.137375,0.5634875 1.4537813,-0.9833875 1.653,-1.9912 1.74675,-2.5419813 1.9108125,-3.5263563 l 0.9023438,-0.09375 0.1875,-0.28125 H 1.981125 c 0.2695313,-1.6640625 0.5390625,-2.0742187 0.8671875,-2.0742187 0.1992188,0 0.3867188,0.1171875 0.5742188,0.3164062 0.058594,0.070312 0.1523437,0.058594 0.2226562,0.011719 0.09375,-0.070312 0.2226563,-0.234375 0.2226563,-0.375 0.011719,-0.1640625 -0.2226563,-0.3867188 -0.5390625,-0.3867188 -0.3632813,0 -0.8671875,0.2578125 -1.2890625,0.7265625 -0.3984375,0.4453125 -0.6210938,1.1015625 -0.75,1.78125 z m 0,0"
         style="fill:#231f20;fill-opacity:1;fill-rule:nonzero;stroke:none"
         aria-label="f"
         transform="matrix(1.3333333,0,0,1.3333333,207.796,9.9049333)" />
    </g>
  </g>
</svg>
