<?xml version="1.0" encoding="UTF-8" standalone="no"?>
<!-- Created with Inkscape (http://www.inkscape.org/) -->

<svg
   version="1.1"
   id="svg1"
   width="524.5733"
   height="184.10667"
   viewBox="0 0 524.5733 184.10667"
   sodipodi:docname="pha05f21.eps"
   xmlns:inkscape="http://www.inkscape.org/namespaces/inkscape"
   xmlns:sodipodi="http://sodipodi.sourceforge.net/DTD/sodipodi-0.dtd"
   xmlns="http://www.w3.org/2000/svg"
   xmlns:svg="http://www.w3.org/2000/svg">
  <defs
     id="defs1" />
  <sodipodi:namedview
     id="namedview1"
     pagecolor="#ffffff"
     bordercolor="#000000"
     borderopacity="0.25"
     inkscape:showpageshadow="2"
     inkscape:pageopacity="0.0"
     inkscape:pagecheckerboard="0"
     inkscape:deskcolor="#d1d1d1">
    <inkscape:page
       x="0"
       y="0"
       inkscape:label="1"
       id="page1"
       width="524.5733"
       height="184.10667"
       margin="0"
       bleed="0" />
  </sodipodi:namedview>
  <g
     id="g1"
     inkscape:groupmode="layer"
     inkscape:label="1">
    <g
       id="group-R5">
      <path
         id="path2"
         d="m 38.0273,283.621 3.6055,0.027 3.6367,0.024 3.6094,0.027 3.6367,0.051 3.6133,0.031 7.2734,0.11 3.6055,0.05 3.6367,0.09 3.6094,0.047 3.6367,0.082 3.6446,0.11 3.6015,0.121 3.6446,0.097 3.6015,0.141 3.6367,0.191 3.6094,0.192 7.2811,0.437 3.602,0.25 3.644,0.211 3.598,0.231 3.641,0.269 3.632,0.32 3.618,0.411 3.636,0.5 3.61,0.597 3.636,0.684 3.602,0.738 3.644,0.82 3.633,0.879 3.614,0.95 3.636,1.101 3.61,1.281 3.636,1.508 3.633,1.86 3.61,2.132 3.636,2.348 3.61,2.441 3.64,2.399 3.606,2.351 3.64,2.43 3.633,2.738 3.61,3.313 3.632,4.129 3.614,5.082 3.64,6.019 3.633,6.918 3.613,7.762 3.633,8.508 3.61,9.262 3.632,10.199 3.614,11.351 3.644,12.715 3.633,14.274 3.613,15.832 3.633,17.363 3.606,19.113 3.632,21.082 3.641,23.297 3.613,25.672 3.633,27.566 3.613,28.575 3.633,28.738 3.613,28.027 3.633,26.883 3.637,25.754 3.613,24.5 3.633,23.164 3.613,21.68 3.633,20.07 3.645,18.32 3.601,16.653 3.637,15.015 3.613,13.371 3.633,11.75 3.613,10.153 3.633,8.637 3.645,7.187 3.597,5.856 3.645,4.542 3.609,3.301 3.637,2.305 3.637,1.394 3.605,0.676 3.641,0.059 3.601,-0.52 3.645,-0.957 3.613,-1.258 3.633,-1.425 3.637,-1.45 3.609,-1.582 3.637,-1.89 3.601,-2.375 3.641,-3.012 3.637,-3.766 3.609,-4.511 3.641,-5.254 3.605,-6.043 3.641,-6.809 3.629,-7.519 3.613,-8.336 3.633,-9.41 3.613,-10.77 3.645,-12.441 3.601,-14.254 3.645,-15.801 3.625,-16.734 3.613,-17.196 3.633,-17.089 3.613,-16.68 3.645,-16.356 3.632,-16.078 3.614,-15.828 3.629,-15.617 3.613,-15.313 3.633,-14.902 3.613,-14.461 3.637,-14.058 3.633,-13.59 3.613,-13.094 3.633,-12.578 3.613,-11.953 3.633,-11.239 3.636,-10.418 3.614,-9.593 3.633,-8.782 3.613,-7.984 3.633,-7.246 3.609,-6.563 3.637,-5.878 3.636,-5.196 3.614,-4.539 3.633,-3.91 3.613,-3.309 3.629,-2.734 3.64,-2.16 3.606,-1.559 3.64,-0.957 3.618,-0.347 3.629,0.324 3.617,0.898 3.625,1.395 3.644,1.777 3.602,2.024 3.644,2.246 3.614,2.484 3.632,2.762 3.637,3.117 3.606,3.473 3.636,3.886 3.61,4.239 3.636,4.562 3.614,4.895 3.633,5.222 3.64,5.551 3.606,5.824 3.636,6.016 3.61,6.152 3.636,6.235 3.633,6.265 3.614,6.258 3.64,6.289 3.606,6.344 3.636,6.371 3.61,6.426 3.636,6.457 3.645,6.394 3.602,6.344 3.644,6.207 3.598,6.098 3.64,5.933 3.633,5.825 3.613,5.742 3.633,5.687 3.614,5.606 3.64,5.551 3.602,5.468 3.644,5.418 3.633,5.332 3.613,5.274 3.637,5.222 3.609,5.141 3.637,5.113 3.633,5.004 3.609,4.977 3.637,4.922 3.609,4.839 3.637,4.813 3.61,4.785 3.64,4.758 3.633,4.73 3.609,4.704 3.633,4.625 3.613,4.617 3.645,4.543 3.633,4.48 3.609,4.406 3.637,4.317 3.605,4.211 3.633,4.074 3.613,3.965 3.633,3.855 3.645,3.746 3.613,3.637 3.633,3.527 3.605,3.418 3.633,3.282 3.641,3.144 3.613,3.008 3.633,2.848 3.613,2.703 3.633,2.515 3.613,2.379 3.633,2.188 3.637,2.051 3.609,1.859 3.637,1.637 3.613,1.449 3.633,1.203 3.644,0.988 3.602,0.715 3.637,0.488 3.613,0.247 h 3.633 l 3.613,-0.219 3.633,-0.469 3.644,-0.707 3.598,-0.93 3.645,-1.121 3.605,-1.344 3.641,-1.55 3.636,-1.809 3.61,-2.105 3.637,-2.434 3.609,-2.789 3.637,-3.145 3.613,-3.441 3.633,-3.691 3.633,-3.965 3.613,-4.16 3.633,-4.403 3.613,-4.675 3.633,-4.977 3.636,-5.301 3.61,-5.664 3.637,-5.957 3.609,-6.266 3.637,-6.507 3.609,-6.7 3.637,-6.914 3.636,-7.113 3.61,-7.328 3.637,-7.547 3.609,-7.738 3.637,-7.93 3.636,-8.144 3.61,-8.34 3.636,-8.59 3.61,-8.859 3.64,-9.161 3.606,-9.347 3.641,-9.547 3.636,-9.653 3.61,-9.679 3.637,-9.735 3.61,-9.734 3.63,-9.652 3.64,-9.516 3.61,-9.32 3.63,-9.024 3.62,-8.808 3.63,-8.586 3.61,-8.422 3.64,-8.285 3.63,-8.176 3.61,-8.035 3.64,-7.906 3.61,-7.766 3.64,-7.629 3.63,-7.492 3.61,-7.352 3.64,-7.222 3.61,-7.055 3.64,-6.863 3.6,-6.7 3.64,-6.507 3.64,-6.317 3.61,-6.094 3.64,-5.91 3.6,-5.66 3.64,-5.441 3.64,-5.219 3.61,-5.039 3.64,-4.84 3.6,-4.672 3.64,-4.488 3.61,-4.32 3.64,-4.153 3.63,-3.968 3.61,-3.829 3.64,-3.632 3.61,-3.5 3.63,-3.34 3.64,-3.168 3.61,-3.012 3.64,-2.867 3.6,-2.684 3.64,-2.539 3.61,-2.379 3.64,-2.179 3.64,-2.032 3.6,-1.89 3.64,-1.719 3.61,-1.641 3.64,-1.507 3.64,-1.391 3.6,-1.313 3.64,-1.257 3.61,-1.2 3.64,-1.203 3.61,-1.16 3.63,-1.109 3.64,-1.039 3.61,-1.008 3.64,-0.942 3.61,-0.839 3.63,-0.821 3.64,-0.742 3.61,-0.68 3.63,-0.66 3.62,-0.566 3.63,-0.551 3.61,-0.492 3.64,-0.469 3.63,-0.41 3.61,-0.379 3.64,-0.359 3.61,-0.301 3.64,-0.32 3.63,-0.282 3.61,-0.269 3.64,-0.281 3.61,-0.207 3.63,-0.25 3.61,-0.192 7.28,-0.39 3.61,-0.161 3.63,-0.16 3.61,-0.168 7.28,-0.269 3.61,-0.114 3.63,-0.109 3.61,-0.109 3.64,-0.11 3.61,-0.109 7.27,-0.16 3.61,-0.082 3.64,-0.059 3.61,-0.082 7.27,-0.109 3.61,-0.059 3.64,-0.051 3.6,-0.05 3.64,-0.028 3.61,-0.062 3.64,-0.028 3.64,-0.05 3.6,-0.032 3.64,-0.019 3.61,-0.031 7.28,-0.059 3.6,-0.02 3.65,-0.031 3.6,-0.027 3.64,-0.024 h 3.64 l 3.61,-0.027 h 3.63 l 3.61,-0.031 h 3.64 l 3.61,-0.031 h 3.63 l 3.64,-0.028 h 7.24 l 3.62,-0.019 h 10.87 l 3.64,-0.032 h 14.49 l 3.64,-0.031 h 25.38 l 3.61,-0.019 h 68.87 l 3.64,-0.032 h 148.65"
         style="fill:none;stroke:#4974b1;stroke-width:10;stroke-linecap:square;stroke-linejoin:miter;stroke-miterlimit:3.25;stroke-dasharray:none;stroke-opacity:1"
         transform="matrix(0.13333333,0,0,-0.13333333,0,184.10667)" />
      <path
         id="path3"
         d="m 38.0273,283.398 h 28.9805 l 3.6367,0.032 h 39.8675 l 3.644,0.019 h 18.125 l 3.61,0.031 h 3.636 l 3.602,0.032 h 7.277 l 3.614,0.019 3.636,0.028 h 3.61 l 7.269,0.062 3.61,0.027 3.636,0.024 3.61,0.058 3.64,0.02 3.606,0.031 3.64,0.028 3.633,0.05 3.61,0.032 3.632,0.078 3.614,0.062 3.64,0.078 3.633,0.11 3.613,0.109 3.633,0.141 3.61,0.133 3.632,0.136 3.614,0.16 3.644,0.192 3.633,0.219 3.613,0.222 3.633,0.278 3.606,0.332 3.632,0.347 3.641,0.41 3.613,0.461 3.633,0.551 3.613,0.578 3.633,0.633 3.613,0.649 3.633,0.679 3.637,0.723 3.613,0.726 3.633,0.793 3.613,0.829 3.633,0.839 3.645,0.879 3.601,0.903 3.637,0.961 3.613,0.976 3.633,1.024 3.613,1.039 7.278,2.179 3.597,1.121 3.645,1.118 3.609,1.152 3.637,1.18 3.637,1.23 3.605,1.25 3.641,1.32 3.601,1.368 3.645,1.421 3.613,1.5 3.633,1.532 3.637,1.609 3.609,1.668 3.637,1.75 3.601,1.813 3.641,1.878 3.637,1.95 3.609,2.05 3.641,2.071 3.605,2.168 3.641,2.211 3.629,2.269 3.613,2.321 3.633,2.41 3.613,2.511 3.645,2.598 3.601,2.711 3.645,2.84 3.625,2.961 3.613,3.109 3.633,3.262 3.613,3.437 3.645,3.59 3.632,3.77 3.614,3.941 3.629,4.098 3.613,4.32 3.633,4.461 3.613,4.649 3.637,4.753 3.633,4.84 3.613,4.949 3.633,5.032 3.613,5.222 3.633,5.442 3.636,5.742 3.614,6.043 3.633,6.398 3.613,6.7 3.633,7.109 3.609,7.496 3.637,7.93 3.636,8.39 3.614,8.805 3.633,9.27 3.613,9.679 3.629,10.09 3.64,10.563 3.606,11.121 3.64,11.789 3.618,12.547 3.629,13.429 3.617,14.188 3.625,14.82 3.644,15.34 3.602,15.695 3.644,15.969 3.614,16.274 3.632,16.621 3.637,17.035 3.606,17.476 3.636,17.934 3.61,18.238 3.636,18.457 3.614,18.535 3.633,18.512 3.64,18.434 3.606,18.238 3.636,17.941 3.61,17.387 3.636,16.707 3.633,15.828 3.614,15.071 3.64,14.382 3.606,13.805 3.636,13.402 3.61,12.993 3.636,12.551 3.645,12.02 3.602,11.49 3.644,10.89 3.598,10.3 3.64,9.71 3.633,9.19 3.613,8.67 3.633,8.2 3.614,7.74 3.64,7.27 3.602,6.84 3.644,6.34 3.633,5.91 3.613,5.46 3.637,5.01 3.609,4.56 3.637,4.16 3.633,3.72 3.609,3.31 3.637,2.96 3.609,2.45 3.637,2.19 3.61,1.86 3.64,1.53 3.633,1.23 3.609,0.88 3.633,0.55 3.613,0.21 3.645,-0.1 3.633,-0.5 3.609,-0.85 3.637,-1.25 3.605,-1.65 3.633,-2.11 3.613,-2.48 3.633,-2.87 3.645,-3.23 3.613,-3.61 3.633,-3.93 3.605,-4.27 3.633,-4.65 3.641,-4.98 3.613,-5.32 3.633,-5.73 3.613,-6.06 3.633,-6.37 3.613,-6.73 3.633,-7.03 3.637,-7.29 3.609,-7.61 3.637,-7.93 3.613,-8.21 3.633,-8.52 3.644,-8.84 3.602,-9.1 3.637,-9.38 3.613,-9.63 3.633,-9.839 3.613,-10.007 3.633,-10.223 3.644,-10.363 3.598,-10.477 3.645,-10.613 3.605,-10.66 3.641,-10.743 3.636,-10.828 3.61,-10.886 3.637,-10.965 3.609,-11.071 3.637,-11.101 3.613,-11.16 3.633,-11.16 3.633,-11.204 3.613,-11.183 3.633,-11.192 3.613,-11.179 3.633,-11.211 3.636,-11.184 3.61,-11.183 3.637,-11.157 3.609,-11.156 3.637,-11.074 3.609,-11.016 3.637,-10.914 3.636,-10.824 3.61,-10.777 3.637,-10.688 3.609,-10.64 3.637,-10.551 3.636,-10.504 3.61,-10.473 3.636,-10.445 3.61,-10.5 3.64,-10.527 3.606,-10.528 3.641,-10.5 3.636,-10.418 3.61,-10.304 3.637,-10.149 3.61,-10.008 3.63,-9.816 3.64,-9.57 3.61,-9.243 3.63,-8.91 3.62,-8.617 3.63,-8.312 3.61,-8.086 3.64,-7.911 3.63,-7.679 3.61,-7.52 3.64,-7.304 3.61,-7.137 3.64,-6.945 3.63,-6.778 3.61,-6.594 3.64,-6.425 3.61,-6.235 3.64,-6.039 3.6,-5.828 3.64,-5.656 3.64,-5.445 3.61,-5.219 3.64,-5.035 3.6,-4.813 3.64,-4.617 3.64,-4.402 3.61,-4.239 3.64,-4.05 3.6,-3.911 3.64,-3.75 3.61,-3.578 3.64,-3.441 3.63,-3.281 3.61,-3.149 3.64,-2.98 3.61,-2.871 3.63,-2.739 3.64,-2.558 3.61,-2.473 3.64,-2.32 3.6,-2.219 3.64,-2.051 3.61,-1.91 3.64,-1.777 3.64,-1.641 3.6,-1.531 3.64,-1.391 3.61,-1.34 3.64,-1.211 3.64,-1.148 3.6,-1.039 3.64,-1.012 3.61,-0.98 3.64,-0.957 3.61,-0.934 3.63,-0.898 3.64,-0.852 3.61,-0.789 3.64,-0.738 3.61,-0.68 3.63,-0.66 3.64,-0.602 3.61,-0.55 3.63,-0.52 3.62,-0.461 3.63,-0.437 3.61,-0.379 7.27,-0.711 3.61,-0.301 3.64,-0.27 3.61,-0.25 7.27,-0.5 3.61,-0.191 3.64,-0.219 3.61,-0.179 3.63,-0.172 3.61,-0.188 3.64,-0.14 3.64,-0.161 3.61,-0.14 3.63,-0.11 3.61,-0.14 7.28,-0.211 3.61,-0.09 3.63,-0.109 3.61,-0.078 3.64,-0.082 3.61,-0.051 3.64,-0.078 3.63,-0.063 3.61,-0.078 3.64,-0.059 3.61,-0.05 3.63,-0.063 3.64,-0.019 3.61,-0.059 3.64,-0.031 3.6,-0.047 3.64,-0.031 3.61,-0.032 7.28,-0.05 3.6,-0.059 h 3.64 l 3.61,-0.02 7.28,-0.058 3.6,-0.024 h 3.65 l 3.6,-0.027 h 3.64 l 3.64,-0.031 h 3.61 l 3.63,-0.031 h 3.61 l 3.64,-0.028 h 7.24 l 3.64,-0.019 h 7.24 l 3.62,-0.032 h 18.12 l 3.63,-0.031 h 25.38 l 3.65,-0.019 h 68.86 l 3.62,-0.032 h 159.53"
         style="fill:none;stroke:#ef4872;stroke-width:10;stroke-linecap:square;stroke-linejoin:miter;stroke-miterlimit:3.25;stroke-dasharray:none;stroke-opacity:1"
         transform="matrix(0.13333333,0,0,-0.13333333,0,184.10667)" />
      <path
         id="path4"
         d="m 183.031,253.398 v 30"
         style="fill:none;stroke:#231f20;stroke-width:5;stroke-linecap:butt;stroke-linejoin:miter;stroke-miterlimit:3.25;stroke-dasharray:none;stroke-opacity:1"
         transform="matrix(0.13333333,0,0,-0.13333333,0,184.10667)" />
      <path
         id="path5"
         d="m 545.559,253.398 v 30"
         style="fill:none;stroke:#231f20;stroke-width:5;stroke-linecap:butt;stroke-linejoin:miter;stroke-miterlimit:3.25;stroke-dasharray:none;stroke-opacity:1"
         transform="matrix(0.13333333,0,0,-0.13333333,0,184.10667)" />
      <path
         id="path6"
         d="m 908.102,253.398 v 30"
         style="fill:none;stroke:#231f20;stroke-width:5;stroke-linecap:butt;stroke-linejoin:miter;stroke-miterlimit:3.25;stroke-dasharray:none;stroke-opacity:1"
         transform="matrix(0.13333333,0,0,-0.13333333,0,184.10667)" />
      <path
         id="path7"
         d="m 1270.63,253.398 v 30"
         style="fill:none;stroke:#231f20;stroke-width:5;stroke-linecap:butt;stroke-linejoin:miter;stroke-miterlimit:3.25;stroke-dasharray:none;stroke-opacity:1"
         transform="matrix(0.13333333,0,0,-0.13333333,0,184.10667)" />
      <path
         id="path8"
         d="m 1633.15,253.398 v 30"
         style="fill:none;stroke:#231f20;stroke-width:5;stroke-linecap:butt;stroke-linejoin:miter;stroke-miterlimit:3.25;stroke-dasharray:none;stroke-opacity:1"
         transform="matrix(0.13333333,0,0,-0.13333333,0,184.10667)" />
      <path
         id="path9"
         d="M 2.5,283.398 V 1380.81 m 0,-1097.412 h 1775.66"
         style="fill:none;stroke:#231f20;stroke-width:5;stroke-linecap:butt;stroke-linejoin:miter;stroke-miterlimit:3.25;stroke-dasharray:none;stroke-opacity:1"
         transform="matrix(0.13333333,0,0,-0.13333333,0,184.10667)" />
      <path
         id="path10"
         d="m 2158.64,547.281 0.55,0.457 0.51,0.5 3.21,2.871 4.26,3.875 8.57,7.883 17.05,16.317 37.03,37.929 34.56,38.535 33.88,40.684 36.75,47.227 34.28,46.718 37.2,53.055 36.5,53.949 34.04,51.215 36.91,55.534 34.45,50.8 33.8,47.75 36.65,48.12 34.2,40.2 0.57,0.66 0.58,0.62 1.18,1.26 2.3,2.49 4.65,4.93 9.26,9.51 1.15,1.14 1.17,1.15 2.31,2.27 4.64,4.48 9.27,8.54 0.58,0.51 0.55,0.49 1.14,1.02 2.27,2 4.57,3.89 9.08,7.4 2.29,1.74 2.27,1.76 4.55,3.36 9.1,6.32 0.53,0.36 0.53,0.35 1.07,0.71 2.11,1.34 4.24,2.66 8.49,4.89 1.06,0.6 1.05,0.54 2.14,1.13 4.23,2.13 8.47,3.91 0.59,0.24 0.57,0.23 1.17,0.49 2.3,0.93 4.59,1.72 0.59,0.22 0.57,0.19 1.15,0.41 2.28,0.76 4.63,1.43 2.3,0.65 2.29,0.6 0.58,0.14 0.57,0.16 3.44,0.82 0.58,0.11 0.57,0.14 1.16,0.25 2.3,0.43 0.6,0.12 0.57,0.11 3.44,0.57 0.53,0.08 0.54,0.08 1.07,0.14 0.55,0.08 0.53,0.05 1.08,0.15 0.5,0.07 0.55,0.06 1.08,0.11 1.09,0.1 1.06,0.12 0.56,0.02 0.52,0.06 0.54,0.06 0.52,0.02 0.55,0.03 0.55,0.06 1.07,0.05 0.54,0.03 0.52,0.02 1.09,0.06 h 0.52 l 0.55,0.02 0.51,0.03 h 1.1 l 0.52,0.02 h 3.77 l 0.53,-0.02 h 1.09 l 0.51,-0.03 0.55,-0.02 h 0.54 l 0.53,-0.03 1.1,-0.05 0.51,-0.03 0.55,-0.03 0.52,-0.02 0.54,-0.06 1.08,-0.05 1.09,-0.12 1.06,-0.08 0.55,-0.06 0.52,-0.04 1.07,-0.12 0.59,-0.05 0.59,-0.08 1.17,-0.14 1.15,-0.17 1.17,-0.13 0.57,-0.11 0.59,-0.08 1.17,-0.17 2.32,-0.4 1.15,-0.23 1.18,-0.21 2.32,-0.47 4.65,-1.1 0.6,-0.13 0.57,-0.16 1.15,-0.31 2.35,-0.62 4.65,-1.43 0.57,-0.16 0.58,-0.19 1.17,-0.38 2.32,-0.82 4.65,-1.72 1.15,-0.44 1.16,-0.47 2.26,-0.92 4.57,-2 1.16,-0.54 1.14,-0.53 2.29,-1.09 4.57,-2.3 0.58,-0.3 0.54,-0.3 1.15,-0.6 2.3,-1.26 4.55,-2.58 9.14,-5.62 0.55,-0.36 0.51,-0.33 3.2,-2.13 4.28,-2.93 8.54,-6.23 0.5,-0.41 0.55,-0.41 1.07,-0.82 2.13,-1.67 4.26,-3.39 8.52,-7.17 0.6,-0.49 0.57,-0.49 1.15,-1.01 2.29,-2.05 4.62,-4.19 9.28,-8.75 18.48,-18.89 34.51,-39.78 33.85,-43.72 36.72,-51.31 34.25,-50.31 37.15,-55.779 36.45,-54.91 34,-50.363 36.9,-52.934 34.43,-47.227 33.73,-43.886 36.62,-44.539 34.14,-38.586 37.05,-38.477 34.59,-32.812 33.91,-29.305 36.78,-28.742 34.31,-24.141 37.23,-23.398 36.5,-20.469 34.07,-16.953 36.95,-16.317 34.47,-13.511 33.79,-11.731 36.7,-11.23 34.24,-9.239 0.56,-0.14 0.61,-0.16 1.21,-0.313 2.38,-0.566 4.79,-1.203 9.53,-2.309 2.4,-0.551 2.39,-0.558 4.78,-1.102 0.59,-0.129 1.79,-0.41 2.39,-0.531 2.4,-0.547 0.57,-0.133 0.6,-0.141 0.61,-0.097 0.6,-0.141"
         style="fill:none;stroke:#4974b1;stroke-width:10;stroke-linecap:square;stroke-linejoin:miter;stroke-miterlimit:3.25;stroke-dasharray:none;stroke-opacity:1"
         transform="matrix(0.13333333,0,0,-0.13333333,0,184.10667)" />
      <path
         id="path11"
         d="m 2306.67,249.5 v 30"
         style="fill:none;stroke:#231f20;stroke-width:5;stroke-linecap:butt;stroke-linejoin:miter;stroke-miterlimit:3.25;stroke-dasharray:none;stroke-opacity:1"
         transform="matrix(0.13333333,0,0,-0.13333333,0,184.10667)" />
      <path
         id="path12"
         d="m 2676.77,249.5 v 30"
         style="fill:none;stroke:#231f20;stroke-width:5;stroke-linecap:butt;stroke-linejoin:miter;stroke-miterlimit:3.25;stroke-dasharray:none;stroke-opacity:1"
         transform="matrix(0.13333333,0,0,-0.13333333,0,184.10667)" />
      <path
         id="path13"
         d="m 3046.85,249.5 v 30"
         style="fill:none;stroke:#231f20;stroke-width:5;stroke-linecap:butt;stroke-linejoin:miter;stroke-miterlimit:3.25;stroke-dasharray:none;stroke-opacity:1"
         transform="matrix(0.13333333,0,0,-0.13333333,0,184.10667)" />
      <path
         id="path14"
         d="m 3416.95,249.5 v 30"
         style="fill:none;stroke:#231f20;stroke-width:5;stroke-linecap:butt;stroke-linejoin:miter;stroke-miterlimit:3.25;stroke-dasharray:none;stroke-opacity:1"
         transform="matrix(0.13333333,0,0,-0.13333333,0,184.10667)" />
      <path
         id="path15"
         d="m 2158.64,279.5 v 1063.8 m 0,-1063.8 h 1775.65"
         style="fill:none;stroke:#231f20;stroke-width:5;stroke-linecap:butt;stroke-linejoin:miter;stroke-miterlimit:3.25;stroke-dasharray:none;stroke-opacity:1"
         transform="matrix(0.13333333,0,0,-0.13333333,0,184.10667)" />
      <g
         id="g15"
         aria-label="400&#10;Y&#10;X + Y + Z&#10;800700600"
         transform="matrix(1.3333333,0,0,1.3333333,15.436,161.78533)">
        <path
           id="path16"
           d="m 4.1026875,-1.6056016 v -0.421875 H 3.2355 v -3.65625 H 2.8839375 c -0.9257813,1.21875 -1.8515625,2.5546875 -2.70703125,3.8320313 v 0.2460937 H 2.5206563 v 0.65625004 c 0,0.5859375 -0.035156,0.64453125 -0.8203126,0.703125 V -1.328125e-4 H 4.0089375 V -0.24622656 C 3.282375,-0.30482031 3.2355,-0.35169531 3.2355,-0.94935156 V -1.6056016 Z M 2.5206563,-2.0274766 H 0.751125 C 1.3370625,-3.0235703 1.923,-3.8790391 2.5089375,-4.6759141 h 0.011719 z m 4.1689453,-3.6914062 c -1.3476563,0 -1.8398438,1.6054687 -1.8398438,2.9179687 0,1.4179688 0.4804688,2.90625004 1.8398438,2.90625004 1.359375,0 1.828125,-1.59375004 1.828125,-2.91796874 0,-1.3828125 -0.46875,-2.90625 -1.828125,-2.90625 z m 0,0.3046875 c 0.8085937,0 1.03125,1.3242187 1.03125,2.6015625 0,1.265625 -0.2226563,2.61328124 -1.03125,2.61328124 -0.7734375,0 -1.0429688,-1.35937504 -1.0429688,-2.61328124 0,-1.2539063 0.2226563,-2.6015625 1.0429688,-2.6015625 z m 4.5996094,-0.3046875 c -1.3476563,0 -1.8398438,1.6054687 -1.8398438,2.9179687 0,1.4179688 0.4804687,2.90625004 1.8398438,2.90625004 1.359375,0 1.828125,-1.59375004 1.828125,-2.91796874 0,-1.3828125 -0.46875,-2.90625 -1.828125,-2.90625 z m 0,0.3046875 c 0.808594,0 1.03125,1.3242187 1.03125,2.6015625 0,1.265625 -0.222656,2.61328124 -1.03125,2.61328124 -0.773438,0 -1.042969,-1.35937504 -1.042969,-2.61328124 0,-1.2539063 0.222656,-2.6015625 1.042969,-2.6015625 z m 0,0"
           style="fill:#231f20;fill-opacity:1;fill-rule:nonzero;stroke:none" />
        <path
           id="path17"
           d="m 66.343898,-107.18568 h -1.945312 l -0.05859,0.23438 0.269531,0.0352 c 0.339844,0.0469 0.398438,0.11719 0.210938,0.4336 -0.363281,0.60937 -1.019531,1.52343 -1.453125,2.12109 -0.246094,-0.62109 -0.644531,-1.66406 -0.808594,-2.16797 -0.09375,-0.26953 -0.08203,-0.33984 0.234375,-0.38672 l 0.316406,-0.0352 0.07031,-0.23438 H 61.08218 l -0.04687,0.23438 c 0.5625,0.0703 0.621093,0.10546 0.820312,0.63281 0.363281,0.9375 0.585938,1.53515 0.808594,2.10937 0.07031,0.21094 0.08203,0.33985 0.04687,0.52735 l -0.246094,1.21875 c -0.152344,0.77343 -0.222656,0.82031 -0.949219,0.86718 l -0.05859,0.2461 h 2.402343 l 0.04687,-0.2461 c -0.796875,-0.0703 -0.855468,-0.10546 -0.703125,-0.86718 l 0.246094,-1.27735 c 0.03516,-0.19922 0.08203,-0.32812 0.222656,-0.5039 0.585938,-0.84375 1.066407,-1.51172 1.476563,-2.02735 0.457031,-0.5625 0.550781,-0.62109 1.125,-0.67968 z m -50.956054,23.015625 h -1.945313 l -0.05859,0.234375 0.257812,0.03516 c 0.304688,0.04687 0.339844,0.117187 0.152344,0.398437 -0.386719,0.550781 -0.820313,1.089844 -1.242188,1.617188 -0.328125,-0.703125 -0.585937,-1.230469 -0.738281,-1.664063 -0.09375,-0.257812 -0.04687,-0.292969 0.246094,-0.351562 l 0.234375,-0.03516 0.05859,-0.234375 H 10.26675 l -0.05859,0.234375 c 0.597657,0.07031 0.679688,0.105469 0.949219,0.703125 l 0.867188,1.957032 c -0.773438,0.972656 -1.453125,1.792968 -1.757813,2.109375 -0.4335937,0.46875 -0.5742187,0.539062 -1.1484375,0.585937 l -0.058594,0.246094 h 2.0390625 l 0.05859,-0.246094 -0.222656,-0.02344 c -0.375,-0.05859 -0.386719,-0.164063 -0.210938,-0.445313 0.363282,-0.539062 0.855469,-1.160156 1.453125,-1.921875 0.503907,1.136719 0.714844,1.628906 0.832032,1.921875 0.128906,0.316406 0.08203,0.386719 -0.246094,0.433594 l -0.28125,0.03516 -0.04687,0.246094 h 2.261719 l 0.05859,-0.246094 c -0.691406,-0.05859 -0.761718,-0.105469 -1.066406,-0.785156 l -0.996094,-2.214844 c 0.785157,-0.960937 1.183594,-1.441406 1.453125,-1.746094 0.480469,-0.515625 0.574219,-0.539062 1.195313,-0.609375 z m 0,0"
           style="fill:#231f20;fill-opacity:1;fill-rule:nonzero;stroke:none" />
        <path
           id="path18"
           d="m 18.065578,-79.24818 v -0.199218 h -0.832031 v -0.832032 h -0.234375 v 0.832032 h -0.832031 v 0.199218 h 0.832031 v 0.914063 h 0.234375 v -0.914063 z m 0,0"
           style="fill:#231f20;fill-opacity:1;fill-rule:nonzero;stroke:none" />
        <path
           id="path19"
           d="m 28.260891,-84.170055 h -1.945313 l -0.05859,0.234375 0.269532,0.03516 c 0.339843,0.04687 0.398437,0.117187 0.210937,0.433593 -0.363281,0.609375 -1.019531,1.523438 -1.453125,2.121094 -0.246094,-0.621094 -0.644531,-1.664062 -0.808594,-2.167969 -0.09375,-0.269531 -0.08203,-0.339843 0.234375,-0.386718 l 0.316407,-0.03516 0.07031,-0.234375 h -2.097656 l -0.04687,0.234375 c 0.5625,0.07031 0.621094,0.105469 0.820312,0.632813 0.363282,0.9375 0.585938,1.535156 0.808594,2.109375 0.07031,0.210937 0.08203,0.339844 0.04687,0.527344 l -0.246094,1.21875 c -0.152343,0.773437 -0.222656,0.820312 -0.949218,0.867187 l -0.05859,0.246094 h 2.402344 l 0.04687,-0.246094 c -0.796875,-0.07031 -0.855469,-0.105469 -0.703125,-0.867187 l 0.246093,-1.277344 c 0.03516,-0.199219 0.08203,-0.328125 0.222657,-0.503906 0.585937,-0.84375 1.066406,-1.511719 1.476562,-2.027344 0.457031,-0.5625 0.550781,-0.621094 1.125,-0.679688 z m 0,0"
           style="fill:#231f20;fill-opacity:1;fill-rule:nonzero;stroke:none" />
        <path
           id="path20"
           d="m 30.601711,-79.24818 v -0.199218 H 29.76968 v -0.832032 h -0.234375 v 0.832032 h -0.832032 v 0.199218 h 0.832032 v 0.914063 h 0.234375 v -0.914063 z m 0,0"
           style="fill:#231f20;fill-opacity:1;fill-rule:nonzero;stroke:none" />
        <path
           id="path21"
           d="m 40.117336,-84.170055 h -3.386719 c -0.257812,0 -0.339844,-0.02344 -0.457031,-0.234375 h -0.1875 c -0.07031,0.46875 -0.210938,1.125 -0.363281,1.675782 l 0.257812,0.03516 c 0.175781,-0.46875 0.328125,-0.703125 0.457031,-0.855469 0.175782,-0.234375 0.339844,-0.328125 1.230469,-0.328125 h 1.429688 c -1.488282,1.839844 -2.964844,3.621094 -4.453125,5.402344 l 0.04687,0.140625 h 4.488281 c 0.152344,-0.304688 0.457031,-1.183594 0.539062,-1.476563 L 39.4728,-79.916144 c -0.234375,0.46875 -0.410157,0.785156 -0.65625,0.996093 -0.292969,0.246094 -0.796875,0.28125 -1.652344,0.28125 -0.597656,0 -1.054688,-0.02344 -1.40625,-0.05859 1.476562,-1.804688 2.917969,-3.574219 4.417969,-5.355469 z m 0,0"
           style="fill:#231f20;fill-opacity:1;fill-rule:nonzero;stroke:none" />
        <path
           id="path22"
           d="m 147.25308,-5.7188828 c -0.96094,0 -1.59375,0.7265625 -1.59375,1.4765625 0,0.6328125 0.38672,1.0664062 0.97265,1.3945312 -0.30468,0.1992188 -0.65625,0.4453125 -0.79687,0.5742188 -0.19922,0.1992187 -0.39844,0.4453125 -0.39844,0.8554687 0,0.97265629 0.76172,1.52343754 1.72266,1.52343754 0.76172,0 1.78125,-0.57421875 1.78125,-1.62890624 0,-0.7851563 -0.5625,-1.2070313 -1.1836,-1.5585938 0.39844,-0.28125 0.64454,-0.5039062 0.70313,-0.5859375 0.17578,-0.1875 0.26953,-0.4570312 0.26953,-0.7148437 0,-0.7265625 -0.62109,-1.3359375 -1.47656,-1.3359375 z m -0.082,0.2929687 c 0.41015,0 0.8789,0.328125 0.8789,1.0898438 0,0.5390625 -0.24609,0.8671875 -0.55078,1.1132812 -0.63281,-0.3164062 -1.17187,-0.609375 -1.17187,-1.2773437 0,-0.4570313 0.30468,-0.9257813 0.84375,-0.9257813 z m 0.082,5.25000004 c -0.57422,0 -1.10156,-0.46875 -1.10156,-1.28906254 0,-0.4921875 0.30468,-0.9492187 0.73828,-1.2304687 0.6914,0.3515625 1.33593,0.7382812 1.33593,1.40625 0,0.69140624 -0.42187,1.11328124 -0.97265,1.11328124 z m 4.43262,-5.54296874 c -1.34766,0 -1.83985,1.6054687 -1.83985,2.9179687 0,1.4179688 0.48047,2.90625004 1.83985,2.90625004 1.35937,0 1.82812,-1.59375004 1.82812,-2.91796874 0,-1.3828125 -0.46875,-2.90625 -1.82812,-2.90625 z m 0,0.3046875 c 0.80859,0 1.03125,1.3242187 1.03125,2.6015625 0,1.265625 -0.22266,2.61328124 -1.03125,2.61328124 -0.77344,0 -1.04297,-1.35937504 -1.04297,-2.61328124 0,-1.2539063 0.22265,-2.6015625 1.04297,-2.6015625 z m 4.5996,-0.3046875 c -1.34765,0 -1.83984,1.6054687 -1.83984,2.9179687 0,1.4179688 0.48047,2.90625004 1.83984,2.90625004 1.35938,0 1.82813,-1.59375004 1.82813,-2.91796874 0,-1.3828125 -0.46875,-2.90625 -1.82813,-2.90625 z m 0,0.3046875 c 0.8086,0 1.03125,1.3242187 1.03125,2.6015625 0,1.265625 -0.22265,2.61328124 -1.03125,2.61328124 -0.77343,0 -1.04296,-1.35937504 -1.04296,-2.61328124 0,-1.2539063 0.22265,-2.6015625 1.04296,-2.6015625 z m -43.35058,-0.1875 h -3.43359 c -0.0352,0.3867187 -0.082,0.8320312 -0.16407,1.3242187 h 0.25782 c 0.22265,-0.5859375 0.26953,-0.6679687 0.86718,-0.6679687 h 1.94532 c -0.71485,1.5585937 -1.72266,3.421875 -2.67188,4.95703124 l 0.0586,0.09375 0.66797,-0.08203125 c 0.86719,-1.86328129 1.69922,-3.69140629 2.54297,-5.51953129 z m 2.3584,-0.1171875 c -1.34766,0 -1.83985,1.6054687 -1.83985,2.9179687 0,1.4179688 0.48047,2.90625004 1.83985,2.90625004 1.35937,0 1.82812,-1.59375004 1.82812,-2.91796874 0,-1.3828125 -0.46875,-2.90625 -1.82812,-2.90625 z m 0,0.3046875 c 0.80859,0 1.03125,1.3242187 1.03125,2.6015625 0,1.265625 -0.22266,2.61328124 -1.03125,2.61328124 -0.77344,0 -1.04297,-1.35937504 -1.04297,-2.61328124 0,-1.2539063 0.22265,-2.6015625 1.04297,-2.6015625 z m 4.59961,-0.3046875 c -1.34766,0 -1.83985,1.6054687 -1.83985,2.9179687 0,1.4179688 0.48047,2.90625004 1.83985,2.90625004 1.35937,0 1.82812,-1.59375004 1.82812,-2.91796874 0,-1.3828125 -0.46875,-2.90625 -1.82812,-2.90625 z m 0,0.3046875 c 0.80859,0 1.03125,1.3242187 1.03125,2.6015625 0,1.265625 -0.22266,2.61328124 -1.03125,2.61328124 -0.77344,0 -1.04297,-1.35937504 -1.04297,-2.61328124 0,-1.2539063 0.22265,-2.6015625 1.04297,-2.6015625 z m -46.136722,2.3320312 c 0.269531,-1.2539062 1.113281,-1.828125 1.664062,-2.0859375 0.328125,-0.1523437 0.679688,-0.2578125 0.972657,-0.3164062 l -0.05859,-0.28125 c -0.363281,0.058594 -0.796875,0.1640625 -1.148438,0.28125 -0.960937,0.3515625 -2.332031,1.3710937 -2.332031,3.3398437 0,1.38281254 0.796875,2.25000004 1.851563,2.25000004 1.078125,0 1.839843,-0.90234375 1.839843,-1.98046874 0,-0.9257813 -0.65625,-1.6640625 -1.617187,-1.6640625 -0.175781,0 -0.363281,0.070312 -0.5625,0.1523437 z m 0.820312,0.046875 c 0.820313,0 1.195313,0.7382813 1.195313,1.4882813 0,0.59765624 -0.210938,1.34765624 -0.914063,1.34765624 -0.738281,0 -1.195312,-0.87890624 -1.195312,-1.95703124 0,-0.234375 0.01172,-0.4570313 0.04687,-0.6210938 0.222656,-0.1171875 0.527344,-0.2578125 0.867187,-0.2578125 z m 4.59961,-2.6835937 c -1.347657,0 -1.839844,1.6054687 -1.839844,2.9179687 0,1.4179688 0.480469,2.90625004 1.839844,2.90625004 1.359375,0 1.828125,-1.59375004 1.828125,-2.91796874 0,-1.3828125 -0.46875,-2.90625 -1.828125,-2.90625 z m 0,0.3046875 c 0.808593,0 1.03125,1.3242187 1.03125,2.6015625 0,1.265625 -0.222657,2.61328124 -1.03125,2.61328124 -0.773438,0 -1.042969,-1.35937504 -1.042969,-2.61328124 0,-1.2539063 0.222656,-2.6015625 1.042969,-2.6015625 z m 4.599609,-0.3046875 c -1.347656,0 -1.839844,1.6054687 -1.839844,2.9179687 0,1.4179688 0.480469,2.90625004 1.839844,2.90625004 1.359375,0 1.828125,-1.59375004 1.828125,-2.91796874 0,-1.3828125 -0.46875,-2.90625 -1.828125,-2.90625 z m 0,0.3046875 c 0.808594,0 1.03125,1.3242187 1.03125,2.6015625 0,1.265625 -0.222656,2.61328124 -1.03125,2.61328124 -0.773437,0 -1.042969,-1.35937504 -1.042969,-2.61328124 0,-1.2539063 0.222657,-2.6015625 1.042969,-2.6015625 z m 0,0"
           style="fill:#231f20;fill-opacity:1;fill-rule:nonzero;stroke:none" />
      </g>
      <path
         id="path23"
         d="m 2.6025547,1.2747433 c -0.8554688,-0.73332191 -1.359375,-2.12099253 -1.359375,-3.6102 0,-1.4892075 0.4921875,-2.88816 1.359375,-3.6102 L 2.4384922,-6.1487305 c -1.2539063,0.8687044 -1.82812501,2.2450931 -1.82812501,3.8019919 0,1.56818062 0.57421871,2.96713312 1.82812501,3.8132737 z M 6.349625,-0.33856486 6.267594,-0.56420236 c -0.09375,0.0564094 -0.2109375,0.10153688 -0.3164063,0.10153688 -0.1523437,0 -0.3046875,-0.1353825 -0.3046875,-0.53024813 V -2.5949399 c 0,-0.451275 -0.082031,-0.812295 -0.3867187,-1.0604962 C 5.0722813,-3.8133824 4.80275,-3.8923555 4.5449375,-3.8923555 4.05275,-3.7908186 3.49025,-3.4523624 3.2441563,-3.2831342 3.0800938,-3.1590336 2.974625,-3.0687786 2.974625,-2.9333961 c 0,0.1917919 0.2226563,0.3723019 0.375,0.3723019 0.1289063,0 0.2226563,-0.067691 0.2578125,-0.2030738 0.070312,-0.270765 0.140625,-0.4625569 0.2578125,-0.5753756 0.082031,-0.1015369 0.2109375,-0.1692281 0.3867188,-0.1692281 0.4335937,0 0.7265625,0.3497381 0.7265625,0.9815231 v 0.1579462 c -0.1875,0.1466644 -0.8203125,0.3835838 -1.3359375,0.5528119 -0.4804688,0.1692281 -0.703125,0.4399931 -0.703125,0.86870439 0,0.54153 0.421875,1.04921438 1.0429687,1.04921438 0.2578125,0 0.6679688,-0.3158925 1.0195313,-0.55281188 0.035156,0.14666438 0.09375,0.270765 0.1992187,0.39486563 0.1054688,0.07897312 0.28125,0.15794625 0.4101563,0.15794625 z M 4.9785313,-0.73343048 c -0.1640625,0.15794625 -0.46875,0.30461062 -0.6914063,0.3158925 -0.2695312,0 -0.609375,-0.21435563 -0.609375,-0.66563062 0,-0.3158925 0.1875,-0.4738388 0.5273438,-0.631785 0.1757812,-0.090255 0.5976562,-0.270765 0.7734375,-0.36102 z M 6.5605625,-5.9456567 c 0.8671875,0.7107581 1.3710938,2.1209925 1.3710938,3.6102 0,1.48920747 -0.4804688,2.87687809 -1.3710938,3.6102 L 6.724625,1.4665351 C 8.0136875,0.58654889 8.55275,-0.77855798 8.55275,-2.3354567 c 0,-1.5681807 -0.5390625,-2.9445694 -1.828125,-3.8132738 z m 211.7080075,7.2204 c -0.85547,-0.73332191 -1.35937,-2.12099253 -1.35937,-3.6102 0,-1.4892075 0.49218,-2.88816 1.35937,-3.6102 l -0.16406,-0.2030738 c -1.25391,0.8687044 -1.82813,2.2450931 -1.82813,3.8019919 0,1.56818062 0.57422,2.96713312 1.82813,3.8132737 z m 1.93066,-4.7722332 v -2.6738043 c -0.3164,0.1128187 -0.84375,0.2482012 -1.2539,0.3046106 v 0.2030737 c 0.55078,0.045127 0.57422,0.1015369 0.57422,0.6430669 v 4.81736064 c 0.48047,0.2256375 0.91406,0.30461063 1.27734,0.30461063 1.16016,0 2.16797,-0.90255 2.16797,-2.17740187 0,-1.0153688 -0.77344,-1.8163819 -1.71094,-1.8163819 -0.0937,0 -0.21094,0.022564 -0.35156,0.090255 z m 0,0.2594832 c 0.16407,-0.1015369 0.4336,-0.1692282 0.67969,-0.1692282 0.71485,0 1.32422,0.5753757 1.32422,1.5568988 0,1.01536874 -0.45703,1.62458999 -1.17187,1.62458999 -0.46875,-0.0112819 -0.72657,-0.3158925 -0.77344,-0.48512062 -0.0352,-0.0789731 -0.0586,-0.16922813 -0.0586,-0.29332877 z m 3.06153,-2.70765 c 0.86719,0.7107581 1.37109,2.1209925 1.37109,3.6102 0,1.48920747 -0.48047,2.87687809 -1.37109,3.6102 l 0.16406,0.1917918 c 1.28906,-0.87998621 1.82813,-2.24509308 1.82813,-3.8019918 0,-1.5681807 -0.53907,-2.9445694 -1.82813,-3.8132738 z m 0,0"
         style="fill:#231f20;fill-opacity:1;fill-rule:nonzero;stroke:none"
         aria-label="(a)(b)"
         transform="matrix(1.3333333,0,0,1.3849648,112.22133,179.78531)" />
      <path
         id="path24"
         d="m 4.1029453,-1.6056016 v -0.421875 H 3.2357578 v -3.65625 H 2.8841953 c -0.9257812,1.21875 -1.8515625,2.5546875 -2.70703124,3.8320313 v 0.2460937 H 2.5209141 v 0.65625004 c 0,0.5859375 -0.035156,0.64453125 -0.8203125,0.703125 V -1.328125e-4 H 4.0091953 V -0.24622656 C 3.2826328,-0.30482031 3.2357578,-0.35169531 3.2357578,-0.94935156 V -1.6056016 Z M 2.5209141,-2.0274766 H 0.75138281 C 1.3373203,-3.0235703 1.9232578,-3.8790391 2.5091953,-4.6759141 h 0.011719 z m 4.1689453,-3.6914062 c -1.3476563,0 -1.8398438,1.6054687 -1.8398438,2.9179687 0,1.4179688 0.4804688,2.90625004 1.8398438,2.90625004 1.359375,0 1.828125,-1.59375004 1.828125,-2.91796874 0,-1.3828125 -0.46875,-2.90625 -1.828125,-2.90625 z m 0,0.3046875 c 0.8085937,0 1.03125,1.3242187 1.03125,2.6015625 0,1.265625 -0.2226563,2.61328124 -1.03125,2.61328124 -0.7734375,0 -1.0429688,-1.35937504 -1.0429688,-2.61328124 0,-1.2539063 0.2226563,-2.6015625 1.0429688,-2.6015625 z m 4.5996096,-0.3046875 c -1.3476565,0 -1.839844,1.6054687 -1.839844,2.9179687 0,1.4179688 0.4804688,2.90625004 1.839844,2.90625004 1.359375,0 1.828125,-1.59375004 1.828125,-2.91796874 0,-1.3828125 -0.46875,-2.90625 -1.828125,-2.90625 z m 0,0.3046875 c 0.808594,0 1.03125,1.3242187 1.03125,2.6015625 0,1.265625 -0.222656,2.61328124 -1.03125,2.61328124 -0.773438,0 -1.042969,-1.35937504 -1.042969,-2.61328124 0,-1.2539063 0.222656,-2.6015625 1.042969,-2.6015625 z m 27.140625,0.46875 h 2.097656 l 0.234375,-0.5859375 -0.05859,-0.070312 h -2.566406 l -0.351562,2.7421875 c 0.210937,-0.082031 0.550781,-0.1875 0.925781,-0.1875 0.984375,0 1.464844,0.5742187 1.464844,1.359375 0,0.6796875 -0.375,1.33593749 -1.136719,1.33593749 -0.550781,0 -0.914063,-0.29296875 -1.113281,-0.45703125 -0.08203,-0.0703125 -0.152344,-0.0585938 -0.234375,0 -0.105469,0.09375 -0.1875,0.2109375 -0.1875,0.29296875 -0.02344,0.10546875 0.02344,0.1875 0.140625,0.3046875 0.128906,0.12890625 0.515625,0.31640625 0.925781,0.31640625 0.480469,-0.01171875 1.078125,-0.24609375 1.570312,-0.6328125 0.550782,-0.45703125 0.796875,-0.96093754 0.796875,-1.51171874 0,-0.7382813 -0.585937,-1.5117188 -1.734375,-1.5117188 -0.246093,0 -0.667968,0.140625 -1.007812,0.2695313 z m 5.217773,-0.7734375 c -1.347656,0 -1.839844,1.6054687 -1.839844,2.9179687 0,1.4179688 0.480469,2.90625004 1.839844,2.90625004 1.359375,0 1.828125,-1.59375004 1.828125,-2.91796874 0,-1.3828125 -0.46875,-2.90625 -1.828125,-2.90625 z m 0,0.3046875 c 0.808594,0 1.03125,1.3242187 1.03125,2.6015625 0,1.265625 -0.222656,2.61328124 -1.03125,2.61328124 -0.773437,0 -1.042969,-1.35937504 -1.042969,-2.61328124 0,-1.2539063 0.222657,-2.6015625 1.042969,-2.6015625 z m 4.59668,-0.3046875 c -1.347656,0 -1.839844,1.6054687 -1.839844,2.9179687 0,1.4179688 0.480469,2.90625004 1.839844,2.90625004 1.359375,0 1.828125,-1.59375004 1.828125,-2.91796874 0,-1.3828125 -0.46875,-2.90625 -1.828125,-2.90625 z m 0,0.3046875 c 0.808594,0 1.03125,1.3242187 1.03125,2.6015625 0,1.265625 -0.222656,2.61328124 -1.03125,2.61328124 -0.773438,0 -1.042969,-1.35937504 -1.042969,-2.61328124 0,-1.2539063 0.222656,-2.6015625 1.042969,-2.6015625 z m -222.931637,0.46875 h 2.09765 l 0.23438,-0.5859375 -0.0586,-0.070312 h -2.5664 l -0.35156,2.7421875 c 0.21093,-0.082031 0.55078,-0.1875 0.92578,-0.1875 0.98437,0 1.46484,0.5742187 1.46484,1.359375 0,0.6796875 -0.375,1.33593749 -1.13672,1.33593749 -0.55078,0 -0.91406,-0.29296875 -1.11328,-0.45703125 -0.082,-0.0703125 -0.15234,-0.0585938 -0.23437,0 -0.10547,0.09375 -0.1875,0.2109375 -0.1875,0.29296875 -0.0234,0.10546875 0.0234,0.1875 0.14062,0.3046875 0.12891,0.12890625 0.51563,0.31640625 0.92578,0.31640625 0.48047,-0.01171875 1.07813,-0.24609375 1.57031,-0.6328125 0.55079,-0.45703125 0.79688,-0.96093754 0.79688,-1.51171874 0,-0.7382813 -0.58594,-1.5117188 -1.73438,-1.5117188 -0.24609,0 -0.66796,0.140625 -1.00781,0.2695313 z m 5.21484,-0.7734375 c -1.34766,0 -1.83984,1.6054687 -1.83984,2.9179687 0,1.4179688 0.48047,2.90625004 1.83984,2.90625004 1.35938,0 1.82813,-1.59375004 1.82813,-2.91796874 0,-1.3828125 -0.46875,-2.90625 -1.82813,-2.90625 z m 0,0.3046875 c 0.80859,0 1.03125,1.3242187 1.03125,2.6015625 0,1.265625 -0.22266,2.61328124 -1.03125,2.61328124 -0.77344,0 -1.04297,-1.35937504 -1.04297,-2.61328124 0,-1.2539063 0.22266,-2.6015625 1.04297,-2.6015625 z m 4.59961,-0.3046875 c -1.34766,0 -1.83984,1.6054687 -1.83984,2.9179687 0,1.4179688 0.48046,2.90625004 1.83984,2.90625004 1.35937,0 1.82812,-1.59375004 1.82812,-2.91796874 0,-1.3828125 -0.46875,-2.90625 -1.82812,-2.90625 z m 0,0.3046875 c 0.80859,0 1.03125,1.3242187 1.03125,2.6015625 0,1.265625 -0.22266,2.61328124 -1.03125,2.61328124 -0.77344,0 -1.04297,-1.35937504 -1.04297,-2.61328124 0,-1.2539063 0.22266,-2.6015625 1.04297,-2.6015625 z m 280.07519,-0.1875 h -3.43359 c -0.0352,0.3867187 -0.082,0.8320312 -0.16406,1.3242187 h 0.25781 c 0.22266,-0.5859375 0.26953,-0.6679687 0.86719,-0.6679687 h 1.94531 c -0.71484,1.5585937 -1.72266,3.421875 -2.67187,4.95703124 l 0.0586,0.09375 0.66797,-0.08203125 c 0.86719,-1.86328129 1.69922,-3.69140629 2.54297,-5.51953129 z m 2.3584,-0.1171875 c -1.34765,0 -1.83984,1.6054687 -1.83984,2.9179687 0,1.4179688 0.48047,2.90625004 1.83984,2.90625004 1.35938,0 1.82813,-1.59375004 1.82813,-2.91796874 0,-1.3828125 -0.46875,-2.90625 -1.82813,-2.90625 z m 0,0.3046875 c 0.8086,0 1.03125,1.3242187 1.03125,2.6015625 0,1.265625 -0.22265,2.61328124 -1.03125,2.61328124 -0.77343,0 -1.04297,-1.35937504 -1.04297,-2.61328124 0,-1.2539063 0.22266,-2.6015625 1.04297,-2.6015625 z m 4.59961,-0.3046875 c -1.34765,0 -1.83984,1.6054687 -1.83984,2.9179687 0,1.4179688 0.48047,2.90625004 1.83984,2.90625004 1.35938,0 1.82813,-1.59375004 1.82813,-2.91796874 0,-1.3828125 -0.46875,-2.90625 -1.82813,-2.90625 z m 0,0.3046875 c 0.8086,0 1.03125,1.3242187 1.03125,2.6015625 0,1.265625 -0.22265,2.61328124 -1.03125,2.61328124 -0.77343,0 -1.04297,-1.35937504 -1.04297,-2.61328124 0,-1.2539063 0.22266,-2.6015625 1.04297,-2.6015625 z m -46.892576,2.3320312 c 0.269532,-1.2539062 1.113282,-1.828125 1.664063,-2.0859375 0.328125,-0.1523437 0.679687,-0.2578125 0.972656,-0.3164062 l -0.05859,-0.28125 c -0.363281,0.058594 -0.796875,0.1640625 -1.148437,0.28125 -0.960938,0.3515625 -2.332031,1.3710937 -2.332031,3.3398437 0,1.38281254 0.796875,2.25000004 1.851562,2.25000004 1.078125,0 1.839844,-0.90234375 1.839844,-1.98046874 0,-0.9257813 -0.65625,-1.6640625 -1.617188,-1.6640625 -0.175781,0 -0.363281,0.070312 -0.5625,0.1523437 z m 0.820313,0.046875 c 0.820312,0 1.195312,0.7382813 1.195312,1.4882813 0,0.59765624 -0.210937,1.34765624 -0.914062,1.34765624 -0.738281,0 -1.195313,-0.87890624 -1.195313,-1.95703124 0,-0.234375 0.01172,-0.4570313 0.04687,-0.6210938 0.222657,-0.1171875 0.527344,-0.2578125 0.867188,-0.2578125 z m 4.599609,-2.6835937 c -1.347656,0 -1.839843,1.6054687 -1.839843,2.9179687 0,1.4179688 0.480468,2.90625004 1.839843,2.90625004 1.359375,0 1.828125,-1.59375004 1.828125,-2.91796874 0,-1.3828125 -0.46875,-2.90625 -1.828125,-2.90625 z m 0,0.3046875 c 0.808594,0 1.03125,1.3242187 1.03125,2.6015625 0,1.265625 -0.222656,2.61328124 -1.03125,2.61328124 -0.773437,0 -1.042968,-1.35937504 -1.042968,-2.61328124 0,-1.2539063 0.222656,-2.6015625 1.042968,-2.6015625 z m 4.59961,-0.3046875 c -1.347657,0 -1.839844,1.6054687 -1.839844,2.9179687 0,1.4179688 0.480469,2.90625004 1.839844,2.90625004 1.359375,0 1.828125,-1.59375004 1.828125,-2.91796874 0,-1.3828125 -0.46875,-2.90625 -1.828125,-2.90625 z m 0,0.3046875 c 0.808593,0 1.03125,1.3242187 1.03125,2.6015625 0,1.265625 -0.222657,2.61328124 -1.03125,2.61328124 -0.773438,0 -1.042969,-1.35937504 -1.042969,-2.61328124 0,-1.2539063 0.222656,-2.6015625 1.042969,-2.6015625 z m 0,0"
         style="fill:#231f20;fill-opacity:1;fill-rule:nonzero;stroke:none"
         aria-label="400500500700600"
         transform="matrix(1.3333333,0,0,1.3333333,298.588,161.78533)" />
    </g>
  </g>
</svg>
