<?xml version="1.0" encoding="UTF-8" standalone="no"?>
<!-- Created with Inkscape (http://www.inkscape.org/) -->

<svg
   version="1.1"
   id="svg1"
   width="192.42667"
   height="192.42667"
   viewBox="0 0 192.42667 192.42667"
   sodipodi:docname="pha05f23.eps"
   xmlns:inkscape="http://www.inkscape.org/namespaces/inkscape"
   xmlns:sodipodi="http://sodipodi.sourceforge.net/DTD/sodipodi-0.dtd"
   xmlns="http://www.w3.org/2000/svg"
   xmlns:svg="http://www.w3.org/2000/svg">
  <defs
     id="defs1" />
  <sodipodi:namedview
     id="namedview1"
     pagecolor="#ffffff"
     bordercolor="#000000"
     borderopacity="0.25"
     inkscape:showpageshadow="2"
     inkscape:pageopacity="0.0"
     inkscape:pagecheckerboard="0"
     inkscape:deskcolor="#d1d1d1">
    <inkscape:page
       x="0"
       y="0"
       inkscape:label="1"
       id="page1"
       width="192.42667"
       height="192.42667"
       margin="0"
       bleed="0" />
  </sodipodi:namedview>
  <g
     id="g1"
     inkscape:groupmode="layer"
     inkscape:label="1">
    <g
       id="group-R5">
      <path
         id="path2"
         d="M 1440.73,2.5 H 2.5 v 1438.16 h 1438.23 z"
         style="fill:none;stroke:#231f20;stroke-width:5;stroke-linecap:butt;stroke-linejoin:miter;stroke-miterlimit:10;stroke-dasharray:none;stroke-opacity:1"
         transform="matrix(0.13333333,0,0,-0.13333333,0,192.42667)" />
      <path
         id="path3"
         d="m 747.449,721.578 c 0,-14.258 -11.558,-25.832 -25.832,-25.832 -14.269,0 -25.836,11.574 -25.836,25.832 0,14.277 11.567,25.84 25.836,25.84 14.274,0 25.832,-11.563 25.832,-25.84"
         style="fill:#231f20;fill-opacity:1;fill-rule:nonzero;stroke:none"
         transform="matrix(0.13333333,0,0,-0.13333333,0,192.42667)" />
      <path
         id="path4"
         d="m 1266.8,1286.09 c 0,-14.27 -11.57,-25.84 -25.83,-25.84 -14.28,0 -25.84,11.57 -25.84,25.84 0,14.28 11.56,25.84 25.84,25.84 14.26,0 25.83,-11.56 25.83,-25.84 z"
         style="fill:none;stroke:#231f20;stroke-width:5;stroke-linecap:butt;stroke-linejoin:miter;stroke-miterlimit:10;stroke-dasharray:none;stroke-opacity:1"
         transform="matrix(0.13333333,0,0,-0.13333333,0,192.42667)" />
      <path
         id="path5"
         d="M 1.46484,722.906 H 1439.82"
         style="fill:none;stroke:#231f20;stroke-width:5;stroke-linecap:butt;stroke-linejoin:miter;stroke-miterlimit:10;stroke-dasharray:none;stroke-opacity:1"
         transform="matrix(0.13333333,0,0,-0.13333333,0,192.42667)" />
      <path
         id="path6"
         d="M 721.176,1440.84 V 2.98047"
         style="fill:none;stroke:#231f20;stroke-width:5;stroke-linecap:butt;stroke-linejoin:miter;stroke-miterlimit:10;stroke-dasharray:none;stroke-opacity:1"
         transform="matrix(0.13333333,0,0,-0.13333333,0,192.42667)" />
      <path
         id="path7"
         d="m 932.656,873.48 c 0,-14.265 -11.562,-25.828 -25.84,-25.828 -14.265,0 -25.832,11.563 -25.832,25.828 0,14.27 11.567,25.84 25.832,25.84 14.278,0 25.84,-11.57 25.84,-25.84 z"
         style="fill:none;stroke:#231f20;stroke-width:5;stroke-linecap:butt;stroke-linejoin:miter;stroke-miterlimit:10;stroke-dasharray:none;stroke-opacity:1"
         transform="matrix(0.13333333,0,0,-0.13333333,0,192.42667)" />
      <path
         id="path8"
         d="m 214.758,125.871 c 0,-14.269 -11.574,-25.84 -25.844,-25.84 -14.266,0 -25.84,11.571 -25.84,25.84 0,14.258 11.574,25.828 25.84,25.828 14.27,0 25.844,-11.57 25.844,-25.828 z"
         style="fill:none;stroke:#231f20;stroke-width:5;stroke-linecap:butt;stroke-linejoin:miter;stroke-miterlimit:10;stroke-dasharray:none;stroke-opacity:1"
         transform="matrix(0.13333333,0,0,-0.13333333,0,192.42667)" />
      <path
         id="path9"
         d="m 211.438,1341.32 c 0,-14.25 -11.575,-25.83 -25.84,-25.83 -14.27,0 -25.84,11.58 -25.84,25.83 0,14.28 11.57,25.84 25.84,25.84 14.265,0 25.84,-11.56 25.84,-25.84 z"
         style="fill:none;stroke:#231f20;stroke-width:5;stroke-linecap:butt;stroke-linejoin:miter;stroke-miterlimit:10;stroke-dasharray:none;stroke-opacity:1"
         transform="matrix(0.13333333,0,0,-0.13333333,0,192.42667)" />
      <path
         id="path10"
         d="m 533.102,1304.78 c 0,-14.26 -11.571,-25.83 -25.836,-25.83 -14.274,0 -25.84,11.57 -25.84,25.83 0,14.28 11.566,25.84 25.84,25.84 14.265,0 25.836,-11.56 25.836,-25.84 z"
         style="fill:none;stroke:#231f20;stroke-width:5;stroke-linecap:butt;stroke-linejoin:miter;stroke-miterlimit:10;stroke-dasharray:none;stroke-opacity:1"
         transform="matrix(0.13333333,0,0,-0.13333333,0,192.42667)" />
      <path
         id="path11"
         d="m 212.168,969.613 c 0,-14.265 -11.57,-25.828 -25.84,-25.828 -14.265,0 -25.84,11.563 -25.84,25.828 0,14.27 11.575,25.84 25.84,25.84 14.27,0 25.84,-11.57 25.84,-25.84 z"
         style="fill:none;stroke:#231f20;stroke-width:5;stroke-linecap:butt;stroke-linejoin:miter;stroke-miterlimit:10;stroke-dasharray:none;stroke-opacity:1"
         transform="matrix(0.13333333,0,0,-0.13333333,0,192.42667)" />
      <path
         id="path12"
         d="m 650.398,498.57 c 0,-14.277 -11.558,-25.84 -25.828,-25.84 -14.273,0 -25.84,11.563 -25.84,25.84 0,14.258 11.567,25.828 25.84,25.828 14.27,0 25.828,-11.57 25.828,-25.828 z"
         style="fill:none;stroke:#231f20;stroke-width:5;stroke-linecap:butt;stroke-linejoin:miter;stroke-miterlimit:10;stroke-dasharray:none;stroke-opacity:1"
         transform="matrix(0.13333333,0,0,-0.13333333,0,192.42667)" />
      <path
         id="path13"
         d="m 494.277,156.93 c 0,-14.282 -11.566,-25.84 -25.839,-25.84 -14.266,0 -25.833,11.558 -25.833,25.84 0,14.261 11.567,25.832 25.833,25.832 14.273,0 25.839,-11.571 25.839,-25.832 z"
         style="fill:none;stroke:#231f20;stroke-width:5;stroke-linecap:butt;stroke-linejoin:miter;stroke-miterlimit:10;stroke-dasharray:none;stroke-opacity:1"
         transform="matrix(0.13333333,0,0,-0.13333333,0,192.42667)" />
      <path
         id="path14"
         d="m 317.961,472.73 c 0,-14.277 -11.574,-25.839 -25.844,-25.839 -14.265,0 -25.84,11.562 -25.84,25.839 0,14.266 11.575,25.84 25.84,25.84 14.27,0 25.844,-11.574 25.844,-25.84 z"
         style="fill:none;stroke:#231f20;stroke-width:5;stroke-linecap:butt;stroke-linejoin:miter;stroke-miterlimit:10;stroke-dasharray:none;stroke-opacity:1"
         transform="matrix(0.13333333,0,0,-0.13333333,0,192.42667)" />
      <path
         id="path15"
         d="m 619.973,1013.8 c 0,-14.273 -11.575,-25.835 -25.84,-25.835 -14.27,0 -25.84,11.562 -25.84,25.835 0,14.26 11.57,25.84 25.84,25.84 14.265,0 25.84,-11.58 25.84,-25.84 z"
         style="fill:none;stroke:#231f20;stroke-width:5;stroke-linecap:butt;stroke-linejoin:miter;stroke-miterlimit:10;stroke-dasharray:none;stroke-opacity:1"
         transform="matrix(0.13333333,0,0,-0.13333333,0,192.42667)" />
      <path
         id="path16"
         d="m 1195.36,802.398 c 0,-14.265 -11.57,-25.839 -25.84,-25.839 -14.27,0 -25.84,11.574 -25.84,25.839 0,14.266 11.57,25.84 25.84,25.84 14.27,0 25.84,-11.574 25.84,-25.84 z"
         style="fill:none;stroke:#231f20;stroke-width:5;stroke-linecap:butt;stroke-linejoin:miter;stroke-miterlimit:10;stroke-dasharray:none;stroke-opacity:1"
         transform="matrix(0.13333333,0,0,-0.13333333,0,192.42667)" />
      <path
         id="path17"
         d="m 1244.53,226.48 c 0,-14.269 -11.56,-25.839 -25.83,-25.839 -14.27,0 -25.84,11.57 -25.84,25.839 0,14.27 11.57,25.84 25.84,25.84 14.27,0 25.83,-11.57 25.83,-25.84 z"
         style="fill:none;stroke:#231f20;stroke-width:5;stroke-linecap:butt;stroke-linejoin:miter;stroke-miterlimit:10;stroke-dasharray:none;stroke-opacity:1"
         transform="matrix(0.13333333,0,0,-0.13333333,0,192.42667)" />
      <path
         id="path18"
         d="m 958.855,498.57 c 0,-14.277 -11.558,-25.84 -25.835,-25.84 -14.27,0 -25.832,11.563 -25.832,25.84 0,14.258 11.562,25.828 25.832,25.828 14.277,0 25.835,-11.57 25.835,-25.828 z"
         style="fill:none;stroke:#231f20;stroke-width:5;stroke-linecap:butt;stroke-linejoin:miter;stroke-miterlimit:10;stroke-dasharray:none;stroke-opacity:1"
         transform="matrix(0.13333333,0,0,-0.13333333,0,192.42667)" />
      <path
         id="path19"
         d="m 1309.56,572.328 c 0,-14.265 -11.57,-25.828 -25.84,-25.828 -14.27,0 -25.84,11.563 -25.84,25.828 0,14.27 11.57,25.832 25.84,25.832 14.27,0 25.84,-11.562 25.84,-25.832 z"
         style="fill:none;stroke:#231f20;stroke-width:5;stroke-linecap:butt;stroke-linejoin:miter;stroke-miterlimit:10;stroke-dasharray:none;stroke-opacity:1"
         transform="matrix(0.13333333,0,0,-0.13333333,0,192.42667)" />
      <path
         id="path20"
         d="m 909.68,129.738 c 0,-14.258 -11.567,-25.828 -25.832,-25.828 -14.27,0 -25.84,11.57 -25.84,25.828 0,14.282 11.57,25.84 25.84,25.84 14.265,0 25.832,-11.558 25.832,-25.84 z"
         style="fill:none;stroke:#231f20;stroke-width:5;stroke-linecap:butt;stroke-linejoin:miter;stroke-miterlimit:10;stroke-dasharray:none;stroke-opacity:1"
         transform="matrix(0.13333333,0,0,-0.13333333,0,192.42667)" />
      <path
         id="path21"
         d="m 904.504,1365.61 c 0,-14.27 -11.566,-25.83 -25.832,-25.83 -14.27,0 -25.84,11.56 -25.84,25.83 0,14.27 11.57,25.83 25.84,25.83 14.266,0 25.832,-11.56 25.832,-25.83 z"
         style="fill:none;stroke:#231f20;stroke-width:5;stroke-linecap:butt;stroke-linejoin:miter;stroke-miterlimit:10;stroke-dasharray:none;stroke-opacity:1"
         transform="matrix(0.13333333,0,0,-0.13333333,0,192.42667)" />
      <g
         id="g21"
         aria-label="(x, y)&#10;radius.y&#10;radius.x&#10;(x&#10;i&#10;, y&#10;i&#10;)"
         transform="matrix(1.3333333,0,0,1.3333333,98.9964,109.086)">
        <path
           id="path22"
           d="m 2.6950828,1.3241719 c -0.890625,-0.76171878 -1.40625,-2.20312503 -1.40625,-3.75 0,-1.546875 0.515625,-3 1.40625,-3.75 L 2.5427391,-6.3867656 c -1.3242188,0.9023437 -1.91015629,2.3320312 -1.91015629,3.9492187 0,1.62890627 0.58593749,3.08203127 1.91015629,3.9609375 z m 0,0"
           style="fill:#231f20;fill-opacity:1;fill-rule:nonzero;stroke:none" />
        <path
           id="path23"
           d="m 3.8874656,-2.9180156 c 0.3164063,-0.3984375 0.4921875,-0.515625 0.5742188,-0.515625 0.09375,0 0.1757812,0.1289062 0.3046875,0.5742187 l 0.3046875,0.9375 c -0.5625,0.8320313 -0.984375,1.35937502 -1.2421875,1.35937502 -0.09375,0 -0.1640625,-0.0351563 -0.2109375,-0.09375 -0.046875,-0.0585938 -0.09375,-0.09375 -0.140625,-0.09375 -0.1757813,0 -0.3632813,0.2109375 -0.3632813,0.421875 -0.011719,0.2578125 0.1757813,0.43359375 0.4101563,0.43359375 0.421875,0 0.84375,-0.43359375 1.640625,-1.69921877 l 0.28125,0.87890627 c 0.1757812,0.5625 0.3632812,0.8203125 0.5976562,0.8203125 0.3046875,0 0.7265625,-0.328125 1.1367188,-0.97265625 L 7.0280906,-1.0430156 c -0.28125,0.33984372 -0.5039062,0.51562497 -0.6445312,0.51562497 -0.1523438,0 -0.28125,-0.2578125 -0.4570313,-0.82031247 L 5.6335594,-2.2500469 c 0.1992187,-0.28125 0.3984375,-0.5273437 0.5859375,-0.7382812 0.234375,-0.2929688 0.4101562,-0.4453125 0.5390625,-0.4453125 0.082031,0 0.1523437,0.035156 0.2109375,0.1054687 0.046875,0.046875 0.082031,0.070312 0.1289062,0.070312 0.140625,0 0.3398438,-0.1757812 0.3515625,-0.3984375 0,-0.1992187 -0.140625,-0.3867187 -0.375,-0.3867187 -0.3984375,0 -0.7851562,0.3867187 -1.5351562,1.4765625 l -0.1523438,-0.492187 c -0.2226562,-0.6445313 -0.3398437,-0.984375 -0.5859375,-0.984375 -0.2929687,0 -0.6914062,0.3867187 -1.0664062,0.9375 z m 0,0"
           style="fill:#231f20;fill-opacity:1;fill-rule:nonzero;stroke:none" />
        <path
           id="path24"
           d="m 8.2146141,-1.1602031 c -0.2109375,0 -0.4335938,0.140625 -0.4335938,0.36328122 0,0.15234375 0.070312,0.22265625 0.1171875,0.234375 0.3046875,0.0703125 0.5625,0.26953125 0.5625,0.59765625 0,0.33984375 -0.2578125,0.57421875 -0.6914062,0.76171875 l 0.09375,0.25781248 c 0.5507812,-0.16406248 1.1835937,-0.55078123 1.1835937,-1.24218748 0,-0.6328125 -0.5039062,-0.97265622 -0.8320312,-0.97265622 z m 0,0"
           style="fill:#231f20;fill-opacity:1;fill-rule:nonzero;stroke:none" />
        <path
           id="path25"
           d="M 13.622817,-0.67973438 C 13.564223,-1.4883281 13.50563,-2.3086406 13.41188,-2.9883281 c -0.07031,-0.7148438 -0.210938,-1.0546875 -0.457032,-1.0546875 -0.328125,0 -0.773437,0.515625 -1.066406,0.9609375 l 0.152344,0.2109375 c 0.222656,-0.3164063 0.457031,-0.5273438 0.527344,-0.5273438 0.07031,0 0.117187,0.1171875 0.1875,0.5625 0.128906,0.8203125 0.269531,2.22656252 0.28125,2.92968752 -0.445313,0.59765625 -1.160157,1.39453128 -2.121094,2.01562498 l 0.07031,0.1992188 0.9375,-0.234375 c 0.503907,-0.5625 1.089844,-1.35937503 1.617188,-2.12109378 0.480469,-0.66796875 1.242187,-1.86328122 1.628906,-2.54296872 0.234375,-0.3984375 0.328125,-0.703125 0.316406,-0.9609375 0,-0.2929688 -0.152343,-0.4921875 -0.351562,-0.4921875 -0.152344,0 -0.316406,0.1054687 -0.375,0.2460937 -0.03516,0.070312 -0.04687,0.1640625 -0.01172,0.2226563 0.03516,0.1054687 0.09375,0.2460937 0.09375,0.421875 0.01172,0.65625 -0.820312,1.8867187 -1.207031,2.47265622 z m 0,0"
           style="fill:#231f20;fill-opacity:1;fill-rule:nonzero;stroke:none" />
        <path
           id="path26"
           d="m 15.855239,-6.1758281 c 0.890625,0.7382812 1.417969,2.203125 1.417969,3.75 0,1.54687497 -0.503906,2.98828122 -1.417969,3.75 l 0.164063,0.1992187 c 1.347656,-0.91406248 1.898437,-2.33203123 1.898437,-3.9492187 0,-1.6289063 -0.550781,-3.0585938 -1.898437,-3.9609375 z M 9.5886375,-44.540086 v -0.984375 c -0.4335938,0.1875 -0.8320313,0.292969 -1.265625,0.363281 v 0.199219 c 0.5039062,0.07031 0.5507812,0.105469 0.5507812,0.703125 v 1.863281 c 0,0.597657 -0.058594,0.644532 -0.6210937,0.703125 v 0.234375 h 2.074219 v -0.234375 c -0.6914065,-0.05859 -0.7382815,-0.105468 -0.7382815,-0.703125 v -1.640625 c 0.1992187,-0.503906 0.4804685,-0.773437 0.7148435,-0.773437 0.152344,0 0.257813,0.04687 0.386719,0.1875 0.04687,0.04687 0.128906,0.05859 0.234375,0.01172 0.175781,-0.08203 0.292969,-0.257813 0.292969,-0.433594 0,-0.222656 -0.210938,-0.457031 -0.527344,-0.457031 -0.421875,0 -0.8085938,0.503906 -1.078125,0.960937 z m 5.6132815,2.730469 -0.09375,-0.234375 c -0.09375,0.05859 -0.222657,0.105469 -0.328125,0.105469 -0.152344,0 -0.316407,-0.140625 -0.316407,-0.550782 v -1.664062 c 0,-0.46875 -0.08203,-0.84375 -0.398437,-1.101563 -0.199219,-0.164062 -0.46875,-0.246093 -0.738281,-0.246093 -0.515625,0.105468 -1.101563,0.457031 -1.347657,0.632812 -0.175781,0.128906 -0.292968,0.222656 -0.292968,0.363281 0,0.199219 0.234375,0.386719 0.398437,0.386719 0.128906,0 0.222656,-0.07031 0.257813,-0.210937 0.07031,-0.28125 0.152343,-0.480469 0.269531,-0.597657 0.09375,-0.105468 0.222656,-0.175781 0.410156,-0.175781 0.445313,0 0.75,0.363281 0.75,1.019531 v 0.164063 c -0.199219,0.152344 -0.855469,0.398437 -1.394531,0.574219 -0.492188,0.175781 -0.726563,0.457031 -0.726563,0.902343 0,0.5625 0.445313,1.089844 1.078125,1.089844 0.269532,0 0.703125,-0.328125 1.066407,-0.574219 0.04687,0.152344 0.09375,0.28125 0.210937,0.410157 0.105469,0.08203 0.292969,0.164062 0.421875,0.164062 z m -1.429688,-0.410156 c -0.164062,0.164062 -0.480469,0.316406 -0.714844,0.328125 -0.28125,0 -0.644531,-0.222657 -0.644531,-0.691407 0,-0.328125 0.199219,-0.492187 0.550781,-0.65625 0.1875,-0.09375 0.621094,-0.28125 0.808594,-0.375 z m 6.131836,0.304687 -0.292969,-0.02344 c -0.328125,-0.04687 -0.386718,-0.08203 -0.386718,-0.550782 v -5.378906 c -0.339844,0.117188 -0.9375,0.257813 -1.40625,0.316406 v 0.210938 c 0.644531,0.04687 0.691406,0.08203 0.691406,0.667969 v 1.277343 c -0.210938,-0.08203 -0.46875,-0.105468 -0.597656,-0.105468 -1.21875,0 -2.320313,0.984375 -2.320313,2.238281 0,1.253906 0.949219,1.910156 1.664063,1.910156 0.105468,0 0.351562,-0.04687 0.703125,-0.257812 l 0.550781,-0.328125 v 0.585937 c 0.527344,-0.1875 1.195312,-0.304687 1.394531,-0.339844 z m -1.394531,-0.304687 c -0.210938,0.164062 -0.539063,0.304687 -0.867188,0.304687 -0.574218,0 -1.230468,-0.527344 -1.230468,-1.59375 0,-1.300781 0.761718,-1.652344 1.171875,-1.652344 0.339843,0 0.714843,0.140625 0.925781,0.457032 z m 2.712891,-4.066407 c 0.257812,0 0.457031,-0.210937 0.457031,-0.457031 0,-0.269531 -0.199219,-0.46875 -0.457031,-0.46875 -0.234375,0 -0.457032,0.199219 -0.457032,0.46875 0,0.246094 0.222657,0.457031 0.457032,0.457031 z m 1.054687,4.828125 v -0.234375 c -0.585937,-0.05859 -0.644531,-0.105468 -0.644531,-0.714843 v -3.105469 c -0.398438,0.152344 -0.820313,0.269531 -1.277344,0.351562 v 0.210938 c 0.539063,0.09375 0.5625,0.128906 0.5625,0.679687 v 1.863282 c 0,0.609375 -0.05859,0.65625 -0.621094,0.714843 v 0.234375 z m 4.693359,-0.445312 -0.257812,-0.01172 c -0.339844,-0.02344 -0.410156,-0.08203 -0.410156,-0.527344 v -3.011718 c -0.480469,0.09375 -0.949219,0.140625 -1.417969,0.164062 v 0.199219 c 0.65625,0.09375 0.703125,0.128906 0.703125,0.644531 v 2.097656 c -0.304688,0.292969 -0.644531,0.433594 -0.972656,0.433594 -0.398438,0 -0.785157,-0.222656 -0.785157,-1.019531 v -1.207031 c 0,-0.609375 0,-1.03125 0.02344,-1.3125 -0.433594,0.08203 -0.867188,0.140625 -1.289063,0.164062 v 0.199219 c 0.515625,0.105469 0.550782,0.140625 0.550782,0.632812 v 1.769532 c 0,0.972656 0.515625,1.335937 1.113281,1.335937 0.246094,0 0.433594,-0.07031 0.691406,-0.222656 0.257813,-0.152344 0.46875,-0.316406 0.667969,-0.46875 v 0.644531 l 0.05859,0.04687 c 0.445312,-0.128906 0.902343,-0.257812 1.324218,-0.316406 z m 2.970704,-2.484375 c -0.03516,-0.222656 -0.128907,-0.75 -0.199219,-0.960938 -0.1875,-0.07031 -0.433594,-0.152343 -0.796875,-0.152343 -0.832031,0 -1.371094,0.527343 -1.371094,1.160156 0,0.691406 0.585938,0.996094 1.125,1.242187 0.445313,0.210938 0.703125,0.421875 0.703125,0.820313 0,0.375 -0.304687,0.632812 -0.632812,0.632812 -0.539063,0 -0.949219,-0.527343 -1.113282,-1.113281 l -0.234375,0.03516 c 0,0.328125 0.08203,0.9375 0.152344,1.066407 0.164063,0.140625 0.574219,0.304687 1.03125,0.304687 0.726563,0 1.488281,-0.421875 1.488281,-1.242187 0,-0.621094 -0.457031,-0.9375 -1.136718,-1.21875 -0.410157,-0.175782 -0.761719,-0.375 -0.761719,-0.785157 0,-0.351562 0.246094,-0.621093 0.585937,-0.621093 0.433594,0 0.75,0.363281 0.925782,0.890625 z m 1.450195,3.035156 c 0.28125,0 0.503906,-0.199219 0.503906,-0.515625 0,-0.292969 -0.222656,-0.515625 -0.503906,-0.515625 -0.292969,0 -0.503906,0.222656 -0.503906,0.515625 0,0.316406 0.210937,0.515625 0.503906,0.515625 z m 5.323242,-4.042969 h -1.628906 v 0.234375 c 0.515625,0.07031 0.574219,0.164063 0.46875,0.503907 -0.1875,0.574218 -0.574219,1.628906 -0.832031,2.25 l -0.820313,-2.261719 c -0.105469,-0.339844 -0.07031,-0.421875 0.351563,-0.492188 v -0.234375 h -1.828125 v 0.234375 c 0.492187,0.07031 0.585937,0.1875 0.773437,0.679688 0.269531,0.632812 0.667969,1.722656 1.03125,2.753906 0.05859,0.152344 0.05859,0.269531 0.01172,0.410156 -0.03516,0.117188 -0.105469,0.304688 -0.28125,0.621094 -0.210938,0.386719 -0.386719,0.621094 -0.667969,0.796875 -0.152344,0.09375 -0.234375,0.175781 -0.234375,0.328125 0,0.210938 0.269531,0.421875 0.515625,0.421875 0.128906,0 0.246094,-0.03516 0.292969,-0.210937 0.117187,-0.492188 0.316406,-0.996094 0.925781,-2.4375 0.621094,-1.488282 0.902344,-2.238282 1.125,-2.707032 0.234375,-0.515625 0.316406,-0.585937 0.796875,-0.65625 z M -49.810777,2.1913594 v -0.984375 c -0.433593,0.1875 -0.832031,0.2929687 -1.265625,0.3632812 v 0.1992188 c 0.503907,0.070312 0.550782,0.1054687 0.550782,0.703125 v 1.8632812 c 0,0.5976563 -0.05859,0.6445313 -0.621094,0.703125 v 0.234375 h 2.074219 v -0.234375 c -0.691407,-0.058594 -0.738282,-0.1054687 -0.738282,-0.703125 v -1.640625 c 0.199219,-0.5039062 0.480469,-0.7734375 0.714844,-0.7734375 0.152344,0 0.257813,0.046875 0.386719,0.1875 0.04687,0.046875 0.128906,0.058594 0.234375,0.011719 0.175781,-0.082031 0.292969,-0.2578125 0.292969,-0.4335938 0,-0.2226562 -0.210938,-0.4570312 -0.527344,-0.4570312 -0.421875,0 -0.808594,0.5039062 -1.078125,0.9609375 z m 5.610352,2.7304687 -0.09375,-0.234375 c -0.09375,0.058594 -0.222656,0.1054688 -0.328125,0.1054688 -0.152344,0 -0.316406,-0.140625 -0.316406,-0.5507813 V 2.5780781 c 0,-0.46875 -0.08203,-0.84375 -0.398438,-1.1015625 -0.199219,-0.1640625 -0.46875,-0.2460937 -0.738281,-0.2460937 -0.515625,0.1054687 -1.101563,0.4570312 -1.347656,0.6328125 -0.175782,0.1289062 -0.292969,0.2226562 -0.292969,0.3632812 0,0.1992188 0.234375,0.3867188 0.398437,0.3867188 0.128907,0 0.222657,-0.070312 0.257813,-0.2109375 0.07031,-0.28125 0.152344,-0.4804688 0.269531,-0.5976563 0.09375,-0.1054687 0.222656,-0.1757812 0.410156,-0.1757812 0.445313,0 0.75,0.3632812 0.75,1.0195312 v 0.1640625 c -0.199218,0.1523438 -0.855468,0.3984375 -1.394531,0.5742188 -0.492187,0.1757812 -0.726562,0.4570312 -0.726562,0.9023437 0,0.5625 0.445312,1.0898438 1.078125,1.0898438 0.269531,0 0.703125,-0.328125 1.066406,-0.5742188 0.04687,0.1523438 0.09375,0.28125 0.210937,0.4101563 0.105469,0.082031 0.292969,0.1640625 0.421875,0.1640625 z m -1.429688,-0.4101562 c -0.164062,0.1640625 -0.480468,0.3164062 -0.714843,0.328125 -0.28125,0 -0.644532,-0.2226563 -0.644532,-0.6914063 0,-0.328125 0.199219,-0.4921875 0.550782,-0.65625 0.1875,-0.09375 0.621093,-0.28125 0.808593,-0.375 z m 6.131836,0.3046875 -0.292968,-0.023437 c -0.328125,-0.046875 -0.386719,-0.082031 -0.386719,-0.5507813 v -5.3789062 c -0.339844,0.1171875 -0.9375,0.25781247 -1.40625,0.31640622 v 0.2109375 c 0.644531,0.046875 0.691406,0.0820313 0.691406,0.66796875 V 1.3358906 c -0.210937,-0.082031 -0.46875,-0.1054687 -0.597656,-0.1054687 -1.21875,0 -2.320313,0.984375 -2.320313,2.2382812 0,1.2539063 0.949219,1.9101563 1.664063,1.9101563 0.105469,0 0.351562,-0.046875 0.703125,-0.2578125 l 0.550781,-0.328125 v 0.5859375 c 0.527344,-0.1875 1.195313,-0.3046875 1.394531,-0.3398438 z m -1.394531,-0.3046875 c -0.210937,0.1640625 -0.539062,0.3046875 -0.867187,0.3046875 -0.574219,0 -1.230469,-0.5273438 -1.230469,-1.59375 0,-1.3007813 0.761719,-1.6523438 1.171875,-1.6523438 0.339844,0 0.714844,0.140625 0.925781,0.4570313 z m 2.712891,-4.06640628 c 0.257812,0 0.457031,-0.2109375 0.457031,-0.45703125 0,-0.26953125 -0.199219,-0.46875 -0.457031,-0.46875 -0.234375,0 -0.457031,0.19921875 -0.457031,0.46875 0,0.24609375 0.222656,0.45703125 0.457031,0.45703125 z m 1.054687,4.82812498 v -0.234375 c -0.585937,-0.058594 -0.644531,-0.1054687 -0.644531,-0.7148437 V 1.2187031 c -0.398437,0.1523438 -0.820312,0.2695313 -1.277344,0.3515625 v 0.2109375 c 0.539063,0.09375 0.5625,0.1289063 0.5625,0.6796875 v 1.8632813 c 0,0.609375 -0.05859,0.65625 -0.621093,0.7148437 v 0.234375 z m 4.69336,-0.4453125 -0.257813,-0.011719 c -0.339844,-0.023437 -0.410156,-0.082031 -0.410156,-0.5273438 V 1.2772969 c -0.480469,0.09375 -0.949219,0.140625 -1.417969,0.1640625 v 0.1992187 c 0.65625,0.09375 0.703125,0.1289063 0.703125,0.6445313 v 2.0976562 c -0.304687,0.2929688 -0.644531,0.4335938 -0.972656,0.4335938 -0.398438,0 -0.785156,-0.2226563 -0.785156,-1.0195313 V 2.5897969 c 0,-0.609375 0,-1.03125 0.02344,-1.3125 -0.433594,0.082031 -0.867187,0.140625 -1.289062,0.1640625 v 0.1992187 c 0.515625,0.1054688 0.550781,0.140625 0.550781,0.6328125 v 1.7695313 c 0,0.9726562 0.515625,1.3359375 1.113281,1.3359375 0.246094,0 0.433594,-0.070312 0.691406,-0.2226563 0.257813,-0.1523437 0.46875,-0.3164062 0.667969,-0.46875 v 0.6445313 l 0.05859,0.046875 c 0.445312,-0.1289063 0.902344,-0.2578125 1.324219,-0.3164063 z m 2.970703,-2.484375 c -0.03516,-0.2226562 -0.128906,-0.75 -0.199219,-0.9609375 -0.1875,-0.070312 -0.433594,-0.1523437 -0.796875,-0.1523437 -0.832031,0 -1.371094,0.5273437 -1.371094,1.1601562 0,0.6914063 0.585938,0.9960938 1.125,1.2421875 0.445313,0.2109375 0.703125,0.421875 0.703125,0.8203125 0,0.375 -0.304687,0.6328125 -0.632812,0.6328125 -0.539063,0 -0.949219,-0.5273437 -1.113281,-1.1132812 l -0.234375,0.035156 c 0,0.328125 0.08203,0.9375 0.152343,1.0664063 0.164063,0.140625 0.574219,0.3046875 1.03125,0.3046875 0.726563,0 1.488282,-0.421875 1.488282,-1.2421875 0,-0.6210938 -0.457032,-0.9375 -1.136719,-1.21875 -0.410156,-0.1757813 -0.761719,-0.375 -0.761719,-0.7851563 0,-0.3515625 0.246094,-0.6210937 0.585938,-0.6210937 0.433593,0 0.75,0.3632812 0.925781,0.890625 z m 1.453125,3.0351563 c 0.28125,0 0.503906,-0.1992188 0.503906,-0.515625 0,-0.2929688 -0.222656,-0.515625 -0.503906,-0.515625 -0.292969,0 -0.503906,0.2226562 -0.503906,0.515625 0,0.3164062 0.210937,0.515625 0.503906,0.515625 z m 5.296875,-0.1054688 v -0.234375 c -0.550781,-0.070312 -0.65625,-0.1523437 -0.996094,-0.6679687 l -0.878906,-1.3242188 c 0.292969,-0.4453125 0.527344,-0.7734375 0.703125,-0.9960937 0.328125,-0.375 0.445312,-0.421875 0.984375,-0.4804688 v -0.234375 h -1.628906 v 0.234375 c 0.386718,0.035156 0.445312,0.082031 0.28125,0.375 -0.164063,0.2929688 -0.339844,0.5742188 -0.515625,0.8320313 l -0.539063,-0.8203125 c -0.152344,-0.2578125 -0.128906,-0.3398438 0.257813,-0.3867188 v -0.234375 h -1.804688 v 0.234375 c 0.503906,0.058594 0.621094,0.1289063 0.890625,0.5742188 l 0.773438,1.21875 c -0.257813,0.4101562 -0.503907,0.7617187 -0.75,1.078125 -0.363282,0.4570312 -0.457032,0.5273437 -1.019532,0.5976562 v 0.234375 h 1.6875 v -0.234375 c -0.46875,-0.070312 -0.492187,-0.1523437 -0.316406,-0.4570312 0.164063,-0.328125 0.375,-0.65625 0.574219,-0.9609375 l 0.667969,1.0546875 c 0.152343,0.2460937 0.08203,0.3164062 -0.304688,0.3632812 v 0.234375 z M 19.417739,58.286086 c -0.890625,-0.761719 -1.40625,-2.203125 -1.40625,-3.75 0,-1.546875 0.515625,-3 1.40625,-3.75 l -0.152344,-0.210938 c -1.324218,0.902344 -1.910156,2.332032 -1.910156,3.949219 0,1.628906 0.585938,3.082031 1.910156,3.960938 z m 0,0"
           style="fill:#231f20;fill-opacity:1;fill-rule:nonzero;stroke:none" />
        <path
           id="path27"
           d="m 20.144302,55.016555 c 0.210937,-0.257813 0.328125,-0.339844 0.386718,-0.339844 0.05859,0 0.117188,0.08203 0.199219,0.375 l 0.199219,0.621094 c -0.375,0.5625 -0.65625,0.914062 -0.832031,0.914062 -0.05859,0 -0.105469,-0.02344 -0.128907,-0.05859 -0.03516,-0.03516 -0.05859,-0.05859 -0.105468,-0.05859 -0.105469,0 -0.234375,0.128906 -0.234375,0.28125 -0.01172,0.164062 0.117187,0.28125 0.269531,0.28125 0.292969,0 0.5625,-0.292969 1.101562,-1.136719 l 0.1875,0.585937 c 0.105469,0.375 0.246094,0.550782 0.386719,0.550782 0.210938,0 0.492188,-0.222657 0.761719,-0.644532 l -0.09375,-0.117187 c -0.199219,0.222656 -0.339844,0.339844 -0.433594,0.339844 -0.09375,0 -0.1875,-0.175782 -0.304687,-0.550782 l -0.199219,-0.597656 c 0.140625,-0.1875 0.269531,-0.351562 0.398437,-0.492187 0.152344,-0.199219 0.269532,-0.304688 0.351563,-0.304688 0.05859,0 0.105469,0.02344 0.140625,0.08203 0.03516,0.02344 0.05859,0.04687 0.09375,0.04687 0.08203,0 0.222656,-0.128906 0.234375,-0.269531 0,-0.128906 -0.09375,-0.257812 -0.257813,-0.257812 -0.257812,0 -0.515625,0.257812 -1.019531,0.984375 l -0.105469,-0.328125 c -0.140625,-0.433594 -0.222656,-0.65625 -0.386718,-0.65625 -0.199219,0 -0.457032,0.257812 -0.714844,0.621093 z m 5.188476,0.09961 c -0.210937,0 -0.328125,0.199219 -0.328125,0.351563 0,0.152343 0.105469,0.269531 0.246094,0.269531 0.175781,0 0.316406,-0.164063 0.316406,-0.351563 0,-0.140625 -0.08203,-0.269531 -0.234375,-0.269531 z m 0,3.1875 c -0.140625,0.128906 -0.351562,0.28125 -0.421875,0.28125 -0.03516,0 -0.04687,-0.04687 -0.01172,-0.1875 l 0.421875,-1.652344 c 0.05859,-0.292968 0.07031,-0.480468 -0.05859,-0.480468 -0.164063,0 -0.585938,0.246093 -0.914063,0.574218 l 0.07031,0.140625 c 0.175781,-0.164062 0.363281,-0.257812 0.410156,-0.257812 0.03516,0 0.03516,0.05859 0,0.1875 l -0.375,1.535156 c -0.117188,0.492188 -0.03516,0.585938 0.08203,0.585938 0.210938,0 0.679688,-0.351563 0.878906,-0.597657 z m 0,0"
           style="fill:#231f20;fill-opacity:1;fill-rule:nonzero;stroke:none" />
        <path
           id="path28"
           d="m 26.513442,55.801711 c -0.210937,0 -0.433594,0.140625 -0.433594,0.363281 0,0.152344 0.07031,0.222656 0.117188,0.234375 0.304687,0.07031 0.5625,0.269531 0.5625,0.597656 0,0.339844 -0.257813,0.574219 -0.691406,0.761719 l 0.09375,0.257813 c 0.550781,-0.164063 1.183593,-0.550782 1.183593,-1.242188 0,-0.632812 -0.503906,-0.972656 -0.832031,-0.972656 z m 0,0"
           style="fill:#231f20;fill-opacity:1;fill-rule:nonzero;stroke:none" />
        <path
           id="path29"
           d="m 31.195083,56.516555 c -0.03516,-0.550782 -0.07031,-1.089844 -0.128906,-1.546875 -0.05859,-0.480469 -0.140625,-0.703125 -0.316407,-0.703125 -0.210937,0 -0.515625,0.339843 -0.703125,0.644531 l 0.105469,0.140625 c 0.152344,-0.210938 0.292969,-0.351563 0.339844,-0.351563 0.05859,0 0.09375,0.07031 0.128906,0.375 0.08203,0.539063 0.1875,1.476563 0.1875,1.957032 -0.292969,0.386718 -0.761719,0.914062 -1.40625,1.335937 l 0.04687,0.140625 0.621094,-0.164062 c 0.339844,-0.375 0.726562,-0.902344 1.078125,-1.417969 0.316406,-0.445313 0.832031,-1.242188 1.089844,-1.6875 0.152343,-0.269531 0.210937,-0.46875 0.210937,-0.644531 0,-0.199219 -0.105469,-0.328125 -0.234375,-0.328125 -0.105469,0 -0.210937,0.07031 -0.257812,0.164062 -0.02344,0.04687 -0.02344,0.105469 -0.01172,0.152344 0.03516,0.05859 0.07031,0.164062 0.07031,0.28125 0.01172,0.433594 -0.550781,1.253906 -0.808593,1.652344 z m 3.342773,-1.400391 c -0.210937,0 -0.328125,0.199219 -0.328125,0.351563 0,0.152343 0.105469,0.269531 0.246094,0.269531 0.175781,0 0.316406,-0.164063 0.316406,-0.351563 0,-0.140625 -0.08203,-0.269531 -0.234375,-0.269531 z m 0,3.1875 c -0.140625,0.128906 -0.351562,0.28125 -0.421875,0.28125 -0.03516,0 -0.04687,-0.04687 -0.01172,-0.1875 l 0.421875,-1.652344 c 0.05859,-0.292968 0.07031,-0.480468 -0.05859,-0.480468 -0.164063,0 -0.585938,0.246093 -0.914063,0.574218 l 0.07031,0.140625 c 0.175781,-0.164062 0.363281,-0.257812 0.410156,-0.257812 0.03516,0 0.03516,0.05859 0,0.1875 l -0.375,1.535156 c -0.117188,0.492188 -0.03516,0.585938 0.08203,0.585938 0.210938,0 0.679688,-0.351563 0.878906,-0.597657 z m 0,0"
           style="fill:#231f20;fill-opacity:1;fill-rule:nonzero;stroke:none" />
        <path
           id="path30"
           d="m 35.490005,50.786086 c 0.890625,0.738281 1.417968,2.203125 1.417968,3.75 0,1.546875 -0.503906,2.988281 -1.417968,3.75 l 0.164062,0.199219 c 1.347656,-0.914063 1.898438,-2.332032 1.898438,-3.949219 0,-1.628906 -0.550782,-3.058594 -1.898438,-3.960938 z m 0,0"
           style="fill:#231f20;fill-opacity:1;fill-rule:nonzero;stroke:none" />
      </g>
      <path
         id="path31"
         d="M 781.031,1432.72 V 732.867"
         style="fill:none;stroke:#231f20;stroke-width:5;stroke-linecap:butt;stroke-linejoin:miter;stroke-miterlimit:10;stroke-dasharray:none;stroke-opacity:1"
         transform="matrix(0.13333333,0,0,-0.13333333,0,192.42667)" />
      <path
         id="path32"
         d="m 756.941,1432.72 h 48.176"
         style="fill:none;stroke:#231f20;stroke-width:5;stroke-linecap:butt;stroke-linejoin:miter;stroke-miterlimit:10;stroke-dasharray:none;stroke-opacity:1"
         transform="matrix(0.13333333,0,0,-0.13333333,0,192.42667)" />
      <path
         id="path33"
         d="m 756.941,732.867 h 48.176"
         style="fill:none;stroke:#231f20;stroke-width:5;stroke-linecap:butt;stroke-linejoin:miter;stroke-miterlimit:10;stroke-dasharray:none;stroke-opacity:1"
         transform="matrix(0.13333333,0,0,-0.13333333,0,192.42667)" />
      <path
         id="path34"
         d="M 12.9883,662.496 H 712.844"
         style="fill:none;stroke:#231f20;stroke-width:5;stroke-linecap:butt;stroke-linejoin:miter;stroke-miterlimit:10;stroke-dasharray:none;stroke-opacity:1"
         transform="matrix(0.13333333,0,0,-0.13333333,0,192.42667)" />
      <path
         id="path35"
         d="m 12.9883,638.414 v 48.164"
         style="fill:none;stroke:#231f20;stroke-width:5;stroke-linecap:butt;stroke-linejoin:miter;stroke-miterlimit:10;stroke-dasharray:none;stroke-opacity:1"
         transform="matrix(0.13333333,0,0,-0.13333333,0,192.42667)" />
      <path
         id="path36"
         d="m 712.844,638.414 v 48.164"
         style="fill:none;stroke:#231f20;stroke-width:5;stroke-linecap:butt;stroke-linejoin:miter;stroke-miterlimit:10;stroke-dasharray:none;stroke-opacity:1"
         transform="matrix(0.13333333,0,0,-0.13333333,0,192.42667)" />
    </g>
  </g>
</svg>
