<?xml version="1.0" encoding="UTF-8" standalone="no"?>
<!-- Created with Inkscape (http://www.inkscape.org/) -->

<svg
   version="1.1"
   id="svg1"
   width="460.69333"
   height="198.56"
   viewBox="0 0 460.69333 198.56"
   sodipodi:docname="pha05f02.eps"
   xmlns:inkscape="http://www.inkscape.org/namespaces/inkscape"
   xmlns:sodipodi="http://sodipodi.sourceforge.net/DTD/sodipodi-0.dtd"
   xmlns="http://www.w3.org/2000/svg"
   xmlns:svg="http://www.w3.org/2000/svg">
  <defs
     id="defs1" />
  <sodipodi:namedview
     id="namedview1"
     pagecolor="#ffffff"
     bordercolor="#000000"
     borderopacity="0.25"
     inkscape:showpageshadow="2"
     inkscape:pageopacity="0.0"
     inkscape:pagecheckerboard="0"
     inkscape:deskcolor="#d1d1d1">
    <inkscape:page
       x="0"
       y="0"
       inkscape:label="1"
       id="page1"
       width="460.69333"
       height="198.56"
       margin="0"
       bleed="0" />
  </sodipodi:namedview>
  <g
     id="g1"
     inkscape:groupmode="layer"
     inkscape:label="1">
    <g
       id="group-R5">
      <path
         id="path2"
         d="m 325.02,152.43 2573.81,834.086 -2.32,7.136 -2573.803,-834.082 2.313,-7.14"
         style="fill:#231f20;fill-opacity:1;fill-rule:nonzero;stroke:none"
         transform="matrix(0.13333333,0,0,-0.13333333,0,198.56)" />
      <path
         id="path3"
         d="M 2669.96,563.484 H 1593.43 L 2669.96,912.348 V 563.484 m -1095.8,1.641 v 772.225 h 1095.8 V 920.23 L 1574.16,565.125"
         style="fill:#dfdfdf;fill-opacity:1;fill-rule:nonzero;stroke:none"
         transform="matrix(0.13333333,0,0,-0.13333333,0,198.56)" />
      <path
         id="path4"
         d="m 1593.43,563.484 h -19.27 v 1.641 l 1095.8,355.105 v -7.882 L 1593.43,563.484"
         style="fill:#b3b2b2;fill-opacity:1;fill-rule:nonzero;stroke:none"
         transform="matrix(0.13333333,0,0,-0.13333333,0,198.56)" />
      <path
         id="path5"
         d="M 2674.96,558.48 H 1578 l 15.43,5.004 h 1076.53 v 348.864 l 5,1.621 v -352.989 -2.5 m -2.5,2.5 v 0 2.504 -2.504 m -1103.29,2.524 V 1342.35 H 2674.96 V 921.852 l -5,-1.622 v 417.12 H 1574.16 V 565.125 l -4.99,-1.621"
         style="fill:#4f4c4c;fill-opacity:1;fill-rule:nonzero;stroke:none"
         transform="matrix(0.13333333,0,0,-0.13333333,0,198.56)" />
      <path
         id="path6"
         d="m 1578,558.48 h -8.83 v 5.024 l 4.99,1.621 v -1.641 h 19.27 L 1578,558.48 m 1091.96,353.868 v 7.882 l 5,1.622 v -7.883 l -5,-1.621"
         style="fill:#231f20;fill-opacity:1;fill-rule:nonzero;stroke:none"
         transform="matrix(0.13333333,0,0,-0.13333333,0,198.56)" />
      <path
         id="path7"
         d="m 317.73,154.691 c 0,6.219 5.036,11.25 11.25,11.25 6.211,0 11.25,-5.031 11.25,-11.25 0,-6.211 -5.039,-11.25 -11.25,-11.25 -6.214,0 -11.25,5.039 -11.25,11.25"
         style="fill:#231f20;fill-opacity:1;fill-rule:nonzero;stroke:none"
         transform="matrix(0.13333333,0,0,-0.13333333,0,198.56)" />
      <path
         id="path8"
         d="m 317.73,154.691 h 5 c 0.004,3.457 2.793,6.25 6.25,6.25 3.45,0 6.243,-2.793 6.25,-6.25 -0.007,-3.441 -2.804,-6.242 -6.25,-6.25 -3.453,0.008 -6.246,2.797 -6.25,6.25 h -5 -5 c 0,-8.972 7.27,-16.242 16.25,-16.25 8.977,0.008 16.247,7.278 16.25,16.25 -0.003,8.989 -7.281,16.25 -16.25,16.25 -8.976,-0.011 -16.25,-7.269 -16.25,-16.25 h 5"
         style="fill:#231f20;fill-opacity:1;fill-rule:nonzero;stroke:none"
         transform="matrix(0.13333333,0,0,-0.13333333,0,198.56)" />
      <path
         id="path9"
         d="M 1459.1,354.52 H 948.605 L 1459.1,519.949 V 354.52 m -525.002,3.179 V 724.516 H 1459.1 V 527.836 L 934.098,357.699"
         style="fill:#dfdfdf;fill-opacity:1;fill-rule:nonzero;stroke:none"
         transform="matrix(0.13333333,0,0,-0.13333333,0,198.56)" />
      <path
         id="path10"
         d="m 948.605,354.52 h -14.507 v 3.179 L 1459.1,527.836 v -7.887 L 948.605,354.52"
         style="fill:#b3b2b2;fill-opacity:1;fill-rule:nonzero;stroke:none"
         transform="matrix(0.13333333,0,0,-0.13333333,0,198.56)" />
      <path
         id="path11"
         d="M 1464.1,349.52 H 933.176 l 15.429,5 H 1459.1 v 165.429 l 5,1.621 v -169.55 -2.5 m -2.5,2.5 v 0 2.5 -2.5 m -532.502,4.058 V 729.516 H 1464.1 V 529.453 l -5,-1.617 v 196.68 H 934.098 V 357.699 l -5,-1.621"
         style="fill:#4f4c4c;fill-opacity:1;fill-rule:nonzero;stroke:none"
         transform="matrix(0.13333333,0,0,-0.13333333,0,198.56)" />
      <path
         id="path12"
         d="m 933.176,349.52 h -4.078 v 6.558 l 5,1.621 v -3.179 h 14.507 l -15.429,-5 M 1459.1,519.949 v 7.887 l 5,1.617 v -7.883 l -5,-1.621"
         style="fill:#231f20;fill-opacity:1;fill-rule:nonzero;stroke:none"
         transform="matrix(0.13333333,0,0,-0.13333333,0,198.56)" />
      <path
         id="path13"
         d="m 331.578,154.09 1393.882,1329.68 -5.17,5.43 L 326.402,159.52"
         style="fill:#231f20;fill-opacity:1;fill-rule:nonzero;stroke:none"
         transform="matrix(0.13333333,0,0,-0.13333333,0,198.56)" />
      <path
         id="path14"
         d="m 324.449,150.332 2652.101,456.766 -1.27,7.39 L 323.176,157.719"
         style="fill:#231f20;fill-opacity:1;fill-rule:nonzero;stroke:none"
         transform="matrix(0.13333333,0,0,-0.13333333,0,198.56)" />
      <path
         id="path15"
         d="m 327.43,156.41 2585.88,1299.65 -3.37,6.71 L 324.063,163.109"
         style="fill:#231f20;fill-opacity:1;fill-rule:nonzero;stroke:none"
         transform="matrix(0.13333333,0,0,-0.13333333,0,198.56)" />
      <path
         id="path16"
         d="m 1447.28,725.094 c 0,6.215 5.03,11.25 11.25,11.25 6.21,0 11.25,-5.035 11.25,-11.25 0,-6.211 -5.04,-11.25 -11.25,-11.25 -6.22,0 -11.25,5.039 -11.25,11.25"
         style="fill:#231f20;fill-opacity:1;fill-rule:nonzero;stroke:none"
         transform="matrix(0.13333333,0,0,-0.13333333,0,198.56)" />
      <path
         id="path17"
         d="m 1447.28,725.094 h 5 c 0,3.453 2.79,6.242 6.25,6.25 3.45,-0.008 6.24,-2.797 6.25,-6.25 -0.01,-3.449 -2.8,-6.242 -6.25,-6.25 -3.46,0.008 -6.25,2.801 -6.25,6.25 h -5 -5 c 0,-8.973 7.27,-16.246 16.25,-16.25 8.98,0.004 16.24,7.277 16.25,16.25 -0.01,8.976 -7.28,16.25 -16.25,16.25 -8.98,0 -16.25,-7.274 -16.25,-16.25 h 5"
         style="fill:#231f20;fill-opacity:1;fill-rule:nonzero;stroke:none"
         transform="matrix(0.13333333,0,0,-0.13333333,0,198.56)" />
      <path
         id="path18"
         d="m 921.25,726.512 c 0,6.211 5.035,11.25 11.25,11.25 6.211,0 11.25,-5.039 11.25,-11.25 0,-6.219 -5.039,-11.25 -11.25,-11.25 -6.215,0 -11.25,5.031 -11.25,11.25"
         style="fill:#231f20;fill-opacity:1;fill-rule:nonzero;stroke:none"
         transform="matrix(0.13333333,0,0,-0.13333333,0,198.56)" />
      <path
         id="path19"
         d="m 921.25,726.512 h 5 c 0.008,3.445 2.797,6.242 6.25,6.25 3.445,-0.008 6.242,-2.809 6.25,-6.25 -0.008,-3.453 -2.801,-6.246 -6.25,-6.25 -3.453,0.004 -6.242,2.793 -6.25,6.25 h -5 -5 c 0.004,-8.981 7.273,-16.25 16.25,-16.25 8.973,0 16.246,7.269 16.25,16.25 -0.004,8.972 -7.273,16.242 -16.25,16.25 -8.98,-0.004 -16.246,-7.278 -16.25,-16.25 h 5"
         style="fill:#231f20;fill-opacity:1;fill-rule:nonzero;stroke:none"
         transform="matrix(0.13333333,0,0,-0.13333333,0,198.56)" />
      <path
         id="path20"
         d="m 918.422,354.41 c 0,6.211 5.039,11.25 11.25,11.25 6.219,0 11.25,-5.039 11.25,-11.25 0,-6.219 -5.031,-11.25 -11.25,-11.25 -6.211,0 -11.25,5.031 -11.25,11.25"
         style="fill:#231f20;fill-opacity:1;fill-rule:nonzero;stroke:none"
         transform="matrix(0.13333333,0,0,-0.13333333,0,198.56)" />
      <path
         id="path21"
         d="m 918.422,354.41 h 5 c 0.008,3.449 2.805,6.238 6.25,6.25 3.453,-0.012 6.246,-2.801 6.25,-6.25 -0.004,-3.461 -2.793,-6.25 -6.25,-6.25 -3.449,0.012 -6.242,2.789 -6.25,6.25 h -5 -5 c 0.004,-8.98 7.281,-16.25 16.25,-16.25 8.976,0.02 16.25,7.27 16.25,16.25 0,8.969 -7.27,16.25 -16.25,16.25 -8.977,0 -16.246,-7.269 -16.25,-16.25 h 5"
         style="fill:#231f20;fill-opacity:1;fill-rule:nonzero;stroke:none"
         transform="matrix(0.13333333,0,0,-0.13333333,0,198.56)" />
      <path
         id="path22"
         d="m 1449.39,348.762 c 0,6.207 5.04,11.25 11.25,11.25 6.22,0 11.25,-5.043 11.25,-11.25 0,-6.223 -5.03,-11.25 -11.25,-11.25 -6.21,0 -11.25,5.027 -11.25,11.25"
         style="fill:#231f20;fill-opacity:1;fill-rule:nonzero;stroke:none"
         transform="matrix(0.13333333,0,0,-0.13333333,0,198.56)" />
      <path
         id="path23"
         d="m 1449.39,348.762 h 5 c 0.01,3.449 2.8,6.238 6.25,6.25 3.45,-0.012 6.24,-2.801 6.25,-6.25 -0.01,-3.453 -2.8,-6.25 -6.25,-6.25 -3.45,0 -6.24,2.797 -6.25,6.25 h -5 -5 c 0,-8.981 7.27,-16.25 16.25,-16.25 8.98,0 16.25,7.269 16.25,16.25 0,8.968 -7.27,16.238 -16.25,16.25 -8.97,-0.012 -16.25,-7.274 -16.25,-16.25 h 5"
         style="fill:#231f20;fill-opacity:1;fill-rule:nonzero;stroke:none"
         transform="matrix(0.13333333,0,0,-0.13333333,0,198.56)" />
      <path
         id="path24"
         d="m 1559.69,561.402 c 0,6.215 5.04,11.25 11.25,11.25 6.21,0 11.25,-5.035 11.25,-11.25 0,-6.211 -5.04,-11.25 -11.25,-11.25 -6.21,0 -11.25,5.039 -11.25,11.25"
         style="fill:#231f20;fill-opacity:1;fill-rule:nonzero;stroke:none"
         transform="matrix(0.13333333,0,0,-0.13333333,0,198.56)" />
      <path
         id="path25"
         d="m 1559.69,561.402 h 5 c 0.01,3.453 2.8,6.243 6.25,6.25 3.45,-0.007 6.25,-2.797 6.25,-6.25 0,-3.445 -2.8,-6.246 -6.25,-6.25 -3.45,0.004 -6.24,2.801 -6.25,6.25 h -5 -5 c 0.01,-8.972 7.27,-16.246 16.25,-16.25 8.98,0.004 16.25,7.274 16.25,16.25 0,8.981 -7.27,16.246 -16.25,16.25 -8.97,0 -16.25,-7.273 -16.25,-16.25 h 5"
         style="fill:#231f20;fill-opacity:1;fill-rule:nonzero;stroke:none"
         transform="matrix(0.13333333,0,0,-0.13333333,0,198.56)" />
      <path
         id="path26"
         d="m 2660.31,559.875 c 0,6.215 5.04,11.25 11.25,11.25 6.22,0 11.25,-5.035 11.25,-11.25 0,-6.219 -5.03,-11.25 -11.25,-11.25 -6.21,0 -11.25,5.031 -11.25,11.25"
         style="fill:#231f20;fill-opacity:1;fill-rule:nonzero;stroke:none"
         transform="matrix(0.13333333,0,0,-0.13333333,0,198.56)" />
      <path
         id="path27"
         d="m 2660.31,559.875 h 5 c 0,3.449 2.8,6.242 6.25,6.25 3.46,-0.008 6.25,-2.793 6.25,-6.25 0,-3.457 -2.79,-6.246 -6.25,-6.25 -3.45,0.004 -6.25,2.797 -6.25,6.25 h -5 -5 c 0,-8.98 7.27,-16.246 16.25,-16.25 8.98,0 16.23,7.273 16.25,16.25 -0.02,8.973 -7.27,16.25 -16.25,16.25 -8.98,-0.004 -16.25,-7.27 -16.25,-16.25 h 5"
         style="fill:#231f20;fill-opacity:1;fill-rule:nonzero;stroke:none"
         transform="matrix(0.13333333,0,0,-0.13333333,0,198.56)" />
      <path
         id="path28"
         d="m 2660.65,1339.52 c 0,6.22 5.04,11.25 11.25,11.25 6.21,0 11.25,-5.03 11.25,-11.25 0,-6.21 -5.04,-11.25 -11.25,-11.25 -6.21,0 -11.25,5.04 -11.25,11.25"
         style="fill:#231f20;fill-opacity:1;fill-rule:nonzero;stroke:none"
         transform="matrix(0.13333333,0,0,-0.13333333,0,198.56)" />
      <path
         id="path29"
         d="m 2660.65,1339.52 h 5 c 0.01,3.45 2.8,6.25 6.25,6.25 3.45,0 6.24,-2.8 6.25,-6.25 -0.01,-3.45 -2.8,-6.24 -6.25,-6.25 -3.45,0.01 -6.24,2.8 -6.25,6.25 h -5 -5 c 0,-8.97 7.27,-16.24 16.25,-16.25 8.98,0.01 16.24,7.28 16.25,16.25 0,8.98 -7.28,16.25 -16.25,16.25 -8.97,0 -16.25,-7.27 -16.25,-16.25 h 5"
         style="fill:#231f20;fill-opacity:1;fill-rule:nonzero;stroke:none"
         transform="matrix(0.13333333,0,0,-0.13333333,0,198.56)" />
      <path
         id="path30"
         d="m 1558.83,1340.09 c 0,6.21 5.04,11.25 11.25,11.25 6.22,0 11.25,-5.04 11.25,-11.25 0,-6.22 -5.03,-11.25 -11.25,-11.25 -6.21,0 -11.25,5.03 -11.25,11.25"
         style="fill:#231f20;fill-opacity:1;fill-rule:nonzero;stroke:none"
         transform="matrix(0.13333333,0,0,-0.13333333,0,198.56)" />
      <path
         id="path31"
         d="m 1558.83,1340.09 h 5 c 0.01,3.45 2.8,6.24 6.25,6.25 3.46,-0.01 6.25,-2.8 6.25,-6.25 0,-3.45 -2.8,-6.25 -6.25,-6.25 -3.44,0 -6.24,2.8 -6.25,6.25 h -5 -5 c 0.01,-8.98 7.28,-16.25 16.25,-16.25 8.98,0 16.25,7.27 16.25,16.25 0,8.97 -7.27,16.24 -16.25,16.25 -8.97,-0.01 -16.24,-7.28 -16.25,-16.25 h 5"
         style="fill:#231f20;fill-opacity:1;fill-rule:nonzero;stroke:none"
         transform="matrix(0.13333333,0,0,-0.13333333,0,198.56)" />
      <g
         id="g31"
         aria-label="Camera space: (0, 0, 0)&#10;NDC: (0, 0, 0)&#10;NDC: (0, 0, 1)&#10;z = near&#10;NDC: (1, 1, 0)&#10;Raster: (res.x, res.y, 0)&#10;z = far&#10;NDC: (1, 1, 1)&#10;Raster: (res.x, res.y, 1)"
         transform="matrix(1.3333333,0,0,1.3333333,0,191.09073)">
        <path
           id="path32"
           d="m 5.53125,-1.5826984 c -0.4570313,0.90234371 -0.9375,1.39453121 -1.8632812,1.39453121 -1.359375,0 -2.3554688,-1.14843751 -2.3554688,-2.83593751 0,-1.3710937 0.796875,-2.6367187 2.3085938,-2.6367187 0.9726562,0 1.5117187,0.3867187 1.7460937,1.3359375 l 0.2695312,-0.058594 C 5.578125,-4.8639484 5.53125,-5.2272297 5.4492187,-5.7428547 5.203125,-5.7897297 4.59375,-5.9889484 3.8554688,-5.9889484 c -2.0039063,0 -3.4570313,1.2539062 -3.4570313,3.140625 0,1.4296875 0.984375,2.98828121 3.2226563,2.98828121 0.6445312,0 1.4062499,-0.1875 1.6523437,-0.24609375 C 5.4375,-0.41082344 5.6601562,-1.0670734 5.7890625,-1.4889484 Z m 4.4384766,1.23046871 -0.09375,-0.234375 c -0.09375,0.0585938 -0.2226563,0.10546875 -0.328125,0.10546875 -0.1523438,0 -0.3164063,-0.140625 -0.3164063,-0.55078126 v -1.6640625 c 0,-0.46875 -0.082031,-0.84375 -0.3984375,-1.1015625 -0.1992187,-0.1640625 -0.46875,-0.2460937 -0.7382812,-0.2460937 -0.515625,0.1054687 -1.1015625,0.4570312 -1.3476563,0.6328125 -0.1757812,0.1289062 -0.2929687,0.2226562 -0.2929687,0.3632812 0,0.1992188 0.234375,0.3867188 0.3984375,0.3867188 0.1289062,0 0.2226562,-0.070312 0.2578125,-0.2109375 0.070312,-0.28125 0.1523437,-0.4804688 0.2695312,-0.5976563 0.09375,-0.1054687 0.2226563,-0.1757812 0.4101563,-0.1757812 0.4453125,0 0.75,0.3632812 0.75,1.0195312 v 0.1640625 c -0.1992188,0.1523438 -0.8554688,0.3984375 -1.3945313,0.5742188 -0.4921875,0.1757812 -0.7265625,0.4570312 -0.7265625,0.90234371 0,0.5625 0.4453125,1.08984375 1.078125,1.08984375 0.2695313,0 0.703125,-0.328125 1.0664063,-0.57421875 0.046875,0.15234375 0.09375,0.28125 0.2109375,0.41015625 0.1054687,0.08203125 0.2929687,0.1640625 0.421875,0.1640625 z M 8.5400391,-0.76238594 c -0.1640625,0.1640625 -0.4804688,0.31640625 -0.7148438,0.328125 -0.28125,0 -0.6445312,-0.22265625 -0.6445312,-0.69140626 0,-0.328125 0.1992187,-0.4921875 0.5507812,-0.65625 0.1875,-0.09375 0.6210938,-0.28125 0.8085938,-0.375 z M 17.097656,-6.671875e-4 V -0.23504219 c -0.503906,-0.0585937 -0.585937,-0.09375 -0.585937,-0.69140625 V -2.6608234 c 0,-0.890625 -0.433594,-1.3828125 -1.136719,-1.3828125 -0.257812,0 -0.492187,0.1054687 -0.679687,0.234375 -0.222657,0.140625 -0.480469,0.3046875 -0.738282,0.5039062 -0.1875,-0.46875 -0.574218,-0.7382812 -1.007812,-0.7382812 -0.28125,0 -0.503906,0.1054687 -0.738281,0.2460937 -0.269532,0.1640625 -0.46875,0.328125 -0.65625,0.4570313 v -0.7265625 c -0.398438,0.1757812 -0.855469,0.2929687 -1.253907,0.3632812 v 0.2109375 c 0.527344,0.082031 0.550782,0.1289063 0.550782,0.703125 v 1.86328126 c 0,0.5859375 -0.08203,0.6328125 -0.667969,0.69140625 v 0.2343750025 h 1.898437 V -0.23504219 c -0.445312,-0.0585937 -0.515625,-0.10546875 -0.515625,-0.69140625 V -3.0475422 c 0.269532,-0.2226562 0.621094,-0.46875 0.984375,-0.46875 0.550782,0 0.785157,0.375 0.785157,1.0429688 v 1.54687496 c 0,0.59765625 -0.08203,0.6328125 -0.644532,0.69140625 v 0.2343750025 h 1.921875 V -0.23504219 c -0.492187,-0.0585937 -0.574218,-0.10546875 -0.574218,-0.6796875 V -2.6608234 c 0,-0.1757813 -0.01172,-0.2695313 -0.02344,-0.3867188 0.339844,-0.28125 0.679688,-0.46875 1.007813,-0.46875 0.5625,0 0.796875,0.4101563 0.796875,1.0546875 v 1.50000001 c 0,0.6328125 -0.105469,0.66796875 -0.632813,0.7265625 V -6.671875e-4 Z M 20.680664,-0.94988594 c -0.328125,0.3046875 -0.667969,0.4453125 -1.019531,0.4453125 -0.632813,0 -1.335938,-0.50390626 -1.347656,-1.72265626 1.066406,-0.046875 2.191406,-0.1289062 2.355468,-0.1640625 0.152344,-0.035156 0.199219,-0.1054687 0.199219,-0.28125 0,-0.703125 -0.597656,-1.3710937 -1.347656,-1.3710937 -0.46875,0 -0.949219,0.2460937 -1.324219,0.65625 -0.363281,0.4101562 -0.597656,0.9609375 -0.597656,1.5820312 0,1.00781251 0.65625,1.91015626 1.757812,1.91015626 0.28125,0 0.902344,-0.1640625 1.464844,-0.8671875 z M 19.30957,-3.7037922 c 0.492188,0 0.796875,0.421875 0.785157,0.890625 0,0.1289063 -0.04687,0.1875 -0.210938,0.1875 -0.527344,0.011719 -1.019531,0.023437 -1.523437,0.023437 0.128906,-0.7265625 0.527343,-1.1015625 0.949218,-1.101562 z m 3.416016,0.6210938 v -0.984375 c -0.433594,0.1875 -0.832031,0.2929687 -1.265625,0.3632812 v 0.1992188 c 0.503906,0.070312 0.550781,0.1054687 0.550781,0.703125 v 1.86328121 c 0,0.59765625 -0.05859,0.64453125 -0.621094,0.703125 v 0.2343750025 h 2.074219 V -0.23504219 c -0.691406,-0.0585937 -0.738281,-0.10546875 -0.738281,-0.703125 V -2.5787922 c 0.199219,-0.5039062 0.480469,-0.7734375 0.714844,-0.7734375 0.152343,0 0.257812,0.046875 0.386718,0.1875 0.04687,0.046875 0.128907,0.058594 0.234375,0.011719 0.175782,-0.082031 0.292969,-0.2578125 0.292969,-0.4335938 0,-0.2226562 -0.210937,-0.4570312 -0.527344,-0.4570312 -0.421875,0 -0.808593,0.5039062 -1.078125,0.9609375 z m 5.610351,2.73046871 -0.09375,-0.234375 c -0.09375,0.0585938 -0.222656,0.10546875 -0.328125,0.10546875 -0.152343,0 -0.316406,-0.140625 -0.316406,-0.55078126 v -1.6640625 c 0,-0.46875 -0.08203,-0.84375 -0.398437,-1.1015625 C 27,-3.9616047 26.730469,-4.0436359 26.460937,-4.0436359 c -0.515625,0.1054687 -1.101562,0.4570312 -1.347656,0.6328125 -0.175781,0.1289062 -0.292969,0.2226562 -0.292969,0.3632812 0,0.1992188 0.234375,0.3867188 0.398438,0.3867188 0.128906,0 0.222656,-0.070312 0.257812,-0.2109375 0.07031,-0.28125 0.152344,-0.4804688 0.269532,-0.5976563 0.09375,-0.1054687 0.222656,-0.1757812 0.410156,-0.1757812 0.445312,0 0.75,0.3632812 0.75,1.0195312 v 0.1640625 c -0.199219,0.1523438 -0.855469,0.3984375 -1.394531,0.5742188 -0.492188,0.1757812 -0.726563,0.4570312 -0.726563,0.90234371 0,0.5625 0.445313,1.08984375 1.078125,1.08984375 0.269531,0 0.703125,-0.328125 1.066406,-0.57421875 0.04687,0.15234375 0.09375,0.28125 0.210938,0.41015625 0.105469,0.08203125 0.292969,0.1640625 0.421875,0.1640625 z M 26.90625,-0.76238594 c -0.164063,0.1640625 -0.480469,0.31640625 -0.714844,0.328125 -0.28125,0 -0.644531,-0.22265625 -0.644531,-0.69140626 0,-0.328125 0.199219,-0.4921875 0.550781,-0.65625 0.1875,-0.09375 0.621094,-0.28125 0.808594,-0.375 z m 6.404297,-2.16796876 c -0.03516,-0.2226562 -0.128906,-0.75 -0.199219,-0.9609375 -0.1875,-0.070312 -0.433594,-0.1523437 -0.796875,-0.1523437 -0.832031,0 -1.371094,0.5273437 -1.371094,1.1601562 0,0.6914063 0.585938,0.9960938 1.125,1.2421875 0.445313,0.2109375 0.703125,0.421875 0.703125,0.82031251 0,0.375 -0.304687,0.6328125 -0.632812,0.6328125 -0.539063,0 -0.949219,-0.52734375 -1.113281,-1.11328121 l -0.234375,0.035156 c 0,0.32812501 0.08203,0.93750001 0.152343,1.06640626 0.164063,0.140625 0.574219,0.3046875 1.03125,0.3046875 0.726563,0 1.488282,-0.421875 1.488282,-1.24218746 0,-0.6210938 -0.457032,-0.9375 -1.136719,-1.21875 -0.410156,-0.1757813 -0.761719,-0.375 -0.761719,-0.7851563 0,-0.3515625 0.246094,-0.6210937 0.585938,-0.6210937 0.433593,0 0.75,0.3632812 0.925781,0.890625 z m 1.898437,-0.4921875 v -0.7148437 c -0.421875,0.1757812 -0.925781,0.328125 -1.3125,0.3984375 v 0.2109375 c 0.5625,0.070312 0.597657,0.09375 0.597657,0.6796875 v 4.0664062 c 0,0.5859375 -0.08203,0.6445313 -0.65625,0.703125 v 0.234375 h 2.132812 V 1.9212078 C 35.267578,1.8508953 35.208984,1.8040203 35.208984,1.1243328 v -1.18359374 c 0.117188,0.0703125 0.363282,0.15234375 0.621094,0.1640625 1.171875,-0.2109375 2.238281,-1.08984375 2.238281,-2.44921876 0,-0.890625 -0.597656,-1.6992187 -1.59375,-1.6992187 -0.105468,0 -0.28125,0.046875 -0.445312,0.140625 z m 0,0.3046875 c 0.246094,-0.1875 0.609375,-0.3867187 0.902344,-0.3867187 0.65625,0 1.207031,0.5390625 1.207031,1.5117187 0,1.00781251 -0.515625,1.66406251 -1.265625,1.66406251 -0.304687,0 -0.644531,-0.15234375 -0.84375,-0.3515625 z m 7.139649,2.76562501 -0.09375,-0.234375 c -0.09375,0.0585938 -0.222656,0.10546875 -0.328125,0.10546875 -0.152344,0 -0.316406,-0.140625 -0.316406,-0.55078126 v -1.6640625 c 0,-0.46875 -0.08203,-0.84375 -0.398438,-1.1015625 -0.199219,-0.1640625 -0.46875,-0.2460937 -0.738281,-0.2460937 -0.515625,0.1054687 -1.101563,0.4570312 -1.347656,0.6328125 -0.175782,0.1289062 -0.292969,0.2226562 -0.292969,0.3632812 0,0.1992188 0.234375,0.3867188 0.398437,0.3867188 0.128907,0 0.222657,-0.070312 0.257813,-0.2109375 0.07031,-0.28125 0.152344,-0.4804688 0.269531,-0.5976563 0.09375,-0.1054687 0.222656,-0.1757812 0.410156,-0.1757812 0.445313,0 0.75,0.3632812 0.75,1.0195312 v 0.1640625 c -0.199218,0.1523438 -0.855468,0.3984375 -1.394531,0.5742188 -0.492187,0.1757812 -0.726562,0.4570312 -0.726562,0.90234371 0,0.5625 0.445312,1.08984375 1.078125,1.08984375 0.269531,0 0.703125,-0.328125 1.066406,-0.57421875 0.04687,0.15234375 0.09375,0.28125 0.210937,0.41015625 0.105469,0.08203125 0.292969,0.1640625 0.421875,0.1640625 z m -1.429688,-0.41015625 c -0.164062,0.1640625 -0.480468,0.31640625 -0.714843,0.328125 -0.28125,0 -0.644532,-0.22265625 -0.644532,-0.69140626 0,-0.328125 0.199219,-0.4921875 0.550782,-0.65625 0.1875,-0.09375 0.621093,-0.28125 0.808593,-0.375 z m 4.995117,-0.234375 c -0.410156,0.38671875 -0.703125,0.4921875 -1.089843,0.4921875 -0.503907,0 -1.359375,-0.41015625 -1.359375,-1.66406246 0,-0.9492188 0.515625,-1.4414063 1.113281,-1.4414063 0.316406,0 0.632812,0.1171875 0.902344,0.375 0.08203,0.070312 0.117187,0.09375 0.164062,0.09375 0.105469,0 0.304688,-0.1992187 0.304688,-0.3867187 0,-0.1054688 -0.03516,-0.1757813 -0.152344,-0.28125 C 45.65625,-3.9264484 45.363281,-4.0436359 45,-4.0436359 c -0.351563,0 -0.890625,0.140625 -1.359375,0.5039062 -0.597656,0.46875 -0.902344,1.078125 -0.902344,1.7695313 0,0.96093746 0.667969,1.87499996 1.804688,1.87499996 0.527343,0 1.136718,-0.3984375 1.523437,-0.9140625 z m 3.700196,0.046875 c -0.328125,0.3046875 -0.667969,0.4453125 -1.019531,0.4453125 -0.632813,0 -1.335938,-0.50390626 -1.347657,-1.72265626 1.066407,-0.046875 2.191407,-0.1289062 2.355469,-0.1640625 0.152344,-0.035156 0.199219,-0.1054687 0.199219,-0.28125 0,-0.703125 -0.597656,-1.3710937 -1.347656,-1.3710937 -0.46875,0 -0.949219,0.2460937 -1.324219,0.65625 -0.363281,0.4101562 -0.597656,0.9609375 -0.597656,1.5820312 0,1.00781251 0.65625,1.91015626 1.757812,1.91015626 0.28125,0 0.902344,-0.1640625 1.464844,-0.8671875 z M 48.243164,-3.7037922 c 0.492188,0 0.796875,0.421875 0.785156,0.890625 0,0.1289063 -0.04687,0.1875 -0.210937,0.1875 -0.527344,0.011719 -1.019531,0.023437 -1.523438,0.023437 0.128907,-0.7265625 0.527344,-1.1015625 0.949219,-1.101562 z m 2.818359,0 c -0.292968,0 -0.503906,0.2109375 -0.503906,0.5039063 0,0.3046875 0.210938,0.5273437 0.503906,0.5273437 0.28125,0 0.503907,-0.2226562 0.503907,-0.5273437 0,-0.2929688 -0.222657,-0.5039063 -0.503907,-0.5039063 z m 0,3.80859376 c 0.292969,0 0.503907,-0.19921875 0.503907,-0.515625 0,-0.29296875 -0.210938,-0.515625 -0.503907,-0.515625 -0.28125,0 -0.503906,0.22265625 -0.503906,0.515625 0,0.31640625 0.222656,0.515625 0.503906,0.515625 z m 5.759766,1.21875004 c -0.890625,-0.76171879 -1.40625,-2.20312504 -1.40625,-3.75 0,-1.546875 0.515625,-3 1.40625,-3.75 l -0.152344,-0.2109375 c -1.324218,0.9023437 -1.910156,2.3320312 -1.910156,3.9492187 0,1.62890626 0.585938,3.08203126 1.910156,3.9609375 z m 2.575195,-7.0429688 c -1.347656,0 -1.839843,1.6054688 -1.839843,2.9179688 0,1.4179687 0.480468,2.90624996 1.839843,2.90624996 1.359375,0 1.828125,-1.59374996 1.828125,-2.91796876 0,-1.3828125 -0.46875,-2.90625 -1.828125,-2.90625 z m 0,0.3046875 c 0.808594,0 1.03125,1.3242188 1.03125,2.6015625 0,1.265625 -0.222656,2.61328126 -1.03125,2.61328126 -0.773437,0 -1.042968,-1.35937496 -1.042968,-2.61328126 0,-1.2539062 0.222656,-2.6015625 1.042968,-2.6015625 z m 3.00586,4.2539063 c -0.210938,0 -0.433594,0.140625 -0.433594,0.36328121 0,0.15234375 0.07031,0.22265625 0.117187,0.234375 0.304688,0.0703125 0.5625,0.26953125 0.5625,0.59765625 0,0.33984375 -0.257812,0.57421875 -0.691406,0.76171875 l 0.09375,0.25781249 c 0.550781,-0.16406249 1.183594,-0.55078124 1.183594,-1.24218749 0,-0.6328125 -0.503906,-0.97265621 -0.832031,-0.97265621 z m 5.408203,-4.5585938 c -1.347656,0 -1.839844,1.6054688 -1.839844,2.9179688 0,1.4179687 0.480469,2.90624996 1.839844,2.90624996 1.359375,0 1.828125,-1.59374996 1.828125,-2.91796876 0,-1.3828125 -0.46875,-2.90625 -1.828125,-2.90625 z m 0,0.3046875 c 0.808594,0 1.03125,1.3242188 1.03125,2.6015625 0,1.265625 -0.222656,2.61328126 -1.03125,2.61328126 -0.773438,0 -1.042969,-1.35937496 -1.042969,-2.61328126 0,-1.2539062 0.222656,-2.6015625 1.042969,-2.6015625 z m 3.008789,4.2539063 c -0.210938,0 -0.433594,0.140625 -0.433594,0.36328121 0,0.15234375 0.07031,0.22265625 0.117188,0.234375 0.304687,0.0703125 0.5625,0.26953125 0.5625,0.59765625 0,0.33984375 -0.257813,0.57421875 -0.691407,0.76171875 l 0.09375,0.25781249 c 0.550782,-0.16406249 1.183594,-0.55078124 1.183594,-1.24218749 0,-0.6328125 -0.503906,-0.97265621 -0.832031,-0.97265621 z m 5.405273,-4.5585938 c -1.347656,0 -1.839843,1.6054688 -1.839843,2.9179688 0,1.4179687 0.480468,2.90624996 1.839843,2.90624996 1.359375,0 1.828125,-1.59374996 1.828125,-2.91796876 0,-1.3828125 -0.46875,-2.90625 -1.828125,-2.90625 z m 0,0.3046875 c 0.808594,0 1.03125,1.3242188 1.03125,2.6015625 0,1.265625 -0.222656,2.61328126 -1.03125,2.61328126 -0.773437,0 -1.042968,-1.35937496 -1.042968,-2.61328126 0,-1.2539062 0.222656,-2.6015625 1.042968,-2.6015625 z m 2.575196,-0.7617187 c 0.890625,0.7382812 1.417968,2.203125 1.417968,3.75 0,1.54687496 -0.503906,2.98828121 -1.417968,3.75 l 0.164062,0.1992187 c 1.347656,-0.91406249 1.898438,-2.33203124 1.898438,-3.9492187 0,-1.6289063 -0.550782,-3.0585938 -1.898438,-3.9609375 z M 44.267578,-72.753597 h -2.121094 v 0.246094 c 0.621094,0.03516 0.832032,0.152344 0.878907,0.5625 0.03516,0.246094 0.07031,0.667969 0.07031,1.488281 v 2.214844 h -0.03516 l -3.75,-4.511719 h -1.335938 v 0.246094 c 0.421875,0.03516 0.621094,0.117187 0.808594,0.339844 0.164063,0.210937 0.175781,0.246093 0.175781,0.902343 v 1.980469 c 0,0.832031 -0.02344,1.265625 -0.05859,1.546875 -0.03516,0.433594 -0.269532,0.550781 -0.785157,0.574219 v 0.257812 h 2.132813 v -0.257812 c -0.609375,-0.03516 -0.820313,-0.140625 -0.867188,-0.597656 -0.02344,-0.257813 -0.04687,-0.691407 -0.04687,-1.523438 v -2.261719 h 0.01172 l 3.832031,4.722657 h 0.28125 v -3.632813 c 0,-0.832031 0.02344,-1.242187 0.05859,-1.511719 0.03516,-0.386718 0.246094,-0.503906 0.75,-0.539062 z m 0.594727,0 v 0.257813 c 0.691406,0.05859 0.773437,0.09375 0.773437,0.867187 v 3.609375 c 0,0.761719 -0.08203,0.820313 -0.855469,0.867188 v 0.246093 h 2.132813 c 1.113281,0 2.003906,-0.222656 2.671875,-0.75 0.703125,-0.515625 1.113281,-1.324218 1.113281,-2.402343 0,-0.84375 -0.316406,-1.5 -0.761719,-1.933594 -0.550781,-0.527344 -1.394531,-0.761719 -2.542968,-0.761719 z m 1.546875,0.925781 c 0,-0.351562 0.02344,-0.445312 0.117187,-0.515625 0.08203,-0.05859 0.316406,-0.105468 0.691406,-0.105468 0.609375,0 1.125,0.105468 1.535157,0.363281 0.714843,0.421875 1.066406,1.230469 1.066406,2.15625 0,1.441406 -0.773438,2.695312 -2.460938,2.695312 -0.65625,0 -0.949218,-0.164062 -0.949218,-0.855468 z m 10.385742,3.339844 c -0.457031,0.902344 -0.9375,1.394531 -1.863281,1.394531 -1.359375,0 -2.355469,-1.148437 -2.355469,-2.835937 0,-1.371094 0.796875,-2.636719 2.308594,-2.636719 0.972656,0 1.511718,0.386719 1.746093,1.335938 l 0.269532,-0.05859 c -0.05859,-0.480469 -0.105469,-0.84375 -0.1875,-1.359375 -0.246094,-0.04687 -0.855469,-0.246094 -1.59375,-0.246094 -2.003907,0 -3.457032,1.253906 -3.457032,3.140625 0,1.429688 0.984375,2.988281 3.222657,2.988281 0.644531,0 1.40625,-0.1875 1.652343,-0.246093 0.164063,-0.304688 0.386719,-0.960938 0.515625,-1.382813 z m 1.485351,-2.121094 c -0.292968,0 -0.503906,0.210938 -0.503906,0.503907 0,0.304687 0.210938,0.527343 0.503906,0.527343 0.28125,0 0.503907,-0.222656 0.503907,-0.527343 0,-0.292969 -0.222657,-0.503907 -0.503907,-0.503907 z m 0,3.808594 c 0.292969,0 0.503907,-0.199219 0.503907,-0.515625 0,-0.292969 -0.210938,-0.515625 -0.503907,-0.515625 -0.28125,0 -0.503906,0.222656 -0.503906,0.515625 0,0.316406 0.222656,0.515625 0.503906,0.515625 z m 5.756836,1.21875 c -0.890625,-0.761719 -1.40625,-2.203125 -1.40625,-3.75 0,-1.546875 0.515625,-3 1.40625,-3.75 l -0.152343,-0.210937 c -1.324219,0.902343 -1.910157,2.332031 -1.910157,3.949218 0,1.628907 0.585938,3.082032 1.910157,3.960938 z m 2.575196,-7.042969 c -1.347657,0 -1.839844,1.605469 -1.839844,2.917969 0,1.417969 0.480469,2.90625 1.839844,2.90625 1.359375,0 1.828125,-1.59375 1.828125,-2.917969 0,-1.382812 -0.46875,-2.90625 -1.828125,-2.90625 z m 0,0.304688 c 0.808593,0 1.03125,1.324219 1.03125,2.601562 0,1.265625 -0.222657,2.613282 -1.03125,2.613282 -0.773438,0 -1.042969,-1.359375 -1.042969,-2.613282 0,-1.253906 0.222656,-2.601562 1.042969,-2.601562 z m 3.008789,4.253906 c -0.210938,0 -0.433594,0.140625 -0.433594,0.363281 0,0.152344 0.07031,0.222657 0.117187,0.234375 0.304688,0.07031 0.5625,0.269532 0.5625,0.597657 0,0.339843 -0.257812,0.574218 -0.691406,0.761718 l 0.09375,0.257813 c 0.550781,-0.164063 1.183594,-0.550781 1.183594,-1.242188 0,-0.632812 -0.503906,-0.972656 -0.832031,-0.972656 z m 5.408203,-4.558594 c -1.347656,0 -1.839844,1.605469 -1.839844,2.917969 0,1.417969 0.480469,2.90625 1.839844,2.90625 1.359375,0 1.828125,-1.59375 1.828125,-2.917969 0,-1.382812 -0.46875,-2.90625 -1.828125,-2.90625 z m 0,0.304688 c 0.808594,0 1.03125,1.324219 1.03125,2.601562 0,1.265625 -0.222656,2.613282 -1.03125,2.613282 -0.773438,0 -1.042969,-1.359375 -1.042969,-2.613282 0,-1.253906 0.222656,-2.601562 1.042969,-2.601562 z m 3.005859,4.253906 c -0.210937,0 -0.433594,0.140625 -0.433594,0.363281 0,0.152344 0.07031,0.222657 0.117188,0.234375 0.304687,0.07031 0.5625,0.269532 0.5625,0.597657 0,0.339843 -0.257813,0.574218 -0.691406,0.761718 l 0.09375,0.257813 c 0.550781,-0.164063 1.183593,-0.550781 1.183593,-1.242188 0,-0.632812 -0.503906,-0.972656 -0.832031,-0.972656 z m 5.408203,-4.558594 c -1.347656,0 -1.839843,1.605469 -1.839843,2.917969 0,1.417969 0.480468,2.90625 1.839843,2.90625 1.359375,0 1.828125,-1.59375 1.828125,-2.917969 0,-1.382812 -0.46875,-2.90625 -1.828125,-2.90625 z m 0,0.304688 c 0.808594,0 1.03125,1.324219 1.03125,2.601562 0,1.265625 -0.222656,2.613282 -1.03125,2.613282 -0.773437,0 -1.042968,-1.359375 -1.042968,-2.613282 0,-1.253906 0.222656,-2.601562 1.042968,-2.601562 z m 2.575196,-0.761719 c 0.890625,0.738281 1.417968,2.203125 1.417968,3.75 0,1.546875 -0.503906,2.988281 -1.417968,3.75 l 0.164062,0.199219 c 1.347656,-0.914063 1.898438,-2.332031 1.898438,-3.949219 0,-1.628906 -0.550782,-3.058594 -1.898438,-3.960937 z M 107.57227,-135.3786 h -2.1211 v 0.2461 c 0.6211,0.0351 0.83203,0.15234 0.87891,0.5625 0.0352,0.24609 0.0703,0.66797 0.0703,1.48828 v 2.21484 h -0.0352 l -3.75,-4.51172 h -1.33593 v 0.2461 c 0.42187,0.0351 0.62109,0.11718 0.80859,0.33984 0.16406,0.21094 0.17578,0.24609 0.17578,0.90234 v 1.98047 c 0,0.83203 -0.0234,1.26563 -0.0586,1.54688 -0.0352,0.43359 -0.26953,0.55078 -0.78516,0.57422 v 0.25781 h 2.13281 v -0.25781 c -0.60937,-0.0352 -0.82031,-0.14063 -0.86718,-0.59766 -0.0234,-0.25781 -0.0469,-0.69141 -0.0469,-1.52344 v -2.26172 h 0.0117 l 3.83203,4.72266 h 0.28125 v -3.63281 c 0,-0.83203 0.0234,-1.24219 0.0586,-1.51172 0.0352,-0.38672 0.24609,-0.50391 0.75,-0.53906 z m 0.59179,0 v 0.25782 c 0.69141,0.0586 0.77344,0.0937 0.77344,0.86718 v 3.60938 c 0,0.76172 -0.082,0.82031 -0.85547,0.86719 v 0.24609 h 2.13281 c 1.11329,0 2.00391,-0.22266 2.67188,-0.75 0.70312,-0.51563 1.11328,-1.32422 1.11328,-2.40234 0,-0.84375 -0.31641,-1.5 -0.76172,-1.9336 -0.55078,-0.52734 -1.39453,-0.76172 -2.54297,-0.76172 z m 1.54688,0.92578 c 0,-0.35156 0.0234,-0.44531 0.11719,-0.51562 0.082,-0.0586 0.3164,-0.10547 0.6914,-0.10547 0.60938,0 1.125,0.10547 1.53516,0.36328 0.71484,0.42188 1.0664,1.23047 1.0664,2.15625 0,1.44141 -0.77343,2.69531 -2.46093,2.69531 -0.65625,0 -0.94922,-0.16406 -0.94922,-0.85546 z m 10.38867,3.33985 c -0.45703,0.90234 -0.9375,1.39453 -1.86328,1.39453 -1.35938,0 -2.35547,-1.14844 -2.35547,-2.83594 0,-1.37109 0.79687,-2.63672 2.30859,-2.63672 0.97266,0 1.51172,0.38672 1.7461,1.33594 l 0.26953,-0.0586 c -0.0586,-0.48047 -0.10547,-0.84375 -0.1875,-1.35938 -0.2461,-0.0469 -0.85547,-0.24609 -1.59375,-0.24609 -2.00391,0 -3.45703,1.2539 -3.45703,3.14062 0,1.42969 0.98437,2.98828 3.22265,2.98828 0.64453,0 1.40625,-0.1875 1.65235,-0.24609 0.16406,-0.30469 0.38672,-0.96094 0.51562,-1.38281 z m 1.48242,-2.1211 c -0.29297,0 -0.5039,0.21094 -0.5039,0.50391 0,0.30469 0.21093,0.52734 0.5039,0.52734 0.28125,0 0.50391,-0.22265 0.50391,-0.52734 0,-0.29297 -0.22266,-0.50391 -0.50391,-0.50391 z m 0,3.8086 c 0.29297,0 0.50391,-0.19922 0.50391,-0.51563 0,-0.29297 -0.21094,-0.51562 -0.50391,-0.51562 -0.28125,0 -0.5039,0.22265 -0.5039,0.51562 0,0.31641 0.22265,0.51563 0.5039,0.51563 z m 5.75977,1.21875 c -0.89063,-0.76172 -1.40625,-2.20313 -1.40625,-3.75 0,-1.54688 0.51562,-3 1.40625,-3.75 l -0.15235,-0.21094 c -1.32422,0.90234 -1.91015,2.33203 -1.91015,3.94922 0,1.62891 0.58593,3.08203 1.91015,3.96094 z m 2.57519,-7.04297 c -1.34765,0 -1.83984,1.60547 -1.83984,2.91797 0,1.41797 0.48047,2.90625 1.83984,2.90625 1.35938,0 1.82813,-1.59375 1.82813,-2.91797 0,-1.38281 -0.46875,-2.90625 -1.82813,-2.90625 z m 0,0.30469 c 0.8086,0 1.03125,1.32422 1.03125,2.60156 0,1.26562 -0.22265,2.61328 -1.03125,2.61328 -0.77344,0 -1.04297,-1.35937 -1.04297,-2.61328 0,-1.25391 0.22266,-2.60156 1.04297,-2.60156 z m 3.00879,4.2539 c -0.21094,0 -0.43359,0.14063 -0.43359,0.36328 0,0.15235 0.0703,0.22266 0.11718,0.23438 0.30469,0.0703 0.5625,0.26953 0.5625,0.59766 0,0.33984 -0.25781,0.57421 -0.6914,0.76171 l 0.0937,0.25782 c 0.55078,-0.16407 1.18359,-0.55078 1.18359,-1.24219 0,-0.63281 -0.5039,-0.97266 -0.83203,-0.97266 z m 5.40527,-4.55859 c -1.34765,0 -1.83984,1.60547 -1.83984,2.91797 0,1.41797 0.48047,2.90625 1.83984,2.90625 1.35938,0 1.82813,-1.59375 1.82813,-2.91797 0,-1.38281 -0.46875,-2.90625 -1.82813,-2.90625 z m 0,0.30469 c 0.8086,0 1.03125,1.32422 1.03125,2.60156 0,1.26562 -0.22265,2.61328 -1.03125,2.61328 -0.77343,0 -1.04296,-1.35937 -1.04296,-2.61328 0,-1.25391 0.22265,-2.60156 1.04296,-2.60156 z m 3.00879,4.2539 c -0.21093,0 -0.43359,0.14063 -0.43359,0.36328 0,0.15235 0.0703,0.22266 0.11719,0.23438 0.30468,0.0703 0.5625,0.26953 0.5625,0.59766 0,0.33984 -0.25782,0.57421 -0.69141,0.76171 l 0.0937,0.25782 c 0.55078,-0.16407 1.18359,-0.55078 1.18359,-1.24219 0,-0.63281 -0.5039,-0.97266 -0.83203,-0.97266 z m 6.70899,1.16016 v -0.24609 c -0.82031,-0.0586 -0.87891,-0.12891 -0.87891,-0.78516 v -4.6875 c -0.49219,0.19922 -1.01953,0.375 -1.59375,0.46875 v 0.21094 l 0.4336,0.0117 c 0.38671,0.0234 0.42187,0.0703 0.42187,0.53906 v 3.45703 c 0,0.65625 -0.0352,0.72656 -0.85547,0.78516 v 0.24609 z m 1.27148,-6.17578 c 0.89063,0.73828 1.41797,2.20312 1.41797,3.75 0,1.54687 -0.50391,2.98828 -1.41797,3.75 l 0.16406,0.19922 c 1.34766,-0.91407 1.89844,-2.33203 1.89844,-3.94922 0,-1.62891 -0.55078,-3.0586 -1.89844,-3.96094 z m 0,0"
           style="fill:#231f20;fill-opacity:1;fill-rule:nonzero;stroke:none" />
        <path
           id="path33"
           d="m 149.94434,-23.40887 c -0.22266,0.246093 -0.39844,0.351562 -0.55079,0.351562 -0.15234,0 -0.30468,-0.01172 -0.72656,-0.09375 -0.43359,-0.07031 -0.70312,-0.105469 -0.94922,-0.105469 -0.22265,0 -0.44531,0.1875 -0.65625,0.527344 -0.14062,0.234375 -0.24609,0.445313 -0.375,0.726563 l 0.23438,0.105468 c 0.25781,-0.457031 0.46875,-0.761718 0.89062,-0.761718 0.22266,0 0.6211,0.02344 0.85547,0.05859 0.19922,0.01172 0.39844,0 0.55078,-0.03516 -0.83203,0.890625 -1.875,1.910156 -2.49609,2.578125 -0.55078,0.574219 -0.48047,0.832031 -0.32813,0.902344 0.0469,0.01172 0.0703,-0.02344 0.10547,-0.08203 0.082,-0.117188 0.1875,-0.234375 0.29297,-0.304688 0.11719,-0.08203 0.26953,-0.09375 0.55078,0.04687 0.39844,0.199219 0.91407,0.433594 1.20703,0.433594 0.38672,0 0.75,-0.269531 1.24219,-1.242188 l -0.19922,-0.164062 c -0.41015,0.609375 -0.67968,0.761719 -0.92578,0.761719 -0.22265,0 -0.51562,-0.117188 -0.80859,-0.210938 -0.26953,-0.117187 -0.50391,-0.164062 -0.67969,-0.152344 0.66797,-0.703125 1.85156,-1.886718 2.42578,-2.542968 0.2461,-0.269532 0.41016,-0.457032 0.52735,-0.597657 z m 0,0"
           style="fill:#231f20;fill-opacity:1;fill-rule:nonzero;stroke:none" />
        <path
           id="path34"
           d="m 156.74121,-22.131527 v -0.445312 h -4.28906 v 0.445312 z m 0,1.652344 v -0.445312 h -4.28906 v 0.445312 z m 7.21289,1.242188 v -0.234375 c -0.52734,-0.05859 -0.57422,-0.09375 -0.57422,-0.703125 v -1.734375 c 0,-0.878907 -0.44531,-1.371094 -1.16015,-1.371094 -0.25782,0 -0.49219,0.105469 -0.75,0.269531 -0.22266,0.152344 -0.42188,0.292969 -0.59766,0.421875 v -0.714844 c -0.39844,0.175782 -0.82031,0.28125 -1.25391,0.363282 v 0.210937 c 0.49219,0.09375 0.53907,0.117188 0.53907,0.691406 v 1.863282 c 0,0.597656 -0.0469,0.644531 -0.65625,0.703125 v 0.234375 h 1.95703 v -0.234375 c -0.52735,-0.05859 -0.58594,-0.09375 -0.58594,-0.703125 v -2.109375 c 0.26953,-0.234375 0.62109,-0.46875 0.98438,-0.46875 0.59765,0 0.82031,0.410156 0.82031,1.03125 v 1.5 c 0,0.621093 -0.0703,0.691406 -0.59766,0.75 v 0.234375 z m 3.58887,-0.949219 c -0.32813,0.304687 -0.66797,0.445312 -1.01953,0.445312 -0.63282,0 -1.33594,-0.503906 -1.34766,-1.722656 1.06641,-0.04687 2.19141,-0.128906 2.35547,-0.164062 0.15234,-0.03516 0.19922,-0.105469 0.19922,-0.28125 0,-0.703125 -0.59766,-1.371094 -1.34766,-1.371094 -0.46875,0 -0.94922,0.246094 -1.32422,0.65625 -0.36328,0.410156 -0.59765,0.960937 -0.59765,1.582031 0,1.007813 0.65625,1.910156 1.75781,1.910156 0.28125,0 0.90234,-0.164062 1.46484,-0.867187 z m -1.3711,-2.753906 c 0.49219,0 0.79688,0.421875 0.78516,0.890625 0,0.128906 -0.0469,0.1875 -0.21094,0.1875 -0.52734,0.01172 -1.01953,0.02344 -1.52343,0.02344 0.1289,-0.726562 0.52734,-1.101562 0.94921,-1.101562 z m 5.74219,3.351562 -0.0937,-0.234375 c -0.0937,0.05859 -0.22265,0.105469 -0.32812,0.105469 -0.15235,0 -0.31641,-0.140625 -0.31641,-0.550781 v -1.664063 c 0,-0.46875 -0.082,-0.84375 -0.39844,-1.101562 -0.19922,-0.164063 -0.46875,-0.246094 -0.73828,-0.246094 -0.51562,0.105469 -1.10156,0.457031 -1.34765,0.632812 -0.17579,0.128907 -0.29297,0.222657 -0.29297,0.363282 0,0.199218 0.23437,0.386718 0.39843,0.386718 0.12891,0 0.22266,-0.07031 0.25782,-0.210937 0.0703,-0.28125 0.15234,-0.480469 0.26953,-0.597656 0.0937,-0.105469 0.22265,-0.175782 0.41015,-0.175782 0.44532,0 0.75,0.363282 0.75,1.019532 v 0.164062 c -0.19921,0.152344 -0.85546,0.398438 -1.39453,0.574219 -0.49218,0.175781 -0.72656,0.457031 -0.72656,0.902344 0,0.5625 0.44531,1.089843 1.07813,1.089843 0.26953,0 0.70312,-0.328125 1.0664,-0.574218 0.0469,0.152343 0.0937,0.28125 0.21094,0.410156 0.10547,0.08203 0.29297,0.164062 0.42187,0.164062 z m -1.42969,-0.410156 c -0.16406,0.164062 -0.48046,0.316406 -0.71484,0.328125 -0.28125,0 -0.64453,-0.222656 -0.64453,-0.691406 0,-0.328125 0.19922,-0.492188 0.55078,-0.65625 0.1875,-0.09375 0.62109,-0.28125 0.80859,-0.375 z m 3.02637,-2.320313 v -0.984375 c -0.43359,0.1875 -0.83203,0.292969 -1.26562,0.363282 v 0.199218 c 0.5039,0.07031 0.55078,0.105469 0.55078,0.703125 v 1.863282 c 0,0.597656 -0.0586,0.644531 -0.6211,0.703125 v 0.234375 h 2.07422 v -0.234375 c -0.6914,-0.05859 -0.73828,-0.105469 -0.73828,-0.703125 v -1.640625 c 0.19922,-0.503907 0.48047,-0.773438 0.71485,-0.773438 0.15234,0 0.25781,0.04687 0.38671,0.1875 0.0469,0.04687 0.12891,0.05859 0.23438,0.01172 0.17578,-0.08203 0.29297,-0.257813 0.29297,-0.433594 0,-0.222656 -0.21094,-0.457031 -0.52735,-0.457031 -0.42187,0 -0.80859,0.503906 -1.07812,0.960937 z m -20.88281,8.033204 h -2.12109 v 0.246093 c 0.62109,0.03516 0.83203,0.152344 0.8789,0.5625 0.0352,0.246094 0.0703,0.667969 0.0703,1.488282 v 2.2148433 h -0.0352 l -3.75,-4.5117183 h -1.33594 v 0.246093 c 0.42188,0.03516 0.62109,0.117188 0.80859,0.339844 0.16407,0.210938 0.17579,0.246094 0.17579,0.902344 v 1.980469 c 0,0.8320308 -0.0234,1.2656246 -0.0586,1.5468746 -0.0351,0.4335937 -0.26953,0.5507812 -0.78515,0.5742187 v 0.2578125 h 2.13281 v -0.2578125 c -0.60938,-0.035156 -0.82031,-0.140625 -0.86719,-0.5976562 -0.0234,-0.2578125 -0.0469,-0.6914063 -0.0469,-1.5234371 v -2.261719 h 0.0117 l 3.83204,4.7226561 h 0.28125 v -3.6328121 c 0,-0.832032 0.0234,-1.242188 0.0586,-1.511719 0.0352,-0.386719 0.24609,-0.503906 0.75,-0.539063 z m 0.59473,0 v 0.257812 c 0.6914,0.05859 0.77343,0.09375 0.77343,0.867188 v 3.6093746 c 0,0.7617187 -0.082,0.8203125 -0.85547,0.8671875 v 0.2460937 h 2.13282 c 1.11328,0 2.0039,-0.2226562 2.67187,-0.75 0.70313,-0.515625 1.11328,-1.3242188 1.11328,-2.4023438 0,-0.84375 -0.3164,-1.5 -0.76172,-1.933594 -0.55078,-0.527343 -1.39453,-0.761718 -2.54296,-0.761718 z m 1.54687,0.925781 c 0,-0.351563 0.0234,-0.445313 0.11719,-0.515625 0.082,-0.05859 0.3164,-0.105469 0.6914,-0.105469 0.60938,0 1.125,0.105469 1.53516,0.363281 0.71484,0.421875 1.06641,1.230469 1.06641,2.15625 0,1.441407 -0.77344,2.6953128 -2.46094,2.6953128 -0.65625,0 -0.94922,-0.1640625 -0.94922,-0.8554687 z m 10.38574,3.339844 c -0.45703,0.9023433 -0.9375,1.3945308 -1.86328,1.3945308 -1.35937,0 -2.35547,-1.1484375 -2.35547,-2.8359378 0,-1.371093 0.79688,-2.636718 2.3086,-2.636718 0.97265,0 1.51172,0.386718 1.74609,1.335937 l 0.26953,-0.05859 c -0.0586,-0.480468 -0.10547,-0.84375 -0.1875,-1.359375 -0.24609,-0.04687 -0.85547,-0.246093 -1.59375,-0.246093 -2.0039,0 -3.45703,1.253906 -3.45703,3.140625 0,1.4296871 0.98438,2.9882808 3.22266,2.9882808 0.64453,0 1.40625,-0.1875 1.65234,-0.2460937 0.16406,-0.3046875 0.38672,-0.9609375 0.51563,-1.3828125 z m 1.48535,-2.121094 c -0.29296,0 -0.5039,0.210937 -0.5039,0.503906 0,0.304688 0.21094,0.527344 0.5039,0.527344 0.28125,0 0.50391,-0.222656 0.50391,-0.527344 0,-0.292969 -0.22266,-0.503906 -0.50391,-0.503906 z m 0,3.8085936 c 0.29297,0 0.50391,-0.1992188 0.50391,-0.515625 0,-0.2929688 -0.21094,-0.515625 -0.50391,-0.515625 -0.28125,0 -0.5039,0.2226562 -0.5039,0.515625 0,0.3164062 0.22265,0.515625 0.5039,0.515625 z m 5.75977,1.21875 c -0.89062,-0.7617188 -1.40625,-2.203125 -1.40625,-3.7499996 0,-1.546875 0.51563,-3 1.40625,-3.75 l -0.15234,-0.210938 c -1.32422,0.902344 -1.91016,2.332031 -1.91016,3.949219 0,1.6289061 0.58594,3.0820311 1.91016,3.9609373 z m 3.87598,-1.3242188 v -0.2460937 c -0.82032,-0.058594 -0.87891,-0.1289063 -0.87891,-0.7851563 v -4.6874998 c -0.49219,0.199219 -1.01953,0.375 -1.59375,0.46875 v 0.210937 l 0.43359,0.01172 c 0.38672,0.02344 0.42188,0.07031 0.42188,0.539063 v 3.4570308 c 0,0.65625 -0.0352,0.7265625 -0.85547,0.7851563 v 0.2460937 z m 1.70508,-1.1601562 c -0.21094,0 -0.4336,0.140625 -0.4336,0.3632812 0,0.1523438 0.0703,0.2226563 0.11719,0.234375 0.30469,0.070312 0.5625,0.2695313 0.5625,0.5976563 0,0.3398437 -0.25781,0.5742187 -0.69141,0.7617187 l 0.0937,0.2578125 c 0.55078,-0.1640625 1.1836,-0.5507812 1.1836,-1.2421875 0,-0.6328125 -0.50391,-0.9726562 -0.83203,-0.9726562 z m 6.70898,1.1601562 v -0.2460937 c -0.82031,-0.058594 -0.87891,-0.1289063 -0.87891,-0.7851563 v -4.6874998 c -0.49218,0.199219 -1.01953,0.375 -1.59375,0.46875 v 0.210937 l 0.4336,0.01172 c 0.38672,0.02344 0.42187,0.07031 0.42187,0.539063 v 3.4570308 c 0,0.65625 -0.0351,0.7265625 -0.85547,0.7851563 v 0.2460937 z m 1.70508,-1.1601562 c -0.21094,0 -0.4336,0.140625 -0.4336,0.3632812 0,0.1523438 0.0703,0.2226563 0.11719,0.234375 0.30469,0.070312 0.5625,0.2695313 0.5625,0.5976563 0,0.3398437 -0.25781,0.5742187 -0.6914,0.7617187 l 0.0937,0.2578125 c 0.55078,-0.1640625 1.18359,-0.5507812 1.18359,-1.2421875 0,-0.6328125 -0.50391,-0.9726562 -0.83203,-0.9726562 z m 5.4082,-4.5585936 c -1.34766,0 -1.83984,1.605469 -1.83984,2.917969 0,1.4179683 0.48047,2.9062496 1.83984,2.9062496 1.35938,0 1.82813,-1.59375 1.82813,-2.9179686 0,-1.382813 -0.46875,-2.90625 -1.82813,-2.90625 z m 0,0.304687 c 0.80859,0 1.03125,1.324219 1.03125,2.601563 0,1.2656248 -0.22266,2.6132811 -1.03125,2.6132811 -0.77344,0 -1.04297,-1.359375 -1.04297,-2.6132811 0,-1.253906 0.22266,-2.601563 1.04297,-2.601563 z m 2.5752,-0.761718 c 0.89062,0.738281 1.41796,2.203125 1.41796,3.75 0,1.5468746 -0.5039,2.9882808 -1.41796,3.7499996 l 0.16406,0.1992187 c 1.34765,-0.9140625 1.89844,-2.3320312 1.89844,-3.9492183 0,-1.628907 -0.55079,-3.058594 -1.89844,-3.960938 z M 151.84277,2.1995281 c -0.19922,-0.046875 -0.41015,-0.1523437 -0.65625,-0.421875 -0.21093,-0.234375 -0.39843,-0.46875 -0.72656,-0.93749997 -0.26953,-0.3984375 -0.64453,-1.0078125 -0.79687,-1.30078125 0.66796,-0.29296875 1.13671,-0.76171878 1.13671,-1.53515628 0,-0.5507812 -0.23437,-0.9492187 -0.58593,-1.1835937 -0.35157,-0.2226563 -0.78516,-0.3046875 -1.44141,-0.3046875 h -2.23828 v 0.2460937 c 0.70312,0.070312 0.77344,0.09375 0.77344,0.8554688 v 3.6210937 c 0,0.7617188 -0.082,0.8203125 -0.82032,0.8671875 v 0.2578125 h 2.36719 V 2.1057781 c -0.71484,-0.046875 -0.79687,-0.1054687 -0.79687,-0.8671875 v -1.42968747 h 0.29297 c 0.46875,0 0.62109,0.10546875 0.77343,0.36328125 0.26953,0.43359375 0.58594,0.99609372 0.90235,1.42968752 0.41015,0.5859375 0.78515,0.7851562 1.46484,0.8203125 0.10547,0.011719 0.19922,0.011719 0.31641,0.011719 z m -3.78515,-2.68359372 V -2.6989094 c 0,-0.2460937 0.0352,-0.3515625 0.0937,-0.3984375 0.082,-0.058594 0.23437,-0.09375 0.49218,-0.09375 0.67969,0 1.32422,0.3632813 1.32422,1.3359375 0,0.4804688 -0.14062,0.84375 -0.49218,1.11328128 -0.23438,0.17578125 -0.52735,0.2578125 -0.98438,0.2578125 z m 7.75488,2.49609372 -0.0937,-0.234375 c -0.0937,0.058594 -0.22266,0.1054688 -0.32813,0.1054688 -0.15234,0 -0.3164,-0.140625 -0.3164,-0.5507813 v -1.66406247 c 0,-0.46875 -0.082,-0.84375003 -0.39844,-1.10156253 -0.19922,-0.1640625 -0.46875,-0.2460937 -0.73828,-0.2460937 -0.51563,0.1054687 -1.10156,0.4570312 -1.34766,0.6328125 -0.17578,0.12890623 -0.29297,0.22265623 -0.29297,0.36328123 0,0.19921875 0.23438,0.38671875 0.39844,0.38671875 0.12891,0 0.22266,-0.0703125 0.25781,-0.2109375 0.0703,-0.28125 0.15235,-0.48046875 0.26954,-0.59765628 0.0937,-0.1054687 0.22265,-0.1757812 0.41015,-0.1757812 0.44531,0 0.75,0.36328123 0.75,1.01953123 v 0.1640625 c -0.19922,0.15234375 -0.85547,0.3984375 -1.39453,0.57421875 -0.49219,0.17578125 -0.72656,0.45703125 -0.72656,0.90234372 0,0.5625 0.44531,1.0898438 1.07812,1.0898438 0.26953,0 0.70313,-0.328125 1.06641,-0.5742188 0.0469,0.1523438 0.0937,0.28125 0.21094,0.4101563 0.10547,0.082031 0.29297,0.1640625 0.42187,0.1640625 z m -1.42969,-0.4101562 c -0.16406,0.1640625 -0.48047,0.3164062 -0.71484,0.328125 -0.28125,0 -0.64453,-0.2226563 -0.64453,-0.6914063 0,-0.32812497 0.19922,-0.49218747 0.55078,-0.65624997 0.1875,-0.09375 0.62109,-0.28125 0.80859,-0.375 z m 4.33594,-2.16796877 c -0.0352,-0.22265625 -0.12891,-0.75000003 -0.19922,-0.96093753 -0.1875,-0.070312 -0.43359,-0.1523437 -0.79687,-0.1523437 -0.83204,0 -1.3711,0.5273437 -1.3711,1.16015623 0,0.69140625 0.58594,0.99609375 1.125,1.2421875 0.44531,0.2109375 0.70313,0.42187497 0.70313,0.82031247 0,0.375 -0.30469,0.6328125 -0.63282,0.6328125 -0.53906,0 -0.94921,-0.5273437 -1.11328,-1.1132812 l -0.23437,0.035156 c 0,0.328125 0.082,0.9375 0.15234,1.0664063 0.16406,0.140625 0.57422,0.3046875 1.03125,0.3046875 0.72656,0 1.48828,-0.421875 1.48828,-1.2421875 0,-0.62109377 -0.45703,-0.93750002 -1.13672,-1.21875002 -0.41015,-0.17578125 -0.76171,-0.375 -0.76171,-0.78515625 0,-0.35156253 0.24609,-0.62109373 0.58593,-0.62109373 0.4336,0 0.75,0.3632812 0.92578,0.89062498 z m 3.05859,2.60156247 -0.082,-0.234375 c -0.1289,0.070312 -0.32812,0.1523438 -0.5625,0.1523438 -0.22265,0 -0.51562,-0.1289063 -0.51562,-0.8554688 v -2.3203125 h 0.96093 c 0.10547,-0.058594 0.12891,-0.2578125 0.0586,-0.3515625 h -1.01953 v -1.2304687 l -0.12891,-0.011719 -0.58594,0.5859375 v 0.65625 h -0.41015 l -0.2461,0.2695313 0.0352,0.082031 h 0.62109 v 2.625 c 0,0.703125 0.31641,1.0664063 0.87891,1.0664063 0.082,0 0.23437,-0.035156 0.38672,-0.1171875 z m 3.41602,-0.6210937 c -0.32813,0.3046875 -0.66797,0.4453125 -1.01953,0.4453125 -0.63281,0 -1.33594,-0.5039063 -1.34766,-1.72265627 1.06641,-0.046875 2.19141,-0.12890625 2.35547,-0.1640625 0.15234,-0.03515625 0.19922,-0.10546875 0.19922,-0.28125 0,-0.70312503 -0.59766,-1.37109373 -1.34766,-1.37109373 -0.46875,0 -0.94922,0.2460937 -1.32422,0.65625 -0.36328,0.41015623 -0.59765,0.96093748 -0.59765,1.58203123 0,1.00781247 0.65625,1.91015627 1.75781,1.91015627 0.28125,0 0.90234,-0.1640625 1.46484,-0.8671875 z m -1.37109,-2.7539063 c 0.49218,0 0.79687,0.42187503 0.78515,0.89062503 0,0.12890625 -0.0469,0.1875 -0.21094,0.1875 -0.52734,0.0117187 -1.01953,0.0234375 -1.52343,0.0234375 0.1289,-0.7265625 0.52734,-1.10156253 0.94922,-1.10156253 z m 3.41601,0.62109378 V -1.7028156 c -0.43359,0.1875 -0.83203,0.2929687 -1.26562,0.3632812 v 0.1992188 c 0.5039,0.070312 0.55078,0.1054687 0.55078,0.70312498 V 1.4260906 c 0,0.5976563 -0.0586,0.6445313 -0.6211,0.703125 v 0.234375 h 2.07422 v -0.234375 c -0.6914,-0.058594 -0.73828,-0.1054687 -0.73828,-0.703125 v -1.64062497 c 0.19922,-0.50390625 0.48047,-0.7734375 0.71484,-0.7734375 0.15235,0 0.25782,0.046875 0.38672,0.1875 0.0469,0.046875 0.12891,0.0585938 0.23438,0.0117188 0.17578,-0.0820313 0.29297,-0.25781243 0.29297,-0.43359373 0,-0.2226562 -0.21094,-0.4570312 -0.52735,-0.4570312 -0.42187,0 -0.80859,0.5039062 -1.07812,0.96093743 z m 2.95606,-0.62109378 c -0.29297,0 -0.50391,0.2109375 -0.50391,0.50390628 0,0.3046875 0.21094,0.52734375 0.50391,0.52734375 0.28125,0 0.5039,-0.22265625 0.5039,-0.52734375 0,-0.29296878 -0.22265,-0.50390628 -0.5039,-0.50390628 z m 0,3.8085938 c 0.29296,0 0.5039,-0.1992188 0.5039,-0.515625 0,-0.2929688 -0.21094,-0.515625 -0.5039,-0.515625 -0.28125,0 -0.50391,0.2226562 -0.50391,0.515625 0,0.3164062 0.22266,0.515625 0.50391,0.515625 z m 5.75976,1.21875 c -0.89062,-0.7617188 -1.40625,-2.203125 -1.40625,-3.75000002 0,-1.54687498 0.51563,-2.99999998 1.40625,-3.74999998 l -0.15234,-0.2109375 c -1.32422,0.9023437 -1.91016,2.3320312 -1.91016,3.94921873 0,1.62890627 0.58594,3.08203127 1.91016,3.96093747 z m 2.04785,-4.40625002 V -1.7028156 c -0.43359,0.1875 -0.83203,0.2929687 -1.26562,0.3632812 v 0.1992188 c 0.5039,0.070312 0.55078,0.1054687 0.55078,0.70312498 V 1.4260906 c 0,0.5976563 -0.0586,0.6445313 -0.62109,0.703125 v 0.234375 h 2.07421 v -0.234375 c -0.6914,-0.058594 -0.73828,-0.1054687 -0.73828,-0.703125 v -1.64062497 c 0.19922,-0.50390625 0.48047,-0.7734375 0.71485,-0.7734375 0.15234,0 0.25781,0.046875 0.38672,0.1875 0.0469,0.046875 0.1289,0.0585938 0.23437,0.0117188 0.17578,-0.0820313 0.29297,-0.25781243 0.29297,-0.43359373 0,-0.2226562 -0.21094,-0.4570312 -0.52734,-0.4570312 -0.42188,0 -0.8086,0.5039062 -1.07813,0.96093743 z m 5.00391,2.13281252 c -0.32813,0.3046875 -0.66797,0.4453125 -1.01953,0.4453125 -0.63281,0 -1.33594,-0.5039063 -1.34766,-1.72265627 1.06641,-0.046875 2.19141,-0.12890625 2.35547,-0.1640625 0.15234,-0.03515625 0.19922,-0.10546875 0.19922,-0.28125 0,-0.70312503 -0.59766,-1.37109373 -1.34766,-1.37109373 -0.46875,0 -0.94922,0.2460937 -1.32422,0.65625 -0.36328,0.41015623 -0.59765,0.96093748 -0.59765,1.58203123 0,1.00781247 0.65625,1.91015627 1.75781,1.91015627 0.28125,0 0.90234,-0.1640625 1.46484,-0.8671875 z m -1.37109,-2.7539063 c 0.49218,0 0.79687,0.42187503 0.78515,0.89062503 0,0.12890625 -0.0469,0.1875 -0.21094,0.1875 -0.52734,0.0117187 -1.01953,0.0234375 -1.52343,0.0234375 0.1289,-0.7265625 0.52734,-1.10156253 0.94922,-1.10156253 z m 4.66699,0.77343753 c -0.0352,-0.22265625 -0.12891,-0.75000003 -0.19922,-0.96093753 -0.1875,-0.070312 -0.43359,-0.1523437 -0.79688,-0.1523437 -0.83203,0 -1.37109,0.5273437 -1.37109,1.16015623 0,0.69140625 0.58594,0.99609375 1.125,1.2421875 0.44531,0.2109375 0.70313,0.42187497 0.70313,0.82031247 0,0.375 -0.30469,0.6328125 -0.63282,0.6328125 -0.53906,0 -0.94922,-0.5273437 -1.11328,-1.1132812 l -0.23437,0.035156 c 0,0.328125 0.082,0.9375 0.15234,1.0664063 0.16406,0.140625 0.57422,0.3046875 1.03125,0.3046875 0.72656,0 1.48828,-0.421875 1.48828,-1.2421875 0,-0.62109377 -0.45703,-0.93750002 -1.13672,-1.21875002 -0.41015,-0.17578125 -0.76172,-0.375 -0.76172,-0.78515625 0,-0.35156253 0.2461,-0.62109373 0.58594,-0.62109373 0.4336,0 0.75,0.3632812 0.92578,0.89062498 z m 1.45312,3.03515627 c 0.28125,0 0.50391,-0.1992188 0.50391,-0.515625 0,-0.2929688 -0.22266,-0.515625 -0.50391,-0.515625 -0.29297,0 -0.5039,0.2226562 -0.5039,0.515625 0,0.3164062 0.21093,0.515625 0.5039,0.515625 z m 5.29688,-0.1054688 v -0.234375 c -0.55078,-0.070312 -0.65625,-0.1523437 -0.9961,-0.6679687 l -0.8789,-1.32421877 c 0.29297,-0.4453125 0.52734,-0.7734375 0.70312,-0.99609375 0.32813,-0.37499998 0.44532,-0.42187498 0.98438,-0.48046878 v -0.234375 h -1.62891 v 0.234375 c 0.38672,0.035156 0.44531,0.082031 0.28125,0.37500003 -0.16406,0.29296875 -0.33984,0.57421875 -0.51562,0.83203125 l -0.53907,-0.8203125 c -0.15234,-0.25781248 -0.1289,-0.33984378 0.25782,-0.38671878 v -0.234375 h -1.80469 v 0.234375 c 0.50391,0.058594 0.62109,0.1289063 0.89062,0.57421878 l 0.77344,1.21875 c -0.25781,0.41015625 -0.5039,0.76171872 -0.75,1.07812502 -0.36328,0.4570312 -0.45703,0.5273437 -1.01953,0.5976562 v 0.234375 h 1.6875 v -0.234375 c -0.46875,-0.070312 -0.49219,-0.1523437 -0.31641,-0.4570312 0.16407,-0.328125 0.375,-0.65625 0.57422,-0.96093752 l 0.66797,1.05468752 c 0.15235,0.2460937 0.082,0.3164062 -0.30469,0.3632812 v 0.234375 z m 0.81445,-1.1601562 c -0.21094,0 -0.43359,0.140625 -0.43359,0.3632812 0,0.1523438 0.0703,0.2226563 0.11718,0.234375 0.30469,0.070312 0.5625,0.2695313 0.5625,0.5976563 0,0.3398437 -0.25781,0.5742187 -0.6914,0.7617187 l 0.0937,0.2578125 c 0.55078,-0.1640625 1.18359,-0.5507812 1.18359,-1.2421875 0,-0.6328125 -0.5039,-0.9726562 -0.83203,-0.9726562 z m 4.88086,-1.92187502 V -1.7028156 c -0.43359,0.1875 -0.83203,0.2929687 -1.26562,0.3632812 v 0.1992188 c 0.5039,0.070312 0.55078,0.1054687 0.55078,0.70312498 V 1.4260906 c 0,0.5976563 -0.0586,0.6445313 -0.6211,0.703125 v 0.234375 h 2.07422 v -0.234375 c -0.6914,-0.058594 -0.73828,-0.1054687 -0.73828,-0.703125 v -1.64062497 c 0.19922,-0.50390625 0.48047,-0.7734375 0.71484,-0.7734375 0.15235,0 0.25782,0.046875 0.38672,0.1875 0.0469,0.046875 0.12891,0.0585938 0.23438,0.0117188 0.17578,-0.0820313 0.29297,-0.25781243 0.29297,-0.43359373 0,-0.2226562 -0.21094,-0.4570312 -0.52735,-0.4570312 -0.42187,0 -0.80859,0.5039062 -1.07812,0.96093743 z m 5.00098,2.13281252 c -0.32813,0.3046875 -0.66797,0.4453125 -1.01953,0.4453125 -0.63282,0 -1.33594,-0.5039063 -1.34766,-1.72265627 1.06641,-0.046875 2.19141,-0.12890625 2.35547,-0.1640625 0.15234,-0.03515625 0.19922,-0.10546875 0.19922,-0.28125 0,-0.70312503 -0.59766,-1.37109373 -1.34766,-1.37109373 -0.46875,0 -0.94922,0.2460937 -1.32422,0.65625 -0.36328,0.41015623 -0.59765,0.96093748 -0.59765,1.58203123 0,1.00781247 0.65625,1.91015627 1.75781,1.91015627 0.28125,0 0.90234,-0.1640625 1.46484,-0.8671875 z m -1.3711,-2.7539063 c 0.49219,0 0.79688,0.42187503 0.78516,0.89062503 0,0.12890625 -0.0469,0.1875 -0.21094,0.1875 -0.52734,0.0117187 -1.01953,0.0234375 -1.52344,0.0234375 0.12891,-0.7265625 0.52735,-1.10156253 0.94922,-1.10156253 z m 4.66992,0.77343753 c -0.0352,-0.22265625 -0.1289,-0.75000003 -0.19921,-0.96093753 -0.1875,-0.070312 -0.4336,-0.1523437 -0.79688,-0.1523437 -0.83203,0 -1.37109,0.5273437 -1.37109,1.16015623 0,0.69140625 0.58593,0.99609375 1.125,1.2421875 0.44531,0.2109375 0.70312,0.42187497 0.70312,0.82031247 0,0.375 -0.30469,0.6328125 -0.63281,0.6328125 -0.53906,0 -0.94922,-0.5273437 -1.11328,-1.1132812 l -0.23438,0.035156 c 0,0.328125 0.082,0.9375 0.15235,1.0664063 0.16406,0.140625 0.57422,0.3046875 1.03125,0.3046875 0.72656,0 1.48828,-0.421875 1.48828,-1.2421875 0,-0.62109377 -0.45703,-0.93750002 -1.13672,-1.21875002 -0.41016,-0.17578125 -0.76172,-0.375 -0.76172,-0.78515625 0,-0.35156253 0.24609,-0.62109373 0.58594,-0.62109373 0.43359,0 0.75,0.3632812 0.92578,0.89062498 z m 1.4502,3.03515627 c 0.28125,0 0.50391,-0.1992188 0.50391,-0.515625 0,-0.2929688 -0.22266,-0.515625 -0.50391,-0.515625 -0.29297,0 -0.50391,0.2226562 -0.50391,0.515625 0,0.3164062 0.21094,0.515625 0.50391,0.515625 z m 5.32324,-4.0429688 h -1.6289 v 0.234375 c 0.51562,0.070312 0.57421,0.1640625 0.46875,0.50390628 -0.1875,0.57421875 -0.57422,1.62890625 -0.83204,2.25000002 l -0.82031,-2.26171877 c -0.10547,-0.33984373 -0.0703,-0.42187503 0.35156,-0.49218753 v -0.234375 h -1.82812 v 0.234375 c 0.49219,0.070312 0.58594,0.1875 0.77344,0.67968753 0.26953,0.6328125 0.66797,1.72265627 1.03125,2.75390627 0.0586,0.1523437 0.0586,0.2695312 0.0117,0.4101562 -0.0352,0.1171875 -0.10547,0.3046875 -0.28125,0.6210938 -0.21094,0.3867187 -0.38672,0.6210937 -0.66797,0.796875 -0.15235,0.09375 -0.23438,0.1757812 -0.23438,0.328125 0,0.2109375 0.26953,0.421875 0.51563,0.421875 0.1289,0 0.24609,-0.035156 0.29297,-0.2109375 0.11718,-0.4921875 0.3164,-0.9960938 0.92578,-2.4375 0.62109,-1.48828127 0.90234,-2.23828127 1.125,-2.70703127 0.23437,-0.51562503 0.3164,-0.58593753 0.79687,-0.65625003 z m 0.0176,2.7773438 c -0.21094,0 -0.43359,0.140625 -0.43359,0.3632812 0,0.1523438 0.0703,0.2226563 0.11718,0.234375 0.30469,0.070312 0.5625,0.2695313 0.5625,0.5976563 0,0.3398437 -0.25781,0.5742187 -0.6914,0.7617187 l 0.0937,0.2578125 c 0.55078,-0.1640625 1.18359,-0.5507812 1.18359,-1.2421875 0,-0.6328125 -0.5039,-0.9726562 -0.83203,-0.9726562 z m 5.40527,-4.5585938 c -1.34765,0 -1.83984,1.6054688 -1.83984,2.91796878 0,1.41796875 0.48047,2.90625002 1.83984,2.90625002 1.35938,0 1.82813,-1.59375002 1.82813,-2.91796877 0,-1.38281253 -0.46875,-2.90625003 -1.82813,-2.90625003 z m 0,0.3046875 c 0.8086,0 1.03125,1.3242188 1.03125,2.60156253 0,1.265625 -0.22265,2.61328127 -1.03125,2.61328127 -0.77343,0 -1.04296,-1.35937502 -1.04296,-2.61328127 0,-1.25390623 0.22265,-2.60156253 1.04296,-2.60156253 z m 2.5752,-0.7617187 c 0.89062,0.7382812 1.41797,2.203125 1.41797,3.74999998 0,1.54687502 -0.50391,2.98828122 -1.41797,3.75000002 l 0.16406,0.1992187 c 1.34766,-0.9140625 1.89844,-2.3320312 1.89844,-3.94921872 0,-1.62890628 -0.55078,-3.05859378 -1.89844,-3.96093748 z m 0,0"
           style="fill:#231f20;fill-opacity:1;fill-rule:nonzero;stroke:none" />
        <path
           id="path35"
           d="m 270.94043,-42.835628 c -0.22266,0.246094 -0.39844,0.351562 -0.55078,0.351562 -0.15235,0 -0.30469,-0.01172 -0.72656,-0.09375 -0.4336,-0.07031 -0.70313,-0.105468 -0.94922,-0.105468 -0.22266,0 -0.44532,0.1875 -0.65625,0.527343 -0.14063,0.234375 -0.2461,0.445313 -0.375,0.726563 l 0.23437,0.105469 c 0.25781,-0.457032 0.46875,-0.761719 0.89063,-0.761719 0.22265,0 0.62109,0.02344 0.85547,0.05859 0.19921,0.01172 0.39843,0 0.55078,-0.03516 -0.83203,0.890625 -1.875,1.910157 -2.4961,2.578125 -0.55078,0.574219 -0.48047,0.832032 -0.32812,0.902344 0.0469,0.01172 0.0703,-0.02344 0.10547,-0.08203 0.082,-0.117188 0.1875,-0.234375 0.29297,-0.304688 0.11718,-0.08203 0.26953,-0.09375 0.55078,0.04687 0.39843,0.199219 0.91406,0.433594 1.20703,0.433594 0.38672,0 0.75,-0.269531 1.24219,-1.242187 l -0.19922,-0.164063 c -0.41016,0.609375 -0.67969,0.761719 -0.92578,0.761719 -0.22266,0 -0.51563,-0.117188 -0.8086,-0.210938 -0.26953,-0.117187 -0.5039,-0.164062 -0.67969,-0.152343 0.66797,-0.703125 1.85157,-1.886719 2.42579,-2.542969 0.24609,-0.269531 0.41015,-0.457031 0.52734,-0.597656 z m 0,0"
           style="fill:#231f20;fill-opacity:1;fill-rule:nonzero;stroke:none" />
        <path
           id="path36"
           d="m 277.7373,-41.558284 v -0.445313 h -4.28906 v 0.445313 z m 0,1.652343 v -0.445312 h -4.28906 v 0.445312 z m 2.98536,-2.695312 -0.23438,0.269531 0.0352,0.08203 h 0.63281 v 2.660157 c 0,0.597656 -0.0703,0.632812 -0.64453,0.691406 v 0.234375 h 2.12109 v -0.222656 c -0.70312,-0.07031 -0.77344,-0.105469 -0.77344,-0.761719 v -2.601563 h 0.97266 c 0.10547,-0.04687 0.14063,-0.269531 0.0937,-0.351562 h -1.06641 v -0.351563 c -0.0117,-0.773437 0.0937,-1.195312 0.21094,-1.371093 0.0937,-0.164063 0.2461,-0.269532 0.48047,-0.269532 0.29297,0 0.53906,0.164063 0.72656,0.328125 0.082,0.09375 0.16407,0.09375 0.2461,0.03516 0.082,-0.08203 0.14062,-0.152344 0.16406,-0.222657 0.0469,-0.09375 0.0352,-0.210937 -0.0469,-0.316406 -0.14062,-0.164062 -0.39843,-0.292969 -0.70312,-0.304687 -0.35156,0.04687 -0.67969,0.210937 -0.99609,0.492187 -0.48047,0.410156 -0.63282,0.855469 -0.69141,1.054688 -0.0586,0.1875 -0.0937,0.457031 -0.0937,0.726562 v 0.199219 z m 6.08496,3.585937 -0.0937,-0.234375 c -0.0937,0.05859 -0.22266,0.105469 -0.32813,0.105469 -0.15234,0 -0.3164,-0.140625 -0.3164,-0.550781 v -1.664063 c 0,-0.46875 -0.082,-0.84375 -0.39844,-1.101562 -0.19922,-0.164063 -0.46875,-0.246094 -0.73828,-0.246094 -0.51563,0.105469 -1.10157,0.457031 -1.34766,0.632813 -0.17578,0.128906 -0.29297,0.222656 -0.29297,0.363281 0,0.199219 0.23438,0.386719 0.39844,0.386719 0.12891,0 0.22266,-0.07031 0.25781,-0.210938 0.0703,-0.28125 0.15235,-0.480469 0.26953,-0.597656 0.0937,-0.105469 0.22266,-0.175781 0.41016,-0.175781 0.44531,0 0.75,0.363281 0.75,1.019531 v 0.164062 c -0.19922,0.152344 -0.85547,0.398438 -1.39453,0.574219 -0.49219,0.175781 -0.72656,0.457031 -0.72656,0.902344 0,0.5625 0.44531,1.089844 1.07812,1.089844 0.26953,0 0.70313,-0.328125 1.06641,-0.574219 0.0469,0.152344 0.0937,0.28125 0.21093,0.410156 0.10547,0.08203 0.29297,0.164063 0.42188,0.164063 z m -1.42969,-0.410156 c -0.16406,0.164063 -0.48047,0.316406 -0.71484,0.328125 -0.28125,0 -0.64454,-0.222656 -0.64454,-0.691406 0,-0.328125 0.19922,-0.492188 0.55079,-0.65625 0.1875,-0.09375 0.62109,-0.28125 0.80859,-0.375 z m 3.02637,-2.320312 v -0.984375 c -0.4336,0.1875 -0.83203,0.292968 -1.26563,0.363281 v 0.199219 c 0.50391,0.07031 0.55078,0.105468 0.55078,0.703125 v 1.863281 c 0,0.597656 -0.0586,0.644531 -0.62109,0.703125 v 0.234375 h 2.07422 v -0.234375 c -0.69141,-0.05859 -0.73828,-0.105469 -0.73828,-0.703125 v -1.640625 c 0.19922,-0.503906 0.48047,-0.773438 0.71484,-0.773438 0.15234,0 0.25781,0.04687 0.38672,0.1875 0.0469,0.04687 0.12891,0.05859 0.23437,0.01172 0.17579,-0.08203 0.29297,-0.257812 0.29297,-0.433594 0,-0.222656 -0.21093,-0.457031 -0.52734,-0.457031 -0.42188,0 -0.80859,0.503906 -1.07813,0.960938 z m -14.78028,8.033203 h -2.12109 v 0.246094 c 0.62109,0.03516 0.83203,0.152343 0.87891,0.5625 0.0351,0.246093 0.0703,0.667968 0.0703,1.488281 v 2.214844 h -0.0352 l -3.75,-4.511719 H 267.331 v 0.246094 c 0.42188,0.03516 0.6211,0.117187 0.8086,0.339843 0.16406,0.210938 0.17578,0.246094 0.17578,0.902344 v 1.980469 c 0,0.832031 -0.0234,1.265625 -0.0586,1.546875 -0.0352,0.433594 -0.26954,0.550781 -0.78516,0.574219 v 0.257812 h 2.13281 v -0.257812 c -0.60937,-0.03516 -0.82031,-0.140625 -0.86719,-0.597657 -0.0234,-0.257812 -0.0469,-0.691406 -0.0469,-1.523437 v -2.261719 h 0.0117 l 3.83203,4.722656 h 0.28125 v -3.632812 c 0,-0.832031 0.0234,-1.242188 0.0586,-1.511719 0.0352,-0.386719 0.2461,-0.503906 0.75,-0.539062 z m 0.59473,0 v 0.257812 c 0.69141,0.05859 0.77344,0.09375 0.77344,0.867188 v 3.609375 c 0,0.761719 -0.082,0.820312 -0.85547,0.867187 v 0.246094 h 2.13281 c 1.11328,0 2.00391,-0.222656 2.67188,-0.75 0.70312,-0.515625 1.11328,-1.324219 1.11328,-2.402344 0,-0.84375 -0.31641,-1.5 -0.76172,-1.933593 -0.55078,-0.527344 -1.39453,-0.761719 -2.54297,-0.761719 z m 1.54687,0.925781 c 0,-0.351562 0.0234,-0.445312 0.11719,-0.515625 0.082,-0.05859 0.31641,-0.105469 0.69141,-0.105469 0.60937,0 1.125,0.105469 1.53515,0.363282 0.71485,0.421875 1.06641,1.230468 1.06641,2.15625 0,1.441406 -0.77344,2.695312 -2.46094,2.695312 -0.65625,0 -0.94922,-0.164062 -0.94922,-0.855469 z m 10.38575,3.339844 c -0.45703,0.902344 -0.9375,1.394531 -1.86328,1.394531 -1.35938,0 -2.35547,-1.148437 -2.35547,-2.835937 0,-1.371094 0.79687,-2.636719 2.30859,-2.636719 0.97266,0 1.51172,0.386719 1.74609,1.335937 l 0.26954,-0.05859 c -0.0586,-0.480469 -0.10547,-0.84375 -0.1875,-1.359375 -0.2461,-0.04687 -0.85547,-0.246094 -1.59375,-0.246094 -2.00391,0 -3.45704,1.253906 -3.45704,3.140625 0,1.429687 0.98438,2.988281 3.22266,2.988281 0.64453,0 1.40625,-0.1875 1.65234,-0.246094 0.16407,-0.304687 0.38672,-0.960937 0.51563,-1.382812 z m 1.48535,-2.121094 c -0.29297,0 -0.50391,0.210938 -0.50391,0.503906 0,0.304688 0.21094,0.527344 0.50391,0.527344 0.28125,0 0.5039,-0.222656 0.5039,-0.527344 0,-0.292968 -0.22265,-0.503906 -0.5039,-0.503906 z m 0,3.808594 c 0.29297,0 0.5039,-0.199219 0.5039,-0.515625 0,-0.292969 -0.21093,-0.515625 -0.5039,-0.515625 -0.28125,0 -0.50391,0.222656 -0.50391,0.515625 0,0.316406 0.22266,0.515625 0.50391,0.515625 z m 5.75976,1.21875 c -0.89062,-0.761719 -1.40625,-2.203125 -1.40625,-3.75 0,-1.546875 0.51563,-3 1.40625,-3.75 l -0.15234,-0.210938 c -1.32422,0.902344 -1.91016,2.332032 -1.91016,3.949219 0,1.628906 0.58594,3.082031 1.91016,3.960938 z m 3.87598,-1.324219 v -0.246094 c -0.82031,-0.05859 -0.87891,-0.128906 -0.87891,-0.785156 v -4.6875 c -0.49218,0.199219 -1.01953,0.375 -1.59375,0.46875 v 0.210938 l 0.4336,0.01172 c 0.38672,0.02344 0.42187,0.07031 0.42187,0.539063 v 3.457031 c 0,0.65625 -0.0351,0.726563 -0.85547,0.785156 v 0.246094 z m 1.70508,-1.160156 c -0.21094,0 -0.43359,0.140625 -0.43359,0.363281 0,0.152344 0.0703,0.222656 0.11718,0.234375 0.30469,0.07031 0.5625,0.269531 0.5625,0.597656 0,0.339844 -0.25781,0.574219 -0.6914,0.761719 l 0.0937,0.257813 c 0.55078,-0.164063 1.18359,-0.550782 1.18359,-1.242188 0,-0.632812 -0.50391,-0.972656 -0.83203,-0.972656 z m 6.70898,1.160156 v -0.246094 c -0.82031,-0.05859 -0.8789,-0.128906 -0.8789,-0.785156 v -4.6875 c -0.49219,0.199219 -1.01953,0.375 -1.59375,0.46875 v 0.210938 l 0.43359,0.01172 c 0.38672,0.02344 0.42188,0.07031 0.42188,0.539063 v 3.457031 c 0,0.65625 -0.0352,0.726563 -0.85547,0.785156 v 0.246094 z m 1.70508,-1.160156 c -0.21094,0 -0.43359,0.140625 -0.43359,0.363281 0,0.152344 0.0703,0.222656 0.11719,0.234375 0.30468,0.07031 0.5625,0.269531 0.5625,0.597656 0,0.339844 -0.25782,0.574219 -0.69141,0.761719 l 0.0937,0.257813 c 0.55078,-0.164063 1.18359,-0.550782 1.18359,-1.242188 0,-0.632812 -0.5039,-0.972656 -0.83203,-0.972656 z m 6.70899,1.160156 v -0.246094 c -0.82032,-0.05859 -0.87891,-0.128906 -0.87891,-0.785156 v -4.6875 c -0.49219,0.199219 -1.01953,0.375 -1.59375,0.46875 v 0.210938 l 0.43359,0.01172 c 0.38672,0.02344 0.42188,0.07031 0.42188,0.539063 v 3.457031 c 0,0.65625 -0.0352,0.726563 -0.85547,0.785156 v 0.246094 z m 1.27441,-6.175781 c 0.89062,0.738281 1.41797,2.203125 1.41797,3.75 0,1.546875 -0.50391,2.988281 -1.41797,3.75 l 0.16406,0.199219 c 1.34766,-0.914063 1.89844,-2.332032 1.89844,-3.949219 0,-1.628906 -0.55078,-3.058594 -1.89844,-3.960938 z m -42.53613,16.813476 c -0.19922,-0.04687 -0.41016,-0.152343 -0.65625,-0.421875 -0.21094,-0.234375 -0.39844,-0.46875 -0.72657,-0.9375 -0.26953,-0.398437 -0.64453,-1.007812 -0.79687,-1.300781 0.66797,-0.292969 1.13672,-0.761719 1.13672,-1.535156 0,-0.550781 -0.23438,-0.949219 -0.58594,-1.183594 -0.35156,-0.222656 -0.78516,-0.304687 -1.44141,-0.304687 h -2.23828 v 0.246093 c 0.70313,0.07031 0.77344,0.09375 0.77344,0.855469 v 3.621094 c 0,0.761719 -0.082,0.820312 -0.82031,0.867187 v 0.257813 h 2.36719 v -0.257813 c -0.71485,-0.04687 -0.79688,-0.105468 -0.79688,-0.867187 v -1.429688 h 0.29297 c 0.46875,0 0.62109,0.105469 0.77344,0.363282 0.26953,0.433593 0.58593,0.996093 0.90234,1.429687 0.41016,0.585938 0.78516,0.785156 1.46484,0.820313 0.10547,0.01172 0.19922,0.01172 0.31641,0.01172 z m -3.78516,-2.683593 v -2.214844 c 0,-0.246094 0.0352,-0.351563 0.0937,-0.398438 0.082,-0.05859 0.23438,-0.09375 0.49219,-0.09375 0.67969,0 1.32422,0.363282 1.32422,1.335938 0,0.480469 -0.14063,0.84375 -0.49219,1.113281 -0.23438,0.175781 -0.52734,0.257813 -0.98438,0.257813 z m 7.75488,2.496093 -0.0937,-0.234375 c -0.0937,0.05859 -0.22265,0.105469 -0.32812,0.105469 -0.15235,0 -0.31641,-0.140625 -0.31641,-0.550781 v -1.664063 c 0,-0.46875 -0.082,-0.84375 -0.39844,-1.101562 -0.19921,-0.164063 -0.46875,-0.246094 -0.73828,-0.246094 -0.51562,0.105469 -1.10156,0.457031 -1.34765,0.632813 -0.17578,0.128906 -0.29297,0.222656 -0.29297,0.363281 0,0.199219 0.23437,0.386719 0.39844,0.386719 0.1289,0 0.22265,-0.07031 0.25781,-0.210938 0.0703,-0.28125 0.15234,-0.480469 0.26953,-0.597656 0.0937,-0.105469 0.22266,-0.175781 0.41016,-0.175781 0.44531,0 0.75,0.363281 0.75,1.019531 v 0.164062 c -0.19922,0.152344 -0.85547,0.398438 -1.39454,0.574219 -0.49218,0.175781 -0.72656,0.457031 -0.72656,0.902344 0,0.5625 0.44531,1.089844 1.07813,1.089844 0.26953,0 0.70312,-0.328125 1.0664,-0.574219 0.0469,0.152344 0.0937,0.28125 0.21094,0.410156 0.10547,0.08203 0.29297,0.164063 0.42188,0.164063 z m -1.42968,-0.410156 c -0.16407,0.164063 -0.48047,0.316406 -0.71485,0.328125 -0.28125,0 -0.64453,-0.222656 -0.64453,-0.691406 0,-0.328125 0.19922,-0.492188 0.55078,-0.65625 0.1875,-0.09375 0.6211,-0.28125 0.8086,-0.375 z m 4.33593,-2.167969 c -0.0351,-0.222656 -0.1289,-0.75 -0.19922,-0.960937 -0.1875,-0.07031 -0.43359,-0.152344 -0.79687,-0.152344 -0.83203,0 -1.37109,0.527344 -1.37109,1.160156 0,0.691407 0.58593,0.996094 1.125,1.242188 0.44531,0.210937 0.70312,0.421875 0.70312,0.820312 0,0.375 -0.30469,0.632813 -0.63281,0.632813 -0.53906,0 -0.94922,-0.527344 -1.11328,-1.113281 l -0.23438,0.03516 c 0,0.328125 0.082,0.9375 0.15235,1.066406 0.16406,0.140625 0.57421,0.304688 1.03125,0.304688 0.72656,0 1.48828,-0.421875 1.48828,-1.242188 0,-0.621094 -0.45703,-0.9375 -1.13672,-1.21875 -0.41016,-0.175781 -0.76172,-0.375 -0.76172,-0.785156 0,-0.351563 0.24609,-0.621094 0.58594,-0.621094 0.43359,0 0.75,0.363281 0.92578,0.890625 z m 3.0586,2.601563 -0.082,-0.234375 c -0.12891,0.07031 -0.32813,0.152344 -0.5625,0.152344 -0.22266,0 -0.51563,-0.128907 -0.51563,-0.855469 v -2.320313 h 0.96094 c 0.10547,-0.05859 0.1289,-0.257812 0.0586,-0.351562 h -1.01953 v -1.230469 l -0.12891,-0.01172 -0.58593,0.585938 v 0.65625 h -0.41016 l -0.24609,0.269531 0.0351,0.08203 h 0.6211 v 2.625 c 0,0.703125 0.3164,1.066407 0.8789,1.066407 0.082,0 0.23438,-0.03516 0.38672,-0.117188 z m 3.41601,-0.621094 c -0.32812,0.304688 -0.66797,0.445313 -1.01953,0.445313 -0.63281,0 -1.33594,-0.503907 -1.34765,-1.722657 1.0664,-0.04687 2.1914,-0.128906 2.35546,-0.164062 0.15235,-0.03516 0.19922,-0.105469 0.19922,-0.28125 0,-0.703125 -0.59765,-1.371094 -1.34765,-1.371094 -0.46875,0 -0.94922,0.246094 -1.32422,0.65625 -0.36328,0.410156 -0.59766,0.960938 -0.59766,1.582031 0,1.007813 0.65625,1.910157 1.75781,1.910157 0.28125,0 0.90235,-0.164063 1.46485,-0.867188 z m -1.37109,-2.753906 c 0.49219,0 0.79687,0.421875 0.78516,0.890625 0,0.128906 -0.0469,0.1875 -0.21094,0.1875 -0.52735,0.01172 -1.01953,0.02344 -1.52344,0.02344 0.12891,-0.726562 0.52734,-1.101562 0.94922,-1.101562 z m 3.41601,0.621094 v -0.984375 c -0.43359,0.1875 -0.83203,0.292968 -1.26562,0.363281 v 0.199219 c 0.50391,0.07031 0.55078,0.105468 0.55078,0.703125 v 1.863281 c 0,0.597656 -0.0586,0.644531 -0.62109,0.703125 v 0.234375 h 2.07422 v -0.234375 c -0.69141,-0.05859 -0.73829,-0.105469 -0.73829,-0.703125 v -1.640625 c 0.19922,-0.503906 0.48047,-0.773438 0.71485,-0.773438 0.15234,0 0.25781,0.04687 0.38672,0.1875 0.0469,0.04687 0.1289,0.05859 0.23437,0.01172 0.17578,-0.08203 0.29297,-0.257812 0.29297,-0.433594 0,-0.222656 -0.21094,-0.457031 -0.52734,-0.457031 -0.42188,0 -0.8086,0.503906 -1.07813,0.960938 z m 2.95606,-0.621094 c -0.29297,0 -0.50391,0.210937 -0.50391,0.503906 0,0.304688 0.21094,0.527344 0.50391,0.527344 0.28125,0 0.50391,-0.222656 0.50391,-0.527344 0,-0.292969 -0.22266,-0.503906 -0.50391,-0.503906 z m 0,3.808594 c 0.29297,0 0.50391,-0.199219 0.50391,-0.515625 0,-0.292969 -0.21094,-0.515625 -0.50391,-0.515625 -0.28125,0 -0.50391,0.222656 -0.50391,0.515625 0,0.316406 0.22266,0.515625 0.50391,0.515625 z m 5.75977,1.21875 c -0.89063,-0.761719 -1.40625,-2.203125 -1.40625,-3.75 0,-1.546875 0.51562,-3 1.40625,-3.75 l -0.15235,-0.210938 c -1.32422,0.902344 -1.91015,2.332031 -1.91015,3.949219 0,1.628906 0.58593,3.082031 1.91015,3.960937 z m 2.04785,-4.40625 v -0.984375 c -0.4336,0.1875 -0.83203,0.292968 -1.26563,0.363281 v 0.199219 c 0.50391,0.07031 0.55078,0.105468 0.55078,0.703125 v 1.863281 c 0,0.597656 -0.0586,0.644531 -0.62109,0.703125 v 0.234375 h 2.07422 v -0.234375 c -0.69141,-0.05859 -0.73828,-0.105469 -0.73828,-0.703125 v -1.640625 c 0.19922,-0.503906 0.48047,-0.773438 0.71484,-0.773438 0.15234,0 0.25781,0.04687 0.38672,0.1875 0.0469,0.04687 0.12891,0.05859 0.23437,0.01172 0.17579,-0.08203 0.29297,-0.257812 0.29297,-0.433594 0,-0.222656 -0.21093,-0.457031 -0.52734,-0.457031 -0.42188,0 -0.80859,0.503906 -1.07813,0.960938 z m 5.0039,2.132812 c -0.32812,0.304688 -0.66797,0.445313 -1.01953,0.445313 -0.63281,0 -1.33594,-0.503907 -1.34765,-1.722657 1.0664,-0.04687 2.1914,-0.128906 2.35546,-0.164062 0.15235,-0.03516 0.19922,-0.105469 0.19922,-0.28125 0,-0.703125 -0.59765,-1.371094 -1.34765,-1.371094 -0.46875,0 -0.94922,0.246094 -1.32422,0.65625 -0.36328,0.410156 -0.59766,0.960938 -0.59766,1.582031 0,1.007813 0.65625,1.910157 1.75781,1.910157 0.28125,0 0.90235,-0.164063 1.46485,-0.867188 z m -1.37109,-2.753906 c 0.49219,0 0.79687,0.421875 0.78516,0.890625 0,0.128906 -0.0469,0.1875 -0.21094,0.1875 -0.52735,0.01172 -1.01953,0.02344 -1.52344,0.02344 0.12891,-0.726562 0.52734,-1.101562 0.94922,-1.101562 z m 4.66699,0.773437 c -0.0351,-0.222656 -0.1289,-0.75 -0.19922,-0.960937 -0.1875,-0.07031 -0.43359,-0.152344 -0.79687,-0.152344 -0.83203,0 -1.3711,0.527344 -1.3711,1.160156 0,0.691407 0.58594,0.996094 1.125,1.242188 0.44532,0.210937 0.70313,0.421875 0.70313,0.820312 0,0.375 -0.30469,0.632813 -0.63281,0.632813 -0.53907,0 -0.94922,-0.527344 -1.11328,-1.113281 l -0.23438,0.03516 c 0,0.328125 0.082,0.9375 0.15234,1.066406 0.16407,0.140625 0.57422,0.304688 1.03125,0.304688 0.72657,0 1.48829,-0.421875 1.48829,-1.242188 0,-0.621094 -0.45704,-0.9375 -1.13672,-1.21875 -0.41016,-0.175781 -0.76172,-0.375 -0.76172,-0.785156 0,-0.351563 0.24609,-0.621094 0.58594,-0.621094 0.43359,0 0.75,0.363281 0.92578,0.890625 z m 1.45313,3.035157 c 0.28125,0 0.5039,-0.199219 0.5039,-0.515625 0,-0.292969 -0.22265,-0.515625 -0.5039,-0.515625 -0.29297,0 -0.50391,0.222656 -0.50391,0.515625 0,0.316406 0.21094,0.515625 0.50391,0.515625 z m 5.29687,-0.105469 v -0.234375 c -0.55078,-0.07031 -0.65625,-0.152344 -0.99609,-0.667969 l -0.87891,-1.324219 c 0.29297,-0.445312 0.52735,-0.773437 0.70313,-0.996093 0.32812,-0.375 0.44531,-0.421875 0.98437,-0.480469 v -0.234375 h -1.6289 v 0.234375 c 0.38671,0.03516 0.44531,0.08203 0.28125,0.375 -0.16407,0.292969 -0.33985,0.574219 -0.51563,0.832031 l -0.53906,-0.820312 c -0.15235,-0.257813 -0.12891,-0.339844 0.25781,-0.386719 v -0.234375 h -1.80469 v 0.234375 c 0.50391,0.05859 0.6211,0.128906 0.89063,0.574219 l 0.77344,1.21875 c -0.25782,0.410156 -0.50391,0.761718 -0.75,1.078125 -0.36329,0.457031 -0.45704,0.527343 -1.01954,0.597656 v 0.234375 h 1.6875 v -0.234375 c -0.46875,-0.07031 -0.49218,-0.152344 -0.3164,-0.457031 0.16406,-0.328125 0.375,-0.65625 0.57422,-0.960938 l 0.66797,1.054688 c 0.15234,0.246093 0.082,0.316406 -0.30469,0.363281 v 0.234375 z m 0.81445,-1.160156 c -0.21093,0 -0.43359,0.140625 -0.43359,0.363281 0,0.152344 0.0703,0.222656 0.11719,0.234375 0.30469,0.07031 0.5625,0.269531 0.5625,0.597656 0,0.339844 -0.25781,0.574219 -0.69141,0.761719 l 0.0937,0.257812 c 0.55078,-0.164062 1.1836,-0.550781 1.1836,-1.242187 0,-0.632813 -0.50391,-0.972656 -0.83204,-0.972656 z m 4.88086,-1.921875 v -0.984375 c -0.43359,0.1875 -0.83203,0.292968 -1.26562,0.363281 v 0.199219 c 0.50391,0.07031 0.55078,0.105468 0.55078,0.703125 v 1.863281 c 0,0.597656 -0.0586,0.644531 -0.62109,0.703125 v 0.234375 h 2.07422 v -0.234375 c -0.69141,-0.05859 -0.73829,-0.105469 -0.73829,-0.703125 v -1.640625 c 0.19922,-0.503906 0.48047,-0.773438 0.71485,-0.773438 0.15234,0 0.25781,0.04687 0.38672,0.1875 0.0469,0.04687 0.1289,0.05859 0.23437,0.01172 0.17578,-0.08203 0.29297,-0.257812 0.29297,-0.433594 0,-0.222656 -0.21094,-0.457031 -0.52734,-0.457031 -0.42188,0 -0.8086,0.503906 -1.07813,0.960938 z m 5.00098,2.132812 c -0.32812,0.304688 -0.66797,0.445313 -1.01953,0.445313 -0.63281,0 -1.33594,-0.503907 -1.34766,-1.722657 1.06641,-0.04687 2.19141,-0.128906 2.35547,-0.164062 0.15235,-0.03516 0.19922,-0.105469 0.19922,-0.28125 0,-0.703125 -0.59766,-1.371094 -1.34766,-1.371094 -0.46875,0 -0.94921,0.246094 -1.32421,0.65625 -0.36329,0.410156 -0.59766,0.960938 -0.59766,1.582031 0,1.007813 0.65625,1.910157 1.75781,1.910157 0.28125,0 0.90235,-0.164063 1.46485,-0.867188 z m -1.37109,-2.753906 c 0.49218,0 0.79687,0.421875 0.78515,0.890625 0,0.128906 -0.0469,0.1875 -0.21093,0.1875 -0.52735,0.01172 -1.01954,0.02344 -1.52344,0.02344 0.1289,-0.726562 0.52734,-1.101562 0.94922,-1.101562 z m 4.66992,0.773437 c -0.0352,-0.222656 -0.12891,-0.75 -0.19922,-0.960937 -0.1875,-0.07031 -0.43359,-0.152344 -0.79688,-0.152344 -0.83203,0 -1.37109,0.527344 -1.37109,1.160156 0,0.691407 0.58594,0.996094 1.125,1.242188 0.44531,0.210937 0.70313,0.421875 0.70313,0.820312 0,0.375 -0.30469,0.632813 -0.63282,0.632813 -0.53906,0 -0.94922,-0.527344 -1.11328,-1.113281 l -0.23437,0.03516 c 0,0.328125 0.082,0.9375 0.15234,1.066406 0.16406,0.140625 0.57422,0.304688 1.03125,0.304688 0.72656,0 1.48828,-0.421875 1.48828,-1.242188 0,-0.621094 -0.45703,-0.9375 -1.13672,-1.21875 -0.41015,-0.175781 -0.76172,-0.375 -0.76172,-0.785156 0,-0.351563 0.2461,-0.621094 0.58594,-0.621094 0.4336,0 0.75,0.363281 0.92578,0.890625 z m 1.45019,3.035157 c 0.28125,0 0.50391,-0.199219 0.50391,-0.515625 0,-0.292969 -0.22266,-0.515625 -0.50391,-0.515625 -0.29296,0 -0.5039,0.222656 -0.5039,0.515625 0,0.316406 0.21094,0.515625 0.5039,0.515625 z m 5.32325,-4.042969 h -1.62891 v 0.234375 c 0.51562,0.07031 0.57422,0.164062 0.46875,0.503906 -0.1875,0.574219 -0.57422,1.628906 -0.83203,2.25 l -0.82031,-2.261719 c -0.10547,-0.339843 -0.0703,-0.421875 0.35156,-0.492187 v -0.234375 h -1.82813 v 0.234375 c 0.49219,0.07031 0.58594,0.1875 0.77344,0.679687 0.26953,0.632813 0.66797,1.722657 1.03125,2.753907 0.0586,0.152343 0.0586,0.269531 0.0117,0.410156 -0.0352,0.117187 -0.10547,0.304687 -0.28125,0.621094 -0.21094,0.386718 -0.38672,0.621093 -0.66797,0.796875 -0.15234,0.09375 -0.23437,0.175781 -0.23437,0.328125 0,0.210937 0.26953,0.421875 0.51562,0.421875 0.12891,0 0.24609,-0.03516 0.29297,-0.210938 0.11719,-0.492187 0.31641,-0.996094 0.92578,-2.4375 0.62109,-1.488281 0.90234,-2.238281 1.125,-2.707031 0.23438,-0.515625 0.31641,-0.585938 0.79688,-0.65625 z m 0.0176,2.777344 c -0.21093,0 -0.43359,0.140625 -0.43359,0.363281 0,0.152344 0.0703,0.222656 0.11719,0.234375 0.30469,0.07031 0.5625,0.269531 0.5625,0.597656 0,0.339844 -0.25781,0.574219 -0.69141,0.761719 l 0.0937,0.257812 c 0.55078,-0.164062 1.1836,-0.550781 1.1836,-1.242187 0,-0.632813 -0.50391,-0.972656 -0.83204,-0.972656 z m 6.70606,1.160156 v -0.246094 c -0.82031,-0.05859 -0.87891,-0.128906 -0.87891,-0.785156 v -4.6875 c -0.49218,0.199219 -1.01953,0.375 -1.59375,0.46875 v 0.210937 l 0.4336,0.01172 c 0.38672,0.02344 0.42187,0.07031 0.42187,0.539063 v 3.457031 c 0,0.65625 -0.0351,0.726562 -0.85547,0.785156 v 0.246094 z m 1.27441,-6.175781 c 0.89063,0.738281 1.41797,2.203125 1.41797,3.75 0,1.546875 -0.5039,2.988281 -1.41797,3.75 l 0.16407,0.199218 c 1.34765,-0.914062 1.89843,-2.332031 1.89843,-3.949218 0,-1.628907 -0.55078,-3.058594 -1.89843,-3.960938 z m 0,0"
           style="fill:#231f20;fill-opacity:1;fill-rule:nonzero;stroke:none" />
      </g>
    </g>
  </g>
</svg>
