<?xml version="1.0" encoding="UTF-8" standalone="no"?>
<!-- Created with Inkscape (http://www.inkscape.org/) -->

<svg
   version="1.1"
   id="svg1"
   width="282.67999"
   height="178.66667"
   viewBox="0 0 282.67999 178.66667"
   sodipodi:docname="pha05f13.eps"
   xmlns:inkscape="http://www.inkscape.org/namespaces/inkscape"
   xmlns:sodipodi="http://sodipodi.sourceforge.net/DTD/sodipodi-0.dtd"
   xmlns="http://www.w3.org/2000/svg"
   xmlns:svg="http://www.w3.org/2000/svg">
  <defs
     id="defs1" />
  <sodipodi:namedview
     id="namedview1"
     pagecolor="#ffffff"
     bordercolor="#000000"
     borderopacity="0.25"
     inkscape:showpageshadow="2"
     inkscape:pageopacity="0.0"
     inkscape:pagecheckerboard="0"
     inkscape:deskcolor="#d1d1d1">
    <inkscape:page
       x="0"
       y="0"
       inkscape:label="1"
       id="page1"
       width="282.67999"
       height="178.66667"
       margin="0"
       bleed="0" />
  </sodipodi:namedview>
  <g
     id="g1"
     inkscape:groupmode="layer"
     inkscape:label="1">
    <g
       id="group-R5">
      <path
         id="path2"
         d="m 337.434,1282.27 0.906,-21.12 2.414,-52.27 4.766,-95.76 0.593,-11.25 0.586,-11.05 1.196,-21.72 2.402,-41.68 4.777,-77.057 0.555,-8.488 0.555,-8.406 1.117,-16.504 2.23,-31.906 4.446,-59.707 0.566,-7.114 0.551,-7.027 1.105,-13.832 2.235,-26.836 4.453,-50.484 0.554,-6.024 0.551,-5.98 1.153,-11.75 2.226,-22.879 4.445,-43.242 8.911,-77.637 0.558,-4.426 0.555,-4.363 1.086,-8.645 2.168,-16.875 4.394,-32.168 8.731,-58.652 0.554,-3.43 0.524,-3.425 1.117,-6.739 2.168,-13.215 4.395,-25.308 8.73,-46.641 0.586,-2.988 0.586,-2.961 1.195,-5.859 2.387,-11.481 4.742,-22.031 0.59,-2.668 0.586,-2.641 1.195,-5.269 2.367,-10.282 1.18,-5.039 1.168,-4.98 0.617,-2.492 1.758,-7.297 0.613,1.137 0.582,2.41 0.594,2.371 0.59,2.34 2.367,9.289 4.746,17.902 9.489,33.277 1.117,3.692 1.078,3.64 2.226,7.168 4.43,13.891 8.848,26.106 0.554,1.582 0.551,1.55 1.125,3.078 2.196,6.094 4.425,11.809 8.844,22.32 0.613,1.469 0.582,1.433 1.211,2.872 2.399,5.656 4.801,10.984 9.582,20.711 0.617,1.262 0.586,1.23 1.199,2.461 2.398,4.864 4.809,9.433 9.574,17.93 2.352,4.219 2.367,4.128 4.687,8.086 9.438,15.383 18.84,28.008 0.527,0.762 1.668,2.285 2.199,3.016 4.399,5.89 8.758,11.309 17.57,20.949 0.598,0.672 0.613,0.676 1.168,1.316 2.402,2.668 4.746,5.152 9.516,9.961 19.07,18.457 0.567,0.5 0.554,0.528 1.11,0.996 2.195,2.019 4.457,3.957 8.91,7.649 17.785,14.351 34.86,24.907 37.82,23.05 35.305,18.578 38.297,17.52 37.546,15.063 35.043,12.453 38.004,12.062 35.446,10.078 38.433,9.907 37.74,8.757 35.21,7.438 38.15,7.422 35.65,6.316 34.92,5.777 37.91,5.766 35.36,4.981 38.32,5.039 37.65,4.609 35.1,3.98 38.06,4.075 35.53,3.566 34.81,3.316 37.82,3.372 35.24,2.961 38.24,3.042 35.68,2.696 35.01,2.492 37.97,2.574 35.42,2.293 38.41,2.367 37.67,2.2 35.16,1.961 38.14,2.015 35.6,1.817 34.89,1.734 37.85,1.754 35.33,1.582 2.47,0.121 2.46,0.094 4.92,0.226 9.87,0.418 4.92,0.231 4.93,0.203 1.23,0.058 1.23,0.032 2.49,0.121 1.23,0.047 1.23,0.035 2.46,0.117"
         style="fill:none;stroke:#4974b1;stroke-width:10;stroke-linecap:square;stroke-linejoin:round;stroke-miterlimit:3.25;stroke-dasharray:none;stroke-opacity:1"
         transform="matrix(0.13333333,0,0,-0.13333333,0,178.66667)" />
      <path
         id="path3"
         d="m 626.184,212.059 v 30"
         style="fill:none;stroke:#231f20;stroke-width:5;stroke-linecap:butt;stroke-linejoin:miter;stroke-miterlimit:3.25;stroke-dasharray:none;stroke-opacity:1"
         transform="matrix(0.13333333,0,0,-0.13333333,0,178.66667)" />
      <path
         id="path4"
         d="m 988.852,212.059 v 30"
         style="fill:none;stroke:#231f20;stroke-width:5;stroke-linecap:butt;stroke-linejoin:miter;stroke-miterlimit:3.25;stroke-dasharray:none;stroke-opacity:1"
         transform="matrix(0.13333333,0,0,-0.13333333,0,178.66667)" />
      <path
         id="path5"
         d="m 1351.55,212.059 v 30"
         style="fill:none;stroke:#231f20;stroke-width:5;stroke-linecap:butt;stroke-linejoin:miter;stroke-miterlimit:3.25;stroke-dasharray:none;stroke-opacity:1"
         transform="matrix(0.13333333,0,0,-0.13333333,0,178.66667)" />
      <path
         id="path6"
         d="m 1714.24,212.059 v 30"
         style="fill:none;stroke:#231f20;stroke-width:5;stroke-linecap:butt;stroke-linejoin:miter;stroke-miterlimit:3.25;stroke-dasharray:none;stroke-opacity:1"
         transform="matrix(0.13333333,0,0,-0.13333333,0,178.66667)" />
      <path
         id="path7"
         d="m 2076.94,212.059 v 30"
         style="fill:none;stroke:#231f20;stroke-width:5;stroke-linecap:butt;stroke-linejoin:miter;stroke-miterlimit:3.25;stroke-dasharray:none;stroke-opacity:1"
         transform="matrix(0.13333333,0,0,-0.13333333,0,178.66667)" />
      <path
         id="path8"
         d="m 233.492,542.523 h 30 m 0,-300.464 h 22.176 m -22.176,0 H 2114.32"
         style="fill:none;stroke:#231f20;stroke-width:5;stroke-linecap:butt;stroke-linejoin:miter;stroke-miterlimit:3.25;stroke-dasharray:none;stroke-opacity:1"
         transform="matrix(0.13333333,0,0,-0.13333333,0,178.66667)" />
      <path
         id="path9"
         d="m 233.492,843.023 h 30"
         style="fill:none;stroke:#231f20;stroke-width:5;stroke-linecap:butt;stroke-linejoin:miter;stroke-miterlimit:3.25;stroke-dasharray:none;stroke-opacity:1"
         transform="matrix(0.13333333,0,0,-0.13333333,0,178.66667)" />
      <path
         id="path10"
         d="m 233.492,1143.49 h 30"
         style="fill:none;stroke:#231f20;stroke-width:5;stroke-linecap:butt;stroke-linejoin:miter;stroke-miterlimit:3.25;stroke-dasharray:none;stroke-opacity:1"
         transform="matrix(0.13333333,0,0,-0.13333333,0,178.66667)" />
      <path
         id="path11"
         d="M 263.492,242.059 V 1340.04"
         style="fill:none;stroke:#231f20;stroke-width:5;stroke-linecap:butt;stroke-linejoin:miter;stroke-miterlimit:3.25;stroke-dasharray:none;stroke-opacity:1"
         transform="matrix(0.13333333,0,0,-0.13333333,0,178.66667)" />
      <path
         id="path12"
         d="M 3.7023563,-1.2670359 C 3.432825,-0.69281719 3.3156375,-0.65766094 2.8351688,-0.65766094 h -1.6875 L 2.4250125,-1.9935984 c 0.8320313,-0.890625 1.1953125,-1.4179688 1.1953125,-2.203125 0,-0.9492188 -0.7265625,-1.5234375 -1.5117187,-1.5234375 -0.5273438,0 -0.9492188,0.234375 -1.21875005,0.5390625 l -0.515625,0.7265625 0.19921875,0.1757812 c 0.234375,-0.3515625 0.609375,-0.8320312 1.2304688,-0.8320312 0.65625,0 1.0546875,0.4335937 1.0546875,1.1953125 0,0.7734375 -0.5625,1.5117187 -1.125,2.1796875 -0.4453125,0.515625 -0.9492188,1.03124996 -1.45312505,1.52343746 v 0.2109375 H 3.6437625 c 0.1054688,-0.41015625 0.1992188,-0.796875 0.3164063,-1.18359376 z M -45.665808,-98.602973 v -0.246094 c -0.820312,-0.05859 -0.878906,-0.128906 -0.878906,-0.785156 v -4.687497 c -0.492188,0.19922 -1.019531,0.375 -1.59375,0.46875 v 0.21093 l 0.433594,0.0117 c 0.386718,0.0234 0.421875,0.0703 0.421875,0.53907 v 3.457027 c 0,0.65625 -0.03516,0.726562 -0.855469,0.785156 v 0.246094 z m 1.895508,0.105468 c 0.28125,0 0.503906,-0.199218 0.503906,-0.515625 0,-0.292968 -0.222656,-0.515625 -0.503906,-0.515625 -0.292969,0 -0.503906,0.222657 -0.503906,0.515625 0,0.316407 0.210937,0.515625 0.503906,0.515625 z m 2.390625,-5.050785 h 2.097656 l 0.234375,-0.58593 -0.05859,-0.0703 h -2.566407 l -0.351562,2.74219 c 0.210937,-0.082 0.550781,-0.1875 0.925781,-0.1875 0.984375,0 1.464844,0.57422 1.464844,1.35938 0,0.679684 -0.375,1.335934 -1.136719,1.335934 -0.550781,0 -0.914062,-0.292969 -1.113281,-0.457031 -0.08203,-0.07031 -0.152344,-0.05859 -0.234375,0 -0.105469,0.09375 -0.1875,0.210937 -0.1875,0.292969 -0.02344,0.105468 0.02344,0.1875 0.140625,0.304687 0.128906,0.128906 0.515625,0.316406 0.925781,0.316406 0.480469,-0.01172 1.078125,-0.246093 1.570313,-0.632812 0.550781,-0.457031 0.796875,-0.960933 0.796875,-1.511723 0,-0.73828 -0.585938,-1.51171 -1.734375,-1.51171 -0.246094,0 -0.667969,0.14062 -1.007813,0.26953 z m -4.286133,34.992192 v -0.246094 c -0.820312,-0.05859 -0.878906,-0.128906 -0.878906,-0.785156 v -4.6875 c -0.492188,0.199218 -1.019531,0.375 -1.59375,0.46875 v 0.210937 l 0.433594,0.01172 c 0.386718,0.02344 0.421875,0.07031 0.421875,0.539062 v 3.457032 c 0,0.65625 -0.03516,0.726562 -0.855469,0.785156 v 0.246094 z m 1.895508,0.105468 c 0.28125,0 0.503906,-0.199218 0.503906,-0.515625 0,-0.292968 -0.222656,-0.515625 -0.503906,-0.515625 -0.292969,0 -0.503906,0.222657 -0.503906,0.515625 0,0.316407 0.210937,0.515625 0.503906,0.515625 z m 3.175781,-5.824218 c -1.347656,0 -1.839843,1.605468 -1.839843,2.917968 0,1.417969 0.480468,2.90625 1.839843,2.90625 1.359375,0 1.828125,-1.59375 1.828125,-2.917968 0,-1.382813 -0.46875,-2.90625 -1.828125,-2.90625 z m 0,0.304687 c 0.808594,0 1.03125,1.324219 1.03125,2.601563 0,1.265625 -0.222656,2.613281 -1.03125,2.613281 -0.773437,0 -1.042968,-1.359375 -1.042968,-2.613281 0,-1.253907 0.222656,-2.601563 1.042968,-2.601563 z m -6.37207,29.748047 c -1.347656,0 -1.839844,1.605469 -1.839844,2.917969 0,1.417968 0.480469,2.90625 1.839844,2.90625 1.359375,0 1.828125,-1.59375 1.828125,-2.917969 0,-1.382813 -0.46875,-2.90625 -1.828125,-2.90625 z m 0,0.304687 c 0.808594,0 1.03125,1.324219 1.03125,2.601563 0,1.265625 -0.222656,2.613281 -1.03125,2.613281 -0.773438,0 -1.042969,-1.359375 -1.042969,-2.613281 0,-1.253906 0.222656,-2.601563 1.042969,-2.601563 z m 3.196289,5.519532 c 0.28125,0 0.503906,-0.199219 0.503906,-0.515625 0,-0.292969 -0.222656,-0.515625 -0.503906,-0.515625 -0.292969,0 -0.503906,0.222656 -0.503906,0.515625 0,0.316406 0.210937,0.515625 0.503906,0.515625 z m 2.390625,-5.050782 h 2.097656 l 0.234375,-0.585937 -0.05859,-0.07031 h -2.566407 l -0.351562,2.742188 c 0.210937,-0.08203 0.550781,-0.1875 0.925781,-0.1875 0.984375,0 1.464844,0.574219 1.464844,1.359375 0,0.679687 -0.375,1.335937 -1.136719,1.335937 -0.550781,0 -0.914062,-0.292968 -1.113281,-0.457031 -0.08203,-0.07031 -0.152344,-0.05859 -0.234375,0 -0.105469,0.09375 -0.1875,0.210938 -0.1875,0.292969 -0.02344,0.105469 0.02344,0.1875 0.140625,0.304687 0.128906,0.128907 0.515625,0.316407 0.925781,0.316407 0.480469,-0.01172 1.078125,-0.246094 1.570313,-0.632813 0.550781,-0.457031 0.796875,-0.960937 0.796875,-1.511719 0,-0.738281 -0.585938,-1.511718 -1.734375,-1.511718 -0.246094,0 -0.667969,0.140625 -1.007813,0.269531 z m 81.74707,41.8417973 v -0.421875 h -0.867187 v -3.65625 h -0.351563 c -0.925781,1.21875 -1.851562,2.5546875 -2.707031,3.8320313 v 0.2460937 h 2.34375 v 0.65625001 c 0,0.5859375 -0.03516,0.64453125 -0.820312,0.703125 v 0.24609375 h 2.308593 v -0.24609375 c -0.726562,-0.0585938 -0.773437,-0.10546875 -0.773437,-0.703125 V -1.6068797 Z m -1.582031,-0.421875 h -1.769531 c 0.585937,-0.9960937 1.171875,-1.8515625 1.757812,-2.6484375 h 0.01172 z m 34.980469,-1.0546875 c 0.269531,-1.2539062 1.113281,-1.828125 1.664062,-2.0859375 0.328125,-0.1523437 0.679688,-0.2578125 0.972657,-0.3164062 l -0.05859,-0.28125 c -0.363281,0.058594 -0.796875,0.1640625 -1.148438,0.28125 -0.960937,0.3515625 -2.332031,1.3710937 -2.332031,3.3398437 0,1.38281251 0.796875,2.25000001 1.851563,2.25000001 1.078125,0 1.839843,-0.90234375 1.839843,-1.98046871 0,-0.9257813 -0.65625,-1.6640625 -1.617187,-1.6640625 -0.175781,0 -0.363281,0.070312 -0.5625,0.1523437 z m 0.820312,0.046875 c 0.820313,0 1.195313,0.7382813 1.195313,1.4882813 0,0.59765621 -0.210938,1.34765621 -0.914063,1.34765621 -0.738281,0 -1.195312,-0.87890621 -1.195312,-1.95703121 0,-0.234375 0.01172,-0.4570313 0.04687,-0.6210938 0.222656,-0.1171875 0.527344,-0.2578125 0.867187,-0.2578125 z M 42.19845,4.1528859 v 0.2578125 c 0.691406,0.058594 0.773438,0.09375 0.773438,0.8671875 v 3.609375 c 0,0.7617188 -0.08203,0.8203125 -0.855469,0.8671875 v 0.2460936 h 2.132812 c 1.113282,0 2.003907,-0.2226561 2.671875,-0.7499998 0.703125,-0.515625 1.113282,-1.3242188 1.113282,-2.4023438 0,-0.84375 -0.316407,-1.5 -0.761719,-1.9335937 C 46.721888,4.3872609 45.878138,4.1528859 44.7297,4.1528859 Z m 1.546875,0.9257813 c 0,-0.3515625 0.02344,-0.4453125 0.117188,-0.515625 0.08203,-0.058594 0.316406,-0.1054688 0.691406,-0.1054688 0.609375,0 1.125,0.1054688 1.535156,0.3632813 0.714844,0.421875 1.066406,1.2304687 1.066406,2.15625 0,1.4414062 -0.773437,2.6953125 -2.460937,2.6953125 -0.65625,0 -0.949219,-0.1640625 -0.949219,-0.8554688 z m 5.912109,0.09375 c 0.257813,0 0.457032,-0.2109375 0.457032,-0.4570313 0,-0.2695312 -0.199219,-0.46875 -0.457032,-0.46875 -0.234375,0 -0.457031,0.1992188 -0.457031,0.46875 0,0.2460938 0.222656,0.4570313 0.457031,0.4570313 z m 1.054688,4.8281248 V 9.7661672 C 50.126184,9.7075734 50.067591,9.6606984 50.067591,9.0513234 V 5.9458547 c -0.398438,0.1523437 -0.820313,0.2695312 -1.277344,0.3515625 v 0.2109375 c 0.539062,0.09375 0.5625,0.1289062 0.5625,0.6796875 v 1.8632812 c 0,0.609375 -0.05859,0.65625 -0.621094,0.7148438 v 0.2343748 z m 2.994141,-2.9296873 c -0.03516,-0.2226563 -0.128907,-0.75 -0.199219,-0.9609375 -0.1875,-0.070312 -0.433594,-0.1523438 -0.796875,-0.1523438 -0.832031,0 -1.371094,0.5273438 -1.371094,1.1601563 0,0.6914062 0.585938,0.9960937 1.125,1.2421875 0.445313,0.2109375 0.703125,0.421875 0.703125,0.8203125 0,0.375 -0.304687,0.6328125 -0.632812,0.6328125 -0.539063,0 -0.949219,-0.5273438 -1.113282,-1.1132813 l -0.234375,0.035156 c 0,0.328125 0.08203,0.9375 0.152344,1.0664062 0.164063,0.140625 0.574219,0.3046879 1.03125,0.3046879 0.726563,0 1.488281,-0.4218754 1.488281,-1.2421879 0,-0.6210937 -0.457031,-0.9375 -1.136718,-1.21875 -0.410157,-0.1757812 -0.761719,-0.375 -0.761719,-0.7851562 0,-0.3515625 0.246094,-0.6210938 0.585937,-0.6210938 0.433594,0 0.75,0.3632813 0.925782,0.890625 z m 3.058593,2.6015625 -0.08203,-0.234375 c -0.128906,0.070312 -0.328125,0.1523437 -0.5625,0.1523437 -0.222656,0 -0.515625,-0.1289062 -0.515625,-0.8554687 V 6.4146047 h 0.960938 c 0.105468,-0.058594 0.128906,-0.2578125 0.05859,-0.3515625 H 55.6047 V 4.8325734 l -0.128906,-0.011719 -0.585938,0.5859375 v 0.65625 H 54.4797 l -0.246094,0.2695312 0.03516,0.082031 h 0.621093 v 2.625 c 0,0.703125 0.316407,1.0664059 0.878907,1.0664059 0.08203,0 0.234375,-0.03516 0.386718,-0.1171872 z m 4.016602,-0.023437 -0.09375,-0.234375 c -0.09375,0.058594 -0.222656,0.1054687 -0.328125,0.1054687 -0.152344,0 -0.316406,-0.140625 -0.316406,-0.5507812 v -1.664063 c 0,-0.46875 -0.08203,-0.84375 -0.398438,-1.1015625 -0.199219,-0.1640625 -0.46875,-0.2460938 -0.738281,-0.2460938 -0.515625,0.1054688 -1.101563,0.4570313 -1.347656,0.6328125 -0.175782,0.1289063 -0.292969,0.2226563 -0.292969,0.3632813 0,0.1992187 0.234375,0.3867187 0.398437,0.3867187 0.128907,0 0.222657,-0.070312 0.257813,-0.2109375 0.07031,-0.28125 0.152344,-0.4804687 0.269531,-0.5976562 0.09375,-0.1054688 0.222656,-0.1757813 0.410156,-0.1757813 0.445313,0 0.75,0.3632813 0.75,1.0195313 v 0.1640625 c -0.199218,0.1523437 -0.855468,0.3984375 -1.394531,0.5742187 -0.492187,0.1757813 -0.726562,0.4570313 -0.726562,0.9023438 0,0.5625 0.445312,1.0898438 1.078125,1.0898438 0.269531,0 0.703125,-0.3281251 1.066406,-0.5742188 0.04687,0.1523437 0.09375,0.28125 0.210937,0.4101562 0.105469,0.082032 0.292969,0.1640626 0.421875,0.1640626 z M 59.35177,9.2388234 c -0.164062,0.1640625 -0.480468,0.3164063 -0.714843,0.328125 -0.28125,0 -0.644532,-0.2226562 -0.644532,-0.6914062 0,-0.328125 0.199219,-0.4921875 0.550782,-0.65625 0.1875,-0.09375 0.621093,-0.28125 0.808593,-0.375 z m 6.108399,0.7617186 V 9.7661672 C 64.932825,9.7075734 64.88595,9.6724172 64.88595,9.0630422 v -1.734375 c 0,-0.8789063 -0.445312,-1.3710938 -1.160156,-1.3710938 -0.257813,0 -0.492188,0.1054688 -0.75,0.2695313 -0.222656,0.1523437 -0.421875,0.2929687 -0.597656,0.421875 V 5.9341359 c -0.398438,0.1757813 -0.820313,0.28125 -1.253907,0.3632813 v 0.2109375 c 0.492188,0.09375 0.539063,0.1171875 0.539063,0.6914062 v 1.8632813 c 0,0.5976562 -0.04687,0.6445312 -0.65625,0.703125 v 0.2343748 h 1.957031 V 9.7661672 c -0.527344,-0.058594 -0.585937,-0.09375 -0.585937,-0.703125 v -2.109375 c 0.269531,-0.234375 0.621093,-0.46875 0.984375,-0.46875 0.597656,0 0.820312,0.4101562 0.820312,1.03125 v 1.5 c 0,0.6210937 -0.07031,0.6914062 -0.597656,0.75 v 0.2343748 z m 3.691406,-0.9960936 c -0.410156,0.3867188 -0.703125,0.4921875 -1.089844,0.4921875 -0.503906,0 -1.359375,-0.4101562 -1.359375,-1.6640625 0,-0.9492187 0.515625,-1.4414062 1.113282,-1.4414062 0.316406,0 0.632812,0.1171875 0.902343,0.375 0.08203,0.070312 0.117188,0.09375 0.164063,0.09375 0.105469,0 0.304687,-0.1992188 0.304687,-0.3867188 0,-0.1054687 -0.03516,-0.1757812 -0.152343,-0.28125 -0.140625,-0.1171875 -0.433594,-0.234375 -0.796875,-0.234375 -0.351563,0 -0.890625,0.140625 -1.359375,0.5039063 -0.597657,0.46875 -0.902344,1.078125 -0.902344,1.7695312 0,0.9609375 0.667969,1.8750001 1.804687,1.8750001 0.527344,0 1.136719,-0.3984376 1.523438,-0.9140626 z m 3.703125,0.046875 c -0.328125,0.3046875 -0.667969,0.4453125 -1.019531,0.4453125 -0.632813,0 -1.335938,-0.5039062 -1.347656,-1.7226562 1.066406,-0.046875 2.191406,-0.1289063 2.355468,-0.1640625 0.152344,-0.035156 0.199219,-0.1054688 0.199219,-0.28125 0,-0.703125 -0.597656,-1.3710938 -1.347656,-1.3710938 -0.46875,0 -0.949219,0.2460938 -1.324219,0.65625 -0.363281,0.4101563 -0.597656,0.9609375 -0.597656,1.5820313 0,1.0078125 0.65625,1.9101563 1.757812,1.9101563 0.28125,0 0.902344,-0.1640626 1.464844,-0.8671876 z M 71.483606,6.2974172 c 0.492188,0 0.796875,0.421875 0.785157,0.890625 0,0.1289062 -0.04687,0.1875 -0.210938,0.1875 -0.527344,0.011719 -1.019531,0.023437 -1.523437,0.023437 0.128906,-0.7265625 0.527343,-1.1015625 0.949218,-1.101562 z m 0,0"
         style="fill:#231f20;fill-opacity:1;fill-rule:nonzero;stroke:none"
         aria-label="2&#10;1.5&#10;1.0&#10;0.5&#10;46&#10;Distance"
         transform="matrix(1.3333333,0,0,1.3333333,80.6104,161.0136)" />
      <path
         id="path13"
         d="m 0.37496563,-5.8484381 v 0.2578125 c 0.69140627,0.058594 0.77343747,0.09375 0.77343747,0.8671875 v 3.609375 c 0,0.76171873 -0.082031,0.82031248 -0.85546872,0.86718748 V -7.81875e-4 H 2.4257469 c 1.1132812,0 2.0039062,-0.222656245 2.671875,-0.749999995 0.703125,-0.51562503 1.1132812,-1.32421873 1.1132812,-2.40234373 0,-0.84375 -0.3164062,-1.5 -0.7617187,-1.9335938 C 4.8984031,-5.6140631 4.0546531,-5.8484381 2.9062156,-5.8484381 Z m 1.54687497,0.9257812 c 0,-0.3515625 0.023437,-0.4453125 0.1171875,-0.515625 0.082031,-0.058594 0.3164063,-0.1054687 0.6914063,-0.1054687 0.609375,0 1.125,0.1054687 1.5351562,0.3632812 0.7148438,0.421875 1.0664063,1.2304688 1.0664063,2.15625 0,1.4414063 -0.7734375,2.69531253 -2.4609375,2.69531253 -0.65625,0 -0.9492188,-0.1640625 -0.9492188,-0.85546873 z m 5.9121094,0.09375 c 0.2578125,0 0.4570313,-0.2109375 0.4570313,-0.4570312 0,-0.2695313 -0.1992188,-0.46875 -0.4570313,-0.46875 -0.234375,0 -0.4570312,0.1992187 -0.4570312,0.46875 0,0.2460937 0.2226562,0.4570312 0.4570312,0.4570312 z M 8.8886375,-7.81875e-4 V -0.23515687 C 8.3027,-0.29375062 8.2441063,-0.34062562 8.2441063,-0.95000062 V -4.0554694 c -0.3984375,0.1523438 -0.8203125,0.2695313 -1.2773438,0.3515625 v 0.2109375 c 0.5390625,0.09375 0.5625,0.1289063 0.5625,0.6796875 v 1.86328128 c 0,0.609375 -0.058594,0.65625 -0.6210937,0.71484375 v 0.234374995 z m 4.0664065,-0.351562495 -0.09375,-0.234375 c -0.09375,0.0585938 -0.222656,0.10546875 -0.328125,0.10546875 -0.152344,0 -0.316406,-0.140625 -0.316406,-0.55078128 v -1.6640625 c 0,-0.46875 -0.08203,-0.84375 -0.398438,-1.1015625 -0.199219,-0.1640625 -0.46875,-0.2460937 -0.738281,-0.2460937 -0.515625,0.1054687 -1.1015627,0.4570312 -1.3476565,0.6328125 -0.1757812,0.1289062 -0.2929687,0.2226562 -0.2929687,0.3632812 0,0.1992188 0.234375,0.3867188 0.3984375,0.3867188 0.1289062,0 0.2226567,-0.070312 0.2578127,-0.2109375 0.07031,-0.28125 0.152344,-0.4804688 0.269531,-0.5976563 0.09375,-0.1054687 0.222656,-0.1757812 0.410156,-0.1757812 0.445313,0 0.75,0.3632812 0.75,1.0195312 v 0.1640625 c -0.199218,0.1523438 -0.855468,0.3984375 -1.394531,0.5742188 -0.4921875,0.1757812 -0.7265625,0.4570312 -0.7265625,0.90234373 0,0.5625 0.4453125,1.08984375 1.0781255,1.08984375 0.269531,0 0.703125,-0.328125 1.066406,-0.57421875 0.04687,0.15234375 0.09375,0.28125 0.210937,0.41015625 0.105469,0.08203125 0.292969,0.1640625 0.421875,0.1640625 z m -1.429688,-0.41015625 c -0.164062,0.1640625 -0.480468,0.31640625 -0.714843,0.328125 -0.28125,0 -0.644532,-0.22265625 -0.644532,-0.69140628 0,-0.328125 0.199219,-0.4921875 0.550782,-0.65625 0.1875,-0.09375 0.621093,-0.28125 0.808593,-0.375 z m 8.557617,0.761718745 V -0.23515687 c -0.503906,-0.0585938 -0.585937,-0.09375 -0.585937,-0.69140625 V -2.6609381 c 0,-0.890625 -0.433594,-1.3828125 -1.136719,-1.3828125 -0.257812,0 -0.492187,0.1054687 -0.679687,0.234375 -0.222657,0.140625 -0.480469,0.3046875 -0.738282,0.5039062 -0.1875,-0.46875 -0.574218,-0.7382812 -1.007812,-0.7382812 -0.28125,0 -0.503906,0.1054687 -0.738281,0.2460937 -0.269532,0.1640625 -0.46875,0.328125 -0.65625,0.4570313 v -0.7265625 c -0.398438,0.1757812 -0.855469,0.2929687 -1.253907,0.3632812 v 0.2109375 c 0.527344,0.082031 0.550782,0.1289063 0.550782,0.703125 v 1.86328128 c 0,0.5859375 -0.08203,0.6328125 -0.667969,0.69140625 v 0.234374995 h 1.898437 V -0.23515687 c -0.445312,-0.0585938 -0.515625,-0.10546875 -0.515625,-0.69140625 V -3.0476569 c 0.269532,-0.2226562 0.621094,-0.46875 0.984375,-0.46875 0.550782,0 0.785157,0.375 0.785157,1.0429688 v 1.54687498 c 0,0.59765625 -0.08203,0.6328125 -0.644532,0.69140625 v 0.234374995 h 1.921875 V -0.23515687 C 17.106411,-0.29375062 17.02438,-0.34062562 17.02438,-0.91484437 V -2.6609381 c 0,-0.1757813 -0.01172,-0.2695313 -0.02344,-0.3867188 0.339844,-0.28125 0.679688,-0.46875 1.007813,-0.46875 0.5625,0 0.796875,0.4101563 0.796875,1.0546875 v 1.50000003 c 0,0.6328125 -0.105469,0.66796875 -0.632813,0.7265625 v 0.234374995 z m 3.585938,-0.949218745 c -0.328125,0.3046875 -0.667969,0.4453125 -1.019531,0.4453125 -0.632813,0 -1.335938,-0.50390628 -1.347657,-1.72265628 1.066407,-0.046875 2.191407,-0.1289062 2.355469,-0.1640625 0.152344,-0.035156 0.199219,-0.1054687 0.199219,-0.28125 0,-0.703125 -0.597656,-1.3710937 -1.347656,-1.3710937 -0.46875,0 -0.949219,0.2460937 -1.324219,0.65625 -0.363281,0.4101562 -0.597656,0.9609375 -0.597656,1.5820312 0,1.00781253 0.65625,1.91015628 1.757812,1.91015628 0.28125,0 0.902344,-0.1640625 1.464844,-0.8671875 z M 22.297817,-3.7039069 c 0.492188,0 0.796875,0.421875 0.785156,0.890625 0,0.1289063 -0.04687,0.1875 -0.210937,0.1875 -0.527344,0.011719 -1.019531,0.023437 -1.523438,0.023437 0.128907,-0.7265625 0.527344,-1.1015625 0.949219,-1.101562 z m 4.470703,3.37500003 -0.08203,-0.234375 c -0.128906,0.0703125 -0.328125,0.15234375 -0.5625,0.15234375 -0.222656,0 -0.515625,-0.12890625 -0.515625,-0.85546878 v -2.3203125 h 0.960938 c 0.105468,-0.058594 0.128906,-0.2578125 0.05859,-0.3515625 h -1.019531 v -1.2304687 l -0.128906,-0.011719 -0.585938,0.5859375 v 0.65625 h -0.410156 l -0.246094,0.2695313 0.03516,0.082031 h 0.621093 v 2.62500003 c 0,0.703125 0.316407,1.06640625 0.878907,1.06640625 0.08203,0 0.234375,-0.03515625 0.386718,-0.1171875 z m 3.416016,-0.62109375 c -0.328125,0.3046875 -0.667969,0.4453125 -1.019531,0.4453125 -0.632813,0 -1.335938,-0.50390628 -1.347657,-1.72265628 1.066407,-0.046875 2.191407,-0.1289062 2.355469,-0.1640625 0.152344,-0.035156 0.199219,-0.1054687 0.199219,-0.28125 0,-0.703125 -0.597656,-1.3710937 -1.347656,-1.3710937 -0.46875,0 -0.949219,0.2460937 -1.324219,0.65625 -0.363281,0.4101562 -0.597656,0.9609375 -0.597656,1.5820312 0,1.00781253 0.65625,1.91015628 1.757812,1.91015628 0.28125,0 0.902344,-0.1640625 1.464844,-0.8671875 z M 28.813442,-3.7039069 c 0.492188,0 0.796875,0.421875 0.785156,0.890625 0,0.1289063 -0.04687,0.1875 -0.210937,0.1875 -0.527344,0.011719 -1.019531,0.023437 -1.523438,0.023437 0.128907,-0.7265625 0.527344,-1.1015625 0.949219,-1.101562 z m 3.416016,0.6210938 v -0.984375 c -0.433594,0.1875 -0.832031,0.2929687 -1.265625,0.3632812 v 0.1992188 c 0.503906,0.070312 0.550781,0.1054687 0.550781,0.703125 v 1.86328123 c 0,0.59765625 -0.05859,0.64453125 -0.621094,0.703125 v 0.234374995 h 2.074219 V -0.23515687 c -0.691406,-0.0585938 -0.738281,-0.10546875 -0.738281,-0.703125 V -2.5789069 c 0.199219,-0.5039062 0.480469,-0.7734375 0.714844,-0.7734375 0.152343,0 0.257812,0.046875 0.386718,0.1875 0.04687,0.046875 0.128907,0.058594 0.234375,0.011719 0.175782,-0.082031 0.292969,-0.2578125 0.292969,-0.4335938 0,-0.2226562 -0.210937,-0.4570312 -0.527344,-0.4570312 -0.421875,0 -0.808593,0.5039062 -1.078125,0.9609375 z m 0,0"
         style="fill:#231f20;fill-opacity:1;fill-rule:nonzero;stroke:none"
         aria-label="Di&#10;a&#10;m&#10;et&#10;er"
         transform="matrix(0,-1.3333333,1.3333333,0,9.89948,95.820267)" />
      <path
         id="path14"
         d="m 2.2273281,-5.7201609 c -0.9609375,0 -1.59374997,0.7265625 -1.59374997,1.4765625 0,0.6328125 0.38671877,1.0664062 0.97265627,1.3945312 -0.3046875,0.1992188 -0.65625002,0.4453125 -0.79687502,0.5742188 -0.19921875,0.1992187 -0.3984375,0.4453125 -0.3984375,0.8554687 0,0.97265626 0.76171872,1.52343751 1.72265622,1.52343751 0.7617188,0 1.78125,-0.57421875 1.78125,-1.62890621 0,-0.7851563 -0.5625,-1.2070313 -1.1835937,-1.5585938 0.3984375,-0.28125 0.6445312,-0.5039062 0.703125,-0.5859375 0.1757812,-0.1875 0.2695312,-0.4570312 0.2695312,-0.7148437 0,-0.7265625 -0.6210937,-1.3359375 -1.4765625,-1.3359375 z m -0.082031,0.2929687 c 0.4101562,0 0.8789062,0.328125 0.8789062,1.0898438 0,0.5390625 -0.2460937,0.8671875 -0.5507812,1.1132812 -0.6328125,-0.3164062 -1.171875,-0.609375 -1.171875,-1.2773437 0,-0.4570313 0.3046875,-0.9257813 0.84375,-0.9257813 z m 0.082031,5.25000001 c -0.5742187,0 -1.1015625,-0.46875 -1.1015625,-1.28906251 0,-0.4921875 0.3046875,-0.9492187 0.7382813,-1.2304687 0.6914062,0.3515625 1.3359375,0.7382812 1.3359375,1.40625 0,0.69140621 -0.421875,1.11328121 -0.9726563,1.11328121 z m 35.3378909,0.17578125 v -0.24609375 c -0.820313,-0.0585938 -0.878906,-0.12890625 -0.878906,-0.78515621 v -4.6875 c -0.492188,0.1992187 -1.019532,0.375 -1.59375,0.46875 v 0.2109375 l 0.433593,0.011719 c 0.386719,0.023437 0.421875,0.070312 0.421875,0.5390625 v 3.4570313 c 0,0.65624996 -0.03516,0.72656246 -0.855468,0.78515621 v 0.24609375 z m 3.020508,-5.71874996 c -1.347657,0 -1.839844,1.6054687 -1.839844,2.9179687 0,1.4179688 0.480469,2.90625001 1.839844,2.90625001 1.359375,0 1.828125,-1.59375001 1.828125,-2.91796871 0,-1.3828125 -0.46875,-2.90625 -1.828125,-2.90625 z m 0,0.3046875 c 0.808593,0 1.03125,1.3242187 1.03125,2.6015625 0,1.265625 -0.222657,2.61328121 -1.03125,2.61328121 -0.773438,0 -1.042969,-1.35937501 -1.042969,-2.61328121 0,-1.2539063 0.222656,-2.6015625 1.042969,-2.6015625 z m 0,0"
         style="fill:#231f20;fill-opacity:1;fill-rule:nonzero;stroke:none"
         aria-label="810"
         transform="matrix(1.3333333,0,0,1.3333333,225.67867,161.0136)" />
    </g>
  </g>
</svg>
