<?xml version="1.0" encoding="UTF-8" standalone="no"?>
<!-- Created with Inkscape (http://www.inkscape.org/) -->

<svg
   version="1.1"
   id="svg1"
   width="168.46667"
   height="140.39999"
   viewBox="0 0 168.46667 140.39999"
   sodipodi:docname="pha05f03.eps"
   xmlns:inkscape="http://www.inkscape.org/namespaces/inkscape"
   xmlns:sodipodi="http://sodipodi.sourceforge.net/DTD/sodipodi-0.dtd"
   xmlns="http://www.w3.org/2000/svg"
   xmlns:svg="http://www.w3.org/2000/svg">
  <defs
     id="defs1" />
  <sodipodi:namedview
     id="namedview1"
     pagecolor="#ffffff"
     bordercolor="#000000"
     borderopacity="0.25"
     inkscape:showpageshadow="2"
     inkscape:pageopacity="0.0"
     inkscape:pagecheckerboard="0"
     inkscape:deskcolor="#d1d1d1">
    <inkscape:page
       x="0"
       y="0"
       inkscape:label="1"
       id="page1"
       width="168.46667"
       height="140.39999"
       margin="0"
       bleed="0" />
  </sodipodi:namedview>
  <g
     id="g1"
     inkscape:groupmode="layer"
     inkscape:label="1">
    <g
       id="group-R5">
      <path
         id="path2"
         d="m 304.828,315.215 h 550.969 v 331 H 304.828 Z"
         style="fill:#dfdfdf;fill-opacity:1;fill-rule:nonzero;stroke:none"
         transform="matrix(0.13333333,0,0,-0.13333333,0,140.4)" />
      <path
         id="path3"
         d="M 15.9219,875.047 V 102.625 H 801.754 v 5 H 20.9219 v 767.422 h -5"
         style="fill:#231f20;fill-opacity:1;fill-rule:nonzero;stroke:none"
         transform="matrix(0.13333333,0,0,-0.13333333,0,140.4)" />
      <path
         id="path4"
         d="m 18.4219,866.07 18.0195,-10.957 0.4024,0.617 -11.6641,29.375 c -2.2539,10.235 -4.5,20.469 -6.7578,30.704 -2.25,-10.235 -4.5,-20.469 -6.7578,-30.704 L 0,855.73 0.308594,855.113 18.4219,866.07"
         style="fill:#231f20;fill-opacity:1;fill-rule:nonzero;stroke:none"
         transform="matrix(0.13333333,0,0,-0.13333333,0,140.4)" />
      <path
         id="path5"
         d="M 831.93,105.125 C 817.73,99.8555 800.113,90.8672 789.195,81.3438 l 8.594,23.7812 -8.594,23.773 c 10.918,-9.519 28.535,-18.511 42.735,-23.773"
         style="fill:#231f20;fill-opacity:1;fill-rule:nonzero;stroke:none"
         transform="matrix(0.13333333,0,0,-0.13333333,0,140.4)" />
      <path
         id="path6"
         d="M 206.23,296.629 16.7227,107.117 20.2578,103.582 209.766,293.094"
         style="fill:#231f20;fill-opacity:1;fill-rule:nonzero;stroke:none"
         transform="matrix(0.13333333,0,0,-0.13333333,0,140.4)" />
      <path
         id="path7"
         d="m 201.656,288.512 4.989,-20.481 0.722,0.145 12.52,29.019 c 5.644,8.828 11.289,17.66 16.933,26.489 -8.828,-5.645 -17.656,-11.289 -26.484,-16.934 l -29.023,-12.52 -0.219,-0.652 20.562,-5.066"
         style="fill:#231f20;fill-opacity:1;fill-rule:nonzero;stroke:none"
         transform="matrix(0.13333333,0,0,-0.13333333,0,140.4)" />
      <path
         id="path8"
         d="M 0.77419375,-2.9166053 C 1.0906,-3.3150428 1.2663812,-3.4322303 1.3484125,-3.4322303 c 0.09375,0 0.1757812,0.1289062 0.3046875,0.5742187 l 0.3046875,0.9375 c -0.5625,0.8320313 -0.984375,1.35937504 -1.2421875,1.35937504 -0.09375,0 -0.1640625,-0.0351563 -0.2109375,-0.09375 -0.046875,-0.0585938 -0.09375,-0.09375 -0.140625,-0.09375 -0.17578125,0 -0.36328125,0.2109375 -0.36328125,0.421875 -0.01171875,0.2578125 0.17578125,0.43359375 0.41015625,0.43359375 0.421875,0 0.84375,-0.43359375 1.640625,-1.69921879 l 0.28125,0.87890629 c 0.1757812,0.5625 0.3632812,0.8203125 0.5976562,0.8203125 0.3046875,0 0.7265625,-0.328125 1.1367188,-0.97265625 L 3.9148187,-1.0416053 c -0.28125,0.33984374 -0.5039062,0.51562499 -0.6445312,0.51562499 -0.1523438,0 -0.28125,-0.2578125 -0.4570313,-0.82031249 L 2.5202875,-2.2486366 c 0.1992187,-0.28125 0.3984375,-0.5273437 0.5859375,-0.7382812 0.234375,-0.2929688 0.4101562,-0.4453125 0.5390625,-0.4453125 0.082031,0 0.1523437,0.035156 0.2109375,0.1054687 0.046875,0.046875 0.082031,0.070312 0.1289062,0.070312 0.140625,0 0.3398438,-0.1757812 0.3515625,-0.3984375 0,-0.1992187 -0.140625,-0.3867187 -0.375,-0.3867187 -0.3984375,0 -0.7851562,0.3867187 -1.5351562,1.4765625 L 2.2741937,-3.0572303 C 2.0515375,-3.7017616 1.93435,-4.0416053 1.6882562,-4.0416053 c -0.2929687,0 -0.6914062,0.3867187 -1.0664062,0.9375 z M -50.240455,-25.355082 c -0.222656,0.246094 -0.398437,0.351563 -0.550781,0.351563 -0.152344,0 -0.304687,-0.01172 -0.726562,-0.09375 -0.433594,-0.07031 -0.703125,-0.105469 -0.949219,-0.105469 -0.222656,0 -0.445313,0.1875 -0.65625,0.527344 -0.140625,0.234375 -0.246094,0.445312 -0.375,0.726562 l 0.234375,0.105469 c 0.257812,-0.457031 0.46875,-0.761719 0.890625,-0.761719 0.222656,0 0.621094,0.02344 0.855469,0.05859 0.199218,0.01172 0.398437,0 0.550781,-0.03516 -0.832031,0.890625 -1.875,1.910156 -2.496094,2.578125 -0.550781,0.574218 -0.480469,0.832031 -0.328125,0.902343 0.04687,0.01172 0.07031,-0.02344 0.105469,-0.08203 0.08203,-0.117187 0.1875,-0.234375 0.292969,-0.304687 0.117187,-0.08203 0.269531,-0.09375 0.550781,0.04687 0.398437,0.199218 0.914062,0.433593 1.207031,0.433593 0.386719,0 0.75,-0.269531 1.242188,-1.242187 l -0.199219,-0.164063 c -0.410156,0.609375 -0.679688,0.761719 -0.925781,0.761719 -0.222657,0 -0.515625,-0.117187 -0.808594,-0.210937 -0.269531,-0.117188 -0.503906,-0.164063 -0.679688,-0.152344 0.667969,-0.703125 1.851563,-1.886719 2.425782,-2.542969 0.246093,-0.269531 0.410156,-0.457031 0.527343,-0.597656 z m -18.93164,-58.051758 c -0.05859,-0.808593 -0.117188,-1.628906 -0.210938,-2.308593 -0.07031,-0.714844 -0.210937,-1.054688 -0.457031,-1.054688 -0.328125,0 -0.773438,0.515625 -1.066406,0.960938 l 0.152343,0.210937 c 0.222657,-0.316406 0.457032,-0.527344 0.527344,-0.527344 0.07031,0 0.117188,0.117188 0.1875,0.5625 0.128906,0.820313 0.269531,2.226563 0.28125,2.929688 -0.445312,0.597656 -1.160156,1.394531 -2.121094,2.015625 l 0.07031,0.199219 0.9375,-0.234375 c 0.503906,-0.5625 1.089844,-1.359375 1.617187,-2.121094 0.480469,-0.667969 1.242188,-1.863281 1.628907,-2.542969 0.234375,-0.398437 0.328125,-0.703125 0.316406,-0.960937 0,-0.292969 -0.152344,-0.492188 -0.351563,-0.492188 -0.152343,0 -0.316406,0.105469 -0.375,0.246094 -0.03516,0.07031 -0.04687,0.164062 -0.01172,0.222656 0.03516,0.105469 0.09375,0.246094 0.09375,0.421875 0.01172,0.65625 -0.820313,1.886719 -1.207032,2.472656 z m 0,0"
         style="fill:#231f20;fill-opacity:1;fill-rule:nonzero;stroke:none"
         aria-label="x&#10;z&#10;y"
         transform="matrix(1.3333333,0,0,1.3333333,102.04587,136.08021)" />
      <path
         id="path9"
         d="m 855.797,315.215 v 2.5 H 307.328 v 326 h 545.969 v -328.5 h 2.5 v 2.5 -2.5 h 2.5 v 333.5 H 302.328 v -336 h 555.969 v 2.5 h -2.5"
         style="fill:#231f20;fill-opacity:1;fill-rule:nonzero;stroke:none"
         transform="matrix(0.13333333,0,0,-0.13333333,0,140.4)" />
      <path
         id="path10"
         d="m 1251.01,717.027 h 10 v 5 h -10 z"
         style="fill:#231f20;fill-opacity:1;fill-rule:nonzero;stroke:none"
         transform="matrix(0.13333333,0,0,-0.13333333,0,140.4)" />
      <path
         id="path11"
         d="m 1231.34,722.027 h -19.6602 v -5 h 19.6602 z m -39.33,0 h -19.6602 v -5 h 19.6602 z m -39.33,0 h -19.6602 v -5 h 19.6602 z m -39.33,0 h -19.6719 v -5 h 19.6719 z m -39.33,0 h -19.668 v -5 h 19.668 z m -39.33,0 h -19.6719 v -5 h 19.6719 z m -39.331,0 h -19.668 v -5 h 19.668 z m -39.332,0 h -19.668 v -5 h 19.668 z m -39.332,0 h -19.6641 v -5 h 19.6641 z m -39.332,0 h -19.6641 v -5 h 19.6641 z m -39.328,0 h -19.668 v -5 h 19.668 z m -39.332,0 h -19.6641 v -5 h 19.6641 z m -39.332,0 h -19.6641 v -5 h 19.6641 z"
         style="fill:#231f20;fill-opacity:1;fill-rule:nonzero;stroke:none"
         transform="matrix(0.13333333,0,0,-0.13333333,0,140.4)" />
      <path
         id="path12"
         d="m 720.043,722.027 h -7.5 v 7.5 h -5 v -10 -2.5 h 12.5 v 5"
         style="fill:#231f20;fill-opacity:1;fill-rule:nonzero;stroke:none"
         transform="matrix(0.13333333,0,0,-0.13333333,0,140.4)" />
      <path
         id="path13"
         d="m 712.543,770.996 h -5 v -20.7344 h 5 z m 0,41.465 h -5 v -20.7344 h 5 z m 0,41.469 h -5 v -20.7344 h 5 z m 0,41.465 h -5 v -20.7344 h 5 z m 0,41.468 h -5 v -20.7344 h 5 z m 0,41.465 h -5 v -20.7344 h 5 z m 0,41.472 h -5 v -20.7344 h 5 z"
         style="fill:#231f20;fill-opacity:1;fill-rule:nonzero;stroke:none"
         transform="matrix(0.13333333,0,0,-0.13333333,0,140.4)" />
      <path
         id="path14"
         d="m 707.543,1040.53 h 5 v 10 h -5 z"
         style="fill:#231f20;fill-opacity:1;fill-rule:nonzero;stroke:none"
         transform="matrix(0.13333333,0,0,-0.13333333,0,140.4)" />
      <path
         id="path15"
         d="M 710.043,1048.03 H 1258.51 V 719.527 h 5 V 1053.03 H 710.043 v -5"
         style="fill:#231f20;fill-opacity:1;fill-rule:nonzero;stroke:none"
         transform="matrix(0.13333333,0,0,-0.13333333,0,140.4)" />
      <path
         id="path16"
         d="m 306.594,644.445 405.215,404.315 -3.532,3.54 -405.214,-404.316"
         style="fill:#231f20;fill-opacity:1;fill-rule:nonzero;stroke:none"
         transform="matrix(0.13333333,0,0,-0.13333333,0,140.4)" />
      <path
         id="path17"
         d="m 857.563,644.445 405.217,404.315 -3.54,3.54 -405.209,-404.316"
         style="fill:#231f20;fill-opacity:1;fill-rule:nonzero;stroke:none"
         transform="matrix(0.13333333,0,0,-0.13333333,0,140.4)" />
      <path
         id="path18"
         d="M 1259.24,721.301 854.031,316.98 l 3.532,-3.539 405.217,404.317"
         style="fill:#231f20;fill-opacity:1;fill-rule:nonzero;stroke:none"
         transform="matrix(0.13333333,0,0,-0.13333333,0,140.4)" />
      <path
         id="path19"
         d="m 708.277,721.301 -7.078,-7.067 3.531,-3.539 7.079,7.063"
         style="fill:#231f20;fill-opacity:1;fill-rule:nonzero;stroke:none"
         transform="matrix(0.13333333,0,0,-0.13333333,0,140.4)" />
      <path
         id="path20"
         d="m 686.715,699.785 -14.485,-14.449 3.536,-3.543 14.48,14.453 z m -28.965,-28.902 -14.484,-14.453 3.531,-3.539 14.484,14.453 z m -28.969,-28.903 -14.484,-14.453 3.531,-3.539 14.485,14.45 z m -28.968,-28.906 -14.481,-14.449 3.531,-3.539 14.485,14.449 z m -28.965,-28.902 -14.485,-14.449 3.532,-3.539 14.484,14.449 z m -28.969,-28.902 -14.481,-14.454 3.532,-3.539 14.48,14.453 z m -28.965,-28.903 -14.484,-14.453 3.531,-3.539 14.484,14.453 z m -28.969,-28.902 -14.48,-14.453 3.527,-3.539 14.485,14.453 z m -28.965,-28.906 -14.484,-14.45 3.531,-3.539 14.485,14.45 z m -28.968,-28.903 -14.485,-14.449 3.532,-3.539 14.484,14.449 z m -28.965,-28.902 -14.484,-14.449 3.531,-3.543 14.484,14.453 z m -28.969,-28.902 -14.484,-14.454 3.531,-3.539 14.484,14.454 z m -28.969,-28.903 -14.48,-14.453 3.531,-3.539 14.485,14.449 z"
         style="fill:#231f20;fill-opacity:1;fill-rule:nonzero;stroke:none"
         transform="matrix(0.13333333,0,0,-0.13333333,0,140.4)" />
      <path
         id="path21"
         d="m 310.145,324.047 -7.082,-7.067 3.531,-3.539 7.082,7.067"
         style="fill:#231f20;fill-opacity:1;fill-rule:nonzero;stroke:none"
         transform="matrix(0.13333333,0,0,-0.13333333,0,140.4)" />
    </g>
  </g>
</svg>
