<?xml version="1.0" encoding="UTF-8" standalone="no"?>
<!-- Created with Inkscape (http://www.inkscape.org/) -->

<svg
   version="1.1"
   id="svg1"
   width="210.05333"
   height="166.02667"
   viewBox="0 0 210.05333 166.02667"
   sodipodi:docname="pha05f06.eps"
   xmlns:inkscape="http://www.inkscape.org/namespaces/inkscape"
   xmlns:sodipodi="http://sodipodi.sourceforge.net/DTD/sodipodi-0.dtd"
   xmlns="http://www.w3.org/2000/svg"
   xmlns:svg="http://www.w3.org/2000/svg">
  <defs
     id="defs1" />
  <sodipodi:namedview
     id="namedview1"
     pagecolor="#ffffff"
     bordercolor="#000000"
     borderopacity="0.25"
     inkscape:showpageshadow="2"
     inkscape:pageopacity="0.0"
     inkscape:pagecheckerboard="0"
     inkscape:deskcolor="#d1d1d1">
    <inkscape:page
       x="0"
       y="0"
       inkscape:label="1"
       id="page1"
       width="210.05333"
       height="166.02667"
       margin="0"
       bleed="0" />
  </sodipodi:namedview>
  <g
     id="g1"
     inkscape:groupmode="layer"
     inkscape:label="1">
    <g
       id="group-R5">
      <path
         id="path2"
         d="M 80.293,99.4414 V 1135.41"
         style="fill:none;stroke:#2b2728;stroke-width:7.5;stroke-linecap:butt;stroke-linejoin:miter;stroke-miterlimit:10;stroke-dasharray:none;stroke-opacity:1"
         transform="matrix(0.13333333,0,0,-0.13333333,0,166.02667)" />
      <path
         id="path3"
         d="M 80.293,616.207 H 1490.12"
         style="fill:none;stroke:#231f20;stroke-width:5;stroke-linecap:butt;stroke-linejoin:miter;stroke-miterlimit:10;stroke-dasharray:none;stroke-opacity:1"
         transform="matrix(0.13333333,0,0,-0.13333333,0,166.02667)" />
      <path
         id="path4"
         d="m 1520.29,616.207 c -14.2,-5.269 -31.81,-14.258 -42.73,-23.781 l 8.6,23.781 -8.6,23.773 c 10.92,-9.519 28.53,-18.511 42.73,-23.773"
         style="fill:#231f20;fill-opacity:1;fill-rule:nonzero;stroke:none"
         transform="matrix(0.13333333,0,0,-0.13333333,0,166.02667)" />
      <path
         id="path5"
         d="m 3.786375,-4.1733109 c -0.2226562,0.2460937 -0.3984375,0.3515625 -0.5507812,0.3515625 -0.1523438,0 -0.3046875,-0.011719 -0.7265625,-0.09375 -0.4335938,-0.070312 -0.703125,-0.1054688 -0.9492188,-0.1054688 -0.2226562,0 -0.4453125,0.1875 -0.65625,0.5273438 -0.140625,0.234375 -0.24609375,0.4453125 -0.375,0.7265625 l 0.234375,0.1054687 c 0.2578125,-0.4570312 0.46875,-0.7617187 0.890625,-0.7617187 0.2226563,0 0.6210938,0.023437 0.8554688,0.058594 0.1992187,0.011719 0.3984375,0 0.5507812,-0.035156 -0.8320312,0.890625 -1.875,1.9101562 -2.49609375,2.57812496 -0.55078125,0.57421875 -0.48046875,0.83203125 -0.328125,0.90234375 0.046875,0.01171875 0.0703125,-0.0234375 0.10546875,-0.08203125 0.0820313,-0.1171875 0.1875,-0.234375 0.29296875,-0.3046875 0.1171875,-0.0820313 0.26953125,-0.09375 0.55078125,0.046875 0.3984375,0.19921875 0.9140625,0.43359375 1.2070313,0.43359375 0.3867187,0 0.75,-0.26953125 1.2421875,-1.24218751 l -0.1992188,-0.164063 c -0.4101562,0.60937501 -0.6796875,0.76171876 -0.9257812,0.76171876 -0.2226563,0 -0.515625,-0.1171875 -0.8085938,-0.2109375 C 1.4309063,-0.79831094 1.1965313,-0.84518594 1.02075,-0.83346719 1.6887188,-1.5365922 2.8723125,-2.7201859 3.4465313,-3.3764359 3.692625,-3.6459672 3.8566875,-3.8334672 3.973875,-3.9740922 Z m 0,0"
         style="fill:#231f20;fill-opacity:1;fill-rule:nonzero;stroke:none"
         aria-label="z"
         transform="matrix(1.3333333,0,0,1.3333333,204.764,86.326133)" />
      <path
         id="path6"
         d="M 80.6445,618.57 1455.01,979.906"
         style="fill:none;stroke:#231f20;stroke-width:5;stroke-linecap:butt;stroke-linejoin:miter;stroke-miterlimit:10;stroke-dasharray:none;stroke-opacity:1"
         transform="matrix(0.13333333,0,0,-0.13333333,0,166.02667)" />
      <path
         id="path7"
         d="M 81.4453,615.18 1456.22,255.406"
         style="fill:none;stroke:#231f20;stroke-width:5;stroke-linecap:butt;stroke-linejoin:miter;stroke-miterlimit:10;stroke-dasharray:none;stroke-opacity:1"
         transform="matrix(0.13333333,0,0,-0.13333333,0,166.02667)" />
      <g
         id="g7"
         aria-label="z = 0&#10;z′ = 0"
         transform="matrix(1.3333333,0,0,1.3333333,0,10.373333)">
        <path
           id="path8"
           d="M 3.7851563,-4.170625 C 3.5625,-3.9245312 3.3867188,-3.8190625 3.234375,-3.8190625 c -0.1523437,0 -0.3046875,-0.011719 -0.7265625,-0.09375 -0.4335937,-0.070312 -0.703125,-0.1054687 -0.9492188,-0.1054687 -0.2226562,0 -0.4453125,0.1875 -0.65624995,0.5273437 -0.140625,0.234375 -0.24609375,0.4453125 -0.375,0.7265625 l 0.234375,0.1054688 C 1.0195312,-3.1159375 1.2304687,-3.420625 1.6523437,-3.420625 c 0.2226563,0 0.6210938,0.023437 0.8554688,0.058594 0.1992188,0.011719 0.3984375,0 0.5507813,-0.035156 C 2.2265625,-2.5065625 1.1835937,-1.4870312 0.5625,-0.8190625 0.01171875,-0.24484375 0.08203125,0.01296875 0.234375,0.08328125 0.28125,0.095 0.3046875,0.05984375 0.33984375,0.00125 c 0.0820313,-0.1171875 0.1875,-0.234375 0.29296875,-0.3046875 0.1171875,-0.0820313 0.26953125,-0.09375 0.5507812,0.046875 0.3984375,0.19921875 0.9140626,0.43359375 1.2070313,0.43359375 0.3867188,0 0.75,-0.26953125 1.2421875,-1.24218745 L 3.4335938,-1.2292187 C 3.0234375,-0.61984375 2.7539063,-0.4675 2.5078125,-0.4675 2.2851563,-0.4675 1.9921875,-0.5846875 1.6992187,-0.6784375 1.4296875,-0.795625 1.1953125,-0.8425 1.0195312,-0.83078125 1.6875,-1.5339062 2.8710938,-2.7175 3.4453125,-3.37375 3.6914063,-3.6432812 3.8554688,-3.8307812 3.9726563,-3.9714062 Z m 0,0"
           style="fill:#231f20;fill-opacity:1;fill-rule:nonzero;stroke:none" />
        <path
           id="path9"
           d="M 10.582031,-2.8932812 V -3.3385937 H 6.2929687 v 0.4453125 z m 0,1.6523437 V -1.68625 H 6.2929687 v 0.4453125 z M 15.243164,-5.7175 c -1.347656,0 -1.839844,1.6054688 -1.839844,2.9179688 0,1.4179687 0.480469,2.90624995 1.839844,2.90624995 1.359375,0 1.828125,-1.59374995 1.828125,-2.91796875 0,-1.3828125 -0.46875,-2.90625 -1.828125,-2.90625 z m 0,0.3046875 c 0.808594,0 1.03125,1.3242188 1.03125,2.6015625 0,1.265625 -0.222656,2.61328125 -1.03125,2.61328125 -0.773437,0 -1.042969,-1.35937495 -1.042969,-2.61328125 0,-1.2539062 0.222657,-2.6015625 1.042969,-2.6015625 z m 0,0"
           style="fill:#231f20;fill-opacity:1;fill-rule:nonzero;stroke:none" />
        <path
           id="path10"
           d="m 73.948242,109.3284 c -0.222656,0.24609 -0.398437,0.35156 -0.550781,0.35156 -0.152344,0 -0.304688,-0.0117 -0.726563,-0.0937 -0.433593,-0.0703 -0.703125,-0.10547 -0.949218,-0.10547 -0.222657,0 -0.445313,0.1875 -0.65625,0.52735 -0.140625,0.23437 -0.246094,0.44531 -0.375,0.72656 l 0.234375,0.10547 c 0.257812,-0.45703 0.46875,-0.76172 0.890625,-0.76172 0.222656,0 0.621093,0.0234 0.855468,0.0586 0.199219,0.0117 0.398438,0 0.550782,-0.0352 -0.832032,0.89062 -1.875,1.91015 -2.496094,2.57812 -0.550781,0.57422 -0.480469,0.83203 -0.328125,0.90234 0.04687,0.0117 0.07031,-0.0234 0.105469,-0.082 0.08203,-0.11718 0.1875,-0.23437 0.292968,-0.30468 0.117188,-0.082 0.269532,-0.0937 0.550782,0.0469 0.398437,0.19922 0.914062,0.43359 1.207031,0.43359 0.386719,0 0.75,-0.26953 1.242187,-1.24218 L 73.59668,112.2698 c -0.410157,0.60938 -0.679688,0.76172 -0.925782,0.76172 -0.222656,0 -0.515625,-0.11718 -0.808593,-0.21093 -0.269532,-0.11719 -0.503907,-0.16407 -0.679688,-0.15235 0.667969,-0.70312 1.851563,-1.88672 2.425781,-2.54297 0.246094,-0.26953 0.410157,-0.45703 0.527344,-0.59765 z m 0,0"
           style="fill:#231f20;fill-opacity:1;fill-rule:nonzero;stroke:none" />
        <path
           id="path11"
           d="m 75.082031,109.96121 0.609375,-1.28906 c 0.175781,-0.38672 0.28125,-0.6211 0.316406,-0.73828 0.03516,-0.082 0.04687,-0.15235 0.04687,-0.22266 0,-0.0937 -0.02344,-0.16406 -0.08203,-0.22266 -0.07031,-0.0586 -0.152344,-0.0937 -0.257812,-0.0937 -0.128907,0 -0.246094,0.0352 -0.339844,0.11719 -0.105469,0.082 -0.175781,0.22266 -0.234375,0.39844 -0.03516,0.12891 -0.08203,0.375 -0.117188,0.76172 l -0.140625,1.28906 z m 0,0"
           style="fill:#231f20;fill-opacity:1;fill-rule:nonzero;stroke:none" />
        <path
           id="path12"
           d="m 83.071289,110.60574 v -0.44531 h -4.289062 v 0.44531 z m 0,1.65235 v -0.44532 h -4.289062 v 0.44532 z m 4.661133,-4.47657 c -1.347656,0 -1.839844,1.60547 -1.839844,2.91797 0,1.41797 0.480469,2.90625 1.839844,2.90625 1.359375,0 1.828125,-1.59375 1.828125,-2.91797 0,-1.38281 -0.46875,-2.90625 -1.828125,-2.90625 z m 0,0.30469 c 0.808594,0 1.03125,1.32422 1.03125,2.60156 0,1.26563 -0.222656,2.61328 -1.03125,2.61328 -0.773438,0 -1.042969,-1.35937 -1.042969,-2.61328 0,-1.2539 0.222656,-2.60156 1.042969,-2.60156 z m 0,0"
           style="fill:#231f20;fill-opacity:1;fill-rule:nonzero;stroke:none" />
      </g>
      <path
         id="path13"
         d="M 85.5547,616.051 1463.31,308.551"
         style="fill:none;stroke:#231f20;stroke-width:7.5;stroke-linecap:butt;stroke-linejoin:miter;stroke-miterlimit:10;stroke-dasharray:none;stroke-opacity:1"
         transform="matrix(0.13333333,0,0,-0.13333333,0,166.02667)" />
      <path
         id="path14"
         d="m 1420.79,315.531 c 0,6.211 5.03,11.25 11.25,11.25 6.21,0 11.25,-5.039 11.25,-11.25 0,-6.215 -5.04,-11.25 -11.25,-11.25 -6.22,0 -11.25,5.035 -11.25,11.25"
         style="fill:#231f20;fill-opacity:1;fill-rule:nonzero;stroke:none"
         transform="matrix(0.13333333,0,0,-0.13333333,0,166.02667)" />
      <path
         id="path15"
         d="m 1420.79,315.531 c 0,6.211 5.03,11.25 11.25,11.25 6.21,0 11.25,-5.039 11.25,-11.25 0,-6.215 -5.04,-11.25 -11.25,-11.25 -6.22,0 -11.25,5.035 -11.25,11.25 z"
         style="fill:none;stroke:#231f20;stroke-width:10;stroke-linecap:butt;stroke-linejoin:miter;stroke-miterlimit:10;stroke-dasharray:none;stroke-opacity:1"
         transform="matrix(0.13333333,0,0,-0.13333333,0,166.02667)" />
      <path
         id="path16"
         d="m 69.6992,617.711 c 0,6.211 5.0352,11.25 11.25,11.25 6.211,0 11.25,-5.039 11.25,-11.25 0,-6.219 -5.039,-11.25 -11.25,-11.25 -6.2148,0 -11.25,5.031 -11.25,11.25"
         style="fill:#231f20;fill-opacity:1;fill-rule:nonzero;stroke:none"
         transform="matrix(0.13333333,0,0,-0.13333333,0,166.02667)" />
      <path
         id="path17"
         d="m 69.6992,617.711 c 0,6.211 5.0352,11.25 11.25,11.25 6.211,0 11.25,-5.039 11.25,-11.25 0,-6.219 -5.039,-11.25 -11.25,-11.25 -6.2148,0 -11.25,5.031 -11.25,11.25 z"
         style="fill:none;stroke:#231f20;stroke-width:10;stroke-linecap:butt;stroke-linejoin:miter;stroke-miterlimit:10;stroke-dasharray:none;stroke-opacity:1"
         transform="matrix(0.13333333,0,0,-0.13333333,0,166.02667)" />
      <path
         id="path18"
         d="M 802.297,103 V 1138.97"
         style="fill:none;stroke:#2b2728;stroke-width:7.5;stroke-linecap:butt;stroke-linejoin:miter;stroke-miterlimit:10;stroke-dasharray:none;stroke-opacity:1"
         transform="matrix(0.13333333,0,0,-0.13333333,0,166.02667)" />
      <path
         id="path19"
         d="M 4.7102031,-1.71875e-4 V -0.23454687 c -0.5273437,-0.0585938 -0.5742187,-0.09375 -0.5742187,-0.703125 V -2.6720469 c 0,-0.8789062 -0.4453125,-1.3710937 -1.1601563,-1.3710937 -0.2578125,0 -0.4921875,0.1054687 -0.75,0.2695312 -0.2226562,0.1523438 -0.421875,0.2929688 -0.5976562,0.421875 v -0.7148437 c -0.3984375,0.1757812 -0.82031253,0.28125 -1.25390628,0.3632812 v 0.2109375 c 0.4921875,0.09375 0.5390625,0.1171875 0.5390625,0.6914063 v 1.86328123 c 0,0.59765625 -0.046875,0.64453125 -0.65625,0.703125 V -1.71875e-4 H 2.2141094 V -0.23454687 c -0.5273438,-0.0585938 -0.5859375,-0.09375 -0.5859375,-0.703125 V -3.0470469 c 0.2695312,-0.234375 0.6210937,-0.46875 0.984375,-0.46875 0.5976562,0 0.8203125,0.4101563 0.8203125,1.03125 v 1.50000003 c 0,0.62109375 -0.070312,0.69140625 -0.5976563,0.75 V -1.71875e-4 Z M 8.2961406,-0.94939062 c -0.328125,0.3046875 -0.6679687,0.4453125 -1.0195312,0.4453125 -0.6328125,0 -1.3359375,-0.50390628 -1.3476563,-1.72265628 1.0664063,-0.046875 2.1914063,-0.1289062 2.3554688,-0.1640625 0.1523437,-0.035156 0.1992187,-0.1054687 0.1992187,-0.28125 0,-0.703125 -0.5976562,-1.3710937 -1.3476562,-1.3710937 -0.46875,0 -0.9492188,0.2460937 -1.3242188,0.65625 -0.3632812,0.4101562 -0.5976562,0.9609375 -0.5976562,1.5820312 0,1.00781253 0.65625,1.91015628 1.7578125,1.91015628 0.28125,0 0.9023437,-0.1640625 1.4648437,-0.8671875 z M 6.9250469,-3.7032969 c 0.4921875,0 0.796875,0.421875 0.7851562,0.890625 0,0.1289063 -0.046875,0.1875 -0.2109375,0.1875 -0.5273437,0.011719 -1.0195312,0.023437 -1.5234375,0.023437 0.1289063,-0.7265625 0.5273438,-1.1015625 0.9492188,-1.101562 z m 5.7421871,3.35156253 -0.09375,-0.234375 c -0.09375,0.0585938 -0.222656,0.10546875 -0.328125,0.10546875 -0.152343,0 -0.316406,-0.140625 -0.316406,-0.55078128 v -1.6640625 c 0,-0.46875 -0.08203,-0.84375 -0.398437,-1.1015625 -0.199219,-0.1640625 -0.46875,-0.2460937 -0.738282,-0.2460937 -0.515625,0.1054687 -1.1015621,0.4570312 -1.3476559,0.6328125 -0.1757812,0.1289062 -0.2929687,0.2226562 -0.2929687,0.3632812 0,0.1992188 0.234375,0.3867188 0.3984375,0.3867188 0.1289062,0 0.2226562,-0.070312 0.2578125,-0.2109375 0.070312,-0.28125 0.1523437,-0.4804688 0.2695316,-0.5976563 0.09375,-0.1054687 0.222656,-0.1757812 0.410156,-0.1757812 0.445312,0 0.75,0.3632812 0.75,1.0195312 v 0.1640625 c -0.199219,0.1523438 -0.855469,0.3984375 -1.3945314,0.5742188 -0.4921875,0.1757812 -0.7265625,0.4570312 -0.7265625,0.90234373 0,0.5625 0.4453125,1.08984375 1.0781249,1.08984375 0.269531,0 0.703125,-0.328125 1.066406,-0.57421875 0.04687,0.15234375 0.09375,0.28125 0.210938,0.41015625 0.105469,0.08203125 0.292969,0.1640625 0.421875,0.1640625 z m -1.429687,-0.41015625 c -0.164063,0.1640625 -0.480469,0.31640625 -0.714844,0.328125 -0.28125,0 -0.6445311,-0.22265625 -0.6445311,-0.69140628 0,-0.328125 0.1992191,-0.4921875 0.5507811,-0.65625 0.1875,-0.09375 0.621094,-0.28125 0.808594,-0.375 z m 3.029297,-2.32031248 v -0.984375 c -0.433594,0.1875 -0.832032,0.2929687 -1.265625,0.3632812 v 0.1992188 c 0.503906,0.070312 0.550781,0.1054687 0.550781,0.703125 v 1.86328123 c 0,0.59765625 -0.05859,0.64453125 -0.621094,0.703125 v 0.234374995 h 2.074219 V -0.23454687 c -0.691406,-0.0585938 -0.738281,-0.10546875 -0.738281,-0.703125 V -2.5782969 c 0.199218,-0.5039062 0.480468,-0.7734375 0.714843,-0.7734375 0.152344,0 0.257813,0.046875 0.386719,0.1875 0.04687,0.046875 0.128906,0.058594 0.234375,0.011719 0.175781,-0.082031 0.292969,-0.2578125 0.292969,-0.4335938 0,-0.2226562 -0.210938,-0.4570312 -0.527344,-0.4570312 -0.421875,0 -0.808594,0.5039062 -1.078125,0.9609375 z m 0,0"
         style="fill:#231f20;fill-opacity:1;fill-rule:nonzero;stroke:none"
         aria-label="near"
         transform="matrix(1.3333333,0,0,1.3333333,93.930667,9.8986667)" />
      <path
         id="path20"
         d="m 1420.86,456.969 c -0.71,6.172 3.72,11.746 9.89,12.457 6.17,0.707 11.76,-3.727 12.46,-9.899 0.71,-6.172 -3.73,-11.75 -9.9,-12.457 -6.17,-0.707 -11.74,3.727 -12.45,9.899"
         style="fill:#231f20;fill-opacity:1;fill-rule:nonzero;stroke:none"
         transform="matrix(0.13333333,0,0,-0.13333333,0,166.02667)" />
      <path
         id="path21"
         d="m 1420.86,456.969 c -0.71,6.172 3.72,11.746 9.89,12.457 6.17,0.707 11.76,-3.727 12.46,-9.899 0.71,-6.172 -3.73,-11.75 -9.9,-12.457 -6.17,-0.707 -11.74,3.727 -12.45,9.899 z"
         style="fill:none;stroke:#231f20;stroke-width:10;stroke-linecap:butt;stroke-linejoin:miter;stroke-miterlimit:10;stroke-dasharray:none;stroke-opacity:1"
         transform="matrix(0.13333333,0,0,-0.13333333,0,166.02667)" />
      <path
         id="path22"
         d="m 802.297,458.246 h 15"
         style="fill:none;stroke:#231f20;stroke-width:5;stroke-linecap:butt;stroke-linejoin:miter;stroke-miterlimit:10;stroke-dasharray:none;stroke-opacity:1"
         transform="matrix(0.13333333,0,0,-0.13333333,0,166.02667)" />
      <path
         id="path23"
         d="M 836.641,458.246 H 1407.36"
         style="fill:none;stroke:#231f20;stroke-width:5;stroke-linecap:butt;stroke-linejoin:miter;stroke-miterlimit:10;stroke-dasharray:29.02, 19.3466;stroke-dashoffset:0;stroke-opacity:1"
         transform="matrix(0.13333333,0,0,-0.13333333,0,166.02667)" />
      <path
         id="path24"
         d="m 1417.04,458.246 h 15"
         style="fill:none;stroke:#231f20;stroke-width:5;stroke-linecap:butt;stroke-linejoin:miter;stroke-miterlimit:10;stroke-dasharray:none;stroke-opacity:1"
         transform="matrix(0.13333333,0,0,-0.13333333,0,166.02667)" />
      <path
         id="path25"
         d="m 1432.04,345.785 v 49.59"
         style="fill:none;stroke:#231f20;stroke-width:5;stroke-linecap:butt;stroke-linejoin:miter;stroke-miterlimit:10;stroke-dasharray:none;stroke-opacity:1"
         transform="matrix(0.13333333,0,0,-0.13333333,0,166.02667)" />
      <path
         id="path26"
         d="m 1432.04,388.191 -14.41,-8.761 -0.33,0.492 9.34,23.5 c 1.8,8.183 3.59,16.375 5.4,24.562 1.8,-8.187 3.6,-16.379 5.4,-24.562 l 9.34,-23.5 -0.25,-0.492 -14.49,8.761"
         style="fill:#231f20;fill-opacity:1;fill-rule:nonzero;stroke:none"
         transform="matrix(0.13333333,0,0,-0.13333333,0,166.02667)" />
    </g>
  </g>
</svg>
