<?xml version="1.0" encoding="UTF-8" standalone="no"?>
<!-- Created with Inkscape (http://www.inkscape.org/) -->

<svg
   version="1.1"
   id="svg1"
   width="396.81332"
   height="140.01334"
   viewBox="0 0 396.81332 140.01334"
   sodipodi:docname="pha05f05.eps"
   xmlns:inkscape="http://www.inkscape.org/namespaces/inkscape"
   xmlns:sodipodi="http://sodipodi.sourceforge.net/DTD/sodipodi-0.dtd"
   xmlns="http://www.w3.org/2000/svg"
   xmlns:svg="http://www.w3.org/2000/svg">
  <defs
     id="defs1" />
  <sodipodi:namedview
     id="namedview1"
     pagecolor="#ffffff"
     bordercolor="#000000"
     borderopacity="0.25"
     inkscape:showpageshadow="2"
     inkscape:pageopacity="0.0"
     inkscape:pagecheckerboard="0"
     inkscape:deskcolor="#d1d1d1">
    <inkscape:page
       x="0"
       y="0"
       inkscape:label="1"
       id="page1"
       width="396.81332"
       height="140.01334"
       margin="0"
       bleed="0" />
  </sodipodi:namedview>
  <g
     id="g1"
     inkscape:groupmode="layer"
     inkscape:label="1">
    <g
       id="group-R5">
      <path
         id="path2"
         d="M 1728.51,872.16 V 99.7344 h 775.24 v 4.9996 H 1733.51 V 872.16 h -5"
         style="fill:#231f20;fill-opacity:1;fill-rule:nonzero;stroke:none"
         transform="matrix(0.13333333,0,0,-0.13333333,0,140.01333)" />
      <path
         id="path3"
         d="m 1731.01,863.188 18.01,-10.958 0.41,0.614 -11.67,29.375 c -2.25,10.234 -4.5,20.469 -6.75,30.703 -2.26,-10.234 -4.51,-20.469 -6.76,-30.703 l -11.67,-29.375 0.31,-0.614 18.12,10.958"
         style="fill:#231f20;fill-opacity:1;fill-rule:nonzero;stroke:none"
         transform="matrix(0.13333333,0,0,-0.13333333,0,140.01333)" />
      <path
         id="path4"
         d="m 2494.78,102.234 -10.96,18.012 0.61,0.41 29.38,-11.668 c 10.23,-2.246 20.47,-4.504 30.7,-6.754 -10.23,-2.2496 -20.47,-4.4996 -30.7,-6.7535 l -29.38,-11.668 -0.61,0.3047 10.96,18.1168"
         style="fill:#231f20;fill-opacity:1;fill-rule:nonzero;stroke:none"
         transform="matrix(0.13333333,0,0,-0.13333333,0,140.01333)" />
      <path
         id="path5"
         d="M 0.77203125,-2.9183941 C 1.0884375,-3.3168316 1.2642187,-3.4340191 1.34625,-3.4340191 c 0.09375,0 0.1757812,0.1289063 0.3046875,0.5742188 l 0.3046875,0.9375 c -0.5625,0.8320312 -0.984375,1.35937499 -1.2421875,1.35937499 -0.09375,0 -0.1640625,-0.0351563 -0.2109375,-0.09375 -0.046875,-0.0585938 -0.09375,-0.09375 -0.140625,-0.09375 -0.17578125,0 -0.36328125,0.2109375 -0.36328125,0.421875 C -0.013125,-0.07073781 0.174375,0.10504344 0.40875,0.10504344 c 0.421875,0 0.84375,-0.43359375 1.640625,-1.69921874 l 0.28125,0.87890624 c 0.1757812,0.5625 0.3632812,0.8203125 0.5976562,0.8203125 0.3046875,0 0.7265625,-0.328125 1.1367188,-0.97265625 L 3.9126562,-1.0433941 c -0.28125,0.33984379 -0.5039062,0.51562504 -0.6445312,0.51562504 -0.1523438,0 -0.28125,-0.2578125 -0.4570313,-0.82031254 L 2.518125,-2.2504253 c 0.1992187,-0.28125 0.3984375,-0.5273438 0.5859375,-0.7382813 0.234375,-0.2929687 0.4101562,-0.4453125 0.5390625,-0.4453125 0.082031,0 0.1523437,0.035156 0.2109375,0.1054688 0.046875,0.046875 0.082031,0.070312 0.1289062,0.070312 0.140625,0 0.3398438,-0.1757813 0.3515625,-0.3984375 0,-0.1992188 -0.140625,-0.3867188 -0.375,-0.3867188 -0.3984375,0 -0.7851562,0.3867188 -1.5351562,1.4765625 l -0.1523438,-0.492187 c -0.2226562,-0.6445312 -0.3398437,-0.984375 -0.5859375,-0.984375 -0.2929687,0 -0.6914062,0.3867188 -1.0664062,0.9375 z m 0,0"
         style="fill:#231f20;fill-opacity:1;fill-rule:nonzero;stroke:none"
         aria-label="x"
         transform="matrix(1.3333333,0,0,1.3333333,330.08,135.69197)" />
      <path
         id="path6"
         d="M 2.2969375,-0.71689898 C 2.2383438,-1.6003766 2.1680313,-2.4582462 2.0742813,-3.1880755 1.99225,-3.9563169 1.851625,-4.3148296 1.5820938,-4.3148296 c -0.3398438,0 -0.82031255,0.550573 -1.1367188,1.0243219 l 0.1640625,0.2304724 c 0.24609375,-0.3457086 0.4804688,-0.563377 0.5625,-0.563377 0.070312,0 0.1289063,0.1152362 0.1992188,0.6017891 0.140625,0.8706736 0.2929687,2.36874434 0.3046875,3.12418172 C 1.195375,0.74275969 0.445375,1.5878252 -0.585875,2.2536345 L -0.50384375,2.4713029 0.49225,2.2152224 C 1.0313125,1.6134333 1.6524063,0.76836774 2.2149063,-0.05108976 2.7305313,-0.76811507 3.539125,-2.0357134 3.9492813,-2.7655427 4.195375,-3.1880755 4.3008438,-3.5209801 4.289125,-3.7898646 c 0,-0.3072966 -0.1640625,-0.524965 -0.375,-0.524965 -0.1640625,0 -0.3398437,0.1152362 -0.3984375,0.2560805 -0.046875,0.076824 -0.046875,0.1792563 -0.023437,0.2432764 0.046875,0.1024322 0.1054688,0.2560805 0.1054688,0.4481409 0.011719,0.7042213 -0.8671875,2.0102316 -1.2890625,2.65043282 z m 0,0"
         style="fill:#231f20;fill-opacity:1;fill-rule:nonzero;stroke:none"
         aria-label="y"
         transform="matrix(1.3333333,0,0,1.2203195,234.71867,25.054533)" />
      <path
         id="path7"
         d="m 2017.41,312.328 h 550.969 V 643.324 H 2017.41 Z"
         style="fill:#dfdfdf;fill-opacity:1;fill-rule:nonzero;stroke:none"
         transform="matrix(0.13333333,0,0,-0.13333333,0,140.01333)" />
      <path
         id="path8"
         d="m 2568.38,312.328 v 2.5 h -548.47 v 325.996 h 545.97 V 312.328 h 2.5 v 2.5 -2.5 h 2.5 V 645.824 H 2014.91 V 309.828 h 555.97 v 2.5 h -2.5"
         style="fill:#231f20;fill-opacity:1;fill-rule:nonzero;stroke:none"
         transform="matrix(0.13333333,0,0,-0.13333333,0,140.01333)" />
      <path
         id="path9"
         d="m 2973.59,719.145 h -20 v -5 h 20 z m -40,0 h -20 v -5 h 20 z m -40,0 h -20 v -5 h 20 z m -40,0 h -20 v -5 h 20 z m -40,0 h -20 v -5 h 20 z m -40,0 h -20 v -5 h 20 z m -40,0 h -20 v -5 h 20 z m -40,0 h -20 v -5 h 20 z m -40,0 h -20 v -5 h 20 z m -40,0 h -20 v -5 h 20 z m -40,0 h -20 v -5 h 20 z m -40,0 h -20 v -5 h 20 z m -40,0 h -20 v -5 h 20 z m -40,0 h -20 v -5 h 20 z m -28.47,26.523 h -5 v -20 h 5 z m 0,40 h -5 v -20 h 5 z m 0,40 h -5 v -20 h 5 z m 0,40 h -5 v -20 h 5 z m 0,40 h -5 v -20 h 5 z m 0,40 h -5 v -20 h 5 z m 0,40 h -5 v -20 h 5 z m 0,40.002 h -5 v -20 h 5 z m 0,21.97 h -5 v -1.9727 h 5 z"
         style="fill:#231f20;fill-opacity:1;fill-rule:nonzero;stroke:none"
         transform="matrix(0.13333333,0,0,-0.13333333,0,140.01333)" />
      <path
         id="path10"
         d="m 2422.62,1045.14 h 548.47 V 716.645 h 5 v 333.495 h -553.47 v -5"
         style="fill:#231f20;fill-opacity:1;fill-rule:nonzero;stroke:none"
         transform="matrix(0.13333333,0,0,-0.13333333,0,140.01333)" />
      <path
         id="path11"
         d="m 2019.18,641.555 405.2,404.315 -3.53,3.54 -405.2,-404.316"
         style="fill:#231f20;fill-opacity:1;fill-rule:nonzero;stroke:none"
         transform="matrix(0.13333333,0,0,-0.13333333,0,140.01333)" />
      <path
         id="path12"
         d="m 2570.14,641.555 405.22,404.315 -3.53,3.54 -405.22,-404.316"
         style="fill:#231f20;fill-opacity:1;fill-rule:nonzero;stroke:none"
         transform="matrix(0.13333333,0,0,-0.13333333,0,140.01333)" />
      <path
         id="path13"
         d="m 2971.83,718.414 -405.22,-404.316 3.53,-3.539 405.22,404.316"
         style="fill:#231f20;fill-opacity:1;fill-rule:nonzero;stroke:none"
         transform="matrix(0.13333333,0,0,-0.13333333,0,140.01333)" />
      <path
         id="path14"
         d="m 2420.85,718.414 -14.16,-14.129 3.54,-3.539 14.15,14.129 z m -28.31,-28.254 -14.16,-14.125 3.53,-3.543 14.16,14.129 z m -28.32,-28.254 -14.16,-14.125 3.53,-3.539 14.16,14.125 z m -28.31,-28.254 -14.16,-14.125 3.53,-3.539 14.16,14.125 z m -28.32,-28.25 -14.16,-14.129 3.53,-3.539 14.16,14.125 z m -28.32,-28.254 -14.15,-14.128 3.53,-3.54 14.16,14.129 z m -28.31,-28.253 -14.16,-14.125 3.53,-3.543 14.16,14.128 z m -28.32,-28.254 -14.15,-14.125 3.53,-3.539 14.16,14.125 z m -28.31,-28.254 -14.16,-14.125 3.53,-3.539 14.16,14.125 z m -28.32,-28.25 -14.15,-14.129 3.53,-3.539 14.16,14.125 z m -28.31,-28.254 -14.16,-14.129 3.53,-3.539 14.16,14.129 z m -28.32,-28.254 -14.15,-14.125 3.53,-3.539 14.15,14.125 z m -28.31,-28.254 -14.16,-14.125 3.53,-3.539 14.16,14.125 z m -28.32,-28.254 -14.16,-14.125 3.54,-3.539 14.15,14.125 z m -28.31,-28.254 -8.79,-8.769 3.53,-3.539 8.79,8.769 z"
         style="fill:#231f20;fill-opacity:1;fill-rule:nonzero;stroke:none"
         transform="matrix(0.13333333,0,0,-0.13333333,0,140.01333)" />
      <path
         id="path15"
         d="M 911.719,423.391 H 85.0898 V 919.992 H 911.719 V 423.391"
         style="fill:#f0efef;fill-opacity:1;fill-rule:evenodd;stroke:none"
         transform="matrix(0.13333333,0,0,-0.13333333,0,140.01333)" />
      <path
         id="path16"
         d="m 911.719,423.391 v 5 H 90.0898 V 914.992 H 906.719 V 423.391 h 5 v 5 -5 h 5 V 924.992 H 80.0898 V 418.391 H 916.719 v 5 h -5"
         style="fill:#231f20;fill-opacity:1;fill-rule:nonzero;stroke:none"
         transform="matrix(0.13333333,0,0,-0.13333333,0,140.01333)" />
      <path
         id="path17"
         d="m 517.961,525.715 c 0,6.211 5.035,11.25 11.25,11.25 6.219,0 11.25,-5.039 11.25,-11.25 0,-6.211 -5.031,-11.25 -11.25,-11.25 -6.215,0 -11.25,5.039 -11.25,11.25"
         style="fill:#231f20;fill-opacity:1;fill-rule:nonzero;stroke:none"
         transform="matrix(0.13333333,0,0,-0.13333333,0,140.01333)" />
      <path
         id="path18"
         d="m 517.961,525.715 h 5 c 0.004,3.445 2.801,6.246 6.25,6.25 3.457,-0.004 6.242,-2.797 6.25,-6.25 -0.008,-3.449 -2.793,-6.242 -6.25,-6.25 -3.449,0.008 -6.246,2.805 -6.25,6.25 h -5 -5 c 0.004,-8.977 7.273,-16.242 16.25,-16.25 8.98,0.004 16.246,7.281 16.25,16.25 -0.004,8.973 -7.27,16.25 -16.25,16.25 -8.977,-0.004 -16.246,-7.274 -16.25,-16.25 h 5"
         style="fill:#231f20;fill-opacity:1;fill-rule:nonzero;stroke:none"
         transform="matrix(0.13333333,0,0,-0.13333333,0,140.01333)" />
      <path
         id="path19"
         d="m 898.789,424.887 c 0,6.211 5.039,11.25 11.25,11.25 6.223,0 11.25,-5.039 11.25,-11.25 0,-6.215 -5.027,-11.25 -11.25,-11.25 -6.211,0 -11.25,5.035 -11.25,11.25"
         style="fill:#231f20;fill-opacity:1;fill-rule:nonzero;stroke:none"
         transform="matrix(0.13333333,0,0,-0.13333333,0,140.01333)" />
      <path
         id="path20"
         d="m 898.789,424.887 h 5 c 0.008,3.445 2.805,6.242 6.25,6.25 3.457,-0.008 6.242,-2.797 6.25,-6.25 0,-3.457 -2.789,-6.246 -6.25,-6.25 -3.449,0.004 -6.242,2.797 -6.25,6.25 h -5 -5 c 0.004,-8.981 7.277,-16.246 16.25,-16.25 8.981,0 16.234,7.273 16.25,16.25 0,8.968 -7.266,16.246 -16.25,16.25 -8.976,-0.004 -16.246,-7.274 -16.25,-16.25 h 5"
         style="fill:#231f20;fill-opacity:1;fill-rule:nonzero;stroke:none"
         transform="matrix(0.13333333,0,0,-0.13333333,0,140.01333)" />
      <path
         id="path21"
         d="m 76.2891,917.387 c 0,6.211 5.039,11.25 11.25,11.25 6.2226,0 11.25,-5.039 11.25,-11.25 0,-6.215 -5.0274,-11.25 -11.25,-11.25 -6.211,0 -11.25,5.035 -11.25,11.25"
         style="fill:#231f20;fill-opacity:1;fill-rule:nonzero;stroke:none"
         transform="matrix(0.13333333,0,0,-0.13333333,0,140.01333)" />
      <path
         id="path22"
         d="m 76.2891,917.387 h 5 c 0.0078,3.445 2.8047,6.242 6.25,6.25 3.457,-0.008 6.2422,-2.797 6.25,-6.25 0,-3.457 -2.7891,-6.246 -6.25,-6.25 -3.4493,0.004 -6.2422,2.797 -6.25,6.25 h -5 -5 c 0.0039,-8.981 7.2773,-16.246 16.25,-16.25 8.9804,0 16.2339,7.273 16.2499,16.25 0,8.968 -7.2656,16.246 -16.2499,16.25 -8.9766,-0.004 -16.2461,-7.274 -16.25,-16.25 h 5"
         style="fill:#231f20;fill-opacity:1;fill-rule:nonzero;stroke:none"
         transform="matrix(0.13333333,0,0,-0.13333333,0,140.01333)" />
      <path
         id="path23"
         d="m 2286.64,374.887 c 0,6.211 5.04,11.25 11.25,11.25 6.22,0 11.25,-5.039 11.25,-11.25 0,-6.211 -5.03,-11.25 -11.25,-11.25 -6.21,0 -11.25,5.039 -11.25,11.25"
         style="fill:#231f20;fill-opacity:1;fill-rule:nonzero;stroke:none"
         transform="matrix(0.13333333,0,0,-0.13333333,0,140.01333)" />
      <path
         id="path24"
         d="m 2286.64,374.887 h 5 c 0.01,3.445 2.8,6.242 6.25,6.25 3.46,-0.008 6.24,-2.797 6.25,-6.25 -0.01,-3.453 -2.79,-6.246 -6.25,-6.25 -3.45,0.004 -6.24,2.804 -6.25,6.25 h -5 -5 c 0.01,-8.977 7.27,-16.246 16.25,-16.25 8.98,0 16.25,7.281 16.25,16.25 0,8.968 -7.27,16.246 -16.25,16.25 -8.98,-0.004 -16.24,-7.274 -16.25,-16.25 h 5"
         style="fill:#231f20;fill-opacity:1;fill-rule:nonzero;stroke:none"
         transform="matrix(0.13333333,0,0,-0.13333333,0,140.01333)" />
      <path
         id="path25"
         d="m 2299.66,373.117 215.13,215.121 -3.54,3.539 -215.13,-215.125"
         style="fill:#231f20;fill-opacity:1;fill-rule:nonzero;stroke:none"
         transform="matrix(0.13333333,0,0,-0.13333333,0,140.01333)" />
      <path
         id="path26"
         d="m 2506.67,583.66 -20.49,4.996 0.15,0.723 29.02,12.519 c 8.83,5.645 17.66,11.29 26.49,16.934 -5.65,-8.828 -11.29,-17.656 -16.94,-26.488 l -12.52,-29.02 -0.65,-0.219 -5.06,20.555"
         style="fill:#231f20;fill-opacity:1;fill-rule:nonzero;stroke:none"
         transform="matrix(0.13333333,0,0,-0.13333333,0,140.01333)" />
      <path
         id="path27"
         d="m 2.6953125,1.3243281 c -0.890625,-0.76171872 -1.40625,-2.20312497 -1.40625,-3.75 0,-1.546875 0.515625,-3 1.40625,-3.75 L 2.5429688,-6.3866094 c -1.3242188,0.9023438 -1.9101563,2.3320313 -1.9101563,3.9492188 0,1.62890623 0.5859375,3.08203123 1.9101563,3.9609375 z m 2.5751953,-7.0429687 c -1.3476562,0 -1.8398437,1.6054687 -1.8398437,2.9179687 0,1.4179688 0.4804687,2.90625003 1.8398437,2.90625003 1.359375,0 1.828125,-1.59375003 1.828125,-2.91796873 0,-1.3828125 -0.46875,-2.90625 -1.828125,-2.90625 z m 0,0.3046875 c 0.8085938,0 1.03125,1.3242187 1.03125,2.6015625 0,1.265625 -0.2226562,2.61328123 -1.03125,2.61328123 -0.7734375,0 -1.0429687,-1.35937503 -1.0429687,-2.61328123 0,-1.2539063 0.2226562,-2.6015625 1.0429687,-2.6015625 z m 3.0058594,4.2539062 c -0.2109375,0 -0.4335938,0.140625 -0.4335938,0.36328128 0,0.15234375 0.070312,0.22265625 0.1171875,0.234375 0.3046875,0.0703125 0.5625,0.26953125 0.5625,0.59765625 0,0.33984375 -0.2578125,0.57421875 -0.6914062,0.76171875 l 0.09375,0.25781252 c 0.5507812,-0.16406252 1.1835937,-0.55078127 1.1835937,-1.24218752 0,-0.6328125 -0.5039062,-0.97265628 -0.8320312,-0.97265628 z M 13.68457,-5.7186406 c -1.347656,0 -1.839843,1.6054687 -1.839843,2.9179687 0,1.4179688 0.480468,2.90625003 1.839843,2.90625003 1.359375,0 1.828125,-1.59375003 1.828125,-2.91796873 0,-1.3828125 -0.46875,-2.90625 -1.828125,-2.90625 z m 0,0.3046875 c 0.808594,0 1.03125,1.3242187 1.03125,2.6015625 0,1.265625 -0.222656,2.61328123 -1.03125,2.61328123 -0.773437,0 -1.042968,-1.35937503 -1.042968,-2.61328123 0,-1.2539063 0.222656,-2.6015625 1.042968,-2.6015625 z m 2.572266,-0.7617188 c 0.890625,0.7382813 1.417969,2.203125 1.417969,3.75 0,1.54687503 -0.503907,2.98828128 -1.417969,3.75 l 0.164062,0.1992188 c 1.347657,-0.91406252 1.898438,-2.33203127 1.898438,-3.9492188 0,-1.6289062 -0.550781,-3.0585937 -1.898438,-3.9609375 z M 69.336914,65.551867 c -0.890625,-0.761719 -1.40625,-2.203125 -1.40625,-3.75 0,-1.546875 0.515625,-3 1.40625,-3.75 L 69.18457,57.84093 c -1.324218,0.902343 -1.910156,2.332031 -1.910156,3.949218 0,1.628907 0.585938,3.082032 1.910156,3.960938 z m 2.047852,-4.40625 v -0.984375 c -0.433594,0.1875 -0.832032,0.292969 -1.265625,0.363281 v 0.199219 c 0.503906,0.07031 0.550781,0.105469 0.550781,0.703125 v 1.863281 c 0,0.597657 -0.05859,0.644532 -0.621094,0.703125 v 0.234375 h 2.074219 v -0.234375 c -0.691406,-0.05859 -0.738281,-0.105468 -0.738281,-0.703125 v -1.640625 c 0.199218,-0.503906 0.480468,-0.773437 0.714843,-0.773437 0.152344,0 0.257813,0.04687 0.386719,0.1875 0.04687,0.04687 0.128906,0.05859 0.234375,0.01172 0.175781,-0.08203 0.292969,-0.257813 0.292969,-0.433594 0,-0.222656 -0.210938,-0.457031 -0.527344,-0.457031 -0.421875,0 -0.808594,0.503906 -1.078125,0.960937 z m 5.000976,2.132813 c -0.328125,0.304687 -0.667969,0.445312 -1.019531,0.445312 -0.632813,0 -1.335938,-0.503906 -1.347656,-1.722656 1.066406,-0.04687 2.191406,-0.128906 2.355468,-0.164063 0.152344,-0.03516 0.199219,-0.105468 0.199219,-0.28125 0,-0.703125 -0.597656,-1.371093 -1.347656,-1.371093 -0.46875,0 -0.949219,0.246093 -1.324219,0.65625 -0.363281,0.410156 -0.597656,0.960937 -0.597656,1.582031 0,1.007812 0.65625,1.910156 1.757812,1.910156 0.28125,0 0.902344,-0.164062 1.464844,-0.867187 z m -1.371094,-2.753907 c 0.492188,0 0.796875,0.421875 0.785157,0.890625 0,0.128907 -0.04687,0.1875 -0.210938,0.1875 -0.527344,0.01172 -1.019531,0.02344 -1.523437,0.02344 0.128906,-0.726563 0.527343,-1.101563 0.949218,-1.101563 z m 4.669922,0.773438 c -0.03516,-0.222656 -0.128906,-0.75 -0.199218,-0.960938 -0.1875,-0.07031 -0.433594,-0.152343 -0.796875,-0.152343 -0.832032,0 -1.371094,0.527343 -1.371094,1.160156 0,0.691406 0.585937,0.996094 1.125,1.242187 0.445312,0.210938 0.703125,0.421875 0.703125,0.820313 0,0.375 -0.304688,0.632812 -0.632813,0.632812 -0.539062,0 -0.949218,-0.527343 -1.113281,-1.113281 l -0.234375,0.03516 c 0,0.328125 0.08203,0.9375 0.152344,1.066407 0.164062,0.140625 0.574219,0.304687 1.03125,0.304687 0.726562,0 1.488281,-0.421875 1.488281,-1.242187 0,-0.621094 -0.457031,-0.9375 -1.136719,-1.21875 -0.410156,-0.175782 -0.761718,-0.375 -0.761718,-0.785157 0,-0.351562 0.246093,-0.621093 0.585937,-0.621093 0.433594,0 0.75,0.363281 0.925781,0.890625 z m 1.450196,3.035156 c 0.28125,0 0.503906,-0.199219 0.503906,-0.515625 0,-0.292969 -0.222656,-0.515625 -0.503906,-0.515625 -0.292969,0 -0.503907,0.222656 -0.503907,0.515625 0,0.316406 0.210938,0.515625 0.503907,0.515625 z M 86.43457,64.227648 V 63.993273 C 85.883789,63.922961 85.77832,63.84093 85.438477,63.325305 L 84.55957,62.001086 c 0.292969,-0.445313 0.527344,-0.773438 0.703125,-0.996094 0.328125,-0.375 0.445313,-0.421875 0.984375,-0.480469 v -0.234375 h -1.628906 v 0.234375 c 0.386719,0.03516 0.445313,0.08203 0.28125,0.375 -0.164062,0.292969 -0.339844,0.574219 -0.515625,0.832032 L 83.844727,60.911242 C 83.692383,60.65343 83.71582,60.571398 84.102539,60.524523 v -0.234375 h -1.804687 v 0.234375 c 0.503906,0.05859 0.621093,0.128907 0.890625,0.574219 l 0.773437,1.21875 c -0.257812,0.410156 -0.503906,0.761719 -0.75,1.078125 -0.363281,0.457031 -0.457031,0.527344 -1.019531,0.597656 v 0.234375 h 1.6875 v -0.234375 c -0.46875,-0.07031 -0.492188,-0.152343 -0.316406,-0.457031 0.164062,-0.328125 0.375,-0.65625 0.574218,-0.960937 l 0.667969,1.054687 c 0.152344,0.246094 0.08203,0.316406 -0.304687,0.363281 v 0.234375 z m 0.814453,-1.160156 c -0.210937,0 -0.433593,0.140625 -0.433593,0.363281 0,0.152344 0.07031,0.222657 0.117187,0.234375 0.304688,0.07031 0.5625,0.269532 0.5625,0.597657 0,0.339843 -0.257812,0.574218 -0.691406,0.761718 l 0.09375,0.257813 c 0.550781,-0.164063 1.183594,-0.550781 1.183594,-1.242188 0,-0.632812 -0.503907,-0.972656 -0.832032,-0.972656 z m 4.87793,-1.921875 v -0.984375 c -0.433594,0.1875 -0.832031,0.292969 -1.265625,0.363281 v 0.199219 c 0.503906,0.07031 0.550781,0.105469 0.550781,0.703125 v 1.863281 c 0,0.597657 -0.05859,0.644532 -0.621093,0.703125 v 0.234375 h 2.074218 v -0.234375 c -0.691406,-0.05859 -0.738281,-0.105468 -0.738281,-0.703125 v -1.640625 c 0.199219,-0.503906 0.480469,-0.773437 0.714844,-0.773437 0.152344,0 0.257812,0.04687 0.386719,0.1875 0.04687,0.04687 0.128906,0.05859 0.234375,0.01172 0.175781,-0.08203 0.292968,-0.257813 0.292968,-0.433594 0,-0.222656 -0.210937,-0.457031 -0.527343,-0.457031 -0.421875,0 -0.808594,0.503906 -1.078125,0.960937 z m 5.003906,2.132813 c -0.328125,0.304687 -0.667968,0.445312 -1.019531,0.445312 -0.632812,0 -1.335937,-0.503906 -1.347656,-1.722656 1.066406,-0.04687 2.191406,-0.128906 2.355469,-0.164063 0.152343,-0.03516 0.199218,-0.105468 0.199218,-0.28125 0,-0.703125 -0.597656,-1.371093 -1.347656,-1.371093 -0.46875,0 -0.949219,0.246093 -1.324219,0.65625 -0.363281,0.410156 -0.597656,0.960937 -0.597656,1.582031 0,1.007812 0.65625,1.910156 1.757813,1.910156 0.28125,0 0.902343,-0.164062 1.464843,-0.867187 z m -1.371093,-2.753907 c 0.492187,0 0.796875,0.421875 0.785156,0.890625 0,0.128907 -0.04687,0.1875 -0.210938,0.1875 -0.527343,0.01172 -1.019531,0.02344 -1.523437,0.02344 0.128906,-0.726563 0.527344,-1.101563 0.949219,-1.101563 z m 4.669924,0.773438 c -0.0352,-0.222656 -0.12891,-0.75 -0.19922,-0.960938 -0.1875,-0.07031 -0.433595,-0.152343 -0.796876,-0.152343 -0.832032,0 -1.371094,0.527343 -1.371094,1.160156 0,0.691406 0.585937,0.996094 1.125,1.242187 0.445312,0.210938 0.703125,0.421875 0.703125,0.820313 0,0.375 -0.304688,0.632812 -0.632813,0.632812 -0.539062,0 -0.949218,-0.527343 -1.113281,-1.113281 l -0.234375,0.03516 c 0,0.328125 0.08203,0.9375 0.152344,1.066407 0.164062,0.140625 0.574219,0.304687 1.03125,0.304687 0.726562,0 1.48828,-0.421875 1.48828,-1.242187 0,-0.621094 -0.45703,-0.9375 -1.136718,-1.21875 -0.410156,-0.175782 -0.761718,-0.375 -0.761718,-0.785157 0,-0.351562 0.246093,-0.621093 0.585937,-0.621093 0.433594,0 0.749999,0.363281 0.925779,0.890625 z m 1.45019,3.035156 c 0.28125,0 0.50391,-0.199219 0.50391,-0.515625 0,-0.292969 -0.22266,-0.515625 -0.50391,-0.515625 -0.29297,0 -0.5039,0.222656 -0.5039,0.515625 0,0.316406 0.21093,0.515625 0.5039,0.515625 z m 5.32325,-4.042969 h -1.62891 v 0.234375 c 0.51562,0.07031 0.57422,0.164063 0.46875,0.503907 -0.1875,0.574218 -0.57422,1.628906 -0.83203,2.25 l -0.82031,-2.261719 c -0.10547,-0.339844 -0.0703,-0.421875 0.35156,-0.492188 v -0.234375 h -1.82813 v 0.234375 c 0.49219,0.07031 0.58594,0.1875 0.77344,0.679688 0.26953,0.632812 0.66797,1.722656 1.03125,2.753906 0.0586,0.152344 0.0586,0.269531 0.0117,0.410156 -0.0352,0.117188 -0.10547,0.304688 -0.28125,0.621094 -0.21094,0.386719 -0.38672,0.621094 -0.66797,0.796875 -0.15234,0.09375 -0.23437,0.175781 -0.23437,0.328125 0,0.210938 0.26953,0.421875 0.51562,0.421875 0.12891,0 0.24609,-0.03516 0.29297,-0.210937 0.11719,-0.492188 0.31641,-0.996094 0.92578,-2.4375 0.62109,-1.488282 0.90234,-2.238282 1.125,-2.707032 0.23438,-0.515625 0.31641,-0.585937 0.79688,-0.65625 z m 0.24023,-2.238281 c 0.89062,0.738281 1.41797,2.203125 1.41797,3.75 0,1.546875 -0.50391,2.988281 -1.41797,3.75 l 0.16406,0.199219 c 1.34766,-0.914063 1.89844,-2.332031 1.89844,-3.949219 0,-1.628906 -0.55078,-3.058594 -1.89844,-3.960937 z m 0,0"
         style="fill:#231f20;fill-opacity:1;fill-rule:nonzero;stroke:none"
         aria-label="(0, 0)&#10;(res.x, res.y)"
         transform="matrix(1.3333333,0,0,1.3333333,0,11.632667)" />
      <path
         id="path28"
         d="m 1171.71,624.047 h 294.238 v 5 H 1171.71 Z"
         style="fill:#231f20;fill-opacity:1;fill-rule:nonzero;stroke:none"
         transform="matrix(0.13333333,0,0,-0.13333333,0,140.01333)" />
      <path
         id="path29"
         d="m 1456.97,626.547 -10.95,18.016 0.61,0.406 29.38,-11.664 c 10.23,-2.258 20.46,-4.504 30.7,-6.758 -10.24,-2.25 -20.47,-4.504 -30.7,-6.758 l -29.38,-11.664 -0.61,0.305 10.95,18.117"
         style="fill:#231f20;fill-opacity:1;fill-rule:nonzero;stroke:none"
         transform="matrix(0.13333333,0,0,-0.13333333,0,140.01333)" />
      <path
         id="path30"
         d="m 1918.75,293.516 -189.51,-189.512 3.53,-3.535 189.52,189.511"
         style="fill:#231f20;fill-opacity:1;fill-rule:nonzero;stroke:none"
         transform="matrix(0.13333333,0,0,-0.13333333,0,140.01333)" />
      <path
         id="path31"
         d="m 1914.17,285.398 4.99,-20.484 0.72,0.149 12.52,29.015 c 5.65,8.836 11.29,17.664 16.94,26.492 -8.83,-5.644 -17.66,-11.289 -26.49,-16.933 l -29.02,-12.52 -0.22,-0.656 20.56,-5.063"
         style="fill:#231f20;fill-opacity:1;fill-rule:nonzero;stroke:none"
         transform="matrix(0.13333333,0,0,-0.13333333,0,140.01333)" />
      <path
         id="path32"
         d="m 3.7850859,-4.1729344 c -0.2226562,0.2460938 -0.3984375,0.3515625 -0.5507812,0.3515625 -0.1523438,0 -0.3046875,-0.011719 -0.7265625,-0.09375 -0.4335938,-0.070312 -0.703125,-0.1054687 -0.9492188,-0.1054687 -0.2226562,0 -0.4453125,0.1875 -0.65624996,0.5273437 -0.140625,0.234375 -0.24609375,0.4453125 -0.375,0.7265625 l 0.234375,0.1054688 C 1.0194609,-3.1182469 1.2303984,-3.4229344 1.6522734,-3.4229344 c 0.2226563,0 0.6210938,0.023437 0.8554688,0.058594 0.1992187,0.011719 0.3984375,0 0.5507812,-0.035156 -0.8320312,0.890625 -1.875,1.9101563 -2.49609371,2.57812503 -0.55078125,0.57421875 -0.48046875,0.83203125 -0.328125,0.90234375 0.046875,0.01171875 0.0703125,-0.0234375 0.10546875,-0.08203125 0.0820313,-0.1171875 0.1875,-0.234375 0.29296875,-0.3046875 0.1171875,-0.0820313 0.26953125,-0.09375 0.55078121,0.046875 0.3984375,0.19921875 0.9140625,0.43359375 1.2070313,0.43359375 0.3867187,0 0.75,-0.26953125 1.2421875,-1.24218748 l -0.1992188,-0.164063 c -0.4101562,0.60937498 -0.6796875,0.76171873 -0.9257812,0.76171873 -0.2226563,0 -0.515625,-0.1171875 -0.8085938,-0.2109375 C 1.4296172,-0.79793437 1.1952422,-0.84480937 1.0194609,-0.83309062 1.6874297,-1.5362156 2.8710234,-2.7198094 3.4452422,-3.3760594 3.6913359,-3.6455906 3.8553984,-3.8330906 3.9725859,-3.9737156 Z m 0,0"
         style="fill:#231f20;fill-opacity:1;fill-rule:nonzero;stroke:none"
         aria-label="z"
         transform="matrix(1.3333333,0,0,1.3333333,258.004,108.4936)" />
    </g>
  </g>
</svg>
