<?xml version="1.0" encoding="UTF-8" standalone="no"?>
<!-- Created with Inkscape (http://www.inkscape.org/) -->

<svg
   version="1.1"
   id="svg1"
   width="247.06667"
   height="96.73333"
   viewBox="0 0 247.06667 96.73333"
   sodipodi:docname="pha05f09.eps"
   xmlns:inkscape="http://www.inkscape.org/namespaces/inkscape"
   xmlns:sodipodi="http://sodipodi.sourceforge.net/DTD/sodipodi-0.dtd"
   xmlns="http://www.w3.org/2000/svg"
   xmlns:svg="http://www.w3.org/2000/svg">
  <defs
     id="defs1" />
  <sodipodi:namedview
     id="namedview1"
     pagecolor="#ffffff"
     bordercolor="#000000"
     borderopacity="0.25"
     inkscape:showpageshadow="2"
     inkscape:pageopacity="0.0"
     inkscape:pagecheckerboard="0"
     inkscape:deskcolor="#d1d1d1">
    <inkscape:page
       x="0"
       y="0"
       inkscape:label="1"
       id="page1"
       width="247.06667"
       height="96.73333"
       margin="0"
       bleed="0" />
  </sodipodi:namedview>
  <g
     id="g1"
     inkscape:groupmode="layer"
     inkscape:label="1">
    <g
       id="group-R5">
      <path
         id="path2"
         d="m 1130.67,2.5 c 53.31,108.406 83.27,230.387 83.27,359.352 0,129.539 -30.21,252.019 -83.97,360.789"
         style="fill:none;stroke:#231f20;stroke-width:5;stroke-linecap:round;stroke-linejoin:miter;stroke-miterlimit:10;stroke-dasharray:none;stroke-opacity:1"
         transform="matrix(0.13333333,0,0,-0.13333333,0,96.733333)" />
      <path
         id="path3"
         d="M 1128.18,2.82813 C 1074.87,111.234 1044.92,233.207 1044.92,362.184 c 0,129.535 30.22,252.019 83.97,360.781"
         style="fill:none;stroke:#231f20;stroke-width:5;stroke-linecap:round;stroke-linejoin:miter;stroke-miterlimit:10;stroke-dasharray:none;stroke-opacity:1"
         transform="matrix(0.13333333,0,0,-0.13333333,0,96.733333)" />
      <path
         id="path4"
         d="M 1756.95,360.852 H 0"
         style="fill:none;stroke:#231f20;stroke-width:5;stroke-linecap:butt;stroke-linejoin:miter;stroke-miterlimit:10;stroke-dasharray:none;stroke-opacity:1"
         transform="matrix(0.13333333,0,0,-0.13333333,0,96.733333)" />
      <path
         id="path5"
         d="m 1746.06,360.852 c 0,6.214 5.04,11.25 11.25,11.25 6.23,0 11.25,-5.036 11.25,-11.25 0,-6.219 -5.02,-11.25 -11.25,-11.25 -6.21,0 -11.25,5.031 -11.25,11.25"
         style="fill:#231f20;fill-opacity:1;fill-rule:nonzero;stroke:none"
         transform="matrix(0.13333333,0,0,-0.13333333,0,96.733333)" />
      <path
         id="path6"
         d="m 1746.06,360.852 c 0,6.214 5.04,11.25 11.25,11.25 6.23,0 11.25,-5.036 11.25,-11.25 0,-6.219 -5.02,-11.25 -11.25,-11.25 -6.21,0 -11.25,5.031 -11.25,11.25 z"
         style="fill:none;stroke:#231f20;stroke-width:5;stroke-linecap:butt;stroke-linejoin:miter;stroke-miterlimit:10;stroke-dasharray:none;stroke-opacity:1"
         transform="matrix(0.13333333,0,0,-0.13333333,0,96.733333)" />
      <g
         id="g6"
         aria-label="z′"
         transform="matrix(1.3333333,0,0,1.3333333,238.91867,51.565067)">
        <path
           id="path7"
           d="m 3.7846328,-4.1708703 c -0.2226562,0.2460937 -0.3984375,0.3515625 -0.5507812,0.3515625 -0.1523438,0 -0.3046875,-0.011719 -0.7265625,-0.09375 -0.4335938,-0.070312 -0.703125,-0.1054688 -0.9492188,-0.1054688 -0.2226562,0 -0.4453125,0.1875 -0.65624999,0.5273438 -0.140625,0.234375 -0.24609375,0.4453125 -0.375,0.7265625 l 0.234375,0.1054687 C 1.0190078,-3.1161828 1.2299453,-3.4208703 1.6518203,-3.4208703 c 0.2226563,0 0.6210938,0.023437 0.8554688,0.058594 0.1992187,0.011719 0.3984375,0 0.5507812,-0.035156 -0.8320312,0.890625 -1.875,1.9101562 -2.49609374,2.57812499 -0.55078125,0.57421875 -0.48046875,0.83203125 -0.328125,0.90234375 0.046875,0.01171875 0.0703125,-0.0234375 0.10546875,-0.08203125 0.0820313,-0.1171875 0.1875,-0.234375 0.29296875,-0.3046875 0.1171875,-0.0820313 0.26953125,-0.09375 0.55078124,0.046875 0.3984375,0.19921875 0.9140625,0.43359375 1.2070313,0.43359375 0.3867187,0 0.75,-0.26953125 1.2421875,-1.24218754 l -0.1992188,-0.164063 c -0.4101562,0.60937504 -0.6796875,0.76171879 -0.9257812,0.76171879 -0.2226563,0 -0.515625,-0.1171875 -0.8085938,-0.2109375 C 1.4291641,-0.79587031 1.1947891,-0.84274531 1.0190078,-0.83102656 1.6869766,-1.5341516 2.8705703,-2.7177453 3.4447891,-3.3739953 3.6908828,-3.6435266 3.8549453,-3.8310266 3.9721328,-3.9716516 Z m 0,0"
           style="fill:#231f20;fill-opacity:1;fill-rule:nonzero;stroke:none" />
        <path
           id="path8"
           d="m 5.1440078,-3.5380578 0.5976563,-1.2890625 c 0.1757812,-0.3867188 0.2929687,-0.6210938 0.328125,-0.7382813 0.023437,-0.082031 0.035156,-0.1523437 0.035156,-0.2226562 0,-0.09375 -0.023437,-0.1640625 -0.082031,-0.2226563 -0.070312,-0.058594 -0.1523438,-0.09375 -0.2578125,-0.09375 -0.1171875,0 -0.234375,0.035156 -0.3398438,0.1171875 -0.09375,0.082031 -0.1757812,0.2226563 -0.234375,0.4101563 -0.035156,0.1289062 -0.082031,0.375 -0.1171875,0.75 l -0.1289062,1.2890625 z m 0,0"
           style="fill:#231f20;fill-opacity:1;fill-rule:nonzero;stroke:none" />
      </g>
      <path
         id="path9"
         d="m 85.0977,360.852 c 0,6.214 5.039,11.25 11.25,11.25 6.2113,0 11.2503,-5.036 11.2503,-11.25 0,-6.219 -5.039,-11.25 -11.2503,-11.25 -6.211,0 -11.25,5.031 -11.25,11.25"
         style="fill:#231f20;fill-opacity:1;fill-rule:nonzero;stroke:none"
         transform="matrix(0.13333333,0,0,-0.13333333,0,96.733333)" />
      <path
         id="path10"
         d="m 85.0977,360.852 c 0,6.214 5.039,11.25 11.25,11.25 6.2113,0 11.2503,-5.036 11.2503,-11.25 0,-6.219 -5.039,-11.25 -11.2503,-11.25 -6.211,0 -11.25,5.031 -11.25,11.25 z"
         style="fill:none;stroke:#231f20;stroke-width:5;stroke-linecap:butt;stroke-linejoin:miter;stroke-miterlimit:10;stroke-dasharray:none;stroke-opacity:1"
         transform="matrix(0.13333333,0,0,-0.13333333,0,96.733333)" />
      <path
         id="path11"
         d="m 1126.76,672.848 -9.58,-2.856"
         style="fill:none;stroke:#231f20;stroke-width:5;stroke-linecap:butt;stroke-linejoin:miter;stroke-miterlimit:10;stroke-dasharray:none;stroke-opacity:1"
         transform="matrix(0.13333333,0,0,-0.13333333,0,96.733333)" />
      <path
         id="path12"
         d="M 1098.1,664.309 115.469,371.461"
         style="fill:none;stroke:#231f20;stroke-width:5;stroke-linecap:butt;stroke-linejoin:miter;stroke-miterlimit:10;stroke-dasharray:19.9094, 19.9094;stroke-dashoffset:0;stroke-opacity:1"
         transform="matrix(0.13333333,0,0,-0.13333333,0,96.733333)" />
      <path
         id="path13"
         d="m 105.934,368.617 -9.5863,-2.855"
         style="fill:none;stroke:#231f20;stroke-width:5;stroke-linecap:butt;stroke-linejoin:miter;stroke-miterlimit:10;stroke-dasharray:none;stroke-opacity:1"
         transform="matrix(0.13333333,0,0,-0.13333333,0,96.733333)" />
      <path
         id="path14"
         d="m 1756.95,360.852 -8.96,4.437"
         style="fill:none;stroke:#231f20;stroke-width:5;stroke-linecap:butt;stroke-linejoin:miter;stroke-miterlimit:10;stroke-dasharray:none;stroke-opacity:1"
         transform="matrix(0.13333333,0,0,-0.13333333,0,96.733333)" />
      <path
         id="path15"
         d="M 1730.5,373.945 1144.46,664.078"
         style="fill:none;stroke:#231f20;stroke-width:5;stroke-linecap:butt;stroke-linejoin:miter;stroke-miterlimit:10;stroke-dasharray:19.52, 19.52;stroke-dashoffset:0;stroke-opacity:1"
         transform="matrix(0.13333333,0,0,-0.13333333,0,96.733333)" />
      <path
         id="path16"
         d="m 1135.72,668.41 -8.96,4.438"
         style="fill:none;stroke:#231f20;stroke-width:5;stroke-linecap:butt;stroke-linejoin:miter;stroke-miterlimit:10;stroke-dasharray:none;stroke-opacity:1"
         transform="matrix(0.13333333,0,0,-0.13333333,0,96.733333)" />
      <path
         id="path17"
         d="M 3.7841766,-4.1706625 C 3.5615203,-3.9245687 3.3857391,-3.8191 3.2333953,-3.8191 c -0.1523437,0 -0.3046875,-0.011719 -0.7265625,-0.09375 -0.4335937,-0.070312 -0.703125,-0.1054687 -0.9492187,-0.1054687 -0.2226563,0 -0.4453125,0.1875 -0.65625004,0.5273437 -0.140625,0.234375 -0.24609375,0.4453125 -0.375,0.7265625 l 0.234375,0.1054688 C 1.0185516,-3.115975 1.2294891,-3.4206625 1.6513641,-3.4206625 c 0.2226562,0 0.6210937,0.023437 0.8554687,0.058594 0.1992188,0.011719 0.3984375,0 0.5507813,-0.035156 -0.8320313,0.890625 -1.875,1.9101563 -2.49609379,2.578125 -0.55078125,0.57421875 -0.48046875,0.83203125 -0.328125,0.90234375 0.046875,0.01171875 0.0703125,-0.0234375 0.10546875,-0.08203125 0.0820313,-0.1171875 0.1875,-0.234375 0.29296875,-0.3046875 0.1171875,-0.0820313 0.26953125,-0.09375 0.55078129,0.046875 0.3984375,0.19921875 0.9140625,0.43359375 1.2070312,0.43359375 0.3867188,0 0.75,-0.26953125 1.2421875,-1.24218745 l -0.1992187,-0.164063 c -0.4101563,0.60937495 -0.6796875,0.7617187 -0.9257813,0.7617187 -0.2226562,0 -0.515625,-0.1171875 -0.8085937,-0.2109375 C 1.4287078,-0.7956625 1.1943328,-0.8425375 1.0185516,-0.83081875 1.6865203,-1.5339437 2.8701141,-2.7175375 3.4443328,-3.3737875 3.6904266,-3.6433187 3.8544891,-3.8308187 3.9716766,-3.9714437 Z m 0,0"
         style="fill:#231f20;fill-opacity:1;fill-rule:nonzero;stroke:none"
         aria-label="z"
         transform="matrix(1.3333333,0,0,1.3333333,9.2474,59.092133)" />
      <path
         id="path18"
         d="m 1126.76,48.8516 -9.58,2.8593"
         style="fill:none;stroke:#231f20;stroke-width:5;stroke-linecap:butt;stroke-linejoin:miter;stroke-miterlimit:10;stroke-dasharray:none;stroke-opacity:1"
         transform="matrix(0.13333333,0,0,-0.13333333,0,96.733333)" />
      <path
         id="path19"
         d="M 1098.1,57.3984 115.469,350.238"
         style="fill:none;stroke:#231f20;stroke-width:5;stroke-linecap:butt;stroke-linejoin:miter;stroke-miterlimit:10;stroke-dasharray:19.9094, 19.9094;stroke-dashoffset:0;stroke-opacity:1"
         transform="matrix(0.13333333,0,0,-0.13333333,0,96.733333)" />
      <path
         id="path20"
         d="m 105.934,353.082 -9.5863,2.856"
         style="fill:none;stroke:#231f20;stroke-width:5;stroke-linecap:butt;stroke-linejoin:miter;stroke-miterlimit:10;stroke-dasharray:none;stroke-opacity:1"
         transform="matrix(0.13333333,0,0,-0.13333333,0,96.733333)" />
      <path
         id="path21"
         d="m 1756.95,360.852 -8.96,-4.442"
         style="fill:none;stroke:#231f20;stroke-width:5;stroke-linecap:butt;stroke-linejoin:miter;stroke-miterlimit:10;stroke-dasharray:none;stroke-opacity:1"
         transform="matrix(0.13333333,0,0,-0.13333333,0,96.733333)" />
      <path
         id="path22"
         d="M 1730.5,347.754 1144.46,57.6211"
         style="fill:none;stroke:#231f20;stroke-width:5;stroke-linecap:butt;stroke-linejoin:miter;stroke-miterlimit:10;stroke-dasharray:19.52, 19.52;stroke-dashoffset:0;stroke-opacity:1"
         transform="matrix(0.13333333,0,0,-0.13333333,0,96.733333)" />
      <path
         id="path23"
         d="m 1135.72,53.293 -8.96,-4.4414"
         style="fill:none;stroke:#231f20;stroke-width:5;stroke-linecap:butt;stroke-linejoin:miter;stroke-miterlimit:10;stroke-dasharray:none;stroke-opacity:1"
         transform="matrix(0.13333333,0,0,-0.13333333,0,96.733333)" />
      <path
         id="path24"
         d="M 1757.77,670.172 V 39.3203"
         style="fill:none;stroke:#231f20;stroke-width:5;stroke-linecap:butt;stroke-linejoin:miter;stroke-miterlimit:10;stroke-dasharray:none;stroke-opacity:1"
         transform="matrix(0.13333333,0,0,-0.13333333,0,96.733333)" />
    </g>
  </g>
</svg>
