<svg id="Layer_1" data-name="Layer 1" xmlns="http://www.w3.org/2000/svg" viewBox="0 0 363.91 352.61"><defs><style>.cls-1,.cls-4{fill:none;stroke:#000;stroke-miterlimit:10;}.cls-2{fill:#a6a6a6;}.cls-3{fill:#666;}.cls-4{stroke-dasharray:2;}</style></defs><title>BVH choose split axis</title><polyline class="cls-1" points="37.66 29.12 37.66 308.02 316.56 308.02"/><polygon points="32.16 34.03 37.66 29.77 43.17 34.03 37.66 21.02 32.16 34.03"/><polygon class="cls-2" points="33.36 32.48 37.66 22.33 37.66 29.14 33.36 32.48"/><polygon class="cls-3" points="41.96 32.48 37.66 22.33 37.66 29.14 41.96 32.48"/><polygon points="311.65 313.52 315.91 308.02 311.65 302.52 324.66 308.02 311.65 313.52"/><polygon class="cls-2" points="313.21 312.32 323.35 308.02 316.54 308.02 313.21 312.32"/><polygon class="cls-3" points="313.21 303.72 323.35 308.02 316.54 308.02 313.21 303.72"/><path d="M333.44,303.34l1.38,2.08c.36.54.66,1,1,1.58h.06c.32-.58.64-1.08,1-1.6l1.36-2.06h1.9l-3.3,4.68,3.4,5h-2l-1.42-2.18c-.38-.56-.7-1.1-1-1.68h0c-.32.58-.66,1.1-1,1.68l-1.4,2.18h-1.94l3.44-4.94-3.28-4.74Z"/><path d="M34.76,2.84l2.12,5.72c.22.64.46,1.4.62,2h0c.18-.58.38-1.32.62-2l1.92-5.68h1.86L39.3,9.74c-1.26,3.32-2.12,5-3.32,6.06a4.77,4.77,0,0,1-2.16,1.14l-.44-1.48a4.66,4.66,0,0,0,1.54-.86,5.34,5.34,0,0,0,1.48-2,1.26,1.26,0,0,0,.14-.42,1.53,1.53,0,0,0-.12-.46L32.84,2.84Z"/><rect class="cls-1" x="196.75" y="153.3" width="27.7" height="16.68"/><circle cx="211.16" cy="161.52" r="5"/><rect class="cls-1" x="175.51" y="238.14" width="119.17" height="27"/><circle cx="235.66" cy="251.52" r="5"/><rect class="cls-1" x="94.88" y="227.39" width="103.44" height="69.49"/><circle cx="147.16" cy="262.02" r="5"/><rect class="cls-1" x="100.35" y="35.74" width="74.5" height="72.81"/><circle cx="138.16" cy="72.02" r="5"/><rect class="cls-1" x="73.35" y="122.64" width="74.5" height="27"/><circle cx="111.16" cy="136.02" r="5"/><line class="cls-4" x1="137.66" y1="71.52" x2="37.66" y2="71.52"/><line class="cls-4" x1="235.16" y1="250.52" x2="235.16" y2="307.02"/><line class="cls-4" x1="146.66" y1="261.52" x2="37.66" y2="261.52"/><line class="cls-4" x1="110.66" y1="135.52" x2="110.66" y2="308.02"/><polyline class="cls-1" points="110.64 312.47 110.64 317.13 235.07 317.13 235.07 312.08"/><polyline class="cls-1" points="33.2 71.38 28.33 71.38 28.33 262 32.99 262"/></svg>