<svg id="Layer_1" data-name="Layer 1" xmlns="http://www.w3.org/2000/svg" viewBox="0 0 422.62 228.77"><defs><style>.cls-1,.cls-2{fill:none;}.cls-1,.cls-2,.cls-5{stroke:#000;stroke-miterlimit:10;}.cls-2{stroke-dasharray:2;}.cls-3{fill:#a6a6a6;}.cls-4{fill:#666;}.cls-5{fill:#fff;}</style></defs><title>kd skip a node</title><rect class="cls-1" x="31.91" y="57.85" width="143.88" height="143.88"/><line class="cls-2" x1="125.94" y1="201.22" x2="125.94" y2="2.87"/><path d="M19.44,212.54a11.23,11.23,0,0,0-2.14,7,11.45,11.45,0,0,0,2.14,6.91H18.26A11,11,0,0,1,16,219.49a11.26,11.26,0,0,1,2.22-7Z"/><path d="M25.57,224.34l-.11-1H25.4a3,3,0,0,1-2.51,1.23,2.35,2.35,0,0,1-2.52-2.37c0-2,1.77-3.07,4.95-3.06v-.17a1.69,1.69,0,0,0-1.87-1.9,4.15,4.15,0,0,0-2.14.61l-.34-1a5,5,0,0,1,2.7-.73c2.52,0,3.13,1.71,3.13,3.36v3.08a11.83,11.83,0,0,0,.13,2Zm-.22-4.2c-1.63,0-3.48.26-3.48,1.85a1.33,1.33,0,0,0,1.41,1.43,2,2,0,0,0,2-1.38,1.55,1.55,0,0,0,.08-.47Z"/><path d="M28.31,226.4a11.52,11.52,0,0,0,2.14-7,11.25,11.25,0,0,0-2.14-6.9h1.16a10.83,10.83,0,0,1,2.22,6.92,11.05,11.05,0,0,1-2.22,6.94Z"/><path d="M63.23,193.52V182.06h1.61l3.67,5.8a33.41,33.41,0,0,1,2.06,3.72l0,0c-.13-1.52-.17-2.92-.17-4.7v-4.8h1.4v11.46h-1.5l-3.64-5.81a37.2,37.2,0,0,1-2.14-3.83l0,0c.09,1.44.12,2.82.12,4.72v4.9Z"/><path d="M75.19,189.68A2.64,2.64,0,0,0,78,192.53a5.35,5.35,0,0,0,2.27-.42l.26,1.07a6.66,6.66,0,0,1-2.74.51,3.82,3.82,0,0,1-4-4.15c0-2.48,1.46-4.43,3.85-4.43,2.69,0,3.4,2.36,3.4,3.87a5.09,5.09,0,0,1,0,.7Zm4.39-1.07a2.13,2.13,0,0,0-2.07-2.43,2.48,2.48,0,0,0-2.3,2.43Z"/><path d="M87.43,193.52l-.12-1h0a3.05,3.05,0,0,1-2.51,1.23,2.35,2.35,0,0,1-2.52-2.37c0-2,1.77-3.07,5-3.06v-.17a1.69,1.69,0,0,0-1.87-1.9,4.09,4.09,0,0,0-2.14.61l-.34-1a5,5,0,0,1,2.7-.73c2.51,0,3.13,1.71,3.13,3.36v3.08a11.83,11.83,0,0,0,.13,2Zm-.22-4.2c-1.63,0-3.48.26-3.48,1.85a1.32,1.32,0,0,0,1.41,1.43,2.05,2.05,0,0,0,2-1.37,1.66,1.66,0,0,0,.08-.48Z"/><path d="M91.07,187.86c0-1,0-1.8-.07-2.57h1.31l0,1.62h.07a2.46,2.46,0,0,1,2.28-1.8,1.34,1.34,0,0,1,.42,0v1.41a1.91,1.91,0,0,0-.51,0,2.09,2.09,0,0,0-2,1.92,3.58,3.58,0,0,0-.07.69v4.39H91.07Z"/><path d="M141,182.06h6.17v1.24h-4.69v3.81h4.34v1.23h-4.34v5.18H141Z"/><path d="M153.05,193.52l-.12-1h-.05a3.05,3.05,0,0,1-2.51,1.23,2.35,2.35,0,0,1-2.52-2.37c0-2,1.77-3.07,5-3.06v-.17a1.69,1.69,0,0,0-1.87-1.9,4.16,4.16,0,0,0-2.15.61l-.34-1a5.05,5.05,0,0,1,2.71-.73c2.51,0,3.12,1.71,3.12,3.36v3.08a11.77,11.77,0,0,0,.14,2Zm-.22-4.2c-1.63,0-3.48.26-3.48,1.85a1.32,1.32,0,0,0,1.41,1.43,2,2,0,0,0,2-1.37,1.4,1.4,0,0,0,.09-.48Z"/><path d="M156.69,187.86c0-1,0-1.8-.07-2.57h1.31l0,1.62h.07a2.45,2.45,0,0,1,2.28-1.8,1.34,1.34,0,0,1,.42,0v1.41a1.91,1.91,0,0,0-.51,0,2.09,2.09,0,0,0-2,1.92,3.58,3.58,0,0,0-.07.69v4.39h-1.48Z"/><line class="cls-1" x1="104.32" y1="159.5" x2="8.08" y2="151.75"/><polygon points="13.41 146.66 8.73 151.8 12.53 157.63 0 151.1 13.41 146.66"/><polygon class="cls-3" points="11.76 147.73 1.31 151.2 8.1 151.75 11.76 147.73"/><polygon class="cls-4" points="11.07 156.3 1.31 151.2 8.1 151.75 11.07 156.3"/><line class="cls-2" x1="159.55" y1="163.96" x2="104.32" y2="159.5"/><line class="cls-1" x1="17.43" y1="80.73" x2="170.61" y2="25.68"/><polygon points="167.85 32.52 170 25.9 164.12 22.16 178.23 22.94 167.85 32.52"/><polygon class="cls-3" points="168.91 30.86 177 23.38 170.59 25.68 168.91 30.86"/><polygon class="cls-4" points="166 22.77 177 23.38 170.59 25.68 166 22.77"/><circle cx="81.17" cy="57.82" r="3.69"/><circle cx="126.04" cy="41.65" r="3.69"/><circle cx="32.04" cy="75.65" r="3.69"/><circle class="cls-5" cx="126.2" cy="161.11" r="3.69"/><path d="M39.66,80.05v2.36h2.15v1.14H39.66V88c0,1,.29,1.59,1.13,1.59a3.29,3.29,0,0,0,.86-.1l.07,1.12a3.64,3.64,0,0,1-1.33.21,2.07,2.07,0,0,1-1.61-.63A3,3,0,0,1,38.2,88V83.55H36.93V82.41H38.2v-2Z"/><path d="M43,88.8c0-.5,0-.91,0-1.3h.77l0,.77h0a1.63,1.63,0,0,1,1.5-.88,1.42,1.42,0,0,1,1.36,1h0a1.85,1.85,0,0,1,.54-.62,1.6,1.6,0,0,1,1.06-.34c.63,0,1.57.42,1.57,2.08V92.3H49V89.58c0-.92-.33-1.48-1-1.48a1.14,1.14,0,0,0-1,.8,1.38,1.38,0,0,0-.07.43v3H46V89.42c0-.76-.34-1.32-1-1.32a1.2,1.2,0,0,0-1.09.88,1.12,1.12,0,0,0-.07.42v2.9H43Z"/><path d="M52.21,86.15a.54.54,0,0,1-1.08,0,.53.53,0,0,1,.54-.55A.52.52,0,0,1,52.21,86.15Zm-1,6.15V87.5h.87v4.8Z"/><path d="M53.56,88.8c0-.5,0-.91,0-1.3h.77l.05.79h0a1.78,1.78,0,0,1,1.59-.9c.66,0,1.69.4,1.69,2V92.3h-.87V89.53c0-.77-.29-1.42-1.11-1.42a1.24,1.24,0,0,0-1.17.9,1.16,1.16,0,0,0-.06.4V92.3h-.87Z"/><path d="M85.84,62.66V65H88v1.14H85.84V70.6c0,1,.29,1.6,1.12,1.6a2.91,2.91,0,0,0,.87-.11l.07,1.13a3.67,3.67,0,0,1-1.33.2A2.07,2.07,0,0,1,85,72.79a3,3,0,0,1-.58-2.14V66.16H83.11V65h1.27v-2Z"/><path d="M89.15,71.41c0-.5,0-.9,0-1.3h.76l0,.78h0A1.66,1.66,0,0,1,91.45,70a1.42,1.42,0,0,1,1.36,1h0a2.07,2.07,0,0,1,.54-.62A1.6,1.6,0,0,1,94.43,70c.63,0,1.57.42,1.57,2.08v2.83h-.85V72.19c0-.92-.34-1.47-1-1.47a1.12,1.12,0,0,0-1,.79A1.45,1.45,0,0,0,93,72v3h-.85V72c0-.77-.34-1.32-1-1.32a1.19,1.19,0,0,0-1.08.87A1.21,1.21,0,0,0,90,72v2.89h-.85Z"/><path d="M100.07,74.91l-.07-.6h0a1.82,1.82,0,0,1-1.47.71A1.37,1.37,0,0,1,97,73.64c0-1.16,1-1.79,2.89-1.78v-.1a1,1,0,0,0-1.1-1.11,2.49,2.49,0,0,0-1.25.35l-.19-.57A2.93,2.93,0,0,1,99,70c1.47,0,1.83,1,1.83,2v1.79a6.69,6.69,0,0,0,.08,1.15ZM100,72.46c-1,0-2,.15-2,1.08a.78.78,0,0,0,.83.84,1.2,1.2,0,0,0,1.16-.81.91.91,0,0,0,0-.27Z"/><path d="M102.6,70.11l.69,1,.48.79h0c.16-.29.32-.54.48-.8l.67-1h.94l-1.63,2.32,1.68,2.48h-1l-.7-1.08c-.19-.28-.35-.55-.52-.83h0c-.16.28-.33.54-.5.83l-.7,1.08h-1l1.7-2.45-1.62-2.35Z"/><path d="M135.58,43.23v2.36h2.14v1.14h-2.14v4.44c0,1,.29,1.59,1.12,1.59a3.44,3.44,0,0,0,.87-.1l.06,1.12a3.54,3.54,0,0,1-1.32.21,2.08,2.08,0,0,1-1.62-.63,3.06,3.06,0,0,1-.57-2.14V46.73h-1.28V45.59h1.28v-2Z"/><path d="M138.77,54.59a2.24,2.24,0,0,0,1.15.34c.63,0,.93-.31.93-.71s-.25-.65-.89-.88c-.87-.31-1.27-.79-1.27-1.36a1.47,1.47,0,0,1,1.65-1.41,2.34,2.34,0,0,1,1.18.3l-.21.63a1.88,1.88,0,0,0-1-.28c-.51,0-.8.3-.8.66s.29.57.91.81c.84.32,1.26.74,1.26,1.45s-.65,1.44-1.79,1.44a2.72,2.72,0,0,1-1.35-.33Z"/><path d="M142.81,52.25c0-.62,0-1.11,0-1.57h.78l0,.82h0a1.91,1.91,0,0,1,1.71-.93,2.17,2.17,0,0,1,2,2.44,2.28,2.28,0,0,1-2.18,2.58,1.69,1.69,0,0,1-1.48-.76h0v2.61h-.86Zm.86,1.27a2,2,0,0,0,0,.36,1.35,1.35,0,0,0,1.31,1c.92,0,1.46-.75,1.46-1.85s-.51-1.79-1.43-1.79a1.4,1.4,0,0,0-1.32,1.09,1.28,1.28,0,0,0-.06.35Z"/><path d="M148.45,48.44h.87v7h-.87Z"/><path d="M151.76,49.33a.54.54,0,1,1-1.08,0,.53.53,0,0,1,.54-.55A.52.52,0,0,1,151.76,49.33Zm-1,6.15v-4.8h.87v4.8Z"/><path d="M154.16,49.3v1.38h1.25v.66h-1.25v2.59c0,.6.17.93.65.93a2,2,0,0,0,.51-.06l0,.66a2.13,2.13,0,0,1-.77.12,1.22,1.22,0,0,1-1-.37,1.77,1.77,0,0,1-.33-1.25V51.34h-.75v-.66h.75V49.53Z"/><path d="M134,146.1v2.36h2.14v1.14H134V154c0,1,.29,1.6,1.12,1.6a3.44,3.44,0,0,0,.87-.1l.06,1.12a3.61,3.61,0,0,1-1.32.2,2.11,2.11,0,0,1-1.62-.62,3.11,3.11,0,0,1-.58-2.15V149.6h-1.27v-1.14h1.27v-2Z"/><path d="M137.14,157.45a2.24,2.24,0,0,0,1.15.35c.63,0,.93-.32.93-.71s-.25-.65-.89-.89c-.87-.3-1.27-.78-1.27-1.35a1.47,1.47,0,0,1,1.65-1.41,2.46,2.46,0,0,1,1.18.29l-.21.64a1.88,1.88,0,0,0-1-.28c-.51,0-.8.3-.8.66s.29.57.91.81c.84.32,1.26.73,1.26,1.45s-.65,1.44-1.79,1.44a2.69,2.69,0,0,1-1.35-.33Z"/><path d="M141.18,155.11c0-.61,0-1.11,0-1.56h.78l0,.82h0a1.89,1.89,0,0,1,1.71-.93,2.17,2.17,0,0,1,2,2.44,2.28,2.28,0,0,1-2.18,2.58,1.69,1.69,0,0,1-1.48-.76h0v2.61h-.86Zm.86,1.28a2,2,0,0,0,0,.36,1.36,1.36,0,0,0,1.31,1c.92,0,1.46-.75,1.46-1.85s-.51-1.79-1.43-1.79a1.4,1.4,0,0,0-1.32,1.08,1.43,1.43,0,0,0-.06.36Z"/><path d="M146.82,151.3h.87v7h-.87Z"/><path d="M150.13,152.2a.54.54,0,0,1-1.08,0,.53.53,0,0,1,.54-.55A.52.52,0,0,1,150.13,152.2Zm-1,6.15v-4.8H150v4.8Z"/><path d="M152.53,152.17v1.38h1.25v.66h-1.25v2.59c0,.59.17.93.65.93a2,2,0,0,0,.51-.06l0,.66a2.15,2.15,0,0,1-.78.12,1.21,1.21,0,0,1-.94-.37,1.78,1.78,0,0,1-.33-1.25v-2.62h-.75v-.66h.75v-1.16Z"/><rect class="cls-1" x="247.64" y="58.04" width="143.88" height="143.88"/><line class="cls-2" x1="341.67" y1="201.4" x2="341.67" y2="3.06"/><path d="M235.17,212.73a11.19,11.19,0,0,0-2.14,7,11.42,11.42,0,0,0,2.14,6.9H234a11,11,0,0,1-2.22-6.9,11.18,11.18,0,0,1,2.22-7Z"/><path d="M236.68,224.52c0-.56.07-1.39.07-2.12v-9.94h1.48v5.16h0a3.09,3.09,0,0,1,2.81-1.51c2,0,3.48,1.7,3.46,4.2,0,2.94-1.85,4.4-3.68,4.4a3,3,0,0,1-2.76-1.54H238l-.07,1.35Zm1.55-3.29a2.42,2.42,0,0,0,.07.54,2.29,2.29,0,0,0,2.24,1.75c1.56,0,2.5-1.27,2.5-3.16,0-1.65-.85-3.06-2.45-3.06a2.39,2.39,0,0,0-2.28,1.84,3.23,3.23,0,0,0-.08.61Z"/><path d="M245.47,226.58a11.47,11.47,0,0,0,2.14-7,11.29,11.29,0,0,0-2.14-6.9h1.16a10.87,10.87,0,0,1,2.22,6.92,11.06,11.06,0,0,1-2.22,6.93Z"/><path d="M279,193.7V182.25h1.61l3.67,5.79a33.49,33.49,0,0,1,2.06,3.73l0,0c-.13-1.53-.17-2.92-.17-4.71v-4.79h1.4V193.7h-1.5l-3.64-5.81a36.06,36.06,0,0,1-2.14-3.82h0c.09,1.45.12,2.82.12,4.73v4.89Z"/><path d="M290.92,189.86a2.64,2.64,0,0,0,2.83,2.86,5.33,5.33,0,0,0,2.27-.43l.26,1.07a6.66,6.66,0,0,1-2.74.51,3.81,3.81,0,0,1-4-4.14c0-2.48,1.46-4.44,3.85-4.44,2.69,0,3.4,2.36,3.4,3.88a5.05,5.05,0,0,1-.05.69Zm4.39-1.07a2.13,2.13,0,0,0-2.07-2.43,2.48,2.48,0,0,0-2.3,2.43Z"/><path d="M303.16,193.7l-.12-1H303a3.07,3.07,0,0,1-2.51,1.22,2.34,2.34,0,0,1-2.52-2.36c0-2,1.77-3.08,5-3.06v-.17a1.7,1.7,0,0,0-1.87-1.91,4,4,0,0,0-2.14.62l-.34-1a5.11,5.11,0,0,1,2.7-.73c2.51,0,3.13,1.72,3.13,3.37v3.07a11.76,11.76,0,0,0,.13,2Zm-.22-4.19c-1.63,0-3.48.25-3.48,1.85a1.32,1.32,0,0,0,1.41,1.43,2,2,0,0,0,2-1.38,1.56,1.56,0,0,0,.08-.48Z"/><path d="M306.8,188c0-1,0-1.8-.07-2.56H308l0,1.61h.07a2.47,2.47,0,0,1,2.28-1.8,1.73,1.73,0,0,1,.42.05v1.41a2.44,2.44,0,0,0-.51-.05,2.09,2.09,0,0,0-2,1.92,3.68,3.68,0,0,0-.07.7v4.38H306.8Z"/><path d="M356.76,182.25h6.17v1.24h-4.69v3.81h4.34v1.22h-4.34v5.18h-1.48Z"/><path d="M368.78,193.7l-.12-1h-.05a3.08,3.08,0,0,1-2.52,1.22,2.34,2.34,0,0,1-2.51-2.36c0-2,1.77-3.08,4.95-3.06v-.17a1.7,1.7,0,0,0-1.87-1.91,4.07,4.07,0,0,0-2.15.62l-.34-1a5.14,5.14,0,0,1,2.71-.73c2.51,0,3.12,1.72,3.12,3.37v3.07a11.69,11.69,0,0,0,.14,2Zm-.22-4.19c-1.63,0-3.49.25-3.49,1.85a1.33,1.33,0,0,0,1.42,1.43,2,2,0,0,0,2-1.38,1.32,1.32,0,0,0,.09-.48Z"/><path d="M372.42,188c0-1,0-1.8-.07-2.56h1.31l0,1.61h.07a2.46,2.46,0,0,1,2.28-1.8,1.73,1.73,0,0,1,.42.05v1.41a2.44,2.44,0,0,0-.51-.05,2.09,2.09,0,0,0-2,1.92,3.68,3.68,0,0,0-.07.7v4.38h-1.48Z"/><circle cx="358.44" cy="58.01" r="3.69"/><circle cx="341.03" cy="29.3" r="3.69"/><circle cx="391.12" cy="115.89" r="3.69"/><path d="M369.65,60.91v2.36h2.14v1.14h-2.14v4.44c0,1,.29,1.6,1.12,1.6a3.44,3.44,0,0,0,.87-.1l.06,1.12a3.58,3.58,0,0,1-1.32.2,2.08,2.08,0,0,1-1.62-.63,3.06,3.06,0,0,1-.57-2.14V64.41h-1.28V63.27h1.28v-2Z"/><path d="M373,69.66c0-.49,0-.9,0-1.3h.76l0,.78h0a1.65,1.65,0,0,1,1.51-.89,1.43,1.43,0,0,1,1.36,1h0a2,2,0,0,1,.54-.63,1.64,1.64,0,0,1,1.06-.34c.64,0,1.58.42,1.58,2.09v2.82H379V70.44c0-.92-.34-1.47-1-1.47a1.13,1.13,0,0,0-1,.79,1.45,1.45,0,0,0-.07.44v3H376V70.29c0-.77-.34-1.32-1-1.32a1.18,1.18,0,0,0-1.08.87,1.21,1.21,0,0,0-.07.43v2.89H373Z"/><path d="M382.19,67a.52.52,0,0,1-.55.54.52.52,0,0,1-.53-.54.53.53,0,0,1,.55-.54A.52.52,0,0,1,382.19,67Zm-1,6.15v-4.8h.87v4.8Z"/><path d="M383.54,69.66c0-.49,0-.9,0-1.3h.77l.05.8h0a1.77,1.77,0,0,1,1.59-.91c.67,0,1.7.4,1.7,2v2.86h-.88V70.39c0-.77-.28-1.41-1.11-1.41a1.24,1.24,0,0,0-1.17.89,1.27,1.27,0,0,0-.06.41v2.88h-.87Z"/><path d="M400.32,115.8v2.36h2.14v1.14h-2.14v4.44c0,1,.29,1.59,1.12,1.59a3.38,3.38,0,0,0,.87-.1l.07,1.12a3.64,3.64,0,0,1-1.33.21,2.07,2.07,0,0,1-1.61-.63,3,3,0,0,1-.58-2.14V119.3h-1.27v-1.14h1.27v-2Z"/><path d="M403.63,124.55c0-.5,0-.9,0-1.3h.76l0,.77h0a1.67,1.67,0,0,1,1.51-.88,1.42,1.42,0,0,1,1.36,1h0a2,2,0,0,1,.54-.62,1.6,1.6,0,0,1,1.06-.34c.63,0,1.57.42,1.57,2.08v2.83h-.85v-2.72c0-.92-.34-1.48-1-1.48a1.13,1.13,0,0,0-1,.8,1.43,1.43,0,0,0-.07.43v3h-.85v-2.88c0-.76-.34-1.32-1-1.32a1.2,1.2,0,0,0-1.08.88,1.16,1.16,0,0,0-.07.42v2.9h-.85Z"/><path d="M414.55,128.05l-.07-.61h0a1.8,1.8,0,0,1-1.47.72,1.37,1.37,0,0,1-1.47-1.38c0-1.16,1-1.8,2.89-1.79v-.1a1,1,0,0,0-1.1-1.11,2.4,2.4,0,0,0-1.25.36l-.19-.57a2.93,2.93,0,0,1,1.57-.43c1.47,0,1.83,1,1.83,2v1.8a6.77,6.77,0,0,0,.08,1.15Zm-.12-2.45c-1,0-2,.15-2,1.08a.77.77,0,0,0,.83.83,1.19,1.19,0,0,0,1.16-.8.92.92,0,0,0,.05-.28Z"/><path d="M417.08,123.25l.69,1,.48.78h0c.16-.28.32-.53.48-.79l.67-1h.94l-1.63,2.32,1.68,2.48h-1l-.7-1.08c-.19-.28-.35-.55-.52-.83h0c-.16.28-.33.54-.5.83l-.7,1.08h-1l1.7-2.45-1.62-2.35Z"/><path d="M351.31,24.09v2.36h2.14v1.14h-2.14V32c0,1,.29,1.6,1.12,1.6a3.44,3.44,0,0,0,.87-.1l.06,1.12a3.58,3.58,0,0,1-1.32.2,2.08,2.08,0,0,1-1.62-.63,3.06,3.06,0,0,1-.57-2.14V27.59h-1.28V26.45h1.28v-2Z"/><path d="M354.5,35.45a2.24,2.24,0,0,0,1.15.35c.63,0,.93-.32.93-.72s-.25-.64-.89-.88c-.87-.31-1.27-.78-1.27-1.36a1.48,1.48,0,0,1,1.65-1.41,2.34,2.34,0,0,1,1.18.3l-.21.64a1.88,1.88,0,0,0-1-.28c-.51,0-.8.3-.8.65s.29.58.91.82c.84.31,1.26.73,1.26,1.44s-.65,1.44-1.79,1.44a2.72,2.72,0,0,1-1.35-.33Z"/><path d="M358.54,33.11c0-.62,0-1.11,0-1.57h.78l0,.83h0a1.9,1.9,0,0,1,1.71-.94,2.18,2.18,0,0,1,2,2.44c0,1.73-1.05,2.58-2.18,2.58a1.71,1.71,0,0,1-1.48-.75h0v2.61h-.86Zm.86,1.28a2,2,0,0,0,0,.36,1.36,1.36,0,0,0,1.31,1c.92,0,1.46-.76,1.46-1.86s-.51-1.78-1.43-1.78a1.39,1.39,0,0,0-1.32,1.08,1.43,1.43,0,0,0-.06.36Z"/><path d="M364.18,29.3h.87v7h-.87Z"/><path d="M367.49,30.19a.54.54,0,1,1-1.08,0,.53.53,0,0,1,.54-.54A.52.52,0,0,1,367.49,30.19Zm-1,6.15v-4.8h.87v4.8Z"/><path d="M369.89,30.16v1.38h1.25v.67h-1.25V34.8c0,.59.17.93.65.93a2,2,0,0,0,.51-.06l0,.65a2.13,2.13,0,0,1-.77.12,1.25,1.25,0,0,1-.95-.36,1.78,1.78,0,0,1-.33-1.25V32.21h-.75v-.67H369V30.39Z"/><line class="cls-1" x1="325.54" y1="0.25" x2="418.61" y2="164.06"/><polygon points="411.4 162.51 418.29 163.49 420.97 157.07 422.62 171.1 411.4 162.51"/><polygon class="cls-3" points="413.22 163.27 421.97 169.96 418.6 164.04 413.22 163.27"/><polygon class="cls-4" points="420.69 159.02 421.97 169.96 418.6 164.04 420.69 159.02"/></svg>