<svg id="Layer_1" data-name="Layer 1" xmlns="http://www.w3.org/2000/svg" viewBox="0 0 300.02 255.23"><defs><style>.cls-1,.cls-2{fill:none;stroke:#000;stroke-miterlimit:10;}.cls-2{stroke-dasharray:2;}.cls-3{fill:#a6a6a6;}.cls-4{fill:#666;}</style></defs><title>kd tree splits</title><rect class="cls-1" x="162.37" y="146.04" width="108.68" height="108.68"/><ellipse class="cls-1" cx="180.73" cy="165.6" rx="8.28" ry="11.62"/><rect class="cls-1" x="189.81" y="186.29" width="17.36" height="12.82"/><rect class="cls-1" x="173.26" y="226.35" width="41.92" height="13.08" transform="translate(-102.59 170.75) rotate(-38.35)"/><polygon class="cls-1" points="239.21 155.99 252.72 161.8 266.23 167.62 254.43 176.41 242.64 185.2 240.92 170.59 239.21 155.99"/><line class="cls-2" x1="238.28" y1="146.03" x2="238.28" y2="254.73"/><line class="cls-2" x1="162.69" y1="213.59" x2="237.84" y2="213.59"/><line class="cls-2" x1="208.85" y1="213.37" x2="208.85" y2="146.36"/><rect class="cls-1" x="17.14" y="146.04" width="108.68" height="108.68"/><ellipse class="cls-1" cx="35.5" cy="165.6" rx="8.28" ry="11.62"/><rect class="cls-1" x="44.58" y="186.29" width="17.36" height="12.82"/><rect class="cls-1" x="28.02" y="226.35" width="41.92" height="13.08" transform="translate(-133.93 80.64) rotate(-38.35)"/><polygon class="cls-1" points="93.98 155.99 107.49 161.8 120.99 167.62 109.2 176.41 97.41 185.2 95.69 170.59 93.98 155.99"/><line class="cls-2" x1="93.05" y1="146.03" x2="93.05" y2="254.73"/><line class="cls-2" x1="17.46" y1="213.59" x2="92.6" y2="213.59"/><rect class="cls-1" x="162.37" y="0.51" width="108.68" height="108.68"/><ellipse class="cls-1" cx="180.73" cy="20.07" rx="8.28" ry="11.62"/><rect class="cls-1" x="189.81" y="40.76" width="17.36" height="12.82"/><rect class="cls-1" x="173.26" y="80.82" width="41.92" height="13.08" transform="translate(-12.3 139.35) rotate(-38.35)"/><polygon class="cls-1" points="239.21 10.46 252.72 16.28 266.23 22.1 254.43 30.88 242.64 39.67 240.92 25.07 239.21 10.46"/><line class="cls-2" x1="238.28" y1="0.5" x2="238.28" y2="109.21"/><rect class="cls-1" x="17.14" y="0.5" width="108.68" height="108.68"/><ellipse class="cls-1" cx="35.5" cy="20.06" rx="8.28" ry="11.62"/><rect class="cls-1" x="44.58" y="40.75" width="17.36" height="12.82"/><rect class="cls-1" x="28.02" y="80.8" width="41.92" height="13.08" transform="translate(-43.63 49.24) rotate(-38.35)"/><polygon class="cls-1" points="93.98 10.44 107.49 16.26 120.99 22.08 109.2 30.87 97.41 39.66 95.69 25.05 93.98 10.44"/><polyline class="cls-1" points="4.13 80.2 4.13 123.96 48.29 123.96"/><polygon points="0 83.89 4.13 80.69 8.26 83.89 4.13 74.13 0 83.89"/><polygon class="cls-3" points="0.9 82.72 4.13 75.11 4.13 80.22 0.9 82.72"/><polygon class="cls-4" points="7.35 82.72 4.13 75.11 4.13 80.22 7.35 82.72"/><polygon points="44.61 128.09 47.8 123.96 44.61 119.84 54.37 123.96 44.61 128.09"/><polygon class="cls-3" points="45.78 127.19 53.38 123.96 48.28 123.96 45.78 127.19"/><polygon class="cls-4" points="45.78 120.74 53.38 123.96 48.28 123.96 45.78 120.74"/><path d="M59.92,119l1.18,1.77c.3.46.56.88.83,1.34h0c.27-.49.54-.91.82-1.36L64,119h1.62l-2.81,4,2.89,4.25H64l-1.2-1.85c-.33-.48-.6-.94-.89-1.43h0c-.27.49-.56.93-.87,1.43l-1.19,1.85H58.12l2.93-4.2-2.79-4Z"/><path d="M2.3,57.86l1.8,4.86c.18.55.39,1.19.52,1.68h0c.15-.49.32-1.12.53-1.71l1.63-4.83H8.4L6.15,63.72C5.08,66.55,4.35,68,3.33,68.87a4,4,0,0,1-1.83,1l-.38-1.25a3.84,3.84,0,0,0,1.31-.74,4.51,4.51,0,0,0,1.26-1.66,1,1,0,0,0,.12-.36,1.67,1.67,0,0,0-.1-.39l-3-7.58Z"/><line class="cls-1" x1="134.35" y1="56.04" x2="149.59" y2="56.04"/><polygon points="147.14 58.79 149.27 56.04 147.14 53.29 153.65 56.04 147.14 58.79"/><polygon class="cls-3" points="147.92 58.19 152.99 56.04 149.58 56.04 147.92 58.19"/><polygon class="cls-4" points="147.92 53.89 152.99 56.04 149.58 56.04 147.92 53.89"/><line class="cls-1" x1="280.73" y1="56.12" x2="295.97" y2="56.12"/><polygon points="293.51 58.87 295.64 56.12 293.51 53.37 300.02 56.12 293.51 58.87"/><polygon class="cls-3" points="294.29 58.27 299.36 56.12 295.96 56.12 294.29 58.27"/><polygon class="cls-4" points="294.29 53.97 299.36 56.12 295.96 56.12 294.29 53.97"/><line class="cls-1" x1="134.83" y1="200.01" x2="150.07" y2="200.01"/><polygon points="147.61 202.76 149.74 200.01 147.61 197.26 154.12 200.01 147.61 202.76"/><polygon class="cls-3" points="148.39 202.16 153.46 200.01 150.06 200.01 148.39 202.16"/><polygon class="cls-4" points="148.39 197.86 153.46 200.01 150.06 200.01 148.39 197.86"/></svg>