<svg id="Layer_1" data-name="Layer 1" xmlns="http://www.w3.org/2000/svg" viewBox="0 0 375.71 171.56"><defs><style>.cls-1,.cls-4{fill:none;stroke:#000;stroke-miterlimit:10;}.cls-2{fill:#a6a6a6;}.cls-3{fill:#666;}.cls-4{stroke-dasharray:2;}</style></defs><title>kd tree projected bboxes</title><line class="cls-1" y1="150.62" x2="352.42" y2="150.62"/><polygon points="347.51 156.13 351.77 150.62 347.51 145.12 360.53 150.62 347.51 156.13"/><polygon class="cls-2" points="349.07 154.92 359.21 150.62 352.4 150.62 349.07 154.92"/><polygon class="cls-3" points="349.07 146.32 359.21 150.62 352.4 150.62 349.07 146.32"/><path d="M369.77,146.49l1.18,1.77c.3.45.56.88.83,1.34h.05c.27-.49.54-.92.82-1.36l1.15-1.75h1.62l-2.81,4,2.89,4.25h-1.7l-1.2-1.85c-.33-.47-.6-.93-.89-1.43h0c-.27.5-.56.94-.87,1.43l-1.19,1.85H368l2.93-4.19-2.79-4Z"/><rect class="cls-1" x="15.45" y="0.5" width="136.55" height="96.78"/><path d="M81.67,50.28l-1.19,3.6H79l3.89-11.46h1.79l3.9,11.46H87l-1.22-3.6Zm3.75-1.16-1.12-3.3c-.25-.74-.42-1.42-.59-2.09h0c-.17.68-.35,1.38-.57,2.08L82,49.12Z"/><rect class="cls-1" x="123.36" y="45.57" width="125.73" height="89.77"/><path d="M182.91,84.14a14.07,14.07,0,0,1,2.71-.24,4.7,4.7,0,0,1,3.14.83,2.38,2.38,0,0,1,1,2,2.72,2.72,0,0,1-1.93,2.52v0a3,3,0,0,1,2.36,2.88,3.08,3.08,0,0,1-1,2.29c-.8.73-2.09,1.07-4,1.07a17.34,17.34,0,0,1-2.3-.13Zm1.48,4.69h1.35c1.56,0,2.48-.82,2.48-1.92,0-1.34-1-1.87-2.52-1.87a6.5,6.5,0,0,0-1.31.1Zm0,5.49a8,8,0,0,0,1.24.07c1.53,0,2.94-.56,2.94-2.23S187.23,90,185.62,90h-1.23Z"/><rect class="cls-1" x="290.12" y="7.06" width="54.68" height="54.68"/><path d="M321.83,39a7.36,7.36,0,0,1-3,.54c-3.23,0-5.66-2-5.66-5.8a5.7,5.7,0,0,1,6-6,6,6,0,0,1,2.72.51l-.36,1.2a5.42,5.42,0,0,0-2.31-.47c-2.69,0-4.47,1.71-4.47,4.72,0,2.81,1.62,4.61,4.4,4.61a6,6,0,0,0,2.42-.48Z"/><line class="cls-4" x1="15.5" y1="97.75" x2="15.5" y2="150.82"/><line class="cls-4" x1="123.1" y1="135.7" x2="123.1" y2="150.31"/><line class="cls-4" x1="152.05" y1="97.41" x2="152.05" y2="150.31"/><line class="cls-4" x1="248.83" y1="135.54" x2="248.83" y2="150.15"/><line class="cls-4" x1="289.47" y1="63.07" x2="289.47" y2="150.57"/><line class="cls-4" x1="344.15" y1="62.99" x2="344.15" y2="150.48"/><path d="M18.25,167.31l-.11-1h-.06a3.06,3.06,0,0,1-2.51,1.22,2.34,2.34,0,0,1-2.52-2.36c0-2,1.77-3.08,4.95-3.06v-.17A1.7,1.7,0,0,0,16.13,160a4.06,4.06,0,0,0-2.14.62l-.34-1a5.11,5.11,0,0,1,2.7-.73c2.52,0,3.13,1.72,3.13,3.37v3.07a11.76,11.76,0,0,0,.13,2ZM18,163.12c-1.63,0-3.48.25-3.48,1.85A1.33,1.33,0,0,0,16,166.4,2,2,0,0,0,18,165a1.56,1.56,0,0,0,.08-.48Z"/><path d="M21,166.52c0-2.11,1-3.42,2.5-3.42S26,164.39,26,166.45s-.83,3.45-2.5,3.45C22,169.9,21,168.62,21,166.52Zm3.74-.06c0-1.58-.42-2.49-1.27-2.49s-1.28.91-1.28,2.49.5,2.57,1.26,2.57S24.78,168.08,24.78,166.46Z"/><path d="M119.26,167.31c0-.56.07-1.39.07-2.12v-9.94h1.48v5.16h0a3.09,3.09,0,0,1,2.81-1.51c2,0,3.48,1.7,3.47,4.2,0,2.94-1.86,4.4-3.69,4.4a2.94,2.94,0,0,1-2.76-1.55h0l-.07,1.36Zm1.55-3.29a2.42,2.42,0,0,0,.07.54,2.3,2.3,0,0,0,2.24,1.75c1.56,0,2.5-1.27,2.5-3.16,0-1.65-.85-3.06-2.45-3.06a2.39,2.39,0,0,0-2.28,1.84,3.23,3.23,0,0,0-.08.61Z"/><path d="M128.15,166.52c0-2.11,1-3.42,2.5-3.42s2.43,1.29,2.43,3.35-.83,3.45-2.5,3.45C129.09,169.9,128.15,168.62,128.15,166.52Zm3.74-.06c0-1.58-.42-2.49-1.27-2.49s-1.28.91-1.28,2.49.5,2.57,1.26,2.57S131.89,168.08,131.89,166.46Z"/><path d="M153,167.31l-.12-1h0a3.09,3.09,0,0,1-2.52,1.22,2.34,2.34,0,0,1-2.52-2.36c0-2,1.77-3.08,4.95-3.06v-.17a1.7,1.7,0,0,0-1.87-1.91,4.06,4.06,0,0,0-2.14.62l-.34-1a5.11,5.11,0,0,1,2.7-.73c2.52,0,3.13,1.72,3.13,3.37v3.07a10.73,10.73,0,0,0,.14,2Zm-.23-4.19c-1.63,0-3.48.25-3.48,1.85a1.33,1.33,0,0,0,1.41,1.43,2,2,0,0,0,2-1.38,1.56,1.56,0,0,0,.08-.48Z"/><path d="M157.25,169.81v-5.59h0l-1.23.6-.18-.89,1.6-.75h1v6.63Z"/><path d="M245,167.31c0-.56.07-1.39.07-2.12v-9.94h1.48v5.16h0a3.09,3.09,0,0,1,2.81-1.51c2,0,3.48,1.7,3.47,4.2,0,2.94-1.86,4.4-3.69,4.4a2.94,2.94,0,0,1-2.76-1.55h0l-.07,1.36Zm1.55-3.29a2.42,2.42,0,0,0,.07.54,2.3,2.3,0,0,0,2.24,1.75c1.56,0,2.5-1.27,2.5-3.16,0-1.65-.85-3.06-2.45-3.06a2.39,2.39,0,0,0-2.28,1.84,3.23,3.23,0,0,0-.08.61Z"/><path d="M255.36,169.81v-5.59h0l-1.23.6-.18-.89,1.59-.75h1v6.63Z"/><path d="M292.06,167a5.55,5.55,0,0,1-2.36.47,3.91,3.91,0,0,1-4.1-4.19,4.18,4.18,0,0,1,4.42-4.37,5.09,5.09,0,0,1,2.08.42l-.34,1.16a3.43,3.43,0,0,0-1.74-.39,2.84,2.84,0,0,0-2.9,3.11,2.81,2.81,0,0,0,2.85,3.07,4.41,4.41,0,0,0,1.84-.4Z"/><path d="M293,166.52c0-2.11,1-3.42,2.49-3.42s2.44,1.29,2.44,3.35-.84,3.45-2.5,3.45C293.9,169.9,293,168.62,293,166.52Zm3.74-.06c0-1.58-.43-2.49-1.28-2.49s-1.27.91-1.27,2.49.49,2.57,1.25,2.57S296.71,168.08,296.71,166.46Z"/><path d="M345.73,167a5.55,5.55,0,0,1-2.36.47,3.91,3.91,0,0,1-4.1-4.19,4.18,4.18,0,0,1,4.42-4.37,5.09,5.09,0,0,1,2.08.42l-.34,1.16a3.43,3.43,0,0,0-1.74-.39,2.84,2.84,0,0,0-2.9,3.11,2.81,2.81,0,0,0,2.85,3.07,4.41,4.41,0,0,0,1.84-.4Z"/><path d="M348.06,169.81v-5.59h0l-1.22.6-.19-.89,1.6-.75h1v6.63Z"/></svg>