<svg id="Layer_1" data-name="Layer 1" xmlns="http://www.w3.org/2000/svg" viewBox="0 0 429.88 709.78"><defs><style>.cls-1,.cls-2,.cls-3{fill:none;stroke-miterlimit:10;}.cls-1,.cls-2{stroke:#000;}.cls-2{stroke-dasharray:2;}.cls-3{stroke:#0071bc;stroke-width:2px;}</style></defs><title>Midpoint good bad split</title><rect class="cls-1" x="343.63" y="131.28" width="27.7" height="16.68"/><circle cx="358.05" cy="139.5" r="5"/><rect class="cls-1" x="219.77" y="134.55" width="119.17" height="27"/><circle cx="279.92" cy="147.93" r="5"/><rect class="cls-1" x="235.62" y="50.83" width="103.44" height="69.49"/><circle cx="286.97" cy="85.54" r="5"/><rect class="cls-1" x="82.61" y="43.35" width="74.5" height="72.81"/><circle cx="120.43" cy="79.64" r="5"/><rect class="cls-1" x="31.57" y="126.9" width="74.5" height="27"/><circle cx="69.39" cy="140.29" r="5"/><line class="cls-1" x1="24.31" y1="211.99" x2="429.45" y2="211.99"/><line class="cls-2" x1="69.31" y1="140.16" x2="69.31" y2="212.14"/><line class="cls-2" x1="357.87" y1="138.51" x2="357.87" y2="211.71"/><line class="cls-3" x1="213.47" y1="211.18" x2="213.47"/><rect class="cls-2" x="29.9" y="41.42" width="128.74" height="114.06"/><rect class="cls-2" x="218.36" y="48.73" width="154.31" height="114.4"/><path d="M6.12,195.82A13.19,13.19,0,0,0,3.6,204a13.51,13.51,0,0,0,2.52,8.13H4.74A12.94,12.94,0,0,1,2.12,204a13.2,13.2,0,0,1,2.62-8.18Z"/><path d="M13.34,209.71l-.14-1.22h-.06a3.61,3.61,0,0,1-3,1.44,2.76,2.76,0,0,1-3-2.78c0-2.35,2.08-3.63,5.82-3.61v-.2a2,2,0,0,0-2.2-2.24,4.82,4.82,0,0,0-2.52.72l-.4-1.16a6,6,0,0,1,3.18-.86c3,0,3.68,2,3.68,4v3.63a13.63,13.63,0,0,0,.16,2.32Zm-.26-5c-1.92,0-4.1.3-4.1,2.18a1.56,1.56,0,0,0,1.66,1.69A2.4,2.4,0,0,0,13,207a1.78,1.78,0,0,0,.1-.56Z"/><path d="M16.56,212.13a13.57,13.57,0,0,0,2.52-8.19,13.26,13.26,0,0,0-2.52-8.12h1.36A12.74,12.74,0,0,1,20.54,204a13,13,0,0,1-2.62,8.17Z"/><rect class="cls-1" x="343.39" y="378.29" width="27.7" height="16.68"/><circle cx="357.81" cy="386.51" r="5"/><rect class="cls-1" x="194.67" y="270.49" width="144.15" height="96.84"/><circle cx="267.02" cy="318.65" r="5"/><rect class="cls-1" x="50.23" y="290.36" width="55.48" height="54.22"/><circle cx="78.25" cy="317.44" r="5"/><rect class="cls-1" x="31.33" y="373.91" width="74.5" height="27"/><circle cx="69.14" cy="387.3" r="5"/><line class="cls-1" x1="24.3" y1="459" x2="429.88" y2="459"/><line class="cls-2" x1="69.07" y1="387.17" x2="69.07" y2="459.15"/><line class="cls-2" x1="357.63" y1="385.52" x2="357.63" y2="458.72"/><line class="cls-3" x1="213.23" y1="458.19" x2="213.23" y2="247.01"/><rect class="cls-2" x="29.66" y="288.43" width="191.35" height="140.11"/><rect class="cls-1" x="192.06" y="410.15" width="27.7" height="16.68"/><circle cx="206.48" cy="418.37" r="5"/><rect class="cls-2" x="193.24" y="268.79" width="179.49" height="127.52"/><path d="M5.28,442.58a13.24,13.24,0,0,0-2.52,8.19,13.48,13.48,0,0,0,2.52,8.12H3.9a12.93,12.93,0,0,1-2.62-8.12,13.26,13.26,0,0,1,2.62-8.19Z"/><path d="M7.06,456.47c0-.66.08-1.64.08-2.5V442.26H8.88v6.09h0a3.61,3.61,0,0,1,3.3-1.78c2.4,0,4.1,2,4.08,4.94,0,3.46-2.18,5.18-4.34,5.18a3.45,3.45,0,0,1-3.24-1.82H8.66l-.08,1.6Zm1.82-3.88a3.3,3.3,0,0,0,.08.64,2.72,2.72,0,0,0,2.64,2.06c1.84,0,2.94-1.5,2.94-3.72,0-1.94-1-3.6-2.88-3.6A2.81,2.81,0,0,0,9,450.13a3.47,3.47,0,0,0-.1.72Z"/><path d="M17.4,458.89a13.54,13.54,0,0,0,2.52-8.18,13.31,13.31,0,0,0-2.52-8.13h1.36a12.79,12.79,0,0,1,2.62,8.15,13,13,0,0,1-2.62,8.16Z"/><rect class="cls-1" x="343.85" y="626.15" width="27.7" height="16.68"/><circle cx="358.27" cy="634.37" r="5"/><rect class="cls-1" x="195.13" y="518.36" width="144.15" height="96.84"/><circle cx="267.48" cy="566.52" r="5"/><rect class="cls-1" x="50.69" y="538.23" width="55.48" height="54.22"/><circle cx="78.71" cy="565.3" r="5"/><rect class="cls-1" x="31.79" y="621.78" width="74.5" height="27"/><circle cx="69.6" cy="635.16" r="5"/><line class="cls-1" x1="25.36" y1="706.86" x2="429.73" y2="706.86"/><line class="cls-2" x1="69.53" y1="635.03" x2="69.53" y2="707.01"/><line class="cls-2" x1="358.09" y1="633.38" x2="358.09" y2="706.58"/><line class="cls-3" x1="152.55" y1="706.06" x2="152.55" y2="494.87"/><rect class="cls-2" x="30.12" y="536.3" width="78.59" height="114.74"/><rect class="cls-1" x="192.52" y="658.01" width="27.7" height="16.68"/><circle cx="206.8" cy="666.23" r="5"/><rect class="cls-2" x="190.35" y="516.65" width="182.84" height="159.9"/><path d="M6.46,690.89a13.19,13.19,0,0,0-2.52,8.18,13.51,13.51,0,0,0,2.52,8.13H5.08a12.94,12.94,0,0,1-2.62-8.13,13.2,13.2,0,0,1,2.62-8.18Z"/><path d="M15.22,704.42a6.48,6.48,0,0,1-2.78.56,4.6,4.6,0,0,1-4.82-5,4.92,4.92,0,0,1,5.2-5.14,5.88,5.88,0,0,1,2.44.5l-.4,1.36a4.08,4.08,0,0,0-2-.46A3.35,3.35,0,0,0,9.4,700a3.32,3.32,0,0,0,3.36,3.62,5,5,0,0,0,2.16-.48Z"/><path d="M16.22,707.2A13.55,13.55,0,0,0,18.74,699a13.26,13.26,0,0,0-2.52-8.12h1.36A12.74,12.74,0,0,1,20.2,699a13,13,0,0,1-2.62,8.17Z"/></svg>