<svg id="Layer_1" data-name="Layer 1" xmlns="http://www.w3.org/2000/svg" viewBox="0 0 230 230"><defs><style>.cls-1,.cls-2,.cls-3{fill:none;stroke:#000;stroke-miterlimit:10;}.cls-1{stroke-width:0.5px;}.cls-3{stroke-dasharray:4;}</style></defs><title>Morton implications b</title><circle cx="60.43" cy="159.51" r="5.14"/><circle cx="96.42" cy="158.88" r="5.14"/><circle cx="132.42" cy="158.57" r="5.14"/><circle cx="168.41" cy="159.19" r="5.14"/><circle cx="60.43" cy="123.51" r="5.14"/><circle cx="96.42" cy="122.89" r="5.14"/><circle cx="132.42" cy="122.58" r="5.14"/><circle cx="168.41" cy="123.2" r="5.14"/><circle cx="60.43" cy="87.52" r="5.14"/><circle cx="96.42" cy="86.89" r="5.14"/><circle cx="132.42" cy="86.58" r="5.14"/><circle cx="168.41" cy="87.2" r="5.14"/><circle cx="60.43" cy="51.52" r="5.14"/><circle cx="96.42" cy="50.9" r="5.14"/><circle cx="132.42" cy="50.59" r="5.14"/><circle cx="168.41" cy="51.21" r="5.14"/><polyline class="cls-1" points="60.59 167.62 96.58 167 60.59 131.63 96.58 131 132.58 166.69 168.57 167.31 132.58 130.69 168.57 131.32 60.59 95.63 96.58 95.01 60.59 59.64 96.58 59.01 132.58 94.7 168.57 95.32 132.58 58.7 168.57 59.33"/><rect class="cls-2" x="24.83" y="15.89" width="180" height="180"/><line class="cls-3" x1="113.83" y1="198.48" x2="113.83" y2="-1.11"/><path d="M110.84,202.47a10.55,10.55,0,0,0-2,6.55,10.83,10.83,0,0,0,2,6.5h-1.1a10.35,10.35,0,0,1-2.1-6.5,10.59,10.59,0,0,1,2.1-6.55Z"/><path d="M112.26,213.58c0-.53.07-1.31.07-2v-9.36h1.39v4.86h0a2.9,2.9,0,0,1,2.64-1.42c1.93,0,3.29,1.6,3.27,4,0,2.77-1.74,4.15-3.47,4.15a2.79,2.79,0,0,1-2.6-1.46h0l-.07,1.28Zm1.46-3.11a2.2,2.2,0,0,0,2.18,2.17c1.47,0,2.35-1.21,2.35-3,0-1.55-.8-2.88-2.3-2.88a2.25,2.25,0,0,0-2.15,1.73,2.89,2.89,0,0,0-.08.57Z"/><path d="M120.54,215.52a10.9,10.9,0,0,0,2-6.55,10.63,10.63,0,0,0-2-6.5h1.08a10.16,10.16,0,0,1,2.1,6.52,10.37,10.37,0,0,1-2.1,6.53Z"/></svg>