<svg id="Layer_1" data-name="Layer 1" xmlns="http://www.w3.org/2000/svg" viewBox="0 0 230 230"><defs><style>.cls-1,.cls-2,.cls-3{fill:none;stroke:#000;stroke-miterlimit:10;}.cls-1{stroke-width:0.5px;}.cls-3{stroke-dasharray:4;}</style></defs><title>Morton implications a</title><circle cx="61.59" cy="159.36" r="5.14"/><circle cx="97.59" cy="158.73" r="5.14"/><circle cx="133.58" cy="158.42" r="5.14"/><circle cx="169.58" cy="159.05" r="5.14"/><circle cx="61.59" cy="123.36" r="5.14"/><circle cx="97.59" cy="122.74" r="5.14"/><circle cx="133.58" cy="122.43" r="5.14"/><circle cx="169.58" cy="123.05" r="5.14"/><circle cx="61.59" cy="87.37" r="5.14"/><circle cx="97.59" cy="86.74" r="5.14"/><circle cx="133.58" cy="86.43" r="5.14"/><circle cx="169.58" cy="87.06" r="5.14"/><circle cx="61.59" cy="51.37" r="5.14"/><circle cx="97.59" cy="50.75" r="5.14"/><circle cx="133.58" cy="50.44" r="5.14"/><circle cx="169.58" cy="51.06" r="5.14"/><polyline class="cls-1" points="61.59 159.36 97.59 158.73 61.59 123.36 97.59 122.74 133.59 158.42 169.58 159.05 133.59 122.43 169.58 123.05 61.59 87.37 97.59 86.75 61.59 51.37 97.59 50.75 133.59 86.43 169.58 87.06 133.59 50.44 169.58 51.06"/><rect class="cls-2" x="26" y="15.74" width="180" height="180"/><line class="cls-3" x1="8" y1="105.74" x2="222" y2="105.74"/><path d="M111.44,202.35a10.55,10.55,0,0,0-2,6.55,10.77,10.77,0,0,0,2,6.5h-1.11a10.35,10.35,0,0,1-2.1-6.5,10.61,10.61,0,0,1,2.1-6.55Z"/><path d="M117.21,213.46l-.11-1h0a2.88,2.88,0,0,1-2.37,1.16,2.21,2.21,0,0,1-2.37-2.23c0-1.87,1.67-2.89,4.66-2.88v-.16a1.59,1.59,0,0,0-1.76-1.79,3.9,3.9,0,0,0-2,.57l-.32-.92a4.78,4.78,0,0,1,2.55-.69c2.37,0,2.94,1.61,2.94,3.17v2.89a11.54,11.54,0,0,0,.13,1.86Zm-.21-4c-1.53,0-3.28.24-3.28,1.74a1.25,1.25,0,0,0,1.33,1.35,1.92,1.92,0,0,0,1.87-1.3,1.38,1.38,0,0,0,.08-.45Z"/><path d="M119.79,215.4a10.9,10.9,0,0,0,2-6.55,10.65,10.65,0,0,0-2-6.5h1.08a10.18,10.18,0,0,1,2.1,6.52,10.35,10.35,0,0,1-2.1,6.53Z"/></svg>