<svg id="Layer_1" data-name="Layer 1" xmlns="http://www.w3.org/2000/svg" viewBox="0 0 301.5 272.69"><defs><style>.cls-1{fill:none;stroke:#000;stroke-miterlimit:10;}.cls-2{fill:#a6a6a6;}.cls-3{fill:#666;}</style></defs><title>Morton implications</title><path d="M10.74,259.27c0,4.87-1.81,7.56-5,7.56-2.8,0-4.7-2.62-4.74-7.37S3.09,252,6,252,10.74,254.7,10.74,259.27ZM3,259.49c0,3.72,1.15,5.84,2.91,5.84,2,0,2.93-2.32,2.93-6s-.9-5.84-2.91-5.84C4.19,253.51,3,255.58,3,259.49Z"/><path d="M22.05,259.27c0,4.87-1.81,7.56-5,7.56-2.8,0-4.7-2.62-4.74-7.37s2.07-7.45,5-7.45S22.05,254.7,22.05,259.27Zm-7.78.22c0,3.72,1.14,5.84,2.91,5.84,2,0,2.93-2.32,2.93-6s-.9-5.84-2.91-5.84C15.5,253.51,14.27,255.58,14.27,259.49Z"/><path d="M33.36,259.27c0,4.87-1.81,7.56-5,7.56-2.8,0-4.69-2.62-4.74-7.37s2.08-7.45,5-7.45S33.36,254.7,33.36,259.27Zm-7.79.22c0,3.72,1.15,5.84,2.91,5.84,2,0,2.94-2.32,2.94-6s-.91-5.84-2.91-5.84C26.81,253.51,25.57,255.58,25.57,259.49Z"/><path d="M44.67,259.27c0,4.87-1.81,7.56-5,7.56-2.8,0-4.69-2.62-4.74-7.37S37,252,39.92,252,44.67,254.7,44.67,259.27Zm-7.79.22c0,3.72,1.15,5.84,2.91,5.84,2,0,2.93-2.32,2.93-6s-.9-5.84-2.91-5.84C38.12,253.51,36.88,255.58,36.88,259.49Z"/><path d="M100.46,259.86c0,4.87-1.81,7.56-5,7.56-2.8,0-4.7-2.62-4.74-7.36s2.07-7.46,5-7.46S100.46,255.29,100.46,259.86Zm-7.78.22c0,3.72,1.14,5.84,2.91,5.84,2,0,2.93-2.31,2.93-6s-.9-5.85-2.91-5.85C93.91,254.1,92.68,256.18,92.68,260.08Z"/><path d="M111.77,259.86c0,4.87-1.81,7.56-5,7.56-2.8,0-4.7-2.62-4.75-7.36s2.08-7.46,5-7.46S111.77,255.29,111.77,259.86Zm-7.78.22c0,3.72,1.14,5.84,2.91,5.84,2,0,2.93-2.31,2.93-6s-.91-5.85-2.91-5.85C105.22,254.1,104,256.18,104,260.08Z"/><path d="M123.08,259.86c0,4.87-1.81,7.56-5,7.56-2.8,0-4.69-2.62-4.74-7.36s2.07-7.46,5-7.46S123.08,255.29,123.08,259.86Zm-7.79.22c0,3.72,1.15,5.84,2.91,5.84,2,0,2.93-2.31,2.93-6s-.9-5.85-2.91-5.85C116.53,254.1,115.29,256.18,115.29,260.08Z"/><path d="M129.07,254.65h0L126.53,256l-.37-1.48,3.13-1.67h1.65v14.33h-1.87Z"/><path d="M10.74,176c0,4.88-1.8,7.56-5,7.56-2.8,0-4.7-2.62-4.74-7.36s2.07-7.45,5-7.45S10.74,171.44,10.74,176ZM3,176.22c0,3.73,1.15,5.85,2.91,5.85,2,0,2.93-2.32,2.93-6s-.9-5.84-2.91-5.84C4.2,170.25,3,172.32,3,176.22Z"/><path d="M22.05,176c0,4.88-1.81,7.56-5,7.56-2.8,0-4.7-2.62-4.74-7.36s2.07-7.45,5-7.45S22.05,171.44,22.05,176Zm-7.78.22c0,3.73,1.15,5.85,2.91,5.85,2,0,2.93-2.32,2.93-6s-.9-5.84-2.91-5.84C15.5,170.25,14.27,172.32,14.27,176.22Z"/><path d="M28,170.8h0l-2.49,1.34-.38-1.47L28.26,169h1.66v14.33H28Z"/><path d="M44.67,176c0,4.88-1.81,7.56-5,7.56-2.8,0-4.69-2.62-4.74-7.36s2.07-7.45,5-7.45S44.67,171.44,44.67,176Zm-7.79.22c0,3.73,1.15,5.85,2.91,5.85,2,0,2.94-2.32,2.94-6s-.91-5.84-2.91-5.84C38.12,170.25,36.88,172.32,36.88,176.22Z"/><path d="M100.46,177c0,4.87-1.81,7.56-5,7.56-2.8,0-4.7-2.62-4.74-7.36s2.07-7.45,5-7.45S100.46,172.42,100.46,177Zm-7.78.22c0,3.73,1.14,5.84,2.91,5.84,2,0,2.93-2.31,2.93-6s-.9-5.84-2.91-5.84C93.91,171.23,92.68,173.3,92.68,177.2Z"/><path d="M111.77,177c0,4.87-1.81,7.56-5,7.56-2.8,0-4.7-2.62-4.75-7.36s2.08-7.45,5-7.45S111.77,172.42,111.77,177Zm-7.78.22c0,3.73,1.14,5.84,2.91,5.84,2,0,2.93-2.31,2.93-6s-.91-5.84-2.91-5.84C105.22,171.23,104,173.3,104,177.2Z"/><path d="M117.76,171.78h0l-2.49,1.34-.38-1.48L118,170h1.66V184.3h-1.88Z"/><path d="M129.07,171.78h0l-2.49,1.34-.37-1.48,3.13-1.67h1.65V184.3h-1.87Z"/><line class="cls-1" x1="48.6" y1="259.5" x2="83.07" y2="259.5"/><polygon points="80.62 262.25 82.75 259.5 80.62 256.74 87.12 259.5 80.62 262.25"/><polygon class="cls-2" points="81.4 261.65 86.47 259.5 83.06 259.5 81.4 261.65"/><polygon class="cls-3" points="81.4 257.35 86.47 259.5 83.06 259.5 81.4 257.35"/><line class="cls-1" x1="48.6" y1="176.57" x2="83.07" y2="176.57"/><polygon points="80.62 179.32 82.75 176.57 80.62 173.82 87.12 176.57 80.62 179.32"/><polygon class="cls-2" points="81.4 178.72 86.47 176.57 83.06 176.57 81.4 178.72"/><polygon class="cls-3" points="81.4 174.42 86.47 176.57 83.06 176.57 81.4 174.42"/><line class="cls-1" x1="112.44" y1="250.09" x2="28.26" y2="187.84"/><polygon points="31.87 187.08 28.52 188.03 28.6 191.51 25 185.43 31.87 187.08"/><polygon class="cls-2" points="30.89 187.1 25.53 185.82 28.27 187.84 30.89 187.1"/><polygon class="cls-3" points="28.33 190.56 25.53 185.82 28.27 187.84 28.33 190.56"/><path d="M177.07,259.27c0,4.87-1.81,7.56-5,7.56-2.8,0-4.7-2.62-4.74-7.37s2.07-7.45,5-7.45S177.07,254.7,177.07,259.27Zm-7.78.22c0,3.72,1.15,5.84,2.91,5.84,2,0,2.93-2.32,2.93-6s-.9-5.84-2.91-5.84C170.52,253.51,169.29,255.58,169.29,259.49Z"/><path d="M183.07,254.06h0l-2.49,1.35-.37-1.48,3.13-1.68h1.65v14.34h-1.87Z"/><path d="M199.69,259.27c0,4.87-1.81,7.56-5,7.56-2.8,0-4.69-2.62-4.74-7.37S192,252,195,252,199.69,254.7,199.69,259.27Zm-7.79.22c0,3.72,1.15,5.84,2.91,5.84,2,0,2.94-2.32,2.94-6s-.91-5.84-2.91-5.84C193.14,253.51,191.9,255.58,191.9,259.49Z"/><path d="M211,259.27c0,4.87-1.8,7.56-5,7.56-2.8,0-4.7-2.62-4.74-7.37s2.07-7.45,5-7.45S211,254.7,211,259.27Zm-7.78.22c0,3.72,1.15,5.84,2.91,5.84,2,0,2.93-2.32,2.93-6s-.9-5.84-2.91-5.84C204.45,253.51,203.21,255.58,203.21,259.49Z"/><path d="M266.79,259.86c0,4.87-1.81,7.56-5,7.56-2.8,0-4.7-2.62-4.74-7.36s2.07-7.46,5-7.46S266.79,255.29,266.79,259.86Zm-7.78.22c0,3.72,1.14,5.84,2.91,5.84,2,0,2.93-2.31,2.93-6s-.91-5.85-2.91-5.85C260.24,254.1,259,256.18,259,260.08Z"/><path d="M272.78,254.65h0L270.25,256l-.38-1.48,3.13-1.67h1.66v14.33h-1.88Z"/><path d="M289.4,259.86c0,4.87-1.81,7.56-5,7.56-2.8,0-4.7-2.62-4.74-7.36s2.07-7.46,5-7.46S289.4,255.29,289.4,259.86Zm-7.78.22c0,3.72,1.15,5.84,2.91,5.84,2,0,2.93-2.31,2.93-6s-.9-5.85-2.91-5.85C282.85,254.1,281.62,256.18,281.62,260.08Z"/><path d="M295.4,254.65h0L292.86,256l-.37-1.48,3.13-1.67h1.65v14.33H295.4Z"/><path d="M177.07,176c0,4.88-1.81,7.56-5,7.56-2.8,0-4.7-2.62-4.74-7.36s2.07-7.45,5-7.45S177.07,171.44,177.07,176Zm-7.78.22c0,3.73,1.15,5.85,2.91,5.85,2,0,2.93-2.32,2.93-6s-.9-5.84-2.91-5.84C170.52,170.25,169.29,172.32,169.29,176.22Z"/><path d="M183.07,170.8h0l-2.49,1.34-.37-1.47,3.13-1.68h1.65v14.33h-1.87Z"/><path d="M194.37,170.8h0l-2.49,1.34-.38-1.47,3.13-1.68h1.66v14.33h-1.88Z"/><path d="M211,176c0,4.88-1.8,7.56-5,7.56-2.8,0-4.7-2.62-4.74-7.36s2.07-7.45,5-7.45S211,171.44,211,176Zm-7.78.22c0,3.73,1.15,5.85,2.91,5.85,2,0,2.93-2.32,2.93-6s-.9-5.84-2.91-5.84C204.45,170.25,203.21,172.32,203.21,176.22Z"/><path d="M266.79,177c0,4.87-1.81,7.56-5,7.56-2.8,0-4.7-2.62-4.74-7.36s2.07-7.45,5-7.45S266.79,172.42,266.79,177Zm-7.78.22c0,3.73,1.14,5.84,2.91,5.84,2,0,2.93-2.31,2.93-6s-.9-5.84-2.91-5.84C260.24,171.23,259,173.3,259,177.2Z"/><path d="M272.78,171.78h0l-2.49,1.34-.38-1.48L273,170h1.66V184.3h-1.88Z"/><path d="M284.09,171.78h0l-2.5,1.34-.37-1.48,3.13-1.67H286V184.3h-1.87Z"/><path d="M295.4,171.78h0l-2.49,1.34-.37-1.48,3.13-1.67h1.65V184.3H295.4Z"/><line class="cls-1" x1="214.93" y1="259.5" x2="249.4" y2="259.5"/><polygon points="246.94 262.25 249.07 259.5 246.94 256.74 253.45 259.5 246.94 262.25"/><polygon class="cls-2" points="247.72 261.65 252.8 259.5 249.39 259.5 247.72 261.65"/><polygon class="cls-3" points="247.72 257.35 252.8 259.5 249.39 259.5 247.72 257.35"/><line class="cls-1" x1="214.93" y1="176.57" x2="249.4" y2="176.57"/><polygon points="246.94 179.32 249.07 176.57 246.94 173.82 253.45 176.57 246.94 179.32"/><polygon class="cls-2" points="247.72 178.72 252.8 176.57 249.39 176.57 247.72 178.72"/><polygon class="cls-3" points="247.72 174.42 252.8 176.57 249.39 176.57 247.72 174.42"/><line class="cls-1" x1="278.77" y1="250.09" x2="194.59" y2="187.84"/><polygon points="198.2 187.08 194.85 188.03 194.93 191.51 191.33 185.43 198.2 187.08"/><polygon class="cls-2" points="197.22 187.1 191.86 185.82 194.6 187.84 197.22 187.1"/><polygon class="cls-3" points="194.66 190.56 191.86 185.82 194.6 187.84 194.66 190.56"/><line class="cls-1" x1="135.7" y1="177.71" x2="164.82" y2="242.95"/><polygon points="161.3 241.83 164.69 242.66 166.33 239.59 166.47 246.66 161.3 241.83"/><polygon class="cls-2" points="162.17 242.3 166.2 246.06 164.81 242.95 162.17 242.3"/><polygon class="cls-3" points="166.1 240.55 166.2 246.06 164.81 242.95 166.1 240.55"/><path d="M5.2,89.19h0L2.67,90.53l-.38-1.47,3.13-1.68H7.08v14.33H5.2Z"/><path d="M21.83,94.39c0,4.88-1.81,7.57-5,7.57-2.8,0-4.69-2.63-4.74-7.37s2.07-7.45,5-7.45S21.83,89.83,21.83,94.39ZM14,94.61c0,3.73,1.15,5.85,2.91,5.85,2,0,2.93-2.32,2.93-6S19,88.64,17,88.64C15.28,88.64,14,90.71,14,94.61Z"/><path d="M33.13,94.39c0,4.88-1.81,7.57-5,7.57-2.8,0-4.7-2.63-4.74-7.37s2.07-7.45,5-7.45S33.13,89.83,33.13,94.39Zm-7.78.22c0,3.73,1.15,5.85,2.91,5.85,2,0,2.93-2.32,2.93-6s-.9-5.84-2.91-5.84C26.58,88.64,25.35,90.71,25.35,94.61Z"/><path d="M44.44,94.39c0,4.88-1.81,7.57-5,7.57-2.8,0-4.7-2.63-4.74-7.37s2.07-7.45,5-7.45S44.44,89.83,44.44,94.39Zm-7.78.22c0,3.73,1.14,5.85,2.91,5.85,2,0,2.93-2.32,2.93-6s-.91-5.84-2.91-5.84C37.89,88.64,36.66,90.71,36.66,94.61Z"/><path d="M94.92,89.78h0l-2.5,1.35L92,89.65,95.14,88h1.65V102.3H94.92Z"/><path d="M111.54,95c0,4.88-1.81,7.57-5,7.57-2.8,0-4.7-2.63-4.74-7.37s2.07-7.45,5-7.45S111.54,90.42,111.54,95Zm-7.78.23c0,3.72,1.15,5.84,2.91,5.84,2,0,2.93-2.32,2.93-6s-.9-5.84-2.91-5.84C105,89.23,103.76,91.3,103.76,95.21Z"/><path d="M122.85,95c0,4.88-1.81,7.57-5,7.57-2.8,0-4.7-2.63-4.75-7.37s2.08-7.45,5-7.45S122.85,90.42,122.85,95Zm-7.78.23c0,3.72,1.14,5.84,2.91,5.84,2,0,2.93-2.32,2.93-6S120,89.23,118,89.23C116.3,89.23,115.07,91.3,115.07,95.21Z"/><path d="M128.84,89.78h0l-2.49,1.35-.38-1.48L129.06,88h1.66V102.3h-1.88Z"/><path d="M5.2,5.92h0L2.67,7.27,2.29,5.79,5.42,4.12H7.08V18.45H5.2Z"/><path d="M21.83,11.13c0,4.87-1.81,7.56-5,7.56-2.8,0-4.69-2.62-4.74-7.36s2.07-7.45,5-7.45S21.83,6.56,21.83,11.13ZM14,11.35c0,3.73,1.15,5.84,2.91,5.84,2,0,2.93-2.31,2.93-6S19,5.37,17,5.37C15.28,5.37,14,7.45,14,11.35Z"/><path d="M27.82,5.92h-.05L25.28,7.27l-.37-1.48L28,4.12h1.65V18.45H27.82Z"/><path d="M44.44,11.13c0,4.87-1.81,7.56-5,7.56-2.8,0-4.7-2.62-4.74-7.36s2.07-7.45,5-7.45S44.44,6.56,44.44,11.13Zm-7.78.22c0,3.73,1.14,5.84,2.91,5.84,2,0,2.93-2.31,2.93-6s-.91-5.85-2.91-5.85C37.89,5.37,36.66,7.45,36.66,11.35Z"/><path d="M94.92,6.9h0L92.39,8.25,92,6.77,95.14,5.1H96.8V19.43H94.92Z"/><path d="M111.54,12.11c0,4.87-1.81,7.56-5,7.56-2.8,0-4.7-2.62-4.74-7.36s2.07-7.46,5-7.46S111.54,7.54,111.54,12.11Zm-7.78.22c0,3.72,1.15,5.84,2.91,5.84,2,0,2.93-2.31,2.93-6s-.9-5.85-2.91-5.85C105,6.35,103.76,8.42,103.76,12.33Z"/><path d="M117.54,6.9h-.05L115,8.25l-.38-1.48,3.14-1.67h1.65V19.43h-1.87Z"/><path d="M128.84,6.9h0l-2.49,1.35-.38-1.48,3.13-1.67h1.66V19.43h-1.88Z"/><line class="cls-1" x1="48.38" y1="94.62" x2="82.85" y2="94.62"/><polygon points="80.39 97.38 82.52 94.62 80.39 91.87 86.9 94.62 80.39 97.38"/><polygon class="cls-2" points="81.17 96.78 86.24 94.62 82.84 94.62 81.17 96.78"/><polygon class="cls-3" points="81.17 92.47 86.24 94.62 82.84 94.62 81.17 92.47"/><line class="cls-1" x1="48.38" y1="11.7" x2="82.85" y2="11.7"/><polygon points="80.39 14.45 82.52 11.7 80.39 8.95 86.9 11.7 80.39 14.45"/><polygon class="cls-2" points="81.17 13.85 86.24 11.7 82.84 11.7 81.17 13.85"/><polygon class="cls-3" points="81.17 9.55 86.24 11.7 82.84 11.7 81.17 9.55"/><line class="cls-1" x1="112.21" y1="85.22" x2="28.03" y2="22.96"/><polygon points="31.64 22.21 28.3 23.16 28.37 26.64 24.78 20.55 31.64 22.21"/><polygon class="cls-2" points="30.66 22.23 25.3 20.95 28.04 22.97 30.66 22.23"/><polygon class="cls-3" points="28.11 25.69 25.3 20.95 28.04 22.97 28.11 25.69"/><path d="M171.53,89.19h0L169,90.53l-.38-1.47,3.13-1.68h1.66v14.33h-1.88Z"/><path d="M182.84,89.19h-.05l-2.49,1.34-.37-1.47,3.13-1.68h1.65v14.33h-1.87Z"/><path d="M199.46,94.39c0,4.88-1.81,7.57-5,7.57-2.8,0-4.7-2.63-4.74-7.37s2.07-7.45,5-7.45S199.46,89.83,199.46,94.39Zm-7.78.22c0,3.73,1.14,5.85,2.91,5.85,2,0,2.93-2.32,2.93-6s-.9-5.84-2.91-5.84C192.91,88.64,191.68,90.71,191.68,94.61Z"/><path d="M210.77,94.39c0,4.88-1.81,7.57-5,7.57-2.8,0-4.69-2.63-4.74-7.37s2.08-7.45,5-7.45S210.77,89.83,210.77,94.39Zm-7.79.22c0,3.73,1.15,5.85,2.91,5.85,2,0,2.94-2.32,2.94-6s-.91-5.84-2.91-5.84C204.22,88.64,203,90.71,203,94.61Z"/><path d="M261.25,89.78h-.05l-2.49,1.35-.37-1.48L261.47,88h1.65V102.3h-1.87Z"/><path d="M272.56,89.78h-.05L270,91.13l-.37-1.48L272.78,88h1.65V102.3h-1.87Z"/><path d="M289.18,95c0,4.88-1.81,7.57-5,7.57-2.8,0-4.69-2.63-4.74-7.37s2.08-7.45,5-7.45S289.18,90.42,289.18,95Zm-7.79.23c0,3.72,1.15,5.84,2.91,5.84,2,0,2.94-2.32,2.94-6s-.91-5.84-2.91-5.84C282.63,89.23,281.39,91.3,281.39,95.21Z"/><path d="M295.17,89.78h0l-2.5,1.35-.37-1.48L295.39,88H297V102.3h-1.87Z"/><path d="M171.53,5.92h0L169,7.27l-.38-1.48,3.13-1.67h1.66V18.45h-1.88Z"/><path d="M182.84,5.92h-.05L180.3,7.27l-.37-1.48,3.13-1.67h1.65V18.45h-1.87Z"/><path d="M194.15,5.92h-.05l-2.49,1.35-.37-1.48,3.13-1.67H196V18.45h-1.87Z"/><path d="M210.77,11.13c0,4.87-1.81,7.56-5,7.56-2.8,0-4.69-2.62-4.74-7.36s2.08-7.45,5-7.45S210.77,6.56,210.77,11.13Zm-7.79.22c0,3.73,1.15,5.84,2.91,5.84,2,0,2.94-2.31,2.94-6s-.91-5.85-2.91-5.85C204.22,5.37,203,7.45,203,11.35Z"/><path d="M261.25,6.9h0l-2.5,1.35-.37-1.48,3.13-1.67h1.65V19.43h-1.87Z"/><path d="M272.56,6.9h-.05L270,8.25l-.37-1.48,3.13-1.67h1.65V19.43h-1.87Z"/><path d="M283.86,6.9h0l-2.49,1.35L281,6.77l3.13-1.67h1.66V19.43h-1.88Z"/><path d="M295.17,6.9h0l-2.49,1.35-.38-1.48,3.13-1.67h1.66V19.43h-1.88Z"/><line class="cls-1" x1="214.71" y1="94.62" x2="249.17" y2="94.62"/><polygon points="246.72 97.38 248.85 94.62 246.72 91.87 253.23 94.62 246.72 97.38"/><polygon class="cls-2" points="247.5 96.78 252.57 94.62 249.16 94.62 247.5 96.78"/><polygon class="cls-3" points="247.5 92.47 252.57 94.62 249.16 94.62 247.5 92.47"/><line class="cls-1" x1="214.71" y1="11.7" x2="249.17" y2="11.7"/><polygon points="246.72 14.45 248.85 11.7 246.72 8.95 253.23 11.7 246.72 14.45"/><polygon class="cls-2" points="247.5 13.85 252.57 11.7 249.16 11.7 247.5 13.85"/><polygon class="cls-3" points="247.5 9.55 252.57 11.7 249.16 11.7 247.5 9.55"/><line class="cls-1" x1="278.54" y1="85.22" x2="194.36" y2="22.96"/><polygon points="197.97 22.21 194.63 23.16 194.7 26.64 191.11 20.55 197.97 22.21"/><polygon class="cls-2" points="196.99 22.23 191.63 20.95 194.37 22.97 196.99 22.23"/><polygon class="cls-3" points="194.43 25.69 191.63 20.95 194.37 22.97 194.43 25.69"/><line class="cls-1" x1="135.47" y1="12.84" x2="164.59" y2="78.08"/><polygon points="161.08 76.96 164.46 77.78 166.1 74.72 166.24 81.78 161.08 76.96"/><polygon class="cls-2" points="161.94 77.43 165.97 81.18 164.59 78.07 161.94 77.43"/><polygon class="cls-3" points="165.87 75.68 165.97 81.18 164.59 78.07 165.87 75.68"/><line class="cls-1" x1="277.96" y1="163.82" x2="53.79" y2="106.66"/><polygon points="56.84 104.6 54.1 106.74 55.48 109.93 49.86 105.66 56.84 104.6"/><polygon class="cls-2" points="55.94 104.99 50.5 105.82 53.8 106.66 55.94 104.99"/><polygon class="cls-3" points="54.88 109.16 50.5 105.82 53.8 106.66 54.88 109.16"/></svg>