<svg id="Layer_1" data-name="Layer 1" xmlns="http://www.w3.org/2000/svg" viewBox="0 0 228.16 222.96"><defs><style>.cls-1,.cls-2{fill:none;stroke:#000;stroke-miterlimit:10;}.cls-1{stroke-width:0.5px;}</style></defs><title>Morton curve visit order</title><circle cx="62.37" cy="164.93" r="4.71"/><circle cx="95.36" cy="164.36" r="4.71"/><circle cx="128.35" cy="164.08" r="4.71"/><circle cx="161.33" cy="164.65" r="4.71"/><circle cx="62.37" cy="131.95" r="4.71"/><circle cx="95.36" cy="131.38" r="4.71"/><circle cx="128.35" cy="131.09" r="4.71"/><circle cx="161.33" cy="131.66" r="4.71"/><circle cx="62.37" cy="98.96" r="4.71"/><circle cx="95.36" cy="98.39" r="4.71"/><circle cx="128.35" cy="98.1" r="4.71"/><circle cx="161.33" cy="98.68" r="4.71"/><circle cx="62.37" cy="65.97" r="4.71"/><circle cx="95.36" cy="65.4" r="4.71"/><circle cx="128.35" cy="65.12" r="4.71"/><circle cx="161.33" cy="65.69" r="4.71"/><polyline class="cls-1" points="62.37 164.94 95.36 164.36 62.37 131.95 95.36 131.38 128.34 164.08 161.33 164.65 128.34 131.09 161.33 131.66 62.37 98.96 95.36 98.39 62.37 65.97 95.36 65.4 128.34 98.1 161.33 98.67 128.34 65.12 161.33 65.69 195.18 164.51"/><polyline class="cls-2" points="29.81 0 29.81 197.49 228.16 197.49"/><path d="M67.72,210.17c0,4.85-1.8,7.54-5,7.54-2.79,0-4.68-2.62-4.73-7.35s2.07-7.43,5-7.43S67.72,205.61,67.72,210.17Zm-7.76.22c0,3.71,1.14,5.82,2.9,5.82,2,0,2.92-2.31,2.92-6s-.9-5.82-2.9-5.82C61.19,204.43,60,206.49,60,210.39Z"/><path d="M95.54,205h0L93,206.32l-.37-1.48,3.12-1.67h1.65v14.3H95.54Z"/><path d="M121.31,205h0l-2.49,1.34-.37-1.48,3.12-1.67h1.65v14.3h-1.87Z"/><path d="M137.89,210.17c0,4.85-1.8,7.54-5,7.54-2.8,0-4.69-2.62-4.73-7.35s2.06-7.43,5-7.43S137.89,205.61,137.89,210.17Zm-7.76.22c0,3.71,1.15,5.82,2.91,5.82,2,0,2.92-2.31,2.92-6s-.9-5.82-2.9-5.82C131.36,204.43,130.13,206.49,130.13,210.39Z"/><path d="M155.72,205h0l-2.49,1.34-.37-1.48,3.12-1.67h1.65v14.3h-1.87Z"/><path d="M167,205h0l-2.48,1.34-.38-1.48,3.13-1.67h1.64v14.3H167Z"/><path d="M5.19,59.94h0L2.66,61.28,2.29,59.8l3.12-1.67H7.06v14.3H5.19Z"/><path d="M16.47,59.94h0l-2.49,1.34-.37-1.48,3.12-1.67h1.65v14.3H16.47Z"/><path d="M5.19,92.92h0L2.66,94.26l-.37-1.47,3.12-1.67H7.06v14.29H5.19Z"/><path d="M21.77,98.11c0,4.86-1.8,7.54-5,7.54-2.79,0-4.68-2.61-4.72-7.34s2.06-7.43,5-7.43S21.77,93.56,21.77,98.11ZM14,98.33c0,3.72,1.14,5.83,2.9,5.83,2,0,2.93-2.31,2.93-6s-.9-5.83-2.91-5.83C15.24,92.37,14,94.44,14,98.33Z"/><path d="M10.83,125.91h0L8.3,127.25l-.37-1.47,3.12-1.67H12.7V138.4H10.83Z"/><path d="M16.13,164.09c0,4.85-1.8,7.54-5,7.54-2.79,0-4.68-2.62-4.73-7.35s2.07-7.43,5-7.43S16.13,159.53,16.13,164.09Zm-7.76.22c0,3.71,1.14,5.82,2.9,5.82,2,0,2.92-2.31,2.92-6s-.9-5.82-2.9-5.82C9.6,158.35,8.37,160.41,8.37,164.31Z"/><path d="M188.85,214.8a1.31,1.31,0,1,1,1.29,1.38A1.29,1.29,0,0,1,188.85,214.8Z"/><path d="M193.4,214.8a1.3,1.3,0,0,1,1.32-1.39,1.39,1.39,0,0,1,0,2.77A1.29,1.29,0,0,1,193.4,214.8Z"/><path d="M198,214.8a1.3,1.3,0,0,1,1.32-1.39A1.39,1.39,0,1,1,198,214.8Z"/><path d="M6.12,38.6a1.3,1.3,0,0,1,1.32-1.38,1.39,1.39,0,0,1,0,2.77A1.3,1.3,0,0,1,6.12,38.6Z"/><path d="M10.67,38.6A1.3,1.3,0,0,1,12,37.22,1.39,1.39,0,0,1,12,40,1.3,1.3,0,0,1,10.67,38.6Z"/><path d="M15.23,38.6A1.31,1.31,0,1,1,16.52,40,1.29,1.29,0,0,1,15.23,38.6Z"/></svg>