<svg id="Layer_1" data-name="Layer 1" xmlns="http://www.w3.org/2000/svg" viewBox="0 0 230 230"><defs><style>.cls-1,.cls-2{fill:none;stroke:#000;stroke-miterlimit:10;}.cls-1{stroke-width:0.5px;}.cls-3{fill:#0071bc;opacity:0.3;}</style></defs><title>Morton implications c</title><circle cx="60.59" cy="159.53" r="5.14"/><circle cx="96.59" cy="158.91" r="5.14"/><circle cx="132.58" cy="158.6" r="5.14"/><circle cx="168.57" cy="159.22" r="5.14"/><circle cx="60.59" cy="123.54" r="5.14"/><circle cx="96.59" cy="122.91" r="5.14"/><circle cx="132.58" cy="122.6" r="5.14"/><circle cx="168.57" cy="123.23" r="5.14"/><circle cx="60.59" cy="87.54" r="5.14"/><circle cx="96.59" cy="86.92" r="5.14"/><circle cx="132.58" cy="86.61" r="5.14"/><circle cx="168.57" cy="87.23" r="5.14"/><circle cx="60.59" cy="51.55" r="5.14"/><circle cx="96.59" cy="50.93" r="5.14"/><circle cx="132.58" cy="50.61" r="5.14"/><circle cx="168.57" cy="51.24" r="5.14"/><polyline class="cls-1" points="60.59 159.53 96.58 158.91 60.59 123.54 96.58 122.92 132.58 158.6 168.57 159.22 132.58 122.6 168.57 123.23 60.59 87.54 96.58 86.92 60.59 51.55 96.58 50.92 132.58 86.61 168.57 87.23 132.58 50.61 168.57 51.24"/><rect class="cls-2" x="25" y="15.92" width="180" height="180"/><rect class="cls-3" x="44.84" y="35.56" width="70.86" height="70.11"/><path d="M111.26,202.18a10.54,10.54,0,0,0-2,6.54,10.83,10.83,0,0,0,2,6.5h-1.1a10.32,10.32,0,0,1-2.1-6.5,10.55,10.55,0,0,1,2.1-6.54Z"/><path d="M118.27,213a5.2,5.2,0,0,1-2.22.45,3.69,3.69,0,0,1-3.86-4,3.93,3.93,0,0,1,4.16-4.11,4.72,4.72,0,0,1,2,.4l-.32,1.09a3.15,3.15,0,0,0-1.63-.37,2.92,2.92,0,0,0,0,5.82,4,4,0,0,0,1.73-.38Z"/><path d="M119.07,215.22a10.78,10.78,0,0,0,2-6.54,10.61,10.61,0,0,0-2-6.5h1.09a10.21,10.21,0,0,1,2.09,6.51,10.41,10.41,0,0,1-2.09,6.53Z"/></svg>