<svg id="Layer_1" data-name="Layer 1" xmlns="http://www.w3.org/2000/svg" viewBox="0 0 552.39 175.76"><defs><style>.cls-1,.cls-2{fill:none;stroke:#000;stroke-miterlimit:10;}.cls-2{stroke-dasharray:2;}</style></defs><title>Surface area split</title><rect class="cls-1" x="296.31" y="0.92" width="255.58" height="174.34"/><rect class="cls-1" x="0.5" y="0.5" width="255.58" height="174.34"/><path d="M125.87,89.3l-1.4,4.24h-1.8l4.58-13.48h2.1L134,93.54h-1.86l-1.44-4.24Zm4.42-1.36L129,84.06c-.3-.88-.5-1.68-.7-2.46h0c-.2.8-.42,1.62-.68,2.44l-1.32,3.9Z"/><rect class="cls-2" x="297.15" y="1.95" width="156.95" height="108.85"/><rect class="cls-2" x="351.15" y="93.08" width="199.14" height="81.01"/><path d="M373.35,47.72a16.86,16.86,0,0,1,3.18-.28,5.57,5.57,0,0,1,3.7,1,2.83,2.83,0,0,1,1.12,2.38,3.2,3.2,0,0,1-2.28,3v0a3.47,3.47,0,0,1,2.78,3.38,3.63,3.63,0,0,1-1.14,2.7c-.94.86-2.46,1.26-4.66,1.26a20.34,20.34,0,0,1-2.7-.16Zm1.74,5.52h1.58c1.84,0,2.92-1,2.92-2.26,0-1.58-1.2-2.2-3-2.2a7.46,7.46,0,0,0-1.54.12Zm0,6.46a9.3,9.3,0,0,0,1.46.08c1.8,0,3.46-.66,3.46-2.62s-1.58-2.6-3.48-2.6h-1.44Z"/><path d="M456.6,139.05a8.64,8.64,0,0,1-3.56.64c-3.8,0-6.66-2.4-6.66-6.82a6.71,6.71,0,0,1,7-7.08,7.23,7.23,0,0,1,3.2.6l-.42,1.42a6.34,6.34,0,0,0-2.72-.56c-3.16,0-5.26,2-5.26,5.56,0,3.3,1.9,5.42,5.18,5.42a7,7,0,0,0,2.84-.56Z"/></svg>