<?xml version="1.0" encoding="UTF-8" standalone="no"?>
<!-- Created with Inkscape (http://www.inkscape.org/) -->

<svg
   version="1.1"
   id="svg1"
   width="138.08"
   height="136.32001"
   viewBox="0 0 138.08 136.32001"
   sodipodi:docname="pha07f08.eps"
   xmlns:inkscape="http://www.inkscape.org/namespaces/inkscape"
   xmlns:sodipodi="http://sodipodi.sourceforge.net/DTD/sodipodi-0.dtd"
   xmlns="http://www.w3.org/2000/svg"
   xmlns:svg="http://www.w3.org/2000/svg">
  <defs
     id="defs1" />
  <sodipodi:namedview
     id="namedview1"
     pagecolor="#ffffff"
     bordercolor="#000000"
     borderopacity="0.25"
     inkscape:showpageshadow="2"
     inkscape:pageopacity="0.0"
     inkscape:pagecheckerboard="0"
     inkscape:deskcolor="#d1d1d1">
    <inkscape:page
       x="0"
       y="0"
       inkscape:label="1"
       id="page1"
       width="138.08"
       height="136.32001"
       margin="0"
       bleed="0" />
  </sodipodi:namedview>
  <g
     id="g1"
     inkscape:groupmode="layer"
     inkscape:label="1">
    <g
       id="group-R5">
      <path
         id="path2"
         d="M 119.59,1022.43 V 127.203 h 916.05"
         style="fill:none;stroke:#231f20;stroke-width:5;stroke-linecap:butt;stroke-linejoin:miter;stroke-miterlimit:10;stroke-dasharray:none;stroke-opacity:1"
         transform="matrix(0.13333333,0,0,-0.13333333,0,136.32)" />
      <path
         id="path3"
         d="m 2.1566062,-5.71852 c -1.3476562,0 -1.8398437,1.6054688 -1.8398437,2.9179688 0,1.4179687 0.48046875,2.90624995 1.8398437,2.90624995 1.359375,0 1.828125,-1.59374995 1.828125,-2.91796875 0,-1.3828125 -0.46875,-2.90625 -1.828125,-2.90625 z m 0,0.3046875 c 0.8085938,0 1.03125,1.3242188 1.03125,2.6015625 0,1.265625 -0.2226562,2.61328125 -1.03125,2.61328125 -0.7734375,0 -1.0429687,-1.35937495 -1.0429687,-2.61328125 0,-1.2539062 0.2226562,-2.6015625 1.0429687,-2.6015625 z M 19.810903,2.3e-4 V -0.24586375 C 18.990591,-0.3044575 18.931997,-0.37477 18.931997,-1.03102 v -4.6875 c -0.492188,0.1992188 -1.019531,0.375 -1.59375,0.46875 v 0.2109375 l 0.433594,0.011719 c 0.386718,0.023437 0.421875,0.070312 0.421875,0.5390625 v 3.457031 c 0,0.65625 -0.03516,0.7265625 -0.855469,0.78515625 V 2.3e-4 Z m 14.34082,0 V -0.24586375 C 33.331411,-0.3044575 33.272817,-0.37477 33.272817,-1.03102 v -4.6875 c -0.492187,0.1992188 -1.019531,0.375 -1.59375,0.46875 v 0.2109375 l 0.433594,0.011719 c 0.386719,0.023437 0.421875,0.070312 0.421875,0.5390625 v 3.457031 c 0,0.65625 -0.03516,0.7265625 -0.855469,0.78515625 V 2.3e-4 Z m 2.72461,-5.71875 c -1.347656,0 -1.839844,1.6054688 -1.839844,2.9179688 0,1.4179687 0.480469,2.90624995 1.839844,2.90624995 1.359375,0 1.828125,-1.59374995 1.828125,-2.91796875 0,-1.3828125 -0.46875,-2.90625 -1.828125,-2.90625 z m 0,0.3046875 c 0.808594,0 1.03125,1.3242188 1.03125,2.6015625 0,1.265625 -0.222656,2.61328125 -1.03125,2.61328125 -0.773438,0 -1.042969,-1.35937495 -1.042969,-2.61328125 0,-1.2539062 0.222656,-2.6015625 1.042969,-2.6015625 z M 50.557973,2.3e-4 V -0.24586375 C 49.737661,-0.3044575 49.679067,-0.37477 49.679067,-1.03102 v -4.6875 c -0.492187,0.1992188 -1.019531,0.375 -1.59375,0.46875 v 0.2109375 l 0.433594,0.011719 c 0.386719,0.023437 0.421875,0.070312 0.421875,0.5390625 v 3.457031 c 0,0.65625 -0.03516,0.7265625 -0.855469,0.78515625 V 2.3e-4 Z m 3.922852,0 V -0.24586375 C 53.660512,-0.3044575 53.601919,-0.37477 53.601919,-1.03102 v -4.6875 c -0.492188,0.1992188 -1.019532,0.375 -1.59375,0.46875 v 0.2109375 l 0.433593,0.011719 c 0.386719,0.023437 0.421875,0.070312 0.421875,0.5390625 v 3.457031 c 0,0.65625 -0.03516,0.7265625 -0.855468,0.78515625 V 2.3e-4 Z M -23.47523,-73.092543 v -0.246094 c -0.820312,-0.05859 -0.878906,-0.128906 -0.878906,-0.785156 v -4.6875 c -0.492187,0.199218 -1.019531,0.375 -1.59375,0.46875 v 0.210937 l 0.433594,0.01172 c 0.386719,0.02344 0.421875,0.07031 0.421875,0.539062 v 3.457032 c 0,0.65625 -0.03516,0.726562 -0.855469,0.785156 v 0.246094 z m 3.922852,0 v -0.246094 c -0.820313,-0.05859 -0.878906,-0.128906 -0.878906,-0.785156 v -4.6875 c -0.492188,0.199218 -1.019532,0.375 -1.59375,0.46875 v 0.210937 l 0.433593,0.01172 c 0.386719,0.02344 0.421875,0.07031 0.421875,0.539062 v 3.457032 c 0,0.65625 -0.03516,0.726562 -0.855468,0.785156 v 0.246094 z m -4.025391,16.49414 v -0.246094 c -0.820312,-0.05859 -0.878906,-0.128906 -0.878906,-0.785156 v -4.6875 c -0.492188,0.199219 -1.019531,0.375 -1.59375,0.46875 v 0.210938 l 0.433594,0.01172 c 0.386718,0.02344 0.421875,0.07031 0.421875,0.539063 v 3.457031 c 0,0.65625 -0.03516,0.726563 -0.855469,0.785156 v 0.246094 z m 2.72461,-5.71875 c -1.347657,0 -1.839844,1.605469 -1.839844,2.917969 0,1.417969 0.480469,2.90625 1.839844,2.90625 1.359375,0 1.828125,-1.59375 1.828125,-2.917969 0,-1.382812 -0.46875,-2.90625 -1.828125,-2.90625 z m 0,0.304688 c 0.808593,0 1.03125,1.324218 1.03125,2.601562 0,1.265625 -0.222657,2.613281 -1.03125,2.613281 -0.773438,0 -1.042969,-1.359375 -1.042969,-2.613281 0,-1.253906 0.222656,-2.601562 1.042969,-2.601562 z m 1.300781,21.908203 v -0.246094 c -0.820313,-0.05859 -0.878906,-0.128906 -0.878906,-0.785156 v -4.6875 c -0.492188,0.199219 -1.019532,0.375 -1.59375,0.46875 v 0.210937 l 0.433593,0.01172 c 0.386719,0.02344 0.421875,0.07031 0.421875,0.539063 v 3.457031 c 0,0.65625 -0.03516,0.726562 -0.855468,0.785156 v 0.246094 z m -1.300781,10.77539 c -1.347657,0 -1.839844,1.605469 -1.839844,2.917969 0,1.417969 0.480469,2.90625 1.839844,2.90625 1.359375,0 1.828125,-1.59375 1.828125,-2.917969 0,-1.382812 -0.46875,-2.90625 -1.828125,-2.90625 z m 0,0.304688 c 0.808593,0 1.03125,1.324219 1.03125,2.601562 0,1.265625 -0.222657,2.613282 -1.03125,2.613282 -0.773438,0 -1.042969,-1.359375 -1.042969,-2.613282 0,-1.253906 0.222656,-2.601562 1.042969,-2.601562 z M 65.531606,0.10569875 c 0.28125,0 0.503906,-0.19921875 0.503906,-0.515625 0,-0.29296875 -0.222656,-0.515625 -0.503906,-0.515625 -0.292969,0 -0.503906,0.22265625 -0.503906,0.515625 0,0.31640625 0.210937,0.515625 0.503906,0.515625 z m 2.050781,0 c 0.28125,0 0.503907,-0.19921875 0.503907,-0.515625 0,-0.29296875 -0.222657,-0.515625 -0.503907,-0.515625 -0.292968,0 -0.503906,0.22265625 -0.503906,0.515625 0,0.31640625 0.210938,0.515625 0.503906,0.515625 z m 2.053711,0 c 0.28125,0 0.503907,-0.19921875 0.503907,-0.515625 0,-0.29296875 -0.222657,-0.515625 -0.503907,-0.515625 -0.292968,0 -0.503906,0.22265625 -0.503906,0.515625 0,0.31640625 0.210938,0.515625 0.503906,0.515625 z M -25.233042,-89.325942 c 0.28125,0 0.503906,-0.199219 0.503906,-0.515625 0,-0.292969 -0.222656,-0.515625 -0.503906,-0.515625 -0.292969,0 -0.503906,0.222656 -0.503906,0.515625 0,0.316406 0.210937,0.515625 0.503906,0.515625 z m 2.053711,0 c 0.28125,0 0.503906,-0.199219 0.503906,-0.515625 0,-0.292969 -0.222656,-0.515625 -0.503906,-0.515625 -0.292969,0 -0.503907,0.222656 -0.503907,0.515625 0,0.316406 0.210938,0.515625 0.503907,0.515625 z m 2.050781,0 c 0.28125,0 0.503906,-0.199219 0.503906,-0.515625 0,-0.292969 -0.222656,-0.515625 -0.503906,-0.515625 -0.292969,0 -0.503906,0.222656 -0.503906,0.515625 0,0.316406 0.210937,0.515625 0.503906,0.515625 z m 0,0"
         style="fill:#231f20;fill-opacity:1;fill-rule:nonzero;stroke:none"
         aria-label="0&#10;11011&#10;11&#10;10&#10;1&#10;0&#10;...&#10;..."
         transform="matrix(1.3333333,0,0,1.3333333,36.0464,131.99969)" />
      <path
         id="path4"
         d="m 278.496,787.469 c 0,7.051 5.715,12.765 12.754,12.765 7.047,0 12.754,-5.714 12.754,-12.765 0,-7.039 -5.707,-12.754 -12.754,-12.754 -7.039,0 -12.754,5.715 -12.754,12.754"
         style="fill:#231f20;fill-opacity:1;fill-rule:nonzero;stroke:none"
         transform="matrix(0.13333333,0,0,-0.13333333,0,136.32)" />
      <path
         id="path5"
         d="m 443.313,787.469 c 0,7.051 5.71,12.765 12.75,12.765 7.042,0 12.753,-5.714 12.753,-12.765 0,-7.039 -5.711,-12.754 -12.753,-12.754 -7.04,0 -12.75,5.715 -12.75,12.754"
         style="fill:#231f20;fill-opacity:1;fill-rule:nonzero;stroke:none"
         transform="matrix(0.13333333,0,0,-0.13333333,0,136.32)" />
      <path
         id="path6"
         d="m 608.125,787.469 c 0,7.051 5.715,12.765 12.754,12.765 7.051,0 12.754,-5.714 12.754,-12.765 0,-7.039 -5.703,-12.754 -12.754,-12.754 -7.039,0 -12.754,5.715 -12.754,12.754"
         style="fill:#231f20;fill-opacity:1;fill-rule:nonzero;stroke:none"
         transform="matrix(0.13333333,0,0,-0.13333333,0,136.32)" />
      <path
         id="path7"
         d="m 772.938,787.469 c 0,7.051 5.714,12.765 12.753,12.765 7.043,0 12.766,-5.714 12.766,-12.765 0,-7.039 -5.723,-12.754 -12.766,-12.754 -7.039,0 -12.753,5.715 -12.753,12.754"
         style="fill:#231f20;fill-opacity:1;fill-rule:nonzero;stroke:none"
         transform="matrix(0.13333333,0,0,-0.13333333,0,136.32)" />
      <path
         id="path8"
         d="M 291.25,292.313 H 456.063 L 291.949,456.59 H 456.758 L 620.879,292.313 H 785.691 L 621.582,456.59 H 786.387 L 291.25,624.805 H 456.063 L 291.25,787.469 H 456.063 L 620.879,624.805 H 785.691 L 620.879,787.469 h 164.812"
         style="fill:none;stroke:#231f20;stroke-width:5;stroke-linecap:butt;stroke-linejoin:miter;stroke-miterlimit:10;stroke-dasharray:none;stroke-opacity:1"
         transform="matrix(0.13333333,0,0,-0.13333333,0,136.32)" />
      <path
         id="path9"
         d="m 278.496,624.805 c 0,7.039 5.715,12.754 12.754,12.754 7.047,0 12.754,-5.715 12.754,-12.754 0,-7.043 -5.707,-12.766 -12.754,-12.766 -7.039,0 -12.754,5.723 -12.754,12.766"
         style="fill:#231f20;fill-opacity:1;fill-rule:nonzero;stroke:none"
         transform="matrix(0.13333333,0,0,-0.13333333,0,136.32)" />
      <path
         id="path10"
         d="m 443.313,624.805 c 0,7.039 5.71,12.754 12.75,12.754 7.042,0 12.753,-5.715 12.753,-12.754 0,-7.043 -5.711,-12.766 -12.753,-12.766 -7.04,0 -12.75,5.723 -12.75,12.766"
         style="fill:#231f20;fill-opacity:1;fill-rule:nonzero;stroke:none"
         transform="matrix(0.13333333,0,0,-0.13333333,0,136.32)" />
      <path
         id="path11"
         d="m 608.125,624.805 c 0,7.039 5.715,12.754 12.754,12.754 7.051,0 12.754,-5.715 12.754,-12.754 0,-7.043 -5.703,-12.766 -12.754,-12.766 -7.039,0 -12.754,5.723 -12.754,12.766"
         style="fill:#231f20;fill-opacity:1;fill-rule:nonzero;stroke:none"
         transform="matrix(0.13333333,0,0,-0.13333333,0,136.32)" />
      <path
         id="path12"
         d="m 772.938,624.805 c 0,7.039 5.714,12.754 12.753,12.754 7.043,0 12.766,-5.715 12.766,-12.754 0,-7.043 -5.723,-12.766 -12.766,-12.766 -7.039,0 -12.753,5.723 -12.753,12.766"
         style="fill:#231f20;fill-opacity:1;fill-rule:nonzero;stroke:none"
         transform="matrix(0.13333333,0,0,-0.13333333,0,136.32)" />
      <path
         id="path13"
         d="m 279.188,456.59 c 0,7.051 5.714,12.754 12.761,12.754 7.043,0 12.758,-5.703 12.758,-12.754 0,-7.039 -5.715,-12.754 -12.758,-12.754 -7.047,0 -12.761,5.715 -12.761,12.754"
         style="fill:#231f20;fill-opacity:1;fill-rule:nonzero;stroke:none"
         transform="matrix(0.13333333,0,0,-0.13333333,0,136.32)" />
      <path
         id="path14"
         d="m 444.004,456.59 c 0,7.051 5.715,12.754 12.754,12.754 7.051,0 12.762,-5.703 12.762,-12.754 0,-7.039 -5.711,-12.754 -12.762,-12.754 -7.039,0 -12.754,5.715 -12.754,12.754"
         style="fill:#231f20;fill-opacity:1;fill-rule:nonzero;stroke:none"
         transform="matrix(0.13333333,0,0,-0.13333333,0,136.32)" />
      <path
         id="path15"
         d="m 608.828,456.59 c 0,7.051 5.703,12.754 12.754,12.754 7.039,0 12.754,-5.703 12.754,-12.754 0,-7.039 -5.715,-12.754 -12.754,-12.754 -7.051,0 -12.754,5.715 -12.754,12.754"
         style="fill:#231f20;fill-opacity:1;fill-rule:nonzero;stroke:none"
         transform="matrix(0.13333333,0,0,-0.13333333,0,136.32)" />
      <path
         id="path16"
         d="m 773.633,456.59 c 0,7.051 5.715,12.754 12.754,12.754 7.051,0 12.761,-5.703 12.761,-12.754 0,-7.039 -5.71,-12.754 -12.761,-12.754 -7.039,0 -12.754,5.715 -12.754,12.754"
         style="fill:#231f20;fill-opacity:1;fill-rule:nonzero;stroke:none"
         transform="matrix(0.13333333,0,0,-0.13333333,0,136.32)" />
      <path
         id="path17"
         d="m 278.496,292.313 c 0,7.05 5.715,12.753 12.754,12.753 7.047,0 12.754,-5.703 12.754,-12.753 0,-7.04 -5.707,-12.754 -12.754,-12.754 -7.039,0 -12.754,5.714 -12.754,12.754"
         style="fill:#231f20;fill-opacity:1;fill-rule:nonzero;stroke:none"
         transform="matrix(0.13333333,0,0,-0.13333333,0,136.32)" />
      <path
         id="path18"
         d="m 443.313,292.313 c 0,7.05 5.71,12.753 12.75,12.753 7.042,0 12.753,-5.703 12.753,-12.753 0,-7.04 -5.711,-12.754 -12.753,-12.754 -7.04,0 -12.75,5.714 -12.75,12.754"
         style="fill:#231f20;fill-opacity:1;fill-rule:nonzero;stroke:none"
         transform="matrix(0.13333333,0,0,-0.13333333,0,136.32)" />
      <path
         id="path19"
         d="m 608.125,292.313 c 0,7.05 5.715,12.753 12.754,12.753 7.051,0 12.754,-5.703 12.754,-12.753 0,-7.04 -5.703,-12.754 -12.754,-12.754 -7.039,0 -12.754,5.714 -12.754,12.754"
         style="fill:#231f20;fill-opacity:1;fill-rule:nonzero;stroke:none"
         transform="matrix(0.13333333,0,0,-0.13333333,0,136.32)" />
      <path
         id="path20"
         d="m 772.938,292.313 c 0,7.05 5.714,12.753 12.753,12.753 7.043,0 12.766,-5.703 12.766,-12.753 0,-7.04 -5.723,-12.754 -12.766,-12.754 -7.039,0 -12.753,5.714 -12.753,12.754"
         style="fill:#231f20;fill-opacity:1;fill-rule:nonzero;stroke:none"
         transform="matrix(0.13333333,0,0,-0.13333333,0,136.32)" />
      <path
         id="path21"
         d="M 785.691,787.469 946.121,292.313"
         style="fill:none;stroke:#231f20;stroke-width:7.5;stroke-linecap:butt;stroke-linejoin:miter;stroke-miterlimit:10;stroke-dasharray:none;stroke-opacity:1"
         transform="matrix(0.13333333,0,0,-0.13333333,0,136.32)" />
    </g>
  </g>
</svg>
