<?xml version="1.0" encoding="UTF-8" standalone="no"?>
<!-- Created with Inkscape (http://www.inkscape.org/) -->

<svg
   version="1.1"
   id="svg1"
   width="297.93332"
   height="471.57333"
   viewBox="0 0 297.93332 471.57333"
   sodipodi:docname="pha07f05.eps"
   xmlns:inkscape="http://www.inkscape.org/namespaces/inkscape"
   xmlns:sodipodi="http://sodipodi.sourceforge.net/DTD/sodipodi-0.dtd"
   xmlns="http://www.w3.org/2000/svg"
   xmlns:svg="http://www.w3.org/2000/svg">
  <defs
     id="defs1" />
  <sodipodi:namedview
     id="namedview1"
     pagecolor="#ffffff"
     bordercolor="#000000"
     borderopacity="0.25"
     inkscape:showpageshadow="2"
     inkscape:pageopacity="0.0"
     inkscape:pagecheckerboard="0"
     inkscape:deskcolor="#d1d1d1">
    <inkscape:page
       x="0"
       y="0"
       inkscape:label="1"
       id="page1"
       width="297.93332"
       height="471.57333"
       margin="0"
       bleed="0" />
  </sodipodi:namedview>
  <g
     id="g1"
     inkscape:groupmode="layer"
     inkscape:label="1">
    <g
       id="group-R5">
      <path
         id="path2"
         d="m 1941.77,2797.02 h -138.53 v 83.38 h 138.53 z"
         style="fill:none;stroke:#231f20;stroke-width:5;stroke-linecap:butt;stroke-linejoin:miter;stroke-miterlimit:10;stroke-dasharray:none;stroke-opacity:1"
         transform="matrix(0.13333333,0,0,-0.13333333,0,471.57333)" />
      <path
         id="path3"
         d="m 1855.32,2839.3 c 0,11.05 8.96,20 20,20 11.05,0 20,-8.95 20,-20 0,-11.04 -8.95,-20 -20,-20 -11.04,0 -20,8.96 -20,20"
         style="fill:#231f20;fill-opacity:1;fill-rule:nonzero;stroke:none"
         transform="matrix(0.13333333,0,0,-0.13333333,0,471.57333)" />
      <path
         id="path4"
         d="m 1779.78,2729.05 h -595.84 v 135 h 595.84 z"
         style="fill:none;stroke:#231f20;stroke-width:5;stroke-linecap:butt;stroke-linejoin:miter;stroke-miterlimit:10;stroke-dasharray:none;stroke-opacity:1"
         transform="matrix(0.13333333,0,0,-0.13333333,0,471.57333)" />
      <path
         id="path5"
         d="m 1464.68,2797.14 c 0,11.05 8.95,20 20,20 11.04,0 20,-8.95 20,-20 0,-11.04 -8.96,-20 -20,-20 -11.05,0 -20,8.96 -20,20"
         style="fill:#231f20;fill-opacity:1;fill-rule:nonzero;stroke:none"
         transform="matrix(0.13333333,0,0,-0.13333333,0,471.57333)" />
      <path
         id="path6"
         d="m 1780.38,2935.2 h -517.23 v 347.46 h 517.23 z"
         style="fill:none;stroke:#231f20;stroke-width:5;stroke-linecap:butt;stroke-linejoin:miter;stroke-miterlimit:10;stroke-dasharray:none;stroke-opacity:1"
         transform="matrix(0.13333333,0,0,-0.13333333,0,471.57333)" />
      <path
         id="path7"
         d="m 1499.91,3109.11 c 0,11.05 8.96,20 20,20 11.05,0 20,-8.95 20,-20 0,-11.04 -8.95,-20 -20,-20 -11.04,0 -20,8.96 -20,20"
         style="fill:#231f20;fill-opacity:1;fill-rule:nonzero;stroke:none"
         transform="matrix(0.13333333,0,0,-0.13333333,0,471.57333)" />
      <path
         id="path8"
         d="m 870.652,2955.99 h -372.5 v 364.05 h 372.5 z"
         style="fill:none;stroke:#231f20;stroke-width:5;stroke-linecap:butt;stroke-linejoin:miter;stroke-miterlimit:10;stroke-dasharray:none;stroke-opacity:1"
         transform="matrix(0.13333333,0,0,-0.13333333,0,471.57333)" />
      <path
         id="path9"
         d="m 667.219,3138.61 c 0,11.05 8.957,20 20,20 11.043,0 20,-8.95 20,-20 0,-11.04 -8.957,-20 -20,-20 -11.043,0 -20,8.96 -20,20"
         style="fill:#231f20;fill-opacity:1;fill-rule:nonzero;stroke:none"
         transform="matrix(0.13333333,0,0,-0.13333333,0,471.57333)" />
      <path
         id="path10"
         d="m 615.438,2767.27 h -372.5 v 135 h 372.5 z"
         style="fill:none;stroke:#231f20;stroke-width:5;stroke-linecap:butt;stroke-linejoin:miter;stroke-miterlimit:10;stroke-dasharray:none;stroke-opacity:1"
         transform="matrix(0.13333333,0,0,-0.13333333,0,471.57333)" />
      <path
         id="path11"
         d="m 412.012,2835.37 c 0,11.04 8.957,20 20,20 11.039,0 20,-8.96 20,-20 0,-11.05 -8.961,-20 -20,-20 -11.043,0 -20,8.95 -20,20"
         style="fill:#231f20;fill-opacity:1;fill-rule:nonzero;stroke:none"
         transform="matrix(0.13333333,0,0,-0.13333333,0,471.57333)" />
      <path
         id="path12"
         d="M 206.648,2476.86 H 2232.33"
         style="fill:none;stroke:#231f20;stroke-width:5;stroke-linecap:butt;stroke-linejoin:miter;stroke-miterlimit:10;stroke-dasharray:none;stroke-opacity:1"
         transform="matrix(0.13333333,0,0,-0.13333333,0,471.57333)" />
      <path
         id="path13"
         d="m 431.633,2835.99 v -12.5"
         style="fill:none;stroke:#231f20;stroke-width:5;stroke-linecap:butt;stroke-linejoin:miter;stroke-miterlimit:10;stroke-dasharray:none;stroke-opacity:1"
         transform="matrix(0.13333333,0,0,-0.13333333,0,471.57333)" />
      <path
         id="path14"
         d="M 431.633,2808.5 V 2496.11"
         style="fill:none;stroke:#231f20;stroke-width:5;stroke-linecap:butt;stroke-linejoin:miter;stroke-miterlimit:10;stroke-dasharray:24.9909, 14.9945;stroke-dashoffset:0;stroke-opacity:1"
         transform="matrix(0.13333333,0,0,-0.13333333,0,471.57333)" />
      <path
         id="path15"
         d="m 431.633,2488.62 v -12.5"
         style="fill:none;stroke:#231f20;stroke-width:5;stroke-linecap:butt;stroke-linejoin:miter;stroke-miterlimit:10;stroke-dasharray:none;stroke-opacity:1"
         transform="matrix(0.13333333,0,0,-0.13333333,0,471.57333)" />
      <path
         id="path16"
         d="m 1874.42,2844.27 v -12.5"
         style="fill:none;stroke:#231f20;stroke-width:5;stroke-linecap:butt;stroke-linejoin:miter;stroke-miterlimit:10;stroke-dasharray:none;stroke-opacity:1"
         transform="matrix(0.13333333,0,0,-0.13333333,0,471.57333)" />
      <path
         id="path17"
         d="M 1874.42,2816.5 V 2498.4"
         style="fill:none;stroke:#231f20;stroke-width:5;stroke-linecap:butt;stroke-linejoin:miter;stroke-miterlimit:10;stroke-dasharray:25.4486, 15.2691;stroke-dashoffset:0;stroke-opacity:1"
         transform="matrix(0.13333333,0,0,-0.13333333,0,471.57333)" />
      <path
         id="path18"
         d="m 1874.42,2490.76 v -12.5"
         style="fill:none;stroke:#231f20;stroke-width:5;stroke-linecap:butt;stroke-linejoin:miter;stroke-miterlimit:10;stroke-dasharray:none;stroke-opacity:1"
         transform="matrix(0.13333333,0,0,-0.13333333,0,471.57333)" />
      <path
         id="path19"
         d="M 1152.42,2480.88 V 3536.8"
         style="fill:none;stroke:#231f20;stroke-width:15;stroke-linecap:butt;stroke-linejoin:miter;stroke-miterlimit:10;stroke-dasharray:none;stroke-opacity:1"
         transform="matrix(0.13333333,0,0,-0.13333333,0,471.57333)" />
      <path
         id="path20"
         d="m 878.293,3317.18 v 12.5 h -12.5"
         style="fill:none;stroke:#231f20;stroke-width:5;stroke-linecap:butt;stroke-linejoin:miter;stroke-miterlimit:10;stroke-dasharray:none;stroke-opacity:1"
         transform="matrix(0.13333333,0,0,-0.13333333,0,471.57333)" />
      <path
         id="path21"
         d="M 850.699,3329.68 H 254.625"
         style="fill:none;stroke:#231f20;stroke-width:5;stroke-linecap:butt;stroke-linejoin:miter;stroke-miterlimit:10;stroke-dasharray:25.1509, 15.0905;stroke-dashoffset:0;stroke-opacity:1"
         transform="matrix(0.13333333,0,0,-0.13333333,0,471.57333)" />
      <path
         id="path22"
         d="m 247.078,3329.68 h -12.5 v -12.5"
         style="fill:none;stroke:#231f20;stroke-width:5;stroke-linecap:butt;stroke-linejoin:miter;stroke-miterlimit:10;stroke-dasharray:none;stroke-opacity:1"
         transform="matrix(0.13333333,0,0,-0.13333333,0,471.57333)" />
      <path
         id="path23"
         d="M 234.578,3301.89 V 2779.53"
         style="fill:none;stroke:#231f20;stroke-width:5;stroke-linecap:butt;stroke-linejoin:miter;stroke-miterlimit:10;stroke-dasharray:25.481, 15.2886;stroke-dashoffset:0;stroke-opacity:1"
         transform="matrix(0.13333333,0,0,-0.13333333,0,471.57333)" />
      <path
         id="path24"
         d="m 234.578,2771.88 v -12.5 h 12.5"
         style="fill:none;stroke:#231f20;stroke-width:5;stroke-linecap:butt;stroke-linejoin:miter;stroke-miterlimit:10;stroke-dasharray:none;stroke-opacity:1"
         transform="matrix(0.13333333,0,0,-0.13333333,0,471.57333)" />
      <path
         id="path25"
         d="M 262.172,2759.38 H 858.246"
         style="fill:none;stroke:#231f20;stroke-width:5;stroke-linecap:butt;stroke-linejoin:miter;stroke-miterlimit:10;stroke-dasharray:25.1509, 15.0905;stroke-dashoffset:0;stroke-opacity:1"
         transform="matrix(0.13333333,0,0,-0.13333333,0,471.57333)" />
      <path
         id="path26"
         d="m 865.793,2759.38 h 12.5 v 12.5"
         style="fill:none;stroke:#231f20;stroke-width:5;stroke-linecap:butt;stroke-linejoin:miter;stroke-miterlimit:10;stroke-dasharray:none;stroke-opacity:1"
         transform="matrix(0.13333333,0,0,-0.13333333,0,471.57333)" />
      <path
         id="path27"
         d="m 878.293,2787.17 v 522.36"
         style="fill:none;stroke:#231f20;stroke-width:5;stroke-linecap:butt;stroke-linejoin:miter;stroke-miterlimit:10;stroke-dasharray:25.481, 15.2886;stroke-dashoffset:0;stroke-opacity:1"
         transform="matrix(0.13333333,0,0,-0.13333333,0,471.57333)" />
      <path
         id="path28"
         d="m 1948.43,3280.62 v 12.5 h -12.5"
         style="fill:none;stroke:#231f20;stroke-width:5;stroke-linecap:butt;stroke-linejoin:miter;stroke-miterlimit:10;stroke-dasharray:none;stroke-opacity:1"
         transform="matrix(0.13333333,0,0,-0.13333333,0,471.57333)" />
      <path
         id="path29"
         d="M 1920.69,3293.12 H 1197.02"
         style="fill:none;stroke:#231f20;stroke-width:5;stroke-linecap:butt;stroke-linejoin:miter;stroke-miterlimit:10;stroke-dasharray:25.392, 15.2352;stroke-dashoffset:0;stroke-opacity:1"
         transform="matrix(0.13333333,0,0,-0.13333333,0,471.57333)" />
      <path
         id="path30"
         d="m 1189.4,3293.12 h -12.5 v -12.5"
         style="fill:none;stroke:#231f20;stroke-width:5;stroke-linecap:butt;stroke-linejoin:miter;stroke-miterlimit:10;stroke-dasharray:none;stroke-opacity:1"
         transform="matrix(0.13333333,0,0,-0.13333333,0,471.57333)" />
      <path
         id="path31"
         d="M 1176.9,3265.29 V 2741.28"
         style="fill:none;stroke:#231f20;stroke-width:5;stroke-linecap:butt;stroke-linejoin:miter;stroke-miterlimit:10;stroke-dasharray:25.5613, 15.3368;stroke-dashoffset:0;stroke-opacity:1"
         transform="matrix(0.13333333,0,0,-0.13333333,0,471.57333)" />
      <path
         id="path32"
         d="m 1176.9,2733.61 v -12.5 h 12.5"
         style="fill:none;stroke:#231f20;stroke-width:5;stroke-linecap:butt;stroke-linejoin:miter;stroke-miterlimit:10;stroke-dasharray:none;stroke-opacity:1"
         transform="matrix(0.13333333,0,0,-0.13333333,0,471.57333)" />
      <path
         id="path33"
         d="m 1204.64,2721.11 h 723.67"
         style="fill:none;stroke:#231f20;stroke-width:5;stroke-linecap:butt;stroke-linejoin:miter;stroke-miterlimit:10;stroke-dasharray:25.392, 15.2352;stroke-dashoffset:0;stroke-opacity:1"
         transform="matrix(0.13333333,0,0,-0.13333333,0,471.57333)" />
      <path
         id="path34"
         d="m 1935.93,2721.11 h 12.5 v 12.5"
         style="fill:none;stroke:#231f20;stroke-width:5;stroke-linecap:butt;stroke-linejoin:miter;stroke-miterlimit:10;stroke-dasharray:none;stroke-opacity:1"
         transform="matrix(0.13333333,0,0,-0.13333333,0,471.57333)" />
      <path
         id="path35"
         d="m 1948.43,2748.95 v 524.01"
         style="fill:none;stroke:#231f20;stroke-width:5;stroke-linecap:butt;stroke-linejoin:miter;stroke-miterlimit:10;stroke-dasharray:25.5613, 15.3368;stroke-dashoffset:0;stroke-opacity:1"
         transform="matrix(0.13333333,0,0,-0.13333333,0,471.57333)" />
      <path
         id="path36"
         d="m 1940.56,1561.97 h -138.53 v 83.38 h 138.53 z"
         style="fill:none;stroke:#231f20;stroke-width:5;stroke-linecap:butt;stroke-linejoin:miter;stroke-miterlimit:10;stroke-dasharray:none;stroke-opacity:1"
         transform="matrix(0.13333333,0,0,-0.13333333,0,471.57333)" />
      <path
         id="path37"
         d="m 1854.11,1604.26 c 0,11.04 8.96,20 20,20 11.05,0 20,-8.96 20,-20 0,-11.05 -8.95,-20 -20,-20 -11.04,0 -20,8.95 -20,20"
         style="fill:#231f20;fill-opacity:1;fill-rule:nonzero;stroke:none"
         transform="matrix(0.13333333,0,0,-0.13333333,0,471.57333)" />
      <path
         id="path38"
         d="m 1779.17,1700.14 h -720.74 v 484.2 h 720.74 z"
         style="fill:none;stroke:#231f20;stroke-width:5;stroke-linecap:butt;stroke-linejoin:miter;stroke-miterlimit:10;stroke-dasharray:none;stroke-opacity:1"
         transform="matrix(0.13333333,0,0,-0.13333333,0,471.57333)" />
      <path
         id="path39"
         d="m 1400.17,1943.54 c 0,11.04 8.96,20 20,20 11.04,0 20,-8.96 20,-20 0,-11.05 -8.96,-20 -20,-20 -11.04,0 -20,8.95 -20,20"
         style="fill:#231f20;fill-opacity:1;fill-rule:nonzero;stroke:none"
         transform="matrix(0.13333333,0,0,-0.13333333,0,471.57333)" />
      <path
         id="path40"
         d="M 613.66,1813.88 H 336.262 v 271.11 H 613.66 Z"
         style="fill:none;stroke:#231f20;stroke-width:5;stroke-linecap:butt;stroke-linejoin:miter;stroke-miterlimit:10;stroke-dasharray:none;stroke-opacity:1"
         transform="matrix(0.13333333,0,0,-0.13333333,0,471.57333)" />
      <path
         id="path41"
         d="m 456.316,1949.6 c 0,11.04 8.957,20 20,20 11.043,0 20,-8.96 20,-20 0,-11.05 -8.957,-20 -20,-20 -11.043,0 -20,8.95 -20,20"
         style="fill:#231f20;fill-opacity:1;fill-rule:nonzero;stroke:none"
         transform="matrix(0.13333333,0,0,-0.13333333,0,471.57333)" />
      <path
         id="path42"
         d="m 614.23,1532.22 h -372.5 v 135 h 372.5 z"
         style="fill:none;stroke:#231f20;stroke-width:5;stroke-linecap:butt;stroke-linejoin:miter;stroke-miterlimit:10;stroke-dasharray:none;stroke-opacity:1"
         transform="matrix(0.13333333,0,0,-0.13333333,0,471.57333)" />
      <path
         id="path43"
         d="m 410.801,1600.32 c 0,11.05 8.957,20 20,20 11.047,0 20,-8.95 20,-20 0,-11.04 -8.953,-20 -20,-20 -11.043,0 -20,8.96 -20,20"
         style="fill:#231f20;fill-opacity:1;fill-rule:nonzero;stroke:none"
         transform="matrix(0.13333333,0,0,-0.13333333,0,471.57333)" />
      <path
         id="path44"
         d="M 206.594,1241.81 H 2234.5"
         style="fill:none;stroke:#231f20;stroke-width:5;stroke-linecap:butt;stroke-linejoin:miter;stroke-miterlimit:10;stroke-dasharray:none;stroke-opacity:1"
         transform="matrix(0.13333333,0,0,-0.13333333,0,471.57333)" />
      <path
         id="path45"
         d="m 430.422,1600.94 v -12.5"
         style="fill:none;stroke:#231f20;stroke-width:5;stroke-linecap:butt;stroke-linejoin:miter;stroke-miterlimit:10;stroke-dasharray:none;stroke-opacity:1"
         transform="matrix(0.13333333,0,0,-0.13333333,0,471.57333)" />
      <path
         id="path46"
         d="M 430.422,1573.45 V 1261.06"
         style="fill:none;stroke:#231f20;stroke-width:5;stroke-linecap:butt;stroke-linejoin:miter;stroke-miterlimit:10;stroke-dasharray:24.9905, 14.9943;stroke-dashoffset:0;stroke-opacity:1"
         transform="matrix(0.13333333,0,0,-0.13333333,0,471.57333)" />
      <path
         id="path47"
         d="m 430.422,1253.57 v -12.5"
         style="fill:none;stroke:#231f20;stroke-width:5;stroke-linecap:butt;stroke-linejoin:miter;stroke-miterlimit:10;stroke-dasharray:none;stroke-opacity:1"
         transform="matrix(0.13333333,0,0,-0.13333333,0,471.57333)" />
      <path
         id="path48"
         d="m 1873.21,1609.22 v -12.5"
         style="fill:none;stroke:#231f20;stroke-width:5;stroke-linecap:butt;stroke-linejoin:miter;stroke-miterlimit:10;stroke-dasharray:none;stroke-opacity:1"
         transform="matrix(0.13333333,0,0,-0.13333333,0,471.57333)" />
      <path
         id="path49"
         d="m 1873.21,1581.45 v -318.1"
         style="fill:none;stroke:#231f20;stroke-width:5;stroke-linecap:butt;stroke-linejoin:miter;stroke-miterlimit:10;stroke-dasharray:25.4482, 15.2689;stroke-dashoffset:0;stroke-opacity:1"
         transform="matrix(0.13333333,0,0,-0.13333333,0,471.57333)" />
      <path
         id="path50"
         d="m 1873.21,1255.71 v -12.5"
         style="fill:none;stroke:#231f20;stroke-width:5;stroke-linecap:butt;stroke-linejoin:miter;stroke-miterlimit:10;stroke-dasharray:none;stroke-opacity:1"
         transform="matrix(0.13333333,0,0,-0.13333333,0,471.57333)" />
      <path
         id="path51"
         d="M 1151.21,1245.83 V 2301.75"
         style="fill:none;stroke:#231f20;stroke-width:15;stroke-linecap:butt;stroke-linejoin:miter;stroke-miterlimit:10;stroke-dasharray:none;stroke-opacity:1"
         transform="matrix(0.13333333,0,0,-0.13333333,0,471.57333)" />
      <path
         id="path52"
         d="m 1190.12,2082.13 v 12.5 h -12.5"
         style="fill:none;stroke:#231f20;stroke-width:5;stroke-linecap:butt;stroke-linejoin:miter;stroke-miterlimit:10;stroke-dasharray:none;stroke-opacity:1"
         transform="matrix(0.13333333,0,0,-0.13333333,0,471.57333)" />
      <path
         id="path53"
         d="M 1162.67,2094.63 H 253.344"
         style="fill:none;stroke:#231f20;stroke-width:5;stroke-linecap:butt;stroke-linejoin:miter;stroke-miterlimit:10;stroke-dasharray:24.913, 14.9478;stroke-dashoffset:0;stroke-opacity:1"
         transform="matrix(0.13333333,0,0,-0.13333333,0,471.57333)" />
      <path
         id="path54"
         d="m 245.867,2094.63 h -12.5 v -12.5"
         style="fill:none;stroke:#231f20;stroke-width:5;stroke-linecap:butt;stroke-linejoin:miter;stroke-miterlimit:10;stroke-dasharray:none;stroke-opacity:1"
         transform="matrix(0.13333333,0,0,-0.13333333,0,471.57333)" />
      <path
         id="path55"
         d="M 233.367,2067.55 V 1413.87"
         style="fill:none;stroke:#231f20;stroke-width:5;stroke-linecap:butt;stroke-linejoin:miter;stroke-miterlimit:10;stroke-dasharray:24.3002, 14.5801;stroke-dashoffset:0;stroke-opacity:1"
         transform="matrix(0.13333333,0,0,-0.13333333,0,471.57333)" />
      <path
         id="path56"
         d="m 233.367,1406.58 v -12.5 h 12.5"
         style="fill:none;stroke:#231f20;stroke-width:5;stroke-linecap:butt;stroke-linejoin:miter;stroke-miterlimit:10;stroke-dasharray:none;stroke-opacity:1"
         transform="matrix(0.13333333,0,0,-0.13333333,0,471.57333)" />
      <path
         id="path57"
         d="M 260.816,1394.08 H 1170.15"
         style="fill:none;stroke:#231f20;stroke-width:5;stroke-linecap:butt;stroke-linejoin:miter;stroke-miterlimit:10;stroke-dasharray:24.913, 14.9478;stroke-dashoffset:0;stroke-opacity:1"
         transform="matrix(0.13333333,0,0,-0.13333333,0,471.57333)" />
      <path
         id="path58"
         d="m 1177.62,1394.08 h 12.5 v 12.5"
         style="fill:none;stroke:#231f20;stroke-width:5;stroke-linecap:butt;stroke-linejoin:miter;stroke-miterlimit:10;stroke-dasharray:none;stroke-opacity:1"
         transform="matrix(0.13333333,0,0,-0.13333333,0,471.57333)" />
      <path
         id="path59"
         d="m 1190.12,1421.16 v 653.68"
         style="fill:none;stroke:#231f20;stroke-width:5;stroke-linecap:butt;stroke-linejoin:miter;stroke-miterlimit:10;stroke-dasharray:24.3002, 14.5801;stroke-dashoffset:0;stroke-opacity:1"
         transform="matrix(0.13333333,0,0,-0.13333333,0,471.57333)" />
      <path
         id="path60"
         d="m 1183.91,1402.68 h -138.53 v 83.37 h 138.53 z"
         style="fill:none;stroke:#231f20;stroke-width:5;stroke-linecap:butt;stroke-linejoin:miter;stroke-miterlimit:10;stroke-dasharray:none;stroke-opacity:1"
         transform="matrix(0.13333333,0,0,-0.13333333,0,471.57333)" />
      <path
         id="path61"
         d="m 1097.47,1444.96 c 0,11.04 8.96,20 20,20 11.05,0 20,-8.96 20,-20 0,-11.05 -8.95,-20 -20,-20 -11.04,0 -20,8.95 -20,20"
         style="fill:#231f20;fill-opacity:1;fill-rule:nonzero;stroke:none"
         transform="matrix(0.13333333,0,0,-0.13333333,0,471.57333)" />
      <path
         id="path62"
         d="m 1948.74,1567.73 v -12.5 h -12.5"
         style="fill:none;stroke:#231f20;stroke-width:5;stroke-linecap:butt;stroke-linejoin:miter;stroke-miterlimit:10;stroke-dasharray:none;stroke-opacity:1"
         transform="matrix(0.13333333,0,0,-0.13333333,0,471.57333)" />
      <path
         id="path63"
         d="M 1920.94,1555.23 H 1071.43"
         style="fill:none;stroke:#231f20;stroke-width:5;stroke-linecap:butt;stroke-linejoin:miter;stroke-miterlimit:10;stroke-dasharray:25.5106, 15.3063;stroke-dashoffset:0;stroke-opacity:1"
         transform="matrix(0.13333333,0,0,-0.13333333,0,471.57333)" />
      <path
         id="path64"
         d="m 1063.78,1555.23 h -12.5 v 12.5"
         style="fill:none;stroke:#231f20;stroke-width:5;stroke-linecap:butt;stroke-linejoin:miter;stroke-miterlimit:10;stroke-dasharray:none;stroke-opacity:1"
         transform="matrix(0.13333333,0,0,-0.13333333,0,471.57333)" />
      <path
         id="path65"
         d="m 1051.28,1582.67 v 590.21"
         style="fill:none;stroke:#231f20;stroke-width:5;stroke-linecap:butt;stroke-linejoin:miter;stroke-miterlimit:10;stroke-dasharray:24.9031, 14.9419;stroke-dashoffset:0;stroke-opacity:1"
         transform="matrix(0.13333333,0,0,-0.13333333,0,471.57333)" />
      <path
         id="path66"
         d="m 1051.28,2180.35 v 12.5 h 12.5"
         style="fill:none;stroke:#231f20;stroke-width:5;stroke-linecap:butt;stroke-linejoin:miter;stroke-miterlimit:10;stroke-dasharray:none;stroke-opacity:1"
         transform="matrix(0.13333333,0,0,-0.13333333,0,471.57333)" />
      <path
         id="path67"
         d="m 1079.09,2192.85 h 849.49"
         style="fill:none;stroke:#231f20;stroke-width:5;stroke-linecap:butt;stroke-linejoin:miter;stroke-miterlimit:10;stroke-dasharray:25.5106, 15.3063;stroke-dashoffset:0;stroke-opacity:1"
         transform="matrix(0.13333333,0,0,-0.13333333,0,471.57333)" />
      <path
         id="path68"
         d="m 1936.24,2192.85 h 12.5 v -12.5"
         style="fill:none;stroke:#231f20;stroke-width:5;stroke-linecap:butt;stroke-linejoin:miter;stroke-miterlimit:10;stroke-dasharray:none;stroke-opacity:1"
         transform="matrix(0.13333333,0,0,-0.13333333,0,471.57333)" />
      <path
         id="path69"
         d="M 1948.74,2165.41 V 1575.2"
         style="fill:none;stroke:#231f20;stroke-width:5;stroke-linecap:butt;stroke-linejoin:miter;stroke-miterlimit:10;stroke-dasharray:24.9031, 14.9419;stroke-dashoffset:0;stroke-opacity:1"
         transform="matrix(0.13333333,0,0,-0.13333333,0,471.57333)" />
      <path
         id="path70"
         d="m 1942.86,322.648 h -138.52 v 83.383 h 138.52 z"
         style="fill:none;stroke:#231f20;stroke-width:5;stroke-linecap:butt;stroke-linejoin:miter;stroke-miterlimit:10;stroke-dasharray:none;stroke-opacity:1"
         transform="matrix(0.13333333,0,0,-0.13333333,0,471.57333)" />
      <path
         id="path71"
         d="m 1856.42,364.941 c 0,11.039 8.95,20 20,20 11.04,0 20,-8.961 20,-20 0,-11.05 -8.96,-20 -20,-20 -11.05,0 -20,8.95 -20,20"
         style="fill:#231f20;fill-opacity:1;fill-rule:nonzero;stroke:none"
         transform="matrix(0.13333333,0,0,-0.13333333,0,471.57333)" />
      <path
         id="path72"
         d="M 1781.47,460.832 H 1060.73 V 945.02 h 720.74 z"
         style="fill:none;stroke:#231f20;stroke-width:5;stroke-linecap:butt;stroke-linejoin:miter;stroke-miterlimit:10;stroke-dasharray:none;stroke-opacity:1"
         transform="matrix(0.13333333,0,0,-0.13333333,0,471.57333)" />
      <path
         id="path73"
         d="m 1402.47,704.219 c 0,11.043 8.96,20 20,20 11.05,0 20,-8.957 20,-20 0,-11.039 -8.95,-20 -20,-20 -11.04,0 -20,8.961 -20,20"
         style="fill:#231f20;fill-opacity:1;fill-rule:nonzero;stroke:none"
         transform="matrix(0.13333333,0,0,-0.13333333,0,471.57333)" />
      <path
         id="path74"
         d="M 615.969,574.559 H 338.563 v 271.109 h 277.406 z"
         style="fill:none;stroke:#231f20;stroke-width:5;stroke-linecap:butt;stroke-linejoin:miter;stroke-miterlimit:10;stroke-dasharray:none;stroke-opacity:1"
         transform="matrix(0.13333333,0,0,-0.13333333,0,471.57333)" />
      <path
         id="path75"
         d="m 458.613,710.281 c 0,11.047 8.961,20 20,20 11.043,0 20,-8.953 20,-20 0,-11.043 -8.957,-20 -20,-20 -11.039,0 -20,8.957 -20,20"
         style="fill:#231f20;fill-opacity:1;fill-rule:nonzero;stroke:none"
         transform="matrix(0.13333333,0,0,-0.13333333,0,471.57333)" />
      <path
         id="path76"
         d="m 616.531,292.91 h -372.5 v 135 h 372.5 z"
         style="fill:none;stroke:#231f20;stroke-width:5;stroke-linecap:butt;stroke-linejoin:miter;stroke-miterlimit:10;stroke-dasharray:none;stroke-opacity:1"
         transform="matrix(0.13333333,0,0,-0.13333333,0,471.57333)" />
      <path
         id="path77"
         d="m 413.105,361.012 c 0,11.039 8.958,19.988 20,19.988 11.04,0 20,-8.949 20,-19.988 0,-11.043 -8.96,-20 -20,-20 -11.042,0 -20,8.957 -20,20"
         style="fill:#231f20;fill-opacity:1;fill-rule:nonzero;stroke:none"
         transform="matrix(0.13333333,0,0,-0.13333333,0,471.57333)" />
      <path
         id="path78"
         d="M 211.863,2.5 H 2233.76"
         style="fill:none;stroke:#231f20;stroke-width:5;stroke-linecap:butt;stroke-linejoin:miter;stroke-miterlimit:10;stroke-dasharray:none;stroke-opacity:1"
         transform="matrix(0.13333333,0,0,-0.13333333,0,471.57333)" />
      <path
         id="path79"
         d="m 432.727,361.621 v -12.5"
         style="fill:none;stroke:#231f20;stroke-width:5;stroke-linecap:butt;stroke-linejoin:miter;stroke-miterlimit:10;stroke-dasharray:none;stroke-opacity:1"
         transform="matrix(0.13333333,0,0,-0.13333333,0,471.57333)" />
      <path
         id="path80"
         d="M 432.727,334.129 V 21.75"
         style="fill:none;stroke:#231f20;stroke-width:5;stroke-linecap:butt;stroke-linejoin:miter;stroke-miterlimit:10;stroke-dasharray:24.9905, 14.9943;stroke-dashoffset:0;stroke-opacity:1"
         transform="matrix(0.13333333,0,0,-0.13333333,0,471.57333)" />
      <path
         id="path81"
         d="M 432.727,14.25 V 1.75"
         style="fill:none;stroke:#231f20;stroke-width:5;stroke-linecap:butt;stroke-linejoin:miter;stroke-miterlimit:10;stroke-dasharray:none;stroke-opacity:1"
         transform="matrix(0.13333333,0,0,-0.13333333,0,471.57333)" />
      <path
         id="path82"
         d="m 1875.52,369.898 v -12.5"
         style="fill:none;stroke:#231f20;stroke-width:5;stroke-linecap:butt;stroke-linejoin:miter;stroke-miterlimit:10;stroke-dasharray:none;stroke-opacity:1"
         transform="matrix(0.13333333,0,0,-0.13333333,0,471.57333)" />
      <path
         id="path83"
         d="M 1875.52,342.129 V 24.0313"
         style="fill:none;stroke:#231f20;stroke-width:5;stroke-linecap:butt;stroke-linejoin:miter;stroke-miterlimit:10;stroke-dasharray:25.4482, 15.2689;stroke-dashoffset:0;stroke-opacity:1"
         transform="matrix(0.13333333,0,0,-0.13333333,0,471.57333)" />
      <path
         id="path84"
         d="M 1875.52,16.3906 V 3.89063"
         style="fill:none;stroke:#231f20;stroke-width:5;stroke-linecap:butt;stroke-linejoin:miter;stroke-miterlimit:10;stroke-dasharray:none;stroke-opacity:1"
         transform="matrix(0.13333333,0,0,-0.13333333,0,471.57333)" />
      <path
         id="path85"
         d="M 847.852,6.51172 V 1062.44"
         style="fill:none;stroke:#231f20;stroke-width:15;stroke-linecap:butt;stroke-linejoin:miter;stroke-miterlimit:10;stroke-dasharray:none;stroke-opacity:1"
         transform="matrix(0.13333333,0,0,-0.13333333,0,471.57333)" />
      <path
         id="path86"
         d="m 628.613,842.809 v 12.5 h -12.5"
         style="fill:none;stroke:#231f20;stroke-width:5;stroke-linecap:butt;stroke-linejoin:miter;stroke-miterlimit:10;stroke-dasharray:none;stroke-opacity:1"
         transform="matrix(0.13333333,0,0,-0.13333333,0,471.57333)" />
      <path
         id="path87"
         d="M 601.395,855.309 H 255.531"
         style="fill:none;stroke:#231f20;stroke-width:5;stroke-linecap:butt;stroke-linejoin:miter;stroke-miterlimit:10;stroke-dasharray:24.5293, 14.7176;stroke-dashoffset:0;stroke-opacity:1"
         transform="matrix(0.13333333,0,0,-0.13333333,0,471.57333)" />
      <path
         id="path88"
         d="m 248.176,855.309 h -12.5 v -12.5"
         style="fill:none;stroke:#231f20;stroke-width:5;stroke-linecap:butt;stroke-linejoin:miter;stroke-miterlimit:10;stroke-dasharray:none;stroke-opacity:1"
         transform="matrix(0.13333333,0,0,-0.13333333,0,471.57333)" />
      <path
         id="path89"
         d="M 235.676,827.43 V 301.789"
         style="fill:none;stroke:#231f20;stroke-width:5;stroke-linecap:butt;stroke-linejoin:miter;stroke-miterlimit:10;stroke-dasharray:25.6412, 15.3847;stroke-dashoffset:0;stroke-opacity:1"
         transform="matrix(0.13333333,0,0,-0.13333333,0,471.57333)" />
      <path
         id="path90"
         d="m 235.676,294.09 v -12.5 h 12.5"
         style="fill:none;stroke:#231f20;stroke-width:5;stroke-linecap:butt;stroke-linejoin:miter;stroke-miterlimit:10;stroke-dasharray:none;stroke-opacity:1"
         transform="matrix(0.13333333,0,0,-0.13333333,0,471.57333)" />
      <path
         id="path91"
         d="M 262.891,281.59 H 608.754"
         style="fill:none;stroke:#231f20;stroke-width:5;stroke-linecap:butt;stroke-linejoin:miter;stroke-miterlimit:10;stroke-dasharray:24.5293, 14.7176;stroke-dashoffset:0;stroke-opacity:1"
         transform="matrix(0.13333333,0,0,-0.13333333,0,471.57333)" />
      <path
         id="path92"
         d="m 616.113,281.59 h 12.5 v 12.5"
         style="fill:none;stroke:#231f20;stroke-width:5;stroke-linecap:butt;stroke-linejoin:miter;stroke-miterlimit:10;stroke-dasharray:none;stroke-opacity:1"
         transform="matrix(0.13333333,0,0,-0.13333333,0,471.57333)" />
      <path
         id="path93"
         d="M 628.613,309.469 V 835.121"
         style="fill:none;stroke:#231f20;stroke-width:5;stroke-linecap:butt;stroke-linejoin:miter;stroke-miterlimit:10;stroke-dasharray:25.6412, 15.3847;stroke-dashoffset:0;stroke-opacity:1"
         transform="matrix(0.13333333,0,0,-0.13333333,0,471.57333)" />
      <path
         id="path94"
         d="m 1186.2,163.359 h -138.51 v 83.379 h 138.51 z"
         style="fill:none;stroke:#231f20;stroke-width:5;stroke-linecap:butt;stroke-linejoin:miter;stroke-miterlimit:10;stroke-dasharray:none;stroke-opacity:1"
         transform="matrix(0.13333333,0,0,-0.13333333,0,471.57333)" />
      <path
         id="path95"
         d="m 1099.07,205.641 c 0,11.05 8.96,20 20,20 11.04,0 20,-8.95 20,-20 0,-11.039 -8.96,-20 -20,-20 -11.04,0 -20,8.961 -20,20"
         style="fill:#231f20;fill-opacity:1;fill-rule:nonzero;stroke:none"
         transform="matrix(0.13333333,0,0,-0.13333333,0,471.57333)" />
      <path
         id="path96"
         d="m 1951.04,166.531 v -12.5 h -12.5"
         style="fill:none;stroke:#231f20;stroke-width:5;stroke-linecap:butt;stroke-linejoin:miter;stroke-miterlimit:10;stroke-dasharray:none;stroke-opacity:1"
         transform="matrix(0.13333333,0,0,-0.13333333,0,471.57333)" />
      <path
         id="path97"
         d="M 1923.64,154.031 H 1056.8"
         style="fill:none;stroke:#231f20;stroke-width:5;stroke-linecap:butt;stroke-linejoin:miter;stroke-miterlimit:10;stroke-dasharray:24.838, 14.9028;stroke-dashoffset:0;stroke-opacity:1"
         transform="matrix(0.13333333,0,0,-0.13333333,0,471.57333)" />
      <path
         id="path98"
         d="m 1049.35,154.031 h -12.5 v 12.5"
         style="fill:none;stroke:#231f20;stroke-width:5;stroke-linecap:butt;stroke-linejoin:miter;stroke-miterlimit:10;stroke-dasharray:none;stroke-opacity:1"
         transform="matrix(0.13333333,0,0,-0.13333333,0,471.57333)" />
      <path
         id="path99"
         d="M 1036.85,181.52 V 933.531"
         style="fill:none;stroke:#231f20;stroke-width:5;stroke-linecap:butt;stroke-linejoin:miter;stroke-miterlimit:10;stroke-dasharray:24.9839, 14.9904;stroke-dashoffset:0;stroke-opacity:1"
         transform="matrix(0.13333333,0,0,-0.13333333,0,471.57333)" />
      <path
         id="path100"
         d="m 1036.85,941.031 v 12.5 h 12.5"
         style="fill:none;stroke:#231f20;stroke-width:5;stroke-linecap:butt;stroke-linejoin:miter;stroke-miterlimit:10;stroke-dasharray:none;stroke-opacity:1"
         transform="matrix(0.13333333,0,0,-0.13333333,0,471.57333)" />
      <path
         id="path101"
         d="m 1064.25,953.531 h 866.84"
         style="fill:none;stroke:#231f20;stroke-width:5;stroke-linecap:butt;stroke-linejoin:miter;stroke-miterlimit:10;stroke-dasharray:24.838, 14.9028;stroke-dashoffset:0;stroke-opacity:1"
         transform="matrix(0.13333333,0,0,-0.13333333,0,471.57333)" />
      <path
         id="path102"
         d="m 1938.54,953.531 h 12.5 v -12.5"
         style="fill:none;stroke:#231f20;stroke-width:5;stroke-linecap:butt;stroke-linejoin:miter;stroke-miterlimit:10;stroke-dasharray:none;stroke-opacity:1"
         transform="matrix(0.13333333,0,0,-0.13333333,0,471.57333)" />
      <path
         id="path103"
         d="M 1951.04,926.039 V 174.02"
         style="fill:none;stroke:#231f20;stroke-width:5;stroke-linecap:butt;stroke-linejoin:miter;stroke-miterlimit:10;stroke-dasharray:24.9839, 14.9904;stroke-dashoffset:0;stroke-opacity:1"
         transform="matrix(0.13333333,0,0,-0.13333333,0,471.57333)" />
      <path
         id="path104"
         d="m 2.695312,1.3235 c -0.890625,-0.76171875 -1.40625,-2.203125 -1.40625,-3.75 0,-1.546875 0.515625,-3 1.40625,-3.75 L 2.5429683,-6.3874375 c -1.3242188,0.9023437 -1.9101563,2.3320312 -1.9101563,3.9492187 0,1.6289063 0.5859375,3.0820313 1.9101563,3.9609375 z m 3.8935547,-1.67578125 -0.09375,-0.234375 c -0.09375,0.0585938 -0.2226563,0.10546875 -0.328125,0.10546875 -0.1523438,0 -0.3164063,-0.140625 -0.3164063,-0.5507813 v -1.6640625 c 0,-0.46875 -0.082031,-0.84375 -0.3984375,-1.1015625 -0.1992187,-0.1640625 -0.46875,-0.2460937 -0.7382812,-0.2460937 -0.515625,0.1054687 -1.1015625,0.4570312 -1.3476563,0.6328125 -0.1757812,0.1289062 -0.2929687,0.2226562 -0.2929687,0.3632812 0,0.1992188 0.234375,0.3867188 0.3984375,0.3867188 0.1289062,0 0.2226562,-0.070312 0.2578125,-0.2109375 0.070312,-0.28125 0.1523437,-0.4804688 0.2695312,-0.5976563 0.09375,-0.1054687 0.2226563,-0.1757812 0.4101563,-0.1757812 0.4453125,0 0.75,0.3632812 0.75,1.0195312 v 0.1640625 c -0.1992188,0.1523438 -0.8554688,0.3984375 -1.3945313,0.5742188 -0.4921875,0.1757812 -0.7265625,0.4570312 -0.7265625,0.90234375 0,0.5625 0.4453125,1.08984375 1.078125,1.08984375 0.2695313,0 0.703125,-0.328125 1.0664063,-0.57421875 0.046875,0.15234375 0.09375,0.28125 0.2109375,0.41015625 C 5.4990229,0.02271875 5.6865229,0.10475 5.8154292,0.10475 Z M 5.1591792,-0.7624375 c -0.1640625,0.1640625 -0.4804688,0.31640625 -0.7148438,0.328125 -0.28125,0 -0.6445312,-0.22265625 -0.6445312,-0.6914063 0,-0.328125 0.1992187,-0.4921875 0.5507812,-0.65625 0.1875,-0.09375 0.6210938,-0.28125 0.8085938,-0.375 z M 6.7939448,-6.1765 c 0.890625,0.7382812 1.4179688,2.203125 1.4179688,3.75 0,1.546875 -0.5039063,2.98828125 -1.4179688,3.75 L 6.9580073,1.5227187 C 8.3056636,0.60865625 8.8564448,-0.8093125 8.8564448,-2.4265 c 0,-1.6289063 -0.5507812,-3.0585938 -1.8984375,-3.9609375 z M 2.1562495,124.90651 c -0.890625,-0.76172 -1.40625,-2.20313 -1.40625,-3.75 0,-1.54688 0.515625,-3 1.40625,-3.75 l -0.1523437,-0.21094 c -1.3242188,0.90234 -1.9101563,2.33203 -1.9101563,3.94922 0,1.62891 0.5859375,3.08203 1.9101563,3.96094 z m 2.0126953,-4.95703 v -2.77735 c -0.3398437,0.11719 -0.890625,0.25782 -1.3125,0.31641 v 0.21094 c 0.5859375,0.0469 0.5976563,0.10547 0.5976563,0.66797 v 5.0039 c 0.4921875,0.23438 0.9492187,0.31641 1.3242187,0.31641 1.2070313,0 2.2617188,-0.9375 2.2617188,-2.26172 0,-1.05469 -0.8085938,-1.88672 -1.78125,-1.88672 -0.09375,0 -0.2226563,0.0234 -0.3632813,0.0937 z m 0,0.26953 c 0.1640625,-0.10547 0.4453125,-0.17578 0.703125,-0.17578 0.7382813,0 1.3710938,0.59765 1.3710938,1.61718 0,1.05469 -0.4804688,1.6875 -1.21875,1.6875 -0.4804688,-0.0117 -0.75,-0.32812 -0.8085938,-0.5039 -0.035156,-0.082 -0.046875,-0.17578 -0.046875,-0.30469 z m 3.1640625,-2.8125 c 0.890625,0.73828 1.4179688,2.20312 1.4179688,3.75 0,1.54687 -0.5039063,2.98828 -1.4179688,3.75 l 0.1640625,0.19922 c 1.3476563,-0.91407 1.8984375,-2.33203 1.8984375,-3.94922 0,-1.62891 -0.5507812,-3.0586 -1.8984375,-3.96094 z M 2.8417964,248.48952 c -0.890625,-0.76172 -1.40625,-2.20313 -1.40625,-3.75 0,-1.54688 0.515625,-3 1.40625,-3.75 l -0.1523438,-0.21094 c -1.3242187,0.90234 -1.91015622,2.33203 -1.91015622,3.94922 0,1.6289 0.58593752,3.08203 1.91015622,3.96093 z m 3.4746094,-2.32032 c -0.4101563,0.38672 -0.703125,0.49219 -1.0898438,0.49219 -0.5039062,0 -1.359375,-0.41016 -1.359375,-1.66406 0,-0.94922 0.515625,-1.44141 1.1132813,-1.44141 0.3164062,0 0.6328125,0.11719 0.9023437,0.375 0.082031,0.0703 0.1171875,0.0937 0.1640625,0.0937 0.1054688,0 0.3046875,-0.19922 0.3046875,-0.38672 0,-0.10547 -0.035156,-0.17578 -0.1523437,-0.28125 -0.140625,-0.11718 -0.4335938,-0.23437 -0.796875,-0.23437 -0.3515625,0 -0.890625,0.14062 -1.359375,0.5039 -0.5976563,0.46875 -0.9023438,1.07813 -0.9023438,1.76954 0,0.96093 0.6679688,1.875 1.8046875,1.875 0.5273438,0 1.1367188,-0.39844 1.5234375,-0.91407 z m 0.3310546,-5.17968 c 0.890625,0.73828 1.4179688,2.20312 1.4179688,3.75 0,1.54687 -0.5039063,2.98828 -1.4179688,3.75 l 0.1640625,0.19921 c 1.3476563,-0.91406 1.8984375,-2.33203 1.8984375,-3.94921 0,-1.62891 -0.5507812,-3.0586 -1.8984375,-3.96094 z m 0,0"
         style="fill:#231f20;fill-opacity:1;fill-rule:nonzero;stroke:none"
         aria-label="(a)&#10;(b)&#10;(c)"
         transform="matrix(1.3333333,0,0,1.3333333,0.71875067,72.985333)" />
    </g>
  </g>
</svg>
