<?xml version="1.0" encoding="UTF-8" standalone="no"?>
<!-- Created with Inkscape (http://www.inkscape.org/) -->

<svg
   version="1.1"
   id="svg1"
   width="207.13333"
   height="212.30667"
   viewBox="0 0 207.13333 212.30667"
   sodipodi:docname="pha07f04.eps"
   xmlns:inkscape="http://www.inkscape.org/namespaces/inkscape"
   xmlns:sodipodi="http://sodipodi.sourceforge.net/DTD/sodipodi-0.dtd"
   xmlns="http://www.w3.org/2000/svg"
   xmlns:svg="http://www.w3.org/2000/svg">
  <defs
     id="defs1" />
  <sodipodi:namedview
     id="namedview1"
     pagecolor="#ffffff"
     bordercolor="#000000"
     borderopacity="0.25"
     inkscape:showpageshadow="2"
     inkscape:pageopacity="0.0"
     inkscape:pagecheckerboard="0"
     inkscape:deskcolor="#d1d1d1">
    <inkscape:page
       x="0"
       y="0"
       inkscape:label="1"
       id="page1"
       width="207.13333"
       height="212.30667"
       margin="0"
       bleed="0" />
  </sodipodi:namedview>
  <g
     id="g1"
     inkscape:groupmode="layer"
     inkscape:label="1">
    <g
       id="group-R5">
      <path
         id="path2"
         d="M 61.9297,1465.38 V 60.5508 H 1466.75"
         style="fill:none;stroke:#231f20;stroke-width:5;stroke-linecap:butt;stroke-linejoin:miter;stroke-miterlimit:10;stroke-dasharray:none;stroke-opacity:1"
         transform="matrix(0.13333333,0,0,-0.13333333,0,212.30667)" />
      <path
         id="path3"
         d="m 61.9297,1495.55 c -5.2695,-14.2 -14.2578,-31.82 -23.7813,-42.73 l 23.7813,8.59 23.7734,-8.59 c -9.5234,10.91 -18.5117,28.53 -23.7734,42.73"
         style="fill:#231f20;fill-opacity:1;fill-rule:nonzero;stroke:none"
         transform="matrix(0.13333333,0,0,-0.13333333,0,212.30667)" />
      <path
         id="path4"
         d="m 1496.93,60.5508 c -14.2,-5.2695 -31.82,-14.2617 -42.74,-23.7813 l 8.6,23.7813 -8.6,23.7773 c 10.92,-9.5273 28.54,-18.5078 42.74,-23.7773"
         style="fill:#231f20;fill-opacity:1;fill-rule:nonzero;stroke:none"
         transform="matrix(0.13333333,0,0,-0.13333333,0,212.30667)" />
      <path
         id="path5"
         d="m 0.77310938,-2.9180841 c 0.31640622,-0.3984375 0.49218752,-0.515625 0.57421872,-0.515625 0.09375,0 0.1757813,0.1289063 0.3046875,0.5742188 l 0.3046875,0.9375 c -0.5625,0.8320312 -0.98437497,1.35937499 -1.24218747,1.35937499 -0.09375,0 -0.1640625,-0.0351563 -0.2109375,-0.09375 -0.046875,-0.0585938 -0.09375,-0.09375 -0.140625,-0.09375 -0.17578125,0 -0.363281255,0.2109375 -0.363281255,0.421875 -0.011718745,0.2578125 0.175781255,0.43359375 0.410156255,0.43359375 0.421875,0 0.84374997,-0.43359375 1.64062497,-1.69921874 l 0.28125,0.87890624 c 0.1757813,0.5625 0.3632813,0.8203125 0.5976563,0.8203125 0.3046875,0 0.7265625,-0.328125 1.1367187,-0.97265625 L 3.9137344,-1.0430841 c -0.28125,0.33984379 -0.5039063,0.51562504 -0.6445313,0.51562504 -0.1523437,0 -0.28125,-0.2578125 -0.4570312,-0.82031254 L 2.5192031,-2.2501153 c 0.1992188,-0.28125 0.3984375,-0.5273438 0.5859375,-0.7382813 0.234375,-0.2929687 0.4101563,-0.4453125 0.5390625,-0.4453125 0.082031,0 0.1523438,0.035156 0.2109375,0.1054688 0.046875,0.046875 0.082031,0.070312 0.1289063,0.070312 0.140625,0 0.3398437,-0.1757813 0.3515625,-0.3984375 0,-0.1992188 -0.140625,-0.3867188 -0.375,-0.3867188 -0.3984375,0 -0.7851563,0.3867188 -1.5351563,1.4765625 l -0.1523437,-0.492187 c -0.2226563,-0.6445312 -0.3398438,-0.984375 -0.5859375,-0.984375 -0.2929688,0 -0.69140627,0.3867188 -1.06640627,0.9375 z M -145.16341,-148.93078 c -0.0586,-0.80859 -0.11719,-1.62891 -0.21094,-2.30859 -0.0703,-0.71485 -0.21094,-1.05469 -0.45703,-1.05469 -0.32813,0 -0.77344,0.51562 -1.06641,0.96094 l 0.15234,0.21093 c 0.22266,-0.3164 0.45704,-0.52734 0.52735,-0.52734 0.0703,0 0.11719,0.11719 0.1875,0.5625 0.1289,0.82031 0.26953,2.22656 0.28125,2.92969 -0.44531,0.59765 -1.16016,1.39453 -2.1211,2.01562 l 0.0703,0.19922 0.9375,-0.23437 c 0.5039,-0.5625 1.08984,-1.35938 1.61718,-2.1211 0.48047,-0.66797 1.24219,-1.86328 1.62891,-2.54297 0.23438,-0.39843 0.32813,-0.70312 0.31641,-0.96093 0,-0.29297 -0.15235,-0.49219 -0.35157,-0.49219 -0.15234,0 -0.3164,0.10547 -0.375,0.24609 -0.0351,0.0703 -0.0469,0.16407 -0.0117,0.22266 0.0351,0.10547 0.0937,0.24609 0.0937,0.42187 0.0117,0.65625 -0.82032,1.88672 -1.20704,2.47266 z m 0,0"
         style="fill:#231f20;fill-opacity:1;fill-rule:nonzero;stroke:none"
         aria-label="x&#10;y"
         transform="matrix(1.3333333,0,0,1.3333333,201.352,207.56656)" />
      <path
         id="path6"
         d="M 997.281,751.066 H 858.754 v 83.379 h 138.527 z"
         style="fill:none;stroke:#231f20;stroke-width:5;stroke-linecap:butt;stroke-linejoin:miter;stroke-miterlimit:10;stroke-dasharray:none;stroke-opacity:1"
         transform="matrix(0.13333333,0,0,-0.13333333,0,212.30667)" />
      <path
         id="path7"
         d="m 908.012,792.754 c 0,11.047 8.957,20 20,20 11.047,0 20,-8.953 20,-20 0,-11.043 -8.953,-20 -20,-20 -11.043,0 -20,8.957 -20,20"
         style="fill:#231f20;fill-opacity:1;fill-rule:nonzero;stroke:none"
         transform="matrix(0.13333333,0,0,-0.13333333,0,212.30667)" />
      <path
         id="path8"
         d="M 1348.43,275.25 H 752.598 v 135 h 595.832 z"
         style="fill:none;stroke:#231f20;stroke-width:5;stroke-linecap:butt;stroke-linejoin:miter;stroke-miterlimit:10;stroke-dasharray:none;stroke-opacity:1"
         transform="matrix(0.13333333,0,0,-0.13333333,0,212.30667)" />
      <path
         id="path9"
         d="m 1030.52,342.75 c 0,11.051 8.95,20 20,20 11.04,0 20,-8.949 20,-20 0,-11.039 -8.96,-20 -20,-20 -11.05,0 -20,8.961 -20,20"
         style="fill:#231f20;fill-opacity:1;fill-rule:nonzero;stroke:none"
         transform="matrix(0.13333333,0,0,-0.13333333,0,212.30667)" />
      <path
         id="path10"
         d="M 866.621,117.449 H 349.414 v 347.473 h 517.207 z"
         style="fill:none;stroke:#231f20;stroke-width:5;stroke-linecap:butt;stroke-linejoin:miter;stroke-miterlimit:10;stroke-dasharray:none;stroke-opacity:1"
         transform="matrix(0.13333333,0,0,-0.13333333,0,212.30667)" />
      <path
         id="path11"
         d="m 588.02,291.191 c 0,11.039 8.953,20 20,20 11.043,0 20,-8.961 20,-20 0,-11.05 -8.957,-20 -20,-20 -11.047,0 -20,8.95 -20,20"
         style="fill:#231f20;fill-opacity:1;fill-rule:nonzero;stroke:none"
         transform="matrix(0.13333333,0,0,-0.13333333,0,212.30667)" />
      <path
         id="path12"
         d="m 749.27,1059.16 h -372.5 v 364.05 h 372.5 z"
         style="fill:none;stroke:#231f20;stroke-width:5;stroke-linecap:butt;stroke-linejoin:miter;stroke-miterlimit:10;stroke-dasharray:none;stroke-opacity:1"
         transform="matrix(0.13333333,0,0,-0.13333333,0,212.30667)" />
      <path
         id="path13"
         d="m 543.02,1241.19 c 0,11.05 8.949,20 20,20 11.046,0 20,-8.95 20,-20 0,-11.05 -8.954,-20 -20,-20 -11.051,0 -20,8.95 -20,20"
         style="fill:#231f20;fill-opacity:1;fill-rule:nonzero;stroke:none"
         transform="matrix(0.13333333,0,0,-0.13333333,0,212.30667)" />
      <path
         id="path14"
         d="m 614.27,852.754 h -372.5 v 135 h 372.5 z"
         style="fill:none;stroke:#231f20;stroke-width:5;stroke-linecap:butt;stroke-linejoin:miter;stroke-miterlimit:10;stroke-dasharray:none;stroke-opacity:1"
         transform="matrix(0.13333333,0,0,-0.13333333,0,212.30667)" />
      <path
         id="path15"
         d="m 408.02,920.254 c 0,11.047 8.953,20 20,20 11.043,0 20,-8.953 20,-20 0,-11.043 -8.957,-20 -20,-20 -11.047,0 -20,8.957 -20,20"
         style="fill:#231f20;fill-opacity:1;fill-rule:nonzero;stroke:none"
         transform="matrix(0.13333333,0,0,-0.13333333,0,212.30667)" />
      <path
         id="path16"
         d="m 561.93,1241.19 h -12.5"
         style="fill:none;stroke:#231f20;stroke-width:5;stroke-linecap:butt;stroke-linejoin:miter;stroke-miterlimit:10;stroke-dasharray:none;stroke-opacity:1"
         transform="matrix(0.13333333,0,0,-0.13333333,0,212.30667)" />
      <path
         id="path17"
         d="M 535.035,1241.19 H 81.625"
         style="fill:none;stroke:#231f20;stroke-width:5;stroke-linecap:butt;stroke-linejoin:miter;stroke-miterlimit:10;stroke-dasharray:23.9899, 14.3939;stroke-dashoffset:0;stroke-opacity:1"
         transform="matrix(0.13333333,0,0,-0.13333333,0,212.30667)" />
      <path
         id="path18"
         d="m 74.4297,1241.19 h -12.5"
         style="fill:none;stroke:#231f20;stroke-width:5;stroke-linecap:butt;stroke-linejoin:miter;stroke-miterlimit:10;stroke-dasharray:none;stroke-opacity:1"
         transform="matrix(0.13333333,0,0,-0.13333333,0,212.30667)" />
      <path
         id="path19"
         d="m 1049.43,348.051 v -12.5"
         style="fill:none;stroke:#231f20;stroke-width:5;stroke-linecap:butt;stroke-linejoin:miter;stroke-miterlimit:10;stroke-dasharray:none;stroke-opacity:1"
         transform="matrix(0.13333333,0,0,-0.13333333,0,212.30667)" />
      <path
         id="path20"
         d="M 1049.43,320.41 V 85.6289"
         style="fill:none;stroke:#231f20;stroke-width:5;stroke-linecap:butt;stroke-linejoin:miter;stroke-miterlimit:10;stroke-dasharray:25.2451, 15.1471;stroke-dashoffset:0;stroke-opacity:1"
         transform="matrix(0.13333333,0,0,-0.13333333,0,212.30667)" />
      <path
         id="path21"
         d="m 1049.43,78.0508 v -12.5"
         style="fill:none;stroke:#231f20;stroke-width:5;stroke-linecap:butt;stroke-linejoin:miter;stroke-miterlimit:10;stroke-dasharray:none;stroke-opacity:1"
         transform="matrix(0.13333333,0,0,-0.13333333,0,212.30667)" />
      <path
         id="path22"
         d="m 609.43,291.191 h -12.5"
         style="fill:none;stroke:#231f20;stroke-width:5;stroke-linecap:butt;stroke-linejoin:miter;stroke-miterlimit:10;stroke-dasharray:none;stroke-opacity:1"
         transform="matrix(0.13333333,0,0,-0.13333333,0,212.30667)" />
      <path
         id="path23"
         d="M 582.281,291.191 H 81.7539"
         style="fill:none;stroke:#231f20;stroke-width:5;stroke-linecap:butt;stroke-linejoin:miter;stroke-miterlimit:10;stroke-dasharray:24.4159, 14.6495;stroke-dashoffset:0;stroke-opacity:1"
         transform="matrix(0.13333333,0,0,-0.13333333,0,212.30667)" />
      <path
         id="path24"
         d="m 74.4297,291.191 h -12.5"
         style="fill:none;stroke:#231f20;stroke-width:5;stroke-linecap:butt;stroke-linejoin:miter;stroke-miterlimit:10;stroke-dasharray:none;stroke-opacity:1"
         transform="matrix(0.13333333,0,0,-0.13333333,0,212.30667)" />
      <path
         id="path25"
         d="m 426.93,923.051 v -12.5"
         style="fill:none;stroke:#231f20;stroke-width:5;stroke-linecap:butt;stroke-linejoin:miter;stroke-miterlimit:10;stroke-dasharray:none;stroke-opacity:1"
         transform="matrix(0.13333333,0,0,-0.13333333,0,212.30667)" />
      <path
         id="path26"
         d="M 426.93,895.859 V 80.3984"
         style="fill:none;stroke:#231f20;stroke-width:5;stroke-linecap:butt;stroke-linejoin:miter;stroke-miterlimit:10;stroke-dasharray:24.4883, 14.693;stroke-dashoffset:0;stroke-opacity:1"
         transform="matrix(0.13333333,0,0,-0.13333333,0,212.30667)" />
      <path
         id="path27"
         d="m 426.93,73.0508 v -12.5"
         style="fill:none;stroke:#231f20;stroke-width:5;stroke-linecap:butt;stroke-linejoin:miter;stroke-miterlimit:10;stroke-dasharray:none;stroke-opacity:1"
         transform="matrix(0.13333333,0,0,-0.13333333,0,212.30667)" />
      <path
         id="path28"
         d="M 1048.96,0 V 30"
         style="fill:none;stroke:#231f20;stroke-width:5;stroke-linecap:butt;stroke-linejoin:miter;stroke-miterlimit:10;stroke-dasharray:none;stroke-opacity:1"
         transform="matrix(0.13333333,0,0,-0.13333333,0,212.30667)" />
      <path
         id="path29"
         d="M 426.813,14.9883 H 1048.96"
         style="fill:none;stroke:#231f20;stroke-width:5;stroke-linecap:butt;stroke-linejoin:miter;stroke-miterlimit:10;stroke-dasharray:none;stroke-opacity:1"
         transform="matrix(0.13333333,0,0,-0.13333333,0,212.30667)" />
      <path
         id="path30"
         d="M 426.93,28.8281 V 1.14844"
         style="fill:none;stroke:#231f20;stroke-width:5;stroke-linecap:butt;stroke-linejoin:miter;stroke-miterlimit:10;stroke-dasharray:none;stroke-opacity:1"
         transform="matrix(0.13333333,0,0,-0.13333333,0,212.30667)" />
      <path
         id="path31"
         d="M 0,290.641 H 28.082"
         style="fill:none;stroke:#231f20;stroke-width:5;stroke-linecap:butt;stroke-linejoin:miter;stroke-miterlimit:10;stroke-dasharray:none;stroke-opacity:1"
         transform="matrix(0.13333333,0,0,-0.13333333,0,212.30667)" />
      <path
         id="path32"
         d="M 15.3359,1243.76 V 290.641"
         style="fill:none;stroke:#231f20;stroke-width:5;stroke-linecap:butt;stroke-linejoin:miter;stroke-miterlimit:10;stroke-dasharray:none;stroke-opacity:1"
         transform="matrix(0.13333333,0,0,-0.13333333,0,212.30667)" />
      <path
         id="path33"
         d="M 30,1243.76 H 0.667969"
         style="fill:none;stroke:#231f20;stroke-width:5;stroke-linecap:butt;stroke-linejoin:miter;stroke-miterlimit:10;stroke-dasharray:none;stroke-opacity:1"
         transform="matrix(0.13333333,0,0,-0.13333333,0,212.30667)" />
    </g>
  </g>
</svg>
