<?xml version="1.0" encoding="UTF-8" standalone="no"?>
<!-- Created with Inkscape (http://www.inkscape.org/) -->

<svg
   version="1.1"
   id="svg1"
   width="329.77332"
   height="305.70667"
   viewBox="0 0 329.77332 305.70667"
   sodipodi:docname="pha07f09.eps"
   xmlns:inkscape="http://www.inkscape.org/namespaces/inkscape"
   xmlns:sodipodi="http://sodipodi.sourceforge.net/DTD/sodipodi-0.dtd"
   xmlns="http://www.w3.org/2000/svg"
   xmlns:svg="http://www.w3.org/2000/svg">
  <defs
     id="defs1" />
  <sodipodi:namedview
     id="namedview1"
     pagecolor="#ffffff"
     bordercolor="#000000"
     borderopacity="0.25"
     inkscape:showpageshadow="2"
     inkscape:pageopacity="0.0"
     inkscape:pagecheckerboard="0"
     inkscape:deskcolor="#d1d1d1">
    <inkscape:page
       x="0"
       y="0"
       inkscape:label="1"
       id="page1"
       width="329.77332"
       height="305.70667"
       margin="0"
       bleed="0" />
  </sodipodi:namedview>
  <g
     id="g1"
     inkscape:groupmode="layer"
     inkscape:label="1">
    <g
       id="group-R5">
      <path
         id="path2"
         d="m 990,1359.33 v 2.5 H 92.5 v 895 h 895 v -897.5 h 2.5 v 2.5 -2.5 h 2.5 v 902.5 h -905 v -904.99 h 905 v 2.49 H 990"
         style="fill:#231f20;fill-opacity:1;fill-rule:nonzero;stroke:none"
         transform="matrix(0.13333333,0,0,-0.13333333,0,305.70667)" />
      <path
         id="path3"
         d="m 0,1806.83 h 15 v 5 H 0 Z"
         style="fill:#231f20;fill-opacity:1;fill-rule:nonzero;stroke:none"
         transform="matrix(0.13333333,0,0,-0.13333333,0,305.70667)" />
      <path
         id="path4"
         d="m 35.3906,1806.83 h 30.5898 v 5 H 35.3906 Z m 50.9805,0 h 30.5898 v 5 H 86.3711 Z m 50.9809,0 h 30.5898 v 5 H 137.352 Z m 50.98,0 h 30.5898 v 5 H 188.332 Z m 50.981,0 h 30.5859 v 5 H 239.313 Z m 50.98,0 h 30.5898 v 5 H 290.293 Z m 50.98,0 h 30.5859 v 5 H 341.273 Z m 50.981,0 h 30.5859 v 5 H 392.254 Z m 50.98,0 h 30.5859 v 5 H 443.234 Z m 50.981,0 h 30.5859 v 5 H 494.215 Z m 50.98,0 h 30.5859 v 5 H 545.195 Z m 50.981,0 h 30.5859 v 5 H 596.176 Z m 50.98,0 h 30.5859 v 5 H 647.156 Z m 50.981,0 h 30.5859 v 5 H 698.137 Z m 50.98,0 h 30.5859 v 5 H 749.117 Z m 50.981,0 h 30.5859 v 5 H 800.098 Z m 50.976,0 h 30.5898 v 5 H 851.074 Z m 50.985,0 h 30.5859 v 5 H 902.059 Z m 50.976,0 h 30.5898 v 5 H 953.035 Z m 50.985,0 h 30.5898 v 5 H 1004.02 Z"
         style="fill:#231f20;fill-opacity:1;fill-rule:nonzero;stroke:none"
         transform="matrix(0.13333333,0,0,-0.13333333,0,305.70667)" />
      <path
         id="path5"
         d="m 1055,1806.83 h 15 v 5 h -15 z"
         style="fill:#231f20;fill-opacity:1;fill-rule:nonzero;stroke:none"
         transform="matrix(0.13333333,0,0,-0.13333333,0,305.70667)" />
      <path
         id="path6"
         d="m 184.734,2148.7 c 0,9.73 7.895,17.63 17.637,17.63 9.738,0 17.641,-7.9 17.641,-17.63 0,-9.74 -7.903,-17.63 -17.641,-17.63 -9.742,0 -17.637,7.89 -17.637,17.63"
         style="fill:#231f20;fill-opacity:1;fill-rule:nonzero;stroke:none"
         transform="matrix(0.13333333,0,0,-0.13333333,0,305.70667)" />
      <path
         id="path7"
         d="m 412.551,2148.7 c 0,9.73 7.898,17.63 17.637,17.63 9.746,0 17.632,-7.9 17.632,-17.63 0,-9.74 -7.886,-17.63 -17.632,-17.63 -9.739,0 -17.637,7.89 -17.637,17.63"
         style="fill:#231f20;fill-opacity:1;fill-rule:nonzero;stroke:none"
         transform="matrix(0.13333333,0,0,-0.13333333,0,305.70667)" />
      <path
         id="path8"
         d="m 640.371,2148.7 c 0,9.73 7.891,17.63 17.625,17.63 9.746,0 17.641,-7.9 17.641,-17.63 0,-9.74 -7.895,-17.63 -17.641,-17.63 -9.734,0 -17.625,7.89 -17.625,17.63"
         style="fill:#231f20;fill-opacity:1;fill-rule:nonzero;stroke:none"
         transform="matrix(0.13333333,0,0,-0.13333333,0,305.70667)" />
      <path
         id="path9"
         d="m 868.184,2148.7 c 0,9.73 7.902,17.63 17.629,17.63 9.746,0 17.632,-7.9 17.632,-17.63 0,-9.74 -7.886,-17.63 -17.632,-17.63 -9.727,0 -17.629,7.89 -17.629,17.63"
         style="fill:#231f20;fill-opacity:1;fill-rule:nonzero;stroke:none"
         transform="matrix(0.13333333,0,0,-0.13333333,0,305.70667)" />
      <path
         id="path10"
         d="m 202.371,1461.77 h 233.848 l -226.856,227.07 h 220.754 l 226.844,-227.07 h 234.883 l -226.848,227.07 h 236.926 l -684.418,232.5 H 436.277 L 208.465,2146.2 H 429.16 L 656.973,1921.34 H 891.902 L 664.09,2146.2 h 221.723 v 5 H 651.906 L 879.719,1926.34 H 659.023 L 431.211,2151.2 H 196.281 L 424.094,1926.34 H 187.242 l 684.414,-232.5 H 652.934 L 879.777,1466.77 H 659.035 L 432.188,1693.84 H 197.301 L 424.152,1466.77 H 202.371 v -5"
         style="fill:#231f20;fill-opacity:1;fill-rule:nonzero;stroke:none"
         transform="matrix(0.13333333,0,0,-0.13333333,0,305.70667)" />
      <path
         id="path11"
         d="m 184.734,1923.84 c 0,9.74 7.895,17.64 17.637,17.64 9.738,0 17.641,-7.9 17.641,-17.64 0,-9.73 -7.903,-17.63 -17.641,-17.63 -9.742,0 -17.637,7.9 -17.637,17.63"
         style="fill:#231f20;fill-opacity:1;fill-rule:nonzero;stroke:none"
         transform="matrix(0.13333333,0,0,-0.13333333,0,305.70667)" />
      <path
         id="path12"
         d="m 412.551,1923.84 c 0,9.74 7.898,17.64 17.637,17.64 9.746,0 17.632,-7.9 17.632,-17.64 0,-9.73 -7.886,-17.63 -17.632,-17.63 -9.739,0 -17.637,7.9 -17.637,17.63"
         style="fill:#231f20;fill-opacity:1;fill-rule:nonzero;stroke:none"
         transform="matrix(0.13333333,0,0,-0.13333333,0,305.70667)" />
      <path
         id="path13"
         d="m 640.371,1923.84 c 0,9.74 7.891,17.64 17.625,17.64 9.746,0 17.641,-7.9 17.641,-17.64 0,-9.73 -7.895,-17.63 -17.641,-17.63 -9.734,0 -17.625,7.9 -17.625,17.63"
         style="fill:#231f20;fill-opacity:1;fill-rule:nonzero;stroke:none"
         transform="matrix(0.13333333,0,0,-0.13333333,0,305.70667)" />
      <path
         id="path14"
         d="m 868.184,1923.84 c 0,9.74 7.902,17.64 17.629,17.64 9.746,0 17.632,-7.9 17.632,-17.64 0,-9.73 -7.886,-17.63 -17.632,-17.63 -9.727,0 -17.629,7.9 -17.629,17.63"
         style="fill:#231f20;fill-opacity:1;fill-rule:nonzero;stroke:none"
         transform="matrix(0.13333333,0,0,-0.13333333,0,305.70667)" />
      <path
         id="path15"
         d="m 185.703,1691.34 c 0,9.73 7.902,17.63 17.625,17.63 9.746,0 17.641,-7.9 17.641,-17.63 0,-9.74 -7.895,-17.63 -17.641,-17.63 -9.723,0 -17.625,7.89 -17.625,17.63"
         style="fill:#231f20;fill-opacity:1;fill-rule:nonzero;stroke:none"
         transform="matrix(0.13333333,0,0,-0.13333333,0,305.70667)" />
      <path
         id="path16"
         d="m 413.523,1691.34 c 0,9.73 7.895,17.63 17.629,17.63 9.739,0 17.625,-7.9 17.625,-17.63 0,-9.74 -7.886,-17.63 -17.625,-17.63 -9.734,0 -17.629,7.89 -17.629,17.63"
         style="fill:#231f20;fill-opacity:1;fill-rule:nonzero;stroke:none"
         transform="matrix(0.13333333,0,0,-0.13333333,0,305.70667)" />
      <path
         id="path17"
         d="m 641.34,1691.34 c 0,9.73 7.89,17.63 17.625,17.63 9.734,0 17.629,-7.9 17.629,-17.63 0,-9.74 -7.895,-17.63 -17.629,-17.63 -9.735,0 -17.625,7.89 -17.625,17.63"
         style="fill:#231f20;fill-opacity:1;fill-rule:nonzero;stroke:none"
         transform="matrix(0.13333333,0,0,-0.13333333,0,305.70667)" />
      <path
         id="path18"
         d="m 869.148,1691.34 c 0,9.73 7.895,17.63 17.637,17.63 9.731,0 17.629,-7.9 17.629,-17.63 0,-9.74 -7.898,-17.63 -17.629,-17.63 -9.742,0 -17.637,7.89 -17.637,17.63"
         style="fill:#231f20;fill-opacity:1;fill-rule:nonzero;stroke:none"
         transform="matrix(0.13333333,0,0,-0.13333333,0,305.70667)" />
      <path
         id="path19"
         d="m 184.734,1464.27 c 0,9.73 7.895,17.63 17.637,17.63 9.738,0 17.641,-7.9 17.641,-17.63 0,-9.74 -7.903,-17.63 -17.641,-17.63 -9.742,0 -17.637,7.89 -17.637,17.63"
         style="fill:#231f20;fill-opacity:1;fill-rule:nonzero;stroke:none"
         transform="matrix(0.13333333,0,0,-0.13333333,0,305.70667)" />
      <path
         id="path20"
         d="m 412.551,1464.27 c 0,9.73 7.898,17.63 17.637,17.63 9.746,0 17.632,-7.9 17.632,-17.63 0,-9.74 -7.886,-17.63 -17.632,-17.63 -9.739,0 -17.637,7.89 -17.637,17.63"
         style="fill:#231f20;fill-opacity:1;fill-rule:nonzero;stroke:none"
         transform="matrix(0.13333333,0,0,-0.13333333,0,305.70667)" />
      <path
         id="path21"
         d="m 640.371,1464.27 c 0,9.73 7.891,17.63 17.625,17.63 9.746,0 17.641,-7.9 17.641,-17.63 0,-9.74 -7.895,-17.63 -17.641,-17.63 -9.734,0 -17.625,7.89 -17.625,17.63"
         style="fill:#231f20;fill-opacity:1;fill-rule:nonzero;stroke:none"
         transform="matrix(0.13333333,0,0,-0.13333333,0,305.70667)" />
      <path
         id="path22"
         d="m 868.184,1464.27 c 0,9.73 7.902,17.63 17.629,17.63 9.746,0 17.632,-7.9 17.632,-17.63 0,-9.74 -7.886,-17.63 -17.632,-17.63 -9.727,0 -17.629,7.89 -17.629,17.63"
         style="fill:#231f20;fill-opacity:1;fill-rule:nonzero;stroke:none"
         transform="matrix(0.13333333,0,0,-0.13333333,0,305.70667)" />
      <path
         id="path23"
         d="m 2390,1359.33 v 2.51 h -897.5 v 894.99 h 895 v -897.5 h 2.5 v 2.51 -2.51 h 2.5 v 902.5 h -905 v -905 h 905 v 2.5 h -2.5"
         style="fill:#231f20;fill-opacity:1;fill-rule:nonzero;stroke:none"
         transform="matrix(0.13333333,0,0,-0.13333333,0,305.70667)" />
      <path
         id="path24"
         d="m 1937.5,1317.71 h 5 v 15 h -5 z"
         style="fill:#231f20;fill-opacity:1;fill-rule:nonzero;stroke:none"
         transform="matrix(0.13333333,0,0,-0.13333333,0,305.70667)" />
      <path
         id="path25"
         d="m 1942.5,1381.43 h -5 v -29.2305 h 5 z m 0,48.71 h -5 v -29.2266 h 5 z m 0,48.72 h -5 v -29.2305 h 5 z m 0,48.72 h -5 v -29.2305 h 5 z m 0,48.72 h -5 v -29.2305 h 5 z m 0,48.71 h -5 v -29.2305 h 5 z m 0,48.72 h -5 v -29.2266 h 5 z m 0,48.72 h -5 v -29.2305 h 5 z m 0,48.71 h -5 v -29.2305 h 5 z m 0,48.72 h -5 v -29.2305 h 5 z m 0,48.71 h -5 v -29.2305 h 5 z m 0,48.72 h -5 v -29.2266 h 5 z m 0,48.72 h -5 v -29.2305 h 5 z m 0,48.71 h -5 v -29.2305 h 5 z m 0,48.72 h -5 v -29.2266 h 5 z m 0,48.72 h -5 v -29.2305 h 5 z m 0,48.71 h -5 v -29.2305 h 5 z m 0,48.72 h -5 v -29.2305 h 5 z m 0,48.71 h -5 v -29.2305 h 5 z"
         style="fill:#231f20;fill-opacity:1;fill-rule:nonzero;stroke:none"
         transform="matrix(0.13333333,0,0,-0.13333333,0,305.70667)" />
      <path
         id="path26"
         d="m 1937.5,2277.81 h 5 v 15 h -5 z"
         style="fill:#231f20;fill-opacity:1;fill-rule:nonzero;stroke:none"
         transform="matrix(0.13333333,0,0,-0.13333333,0,305.70667)" />
      <path
         id="path27"
         d="m 1580.16,2151.54 c 0,9.75 7.89,17.64 17.64,17.64 9.72,0 17.63,-7.89 17.63,-17.64 0,-9.73 -7.91,-17.63 -17.63,-17.63 -9.75,0 -17.64,7.9 -17.64,17.63"
         style="fill:#231f20;fill-opacity:1;fill-rule:nonzero;stroke:none"
         transform="matrix(0.13333333,0,0,-0.13333333,0,305.70667)" />
      <path
         id="path28"
         d="m 1807.97,2151.54 c 0,9.75 7.89,17.64 17.64,17.64 9.75,0 17.64,-7.89 17.64,-17.64 0,-9.73 -7.89,-17.63 -17.64,-17.63 -9.75,0 -17.64,7.9 -17.64,17.63"
         style="fill:#231f20;fill-opacity:1;fill-rule:nonzero;stroke:none"
         transform="matrix(0.13333333,0,0,-0.13333333,0,305.70667)" />
      <path
         id="path29"
         d="m 2035.79,2151.54 c 0,9.75 7.89,17.64 17.63,17.64 9.75,0 17.64,-7.89 17.64,-17.64 0,-9.73 -7.89,-17.63 -17.64,-17.63 -9.74,0 -17.63,7.9 -17.63,17.63"
         style="fill:#231f20;fill-opacity:1;fill-rule:nonzero;stroke:none"
         transform="matrix(0.13333333,0,0,-0.13333333,0,305.70667)" />
      <path
         id="path30"
         d="m 2263.6,2151.54 c 0,9.75 7.91,17.64 17.64,17.64 9.74,0 17.63,-7.89 17.63,-17.64 0,-9.73 -7.89,-17.63 -17.63,-17.63 -9.73,0 -17.64,7.9 -17.64,17.63"
         style="fill:#231f20;fill-opacity:1;fill-rule:nonzero;stroke:none"
         transform="matrix(0.13333333,0,0,-0.13333333,0,305.70667)" />
      <path
         id="path31"
         d="m 1597.8,1464.61 h 233.84 l -226.85,227.07 h 220.74 l 226.86,-227.07 h 234.88 l -226.86,227.07 h 236.93 l -684.41,232.51 h 218.77 l -227.81,224.85 h 220.69 l 227.82,-224.85 h 234.93 l -227.82,224.85 h 221.73 v 5 h -233.91 l 227.81,-224.85 h -220.69 l -227.81,224.85 h -234.93 l 227.81,-224.85 h -236.85 l 684.41,-232.51 h -218.73 l 226.85,-227.07 h -220.74 l -226.86,227.07 h -234.88 l 226.86,-227.07 H 1597.8 v -5"
         style="fill:#231f20;fill-opacity:1;fill-rule:nonzero;stroke:none"
         transform="matrix(0.13333333,0,0,-0.13333333,0,305.70667)" />
      <path
         id="path32"
         d="m 1580.16,1926.69 c 0,9.73 7.89,17.62 17.64,17.62 9.72,0 17.63,-7.89 17.63,-17.62 0,-9.74 -7.91,-17.63 -17.63,-17.63 -9.75,0 -17.64,7.89 -17.64,17.63"
         style="fill:#231f20;fill-opacity:1;fill-rule:nonzero;stroke:none"
         transform="matrix(0.13333333,0,0,-0.13333333,0,305.70667)" />
      <path
         id="path33"
         d="m 1807.97,1926.69 c 0,9.73 7.89,17.62 17.64,17.62 9.75,0 17.64,-7.89 17.64,-17.62 0,-9.74 -7.89,-17.63 -17.64,-17.63 -9.75,0 -17.64,7.89 -17.64,17.63"
         style="fill:#231f20;fill-opacity:1;fill-rule:nonzero;stroke:none"
         transform="matrix(0.13333333,0,0,-0.13333333,0,305.70667)" />
      <path
         id="path34"
         d="m 2035.79,1926.69 c 0,9.73 7.89,17.62 17.63,17.62 9.75,0 17.64,-7.89 17.64,-17.62 0,-9.74 -7.89,-17.63 -17.64,-17.63 -9.74,0 -17.63,7.89 -17.63,17.63"
         style="fill:#231f20;fill-opacity:1;fill-rule:nonzero;stroke:none"
         transform="matrix(0.13333333,0,0,-0.13333333,0,305.70667)" />
      <path
         id="path35"
         d="m 2263.6,1926.69 c 0,9.73 7.91,17.62 17.64,17.62 9.74,0 17.63,-7.89 17.63,-17.62 0,-9.74 -7.89,-17.63 -17.63,-17.63 -9.73,0 -17.64,7.89 -17.64,17.63"
         style="fill:#231f20;fill-opacity:1;fill-rule:nonzero;stroke:none"
         transform="matrix(0.13333333,0,0,-0.13333333,0,305.70667)" />
      <path
         id="path36"
         d="m 1581.12,1694.18 c 0,9.74 7.91,17.63 17.63,17.63 9.75,0 17.64,-7.89 17.64,-17.63 0,-9.73 -7.89,-17.63 -17.64,-17.63 -9.72,0 -17.63,7.9 -17.63,17.63"
         style="fill:#231f20;fill-opacity:1;fill-rule:nonzero;stroke:none"
         transform="matrix(0.13333333,0,0,-0.13333333,0,305.70667)" />
      <path
         id="path37"
         d="m 1808.95,1694.18 c 0,9.74 7.89,17.63 17.62,17.63 9.74,0 17.63,-7.89 17.63,-17.63 0,-9.73 -7.89,-17.63 -17.63,-17.63 -9.73,0 -17.62,7.9 -17.62,17.63"
         style="fill:#231f20;fill-opacity:1;fill-rule:nonzero;stroke:none"
         transform="matrix(0.13333333,0,0,-0.13333333,0,305.70667)" />
      <path
         id="path38"
         d="m 2036.76,1694.18 c 0,9.74 7.89,17.63 17.62,17.63 9.75,0 17.64,-7.89 17.64,-17.63 0,-9.73 -7.89,-17.63 -17.64,-17.63 -9.73,0 -17.62,7.9 -17.62,17.63"
         style="fill:#231f20;fill-opacity:1;fill-rule:nonzero;stroke:none"
         transform="matrix(0.13333333,0,0,-0.13333333,0,305.70667)" />
      <path
         id="path39"
         d="m 2264.58,1694.18 c 0,9.74 7.89,17.63 17.63,17.63 9.73,0 17.62,-7.89 17.62,-17.63 0,-9.73 -7.89,-17.63 -17.62,-17.63 -9.74,0 -17.63,7.9 -17.63,17.63"
         style="fill:#231f20;fill-opacity:1;fill-rule:nonzero;stroke:none"
         transform="matrix(0.13333333,0,0,-0.13333333,0,305.70667)" />
      <path
         id="path40"
         d="m 1580.16,1467.11 c 0,9.74 7.89,17.63 17.64,17.63 9.72,0 17.63,-7.89 17.63,-17.63 0,-9.73 -7.91,-17.63 -17.63,-17.63 -9.75,0 -17.64,7.9 -17.64,17.63"
         style="fill:#231f20;fill-opacity:1;fill-rule:nonzero;stroke:none"
         transform="matrix(0.13333333,0,0,-0.13333333,0,305.70667)" />
      <path
         id="path41"
         d="m 1807.97,1467.11 c 0,9.74 7.89,17.63 17.64,17.63 9.75,0 17.64,-7.89 17.64,-17.63 0,-9.73 -7.89,-17.63 -17.64,-17.63 -9.75,0 -17.64,7.9 -17.64,17.63"
         style="fill:#231f20;fill-opacity:1;fill-rule:nonzero;stroke:none"
         transform="matrix(0.13333333,0,0,-0.13333333,0,305.70667)" />
      <path
         id="path42"
         d="m 2035.79,1467.11 c 0,9.74 7.89,17.63 17.63,17.63 9.75,0 17.64,-7.89 17.64,-17.63 0,-9.73 -7.89,-17.63 -17.64,-17.63 -9.74,0 -17.63,7.9 -17.63,17.63"
         style="fill:#231f20;fill-opacity:1;fill-rule:nonzero;stroke:none"
         transform="matrix(0.13333333,0,0,-0.13333333,0,305.70667)" />
      <path
         id="path43"
         d="m 2263.6,1467.11 c 0,9.74 7.91,17.63 17.64,17.63 9.74,0 17.63,-7.89 17.63,-17.63 0,-9.73 -7.89,-17.63 -17.63,-17.63 -9.73,0 -17.64,7.9 -17.64,17.63"
         style="fill:#231f20;fill-opacity:1;fill-rule:nonzero;stroke:none"
         transform="matrix(0.13333333,0,0,-0.13333333,0,305.70667)" />
      <path
         id="path44"
         d="m 990.004,159.34 v 2.5 H 92.5 v 894.99 H 987.504 V 159.34 h 2.5 v 2.5 -2.5 h 2.5 v 902.49 H 87.5 V 156.84 h 905.004 v 2.5 h -2.5"
         style="fill:#231f20;fill-opacity:1;fill-rule:nonzero;stroke:none"
         transform="matrix(0.13333333,0,0,-0.13333333,0,305.70667)" />
      <path
         id="path45"
         d="M 169.34,615.359 H 529.039 V 975.07 H 169.34 Z"
         style="fill:#bcc7ea;fill-opacity:1;fill-rule:nonzero;stroke:none"
         transform="matrix(0.13333333,0,0,-0.13333333,0,305.70667)" />
      <path
         id="path46"
         d="m 235.902,898.539 c 0,8.231 6.672,14.902 14.903,14.902 8.234,0 14.902,-6.671 14.902,-14.902 0,-8.23 -6.668,-14.898 -14.902,-14.898 -8.231,0 -14.903,6.668 -14.903,14.898"
         style="fill:#231f20;fill-opacity:1;fill-rule:nonzero;stroke:none"
         transform="matrix(0.13333333,0,0,-0.13333333,0,305.70667)" />
      <path
         id="path47"
         d="m 428.434,898.539 c 0,8.231 6.668,14.902 14.894,14.902 8.231,0 14.899,-6.671 14.899,-14.902 0,-8.23 -6.668,-14.898 -14.899,-14.898 -8.226,0 -14.894,6.668 -14.894,14.898"
         style="fill:#231f20;fill-opacity:1;fill-rule:nonzero;stroke:none"
         transform="matrix(0.13333333,0,0,-0.13333333,0,305.70667)" />
      <path
         id="path48"
         d="m 620.953,898.539 c 0,8.231 6.668,14.902 14.902,14.902 8.231,0 14.903,-6.671 14.903,-14.902 0,-8.23 -6.672,-14.898 -14.903,-14.898 -8.234,0 -14.902,6.668 -14.902,14.898"
         style="fill:#231f20;fill-opacity:1;fill-rule:nonzero;stroke:none"
         transform="matrix(0.13333333,0,0,-0.13333333,0,305.70667)" />
      <path
         id="path49"
         d="m 813.48,898.539 c 0,8.231 6.672,14.902 14.903,14.902 8.222,0 14.902,-6.671 14.902,-14.902 0,-8.23 -6.68,-14.898 -14.902,-14.898 -8.231,0 -14.903,6.668 -14.903,14.898"
         style="fill:#231f20;fill-opacity:1;fill-rule:nonzero;stroke:none"
         transform="matrix(0.13333333,0,0,-0.13333333,0,305.70667)" />
      <path
         id="path50"
         d="M 250.805,317.621 H 449.363 L 257.652,509.52 H 443.109 L 634.816,317.621 H 834.414 L 642.695,509.52 H 844.328 L 265.938,706.012 H 449.422 L 256.898,896.039 H 442.305 L 634.828,706.012 H 834.477 L 641.945,896.039 h 186.438 v 5 H 629.762 L 822.293,711.012 H 636.879 L 444.355,901.039 H 244.715 L 437.238,711.012 H 235.676 L 814.063,514.52 H 630.633 L 822.352,322.621 H 636.891 L 445.184,514.52 H 245.59 L 437.301,322.621 H 250.805 v -5"
         style="fill:#231f20;fill-opacity:1;fill-rule:nonzero;stroke:none"
         transform="matrix(0.13333333,0,0,-0.13333333,0,305.70667)" />
      <path
         id="path51"
         d="m 235.902,708.512 c 0,8.238 6.672,14.91 14.903,14.91 8.234,0 14.902,-6.672 14.902,-14.91 0,-8.231 -6.668,-14.903 -14.902,-14.903 -8.231,0 -14.903,6.672 -14.903,14.903"
         style="fill:#231f20;fill-opacity:1;fill-rule:nonzero;stroke:none"
         transform="matrix(0.13333333,0,0,-0.13333333,0,305.70667)" />
      <path
         id="path52"
         d="m 428.434,708.512 c 0,8.238 6.668,14.91 14.894,14.91 8.231,0 14.899,-6.672 14.899,-14.91 0,-8.231 -6.668,-14.903 -14.899,-14.903 -8.226,0 -14.894,6.672 -14.894,14.903"
         style="fill:#231f20;fill-opacity:1;fill-rule:nonzero;stroke:none"
         transform="matrix(0.13333333,0,0,-0.13333333,0,305.70667)" />
      <path
         id="path53"
         d="m 620.953,708.512 c 0,8.238 6.668,14.91 14.902,14.91 8.231,0 14.903,-6.672 14.903,-14.91 0,-8.231 -6.672,-14.903 -14.903,-14.903 -8.234,0 -14.902,6.672 -14.902,14.903"
         style="fill:#231f20;fill-opacity:1;fill-rule:nonzero;stroke:none"
         transform="matrix(0.13333333,0,0,-0.13333333,0,305.70667)" />
      <path
         id="path54"
         d="m 813.48,708.512 c 0,8.238 6.672,14.91 14.903,14.91 8.222,0 14.902,-6.672 14.902,-14.91 0,-8.231 -6.68,-14.903 -14.902,-14.903 -8.231,0 -14.903,6.672 -14.903,14.903"
         style="fill:#231f20;fill-opacity:1;fill-rule:nonzero;stroke:none"
         transform="matrix(0.13333333,0,0,-0.13333333,0,305.70667)" />
      <path
         id="path55"
         d="m 236.723,512.02 c 0,8.23 6.672,14.902 14.898,14.902 8.227,0 14.899,-6.672 14.899,-14.902 0,-8.219 -6.672,-14.899 -14.899,-14.899 -8.226,0 -14.898,6.68 -14.898,14.899"
         style="fill:#231f20;fill-opacity:1;fill-rule:nonzero;stroke:none"
         transform="matrix(0.13333333,0,0,-0.13333333,0,305.70667)" />
      <path
         id="path56"
         d="m 429.242,512.02 c 0,8.23 6.672,14.902 14.903,14.902 8.234,0 14.902,-6.672 14.902,-14.902 0,-8.219 -6.668,-14.899 -14.902,-14.899 -8.231,0 -14.903,6.68 -14.903,14.899"
         style="fill:#231f20;fill-opacity:1;fill-rule:nonzero;stroke:none"
         transform="matrix(0.13333333,0,0,-0.13333333,0,305.70667)" />
      <path
         id="path57"
         d="m 621.773,512.02 c 0,8.23 6.668,14.902 14.891,14.902 8.234,0 14.902,-6.672 14.902,-14.902 0,-8.219 -6.668,-14.899 -14.902,-14.899 -8.223,0 -14.891,6.68 -14.891,14.899"
         style="fill:#231f20;fill-opacity:1;fill-rule:nonzero;stroke:none"
         transform="matrix(0.13333333,0,0,-0.13333333,0,305.70667)" />
      <path
         id="path58"
         d="m 814.293,512.02 c 0,8.23 6.668,14.902 14.902,14.902 8.231,0 14.903,-6.672 14.903,-14.902 0,-8.219 -6.672,-14.899 -14.903,-14.899 -8.234,0 -14.902,6.68 -14.902,14.899"
         style="fill:#231f20;fill-opacity:1;fill-rule:nonzero;stroke:none"
         transform="matrix(0.13333333,0,0,-0.13333333,0,305.70667)" />
      <path
         id="path59"
         d="m 235.902,320.121 c 0,8.238 6.672,14.899 14.903,14.899 8.234,0 14.902,-6.661 14.902,-14.899 0,-8.223 -6.668,-14.902 -14.902,-14.902 -8.231,0 -14.903,6.679 -14.903,14.902"
         style="fill:#231f20;fill-opacity:1;fill-rule:nonzero;stroke:none"
         transform="matrix(0.13333333,0,0,-0.13333333,0,305.70667)" />
      <path
         id="path60"
         d="m 428.434,320.121 c 0,8.238 6.668,14.899 14.894,14.899 8.231,0 14.899,-6.661 14.899,-14.899 0,-8.223 -6.668,-14.902 -14.899,-14.902 -8.226,0 -14.894,6.679 -14.894,14.902"
         style="fill:#231f20;fill-opacity:1;fill-rule:nonzero;stroke:none"
         transform="matrix(0.13333333,0,0,-0.13333333,0,305.70667)" />
      <path
         id="path61"
         d="m 620.953,320.121 c 0,8.238 6.668,14.899 14.902,14.899 8.231,0 14.903,-6.661 14.903,-14.899 0,-8.223 -6.672,-14.902 -14.903,-14.902 -8.234,0 -14.902,6.679 -14.902,14.902"
         style="fill:#231f20;fill-opacity:1;fill-rule:nonzero;stroke:none"
         transform="matrix(0.13333333,0,0,-0.13333333,0,305.70667)" />
      <path
         id="path62"
         d="m 813.48,320.121 c 0,8.238 6.672,14.899 14.903,14.899 8.222,0 14.902,-6.661 14.902,-14.899 0,-8.223 -6.68,-14.902 -14.902,-14.902 -8.231,0 -14.903,6.679 -14.903,14.902"
         style="fill:#231f20;fill-opacity:1;fill-rule:nonzero;stroke:none"
         transform="matrix(0.13333333,0,0,-0.13333333,0,305.70667)" />
      <path
         id="path63"
         d="m 1413.54,606.828 h 15 v 5 h -15 z"
         style="fill:#231f20;fill-opacity:1;fill-rule:nonzero;stroke:none"
         transform="matrix(0.13333333,0,0,-0.13333333,0,305.70667)" />
      <path
         id="path64"
         d="m 1448.73,606.828 h 30.2891 v 5 H 1448.73 Z m 50.48,0 h 30.2891 v 5 H 1499.21 Z m 50.48,0 h 30.2891 v 5 H 1549.69 Z m 50.48,0 h 30.2891 v 5 H 1600.17 Z m 50.48,0 h 30.293 v 5 h -30.293 z m 50.48,0 h 30.293 v 5 h -30.293 z m 50.48,0 h 30.2891 v 5 H 1751.61 Z m 50.48,0 h 30.2891 v 5 H 1802.09 Z m 50.48,0 h 30.2891 v 5 H 1852.57 Z m 50.48,0 h 30.2891 v 5 H 1903.05 Z m 50.48,0 h 30.2891 v 5 H 1953.53 Z m 50.48,0 h 30.2773 v 5 H 2004.01 Z m 50.48,0 h 30.2813 v 5 H 2054.49 Z m 50.48,0 h 30.2813 v 5 H 2104.97 Z m 50.48,0 h 30.2813 v 5 H 2155.45 Z m 50.48,0 h 30.2813 v 5 H 2205.93 Z m 50.48,0 h 30.2813 v 5 H 2256.41 Z m 50.47,0 h 30.293 v 5 h -30.293 z m 50.48,0 h 30.2891 v 5 H 2357.36 Z m 50.48,0 h 30.2891 v 5 H 2407.84 Z"
         style="fill:#231f20;fill-opacity:1;fill-rule:nonzero;stroke:none"
         transform="matrix(0.13333333,0,0,-0.13333333,0,305.70667)" />
      <path
         id="path65"
         d="m 2458.33,606.828 h 15 v 5 h -15 z"
         style="fill:#231f20;fill-opacity:1;fill-rule:nonzero;stroke:none"
         transform="matrix(0.13333333,0,0,-0.13333333,0,305.70667)" />
      <path
         id="path66"
         d="m 1413.54,822.789 h 15 v 5 h -15 z"
         style="fill:#231f20;fill-opacity:1;fill-rule:nonzero;stroke:none"
         transform="matrix(0.13333333,0,0,-0.13333333,0,305.70667)" />
      <path
         id="path67"
         d="m 1448.73,822.789 h 30.2891 v 5 H 1448.73 Z m 50.48,0 h 30.2891 v 5 H 1499.21 Z m 50.48,0 h 30.2891 v 5 H 1549.69 Z m 50.48,0 h 30.2891 v 5 H 1600.17 Z m 50.48,0 h 30.293 v 5 h -30.293 z m 50.48,0 h 30.293 v 5 h -30.293 z m 50.48,0 h 30.2891 v 5 H 1751.61 Z m 50.48,0 h 30.2891 v 5 H 1802.09 Z m 50.48,0 h 30.2891 v 5 H 1852.57 Z m 50.48,0 h 30.2891 v 5 H 1903.05 Z m 50.48,0 h 30.2891 v 5 H 1953.53 Z m 50.48,0 h 30.2773 v 5 H 2004.01 Z m 50.48,0 h 30.2813 v 5 H 2054.49 Z m 50.48,0 h 30.2813 v 5 H 2104.97 Z m 50.48,0 h 30.2813 v 5 H 2155.45 Z m 50.48,0 h 30.2813 v 5 H 2205.93 Z m 50.48,0 h 30.2813 v 5 H 2256.41 Z m 50.47,0 h 30.293 v 5 h -30.293 z m 50.48,0 h 30.2891 v 5 H 2357.36 Z m 50.48,0 h 30.2891 v 5 H 2407.84 Z"
         style="fill:#231f20;fill-opacity:1;fill-rule:nonzero;stroke:none"
         transform="matrix(0.13333333,0,0,-0.13333333,0,305.70667)" />
      <path
         id="path68"
         d="m 2458.33,822.789 h 15 v 5 h -15 z"
         style="fill:#231f20;fill-opacity:1;fill-rule:nonzero;stroke:none"
         transform="matrix(0.13333333,0,0,-0.13333333,0,305.70667)" />
      <path
         id="path69"
         d="m 1413.54,390.859 h 15 v 5 h -15 z"
         style="fill:#231f20;fill-opacity:1;fill-rule:nonzero;stroke:none"
         transform="matrix(0.13333333,0,0,-0.13333333,0,305.70667)" />
      <path
         id="path70"
         d="m 1448.73,390.859 h 30.2891 v 5 H 1448.73 Z m 50.48,0 h 30.2891 v 5 H 1499.21 Z m 50.48,0 h 30.2891 v 5 H 1549.69 Z m 50.48,0 h 30.2891 v 5 H 1600.17 Z m 50.48,0 h 30.293 v 5 h -30.293 z m 50.48,0 h 30.293 v 5 h -30.293 z m 50.48,0 h 30.2891 v 5 H 1751.61 Z m 50.48,0 h 30.2891 v 5 H 1802.09 Z m 50.48,0 h 30.2891 v 5 H 1852.57 Z m 50.48,0 h 30.2891 v 5 H 1903.05 Z m 50.48,0 h 30.2891 v 5 H 1953.53 Z m 50.48,0 h 30.2773 v 5 H 2004.01 Z m 50.48,0 h 30.2813 v 5 H 2054.49 Z m 50.48,0 h 30.2813 v 5 H 2104.97 Z m 50.48,0 h 30.2813 v 5 H 2155.45 Z m 50.48,0 h 30.2813 v 5 H 2205.93 Z m 50.48,0 h 30.2813 v 5 H 2256.41 Z m 50.47,0 h 30.293 v 5 h -30.293 z m 50.48,0 h 30.2891 v 5 H 2357.36 Z m 50.48,0 h 30.2891 v 5 H 2407.84 Z"
         style="fill:#231f20;fill-opacity:1;fill-rule:nonzero;stroke:none"
         transform="matrix(0.13333333,0,0,-0.13333333,0,305.70667)" />
      <path
         id="path71"
         d="m 2458.33,390.859 h 15 v 5 h -15 z"
         style="fill:#231f20;fill-opacity:1;fill-rule:nonzero;stroke:none"
         transform="matrix(0.13333333,0,0,-0.13333333,0,305.70667)" />
      <path
         id="path72"
         d="m 2390,159.34 v 2.5 h -897.5 v 894.99 h 895 V 159.34 h 2.5 v 2.5 -2.5 h 2.5 v 902.49 h -905 V 156.84 h 905 v 2.5 h -2.5"
         style="fill:#231f20;fill-opacity:1;fill-rule:nonzero;stroke:none"
         transform="matrix(0.13333333,0,0,-0.13333333,0,305.70667)" />
      <path
         id="path73"
         d="m 1595.84,936.629 c 0,9.312 7.56,16.859 16.88,16.859 9.32,0 16.86,-7.547 16.86,-16.859 0,-9.32 -7.54,-16.859 -16.86,-16.859 -9.32,0 -16.88,7.539 -16.88,16.859"
         style="fill:#231f20;fill-opacity:1;fill-rule:nonzero;stroke:none"
         transform="matrix(0.13333333,0,0,-0.13333333,0,305.70667)" />
      <path
         id="path74"
         d="m 1813.74,936.629 c 0,9.312 7.54,16.859 16.85,16.859 9.32,0 16.88,-7.547 16.88,-16.859 0,-9.32 -7.56,-16.859 -16.88,-16.859 -9.31,0 -16.85,7.539 -16.85,16.859"
         style="fill:#231f20;fill-opacity:1;fill-rule:nonzero;stroke:none"
         transform="matrix(0.13333333,0,0,-0.13333333,0,305.70667)" />
      <path
         id="path75"
         d="m 2031.63,936.629 c 0,9.312 7.54,16.859 16.85,16.859 9.32,0 16.86,-7.547 16.86,-16.859 0,-9.32 -7.54,-16.859 -16.86,-16.859 -9.31,0 -16.85,7.539 -16.85,16.859"
         style="fill:#231f20;fill-opacity:1;fill-rule:nonzero;stroke:none"
         transform="matrix(0.13333333,0,0,-0.13333333,0,305.70667)" />
      <path
         id="path76"
         d="m 2249.5,936.629 c 0,9.312 7.56,16.859 16.87,16.859 9.3,0 16.86,-7.547 16.86,-16.859 0,-9.32 -7.56,-16.859 -16.86,-16.859 -9.31,0 -16.87,7.539 -16.87,16.859"
         style="fill:#231f20;fill-opacity:1;fill-rule:nonzero;stroke:none"
         transform="matrix(0.13333333,0,0,-0.13333333,0,305.70667)" />
      <path
         id="path77"
         d="m 1612.72,279.531 h 223.9 l -216.95,217.18 h 210.82 l 216.95,-217.18 h 224.96 l -216.97,217.18 h 226.99 L 1627.85,719.07 h 208.83 l -217.87,215.059 h 210.75 l 217.9,-215.059 h 225 l -217.89,215.059 h 211.8 v 5 H 2042.39 L 2260.28,724.07 H 2049.51 L 1831.62,939.129 H 1606.63 L 1824.5,724.07 h -226.91 l 654.57,-222.359 h -208.79 l 216.97,-217.18 h -210.82 l -216.96,217.18 h -224.95 l 216.95,-217.18 h -211.84 v -5"
         style="fill:#231f20;fill-opacity:1;fill-rule:nonzero;stroke:none"
         transform="matrix(0.13333333,0,0,-0.13333333,0,305.70667)" />
      <path
         id="path78"
         d="m 1595.84,721.57 c 0,9.321 7.56,16.871 16.88,16.871 9.32,0 16.86,-7.55 16.86,-16.871 0,-9.308 -7.54,-16.859 -16.86,-16.859 -9.32,0 -16.88,7.551 -16.88,16.859"
         style="fill:#231f20;fill-opacity:1;fill-rule:nonzero;stroke:none"
         transform="matrix(0.13333333,0,0,-0.13333333,0,305.70667)" />
      <path
         id="path79"
         d="m 1813.74,721.57 c 0,9.321 7.54,16.871 16.85,16.871 9.32,0 16.88,-7.55 16.88,-16.871 0,-9.308 -7.56,-16.859 -16.88,-16.859 -9.31,0 -16.85,7.551 -16.85,16.859"
         style="fill:#231f20;fill-opacity:1;fill-rule:nonzero;stroke:none"
         transform="matrix(0.13333333,0,0,-0.13333333,0,305.70667)" />
      <path
         id="path80"
         d="m 2031.63,721.57 c 0,9.321 7.54,16.871 16.85,16.871 9.32,0 16.86,-7.55 16.86,-16.871 0,-9.308 -7.54,-16.859 -16.86,-16.859 -9.31,0 -16.85,7.551 -16.85,16.859"
         style="fill:#231f20;fill-opacity:1;fill-rule:nonzero;stroke:none"
         transform="matrix(0.13333333,0,0,-0.13333333,0,305.70667)" />
      <path
         id="path81"
         d="m 2249.5,721.57 c 0,9.321 7.56,16.871 16.87,16.871 9.3,0 16.86,-7.55 16.86,-16.871 0,-9.308 -7.56,-16.859 -16.86,-16.859 -9.31,0 -16.87,7.551 -16.87,16.859"
         style="fill:#231f20;fill-opacity:1;fill-rule:nonzero;stroke:none"
         transform="matrix(0.13333333,0,0,-0.13333333,0,305.70667)" />
      <path
         id="path82"
         d="m 1596.78,499.211 c 0,9.309 7.54,16.848 16.86,16.848 9.31,0 16.85,-7.539 16.85,-16.848 0,-9.32 -7.54,-16.871 -16.85,-16.871 -9.32,0 -16.86,7.551 -16.86,16.871"
         style="fill:#231f20;fill-opacity:1;fill-rule:nonzero;stroke:none"
         transform="matrix(0.13333333,0,0,-0.13333333,0,305.70667)" />
      <path
         id="path83"
         d="m 1814.65,499.211 c 0,9.309 7.56,16.848 16.88,16.848 9.3,0 16.85,-7.539 16.85,-16.848 0,-9.32 -7.55,-16.871 -16.85,-16.871 -9.32,0 -16.88,7.551 -16.88,16.871"
         style="fill:#231f20;fill-opacity:1;fill-rule:nonzero;stroke:none"
         transform="matrix(0.13333333,0,0,-0.13333333,0,305.70667)" />
      <path
         id="path84"
         d="m 2032.54,499.211 c 0,9.309 7.54,16.848 16.86,16.848 9.32,0 16.87,-7.539 16.87,-16.848 0,-9.32 -7.55,-16.871 -16.87,-16.871 -9.32,0 -16.86,7.551 -16.86,16.871"
         style="fill:#231f20;fill-opacity:1;fill-rule:nonzero;stroke:none"
         transform="matrix(0.13333333,0,0,-0.13333333,0,305.70667)" />
      <path
         id="path85"
         d="m 2250.42,499.211 c 0,9.309 7.55,16.848 16.87,16.848 9.32,0 16.86,-7.539 16.86,-16.848 0,-9.32 -7.54,-16.871 -16.86,-16.871 -9.32,0 -16.87,7.551 -16.87,16.871"
         style="fill:#231f20;fill-opacity:1;fill-rule:nonzero;stroke:none"
         transform="matrix(0.13333333,0,0,-0.13333333,0,305.70667)" />
      <path
         id="path86"
         d="m 1595.84,282.031 c 0,9.321 7.56,16.86 16.88,16.86 9.32,0 16.86,-7.539 16.86,-16.86 0,-9.312 -7.54,-16.851 -16.86,-16.851 -9.32,0 -16.88,7.539 -16.88,16.851"
         style="fill:#231f20;fill-opacity:1;fill-rule:nonzero;stroke:none"
         transform="matrix(0.13333333,0,0,-0.13333333,0,305.70667)" />
      <path
         id="path87"
         d="m 1813.74,282.031 c 0,9.321 7.54,16.86 16.85,16.86 9.32,0 16.88,-7.539 16.88,-16.86 0,-9.312 -7.56,-16.851 -16.88,-16.851 -9.31,0 -16.85,7.539 -16.85,16.851"
         style="fill:#231f20;fill-opacity:1;fill-rule:nonzero;stroke:none"
         transform="matrix(0.13333333,0,0,-0.13333333,0,305.70667)" />
      <path
         id="path88"
         d="m 2031.63,282.031 c 0,9.321 7.54,16.86 16.85,16.86 9.32,0 16.86,-7.539 16.86,-16.86 0,-9.312 -7.54,-16.851 -16.86,-16.851 -9.31,0 -16.85,7.539 -16.85,16.851"
         style="fill:#231f20;fill-opacity:1;fill-rule:nonzero;stroke:none"
         transform="matrix(0.13333333,0,0,-0.13333333,0,305.70667)" />
      <path
         id="path89"
         d="m 2249.5,282.031 c 0,9.321 7.56,16.86 16.87,16.86 9.3,0 16.86,-7.539 16.86,-16.86 0,-9.312 -7.56,-16.851 -16.86,-16.851 -9.31,0 -16.87,7.539 -16.87,16.851"
         style="fill:#231f20;fill-opacity:1;fill-rule:nonzero;stroke:none"
         transform="matrix(0.13333333,0,0,-0.13333333,0,305.70667)" />
      <path
         id="path90"
         d="m 2.6943203,1.32425 c -0.890625,-0.76171875 -1.40625,-2.203125 -1.40625,-3.75 0,-1.546875 0.515625,-3 1.40625,-3.75 L 2.5419766,-6.3866875 c -1.3242188,0.9023438 -1.91015629,2.3320313 -1.91015629,3.9492188 0,1.6289062 0.58593749,3.0820312 1.91015629,3.9609375 z m 3.8935547,-1.67578125 -0.09375,-0.234375 C 6.400375,-0.5273125 6.2714687,-0.4804375 6.166,-0.4804375 c -0.1523438,0 -0.3164063,-0.140625 -0.3164063,-0.5507812 v -1.6640625 c 0,-0.46875 -0.082031,-0.84375 -0.3984375,-1.1015625 C 5.2519375,-3.9609062 4.9824062,-4.0429375 4.712875,-4.0429375 4.19725,-3.9374687 3.6113125,-3.5859062 3.3652187,-3.410125 3.1894375,-3.2812187 3.07225,-3.1874687 3.07225,-3.0468437 c 0,0.1992187 0.234375,0.3867187 0.3984375,0.3867187 0.1289062,0 0.2226562,-0.070312 0.2578125,-0.2109375 0.070312,-0.28125 0.1523437,-0.4804687 0.2695312,-0.5976562 0.09375,-0.1054688 0.2226563,-0.1757813 0.4101563,-0.1757813 0.4453125,0 0.75,0.3632813 0.75,1.0195313 v 0.1640625 c -0.1992188,0.1523437 -0.8554688,0.3984375 -1.3945313,0.5742187 -0.4921875,0.1757813 -0.7265625,0.4570313 -0.7265625,0.90234375 0,0.5625 0.4453125,1.08984375 1.078125,1.08984375 0.2695313,0 0.703125,-0.328125 1.0664063,-0.57421875 0.046875,0.15234375 0.09375,0.28125 0.2109375,0.41015625 C 5.4980312,0.02346875 5.6855312,0.1055 5.8144375,0.1055 Z M 5.1581875,-0.7616875 c -0.1640625,0.1640625 -0.4804688,0.31640625 -0.7148438,0.328125 -0.28125,0 -0.6445312,-0.22265625 -0.6445312,-0.6914062 0,-0.328125 0.1992187,-0.4921875 0.5507812,-0.65625 0.1875,-0.09375 0.6210938,-0.28125 0.8085938,-0.375 z M 6.7958828,-6.17575 c 0.890625,0.7382813 1.4179688,2.203125 1.4179688,3.75 0,1.546875 -0.5039063,2.98828125 -1.4179688,3.75 L 6.9599453,1.5234688 C 8.3076016,0.60940625 8.8583828,-0.8085625 8.8583828,-2.42575 c 0,-1.6289062 -0.5507812,-3.0585937 -1.8984375,-3.9609375 z m 134.9033172,7.5 c -0.89062,-0.76171875 -1.40625,-2.203125 -1.40625,-3.75 0,-1.546875 0.51563,-3 1.40625,-3.75 l -0.15234,-0.2109375 c -1.32422,0.9023438 -1.91016,2.3320313 -1.91016,3.9492188 0,1.6289062 0.58594,3.0820312 1.91016,3.9609375 z m 2.00977,-4.9570312 V -6.410125 c -0.33985,0.1171875 -0.89063,0.2578125 -1.3125,0.3164063 v 0.2109375 c 0.58594,0.046875 0.59765,0.1054687 0.59765,0.6679687 v 5.00390625 c 0.49219,0.234375 0.94922,0.31640625 1.32422,0.31640625 1.20703,0 2.26172,-0.9375 2.26172,-2.2617187 0,-1.0546875 -0.80859,-1.8867188 -1.78125,-1.8867188 -0.0937,0 -0.22265,0.023437 -0.36328,0.09375 z m 0,0.2695312 c 0.16406,-0.1054687 0.44531,-0.1757812 0.70312,-0.1757812 0.73828,0 1.3711,0.5976562 1.3711,1.6171875 0,1.05468745 -0.48047,1.68749995 -1.21875,1.68749995 -0.48047,-0.0117188 -0.75,-0.328125 -0.8086,-0.50390625 -0.0352,-0.0820313 -0.0469,-0.17578125 -0.0469,-0.3046875 z m 3.16699,-2.8125 c 0.89063,0.7382813 1.41797,2.203125 1.41797,3.75 0,1.546875 -0.50391,2.98828125 -1.41797,3.75 l 0.16406,0.1992188 c 1.34766,-0.91406255 1.89844,-2.3320313 1.89844,-3.9492188 0,-1.6289062 -0.55078,-3.0585937 -1.89844,-3.9609375 z M 2.8408047,119.65726 c -0.890625,-0.76172 -1.40625,-2.20313 -1.40625,-3.75 0,-1.54688 0.515625,-3 1.40625,-3.75 l -0.1523438,-0.21094 c -1.3242187,0.90234 -1.91015621,2.33203 -1.91015621,3.94922 0,1.62891 0.58593751,3.08203 1.91015621,3.96094 z m 3.4746094,-2.32031 c -0.4101563,0.38671 -0.703125,0.49218 -1.0898438,0.49218 -0.5039062,0 -1.359375,-0.41015 -1.359375,-1.66406 0,-0.94922 0.515625,-1.44141 1.1132813,-1.44141 0.3164062,0 0.6328125,0.11719 0.9023437,0.375 0.082031,0.0703 0.1171875,0.0937 0.1640625,0.0937 0.1054688,0 0.3046875,-0.19921 0.3046875,-0.38671 0,-0.10547 -0.035156,-0.17579 -0.1523437,-0.28125 -0.140625,-0.11719 -0.4335938,-0.23438 -0.796875,-0.23438 -0.3515625,0 -0.890625,0.14063 -1.359375,0.50391 -0.5976563,0.46875 -0.9023438,1.07812 -0.9023438,1.76953 0,0.96094 0.6679688,1.875 1.8046875,1.875 0.5273438,0 1.1367188,-0.39844 1.5234375,-0.91406 z m 0.3339843,-5.17969 c 0.890625,0.73828 1.4179688,2.20312 1.4179688,3.75 0,1.54687 -0.5039063,2.98828 -1.4179688,3.75 l 0.1640625,0.19922 c 1.3476563,-0.91407 1.8984375,-2.33203 1.8984375,-3.94922 0,-1.62891 -0.5507812,-3.0586 -1.8984375,-3.96094 z m 135.1347616,7.5 c -0.89062,-0.76172 -1.40625,-2.20313 -1.40625,-3.75 0,-1.54688 0.51563,-3 1.40625,-3.75 l -0.15234,-0.21094 c -1.32422,0.90234 -1.91016,2.33203 -1.91016,3.94922 0,1.62891 0.58594,3.08203 1.91016,3.96094 z m 4.61133,-1.78125 -0.29297,-0.0234 c -0.32812,-0.0469 -0.38672,-0.082 -0.38672,-0.55078 v -5.37891 c -0.33984,0.11719 -0.9375,0.25782 -1.40625,0.31641 v 0.21094 c 0.64454,0.0469 0.69141,0.082 0.69141,0.66797 v 1.27734 c -0.21094,-0.082 -0.46875,-0.10547 -0.59766,-0.10547 -1.21875,0 -2.32031,0.98438 -2.32031,2.23828 0,1.25391 0.94922,1.91016 1.66406,1.91016 0.10547,0 0.35157,-0.0469 0.70313,-0.25781 l 0.55078,-0.32813 v 0.58594 c 0.52734,-0.1875 1.19531,-0.30469 1.39453,-0.33985 z m -1.39453,-0.30469 c -0.21094,0.16406 -0.53906,0.30469 -0.86719,0.30469 -0.57422,0 -1.23047,-0.52735 -1.23047,-1.59375 0,-1.30078 0.76172,-1.65235 1.17188,-1.65235 0.33984,0 0.71484,0.14063 0.92578,0.45704 z m 1.79004,-5.41406 c 0.89062,0.73828 1.41797,2.20312 1.41797,3.75 0,1.54687 -0.50391,2.98828 -1.41797,3.75 l 0.16406,0.19922 c 1.34766,-0.91407 1.89844,-2.33203 1.89844,-3.94922 0,-1.62891 -0.55078,-3.0586 -1.89844,-3.96094 z m 0,0"
         style="fill:#231f20;fill-opacity:1;fill-rule:nonzero;stroke:none"
         aria-label="(a)(b)&#10;(c)(d)"
         transform="matrix(1.3333333,0,0,1.3333333,66.278667,143.60933)" />
    </g>
  </g>
</svg>
