<?xml version="1.0" encoding="UTF-8" standalone="no"?>
<!-- Created with Inkscape (http://www.inkscape.org/) -->

<svg
   version="1.1"
   id="svg1"
   width="389.90668"
   height="134.8"
   viewBox="0 0 389.90668 134.8"
   sodipodi:docname="pha07f03.eps"
   xmlns:inkscape="http://www.inkscape.org/namespaces/inkscape"
   xmlns:sodipodi="http://sodipodi.sourceforge.net/DTD/sodipodi-0.dtd"
   xmlns="http://www.w3.org/2000/svg"
   xmlns:svg="http://www.w3.org/2000/svg">
  <defs
     id="defs1" />
  <sodipodi:namedview
     id="namedview1"
     pagecolor="#ffffff"
     bordercolor="#000000"
     borderopacity="0.25"
     inkscape:showpageshadow="2"
     inkscape:pageopacity="0.0"
     inkscape:pagecheckerboard="0"
     inkscape:deskcolor="#d1d1d1">
    <inkscape:page
       x="0"
       y="0"
       inkscape:label="1"
       id="page1"
       width="389.90668"
       height="134.8"
       margin="0"
       bleed="0" />
  </sodipodi:namedview>
  <g
     id="g1"
     inkscape:groupmode="layer"
     inkscape:label="1">
    <g
       id="group-R5">
      <path
         id="path2"
         d="m 126.137,396.449 c -57.305,0 -103.7698,-46.461 -103.7698,-103.777 0,-57.317 46.4648,-103.77 103.7698,-103.77 57.324,0 103.781,46.453 103.781,103.77 0,57.316 -46.457,103.777 -103.781,103.777 z m 0,-5 c 54.468,0 98.781,-44.308 98.781,-98.777 0,-54.465 -44.313,-98.77 -98.781,-98.77 -54.4612,0 -98.7698,44.305 -98.7698,98.77 0,54.469 44.3086,98.777 98.7698,98.777"
         style="fill:#231f20;fill-opacity:1;fill-rule:nonzero;stroke:none"
         transform="matrix(0.13333333,0,0,-0.13333333,0,134.8)" />
      <path
         id="path3"
         d="m 280.277,582.301 26.516,-120.617 26.512,-120.61 91.203,83.266 91.191,83.265 -117.707,37.344 -117.715,37.352 z m 6.743,-7.383 109.46,-34.73 109.454,-34.731 -84.797,-77.426 -84.809,-77.426 -24.652,112.153 -24.656,112.16"
         style="fill:#231f20;fill-opacity:1;fill-rule:nonzero;stroke:none"
         transform="matrix(0.13333333,0,0,-0.13333333,0,134.8)" />
      <path
         id="path4"
         d="M 544.688,991.488 742.734,773.445 940.781,555.406 884.727,699.641 828.672,843.867 686.68,917.676 544.688,991.488 Z M 567.184,974.16 684.375,913.238 824.691,840.297 880.066,697.828 926.352,578.727 746.438,776.809 567.184,974.16"
         style="fill:#231f20;fill-opacity:1;fill-rule:nonzero;stroke:none"
         transform="matrix(0.13333333,0,0,-0.13333333,0,134.8)" />
      <path
         id="path5"
         d="M 530.723,596.996 H 9.16016 v -424 H 530.723 v 424 z m -5,-5 v -414 H 14.1602 v 414 H 525.723"
         style="fill:#231f20;fill-opacity:1;fill-rule:nonzero;stroke:none"
         transform="matrix(0.13333333,0,0,-0.13333333,0,134.8)" />
      <path
         id="path6"
         d="M 0,1011.04 V 165.078 l 960.941,-1 V 1010.04 L 0,1011.04 Z m 5,-5 950.941,-1 V 169.082 L 5,170.074 v 835.966"
         style="fill:#231f20;fill-opacity:1;fill-rule:nonzero;stroke:none"
         transform="matrix(0.13333333,0,0,-0.13333333,0,134.8)" />
      <path
         id="path7"
         d="m 1858.16,407.441 26.51,-120.617 26.51,-120.601 91.2,83.257 91.19,83.27 -117.7,37.348 -117.71,37.343 z m 6.74,-7.382 109.46,-34.727 109.45,-34.73 -84.8,-77.426 -84.8,-77.422 -24.66,112.144 -24.65,112.161"
         style="fill:#231f20;fill-opacity:1;fill-rule:nonzero;stroke:none"
         transform="matrix(0.13333333,0,0,-0.13333333,0,134.8)" />
      <path
         id="path8"
         d="m 1443.52,404.387 c -57.32,0 -103.78,-46.461 -103.78,-103.778 0,-57.32 46.46,-103.777 103.78,-103.777 57.31,0 103.77,46.457 103.77,103.777 0,57.317 -46.46,103.778 -103.77,103.778 z m 0,-5 c 54.46,0 98.77,-44.313 98.77,-98.778 0,-54.464 -44.31,-98.777 -98.77,-98.777 -54.47,0 -98.78,44.313 -98.78,98.777 0,54.465 44.31,98.778 98.78,98.778"
         style="fill:#231f20;fill-opacity:1;fill-rule:nonzero;stroke:none"
         transform="matrix(0.13333333,0,0,-0.13333333,0,134.8)" />
      <path
         id="path9"
         d="M 2212.51,914.516 1712.9,658.035"
         style="fill:none;stroke:#231f20;stroke-width:5;stroke-linecap:butt;stroke-linejoin:bevel;stroke-miterlimit:10;stroke-dasharray:none;stroke-opacity:1"
         transform="matrix(0.13333333,0,0,-0.13333333,0,134.8)" />
      <path
         id="path10"
         d="m 2206.6,914.516 523.6,-256.86"
         style="fill:none;stroke:#231f20;stroke-width:5;stroke-linecap:butt;stroke-linejoin:bevel;stroke-miterlimit:10;stroke-dasharray:none;stroke-opacity:1"
         transform="matrix(0.13333333,0,0,-0.13333333,0,134.8)" />
      <path
         id="path11"
         d="M 1710.63,654.727 1464.13,408.219"
         style="fill:none;stroke:#231f20;stroke-width:5;stroke-linecap:butt;stroke-linejoin:bevel;stroke-miterlimit:10;stroke-dasharray:none;stroke-opacity:1"
         transform="matrix(0.13333333,0,0,-0.13333333,0,134.8)" />
      <path
         id="path12"
         d="M 1713.59,654.727 1955.66,412.645"
         style="fill:none;stroke:#231f20;stroke-width:5;stroke-linecap:butt;stroke-linejoin:bevel;stroke-miterlimit:10;stroke-dasharray:none;stroke-opacity:1"
         transform="matrix(0.13333333,0,0,-0.13333333,0,134.8)" />
      <path
         id="path13"
         d="m 2159.37,914.516 c 0,30.98 25.11,56.089 56.09,56.089 30.98,0 56.09,-25.109 56.09,-56.089 0,-30.981 -25.11,-56.086 -56.09,-56.086 -30.98,0 -56.09,25.105 -56.09,56.086"
         style="fill:#ffffff;fill-opacity:1;fill-rule:nonzero;stroke:none"
         transform="matrix(0.13333333,0,0,-0.13333333,0,134.8)" />
      <path
         id="path14"
         d="m 2159.37,914.516 c 0,30.98 25.11,56.089 56.09,56.089 30.98,0 56.09,-25.109 56.09,-56.089 0,-30.981 -25.11,-56.086 -56.09,-56.086 -30.98,0 -56.09,25.105 -56.09,56.086 z"
         style="fill:none;stroke:#231f20;stroke-width:5;stroke-linecap:butt;stroke-linejoin:bevel;stroke-miterlimit:10;stroke-dasharray:none;stroke-opacity:1"
         transform="matrix(0.13333333,0,0,-0.13333333,0,134.8)" />
      <path
         id="path15"
         d="m 1652.29,652.465 c 0,30.98 25.11,56.09 56.09,56.09 30.98,0 56.09,-25.11 56.09,-56.09 0,-30.977 -25.11,-56.086 -56.09,-56.086 -30.98,0 -56.09,25.109 -56.09,56.086"
         style="fill:#ffffff;fill-opacity:1;fill-rule:nonzero;stroke:none"
         transform="matrix(0.13333333,0,0,-0.13333333,0,134.8)" />
      <path
         id="path16"
         d="m 1652.29,652.465 c 0,30.98 25.11,56.09 56.09,56.09 30.98,0 56.09,-25.11 56.09,-56.09 0,-30.977 -25.11,-56.086 -56.09,-56.086 -30.98,0 -56.09,25.109 -56.09,56.086 z"
         style="fill:none;stroke:#231f20;stroke-width:5;stroke-linecap:butt;stroke-linejoin:bevel;stroke-miterlimit:10;stroke-dasharray:none;stroke-opacity:1"
         transform="matrix(0.13333333,0,0,-0.13333333,0,134.8)" />
      <path
         id="path17"
         d="M 2537.7,804.652 2808.43,663.906 2915.32,388.891 Z"
         style="fill:#ffffff;fill-opacity:1;fill-rule:nonzero;stroke:none"
         transform="matrix(0.13333333,0,0,-0.13333333,0,134.8)" />
      <path
         id="path18"
         d="m 2526.45,813.316 198.04,-218.043 198.05,-218.043 -56.06,144.231 -56.06,144.227 -141.98,73.816 -141.99,73.812 z m 22.49,-17.332 117.19,-60.921 140.32,-72.946 55.38,-142.469 46.29,-119.097 -179.93,198.082 -179.25,197.351"
         style="fill:#231f20;fill-opacity:1;fill-rule:nonzero;stroke:none"
         transform="matrix(0.13333333,0,0,-0.13333333,0,134.8)" />
      <path
         id="path19"
         d="m 2097.76,175.754 v -12.5 h -12.5"
         style="fill:none;stroke:#231f20;stroke-width:3.5;stroke-linecap:butt;stroke-linejoin:bevel;stroke-miterlimit:4;stroke-dasharray:none;stroke-opacity:1"
         transform="matrix(0.13333333,0,0,-0.13333333,0,134.8)" />
      <path
         id="path20"
         d="M 2069.57,163.254 H 1868.12"
         style="fill:none;stroke:#231f20;stroke-width:3.5;stroke-linecap:butt;stroke-linejoin:bevel;stroke-miterlimit:4;stroke-dasharray:26.1628, 15.6977;stroke-dashoffset:0;stroke-opacity:1"
         transform="matrix(0.13333333,0,0,-0.13333333,0,134.8)" />
      <path
         id="path21"
         d="m 1860.26,163.254 h -12.5 v 12.5"
         style="fill:none;stroke:#231f20;stroke-width:3.5;stroke-linecap:butt;stroke-linejoin:bevel;stroke-miterlimit:4;stroke-dasharray:none;stroke-opacity:1"
         transform="matrix(0.13333333,0,0,-0.13333333,0,134.8)" />
      <path
         id="path22"
         d="M 1847.76,191.254 V 390.238"
         style="fill:none;stroke:#231f20;stroke-width:3.5;stroke-linecap:butt;stroke-linejoin:bevel;stroke-miterlimit:4;stroke-dasharray:25.842, 15.5052;stroke-dashoffset:0;stroke-opacity:1"
         transform="matrix(0.13333333,0,0,-0.13333333,0,134.8)" />
      <path
         id="path23"
         d="m 1847.76,397.992 v 12.5 h 12.5"
         style="fill:none;stroke:#231f20;stroke-width:3.5;stroke-linecap:butt;stroke-linejoin:bevel;stroke-miterlimit:4;stroke-dasharray:none;stroke-opacity:1"
         transform="matrix(0.13333333,0,0,-0.13333333,0,134.8)" />
      <path
         id="path24"
         d="m 1875.96,410.492 h 201.45"
         style="fill:none;stroke:#231f20;stroke-width:3.5;stroke-linecap:butt;stroke-linejoin:bevel;stroke-miterlimit:4;stroke-dasharray:26.1628, 15.6977;stroke-dashoffset:0;stroke-opacity:1"
         transform="matrix(0.13333333,0,0,-0.13333333,0,134.8)" />
      <path
         id="path25"
         d="m 2085.26,410.492 h 12.5 v -12.5"
         style="fill:none;stroke:#231f20;stroke-width:3.5;stroke-linecap:butt;stroke-linejoin:bevel;stroke-miterlimit:4;stroke-dasharray:none;stroke-opacity:1"
         transform="matrix(0.13333333,0,0,-0.13333333,0,134.8)" />
      <path
         id="path26"
         d="M 2097.76,382.488 V 183.508"
         style="fill:none;stroke:#231f20;stroke-width:3.5;stroke-linecap:butt;stroke-linejoin:bevel;stroke-miterlimit:4;stroke-dasharray:25.842, 15.5052;stroke-dashoffset:0;stroke-opacity:1"
         transform="matrix(0.13333333,0,0,-0.13333333,0,134.8)" />
      <path
         id="path27"
         d="m 519.887,351.914 v -12.5 h -12.5"
         style="fill:none;stroke:#231f20;stroke-width:3.5;stroke-linecap:butt;stroke-linejoin:bevel;stroke-miterlimit:4;stroke-dasharray:none;stroke-opacity:1"
         transform="matrix(0.13333333,0,0,-0.13333333,0,134.8)" />
      <path
         id="path28"
         d="M 491.688,339.414 H 290.234"
         style="fill:none;stroke:#231f20;stroke-width:3.5;stroke-linecap:butt;stroke-linejoin:bevel;stroke-miterlimit:4;stroke-dasharray:26.1628, 15.6977;stroke-dashoffset:0;stroke-opacity:1"
         transform="matrix(0.13333333,0,0,-0.13333333,0,134.8)" />
      <path
         id="path29"
         d="m 282.387,339.414 h -12.5 v 12.5"
         style="fill:none;stroke:#231f20;stroke-width:3.5;stroke-linecap:butt;stroke-linejoin:bevel;stroke-miterlimit:4;stroke-dasharray:none;stroke-opacity:1"
         transform="matrix(0.13333333,0,0,-0.13333333,0,134.8)" />
      <path
         id="path30"
         d="M 269.887,367.418 V 566.402"
         style="fill:none;stroke:#231f20;stroke-width:3.5;stroke-linecap:butt;stroke-linejoin:bevel;stroke-miterlimit:4;stroke-dasharray:25.842, 15.5052;stroke-dashoffset:0;stroke-opacity:1"
         transform="matrix(0.13333333,0,0,-0.13333333,0,134.8)" />
      <path
         id="path31"
         d="m 269.887,574.156 v 12.5 h 12.5"
         style="fill:none;stroke:#231f20;stroke-width:3.5;stroke-linecap:butt;stroke-linejoin:bevel;stroke-miterlimit:4;stroke-dasharray:none;stroke-opacity:1"
         transform="matrix(0.13333333,0,0,-0.13333333,0,134.8)" />
      <path
         id="path32"
         d="M 298.086,586.656 H 499.543"
         style="fill:none;stroke:#231f20;stroke-width:3.5;stroke-linecap:butt;stroke-linejoin:bevel;stroke-miterlimit:4;stroke-dasharray:26.1628, 15.6977;stroke-dashoffset:0;stroke-opacity:1"
         transform="matrix(0.13333333,0,0,-0.13333333,0,134.8)" />
      <path
         id="path33"
         d="m 507.387,586.656 h 12.5 v -12.5"
         style="fill:none;stroke:#231f20;stroke-width:3.5;stroke-linecap:butt;stroke-linejoin:bevel;stroke-miterlimit:4;stroke-dasharray:none;stroke-opacity:1"
         transform="matrix(0.13333333,0,0,-0.13333333,0,134.8)" />
      <path
         id="path34"
         d="M 519.887,558.652 V 359.668"
         style="fill:none;stroke:#231f20;stroke-width:3.5;stroke-linecap:butt;stroke-linejoin:bevel;stroke-miterlimit:4;stroke-dasharray:25.842, 15.5052;stroke-dashoffset:0;stroke-opacity:1"
         transform="matrix(0.13333333,0,0,-0.13333333,0,134.8)" />
      <path
         id="path35"
         d="m 1550.35,203.23 v -12.5 h -12.5"
         style="fill:none;stroke:#231f20;stroke-width:3.5;stroke-linecap:butt;stroke-linejoin:bevel;stroke-miterlimit:4;stroke-dasharray:none;stroke-opacity:1"
         transform="matrix(0.13333333,0,0,-0.13333333,0,134.8)" />
      <path
         id="path36"
         d="M 1521.66,190.73 H 1357.04"
         style="fill:none;stroke:#231f20;stroke-width:3.5;stroke-linecap:butt;stroke-linejoin:bevel;stroke-miterlimit:4;stroke-dasharray:26.9866, 16.192;stroke-dashoffset:0;stroke-opacity:1"
         transform="matrix(0.13333333,0,0,-0.13333333,0,134.8)" />
      <path
         id="path37"
         d="m 1348.95,190.73 h -12.5 v 12.5"
         style="fill:none;stroke:#231f20;stroke-width:3.5;stroke-linecap:butt;stroke-linejoin:bevel;stroke-miterlimit:4;stroke-dasharray:none;stroke-opacity:1"
         transform="matrix(0.13333333,0,0,-0.13333333,0,134.8)" />
      <path
         id="path38"
         d="M 1336.45,216.82 V 391.199"
         style="fill:none;stroke:#231f20;stroke-width:3.5;stroke-linecap:butt;stroke-linejoin:bevel;stroke-miterlimit:4;stroke-dasharray:22.6466, 13.588;stroke-dashoffset:0;stroke-opacity:1"
         transform="matrix(0.13333333,0,0,-0.13333333,0,134.8)" />
      <path
         id="path39"
         d="m 1336.45,397.992 v 12.5 h 12.5"
         style="fill:none;stroke:#231f20;stroke-width:3.5;stroke-linecap:butt;stroke-linejoin:bevel;stroke-miterlimit:4;stroke-dasharray:none;stroke-opacity:1"
         transform="matrix(0.13333333,0,0,-0.13333333,0,134.8)" />
      <path
         id="path40"
         d="m 1365.14,410.492 h 164.62"
         style="fill:none;stroke:#231f20;stroke-width:3.5;stroke-linecap:butt;stroke-linejoin:bevel;stroke-miterlimit:4;stroke-dasharray:26.9866, 16.192;stroke-dashoffset:0;stroke-opacity:1"
         transform="matrix(0.13333333,0,0,-0.13333333,0,134.8)" />
      <path
         id="path41"
         d="m 1537.85,410.492 h 12.5 v -12.5"
         style="fill:none;stroke:#231f20;stroke-width:3.5;stroke-linecap:butt;stroke-linejoin:bevel;stroke-miterlimit:4;stroke-dasharray:none;stroke-opacity:1"
         transform="matrix(0.13333333,0,0,-0.13333333,0,134.8)" />
      <path
         id="path42"
         d="M 1550.35,384.402 V 210.023"
         style="fill:none;stroke:#231f20;stroke-width:3.5;stroke-linecap:butt;stroke-linejoin:bevel;stroke-miterlimit:4;stroke-dasharray:22.6466, 13.588;stroke-dashoffset:0;stroke-opacity:1"
         transform="matrix(0.13333333,0,0,-0.13333333,0,134.8)" />
      <path
         id="path43"
         d="m 233.098,195.293 v -12.5 h -12.5"
         style="fill:none;stroke:#231f20;stroke-width:3.5;stroke-linecap:butt;stroke-linejoin:bevel;stroke-miterlimit:4;stroke-dasharray:none;stroke-opacity:1"
         transform="matrix(0.13333333,0,0,-0.13333333,0,134.8)" />
      <path
         id="path44"
         d="M 204.402,182.793 H 39.7852"
         style="fill:none;stroke:#231f20;stroke-width:3.5;stroke-linecap:butt;stroke-linejoin:bevel;stroke-miterlimit:4;stroke-dasharray:26.9866, 16.192;stroke-dashoffset:0;stroke-opacity:1"
         transform="matrix(0.13333333,0,0,-0.13333333,0,134.8)" />
      <path
         id="path45"
         d="m 31.6914,182.793 h -12.5 v 12.5"
         style="fill:none;stroke:#231f20;stroke-width:3.5;stroke-linecap:butt;stroke-linejoin:bevel;stroke-miterlimit:4;stroke-dasharray:none;stroke-opacity:1"
         transform="matrix(0.13333333,0,0,-0.13333333,0,134.8)" />
      <path
         id="path46"
         d="M 19.1914,208.883 V 383.262"
         style="fill:none;stroke:#231f20;stroke-width:3.5;stroke-linecap:butt;stroke-linejoin:bevel;stroke-miterlimit:4;stroke-dasharray:22.6466, 13.588;stroke-dashoffset:0;stroke-opacity:1"
         transform="matrix(0.13333333,0,0,-0.13333333,0,134.8)" />
      <path
         id="path47"
         d="m 19.1914,390.055 v 12.5 h 12.5"
         style="fill:none;stroke:#231f20;stroke-width:3.5;stroke-linecap:butt;stroke-linejoin:bevel;stroke-miterlimit:4;stroke-dasharray:none;stroke-opacity:1"
         transform="matrix(0.13333333,0,0,-0.13333333,0,134.8)" />
      <path
         id="path48"
         d="M 47.8828,402.555 H 212.5"
         style="fill:none;stroke:#231f20;stroke-width:3.5;stroke-linecap:butt;stroke-linejoin:bevel;stroke-miterlimit:4;stroke-dasharray:26.9866, 16.192;stroke-dashoffset:0;stroke-opacity:1"
         transform="matrix(0.13333333,0,0,-0.13333333,0,134.8)" />
      <path
         id="path49"
         d="m 220.598,402.555 h 12.5 v -12.5"
         style="fill:none;stroke:#231f20;stroke-width:3.5;stroke-linecap:butt;stroke-linejoin:bevel;stroke-miterlimit:4;stroke-dasharray:none;stroke-opacity:1"
         transform="matrix(0.13333333,0,0,-0.13333333,0,134.8)" />
      <path
         id="path50"
         d="M 233.098,376.465 V 202.086"
         style="fill:none;stroke:#231f20;stroke-width:3.5;stroke-linecap:butt;stroke-linejoin:bevel;stroke-miterlimit:4;stroke-dasharray:22.6466, 13.588;stroke-dashoffset:0;stroke-opacity:1"
         transform="matrix(0.13333333,0,0,-0.13333333,0,134.8)" />
      <path
         id="path51"
         d="m 949.941,569.02 v -12.5 h -12.5"
         style="fill:none;stroke:#231f20;stroke-width:3.5;stroke-linecap:butt;stroke-linejoin:bevel;stroke-miterlimit:4;stroke-dasharray:none;stroke-opacity:1"
         transform="matrix(0.13333333,0,0,-0.13333333,0,134.8)" />
      <path
         id="path52"
         d="M 922.078,556.52 H 561.117"
         style="fill:none;stroke:#231f20;stroke-width:3.5;stroke-linecap:butt;stroke-linejoin:bevel;stroke-miterlimit:4;stroke-dasharray:25.6003, 15.3602;stroke-dashoffset:0;stroke-opacity:1"
         transform="matrix(0.13333333,0,0,-0.13333333,0,134.8)" />
      <path
         id="path53"
         d="m 553.438,556.52 h -12.5 v 12.5"
         style="fill:none;stroke:#231f20;stroke-width:3.5;stroke-linecap:butt;stroke-linejoin:bevel;stroke-miterlimit:4;stroke-dasharray:none;stroke-opacity:1"
         transform="matrix(0.13333333,0,0,-0.13333333,0,134.8)" />
      <path
         id="path54"
         d="M 540.938,584.18 V 980.957"
         style="fill:none;stroke:#231f20;stroke-width:3.5;stroke-linecap:butt;stroke-linejoin:bevel;stroke-miterlimit:4;stroke-dasharray:25.2724, 15.1634;stroke-dashoffset:0;stroke-opacity:1"
         transform="matrix(0.13333333,0,0,-0.13333333,0,134.8)" />
      <path
         id="path55"
         d="m 540.938,988.539 v 12.501 h 12.5"
         style="fill:none;stroke:#231f20;stroke-width:3.5;stroke-linecap:butt;stroke-linejoin:bevel;stroke-miterlimit:4;stroke-dasharray:none;stroke-opacity:1"
         transform="matrix(0.13333333,0,0,-0.13333333,0,134.8)" />
      <path
         id="path56"
         d="M 568.801,1001.04 H 929.762"
         style="fill:none;stroke:#231f20;stroke-width:3.5;stroke-linecap:butt;stroke-linejoin:bevel;stroke-miterlimit:4;stroke-dasharray:25.6003, 15.3602;stroke-dashoffset:0;stroke-opacity:1"
         transform="matrix(0.13333333,0,0,-0.13333333,0,134.8)" />
      <path
         id="path57"
         d="m 937.441,1001.04 h 12.5 v -12.501"
         style="fill:none;stroke:#231f20;stroke-width:3.5;stroke-linecap:butt;stroke-linejoin:bevel;stroke-miterlimit:4;stroke-dasharray:none;stroke-opacity:1"
         transform="matrix(0.13333333,0,0,-0.13333333,0,134.8)" />
      <path
         id="path58"
         d="M 949.941,973.379 V 576.602"
         style="fill:none;stroke:#231f20;stroke-width:3.5;stroke-linecap:butt;stroke-linejoin:bevel;stroke-miterlimit:4;stroke-dasharray:25.2724, 15.1634;stroke-dashoffset:0;stroke-opacity:1"
         transform="matrix(0.13333333,0,0,-0.13333333,0,134.8)" />
      <path
         id="path59"
         d="m 2922.54,389.73 v -12.5 h -12.5"
         style="fill:none;stroke:#231f20;stroke-width:3.5;stroke-linecap:butt;stroke-linejoin:bevel;stroke-miterlimit:4;stroke-dasharray:none;stroke-opacity:1"
         transform="matrix(0.13333333,0,0,-0.13333333,0,134.8)" />
      <path
         id="path60"
         d="M 2894.99,377.23 H 2541.36"
         style="fill:none;stroke:#231f20;stroke-width:3.5;stroke-linecap:butt;stroke-linejoin:bevel;stroke-miterlimit:4;stroke-dasharray:25.0801, 15.048;stroke-dashoffset:0;stroke-opacity:1"
         transform="matrix(0.13333333,0,0,-0.13333333,0,134.8)" />
      <path
         id="path61"
         d="m 2533.84,377.23 h -12.5 v 12.5"
         style="fill:none;stroke:#231f20;stroke-width:3.5;stroke-linecap:butt;stroke-linejoin:bevel;stroke-miterlimit:4;stroke-dasharray:none;stroke-opacity:1"
         transform="matrix(0.13333333,0,0,-0.13333333,0,134.8)" />
      <path
         id="path62"
         d="M 2521.34,404.719 V 796.77"
         style="fill:none;stroke:#231f20;stroke-width:3.5;stroke-linecap:butt;stroke-linejoin:bevel;stroke-miterlimit:4;stroke-dasharray:24.9715, 14.9829;stroke-dashoffset:0;stroke-opacity:1"
         transform="matrix(0.13333333,0,0,-0.13333333,0,134.8)" />
      <path
         id="path63"
         d="m 2521.34,804.258 v 12.5 h 12.5"
         style="fill:none;stroke:#231f20;stroke-width:3.5;stroke-linecap:butt;stroke-linejoin:bevel;stroke-miterlimit:4;stroke-dasharray:none;stroke-opacity:1"
         transform="matrix(0.13333333,0,0,-0.13333333,0,134.8)" />
      <path
         id="path64"
         d="m 2548.89,816.758 h 353.63"
         style="fill:none;stroke:#231f20;stroke-width:3.5;stroke-linecap:butt;stroke-linejoin:bevel;stroke-miterlimit:4;stroke-dasharray:25.0801, 15.048;stroke-dashoffset:0;stroke-opacity:1"
         transform="matrix(0.13333333,0,0,-0.13333333,0,134.8)" />
      <path
         id="path65"
         d="m 2910.04,816.758 h 12.5 v -12.5"
         style="fill:none;stroke:#231f20;stroke-width:3.5;stroke-linecap:butt;stroke-linejoin:bevel;stroke-miterlimit:4;stroke-dasharray:none;stroke-opacity:1"
         transform="matrix(0.13333333,0,0,-0.13333333,0,134.8)" />
      <path
         id="path66"
         d="M 2922.54,789.277 V 397.223"
         style="fill:none;stroke:#231f20;stroke-width:3.5;stroke-linecap:butt;stroke-linejoin:bevel;stroke-miterlimit:4;stroke-dasharray:24.9715, 14.9829;stroke-dashoffset:0;stroke-opacity:1"
         transform="matrix(0.13333333,0,0,-0.13333333,0,134.8)" />
      <path
         id="path67"
         d="m 2.6951641,1.3248003 c -0.890625,-0.76171874 -1.40625,-2.20312499 -1.40625,-3.75 0,-1.546875 0.515625,-3 1.40625,-3.75 L 2.5428203,-6.3861372 c -1.3242187,0.9023438 -1.91015624,2.3320313 -1.91015624,3.9492188 0,1.62890621 0.58593754,3.08203121 1.91015624,3.9609375 z m 3.8935546,-1.67578124 -0.09375,-0.234375 c -0.09375,0.0585938 -0.2226562,0.10546875 -0.328125,0.10546875 -0.1523437,0 -0.3164062,-0.140625 -0.3164062,-0.55078121 v -1.6640625 c 0,-0.46875 -0.082031,-0.84375 -0.3984375,-1.1015625 -0.1992188,-0.1640625 -0.46875,-0.2460938 -0.7382813,-0.2460938 -0.515625,0.1054688 -1.1015625,0.4570313 -1.3476562,0.6328125 -0.1757813,0.1289063 -0.2929688,0.2226563 -0.2929688,0.3632813 0,0.1992187 0.234375,0.3867187 0.3984375,0.3867187 0.1289063,0 0.2226563,-0.070312 0.2578125,-0.2109375 0.070312,-0.28125 0.1523438,-0.4804687 0.2695313,-0.5976562 0.09375,-0.1054688 0.2226562,-0.1757813 0.4101562,-0.1757813 0.4453125,0 0.75,0.3632813 0.75,1.0195313 v 0.1640625 C 4.9598125,-2.3080122 4.3035625,-2.0619184 3.7645,-1.8861372 c -0.4921875,0.1757813 -0.7265625,0.4570313 -0.7265625,0.90234376 0,0.5625 0.4453125,1.08984375 1.078125,1.08984375 0.2695312,0 0.703125,-0.328125 1.0664062,-0.57421875 0.046875,0.15234375 0.09375,0.28125 0.2109375,0.41015625 0.1054688,0.08203125 0.2929688,0.1640625 0.421875,0.1640625 z M 5.1590312,-0.76113719 c -0.1640625,0.1640625 -0.4804687,0.31640625 -0.7148437,0.328125 -0.28125,0 -0.6445313,-0.22265625 -0.6445313,-0.69140621 0,-0.328125 0.1992188,-0.4921875 0.5507813,-0.65625 0.1875,-0.09375 0.6210937,-0.28125 0.8085937,-0.375 z M 6.7937969,-6.1751997 c 0.890625,0.7382813 1.4179687,2.203125 1.4179687,3.75 0,1.54687501 -0.5039062,2.98828126 -1.4179687,3.75 l 0.1640625,0.1992188 c 1.3476562,-0.91406254 1.8984375,-2.33203129 1.8984375,-3.9492188 0,-1.6289062 -0.5507813,-3.0585937 -1.8984375,-3.9609375 z m 159.9257831,7.5 c -0.89063,-0.76171874 -1.40625,-2.20312499 -1.40625,-3.75 0,-1.546875 0.51562,-3 1.40625,-3.75 l -0.15235,-0.2109375 c -1.32421,0.9023438 -1.91015,2.3320313 -1.91015,3.9492188 0,1.62890621 0.58594,3.08203121 1.91015,3.9609375 z m 2.01269,-4.9570312 v -2.7773438 c -0.33984,0.1171875 -0.89062,0.2578125 -1.3125,0.3164063 v 0.2109375 c 0.58594,0.046875 0.59766,0.1054687 0.59766,0.6679687 v 5.00390626 c 0.49219,0.234375 0.94922,0.31640625 1.32422,0.31640625 1.20703,0 2.26172,-0.9375 2.26172,-2.26171871 0,-1.0546875 -0.8086,-1.8867188 -1.78125,-1.8867188 -0.0937,0 -0.22266,0.023437 -0.36328,0.09375 z m 0,0.2695312 c 0.16407,-0.1054687 0.44532,-0.1757812 0.70313,-0.1757812 0.73828,0 1.37109,0.5976562 1.37109,1.6171875 0,1.05468746 -0.48047,1.68749996 -1.21875,1.68749996 -0.48047,-0.0117188 -0.75,-0.328125 -0.80859,-0.50390625 -0.0352,-0.0820313 -0.0469,-0.17578125 -0.0469,-0.30468751 z m 3.16407,-2.8125 c 0.89062,0.7382813 1.41796,2.203125 1.41796,3.75 0,1.54687501 -0.5039,2.98828126 -1.41796,3.75 l 0.16406,0.1992188 c 1.34765,-0.91406254 1.89844,-2.33203129 1.89844,-3.9492188 0,-1.6289062 -0.55079,-3.0585937 -1.89844,-3.9609375 z m 0,0"
         style="fill:#231f20;fill-opacity:1;fill-rule:nonzero;stroke:none"
         aria-label="(a)(b)"
         transform="matrix(1.3333333,0,0,1.3333333,57.730667,130.47969)" />
    </g>
  </g>
</svg>
