<?xml version="1.0" encoding="UTF-8" standalone="no"?>
<!-- Created with Inkscape (http://www.inkscape.org/) -->

<svg
   version="1.1"
   id="svg1"
   width="262.81332"
   height="161.38667"
   viewBox="0 0 262.81332 161.38667"
   sodipodi:docname="pha07f07.eps"
   xmlns:inkscape="http://www.inkscape.org/namespaces/inkscape"
   xmlns:sodipodi="http://sodipodi.sourceforge.net/DTD/sodipodi-0.dtd"
   xmlns="http://www.w3.org/2000/svg"
   xmlns:svg="http://www.w3.org/2000/svg">
  <defs
     id="defs1" />
  <sodipodi:namedview
     id="namedview1"
     pagecolor="#ffffff"
     bordercolor="#000000"
     borderopacity="0.25"
     inkscape:showpageshadow="2"
     inkscape:pageopacity="0.0"
     inkscape:pagecheckerboard="0"
     inkscape:deskcolor="#d1d1d1">
    <inkscape:page
       x="0"
       y="0"
       inkscape:label="1"
       id="page1"
       width="262.81332"
       height="161.38667"
       margin="0"
       bleed="0" />
  </sodipodi:namedview>
  <g
     id="g1"
     inkscape:groupmode="layer"
     inkscape:label="1">
    <g
       id="group-R5">
      <path
         id="path2"
         d="m 1867.99,452.531 h -138.52 v 83.367 h 138.52 z"
         style="fill:none;stroke:#231f20;stroke-width:5;stroke-linecap:butt;stroke-linejoin:miter;stroke-miterlimit:10;stroke-dasharray:none;stroke-opacity:1"
         transform="matrix(0.13333333,0,0,-0.13333333,0,161.38667)" />
      <path
         id="path3"
         d="m 1778.73,494.816 c 0,11.039 8.96,20 20,20 11.05,0 20,-8.961 20,-20 0,-11.046 -8.95,-20 -20,-20 -11.04,0 -20,8.954 -20,20"
         style="fill:#231f20;fill-opacity:1;fill-rule:nonzero;stroke:none"
         transform="matrix(0.13333333,0,0,-0.13333333,0,161.38667)" />
      <path
         id="path4"
         d="m 1620.78,647.949 h -550.27 v 369.691 h 550.27 z"
         style="fill:none;stroke:#231f20;stroke-width:5;stroke-linecap:butt;stroke-linejoin:miter;stroke-miterlimit:10;stroke-dasharray:none;stroke-opacity:1"
         transform="matrix(0.13333333,0,0,-0.13333333,0,161.38667)" />
      <path
         id="path5"
         d="m 1325.64,834.102 c 0,11.039 8.96,20 20,20 11.04,0 20,-8.961 20,-20 0,-11.043 -8.96,-20 -20,-20 -11.04,0 -20,8.957 -20,20"
         style="fill:#231f20;fill-opacity:1;fill-rule:nonzero;stroke:none"
         transform="matrix(0.13333333,0,0,-0.13333333,0,161.38667)" />
      <path
         id="path6"
         d="M 314.918,702.07 H 37.5039 V 973.195 H 314.918 Z"
         style="fill:none;stroke:#231f20;stroke-width:5;stroke-linecap:butt;stroke-linejoin:miter;stroke-miterlimit:10;stroke-dasharray:none;stroke-opacity:1"
         transform="matrix(0.13333333,0,0,-0.13333333,0,161.38667)" />
      <path
         id="path7"
         d="m 156.211,835.109 c 0,11.043 8.953,20 20,20 11.047,0 20,-8.957 20,-20 0,-11.046 -8.953,-20 -20,-20 -11.047,0 -20,8.954 -20,20"
         style="fill:#231f20;fill-opacity:1;fill-rule:nonzero;stroke:none"
         transform="matrix(0.13333333,0,0,-0.13333333,0,161.38667)" />
      <path
         id="path8"
         d="m 711.02,451.738 h -372.5 v 135 h 372.5 z"
         style="fill:none;stroke:#231f20;stroke-width:5;stroke-linecap:butt;stroke-linejoin:miter;stroke-miterlimit:10;stroke-dasharray:none;stroke-opacity:1"
         transform="matrix(0.13333333,0,0,-0.13333333,0,161.38667)" />
      <path
         id="path9"
         d="m 504.77,519.836 c 0,11.039 8.957,20 20,20 11.046,0 20,-8.961 20,-20 0,-11.047 -8.954,-20 -20,-20 -11.043,0 -20,8.953 -20,20"
         style="fill:#231f20;fill-opacity:1;fill-rule:nonzero;stroke:none"
         transform="matrix(0.13333333,0,0,-0.13333333,0,161.38667)" />
      <path
         id="path10"
         d="M 1173.11,166.02 H 910.371 v 337.808 h 262.739 z"
         style="fill:none;stroke:#231f20;stroke-width:5;stroke-linecap:butt;stroke-linejoin:miter;stroke-miterlimit:10;stroke-dasharray:none;stroke-opacity:1"
         transform="matrix(0.13333333,0,0,-0.13333333,0,161.38667)" />
      <path
         id="path11"
         d="m 1021.74,335.52 c 0,11.043 8.95,20 20,20 11.04,0 20,-8.957 20,-20 0,-11.043 -8.96,-20 -20,-20 -11.05,0 -20,8.957 -20,20"
         style="fill:#231f20;fill-opacity:1;fill-rule:nonzero;stroke:none"
         transform="matrix(0.13333333,0,0,-0.13333333,0,161.38667)" />
      <path
         id="path12"
         d="M 957.813,263.496 H 585.316 v 135 h 372.497 z"
         style="fill:none;stroke:#231f20;stroke-width:5;stroke-linecap:butt;stroke-linejoin:miter;stroke-miterlimit:10;stroke-dasharray:none;stroke-opacity:1"
         transform="matrix(0.13333333,0,0,-0.13333333,0,161.38667)" />
      <path
         id="path13"
         d="m 751.566,331.594 c 0,11.043 8.957,20 20,20 11.047,0 20,-8.957 20,-20 0,-11.043 -8.953,-20 -20,-20 -11.043,0 -20,8.957 -20,20"
         style="fill:#231f20;fill-opacity:1;fill-rule:nonzero;stroke:none"
         transform="matrix(0.13333333,0,0,-0.13333333,0,161.38667)" />
      <path
         id="path14"
         d="M 0,3.46094 H 1971.1"
         style="fill:none;stroke:#231f20;stroke-width:5;stroke-linecap:butt;stroke-linejoin:miter;stroke-miterlimit:10;stroke-dasharray:none;stroke-opacity:1"
         transform="matrix(0.13333333,0,0,-0.13333333,0,161.38667)" />
      <path
         id="path15"
         d="m 1798.73,495.488 v -12.5"
         style="fill:none;stroke:#231f20;stroke-width:5;stroke-linecap:butt;stroke-linejoin:miter;stroke-miterlimit:10;stroke-dasharray:none;stroke-opacity:1"
         transform="matrix(0.13333333,0,0,-0.13333333,0,161.38667)" />
      <path
         id="path16"
         d="M 1798.73,467.676 V 26.2305"
         style="fill:none;stroke:#231f20;stroke-width:5;stroke-linecap:butt;stroke-linejoin:miter;stroke-miterlimit:10;stroke-dasharray:25.5173, 15.3104;stroke-dashoffset:0;stroke-opacity:1"
         transform="matrix(0.13333333,0,0,-0.13333333,0,161.38667)" />
      <path
         id="path17"
         d="M 1798.73,18.5703 V 6.07031"
         style="fill:none;stroke:#231f20;stroke-width:5;stroke-linecap:butt;stroke-linejoin:miter;stroke-miterlimit:10;stroke-dasharray:none;stroke-opacity:1"
         transform="matrix(0.13333333,0,0,-0.13333333,0,161.38667)" />
      <path
         id="path18"
         d="m 176.211,838.391 v -12.5"
         style="fill:none;stroke:#231f20;stroke-width:5;stroke-linecap:butt;stroke-linejoin:miter;stroke-miterlimit:10;stroke-dasharray:none;stroke-opacity:1"
         transform="matrix(0.13333333,0,0,-0.13333333,0,161.38667)" />
      <path
         id="path19"
         d="M 176.211,811.031 V 26.0117"
         style="fill:none;stroke:#231f20;stroke-width:5;stroke-linecap:butt;stroke-linejoin:miter;stroke-miterlimit:10;stroke-dasharray:24.7642, 14.8585;stroke-dashoffset:0;stroke-opacity:1"
         transform="matrix(0.13333333,0,0,-0.13333333,0,161.38667)" />
      <path
         id="path20"
         d="M 176.211,18.5703 V 6.07031"
         style="fill:none;stroke:#231f20;stroke-width:5;stroke-linecap:butt;stroke-linejoin:miter;stroke-miterlimit:10;stroke-dasharray:none;stroke-opacity:1"
         transform="matrix(0.13333333,0,0,-0.13333333,0,161.38667)" />
      <path
         id="path21"
         d="M 1522.83,1209.26 V 4.46875"
         style="fill:none;stroke:#231f20;stroke-width:5;stroke-linecap:butt;stroke-linejoin:miter;stroke-miterlimit:10;stroke-dasharray:none;stroke-opacity:1"
         transform="matrix(0.13333333,0,0,-0.13333333,0,161.38667)" />
      <path
         id="path22"
         d="M 1256.57,1210.44 V 5.64844"
         style="fill:none;stroke:#231f20;stroke-width:5;stroke-linecap:butt;stroke-linejoin:miter;stroke-miterlimit:10;stroke-dasharray:none;stroke-opacity:1"
         transform="matrix(0.13333333,0,0,-0.13333333,0,161.38667)" />
      <path
         id="path23"
         d="M 985.383,1207.34 V 2.53906"
         style="fill:none;stroke:#231f20;stroke-width:5;stroke-linecap:butt;stroke-linejoin:miter;stroke-miterlimit:10;stroke-dasharray:none;stroke-opacity:1"
         transform="matrix(0.13333333,0,0,-0.13333333,0,161.38667)" />
      <path
         id="path24"
         d="M 718.84,1210.44 V 5.64844"
         style="fill:none;stroke:#231f20;stroke-width:5;stroke-linecap:butt;stroke-linejoin:miter;stroke-miterlimit:10;stroke-dasharray:none;stroke-opacity:1"
         transform="matrix(0.13333333,0,0,-0.13333333,0,161.38667)" />
      <path
         id="path25"
         d="M 446.094,1208.89 V 4.08984"
         style="fill:none;stroke:#231f20;stroke-width:5;stroke-linecap:butt;stroke-linejoin:miter;stroke-miterlimit:10;stroke-dasharray:none;stroke-opacity:1"
         transform="matrix(0.13333333,0,0,-0.13333333,0,161.38667)" />
      <path
         id="path26"
         d="m 524.77,518.75 v -12.5"
         style="fill:none;stroke:#231f20;stroke-width:5;stroke-linecap:butt;stroke-linejoin:miter;stroke-miterlimit:10;stroke-dasharray:none;stroke-opacity:1"
         transform="matrix(0.13333333,0,0,-0.13333333,0,161.38667)" />
      <path
         id="path27"
         d="M 524.77,491.371 V 22.7188"
         style="fill:none;stroke:#231f20;stroke-width:5;stroke-linecap:butt;stroke-linejoin:miter;stroke-miterlimit:10;stroke-dasharray:24.7968, 14.8781;stroke-dashoffset:0;stroke-opacity:1"
         transform="matrix(0.13333333,0,0,-0.13333333,0,161.38667)" />
      <path
         id="path28"
         d="M 524.77,15.2695 V 2.76953"
         style="fill:none;stroke:#231f20;stroke-width:5;stroke-linecap:butt;stroke-linejoin:miter;stroke-miterlimit:10;stroke-dasharray:none;stroke-opacity:1"
         transform="matrix(0.13333333,0,0,-0.13333333,0,161.38667)" />
      <path
         id="path29"
         d="m 771.566,332.891 v -12.5"
         style="fill:none;stroke:#231f20;stroke-width:5;stroke-linecap:butt;stroke-linejoin:miter;stroke-miterlimit:10;stroke-dasharray:none;stroke-opacity:1"
         transform="matrix(0.13333333,0,0,-0.13333333,0,161.38667)" />
      <path
         id="path30"
         d="M 771.566,304.945 V 24.3789"
         style="fill:none;stroke:#231f20;stroke-width:5;stroke-linecap:butt;stroke-linejoin:miter;stroke-miterlimit:10;stroke-dasharray:25.7399, 15.4439;stroke-dashoffset:0;stroke-opacity:1"
         transform="matrix(0.13333333,0,0,-0.13333333,0,161.38667)" />
      <path
         id="path31"
         d="M 771.566,16.6602 V 4.16016"
         style="fill:none;stroke:#231f20;stroke-width:5;stroke-linecap:butt;stroke-linejoin:miter;stroke-miterlimit:10;stroke-dasharray:none;stroke-opacity:1"
         transform="matrix(0.13333333,0,0,-0.13333333,0,161.38667)" />
      <path
         id="path32"
         d="m 1041.74,334.277 v -12.5"
         style="fill:none;stroke:#231f20;stroke-width:5;stroke-linecap:butt;stroke-linejoin:miter;stroke-miterlimit:10;stroke-dasharray:none;stroke-opacity:1"
         transform="matrix(0.13333333,0,0,-0.13333333,0,161.38667)" />
      <path
         id="path33"
         d="M 1041.74,306.051 V 20.3594"
         style="fill:none;stroke:#231f20;stroke-width:5;stroke-linecap:butt;stroke-linejoin:miter;stroke-miterlimit:10;stroke-dasharray:26.2099, 15.726;stroke-dashoffset:0;stroke-opacity:1"
         transform="matrix(0.13333333,0,0,-0.13333333,0,161.38667)" />
      <path
         id="path34"
         d="M 1041.74,12.5 V 0"
         style="fill:none;stroke:#231f20;stroke-width:5;stroke-linecap:butt;stroke-linejoin:miter;stroke-miterlimit:10;stroke-dasharray:none;stroke-opacity:1"
         transform="matrix(0.13333333,0,0,-0.13333333,0,161.38667)" />
      <path
         id="path35"
         d="M 1345.64,835 V 822.5"
         style="fill:none;stroke:#231f20;stroke-width:5;stroke-linecap:butt;stroke-linejoin:miter;stroke-miterlimit:10;stroke-dasharray:none;stroke-opacity:1"
         transform="matrix(0.13333333,0,0,-0.13333333,0,161.38667)" />
      <path
         id="path36"
         d="M 1345.64,807.617 V 21.3281"
         style="fill:none;stroke:#231f20;stroke-width:5;stroke-linecap:butt;stroke-linejoin:miter;stroke-miterlimit:10;stroke-dasharray:24.8041, 14.8825;stroke-dashoffset:0;stroke-opacity:1"
         transform="matrix(0.13333333,0,0,-0.13333333,0,161.38667)" />
      <path
         id="path37"
         d="M 1345.64,13.8906 V 1.39063"
         style="fill:none;stroke:#231f20;stroke-width:5;stroke-linecap:butt;stroke-linejoin:miter;stroke-miterlimit:10;stroke-dasharray:none;stroke-opacity:1"
         transform="matrix(0.13333333,0,0,-0.13333333,0,161.38667)" />
    </g>
  </g>
</svg>
