<?xml version="1.0" encoding="UTF-8" standalone="no"?>
<!-- Created with Inkscape (http://www.inkscape.org/) -->

<svg
   version="1.1"
   id="svg1"
   width="145.30667"
   height="145.30667"
   viewBox="0 0 145.30667 145.30667"
   sodipodi:docname="pha07f10.eps"
   xmlns:inkscape="http://www.inkscape.org/namespaces/inkscape"
   xmlns:sodipodi="http://sodipodi.sourceforge.net/DTD/sodipodi-0.dtd"
   xmlns="http://www.w3.org/2000/svg"
   xmlns:svg="http://www.w3.org/2000/svg">
  <defs
     id="defs1" />
  <sodipodi:namedview
     id="namedview1"
     pagecolor="#ffffff"
     bordercolor="#000000"
     borderopacity="0.25"
     inkscape:showpageshadow="2"
     inkscape:pageopacity="0.0"
     inkscape:pagecheckerboard="0"
     inkscape:deskcolor="#d1d1d1">
    <inkscape:page
       x="0"
       y="0"
       inkscape:label="1"
       id="page1"
       width="145.30667"
       height="145.30667"
       margin="0"
       bleed="0" />
  </sodipodi:namedview>
  <g
     id="g1"
     inkscape:groupmode="layer"
     inkscape:label="1">
    <g
       id="group-R5">
      <path
         id="path2"
         d="M 1087.33,2.5 H 2.5 v 1084.83 h 1084.83 z"
         style="fill:none;stroke:#231f20;stroke-width:5;stroke-linecap:butt;stroke-linejoin:miter;stroke-miterlimit:10;stroke-dasharray:none;stroke-opacity:1"
         transform="matrix(0.13333333,0,0,-0.13333333,0,145.30667)" />
      <path
         id="path3"
         d="M 273.367,1089.15 V 3.69141"
         style="fill:none;stroke:#231f20;stroke-width:5;stroke-linecap:butt;stroke-linejoin:miter;stroke-miterlimit:10;stroke-dasharray:none;stroke-opacity:1"
         transform="matrix(0.13333333,0,0,-0.13333333,0,145.30667)" />
      <path
         id="path4"
         d="M 544.688,1089.15 V 4.55078"
         style="fill:none;stroke:#231f20;stroke-width:5;stroke-linecap:butt;stroke-linejoin:miter;stroke-miterlimit:10;stroke-dasharray:none;stroke-opacity:1"
         transform="matrix(0.13333333,0,0,-0.13333333,0,145.30667)" />
      <path
         id="path5"
         d="M 816.016,1089.15 V 1.53125"
         style="fill:none;stroke:#231f20;stroke-width:5;stroke-linecap:butt;stroke-linejoin:miter;stroke-miterlimit:10;stroke-dasharray:none;stroke-opacity:1"
         transform="matrix(0.13333333,0,0,-0.13333333,0,145.30667)" />
      <path
         id="path6"
         d="M 3.98438,277.039 H 1087.41"
         style="fill:none;stroke:#231f20;stroke-width:5;stroke-linecap:butt;stroke-linejoin:miter;stroke-miterlimit:10;stroke-dasharray:none;stroke-opacity:1"
         transform="matrix(0.13333333,0,0,-0.13333333,0,145.30667)" />
      <path
         id="path7"
         d="M 3.41797,548.363 H 1086.28"
         style="fill:none;stroke:#231f20;stroke-width:5;stroke-linecap:butt;stroke-linejoin:miter;stroke-miterlimit:10;stroke-dasharray:none;stroke-opacity:1"
         transform="matrix(0.13333333,0,0,-0.13333333,0,145.30667)" />
      <path
         id="path8"
         d="M 3.41797,819.676 H 1086.85"
         style="fill:none;stroke:#231f20;stroke-width:5;stroke-linecap:butt;stroke-linejoin:miter;stroke-miterlimit:10;stroke-dasharray:none;stroke-opacity:1"
         transform="matrix(0.13333333,0,0,-0.13333333,0,145.30667)" />
      <path
         id="path9"
         d="m 607.418,414.066 c 0,10.2 8.266,18.457 18.461,18.457 10.195,0 18.457,-8.257 18.457,-18.457 0,-10.191 -8.262,-18.457 -18.457,-18.457 -10.195,0 -18.461,8.266 -18.461,18.457"
         style="fill:#231f20;fill-opacity:1;fill-rule:nonzero;stroke:none"
         transform="matrix(0.13333333,0,0,-0.13333333,0,145.30667)" />
      <path
         id="path10"
         d="m 530.52,356.109 v -10 h 10"
         style="fill:none;stroke:#231f20;stroke-width:5;stroke-linecap:butt;stroke-linejoin:miter;stroke-miterlimit:10;stroke-dasharray:none;stroke-opacity:1"
         transform="matrix(0.13333333,0,0,-0.13333333,0,145.30667)" />
      <path
         id="path11"
         d="M 559.285,346.109 H 700.051"
         style="fill:none;stroke:#231f20;stroke-width:5;stroke-linecap:butt;stroke-linejoin:miter;stroke-miterlimit:10;stroke-dasharray:18.7684, 18.7684;stroke-dashoffset:0;stroke-opacity:1"
         transform="matrix(0.13333333,0,0,-0.13333333,0,145.30667)" />
      <path
         id="path12"
         d="m 709.434,346.109 h 10 v 10"
         style="fill:none;stroke:#231f20;stroke-width:5;stroke-linecap:butt;stroke-linejoin:miter;stroke-miterlimit:10;stroke-dasharray:none;stroke-opacity:1"
         transform="matrix(0.13333333,0,0,-0.13333333,0,145.30667)" />
      <path
         id="path13"
         d="m 719.434,379.211 v 80.848"
         style="fill:none;stroke:#231f20;stroke-width:5;stroke-linecap:butt;stroke-linejoin:miter;stroke-miterlimit:10;stroke-dasharray:23.0996, 23.0996;stroke-dashoffset:0;stroke-opacity:1"
         transform="matrix(0.13333333,0,0,-0.13333333,0,145.30667)" />
      <path
         id="path14"
         d="m 719.434,471.605 v 10 h -10"
         style="fill:none;stroke:#231f20;stroke-width:5;stroke-linecap:butt;stroke-linejoin:miter;stroke-miterlimit:10;stroke-dasharray:none;stroke-opacity:1"
         transform="matrix(0.13333333,0,0,-0.13333333,0,145.30667)" />
      <path
         id="path15"
         d="M 690.664,481.605 H 549.902"
         style="fill:none;stroke:#231f20;stroke-width:5;stroke-linecap:butt;stroke-linejoin:miter;stroke-miterlimit:10;stroke-dasharray:18.7684, 18.7684;stroke-dashoffset:0;stroke-opacity:1"
         transform="matrix(0.13333333,0,0,-0.13333333,0,145.30667)" />
      <path
         id="path16"
         d="m 540.52,481.605 h -10 v -10"
         style="fill:none;stroke:#231f20;stroke-width:5;stroke-linecap:butt;stroke-linejoin:miter;stroke-miterlimit:10;stroke-dasharray:none;stroke-opacity:1"
         transform="matrix(0.13333333,0,0,-0.13333333,0,145.30667)" />
      <path
         id="path17"
         d="M 530.52,448.508 V 367.656"
         style="fill:none;stroke:#231f20;stroke-width:5;stroke-linecap:butt;stroke-linejoin:miter;stroke-miterlimit:10;stroke-dasharray:23.0996, 23.0996;stroke-dashoffset:0;stroke-opacity:1"
         transform="matrix(0.13333333,0,0,-0.13333333,0,145.30667)" />
      <path
         id="path18"
         d="m 346.813,753.914 c 0,10.191 8.265,18.453 18.46,18.453 10.196,0 18.457,-8.262 18.457,-18.453 0,-10.195 -8.261,-18.469 -18.457,-18.469 -10.195,0 -18.46,8.274 -18.46,18.469"
         style="fill:#231f20;fill-opacity:1;fill-rule:nonzero;stroke:none"
         transform="matrix(0.13333333,0,0,-0.13333333,0,145.30667)" />
      <path
         id="path19"
         d="m 862.527,699.184 c 0,10.199 8.266,18.457 18.457,18.457 10.2,0 18.457,-8.258 18.457,-18.457 0,-10.196 -8.257,-18.457 -18.457,-18.457 -10.191,0 -18.457,8.261 -18.457,18.457"
         style="fill:#231f20;fill-opacity:1;fill-rule:nonzero;stroke:none"
         transform="matrix(0.13333333,0,0,-0.13333333,0,145.30667)" />
      <path
         id="path20"
         d="m 186.34,191.07 c 0,10.196 8.265,18.469 18.461,18.469 10.195,0 18.461,-8.273 18.461,-18.469 0,-10.195 -8.266,-18.468 -18.461,-18.468 -10.196,0 -18.461,8.273 -18.461,18.468"
         style="fill:#231f20;fill-opacity:1;fill-rule:nonzero;stroke:none"
         transform="matrix(0.13333333,0,0,-0.13333333,0,145.30667)" />
      <path
         id="path21"
         d="m 681.426,998.844 c 0,10.196 8.265,18.466 18.461,18.466 10.195,0 18.465,-8.27 18.465,-18.466 0,-10.196 -8.27,-18.457 -18.465,-18.457 -10.196,0 -18.461,8.261 -18.461,18.457"
         style="fill:#231f20;fill-opacity:1;fill-rule:nonzero;stroke:none"
         transform="matrix(0.13333333,0,0,-0.13333333,0,145.30667)" />
      <path
         id="path22"
         d="m 779.363,1060.5 v 10 h -10"
         style="fill:none;stroke:#231f20;stroke-width:5;stroke-linecap:butt;stroke-linejoin:miter;stroke-miterlimit:10;stroke-dasharray:none;stroke-opacity:1"
         transform="matrix(0.13333333,0,0,-0.13333333,0,145.30667)" />
      <path
         id="path23"
         d="M 749.332,1070.5 H 639.133"
         style="fill:none;stroke:#231f20;stroke-width:5;stroke-linecap:butt;stroke-linejoin:miter;stroke-miterlimit:10;stroke-dasharray:20.0363, 20.0363;stroke-dashoffset:0;stroke-opacity:1"
         transform="matrix(0.13333333,0,0,-0.13333333,0,145.30667)" />
      <path
         id="path24"
         d="m 629.109,1070.5 h -10 v -10"
         style="fill:none;stroke:#231f20;stroke-width:5;stroke-linecap:butt;stroke-linejoin:miter;stroke-miterlimit:10;stroke-dasharray:none;stroke-opacity:1"
         transform="matrix(0.13333333,0,0,-0.13333333,0,145.30667)" />
      <path
         id="path25"
         d="M 619.109,1043.26 V 948.414"
         style="fill:none;stroke:#231f20;stroke-width:5;stroke-linecap:butt;stroke-linejoin:miter;stroke-miterlimit:10;stroke-dasharray:17.2447, 17.2447;stroke-dashoffset:0;stroke-opacity:1"
         transform="matrix(0.13333333,0,0,-0.13333333,0,145.30667)" />
      <path
         id="path26"
         d="m 619.109,939.793 v -10 h 10"
         style="fill:none;stroke:#231f20;stroke-width:5;stroke-linecap:butt;stroke-linejoin:miter;stroke-miterlimit:10;stroke-dasharray:none;stroke-opacity:1"
         transform="matrix(0.13333333,0,0,-0.13333333,0,145.30667)" />
      <path
         id="path27"
         d="M 649.145,929.793 H 759.348"
         style="fill:none;stroke:#231f20;stroke-width:5;stroke-linecap:butt;stroke-linejoin:miter;stroke-miterlimit:10;stroke-dasharray:20.0363, 20.0363;stroke-dashoffset:0;stroke-opacity:1"
         transform="matrix(0.13333333,0,0,-0.13333333,0,145.30667)" />
      <path
         id="path28"
         d="m 769.363,929.793 h 10 v 10"
         style="fill:none;stroke:#231f20;stroke-width:5;stroke-linecap:butt;stroke-linejoin:miter;stroke-miterlimit:10;stroke-dasharray:none;stroke-opacity:1"
         transform="matrix(0.13333333,0,0,-0.13333333,0,145.30667)" />
      <path
         id="path29"
         d="m 779.363,957.039 v 94.841"
         style="fill:none;stroke:#231f20;stroke-width:5;stroke-linecap:butt;stroke-linejoin:miter;stroke-miterlimit:10;stroke-dasharray:17.2447, 17.2447;stroke-dashoffset:0;stroke-opacity:1"
         transform="matrix(0.13333333,0,0,-0.13333333,0,145.30667)" />
      <path
         id="path30"
         d="m 565.691,848.133 v 10 h -10"
         style="fill:none;stroke:#231f20;stroke-width:5;stroke-linecap:butt;stroke-linejoin:miter;stroke-miterlimit:10;stroke-dasharray:none;stroke-opacity:1"
         transform="matrix(0.13333333,0,0,-0.13333333,0,145.30667)" />
      <path
         id="path31"
         d="M 535.762,858.133 H 186.98"
         style="fill:none;stroke:#231f20;stroke-width:5;stroke-linecap:butt;stroke-linejoin:miter;stroke-miterlimit:10;stroke-dasharray:19.9304, 19.9304;stroke-dashoffset:0;stroke-opacity:1"
         transform="matrix(0.13333333,0,0,-0.13333333,0,145.30667)" />
      <path
         id="path32"
         d="m 177.016,858.133 h -10 v -10"
         style="fill:none;stroke:#231f20;stroke-width:5;stroke-linecap:butt;stroke-linejoin:miter;stroke-miterlimit:10;stroke-dasharray:none;stroke-opacity:1"
         transform="matrix(0.13333333,0,0,-0.13333333,0,145.30667)" />
      <path
         id="path33"
         d="M 167.016,827.48 V 672.609"
         style="fill:none;stroke:#231f20;stroke-width:5;stroke-linecap:butt;stroke-linejoin:miter;stroke-miterlimit:10;stroke-dasharray:20.65, 20.65;stroke-dashoffset:0;stroke-opacity:1"
         transform="matrix(0.13333333,0,0,-0.13333333,0,145.30667)" />
      <path
         id="path34"
         d="m 167.016,662.281 v -10 h 10"
         style="fill:none;stroke:#231f20;stroke-width:5;stroke-linecap:butt;stroke-linejoin:miter;stroke-miterlimit:10;stroke-dasharray:none;stroke-opacity:1"
         transform="matrix(0.13333333,0,0,-0.13333333,0,145.30667)" />
      <path
         id="path35"
         d="M 196.949,652.281 H 545.727"
         style="fill:none;stroke:#231f20;stroke-width:5;stroke-linecap:butt;stroke-linejoin:miter;stroke-miterlimit:10;stroke-dasharray:19.9304, 19.9304;stroke-dashoffset:0;stroke-opacity:1"
         transform="matrix(0.13333333,0,0,-0.13333333,0,145.30667)" />
      <path
         id="path36"
         d="m 555.691,652.281 h 10 v 10"
         style="fill:none;stroke:#231f20;stroke-width:5;stroke-linecap:butt;stroke-linejoin:miter;stroke-miterlimit:10;stroke-dasharray:none;stroke-opacity:1"
         transform="matrix(0.13333333,0,0,-0.13333333,0,145.30667)" />
      <path
         id="path37"
         d="M 565.691,682.93 V 837.805"
         style="fill:none;stroke:#231f20;stroke-width:5;stroke-linecap:butt;stroke-linejoin:miter;stroke-miterlimit:10;stroke-dasharray:20.65, 20.65;stroke-dashoffset:0;stroke-opacity:1"
         transform="matrix(0.13333333,0,0,-0.13333333,0,145.30667)" />
      <path
         id="path38"
         d="m 839.297,801.234 v 10 h 10"
         style="fill:none;stroke:#231f20;stroke-width:5;stroke-linecap:butt;stroke-linejoin:miter;stroke-miterlimit:10;stroke-dasharray:none;stroke-opacity:1"
         transform="matrix(0.13333333,0,0,-0.13333333,0,145.30667)" />
      <path
         id="path39"
         d="m 869.988,811.234 h 31.035"
         style="fill:none;stroke:#231f20;stroke-width:5;stroke-linecap:butt;stroke-linejoin:miter;stroke-miterlimit:10;stroke-dasharray:20.6934, 20.6934;stroke-dashoffset:0;stroke-opacity:1"
         transform="matrix(0.13333333,0,0,-0.13333333,0,145.30667)" />
      <path
         id="path40"
         d="m 911.379,811.234 h 10 v -10"
         style="fill:none;stroke:#231f20;stroke-width:5;stroke-linecap:butt;stroke-linejoin:miter;stroke-miterlimit:10;stroke-dasharray:none;stroke-opacity:1"
         transform="matrix(0.13333333,0,0,-0.13333333,0,145.30667)" />
      <path
         id="path41"
         d="M 921.379,782.922 V 608.914"
         style="fill:none;stroke:#231f20;stroke-width:5;stroke-linecap:butt;stroke-linejoin:miter;stroke-miterlimit:10;stroke-dasharray:18.3168, 18.3168;stroke-dashoffset:0;stroke-opacity:1"
         transform="matrix(0.13333333,0,0,-0.13333333,0,145.30667)" />
      <path
         id="path42"
         d="m 921.379,599.754 v -10 h -10"
         style="fill:none;stroke:#231f20;stroke-width:5;stroke-linecap:butt;stroke-linejoin:miter;stroke-miterlimit:10;stroke-dasharray:none;stroke-opacity:1"
         transform="matrix(0.13333333,0,0,-0.13333333,0,145.30667)" />
      <path
         id="path43"
         d="M 890.684,589.754 H 859.641"
         style="fill:none;stroke:#231f20;stroke-width:5;stroke-linecap:butt;stroke-linejoin:miter;stroke-miterlimit:10;stroke-dasharray:20.6934, 20.6934;stroke-dashoffset:0;stroke-opacity:1"
         transform="matrix(0.13333333,0,0,-0.13333333,0,145.30667)" />
      <path
         id="path44"
         d="m 849.297,589.754 h -10 v 10"
         style="fill:none;stroke:#231f20;stroke-width:5;stroke-linecap:butt;stroke-linejoin:miter;stroke-miterlimit:10;stroke-dasharray:none;stroke-opacity:1"
         transform="matrix(0.13333333,0,0,-0.13333333,0,145.30667)" />
      <path
         id="path45"
         d="M 839.297,618.066 V 792.074"
         style="fill:none;stroke:#231f20;stroke-width:5;stroke-linecap:butt;stroke-linejoin:miter;stroke-miterlimit:10;stroke-dasharray:18.3168, 18.3168;stroke-dashoffset:0;stroke-opacity:1"
         transform="matrix(0.13333333,0,0,-0.13333333,0,145.30667)" />
      <path
         id="path46"
         d="m 316.848,68.1797 v -10 h -10"
         style="fill:none;stroke:#231f20;stroke-width:5;stroke-linecap:butt;stroke-linejoin:miter;stroke-miterlimit:10;stroke-dasharray:none;stroke-opacity:1"
         transform="matrix(0.13333333,0,0,-0.13333333,0,145.30667)" />
      <path
         id="path47"
         d="M 288.176,58.1797 H 110.785"
         style="fill:none;stroke:#231f20;stroke-width:5;stroke-linecap:butt;stroke-linejoin:miter;stroke-miterlimit:10;stroke-dasharray:18.6723, 18.6723;stroke-dashoffset:0;stroke-opacity:1"
         transform="matrix(0.13333333,0,0,-0.13333333,0,145.30667)" />
      <path
         id="path48"
         d="m 101.449,58.1797 h -9.9998 v 10"
         style="fill:none;stroke:#231f20;stroke-width:5;stroke-linecap:butt;stroke-linejoin:miter;stroke-miterlimit:10;stroke-dasharray:none;stroke-opacity:1"
         transform="matrix(0.13333333,0,0,-0.13333333,0,145.30667)" />
      <path
         id="path49"
         d="M 91.4492,87.0898 V 304.508"
         style="fill:none;stroke:#231f20;stroke-width:5;stroke-linecap:butt;stroke-linejoin:miter;stroke-miterlimit:10;stroke-dasharray:18.9063, 18.9063;stroke-dashoffset:0;stroke-opacity:1"
         transform="matrix(0.13333333,0,0,-0.13333333,0,145.30667)" />
      <path
         id="path50"
         d="m 91.4492,313.961 v 10 h 9.9998"
         style="fill:none;stroke:#231f20;stroke-width:5;stroke-linecap:butt;stroke-linejoin:miter;stroke-miterlimit:10;stroke-dasharray:none;stroke-opacity:1"
         transform="matrix(0.13333333,0,0,-0.13333333,0,145.30667)" />
      <path
         id="path51"
         d="M 120.121,323.961 H 297.512"
         style="fill:none;stroke:#231f20;stroke-width:5;stroke-linecap:butt;stroke-linejoin:miter;stroke-miterlimit:10;stroke-dasharray:18.6723, 18.6723;stroke-dashoffset:0;stroke-opacity:1"
         transform="matrix(0.13333333,0,0,-0.13333333,0,145.30667)" />
      <path
         id="path52"
         d="m 306.848,323.961 h 10 v -10"
         style="fill:none;stroke:#231f20;stroke-width:5;stroke-linecap:butt;stroke-linejoin:miter;stroke-miterlimit:10;stroke-dasharray:none;stroke-opacity:1"
         transform="matrix(0.13333333,0,0,-0.13333333,0,145.30667)" />
      <path
         id="path53"
         d="M 316.848,295.055 V 77.6289"
         style="fill:none;stroke:#231f20;stroke-width:5;stroke-linecap:butt;stroke-linejoin:miter;stroke-miterlimit:10;stroke-dasharray:18.9063, 18.9063;stroke-dashoffset:0;stroke-opacity:1"
         transform="matrix(0.13333333,0,0,-0.13333333,0,145.30667)" />
    </g>
  </g>
</svg>
