<?xml version="1.0" encoding="UTF-8" standalone="no"?>
<!-- Created with Inkscape (http://www.inkscape.org/) -->

<svg
   version="1.1"
   id="svg1"
   width="353.67999"
   height="105.8"
   viewBox="0 0 353.67999 105.8"
   sodipodi:docname="pha07f06.eps"
   xmlns:inkscape="http://www.inkscape.org/namespaces/inkscape"
   xmlns:sodipodi="http://sodipodi.sourceforge.net/DTD/sodipodi-0.dtd"
   xmlns="http://www.w3.org/2000/svg"
   xmlns:svg="http://www.w3.org/2000/svg">
  <defs
     id="defs1" />
  <sodipodi:namedview
     id="namedview1"
     pagecolor="#ffffff"
     bordercolor="#000000"
     borderopacity="0.25"
     inkscape:showpageshadow="2"
     inkscape:pageopacity="0.0"
     inkscape:pagecheckerboard="0"
     inkscape:deskcolor="#d1d1d1">
    <inkscape:page
       x="0"
       y="0"
       inkscape:label="1"
       id="page1"
       width="353.67999"
       height="105.8"
       margin="0"
       bleed="0" />
  </sodipodi:namedview>
  <g
     id="g1"
     inkscape:groupmode="layer"
     inkscape:label="1">
    <g
       id="group-R5">
      <path
         id="path2"
         d="M 2650.08,2.5 H 1507.4 v 779.469 h 1142.68 z"
         style="fill:none;stroke:#231f20;stroke-width:5;stroke-linecap:butt;stroke-linejoin:miter;stroke-miterlimit:10;stroke-dasharray:none;stroke-opacity:1"
         transform="matrix(0.13333333,0,0,-0.13333333,0,105.8)" />
      <path
         id="path3"
         d="M 1145.18,11.5391 H 2.5 V 791.008 h 1142.68 z"
         style="fill:none;stroke:#231f20;stroke-width:5;stroke-linecap:butt;stroke-linejoin:miter;stroke-miterlimit:10;stroke-dasharray:none;stroke-opacity:1"
         transform="matrix(0.13333333,0,0,-0.13333333,0,105.8)" />
      <path
         id="path4"
         d="M 5.6357891,-0.2800875 C 5.0264141,-0.3504 4.9561016,-0.44415 4.8389141,-1.1824312 c -0.1875,-1.1601563 -0.3984375,-2.34375 -0.5976563,-3.5625 l -0.1875,-1.2304688 -0.3984375,0.1054688 -2.625,4.6171875 c -0.48046874,0.8320312 -0.58593749,0.89062495 -1.12499999,0.9726562 l -0.08203125,0.28125 H 1.8154766 l 0.070312,-0.28125 C 1.1943828,-0.36211875 1.1709453,-0.45586875 1.3818828,-0.90118125 1.5576641,-1.2644625 1.7686016,-1.6863375 1.9209453,-1.991025 h 1.78125 c 0.070312,0.421875 0.1171875,0.7851563 0.1640625,1.125 0.070312,0.41015625 0.035156,0.52734375 -0.5507812,0.5859375 l -0.082031,0.28125 h 2.332031 z M 3.6318828,-2.4246187 H 2.1553203 c 0.3632813,-0.7265625 0.7734375,-1.4296875 1.1484375,-2.1328125 h 0.011719 z m 0,0"
         style="fill:#231f20;fill-opacity:1;fill-rule:nonzero;stroke:none"
         aria-label="A"
         transform="matrix(1.3333333,0,0,1.3333333,72.497333,55.2172)" />
      <path
         id="path5"
         d="m 2213.75,303.754 v -12.5 h -12.5"
         style="fill:none;stroke:#231f20;stroke-width:5;stroke-linecap:butt;stroke-linejoin:miter;stroke-miterlimit:10;stroke-dasharray:none;stroke-opacity:1"
         transform="matrix(0.13333333,0,0,-0.13333333,0,105.8)" />
      <path
         id="path6"
         d="m 2186.64,291.254 h -654.8"
         style="fill:none;stroke:#231f20;stroke-width:5;stroke-linecap:butt;stroke-linejoin:miter;stroke-miterlimit:10;stroke-dasharray:24.3424, 14.6054;stroke-dashoffset:0;stroke-opacity:1"
         transform="matrix(0.13333333,0,0,-0.13333333,0,105.8)" />
      <path
         id="path7"
         d="m 1524.53,291.254 h -12.5 v 12.5"
         style="fill:none;stroke:#231f20;stroke-width:5;stroke-linecap:butt;stroke-linejoin:miter;stroke-miterlimit:10;stroke-dasharray:none;stroke-opacity:1"
         transform="matrix(0.13333333,0,0,-0.13333333,0,105.8)" />
      <path
         id="path8"
         d="M 1512.03,318.977 V 757.816"
         style="fill:none;stroke:#231f20;stroke-width:5;stroke-linecap:butt;stroke-linejoin:miter;stroke-miterlimit:10;stroke-dasharray:25.3665, 15.2199;stroke-dashoffset:0;stroke-opacity:1"
         transform="matrix(0.13333333,0,0,-0.13333333,0,105.8)" />
      <path
         id="path9"
         d="m 1512.03,765.426 v 12.5 h 12.5"
         style="fill:none;stroke:#231f20;stroke-width:5;stroke-linecap:butt;stroke-linejoin:miter;stroke-miterlimit:10;stroke-dasharray:none;stroke-opacity:1"
         transform="matrix(0.13333333,0,0,-0.13333333,0,105.8)" />
      <path
         id="path10"
         d="m 1539.14,777.926 h 654.81"
         style="fill:none;stroke:#231f20;stroke-width:5;stroke-linecap:butt;stroke-linejoin:miter;stroke-miterlimit:10;stroke-dasharray:24.3424, 14.6054;stroke-dashoffset:0;stroke-opacity:1"
         transform="matrix(0.13333333,0,0,-0.13333333,0,105.8)" />
      <path
         id="path11"
         d="m 2201.25,777.926 h 12.5 v -12.5"
         style="fill:none;stroke:#231f20;stroke-width:5;stroke-linecap:butt;stroke-linejoin:miter;stroke-miterlimit:10;stroke-dasharray:none;stroke-opacity:1"
         transform="matrix(0.13333333,0,0,-0.13333333,0,105.8)" />
      <path
         id="path12"
         d="M 2213.75,750.207 V 311.363"
         style="fill:none;stroke:#231f20;stroke-width:5;stroke-linecap:butt;stroke-linejoin:miter;stroke-miterlimit:10;stroke-dasharray:25.3665, 15.2199;stroke-dashoffset:0;stroke-opacity:1"
         transform="matrix(0.13333333,0,0,-0.13333333,0,105.8)" />
      <path
         id="path13"
         d="m 1755.33,356.801 v 12.5 h 12.5"
         style="fill:none;stroke:#231f20;stroke-width:5;stroke-linecap:butt;stroke-linejoin:miter;stroke-miterlimit:10;stroke-dasharray:none;stroke-opacity:1"
         transform="matrix(0.13333333,0,0,-0.13333333,0,105.8)" />
      <path
         id="path14"
         d="M 1783.02,369.301 H 2625.6"
         style="fill:none;stroke:#231f20;stroke-width:5;stroke-linecap:butt;stroke-linejoin:miter;stroke-miterlimit:10;stroke-dasharray:25.3027, 15.1816;stroke-dashoffset:0;stroke-opacity:1"
         transform="matrix(0.13333333,0,0,-0.13333333,0,105.8)" />
      <path
         id="path15"
         d="m 2633.18,369.301 h 12.5 v -12.5"
         style="fill:none;stroke:#231f20;stroke-width:5;stroke-linecap:butt;stroke-linejoin:miter;stroke-miterlimit:10;stroke-dasharray:none;stroke-opacity:1"
         transform="matrix(0.13333333,0,0,-0.13333333,0,105.8)" />
      <path
         id="path16"
         d="M 2645.68,341.703 V 27.1719"
         style="fill:none;stroke:#231f20;stroke-width:5;stroke-linecap:butt;stroke-linejoin:miter;stroke-miterlimit:10;stroke-dasharray:25.1625, 15.0975;stroke-dashoffset:0;stroke-opacity:1"
         transform="matrix(0.13333333,0,0,-0.13333333,0,105.8)" />
      <path
         id="path17"
         d="m 2645.68,19.625 v -12.5 h -12.5"
         style="fill:none;stroke:#231f20;stroke-width:5;stroke-linecap:butt;stroke-linejoin:miter;stroke-miterlimit:10;stroke-dasharray:none;stroke-opacity:1"
         transform="matrix(0.13333333,0,0,-0.13333333,0,105.8)" />
      <path
         id="path18"
         d="M 2618,7.125 H 1775.42"
         style="fill:none;stroke:#231f20;stroke-width:5;stroke-linecap:butt;stroke-linejoin:miter;stroke-miterlimit:10;stroke-dasharray:25.3027, 15.1816;stroke-dashoffset:0;stroke-opacity:1"
         transform="matrix(0.13333333,0,0,-0.13333333,0,105.8)" />
      <path
         id="path19"
         d="m 1767.83,7.125 h -12.5 v 12.5"
         style="fill:none;stroke:#231f20;stroke-width:5;stroke-linecap:butt;stroke-linejoin:miter;stroke-miterlimit:10;stroke-dasharray:none;stroke-opacity:1"
         transform="matrix(0.13333333,0,0,-0.13333333,0,105.8)" />
      <path
         id="path20"
         d="M 1755.33,34.7227 V 349.254"
         style="fill:none;stroke:#231f20;stroke-width:5;stroke-linecap:butt;stroke-linejoin:miter;stroke-miterlimit:10;stroke-dasharray:25.1625, 15.0975;stroke-dashoffset:0;stroke-opacity:1"
         transform="matrix(0.13333333,0,0,-0.13333333,0,105.8)" />
      <path
         id="path21"
         d="m 1.1362188,-5.8357828 -0.070312,0.2695312 c 0.6796875,0.058594 0.7617187,0.1289063 0.6210937,0.84375 L 0.983875,-1.1365641 C 0.84325,-0.42172031 0.76121875,-0.33968906 0.09325,-0.28109531 L 0.03465625,1.546875e-4 H 2.108875 c 0.7382813,0 1.4179688,-0.0703124975 1.9453125,-0.3281249975 0.5976563,-0.29296875 1.03125,-0.79687499 1.03125,-1.47656249 0,-0.8085938 -0.6210937,-1.2421875 -1.3710937,-1.3828125 v -0.011719 c 0.8085937,-0.1523437 1.5117187,-0.5390625 1.5117187,-1.3945312 0,-0.890625 -0.6796875,-1.2421875 -1.828125,-1.2421875 z m 1.2539062,2.5195312 0.3164063,-1.6757812 c 0.046875,-0.2460938 0.09375,-0.3632813 0.1640625,-0.421875 0.070312,-0.070312 0.1992187,-0.09375 0.3632812,-0.09375 0.46875,0 0.9257813,0.2460937 0.9257813,0.9375 0,0.75 -0.4921875,1.2539062 -1.453125,1.2539062 z m -0.058594,0.3515625 h 0.3046875 c 0.6796875,0 1.3007812,0.28125 1.3007812,1.125 0,0.94921879 -0.65625,1.50000004 -1.3828125,1.50000004 -0.4335937,0 -0.703125,-0.12890625 -0.5742187,-0.80859374 z M 38.882313,32.973788 c -0.621094,0.902343 -1.160157,1.441406 -1.933594,1.441406 -1.007813,0 -1.617188,-0.902344 -1.617188,-2.25 0,-1.699219 1.089844,-3.152344 2.460938,-3.152344 0.773437,0 1.242187,0.316406 1.371094,1.40625 l 0.304687,-0.02344 c 0.03516,-0.503907 0.07031,-1.007813 0.08203,-1.476563 -0.234375,-0.08203 -0.773437,-0.269531 -1.558593,-0.269531 -2.097657,0 -3.832032,1.371094 -3.832032,3.550781 0,1.675781 1.148438,2.578125 2.707032,2.578125 0.667968,0 1.277343,-0.164062 1.558593,-0.234375 0.222657,-0.328125 0.5625,-1.007812 0.726563,-1.441406 z m 0,0"
         style="fill:#231f20;fill-opacity:1;fill-rule:nonzero;stroke:none"
         aria-label="B&#10;C"
         transform="matrix(1.3333333,0,0,1.3333333,244.75067,37.4412)" />
      <path
         id="path22"
         d="m 1180.64,401.273 c 55.11,47.387 165.93,57.266 227.65,42.493"
         style="fill:none;stroke:#231f20;stroke-width:5;stroke-linecap:butt;stroke-linejoin:miter;stroke-miterlimit:10;stroke-dasharray:none;stroke-opacity:1"
         transform="matrix(0.13333333,0,0,-0.13333333,0,105.8)" />
      <path
         id="path23"
         d="m 1399.44,445.957 -3.17,20.844 0.72,0.14 22.62,-22.078 c 8.57,-6.019 17.16,-12.043 25.73,-18.062 -10.31,1.867 -20.62,3.73 -30.94,5.594 l -31.6,0.546 -0.45,0.52 17.09,12.496"
         style="fill:#231f20;fill-opacity:1;fill-rule:nonzero;stroke:none"
         transform="matrix(0.13333333,0,0,-0.13333333,0,105.8)" />
    </g>
  </g>
</svg>
