<svg id="Layer_1" data-name="Layer 1" xmlns="http://www.w3.org/2000/svg" xmlns:xlink="http://www.w3.org/1999/xlink" viewBox="0 0 205 285.67"><defs><style>.cls-1,.cls-11,.cls-4,.cls-5,.cls-6{fill:none;}.cls-2,.cls-3{font-size:24.6px;}.cls-2{font-family:MyriadPro-It, Myriad Pro;font-style:italic;}.cls-3{font-family:MyriadPro-Regular, Myriad Pro;letter-spacing:0em;}.cls-11,.cls-4,.cls-5,.cls-6{stroke:#000;stroke-miterlimit:10;}.cls-4{stroke-dasharray:8 8;}.cls-5{stroke-dasharray:2 2;}.cls-7{clip-path:url(#clip-path);}.cls-8{clip-path:url(#clip-path-2);}.cls-9{clip-path:url(#clip-path-3);}.cls-10{clip-path:url(#clip-path-4);}.cls-11{stroke-width:2px;}</style><clipPath id="clip-path"><polygon class="cls-1" points="101.58 29.04 101.55 36.33 199.37 36.86 199.4 29.57 101.58 29.04"/></clipPath><clipPath id="clip-path-2"><polygon class="cls-1" points="44.44 28.71 44.43 36 102.25 36.35 102.26 29.07 44.44 28.71"/></clipPath><clipPath id="clip-path-3"><polygon class="cls-1" points="54.88 58.88 47.59 58.85 47.13 137.04 54.42 137.06 54.88 58.88"/></clipPath><clipPath id="clip-path-4"><polygon class="cls-1" points="54.88 137.09 47.59 137.06 47.13 215.25 54.42 215.27 54.88 137.09"/></clipPath></defs><title>Artboard 9</title><text class="cls-2" transform="translate(135.17 16.45)">r</text><text class="cls-3" transform="translate(142.99 24.64) scale(0.58)">max</text><text class="cls-2" transform="translate(73.67 16.45)">r</text><text class="cls-2" transform="translate(64.18 95.9)">l</text><text class="cls-2" transform="translate(58.18 120.9)">2</text><circle cx="101.82" cy="137.14" r="6.87"/><circle class="cls-4" cx="101.82" cy="137.14" r="97.02"/><line class="cls-5" x1="101.82" y1="40.12" x2="101.82" y2="234.16"/><line class="cls-5" x1="44.43" y1="40.12" x2="44.43" y2="59"/><line class="cls-6" x1="44.43" y1="59" x2="44.43" y2="215.37"/><line class="cls-5" x1="198.87" y1="36.75" x2="198.87" y2="137.14"/><g class="cls-7"><path d="M142.46,33.45c-.71,0-37.39-.23-37.55-.2-1.71.28-2.48,2-2.72,2.62-.06.11-.07.12-.26.12s-.26,0-.26-.3a1,1,0,0,1,.13-.54c.7-1.7,1.83-3.08,3.55-3.07l43.57.25a1.48,1.48,0,0,0,.43-.06,4.17,4.17,0,0,0,2.78-2.51c.09-.19.1-.2.31-.2s.2,0,.3.23a3.92,3.92,0,0,0,3.06,2.55h1.11l38,.24a6.38,6.38,0,0,1,1.14,0c1.44.29,2.37,1.65,2.94,3,.15.36.15.39.14.58s0,.3-.26.3-.2,0-.24-.11c-1.13-2.67-2.65-2.68-3.38-2.68l-39.39-.24c-.67,0-2.38-.46-3.48-3.15a6.09,6.09,0,0,1-1.51,2.27,3.22,3.22,0,0,1-2.39.86Z"/></g><g class="cls-8"><path d="M65.33,33.05c-.71,0-17.38-.17-17.55-.14-1.7.28-2.47,2.06-2.71,2.62-.06.11-.07.13-.26.13s-.26,0-.26-.31a1,1,0,0,1,.13-.53c.7-1.71,1.82-3.08,3.54-3.08l23.57.17a1.75,1.75,0,0,0,.43-.05A4.19,4.19,0,0,0,75,29.34c.1-.19.11-.21.31-.21s.2,0,.31.24a3.9,3.9,0,0,0,3.06,2.53h1.11l18,.18a6.38,6.38,0,0,1,1.14,0c1.44.29,2.38,1.64,3,3a1.18,1.18,0,0,1,.14.58c0,.3,0,.3-.26.3s-.2,0-.25-.11c-1.14-2.67-2.65-2.67-3.39-2.67l-19.38-.17c-.68,0-2.38-.46-3.49-3.14a6.09,6.09,0,0,1-1.51,2.27,3.2,3.2,0,0,1-2.39.86Z"/></g><line class="cls-6" x1="4.8" y1="137.14" x2="198.84" y2="137.14"/><g class="cls-9"><path d="M50.51,91.55c0-.57.19-29.88.17-30-.29-1.37-2.06-2-2.62-2.18-.11,0-.13-.06-.13-.21s0-.21.31-.2a1.2,1.2,0,0,1,.53.1c1.71.57,3.08,1.47,3.08,2.84l-.22,34.83a1.14,1.14,0,0,0,0,.34c.27,1.18,1.59,1.87,2.51,2.22.2.08.21.09.21.25s0,.16-.24.24c-1.57.59-2.41,1.45-2.54,2.44,0,.11,0,.6,0,.89l-.21,30.41a3.9,3.9,0,0,1,0,.9c-.29,1.16-1.65,1.9-3,2.36a1.42,1.42,0,0,1-.58.11c-.3,0-.3,0-.3-.21s0-.16.11-.2c2.67-.9,2.68-2.11,2.68-2.69l.21-31.48c0-.54.46-1.9,3.15-2.78a6.37,6.37,0,0,1-2.27-1.21,2.24,2.24,0,0,1-.86-1.92Z"/></g><g class="cls-10"><path d="M50.51,169.76c0-.57.19-29.88.17-30-.29-1.37-2.06-2-2.62-2.18-.11,0-.13-.06-.13-.21s0-.2.31-.2a1.2,1.2,0,0,1,.53.1c1.71.57,3.08,1.47,3.08,2.84l-.22,34.83a1.14,1.14,0,0,0,0,.34c.27,1.18,1.59,1.87,2.51,2.22.2.08.21.09.21.25s0,.16-.24.24c-1.57.59-2.41,1.45-2.54,2.45,0,.1,0,.59,0,.89l-.21,30.4a4.07,4.07,0,0,1,0,.91c-.29,1.15-1.65,1.89-3,2.35a1.42,1.42,0,0,1-.58.11c-.3,0-.3,0-.3-.21s0-.16.11-.2c2.67-.89,2.68-2.11,2.68-2.69l.21-31.48c0-.54.46-1.9,3.15-2.78a6.37,6.37,0,0,1-2.27-1.21,2.24,2.24,0,0,1-.86-1.92Z"/></g><line class="cls-11" x1="58.84" y1="100.09" x2="73.34" y2="100.09"/><text class="cls-2" transform="translate(64.18 174.18)">l</text><text class="cls-2" transform="translate(58.18 199.18)">2</text><line class="cls-11" x1="58.84" y1="178.38" x2="73.34" y2="178.38"/><path d="M56.27,269.17l1.15-6.1c.24-1.23.39-2.48.49-3.36h1.43c-.08.66-.16,1.32-.26,2.05h.06A3.42,3.42,0,0,1,62,259.49a3,3,0,0,1,.45,0l-.31,1.6a2.24,2.24,0,0,0-.43,0c-1.41,0-2.66,1.7-3.07,3.91l-.78,4.17Z"/><path d="M61.94,262.66l.11-.63,1.11-.92c2-1.68,3.14-2.83,3.14-4.05a1.06,1.06,0,0,0-1.15-1.13,2.7,2.7,0,0,0-1.53.54l-.25-.69a3.6,3.6,0,0,1,2-.66,1.75,1.75,0,0,1,1.94,1.82c0,1.57-1.43,2.94-3.2,4.39l-.63.49v0h3.11l-.16.81Z"/><path d="M77.67,258.77v4.61H82v1.13H77.67v4.66H76.46v-4.66H72.18v-1.13h4.28v-4.61Z"/><path d="M112.31,262.56v-1.15h9.77v1.15Zm0,3.85v-1.15h9.77v1.15Z"/><path d="M127,269.17l1.15-6.1c.24-1.23.39-2.48.49-3.36H130c-.08.66-.16,1.32-.26,2.05h.06a3.42,3.42,0,0,1,2.89-2.27,3,3,0,0,1,.45,0l-.31,1.6a2.24,2.24,0,0,0-.43,0c-1.41,0-2.66,1.7-3.07,3.91l-.78,4.17Z"/><path d="M133.47,271.65c0-.57,0-1-.05-1.49h.88l0,.89h0a1.9,1.9,0,0,1,1.73-1,1.64,1.64,0,0,1,1.57,1.11h0a2.32,2.32,0,0,1,.61-.72,1.9,1.9,0,0,1,1.22-.39c.73,0,1.82.48,1.82,2.4v3.25h-1v-3.13c0-1.06-.39-1.69-1.2-1.69a1.3,1.3,0,0,0-1.19.91,1.8,1.8,0,0,0-.08.5v3.41h-1v-3.31c0-.88-.38-1.51-1.15-1.51a1.37,1.37,0,0,0-1.24,1,1.33,1.33,0,0,0-.08.49v3.33h-1Z"/><path d="M146,275.68,146,275h0a2.08,2.08,0,0,1-1.69.82,1.57,1.57,0,0,1-1.69-1.58c0-1.34,1.19-2.07,3.32-2.05v-.12a1.15,1.15,0,0,0-1.26-1.28,2.76,2.76,0,0,0-1.43.42l-.23-.67a3.5,3.5,0,0,1,1.81-.49c1.69,0,2.1,1.16,2.1,2.26v2.06a7.73,7.73,0,0,0,.09,1.33Zm-.15-2.82c-1.09,0-2.34.17-2.34,1.24a.89.89,0,0,0,1,1,1.35,1.35,0,0,0,1.33-.92,1,1,0,0,0,.06-.32Z"/><path d="M148.94,270.16l.78,1.19c.21.3.38.59.56.9h0c.19-.34.37-.62.55-.92l.78-1.17h1.08l-1.88,2.67,1.94,2.85h-1.14l-.81-1.25c-.22-.32-.4-.62-.6-.95h0c-.18.33-.37.62-.58.95l-.8,1.25h-1.1l2-2.82-1.87-2.7Z"/><path d="M96,261l2.64-13.88h1.62L97.59,261Z"/><path d="M92.24,280.89l.2-1.07,1.89-1.59c3.4-2.87,5.4-4.84,5.4-6.93a1.82,1.82,0,0,0-2-1.94,4.61,4.61,0,0,0-2.62.92l-.42-1.17A6,6,0,0,1,98.09,268a3,3,0,0,1,3.32,3.11c0,2.7-2.46,5-5.49,7.55l-1.08.84v0h5.34l-.28,1.38Z"/><rect x="91.18" y="263.57" width="11.52" height="1.59"/><path d="M133.79,262.66l.12-.63,1.1-.92c2-1.68,3.15-2.83,3.15-4.05a1.06,1.06,0,0,0-1.16-1.13,2.64,2.64,0,0,0-1.52.54l-.25-.69a3.58,3.58,0,0,1,2-.66,1.76,1.76,0,0,1,1.94,1.82c0,1.57-1.44,2.94-3.21,4.39l-.62.49v0h3.11l-.16.81Z"/><path d="M109.84,250.54l.12-.63,1.1-.92c2-1.68,3.15-2.83,3.15-4.05a1.07,1.07,0,0,0-1.16-1.13,2.64,2.64,0,0,0-1.52.54l-.25-.68a3.51,3.51,0,0,1,2-.67,1.76,1.76,0,0,1,1.94,1.82c0,1.57-1.44,2.94-3.21,4.4l-.62.49v0h3.11l-.16.81Z"/><path d="M89.72,246a57.08,57.08,0,0,0-2.33,17.56A58.43,58.43,0,0,0,89.72,281H88.45A54.82,54.82,0,0,1,86,263.52,56.19,56.19,0,0,1,88.45,246Z"/><path d="M104.36,281a58.75,58.75,0,0,0,2.33-17.56A57.39,57.39,0,0,0,104.36,246h1.26c1.18,3.52,2.43,9,2.43,17.48A55.37,55.37,0,0,1,105.62,281Z"/></svg>