<svg id="Layer_1" data-name="Layer 1" xmlns="http://www.w3.org/2000/svg" viewBox="0 0 276 282.138"><defs><style>.cls-1{fill:#f2f2f2;stroke-width:1.695px;}.cls-1,.cls-10,.cls-11{stroke:#000;}.cls-2,.cls-3,.cls-4{font-size:24.601px;}.cls-2,.cls-3,.cls-6,.cls-7,.cls-8,.cls-9{font-family:MyriadPro-Regular, Myriad Pro;}.cls-3{letter-spacing:0em;}.cls-4{font-family:MyriadPro-It, Myriad Pro;}.cls-5{font-style:italic;}.cls-7,.cls-8,.cls-9{font-size:24.6px;}.cls-8{letter-spacing:0em;}.cls-9{letter-spacing:0em;}.cls-10,.cls-11{fill:none;stroke-width:2px;}.cls-10{stroke-linecap:square;stroke-miterlimit:10;}.cls-11{stroke-linecap:round;stroke-linejoin:round;}</style></defs><title>Artboard 5 copy 3</title><path id="Bunny" class="cls-1" d="M61.8,68.871c.068-.08-1.693-12.747-1.99-19.216A25.74,25.74,0,0,1,62.386,37.2c4.041-6.875,14.3-5.9,18.817-3.439,7.316,4,6.237,13.358,4.122,23.447-.454,2.188.466,5.268.561,6.2s-.233,3.192-.129,5.559a4.6,4.6,0,0,0,1.786-.14c1.295-.27,18.115-17.927,36.4-29.354S142.815,25.87,150.262,25.72s9.567,6.733,10.377,7.986a21.548,21.548,0,0,1,2.817,13.884c-.976,8.54-4.155,11.794-8.36,14.561-5.984,3.933-28.549,12.837-30.155,13.452S105.132,85.822,103.56,87.859s1.164,10.552,2.362,13.042c1.2,2.51,3.541,6.573,6.477,7.573s9.171,2.534,12.462,3.593,5.759,2,8.538,1.991,22.13-4.969,26.584-5.717,14.755-2.092,21.016-1.913a46.759,46.759,0,0,1,21.511,6.357c7.6,4.329,13.621,8.284,20.214,16.209s12.9,18.439,15.133,25.7c2.233,7.245,2.28,7.3,3.329,21.571,1.033,14.258-.186,13.585,1.479,15.677s7.878-.675,12.612,2.013,7.173,5.387,7.035,13.012c-.087,4.367,0,6.8-1.331,9.788-1.025,2.314-2.007,4.688-3.051,6.848-1.048,2.178-7.873,10.031-11.032,11.742s-17.664,9.585-23.622,11.861c-6.191,2.371-12.735,1.833-23.976,2.169-11.18.32-56.562.2-61.466.052-5.2-.161-44.555-.7-50.28-.861s-16.257.286-19.663-1.433-1.892-2.989-1.44-4.747a21.759,21.759,0,0,1,7.4-10.681c4.612-3.341,10.888-3.405,12.024-4.564s1.954-2.65,3.219-7.684c1.908-7.653-3.088-5.846-10.426-8.644-11.085-4.223-14.592-10.023-16.615-12.485s-6.834-4.556-8.23-8.595c-1.7-4.91-4.6-6.222-6.448-9.636-1.474-2.731-.438-4.615-1.686-7.53S42.527,167.537,42.5,162.1a62.253,62.253,0,0,1,1.388-14.453,41.088,41.088,0,0,1,2.851-7.16c.5-1.351,1.594-2.988.433-4.244s-7.124-4.75-8.641-9.262-2.375-8.737-2.328-11.337,2.233-11.354,5.543-15.618c.723-.939.742-4.592.643-5.768-.1-1.193-1.939-3.887-1.654-6.481s.651-6.73.676-8.021c.027-1.307,1.434-7.428,17.973-10.192A10.282,10.282,0,0,0,61.8,68.871Z"/><text class="cls-2" transform="translate(166.155 92.069)">p</text><text class="cls-2" transform="translate(180.153 100.261) scale(0.583)">o</text><text class="cls-2" transform="translate(35.205 199.575)">p</text><text class="cls-3" transform="translate(49.203 207.767) scale(0.583)">i</text><text class="cls-4" transform="translate(93.333 232.847)"><tspan class="cls-5">S</tspan><tspan class="cls-6" x="11.464" y="0">(</tspan><tspan class="cls-7" x="18.45" y="0">p</tspan></text><text class="cls-8" transform="translate(125.782 241.038) scale(0.583)">o</text><text class="cls-7" transform="translate(133.655 232.847)">, ω</text><text class="cls-7" transform="translate(161.034 241.038) scale(0.583)">o</text><text class="cls-7" transform="translate(168.908 232.847)">, p</text><text class="cls-7" transform="translate(193.211 241.038) scale(0.583)">i</text><text class="cls-7" transform="translate(196.567 232.847)">, ω</text><text class="cls-9" transform="translate(223.946 241.038) scale(0.583)">i</text><text class="cls-7" transform="translate(227.302 232.847)">)</text><text class="cls-7" transform="translate(216.488 77.061)">ω</text><text class="cls-8" transform="translate(233.56 85.253) scale(0.583)">o</text><text class="cls-7" transform="translate(34.155 245.728)">ω</text><text class="cls-7" transform="translate(51.227 253.92) scale(0.583)">i</text><circle cx="61.222" cy="198.575" r="6.867"/><circle cx="191.055" cy="108.3" r="6.867"/><line class="cls-10" x1="64.853" y1="190.447" x2="52.106" y2="218.981"/><polygon points="47.357 214.942 48.594 226.844 58.283 219.823 47.357 214.942"/><line class="cls-10" x1="187.68" y1="110.8" x2="209.027" y2="87.974"/><polygon points="212.202 93.34 214.909 81.685 203.461 85.166 212.202 93.34"/><polyline class="cls-11" points="64.482 189.107 80.667 152.499 94.667 137.955 94.667 173.068 122 162.068 104.25 192.568 100.667 154.401 129 132.735 142.667 189.401 195.333 200.401 188 191.442 170.333 208.068 166.667 150.735 198.667 152.735 190.667 114.068"/></svg>