<svg id="Layer_1" data-name="Layer 1" xmlns="http://www.w3.org/2000/svg" xmlns:xlink="http://www.w3.org/1999/xlink" viewBox="0 0 235.988 138"><defs><style>.cls-1,.cls-10,.cls-2,.cls-3,.cls-8,.cls-9{fill:none;}.cls-10,.cls-2,.cls-3,.cls-6,.cls-7,.cls-8,.cls-9{stroke:#000;stroke-miterlimit:10;}.cls-2,.cls-9{stroke-dasharray:5 5;}.cls-4,.cls-5{font-size:22px;}.cls-4{font-family:MyriadPro-It, Myriad Pro;font-style:italic;}.cls-5{font-family:MyriadPro-Regular, Myriad Pro;}.cls-6{fill:#fcee21;}.cls-6,.cls-7{stroke-width:0.2px;}.cls-7{fill:#8f8fff;}.cls-8,.cls-9{stroke-width:2px;}.cls-10{stroke-dasharray:4.896 4.896;}.cls-11{clip-path:url(#clip-path);}.cls-12{clip-path:url(#clip-path-2);}</style><clipPath id="clip-path"><polygon class="cls-1" points="207.154 12.422 199.865 12.418 199.503 83.502 206.791 83.505 207.154 12.422"/></clipPath><clipPath id="clip-path-2"><polygon class="cls-1" points="206.972 84.283 199.684 84.279 199.503 117.363 206.791 117.366 206.972 84.283"/></clipPath></defs><title>Artboard 11</title><line class="cls-2" x1="65.174" y1="119.667" x2="178.17" y2="119.667"/><line class="cls-2" x1="65.174" y1="13.054" x2="177.28" y2="13.054"/><line class="cls-3" x1="178.17" y1="14.206" x2="178.17" y2="119.667"/><text class="cls-4" transform="translate(6.821 92.186)">z = 0</text><text class="cls-4" transform="translate(6.821 124.853)">z = z</text><text class="cls-5" transform="translate(46.2 132.179) scale(0.583)">r</text><text class="cls-4" transform="translate(6.821 54.52)">z = z</text><text class="cls-5" transform="translate(46.2 61.846) scale(0.583)">e</text><text class="cls-4" transform="translate(211.988 54.853)">d</text><text class="cls-5" transform="translate(223.538 62.179) scale(0.583)">v</text><text class="cls-4" transform="translate(211.988 100.822)">d</text><text class="cls-5" transform="translate(223.538 108.149) scale(0.583)">r</text><text class="cls-4" transform="translate(6.821 16.186)">z = z</text><text class="cls-5" transform="translate(46.2 23.513) scale(0.583)">v</text><polyline class="cls-6" points="176.186 125.177 173.202 130.274 175.207 124.718 171.337 129.18 174.329 124.088 169.705 127.763 173.582 123.307 168.362 126.07 172.991 122.402 167.352 124.158 172.577 121.404 166.711 122.094 172.353 120.346 166.46 119.947 172.327 119.266 166.608 117.79 172.5 118.199 167.15 115.698 172.867 117.182 168.067 113.74 173.413 116.25 169.328 111.985 174.122 115.434 170.89 110.491 174.969 114.762 172.7 109.309 175.924 114.258 174.696 108.48 176.957 113.937 176.811 108.032 178.03 113.812 178.972 107.981 179.108 113.886 181.105 108.327 180.155 114.156 183.139 109.059 181.133 114.615 185.003 110.153 182.011 115.245 186.635 111.57 182.758 116.026 187.979 113.264 183.349 116.931 188.988 115.175 183.763 117.93 189.629 117.239 183.987 118.987 189.88 119.386 184.013 120.067 189.732 121.543 183.84 121.134 189.191 123.635 183.474 122.151 188.274 125.593 182.927 123.083 187.013 127.349 182.218 123.899 185.451 128.843 181.372 124.571 183.641 130.024 180.416 125.076 181.644 130.853 179.384 125.396 179.53 131.301 178.31 125.522 177.369 131.353 177.232 125.448 175.235 131.006 176.186 125.177"/><polyline class="cls-7" points="176.186 18.564 173.202 23.661 175.207 18.106 171.337 22.568 174.329 17.475 169.705 21.15 173.582 16.694 168.362 19.457 172.991 15.789 167.352 17.545 172.577 14.791 166.711 15.481 172.353 13.734 166.46 13.334 172.327 12.653 166.608 11.178 172.5 11.586 167.15 9.085 172.867 10.57 168.067 7.128 173.413 9.637 169.328 5.372 174.122 8.821 170.89 3.878 174.969 8.15 172.7 2.696 175.924 7.645 174.696 1.868 176.957 7.324 176.811 1.42 178.03 7.199 178.972 1.368 179.108 7.273 181.105 1.714 180.155 7.544 183.139 2.447 181.133 8.002 185.003 3.54 182.011 8.633 186.635 4.958 182.758 9.414 187.979 6.651 183.349 10.319 188.988 8.562 183.763 11.317 189.629 10.627 183.987 12.374 189.88 12.774 184.013 13.455 189.732 14.93 183.84 14.521 189.191 17.023 183.474 15.538 188.274 18.98 182.927 16.471 187.013 20.736 182.218 17.286 185.451 22.23 181.372 17.958 183.641 23.411 180.416 18.463 181.644 24.24 179.384 18.784 179.53 24.688 178.31 18.909 177.369 24.74 177.232 18.835 175.235 24.394 176.186 18.564"/><line class="cls-8" x1="65.174" y1="84.279" x2="197.321" y2="84.279"/><line class="cls-9" x1="65.174" y1="84.279" x2="160.655" y2="84.279"/><line class="cls-3" x1="65.174" y1="48.667" x2="67.674" y2="48.667"/><line class="cls-10" x1="72.57" y1="48.667" x2="168.035" y2="48.667"/><line class="cls-3" x1="170.482" y1="48.667" x2="172.982" y2="48.667"/><line class="cls-3" x1="170.004" y1="48.667" x2="186.337" y2="48.667"/><g class="cls-11"><path d="M202.81,38.109c0-.873.173-21.371.146-21.575a4.556,4.556,0,0,0-2.627-3.333c-.11-.073-.124-.088-.123-.321,0-.32.013-.32.3-.32a.824.824,0,0,1,.537.161,4.875,4.875,0,0,1,3.08,4.352l-.176,28.981a2.372,2.372,0,0,0,.055.524,4.849,4.849,0,0,0,2.516,3.406c.193.117.207.131.206.379,0,.233-.013.247-.234.378a4.739,4.739,0,0,0-2.533,3.767c-.014.161-.014.917-.014,1.368l-.178,22.176a9.328,9.328,0,0,1-.042,1.4,5.208,5.208,0,0,1-3,3.636c-.358.174-.385.174-.578.174-.3,0-.3-.014-.3-.32,0-.218,0-.247.111-.3,2.669-1.4,2.67-3.259,2.671-4.161l.178-23.834c0-.83.455-2.925,3.139-4.291a6.1,6.1,0,0,1-2.269-1.849,4.523,4.523,0,0,1-.866-2.94Z"/></g><g class="cls-12"><path d="M202.775,88.4a4.556,4.556,0,0,0-2.627-3.333c-.11-.073-.124-.088-.124-.321,0-.32.014-.32.3-.32a.826.826,0,0,1,.537.161,4.876,4.876,0,0,1,3.08,4.352l.005,6.981a2.372,2.372,0,0,0,.055.524,4.849,4.849,0,0,0,2.516,3.406c.193.117.207.131.206.379,0,.233-.013.247-.234.378a4.739,4.739,0,0,0-2.533,3.767c-.014.161-.014.917-.014,1.368l-.178,6.176a9.328,9.328,0,0,1-.042,1.4,5.208,5.208,0,0,1-3,3.636c-.358.175-.385.174-.578.174-.3,0-.3-.014-.3-.32,0-.218,0-.247.111-.3,2.669-1.4,2.67-3.259,2.671-4.161l.178-7.834c0-.829.455-2.925,3.139-4.291a6.1,6.1,0,0,1-2.269-1.849,4.523,4.523,0,0,1-.866-2.94S202.8,88.6,202.775,88.4Z"/></g></svg>