<svg id="Layer_1" data-name="Layer 1" xmlns="http://www.w3.org/2000/svg" viewBox="0 0 414 147.667"><defs><style>.cls-1{font-size:15px;}.cls-1,.cls-14,.cls-5{font-family:MyriadPro-Regular, Myriad Pro;}.cls-2{letter-spacing:-0.003em;}.cls-17,.cls-18,.cls-3,.cls-4{fill:none;stroke-miterlimit:3.25;}.cls-3{stroke:#5e81b5;}.cls-17,.cls-3,.cls-4{stroke-linecap:square;}.cls-4{stroke:#e29d25;}.cls-16,.cls-5{font-size:8px;}.cls-14,.cls-15,.cls-16,.cls-5{fill:#231f20;}.cls-6{letter-spacing:2.94em;}.cls-7{letter-spacing:0em;}.cls-8{letter-spacing:2.94em;}.cls-9{letter-spacing:4.284em;}.cls-10{letter-spacing:3.44em;}.cls-11{letter-spacing:0em;}.cls-12{letter-spacing:3.19em;}.cls-13{letter-spacing:3.19em;}.cls-14,.cls-15{font-size:8px;}.cls-15,.cls-16{font-family:MyriadPro-It, Myriad Pro;font-style:italic;}.cls-17,.cls-18{stroke:#231f20;stroke-width:0.5px;}</style></defs><title>Artboard 12</title><text class="cls-1" transform="translate(6.747 144.661) scale(0.583)">(a)</text><text class="cls-1" transform="translate(223.997 144.661) scale(0.583)">(<tspan class="cls-2" x="4.26" y="0">b</tspan><tspan x="12.751" y="0">)</tspan></text><path class="cls-3" d="M238.046,114.236c1.736-8.6,3.526-17.186,5.708-25.688a261.842,261.842,0,0,1,7.73-25.455,131.551,131.551,0,0,1,11.416-23.9c4.412-7.123,10.219-13.859,17.217-18.55a67.99,67.99,0,0,1,23.476-9.823,174.6,174.6,0,0,1,25.915-3.381c8.666-.569,17.349-.816,26.03-.988,8.511-.168,17.024-.238,25.535-.283q11.646-.062,23.292-.08"/><path class="cls-4" d="M238.046,114.236a119.278,119.278,0,0,0,22.522-12.256,229.747,229.747,0,0,0,20.676-15.743c6.536-5.523,12.846-11.31,19.173-17.069,6.518-5.932,13.064-11.831,19.81-17.5a238.688,238.688,0,0,1,20.317-15.472,202,202,0,0,1,22.116-13.03c7.786-3.905,15.8-7.288,23.887-10.506,5.024-2,10.382-3.766,15.024-6.577"/><path class="cls-3" d="M27.457,114.224c7.493-.356,14.984-.743,22.47-1.21q11.2-.7,22.4-1.623,11.248-.947,22.469-2.187c7.511-.844,15.007-1.831,22.47-3.023,7.514-1.2,15.012-2.607,22.4-4.461a118.532,118.532,0,0,0,22.47-7.711c7.048-3.379,13.65-7.934,18.551-14.093,5.129-6.445,8.259-14.092,10.257-22.029a143.823,143.823,0,0,0,3.633-25.279c.606-8.84.69-17.682.851-26.539"/><text class="cls-5" transform="translate(11.747 8.773)">1.0</text><text class="cls-5" transform="translate(11.747 30.393)">0.8</text><text class="cls-5" transform="translate(11.747 52.013)">0.6</text><text class="cls-5" transform="translate(11.747 73.633)">0.4</text><text class="cls-5" transform="translate(11.747 95.253)">0.2</text><text class="cls-5" transform="translate(11.747 116.873)">0.0</text><text class="cls-5" transform="translate(220.655 8.773)">1.0</text><text class="cls-5" transform="translate(220.655 30.393)">0.8</text><text class="cls-5" transform="translate(220.655 52.013)">0.6</text><text class="cls-5" transform="translate(220.655 73.633)">0.4</text><text class="cls-5" transform="translate(220.655 95.253)">0.2</text><text class="cls-5" transform="translate(220.655 116.873)">0.0</text><text class="cls-5" transform="translate(22.458 126.636)">0.0</text><text class="cls-5" transform="translate(55.983 126.636)">0.<tspan class="cls-6" x="5.76" y="0">2</tspan><tspan class="cls-7" x="33.384" y="0">0.</tspan><tspan class="cls-8" x="39.144" y="0">4</tspan><tspan x="66.767" y="0">0.</tspan><tspan class="cls-6" x="72.527" y="0">6</tspan><tspan x="100.151" y="0">0.</tspan><tspan class="cls-6" x="105.911" y="0">8</tspan><tspan x="133.535" y="0">1.</tspan><tspan class="cls-9" x="139.294" y="0">0</tspan><tspan class="cls-10" x="177.67" y="0">0</tspan><tspan class="cls-11" x="209.294" y="0">2</tspan><tspan class="cls-12" x="213.398" y="0">0</tspan><tspan class="cls-11" x="243.021" y="0">4</tspan><tspan class="cls-13" x="247.126" y="0">0</tspan><tspan class="cls-7" x="276.75" y="0">6</tspan><tspan class="cls-13" x="280.854" y="0">0</tspan><tspan class="cls-7" x="310.478" y="0">8</tspan><tspan class="cls-6" x="314.581" y="0">0</tspan><tspan class="cls-7" x="342.205" y="0">100</tspan></text><text class="cls-14" transform="translate(216.001 73.237) rotate(-90)">Albedo</text><text class="cls-15" transform="translate(6 66.372) rotate(-90)">ρ</text><text class="cls-14" transform="translate(8.664 62.076) rotate(-90) scale(0.583)">eff</text><text class="cls-16" transform="translate(265.376 20.958)">ρ</text><text class="cls-5" transform="translate(269.672 23.622) scale(0.583)">i</text><text class="cls-16" transform="translate(306.12 50.581)">ρ</text><text class="cls-5" transform="translate(310.416 53.245) scale(0.583)">eff</text><text class="cls-5" transform="translate(300.002 135.253)">Sample index</text><text class="cls-16" transform="translate(110.801 135.253)">ρ</text><path class="cls-17" d="M27.457,114.224V6.083M195.084,114.224H27.457m208.908.012V6.1M403.992,114.236H236.365"/><path class="cls-18" d="M403.992,118.213v-3.977m-33.525,3.977v-3.977m-33.526,3.977v-3.977m-33.525,3.977v-3.977m-33.525,3.977v-3.977m-33.526,3.977v-3.977m-4-108.141h4m-4,21.626h4m-4,21.626h4m-4,21.626h4m-4,43.251h4m-4-21.626h4M23.457,6.1h4m-4,21.626h4m-4,21.626h4m-4,21.626h4m-4,43.251h4m-4-21.626h4m167.627,25.615v-3.977m-33.525,3.977v-3.977m-33.526,3.977v-3.977m-33.525,3.977v-3.977m-33.525,3.977v-3.977m-33.526,3.977v-3.977"/></svg>