<svg id="Layer_1" data-name="Layer 1" xmlns="http://www.w3.org/2000/svg" xmlns:xlink="http://www.w3.org/1999/xlink" viewBox="0 0 422 140.867"><defs><style>.cls-1,.cls-14,.cls-15,.cls-16{fill:none;}.cls-2,.cls-3{font-size:24.601px;}.cls-2{font-family:MyriadPro-It, Myriad Pro;font-style:italic;}.cls-3{font-family:MyriadPro-Regular, Myriad Pro;}.cls-4{letter-spacing:-0.024em;}.cls-5,.cls-6,.cls-7,.cls-8,.cls-9{font-size:24.6px;}.cls-5{letter-spacing:-0.02em;}.cls-6{letter-spacing:0em;}.cls-7{letter-spacing:-0.033em;}.cls-8{letter-spacing:-0.154em;}.cls-10{letter-spacing:0em;}.cls-11{letter-spacing:-0.033em;}.cls-12{letter-spacing:-0.086em;}.cls-13{letter-spacing:-0.003em;}.cls-14,.cls-15,.cls-16{stroke:#000;stroke-miterlimit:10;}.cls-14{stroke-linecap:square;}.cls-14,.cls-15{stroke-width:2px;}.cls-15{stroke-dasharray:4;}.cls-16{stroke-width:1.5px;}.cls-17{clip-path:url(#clip-path);}</style><clipPath id="clip-path"><rect class="cls-1" x="168.887" y="-57.268" width="13.026" height="303.984" transform="matrix(0.221, -0.975, 0.975, 0.221, 44.205, 244.809)"/></clipPath></defs><title>Artboard 5</title><text class="cls-2" transform="translate(4.155 23.599)">L</text><text class="cls-3" transform="translate(15.028 31.792) scale(0.583)">i</text><text class="cls-3" transform="translate(18.385 23.599)">(<tspan class="cls-4" x="6.986" y="0">p</tspan><tspan x="20.395" y="0">, </tspan><tspan class="cls-5" x="30.701" y="0">ω</tspan><tspan class="cls-6" x="47.282" y="0">)</tspan></text><text class="cls-2" transform="translate(291.988 91.886)">L</text><text class="cls-3" transform="translate(302.861 100.078) scale(0.583)">s</text><text class="cls-3" transform="translate(308.541 91.886)">(<tspan class="cls-7" x="6.986" y="0">p</tspan><tspan class="cls-8" x="20.173" y="0">’</tspan><tspan class="cls-9" x="21.477" y="0">, -</tspan><tspan class="cls-5" x="39.336" y="0">ω</tspan><tspan class="cls-6" x="55.917" y="0">)</tspan></text><text class="cls-3" transform="translate(112.704 130.679)">T</text><text class="cls-2" transform="translate(124.931 138.872) scale(0.583)">r</text><text class="cls-3" transform="translate(129.491 130.679)"><tspan class="cls-10">(</tspan><tspan class="cls-11" x="6.987" y="0">p</tspan><tspan class="cls-12" x="20.173" y="0">’</tspan><tspan x="23.149" y="0" xml:space="preserve">    </tspan><tspan class="cls-13" x="44.01" y="0">p</tspan><tspan x="57.935" y="0">)</tspan></text><line class="cls-14" x1="31.105" y1="45.306" x2="130.816" y2="68.06"/><polygon points="127.778 73.504 139.211 69.976 130.44 61.837 127.778 73.504"/><circle cx="328.995" cy="113.298" r="6.867"/><line class="cls-14" x1="328.995" y1="113.298" x2="229.284" y2="90.545"/><polygon points="232.322 85.101 220.888 88.629 229.66 96.768 232.322 85.101"/><line class="cls-15" x1="57.462" y1="51.444" x2="412.895" y2="132.328"/><circle cx="30.823" cy="45.382" r="6.867"/><line class="cls-16" x1="153.73" y1="124.563" x2="167.425" y2="124.563"/><polygon points="166.549 127.554 171.73 124.563 166.549 121.571 166.549 127.554"/><g class="cls-17"><path d="M190.021,97.085c1.277.29,127.5,28.891,127.809,28.91,3.18.192,5.266-2.587,5.915-3.474.15-.167.177-.187.518-.109.468.106.463.13.348.634a1.69,1.69,0,0,1-.446.882c-1.931,2.688-4.5,4.628-7.585,3.927L177.945,96.438a2.967,2.967,0,0,0-.788-.078c-2.77-.125-4.825,1.83-5.978,3.258-.246.3-.273.316-.635.234-.341-.077-.356-.106-.461-.533-.721-3.039-2.326-4.941-4.512-5.665-.229-.077-1.336-.328-2-.478L34.9,64.011a11.652,11.652,0,0,1-2.028-.535c-2.483-1.093-3.631-3.826-4.135-6.437a2,2,0,0,1-.027-1.065c.12-.527.141-.523.588-.421.319.072.362.082.4.293.987,5.117,3.712,5.735,5.032,6.035L165.836,91.6c1.214.276,4.1,1.763,5.04,6.894a10.724,10.724,0,0,1,3.6-3.344,6.013,6.013,0,0,1,4.644-.535Z"/></g></svg>