<svg id="Layer_1" data-name="Layer 1" xmlns="http://www.w3.org/2000/svg" viewBox="0 0 545.221 236.069"><defs><style>.cls-1,.cls-10,.cls-3{font-size:24.601px;}.cls-1,.cls-10,.cls-12{font-family:MyriadPro-Regular, Myriad Pro;}.cls-14,.cls-15,.cls-2{fill:none;stroke:#000;stroke-miterlimit:10;}.cls-2{stroke-width:3px;}.cls-3{font-family:MyriadPro-It, Myriad Pro;font-style:italic;}.cls-4{letter-spacing:-0.024em;}.cls-11,.cls-12,.cls-5,.cls-6,.cls-7,.cls-8,.cls-9{font-size:24.6px;}.cls-13,.cls-5{letter-spacing:-0.02em;}.cls-6{letter-spacing:0em;}.cls-7{letter-spacing:-0.033em;}.cls-8{letter-spacing:-0.154em;}.cls-10{letter-spacing:0em;}.cls-11{letter-spacing:0em;}.cls-14{stroke-linecap:square;}.cls-14,.cls-15{stroke-width:2px;}.cls-15{stroke-dasharray:4;}</style></defs><title>Artboard 5 copy 2</title><text class="cls-1" transform="translate(520.241 139.444)">p</text><text class="cls-1" transform="translate(534.239 147.637) scale(0.583)">0</text><line class="cls-2" x1="520.721" y1="223.723" x2="500.978" y2="22.576"/><text class="cls-3" transform="translate(4.155 23.599)">L</text><text class="cls-1" transform="translate(15.028 31.792) scale(0.583)">i</text><text class="cls-1" transform="translate(18.385 23.599)">(<tspan class="cls-4" x="6.986" y="0">p</tspan><tspan x="20.395" y="0">, </tspan><tspan class="cls-5" x="30.701" y="0">ω</tspan><tspan class="cls-6" x="47.282" y="0">)</tspan></text><text class="cls-3" transform="translate(291.988 91.886)">L</text><text class="cls-1" transform="translate(302.861 100.078) scale(0.583)">s</text><text class="cls-1" transform="translate(308.541 91.886)">(<tspan class="cls-7" x="6.986" y="0">p</tspan><tspan class="cls-8" x="20.173" y="0">’</tspan><tspan class="cls-9" x="21.477" y="0">, -</tspan><tspan class="cls-5" x="39.336" y="0">ω</tspan><tspan class="cls-6" x="55.917" y="0">)</tspan></text><text class="cls-3" transform="translate(422 182.778)">L</text><text class="cls-1" transform="translate(432.873 190.97) scale(0.583)">o</text><text class="cls-10" transform="translate(440.747 182.778)">(<tspan class="cls-11" x="6.987" y="0">p</tspan></text><text class="cls-12" transform="translate(461.732 190.969) scale(0.583)">0</text><text class="cls-12" transform="translate(469.089 182.778)">, -<tspan class="cls-13" x="17.858" y="0">ω</tspan><tspan x="34.438" y="0">)</tspan></text><line class="cls-14" x1="31.105" y1="45.306" x2="130.816" y2="68.06"/><polygon points="127.778 73.504 139.211 69.976 130.44 61.837 127.778 73.504"/><circle cx="328.995" cy="113.298" r="6.867"/><line class="cls-14" x1="328.995" y1="113.298" x2="229.284" y2="90.545"/><polygon points="232.322 85.101 220.888 88.629 229.66 96.768 232.322 85.101"/><line class="cls-15" x1="57.462" y1="51.444" x2="412.895" y2="132.328"/><circle cx="30.823" cy="45.382" r="6.867"/><circle cx="513.374" cy="155.373" r="6.867"/><line class="cls-14" x1="513.374" y1="155.373" x2="413.663" y2="132.619"/><polygon points="416.701 127.175 405.267 130.703 414.038 138.842 416.701 127.175"/></svg>