<svg id="Layer_1" data-name="Layer 1" xmlns="http://www.w3.org/2000/svg" xmlns:xlink="http://www.w3.org/1999/xlink" viewBox="0 0 215.41 150.93"><defs><style>.cls-1,.cls-13,.cls-2,.cls-3{fill:none;}.cls-2,.cls-3,.cls-6{stroke:#000;}.cls-13,.cls-2,.cls-3,.cls-6{stroke-miterlimit:10;}.cls-3{stroke-linecap:square;}.cls-4{clip-path:url(#clip-path);}.cls-5{clip-path:url(#clip-path-2);}.cls-6{stroke-width:0.83px;}.cls-7{clip-path:url(#clip-path-3);}.cls-8{clip-path:url(#clip-path-4);}.cls-9{clip-path:url(#clip-path-5);}.cls-10{clip-path:url(#clip-path-6);}.cls-11{clip-path:url(#clip-path-7);}.cls-12{clip-path:url(#clip-path-8);}.cls-13{stroke:blue;stroke-width:5px;opacity:0.2;}.cls-14{clip-path:url(#clip-path-9);}</style><clipPath id="clip-path"><rect class="cls-1" x="74.86" y="136.93" width="7" height="14"/></clipPath><clipPath id="clip-path-2"><rect class="cls-1" x="13.56" y="40.14" width="10" height="14"/></clipPath><clipPath id="clip-path-3"><rect class="cls-1" x="135.52" y="24.58" width="9" height="10"/></clipPath><clipPath id="clip-path-4"><rect class="cls-1" x="125.52" y="53.98" width="11" height="14.99"/></clipPath><clipPath id="clip-path-5"><rect class="cls-1" x="205.31" width="10" height="7.96"/></clipPath><clipPath id="clip-path-6"><rect class="cls-1" x="92.56" y="82.48" width="10.16" height="10.95"/></clipPath><clipPath id="clip-path-7"><rect class="cls-1" x="84.41" y="10.46" width="12.77" height="10.56"/></clipPath><clipPath id="clip-path-8"><rect class="cls-1" x="178.71" y="10.64" width="14.52" height="10.56"/></clipPath><clipPath id="clip-path-9"><rect class="cls-1" x="54.83" y="60.02" width="29.33" height="15.46"/></clipPath></defs><title>Subsurface critical angle</title><line class="cls-2" y1="35.93" x2="215.41" y2="35.93"/><line class="cls-2" x1="89.81" y1="40.67" x2="89.81" y2="51.64"/><polygon points="86.1 48.83 89.81 50.4 93.51 48.83 89.81 57.61 86.1 48.83"/><line class="cls-2" x1="89.81" y1="35.93" x2="89.81" y2="144.96"/><polygon points="86.1 142.15 89.81 143.73 93.51 142.15 89.81 150.93 86.1 142.15"/><line class="cls-3" x1="185.46" y1="35.93" x2="185.46" y2="104.99"/><g class="cls-4"><path d="M78.56,142.38h1.86c.4,0,.59,0,.59-.4,0-.21-.19-.21-.56-.21H78.72c.72-2.82.8-3.22.8-3.33a.54.54,0,0,0-.56-.56.84.84,0,0,0-.8.72l-.77,3.17H75.52c-.4,0-.61,0-.61.37s.16.24.56.24h1.76c-1.44,5.65-1.52,6-1.52,6.34a1.76,1.76,0,0,0,1.84,1.84c2,0,3.14-2.9,3.14-3.06s-.16-.22-.24-.22-.19.08-.29.3c-.86,2-1.89,2.53-2.59,2.53-.42,0-.61-.24-.61-.91a4.16,4.16,0,0,1,.11-1l1.49-5.86"/></g><line class="cls-2" x1="185.46" y1="35.93" x2="89.81" y2="104.52"/><g class="cls-5"><path d="M23.15,44.05a3.59,3.59,0,0,0,.16-1.17A2,2,0,0,0,21,40.75,3.79,3.79,0,0,0,18,42.48a1.82,1.82,0,0,0-1.84-1.73,1.71,1.71,0,0,0-1.47,1.14A9.11,9.11,0,0,0,14,43.81a.21.21,0,0,0,.24.21c.19,0,.22,0,.35-.45.32-1.41.72-2.37,1.44-2.37.34,0,.61.16.61.9a6,6,0,0,1-.32,1.68l-1.15,4.58c-.05.29-.18.77-.18.85a.54.54,0,0,0,.58.56.79.79,0,0,0,.72-.56c0-.05.27-1,.4-1.49l.43-1.78c.13-.43.24-.88.34-1.33,0-.11.19-.78.22-.88a5.25,5.25,0,0,1,1.36-1.84A3,3,0,0,1,21,41.2c.85,0,1.09.66,1.09,1.38a4.51,4.51,0,0,1-.22,1.25L19.58,53a1.55,1.55,0,0,0,0,.32.51.51,0,0,0,.56.53c.61,0,.74-.56.8-.77l2.26-9"/></g><path d="M12.6,15.91c.38,0,.62-.11.71-.23a1.32,1.32,0,0,0,.15-.79V10.56a1.08,1.08,0,0,0-.16-.69,1.17,1.17,0,0,0-.7-.21V9.48h2.77a3.94,3.94,0,0,1,1.43.22,1.52,1.52,0,0,1,1.1,1.52,1.39,1.39,0,0,1-.49,1.15,2.66,2.66,0,0,1-1.32.52l2.06,2.54a1.43,1.43,0,0,0,.38.34,1.29,1.29,0,0,0,.49.14v.18H17.41L14.91,13l-.44,0v2a1,1,0,0,0,.17.7,1.37,1.37,0,0,0,.74.2v.18H12.6ZM16,12.44a1.22,1.22,0,0,0,.8-1.23A1.18,1.18,0,0,0,16.1,10a2.42,2.42,0,0,0-1-.17,1.25,1.25,0,0,0-.52.06c-.07,0-.1.13-.1.28v2.47A5.18,5.18,0,0,0,16,12.44Z"/><path d="M22.65,12a1.73,1.73,0,0,1,.52,1.35h-3.1A2.61,2.61,0,0,0,20.58,15a1.43,1.43,0,0,0,1.1.51,1.36,1.36,0,0,0,.86-.27,2.62,2.62,0,0,0,.65-.76l.17.06a2.67,2.67,0,0,1-.75,1.15,1.86,1.86,0,0,1-1.34.53,1.65,1.65,0,0,1-1.42-.69,2.71,2.71,0,0,1-.5-1.6,2.57,2.57,0,0,1,.58-1.69,1.85,1.85,0,0,1,1.51-.72A1.73,1.73,0,0,1,22.65,12Zm-2.34.37a2,2,0,0,0-.22.67h2.06A2,2,0,0,0,22,12.3a.83.83,0,0,0-.8-.43A.93.93,0,0,0,20.31,12.36Z"/><path d="M23.8,16a1.09,1.09,0,0,0,.61-.19.68.68,0,0,0,.16-.54V10.46a1.19,1.19,0,0,0-.05-.45.4.4,0,0,0-.39-.2H24l-.21,0V9.71c.44-.12,1-.28,1.59-.47,0,0,0,0,0,0a.35.35,0,0,1,0,.12v5.86a.79.79,0,0,0,.14.55,1.26,1.26,0,0,0,.61.16v.13H23.8Z"/><path d="M27.45,13.94a10,10,0,0,1,1.79-.8v-.41a1.78,1.78,0,0,0-.1-.69.69.69,0,0,0-.69-.33.9.9,0,0,0-.47.13.39.39,0,0,0-.23.36,1,1,0,0,0,0,.19c0,.1,0,.16,0,.18a.41.41,0,0,1-.18.38.4.4,0,0,1-.24.07.41.41,0,0,1-.34-.15.47.47,0,0,1-.12-.32,1,1,0,0,1,.42-.71,1.84,1.84,0,0,1,1.24-.38,1.35,1.35,0,0,1,1.29.62,2.11,2.11,0,0,1,.18,1v2a1.17,1.17,0,0,0,0,.39.25.25,0,0,0,.26.19.54.54,0,0,0,.19,0l.25-.17v.25a1.7,1.7,0,0,1-.34.32,1,1,0,0,1-.55.18.53.53,0,0,1-.48-.21,1,1,0,0,1-.17-.52,4.39,4.39,0,0,1-.63.48,1.65,1.65,0,0,1-.85.27,1,1,0,0,1-1-1.05A1.38,1.38,0,0,1,27.45,13.94Zm1.79-.55a4.09,4.09,0,0,0-.93.41,1.2,1.2,0,0,0-.7,1,.74.74,0,0,0,.29.66.73.73,0,0,0,.42.14,1.18,1.18,0,0,0,.62-.19.52.52,0,0,0,.3-.45Z"/><path d="M33.35,11.59v.35h-1v2.82a2,2,0,0,0,.06.56.45.45,0,0,0,.46.33.48.48,0,0,0,.3-.08,1.62,1.62,0,0,0,.3-.26l.13.1-.11.15A1.49,1.49,0,0,1,33,16a1.16,1.16,0,0,1-.54.15.77.77,0,0,1-.78-.52,2,2,0,0,1-.12-.77v-3H31l0,0s0,0,0,0a.14.14,0,0,1,0-.07l.14-.13a3.3,3.3,0,0,0,.49-.45c.1-.11.33-.42.7-.91h.07s0,0,0,.07v1.2Z"/><path d="M33.78,16a1.38,1.38,0,0,0,.66-.18,1.11,1.11,0,0,0,.14-.7V12.75a2,2,0,0,0,0-.44.3.3,0,0,0-.31-.2h-.11l-.29.08v-.15L34,12c.57-.19,1-.33,1.19-.42l.17-.06a.17.17,0,0,1,0,.07v3.51a1.15,1.15,0,0,0,.14.7,1.06,1.06,0,0,0,.61.18v.13H33.78Zm.78-6.53a.49.49,0,0,1,.36-.15.52.52,0,0,1,.36.14.5.5,0,0,1,.15.37.45.45,0,0,1-.15.35.51.51,0,0,1-.72,0,.45.45,0,0,1-.15-.35A.49.49,0,0,1,34.56,9.43Z"/><path d="M38.51,11.56v.15a.94.94,0,0,0-.35.08.21.21,0,0,0-.11.21.77.77,0,0,0,0,.15s0,.12.08.21l1,2.45L40,12.65a3.4,3.4,0,0,0,.12-.34,1,1,0,0,0,.06-.27.27.27,0,0,0-.18-.27,1,1,0,0,0-.3-.06v-.15h1.39v.15a.41.41,0,0,0-.34.16,3.41,3.41,0,0,0-.31.64L39.07,16l-.06.13a.1.1,0,0,1-.07,0,.09.09,0,0,1-.08-.06.87.87,0,0,1-.08-.14l-1.49-3.57a1.36,1.36,0,0,0-.39-.59.76.76,0,0,0-.35-.12v-.15Z"/><path d="M44.86,12a1.73,1.73,0,0,1,.52,1.35h-3.1A2.61,2.61,0,0,0,42.79,15a1.45,1.45,0,0,0,1.1.51,1.36,1.36,0,0,0,.86-.27,2.48,2.48,0,0,0,.65-.76l.17.06a2.74,2.74,0,0,1-.74,1.15,1.9,1.9,0,0,1-1.35.53,1.65,1.65,0,0,1-1.42-.69,2.71,2.71,0,0,1-.5-1.6,2.57,2.57,0,0,1,.58-1.69,1.86,1.86,0,0,1,1.52-.72A1.69,1.69,0,0,1,44.86,12Zm-2.34.37a2,2,0,0,0-.22.67h2.06a2,2,0,0,0-.19-.73.83.83,0,0,0-.8-.43A.93.93,0,0,0,42.52,12.36Z"/><path d="M48.5,16a1.38,1.38,0,0,0,.66-.18c.09-.09.13-.32.13-.7V12.75a1.5,1.5,0,0,0,0-.44.29.29,0,0,0-.31-.2h-.1a1.93,1.93,0,0,0-.3.08v-.15l.21-.07,1.2-.42a.56.56,0,0,1,.17-.06.17.17,0,0,1,0,.07v3.51a1.26,1.26,0,0,0,.13.7,1.09,1.09,0,0,0,.61.18v.13H48.5Zm.78-6.53a.46.46,0,0,1,.36-.15.52.52,0,0,1,.36.14.49.49,0,0,1,.14.37.45.45,0,0,1-.14.35.49.49,0,0,1-.36.15.46.46,0,0,1-.36-.15.45.45,0,0,1-.15-.35A.49.49,0,0,1,49.28,9.43Z"/><path d="M51.26,16a.87.87,0,0,0,.49-.18.83.83,0,0,0,.14-.58V12.72a1.09,1.09,0,0,0-.06-.43.39.39,0,0,0-.38-.19h-.21V12l.95-.3.46-.15s0,0,0,0a.15.15,0,0,1,0,.07v.72a5.58,5.58,0,0,1,.7-.58,1.46,1.46,0,0,1,.79-.24,1.07,1.07,0,0,1,.6.19A1.5,1.5,0,0,1,55.32,13v2.28a.8.8,0,0,0,.14.51.66.66,0,0,0,.47.16v.13H53.85V16a.86.86,0,0,0,.49-.2,1,1,0,0,0,.15-.65V13a1.45,1.45,0,0,0-.16-.7.6.6,0,0,0-.57-.28,1.1,1.1,0,0,0-.59.2,2.89,2.89,0,0,0-.42.37v2.74a.59.59,0,0,0,.15.47.91.91,0,0,0,.5.13v.13H51.26Z"/><path d="M59.11,11.63a1.62,1.62,0,0,1,.37.29V10.37a.94.94,0,0,0-.06-.41c-.05-.08-.15-.12-.32-.12H59l-.2,0V9.71l.4-.11.44-.12L60,9.36l.26-.09h0v.51c0,.18,0,.38,0,.57s0,.39,0,.59v4a.9.9,0,0,0,.08.44c0,.08.19.13.42.13H61v.16l-.71.25-.76.29,0-.05v-.6A2.81,2.81,0,0,1,59,16a1.7,1.7,0,0,1-2.17-.43,2.25,2.25,0,0,1-.52-1.48,2.79,2.79,0,0,1,.62-1.82,1.87,1.87,0,0,1,1.51-.76A1.45,1.45,0,0,1,59.11,11.63Zm.14,3.8a.64.64,0,0,0,.23-.42v-2.1a1,1,0,0,0-.34-.89,1,1,0,0,0-.66-.26,1.08,1.08,0,0,0-1,.54,2.45,2.45,0,0,0-.34,1.34,2.7,2.7,0,0,0,.36,1.4,1.2,1.2,0,0,0,1.09.62A.88.88,0,0,0,59.25,15.43Z"/><path d="M64.58,12a1.77,1.77,0,0,1,.52,1.35H62A2.61,2.61,0,0,0,62.51,15a1.43,1.43,0,0,0,1.1.51,1.36,1.36,0,0,0,.86-.27,2.62,2.62,0,0,0,.65-.76l.17.06a2.67,2.67,0,0,1-.75,1.15,1.86,1.86,0,0,1-1.34.53,1.64,1.64,0,0,1-1.42-.69,2.71,2.71,0,0,1-.5-1.6,2.57,2.57,0,0,1,.58-1.69,1.85,1.85,0,0,1,1.51-.72A1.73,1.73,0,0,1,64.58,12Zm-2.34.37A2,2,0,0,0,62,13h2.06a2,2,0,0,0-.19-.73.84.84,0,0,0-.8-.43A.93.93,0,0,0,62.24,12.36Z"/><path d="M67.84,11.61v.13a1.34,1.34,0,0,0-.32,0,.19.19,0,0,0-.13.2,2,2,0,0,0,.26.52c.09.15.21.33.35.54l.43-.61a1.29,1.29,0,0,0,.24-.47.18.18,0,0,0-.11-.17.9.9,0,0,0-.28-.06v-.13h1.57v.13a1.28,1.28,0,0,0-.47.14.89.89,0,0,0-.34.3l-.83,1.19,1.28,2a1.87,1.87,0,0,0,.42.49.79.79,0,0,0,.4.13v.13h-2V16h.15a.36.36,0,0,0,.18-.07.19.19,0,0,0,.08-.15,1.13,1.13,0,0,0-.19-.41,3.49,3.49,0,0,0-.26-.43c0-.09-.13-.21-.24-.37l-.27-.41-.8,1.25a2.37,2.37,0,0,0-.17.29.24.24,0,0,0,0,.12.12.12,0,0,0,.08.12l.33.07v.13H65.69V16a1.3,1.3,0,0,0,.39-.14,1.59,1.59,0,0,0,.34-.39l1.11-1.65-.91-1.42a2.83,2.83,0,0,0-.39-.51,1.09,1.09,0,0,0-.47-.11v-.13Z"/><path d="M13.36,24.18A2.08,2.08,0,0,1,15,23.51a2.16,2.16,0,0,1,1.6.64,2.28,2.28,0,0,1,.63,1.69,2.53,2.53,0,0,1-.61,1.69,2,2,0,0,1-1.6.71,2.11,2.11,0,0,1-1.58-.68,2.4,2.4,0,0,1-.65-1.73A2.32,2.32,0,0,1,13.36,24.18Zm.77-.12a2,2,0,0,0-.48,1.53A3.46,3.46,0,0,0,14,27.21a1.22,1.22,0,0,0,1.09.76.93.93,0,0,0,.85-.51,2.64,2.64,0,0,0,.29-1.32,3.5,3.5,0,0,0-.37-1.59,1.19,1.19,0,0,0-1.1-.74A1,1,0,0,0,14.13,24.06Z"/><path d="M17.68,28a1,1,0,0,0,.68-.2,1.07,1.07,0,0,0,.16-.71V23.92h-.83v-.33h.83a3.54,3.54,0,0,1,.21-1.3,1.47,1.47,0,0,1,1.48-1,1.64,1.64,0,0,1,.77.17.51.51,0,0,1,.34.46.39.39,0,0,1-.12.28.35.35,0,0,1-.28.13.36.36,0,0,1-.24-.08,1.77,1.77,0,0,1-.25-.3l-.08-.13a.66.66,0,0,0-.16-.17.4.4,0,0,0-.26-.08.51.51,0,0,0-.5.37,1.46,1.46,0,0,0-.07.51v1.16h1.21v.33H19.36v3.13a1.1,1.1,0,0,0,.15.71,1.39,1.39,0,0,0,.78.2v.13H17.68Z"/><path d="M23.36,27.93a1.07,1.07,0,0,0,.59-.16.65.65,0,0,0,.15-.51v-2.2a1.9,1.9,0,0,0-.09-.69.33.33,0,0,0-.33-.21h-.13l-.17,0v-.16l.57-.21.41-.14.5-.21a.05.05,0,0,1,0,0,1,1,0,0,1,0,.11v.8a3.84,3.84,0,0,1,.6-.68.93.93,0,0,1,.61-.25.55.55,0,0,1,.4.15.49.49,0,0,1,.16.38.48.48,0,0,1-.12.33.39.39,0,0,1-.3.14.59.59,0,0,1-.38-.17.47.47,0,0,0-.29-.17q-.16,0-.42.27a.85.85,0,0,0-.25.57v2.2a.75.75,0,0,0,.2.59,1,1,0,0,0,.65.15v.16H23.36Z"/><path d="M30.14,24a1.73,1.73,0,0,1,.52,1.35h-3.1A2.61,2.61,0,0,0,28.07,27a1.45,1.45,0,0,0,1.1.51,1.36,1.36,0,0,0,.86-.27,2.62,2.62,0,0,0,.65-.76l.17.06a2.67,2.67,0,0,1-.75,1.15,1.86,1.86,0,0,1-1.34.53,1.65,1.65,0,0,1-1.42-.69,2.71,2.71,0,0,1-.5-1.6,2.57,2.57,0,0,1,.58-1.69,1.85,1.85,0,0,1,1.51-.72A1.73,1.73,0,0,1,30.14,24Zm-2.34.37a2,2,0,0,0-.22.67h2.06a2,2,0,0,0-.19-.73.83.83,0,0,0-.8-.43A.93.93,0,0,0,27.8,24.36Z"/><path d="M31.28,28a1,1,0,0,0,.68-.2,1.07,1.07,0,0,0,.16-.71V23.92h-.83v-.33h.83a3.54,3.54,0,0,1,.21-1.3,1.47,1.47,0,0,1,1.47-1,1.66,1.66,0,0,1,.78.17.51.51,0,0,1,.34.46.39.39,0,0,1-.12.28.35.35,0,0,1-.28.13.41.41,0,0,1-.25-.08,2.55,2.55,0,0,1-.24-.3L34,21.8a.66.66,0,0,0-.16-.17.4.4,0,0,0-.26-.08.51.51,0,0,0-.5.37,1.46,1.46,0,0,0-.07.51v1.16h1.21v.33H33v3.13a1.1,1.1,0,0,0,.15.71,1.35,1.35,0,0,0,.77.2v.13h-2.6Z"/><path d="M34.46,27.93a1.07,1.07,0,0,0,.59-.16.65.65,0,0,0,.15-.51v-2.2a1.9,1.9,0,0,0-.09-.69.33.33,0,0,0-.33-.21h-.13l-.17,0v-.16l.57-.21.41-.14.5-.21a.05.05,0,0,1,0,0v.91a3.49,3.49,0,0,1,.61-.68.88.88,0,0,1,.6-.25.56.56,0,0,1,.41.15.53.53,0,0,1,.16.38.48.48,0,0,1-.12.33.39.39,0,0,1-.3.14.59.59,0,0,1-.38-.17.47.47,0,0,0-.29-.17.64.64,0,0,0-.42.27A.85.85,0,0,0,36,25v2.2a.75.75,0,0,0,.19.59,1,1,0,0,0,.65.15v.16h-2.4Z"/><path d="M38.82,25.94a10.39,10.39,0,0,1,1.79-.8v-.41a1.61,1.61,0,0,0-.1-.69.69.69,0,0,0-.69-.33.9.9,0,0,0-.47.13.38.38,0,0,0-.22.36.8.8,0,0,0,0,.19.88.88,0,0,1,0,.18A.41.41,0,0,1,39,25a.4.4,0,0,1-.24.07.41.41,0,0,1-.34-.15.47.47,0,0,1-.12-.32,1,1,0,0,1,.43-.71A1.8,1.8,0,0,1,40,23.46a1.33,1.33,0,0,1,1.28.62,2.11,2.11,0,0,1,.18,1v2a1.17,1.17,0,0,0,0,.39.25.25,0,0,0,.26.19.5.5,0,0,0,.19,0l.25-.17v.25a1.47,1.47,0,0,1-.34.32,1,1,0,0,1-.55.18.55.55,0,0,1-.48-.21,1,1,0,0,1-.17-.52,3.9,3.9,0,0,1-.63.48,1.65,1.65,0,0,1-.85.27,1,1,0,0,1-1-1.05A1.38,1.38,0,0,1,38.82,25.94Zm1.79-.55a4.3,4.3,0,0,0-.93.41,1.2,1.2,0,0,0-.7,1,.77.77,0,0,0,.29.66.74.74,0,0,0,.43.14,1.15,1.15,0,0,0,.61-.19.52.52,0,0,0,.3-.45Z"/><path d="M45.72,23.8a.88.88,0,0,1,.44.69.48.48,0,0,1-.11.3.47.47,0,0,1-.65,0,.66.66,0,0,1-.19-.34l-.06-.23a.58.58,0,0,0-.21-.37.78.78,0,0,0-.43-.1,1.17,1.17,0,0,0-.94.48,2,2,0,0,0-.38,1.3,2.21,2.21,0,0,0,.42,1.32,1.34,1.34,0,0,0,1.14.59,1.35,1.35,0,0,0,.9-.33,3.17,3.17,0,0,0,.51-.61l.14.08a3.93,3.93,0,0,1-.59.93,1.79,1.79,0,0,1-1.37.66,1.83,1.83,0,0,1-1.34-.6A2.27,2.27,0,0,1,42.41,26a2.5,2.5,0,0,1,.64-1.73,2.06,2.06,0,0,1,1.62-.73A1.78,1.78,0,0,1,45.72,23.8Z"/><path d="M49.16,23.59v.35h-1v2.82a2,2,0,0,0,.06.56.45.45,0,0,0,.46.33.53.53,0,0,0,.31-.08,2,2,0,0,0,.29-.26l.13.1-.11.15a1.49,1.49,0,0,1-.54.48,1.16,1.16,0,0,1-.54.15.77.77,0,0,1-.78-.52,2,2,0,0,1-.12-.77v-3h-.53l0,0s0,0,0,0a.14.14,0,0,1,0-.07l.14-.13a3.3,3.3,0,0,0,.49-.45c.1-.11.33-.42.7-.91h.08a.24.24,0,0,1,0,.07v1.2Z"/><path d="M49.59,28a1.38,1.38,0,0,0,.66-.18,1.11,1.11,0,0,0,.14-.7V24.75a1.5,1.5,0,0,0,0-.44.3.3,0,0,0-.31-.2h-.11l-.29.08v-.15l.21-.07c.57-.19,1-.33,1.19-.42l.17-.06a.17.17,0,0,1,0,.07v3.51a1.15,1.15,0,0,0,.14.7A1.06,1.06,0,0,0,52,28v.13H49.59Zm.78-6.53a.49.49,0,0,1,.36-.15.52.52,0,0,1,.36.14.5.5,0,0,1,.15.37.45.45,0,0,1-.15.35.51.51,0,0,1-.72,0,.45.45,0,0,1-.15-.35A.49.49,0,0,1,50.37,21.43Z"/><path d="M53.05,24.18a2.08,2.08,0,0,1,1.59-.67,2.15,2.15,0,0,1,1.6.64,2.28,2.28,0,0,1,.63,1.69,2.53,2.53,0,0,1-.61,1.69,2,2,0,0,1-1.59.71,2.12,2.12,0,0,1-1.59-.68,2.44,2.44,0,0,1-.65-1.73A2.36,2.36,0,0,1,53.05,24.18Zm.78-.12a2,2,0,0,0-.49,1.53,3.46,3.46,0,0,0,.39,1.62,1.22,1.22,0,0,0,1.1.76.93.93,0,0,0,.84-.51A2.53,2.53,0,0,0,56,26.14a3.5,3.5,0,0,0-.37-1.59,1.17,1.17,0,0,0-1.09-.74A1,1,0,0,0,53.83,24.06Z"/><path d="M57.36,28a.83.83,0,0,0,.48-.18c.1-.08.14-.28.14-.58V24.72a1.09,1.09,0,0,0-.06-.43.39.39,0,0,0-.38-.19h-.2V24l.95-.3.45-.15a.06.06,0,0,1,0,0v.79a6.42,6.42,0,0,1,.7-.58,1.48,1.48,0,0,1,.79-.24,1.1,1.1,0,0,1,.61.19A1.52,1.52,0,0,1,61.41,25v2.28a.8.8,0,0,0,.14.51A.69.69,0,0,0,62,28v.13H59.94V28a.9.9,0,0,0,.5-.2,1.05,1.05,0,0,0,.14-.65V25a1.34,1.34,0,0,0-.16-.7.6.6,0,0,0-.57-.28,1.07,1.07,0,0,0-.58.2,3.48,3.48,0,0,0-.43.37v2.74a.55.55,0,0,0,.16.47.87.87,0,0,0,.49.13v.13H57.36Z"/><path class="cls-6" d="M188.21,35.93a2.75,2.75,0,0,1-2.75,2.75h0a2.75,2.75,0,0,1-2.75-2.75h0a2.76,2.76,0,0,1,2.75-2.76h0a2.76,2.76,0,0,1,2.75,2.76Z"/><path class="cls-6" d="M92.56,35.93a2.75,2.75,0,0,1-2.75,2.75h0a2.76,2.76,0,0,1-2.76-2.75h0a2.77,2.77,0,0,1,2.76-2.76h0a2.76,2.76,0,0,1,2.75,2.76Z"/><path class="cls-6" d="M92.56,104.52a2.76,2.76,0,0,1-2.75,2.76h0a2.77,2.77,0,0,1-2.76-2.76h0a2.76,2.76,0,0,1,2.76-2.75h0a2.75,2.75,0,0,1,2.75,2.75Z"/><g class="cls-7"><path d="M136.66,32.8c0,.31-.18.77-.18.87a.55.55,0,0,0,.58.54.85.85,0,0,0,.75-.56c0-.08.69-2.8.77-3.15.16-.66.53-2.05.64-2.58a5.38,5.38,0,0,1,1.12-1.62,2.33,2.33,0,0,1,1.59-.67,1.6,1.6,0,0,1,.83.24,1.21,1.21,0,0,0-1,1.09.71.71,0,0,0,.77.7,1.13,1.13,0,0,0,1.09-1.18c0-.69-.63-1.27-1.65-1.27a3.2,3.2,0,0,0-2.55,1.51,1.78,1.78,0,0,0-1.81-1.51,1.71,1.71,0,0,0-1.47,1.11,9.37,9.37,0,0,0-.61,1.95c0,.18.21.18.24.18.21,0,.21,0,.35-.45.32-1.41.72-2.37,1.43-2.37.35,0,.62.16.62.91a6.33,6.33,0,0,1-.32,1.67l-1.15,4.59"/></g><rect class="cls-2" x="89.81" y="35.93" width="6.93" height="6.93"/><g class="cls-8"><path d="M131.64,66a1.29,1.29,0,0,1-.39.72A3.13,3.13,0,0,1,129,68.15c-1,0-1.28-1.09-1.28-1.87a14.8,14.8,0,0,1,1.09-4.34A3.08,3.08,0,0,1,131.11,60c1.31,0,1.57,1.62,1.57,1.75a1,1,0,0,1-.05.32l-1,3.92m4.13-11.21s0-.21-.26-.21-2.19.15-2.51.21c-.16,0-.29.1-.29.37s.19.24.48.24c1,0,1,.13,1,.35l0,.4-1.2,4.68a2,2,0,0,0-1.81-1.25c-2.34,0-4.79,2.9-4.79,5.81,0,1.86,1.09,3.19,2.64,3.19a3.37,3.37,0,0,0,2.58-1.49,1.81,1.81,0,0,0,1.81,1.49,1.69,1.69,0,0,0,1.46-1.09,10.39,10.39,0,0,0,.62-2,.21.21,0,0,0-.24-.21c-.22,0-.22.08-.3.37-.32,1.28-.69,2.45-1.49,2.45-.56,0-.61-.51-.61-.91a3.23,3.23,0,0,1,.13-1Z"/></g><line class="cls-3" x1="89.81" y1="104.99" x2="185.46" y2="104.99"/><line class="cls-2" x1="147.07" y1="29.58" x2="185.46" y2="29.58"/><line class="cls-2" x1="185.46" y1="31.67" x2="185.46" y2="27.48"/><line class="cls-2" x1="128.07" y1="29.58" x2="89.68" y2="29.58"/><line class="cls-2" x1="89.68" y1="27.48" x2="89.68" y2="31.67"/><line class="cls-2" x1="210.31" y1="36.19" x2="210.31" y2="15.97"/><polygon points="214.01 18.77 210.31 17.2 206.6 18.77 210.31 10 214.01 18.77"/><g class="cls-9"><path d="M206.82,1.84v4.9h-1.09v.74c.43,0,1.39-.05,2-.05s1.54.05,2,.05V6.74h-1.1V3.41A2.4,2.4,0,0,1,211,.91c.54,0,.88.34.88,1.54V6.74h-1.11v.74c.45,0,1.41-.05,2-.05s1.54.05,2,.05V6.74h-1.1V2.64c0-1.68-.87-2.29-2.45-2.29a3,3,0,0,0-2.79,1.7V.35l-2.72.1V1.2c1,0,1.09,0,1.09.64"/></g><g class="cls-10"><path d="M97,87.2a10.6,10.6,0,0,1-.88,2.52c-.41.85-.89,1.46-1.43,1.46s-.67-.35-.67-1.52a10.1,10.1,0,0,1,.39-2.46H97m-2.48-.39a10.79,10.79,0,0,1,1-2.67c.33-.63.79-1.31,1.35-1.31s.69.79.69,1.5a10.9,10.9,0,0,1-.4,2.48Zm3.81-1.71c0-.81-.23-2.54-1.5-2.54-1.71,0-3.62,3.49-3.62,6.35,0,1.17.35,2.54,1.48,2.54C96.47,91.45,98.37,87.89,98.37,85.1Z"/><path d="M101.35,89.91a.48.48,0,0,0-.38.42.28.28,0,0,0,.3.27c.08,0,.41,0,.41-.5s-.62-.75-1.16-.75a1.42,1.42,0,0,0-1.61,1.27.83.83,0,0,0,.31.64,1.9,1.9,0,0,0,1,.31c.19.05.75.15.75.57a.89.89,0,0,1-.46.71,2,2,0,0,1-.87.18,1.36,1.36,0,0,1-1-.35.53.53,0,0,0,.48-.5.32.32,0,0,0-.36-.33.52.52,0,0,0-.5.58c0,.52.57.85,1.4.85,1.6,0,1.92-1.1,1.92-1.43,0-.82-.9-1-1.21-1l-.36-.09c-.31-.06-.48-.23-.48-.44a.75.75,0,0,1,.36-.54,1.22,1.22,0,0,1,.69-.16,1,1,0,0,1,.83.31"/></g><path class="cls-2" d="M89.68,78.48c6.64-3.5,20,1,23.44,9"/><g class="cls-11"><path d="M87.05,15.88V12.35a2.35,2.35,0,0,1,2-1.27c1.15,0,2.11,1.4,2.11,3.18s-1.1,3.25-2.28,3.25a1.94,1.94,0,0,1-1.65-1,.81.81,0,0,1-.22-.65m0-4.15V10.68l-2.27.18v.49c1.11,0,1.23.09,1.23.8v7.4c0,.7-.18.7-1.23.7v.49c.52,0,1.36,0,1.77,0s1.23,0,1.78,0v-.49c-1.06,0-1.23,0-1.23-.7V16.74A2.13,2.13,0,0,0,89,17.85a3.56,3.56,0,0,0,3.52-3.59,3.45,3.45,0,0,0-3.29-3.58A2.87,2.87,0,0,0,87,11.73Z"/><path d="M94.36,18.76a1.36,1.36,0,0,0-.09.47,1,1,0,0,0,1,.94c1.1,0,1.6-1.53,1.6-1.69s-.16-.14-.19-.14-.17.06-.2.18c-.26.88-.75,1.33-1.17,1.33-.23,0-.28-.14-.28-.38a2,2,0,0,1,.17-.71c.12-.29.24-.6.35-.88s.51-1.26.55-1.41a1.28,1.28,0,0,0,.06-.35,1,1,0,0,0-1-.94c-1.09,0-1.61,1.51-1.61,1.69s.17.16.19.16.16-.06.2-.19c.29-.95.77-1.34,1.18-1.34.18,0,.29.08.29.39a3,3,0,0,1-.36,1.1l-.69,1.77m2.25-5.6a.43.43,0,0,0-.44-.43.66.66,0,0,0-.61.61.42.42,0,0,0,.43.43A.65.65,0,0,0,96.61,13.16Z"/></g><g class="cls-12"><path d="M181.17,16.05V12.52a2.38,2.38,0,0,1,2-1.26c1.15,0,2.11,1.39,2.11,3.18s-1.1,3.24-2.27,3.24a1.94,1.94,0,0,1-1.66-1,.82.82,0,0,1-.22-.66m0-4.15v-1l-2.27.18v.49c1.11,0,1.23.09,1.23.8v7.39c0,.71-.17.71-1.23.71v.49c.53,0,1.35-.05,1.77-.05s1.23,0,1.78.05v-.49c-1.05,0-1.23,0-1.23-.71v-2.8a2.13,2.13,0,0,0,2,1.1,3.55,3.55,0,0,0,3.51-3.58,3.45,3.45,0,0,0-3.29-3.58A2.88,2.88,0,0,0,181.12,11.9Z"/><path d="M189.87,20a1.08,1.08,0,0,1-1.1-1.22,4.68,4.68,0,0,1,.63-2.17,2.05,2.05,0,0,1,1.62-1,1.1,1.1,0,0,1,1.1,1.22A5,5,0,0,1,191.5,19a2.06,2.06,0,0,1-1.63,1M193,17.3a1.89,1.89,0,0,0-2-1.94,3.33,3.33,0,0,0-3.18,3.05,1.9,1.9,0,0,0,2,1.93A3.29,3.29,0,0,0,193,17.3Z"/></g><line class="cls-2" x1="86.21" y1="68.97" x2="93.41" y2="68.97"/><line class="cls-2" x1="93.41" y1="67.29" x2="93.41" y2="70.67"/><line class="cls-2" x1="86.21" y1="67.29" x2="86.21" y2="70.67"/><line class="cls-13" x1="89.81" y1="68.98" x2="89.81" y2="144.98"/><g class="cls-14"><path d="M58.78,64.62h1.81c.38,0,.56,0,.56-.39,0-.21-.18-.21-.54-.21H58.94c.68-2.71.78-3.09.78-3.21a.51.51,0,0,0-.55-.52.83.83,0,0,0-.77.69l-.75,3H55.86c-.39,0-.59,0-.59.37s.16.23.54.23h1.7c-1.4,5.44-1.47,5.76-1.47,6.1A1.7,1.7,0,0,0,57.8,72.5c2,0,3.06-2.8,3.06-3s-.16-.2-.25-.2-.18.05-.28.27c-.82,2-1.83,2.45-2.48,2.45-.42,0-.6-.25-.6-.88a3.3,3.3,0,0,1,.11-.92l1.42-5.65"/><path d="M66.92,69.83a.62.62,0,0,0-.38.58.64.64,0,1,0,1.27,0c0-1.18-1.86-1.18-2.24-1.18a3.13,3.13,0,0,0-3.24,3.07,3.09,3.09,0,0,0,3.18,3A2.33,2.33,0,0,0,68,73.56c0-.17-.17-.17-.23-.17s-.18,0-.25.23a1.84,1.84,0,0,1-1.82,1.25c-.92,0-2.13-.68-2.13-2.61,0-1.69.84-2.63,2.07-2.63a3.77,3.77,0,0,1,1.31.2"/><path d="M71.19,72.12c0-1.13.53-2.47,1.81-2.47a.57.57,0,0,0-.23.48.61.61,0,1,0,1.21,0,1,1,0,0,0-1-.87,2,2,0,0,0-1.81,1.44h0V69.26l-1.92.16v.48c.9,0,1,.09,1,.74V74.1c0,.59-.13.59-1,.59v.46c.07,0,1,0,1.54,0s1.15,0,1.73,0v-.46h-.27c-1,0-1-.16-1-.61v-2"/><path d="M75.3,69.42v.48c.85,0,1,.07,1,.72V74.1c0,.59-.12.59-1,.59v.46s1,0,1.51,0,.95,0,1.42,0v-.46c-.78,0-.91,0-.91-.57V69.26l-2,.16m2-2.5a.76.76,0,0,0-.77-.77.78.78,0,0,0-.77.77.77.77,0,1,0,1.54,0Z"/><path d="M81.52,69.89H83.6V69.4H81.52V67h-.46c0,1.19-.55,2.51-1.84,2.55v.39h1.25v3.6a1.7,1.7,0,0,0,1.87,1.81,1.62,1.62,0,0,0,1.51-1.82v-.74h-.46v.72c0,.91-.42,1.41-1,1.41-.92,0-.92-1.12-.92-1.36V69.89"/></g></svg>