<svg id="Layer_1" data-name="Layer 1" xmlns="http://www.w3.org/2000/svg" xmlns:xlink="http://www.w3.org/1999/xlink" viewBox="0 0 1157.94 313.23"><defs><style>.cls-1,.cls-10,.cls-2,.cls-3,.cls-4,.cls-6,.cls-7,.cls-8{fill:none;}.cls-10,.cls-2,.cls-3,.cls-4,.cls-7{stroke:#000;}.cls-10,.cls-11,.cls-2,.cls-3,.cls-4,.cls-6,.cls-7,.cls-8{stroke-miterlimit:10;}.cls-2{stroke-dasharray:2 3;}.cls-3{stroke-width:3px;}.cls-4{stroke-dasharray:6;}.cls-11,.cls-5{fill:blue;}.cls-11,.cls-6{stroke:blue;}.cls-6,.cls-8{stroke-width:2px;}.cls-7{stroke-width:1.28px;}.cls-8{stroke:red;}.cls-9{fill:red;}.cls-12{clip-path:url(#clip-path);}</style><clipPath id="clip-path"><rect class="cls-1" x="724.5" y="154.16" width="11.88" height="14.26"/></clipPath></defs><title>Subsurface sample multiple axes</title><line class="cls-2" x1="895.99" y1="181.13" x2="768.05" y2="149.11"/><path class="cls-3" d="M.59,260.4c50-21.34,115-57.25,161.75-54.75,10,.53,21.44,2.91,34.5,1.75,8.87-1,53.09-28.52,66.71-26.75,25.11,3.45,41,35.5,72.29,36.75,33.3,1.33,97.25-56.5,190.67-56.5"/><path class="cls-4" d="M395.77,185.54A131.58,131.58,0,1,1,268.65,49.64,131.6,131.6,0,0,1,395.77,185.54Z"/><path d="M257.49,191.48a3.07,3.07,0,0,1,.94-1.25,2.23,2.23,0,0,1,1.43-.69c.72,0,1.15.64,1.15,1.68a12.84,12.84,0,0,1-.91,3.8c-.61,1.25-1.46,1.84-2.13,1.84-1.17,0-1.41-1.49-1.41-1.6a1.09,1.09,0,0,1,.06-.29l.87-3.49m-3.14,7.75c-.16.61-.19.75-1,.75-.22,0-.4,0-.4.34,0,.14.08.22.24.22.48,0,1-.06,1.49-.06s1.2.06,1.78.06c.08,0,.32,0,.32-.38,0-.18-.18-.18-.42-.18-.91,0-.91-.14-.91-.3s.75-3.11.88-3.56a1.83,1.83,0,0,0,1.65,1.14c2.08,0,4.31-2.61,4.31-5.25a2.59,2.59,0,0,0-2.39-2.87,3.41,3.41,0,0,0-2.35,1.36,1.57,1.57,0,0,0-1.59-1.36,1.54,1.54,0,0,0-1.34,1,7.65,7.65,0,0,0-.56,1.73c0,.18.19.18.22.18.19,0,.21,0,.32-.42.29-1.28.66-2.13,1.3-2.13.3,0,.56.16.56.82a2.83,2.83,0,0,1-.13.91Z"/><path d="M265.62,199.52a1.23,1.23,0,0,1-1.26-1.38,5.44,5.44,0,0,1,.72-2.45,2.4,2.4,0,0,1,1.84-1.12,1.27,1.27,0,0,1,1.25,1.41,5.51,5.51,0,0,1-.72,2.4,2.29,2.29,0,0,1-1.83,1.14m3.56-3.09a2.14,2.14,0,0,0-2.26-2.21,3.79,3.79,0,0,0-3.6,3.47,2.14,2.14,0,0,0,2.27,2.18,3.72,3.72,0,0,0,3.59-3.46Z"/><path d="M204.45,215.52a3.07,3.07,0,0,1,.94-1.25,2.29,2.29,0,0,1,1.46-.69c.72,0,1.15.64,1.15,1.68a12.84,12.84,0,0,1-.91,3.8c-.61,1.26-1.49,1.84-2.13,1.84-1.2,0-1.41-1.49-1.41-1.6a1.28,1.28,0,0,1,0-.29l.85-3.49m-3.14,7.75c-.13.61-.16.75-1,.75-.21,0-.4,0-.4.34a.2.2,0,0,0,.22.22c.48,0,1-.06,1.51-.06s1.2.06,1.76.06c.11,0,.32,0,.32-.38,0-.18-.16-.18-.42-.18-.88,0-.88-.14-.88-.3s.74-3.11.85-3.56A1.83,1.83,0,0,0,205,221.3c2.08,0,4.31-2.61,4.31-5.24,0-1.68-1-2.88-2.37-2.88a3.39,3.39,0,0,0-2.34,1.36,1.62,1.62,0,0,0-1.62-1.36,1.54,1.54,0,0,0-1.31,1,7.81,7.81,0,0,0-.56,1.73c0,.18.19.18.22.18.18,0,.18,0,.29-.42.32-1.28.66-2.13,1.3-2.13.32,0,.56.16.56.82a4.26,4.26,0,0,1-.1.91Z"/><path d="M211,222.34a2.16,2.16,0,0,0-.11.51,1.12,1.12,0,0,0,1.2,1.06c1.25,0,1.81-1.73,1.81-1.92s-.16-.16-.22-.16-.18.08-.24.22c-.26,1-.82,1.51-1.33,1.51-.24,0-.29-.16-.29-.42a2,2,0,0,1,.19-.8c.13-.35.26-.69.4-1s.58-1.44.61-1.6a1.14,1.14,0,0,0,.08-.4,1.12,1.12,0,0,0-1.2-1.06c-1.23,0-1.81,1.7-1.81,1.91s.19.16.21.16c.19,0,.19-.05.24-.18.32-1.1.88-1.55,1.33-1.55.22,0,.32.11.32.45a3.32,3.32,0,0,1-.4,1.26l-.77,2m2.56-6.36a.48.48,0,0,0-.51-.48.75.75,0,0,0-.72.69.46.46,0,0,0,.51.45A.74.74,0,0,0,213.59,216Z"/><line class="cls-2" x1="304.22" y1="22.09" x2="264.55" y2="180.65"/><line class="cls-2" x1="432.18" y1="54.02" x2="391.62" y2="215.97"/><line class="cls-5" x1="199.72" y1="206.56" x2="192.57" y2="183.26"/><line class="cls-6" x1="199.72" y1="206.56" x2="194.32" y2="188.97"/><polygon class="cls-5" points="198.68 190.57 194.68 190.15 191.6 192.74 192.57 183.26 198.68 190.57"/><line class="cls-7" x1="304.22" y1="22.09" x2="432.39" y2="55.17"/><line class="cls-7" x1="433.85" y1="48.26" x2="430.32" y2="61.93"/><line class="cls-7" x1="305.99" y1="15.25" x2="302.46" y2="28.92"/><line class="cls-7" x1="249.34" y1="7.84" x2="304.56" y2="22.17"/><line class="cls-7" x1="306.01" y1="15.25" x2="302.48" y2="28.92"/><line class="cls-7" x1="251.1" y1="1" x2="247.57" y2="14.67"/><path d="M364.28,29c0,.27-.15.69-.15.77a.49.49,0,0,0,.53.48.72.72,0,0,0,.66-.5c0-.06.64-2.5.7-2.82.16-.59.48-1.84.58-2.32a4.89,4.89,0,0,1,1-1.47,2.09,2.09,0,0,1,1.42-.58,1.27,1.27,0,0,1,.74.21,1,1,0,0,0-.9,1,.61.61,0,0,0,.66.61,1,1,0,0,0,1-1c0-.64-.56-1.17-1.49-1.17a2.94,2.94,0,0,0-2.29,1.38,1.61,1.61,0,0,0-1.63-1.38,1.46,1.46,0,0,0-1.3,1,6.42,6.42,0,0,0-.56,1.73.18.18,0,0,0,.21.19c.19,0,.19,0,.29-.4.32-1.28.67-2.13,1.31-2.13.32,0,.56.13.56.82a5.71,5.71,0,0,1-.3,1.5l-1,4.12"/><path d="M381.11,29c0-1.1-.53-1.73-1.86-1.73a2.23,2.23,0,0,0-2,1.14c-.24-.88-.91-1.14-1.84-1.14a2.21,2.21,0,0,0-2,1.19h0V27.22l-1.84.13v.45c.83,0,.93.08.93.69v3.25c0,.53-.13.53-.93.53v.46s.91-.06,1.44-.06,1.3.06,1.44.06v-.46c-.83,0-1,0-1-.53V29.48a1.86,1.86,0,0,1,1.86-1.92c.88,0,1,.69,1,1.33v2.85c0,.53-.13.53-1,.53v.46s.9-.06,1.43-.06,1.34.06,1.44.06v-.46c-.8,0-.93,0-.93-.53V29.48a1.86,1.86,0,0,1,1.86-1.92c.88,0,1,.69,1,1.33v2.85c0,.53-.13.53-.93.53v.46s.9-.06,1.41-.06,1.33.06,1.46.06v-.46c-.82,0-1,0-1-.53V29"/><path d="M387.21,31a1.53,1.53,0,0,1-1.6,1.54,1.16,1.16,0,0,1-1.25-1c0-.7.61-1.66,2.85-1.76V31m1-1.6a1.72,1.72,0,0,0-.56-1.6,2.86,2.86,0,0,0-1.87-.63c-1.19,0-2,.45-2,1.22a.6.6,0,0,0,1.2,0,.6.6,0,0,0-.45-.59,2.42,2.42,0,0,1,1.25-.32A1.42,1.42,0,0,1,387.21,29v.4a7.13,7.13,0,0,0-2.42.4c-1.12.42-1.49,1.09-1.49,1.68,0,1.06,1.3,1.38,2.21,1.38a2,2,0,0,0,1.83-1.07,1,1,0,0,0,1,1,1.18,1.18,0,0,0,1.22-1.2v-.69h-.42v.66c0,.14,0,.75-.45.75s-.48-.59-.48-.77Z"/><path d="M394.08,29.93s-.11-.11-.11-.13.83-.93.94-1a2.33,2.33,0,0,1,1.86-1v-.45c-.35,0-.72.05-1,.05a10.2,10.2,0,0,1-1.25-.05v.45a.28.28,0,0,1,.24.3.65.65,0,0,1-.19.42l-.87,1-1-1.17c-.11-.16-.14-.22-.14-.27s.19-.27.35-.27v-.45a13.29,13.29,0,0,1-1.41.05,9.48,9.48,0,0,1-1.2-.05v.45c.56,0,.88,0,1.23.38L393,30s.11.1.11.13-.94,1.07-1.07,1.2a2.32,2.32,0,0,1-1.89,1v.46c.37,0,.67-.06,1-.06s.88,0,1.25.06v-.46a.26.26,0,0,1-.24-.29.83.83,0,0,1,.35-.61l.88-1,1.09,1.25c.21.27.21.29.21.35,0,.26-.27.26-.32.26v.46c.11,0,1-.06,1.41-.06s.8,0,1.2.06v-.46c-.82,0-.93-.08-1.23-.4l-1.7-1.94"/><line class="cls-8" x1="264.26" y1="181.15" x2="269.22" y2="161.85"/><polygon class="cls-9" points="272.11 165.49 268.91 163.04 264.93 163.65 270.7 156.06 272.11 165.49"/><path class="cls-9" d="M268.71,181.15a4.45,4.45,0,0,1-4.45,4.45h0a4.45,4.45,0,0,1-4.46-4.45h0a4.46,4.46,0,0,1,4.46-4.46h0a4.46,4.46,0,0,1,4.45,4.46Z"/><line class="cls-2" x1="249.02" y1="9.08" x2="209.34" y2="167.64"/><line class="cls-10" x1="238.3" y1="52.13" x2="180.81" y2="283.13"/><path class="cls-11" d="M202.88,203.42a4.47,4.47,0,0,1,0,6.31h0a4.45,4.45,0,0,1-6.3,0h0a4.45,4.45,0,0,1,0-6.3h0a4.45,4.45,0,0,1,6.3,0Z"/><path d="M276.35,6.84c-.05.27-.16.7-.16.78a.49.49,0,0,0,.53.47.72.72,0,0,0,.67-.5s.64-2.5.69-2.82c.16-.59.48-1.84.59-2.32a4.75,4.75,0,0,1,1-1.46A2,2,0,0,1,281.09.4a1.29,1.29,0,0,1,.75.21,1,1,0,0,0-.91,1,.62.62,0,0,0,.67.61,1,1,0,0,0,1-1C282.58.53,282,0,281.09,0a3,3,0,0,0-2.29,1.38A1.59,1.59,0,0,0,277.18,0a1.47,1.47,0,0,0-1.31,1,6.83,6.83,0,0,0-.56,1.73c0,.19.16.19.22.19s.18,0,.29-.4c.32-1.28.66-2.13,1.3-2.13.32,0,.56.13.56.82a5.53,5.53,0,0,1-.29,1.5l-1,4.12"/><path d="M291.6,153.78c.19-.72.51-1.28,1.95-1.33.08,0,.29,0,.29-.35a.19.19,0,0,0-.21-.21c-.62,0-1.23.05-1.82.05s-1.25-.05-1.83-.05c-.11,0-.32,0-.32.37,0,.19.18.19.32.19,1,0,1.22.4,1.22.8a1.57,1.57,0,0,1-.05.37l-2,8-4-9.35c-.13-.32-.16-.34-.56-.34h-2.39c-.37,0-.53,0-.53.37,0,.19.16.19.5.19.11,0,1.23,0,1.23.16l-2.4,9.61c-.19.72-.48,1.28-1.94,1.33-.11,0-.3,0-.3.37,0,.11.08.19.24.19.56,0,1.2-.05,1.79-.05s1.25.05,1.83.05c.08,0,.32,0,.32-.37,0-.16-.16-.19-.34-.19-1,0-1.2-.42-1.2-.77a1.65,1.65,0,0,1,.08-.43l2.37-9.42a3,3,0,0,0,.16.32l4.45,10.51c.13.32.18.35.34.35s.19-.05.27-.37l2.5-10"/><path d="M294.57,166.59a1.24,1.24,0,0,1-1.25-1.42,5.4,5.4,0,0,1,.72-2.44,2.32,2.32,0,0,1,1.83-1.1,1.25,1.25,0,0,1,1.26,1.39,5.57,5.57,0,0,1-.72,2.42,2.31,2.31,0,0,1-1.84,1.15m3.57-3.12a2.13,2.13,0,0,0-2.27-2.18,3.77,3.77,0,0,0-3.59,3.46,2.13,2.13,0,0,0,2.26,2.18A3.73,3.73,0,0,0,298.14,163.47Z"/><path class="cls-3" d="M632,260.4c50-21.34,115-57.25,161.75-54.75,10,.53,21.43,2.91,34.5,1.75,8.87-1,53.09-28.52,66.71-26.75,25.11,3.45,41,35.5,72.29,36.75,33.3,1.33,97.25-56.5,190.66-56.5"/><path class="cls-4" d="M1027.2,185.54A131.58,131.58,0,1,1,900.09,49.64,131.59,131.59,0,0,1,1027.2,185.54Z"/><path d="M888.93,191.48a3,3,0,0,1,.93-1.25,2.27,2.27,0,0,1,1.44-.69c.72,0,1.15.64,1.15,1.68a12.84,12.84,0,0,1-.91,3.8c-.61,1.25-1.46,1.84-2.13,1.84-1.17,0-1.41-1.49-1.41-1.6a1.28,1.28,0,0,1,0-.29l.88-3.49m-3.14,7.75c-.16.61-.19.75-1,.75-.21,0-.39,0-.39.34,0,.14.07.22.23.22.48,0,1-.06,1.5-.06s1.19.06,1.78.06c.08,0,.32,0,.32-.38,0-.18-.19-.18-.43-.18-.9,0-.9-.14-.9-.3s.74-3.11.88-3.56a1.83,1.83,0,0,0,1.65,1.14c2.07,0,4.31-2.61,4.31-5.25a2.59,2.59,0,0,0-2.4-2.87A3.41,3.41,0,0,0,889,190.5a1.58,1.58,0,0,0-1.6-1.36,1.54,1.54,0,0,0-1.33,1,7.65,7.65,0,0,0-.56,1.73c0,.18.19.18.22.18s.21,0,.32-.42c.29-1.28.66-2.13,1.3-2.13.29,0,.56.16.56.82a2.83,2.83,0,0,1-.13.91Z"/><path d="M897.05,199.52a1.22,1.22,0,0,1-1.25-1.38,5.44,5.44,0,0,1,.72-2.45,2.39,2.39,0,0,1,1.84-1.12,1.27,1.27,0,0,1,1.25,1.41,5.51,5.51,0,0,1-.72,2.4,2.31,2.31,0,0,1-1.84,1.14m3.57-3.09a2.14,2.14,0,0,0-2.26-2.21,3.79,3.79,0,0,0-3.6,3.47,2.14,2.14,0,0,0,2.27,2.18,3.72,3.72,0,0,0,3.59-3.46Z"/><path d="M835.89,215.52a3,3,0,0,1,.93-1.25,2.31,2.31,0,0,1,1.47-.69c.72,0,1.14.64,1.14,1.68a12.85,12.85,0,0,1-.9,3.8c-.62,1.26-1.49,1.84-2.13,1.84-1.2,0-1.41-1.49-1.41-1.6a1.28,1.28,0,0,1,0-.29l.85-3.49m-3.14,7.75c-.13.61-.16.75-1,.75-.21,0-.4,0-.4.34a.2.2,0,0,0,.21.22c.48,0,1-.06,1.52-.06s1.2.06,1.76.06c.11,0,.32,0,.32-.38,0-.18-.16-.18-.43-.18-.87,0-.87-.14-.87-.3s.74-3.11.85-3.56a1.83,1.83,0,0,0,1.65,1.14c2.08,0,4.31-2.61,4.31-5.24,0-1.68-1-2.88-2.37-2.88a3.36,3.36,0,0,0-2.34,1.36,1.63,1.63,0,0,0-1.63-1.36,1.52,1.52,0,0,0-1.3,1,7.81,7.81,0,0,0-.56,1.73c0,.18.19.18.21.18.19,0,.19,0,.3-.42.31-1.28.66-2.13,1.3-2.13.32,0,.56.16.56.82a3.64,3.64,0,0,1-.11.91Z"/><path d="M842.44,222.34a2.16,2.16,0,0,0-.11.51,1.12,1.12,0,0,0,1.2,1.06c1.26,0,1.81-1.73,1.81-1.92s-.16-.16-.21-.16-.18.08-.24.22c-.26,1-.82,1.51-1.33,1.51-.24,0-.29-.16-.29-.42a2.22,2.22,0,0,1,.18-.8l.4-1c.14-.3.59-1.44.62-1.6a1.14,1.14,0,0,0,.08-.4,1.12,1.12,0,0,0-1.2-1.06c-1.23,0-1.81,1.7-1.81,1.91s.18.16.21.16c.19,0,.19-.05.24-.18.32-1.1.88-1.55,1.33-1.55.21,0,.32.11.32.45a3.32,3.32,0,0,1-.4,1.26l-.77,2M845,216a.47.47,0,0,0-.5-.48.75.75,0,0,0-.72.69.46.46,0,0,0,.51.45A.73.73,0,0,0,845,216Z"/><line class="cls-2" x1="935.66" y1="22.09" x2="895.99" y2="180.65"/><line class="cls-2" x1="1063.62" y1="54.02" x2="1023.05" y2="215.97"/><line class="cls-5" x1="831.15" y1="206.56" x2="824" y2="183.26"/><line class="cls-6" x1="831.15" y1="206.56" x2="825.75" y2="188.97"/><polygon class="cls-5" points="830.12 190.57 826.12 190.15 823.04 192.74 824 183.26 830.12 190.57"/><line class="cls-7" x1="935.66" y1="22.09" x2="1063.83" y2="55.17"/><line class="cls-7" x1="1065.29" y1="48.26" x2="1061.75" y2="61.93"/><line class="cls-7" x1="937.42" y1="15.25" x2="933.9" y2="28.92"/><path d="M995.72,29c-.05.27-.16.69-.16.77a.49.49,0,0,0,.54.48.72.72,0,0,0,.66-.5c0-.06.64-2.5.69-2.82.16-.59.48-1.84.59-2.32a4.89,4.89,0,0,1,1-1.47,2.06,2.06,0,0,1,1.41-.58,1.29,1.29,0,0,1,.75.21,1,1,0,0,0-.91,1,.62.62,0,0,0,.67.61,1,1,0,0,0,1-1c0-.64-.56-1.17-1.49-1.17a3,3,0,0,0-2.29,1.38,1.59,1.59,0,0,0-1.62-1.38,1.47,1.47,0,0,0-1.31,1,6.83,6.83,0,0,0-.56,1.73c0,.19.16.19.22.19s.18,0,.29-.4c.32-1.28.67-2.13,1.3-2.13.32,0,.56.13.56.82a5.53,5.53,0,0,1-.29,1.5l-1,4.12"/><path d="M1012.55,29c0-1.1-.53-1.73-1.86-1.73a2.26,2.26,0,0,0-2,1.14c-.24-.88-.9-1.14-1.83-1.14a2.23,2.23,0,0,0-2,1.19h0V27.22l-1.84.13v.45c.82,0,.93.08.93.69v3.25c0,.53-.13.53-.93.53v.46s.9-.06,1.44-.06,1.3.06,1.43.06v-.46c-.82,0-.95,0-.95-.53V29.48a1.85,1.85,0,0,1,1.86-1.92c.88,0,1,.69,1,1.33v2.85c0,.53-.13.53-1,.53v.46s.91-.06,1.44-.06,1.33.06,1.44.06v-.46c-.8,0-.93,0-.93-.53V29.48a1.86,1.86,0,0,1,1.86-1.92c.88,0,1,.69,1,1.33v2.85c0,.53-.14.53-.94.53v.46s.91-.06,1.42-.06,1.33.06,1.46.06v-.46c-.83,0-1,0-1-.53V29"/><path d="M1018.65,31a1.53,1.53,0,0,1-1.6,1.54,1.16,1.16,0,0,1-1.25-1c0-.7.61-1.66,2.85-1.76V31m1-1.6a1.72,1.72,0,0,0-.56-1.6,2.83,2.83,0,0,0-1.86-.63c-1.2,0-2,.45-2,1.22a.57.57,0,0,0,.61.61.58.58,0,0,0,.59-.58.6.6,0,0,0-.46-.59,2.46,2.46,0,0,1,1.25-.32,1.43,1.43,0,0,1,1.47,1.52v.4a7.13,7.13,0,0,0-2.42.4c-1.12.42-1.5,1.09-1.5,1.68,0,1.06,1.31,1.38,2.22,1.38a2,2,0,0,0,1.83-1.07,1,1,0,0,0,1,1,1.18,1.18,0,0,0,1.22-1.2v-.69h-.42v.66c0,.14,0,.75-.46.75s-.48-.59-.48-.77Z"/><path d="M1025.52,29.93s-.11-.11-.11-.13.83-.93.93-1a2.37,2.37,0,0,1,1.87-1v-.45c-.35,0-.72.05-1,.05a10.2,10.2,0,0,1-1.25-.05v.45a.28.28,0,0,1,.24.3.65.65,0,0,1-.19.42l-.88,1-1-1.17c-.1-.16-.13-.22-.13-.27s.19-.27.35-.27v-.45a13.29,13.29,0,0,1-1.41.05,9.32,9.32,0,0,1-1.2-.05v.45c.56,0,.88,0,1.22.38l1.55,1.81s.1.1.1.13-.93,1.07-1.06,1.2a2.32,2.32,0,0,1-1.89,1v.46c.37,0,.66-.06,1-.06s.88,0,1.25.06v-.46a.26.26,0,0,1-.24-.29.85.85,0,0,1,.34-.61l.88-1,1.1,1.25c.21.27.21.29.21.35,0,.26-.27.26-.32.26v.46c.11,0,1-.06,1.41-.06s.8,0,1.2.06v-.46c-.83,0-.93-.08-1.23-.4l-1.7-1.94"/><line class="cls-8" x1="895.69" y1="181.15" x2="900.66" y2="161.85"/><polygon class="cls-9" points="903.54 165.49 900.35 163.04 896.37 163.65 902.14 156.06 903.54 165.49"/><path class="cls-9" d="M900.15,181.15a4.45,4.45,0,0,1-4.46,4.45h0a4.45,4.45,0,0,1-4.45-4.45h0a4.46,4.46,0,0,1,4.45-4.46h0a4.46,4.46,0,0,1,4.46,4.46Z"/><line class="cls-10" x1="1008.22" y1="251.4" x2="764.95" y2="190.96"/><path class="cls-11" d="M834.32,203.42a4.47,4.47,0,0,1,0,6.31h0a4.45,4.45,0,0,1-6.3,0h0a4.45,4.45,0,0,1,0-6.3h0a4.47,4.47,0,0,1,6.31,0Z"/><path d="M923,153.78c.19-.72.51-1.28,1.94-1.33.08,0,.3,0,.3-.35a.2.2,0,0,0-.22-.21c-.61,0-1.22.05-1.81.05s-1.25-.05-1.84-.05c-.1,0-.32,0-.32.37,0,.19.19.19.32.19,1,0,1.23.4,1.23.8a2.35,2.35,0,0,1,0,.37l-2,8-4-9.35c-.13-.32-.16-.34-.56-.34h-2.39c-.38,0-.54,0-.54.37,0,.19.16.19.51.19.11,0,1.22,0,1.22.16l-2.39,9.61c-.19.72-.48,1.28-2,1.33-.1,0-.29,0-.29.37,0,.11.08.19.24.19.56,0,1.2-.05,1.78-.05s1.26.05,1.84.05c.08,0,.32,0,.32-.37,0-.16-.16-.19-.34-.19-1,0-1.2-.42-1.2-.77a1.32,1.32,0,0,1,.08-.43l2.37-9.42a3,3,0,0,0,.16.32l4.44,10.51c.14.32.19.35.35.35s.19-.05.27-.37l2.5-10"/><path d="M926,166.59a1.24,1.24,0,0,1-1.26-1.42,5.4,5.4,0,0,1,.72-2.44,2.34,2.34,0,0,1,1.84-1.1,1.24,1.24,0,0,1,1.25,1.39,5.57,5.57,0,0,1-.72,2.42,2.28,2.28,0,0,1-1.83,1.15m3.56-3.12a2.13,2.13,0,0,0-2.26-2.18,3.76,3.76,0,0,0-3.59,3.46,2.13,2.13,0,0,0,2.26,2.18A3.72,3.72,0,0,0,929.57,163.47Z"/><line class="cls-7" x1="743.24" y1="186.34" x2="753.38" y2="145.47"/><line class="cls-7" x1="746.45" y1="144.08" x2="760.16" y2="147.47"/><line class="cls-7" x1="736.38" y1="184.64" x2="750.09" y2="188.03"/><g class="cls-12"><path d="M725.72,166.84c-.05.26-.15.66-.15.73a.45.45,0,0,0,.49.47.7.7,0,0,0,.63-.48c0-.06.62-2.39.68-2.7.14-.57.45-1.76.55-2.21a4.68,4.68,0,0,1,1-1.41,2.13,2.13,0,0,1,1.37-.57,1.27,1.27,0,0,1,.71.22,1,1,0,0,0-.89.94.6.6,0,0,0,.65.59,1,1,0,0,0,.94-1c0-.6-.55-1.1-1.41-1.1a2.77,2.77,0,0,0-2.19,1.31,1.55,1.55,0,0,0-1.56-1.31,1.43,1.43,0,0,0-1.26,1,6.75,6.75,0,0,0-.52,1.66c0,.16.16.16.2.16s.19,0,.29-.39c.29-1.21.63-2,1.24-2,.29,0,.53.14.53.8a5.26,5.26,0,0,1-.28,1.43l-1,3.94"/><path d="M735.84,155.19a.78.78,0,0,0,.11-.38.69.69,0,0,0-.7-.65.66.66,0,0,0-.65.55L733,159.88a1.33,1.33,0,0,0,0,.19c0,.14.36.25.45.25s.1,0,.18-.19l2.24-4.94"/></g></svg>