<svg id="Layer_1" data-name="Layer 1" xmlns="http://www.w3.org/2000/svg" viewBox="0 0 248.65 88.68"><defs><style>.cls-1{fill:none;stroke:#000;stroke-miterlimit:10;}.cls-2{fill:#a6a6a6;}.cls-3{fill:#666;}</style></defs><title>Phase function angles</title><polyline class="cls-1" points="23.31 22.72 115.38 79.16 220.46 79.16"/><polygon points="24.62 29.98 23.86 23.06 30.37 20.59 16.4 18.48 24.62 29.98"/><polygon class="cls-2" points="23.92 28.14 17.52 19.17 23.33 22.73 23.92 28.14"/><polygon class="cls-3" points="28.41 20.8 17.52 19.17 23.33 22.73 28.41 20.8"/><polygon points="215.55 84.67 219.81 79.16 215.55 73.66 228.56 79.16 215.55 84.67"/><polygon class="cls-2" points="217.11 83.46 227.25 79.16 220.44 79.16 217.11 83.46"/><polygon class="cls-3" points="217.11 74.86 227.25 79.16 220.44 79.16 217.11 74.86"/><path class="cls-1" d="M134.15,79.16A19,19,0,0,0,99,69.3"/><path d="M7.72,13.3c0,1.24.7,2.2,1.66,2.2s2-1.24,2-3.84A6.6,6.6,0,0,0,9.8,7.12V7.06h1.66a6.27,6.27,0,0,1,1.66,4.64c0,3.6-1.82,5.26-3.66,5.26a2.61,2.61,0,0,1-2.52-1.72H6.86A2.71,2.71,0,0,1,4.3,17C2.62,17,.76,15.54.76,11.86a7,7,0,0,1,1.7-4.8H4.08v.06a7,7,0,0,0-1.6,4.7c0,2.7,1.14,3.68,2.06,3.68s1.6-1,1.6-2.18l0-3.7H7.76Z"/><path d="M239,80.24c0,1.24.7,2.2,1.66,2.2s2-1.24,2-3.84a6.6,6.6,0,0,0-1.6-4.54V74h1.66a6.27,6.27,0,0,1,1.67,4.64c0,3.6-1.83,5.26-3.67,5.26a2.61,2.61,0,0,1-2.52-1.72h-.08a2.71,2.71,0,0,1-2.56,1.72c-1.68,0-3.54-1.42-3.54-5.1a7,7,0,0,1,1.7-4.8h1.62v.06a7,7,0,0,0-1.6,4.7c0,2.7,1.14,3.68,2.06,3.68s1.6-1,1.6-2.18l0-3.7h1.66Z"/><path d="M248.65,70a23.07,23.07,0,0,1-1.88,4.74l-1.12.14a28.31,28.31,0,0,0,1.18-4.7Z"/><path d="M121.78,49c0-4.08,1.66-7.2,4.68-7.2s4.5,2.9,4.5,7.2c0,4.5-1.46,7.44-4.56,7.44C123.54,56.48,121.78,54,121.78,49Zm7.44-.76c0-2.84-.92-5.14-2.86-5.14-1.78,0-2.84,2.42-2.84,5.14Zm-5.7,1.32c0,3.56,1.2,5.58,2.92,5.58,1.88,0,2.78-2.32,2.78-5.58Z"/></svg>