<svg id="Layer_1" data-name="Layer 1" xmlns="http://www.w3.org/2000/svg" viewBox="0 0 574.24 147.62"><defs><style>.cls-1,.cls-4{fill:none;}.cls-1,.cls-4,.cls-5{stroke:#000;stroke-miterlimit:10;}.cls-1{stroke-width:3px;}.cls-2{fill:#a6a6a6;}.cls-3{fill:#666;}.cls-5{fill:#fff;}</style></defs><title>Volume in scattering</title><line class="cls-1" x1="431.26" y1="71.08" x2="566.14" y2="71.08"/><polygon points="561.23 76.58 565.49 71.08 561.23 65.58 574.24 71.08 561.23 76.58"/><polygon class="cls-2" points="562.79 75.38 572.93 71.08 566.12 71.08 562.79 75.38"/><polygon class="cls-3" points="562.79 66.78 572.93 71.08 566.12 71.08 562.79 66.78"/><path class="cls-4" d="M148.4,132.33c-23.07,0-41.78-27-41.78-60.25s18.71-60.25,41.78-60.25"/><path class="cls-5" d="M413.65,132.33c23.08,0,41.79-27,41.79-60.25s-18.71-60.25-41.79-60.25H148.29c23.08,0,41.78,27,41.78,60.25s-18.7,60.25-41.78,60.25Z"/><line class="cls-4" x1="142.98" y1="70.65" x2="8.1" y2="70.65"/><polygon points="13.01 65.15 8.75 70.65 13.01 76.16 0 70.65 13.01 65.15"/><polygon class="cls-2" points="11.46 66.35 1.31 70.65 8.12 70.65 11.46 66.35"/><polygon class="cls-3" points="11.46 74.95 1.31 70.65 8.12 70.65 11.46 74.95"/><path d="M236.87,20.85c-6.43,0-6.44,10,0,10S243.32,20.85,236.87,20.85Z"/><path d="M313.62,59c-6.43,0-6.45,10,0,10S320.07,59,313.62,59Z"/><path d="M273.88,91.37c-6.43,0-6.44,10,0,10S280.33,91.37,273.88,91.37Z"/><path d="M365.29,18c-6.43,0-6.44,10,0,10S371.74,18,365.29,18Z"/><path d="M294.53,25.52c-6.43,0-6.45,10,0,10S301,25.52,294.53,25.52Z"/><path d="M399.33,100.33c-6.43,0-6.45,10,0,10S405.78,100.33,399.33,100.33Z"/><path d="M367,59c-6.43,0-6.44,10,0,10S373.44,59,367,59Z"/><path d="M324.92,94.09c-6.44,0-6.45,10,0,10S331.36,94.09,324.92,94.09Z"/><path d="M222.46,98.38c-6.44,0-6.45,10,0,10S228.9,98.38,222.46,98.38Z"/><path d="M247.78,65.26c-6.44,0-6.45,10,0,10S254.22,65.26,247.78,65.26Z"/><path d="M367.71,35.55c-6.43,0-6.44,10,0,10S374.16,35.55,367.71,35.55Z"/><path d="M402.06,54c-6.44,0-6.45,10,0,10S408.5,54,402.06,54Z"/><path d="M208,48.51c-6.43,0-6.44,10,0,10S214.49,48.51,208,48.51Z"/><path d="M241.94,118.25c-6.44,0-6.45,10,0,10S248.38,118.25,241.94,118.25Z"/><path d="M340.5,33.71c-6.43,0-6.44,10,0,10S347,33.71,340.5,33.71Z"/><path d="M270.77,45.39c-6.44,0-6.45,10,0,10S277.21,45.39,270.77,45.39Z"/><path d="M370.11,115.91c-6.43,0-6.44,10,0,10S376.56,115.91,370.11,115.91Z"/><path d="M386.86,84c-6.43,0-6.44,10,0,10S393.31,84,386.86,84Z"/><path d="M436,92.14c-6.43,0-6.44,10,0,10S442.4,92.14,436,92.14Z"/><path d="M289.86,120.58c-6.44,0-6.45,10,0,10S296.3,120.58,289.86,120.58Z"/><path d="M200.3,118c-6.43,0-6.44,10,0,10S206.75,118,200.3,118Z"/><path d="M198.59,88.18c-6.43,0-6.44,10,0,10S205,88.18,198.59,88.18Z"/><path d="M208.76,14.32c-6.43,0-6.44,10,0,10S215.21,14.32,208.76,14.32Z"/><path d="M260.16,19c-6.43,0-6.44,10,0,10S266.61,19,260.16,19Z"/><path d="M396.21,26.69c-6.43,0-6.44,10,0,10S402.66,26.69,396.21,26.69Z"/><path d="M344.79,75.39c-6.44,0-6.45,10,0,10S351.23,75.39,344.79,75.39Z"/><path d="M288.72,75.3a5.22,5.22,0,0,0-3.54-1.47h-.78a5,5,0,0,0-5,5,5,5,0,0,0,1.47,3.54,5.16,5.16,0,0,0,3.53,1.46h.78a5.16,5.16,0,0,0,3.54-1.46,5,5,0,0,0,0-7.07Z"/><path d="M404.39,80.46c-6.43,0-6.44,10,0,10S410.84,80.46,404.39,80.46Z"/><path d="M303.88,94.09c-6.43,0-6.44,10,0,10S310.33,94.09,303.88,94.09Z"/><path d="M413.36,119.36c-6.44,0-6.45,10,0,10S419.8,119.36,413.36,119.36Z"/><path d="M249.34,94.87c-6.44,0-6.45,10,0,10S255.78,94.87,249.34,94.87Z"/><path d="M232.59,44.22c-6.44,0-6.45,10,0,10S239,44.22,232.59,44.22Z"/><path d="M322.19,20.46c-6.43,0-6.44,10,0,10S328.64,20.46,322.19,20.46Z"/><path d="M420.37,32.93c-6.44,0-6.45,10,0,10S426.81,32.93,420.37,32.93Z"/><path d="M445.69,54.74c-6.43,0-6.44,10,0,10S452.14,54.74,445.69,54.74Z"/><path d="M358.81,92.14c-6.43,0-6.44,10,0,10S365.26,92.14,358.81,92.14Z"/><path d="M14.77,87.93h1.74v12h5.76v1.46h-7.5Z"/><path d="M24.68,96.84a.64.64,0,0,1-1.27,0,.63.63,0,0,1,.64-.64A.61.61,0,0,1,24.68,96.84Zm-1.14,7.23V98.43h1v5.64Z"/><path d="M30.7,87.53a13.13,13.13,0,0,0-2.53,8.18,13.41,13.41,0,0,0,2.53,8.12H29.31a12.93,12.93,0,0,1-2.62-8.12,13.2,13.2,0,0,1,2.62-8.18Z"/><path d="M32.55,94.89c0-1.24,0-2.24-.08-3.16h1.58l.08,1.66h0a3.82,3.82,0,0,1,3.45-1.88c2.34,0,4.1,2,4.1,4.92,0,3.48-2.12,5.2-4.4,5.2a3.42,3.42,0,0,1-3-1.52h0v5.26H32.55Zm1.74,2.58a3.22,3.22,0,0,0,.09.72A2.7,2.7,0,0,0,37,100.25c1.86,0,2.94-1.52,2.94-3.74,0-1.94-1-3.6-2.88-3.6a2.8,2.8,0,0,0-2.66,2.18,2.48,2.48,0,0,0-.13.72Z"/><path d="M42.31,103.87a28.78,28.78,0,0,0,1.2-4.78l2-.2a24.38,24.38,0,0,1-1.9,4.86Z"/><path d="M55.91,95.35v1.3H51v-1.3Z"/><path d="M64.23,98c0,1.24.7,2.2,1.66,2.2s2-1.24,2-3.84a6.6,6.6,0,0,0-1.6-4.54v-.06H68a6.27,6.27,0,0,1,1.66,4.64c0,3.6-1.82,5.26-3.67,5.26a2.61,2.61,0,0,1-2.52-1.72h-.08a2.71,2.71,0,0,1-2.56,1.72c-1.68,0-3.54-1.42-3.54-5.1a7,7,0,0,1,1.7-4.8h1.62v.06a7,7,0,0,0-1.6,4.7c0,2.7,1.14,3.68,2.06,3.68s1.6-1,1.6-2.18l0-3.7h1.66Z"/><path d="M70.39,103.83a13.54,13.54,0,0,0,2.52-8.18,13.26,13.26,0,0,0-2.52-8.12h1.36a12.74,12.74,0,0,1,2.62,8.14,13,13,0,0,1-2.62,8.16Z"/><path d="M505.55,87.93h1.74v12h5.76v1.46h-7.5Z"/><path d="M519.42,101.2a2.76,2.76,0,0,1-2.81,3,2.68,2.68,0,0,1-2.7-2.9,2.76,2.76,0,0,1,2.8-3A2.67,2.67,0,0,1,519.42,101.2Zm-4.47.06c0,1.24.71,2.17,1.71,2.17s1.71-.92,1.71-2.19c0-1-.48-2.17-1.69-2.17S515,100.19,515,101.26Z"/><path d="M525.15,87.53a13.19,13.19,0,0,0-2.52,8.18,13.48,13.48,0,0,0,2.52,8.12h-1.38a12.93,12.93,0,0,1-2.62-8.12,13.2,13.2,0,0,1,2.62-8.18Z"/><path d="M527,94.89c0-1.24,0-2.24-.08-3.16h1.58l.08,1.66h0a3.81,3.81,0,0,1,3.44-1.88c2.34,0,4.1,2,4.1,4.92,0,3.48-2.12,5.2-4.4,5.2a3.39,3.39,0,0,1-3-1.52h0v5.26H527Zm1.74,2.58a4,4,0,0,0,.08.72,2.72,2.72,0,0,0,2.64,2.06c1.86,0,2.94-1.52,2.94-3.74,0-1.94-1-3.6-2.88-3.6a2.81,2.81,0,0,0-2.66,2.18,2.85,2.85,0,0,0-.12.72Z"/><path d="M536.77,103.87a28.78,28.78,0,0,0,1.2-4.78l2-.2a24.38,24.38,0,0,1-1.9,4.86Z"/><path d="M552.55,98c0,1.24.7,2.2,1.66,2.2s2-1.24,2-3.84a6.6,6.6,0,0,0-1.6-4.54v-.06h1.66A6.27,6.27,0,0,1,558,96.37c0,3.6-1.82,5.26-3.66,5.26a2.61,2.61,0,0,1-2.52-1.72h-.08a2.71,2.71,0,0,1-2.56,1.72c-1.68,0-3.54-1.42-3.54-5.1a7,7,0,0,1,1.7-4.8h1.62v.06a7,7,0,0,0-1.6,4.7c0,2.7,1.14,3.68,2.06,3.68s1.6-1,1.6-2.18l0-3.7h1.66Z"/><path d="M558.71,103.83a13.54,13.54,0,0,0,2.52-8.18,13.26,13.26,0,0,0-2.52-8.12h1.36a12.74,12.74,0,0,1,2.62,8.14,13,13,0,0,1-2.62,8.16Z"/><path d="M221.72,77c-6.43,0-6.45,10,0,10S228.17,77,221.72,77Z"/><polyline class="cls-4" points="302.16 0.1 313.62 59.03 347.63 59.03"/><polygon points="342.71 64.53 346.98 59.03 342.71 53.52 355.73 59.03 342.71 64.53"/><polygon class="cls-2" points="344.27 63.33 354.42 59.03 347.61 59.03 344.27 63.33"/><polygon class="cls-3" points="344.27 54.73 354.42 59.03 347.61 59.03 344.27 54.73"/><polyline class="cls-4" points="317.4 147.42 288.71 82.37 323.61 82.37"/><polygon points="318.7 87.87 322.96 82.37 318.7 76.86 331.71 82.37 318.7 87.87"/><polygon class="cls-2" points="320.26 86.67 330.4 82.37 323.59 82.37 320.26 86.67"/><polygon class="cls-3" points="320.26 78.07 330.4 82.37 323.59 82.37 320.26 78.07"/></svg>