<svg id="Layer_1" data-name="Layer 1" xmlns="http://www.w3.org/2000/svg" viewBox="0 0 574.24 121.5"><defs><style>.cls-1,.cls-4{fill:none;}.cls-1,.cls-4,.cls-5{stroke:#000;stroke-miterlimit:10;}.cls-1{stroke-width:3px;}.cls-2{fill:#a6a6a6;}.cls-3{fill:#666;}.cls-5{fill:#fff;}.cls-6{fill:#fcee21;}</style></defs><title>Volume emission</title><line class="cls-1" x1="431.26" y1="59.75" x2="566.14" y2="59.75"/><polygon points="561.23 65.25 565.49 59.75 561.23 54.25 574.24 59.75 561.23 65.25"/><polygon class="cls-2" points="562.79 64.05 572.93 59.75 566.12 59.75 562.79 64.05"/><polygon class="cls-3" points="562.79 55.45 572.93 59.75 566.12 59.75 562.79 55.45"/><path class="cls-4" d="M148.4,121c-23.07,0-41.78-27-41.78-60.25S125.33.5,148.4.5"/><path class="cls-5" d="M413.65,121c23.08,0,41.79-27,41.79-60.25S436.73.5,413.65.5H148.29c23.08,0,41.78,27,41.78,60.25S171.37,121,148.29,121Z"/><line class="cls-4" x1="142.98" y1="59.32" x2="8.1" y2="59.32"/><polygon points="13.01 53.82 8.75 59.32 13.01 64.83 0 59.32 13.01 53.82"/><polygon class="cls-2" points="11.46 55.02 1.31 59.32 8.12 59.32 11.46 55.02"/><polygon class="cls-3" points="11.46 63.62 1.31 59.32 8.12 59.32 11.46 63.62"/><path class="cls-6" d="M236.87,9.52c-6.43,0-6.44,10,0,10S243.32,9.52,236.87,9.52Z"/><path class="cls-6" d="M313.62,47.7c-6.43,0-6.45,10,0,10S320.07,47.7,313.62,47.7Z"/><path class="cls-6" d="M273.88,80c-6.43,0-6.44,10,0,10S280.33,80,273.88,80Z"/><path class="cls-6" d="M364.78,3.1c-6.43,0-6.44,10,0,10S371.23,3.1,364.78,3.1Z"/><path class="cls-6" d="M294.53,14.19c-6.43,0-6.45,10,0,10S301,14.19,294.53,14.19Z"/><path class="cls-6" d="M399.33,89c-6.43,0-6.45,10,0,10S405.78,89,399.33,89Z"/><path class="cls-6" d="M367,47.7c-6.43,0-6.44,10,0,10S373.44,47.7,367,47.7Z"/><path class="cls-6" d="M324.92,82.76c-6.44,0-6.45,10,0,10S331.36,82.76,324.92,82.76Z"/><path class="cls-6" d="M222.46,87.05c-6.44,0-6.45,10,0,10S228.9,87.05,222.46,87.05Z"/><path class="cls-6" d="M247.78,53.93c-6.44,0-6.45,10,0,10S254.22,53.93,247.78,53.93Z"/><path class="cls-6" d="M367.71,24.22c-6.43,0-6.44,10,0,10S374.16,24.22,367.71,24.22Z"/><path class="cls-6" d="M402.06,42.63c-6.44,0-6.45,10,0,10S408.5,42.63,402.06,42.63Z"/><path class="cls-6" d="M208,37.18c-6.43,0-6.44,10,0,10S214.49,37.18,208,37.18Z"/><path class="cls-6" d="M241.94,106.92c-6.44,0-6.45,10,0,10S248.38,106.92,241.94,106.92Z"/><path class="cls-6" d="M340.5,22.37c-6.43,0-6.44,10,0,10S347,22.37,340.5,22.37Z"/><path class="cls-6" d="M270.77,34.06c-6.44,0-6.45,10,0,10S277.21,34.06,270.77,34.06Z"/><path class="cls-6" d="M370.11,104.58c-6.43,0-6.44,10,0,10S376.56,104.58,370.11,104.58Z"/><path class="cls-6" d="M386.86,72.63c-6.43,0-6.44,10,0,10S393.31,72.63,386.86,72.63Z"/><path class="cls-6" d="M436,80.81c-6.43,0-6.44,10,0,10S442.4,80.81,436,80.81Z"/><path class="cls-6" d="M289.86,109.25c-6.44,0-6.45,10,0,10S296.3,109.25,289.86,109.25Z"/><path class="cls-6" d="M198.78,106.11c-6.44,0-6.45,10,0,10S205.22,106.11,198.78,106.11Z"/><path class="cls-6" d="M200.12,74.82c-6.43,0-6.44,10,0,10S206.57,74.82,200.12,74.82Z"/><path class="cls-6" d="M208.76,3c-6.43,0-6.44,10,0,10S215.21,3,208.76,3Z"/><path class="cls-6" d="M260.16,7.64c-6.43,0-6.44,10,0,10S266.61,7.64,260.16,7.64Z"/><path class="cls-6" d="M396.21,15.36c-6.43,0-6.44,10,0,10S402.66,15.36,396.21,15.36Z"/><path class="cls-6" d="M344.79,64.06c-6.44,0-6.45,10,0,10S351.23,64.06,344.79,64.06Z"/><path class="cls-6" d="M288.72,64a5.22,5.22,0,0,0-3.54-1.47h-.78a5,5,0,0,0-5,5A5,5,0,0,0,280.87,71a5.16,5.16,0,0,0,3.53,1.46h.78A5.21,5.21,0,0,0,288.72,71a5,5,0,0,0,0-7.07Z"/><path class="cls-6" d="M404.39,69.13c-6.43,0-6.44,10,0,10S410.84,69.13,404.39,69.13Z"/><path class="cls-6" d="M303.88,82.76c-6.43,0-6.44,10,0,10S310.33,82.76,303.88,82.76Z"/><path class="cls-6" d="M412.26,109.53c-6.43,0-6.45,10,0,10S418.7,109.53,412.26,109.53Z"/><path class="cls-6" d="M249.34,83.54c-6.44,0-6.45,10,0,10S255.78,83.54,249.34,83.54Z"/><path class="cls-6" d="M232.59,32.89c-6.44,0-6.45,10,0,10S239,32.89,232.59,32.89Z"/><path class="cls-6" d="M322.19,9.13c-6.43,0-6.44,10,0,10S328.64,9.13,322.19,9.13Z"/><path class="cls-6" d="M420.37,21.6c-6.44,0-6.45,10,0,10S426.81,21.6,420.37,21.6Z"/><path class="cls-6" d="M445.69,43.41c-6.43,0-6.44,10,0,10S452.14,43.41,445.69,43.41Z"/><path class="cls-6" d="M358.81,80.81c-6.43,0-6.44,10,0,10S365.26,80.81,358.81,80.81Z"/><path d="M14.77,76.6h1.74v12h5.76v1.46h-7.5Z"/><path d="M24.68,85.51a.64.64,0,0,1-1.27,0,.63.63,0,0,1,.64-.64A.61.61,0,0,1,24.68,85.51Zm-1.14,7.23V87.1h1v5.64Z"/><path d="M30.7,76.2a13.13,13.13,0,0,0-2.52,8.18A13.41,13.41,0,0,0,30.7,92.5H29.31a12.93,12.93,0,0,1-2.62-8.12,13.2,13.2,0,0,1,2.62-8.18Z"/><path d="M32.55,83.56c0-1.24,0-2.24-.08-3.16h1.58l.09,1.66h0a3.79,3.79,0,0,1,3.44-1.88c2.34,0,4.1,2,4.1,4.92,0,3.48-2.12,5.2-4.4,5.2a3.39,3.39,0,0,1-3-1.52h0V94H32.55Zm1.75,2.58a4,4,0,0,0,.08.72A2.71,2.71,0,0,0,37,88.92c1.86,0,2.94-1.52,2.94-3.74,0-1.94-1-3.6-2.88-3.6a2.81,2.81,0,0,0-2.66,2.18,2.47,2.47,0,0,0-.12.72Z"/><path d="M42.31,92.54a28.78,28.78,0,0,0,1.2-4.78l2-.2a23.79,23.79,0,0,1-1.9,4.86Z"/><path d="M55.91,84v1.3H51V84Z"/><path d="M64.23,86.64c0,1.24.7,2.2,1.66,2.2s2-1.24,2-3.84a6.6,6.6,0,0,0-1.6-4.54V80.4H68A6.27,6.27,0,0,1,69.64,85c0,3.6-1.82,5.26-3.67,5.26a2.61,2.61,0,0,1-2.52-1.72h-.08a2.71,2.71,0,0,1-2.56,1.72c-1.68,0-3.54-1.42-3.54-5.1A7,7,0,0,1,59,80.4h1.62v.06a7,7,0,0,0-1.6,4.7c0,2.7,1.14,3.68,2.06,3.68s1.6-1,1.6-2.18l0-3.7h1.66Z"/><path d="M70.39,92.5a13.54,13.54,0,0,0,2.52-8.18,13.26,13.26,0,0,0-2.52-8.12h1.36a12.74,12.74,0,0,1,2.62,8.14,13,13,0,0,1-2.62,8.16Z"/><path d="M505.55,76.6h1.74v12h5.76v1.46h-7.5Z"/><path d="M519.42,89.87a2.76,2.76,0,0,1-2.81,3,2.69,2.69,0,0,1-2.7-2.91,2.75,2.75,0,0,1,2.8-3A2.67,2.67,0,0,1,519.42,89.87Zm-4.47.06c0,1.24.71,2.17,1.71,2.17s1.71-.92,1.71-2.19c0-1-.48-2.17-1.69-2.17S515,88.86,515,89.93Z"/><path d="M525.15,76.2a13.19,13.19,0,0,0-2.52,8.18,13.48,13.48,0,0,0,2.52,8.12h-1.38a12.93,12.93,0,0,1-2.62-8.12,13.2,13.2,0,0,1,2.62-8.18Z"/><path d="M527,83.56c0-1.24,0-2.24-.08-3.16h1.58l.08,1.66h0a3.81,3.81,0,0,1,3.44-1.88c2.34,0,4.1,2,4.1,4.92,0,3.48-2.12,5.2-4.4,5.2a3.39,3.39,0,0,1-3-1.52h0V94H527Zm1.74,2.58a4,4,0,0,0,.08.72,2.72,2.72,0,0,0,2.64,2.06c1.86,0,2.94-1.52,2.94-3.74,0-1.94-1-3.6-2.88-3.6a2.81,2.81,0,0,0-2.66,2.18,2.85,2.85,0,0,0-.12.72Z"/><path d="M536.77,92.54a28.78,28.78,0,0,0,1.2-4.78l2-.2a24.38,24.38,0,0,1-1.9,4.86Z"/><path d="M552.55,86.64c0,1.24.7,2.2,1.66,2.2s2-1.24,2-3.84a6.6,6.6,0,0,0-1.6-4.54V80.4h1.66A6.27,6.27,0,0,1,558,85c0,3.6-1.82,5.26-3.66,5.26a2.61,2.61,0,0,1-2.52-1.72h-.08a2.71,2.71,0,0,1-2.56,1.72c-1.68,0-3.54-1.42-3.54-5.1a7,7,0,0,1,1.7-4.8h1.62v.06a7,7,0,0,0-1.6,4.7c0,2.7,1.14,3.68,2.06,3.68s1.6-1,1.6-2.18l0-3.7h1.66Z"/><path d="M558.71,92.5a13.54,13.54,0,0,0,2.52-8.18,13.26,13.26,0,0,0-2.52-8.12h1.36a12.74,12.74,0,0,1,2.62,8.14,13,13,0,0,1-2.62,8.16Z"/><path class="cls-6" d="M221.72,65.69c-6.43,0-6.45,10,0,10S228.17,65.69,221.72,65.69Z"/></svg>