<svg id="Layer_1" data-name="Layer 1" xmlns="http://www.w3.org/2000/svg" viewBox="0 0 664.88 292.75"><defs><style>.cls-1{fill:none;stroke:#000;stroke-miterlimit:10;}</style></defs><title>AABB</title><rect class="cls-1" x="166.29" y="91.5" width="189.45" height="189.45"/><rect class="cls-1" x="308.99" y="11.58" width="189.45" height="189.45"/><path class="cls-1" d="M166.29,91.5c-.24,0,142.7-79.92,142.7-79.92"/><line class="cls-1" x1="355.73" y1="91.5" x2="498.44" y2="11.58"/><line class="cls-1" x1="355.73" y1="280.95" x2="498.44" y2="201.03"/><line class="cls-1" x1="166.29" y1="280.95" x2="308.99" y2="201.03"/><circle cx="498.67" cy="12.75" r="6.22"/><circle cx="166.18" cy="281.03" r="6.22"/><path d="M512.82,4.13a19.68,19.68,0,0,1,3.82-.34A6.66,6.66,0,0,1,521.08,5a3.37,3.37,0,0,1,1.34,2.85,3.86,3.86,0,0,1-2.73,3.56v0A4.19,4.19,0,0,1,523,15.48a4.38,4.38,0,0,1-1.37,3.24c-1.13,1-2.95,1.51-5.6,1.51a23.85,23.85,0,0,1-3.24-.19Zm2.09,6.62h1.9c2.21,0,3.5-1.15,3.5-2.71,0-1.9-1.44-2.64-3.55-2.64a9.26,9.26,0,0,0-1.85.14Zm0,7.75a10.2,10.2,0,0,0,1.75.1c2.16,0,4.16-.79,4.16-3.14s-1.9-3.13-4.18-3.13h-1.73Z"/><path d="M536.37,14.18c0,4.3-3,6.17-5.79,6.17-3.14,0-5.56-2.3-5.56-6,0-3.89,2.54-6.17,5.76-6.17S536.37,10.63,536.37,14.18Zm-9.22.12c0,2.55,1.47,4.47,3.53,4.47s3.53-1.9,3.53-4.51c0-2-1-4.47-3.48-4.47S527.15,12.09,527.15,14.3Z"/><path d="M548.75,16.92c0,1.2,0,2.26.1,3.17H547l-.12-1.9h-.05A4.37,4.37,0,0,1,543,20.35c-1.83,0-4-1-4-5.09V8.47h2.11V14.9c0,2.21.67,3.7,2.59,3.7a3.06,3.06,0,0,0,2.79-1.92,3.1,3.1,0,0,0,.19-1.08V8.47h2.11Z"/><path d="M552.26,11.62c0-1.2,0-2.19-.1-3.15H554l.12,1.92h.05A4.28,4.28,0,0,1,558,8.21c1.61,0,4.1,1,4.1,4.94v6.94H560v-6.7c0-1.87-.69-3.43-2.69-3.43a3,3,0,0,0-2.83,2.16,3.17,3.17,0,0,0-.14,1v7h-2.11Z"/><path d="M575.61,3.05v14c0,1,0,2.21.09,3h-1.89l-.1-2h-.05a4.28,4.28,0,0,1-4,2.28c-2.8,0-5-2.37-5-5.9,0-3.87,2.37-6.24,5.2-6.24A3.9,3.9,0,0,1,573.45,10h0V3.05ZM573.5,13.2a3.92,3.92,0,0,0-.1-.89,3.11,3.11,0,0,0-3-2.45c-2.18,0-3.48,1.92-3.48,4.49,0,2.35,1.15,4.3,3.43,4.3a3.18,3.18,0,0,0,3.1-2.52,3.79,3.79,0,0,0,.1-.91Z"/><path d="M578.82,17.93a5.55,5.55,0,0,0,2.79.84c1.53,0,2.25-.77,2.25-1.73s-.6-1.56-2.16-2.14c-2.08-.74-3.07-1.89-3.07-3.28,0-1.88,1.51-3.41,4-3.41a5.74,5.74,0,0,1,2.86.72L585,10.46a4.53,4.53,0,0,0-2.38-.67c-1.25,0-1.94.72-1.94,1.59s.69,1.39,2.21,2c2,.77,3,1.78,3,3.51,0,2-1.58,3.48-4.34,3.48a6.6,6.6,0,0,1-3.26-.79Z"/><path d="M588.45,17.66a7,7,0,0,0,3.45,1c2.72,0,3.56-1.73,3.53-3,0-2.18-2-3.12-4-3.12h-1.18V10.92h1.18c1.54,0,3.48-.79,3.48-2.64,0-1.25-.79-2.35-2.74-2.35A5.78,5.78,0,0,0,589,7l-.55-1.54a7.43,7.43,0,0,1,4.08-1.2c3.07,0,4.47,1.83,4.47,3.72a3.88,3.88,0,0,1-2.88,3.68v0a4.07,4.07,0,0,1,3.48,4c0,2.5-2,4.68-5.69,4.68a8,8,0,0,1-4.06-1.05Z"/><path d="M600.42,10.39a1.43,1.43,0,1,1,2.86,0,1.43,1.43,0,1,1-2.86,0Zm0,8.47a1.43,1.43,0,1,1,2.86,0,1.43,1.43,0,1,1-2.86,0Z"/><path d="M605.39,10.39a1.43,1.43,0,1,1,2.86,0,1.43,1.43,0,1,1-2.86,0Zm0,8.47a1.43,1.43,0,1,1,2.86,0,1.43,1.43,0,1,1-2.86,0Z"/><path d="M610.86,12.26c0-1.48-.05-2.68-.09-3.79h1.89l.1,2h0a4.56,4.56,0,0,1,4.12-2.25c2.81,0,4.93,2.37,4.93,5.9,0,4.18-2.55,6.24-5.28,6.24A4.07,4.07,0,0,1,613,18.53h0v6.31h-2.09Zm2.09,3.1a4.51,4.51,0,0,0,.1.86,3.25,3.25,0,0,0,3.16,2.48c2.24,0,3.53-1.83,3.53-4.49,0-2.33-1.22-4.32-3.45-4.32a3.38,3.38,0,0,0-3.2,2.61,3.59,3.59,0,0,0-.14.87Z"/><path d="M638.22,13c-.12-2.25-.26-5-.24-7h-.07c-.55,1.89-1.22,3.91-2,6.14L633,20h-1.58l-2.62-7.7C628.05,10,627.4,7.92,626.94,6h-.05c0,2-.16,4.73-.31,7.15l-.43,6.94h-2l1.13-16.18H628l2.76,7.83c.67,2,1.22,3.76,1.63,5.44h.07c.41-1.63,1-3.4,1.71-5.44L637,3.91h2.66l1,16.18h-2Z"/><path d="M650.39,20.09l-.17-1.47h-.07a4.31,4.31,0,0,1-3.55,1.73A3.31,3.31,0,0,1,643,17c0-2.81,2.5-4.35,7-4.32v-.24a2.39,2.39,0,0,0-2.64-2.69,5.74,5.74,0,0,0-3,.86l-.49-1.39a7.3,7.3,0,0,1,3.82-1c3.55,0,4.42,2.42,4.42,4.75V17.3a16.83,16.83,0,0,0,.19,2.79Zm-.31-5.93c-2.31-.05-4.92.36-4.92,2.62a1.87,1.87,0,0,0,2,2A2.9,2.9,0,0,0,650,16.85a2.31,2.31,0,0,0,.12-.67Z"/><path d="M656.51,8.47l1.66,2.5c.43.65.79,1.24,1.17,1.89h.07c.39-.69.77-1.29,1.16-1.92l1.63-2.47h2.28l-4,5.62,4.08,6h-2.4l-1.71-2.62c-.45-.67-.84-1.32-1.24-2h0c-.39.69-.79,1.32-1.23,2l-1.68,2.62H654l4.12-5.93-3.93-5.69Z"/><path d="M1.82,270.79a20.61,20.61,0,0,1,3.82-.33,6.72,6.72,0,0,1,4.44,1.17,3.41,3.41,0,0,1,1.34,2.86A3.83,3.83,0,0,1,8.69,278v0A4.18,4.18,0,0,1,12,282.15a4.4,4.4,0,0,1-1.37,3.24c-1.13,1-2.95,1.51-5.6,1.51a25.64,25.64,0,0,1-3.24-.19Zm2.09,6.63h1.9c2.21,0,3.5-1.15,3.5-2.71,0-1.9-1.44-2.64-3.55-2.64a9.26,9.26,0,0,0-1.85.14Zm0,7.75a11.34,11.34,0,0,0,1.75.1c2.16,0,4.16-.8,4.16-3.15S7.92,279,5.64,279H3.91Z"/><path d="M25.37,280.85c0,4.3-3,6.17-5.79,6.17-3.14,0-5.56-2.31-5.56-6,0-3.89,2.54-6.17,5.76-6.17S25.37,277.3,25.37,280.85Zm-9.22.12c0,2.54,1.47,4.46,3.53,4.46s3.53-1.89,3.53-4.51c0-2-1-4.46-3.48-4.46S16.15,278.76,16.15,281Z"/><path d="M37.75,283.59c0,1.2,0,2.25.1,3.16H36l-.12-1.89h0A4.39,4.39,0,0,1,32,287c-1.83,0-4-1-4-5.09v-6.79h2.11v6.43c0,2.21.67,3.7,2.59,3.7a3.07,3.07,0,0,0,2.79-1.92,3.14,3.14,0,0,0,.19-1.08v-7.13h2.11Z"/><path d="M41.26,278.28c0-1.2,0-2.18-.1-3.14H43l.12,1.92h.05A4.27,4.27,0,0,1,47,274.87c1.61,0,4.1,1,4.1,4.95v6.93H49v-6.69c0-1.87-.69-3.43-2.69-3.43a3,3,0,0,0-2.83,2.16,3.17,3.17,0,0,0-.14,1v7H41.26Z"/><path d="M64.61,269.71v14c0,1,0,2.21.09,3H62.81l-.1-2h-.05a4.28,4.28,0,0,1-4,2.28c-2.8,0-5-2.38-5-5.91,0-3.86,2.37-6.24,5.2-6.24a3.89,3.89,0,0,1,3.51,1.78h0v-6.94ZM62.5,279.87a3.8,3.8,0,0,0-.1-.89,3.1,3.1,0,0,0-3-2.45c-2.18,0-3.48,1.92-3.48,4.49,0,2.35,1.15,4.29,3.43,4.29a3.17,3.17,0,0,0,3.1-2.52,3.68,3.68,0,0,0,.1-.91Z"/><path d="M67.82,284.59a5.55,5.55,0,0,0,2.79.84c1.53,0,2.25-.76,2.25-1.72s-.6-1.56-2.16-2.14c-2.08-.74-3.07-1.9-3.07-3.29,0-1.87,1.51-3.41,4-3.41a5.85,5.85,0,0,1,2.86.72L74,277.13a4.53,4.53,0,0,0-2.38-.67c-1.25,0-1.94.72-1.94,1.58s.69,1.39,2.21,2c2,.77,3,1.78,3,3.5,0,2-1.58,3.49-4.34,3.49a6.6,6.6,0,0,1-3.26-.8Z"/><path d="M77.45,284.33a7.09,7.09,0,0,0,3.45,1c2.72,0,3.56-1.72,3.53-3,0-2.18-2-3.12-4-3.12H79.22v-1.58H80.4c1.54,0,3.48-.8,3.48-2.64,0-1.25-.79-2.36-2.74-2.36a5.78,5.78,0,0,0-3.12,1l-.55-1.54a7.43,7.43,0,0,1,4.08-1.2c3.07,0,4.47,1.82,4.47,3.72a3.86,3.86,0,0,1-2.88,3.67v.05a4.06,4.06,0,0,1,3.48,4c0,2.49-2,4.68-5.69,4.68A7.9,7.9,0,0,1,76.87,286Z"/><path d="M89.42,277.06a1.43,1.43,0,1,1,2.86,0,1.43,1.43,0,1,1-2.86,0Zm0,8.47a1.43,1.43,0,1,1,2.86,0,1.43,1.43,0,1,1-2.86,0Z"/><path d="M94.39,277.06a1.43,1.43,0,1,1,2.86,0,1.43,1.43,0,1,1-2.86,0Zm0,8.47a1.43,1.43,0,1,1,2.86,0,1.43,1.43,0,1,1-2.86,0Z"/><path d="M99.86,278.93c0-1.49,0-2.69-.09-3.79h1.89l.1,2h0a4.55,4.55,0,0,1,4.12-2.26c2.81,0,4.93,2.38,4.93,5.91,0,4.18-2.55,6.24-5.28,6.24a4.06,4.06,0,0,1-3.58-1.83h0v6.32H99.86ZM102,282a4.51,4.51,0,0,0,.1.86,3.25,3.25,0,0,0,3.16,2.47c2.24,0,3.53-1.82,3.53-4.49,0-2.32-1.22-4.32-3.45-4.32a3.39,3.39,0,0,0-3.2,2.62,3.51,3.51,0,0,0-.14.86Z"/><path d="M127.22,279.65c-.12-2.26-.26-5-.24-7h-.07c-.55,1.89-1.22,3.91-2,6.14L122,286.66h-1.58L117.81,279c-.76-2.28-1.41-4.36-1.87-6.28h0c0,2-.16,4.72-.31,7.15l-.43,6.93h-2l1.13-16.17H117l2.76,7.82c.67,2,1.22,3.77,1.63,5.45h.07c.41-1.63,1-3.41,1.71-5.45l2.88-7.82h2.66l1,16.17h-2Z"/><path d="M135.45,271.87a1.24,1.24,0,0,1-1.34,1.3,1.26,1.26,0,0,1-1.27-1.3,1.29,1.29,0,0,1,1.32-1.32A1.25,1.25,0,0,1,135.45,271.87Zm-2.35,14.88V275.14h2.11v11.61Z"/><path d="M138.72,278.28c0-1.2,0-2.18-.1-3.14h1.87l.12,1.92h0a4.27,4.27,0,0,1,3.84-2.19c1.61,0,4.11,1,4.11,4.95v6.93h-2.12v-6.69c0-1.87-.69-3.43-2.68-3.43a3,3,0,0,0-2.84,2.16,3.17,3.17,0,0,0-.14,1v7h-2.11Z"/></svg>