<svg id="Layer_1" data-name="Layer 1" xmlns="http://www.w3.org/2000/svg" viewBox="0 0 518.8 202.47"><defs><style>.cls-1,.cls-2{fill:none;stroke:#000;stroke-miterlimit:10;}.cls-2{stroke-dasharray:4;}</style></defs><title>Bounding choices</title><path class="cls-1" d="M101.72,120.77l23.22-20.3s-2.07-3.42-4.49-1.61-10.24,15.41-16.39,14S77.57,91.38,78,87.3s3.14-10.14,7.25-15S91.39,61.75,89,52.71,72.57,14.15,72.57,14.15L37.31,45"/><path class="cls-1" d="M103.75,119,80.53,139.29s-3.11-2.51-1-4.66,16.65-8.09,16.08-14.37S77.85,91.14,73.75,91,63.28,92.79,58,96.21s-11.32,4.66-20,1.13S2,75.86,2,75.86L37.24,45"/><rect class="cls-2" x="0.5" y="12.26" width="125.89" height="129.37"/><path d="M14.55,169.23l-1.4,4.24H11.34L15.93,160H18l4.6,13.48H20.77l-1.44-4.24ZM19,167.87,17.65,164c-.3-.88-.5-1.68-.7-2.46h0c-.2.8-.42,1.62-.68,2.44l-1.32,3.9Z"/><path d="M25.37,163.79l1.38,2.08c.36.54.66,1,1,1.58h.06c.32-.58.64-1.08,1-1.6l1.36-2.06H32l-3.3,4.68,3.4,5h-2l-1.42-2.18c-.38-.56-.7-1.1-1-1.68h0c-.32.58-.66,1.1-1,1.68l-1.4,2.18H23.25l3.44-4.94-3.28-4.74Z"/><path d="M35.77,161.07a1,1,0,0,1-1.12,1.08,1.05,1.05,0,0,1-1.07-1.08A1.08,1.08,0,0,1,34.69,160,1.05,1.05,0,0,1,35.77,161.07Zm-2,12.4v-9.68h1.77v9.68Z"/><path d="M38.25,171.67a4.55,4.55,0,0,0,2.32.7c1.28,0,1.88-.64,1.88-1.44s-.5-1.3-1.8-1.78c-1.74-.62-2.57-1.58-2.57-2.74,0-1.56,1.26-2.84,3.35-2.84a4.83,4.83,0,0,1,2.38.6l-.44,1.28a3.77,3.77,0,0,0-2-.56c-1,0-1.63.6-1.63,1.32s.58,1.16,1.85,1.64c1.68.64,2.54,1.48,2.54,2.92,0,1.7-1.32,2.9-3.62,2.9A5.53,5.53,0,0,1,37.8,173Z"/><path d="M50.49,167.41v1.3h-5v-1.3Z"/><path d="M54.71,169.23l-1.41,4.24H51.5L56.08,160h2.11l4.6,13.48H60.93l-1.44-4.24Zm4.42-1.36L57.81,164c-.31-.88-.5-1.68-.7-2.46h0c-.2.8-.42,1.62-.69,2.44l-1.32,3.9Z"/><path d="M64.64,159.26h1.77v14.21H64.64Z"/><path d="M71.33,161.07a1.1,1.1,0,0,1-2.19,0A1.08,1.08,0,0,1,70.25,160,1.05,1.05,0,0,1,71.33,161.07Zm-2,12.4v-9.68h1.77v9.68Z"/><path d="M82.39,163.79c0,.7-.08,1.48-.08,2.66v5.62c0,2.22-.44,3.58-1.38,4.42a5.13,5.13,0,0,1-3.52,1.16,6.29,6.29,0,0,1-3.23-.8l.44-1.34a5.46,5.46,0,0,0,2.84.76c1.81,0,3.13-.94,3.13-3.38v-1.08h0a3.46,3.46,0,0,1-3.09,1.62c-2.4,0-4.12-2-4.12-4.72,0-3.28,2.14-5.14,4.37-5.14a3.22,3.22,0,0,1,3,1.68h0l.08-1.46Zm-1.82,3.82a2.51,2.51,0,0,0-.1-.8A2.54,2.54,0,0,0,78,165c-1.67,0-2.87,1.42-2.87,3.66,0,1.9,1,3.48,2.86,3.48a2.57,2.57,0,0,0,2.44-1.8,3.06,3.06,0,0,0,.14-.94Z"/><path d="M85.1,166.41c0-1,0-1.82-.08-2.62h1.56l.11,1.6h0a3.56,3.56,0,0,1,3.2-1.82c1.34,0,3.42.8,3.42,4.12v5.78H91.59v-5.58c0-1.56-.58-2.86-2.24-2.86a2.5,2.5,0,0,0-2.36,1.8,2.53,2.53,0,0,0-.12.82v5.82H85.1Z"/><path d="M97.18,169a3.11,3.11,0,0,0,3.33,3.36,6.36,6.36,0,0,0,2.68-.5l.3,1.26a7.84,7.84,0,0,1-3.22.6,4.5,4.5,0,0,1-4.77-4.88c0-2.92,1.72-5.22,4.54-5.22,3.17,0,4,2.78,4,4.56a6.64,6.64,0,0,1-.06.82Zm5.17-1.26c0-1.12-.46-2.86-2.44-2.86a2.91,2.91,0,0,0-2.7,2.86Z"/><path d="M114.59,159.26V171c0,.86,0,1.84.08,2.5h-1.58l-.08-1.68h0a3.58,3.58,0,0,1-3.3,1.9c-2.35,0-4.15-2-4.15-4.92,0-3.22,2-5.2,4.35-5.2a3.25,3.25,0,0,1,2.92,1.48h0v-5.79Zm-1.76,8.47a3.11,3.11,0,0,0-.08-.74,2.59,2.59,0,0,0-2.54-2c-1.83,0-2.91,1.6-2.91,3.74,0,2,1,3.58,2.87,3.58a2.65,2.65,0,0,0,2.58-2.1,3.06,3.06,0,0,0,.08-.76Z"/><path d="M6.28,184.17a16,16,0,0,1,3.18-.29,5.51,5.51,0,0,1,3.7,1,2.81,2.81,0,0,1,1.12,2.38,3.2,3.2,0,0,1-2.28,3v0a3.47,3.47,0,0,1,2.78,3.38,3.63,3.63,0,0,1-1.14,2.7c-.94.86-2.46,1.26-4.66,1.26a20.34,20.34,0,0,1-2.7-.16ZM8,189.69H9.6c1.84,0,2.92-1,2.92-2.26,0-1.58-1.2-2.2-3-2.2a8.59,8.59,0,0,0-1.54.11Zm0,6.46a9.3,9.3,0,0,0,1.46.08c1.8,0,3.46-.66,3.46-2.62S11.36,191,9.46,191H8Z"/><path d="M25.9,192.55c0,3.58-2.48,5.14-4.82,5.14-2.62,0-4.65-1.92-4.65-5,0-3.24,2.13-5.14,4.81-5.14S25.9,189.59,25.9,192.55Zm-7.68.1c0,2.12,1.22,3.72,2.94,3.72s2.94-1.58,2.94-3.76c0-1.64-.82-3.72-2.9-3.72S18.22,190.81,18.22,192.65Z"/><path d="M36.22,194.83c0,1,0,1.88.08,2.64H34.74l-.1-1.58h0a3.64,3.64,0,0,1-3.2,1.8c-1.52,0-3.35-.84-3.35-4.24v-5.66h1.77v5.36c0,1.84.56,3.08,2.16,3.08a2.54,2.54,0,0,0,2.32-1.6,2.57,2.57,0,0,0,.16-.9v-5.94h1.76Z"/><path d="M39.13,190.41c0-1,0-1.82-.08-2.62h1.57l.1,1.6h0a3.56,3.56,0,0,1,3.2-1.82c1.34,0,3.42.8,3.42,4.12v5.78H45.62v-5.58c0-1.56-.58-2.86-2.24-2.86a2.5,2.5,0,0,0-2.36,1.8,2.53,2.53,0,0,0-.12.82v5.82H39.13Z"/><path d="M58.6,183.26V195c0,.86,0,1.84.08,2.5H57.1L57,195.79h0a3.58,3.58,0,0,1-3.3,1.9c-2.35,0-4.15-2-4.15-4.92,0-3.22,2-5.2,4.35-5.2a3.24,3.24,0,0,1,2.92,1.48h0v-5.79Zm-1.76,8.47a3.11,3.11,0,0,0-.08-.74,2.59,2.59,0,0,0-2.54-2c-1.82,0-2.9,1.6-2.9,3.74,0,2,1,3.58,2.86,3.58a2.65,2.65,0,0,0,2.58-2.1,3.06,3.06,0,0,0,.08-.76Z"/><path d="M63.48,185.07a1,1,0,0,1-1.12,1.08,1.05,1.05,0,0,1-1.07-1.08A1.08,1.08,0,0,1,62.4,184,1.05,1.05,0,0,1,63.48,185.07Zm-2,12.4v-9.68h1.77v9.68Z"/><path d="M66.19,190.41c0-1,0-1.82-.08-2.62h1.56l.11,1.6h0a3.55,3.55,0,0,1,3.2-1.82c1.34,0,3.42.8,3.42,4.12v5.78H72.68v-5.58c0-1.56-.58-2.86-2.24-2.86a2.5,2.5,0,0,0-2.36,1.8,2.53,2.53,0,0,0-.12.82v5.82H66.19Z"/><path d="M85.64,187.79c0,.7-.08,1.48-.08,2.66v5.62c0,2.22-.44,3.58-1.38,4.42a5.13,5.13,0,0,1-3.52,1.16,6.29,6.29,0,0,1-3.23-.8l.44-1.34a5.46,5.46,0,0,0,2.84.76c1.81,0,3.13-.94,3.13-3.38v-1.08h0a3.46,3.46,0,0,1-3.09,1.62c-2.4,0-4.12-2-4.12-4.72,0-3.28,2.14-5.14,4.37-5.14a3.22,3.22,0,0,1,3,1.68h0l.08-1.46Zm-1.82,3.82a2.51,2.51,0,0,0-.1-.8A2.54,2.54,0,0,0,81.25,189c-1.67,0-2.87,1.42-2.87,3.66,0,1.9,1,3.48,2.86,3.48a2.57,2.57,0,0,0,2.44-1.8,3.06,3.06,0,0,0,.14-.94Z"/><path d="M92.77,184.17a16,16,0,0,1,3.19-.29,5.51,5.51,0,0,1,3.7,1,2.81,2.81,0,0,1,1.12,2.38,3.2,3.2,0,0,1-2.28,3v0a3.47,3.47,0,0,1,2.78,3.38,3.63,3.63,0,0,1-1.14,2.7c-.94.86-2.47,1.26-4.67,1.26a20.34,20.34,0,0,1-2.7-.16Zm1.74,5.52h1.58c1.85,0,2.93-1,2.93-2.26,0-1.58-1.2-2.2-3-2.2a8.59,8.59,0,0,0-1.54.11Zm0,6.46a9.3,9.3,0,0,0,1.46.08c1.81,0,3.47-.66,3.47-2.62S97.86,191,96,191H94.51Z"/><path d="M112.4,192.55c0,3.58-2.48,5.14-4.82,5.14-2.63,0-4.65-1.92-4.65-5,0-3.24,2.12-5.14,4.81-5.14S112.4,189.59,112.4,192.55Zm-7.69.1c0,2.12,1.22,3.72,3,3.72s2.94-1.58,2.94-3.76c0-1.64-.82-3.72-2.9-3.72S104.71,190.81,104.71,192.65Z"/><path d="M115.15,187.79l1.38,2.08c.36.54.66,1,1,1.58h.06c.32-.58.64-1.08,1-1.6l1.36-2.06h1.9l-3.3,4.68,3.4,5h-2l-1.42-2.18c-.38-.56-.7-1.1-1-1.68h0c-.32.58-.66,1.1-1,1.68l-1.4,2.18H113l3.44-4.94-3.28-4.74Z"/><path class="cls-1" d="M290.53,119.61l23.08-20.45s-2.09-3.41-4.5-1.58S299,113.06,292.81,111.7,266.19,90.38,266.6,86.3s3.08-10.16,7.15-15,6.06-10.63,3.66-19.65-16.72-38.46-16.72-38.46L225.63,44.23"/><path class="cls-1" d="M292.54,117.83l-23.08,20.44s-3.14-2.49-1-4.66,16.59-8.19,16-14.47-18-29-22.05-29.09-10.45,1.83-15.76,5.28-11.29,4.74-19.94,1.26S190.5,75.34,190.5,75.34l35.06-31.05"/><rect class="cls-2" x="209.81" y="29.97" width="97.6" height="103.4" transform="translate(10.83 191.92) rotate(-41.51)"/><path d="M186.89,173.47V160h1.9l4.32,6.82a38.16,38.16,0,0,1,2.42,4.38l0,0c-.16-1.8-.2-3.44-.2-5.54V160H197v13.48h-1.76L191,166.63a42.79,42.79,0,0,1-2.52-4.5l-.06,0c.1,1.7.14,3.32.14,5.56v5.76Z"/><path d="M208.75,168.55c0,3.58-2.48,5.14-4.82,5.14-2.62,0-4.64-1.92-4.64-5,0-3.24,2.12-5.14,4.8-5.14S208.75,165.59,208.75,168.55Zm-7.68.1c0,2.12,1.22,3.72,2.94,3.72s2.94-1.58,2.94-3.76c0-1.64-.82-3.72-2.9-3.72S201.07,166.81,201.07,168.65Z"/><path d="M211,166.41c0-1,0-1.82-.08-2.62h1.56l.1,1.6h0a3.56,3.56,0,0,1,3.2-1.82c1.34,0,3.42.8,3.42,4.12v5.78h-1.76v-5.58c0-1.56-.58-2.86-2.24-2.86a2.5,2.5,0,0,0-2.36,1.8,2.53,2.53,0,0,0-.12.82v5.82H211Z"/><path d="M226.15,167.41v1.3h-4.94v-1.3Z"/><path d="M230.37,169.23l-1.4,4.24h-1.8L231.75,160h2.1l4.6,13.48h-1.86l-1.44-4.24Zm4.42-1.36L233.47,164c-.3-.88-.5-1.68-.7-2.46h0c-.2.8-.42,1.62-.68,2.44l-1.32,3.9Z"/><path d="M241.19,163.79l1.38,2.08c.36.54.66,1,1,1.58h.06c.32-.58.64-1.08,1-1.6l1.36-2.06h1.9l-3.3,4.68,3.4,5h-2l-1.42-2.18c-.38-.56-.7-1.1-1-1.68h0c-.32.58-.66,1.1-1,1.68l-1.4,2.18h-1.94l3.44-4.94-3.28-4.74Z"/><path d="M251.59,161.07a1.09,1.09,0,0,1-2.18,0,1.07,1.07,0,0,1,1.1-1.1A1,1,0,0,1,251.59,161.07Zm-2,12.4v-9.68h1.76v9.68Z"/><path d="M254.07,171.67a4.61,4.61,0,0,0,2.32.7c1.28,0,1.88-.64,1.88-1.44s-.5-1.3-1.8-1.78c-1.74-.62-2.56-1.58-2.56-2.74,0-1.56,1.26-2.84,3.34-2.84a4.83,4.83,0,0,1,2.38.6l-.44,1.28a3.77,3.77,0,0,0-2-.56c-1,0-1.62.6-1.62,1.32s.58,1.16,1.84,1.64c1.68.64,2.54,1.48,2.54,2.92,0,1.7-1.32,2.9-3.62,2.9a5.52,5.52,0,0,1-2.72-.66Z"/><path d="M266.31,167.41v1.3h-4.94v-1.3Z"/><path d="M270.53,169.23l-1.4,4.24h-1.8L271.91,160H274l4.6,13.48h-1.86l-1.44-4.24Zm4.42-1.36L273.63,164c-.3-.88-.5-1.68-.7-2.46h0c-.2.8-.42,1.62-.68,2.44l-1.32,3.9Z"/><path d="M280.47,159.27h1.76v14.2h-1.76Z"/><path d="M287.15,161.07a1.09,1.09,0,0,1-2.18,0,1.07,1.07,0,0,1,1.1-1.1A1,1,0,0,1,287.15,161.07Zm-2,12.4v-9.68H287v9.68Z"/><path d="M298.21,163.79c0,.7-.08,1.48-.08,2.66v5.62c0,2.22-.44,3.58-1.38,4.42a5.13,5.13,0,0,1-3.52,1.16,6.25,6.25,0,0,1-3.22-.8l.44-1.34a5.46,5.46,0,0,0,2.84.76c1.8,0,3.12-.94,3.12-3.38v-1.08h0a3.46,3.46,0,0,1-3.08,1.62c-2.4,0-4.12-2-4.12-4.72,0-3.28,2.14-5.14,4.36-5.14a3.22,3.22,0,0,1,3,1.68h0l.08-1.46Zm-1.82,3.82a2.51,2.51,0,0,0-.1-.8,2.54,2.54,0,0,0-2.46-1.86c-1.68,0-2.88,1.42-2.88,3.66,0,1.9,1,3.48,2.86,3.48a2.57,2.57,0,0,0,2.44-1.8,3.06,3.06,0,0,0,.14-.94Z"/><path d="M300.93,166.41c0-1,0-1.82-.08-2.62h1.56l.1,1.6h0a3.56,3.56,0,0,1,3.2-1.82c1.34,0,3.42.8,3.42,4.12v5.78h-1.76v-5.58c0-1.56-.58-2.86-2.24-2.86a2.5,2.5,0,0,0-2.36,1.8,2.53,2.53,0,0,0-.12.82v5.82h-1.76Z"/><path d="M313,169a3.1,3.1,0,0,0,3.32,3.36,6.36,6.36,0,0,0,2.68-.5l.3,1.26a7.84,7.84,0,0,1-3.22.6c-3,0-4.76-2-4.76-4.88s1.72-5.22,4.54-5.22c3.16,0,4,2.78,4,4.56a6.64,6.64,0,0,1-.06.82Zm5.16-1.26c0-1.12-.46-2.86-2.44-2.86-1.78,0-2.56,1.64-2.7,2.86Z"/><path d="M330.41,159.27V171c0,.86,0,1.84.08,2.5h-1.58l-.08-1.68h0a3.58,3.58,0,0,1-3.3,1.9c-2.34,0-4.14-2-4.14-4.92,0-3.22,2-5.2,4.34-5.2a3.24,3.24,0,0,1,2.92,1.48h0v-5.78Zm-1.76,8.46a3.11,3.11,0,0,0-.08-.74,2.59,2.59,0,0,0-2.54-2c-1.82,0-2.9,1.6-2.9,3.74,0,2,1,3.58,2.86,3.58a2.65,2.65,0,0,0,2.58-2.1,3.06,3.06,0,0,0,.08-.76Z"/><path d="M201.45,184.17a16.86,16.86,0,0,1,3.18-.28,5.57,5.57,0,0,1,3.7,1,2.83,2.83,0,0,1,1.12,2.38,3.2,3.2,0,0,1-2.28,3v0a3.47,3.47,0,0,1,2.78,3.38,3.63,3.63,0,0,1-1.14,2.7c-.94.86-2.46,1.26-4.66,1.26a20.34,20.34,0,0,1-2.7-.16Zm1.74,5.52h1.58c1.84,0,2.92-1,2.92-2.26,0-1.58-1.2-2.2-3-2.2a7.46,7.46,0,0,0-1.54.12Zm0,6.46a9.3,9.3,0,0,0,1.46.08c1.8,0,3.46-.66,3.46-2.62s-1.58-2.6-3.48-2.6h-1.44Z"/><path d="M221.07,192.55c0,3.58-2.48,5.14-4.82,5.14-2.62,0-4.64-1.92-4.64-5,0-3.24,2.12-5.14,4.8-5.14S221.07,189.59,221.07,192.55Zm-7.68.1c0,2.12,1.22,3.72,2.94,3.72s2.94-1.58,2.94-3.76c0-1.64-.82-3.72-2.9-3.72S213.39,190.81,213.39,192.65Z"/><path d="M231.39,194.83c0,1,0,1.88.08,2.64h-1.56l-.1-1.58h0a3.64,3.64,0,0,1-3.2,1.8c-1.52,0-3.34-.84-3.34-4.24v-5.66H225v5.36c0,1.84.56,3.08,2.16,3.08a2.54,2.54,0,0,0,2.32-1.6,2.57,2.57,0,0,0,.16-.9v-5.94h1.76Z"/><path d="M234.31,190.41c0-1,0-1.82-.08-2.62h1.56l.1,1.6h0a3.56,3.56,0,0,1,3.2-1.82c1.34,0,3.42.8,3.42,4.12v5.78h-1.76v-5.58c0-1.56-.58-2.86-2.24-2.86a2.5,2.5,0,0,0-2.36,1.8,2.53,2.53,0,0,0-.12.82v5.82h-1.76Z"/><path d="M253.77,183.27V195c0,.86,0,1.84.08,2.5h-1.58l-.08-1.68h0a3.58,3.58,0,0,1-3.3,1.9c-2.34,0-4.14-2-4.14-4.92,0-3.22,2-5.2,4.34-5.2a3.24,3.24,0,0,1,2.92,1.48h0v-5.78ZM252,191.73a3.11,3.11,0,0,0-.08-.74,2.59,2.59,0,0,0-2.54-2c-1.82,0-2.9,1.6-2.9,3.74,0,2,1,3.58,2.86,3.58a2.65,2.65,0,0,0,2.58-2.1,3.06,3.06,0,0,0,.08-.76Z"/><path d="M258.65,185.07a1.09,1.09,0,0,1-2.18,0,1.07,1.07,0,0,1,1.1-1.1A1,1,0,0,1,258.65,185.07Zm-2,12.4v-9.68h1.76v9.68Z"/><path d="M261.37,190.41c0-1,0-1.82-.08-2.62h1.56l.1,1.6h0a3.56,3.56,0,0,1,3.2-1.82c1.34,0,3.42.8,3.42,4.12v5.78h-1.76v-5.58c0-1.56-.58-2.86-2.24-2.86a2.5,2.5,0,0,0-2.36,1.8,2.53,2.53,0,0,0-.12.82v5.82h-1.76Z"/><path d="M280.81,187.79c0,.7-.08,1.48-.08,2.66v5.62c0,2.22-.44,3.58-1.38,4.42a5.13,5.13,0,0,1-3.52,1.16,6.25,6.25,0,0,1-3.22-.8l.44-1.34a5.46,5.46,0,0,0,2.84.76c1.8,0,3.12-.94,3.12-3.38v-1.08h0a3.46,3.46,0,0,1-3.08,1.62c-2.4,0-4.12-2-4.12-4.72,0-3.28,2.14-5.14,4.36-5.14a3.22,3.22,0,0,1,3,1.68h0l.08-1.46ZM279,191.61a2.51,2.51,0,0,0-.1-.8,2.54,2.54,0,0,0-2.46-1.86c-1.68,0-2.88,1.42-2.88,3.66,0,1.9,1,3.48,2.86,3.48a2.57,2.57,0,0,0,2.44-1.8,3.06,3.06,0,0,0,.14-.94Z"/><path d="M288,184.17a16.86,16.86,0,0,1,3.18-.28,5.57,5.57,0,0,1,3.7,1,2.83,2.83,0,0,1,1.12,2.38,3.2,3.2,0,0,1-2.28,3v0a3.47,3.47,0,0,1,2.78,3.38,3.63,3.63,0,0,1-1.14,2.7c-.94.86-2.46,1.26-4.66,1.26a20.34,20.34,0,0,1-2.7-.16Zm1.74,5.52h1.58c1.84,0,2.92-1,2.92-2.26,0-1.58-1.2-2.2-3-2.2a7.46,7.46,0,0,0-1.54.12Zm0,6.46a9.3,9.3,0,0,0,1.46.08c1.8,0,3.46-.66,3.46-2.62S293,191,291.13,191h-1.44Z"/><path d="M307.57,192.55c0,3.58-2.48,5.14-4.82,5.14-2.62,0-4.64-1.92-4.64-5,0-3.24,2.12-5.14,4.8-5.14S307.57,189.59,307.57,192.55Zm-7.68.1c0,2.12,1.22,3.72,2.94,3.72s2.94-1.58,2.94-3.76c0-1.64-.82-3.72-2.9-3.72S299.89,190.81,299.89,192.65Z"/><path d="M310.33,187.79l1.38,2.08c.36.54.66,1,1,1.58h.06c.32-.58.64-1.08,1-1.6l1.36-2.06H317l-3.3,4.68,3.4,5h-2l-1.42-2.18c-.38-.56-.7-1.1-1-1.68h0c-.32.58-.66,1.1-1,1.68l-1.4,2.18h-1.94l3.44-4.94-3.28-4.74Z"/><line class="cls-2" x1="426.82" y1="18.09" x2="426.82" y2="153.18"/><line class="cls-2" x1="488.65" y1="19.43" x2="488.65" y2="154.52"/><path d="M420.48,169.23l-1.4,4.24h-1.8L421.86,160H424l4.6,13.48H426.7l-1.44-4.24Zm4.42-1.36L423.58,164c-.3-.88-.5-1.68-.7-2.46h0c-.2.8-.42,1.62-.68,2.44l-1.32,3.9Z"/><path d="M430.42,166.81c0-1.14,0-2.12-.08-3h1.54l.06,1.9H432a2.9,2.9,0,0,1,2.68-2.12,1.9,1.9,0,0,1,.5.06v1.66a2.64,2.64,0,0,0-.6-.06,2.47,2.47,0,0,0-2.36,2.26,5,5,0,0,0-.08.82v5.16h-1.74Z"/><path d="M437,173.47c0-.66.08-1.64.08-2.5v-11.7h1.74v6.08h0a3.61,3.61,0,0,1,3.3-1.78c2.4,0,4.1,2,4.08,4.94,0,3.46-2.18,5.18-4.34,5.18a3.45,3.45,0,0,1-3.24-1.82h-.06l-.08,1.6Zm1.82-3.88a3.3,3.3,0,0,0,.08.64,2.72,2.72,0,0,0,2.64,2.06c1.84,0,2.94-1.5,2.94-3.72,0-1.94-1-3.6-2.88-3.6a2.81,2.81,0,0,0-2.68,2.16,3.47,3.47,0,0,0-.1.72Z"/><path d="M450.38,161.07a1.09,1.09,0,0,1-2.18,0,1.07,1.07,0,0,1,1.1-1.1A1,1,0,0,1,450.38,161.07Zm-2,12.4v-9.68h1.76v9.68Z"/><path d="M455.22,161v2.78h2.52v1.34h-2.52v5.22c0,1.2.34,1.88,1.32,1.88a3.92,3.92,0,0,0,1-.12l.08,1.32a4.31,4.31,0,0,1-1.56.24,2.44,2.44,0,0,1-1.9-.74,3.59,3.59,0,0,1-.68-2.52v-5.28H452v-1.34h1.5v-2.32Z"/><path d="M459.72,166.81c0-1.14,0-2.12-.08-3h1.54l.06,1.9h.08a2.9,2.9,0,0,1,2.68-2.12,1.9,1.9,0,0,1,.5.06v1.66a2.64,2.64,0,0,0-.6-.06,2.47,2.47,0,0,0-2.36,2.26,5,5,0,0,0-.08.82v5.16h-1.74Z"/><path d="M471.52,173.47l-.14-1.22h-.06a3.61,3.61,0,0,1-3,1.44,2.76,2.76,0,0,1-3-2.78c0-2.34,2.08-3.62,5.82-3.6v-.2a2,2,0,0,0-2.2-2.24,4.82,4.82,0,0,0-2.52.72l-.4-1.16a6,6,0,0,1,3.18-.86c3,0,3.68,2,3.68,4v3.62a13.63,13.63,0,0,0,.16,2.32Zm-.26-4.94c-1.92,0-4.1.3-4.1,2.18a1.56,1.56,0,0,0,1.66,1.68,2.41,2.41,0,0,0,2.34-1.62,1.84,1.84,0,0,0,.1-.56Z"/><path d="M475.8,166.81c0-1.14,0-2.12-.08-3h1.54l.06,1.9h.08a2.9,2.9,0,0,1,2.68-2.12,1.9,1.9,0,0,1,.5.06v1.66a2.64,2.64,0,0,0-.6-.06,2.47,2.47,0,0,0-2.36,2.26,5,5,0,0,0-.08.82v5.16H475.8Z"/><path d="M483.48,163.79l2.12,5.72c.22.64.46,1.4.62,2h0c.18-.58.38-1.32.62-2l1.92-5.68h1.86l-2.64,6.9c-1.26,3.32-2.12,5-3.32,6.06a4.77,4.77,0,0,1-2.16,1.14l-.44-1.48a4.66,4.66,0,0,0,1.54-.86,5.34,5.34,0,0,0,1.48-2,1.26,1.26,0,0,0,.14-.42,1.53,1.53,0,0,0-.12-.46l-3.58-8.92Z"/><path d="M390.3,184.17a16.86,16.86,0,0,1,3.18-.28,5.57,5.57,0,0,1,3.7,1,2.83,2.83,0,0,1,1.12,2.38,3.2,3.2,0,0,1-2.28,3v0a3.47,3.47,0,0,1,2.78,3.38,3.63,3.63,0,0,1-1.14,2.7c-.94.86-2.46,1.26-4.66,1.26a20.34,20.34,0,0,1-2.7-.16Zm1.74,5.52h1.58c1.84,0,2.92-1,2.92-2.26,0-1.58-1.2-2.2-3-2.2a7.46,7.46,0,0,0-1.54.12Zm0,6.46a9.3,9.3,0,0,0,1.46.08c1.8,0,3.46-.66,3.46-2.62s-1.58-2.6-3.48-2.6H392Z"/><path d="M409.92,192.55c0,3.58-2.48,5.14-4.82,5.14-2.62,0-4.64-1.92-4.64-5,0-3.24,2.12-5.14,4.8-5.14S409.92,189.59,409.92,192.55Zm-7.68.1c0,2.12,1.22,3.72,2.94,3.72s2.94-1.58,2.94-3.76c0-1.64-.82-3.72-2.9-3.72S402.24,190.81,402.24,192.65Z"/><path d="M420.24,194.83c0,1,0,1.88.08,2.64h-1.56l-.1-1.58h0a3.64,3.64,0,0,1-3.2,1.8c-1.52,0-3.34-.84-3.34-4.24v-5.66h1.76v5.36c0,1.84.56,3.08,2.16,3.08a2.54,2.54,0,0,0,2.32-1.6,2.57,2.57,0,0,0,.16-.9v-5.94h1.76Z"/><path d="M423.16,190.41c0-1,0-1.82-.08-2.62h1.56l.1,1.6h0a3.56,3.56,0,0,1,3.2-1.82c1.34,0,3.42.8,3.42,4.12v5.78h-1.76v-5.58c0-1.56-.58-2.86-2.24-2.86a2.5,2.5,0,0,0-2.36,1.8,2.53,2.53,0,0,0-.12.82v5.82h-1.76Z"/><path d="M442.62,183.27V195c0,.86,0,1.84.08,2.5h-1.58l-.08-1.68h0a3.58,3.58,0,0,1-3.3,1.9c-2.34,0-4.14-2-4.14-4.92,0-3.22,2-5.2,4.34-5.2a3.24,3.24,0,0,1,2.92,1.48h0v-5.78Zm-1.76,8.46a3.11,3.11,0,0,0-.08-.74,2.59,2.59,0,0,0-2.54-2c-1.82,0-2.9,1.6-2.9,3.74,0,2,1,3.58,2.86,3.58a2.65,2.65,0,0,0,2.58-2.1,3.06,3.06,0,0,0,.08-.76Z"/><path d="M447.5,185.07a1.09,1.09,0,0,1-2.18,0,1.07,1.07,0,0,1,1.1-1.1A1,1,0,0,1,447.5,185.07Zm-2,12.4v-9.68h1.76v9.68Z"/><path d="M450.22,190.41c0-1,0-1.82-.08-2.62h1.56l.1,1.6h0a3.56,3.56,0,0,1,3.2-1.82c1.34,0,3.42.8,3.42,4.12v5.78H456.7v-5.58c0-1.56-.58-2.86-2.24-2.86a2.5,2.5,0,0,0-2.36,1.8,2.53,2.53,0,0,0-.12.82v5.82h-1.76Z"/><path d="M469.66,187.79c0,.7-.08,1.48-.08,2.66v5.62c0,2.22-.44,3.58-1.38,4.42a5.13,5.13,0,0,1-3.52,1.16,6.25,6.25,0,0,1-3.22-.8l.44-1.34a5.46,5.46,0,0,0,2.84.76c1.8,0,3.12-.94,3.12-3.38v-1.08h0a3.46,3.46,0,0,1-3.08,1.62c-2.4,0-4.12-2-4.12-4.72,0-3.28,2.14-5.14,4.36-5.14a3.22,3.22,0,0,1,3,1.68h0l.08-1.46Zm-1.82,3.82a2.51,2.51,0,0,0-.1-.8,2.54,2.54,0,0,0-2.46-1.86c-1.68,0-2.88,1.42-2.88,3.66,0,1.9,1,3.48,2.86,3.48a2.57,2.57,0,0,0,2.44-1.8,3.06,3.06,0,0,0,.14-.94Z"/><path d="M476.56,195.35a6.17,6.17,0,0,0,3.12.88c1.78,0,2.82-.94,2.82-2.3s-.72-2-2.54-2.68c-2.2-.78-3.56-1.92-3.56-3.82,0-2.1,1.74-3.66,4.36-3.66a6.12,6.12,0,0,1,3,.66l-.48,1.42a5.37,5.37,0,0,0-2.56-.64c-1.84,0-2.54,1.1-2.54,2,0,1.26.82,1.88,2.68,2.6,2.28.88,3.44,2,3.44,4s-1.54,3.88-4.72,3.88a7,7,0,0,1-3.44-.86Z"/><path d="M486.6,183.27h1.76v14.2H486.6Z"/><path d="M496.68,197.47l-.14-1.22h-.06a3.61,3.61,0,0,1-3,1.44,2.76,2.76,0,0,1-3-2.78c0-2.34,2.08-3.62,5.82-3.6v-.2a2,2,0,0,0-2.2-2.24,4.82,4.82,0,0,0-2.52.72l-.4-1.16a6,6,0,0,1,3.18-.86c3,0,3.68,2,3.68,4v3.62a13.63,13.63,0,0,0,.16,2.32Zm-.26-4.94c-1.92,0-4.1.3-4.1,2.18a1.56,1.56,0,0,0,1.66,1.68,2.41,2.41,0,0,0,2.34-1.62,1.84,1.84,0,0,0,.1-.56Z"/><path d="M500.88,197.47c0-.66.08-1.64.08-2.5v-11.7h1.74v6.08h0a3.61,3.61,0,0,1,3.3-1.78c2.4,0,4.1,2,4.08,4.94,0,3.46-2.18,5.18-4.34,5.18a3.45,3.45,0,0,1-3.24-1.82h-.06l-.08,1.6Zm1.82-3.88a3.3,3.3,0,0,0,.08.64,2.72,2.72,0,0,0,2.64,2.06c1.84,0,2.94-1.5,2.94-3.72,0-1.94-1-3.6-2.88-3.6a2.81,2.81,0,0,0-2.68,2.16,3.47,3.47,0,0,0-.1.72Z"/><path d="M512.1,195.67a4.61,4.61,0,0,0,2.32.7c1.28,0,1.88-.64,1.88-1.44s-.5-1.3-1.8-1.78c-1.74-.62-2.56-1.58-2.56-2.74,0-1.56,1.26-2.84,3.34-2.84a4.83,4.83,0,0,1,2.38.6l-.44,1.28a3.77,3.77,0,0,0-2-.56c-1,0-1.62.6-1.62,1.32s.58,1.16,1.84,1.64c1.68.64,2.54,1.48,2.54,2.92,0,1.7-1.32,2.9-3.62,2.9a5.52,5.52,0,0,1-2.72-.66Z"/><ellipse class="cls-1" cx="457.83" cy="85.35" rx="29.89" ry="54.04"/><line class="cls-2" x1="406.09" y1="31.32" x2="509.57" y2="31.32"/><line class="cls-2" x1="406.09" y1="139.39" x2="509.57" y2="139.39"/><line class="cls-2" x1="460.86" y1="0.83" x2="405.55" y2="102.88"/><line class="cls-2" x1="449.65" y1="0.27" x2="512.85" y2="97.63"/><line class="cls-2" x1="397.22" y1="70.69" x2="458.73" y2="155.19"/><line class="cls-2" x1="511.95" y1="73.5" x2="455.7" y2="161.59"/></svg>