<svg id="Layer_1" data-name="Layer 1" xmlns="http://www.w3.org/2000/svg" viewBox="0 0 327.4 474.47"><defs><style>.cls-1,.cls-5,.cls-6,.cls-7{fill:none;}.cls-1,.cls-4,.cls-5,.cls-6,.cls-7{stroke:#000;stroke-miterlimit:10;}.cls-2{fill:#a6a6a6;}.cls-3{fill:#666;}.cls-5{stroke-width:0.5px;}.cls-6{stroke-dasharray:4 4;}.cls-7{fill-rule:evenodd;}</style></defs><title>Coord Sys Point</title><polyline class="cls-1" points="5.5 155.89 5.5 435.79 286.4 435.79"/><polygon points="0 160.8 5.5 156.54 11.01 160.8 5.5 147.79 0 160.8"/><polygon class="cls-2" points="1.2 159.25 5.5 149.1 5.5 155.91 1.2 159.25"/><polygon class="cls-3" points="9.8 159.25 5.5 149.1 5.5 155.91 9.8 159.25"/><polygon points="281.49 441.29 285.75 435.79 281.49 430.29 294.5 435.79 281.49 441.29"/><polygon class="cls-2" points="283.05 440.09 293.19 435.79 286.38 435.79 283.05 440.09"/><polygon class="cls-3" points="283.05 431.49 293.19 435.79 286.38 435.79 283.05 431.49"/><circle class="cls-4" cx="212" cy="230.79" r="7"/><line class="cls-5" x1="212.5" y1="436.17" x2="212.5" y2="230.79"/><path d="M222.85,336.55a4.45,4.45,0,0,1,3.1-4.17l0-.08a3.87,3.87,0,0,1-2.47-3.5c0-2.47,2.09-4.15,4.83-4.15,3,0,4.53,1.89,4.53,3.84a4,4,0,0,1-2.57,3.65v.07c1.95.77,3.15,2.13,3.15,4,0,2.71-2.33,4.54-5.31,4.54C224.82,340.78,222.85,338.83,222.85,336.55Zm8.4-.09c0-1.9-1.32-2.81-3.43-3.41-1.82.53-2.81,1.73-2.81,3.21a2.89,2.89,0,0,0,3.12,3A2.82,2.82,0,0,0,231.25,336.46Zm-5.81-7.8c0,1.56,1.18,2.4,3,2.88a3.09,3.09,0,0,0,2.38-2.84,2.43,2.43,0,0,0-2.64-2.54A2.48,2.48,0,0,0,225.44,328.66Z"/><polyline class="cls-5" points="212.5 438.17 212.5 448.14 5.56 448.14 5.56 438.17"/><path d="M104.52,464.51a4.47,4.47,0,0,1,3.1-4.18l0-.07a3.86,3.86,0,0,1-2.47-3.5c0-2.48,2.09-4.16,4.82-4.16,3,0,4.54,1.9,4.54,3.84a4,4,0,0,1-2.57,3.65v.07c2,.77,3.15,2.14,3.15,4,0,2.71-2.33,4.53-5.31,4.53C106.49,468.73,104.52,466.79,104.52,464.51Zm8.4-.1c0-1.89-1.32-2.81-3.43-3.41-1.83.53-2.81,1.73-2.81,3.22a2.89,2.89,0,0,0,3.12,3A2.82,2.82,0,0,0,112.92,464.41Zm-5.81-7.8c0,1.56,1.18,2.4,3,2.88a3.06,3.06,0,0,0,2.37-2.83,2.43,2.43,0,0,0-2.64-2.55A2.49,2.49,0,0,0,107.11,456.61Z"/><polyline class="cls-6" points="257.15 7.23 197.77 124.59 193.09 133.85 320.17 198.15"/><polygon points="250.02 9.13 256.85 7.81 259.84 14.1 260.81 0 250.02 9.13"/><polygon class="cls-2" points="251.8 8.28 260.21 1.17 257.14 7.25 251.8 8.28"/><polygon class="cls-3" points="259.47 12.16 260.21 1.17 257.14 7.25 259.47 12.16"/><polygon points="313.31 200.84 319.59 197.86 318.27 191.02 327.4 201.81 313.31 200.84"/><polygon class="cls-2" points="315.24 200.47 326.23 201.22 320.15 198.14 315.24 200.47"/><polygon class="cls-3" points="319.12 192.8 326.23 201.22 320.15 198.14 319.12 192.8"/><polyline class="cls-7" points="215.15 224.67 251.83 152.17 197.77 124.59"/><path d="M222.45,129.56l.59-1.16,2.2-.69c5.27-1.58,7.79-2.57,8.87-4.66a2.78,2.78,0,0,0-1.39-4.11,5.31,5.31,0,0,0-3.55-.32l.07-1.63a6.79,6.79,0,0,1,4.66.58,4.38,4.38,0,0,1,2.21,6.2c-1.3,2.57-4.21,3.71-8.58,5l-1.63.46,0,.05,6.25,3.16-.79,1.56Z"/><path d="M243.23,196.35l-.71,1.4-5.29-2.68.71-1.39Z"/><path d="M247.37,206.6l1.92-3.79-6.47-3.27.63-1.24,10.71-5.75,2,1-4.37,8.65,2,1L253,204.7l-2-1-1.92,3.79Zm2.67-5.27,2.35-4.64c.37-.73.76-1.45,1.17-2.15l-.06,0c-.84.6-1.49,1-2.2,1.47l-5.8,3,0,.05Z"/><path d="M179.69,222.74c0-1.49-.05-2.69-.09-3.79h1.89l.1,2h0a4.56,4.56,0,0,1,4.12-2.25c2.81,0,4.92,2.37,4.92,5.9,0,4.18-2.54,6.24-5.28,6.24a4.06,4.06,0,0,1-3.57-1.82h-.05v6.31h-2.09Zm2.09,3.1a4.51,4.51,0,0,0,.1.86,3.25,3.25,0,0,0,3.16,2.48c2.24,0,3.53-1.83,3.53-4.49,0-2.33-1.22-4.32-3.45-4.32a3.38,3.38,0,0,0-3.2,2.61,3.59,3.59,0,0,0-.14.87Z"/></svg>