<svg id="Layer_1" data-name="Layer 1" xmlns="http://www.w3.org/2000/svg" viewBox="0 0 492.62 311.95"><defs><style>.cls-1{fill:none;stroke:#000;stroke-miterlimit:10;}.cls-2{fill:#a6a6a6;}.cls-3{fill:#666;}</style></defs><title>Left Right Handed</title><polyline class="cls-1" points="317.31 28.97 317.31 183 471.91 183"/><polygon points="311.81 33.88 317.31 29.62 322.81 33.88 317.31 20.86 311.81 33.88"/><polygon class="cls-2" points="313.01 32.32 317.31 22.18 317.31 28.99 313.01 32.32"/><polygon class="cls-3" points="321.61 32.32 317.31 22.18 317.31 28.99 321.61 32.32"/><polygon points="467 188.51 471.26 183 467 177.5 480.01 183 467 188.51"/><polygon class="cls-2" points="468.56 187.3 478.7 183 471.89 183 468.56 187.3"/><polygon class="cls-3" points="468.56 178.71 478.7 183 471.89 183 468.56 178.71"/><polyline class="cls-1" points="5.5 34.19 5.5 188.22 160.1 188.22"/><polygon points="0 39.09 5.5 34.84 11.01 39.09 5.5 26.08 0 39.09"/><polygon class="cls-2" points="1.2 37.54 5.5 27.39 5.5 34.2 1.2 37.54"/><polygon class="cls-3" points="9.8 37.54 5.5 27.39 5.5 34.2 9.8 37.54"/><polygon points="155.19 193.72 159.45 188.22 155.19 182.72 168.21 188.22 155.19 193.72"/><polygon class="cls-2" points="156.75 192.52 166.89 188.22 160.08 188.22 156.75 192.52"/><polygon class="cls-3" points="156.75 183.92 166.89 188.22 160.08 188.22 156.75 183.92"/><line class="cls-1" x1="114.43" y1="79.25" x2="5.52" y2="188.17"/><polygon points="107.07 78.83 113.97 79.72 114.86 86.62 120.17 73.53 107.07 78.83"/><polygon class="cls-2" points="109.02 78.58 119.24 74.45 114.42 79.27 109.02 78.58"/><polygon class="cls-3" points="115.1 84.66 119.24 74.45 114.42 79.27 115.1 84.66"/><line class="cls-1" x1="317.43" y1="182.64" x2="208.51" y2="291.56"/><polygon points="208.09 284.2 208.97 291.1 215.88 291.98 202.78 297.29 208.09 284.2"/><polygon class="cls-2" points="207.84 286.15 203.71 296.36 208.53 291.55 207.84 286.15"/><polygon class="cls-3" points="213.92 292.23 203.71 296.36 208.53 291.55 213.92 292.23"/><path d="M173.79,181.7l1.38,2.08c.36.54.66,1,1,1.58h.06c.32-.58.64-1.08,1-1.6l1.36-2.06h1.9l-3.3,4.68,3.4,5h-2l-1.42-2.18c-.38-.56-.7-1.1-1-1.68h0c-.32.58-.66,1.1-1,1.68l-1.4,2.18h-1.94l3.44-4.94-3.28-4.74Z"/><path d="M122.63,70,127,64.26c.42-.52.82-1,1.26-1.5v0H123V61.3h7.38l0,1.1L126.07,68c-.4.54-.8,1-1.24,1.52v0h5.66V71h-7.86Z"/><path d="M5.47,10.73l2.12,5.73c.22.64.46,1.4.62,2h0c.18-.58.38-1.32.62-2l1.92-5.69h1.86L10,17.64c-1.26,3.32-2.12,5-3.32,6.06a4.77,4.77,0,0,1-2.16,1.14l-.44-1.48a4.66,4.66,0,0,0,1.54-.86,5.34,5.34,0,0,0,1.48-2,1.26,1.26,0,0,0,.14-.42,1.53,1.53,0,0,0-.12-.46L3.55,10.73Z"/><path d="M316.55,7.06l2.12,5.72c.22.64.46,1.4.62,2h0c.18-.58.38-1.32.62-2l1.92-5.68h1.86L321.09,14c-1.26,3.32-2.12,5-3.32,6.06a4.77,4.77,0,0,1-2.16,1.14l-.44-1.48a4.66,4.66,0,0,0,1.54-.86,5.34,5.34,0,0,0,1.48-2,1.26,1.26,0,0,0,.14-.42,1.53,1.53,0,0,0-.12-.46l-3.58-8.92Z"/><path d="M485.64,176.79l1.38,2.08c.36.54.66,1,1,1.58h.06c.32-.58.64-1.08,1-1.6l1.36-2.06h1.9l-3.3,4.69,3.4,5h-2L489,184.3c-.38-.56-.7-1.1-1-1.68h0c-.32.58-.66,1.1-1,1.68l-1.4,2.18h-1.94l3.44-4.94-3.28-4.75Z"/><path d="M194,305.93l4.38-5.7c.42-.52.82-1,1.26-1.5v0h-5.24v-1.42h7.38l0,1.1L197.47,304c-.4.54-.8,1-1.24,1.52v0h5.66V307H194Z"/></svg>