<svg id="Layer_1" data-name="Layer 1" xmlns="http://www.w3.org/2000/svg" viewBox="0 0 179.24 190.82"><defs><style>.cls-1,.cls-2{fill:none;stroke:#000;stroke-miterlimit:10;}.cls-2{stroke-width:0.5px;}.cls-3{fill:#a6a6a6;}.cls-4{fill:#666;}</style></defs><title>Local differential geometry</title><path class="cls-1" d="M151.91,35.33s-11.33,21.84-44.35,18.83-49-25.85-81.83.81C6.22,70.82,4.94,83.19.47,95.77"/><line class="cls-1" x1="178.76" y1="131.11" x2="151.87" y2="34.89"/><line class="cls-1" x1="27.26" y1="190.19" x2="0.54" y2="95.33"/><path class="cls-1" d="M178.74,130.59s-11.6,22.22-44.62,19.21-49-25.84-81.83.81c-18.94,15.39-20.82,27.84-25,40"/><polygon class="cls-2" points="118.28 100.93 55.03 101.61 40.66 71.89 103.92 71.21 118.28 100.93"/><line class="cls-1" x1="79.68" y1="87.48" x2="79.68" y2="26.63"/><polygon points="85.19 31.54 79.68 27.28 74.18 31.54 79.68 18.53 85.19 31.54"/><polygon class="cls-3" points="83.99 29.98 79.68 19.84 79.68 26.65 83.99 29.98"/><polygon class="cls-4" points="75.39 29.98 79.68 19.84 79.68 26.65 75.39 29.98"/><path d="M75,9.68c0-1,0-1.82-.08-2.62h1.56l.1,1.6h0a3.56,3.56,0,0,1,3.2-1.82c1.34,0,3.42.8,3.42,4.12v5.78H81.52V11.16c0-1.56-.58-2.86-2.24-2.86a2.5,2.5,0,0,0-2.36,1.8,2.53,2.53,0,0,0-.12.82v5.82H75Z"/><circle cx="79.66" cy="86.94" r="3.41"/><path d="M65.77,78.74c0-1.24,0-2.24-.08-3.16h1.58l.08,1.66h0a3.79,3.79,0,0,1,3.44-1.89c2.34,0,4.1,2,4.1,4.93,0,3.48-2.12,5.2-4.4,5.2a3.39,3.39,0,0,1-3-1.52h0v5.26H65.77Zm1.74,2.58a4,4,0,0,0,.08.72,2.72,2.72,0,0,0,2.64,2.06c1.86,0,2.94-1.52,2.94-3.74,0-1.94-1-3.61-2.88-3.61a2.82,2.82,0,0,0-2.66,2.19,2.85,2.85,0,0,0-.12.72Z"/><line class="cls-1" x1="79.51" y1="87.06" x2="108.84" y2="119.17"/><polygon points="101.46 119.25 108.4 118.69 109.59 111.83 114.3 125.15 101.46 119.25"/><polygon class="cls-3" points="103.4 119.59 113.42 124.18 108.82 119.15 103.4 119.59"/><polygon class="cls-4" points="109.75 113.79 113.42 124.18 108.82 119.15 109.75 113.79"/><line class="cls-1" x1="122.47" y1="90.99" x2="79.51" y2="86.86"/><polygon points="118.11 85.05 121.82 90.93 117.05 96 130.53 91.77 118.11 85.05"/><polygon class="cls-3" points="119.54 86.39 129.23 91.64 122.45 90.99 119.54 86.39"/><polygon class="cls-4" points="118.72 94.95 129.23 91.64 122.45 90.99 118.72 94.95"/></svg>