<svg id="Layer_1" data-name="Layer 1" xmlns="http://www.w3.org/2000/svg" viewBox="0 0 377.16 249.58"><defs><style>.cls-1,.cls-4{fill:none;stroke:#000;stroke-miterlimit:10;}.cls-2{fill:#a6a6a6;}.cls-3{fill:#666;}.cls-4{stroke-dasharray:4;}</style></defs><title>Parallelogram area</title><line class="cls-1" x1="251.99" y1="225.56" x2="356.48" y2="35.3"/><polygon points="358.94 42.25 356.16 35.87 349.29 36.95 360.38 28.2 358.94 42.25"/><polygon class="cls-2" points="358.63 40.31 359.75 29.35 356.47 35.31 358.63 40.31"/><polygon class="cls-3" points="351.1 36.17 359.75 29.35 356.47 35.31 351.1 36.17"/><line class="cls-1" x1="0.43" y1="225.08" x2="243.88" y2="225.54"/><polygon points="238.96 231.04 243.23 225.54 238.98 220.03 251.99 225.56 238.96 231.04"/><polygon class="cls-2" points="240.52 229.84 250.67 225.56 243.86 225.54 240.52 229.84"/><polygon class="cls-3" points="240.54 221.24 250.67 225.56 243.86 225.54 240.54 221.24"/><line class="cls-1" x1="0.44" y1="225.49" x2="104.93" y2="35.23"/><polygon points="107.39 42.18 104.62 35.8 97.74 36.88 108.83 28.13 107.39 42.18"/><polygon class="cls-2" points="107.09 40.24 108.2 29.28 104.92 35.25 107.09 40.24"/><polygon class="cls-3" points="99.55 36.1 108.2 29.28 104.92 35.25 99.55 36.1"/><line class="cls-1" x1="108.98" y1="27.93" x2="352.43" y2="28.39"/><polygon points="347.51 33.89 351.78 28.39 347.53 22.88 360.53 28.41 347.51 33.89"/><polygon class="cls-2" points="349.07 32.69 359.22 28.41 352.41 28.39 349.07 32.69"/><polygon class="cls-3" points="349.09 24.09 359.22 28.41 352.41 28.39 349.09 24.09"/><line class="cls-4" x1="108.82" y1="27.48" x2="108.82" y2="224.84"/><path d="M117.53,109h2.11v7.24h0a3.84,3.84,0,0,1,1.51-1.48,4.34,4.34,0,0,1,2.16-.6c1.56,0,4,1,4,5V126H125.3v-6.68c0-1.87-.69-3.45-2.69-3.45a3,3,0,0,0-2.83,2.11,2.57,2.57,0,0,0-.14,1v7h-2.11Z"/><path d="M229.61,231l2.28,6.53a27.92,27.92,0,0,1,.94,3h.07c.26-1,.6-1.92,1-3l2.25-6.53h2.21l-4.56,11.61h-2L227.36,231Z"/><path d="M241.16,247.11v-7.89h0l-1.73.84-.26-1.25,2.25-1.06h1.47v9.36Z"/><path d="M330.12,7l2.28,6.53c.38,1.06.69,2,.93,3h.07c.27-1,.61-1.92,1-3L336.65,7h2.2l-4.56,11.62h-2L327.86,7Z"/><path d="M341.66,23.18v-7.9h-.05l-1.73.84-.26-1.25,2.26-1h1.46v9.36Z"/><path d="M77.6,31.73l2.28,6.53a28.64,28.64,0,0,1,.93,3h.08c.26-1,.6-1.92,1-3l2.26-6.53h2.21L81.77,43.35h-2L75.34,31.73Z"/><path d="M86.86,47l1.51-1.42c2-1.8,3-2.93,3-4.15a1.63,1.63,0,0,0-1.83-1.68,3.67,3.67,0,0,0-2,.74l-.5-1.08a4.63,4.63,0,0,1,2.92-1c2.26,0,3.2,1.41,3.2,2.71,0,1.8-1.37,3.12-3.2,4.73l-.74.67v.05h4.1v1.32H86.86Z"/><path d="M359.76,45.6,362,52.13c.38,1.06.69,2,.93,3h.08c.26-1,.6-1.92,1-3l2.26-6.53h2.2l-4.56,11.62h-2L357.5,45.6Z"/><path d="M369,60.86l1.51-1.41c2-1.8,3-2.93,3-4.16a1.63,1.63,0,0,0-1.83-1.68,3.57,3.57,0,0,0-2,.75l-.51-1.08a4.68,4.68,0,0,1,2.93-1c2.26,0,3.19,1.42,3.19,2.71,0,1.8-1.36,3.12-3.19,4.73l-.74.67v0h4.1v1.32H369Z"/></svg>