<svg id="Layer_1" data-name="Layer 1" xmlns="http://www.w3.org/2000/svg" viewBox="0 0 200.08 227.47"><defs><style>.cls-1,.cls-4{fill:none;stroke:#000;stroke-miterlimit:10;}.cls-2{fill:#a6a6a6;}.cls-3{fill:#666;}.cls-4{stroke-dasharray:4;}</style></defs><title>Point translation 2d</title><polyline class="cls-1" points="5.5 67.27 5.5 221.31 160.1 221.31"/><polygon points="0 72.18 5.5 67.92 11.01 72.18 5.5 59.17 0 72.18"/><polygon class="cls-2" points="1.2 70.63 5.5 60.48 5.5 67.29 1.2 70.63"/><polygon class="cls-3" points="9.8 70.63 5.5 60.48 5.5 67.29 9.8 70.63"/><polygon points="155.19 226.81 159.45 221.31 155.19 215.8 168.21 221.31 155.19 226.81"/><polygon class="cls-2" points="156.75 225.61 166.89 221.31 160.08 221.31 156.75 225.61"/><polygon class="cls-3" points="156.75 217.01 166.89 221.31 160.08 221.31 156.75 217.01"/><path d="M173.79,214.78l1.38,2.08c.36.54.66,1,1,1.58h.06c.32-.58.64-1.08,1-1.6l1.36-2.06h1.9l-3.3,4.69,3.4,5h-2l-1.42-2.18c-.38-.56-.7-1.1-1-1.69h0c-.32.59-.66,1.11-1,1.69l-1.4,2.18h-1.94l3.44-4.95-3.28-4.74Z"/><path d="M5.47,43.82l2.12,5.72c.22.64.46,1.4.62,2h0c.18-.58.38-1.32.62-2l1.92-5.68h1.86L10,50.72c-1.26,3.32-2.12,5-3.32,6.07a4.77,4.77,0,0,1-2.16,1.14l-.44-1.48a4.66,4.66,0,0,0,1.54-.86,5.38,5.38,0,0,0,1.48-2,1.26,1.26,0,0,0,.14-.42,1.53,1.53,0,0,0-.12-.46L3.55,43.82Z"/><circle cx="78.21" cy="148.46" r="6.22"/><polyline class="cls-4" points="78.21 148.46 166.54 148.46 166.54 13.04"/><circle cx="166.84" cy="15.17" r="6.22"/><path d="M73.32,163.72c0-1.48,0-2.68-.09-3.79h1.9l.09,2h0a4.57,4.57,0,0,1,4.13-2.25c2.81,0,4.92,2.37,4.92,5.9,0,4.18-2.55,6.24-5.28,6.24A4.08,4.08,0,0,1,75.46,170h0v6.31H73.32Zm2.09,3.1a4.51,4.51,0,0,0,.1.86,3.26,3.26,0,0,0,3.17,2.48c2.23,0,3.53-1.83,3.53-4.49,0-2.33-1.23-4.32-3.46-4.32A3.37,3.37,0,0,0,75.56,164a3.17,3.17,0,0,0-.15.87Z"/><path d="M180.1,12.26c0-1.48,0-2.68-.09-3.79h1.89l.1,2h.05a4.56,4.56,0,0,1,4.12-2.25c2.81,0,4.92,2.37,4.92,5.9,0,4.18-2.54,6.24-5.28,6.24a4.06,4.06,0,0,1-3.57-1.82h-.05v6.31H180.1Zm2.09,3.1a4.51,4.51,0,0,0,.1.86,3.25,3.25,0,0,0,3.16,2.48c2.24,0,3.53-1.83,3.53-4.49,0-2.33-1.22-4.32-3.45-4.32a3.38,3.38,0,0,0-3.2,2.61,3.59,3.59,0,0,0-.14.87Z"/><path d="M195.63,3.65a27.07,27.07,0,0,1-2.26,5.68L192,9.5a34.17,34.17,0,0,0,1.42-5.64Z"/><path d="M174.5,92.36l5.64-15h2.37l5.57,15v1.2H174.5Zm11.25-.58-3.28-8.9c-.41-1.13-.92-2.57-1.2-3.6h-.08c-.24.81-.67,2.16-1.08,3.29l-3.38,9.21Z"/><path d="M191.3,81.92l2.54,6.86c.26.77.55,1.68.75,2.38h0c.22-.7.46-1.59.75-2.43l2.3-6.81h2.23l-3.16,8.28c-1.52,4-2.55,6-4,7.27a5.77,5.77,0,0,1-2.59,1.37l-.53-1.78a5.62,5.62,0,0,0,1.85-1,6.5,6.5,0,0,0,1.78-2.35,1.66,1.66,0,0,0,.16-.51,1.71,1.71,0,0,0-.14-.55L189,81.92Z"/><path d="M111.92,170.37l5.64-15h2.38l5.57,15v1.2H111.92Zm11.26-.57-3.29-8.91c-.41-1.13-.91-2.57-1.2-3.6h-.07c-.24.82-.67,2.16-1.08,3.29l-3.39,9.22Z"/><path d="M128.94,159.93l1.65,2.5c.43.65.8,1.25,1.18,1.89h.07c.39-.69.77-1.29,1.15-1.92l1.64-2.47h2.28l-4,5.62,4.09,6h-2.4l-1.71-2.62c-.45-.67-.84-1.32-1.25-2h0c-.39.69-.8,1.32-1.23,2l-1.68,2.62h-2.33l4.13-5.93-3.94-5.69Z"/></svg>