<svg id="Layer_1" data-name="Layer 1" xmlns="http://www.w3.org/2000/svg" viewBox="0 0 286.46 291.63"><defs><style>.cls-1{fill:none;stroke:#000;stroke-miterlimit:10;}.cls-2{fill:#a6a6a6;}.cls-3{fill:#666;}</style></defs><title>Quaternion rotation</title><circle class="cls-1" cx="132.39" cy="159.24" r="131.89"/><line class="cls-1" x1="131.93" y1="159.33" x2="131.93" y2="36.02"/><polygon points="137.44 40.93 131.93 36.67 126.43 40.93 131.93 27.92 137.44 40.93"/><polygon class="cls-2" points="136.23 39.37 131.93 29.23 131.93 36.04 136.23 39.37"/><polygon class="cls-3" points="127.64 39.37 131.93 29.23 131.93 36.04 127.64 39.37"/><line class="cls-1" x1="131.59" y1="158.98" x2="255.41" y2="158.98"/><polygon points="250.5 164.49 254.76 158.98 250.5 153.48 263.52 158.98 250.5 164.49"/><polygon class="cls-2" points="252.06 163.28 262.2 158.98 255.39 158.98 252.06 163.28"/><polygon class="cls-3" points="252.06 154.69 262.2 158.98 255.39 158.98 252.06 154.69"/><path d="M130.17,8.47,132.45,15a28.8,28.8,0,0,1,.94,3h.07c.26-1,.6-1.92,1-3l2.26-6.53h2.21l-4.56,11.62h-2L127.92,8.47Z"/><path d="M271.62,153l2.28,6.53a27.92,27.92,0,0,1,.94,3h.07c.27-1,.6-1.92,1-3l2.25-6.53h2.21l-4.56,11.62h-2L269.37,153Z"/><path d="M281.15,163.53c0-3,1.37-4.82,3.53-4.82s3.43,1.82,3.43,4.72-1.17,4.88-3.53,4.88C282.47,168.31,281.15,166.51,281.15,163.53Zm5.28-.07c0-2.24-.6-3.53-1.8-3.53s-1.8,1.29-1.8,3.53.7,3.62,1.78,3.62S286.43,165.74,286.43,163.46Z"/><line class="cls-1" x1="132.36" y1="159.02" x2="194.29" y2="52.23"/><polygon points="196.59 59.24 193.96 52.8 187.07 53.72 198.36 45.22 196.59 59.24"/><polygon class="cls-2" points="196.33 57.29 197.7 46.36 194.28 52.25 196.33 57.29"/><polygon class="cls-3" points="188.89 52.98 197.7 46.36 194.28 52.25 188.89 52.98"/><line class="cls-1" x1="131.88" y1="158.91" x2="237.33" y2="94"/><polygon points="236.04 101.27 236.78 94.35 230.27 91.89 244.23 89.76 236.04 101.27"/><polygon class="cls-2" points="236.73 99.42 243.12 90.44 237.32 94.02 236.73 99.42"/><polygon class="cls-3" points="232.23 92.1 243.12 90.44 237.32 94.02 232.23 92.1"/><path d="M253.45,80.15l2.28,6.53a30.25,30.25,0,0,1,.93,3h.07c.27-1,.6-1.92,1-3L260,80.15h2.21l-4.56,11.62h-2l-4.42-11.62Z"/><path d="M267.56,75.33A27.63,27.63,0,0,1,265.3,81l-1.34.17a34.18,34.18,0,0,0,1.41-5.64Z"/><path class="cls-1" d="M163.74,139.31A37.21,37.21,0,0,1,169.33,159"/><path d="M190.15,90.73c0-4.89,2-8.64,5.61-8.64s5.4,3.48,5.4,8.64c0,5.4-1.75,8.93-5.47,8.93C192.26,99.66,190.15,96.66,190.15,90.73Zm8.93-.91c0-3.41-1.11-6.17-3.44-6.17-2.13,0-3.4,2.91-3.4,6.17Zm-6.84,1.59c0,4.27,1.44,6.69,3.5,6.69,2.26,0,3.34-2.78,3.34-6.69Z"/><path d="M175.35,145.83c0-4.9,2-8.64,5.61-8.64s5.4,3.48,5.4,8.64c0,5.4-1.75,8.93-5.47,8.93C177.46,154.76,175.35,151.76,175.35,145.83Zm8.92-.91c0-3.41-1.1-6.17-3.43-6.17-2.13,0-3.41,2.91-3.41,6.17Zm-6.84,1.58c0,4.28,1.44,6.7,3.51,6.7,2.25,0,3.33-2.78,3.33-6.7Z"/><path d="M191.67,138.05a28.08,28.08,0,0,1-2.26,5.69l-1.34.17a34.18,34.18,0,0,0,1.41-5.64Z"/><line class="cls-1" x1="138.98" y1="17.44" x2="138.98" y2="23.24"/><line class="cls-1" x1="135.47" y1="23.15" x2="142.48" y2="23.15"/><path class="cls-1" d="M173.23,88.29a81.57,81.57,0,0,1,39.83,70.12"/><path d="M200.1,29l2.28,6.53a27.77,27.77,0,0,1,.93,3h.08c.26-1,.6-1.92,1-3L206.63,29h2.21l-4.57,11.62h-2L197.84,29Z"/><path d="M211.64,44.16V36.27h0l-1.72.84-.27-1.25,2.26-1.06h1.46v9.36Z"/></svg>