<svg id="Layer_1" data-name="Layer 1" xmlns="http://www.w3.org/2000/svg" viewBox="0 0 264.86 357.67"><defs><style>.cls-1,.cls-2{fill:none;stroke:#000;stroke-miterlimit:10;}.cls-2{stroke-dasharray:4 4;}.cls-3{fill:#a6a6a6;}.cls-4{fill:#666;}</style></defs><title>Rotate arbitrary axis</title><ellipse class="cls-1" cx="132.43" cy="176.59" rx="131.89" ry="45.85"/><line class="cls-2" x1="132.03" y1="176.67" x2="93.79" y2="139.29"/><polygon points="101.15 138.79 94.25 139.75 93.45 146.66 87.99 133.63 101.15 138.79"/><polygon class="cls-3" points="99.19 138.56 88.93 134.55 93.8 139.31 99.19 138.56"/><polygon class="cls-4" points="93.18 144.71 88.93 134.55 93.8 139.31 93.18 144.71"/><line class="cls-2" x1="131.58" y1="176.6" x2="247.84" y2="162.22"/><polygon points="243.65 168.29 247.2 162.3 242.29 157.36 255.89 161.23 243.65 168.29"/><polygon class="cls-3" points="245.04 166.9 254.58 161.39 247.82 162.23 245.04 166.9"/><polygon class="cls-4" points="243.99 158.37 254.58 161.39 247.82 162.23 243.99 158.37"/><line class="cls-1" x1="132.32" y1="176.52" x2="37.73" y2="150.07"/><polygon points="43.94 146.09 38.35 150.25 40.98 156.69 29.92 147.89 43.94 146.09"/><polygon class="cls-3" points="42.12 146.83 31.19 148.24 37.75 150.08 42.12 146.83"/><polygon class="cls-4" points="39.8 155.11 31.19 148.24 37.75 150.08 39.8 155.11"/><line class="cls-1" x1="131.83" y1="176.54" x2="207.08" y2="144.02"/><polygon points="204.76 151.02 206.49 144.28 200.39 140.91 214.52 140.8 204.76 151.02"/><polygon class="cls-3" points="205.71 149.29 213.32 141.32 207.07 144.03 205.71 149.29"/><polygon class="cls-4" points="202.3 141.4 213.32 141.32 207.07 144.03 202.3 141.4"/><path class="cls-1" d="M155.29,166.41c5.25,1.46,9.44,3.43,11.85,5.79"/><path class="cls-1" d="M103,168.32a62,62,0,0,1,16.4-4"/><line class="cls-1" x1="135.06" y1="357.66" x2="128.41" y2="31.8"/><polygon points="134.01 36.6 128.43 32.45 123.01 36.82 128.25 23.7 134.01 36.6"/><polygon class="cls-3" points="132.78 35.07 128.27 25.01 128.41 31.82 132.78 35.07"/><polygon class="cls-4" points="124.18 35.24 128.27 25.01 128.41 31.82 124.18 35.24"/><path d="M167.65,136.36l2.28,6.52c.38,1.06.7,2,.94,3h.07c.26-1,.6-1.92,1-3l2.26-6.52h2.21L171.83,148h-2l-4.42-11.61Z"/><path d="M179.19,151.5v-7.9h0l-1.73.84-.27-1.24,2.26-1.06h1.46v9.36Z"/><path d="M164.48,178l2.28,6.52c.38,1.06.7,2,.94,3h.07c.26-1,.6-1.92,1-3L171,178h2.21l-4.56,11.61h-2L162.22,178Z"/><path d="M178.59,173.17a27.78,27.78,0,0,1-2.25,5.69L175,179a34.42,34.42,0,0,0,1.42-5.64Z"/><path d="M177,193.14v-7.9h0l-1.72.84-.27-1.24,2.26-1.06h1.46v9.36Z"/><path d="M106.72,138.06l2.28,6.53a30.42,30.42,0,0,1,.94,3H110c.26-1,.6-1.92,1-3l2.26-6.53h2.21l-4.56,11.62h-2l-4.42-11.62Z"/><path d="M120.83,133.24a27.07,27.07,0,0,1-2.26,5.68l-1.34.17a34.17,34.17,0,0,0,1.42-5.64Z"/><path d="M116.94,152.32l1.51-1.42c2-1.8,3-2.93,3-4.15a1.63,1.63,0,0,0-1.83-1.68,3.64,3.64,0,0,0-2,.74l-.51-1.08a4.68,4.68,0,0,1,2.93-1c2.26,0,3.19,1.42,3.19,2.72,0,1.8-1.36,3.12-3.19,4.73l-.74.67v0h4.1v1.33h-6.48Z"/><path d="M36.73,159.36,39,165.89a28.8,28.8,0,0,1,.94,3H40c.26-1,.6-1.92,1-3l2.25-6.53h2.21L40.91,171h-2l-4.41-11.62Z"/><path d="M46,173.62l1.51-1.42c2-1.8,3-2.92,3-4.15a1.63,1.63,0,0,0-1.82-1.68,3.64,3.64,0,0,0-2,.75l-.5-1.08a4.62,4.62,0,0,1,2.93-1c2.25,0,3.19,1.41,3.19,2.71,0,1.8-1.37,3.12-3.19,4.73l-.75.67v.05h4.11v1.32H46Z"/><path d="M130.32,20.09l-.17-1.47h-.07a4.32,4.32,0,0,1-3.56,1.73A3.3,3.3,0,0,1,123,17c0-2.81,2.5-4.35,7-4.32v-.24a2.4,2.4,0,0,0-2.64-2.69,5.8,5.8,0,0,0-3,.86l-.48-1.39a7.24,7.24,0,0,1,3.82-1c3.55,0,4.41,2.42,4.41,4.75V17.3a15.75,15.75,0,0,0,.2,2.79ZM130,14.16c-2.3-.05-4.92.36-4.92,2.62a1.87,1.87,0,0,0,2,2,2.88,2.88,0,0,0,2.8-1.94,2,2,0,0,0,.12-.67Z"/><line class="cls-1" x1="135.02" y1="357.27" x2="251.17" y2="168.75"/><polygon points="253.28 175.82 250.83 169.3 243.91 170.04 255.42 161.85 253.28 175.82"/><polygon class="cls-3" points="253.07 173.86 254.73 162.97 251.16 168.77 253.07 173.86"/><polygon class="cls-4" points="245.75 169.35 254.73 162.97 251.16 168.77 245.75 169.35"/><path d="M225.45,224.83l2.28,6.52a28.8,28.8,0,0,1,.94,3h.07c.27-1,.6-1.92,1-3l2.25-6.52h2.21l-4.56,11.61h-2l-4.41-11.61Z"/><path d="M184.5,161.64c0-3.31,1.35-5.85,3.8-5.85s3.66,2.36,3.66,5.85c0,3.66-1.19,6.05-3.71,6.05C185.93,167.69,184.5,165.66,184.5,161.64Zm6.05-.61c0-2.31-.75-4.18-2.33-4.18s-2.31,2-2.31,4.18Zm-4.64,1.07c0,2.89,1,4.54,2.38,4.54s2.26-1.89,2.26-4.54Z"/><path d="M96.32,157.43c0-3.32,1.35-5.86,3.8-5.86s3.66,2.36,3.66,5.86c0,3.66-1.19,6-3.71,6C97.75,163.48,96.32,161.44,96.32,157.43Zm6.05-.62c0-2.31-.75-4.18-2.33-4.18s-2.31,2-2.31,4.18Zm-4.64,1.07c0,2.9,1,4.54,2.38,4.54s2.26-1.89,2.26-4.54Z"/><line class="cls-1" x1="210.95" y1="148.3" x2="135.08" y2="356.1"/><polygon points="204.09 151.03 210.72 148.91 214.43 154.8 213.73 140.69 204.09 151.03"/><polygon class="cls-3" points="205.76 149.97 213.28 141.92 210.94 148.32 205.76 149.97"/><polygon class="cls-4" points="213.83 152.92 213.28 141.92 210.94 148.32 213.83 152.92"/><path d="M163.55,234.3l2.28,6.53c.38,1.06.69,2,.93,3h.08c.26-1,.6-1.92,1-3l2.26-6.53h2.21l-4.57,11.62h-2l-4.42-11.62Z"/><path d="M177.66,229.48a27.41,27.41,0,0,1-2.26,5.69l-1.34.16a34.17,34.17,0,0,0,1.42-5.64Z"/><path class="cls-1" d="M134,316.36h.74a40.58,40.58,0,0,1,21.47,6.1"/><path d="M149.88,292.76c-.12,1.22-.31,5.21-.31,8.3,0,1.37.33,1.95,1.15,2l-.17,1.51a2.12,2.12,0,0,1-.72.1c-1,0-1.87-.67-2-2.45h-.07a4.47,4.47,0,0,1-4,2.45c-2.76,0-4.76-2.31-4.76-5.83,0-3.8,2.5-6.32,5.19-6.32a3.7,3.7,0,0,1,3.57,2.33h.1a16.44,16.44,0,0,1,.22-2.06ZM144.33,303c1.47,0,2.74-1.42,3.1-2.95a7,7,0,0,0,.14-1.64,5.67,5.67,0,0,0-.09-1.25,3.35,3.35,0,0,0-3-3c-2,0-3.31,1.94-3.31,4.58C141.19,300.94,142.32,303,144.33,303Z"/></svg>