<svg id="Layer_1" data-name="Layer 1" xmlns="http://www.w3.org/2000/svg" viewBox="0 0 343.25 118.64"><defs><style>.cls-1{fill:none;stroke:#000;stroke-miterlimit:10;}.cls-2{fill:#a6a6a6;}.cls-3{fill:#666;}</style></defs><title>Transform normal</title><circle class="cls-1" cx="59.02" cy="57.15" r="40.51"/><line class="cls-1" x1="5.81" y1="5.65" x2="29.45" y2="28.66"/><polygon points="5.49 13.02 6.27 6.11 13.16 5.13 0 0 5.49 13.02"/><polygon class="cls-2" points="5.21 11.07 0.94 0.92 5.82 5.67 5.21 11.07"/><polygon class="cls-3" points="11.21 4.91 0.94 0.92 5.82 5.67 11.21 4.91"/><path d="M55.52,103.53a10.54,10.54,0,0,0-2,6.54,10.77,10.77,0,0,0,2,6.5H54.41a10.39,10.39,0,0,1-2.09-6.5,10.56,10.56,0,0,1,2.09-6.54Z"/><path d="M61.29,114.64l-.11-1h0a2.9,2.9,0,0,1-2.37,1.15,2.2,2.2,0,0,1-2.37-2.22c0-1.88,1.66-2.9,4.65-2.88v-.16a1.6,1.6,0,0,0-1.76-1.8,3.85,3.85,0,0,0-2,.58L57,107.4a4.77,4.77,0,0,1,2.54-.69c2.37,0,3,1.62,3,3.17v2.9a10.57,10.57,0,0,0,.13,1.86Zm-.2-4c-1.54,0-3.28.24-3.28,1.75a1.24,1.24,0,0,0,1.32,1.34,1.94,1.94,0,0,0,1.88-1.3,1.7,1.7,0,0,0,.08-.44Z"/><path d="M63.87,116.57a10.78,10.78,0,0,0,2-6.54,10.61,10.61,0,0,0-2-6.5H65A10.21,10.21,0,0,1,67.05,110,10.41,10.41,0,0,1,65,116.57Z"/><ellipse class="cls-1" cx="183.52" cy="53.39" rx="40.51" ry="22.21"/><line class="cls-1" x1="131.64" y1="25.88" x2="153.94" y2="37.77"/><polygon points="133.39 33.04 132.22 26.18 138.57 23.33 124.49 22.06 133.39 33.04"/><polygon class="cls-2" points="132.58 31.25 125.65 22.68 131.66 25.88 132.58 31.25"/><polygon class="cls-3" points="136.62 23.66 125.65 22.68 131.66 25.88 136.62 23.66"/><path d="M176.46,103.53a10.54,10.54,0,0,0-2,6.54,10.77,10.77,0,0,0,2,6.5h-1.11a10.33,10.33,0,0,1-2.09-6.5,10.5,10.5,0,0,1,2.09-6.54Z"/><path d="M177.88,114.64c0-.53.06-1.32.06-2v-9.36h1.4v4.87h0a2.87,2.87,0,0,1,2.64-1.43c1.92,0,3.28,1.6,3.26,4,0,2.77-1.74,4.14-3.47,4.14a2.75,2.75,0,0,1-2.59-1.45h-.05l-.06,1.28Zm1.46-3.11a2.74,2.74,0,0,0,.06.51,2.17,2.17,0,0,0,2.11,1.65c1.48,0,2.36-1.2,2.36-3,0-1.55-.8-2.88-2.31-2.88a2.24,2.24,0,0,0-2.14,1.73,2.32,2.32,0,0,0-.08.58Z"/><path d="M186.15,116.57a10.78,10.78,0,0,0,2-6.54,10.61,10.61,0,0,0-2-6.5h1.09a10.21,10.21,0,0,1,2.1,6.51,10.41,10.41,0,0,1-2.1,6.53Z"/><line class="cls-1" x1="259.11" y1="22.85" x2="272.68" y2="44.18"/><polygon points="257.1 29.95 259.46 23.4 266.39 24.04 254.76 16.02 257.1 29.95"/><polygon class="cls-2" points="257.28 27.99 255.46 17.12 259.12 22.87 257.28 27.99"/><polygon class="cls-3" points="264.53 23.37 255.46 17.12 259.12 22.87 264.53 23.37"/><polyline class="cls-1" points="276.76 42.02 274.33 38.1 270.56 40.28"/><ellipse class="cls-1" cx="302.24" cy="59.44" rx="40.51" ry="22.21"/><path d="M299,103.53a10.54,10.54,0,0,0-2,6.54,10.77,10.77,0,0,0,2,6.5h-1.1a10.32,10.32,0,0,1-2.1-6.5,10.49,10.49,0,0,1,2.1-6.54Z"/><path d="M306,114.35a5.25,5.25,0,0,1-2.23.45,3.68,3.68,0,0,1-3.85-4,3.93,3.93,0,0,1,4.16-4.11,4.72,4.72,0,0,1,1.95.4l-.32,1.09a3.28,3.28,0,0,0-1.63-.37,2.92,2.92,0,0,0-.05,5.83,3.94,3.94,0,0,0,1.73-.39Z"/><path d="M306.82,116.57a10.85,10.85,0,0,0,2-6.54,10.61,10.61,0,0,0-2-6.5h1.09A10.21,10.21,0,0,1,310,110a10.41,10.41,0,0,1-2.09,6.53Z"/></svg>