<svg id="Layer_1" data-name="Layer 1" xmlns="http://www.w3.org/2000/svg" viewBox="0 0 340.71 77.09"><defs><style>.cls-1{fill:none;stroke:#000;stroke-miterlimit:10;}.cls-2{fill:#a6a6a6;}.cls-3{fill:#666;}</style></defs><title>Vec from points</title><circle cx="29.85" cy="59.93" r="6.22"/><circle cx="306.79" cy="24.69" r="6.22"/><line class="cls-1" x1="29.23" y1="59.52" x2="292.79" y2="26.52"/><polygon points="288.6 32.59 292.14 26.6 287.24 21.67 300.83 25.52 288.6 32.59"/><polygon class="cls-2" points="290 31.21 299.53 25.68 292.77 26.52 290 31.21"/><polygon class="cls-3" points="288.93 22.68 299.53 25.68 292.77 26.52 288.93 22.68"/><path d="M165.94,23l2.28,6.53a28.8,28.8,0,0,1,.94,3h.07c.26-1,.6-1.92,1-3L172.47,23h2.21L170.12,34.6h-2L163.69,23Z"/><path d="M1.75,63.27c0-1.49-.05-2.69-.09-3.8H3.55l.1,2H3.7a4.55,4.55,0,0,1,4.12-2.26c2.81,0,4.93,2.38,4.93,5.9,0,4.18-2.55,6.24-5.29,6.24a4.06,4.06,0,0,1-3.57-1.82H3.84v6.31H1.75Zm2.09,3.09a4.72,4.72,0,0,0,.1.87A3.25,3.25,0,0,0,7.1,69.7c2.24,0,3.53-1.82,3.53-4.49,0-2.33-1.22-4.32-3.45-4.32A3.38,3.38,0,0,0,4,63.51a3.44,3.44,0,0,0-.14.86Z"/><path d="M325.18,12.26c0-1.48-.05-2.68-.09-3.79H327l.1,2h.05a4.56,4.56,0,0,1,4.12-2.25c2.81,0,4.92,2.37,4.92,5.9,0,4.18-2.54,6.24-5.28,6.24a4.06,4.06,0,0,1-3.57-1.82h-.05v6.31h-2.09Zm2.09,3.1a4.51,4.51,0,0,0,.1.86,3.25,3.25,0,0,0,3.16,2.48c2.24,0,3.53-1.83,3.53-4.49,0-2.33-1.22-4.32-3.45-4.32a3.38,3.38,0,0,0-3.2,2.61,3.59,3.59,0,0,0-.14.87Z"/><path d="M340.71,3.65a27.41,27.41,0,0,1-2.26,5.69l-1.34.16a34.17,34.17,0,0,0,1.42-5.64Z"/></svg>