<svg id="Layer_1" data-name="Layer 1" xmlns="http://www.w3.org/2000/svg" viewBox="0 0 323.75 200.28"><defs><style>.cls-1,.cls-4{fill:none;stroke:#000;stroke-miterlimit:10;}.cls-2{fill:#a6a6a6;}.cls-3{fill:#666;}.cls-4{stroke-dasharray:4;}</style></defs><title>Vector subtraction</title><line class="cls-1" x1="0.96" y1="199.66" x2="92.97" y2="171.58"/><polygon points="89.88 178.27 92.35 171.76 86.67 167.75 100.72 169.21 89.88 178.27"/><polygon class="cls-2" points="91.02 176.67 99.47 169.59 92.95 171.58 91.02 176.67"/><polygon class="cls-3" points="88.51 168.44 99.47 169.59 92.95 171.58 88.51 168.44"/><line class="cls-4" x1="99.81" y1="168.74" x2="41.06" y2="48.6"/><line class="cls-1" x1="0.48" y1="200.14" x2="39.83" y2="56.64"/><polygon points="43.84 62.83 39.65 57.27 33.22 59.92 41.97 48.83 43.84 62.83"/><polygon class="cls-2" points="43.09 61.01 41.62 50.09 39.82 56.66 43.09 61.01"/><polygon class="cls-3" points="34.8 58.74 41.62 50.09 39.82 56.66 34.8 58.74"/><path d="M79,180.32l2.28,6.53a30.25,30.25,0,0,1,.93,3h.07c.27-1,.6-1.92,1-3l2.25-6.53h2.21l-4.56,11.61h-2l-4.42-11.61Z"/><path d="M17.86,63.48l1.53,5.9c.34,1.3.65,2.5.87,3.7h.07c.26-1.18.65-2.43,1-3.68l1.9-5.92H25l1.8,5.8c.43,1.4.77,2.62,1,3.8h.07a33.09,33.09,0,0,1,.89-3.77l1.65-5.83h2.09L28.83,75.09H26.9l-1.77-5.54a36.33,36.33,0,0,1-1-3.82h-.05A34.61,34.61,0,0,1,23,69.57l-1.87,5.52H19.2L15.7,63.48Z"/><path d="M77.05,92.47l1.54,5.91c.33,1.29.64,2.49.86,3.69h.07c.27-1.17.65-2.42,1-3.67l1.9-5.93h1.78L86,98.28c.43,1.39.77,2.62,1,3.79h.07A33.59,33.59,0,0,1,88,98.3l1.66-5.83h2.08L88,104.09H86.1l-1.78-5.55c-.4-1.29-.74-2.44-1-3.81h-.05a34.62,34.62,0,0,1-1,3.84l-1.88,5.52H78.39l-3.5-11.62Z"/><path d="M98.67,96.82v1.56H92.75V96.82Z"/><path d="M101.84,92.47,104.12,99a28.8,28.8,0,0,1,.94,3h.07c.26-1,.6-1.92,1-3l2.25-6.53h2.21L106,104.09h-2L99.59,92.47Z"/><line class="cls-1" x1="165.37" y1="199.66" x2="257.38" y2="171.58"/><polygon points="254.29 178.27 256.75 171.76 251.07 167.75 265.13 169.21 254.29 178.27"/><polygon class="cls-2" points="255.43 176.67 263.87 169.59 257.36 171.58 255.43 176.67"/><polygon class="cls-3" points="252.92 168.44 263.87 169.59 257.36 171.58 252.92 168.44"/><line class="cls-4" x1="264.22" y1="168.74" x2="205.46" y2="48.6"/><line class="cls-1" x1="164.89" y1="200.14" x2="204.23" y2="56.64"/><polygon points="208.24 62.83 204.06 57.27 197.63 59.92 206.37 48.83 208.24 62.83"/><polygon class="cls-2" points="207.49 61.01 206.03 50.09 204.23 56.66 207.49 61.01"/><polygon class="cls-3" points="199.2 58.74 206.03 50.09 204.23 56.66 199.2 58.74"/><path d="M243.4,180.32l2.28,6.53a30.42,30.42,0,0,1,.94,3h.07c.26-1,.6-1.92,1-3l2.26-6.53h2.21l-4.56,11.61h-2l-4.42-11.61Z"/><path d="M182.26,63.48l1.54,5.9c.33,1.3.65,2.5.86,3.7h.07c.27-1.18.65-2.43,1-3.68l1.89-5.92h1.78l1.8,5.8c.43,1.4.77,2.62,1,3.8h.07a35.36,35.36,0,0,1,.89-3.77l1.66-5.83H197l-3.74,11.61h-1.92l-1.78-5.54c-.4-1.3-.74-2.45-1-3.82h-.05a32.56,32.56,0,0,1-1,3.84l-1.87,5.52h-1.92L180.1,63.48Z"/><path d="M241.46,92.47,243,98.38c.34,1.29.65,2.49.87,3.69h.07c.26-1.17.65-2.42,1-3.67l1.9-5.93h1.77l1.8,5.81c.43,1.39.77,2.62,1,3.79h.08a35,35,0,0,1,.88-3.76l1.66-5.84h2.09l-3.75,11.62H250.5l-1.77-5.54a36.33,36.33,0,0,1-1-3.82h0a34.61,34.61,0,0,1-1.06,3.84l-1.87,5.52H242.8l-3.5-11.62Z"/><path d="M263.08,96.82v1.56h-5.93V96.82Z"/><path d="M266.25,92.47,268.53,99c.38,1.06.69,2,.93,3h.08c.26-1,.6-1.92,1-3l2.26-6.53H275l-4.56,11.62h-2L264,92.47Z"/><line class="cls-1" x1="206.49" y1="49.33" x2="298.5" y2="21.24"/><polygon points="295.41 27.94 297.88 21.43 292.19 17.41 306.25 18.88 295.41 27.94"/><polygon class="cls-2" points="296.55 26.34 304.99 19.26 298.48 21.25 296.55 26.34"/><polygon class="cls-3" points="294.04 18.11 304.99 19.26 298.48 21.25 294.04 18.11"/><path d="M281.86,8.47,284.14,15a28.8,28.8,0,0,1,.94,3h.07c.27-1,.6-1.92,1-3l2.25-6.53h2.21L286,20.09h-2L279.61,8.47Z"/><line class="cls-1" x1="264.4" y1="169.78" x2="303.74" y2="26.27"/><polygon points="307.75 32.46 303.57 26.9 297.13 29.55 305.88 18.46 307.75 32.46"/><polygon class="cls-2" points="307 30.64 305.54 19.72 303.74 26.29 307 30.64"/><polygon class="cls-3" points="298.71 28.37 305.54 19.72 303.74 26.29 298.71 28.37"/><path d="M308.68,35.56l1.53,5.91c.34,1.29.65,2.49.87,3.69h.07c.26-1.17.65-2.42,1-3.67l1.9-5.93h1.77l1.8,5.81c.44,1.39.77,2.62,1,3.79h.07a33.59,33.59,0,0,1,.89-3.77l1.65-5.83h2.09l-3.74,11.62h-1.93L316,41.63a38,38,0,0,1-1-3.81h-.05a34.61,34.61,0,0,1-1.06,3.84l-1.87,5.52H310l-3.5-11.62Z"/></svg>