<svg id="Layer_1" data-name="Layer 1" xmlns="http://www.w3.org/2000/svg" viewBox="0 0 357.38 201.64"><defs><style>.cls-1,.cls-4{fill:none;stroke:#000;stroke-miterlimit:10;}.cls-2{fill:#a6a6a6;}.cls-3{fill:#666;}.cls-4{stroke-dasharray:4;}</style></defs><title>Vector addition</title><line class="cls-1" x1="0.39" y1="201.16" x2="92.4" y2="173.07"/><polygon points="89.32 179.77 91.78 173.26 86.1 169.24 100.16 170.71 89.32 179.77"/><polygon class="cls-2" points="90.45 178.16 98.9 171.09 92.39 173.08 90.45 178.16"/><polygon class="cls-3" points="87.94 169.94 98.9 171.09 92.39 173.08 87.94 169.94"/><line class="cls-4" x1="141.64" y1="19.39" x2="0.39" y2="201.16"/><line class="cls-1" x1="100.16" y1="170.71" x2="139.5" y2="27.2"/><polygon points="143.51 33.39 139.33 27.83 132.89 30.48 141.64 19.39 143.51 33.39"/><polygon class="cls-2" points="142.76 31.57 141.29 20.65 139.49 27.22 142.76 31.57"/><polygon class="cls-3" points="134.47 29.3 141.29 20.65 139.49 27.22 134.47 29.3"/><path d="M78.43,181.81l2.28,6.53c.38,1.06.69,2,.93,3h.08c.26-1,.6-1.92,1-3L85,181.81h2.2L82.6,193.43h-2l-4.42-11.62Z"/><path d="M146.07,35.24l1.53,5.9c.34,1.3.65,2.5.87,3.7h.07c.26-1.18.65-2.43,1-3.68l1.9-5.92h1.77L155,41c.43,1.4.77,2.62,1,3.8h.08a35.18,35.18,0,0,1,.88-3.77l1.66-5.83h2.09L157,46.85h-1.92l-1.77-5.54a36.33,36.33,0,0,1-1-3.82h-.05a34.61,34.61,0,0,1-1.06,3.84l-1.87,5.52h-1.92l-3.5-11.61Z"/><path d="M47.2,75.74l2.28,6.53a28.8,28.8,0,0,1,.94,3h.07c.26-1,.6-1.92,1-3l2.25-6.53h2.21L51.38,87.36h-2L45,75.74Z"/><path d="M64.1,74.59v5.64h5.42v1.44H64.1v5.69H62.56V81.67H57.14V80.23h5.42V74.59Z"/><path d="M73.07,75.74l1.54,5.91c.34,1.29.65,2.49.86,3.69h.08c.26-1.17.65-2.42,1-3.67l1.9-5.93h1.77l1.8,5.81c.43,1.39.77,2.62,1,3.79h.08A35,35,0,0,1,84,81.58l1.66-5.84h2.09L84,87.36H82.12l-1.77-5.54a36.33,36.33,0,0,1-1-3.82h0a34.61,34.61,0,0,1-1.06,3.84l-1.87,5.52H74.42L70.91,75.74Z"/><line class="cls-1" x1="196.34" y1="201.16" x2="288.35" y2="173.07"/><polygon points="285.26 179.77 287.73 173.26 282.05 169.24 296.1 170.71 285.26 179.77"/><polygon class="cls-2" points="286.4 178.16 294.85 171.09 288.33 173.08 286.4 178.16"/><polygon class="cls-3" points="283.89 169.94 294.85 171.09 288.33 173.08 283.89 169.94"/><line class="cls-4" x1="337.59" y1="19.39" x2="196.34" y2="201.16"/><line class="cls-1" x1="296.1" y1="170.71" x2="335.44" y2="27.2"/><polygon points="339.45 33.39 335.27 27.83 328.84 30.48 337.59 19.39 339.45 33.39"/><polygon class="cls-2" points="338.71 31.57 337.24 20.65 335.44 27.22 338.71 31.57"/><polygon class="cls-3" points="330.42 29.3 337.24 20.65 335.44 27.22 330.42 29.3"/><path d="M275.84,182.7l2.28,6.52a28.8,28.8,0,0,1,.94,3h.07c.27-1,.6-1.92,1-3l2.25-6.52h2.21L280,194.31h-2l-4.41-11.61Z"/><path d="M342.31,36.71l1.53,5.9c.34,1.3.65,2.5.87,3.7h.07c.26-1.18.65-2.43,1-3.67l1.9-5.93h1.77l1.8,5.81c.43,1.39.77,2.61,1,3.79h.07a33.09,33.09,0,0,1,.89-3.77l1.65-5.83H357l-3.74,11.61h-1.93l-1.77-5.54a36.33,36.33,0,0,1-1-3.82h-.05a33.44,33.44,0,0,1-1.06,3.84l-1.87,5.52h-1.92l-3.5-11.61Z"/><path d="M242.85,78.1l2.28,6.53a27.92,27.92,0,0,1,.94,3h.07c.27-1,.6-1.92,1-3l2.25-6.53h2.21L247,89.71h-2L240.6,78.1Z"/><path d="M259.75,77v5.64h5.42V84h-5.42v5.68h-1.54V84h-5.42V82.59h5.42V77Z"/><path d="M268.73,78.1l1.53,5.9c.34,1.3.65,2.5.87,3.7h.07c.26-1.18.65-2.43,1-3.67l1.9-5.93h1.77l1.8,5.81c.43,1.39.77,2.61,1,3.79h.07a33.09,33.09,0,0,1,.89-3.77l1.65-5.83h2.09L279.7,89.71h-1.93L276,84.17a36.33,36.33,0,0,1-1-3.82h-.05a33.44,33.44,0,0,1-1.06,3.84L272,89.71h-1.92l-3.5-11.61Z"/><line class="cls-1" x1="237.7" y1="49.98" x2="329.71" y2="21.89"/><polygon points="326.62 28.59 329.08 22.09 323.4 18.06 337.46 19.53 326.62 28.59"/><polygon class="cls-2" points="327.76 26.99 336.2 19.91 329.69 21.9 327.76 26.99"/><polygon class="cls-3" points="325.25 18.76 336.2 19.91 329.69 21.9 325.25 18.76"/><path d="M313.94,8.47,316.22,15a28.8,28.8,0,0,1,.94,3h.07c.27-1,.6-1.92,1-3l2.25-6.53h2.21l-4.56,11.62h-2L311.69,8.47Z"/><line class="cls-1" x1="196.13" y1="201.48" x2="235.47" y2="57.98"/><polygon points="239.48 64.17 235.3 58.6 228.87 61.26 237.62 50.16 239.48 64.17"/><polygon class="cls-2" points="238.74 62.35 237.27 51.43 235.47 58 238.74 62.35"/><polygon class="cls-3" points="230.44 60.07 237.27 51.43 235.47 58 230.44 60.07"/><path d="M212.77,62.47l1.54,5.9c.34,1.3.65,2.5.86,3.7h.08c.26-1.18.65-2.43,1-3.67l1.9-5.93H220l1.8,5.81c.43,1.39.77,2.61,1,3.79h.08a35.18,35.18,0,0,1,.88-3.77l1.66-5.83h2.09l-3.75,11.61h-1.92l-1.77-5.54a36.33,36.33,0,0,1-1-3.82H219a33.44,33.44,0,0,1-1.06,3.84L216,74.08h-1.92l-3.51-11.61Z"/></svg>