<svg id="Layer_1" data-name="Layer 1" xmlns="http://www.w3.org/2000/svg" viewBox="0 0 446.64 228.6"><defs><style>.cls-1,.cls-4{fill:none;stroke:#000;stroke-miterlimit:10;}.cls-2{fill:#a6a6a6;}.cls-3{fill:#666;}.cls-4{stroke-dasharray:2;}</style></defs><title>AABB filtering</title><circle cx="266.02" cy="50.89" r="4.76"/><circle cx="89.92" cy="30.55" r="4.76"/><rect class="cls-1" x="5.14" y="30.05" width="260.19" height="194.33"/><circle cx="135.2" cy="127.04" r="4.76"/><line class="cls-1" x1="135.11" y1="126.1" x2="92.7" y2="37.29"/><polygon points="99.78 39.35 92.98 37.88 89.85 44.09 89.21 29.98 99.78 39.35"/><polygon class="cls-2" points="98.03 38.46 89.77 31.16 92.71 37.31 98.03 38.46"/><polygon class="cls-3" points="90.27 42.17 89.77 31.16 92.71 37.31 90.27 42.17"/><line class="cls-4" x1="182.15" y1="224.61" x2="135.11" y2="126.1"/><line class="cls-1" x1="134.99" y1="126.19" x2="258.31" y2="54.15"/><polygon points="256.85 61.38 257.75 54.48 251.29 51.87 265.31 50.06 256.85 61.38"/><polygon class="cls-2" points="257.58 59.55 264.17 50.72 258.29 54.16 257.58 59.55"/><polygon class="cls-3" points="253.25 52.13 264.17 50.72 258.29 54.16 253.25 52.13"/><line class="cls-4" x1="5.28" y1="201.96" x2="134.99" y2="126.19"/><circle cx="181.89" cy="223.84" r="4.76"/><circle cx="4.76" cy="201.44" r="4.76"/><path d="M156,121.91a13.19,13.19,0,0,0-2.52,8.18,13.48,13.48,0,0,0,2.52,8.12h-1.38a12.93,12.93,0,0,1-2.62-8.12,13.2,13.2,0,0,1,2.62-8.18Z"/><path d="M157.64,134a4.61,4.61,0,0,0,2.32.7c1.28,0,1.88-.64,1.88-1.44s-.5-1.3-1.8-1.78c-1.74-.62-2.56-1.58-2.56-2.74,0-1.56,1.26-2.84,3.34-2.84a4.83,4.83,0,0,1,2.38.6l-.44,1.28a3.77,3.77,0,0,0-2-.56c-1,0-1.62.6-1.62,1.32s.58,1.16,1.84,1.64c1.68.64,2.54,1.48,2.54,2.92,0,1.7-1.32,2.9-3.62,2.9a5.52,5.52,0,0,1-2.72-.66Z"/><path d="M164.44,138.25a28.78,28.78,0,0,0,1.2-4.78l2-.2a24.38,24.38,0,0,1-1.9,4.86Z"/><path d="M176.08,123.33v2.78h2.52v1.34h-2.52v5.22c0,1.2.34,1.88,1.32,1.88a3.92,3.92,0,0,0,1-.12l.08,1.32a4.31,4.31,0,0,1-1.56.24,2.44,2.44,0,0,1-1.9-.74,3.59,3.59,0,0,1-.68-2.52v-5.28h-1.5v-1.34h1.5v-2.32Z"/><path d="M179.52,138.21A13.54,13.54,0,0,0,182,130a13.26,13.26,0,0,0-2.52-8.12h1.36a12.74,12.74,0,0,1,2.62,8.14,13,13,0,0,1-2.62,8.16Z"/><path d="M287.66,40.19a13.19,13.19,0,0,0-2.52,8.18,13.48,13.48,0,0,0,2.52,8.12h-1.38a12.93,12.93,0,0,1-2.62-8.12,13.2,13.2,0,0,1,2.62-8.18Z"/><path d="M289.28,52.27a4.61,4.61,0,0,0,2.32.7c1.28,0,1.88-.64,1.88-1.44s-.5-1.3-1.8-1.78c-1.74-.62-2.56-1.58-2.56-2.74,0-1.56,1.26-2.84,3.34-2.84a4.83,4.83,0,0,1,2.38.6l-.44,1.28a3.77,3.77,0,0,0-2-.56c-1,0-1.62.6-1.62,1.32s.58,1.16,1.84,1.64c1.68.64,2.54,1.48,2.54,2.92,0,1.7-1.32,2.9-3.62,2.9a5.52,5.52,0,0,1-2.72-.66Z"/><path d="M306.82,43.43v4.7h4.52v1.2h-4.52v4.74h-1.28V49.33H301v-1.2h4.52v-4.7Z"/><path d="M317.54,40.61A5.69,5.69,0,0,1,321,39.55c2.76,0,5.26,2.48,5.26,7.08,0,5.08-2.56,7.66-5.38,7.66a3.9,3.9,0,0,1-4-4.2,4.61,4.61,0,0,1,4.38-4.88A3.75,3.75,0,0,1,324.54,47h0c0-.2,0-.44,0-.66,0-3.52-1.86-5.3-3.74-5.3a4.69,4.69,0,0,0-2.74.8Zm6.84,7.92a3.07,3.07,0,0,0-2.82-1.92,3.17,3.17,0,0,0-2.9,3.44c0,1.76,1,2.8,2.36,2.8C322.82,52.85,324.1,50.81,324.38,48.53Z"/><path d="M328.2,52.27a4.61,4.61,0,0,0,2.32.7c1.28,0,1.88-.64,1.88-1.44s-.5-1.3-1.8-1.78C328.86,49.13,328,48.17,328,47c0-1.56,1.26-2.84,3.34-2.84a4.83,4.83,0,0,1,2.38.6l-.44,1.28a3.77,3.77,0,0,0-2-.56c-1,0-1.62.6-1.62,1.32s.58,1.16,1.84,1.64c1.68.64,2.54,1.48,2.54,2.92,0,1.7-1.32,2.9-3.62,2.9a5.52,5.52,0,0,1-2.72-.66Z"/><path d="M334.88,54.87l5.58-14.5h1.36l-5.6,14.5Z"/><path d="M342.92,40.61a5.69,5.69,0,0,1,3.46-1.06c2.76,0,5.26,2.48,5.26,7.08,0,5.08-2.56,7.66-5.38,7.66a3.9,3.9,0,0,1-4-4.2,4.61,4.61,0,0,1,4.38-4.88A3.75,3.75,0,0,1,349.92,47h0c0-.2,0-.44,0-.66,0-3.52-1.86-5.3-3.74-5.3a4.69,4.69,0,0,0-2.74.8Zm6.84,7.92a3.07,3.07,0,0,0-2.82-1.92,3.17,3.17,0,0,0-2.9,3.44c0,1.76,1,2.8,2.36,2.8C348.2,52.85,349.48,50.81,349.76,48.53Z"/><path d="M354.64,44.39,356,46.47c.36.54.66,1,1,1.58h.06c.32-.58.64-1.08,1-1.6l1.36-2.06h1.9L358,49.07l3.4,5h-2L358,51.89c-.38-.56-.7-1.1-1-1.68h0c-.32.58-.66,1.1-1,1.68l-1.4,2.18h-1.94L356,49.13l-3.28-4.74Z"/><path d="M361.94,56.53a28.78,28.78,0,0,0,1.2-4.78l2-.2a24.38,24.38,0,0,1-1.9,4.86Z"/><path d="M373.58,41.61v2.78h2.52v1.34h-2.52V51c0,1.2.34,1.88,1.32,1.88a3.92,3.92,0,0,0,1-.12L376,54a4.31,4.31,0,0,1-1.56.24,2.44,2.44,0,0,1-1.9-.74,3.59,3.59,0,0,1-.68-2.52V45.73h-1.5V44.39h1.5V42.07Z"/><path d="M387.46,43.43v4.7H392v1.2h-4.52v4.74h-1.28V49.33h-4.52v-1.2h4.52v-4.7Z"/><path d="M398.18,40.61a5.69,5.69,0,0,1,3.46-1.06c2.76,0,5.26,2.48,5.26,7.08,0,5.08-2.56,7.66-5.38,7.66a3.9,3.9,0,0,1-4-4.2,4.61,4.61,0,0,1,4.38-4.88A3.75,3.75,0,0,1,405.18,47h0c0-.2,0-.44,0-.66,0-3.52-1.86-5.3-3.74-5.3a4.69,4.69,0,0,0-2.74.8ZM405,48.53a3.07,3.07,0,0,0-2.82-1.92,3.17,3.17,0,0,0-2.9,3.44c0,1.76,1,2.8,2.36,2.8C403.46,52.85,404.74,50.81,405,48.53Z"/><path d="M411.2,41.61v2.78h2.52v1.34H411.2V51c0,1.2.34,1.88,1.32,1.88a3.92,3.92,0,0,0,1-.12l.08,1.32a4.31,4.31,0,0,1-1.56.24,2.44,2.44,0,0,1-1.9-.74,3.59,3.59,0,0,1-.68-2.52V45.73H408V44.39h1.5V42.07Z"/><path d="M414.22,54.87l5.58-14.5h1.36l-5.6,14.5Z"/><path d="M422.26,40.61a5.69,5.69,0,0,1,3.46-1.06c2.76,0,5.26,2.48,5.26,7.08,0,5.08-2.56,7.66-5.38,7.66a3.9,3.9,0,0,1-4-4.2A4.61,4.61,0,0,1,426,45.21,3.75,3.75,0,0,1,429.26,47h0c0-.2,0-.44,0-.66,0-3.52-1.86-5.3-3.74-5.3a4.69,4.69,0,0,0-2.74.8Zm6.84,7.92a3.07,3.07,0,0,0-2.82-1.92,3.17,3.17,0,0,0-2.9,3.44c0,1.76,1,2.8,2.36,2.8C427.54,52.85,428.82,50.81,429.1,48.53Z"/><path d="M434,44.39l1.38,2.08c.36.54.66,1,1,1.58h.06c.32-.58.64-1.08,1-1.6l1.36-2.06h1.9l-3.3,4.68,3.4,5h-2l-1.42-2.18c-.38-.56-.7-1.1-1-1.68h0c-.32.58-.66,1.1-1,1.68l-1.4,2.18h-1.94l3.44-4.94L432,44.39Z"/><path d="M441.36,56.49a13.54,13.54,0,0,0,2.52-8.18,13.26,13.26,0,0,0-2.52-8.12h1.36a12.74,12.74,0,0,1,2.62,8.14,13,13,0,0,1-2.62,8.16Z"/><path d="M13,2.86A13.19,13.19,0,0,0,10.47,11,13.48,13.48,0,0,0,13,19.16H11.61A12.93,12.93,0,0,1,9,11a13.2,13.2,0,0,1,2.62-8.18Z"/><path d="M14.61,14.94a4.61,4.61,0,0,0,2.32.7c1.28,0,1.88-.64,1.88-1.44s-.5-1.3-1.8-1.78c-1.74-.62-2.56-1.58-2.56-2.74,0-1.56,1.26-2.84,3.34-2.84a4.83,4.83,0,0,1,2.38.6l-.44,1.28a3.77,3.77,0,0,0-2-.56c-1,0-1.62.6-1.62,1.32s.58,1.16,1.84,1.64c1.68.64,2.54,1.48,2.54,2.92,0,1.7-1.32,2.9-3.62,2.9a5.52,5.52,0,0,1-2.72-.66Z"/><path d="M32.15,6.1v4.7h4.52V12H32.15v4.74H30.87V12H26.35V10.8h4.52V6.1Z"/><path d="M42.87,3.28a5.69,5.69,0,0,1,3.46-1.06c2.76,0,5.26,2.48,5.26,7.08C51.59,14.38,49,17,46.21,17a3.9,3.9,0,0,1-4-4.2,4.61,4.61,0,0,1,4.38-4.88,3.75,3.75,0,0,1,3.26,1.74h0c0-.2,0-.44,0-.66,0-3.52-1.86-5.3-3.74-5.3a4.69,4.69,0,0,0-2.74.8Zm6.84,7.92a3.07,3.07,0,0,0-2.82-1.92A3.17,3.17,0,0,0,44,12.72c0,1.76,1,2.8,2.36,2.8C48.15,15.52,49.43,13.48,49.71,11.2Z"/><path d="M53.53,14.94a4.61,4.61,0,0,0,2.32.7c1.28,0,1.88-.64,1.88-1.44s-.5-1.3-1.8-1.78c-1.74-.62-2.56-1.58-2.56-2.74,0-1.56,1.26-2.84,3.34-2.84a4.83,4.83,0,0,1,2.38.6l-.44,1.28a3.77,3.77,0,0,0-2-.56c-1,0-1.62.6-1.62,1.32s.58,1.16,1.84,1.64c1.68.64,2.54,1.48,2.54,2.92,0,1.7-1.32,2.9-3.62,2.9a5.52,5.52,0,0,1-2.72-.66Z"/><path d="M60.21,17.54,65.79,3h1.36l-5.6,14.5Z"/><path d="M68.25,3.28a5.69,5.69,0,0,1,3.46-1.06C74.47,2.22,77,4.7,77,9.3,77,14.38,74.41,17,71.59,17a3.9,3.9,0,0,1-4-4.2A4.61,4.61,0,0,1,72,7.88a3.75,3.75,0,0,1,3.26,1.74h0c0-.2,0-.44,0-.66,0-3.52-1.86-5.3-3.74-5.3a4.69,4.69,0,0,0-2.74.8Zm6.84,7.92a3.07,3.07,0,0,0-2.82-1.92,3.17,3.17,0,0,0-2.9,3.44c0,1.76,1,2.8,2.36,2.8C73.53,15.52,74.81,13.48,75.09,11.2Z"/><path d="M79.79,7.06l2.12,5.72c.22.64.46,1.4.62,2h0c.18-.58.38-1.32.62-2l1.92-5.68H87L84.33,14C83.07,17.28,82.21,19,81,20a4.77,4.77,0,0,1-2.16,1.14l-.44-1.48A4.66,4.66,0,0,0,80,18.82a5.34,5.34,0,0,0,1.48-2,1.26,1.26,0,0,0,.14-.42,1.53,1.53,0,0,0-.12-.46L77.87,7.06Z"/><path d="M86.65,19.2a28.78,28.78,0,0,0,1.2-4.78l2-.2a24.38,24.38,0,0,1-1.9,4.86Z"/><path d="M98.29,4.28V7.06h2.52V8.4H98.29v5.22c0,1.2.34,1.88,1.32,1.88a3.92,3.92,0,0,0,1-.12l.08,1.32a4.31,4.31,0,0,1-1.56.24,2.44,2.44,0,0,1-1.9-.74,3.59,3.59,0,0,1-.68-2.52V8.4h-1.5V7.06h1.5V4.74Z"/><path d="M112.17,6.1v4.7h4.52V12h-4.52v4.74h-1.28V12h-4.52V10.8h4.52V6.1Z"/><path d="M122.89,3.28a5.69,5.69,0,0,1,3.46-1.06c2.76,0,5.26,2.48,5.26,7.08,0,5.08-2.56,7.66-5.38,7.66a3.9,3.9,0,0,1-4-4.2,4.61,4.61,0,0,1,4.38-4.88,3.75,3.75,0,0,1,3.26,1.74h0c0-.2,0-.44,0-.66,0-3.52-1.86-5.3-3.74-5.3a4.69,4.69,0,0,0-2.74.8Zm6.84,7.92a3.07,3.07,0,0,0-2.82-1.92,3.17,3.17,0,0,0-2.9,3.44c0,1.76,1,2.8,2.36,2.8C128.17,15.52,129.45,13.48,129.73,11.2Z"/><path d="M135.91,4.28V7.06h2.52V8.4h-2.52v5.22c0,1.2.34,1.88,1.32,1.88a3.92,3.92,0,0,0,1-.12l.08,1.32a4.31,4.31,0,0,1-1.56.24,2.44,2.44,0,0,1-1.9-.74,3.59,3.59,0,0,1-.68-2.52V8.4h-1.5V7.06h1.5V4.74Z"/><path d="M138.93,17.54,144.51,3h1.36l-5.6,14.5Z"/><path d="M147,3.28a5.69,5.69,0,0,1,3.46-1.06c2.76,0,5.26,2.48,5.26,7.08,0,5.08-2.56,7.66-5.38,7.66a3.9,3.9,0,0,1-4-4.2,4.61,4.61,0,0,1,4.38-4.88A3.75,3.75,0,0,1,154,9.62h0c0-.2,0-.44,0-.66,0-3.52-1.86-5.3-3.74-5.3a4.69,4.69,0,0,0-2.74.8Zm6.84,7.92A3.07,3.07,0,0,0,151,9.28a3.17,3.17,0,0,0-2.9,3.44c0,1.76,1,2.8,2.36,2.8C152.25,15.52,153.53,13.48,153.81,11.2Z"/><path d="M158.51,7.06l2.12,5.72c.22.64.46,1.4.62,2h0c.18-.58.38-1.32.62-2l1.92-5.68h1.86L163.05,14c-1.26,3.32-2.12,5-3.32,6.06a4.77,4.77,0,0,1-2.16,1.14l-.44-1.48a4.66,4.66,0,0,0,1.54-.86,5.34,5.34,0,0,0,1.48-2,1.26,1.26,0,0,0,.14-.42,1.53,1.53,0,0,0-.12-.46l-3.58-8.92Z"/><path d="M166.23,19.16A13.54,13.54,0,0,0,168.75,11a13.26,13.26,0,0,0-2.52-8.12h1.36A12.74,12.74,0,0,1,170.21,11a13,13,0,0,1-2.62,8.16Z"/></svg>