<svg id="Layer_1" data-name="Layer 1" xmlns="http://www.w3.org/2000/svg" viewBox="0 0 477.74 292.62"><defs><style>.cls-1,.cls-4{fill:none;stroke:#000;stroke-miterlimit:10;stroke-width:0.5px;}.cls-2{fill:#a6a6a6;}.cls-3{fill:#666;}.cls-4{stroke-dasharray:2;}</style></defs><title>Auxiliary ray intersection</title><polygon class="cls-1" points="477.33 105.89 140.35 104.05 42.65 290.53 379.63 292.37 477.33 105.89"/><line class="cls-1" x1="259.99" y1="197.82" x2="259.99" y2="28.32"/><polygon points="262.74 30.78 259.99 28.65 257.24 30.78 259.99 24.27 262.74 30.78"/><polygon class="cls-2" points="262.14 30 259.99 24.93 259.99 28.33 262.14 30"/><polygon class="cls-3" points="257.84 30 259.99 24.93 259.99 28.33 257.84 30"/><path d="M266.77,210.58c0-1.24,0-2.24-.08-3.16h1.58l.08,1.66h0a3.81,3.81,0,0,1,3.44-1.88c2.34,0,4.1,2,4.1,4.92,0,3.48-2.12,5.2-4.4,5.2a3.39,3.39,0,0,1-3-1.52h0v5.26h-1.74Zm1.74,2.58a4,4,0,0,0,.08.72,2.72,2.72,0,0,0,2.64,2.06c1.86,0,2.94-1.52,2.94-3.74,0-1.94-1-3.6-2.88-3.6a2.81,2.81,0,0,0-2.66,2.18,2.85,2.85,0,0,0-.12.72Z"/><path d="M256.73,12.89c0-1,0-1.82-.08-2.62h1.56l.1,1.6h0a3.56,3.56,0,0,1,3.2-1.82c1.34,0,3.42.8,3.42,4.12V20h-1.76V14.37c0-1.56-.58-2.86-2.24-2.86a2.5,2.5,0,0,0-2.36,1.8,2.53,2.53,0,0,0-.12.82V20h-1.76Z"/><line class="cls-4" x1="99.5" y1="61.68" x2="345.96" y2="190.01"/><line class="cls-1" x1="34.54" y1="27.85" x2="95.9" y2="59.8"/><polygon points="92.46 61.11 95.62 59.65 95 56.23 99.5 61.67 92.46 61.11"/><polygon class="cls-2" points="93.42 60.94 98.92 61.37 95.9 59.8 93.42 60.94"/><polygon class="cls-3" points="95.41 57.12 98.92 61.37 95.9 59.8 95.41 57.12"/><line class="cls-4" x1="73.56" y1="110.35" x2="211.12" y2="249.17"/><line class="cls-1" x1="15.32" y1="51.57" x2="70.71" y2="107.47"/><polygon points="67.03 107.66 70.48 107.24 70.94 103.79 73.56 110.35 67.03 107.66"/><polygon class="cls-2" points="68 107.79 73.1 109.88 70.7 107.46 68 107.79"/><polygon class="cls-3" points="71.06 104.77 73.1 109.88 70.7 107.46 71.06 104.77"/><circle cx="260.23" cy="197.35" r="6.22"/><circle cx="345.94" cy="189.77" r="6.22"/><circle cx="210.95" cy="248.89" r="6.22"/><path d="M218.64,262.56c0-1.24,0-2.24-.08-3.16h1.58l.08,1.66h0a3.81,3.81,0,0,1,3.44-1.88c2.34,0,4.1,2,4.1,4.92,0,3.48-2.12,5.2-4.4,5.2a3.39,3.39,0,0,1-3-1.52h0V273h-1.74Zm1.74,2.58a4,4,0,0,0,.08.72,2.72,2.72,0,0,0,2.64,2.06c1.86,0,2.94-1.52,2.94-3.74,0-1.94-1-3.6-2.88-3.6a2.81,2.81,0,0,0-2.66,2.18,2.85,2.85,0,0,0-.12.72Z"/><path d="M229.78,266.1l1.24,3.33c.13.37.27.82.36,1.15h0c.11-.33.23-.76.37-1.17l1.11-3.31H234l-1.54,4a8.71,8.71,0,0,1-1.93,3.53,2.8,2.8,0,0,1-1.26.66l-.26-.86a2.66,2.66,0,0,0,.9-.5,3.09,3.09,0,0,0,.86-1.14.69.69,0,0,0,.08-.25.77.77,0,0,0-.07-.26l-2.09-5.2Z"/><path d="M354.29,199.5c0-1.24,0-2.24-.08-3.16h1.59l.08,1.66h0a3.81,3.81,0,0,1,3.44-1.88c2.34,0,4.1,2,4.1,4.92,0,3.48-2.12,5.2-4.4,5.2a3.39,3.39,0,0,1-3-1.52h0V210h-1.75Zm1.75,2.58a4,4,0,0,0,.08.72,2.72,2.72,0,0,0,2.64,2.06c1.86,0,2.94-1.52,2.94-3.74,0-1.94-1-3.6-2.88-3.6a2.81,2.81,0,0,0-2.66,2.18,2.85,2.85,0,0,0-.12.72Z"/><path d="M365.54,203l.81,1.21c.21.32.38.61.57.92h0c.19-.34.38-.63.56-.93l.8-1.2h1.1l-1.92,2.73,2,2.91h-1.16l-.83-1.27c-.22-.33-.41-.64-.61-1h0c-.19.34-.39.64-.6,1l-.81,1.27h-1.13l2-2.88L364.4,203Z"/><path d="M23.35,20.57c0-1.14,0-2.12-.08-3h1.54l.06,1.91H25a2.91,2.91,0,0,1,2.68-2.13,1.9,1.9,0,0,1,.5.06v1.67a2.64,2.64,0,0,0-.6-.06,2.47,2.47,0,0,0-2.36,2.26,5,5,0,0,0-.08.82v5.16H23.35Z"/><path d="M29.76,24.25l.81,1.21c.2.31.38.6.57.92h0c.19-.34.37-.63.56-.93l.79-1.2h1.11L31.71,27l2,2.92H32.52l-.82-1.27c-.23-.33-.41-.64-.61-1h0c-.19.34-.39.64-.6,1l-.81,1.27H28.52l2-2.88-1.91-2.76Z"/><path d="M1.46,43.15c0-1.14,0-2.12-.08-3H2.92L3,42h.08a2.9,2.9,0,0,1,2.68-2.12,1.9,1.9,0,0,1,.5.06v1.66a2.64,2.64,0,0,0-.6-.06,2.47,2.47,0,0,0-2.36,2.26,5,5,0,0,0-.08.82v5.16H1.46Z"/><path d="M7.76,46.83,9,50.17c.13.37.27.81.36,1.15h0c.11-.34.23-.77.37-1.18l1.12-3.31H12l-1.54,4c-.73,1.94-1.24,2.93-1.93,3.54a2.9,2.9,0,0,1-1.26.66L7,54.19a2.84,2.84,0,0,0,.9-.5,3.13,3.13,0,0,0,.86-1.15.6.6,0,0,0,.08-.24A.81.81,0,0,0,8.73,52l-2.09-5.2Z"/></svg>