<svg id="Layer_1" data-name="Layer 1" xmlns="http://www.w3.org/2000/svg" viewBox="0 0 217.2 217.22"><defs><style>.cls-1{fill:#b3b3b3;}.cls-1,.cls-2,.cls-3{stroke:#000;stroke-miterlimit:10;}.cls-2,.cls-3{fill:none;}.cls-3{stroke-dasharray:2;}</style></defs><title>Checkerboard easy case</title><rect class="cls-1" x="0.63" y="0.5" width="107.62" height="107.74"/><rect class="cls-2" x="108.37" y="0.57" width="108.33" height="108.33"/><rect class="cls-2" x="0.5" y="108.38" width="108.33" height="108.33"/><rect class="cls-1" x="108.21" y="108.38" width="108.33" height="108.33"/><path d="M39.16,8.46v2.78h2.52v1.34H39.16V17.8c0,1.2.34,1.88,1.32,1.88a3.92,3.92,0,0,0,1-.12l.08,1.32a4.31,4.31,0,0,1-1.56.24,2.44,2.44,0,0,1-1.9-.74,3.59,3.59,0,0,1-.68-2.52V12.58h-1.5V11.24h1.5V8.92Z"/><path d="M44.52,16.4a3.1,3.1,0,0,0,3.32,3.36,6.36,6.36,0,0,0,2.68-.5l.3,1.26a7.84,7.84,0,0,1-3.22.6c-3,0-4.76-2-4.76-4.88S44.56,11,47.38,11c3.16,0,4,2.78,4,4.56a6.64,6.64,0,0,1-.06.82Zm5.16-1.26c0-1.12-.46-2.86-2.44-2.86-1.78,0-2.56,1.64-2.7,2.86Z"/><path d="M54.32,11.24l1.38,2.08c.36.54.66,1,1,1.58h.06c.32-.58.64-1.08,1-1.6l1.36-2.06H61l-3.3,4.68,3.4,5h-2l-1.42-2.18c-.38-.56-.7-1.1-1-1.68h0c-.32.58-.66,1.1-1,1.68l-1.4,2.18H52.2L55.64,16l-3.28-4.74Z"/><path d="M66,9.56h0l-2.26,1.22-.34-1.34,2.84-1.52h1.5v13H66Z"/><path d="M148.13,8.46v2.78h2.52v1.34h-2.52V17.8c0,1.2.34,1.88,1.32,1.88a3.92,3.92,0,0,0,1-.12l.08,1.32a4.31,4.31,0,0,1-1.56.24,2.44,2.44,0,0,1-1.9-.74,3.59,3.59,0,0,1-.68-2.52V12.58h-1.5V11.24h1.5V8.92Z"/><path d="M153.49,16.4a3.1,3.1,0,0,0,3.32,3.36,6.36,6.36,0,0,0,2.68-.5l.3,1.26a7.84,7.84,0,0,1-3.22.6c-3,0-4.76-2-4.76-4.88S153.53,11,156.35,11c3.16,0,4,2.78,4,4.56a6.64,6.64,0,0,1-.06.82Zm5.16-1.26c0-1.12-.46-2.86-2.44-2.86-1.78,0-2.56,1.64-2.7,2.86Z"/><path d="M163.29,11.24l1.38,2.08c.36.54.66,1,1,1.58h.06c.32-.58.64-1.08,1-1.6L168,11.24h1.9l-3.3,4.68,3.4,5h-2l-1.42-2.18c-.38-.56-.7-1.1-1-1.68h0c-.32.58-.66,1.1-1,1.68l-1.4,2.18h-1.94L164.61,16l-3.28-4.74Z"/><path d="M171.17,20.92V19.84l1.38-1.34c3.32-3.16,4.82-4.84,4.84-6.8a2.32,2.32,0,0,0-2.58-2.54,4.43,4.43,0,0,0-2.76,1.1L171.49,9a5.7,5.7,0,0,1,3.68-1.32,3.66,3.66,0,0,1,4,3.78c0,2.4-1.74,4.34-4.48,7l-1,1v0h5.84v1.46Z"/><path d="M40.26,116.78v2.78h2.52v1.34H40.26v5.22c0,1.21.34,1.89,1.32,1.89a3.92,3.92,0,0,0,1-.12l.08,1.32a4.31,4.31,0,0,1-1.56.24,2.44,2.44,0,0,1-1.9-.74,3.61,3.61,0,0,1-.68-2.53V120.9H37v-1.34h1.5v-2.32Z"/><path d="M45.62,124.72a3.11,3.11,0,0,0,3.32,3.37,6.36,6.36,0,0,0,2.68-.5l.3,1.26a7.84,7.84,0,0,1-3.22.6c-3,0-4.76-2-4.76-4.89s1.72-5.22,4.54-5.22c3.16,0,4,2.78,4,4.56a6.64,6.64,0,0,1-.06.82Zm5.16-1.26c0-1.12-.46-2.86-2.44-2.86-1.78,0-2.56,1.64-2.7,2.86Z"/><path d="M55.42,119.56l1.38,2.08c.36.54.66,1,1,1.58h.06c.32-.58.64-1.08,1-1.6l1.36-2.06h1.9l-3.3,4.68,3.4,5h-2l-1.42-2.19c-.38-.55-.7-1.09-1-1.67h0c-.32.58-.66,1.09-1,1.67l-1.4,2.19H53.3l3.44-5-3.28-4.74Z"/><path d="M63.3,129.25v-1.08l1.38-1.35C68,123.66,69.5,122,69.52,120a2.32,2.32,0,0,0-2.58-2.54,4.43,4.43,0,0,0-2.76,1.1l-.56-1.24A5.7,5.7,0,0,1,67.3,116a3.66,3.66,0,0,1,4,3.78c0,2.4-1.74,4.34-4.48,7l-1,1v0H71.6v1.46Z"/><path d="M148,116.78v2.78h2.52v1.34H148v5.22c0,1.21.34,1.89,1.32,1.89a3.92,3.92,0,0,0,1-.12l.08,1.32a4.31,4.31,0,0,1-1.56.24,2.44,2.44,0,0,1-1.9-.74,3.61,3.61,0,0,1-.68-2.53V120.9h-1.5v-1.34h1.5v-2.32Z"/><path d="M153.33,124.72a3.11,3.11,0,0,0,3.32,3.37,6.36,6.36,0,0,0,2.68-.5l.3,1.26a7.84,7.84,0,0,1-3.22.6c-3,0-4.76-2-4.76-4.89s1.72-5.22,4.54-5.22c3.16,0,4,2.78,4,4.56a6.64,6.64,0,0,1-.06.82Zm5.16-1.26c0-1.12-.46-2.86-2.44-2.86-1.78,0-2.56,1.64-2.7,2.86Z"/><path d="M163.13,119.56l1.38,2.08c.36.54.66,1,1,1.58h.06c.32-.58.64-1.08,1-1.6l1.36-2.06h1.9l-3.3,4.68,3.4,5h-2l-1.42-2.19c-.38-.55-.7-1.09-1-1.67h0c-.32.58-.66,1.09-1,1.67l-1.4,2.19H161l3.44-5-3.28-4.74Z"/><path d="M174.83,117.88h0l-2.26,1.22-.34-1.34,2.84-1.52h1.5v13h-1.7Z"/><line class="cls-2" x1="150.02" y1="45.39" x2="180.88" y2="79.83"/><line class="cls-2" x1="153.44" y1="72.29" x2="176.12" y2="51.85"/><rect class="cls-3" x="150.12" y="39.74" width="30.66" height="45.74" transform="translate(0.45 126.39) rotate(-41.86)"/></svg>