<svg id="Layer_1" data-name="Layer 1" xmlns="http://www.w3.org/2000/svg" viewBox="0 0 347.46 231.61"><defs><style>.cls-1,.cls-2{fill:none;stroke:#000;stroke-miterlimit:10;stroke-width:0.5px;}.cls-2{stroke-dasharray:2;}.cls-3{fill:#a6a6a6;}.cls-4{fill:#666;}</style></defs><title>Differentials specular reflection</title><path class="cls-1" d="M284.76,231.18C232.55,198.55,152,173.44,56.34,161"/><line class="cls-2" x1="34.23" y1="78.34" x2="83.21" y2="165.88"/><line class="cls-1" x1="5.18" y1="26.43" x2="32.25" y2="74.81"/><polygon points="28.65 74.01 32.09 74.52 33.45 71.32 34.23 78.34 28.65 74.01"/><polygon class="cls-3" points="29.55 74.39 33.91 77.77 32.25 74.8 29.55 74.39"/><polygon class="cls-4" points="33.31 72.29 33.91 77.77 32.25 74.8 33.31 72.29"/><line class="cls-1" x1="129.82" y1="135.25" x2="83.7" y2="166.09"/><polygon points="126.25 134.33 129.55 135.43 129.31 138.9 133.19 133 126.25 134.33"/><polygon class="cls-3" points="127.23 134.4 132.65 133.36 129.81 135.26 127.23 134.4"/><polygon class="cls-4" points="129.62 137.97 132.65 133.36 129.81 135.26 129.62 137.97"/><line class="cls-2" x1="216.53" y1="77.27" x2="133.19" y2="133"/><line class="cls-1" x1="83.29" y1="165.57" x2="111.59" y2="47.71"/><polygon points="113.69 50.74 111.52 48.02 108.34 49.45 112.54 43.77 113.69 50.74"/><polygon class="cls-3" points="113.29 49.84 112.38 44.4 111.59 47.72 113.29 49.84"/><polygon class="cls-4" points="109.11 48.83 112.38 44.4 111.59 47.72 109.11 48.83"/><path class="cls-1" d="M68.84,140.12a29.12,29.12,0,0,1,38.78,9.77"/><line class="cls-1" x1="201.97" y1="193.72" x2="254.15" y2="84.05"/><polygon points="255.58 87.45 254.01 84.35 250.61 85.09 255.89 80.4 255.58 87.45"/><polygon class="cls-3" points="255.37 86.49 255.61 80.99 254.15 84.06 255.37 86.49"/><polygon class="cls-4" points="251.49 84.64 255.61 80.99 254.15 84.06 251.49 84.64"/><line class="cls-2" x1="191.57" y1="84" x2="201.97" y2="193.72"/><line class="cls-1" x1="185.44" y1="19.28" x2="191.19" y2="79.97"/><polygon points="188.22 77.78 191.16 79.64 193.7 77.26 191.57 84 188.22 77.78"/><polygon class="cls-3" points="188.89 78.5 191.51 83.35 191.19 79.96 188.89 78.5"/><polygon class="cls-4" points="193.17 78.1 191.51 83.35 191.19 79.96 193.17 78.1"/><line class="cls-1" x1="246.3" y1="164.36" x2="201.4" y2="194.3"/><polygon points="242.73 163.44 246.03 164.54 245.78 168.02 249.67 162.12 242.73 163.44"/><polygon class="cls-3" points="243.71 163.5 249.13 162.48 246.29 164.37 243.71 163.5"/><polygon class="cls-4" points="246.1 167.08 249.13 162.48 246.29 164.37 246.1 167.08"/><line class="cls-2" x1="347.18" y1="97.1" x2="249.67" y2="162.12"/><path class="cls-1" d="M198.64,161.77a32.87,32.87,0,0,1,30.18,13.91"/><path d="M205,149.92c0-4.08,1.66-7.2,4.68-7.2s4.5,2.9,4.5,7.2c0,4.5-1.46,7.44-4.56,7.44C206.72,157.36,205,154.86,205,149.92Zm7.44-.76c0-2.84-.92-5.14-2.86-5.14-1.78,0-2.84,2.42-2.84,5.14Zm-5.7,1.32c0,3.56,1.2,5.58,2.92,5.58,1.88,0,2.78-2.32,2.78-5.58Z"/><path d="M218.56,143.44a23.07,23.07,0,0,1-1.88,4.74l-1.13.14a27.35,27.35,0,0,0,1.19-4.7Z"/><path d="M224.28,160.16c0-4.08,1.66-7.2,4.68-7.2s4.5,2.9,4.5,7.2c0,4.5-1.46,7.44-4.56,7.44C226,167.6,224.28,165.1,224.28,160.16Zm7.44-.76c0-2.84-.92-5.14-2.86-5.14-1.78,0-2.84,2.42-2.84,5.14Zm-5.7,1.32c0,3.56,1.2,5.58,2.92,5.58,1.88,0,2.78-2.32,2.78-5.58Z"/><path d="M237.88,153.68a23.07,23.07,0,0,1-1.88,4.74l-1.12.14a28.31,28.31,0,0,0,1.18-4.7Z"/><path d="M180,10.08c0-1.14,0-2.12-.08-3h1.54l.06,1.9h.08a2.91,2.91,0,0,1,2.69-2.12,1.9,1.9,0,0,1,.5.06V8.56a2.71,2.71,0,0,0-.6-.06,2.48,2.48,0,0,0-2.37,2.26,5,5,0,0,0-.07.82v5.16H180Z"/><path d="M189.4,3a23.07,23.07,0,0,1-1.88,4.74l-1.12.14a28.31,28.31,0,0,0,1.18-4.7Z"/><path d="M1.46,14.74c0-1.14,0-2.12-.08-3H2.92L3,13.62h.08A2.9,2.9,0,0,1,5.74,11.5a1.9,1.9,0,0,1,.5.06v1.66a2.64,2.64,0,0,0-.6-.06,2.47,2.47,0,0,0-2.36,2.26,5,5,0,0,0-.08.82V21.4H1.46Z"/><path d="M74.1,124.31c0-4.09,1.66-7.21,4.68-7.21s4.5,2.9,4.5,7.21c0,4.5-1.46,7.44-4.56,7.44C75.86,131.75,74.1,129.25,74.1,124.31Zm7.44-.76c0-2.84-.92-5.15-2.86-5.15-1.78,0-2.84,2.43-2.84,5.15Zm-5.7,1.32c0,3.56,1.2,5.58,2.92,5.58,1.88,0,2.78-2.32,2.78-5.58Z"/><path d="M100.65,132.46c0-4.09,1.66-7.21,4.68-7.21s4.5,2.9,4.5,7.21c0,4.5-1.46,7.44-4.56,7.44C102.41,139.9,100.65,137.4,100.65,132.46Zm7.44-.76c0-2.85-.92-5.15-2.86-5.15-1.78,0-2.84,2.42-2.84,5.15Zm-5.7,1.32c0,3.56,1.2,5.58,2.92,5.58,1.88,0,2.78-2.32,2.78-5.58Z"/></svg>