<svg id="Layer_1" data-name="Layer 1" xmlns="http://www.w3.org/2000/svg" viewBox="0 0 491.09 99.62"><defs><style>.cls-1,.cls-3{fill:none;stroke-miterlimit:10;}.cls-1{stroke:#000;}.cls-2{fill:#0071bc;}.cls-3{stroke:#0071bc;}</style></defs><title>Discrete continuous filter width</title><line class="cls-1" x1="125.77" y1="64.22" x2="486.55" y2="64.22"/><line class="cls-1" x1="126.08" y1="55.65" x2="126.08" y2="73.11"/><line class="cls-1" x1="414.26" y1="55.65" x2="414.26" y2="73.11"/><line class="cls-1" x1="342.22" y1="55.65" x2="342.22" y2="73.11"/><line class="cls-1" x1="270.17" y1="55.65" x2="270.17" y2="73.11"/><line class="cls-1" x1="198.13" y1="55.65" x2="198.13" y2="73.11"/><line class="cls-1" x1="486.3" y1="55.65" x2="486.3" y2="73.11"/><path d="M130.86,88c0,4.42-1.64,6.86-4.52,6.86-2.54,0-4.26-2.38-4.3-6.68s1.88-6.76,4.52-6.76S130.86,83.84,130.86,88Zm-7.06.2c0,3.38,1,5.3,2.64,5.3,1.8,0,2.66-2.1,2.66-5.42s-.82-5.3-2.64-5.3C124.92,82.76,123.8,84.64,123.8,88.18Z"/><path d="M197.94,83.26h0l-2.26,1.22-.34-1.34,2.84-1.52h1.5v13h-1.7Z"/><path d="M266,94.62V93.54l1.38-1.34c3.32-3.16,4.82-4.84,4.84-6.8a2.32,2.32,0,0,0-2.58-2.54,4.43,4.43,0,0,0-2.76,1.1l-.56-1.24A5.7,5.7,0,0,1,270,81.4a3.66,3.66,0,0,1,4,3.78c0,2.4-1.74,4.34-4.48,7l-1,1v0h5.84v1.46Z"/><path d="M338.35,92.6a5.88,5.88,0,0,0,2.88.82c2.26,0,3-1.44,2.94-2.52,0-1.82-1.66-2.6-3.36-2.6h-1V87h1c1.28,0,2.9-.66,2.9-2.2,0-1-.66-2-2.28-2a4.77,4.77,0,0,0-2.6.86l-.46-1.28a6.18,6.18,0,0,1,3.4-1c2.56,0,3.72,1.52,3.72,3.1a3.23,3.23,0,0,1-2.4,3.06v0a3.39,3.39,0,0,1,2.9,3.34c0,2.08-1.62,3.9-4.74,3.9a6.61,6.61,0,0,1-3.38-.88Z"/><path d="M415.27,94.62V91.08h-6V89.92l5.8-8.3h1.9V89.7h1.82v1.38h-1.82v3.54Zm0-4.92V85.36q0-1,.06-2h-.06c-.4.76-.72,1.32-1.08,1.92L411,89.66v0Z"/><path d="M489.5,83.1h-5l-.5,3.34a7,7,0,0,1,1.06-.08,5.49,5.49,0,0,1,2.8.7,3.69,3.69,0,0,1,1.86,3.34,4.51,4.51,0,0,1-4.84,4.44,6.36,6.36,0,0,1-3.24-.8l.44-1.34a5.82,5.82,0,0,0,2.78.72A2.87,2.87,0,0,0,488,90.6c0-1.68-1.14-2.88-3.74-2.88a13.45,13.45,0,0,0-1.8.14l.84-6.24h6.23Z"/><path d="M166.43,10.1c0,4.42-1.64,6.86-4.52,6.86-2.54,0-4.26-2.38-4.3-6.68s1.88-6.76,4.52-6.76S166.43,6,166.43,10.1Zm-7.06.2c0,3.38,1,5.3,2.64,5.3,1.8,0,2.66-2.1,2.66-5.42s-.82-5.3-2.64-5.3C160.49,4.88,159.37,6.76,159.37,10.3Z"/><path d="M233.62,5.38h0L231.32,6.6,231,5.26l2.84-1.52h1.5v13h-1.7Z"/><path d="M301.82,16.74V15.66l1.38-1.34c3.32-3.16,4.82-4.84,4.84-6.8A2.32,2.32,0,0,0,305.46,5a4.43,4.43,0,0,0-2.76,1.1l-.56-1.24a5.7,5.7,0,0,1,3.68-1.32,3.66,3.66,0,0,1,4,3.78c0,2.4-1.74,4.34-4.48,7l-1,1v0h5.84v1.46Z"/><path d="M374.25,14.72a5.88,5.88,0,0,0,2.88.82c2.26,0,3-1.44,2.94-2.52,0-1.82-1.66-2.6-3.36-2.6h-1V9.1h1c1.28,0,2.9-.66,2.9-2.2,0-1-.66-2-2.28-2a4.77,4.77,0,0,0-2.6.86l-.46-1.28a6.18,6.18,0,0,1,3.4-1c2.56,0,3.72,1.52,3.72,3.1A3.23,3.23,0,0,1,379,9.68v0a3.39,3.39,0,0,1,2.9,3.34c0,2.08-1.62,3.9-4.74,3.9a6.61,6.61,0,0,1-3.38-.88Z"/><path d="M451.29,16.74V13.2h-6V12l5.8-8.3H453v8.08h1.82V13.2H453v3.54Zm0-4.92V7.48q0-1,.06-2h-.06c-.4.76-.72,1.32-1.08,1.92L447,11.78v0Z"/><circle class="cls-2" cx="324.26" cy="46.44" r="4.76"/><circle class="cls-1" cx="162.61" cy="29.2" r="4.76"/><circle class="cls-1" cx="450.82" cy="29.2" r="4.76"/><circle class="cls-1" cx="378.77" cy="29.2" r="4.76"/><circle class="cls-1" cx="306.72" cy="29.2" r="4.76"/><circle class="cls-1" cx="234.66" cy="29.2" r="4.76"/><line class="cls-3" x1="180.39" y1="46.44" x2="468.76" y2="46.44"/><path d="M10.73,3.44a24.92,24.92,0,0,1,3.7-.28c2.5,0,4.28.58,5.46,1.68a6.21,6.21,0,0,1,1.9,4.84,7.13,7.13,0,0,1-1.94,5.24c-1.26,1.26-3.34,1.94-6,1.94a28.08,28.08,0,0,1-3.16-.16Zm1.74,11.92a11,11,0,0,0,1.76.1C18,15.46,20,13.38,20,9.74c0-3.18-1.78-5.2-5.46-5.2a9.89,9.89,0,0,0-2,.18Z"/><path d="M26,4.34a1.09,1.09,0,0,1-2.18,0,1.07,1.07,0,0,1,1.1-1.1A1,1,0,0,1,26,4.34Zm-2,12.4V7.06h1.76v9.68Z"/><path d="M28.43,14.94a4.61,4.61,0,0,0,2.32.7c1.28,0,1.88-.64,1.88-1.44s-.5-1.3-1.8-1.78c-1.74-.62-2.56-1.58-2.56-2.74,0-1.56,1.26-2.84,3.34-2.84a4.83,4.83,0,0,1,2.38.6l-.44,1.28a3.77,3.77,0,0,0-2-.56c-1,0-1.62.6-1.62,1.32s.58,1.16,1.84,1.64c1.68.64,2.54,1.48,2.54,2.92,0,1.7-1.32,2.9-3.62,2.9A5.52,5.52,0,0,1,28,16.28Z"/><path d="M43.49,16.38a6.48,6.48,0,0,1-2.78.56A4.6,4.6,0,0,1,35.89,12a4.92,4.92,0,0,1,5.2-5.14,5.88,5.88,0,0,1,2.44.5l-.4,1.36a4.08,4.08,0,0,0-2-.46,3.35,3.35,0,0,0-3.42,3.66A3.32,3.32,0,0,0,41,15.54a5,5,0,0,0,2.16-.48Z"/><path d="M45.55,10.08c0-1.14,0-2.12-.08-3H47L47.07,9h.08a2.9,2.9,0,0,1,2.68-2.12,1.9,1.9,0,0,1,.5.06V8.56a2.64,2.64,0,0,0-.6-.06,2.47,2.47,0,0,0-2.36,2.26,5,5,0,0,0-.08.82v5.16H45.55Z"/><path d="M52.87,12.22a3.1,3.1,0,0,0,3.32,3.36,6.36,6.36,0,0,0,2.68-.5l.3,1.26a7.84,7.84,0,0,1-3.22.6c-3,0-4.76-2-4.76-4.88s1.72-5.22,4.54-5.22c3.16,0,4,2.78,4,4.56a6.64,6.64,0,0,1-.06.82ZM58,11c0-1.12-.46-2.86-2.44-2.86C53.81,8.1,53,9.74,52.89,11Z"/><path d="M64,4.28V7.06h2.52V8.4H64v5.22c0,1.2.34,1.88,1.32,1.88a3.92,3.92,0,0,0,1-.12l.08,1.32a4.31,4.31,0,0,1-1.56.24A2.44,2.44,0,0,1,63,16.2a3.59,3.59,0,0,1-.68-2.52V8.4h-1.5V7.06h1.5V4.74Z"/><path d="M69.39,12.22a3.1,3.1,0,0,0,3.32,3.36,6.36,6.36,0,0,0,2.68-.5l.3,1.26a7.84,7.84,0,0,1-3.22.6c-3,0-4.76-2-4.76-4.88s1.72-5.22,4.54-5.22c3.16,0,4,2.78,4,4.56a6.64,6.64,0,0,1-.06.82ZM74.55,11c0-1.12-.46-2.86-2.44-2.86-1.78,0-2.56,1.64-2.7,2.86Z"/><path d="M10.94,94.18a8.64,8.64,0,0,1-3.56.64C3.58,94.82.72,92.42.72,88a6.71,6.71,0,0,1,7-7.08,7.23,7.23,0,0,1,3.2.6l-.42,1.42a6.34,6.34,0,0,0-2.72-.56c-3.16,0-5.26,2-5.26,5.56,0,3.3,1.9,5.42,5.18,5.42a7,7,0,0,0,2.84-.56Z"/><path d="M21.6,89.7c0,3.58-2.48,5.14-4.82,5.14-2.62,0-4.64-1.92-4.64-5,0-3.24,2.12-5.14,4.8-5.14S21.6,86.74,21.6,89.7Zm-7.68.1c0,2.12,1.22,3.72,2.94,3.72s2.94-1.58,2.94-3.76C19.8,88.12,19,86,16.9,86S13.92,88,13.92,89.8Z"/><path d="M23.82,87.56c0-1,0-1.82-.08-2.62H25.3l.1,1.6h0a3.56,3.56,0,0,1,3.2-1.82c1.34,0,3.42.8,3.42,4.12v5.78H30.3V89c0-1.56-.58-2.86-2.24-2.86A2.5,2.5,0,0,0,25.7,88a2.53,2.53,0,0,0-.12.82v5.82H23.82Z"/><path d="M37,82.16v2.78h2.52v1.34H37V91.5c0,1.2.34,1.88,1.32,1.88a3.92,3.92,0,0,0,1-.12l.08,1.32a4.31,4.31,0,0,1-1.56.24,2.44,2.44,0,0,1-1.9-.74,3.59,3.59,0,0,1-.68-2.52V86.28h-1.5V84.94h1.5V82.62Z"/><path d="M43.42,82.22a1.09,1.09,0,0,1-2.18,0,1.07,1.07,0,0,1,1.1-1.1A1,1,0,0,1,43.42,82.22Zm-2,12.4V84.94h1.76v9.68Z"/><path d="M46.14,87.56c0-1,0-1.82-.08-2.62h1.56l.1,1.6h0A3.56,3.56,0,0,1,51,84.72c1.34,0,3.42.8,3.42,4.12v5.78H52.62V89c0-1.56-.58-2.86-2.24-2.86A2.5,2.5,0,0,0,48,88a2.53,2.53,0,0,0-.12.82v5.82H46.14Z"/><path d="M65.34,92c0,1,0,1.88.08,2.64H63.86L63.76,93h0a3.64,3.64,0,0,1-3.2,1.8c-1.52,0-3.34-.84-3.34-4.24V84.94h1.76V90.3c0,1.84.56,3.08,2.16,3.08a2.54,2.54,0,0,0,2.32-1.6,2.57,2.57,0,0,0,.16-.9V84.94h1.76Z"/><path d="M77,89.7c0,3.58-2.48,5.14-4.82,5.14-2.62,0-4.64-1.92-4.64-5,0-3.24,2.12-5.14,4.8-5.14S77,86.74,77,89.7Zm-7.68.1c0,2.12,1.22,3.72,2.94,3.72s2.94-1.58,2.94-3.76c0-1.64-.82-3.72-2.9-3.72S69.34,88,69.34,89.8Z"/><path d="M87.34,92c0,1,0,1.88.08,2.64H85.86L85.76,93h0a3.64,3.64,0,0,1-3.2,1.8c-1.52,0-3.34-.84-3.34-4.24V84.94h1.76V90.3c0,1.84.56,3.08,2.16,3.08a2.54,2.54,0,0,0,2.32-1.6,2.57,2.57,0,0,0,.16-.9V84.94h1.76Z"/><path d="M90,92.82a4.61,4.61,0,0,0,2.32.7c1.28,0,1.88-.64,1.88-1.44s-.5-1.3-1.8-1.78c-1.74-.62-2.56-1.58-2.56-2.74,0-1.56,1.26-2.84,3.34-2.84a4.83,4.83,0,0,1,2.38.6l-.44,1.28a3.77,3.77,0,0,0-2-.56c-1,0-1.62.6-1.62,1.32s.58,1.16,1.84,1.64c1.68.64,2.54,1.48,2.54,2.92,0,1.7-1.32,2.9-3.62,2.9a5.52,5.52,0,0,1-2.72-.66Z"/></svg>