<svg id="Layer_1" data-name="Layer 1" xmlns="http://www.w3.org/2000/svg" viewBox="0 0 352.14 238.09"><defs><style>.cls-1,.cls-2{fill:none;stroke:#000;stroke-miterlimit:10;stroke-width:0.5px;}.cls-1{stroke-dasharray:2;}.cls-3{fill:#a6a6a6;}.cls-4{fill:#666;}</style></defs><title>Estimate du dv</title><line class="cls-1" x1="189.95" y1="192.1" x2="352.09" y2="173.75"/><polyline class="cls-2" points="143.88 98.37 28.37 210.39 185.92 192.56"/><polygon points="140.2 98.11 143.65 98.6 144.03 102.06 146.79 95.55 140.2 98.11"/><polygon class="cls-3" points="141.18 98 146.32 96.01 143.87 98.38 141.18 98"/><polygon class="cls-4" points="144.17 101.08 146.32 96.01 143.87 98.38 144.17 101.08"/><polygon points="183.79 195.57 185.6 192.59 183.17 190.1 189.95 192.1 183.79 195.57"/><polygon class="cls-3" points="184.5 194.88 189.3 192.18 185.91 192.56 184.5 194.88"/><polygon class="cls-4" points="184.02 190.61 189.3 192.18 185.91 192.56 184.02 190.61"/><line class="cls-1" x1="244.95" y1="0.36" x2="146.79" y2="95.55"/><circle cx="27.9" cy="210.96" r="6.22"/><circle cx="255.52" cy="101.71" r="6.22"/><line class="cls-2" x1="198.89" y1="44.71" x2="253.09" y2="99.4"/><line class="cls-2" x1="267.38" y1="183.78" x2="256.02" y2="102.91"/><path d="M1.46,210.48c0-1.24,0-2.24-.08-3.16H3L3,209h0a3.81,3.81,0,0,1,3.44-1.88c2.34,0,4.1,2,4.1,4.92,0,3.48-2.12,5.2-4.4,5.2a3.39,3.39,0,0,1-3-1.52h0V221H1.46Zm1.74,2.58a4,4,0,0,0,.08.72,2.72,2.72,0,0,0,2.64,2.06c1.86,0,2.94-1.52,2.94-3.74,0-1.94-1-3.6-2.88-3.6a2.81,2.81,0,0,0-2.66,2.18,2.85,2.85,0,0,0-.12.72Z"/><polyline class="cls-2" points="268.53 192.43 269.55 201.27 29.36 229.1 28.27 219.68"/><polyline class="cls-2" points="191.14 39.05 185.14 32.87 14.34 198.71 20.34 204.89"/><path d="M167.77,218.88v11.7c0,.86,0,1.85.08,2.51h-1.58l-.08-1.69h0a3.58,3.58,0,0,1-3.3,1.9c-2.34,0-4.14-2-4.14-4.92,0-3.22,2-5.2,4.34-5.2a3.24,3.24,0,0,1,2.92,1.48h0v-5.78ZM166,227.34a3.11,3.11,0,0,0-.08-.74,2.59,2.59,0,0,0-2.54-2c-1.82,0-2.9,1.6-2.9,3.74,0,2,1,3.59,2.86,3.59a2.66,2.66,0,0,0,2.58-2.11A3.06,3.06,0,0,0,166,229Z"/><path d="M178.79,230.44c0,1,0,1.89.08,2.65h-1.56l-.1-1.58h0a3.64,3.64,0,0,1-3.2,1.79c-1.52,0-3.34-.83-3.34-4.24V223.4h1.76v5.36c0,1.84.56,3.08,2.16,3.08a2.54,2.54,0,0,0,2.32-1.6,2.57,2.57,0,0,0,.16-.9V223.4h1.76Z"/><path d="M273.7,85.56c0-1.24,0-2.24-.08-3.16h1.58l.08,1.66h0a3.81,3.81,0,0,1,3.44-1.88c2.34,0,4.1,2,4.1,4.92,0,3.48-2.12,5.2-4.4,5.2a3.39,3.39,0,0,1-3-1.52h0V96H273.7Zm1.74,2.58a4,4,0,0,0,.08.72,2.72,2.72,0,0,0,2.64,2.06c1.86,0,2.94-1.52,2.94-3.74,0-1.94-1-3.6-2.88-3.6a2.81,2.81,0,0,0-2.66,2.18,2.85,2.85,0,0,0-.12.72Z"/><path d="M286.64,78.38a23.07,23.07,0,0,1-1.88,4.74l-1.12.14a28.31,28.31,0,0,0,1.18-4.7Z"/><path d="M99.13,85.63V97.34c0,.86,0,1.84.08,2.5H97.63l-.08-1.68h0a3.58,3.58,0,0,1-3.3,1.9c-2.34,0-4.14-2-4.14-4.92,0-3.23,2-5.21,4.34-5.21a3.24,3.24,0,0,1,2.92,1.48h0V85.63Zm-1.76,8.46a3.16,3.16,0,0,0-.08-.74,2.59,2.59,0,0,0-2.54-2c-1.82,0-2.9,1.6-2.9,3.74,0,2,1,3.59,2.86,3.59a2.65,2.65,0,0,0,2.58-2.1,3.11,3.11,0,0,0,.08-.76Z"/><path d="M102.73,90.15l1.9,5.44a25.89,25.89,0,0,1,.78,2.49h.06c.22-.8.5-1.6.82-2.49l1.88-5.44H110l-3.8,9.69h-1.68l-3.68-9.69Z"/><path d="M159.68,171.09a5.69,5.69,0,0,1,3.46-1.06c2.76,0,5.26,2.48,5.26,7.08,0,5.08-2.56,7.66-5.38,7.66a3.9,3.9,0,0,1-4-4.2,4.61,4.61,0,0,1,4.38-4.88,3.75,3.75,0,0,1,3.26,1.74h0c0-.2,0-.44,0-.66,0-3.52-1.86-5.3-3.74-5.3a4.69,4.69,0,0,0-2.74.8Zm6.84,7.92a3.07,3.07,0,0,0-2.82-1.92,3.17,3.17,0,0,0-2.9,3.44c0,1.76,1,2.8,2.36,2.8C165,183.33,166.24,181.29,166.52,179Z"/><path d="M170.58,178c0-1.24,0-2.24-.08-3.16h1.58l.08,1.66h0a3.81,3.81,0,0,1,3.44-1.88c2.34,0,4.1,2,4.1,4.92,0,3.48-2.12,5.2-4.4,5.2a3.39,3.39,0,0,1-3-1.52h0v5.26h-1.74Zm1.74,2.58a4,4,0,0,0,.08.72,2.72,2.72,0,0,0,2.64,2.06c1.86,0,2.94-1.52,2.94-3.74,0-1.94-1-3.6-2.88-3.6a2.81,2.81,0,0,0-2.66,2.18,2.85,2.85,0,0,0-.12.72Z"/><path d="M180.48,185.35l5.58-14.5h1.36l-5.6,14.5Z"/><path d="M197.18,170.35v11.7c0,.86,0,1.84.08,2.5h-1.58l-.08-1.68h0a3.58,3.58,0,0,1-3.3,1.9c-2.34,0-4.14-2-4.14-4.92,0-3.22,2-5.2,4.34-5.2a3.24,3.24,0,0,1,2.92,1.48h0v-5.78Zm-1.76,8.46a3.11,3.11,0,0,0-.08-.74,2.59,2.59,0,0,0-2.54-2c-1.82,0-2.9,1.6-2.9,3.74,0,2,1,3.58,2.86,3.58a2.65,2.65,0,0,0,2.58-2.1,3.06,3.06,0,0,0,.08-.76Z"/><path d="M208.2,181.91c0,1,0,1.88.08,2.64h-1.56l-.1-1.58h0a3.64,3.64,0,0,1-3.2,1.8c-1.52,0-3.34-.84-3.34-4.24v-5.66h1.76v5.36c0,1.84.56,3.08,2.16,3.08a2.54,2.54,0,0,0,2.32-1.6,2.57,2.57,0,0,0,.16-.9v-5.94h1.76Z"/><path d="M148.19,103a5.7,5.7,0,0,1,3.47-1.06c2.76,0,5.26,2.48,5.26,7.08,0,5.08-2.56,7.66-5.38,7.66a3.9,3.9,0,0,1-4-4.2,4.61,4.61,0,0,1,4.39-4.88,3.75,3.75,0,0,1,3.26,1.74h0c0-.2,0-.44,0-.66,0-3.52-1.86-5.3-3.74-5.3a4.7,4.7,0,0,0-2.75.8ZM155,111a3.07,3.07,0,0,0-2.82-1.92,3.17,3.17,0,0,0-2.91,3.44c0,1.76,1,2.8,2.37,2.8C153.48,115.27,154.76,113.23,155,111Z"/><path d="M159.09,110c0-1.24,0-2.24-.08-3.16h1.58l.08,1.66h0a3.83,3.83,0,0,1,3.45-1.88c2.34,0,4.1,2,4.1,4.92,0,3.48-2.12,5.2-4.4,5.2a3.39,3.39,0,0,1-3-1.52h0v5.26h-1.74Zm1.74,2.58a3.93,3.93,0,0,0,.09.72,2.71,2.71,0,0,0,2.64,2.06c1.86,0,2.94-1.52,2.94-3.74,0-1.94-1-3.6-2.88-3.6a2.8,2.8,0,0,0-2.66,2.18,2.86,2.86,0,0,0-.13.72Z"/><path d="M169,117.29l5.58-14.5h1.37l-5.61,14.5Z"/><path d="M185.7,102.29V114c0,.86,0,1.84.08,2.5H184.2l-.08-1.68h0a3.6,3.6,0,0,1-3.31,1.9c-2.34,0-4.14-2-4.14-4.92,0-3.22,2-5.2,4.34-5.2a3.24,3.24,0,0,1,2.93,1.48h0v-5.78Zm-1.76,8.46a3.11,3.11,0,0,0-.08-.74,2.6,2.6,0,0,0-2.55-2c-1.82,0-2.9,1.6-2.9,3.74,0,2,1,3.58,2.86,3.58a2.65,2.65,0,0,0,2.59-2.1,3.06,3.06,0,0,0,.08-.76Z"/><path d="M189.29,106.81l1.9,5.44a24.89,24.89,0,0,1,.78,2.48H192c.22-.8.5-1.6.82-2.48l1.88-5.44h1.85l-3.81,9.68h-1.68l-3.68-9.68Z"/></svg>