<svg id="Layer_1" data-name="Layer 1" xmlns="http://www.w3.org/2000/svg" viewBox="0 0 239.96 216.42"><defs><style>.cls-1,.cls-2,.cls-3{fill:none;stroke:#000;stroke-miterlimit:10;}.cls-1{stroke-width:0.5px;}.cls-3{stroke-dasharray:2;}</style></defs><title>EWA r2</title><circle class="cls-1" cx="6.39" cy="6.39" r="6.14"/><circle class="cls-1" cx="188.13" cy="6.39" r="6.14"/><circle class="cls-1" cx="142.7" cy="6.39" r="6.14"/><circle class="cls-1" cx="97.26" cy="6.39" r="6.14"/><circle class="cls-1" cx="51.83" cy="6.39" r="6.14"/><circle class="cls-1" cx="233.57" cy="6.39" r="6.14"/><circle class="cls-1" cx="6.39" cy="51.65" r="6.14"/><circle class="cls-1" cx="188.13" cy="51.65" r="6.14"/><circle class="cls-1" cx="142.7" cy="51.65" r="6.14"/><circle class="cls-1" cx="97.26" cy="51.65" r="6.14"/><circle class="cls-1" cx="51.83" cy="51.65" r="6.14"/><circle class="cls-1" cx="233.57" cy="51.65" r="6.14"/><circle class="cls-1" cx="6.39" cy="96.9" r="6.14"/><circle class="cls-1" cx="188.13" cy="96.9" r="6.14"/><circle class="cls-1" cx="142.7" cy="96.9" r="6.14"/><circle class="cls-1" cx="97.26" cy="96.9" r="6.14"/><circle class="cls-1" cx="51.83" cy="96.9" r="6.14"/><circle class="cls-1" cx="233.57" cy="96.9" r="6.14"/><circle class="cls-1" cx="6.39" cy="142.15" r="6.14"/><circle class="cls-1" cx="188.13" cy="142.15" r="6.14"/><circle class="cls-1" cx="142.7" cy="142.15" r="6.14"/><circle class="cls-1" cx="97.26" cy="142.15" r="6.14"/><circle class="cls-1" cx="51.83" cy="142.15" r="6.14"/><circle class="cls-1" cx="233.57" cy="142.15" r="6.14"/><circle class="cls-1" cx="6.39" cy="187.4" r="6.14"/><circle class="cls-1" cx="188.13" cy="187.4" r="6.14"/><circle class="cls-1" cx="142.7" cy="187.4" r="6.14"/><circle class="cls-1" cx="97.26" cy="187.4" r="6.14"/><circle class="cls-1" cx="51.83" cy="187.4" r="6.14"/><circle class="cls-1" cx="233.57" cy="187.4" r="6.14"/><circle cx="103.99" cy="154.68" r="4.62"/><circle cx="170.15" cy="57.3" r="4.62"/><circle cx="136.8" cy="105.8" r="4.62"/><circle cx="62.81" cy="56.7" r="4.62"/><line class="cls-2" x1="62.67" y1="56.64" x2="211.2" y2="155.34"/><circle cx="211.7" cy="155.63" r="4.62"/><line class="cls-2" x1="169.66" y1="57.16" x2="103.34" y2="155.91"/><ellipse class="cls-3" cx="136.65" cy="105.77" rx="59.63" ry="89.64" transform="translate(-26.74 162.02) rotate(-56.74)"/><line class="cls-2" x1="137.11" y1="105.69" x2="187.67" y2="96.69"/><path d="M162.2,91.8c0-1.14,0-2.12-.08-3h1.54l.06,1.9h.08a2.9,2.9,0,0,1,2.68-2.12,1.9,1.9,0,0,1,.5.06v1.66a2.64,2.64,0,0,0-.6-.06A2.47,2.47,0,0,0,164,92.48a5,5,0,0,0-.08.82v5.16H162.2Z"/><path d="M167.52,92.4l1.26-1.18c1.66-1.5,2.52-2.44,2.52-3.46a1.36,1.36,0,0,0-1.52-1.4,3.06,3.06,0,0,0-1.68.62l-.42-.9a3.88,3.88,0,0,1,2.44-.84c1.88,0,2.66,1.18,2.66,2.26,0,1.5-1.14,2.6-2.66,3.94l-.62.56v0h3.42v1.1h-5.4Z"/></svg>