<svg id="Layer_1" data-name="Layer 1" xmlns="http://www.w3.org/2000/svg" viewBox="0 0 521.93 358.43"><defs><style>.cls-1{fill:#ccc;}.cls-2{fill:none;}.cls-2,.cls-5{stroke:#000;stroke-miterlimit:10;stroke-width:0.5px;}.cls-3{opacity:0.8;}.cls-4{fill:#f2f2f2;}.cls-5{fill:#fff;}</style></defs><title>Ortho quad sampling rate</title><rect class="cls-1" x="168.3" y="13.18" width="260.5" height="260.5"/><path d="M428.55,13.43v260h-260v-260h260m.5-.5h-261v261h261v-261Z"/><line class="cls-2" x1="96.8" y1="344.95" x2="168.05" y2="273.7"/><line class="cls-2" x1="96.39" y1="84.46" x2="167.64" y2="13.21"/><line class="cls-2" x1="356.05" y1="84.87" x2="427.92" y2="13"/><line class="cls-2" x1="356.88" y1="345.36" x2="429.79" y2="272.45"/><circle cx="168.68" cy="272.66" r="6.22"/><path d="M434.74,272.53a6.22,6.22,0,1,1-6.22-6.22,6.22,6.22,0,0,1,6.22,6.22"/><circle cx="168.06" cy="13.36" r="6.22"/><circle cx="427.64" cy="13.61" r="6.22"/><g class="cls-3"><rect class="cls-4" x="96.3" y="85.18" width="260.5" height="260.5"/><path d="M356.55,85.43v260h-260v-260h260m.5-.5h-261v261h261v-261Z"/></g><circle class="cls-5" cx="96.55" cy="85.88" r="6.22"/><circle class="cls-5" cx="356.1" cy="85.79" r="6.22"/><circle class="cls-5" cx="356.71" cy="344.08" r="6.22"/><circle class="cls-5" cx="96.6" cy="344.77" r="6.22"/><path d="M380,336.88a13.19,13.19,0,0,0-2.52,8.18,13.51,13.51,0,0,0,2.52,8.13h-1.38a12.94,12.94,0,0,1-2.62-8.13,13.2,13.2,0,0,1,2.62-8.18Z"/><path d="M382.7,341.08l1.38,2.08c.36.54.66,1,1,1.58h.06c.32-.58.64-1.08,1-1.6l1.36-2.06h1.9l-3.3,4.68,3.4,5h-2L386,348.58c-.38-.56-.7-1.1-1-1.68h0c-.32.58-.66,1.1-1,1.68l-1.4,2.19h-1.94l3.44-4.95-3.28-4.74Z"/><path d="M390.48,344v-1.2H400.8V344Zm0,3.92v-1.2H400.8v1.2Z"/><path d="M403.88,341.08l1.38,2.08c.36.54.66,1,1,1.58h.06c.32-.58.64-1.08,1-1.6l1.36-2.06h1.9l-3.3,4.68,3.4,5h-2l-1.42-2.19c-.38-.56-.7-1.1-1-1.68h0c-.32.58-.66,1.1-1,1.68l-1.4,2.19h-1.94l3.44-4.95-3.28-4.74Z"/><path d="M411.71,349.54c0-.66,0-1.23,0-1.76h.9l0,1.11h0a1.69,1.69,0,0,1,1.57-1.23,1.36,1.36,0,0,1,.29,0v1a1.25,1.25,0,0,0-.35,0,1.45,1.45,0,0,0-1.38,1.32,3.32,3.32,0,0,0,0,.48v3h-1Z"/><path d="M415,353.23a28.78,28.78,0,0,0,1.2-4.78l2-.2a24.38,24.38,0,0,1-1.9,4.86Z"/><path d="M425.15,341.08l2.12,5.72c.22.64.46,1.41.62,2h0c.18-.58.38-1.33.62-2l1.92-5.68h1.86l-2.64,6.9c-1.26,3.33-2.12,5-3.32,6.07a4.77,4.77,0,0,1-2.16,1.14l-.44-1.48a4.66,4.66,0,0,0,1.54-.86,5.34,5.34,0,0,0,1.48-2,1.26,1.26,0,0,0,.14-.42,1.53,1.53,0,0,0-.12-.46l-3.58-8.93Z"/><path d="M433.27,344v-1.2H443.6V344Zm0,3.92v-1.2H443.6v1.2Z"/><path d="M446.49,341.08l2.12,5.72c.22.64.46,1.41.62,2h0c.18-.58.38-1.33.62-2l1.92-5.68h1.86L451,348c-1.26,3.33-2.12,5-3.32,6.07a4.77,4.77,0,0,1-2.16,1.14l-.44-1.48a4.66,4.66,0,0,0,1.54-.86,5.34,5.34,0,0,0,1.48-2,1.26,1.26,0,0,0,.14-.42,1.53,1.53,0,0,0-.12-.46l-3.58-8.93Z"/><path d="M454.66,349.54c0-.66,0-1.23,0-1.76h.89l0,1.11h.05a1.67,1.67,0,0,1,1.56-1.23,1.29,1.29,0,0,1,.29,0v1a1.25,1.25,0,0,0-.35,0,1.45,1.45,0,0,0-1.38,1.32,3.32,3.32,0,0,0,0,.48v3h-1Z"/><path d="M458,353.19a13.5,13.5,0,0,0,2.53-8.19,13.2,13.2,0,0,0-2.53-8.12h1.37A12.74,12.74,0,0,1,462,345a13,13,0,0,1-2.62,8.17Z"/><path d="M448.57,265a13.19,13.19,0,0,0-2.52,8.18,13.48,13.48,0,0,0,2.52,8.12h-1.38a12.93,12.93,0,0,1-2.62-8.12,13.2,13.2,0,0,1,2.62-8.18Z"/><path d="M450.19,277.09a4.61,4.61,0,0,0,2.32.7c1.28,0,1.88-.64,1.88-1.44s-.5-1.3-1.8-1.78C450.85,274,450,273,450,271.83c0-1.56,1.26-2.84,3.34-2.84a4.83,4.83,0,0,1,2.38.6l-.44,1.28a3.77,3.77,0,0,0-2-.56c-1,0-1.62.6-1.62,1.32s.58,1.16,1.84,1.64c1.68.64,2.54,1.48,2.54,2.92,0,1.7-1.32,2.9-3.62,2.9a5.52,5.52,0,0,1-2.72-.66Z"/><path d="M457.69,272.15V271H468v1.2Zm0,3.92v-1.2H468v1.2Z"/><path d="M473.53,267.53h0l-2.26,1.22-.34-1.34,2.84-1.52h1.5v13h-1.7Z"/><path d="M479.39,281.35a28.78,28.78,0,0,0,1.2-4.78l2-.2a24.38,24.38,0,0,1-1.9,4.86Z"/><path d="M491,266.43v2.78h2.52v1.34H491v5.22c0,1.2.34,1.88,1.32,1.88a3.92,3.92,0,0,0,1-.12l.08,1.32a4.31,4.31,0,0,1-1.56.24,2.44,2.44,0,0,1-1.9-.74,3.59,3.59,0,0,1-.68-2.52v-5.28h-1.5v-1.34h1.5v-2.32Z"/><path d="M494.87,272.15V271h10.32v1.2Zm0,3.92v-1.2h10.32v1.2Z"/><path d="M510.71,267.53h0l-2.26,1.22-.34-1.34,2.84-1.52h1.5v13h-1.7Z"/><path d="M516.65,281.31a13.54,13.54,0,0,0,2.52-8.18,13.26,13.26,0,0,0-2.52-8.12H518a12.74,12.74,0,0,1,2.62,8.14,13,13,0,0,1-2.62,8.16Z"/><path d="M77.57,2.86A13.19,13.19,0,0,0,75.05,11a13.48,13.48,0,0,0,2.52,8.12H76.19A12.93,12.93,0,0,1,73.57,11a13.2,13.2,0,0,1,2.62-8.18Z"/><path d="M79.19,14.94a4.61,4.61,0,0,0,2.32.7c1.28,0,1.88-.64,1.88-1.44s-.5-1.3-1.8-1.78C79.85,11.8,79,10.84,79,9.68c0-1.56,1.26-2.84,3.34-2.84a4.83,4.83,0,0,1,2.38.6l-.44,1.28a3.77,3.77,0,0,0-2-.56c-1,0-1.62.6-1.62,1.32s.58,1.16,1.84,1.64c1.68.64,2.54,1.48,2.54,2.92,0,1.7-1.32,2.9-3.62,2.9a5.52,5.52,0,0,1-2.72-.66Z"/><path d="M86.69,10V8.8H97V10Zm0,3.92v-1.2H97v1.2Z"/><path d="M107.35,10.1c0,4.42-1.64,6.86-4.52,6.86-2.54,0-4.26-2.38-4.3-6.68s1.88-6.76,4.52-6.76S107.35,6,107.35,10.1Zm-7.06.2c0,3.38,1,5.3,2.64,5.3,1.8,0,2.66-2.1,2.66-5.42s-.82-5.3-2.64-5.3C101.41,4.88,100.29,6.76,100.29,10.3Z"/><path d="M108.39,19.2a28.78,28.78,0,0,0,1.2-4.78l2-.2a24.38,24.38,0,0,1-1.9,4.86Z"/><path d="M120,4.28V7.06h2.52V8.4H120v5.22c0,1.2.34,1.88,1.32,1.88a3.92,3.92,0,0,0,1-.12l.08,1.32a4.31,4.31,0,0,1-1.56.24,2.44,2.44,0,0,1-1.9-.74,3.59,3.59,0,0,1-.68-2.52V8.4h-1.5V7.06h1.5V4.74Z"/><path d="M123.87,10V8.8h10.32V10Zm0,3.92v-1.2h10.32v1.2Z"/><path d="M144.53,10.1c0,4.42-1.64,6.86-4.52,6.86-2.54,0-4.26-2.38-4.3-6.68s1.88-6.76,4.52-6.76S144.53,6,144.53,10.1Zm-7.06.2c0,3.38,1,5.3,2.64,5.3,1.8,0,2.66-2.1,2.66-5.42s-.82-5.3-2.64-5.3C138.59,4.88,137.47,6.76,137.47,10.3Z"/><path d="M145.65,19.16A13.54,13.54,0,0,0,148.17,11a13.26,13.26,0,0,0-2.52-8.12H147A12.74,12.74,0,0,1,149.63,11,13,13,0,0,1,147,19.16Z"/><path d="M5.28,77.64a13.19,13.19,0,0,0-2.52,8.18,13.48,13.48,0,0,0,2.52,8.12H3.9a12.93,12.93,0,0,1-2.62-8.12A13.2,13.2,0,0,1,3.9,77.64Z"/><path d="M8,81.84l1.38,2.08c.36.54.66,1,1,1.58h.06c.32-.58.64-1.08,1-1.6l1.36-2.06h1.9l-3.3,4.68,3.4,5h-2l-1.42-2.18c-.38-.56-.7-1.1-1-1.68h0c-.32.58-.66,1.1-1,1.68l-1.4,2.18H5.84l3.44-4.94L6,81.84Z"/><path d="M15.74,84.78v-1.2H26.06v1.2Zm0,3.92V87.5H26.06v1.2Z"/><path d="M36.4,84.88c0,4.42-1.64,6.86-4.52,6.86-2.54,0-4.26-2.38-4.3-6.68s1.88-6.76,4.52-6.76S36.4,80.74,36.4,84.88Zm-7.06.2c0,3.38,1,5.3,2.64,5.3,1.8,0,2.66-2.1,2.66-5.42s-.82-5.3-2.64-5.3C30.46,79.66,29.34,81.54,29.34,85.08Z"/><path d="M37.44,94a28.78,28.78,0,0,0,1.2-4.78l2-.2a24.38,24.38,0,0,1-1.9,4.86Z"/><path d="M47.6,81.84l2.12,5.72c.22.64.46,1.4.62,2h0c.18-.58.38-1.32.62-2l1.92-5.68h1.86l-2.64,6.9c-1.26,3.32-2.12,5-3.32,6.06a4.77,4.77,0,0,1-2.16,1.14l-.44-1.48a4.66,4.66,0,0,0,1.54-.86,5.34,5.34,0,0,0,1.48-2,1.26,1.26,0,0,0,.14-.42,1.53,1.53,0,0,0-.12-.46l-3.58-8.92Z"/><path d="M55.72,84.78v-1.2H66v1.2Zm0,3.92V87.5H66v1.2Z"/><path d="M76.38,84.88c0,4.42-1.64,6.86-4.52,6.86-2.54,0-4.26-2.38-4.3-6.68s1.88-6.76,4.52-6.76S76.38,80.74,76.38,84.88Zm-7.06.2c0,3.38,1,5.3,2.64,5.3,1.8,0,2.66-2.1,2.66-5.42s-.82-5.3-2.64-5.3C70.44,79.66,69.32,81.54,69.32,85.08Z"/><path d="M77.5,93.94A13.54,13.54,0,0,0,80,85.76a13.26,13.26,0,0,0-2.52-8.12h1.36a12.74,12.74,0,0,1,2.62,8.14,13,13,0,0,1-2.62,8.16Z"/></svg>