<svg id="Layer_1" data-name="Layer 1" xmlns="http://www.w3.org/2000/svg" viewBox="0 0 367.67 222.16"><defs><style>.cls-1,.cls-2,.cls-5{fill:none;stroke-miterlimit:10;}.cls-1,.cls-2{stroke:#000;}.cls-2{stroke-dasharray:2 2;}.cls-3{fill:#a6a6a6;}.cls-4{fill:#666;}.cls-5{stroke:#0071bc;}.cls-6{fill:#0071bc;}.cls-7{fill:#a6cde8;}.cls-8{fill:#66aad7;}</style></defs><title>Perlin dot products</title><rect class="cls-1" x="151.11" y="0.88" width="216.07" height="216.07"/><circle cx="221.16" cy="97.3" r="4.76"/><line class="cls-2" x1="150.79" y1="216.66" x2="214.91" y2="107.91"/><polygon points="217.16 114.93 214.58 108.47 207.67 109.34 219.02 100.93 217.16 114.93"/><polygon class="cls-3" points="216.91 112.98 218.36 102.06 214.9 107.92 216.91 112.98"/><polygon class="cls-4" points="209.5 108.61 218.36 102.06 214.9 107.92 209.5 108.61"/><line class="cls-2" x1="151.29" y1="0.89" x2="213.73" y2="86.76"/><polygon points="206.39 86.03 213.35 86.24 215.3 79.56 218.5 93.32 206.39 86.03"/><polygon class="cls-3" points="208.28 86.58 217.73 92.25 213.72 86.75 208.28 86.58"/><polygon class="cls-4" points="215.24 81.53 217.73 92.25 213.72 86.75 215.24 81.53"/><line class="cls-2" x1="367.04" y1="0.42" x2="231.27" y2="91.18"/><polygon points="232.29 83.87 231.81 90.81 238.41 93.02 224.53 95.68 232.29 83.87"/><polygon class="cls-3" points="231.67 85.74 225.63 94.95 231.29 91.16 231.67 85.74"/><polygon class="cls-4" points="236.45 92.89 225.63 94.95 231.29 91.16 236.45 92.89"/><line class="cls-2" x1="367.3" y1="216.92" x2="230.55" y2="105.27"/><polygon points="237.83 104.11 231.05 105.68 230.87 112.63 224.27 100.14 237.83 104.11"/><polygon class="cls-3" points="235.87 104.05 225.29 100.97 230.56 105.28 235.87 104.05"/><polygon class="cls-4" points="230.43 110.71 225.29 100.97 230.56 105.28 230.43 110.71"/><line class="cls-5" x1="151.05" y1="216.66" x2="358.93" y2="216.66"/><polygon class="cls-6" points="354.02 222.16 358.28 216.66 354.02 211.16 367.04 216.66 354.02 222.16"/><polygon class="cls-7" points="355.58 220.96 365.72 216.66 358.91 216.66 355.58 220.96"/><polygon class="cls-8" points="355.58 212.36 365.72 216.66 358.91 216.66 355.58 212.36"/><line class="cls-5" x1="151.04" y1="0.76" x2="4.05" y2="147.75"/><polygon class="cls-6" points="3.63 140.39 4.51 147.29 11.41 148.17 -1.68 153.48 3.63 140.39"/><polygon class="cls-7" points="3.38 142.34 -0.75 152.56 4.07 147.74 3.38 142.34"/><polygon class="cls-8" points="9.46 148.42 -0.75 152.56 4.07 147.74 9.46 148.42"/><line class="cls-5" x1="366.89" y1="1.13" x2="219.9" y2="148.12"/><polygon class="cls-6" points="219.48 140.75 220.36 147.66 227.26 148.54 214.17 153.85 219.48 140.75"/><polygon class="cls-7" points="219.23 142.71 215.1 152.92 219.91 148.1 219.23 142.71"/><polygon class="cls-8" points="225.31 148.79 215.1 152.92 219.91 148.1 225.31 148.79"/><line class="cls-5" x1="365.82" y1="214.31" x2="218.83" y2="67.31"/><polygon class="cls-6" points="226.19 66.89 219.29 67.77 218.41 74.68 213.1 61.58 226.19 66.89"/><polygon class="cls-7" points="224.24 66.64 214.03 62.51 218.84 67.33 224.24 66.64"/><polygon class="cls-8" points="218.16 72.72 214.03 62.51 218.84 67.33 218.16 72.72"/><path class="cls-1" d="M169.13,25.46A30.58,30.58,0,0,1,150.7,31.6a30.67,30.67,0,0,1-21.75-9"/><path class="cls-1" d="M341.3,17.17a30.13,30.13,0,0,0,4.21,5.2"/><path class="cls-1" d="M344.31,197.87a30,30,0,0,1,2.57-2.72"/><path class="cls-1" d="M163.43,194.9a24.94,24.94,0,0,1,12.37,21.55"/></svg>