<svg id="Layer_1" data-name="Layer 1" xmlns="http://www.w3.org/2000/svg" viewBox="0 0 239.96 216.42"><defs><style>.cls-1,.cls-2{fill:none;stroke:#000;stroke-miterlimit:10;}.cls-1{stroke-width:0.5px;}</style></defs><title>Texture may filter many texels</title><circle class="cls-1" cx="6.39" cy="6.39" r="6.14"/><circle class="cls-1" cx="210.85" cy="6.39" r="6.14"/><circle class="cls-1" cx="188.13" cy="6.39" r="6.14"/><circle class="cls-1" cx="165.41" cy="6.39" r="6.14"/><circle class="cls-1" cx="142.7" cy="6.39" r="6.14"/><circle class="cls-1" cx="119.98" cy="6.39" r="6.14"/><circle class="cls-1" cx="97.26" cy="6.39" r="6.14"/><circle class="cls-1" cx="74.55" cy="6.39" r="6.14"/><circle class="cls-1" cx="51.83" cy="6.39" r="6.14"/><circle class="cls-1" cx="29.11" cy="6.39" r="6.14"/><circle class="cls-1" cx="233.57" cy="6.39" r="6.14"/><circle class="cls-1" cx="6.39" cy="29.02" r="6.14"/><circle class="cls-1" cx="210.85" cy="29.02" r="6.14"/><circle class="cls-1" cx="188.13" cy="29.02" r="6.14"/><circle class="cls-1" cx="165.41" cy="29.02" r="6.14"/><circle class="cls-1" cx="142.7" cy="29.02" r="6.14"/><circle class="cls-1" cx="119.98" cy="29.02" r="6.14"/><circle class="cls-1" cx="97.26" cy="29.02" r="6.14"/><circle class="cls-1" cx="74.55" cy="29.02" r="6.14"/><circle class="cls-1" cx="51.83" cy="29.02" r="6.14"/><circle class="cls-1" cx="29.11" cy="29.02" r="6.14"/><circle class="cls-1" cx="233.57" cy="29.02" r="6.14"/><circle class="cls-1" cx="6.39" cy="51.65" r="6.14"/><circle class="cls-1" cx="210.85" cy="51.65" r="6.14"/><circle class="cls-1" cx="188.13" cy="51.65" r="6.14"/><circle class="cls-1" cx="165.41" cy="51.65" r="6.14"/><circle class="cls-1" cx="142.7" cy="51.65" r="6.14"/><circle class="cls-1" cx="119.98" cy="51.65" r="6.14"/><circle class="cls-1" cx="97.26" cy="51.65" r="6.14"/><circle class="cls-1" cx="74.55" cy="51.65" r="6.14"/><circle class="cls-1" cx="51.83" cy="51.65" r="6.14"/><circle class="cls-1" cx="29.11" cy="51.65" r="6.14"/><circle class="cls-1" cx="233.57" cy="51.65" r="6.14"/><circle class="cls-1" cx="6.39" cy="74.27" r="6.14"/><circle class="cls-1" cx="210.85" cy="74.27" r="6.14"/><circle class="cls-1" cx="188.13" cy="74.27" r="6.14"/><circle class="cls-1" cx="165.41" cy="74.27" r="6.14"/><circle class="cls-1" cx="142.7" cy="74.27" r="6.14"/><circle class="cls-1" cx="119.98" cy="74.27" r="6.14"/><circle class="cls-1" cx="97.26" cy="74.27" r="6.14"/><circle class="cls-1" cx="74.55" cy="74.27" r="6.14"/><circle class="cls-1" cx="51.83" cy="74.27" r="6.14"/><circle class="cls-1" cx="29.11" cy="74.27" r="6.14"/><circle class="cls-1" cx="233.57" cy="74.27" r="6.14"/><circle class="cls-1" cx="6.39" cy="96.9" r="6.14"/><circle class="cls-1" cx="210.85" cy="96.9" r="6.14"/><circle class="cls-1" cx="188.13" cy="96.9" r="6.14"/><circle class="cls-1" cx="165.41" cy="96.9" r="6.14"/><circle class="cls-1" cx="142.7" cy="96.9" r="6.14"/><circle class="cls-1" cx="119.98" cy="96.9" r="6.14"/><circle class="cls-1" cx="97.26" cy="96.9" r="6.14"/><circle class="cls-1" cx="74.55" cy="96.9" r="6.14"/><circle class="cls-1" cx="51.83" cy="96.9" r="6.14"/><circle class="cls-1" cx="29.11" cy="96.9" r="6.14"/><circle class="cls-1" cx="233.57" cy="96.9" r="6.14"/><circle class="cls-1" cx="6.39" cy="119.53" r="6.14"/><circle class="cls-1" cx="210.85" cy="119.53" r="6.14"/><circle class="cls-1" cx="188.13" cy="119.53" r="6.14"/><circle class="cls-1" cx="165.41" cy="119.53" r="6.14"/><circle class="cls-1" cx="142.7" cy="119.53" r="6.14"/><circle class="cls-1" cx="119.98" cy="119.53" r="6.14"/><circle class="cls-1" cx="97.26" cy="119.53" r="6.14"/><circle class="cls-1" cx="74.55" cy="119.53" r="6.14"/><circle class="cls-1" cx="51.83" cy="119.53" r="6.14"/><circle class="cls-1" cx="29.11" cy="119.53" r="6.14"/><circle class="cls-1" cx="233.57" cy="119.53" r="6.14"/><circle class="cls-1" cx="6.39" cy="142.15" r="6.14"/><circle class="cls-1" cx="210.85" cy="142.15" r="6.14"/><circle class="cls-1" cx="188.13" cy="142.15" r="6.14"/><circle class="cls-1" cx="165.41" cy="142.15" r="6.14"/><circle class="cls-1" cx="142.7" cy="142.15" r="6.14"/><circle class="cls-1" cx="119.98" cy="142.15" r="6.14"/><circle class="cls-1" cx="97.26" cy="142.15" r="6.14"/><circle class="cls-1" cx="74.55" cy="142.15" r="6.14"/><circle class="cls-1" cx="51.83" cy="142.15" r="6.14"/><circle class="cls-1" cx="29.11" cy="142.15" r="6.14"/><circle class="cls-1" cx="233.57" cy="142.15" r="6.14"/><circle class="cls-1" cx="6.39" cy="164.78" r="6.14"/><circle class="cls-1" cx="210.85" cy="164.78" r="6.14"/><circle class="cls-1" cx="188.13" cy="164.78" r="6.14"/><circle class="cls-1" cx="165.41" cy="164.78" r="6.14"/><circle class="cls-1" cx="142.7" cy="164.78" r="6.14"/><circle class="cls-1" cx="119.98" cy="164.78" r="6.14"/><circle class="cls-1" cx="97.26" cy="164.78" r="6.14"/><circle class="cls-1" cx="74.55" cy="164.78" r="6.14"/><circle class="cls-1" cx="51.83" cy="164.78" r="6.14"/><circle class="cls-1" cx="29.11" cy="164.78" r="6.14"/><circle class="cls-1" cx="233.57" cy="164.78" r="6.14"/><circle class="cls-1" cx="6.39" cy="187.4" r="6.14"/><circle class="cls-1" cx="210.85" cy="187.4" r="6.14"/><circle class="cls-1" cx="188.13" cy="187.4" r="6.14"/><circle class="cls-1" cx="165.41" cy="187.4" r="6.14"/><circle class="cls-1" cx="142.7" cy="187.4" r="6.14"/><circle class="cls-1" cx="119.98" cy="187.4" r="6.14"/><circle class="cls-1" cx="97.26" cy="187.4" r="6.14"/><circle class="cls-1" cx="74.55" cy="187.4" r="6.14"/><circle class="cls-1" cx="51.83" cy="187.4" r="6.14"/><circle class="cls-1" cx="29.11" cy="187.4" r="6.14"/><circle class="cls-1" cx="233.57" cy="187.4" r="6.14"/><circle class="cls-1" cx="6.39" cy="210.03" r="6.14"/><circle class="cls-1" cx="210.85" cy="210.03" r="6.14"/><circle class="cls-1" cx="188.13" cy="210.03" r="6.14"/><circle class="cls-1" cx="165.41" cy="210.03" r="6.14"/><circle class="cls-1" cx="142.7" cy="210.03" r="6.14"/><circle class="cls-1" cx="119.98" cy="210.03" r="6.14"/><circle class="cls-1" cx="97.26" cy="210.03" r="6.14"/><circle class="cls-1" cx="74.55" cy="210.03" r="6.14"/><circle class="cls-1" cx="51.83" cy="210.03" r="6.14"/><circle class="cls-1" cx="29.11" cy="210.03" r="6.14"/><circle class="cls-1" cx="233.57" cy="210.03" r="6.14"/><circle cx="130.39" cy="106.64" r="4.09"/><circle cx="86.37" cy="41.47" r="4.09"/><line class="cls-2" x1="86.28" y1="41.37" x2="174.59" y2="172.31"/><circle cx="174.9" cy="172.71" r="4.09"/><circle cx="87.03" cy="135.58" r="4.09"/><circle cx="174.07" cy="78.18" r="4.09"/><line class="cls-2" x1="173.71" y1="77.89" x2="86.08" y2="136.38"/></svg>