<svg id="Layer_1" data-name="Layer 1" xmlns="http://www.w3.org/2000/svg" viewBox="0 0 613.73 382.66"><defs><style>.cls-1,.cls-5,.cls-6{fill:none;}.cls-1,.cls-4,.cls-5,.cls-6{stroke:#000;stroke-miterlimit:10;}.cls-2{fill:#a6a6a6;}.cls-3{fill:#666;}.cls-5{stroke-dasharray:2;}.cls-6{stroke-width:0.5px;}</style></defs><title>BSDF theta phi angles</title><path class="cls-1" d="M130.3,224a178.72,178.72,0,0,1,357.44,0"/><ellipse class="cls-1" cx="308.71" cy="224.1" rx="177.94" ry="48.82"/><line class="cls-1" x1="307.53" y1="226.27" x2="307.53" y2="54.68"/><polygon points="313.03 59.59 307.53 55.33 302.02 59.59 307.53 46.58 313.03 59.59"/><polygon class="cls-2" points="311.83 58.03 307.53 47.89 307.53 54.7 311.83 58.03"/><polygon class="cls-3" points="303.23 58.03 307.53 47.89 307.53 54.7 303.23 58.03"/><path d="M304.13,35.53l5.26-6.84c.5-.63,1-1.18,1.51-1.8v-.05h-6.29v-1.7h8.86l0,1.32-5.19,6.74c-.48.65-1,1.23-1.49,1.83v0h6.8v1.68h-9.44Z"/><circle class="cls-4" cx="307.77" cy="225.68" r="2.25"/><line class="cls-1" x1="307.55" y1="225.53" x2="478.37" y2="225.53"/><polygon points="473.46 231.03 477.71 225.53 473.46 220.03 486.47 225.53 473.46 231.03"/><polygon class="cls-2" points="475.01 229.83 485.16 225.53 478.35 225.53 475.01 229.83"/><polygon class="cls-3" points="475.01 221.23 485.16 225.53 478.35 225.53 475.01 221.23"/><line class="cls-1" x1="309.09" y1="223.36" x2="267.4" y2="265.06"/><polygon points="266.98 257.69 267.86 264.6 274.76 265.48 261.67 270.79 266.98 257.69"/><polygon class="cls-2" points="266.72 259.64 262.59 269.86 267.41 265.04 266.72 259.64"/><polygon class="cls-3" points="272.8 265.72 262.59 269.86 267.41 265.04 272.8 265.72"/><path d="M492.88,222.25l1.38,2.08c.36.54.66,1,1,1.58h.06c.32-.58.64-1.08,1-1.6l1.36-2.06h1.9l-3.3,4.68,3.4,5h-2l-1.42-2.18c-.38-.56-.7-1.1-1-1.68h0c-.32.58-.66,1.1-1,1.68l-1.4,2.18h-1.94L494.2,227l-3.28-4.74Z"/><path d="M252.47,278l2.12,5.72c.22.64.46,1.4.62,2h0c.18-.58.38-1.32.62-2l1.92-5.68h1.86l-2.64,6.9c-1.26,3.32-2.12,5-3.32,6.06a4.77,4.77,0,0,1-2.16,1.14l-.44-1.48a4.66,4.66,0,0,0,1.54-.86,5.34,5.34,0,0,0,1.48-2,1.26,1.26,0,0,0,.14-.42,1.53,1.53,0,0,0-.12-.46L250.55,278Z"/><line class="cls-1" x1="308.66" y1="224.42" x2="391.56" y2="126.98"/><polygon points="392.57 134.29 391.13 127.48 384.18 127.15 396.81 120.81 392.57 134.29"/><polygon class="cls-2" points="392.66 132.32 395.96 121.81 391.54 127 392.66 132.32"/><polygon class="cls-3" points="386.11 126.75 395.96 121.81 391.54 127 386.11 126.75"/><line class="cls-5" x1="396.81" y1="247.1" x2="307.94" y2="225.81"/><line class="cls-5" x1="396.81" y1="120.81" x2="396.81" y2="247.1"/><path class="cls-1" d="M366.87,224.93a60.6,60.6,0,0,1,.58,8.36c0,1.94,0,4.43-.2,6.32"/><path d="M382.62,228.07a4.63,4.63,0,0,0-2.27,4,3.6,3.6,0,0,0,3.14,3.84V230c0-2.08,1.15-2.92,2.47-2.92,1.9,0,4,1.82,4,4.78a5.11,5.11,0,0,1-4.8,5.3V241h-1.63v-3.76a4.9,4.9,0,0,1-4.88-5.08,5.54,5.54,0,0,1,3.32-5Zm2.5,7.84c1.9-.26,3.12-1.74,3.12-4,0-2-1.16-3.54-2.28-3.54-.5,0-.84.44-.84,1.36Z"/><path d="M337.94,137.61c0-4.08,1.66-7.2,4.68-7.2s4.5,2.9,4.5,7.2c0,4.5-1.46,7.44-4.56,7.44C339.7,145.05,337.94,142.55,337.94,137.61Zm7.44-.76c0-2.84-.92-5.14-2.86-5.14-1.78,0-2.84,2.42-2.84,5.14Zm-5.7,1.32c0,3.56,1.2,5.58,2.92,5.58,1.88,0,2.78-2.32,2.78-5.58Z"/><path class="cls-1" d="M307.71,147.77a77.23,77.23,0,0,1,50.2,18.43"/><polygon class="cls-6" points="613.15 113.41 212.03 111.22 0.58 333.71 401.7 335.91 613.15 113.41"/><line class="cls-5" x1="396.3" y1="121.01" x2="307.44" y2="99.73"/><path d="M336.47,96.85a4.55,4.55,0,0,0,2.32.7c1.28,0,1.88-.64,1.88-1.45s-.5-1.3-1.8-1.78c-1.74-.62-2.56-1.58-2.56-2.74,0-1.56,1.25-2.84,3.34-2.84a4.83,4.83,0,0,1,2.38.6l-.44,1.28a3.77,3.77,0,0,0-2-.56c-1.05,0-1.63.6-1.63,1.32s.58,1.16,1.85,1.64c1.68.64,2.54,1.48,2.54,2.92,0,1.71-1.32,2.91-3.62,2.91a5.53,5.53,0,0,1-2.73-.66Z"/><path d="M346.59,86.24a1.1,1.1,0,0,1-2.19,0,1.07,1.07,0,0,1,1.11-1.1A1,1,0,0,1,346.59,86.24Zm-2,12.41V89h1.77v9.69Z"/><path d="M349.3,91.58c0-1,0-1.82-.08-2.62h1.56l.11,1.6h0a3.54,3.54,0,0,1,3.2-1.82c1.34,0,3.42.8,3.42,4.12v5.79h-1.76V93.06c0-1.56-.58-2.86-2.24-2.86a2.58,2.58,0,0,0-2.49,2.62v5.83H349.3Z"/><path d="M363.94,91.42c0-4.08,1.66-7.2,4.69-7.2s4.5,2.9,4.5,7.2c0,4.5-1.46,7.45-4.57,7.45C365.7,98.87,363.94,96.37,363.94,91.42Zm7.45-.76c0-2.84-.92-5.14-2.87-5.14-1.78,0-2.84,2.42-2.84,5.14ZM365.68,92c0,3.56,1.21,5.59,2.92,5.59,1.89,0,2.79-2.33,2.79-5.59Z"/></svg>