<svg id="Layer_1" data-name="Layer 1" xmlns="http://www.w3.org/2000/svg" viewBox="0 0 514.58 270.55"><defs><style>.cls-1,.cls-4{fill:none;stroke:#000;stroke-miterlimit:10;}.cls-2{fill:#a6a6a6;}.cls-3{fill:#666;}.cls-4{stroke-width:0.5px;}</style></defs><title>BSDF coordinate system</title><polyline class="cls-1" points="244.55 33.45 244.55 141.74 353.24 141.74"/><polygon points="239.05 38.37 244.55 34.1 250.06 38.37 244.55 25.35 239.05 38.37"/><polygon class="cls-2" points="240.25 36.81 244.55 26.66 244.55 33.47 240.25 36.81"/><polygon class="cls-3" points="248.85 36.81 244.55 26.66 244.55 33.47 248.85 36.81"/><polygon points="348.33 147.24 352.59 141.74 348.33 136.23 361.34 141.74 348.33 147.24"/><polygon class="cls-2" points="349.89 146.04 360.03 141.74 353.22 141.74 349.89 146.04"/><polygon class="cls-3" points="349.89 137.44 360.03 141.74 353.22 141.74 349.89 137.44"/><line class="cls-1" x1="244.64" y1="141.48" x2="168.08" y2="218.04"/><polygon points="167.66 210.68 168.54 217.58 175.44 218.46 162.35 223.77 167.66 210.68"/><polygon class="cls-2" points="167.4 212.63 163.27 222.84 168.09 218.03 167.4 212.63"/><polygon class="cls-3" points="173.48 218.71 163.27 222.84 168.09 218.03 173.48 218.71"/><path d="M238.71,9.68c0-1,0-1.82-.08-2.62h1.56l.1,1.6h0a3.56,3.56,0,0,1,3.2-1.82c1.34,0,3.42.8,3.42,4.12v5.78h-1.76V11.16c0-1.56-.58-2.86-2.24-2.86a2.5,2.5,0,0,0-2.36,1.8,2.53,2.53,0,0,0-.12.82v5.82h-1.76Z"/><path d="M366.17,144a4.61,4.61,0,0,0,2.32.7c1.28,0,1.89-.64,1.89-1.44s-.51-1.3-1.81-1.78c-1.74-.62-2.56-1.58-2.56-2.74,0-1.56,1.26-2.84,3.34-2.84a4.87,4.87,0,0,1,2.39.6l-.44,1.28a3.81,3.81,0,0,0-2-.56c-1,0-1.62.6-1.62,1.32s.58,1.16,1.84,1.64c1.68.64,2.55,1.48,2.55,2.92,0,1.7-1.32,2.9-3.63,2.9a5.52,5.52,0,0,1-2.72-.66Z"/><path d="M154.54,222.68v2.78h2.52v1.34h-2.52V232c0,1.2.34,1.88,1.32,1.88a3.92,3.92,0,0,0,1-.12l.08,1.32a4.31,4.31,0,0,1-1.56.24,2.44,2.44,0,0,1-1.9-.74,3.59,3.59,0,0,1-.68-2.52V226.8h-1.5v-1.34h1.5v-2.32Z"/><polygon class="cls-4" points="514 83.81 177.81 81.97 0.58 268.45 336.77 270.3 514 83.81"/></svg>