<?xml version="1.0" encoding="utf-8"?>
<!-- Generator: Adobe Illustrator 12.0.0, SVG Export Plug-In . SVG Version: 6.00 Build 51448)  -->
<!DOCTYPE svg PUBLIC "-//W3C//DTD SVG 1.1//EN" "http://www.w3.org/Graphics/SVG/1.1/DTD/svg11.dtd" [
	<!ENTITY ns_svg "http://www.w3.org/2000/svg">
	<!ENTITY ns_xlink "http://www.w3.org/1999/xlink">
]>
<svg  version="1.1" id="circle" xmlns="&ns_svg;" xmlns:xlink="&ns_xlink;" width="96.375" height="96.75"
	 viewBox="0 0 96.375 96.75" overflow="visible" enable-background="new 0 0 96.375 96.75" xml:space="preserve">
<g>
	<circle fill="none" stroke="#ADADAD" stroke-width="3" cx="47.797" cy="48.312" r="23.456"/>
	<g>
		<defs>
			<circle id="XMLID_1_" cx="47.993" cy="48.312" r="23.457"/>
		</defs>
		<clipPath id="XMLID_3_">
			<use xlink:href="#XMLID_1_" />
		</clipPath>
		<rect x="19.729" y="24.407" clip-path="url(#XMLID_3_)" fill="#ADADAD" stroke="#ADADAD" width="29.865" height="47.937"/>
		<use xlink:href="#XMLID_1_"  fill="none" stroke="#ADADAD"/>
	</g>
</g>
<g>
	<path fill="#ADADAD" d="M50,13.292c0,0.806-0.895,1.458-2,1.458l0,0c-1.105,0-2-0.653-2-1.458V1.458C46,0.653,46.895,0,48,0l0,0
		c1.105,0,2,0.653,2,1.458V13.292z"/>
	<path fill="#ADADAD" d="M50,95.291c0,0.807-0.895,1.459-2,1.459l0,0c-1.105,0-2-0.652-2-1.459V83.458C46,82.653,46.895,82,48,82
		l0,0c1.105,0,2,0.653,2,1.458V95.291z"/>
	<path fill="#ADADAD" d="M94.916,46.375c0.807,0,1.459,0.895,1.459,2l0,0c0,1.105-0.652,2-1.459,2H83.083
		c-0.805,0-1.458-0.895-1.458-2l0,0c0-1.105,0.653-2,1.458-2H94.916z"/>
	<path fill="#ADADAD" d="M13.291,46.375c0.807,0,1.459,0.895,1.459,2l0,0c0,1.105-0.652,2-1.459,2H1.458
		c-0.805,0-1.458-0.895-1.458-2l0,0c0-1.105,0.653-2,1.458-2H13.291z"/>
</g>
<g>
	<path fill="#ADADAD" d="M24.794,22.153c0.57,0.57,0.399,1.664-0.383,2.445l0,0c-0.782,0.782-1.875,0.953-2.445,0.383l-8.367-8.367
		c-0.57-0.569-0.399-1.664,0.383-2.445l0,0c0.782-0.782,1.876-0.953,2.445-0.383L24.794,22.153z"/>
	<path fill="#ADADAD" d="M82.776,80.135c0.57,0.571,0.399,1.665-0.383,2.446l0,0c-0.781,0.781-1.875,0.953-2.445,0.383l-8.367-8.367
		c-0.569-0.569-0.398-1.664,0.383-2.445l0,0c0.782-0.782,1.877-0.952,2.445-0.384L82.776,80.135z"/>
	<path fill="#ADADAD" d="M79.948,13.786c0.57-0.571,1.664-0.399,2.445,0.382l0,0c0.782,0.782,0.953,1.875,0.383,2.446l-8.367,8.367
		c-0.568,0.569-1.663,0.398-2.445-0.383l0,0c-0.781-0.781-0.952-1.876-0.383-2.445L79.948,13.786z"/>
	<path fill="#ADADAD" d="M22.23,71.504c0.57-0.57,1.665-0.399,2.446,0.382l0,0c0.782,0.782,0.953,1.876,0.383,2.446l-8.367,8.367
		c-0.569,0.569-1.664,0.398-2.445-0.384l0,0c-0.781-0.781-0.952-1.876-0.383-2.444L22.23,71.504z"/>
</g>
</svg>
