<?xml version="1.0" encoding="UTF-8" standalone="no"?>
<!-- Created with Inkscape (http://www.inkscape.org/) -->

<svg
   version="1.1"
   id="svg1"
   width="191.56"
   height="147.03999"
   viewBox="0 0 191.56 147.03999"
   sodipodi:docname="pha12f08.eps"
   xmlns:inkscape="http://www.inkscape.org/namespaces/inkscape"
   xmlns:sodipodi="http://sodipodi.sourceforge.net/DTD/sodipodi-0.dtd"
   xmlns="http://www.w3.org/2000/svg"
   xmlns:svg="http://www.w3.org/2000/svg">
  <defs
     id="defs1" />
  <sodipodi:namedview
     id="namedview1"
     pagecolor="#ffffff"
     bordercolor="#000000"
     borderopacity="0.25"
     inkscape:showpageshadow="2"
     inkscape:pageopacity="0.0"
     inkscape:pagecheckerboard="0"
     inkscape:deskcolor="#d1d1d1">
    <inkscape:page
       x="0"
       y="0"
       inkscape:label="1"
       id="page1"
       width="191.56"
       height="147.03999"
       margin="0"
       bleed="0" />
  </sodipodi:namedview>
  <g
     id="g1"
     inkscape:groupmode="layer"
     inkscape:label="1">
    <g
       id="group-R5">
      <path
         id="path2"
         d="M 1348.2,283.094 497.223,471.055 512.711,1099.73 1363.68,911.773 1348.2,283.094"
         style="fill:#e5e4e4;fill-opacity:1;fill-rule:nonzero;stroke:#231f20;stroke-width:5;stroke-linecap:butt;stroke-linejoin:miter;stroke-miterlimit:10;stroke-dasharray:none;stroke-opacity:1"
         transform="matrix(0.13333333,0,0,-0.13333333,0,147.04)" />
      <path
         id="path3"
         d="M 22.1094,604.895 V 173.316"
         style="fill:none;stroke:#231f20;stroke-width:7.5;stroke-linecap:butt;stroke-linejoin:miter;stroke-miterlimit:10;stroke-dasharray:none;stroke-opacity:1"
         transform="matrix(0.13333333,0,0,-0.13333333,0,147.04)" />
      <path
         id="path4"
         d="m 22.1094,594.129 21.6172,-13.149 0.4922,0.739 -14.004,35.246 c -2.6992,12.285 -5.3984,24.566 -8.1054,36.848 -2.6992,-12.282 -5.3985,-24.563 -8.1055,-36.848 L 0,581.719 0.371094,580.98 22.1094,594.129"
         style="fill:#231f20;fill-opacity:1;fill-rule:nonzero;stroke:none"
         transform="matrix(0.13333333,0,0,-0.13333333,0,147.04)" />
      <path
         id="path5"
         d="M 934.723,690.281 21.7148,174.258"
         style="fill:none;stroke:#231f20;stroke-width:7.5;stroke-linecap:butt;stroke-linejoin:miter;stroke-miterlimit:10;stroke-dasharray:none;stroke-opacity:1"
         transform="matrix(0.13333333,0,0,-0.13333333,0,147.04)" />
      <path
         id="path6"
         d="M 463.637,16.4688 22.1094,174.363"
         style="fill:none;stroke:#231f20;stroke-width:7.5;stroke-linecap:butt;stroke-linejoin:miter;stroke-miterlimit:10;stroke-dasharray:none;stroke-opacity:1"
         transform="matrix(0.13333333,0,0,-0.13333333,0,147.04)" />
      <path
         id="path7"
         d="M 453.5,20.1016 433.84,4.17188 434.371,3.46094 472.273,4.76953 C 484.75,3.17969 497.223,1.58984 509.695,0 499.043,6.67969 488.391,13.3594 477.734,20.0391 L 449.258,45.1016 448.438,45 453.5,20.1016"
         style="fill:#231f20;fill-opacity:1;fill-rule:nonzero;stroke:none"
         transform="matrix(0.13333333,0,0,-0.13333333,0,147.04)" />
      <path
         id="path8"
         d="m 957.984,690.281 c 0,-12.843 -10.421,-23.254 -23.261,-23.254 -12.836,0 -23.254,10.411 -23.254,23.254 0,12.84 10.418,23.25 23.254,23.25 12.84,0 23.261,-10.41 23.261,-23.25"
         style="fill:#231f20;fill-opacity:1;fill-rule:nonzero;stroke:none"
         transform="matrix(0.13333333,0,0,-0.13333333,0,147.04)" />
      <path
         id="path9"
         d="m 528.621,783.902 c 0,-12.839 -10.406,-23.25 -23.25,-23.25 -12.848,0 -23.258,10.411 -23.258,23.25 0,12.844 10.41,23.254 23.258,23.254 12.844,0 23.25,-10.41 23.25,-23.254"
         style="fill:#231f20;fill-opacity:1;fill-rule:nonzero;stroke:none"
         transform="matrix(0.13333333,0,0,-0.13333333,0,147.04)" />
      <path
         id="path10"
         d="M 505.371,783.902 921.227,690.281"
         style="fill:none;stroke:#231f20;stroke-width:10;stroke-linecap:butt;stroke-linejoin:miter;stroke-miterlimit:10;stroke-dasharray:none;stroke-opacity:1"
         transform="matrix(0.13333333,0,0,-0.13333333,0,147.04)" />
      <path
         id="path11"
         d="M 22.1094,173.316 504.98,787.535"
         style="fill:none;stroke:#231f20;stroke-width:7.5;stroke-linecap:butt;stroke-linejoin:miter;stroke-miterlimit:10;stroke-dasharray:none;stroke-opacity:1"
         transform="matrix(0.13333333,0,0,-0.13333333,0,147.04)" />
      <path
         id="path12"
         d="M 22.1094,173.316 1354.42,592.918"
         style="fill:none;stroke:#231f20;stroke-width:7.5;stroke-linecap:butt;stroke-linejoin:miter;stroke-miterlimit:10;stroke-dasharray:none;stroke-opacity:1"
         transform="matrix(0.13333333,0,0,-0.13333333,0,147.04)" />
      <path
         id="path13"
         d="m 227.68,434.813 c 51.554,-40.586 90.812,-96.094 111.269,-160.008"
         style="fill:none;stroke:#231f20;stroke-width:5;stroke-linecap:butt;stroke-linejoin:miter;stroke-miterlimit:10;stroke-dasharray:none;stroke-opacity:1"
         transform="matrix(0.13333333,0,0,-0.13333333,0,147.04)" />
      <path
         id="path14"
         d="m 3.9853703,-1.5617208 c 0,-0.6328125 -0.4101562,-1.6558594 -1.7929687,-1.6558594 -1.0078125,0 -1.81640629,0.6222657 -1.81640629,1.6558594 0,0.95976564 0.70312499,1.64531252 1.82812499,1.64531252 1.0898438,0 1.78125,-0.70664063 1.78125,-1.64531252 z m -0.3984375,0 c 0,0.72773439 -0.5742187,1.25507814 -1.3945312,1.25507814 -0.9726563,0 -1.41796879,-0.66445312 -1.41796879,-1.25507814 0,-0.6644531 0.52734379,-1.265625 1.41796879,-1.265625 1.1601562,0 1.3945312,0.8859375 1.3945312,1.265625 z m 4.6933594,-0.031641 c 0,-0.2636719 -0.058594,-0.5273438 -0.1640625,-0.759375 -0.2929688,-0.590625 -0.8203125,-0.8648438 -1.3828125,-0.8648438 -0.6210938,0 -1.0429688,0.253125 -1.3007813,0.590625 V -3.1226583 H 4.4365422 v 0.3902344 H 5.0341984 V 1.0011698 H 4.4365422 V 1.4019511 H 6.5224797 V 1.0011698 H 5.4326359 v -1.49765621 c 0.2226563,0.28476563 0.609375,0.58007813 1.265625,0.58007813 0.8789063,0 1.5820313,-0.70664063 1.5820313,-1.67695352 z m -0.3984375,0.010547 c 0,0.80156247 -0.609375,1.27617184 -1.2070313,1.27617184 -0.6679687,0 -1.2304687,-0.51679687 -1.2304687,-1.27617184 0,-0.6539063 0.46875,-1.2445313 1.2539062,-1.2445313 0.9375,0 1.1835938,0.8226563 1.1835938,1.2445313 z m 4.7197263,-0.010547 c 0,-0.2636719 -0.05859,-0.5273438 -0.164062,-0.759375 -0.292969,-0.590625 -0.820313,-0.8648438 -1.382813,-0.8648438 -0.621093,0 -1.042968,0.253125 -1.300781,0.590625 V -3.1226583 H 8.7578313 v 0.3902344 H 9.3554875 V 1.0011698 H 8.7578313 V 1.4019511 H 10.843769 V 1.0011698 H 9.753925 v -1.49765621 c 0.2226563,0.28476563 0.609375,0.58007813 1.265625,0.58007813 0.878906,0 1.582031,-0.70664063 1.582031,-1.67695352 z m -0.398437,0.010547 c 0,0.80156247 -0.609375,1.27617184 -1.207031,1.27617184 -0.667969,0 -1.2304692,-0.51679687 -1.2304692,-1.27617184 0,-0.6539063 0.4687502,-1.2445313 1.2539062,-1.2445313 0.9375,0 1.183594,0.8226563 1.183594,1.2445313 z m 4.740234,0.021094 c 0,-0.6328125 -0.410156,-1.6558594 -1.792969,-1.6558594 -1.007812,0 -1.816406,0.6222657 -1.816406,1.6558594 0,0.95976564 0.703125,1.64531252 1.828125,1.64531252 1.089844,0 1.78125,-0.70664063 1.78125,-1.64531252 z m -0.398437,0 c 0,0.72773439 -0.574219,1.25507814 -1.394532,1.25507814 -0.972656,0 -1.417968,-0.66445312 -1.417968,-1.25507814 0,-0.6644531 0.527343,-1.265625 1.417968,-1.265625 1.160157,0 1.394532,0.8859375 1.394532,1.265625 z m 4.450195,0.62226564 c 0,-0.60117184 -0.421875,-0.75937504 -0.925781,-0.79101564 -0.492188,-0.031641 -1.160157,-0.010547 -1.488282,-0.2214844 -0.105468,-0.073828 -0.1875,-0.2003906 -0.1875,-0.3375 0,-0.4429687 0.632813,-0.5378906 0.949219,-0.5378906 0.386719,0 0.785156,0.1265625 1.089844,0.3164063 v 0.4324218 h 0.386719 v -1.1390625 h -0.386719 v 0.2847657 c -0.328125,-0.1898438 -0.714844,-0.2847657 -1.113281,-0.2847657 -0.796875,0 -1.3125,0.3796875 -1.3125,1.0019532 0,0.1792968 0.04687,0.3691406 0.1875,0.4957031 0.386718,0.3480469 0.9375,0.3164062 1.464843,0.3585937 0.316407,0.031641 0.691407,-0.021094 0.890625,0.253125 0.03516,0.052734 0.04687,0.16875004 0.04687,0.21093754 0,0.52734375 -0.785156,0.590625 -1.054687,0.590625 -0.457031,0 -0.855469,-0.13710937 -1.195313,-0.41132812 V -1.1398458 h -0.398437 v 1.22343752 h 0.398437 v -0.32695313 c 0.351563,0.16875 0.703125,0.32695313 1.277344,0.32695313 0.796875,0 1.371094,-0.41132813 1.371094,-1.02304688 z M 23.989277,-3.8292989 V -4.7152364 H 23.48537 v 0.8859375 z m 1.253906,3.82851561875 V -0.40156453 H 23.989277 V -3.1226583 h -1.488282 v 0.3902344 h 1.101563 v 2.33085937 H 22.336933 V -7.8328125e-4 Z M 29.623066,-0.31718953 29.587909,-0.70742391 c -0.375,0.14765625 -0.914062,0.40078125 -1.40625,0.40078125 -0.199218,0 -0.386718,-0.0316406 -0.574218,-0.13710937 -0.210938,-0.10546875 -0.269532,-0.35859375 -0.269532,-0.59062497 v -1.6980469 h 1.851563 v -0.3902344 h -1.851563 v -0.9386719 h -0.386718 v 0.9386719 h -0.515625 v 0.3902344 h 0.515625 v 1.87734374 c 0,0.81210938 0.773437,0.93867188 1.148437,0.93867188 0.527344,0 1.078125,-0.2109375 1.523438,-0.40078125 z m 4.473632,-0.0527344 -0.117187,-0.3796875 c -0.5625,0.31640625 -1.125,0.44296875 -1.464844,0.44296875 -0.339844,0 -0.65625,-0.0421875 -0.9375,-0.2109375 -0.257812,-0.16875 -0.46875,-0.55898432 -0.46875,-0.93867182 v -0.052734 h 2.941406 c 0,-0.9070313 -0.480468,-1.7085938 -1.640625,-1.7085938 -0.949218,0 -1.710937,0.6644532 -1.710937,1.6558594 0,0.84375 0.492187,1.6453125 1.746094,1.6453125 0.585937,0 1.183593,-0.18984375 1.652343,-0.45351603 z m -0.46875,-1.53984377 h -2.507812 c 0.05859,-0.421875 0.480469,-0.9070312 1.289062,-0.9070312 0.996094,0 1.21875,0.7277344 1.21875,0.9070312 z M -22.252911,32.971385 c -0.246094,-0.03164 -0.761719,-0.09492 -1.054687,-0.09492 -0.269532,0 -1.054688,0.01055 -1.183594,0.611719 -0.03516,0.105468 -0.03516,0.263671 -0.03516,0.400781 v 0.379687 h -0.761719 v 0.390235 h 0.761719 v 2.330859 h -0.761719 v 0.400781 h 2.71875 v -0.400781 h -1.546875 v -2.330859 h 1.546875 V 34.26865 h -1.546875 v -0.379687 c 0,-0.326953 0,-0.611719 0.820312,-0.611719 0.28125,0 0.667969,0.04219 0.925782,0.08437 z m 4.564453,2.858203 c 0,-0.632813 -0.410156,-1.65586 -1.792969,-1.65586 -1.007812,0 -1.816406,0.622266 -1.816406,1.65586 0,0.959765 0.703125,1.645312 1.828125,1.645312 1.089844,0 1.78125,-0.70664 1.78125,-1.645312 z m -0.398437,0 c 0,0.727734 -0.574219,1.255078 -1.394532,1.255078 -0.972656,0 -1.417968,-0.664453 -1.417968,-1.255078 0,-0.664453 0.527343,-1.265625 1.417968,-1.265625 1.160157,0 1.394532,0.885937 1.394532,1.265625 z m 4.954101,-1.170703 V 34.26865 h -1.511718 v 0.390235 h 0.527343 l -1.042968,2.341406 -1.042969,-2.341406 h 0.527344 V 34.26865 h -1.570313 v 0.390235 h 0.621094 l 1.230469,2.73164 h 0.457031 l 1.230469,-2.73164 z m 0,0"
         style="fill:#231f20;fill-opacity:1;fill-rule:nonzero;stroke:none"
         aria-label="opposite&#10;fov"
         transform="matrix(1.3333333,0,0,1.4814815,72.432267,36.505067)" />
      <g
         id="g14"
         aria-label="z = 1"
         transform="matrix(1.3333333,0,0,1.3333333,168.37067,119.59467)">
        <path
           id="path15"
           d="M 3.7854766,-4.1725625 C 3.5628203,-3.9264687 3.3870391,-3.821 3.2346953,-3.821 c -0.1523437,0 -0.3046875,-0.011719 -0.7265625,-0.09375 -0.4335937,-0.070312 -0.703125,-0.1054687 -0.9492187,-0.1054687 -0.2226563,0 -0.4453125,0.1875 -0.65625004,0.5273437 -0.140625,0.234375 -0.24609375,0.4453125 -0.375,0.7265625 l 0.234375,0.1054688 C 1.0198516,-3.117875 1.2307891,-3.4225625 1.6526641,-3.4225625 c 0.2226562,0 0.6210937,0.023437 0.8554687,0.058594 0.1992188,0.011719 0.3984375,0 0.5507813,-0.035156 -0.8320313,0.890625 -1.875,1.9101563 -2.49609379,2.578125 -0.55078125,0.57421875 -0.48046875,0.83203125 -0.328125,0.90234375 0.046875,0.01171875 0.0703125,-0.0234375 0.10546875,-0.08203125 0.0820313,-0.1171875 0.1875,-0.234375 0.29296875,-0.3046875 0.1171875,-0.0820313 0.26953125,-0.09375 0.55078129,0.046875 0.3984375,0.19921875 0.9140625,0.43359375 1.2070312,0.43359375 0.3867188,0 0.75,-0.26953125 1.2421875,-1.24218745 l -0.1992187,-0.164063 c -0.4101563,0.60937495 -0.6796875,0.7617187 -0.9257813,0.7617187 -0.2226562,0 -0.515625,-0.1171875 -0.8085937,-0.2109375 C 1.4300078,-0.7975625 1.1956328,-0.8444375 1.0198516,-0.83271875 1.6878203,-1.5358437 2.8714141,-2.7194375 3.4456328,-3.3756875 3.6917266,-3.6452187 3.8557891,-3.8327187 3.9729766,-3.9733437 Z m 0,0"
           style="fill:#231f20;fill-opacity:1;fill-rule:nonzero;stroke:none" />
        <path
           id="path16"
           d="M 10.564773,-2.8952187 V -3.3405312 H 6.2757109 v 0.4453125 z m 0,1.6523437 V -1.6881875 H 6.2757109 v 0.4453125 z m 5.961915,1.2421875 V -0.24678125 C 15.706375,-0.305375 15.647781,-0.3756875 15.647781,-1.0319375 v -4.6875 c -0.492187,0.1992188 -1.019531,0.375 -1.59375,0.46875 V -5.03975 l 0.433594,0.011719 c 0.386719,0.023437 0.421875,0.070312 0.421875,0.5390625 v 3.4570312 c 0,0.65625 -0.03516,0.7265625 -0.855469,0.78515625 V -6.875e-4 Z m 0,0"
           style="fill:#231f20;fill-opacity:1;fill-rule:nonzero;stroke:none" />
      </g>
    </g>
  </g>
</svg>
