<?xml version="1.0" encoding="UTF-8" standalone="no"?>
<!-- Created with Inkscape (http://www.inkscape.org/) -->

<svg
   version="1.1"
   id="svg1"
   width="153.93333"
   height="194"
   viewBox="0 0 153.93333 194"
   sodipodi:docname="pha12f13.eps"
   xmlns:inkscape="http://www.inkscape.org/namespaces/inkscape"
   xmlns:sodipodi="http://sodipodi.sourceforge.net/DTD/sodipodi-0.dtd"
   xmlns="http://www.w3.org/2000/svg"
   xmlns:svg="http://www.w3.org/2000/svg">
  <defs
     id="defs1" />
  <sodipodi:namedview
     id="namedview1"
     pagecolor="#ffffff"
     bordercolor="#000000"
     borderopacity="0.25"
     inkscape:showpageshadow="2"
     inkscape:pageopacity="0.0"
     inkscape:pagecheckerboard="0"
     inkscape:deskcolor="#d1d1d1">
    <inkscape:page
       x="0"
       y="0"
       inkscape:label="1"
       id="page1"
       width="153.93333"
       height="194"
       margin="0"
       bleed="0" />
  </sodipodi:namedview>
  <g
     id="g1"
     inkscape:groupmode="layer"
     inkscape:label="1">
    <g
       id="group-R5">
      <g
         id="g2"
         aria-label="p&#10;r&#10;r&#10;r"
         transform="matrix(1.3333333,0,0,1.3333333,49.028667,161.33493)">
        <path
           id="path2"
           d="m 1.5224453,-3.4211219 v -0.7148437 c -0.421875,0.1757812 -0.92578124,0.328125 -1.31249999,0.3984375 v 0.2109375 c 0.5625,0.070312 0.59765625,0.09375 0.59765625,0.6796875 v 4.0664062 c 0,0.5859375 -0.0820313,0.6445313 -0.65625,0.703125 v 0.234375 H 2.2841641 V 1.9226281 C 1.5810391,1.8523156 1.5224453,1.8054406 1.5224453,1.1257531 v -1.18359373 c 0.1171875,0.0703125 0.3632813,0.15234375 0.6210938,0.1640625 1.171875,-0.2109375 2.2382812,-1.08984375 2.2382812,-2.44921877 0,-0.890625 -0.5976562,-1.6992187 -1.59375,-1.6992187 -0.1054687,0 -0.28125,0.046875 -0.4453125,0.140625 z m 0,0.3046875 c 0.2460938,-0.1875 0.609375,-0.3867187 0.9023438,-0.3867187 0.65625,0 1.2070312,0.5390625 1.2070312,1.5117187 0,1.00781252 -0.515625,1.66406252 -1.265625,1.66406252 -0.3046875,0 -0.6445312,-0.15234375 -0.84375,-0.3515625 z m 0,0"
           style="fill:#231f20;fill-opacity:1;fill-rule:nonzero;stroke:none" />
        <path
           id="path3"
           d="m -9.7509922,-93.198466 c 0.2695313,-0.246093 0.5507813,-0.433593 0.6328125,-0.433593 0.070312,0 0.070312,0.09375 0.023437,0.386718 -0.1757812,0.960938 -0.421875,2.074219 -0.65625,3.035157 l 0.070312,0.07031 c 0.1992188,-0.07031 0.4335938,-0.128906 0.6328125,-0.164062 0.1171875,-0.585938 0.2226563,-1.160157 0.3632813,-1.757813 0.1640625,-0.410156 0.4453125,-0.832031 0.6445312,-1.113281 0.1992188,-0.292969 0.3398438,-0.386719 0.4570313,-0.386719 0.09375,0 0.1992187,0.04687 0.3046875,0.152344 0.046875,0.04687 0.1171875,0.04687 0.1992187,0 0.082031,-0.07031 0.1640625,-0.152344 0.234375,-0.269531 0.070312,-0.117188 0.070312,-0.269532 0,-0.386719 -0.070312,-0.117188 -0.234375,-0.222656 -0.3867187,-0.222656 -0.3515625,0 -0.890625,0.609375 -1.3476563,1.5 h -0.023437 l 0.09375,-0.457032 c 0.1289063,-0.632812 0.1171875,-1.042968 -0.1054687,-1.042968 -0.2460938,0 -0.796875,0.375 -1.2539063,0.878906 z m 0,60.049805 c 0.2695313,-0.246094 0.5507813,-0.433594 0.6328125,-0.433594 0.070312,0 0.070312,0.09375 0.023437,0.386719 -0.1757812,0.960938 -0.421875,2.074219 -0.65625,3.035156 l 0.070312,0.07031 c 0.1992188,-0.07031 0.4335938,-0.128906 0.6328125,-0.164063 0.1171875,-0.585937 0.2226563,-1.160156 0.3632813,-1.757812 0.1640625,-0.410156 0.4453125,-0.832031 0.6445312,-1.113281 0.1992188,-0.292969 0.3398438,-0.386719 0.4570313,-0.386719 0.09375,0 0.1992187,0.04687 0.3046875,0.152344 0.046875,0.04687 0.1171875,0.04687 0.1992187,0 0.082031,-0.07031 0.1640625,-0.152344 0.234375,-0.269532 0.070312,-0.117187 0.070312,-0.269531 0,-0.386718 -0.070312,-0.117188 -0.234375,-0.222657 -0.3867187,-0.222657 -0.3515625,0 -0.890625,0.609375 -1.3476563,1.5 h -0.023437 l 0.09375,-0.457031 c 0.1289063,-0.632812 0.1171875,-1.042969 -0.1054687,-1.042969 -0.2460938,0 -0.796875,0.375 -1.2539063,0.878907 z m 58.1425782,-6.424805 c 0.269531,-0.246093 0.550781,-0.433593 0.632812,-0.433593 0.07031,0 0.07031,0.09375 0.02344,0.386718 -0.175781,0.960938 -0.421875,2.074219 -0.65625,3.035157 l 0.07031,0.07031 c 0.199219,-0.07031 0.433594,-0.128906 0.632813,-0.164062 0.117187,-0.585938 0.222656,-1.160157 0.363281,-1.757813 0.164063,-0.410156 0.445313,-0.832031 0.644531,-1.113281 0.199219,-0.292969 0.339844,-0.386719 0.457032,-0.386719 0.09375,0 0.199218,0.04687 0.304687,0.152344 0.04687,0.04687 0.117188,0.04687 0.199219,0 0.08203,-0.07031 0.164062,-0.152344 0.234375,-0.269531 0.07031,-0.117188 0.07031,-0.269532 0,-0.386719 -0.07031,-0.117188 -0.234375,-0.222656 -0.386719,-0.222656 -0.351562,0 -0.890625,0.609375 -1.347656,1.5 h -0.02344 l 0.09375,-0.457032 c 0.128907,-0.632812 0.117188,-1.042968 -0.105468,-1.042968 -0.246094,0 -0.796875,0.375 -1.253907,0.878906 z m 0,0"
           style="fill:#231f20;fill-opacity:1;fill-rule:nonzero;stroke:none" />
      </g>
      <path
         id="path4"
         d="M 2.5,577.246 C 2.5,894.672 259.824,1151.99 577.246,1151.99 894.68,1151.99 1152,894.672 1152,577.246 1152,259.809 894.68,2.5 577.246,2.5 259.824,2.5 2.5,259.809 2.5,577.246 Z"
         style="fill:none;stroke:#231f20;stroke-width:5;stroke-linecap:butt;stroke-linejoin:miter;stroke-miterlimit:10;stroke-dasharray:30.0872, 20.0582;stroke-dashoffset:0;stroke-opacity:1"
         transform="matrix(0.13333333,0,0,-0.13333333,0,194)" />
      <path
         id="path5"
         d="M 574.293,579.031 H 1150.63"
         style="fill:none;stroke:#231f20;stroke-width:5;stroke-linecap:butt;stroke-linejoin:miter;stroke-miterlimit:10;stroke-dasharray:none;stroke-opacity:1"
         transform="matrix(0.13333333,0,0,-0.13333333,0,194)" />
      <path
         id="path6"
         d="M 324.563,287.289 V 863.625"
         style="fill:none;stroke:#231f20;stroke-width:5;stroke-linecap:butt;stroke-linejoin:miter;stroke-miterlimit:10;stroke-dasharray:none;stroke-opacity:1"
         transform="matrix(0.13333333,0,0,-0.13333333,0,194)" />
      <path
         id="path7"
         d="m 347.473,289.34 c 0,-12.852 -10.41,-23.258 -23.254,-23.258 -12.84,0 -23.258,10.406 -23.258,23.258 0,12.84 10.418,23.25 23.258,23.25 12.844,0 23.254,-10.41 23.254,-23.25"
         style="fill:#231f20;fill-opacity:1;fill-rule:nonzero;stroke:none"
         transform="matrix(0.13333333,0,0,-0.13333333,0,194)" />
      <path
         id="path8"
         d="m 347.59,860.547 c 0,-12.844 -10.418,-23.25 -23.258,-23.25 -12.844,0 -23.254,10.406 -23.254,23.25 0,12.844 10.41,23.254 23.254,23.254 12.84,0 23.258,-10.41 23.258,-23.254"
         style="fill:#231f20;fill-opacity:1;fill-rule:nonzero;stroke:none"
         transform="matrix(0.13333333,0,0,-0.13333333,0,194)" />
      <path
         id="path9"
         d="M 324.004,859.285 V 1435.62"
         style="fill:none;stroke:#231f20;stroke-width:5;stroke-linecap:butt;stroke-linejoin:miter;stroke-miterlimit:10;stroke-dasharray:none;stroke-opacity:1"
         transform="matrix(0.13333333,0,0,-0.13333333,0,194)" />
      <path
         id="path10"
         d="m 347.031,1431.76 c 0,-12.84 -10.41,-23.25 -23.254,-23.25 -12.839,0 -23.25,10.41 -23.25,23.25 0,12.84 10.411,23.25 23.25,23.25 12.844,0 23.254,-10.41 23.254,-23.25"
         style="fill:#231f20;fill-opacity:1;fill-rule:nonzero;stroke:none"
         transform="matrix(0.13333333,0,0,-0.13333333,0,194)" />
    </g>
  </g>
</svg>
