<?xml version="1.0" encoding="UTF-8" standalone="no"?>
<!-- Created with Inkscape (http://www.inkscape.org/) -->

<svg
   version="1.1"
   id="svg1"
   width="76.73333"
   height="75.199997"
   viewBox="0 0 76.73333 75.199997"
   sodipodi:docname="pha12f25.eps"
   xmlns:inkscape="http://www.inkscape.org/namespaces/inkscape"
   xmlns:sodipodi="http://sodipodi.sourceforge.net/DTD/sodipodi-0.dtd"
   xmlns="http://www.w3.org/2000/svg"
   xmlns:svg="http://www.w3.org/2000/svg">
  <defs
     id="defs1" />
  <sodipodi:namedview
     id="namedview1"
     pagecolor="#ffffff"
     bordercolor="#000000"
     borderopacity="0.25"
     inkscape:showpageshadow="2"
     inkscape:pageopacity="0.0"
     inkscape:pagecheckerboard="0"
     inkscape:deskcolor="#d1d1d1">
    <inkscape:page
       x="0"
       y="0"
       inkscape:label="1"
       id="page1"
       width="76.73333"
       height="75.199997"
       margin="0"
       bleed="0" />
  </sodipodi:namedview>
  <g
     id="g1"
     inkscape:groupmode="layer"
     inkscape:label="1">
    <g
       id="group-R5">
      <g
         id="g2"
         aria-label="ω&#10;θ&#10;o&#10;θ&#10;e"
         transform="matrix(1.3333333,0,0,1.3333333,56.304667,9.9041333)">
        <path
           id="path2"
           d="m 4.3593906,-3.8450922 c 0.2929688,0.2578125 0.5039063,0.7148438 0.5039063,1.3828125 -0.011719,1.0078125 -0.3984375,2.05078126 -1.1367188,2.05078126 -0.3046875,0 -0.515625,-0.3046875 -0.4921875,-0.87890626 0.023437,-0.46875 0.234375,-1.359375 0.3515625,-1.7226562 l -0.058594,-0.035156 -0.6679688,0.140625 c -0.035156,0.28125 -0.09375,0.75 -0.1875,1.1367188 -0.1992187,0.85546871 -0.5625,1.31249996 -0.9492187,1.31249996 -0.28125,0 -0.5390625,-0.33984375 -0.5390625,-0.99609376 0,-1.0078125 0.46875,-1.921875 1.1601562,-2.4492187 l -0.140625,-0.1992188 c -1.0429687,0.5390625 -1.75781248,1.5585938 -1.75781248,2.765625 0,0.93750001 0.421875,1.44140626 0.93749998,1.44140626 0.3867188,0 0.9023438,-0.3984375 1.2304688,-0.890625 0.046875,0.50390625 0.328125,0.890625 0.7617187,0.890625 0.375,0 0.7382813,-0.22265625 1.0664063,-0.515625 0.5625,-0.52734375 0.9960937,-1.30078126 0.9960937,-2.21484376 0,-0.9023437 -0.3984375,-1.4179687 -0.6914062,-1.4179687 -0.1523438,0 -0.3164063,0.070312 -0.375,0.1289062 z M -5.3788906,15.792603 c -1.59375,0 -2.6132813,2.671875 -2.6132813,4.558594 0,0.9375 0.2578125,1.957031 1.265625,1.957031 1.6171875,0 2.5664063,-2.695312 2.5664063,-4.617187 0,-0.972657 -0.2578125,-1.898438 -1.21875,-1.898438 z m -1.6992188,2.917969 c 0.2695313,-1.347656 0.84375,-2.613281 1.5703125,-2.613281 0.5859375,0 0.6445313,0.890625 0.6445313,1.371093 0,0.410157 -0.058594,0.796875 -0.1054688,1.242188 z m 2.0390625,0.421875 c -0.2460937,1.429687 -0.8203125,2.859375 -1.5703125,2.859375 -0.5273437,0 -0.6679687,-0.773438 -0.6679687,-1.476563 0,-0.46875 0.058594,-0.925781 0.1289062,-1.382812 z m 0,0"
           style="fill:#231f20;fill-opacity:1;fill-rule:nonzero;stroke:none" />
        <path
           id="path3"
           d="m -3.5917813,21.508423 c -0.5507812,0 -1.3125,0.457032 -1.3125,1.441407 0,0.667968 0.4921875,1.324218 1.3125,1.324218 0.5976563,0 1.3007813,-0.457031 1.3007813,-1.429687 0,-0.738281 -0.5507813,-1.335938 -1.3007813,-1.335938 z m -0.058594,0.199219 c 0.515625,0 0.8085937,0.574219 0.8085937,1.277344 0,0.820312 -0.3164062,1.089844 -0.6796875,1.089844 -0.4921875,0 -0.8203125,-0.5625 -0.8203125,-1.3125 0,-0.679688 0.3164063,-1.054688 0.6914063,-1.054688 z m 0,0"
           style="fill:#231f20;fill-opacity:1;fill-rule:nonzero;stroke:none" />
        <path
           id="path4"
           d="m -25.250961,26.570923 c -1.59375,0 -2.613281,2.671875 -2.613281,4.558594 0,0.9375 0.257812,1.957031 1.265625,1.957031 1.617187,0 2.566406,-2.695312 2.566406,-4.617187 0,-0.972656 -0.257812,-1.898438 -1.21875,-1.898438 z m -1.699219,2.917969 c 0.269532,-1.347656 0.84375,-2.613281 1.570313,-2.613281 0.585937,0 0.644531,0.890625 0.644531,1.371094 0,0.410156 -0.05859,0.796875 -0.105469,1.242187 z m 2.039063,0.421875 c -0.246094,1.429688 -0.820313,2.859375 -1.570313,2.859375 -0.527343,0 -0.667968,-0.773437 -0.667968,-1.476562 0,-0.46875 0.05859,-0.925782 0.128906,-1.382813 z m 0,0"
           style="fill:#231f20;fill-opacity:1;fill-rule:nonzero;stroke:none" />
        <path
           id="path5"
           d="m -22.72557,34.349244 c -0.210938,0.199218 -0.445313,0.292968 -0.679688,0.292968 -0.421875,0 -0.890625,-0.328125 -0.902344,-1.148437 0.714844,-0.02344 1.464844,-0.08203 1.570313,-0.105469 0.105469,-0.02344 0.140625,-0.07031 0.140625,-0.1875 0,-0.46875 -0.410156,-0.914062 -0.902344,-0.914062 -0.316406,0 -0.632812,0.164062 -0.878906,0.433593 -0.246094,0.28125 -0.398438,0.644532 -0.398438,1.054688 0,0.679687 0.433594,1.277344 1.171875,1.277344 0.1875,0 0.597657,-0.105469 0.972657,-0.585938 z M -23.639633,32.5094 c 0.328125,0 0.527344,0.292969 0.527344,0.597656 0,0.08203 -0.03516,0.117188 -0.152344,0.117188 -0.339844,0.02344 -0.667969,0.02344 -1.007812,0.02344 0.09375,-0.480469 0.351562,-0.738281 0.632812,-0.738281 z m 0,0"
           style="fill:#231f20;fill-opacity:1;fill-rule:nonzero;stroke:none" />
      </g>
      <path
         id="path6"
         d="m 451.461,114.453 v 302.5"
         style="fill:none;stroke:#231f20;stroke-width:7.5;stroke-linecap:butt;stroke-linejoin:miter;stroke-miterlimit:10;stroke-dasharray:none;stroke-opacity:1"
         transform="matrix(0.13333333,0,0,-0.13333333,0,75.2)" />
      <path
         id="path7"
         d="m 451.461,406.188 -21.621,-13.153 -0.488,0.738 14.003,35.25 c 2.696,12.286 5.399,24.567 8.106,36.848 2.703,-12.281 5.398,-24.562 8.105,-36.848 l 14.004,-35.25 -0.371,-0.738 -21.738,13.153"
         style="fill:#231f20;fill-opacity:1;fill-rule:nonzero;stroke:none"
         transform="matrix(0.13333333,0,0,-0.13333333,0,75.2)" />
      <path
         id="path8"
         d="m 336.059,92.2227 c 36.808,9.5153 75.41,14.5863 115.195,14.5863 39.601,0 78.019,-5.024 114.68,-14.4496"
         style="fill:none;stroke:#fddd1b;stroke-width:30;stroke-linecap:butt;stroke-linejoin:miter;stroke-miterlimit:10;stroke-dasharray:none;stroke-opacity:1"
         transform="matrix(0.13333333,0,0,-0.13333333,0,75.2)" />
      <path
         id="path9"
         d="m 299.82,209.469 c 48.282,12.992 99.051,19.918 151.434,19.918"
         style="fill:none;stroke:#231f20;stroke-width:5;stroke-linecap:butt;stroke-linejoin:miter;stroke-miterlimit:10;stroke-dasharray:none;stroke-opacity:1"
         transform="matrix(0.13333333,0,0,-0.13333333,0,75.2)" />
      <path
         id="path10"
         d="M 334.945,99.8438 245.422,388.793"
         style="fill:none;stroke:#231f20;stroke-width:7.5;stroke-linecap:butt;stroke-linejoin:miter;stroke-miterlimit:10;stroke-dasharray:none;stroke-opacity:1"
         transform="matrix(0.13333333,0,0,-0.13333333,0,75.2)" />
      <path
         id="path11"
         d="m 248.609,378.508 -16.761,-18.957 -0.688,0.562 2.942,37.813 c -1.055,12.527 -2.11,25.062 -3.161,37.594 6.215,-10.934 12.434,-21.868 18.649,-32.793 l 23.805,-29.528 -0.129,-0.816 -24.657,6.125"
         style="fill:#231f20;fill-opacity:1;fill-rule:nonzero;stroke:none"
         transform="matrix(0.13333333,0,0,-0.13333333,0,75.2)" />
      <path
         id="path12"
         d="M 336.188,102.488 46.793,14.3984"
         style="fill:none;stroke:#231f20;stroke-width:7.5;stroke-linecap:butt;stroke-linejoin:miter;stroke-miterlimit:10;stroke-dasharray:none;stroke-opacity:1"
         transform="matrix(0.13333333,0,0,-0.13333333,0,75.2)" />
      <path
         id="path13"
         d="M 57.0938,17.5352 75.9727,0.683594 75.4063,0 37.6055,3.12891 C 25.0742,2.14063 12.5352,1.14844 0,0.15625 10.9609,6.32031 21.9219,12.4766 32.8867,18.6445 l 29.6446,23.6563 0.8125,-0.1367 -6.25,-24.6289"
         style="fill:#231f20;fill-opacity:1;fill-rule:nonzero;stroke:none"
         transform="matrix(0.13333333,0,0,-0.13333333,0,75.2)" />
      <path
         id="path14"
         d="m 333.402,102.504 -25.418,-7.7813 -7.023,22.9413 25.422,7.789 z"
         style="fill:none;stroke:#231f20;stroke-width:5;stroke-linecap:butt;stroke-linejoin:miter;stroke-miterlimit:10;stroke-dasharray:none;stroke-opacity:1"
         transform="matrix(0.13333333,0,0,-0.13333333,0,75.2)" />
      <path
         id="path15"
         d="M 208.492,64.7695 C 187.645,133.762 226.676,206.582 295.66,227.422"
         style="fill:none;stroke:#231f20;stroke-width:5;stroke-linecap:butt;stroke-linejoin:miter;stroke-miterlimit:10;stroke-dasharray:none;stroke-opacity:1"
         transform="matrix(0.13333333,0,0,-0.13333333,0,75.2)" />
      <path
         id="path16"
         d="m 558.023,108.754 c 6.661,6.008 9.657,7.062 8.731,14.098 -0.93,7.035 -10.109,8.933 -3.887,15 6.211,6.062 10.996,5.168 7.91,16.293"
         style="fill:none;stroke:#fddd1b;stroke-width:7.5;stroke-linecap:butt;stroke-linejoin:miter;stroke-miterlimit:10;stroke-dasharray:none;stroke-opacity:1"
         transform="matrix(0.13333333,0,0,-0.13333333,0,75.2)" />
      <path
         id="path17"
         d="m 526.988,114.453 c 6.629,6.035 9.617,7.102 8.641,14.129 -0.965,7.031 -10.164,8.898 -3.992,14.984 6.172,6.09 10.976,5.207 7.812,16.329"
         style="fill:none;stroke:#fddd1b;stroke-width:7.5;stroke-linecap:butt;stroke-linejoin:miter;stroke-miterlimit:10;stroke-dasharray:none;stroke-opacity:1"
         transform="matrix(0.13333333,0,0,-0.13333333,0,75.2)" />
      <path
         id="path18"
         d="m 469.633,119.324 c 5.129,6.735 7.832,8.141 5.246,14.961 -2.598,6.82 -12.102,7.555 -7.422,14.297 4.676,6.746 9.609,6.445 3.914,17.027"
         style="fill:none;stroke:#fddd1b;stroke-width:7.5;stroke-linecap:butt;stroke-linejoin:miter;stroke-miterlimit:10;stroke-dasharray:none;stroke-opacity:1"
         transform="matrix(0.13333333,0,0,-0.13333333,0,75.2)" />
      <path
         id="path19"
         d="m 498.18,117.832 c 6.152,6.289 9.062,7.473 7.539,14.453 -1.504,6.985 -10.832,8.477 -5.129,14.805 5.703,6.316 10.558,5.625 6.543,16.601"
         style="fill:none;stroke:#fddd1b;stroke-width:7.5;stroke-linecap:butt;stroke-linejoin:miter;stroke-miterlimit:10;stroke-dasharray:none;stroke-opacity:1"
         transform="matrix(0.13333333,0,0,-0.13333333,0,75.2)" />
      <path
         id="path20"
         d="m 435.277,119.043 c 5.032,7.426 7.688,9.164 5.11,15.777 -2.578,6.606 -11.953,6.254 -7.364,13.637 4.59,7.371 9.442,7.648 3.79,17.715"
         style="fill:none;stroke:#fddd1b;stroke-width:7.5;stroke-linecap:butt;stroke-linejoin:miter;stroke-miterlimit:10;stroke-dasharray:none;stroke-opacity:1"
         transform="matrix(0.13333333,0,0,-0.13333333,0,75.2)" />
      <path
         id="path21"
         d="m 403.785,117.156 c 4.988,7.446 7.637,9.192 5.02,15.793 -2.629,6.59 -12.012,6.203 -7.473,13.594 4.543,7.387 9.414,7.676 3.684,17.715"
         style="fill:none;stroke:#fddd1b;stroke-width:7.5;stroke-linecap:butt;stroke-linejoin:miter;stroke-miterlimit:10;stroke-dasharray:none;stroke-opacity:1"
         transform="matrix(0.13333333,0,0,-0.13333333,0,75.2)" />
      <path
         id="path22"
         d="m 346.93,108.18 c 3.367,7.765 5.652,9.777 1.511,15.781 -4.148,6 -13.554,4.445 -10.625,12.113 2.93,7.66 7.793,8.543 -0.261,17.465"
         style="fill:none;stroke:#fddd1b;stroke-width:7.5;stroke-linecap:butt;stroke-linejoin:miter;stroke-miterlimit:10;stroke-dasharray:none;stroke-opacity:1"
         transform="matrix(0.13333333,0,0,-0.13333333,0,75.2)" />
      <path
         id="path23"
         d="m 375.004,113.555 c 4.465,7.578 7.004,9.414 3.867,15.832 -3.133,6.426 -12.547,5.648 -8.523,13.148 4.023,7.504 8.906,7.992 2.39,17.692"
         style="fill:none;stroke:#fddd1b;stroke-width:7.5;stroke-linecap:butt;stroke-linejoin:miter;stroke-miterlimit:10;stroke-dasharray:none;stroke-opacity:1"
         transform="matrix(0.13333333,0,0,-0.13333333,0,75.2)" />
    </g>
  </g>
</svg>
