<?xml version="1.0" encoding="UTF-8" standalone="no"?>
<!-- Created with Inkscape (http://www.inkscape.org/) -->

<svg
   version="1.1"
   id="svg1"
   width="191.44"
   height="147.03999"
   viewBox="0 0 191.44 147.03999"
   sodipodi:docname="pha12f09.eps"
   xmlns:inkscape="http://www.inkscape.org/namespaces/inkscape"
   xmlns:sodipodi="http://sodipodi.sourceforge.net/DTD/sodipodi-0.dtd"
   xmlns="http://www.w3.org/2000/svg"
   xmlns:svg="http://www.w3.org/2000/svg">
  <defs
     id="defs1" />
  <sodipodi:namedview
     id="namedview1"
     pagecolor="#ffffff"
     bordercolor="#000000"
     borderopacity="0.25"
     inkscape:showpageshadow="2"
     inkscape:pageopacity="0.0"
     inkscape:pagecheckerboard="0"
     inkscape:deskcolor="#d1d1d1">
    <inkscape:page
       x="0"
       y="0"
       inkscape:label="1"
       id="page1"
       width="191.44"
       height="147.03999"
       margin="0"
       bleed="0" />
  </sodipodi:namedview>
  <g
     id="g1"
     inkscape:groupmode="layer"
     inkscape:label="1">
    <g
       id="group-R5">
      <g
         id="g2"
         aria-label="z = 1"
         transform="matrix(1.3333333,0,0,1.3333333,168.252,119.00933)">
        <path
           id="path2"
           d="m 3.7865859,-4.1730156 c -0.2226562,0.2460937 -0.3984375,0.3515625 -0.5507812,0.3515625 -0.1523438,0 -0.3046875,-0.011719 -0.7265625,-0.09375 -0.4335938,-0.070312 -0.703125,-0.1054688 -0.9492188,-0.1054688 -0.2226562,0 -0.4453125,0.1875 -0.65624996,0.5273438 -0.140625,0.234375 -0.24609375,0.4453125 -0.375,0.7265625 l 0.234375,0.1054687 C 1.0209609,-3.1183281 1.2318984,-3.4230156 1.6537734,-3.4230156 c 0.2226563,0 0.6210938,0.023437 0.8554688,0.058594 0.1992187,0.011719 0.3984375,0 0.5507812,-0.035156 -0.8320312,0.890625 -1.875,1.9101562 -2.49609371,2.57812497 -0.55078125,0.57421875 -0.48046875,0.83203125 -0.328125,0.90234375 0.046875,0.01171875 0.0703125,-0.0234375 0.10546875,-0.08203125 0.0820313,-0.1171875 0.1875,-0.234375 0.29296875,-0.3046875 0.1171875,-0.0820313 0.26953125,-0.09375 0.55078121,0.046875 0.3984375,0.19921875 0.9140625,0.43359375 1.2070313,0.43359375 0.3867187,0 0.75,-0.26953125 1.2421875,-1.24218752 l -0.1992188,-0.164063 c -0.4101562,0.60937502 -0.6796875,0.76171877 -0.9257812,0.76171877 -0.2226563,0 -0.515625,-0.1171875 -0.8085938,-0.2109375 C 1.4311172,-0.79801563 1.1967422,-0.84489063 1.0209609,-0.83317188 1.6889297,-1.5362969 2.8725234,-2.7198906 3.4467422,-3.3761406 3.6928359,-3.6456719 3.8568984,-3.8331719 3.9740859,-3.9737969 Z m 0,0"
           style="fill:#231f20;fill-opacity:1;fill-rule:nonzero;stroke:none" />
        <path
           id="path3"
           d="M 10.562953,-2.8956719 V -3.3409844 H 6.2738906 v 0.4453125 z m 0,1.6523438 V -1.6886406 H 6.2738906 v 0.4453125 z m 5.961914,1.24218747 v -0.24609375 c -0.820312,-0.0585937 -0.878906,-0.12890625 -0.878906,-0.78515622 v -4.6875 c -0.492188,0.1992187 -1.019531,0.375 -1.59375,0.46875 v 0.2109375 l 0.433594,0.011719 c 0.386718,0.023437 0.421875,0.070312 0.421875,0.5390625 v 3.4570313 c 0,0.65624997 -0.03516,0.72656247 -0.855469,0.78515622 v 0.24609375 z m 0,0"
           style="fill:#231f20;fill-opacity:1;fill-rule:nonzero;stroke:none" />
      </g>
      <path
         id="path4"
         d="M 1349.34,283.082 498.367,471.043 513.855,1099.73 1364.82,911.773 1349.34,283.082"
         style="fill:#e5e4e4;fill-opacity:1;fill-rule:nonzero;stroke:#231f20;stroke-width:5;stroke-linecap:butt;stroke-linejoin:miter;stroke-miterlimit:10;stroke-dasharray:none;stroke-opacity:1"
         transform="matrix(0.13333333,0,0,-0.13333333,0,147.04)" />
      <path
         id="path5"
         d="M 23.2539,604.891 V 173.316"
         style="fill:none;stroke:#231f20;stroke-width:7.5;stroke-linecap:butt;stroke-linejoin:miter;stroke-miterlimit:10;stroke-dasharray:none;stroke-opacity:1"
         transform="matrix(0.13333333,0,0,-0.13333333,0,147.04)" />
      <path
         id="path6"
         d="m 23.2539,594.125 21.6133,-13.148 0.4922,0.734 -14.0039,35.25 c -2.6992,12.285 -5.3985,24.566 -8.1016,36.848 -2.7031,-12.282 -5.4023,-24.563 -8.1055,-36.848 l -14.00387,-35.25 0.36719,-0.734 21.74218,13.148"
         style="fill:#231f20;fill-opacity:1;fill-rule:nonzero;stroke:none"
         transform="matrix(0.13333333,0,0,-0.13333333,0,147.04)" />
      <path
         id="path7"
         d="M 464.781,16.4688 23.2539,174.363"
         style="fill:none;stroke:#231f20;stroke-width:7.5;stroke-linecap:butt;stroke-linejoin:miter;stroke-miterlimit:10;stroke-dasharray:none;stroke-opacity:1"
         transform="matrix(0.13333333,0,0,-0.13333333,0,147.04)" />
      <path
         id="path8"
         d="M 454.645,20.1016 434.98,4.17188 435.512,3.44922 473.418,4.76953 C 485.895,3.17969 498.363,1.58984 510.84,0 500.188,6.67969 489.531,13.3594 478.879,20.0391 l -28.481,25.0507 -0.82,-0.1015 5.067,-24.8867"
         style="fill:#231f20;fill-opacity:1;fill-rule:nonzero;stroke:none"
         transform="matrix(0.13333333,0,0,-0.13333333,0,147.04)" />
      <path
         id="path9"
         d="m 46.5078,186.98 c 0,-12.835 -10.414,-23.253 -23.2539,-23.253 C 10.4102,163.727 0,174.145 0,186.98 c 0,12.84 10.4102,23.25 23.2539,23.25 12.8399,0 23.2539,-10.41 23.2539,-23.25"
         style="fill:#231f20;fill-opacity:1;fill-rule:nonzero;stroke:none"
         transform="matrix(0.13333333,0,0,-0.13333333,0,147.04)" />
      <path
         id="path10"
         d="m 478.098,776.281 c -30.09,23.297 -55.356,52.539 -74.051,85.973"
         style="fill:none;stroke:#231f20;stroke-width:5;stroke-linecap:butt;stroke-linejoin:miter;stroke-miterlimit:10;stroke-dasharray:none;stroke-opacity:1"
         transform="matrix(0.13333333,0,0,-0.13333333,0,147.04)" />
      <path
         id="path11"
         d="m 946.941,712.25 13.036,7.422"
         style="fill:none;stroke:#918f90;stroke-width:5;stroke-linecap:butt;stroke-linejoin:miter;stroke-miterlimit:10;stroke-dasharray:none;stroke-opacity:1"
         transform="matrix(0.13333333,0,0,-0.13333333,0,147.04)" />
      <path
         id="path12"
         d="m 985.762,734.359 141.808,80.77"
         style="fill:none;stroke:#918f90;stroke-width:5;stroke-linecap:butt;stroke-linejoin:miter;stroke-miterlimit:10;stroke-dasharray:29.6725, 29.6725;stroke-dashoffset:0;stroke-opacity:1"
         transform="matrix(0.13333333,0,0,-0.13333333,0,147.04)" />
      <path
         id="path13"
         d="m 1140.46,822.473 13.04,7.422"
         style="fill:none;stroke:#918f90;stroke-width:5;stroke-linecap:butt;stroke-linejoin:miter;stroke-miterlimit:10;stroke-dasharray:none;stroke-opacity:1"
         transform="matrix(0.13333333,0,0,-0.13333333,0,147.04)" />
      <path
         id="path14"
         d="m 424.457,414.641 13.031,7.422"
         style="fill:none;stroke:#231f20;stroke-width:5;stroke-linecap:butt;stroke-linejoin:miter;stroke-miterlimit:10;stroke-dasharray:none;stroke-opacity:1"
         transform="matrix(0.13333333,0,0,-0.13333333,0,147.04)" />
      <path
         id="path15"
         d="M 463.617,436.945 920.844,697.387"
         style="fill:none;stroke:#231f20;stroke-width:5;stroke-linecap:butt;stroke-linejoin:miter;stroke-miterlimit:10;stroke-dasharray:30.0684, 30.0684;stroke-dashoffset:0;stroke-opacity:1"
         transform="matrix(0.13333333,0,0,-0.13333333,0,147.04)" />
      <path
         id="path16"
         d="m 933.91,704.828 13.031,7.422"
         style="fill:none;stroke:#231f20;stroke-width:5;stroke-linecap:butt;stroke-linejoin:miter;stroke-miterlimit:10;stroke-dasharray:none;stroke-opacity:1"
         transform="matrix(0.13333333,0,0,-0.13333333,0,147.04)" />
      <path
         id="path17"
         d="M 406.516,405.191 23.2539,186.98"
         style="fill:none;stroke:#231f20;stroke-width:7.5;stroke-linecap:butt;stroke-linejoin:miter;stroke-miterlimit:10;stroke-dasharray:none;stroke-opacity:1"
         transform="matrix(0.13333333,0,0,-0.13333333,0,147.04)" />
      <path
         id="path18"
         d="m 397.156,399.859 -0.73,-25.293 0.883,-0.054 23.707,29.605 c 9.336,8.426 18.672,16.848 28.007,25.274 -12.007,-3.731 -24.019,-7.453 -36.031,-11.184 l -37.558,-5.273 -0.457,-0.684 22.179,-12.391"
         style="fill:#231f20;fill-opacity:1;fill-rule:nonzero;stroke:none"
         transform="matrix(0.13333333,0,0,-0.13333333,0,147.04)" />
      <path
         id="path19"
         d="m 671.168,982.684 -39.203,8.664 0.711,28.962 39.211,-8.66 -0.719,-28.966"
         style="fill:#dbdbdb;fill-opacity:1;fill-rule:nonzero;stroke:none"
         transform="matrix(0.13333333,0,0,-0.13333333,0,147.04)" />
      <path
         id="path20"
         d="m 671.168,982.684 -39.203,8.664 0.711,28.962 39.211,-8.66 z"
         style="fill:none;stroke:#231f20;stroke-width:5;stroke-linecap:butt;stroke-linejoin:miter;stroke-miterlimit:10;stroke-dasharray:none;stroke-opacity:1"
         transform="matrix(0.13333333,0,0,-0.13333333,0,147.04)" />
      <path
         id="path21"
         d="M 375,846.004 651.934,1001.51 23.2539,186.98"
         style="fill:none;stroke:#231f20;stroke-width:7.5;stroke-linecap:round;stroke-linejoin:round;stroke-miterlimit:4;stroke-dasharray:none;stroke-opacity:1"
         transform="matrix(0.13333333,0,0,-0.13333333,0,147.04)" />
      <path
         id="path22"
         d="m 384.391,851.277 0.879,25.289 -0.883,0.063 -23.883,-29.469 c -9.387,-8.367 -18.77,-16.738 -28.156,-25.105 12.031,3.656 24.062,7.312 36.093,10.968 l 37.594,5.051 0.465,0.684 -22.109,12.519"
         style="fill:#231f20;fill-opacity:1;fill-rule:nonzero;stroke:none"
         transform="matrix(0.13333333,0,0,-0.13333333,0,147.04)" />
      <g
         id="g22"
         aria-label="dA&#10;θ&#10;r&#10;2"
         transform="matrix(1.3333333,0,0,1.3333333,84.262,27.5536)">
        <path
           id="path23"
           d="m 4.6521328,-0.45621562 -0.2929687,-0.0234375 c -0.328125,-0.046875 -0.3867188,-0.0820313 -0.3867188,-0.55078128 v -5.3789062 c -0.3398437,0.1171875 -0.9375,0.2578125 -1.40625,0.3164062 v 0.2109375 c 0.6445313,0.046875 0.6914063,0.082031 0.6914063,0.6679688 v 1.2773437 c -0.2109375,-0.082031 -0.46875,-0.1054687 -0.5976563,-0.1054687 -1.21875,0 -2.32031249,0.984375 -2.32031249,2.2382812 0,1.25390628 0.94921879,1.91015628 1.66406249,1.91015628 0.1054688,0 0.3515625,-0.046875 0.703125,-0.2578125 l 0.5507813,-0.328125 v 0.5859375 c 0.5273437,-0.1875 1.1953125,-0.3046875 1.3945312,-0.33984375 z m -1.3945312,-0.3046875 c -0.2109375,0.1640625 -0.5390625,0.3046875 -0.8671875,0.3046875 -0.5742188,0 -1.2304688,-0.52734375 -1.2304688,-1.59374998 0,-1.3007813 0.7617188,-1.6523438 1.171875,-1.6523438 0.3398438,0 0.7148438,0.140625 0.9257813,0.4570313 z m 0,0"
           style="fill:#231f20;fill-opacity:1;fill-rule:nonzero;stroke:none" />
        <path
           id="path24"
           d="M 10.341586,-0.24527812 C 9.6970547,-0.30387187 9.6384609,-0.38590312 9.5329922,-1.0304344 9.3337734,-2.0968406 9.1345547,-3.2218406 8.9587734,-4.3819969 l -0.2578125,-1.59375 -0.28125,0.070312 -2.7070312,4.8046875 c -0.421875,0.73828128 -0.515625,0.78515628 -1.0546875,0.85546878 L 4.5876797,8.15625e-4 h 1.9335937 l 0.058594,-0.246093745 c -0.6914063,-0.046875 -0.7617188,-0.1171875 -0.4921875,-0.65625 0.1992187,-0.41015628 0.46875,-0.93749998 0.6210937,-1.21874998 h 1.8867188 c 0.09375,0.515625 0.1640625,0.9492187 0.2226562,1.32421873 0.058594,0.38671875 0.023437,0.4921875 -0.5976562,0.55078125 L 8.1501797,8.15625e-4 H 10.282992 Z M 8.5368984,-2.5069969 H 6.9079922 c 0.3867187,-0.7617187 0.8085937,-1.5 1.2539062,-2.3203125 h 0.023437 z M -22.333219,9.2527688 c -1.59375,0 -2.613281,2.6718752 -2.613281,4.5585942 0,0.9375 0.257813,1.957031 1.265625,1.957031 1.617188,0 2.566406,-2.695313 2.566406,-4.617188 0,-0.972656 -0.257812,-1.8984372 -1.21875,-1.8984372 z m -1.699218,2.9179692 c 0.269531,-1.347657 0.84375,-2.6132817 1.570312,-2.6132817 0.585938,0 0.644531,0.8906247 0.644531,1.3710937 0,0.410156 -0.05859,0.796875 -0.105468,1.242188 z m 2.039062,0.421875 c -0.246094,1.429687 -0.820312,2.859375 -1.570312,2.859375 -0.527344,0 -0.667969,-0.773438 -0.667969,-1.476563 0,-0.46875 0.05859,-0.925781 0.128906,-1.382812 z m 0.764648,19.96289 c 0.269532,-0.246094 0.550782,-0.433594 0.632813,-0.433594 0.07031,0 0.07031,0.09375 0.02344,0.386719 -0.175781,0.960938 -0.421875,2.074219 -0.65625,3.035156 l 0.07031,0.07031 c 0.199219,-0.07031 0.433594,-0.128906 0.632812,-0.164063 0.117188,-0.585937 0.222657,-1.160156 0.363282,-1.757812 0.164062,-0.410156 0.445312,-0.832031 0.644531,-1.113281 0.199219,-0.292969 0.339844,-0.386719 0.457031,-0.386719 0.09375,0 0.199219,0.04687 0.304688,0.152344 0.04687,0.04687 0.117187,0.04687 0.199218,0 0.08203,-0.07031 0.164063,-0.152344 0.234375,-0.269532 0.07031,-0.117187 0.07031,-0.269531 0,-0.386718 -0.07031,-0.117188 -0.234375,-0.222657 -0.386718,-0.222657 -0.351563,0 -0.890625,0.609375 -1.347657,1.5 h -0.02344 l 0.09375,-0.457031 c 0.128906,-0.632812 0.117187,-1.042969 -0.105469,-1.042969 -0.246094,0 -0.796875,0.375 -1.253906,0.878907 z m 0,0"
           style="fill:#231f20;fill-opacity:1;fill-rule:nonzero;stroke:none" />
        <path
           id="path25"
           d="m -15.304898,31.664878 c -0.175782,0.386719 -0.257813,0.410156 -0.585938,0.410156 h -1.113281 l 0.84375,-0.902343 c 0.550781,-0.585938 0.796875,-0.9375 0.796875,-1.464844 0,-0.621094 -0.480469,-1.007813 -1.007813,-1.007813 -0.351562,0 -0.632812,0.152344 -0.808593,0.351563 l -0.339844,0.492187 0.128906,0.117188 c 0.152344,-0.234375 0.410156,-0.5625 0.808594,-0.5625 0.445312,0 0.714844,0.292969 0.714844,0.796875 0,0.515625 -0.375,1.007812 -0.75,1.453125 -0.304688,0.351562 -0.632813,0.691406 -0.972657,1.019531 v 0.140625 h 2.238282 c 0.08203,-0.269531 0.140625,-0.539062 0.210937,-0.785156 z m 0,0"
           style="fill:#231f20;fill-opacity:1;fill-rule:nonzero;stroke:none" />
      </g>
    </g>
  </g>
</svg>
