<?xml version="1.0" encoding="UTF-8" standalone="no"?>
<!-- Created with Inkscape (http://www.inkscape.org/) -->

<svg
   version="1.1"
   id="svg1"
   width="237.05333"
   height="104.49333"
   viewBox="0 0 237.05333 104.49333"
   sodipodi:docname="pha12f28.eps"
   xmlns:inkscape="http://www.inkscape.org/namespaces/inkscape"
   xmlns:sodipodi="http://sodipodi.sourceforge.net/DTD/sodipodi-0.dtd"
   xmlns="http://www.w3.org/2000/svg"
   xmlns:svg="http://www.w3.org/2000/svg">
  <defs
     id="defs1" />
  <sodipodi:namedview
     id="namedview1"
     pagecolor="#ffffff"
     bordercolor="#000000"
     borderopacity="0.25"
     inkscape:showpageshadow="2"
     inkscape:pageopacity="0.0"
     inkscape:pagecheckerboard="0"
     inkscape:deskcolor="#d1d1d1">
    <inkscape:page
       x="0"
       y="0"
       inkscape:label="1"
       id="page1"
       width="237.05333"
       height="104.49333"
       margin="0"
       bleed="0" />
  </sodipodi:namedview>
  <g
     id="g1"
     inkscape:groupmode="layer"
     inkscape:label="1">
    <g
       id="group-R5">
      <g
         id="g2"
         aria-label="n&#10;p&#10;θ&#10;b&#10;θ&#10;i&#10;θ′&#10;i"
         transform="matrix(1.3333333,0,0,1.3333333,4.80364,9.9021333)">
        <path
           id="path2"
           d="M 4.8640669,1.578125e-4 V -0.26937344 c -0.5039063,-0.0585938 -0.5507813,-0.09375 -0.5507813,-0.6796875 V -2.6599984 c 0,-0.890625 -0.4453125,-1.40625 -1.1601562,-1.40625 -0.2578125,0 -0.4570313,0.09375 -0.7265625,0.2578125 -0.2109375,0.140625 -0.3867188,0.2695312 -0.5742188,0.3984375 v -0.6796875 c -0.4804687,0.1523437 -1.01953122,0.28125 -1.48828122,0.3515625 v 0.234375 c 0.45703125,0.09375 0.50390625,0.1171875 0.50390625,0.6796875 v 1.86328121 c 0,0.59765625 -0.046875,0.62109375 -0.62109375,0.69140625 V 1.578125e-4 H 2.3328169 V -0.26937344 c -0.421875,-0.0585938 -0.4804688,-0.09375 -0.4804688,-0.66796875 V -3.0818734 c 0.2460938,-0.1992188 0.5039063,-0.3515625 0.7851563,-0.3515625 0.4101562,0 0.6914062,0.2695312 0.6914062,0.9140625 v 1.5117187 c 0,0.64453126 -0.046875,0.67968751 -0.4804687,0.73828126 V 1.578125e-4 Z m 0,0"
           style="fill:#231f20;fill-opacity:1;fill-rule:nonzero;stroke:none" />
        <path
           id="path3"
           d="m -2.0792925,47.578283 v -0.714844 c -0.421875,0.175781 -0.9257812,0.328125 -1.3125,0.398438 v 0.210937 c 0.5625,0.07031 0.5976563,0.09375 0.5976563,0.679688 v 4.066406 c 0,0.585937 -0.082031,0.644531 -0.65625,0.703125 v 0.234375 h 2.1328125 v -0.234375 c -0.703125,-0.07031 -0.7617188,-0.117188 -0.7617188,-0.796875 v -1.183594 c 0.1171875,0.07031 0.3632813,0.152344 0.6210938,0.164063 1.17187495,-0.210938 2.2382812,-1.089844 2.2382812,-2.449219 0,-0.890625 -0.59765625,-1.699219 -1.59375,-1.699219 -0.10546875,0 -0.28125,0.04687 -0.4453125,0.140625 z m 0,0.304687 c 0.2460938,-0.1875 0.609375,-0.386718 0.9023438,-0.386718 0.65624995,0 1.2070312,0.539062 1.2070312,1.511718 0,1.007813 -0.515625,1.664063 -1.265625,1.664063 -0.3046875,0 -0.6445312,-0.152344 -0.84375,-0.351563 z m 0,0"
           style="fill:#231f20;fill-opacity:1;fill-rule:nonzero;stroke:none" />
        <path
           id="path4"
           d="m 54.859184,31.538244 c -1.59375,0 -2.613281,2.671875 -2.613281,4.558594 0,0.9375 0.257812,1.957031 1.265625,1.957031 1.617187,0 2.566406,-2.695313 2.566406,-4.617188 0,-0.972656 -0.257812,-1.898437 -1.21875,-1.898437 z m -1.699219,2.917969 c 0.269532,-1.347657 0.84375,-2.613282 1.570313,-2.613282 0.585937,0 0.644531,0.890625 0.644531,1.371094 0,0.410156 -0.05859,0.796875 -0.105469,1.242188 z m 2.039063,0.421875 c -0.246094,1.429687 -0.820313,2.859375 -1.570313,2.859375 -0.527343,0 -0.667968,-0.773438 -0.667968,-1.476563 0,-0.46875 0.05859,-0.925781 0.128906,-1.382812 z m 0,0"
           style="fill:#231f20;fill-opacity:1;fill-rule:nonzero;stroke:none" />
        <path
           id="path5"
           d="m 57.284965,37.523595 v -1.851562 c -0.222656,0.08203 -0.585937,0.175781 -0.867187,0.210937 v 0.140625 c 0.375,0.03516 0.386719,0.07031 0.386719,0.445313 v 3.339844 c 0.339843,0.152343 0.644531,0.210937 0.890625,0.210937 0.796875,0 1.5,-0.621094 1.5,-1.5 0,-0.714844 -0.539063,-1.265625 -1.183594,-1.265625 -0.05859,0 -0.152344,0.02344 -0.246094,0.05859 z m 0,0.1875 c 0.105469,-0.07031 0.292969,-0.117187 0.46875,-0.117187 0.492188,0 0.914063,0.398437 0.914063,1.078125 0,0.691406 -0.316406,1.125 -0.820313,1.125 -0.316406,-0.01172 -0.492187,-0.222656 -0.527343,-0.339844 -0.02344,-0.05859 -0.03516,-0.117187 -0.03516,-0.199219 z m 0,0"
           style="fill:#231f20;fill-opacity:1;fill-rule:nonzero;stroke:none" />
        <path
           id="path6"
           d="m 16.348442,25.040197 c -1.59375,0 -2.613281,2.671875 -2.613281,4.558594 0,0.9375 0.257812,1.957031 1.265625,1.957031 1.617187,0 2.566406,-2.695313 2.566406,-4.617188 0,-0.972656 -0.257813,-1.898437 -1.21875,-1.898437 z m -1.699219,2.917969 c 0.269531,-1.347657 0.84375,-2.613282 1.570313,-2.613282 0.585937,0 0.644531,0.890625 0.644531,1.371094 0,0.410156 -0.05859,0.796875 -0.105469,1.242188 z m 2.039063,0.421875 c -0.246094,1.429687 -0.820313,2.859375 -1.570313,2.859375 -0.527344,0 -0.667969,-0.773438 -0.667969,-1.476563 0,-0.46875 0.05859,-0.925781 0.128907,-1.382812 z m 0,0"
           style="fill:#231f20;fill-opacity:1;fill-rule:nonzero;stroke:none" />
        <path
           id="path7"
           d="m 18.129692,30.237463 c 0.175781,0 0.304687,-0.152344 0.304687,-0.316407 0,-0.175781 -0.128906,-0.304687 -0.292968,-0.304687 -0.164063,0 -0.304688,0.128906 -0.304688,0.304687 0,0.164063 0.140625,0.316407 0.292969,0.316407 z m 0.703125,3.210937 v -0.152344 c -0.386719,-0.03516 -0.421875,-0.07031 -0.421875,-0.480468 v -2.074219 c -0.269531,0.105469 -0.550781,0.1875 -0.855469,0.234375 v 0.140625 c 0.363281,0.05859 0.375,0.09375 0.375,0.457031 v 1.242188 c 0,0.410156 -0.03516,0.445312 -0.421875,0.480468 V 33.4484 Z m 0,0"
           style="fill:#231f20;fill-opacity:1;fill-rule:nonzero;stroke:none" />
        <path
           id="path8"
           d="m 22.245903,10.002111 c -1.59375,0 -2.613281,2.671875 -2.613281,4.558594 0,0.9375 0.257812,1.957031 1.265625,1.957031 1.617187,0 2.566406,-2.695313 2.566406,-4.617188 0,-0.972656 -0.257813,-1.898437 -1.21875,-1.898437 z m -1.699219,2.917969 c 0.269531,-1.347657 0.84375,-2.613282 1.570313,-2.613282 0.585937,0 0.644531,0.890625 0.644531,1.371094 0,0.410156 -0.05859,0.796875 -0.105469,1.242188 z m 2.039063,0.421875 c -0.246094,1.429687 -0.820313,2.859375 -1.570313,2.859375 -0.527344,0 -0.667969,-0.773438 -0.667969,-1.476563 0,-0.46875 0.05859,-0.925781 0.128907,-1.382812 z m 0,0"
           style="fill:#231f20;fill-opacity:1;fill-rule:nonzero;stroke:none" />
        <path
           id="path9"
           d="m 24.372856,12.873205 0.609375,-1.289063 c 0.175781,-0.386719 0.28125,-0.621094 0.316406,-0.738281 0.03516,-0.08203 0.04687,-0.152344 0.04687,-0.222656 0,-0.09375 -0.02344,-0.164063 -0.08203,-0.222657 -0.07031,-0.05859 -0.152344,-0.09375 -0.257813,-0.09375 -0.128906,0 -0.246093,0.03516 -0.339843,0.117188 -0.105469,0.08203 -0.175782,0.222656 -0.234375,0.398437 -0.03516,0.128907 -0.08203,0.375 -0.117188,0.761719 l -0.140625,1.289063 z m 0,0"
           style="fill:#231f20;fill-opacity:1;fill-rule:nonzero;stroke:none" />
        <path
           id="path10"
           d="m 25.093559,15.202306 c 0.175781,0 0.304688,-0.152343 0.304688,-0.316406 0,-0.175781 -0.128907,-0.304687 -0.292969,-0.304687 -0.164063,0 -0.304688,0.128906 -0.304688,0.304687 0,0.164063 0.140625,0.316406 0.292969,0.316406 z m 0.703125,3.210938 V 18.2609 c -0.386719,-0.03516 -0.421875,-0.07031 -0.421875,-0.480469 v -2.074218 c -0.269531,0.105468 -0.550781,0.1875 -0.855469,0.234375 v 0.140625 c 0.363282,0.05859 0.375,0.09375 0.375,0.457031 v 1.242187 c 0,0.410157 -0.03516,0.445313 -0.421875,0.480469 v 0.152344 z m 0,0"
           style="fill:#231f20;fill-opacity:1;fill-rule:nonzero;stroke:none" />
      </g>
      <path
         id="path11"
         d="m 989.98,42.5391 0.458,-2.4571 323.532,60.203 c 1.19,0.223 2.05,1.25 2.05,2.457 l 0.17,552.813 -0.91,1.933 -2.07,0.524 -323.714,-63.731 c -1.168,-0.23 -2.016,-1.261 -2.016,-2.453 V 42.5391 l 0.903,-1.9219 2.055,-0.5352 -0.458,2.4571 h 2.5 V 589.77 l 318.71,62.746 -0.17,-547.692 -321.497,-59.8279 0.457,-2.457 h 2.5 -2.5"
         style="fill:#231f20;fill-opacity:1;fill-rule:nonzero;stroke:none"
         transform="matrix(0.13333333,0,0,-0.13333333,0,104.49333)" />
      <path
         id="path12"
         d="m 1775.35,60.918 0.23,2.4883 -459.56,41.6207 0.17,547.789 456.66,-42.144 V 60.918 h 2.5 l 0.23,2.4883 -0.23,-2.4883 h 2.5 v 552.031 c 0,1.289 -0.98,2.371 -2.27,2.489 l -461.66,42.609 -1.91,-0.641 -0.82,-1.847 -0.17,-552.813 c 0,-1.289 0.99,-2.375 2.27,-2.492 l 461.84,-41.8243 1.91,0.6445 0.81,1.8438 h -2.5"
         style="fill:#231f20;fill-opacity:1;fill-rule:nonzero;stroke:none"
         transform="matrix(0.13333333,0,0,-0.13333333,0,104.49333)" />
      <path
         id="path13"
         d="m 1311.16,565.535 -157.09,14.086 -146.44,13.133 303.56,59.762 -0.03,-86.981"
         style="fill:#ebeaeb;fill-opacity:1;fill-rule:nonzero;stroke:none"
         transform="matrix(0.13333333,0,0,-0.13333333,0,104.49333)" />
      <path
         id="path14"
         d="m 1007.63,592.754 v 0 l 303.56,59.762 v 0 l -303.56,-59.762"
         style="fill:#848182;fill-opacity:1;fill-rule:nonzero;stroke:none"
         transform="matrix(0.13333333,0,0,-0.13333333,0,104.49333)" />
      <path
         id="path15"
         d="m 1450.3,553.059 -134.14,12.031 0.03,87.726 441.38,-40.738 -307.27,-59.019"
         style="fill:#ebeaeb;fill-opacity:1;fill-rule:nonzero;stroke:none"
         transform="matrix(0.13333333,0,0,-0.13333333,0,104.49333)" />
      <path
         id="path16"
         d="m 1316.16,565.09 -5,0.445 0.03,86.981 v 0 l 2.63,0.519 443.75,-40.957 -441.38,40.738 -0.03,-87.726"
         style="fill:#848182;fill-opacity:1;fill-rule:nonzero;stroke:none"
         transform="matrix(0.13333333,0,0,-0.13333333,0,104.49333)" />
      <path
         id="path17"
         d="m 1313.69,655.559 -0.48,2.453 -323.714,-63.731 c -1.219,-0.242 -2.078,-1.343 -2.012,-2.586 0.067,-1.242 1.032,-2.246 2.274,-2.359 l 460.452,-41.289 0.69,0.035 324.92,62.41 c 1.23,0.238 2.09,1.336 2.03,2.578 -0.06,1.246 -1.03,2.254 -2.27,2.368 l -461.66,42.609 -0.71,-0.035 0.48,-2.453 -0.23,-2.493 444.11,-40.988 -307.27,-59.019 -442.67,39.695 306.54,60.351 -0.48,2.454 -0.23,-2.493 0.23,2.493"
         style="fill:#231f20;fill-opacity:1;fill-rule:nonzero;stroke:none"
         transform="matrix(0.13333333,0,0,-0.13333333,0,104.49333)" />
      <path
         id="path18"
         d="m 1450.43,2.5 0.22,2.49219 L 1008.48,43.4414 1313.63,100.223 1756.67,60.1016 1449.99,4.96094 1450.43,2.5 1450.65,4.99219 1450.43,2.5 1450.87,0.0390625 1775.79,58.457 c 1.24,0.2227 2.11,1.3203 2.06,2.5703 -0.06,1.25 -1.03,2.2696 -2.27,2.379 l -461.84,41.8277 -0.68,-0.031 -323.537,-60.2069 c -1.23,-0.2266 -2.101,-1.3281 -2.039,-2.5781 0.059,-1.25 1.032,-2.2617 2.282,-2.3672 L 1450.21,0.0117188 1450.87,0.0390625 1450.43,2.5"
         style="fill:#231f20;fill-opacity:1;fill-rule:nonzero;stroke:none"
         transform="matrix(0.13333333,0,0,-0.13333333,0,104.49333)" />
      <path
         id="path19"
         d="M 992.48,45.5469 V 589.094 l 318.68,-28.578 -0.02,-52.2 -0.12,-403.492 -318.54,-59.2771"
         style="fill:#ebeaeb;fill-opacity:1;fill-rule:nonzero;stroke:none"
         transform="matrix(0.13333333,0,0,-0.13333333,0,104.49333)" />
      <path
         id="path20"
         d="m 992.48,45.5469 v 0 l 318.54,59.2771 0.12,403.492 -0.12,-403.496 -318.54,-59.2731"
         style="fill:#848182;fill-opacity:1;fill-rule:nonzero;stroke:none"
         transform="matrix(0.13333333,0,0,-0.13333333,0,104.49333)" />
      <path
         id="path21"
         d="m 1447.93,93.082 -131.91,11.945 0.14,455.039 131.77,-11.816 V 93.082"
         style="fill:#ebeaeb;fill-opacity:1;fill-rule:nonzero;stroke:none"
         transform="matrix(0.13333333,0,0,-0.13333333,0,104.49333)" />
      <path
         id="path22"
         d="m 1316.02,105.027 v 0 l 0.14,455.039 v 0 l -0.14,-455.039"
         style="fill:#b4b3b3;fill-opacity:1;fill-rule:nonzero;stroke:none"
         transform="matrix(0.13333333,0,0,-0.13333333,0,104.49333)" />
      <path
         id="path23"
         d="m 1311.02,104.82 0.12,403.496 0.02,52.2 5,-0.45 -0.14,-455.039 -2.28,0.207 -0.68,-0.031 -2.04,-0.383"
         style="fill:#848182;fill-opacity:1;fill-rule:nonzero;stroke:none"
         transform="matrix(0.13333333,0,0,-0.13333333,0,104.49333)" />
      <path
         id="path24"
         d="m 1447.93,5.22656 -439.45,38.21484 38.44,7.1524 266.71,49.6292 134.3,-12.1605 V 5.22656"
         style="fill:#ebeaeb;fill-opacity:1;fill-rule:nonzero;stroke:none"
         transform="matrix(0.13333333,0,0,-0.13333333,0,104.49333)" />
      <path
         id="path25"
         d="m 1008.48,43.4414 -16,1.3906 v 0.7149 l 318.54,59.2731 2.04,0.383 0.68,0.031 2.28,-0.207 v 0 l 131.91,-11.945 v -5.0195 l -134.3,12.1605 -266.71,-49.6292 -38.44,-7.1524"
         style="fill:#848182;fill-opacity:1;fill-rule:nonzero;stroke:none"
         transform="matrix(0.13333333,0,0,-0.13333333,0,104.49333)" />
      <path
         id="path26"
         d="m 989.98,591.828 h -2.5 V 42.5391 c 0,-1.2969 0.993,-2.3789 2.286,-2.4883 L 1450.21,0.0117188 1452.12,0.65625 1452.93,2.5 v 548.035 c 0,1.301 -0.98,2.375 -2.28,2.492 l -460.447,41.289 -1.91,-0.644 -0.813,-1.844 h 2.5 l -0.222,-2.492 458.172,-41.086 V 5.22656 L 992.48,44.832 v 546.996 h -2.5 l -0.222,-2.492 0.222,2.492"
         style="fill:#231f20;fill-opacity:1;fill-rule:nonzero;stroke:none"
         transform="matrix(0.13333333,0,0,-0.13333333,0,104.49333)" />
      <path
         id="path27"
         d="M 1772.85,63.6563 1452.93,92.6289 V 548.473 l 319.92,61.449 V 63.6563"
         style="fill:#ebeaeb;fill-opacity:1;fill-rule:nonzero;stroke:none"
         transform="matrix(0.13333333,0,0,-0.13333333,0,104.49333)" />
      <path
         id="path28"
         d="m 1775.35,63.4297 -2.5,0.2266 V 609.922 l 2.5,0.48 V 63.4297"
         style="fill:#848182;fill-opacity:1;fill-rule:nonzero;stroke:none"
         transform="matrix(0.13333333,0,0,-0.13333333,0,104.49333)" />
      <path
         id="path29"
         d="m 1452.93,548.473 v 2.062 c 0,0.164 -0.02,0.32 -0.04,0.473 l 322.46,61.941 v -2.547 l -2.5,-0.48 -319.92,-61.449"
         style="fill:#848182;fill-opacity:1;fill-rule:nonzero;stroke:none"
         transform="matrix(0.13333333,0,0,-0.13333333,0,104.49333)" />
      <path
         id="path30"
         d="M 1452.93,5.48828 V 87.6094 L 1756.67,60.1016 1452.93,5.48828"
         style="fill:#ebeaeb;fill-opacity:1;fill-rule:nonzero;stroke:none"
         transform="matrix(0.13333333,0,0,-0.13333333,0,104.49333)" />
      <path
         id="path31"
         d="m 1452.93,2.94922 v 2.53906 l 303.74,54.61332 -303.74,27.5078 v 5.0195 l 319.92,-28.9726 2.5,-0.2266 V 60.918 L 1452.93,2.94922"
         style="fill:#848182;fill-opacity:1;fill-rule:nonzero;stroke:none"
         transform="matrix(0.13333333,0,0,-0.13333333,0,104.49333)" />
      <path
         id="path32"
         d="m 1450.43,2.5 v 548.035 l 2.46,0.473 c 0.02,-0.153 0.04,-0.309 0.04,-0.473 V 548.473 92.6289 87.6094 5.48828 2.94922 L 1450.43,2.5"
         style="fill:#848182;fill-opacity:1;fill-rule:nonzero;stroke:none"
         transform="matrix(0.13333333,0,0,-0.13333333,0,104.49333)" />
      <path
         id="path33"
         d="m 1775.35,60.918 -0.44,2.4609 L 1452.93,5.48828 V 548.473 l 319.92,61.453 V 60.918 h 2.5 l -0.44,2.4609 0.44,-2.4609 h 2.5 v 552.031 l -0.91,1.93 -2.06,0.527 -324.92,-62.414 c -1.18,-0.226 -2.03,-1.254 -2.03,-2.457 V 2.5 l 0.9,-1.917969 2.04,-0.5429685 L 1775.79,58.457 c 1.19,0.2149 2.06,1.2539 2.06,2.461 h -2.5"
         style="fill:#231f20;fill-opacity:1;fill-rule:nonzero;stroke:none"
         transform="matrix(0.13333333,0,0,-0.13333333,0,104.49333)" />
      <path
         id="path34"
         d="m 72.4297,264.941 c 0,-6.211 -5.0469,-11.25 -11.25,-11.25 -6.2188,0 -11.25,5.039 -11.25,11.25 0,6.211 5.0312,11.25 11.25,11.25 6.2031,0 11.25,-5.039 11.25,-11.25"
         style="fill:#231f20;fill-opacity:1;fill-rule:nonzero;stroke:none"
         transform="matrix(0.13333333,0,0,-0.13333333,0,104.49333)" />
      <path
         id="path35"
         d="m 72.4297,264.941 h -5 c -0.0039,-3.437 -2.8125,-6.242 -6.25,-6.25 -3.457,0.008 -6.2422,2.797 -6.25,6.25 0.0078,3.454 2.793,6.247 6.25,6.25 3.4375,-0.003 6.2461,-2.808 6.25,-6.25 h 5 5 c -0.0078,8.985 -7.2813,16.243 -16.25,16.25 -8.9805,0 -16.2461,-7.281 -16.25,-16.25 0.0039,-8.968 7.2695,-16.246 16.25,-16.25 8.9687,0.008 16.2422,7.27 16.25,16.25 h -5"
         style="fill:#231f20;fill-opacity:1;fill-rule:nonzero;stroke:none"
         transform="matrix(0.13333333,0,0,-0.13333333,0,104.49333)" />
      <path
         id="path36"
         d="M 61.2734,261.191 1385.46,293.41 1385.28,300.906 61.0898,268.691"
         style="fill:#231f20;fill-opacity:1;fill-rule:nonzero;stroke:none"
         transform="matrix(0.13333333,0,0,-0.13333333,0,104.49333)" />
      <path
         id="path37"
         d="m 1395.88,296.797 c 0,-6.211 -5.04,-11.25 -11.25,-11.25 -6.21,0 -11.25,5.039 -11.25,11.25 0,6.211 5.04,11.25 11.25,11.25 6.21,0 11.25,-5.039 11.25,-11.25"
         style="fill:#231f20;fill-opacity:1;fill-rule:nonzero;stroke:none"
         transform="matrix(0.13333333,0,0,-0.13333333,0,104.49333)" />
      <path
         id="path38"
         d="m 1395.88,296.797 h -5 c -0.01,-3.445 -2.81,-6.242 -6.25,-6.25 -3.45,0.008 -6.24,2.805 -6.25,6.25 0.01,3.445 2.8,6.246 6.25,6.25 3.44,-0.004 6.24,-2.805 6.25,-6.25 h 5 5 c -0.01,8.976 -7.28,16.246 -16.25,16.25 -8.98,-0.004 -16.25,-7.274 -16.25,-16.25 0,-8.977 7.27,-16.246 16.25,-16.25 8.97,0.004 16.24,7.273 16.25,16.25 h -5"
         style="fill:#231f20;fill-opacity:1;fill-rule:nonzero;stroke:none"
         transform="matrix(0.13333333,0,0,-0.13333333,0,104.49333)" />
      <path
         id="path39"
         d="m 62.418,263.734 928.801,324.551 -2.477,7.082 L 59.9453,270.816"
         style="fill:#231f20;fill-opacity:1;fill-rule:nonzero;stroke:none"
         transform="matrix(0.13333333,0,0,-0.13333333,0,104.49333)" />
      <path
         id="path40"
         d="m 1001.23,591.828 c 0,-6.211 -5.039,-11.25 -11.25,-11.25 -6.21,0 -11.25,5.039 -11.25,11.25 0,6.207 5.04,11.25 11.25,11.25 6.211,0 11.25,-5.043 11.25,-11.25"
         style="fill:#231f20;fill-opacity:1;fill-rule:nonzero;stroke:none"
         transform="matrix(0.13333333,0,0,-0.13333333,0,104.49333)" />
      <path
         id="path41"
         d="m 1001.23,591.828 h -5 c -0.007,-3.445 -2.804,-6.246 -6.25,-6.25 -3.445,0.004 -6.242,2.805 -6.25,6.25 0.008,3.445 2.805,6.242 6.25,6.25 3.446,-0.008 6.243,-2.805 6.25,-6.25 h 5 5 c 0,8.977 -7.273,16.242 -16.25,16.25 -8.976,-0.008 -16.246,-7.273 -16.25,-16.25 0.004,-8.976 7.274,-16.246 16.25,-16.25 8.977,0.004 16.25,7.274 16.25,16.25 h -5"
         style="fill:#231f20;fill-opacity:1;fill-rule:nonzero;stroke:none"
         transform="matrix(0.13333333,0,0,-0.13333333,0,104.49333)" />
      <path
         id="path42"
         d="m 507.422,423.898 c 16.473,-46.25 25.965,-95.816 27.199,-147.433 l 4.996,0.121 c -1.246,52.152 -10.836,102.25 -27.488,148.988 l -4.707,-1.676"
         style="fill:#231f20;fill-opacity:1;fill-rule:nonzero;stroke:none"
         transform="matrix(0.13333333,0,0,-0.13333333,0,104.49333)" />
      <path
         id="path43"
         d="m 57.4297,267.277 h 7.5 v 362.324 h -7.5 z"
         style="fill:#231f20;fill-opacity:1;fill-rule:nonzero;stroke:none"
         transform="matrix(0.13333333,0,0,-0.13333333,0,104.49333)" />
      <path
         id="path44"
         d="m 61.1797,618.832 -21.6133,-13.148 -0.4922,0.738 14.0039,35.25 c 2.6992,12.281 5.3985,24.562 8.1016,36.844 2.7031,-12.282 5.4023,-24.563 8.1055,-36.844 l 14.0039,-35.25 -0.3711,-0.738 -21.7383,13.148"
         style="fill:#231f20;fill-opacity:1;fill-rule:nonzero;stroke:none"
         transform="matrix(0.13333333,0,0,-0.13333333,0,104.49333)" />
      <path
         id="path45"
         d="m 223.477,264.941 c 0,89.633 -72.661,162.293 -162.2973,162.297 v -5 c 43.4453,-0.004 82.7543,-17.601 111.2263,-46.07 28.469,-28.477 46.071,-67.781 46.071,-111.227 h 5"
         style="fill:#231f20;fill-opacity:1;fill-rule:nonzero;stroke:none"
         transform="matrix(0.13333333,0,0,-0.13333333,0,104.49333)" />
      <path
         id="path46"
         d="M 357.336,370.781 C 313.887,492.359 197.688,579.352 61.1797,579.355 v -5 C 195.516,574.359 309.863,488.734 352.625,369.102 l 4.711,1.679"
         style="fill:#231f20;fill-opacity:1;fill-rule:nonzero;stroke:none"
         transform="matrix(0.13333333,0,0,-0.13333333,0,104.49333)" />
      <path
         id="path47"
         d="m 1326.36,545.305 4.46,-17.379 8.01,16.066 0.76,-17.922 11.15,14.047 -2.97,-17.699 13.83,11.43 -6.59,-16.696 15.93,8.301 -9.92,-14.961 17.29,4.817 -12.81,-12.571 17.9,1.11 -15.14,-9.629 17.76,-2.641 -16.82,-6.269 16.82,-6.274 -17.76,-2.644 15.14,-9.629 -17.9,1.113 12.81,-12.566 -17.29,4.808 9.92,-14.961 -15.93,8.301 6.59,-16.687 -13.83,11.425 2.97,-17.703 -11.15,14.051 -0.76,-17.926 -8.01,16.071 -4.46,-17.383 -4.5,17.383 -7.99,-16.071 -0.76,17.926 -11.18,-14.051 2.99,17.703 -13.85,-11.425 6.6,16.687 -15.91,-8.301 9.91,14.961 -17.29,-4.808 12.82,12.566 -17.92,-1.113 15.15,9.629 -17.75,2.644 16.8,6.274 -16.8,6.269 17.75,2.641 -15.15,9.629 17.92,-1.11 -12.82,12.571 17.29,-4.817 -9.91,14.961 15.91,-8.301 -6.6,16.696 13.85,-11.43 -2.99,17.699 11.18,-14.047 0.76,17.922 7.99,-16.066 4.5,17.379"
         style="fill:#fddd1b;fill-opacity:1;fill-rule:nonzero;stroke:none"
         transform="matrix(0.13333333,0,0,-0.13333333,0,104.49333)" />
      <path
         id="path48"
         d="m 1326.36,545.305 -1.7,-0.438 5.63,-21.926 7.08,14.2 0.47,-11.145 0.2,-4.691 9.85,12.41 -1.84,-11.008 -0.78,-4.629 12.21,10.09 -5.82,-14.734 14.07,7.332 -8.77,-13.215 15.28,4.25 -11.32,-11.098 15.81,0.981 -13.36,-8.504 15.67,-2.332 -14.85,-5.539 14.86,-5.543 -11.05,-1.645 -4.63,-0.687 13.36,-8.504 -11.12,0.691 -4.69,0.293 11.32,-11.101 -15.28,4.246 8.77,-13.215 -14.07,7.332 5.82,-14.731 -12.21,10.086 2.62,-15.636 -9.85,12.414 -0.67,-15.836 -7.08,14.195 -3.94,-15.355 -3.98,15.347 -7.04,-14.176 -0.48,11.133 -0.2,4.684 -9.86,-12.406 1.86,11.007 0.78,4.629 -12.24,-10.093 5.83,14.742 -14.06,-7.332 8.76,13.215 -15.26,-4.247 11.31,11.098 -15.82,-0.984 13.38,8.504 -15.69,2.332 14.84,5.543 -14.83,5.535 11.04,1.644 4.64,0.692 -13.38,8.504 11.14,-0.692 4.68,-0.289 -11.31,11.098 15.26,-4.254 -8.76,13.219 14.06,-7.336 -5.83,14.75 12.24,-10.102 -2.64,15.637 9.86,-12.406 0.68,15.82 7.04,-14.18 5.68,21.914 -1.69,0.442 -1.7,-0.438 1.7,0.438 -1.7,0.437 -3.32,-12.844 -8.93,17.961 -0.85,-20.031 -12.48,15.692 3.33,-19.762 -15.46,12.758 7.36,-18.641 -17.76,9.27 11.07,-16.707 -19.31,5.378 14.31,-14.039 -20.02,1.239 16.93,-10.758 -19.82,-2.949 18.76,-7 -18.75,-7.008 19.81,-2.949 -16.93,-10.758 20.02,1.246 -14.31,-14.039 19.31,5.375 -11.07,-16.711 17.76,9.269 -7.36,-18.636 15.46,12.757 -3.33,-19.765 12.48,15.691 0.85,-20.031 8.93,17.961 5.02,-19.418 4.99,19.41 8.94,-17.941 0.85,20.015 12.45,-15.687 -3.31,19.765 15.45,-12.765 -7.37,18.648 17.79,-9.269 -11.08,16.707 19.31,-5.371 -14.31,14.035 20,-1.246 -16.91,10.758 19.83,2.949 -18.78,7.008 18.78,7 -19.83,2.953 16.9,10.754 -19.99,-1.239 14.32,14.039 -19.32,-5.378 11.08,16.707 -17.79,-9.27 7.37,18.652 -15.45,-12.769 3.31,19.762 -12.45,-15.684 -0.85,20.012 -8.94,-17.942 -4.99,19.403 -1.7,-6.567 1.7,-0.437"
         style="fill:#231f20;fill-opacity:1;fill-rule:nonzero;stroke:none"
         transform="matrix(0.13333333,0,0,-0.13333333,0,104.49333)" />
      <path
         id="path49"
         d="m 1648.08,537.895 4.83,-18.829 8.67,17.414 0.83,-19.417 12.08,15.214 -3.21,-19.175 14.98,12.386 -7.14,-18.086 17.25,8.989 -10.74,-16.203 18.73,5.214 -13.88,-13.617 19.39,1.203 -16.39,-10.433 19.23,-2.864 -18.22,-6.789 18.22,-6.797 -19.23,-2.863 16.39,-10.429 -19.39,1.207 13.88,-13.618 -18.73,5.207 10.74,-16.203 -17.25,8.992 7.14,-18.082 -14.98,12.379 3.21,-19.175 -12.08,15.214 -0.83,-19.418 -8.67,17.414 -4.83,-18.835 -4.88,18.835 -8.65,-17.414 -0.83,19.418 -12.1,-15.214 3.23,19.175 -15,-12.379 7.14,18.082 -17.22,-8.992 10.73,16.203 -18.72,-5.207 13.87,13.618 -19.41,-1.207 16.42,10.429 -19.23,2.863 18.19,6.797 -18.19,6.789 19.23,2.864 -16.42,10.433 19.41,-1.203 -13.87,13.617 18.72,-5.214 -10.73,16.203 17.22,-8.989 -7.14,18.086 15,-12.386 -3.23,19.175 12.1,-15.214 0.83,19.417 8.65,-17.414 4.88,18.829"
         style="fill:#fddd1b;fill-opacity:1;fill-rule:nonzero;stroke:none"
         transform="matrix(0.13333333,0,0,-0.13333333,0,104.49333)" />
      <path
         id="path50"
         d="m 1648.08,537.895 -1.7,-0.434 6,-23.375 7.74,15.539 0.54,-12.641 0.2,-4.687 10.79,13.578 -2.87,-17.113 13.36,11.047 -6.37,-16.125 15.39,8.019 -9.59,-14.461 16.71,4.653 -12.38,-12.145 17.31,1.074 -14.63,-9.312 17.15,-2.551 -16.24,-6.059 16.25,-6.066 -17.16,-2.555 14.62,-9.301 -17.3,1.075 12.39,-12.149 -16.72,4.649 9.59,-14.461 -15.39,8.027 6.37,-16.129 -13.36,11.039 2.87,-17.109 -10.79,13.578 -0.74,-17.328 -7.74,15.543 -4.31,-16.805 -4.35,16.797 -7.71,-15.523 -0.54,12.625 -0.2,4.683 -10.8,-13.57 2.89,17.109 -13.39,-11.047 6.37,16.141 -15.37,-8.027 9.58,14.457 -16.7,-4.649 12.38,12.153 -17.31,-1.079 14.64,9.301 -17.17,2.555 16.23,6.066 -16.23,6.059 17.17,2.555 -14.65,9.308 17.32,-1.074 -12.38,12.141 16.7,-4.649 -9.58,14.461 15.37,-8.023 -6.37,16.136 13.39,-11.054 -2.89,17.113 10.8,-13.574 0.74,17.312 7.71,-15.523 6.05,23.367 -1.69,0.438 -1.7,-0.434 1.7,0.434 -1.7,0.441 -3.7,-14.289 -9.59,19.301 -0.92,-21.528 -13.4,16.856 3.58,-21.235 -16.62,13.719 7.91,-20.035 -19.08,9.957 11.89,-17.953 -20.75,5.781 15.38,-15.086 -21.51,1.328 18.19,-11.558 -21.3,-3.168 20.16,-7.528 -20.15,-7.527 21.29,-3.168 -18.2,-11.558 21.52,1.335 -15.37,-15.085 20.74,5.773 -11.89,-17.957 19.08,9.965 -7.91,-20.028 16.62,13.711 -3.58,-21.238 13.4,16.856 0.92,-21.528 9.59,19.301 5.4,-20.867 5.36,20.863 9.6,-19.285 0.92,21.512 13.38,-16.852 -3.56,21.238 16.6,-13.718 -7.91,20.039 19.11,-9.965 -11.9,17.953 20.75,-5.773 -15.38,15.085 21.49,-1.335 -18.17,11.558 21.3,3.168 -20.17,7.527 20.18,7.528 -21.31,3.168 18.17,11.562 -21.49,-1.332 15.38,15.086 -20.75,-5.777 11.89,17.945 -19.1,-9.957 7.91,20.051 -16.6,-13.731 3.56,21.235 -13.38,-16.852 -0.92,21.512 -9.6,-19.285 -5.36,20.855 -1.7,-6.57 1.7,-0.441"
         style="fill:#231f20;fill-opacity:1;fill-rule:nonzero;stroke:none"
         transform="matrix(0.13333333,0,0,-0.13333333,0,104.49333)" />
      <path
         id="path51"
         d="m 1118.1,251.109 6.7,-26.07 12.01,24.106 1.14,-26.887 16.74,21.066 -4.46,-26.547 20.75,17.153 -9.89,-25.043 23.88,12.453 -14.87,-22.442 25.94,7.215 -19.22,-18.847 26.85,1.664 -22.7,-14.453 26.63,-3.957 -25.23,-9.407 25.23,-9.41 -26.63,-3.961 22.7,-14.441 -26.85,1.672 19.22,-18.86 -25.94,7.211 14.87,-22.429 -23.88,12.449 9.89,-25.0393 -20.75,17.1403 4.46,-26.5466 -16.74,21.0664 -1.14,-26.8867 -12.01,24.1055 -6.7,-26.0742 -6.74,26.0742 -11.98,-24.1055 -1.16,26.8867 -16.76,-21.0664 4.49,26.5466 -20.76,-17.1403 9.89,25.0393 -23.87,-12.449 14.86,22.429 -25.91,-7.211 19.2,18.86 -26.87,-1.672 22.72,14.441 -26.62,3.961 25.2,9.41 -25.2,9.407 26.62,3.957 -22.72,14.453 26.87,-1.664 -19.2,18.847 25.91,-7.215 -14.86,22.442 23.87,-12.453 -9.89,25.043 20.76,-17.153 -4.49,26.547 16.76,-21.066 1.16,26.887 11.98,-24.106 6.74,26.07"
         style="fill:#fddd1b;fill-opacity:1;fill-rule:nonzero;stroke:none"
         transform="matrix(0.13333333,0,0,-0.13333333,0,104.49333)" />
      <path
         id="path52"
         d="m 1118.1,251.109 -1.7,-0.437 7.88,-30.613 11.07,22.226 1.05,-24.793 15.44,19.438 -4.11,-24.492 19.12,15.812 -9.11,-23.082 22.02,11.48 -13.71,-20.695 23.91,6.652 -17.72,-17.375 24.77,1.536 -20.94,-13.328 24.55,-3.653 -23.26,-8.672 23.27,-8.675 -24.56,-3.653 20.93,-13.316 -24.76,1.539 17.73,-17.391 -23.92,6.653 13.71,-20.684 -22.02,11.48 9.12,-23.0855 -19.13,15.8005 4.11,-24.4841 -15.44,19.4331 -1.05,-24.7925 -11.07,22.2265 -6.19,-24.0468 -6.21,24.0428 -11.05,-22.2186 -1.06,24.7816 -15.45,-19.4222 4.13,24.4802 -19.14,-15.8005 9.12,23.0855 -22.01,-11.48 13.7,20.684 -23.9,-6.653 17.71,17.391 -24.77,-1.539 20.95,13.316 -24.55,3.653 23.23,8.675 -23.23,8.672 24.55,3.653 -20.95,13.328 24.77,-1.536 -17.7,17.375 23.89,-6.652 -13.7,20.695 22.01,-11.484 -9.12,23.09 19.15,-15.82 -4.14,24.492 15.45,-19.426 1.06,24.781 11.05,-22.222 7.91,30.613 -1.69,0.437 -1.7,-0.437 1.7,0.437 -1.7,0.438 -5.56,-21.527 -12.92,25.992 -1.25,-28.996 -18.06,22.711 4.83,-28.606 -22.38,18.488 10.67,-27 -25.72,13.418 16.02,-24.187 -27.94,7.781 20.69,-20.316 -28.96,1.793 24.5,-15.578 -28.69,-4.27 27.16,-10.137 -27.16,-10.14 28.69,-4.27 -24.5,-15.57 28.96,1.801 -20.69,-20.325 27.93,7.774 -16.02,-24.1799 25.73,13.4179 -10.67,-26.9882 22.38,18.4722 -4.83,-28.6089 18.06,22.7148 1.25,-28.9961 12.92,25.9883 7.26,-28.1054 7.23,28.1054 12.94,-25.9883 1.23,28.9883 18.04,-22.7031 -4.8,28.605 22.36,-18.4761 -10.66,26.9961 25.74,-13.4219 -16.03,24.1799 27.96,-7.774 -20.72,20.325 28.95,-1.801 -24.48,15.57 28.71,4.27 -27.19,10.14 27.19,10.137 -28.71,4.27 24.47,15.578 -28.94,-1.793 20.72,20.316 -27.96,-7.781 16.03,24.187 -25.74,-13.418 10.66,27 -22.36,-18.492 4.79,28.606 -18.03,-22.703 -1.23,28.984 -12.94,-25.984 -7.23,28.097 -1.7,-6.57 1.7,-0.438"
         style="fill:#231f20;fill-opacity:1;fill-rule:nonzero;stroke:none"
         transform="matrix(0.13333333,0,0,-0.13333333,0,104.49333)" />
      <path
         id="path53"
         d="m 1566.78,265.137 7.46,-28.965 13.32,26.781 1.27,-29.875 18.59,23.41 -4.94,-29.496 23.07,19.059 -11,-27.828 26.52,13.84 -16.52,-24.938 28.83,8.016 -21.37,-20.942 29.87,1.852 -25.24,-16.059 29.57,-4.402 -28.01,-10.449 28.01,-10.453 -29.57,-4.399 25.24,-16.051 -29.87,1.856 21.37,-20.953 -28.83,8.015 16.52,-24.9216 -26.52,13.8316 11,-27.8238 -23.07,19.0428 4.94,-29.4959 -18.59,23.414 -1.27,-29.8789 -13.32,26.7813 -7.46,-28.9688 -7.48,28.9688 -13.32,-26.7813 -1.29,29.8789 -18.62,-23.414 4.98,29.4959 -23.06,-19.0428 10.99,27.8238 -26.52,-13.8316 16.52,24.9216 -28.8,-8.015 21.34,20.953 -29.86,-1.856 25.25,16.051 -29.59,4.399 28.01,10.453 -28.01,10.449 29.59,4.402 -25.25,16.059 29.86,-1.852 -21.34,20.942 28.8,-8.016 -16.52,24.938 26.52,-13.84 -10.99,27.828 23.06,-19.059 -4.98,29.496 18.62,-23.41 1.29,29.875 13.32,-26.781 7.48,28.965"
         style="fill:#fddd1b;fill-opacity:1;fill-rule:nonzero;stroke:none"
         transform="matrix(0.13333333,0,0,-0.13333333,0,104.49333)" />
      <path
         id="path54"
         d="m 1566.78,265.137 -1.7,-0.438 8.63,-33.511 12.39,24.902 1.18,-27.777 17.3,21.781 -4.6,-27.438 21.44,17.715 -10.22,-25.871 24.67,12.871 -15.37,-23.187 26.8,7.453 -19.87,-19.473 27.78,1.719 -23.46,-14.934 27.49,-4.09 -26.04,-9.718 26.04,-9.719 -27.5,-4.094 23.47,-14.922 -27.78,1.727 19.88,-19.488 -26.81,7.453 15.36,-23.172 -24.66,12.863 10.22,-25.871 -21.44,17.703 4.6,-27.4335 -17.3,21.7815 -1.18,-27.7776 -12.39,24.8984 -6.94,-26.9453 -6.95,26.9414 -12.39,-24.9023 -1.2,27.7774 -17.3,-21.7657 4.63,27.4297 -21.45,-17.707 10.23,25.871 -24.67,-12.863 15.37,23.172 -26.8,-7.45 19.86,19.485 -27.77,-1.727 23.48,14.922 -27.52,4.094 26.05,9.719 -26.05,9.718 27.52,4.09 -23.48,14.934 27.77,-1.723 -19.85,19.477 26.78,-7.457 -15.36,23.191 24.67,-12.871 -10.23,25.871 21.45,-17.719 -4.63,27.434 17.3,-21.766 1.2,27.778 12.39,-24.903 8.65,33.504 -1.69,0.438 -1.7,-0.438 1.7,0.438 -1.7,0.437 -6.3,-24.422 -14.26,28.661 -1.38,-31.977 -19.92,25.059 5.33,-31.559 -24.69,20.391 11.77,-29.782 -28.38,14.805 17.68,-26.684 -30.83,8.582 22.85,-22.41 -31.96,1.981 27.03,-17.188 -31.67,-4.707 29.98,-11.183 -29.97,-11.188 31.65,-4.707 -27.02,-17.176 31.96,1.989 -22.84,-22.422 30.82,8.574 -17.68,-26.668 28.38,14.801 -11.77,-29.7737 24.69,20.375 -5.33,-31.5625 19.92,25.0625 1.38,-31.9765 14.25,28.6601 8.01,-31 7.98,30.9961 14.26,-28.6641 1.36,31.9766 19.89,-25.0469 -5.29,31.5625 24.69,-20.3828 -11.77,29.7737 28.39,-14.801 -17.69,26.672 30.85,-8.578 -22.86,22.418 31.96,-1.985 -27.01,17.176 31.64,4.707 -29.97,11.188 29.97,11.183 -31.64,4.707 27,17.188 -31.95,-1.981 22.87,22.41 -30.86,-8.582 17.68,26.684 -28.38,-14.805 11.77,29.782 -24.69,-20.399 5.29,31.563 -19.89,-25.051 -1.36,31.98 -14.26,-28.664 -7.98,30.989 -1.7,-6.571 1.7,-0.437"
         style="fill:#231f20;fill-opacity:1;fill-rule:nonzero;stroke:none"
         transform="matrix(0.13333333,0,0,-0.13333333,0,104.49333)" />
    </g>
  </g>
</svg>
