<?xml version="1.0" encoding="UTF-8" standalone="no"?>
<!-- Created with Inkscape (http://www.inkscape.org/) -->

<svg
   version="1.1"
   id="svg1"
   width="192.78667"
   height="123.13333"
   viewBox="0 0 192.78667 123.13333"
   sodipodi:docname="pha12f20.eps"
   xmlns:inkscape="http://www.inkscape.org/namespaces/inkscape"
   xmlns:sodipodi="http://sodipodi.sourceforge.net/DTD/sodipodi-0.dtd"
   xmlns="http://www.w3.org/2000/svg"
   xmlns:svg="http://www.w3.org/2000/svg">
  <defs
     id="defs1" />
  <sodipodi:namedview
     id="namedview1"
     pagecolor="#ffffff"
     bordercolor="#000000"
     borderopacity="0.25"
     inkscape:showpageshadow="2"
     inkscape:pageopacity="0.0"
     inkscape:pagecheckerboard="0"
     inkscape:deskcolor="#d1d1d1">
    <inkscape:page
       x="0"
       y="0"
       inkscape:label="1"
       id="page1"
       width="192.78667"
       height="123.13333"
       margin="0"
       bleed="0" />
  </sodipodi:namedview>
  <g
     id="g1"
     inkscape:groupmode="layer"
     inkscape:label="1">
    <g
       id="group-R5">
      <path
         id="path2"
         d="m 752.09,286.309 c 2.168,-1.813 43.601,-35.661 43.601,-35.661 v -8.16 H 780.918 V 76.3672 H 770.742 L 760.281,219.52 h -12.683 l -2.215,-89.856 h -8.879 l -9.039,89.805 -241.852,-3.067 -8.804,-89.761 h -9.524 L 464.109,216.5 H 456.82 L 445.078,75.793 434.453,75.7617 432.406,239.164 c 0,0 -10.988,2.922 -11.41,3.625 -0.676,1.113 -0.637,5.938 0,6.953 0.899,1.465 32.996,33.539 35.824,33.539 5.391,0 293.106,4.844 295.27,3.028"
         style="fill:#c0925b;fill-opacity:1;fill-rule:nonzero;stroke:none"
         transform="matrix(0.13333333,0,0,-0.13333333,0,123.13333)" />
      <path
         id="path3"
         d="m 752.09,286.309 c 2.168,-1.813 43.601,-35.661 43.601,-35.661 v -8.16 H 780.918 V 76.3672 H 770.742 L 760.281,219.52 h -12.683 l -2.215,-89.856 h -8.879 l -9.039,89.805 -241.852,-3.067 -8.804,-89.761 h -9.524 L 464.109,216.5 H 456.82 L 445.078,75.793 434.453,75.7617 432.406,239.164 c 0,0 -10.988,2.922 -11.41,3.625 -0.676,1.113 -0.637,5.938 0,6.953 0.899,1.465 32.996,33.539 35.824,33.539 5.391,0 293.106,4.844 295.27,3.028 z"
         style="fill:none;stroke:#231f20;stroke-width:5;stroke-linecap:butt;stroke-linejoin:miter;stroke-miterlimit:10;stroke-dasharray:none;stroke-opacity:1"
         transform="matrix(0.13333333,0,0,-0.13333333,0,123.13333)" />
      <path
         id="path4"
         d="M 747.598,219.52 H 727.305 L 485.57,216.5 h -21.461"
         style="fill:#c0925b;fill-opacity:1;fill-rule:nonzero;stroke:#231f20;stroke-width:5;stroke-linecap:butt;stroke-linejoin:miter;stroke-miterlimit:10;stroke-dasharray:none;stroke-opacity:1"
         transform="matrix(0.13333333,0,0,-0.13333333,0,123.13333)" />
      <path
         id="path5"
         d="m 456.82,239.164 h -24.414 l 327.875,3.324 h 20.637"
         style="fill:#c0925b;fill-opacity:1;fill-rule:nonzero;stroke:#231f20;stroke-width:5;stroke-linecap:butt;stroke-linejoin:miter;stroke-miterlimit:10;stroke-dasharray:none;stroke-opacity:1"
         transform="matrix(0.13333333,0,0,-0.13333333,0,123.13333)" />
      <path
         id="path6"
         d="M 930.508,286.063 V 11.25 H 136.93 V 743.652 H 930.508 V 608.441"
         style="fill:none;stroke:#231f20;stroke-width:22.5;stroke-linecap:butt;stroke-linejoin:miter;stroke-miterlimit:10;stroke-dasharray:none;stroke-opacity:1"
         transform="matrix(0.13333333,0,0,-0.13333333,0,123.13333)" />
      <path
         id="path7"
         d="M 1383.82,332.367 C 1421.55,232.523 1442.2,124.305 1442.2,11.25"
         style="fill:none;stroke:#231f20;stroke-width:7.5;stroke-linecap:butt;stroke-linejoin:miter;stroke-miterlimit:10;stroke-dasharray:none;stroke-opacity:1"
         transform="matrix(0.13333333,0,0,-0.13333333,0,123.13333)" />
      <path
         id="path8"
         d="M 1051.69,757.699 C 1201.43,653.602 1318.34,505.613 1383.82,332.367"
         style="fill:none;stroke:#231f20;stroke-width:15;stroke-linecap:butt;stroke-linejoin:miter;stroke-miterlimit:10;stroke-dasharray:none;stroke-opacity:1"
         transform="matrix(0.13333333,0,0,-0.13333333,0,123.13333)" />
      <path
         id="path9"
         d="M 2.19922,748.102 C 151.645,856.09 335.25,919.734 533.723,919.734 c 192.511,0 371.043,-59.886 517.967,-162.035"
         style="fill:none;stroke:#231f20;stroke-width:7.5;stroke-linecap:butt;stroke-linejoin:miter;stroke-miterlimit:10;stroke-dasharray:none;stroke-opacity:1"
         transform="matrix(0.13333333,0,0,-0.13333333,0,123.13333)" />
      <path
         id="path10"
         d="m 690.406,263.23 c 0,-5.546 -4.492,-10.031 -10.035,-10.031 -5.543,0 -10.027,4.485 -10.027,10.031 0,5.54 4.484,10.032 10.027,10.032 5.543,0 10.035,-4.492 10.035,-10.032"
         style="fill:#231f20;fill-opacity:1;fill-rule:nonzero;stroke:none"
         transform="matrix(0.13333333,0,0,-0.13333333,0,123.13333)" />
      <path
         id="path11"
         d="m 690.406,263.23 c 0,-5.546 -4.492,-10.031 -10.035,-10.031 -5.543,0 -10.027,4.485 -10.027,10.031 0,5.54 4.484,10.032 10.027,10.032 5.543,0 10.035,-4.492 10.035,-10.032 z"
         style="fill:none;stroke:#231f20;stroke-width:10;stroke-linecap:butt;stroke-linejoin:miter;stroke-miterlimit:10;stroke-dasharray:none;stroke-opacity:1"
         transform="matrix(0.13333333,0,0,-0.13333333,0,123.13333)" />
      <path
         id="path12"
         d="M 1051.69,757.695 680.371,263.23"
         style="fill:none;stroke:#231f20;stroke-width:5;stroke-linecap:butt;stroke-linejoin:miter;stroke-miterlimit:10;stroke-dasharray:none;stroke-opacity:1"
         transform="matrix(0.13333333,0,0,-0.13333333,0,123.13333)" />
      <path
         id="path13"
         d="m 680.371,263.23 703.449,69.129"
         style="fill:none;stroke:#231f20;stroke-width:5;stroke-linecap:butt;stroke-linejoin:miter;stroke-miterlimit:10;stroke-dasharray:none;stroke-opacity:1"
         transform="matrix(0.13333333,0,0,-0.13333333,0,123.13333)" />
    </g>
  </g>
</svg>
