<?xml version="1.0" encoding="UTF-8" standalone="no"?>
<!-- Created with Inkscape (http://www.inkscape.org/) -->

<svg
   version="1.1"
   id="svg1"
   width="203.10667"
   height="147.03999"
   viewBox="0 0 203.10667 147.03999"
   sodipodi:docname="pha12f06.eps"
   xmlns:inkscape="http://www.inkscape.org/namespaces/inkscape"
   xmlns:sodipodi="http://sodipodi.sourceforge.net/DTD/sodipodi-0.dtd"
   xmlns="http://www.w3.org/2000/svg"
   xmlns:svg="http://www.w3.org/2000/svg">
  <defs
     id="defs1" />
  <sodipodi:namedview
     id="namedview1"
     pagecolor="#ffffff"
     bordercolor="#000000"
     borderopacity="0.25"
     inkscape:showpageshadow="2"
     inkscape:pageopacity="0.0"
     inkscape:pagecheckerboard="0"
     inkscape:deskcolor="#d1d1d1">
    <inkscape:page
       x="0"
       y="0"
       inkscape:label="1"
       id="page1"
       width="203.10667"
       height="147.03999"
       margin="0"
       bleed="0" />
  </sodipodi:namedview>
  <g
     id="g1"
     inkscape:groupmode="layer"
     inkscape:label="1">
    <g
       id="group-R5">
      <path
         id="path2"
         d="M 1348.19,283.094 497.227,471.055 512.711,1099.73 1363.68,911.773 1348.19,283.094"
         style="fill:#e5e4e4;fill-opacity:1;fill-rule:nonzero;stroke:#231f20;stroke-width:5;stroke-linecap:butt;stroke-linejoin:miter;stroke-miterlimit:10;stroke-dasharray:none;stroke-opacity:1"
         transform="matrix(0.13333333,0,0,-0.13333333,0,147.04)" />
      <g
         id="g2"
         aria-label="p&#10;p′&#10;(0, 0)&#10;fov"
         transform="matrix(1.3333333,0,0,1.3333333,196.81867,93.450933)">
        <path
           id="path3"
           d="m 1.5246719,-3.4231609 v -0.7148438 c -0.421875,0.1757813 -0.92578127,0.328125 -1.31250002,0.3984375 v 0.2109375 c 0.5625,0.070312 0.59765625,0.09375 0.59765625,0.6796875 v 4.0664063 c 0,0.5859375 -0.0820313,0.6445312 -0.65625,0.703125 v 0.234375 H 2.2863906 V 1.9205891 C 1.5832656,1.8502766 1.5246719,1.8034016 1.5246719,1.1237141 v -1.18359379 c 0.1171875,0.0703125 0.3632812,0.15234375 0.6210937,0.1640625 1.171875,-0.2109375 2.2382813,-1.08984375 2.2382813,-2.44921871 0,-0.890625 -0.5976563,-1.6992188 -1.59375,-1.6992188 -0.1054688,0 -0.28125,0.046875 -0.4453125,0.140625 z m 0,0.3046875 c 0.2460937,-0.1875 0.609375,-0.3867188 0.9023437,-0.3867188 0.65625,0 1.2070313,0.5390625 1.2070313,1.5117188 0,1.00781246 -0.515625,1.66406246 -1.265625,1.66406246 -0.3046875,0 -0.6445313,-0.15234375 -0.84375,-0.3515625 z M -22.410875,1.0973469 V 0.38250312 c -0.421875,0.17578125 -0.925781,0.328125 -1.3125,0.3984375 v 0.2109375 c 0.5625,0.0703125 0.597656,0.09375 0.597656,0.67968748 v 4.0664063 c 0,0.5859375 -0.08203,0.6445312 -0.65625,0.703125 v 0.234375 h 2.132813 v -0.234375 c -0.703125,-0.070312 -0.761719,-0.1171875 -0.761719,-0.796875 V 4.4606281 c 0.117188,0.070312 0.363281,0.1523438 0.621094,0.1640625 1.171875,-0.2109375 2.238281,-1.0898437 2.238281,-2.4492187 0,-0.890625 -0.597656,-1.69921878 -1.59375,-1.69921878 -0.105469,0 -0.28125,0.046875 -0.445312,0.140625 z m 0,0.3046875 c 0.246094,-0.1875 0.609375,-0.3867188 0.902344,-0.3867188 0.65625,0 1.207031,0.5390625 1.207031,1.5117188 0,1.0078125 -0.515625,1.6640625 -1.265625,1.6640625 -0.304687,0 -0.644531,-0.1523438 -0.84375,-0.3515625 z m 0,0"
           style="fill:#231f20;fill-opacity:1;fill-rule:nonzero;stroke:none" />
        <path
           id="path4"
           d="m -18.420641,0.98015937 0.609375,-1.2890625 c 0.175782,-0.38671875 0.28125,-0.62109375 0.316407,-0.73828127 0.03516,-0.082031 0.04687,-0.1523437 0.04687,-0.2226562 0,-0.09375 -0.02344,-0.1640625 -0.08203,-0.2226563 -0.07031,-0.058594 -0.152343,-0.09375 -0.257812,-0.09375 -0.128906,0 -0.246094,0.035156 -0.339844,0.1171875 -0.105469,0.082031 -0.175781,0.2226563 -0.234375,0.3984375 -0.03516,0.12890627 -0.08203,0.37500002 -0.117187,0.76171877 l -0.140625,1.2890625 z m 0,0"
           style="fill:#231f20;fill-opacity:1;fill-rule:nonzero;stroke:none" />
        <path
           id="path5"
           d="m -47.254625,-22.829411 c -0.890625,-0.761719 -1.40625,-2.203125 -1.40625,-3.75 0,-1.546875 0.515625,-3 1.40625,-3.75 l -0.152344,-0.210937 c -1.324218,0.902343 -1.910156,2.332031 -1.910156,3.949218 0,1.628907 0.585938,3.082032 1.910156,3.960938 z m 2.575195,-7.042969 c -1.347656,0 -1.839843,1.605469 -1.839843,2.917969 0,1.417969 0.480468,2.90625 1.839843,2.90625 1.359375,0 1.828125,-1.59375 1.828125,-2.917969 0,-1.382812 -0.46875,-2.90625 -1.828125,-2.90625 z m 0,0.304688 c 0.808594,0 1.03125,1.324219 1.03125,2.601562 0,1.265625 -0.222656,2.613282 -1.03125,2.613282 -0.773437,0 -1.042968,-1.359375 -1.042968,-2.613282 0,-1.253906 0.222656,-2.601562 1.042968,-2.601562 z m 3.00586,4.253906 c -0.210938,0 -0.433594,0.140625 -0.433594,0.363281 0,0.152344 0.07031,0.222657 0.117187,0.234375 0.304688,0.07031 0.5625,0.269532 0.5625,0.597657 0,0.339843 -0.257812,0.574218 -0.691406,0.761718 l 0.09375,0.257813 c 0.550781,-0.164063 1.183594,-0.550781 1.183594,-1.242188 0,-0.632812 -0.503906,-0.972656 -0.832031,-0.972656 z m 5.408203,-4.558594 c -1.347656,0 -1.839844,1.605469 -1.839844,2.917969 0,1.417969 0.480469,2.90625 1.839844,2.90625 1.359375,0 1.828125,-1.59375 1.828125,-2.917969 0,-1.382812 -0.46875,-2.90625 -1.828125,-2.90625 z m 0,0.304688 c 0.808594,0 1.03125,1.324219 1.03125,2.601562 0,1.265625 -0.222656,2.613282 -1.03125,2.613282 -0.773438,0 -1.042969,-1.359375 -1.042969,-2.613282 0,-1.253906 0.222656,-2.601562 1.042969,-2.601562 z m 2.572265,-0.761719 c 0.890625,0.738281 1.417969,2.203125 1.417969,3.75 0,1.546875 -0.503906,2.988281 -1.417969,3.75 l 0.164063,0.199219 c 1.347656,-0.914063 1.898437,-2.332031 1.898437,-3.949219 0,-1.628906 -0.550781,-3.058594 -1.898437,-3.960937 z m -85.962888,23.9179688 -0.23438,0.2695313 0.0352,0.082031 h 0.63281 v 2.6601563 c 0,0.5976562 -0.0703,0.6328125 -0.64453,0.6914062 v 0.234375 h 2.12109 v -0.2226562 c -0.70312,-0.070312 -0.77343,-0.1054688 -0.77343,-0.7617188 v -2.6015625 h 0.97265 c 0.10547,-0.046875 0.14063,-0.2695312 0.0937,-0.3515625 h -1.0664 v -0.3515625 c -0.0117,-0.7734375 0.0937,-1.1953125 0.21093,-1.3710937 0.0937,-0.1640625 0.2461,-0.2695313 0.48047,-0.2695313 0.29297,0 0.53907,0.1640625 0.72657,0.328125 0.082,0.09375 0.16406,0.09375 0.24609,0.035156 0.082,-0.082031 0.14062,-0.1523438 0.16406,-0.2226563 0.0469,-0.09375 0.0352,-0.2109375 -0.0469,-0.3164062 -0.14063,-0.1640625 -0.39844,-0.2929688 -0.70313,-0.3046875 -0.35156,0.046875 -0.67969,0.2109375 -0.99609,0.4921875 -0.48047,0.4101562 -0.63281,0.8554687 -0.69141,1.0546875 -0.0586,0.1875 -0.0937,0.4570312 -0.0937,0.7265625 v 0.1992187 z m 4.40918,-0.1054687 c -0.82031,0 -1.98047,0.6796875 -1.98047,2.15625 0,1.0078125 0.73828,1.9921875 1.98047,1.9921875 0.89062,0 1.94531,-0.6914063 1.94531,-2.1445313 0,-1.1132812 -0.83203,-2.0039062 -1.94531,-2.0039062 z m -0.0937,0.3046875 c 0.78515,0 1.20703,0.84375 1.20703,1.8984375 0,1.2421875 -0.45703,1.6523437 -1.01953,1.6523437 -0.73828,0 -1.23047,-0.84375 -1.23047,-1.9804687 0,-1.0195313 0.48047,-1.5703125 1.04297,-1.5703125 z m 6.52148,-0.1992188 h -1.59375 v 0.234375 c 0.50391,0.058594 0.5625,0.1523438 0.42188,0.5859375 -0.1875,0.5859375 -0.48047,1.40625 -0.79688,2.15625 -0.25781,-0.6445312 -0.62109,-1.59375 -0.85547,-2.2265625 -0.14062,-0.3867187 -0.1289,-0.4570312 0.36328,-0.515625 v -0.234375 h -1.85156 v 0.234375 c 0.49219,0.070312 0.5625,0.1289063 0.77344,0.65625 0.42187,1.0429688 0.83203,2.0625 1.24219,3.140625 h 0.23437 c 0.50391,-1.3359375 0.97266,-2.4375 1.27735,-3.1171875 0.23437,-0.5390625 0.3164,-0.6210937 0.78515,-0.6796875 z m 0,0"
           style="fill:#231f20;fill-opacity:1;fill-rule:nonzero;stroke:none" />
      </g>
      <path
         id="path6"
         d="m 1352.49,457.41 140.58,30.176"
         style="fill:none;stroke:#231f20;stroke-width:7.5;stroke-linecap:butt;stroke-linejoin:miter;stroke-miterlimit:10;stroke-dasharray:none;stroke-opacity:1"
         transform="matrix(0.13333333,0,0,-0.13333333,0,147.04)" />
      <path
         id="path7"
         d="m 945.398,699.52 13.036,7.421"
         style="fill:none;stroke:#918f90;stroke-width:5;stroke-linecap:butt;stroke-linejoin:miter;stroke-miterlimit:10;stroke-dasharray:none;stroke-opacity:1"
         transform="matrix(0.13333333,0,0,-0.13333333,0,147.04)" />
      <path
         id="path8"
         d="M 974.844,716.285 1130.7,805.074"
         style="fill:none;stroke:#918f90;stroke-width:5;stroke-linecap:butt;stroke-linejoin:miter;stroke-miterlimit:10;stroke-dasharray:28.3229, 18.8819;stroke-dashoffset:0;stroke-opacity:1"
         transform="matrix(0.13333333,0,0,-0.13333333,0,147.04)" />
      <path
         id="path9"
         d="m 1138.91,809.742 13.03,7.43"
         style="fill:none;stroke:#918f90;stroke-width:5;stroke-linecap:butt;stroke-linejoin:miter;stroke-miterlimit:10;stroke-dasharray:none;stroke-opacity:1"
         transform="matrix(0.13333333,0,0,-0.13333333,0,147.04)" />
      <path
         id="path10"
         d="m 422.914,401.918 13.031,7.422"
         style="fill:none;stroke:#231f20;stroke-width:5;stroke-linecap:butt;stroke-linejoin:miter;stroke-miterlimit:10;stroke-dasharray:none;stroke-opacity:1"
         transform="matrix(0.13333333,0,0,-0.13333333,0,147.04)" />
      <path
         id="path11"
         d="M 453.367,419.262 923.656,687.137"
         style="fill:none;stroke:#231f20;stroke-width:5;stroke-linecap:butt;stroke-linejoin:miter;stroke-miterlimit:10;stroke-dasharray:30.0683, 20.0455;stroke-dashoffset:0;stroke-opacity:1"
         transform="matrix(0.13333333,0,0,-0.13333333,0,147.04)" />
      <path
         id="path12"
         d="m 932.367,692.098 13.031,7.422"
         style="fill:none;stroke:#231f20;stroke-width:5;stroke-linecap:butt;stroke-linejoin:miter;stroke-miterlimit:10;stroke-dasharray:none;stroke-opacity:1"
         transform="matrix(0.13333333,0,0,-0.13333333,0,147.04)" />
      <path
         id="path13"
         d="M 22.1094,604.895 V 173.316"
         style="fill:none;stroke:#231f20;stroke-width:7.5;stroke-linecap:butt;stroke-linejoin:miter;stroke-miterlimit:10;stroke-dasharray:none;stroke-opacity:1"
         transform="matrix(0.13333333,0,0,-0.13333333,0,147.04)" />
      <path
         id="path14"
         d="m 22.1094,594.129 21.6172,-13.149 0.4922,0.739 -14.004,35.246 c -2.6992,12.285 -5.3984,24.566 -8.1054,36.848 -2.6992,-12.282 -5.3985,-24.563 -8.1055,-36.848 L 0,581.719 0.371094,580.98 22.1094,594.129"
         style="fill:#231f20;fill-opacity:1;fill-rule:nonzero;stroke:none"
         transform="matrix(0.13333333,0,0,-0.13333333,0,147.04)" />
      <path
         id="path15"
         d="M 404.977,392.469 21.7148,174.258"
         style="fill:none;stroke:#231f20;stroke-width:7.5;stroke-linecap:butt;stroke-linejoin:miter;stroke-miterlimit:10;stroke-dasharray:none;stroke-opacity:1"
         transform="matrix(0.13333333,0,0,-0.13333333,0,147.04)" />
      <path
         id="path16"
         d="m 395.613,387.137 -0.73,-25.293 0.883,-0.059 23.707,29.61 c 9.336,8.421 18.672,16.843 28.007,25.273 -12.007,-3.73 -24.019,-7.457 -36.031,-11.188 l -37.558,-5.273 -0.457,-0.684 22.179,-12.386"
         style="fill:#231f20;fill-opacity:1;fill-rule:nonzero;stroke:none"
         transform="matrix(0.13333333,0,0,-0.13333333,0,147.04)" />
      <path
         id="path17"
         d="M 463.637,16.4688 22.1094,174.363"
         style="fill:none;stroke:#231f20;stroke-width:7.5;stroke-linecap:butt;stroke-linejoin:miter;stroke-miterlimit:10;stroke-dasharray:none;stroke-opacity:1"
         transform="matrix(0.13333333,0,0,-0.13333333,0,147.04)" />
      <path
         id="path18"
         d="M 453.5,20.1016 433.84,4.17188 434.371,3.46094 472.273,4.76953 C 484.75,3.17969 497.223,1.58984 509.695,0 499.043,6.67969 488.391,13.3594 477.734,20.0391 L 449.258,45.1016 448.438,45 453.5,20.1016"
         style="fill:#231f20;fill-opacity:1;fill-rule:nonzero;stroke:none"
         transform="matrix(0.13333333,0,0,-0.13333333,0,147.04)" />
      <path
         id="path19"
         d="m 957.98,690.281 c 0,-12.843 -10.414,-23.254 -23.253,-23.254 -12.84,0 -23.25,10.411 -23.25,23.254 0,12.84 10.41,23.25 23.25,23.25 12.839,0 23.253,-10.41 23.253,-23.25"
         style="fill:#231f20;fill-opacity:1;fill-rule:nonzero;stroke:none"
         transform="matrix(0.13333333,0,0,-0.13333333,0,147.04)" />
      <path
         id="path20"
         d="M 23.5664,175.242 506.438,789.461"
         style="fill:none;stroke:#231f20;stroke-width:7.5;stroke-linecap:butt;stroke-linejoin:miter;stroke-miterlimit:10;stroke-dasharray:none;stroke-opacity:1"
         transform="matrix(0.13333333,0,0,-0.13333333,0,147.04)" />
      <path
         id="path21"
         d="m 1522.65,488.949 c 0,-12.844 -10.41,-23.258 -23.26,-23.258 -12.84,0 -23.25,10.414 -23.25,23.258 0,12.84 10.41,23.25 23.25,23.25 12.85,0 23.26,-10.41 23.26,-23.25"
         style="fill:#231f20;fill-opacity:1;fill-rule:nonzero;stroke:none"
         transform="matrix(0.13333333,0,0,-0.13333333,0,147.04)" />
      <path
         id="path22"
         d="m 1214.76,426.891 135.74,30.082"
         style="fill:none;stroke:#918f90;stroke-width:7.5;stroke-linecap:butt;stroke-linejoin:miter;stroke-miterlimit:10;stroke-dasharray:none;stroke-opacity:1"
         transform="matrix(0.13333333,0,0,-0.13333333,0,147.04)" />
      <path
         id="path23"
         d="m 27.0352,172.891 1187.7248,254"
         style="fill:none;stroke:#231f20;stroke-width:7.5;stroke-linecap:butt;stroke-linejoin:miter;stroke-miterlimit:10;stroke-dasharray:none;stroke-opacity:1"
         transform="matrix(0.13333333,0,0,-0.13333333,0,147.04)" />
      <path
         id="path24"
         d="m 1234.99,436.641 c 1.17,-2.782 1.82,-5.84 1.82,-9.051 0,-12.84 -10.4,-23.258 -23.25,-23.258 -12.84,0 -23.26,10.418 -23.26,23.258 0,12.844 10.42,23.258 23.26,23.258 9.63,0 17.9,-5.86 21.43,-14.207"
         style="fill:#231f20;fill-opacity:1;fill-rule:nonzero;stroke:none"
         transform="matrix(0.13333333,0,0,-0.13333333,0,147.04)" />
      <path
         id="path25"
         d="M 23.5664,175.242 1355.87,594.844"
         style="fill:none;stroke:#231f20;stroke-width:7.5;stroke-linecap:butt;stroke-linejoin:miter;stroke-miterlimit:10;stroke-dasharray:none;stroke-opacity:1"
         transform="matrix(0.13333333,0,0,-0.13333333,0,147.04)" />
      <path
         id="path26"
         d="m 229.137,436.73 c 51.554,-40.585 90.812,-96.089 111.269,-160.003"
         style="fill:none;stroke:#231f20;stroke-width:5;stroke-linecap:butt;stroke-linejoin:miter;stroke-miterlimit:10;stroke-dasharray:none;stroke-opacity:1"
         transform="matrix(0.13333333,0,0,-0.13333333,0,147.04)" />
    </g>
  </g>
</svg>
