<?xml version="1.0" encoding="UTF-8" standalone="no"?>
<!-- Created with Inkscape (http://www.inkscape.org/) -->

<svg
   version="1.1"
   id="svg1"
   width="270.34668"
   height="141"
   viewBox="0 0 270.34668 141"
   sodipodi:docname="pha12f14.eps"
   xmlns:inkscape="http://www.inkscape.org/namespaces/inkscape"
   xmlns:sodipodi="http://sodipodi.sourceforge.net/DTD/sodipodi-0.dtd"
   xmlns="http://www.w3.org/2000/svg"
   xmlns:svg="http://www.w3.org/2000/svg">
  <defs
     id="defs1" />
  <sodipodi:namedview
     id="namedview1"
     pagecolor="#ffffff"
     bordercolor="#000000"
     borderopacity="0.25"
     inkscape:showpageshadow="2"
     inkscape:pageopacity="0.0"
     inkscape:pagecheckerboard="0"
     inkscape:deskcolor="#d1d1d1">
    <inkscape:page
       x="0"
       y="0"
       inkscape:label="1"
       id="page1"
       width="270.34668"
       height="141"
       margin="0"
       bleed="0" />
  </sodipodi:namedview>
  <g
     id="g1"
     inkscape:groupmode="layer"
     inkscape:label="1">
    <g
       id="group-R5">
      <path
         id="path2"
         d="m 2.5,528.73 c 0,290.633 235.605,526.24 526.238,526.24 290.633,0 526.232,-235.607 526.232,-526.24 C 1054.97,238.102 819.371,2.5 528.738,2.5 238.105,2.5 2.5,238.102 2.5,528.73 Z"
         style="fill:none;stroke:#231f20;stroke-width:5;stroke-linecap:butt;stroke-linejoin:miter;stroke-miterlimit:10;stroke-dasharray:none;stroke-opacity:1"
         transform="matrix(0.13333333,0,0,-0.13333333,0,141)" />
      <path
         id="path3"
         d="m 525.563,5.48828 c -76.02,0 -137.649,234.18372 -137.649,523.06672 0,288.871 61.629,523.055 137.649,523.055"
         style="fill:#e5e4e4;fill-opacity:1;fill-rule:nonzero;stroke:#231f20;stroke-width:5;stroke-linecap:butt;stroke-linejoin:miter;stroke-miterlimit:10;stroke-dasharray:none;stroke-opacity:1"
         transform="matrix(0.13333333,0,0,-0.13333333,0,141)" />
      <path
         id="path4"
         d="m 525.563,1051.61 c 76.019,0 137.644,-234.184 137.644,-523.055 0,-288.883 -61.625,-523.06672 -137.644,-523.06672"
         style="fill:#e5e4e4;fill-opacity:1;fill-rule:nonzero;stroke:#7b7979;stroke-width:5;stroke-linecap:butt;stroke-linejoin:miter;stroke-miterlimit:10;stroke-dasharray:none;stroke-opacity:1"
         transform="matrix(0.13333333,0,0,-0.13333333,0,141)" />
      <path
         id="path5"
         d="m 1364.94,528.555 c 0,288.871 61.63,523.055 137.65,523.055 76.02,0 137.65,-234.184 137.65,-523.055 0,-288.883 -61.63,-523.06672 -137.65,-523.06672 -76.02,0 -137.65,234.18372 -137.65,523.06672"
         style="fill:#e5e4e4;fill-opacity:1;fill-rule:nonzero;stroke:none"
         transform="matrix(0.13333333,0,0,-0.13333333,0,141)" />
      <path
         id="path6"
         d="m 1364.94,528.555 c 0,288.871 61.63,523.055 137.65,523.055 76.02,0 137.65,-234.184 137.65,-523.055 0,-288.883 -61.63,-523.06672 -137.65,-523.06672 -76.02,0 -137.65,234.18372 -137.65,523.06672 z"
         style="fill:none;stroke:#231f20;stroke-width:5;stroke-linecap:butt;stroke-linejoin:miter;stroke-miterlimit:10;stroke-dasharray:none;stroke-opacity:1"
         transform="matrix(0.13333333,0,0,-0.13333333,0,141)" />
      <path
         id="path7"
         d="M 526.605,1051.8 H 1500.4"
         style="fill:none;stroke:#231f20;stroke-width:5;stroke-linecap:butt;stroke-linejoin:miter;stroke-miterlimit:10;stroke-dasharray:none;stroke-opacity:1"
         transform="matrix(0.13333333,0,0,-0.13333333,0,141)" />
      <path
         id="path8"
         d="M 525.066,5.57813 H 1498.86"
         style="fill:none;stroke:#231f20;stroke-width:5;stroke-linecap:butt;stroke-linejoin:miter;stroke-miterlimit:10;stroke-dasharray:none;stroke-opacity:1"
         transform="matrix(0.13333333,0,0,-0.13333333,0,141)" />
      <path
         id="path9"
         d="M 2027.65,1014.55 H 1785.21"
         style="fill:none;stroke:#231f20;stroke-width:7.5;stroke-linecap:butt;stroke-linejoin:miter;stroke-miterlimit:10;stroke-dasharray:none;stroke-opacity:1"
         transform="matrix(0.13333333,0,0,-0.13333333,0,141)" />
      <path
         id="path10"
         d="m 1795.99,1014.55 13.14,-21.616 -0.74,-0.493 -35.25,14.009 c -12.28,2.69 -24.56,5.39 -36.84,8.1 12.28,2.7 24.56,5.4 36.84,8.11 l 35.25,14 0.74,-0.37 -13.14,-21.74"
         style="fill:#231f20;fill-opacity:1;fill-rule:nonzero;stroke:none"
         transform="matrix(0.13333333,0,0,-0.13333333,0,141)" />
      <path
         id="path11"
         d="M 2027.65,43.8203 H 1785.21"
         style="fill:none;stroke:#231f20;stroke-width:7.5;stroke-linecap:butt;stroke-linejoin:miter;stroke-miterlimit:10;stroke-dasharray:none;stroke-opacity:1"
         transform="matrix(0.13333333,0,0,-0.13333333,0,141)" />
      <path
         id="path12"
         d="m 1795.99,43.8203 13.14,-21.6211 -0.74,-0.4883 -35.25,14 c -12.28,2.6993 -24.56,5.3985 -36.84,8.1094 12.28,2.6992 24.56,5.3985 36.84,8.1016 l 35.25,14.0039 0.74,-0.3711 -13.14,-21.7344"
         style="fill:#231f20;fill-opacity:1;fill-rule:nonzero;stroke:none"
         transform="matrix(0.13333333,0,0,-0.13333333,0,141)" />
      <path
         id="path13"
         d="M 2027.65,875.871 H 1785.21"
         style="fill:none;stroke:#231f20;stroke-width:7.5;stroke-linecap:butt;stroke-linejoin:miter;stroke-miterlimit:10;stroke-dasharray:none;stroke-opacity:1"
         transform="matrix(0.13333333,0,0,-0.13333333,0,141)" />
      <path
         id="path14"
         d="m 1795.99,875.871 13.14,-21.613 -0.74,-0.492 -35.25,14.004 c -12.28,2.699 -24.56,5.398 -36.84,8.101 12.28,2.703 24.56,5.402 36.84,8.109 l 35.25,14.004 0.74,-0.371 -13.14,-21.742"
         style="fill:#231f20;fill-opacity:1;fill-rule:nonzero;stroke:none"
         transform="matrix(0.13333333,0,0,-0.13333333,0,141)" />
      <path
         id="path15"
         d="M 2027.65,737.195 H 1785.21"
         style="fill:none;stroke:#231f20;stroke-width:7.5;stroke-linecap:butt;stroke-linejoin:miter;stroke-miterlimit:10;stroke-dasharray:none;stroke-opacity:1"
         transform="matrix(0.13333333,0,0,-0.13333333,0,141)" />
      <path
         id="path16"
         d="m 1795.99,737.195 13.14,-21.617 -0.74,-0.492 -35.25,14.004 c -12.28,2.699 -24.56,5.402 -36.84,8.105 12.28,2.703 24.56,5.403 36.84,8.106 l 35.25,14.004 0.74,-0.371 -13.14,-21.739"
         style="fill:#231f20;fill-opacity:1;fill-rule:nonzero;stroke:none"
         transform="matrix(0.13333333,0,0,-0.13333333,0,141)" />
      <path
         id="path17"
         d="M 2027.65,598.523 H 1785.21"
         style="fill:none;stroke:#231f20;stroke-width:7.5;stroke-linecap:butt;stroke-linejoin:miter;stroke-miterlimit:10;stroke-dasharray:none;stroke-opacity:1"
         transform="matrix(0.13333333,0,0,-0.13333333,0,141)" />
      <path
         id="path18"
         d="m 1795.99,598.523 13.14,-21.617 -0.74,-0.492 -35.25,14.004 c -12.28,2.699 -24.56,5.402 -36.84,8.105 12.28,2.704 24.56,5.403 36.84,8.106 l 35.25,14.004 0.74,-0.371 -13.14,-21.739"
         style="fill:#231f20;fill-opacity:1;fill-rule:nonzero;stroke:none"
         transform="matrix(0.13333333,0,0,-0.13333333,0,141)" />
      <path
         id="path19"
         d="M 2027.65,459.844 H 1785.21"
         style="fill:none;stroke:#231f20;stroke-width:7.5;stroke-linecap:butt;stroke-linejoin:miter;stroke-miterlimit:10;stroke-dasharray:none;stroke-opacity:1"
         transform="matrix(0.13333333,0,0,-0.13333333,0,141)" />
      <path
         id="path20"
         d="m 1795.99,459.844 13.14,-21.617 -0.74,-0.493 -35.25,14.004 c -12.28,2.7 -24.56,5.399 -36.84,8.106 12.28,2.699 24.56,5.398 36.84,8.105 l 35.25,14.004 0.74,-0.371 -13.14,-21.738"
         style="fill:#231f20;fill-opacity:1;fill-rule:nonzero;stroke:none"
         transform="matrix(0.13333333,0,0,-0.13333333,0,141)" />
      <path
         id="path21"
         d="M 2027.65,321.172 H 1785.21"
         style="fill:none;stroke:#231f20;stroke-width:7.5;stroke-linecap:butt;stroke-linejoin:miter;stroke-miterlimit:10;stroke-dasharray:none;stroke-opacity:1"
         transform="matrix(0.13333333,0,0,-0.13333333,0,141)" />
      <path
         id="path22"
         d="m 1795.99,321.172 13.14,-21.617 -0.74,-0.492 -35.25,14.003 c -12.28,2.7 -24.56,5.399 -36.84,8.106 12.28,2.699 24.56,5.398 36.84,8.105 l 35.25,14.004 0.74,-0.371 -13.14,-21.738"
         style="fill:#231f20;fill-opacity:1;fill-rule:nonzero;stroke:none"
         transform="matrix(0.13333333,0,0,-0.13333333,0,141)" />
      <path
         id="path23"
         d="M 2027.65,182.488 H 1785.21"
         style="fill:none;stroke:#231f20;stroke-width:7.5;stroke-linecap:butt;stroke-linejoin:miter;stroke-miterlimit:10;stroke-dasharray:none;stroke-opacity:1"
         transform="matrix(0.13333333,0,0,-0.13333333,0,141)" />
      <path
         id="path24"
         d="m 1795.99,182.488 13.14,-21.617 -0.74,-0.492 -35.25,14.004 c -12.28,2.703 -24.56,5.402 -36.84,8.105 12.28,2.703 24.56,5.403 36.84,8.106 l 35.25,14.004 0.74,-0.371 -13.14,-21.739"
         style="fill:#231f20;fill-opacity:1;fill-rule:nonzero;stroke:none"
         transform="matrix(0.13333333,0,0,-0.13333333,0,141)" />
      <path
         id="path25"
         d="M 352.461,463.379 155.32,288.914 74.9609,379.715 272.102,554.18 Z"
         style="fill:none;stroke:#231f20;stroke-width:5;stroke-linecap:butt;stroke-linejoin:miter;stroke-miterlimit:10;stroke-dasharray:none;stroke-opacity:1"
         transform="matrix(0.13333333,0,0,-0.13333333,0,141)" />
      <path
         id="path26"
         d="M 359.426,555.215 162.285,380.75 81.9297,471.551 279.066,646.016 Z"
         style="fill:none;stroke:#231f20;stroke-width:5;stroke-linecap:butt;stroke-linejoin:miter;stroke-miterlimit:10;stroke-dasharray:none;stroke-opacity:1"
         transform="matrix(0.13333333,0,0,-0.13333333,0,141)" />
      <path
         id="path27"
         d="m 74.1055,380.684 7.4179,91.414"
         style="fill:none;stroke:#231f20;stroke-width:5;stroke-linecap:butt;stroke-linejoin:miter;stroke-miterlimit:10;stroke-dasharray:none;stroke-opacity:1"
         transform="matrix(0.13333333,0,0,-0.13333333,0,141)" />
      <path
         id="path28"
         d="m 272.156,555.098 7.414,91.414"
         style="fill:none;stroke:#231f20;stroke-width:5;stroke-linecap:butt;stroke-linejoin:miter;stroke-miterlimit:10;stroke-dasharray:none;stroke-opacity:1"
         transform="matrix(0.13333333,0,0,-0.13333333,0,141)" />
      <path
         id="path29"
         d="m 353.113,464.195 7.246,90.864"
         style="fill:none;stroke:#231f20;stroke-width:5;stroke-linecap:butt;stroke-linejoin:miter;stroke-miterlimit:10;stroke-dasharray:none;stroke-opacity:1"
         transform="matrix(0.13333333,0,0,-0.13333333,0,141)" />
      <path
         id="path30"
         d="m 162.129,380.828 -7.625,-92.019"
         style="fill:none;stroke:#231f20;stroke-width:5;stroke-linecap:butt;stroke-linejoin:miter;stroke-miterlimit:10;stroke-dasharray:none;stroke-opacity:1"
         transform="matrix(0.13333333,0,0,-0.13333333,0,141)" />
      <path
         id="path31"
         d="m 836.023,327.098 c 52.493,11.054 98.84,1.992 103.52,-20.235 4.68,-22.23 -34.074,-49.211 -86.559,-60.273 -52.488,-11.051 -98.836,-1.992 -103.515,20.234 -4.684,22.239 34.07,49.219 86.554,60.274 z"
         style="fill:none;stroke:#231f20;stroke-width:5;stroke-linecap:butt;stroke-linejoin:miter;stroke-miterlimit:10;stroke-dasharray:none;stroke-opacity:1"
         transform="matrix(0.13333333,0,0,-0.13333333,0,141)" />
      <path
         id="path32"
         d="m 706.824,469.289 c -4.679,22.234 34.074,49.215 86.559,60.27 52.492,11.054 98.836,1.992 103.515,-20.235"
         style="fill:none;stroke:#231f20;stroke-width:5;stroke-linecap:butt;stroke-linejoin:miter;stroke-miterlimit:10;stroke-dasharray:none;stroke-opacity:1"
         transform="matrix(0.13333333,0,0,-0.13333333,0,141)" />
      <path
         id="path33"
         d="M 706.316,470.219 750.273,265.137"
         style="fill:none;stroke:#231f20;stroke-width:5;stroke-linecap:butt;stroke-linejoin:miter;stroke-miterlimit:10;stroke-dasharray:none;stroke-opacity:1"
         transform="matrix(0.13333333,0,0,-0.13333333,0,141)" />
      <path
         id="path34"
         d="m 896.516,510.281 42.41,-201.062"
         style="fill:none;stroke:#231f20;stroke-width:5;stroke-linecap:butt;stroke-linejoin:miter;stroke-miterlimit:10;stroke-dasharray:none;stroke-opacity:1"
         transform="matrix(0.13333333,0,0,-0.13333333,0,141)" />
      <path
         id="path35"
         d="m 725.105,814.727 c 30.137,6.351 56.754,1.152 59.446,-11.614 2.683,-12.761 -19.571,-28.261 -49.707,-34.609 -30.141,-6.348 -56.754,-1.141 -59.446,11.617 -2.683,12.77 19.567,28.262 49.707,34.606 z"
         style="fill:none;stroke:#231f20;stroke-width:5;stroke-linecap:butt;stroke-linejoin:miter;stroke-miterlimit:10;stroke-dasharray:none;stroke-opacity:1"
         transform="matrix(0.13333333,0,0,-0.13333333,0,141)" />
      <path
         id="path36"
         d="m 650.914,896.387 c -2.687,12.758 19.566,28.25 49.699,34.605 30.149,6.34 56.758,1.145 59.446,-11.617"
         style="fill:none;stroke:#231f20;stroke-width:5;stroke-linecap:butt;stroke-linejoin:miter;stroke-miterlimit:10;stroke-dasharray:none;stroke-opacity:1"
         transform="matrix(0.13333333,0,0,-0.13333333,0,141)" />
      <path
         id="path37"
         d="M 650.625,896.914 675.863,779.156"
         style="fill:none;stroke:#231f20;stroke-width:5;stroke-linecap:butt;stroke-linejoin:miter;stroke-miterlimit:10;stroke-dasharray:none;stroke-opacity:1"
         transform="matrix(0.13333333,0,0,-0.13333333,0,141)" />
      <path
         id="path38"
         d="M 759.84,919.914 784.195,804.469"
         style="fill:none;stroke:#231f20;stroke-width:5;stroke-linecap:butt;stroke-linejoin:miter;stroke-miterlimit:10;stroke-dasharray:none;stroke-opacity:1"
         transform="matrix(0.13333333,0,0,-0.13333333,0,141)" />
    </g>
  </g>
</svg>
