<?xml version="1.0" encoding="UTF-8" standalone="no"?>
<!-- Created with Inkscape (http://www.inkscape.org/) -->

<svg
   version="1.1"
   id="svg1"
   width="231.05333"
   height="107.45333"
   viewBox="0 0 231.05333 107.45333"
   sodipodi:docname="pha12f27.eps"
   xmlns:inkscape="http://www.inkscape.org/namespaces/inkscape"
   xmlns:sodipodi="http://sodipodi.sourceforge.net/DTD/sodipodi-0.dtd"
   xmlns="http://www.w3.org/2000/svg"
   xmlns:svg="http://www.w3.org/2000/svg">
  <defs
     id="defs1" />
  <sodipodi:namedview
     id="namedview1"
     pagecolor="#ffffff"
     bordercolor="#000000"
     borderopacity="0.25"
     inkscape:showpageshadow="2"
     inkscape:pageopacity="0.0"
     inkscape:pagecheckerboard="0"
     inkscape:deskcolor="#d1d1d1">
    <inkscape:page
       x="0"
       y="0"
       inkscape:label="1"
       id="page1"
       width="231.05333"
       height="107.45333"
       margin="0"
       bleed="0" />
  </sodipodi:namedview>
  <g
     id="g1"
     inkscape:groupmode="layer"
     inkscape:label="1">
    <g
       id="group-R5">
      <g
         id="g2"
         aria-label="ω&#10;θ&#10;b&#10;θ&#10;o"
         transform="matrix(1.3333333,0,0,1.3333333,191.36267,9.8986667)">
        <path
           id="path2"
           d="m 4.3598359,-3.8439219 c 0.2929688,0.2578125 0.5039063,0.7148438 0.5039063,1.3828125 -0.011719,1.0078125 -0.3984375,2.05078127 -1.1367188,2.05078127 -0.3046875,0 -0.515625,-0.3046875 -0.4921875,-0.87890627 0.023437,-0.46875 0.234375,-1.359375 0.3515625,-1.7226562 l -0.058594,-0.035156 -0.6679688,0.140625 c -0.035156,0.28125 -0.09375,0.75 -0.1875,1.1367188 -0.1992187,0.85546872 -0.5625,1.31249997 -0.9492187,1.31249997 -0.28125,0 -0.5390625,-0.33984375 -0.5390625,-0.99609377 0,-1.0078125 0.46875,-1.921875 1.1601562,-2.4492187 l -0.140625,-0.1992188 c -1.0429687,0.5390625 -1.75781246,1.5585938 -1.75781246,2.765625 0,0.93750002 0.421875,1.44140627 0.93749996,1.44140627 0.3867188,0 0.9023438,-0.3984375 1.2304688,-0.890625 0.046875,0.50390625 0.328125,0.890625 0.7617187,0.890625 0.375,0 0.7382813,-0.22265625 1.0664063,-0.515625 0.5625,-0.52734375 0.9960937,-1.30078127 0.9960937,-2.21484377 0,-0.9023437 -0.3984375,-1.4179687 -0.6914062,-1.4179687 -0.1523438,0 -0.3164063,0.070312 -0.375,0.1289062 z M -90.623563,34.224437 c -1.59375,0 -2.613281,2.671875 -2.613281,4.558594 0,0.9375 0.257813,1.957031 1.265625,1.957031 1.617188,0 2.566406,-2.695312 2.566406,-4.617187 0,-0.972656 -0.257812,-1.898438 -1.21875,-1.898438 z m -1.699218,2.917969 c 0.269531,-1.347656 0.84375,-2.613281 1.570312,-2.613281 0.585938,0 0.644531,0.890625 0.644531,1.371094 0,0.410156 -0.05859,0.796875 -0.105468,1.242187 z m 2.039062,0.421875 c -0.246094,1.429688 -0.820312,2.859375 -1.570312,2.859375 -0.527344,0 -0.667969,-0.773437 -0.667969,-1.476562 0,-0.46875 0.05859,-0.925782 0.128906,-1.382813 z m 0,0"
           style="fill:#231f20;fill-opacity:1;fill-rule:nonzero;stroke:none" />
        <path
           id="path3"
           d="m -88.197781,40.209789 v -1.851562 c -0.222657,0.08203 -0.585938,0.175781 -0.867188,0.210937 v 0.140625 c 0.375,0.03516 0.386719,0.07031 0.386719,0.445313 v 3.339843 c 0.339844,0.152344 0.644531,0.210938 0.890625,0.210938 0.796875,0 1.5,-0.621094 1.5,-1.5 0,-0.714844 -0.539063,-1.265625 -1.183594,-1.265625 -0.05859,0 -0.152344,0.02344 -0.246094,0.05859 z m 0,0.1875 c 0.105468,-0.07031 0.292968,-0.117187 0.46875,-0.117187 0.492187,0 0.914062,0.398437 0.914062,1.078125 0,0.691406 -0.316406,1.125 -0.820312,1.125 -0.316407,-0.01172 -0.492188,-0.222657 -0.527344,-0.339844 -0.02344,-0.05859 -0.03516,-0.117188 -0.03516,-0.199219 z m 0,0"
           style="fill:#231f20;fill-opacity:1;fill-rule:nonzero;stroke:none" />
        <path
           id="path4"
           d="m -14.179227,-6.2228281 c -1.59375,0 -2.613281,2.671875 -2.613281,4.5585937 0,0.93750002 0.257813,1.95703127 1.265625,1.95703127 1.617188,0 2.566406,-2.69531247 2.566406,-4.61718747 0,-0.9726563 -0.257812,-1.8984375 -1.21875,-1.8984375 z m -1.699218,2.9179687 c 0.269531,-1.3476562 0.84375,-2.6132812 1.570312,-2.6132812 0.585938,0 0.644531,0.890625 0.644531,1.3710937 0,0.4101563 -0.05859,0.796875 -0.105468,1.2421875 z m 2.039062,0.421875 c -0.246094,1.4296875 -0.820312,2.85937502 -1.570312,2.85937502 -0.527344,0 -0.667969,-0.7734375 -0.667969,-1.47656252 0,-0.46875 0.05859,-0.9257812 0.128906,-1.3828125 z m 0,0"
           style="fill:#231f20;fill-opacity:1;fill-rule:nonzero;stroke:none" />
        <path
           id="path5"
           d="m -11.671414,-0.5099375 c -0.550781,0 -1.3125,0.45703125 -1.3125,1.44140625 0,0.66796875 0.492187,1.32421875 1.3125,1.32421875 0.597656,0 1.300781,-0.4570313 1.300781,-1.4296875 0,-0.73828125 -0.550781,-1.3359375 -1.300781,-1.3359375 z m -0.05859,0.19921875 c 0.515625,0 0.808594,0.57421875 0.808594,1.27734375 0,0.8203125 -0.316406,1.0898437 -0.679688,1.0898437 -0.492187,0 -0.820312,-0.5625 -0.820312,-1.31249995 0,-0.6796875 0.316406,-1.0546875 0.691406,-1.0546875 z m 0,0"
           style="fill:#231f20;fill-opacity:1;fill-rule:nonzero;stroke:none" />
      </g>
      <path
         id="path6"
         d="m 945.059,42.5391 0.457,-2.4571 323.534,60.203 c 1.19,0.223 2.04,1.25 2.04,2.457 l 0.17,552.813 -0.91,1.933 -2.07,0.52 -323.706,-63.738 c -1.168,-0.231 -2.015,-1.262 -2.015,-2.454 V 42.5391 l 0.902,-1.9219 2.055,-0.5352 -0.457,2.4571 h 2.5 V 589.762 l 318.701,62.754 -0.17,-547.696 -321.488,-59.8239 0.457,-2.457 h 2.5 -2.5"
         style="fill:#231f20;fill-opacity:1;fill-rule:nonzero;stroke:none"
         transform="matrix(0.13333333,0,0,-0.13333333,0,107.45333)" />
      <path
         id="path7"
         d="m 1730.43,60.918 0.22,2.4883 -459.56,41.6207 0.17,547.789 456.67,-42.156 V 60.918 h 2.5 l 0.22,2.4883 -0.22,-2.4883 h 2.5 v 552.02 c 0,1.292 -0.99,2.371 -2.27,2.492 l -461.67,42.617 -1.91,-0.645 -0.82,-1.843 -0.17,-552.813 c 0,-1.293 0.99,-2.375 2.28,-2.492 l 461.83,-41.8243 1.92,0.6406 0.81,1.8477 h -2.5"
         style="fill:#231f20;fill-opacity:1;fill-rule:nonzero;stroke:none"
         transform="matrix(0.13333333,0,0,-0.13333333,0,107.45333)" />
      <path
         id="path8"
         d="m 1266.23,565.527 -303.523,27.215 47.033,9.262 256.52,50.512 -0.03,-86.989"
         style="fill:#ebeaeb;fill-opacity:1;fill-rule:nonzero;stroke:none"
         transform="matrix(0.13333333,0,0,-0.13333333,0,107.45333)" />
      <path
         id="path9"
         d="m 962.707,592.742 v 0 l 47.033,9.262 -47.033,-9.262"
         style="fill:#848182;fill-opacity:1;fill-rule:nonzero;stroke:none"
         transform="matrix(0.13333333,0,0,-0.13333333,0,107.45333)" />
      <path
         id="path10"
         d="m 1405.38,553.051 -134.15,12.027 0.03,87.738 441.39,-40.746 -307.27,-59.023"
         style="fill:#ebeaeb;fill-opacity:1;fill-rule:nonzero;stroke:none"
         transform="matrix(0.13333333,0,0,-0.13333333,0,107.45333)" />
      <path
         id="path11"
         d="m 1271.23,565.078 v 0 l 0.03,87.738 v 0 l -0.03,-87.738"
         style="fill:#b4b3b3;fill-opacity:1;fill-rule:nonzero;stroke:none"
         transform="matrix(0.13333333,0,0,-0.13333333,0,107.45333)" />
      <path
         id="path12"
         d="m 1271.23,565.078 -5,0.449 0.03,86.989 2.63,0.519 2.37,-0.219 -0.03,-87.738"
         style="fill:#848182;fill-opacity:1;fill-rule:nonzero;stroke:none"
         transform="matrix(0.13333333,0,0,-0.13333333,0,107.45333)" />
      <path
         id="path13"
         d="m 1268.76,655.555 -0.48,2.453 -323.706,-63.738 c -1.219,-0.243 -2.078,-1.34 -2.011,-2.586 0.066,-1.243 1.031,-2.246 2.273,-2.36 l 460.444,-41.289 0.7,0.035 324.92,62.414 c 1.22,0.235 2.09,1.332 2.03,2.579 -0.06,1.242 -1.03,2.25 -2.27,2.367 l -461.67,42.617 -0.71,-0.039 0.48,-2.453 -0.23,-2.489 444.12,-40.996 -307.27,-59.023 -442.673,39.695 306.533,60.36 -0.48,2.453 -0.23,-2.489 0.23,2.489"
         style="fill:#231f20;fill-opacity:1;fill-rule:nonzero;stroke:none"
         transform="matrix(0.13333333,0,0,-0.13333333,0,107.45333)" />
      <path
         id="path14"
         d="m 1405.51,2.5 0.21,2.48828 L 963.563,43.4414 1268.71,100.223 1711.75,60.0977 1405.07,4.96094 1405.51,2.5 1405.72,4.98828 1405.51,2.5 1405.95,0.0390625 1730.87,58.457 c 1.23,0.2227 2.11,1.3203 2.06,2.5703 -0.06,1.25 -1.03,2.2696 -2.28,2.379 l -461.83,41.8277 -0.68,-0.031 -323.538,-60.2069 c -1.231,-0.2305 -2.102,-1.3281 -2.039,-2.5781 0.058,-1.25 1.031,-2.2617 2.281,-2.3711 l 460.446,-40.0390875 0.66,0.03125 L 1405.51,2.5"
         style="fill:#231f20;fill-opacity:1;fill-rule:nonzero;stroke:none"
         transform="matrix(0.13333333,0,0,-0.13333333,0,107.45333)" />
      <path
         id="path15"
         d="M 947.559,45.5469 V 589.082 L 1266.23,560.508 1266.09,104.82 947.559,45.5469"
         style="fill:#ebeaeb;fill-opacity:1;fill-rule:nonzero;stroke:none"
         transform="matrix(0.13333333,0,0,-0.13333333,0,107.45333)" />
      <path
         id="path16"
         d="m 947.559,45.5469 v 0 L 1266.09,104.82 v 0 L 947.559,45.5469"
         style="fill:#848182;fill-opacity:1;fill-rule:nonzero;stroke:none"
         transform="matrix(0.13333333,0,0,-0.13333333,0,107.45333)" />
      <path
         id="path17"
         d="m 1403.01,93.082 -131.92,11.945 0.14,440.766 v 14.266 l 131.78,-11.817 V 93.082"
         style="fill:#ebeaeb;fill-opacity:1;fill-rule:nonzero;stroke:none"
         transform="matrix(0.13333333,0,0,-0.13333333,0,107.45333)" />
      <path
         id="path18"
         d="m 1403.01,93.082 -134.19,12.152 -0.68,-0.031 -2.05,-0.383 v 0 l 0.14,455.688 5,-0.449 v -14.266 l -0.14,-440.766 131.92,-11.945 v 0"
         style="fill:#848182;fill-opacity:1;fill-rule:nonzero;stroke:none"
         transform="matrix(0.13333333,0,0,-0.13333333,0,107.45333)" />
      <path
         id="path19"
         d="m 1403.01,548.242 -131.78,11.817 -5,0.449 -318.671,28.574 455.451,-40.84"
         style="fill:#848182;fill-opacity:1;fill-rule:nonzero;stroke:none"
         transform="matrix(0.13333333,0,0,-0.13333333,0,107.45333)" />
      <path
         id="path20"
         d="M 1403.01,5.22656 1213.58,21.6992 963.563,43.4414 1268.71,100.223 1403.01,88.0625 V 5.22656"
         style="fill:#ebeaeb;fill-opacity:1;fill-rule:nonzero;stroke:none"
         transform="matrix(0.13333333,0,0,-0.13333333,0,107.45333)" />
      <path
         id="path21"
         d="m 963.563,43.4414 v 0 l 305.147,56.7816 v 0 L 963.563,43.4375"
         style="fill:#b4b3b3;fill-opacity:1;fill-rule:nonzero;stroke:none"
         transform="matrix(0.13333333,0,0,-0.13333333,0,107.45333)" />
      <path
         id="path22"
         d="m 1403.01,88.0625 -134.3,12.1605 v 0 0 l 134.3,-12.1605 v 0"
         style="fill:#b4b3b3;fill-opacity:1;fill-rule:nonzero;stroke:none"
         transform="matrix(0.13333333,0,0,-0.13333333,0,107.45333)" />
      <path
         id="path23"
         d="M 1213.58,21.6992 947.559,44.832 v 0.7149 l 318.531,59.2731 2.05,0.383 0.68,0.031 134.19,-12.152 V 88.0625 L 1268.71,100.223 963.563,43.4414 1213.58,21.6992"
         style="fill:#848182;fill-opacity:1;fill-rule:nonzero;stroke:none"
         transform="matrix(0.13333333,0,0,-0.13333333,0,107.45333)" />
      <path
         id="path24"
         d="m 945.059,591.816 h -2.5 V 42.5391 c 0,-1.2969 0.992,-2.3789 2.285,-2.4922 L 1405.29,0.0078125 1407.2,0.65625 1408.01,2.5 v 548.027 c 0,1.297 -0.99,2.375 -2.28,2.489 l -460.449,41.289 -1.91,-0.645 -0.812,-1.844 h 2.5 l -0.223,-2.492 458.174,-41.082 V 5.22656 L 947.559,44.832 v 546.984 h -2.5 l -0.223,-2.492 0.223,2.492"
         style="fill:#231f20;fill-opacity:1;fill-rule:nonzero;stroke:none"
         transform="matrix(0.13333333,0,0,-0.13333333,0,107.45333)" />
      <path
         id="path25"
         d="M 1727.93,63.6523 1408.01,92.6289 V 548.461 l 319.92,61.453 V 63.6523"
         style="fill:#ebeaeb;fill-opacity:1;fill-rule:nonzero;stroke:none"
         transform="matrix(0.13333333,0,0,-0.13333333,0,107.45333)" />
      <path
         id="path26"
         d="m 1730.43,63.4297 -322.42,29.1992 v 0 L 1727.93,63.6523 V 609.914 l 2.5,0.481 V 63.4297"
         style="fill:#848182;fill-opacity:1;fill-rule:nonzero;stroke:none"
         transform="matrix(0.13333333,0,0,-0.13333333,0,107.45333)" />
      <path
         id="path27"
         d="m 1408.01,548.461 v 2.066 c 0,0.161 -0.02,0.321 -0.05,0.473 l 322.47,61.938 v -2.543 l -2.5,-0.481 -319.92,-61.453"
         style="fill:#848182;fill-opacity:1;fill-rule:nonzero;stroke:none"
         transform="matrix(0.13333333,0,0,-0.13333333,0,107.45333)" />
      <path
         id="path28"
         d="M 1408.01,5.48828 V 87.6094 L 1543.78,75.3125 1711.75,60.0977 1408.01,5.48828"
         style="fill:#ebeaeb;fill-opacity:1;fill-rule:nonzero;stroke:none"
         transform="matrix(0.13333333,0,0,-0.13333333,0,107.45333)" />
      <path
         id="path29"
         d="m 1543.78,75.3125 -135.77,12.2969 v 0 l 135.77,-12.2969"
         style="fill:#b4b3b3;fill-opacity:1;fill-rule:nonzero;stroke:none"
         transform="matrix(0.13333333,0,0,-0.13333333,0,107.45333)" />
      <path
         id="path30"
         d="m 1408.01,2.94922 v 2.53906 l 303.74,54.60942 -167.97,15.2148 -135.77,12.2969 v 5.0195 L 1730.43,63.4297 V 60.918 L 1408.01,2.94922"
         style="fill:#848182;fill-opacity:1;fill-rule:nonzero;stroke:none"
         transform="matrix(0.13333333,0,0,-0.13333333,0,107.45333)" />
      <path
         id="path31"
         d="m 1405.51,2.5 v 548.027 l 2.45,0.473 c 0.03,-0.152 0.05,-0.312 0.05,-0.473 v -2.066 -455.8321 0 -5.0195 0 V 5.48828 2.94922 L 1405.51,2.5"
         style="fill:#848182;fill-opacity:1;fill-rule:nonzero;stroke:none"
         transform="matrix(0.13333333,0,0,-0.13333333,0,107.45333)" />
      <path
         id="path32"
         d="m 1730.43,60.918 -0.44,2.4609 L 1408.01,5.48828 V 548.461 l 319.92,61.453 V 60.918 h 2.5 l -0.44,2.4609 0.44,-2.4609 h 2.5 v 552.02 l -0.91,1.929 -2.06,0.528 -324.92,-62.415 c -1.18,-0.222 -2.03,-1.253 -2.03,-2.453 V 2.5 l 0.89,-1.917969 2.05,-0.5429685 L 1730.87,58.457 c 1.19,0.2149 2.06,1.2539 2.06,2.461 h -2.5"
         style="fill:#231f20;fill-opacity:1;fill-rule:nonzero;stroke:none"
         transform="matrix(0.13333333,0,0,-0.13333333,0,107.45333)" />
      <path
         id="path33"
         d="m 27.5,264.93 c 0,-6.211 -5.0312,-11.25 -11.25,-11.25 -6.2109,0 -11.25,5.039 -11.25,11.25 0,6.222 5.0391,11.25 11.25,11.25 6.2188,0 11.25,-5.028 11.25,-11.25"
         style="fill:#231f20;fill-opacity:1;fill-rule:nonzero;stroke:none"
         transform="matrix(0.13333333,0,0,-0.13333333,0,107.45333)" />
      <path
         id="path34"
         d="m 27.5,264.93 h -5 c -0.0078,-3.45 -2.793,-6.242 -6.25,-6.25 -3.4453,0.008 -6.2422,2.804 -6.25,6.25 0.0078,3.461 2.7969,6.246 6.25,6.25 3.4648,0 6.25,-2.785 6.25,-6.25 h 5 5 c -0.0156,8.98 -7.2734,16.234 -16.25,16.25 -8.96875,0 -16.24609375,-7.266 -16.25,-16.25 0.00390625,-8.977 7.27344,-16.242 16.25,-16.25 8.9844,0.004 16.25,7.281 16.25,16.25 h -5"
         style="fill:#231f20;fill-opacity:1;fill-rule:nonzero;stroke:none"
         transform="matrix(0.13333333,0,0,-0.13333333,0,107.45333)" />
      <path
         id="path35"
         d="m 1343.41,296.234 66.43,437.403 -7.41,1.125 L 1336,297.359"
         style="fill:#231f20;fill-opacity:1;fill-rule:nonzero;stroke:none"
         transform="matrix(0.13333333,0,0,-0.13333333,0,107.45333)" />
      <path
         id="path36"
         d="m 1404.52,723.551 -23.35,-9.754 -0.37,0.801 19.13,32.75 c 4.51,11.738 9.03,23.472 13.55,35.211 0.82,-12.551 1.65,-25.098 2.48,-37.641 l 8.55,-36.953 -0.48,-0.676 -19.51,16.262"
         style="fill:#231f20;fill-opacity:1;fill-rule:nonzero;stroke:none"
         transform="matrix(0.13333333,0,0,-0.13333333,0,107.45333)" />
      <path
         id="path37"
         d="M 16.3398,261.184 1340.54,293.41 1340.36,300.906 16.1602,268.68"
         style="fill:#231f20;fill-opacity:1;fill-rule:nonzero;stroke:none"
         transform="matrix(0.13333333,0,0,-0.13333333,0,107.45333)" />
      <path
         id="path38"
         d="m 1350.96,296.797 c 0,-6.223 -5.04,-11.25 -11.25,-11.25 -6.21,0 -11.25,5.027 -11.25,11.25 0,6.211 5.04,11.25 11.25,11.25 6.21,0 11.25,-5.039 11.25,-11.25"
         style="fill:#231f20;fill-opacity:1;fill-rule:nonzero;stroke:none"
         transform="matrix(0.13333333,0,0,-0.13333333,0,107.45333)" />
      <path
         id="path39"
         d="m 1350.96,296.797 h -5 c -0.01,-3.457 -2.8,-6.242 -6.25,-6.25 -3.45,0.008 -6.25,2.793 -6.25,6.25 0,3.445 2.8,6.242 6.25,6.25 3.44,-0.008 6.24,-2.805 6.25,-6.25 h 5 5 c -0.01,8.976 -7.28,16.246 -16.25,16.25 -8.98,-0.004 -16.25,-7.274 -16.25,-16.25 0,-8.984 7.28,-16.25 16.25,-16.25 8.97,0 16.24,7.266 16.25,16.25 h -5"
         style="fill:#231f20;fill-opacity:1;fill-rule:nonzero;stroke:none"
         transform="matrix(0.13333333,0,0,-0.13333333,0,107.45333)" />
      <path
         id="path40"
         d="m 1343.2,298.156 -160.32,412.344 -6.99,-2.719 160.32,-412.343"
         style="fill:#231f20;fill-opacity:1;fill-rule:nonzero;stroke:none"
         transform="matrix(0.13333333,0,0,-0.13333333,0,107.45333)" />
      <path
         id="path41"
         d="m 1183.29,699.105 -15.38,-20.093 -0.73,0.515 0.28,37.93 c -1.94,12.422 -3.87,24.848 -5.8,37.273 6.97,-10.468 13.94,-20.937 20.91,-31.402 l 25.82,-27.781 -0.07,-0.82 -25.03,4.378"
         style="fill:#231f20;fill-opacity:1;fill-rule:nonzero;stroke:none"
         transform="matrix(0.13333333,0,0,-0.13333333,0,107.45333)" />
      <path
         id="path42"
         d="m 1197.79,661.816 c 44,17.122 91.86,26.512 141.92,26.512 19.99,0 39.61,-1.492 58.79,-4.383 l 0.75,4.942 c -19.43,2.929 -39.3,4.441 -59.54,4.441 -50.69,0 -99.17,-9.512 -143.73,-26.851 l 1.81,-4.661"
         style="fill:#231f20;fill-opacity:1;fill-rule:nonzero;stroke:none"
         transform="matrix(0.13333333,0,0,-0.13333333,0,107.45333)" />
      <path
         id="path43"
         d="m 1361.7,441.582 c -7.15,1.074 -14.48,1.641 -21.93,1.641 -80.66,0 -146.06,-65.395 -146.06,-146.067 0,-1.199 0.02,-2.383 0.04,-3.547 l 5,0.086 c -0.02,1.16 -0.04,2.321 -0.04,3.461 0,38.961 15.79,74.211 41.32,99.75 25.53,25.532 60.78,41.317 99.74,41.317 7.19,0 14.28,-0.547 21.19,-1.582 l 0.74,4.941"
         style="fill:#231f20;fill-opacity:1;fill-rule:nonzero;stroke:none"
         transform="matrix(0.13333333,0,0,-0.13333333,0,107.45333)" />
      <path
         id="path44"
         d="M 17.4883,263.727 946.297,588.277 943.82,595.355 15.0117,270.805"
         style="fill:#231f20;fill-opacity:1;fill-rule:nonzero;stroke:none"
         transform="matrix(0.13333333,0,0,-0.13333333,0,107.45333)" />
      <path
         id="path45"
         d="m 956.309,591.816 c 0,-6.211 -5.039,-11.25 -11.25,-11.25 -6.211,0 -11.25,5.039 -11.25,11.25 0,6.219 5.039,11.25 11.25,11.25 6.211,0 11.25,-5.031 11.25,-11.25"
         style="fill:#231f20;fill-opacity:1;fill-rule:nonzero;stroke:none"
         transform="matrix(0.13333333,0,0,-0.13333333,0,107.45333)" />
      <path
         id="path46"
         d="m 956.309,591.816 h -5 c -0.008,-3.445 -2.805,-6.246 -6.25,-6.25 -3.446,0.004 -6.243,2.805 -6.25,6.25 0.007,3.457 2.796,6.243 6.25,6.25 3.453,-0.007 6.242,-2.793 6.25,-6.25 h 5 5 c -0.004,8.985 -7.282,16.25 -16.25,16.25 -8.969,0 -16.246,-7.265 -16.25,-16.25 0.004,-8.976 7.273,-16.246 16.25,-16.25 8.976,0.004 16.246,7.274 16.25,16.25 h -5"
         style="fill:#231f20;fill-opacity:1;fill-rule:nonzero;stroke:none"
         transform="matrix(0.13333333,0,0,-0.13333333,0,107.45333)" />
      <path
         id="path47"
         d="m 462.496,423.898 c 16.477,-46.25 25.969,-95.828 27.203,-147.445 l 4.996,0.121 c -1.246,52.153 -10.836,102.262 -27.484,149 l -4.711,-1.676"
         style="fill:#231f20;fill-opacity:1;fill-rule:nonzero;stroke:none"
         transform="matrix(0.13333333,0,0,-0.13333333,0,107.45333)" />
      <path
         id="path48"
         d="m 1603.15,550.316 5.59,-21.722 10,20.086 0.96,-22.407 13.94,17.559 -3.71,-22.121 17.29,14.289 -8.25,-20.867 19.91,10.375 -12.41,-18.703 21.63,6.015 -16.02,-15.707 22.38,1.387 -18.92,-12.039 22.18,-3.301 -21.01,-7.84 21.01,-7.84 -22.18,-3.3 18.92,-12.035 -22.38,1.39 16.02,-15.715 -21.63,6.012 12.41,-18.695 -19.91,10.375 8.25,-20.864 -17.29,14.282 3.71,-22.125 -13.94,17.558 -0.96,-22.406 -10,20.09 -5.59,-21.731 -5.62,21.731 -9.98,-20.09 -0.96,22.406 -13.96,-17.558 3.73,22.125 -17.31,-14.282 8.24,20.864 -19.88,-10.375 12.38,18.695 -21.6,-6.012 16.02,15.715 -22.4,-1.39 18.94,12.035 -22.19,3.3 21,7.84 -21,7.84 22.19,3.301 -18.94,12.039 22.4,-1.387 -16.02,15.707 21.6,-6.015 -12.38,18.703 19.88,-10.375 -8.24,20.867 17.31,-14.289 -3.73,22.121 13.96,-17.559 0.96,22.407 9.98,-20.086 5.62,21.722"
         style="fill:#fddd1b;fill-opacity:1;fill-rule:nonzero;stroke:none"
         transform="matrix(0.13333333,0,0,-0.13333333,0,107.45333)" />
      <path
         id="path49"
         d="m 1603.15,550.316 -1.69,-0.433 6.75,-26.274 9.07,18.215 0.87,-20.312 12.64,15.922 -3.36,-20.067 15.66,12.953 -7.47,-18.91 18.05,9.406 -11.25,-16.953 19.6,5.453 -14.52,-14.238 20.3,1.258 -17.16,-10.918 20.11,-2.992 -19.05,-7.102 19.06,-7.109 -20.12,-2.996 17.15,-10.906 -20.29,1.261 14.53,-14.25 -19.61,5.449 11.25,-16.945 -18.05,9.406 7.47,-18.91 -15.66,12.942 3.36,-20.059 -12.64,15.922 -0.87,-20.313 -9.07,18.211 -5.06,-19.703 -5.1,19.699 -9.04,-18.199 -0.87,20.301 -12.66,-15.918 3.38,20.063 -15.69,-12.95 7.48,18.914 -18.03,-9.406 11.22,16.949 -19.57,-5.449 14.51,14.246 -20.3,-1.261 17.17,10.906 -20.12,2.996 19.03,7.109 -19.03,7.102 20.12,2.992 -17.17,10.914 20.3,-1.254 -14.51,14.235 19.57,-5.45 -11.22,16.953 18.03,-9.41 -7.47,18.918 15.68,-12.957 -3.38,20.067 12.66,-15.918 0.87,20.297 9.04,-18.196 6.8,26.262 -1.7,0.437 -1.69,-0.433 1.69,0.433 -1.69,0.442 -4.45,-17.188 -10.92,21.977 -1.05,-24.516 -15.27,19.199 4.08,-24.179 -18.92,15.625 9.01,-22.821 -21.73,11.34 13.54,-20.445 -23.63,6.578 17.51,-17.176 -24.49,1.516 20.71,-13.168 -24.25,-3.609 22.96,-8.571 -22.96,-8.574 24.25,-3.605 -20.72,-13.164 24.5,1.519 -17.51,-17.18 23.63,6.575 -13.54,-20.446 21.73,11.344 -9.01,-22.812 18.92,15.617 -4.08,-24.188 15.27,19.199 1.05,-24.515 10.92,21.976 6.15,-23.753 6.11,23.75 10.93,-21.961 1.05,24.5 15.24,-19.196 -4.06,24.188 18.91,-15.625 -9.01,22.824 21.76,-11.348 -13.56,20.446 23.64,-6.575 -17.51,17.18 24.47,-1.519 -20.7,13.164 24.26,3.605 -22.97,8.574 22.98,8.571 -24.27,3.609 20.7,13.168 -24.47,-1.516 17.51,17.176 -23.64,-6.578 13.56,20.445 -21.76,-11.343 9.01,22.832 -18.91,-15.633 4.06,24.183 -15.24,-19.199 -1.05,24.5 -10.93,-21.961 -6.11,23.746 -1.7,-6.562 1.69,-0.442"
         style="fill:#231f20;fill-opacity:1;fill-rule:nonzero;stroke:none"
         transform="matrix(0.13333333,0,0,-0.13333333,0,107.45333)" />
      <path
         id="path50"
         d="m 1073.17,255.133 6.71,-26.07 12,24.105 1.15,-26.891 16.73,21.071 -4.45,-26.547 20.75,17.152 -9.89,-25.043 23.88,12.449 -14.88,-22.437 25.94,7.215 -19.22,-18.848 26.86,1.664 -22.71,-14.453 26.63,-3.961 -25.22,-9.402 25.22,-9.41 -26.63,-3.961 22.71,-14.442 -26.86,1.668 19.22,-18.855 -25.94,7.211 14.88,-22.43 -23.88,12.449 9.89,-25.0389 -20.75,17.1409 4.45,-26.5471 -16.73,21.0661 -1.15,-26.8903 -12,24.1093 -6.71,-26.0742 -6.73,26.0742 -11.99,-24.1093 -1.15,26.8903 -16.75,-21.0661 4.48,26.5471 -20.77,-17.1409 9.9,25.0389 -23.87,-12.449 14.87,22.43 -25.93,-7.211 19.21,18.855 -26.874,-1.668 22.724,14.442 -26.622,3.961 25.202,9.41 -25.202,9.402 26.622,3.961 -22.724,14.453 26.874,-1.664 -19.21,18.848 25.93,-7.215 -14.87,22.437 23.87,-12.449 -9.9,25.043 20.77,-17.152 -4.48,26.547 16.75,-21.071 1.15,26.891 11.99,-24.105 6.73,26.07"
         style="fill:#fddd1b;fill-opacity:1;fill-rule:nonzero;stroke:none"
         transform="matrix(0.13333333,0,0,-0.13333333,0,107.45333)" />
      <path
         id="path51"
         d="m 1073.17,255.133 -1.69,-0.438 7.88,-30.613 11.06,22.227 1.06,-24.793 15.43,19.433 -4.1,-24.488 19.13,15.812 -9.12,-23.085 22.02,11.484 -13.72,-20.695 23.91,6.652 -17.72,-17.375 24.78,1.535 -20.94,-13.328 24.55,-3.652 -23.26,-8.672 23.26,-8.676 -24.55,-3.652 20.94,-13.317 -24.78,1.539 17.73,-17.39 -23.92,6.648 13.72,-20.68 -22.02,11.481 9.12,-23.0861 -19.13,15.8011 4.1,-24.4886 -15.43,19.4376 -1.06,-24.7931 -11.06,22.2271 -6.19,-24.0474 -6.21,24.0434 -11.05,-22.2192 -1.06,24.7812 -15.45,-19.4257 4.13,24.4847 -19.14,-15.8011 9.12,23.0861 -22.01,-11.481 13.71,20.684 -23.91,-6.652 17.71,17.39 -24.768,-1.539 20.948,13.317 -24.557,3.652 23.237,8.676 -23.233,8.672 24.553,3.652 -20.956,13.324 24.776,-1.531 -17.71,17.375 23.91,-6.652 -13.71,20.695 22.01,-11.484 -9.12,23.089 19.14,-15.816 -4.13,24.484 15.45,-19.425 1.06,24.785 11.05,-22.223 7.91,30.613 -1.7,0.438 -1.69,-0.438 1.69,0.438 -1.69,0.437 -5.57,-21.531 -12.91,25.992 -1.25,-28.992 -18.06,22.711 4.83,-28.609 -22.38,18.492 10.66,-27 -25.72,13.418 16.03,-24.188 -27.954,7.782 20.704,-20.321 -28.958,1.797 24.498,-15.578 -28.701,-4.27 27.161,-10.136 -27.161,-10.145 28.691,-4.265 -24.495,-15.571 28.965,1.801 -20.7,-20.324 27.95,7.773 -16.03,-24.179 25.72,13.418 -10.66,-26.9887 22.38,18.4727 -4.83,-28.6095 18.06,22.711 1.25,-28.9961 12.91,25.9922 7.27,-28.1055 7.23,28.1016 12.94,-25.9844 1.23,28.9883 18.03,-22.7071 -4.8,28.6135 22.37,-18.4807 -10.66,26.9957 25.74,-13.421 -16.04,24.179 27.96,-7.773 -20.71,20.324 28.96,-1.801 -24.49,15.571 28.7,4.269 -27.18,10.141 27.18,10.136 -28.7,4.27 24.48,15.578 -28.95,-1.797 20.71,20.321 -27.96,-7.782 16.04,24.188 -25.74,-13.418 10.66,27.004 -22.37,-18.496 4.8,28.605 -18.03,-22.703 -1.24,28.984 -12.93,-25.984 -7.23,28.098 -1.7,-6.571 1.69,-0.437"
         style="fill:#231f20;fill-opacity:1;fill-rule:nonzero;stroke:none"
         transform="matrix(0.13333333,0,0,-0.13333333,0,107.45333)" />
      <path
         id="path52"
         d="m 1521.86,261.102 7.45,-28.965 13.33,26.785 1.27,-29.879 18.59,23.414 -4.94,-29.496 23.06,19.055 -10.99,-27.828 26.52,13.839 -16.52,-24.937 28.82,8.019 -21.36,-20.945 29.85,1.852 -25.23,-16.059 29.58,-4.398 -28.02,-10.45 28.02,-10.457 -29.58,-4.398 25.23,-16.051 -29.85,1.856 21.36,-20.95 -28.82,8.012 16.52,-24.9218 -26.52,13.8318 10.99,-27.8201 -23.06,19.043 4.94,-29.4961 -18.59,23.4102 -1.27,-29.8789 -13.33,26.7851 -7.45,-28.9726 -7.49,28.9726 -13.32,-26.7851 -1.28,29.8789 -18.62,-23.4102 4.98,29.4961 -23.06,-19.043 10.98,27.8201 -26.51,-13.8318 16.51,24.9218 -28.81,-8.012 21.35,20.95 -29.85,-1.856 25.24,16.051 -29.58,4.398 28,10.457 -28,10.45 29.58,4.398 -25.24,16.059 29.85,-1.852 -21.35,20.945 28.81,-8.019 -16.51,24.937 26.51,-13.839 -10.98,27.828 23.06,-19.055 -4.98,29.496 18.62,-23.414 1.28,29.879 13.32,-26.785 7.49,28.965"
         style="fill:#fddd1b;fill-opacity:1;fill-rule:nonzero;stroke:none"
         transform="matrix(0.13333333,0,0,-0.13333333,0,107.45333)" />
      <path
         id="path53"
         d="m 1521.86,261.102 -1.7,-0.434 8.62,-33.512 12.4,24.903 1.18,-27.782 17.29,21.782 -4.59,-27.438 21.43,17.719 -10.21,-25.871 24.66,12.867 -15.36,-23.188 26.79,7.454 -19.86,-19.473 27.77,1.723 -23.47,-14.938 27.51,-4.09 -26.06,-9.715 26.06,-9.722 -27.51,-4.09 23.46,-14.926 -27.76,1.727 19.87,-19.485 -26.8,7.45 15.36,-23.1724 -24.66,12.8634 10.21,-25.8712 -21.43,17.7072 4.59,-27.4377 -17.29,21.7813 -1.18,-27.7813 -12.4,24.9024 -6.93,-26.9414 -6.96,26.9375 -12.38,-24.8985 -1.2,27.7735 -17.3,-21.7656 4.63,27.4338 -21.45,-17.7112 10.21,25.8712 -24.65,-12.8634 15.35,23.1724 -26.79,-7.45 19.86,19.485 -27.76,-1.727 23.47,14.926 -27.51,4.09 26.03,9.722 -26.03,9.715 27.51,4.09 -23.48,14.938 27.77,-1.723 -19.85,19.473 26.78,-7.454 -15.36,23.188 24.66,-12.871 -10.21,25.875 21.45,-17.723 -4.63,27.434 17.3,-21.766 1.2,27.774 12.37,-24.899 8.67,33.504 -1.69,0.438 -1.7,-0.434 1.7,0.434 -1.7,0.437 -6.32,-24.422 -14.24,28.664 -1.38,-31.98 -19.92,25.058 5.32,-31.558 -24.68,20.39 11.76,-29.781 -28.37,14.809 17.67,-26.684 -30.83,8.578 22.85,-22.41 -31.95,1.981 27.02,-17.188 -31.65,-4.707 29.96,-11.18 -29.96,-11.187 31.64,-4.707 -27.01,-17.18 31.95,1.988 -22.84,-22.418 30.82,8.575 -17.67,-26.6722 28.37,14.8012 -11.76,-29.7699 24.69,20.375 -5.33,-31.5625 19.92,25.0586 1.38,-31.9805 14.24,28.6641 8.02,-31 7.97,30.996 14.27,-28.6601 1.36,31.9726 19.89,-25.0468 -5.29,31.5625 24.68,-20.3828 -11.76,29.7778 28.38,-14.8052 -17.68,26.6722 30.84,-8.578 -22.85,22.421 31.94,-1.988 -27,17.18 31.65,4.707 -29.98,11.187 29.98,11.18 -31.66,4.707 27.01,17.188 -31.94,-1.981 22.85,22.41 -30.84,-8.578 17.68,26.684 -28.38,-14.809 11.76,29.785 -24.68,-20.398 5.29,31.558 -19.89,-25.046 -1.36,31.972 -14.27,-28.66 -7.97,30.988 -1.7,-6.57 1.7,-0.437"
         style="fill:#231f20;fill-opacity:1;fill-rule:nonzero;stroke:none"
         transform="matrix(0.13333333,0,0,-0.13333333,0,107.45333)" />
      <g
         id="g53"
         aria-label="θ&#10;w"
         transform="matrix(1.3333333,0,0,1.3333333,151.22267,52.4804)">
        <path
           id="path54"
           d="m 3.1406172,-6.4101047 c -1.59375,0 -2.61328126,2.671875 -2.61328126,4.5585938 0,0.93749996 0.2578125,1.95703121 1.26562496,1.95703121 1.6171875,0 2.5664063,-2.69531251 2.5664063,-4.61718751 0,-0.9726562 -0.2578125,-1.8984375 -1.21875,-1.8984375 z m -1.6992188,2.9179688 c 0.2695313,-1.3476563 0.84375,-2.6132813 1.5703125,-2.6132813 0.5859375,0 0.6445313,0.890625 0.6445313,1.3710938 0,0.4101562 -0.058594,0.796875 -0.1054688,1.2421875 z m 2.0390625,0.421875 c -0.2460937,1.4296875 -0.8203125,2.85937496 -1.5703125,2.85937496 -0.5273437,0 -0.6679687,-0.7734375 -0.6679687,-1.47656246 0,-0.46875 0.058594,-0.9257813 0.1289062,-1.3828125 z m 0,0"
           style="fill:#231f20;fill-opacity:1;fill-rule:nonzero;stroke:none" />
        <path
           id="path55"
           d="m 8.2851484,-0.62397187 h -1.078125 v 0.15234375 c 0.3867188,0.0585938 0.421875,0.09375 0.3398438,0.3984375 C 7.4413984,0.37212188 7.2773359,0.89946563 7.1484297,1.3096219 H 7.1367109 C 6.8788984,0.66509063 6.6328047,0.03227813 6.4101484,-0.58881562 H 6.2578047 C 5.9999922,0.10259063 5.7773359,0.71196563 5.5546797,1.2979031 H 5.5429609 C 5.4023359,0.82915313 5.2499922,0.36040313 5.1093672,-0.10834687 5.0156172,-0.37787812 5.0507734,-0.41303437 5.4140547,-0.47162812 V -0.62397187 H 4.1718672 v 0.15234375 c 0.28125,0.046875 0.3398437,0.0820313 0.4453125,0.3984375 0.2460937,0.71484375 0.46875,1.42968752 0.6914062,2.14453122 H 5.4843672 C 5.7187422,1.4033719 5.9648359,0.80571563 6.1874922,0.19634063 6.4335859,0.82915313 6.6796797,1.4150906 6.9257734,2.0713406 h 0.1640625 c 0.28125,-0.8203125 0.5390625,-1.61718747 0.7148438,-2.09765622 0.1289062,-0.328125 0.1875,-0.3984375 0.4804687,-0.4453125 z m 0,0"
           style="fill:#231f20;fill-opacity:1;fill-rule:nonzero;stroke:none" />
      </g>
    </g>
  </g>
</svg>
