<?xml version="1.0" encoding="UTF-8" standalone="no"?>
<!-- Created with Inkscape (http://www.inkscape.org/) -->

<svg
   version="1.1"
   id="svg1"
   width="113.6"
   height="116.05333"
   viewBox="0 0 113.6 116.05333"
   sodipodi:docname="pha12f10.eps"
   xmlns:inkscape="http://www.inkscape.org/namespaces/inkscape"
   xmlns:sodipodi="http://sodipodi.sourceforge.net/DTD/sodipodi-0.dtd"
   xmlns="http://www.w3.org/2000/svg"
   xmlns:svg="http://www.w3.org/2000/svg">
  <defs
     id="defs1" />
  <sodipodi:namedview
     id="namedview1"
     pagecolor="#ffffff"
     bordercolor="#000000"
     borderopacity="0.25"
     inkscape:showpageshadow="2"
     inkscape:pageopacity="0.0"
     inkscape:pagecheckerboard="0"
     inkscape:deskcolor="#d1d1d1">
    <inkscape:page
       x="0"
       y="0"
       inkscape:label="1"
       id="page1"
       width="113.6"
       height="116.05333"
       margin="0"
       bleed="0" />
  </sodipodi:namedview>
  <g
     id="g1"
     inkscape:groupmode="layer"
     inkscape:label="1">
    <g
       id="group-R5">
      <g
         id="g2"
         aria-label="I(ω)"
         transform="matrix(1.3333333,0,0,1.3333333,93.135467,86.9804)">
        <path
           id="path2"
           d="M 3.4228141,-5.8358859 H 1.1376578 l -0.070312,0.234375 c 0.75,0.070312 0.8203125,0.1171875 0.6914063,0.7734375 l -0.726563,3.7851562 C 0.89156406,-0.36322969 0.83297031,-0.29291719 0.12984531,-0.24604219 L 0.05953281,5.15625e-5 H 2.3681266 L 2.4267203,-0.24604219 c -0.7382812,-0.046875 -0.796875,-0.10546875 -0.65625,-0.79687501 l 0.7265625,-3.7851562 c 0.1171875,-0.65625 0.1640625,-0.703125 0.8671875,-0.7734375 z m 0,0"
           style="fill:#231f20;fill-opacity:1;fill-rule:nonzero;stroke:none" />
        <path
           id="path3"
           d="m 6.0712516,1.3242703 c -0.890625,-0.76171874 -1.40625,-2.20312499 -1.40625,-3.75 0,-1.546875 0.515625,-3 1.40625,-3.75 L 5.9189078,-6.3866672 c -1.3242187,0.9023438 -1.9101562,2.3320313 -1.9101562,3.9492188 0,1.62890621 0.5859375,3.08203121 1.9101562,3.9609375 z m 0,0"
           style="fill:#231f20;fill-opacity:1;fill-rule:nonzero;stroke:none" />
        <path
           id="path4"
           d="m 10.846642,-3.8436984 c 0.292969,0.2578125 0.503906,0.7148437 0.503906,1.3828125 -0.01172,1.0078125 -0.398437,2.05078121 -1.136718,2.05078121 -0.3046878,0 -0.5156253,-0.3046875 -0.4921878,-0.87890621 0.023437,-0.46875 0.234375,-1.359375 0.3515628,-1.7226563 l -0.05859,-0.035156 -0.6679688,0.140625 c -0.035156,0.28125 -0.09375,0.75 -0.1875,1.1367187 -0.1992188,0.85546876 -0.5625,1.31250001 -0.9492188,1.31250001 -0.28125,0 -0.5390625,-0.33984375 -0.5390625,-0.99609371 0,-1.0078125 0.46875,-1.921875 1.1601563,-2.4492188 l -0.140625,-0.1992187 c -1.0429688,0.5390625 -1.7578125,1.5585937 -1.7578125,2.765625 0,0.93749996 0.421875,1.44140621 0.9375,1.44140621 0.3867187,0 0.9023437,-0.3984375 1.2304687,-0.890625 0.046875,0.50390625 0.328125,0.890625 0.7617188,0.890625 0.3749998,0 0.7382808,-0.22265625 1.0664058,-0.515625 0.5625,-0.52734375 0.996094,-1.30078121 0.996094,-2.21484371 0,-0.9023438 -0.398437,-1.4179688 -0.691406,-1.4179688 -0.152344,0 -0.316406,0.070312 -0.375,0.1289063 z m 0,0"
           style="fill:#231f20;fill-opacity:1;fill-rule:nonzero;stroke:none" />
        <path
           id="path5"
           d="m 12.639611,-6.1757297 c 0.890625,0.7382813 1.417969,2.203125 1.417969,3.75 0,1.54687501 -0.503907,2.98828126 -1.417969,3.75 l 0.164062,0.1992188 c 1.347657,-0.91406254 1.898438,-2.33203129 1.898438,-3.9492188 0,-1.6289062 -0.550781,-3.0585937 -1.898438,-3.9609375 z m 0,0"
           style="fill:#231f20;fill-opacity:1;fill-rule:nonzero;stroke:none" />
      </g>
      <path
         id="path6"
         d="M 10.4648,525.504 C 39.5313,682.031 175.211,870.918 364.797,866.547 550.43,862.27 674.727,675.316 701.406,525.504 744.094,285.816 561.371,3.77344 355.938,3.75 150.688,3.72656 -34.1523,285.211 10.4648,525.504 Z"
         style="fill:none;stroke:#231f20;stroke-width:7.5;stroke-linecap:butt;stroke-linejoin:miter;stroke-miterlimit:10;stroke-dasharray:none;stroke-opacity:1"
         transform="matrix(0.13333333,0,0,-0.13333333,0,116.05333)" />
      <path
         id="path7"
         d="M 354.82,434.301 248.324,791.363"
         style="fill:none;stroke:#231f20;stroke-width:7.5;stroke-linecap:butt;stroke-linejoin:miter;stroke-miterlimit:10;stroke-dasharray:none;stroke-opacity:1"
         transform="matrix(0.13333333,0,0,-0.13333333,0,116.05333)" />
      <path
         id="path8"
         d="m 251.406,781.043 -16.965,-18.777 -0.675,0.566 3.343,37.781 c -0.921,12.539 -1.843,25.082 -2.761,37.625 6.097,-10.996 12.195,-21.992 18.297,-32.988 l 23.492,-29.781 -0.145,-0.813 -24.586,6.387"
         style="fill:#231f20;fill-opacity:1;fill-rule:nonzero;stroke:none"
         transform="matrix(0.13333333,0,0,-0.13333333,0,116.05333)" />
      <path
         id="path9"
         d="M 353.047,436.957 131.422,684.844"
         style="fill:none;stroke:#231f20;stroke-width:7.5;stroke-linecap:butt;stroke-linejoin:miter;stroke-miterlimit:10;stroke-dasharray:none;stroke-opacity:1"
         transform="matrix(0.13333333,0,0,-0.13333333,0,116.05333)" />
      <path
         id="path10"
         d="m 138.598,676.816 -7.352,-24.214 -0.855,0.226 -13.055,35.61 c -6.176,10.957 -12.348,21.914 -18.5157,32.871 10.1997,-7.356 20.3987,-14.711 30.5977,-22.067 l 33.934,-16.941 0.218,-0.797 -24.972,-4.688"
         style="fill:#231f20;fill-opacity:1;fill-rule:nonzero;stroke:none"
         transform="matrix(0.13333333,0,0,-0.13333333,0,116.05333)" />
      <path
         id="path11"
         d="M 352.156,435.184 67.0039,552.152"
         style="fill:none;stroke:#231f20;stroke-width:7.5;stroke-linecap:butt;stroke-linejoin:miter;stroke-miterlimit:10;stroke-dasharray:none;stroke-opacity:1"
         transform="matrix(0.13333333,0,0,-0.13333333,0,116.05333)" />
      <path
         id="path12"
         d="m 76.9688,548.066 3.957,-24.992 -0.8672,-0.168 -27.3008,26.328 c -10.3359,7.161 -20.6719,14.321 -31.0117,21.485 12.3906,-2.164 24.7773,-4.324 37.1641,-6.485 l 37.9257,-0.421 0.5469,-0.625 -20.414,-15.122"
         style="fill:#231f20;fill-opacity:1;fill-rule:nonzero;stroke:none"
         transform="matrix(0.13333333,0,0,-0.13333333,0,116.05333)" />
      <path
         id="path13"
         d="M 348.617,434.301 58.4961,386.449"
         style="fill:none;stroke:#231f20;stroke-width:7.5;stroke-linecap:butt;stroke-linejoin:miter;stroke-miterlimit:10;stroke-dasharray:none;stroke-opacity:1"
         transform="matrix(0.13333333,0,0,-0.13333333,0,116.05333)" />
      <path
         id="path14"
         d="m 69.1211,388.203 16.4922,-19.187 -0.6485,-0.602 -37.0585,8.074 c -12.5547,0.664 -25.1133,1.332 -37.6719,2.004 11.6797,4.66 23.3554,9.324 35.0351,13.992 l 32.5,19.551 0.7891,-0.242 -9.4375,-23.59"
         style="fill:#231f20;fill-opacity:1;fill-rule:nonzero;stroke:none"
         transform="matrix(0.13333333,0,0,-0.13333333,0,116.05333)" />
      <path
         id="path15"
         d="M 353.047,434.301 124.066,210.703"
         style="fill:none;stroke:#231f20;stroke-width:7.5;stroke-linecap:butt;stroke-linejoin:miter;stroke-miterlimit:10;stroke-dasharray:none;stroke-opacity:1"
         transform="matrix(0.13333333,0,0,-0.13333333,0,116.05333)" />
      <path
         id="path16"
         d="m 131.773,218.227 24.512,-6.278 -0.187,-0.871 -35.004,-14.609 c -10.672,-6.649 -21.3479,-13.293 -32.0198,-19.942 6.8985,10.516 13.7968,21.028 20.6958,31.543 l 15.433,34.645 0.789,0.25 5.781,-24.738"
         style="fill:#231f20;fill-opacity:1;fill-rule:nonzero;stroke:none"
         transform="matrix(0.13333333,0,0,-0.13333333,0,116.05333)" />
      <path
         id="path17"
         d="M 354.82,434.301 229.141,93.9648"
         style="fill:none;stroke:#231f20;stroke-width:7.5;stroke-linecap:butt;stroke-linejoin:miter;stroke-miterlimit:10;stroke-dasharray:none;stroke-opacity:1"
         transform="matrix(0.13333333,0,0,-0.13333333,0,116.05333)" />
      <path
         id="path18"
         d="m 232.871,104.066 24.832,4.852 0.207,-0.867 -25.347,-28.2151 C 225.777,69.25 218.988,58.668 212.195,48.082 c 1.719,12.4532 3.446,24.9102 5.16,37.3711 l -0.925,37.9139 0.605,0.567 15.836,-19.868"
         style="fill:#231f20;fill-opacity:1;fill-rule:nonzero;stroke:none"
         transform="matrix(0.13333333,0,0,-0.13333333,0,116.05333)" />
      <path
         id="path19"
         d="M 353.93,434.301 460.426,791.363"
         style="fill:none;stroke:#231f20;stroke-width:7.5;stroke-linecap:butt;stroke-linejoin:miter;stroke-miterlimit:10;stroke-dasharray:none;stroke-opacity:1"
         transform="matrix(0.13333333,0,0,-0.13333333,0,116.05333)" />
      <path
         id="path20"
         d="m 457.344,781.043 -24.473,-6.418 -0.258,0.844 23.492,29.781 c 6.098,10.996 12.196,21.992 18.297,32.988 -0.922,-12.539 -1.843,-25.086 -2.761,-37.625 l 3.343,-37.781 -0.566,-0.602 -17.074,18.813"
         style="fill:#231f20;fill-opacity:1;fill-rule:nonzero;stroke:none"
         transform="matrix(0.13333333,0,0,-0.13333333,0,116.05333)" />
      <path
         id="path21"
         d="M 355.703,436.957 577.328,684.844"
         style="fill:none;stroke:#231f20;stroke-width:7.5;stroke-linecap:butt;stroke-linejoin:miter;stroke-miterlimit:10;stroke-dasharray:none;stroke-opacity:1"
         transform="matrix(0.13333333,0,0,-0.13333333,0,116.05333)" />
      <path
         id="path22"
         d="m 570.152,676.816 -24.879,4.606 0.125,0.879 33.934,16.941 c 10.199,7.36 20.398,14.711 30.602,22.067 -6.172,-10.957 -12.344,-21.914 -18.516,-32.871 l -13.059,-35.61 -0.765,-0.305 -7.442,24.293"
         style="fill:#231f20;fill-opacity:1;fill-rule:nonzero;stroke:none"
         transform="matrix(0.13333333,0,0,-0.13333333,0,116.05333)" />
      <path
         id="path23"
         d="M 356.594,435.184 641.746,552.152"
         style="fill:none;stroke:#231f20;stroke-width:7.5;stroke-linecap:butt;stroke-linejoin:miter;stroke-miterlimit:10;stroke-dasharray:none;stroke-opacity:1"
         transform="matrix(0.13333333,0,0,-0.13333333,0,116.05333)" />
      <path
         id="path24"
         d="m 631.781,548.066 -20.363,15.008 0.496,0.739 37.926,0.421 c 12.387,2.161 24.773,4.325 37.164,6.485 -10.34,-7.16 -20.676,-14.324 -31.012,-21.485 l -27.301,-26.328 -0.824,0.059 3.914,25.101"
         style="fill:#231f20;fill-opacity:1;fill-rule:nonzero;stroke:none"
         transform="matrix(0.13333333,0,0,-0.13333333,0,116.05333)" />
      <path
         id="path25"
         d="M 360.133,434.301 650.258,386.449"
         style="fill:none;stroke:#231f20;stroke-width:7.5;stroke-linecap:butt;stroke-linejoin:miter;stroke-miterlimit:10;stroke-dasharray:none;stroke-opacity:1"
         transform="matrix(0.13333333,0,0,-0.13333333,0,116.05333)" />
      <path
         id="path26"
         d="m 639.633,388.203 -9.457,23.473 0.808,0.359 32.5,-19.551 c 11.684,-4.664 23.356,-9.324 35.036,-13.992 -12.559,-0.664 -25.114,-1.336 -37.668,-2.004 l -37.063,-8.082 -0.668,0.489 16.512,19.308"
         style="fill:#231f20;fill-opacity:1;fill-rule:nonzero;stroke:none"
         transform="matrix(0.13333333,0,0,-0.13333333,0,116.05333)" />
      <path
         id="path27"
         d="M 355.703,434.301 584.688,210.703"
         style="fill:none;stroke:#231f20;stroke-width:7.5;stroke-linecap:butt;stroke-linejoin:miter;stroke-miterlimit:10;stroke-dasharray:none;stroke-opacity:1"
         transform="matrix(0.13333333,0,0,-0.13333333,0,116.05333)" />
      <path
         id="path28"
         d="m 576.98,218.227 5.696,24.656 0.871,-0.168 15.437,-34.645 c 6.899,-10.515 13.797,-21.027 20.7,-31.543 -10.676,6.649 -21.348,13.297 -32.028,19.942 l -35,14.609 -0.269,0.781 24.593,6.368"
         style="fill:#231f20;fill-opacity:1;fill-rule:nonzero;stroke:none"
         transform="matrix(0.13333333,0,0,-0.13333333,0,116.05333)" />
      <path
         id="path29"
         d="M 353.93,434.301 479.609,93.9648"
         style="fill:none;stroke:#231f20;stroke-width:7.5;stroke-linecap:butt;stroke-linejoin:miter;stroke-miterlimit:10;stroke-dasharray:none;stroke-opacity:1"
         transform="matrix(0.13333333,0,0,-0.13333333,0,116.05333)" />
      <path
         id="path30"
         d="m 475.879,104.066 15.723,19.825 0.718,-0.524 -0.925,-37.9139 c 1.718,-12.4609 3.441,-24.9179 5.16,-37.3711 -6.789,10.586 -13.575,21.1719 -20.367,31.7539 l -25.348,28.2151 0.094,0.82 24.945,-4.805"
         style="fill:#231f20;fill-opacity:1;fill-rule:nonzero;stroke:none"
         transform="matrix(0.13333333,0,0,-0.13333333,0,116.05333)" />
      <path
         id="path31"
         d="M 352.871,436.406 619.215,289.039"
         style="fill:none;stroke:#231f20;stroke-width:7.5;stroke-linecap:butt;stroke-linejoin:miter;stroke-miterlimit:10;stroke-dasharray:30, 20;stroke-dashoffset:0;stroke-opacity:1"
         transform="matrix(0.13333333,0,0,-0.13333333,0,116.05333)" />
      <path
         id="path32"
         d="m 609.789,294.254 -1.039,25.277 0.883,0.074 24.062,-29.316 c 9.442,-8.312 18.879,-16.621 28.317,-24.934 -12.055,3.586 -24.106,7.165 -36.16,10.743 l -37.625,4.82 -0.469,0.68 22.031,12.656"
         style="fill:#231f20;fill-opacity:1;fill-rule:nonzero;stroke:none"
         transform="matrix(0.13333333,0,0,-0.13333333,0,116.05333)" />
    </g>
  </g>
</svg>
