<?xml version="1.0" encoding="UTF-8" standalone="no"?>
<!-- Created with Inkscape (http://www.inkscape.org/) -->

<svg
   version="1.1"
   id="svg1"
   width="232.8"
   height="103.01333"
   viewBox="0 0 232.8 103.01333"
   sodipodi:docname="pha12f26.eps"
   xmlns:inkscape="http://www.inkscape.org/namespaces/inkscape"
   xmlns:sodipodi="http://sodipodi.sourceforge.net/DTD/sodipodi-0.dtd"
   xmlns="http://www.w3.org/2000/svg"
   xmlns:svg="http://www.w3.org/2000/svg">
  <defs
     id="defs1" />
  <sodipodi:namedview
     id="namedview1"
     pagecolor="#ffffff"
     bordercolor="#000000"
     borderopacity="0.25"
     inkscape:showpageshadow="2"
     inkscape:pageopacity="0.0"
     inkscape:pagecheckerboard="0"
     inkscape:deskcolor="#d1d1d1">
    <inkscape:page
       x="0"
       y="0"
       inkscape:label="1"
       id="page1"
       width="232.8"
       height="103.01333"
       margin="0"
       bleed="0" />
  </sodipodi:namedview>
  <g
     id="g1"
     inkscape:groupmode="layer"
     inkscape:label="1">
    <g
       id="group-R5">
      <path
         id="path2"
         d="m 280.504,338.578 0.457,-2.457 227.734,42.387 c 1.188,0.222 2.043,1.25 2.043,2.457 l 0.117,389.121 -0.914,1.934 -2.07,0.523 -227.851,-44.855 c -1.168,-0.231 -2.016,-1.262 -2.016,-2.454 V 338.578 l 0.902,-1.922 2.055,-0.535 -0.457,2.457 h 2.5 V 723.18 l 222.851,43.867 -0.117,-384 -225.691,-42.012 0.457,-2.457 h 2.5 -2.5"
         style="fill:#231f20;fill-opacity:1;fill-rule:nonzero;stroke:none"
         transform="matrix(0.13333333,0,0,-0.13333333,0,103.01333)" />
      <path
         id="path3"
         d="m 833.336,351.523 0.223,2.493 -322.821,29.234 0.117,384.098 319.981,-29.532 V 351.523 h 2.5 l 0.223,2.493 -0.223,-2.493 h 2.5 v 388.575 c 0,1.289 -0.988,2.371 -2.27,2.488 l -324.98,29.992 -1.914,-0.64 -0.817,-1.848 -0.117,-389.121 c 0,-1.289 0.989,-2.375 2.274,-2.492 l 325.097,-29.442 1.911,0.645 0.816,1.843 h -2.5"
         style="fill:#231f20;fill-opacity:1;fill-rule:nonzero;stroke:none"
         transform="matrix(0.13333333,0,0,-0.13333333,0,103.01333)" />
      <path
         id="path4"
         d="m 505.836,707.535 -207.68,18.625 59.758,11.766 147.941,29.121 -0.019,-59.512"
         style="fill:#ebeaeb;fill-opacity:1;fill-rule:nonzero;stroke:none"
         transform="matrix(0.13333333,0,0,-0.13333333,0,103.01333)" />
      <path
         id="path5"
         d="m 357.914,737.926 147.941,29.121 v 0 L 357.914,737.926"
         style="fill:#848182;fill-opacity:1;fill-rule:nonzero;stroke:none"
         transform="matrix(0.13333333,0,0,-0.13333333,0,103.01333)" />
      <path
         id="path6"
         d="m 604.496,698.688 -93.66,8.402 0.019,60.258 304.7,-28.121 -211.059,-40.539"
         style="fill:#ebeaeb;fill-opacity:1;fill-rule:nonzero;stroke:none"
         transform="matrix(0.13333333,0,0,-0.13333333,0,103.01333)" />
      <path
         id="path7"
         d="m 510.836,707.09 v 0 l 0.019,60.258 v 0 l -0.019,-60.258"
         style="fill:#b4b3b3;fill-opacity:1;fill-rule:nonzero;stroke:none"
         transform="matrix(0.13333333,0,0,-0.13333333,0,103.01333)" />
      <path
         id="path8"
         d="m 510.836,707.09 -5,0.445 0.019,59.512 v 0 l 2.629,0.519 2.371,-0.218 -0.019,-60.258"
         style="fill:#848182;fill-opacity:1;fill-rule:nonzero;stroke:none"
         transform="matrix(0.13333333,0,0,-0.13333333,0,103.01333)" />
      <path
         id="path9"
         d="m 508.355,770.09 -0.484,2.453 -227.851,-44.855 c -1.223,-0.243 -2.079,-1.34 -2.012,-2.583 0.062,-1.246 1.031,-2.25 2.273,-2.359 l 324.121,-29.07 0.692,0.035 228.711,43.934 c 1.222,0.234 2.09,1.332 2.027,2.574 -0.062,1.246 -1.027,2.254 -2.266,2.367 l -324.98,29.992 -0.715,-0.035 0.484,-2.453 -0.23,-2.492 307.43,-28.371 -211.059,-40.539 -306.34,27.472 210.68,41.477 -0.481,2.453 -0.23,-2.492 0.23,2.492"
         style="fill:#231f20;fill-opacity:1;fill-rule:nonzero;stroke:none"
         transform="matrix(0.13333333,0,0,-0.13333333,0,103.01333)" />
      <path
         id="path10"
         d="m 604.625,310.402 0.215,2.489 -305.836,26.589 209.351,38.965 306.301,-27.738 -210.476,-37.848 0.445,-2.457 0.215,2.489 -0.215,-2.489 0.441,-2.461 228.711,41.122 c 1.235,0.222 2.11,1.32 2.055,2.57 -0.055,1.25 -1.023,2.269 -2.273,2.383 l -325.094,29.441 -0.684,-0.031 -227.734,-42.391 c -1.234,-0.226 -2.102,-1.324 -2.039,-2.578 0.058,-1.25 1.031,-2.262 2.277,-2.367 l 324.121,-28.18 0.66,0.031 -0.441,2.461"
         style="fill:#231f20;fill-opacity:1;fill-rule:nonzero;stroke:none"
         transform="matrix(0.13333333,0,0,-0.13333333,0,103.01333)" />
      <path
         id="path11"
         d="M 283.004,341.59 V 722.5 L 505.836,702.516 505.832,697.84 505.738,383.047 283.004,341.59"
         style="fill:#ebeaeb;fill-opacity:1;fill-rule:nonzero;stroke:none"
         transform="matrix(0.13333333,0,0,-0.13333333,0,103.01333)" />
      <path
         id="path12"
         d="m 283.004,341.59 v 0 l 222.734,41.457 0.094,314.793 -0.094,-314.793 -222.734,-41.457"
         style="fill:#848182;fill-opacity:1;fill-rule:nonzero;stroke:none"
         transform="matrix(0.13333333,0,0,-0.13333333,0,103.01333)" />
      <path
         id="path13"
         d="m 602.125,374.973 -91.387,8.277 0.098,318.82 91.289,-8.187 v -318.91"
         style="fill:#ebeaeb;fill-opacity:1;fill-rule:nonzero;stroke:none"
         transform="matrix(0.13333333,0,0,-0.13333333,0,103.01333)" />
      <path
         id="path14"
         d="m 510.738,383.25 v 0 l 0.098,318.82 v 0 l -0.098,-318.82"
         style="fill:#b4b3b3;fill-opacity:1;fill-rule:nonzero;stroke:none"
         transform="matrix(0.13333333,0,0,-0.13333333,0,103.01333)" />
      <path
         id="path15"
         d="m 602.125,374.973 -93.66,8.484 -0.684,-0.031 -2.043,-0.379 0.094,314.793 0.004,4.676 5,-0.446 -0.098,-318.82 91.387,-8.277 v 0"
         style="fill:#848182;fill-opacity:1;fill-rule:nonzero;stroke:none"
         transform="matrix(0.13333333,0,0,-0.13333333,0,103.01333)" />
      <path
         id="path16"
         d="m 602.125,313.129 -215.863,18.766 -87.258,7.585 209.351,38.965 93.77,-8.492 v -56.824"
         style="fill:#ebeaeb;fill-opacity:1;fill-rule:nonzero;stroke:none"
         transform="matrix(0.13333333,0,0,-0.13333333,0,103.01333)" />
      <path
         id="path17"
         d="m 299.004,339.48 v 0 l 209.351,38.965 v 0 L 299.004,339.48"
         style="fill:#b4b3b3;fill-opacity:1;fill-rule:nonzero;stroke:none"
         transform="matrix(0.13333333,0,0,-0.13333333,0,103.01333)" />
      <path
         id="path18"
         d="m 602.125,369.953 -93.77,8.492 v 0 0 l 93.77,-8.492 v 0"
         style="fill:#b4b3b3;fill-opacity:1;fill-rule:nonzero;stroke:none"
         transform="matrix(0.13333333,0,0,-0.13333333,0,103.01333)" />
      <path
         id="path19"
         d="m 602.125,313.129 -215.863,18.766 215.863,-18.766 v 0 m -303.121,26.351 -16,1.391 v 0.719 l 222.734,41.457 2.043,0.379 0.684,0.031 93.66,-8.484 v -5.02 l -93.77,8.492 -209.351,-38.965"
         style="fill:#848182;fill-opacity:1;fill-rule:nonzero;stroke:none"
         transform="matrix(0.13333333,0,0,-0.13333333,0,103.01333)" />
      <path
         id="path20"
         d="m 280.504,725.234 h -2.5 V 338.578 c 0,-1.297 0.988,-2.379 2.281,-2.488 l 324.121,-28.18 1.907,0.649 0.812,1.843 v 385.766 c 0,1.297 -0.984,2.375 -2.277,2.488 l -324.121,29.071 -1.911,-0.649 -0.812,-1.844 h 2.5 l -0.223,-2.488 321.844,-28.863 V 313.129 l -319.121,27.742 v 384.363 h -2.5 l -0.223,-2.488 0.223,2.488"
         style="fill:#231f20;fill-opacity:1;fill-rule:nonzero;stroke:none"
         transform="matrix(0.13333333,0,0,-0.13333333,0,103.01333)" />
      <path
         id="path21"
         d="M 830.836,354.262 607.125,374.52 V 694.102 L 830.836,737.07 V 354.262"
         style="fill:#ebeaeb;fill-opacity:1;fill-rule:nonzero;stroke:none"
         transform="matrix(0.13333333,0,0,-0.13333333,0,103.01333)" />
      <path
         id="path22"
         d="M 833.336,354.035 607.125,374.52 v 0 L 830.836,354.262 V 737.07 l 2.5,0.481 V 354.035"
         style="fill:#848182;fill-opacity:1;fill-rule:nonzero;stroke:none"
         transform="matrix(0.13333333,0,0,-0.13333333,0,103.01333)" />
      <path
         id="path23"
         d="m 607.125,694.102 v 2.066 c 0,0.16 -0.016,0.32 -0.047,0.473 l 226.258,43.457 v -2.547 l -2.5,-0.481 -223.711,-42.968"
         style="fill:#848182;fill-opacity:1;fill-rule:nonzero;stroke:none"
         transform="matrix(0.13333333,0,0,-0.13333333,0,103.01333)" />
      <path
         id="path24"
         d="M 607.125,313.391 V 369.5 L 814.656,350.703 607.125,313.391"
         style="fill:#ebeaeb;fill-opacity:1;fill-rule:nonzero;stroke:none"
         transform="matrix(0.13333333,0,0,-0.13333333,0,103.01333)" />
      <path
         id="path25"
         d="M 814.656,350.703 607.125,369.5 v 0 l 207.531,-18.793"
         style="fill:#b4b3b3;fill-opacity:1;fill-rule:nonzero;stroke:none"
         transform="matrix(0.13333333,0,0,-0.13333333,0,103.01333)" />
      <path
         id="path26"
         d="m 607.125,310.852 v 2.539 L 814.656,350.707 607.125,369.5 v 5.02 l 226.211,-20.485 v -2.512 L 607.125,310.852"
         style="fill:#848182;fill-opacity:1;fill-rule:nonzero;stroke:none"
         transform="matrix(0.13333333,0,0,-0.13333333,0,103.01333)" />
      <path
         id="path27"
         d="m 604.625,310.402 v 385.766 l 2.453,0.473 c 0.031,-0.153 0.047,-0.313 0.047,-0.473 v -2.066 -319.582 0 -5.02 0 -56.109 -2.539 l -2.5,-0.45"
         style="fill:#848182;fill-opacity:1;fill-rule:nonzero;stroke:none"
         transform="matrix(0.13333333,0,0,-0.13333333,0,103.01333)" />
      <path
         id="path28"
         d="m 833.336,351.523 -0.441,2.461 -225.77,-40.593 V 694.102 L 830.836,737.07 V 351.523 h 2.5 l -0.441,2.461 0.441,-2.461 h 2.5 v 388.575 l -0.91,1.925 -2.063,0.532 -228.711,-43.934 c -1.179,-0.226 -2.027,-1.254 -2.027,-2.453 V 310.402 l 0.895,-1.918 2.046,-0.543 228.711,41.122 c 1.188,0.214 2.059,1.253 2.059,2.46 h -2.5"
         style="fill:#231f20;fill-opacity:1;fill-rule:nonzero;stroke:none"
         transform="matrix(0.13333333,0,0,-0.13333333,0,103.01333)" />
      <path
         id="path29"
         d="m 255.133,147.238 c 0,-6.211 -5.039,-11.25 -11.25,-11.25 -6.219,0 -11.25,5.039 -11.25,11.25 0,6.211 5.031,11.25 11.25,11.25 6.211,0 11.25,-5.039 11.25,-11.25"
         style="fill:#231f20;fill-opacity:1;fill-rule:nonzero;stroke:none"
         transform="matrix(0.13333333,0,0,-0.13333333,0,103.01333)" />
      <path
         id="path30"
         d="m 255.133,147.238 h -5 c -0.008,-3.445 -2.805,-6.246 -6.25,-6.25 -3.453,0.004 -6.246,2.801 -6.25,6.25 0.004,3.446 2.797,6.242 6.25,6.25 3.445,-0.008 6.242,-2.804 6.25,-6.25 h 5 5 c -0.004,8.977 -7.274,16.242 -16.25,16.25 -8.981,-0.004 -16.246,-7.277 -16.25,-16.25 0.004,-8.972 7.269,-16.25 16.25,-16.25 8.976,0.004 16.246,7.274 16.25,16.25 h -5"
         style="fill:#231f20;fill-opacity:1;fill-rule:nonzero;stroke:none"
         transform="matrix(0.13333333,0,0,-0.13333333,0,103.01333)" />
      <path
         id="path31"
         d="m 557.602,521.5 -435.043,80.445 -1.368,-7.375 435.047,-80.445"
         style="fill:#231f20;fill-opacity:1;fill-rule:nonzero;stroke:none"
         transform="matrix(0.13333333,0,0,-0.13333333,0,103.01333)" />
      <path
         id="path32"
         d="m 132.461,596.301 9,-23.653 -0.816,-0.347 -32.114,20.179 c -11.5857,4.887 -23.1716,9.778 -34.7576,14.668 12.5704,0.426 25.1368,0.844 37.7066,1.274 l 37.208,7.359 0.66,-0.496 -16.887,-18.984"
         style="fill:#231f20;fill-opacity:1;fill-rule:nonzero;stroke:none"
         transform="matrix(0.13333333,0,0,-0.13333333,0,103.01333)" />
      <path
         id="path33"
         d="m 247.422,145.613 312.363,369.782 -5.73,4.839 -312.364,-369.781"
         style="fill:#231f20;fill-opacity:1;fill-rule:nonzero;stroke:none"
         transform="matrix(0.13333333,0,0,-0.13333333,0,103.01333)" />
      <path
         id="path34"
         d="m 569.547,517.559 c 0,-6.219 -5.031,-11.25 -11.25,-11.25 -6.211,0 -11.25,5.031 -11.25,11.25 0,6.211 5.039,11.25 11.25,11.25 6.219,0 11.25,-5.039 11.25,-11.25"
         style="fill:#231f20;fill-opacity:1;fill-rule:nonzero;stroke:none"
         transform="matrix(0.13333333,0,0,-0.13333333,0,103.01333)" />
      <path
         id="path35"
         d="m 569.547,517.559 h -5 c 0,-3.461 -2.789,-6.25 -6.25,-6.25 -3.453,0.007 -6.246,2.793 -6.25,6.25 0.004,3.445 2.805,6.246 6.25,6.25 3.457,-0.004 6.242,-2.797 6.25,-6.25 h 5 5 c 0,8.968 -7.266,16.25 -16.25,16.25 -8.977,-0.004 -16.246,-7.274 -16.25,-16.25 0,-8.985 7.277,-16.25 16.25,-16.25 8.976,0.015 16.234,7.273 16.25,16.25 h -5"
         style="fill:#231f20;fill-opacity:1;fill-rule:nonzero;stroke:none"
         transform="matrix(0.13333333,0,0,-0.13333333,0,103.01333)" />
      <path
         id="path36"
         d="m 481.609,428.617 c -24.961,21.547 -40.754,53.383 -40.754,88.942 0,7.293 0.668,14.433 1.942,21.359 l -4.918,0.902 c -1.328,-7.218 -2.024,-14.664 -2.024,-22.261 -0.003,-37.059 16.473,-70.282 42.489,-92.727 l 3.265,3.785"
         style="fill:#231f20;fill-opacity:1;fill-rule:nonzero;stroke:none"
         transform="matrix(0.13333333,0,0,-0.13333333,0,103.01333)" />
      <path
         id="path37"
         d="m 1376.55,483.703 0.46,-2.461 151.15,28.133 c 1.18,0.219 2.04,1.246 2.04,2.457 l 0.08,258.266 -0.91,1.929 -2.07,0.524 -151.24,-29.774 c -1.17,-0.23 -2.01,-1.261 -2.01,-2.453 V 483.703 l 0.9,-1.926 2.06,-0.535 -0.46,2.461 h 2.5 v 254.563 l 146.23,28.793 -0.08,-253.149 -149.11,-27.75 0.46,-2.457 h 2.5 -2.5"
         style="fill:#231f20;fill-opacity:1;fill-rule:nonzero;stroke:none"
         transform="matrix(0.13333333,0,0,-0.13333333,0,103.01333)" />
      <path
         id="path38"
         d="m 1743.46,492.289 0.23,2.492 -213.49,19.332 0.08,253.242 210.68,-19.449 V 492.289 h 2.5 l 0.23,2.492 -0.23,-2.492 h 2.5 v 257.899 c 0,1.289 -0.98,2.371 -2.27,2.488 l -215.68,19.91 -1.92,-0.641 -0.81,-1.847 -0.08,-258.266 c 0,-1.289 0.99,-2.375 2.27,-2.492 l 215.77,-19.539 1.91,0.644 0.81,1.844 h -2.5"
         style="fill:#231f20;fill-opacity:1;fill-rule:nonzero;stroke:none"
         transform="matrix(0.13333333,0,0,-0.13333333,0,103.01333)" />
      <path
         id="path39"
         d="m 1525.27,729.5 -131.07,11.75 47.62,9.375 83.46,16.434 -0.01,-37.559"
         style="fill:#ebeaeb;fill-opacity:1;fill-rule:nonzero;stroke:none"
         transform="matrix(0.13333333,0,0,-0.13333333,0,103.01333)" />
      <path
         id="path40"
         d="m 1525.27,729.5 v 0 l 0.01,37.559 v 0 l -0.01,-37.559 m -131.07,11.75 v 0 l 47.62,9.375 -47.62,-9.375"
         style="fill:#848182;fill-opacity:1;fill-rule:nonzero;stroke:none"
         transform="matrix(0.13333333,0,0,-0.13333333,0,103.01333)" />
      <path
         id="path41"
         d="m 1591.54,723.559 -61.27,5.492 0.01,38.304 118.24,-10.914 77.16,-7.125 -134.14,-25.757"
         style="fill:#ebeaeb;fill-opacity:1;fill-rule:nonzero;stroke:none"
         transform="matrix(0.13333333,0,0,-0.13333333,0,103.01333)" />
      <path
         id="path42"
         d="m 1530.27,729.051 v 0 l 0.01,38.304 v 0 l -0.01,-38.304"
         style="fill:#b4b3b3;fill-opacity:1;fill-rule:nonzero;stroke:none"
         transform="matrix(0.13333333,0,0,-0.13333333,0,103.01333)" />
      <path
         id="path43"
         d="m 1530.27,729.051 -5,0.449 0.01,37.559 2.63,0.515 2.37,-0.219 -0.01,-38.304 m 195.41,20.265 -77.16,7.125 77.16,-7.125"
         style="fill:#848182;fill-opacity:1;fill-rule:nonzero;stroke:none"
         transform="matrix(0.13333333,0,0,-0.13333333,0,103.01333)" />
      <path
         id="path44"
         d="m 1527.78,770.098 -0.48,2.453 -151.24,-29.774 c -1.22,-0.242 -2.07,-1.343 -2.01,-2.586 0.07,-1.242 1.03,-2.246 2.27,-2.359 l 215.12,-19.285 0.7,0.035 151.79,29.148 c 1.23,0.235 2.09,1.336 2.03,2.579 -0.06,1.242 -1.03,2.254 -2.27,2.367 l -215.68,19.91 -0.71,-0.035 0.48,-2.453 -0.23,-2.489 198.13,-18.293 -134.14,-25.757 -197.34,17.691 134.06,26.395 -0.48,2.453 -0.23,-2.489 0.23,2.489"
         style="fill:#231f20;fill-opacity:1;fill-rule:nonzero;stroke:none"
         transform="matrix(0.13333333,0,0,-0.13333333,0,103.01333)" />
      <path
         id="path45"
         d="m 1591.66,464.996 0.22,2.488 -196.83,17.118 132.77,24.707 196.96,-17.836 -133.56,-24.016 0.44,-2.461 0.22,2.488 -0.22,-2.488 0.45,-2.461 151.79,27.293 c 1.24,0.223 2.11,1.32 2.06,2.57 -0.06,1.254 -1.03,2.27 -2.27,2.383 l -215.76,19.539 -0.69,-0.031 -151.15,-28.129 c -1.23,-0.23 -2.1,-1.328 -2.04,-2.582 0.06,-1.25 1.03,-2.258 2.28,-2.367 l 215.12,-18.707 0.66,0.031 -0.45,2.461"
         style="fill:#231f20;fill-opacity:1;fill-rule:nonzero;stroke:none"
         transform="matrix(0.13333333,0,0,-0.13333333,0,103.01333)" />
      <path
         id="path46"
         d="M 1379.05,486.711 V 737.59 l 146.21,-13.11 -0.06,-210.57 -146.15,-27.199"
         style="fill:#ebeaeb;fill-opacity:1;fill-rule:nonzero;stroke:none"
         transform="matrix(0.13333333,0,0,-0.13333333,0,103.01333)" />
      <path
         id="path47"
         d="m 1525.2,513.91 0.06,210.57 v 0 l -0.06,-210.57 v 0"
         style="fill:#848182;fill-opacity:1;fill-rule:nonzero;stroke:none"
         transform="matrix(0.13333333,0,0,-0.13333333,0,103.01333)" />
      <path
         id="path48"
         d="m 1589.16,508.773 -58.96,5.34 0.06,209.918 58.9,-5.281 V 508.773"
         style="fill:#ebeaeb;fill-opacity:1;fill-rule:nonzero;stroke:none"
         transform="matrix(0.13333333,0,0,-0.13333333,0,103.01333)" />
      <path
         id="path49"
         d="m 1530.2,514.113 v 0 l 0.06,209.918 v 0 l -0.06,-209.918"
         style="fill:#b4b3b3;fill-opacity:1;fill-rule:nonzero;stroke:none"
         transform="matrix(0.13333333,0,0,-0.13333333,0,103.01333)" />
      <path
         id="path50"
         d="m 1525.2,513.91 0.06,210.57 5,-0.449 -0.06,-209.918 -2.27,0.207 -0.69,-0.031 -2.04,-0.379"
         style="fill:#848182;fill-opacity:1;fill-rule:nonzero;stroke:none"
         transform="matrix(0.13333333,0,0,-0.13333333,0,103.01333)" />
      <path
         id="path51"
         d="m 1589.16,467.723 -194.11,16.879 132.77,24.707 61.34,-5.555 v -36.031"
         style="fill:#ebeaeb;fill-opacity:1;fill-rule:nonzero;stroke:none"
         transform="matrix(0.13333333,0,0,-0.13333333,0,103.01333)" />
      <path
         id="path52"
         d="m 1589.16,503.754 -61.34,5.555 v 0 l 61.34,-5.555 v 0"
         style="fill:#b4b3b3;fill-opacity:1;fill-rule:nonzero;stroke:none"
         transform="matrix(0.13333333,0,0,-0.13333333,0,103.01333)" />
      <path
         id="path53"
         d="m 1589.16,467.723 -210.11,18.269 v 0.719 l 146.15,27.199 v 0 l 2.04,0.379 0.69,0.031 2.27,-0.207 v 0 l 58.96,-5.34 v -5.019 l -61.34,5.555 -132.77,-24.707 194.11,-16.879 v 0"
         style="fill:#848182;fill-opacity:1;fill-rule:nonzero;stroke:none"
         transform="matrix(0.13333333,0,0,-0.13333333,0,103.01333)" />
      <path
         id="path54"
         d="m 1376.55,740.324 h -2.5 V 483.703 c 0,-1.301 0.99,-2.379 2.28,-2.492 l 215.12,-18.707 1.9,0.648 0.82,1.844 v 256.039 c 0,1.297 -0.99,2.375 -2.28,2.492 l -215.12,19.286 -1.91,-0.645 -0.81,-1.844 h 2.5 l -0.23,-2.492 212.84,-19.082 V 467.723 l -210.11,18.269 v 254.332 h -2.5 l -0.23,-2.492 0.23,2.492"
         style="fill:#231f20;fill-opacity:1;fill-rule:nonzero;stroke:none"
         transform="matrix(0.13333333,0,0,-0.13333333,0,103.01333)" />
      <path
         id="path55"
         d="m 1740.96,495.027 -146.79,13.293 v 210.649 l 146.79,28.191 V 495.027"
         style="fill:#ebeaeb;fill-opacity:1;fill-rule:nonzero;stroke:none"
         transform="matrix(0.13333333,0,0,-0.13333333,0,103.01333)" />
      <path
         id="path56"
         d="m 1743.46,494.801 -2.5,0.226 V 747.16 l 2.5,0.481 v -252.84"
         style="fill:#848182;fill-opacity:1;fill-rule:nonzero;stroke:none"
         transform="matrix(0.13333333,0,0,-0.13333333,0,103.01333)" />
      <path
         id="path57"
         d="m 1594.17,718.969 v 2.066 c 0,0.16 -0.02,0.32 -0.05,0.473 l 149.34,28.68 v -2.547 l -2.5,-0.481 -146.79,-28.191"
         style="fill:#848182;fill-opacity:1;fill-rule:nonzero;stroke:none"
         transform="matrix(0.13333333,0,0,-0.13333333,0,103.01333)" />
      <path
         id="path58"
         d="m 1594.17,467.984 v 35.317 l 130.61,-11.828 -130.61,-23.489"
         style="fill:#ebeaeb;fill-opacity:1;fill-rule:nonzero;stroke:none"
         transform="matrix(0.13333333,0,0,-0.13333333,0,103.01333)" />
      <path
         id="path59"
         d="m 1724.78,491.473 -130.61,11.828 v 0 l 130.61,-11.828"
         style="fill:#b4b3b3;fill-opacity:1;fill-rule:nonzero;stroke:none"
         transform="matrix(0.13333333,0,0,-0.13333333,0,103.01333)" />
      <path
         id="path60"
         d="m 1594.17,465.445 v 2.539 l 130.61,23.489 -130.61,11.828 v 5.019 l 146.79,-13.293 2.5,-0.226 v -2.512 l -149.29,-26.844"
         style="fill:#848182;fill-opacity:1;fill-rule:nonzero;stroke:none"
         transform="matrix(0.13333333,0,0,-0.13333333,0,103.01333)" />
      <path
         id="path61"
         d="m 1591.66,464.996 v 256.039 l 2.46,0.473 c 0.03,-0.153 0.05,-0.313 0.05,-0.473 v -2.066 -210.649 -5.019 0 -35.317 -2.539 l -2.51,-0.449"
         style="fill:#848182;fill-opacity:1;fill-rule:nonzero;stroke:none"
         transform="matrix(0.13333333,0,0,-0.13333333,0,103.01333)" />
      <path
         id="path62"
         d="m 1743.46,492.289 -0.44,2.461 -148.86,-26.766 v 250.985 l 146.8,28.191 V 492.289 h 2.5 l -0.44,2.461 0.44,-2.461 h 2.5 v 257.899 l -0.91,1.925 -2.06,0.528 -151.8,-29.149 c -1.17,-0.226 -2.03,-1.258 -2.03,-2.457 V 464.996 l 0.9,-1.918 2.05,-0.543 151.79,27.293 c 1.19,0.215 2.06,1.254 2.06,2.461 h -2.5"
         style="fill:#231f20;fill-opacity:1;fill-rule:nonzero;stroke:none"
         transform="matrix(0.13333333,0,0,-0.13333333,0,103.01333)" />
      <path
         id="path63"
         d="m 1155.13,147.238 c 0,-6.207 -5.04,-11.25 -11.25,-11.25 -6.22,0 -11.25,5.043 -11.25,11.25 0,6.215 5.03,11.25 11.25,11.25 6.21,0 11.25,-5.035 11.25,-11.25"
         style="fill:#231f20;fill-opacity:1;fill-rule:nonzero;stroke:none"
         transform="matrix(0.13333333,0,0,-0.13333333,0,103.01333)" />
      <path
         id="path64"
         d="m 1155.13,147.238 h -5 c 0,-3.441 -2.81,-6.246 -6.25,-6.25 -3.45,0.004 -6.24,2.805 -6.25,6.25 0,3.457 2.79,6.242 6.25,6.25 3.45,-0.008 6.25,-2.8 6.25,-6.25 h 5 5 c 0,8.981 -7.28,16.246 -16.25,16.25 -8.98,-0.004 -16.23,-7.277 -16.25,-16.25 0,-8.968 7.26,-16.25 16.25,-16.25 8.98,0.004 16.25,7.278 16.25,16.25 h -5"
         style="fill:#231f20;fill-opacity:1;fill-rule:nonzero;stroke:none"
         transform="matrix(0.13333333,0,0,-0.13333333,0,103.01333)" />
      <path
         id="path65"
         d="m 1572.17,602.484 c 0,-6.214 -5.03,-11.25 -11.25,-11.25 -6.21,0 -11.25,5.036 -11.25,11.25 0,6.219 5.04,11.25 11.25,11.25 6.22,0 11.25,-5.031 11.25,-11.25"
         style="fill:#231f20;fill-opacity:1;fill-rule:nonzero;stroke:none"
         transform="matrix(0.13333333,0,0,-0.13333333,0,103.01333)" />
      <path
         id="path66"
         d="m 1572.17,602.484 h -5 c 0,-3.457 -2.79,-6.242 -6.25,-6.25 -3.45,0.008 -6.24,2.801 -6.25,6.25 0.01,3.454 2.8,6.246 6.25,6.25 3.46,-0.004 6.25,-2.793 6.25,-6.25 h 5 5 c -0.01,8.977 -7.27,16.25 -16.25,16.25 -8.97,0 -16.24,-7.269 -16.25,-16.25 0.01,-8.976 7.28,-16.246 16.25,-16.25 8.98,0 16.24,7.278 16.25,16.25 h -5"
         style="fill:#231f20;fill-opacity:1;fill-rule:nonzero;stroke:none"
         transform="matrix(0.13333333,0,0,-0.13333333,0,103.01333)" />
      <path
         id="path67"
         d="m 1558.16,605.02 -403.42,-440.383 225.3,574.316 -6.98,2.738 -232.67,-593.086 c -0.66,-1.683 -0.03,-3.589 1.51,-4.55 1.53,-0.957 3.52,-0.688 4.75,0.648 l 417.04,455.25 -5.53,5.067"
         style="fill:#231f20;fill-opacity:1;fill-rule:nonzero;stroke:none"
         transform="matrix(0.13333333,0,0,-0.13333333,0,103.01333)" />
      <path
         id="path68"
         d="m 1387.8,740.324 c 0,-6.219 -5.04,-11.25 -11.25,-11.25 -6.21,0 -11.25,5.031 -11.25,11.25 0,6.211 5.04,11.25 11.25,11.25 6.21,0 11.25,-5.039 11.25,-11.25"
         style="fill:#231f20;fill-opacity:1;fill-rule:nonzero;stroke:none"
         transform="matrix(0.13333333,0,0,-0.13333333,0,103.01333)" />
      <path
         id="path69"
         d="m 1387.8,740.324 h -5 c -0.01,-3.453 -2.8,-6.246 -6.25,-6.25 -3.45,0.004 -6.25,2.797 -6.25,6.25 0,3.446 2.8,6.242 6.25,6.25 3.44,-0.008 6.24,-2.804 6.25,-6.25 h 5 5 c -0.01,8.973 -7.28,16.242 -16.25,16.25 -8.98,-0.008 -16.25,-7.277 -16.25,-16.25 0,-8.98 7.27,-16.25 16.25,-16.25 8.97,0 16.24,7.27 16.25,16.25 h -5"
         style="fill:#231f20;fill-opacity:1;fill-rule:nonzero;stroke:none"
         transform="matrix(0.13333333,0,0,-0.13333333,0,103.01333)" />
      <path
         id="path70"
         d="m 1352.36,373.781 c -27.77,25.571 -60.26,46.102 -96.01,60.137 l -1.83,-4.652 c 35.17,-13.805 67.13,-34.004 94.46,-59.161 l 3.38,3.676"
         style="fill:#231f20;fill-opacity:1;fill-rule:nonzero;stroke:none"
         transform="matrix(0.13333333,0,0,-0.13333333,0,103.01333)" />
      <path
         id="path71"
         d="m 1684,715.895 2.24,-8.688 3.99,8.031 0.38,-8.957 5.59,7.02 -1.49,-8.848 6.92,5.715 -3.3,-8.352 7.95,4.153 -4.95,-7.481 8.65,2.41 -6.41,-6.289 8.95,0.559 -7.56,-4.816 8.87,-1.317 -8.41,-3.137 8.41,-3.14 -8.87,-1.32 7.56,-4.817 -8.95,0.559 6.41,-6.282 -8.65,2.403 4.95,-7.481 -7.95,4.153 3.3,-8.348 -6.92,5.715 1.49,-8.852 -5.59,7.024 -0.38,-8.957 -3.99,8.031 -2.24,-8.691 -2.25,8.691 -3.99,-8.031 -0.39,8.957 -5.59,-7.024 1.5,8.852 -6.92,-5.715 3.29,8.348 -7.95,-4.153 4.96,7.481 -8.65,-2.403 6.41,6.282 -8.96,-0.559 7.57,4.817 -8.86,1.32 8.39,3.14 -8.39,3.137 8.86,1.317 -7.57,4.816 8.96,-0.559 -6.41,6.289 8.65,-2.41 -4.96,7.481 7.95,-4.153 -3.29,8.352 6.92,-5.715 -1.5,8.848 5.59,-7.02 0.39,8.957 3.99,-8.031 2.25,8.688"
         style="fill:#fddd1b;fill-opacity:1;fill-rule:nonzero;stroke:none"
         transform="matrix(0.13333333,0,0,-0.13333333,0,103.01333)" />
      <path
         id="path72"
         d="m 1684,715.895 -1.7,-0.438 2.24,-8.687 1.17,-4.547 3.06,6.152 0.09,-2.168 0.2,-4.687 4.29,5.394 -0.36,-2.172 -0.78,-4.625 5.29,4.371 -0.8,-2.027 -1.73,-4.367 6.11,3.187 -1.21,-1.828 -2.59,-3.914 6.62,1.848 -1.56,-1.528 -3.34,-3.285 6.86,0.426 -1.84,-1.172 -3.96,-2.519 6.8,-1.008 -2.05,-0.762 -4.39,-1.641 6.45,-2.406 -2.17,-0.324 -4.64,-0.691 5.8,-3.688 -2.18,0.137 -4.69,0.289 4.91,-4.813 -2.1,0.586 -4.51,1.254 3.79,-5.734 -1.95,1.015 -4.16,2.172 2.53,-6.386 -1.67,1.379 -3.62,2.988 1.14,-6.797 -1.37,1.723 -2.92,3.671 -0.29,-6.855 -0.97,1.945 -2.09,4.207 -1.71,-6.668 -0.55,2.121 -1.18,4.54 -3.06,-6.157 -0.09,2.184 -0.21,4.68 -4.27,-5.379 0.36,2.156 0.78,4.637 -5.3,-4.383 0.8,2.027 1.72,4.367 -6.09,-3.183 1.2,1.824 2.59,3.906 -6.61,-1.836 1.55,1.524 3.36,3.285 -6.87,-0.426 1.84,1.172 3.96,2.516 -6.81,1.015 2.06,0.766 4.38,1.64 -6.43,2.403 2.16,0.32 4.64,0.692 -5.8,3.687 2.18,-0.137 4.68,-0.293 -4.9,4.817 2.09,-0.586 4.52,-1.262 -3.79,5.738 1.93,-1.011 4.16,-2.172 -2.52,6.402 1.68,-1.391 3.62,-2.996 -1.14,6.793 1.36,-1.711 2.91,-3.664 0.3,6.86 0.98,-1.957 2.08,-4.2 3.42,13.227 -1.69,0.438 -1.7,-0.438 1.7,0.438 -1.7,0.437 -1.07,-4.148 -1.9,3.836 -3.02,6.07 -0.49,-11.059 -2.67,3.36 -4.22,5.308 1.84,-10.902 -3.29,2.719 -5.23,4.32 4.06,-10.297 -3.8,1.981 -6.01,3.136 6.11,-9.222 -4.13,1.152 -6.54,1.824 7.9,-7.762 -4.27,0.266 -6.77,0.418 9.33,-5.937 -4.22,-0.629 -6.71,-1 10.36,-3.868 -4.01,-1.5 -6.34,-2.371 10.93,-1.629 -3.62,-2.3 -5.72,-3.645 11.04,0.688 -3.05,-2.993 -4.85,-4.753 10.67,2.964 -2.37,-3.574 -3.74,-5.656 9.8,5.121 -1.57,-3.98 -2.49,-6.317 8.53,7.047 -0.71,-4.223 -1.13,-6.691 6.89,8.672 0.19,-4.281 0.3,-6.778 4.92,9.906 1.07,-4.148 1.7,-6.574 2.76,10.719 1.9,-3.829 3.03,-6.085 0.47,11.066 2.67,-3.356 4.21,-5.304 -1.83,10.91 3.3,-2.727 5.25,-4.332 -4.08,10.305 3.8,-1.98 6,-3.133 -6.1,9.222 4.13,-1.144 6.54,-1.82 -7.9,7.746 4.27,-0.266 6.77,-0.422 -9.34,5.942 4.24,0.632 6.71,1 -10.37,3.871 4.01,1.497 6.37,2.371 -10.96,1.629 3.61,2.296 5.73,3.645 -11.05,-0.688 3.06,3 4.85,4.766 -10.67,-2.98 2.36,3.566 3.74,5.652 -9.8,-5.113 1.57,3.984 2.5,6.325 -8.54,-7.055 0.71,4.219 1.12,6.679 -6.88,-8.652 -0.18,4.274 -0.29,6.792 -4.93,-9.914 -1.07,4.141 -1.69,6.566 -1.7,-6.566 1.7,-0.437"
         style="fill:#231f20;fill-opacity:1;fill-rule:nonzero;stroke:none"
         transform="matrix(0.13333333,0,0,-0.13333333,0,103.01333)" />
      <path
         id="path73"
         d="m 743.738,688.223 3.356,-13.032 5.996,12.051 0.57,-13.441 8.371,10.535 -2.222,-13.277 10.379,8.57 -4.954,-12.52 11.938,6.227 -7.438,-11.223 12.969,3.614 -9.605,-9.426 13.433,0.828 -11.355,-7.219 13.308,-1.98 -12.605,-4.703 12.605,-4.707 -13.308,-1.981 11.355,-7.223 -13.433,0.836 9.605,-9.425 -12.969,3.609 7.438,-11.219 -11.938,6.219 4.954,-12.516 -10.379,8.571 2.222,-13.278 -8.371,10.539 -0.57,-13.441 -5.996,12.051 -3.356,-13.039 -3.367,13.039 -5.992,-12.051 -0.578,13.441 -8.375,-10.539 2.234,13.278 -10.375,-8.571 4.942,12.516 -11.93,-6.219 7.43,11.219 -12.961,-3.609 9.609,9.425 -13.437,-0.836 11.359,7.223 -13.313,1.981 12.602,4.707 -12.602,4.703 13.313,1.98 -11.359,7.219 13.437,-0.828 -9.609,9.426 12.961,-3.614 -7.43,11.223 11.93,-6.227 -4.942,12.52 10.375,-8.57 -2.234,13.277 8.375,-10.535 0.578,13.441 5.992,-12.051 3.367,13.032"
         style="fill:#fddd1b;fill-opacity:1;fill-rule:nonzero;stroke:none"
         transform="matrix(0.13333333,0,0,-0.13333333,0,103.01333)" />
      <path
         id="path74"
         d="m 743.738,688.223 -1.691,-0.438 4.523,-17.578 5.063,10.172 0.281,-6.652 0.199,-4.692 7.075,8.906 -1.106,-6.593 -0.773,-4.621 8.75,7.222 -2.454,-6.195 -1.726,-4.367 10.086,5.261 -3.688,-5.566 -2.593,-3.914 10.945,3.051 -4.758,-4.672 -3.348,-3.285 11.34,0.703 -5.625,-3.574 -3.961,-2.516 11.239,-1.676 -6.25,-2.332 -4.391,-1.637 10.648,-3.976 -6.605,-0.984 -4.641,-0.692 9.586,-6.094 -6.66,0.414 -4.683,0.29 8.109,-7.954 -6.426,1.789 -4.515,1.258 6.281,-9.48 -5.926,3.086 -4.164,2.172 4.176,-10.555 -5.129,4.234 -3.617,2.989 1.879,-11.215 -4.157,5.226 -2.918,3.68 -0.48,-11.348 -2.973,5.969 -2.09,4.203 -2.836,-11.012 -1.668,6.469 -1.175,4.539 -5.055,-10.172 -0.289,6.661 -0.203,4.683 -7.067,-8.89 1.11,6.582 0.781,4.628 -8.762,-7.234 2.449,6.199 1.723,4.364 -10.082,-5.258 3.688,5.57 2.586,3.91 -10.926,-3.043 4.758,4.664 3.351,3.289 -11.344,-0.707 5.625,3.579 3.957,2.515 -11.246,1.676 6.254,2.336 4.391,1.64 -10.641,3.969 6.606,0.985 4.64,0.691 -9.586,6.09 6.657,-0.41 4.683,-0.293 -8.105,7.957 6.41,-1.789 4.519,-1.262 -6.273,9.477 5.918,-3.086 4.16,-2.172 -4.172,10.57 5.141,-4.246 3.621,-2.988 -1.891,11.211 4.153,-5.223 2.914,-3.668 0.492,11.34 2.969,-5.973 2.086,-4.195 4.543,17.57 -1.696,0.438 -1.691,-0.438 1.691,0.438 -1.691,0.437 -2.195,-8.492 -3.907,7.852 -3.019,6.078 -0.672,-15.539 -5.457,6.867 -4.227,5.312 2.586,-15.34 -6.758,5.582 -5.234,4.321 5.711,-14.469 -7.77,4.055 -6.007,3.136 8.578,-12.964 -8.442,2.355 -6.546,1.824 11.113,-10.902 -8.754,0.539 -6.781,0.422 13.129,-8.344 -8.668,-1.293 -6.707,-1 14.562,-5.433 -8.211,-3.067 -6.348,-2.371 15.375,-2.289 -7.398,-4.707 -5.734,-3.645 15.531,0.965 -6.258,-6.136 -4.851,-4.758 14.992,4.176 -4.84,-7.313 -3.742,-5.652 13.777,7.183 -3.219,-8.148 -2.492,-6.317 11.992,9.903 -1.457,-8.645 -1.129,-6.695 9.684,12.184 0.379,-8.762 0.293,-6.781 6.926,13.929 2.195,-8.496 1.695,-6.57 3.875,15.062 3.906,-7.847 3.028,-6.082 0.66,15.539 5.449,-6.86 4.215,-5.308 -2.566,15.34 6.761,-5.586 5.246,-4.332 -5.726,14.472 7.773,-4.05 6.016,-3.133 -8.594,12.965 8.449,-2.352 6.547,-1.82 -11.109,10.89 8.754,-0.543 6.777,-0.422 -13.129,8.352 8.668,1.289 6.707,1 -14.566,5.438 8.215,3.062 6.359,2.371 -15.383,2.293 7.399,4.699 5.73,3.645 -15.535,-0.961 6.262,6.144 4.851,4.758 -14.992,-4.179 4.844,7.308 3.746,5.656 -13.789,-7.191 3.223,8.152 2.5,6.325 -12.004,-9.914 1.449,8.652 1.117,6.683 -9.664,-12.167 -0.371,8.753 -0.289,6.789 -6.934,-13.933 -2.183,8.488 -1.692,6.57 -1.695,-6.57 1.691,-0.437"
         style="fill:#231f20;fill-opacity:1;fill-rule:nonzero;stroke:none"
         transform="matrix(0.13333333,0,0,-0.13333333,0,103.01333)" />
      <path
         id="path75"
         d="m 1436.41,724.887 3.35,-13.032 6,12.051 0.57,-13.441 8.36,10.535 -2.21,-13.273 10.38,8.566 -4.96,-12.52 11.94,6.227 -7.43,-11.219 12.97,3.614 -9.61,-9.43 13.43,0.828 -11.36,-7.215 13.32,-1.984 -12.62,-4.699 12.62,-4.707 -13.32,-1.985 11.36,-7.223 -13.43,0.836 9.61,-9.421 -12.97,3.605 7.43,-11.219 -11.94,6.219 4.96,-12.512 -10.38,8.567 2.21,-13.274 -8.36,10.535 -0.57,-13.441 -6,12.051 -3.35,-13.039 -3.38,13.039 -5.98,-12.051 -0.58,13.441 -8.38,-10.535 2.24,13.274 -10.38,-8.567 4.94,12.512 -11.93,-6.219 7.44,11.219 -12.97,-3.605 9.61,9.421 -13.44,-0.836 11.37,7.223 -13.32,1.985 12.6,4.707 -12.6,4.699 13.32,1.984 -11.37,7.215 13.44,-0.828 -9.61,9.43 12.97,-3.614 -7.44,11.219 11.93,-6.227 -4.94,12.52 10.38,-8.566 -2.24,13.273 8.38,-10.535 0.58,13.441 5.98,-12.051 3.38,13.032"
         style="fill:#fddd1b;fill-opacity:1;fill-rule:nonzero;stroke:none"
         transform="matrix(0.13333333,0,0,-0.13333333,0,103.01333)" />
      <path
         id="path76"
         d="m 1436.41,724.887 -1.69,-0.434 4.51,-17.582 5.07,10.18 0.28,-6.66 0.21,-4.692 7.06,8.903 -1.1,-6.59 -0.77,-4.617 8.74,7.218 -2.45,-6.195 -1.73,-4.367 10.1,5.265 -3.69,-5.57 -2.59,-3.91 10.94,3.047 -4.76,-4.668 -3.35,-3.285 11.34,0.699 -5.63,-3.574 -3.97,-2.516 11.25,-1.676 -6.25,-2.332 -4.4,-1.636 10.66,-3.977 -6.61,-0.984 -4.64,-0.692 9.59,-6.094 -6.65,0.415 -4.69,0.292 8.11,-7.957 -6.42,1.79 -4.52,1.257 6.28,-9.484 -5.94,3.094 -4.16,2.168 4.18,-10.551 -5.13,4.234 -3.61,2.981 1.87,-11.207 -4.15,5.222 -2.91,3.68 -0.49,-11.352 -2.97,5.973 -2.1,4.207 -2.83,-11.019 -1.67,6.472 -1.18,4.539 -5.05,-10.16 -0.28,6.649 -0.2,4.683 -7.08,-8.894 1.11,6.586 0.78,4.629 -8.76,-7.239 2.45,6.203 1.72,4.364 -10.07,-5.254 3.68,5.566 2.59,3.91 -10.94,-3.047 4.76,4.668 3.35,3.289 -11.34,-0.707 5.63,3.579 3.97,2.515 -11.26,1.676 6.25,2.336 4.4,1.641 -10.64,3.968 6.6,0.985 4.65,0.691 -9.6,6.09 6.66,-0.41 4.68,-0.289 -8.11,7.953 6.43,-1.789 4.51,-1.258 -6.27,9.473 5.91,-3.086 4.16,-2.172 -4.18,10.574 5.15,-4.25 3.62,-2.988 -1.89,11.215 4.16,-5.227 2.92,-3.668 0.48,11.332 2.96,-5.961 2.09,-4.199 4.56,17.57 -1.7,0.438 -1.69,-0.434 1.69,0.434 -1.69,0.441 -2.21,-8.496 -3.9,7.852 -3.02,6.089 -0.67,-15.55 -5.46,6.867 -4.22,5.308 2.58,-15.335 -6.76,5.582 -5.23,4.32 5.71,-14.465 -7.77,4.051 -6.01,3.14 8.59,-12.968 -8.45,2.355 -6.55,1.824 11.11,-10.902 -8.75,0.543 -6.79,0.418 13.14,-8.344 -8.67,-1.293 -6.71,-0.996 14.57,-5.437 -8.22,-3.067 -6.35,-2.371 15.39,-2.289 -7.41,-4.703 -5.74,-3.648 15.54,0.964 -6.26,-6.136 -4.85,-4.754 15,4.172 -4.85,-7.313 -3.74,-5.652 13.78,7.183 -3.22,-8.148 -2.49,-6.313 11.99,9.903 -1.45,-8.649 -1.13,-6.687 9.68,12.176 0.38,-8.758 0.29,-6.793 6.92,13.941 2.21,-8.5 1.7,-6.566 3.87,15.058 3.9,-7.847 3.02,-6.078 0.67,15.535 5.44,-6.86 4.21,-5.308 -2.56,15.344 6.77,-5.59 5.25,-4.336 -5.74,14.476 7.78,-4.047 6.01,-3.132 -8.58,12.961 8.45,-2.352 6.54,-1.82 -11.11,10.89 8.76,-0.543 6.78,-0.421 -13.14,8.351 8.67,1.289 6.72,1 -14.58,5.438 8.22,3.066 6.36,2.371 -15.39,2.289 7.4,4.699 5.74,3.645 -15.54,-0.961 6.26,6.145 4.85,4.757 -14.99,-4.175 4.84,7.308 3.74,5.653 -13.79,-7.188 3.23,8.148 2.51,6.329 -12.02,-9.922 1.45,8.66 1.11,6.687 -9.65,-12.172 -0.37,8.75 -0.3,6.782 -6.92,-13.922 -2.18,8.484 -1.69,6.567 -1.7,-6.563 1.69,-0.441"
         style="fill:#231f20;fill-opacity:1;fill-rule:nonzero;stroke:none"
         transform="matrix(0.13333333,0,0,-0.13333333,0,103.01333)" />
      <path
         id="path77"
         d="m 1646.03,585.977 3.35,-13.032 6,12.051 0.57,-13.441 8.36,10.535 -2.22,-13.277 10.39,8.57 -4.97,-12.52 11.95,6.227 -7.43,-11.223 12.97,3.613 -9.61,-9.425 13.43,0.828 -11.36,-7.215 13.32,-1.984 -12.62,-4.704 12.62,-4.707 -13.32,-1.98 11.36,-7.223 -13.43,0.836 9.61,-9.426 -12.97,3.61 7.43,-11.223 -11.95,6.223 4.97,-12.516 -10.39,8.571 2.22,-13.278 -8.36,10.539 -0.57,-13.441 -6,12.051 -3.35,-13.039 -3.38,13.039 -5.98,-12.051 -0.58,13.441 -8.38,-10.539 2.24,13.278 -10.38,-8.571 4.94,12.516 -11.93,-6.223 7.43,11.223 -12.96,-3.61 9.61,9.426 -13.44,-0.836 11.36,7.223 -13.32,1.98 12.61,4.707 -12.61,4.704 13.32,1.984 -11.36,7.215 13.44,-0.828 -9.61,9.425 12.96,-3.613 -7.43,11.223 11.93,-6.227 -4.94,12.52 10.38,-8.57 -2.24,13.277 8.38,-10.535 0.58,13.441 5.98,-12.051 3.38,13.032"
         style="fill:#fddd1b;fill-opacity:1;fill-rule:nonzero;stroke:none"
         transform="matrix(0.13333333,0,0,-0.13333333,0,103.01333)" />
      <path
         id="path78"
         d="m 1646.03,585.977 -1.69,-0.434 4.51,-17.582 5.07,10.176 0.28,-6.66 0.2,-4.692 7.07,8.906 -1.1,-6.589 -0.77,-4.618 8.74,7.219 -2.45,-6.195 -1.73,-4.367 10.1,5.261 -3.69,-5.566 -2.59,-3.91 10.94,3.047 -4.76,-4.672 -3.35,-3.285 11.34,0.703 -5.63,-3.574 -3.97,-2.516 11.25,-1.676 -6.25,-2.332 -4.4,-1.637 10.66,-3.976 -6.61,-0.985 -4.64,-0.691 9.59,-6.094 -6.66,0.414 -4.68,0.289 8.11,-7.953 -6.42,1.789 -4.52,1.254 6.28,-9.48 -5.94,3.09 -4.16,2.172 4.18,-10.555 -5.13,4.234 -3.61,2.985 1.87,-11.207 -4.15,5.222 -2.92,3.68 -0.48,-11.352 -2.97,5.973 -2.1,4.207 -2.83,-11.02 -1.67,6.473 -1.18,4.535 -5.05,-10.156 -0.28,6.648 -0.2,4.684 -7.08,-8.894 1.11,6.585 0.78,4.629 -8.76,-7.238 2.44,6.199 1.73,4.368 -10.07,-5.254 3.68,5.566 2.59,3.906 -10.94,-3.043 4.76,4.668 3.35,3.289 -11.34,-0.707 5.63,3.578 3.97,2.516 -11.26,1.676 6.25,2.336 4.4,1.64 -10.65,3.969 6.61,0.981 4.65,0.695 -9.6,6.09 6.66,-0.414 4.68,-0.289 -8.11,7.957 6.42,-1.789 4.52,-1.262 -6.27,9.473 5.91,-3.082 4.16,-2.172 -4.18,10.574 5.15,-4.25 3.62,-2.988 -1.89,11.214 4.16,-5.226 2.92,-3.668 0.48,11.332 2.96,-5.961 2.09,-4.199 4.55,17.57 -1.69,0.438 -1.69,-0.434 1.69,0.434 -1.69,0.441 -2.21,-8.496 -3.9,7.851 -3.02,6.09 -0.67,-15.55 -5.46,6.867 -4.22,5.308 2.58,-15.336 -6.76,5.582 -5.23,4.321 5.71,-14.465 -7.77,4.051 -6.01,3.14 8.59,-12.968 -8.45,2.355 -6.55,1.824 11.11,-10.902 -8.75,0.539 -6.79,0.422 13.14,-8.344 -8.67,-1.293 -6.71,-0.996 14.57,-5.438 -8.22,-3.066 -6.35,-2.371 15.38,-2.289 -7.4,-4.707 -5.74,-3.645 15.54,0.965 -6.26,-6.137 -4.85,-4.753 15,4.171 -4.85,-7.312 -3.74,-5.652 13.78,7.183 -3.22,-8.148 -2.5,-6.317 12,9.907 -1.46,-8.649 -1.12,-6.691 9.68,12.179 0.38,-8.761 0.29,-6.789 6.92,13.941 2.21,-8.5 1.7,-6.566 3.87,15.054 3.9,-7.843 3.02,-6.079 0.67,15.536 5.44,-6.86 4.21,-5.312 -2.56,15.344 6.77,-5.586 5.25,-4.336 -5.74,14.476 7.78,-4.051 6.01,-3.128 -8.59,12.96 8.46,-2.351 6.54,-1.824 -11.11,10.894 8.75,-0.543 6.79,-0.422 -13.14,8.352 8.67,1.289 6.72,1 -14.58,5.437 8.22,3.063 6.36,2.371 -15.39,2.293 7.4,4.699 5.74,3.645 -15.54,-0.961 6.26,6.144 4.85,4.758 -14.99,-4.179 4.84,7.312 3.74,5.648 -13.79,-7.183 3.23,8.148 2.51,6.328 -12.02,-9.921 1.45,8.656 1.11,6.687 -9.65,-12.168 -0.38,8.75 -0.29,6.782 -6.92,-13.922 -2.18,8.484 -1.69,6.563 -1.7,-6.559 1.69,-0.441"
         style="fill:#231f20;fill-opacity:1;fill-rule:nonzero;stroke:none"
         transform="matrix(0.13333333,0,0,-0.13333333,0,103.01333)" />
      <path
         id="path79"
         d="m 370.68,698.57 4.472,-17.379 7.996,16.071 0.762,-17.926 11.156,14.047 -2.961,-17.699 13.833,11.429 -6.598,-16.691 15.918,8.301 -9.914,-14.961 17.293,4.812 -12.813,-12.566 17.91,1.105 -15.14,-9.629 17.75,-2.64 -16.813,-6.27 16.813,-6.273 -17.75,-2.641 15.14,-9.629 -17.91,1.114 12.813,-12.571 -17.293,4.809 9.914,-14.961 -15.918,8.301 6.598,-16.688 -13.833,11.426 2.961,-17.699 -11.156,14.047 -0.762,-17.926 -7.996,16.07 -4.472,-17.383 -4.492,17.383 -7.989,-16.07 -0.773,17.926 -11.164,-14.047 2.98,17.699 -13.836,-11.426 6.59,16.688 -15.906,-8.301 9.906,14.961 -17.285,-4.809 12.812,12.571 -17.914,-1.114 15.145,9.629 -17.746,2.641 16.801,6.273 -16.801,6.27 17.746,2.64 -15.145,9.629 17.914,-1.105 -12.812,12.566 17.285,-4.812 -9.906,14.961 15.906,-8.301 -6.59,16.691 13.836,-11.429 -2.98,17.699 11.164,-14.047 0.773,17.926 7.989,-16.071 4.492,17.379"
         style="fill:#fddd1b;fill-opacity:1;fill-rule:nonzero;stroke:none"
         transform="matrix(0.13333333,0,0,-0.13333333,0,103.01333)" />
      <path
         id="path80"
         d="m 370.68,698.57 -1.696,-0.437 5.645,-21.922 7.059,14.187 0.476,-11.136 0.199,-4.692 9.86,12.418 -1.844,-11.015 -0.774,-4.625 12.208,10.086 -5.825,-14.735 14.063,7.332 -8.758,-13.215 15.27,4.25 -11.313,-11.097 15.816,0.98 -13.371,-8.504 15.676,-2.332 -14.848,-5.539 14.852,-5.543 -11.039,-1.64 -4.641,-0.692 13.368,-8.5 -11.129,0.692 -4.688,0.289 11.32,-11.102 -15.273,4.25 8.758,-13.215 -14.063,7.332 5.825,-14.734 -12.208,10.086 2.618,-15.641 -9.86,12.414 -0.675,-15.828 -7.063,14.192 -3.949,-15.356 -3.969,15.352 -7.051,-14.188 -0.48,11.141 -0.203,4.683 -9.86,-12.406 1.856,11.008 0.781,4.633 -12.223,-10.094 5.821,14.738 -14.055,-7.332 8.75,13.215 -15.258,-4.246 11.317,11.098 -15.821,-0.981 13.371,8.5 -15.683,2.332 14.844,5.543 -14.84,5.539 11.039,1.641 4.64,0.691 -13.375,8.504 11.137,-0.687 4.684,-0.293 -11.313,11.097 15.262,-4.25 -8.754,13.215 14.055,-7.336 -5.821,14.746 12.223,-10.097 -2.637,15.636 9.86,-12.402 0.683,15.82 7.051,-14.183 5.664,21.918 -1.691,0.437 -1.696,-0.437 1.696,0.437 -1.696,0.438 -3.316,-12.836 -8.926,17.949 -0.863,-20.027 -12.473,15.691 3.332,-19.762 -15.457,12.766 7.364,-18.644 -17.758,9.265 11.058,-16.707 -19.308,5.383 14.312,-14.043 -20.011,1.238 16.917,-10.754 -19.816,-2.953 18.766,-7 -18.762,-7.008 19.812,-2.949 -16.917,-10.754 20.007,1.242 -14.308,-14.039 19.312,5.375 -11.062,-16.707 17.758,9.266 -7.364,-18.637 15.457,12.758 -3.332,-19.762 12.473,15.692 0.863,-20.028 8.926,17.95 5.016,-19.41 4.992,19.406 8.933,-17.946 0.852,20.02 12.453,-15.68 -3.309,19.762 15.458,-12.77 -7.368,18.649 17.774,-9.27 -11.078,16.707 19.32,-5.371 -14.309,14.035 20.004,-1.246 -16.918,10.758 19.821,2.949 -18.774,7.008 18.778,7 -19.825,2.953 16.914,10.754 -20.004,-1.238 14.313,14.039 -19.316,-5.379 11.074,16.707 -17.778,-9.269 7.372,18.652 -15.458,-12.773 3.309,19.761 -12.453,-15.679 -0.852,20.019 -8.933,-17.949 -4.992,19.406 -1.7,-6.57 1.696,-0.438"
         style="fill:#231f20;fill-opacity:1;fill-rule:nonzero;stroke:none"
         transform="matrix(0.13333333,0,0,-0.13333333,0,103.01333)" />
      <path
         id="path81"
         d="m 686.508,494.879 5.222,-20.274 9.329,18.747 0.89,-20.914 13.016,16.39 -3.461,-20.648 16.137,13.336 -7.692,-19.481 18.571,9.688 -11.571,-17.453 20.176,5.613 -14.945,-14.664 20.89,1.297 -17.66,-11.239 20.707,-3.078 -19.613,-7.316 19.613,-7.32 -20.707,-3.079 17.66,-11.238 -20.89,1.301 14.945,-14.664 -20.176,5.609 11.571,-17.449 -18.571,9.684 7.692,-19.473 -16.137,13.328 3.461,-20.648 -13.016,16.39 -0.89,-20.914 -9.329,18.746 -5.222,-20.277 -5.238,20.277 -9.321,-18.746 -0.898,20.914 -13.028,-16.39 3.481,20.648 -16.149,-13.328 7.692,19.473 -18.559,-9.684 11.563,17.449 -20.168,-5.609 14.941,14.664 -20.898,-1.301 17.672,11.238 -20.707,3.079 19.601,7.32 -19.601,7.316 20.707,3.078 -17.672,11.239 20.898,-1.297 -14.941,14.664 20.168,-5.613 -11.563,17.453 18.559,-9.688 -7.692,19.481 16.149,-13.336 -3.481,20.648 13.028,-16.39 0.898,20.914 9.321,-18.747 5.238,20.274"
         style="fill:#fddd1b;fill-opacity:1;fill-rule:nonzero;stroke:none"
         transform="matrix(0.13333333,0,0,-0.13333333,0,103.01333)" />
      <path
         id="path82"
         d="m 686.508,494.879 -1.695,-0.438 6.39,-24.816 8.395,16.863 0.8,-18.816 11.719,14.758 -3.113,-18.586 14.516,11.992 -6.918,-17.52 16.707,8.715 -10.411,-15.707 18.153,5.051 -13.449,-13.191 18.804,1.164 -15.89,-10.11 18.632,-2.773 -17.652,-6.582 17.652,-6.586 -18.632,-2.774 15.886,-10.109 -18.8,1.172 13.453,-13.199 -18.157,5.051 10.411,-15.704 -16.707,8.711 6.918,-17.515 -14.516,11.988 3.113,-18.586 -11.719,14.758 -0.8,-18.817 -8.395,16.864 -4.695,-18.25 -4.715,18.25 -8.387,-16.864 -0.808,18.813 -11.719,-14.75 3.133,18.586 -14.535,-11.996 6.921,17.519 -16.703,-8.711 10.403,15.704 -18.145,-5.051 13.445,13.199 -18.8,-1.172 15.898,10.109 -18.641,2.774 17.645,6.586 -17.641,6.582 18.637,2.773 -15.902,10.11 18.804,-1.164 -13.441,13.191 18.141,-5.051 -10.403,15.707 16.703,-8.718 -6.921,17.527 14.535,-12 -3.133,18.586 11.719,-14.75 0.808,18.812 8.383,-16.859 6.414,24.812 -1.695,0.438 -1.695,-0.438 1.695,0.438 -1.695,0.437 -4.067,-15.734 -10.254,20.629 -0.988,-23.016 -14.336,18.039 3.828,-22.714 -17.762,14.668 8.461,-21.426 -20.414,10.652 12.719,-19.203 -22.187,6.18 16.437,-16.133 -22.992,1.422 19.441,-12.36 -22.777,-3.39 21.566,-8.047 -21.562,-8.051 22.773,-3.391 -19.441,-12.363 22.992,1.43 -16.437,-16.129 22.187,6.172 -12.719,-19.199 20.414,10.652 -8.461,-21.422 17.766,14.66 -3.832,-22.715 14.336,18.039 0.988,-23.015 10.254,20.629 5.766,-22.309 5.742,22.305 10.266,-20.625 0.976,23.008 14.317,-18.028 -3.809,22.715 17.762,-14.668 -8.465,21.426 20.429,-10.652 -12.73,19.199 22.195,-6.172 -16.441,16.129 22.984,-1.43 -19.433,12.363 22.781,3.391 -21.574,8.051 21.578,8.047 -22.785,3.39 19.433,12.36 -22.984,-1.422 16.445,16.133 -22.199,-6.18 12.73,19.207 -20.429,-10.66 8.465,21.433 -17.762,-14.675 3.809,22.711 -14.317,-18.024 -0.976,23.008 -10.266,-20.625 -5.742,22.297 -1.699,-6.567 1.695,-0.437"
         style="fill:#231f20;fill-opacity:1;fill-rule:nonzero;stroke:none"
         transform="matrix(0.13333333,0,0,-0.13333333,0,103.01333)" />
      <g
         id="g82"
         aria-label="ω&#10;(a)(b)&#10;θ&#10;w&#10;θ&#10;b"
         transform="matrix(1.3333333,0,0,1.3333333,0,24.182133)">
        <path
           id="path83"
           d="m 4.359375,-3.8426547 c 0.2929687,0.2578125 0.5039062,0.7148438 0.5039062,1.3828125 -0.011719,1.0078125 -0.3984375,2.05078126 -1.1367187,2.05078126 -0.3046875,0 -0.515625,-0.3046875 -0.4921875,-0.87890626 0.023437,-0.46875 0.234375,-1.359375 0.3515625,-1.7226562 l -0.058594,-0.035156 -0.6679688,0.140625 c -0.035156,0.28125 -0.09375,0.75 -0.1875,1.1367188 -0.1992187,0.85546871 -0.5625,1.31249996 -0.9492188,1.31249996 -0.28125,0 -0.5390625,-0.33984375 -0.5390625,-0.99609376 0,-1.0078125 0.46875,-1.921875 1.1601563,-2.4492187 L 2.203125,-4.1004672 c -1.0429688,0.5390625 -1.7578125,1.5585938 -1.7578125,2.765625 0,0.93750001 0.421875,1.44140626 0.9375,1.44140626 0.3867187,0 0.9023438,-0.3984375 1.2304688,-0.890625 0.046875,0.50390625 0.328125,0.890625 0.7617187,0.890625 0.375,0 0.7382812,-0.22265625 1.0664062,-0.515625 C 5.0039062,-0.93640469 5.4375,-1.7098422 5.4375,-2.6239047 c 0,-0.9023437 -0.3984375,-1.4179687 -0.6914063,-1.4179687 -0.1523437,0 -0.3164062,0.070312 -0.375,0.1289062 z m 0,0"
           style="fill:#231f20;fill-opacity:1;fill-rule:nonzero;stroke:none" />
        <path
           id="path84"
           d="m 38.944336,57.206173 c -0.890625,-0.761718 -1.40625,-2.203125 -1.40625,-3.75 0,-1.546875 0.515625,-3 1.40625,-3.75 l -0.152344,-0.210937 c -1.324219,0.902344 -1.910156,2.332031 -1.910156,3.949219 0,1.628906 0.585937,3.082031 1.910156,3.960937 z m 4.321289,-1.675781 -0.09375,-0.234375 c -0.09375,0.05859 -0.222656,0.105469 -0.328125,0.105469 -0.152344,0 -0.316406,-0.140625 -0.316406,-0.550781 v -1.664063 c 0,-0.46875 -0.08203,-0.84375 -0.398438,-1.101562 -0.199219,-0.164063 -0.46875,-0.246094 -0.738281,-0.246094 C 40.875,51.944455 40.289062,52.296017 40.042969,52.471798 39.867187,52.600705 39.75,52.694455 39.75,52.83508 c 0,0.199218 0.234375,0.386718 0.398437,0.386718 0.128907,0 0.222657,-0.07031 0.257813,-0.210937 0.07031,-0.28125 0.152344,-0.480469 0.269531,-0.597656 0.09375,-0.105469 0.222656,-0.175782 0.410156,-0.175782 0.445313,0 0.75,0.363282 0.75,1.019532 v 0.164062 c -0.199218,0.152344 -0.855468,0.398438 -1.394531,0.574219 -0.492187,0.175781 -0.726562,0.457031 -0.726562,0.902344 0,0.5625 0.445312,1.089843 1.078125,1.089843 0.269531,0 0.703125,-0.328125 1.066406,-0.574218 0.04687,0.152343 0.09375,0.28125 0.210937,0.410156 0.105469,0.08203 0.292969,0.164062 0.421875,0.164062 z m -1.429688,-0.410156 c -0.164062,0.164062 -0.480468,0.316406 -0.714843,0.328125 -0.28125,0 -0.644532,-0.222656 -0.644532,-0.691406 0,-0.328125 0.199219,-0.492188 0.550782,-0.65625 0.1875,-0.09375 0.621093,-0.28125 0.808593,-0.375 z m 1.889649,-5.414063 c 0.890625,0.738282 1.417969,2.203125 1.417969,3.75 0,1.546875 -0.503907,2.988282 -1.417969,3.75 l 0.164062,0.199219 c 1.347657,-0.914062 1.898438,-2.332031 1.898438,-3.949219 0,-1.628906 -0.550781,-3.058593 -1.898438,-3.960937 z m 96.750004,7.5 c -0.89063,-0.761718 -1.40625,-2.203125 -1.40625,-3.75 0,-1.546875 0.51562,-3 1.40625,-3.75 l -0.15235,-0.210937 c -1.32422,0.902344 -1.91015,2.332031 -1.91015,3.949219 0,1.628906 0.58593,3.082031 1.91015,3.960937 z m 1.79003,-4.957031 v -2.777344 c -0.33984,0.117188 -0.89062,0.257813 -1.3125,0.316407 v 0.210937 c 0.58594,0.04687 0.59766,0.105469 0.59766,0.667969 v 5.003906 c 0.49219,0.234375 0.94922,0.316406 1.32422,0.316406 1.20703,0 2.26172,-0.9375 2.26172,-2.261718 0,-1.054688 -0.8086,-1.886719 -1.78125,-1.886719 -0.0937,0 -0.22266,0.02344 -0.36328,0.09375 z m 0,0.269531 c 0.16407,-0.105468 0.44532,-0.175781 0.70313,-0.175781 0.73828,0 1.37109,0.597656 1.37109,1.617188 0,1.054687 -0.48047,1.6875 -1.21875,1.6875 -0.48047,-0.01172 -0.75,-0.328125 -0.80859,-0.503907 -0.0352,-0.08203 -0.0469,-0.175781 -0.0469,-0.304687 z m 3.60938,-2.8125 c 0.89062,0.738282 1.41797,2.203125 1.41797,3.75 0,1.546875 -0.50391,2.988282 -1.41797,3.75 l 0.16406,0.199219 c 1.34766,-0.914062 1.89844,-2.332031 1.89844,-3.949219 0,-1.628906 -0.55078,-3.058593 -1.89844,-3.960937 z m 0,0"
           style="fill:#231f20;fill-opacity:1;fill-rule:nonzero;stroke:none" />
        <path
           id="path85"
           d="m 39.102539,9.5548062 c -1.59375,0 -2.613281,2.6718748 -2.613281,4.5585938 0,0.9375 0.257812,1.957031 1.265625,1.957031 1.617187,0 2.566406,-2.695312 2.566406,-4.617187 0,-0.972657 -0.257812,-1.8984378 -1.21875,-1.8984378 z M 37.40332,12.472775 c 0.269532,-1.347656 0.84375,-2.6132813 1.570313,-2.6132813 0.585937,0 0.644531,0.8906253 0.644531,1.3710933 0,0.410157 -0.05859,0.796875 -0.105469,1.242188 z m 2.039063,0.421875 c -0.246094,1.429687 -0.820313,2.859375 -1.570313,2.859375 -0.527343,0 -0.667968,-0.773438 -0.667968,-1.476563 0,-0.46875 0.05859,-0.925781 0.128906,-1.382812 z m 0,0"
           style="fill:#231f20;fill-opacity:1;fill-rule:nonzero;stroke:none" />
        <path
           id="path86"
           d="m 44.24707,15.338009 h -1.078125 v 0.152344 c 0.386719,0.05859 0.421875,0.09375 0.339844,0.398438 -0.105469,0.445312 -0.269531,0.972656 -0.398437,1.382812 h -0.01172 C 42.84082,16.627072 42.594727,15.994259 42.37207,15.373166 h -0.152343 c -0.257813,0.691406 -0.480469,1.300781 -0.703125,1.886718 h -0.01172 c -0.140625,-0.46875 -0.292969,-0.9375 -0.433594,-1.40625 -0.09375,-0.269531 -0.05859,-0.304687 0.304688,-0.363281 v -0.152344 h -1.242188 v 0.152344 c 0.28125,0.04687 0.339844,0.08203 0.445313,0.398438 0.246093,0.714843 0.46875,1.429687 0.691406,2.144531 h 0.175781 c 0.234375,-0.667969 0.480469,-1.265625 0.703125,-1.875 0.246094,0.632812 0.492188,1.21875 0.738281,1.875 h 0.164063 c 0.28125,-0.820313 0.539062,-1.617188 0.714844,-2.097656 0.128906,-0.328125 0.1875,-0.398438 0.480468,-0.445313 z m 0,0"
           style="fill:#231f20;fill-opacity:1;fill-rule:nonzero;stroke:none" />
        <path
           id="path87"
           d="m 131.5752,9.5548062 c -1.59375,0 -2.61329,2.6718748 -2.61329,4.5585938 0,0.9375 0.25782,1.957031 1.26563,1.957031 1.61719,0 2.56641,-2.695312 2.56641,-4.617187 0,-0.972657 -0.25782,-1.8984378 -1.21875,-1.8984378 z m -1.69922,2.9179688 c 0.26953,-1.347656 0.84375,-2.6132813 1.57031,-2.6132813 0.58594,0 0.64453,0.8906253 0.64453,1.3710933 0,0.410157 -0.0586,0.796875 -0.10547,1.242188 z m 2.03906,0.421875 c -0.24609,1.429687 -0.82031,2.859375 -1.57031,2.859375 -0.52735,0 -0.66797,-0.773438 -0.66797,-1.476563 0,-0.46875 0.0586,-0.925781 0.1289,-1.382812 z m 0,0"
           style="fill:#231f20;fill-opacity:1;fill-rule:nonzero;stroke:none" />
        <path
           id="path88"
           d="m 134.00098,15.537228 v -1.851562 c -0.22266,0.08203 -0.58594,0.175781 -0.86719,0.210937 v 0.140625 c 0.375,0.03516 0.38672,0.07031 0.38672,0.445313 v 3.339843 c 0.33984,0.152344 0.64453,0.210938 0.89062,0.210938 0.79688,0 1.5,-0.621094 1.5,-1.5 0,-0.714844 -0.53906,-1.265625 -1.18359,-1.265625 -0.0586,0 -0.15234,0.02344 -0.24609,0.05859 z m 0,0.1875 c 0.10547,-0.07031 0.29297,-0.117187 0.46875,-0.117187 0.49218,0 0.91406,0.398437 0.91406,1.078125 0,0.691406 -0.31641,1.125 -0.82031,1.125 -0.31641,-0.01172 -0.49219,-0.222657 -0.52735,-0.339844 -0.0234,-0.05859 -0.0352,-0.117188 -0.0352,-0.199219 z m 0,0"
           style="fill:#231f20;fill-opacity:1;fill-rule:nonzero;stroke:none" />
      </g>
    </g>
  </g>
</svg>
