<?xml version="1.0" encoding="UTF-8" standalone="no"?>
<!-- Created with Inkscape (http://www.inkscape.org/) -->

<svg
   version="1.1"
   id="svg1"
   width="169.93333"
   height="169.93333"
   viewBox="0 0 169.93333 169.93333"
   sodipodi:docname="pha04f01.eps"
   xmlns:inkscape="http://www.inkscape.org/namespaces/inkscape"
   xmlns:sodipodi="http://sodipodi.sourceforge.net/DTD/sodipodi-0.dtd"
   xmlns="http://www.w3.org/2000/svg"
   xmlns:svg="http://www.w3.org/2000/svg">
  <defs
     id="defs1" />
  <sodipodi:namedview
     id="namedview1"
     pagecolor="#ffffff"
     bordercolor="#000000"
     borderopacity="0.25"
     inkscape:showpageshadow="2"
     inkscape:pageopacity="0.0"
     inkscape:pagecheckerboard="0"
     inkscape:deskcolor="#d1d1d1">
    <inkscape:page
       x="0"
       y="0"
       inkscape:label="1"
       id="page1"
       width="169.93333"
       height="169.93333"
       margin="0"
       bleed="0" />
  </sodipodi:namedview>
  <g
     id="g1"
     inkscape:groupmode="layer"
     inkscape:label="1">
    <g
       id="group-R5">
      <path
         id="path2"
         d="m 334.887,637.242 c 0,166.985 135.371,302.352 302.355,302.352 166.981,0 302.344,-135.367 302.344,-302.352 0,-166.98 -135.363,-302.351 -302.344,-302.351 -166.984,0 -302.355,135.371 -302.355,302.351 z"
         style="fill:none;stroke:#231f20;stroke-width:5;stroke-linecap:butt;stroke-linejoin:miter;stroke-miterlimit:10;stroke-dasharray:none;stroke-opacity:1"
         transform="matrix(0.13333333,0,0,-0.13333333,0,169.93333)" />
      <path
         id="path3"
         d="m 2.5,637.238 c 0,350.559 284.184,634.742 634.742,634.742 350.555,0 634.738,-284.183 634.738,-634.742 C 1271.98,286.684 987.797,2.5 637.242,2.5 286.684,2.5 2.5,286.684 2.5,637.238 Z"
         style="fill:none;stroke:#231f20;stroke-width:5;stroke-linecap:butt;stroke-linejoin:miter;stroke-miterlimit:10;stroke-dasharray:none;stroke-opacity:1"
         transform="matrix(0.13333333,0,0,-0.13333333,0,169.93333)" />
      <path
         id="path4"
         d="M 634.859,860.707 V 768"
         style="fill:none;stroke:#231f20;stroke-width:7.5;stroke-linecap:butt;stroke-linejoin:miter;stroke-miterlimit:10;stroke-dasharray:none;stroke-opacity:1"
         transform="matrix(0.13333333,0,0,-0.13333333,0,169.93333)" />
      <path
         id="path5"
         d="m 634.859,849.938 21.618,-13.149 0.492,0.738 -14.004,35.25 c -2.699,12.286 -5.402,24.563 -8.106,36.844 -2.703,-12.281 -5.402,-24.558 -8.105,-36.844 l -14.004,-35.25 0.371,-0.738 21.738,13.149"
         style="fill:#231f20;fill-opacity:1;fill-rule:nonzero;stroke:none"
         transform="matrix(0.13333333,0,0,-0.13333333,0,169.93333)" />
      <path
         id="path6"
         d="M 634.859,1159.8 V 990.832"
         style="fill:none;stroke:#231f20;stroke-width:7.5;stroke-linecap:butt;stroke-linejoin:miter;stroke-miterlimit:10;stroke-dasharray:none;stroke-opacity:1"
         transform="matrix(0.13333333,0,0,-0.13333333,0,169.93333)" />
      <path
         id="path7"
         d="m 634.859,1149.03 21.618,-13.15 0.492,0.74 -14.004,35.25 c -2.699,12.28 -5.402,24.56 -8.106,36.84 -2.703,-12.28 -5.402,-24.56 -8.105,-36.84 l -14.004,-35.25 0.371,-0.74 21.738,13.15"
         style="fill:#231f20;fill-opacity:1;fill-rule:nonzero;stroke:none"
         transform="matrix(0.13333333,0,0,-0.13333333,0,169.93333)" />
      <path
         id="path8"
         d="m 540.484,841.043 40.235,-83.52"
         style="fill:none;stroke:#231f20;stroke-width:7.5;stroke-linecap:butt;stroke-linejoin:miter;stroke-miterlimit:10;stroke-dasharray:none;stroke-opacity:1"
         transform="matrix(0.13333333,0,0,-0.13333333,0,169.93333)" />
      <path
         id="path9"
         d="m 545.156,831.34 25.18,-2.461 0.125,0.875 -27.91,25.684 c -7.766,9.886 -15.531,19.781 -23.297,29.671 2.894,-12.234 5.789,-24.472 8.684,-36.707 l 2.687,-37.839 0.652,-0.5 13.879,21.277"
         style="fill:#231f20;fill-opacity:1;fill-rule:nonzero;stroke:none"
         transform="matrix(0.13333333,0,0,-0.13333333,0,169.93333)" />
      <path
         id="path10"
         d="M 410.66,1110.49 484,958.27"
         style="fill:none;stroke:#231f20;stroke-width:7.5;stroke-linecap:butt;stroke-linejoin:miter;stroke-miterlimit:10;stroke-dasharray:none;stroke-opacity:1"
         transform="matrix(0.13333333,0,0,-0.13333333,0,169.93333)" />
      <path
         id="path11"
         d="m 415.332,1100.79 25.188,-2.46 0.117,0.88 -27.91,25.68 c -7.766,9.89 -15.532,19.78 -23.297,29.67 2.894,-12.24 5.797,-24.47 8.683,-36.71 l 2.692,-37.84 0.648,-0.5 13.879,21.28"
         style="fill:#231f20;fill-opacity:1;fill-rule:nonzero;stroke:none"
         transform="matrix(0.13333333,0,0,-0.13333333,0,169.93333)" />
      <path
         id="path12"
         d="m 466.324,777.895 71.387,-59.157"
         style="fill:none;stroke:#231f20;stroke-width:7.5;stroke-linecap:butt;stroke-linejoin:miter;stroke-miterlimit:10;stroke-dasharray:none;stroke-opacity:1"
         transform="matrix(0.13333333,0,0,-0.13333333,0,169.93333)" />
      <path
         id="path13"
         d="m 474.617,771.023 23.918,8.258 -0.258,0.844 -36.074,11.715 c -11.18,5.754 -22.359,11.512 -33.543,17.265 7.735,-9.917 15.465,-19.835 23.199,-29.753 l 18.207,-33.27 0.801,-0.187 3.75,25.128"
         style="fill:#231f20;fill-opacity:1;fill-rule:nonzero;stroke:none"
         transform="matrix(0.13333333,0,0,-0.13333333,0,169.93333)" />
      <path
         id="path14"
         d="M 236.031,968.742 366.133,860.926"
         style="fill:none;stroke:#231f20;stroke-width:7.5;stroke-linecap:butt;stroke-linejoin:miter;stroke-miterlimit:10;stroke-dasharray:none;stroke-opacity:1"
         transform="matrix(0.13333333,0,0,-0.13333333,0,169.93333)" />
      <path
         id="path15"
         d="m 244.32,961.871 23.922,8.254 -0.258,0.848 -36.074,11.715 c -11.18,5.757 -22.359,11.515 -33.543,17.265 7.738,-9.918 15.465,-19.832 23.199,-29.75 l 18.204,-33.273 0.804,-0.188 3.746,25.129"
         style="fill:#231f20;fill-opacity:1;fill-rule:nonzero;stroke:none"
         transform="matrix(0.13333333,0,0,-0.13333333,0,169.93333)" />
      <path
         id="path16"
         d="M 733.688,839.48 693.441,755.961"
         style="fill:none;stroke:#231f20;stroke-width:7.5;stroke-linecap:butt;stroke-linejoin:miter;stroke-miterlimit:10;stroke-dasharray:none;stroke-opacity:1"
         transform="matrix(0.13333333,0,0,-0.13333333,0,169.93333)" />
      <path
         id="path17"
         d="m 729.008,829.777 13.769,-21.226 0.762,0.449 2.688,37.84 c 2.898,12.234 5.8,24.473 8.691,36.707 -7.766,-9.891 -15.527,-19.785 -23.293,-29.672 l -27.918,-25.68 0.008,-0.824 25.293,2.406"
         style="fill:#231f20;fill-opacity:1;fill-rule:nonzero;stroke:none"
         transform="matrix(0.13333333,0,0,-0.13333333,0,169.93333)" />
      <path
         id="path18"
         d="M 863.5,1108.93 790.16,956.711"
         style="fill:none;stroke:#231f20;stroke-width:7.5;stroke-linecap:butt;stroke-linejoin:miter;stroke-miterlimit:10;stroke-dasharray:none;stroke-opacity:1"
         transform="matrix(0.13333333,0,0,-0.13333333,0,169.93333)" />
      <path
         id="path19"
         d="m 858.824,1099.23 13.77,-21.23 0.761,0.45 2.684,37.84 c 2.902,12.24 5.801,24.48 8.691,36.71 -7.761,-9.89 -15.527,-19.79 -23.289,-29.67 l -27.921,-25.68 0.019,-0.83 25.285,2.41"
         style="fill:#231f20;fill-opacity:1;fill-rule:nonzero;stroke:none"
         transform="matrix(0.13333333,0,0,-0.13333333,0,169.93333)" />
      <path
         id="path20"
         d="M 807.836,776.34 736.461,717.18"
         style="fill:none;stroke:#231f20;stroke-width:7.5;stroke-linecap:butt;stroke-linejoin:miter;stroke-miterlimit:10;stroke-dasharray:none;stroke-opacity:1"
         transform="matrix(0.13333333,0,0,-0.13333333,0,169.93333)" />
      <path
         id="path21"
         d="m 799.547,769.465 3.672,-25.035 0.879,0.093 18.211,33.278 c 7.734,9.918 15.461,19.832 23.195,29.75 -11.184,-5.758 -22.363,-11.512 -33.547,-17.27 l -36.074,-11.715 -0.332,-0.75 23.996,-8.351"
         style="fill:#231f20;fill-opacity:1;fill-rule:nonzero;stroke:none"
         transform="matrix(0.13333333,0,0,-0.13333333,0,169.93333)" />
      <path
         id="path22"
         d="M 1038.13,967.184 908.031,859.367"
         style="fill:none;stroke:#231f20;stroke-width:7.5;stroke-linecap:butt;stroke-linejoin:miter;stroke-miterlimit:10;stroke-dasharray:none;stroke-opacity:1"
         transform="matrix(0.13333333,0,0,-0.13333333,0,169.93333)" />
      <path
         id="path23"
         d="m 1029.84,960.316 3.67,-25.039 0.88,0.098 18.21,33.27 c 7.74,9.918 15.46,19.835 23.2,29.75 -11.19,-5.754 -22.37,-11.512 -33.55,-17.266 l -36.07,-11.711 -0.34,-0.758 24,-8.344"
         style="fill:#231f20;fill-opacity:1;fill-rule:nonzero;stroke:none"
         transform="matrix(0.13333333,0,0,-0.13333333,0,169.93333)" />
      <path
         id="path24"
         d="m 637.242,713.074 5.653,-21.965 10.109,20.305 0.965,-22.656 14.101,17.758 -3.75,-22.368 17.481,14.442 -8.328,-21.098 20.117,10.492 -12.539,-18.906 21.855,6.082 -16.191,-15.887 22.637,1.403 -19.133,-12.172 22.433,-3.336 -21.25,-7.926 21.25,-7.929 -22.433,-3.333 19.133,-12.175 -22.637,1.406 16.191,-15.883 -21.855,6.074 12.539,-18.902 -20.117,10.488 8.328,-21.093 -17.481,14.441 3.75,-22.371 -14.101,17.762 -0.965,-22.657 -10.109,20.305 -5.653,-21.965 -5.676,21.965 -10.097,-20.305 -0.977,22.657 -14.109,-17.762 3.769,22.371 -17.492,-14.441 8.332,21.093 -20.109,-10.488 12.531,18.902 -21.848,-6.074 16.184,15.883 -22.637,-1.406 19.141,12.175 -22.434,3.333 21.243,7.929 -21.243,7.926 22.434,3.336 -19.141,12.172 22.637,-1.403 -16.184,15.887 21.848,-6.082 -12.531,18.906 20.109,-10.492 -8.332,21.098 17.492,-14.442 -3.769,22.368 14.109,-17.758 0.977,22.656 10.097,-20.305 5.676,21.965"
         style="fill:#fddd1b;fill-opacity:1;fill-rule:nonzero;stroke:none"
         transform="matrix(0.13333333,0,0,-0.13333333,0,169.93333)" />
      <path
         id="path25"
         d="m 637.242,713.074 5.653,-21.965 10.109,20.305 0.965,-22.656 14.101,17.758 -3.75,-22.368 17.481,14.442 -8.328,-21.098 20.117,10.492 -12.539,-18.906 21.855,6.082 -16.191,-15.887 22.637,1.403 -19.133,-12.172 22.433,-3.336 -21.25,-7.926 21.25,-7.929 -22.433,-3.333 19.133,-12.175 -22.637,1.406 16.191,-15.883 -21.855,6.074 12.539,-18.902 -20.117,10.488 8.328,-21.093 -17.481,14.441 3.75,-22.371 -14.101,17.762 -0.965,-22.657 -10.109,20.305 -5.653,-21.965 -5.676,21.965 -10.097,-20.305 -0.977,22.657 -14.109,-17.762 3.769,22.371 -17.492,-14.441 8.332,21.093 -20.109,-10.488 12.531,18.902 -21.848,-6.074 16.184,15.883 -22.637,-1.406 19.141,12.175 -22.434,3.333 21.243,7.929 -21.243,7.926 22.434,3.336 -19.141,12.172 22.637,-1.403 -16.184,15.887 21.848,-6.082 -12.531,18.906 20.109,-10.492 -8.332,21.098 17.492,-14.442 -3.769,22.368 14.109,-17.758 0.977,22.656 10.097,-20.305 z"
         style="fill:none;stroke:#231f20;stroke-width:3.5;stroke-linecap:butt;stroke-linejoin:miter;stroke-miterlimit:7;stroke-dasharray:none;stroke-opacity:1"
         transform="matrix(0.13333333,0,0,-0.13333333,0,169.93333)" />
    </g>
  </g>
</svg>
