<?xml version="1.0" encoding="UTF-8" standalone="no"?>
<!-- Created with Inkscape (http://www.inkscape.org/) -->

<svg
   version="1.1"
   id="svg1"
   width="239.52"
   height="159.36"
   viewBox="0 0 239.52 159.36"
   sodipodi:docname="pha04f29.eps"
   xmlns:inkscape="http://www.inkscape.org/namespaces/inkscape"
   xmlns:sodipodi="http://sodipodi.sourceforge.net/DTD/sodipodi-0.dtd"
   xmlns="http://www.w3.org/2000/svg"
   xmlns:svg="http://www.w3.org/2000/svg">
  <defs
     id="defs1" />
  <sodipodi:namedview
     id="namedview1"
     pagecolor="#ffffff"
     bordercolor="#000000"
     borderopacity="0.25"
     inkscape:showpageshadow="2"
     inkscape:pageopacity="0.0"
     inkscape:pagecheckerboard="0"
     inkscape:deskcolor="#d1d1d1">
    <inkscape:page
       x="0"
       y="0"
       inkscape:label="1"
       id="page1"
       width="239.52"
       height="159.36"
       margin="0"
       bleed="0" />
  </sodipodi:namedview>
  <g
     id="g1"
     inkscape:groupmode="layer"
     inkscape:label="1">
    <g
       id="group-R5">
      <path
         id="path2"
         d="M 3.4577687,3.125e-4 V -0.24578125 C 2.6374562,-0.304375 2.5788625,-0.3746875 2.5788625,-1.0309375 v -4.6875 c -0.4921875,0.1992188 -1.0195313,0.375 -1.59375,0.46875 V -5.03875 l 0.4335937,0.011719 c 0.3867188,0.023437 0.421875,0.070312 0.421875,0.5390625 v 3.4570312 c 0,0.65625 -0.035156,0.7265625 -0.8554687,0.78515625 V 3.125e-4 Z m 1.8925782,0.10546875 c 0.28125,0 0.5039062,-0.19921875 0.5039062,-0.515625 0,-0.29296875 -0.2226562,-0.515625 -0.5039062,-0.515625 -0.2929688,0 -0.5039063,0.22265625 -0.5039063,0.515625 0,0.31640625 0.2109375,0.515625 0.5039063,0.515625 z M 8.5290578,-5.7184375 c -1.3476562,0 -1.8398437,1.6054688 -1.8398437,2.9179687 0,1.4179688 0.4804687,2.90625005 1.8398437,2.90625005 1.359375,0 1.8281252,-1.59375005 1.8281252,-2.91796875 0,-1.3828125 -0.4687502,-2.90625 -1.8281252,-2.90625 z m 0,0.3046875 c 0.8085938,0 1.03125,1.3242188 1.03125,2.6015625 0,1.265625 -0.2226562,2.61328125 -1.03125,2.61328125 -0.7734375,0 -1.0429687,-1.35937505 -1.0429687,-2.61328125 0,-1.2539062 0.2226562,-2.6015625 1.0429687,-2.6015625 z M 2.1569875,44.730781 c -1.34765625,0 -1.83984375,1.605469 -1.83984375,2.917969 0,1.417969 0.48046875,2.90625 1.83984375,2.90625 1.359375,0 1.828125,-1.59375 1.828125,-2.917969 0,-1.382812 -0.46875,-2.90625 -1.828125,-2.90625 z m 0,0.304688 c 0.8085937,0 1.03125,1.324218 1.03125,2.601562 0,1.265625 -0.2226563,2.613281 -1.03125,2.613281 -0.7734375,0 -1.0429688,-1.359375 -1.0429688,-2.613281 0,-1.253906 0.2226563,-2.601562 1.0429688,-2.601562 z M 5.3503469,50.555 c 0.28125,0 0.5039062,-0.199219 0.5039062,-0.515625 0,-0.292969 -0.2226562,-0.515625 -0.5039062,-0.515625 -0.2929688,0 -0.5039063,0.222656 -0.5039063,0.515625 0,0.316406 0.2109375,0.515625 0.5039063,0.515625 z m 2.3935547,-5.050781 h 2.0976562 l 0.2343752,-0.585938 -0.05859,-0.07031 H 7.4509328 l -0.3515625,2.742187 c 0.2109375,-0.08203 0.5507813,-0.1875 0.9257813,-0.1875 0.984375,0 1.4648437,0.574219 1.4648437,1.359375 0,0.679688 -0.375,1.335938 -1.1367187,1.335938 -0.5507813,0 -0.9140625,-0.292969 -1.1132813,-0.457032 -0.082031,-0.07031 -0.1523437,-0.05859 -0.234375,0 -0.1054687,0.09375 -0.1875,0.210938 -0.1875,0.292969 -0.023437,0.105469 0.023437,0.1875 0.140625,0.304688 0.1289063,0.128906 0.515625,0.316406 0.9257813,0.316406 0.4804687,-0.01172 1.078125,-0.246094 1.5703125,-0.632813 0.5507809,-0.457031 0.7968749,-0.960937 0.7968749,-1.511718 0,-0.738282 -0.5859374,-1.511719 -1.7343749,-1.511719 -0.2460938,0 -0.6679688,0.140625 -1.0078125,0.269531 z M -53.902583,106.52961 v -0.46875 h -3.773437 v 0.46875 z m 4.564453,0.19922 v -0.42188 h -0.867187 v -3.65625 h -0.351563 c -0.925781,1.21875 -1.851562,2.55469 -2.707031,3.83203 v 0.2461 h 2.34375 v 0.65625 c 0,0.58594 -0.03516,0.64453 -0.820312,0.70312 v 0.2461 h 2.308593 v -0.2461 c -0.726562,-0.0586 -0.773437,-0.10547 -0.773437,-0.70312 v -0.65625 z m -1.582031,-0.42188 h -1.769531 c 0.585937,-0.99609 1.171875,-1.85156 1.757812,-2.64843 h 0.01172 z m 31.505859,0.22266 v -0.46875 h -3.773437 v 0.46875 z m 4.166016,0.53906 c -0.269531,0.57422 -0.386719,0.60938 -0.867187,0.60938 h -1.6875 l 1.277343,-1.33594 c 0.832032,-0.89063 1.195313,-1.41797 1.195313,-2.20313 0,-0.94921 -0.726563,-1.52343 -1.511719,-1.52343 -0.527344,0 -0.949219,0.23437 -1.21875,0.53906 l -0.515625,0.72656 0.199219,0.17578 c 0.234375,-0.35156 0.609375,-0.83203 1.230469,-0.83203 0.65625,0 1.054687,0.4336 1.054687,1.19531 0,0.77344 -0.5625,1.51172 -1.125,2.17969 -0.445312,0.51563 -0.949219,1.03125 -1.453125,1.52344 v 0.21094 h 3.363281 c 0.105469,-0.41016 0.199219,-0.79688 0.316407,-1.1836 z M 15.3523,102.61555 c -1.347656,0 -1.839844,1.60547 -1.839844,2.91797 0,1.41796 0.480469,2.90625 1.839844,2.90625 1.359375,0 1.828125,-1.59375 1.828125,-2.91797 0,-1.38282 -0.46875,-2.90625 -1.828125,-2.90625 z m 0,0.30468 c 0.808594,0 1.03125,1.32422 1.03125,2.60157 0,1.26562 -0.222656,2.61328 -1.03125,2.61328 -0.773438,0 -1.042969,-1.35938 -1.042969,-2.61328 0,-1.25391 0.222656,-2.60157 1.042969,-2.60157 z m 36.035156,4.14844 c -0.269531,0.57422 -0.386719,0.60938 -0.867187,0.60938 h -1.6875 l 1.277343,-1.33594 c 0.832032,-0.89063 1.195313,-1.41797 1.195313,-2.20313 0,-0.94921 -0.726563,-1.52343 -1.511719,-1.52343 -0.527344,0 -0.949219,0.23437 -1.21875,0.53906 l -0.515625,0.72656 0.199219,0.17578 c 0.234375,-0.35156 0.609375,-0.83203 1.230469,-0.83203 0.65625,0 1.054687,0.4336 1.054687,1.19531 0,0.77344 -0.5625,1.51172 -1.125,2.17969 -0.445312,0.51563 -0.949219,1.03125 -1.453125,1.52344 v 0.21094 h 3.363281 c 0.105469,-0.41016 0.199219,-0.79688 0.316407,-1.1836 z m 34.886719,-0.33984 v -0.42188 h -0.867188 v -3.65625 h -0.351562 c -0.925781,1.21875 -1.851563,2.55469 -2.707031,3.83203 v 0.2461 h 2.34375 v 0.65625 c 0,0.58594 -0.03516,0.64453 -0.820313,0.70312 v 0.2461 h 2.308594 v -0.2461 c -0.726563,-0.0586 -0.773438,-0.10547 -0.773438,-0.70312 v -0.65625 z m -1.582031,-0.42188 h -1.769532 c 0.585938,-0.99609 1.171875,-1.85156 1.757813,-2.64843 h 0.01172 z m 0,0"
         style="fill:#231f20;fill-opacity:1;fill-rule:nonzero;stroke:none"
         aria-label="1.0&#10;0.5&#10;–4–2024"
         transform="matrix(1.3333333,0,0,1.3333333,99.280267,10.593333)" />
      <path
         id="path3"
         d="m 35.9258,150.25 h 1.0625 l 1.0469,0.039 2.1132,0.039 4.2227,0.121 8.4766,0.192 16.914,0.39 36.7183,0.981 34.258,1.019 33.586,1.168 36.453,1.403 34.024,1.57 36.836,1.906 36.172,2.274 0.546,0.039 0.508,0.031 1.055,0.078 2.109,0.121 4.219,0.309 8.438,0.59 16.914,1.289 0.547,0.082 0.585,0.031 1.133,0.078 2.305,0.199 13.711,1.172 18.281,1.641 0.547,0.078 0.547,0.039 1.055,0.121 2.148,0.191 4.258,0.43 8.555,0.859 17.07,1.911 0.547,0.039 0.508,0.082 1.054,0.117 2.071,0.23 4.218,0.512 8.36,1.051 16.757,2.226 0.547,0.082 0.586,0.079 1.133,0.152 2.266,0.359 4.531,0.66 9.102,1.372 18.164,3 0.546,0.078 0.508,0.121 1.055,0.16 2.148,0.391 4.219,0.777 8.477,1.601 0.547,0.122 0.507,0.07 1.055,0.238 2.149,0.391 4.218,0.859 8.477,1.801 0.586,0.109 0.586,0.16 1.133,0.231 2.304,0.508 4.571,1.07 9.218,2.172 0.547,0.16 0.586,0.117 1.133,0.313 6.914,1.758 9.18,2.5 0.586,0.156 0.546,0.156 1.133,0.313 2.266,0.664 4.492,1.289 9.024,2.812 0.546,0.156 0.586,0.196 1.133,0.351 2.266,0.743 4.492,1.523 9.023,3.164 0.508,0.195 0.547,0.196 3.164,1.172 4.18,1.601 8.437,3.359 0.508,0.235 0.547,0.234 1.055,0.43 2.07,0.898 4.219,1.836 8.437,3.828 0.547,0.274 0.586,0.273 3.399,1.641 4.57,2.266 9.14,4.843 0.547,0.313 0.586,0.312 1.133,0.625 2.305,1.289 4.531,2.618 9.141,5.625 0.547,0.312 0.507,0.352 1.055,0.703 2.148,1.367 4.258,2.851 8.516,6.055 0.547,0.391 0.508,0.39 1.093,0.782 2.11,1.64 4.258,3.282 8.515,6.992 0.586,0.468 0.586,0.508 1.133,1.016 2.305,1.992 4.609,4.18 9.258,8.867 2.304,2.305 2.305,2.382 4.609,4.883 9.219,10.391 0.586,0.664 0.547,0.664 3.398,4.102 4.532,5.625 9.062,11.914 0.586,0.781 0.547,0.781 1.133,1.602 2.265,3.164 4.532,6.562 9.062,13.946 0.547,0.82 0.508,0.859 3.164,5.157 4.219,7.07 8.476,14.922 0.508,0.976 0.547,0.977 1.055,1.953 2.109,3.945 4.219,8.086 8.476,16.953 0.547,1.172 0.586,1.211 1.133,2.383 2.305,4.844 4.57,9.922 9.18,20.781 18.32,45 34.219,94.14 33.554,97.692 36.407,99.961 0.547,1.332 0.546,1.367 1.055,2.691 2.109,5.36 4.258,10.5 8.477,20.277 0.547,1.25 0.508,1.25 1.093,2.422 2.11,4.84 4.257,9.527 8.477,18.254 0.586,1.168 0.586,1.211 1.133,2.383 2.304,4.687 4.61,9.102 9.174,17.379 0.59,1.058 0.59,1.008 1.13,2.082 2.3,4.102 4.62,7.93 9.21,15 0.55,0.886 0.58,0.864 1.14,1.761 2.22,3.477 4.54,6.679 9.02,12.692 0.58,0.75 0.55,0.781 3.4,4.449 4.53,5.743 9.02,10.859 0.55,0.629 0.51,0.582 1.05,1.207 2.11,2.391 4.22,4.609 8.44,8.708 0.51,0.54 0.54,0.51 1.06,1.06 2.07,2.03 4.22,3.98 8.44,7.54 0.58,0.47 0.55,0.51 1.17,0.97 2.27,1.92 4.57,3.71 9.14,6.99 0.58,0.43 0.55,0.43 1.17,0.82 2.27,1.64 4.57,3.17 9.14,6.01 0.55,0.31 0.5,0.36 1.1,0.66 2.11,1.29 4.29,2.58 8.52,4.84 0.55,0.27 0.5,0.32 1.1,0.58 2.11,1.13 4.25,2.23 8.56,4.22 0.51,0.23 0.54,0.24 1.02,0.51 2.11,0.97 4.18,1.92 8.36,3.59 0.54,0.24 0.51,0.23 1.06,0.43 2.07,0.86 4.18,1.64 8.36,3.2 0.58,0.2 0.55,0.23 1.13,0.39 2.31,0.82 4.53,1.6 9.06,3.01 0.59,0.2 0.55,0.15 1.13,0.39 6.79,2.11 9.1,2.62 0.51,0.16 0.55,0.15 1.05,0.32 2.11,0.58 4.26,1.13 8.44,2.19 16.95,4.03 0.59,0.11 0.54,0.12 1.18,0.27 2.26,0.51 4.61,0.98 9.18,1.87 18.36,3.44 0.55,0.08 0.51,0.12 1.09,0.19 2.15,0.35 4.26,0.74 8.59,1.37 17.15,2.62 0.51,0.04 0.54,0.08 1.06,0.15 2.07,0.32 4.22,0.58 8.39,1.1 16.8,2.07 1.17,0.15 1.14,0.12 2.26,0.27 4.57,0.51 9.1,1.02 18.25,1.83 0.54,0.08 0.51,0.04 1.05,0.08 2.15,0.23 12.78,1.17 16.99,1.41 0.58,0.08 0.59,0.04 1.13,0.07 2.31,0.2 13.83,1.05 18.43,1.33 36.21,2.23 33.79,1.8 36.61,1.68 34.21,1.36 33.52,1.18 36.37,1.09 33.91,0.9 h 0.62 l 0.58,0.04 h 1.18 l 2.38,0.07 14.18,0.36 h 1.21 l 1.17,0.04 2.38,0.07 4.73,0.08 0.59,0.04 h 0.58 l 1.17,0.04 2.39,0.04 h 0.58 l 0.59,0.04 h 1.21 l 0.59,0.04 h 1.17 l 0.58,0.04"
         style="fill:none;stroke:#4974b1;stroke-width:10;stroke-linecap:butt;stroke-linejoin:round;stroke-miterlimit:3.25;stroke-dasharray:none;stroke-opacity:1"
         transform="matrix(0.13333333,0,0,-0.13333333,0,159.36)" />
      <path
         id="path4"
         d="m 208.398,110.449 v 30"
         style="fill:none;stroke:#231f20;stroke-width:5;stroke-linecap:butt;stroke-linejoin:miter;stroke-miterlimit:3.25;stroke-dasharray:none;stroke-opacity:1"
         transform="matrix(0.13333333,0,0,-0.13333333,0,159.36)" />
      <path
         id="path5"
         d="m 553.277,110.449 v 30"
         style="fill:none;stroke:#231f20;stroke-width:5;stroke-linecap:butt;stroke-linejoin:miter;stroke-miterlimit:3.25;stroke-dasharray:none;stroke-opacity:1"
         transform="matrix(0.13333333,0,0,-0.13333333,0,159.36)" />
      <path
         id="path6"
         d="m 1243.12,110.449 v 30"
         style="fill:none;stroke:#231f20;stroke-width:5;stroke-linecap:butt;stroke-linejoin:miter;stroke-miterlimit:3.25;stroke-dasharray:none;stroke-opacity:1"
         transform="matrix(0.13333333,0,0,-0.13333333,0,159.36)" />
      <path
         id="path7"
         d="m 1588,110.449 v 30"
         style="fill:none;stroke:#231f20;stroke-width:5;stroke-linecap:butt;stroke-linejoin:miter;stroke-miterlimit:3.25;stroke-dasharray:none;stroke-opacity:1"
         transform="matrix(0.13333333,0,0,-0.13333333,0,159.36)" />
      <path
         id="path8"
         d="m 868.199,644.941 h 30 m 0,-504.492 h 21.289 M 0,140.449 h 1796.4"
         style="fill:none;stroke:#231f20;stroke-width:5;stroke-linecap:butt;stroke-linejoin:miter;stroke-miterlimit:3.25;stroke-dasharray:none;stroke-opacity:1"
         transform="matrix(0.13333333,0,0,-0.13333333,0,159.36)" />
      <path
         id="path9"
         d="m 868.199,1149.47 h 30"
         style="fill:none;stroke:#231f20;stroke-width:5;stroke-linecap:butt;stroke-linejoin:miter;stroke-miterlimit:3.25;stroke-dasharray:none;stroke-opacity:1"
         transform="matrix(0.13333333,0,0,-0.13333333,0,159.36)" />
      <path
         id="path10"
         d="M 898.199,110.449 V 1195.17"
         style="fill:none;stroke:#231f20;stroke-width:5;stroke-linecap:butt;stroke-linejoin:miter;stroke-miterlimit:3.25;stroke-dasharray:none;stroke-opacity:1"
         transform="matrix(0.13333333,0,0,-0.13333333,0,159.36)" />
    </g>
  </g>
</svg>
