<?xml version="1.0" encoding="UTF-8" standalone="no"?>
<!-- Created with Inkscape (http://www.inkscape.org/) -->

<svg
   version="1.1"
   id="svg1"
   width="448.60001"
   height="314.44"
   viewBox="0 0 448.60001 314.44"
   sodipodi:docname="pha04f26.eps"
   xmlns:inkscape="http://www.inkscape.org/namespaces/inkscape"
   xmlns:sodipodi="http://sodipodi.sourceforge.net/DTD/sodipodi-0.dtd"
   xmlns="http://www.w3.org/2000/svg"
   xmlns:svg="http://www.w3.org/2000/svg">
  <defs
     id="defs1" />
  <sodipodi:namedview
     id="namedview1"
     pagecolor="#ffffff"
     bordercolor="#000000"
     borderopacity="0.25"
     inkscape:showpageshadow="2"
     inkscape:pageopacity="0.0"
     inkscape:pagecheckerboard="0"
     inkscape:deskcolor="#d1d1d1">
    <inkscape:page
       x="0"
       y="0"
       inkscape:label="1"
       id="page1"
       width="448.60001"
       height="314.44"
       margin="0"
       bleed="0" />
  </sodipodi:namedview>
  <g
     id="g1"
     inkscape:groupmode="layer"
     inkscape:label="1">
    <g
       id="group-R5">
      <path
         id="path2"
         d="m 217.102,1969.94 42.582,13.15 42.546,5.25 42.583,11.04 42.589,6.19 42.578,9.2 42.586,10.23 42.579,7.37 85.171,20.73 85.157,9.53 85.168,31.1 85.164,7.75 170.305,49.21 170.33,37.47 170.33,25.43 170.33,29.84"
         style="fill:none;stroke:#4974b1;stroke-width:10;stroke-linecap:butt;stroke-linejoin:miter;stroke-miterlimit:3.25;stroke-dasharray:none;stroke-opacity:1"
         transform="matrix(0.13333333,0,0,-0.13333333,0,314.44)" />
      <path
         id="path3"
         d="m 217.102,1503.77 v 16.48"
         style="fill:none;stroke:#231f20;stroke-width:5;stroke-linecap:butt;stroke-linejoin:miter;stroke-miterlimit:3.25;stroke-dasharray:none;stroke-opacity:1"
         transform="matrix(0.13333333,0,0,-0.13333333,0,314.44)" />
      <path
         id="path4"
         d="m 259.684,1473.77 v 30"
         style="fill:none;stroke:#231f20;stroke-width:5;stroke-linecap:butt;stroke-linejoin:miter;stroke-miterlimit:3.25;stroke-dasharray:none;stroke-opacity:1"
         transform="matrix(0.13333333,0,0,-0.13333333,0,314.44)" />
      <path
         id="path5"
         d="m 217.102,1473.77 v 30"
         style="fill:none;stroke:#231f20;stroke-width:5;stroke-linecap:butt;stroke-linejoin:miter;stroke-miterlimit:3.25;stroke-dasharray:none;stroke-opacity:1"
         transform="matrix(0.13333333,0,0,-0.13333333,0,314.44)" />
      <path
         id="path6"
         d="m 344.813,1473.77 v 30"
         style="fill:none;stroke:#231f20;stroke-width:5;stroke-linecap:butt;stroke-linejoin:miter;stroke-miterlimit:3.25;stroke-dasharray:none;stroke-opacity:1"
         transform="matrix(0.13333333,0,0,-0.13333333,0,314.44)" />
      <path
         id="path7"
         d="m 515.145,1473.77 v 30"
         style="fill:none;stroke:#231f20;stroke-width:5;stroke-linecap:butt;stroke-linejoin:miter;stroke-miterlimit:3.25;stroke-dasharray:none;stroke-opacity:1"
         transform="matrix(0.13333333,0,0,-0.13333333,0,314.44)" />
      <path
         id="path8"
         d="m 855.805,1473.77 v 30"
         style="fill:none;stroke:#231f20;stroke-width:5;stroke-linecap:butt;stroke-linejoin:miter;stroke-miterlimit:3.25;stroke-dasharray:none;stroke-opacity:1"
         transform="matrix(0.13333333,0,0,-0.13333333,0,314.44)" />
      <path
         id="path9"
         d="m 1537.1,1473.77 v 30"
         style="fill:none;stroke:#231f20;stroke-width:5;stroke-linecap:butt;stroke-linejoin:miter;stroke-miterlimit:3.25;stroke-dasharray:none;stroke-opacity:1"
         transform="matrix(0.13333333,0,0,-0.13333333,0,314.44)" />
      <path
         id="path10"
         d="M 217.102,1503.77 H 1537.1"
         style="fill:none;stroke:#231f20;stroke-width:5;stroke-linecap:butt;stroke-linejoin:miter;stroke-miterlimit:3.25;stroke-dasharray:none;stroke-opacity:1"
         transform="matrix(0.13333333,0,0,-0.13333333,0,314.44)" />
      <path
         id="path11"
         d="m 217.102,1503.77 h 16.476"
         style="fill:none;stroke:#231f20;stroke-width:5;stroke-linecap:butt;stroke-linejoin:miter;stroke-miterlimit:3.25;stroke-dasharray:none;stroke-opacity:1"
         transform="matrix(0.13333333,0,0,-0.13333333,0,314.44)" />
      <path
         id="path12"
         d="m 187.102,1736.84 h 30"
         style="fill:none;stroke:#231f20;stroke-width:5;stroke-linecap:butt;stroke-linejoin:miter;stroke-miterlimit:3.25;stroke-dasharray:none;stroke-opacity:1"
         transform="matrix(0.13333333,0,0,-0.13333333,0,314.44)" />
      <path
         id="path13"
         d="m 187.102,1969.94 h 30"
         style="fill:none;stroke:#231f20;stroke-width:5;stroke-linecap:butt;stroke-linejoin:miter;stroke-miterlimit:3.25;stroke-dasharray:none;stroke-opacity:1"
         transform="matrix(0.13333333,0,0,-0.13333333,0,314.44)" />
      <path
         id="path14"
         d="m 187.102,2203.03 h 30"
         style="fill:none;stroke:#231f20;stroke-width:5;stroke-linecap:butt;stroke-linejoin:miter;stroke-miterlimit:3.25;stroke-dasharray:none;stroke-opacity:1"
         transform="matrix(0.13333333,0,0,-0.13333333,0,314.44)" />
      <path
         id="path15"
         d="m 217.102,1503.77 v 815.8"
         style="fill:none;stroke:#231f20;stroke-width:5;stroke-linecap:butt;stroke-linejoin:miter;stroke-miterlimit:3.25;stroke-dasharray:none;stroke-opacity:1"
         transform="matrix(0.13333333,0,0,-0.13333333,0,314.44)" />
      <path
         id="path16"
         d="m 2080.45,2284.13 248.14,-39.27 145.18,-22.98 103,-16.25 79.88,-12.61 65.28,-10.27 55.2,-8.71 47.82,-7.57 79.88,-12.65 65.26,-10.4 55.2,-8.75 47.79,-7.56 79.91,-12.66 65.29,-10.23 55.18,-8.74 47.81,-7.54"
         style="fill:none;stroke:#5e7dbc;stroke-width:11.52;stroke-linecap:butt;stroke-linejoin:miter;stroke-miterlimit:3.25;stroke-dasharray:none;stroke-opacity:1"
         transform="matrix(0.13333333,0,0,-0.13333333,0,314.44)" />
      <path
         id="path17"
         d="m 2080.45,2284.06 248.14,-47.07 145.18,-36.27 103,-71.67 79.88,-70.28 65.28,-47.01 55.2,-57.37 47.82,-40.34 79.88,-117.49 65.26,13.9 55.2,-22.14 47.79,-59.73 79.91,-139.86 65.29,6.72 55.18,-5.89 47.81,-23.41"
         style="fill:none;stroke:#df9615;stroke-width:10;stroke-linecap:butt;stroke-linejoin:miter;stroke-miterlimit:3.25;stroke-dasharray:none;stroke-opacity:1"
         transform="matrix(0.13333333,0,0,-0.13333333,0,314.44)" />
      <path
         id="path18"
         d="m 2080.45,1479.96 v 30"
         style="fill:none;stroke:#231f20;stroke-width:5;stroke-linecap:butt;stroke-linejoin:miter;stroke-miterlimit:3.25;stroke-dasharray:none;stroke-opacity:1"
         transform="matrix(0.13333333,0,0,-0.13333333,0,314.44)" />
      <path
         id="path19"
         d="m 2328.59,1479.96 v 30"
         style="fill:none;stroke:#231f20;stroke-width:5;stroke-linecap:butt;stroke-linejoin:miter;stroke-miterlimit:3.25;stroke-dasharray:none;stroke-opacity:1"
         transform="matrix(0.13333333,0,0,-0.13333333,0,314.44)" />
      <path
         id="path20"
         d="m 2576.77,1479.96 v 30"
         style="fill:none;stroke:#231f20;stroke-width:5;stroke-linecap:butt;stroke-linejoin:miter;stroke-miterlimit:3.25;stroke-dasharray:none;stroke-opacity:1"
         transform="matrix(0.13333333,0,0,-0.13333333,0,314.44)" />
      <path
         id="path21"
         d="m 2824.95,1479.96 v 30"
         style="fill:none;stroke:#231f20;stroke-width:5;stroke-linecap:butt;stroke-linejoin:miter;stroke-miterlimit:3.25;stroke-dasharray:none;stroke-opacity:1"
         transform="matrix(0.13333333,0,0,-0.13333333,0,314.44)" />
      <path
         id="path22"
         d="m 3073.08,1479.96 v 30"
         style="fill:none;stroke:#231f20;stroke-width:5;stroke-linecap:butt;stroke-linejoin:miter;stroke-miterlimit:3.25;stroke-dasharray:none;stroke-opacity:1"
         transform="matrix(0.13333333,0,0,-0.13333333,0,314.44)" />
      <path
         id="path23"
         d="m 3321.27,1479.96 v 30"
         style="fill:none;stroke:#231f20;stroke-width:5;stroke-linecap:butt;stroke-linejoin:miter;stroke-miterlimit:3.25;stroke-dasharray:none;stroke-opacity:1"
         transform="matrix(0.13333333,0,0,-0.13333333,0,314.44)" />
      <path
         id="path24"
         d="m 2028.19,1509.96 h 1320"
         style="fill:none;stroke:#231f20;stroke-width:5;stroke-linecap:butt;stroke-linejoin:miter;stroke-miterlimit:3.25;stroke-dasharray:none;stroke-opacity:1"
         transform="matrix(0.13333333,0,0,-0.13333333,0,314.44)" />
      <path
         id="path25"
         d="m 1998.19,1658.34 h 30"
         style="fill:none;stroke:#231f20;stroke-width:5;stroke-linecap:butt;stroke-linejoin:miter;stroke-miterlimit:3.25;stroke-dasharray:none;stroke-opacity:1"
         transform="matrix(0.13333333,0,0,-0.13333333,0,314.44)" />
      <path
         id="path26"
         d="m 1998.19,1788.75 h 30"
         style="fill:none;stroke:#231f20;stroke-width:5;stroke-linecap:butt;stroke-linejoin:miter;stroke-miterlimit:3.25;stroke-dasharray:none;stroke-opacity:1"
         transform="matrix(0.13333333,0,0,-0.13333333,0,314.44)" />
      <path
         id="path27"
         d="m 1998.19,1919.17 h 30"
         style="fill:none;stroke:#231f20;stroke-width:5;stroke-linecap:butt;stroke-linejoin:miter;stroke-miterlimit:3.25;stroke-dasharray:none;stroke-opacity:1"
         transform="matrix(0.13333333,0,0,-0.13333333,0,314.44)" />
      <path
         id="path28"
         d="m 1998.19,2049.55 h 30"
         style="fill:none;stroke:#231f20;stroke-width:5;stroke-linecap:butt;stroke-linejoin:miter;stroke-miterlimit:3.25;stroke-dasharray:none;stroke-opacity:1"
         transform="matrix(0.13333333,0,0,-0.13333333,0,314.44)" />
      <path
         id="path29"
         d="m 1998.19,2179.96 h 30"
         style="fill:none;stroke:#231f20;stroke-width:5;stroke-linecap:butt;stroke-linejoin:miter;stroke-miterlimit:3.25;stroke-dasharray:none;stroke-opacity:1"
         transform="matrix(0.13333333,0,0,-0.13333333,0,314.44)" />
      <path
         id="path30"
         d="m 1998.19,2310.38 h 30"
         style="fill:none;stroke:#231f20;stroke-width:5;stroke-linecap:butt;stroke-linejoin:miter;stroke-miterlimit:3.25;stroke-dasharray:none;stroke-opacity:1"
         transform="matrix(0.13333333,0,0,-0.13333333,0,314.44)" />
      <path
         id="path31"
         d="m 2028.19,1509.96 v 815.8"
         style="fill:none;stroke:#231f20;stroke-width:5;stroke-linecap:butt;stroke-linejoin:miter;stroke-miterlimit:3.25;stroke-dasharray:none;stroke-opacity:1"
         transform="matrix(0.13333333,0,0,-0.13333333,0,314.44)" />
      <path
         id="path32"
         d="m 2013.19,961.789 h 132.46"
         style="fill:none;stroke:#5e7dbc;stroke-width:11.52;stroke-linecap:butt;stroke-linejoin:miter;stroke-miterlimit:3.25;stroke-dasharray:none;stroke-opacity:1"
         transform="matrix(0.13333333,0,0,-0.13333333,0,314.44)" />
      <path
         id="path33"
         d="m 2013.19,811.789 h 132.46"
         style="fill:none;stroke:#df9615;stroke-width:10;stroke-linecap:butt;stroke-linejoin:miter;stroke-miterlimit:3.25;stroke-dasharray:none;stroke-opacity:1"
         transform="matrix(0.13333333,0,0,-0.13333333,0,314.44)" />
      <path
         id="path34"
         d="m 262.613,313.922 40.395,38.93 40.43,20.718 40.394,15.52 40.41,11.879 40.426,8.25 40.391,8.781 40.414,6.641 80.816,8.769 80.797,8.61 80.84,5.07 80.797,7.281 161.657,7.039 161.63,9.59 161.62,2.422 161.64,5.367"
         style="fill:none;stroke:#5e7dbc;stroke-width:11.52;stroke-linecap:butt;stroke-linejoin:miter;stroke-miterlimit:3.25;stroke-dasharray:none;stroke-opacity:1"
         transform="matrix(0.13333333,0,0,-0.13333333,0,314.44)" />
      <path
         id="path35"
         d="m 262.613,315.66 40.395,47.07 40.43,36.93 40.394,72.899 40.41,72.031 40.426,47.64 40.391,58.211 40.414,40.957 80.816,119.391 80.797,-15.391 80.84,19.743 80.797,61.05 161.657,140.189 161.63,-10.28 161.62,3.96 161.64,21.87"
         style="fill:none;stroke:#df9615;stroke-width:10;stroke-linecap:butt;stroke-linejoin:miter;stroke-miterlimit:3.25;stroke-dasharray:none;stroke-opacity:1"
         transform="matrix(0.13333333,0,0,-0.13333333,0,314.44)" />
      <path
         id="path36"
         d="m 424.242,227.738 v 30"
         style="fill:none;stroke:#231f20;stroke-width:5;stroke-linecap:butt;stroke-linejoin:miter;stroke-miterlimit:3.25;stroke-dasharray:none;stroke-opacity:1"
         transform="matrix(0.13333333,0,0,-0.13333333,0,314.44)" />
      <path
         id="path37"
         d="m 626.289,227.738 v 30"
         style="fill:none;stroke:#231f20;stroke-width:5;stroke-linecap:butt;stroke-linejoin:miter;stroke-miterlimit:3.25;stroke-dasharray:none;stroke-opacity:1"
         transform="matrix(0.13333333,0,0,-0.13333333,0,314.44)" />
      <path
         id="path38"
         d="m 828.32,227.738 v 30"
         style="fill:none;stroke:#231f20;stroke-width:5;stroke-linecap:butt;stroke-linejoin:miter;stroke-miterlimit:3.25;stroke-dasharray:none;stroke-opacity:1"
         transform="matrix(0.13333333,0,0,-0.13333333,0,314.44)" />
      <path
         id="path39"
         d="m 1030.38,227.738 v 30"
         style="fill:none;stroke:#231f20;stroke-width:5;stroke-linecap:butt;stroke-linejoin:miter;stroke-miterlimit:3.25;stroke-dasharray:none;stroke-opacity:1"
         transform="matrix(0.13333333,0,0,-0.13333333,0,314.44)" />
      <path
         id="path40"
         d="m 1232.41,227.738 v 30"
         style="fill:none;stroke:#231f20;stroke-width:5;stroke-linecap:butt;stroke-linejoin:miter;stroke-miterlimit:3.25;stroke-dasharray:none;stroke-opacity:1"
         transform="matrix(0.13333333,0,0,-0.13333333,0,314.44)" />
      <path
         id="path41"
         d="m 1434.43,227.738 v 30"
         style="fill:none;stroke:#231f20;stroke-width:5;stroke-linecap:butt;stroke-linejoin:miter;stroke-miterlimit:3.25;stroke-dasharray:none;stroke-opacity:1"
         transform="matrix(0.13333333,0,0,-0.13333333,0,314.44)" />
      <path
         id="path42"
         d="M 222.211,257.738 H 1542.21"
         style="fill:none;stroke:#231f20;stroke-width:5;stroke-linecap:butt;stroke-linejoin:miter;stroke-miterlimit:3.25;stroke-dasharray:none;stroke-opacity:1"
         transform="matrix(0.13333333,0,0,-0.13333333,0,314.44)" />
      <path
         id="path43"
         d="m 192.211,422.082 h 30"
         style="fill:none;stroke:#231f20;stroke-width:5;stroke-linecap:butt;stroke-linejoin:miter;stroke-miterlimit:3.25;stroke-dasharray:none;stroke-opacity:1"
         transform="matrix(0.13333333,0,0,-0.13333333,0,314.44)" />
      <path
         id="path44"
         d="m 192.211,557.102 h 30"
         style="fill:none;stroke:#231f20;stroke-width:5;stroke-linecap:butt;stroke-linejoin:miter;stroke-miterlimit:3.25;stroke-dasharray:none;stroke-opacity:1"
         transform="matrix(0.13333333,0,0,-0.13333333,0,314.44)" />
      <path
         id="path45"
         d="m 192.211,692.109 h 30"
         style="fill:none;stroke:#231f20;stroke-width:5;stroke-linecap:butt;stroke-linejoin:miter;stroke-miterlimit:3.25;stroke-dasharray:none;stroke-opacity:1"
         transform="matrix(0.13333333,0,0,-0.13333333,0,314.44)" />
      <path
         id="path46"
         d="m 192.211,827.121 h 30"
         style="fill:none;stroke:#231f20;stroke-width:5;stroke-linecap:butt;stroke-linejoin:miter;stroke-miterlimit:3.25;stroke-dasharray:none;stroke-opacity:1"
         transform="matrix(0.13333333,0,0,-0.13333333,0,314.44)" />
      <path
         id="path47"
         d="m 192.211,962.172 h 30"
         style="fill:none;stroke:#231f20;stroke-width:5;stroke-linecap:butt;stroke-linejoin:miter;stroke-miterlimit:3.25;stroke-dasharray:none;stroke-opacity:1"
         transform="matrix(0.13333333,0,0,-0.13333333,0,314.44)" />
      <path
         id="path48"
         d="M 222.211,257.738 V 1073.54"
         style="fill:none;stroke:#231f20;stroke-width:5;stroke-linecap:butt;stroke-linejoin:miter;stroke-miterlimit:3.25;stroke-dasharray:none;stroke-opacity:1"
         transform="matrix(0.13333333,0,0,-0.13333333,0,314.44)" />
      <path
         id="path49"
         d="m 2.1564922,-5.7189219 c -1.34765626,0 -1.83984376,1.6054688 -1.83984376,2.9179688 0,1.4179687 0.48046875,2.90624998 1.83984376,2.90624998 1.359375,0 1.828125,-1.59374998 1.828125,-2.91796878 0,-1.3828125 -0.46875,-2.90625 -1.828125,-2.90625 z m 0,0.3046875 c 0.8085937,0 1.03125,1.3242188 1.03125,2.6015625 0,1.265625 -0.2226563,2.61328128 -1.03125,2.61328128 -0.7734375,0 -1.0429688,-1.35937498 -1.0429688,-2.61328128 0,-1.2539062 0.2226563,-2.6015625 1.0429688,-2.6015625 z m 3.1933594,5.51953128 c 0.28125,0 0.5039062,-0.19921875 0.5039062,-0.515625 0,-0.29296875 -0.2226562,-0.515625 -0.5039062,-0.515625 -0.2929688,0 -0.5039063,0.22265625 -0.5039063,0.515625 0,0.31640625 0.2109375,0.515625 0.5039063,0.515625 z M 9.8293438,-1.71875e-4 V -0.24626562 C 9.0090313,-0.30485937 8.9504375,-0.37517187 8.9504375,-1.0314219 v -4.6875 c -0.4921875,0.1992188 -1.0195312,0.375 -1.59375,0.46875 v 0.2109375 l 0.4335938,0.011719 c 0.3867187,0.023437 0.421875,0.070312 0.421875,0.5390625 v 3.4570312 c 0,0.65625003 -0.035156,0.72656253 -0.8554688,0.78515628 V -1.71875e-4 Z M 12.846922,-5.7189219 c -1.347656,0 -1.839844,1.6054688 -1.839844,2.9179688 0,1.4179687 0.480469,2.90624998 1.839844,2.90624998 1.359375,0 1.828125,-1.59374998 1.828125,-2.91796878 0,-1.3828125 -0.46875,-2.90625 -1.828125,-2.90625 z m 0,0.3046875 c 0.808594,0 1.03125,1.3242188 1.03125,2.6015625 0,1.265625 -0.222656,2.61328128 -1.03125,2.61328128 -0.773438,0 -1.042969,-1.35937498 -1.042969,-2.61328128 0,-1.2539062 0.222656,-2.6015625 1.042969,-2.6015625 z m 4.321289,-0.3046875 c -1.347656,0 -1.839844,1.6054688 -1.839844,2.9179688 0,1.4179687 0.480469,2.90624998 1.839844,2.90624998 1.359375,0 1.828125,-1.59374998 1.828125,-2.91796878 0,-1.3828125 -0.46875,-2.90625 -1.828125,-2.90625 z m 0,0.3046875 c 0.808594,0 1.03125,1.3242188 1.03125,2.6015625 0,1.265625 -0.222656,2.61328128 -1.03125,2.61328128 -0.773438,0 -1.042969,-1.35937498 -1.042969,-2.61328128 0,-1.2539062 0.222656,-2.6015625 1.042969,-2.6015625 z M 2.1564922,7.3211172 c -1.34765626,0 -1.83984376,1.6054687 -1.83984376,2.9179688 0,1.417969 0.48046875,2.90625 1.83984376,2.90625 1.359375,0 1.828125,-1.59375 1.828125,-2.917969 0,-1.3828123 -0.46875,-2.9062498 -1.828125,-2.9062498 z m 0,0.3046875 c 0.8085937,0 1.03125,1.3242187 1.03125,2.6015623 0,1.265625 -0.2226563,2.613281 -1.03125,2.613281 -0.7734375,0 -1.0429688,-1.359375 -1.0429688,-2.613281 0,-1.2539061 0.2226563,-2.6015623 1.0429688,-2.6015623 z m 3.1933594,5.5195313 c 0.28125,0 0.5039062,-0.199219 0.5039062,-0.515625 0,-0.292969 -0.2226562,-0.515625 -0.5039062,-0.515625 -0.2929688,0 -0.5039063,0.222656 -0.5039063,0.515625 0,0.316406 0.2109375,0.515625 0.5039063,0.515625 z M 8.5285625,7.3211172 c -1.3476562,0 -1.8398437,1.6054687 -1.8398437,2.9179688 0,1.417969 0.4804687,2.90625 1.8398437,2.90625 1.359375,0 1.8281255,-1.59375 1.8281255,-2.917969 0,-1.3828123 -0.4687505,-2.9062498 -1.8281255,-2.9062498 z m 0,0.3046875 c 0.8085938,0 1.03125,1.3242187 1.03125,2.6015623 0,1.265625 -0.2226562,2.613281 -1.03125,2.613281 -0.7734375,0 -1.0429687,-1.359375 -1.0429687,-2.613281 0,-1.2539061 0.2226562,-2.6015623 1.0429687,-2.6015623 z M 14.147703,13.039867 V 12.793773 C 13.327391,12.73518 13.268797,12.664867 13.268797,12.008617 V 7.3211172 c -0.492188,0.1992187 -1.019531,0.375 -1.59375,0.46875 v 0.2109375 l 0.433594,0.011719 c 0.386718,0.023437 0.421875,0.070312 0.421875,0.5390625 v 3.4570308 c 0,0.65625 -0.03516,0.726563 -0.855469,0.785156 v 0.246094 z m 3.020508,-5.7187498 c -1.347656,0 -1.839844,1.6054687 -1.839844,2.9179688 0,1.417969 0.480469,2.90625 1.839844,2.90625 1.359375,0 1.828125,-1.59375 1.828125,-2.917969 0,-1.3828123 -0.46875,-2.9062498 -1.828125,-2.9062498 z m 0,0.3046875 c 0.808594,0 1.03125,1.3242187 1.03125,2.6015623 0,1.265625 -0.222656,2.613281 -1.03125,2.613281 -0.773438,0 -1.042969,-1.359375 -1.042969,-2.613281 0,-1.2539061 0.222656,-2.6015623 1.042969,-2.6015623 z M 2.1564922,20.361156 c -1.34765626,0 -1.83984376,1.605469 -1.83984376,2.917969 0,1.417969 0.48046875,2.90625 1.83984376,2.90625 1.359375,0 1.828125,-1.59375 1.828125,-2.917969 0,-1.382812 -0.46875,-2.90625 -1.828125,-2.90625 z m 0,0.304688 c 0.8085937,0 1.03125,1.324219 1.03125,2.601562 0,1.265625 -0.2226563,2.613282 -1.03125,2.613282 -0.7734375,0 -1.0429688,-1.359375 -1.0429688,-2.613282 0,-1.253906 0.2226563,-2.601562 1.0429688,-2.601562 z m 3.1933594,5.519531 c 0.28125,0 0.5039062,-0.199219 0.5039062,-0.515625 0,-0.292969 -0.2226562,-0.515625 -0.5039062,-0.515625 -0.2929688,0 -0.5039063,0.222656 -0.5039063,0.515625 0,0.316406 0.2109375,0.515625 0.5039063,0.515625 z m 3.1787109,-5.824219 c -1.3476562,0 -1.8398437,1.605469 -1.8398437,2.917969 0,1.417969 0.4804687,2.90625 1.8398437,2.90625 1.359375,0 1.8281255,-1.59375 1.8281255,-2.917969 0,-1.382812 -0.4687505,-2.90625 -1.8281255,-2.90625 z m 0,0.304688 c 0.8085938,0 1.03125,1.324219 1.03125,2.601562 0,1.265625 -0.2226562,2.613282 -1.03125,2.613282 -0.7734375,0 -1.0429687,-1.359375 -1.0429687,-2.613282 0,-1.253906 0.2226562,-2.601562 1.0429687,-2.601562 z m 4.3183595,-0.304688 c -1.347656,0 -1.839844,1.605469 -1.839844,2.917969 0,1.417969 0.480469,2.90625 1.839844,2.90625 1.359375,0 1.828125,-1.59375 1.828125,-2.917969 0,-1.382812 -0.46875,-2.90625 -1.828125,-2.90625 z m 0,0.304688 c 0.808594,0 1.03125,1.324219 1.03125,2.601562 0,1.265625 -0.222656,2.613282 -1.03125,2.613282 -0.773438,0 -1.042969,-1.359375 -1.042969,-2.613282 0,-1.253906 0.222656,-2.601562 1.042969,-2.601562 z m 5.62207,5.414062 v -0.246093 c -0.820312,-0.05859 -0.878906,-0.128907 -0.878906,-0.785157 v -4.6875 c -0.492188,0.199219 -1.019531,0.375 -1.59375,0.46875 v 0.210938 l 0.433594,0.01172 c 0.386718,0.02344 0.421875,0.07031 0.421875,0.539062 v 3.457031 c 0,0.65625 -0.03516,0.726563 -0.855469,0.785157 v 0.246093 z M 8.1506328,39.119945 V 38.873852 C 7.3303203,38.815258 7.2717266,38.744945 7.2717266,38.088695 v -4.6875 c -0.4921875,0.199219 -1.0195313,0.375 -1.59375,0.46875 v 0.210938 l 0.4335937,0.01172 c 0.3867188,0.02344 0.421875,0.07031 0.421875,0.539062 v 3.457031 c 0,0.65625 -0.035156,0.726563 -0.8554687,0.785157 v 0.246093 z m 3.0175782,-5.71875 c -1.3476563,0 -1.8398438,1.605469 -1.8398438,2.917969 0,1.417969 0.4804687,2.90625 1.8398438,2.90625 1.359375,0 1.828125,-1.59375 1.828125,-2.917969 0,-1.382812 -0.46875,-2.90625 -1.828125,-2.90625 z m 0,0.304688 c 0.808594,0 1.03125,1.324219 1.03125,2.601562 0,1.265625 -0.222656,2.613282 -1.03125,2.613282 -0.773438,0 -1.042969,-1.359375 -1.042969,-2.613282 0,-1.253906 0.222656,-2.601562 1.042969,-2.601562 z M 17.552,34.315258 v -0.46875 h -3.773437 v 0.46875 z m 3.00293,0.199219 v -0.421875 h -0.867188 v -3.65625 H 19.33618 c -0.925782,1.21875 -1.851563,2.554687 -2.707032,3.832031 v 0.246094 h 2.34375 v 0.65625 c 0,0.585937 -0.03516,0.644531 -0.820312,0.703125 v 0.246093 h 2.308594 v -0.246093 c -0.726563,-0.05859 -0.773438,-0.105469 -0.773438,-0.703125 v -0.65625 z m -1.582032,-0.421875 h -1.769531 c 0.585938,-0.996094 1.171875,-1.851563 1.757813,-2.648438 H 18.9729 Z M 8.1506328,52.159984 V 51.913891 C 7.3303203,51.855297 7.2717266,51.784984 7.2717266,51.128734 v -4.6875 c -0.4921875,0.199219 -1.0195313,0.375 -1.59375,0.46875 v 0.210938 l 0.4335937,0.01172 c 0.3867188,0.02344 0.421875,0.07031 0.421875,0.539062 v 3.457031 c 0,0.65625 -0.035156,0.726563 -0.8554687,0.785157 v 0.246093 z m 3.0175782,-5.71875 c -1.3476563,0 -1.8398438,1.605469 -1.8398438,2.917969 0,1.417969 0.4804687,2.90625 1.8398438,2.90625 1.359375,0 1.828125,-1.59375 1.828125,-2.917969 0,-1.382812 -0.46875,-2.90625 -1.828125,-2.90625 z m 0,0.304688 c 0.808594,0 1.03125,1.324219 1.03125,2.601562 0,1.265625 -0.222656,2.613282 -1.03125,2.613282 -0.773438,0 -1.042969,-1.359375 -1.042969,-2.613282 0,-1.253906 0.222656,-2.601562 1.042969,-2.601562 z M 17.552,47.355297 v -0.46875 h -3.773437 v 0.46875 z m 0.272461,-3.140625 h 2.097656 l 0.234375,-0.585938 -0.05859,-0.07031 h -2.566406 l -0.351562,2.742187 c 0.210937,-0.08203 0.550781,-0.1875 0.925781,-0.1875 0.984375,0 1.464844,0.574219 1.464844,1.359375 0,0.679688 -0.375,1.335938 -1.136719,1.335938 -0.550781,0 -0.914063,-0.292969 -1.113281,-0.457031 -0.08203,-0.07031 -0.152344,-0.05859 -0.234375,0 -0.105469,0.09375 -0.1875,0.210937 -0.1875,0.292968 -0.02344,0.105469 0.02344,0.1875 0.140625,0.304688 0.128906,0.128906 0.515625,0.316406 0.925781,0.316406 0.480469,-0.01172 1.078125,-0.246094 1.570312,-0.632812 0.550782,-0.457032 0.796875,-0.960938 0.796875,-1.511719 0,-0.738281 -0.585937,-1.511719 -1.734375,-1.511719 -0.246093,0 -0.667968,0.140625 -1.007812,0.269531 z M 8.1506328,65.200023 V 64.95393 C 7.3303203,64.895336 7.2717266,64.825023 7.2717266,64.168773 v -4.6875 c -0.4921875,0.199219 -1.0195313,0.375 -1.59375,0.46875 v 0.210938 l 0.4335937,0.01172 c 0.3867188,0.02344 0.421875,0.07031 0.421875,0.539062 v 3.457031 c 0,0.65625 -0.035156,0.726563 -0.8554687,0.785157 v 0.246093 z m 3.0175782,-5.71875 c -1.3476563,0 -1.8398438,1.605469 -1.8398438,2.917969 0,1.417969 0.4804687,2.90625 1.8398438,2.90625 1.359375,0 1.828125,-1.59375 1.828125,-2.917969 0,-1.382812 -0.46875,-2.90625 -1.828125,-2.90625 z m 0,0.304688 c 0.808594,0 1.03125,1.324219 1.03125,2.601562 0,1.265625 -0.222656,2.613282 -1.03125,2.613282 -0.773438,0 -1.042969,-1.359375 -1.042969,-2.613282 0,-1.253906 0.222656,-2.601562 1.042969,-2.601562 z M 17.552,60.395336 v -0.46875 h -3.773437 v 0.46875 z m 0.131836,-1.277344 c 0.269531,-1.253906 1.113281,-1.828125 1.664062,-2.085937 0.328125,-0.152344 0.679688,-0.257813 0.972657,-0.316407 l -0.05859,-0.28125 c -0.363281,0.05859 -0.796875,0.164063 -1.148438,0.28125 -0.960937,0.351563 -2.332031,1.371094 -2.332031,3.339844 0,1.382813 0.796875,2.25 1.851563,2.25 1.078125,0 1.839843,-0.902344 1.839843,-1.980469 0,-0.925781 -0.65625,-1.664062 -1.617187,-1.664062 -0.175781,0 -0.363281,0.07031 -0.5625,0.152344 z m 0.820312,0.04687 c 0.820313,0 1.195313,0.738281 1.195313,1.488281 0,0.597657 -0.210938,1.347657 -0.914063,1.347657 -0.738281,0 -1.195312,-0.878907 -1.195312,-1.957032 0,-0.234375 0.01172,-0.457031 0.04687,-0.621093 0.222656,-0.117188 0.527344,-0.257813 0.867187,-0.257813 z M -169.7312,135.66487 v -0.2461 c -0.82032,-0.0586 -0.87891,-0.1289 -0.87891,-0.78515 v -4.6875 c -0.49219,0.19922 -1.01953,0.375 -1.59375,0.46875 v 0.21093 l 0.43359,0.0117 c 0.38672,0.0234 0.42188,0.0703 0.42188,0.53907 v 3.45703 c 0,0.65625 -0.0352,0.72656 -0.85547,0.78515 v 0.2461 z m 3.0205,-5.71875 c -1.34765,0 -1.83984,1.60547 -1.83984,2.91797 0,1.41796 0.48047,2.90625 1.83984,2.90625 1.35938,0 1.82813,-1.59375 1.82813,-2.91797 0,-1.38282 -0.46875,-2.90625 -1.82813,-2.90625 z m 0,0.30468 c 0.8086,0 1.03125,1.32422 1.03125,2.60157 0,1.26562 -0.22265,2.61328 -1.03125,2.61328 -0.77343,0 -1.04296,-1.35938 -1.04296,-2.61328 0,-1.25391 0.22265,-2.60157 1.04296,-2.60157 z m 3.39258,-0.66796 c 0.26953,-1.25391 1.11328,-1.82813 1.66407,-2.08594 0.32812,-0.15235 0.67968,-0.25781 0.97265,-0.31641 l -0.0586,-0.28125 c -0.36328,0.0586 -0.79688,0.16406 -1.14844,0.28125 -0.96094,0.35156 -2.33203,1.3711 -2.33203,3.33985 0,1.38281 0.79687,2.25 1.85156,2.25 1.07813,0 1.83985,-0.90235 1.83985,-1.98047 0,-0.92578 -0.65625,-1.66407 -1.61719,-1.66407 -0.17578,0 -0.36328,0.0703 -0.5625,0.15235 z m 0.82032,0.0469 c 0.82031,0 1.19531,0.73828 1.19531,1.48828 0,0.59766 -0.21094,1.34766 -0.91406,1.34766 -0.73829,0 -1.19532,-0.87891 -1.19532,-1.95703 0,-0.23438 0.0117,-0.45703 0.0469,-0.6211 0.22265,-0.11718 0.52734,-0.25781 0.86719,-0.25781 z m -7.2334,19.53516 v -0.2461 c -0.82032,-0.0586 -0.87891,-0.1289 -0.87891,-0.78515 v -4.6875 c -0.49219,0.19922 -1.01953,0.375 -1.59375,0.46875 v 0.21093 l 0.43359,0.0117 c 0.38672,0.0234 0.42188,0.0703 0.42188,0.53907 v 3.45703 c 0,0.65625 -0.0352,0.72656 -0.85547,0.78515 v 0.2461 z m 3.0205,-5.71875 c -1.34765,0 -1.83984,1.60547 -1.83984,2.91797 0,1.41796 0.48047,2.90625 1.83984,2.90625 1.35938,0 1.82813,-1.59375 1.82813,-2.91797 0,-1.38282 -0.46875,-2.90625 -1.82813,-2.90625 z m 0,0.30468 c 0.8086,0 1.03125,1.32422 1.03125,2.60157 0,1.26562 -0.22265,2.61328 -1.03125,2.61328 -0.77343,0 -1.04296,-1.35938 -1.04296,-2.61328 0,-1.25391 0.22265,-2.60157 1.04296,-2.60157 z m 3.53321,-2.53125 h 2.09765 l 0.23438,-0.58593 -0.0586,-0.0703 h -2.56641 l -0.35156,2.74219 c 0.21093,-0.082 0.55078,-0.1875 0.92578,-0.1875 0.98437,0 1.46484,0.57422 1.46484,1.35938 0,0.67968 -0.375,1.33593 -1.13672,1.33593 -0.55078,0 -0.91406,-0.29296 -1.11328,-0.45703 -0.082,-0.0703 -0.15234,-0.0586 -0.23437,0 -0.10547,0.0937 -0.1875,0.21094 -0.1875,0.29297 -0.0234,0.10547 0.0234,0.1875 0.14062,0.30469 0.12891,0.12891 0.51563,0.31641 0.92578,0.31641 0.48047,-0.0117 1.07813,-0.2461 1.57032,-0.63282 0.55078,-0.45703 0.79687,-0.96093 0.79687,-1.51172 0,-0.73828 -0.58594,-1.51171 -1.73437,-1.51171 -0.2461,0 -0.66797,0.14062 -1.00782,0.26953 z m -6.55371,21.44532 v -0.2461 c -0.82032,-0.0586 -0.87891,-0.1289 -0.87891,-0.78515 v -4.6875 c -0.49219,0.19922 -1.01953,0.375 -1.59375,0.46875 v 0.21093 l 0.43359,0.0117 c 0.38672,0.0234 0.42188,0.0703 0.42188,0.53907 v 3.45703 c 0,0.65625 -0.0352,0.72656 -0.85547,0.78515 v 0.2461 z m 3.0205,-5.71875 c -1.34765,0 -1.83984,1.60547 -1.83984,2.91797 0,1.41796 0.48047,2.90625 1.83984,2.90625 1.35938,0 1.82813,-1.59375 1.82813,-2.91797 0,-1.38282 -0.46875,-2.90625 -1.82813,-2.90625 z m 0,0.30468 c 0.8086,0 1.03125,1.32422 1.03125,2.60157 0,1.26562 -0.22265,2.61328 -1.03125,2.61328 -0.77343,0 -1.04296,-1.35938 -1.04296,-2.61328 0,-1.25391 0.22265,-2.60157 1.04296,-2.60157 z m 6.26368,0.8086 v -0.42188 h -0.86719 v -3.65625 h -0.35156 c -0.92578,1.21875 -1.85157,2.55469 -2.70703,3.83203 v 0.2461 h 2.34375 v 0.65625 c 0,0.58594 -0.0352,0.64453 -0.82032,0.70312 v 0.2461 h 2.3086 v -0.2461 c -0.72657,-0.0586 -0.77344,-0.10547 -0.77344,-0.70312 v -0.65625 z m -1.58203,-0.42188 h -1.76954 c 0.58594,-0.99609 1.17188,-1.85156 1.75782,-2.64843 h 0.0117 z m -13.46192,18.52735 v -0.2461 c -0.82031,-0.0586 -0.8789,-0.1289 -0.8789,-0.78515 v -4.6875 c -0.49219,0.19922 -1.01954,0.375 -1.59375,0.46875 v 0.21093 l 0.43359,0.0117 c 0.38672,0.0234 0.42187,0.0703 0.42187,0.53907 v 3.45703 c 0,0.65625 -0.0352,0.72656 -0.85546,0.78515 v 0.2461 z m 3.02051,-5.71875 c -1.34766,0 -1.83984,1.60547 -1.83984,2.91797 0,1.41796 0.48046,2.90625 1.83984,2.90625 1.35937,0 1.82812,-1.59375 1.82812,-2.91797 0,-1.38282 -0.46875,-2.90625 -1.82812,-2.90625 z m 0,0.30468 c 0.80859,0 1.03125,1.32422 1.03125,2.60157 0,1.26562 -0.22266,2.61328 -1.03125,2.61328 -0.77344,0 -1.04297,-1.35938 -1.04297,-2.61328 0,-1.25391 0.22266,-2.60157 1.04297,-2.60157 z m 4.31836,-0.30468 c -1.34766,0 -1.83985,1.60547 -1.83985,2.91797 0,1.41796 0.48047,2.90625 1.83985,2.90625 1.35937,0 1.82812,-1.59375 1.82812,-2.91797 0,-1.38282 -0.46875,-2.90625 -1.82812,-2.90625 z m 0,0.30468 c 0.80859,0 1.03125,1.32422 1.03125,2.60157 0,1.26562 -0.22266,2.61328 -1.03125,2.61328 -0.77344,0 -1.04297,-1.35938 -1.04297,-2.61328 0,-1.25391 0.22266,-2.60157 1.04297,-2.60157 z m 4.32129,-0.30468 c -1.34766,0 -1.83985,1.60547 -1.83985,2.91797 0,1.41796 0.48047,2.90625 1.83985,2.90625 1.35937,0 1.82812,-1.59375 1.82812,-2.91797 0,-1.38282 -0.46875,-2.90625 -1.82812,-2.90625 z m 0,0.30468 c 0.80859,0 1.03125,1.32422 1.03125,2.60157 0,1.26562 -0.22266,2.61328 -1.03125,2.61328 -0.77344,0 -1.04297,-1.35938 -1.04297,-2.61328 0,-1.25391 0.22266,-2.60157 1.04297,-2.60157 z m -7.33887,18.91407 v -0.2461 c -0.82031,-0.0586 -0.87891,-0.1289 -0.87891,-0.78515 v -4.6875 c -0.49218,0.19922 -1.01953,0.375 -1.59375,0.46875 v 0.21093 l 0.4336,0.0117 c 0.38672,0.0234 0.42187,0.0703 0.42187,0.53907 v 3.45703 c 0,0.65625 -0.0352,0.72656 -0.85547,0.78515 v 0.2461 z m 3.01758,-5.71875 c -1.34766,0 -1.83985,1.60547 -1.83985,2.91797 0,1.41796 0.48047,2.90625 1.83985,2.90625 1.35937,0 1.82812,-1.59375 1.82812,-2.91797 0,-1.38282 -0.46875,-2.90625 -1.82812,-2.90625 z m 0,0.30468 c 0.80859,0 1.03125,1.32422 1.03125,2.60157 0,1.26562 -0.22266,2.61328 -1.03125,2.61328 -0.77344,0 -1.04297,-1.35938 -1.04297,-2.61328 0,-1.25391 0.22266,-2.60157 1.04297,-2.60157 z m 4.32129,-0.30468 c -1.34766,0 -1.83985,1.60547 -1.83985,2.91797 0,1.41796 0.48047,2.90625 1.83985,2.90625 1.35937,0 1.82812,-1.59375 1.82812,-2.91797 0,-1.38282 -0.46875,-2.90625 -1.82812,-2.90625 z m 0,0.30468 c 0.80859,0 1.03125,1.32422 1.03125,2.60157 0,1.26562 -0.22266,2.61328 -1.03125,2.61328 -0.77344,0 -1.04297,-1.35938 -1.04297,-2.61328 0,-1.25391 0.22266,-2.60157 1.04297,-2.60157 z M -168.9021,11.410961 v -0.246094 c -0.82031,-0.05859 -0.87891,-0.128906 -0.87891,-0.785156 V 5.6922109 c -0.49219,0.1992188 -1.01953,0.375 -1.59375,0.46875 v 0.2109375 l 0.4336,0.011719 c 0.38671,0.023437 0.42187,0.070312 0.42187,0.5390625 v 3.4570311 c 0,0.65625 -0.0352,0.726562 -0.85547,0.785156 v 0.246094 z m 1.89258,0.105469 c 0.28125,0 0.5039,-0.199219 0.5039,-0.515625 0,-0.292969 -0.22265,-0.515625 -0.5039,-0.515625 -0.29297,0 -0.50391,0.222656 -0.50391,0.515625 0,0.316406 0.21094,0.515625 0.50391,0.515625 z m 2.39355,-5.0507816 h 2.09766 l 0.23437,-0.5859375 -0.0586,-0.070312 h -2.56641 l -0.35156,2.7421875 c 0.21094,-0.082031 0.55078,-0.1875 0.92578,-0.1875 0.98438,0 1.46485,0.5742188 1.46485,1.359375 0,0.6796876 -0.375,1.3359376 -1.13672,1.3359376 -0.55078,0 -0.91407,-0.292968 -1.11328,-0.457031 -0.082,-0.07031 -0.15235,-0.05859 -0.23438,0 -0.10547,0.09375 -0.1875,0.210938 -0.1875,0.292968 -0.0234,0.105469 0.0234,0.1875 0.14063,0.304687 0.1289,0.128907 0.51562,0.316407 0.92578,0.316407 0.48047,-0.01172 1.07812,-0.246094 1.57031,-0.632813 0.55078,-0.457031 0.79687,-0.9609368 0.79687,-1.5117181 0,-0.7382812 -0.58593,-1.5117187 -1.73437,-1.5117187 -0.24609,0 -0.66797,0.140625 -1.00781,0.2695312 z m -4.28613,28.2539066 v -0.246094 c -0.82031,-0.05859 -0.87891,-0.128906 -0.87891,-0.785156 v -4.6875 c -0.49219,0.199218 -1.01953,0.375 -1.59375,0.46875 v 0.210937 l 0.4336,0.01172 c 0.38671,0.02344 0.42187,0.07031 0.42187,0.539062 v 3.457032 c 0,0.65625 -0.0352,0.726562 -0.85547,0.785156 v 0.246094 z m 1.89258,0.105468 c 0.28125,0 0.5039,-0.199218 0.5039,-0.515625 0,-0.292968 -0.22265,-0.515625 -0.5039,-0.515625 -0.29297,0 -0.50391,0.222657 -0.50391,0.515625 0,0.316407 0.21094,0.515625 0.50391,0.515625 z m 3.17871,-5.824218 c -1.34766,0 -1.83985,1.605468 -1.83985,2.917968 0,1.417969 0.48047,2.90625 1.83985,2.90625 1.35937,0 1.82812,-1.59375 1.82812,-2.917968 0,-1.382813 -0.46875,-2.90625 -1.82812,-2.90625 z m 0,0.304687 c 0.80859,0 1.03125,1.324219 1.03125,2.601563 0,1.265625 -0.22266,2.613281 -1.03125,2.613281 -0.77344,0 -1.04297,-1.359375 -1.04297,-2.613281 0,-1.253907 0.22266,-2.601563 1.04297,-2.601563 z m -6.37207,23.006836 c -1.34766,0 -1.83985,1.605469 -1.83985,2.917969 0,1.417969 0.48047,2.90625 1.83985,2.90625 1.35937,0 1.82812,-1.59375 1.82812,-2.917969 0,-1.382812 -0.46875,-2.90625 -1.82812,-2.90625 z m 0,0.304688 c 0.80859,0 1.03125,1.324218 1.03125,2.601562 0,1.265625 -0.22266,2.613281 -1.03125,2.613281 -0.77344,0 -1.04297,-1.359375 -1.04297,-2.613281 0,-1.253906 0.22265,-2.601562 1.04297,-2.601562 z m 3.19336,5.519531 c 0.28125,0 0.5039,-0.199219 0.5039,-0.515625 0,-0.292969 -0.22265,-0.515625 -0.5039,-0.515625 -0.29297,0 -0.50391,0.222656 -0.50391,0.515625 0,0.316406 0.21094,0.515625 0.50391,0.515625 z m 2.39355,-5.050781 h 2.09766 l 0.23437,-0.585938 -0.0586,-0.07031 h -2.56641 l -0.35156,2.742187 c 0.21094,-0.08203 0.55078,-0.1875 0.92578,-0.1875 0.98438,0 1.46485,0.574219 1.46485,1.359375 0,0.679688 -0.375,1.335938 -1.13672,1.335938 -0.55078,0 -0.91407,-0.292969 -1.11328,-0.457032 -0.082,-0.07031 -0.15235,-0.05859 -0.23438,0 -0.10547,0.09375 -0.1875,0.210938 -0.1875,0.292969 -0.0234,0.105469 0.0234,0.1875 0.14063,0.304688 0.1289,0.128906 0.51562,0.316406 0.92578,0.316406 0.48047,-0.01172 1.07812,-0.246094 1.57031,-0.632813 0.55078,-0.457031 0.79687,-0.960937 0.79687,-1.511718 0,-0.738282 -0.58593,-1.511719 -1.73437,-1.511719 -0.24609,0 -0.66797,0.140625 -1.00781,0.269531 z m 13.18067,35.557617 c -0.26954,0.574219 -0.38672,0.609375 -0.86719,0.609375 h -1.6875 l 1.27734,-1.335938 c 0.83203,-0.890625 1.19531,-1.417968 1.19531,-2.203125 0,-0.949218 -0.72656,-1.523437 -1.51171,-1.523437 -0.52735,0 -0.94922,0.234375 -1.21875,0.539062 l -0.51563,0.726563 0.19922,0.175781 c 0.23437,-0.351562 0.60937,-0.832031 1.23047,-0.832031 0.65625,0 1.05469,0.433594 1.05469,1.195312 0,0.773438 -0.5625,1.511719 -1.125,2.179688 -0.44532,0.515625 -0.94922,1.03125 -1.45313,1.523437 v 0.210938 h 3.36328 c 0.10547,-0.410156 0.19922,-0.796875 0.31641,-1.183594 z m -4.50586,1.265625 v -0.246094 c -0.82032,-0.05859 -0.87891,-0.128906 -0.87891,-0.785156 v -4.6875 c -0.49219,0.199219 -1.01953,0.375 -1.59375,0.46875 v 0.210937 l 0.43359,0.01172 c 0.38672,0.02344 0.42188,0.07031 0.42188,0.539063 v 3.457031 c 0,0.65625 -0.0352,0.726562 -0.85547,0.785156 v 0.246094 z m 186.33398,0 v -0.246094 c -0.820312,-0.05859 -0.878906,-0.128906 -0.878906,-0.785156 v -4.6875 c -0.492187,0.199219 -1.019531,0.375 -1.59375,0.46875 v 0.210937 l 0.433594,0.01172 c 0.386719,0.02344 0.421875,0.07031 0.421875,0.539063 v 3.457031 c 0,0.65625 -0.03516,0.726562 -0.855469,0.785156 v 0.246094 z m 25.060547,-1.265625 c -0.269531,0.574219 -0.386719,0.609375 -0.867187,0.609375 h -1.6875 l 1.277343,-1.335938 c 0.832032,-0.890625 1.195313,-1.417968 1.195313,-2.203125 0,-0.949218 -0.726563,-1.523437 -1.511719,-1.523437 -0.527344,0 -0.949219,0.234375 -1.21875,0.539062 l -0.515625,0.726563 0.199219,0.175781 c 0.234375,-0.351562 0.609375,-0.832031 1.230469,-0.832031 0.65625,0 1.054687,0.433594 1.054687,1.195312 0,0.773438 -0.5625,1.511719 -1.125,2.179688 -0.445312,0.515625 -0.949219,1.03125 -1.453125,1.523437 v 0.210938 h 3.363281 c 0.105469,-0.410156 0.199219,-0.796875 0.316407,-1.183594 z m -14.43164,46.016597 v -0.25781 c -0.738282,-0.0469 -0.808594,-0.0937 -0.808594,-0.86719 v -3.59765 c 0,-0.76172 0.07031,-0.82031 0.808594,-0.87891 v -0.24609 h -2.390625 v 0.24609 c 0.738281,0.0586 0.808593,0.11719 0.808593,0.87891 v 3.59765 c 0,0.76172 -0.07031,0.82032 -0.808593,0.86719 v 0.25781 z m 4.907226,0 v -0.23437 c -0.527344,-0.0586 -0.574219,-0.0937 -0.574219,-0.70313 v -1.73437 c 0,-0.87891 -0.445312,-1.37109 -1.160156,-1.37109 -0.257812,0 -0.492187,0.10546 -0.75,0.26953 -0.222656,0.15234 -0.421875,0.29297 -0.597656,0.42187 v -0.71484 c -0.398438,0.17578 -0.820313,0.28125 -1.253906,0.36328 v 0.21094 c 0.492187,0.0937 0.539062,0.11718 0.539062,0.6914 v 1.86328 c 0,0.59766 -0.04687,0.64454 -0.65625,0.70313 v 0.23437 h 1.957031 v -0.23437 c -0.527343,-0.0586 -0.585937,-0.0937 -0.585937,-0.70313 v -2.10937 c 0.269531,-0.23438 0.621094,-0.46875 0.984375,-0.46875 0.597656,0 0.820312,0.41016 0.820312,1.03125 v 1.5 c 0,0.62109 -0.07031,0.69141 -0.597656,0.75 v 0.23437 z m 4.828125,-0.45703 -0.292969,-0.0234 c -0.328125,-0.0469 -0.386718,-0.082 -0.386718,-0.55079 v -5.3789 c -0.339844,0.11719 -0.9375,0.25781 -1.40625,0.3164 v 0.21094 c 0.644531,0.0469 0.691406,0.082 0.691406,0.66797 v 1.27734 c -0.210938,-0.082 -0.46875,-0.10546 -0.597656,-0.10546 -1.21875,0 -2.320313,0.98437 -2.320313,2.23828 0,1.2539 0.949219,1.91015 1.664063,1.91015 0.105468,0 0.351562,-0.0469 0.703125,-0.25781 l 0.550781,-0.32812 v 0.58593 c 0.527344,-0.1875 1.195312,-0.30468 1.394531,-0.33984 z m -1.394531,-0.30468 c -0.210938,0.16406 -0.539063,0.30468 -0.867188,0.30468 -0.574218,0 -1.230468,-0.52734 -1.230468,-1.59375 0,-1.30078 0.761718,-1.65234 1.171875,-1.65234 0.339843,0 0.714843,0.14062 0.925781,0.45703 z m 4.904297,-0.1875 c -0.328125,0.30468 -0.667969,0.44531 -1.019531,0.44531 -0.632813,0 -1.335938,-0.50391 -1.347657,-1.72266 1.066407,-0.0469 2.191407,-0.1289 2.355469,-0.16406 0.152344,-0.0352 0.199219,-0.10547 0.199219,-0.28125 0,-0.70313 -0.597656,-1.37109 -1.347656,-1.37109 -0.46875,0 -0.949219,0.24609 -1.324219,0.65625 -0.363281,0.41015 -0.597656,0.96093 -0.597656,1.58203 0,1.00781 0.65625,1.91015 1.757812,1.91015 0.28125,0 0.902344,-0.16406 1.464844,-0.86718 z m -1.371094,-2.75391 c 0.492188,0 0.796875,0.42187 0.785156,0.89062 0,0.12891 -0.04687,0.1875 -0.210937,0.1875 -0.527344,0.0117 -1.019531,0.0234 -1.523438,0.0234 0.128907,-0.72656 0.527344,-1.10156 0.949219,-1.10156 z m 3.307617,0.28125 v -0.71484 c -0.421875,0.17578 -0.925781,0.32812 -1.3125,0.39843 v 0.21094 c 0.5625,0.0703 0.597656,0.0937 0.597656,0.67969 v 4.0664 c 0,0.58594 -0.08203,0.64454 -0.65625,0.70313 v 0.23437 h 2.132813 v -0.23437 c -0.703125,-0.0703 -0.761719,-0.11719 -0.761719,-0.79688 v -1.18359 c 0.117188,0.0703 0.363281,0.15234 0.621094,0.16406 1.171875,-0.21093 2.238281,-1.08984 2.238281,-2.44922 0,-0.89062 -0.597656,-1.69921 -1.59375,-1.69921 -0.105469,0 -0.28125,0.0469 -0.445312,0.14062 z m 0,0.30469 c 0.246094,-0.1875 0.609375,-0.38672 0.902344,-0.38672 0.65625,0 1.207031,0.53906 1.207031,1.51172 0,1.00781 -0.515625,1.66406 -1.265625,1.66406 -0.304687,0 -0.644531,-0.15234 -0.84375,-0.35156 z m 6.685547,2.16797 c -0.328125,0.30468 -0.667969,0.44531 -1.019531,0.44531 -0.632813,0 -1.335938,-0.50391 -1.347656,-1.72266 1.066406,-0.0469 2.191406,-0.1289 2.355468,-0.16406 0.152344,-0.0352 0.199219,-0.10547 0.199219,-0.28125 0,-0.70313 -0.597656,-1.37109 -1.347656,-1.37109 -0.46875,0 -0.949219,0.24609 -1.324219,0.65625 -0.363281,0.41015 -0.597656,0.96093 -0.597656,1.58203 0,1.00781 0.65625,1.91015 1.757812,1.91015 0.28125,0 0.902344,-0.16406 1.464844,-0.86718 z m -1.371094,-2.75391 c 0.492188,0 0.796875,0.42187 0.785157,0.89062 0,0.12891 -0.04687,0.1875 -0.210938,0.1875 -0.527344,0.0117 -1.019531,0.0234 -1.523437,0.0234 0.128906,-0.72656 0.527343,-1.10156 0.949218,-1.10156 z m 6.495118,3.70312 v -0.23437 c -0.527344,-0.0586 -0.574219,-0.0937 -0.574219,-0.70313 v -1.73437 c 0,-0.87891 -0.445313,-1.37109 -1.160156,-1.37109 -0.257813,0 -0.492188,0.10546 -0.75,0.26953 -0.222657,0.15234 -0.421875,0.29297 -0.597657,0.42187 v -0.71484 c -0.398437,0.17578 -0.820312,0.28125 -1.253906,0.36328 v 0.21094 c 0.492188,0.0937 0.539063,0.11718 0.539063,0.6914 v 1.86328 c 0,0.59766 -0.04687,0.64454 -0.65625,0.70313 v 0.23437 h 1.957031 v -0.23437 c -0.527344,-0.0586 -0.585938,-0.0937 -0.585938,-0.70313 v -2.10937 c 0.269532,-0.23438 0.621094,-0.46875 0.984375,-0.46875 0.597657,0 0.820313,0.41016 0.820313,1.03125 v 1.5 c 0,0.62109 -0.07031,0.69141 -0.597656,0.75 v 0.23437 z m 4.828125,-0.45703 -0.292969,-0.0234 c -0.328125,-0.0469 -0.386719,-0.082 -0.386719,-0.55079 v -5.3789 c -0.339844,0.11719 -0.9375,0.25781 -1.40625,0.3164 v 0.21094 c 0.644531,0.0469 0.691406,0.082 0.691406,0.66797 v 1.27734 c -0.210937,-0.082 -0.46875,-0.10546 -0.597656,-0.10546 -1.21875,0 -2.320312,0.98437 -2.320312,2.23828 0,1.2539 0.949218,1.91015 1.664062,1.91015 0.105469,0 0.351563,-0.0469 0.703125,-0.25781 l 0.550781,-0.32812 v 0.58593 c 0.527344,-0.1875 1.195313,-0.30468 1.394532,-0.33984 z m -1.394532,-0.30468 c -0.210937,0.16406 -0.539062,0.30468 -0.867187,0.30468 -0.574219,0 -1.230469,-0.52734 -1.230469,-1.59375 0,-1.30078 0.761719,-1.65234 1.171875,-1.65234 0.339844,0 0.714844,0.14062 0.925781,0.45703 z m 4.904297,-0.1875 c -0.328125,0.30468 -0.667969,0.44531 -1.019531,0.44531 -0.632813,0 -1.335938,-0.50391 -1.347656,-1.72266 1.066406,-0.0469 2.191406,-0.1289 2.355468,-0.16406 0.152344,-0.0352 0.199219,-0.10547 0.199219,-0.28125 0,-0.70313 -0.597656,-1.37109 -1.347656,-1.37109 -0.46875,0 -0.949219,0.24609 -1.324219,0.65625 -0.363281,0.41015 -0.597656,0.96093 -0.597656,1.58203 0,1.00781 0.65625,1.91015 1.757812,1.91015 0.28125,0 0.902344,-0.16406 1.464844,-0.86718 z m -1.371094,-2.75391 c 0.492188,0 0.796875,0.42187 0.785157,0.89062 0,0.12891 -0.04687,0.1875 -0.210938,0.1875 -0.527344,0.0117 -1.019531,0.0234 -1.523437,0.0234 0.128906,-0.72656 0.527343,-1.10156 0.949218,-1.10156 z m 6.498047,3.70312 v -0.23437 c -0.527343,-0.0586 -0.574218,-0.0937 -0.574218,-0.70313 v -1.73437 c 0,-0.87891 -0.445313,-1.37109 -1.160157,-1.37109 -0.257812,0 -0.492187,0.10546 -0.75,0.26953 -0.222656,0.15234 -0.421875,0.29297 -0.597656,0.42187 v -0.71484 c -0.398437,0.17578 -0.820312,0.28125 -1.253906,0.36328 v 0.21094 c 0.492187,0.0937 0.539062,0.11718 0.539062,0.6914 v 1.86328 c 0,0.59766 -0.04687,0.64454 -0.65625,0.70313 v 0.23437 h 1.957032 v -0.23437 c -0.527344,-0.0586 -0.585938,-0.0937 -0.585938,-0.70313 v -2.10937 c 0.269531,-0.23438 0.621094,-0.46875 0.984375,-0.46875 0.597656,0 0.820313,0.41016 0.820313,1.03125 v 1.5 c 0,0.62109 -0.07031,0.69141 -0.597657,0.75 v 0.23437 z m 2.72461,-0.32812 -0.08203,-0.23438 c -0.128906,0.0703 -0.328125,0.15235 -0.5625,0.15235 -0.222656,0 -0.515625,-0.12891 -0.515625,-0.85547 v -2.32031 h 0.960938 c 0.105469,-0.0586 0.128906,-0.25782 0.05859,-0.35157 h -1.019532 v -1.23046 l -0.128906,-0.0117 -0.585937,0.58593 v 0.65625 h -0.410157 l -0.246093,0.26954 0.03516,0.082 h 0.621094 v 2.625 c 0,0.70312 0.316406,1.0664 0.878906,1.0664 0.08203,0 0.234375,-0.0351 0.386719,-0.11718 z m -42.231446,10.79297 c -0.07031,-0.5625 -0.117187,-0.91406 -0.152343,-1.24219 -0.339844,-0.10547 -0.714844,-0.21094 -1.136719,-0.21094 -1.160156,0 -1.851563,0.73828 -1.851563,1.60547 0,1.01953 0.914063,1.46485 1.488282,1.76953 0.667968,0.36328 1.171875,0.67969 1.171875,1.34766 0,0.65625 -0.410157,1.07812 -1.089844,1.07812 -0.925781,0 -1.324219,-0.91406 -1.464844,-1.46484 l -0.269531,0.0703 c 0.05859,0.4336 0.175781,1.20703 0.246094,1.39453 0.08203,0.0469 0.210937,0.10547 0.445312,0.1875 0.222656,0.0586 0.503906,0.14063 0.878906,0.14063 1.195313,0 1.992188,-0.76172 1.992188,-1.71094 0,-1.00781 -0.855469,-1.42969 -1.546875,-1.78125 -0.714844,-0.375 -1.148438,-0.67969 -1.148438,-1.33594 0,-0.49218 0.304688,-0.99609 0.996094,-0.99609 0.785156,0 1.019531,0.62109 1.183594,1.20703 z m 3.146485,4.20703 -0.08203,-0.23438 c -0.128906,0.0703 -0.328125,0.15235 -0.5625,0.15235 -0.222656,0 -0.515625,-0.12891 -0.515625,-0.85547 v -2.32031 h 0.960938 c 0.105469,-0.0586 0.128906,-0.25782 0.05859,-0.35157 h -1.019532 v -1.23046 l -0.128906,-0.0117 -0.585937,0.58593 v 0.65625 h -0.410157 l -0.246093,0.26954 0.03516,0.082 h 0.621094 v 2.625 c 0,0.70312 0.316406,1.0664 0.878906,1.0664 0.08203,0 0.234375,-0.0351 0.386719,-0.11718 z m 1.734375,-2.75391 v -0.98437 c -0.433594,0.1875 -0.832032,0.29297 -1.265625,0.36328 v 0.19922 c 0.503906,0.0703 0.550781,0.10547 0.550781,0.70312 v 1.86328 c 0,0.59766 -0.05859,0.64454 -0.621094,0.70313 v 0.23437 h 2.074219 v -0.23437 c -0.691406,-0.0586 -0.738281,-0.10547 -0.738281,-0.70313 v -1.64062 c 0.199218,-0.50391 0.480468,-0.77344 0.714843,-0.77344 0.152344,0 0.257813,0.0469 0.386719,0.1875 0.04687,0.0469 0.128906,0.0586 0.234375,0.0117 0.175781,-0.082 0.292969,-0.25781 0.292969,-0.43359 0,-0.22266 -0.210938,-0.45703 -0.527344,-0.45703 -0.421875,0 -0.808594,0.5039 -1.078125,0.96093 z m 5.610351,2.73047 -0.09375,-0.23437 c -0.09375,0.0586 -0.222656,0.10547 -0.328125,0.10547 -0.152343,0 -0.316406,-0.14063 -0.316406,-0.55079 v -1.66406 c 0,-0.46875 -0.08203,-0.84375 -0.398437,-1.10156 -0.199219,-0.16406 -0.46875,-0.24609 -0.738282,-0.24609 -0.515625,0.10546 -1.101562,0.45703 -1.347656,0.63281 -0.175781,0.1289 -0.292969,0.22265 -0.292969,0.36328 0,0.19922 0.234375,0.38672 0.398438,0.38672 0.128906,0 0.222656,-0.0703 0.257812,-0.21094 0.07031,-0.28125 0.152344,-0.48047 0.269532,-0.59766 0.09375,-0.10546 0.222656,-0.17578 0.410156,-0.17578 0.445312,0 0.75,0.36328 0.75,1.01953 v 0.16407 c -0.199219,0.15234 -0.855469,0.39843 -1.394531,0.57422 -0.492188,0.17578 -0.726563,0.45703 -0.726563,0.90234 0,0.5625 0.445313,1.08984 1.078125,1.08984 0.269531,0 0.703125,-0.32812 1.066406,-0.57422 0.04687,0.15235 0.09375,0.28125 0.210938,0.41016 0.105469,0.082 0.292969,0.16406 0.421875,0.16406 z m -1.429687,-0.41015 c -0.164063,0.16406 -0.480469,0.3164 -0.714844,0.32812 -0.28125,0 -0.644531,-0.22266 -0.644531,-0.69141 0,-0.32812 0.199219,-0.49218 0.550781,-0.65625 0.1875,-0.0937 0.621094,-0.28125 0.808594,-0.375 z m 3.993164,0.43359 -0.08203,-0.23438 c -0.128907,0.0703 -0.328125,0.15235 -0.5625,0.15235 -0.222657,0 -0.515625,-0.12891 -0.515625,-0.85547 v -2.32031 h 0.960937 c 0.105469,-0.0586 0.128906,-0.25782 0.05859,-0.35157 h -1.019531 v -1.23046 l -0.128907,-0.0117 -0.585937,0.58593 v 0.65625 h -0.410156 l -0.246094,0.26954 0.03516,0.082 h 0.621094 v 2.625 c 0,0.70312 0.316406,1.0664 0.878906,1.0664 0.08203,0 0.234375,-0.0351 0.386719,-0.11718 z m 1.324219,-4.5 c 0.257812,0 0.457031,-0.21094 0.457031,-0.45703 0,-0.26953 -0.199219,-0.46875 -0.457031,-0.46875 -0.234375,0 -0.457032,0.19922 -0.457032,0.46875 0,0.24609 0.222657,0.45703 0.457032,0.45703 z m 1.054687,4.82812 v -0.23437 c -0.585937,-0.0586 -0.644531,-0.10547 -0.644531,-0.71484 v -3.10547 c -0.398438,0.15234 -0.820313,0.26953 -1.277344,0.35156 v 0.21094 c 0.539063,0.0937 0.5625,0.1289 0.5625,0.67968 v 1.86329 c 0,0.60937 -0.05859,0.65625 -0.621094,0.71484 v 0.23437 z m 4.790039,0 v -0.23437 c -0.574219,-0.0586 -0.632812,-0.0937 -0.632812,-0.66797 v -3.15234 c -0.46875,0.0937 -0.972657,0.11718 -1.6875,0.11718 h -0.714844 v -0.30468 c 0,-0.71485 0.128906,-1.17188 0.304687,-1.40625 0.117188,-0.17578 0.292969,-0.31641 0.550782,-0.31641 0.433593,0 0.738281,0.28125 0.9375,0.51563 0.07031,0.082 0.152343,0.082 0.257812,0.0234 0.08203,-0.0586 0.152344,-0.14062 0.199219,-0.22265 0.03516,-0.10547 0.03516,-0.21094 -0.04687,-0.32813 -0.09375,-0.14062 -0.398438,-0.41015 -0.949219,-0.43359 -0.328125,0.0351 -0.75,0.19922 -1.113281,0.49219 -0.492188,0.38671 -0.679688,0.85546 -0.738281,1.07812 -0.07031,0.1875 -0.105469,0.41016 -0.105469,0.69141 v 0.21093 h -0.433594 l -0.257812,0.25782 0.04687,0.0937 h 0.644531 v 2.68359 c 0,0.5625 -0.08203,0.60938 -0.632813,0.66797 v 0.23437 h 1.96875 v -0.23437 c -0.5625,-0.0586 -0.632812,-0.10547 -0.632812,-0.66797 v -2.68359 h 1.230469 c 0.433593,0 0.46875,0.0703 0.46875,0.48047 v 2.20312 c 0,0.57422 -0.07031,0.62109 -0.574219,0.66797 v 0.23437 z m 3.574219,-0.94921 c -0.328125,0.30468 -0.667969,0.44531 -1.019531,0.44531 -0.632813,0 -1.335938,-0.50391 -1.347657,-1.72266 1.066407,-0.0469 2.191407,-0.1289 2.355469,-0.16406 0.152344,-0.0352 0.199219,-0.10547 0.199219,-0.28125 0,-0.70313 -0.597656,-1.37109 -1.347656,-1.37109 -0.46875,0 -0.949219,0.24609 -1.324219,0.65625 -0.363281,0.41015 -0.597656,0.96093 -0.597656,1.58203 0,1.00781 0.65625,1.91015 1.757812,1.91015 0.28125,0 0.902344,-0.16406 1.464844,-0.86718 z m -1.371094,-2.75391 c 0.492188,0 0.796875,0.42187 0.785156,0.89062 0,0.12891 -0.04687,0.1875 -0.210937,0.1875 -0.527344,0.0117 -1.019531,0.0234 -1.523438,0.0234 0.128907,-0.72656 0.527344,-1.10156 0.949219,-1.10156 z m 6.483399,3.24609 -0.292969,-0.0234 c -0.328125,-0.0469 -0.386719,-0.082 -0.386719,-0.55079 v -5.3789 c -0.339844,0.11719 -0.9375,0.25781 -1.40625,0.3164 v 0.21094 c 0.644531,0.0469 0.691406,0.082 0.691406,0.66797 v 1.27734 c -0.210937,-0.082 -0.46875,-0.10546 -0.597656,-0.10546 -1.21875,0 -2.320312,0.98437 -2.320312,2.23828 0,1.2539 0.949218,1.91015 1.664062,1.91015 0.105469,0 0.351563,-0.0469 0.703125,-0.25781 l 0.550781,-0.32812 v 0.58593 c 0.527344,-0.1875 1.195313,-0.30468 1.394532,-0.33984 z m -1.394532,-0.30468 c -0.210937,0.16406 -0.539062,0.30468 -0.867187,0.30468 -0.574219,0 -1.230469,-0.52734 -1.230469,-1.59375 0,-1.30078 0.761719,-1.65234 1.171875,-1.65234 0.339844,0 0.714844,0.14062 0.925781,0.45703 z M 80.666258,88.303539 V 87.881664 H 79.79907 v -3.65625 h -0.351562 c -0.925781,1.21875 -1.851563,2.554688 -2.707031,3.832031 v 0.246094 h 2.34375 v 0.65625 c 0,0.585938 -0.03516,0.644531 -0.820313,0.703125 v 0.246094 h 2.308594 V 89.662914 C 79.845945,89.60432 79.79907,89.557445 79.79907,88.959789 v -0.65625 z m -1.582031,-0.421875 h -1.769532 c 0.585938,-0.996094 1.171875,-1.851562 1.757813,-2.648437 h 0.01172 z m 24.521483,-3.691406 c -0.96094,0 -1.59375,0.726562 -1.59375,1.476562 0,0.632813 0.38672,1.066407 0.97266,1.394532 -0.30469,0.199218 -0.65625,0.445312 -0.79688,0.574218 -0.19922,0.199219 -0.39844,0.445313 -0.39844,0.855469 0,0.972656 0.76172,1.523438 1.72266,1.523438 0.76172,0 1.78125,-0.574219 1.78125,-1.628907 0,-0.785156 -0.5625,-1.207031 -1.18359,-1.558593 0.39843,-0.28125 0.64453,-0.503907 0.70312,-0.585938 0.17578,-0.1875 0.26953,-0.457031 0.26953,-0.714844 0,-0.726562 -0.62109,-1.335937 -1.47656,-1.335937 z m -0.082,0.292969 c 0.41016,0 0.87891,0.328125 0.87891,1.089843 0,0.539063 -0.2461,0.867188 -0.55079,1.113282 -0.63281,-0.316407 -1.17187,-0.609375 -1.17187,-1.277344 0,-0.457031 0.30469,-0.925781 0.84375,-0.925781 z m 0.082,5.25 c -0.57422,0 -1.10156,-0.46875 -1.10156,-1.289063 0,-0.492187 0.30469,-0.949219 0.73828,-1.230469 0.69141,0.351563 1.33594,0.738282 1.33594,1.40625 0,0.691407 -0.42188,1.113282 -0.97266,1.113282 z m 23.88281,0.175781 v -0.246094 c -0.82031,-0.05859 -0.8789,-0.128906 -0.8789,-0.785156 v -4.6875 c -0.49219,0.199219 -1.01953,0.375 -1.59375,0.46875 v 0.210937 l 0.43359,0.01172 c 0.38672,0.02344 0.42188,0.07031 0.42188,0.539063 v 3.457031 c 0,0.65625 -0.0352,0.726562 -0.85547,0.785156 v 0.246094 z m 2.09473,-3.082031 c 0.26953,-1.253907 1.11328,-1.828125 1.66406,-2.085938 0.32813,-0.152344 0.67969,-0.257812 0.97266,-0.316406 l -0.0586,-0.28125 c -0.36329,0.05859 -0.79688,0.164062 -1.14844,0.28125 -0.96094,0.351562 -2.33203,1.371094 -2.33203,3.339844 0,1.382812 0.79687,2.25 1.85156,2.25 1.07812,0 1.83984,-0.902344 1.83984,-1.980469 0,-0.925781 -0.65625,-1.664063 -1.61718,-1.664063 -0.17579,0 -0.36329,0.07031 -0.5625,0.152344 z m 0.82031,0.04687 c 0.82032,0 1.19532,0.738281 1.19532,1.488281 0,0.597656 -0.21094,1.347656 -0.91407,1.347656 -0.73828,0 -1.19531,-0.878906 -1.19531,-1.957031 0,-0.234375 0.0117,-0.457031 0.0469,-0.621094 0.22265,-0.117187 0.52734,-0.257812 0.86718,-0.257812 z m 19.21875,-1.429688 c 0.22266,-0.328125 0.58594,-0.714844 1.07813,-0.714844 0.48047,0 0.85547,0.292969 0.85547,0.855469 0,0.65625 -0.60938,1.007813 -1.42969,1.277344 l 0.0586,0.257812 c 0.14063,-0.04687 0.36328,-0.105468 0.57422,-0.105468 0.51563,0 1.14844,0.339843 1.14844,1.171875 0,0.890625 -0.45703,1.359375 -1.08984,1.359375 -0.51563,0 -0.89063,-0.246094 -1.125,-0.457032 -0.0703,-0.05859 -0.14063,-0.04687 -0.21094,0 -0.082,0.05859 -0.19922,0.175782 -0.21094,0.292969 -0.0117,0.117188 0.0234,0.210938 0.15234,0.328125 0.11719,0.105469 0.48047,0.304688 0.89063,0.304688 0.65625,0 2.36719,-0.667969 2.36719,-2.121094 0,-0.65625 -0.46875,-1.21875 -1.25391,-1.371094 v -0.01172 c 0.25781,-0.1875 0.48047,-0.339843 0.60938,-0.492187 0.17578,-0.164063 0.28125,-0.375 0.28125,-0.632813 0,-0.691406 -0.52735,-1.195312 -1.34766,-1.195312 -0.46875,0 -0.89063,0.234375 -1.13672,0.503906 l -0.39844,0.574219 z m 7.2627,3.199219 c -0.26953,0.574219 -0.38672,0.609375 -0.86719,0.609375 h -1.6875 l 1.27734,-1.335938 c 0.83204,-0.890625 1.19532,-1.417968 1.19532,-2.203125 0,-0.949218 -0.72657,-1.523437 -1.51172,-1.523437 -0.52735,0 -0.94922,0.234375 -1.21875,0.539062 l -0.51563,0.726563 0.19922,0.175781 c 0.23438,-0.351562 0.60938,-0.832031 1.23047,-0.832031 0.65625,0 1.05469,0.433594 1.05469,1.195312 0,0.773438 -0.5625,1.511719 -1.125,2.179688 -0.44531,0.515625 -0.94922,1.03125 -1.45313,1.523437 v 0.210938 h 3.36328 c 0.10547,-0.410156 0.19922,-0.796875 0.31641,-1.183594 z M -142.5232,88.303539 v -0.421875 h -0.86718 v -3.65625 h -0.35157 c -0.92578,1.21875 -1.85156,2.554688 -2.70703,3.832031 v 0.246094 h 2.34375 v 0.65625 c 0,0.585938 -0.0351,0.644531 -0.82031,0.703125 v 0.246094 h 2.30859 v -0.246094 c -0.72656,-0.05859 -0.77343,-0.105469 -0.77343,-0.703125 v -0.65625 z m -1.58203,-0.421875 h -1.76953 c 0.58594,-0.996094 1.17188,-1.851562 1.75781,-2.648437 h 0.0117 z m 6.79395,121.582036 h 2.09766 l 0.23437,-0.58594 -0.0586,-0.0703 h -2.56641 l -0.35156,2.74218 c 0.21094,-0.082 0.55078,-0.1875 0.92578,-0.1875 0.98437,0 1.46484,0.57422 1.46484,1.35938 0,0.67969 -0.375,1.33594 -1.13672,1.33594 -0.55078,0 -0.91406,-0.29297 -1.11328,-0.45704 -0.082,-0.0703 -0.15234,-0.0586 -0.23437,0 -0.10547,0.0937 -0.1875,0.21094 -0.1875,0.29297 -0.0234,0.10547 0.0234,0.1875 0.14062,0.30469 0.12891,0.12891 0.51563,0.31641 0.92578,0.31641 0.48047,-0.0117 1.07813,-0.2461 1.57032,-0.63282 0.55078,-0.45703 0.79687,-0.96093 0.79687,-1.51171 0,-0.73829 -0.58594,-1.51172 -1.73437,-1.51172 -0.2461,0 -0.66797,0.14062 -1.00782,0.26953 z m 20.12988,4.94531 v -0.2461 c -0.82031,-0.0586 -0.8789,-0.1289 -0.8789,-0.78515 v -4.6875 c -0.49219,0.19922 -1.01954,0.375 -1.59375,0.46875 v 0.21094 l 0.43359,0.0117 c 0.38672,0.0234 0.42187,0.0703 0.42187,0.53907 v 3.45703 c 0,0.65625 -0.0352,0.72656 -0.85546,0.78515 v 0.2461 z m 3.02051,-5.71875 c -1.34766,0 -1.83984,1.60547 -1.83984,2.91797 0,1.41797 0.48046,2.90625 1.83984,2.90625 1.35937,0 1.82812,-1.59375 1.82812,-2.91797 0,-1.38281 -0.46875,-2.90625 -1.82812,-2.90625 z m 0,0.30469 c 0.80859,0 1.03125,1.32421 1.03125,2.60156 0,1.26562 -0.22266,2.61328 -1.03125,2.61328 -0.77344,0 -1.04297,-1.35938 -1.04297,-2.61328 0,-1.25391 0.22266,-2.60156 1.04297,-2.60156 z m 17.182617,5.41406 v -0.2461 c -0.820313,-0.0586 -0.878907,-0.1289 -0.878907,-0.78515 v -4.6875 c -0.492187,0.19922 -1.019531,0.375 -1.59375,0.46875 v 0.21094 l 0.433594,0.0117 c 0.386719,0.0234 0.421875,0.0703 0.421875,0.53907 v 3.45703 c 0,0.65625 -0.03516,0.72656 -0.855469,0.78515 v 0.2461 z m 2.235351,-4.94531 h 2.097656 l 0.234375,-0.58594 -0.05859,-0.0703 h -2.566407 l -0.351562,2.74218 c 0.210937,-0.082 0.550781,-0.1875 0.925781,-0.1875 0.984375,0 1.464844,0.57422 1.464844,1.35938 0,0.67969 -0.375,1.33594 -1.136719,1.33594 -0.550781,0 -0.914062,-0.29297 -1.113281,-0.45704 -0.08203,-0.0703 -0.152344,-0.0586 -0.234375,0 -0.105469,0.0937 -0.1875,0.21094 -0.1875,0.29297 -0.02344,0.10547 0.02344,0.1875 0.140625,0.30469 0.128906,0.12891 0.515625,0.31641 0.925781,0.31641 0.480469,-0.0117 1.078125,-0.2461 1.570313,-0.63282 0.550781,-0.45703 0.796875,-0.96093 0.796875,-1.51171 0,-0.73829 -0.585938,-1.51172 -1.734375,-1.51172 -0.246094,0 -0.667969,0.14062 -1.007813,0.26953 z m 18.216797,3.67968 c -0.269531,0.57422 -0.386719,0.60938 -0.867187,0.60938 h -1.6875 l 1.277343,-1.33594 c 0.832032,-0.89062 1.195313,-1.41797 1.195313,-2.20312 0,-0.94922 -0.726563,-1.52344 -1.511719,-1.52344 -0.527344,0 -0.949219,0.23437 -1.21875,0.53906 l -0.515625,0.72656 0.199219,0.17578 c 0.234375,-0.35156 0.609375,-0.83203 1.230469,-0.83203 0.65625,0 1.054687,0.4336 1.054687,1.19532 0,0.77343 -0.5625,1.51171 -1.125,2.17968 -0.445312,0.51563 -0.949219,1.03125 -1.453125,1.52344 v 0.21094 h 3.363281 c 0.105469,-0.41016 0.199219,-0.79688 0.316407,-1.1836 z m 2.771484,-4.45312 c -1.347656,0 -1.839843,1.60547 -1.839843,2.91797 0,1.41797 0.480468,2.90625 1.839843,2.90625 1.359375,0 1.828125,-1.59375 1.828125,-2.91797 0,-1.38281 -0.46875,-2.90625 -1.828125,-2.90625 z m 0,0.30469 c 0.808594,0 1.03125,1.32421 1.03125,2.60156 0,1.26562 -0.222656,2.61328 -1.03125,2.61328 -0.773437,0 -1.042968,-1.35938 -1.042968,-2.61328 0,-1.25391 0.222656,-2.60156 1.042968,-2.60156 z m 17.431641,4.14843 c -0.269531,0.57422 -0.386719,0.60938 -0.867187,0.60938 h -1.6875 l 1.277343,-1.33594 c 0.832032,-0.89062 1.195313,-1.41797 1.195313,-2.20312 0,-0.94922 -0.726563,-1.52344 -1.511719,-1.52344 -0.527344,0 -0.949219,0.23437 -1.21875,0.53906 l -0.515625,0.72656 0.199219,0.17578 c 0.234375,-0.35156 0.609375,-0.83203 1.230469,-0.83203 0.65625,0 1.054687,0.4336 1.054687,1.19532 0,0.77343 -0.5625,1.51171 -1.125,2.17968 -0.445312,0.51563 -0.949219,1.03125 -1.453125,1.52344 v 0.21094 h 3.363281 c 0.105469,-0.41016 0.199219,-0.79688 0.316407,-1.1836 z m 1.986328,-3.67968 h 2.097656 l 0.234375,-0.58594 -0.05859,-0.0703 h -2.566407 l -0.351562,2.74218 c 0.210937,-0.082 0.550781,-0.1875 0.925781,-0.1875 0.984375,0 1.464844,0.57422 1.464844,1.35938 0,0.67969 -0.375,1.33594 -1.136719,1.33594 -0.550781,0 -0.914062,-0.29297 -1.113281,-0.45704 -0.08203,-0.0703 -0.152344,-0.0586 -0.234375,0 -0.105469,0.0937 -0.1875,0.21094 -0.1875,0.29297 -0.02344,0.10547 0.02344,0.1875 0.140625,0.30469 0.128906,0.12891 0.515625,0.31641 0.925781,0.31641 0.480469,-0.0117 1.078125,-0.2461 1.570313,-0.63282 0.550781,-0.45703 0.796875,-0.96093 0.796875,-1.51171 0,-0.73829 -0.585938,-1.51172 -1.734375,-1.51172 -0.246094,0 -0.667969,0.14062 -1.007813,0.26953 z m 15.275391,0.48046 c 0.222656,-0.32812 0.585937,-0.71484 1.078125,-0.71484 0.480469,0 0.855469,0.29297 0.855469,0.85547 0,0.65625 -0.609375,1.00781 -1.429688,1.27734 l 0.05859,0.25782 c 0.140625,-0.0469 0.363281,-0.10547 0.574219,-0.10547 0.515625,0 1.148437,0.33984 1.148437,1.17187 0,0.89063 -0.457031,1.35938 -1.089844,1.35938 -0.515625,0 -0.890625,-0.2461 -1.125,-0.45703 -0.07031,-0.0586 -0.140625,-0.0469 -0.210937,0 -0.08203,0.0586 -0.199219,0.17578 -0.210938,0.29296 -0.01172,0.11719 0.02344,0.21094 0.152344,0.32813 0.117188,0.10547 0.480469,0.30469 0.890625,0.30469 0.65625,0 2.367188,-0.66797 2.367188,-2.1211 0,-0.65625 -0.46875,-1.21875 -1.253907,-1.37109 v -0.0117 c 0.257813,-0.1875 0.480469,-0.33984 0.609375,-0.49219 0.175782,-0.16406 0.28125,-0.375 0.28125,-0.63281 0,-0.69141 -0.527343,-1.19531 -1.347656,-1.19531 -0.46875,0 -0.890625,0.23437 -1.136719,0.5039 l -0.398437,0.57422 z m 5.71582,-1.2539 c -1.347656,0 -1.839844,1.60547 -1.839844,2.91797 0,1.41797 0.480469,2.90625 1.839844,2.90625 1.359375,0 1.828125,-1.59375 1.828125,-2.91797 0,-1.38281 -0.46875,-2.90625 -1.828125,-2.90625 z m 0,0.30469 c 0.808594,0 1.03125,1.32421 1.03125,2.60156 0,1.26562 -0.222656,2.61328 -1.03125,2.61328 -0.773437,0 -1.042969,-1.35938 -1.042969,-2.61328 0,-1.25391 0.222657,-2.60156 1.042969,-2.60156 z M -127.36499,84.190258 c -0.96094,0 -1.59375,0.726562 -1.59375,1.476562 0,0.632813 0.38672,1.066407 0.97265,1.394532 -0.30468,0.199218 -0.65625,0.445312 -0.79687,0.574218 -0.19922,0.199219 -0.39844,0.445313 -0.39844,0.855469 0,0.972656 0.76172,1.523438 1.72266,1.523438 0.76172,0 1.78125,-0.574219 1.78125,-1.628907 0,-0.785156 -0.5625,-1.207031 -1.1836,-1.558593 0.39844,-0.28125 0.64454,-0.503907 0.70313,-0.585938 0.17578,-0.1875 0.26953,-0.457031 0.26953,-0.714844 0,-0.726562 -0.62109,-1.335937 -1.47656,-1.335937 z m -0.082,0.292969 c 0.41015,0 0.8789,0.328125 0.8789,1.089843 0,0.539063 -0.24609,0.867188 -0.55078,1.113282 -0.63281,-0.316407 -1.17187,-0.609375 -1.17187,-1.277344 0,-0.457031 0.30468,-0.925781 0.84375,-0.925781 z m 0.082,5.25 c -0.57422,0 -1.10156,-0.46875 -1.10156,-1.289063 0,-0.492187 0.30468,-0.949219 0.73828,-1.230469 0.6914,0.351563 1.33593,0.738282 1.33593,1.40625 0,0.691407 -0.42187,1.113282 -0.97265,1.113282 z m 33.134763,0.175781 v -0.246094 c -0.820312,-0.05859 -0.878906,-0.128906 -0.878906,-0.785156 v -4.6875 c -0.492187,0.199219 -1.019531,0.375 -1.59375,0.46875 v 0.210937 l 0.433594,0.01172 c 0.386719,0.02344 0.421875,0.07031 0.421875,0.539063 v 3.457031 c 0,0.65625 -0.03516,0.726562 -0.855469,0.785156 v 0.246094 z m 2.094727,-3.082031 c 0.269531,-1.253907 1.113281,-1.828125 1.664063,-2.085938 0.328125,-0.152344 0.679687,-0.257812 0.972656,-0.316406 l -0.05859,-0.28125 c -0.363281,0.05859 -0.796875,0.164062 -1.148437,0.28125 -0.960938,0.351562 -2.332032,1.371094 -2.332032,3.339844 0,1.382812 0.796875,2.25 1.851563,2.25 1.078125,0 1.839844,-0.902344 1.839844,-1.980469 0,-0.925781 -0.65625,-1.664063 -1.617188,-1.664063 -0.175781,0 -0.363281,0.07031 -0.5625,0.152344 z m 0.820313,0.04687 c 0.820312,0 1.195312,0.738281 1.195312,1.488281 0,0.597656 -0.210937,1.347656 -0.914062,1.347656 -0.738282,0 -1.195313,-0.878906 -1.195313,-1.957031 0,-0.234375 0.01172,-0.457031 0.04687,-0.621094 0.222656,-0.117187 0.527344,-0.257812 0.867188,-0.257812 z m 62.519531,-1.429688 c 0.222656,-0.328125 0.585937,-0.714844 1.078125,-0.714844 0.480469,0 0.855469,0.292969 0.855469,0.855469 0,0.65625 -0.609375,1.007813 -1.429688,1.277344 l 0.05859,0.257812 c 0.140625,-0.04687 0.363281,-0.105468 0.574219,-0.105468 0.515625,0 1.148437,0.339843 1.148437,1.171875 0,0.890625 -0.457031,1.359375 -1.089844,1.359375 -0.515625,0 -0.890625,-0.246094 -1.125,-0.457032 -0.07031,-0.05859 -0.140625,-0.04687 -0.210937,0 -0.08203,0.05859 -0.199219,0.175782 -0.210938,0.292969 -0.01172,0.117188 0.02344,0.210938 0.152344,0.328125 0.117188,0.105469 0.480469,0.304688 0.890625,0.304688 0.65625,0 2.367188,-0.667969 2.367188,-2.121094 0,-0.65625 -0.46875,-1.21875 -1.253907,-1.371094 v -0.01172 c 0.257813,-0.1875 0.480469,-0.339843 0.609375,-0.492187 0.175782,-0.164063 0.28125,-0.375 0.28125,-0.632813 0,-0.691406 -0.527343,-1.195312 -1.347656,-1.195312 -0.46875,0 -0.890625,0.234375 -1.136719,0.503906 l -0.398437,0.574219 z m 7.262695,3.199219 c -0.269531,0.574219 -0.386719,0.609375 -0.867187,0.609375 h -1.6875 l 1.277343,-1.335938 c 0.832032,-0.890625 1.195313,-1.417968 1.195313,-2.203125 0,-0.949218 -0.726563,-1.523437 -1.511719,-1.523437 -0.527344,0 -0.949219,0.234375 -1.21875,0.539062 l -0.515625,0.726563 0.199219,0.175781 c 0.234375,-0.351562 0.609375,-0.832031 1.230469,-0.832031 0.65625,0 1.054687,0.433594 1.054687,1.195312 0,0.773438 -0.5625,1.511719 -1.125,2.179688 -0.445312,0.515625 -0.949219,1.03125 -1.453125,1.523437 v 0.210938 h 3.363281 c 0.105469,-0.410156 0.199219,-0.796875 0.316407,-1.183594 z M -93.63257,103.23323 c -0.890625,-0.76172 -1.40625,-2.20313 -1.40625,-3.750003 0,-1.546875 0.515625,-3 1.40625,-3.75 l -0.152344,-0.210938 c -1.324219,0.902344 -1.910156,2.332031 -1.910156,3.949219 0,1.628902 0.585937,3.082032 1.910156,3.960942 z m 4.321289,-1.67578 -0.09375,-0.23438 c -0.09375,0.0586 -0.222656,0.10547 -0.328125,0.10547 -0.152344,0 -0.316406,-0.14063 -0.316406,-0.55078 v -1.664065 c 0,-0.46875 -0.08203,-0.84375 -0.398438,-1.101562 -0.199219,-0.164063 -0.46875,-0.246094 -0.738281,-0.246094 -0.515625,0.105469 -1.101563,0.457031 -1.347656,0.632813 -0.175782,0.128906 -0.292969,0.222656 -0.292969,0.363281 0,0.199219 0.234375,0.386719 0.398437,0.386719 0.128907,0 0.222657,-0.07031 0.257813,-0.210938 0.07031,-0.28125 0.152344,-0.480469 0.269531,-0.597656 0.09375,-0.105469 0.222656,-0.175781 0.410156,-0.175781 0.445313,0 0.75,0.363281 0.75,1.019531 v 0.164062 c -0.199218,0.152344 -0.855468,0.398438 -1.394531,0.57422 -0.492187,0.17578 -0.726562,0.45703 -0.726562,0.90234 0,0.5625 0.445312,1.08985 1.078125,1.08985 0.269531,0 0.703125,-0.32813 1.066406,-0.57422 0.04687,0.15234 0.09375,0.28125 0.210937,0.41015 0.105469,0.082 0.292969,0.16407 0.421875,0.16407 z m -1.429688,-0.41016 c -0.164062,0.16406 -0.480468,0.31641 -0.714843,0.32812 -0.28125,0 -0.644532,-0.22265 -0.644532,-0.6914 0,-0.32813 0.199219,-0.49219 0.550782,-0.65625 0.1875,-0.0937 0.621093,-0.281252 0.808593,-0.375002 z m 1.889649,-5.414063 c 0.890625,0.738281 1.417968,2.203125 1.417968,3.75 0,1.546873 -0.503906,2.988283 -1.417968,3.750003 l 0.164062,0.19922 c 1.347656,-0.91407 1.898438,-2.33204 1.898438,-3.949223 0,-1.628907 -0.550782,-3.058594 -1.898438,-3.960938 z m 176.018554,7.500003 c -0.890625,-0.76172 -1.40625,-2.20313 -1.40625,-3.750003 0,-1.546875 0.515625,-3 1.40625,-3.75 l -0.152343,-0.210938 c -1.324219,0.902344 -1.910157,2.332031 -1.910157,3.949219 0,1.628902 0.585938,3.082032 1.910157,3.960942 z m 1.790039,-4.957035 v -2.777343 c -0.339843,0.117187 -0.890625,0.257812 -1.3125,0.316406 v 0.210937 c 0.585938,0.04687 0.597657,0.105469 0.597657,0.667969 v 5.003906 c 0.492187,0.23438 0.949218,0.31641 1.324218,0.31641 1.207032,0 2.261719,-0.9375 2.261719,-2.261722 0,-1.054688 -0.808594,-1.886719 -1.78125,-1.886719 -0.09375,0 -0.222656,0.02344 -0.363281,0.09375 z m 0,0.269532 c 0.164063,-0.105469 0.445313,-0.175782 0.703125,-0.175782 0.738282,0 1.371094,0.597657 1.371094,1.617188 0,1.054687 -0.480469,1.687497 -1.21875,1.687497 -0.480469,-0.0117 -0.75,-0.32812 -0.808594,-0.5039 -0.03516,-0.082 -0.04687,-0.17578 -0.04687,-0.30469 z m 3.609375,-2.8125 c 0.890625,0.738281 1.417969,2.203125 1.417969,3.75 0,1.546873 -0.503906,2.988283 -1.417969,3.750003 l 0.164063,0.19922 c 1.347656,-0.91407 1.898437,-2.33204 1.898437,-3.949223 0,-1.628907 -0.550781,-3.058594 -1.898437,-3.960938 z M -93.559328,226.48811 c -0.890625,-0.76172 -1.40625,-2.20313 -1.40625,-3.75 0,-1.54688 0.515625,-3 1.40625,-3.75 l -0.152344,-0.21094 c -1.324219,0.90235 -1.910156,2.33203 -1.910156,3.94922 0,1.62891 0.585937,3.08203 1.910156,3.96094 z m 3.93457,-2.32031 c -0.410156,0.38672 -0.703125,0.49218 -1.089844,0.49218 -0.503906,0 -1.359375,-0.41015 -1.359375,-1.66406 0,-0.94922 0.515625,-1.4414 1.113282,-1.4414 0.316406,0 0.632812,0.11718 0.902343,0.375 0.08203,0.0703 0.117188,0.0937 0.164063,0.0937 0.105469,0 0.304687,-0.19922 0.304687,-0.38672 0,-0.10547 -0.03516,-0.17578 -0.152343,-0.28125 -0.140625,-0.11719 -0.433594,-0.23438 -0.796875,-0.23438 -0.351563,0 -0.890625,0.14063 -1.359375,0.50391 -0.597657,0.46875 -0.902344,1.07812 -0.902344,1.76953 0,0.96094 0.667969,1.875 1.804687,1.875 0.527344,0 1.136719,-0.39844 1.523438,-0.91406 z m 0.700196,-5.17969 c 0.890625,0.73828 1.417968,2.20312 1.417968,3.75 0,1.54687 -0.503906,2.98828 -1.417968,3.75 l 0.164062,0.19922 c 1.347656,-0.91406 1.898438,-2.33203 1.898438,-3.94922 0,-1.62891 -0.550782,-3.05859 -1.898438,-3.96094 z m 0,0"
         style="fill:#231f20;fill-opacity:1;fill-rule:nonzero;stroke:none"
         aria-label="0.100&#10;0.010&#10;0.001&#10;10&#10;4&#10;10&#10;5&#10;10&#10;6&#10;10&#10;6&#10;10&#10;5&#10;10&#10;4&#10;1000&#10;100&#10;1.5&#10;1.0&#10;0.5&#10;2112&#10;Independent&#10;Stratied&#10;4816324&#10;51015202530&#10;81632&#10;(a)(b)&#10;(c)"
         transform="matrix(1.3333333,0,0,1.3333333,238.59733,9.8986667)" />
    </g>
  </g>
</svg>
