<?xml version="1.0" encoding="UTF-8" standalone="no"?>
<!-- Created with Inkscape (http://www.inkscape.org/) -->

<svg
   version="1.1"
   id="svg1"
   width="208.60001"
   height="161.03999"
   viewBox="0 0 208.60001 161.03999"
   sodipodi:docname="pha04f22.eps"
   xmlns:inkscape="http://www.inkscape.org/namespaces/inkscape"
   xmlns:sodipodi="http://sodipodi.sourceforge.net/DTD/sodipodi-0.dtd"
   xmlns="http://www.w3.org/2000/svg"
   xmlns:svg="http://www.w3.org/2000/svg">
  <defs
     id="defs1" />
  <sodipodi:namedview
     id="namedview1"
     pagecolor="#ffffff"
     bordercolor="#000000"
     borderopacity="0.25"
     inkscape:showpageshadow="2"
     inkscape:pageopacity="0.0"
     inkscape:pagecheckerboard="0"
     inkscape:deskcolor="#d1d1d1">
    <inkscape:page
       x="0"
       y="0"
       inkscape:label="1"
       id="page1"
       width="208.60001"
       height="161.03999"
       margin="0"
       bleed="0" />
  </sodipodi:namedview>
  <g
     id="g1"
     inkscape:groupmode="layer"
     inkscape:label="1">
    <g
       id="group-R5">
      <path
         id="path2"
         d="m 2.20703,245.336 0.58594,-0.035 1.21094,-0.067 h 0.67968 l 0.71094,-0.035 0.77735,-0.035 0.78515,-0.066 0.8125,-0.035 0.87891,-0.036 0.91797,-0.035 0.94529,-0.031 0.9922,-0.07 0.9766,-0.039 1.0195,-0.02 1.9688,-0.074 0.9453,-0.031 0.9804,-0.036 2.8438,-0.101 h 0.9531 l 0.9531,-0.035 0.918,-0.035 h 1.832 l 0.9063,-0.036 h 5.2851 l 0.8868,0.036 h 1.6875 l 0.8515,0.035 h 0.8203 l 0.8399,0.035 h 0.8164 l 0.8555,0.031 h 0.8359 l 0.8164,0.035 h 1.6914 l 0.8516,0.035 h 7.5937 l 0.8438,-0.035 h 1.7304 l 0.8555,-0.035 h 0.8359 L 54.75,244.59 h 0.8867 l 0.8438,-0.035 h 0.8437 l 0.8789,-0.035 0.8477,-0.036 h 1.7305 l 0.8515,-0.035 h 1.7266 l 0.8515,-0.031 h 6.0274 l 0.8515,0.031 h 1.7266 l 0.8516,0.035 h 0.8398 l 0.8516,0.036 0.8867,0.035 h 0.8437 l 1.6915,0.066 0.8828,0.035 h 0.8554 l 1.6875,0.071 0.8828,0.031 2.5469,0.094 h 0.8711 l 2.543,0.109 0.8867,0.031 0.8398,0.035 h 0.8555 l 0.8477,0.036 0.8789,0.035 1.6992,0.066 0.875,0.035 h 0.8516 l 1.6914,0.067 0.8828,0.035 0.8436,0.035 h 0.848 l 0.851,0.031 0.879,0.035 2.539,0.098 h 0.891 l 1.687,0.066 0.887,0.039 2.531,0.102 0.887,0.031 0.856,0.035 h 0.836 l 0.851,0.036 0.883,0.035 1.695,0.066 0.875,0.035 2.543,0.102 0.883,0.031 2.547,0.102 0.883,0.035 0.843,0.066 0.844,0.035 0.856,0.071 0.875,0.031 1.691,0.137 0.887,0.07 1.691,0.133 0.852,0.101 0.875,0.067 2.543,0.304 0.883,0.102 1.695,0.203 0.883,0.106 1.695,0.265 0.852,0.106 0.871,0.136 0.855,0.137 0.852,0.164 0.84,0.137 0.882,0.137 2.543,0.507 0.875,0.172 0.856,0.168 0.844,0.203 0.878,0.172 2.543,0.61 0.883,0.199 0.852,0.238 0.844,0.207 0.847,0.235 0.875,0.238 1.703,0.476 0.84,0.274 0.887,0.23 1.691,0.543 0.887,0.274 1.691,0.543 0.852,0.304 0.875,0.297 2.543,0.922 0.883,0.309 1.695,0.679 0.852,0.301 0.871,0.371 1.707,0.668 0.871,0.387 2.547,1.117 0.883,0.371 0.843,0.407 0.852,0.375 0.847,0.406 0.875,0.406 1.704,0.816 0.879,0.438 0.843,0.441 0.856,0.411 0.84,0.437 0.886,0.484 2.539,1.414 0.875,0.508 2.551,1.625 0.879,0.543 0.844,0.614 0.847,0.574 0.891,0.609 0.836,0.621 1.703,1.281 0.879,0.676 1.699,1.356 0.84,0.711 0.891,0.714 1.687,1.489 0.852,0.781 0.871,0.781 0.855,0.778 0.852,0.812 0.879,0.848 0.844,0.847 0.843,0.914 0.852,0.985 0.887,0.98 0.839,1.051 0.848,1.086 0.852,1.117 0.879,1.156 1.699,2.438 0.879,1.289 0.847,1.324 1.692,2.778 0.886,1.461 0.836,1.488 0.856,1.523 0.848,1.598 0.878,1.59 0.848,1.66 0.844,1.695 0.848,1.762 0.89,1.766 0.84,1.828 0.852,1.867 0.882,1.832 0.844,1.762 0.852,1.66 0.847,1.59 0.879,1.496 0.852,1.465 0.84,1.312 0.847,1.254 0.891,1.187 0.832,1.086 0.855,1.012 0.848,0.914 0.883,0.84 0.844,0.793 0.843,0.672 0.887,0.609 0.852,0.516 0.84,0.402 0.847,0.371 0.891,0.243 0.84,0.199 0.847,0.101 h 0.852 l 0.879,-0.066 0.847,-0.133 0.84,-0.238 0.852,-0.274 0.887,-0.312 0.839,-0.293 0.852,-0.344 0.883,-0.336 0.844,-0.34 1.691,-0.746 0.891,-0.41 1.687,-0.808 0.852,-0.446 0.886,-0.437 1.692,-0.95 0.871,-0.472 1.707,-1.02 0.84,-0.543 0.883,-0.543 0.851,-0.574 0.844,-0.543 0.847,-0.609 0.879,-0.578 0.852,-0.645 1.687,-1.219 0.887,-0.613 0.852,-0.547 0.84,-0.5 0.882,-0.508 0.856,-0.441 1.687,-0.812 0.879,-0.34 1.699,-0.61 0.84,-0.238 0.891,-0.234 1.687,-0.344 0.852,-0.102 0.891,-0.097 1.687,-0.071 0.875,0.036 0.856,0.035 1.687,0.199 0.883,0.172 0.855,0.172 0.84,0.199 0.852,0.23 0.879,0.243 1.699,0.41 0.871,0.203 0.855,0.168 0.848,0.207 0.844,0.164 0.883,0.137 0.843,0.171 1.7,0.27 0.879,0.137 0.847,0.101 0.852,0.137 0.84,0.102 0.886,0.07 0.852,0.098 0.844,0.066 0.879,0.07 0.843,0.067 0.852,0.035 0.855,0.066 0.868,0.035 h 0.855 l 0.852,0.036 h 3.418 l 0.847,-0.036 h 0.879 l 1.699,-0.066 0.879,-0.035 0.852,-0.067 0.847,-0.035 0.844,-0.07 0.879,-0.066 2.551,-0.204 0.875,-0.101 2.539,-0.309 0.887,-0.094 0.84,-0.136 0.855,-0.106 0.883,-0.136 1.687,-0.266 0.856,-0.184 0.875,-0.125 2.543,-0.507 0.879,-0.172 1.695,-0.336 0.891,-0.207 0.836,-0.2 0.851,-0.171 0.852,-0.204 0.879,-0.203 0.847,-0.238 0.852,-0.203 0.844,-0.234 0.882,-0.207 2.543,-0.711 0.875,-0.246 0.852,-0.262 0.848,-0.235 0.878,-0.273 2.539,-0.813 0.887,-0.238 2.539,-0.816 0.879,-0.235 0.852,-0.273 0.84,-0.234 0.855,-0.274 0.883,-0.234 1.687,-0.469 0.891,-0.242 2.539,-0.715 0.879,-0.238 0.852,-0.199 0.835,-0.243 0.856,-0.203 0.887,-0.234 1.687,-0.406 0.891,-0.239 2.539,-0.609 0.879,-0.172 0.847,-0.199 0.84,-0.172 0.852,-0.203 0.887,-0.168 2.539,-0.512 0.878,-0.168 0.848,-0.137 0.844,-0.168 0.887,-0.132 2.539,-0.41 0.886,-0.137 0.84,-0.133 0.852,-0.102 0.844,-0.136 0.882,-0.106 2.547,-0.301 0.883,-0.101 0.844,-0.102 0.844,-0.07 0.878,-0.035 1.704,-0.067 h 0.836 l 0.89,0.036 1.692,0.136 0.847,0.102 0.891,0.101 1.687,0.27 0.852,0.203 0.879,0.172 1.687,0.473 0.891,0.269 0.848,0.274 1.691,0.609 0.879,0.34 0.848,0.375 1.691,0.808 0.887,0.411 1.687,0.949 0.891,0.543 0.847,0.609 0.848,0.68 0.844,0.711 0.879,0.777 0.847,0.848 0.856,0.914 0.836,0.953 0.887,1.051 0.851,1.047 0.844,1.152 0.848,1.223 0.875,1.254 0.851,1.324 0.852,1.351 0.879,1.461 0.847,1.489 0.852,1.558 0.84,1.629 0.886,1.66 0.852,1.731 0.848,1.797 0.839,1.863 0.879,1.894 0.852,1.969 0.848,1.996 0.839,1.934 0.891,1.898 0.848,1.867 0.839,1.832 0.887,1.762 1.692,3.457 0.847,1.625 0.879,1.625 0.852,1.59 0.847,1.531 0.84,1.492 0.891,1.457 0.848,1.422 0.851,1.36 0.879,1.355 0.84,1.285 0.847,1.254 0.852,1.223 0.879,1.148 1.699,2.239 0.84,1.054 0.891,0.981 0.839,0.98 0.848,0.918 0.852,0.813 0.879,0.746 0.847,0.68 0.86,0.578 0.871,0.507 0.847,0.438 0.852,0.344 0.848,0.265 0.879,0.207 0.839,0.102 0.852,0.035 0.848,-0.07 0.878,-0.125 0.848,-0.215 0.852,-0.305 0.84,-0.375 0.886,-0.437 0.84,-0.543 0.852,-0.61 0.886,-0.679 0.84,-0.778 0.852,-0.847 0.859,-0.95 0.867,-1.019 0.852,-1.086 0.851,-1.152 0.848,-1.188 0.879,-1.219 0.84,-1.25 0.859,-1.289 0.84,-1.355 0.879,-1.359 0.852,-1.387 0.847,-1.426 0.879,-1.453 0.852,-1.496 1.687,-3.113 0.891,-1.598 0.84,-1.625 1.707,-3.391 0.871,-1.726 1.695,-3.594 0.883,-1.867 0.848,-1.86 1.699,-3.867 0.879,-2 0.84,-2 0.847,-2.035 0.852,-1.965 0.879,-1.965 1.699,-3.797 0.84,-1.828 0.886,-1.832 0.84,-1.797 0.852,-1.73 0.89,-1.727 0.848,-1.683 1.699,-3.27 0.868,-1.59 1.691,-3.05 0.859,-1.493 0.879,-1.425 0.84,-1.418 0.852,-1.395 0.847,-1.316 0.879,-1.324 0.852,-1.29 0.847,-1.253 0.879,-1.188 0.852,-1.187 0.84,-1.153 0.847,-1.117 0.887,-1.086 0.852,-1.082 1.699,-2.035 0.871,-0.981 0.848,-0.949 0.839,-0.918 0.887,-0.914 1.692,-1.691 0.847,-0.817 0.891,-0.773 0.84,-0.785 1.699,-1.426 0.879,-0.68 0.859,-0.644 0.828,-0.61 0.852,-0.578 0.891,-0.574 0.835,-0.543 0.852,-0.508 0.879,-0.472 1.699,-0.879 0.84,-0.41 0.879,-0.407 2.551,-1.218 0.879,-0.383 1.687,-0.727 0.859,-0.347 0.879,-0.34 1.692,-0.68 0.887,-0.336 2.539,-0.918 0.878,-0.269 2.54,-0.817 0.878,-0.265 2.547,-0.715 0.891,-0.203 0.84,-0.204 0.847,-0.238 0.879,-0.207 2.551,-0.609 0.879,-0.235 1.688,-0.406 0.851,-0.168 0.879,-0.207 1.699,-0.402 0.879,-0.207 0.84,-0.164 1.699,-0.41 0.879,-0.168 0.852,-0.204 0.847,-0.171 0.852,-0.2 0.879,-0.172 0.847,-0.171 0.86,-0.204 0.84,-0.167 0.879,-0.172 1.691,-0.336 0.887,-0.172 2.539,-0.508 0.879,-0.172 1.699,-0.336 0.84,-0.137 0.879,-0.167 0.859,-0.172 0.84,-0.133 0.848,-0.18 0.878,-0.129 0.852,-0.164 0.859,-0.137 0.868,-0.136 0.851,-0.16 1.692,-0.282 0.886,-0.136 2.539,-0.407 0.879,-0.132 1.699,-0.278 0.879,-0.094 2.539,-0.308 0.887,-0.106 2.551,-0.199 0.871,-0.066 0.848,-0.035 0.847,-0.071 0.84,-0.031 0.891,-0.023 h 0.84 l 0.847,-0.047 h 3.43 l 0.879,0.047 h 0.848 l 1.691,0.054 0.891,0.071 0.835,0.07 0.852,0.098 0.859,0.132 0.872,0.172 0.847,0.207 0.852,0.235 0.879,0.304 0.847,0.305 1.692,0.746 0.886,0.442 1.692,0.945 0.855,0.555 0.871,0.57 0.852,0.605 0.848,0.641 0.839,0.684 0.887,0.71 0.844,0.747 0.848,0.812 0.886,0.816 0.84,0.844 1.711,1.828 0.867,0.989 0.852,1.117 0.84,1.422 0.847,1.695 0.891,1.969 0.84,2.269 0.847,2.508 0.891,2.848 0.84,3.086 0.851,3.39 0.848,3.66 0.879,3.93 0.852,4.238 0.836,4.508 0.851,4.782 0.891,5.082 0.84,5.355 0.847,5.625 0.86,5.898 0.871,6.2 0.847,6.476 1.731,13.832 0.847,7.321 0.84,7.593 0.852,7.895 0.887,8.176 0.839,8.3 1.7,16.543 0.879,8.239 0.859,8.234 1.68,16.406 0.886,8.168 0.84,8.172 0.852,8.133 0.879,8.137 0.847,8.132 1.692,16.133 0.886,8.067 1.692,16.07 0.848,7.996 0.89,8 1.692,15.934 0.875,7.929 0.851,7.934 0.859,7.895 0.833,7.867 0.886,7.859 0.852,7.563 0.84,6.918 0.847,6.269 0.879,5.652 0.852,5.02 0.847,4.371 0.852,3.766 0.879,3.113 0.848,2.477 0.839,1.867 0.887,1.222 0.852,0.614 0.84,-0.039 0.847,-0.676 0.883,-1.289 0.848,-1.934 0.859,-2.574 0.84,-3.188 0.879,-3.824 0.847,-4.445 0.84,-5.086 0.852,-5.727 0.879,-6.336 0.847,-6.984 0.852,-7.629 0.879,-8.234 0.848,-8.539 0.851,-8.446 0.84,-8.406 0.891,-8.301 0.847,-8.238 0.84,-8.168 0.852,-8.101 0.879,-8.032 0.847,-7.968 0.86,-7.899 0.839,-7.832 0.879,-7.762 0.852,-7.66 0.84,-7.625 0.886,-7.523 0.84,-7.461 0.852,-7.422 0.847,-7.324 0.879,-7.25 0.852,-7.188 0.855,-7.113 0.832,-7.051 0.887,-6.984 0.852,-6.883 0.84,-6.848 0.886,-6.777 0.84,-6.609 0.852,-6.477 0.859,-6.234 0.867,-6.071 0.852,-5.898 0.859,-5.691 0.828,-5.489 0.891,-5.324 0.84,-5.121 0.847,-4.91 0.852,-4.781 0.879,-4.543 0.851,-4.375 0.848,-4.168 0.879,-4 0.852,-3.793 0.847,-3.629 0.84,-3.422 0.891,-3.223 0.84,-3.047 0.847,-2.882 0.852,-2.645 0.879,-2.477 0.847,-2.304 0.852,-2.102 0.84,-1.93 0.886,-1.765 0.84,-1.727 0.852,-1.66 0.887,-1.629 0.839,-1.527 0.848,-1.488 0.852,-1.391 0.879,-1.348 0.847,-1.293 0.852,-1.222 0.84,-1.188 0.886,-1.082 0.84,-1.051 0.852,-0.953 0.879,-0.914 0.847,-0.847 0.852,-0.809 0.848,-0.715 0.878,-0.644 0.852,-0.61 0.84,-0.543 0.848,-0.472 0.89,-0.411 0.84,-0.336 0.852,-0.304 0.847,-0.203 0.879,-0.207 1.699,-0.336 0.879,-0.172 0.852,-0.137 0.84,-0.168 0.847,-0.133 0.879,-0.105 0.852,-0.137 1.699,-0.195 0.879,-0.07 0.848,-0.106 1.691,-0.137 0.887,-0.035 0.84,-0.066 0.847,-0.035 0.883,-0.028 h 4.273 l 1.692,0.063 0.879,0.066 0.847,0.07 0.852,0.102 0.852,0.137 0.875,0.168 1.703,0.41 0.879,0.234 0.847,0.274 0.84,0.3 0.852,0.344 0.879,0.336 0.847,0.375 0.852,0.442 0.847,0.406 0.879,0.472 1.7,1.02 0.878,0.543 0.852,0.574 1.687,1.223 0.899,0.672 0.832,0.679 1.695,1.426 0.879,0.778 1.692,1.628 0.847,0.879 0.891,0.883 0.84,0.949 0.847,0.981 0.879,0.988 1.699,2.098 0.852,1.086 0.879,1.152 0.852,1.152 1.687,2.442 0.879,1.254 1.699,2.64 0.852,1.36 0.879,1.426 0.847,1.421 0.852,1.457 0.879,1.493 0.847,1.527 0.84,1.559 0.852,1.625 0.879,1.589 0.847,1.633 0.852,1.59 0.848,1.629 0.878,1.625 0.848,1.59 0.852,1.633 0.879,1.589 1.687,3.254 0.852,1.594 0.879,1.629 0.847,1.59 0.852,1.629 0.847,1.594 0.879,1.628 0.852,1.625 0.84,1.59 0.847,1.633 0.879,1.59 0.852,1.629 0.848,1.59 0.878,1.625 0.852,1.597 0.852,1.625 0.847,1.594 0.879,1.59 0.852,1.527 0.84,1.457 0.847,1.426 0.879,1.359 0.852,1.317 0.847,1.254 0.852,1.187 0.879,1.117 0.847,1.086 0.84,1.055 0.891,0.945 0.848,0.914 0.839,0.848 0.852,0.817 0.879,0.742 0.848,0.715 0.847,0.609 0.852,0.574 0.879,0.543 0.859,0.477 0.828,0.41 0.852,0.336 0.879,0.301 0.847,0.273 0.852,0.172 0.879,0.133 0.847,0.101 0.852,0.035 h 0.84 l 0.887,-0.07 0.851,-0.098 0.84,-0.168 0.852,-0.207 0.875,-0.234 0.851,-0.309 0.852,-0.335 0.879,-0.411 0.847,-0.437 0.852,-0.512 0.84,-0.539 0.886,-0.566 0.84,-0.657 1.699,-1.425 0.879,-0.809 0.852,-0.816 0.848,-0.879 0.847,-0.953 0.883,-0.969 0.848,-1.027 0.839,-1.083 0.887,-1.128 2.539,-3.352 0.879,-1.152 0.852,-1.153 0.859,-1.117 0.84,-1.187 0.879,-1.153 0.84,-1.183 0.847,-1.153 0.852,-1.187 0.879,-1.188 1.699,-2.445 0.879,-1.18 0.852,-1.218 0.847,-1.254 0.84,-1.223 0.891,-1.254 2.539,-3.765 0.879,-1.25 1.699,-2.579 0.879,-1.218 0.847,-1.016 0.852,-0.852 0.84,-0.671 0.887,-0.481 0.839,-0.336 0.852,-0.137 0.848,0.036 0.878,0.203 0.848,0.371 0.852,0.543 0.84,0.746 0.886,0.914 0.852,1.086 0.84,1.254 0.879,1.426 0.847,1.625 0.852,1.796 0.871,1.969 0.855,2.133 0.852,2.305 0.851,2.511 0.836,2.641 0.891,2.848 0.84,3.015 0.848,3.188 0.851,3.527 0.879,3.996 0.852,4.477 0.847,4.949 0.879,5.422 0.852,5.863 0.847,6.371 0.84,6.852 0.888,7.316 0.84,7.766 0.85,8.273 0.85,8.743 0.88,9.218 0.85,9.66 0.85,10.168 0.84,10.649 0.89,11.117 0.84,11.559 0.85,12.062 0.88,12.539 0.84,12.985 0.85,13.492 0.85,13.965 0.88,14.402 0.85,14.918 0.85,15.391 0.84,15.285 0.89,14.711 0.84,14.093 0.85,13.532 0.88,12.882 0.85,12.305 0.85,11.695 0.85,11.082 0.88,10.508 0.85,9.864 0.84,9.289 0.85,8.675 0.88,8.102 0.84,7.453 0.85,6.883 0.85,6.273 0.88,5.66 0.85,5.047 0.85,4.477 0.88,3.828 0.85,3.254 0.84,2.644 0.85,2.067 0.88,1.426 0.85,0.847 0.85,0.239 0.85,-0.27 0.88,-0.715 0.85,-1.152 0.85,-1.59 0.84,-2.035 0.88,-2.442 0.84,-2.917 0.85,-3.321 0.88,-3.758 0.85,-4.171 0.85,-4.649 0.85,-5.082 0.88,-5.488 0.85,-5.93 0.85,-6.375 0.84,-6.816 0.88,-7.215 0.85,-7.703 0.85,-8.09 0.88,-8.551 0.85,-8.976 0.85,-9.426 0.84,-9.86 0.88,-10.273 0.85,-10.707 0.84,-11.16 0.85,-11.223 0.88,-10.848 0.85,-10.535 0.85,-10.172 0.85,-9.828 0.88,-9.523 0.85,-9.153 0.85,-8.812 0.88,-8.473 0.85,-8.132 0.84,-7.801 0.85,-7.453 0.88,-7.121 0.85,-6.754 0.84,-6.43 0.85,-6.102 0.88,-5.73 0.85,-5.426 0.84,-5.047 0.85,-4.746 0.89,-4.371 0.84,-4.035 0.85,-3.727 0.88,-3.355 0.85,-3.02 0.85,-2.679 0.85,-2.504 0.88,-2.477 1.69,-4.883 0.85,-2.406 0.88,-2.375 0.84,-2.367 0.85,-2.344 0.85,-2.305 0.88,-2.304 1.7,-4.539 0.88,-2.203 1.69,-4.411 0.85,-2.168 0.88,-2.132 1.7,-4.203 0.85,-2.067 0.88,-2.035 0.85,-2.031 0.85,-2.004 0.87,-1.965 0.84,-1.965 1.7,-3.867 0.88,-1.965 1.7,-3.996 0.85,-2.035 0.88,-2.031 1.69,-4.207 0.85,-2.137 0.88,-2.137 0.85,-2.168 0.85,-2.199 0.88,-2.242 0.85,-2.235 0.85,-2.273 0.85,-2.305 0.87,-2.304 2.54,-7.118 0.88,-2.41 0.85,-2.433 0.85,-2.477 0.85,-2.512 0.88,-2.507 0.85,-2.54 0.84,-2.507 0.89,-2.512 1.69,-4.879 0.85,-2.371 0.88,-2.34 1.7,-4.543 0.84,-2.238 0.88,-2.168 0.85,-2.137 0.84,-2.101 0.89,-2.067 0.84,-2.035 0.85,-1.996 0.85,-1.934 0.88,-1.929 0.85,-1.868 0.85,-1.828 0.84,-1.789 0.89,-1.773 0.85,-1.727 1.69,-3.32 0.88,-1.598 0.85,-1.558 0.84,-1.489 0.88,-1.46 0.85,-1.356 0.85,-1.285 0.84,-1.223 0.9,-1.117 0.83,-1.09 0.85,-0.98 0.85,-0.946 0.88,-0.851 0.85,-0.774 0.85,-0.679 0.85,-0.637 0.88,-0.586 0.85,-0.473 0.84,-0.41 0.89,-0.336 0.84,-0.273 0.84,-0.199 0.85,-0.106 0.88,-0.031 h 0.85 l 0.85,0.102 0.85,0.164 0.88,0.273 0.84,0.305 0.85,0.34 0.85,0.371 0.88,0.343 1.7,0.743 0.88,0.339 0.85,0.372 0.85,0.343 0.84,0.371 0.88,0.336 1.69,0.746 0.85,0.344 0.88,0.371 0.85,0.371 0.85,0.34 0.88,0.371 1.7,0.746 0.84,0.34 0.89,0.371 2.54,1.121 0.88,0.371 0.85,0.34 0.85,0.375 0.84,0.301 0.88,0.309 0.85,0.269 0.84,0.239 0.88,0.171 1.7,0.336 0.85,0.102 0.88,0.07 0.85,0.067 h 1.69 l 0.89,-0.067 0.84,-0.07 0.85,-0.102 0.85,-0.136 0.88,-0.172 0.85,-0.164 0.85,-0.239 0.87,-0.269 0.85,-0.274 0.85,-0.304 0.84,-0.375 0.89,-0.371 1.69,-0.817 0.85,-0.437 0.88,-0.407 1.7,-0.816 0.88,-0.402 0.85,-0.379 0.84,-0.403 0.85,-0.371 0.89,-0.406 2.53,-1.125 0.88,-0.371 0.85,-0.371 0.85,-0.34 0.84,-0.371 0.89,-0.344 1.69,-0.672 0.88,-0.343 1.7,-0.676 0.85,-0.305 0.88,-0.332 2.54,-0.922 0.89,-0.269 0.84,-0.239 1.69,-0.406 0.88,-0.207 0.85,-0.168 0.85,-0.133 0.88,-0.136 1.69,-0.203 0.85,-0.036 0.88,-0.07 0.85,-0.031 h 0.87 l 0.83,0.031 0.88,0.035 0.85,0.035 0.85,0.067 0.84,0.101 0.88,0.106 0.84,0.137 0.85,0.164 0.88,0.171 0.85,0.208 0.85,0.164 0.85,0.207 0.88,0.136 0.85,0.164 0.85,0.137 0.84,0.102 0.88,0.101 1.7,0.141 0.88,0.062 1.7,0.067 h 1.72 l 0.85,-0.031 0.84,-0.067 0.85,-0.031 0.88,-0.07 1.7,-0.204 0.85,-0.136 0.88,-0.133 0.85,-0.137 0.85,-0.172 0.88,-0.207 2.56,-0.609 0.86,-0.199 0.85,-0.172 0.85,-0.203 0.85,-0.168 0.87,-0.203 2.54,-0.508 0.89,-0.172 0.84,-0.172 0.85,-0.133 0.88,-0.168 2.55,-0.406 0.88,-0.137 2.54,-0.406 0.88,-0.102 0.85,-0.101 0.85,-0.137 0.87,-0.101 2.55,-0.305 0.88,-0.066 1.69,-0.208 0.85,-0.062 0.88,-0.098 0.85,-0.074 0.85,-0.101 0.85,-0.071 0.88,-0.105 1.69,-0.129 0.89,-0.067 2.53,-0.207 0.88,-0.066 2.55,-0.207 0.88,-0.063 0.85,-0.035 0.84,-0.066 0.85,-0.035 0.88,-0.067 0.85,-0.035 0.85,-0.07 0.88,-0.031 2.55,-0.106 0.88,-0.031 1.68,-0.066 h 0.85 l 0.88,-0.04 h 0.85 l 0.85,-0.027 h 2.58 l 0.84,-0.035 h 0.89 l 0.84,0.035 h 2.58 l 0.85,0.027 h 0.85 l 0.85,0.04 h 0.87 l 1.69,0.066 h 5.16 l 0.85,-0.035 h 0.84 l 0.89,-0.031 2.54,-0.102 0.88,-0.035 0.85,-0.031 0.85,-0.071 0.87,-0.035 2.54,-0.203 0.89,-0.059 0.84,-0.078 0.85,-0.097 0.85,-0.071 0.88,-0.101 2.55,-0.309 0.88,-0.098 1.69,-0.273 0.89,-0.137 1.69,-0.277 0.85,-0.16 0.87,-0.137 1.7,-0.34 0.85,-0.203 0.88,-0.168 1.69,-0.406 0.89,-0.203 1.69,-0.41 0.85,-0.235 0.88,-0.238 2.54,-0.715 0.89,-0.266 0.84,-0.273 0.85,-0.234 0.84,-0.274 0.88,-0.234 0.85,-0.238 0.85,-0.278 0.88,-0.23 2.54,-0.715 0.89,-0.238 0.84,-0.235 0.85,-0.207 0.85,-0.234 0.88,-0.203 0.85,-0.239 0.85,-0.203 0.84,-0.238 0.89,-0.199 1.68,-0.41 0.88,-0.2 2.55,-0.613 0.88,-0.203 0.85,-0.137 0.85,-0.101 h 0.84 l 0.89,0.066 0.84,0.149 0.85,0.195 0.85,0.301 0.88,0.375 0.85,0.406 0.85,0.508 0.88,0.609 0.84,0.645 0.85,0.742 0.84,0.781 0.89,0.875 0.84,0.957 0.85,1.051 0.85,1.082 0.88,1.187 0.85,1.254 0.85,1.325 0.88,1.39 0.85,1.457 0.84,1.559 0.85,1.629 0.89,1.695 0.84,1.684 0.85,1.672 0.85,1.625 0.87,1.589 0.85,1.563 0.85,1.523 0.84,1.461 0.89,1.422 0.84,1.391 0.85,1.351 0.88,1.325 0.85,1.289 0.85,1.218 0.85,1.188 0.9,1.187 0.83,1.118 1.69,2.101 0.89,0.984 0.84,0.985 0.85,0.91 0.85,0.887 0.87,0.808 0.85,0.817 0.85,0.746 0.88,0.746 0.85,0.641 0.84,0.578 0.85,0.476 0.88,0.371 0.85,0.305 0.85,0.203 0.85,0.102 0.88,0.035 0.85,-0.078 0.85,-0.125 0.88,-0.27 0.85,-0.308 0.84,-0.442 0.85,-0.508 0.87,-0.609 0.85,-0.68 0.85,-0.812 0.85,-0.848 0.88,-0.98 0.85,-1.055 0.85,-1.152 0.84,-1.219 0.88,-1.32 0.85,-1.426 0.85,-1.488 0.88,-1.598 0.87,-1.66 1.68,-3.184 0.88,-1.562 1.69,-3.047 0.84,-1.492 0.88,-1.493 0.85,-1.422 0.85,-1.457 0.85,-1.39 0.88,-1.395 1.7,-2.707 0.88,-1.324 0.85,-1.285 1.69,-2.508 0.88,-1.258 1.7,-2.371 0.85,-1.164 0.88,-1.141 0.85,-1.117 1.68,-2.168 0.89,-1.054 1.69,-1.965 0.88,-0.918 1.7,-1.692 0.85,-0.777 0.88,-0.746 0.85,-0.723 0.84,-0.672 0.85,-0.609 0.88,-0.609 1.7,-1.008 0.88,-0.481 0.84,-0.406 0.85,-0.379 0.85,-0.336 0.88,-0.273 0.85,-0.234 0.84,-0.204 0.85,-0.171 0.88,-0.133 0.85,-0.067 0.85,-0.035 h 0.85 l 0.88,0.035 h 0.85 l 0.84,0.035 h 0.89 l 0.84,0.032 h 0.85 l 0.85,0.035 h 6.84 l 0.88,-0.035 h 0.85 l 0.85,-0.032 h 0.88 l 0.85,-0.035 h 0.85 l 0.85,-0.035 0.88,-0.035 2.54,-0.102 0.87,-0.035 1.7,-0.066 0.88,-0.035 2.54,-0.102 0.89,-0.031 2.54,-0.102 0.88,-0.066 2.55,-0.106"
         style="fill:none;stroke:#4974b1;stroke-width:10;stroke-linecap:butt;stroke-linejoin:miter;stroke-miterlimit:3.25;stroke-dasharray:none;stroke-opacity:1"
         transform="matrix(0.13333333,0,0,-0.13333333,0,161.04)" />
      <path
         id="path3"
         d="m 3.40234,247.57 0.5,-0.066 0.58594,-0.102 1.21094,-0.136 0.67578,-0.098 0.71484,-0.105 1.5625,-0.204 0.8086,-0.101 0.88286,-0.133 0.9179,-0.102 0.9453,-0.136 1.9688,-0.278 1.0195,-0.093 0.9766,-0.106 0.9922,-0.137 0.9453,-0.066 0.9765,-0.102 3.8008,-0.269 0.9531,-0.035 2.7461,-0.102 h 2.7071 l 0.8867,0.035 h 0.875 l 0.8906,0.032 0.836,0.035 0.8867,0.066 0.8476,0.071 0.8399,0.035 0.8554,0.093 0.8164,0.071 0.8399,0.07 0.8125,0.102 1.6953,0.136 0.8164,0.035 0.8477,0.067 1.6953,0.062 0.8125,0.036 h 0.8554 l 0.836,0.035 h 2.5469 l 0.8476,-0.035 h 0.8399 l 2.5468,-0.098 0.8828,-0.067 0.8555,-0.035 1.6875,-0.136 0.8828,-0.071 0.8438,-0.101 0.8515,-0.071 0.875,-0.093 0.8555,-0.106 0.8477,-0.066 0.875,-0.067 0.8476,-0.07 0.8867,-0.066 1.6914,-0.137 0.875,-0.035 0.8555,-0.035 0.8477,-0.059 0.8789,-0.039 0.8476,-0.035 h 0.8516 l 0.875,-0.031 0.8477,-0.036 h 4.2734 l 0.8867,0.036 h 0.8438 l 1.6875,0.066 0.8828,0.039 2.5468,0.094 0.8829,0.035 h 0.8437 l 1.6992,0.066 0.875,0.036 h 0.8477 l 0.8476,0.035 h 0.8477 l 0.8867,0.031 h 0.8399 l 0.8515,0.035 h 4.3047 l 0.8516,0.035 h 0.8398 l 0.8517,-0.035 h 3.426 l 0.879,-0.035 h 1.691 l 0.848,-0.031 h 1.722 l 0.856,-0.035 h 1.73 l 0.844,-0.036 h 1.727 l 0.855,-0.035 h 1.691 l 0.883,-0.031 h 1.696 l 0.875,-0.035 h 1.699 l 0.844,-0.035 h 0.882 l 0.856,-0.039 h 1.687 l 0.883,-0.02 h 2.547 l 0.879,-0.039 h 8.535 l 0.883,0.039 h 2.578 l 0.852,0.02 h 0.843 l 0.848,0.039 h 0.875 l 0.855,0.035 h 0.848 l 0.84,0.035 h 0.887 l 1.691,0.066 h 0.852 l 0.875,0.036 h 0.851 l 0.848,0.035 h 1.726 l 0.856,0.031 h 0.84 l 0.883,0.035 h 2.542 l 0.875,0.035 h 3.426 l 0.856,0.035 h 5.14 l 0.856,0.032 h 0.851 l 0.84,0.035 0.883,0.035 2.543,0.199 0.875,0.07 1.703,0.204 0.875,0.101 0.852,0.106 1.699,0.265 0.879,0.137 0.844,0.137 1.699,0.34 0.875,0.203 0.851,0.168 0.852,0.203 0.879,0.207 0.844,0.199 1.695,0.477 0.887,0.234 0.839,0.273 0.852,0.235 0.848,0.273 0.875,0.235 1.703,0.543 0.844,0.308 0.878,0.274 0.848,0.3 0.848,0.274 0.89,0.304 1.688,0.61 0.851,0.336 0.879,0.308 0.844,0.336 0.856,0.313 0.843,0.332 0.883,0.344 0.84,0.371 0.852,0.336 0.851,0.375 0.871,0.339 1.703,0.747 0.879,0.406 1.692,0.812 0.847,0.442 0.891,0.437 0.84,0.508 0.847,0.481 0.852,0.507 0.879,0.539 0.848,0.543 0.851,0.578 0.879,0.586 1.688,1.211 0.851,0.645 0.887,0.644 0.836,0.672 1.703,1.426 0.879,0.715 0.844,0.742 1.703,1.563 0.882,0.808 0.84,0.817 0.848,0.843 0.887,0.852 0.843,0.883 0.848,0.914 0.852,0.945 0.879,0.953 2.539,3.051 0.886,1.086 0.836,1.082 0.856,1.117 0.847,1.156 0.879,1.184 0.848,1.188 0.844,1.218 0.886,1.258 0.852,1.281 1.687,2.649 0.891,1.351 1.688,2.785 0.851,1.422 0.879,1.457 0.848,1.493 1.695,3.05 0.883,1.59 0.84,1.598 0.851,1.625 0.883,1.695 0.844,1.695 0.851,1.727 0.84,1.766 0.887,1.797 0.852,1.828 1.687,3.726 0.891,1.934 1.687,3.93 0.875,2.046 0.856,2.024 1.687,4.203 0.887,2.137 0.851,2.168 0.84,2.203 0.852,2.234 0.879,2.274 0.847,2.304 0.852,2.336 0.84,2.375 0.886,2.34 1.692,4.676 0.883,2.34 2.543,7.015 0.879,2.34 0.851,2.34 0.856,2.305 0.832,2.34 0.89,2.335 0.848,2.305 0.84,2.34 0.851,2.305 0.887,2.34 1.691,4.605 0.872,2.309 0.855,2.339 1.691,4.614 0.883,2.304 1.699,4.61 0.844,2.269 0.879,2.203 0.852,2.168 0.851,2.11 0.871,2.058 0.856,2.004 0.847,1.961 0.84,1.903 0.883,1.828 0.848,1.797 0.847,1.73 0.852,1.66 0.879,1.625 0.848,1.598 1.691,2.976 0.887,1.395 0.851,1.348 0.844,1.293 0.879,1.253 0.844,1.188 0.851,1.152 0.856,1.082 0.867,1.024 0.855,0.98 0.848,0.946 0.84,0.839 0.887,0.793 0.851,0.743 0.848,0.644 0.844,0.574 0.878,0.504 0.848,0.449 0.856,0.372 0.875,0.308 0.847,0.199 0.852,0.172 0.844,0.102 h 0.878 l 0.844,-0.035 0.852,-0.137 0.851,-0.203 0.875,-0.235 0.852,-0.343 0.848,-0.407 0.839,-0.472 0.891,-0.539 0.84,-0.614 0.851,-0.675 0.887,-0.782 0.84,-0.812 0.848,-0.883 0.855,-0.949 0.875,-1.024 0.848,-1.046 1.695,-2.235 0.879,-1.223 0.844,-1.253 0.855,-1.286 0.883,-1.324 0.84,-1.394 0.851,-1.45 0.856,-1.496 0.871,-1.523 0.852,-1.59 0.847,-1.633 0.848,-1.691 0.883,-1.731 0.839,-1.796 0.848,-1.829 0.856,-1.863 0.875,-1.933 0.847,-1.969 0.852,-2.031 0.879,-2.071 0.843,-2.133 0.844,-2.168 0.856,-2.203 0.883,-2.172 2.542,-6.406 0.875,-2.097 1.696,-4.149 0.847,-2.019 0.887,-2.036 0.84,-2.039 0.855,-1.996 0.883,-1.969 0.844,-1.96 1.699,-3.879 0.875,-1.883 0.848,-1.899 1.695,-3.73 0.883,-1.832 0.84,-1.832 0.851,-1.793 0.887,-1.797 1.692,-3.523 0.847,-1.731 0.879,-1.726 2.543,-4.989 0.887,-1.59 0.844,-1.589 1.699,-3.122 0.875,-1.496 1.687,-2.976 0.891,-1.426 0.848,-1.426 1.691,-2.777 0.887,-1.324 1.691,-2.645 0.844,-1.254 0.883,-1.254 1.691,-2.445 0.856,-1.18 0.882,-1.156 1.688,-2.234 0.879,-1.086 1.699,-2.098 0.848,-1.015 0.882,-0.997 0.848,-0.972 1.695,-1.899 0.883,-0.879 1.692,-1.761 0.851,-0.852 0.875,-0.808 0.856,-0.817 0.836,-0.75 0.886,-0.773 1.696,-1.426 0.843,-0.68 0.879,-0.683 0.852,-0.641 1.691,-1.219 0.887,-0.578 1.687,-1.082 0.891,-0.543 0.848,-0.473 0.844,-0.507 0.847,-0.477 0.879,-0.437 0.848,-0.446 1.695,-0.82 0.883,-0.398 0.851,-0.336 0.844,-0.368 0.852,-0.347 0.867,-0.301 1.699,-0.613 0.879,-0.274 0.859,-0.234 0.852,-0.274 0.828,-0.203 0.899,-0.203 0.839,-0.203 1.7,-0.336 0.879,-0.137 0.839,-0.101 0.86,-0.141 0.84,-0.062 0.878,-0.102 1.7,-0.137 0.879,-0.035 0.839,-0.035 h 3.438 l 0.852,0.035 0.835,0.071 0.891,0.066 1.691,0.137 0.887,0.097 2.539,0.411 0.879,0.132 1.699,0.34 0.84,0.203 0.879,0.203 0.84,0.243 0.859,0.199 0.84,0.273 0.879,0.27 1.707,0.539 0.871,0.344 0.86,0.3 0.839,0.344 0.848,0.371 0.891,0.375 0.84,0.371 1.699,0.817 0.879,0.437 0.84,0.442 1.699,0.945 0.879,0.48 0.847,0.508 0.852,0.539 0.879,0.508 2.551,1.731 0.878,0.578 0.848,0.64 0.852,0.614 0.84,0.679 0.886,0.672 0.84,0.711 0.852,0.75 0.847,0.781 0.879,0.778 0.84,0.812 1.738,1.731 0.84,0.879 1.699,1.91 0.879,0.941 1.7,2.031 0.847,1.047 0.879,1.086 1.699,2.242 0.871,1.18 1.7,2.375 0.847,1.254 0.891,1.254 0.84,1.289 0.84,1.324 0.859,1.348 0.879,1.363 0.84,1.391 1.699,2.847 0.891,1.454 1.687,2.984 0.879,1.559 1.699,3.121 0.852,1.625 0.867,1.629 1.699,3.32 0.852,1.695 0.886,1.731 1.692,3.523 0.848,1.797 0.878,1.832 1.692,3.727 0.887,1.898 1.679,3.867 0.86,1.961 0.879,1.969 0.847,1.996 1.699,4.066 0.871,2.075 1.7,4.203 0.879,2.132 0.859,2.133 0.84,2.172 0.847,2.203 0.891,2.203 0.84,2.204 1.687,4.539 0.879,2.277 0.864,2.305 0.839,2.339 0.848,2.368 0.879,2.343 1.699,4.809 0.879,2.441 0.84,2.442 0.859,2.476 0.84,2.442 0.879,2.433 0.86,2.446 1.679,4.812 0.879,2.406 0.859,2.411 1.692,4.738 0.879,2.375 1.695,4.676 0.883,2.34 0.848,2.339 1.699,4.61 0.879,2.273 0.84,2.305 1.699,4.543 0.879,2.234 0.859,2.274 1.68,4.468 0.898,2.211 0.84,2.2 0.84,2.168 0.879,2.167 2.551,6.309 0.875,2.031 0.863,2.039 1.687,3.996 0.879,1.965 0.84,1.899 0.859,1.933 0.879,1.868 0.84,1.859 1.699,3.66 0.879,1.766 0.852,1.761 1.687,3.457 0.879,1.696 0.86,1.664 0.847,1.625 0.84,1.582 0.883,1.601 0.855,1.563 0.832,1.488 0.887,1.426 0.852,1.387 0.84,1.289 0.859,1.258 0.879,1.218 0.84,1.118 0.859,1.085 0.84,1.016 0.879,0.984 0.859,0.879 0.84,0.852 0.84,0.773 0.879,0.75 0.859,0.676 0.852,0.613 0.867,0.543 0.852,0.504 1.699,0.817 0.879,0.304 0.847,0.262 0.84,0.211 0.86,0.148 0.878,0.055 0.84,0.07 h 0.86 l 0.879,-0.035 0.839,-0.078 0.852,-0.09 0.848,-0.136 0.886,-0.168 0.832,-0.203 1.707,-0.477 0.871,-0.309 0.848,-0.336 0.86,-0.371 0.839,-0.41 0.879,-0.437 0.852,-0.477 0.847,-0.508 0.891,-0.574 0.84,-0.574 0.84,-0.613 0.859,-0.645 0.867,-0.68 0.852,-0.711 0.859,-0.746 0.84,-0.777 0.891,-0.816 0.84,-0.844 0.847,-0.883 0.852,-0.914 0.879,-0.953 0.84,-0.945 0.859,-1.016 0.867,-1.027 0.852,-1.043 0.847,-1.086 0.852,-1.125 0.887,-1.11 1.679,-2.375 0.86,-1.254 0.879,-1.254 1.687,-2.574 0.852,-1.355 0.886,-1.36 1.692,-2.847 0.887,-1.453 0.839,-1.496 0.84,-1.524 0.863,-1.555 0.868,-1.562 1.699,-3.184 0.848,-1.629 0.89,-1.628 0.84,-1.625 0.84,-1.661 0.898,-1.664 1.68,-3.324 0.859,-1.691 0.868,-1.696 0.863,-1.695 1.687,-3.457 0.891,-1.727 2.535,-5.289 0.871,-1.761 1.699,-3.594 0.879,-1.801 2.547,-5.484 0.891,-1.832 2.527,-5.59 0.883,-1.867 0.855,-1.864 1.692,-3.796 0.89,-1.864 0.836,-1.898 0.852,-1.938 0.879,-1.898 0.84,-1.895 1.699,-3.855 0.879,-1.938 0.859,-1.933 0.84,-1.969 0.852,-1.93 0.886,-1.968 0.84,-1.934 0.84,-1.961 0.891,-2.004 1.699,-3.93 0.84,-2 0.879,-2 0.855,-2 1.692,-3.929 0.878,-1.938 2.539,-5.804 0.879,-1.887 1.7,-3.727 0.879,-1.867 2.539,-5.492 0.886,-1.793 1.7,-3.594 0.839,-1.761 0.879,-1.727 0.864,-1.766 0.835,-1.726 0.852,-1.699 0.879,-1.696 0.852,-1.695 0.835,-1.66 0.891,-1.66 0.84,-1.668 0.859,-1.618 0.84,-1.597 0.879,-1.59 1.699,-3.121 0.852,-1.524 0.879,-1.523 0.847,-1.492 1.692,-2.918 0.879,-1.418 1.699,-2.848 0.879,-1.359 0.847,-1.391 1.692,-2.64 0.887,-1.325 0.839,-1.289 1.7,-2.504 0.879,-1.254 0.859,-1.187 0.84,-1.223 0.887,-1.152 0.839,-1.195 0.852,-1.145 0.851,-1.117 0.875,-1.152 2.54,-3.36 0.878,-1.082 2.551,-3.254 0.879,-1.047 1.692,-2.105 0.886,-1.051 2.539,-3.051 0.879,-0.98 2.539,-2.949 0.891,-0.985 1.687,-1.898 0.852,-0.914 0.879,-0.949 1.695,-1.832 0.879,-0.879 1.699,-1.762 2.571,-2.578 1.699,-1.629 0.879,-0.805 0.847,-0.82 0.852,-0.781 0.879,-0.778 0.848,-0.781 1.691,-1.492 0.879,-0.754 2.551,-2.129 0.879,-0.707 1.699,-1.355 0.84,-0.649 0.886,-0.676 1.692,-1.289 0.879,-0.609 1.699,-1.285 0.848,-0.61 0.878,-0.613 2.539,-1.828 0.887,-0.578 0.844,-0.61 1.695,-1.152 0.879,-0.578 1.699,-1.152 0.879,-0.539 0.852,-0.579 1.687,-1.082 0.891,-0.543 0.84,-0.511 0.847,-0.543 0.852,-0.508 0.879,-0.543 0.852,-0.508 1.687,-0.945 0.891,-0.516 0.839,-0.437 0.848,-0.477 0.879,-0.437 1.699,-0.883 0.852,-0.406 0.879,-0.407 0.847,-0.41 1.692,-0.742 0.887,-0.375 0.839,-0.371 0.852,-0.336 0.879,-0.344 1.695,-0.676 0.852,-0.304 0.898,-0.309 0.828,-0.265 0.852,-0.309 0.84,-0.27 0.879,-0.273 0.847,-0.234 0.852,-0.274 0.847,-0.234 0.879,-0.238 1.703,-0.473 0.875,-0.242 1.692,-0.403 0.848,-0.242 0.878,-0.164 1.704,-0.41 0.847,-0.168 0.879,-0.172 0.852,-0.203 0.847,-0.137 0.84,-0.168 0.891,-0.168 1.687,-0.273 0.879,-0.133 1.699,-0.273 0.848,-0.102 0.883,-0.098 1.687,-0.207 0.852,-0.066 0.887,-0.059 1.687,-0.148 0.879,-0.031 0.871,-0.035 h 0.828 l 0.852,-0.032 h 0.879 l 0.847,0.032 h 0.84 l 0.852,0.035 0.879,0.066 0.847,0.035 1.704,0.137 0.875,0.066 1.691,0.207 0.891,0.098 2.539,0.41 0.879,0.164 0.847,0.172 1.699,0.406 0.879,0.274 0.852,0.234 0.84,0.309 0.847,0.265 0.879,0.344 0.852,0.336 0.848,0.375 0.878,0.371 0.852,0.406 1.695,0.883 0.879,0.477 0.852,0.473 0.84,0.507 0.847,0.539 0.879,0.543 1.699,1.161 0.852,0.636 0.879,0.614 0.848,0.675 0.851,0.645 0.879,0.715 0.84,0.711 0.847,0.742 0.852,0.781 0.879,0.816 0.852,0.813 0.847,0.848 0.852,0.879 0.879,0.917 0.847,0.915 0.84,0.953 0.891,0.98 1.687,2.031 0.852,1.055 0.879,1.082 1.699,2.238 0.848,1.176 0.879,1.195 0.847,1.188 1.692,2.504 0.878,1.289 0.848,1.289 0.852,1.359 0.879,1.352 0.847,1.391 0.852,1.425 0.84,1.457 0.886,1.461 1.711,3.043 0.828,1.567 0.879,1.59 1.703,3.253 0.848,1.692 0.879,1.699 0.852,1.731 0.836,1.761 0.89,1.797 0.84,1.793 0.852,1.828 0.847,1.903 0.879,1.898 1.699,3.863 0.84,2 0.891,1.996 0.847,2.039 0.84,2.067 0.891,2.137 0.84,2.203 0.847,2.234 0.848,2.34 0.883,2.406 0.848,2.477 0.847,2.539 0.844,2.613 0.887,2.676 0.84,2.781 0.847,2.813 0.852,2.918 0.879,2.949 0.847,3.047 0.852,3.117 0.879,3.187 0.847,3.254 0.852,3.321 0.859,3.394 0.871,3.484 0.836,3.528 0.852,3.629 0.852,3.66 0.875,3.766 0.851,3.828 0.852,3.894 0.847,3.965 0.879,4.137 0.84,4.238 0.852,4.375 0.886,4.473 0.84,4.609 0.848,4.746 0.85,4.848 0.88,4.98 0.85,5.117 0.85,5.219 0.84,5.36 0.89,5.492 0.84,5.59 0.85,5.726 0.85,5.867 0.88,5.965 0.85,6.106 0.85,6.234 0.87,6.34 0.85,6.473 0.85,6.613 0.84,6.707 0.89,6.848 0.84,6.98 0.85,7.086 0.85,7.187 0.88,7.321 0.85,7.39 0.85,7.457 0.88,7.59 0.85,7.664 0.85,7.762 0.84,7.824 0.88,7.969 0.85,8.035 0.85,8.106 0.84,8.234 0.88,8.301 0.85,8.414 0.85,8.5 0.84,8.605 0.89,8.68 0.84,8.781 0.85,8.883 0.88,8.949 0.85,9.055 0.85,9.141 0.85,9.257 0.88,9.321 0.85,9.425 0.85,9.532 0.84,9.551 0.89,9.527 1.68,18.914 0.85,9.391 0.88,9.386 0.85,9.321 0.85,9.289 0.88,9.257 0.85,9.215 0.84,9.192 0.85,9.144 0.89,9.121 0.84,9.082 0.85,9.051 0.85,8.981 0.88,8.984 1.7,17.828 0.88,8.844 0.84,8.816 0.84,8.782 0.85,8.75 0.88,8.712 0.85,8.67 0.85,8.64 0.85,8.44 0.88,8.04 0.85,7.62 0.85,7.26 0.84,6.84 0.89,6.48 0.84,6.06 0.85,5.67 0.88,5.29 0.85,4.87 0.85,4.52 0.85,4.1 0.87,3.68 0.85,3.33 0.85,2.95 0.84,2.51 0.88,2.13 0.85,1.77 0.85,1.36 0.85,0.94 0.88,0.57 0.85,0.18 0.85,-0.2 0.88,-0.62 0.85,-1.02 0.84,-1.38 0.85,-1.76 0.88,-2.07 0.85,-2.38 0.85,-2.7 0.85,-3.03 0.87,-3.35 0.85,-3.67 0.85,-3.96 0.84,-4.27 0.89,-4.61 0.84,-4.94 0.85,-5.22 0.88,-5.57 0.85,-5.89 0.85,-6.21 0.85,-6.51 0.88,-6.8 0.85,-7.16 0.84,-7.46 0.85,-7.79 0.89,-8.11 0.84,-8.4 0.85,-8.748 0.87,-9.051 0.85,-9.355 0.85,-9.688 0.85,-9.835 0.88,-9.801 0.85,-9.785 1.69,-19.528 0.88,-9.734 0.85,-9.727 0.85,-9.687 0.85,-9.664 0.88,-9.657 0.85,-9.628 0.84,-9.59 0.89,-9.602 1.69,-19.109 0.84,-9.524 0.88,-9.492 0.85,-9.492 1.7,-18.922 0.88,-9.422 1.69,-18.773 0.85,-9.356 0.88,-9.355 0.85,-9.317 0.85,-9.261 0.88,-9.11 0.85,-9.015 0.85,-8.883 0.85,-8.75 0.88,-8.645 0.84,-8.504 0.84,-8.41 0.85,-8.265 0.88,-8.172 0.85,-8.035 0.85,-7.895 0.88,-7.797 0.85,-7.664 0.85,-7.523 0.85,-7.422 0.88,-7.285 0.84,-7.188 0.85,-7.051 0.85,-6.949 0.88,-6.781 0.85,-6.707 0.85,-6.543 0.85,-6.441 0.87,-6.336 0.85,-6.203 0.84,-6.071 0.89,-5.965 0.84,-5.867 0.85,-5.758 0.85,-5.625 0.9,-5.531 0.83,-5.418 0.85,-5.289 0.85,-5.184 0.88,-5.089 0.85,-4.946 0.84,-4.882 0.85,-4.747 0.88,-4.609 0.85,-4.539 0.85,-4.41 0.87,-4.27 0.85,-4.203 0.85,-4.066 0.84,-3.965 0.89,-3.867 0.85,-3.727 0.84,-3.629 0.85,-3.523 0.88,-3.391 0.85,-3.289 0.85,-3.219 0.85,-3.148 0.88,-3.121 0.85,-3.051 0.84,-3.019 0.89,-2.95 0.84,-2.914 0.85,-2.879 0.85,-2.812 0.87,-2.746 0.85,-2.719 0.85,-2.637 0.84,-2.613 0.89,-2.574 0.85,-2.508 0.84,-2.441 0.89,-2.414 0.86,-2.364 0.83,-2.308 0.85,-2.27 0.88,-2.203 1.7,-4.273 0.84,-2.032 0.89,-2.035 1.69,-3.851 0.84,-1.875 0.88,-1.832 0.85,-1.797 0.85,-1.731 0.88,-1.726 0.85,-1.661 0.85,-1.625 0.84,-1.593 0.89,-1.563 0.84,-1.488 1.7,-2.914 0.88,-1.359 0.85,-1.352 0.85,-1.324 0.85,-1.254 0.88,-1.223 0.84,-1.183 0.84,-1.153 0.89,-1.121 0.84,-1.047 0.85,-1.015 0.85,-0.989 0.88,-0.945 0.85,-0.926 0.85,-0.871 0.84,-0.851 0.89,-0.844 0.86,-0.852 0.83,-0.808 0.88,-0.782 0.85,-0.816 0.85,-0.742 0.85,-0.781 0.88,-0.746 2.53,-2.133 0.89,-0.68 0.84,-0.68 1.7,-1.289 0.88,-0.605 0.85,-0.61 0.85,-0.578 0.88,-0.609 2.54,-1.629 0.88,-0.508 1.7,-1.015 0.85,-0.473 0.87,-0.477 0.85,-0.476 1.69,-0.879 0.89,-0.442 0.84,-0.437 0.85,-0.41 0.88,-0.442 0.85,-0.371 0.85,-0.41 0.85,-0.371 0.88,-0.371 1.71,-0.746 0.83,-0.344 0.89,-0.336 0.84,-0.336 1.7,-0.609 0.87,-0.309 0.85,-0.3 0.85,-0.278 0.88,-0.301 0.85,-0.238 1.69,-0.543 0.89,-0.242 0.84,-0.266 1.7,-0.472 0.88,-0.239 1.7,-0.476 0.88,-0.238 0.85,-0.235 0.84,-0.207 0.85,-0.238 0.87,-0.199 0.85,-0.203 0.85,-0.239 0.85,-0.203 0.88,-0.203 0.85,-0.203 0.85,-0.168 0.84,-0.195 0.89,-0.211 0.84,-0.172 0.85,-0.203 0.88,-0.168 2.56,-0.512 0.87,-0.168 1.69,-0.34 0.84,-0.137 0.88,-0.168 0.85,-0.136 0.85,-0.168 0.85,-0.145 0.88,-0.125 1.7,-0.273 0.88,-0.137 0.85,-0.098 1.69,-0.273 0.88,-0.102 0.85,-0.105 0.85,-0.133 0.85,-0.101 0.88,-0.102 1.69,-0.203 0.88,-0.102 0.85,-0.062 1.69,-0.207 0.88,-0.071 0.85,-0.101 0.85,-0.07 0.85,-0.098 0.88,-0.066 1.69,-0.207 0.85,-0.067 0.88,-0.101 0.85,-0.067 0.85,-0.101 0.88,-0.071 0.84,-0.101 0.85,-0.067 0.85,-0.101 0.88,-0.071 0.85,-0.097 1.69,-0.137 0.88,-0.102 0.85,-0.07 0.85,-0.101 0.85,-0.075 0.88,-0.058 0.85,-0.102 0.84,-0.066 0.89,-0.106 1.69,-0.136 0.85,-0.102 0.87,-0.062 0.85,-0.071 0.85,-0.101 0.85,-0.071 0.88,-0.066 0.85,-0.066 0.84,-0.106 0.85,-0.066 0.88,-0.071 0.85,-0.097 0.85,-0.067 0.88,-0.07 0.85,-0.066 0.85,-0.106 0.85,-0.066 0.88,-0.067 0.85,-0.066 0.84,-0.102 0.85,-0.066 0.87,-0.07 1.7,-0.137 0.88,-0.066 2.55,-0.204 0.88,-0.066 2.54,-0.207 0.88,-0.066 0.85,-0.036 0.85,-0.066 0.85,-0.035 0.88,-0.063 0.85,-0.07 0.84,-0.035 0.88,-0.031 0.84,-0.079 1.7,-0.058 0.88,-0.07 2.55,-0.102 0.88,-0.035 2.54,-0.098 0.88,-0.035 0.85,-0.066 0.85,-0.036 0.88,-0.035 1.7,-0.066 0.83,-0.07 0.89,-0.032 0.85,-0.035 0.84,-0.07 0.85,-0.031 0.88,-0.036 0.85,-0.062 0.85,-0.035 0.88,-0.07 0.85,-0.036 0.85,-0.066 0.84,-0.035 0.89,-0.067 0.84,-0.035 1.7,-0.136 0.88,-0.036 1.69,-0.129 0.84,-0.035 0.89,-0.07 0.85,-0.066 0.84,-0.036 0.89,-0.07 0.84,-0.031 0.85,-0.07 0.85,-0.036 0.88,-0.062 0.85,-0.031 0.85,-0.071 0.84,-0.035 0.89,-0.066 1.69,-0.071 0.85,-0.066 0.87,-0.035 0.85,-0.067 0.85,-0.039 0.88,-0.031 0.85,-0.035 0.85,-0.062 0.84,-0.036 0.89,-0.035 1.69,-0.066 0.85,-0.067 0.88,-0.035 2.55,-0.101 h 0.88 l 1.69,-0.071 0.88,-0.035 0.84,-0.031 h 0.85 l 0.85,-0.035 0.88,-0.035 h 0.85 l 0.85,-0.039 h 0.84 l 0.89,-0.02 h 0.84 l 0.85,-0.039 h 1.73 l 0.85,-0.035 h 3.43 l 0.84,-0.031 h 6.88 l 0.85,0.031 h 3.42 l 0.85,0.035 h 1.73 l 0.85,0.039 h 1.68 l 0.89,0.02 h 0.84 l 0.85,0.039 h 0.88 l 0.85,0.035 h 0.85 l 0.85,0.035 h 0.88 l 0.85,0.031 h 1.69 l 0.89,0.035 h 0.84 l 0.85,0.036 h 2.58 l 0.84,0.035 h 1.73 l 0.84,0.031 h 4.28 l 0.88,0.035 h 7.69 l 0.85,-0.035 h 2.58 l 0.84,-0.031 h 0.89 l 0.84,-0.035 h 0.85 l 0.88,-0.036 h 0.85 l 0.85,-0.035 h 0.85 l 0.88,-0.031 2.54,-0.109 h 0.87 l 2.55,-0.094 0.88,-0.031 1.7,-0.071 0.88,-0.035 h 0.85 l 0.84,-0.031 h 0.85 l 0.88,-0.035 h 1.7 l 0.85,-0.035 h 2.58 l 0.87,0.035 h 2.54 l 0.88,0.035 h 0.85 l 1.7,0.066 h 0.88 l 2.54,0.102 0.88,0.035 1.7,0.059 0.88,0.039 2.55,0.101 0.87,0.035 h 0.85 l 1.69,0.071 0.88,0.031 h 0.85 l 1.7,0.07 h 0.88 l 1.69,0.067 h 0.89 l 0.85,0.035 h 0.84 l 0.85,0.035 h 0.88 l 0.85,0.031 h 1.69 l 0.88,0.035 h 1.69 l 0.89,0.036 h 2.54 l 5.16,0.023"
         style="fill:none;stroke:#ef4872;stroke-width:10;stroke-linecap:butt;stroke-linejoin:miter;stroke-miterlimit:3.25;stroke-dasharray:none;stroke-opacity:1"
         transform="matrix(0.13333333,0,0,-0.13333333,0,161.04)" />
      <path
         id="path4"
         d="m 91.4609,215.645 v 30"
         style="fill:none;stroke:#231f20;stroke-width:5;stroke-linecap:butt;stroke-linejoin:miter;stroke-miterlimit:3.25;stroke-dasharray:none;stroke-opacity:1"
         transform="matrix(0.13333333,0,0,-0.13333333,0,161.04)" />
      <path
         id="path5"
         d="m 536.277,215.645 v 30"
         style="fill:none;stroke:#231f20;stroke-width:5;stroke-linecap:butt;stroke-linejoin:miter;stroke-miterlimit:3.25;stroke-dasharray:none;stroke-opacity:1"
         transform="matrix(0.13333333,0,0,-0.13333333,0,161.04)" />
      <path
         id="path6"
         d="m 981.113,215.645 v 30"
         style="fill:none;stroke:#231f20;stroke-width:5;stroke-linecap:butt;stroke-linejoin:miter;stroke-miterlimit:3.25;stroke-dasharray:none;stroke-opacity:1"
         transform="matrix(0.13333333,0,0,-0.13333333,0,161.04)" />
      <path
         id="path7"
         d="m 1425.93,215.645 v 30"
         style="fill:none;stroke:#231f20;stroke-width:5;stroke-linecap:butt;stroke-linejoin:miter;stroke-miterlimit:3.25;stroke-dasharray:none;stroke-opacity:1"
         transform="matrix(0.13333333,0,0,-0.13333333,0,161.04)" />
      <path
         id="path8"
         d="m 2.5,245.645 v 962.195 m 0,-962.195 h 1556.88"
         style="fill:none;stroke:#231f20;stroke-width:5;stroke-linecap:butt;stroke-linejoin:miter;stroke-miterlimit:3.25;stroke-dasharray:none;stroke-opacity:1"
         transform="matrix(0.13333333,0,0,-0.13333333,0,161.04)" />
      <g
         id="g8"
         aria-label="400500600&#10;λ&#10;700"
         transform="matrix(1.3333333,0,0,1.3333333,3.5546933,143.38693)">
        <path
           id="path9"
           d="m 4.1015581,-1.6056297 v -0.421875 H 3.2343706 v -3.65625 H 2.8828081 c -0.9257812,1.21875 -1.8515625,2.5546875 -2.70703123,3.8320313 v 0.2460937 H 2.5195269 v 0.65625001 c 0,0.5859375 -0.035156,0.64453125 -0.8203125,0.703125 V -1.609375e-4 H 4.0078081 V -0.24625469 C 3.2812456,-0.30484844 3.2343706,-0.35172344 3.2343706,-0.94937969 V -1.6056297 Z M 2.5195269,-2.0275047 H 0.74999562 C 1.3359331,-3.0235984 1.9218706,-3.8790672 2.5078081,-4.6759422 h 0.011719 z m 3.9580078,-3.6914062 c -1.3476563,0 -1.8398438,1.6054687 -1.8398438,2.9179687 0,1.4179688 0.4804688,2.90625001 1.8398438,2.90625001 1.359375,0 1.828125,-1.59375001 1.828125,-2.91796871 0,-1.3828125 -0.46875,-2.90625 -1.828125,-2.90625 z m 0,0.3046875 c 0.8085937,0 1.03125,1.3242187 1.03125,2.6015625 0,1.265625 -0.2226563,2.61328121 -1.03125,2.61328121 -0.7734375,0 -1.0429688,-1.35937501 -1.0429688,-2.61328121 0,-1.2539063 0.2226563,-2.6015625 1.0429688,-2.6015625 z m 4.3183593,-0.3046875 c -1.3476562,0 -1.8398437,1.6054687 -1.8398437,2.9179687 0,1.4179688 0.4804688,2.90625001 1.8398437,2.90625001 1.359375,0 1.828125,-1.59375001 1.828125,-2.91796871 0,-1.3828125 -0.46875,-2.90625 -1.828125,-2.90625 z m 0,0.3046875 c 0.808594,0 1.03125,1.3242187 1.03125,2.6015625 0,1.265625 -0.222656,2.61328121 -1.03125,2.61328121 -0.773437,0 -1.0429687,-1.35937501 -1.0429687,-2.61328121 0,-1.2539063 0.2226563,-2.6015625 1.0429687,-2.6015625 z m 35.056641,0.46875 h 2.097656 l 0.234375,-0.5859375 -0.05859,-0.070312 H 45.55957 l -0.351563,2.7421875 c 0.210938,-0.082031 0.550782,-0.1875 0.925782,-0.1875 0.984375,0 1.464843,0.5742187 1.464843,1.359375 0,0.6796875 -0.375,1.33593746 -1.136718,1.33593746 -0.550782,0 -0.914063,-0.29296875 -1.113282,-0.45703125 -0.08203,-0.0703125 -0.152343,-0.0585938 -0.234375,0 -0.105468,0.09375 -0.1875,0.2109375 -0.1875,0.29296875 -0.02344,0.10546875 0.02344,0.1875 0.140625,0.3046875 0.128907,0.12890625 0.515625,0.31640625 0.925782,0.31640625 0.480468,-0.01171875 1.078125,-0.24609375 1.570312,-0.6328125 0.550781,-0.45703125 0.796875,-0.96093751 0.796875,-1.51171871 0,-0.7382813 -0.585937,-1.5117188 -1.734375,-1.5117188 -0.246094,0 -0.667969,0.140625 -1.007812,0.2695313 z m 5.106445,-0.7734375 c -1.347656,0 -1.839844,1.6054687 -1.839844,2.9179687 0,1.4179688 0.480469,2.90625001 1.839844,2.90625001 1.359375,0 1.828125,-1.59375001 1.828125,-2.91796871 0,-1.3828125 -0.46875,-2.90625 -1.828125,-2.90625 z m 0,0.3046875 c 0.808594,0 1.03125,1.3242187 1.03125,2.6015625 0,1.265625 -0.222656,2.61328121 -1.03125,2.61328121 -0.773438,0 -1.042969,-1.35937501 -1.042969,-2.61328121 0,-1.2539063 0.222656,-2.6015625 1.042969,-2.6015625 z m 4.318359,-0.3046875 c -1.347656,0 -1.839843,1.6054687 -1.839843,2.9179687 0,1.4179688 0.480468,2.90625001 1.839843,2.90625001 1.359375,0 1.828125,-1.59375001 1.828125,-2.91796871 0,-1.3828125 -0.46875,-2.90625 -1.828125,-2.90625 z m 0,0.3046875 c 0.808594,0 1.03125,1.3242187 1.03125,2.6015625 0,1.265625 -0.222656,2.61328121 -1.03125,2.61328121 -0.773437,0 -1.042968,-1.35937501 -1.042968,-2.61328121 0,-1.2539063 0.222656,-2.6015625 1.042968,-2.6015625 z m 34.916016,2.3320312 c 0.269531,-1.2539062 1.113281,-1.828125 1.664062,-2.0859375 0.328125,-0.1523437 0.679688,-0.2578125 0.972657,-0.3164062 l -0.05859,-0.28125 c -0.363281,0.058594 -0.796875,0.1640625 -1.148438,0.28125 -0.960937,0.3515625 -2.332031,1.3710937 -2.332031,3.3398437 0,1.38281251 0.796875,2.25000001 1.851563,2.25000001 1.078125,0 1.839843,-0.90234375 1.839843,-1.98046871 0,-0.9257813 -0.65625,-1.6640625 -1.617187,-1.6640625 -0.175781,0 -0.363281,0.070312 -0.5625,0.1523437 z m 0.820312,0.046875 c 0.820313,0 1.195313,0.7382813 1.195313,1.4882813 0,0.59765621 -0.210938,1.34765621 -0.914063,1.34765621 -0.738281,0 -1.195312,-0.87890621 -1.195312,-1.95703121 0,-0.234375 0.01172,-0.4570313 0.04687,-0.6210938 0.222656,-0.1171875 0.527344,-0.2578125 0.867187,-0.2578125 z m 4.426758,-2.6835937 c -1.347656,0 -1.839843,1.6054687 -1.839843,2.9179687 0,1.4179688 0.480468,2.90625001 1.839843,2.90625001 1.359375,0 1.828125,-1.59375001 1.828125,-2.91796871 0,-1.3828125 -0.46875,-2.90625 -1.828125,-2.90625 z m 0,0.3046875 c 0.808594,0 1.03125,1.3242187 1.03125,2.6015625 0,1.265625 -0.222656,2.61328121 -1.03125,2.61328121 -0.773437,0 -1.042968,-1.35937501 -1.042968,-2.61328121 0,-1.2539063 0.222656,-2.6015625 1.042968,-2.6015625 z m 4.31836,-0.3046875 c -1.347657,0 -1.839844,1.6054687 -1.839844,2.9179687 0,1.4179688 0.480469,2.90625001 1.839844,2.90625001 1.359375,0 1.828125,-1.59375001 1.828125,-2.91796871 0,-1.3828125 -0.46875,-2.90625 -1.828125,-2.90625 z m 0,0.3046875 c 0.808595,0 1.031245,1.3242187 1.031245,2.6015625 0,1.265625 -0.22265,2.61328121 -1.031245,2.61328121 -0.773438,0 -1.042969,-1.35937501 -1.042969,-2.61328121 0,-1.2539063 0.222656,-2.6015625 1.042969,-2.6015625 z m 0,0"
           style="fill:#231f20;fill-opacity:1;fill-rule:nonzero;stroke:none" />
        <path
           id="path10"
           d="m 77.167964,8.9676125 c -0.28125,0.3867188 -0.503906,0.5273438 -0.597656,0.5273438 -0.08203,0 -0.140625,-0.09375 -0.199219,-0.4921875 C 76.207027,7.86605 76.078121,6.4012063 76.007808,5.662925 c -0.152344,-1.7226562 -0.46875,-2.0742187 -0.9375,-2.0742187 -0.257812,0 -0.632812,0.1757812 -0.84375,0.3515625 l 0.05859,0.2226562 c 0.117187,-0.046875 0.257812,-0.09375 0.386719,-0.09375 0.28125,0.011719 0.480468,0.1757813 0.609375,0.9726563 0.05859,0.3398437 0.09375,0.703125 0.117187,1.1367187 -0.609375,1.4414063 -1.582031,2.8945313 -2.285156,3.7617188 l 0.07031,0.1640622 c 0.222657,-0.04687 0.433594,-0.1054685 0.632813,-0.1640622 0.351562,-0.5039063 1.207031,-2.1445313 1.652344,-3.1640625 0.03516,0.6445312 0.105468,1.2421875 0.234375,2.3554687 0.05859,0.6445313 0.210937,0.972656 0.503906,0.972656 0.269531,0 0.667969,-0.222656 1.136719,-0.9374997 z m 0,0"
           style="fill:#231f20;fill-opacity:1;fill-rule:nonzero;stroke:none" />
        <path
           id="path11"
           d="m 137.46679,-5.6017234 h -3.43359 c -0.0352,0.3867187 -0.082,0.8320312 -0.16406,1.3242187 h 0.25781 c 0.22265,-0.5859375 0.26953,-0.6679687 0.86719,-0.6679687 h 1.94531 c -0.71485,1.5585937 -1.72266,3.421875 -2.67188,4.95703121 l 0.0586,0.09375 0.66797,-0.08203125 c 0.86718,-1.86328126 1.69921,-3.69140626 2.54296,-5.51953126 z m 2.45508,-0.1171875 c -1.34766,0 -1.83984,1.6054687 -1.83984,2.9179687 0,1.4179688 0.48047,2.90625001 1.83984,2.90625001 1.35938,0 1.82813,-1.59375001 1.82813,-2.91796871 0,-1.3828125 -0.46875,-2.90625 -1.82813,-2.90625 z m 0,0.3046875 c 0.80859,0 1.03125,1.3242187 1.03125,2.6015625 0,1.265625 -0.22266,2.61328121 -1.03125,2.61328121 -0.77344,0 -1.04297,-1.35937501 -1.04297,-2.61328121 0,-1.2539063 0.22266,-2.6015625 1.04297,-2.6015625 z m 4.32129,-0.3046875 c -1.34766,0 -1.83984,1.6054687 -1.83984,2.9179687 0,1.4179688 0.48046,2.90625001 1.83984,2.90625001 1.35937,0 1.82812,-1.59375001 1.82812,-2.91796871 0,-1.3828125 -0.46875,-2.90625 -1.82812,-2.90625 z m 0,0.3046875 c 0.80859,0 1.03125,1.3242187 1.03125,2.6015625 0,1.265625 -0.22266,2.61328121 -1.03125,2.61328121 -0.77344,0 -1.04297,-1.35937501 -1.04297,-2.61328121 0,-1.2539063 0.22266,-2.6015625 1.04297,-2.6015625 z m 0,0"
           style="fill:#231f20;fill-opacity:1;fill-rule:nonzero;stroke:none" />
      </g>
    </g>
  </g>
</svg>
