<?xml version="1.0" encoding="UTF-8" standalone="no"?>
<!-- Created with Inkscape (http://www.inkscape.org/) -->

<svg
   version="1.1"
   id="svg1"
   width="288.09332"
   height="164.16"
   viewBox="0 0 288.09332 164.16"
   sodipodi:docname="pha04f15.eps"
   xmlns:inkscape="http://www.inkscape.org/namespaces/inkscape"
   xmlns:sodipodi="http://sodipodi.sourceforge.net/DTD/sodipodi-0.dtd"
   xmlns="http://www.w3.org/2000/svg"
   xmlns:svg="http://www.w3.org/2000/svg">
  <defs
     id="defs1" />
  <sodipodi:namedview
     id="namedview1"
     pagecolor="#ffffff"
     bordercolor="#000000"
     borderopacity="0.25"
     inkscape:showpageshadow="2"
     inkscape:pageopacity="0.0"
     inkscape:pagecheckerboard="0"
     inkscape:deskcolor="#d1d1d1">
    <inkscape:page
       x="0"
       y="0"
       inkscape:label="1"
       id="page1"
       width="288.09332"
       height="164.16"
       margin="0"
       bleed="0" />
  </sodipodi:namedview>
  <g
     id="g1"
     inkscape:groupmode="layer"
     inkscape:label="1">
    <g
       id="group-R5">
      <g
         id="g2"
         aria-label="400&#10;30&#10;20&#10;10&#10;F4&#10;F9&#10;500600700&#10;λ"
         transform="matrix(1.3333333,0,0,1.3333333,22.7964,147.9824)">
        <path
           id="path2"
           d="m 4.1019188,-1.6069172 v -0.421875 H 3.2347313 v -3.65625 H 2.8831688 c -0.9257813,1.21875 -1.8515625,2.5546875 -2.7070313,3.8320313 v 0.2460937 h 2.34375 v 0.65625001 c 0,0.5859375 -0.035156,0.64453125 -0.8203125,0.703125 v 0.24609375 H 4.0081688 V -0.24754219 C 3.2816063,-0.30613594 3.2347313,-0.35301094 3.2347313,-0.95066719 V -1.6069172 Z M 2.5198875,-2.0287922 H 0.75035625 C 1.3362938,-3.0248859 1.9222313,-3.8803547 2.5081688,-4.6772297 h 0.011719 z m 3.9550781,-3.6914062 c -1.3476562,0 -1.8398437,1.6054687 -1.8398437,2.9179687 0,1.4179688 0.4804687,2.90625001 1.8398437,2.90625001 1.359375,0 1.828125,-1.59375001 1.828125,-2.91796871 0,-1.3828125 -0.46875,-2.90625 -1.828125,-2.90625 z m 0,0.3046875 c 0.8085938,0 1.03125,1.3242187 1.03125,2.6015625 0,1.265625 -0.2226562,2.61328121 -1.03125,2.61328121 -0.7734375,0 -1.0429687,-1.35937501 -1.0429687,-2.61328121 0,-1.2539063 0.2226562,-2.6015625 1.0429687,-2.6015625 z m 4.3212894,-0.3046875 c -1.3476566,0 -1.8398441,1.6054687 -1.8398441,2.9179687 0,1.4179688 0.4804688,2.90625001 1.8398441,2.90625001 1.359375,0 1.828125,-1.59375001 1.828125,-2.91796871 0,-1.3828125 -0.46875,-2.90625 -1.828125,-2.90625 z m 0,0.3046875 c 0.808593,0 1.03125,1.3242187 1.03125,2.6015625 0,1.265625 -0.222657,2.61328121 -1.03125,2.61328121 -0.773438,0 -1.0429691,-1.35937501 -1.0429691,-2.61328121 0,-1.2539063 0.2226563,-2.6015625 1.0429691,-2.6015625 z M -16.335581,-99.895003 c 0.222656,-0.328127 0.585937,-0.714847 1.078125,-0.714847 0.480469,0 0.855469,0.29297 0.855469,0.855472 0,0.65625 -0.609375,1.007812 -1.429688,1.277344 l 0.05859,0.257812 c 0.140625,-0.04687 0.363281,-0.105469 0.574219,-0.105469 0.515625,0 1.148437,0.339844 1.148437,1.171875 0,0.890625 -0.457031,1.359375 -1.089844,1.359375 -0.515625,0 -0.890625,-0.246093 -1.125,-0.457031 -0.07031,-0.05859 -0.140625,-0.04687 -0.210937,0 -0.08203,0.05859 -0.199219,0.175781 -0.210938,0.292969 -0.01172,0.117187 0.02344,0.210937 0.152344,0.328125 0.117188,0.105469 0.480469,0.304687 0.890625,0.304687 0.65625,0 2.367188,-0.667968 2.367188,-2.121093 0,-0.65625 -0.46875,-1.21875 -1.253907,-1.371094 v -0.01172 c 0.257813,-0.1875 0.480469,-0.339844 0.609375,-0.492187 0.175782,-0.164063 0.28125,-0.375 0.28125,-0.632813 0,-0.691402 -0.527343,-1.195312 -1.347656,-1.195312 -0.46875,0 -0.890625,0.23438 -1.136719,0.50391 l -0.398437,0.57422 z m 5.71582,-1.253907 c -1.347656,0 -1.839844,1.605469 -1.839844,2.917969 0,1.417969 0.480469,2.90625 1.839844,2.90625 1.3593751,0 1.8281251,-1.59375 1.8281251,-2.917968 0,-1.382813 -0.46875,-2.906251 -1.8281251,-2.906251 z m 0,0.30469 c 0.8085938,0 1.0312501,1.324217 1.0312501,2.601561 0,1.265625 -0.2226563,2.613281 -1.0312501,2.613281 -0.773437,0 -1.042969,-1.359375 -1.042969,-2.613281 0,-1.253907 0.222657,-2.601561 1.042969,-2.601561 z m -2.774414,33.0791 c -0.269531,0.574218 -0.386719,0.609375 -0.867187,0.609375 h -1.6875 l 1.277343,-1.335938 c 0.832032,-0.890625 1.195313,-1.417969 1.195313,-2.203125 0,-0.949219 -0.726563,-1.523437 -1.511719,-1.523437 -0.527344,0 -0.949219,0.234375 -1.21875,0.539062 l -0.515625,0.726563 0.199219,0.175781 c 0.234375,-0.351563 0.609375,-0.832031 1.230469,-0.832031 0.65625,0 1.054687,0.433593 1.054687,1.195312 0,0.773438 -0.5625,1.511719 -1.125,2.179688 -0.445312,0.515625 -0.949219,1.03125 -1.453125,1.523437 v 0.210938 h 3.363281 c 0.105469,-0.410157 0.199219,-0.796875 0.316407,-1.183594 z m 2.774414,-4.453125 c -1.347656,0 -1.839844,1.605468 -1.839844,2.917968 0,1.417969 0.480469,2.90625 1.839844,2.90625 1.3593751,0 1.8281251,-1.59375 1.8281251,-2.917968 0,-1.382813 -0.46875,-2.90625 -1.8281251,-2.90625 z m 0,0.304687 c 0.8085938,0 1.0312501,1.324219 1.0312501,2.601563 0,1.265625 -0.2226563,2.613281 -1.0312501,2.613281 -0.773437,0 -1.042969,-1.359375 -1.042969,-2.613281 0,-1.253907 0.222657,-2.601563 1.042969,-2.601563 z m -3.020508,34.341797 v -0.246094 c -0.820312,-0.05859 -0.878906,-0.128906 -0.878906,-0.785156 v -4.6875 c -0.492187,0.199219 -1.019531,0.375 -1.59375,0.46875 v 0.210938 l 0.433594,0.01172 c 0.386719,0.02344 0.421875,0.07031 0.421875,0.539063 v 3.457031 c 0,0.65625 -0.03516,0.726563 -0.855469,0.785156 v 0.246094 z m 3.020508,-5.71875 c -1.347656,0 -1.839844,1.605469 -1.839844,2.917969 0,1.417969 0.480469,2.90625 1.839844,2.90625 1.3593751,0 1.8281251,-1.59375 1.8281251,-2.917969 0,-1.382812 -0.46875,-2.90625 -1.8281251,-2.90625 z m 0,0.304688 c 0.8085938,0 1.0312501,1.324218 1.0312501,2.601562 0,1.265625 -0.2226563,2.613281 -1.0312501,2.613281 -0.773437,0 -1.042969,-1.359375 -1.042969,-2.613281 0,-1.253906 0.222657,-2.601562 1.042969,-2.601562 z M 194.33825,-61.533675 c -0.0469,-0.421875 -0.0937,-1.007812 -0.0937,-1.324219 h -3.96094 v 0.246094 c 0.69141,0.05859 0.76172,0.105469 0.76172,0.890625 v 3.574219 c 0,0.773437 -0.0703,0.832031 -0.78516,0.878906 v 0.257813 h 2.44922 v -0.257813 c -0.82031,-0.04687 -0.89062,-0.105469 -0.89062,-0.878906 v -1.628906 h 0.92578 c 0.82031,0 0.85547,0.105468 0.97265,0.726562 h 0.2461 v -1.734375 h -0.2461 c -0.11718,0.574219 -0.15234,0.65625 -0.97265,0.65625 h -0.92578 v -2.144531 c 0,-0.257813 0.0234,-0.269531 0.28125,-0.269531 h 0.6914 c 0.67969,0 0.87891,0.07031 1.01953,0.316406 0.12891,0.1875 0.17578,0.363281 0.25782,0.726562 z m 4.4209,2.917969 v -0.421875 h -0.86719 v -3.65625 h -0.35156 c -0.92579,1.21875 -1.85157,2.554687 -2.70704,3.832031 v 0.246094 h 2.34375 v 0.65625 c 0,0.585937 -0.0351,0.644531 -0.82031,0.703125 v 0.246094 h 2.3086 v -0.246094 c -0.72657,-0.05859 -0.77344,-0.105469 -0.77344,-0.703125 v -0.65625 z m -1.58204,-0.421875 h -1.76953 c 0.58594,-0.996094 1.17188,-1.851563 1.75782,-2.648438 h 0.0117 z m -2.83886,9.503906 c -0.0469,-0.421875 -0.0937,-1.007812 -0.0937,-1.324219 h -3.96094 v 0.246094 c 0.69141,0.05859 0.76172,0.105469 0.76172,0.890625 v 3.574219 c 0,0.773437 -0.0703,0.832031 -0.78516,0.878906 v 0.257813 h 2.44922 v -0.257813 c -0.82031,-0.04687 -0.89062,-0.105469 -0.89062,-0.878906 v -1.628906 h 0.92578 c 0.82031,0 0.85547,0.105468 0.97265,0.726562 h 0.2461 v -1.734375 h -0.2461 c -0.11718,0.574219 -0.15234,0.65625 -0.97265,0.65625 h -0.92578 v -2.144531 c 0,-0.257813 0.0234,-0.269531 0.28125,-0.269531 h 0.6914 c 0.67969,0 0.87891,0.07031 1.01953,0.316406 0.12891,0.1875 0.17578,0.363281 0.25782,0.726562 z m 2.49902,-1.195312 c -1.16016,0 -1.83984,1.054687 -1.83984,1.921875 0,0.949218 0.65625,1.640625 1.61718,1.640625 0.16407,0 0.33985,-0.03516 0.53907,-0.140625 l 0.59765,-0.316407 c -0.29297,1.359375 -1.27734,2.261719 -2.5664,2.472657 l 0.0469,0.28125 c 0.22266,0 0.77344,-0.09375 1.26563,-0.292969 1.20703,-0.492188 2.12109,-1.652344 2.12109,-3.316406 0,-1.21875 -0.65625,-2.25 -1.78125,-2.25 z m -0.11719,0.304687 c 0.86719,0 1.10157,1.113281 1.10157,1.898438 0,0.1875 0,0.398437 -0.0352,0.597656 -0.1875,0.140625 -0.49219,0.257812 -0.80859,0.257812 -0.75,0 -1.20704,-0.65625 -1.20704,-1.453125 0,-0.527343 0.25782,-1.300781 0.94922,-1.300781 z M 41.622427,-4.9438312 h 2.097656 l 0.234375,-0.5859375 -0.05859,-0.070312 h -2.566406 l -0.351563,2.7421875 c 0.210938,-0.082031 0.550782,-0.1875 0.925782,-0.1875 0.984375,0 1.464843,0.5742187 1.464843,1.359375 0,0.6796875 -0.375,1.33593745 -1.136718,1.33593745 -0.550782,0 -0.914063,-0.29296875 -1.113282,-0.45703125 -0.08203,-0.0703125 -0.152343,-0.0585938 -0.234375,0 -0.105468,0.09375 -0.1875,0.2109375 -0.1875,0.29296875 -0.02344,0.10546875 0.02344,0.1875 0.140625,0.3046875 C 40.966177,-0.08055 41.352895,0.10695 41.763052,0.10695 c 0.480468,-0.01171875 1.078125,-0.24609375 1.570312,-0.6328125 0.550781,-0.45703125 0.796875,-0.9609375 0.796875,-1.5117187 0,-0.7382813 -0.585937,-1.5117188 -1.734375,-1.5117188 -0.246094,0 -0.667969,0.140625 -1.007812,0.2695313 z m 5.106445,-0.7734375 c -1.347656,0 -1.839844,1.6054687 -1.839844,2.9179687 0,1.4179688 0.480469,2.90625 1.839844,2.90625 1.359375,0 1.828125,-1.59375 1.828125,-2.9179687 0,-1.3828125 -0.46875,-2.90625 -1.828125,-2.90625 z m 0,0.3046875 c 0.808594,0 1.03125,1.3242187 1.03125,2.6015625 0,1.265625 -0.222656,2.6132812 -1.03125,2.6132812 -0.773438,0 -1.042969,-1.359375 -1.042969,-2.6132812 0,-1.2539063 0.222656,-2.6015625 1.042969,-2.6015625 z m 4.321289,-0.3046875 c -1.347656,0 -1.839844,1.6054687 -1.839844,2.9179687 0,1.4179688 0.480469,2.90625 1.839844,2.90625 1.359375,0 1.828125,-1.59375 1.828125,-2.9179687 0,-1.3828125 -0.46875,-2.90625 -1.828125,-2.90625 z m 0,0.3046875 c 0.808594,0 1.03125,1.3242187 1.03125,2.6015625 0,1.265625 -0.222656,2.6132812 -1.03125,2.6132812 -0.773438,0 -1.042969,-1.359375 -1.042969,-2.6132812 0,-1.2539063 0.222656,-2.6015625 1.042969,-2.6015625 z M 81.735708,-3.08055 c 0.269531,-1.2539062 1.113281,-1.828125 1.664062,-2.0859375 0.328125,-0.1523437 0.679688,-0.2578125 0.972657,-0.3164062 l -0.05859,-0.28125 c -0.363281,0.058594 -0.796875,0.1640625 -1.148438,0.28125 -0.960937,0.3515625 -2.332031,1.3710937 -2.332031,3.3398437 0,1.3828125 0.796875,2.25 1.851563,2.25 1.078125,0 1.839843,-0.90234375 1.839843,-1.9804687 0,-0.9257813 -0.65625,-1.6640625 -1.617187,-1.6640625 -0.175781,0 -0.363281,0.070312 -0.5625,0.1523437 z m 0.820312,0.046875 c 0.820313,0 1.195313,0.7382813 1.195313,1.4882813 0,0.5976562 -0.210938,1.3476562 -0.914063,1.3476562 -0.738281,0 -1.195312,-0.8789062 -1.195312,-1.9570312 0,-0.234375 0.01172,-0.4570313 0.04687,-0.6210938 0.222656,-0.1171875 0.527344,-0.2578125 0.867187,-0.2578125 z m 4.423828,-2.6835937 c -1.347656,0 -1.839843,1.6054687 -1.839843,2.9179687 0,1.4179688 0.480468,2.90625 1.839843,2.90625 1.359375,0 1.828125,-1.59375 1.828125,-2.9179687 0,-1.3828125 -0.46875,-2.90625 -1.828125,-2.90625 z m 0,0.3046875 c 0.808594,0 1.03125,1.3242187 1.03125,2.6015625 0,1.265625 -0.222656,2.6132812 -1.03125,2.6132812 -0.773437,0 -1.042968,-1.359375 -1.042968,-2.6132812 0,-1.2539063 0.222656,-2.6015625 1.042968,-2.6015625 z m 4.32129,-0.3046875 c -1.347657,0 -1.839844,1.6054687 -1.839844,2.9179687 0,1.4179688 0.480469,2.90625 1.839844,2.90625 1.359375,0 1.828125,-1.59375 1.828125,-2.9179687 0,-1.3828125 -0.46875,-2.90625 -1.828125,-2.90625 z m 0,0.3046875 c 0.808593,0 1.03125,1.3242187 1.03125,2.6015625 0,1.265625 -0.222657,2.6132812 -1.03125,2.6132812 -0.773438,0 -1.042969,-1.359375 -1.042969,-2.6132812 0,-1.2539063 0.222656,-2.6015625 1.042969,-2.6015625 z m 33.477542,-0.1875 h -3.4336 c -0.0352,0.3867187 -0.082,0.8320312 -0.16406,1.3242187 h 0.25781 c 0.22266,-0.5859375 0.26953,-0.6679687 0.86719,-0.6679687 h 1.94531 c -0.71484,1.5585937 -1.72265,3.421875 -2.67187,4.9570312 l 0.0586,0.09375 0.66797,-0.08203125 c 0.86719,-1.86328125 1.69922,-3.69140625 2.54297,-5.51953125 z m 2.45507,-0.1171875 c -1.34765,0 -1.83984,1.6054687 -1.83984,2.9179687 0,1.4179688 0.48047,2.90625 1.83984,2.90625 1.35938,0 1.82813,-1.59375 1.82813,-2.9179687 0,-1.3828125 -0.46875,-2.90625 -1.82813,-2.90625 z m 0,0.3046875 c 0.8086,0 1.03125,1.3242187 1.03125,2.6015625 0,1.265625 -0.22265,2.6132812 -1.03125,2.6132812 -0.77343,0 -1.04296,-1.359375 -1.04296,-2.6132812 0,-1.2539063 0.22265,-2.6015625 1.04296,-2.6015625 z m 4.32129,-0.3046875 c -1.34765,0 -1.83984,1.6054687 -1.83984,2.9179687 0,1.4179688 0.48047,2.90625 1.83984,2.90625 1.35938,0 1.82813,-1.59375 1.82813,-2.9179687 0,-1.3828125 -0.46875,-2.90625 -1.82813,-2.90625 z m 0,0.3046875 c 0.8086,0 1.03125,1.3242187 1.03125,2.6015625 0,1.265625 -0.22265,2.6132812 -1.03125,2.6132812 -0.77343,0 -1.04297,-1.359375 -1.04297,-2.6132812 0,-1.2539063 0.22266,-2.6015625 1.04297,-2.6015625 z m 0,0"
           style="fill:#231f20;fill-opacity:1;fill-rule:nonzero;stroke:none" />
        <path
           id="path3"
           d="m 76.790395,7.8618328 c -0.28125,0.3867188 -0.503906,0.5273438 -0.597656,0.5273438 -0.08203,0 -0.140625,-0.09375 -0.199219,-0.4921875 -0.164062,-1.1367188 -0.292968,-2.6015625 -0.363281,-3.3398438 -0.152344,-1.7226562 -0.46875,-2.0742187 -0.9375,-2.0742187 -0.257812,0 -0.632812,0.1757812 -0.84375,0.3515625 l 0.05859,0.2226562 c 0.117187,-0.046875 0.257812,-0.09375 0.386719,-0.09375 0.28125,0.011719 0.480468,0.1757813 0.609375,0.9726563 0.05859,0.3398437 0.09375,0.703125 0.117187,1.1367187 -0.609375,1.4414063 -1.582031,2.8945313 -2.285156,3.7617188 l 0.07031,0.1640625 c 0.222657,-0.046875 0.433594,-0.1054688 0.632813,-0.1640625 0.351562,-0.5039063 1.207031,-2.1445313 1.652344,-3.1640625 0.03516,0.6445312 0.105468,1.2421875 0.234375,2.3554687 0.05859,0.6445313 0.210937,0.9726563 0.503906,0.9726563 0.269531,0 0.667969,-0.2226563 1.136719,-0.9375 z m 0,0"
           style="fill:#231f20;fill-opacity:1;fill-rule:nonzero;stroke:none" />
      </g>
      <path
         id="path4"
         d="m 235.77,206.711 v 30"
         style="fill:none;stroke:#231f20;stroke-width:5;stroke-linecap:butt;stroke-linejoin:miter;stroke-miterlimit:3.25;stroke-dasharray:none;stroke-opacity:1"
         transform="matrix(0.13333333,0,0,-0.13333333,0,164.16)" />
      <path
         id="path5"
         d="m 638.301,206.711 v 30"
         style="fill:none;stroke:#231f20;stroke-width:5;stroke-linecap:butt;stroke-linejoin:miter;stroke-miterlimit:3.25;stroke-dasharray:none;stroke-opacity:1"
         transform="matrix(0.13333333,0,0,-0.13333333,0,164.16)" />
      <path
         id="path6"
         d="m 1040.84,206.711 v 30"
         style="fill:none;stroke:#231f20;stroke-width:5;stroke-linecap:butt;stroke-linejoin:miter;stroke-miterlimit:3.25;stroke-dasharray:none;stroke-opacity:1"
         transform="matrix(0.13333333,0,0,-0.13333333,0,164.16)" />
      <path
         id="path7"
         d="m 1443.37,206.711 v 30"
         style="fill:none;stroke:#231f20;stroke-width:5;stroke-linecap:butt;stroke-linejoin:miter;stroke-miterlimit:3.25;stroke-dasharray:none;stroke-opacity:1"
         transform="matrix(0.13333333,0,0,-0.13333333,0,164.16)" />
      <path
         id="path8"
         d="m 123.367,236.711 h 20"
         style="fill:none;stroke:#231f20;stroke-width:5;stroke-linecap:butt;stroke-linejoin:miter;stroke-miterlimit:3.25;stroke-dasharray:none;stroke-opacity:1"
         transform="matrix(0.13333333,0,0,-0.13333333,0,164.16)" />
      <path
         id="path9"
         d="M 93.3672,815.391 H 123.367"
         style="fill:none;stroke:#231f20;stroke-width:5;stroke-linecap:butt;stroke-linejoin:miter;stroke-miterlimit:3.25;stroke-dasharray:none;stroke-opacity:1"
         transform="matrix(0.13333333,0,0,-0.13333333,0,164.16)" />
      <path
         id="path10"
         d="M 93.3672,526.055 H 123.367"
         style="fill:none;stroke:#231f20;stroke-width:5;stroke-linecap:butt;stroke-linejoin:miter;stroke-miterlimit:3.25;stroke-dasharray:none;stroke-opacity:1"
         transform="matrix(0.13333333,0,0,-0.13333333,0,164.16)" />
      <path
         id="path11"
         d="M 93.3672,1104.72 H 123.367"
         style="fill:none;stroke:#231f20;stroke-width:5;stroke-linecap:butt;stroke-linejoin:miter;stroke-miterlimit:3.25;stroke-dasharray:none;stroke-opacity:1"
         transform="matrix(0.13333333,0,0,-0.13333333,0,164.16)" />
      <path
         id="path12"
         d="M 123.367,206.711 V 1231.24"
         style="fill:none;stroke:#231f20;stroke-width:5;stroke-linecap:butt;stroke-linejoin:miter;stroke-miterlimit:3.25;stroke-dasharray:none;stroke-opacity:1"
         transform="matrix(0.13333333,0,0,-0.13333333,0,164.16)" />
      <path
         id="path13"
         d="m 156.891,253.191 0.468,0.079 0.508,0.117 0.539,0.082 1.168,0.23 1.332,0.246 0.699,0.149 0.793,0.117 0.782,0.164 1.64,0.301 1.785,0.312 0.899,0.207 1.805,0.301 0.855,0.195 0.906,0.157 2.578,0.468 0.821,0.168 0.859,0.149 0.82,0.152 0.86,0.156 2.461,0.469 0.781,0.156 0.82,0.168 0.778,0.149 0.781,0.113 2.336,0.473 0.793,0.125 1.476,0.301 0.786,0.156 1.488,0.324 0.742,0.184 0.781,0.207 1.481,0.468 0.773,0.227 0.754,0.23 0.781,0.278 0.739,0.308 0.781,0.274 0.734,0.324 0.793,0.301 0.742,0.351 1.555,0.703 0.742,0.391 1.559,0.793 0.793,0.422 0.742,0.426 0.781,0.468 0.778,0.43 0.781,0.473 0.777,0.504 0.778,0.429 0.753,0.356 0.782,0.242 0.781,0.145 0.773,0.039 0.786,-0.078 0.781,-0.145 0.773,-0.281 0.754,-0.356 0.781,-0.468 0.782,-0.536 0.773,-0.675 0.781,-0.743 0.785,-0.855 0.782,-0.981 0.746,-1.054 0.781,-1.16 0.781,-1.25 0.782,-1.379 0.777,-1.473 0.738,-1.57 0.778,-1.645 0.793,-1.785 0.781,-1.848 0.781,-1.992 0.734,-2.058 0.786,-1.641 0.781,-0.781 0.773,0.144 0.754,1.067 0.781,1.941 0.782,2.852 0.773,3.75 0.781,4.648 0.739,5.598 0.781,6.433 0.793,7.383 0.781,8.281 0.734,9.18 0.786,10.078 0.781,10.977 0.777,11.875 0.778,12.773 0.753,13.711 0.782,14.61 0.781,15.48 0.773,16.395 0.786,17.304 0.742,18.242 0.773,19.106 0.793,20 0.781,20.933 0.782,20.559 0.738,18.856 0.777,17.265 0.778,15.586 0.781,13.945 0.754,12.27 0.781,10.625 0.781,8.98 0.778,7.313 0.781,5.695 0.734,3.992 0.781,2.383 0.793,0.696 0.782,-0.93 0.781,-2.578 0.734,-4.258 0.785,-5.906 0.774,-7.539 0.781,-9.215 0.793,-10.824 0.742,-12.54 0.778,-14.136 0.781,-15.824 0.777,-17.461 0.782,-19.098 0.75,-20.785 0.781,-21.121 0.781,-20.168 0.781,-19.215 0.778,-18.285 0.742,-17.301 0.773,-16.367 0.793,-15.395 0.781,-14.453 0.743,-13.516 0.773,-12.539 0.781,-11.597 0.785,-10.668 0.774,-9.676 0.754,-8.75 0.781,-7.781 0.781,-6.828 0.782,-5.911 0.777,-4.91 0.738,-3.996 0.778,-3.035 0.793,-2.078 0.781,-1.137 0.781,-0.144 0.734,0.769 0.786,1.731 0.781,2.683 0.773,3.086 0.781,2.942 0.754,2.8 0.782,2.668 0.773,2.5 0.781,2.371 0.743,2.231 0.777,2.105 0.793,1.914 0.781,1.809 0.781,1.672 0.739,1.48 0.781,1.379 0.777,1.25 0.778,1.082 0.793,0.942 0.742,0.777 0.773,0.664 0.781,0.512 0.786,0.348 0.781,0.246 0.734,0.078 0.793,-0.078 0.781,-0.207 0.782,-0.348 0.773,-0.512 0.742,-0.508 0.778,-0.429 0.781,-0.352 0.793,-0.234 0.742,-0.196 0.773,-0.066 0.786,0.027 0.781,0.079 0.777,0.199 0.75,0.269 0.781,0.395 0.782,0.426 0.781,0.546 0.773,0.665 0.746,0.714 0.782,0.821 0.773,0.886 0.793,0.981 0.781,1.09 0.743,1.183 0.777,1.25 0.777,1.317 0.778,1.449 0.781,1.519 0.754,1.614 0.781,1.707 0.781,1.523 0.778,1.172 0.742,0.781 0.773,0.356 h 0.781 l 0.793,-0.395 0.782,-0.777 0.738,-1.176 0.777,-1.59 0.785,-1.965 0.774,-2.343 0.781,-2.723 0.754,-3.137 0.781,-3.515 0.778,-3.907 0.781,-4.296 0.777,-4.649 0.739,-5.066 0.793,-5.469 0.781,-5.859 0.781,-6.25 0.781,-6.602 0.739,-7.043 0.781,-7.422 0.773,-7.769 0.793,-8.2 0.781,-7.269 0.743,-5 0.777,-2.762 0.777,-0.519 0.785,1.718 0.735,3.981 0.793,6.25 0.781,8.48 0.781,10.7 0.782,13.007 0.738,15.196 0.777,17.472 0.778,19.715 0.793,21.992 0.781,24.18 0.742,26.484 0.773,28.711 0.786,30.95 0.781,33.195 0.773,35.465 0.754,37.695 0.781,39.973 0.782,42.176 0.777,44.46 0.777,46.68 0.743,48.938 0.777,48.324 0.793,44.808 0.781,41.278 0.742,37.785 0.778,34.285 0.781,30.793 0.777,27.259 0.778,23.75 0.753,20.24 0.782,16.76 0.773,13.24 0.781,9.72 0.786,6.21 0.734,2.7 0.781,-0.78 0.793,-4.3 0.781,-7.81 0.782,-11.33 0.738,-14.8 0.777,-18.36 0.778,-21.84 0.781,-25.35 0.793,-28.832 0.742,-32.375 0.773,-35.86 0.786,-39.383 0.781,-40.386 0.734,-38.836 0.793,-37.297 0.781,-35.777 0.782,-34.262 0.781,-32.692 0.734,-31.222 0.785,-29.633 0.782,-28.137 0.773,-26.601 0.793,-25.078 0.742,-23.504 0.782,-22.004 0.777,-20.496 0.777,-18.957 0.778,-17.379 0.754,-15.903 0.781,-14.375 0.781,-12.808 0.781,-11.289 0.778,-9.77 0.742,-8.238 0.773,-6.672 0.781,-5.203 0.793,-3.637 0.743,-2.105 0.777,-1.332 0.777,-1.25 0.785,-1.168 0.774,-1.098 0.754,-1.055 0.781,-0.972 0.781,-0.903 0.778,-0.82 0.781,-0.777 0.738,-0.668 0.778,-0.664 0.793,-0.543 0.781,-0.473 0.781,-0.43 0.734,-0.347 0.786,-0.305 0.781,-0.203 0.773,-0.16 0.793,-0.067 0.742,-0.039 0.782,0.067 0.777,0.121 0.777,0.191 0.739,0.274 0.781,0.312 0.793,0.391 1.562,0.859 0.739,0.391 0.781,0.39 0.777,0.364 0.778,0.39 0.793,0.34 0.742,0.313 2.34,0.937 0.781,0.274 0.734,0.277 3.133,0.934 0.738,0.199 0.782,0.191 1.57,0.324 0.742,0.149 0.781,0.113 0.778,0.168 0.781,0.066 0.777,0.118 0.738,0.078 0.793,0.09 0.782,0.105 1.554,0.156 0.746,0.118 1.555,0.156 0.793,0.121 0.781,0.074 0.743,0.129 0.777,0.066 0.777,0.118 1.559,0.16 0.754,0.125 0.781,0.066 1.559,0.235 0.781,0.089 0.734,0.11 0.793,0.078 0.781,0.113 0.782,0.09 0.738,0.105 0.777,0.118 0.785,0.078 1.555,0.234 0.754,0.078 0.781,0.117 0.782,0.09 0.777,0.106 0.777,0.082 0.739,0.113 0.793,0.129 0.781,0.066 0.781,0.118 0.781,0.078 0.739,0.129 0.781,0.078 0.777,0.105 0.777,0.078 0.793,0.118 0.743,0.089 0.777,0.11 1.562,0.152 0.735,0.129 0.793,0.066 0.781,0.118 1.559,0.16 0.742,0.117 2.348,0.23 0.781,0.129 0.742,0.067 3.113,0.312 0.754,0.09 0.781,0.027 2.336,0.235 0.739,0.043 1.574,0.152 0.781,0.039 0.734,0.078 0.786,0.039 0.781,0.078 1.555,0.09 0.753,0.067 1.563,0.082 0.773,0.078 0.786,0.039 0.734,0.035 0.781,0.039 0.793,0.09 1.563,0.066 0.738,0.079 2.336,0.117 0.793,0.082 0.742,0.047 0.781,0.039 0.778,0.066 0.781,0.039 0.738,0.039 0.781,0.039 0.786,0.078 1.558,0.079 0.742,0.05 0.785,0.067 2.34,0.121 0.743,0.078 3.125,0.164 0.746,0.039 1.558,0.066 h 0.781 l 0.786,0.04 0.742,0.039 1.558,0.078 h 0.786 l 0.742,0.039 h 0.781 l 0.777,0.043 h 0.785 l 0.782,0.047 h 0.742 l 0.777,0.039 h 1.567 l 0.781,0.039 h 3.863 l 0.742,0.027 h 4.653 l 0.781,-0.027 h 3.863 l 0.782,-0.039 h 1.527 l 0.777,-0.039 h 1.567 l 0.742,-0.047 h 0.777 l 0.781,-0.043 h 4.653 l 0.781,0.043 h 0.738 l 2.348,0.125 h 0.777 l 0.742,0.066 2.344,0.117 0.742,0.078 0.786,0.09 0.781,0.039 1.558,0.149 0.746,0.078 0.782,0.113 1.558,0.156 0.785,0.118 0.743,0.078 1.558,0.16 0.782,0.035 0.785,0.078 0.742,0.039 h 0.777 l 1.567,0.078 h 2.3 l 1.567,-0.078 h 0.742 l 0.777,-0.078 1.567,-0.074 0.781,-0.07 0.738,-0.09 0.782,-0.078 0.785,-0.118 0.781,-0.066 0.777,-0.129 0.742,-0.113 0.786,-0.121 0.781,-0.156 1.558,-0.235 0.747,-0.105 0.781,-0.086 2.344,-0.344 0.742,-0.09 0.781,-0.113 0.777,-0.078 0.785,-0.11 0.743,-0.089 0.781,-0.079 0.777,-0.117 1.567,-0.144 0.742,-0.086 3.125,-0.305 0.738,-0.09 0.781,-0.039 1.567,-0.152 0.777,-0.039 0.742,-0.082 0.785,-0.028 0.782,-0.089 0.781,-0.04 0.777,-0.078 0.743,-0.039 0.785,-0.039 0.781,-0.078 0.777,-0.027 0.742,-0.039 3.125,-0.168 0.747,-0.039 3.125,-0.157 0.742,-0.027 h 0.781 l 1.562,-0.09 h 0.782 l 0.742,-0.039 h 0.777 l 0.782,-0.039 h 0.785 l 0.781,-0.035 h 1.519 l 0.786,-0.039 h 6.953 l 0.781,0.039 h 1.52 l 0.785,0.035 h 0.781 l 0.777,0.039 h 0.782 l 0.746,0.039 h 0.781 l 2.344,0.117 0.742,0.039 1.558,0.079 0.786,0.078 0.781,0.039 0.742,0.09 0.777,0.039 1.567,0.144 0.742,0.078 0.777,0.078 0.782,0.129 0.785,0.067 0.781,0.121 0.738,0.074 3.125,0.473 0.742,0.117 0.786,0.152 0.781,0.117 0.777,0.157 0.781,0.121 0.746,0.152 2.34,0.481 0.785,0.183 0.743,0.156 2.34,0.586 0.746,0.196 0.781,0.199 0.777,0.23 0.781,0.196 0.786,0.234 0.742,0.234 0.777,0.196 0.781,0.273 1.567,0.473 0.742,0.269 0.777,0.235 2.348,0.82 0.738,0.274 1.567,0.625 0.781,0.277 0.777,0.348 0.742,0.316 2.344,1.051 0.742,0.39 2.344,1.172 0.781,0.434 0.746,0.387 0.782,0.429 1.558,0.938 0.785,0.429 0.743,0.508 0.781,0.481 2.344,1.511 0.742,0.508 1.558,1.098 0.786,0.594 0.781,0.535 0.738,0.586 2.348,1.758 0.742,0.585 3.125,2.5 0.738,0.665 0.782,0.625 1.566,1.328 0.777,0.703 0.742,0.668 3.125,2.808 0.747,0.743 0.781,0.742 0.777,0.707 0.781,0.777 0.786,0.742 0.742,0.782 0.781,0.824 0.777,0.855 0.785,0.938 0.743,0.937 0.781,1.02 0.777,1.051 0.782,1.093 0.785,1.133 0.742,1.223 0.777,1.211 0.781,1.289 0.786,1.316 0.781,1.367 0.738,1.418 0.781,1.438 0.786,1.492 0.781,1.551 0.777,1.601 0.742,1.606 0.785,1.676 1.563,3.515 0.777,1.797 0.743,1.875 0.785,1.914 0.781,1.836 0.777,1.68 0.782,1.523 0.746,1.328 0.781,1.211 0.777,1.028 0.781,0.859 0.747,0.691 0.781,0.508 0.777,0.352 0.781,0.234 h 0.786 l 0.742,-0.105 0.781,-0.285 0.777,-0.469 0.785,-0.625 0.782,-0.781 0.742,-0.973 0.777,-1.098 0.782,-1.289 0.785,-1.441 0.781,-1.606 0.738,-1.797 0.781,-1.914 0.786,-2.105 0.781,-2.258 0.777,-1.809 0.742,-0.73 0.786,0.301 0.781,1.445 0.777,2.465 0.742,3.59 0.785,4.609 0.782,5.742 0.781,6.797 0.777,7.852 0.743,8.945 0.785,10.039 0.781,11.106 0.777,12.148 0.782,13.231 0.746,14.335 0.781,15.391 0.777,16.484 0.781,17.54 0.786,18.632 0.742,19.692 0.777,20.777 0.781,21.875 0.786,22.887 0.781,24.035 0.742,25.078 0.777,24.801 0.785,23.277 0.782,21.645 0.742,20.117 0.777,18.519 0.782,16.954 0.785,15.343 0.781,13.797 0.738,12.188 0.781,10.621 0.786,9.058 0.781,7.469 0.777,5.891 0.742,4.336 0.786,2.734 0.781,1.141 0.777,-0.391 0.781,-2 0.746,-3.594 0.782,-5.117 0.781,-6.75 0.777,-8.289 0.785,-9.883 0.743,-11.476 0.781,-13.008 0.777,-14.656 0.782,-15.078 0.746,-14.493 0.781,-13.906 0.777,-13.32 0.781,-12.688 0.786,-12.109 0.742,-11.496 0.777,-10.887 0.781,-10.32 0.786,-9.68 0.781,-9.113 0.742,-8.465 0.777,-7.891 0.785,-7.308 0.782,-6.684 0.781,-6.086 0.738,-5.515 0.782,-4.875 0.785,-4.301 0.781,-3.672 0.777,-3.09 0.742,-2.5 0.786,-1.867 0.781,-1.293 0.777,-0.699 0.742,-0.078 0.786,0.265 0.781,0.395 0.777,0.504 0.781,0.632 0.746,0.704 0.782,0.859 0.781,0.937 0.777,1.047 0.785,1.172 0.743,1.289 0.781,1.414 0.777,1.52 0.782,1.637 0.785,1.718 0.742,1.883 0.777,1.953 0.781,2.071 0.786,2.187 0.781,2.301 0.738,2.422 0.781,2.539 0.786,2.66 0.781,2.727 0.777,2.89 3.09,12.352 0.738,3.121 0.782,3.09 2.343,9.14 0.742,3.008 0.786,3 1.558,5.938 0.781,2.929 0.747,2.934 0.781,2.926 0.777,2.89 1.567,5.703 0.742,2.86 0.781,2.812 0.777,2.77 0.785,2.808 0.782,2.743 0.742,2.765 0.777,2.703 0.782,2.731 0.785,2.66 0.742,2.687 0.777,2.618 0.781,2.586 0.786,2.539 0.781,2.5 0.738,2.461 0.781,2.453 0.786,2.383 1.558,4.691 0.742,2.269 0.785,2.258 0.782,2.196 1.558,4.296 0.743,2.071 0.785,2.07 0.781,2.031 1.559,3.899 0.746,1.883 0.781,1.867 0.777,1.836 0.781,1.804 0.747,1.719 0.781,1.711 0.777,1.762 0.781,1.879 0.786,1.949 0.742,2.066 0.781,2.235 0.777,2.297 0.785,2.421 0.782,2.54 0.742,2.664 0.777,2.726 0.782,2.891 0.785,2.969 0.781,3.132 0.738,3.196 0.781,3.324 0.786,3.441 0.781,3.547 0.777,3.68 0.742,3.738 0.786,3.91 0.781,3.992 0.777,4.102 0.742,4.258 0.785,4.332 0.782,4.406 0.781,4.582 0.777,4.598 0.743,4.543 0.785,4.453 1.558,8.75 0.782,4.258 0.746,4.218 0.781,4.141 0.777,4.102 0.781,4.015 0.786,3.992 0.742,3.903 0.777,3.828 0.781,3.793 0.786,3.707 0.781,3.633 0.742,3.597 0.777,3.547 0.785,3.485 0.782,3.398 0.742,3.32 0.777,3.282 0.782,3.238 0.785,3.16 0.781,3.09 0.738,3.051 0.781,2.812 0.786,2.539 0.781,2.258 0.777,1.922 0.742,1.594 0.786,1.336 0.781,0.968 0.777,0.711 0.781,0.391 0.746,0.078 0.782,-0.238 0.781,-0.555 0.777,-0.848 0.785,-1.136 0.743,-1.481 0.781,-1.765 0.777,-2.071 0.782,-2.375 0.746,-2.703 0.781,-3.008 0.777,-3.32 0.781,-3.633 0.786,-3.898 0.742,-4.258 0.777,-4.531 0.781,-4.852 0.786,-4.922 1.523,-9.14 0.777,-4.254 0.785,-4.059 0.782,-3.875 0.781,-3.586 0.738,-3.441 0.782,-3.199 0.785,-3.012 0.781,-2.77 0.777,-2.539 0.742,-2.394 0.786,-2.137 0.781,-1.922 0.777,-1.719 0.781,-1.519 0.747,-1.289 0.781,-1.09 0.777,-0.859 0.781,-0.672 0.746,-0.461 0.782,-0.242 0.781,-0.039 0.777,0.203 0.785,0.39 0.743,0.469 0.781,0.43 0.777,0.351 0.782,0.309 0.785,0.23 0.742,0.157 0.777,0.125 0.781,0.078 h 0.786 l 0.781,-0.078 0.738,-0.125 0.782,-0.188 0.78,-0.238 0.78,-0.27 0.79,-0.351 0.74,-0.43 0.78,-0.469 0.78,-0.554 0.78,-0.59 0.74,-0.66 0.78,-0.696 0.79,-0.781 1.56,-1.719 0.74,-0.98 0.78,-1.012 2.35,-3.172 0.74,-1.086 0.78,-1.101 0.78,-1.129 0.78,-1.09 0.78,-1.172 0.74,-1.14 2.35,-3.508 0.78,-1.211 0.74,-1.211 2.35,-3.762 0.74,-1.238 2.34,-3.867 0.78,-1.336 0.75,-1.328 0.78,-1.368 0.78,-1.32 0.78,-1.367 0.78,-1.41 0.74,-1.364 0.78,-1.406 0.78,-1.453 0.79,-1.398 0.78,-1.453 0.74,-1.438 1.56,-2.891 1.56,-2.968 0.75,-1.532 0.78,-1.48 1.56,-3.051 0.74,-1.562 0.78,-1.516 0.79,-1.574 0.78,-1.598 0.78,-1.562 0.74,-1.594 1.56,-3.203 0.78,-1.641 0.78,-1.609 0.75,-1.68 0.78,-1.641 0.78,-1.679 0.78,-1.641 0.78,-1.719 0.74,-1.683 0.79,-1.668 1.56,-3.438 0.78,-1.765 0.74,-1.715 1.56,-3.512 0.79,-1.797 0.74,-1.765 2.34,-5.387 0.78,-1.84 0.74,-1.828 1.57,-3.672 0.78,-1.883 0.78,-1.828 0.74,-1.883 0.78,-1.906 0.78,-1.883 1.57,-3.828 0.74,-1.906 3.12,-7.66 0.75,-1.91 0.78,-1.954 0.78,-1.921 1.56,-3.899 0.74,-1.922 2.35,-5.855 0.74,-1.949 0.78,-1.954 0.78,-2 0.78,-1.953 0.78,-1.984 0.75,-1.965 0.78,-1.984 0.78,-1.957 1.56,-3.977 0.74,-2 0.78,-1.949 0.79,-1.988 0.78,-1.922 0.78,-1.953 0.74,-1.907 0.78,-1.921 2.35,-5.618 0.74,-1.843 2.34,-5.508 0.74,-1.789 0.79,-1.758 0.78,-1.805 0.78,-1.758 0.78,-1.711 0.74,-1.757 1.56,-3.446 1.57,-3.355 0.74,-1.684 0.78,-1.64 2.34,-5.039 0.75,-1.715 2.34,-5.27 0.78,-1.844 0.74,-1.789 0.78,-1.882 0.79,-1.829 0.78,-1.921 0.74,-1.868 2.34,-5.859 0.78,-1.992 0.75,-1.996 0.78,-2.035 2.34,-6.211 0.74,-2.149 0.78,-2.105 0.79,-2.153 1.56,-4.367 0.74,-2.152 1.56,-4.301 1.57,-4.207 0.74,-2.078 1.56,-4.145 0.78,-2.031 0.74,-2.027 0.78,-2.035 1.57,-3.973 0.78,-1.965 0.74,-1.949 0.78,-1.945 2.35,-5.754 0.74,-1.875 0.78,-1.836 0.78,-1.875 0.78,-1.832 0.78,-1.789 0.74,-1.844 0.79,-1.801 0.78,-1.746 0.78,-1.809 0.78,-1.757 0.74,-1.754 0.78,-1.723 0.78,-1.746 0.79,-1.73 0.74,-1.719 1.56,-3.36 0.78,-1.718 0.78,-1.637 0.75,-1.684 3.12,-6.558 0.74,-1.594 2.35,-4.816 0.78,-1.563 0.74,-1.551 0.78,-1.574 0.78,-1.523 0.78,-1.563 0.78,-1.523 0.75,-1.563 2.34,-4.566 0.74,-1.567 2.35,-4.57 0.78,-1.551 0.74,-1.535 3.12,-6.094 0.75,-1.511 3.12,-6.106 0.74,-1.523 1.57,-3.043 0.78,-1.488 0.78,-1.524 0.74,-1.523 0.78,-1.473 0.78,-1.531 0.79,-1.489 0.78,-1.445 0.74,-1.484 0.78,-1.446 0.78,-1.484 0.78,-1.445 0.74,-1.406 0.79,-1.446 2.34,-4.219 0.74,-1.406 0.78,-1.363 0.78,-1.41 1.57,-2.735 0.74,-1.328 0.78,-1.367 1.56,-2.652 0.78,-1.293 0.75,-1.328 3.12,-5.157 0.74,-1.277 2.35,-3.75 0.74,-1.25 0.78,-1.25 0.78,-1.223 0.78,-1.25 0.78,-1.211 0.75,-1.21 0.78,-1.211 0.78,-1.172 0.78,-1.211 0.78,-1.16 0.74,-1.172 1.57,-2.356 0.78,-1.133 0.78,-1.16 0.74,-1.144 1.56,-2.266 0.78,-1.094 0.79,-1.132 0.74,-1.09 0.78,-1.125 1.56,-2.199 0.74,-1.094 0.79,-1.09 0.78,-1.047 0.78,-1.105 0.78,-1.043 0.74,-1.106 3.13,-4.219 0.74,-1.054 0.78,-1.016 0.78,-1.055 0.78,-1.015 0.78,-1.055 0.75,-1.016 2.34,-3.035 0.78,-0.984 0.74,-1.02 0.78,-0.972 0.79,-1.02 0.78,-0.965 0.74,-0.988 0.78,-0.976 0.78,-0.926 0.78,-0.989 0.78,-0.933 0.75,-0.942 0.78,-0.925 0.78,-0.91 0.78,-0.934 0.78,-0.902 0.74,-0.899 0.78,-0.926 0.79,-0.859 0.78,-0.906 0.78,-0.864 0.74,-0.894 2.34,-2.578 0.79,-0.824 0.74,-0.86 2.34,-2.461 0.74,-0.816 1.57,-1.645 0.78,-0.781 0.78,-0.82 0.74,-0.821 0.78,-0.781 0.78,-0.808 1.57,-1.575 0.74,-0.82 3.12,-3.125 0.74,-0.777 1.57,-1.555 0.78,-0.754 0.78,-0.777 0.74,-0.785 0.78,-0.743 0.78,-0.781 0.79,-0.73 1.52,-1.535 2.34,-2.223 0.75,-0.742 1.56,-1.399 0.78,-0.754 0.78,-0.703 0.74,-0.703 1.56,-1.402 0.79,-0.664 0.78,-0.707 0.74,-0.664 3.12,-2.657 0.75,-0.625 0.78,-0.652 2.34,-1.887 0.74,-0.613 1.57,-1.25 0.78,-0.598 0.74,-0.625 0.78,-0.586 0.78,-0.625 1.56,-1.171 0.75,-0.614 3.12,-2.351 0.74,-0.578 1.57,-1.172 0.78,-0.559 0.78,-0.586 0.74,-0.574 0.78,-0.559 0.78,-0.586 0.79,-0.535 0.78,-0.597 0.74,-0.547 0.78,-0.535 0.78,-0.594 0.78,-0.551 0.74,-0.547 1.57,-1.094 0.78,-0.496 0.78,-0.558 0.74,-0.504 0.78,-0.551 2.35,-1.523 0.74,-0.504 1.56,-1.02 0.78,-0.469 0.78,-0.507 0.75,-0.465 0.78,-0.512 2.34,-1.402 0.74,-0.434 1.57,-0.937 0.78,-0.426 0.74,-0.473 3.12,-1.719 0.75,-0.429 3.12,-1.707 0.74,-0.43 0.78,-0.402 1.57,-0.848 0.78,-0.402 0.74,-0.418 0.78,-0.403 0.78,-0.429 1.57,-0.782 0.74,-0.386 0.78,-0.434 1.56,-0.777 0.74,-0.395 3.13,-1.562 0.74,-0.352 0.78,-0.379 2.35,-1.062 0.74,-0.317 0.78,-0.347 2.34,-0.942 0.75,-0.261 0.78,-0.325 1.56,-0.546 0.78,-0.235 0.74,-0.273 0.78,-0.223 0.79,-0.281 0.78,-0.188 0.78,-0.246 0.74,-0.23 2.34,-0.586 0.75,-0.188 3.12,-0.781 0.74,-0.242 3.13,-0.942 0.74,-0.269 2.34,-0.824 0.79,-0.313 0.74,-0.273 2.34,-0.926 0.78,-0.363 0.74,-0.352 2.35,-1.055 0.74,-0.386 0.78,-0.344 2.35,-1.184 0.74,-0.39 1.56,-0.703 0.78,-0.387 0.78,-0.356 0.74,-0.3 0.79,-0.364 0.78,-0.308 0.78,-0.356 0.78,-0.308 0.74,-0.305 0.78,-0.281 0.78,-0.317 0.79,-0.261 0.78,-0.325 0.74,-0.269 0.78,-0.266 0.78,-0.246 0.78,-0.273 0.75,-0.235 0.78,-0.269 1.56,-0.473 0.78,-0.183 0.74,-0.246 0.78,-0.196 0.78,-0.23 0.79,-0.199 0.78,-0.235 0.74,-0.191 3.12,-0.774 0.75,-0.207 3.12,-0.777 0.74,-0.16 1.57,-0.391 0.78,-0.144 0.74,-0.207 1.56,-0.313 0.78,-0.195 0.78,-0.156 0.75,-0.157 3.12,-0.613 0.74,-0.164 2.35,-0.473 0.78,-0.183 0.74,-0.168 3.13,-0.625 0.74,-0.196 2.34,-0.468 0.74,-0.157 0.79,-0.195 2.34,-0.469 0.74,-0.191 1.56,-0.316 0.79,-0.196 0.78,-0.152 0.74,-0.16 0.78,-0.196 1.56,-0.3 0.78,-0.207 0.75,-0.145 1.56,-0.32 0.78,-0.199 0.78,-0.157 0.74,-0.152 0.78,-0.16 0.79,-0.196 0.78,-0.156 0.74,-0.152 0.78,-0.16 0.78,-0.196 1.56,-0.3 0.75,-0.168 0.78,-0.157 0.78,-0.195 1.56,-0.301 0.74,-0.168 3.13,-0.613 0.74,-0.168 2.34,-0.469 0.79,-0.117 0.74,-0.144 0.78,-0.129 0.78,-0.157 1.56,-0.234 0.75,-0.152 2.34,-0.356 0.74,-0.117 3.13,-0.457 0.74,-0.129 0.78,-0.074 0.78,-0.117 0.78,-0.082 0.78,-0.117 0.75,-0.118 0.78,-0.078 1.56,-0.23 0.78,-0.082 0.74,-0.117 2.35,-0.348 0.78,-0.078 0.74,-0.11 2.34,-0.363 0.75,-0.105 3.12,-0.481 0.74,-0.113 3.13,-0.473 0.74,-0.144 1.56,-0.246 0.78,-0.079 0.79,-0.105 0.74,-0.129 0.78,-0.113 0.78,-0.082 0.78,-0.106 0.78,-0.09 0.74,-0.117 2.35,-0.222 0.74,-0.129 1.56,-0.157 0.78,-0.039 0.79,-0.066 0.74,-0.09 0.78,-0.074 0.78,-0.039 0.78,-0.078 0.78,-0.043 0.74,-0.039 0.79,-0.067 2.34,-0.129 0.74,-0.078 3.13,-0.144 0.74,-0.039 2.34,-0.129 0.75,-0.039 3.12,-0.157 0.74,-0.039 3.13,-0.156 h 0.74 l 2.34,-0.113 h 0.78 l 0.75,-0.039 2.34,-0.121 h 0.78 l 0.74,-0.028 2.35,-0.129 0.74,-0.039 1.56,-0.078 h 0.78 l 0.78,-0.039 0.75,-0.039 3.12,-0.144 0.74,-0.047 2.35,-0.121 0.78,-0.078 0.74,-0.04 3.13,-0.156 0.74,-0.039 0.78,-0.074 1.56,-0.078 0.78,-0.082 0.75,-0.039 0.78,-0.028 0.78,-0.089 0.78,-0.04 0.74,-0.078 0.78,-0.039 0.78,-0.078 0.79,-0.039 0.78,-0.066 0.74,-0.039 1.56,-0.168 0.78,-0.039 0.78,-0.079 0.75,-0.066 0.78,-0.09 0.78,-0.039 1.56,-0.152 0.74,-0.039 0.78,-0.082 0.79,-0.028 0.78,-0.089 0.78,-0.04 0.74,-0.039 2.34,-0.117 0.75,-0.039 h 0.78 l 0.78,-0.039 h 0.78 l 0.78,-0.035 h 5.39 l 0.78,0.035 h 0.78 l 0.79,0.039 h 0.74 l 0.78,0.039 h 1.56 l 0.78,0.039 h 2.31 l 0.78,-0.039 h 1.52 l 0.78,-0.039 h 0.78 l 0.79,-0.039 0.74,-0.035 h 0.78 l 2.34,-0.117 0.75,-0.082 1.56,-0.078 0.78,-0.079 0.78,-0.039 0.74,-0.066 0.78,-0.09 0.79,-0.039 0.78,-0.074 0.78,-0.039 0.74,-0.082 2.34,-0.106 0.75,-0.05 2.34,-0.118 h 0.78 l 0.74,-0.039 h 1.57 l 0.78,-0.039 h 1.52 l 0.78,0.039 h 1.56 l 0.79,0.039 h 0.74 l 3.12,0.168 0.74,0.039 1.57,0.067 h 0.78 l 0.78,0.043 0.74,0.039 2.35,0.113 h 0.74 l 2.34,0.129 h 0.78 l 0.74,0.039 0.79,0.027 h 0.78 l 1.56,0.079 h 0.74 l 1.56,0.078 h 0.79 l 0.74,0.039 h 0.78 l 0.78,0.039 h 1.56 l 0.75,0.043 h 2.34 l 0.78,-0.043 h 1.52 l 0.78,-0.039 h 0.79 l 0.78,-0.039 h 0.74 l 4.69,-0.223 0.74,-0.09 1.56,-0.074 1.56,-0.16 0.79,-0.039 1.56,-0.157 0.74,-0.078 0.78,-0.039 1.56,-0.144 0.75,-0.039 1.56,-0.168 0.74,-0.039 0.78,-0.078 0.78,-0.04 0.75,-0.066 0.78,-0.039 0.74,-0.09 0.78,-0.039 0.74,-0.035 0.78,-0.078 0.75,-0.039 0.74,-0.082 0.78,-0.028 1.48,-0.089 0.78,-0.079 2.23,-0.117 0.78,-0.078 0.74,-0.035 0.79,-0.031 0.78,-0.086 0.78,-0.043 0.78,-0.078 0.82,-0.039 0.78,-0.079 0.82,-0.039 3.28,-0.308 0.86,-0.039 0.82,-0.082 1.72,-0.157 0.86,-0.117 1.72,-0.144 0.9,-0.078 0.86,-0.09 0.9,-0.117 0.89,-0.079 0.9,-0.105 0.9,-0.09 0.86,-0.074 0.82,-0.078 0.78,-0.121 0.74,-0.067 0.71,-0.09 0.7,-0.039 1.25,-0.156 0.59,-0.039 0.5,-0.066 0.51,-0.039 0.47,-0.09"
         style="fill:none;stroke:#4974b1;stroke-width:10;stroke-linecap:butt;stroke-linejoin:round;stroke-miterlimit:3.25;stroke-dasharray:none;stroke-opacity:1"
         transform="matrix(0.13333333,0,0,-0.13333333,0,164.16)" />
      <path
         id="path14"
         d="m 156.891,262.734 0.468,0.149 0.508,0.152 0.539,0.195 1.168,0.391 0.676,0.195 0.656,0.235 0.699,0.195 0.793,0.274 0.782,0.246 1.64,0.535 0.899,0.273 0.886,0.313 2.704,0.824 0.855,0.309 0.906,0.285 0.86,0.261 0.859,0.235 0.859,0.273 0.821,0.274 0.859,0.246 0.82,0.261 0.86,0.239 0.82,0.281 1.641,0.461 0.781,0.23 0.82,0.235 2.336,0.715 0.782,0.183 0.777,0.246 0.793,0.188 0.742,0.242 0.734,0.184 0.786,0.246 2.23,0.691 0.781,0.313 0.739,0.285 0.742,0.301 0.773,0.316 0.754,0.348 0.781,0.351 0.739,0.352 0.781,0.402 0.734,0.391 0.793,0.429 0.742,0.43 0.782,0.422 0.773,0.465 0.742,0.469 0.778,0.507 0.781,0.469 0.793,0.559 0.742,0.539 1.559,1.101 2.336,1.746 0.753,0.469 0.782,0.391 0.781,0.273 0.773,0.196 0.786,0.117 0.781,0.039 0.773,-0.039 0.754,-0.157 0.781,-0.234 0.782,-0.351 0.773,-0.379 0.781,-0.52 0.785,-0.586 0.782,-0.699 0.746,-0.742 0.781,-0.864 0.781,-0.972 0.782,-1.008 0.777,-1.145 0.738,-1.21 0.778,-1.29 0.793,-1.406 0.781,-1.48 0.781,-1.567 0.734,-1.679 0.786,-1.289 0.781,-0.547 0.773,0.234 0.754,1.016 0.781,1.758 0.782,2.578 0.773,3.324 0.781,4.098 0.739,4.894 0.781,5.613 0.793,6.457 0.781,7.176 0.734,7.973 0.786,8.75 0.781,9.527 0.777,10.285 0.778,11.082 0.753,11.848 0.782,12.605 0.781,13.364 0.773,14.176 0.786,14.921 0.742,15.754 0.773,16.477 0.793,17.223 0.781,18.046 0.782,17.735 0.738,16.34 0.777,14.91 0.778,13.515 0.781,12.153 0.754,10.711 0.781,9.328 0.781,7.926 0.778,6.562 0.781,5.117 0.734,3.75 0.781,2.356 0.793,0.965 0.782,-0.465 0.781,-1.828 0.734,-3.254 0.785,-4.637 0.774,-6.066 0.781,-7.422 0.793,-8.828 0.742,-10.235 0.778,-11.629 0.781,-13.058 0.777,-14.403 0.782,-15.82 0.75,-17.238 0.781,-17.539 0.781,-16.754 0.781,-15.969 0.778,-15.203 0.742,-14.406 0.773,-13.645 0.793,-12.851 0.781,-12.11 0.743,-11.289 0.773,-10.535 0.781,-9.777 0.785,-8.934 0.774,-8.215 0.754,-7.422 0.781,-6.64 0.781,-5.86 0.782,-5.078 0.777,-4.324 0.738,-3.527 0.778,-2.723 0.793,-2.004 0.781,-1.172 0.781,-0.429 0.734,0.351 0.786,1.145 0.781,1.906 0.773,2.273 0.781,2.149 0.754,2.07 0.782,1.941 0.773,1.875 0.781,1.758 0.743,1.645 0.777,1.558 0.793,1.485 0.781,1.379 0.781,1.25 0.739,1.164 0.781,1.051 0.777,0.976 0.778,0.859 0.793,0.743 0.742,0.664 0.773,0.586 0.781,0.468 0.786,0.356 0.781,0.269 0.734,0.157 0.793,0.078 0.781,-0.039 0.782,-0.117 0.773,-0.235 0.742,-0.234 0.778,-0.156 0.781,-0.04 0.793,0.04 0.742,0.117 0.773,0.199 0.786,0.309 0.781,0.39 0.777,0.473 0.75,0.586 0.781,0.664 0.782,0.738 0.781,0.82 0.773,0.942 0.746,1.012 0.782,1.093 0.773,1.211 0.793,1.25 0.781,1.406 0.743,1.446 0.777,1.574 0.777,1.641 0.778,1.718 0.781,1.786 0.754,1.925 0.781,1.981 0.781,1.836 0.778,1.484 0.742,1.055 0.773,0.715 0.781,0.261 0.793,-0.078 0.782,-0.469 0.738,-0.894 0.777,-1.242 0.785,-1.653 0.774,-2.031 0.781,-2.422 0.754,-2.812 0.781,-3.192 0.778,-3.601 0.781,-3.938 0.777,-4.386 0.739,-4.754 0.793,-5.129 0.781,-5.504 0.781,-5.942 0.781,-6.289 0.739,-6.679 0.781,-7.098 0.773,-7.473 0.793,-7.847 0.781,-6.918 0.743,-4.649 0.777,-2.382 0.777,-0.118 0.785,2.149 0.735,4.418 0.793,6.715 0.781,8.957 0.781,11.203 0.782,13.472 0.738,15.754 0.777,17.996 0.778,20.278 0.793,22.547 0.781,24.832 0.742,27.074 0.773,29.344 0.786,31.589 0.781,33.879 0.773,36.121 0.754,38.45 0.781,40.656 0.782,42.926 0.777,45.191 0.777,47.5 0.743,49.731 0.777,49.101 0.793,45.594 0.781,42.07 0.742,38.504 0.778,35.002 0.781,31.49 0.777,27.97 0.778,24.45 0.753,20.9 0.782,17.38 0.773,13.87 0.781,10.31 0.786,6.8 0.734,3.28 0.781,-0.23 0.793,-3.75 0.781,-7.31 0.782,-10.82 0.738,-14.34 0.777,-17.89 0.778,-21.36 0.781,-24.92 0.793,-28.48 0.742,-31.95 0.773,-35.507 0.786,-39.032 0.781,-40 0.734,-38.468 0.793,-36.922 0.781,-35.391 0.782,-33.82 0.781,-32.313 0.734,-30.773 0.785,-29.227 0.782,-27.656 0.773,-26.172 0.793,-24.566 0.742,-23.047 0.782,-21.527 0.777,-19.961 0.777,-18.438 0.778,-16.875 0.754,-15.34 0.781,-13.8 0.781,-12.262 0.781,-10.746 0.778,-9.176 0.742,-7.617 0.773,-6.098 0.781,-4.57 0.793,-3.004 0.743,-1.438 0.777,-0.675 0.777,-0.614 0.785,-0.519 0.774,-0.465 0.754,-0.395 0.781,-0.3 0.781,-0.246 0.778,-0.196 0.781,-0.113 0.738,-0.039 h 0.778 l 0.793,0.074 0.781,0.168 0.781,0.223 0.734,0.312 0.786,0.352 0.781,0.429 0.773,0.508 0.793,0.547 0.742,0.664 0.782,0.715 0.777,0.731 0.777,0.871 0.739,0.898 0.781,0.969 0.793,1.062 0.781,1.082 0.781,1.067 0.739,1.004 0.781,1.066 1.555,2.031 0.793,0.965 0.742,0.977 0.781,0.937 0.773,0.977 0.786,0.898 0.781,0.938 0.734,0.898 0.793,0.91 2.34,2.567 0.738,0.832 1.559,1.64 0.793,0.782 0.742,0.769 0.781,0.781 0.778,0.743 0.781,0.703 0.777,0.754 0.738,0.695 0.793,0.699 0.782,0.754 1.554,1.395 0.746,0.703 2.348,2.109 0.781,0.754 0.743,0.691 3.113,2.817 0.754,0.711 3.121,2.801 0.734,0.703 0.793,0.703 0.781,0.668 0.782,0.703 0.738,0.699 1.562,1.406 0.782,0.664 0.773,0.704 0.754,0.664 3.117,2.66 0.739,0.625 0.793,0.672 2.343,1.867 0.739,0.586 0.781,0.625 1.554,1.168 0.793,0.625 0.743,0.558 1.554,1.16 0.785,0.559 0.735,0.574 1.574,1.106 0.781,0.5 0.778,0.543 0.742,0.558 0.777,0.496 0.778,0.547 1.574,1.028 0.742,0.496 3.113,2.043 0.754,0.496 0.781,0.508 0.782,0.468 0.777,0.508 0.777,0.481 0.739,0.468 0.781,0.457 0.793,0.508 0.781,0.473 0.734,0.465 0.786,0.429 1.558,0.95 0.778,0.429 0.753,0.469 0.782,0.422 0.781,0.465 1.559,0.859 0.734,0.434 1.574,0.855 0.781,0.395 0.782,0.426 0.738,0.39 0.777,0.434 2.352,1.168 0.742,0.402 0.781,0.391 0.778,0.34 0.781,0.39 0.738,0.352 0.781,0.39 2.344,1.067 0.742,0.351 0.785,0.34 0.782,0.313 1.558,0.703 0.743,0.324 0.785,0.344 1.558,0.625 0.782,0.347 0.746,0.325 3.125,1.25 0.742,0.3 2.344,0.95 0.742,0.3 0.781,0.317 0.777,0.281 1.567,0.613 0.742,0.274 0.777,0.324 1.567,0.535 0.781,0.324 0.738,0.262 3.125,1.098 0.742,0.23 1.567,0.547 1.558,0.473 0.746,0.281 2.34,0.691 0.785,0.196 0.743,0.234 0.781,0.234 1.559,0.391 0.746,0.234 3.125,0.782 0.742,0.168 1.558,0.39 0.786,0.149 0.781,0.191 0.742,0.156 0.777,0.196 0.785,0.168 0.782,0.183 0.781,0.157 0.738,0.156 0.782,0.195 1.566,0.313 0.777,0.207 0.742,0.144 2.344,0.473 0.742,0.152 1.567,0.313 0.777,0.207 0.781,0.144 0.746,0.117 3.125,0.625 0.743,0.157 0.781,0.121 1.559,0.308 0.785,0.118 0.742,0.117 0.777,0.16 2.348,0.348 0.738,0.117 1.567,0.234 0.781,0.078 0.742,0.117 0.777,0.129 1.567,0.149 0.781,0.117 0.738,0.074 3.125,0.313 0.742,0.078 1.567,0.168 0.777,0.027 0.781,0.078 0.747,0.078 0.781,0.039 1.558,0.168 0.786,0.028 0.742,0.082 0.781,0.078 0.777,0.039 0.785,0.074 0.743,0.039 0.781,0.09 0.777,0.027 0.782,0.079 0.785,0.039 0.742,0.039 0.777,0.078 0.781,0.043 0.786,0.086 0.781,0.031 0.738,0.035 0.781,0.039 0.786,0.078 1.558,0.078 0.742,0.079 0.785,0.089 0.782,0.028 1.558,0.16 0.743,0.113 1.566,0.156 0.777,0.118 0.742,0.078 3.125,0.468 0.747,0.129 0.781,0.149 0.777,0.113 1.567,0.313 0.742,0.117 0.781,0.16 0.777,0.191 1.567,0.317 0.742,0.152 0.777,0.195 0.782,0.157 0.785,0.207 0.781,0.144 0.738,0.156 0.781,0.196 1.567,0.324 0.738,0.184 1.567,0.312 0.781,0.195 0.777,0.168 0.742,0.149 0.785,0.191 1.563,0.313 0.777,0.207 0.743,0.144 0.785,0.157 0.781,0.199 1.559,0.32 0.746,0.145 0.781,0.207 1.558,0.3 0.786,0.196 0.742,0.16 1.558,0.387 0.786,0.16 0.781,0.191 0.742,0.195 0.777,0.239 1.567,0.386 0.742,0.196 0.777,0.234 0.782,0.195 1.566,0.469 0.738,0.196 2.348,0.714 0.777,0.262 0.742,0.234 0.786,0.239 0.781,0.269 0.777,0.246 0.781,0.262 0.746,0.234 0.782,0.286 0.781,0.222 1.562,0.547 0.743,0.235 0.781,0.285 0.777,0.222 0.782,0.274 0.746,0.234 0.781,0.274 0.777,0.246 0.781,0.261 0.786,0.235 0.742,0.273 0.777,0.235 0.781,0.277 0.786,0.23 0.781,0.278 0.742,0.23 0.777,0.274 0.785,0.246 0.782,0.261 0.781,0.239 0.738,0.281 0.782,0.223 0.785,0.273 1.558,0.473 0.742,0.23 2.344,0.703 0.742,0.235 2.344,0.707 0.781,0.191 0.746,0.235 0.782,0.199 0.781,0.23 1.562,0.395 0.743,0.23 3.125,0.781 0.742,0.196 0.777,0.16 1.567,0.398 0.781,0.149 0.738,0.152 2.348,0.481 0.742,0.105 3.125,0.473 0.738,0.078 3.125,0.308 0.742,0.04 0.786,0.078 0.781,0.039 h 0.777 l 0.781,0.039 h 0.747 l 0.781,0.043 h 1.558 l 0.786,-0.043 h 0.742 l 1.558,0.16 0.785,0.113 0.743,0.196 0.781,0.199 1.559,0.543 0.785,0.351 0.742,0.395 0.777,0.426 0.781,0.468 0.786,0.508 0.781,0.559 0.738,0.578 0.781,0.633 1.567,1.394 0.777,0.742 0.742,0.821 1.567,1.718 0.781,0.942 0.777,0.973 0.743,1.015 0.785,1.059 0.781,0.972 0.777,0.754 0.782,0.496 0.746,0.325 0.781,0.078 0.777,-0.125 0.781,-0.395 0.747,-0.547 0.781,-0.816 0.777,-1.02 0.781,-1.25 0.786,-1.445 0.742,-1.68 0.781,-1.902 0.777,-2.109 0.785,-2.356 0.782,-2.578 0.742,-2.773 0.777,-3.004 0.782,-3.246 0.785,-3.438 0.781,-3.672 0.738,-3.902 0.781,-4.106 0.786,-4.335 0.781,-4.52 0.777,-4.031 0.742,-2.739 0.786,-1.445 0.781,-0.144 0.777,1.121 0.742,2.422 0.785,3.75 0.782,5 0.781,6.289 0.777,7.578 0.743,8.879 0.785,10.183 0.781,11.457 0.777,12.727 0.782,14.019 0.746,15.325 0.781,16.636 0.777,17.891 0.781,19.18 0.786,20.468 0.742,21.789 0.777,23.047 0.781,24.344 0.786,25.617 0.781,26.953 0.742,28.211 0.777,27.891 0.785,25.965 0.782,24.035 0.742,22.109 0.777,20.149 0.782,18.25 0.785,16.32 0.781,14.383 0.738,12.456 0.781,10.51 0.786,8.59 0.781,6.64 0.777,4.73 0.742,2.81 0.786,0.86 0.781,-1.05 0.777,-2.97 0.781,-4.92 0.746,-6.88 0.782,-8.75 0.781,-10.74 0.777,-12.618 0.785,-14.574 0.743,-16.516 0.781,-18.398 0.777,-20.391 0.782,-20.945 0.746,-20.266 0.781,-19.492 0.777,-18.828 0.781,-18.09 0.786,-17.34 0.742,-16.641 0.777,-15.898 0.781,-15.199 0.786,-14.496 0.781,-13.75 0.742,-13.004 0.777,-12.301 0.785,-11.602 0.782,-10.859 0.781,-10.16 0.738,-9.41 0.782,-8.684 0.785,-7.996 0.781,-7.234 0.777,-6.555 0.742,-5.82 0.786,-5.086 0.781,-4.379 0.777,-3.625 0.742,-2.934 0.786,-2.5 0.781,-2.344 0.777,-2.222 0.781,-2.074 0.746,-1.954 0.782,-1.835 0.781,-1.637 0.777,-1.528 0.785,-1.406 0.743,-1.25 0.781,-1.133 0.777,-0.972 0.782,-0.864 0.785,-0.703 0.742,-0.547 0.777,-0.429 0.781,-0.274 0.786,-0.156 0.781,-0.035 0.738,0.113 0.781,0.285 0.786,0.391 0.781,0.535 0.777,0.664 0.742,0.821 1.567,1.953 0.781,1.027 0.738,0.969 2.348,2.82 0.777,0.887 0.742,0.859 1.567,1.723 1.558,1.637 0.747,0.781 0.781,0.793 1.558,1.472 0.786,0.704 0.742,0.714 0.781,0.692 0.777,0.668 1.567,1.25 0.742,0.625 0.777,0.582 1.567,1.094 0.742,0.546 0.777,0.508 1.567,0.938 0.781,0.429 0.738,0.395 1.567,0.777 1.558,0.633 0.742,0.266 0.785,0.273 1.563,0.473 0.777,0.199 0.743,0.148 0.785,0.157 0.781,0.125 1.559,0.148 0.746,0.039 0.781,0.039 0.777,-0.039 h 0.781 l 0.747,-0.078 1.558,-0.07 0.781,0.148 0.786,0.281 0.742,0.461 0.781,0.586 0.777,0.782 0.785,0.902 0.782,1.047 0.742,1.222 0.777,1.364 0.782,1.527 0.785,1.68 0.781,1.832 0.738,1.988 0.781,2.149 0.786,2.273 0.781,2.461 0.777,2.578 0.742,2.766 0.786,2.89 0.781,3.055 0.777,3.234 0.742,3.36 0.785,3.523 0.782,3.672 0.781,3.828 0.777,3.86 0.743,3.828 0.785,3.789 0.781,3.75 0.777,3.672 0.782,3.632 0.746,3.602 0.781,3.551 0.777,3.519 0.781,3.438 0.786,3.39 0.742,3.36 0.777,3.32 0.781,3.289 0.786,3.203 0.781,3.157 0.742,3.132 0.777,3.078 1.567,6.024 0.742,2.93 0.777,2.89 1.567,5.617 0.781,2.743 0.738,2.687 0.781,2.5 0.786,2.188 0.781,1.843 0.777,1.52 0.742,1.172 0.786,0.855 0.781,0.512 0.777,0.16 0.781,-0.117 0.746,-0.516 0.782,-0.816 0.781,-1.129 0.777,-1.492 0.785,-1.789 0.743,-2.149 0.781,-2.5 0.777,-2.812 0.782,-3.129 0.746,-3.481 0.781,-3.82 0.777,-4.141 0.781,-4.46 0.786,-4.797 0.742,-5.164 0.777,-5.465 0.781,-5.785 0.786,-5.821 0.781,-5.578 0.742,-5.277 0.777,-5 0.785,-4.723 0.782,-4.461 0.781,-4.179 0.738,-3.899 0.782,-3.641 0.785,-3.359 0.781,-3.078 0.777,-2.813 0.742,-2.539 0.786,-2.269 0.781,-1.988 0.777,-1.723 0.781,-1.41 0.747,-1.168 0.781,-0.903 0.777,-0.617 0.781,-0.312 0.746,-0.078 0.782,0.226 0.781,0.473 0.777,0.777 0.785,1.024 0.743,1.125 0.781,1.093 0.777,1.063 0.782,0.976 0.785,0.93 0.742,0.899 0.777,0.863 0.781,0.777 1.567,1.414 0.738,0.617 0.782,0.594 0.78,0.508 0.78,0.469 0.79,0.429 0.74,0.352 0.78,0.305 0.78,0.273 0.78,0.203 0.74,0.188 1.57,0.16 h 0.78 l 0.78,-0.039 0.74,-0.121 2.34,-0.473 0.79,-0.191 0.74,-0.157 0.78,-0.109 1.56,-0.32 0.78,-0.11 0.74,-0.117 3.13,-0.476 0.74,-0.078 0.78,-0.079 0.78,-0.109 0.79,-0.078 0.74,-0.043 1.56,-0.16 1.56,-0.071 0.75,-0.078 h 0.78 l 2.34,-0.125 h 0.74 l 3.13,-0.156 0.74,-0.07 0.78,-0.039 0.78,-0.078 0.78,-0.047 0.78,-0.078 0.75,-0.079 2.34,-0.226 0.74,-0.082 0.78,-0.121 0.79,-0.071 1.56,-0.242 0.74,-0.078 1.56,-0.226 0.78,-0.164 0.78,-0.11 0.75,-0.117 0.78,-0.16 0.78,-0.125 0.78,-0.145 0.78,-0.125 0.74,-0.16 0.79,-0.105 0.78,-0.164 0.78,-0.118 0.78,-0.148 0.74,-0.121 1.56,-0.309 0.79,-0.125 0.74,-0.148 0.78,-0.117 1.56,-0.313 0.78,-0.117 0.74,-0.16 0.79,-0.153 0.78,-0.117 1.56,-0.312 0.74,-0.117 1.56,-0.313 0.79,-0.117 0.78,-0.16 0.74,-0.114 3.12,-0.468 0.75,-0.078 3.12,-0.313 0.74,-0.078 2.35,-0.121 0.74,-0.039 1.56,-0.082 h 3.87 l 0.78,0.043 h 0.78 l 0.74,0.039 0.78,0.039 h 0.79 l 1.56,0.082 0.74,0.039 3.13,0.148 0.74,0.039 0.78,0.079 1.56,0.078 0.74,0.047 0.79,0.078 1.56,0.078 0.78,0.07 0.74,0.039 0.78,0.078 0.78,0.047 1.57,0.156 0.74,0.028 3.12,0.324 0.75,0.078 0.78,0.07 0.78,0.118 0.78,0.086 0.78,0.117 0.74,0.109 0.78,0.078 1.57,0.242 0.74,0.153 1.56,0.238 1.56,0.313 0.75,0.117 3.12,0.621 0.74,0.199 0.78,0.149 0.79,0.203 0.78,0.148 0.78,0.203 0.74,0.184 0.78,0.203 0.78,0.16 0.78,0.188 0.79,0.164 0.74,0.187 0.78,0.164 0.78,0.184 0.78,0.164 0.74,0.199 0.78,0.149 0.79,0.203 1.56,0.304 0.74,0.203 1.56,0.313 0.78,0.187 0.79,0.157 0.74,0.164 3.12,0.621 0.74,0.16 1.57,0.305 0.78,0.125 0.78,0.066 0.74,0.121 0.78,0.078 1.57,0.086 0.74,0.039 h 2.34 l 0.78,-0.039 0.75,-0.039 1.56,-0.164 0.78,-0.109 0.78,-0.078 0.74,-0.164 0.78,-0.118 0.78,-0.148 0.79,-0.199 0.78,-0.153 0.74,-0.242 0.78,-0.187 1.56,-0.469 0.78,-0.285 0.75,-0.231 2.34,-0.695 0.74,-0.238 3.13,-0.934 0.74,-0.238 3.12,-0.942 0.75,-0.226 2.34,-0.703 0.78,-0.203 0.74,-0.227 3.13,-0.937 0.74,-0.204 1.56,-0.386 0.79,-0.153 0.78,-0.117 0.74,-0.164 2.34,-0.226 0.74,-0.047 0.79,-0.039 h 2.34 l 0.74,0.086 0.78,0.039 0.78,0.078 1.57,0.226 0.74,0.164 1.56,0.313 0.78,0.187 0.78,0.243 0.75,0.226 0.78,0.242 1.56,0.539 0.78,0.243 0.74,0.265 0.78,0.281 0.79,0.231 0.78,0.269 0.74,0.282 0.78,0.226 1.56,0.555 0.78,0.227 0.75,0.281 0.78,0.273 0.78,0.227 1.56,0.547 0.74,0.273 0.78,0.242 1.57,0.547 0.78,0.227 0.74,0.273 0.78,0.281 0.78,0.231 1.57,0.551 0.74,0.265 0.78,0.356 0.78,0.316 0.78,0.391 0.74,0.351 2.35,1.289 0.78,0.469 0.74,0.5 0.78,0.512 0.78,0.551 1.57,1.164 0.74,0.593 0.78,0.657 0.78,0.621 0.78,0.715 0.78,0.66 0.75,0.738 0.78,0.75 2.34,2.34 0.74,0.863 1.57,1.637 0.78,0.777 0.74,0.782 1.56,1.492 0.78,0.699 0.78,0.66 0.75,0.672 1.56,1.25 1.56,1.168 0.74,0.551 0.78,0.539 0.79,0.508 1.56,0.945 0.74,0.43 0.78,0.429 1.56,0.774 0.79,0.351 0.74,0.356 0.78,0.316 0.78,0.274 0.78,0.226 0.74,0.078 h 0.78 l 0.79,-0.148 0.78,-0.281 0.78,-0.387 0.74,-0.512 0.78,-0.617 0.78,-0.742 0.78,-0.899 0.79,-0.98 0.74,-1.129 0.78,-1.25 0.78,-1.371 0.78,-1.481 0.78,-1.613 0.74,-1.707 0.79,-1.844 0.78,-1.984 0.78,-2.07 0.78,-2.235 0.74,-2.336 0.78,-2.422 0.78,-2.578 0.79,-2.742 0.78,-2.812 0.74,-2.887 0.78,-2.887 0.78,-2.937 0.78,-2.883 0.75,-2.977 0.78,-2.929 2.34,-8.907 0.74,-3 1.56,-6.019 1.57,-6.098 0.74,-3.047 3.12,-12.332 0.75,-3.136 0.78,-3.114 0.78,-3.175 0.78,-3.125 0.78,-3.165 0.74,-3.203 1.57,-6.328 0.78,-3.074 0.74,-3.059 0.78,-2.929 0.78,-2.891 0.78,-2.801 0.78,-2.746 0.75,-2.644 0.78,-2.586 0.78,-2.543 0.78,-2.457 0.78,-2.383 0.74,-2.309 0.79,-2.226 0.78,-2.176 0.78,-2.109 0.78,-2.032 0.74,-1.964 0.78,-1.875 0.78,-1.836 0.79,-1.758 0.78,-1.641 0.74,-1.64 0.78,-1.524 0.78,-1.445 0.78,-1.406 0.74,-1.368 2.35,-3.972 0.78,-1.289 0.74,-1.297 0.78,-1.25 0.78,-1.293 1.57,-2.5 0.74,-1.207 1.56,-2.414 1.56,-2.356 0.75,-1.172 3.12,-4.531 0.74,-1.082 0.78,-1.105 1.57,-2.11 0.74,-1.054 0.78,-1.051 1.56,-2.035 0.78,-0.973 0.75,-1.02 1.56,-1.941 1.56,-1.887 0.74,-0.937 0.78,-0.926 0.79,-0.906 0.78,-0.942 0.78,-0.894 0.74,-0.863 3.13,-3.426 0.74,-0.832 0.78,-0.821 0.78,-0.781 0.78,-0.816 0.74,-0.785 0.79,-0.782 0.78,-0.742 0.78,-0.769 0.78,-0.754 0.74,-0.703 0.78,-0.743 0.78,-0.691 0.78,-0.754 0.79,-0.699 0.74,-0.656 1.56,-1.418 1.56,-1.328 0.75,-0.665 0.78,-0.625 0.78,-0.664 1.56,-1.25 0.74,-0.625 0.78,-0.586 0.79,-0.625 1.56,-1.171 0.74,-0.575 0.78,-0.558 0.78,-0.582 0.78,-0.539 0.75,-0.559 1.56,-1.082 1.56,-1.184 0.74,-0.585 0.78,-0.586 0.79,-0.614 0.78,-0.597 0.78,-0.614 0.74,-0.675 0.78,-0.614 2.35,-2.004 0.74,-0.703 2.34,-2.105 0.78,-0.746 0.74,-0.742 1.57,-1.485 2.3,-2.305 0.78,-0.82 1.57,-1.551 0.74,-0.82 3.12,-3.137 0.74,-0.781 0.79,-0.777 0.78,-0.735 0.78,-0.793 0.78,-0.742 0.74,-0.777 0.78,-0.746 0.78,-0.781 1.57,-1.485 0.74,-0.738 2.34,-2.231 0.75,-0.703 1.56,-1.472 0.78,-0.715 0.78,-0.742 0.74,-0.704 2.35,-2.109 0.78,-0.66 0.74,-0.664 2.34,-1.996 0.78,-0.625 0.75,-0.625 0.78,-0.625 0.78,-0.582 0.78,-0.625 0.78,-0.578 0.74,-0.594 1.57,-1.176 0.78,-0.547 0.74,-0.535 1.56,-1.105 1.56,-1.004 0.75,-0.52 2.34,-1.523 0.78,-0.457 0.74,-0.52 0.79,-0.508 0.78,-0.468 1.56,-1.004 0.74,-0.481 0.78,-0.508 0.78,-0.468 1.57,-1.004 0.74,-0.469 0.78,-0.52 0.78,-0.468 0.78,-0.504 0.74,-0.473 1.57,-1.015 0.78,-0.469 0.78,-0.504 0.74,-0.473 0.78,-0.508 0.78,-0.457 0.79,-0.515 0.78,-0.473 0.74,-0.508 0.78,-0.508 0.78,-0.468 1.56,-1.016 0.75,-0.508 0.78,-0.547 1.56,-1.015 0.78,-0.543 0.74,-0.512 1.57,-1.094 0.78,-0.507 0.74,-0.536 0.78,-0.558 0.78,-0.582 1.56,-1.098 0.75,-0.547 0.78,-0.574 0.78,-0.559 1.56,-1.171 0.74,-0.586 0.78,-0.575 0.79,-0.558 1.56,-1.16 0.74,-0.594 0.78,-0.586 0.78,-0.551 1.57,-1.16 0.74,-0.598 0.78,-0.547 1.56,-1.171 0.78,-0.547 0.75,-0.586 0.78,-0.582 0.78,-0.539 0.78,-0.594 0.74,-0.551 0.78,-0.586 0.78,-0.547 0.78,-0.586 0.79,-0.546 0.74,-0.586 0.78,-0.547 0.78,-0.586 1.56,-1.09 0.75,-0.551 1.56,-1.094 0.78,-0.496 0.78,-0.558 0.74,-0.504 2.35,-1.528 0.78,-0.468 0.74,-0.504 2.34,-1.399 0.75,-0.468 1.56,-0.871 0.78,-0.469 0.78,-0.43 0.74,-0.43 0.78,-0.39 0.79,-0.43 0.78,-0.391 0.78,-0.429 0.74,-0.391 3.13,-1.551 0.74,-0.39 0.78,-0.403 0.78,-0.347 1.56,-0.785 0.74,-0.387 0.79,-0.356 0.78,-0.39 0.78,-0.352 0.74,-0.379 1.56,-0.715 0.78,-0.386 0.79,-0.356 0.74,-0.351 3.12,-1.407 0.74,-0.347 2.35,-1.059 0.78,-0.312 0.74,-0.352 0.78,-0.351 0.78,-0.313 0.79,-0.351 0.78,-0.301 0.74,-0.324 0.78,-0.348 1.56,-0.617 0.75,-0.325 3.12,-1.25 0.74,-0.308 1.56,-0.617 0.79,-0.285 0.78,-0.309 0.74,-0.316 0.78,-0.274 0.78,-0.312 1.56,-0.547 0.75,-0.313 3.12,-1.094 0.74,-0.3 1.57,-0.559 0.78,-0.234 0.74,-0.274 2.34,-0.816 0.78,-0.227 0.75,-0.285 0.78,-0.234 0.78,-0.262 0.78,-0.242 0.78,-0.277 0.74,-0.235 0.79,-0.273 2.34,-0.692 0.74,-0.246 0.78,-0.23 0.78,-0.278 1.57,-0.457 0.74,-0.246 3.12,-0.937 0.75,-0.235 0.78,-0.261 1.56,-0.481 0.74,-0.23 3.13,-0.93 0.74,-0.281 3.12,-0.942 0.75,-0.23 0.78,-0.227 0.78,-0.285 1.56,-0.469 0.74,-0.234 2.35,-0.691 0.78,-0.207 0.74,-0.223 1.56,-0.48 0.78,-0.196 0.75,-0.23 0.78,-0.199 0.78,-0.235 0.78,-0.191 0.78,-0.239 0.74,-0.195 0.78,-0.191 0.79,-0.239 1.56,-0.386 0.74,-0.199 3.13,-0.77 0.74,-0.203 0.78,-0.188 0.78,-0.168 1.56,-0.39 0.75,-0.156 0.78,-0.196 0.78,-0.152 0.78,-0.188 0.74,-0.168 3.13,-0.625 0.74,-0.156 3.12,-0.625 0.75,-0.105 0.78,-0.168 0.78,-0.117 0.78,-0.145 0.78,-0.129 0.74,-0.113 0.78,-0.149 2.35,-0.363 0.74,-0.152 2.34,-0.344 0.75,-0.129 0.78,-0.152 2.34,-0.356 0.74,-0.117 1.57,-0.234 0.78,-0.157 0.78,-0.105 0.74,-0.129 3.13,-0.469 0.74,-0.117 0.78,-0.144 2.34,-0.352 0.74,-0.129 0.79,-0.113 0.78,-0.16 0.78,-0.117 0.78,-0.157 0.74,-0.144 0.78,-0.125 1.57,-0.305 0.74,-0.203 2.34,-0.473 0.78,-0.183 0.74,-0.207 0.79,-0.157 2.34,-0.586 0.74,-0.195 0.78,-0.191 0.78,-0.239 0.79,-0.195 0.74,-0.191 1.56,-0.473 0.78,-0.195 0.78,-0.235 0.75,-0.23 0.78,-0.227 0.78,-0.207 1.56,-0.468 0.74,-0.235 3.13,-0.937 0.74,-0.223 3.91,-1.184 0.78,-0.269 0.74,-0.227 1.56,-0.468 0.78,-0.286 1.57,-0.468 0.78,-0.274 0.78,-0.222 0.74,-0.246 0.78,-0.274 0.78,-0.234 0.78,-0.274 0.75,-0.222 0.78,-0.246 0.78,-0.274 0.74,-0.234 1.56,-0.457 0.75,-0.285 0.78,-0.235 0.74,-0.234 0.78,-0.274 0.74,-0.222 0.78,-0.246 0.75,-0.235 0.74,-0.273 0.78,-0.235 1.48,-0.468 0.78,-0.274 2.23,-0.703 0.78,-0.273 0.74,-0.223 0.79,-0.281 0.78,-0.239 1.56,-0.546 0.82,-0.274 0.78,-0.273 1.64,-0.543 0.82,-0.305 0.82,-0.281 0.82,-0.317 0.86,-0.261 0.82,-0.325 3.44,-1.25 0.86,-0.347 0.9,-0.317 0.86,-0.3 1.79,-0.715 0.9,-0.313 0.9,-0.351 0.86,-0.313 0.82,-0.312 0.78,-0.313 0.74,-0.273 1.41,-0.543 1.25,-0.473 0.59,-0.234 1.01,-0.391 0.47,-0.191"
         style="fill:none;stroke:#ef4872;stroke-width:10;stroke-linecap:butt;stroke-linejoin:round;stroke-miterlimit:3.25;stroke-dasharray:none;stroke-opacity:1"
         transform="matrix(0.13333333,0,0,-0.13333333,0,164.16)" />
      <path
         id="path15"
         d="m 1915.28,708.469 h 132.46"
         style="fill:none;stroke:#4974b1;stroke-width:10;stroke-linecap:butt;stroke-linejoin:round;stroke-miterlimit:3.25;stroke-dasharray:none;stroke-opacity:1"
         transform="matrix(0.13333333,0,0,-0.13333333,0,164.16)" />
      <path
         id="path16"
         d="m 1915.28,588.469 h 132.46"
         style="fill:none;stroke:#ef4872;stroke-width:10;stroke-linecap:butt;stroke-linejoin:round;stroke-miterlimit:3.25;stroke-dasharray:none;stroke-opacity:1"
         transform="matrix(0.13333333,0,0,-0.13333333,0,164.16)" />
      <path
         id="path17"
         d="M 93.3672,236.711 H 1748.76"
         style="fill:none;stroke:#231f20;stroke-width:5;stroke-linecap:butt;stroke-linejoin:miter;stroke-miterlimit:3.25;stroke-dasharray:none;stroke-opacity:1"
         transform="matrix(0.13333333,0,0,-0.13333333,0,164.16)" />
    </g>
  </g>
</svg>
