<?xml version="1.0" encoding="UTF-8" standalone="no"?>
<!-- Created with Inkscape (http://www.inkscape.org/) -->

<svg
   version="1.1"
   id="svg1"
   width="255.93333"
   height="173.37334"
   viewBox="0 0 255.93333 173.37334"
   sodipodi:docname="pha04f16.eps"
   xmlns:inkscape="http://www.inkscape.org/namespaces/inkscape"
   xmlns:sodipodi="http://sodipodi.sourceforge.net/DTD/sodipodi-0.dtd"
   xmlns="http://www.w3.org/2000/svg"
   xmlns:svg="http://www.w3.org/2000/svg">
  <defs
     id="defs1" />
  <sodipodi:namedview
     id="namedview1"
     pagecolor="#ffffff"
     bordercolor="#000000"
     borderopacity="0.25"
     inkscape:showpageshadow="2"
     inkscape:pageopacity="0.0"
     inkscape:pagecheckerboard="0"
     inkscape:deskcolor="#d1d1d1">
    <inkscape:page
       x="0"
       y="0"
       inkscape:label="1"
       id="page1"
       width="255.93333"
       height="173.37334"
       margin="0"
       bleed="0" />
  </sodipodi:namedview>
  <g
     id="g1"
     inkscape:groupmode="layer"
     inkscape:label="1">
    <g
       id="group-R5">
      <path
         id="path2"
         d="m 4.1007938,-1.6057844 v -0.421875 H 3.2336063 v -3.65625 H 2.8820438 c -0.9257813,1.21875 -1.8515625,2.5546875 -2.7070313,3.8320313 v 0.2460937 h 2.34375 v 0.65625002 c 0,0.5859375 -0.035156,0.64453125 -0.8203125,0.703125 V -3.15625e-4 H 4.0070438 V -0.24640938 C 3.2804813,-0.30500313 3.2336063,-0.35187813 3.2336063,-0.94953438 V -1.6057844 Z M 2.5187625,-2.0276594 H 0.74923125 C 1.3351688,-3.0237531 1.9211063,-3.8792219 2.5070438,-4.6760969 h 0.011719 z m 3.9580078,-3.6914062 c -1.3476562,0 -1.8398437,1.6054687 -1.8398437,2.9179687 0,1.4179688 0.4804687,2.90625002 1.8398437,2.90625002 1.359375,0 1.828125,-1.59375002 1.828125,-2.91796872 0,-1.3828125 -0.46875,-2.90625 -1.828125,-2.90625 z m 0,0.3046875 c 0.8085938,0 1.03125,1.3242187 1.03125,2.6015625 0,1.265625 -0.2226562,2.61328122 -1.03125,2.61328122 -0.7734375,0 -1.0429687,-1.35937502 -1.0429687,-2.61328122 0,-1.2539063 0.2226562,-2.6015625 1.0429687,-2.6015625 z M 10.79513,-5.7190656 c -1.3476566,0 -1.8398441,1.6054687 -1.8398441,2.9179687 0,1.4179688 0.4804688,2.90625002 1.8398441,2.90625002 1.359375,0 1.828125,-1.59375002 1.828125,-2.91796872 0,-1.3828125 -0.46875,-2.90625 -1.828125,-2.90625 z m 0,0.3046875 c 0.808593,0 1.03125,1.3242187 1.03125,2.6015625 0,1.265625 -0.222657,2.61328122 -1.03125,2.61328122 -0.773438,0 -1.0429691,-1.35937502 -1.0429691,-2.61328122 0,-1.2539063 0.2226563,-2.6015625 1.0429691,-2.6015625 z M -9.3083859,-110.4759 v -0.2461 c -0.8203121,-0.0586 -0.8789061,-0.1289 -0.8789061,-0.78515 v -4.6875 c -0.492188,0.19922 -1.019531,0.375 -1.59375,0.46875 v 0.21094 l 0.433594,0.0117 c 0.386718,0.0234 0.421875,0.0703 0.421875,0.53907 v 3.45703 c 0,0.65625 -0.03516,0.72656 -0.855469,0.78515 v 0.2461 z m 1.8955078,0.10547 c 0.28125,0 0.5039062,-0.19922 0.5039062,-0.51563 0,-0.29297 -0.2226562,-0.51562 -0.5039062,-0.51562 -0.2929688,0 -0.5039063,0.22265 -0.5039063,0.51562 0,0.31641 0.2109375,0.51563 0.5039063,0.51563 z m 3.1757812,-5.82422 c -1.3476562,0 -1.8398437,1.60547 -1.8398437,2.91797 0,1.41797 0.4804687,2.90625 1.8398437,2.90625 1.359375,0 1.828125,-1.59375 1.828125,-2.91797 0,-1.38281 -0.46875,-2.90625 -1.828125,-2.90625 z m 0,0.30469 c 0.8085938,0 1.03125,1.32421 1.03125,2.60156 0,1.26562 -0.2226562,2.61328 -1.03125,2.61328 -0.7734375,0 -1.0429687,-1.35938 -1.0429687,-2.61328 0,-1.25391 0.2226562,-2.60156 1.0429687,-2.60156 z m -6.3720701,50.695308 c -1.347656,0 -1.839844,1.605469 -1.839844,2.917969 0,1.417969 0.480469,2.90625 1.839844,2.90625 1.3593748,0 1.8281248,-1.59375 1.8281248,-2.917969 0,-1.382812 -0.46875,-2.90625 -1.8281248,-2.90625 z m 0,0.304688 c 0.8085936,0 1.0312498,1.324219 1.0312498,2.601562 0,1.265625 -0.2226562,2.613282 -1.0312498,2.613282 -0.773438,0 -1.042969,-1.359375 -1.042969,-2.613282 0,-1.253906 0.222656,-2.601562 1.042969,-2.601562 z m 3.1962889,5.519531 c 0.28125,0 0.5039062,-0.199219 0.5039062,-0.515625 0,-0.292969 -0.2226562,-0.515625 -0.5039062,-0.515625 -0.2929688,0 -0.5039063,0.222656 -0.5039063,0.515625 0,0.316406 0.2109375,0.515625 0.5039063,0.515625 z m 2.390625,-5.050781 h 2.0976562 l 0.234375,-0.585938 -0.058594,-0.07031 h -2.5664063 l -0.3515625,2.742187 c 0.2109375,-0.08203 0.5507813,-0.1875 0.9257813,-0.1875 0.984375,0 1.4648437,0.574219 1.4648437,1.359375 0,0.679688 -0.375,1.335938 -1.1367187,1.335938 -0.5507813,0 -0.9140625,-0.292969 -1.1132813,-0.457031 -0.082031,-0.07031 -0.1523437,-0.05859 -0.234375,0 -0.1054687,0.09375 -0.1875,0.210937 -0.1875,0.292968 -0.023437,0.105469 0.023437,0.1875 0.140625,0.304688 0.1289063,0.128906 0.515625,0.316406 0.9257813,0.316406 0.4804687,-0.01172 1.078125,-0.246094 1.5703125,-0.632812 0.5507812,-0.457032 0.796875,-0.960938 0.796875,-1.511719 0,-0.738281 -0.5859375,-1.511719 -1.734375,-1.511719 -0.2460938,0 -0.6679688,0.140625 -1.0078125,0.269531 z M 49.918177,-4.9456281 h 2.097656 l 0.234375,-0.5859375 -0.05859,-0.070312 h -2.566406 l -0.351563,2.7421875 c 0.210938,-0.082031 0.550782,-0.1875 0.925782,-0.1875 0.984375,0 1.464843,0.5742187 1.464843,1.359375 0,0.6796875 -0.375,1.33593747 -1.136718,1.33593747 -0.550782,0 -0.914063,-0.29296875 -1.113282,-0.45703125 -0.08203,-0.0703125 -0.152343,-0.0585938 -0.234375,0 -0.105468,0.09375 -0.1875,0.2109375 -0.1875,0.29296875 -0.02344,0.10546875 0.02344,0.1875 0.140625,0.3046875 0.128907,0.12890625 0.515625,0.31640625 0.925782,0.31640625 0.480468,-0.01171875 1.078125,-0.24609375 1.570312,-0.6328125 0.550781,-0.45703125 0.796875,-0.96093752 0.796875,-1.51171872 0,-0.7382813 -0.585937,-1.5117188 -1.734375,-1.5117188 -0.246094,0 -0.667969,0.140625 -1.007812,0.2695313 z m 5.106445,-0.7734375 c -1.347656,0 -1.839844,1.6054687 -1.839844,2.9179687 0,1.4179688 0.480469,2.90625002 1.839844,2.90625002 1.359375,0 1.828125,-1.59375002 1.828125,-2.91796872 0,-1.3828125 -0.46875,-2.90625 -1.828125,-2.90625 z m 0,0.3046875 c 0.808594,0 1.03125,1.3242187 1.03125,2.6015625 0,1.265625 -0.222656,2.61328122 -1.03125,2.61328122 -0.773438,0 -1.042969,-1.35937502 -1.042969,-2.61328122 0,-1.2539063 0.222656,-2.6015625 1.042969,-2.6015625 z m 4.318359,-0.3046875 c -1.347656,0 -1.839844,1.6054687 -1.839844,2.9179687 0,1.4179688 0.480469,2.90625002 1.839844,2.90625002 1.359375,0 1.828125,-1.59375002 1.828125,-2.91796872 0,-1.3828125 -0.46875,-2.90625 -1.828125,-2.90625 z m 0,0.3046875 c 0.808594,0 1.03125,1.3242187 1.03125,2.6015625 0,1.265625 -0.222656,2.61328122 -1.03125,2.61328122 -0.773437,0 -1.042969,-1.35937502 -1.042969,-2.61328122 0,-1.2539063 0.222657,-2.6015625 1.042969,-2.6015625 z m 0,0"
         style="fill:#231f20;fill-opacity:1;fill-rule:nonzero;stroke:none"
         aria-label="400&#10;1.0&#10;0.5&#10;500"
         transform="matrix(1.3333333,0,0,1.3333333,33.6104,157.19573)" />
      <path
         id="path3"
         d="M 5.6842937,-0.16484443 C 5.485075,-0.21171943 5.2741375,-0.31718818 5.0280437,-0.58671943 4.8171062,-0.82109442 4.6296062,-1.0554694 4.3014812,-1.5242194 4.03195,-1.9226569 3.65695,-2.5320319 3.5046062,-2.8250007 4.172575,-3.1179694 4.641325,-3.5867194 4.641325,-4.3601569 c 0,-0.5507813 -0.2343751,-0.9492188 -0.5859376,-1.1835938 C 3.7038249,-5.7664069 3.2702312,-5.8484382 2.6139812,-5.8484382 l -2.23828126,1e-7 v 0.2460937 c 0.70312496,0.070312 0.77343746,0.09375 0.77343756,0.8554688 v 3.6210937 c 0,0.76171876 -0.082031,0.82031251 -0.8203125,0.86718752 v 0.25781250171 l 2.3671875,-2.367e-8 V -0.2585944 c -0.7148438,-0.046875 -0.796875,-0.10546874 -0.796875,-0.8671875 v -1.4296875 h 0.2929687 c 0.46875,0 0.6210938,0.1054687 0.7734375,0.3632812 0.2695313,0.4335938 0.5859375,0.9960938 0.9023438,1.42968754 0.4101562,0.58593749 0.7851563,0.78515624 1.4648438,0.82031248 C 5.4382,0.06953057 5.53195,0.06953057 5.6491375,0.06953057 Z m -3.7851562,-2.68359367 -10e-8,-2.2148438 c 0,-0.2460937 0.035156,-0.3515625 0.09375,-0.3984375 0.082031,-0.058594 0.234375,-0.09375 0.4921875,-0.09375 0.6796875,0 1.3242188,0.3632812 1.3242188,1.3359375 0,0.4804687 -0.140625,0.84375 -0.4921875,1.1132812 -0.234375,0.1757813 -0.5273437,0.2578125 -0.984375,0.2578126 z m 7.1279297,1.89843738 c -0.328125,0.30468751 -0.6679688,0.44531251 -1.0195313,0.44531251 -0.6328125,10e-9 -1.3359375,-0.50390619 -1.3476562,-1.72265619 1.0664062,-0.046875 2.1914062,-0.1289063 2.3554687,-0.1640626 0.1523438,-0.035156 0.1992188,-0.1054687 0.1992188,-0.28125 0,-0.703125 -0.5976563,-1.3710937 -1.3476563,-1.3710937 -0.46875,0 -0.9492188,0.2460938 -1.3242187,0.65625 -0.3632813,0.4101563 -0.5976563,0.9609375 -0.5976563,1.5820313 0,1.00781247 0.65625,1.91015621 1.7578125,1.9101562 0.28125,0 0.9023438,-0.16406251 1.4648438,-0.86718752 z M 7.6559734,-3.703907 c 0.4921875,0 0.796875,0.421875 0.7851563,0.890625 0,0.1289063 -0.046875,0.1875 -0.2109375,0.1875 -0.5273438,0.011719 -1.0195313,0.023438 -1.5234375,0.023438 0.1289062,-0.7265625 0.5273437,-1.1015625 0.9492187,-1.101563 z M 14.115934,-7.8201616e-4 V -0.23515702 c -0.585937,-0.0585937 -0.65625,-0.10546874 -0.65625,-0.66796874 V -6.3406258 l -0.07031,-0.046875 c -0.128906,0.070312 -0.257813,0.1523438 -0.398438,0.1875 -0.1875,-0.1171875 -0.46875,-0.2109375 -0.738281,-0.2109374 -0.375,0.046875 -0.714844,0.1875 -1.054687,0.46875 -0.492188,0.4101562 -0.65625,0.8085937 -0.726563,1.0429687 -0.08203,0.1992188 -0.117187,0.4453125 -0.117187,0.8085938 V -3.938282 H 9.9206238 l -0.234375,0.2578125 0.035156,0.09375 h 0.6328132 v 2.68359377 c 0,0.5625 -0.05859,0.609375 -0.6328132,0.66796876 v 0.23437499779 l 1.9453132,-1.946e-8 V -0.23515699 c -0.550782,-0.0585938 -0.609375,-0.10546875 -0.609375,-0.66796875 V -3.5867195 h 0.960937 c 0.105469,-0.046875 0.140625,-0.2695312 0.09375,-0.3515625 h -1.054687 v -0.46875 c 0,-0.6796875 0.128906,-1.078125 0.28125,-1.2773437 0.140625,-0.1875 0.328125,-0.3164063 0.609375,-0.3164063 0.328125,0 0.65625,0.1640625 0.808593,0.3984375 v 4.69921875 c 0,0.5625 -0.07031,0.62109375 -0.585937,0.66796875 V -7.8199671e-4 Z M 17.649137,-0.9500008 c -0.328125,0.3046875 -0.667968,0.44531251 -1.019531,0.44531251 -0.632812,1e-8 -1.335937,-0.50390621 -1.347656,-1.72265621 1.066406,-0.046875 2.191406,-0.1289063 2.355469,-0.1640626 0.152343,-0.035156 0.199218,-0.1054687 0.199218,-0.28125 0,-0.703125 -0.597656,-1.3710937 -1.347656,-1.3710937 -0.46875,0 -0.949219,0.2460938 -1.324219,0.65625 -0.363281,0.4101563 -0.597656,0.9609375 -0.597656,1.5820313 0,1.00781248 0.65625,1.91015622 1.757813,1.91015621 0.28125,0 0.902343,-0.16406251 1.464843,-0.86718751 z M 16.278044,-3.703907 c 0.492187,0 0.796875,0.421875 0.785156,0.890625 0,0.1289062 -0.04687,0.1875 -0.210938,0.1875 -0.527343,0.011719 -1.019531,0.023437 -1.523437,0.023437 0.128906,-0.7265625 0.527344,-1.1015625 0.949219,-1.101562 z m 5.34375,2.70703116 c -0.410157,0.38671875 -0.703125,0.49218751 -1.089844,0.49218751 -0.503906,0 -1.359375,-0.41015624 -1.359375,-1.66406247 0,-0.9492188 0.515625,-1.4414063 1.113281,-1.4414063 0.316406,0 0.632813,0.1171875 0.902344,0.375 0.08203,0.070312 0.117187,0.09375 0.164062,0.09375 0.105469,0 0.304688,-0.1992187 0.304688,-0.3867187 0,-0.1054688 -0.03516,-0.1757813 -0.152344,-0.28125 -0.140625,-0.1171875 -0.433594,-0.234375 -0.796875,-0.234375 -0.351562,0 -0.890625,0.140625 -1.359375,0.5039062 -0.597656,0.46875 -0.902344,1.078125 -0.902344,1.7695313 0,0.96093749 0.667969,1.87499998 1.804688,1.87499997 0.527344,0 1.136719,-0.39843751 1.523437,-0.91406251 z m 3.038086,0.66796872 -0.08203,-0.234375 c -0.128906,0.0703125 -0.328125,0.15234375 -0.5625,0.15234375 -0.222656,10e-9 -0.515625,-0.12890624 -0.515625,-0.85546873 v -2.3203125 h 0.960938 c 0.105469,-0.058594 0.128906,-0.2578125 0.05859,-0.3515625 h -1.019532 v -1.2304688 l -0.128906,-0.011719 -0.585937,0.5859375 v 0.65625 h -0.410157 l -0.246093,0.2695313 0.03516,0.082031 h 0.621094 v 2.625 c 0,0.703125 0.316406,1.06640624 0.878906,1.06640624 0.08203,0 0.234375,-0.03515625 0.386719,-0.11718751 z m 4.019531,-0.0234375 -0.09375,-0.234375 c -0.09375,0.0585938 -0.222656,0.10546875 -0.328125,0.10546875 -0.152344,0 -0.316406,-0.14062499 -0.316406,-0.55078133 v -1.6640625 c 0,-0.46875 -0.08203,-0.84375 -0.398438,-1.1015625 -0.199219,-0.1640624 -0.46875,-0.2460937 -0.738281,-0.2460937 -0.515625,0.1054688 -1.101563,0.4570313 -1.347656,0.6328125 -0.175782,0.1289063 -0.292969,0.2226563 -0.292969,0.3632813 0,0.1992187 0.234375,0.3867187 0.398437,0.3867187 0.128907,0 0.222657,-0.070312 0.257813,-0.2109375 0.07031,-0.28125 0.152344,-0.4804687 0.269531,-0.5976562 0.09375,-0.1054688 0.222656,-0.1757813 0.410156,-0.1757813 0.445313,0 0.75,0.3632813 0.75,1.0195313 v 0.1640625 c -0.199218,0.1523437 -0.855468,0.3984375 -1.394531,0.5742187 -0.492187,0.1757813 -0.726562,0.4570313 -0.726562,0.90234381 0,0.5625 0.445312,1.08984375 1.078125,1.08984374 0.269531,0 0.703125,-0.328125 1.066406,-0.57421876 0.04687,0.15234375 0.09375,0.28125 0.210937,0.41015625 0.105469,0.08203125 0.292969,0.1640625 0.421875,0.1640625 z M 27.249723,-0.7625009 c -0.164062,0.1640625 -0.480468,0.31640626 -0.714843,0.32812501 -0.28125,0 -0.644532,-0.22265624 -0.644532,-0.69140621 0,-0.328125 0.199219,-0.4921875 0.550782,-0.65625 0.1875,-0.09375 0.621093,-0.28125 0.808593,-0.375 z m 6.108399,0.76171869142 V -0.23515721 c -0.527344,-0.0585937 -0.574219,-0.09375 -0.574219,-0.70312499 v -1.734375 c 0,-0.8789063 -0.445312,-1.3710937 -1.160156,-1.3710937 -0.257813,0 -0.492188,0.1054687 -0.75,0.2695312 -0.222656,0.1523438 -0.421875,0.2929688 -0.597656,0.421875 v -0.7148437 c -0.398438,0.1757812 -0.820313,0.28125 -1.253907,0.3632812 v 0.2109375 c 0.492188,0.09375 0.539063,0.1171875 0.539063,0.6914063 v 1.86328123 c 0,0.59765625 -0.04687,0.64453125 -0.65625,0.70312501 v 0.23437499595 l 1.957031,-1.957e-8 V -0.23515718 c -0.527344,-0.0585938 -0.585937,-0.09375 -0.585937,-0.703125 V -3.0476572 c 0.269531,-0.234375 0.621093,-0.46875 0.984375,-0.46875 0.597656,0 0.820312,0.4101563 0.820312,1.03125 v 1.5 c 0,0.62109375 -0.07031,0.69140625 -0.597656,0.75000001 V -7.8218983e-4 Z M 37.049528,-0.996876 c -0.410156,0.38671876 -0.703125,0.49218751 -1.089844,0.49218752 -0.503906,0 -1.359375,-0.41015624 -1.359375,-1.66406252 0,-0.9492187 0.515625,-1.4414062 1.113282,-1.4414062 0.316406,0 0.632812,0.1171875 0.902343,0.375 0.08203,0.070312 0.117188,0.09375 0.164063,0.09375 0.105469,0 0.304687,-0.1992188 0.304687,-0.3867188 0,-0.1054687 -0.03516,-0.1757812 -0.152343,-0.28125 -0.140625,-0.1171875 -0.433594,-0.234375 -0.796875,-0.234375 -0.351563,0 -0.890625,0.140625 -1.359375,0.5039063 -0.597657,0.46875 -0.902344,1.078125 -0.902344,1.7695312 0,0.96093754 0.667969,1.87500003 1.804687,1.87500002 0.527344,-1e-8 1.136719,-0.39843751 1.523438,-0.91406252 z m 3.700195,0.046875 c -0.328125,0.3046875 -0.667968,0.4453125 -1.019531,0.44531251 -0.632812,0 -1.335937,-0.50390631 -1.347656,-1.72265631 1.066406,-0.046875 2.191406,-0.1289062 2.355469,-0.1640625 0.152343,-0.035156 0.199218,-0.1054687 0.199218,-0.28125 0,-0.703125 -0.597656,-1.3710937 -1.347656,-1.3710937 -0.46875,0 -0.949219,0.2460937 -1.324219,0.65625 -0.363281,0.4101562 -0.597656,0.9609375 -0.597656,1.5820312 0,1.00781258 0.65625,1.91015632 1.757813,1.91015631 0.28125,0 0.902343,-0.16406251 1.464843,-0.86718751 z M 39.37863,-3.7039073 c 0.492187,0 0.796875,0.421875 0.785156,0.890625 0,0.1289063 -0.04687,0.1875 -0.210938,0.1875 -0.527343,0.011719 -1.019531,0.023437 -1.523437,0.023437 0.128906,-0.7265625 0.527344,-1.1015625 0.949219,-1.101562 z m 0,0"
         style="fill:#231f20;fill-opacity:1;fill-rule:nonzero;stroke:none"
         aria-label="R&#10;eﬂe&#10;c&#10;t&#10;a&#10;n&#10;ce"
         transform="matrix(1.3333333e-8,-1.3333333,1.3333333,1.3333333e-8,9.89948,101.25093)" />
      <g
         id="g3"
         aria-label="600700&#10;λ"
         transform="matrix(1.3333333,0,0,1.3333333,163.068,157.19573)">
        <path
           id="path4"
           d="m 1.2292734,-3.0823469 c 0.2695313,-1.2539062 1.1132813,-1.828125 1.6640625,-2.0859375 0.328125,-0.1523437 0.6796875,-0.2578125 0.9726563,-0.3164062 l -0.058594,-0.28125 c -0.3632812,0.058594 -0.796875,0.1640625 -1.1484375,0.28125 -0.9609375,0.3515625 -2.33203121,1.3710937 -2.33203121,3.3398437 0,1.38281252 0.79687501,2.25000002 1.85156251,2.25000002 1.078125,0 1.8398437,-0.90234375 1.8398437,-1.98046872 0,-0.9257813 -0.65625,-1.6640625 -1.6171875,-1.6640625 -0.1757812,0 -0.3632812,0.070312 -0.5625,0.1523437 z m 0.8203125,0.046875 c 0.8203125,0 1.1953125,0.7382813 1.1953125,1.4882813 0,0.59765622 -0.2109375,1.34765622 -0.9140625,1.34765622 -0.7382812,0 -1.1953125,-0.87890622 -1.1953125,-1.95703122 0,-0.234375 0.011719,-0.4570313 0.046875,-0.6210938 0.2226563,-0.1171875 0.5273438,-0.2578125 0.8671875,-0.2578125 z m 4.4267579,-2.6835937 c -1.3476563,0 -1.8398438,1.6054687 -1.8398438,2.9179687 0,1.4179688 0.4804688,2.90625002 1.8398438,2.90625002 1.359375,0 1.828125,-1.59375002 1.828125,-2.91796872 0,-1.3828125 -0.46875,-2.90625 -1.828125,-2.90625 z m 0,0.3046875 c 0.8085937,0 1.03125,1.3242187 1.03125,2.6015625 0,1.265625 -0.2226563,2.61328122 -1.03125,2.61328122 -0.7734375,0 -1.0429688,-1.35937502 -1.0429688,-2.61328122 0,-1.2539063 0.2226563,-2.6015625 1.0429688,-2.6015625 z m 4.3212892,-0.3046875 c -1.3476564,0 -1.8398439,1.6054687 -1.8398439,2.9179687 0,1.4179688 0.4804687,2.90625002 1.8398439,2.90625002 1.359375,0 1.828125,-1.59375002 1.828125,-2.91796872 0,-1.3828125 -0.46875,-2.90625 -1.828125,-2.90625 z m 0,0.3046875 c 0.808594,0 1.03125,1.3242187 1.03125,2.6015625 0,1.265625 -0.222656,2.61328122 -1.03125,2.61328122 -0.773438,0 -1.0429689,-1.35937502 -1.0429689,-2.61328122 0,-1.2539063 0.2226562,-2.6015625 1.0429689,-2.6015625 z m 41.768555,-0.1875 h -3.433594 c -0.03516,0.3867187 -0.08203,0.8320312 -0.164063,1.3242187 h 0.257813 c 0.222656,-0.5859375 0.269531,-0.6679687 0.867187,-0.6679687 h 1.945313 c -0.714844,1.5585937 -1.722656,3.421875 -2.671875,4.95703122 l 0.05859,0.09375 0.667968,-0.08203125 C 50.960719,-1.8401594 51.79275,-3.6682844 52.6365,-5.4964094 Z m 2.458007,-0.1171875 c -1.347656,0 -1.839843,1.6054687 -1.839843,2.9179687 0,1.4179688 0.480468,2.90625002 1.839843,2.90625002 1.359375,0 1.828125,-1.59375002 1.828125,-2.91796872 0,-1.3828125 -0.46875,-2.90625 -1.828125,-2.90625 z m 0,0.3046875 c 0.808594,0 1.03125,1.3242187 1.03125,2.6015625 0,1.265625 -0.222656,2.61328122 -1.03125,2.61328122 -0.773437,0 -1.042968,-1.35937502 -1.042968,-2.61328122 0,-1.2539063 0.222656,-2.6015625 1.042968,-2.6015625 z m 4.31836,-0.3046875 c -1.347657,0 -1.839844,1.6054687 -1.839844,2.9179687 0,1.4179688 0.480469,2.90625002 1.839844,2.90625002 1.359375,0 1.828125,-1.59375002 1.828125,-2.91796872 0,-1.3828125 -0.46875,-2.90625 -1.828125,-2.90625 z m 0,0.3046875 c 0.808593,0 1.03125,1.3242187 1.03125,2.6015625 0,1.265625 -0.222657,2.61328122 -1.03125,2.61328122 -0.773438,0 -1.042969,-1.35937502 -1.042969,-2.61328122 0,-1.2539063 0.222656,-2.6015625 1.042969,-2.6015625 z m 0,0"
           style="fill:#231f20;fill-opacity:1;fill-rule:nonzero;stroke:none" />
        <path
           id="path5"
           d="m -12.657445,7.8600359 c -0.28125,0.3867188 -0.503907,0.5273438 -0.597657,0.5273438 -0.08203,0 -0.140625,-0.09375 -0.199218,-0.4921875 -0.164063,-1.1367188 -0.292969,-2.6015625 -0.363282,-3.3398438 -0.152343,-1.7226562 -0.46875,-2.0742187 -0.9375,-2.0742187 -0.257812,0 -0.632812,0.1757812 -0.84375,0.3515625 l 0.05859,0.2226562 c 0.117188,-0.046875 0.257813,-0.09375 0.386719,-0.09375 0.28125,0.011719 0.480469,0.1757813 0.609375,0.9726563 0.05859,0.3398437 0.09375,0.703125 0.117187,1.1367187 -0.609375,1.4414063 -1.582031,2.8945313 -2.285156,3.7617188 l 0.07031,0.1640625 c 0.222656,-0.046875 0.433593,-0.1054688 0.632812,-0.1640625 0.351563,-0.5039063 1.207031,-2.1445313 1.652344,-3.1640625 0.03516,0.6445312 0.105469,1.2421875 0.234375,2.3554687 0.05859,0.6445313 0.210937,0.9726563 0.503906,0.9726563 0.269531,0 0.667969,-0.2226563 1.136719,-0.9375 z m 0,0"
           style="fill:#231f20;fill-opacity:1;fill-rule:nonzero;stroke:none" />
      </g>
      <path
         id="path6"
         d="m 316.879,206.711 v 30"
         style="fill:none;stroke:#231f20;stroke-width:5;stroke-linecap:butt;stroke-linejoin:miter;stroke-miterlimit:3.25;stroke-dasharray:none;stroke-opacity:1"
         transform="matrix(0.13333333,0,0,-0.13333333,0,173.37333)" />
      <path
         id="path7"
         d="m 802.348,206.711 v 30"
         style="fill:none;stroke:#231f20;stroke-width:5;stroke-linecap:butt;stroke-linejoin:miter;stroke-miterlimit:3.25;stroke-dasharray:none;stroke-opacity:1"
         transform="matrix(0.13333333,0,0,-0.13333333,0,173.37333)" />
      <path
         id="path8"
         d="m 1287.83,206.711 v 30"
         style="fill:none;stroke:#231f20;stroke-width:5;stroke-linecap:butt;stroke-linejoin:miter;stroke-miterlimit:3.25;stroke-dasharray:none;stroke-opacity:1"
         transform="matrix(0.13333333,0,0,-0.13333333,0,173.37333)" />
      <path
         id="path9"
         d="m 1773.3,206.711 v 30"
         style="fill:none;stroke:#231f20;stroke-width:5;stroke-linecap:butt;stroke-linejoin:miter;stroke-miterlimit:3.25;stroke-dasharray:none;stroke-opacity:1"
         transform="matrix(0.13333333,0,0,-0.13333333,0,173.37333)" />
      <path
         id="path10"
         d="m 238.316,746.746 h 30"
         style="fill:none;stroke:#231f20;stroke-width:5;stroke-linecap:butt;stroke-linejoin:miter;stroke-miterlimit:3.25;stroke-dasharray:none;stroke-opacity:1"
         transform="matrix(0.13333333,0,0,-0.13333333,0,173.37333)" />
      <path
         id="path11"
         d="m 238.316,1256.82 h 30"
         style="fill:none;stroke:#231f20;stroke-width:5;stroke-linecap:butt;stroke-linejoin:miter;stroke-miterlimit:3.25;stroke-dasharray:none;stroke-opacity:1"
         transform="matrix(0.13333333,0,0,-0.13333333,0,173.37333)" />
      <path
         id="path12"
         d="M 268.316,236.711 V 1256.82"
         style="fill:none;stroke:#231f20;stroke-width:5;stroke-linecap:butt;stroke-linejoin:miter;stroke-miterlimit:3.25;stroke-dasharray:none;stroke-opacity:1"
         transform="matrix(0.13333333,0,0,-0.13333333,0,173.37333)" />
      <path
         id="path13"
         d="M 268.316,236.711 H 1918.91"
         style="fill:none;stroke:#231f20;stroke-width:5;stroke-linecap:butt;stroke-linejoin:miter;stroke-miterlimit:3.25;stroke-dasharray:none;stroke-opacity:1"
         transform="matrix(0.13333333,0,0,-0.13333333,0,173.37333)" />
      <path
         id="path14"
         d="m 268.316,289.641 9.692,0.929 9.73,-6.75 9.727,-1.101 9.683,-4.219 9.731,-2.219 9.687,-1.34 9.723,-0.621 9.688,0.11 9.73,-1 9.688,-0.321 9.722,-0.82 9.731,0.109 9.687,0.821 9.723,-1.25 9.691,0.32 9.727,-0.32 9.683,0.242 9.727,1.098 9.73,0.429 9.68,0.692 h 9.731 l 9.691,0.711 9.727,1.828 9.683,0.64 9.731,0.821 9.687,1.32 9.723,0.711 9.73,1.211 9.688,1.758 9.722,2.031 9.688,1.719 9.73,2.14 9.688,2.352 9.726,2.648 9.727,3.602 9.687,3.863 9.727,4.297 9.688,4.063 9.726,3.671 9.688,4.493 9.726,2.968 9.688,2.657 9.718,3.039 9.735,2.742 9.687,3.789 9.727,4.609 9.687,2.422 9.727,8.469 9.687,6.219 9.727,9.675 9.687,10.325 9.727,9.675 9.719,13.879 9.695,12.891 9.727,13.945 9.687,18.985 9.719,17.539 9.695,19.367 9.727,20.934 9.719,19.882 9.695,23.567 9.726,20.937 9.68,19.364 9.734,22.035 9.688,17.539 9.727,16.531 9.679,15.703 9.735,13.086 9.726,13.672 9.68,11.793 9.734,11.137 9.688,11.441 9.718,10.078 9.696,8.594 9.726,11.207 9.723,8.051 9.69,8.168 9.73,8.043 9.69,5.238 9.71,3.75 9.7,3.082 9.73,3.047 9.67,2.461 9.74,3.558 9.73,3.352 9.68,6.449 9.73,10.902 9.69,9.489 9.73,11.133 9.67,9.179 9.74,5.899 9.69,5.199 9.71,4.41 9.74,4.691 9.69,4.571 9.71,3.359 9.7,2.891 9.73,3.437 9.69,3.981 9.71,2.972 9.74,2.34 9.69,2.461 9.71,2.539 9.7,1.957 9.73,1.403 9.68,1.957 9.73,1.91 9.69,1.64 9.73,1.25 9.72,0.512 9.69,0.508 9.73,0.391 9.67,-0.2 9.74,0.082 9.69,0.309 h 9.71 l 9.74,0.309 9.69,0.941 9.72,1.84 9.69,1.09 9.73,1.129 9.69,0.711 9.71,0.925 9.7,0.907 9.73,1.566 9.71,0.191 9.7,0.59 9.73,0.309 9.68,-1.016 9.73,-1.133 9.69,-2.031 9.73,-2.148 9.67,-2.852 9.74,-5.699 9.73,-5.508 9.67,-8.992 9.74,-8.352 9.69,-8.285 9.71,-8.941 9.7,-7.071 9.73,-5.39 9.73,-3.481 9.67,-2.031 9.74,-0.117 9.69,3.668 9.71,7.078 9.7,11.324 9.73,19.067 9.68,17.343 9.73,17.227 9.73,17.852 9.69,11.832 9.72,10.199 9.69,7.969 9.73,7.148 9.67,3.98 9.74,2.11 9.73,2.383 9.67,2.851 9.74,1.918 9.69,0.938 9.72,1.711 9.69,-0.387 9.73,0.078 9.69,1.449 9.71,0.309 9.74,-1.016 9.69,0.078 9.71,-2.222 9.7,-1.137"
         style="fill:none;stroke:#4974b1;stroke-width:10;stroke-linecap:butt;stroke-linejoin:round;stroke-miterlimit:3.25;stroke-dasharray:none;stroke-opacity:1"
         transform="matrix(0.13333333,0,0,-0.13333333,0,173.37333)" />
    </g>
  </g>
</svg>
