<?xml version="1.0" encoding="UTF-8" standalone="no"?>
<!-- Created with Inkscape (http://www.inkscape.org/) -->

<svg
   version="1.1"
   id="svg1"
   width="238.44"
   height="166.60001"
   viewBox="0 0 238.44 166.60001"
   sodipodi:docname="pha04f17.eps"
   xmlns:inkscape="http://www.inkscape.org/namespaces/inkscape"
   xmlns:sodipodi="http://sodipodi.sourceforge.net/DTD/sodipodi-0.dtd"
   xmlns="http://www.w3.org/2000/svg"
   xmlns:svg="http://www.w3.org/2000/svg">
  <defs
     id="defs1" />
  <sodipodi:namedview
     id="namedview1"
     pagecolor="#ffffff"
     bordercolor="#000000"
     borderopacity="0.25"
     inkscape:showpageshadow="2"
     inkscape:pageopacity="0.0"
     inkscape:pagecheckerboard="0"
     inkscape:deskcolor="#d1d1d1">
    <inkscape:page
       x="0"
       y="0"
       inkscape:label="1"
       id="page1"
       width="238.44"
       height="166.60001"
       margin="0"
       bleed="0" />
  </sodipodi:namedview>
  <g
     id="g1"
     inkscape:groupmode="layer"
     inkscape:label="1">
    <g
       id="group-R5">
      <g
         id="g2"
         aria-label="400&#10;1.0&#10;0.5&#10;500&#10;(λ&#10;i&#10;, ν&#10;i&#10;)&#10;600700&#10;λ"
         transform="matrix(1.3333333,0,0,1.3333333,44.369333,148.05627)">
        <path
           id="path2"
           d="m 4.1028828,-1.6066531 v -0.421875 H 3.2356953 v -3.65625 H 2.8841328 c -0.9257812,1.21875 -1.8515625,2.5546875 -2.70703124,3.8320312 v 0.2460938 H 2.5208516 v 0.65624998 c 0,0.5859375 -0.035156,0.64453125 -0.8203125,0.703125 v 0.24609375 H 4.0091328 V -0.24727812 C 3.2825703,-0.30587187 3.2356953,-0.35274687 3.2356953,-0.95040312 V -1.6066531 Z M 2.5208516,-2.0285281 H 0.75132031 C 1.3372578,-3.0246219 1.9231953,-3.8800906 2.5091328,-4.6769656 h 0.011719 z m 3.9550781,-3.6914063 c -1.3476563,0 -1.8398438,1.6054688 -1.8398438,2.9179688 0,1.4179687 0.4804688,2.90624998 1.8398438,2.90624998 1.359375,0 1.828125,-1.59374998 1.828125,-2.91796878 0,-1.3828125 -0.46875,-2.90625 -1.828125,-2.90625 z m 0,0.3046875 c 0.8085937,0 1.03125,1.3242188 1.03125,2.6015625 0,1.265625 -0.2226563,2.61328128 -1.03125,2.61328128 -0.7734375,0 -1.0429688,-1.35937498 -1.0429688,-2.61328128 0,-1.2539062 0.2226563,-2.6015625 1.0429688,-2.6015625 z m 4.3212893,-0.3046875 c -1.3476565,0 -1.839844,1.6054688 -1.839844,2.9179688 0,1.4179687 0.4804687,2.90624998 1.839844,2.90624998 1.359375,0 1.828125,-1.59374998 1.828125,-2.91796878 0,-1.3828125 -0.46875,-2.90625 -1.828125,-2.90625 z m 0,0.3046875 c 0.808593,0 1.03125,1.3242188 1.03125,2.6015625 0,1.265625 -0.222657,2.61328128 -1.03125,2.61328128 -0.773438,0 -1.042969,-1.35937498 -1.042969,-2.61328128 0,-1.2539062 0.2226562,-2.6015625 1.042969,-2.6015625 z M -29.819969,-81.162317 v -0.246094 c -0.820312,-0.05859 -0.878906,-0.128906 -0.878906,-0.785156 v -4.6875 c -0.492187,0.199219 -1.019531,0.375 -1.59375,0.46875 v 0.210937 l 0.433594,0.01172 c 0.386719,0.02344 0.421875,0.07031 0.421875,0.539063 v 3.457031 c 0,0.65625 -0.03516,0.726562 -0.855469,0.785156 v 0.246094 z m 1.895508,0.105469 c 0.28125,0 0.503906,-0.199219 0.503906,-0.515625 0,-0.292969 -0.222656,-0.515625 -0.503906,-0.515625 -0.292969,0 -0.503906,0.222656 -0.503906,0.515625 0,0.316406 0.210937,0.515625 0.503906,0.515625 z m 3.175781,-5.824219 c -1.347656,0 -1.839843,1.605469 -1.839843,2.917969 0,1.417968 0.480468,2.90625 1.839843,2.90625 1.359375,0 1.828125,-1.59375 1.828125,-2.917969 0,-1.382813 -0.46875,-2.90625 -1.828125,-2.90625 z m 0,0.304687 c 0.808594,0 1.03125,1.324219 1.03125,2.601563 0,1.265625 -0.222656,2.613281 -1.03125,2.613281 -0.773437,0 -1.042968,-1.359375 -1.042968,-2.613281 0,-1.253906 0.222656,-2.601563 1.042968,-2.601563 z m -6.37207,36.00586 c -1.347656,0 -1.839844,1.605468 -1.839844,2.917968 0,1.417969 0.480469,2.90625 1.839844,2.90625 1.359375,0 1.828125,-1.59375 1.828125,-2.917968 0,-1.382813 -0.46875,-2.90625 -1.828125,-2.90625 z m 0,0.304687 c 0.808594,0 1.03125,1.324219 1.03125,2.601563 0,1.265625 -0.222656,2.613281 -1.03125,2.613281 -0.773437,0 -1.042969,-1.359375 -1.042969,-2.613281 0,-1.253907 0.222657,-2.601563 1.042969,-2.601563 z m 3.196289,5.519531 c 0.28125,0 0.503906,-0.199218 0.503906,-0.515625 0,-0.292968 -0.222656,-0.515625 -0.503906,-0.515625 -0.292969,0 -0.503906,0.222657 -0.503906,0.515625 0,0.316407 0.210937,0.515625 0.503906,0.515625 z m 2.390625,-5.050781 h 2.097656 l 0.234375,-0.585937 -0.05859,-0.07031 h -2.566407 l -0.351562,2.742188 c 0.210937,-0.08203 0.550781,-0.1875 0.925781,-0.1875 0.984375,0 1.464844,0.574218 1.464844,1.359375 0,0.679687 -0.375,1.335937 -1.136719,1.335937 -0.550781,0 -0.914062,-0.292969 -1.113281,-0.457031 -0.08203,-0.07031 -0.152344,-0.05859 -0.234375,0 -0.105469,0.09375 -0.1875,0.210937 -0.1875,0.292969 -0.02344,0.105468 0.02344,0.1875 0.140625,0.304687 0.128906,0.128906 0.515625,0.316406 0.925781,0.316406 0.480469,-0.01172 1.078125,-0.246093 1.570313,-0.632812 0.550781,-0.457031 0.796875,-0.960938 0.796875,-1.511719 0,-0.738281 -0.585938,-1.511719 -1.734375,-1.511719 -0.246094,0 -0.667969,0.140625 -1.007813,0.269532 z M 45.56968,-4.9464969 h 2.097656 l 0.234375,-0.5859375 -0.05859,-0.070312 h -2.566406 l -0.351563,2.7421875 c 0.210938,-0.082031 0.550782,-0.1875 0.925782,-0.1875 0.984375,0 1.464843,0.5742188 1.464843,1.359375 0,0.6796875 -0.375,1.33593753 -1.136718,1.33593753 -0.550782,0 -0.914063,-0.29296875 -1.113282,-0.45703125 -0.08203,-0.0703125 -0.152343,-0.0585938 -0.234375,0 -0.105468,0.09375 -0.1875,0.2109375 -0.1875,0.29296875 -0.02344,0.10546875 0.02344,0.1875 0.140625,0.3046875 0.128907,0.12890625 0.515625,0.31640625 0.925782,0.31640625 0.480468,-0.01171875 1.078125,-0.24609375 1.570312,-0.6328125 0.550781,-0.45703125 0.796875,-0.96093748 0.796875,-1.51171878 0,-0.7382812 -0.585937,-1.5117187 -1.734375,-1.5117187 -0.246094,0 -0.667969,0.140625 -1.007812,0.2695312 z m 5.106445,-0.7734375 c -1.347656,0 -1.839844,1.6054688 -1.839844,2.9179688 0,1.4179687 0.480469,2.90624998 1.839844,2.90624998 1.359375,0 1.828125,-1.59374998 1.828125,-2.91796878 0,-1.3828125 -0.46875,-2.90625 -1.828125,-2.90625 z m 0,0.3046875 c 0.808594,0 1.03125,1.3242188 1.03125,2.6015625 0,1.265625 -0.222656,2.61328128 -1.03125,2.61328128 -0.773438,0 -1.042969,-1.35937498 -1.042969,-2.61328128 0,-1.2539062 0.222656,-2.6015625 1.042969,-2.6015625 z m 4.318359,-0.3046875 c -1.347656,0 -1.839843,1.6054688 -1.839843,2.9179688 0,1.4179687 0.480468,2.90624998 1.839843,2.90624998 1.359375,0 1.828125,-1.59374998 1.828125,-2.91796878 0,-1.3828125 -0.46875,-2.90625 -1.828125,-2.90625 z m 0,0.3046875 c 0.808594,0 1.03125,1.3242188 1.03125,2.6015625 0,1.265625 -0.222656,2.61328128 -1.03125,2.61328128 -0.773437,0 -1.042968,-1.35937498 -1.042968,-2.61328128 0,-1.2539062 0.222656,-2.6015625 1.042968,-2.6015625 z m 0.735352,-26.9033201 c -0.890625,-0.761719 -1.40625,-2.203125 -1.40625,-3.75 0,-1.546875 0.515625,-3 1.40625,-3.75 l -0.152344,-0.210938 c -1.324219,0.902344 -1.910156,2.332032 -1.910156,3.949219 0,1.628906 0.585937,3.082031 1.910156,3.960938 z m 0,0"
           style="fill:#231f20;fill-opacity:1;fill-rule:nonzero;stroke:none" />
        <path
           id="path3"
           d="m 58.797219,-34.322473 c -0.1875,0.246093 -0.339844,0.339843 -0.398438,0.339843 -0.05859,0 -0.09375,-0.05859 -0.128906,-0.328125 -0.105469,-0.75 -0.199219,-1.734375 -0.246094,-2.226562 -0.09375,-1.148438 -0.304687,-1.382813 -0.632812,-1.382813 -0.164063,0 -0.410157,0.117188 -0.5625,0.234375 l 0.04687,0.152344 c 0.08203,-0.03516 0.175781,-0.05859 0.257812,-0.05859 0.1875,0 0.328125,0.117188 0.410156,0.644532 0.03516,0.222656 0.05859,0.46875 0.07031,0.75 -0.398438,0.972656 -1.054688,1.933593 -1.523438,2.519531 l 0.04687,0.105469 c 0.152344,-0.03516 0.292969,-0.07031 0.421875,-0.117188 0.234375,-0.328125 0.808594,-1.417969 1.101563,-2.097656 0.02344,0.421875 0.07031,0.820312 0.152344,1.558594 0.04687,0.433593 0.152343,0.65625 0.339843,0.65625 0.175782,0 0.445313,-0.152344 0.761719,-0.632813 z m 3.070312,-1.166016 c -0.210937,0 -0.328125,0.199219 -0.328125,0.351562 0,0.152344 0.105469,0.269532 0.246094,0.269532 0.175781,0 0.316406,-0.164063 0.316406,-0.351563 0,-0.140625 -0.08203,-0.269531 -0.234375,-0.269531 z m 0,3.1875 c -0.140625,0.128906 -0.351562,0.28125 -0.421875,0.28125 -0.03516,0 -0.04687,-0.04687 -0.01172,-0.1875 l 0.421875,-1.652344 c 0.05859,-0.292969 0.07031,-0.480469 -0.05859,-0.480469 -0.164063,0 -0.585938,0.246094 -0.914063,0.574219 l 0.07031,0.140625 c 0.175781,-0.164062 0.363281,-0.257812 0.410156,-0.257812 0.03516,0 0.03516,0.05859 0,0.1875 l -0.375,1.535156 c -0.117188,0.492187 -0.03516,0.585937 0.08203,0.585937 0.210938,0 0.679688,-0.351562 0.878906,-0.597656 z m 0,0"
           style="fill:#231f20;fill-opacity:1;fill-rule:nonzero;stroke:none" />
        <path
           id="path4"
           d="m 63.013039,-34.802942 c -0.210937,0 -0.433594,0.140625 -0.433594,0.363281 0,0.152344 0.07031,0.222656 0.117188,0.234375 0.304687,0.07031 0.5625,0.269531 0.5625,0.597656 0,0.339844 -0.257813,0.574219 -0.691406,0.761719 l 0.09375,0.257813 c 0.550781,-0.164063 1.183593,-0.550782 1.183593,-1.242188 0,-0.632812 -0.503906,-0.972656 -0.832031,-0.972656 z m 0,0"
           style="fill:#231f20;fill-opacity:1;fill-rule:nonzero;stroke:none" />
        <path
           id="path5"
           d="m 67.682961,-34.181848 c -0.01172,-0.433594 -0.05859,-1.113282 -0.128906,-1.582032 -0.05859,-0.433593 -0.164063,-0.574218 -0.292969,-0.574218 -0.164063,0 -0.398438,0.164062 -0.714844,0.65625 l 0.117188,0.117187 c 0.210937,-0.28125 0.304687,-0.351562 0.351562,-0.351562 0.03516,0 0.08203,0.08203 0.117188,0.316406 0.08203,0.539062 0.140625,1.40625 0.164062,2.027344 h 0.152344 c 0.164062,-0.175782 0.28125,-0.351563 0.65625,-0.808594 0.457031,-0.574219 0.867187,-1.125 0.867187,-1.546875 0,-0.234375 -0.117187,-0.410156 -0.28125,-0.410156 -0.128906,0 -0.222656,0.117187 -0.234375,0.210937 -0.01172,0.03516 -0.01172,0.08203 0.01172,0.117188 0.05859,0.04687 0.105469,0.175781 0.105469,0.328125 0,0.410156 -0.550781,1.125 -0.867188,1.5 z m 3.958008,-1.306641 c -0.210938,0 -0.328125,0.199219 -0.328125,0.351562 0,0.152344 0.105468,0.269532 0.246093,0.269532 0.175782,0 0.316407,-0.164063 0.316407,-0.351563 0,-0.140625 -0.08203,-0.269531 -0.234375,-0.269531 z m 0,3.1875 c -0.140625,0.128906 -0.351563,0.28125 -0.421875,0.28125 -0.03516,0 -0.04687,-0.04687 -0.01172,-0.1875 l 0.421875,-1.652344 c 0.05859,-0.292969 0.07031,-0.480469 -0.05859,-0.480469 -0.164062,0 -0.585937,0.246094 -0.914062,0.574219 l 0.07031,0.140625 c 0.175781,-0.164062 0.363281,-0.257812 0.410156,-0.257812 0.03516,0 0.03516,0.05859 0,0.1875 l -0.375,1.535156 c -0.117187,0.492187 -0.03516,0.585937 0.08203,0.585937 0.210937,0 0.679687,-0.351562 0.878906,-0.597656 z m 0,0"
           style="fill:#231f20;fill-opacity:1;fill-rule:nonzero;stroke:none" />
        <path
           id="path6"
           d="m 72.352883,-39.818567 c 0.890625,0.738281 1.417969,2.203125 1.417969,3.75 0,1.546875 -0.503907,2.988281 -1.417969,3.75 l 0.164062,0.199219 c 1.347657,-0.914063 1.898438,-2.332032 1.898438,-3.949219 0,-1.628906 -0.550781,-3.058594 -1.898438,-3.960938 z M 89.62925,-3.0832156 c 0.269531,-1.2539063 1.113281,-1.828125 1.664062,-2.0859375 0.328125,-0.1523438 0.679688,-0.2578125 0.972657,-0.3164063 l -0.05859,-0.28125 c -0.363281,0.058594 -0.796875,0.1640625 -1.148438,0.28125 -0.960937,0.3515625 -2.332031,1.3710938 -2.332031,3.3398438 0,1.38281248 0.796875,2.24999998 1.851563,2.24999998 1.078125,0 1.839843,-0.90234375 1.839843,-1.98046878 0,-0.9257812 -0.65625,-1.6640625 -1.617187,-1.6640625 -0.175781,0 -0.363281,0.070312 -0.5625,0.1523438 z m 0.820312,0.046875 c 0.820313,0 1.195313,0.7382812 1.195313,1.4882812 0,0.59765628 -0.210938,1.34765628 -0.914063,1.34765628 -0.738281,0 -1.195312,-0.87890628 -1.195312,-1.95703128 0,-0.234375 0.01172,-0.4570312 0.04687,-0.6210937 0.222656,-0.1171875 0.527344,-0.2578125 0.867187,-0.2578125 z m 4.423829,-2.6835938 c -1.347657,0 -1.839844,1.6054688 -1.839844,2.9179688 0,1.4179687 0.480469,2.90624998 1.839844,2.90624998 1.359375,0 1.828125,-1.59374998 1.828125,-2.91796878 0,-1.3828125 -0.46875,-2.90625 -1.828125,-2.90625 z m 0,0.3046875 c 0.808593,0 1.03125,1.3242188 1.03125,2.6015625 0,1.265625 -0.222657,2.61328128 -1.03125,2.61328128 -0.773438,0 -1.042969,-1.35937498 -1.042969,-2.61328128 0,-1.2539062 0.222656,-2.6015625 1.042969,-2.6015625 z m 4.321289,-0.3046875 c -1.347657,0 -1.839844,1.6054688 -1.839844,2.9179688 0,1.4179687 0.480469,2.90624998 1.839844,2.90624998 1.35937,0 1.82812,-1.59374998 1.82812,-2.91796878 0,-1.3828125 -0.46875,-2.90625 -1.82812,-2.90625 z m 0,0.3046875 c 0.80859,0 1.03125,1.3242188 1.03125,2.6015625 0,1.265625 -0.22266,2.61328128 -1.03125,2.61328128 -0.773438,0 -1.042969,-1.35937498 -1.042969,-2.61328128 0,-1.2539062 0.222656,-2.6015625 1.042969,-2.6015625 z m 37.4209,-0.1875 h -3.4336 c -0.0352,0.3867188 -0.082,0.8320313 -0.16406,1.3242188 h 0.25781 c 0.22266,-0.5859375 0.26954,-0.6679688 0.86719,-0.6679688 h 1.94531 c -0.71484,1.5585938 -1.72265,3.421875 -2.67187,4.95703128 l 0.0586,0.09375 0.66797,-0.08203125 c 0.86719,-1.86328123 1.69922,-3.69140623 2.54297,-5.51953123 z m 2.45801,-0.1171875 c -1.34766,0 -1.83985,1.6054688 -1.83985,2.9179688 0,1.4179687 0.48047,2.90624998 1.83985,2.90624998 1.35937,0 1.82812,-1.59374998 1.82812,-2.91796878 0,-1.3828125 -0.46875,-2.90625 -1.82812,-2.90625 z m 0,0.3046875 c 0.80859,0 1.03125,1.3242188 1.03125,2.6015625 0,1.265625 -0.22266,2.61328128 -1.03125,2.61328128 -0.77344,0 -1.04297,-1.35937498 -1.04297,-2.61328128 0,-1.2539062 0.22265,-2.6015625 1.04297,-2.6015625 z m 4.31836,-0.3046875 c -1.34766,0 -1.83985,1.6054688 -1.83985,2.9179688 0,1.4179687 0.48047,2.90624998 1.83985,2.90624998 1.35937,0 1.82812,-1.59374998 1.82812,-2.91796878 0,-1.3828125 -0.46875,-2.90625 -1.82812,-2.90625 z m 0,0.3046875 c 0.80859,0 1.03125,1.3242188 1.03125,2.6015625 0,1.265625 -0.22266,2.61328128 -1.03125,2.61328128 -0.77344,0 -1.04297,-1.35937498 -1.04297,-2.61328128 0,-1.2539062 0.22265,-2.6015625 1.04297,-2.6015625 z m 0,0"
           style="fill:#231f20;fill-opacity:1;fill-rule:nonzero;stroke:none" />
        <path
           id="path7"
           d="m 63.924172,9.6345578 c -0.28125,0.3867192 -0.503906,0.5273442 -0.597656,0.5273442 -0.08203,0 -0.140625,-0.09375 -0.199219,-0.4921879 -0.164063,-1.1367188 -0.292969,-2.6015625 -0.363281,-3.3398438 -0.152344,-1.7226562 -0.46875,-2.0742187 -0.9375,-2.0742187 -0.257813,0 -0.632813,0.1757812 -0.84375,0.3515625 l 0.05859,0.2226562 c 0.117188,-0.046875 0.257813,-0.09375 0.386719,-0.09375 0.28125,0.011719 0.480469,0.1757813 0.609375,0.9726563 0.05859,0.3398437 0.09375,0.703125 0.117188,1.1367187 -0.609375,1.4414063 -1.582032,2.8945313 -2.285157,3.7617187 l 0.07031,0.164063 c 0.222656,-0.04687 0.433594,-0.105469 0.632812,-0.164063 0.351563,-0.503906 1.207032,-2.1445312 1.652344,-3.1640624 0.03516,0.6445312 0.105469,1.2421875 0.234375,2.3554687 0.05859,0.6445317 0.210938,0.9726567 0.503906,0.9726567 0.269532,0 0.667969,-0.222657 1.136719,-0.9375004 z m 0,0"
           style="fill:#231f20;fill-opacity:1;fill-rule:nonzero;stroke:none" />
      </g>
      <path
         id="path8"
         d="m 397.566,224.449 v 30"
         style="fill:none;stroke:#231f20;stroke-width:5;stroke-linecap:butt;stroke-linejoin:miter;stroke-miterlimit:3.25;stroke-dasharray:none;stroke-opacity:1"
         transform="matrix(0.13333333,0,0,-0.13333333,0,166.6)" />
      <path
         id="path9"
         d="m 839.563,224.449 v 30"
         style="fill:none;stroke:#231f20;stroke-width:5;stroke-linecap:butt;stroke-linejoin:miter;stroke-miterlimit:3.25;stroke-dasharray:none;stroke-opacity:1"
         transform="matrix(0.13333333,0,0,-0.13333333,0,166.6)" />
      <path
         id="path10"
         d="m 1281.56,224.449 v 30"
         style="fill:none;stroke:#231f20;stroke-width:5;stroke-linecap:butt;stroke-linejoin:miter;stroke-miterlimit:3.25;stroke-dasharray:none;stroke-opacity:1"
         transform="matrix(0.13333333,0,0,-0.13333333,0,166.6)" />
      <path
         id="path11"
         d="m 1723.55,224.449 v 30"
         style="fill:none;stroke:#231f20;stroke-width:5;stroke-linecap:butt;stroke-linejoin:miter;stroke-miterlimit:3.25;stroke-dasharray:none;stroke-opacity:1"
         transform="matrix(0.13333333,0,0,-0.13333333,0,166.6)" />
      <path
         id="path12"
         d="m 113.887,615.086 h 30"
         style="fill:none;stroke:#231f20;stroke-width:5;stroke-linecap:butt;stroke-linejoin:miter;stroke-miterlimit:3.25;stroke-dasharray:none;stroke-opacity:1"
         transform="matrix(0.13333333,0,0,-0.13333333,0,166.6)" />
      <path
         id="path13"
         d="m 113.887,978.211 h 30"
         style="fill:none;stroke:#231f20;stroke-width:5;stroke-linecap:butt;stroke-linejoin:miter;stroke-miterlimit:3.25;stroke-dasharray:none;stroke-opacity:1"
         transform="matrix(0.13333333,0,0,-0.13333333,0,166.6)" />
      <path
         id="path14"
         d="M 143.887,254.449 V 1249.5"
         style="fill:none;stroke:#231f20;stroke-width:5;stroke-linecap:butt;stroke-linejoin:miter;stroke-miterlimit:3.25;stroke-dasharray:none;stroke-opacity:1"
         transform="matrix(0.13333333,0,0,-0.13333333,0,166.6)" />
      <path
         id="path15"
         d="M 143.887,254.449 H 1755.92"
         style="fill:none;stroke:#231f20;stroke-width:5;stroke-linecap:butt;stroke-linejoin:miter;stroke-miterlimit:3.25;stroke-dasharray:none;stroke-opacity:1"
         transform="matrix(0.13333333,0,0,-0.13333333,0,166.6)" />
      <path
         id="path16"
         d="m 178.43,615.086 485.457,580.974 88.242,-290.509 220.664,-363.082 242.757,145.23 176.5,-290.472 331.02,145.242"
         style="fill:none;stroke:#4974b1;stroke-width:10;stroke-linecap:butt;stroke-linejoin:round;stroke-miterlimit:3.25;stroke-dasharray:none;stroke-opacity:1"
         transform="matrix(0.13333333,0,0,-0.13333333,0,166.6)" />
      <path
         id="path17"
         d="m 1738.05,542.469 c 0,3.972 -1.58,7.797 -4.39,10.605 -2.83,2.809 -6.63,4.387 -10.6,4.387 -4,0 -7.8,-1.578 -10.61,-4.387 -2.8,-2.808 -4.4,-6.633 -4.4,-10.605 0,-3.969 1.6,-7.797 4.4,-10.606 2.81,-2.808 6.61,-4.383 10.61,-4.383 3.97,0 7.77,1.575 10.6,4.383 2.81,2.809 4.39,6.637 4.39,10.606 v 0"
         style="fill:#4974b1;fill-opacity:1;fill-rule:evenodd;stroke:none"
         transform="matrix(0.13333333,0,0,-0.13333333,0,166.6)" />
      <path
         id="path18"
         d="m 1230.55,687.699 c 0,3.973 -1.58,7.797 -4.39,10.606 -2.83,2.804 -6.63,4.383 -10.6,4.383 -4,0 -7.8,-1.579 -10.61,-4.383 -2.8,-2.809 -4.4,-6.633 -4.4,-10.606 0,-3.969 1.6,-7.801 4.4,-10.605 2.81,-2.809 6.61,-4.387 10.61,-4.387 3.97,0 7.77,1.578 10.6,4.387 2.81,2.804 4.39,6.636 4.39,10.605 v 0"
         style="fill:#4974b1;fill-opacity:1;fill-rule:evenodd;stroke:none"
         transform="matrix(0.13333333,0,0,-0.13333333,0,166.6)" />
      <path
         id="path19"
         d="m 988.223,546.16 c 0,3.977 -1.575,7.797 -4.383,10.606 -2.832,2.808 -6.633,4.382 -10.61,4.382 -3.992,0 -7.792,-1.574 -10.601,-4.382 -2.805,-2.809 -4.406,-6.629 -4.406,-10.606 0,-3.969 1.601,-7.797 4.406,-10.605 2.809,-2.809 6.609,-4.383 10.601,-4.383 3.977,0 7.778,1.574 10.61,4.383 2.808,2.808 4.383,6.636 4.383,10.605 v 0"
         style="fill:#4974b1;fill-opacity:1;fill-rule:evenodd;stroke:none"
         transform="matrix(0.13333333,0,0,-0.13333333,0,166.6)" />
      <path
         id="path20"
         d="m 767.129,905.551 c 0,3.972 -1.57,7.797 -4.387,10.605 -2.832,2.809 -6.629,4.383 -10.601,4.383 -3.996,0 -7.793,-1.574 -10.61,-4.383 -2.801,-2.808 -4.402,-6.633 -4.402,-10.605 0,-3.973 1.601,-7.797 4.402,-10.606 2.817,-2.808 6.614,-4.386 10.61,-4.386 3.972,0 7.769,1.578 10.601,4.386 2.817,2.809 4.387,6.633 4.387,10.606 v 0"
         style="fill:#4974b1;fill-opacity:1;fill-rule:evenodd;stroke:none"
         transform="matrix(0.13333333,0,0,-0.13333333,0,166.6)" />
      <path
         id="path21"
         d="m 678.887,1196.06 c 0,3.98 -1.574,7.8 -4.383,10.61 -2.832,2.81 -6.633,4.38 -10.609,4.38 -3.993,0 -7.79,-1.57 -10.602,-4.38 -2.805,-2.81 -4.406,-6.63 -4.406,-10.61 0,-3.97 1.601,-7.79 4.406,-10.6 2.812,-2.81 6.609,-4.39 10.602,-4.39 3.976,0 7.777,1.58 10.609,4.39 2.809,2.81 4.383,6.63 4.383,10.6 v 0"
         style="fill:#4974b1;fill-opacity:1;fill-rule:evenodd;stroke:none"
         transform="matrix(0.13333333,0,0,-0.13333333,0,166.6)" />
      <path
         id="path22"
         d="m 193.43,615.086 c 0,3.977 -1.575,7.797 -4.387,10.605 -2.832,2.809 -6.633,4.383 -10.605,4.383 -3.997,0 -7.793,-1.574 -10.606,-4.383 -2.805,-2.808 -4.402,-6.628 -4.402,-10.605 0,-3.969 1.597,-7.797 4.402,-10.606 2.813,-2.808 6.609,-4.382 10.606,-4.382 3.972,0 7.773,1.574 10.605,4.382 2.812,2.809 4.387,6.637 4.387,10.606 v 0"
         style="fill:#4974b1;fill-opacity:1;fill-rule:evenodd;stroke:none"
         transform="matrix(0.13333333,0,0,-0.13333333,0,166.6)" />
    </g>
  </g>
</svg>
