<?xml version="1.0" encoding="UTF-8" standalone="no"?>
<!-- Created with Inkscape (http://www.inkscape.org/) -->

<svg
   version="1.1"
   id="svg1"
   width="239.58667"
   height="165.49333"
   viewBox="0 0 239.58667 165.49333"
   sodipodi:docname="pha04f13.eps"
   xmlns:inkscape="http://www.inkscape.org/namespaces/inkscape"
   xmlns:sodipodi="http://sodipodi.sourceforge.net/DTD/sodipodi-0.dtd"
   xmlns="http://www.w3.org/2000/svg"
   xmlns:svg="http://www.w3.org/2000/svg">
  <defs
     id="defs1" />
  <sodipodi:namedview
     id="namedview1"
     pagecolor="#ffffff"
     bordercolor="#000000"
     borderopacity="0.25"
     inkscape:showpageshadow="2"
     inkscape:pageopacity="0.0"
     inkscape:pagecheckerboard="0"
     inkscape:deskcolor="#d1d1d1">
    <inkscape:page
       x="0"
       y="0"
       inkscape:label="1"
       id="page1"
       width="239.58667"
       height="165.49333"
       margin="0"
       bleed="0" />
  </sodipodi:namedview>
  <g
     id="g1"
     inkscape:groupmode="layer"
     inkscape:label="1">
    <g
       id="group-R5">
      <g
         id="g2"
         aria-label="400&#10;200&#10;100&#10;500600700&#10;λ"
         transform="matrix(1.3333333,0,0,1.3333333,57.802133,149.31573)">
        <path
           id="path2"
           d="m 4.1005484,-1.6049641 v -0.421875 H 3.2333609 v -3.65625 H 2.8817984 c -0.9257812,1.21875 -1.8515625,2.5546875 -2.70703121,3.8320313 v 0.2460937 H 2.5185172 v 0.65625004 c 0,0.5859375 -0.035156,0.64453125 -0.8203125,0.703125 V 5.046875e-4 H 4.0067984 V -0.24558906 C 3.2802359,-0.30418281 3.2333609,-0.35105781 3.2333609,-0.94871406 V -1.6049641 Z M 2.5185172,-2.0268391 H 0.74898594 C 1.3349234,-3.0229328 1.9208609,-3.8784016 2.5067984,-4.6752766 h 0.011719 z M 6.476525,-5.7182453 c -1.3476562,0 -1.8398437,1.6054687 -1.8398437,2.9179687 0,1.4179688 0.4804687,2.90625004 1.8398437,2.90625004 1.359375,0 1.828125,-1.59375004 1.828125,-2.91796874 0,-1.3828125 -0.46875,-2.90625 -1.828125,-2.90625 z m 0,0.3046875 c 0.8085938,0 1.03125,1.3242187 1.03125,2.6015625 0,1.265625 -0.2226562,2.61328124 -1.03125,2.61328124 -0.7734375,0 -1.0429687,-1.35937504 -1.0429687,-2.61328124 0,-1.2539063 0.2226562,-2.6015625 1.0429687,-2.6015625 z m 4.318359,-0.3046875 c -1.3476559,0 -1.8398434,1.6054687 -1.8398434,2.9179687 0,1.4179688 0.4804688,2.90625004 1.8398434,2.90625004 1.359375,0 1.828125,-1.59375004 1.828125,-2.91796874 0,-1.3828125 -0.46875,-2.90625 -1.828125,-2.90625 z m 0,0.3046875 c 0.808594,0 1.03125,1.3242187 1.03125,2.6015625 0,1.265625 -0.222656,2.61328124 -1.03125,2.61328124 -0.773437,0 -1.0429684,-1.35937504 -1.0429684,-2.61328124 0,-1.2539063 0.2226563,-2.6015625 1.0429684,-2.6015625 z M -39.648475,-83.079573 c -0.269531,0.574218 -0.386719,0.609375 -0.867187,0.609375 h -1.6875 l 1.277343,-1.335938 c 0.832032,-0.890625 1.195313,-1.417969 1.195313,-2.203125 0,-0.949219 -0.726563,-1.523437 -1.511719,-1.523437 -0.527344,0 -0.949219,0.234375 -1.21875,0.539062 l -0.515625,0.726563 0.199219,0.175781 c 0.234375,-0.351563 0.609375,-0.832031 1.230469,-0.832031 0.65625,0 1.054687,0.433593 1.054687,1.195312 0,0.773438 -0.5625,1.511719 -1.125,2.179688 -0.445312,0.515625 -0.949219,1.03125 -1.453125,1.523437 v 0.210938 h 3.363281 c 0.105469,-0.410157 0.199219,-0.796875 0.316407,-1.183594 z m 2.774414,-4.453125 c -1.347656,0 -1.839844,1.605468 -1.839844,2.917968 0,1.417969 0.480469,2.90625 1.839844,2.90625 1.359375,0 1.828125,-1.59375 1.828125,-2.917968 0,-1.382813 -0.46875,-2.90625 -1.828125,-2.90625 z m 0,0.304687 c 0.808594,0 1.03125,1.324219 1.03125,2.601563 0,1.265625 -0.222656,2.613281 -1.03125,2.613281 -0.773437,0 -1.042969,-1.359375 -1.042969,-2.613281 0,-1.253907 0.222657,-2.601563 1.042969,-2.601563 z m 4.318359,-0.304687 c -1.347656,0 -1.839843,1.605468 -1.839843,2.917968 0,1.417969 0.480468,2.90625 1.839843,2.90625 1.359375,0 1.828125,-1.59375 1.828125,-2.917968 0,-1.382813 -0.46875,-2.90625 -1.828125,-2.90625 z m 0,0.304687 c 0.808594,0 1.03125,1.324219 1.03125,2.601563 0,1.265625 -0.222656,2.613281 -1.03125,2.613281 -0.773437,0 -1.042968,-1.359375 -1.042968,-2.613281 0,-1.253907 0.222656,-2.601563 1.042968,-2.601563 z m -7.338867,41.856445 v -0.246093 c -0.820312,-0.05859 -0.878906,-0.128907 -0.878906,-0.785157 v -4.6875 c -0.492187,0.199219 -1.019531,0.375 -1.59375,0.46875 v 0.210938 l 0.433594,0.01172 c 0.386719,0.02344 0.421875,0.07031 0.421875,0.539062 v 3.457031 c 0,0.65625 -0.03516,0.726563 -0.855469,0.785157 v 0.246093 z m 3.020508,-5.71875 c -1.347656,0 -1.839844,1.605469 -1.839844,2.917969 0,1.417969 0.480469,2.90625 1.839844,2.90625 1.359375,0 1.828125,-1.59375 1.828125,-2.917969 0,-1.382812 -0.46875,-2.90625 -1.828125,-2.90625 z m 0,0.304688 c 0.808594,0 1.03125,1.324219 1.03125,2.601562 0,1.265625 -0.222656,2.613282 -1.03125,2.613282 -0.773437,0 -1.042969,-1.359375 -1.042969,-2.613282 0,-1.253906 0.222657,-2.601562 1.042969,-2.601562 z m 4.318359,-0.304688 c -1.347656,0 -1.839843,1.605469 -1.839843,2.917969 0,1.417969 0.480468,2.90625 1.839843,2.90625 1.359375,0 1.828125,-1.59375 1.828125,-2.917969 0,-1.382812 -0.46875,-2.90625 -1.828125,-2.90625 z m 0,0.304688 c 0.808594,0 1.03125,1.324219 1.03125,2.601562 0,1.265625 -0.222656,2.613282 -1.03125,2.613282 -0.773437,0 -1.042968,-1.359375 -1.042968,-2.613282 0,-1.253906 0.222656,-2.601562 1.042968,-2.601562 z M 30.80172,-4.9448078 h 2.097657 l 0.234375,-0.5859375 -0.05859,-0.070312 h -2.566406 l -0.351563,2.7421875 c 0.210938,-0.082031 0.550781,-0.1875 0.925781,-0.1875 0.984375,0 1.464844,0.5742187 1.464844,1.359375 0,0.6796875 -0.375,1.33593749 -1.136719,1.33593749 -0.550781,0 -0.914062,-0.29296875 -1.113281,-0.45703125 -0.08203,-0.0703125 -0.152344,-0.0585938 -0.234375,0 -0.105469,0.09375 -0.1875,0.2109375 -0.1875,0.29296875 -0.02344,0.10546875 0.02344,0.1875 0.140625,0.3046875 0.128906,0.12890625 0.515625,0.31640625 0.925781,0.31640625 0.480469,-0.01171875 1.078125,-0.24609375 1.570313,-0.6328125 0.550781,-0.45703125 0.796875,-0.96093754 0.796875,-1.51171874 0,-0.7382813 -0.585938,-1.5117188 -1.734375,-1.5117188 -0.246094,0 -0.667969,0.140625 -1.007813,0.2695313 z m 5.103516,-0.7734375 c -1.347656,0 -1.839844,1.6054687 -1.839844,2.9179687 0,1.4179688 0.480469,2.90625004 1.839844,2.90625004 1.359375,0 1.828125,-1.59375004 1.828125,-2.91796874 0,-1.3828125 -0.46875,-2.90625 -1.828125,-2.90625 z m 0,0.3046875 c 0.808594,0 1.03125,1.3242187 1.03125,2.6015625 0,1.265625 -0.222656,2.61328124 -1.03125,2.61328124 -0.773438,0 -1.042969,-1.35937504 -1.042969,-2.61328124 0,-1.2539063 0.222656,-2.6015625 1.042969,-2.6015625 z m 4.321289,-0.3046875 c -1.347656,0 -1.839844,1.6054687 -1.839844,2.9179687 0,1.4179688 0.480469,2.90625004 1.839844,2.90625004 1.359375,0 1.828125,-1.59375004 1.828125,-2.91796874 0,-1.3828125 -0.46875,-2.90625 -1.828125,-2.90625 z m 0,0.3046875 c 0.808594,0 1.03125,1.3242187 1.03125,2.6015625 0,1.265625 -0.222656,2.61328124 -1.03125,2.61328124 -0.773437,0 -1.042969,-1.35937504 -1.042969,-2.61328124 0,-1.2539063 0.222657,-2.6015625 1.042969,-2.6015625 z m 19.863281,2.3320312 c 0.269532,-1.2539062 1.113282,-1.828125 1.664063,-2.0859375 0.328125,-0.1523437 0.679687,-0.2578125 0.972656,-0.3164062 l -0.05859,-0.28125 c -0.363281,0.058594 -0.796875,0.1640625 -1.148437,0.28125 -0.960938,0.3515625 -2.332031,1.3710937 -2.332031,3.3398437 0,1.38281254 0.796875,2.25000004 1.851562,2.25000004 1.078125,0 1.839844,-0.90234375 1.839844,-1.98046874 0,-0.9257813 -0.65625,-1.6640625 -1.617188,-1.6640625 -0.175781,0 -0.363281,0.070312 -0.5625,0.1523437 z m 0.820313,0.046875 c 0.820312,0 1.195312,0.7382813 1.195312,1.4882813 0,0.59765624 -0.210937,1.34765624 -0.914062,1.34765624 -0.738281,0 -1.195313,-0.87890624 -1.195313,-1.95703124 0,-0.234375 0.01172,-0.4570313 0.04687,-0.6210938 0.222657,-0.1171875 0.527344,-0.2578125 0.867188,-0.2578125 z m 4.423828,-2.6835937 c -1.347656,0 -1.839844,1.6054687 -1.839844,2.9179687 0,1.4179688 0.480469,2.90625004 1.839844,2.90625004 1.359375,0 1.828125,-1.59375004 1.828125,-2.91796874 0,-1.3828125 -0.46875,-2.90625 -1.828125,-2.90625 z m 0,0.3046875 c 0.808594,0 1.03125,1.3242187 1.03125,2.6015625 0,1.265625 -0.222656,2.61328124 -1.03125,2.61328124 -0.773438,0 -1.042969,-1.35937504 -1.042969,-2.61328124 0,-1.2539063 0.222656,-2.6015625 1.042969,-2.6015625 z m 4.321289,-0.3046875 c -1.347656,0 -1.839844,1.6054687 -1.839844,2.9179687 0,1.4179688 0.480469,2.90625004 1.839844,2.90625004 1.359375,0 1.828125,-1.59375004 1.828125,-2.91796874 0,-1.3828125 -0.46875,-2.90625 -1.828125,-2.90625 z m 0,0.3046875 c 0.808594,0 1.03125,1.3242187 1.03125,2.6015625 0,1.265625 -0.222656,2.61328124 -1.03125,2.61328124 -0.773438,0 -1.042969,-1.35937504 -1.042969,-2.61328124 0,-1.2539063 0.222656,-2.6015625 1.042969,-2.6015625 z m 22.652344,-0.1875 h -3.433594 c -0.03516,0.3867187 -0.08203,0.8320312 -0.164063,1.3242187 h 0.257813 c 0.222656,-0.5859375 0.269531,-0.6679687 0.867187,-0.6679687 h 1.945313 c -0.714844,1.5585937 -1.722656,3.421875 -2.671875,4.95703124 l 0.05859,0.09375 0.667968,-0.08203125 c 0.867188,-1.86328129 1.699219,-3.69140629 2.542969,-5.51953129 z m 2.455078,-0.1171875 c -1.347656,0 -1.839844,1.6054687 -1.839844,2.9179687 0,1.4179688 0.480469,2.90625004 1.839844,2.90625004 1.359375,0 1.828125,-1.59375004 1.828125,-2.91796874 0,-1.3828125 -0.46875,-2.90625 -1.828125,-2.90625 z m 0,0.3046875 c 0.808594,0 1.03125,1.3242187 1.03125,2.6015625 0,1.265625 -0.222656,2.61328124 -1.03125,2.61328124 -0.773438,0 -1.042969,-1.35937504 -1.042969,-2.61328124 0,-1.2539063 0.222656,-2.6015625 1.042969,-2.6015625 z m 4.321289,-0.3046875 c -1.347656,0 -1.839844,1.6054687 -1.839844,2.9179687 0,1.4179688 0.480469,2.90625004 1.839844,2.90625004 1.359373,0 1.828123,-1.59375004 1.828123,-2.91796874 0,-1.3828125 -0.46875,-2.90625 -1.828123,-2.90625 z m 0,0.3046875 c 0.808594,0 1.031253,1.3242187 1.031253,2.6015625 0,1.265625 -0.222659,2.61328124 -1.031253,2.61328124 -0.773438,0 -1.042969,-1.35937504 -1.042969,-2.61328124 0,-1.2539063 0.222656,-2.6015625 1.042969,-2.6015625 z m 0,0"
           style="fill:#231f20;fill-opacity:1;fill-rule:nonzero;stroke:none" />
        <path
           id="path3"
           d="M 55.355431,7.8608563 C 55.074181,8.247575 54.851525,8.3882 54.757775,8.3882 54.675744,8.3882 54.61715,8.29445 54.558556,7.8960125 54.394494,6.7592938 54.265588,5.29445 54.195275,4.5561688 54.042931,2.8335125 53.726525,2.48195 53.257775,2.48195 c -0.257812,0 -0.632812,0.1757813 -0.84375,0.3515625 l 0.05859,0.2226563 c 0.117187,-0.046875 0.257812,-0.09375 0.386719,-0.09375 0.28125,0.011719 0.480468,0.1757812 0.609375,0.9726562 0.05859,0.3398438 0.09375,0.703125 0.117187,1.1367188 C 52.976525,6.5132 52.003869,7.966325 51.300744,8.8335125 l 0.07031,0.1640625 C 51.593713,8.9507 51.80465,8.8921063 52.003869,8.8335125 52.355431,8.3296063 53.2109,6.6889813 53.656213,5.66945 c 0.03516,0.6445313 0.105468,1.2421875 0.234375,2.3554688 0.05859,0.6445312 0.210937,0.9726562 0.503906,0.9726562 0.269531,0 0.667969,-0.2226562 1.136719,-0.9375 z m 0,0"
           style="fill:#231f20;fill-opacity:1;fill-rule:nonzero;stroke:none" />
      </g>
      <path
         id="path4"
         d="m 204.059,240.109 14.687,0.7 14.731,0.824 14.714,0.972 14.696,1.094 14.73,1.25 14.719,1.446 14.691,1.601 14.727,1.801 14.723,1.988 14.691,2.188 14.727,2.422 14.73,2.699 14.723,2.926 14.687,3.164 14.731,3.476 14.722,3.75 14.688,4.024 14.73,4.296 14.715,4.653 14.695,4.918 14.731,5.234 14.719,5.586 14.691,5.859 14.731,6.211 14.714,6.567 14.696,6.836 14.726,7.183 14.723,7.5 14.73,7.856 14.688,8.125 14.726,8.472 14.727,8.75 14.687,9.067 14.727,9.375 14.727,9.644 14.687,9.922 14.727,10.196 14.726,10.468 14.688,10.743 14.726,10.941 14.727,11.211 14.726,11.402 14.688,11.602 14.726,11.836 14.727,11.996 14.688,12.183 14.726,12.344 14.727,12.5 14.687,12.617 14.727,12.735 14.726,12.89 14.688,12.969 14.726,13.051 14.727,13.129 14.721,13.16 14.69,13.238 14.73,13.278 14.73,13.32 14.68,13.32 29.46,26.641 14.68,13.293 14.73,13.281 14.73,13.234 14.68,13.161 14.73,13.128 14.73,13.055 14.68,12.957 14.73,12.891 14.73,12.824 14.72,12.688 14.69,12.578 14.73,12.461 14.72,12.351 14.69,12.176 14.73,12.07 14.73,11.926 14.68,11.785 14.73,11.613 14.73,11.442 14.68,11.289 14.74,11.125 14.72,10.941 14.72,10.743 14.69,10.59 14.73,10.39 14.72,10.19 14.69,10.04 14.73,9.81 14.72,9.61 14.69,9.41 14.73,9.22 14.73,9.02 14.68,8.83 14.73,8.6 14.73,8.39 14.72,8.21 14.69,8.01 14.73,7.77 14.72,7.58 14.69,7.34 14.73,7.15 14.72,6.95 14.69,6.76 14.73,6.52 14.72,6.33"
         style="fill:none;stroke:#4974b1;stroke-width:10;stroke-linecap:butt;stroke-linejoin:miter;stroke-miterlimit:3.25;stroke-dasharray:none;stroke-opacity:1"
         transform="matrix(0.13333333,0,0,-0.13333333,0,165.49333)" />
      <path
         id="path5"
         d="m 498.316,206.711 v 30"
         style="fill:none;stroke:#231f20;stroke-width:5;stroke-linecap:butt;stroke-linejoin:miter;stroke-miterlimit:3.25;stroke-dasharray:none;stroke-opacity:1"
         transform="matrix(0.13333333,0,0,-0.13333333,0,165.49333)" />
      <path
         id="path6"
         d="m 792.613,206.711 v 30"
         style="fill:none;stroke:#231f20;stroke-width:5;stroke-linecap:butt;stroke-linejoin:miter;stroke-miterlimit:3.25;stroke-dasharray:none;stroke-opacity:1"
         transform="matrix(0.13333333,0,0,-0.13333333,0,165.49333)" />
      <path
         id="path7"
         d="m 1086.91,206.711 v 30"
         style="fill:none;stroke:#231f20;stroke-width:5;stroke-linecap:butt;stroke-linejoin:miter;stroke-miterlimit:3.25;stroke-dasharray:none;stroke-opacity:1"
         transform="matrix(0.13333333,0,0,-0.13333333,0,165.49333)" />
      <path
         id="path8"
         d="m 1381.21,206.711 v 30"
         style="fill:none;stroke:#231f20;stroke-width:5;stroke-linecap:butt;stroke-linejoin:miter;stroke-miterlimit:3.25;stroke-dasharray:none;stroke-opacity:1"
         transform="matrix(0.13333333,0,0,-0.13333333,0,165.49333)" />
      <path
         id="path9"
         d="m 141.559,601.121 h 30 m 0,-364.41 h 20 m -50,0 H 1796.95"
         style="fill:none;stroke:#231f20;stroke-width:5;stroke-linecap:butt;stroke-linejoin:miter;stroke-miterlimit:3.25;stroke-dasharray:none;stroke-opacity:1"
         transform="matrix(0.13333333,0,0,-0.13333333,0,165.49333)" />
      <path
         id="path10"
         d="m 141.559,965.496 h 30"
         style="fill:none;stroke:#231f20;stroke-width:5;stroke-linecap:butt;stroke-linejoin:miter;stroke-miterlimit:3.25;stroke-dasharray:none;stroke-opacity:1"
         transform="matrix(0.13333333,0,0,-0.13333333,0,165.49333)" />
      <path
         id="path11"
         d="M 171.559,216.711 V 1241.24"
         style="fill:none;stroke:#231f20;stroke-width:5;stroke-linecap:butt;stroke-linejoin:miter;stroke-miterlimit:3.25;stroke-dasharray:none;stroke-opacity:1"
         transform="matrix(0.13333333,0,0,-0.13333333,0,165.49333)" />
    </g>
  </g>
</svg>
