<?xml version="1.0" encoding="UTF-8" standalone="no"?>
<!-- Created with Inkscape (http://www.inkscape.org/) -->

<svg
   version="1.1"
   id="svg1"
   width="311.78668"
   height="138.08"
   viewBox="0 0 311.78668 138.08"
   sodipodi:docname="pha04f04.eps"
   xmlns:inkscape="http://www.inkscape.org/namespaces/inkscape"
   xmlns:sodipodi="http://sodipodi.sourceforge.net/DTD/sodipodi-0.dtd"
   xmlns="http://www.w3.org/2000/svg"
   xmlns:svg="http://www.w3.org/2000/svg">
  <defs
     id="defs1" />
  <sodipodi:namedview
     id="namedview1"
     pagecolor="#ffffff"
     bordercolor="#000000"
     borderopacity="0.25"
     inkscape:showpageshadow="2"
     inkscape:pageopacity="0.0"
     inkscape:pagecheckerboard="0"
     inkscape:deskcolor="#d1d1d1">
    <inkscape:page
       x="0"
       y="0"
       inkscape:label="1"
       id="page1"
       width="311.78668"
       height="138.08"
       margin="0"
       bleed="0" />
  </sodipodi:namedview>
  <g
     id="g1"
     inkscape:groupmode="layer"
     inkscape:label="1">
    <g
       id="group-R5">
      <path
         id="path2"
         d="m 1812.71,303.582 -148.43,2.035 39.68,21.262 -24.09,25.516 h 53.87 l -14.17,48.195 48.18,-25.512 -11.32,77.961 31.17,-35.437 h 46.78 l 28.35,24.097 52.45,-46.777 -11.34,-36.856 39.7,-8.507 -53.87,-21.262 51.02,-24.094 -127.98,-0.621"
         style="fill:#d3d2d2;fill-opacity:1;fill-rule:nonzero;stroke:none"
         transform="matrix(0.13333333,0,0,-0.13333333,0,138.08)" />
      <path
         id="path3"
         d="M 0,305 H 1081.74"
         style="fill:none;stroke:#231f20;stroke-width:5;stroke-linecap:butt;stroke-linejoin:miter;stroke-miterlimit:10;stroke-dasharray:none;stroke-opacity:1"
         transform="matrix(0.13333333,0,0,-0.13333333,0,138.08)" />
      <path
         id="path4"
         d="m 562.242,303.582 c 0,-8.285 -6.719,-15 -15.008,-15 -8.281,0 -14.992,6.715 -14.992,15 0,8.285 6.711,15 14.992,15 8.289,0 15.008,-6.715 15.008,-15"
         style="fill:#231f20;fill-opacity:1;fill-rule:nonzero;stroke:none"
         transform="matrix(0.13333333,0,0,-0.13333333,0,138.08)" />
      <path
         id="path5"
         d="m 1.523475,-3.4225219 v -0.7148437 c -0.421875,0.1757812 -0.92578125,0.328125 -1.3125,0.3984375 v 0.2109375 c 0.5625,0.070312 0.59765625,0.09375 0.59765625,0.6796875 v 4.0664062 c 0,0.5859375 -0.0820313,0.6445313 -0.65625,0.703125 v 0.234375 H 2.2851938 V 1.9212281 C 1.5820688,1.8509156 1.523475,1.8040406 1.523475,1.1243531 v -1.18359372 c 0.1171875,0.0703125 0.3632813,0.15234375 0.6210938,0.1640625 1.171875,-0.2109375 2.2382812,-1.08984375 2.2382812,-2.44921878 0,-0.890625 -0.5976562,-1.6992187 -1.59375,-1.6992187 -0.1054687,0 -0.28125,0.046875 -0.4453125,0.140625 z m 0,0.3046875 c 0.2460938,-0.1875 0.609375,-0.3867187 0.9023438,-0.3867187 0.65625,0 1.2070312,0.5390625 1.2070312,1.5117187 0,1.00781253 -0.515625,1.66406253 -1.265625,1.66406253 -0.3046875,0 -0.6445312,-0.15234375 -0.84375,-0.3515625 z m 0,0"
         style="fill:#231f20;fill-opacity:1;fill-rule:nonzero;stroke:none"
         aria-label="p"
         transform="matrix(1.3333333,0,0,1.3333333,68.5312,111.8368)" />
      <path
         id="path6"
         d="m 473.418,739.992 -2.457,14.797"
         style="fill:none;stroke:#231f20;stroke-width:5;stroke-linecap:butt;stroke-linejoin:miter;stroke-miterlimit:10;stroke-dasharray:none;stroke-opacity:1"
         transform="matrix(0.13333333,0,0,-0.13333333,0,138.08)" />
      <path
         id="path7"
         d="m 468.441,769.953 -11.328,68.238"
         style="fill:none;stroke:#231f20;stroke-width:5;stroke-linecap:butt;stroke-linejoin:miter;stroke-miterlimit:10;stroke-dasharray:23.0567, 15.3711;stroke-dashoffset:0;stroke-opacity:1"
         transform="matrix(0.13333333,0,0,-0.13333333,0,138.08)" />
      <path
         id="path8"
         d="m 455.855,845.773 -2.457,14.797"
         style="fill:none;stroke:#231f20;stroke-width:5;stroke-linecap:butt;stroke-linejoin:miter;stroke-miterlimit:10;stroke-dasharray:none;stroke-opacity:1"
         transform="matrix(0.13333333,0,0,-0.13333333,0,138.08)" />
      <path
         id="path9"
         d="M 545.398,306.457 481.43,691.742"
         style="fill:none;stroke:#231f20;stroke-width:7.5;stroke-linecap:butt;stroke-linejoin:miter;stroke-miterlimit:10;stroke-dasharray:none;stroke-opacity:1"
         transform="matrix(0.13333333,0,0,-0.13333333,0,138.08)" />
      <path
         id="path10"
         d="m 483.191,681.117 -19.168,-16.515 -0.605,0.652 8.035,37.062 c 0.656,12.563 1.313,25.118 1.965,37.676 4.68,-11.672 9.352,-23.344 14.031,-35.019 l 19.586,-32.481 -0.242,-0.785 -23.602,9.41"
         style="fill:#231f20;fill-opacity:1;fill-rule:nonzero;stroke:none"
         transform="matrix(0.13333333,0,0,-0.13333333,0,138.08)" />
      <g
         id="g10"
         aria-label="L&#10;i&#10;(p, ω)"
         transform="matrix(1.3333333,0,0,1.3333333,71.598933,55.650267)">
        <path
           id="path11"
           d="m 4.3584172,-1.5013719 c -0.234375,0.4453125 -0.4335938,0.71484378 -0.6328125,0.91406253 -0.2226563,0.22265625 -0.5273438,0.26953125 -1.0546875,0.26953125 -0.3984375,0 -0.6796875,-0.0117188 -0.8085938,-0.1171875 -0.140625,-0.10546875 -0.1640625,-0.31640625 -0.09375,-0.64453128 l 0.703125,-3.7265625 c 0.1289063,-0.6796875 0.1640625,-0.7382812 0.8789063,-0.796875 l 0.058594,-0.234375 h -2.25 l -0.058594,0.234375 c 0.7382812,0.070312 0.7851562,0.1054688 0.6445312,0.796875 L 1.0068547,-1.0443406 C 0.86622969,-0.36465312 0.80763594,-0.29434062 0.11622969,-0.24746562 L 0.05763594,-0.00137187 H 4.0302922 c 0.140625,-0.28125 0.46875,-1.10156253 0.5742187,-1.40625003 z m 0,0"
           style="fill:#231f20;fill-opacity:1;fill-rule:nonzero;stroke:none" />
        <path
           id="path12"
           d="m 6.0078312,-3.8304734 c 0.2578125,0 0.4570313,-0.2109375 0.4570313,-0.4570313 0,-0.2695312 -0.1992188,-0.46875 -0.4570313,-0.46875 -0.234375,0 -0.4570312,0.1992188 -0.4570312,0.46875 0,0.2460938 0.2226562,0.4570313 0.4570312,0.4570313 z m 1.0546875,4.82812496 v -0.234375 C 6.4765812,0.70468281 6.4179875,0.65780781 6.4179875,0.04843281 V -3.0570359 C 6.01955,-2.9046922 5.597675,-2.7875047 5.1406437,-2.7054734 v 0.2109375 c 0.5390625,0.09375 0.5625,0.1289062 0.5625,0.6796875 v 1.86328121 c 0,0.609375 -0.058594,0.65625 -0.6210937,0.71484375 v 0.234375 z m 1.828125,0.32519534 c -0.890625,-0.76171877 -1.40625,-2.20312502 -1.40625,-3.75 0,-1.546875 0.515625,-3 1.40625,-3.75 L 8.7383,-6.3880906 c -1.3242188,0.9023437 -1.9101563,2.3320312 -1.9101563,3.9492187 0,1.62890628 0.5859375,3.08203128 1.9101563,3.9609375 z m 1.9423833,-4.7460938 v -0.7148437 c -0.421875,0.1757812 -0.9257817,0.328125 -1.3125004,0.3984375 v 0.2109375 c 0.5625004,0.070312 0.5976564,0.09375 0.5976564,0.6796875 v 4.0664062 c 0,0.5859375 -0.08203,0.6445313 -0.6562502,0.703125 v 0.234375 H 11.594745 V 1.9205031 C 10.89162,1.8501906 10.833027,1.8033156 10.833027,1.1236281 v -1.18359372 c 0.117187,0.0703125 0.363281,0.15234375 0.621093,0.1640625 1.171875,-0.2109375 2.238282,-1.08984375 2.238282,-2.44921878 0,-0.890625 -0.597657,-1.6992187 -1.59375,-1.6992187 -0.105469,0 -0.28125,0.046875 -0.445313,0.140625 z m 0,0.3046875 c 0.246093,-0.1875 0.609375,-0.3867187 0.902343,-0.3867187 0.65625,0 1.207032,0.5390625 1.207032,1.5117187 0,1.00781253 -0.515625,1.66406253 -1.265625,1.66406253 -0.304688,0 -0.644532,-0.15234375 -0.84375,-0.3515625 z m 3.773437,1.9570313 c -0.210937,0 -0.433594,0.140625 -0.433594,0.36328123 0,0.15234375 0.07031,0.22265625 0.117188,0.234375 0.304687,0.0703125 0.5625,0.26953125 0.5625,0.59765625 0,0.33984375 -0.257813,0.57421875 -0.691406,0.76171875 l 0.09375,0.25781247 c 0.550781,-0.16406247 1.183593,-0.55078122 1.183593,-1.24218747 0,-0.6328125 -0.503906,-0.97265623 -0.832031,-0.97265623 z m 0,0"
           style="fill:#231f20;fill-opacity:1;fill-rule:nonzero;stroke:none" />
        <path
           id="path13"
           d="m 22.217792,-3.8451219 c 0.292969,0.2578125 0.503906,0.7148438 0.503906,1.3828125 -0.01172,1.0078125 -0.398437,2.05078128 -1.136718,2.05078128 -0.304688,0 -0.515625,-0.3046875 -0.492188,-0.87890628 0.02344,-0.46875 0.234375,-1.359375 0.351563,-1.7226562 l -0.05859,-0.035156 -0.667969,0.140625 c -0.03516,0.28125 -0.09375,0.75 -0.1875,1.1367188 -0.199219,0.85546873 -0.5625,1.31249998 -0.949219,1.31249998 -0.28125,0 -0.539062,-0.33984375 -0.539062,-0.99609378 0,-1.0078125 0.46875,-1.921875 1.160156,-2.4492187 l -0.140625,-0.1992188 c -1.042969,0.5390625 -1.757812,1.5585938 -1.757812,2.765625 0,0.93750003 0.421875,1.44140628 0.9375,1.44140628 0.386718,0 0.902343,-0.3984375 1.230468,-0.890625 0.04687,0.50390625 0.328125,0.890625 0.761719,0.890625 0.375,0 0.738281,-0.22265625 1.066406,-0.515625 0.5625,-0.52734375 0.996094,-1.30078128 0.996094,-2.21484378 0,-0.9023437 -0.398437,-1.4179687 -0.691406,-1.4179687 -0.152344,0 -0.316406,0.070312 -0.375,0.1289062 z m 0,0"
           style="fill:#231f20;fill-opacity:1;fill-rule:nonzero;stroke:none" />
        <path
           id="path14"
           d="m 24.010761,-6.1771531 c 0.890625,0.7382812 1.417969,2.203125 1.417969,3.75 0,1.54687498 -0.503907,2.98828123 -1.417969,3.75 l 0.164062,0.1992187 c 1.347657,-0.91406247 1.898438,-2.33203122 1.898438,-3.9492187 0,-1.6289063 -0.550781,-3.0585938 -1.898438,-3.9609375 z m 0,0"
           style="fill:#231f20;fill-opacity:1;fill-rule:nonzero;stroke:none" />
      </g>
      <path
         id="path15"
         d="M 1256.66,305 H 2338.4"
         style="fill:none;stroke:#231f20;stroke-width:5;stroke-linecap:butt;stroke-linejoin:miter;stroke-miterlimit:10;stroke-dasharray:none;stroke-opacity:1"
         transform="matrix(0.13333333,0,0,-0.13333333,0,138.08)" />
      <path
         id="path16"
         d="m 1818.91,303.582 c 0,-8.285 -6.72,-14.992 -15,-14.992 -8.28,0 -15,6.707 -15,14.992 0,8.281 6.72,14.996 15,14.996 8.28,0 15,-6.715 15,-14.996"
         style="fill:#231f20;fill-opacity:1;fill-rule:nonzero;stroke:none"
         transform="matrix(0.13333333,0,0,-0.13333333,0,138.08)" />
      <path
         id="path17"
         d="m 1.5238906,-3.4225219 v -0.7148437 c -0.421875,0.1757812 -0.92578122,0.328125 -1.31249997,0.3984375 v 0.2109375 c 0.5625,0.070312 0.59765625,0.09375 0.59765625,0.6796875 v 4.0664062 c 0,0.5859375 -0.0820313,0.6445313 -0.65625,0.703125 v 0.234375 H 2.2856094 V 1.9212281 C 1.5824844,1.8509156 1.5238906,1.8040406 1.5238906,1.1243531 v -1.18359372 c 0.1171875,0.0703125 0.3632813,0.15234375 0.6210938,0.1640625 1.171875,-0.2109375 2.2382812,-1.08984375 2.2382812,-2.44921878 0,-0.890625 -0.5976562,-1.6992187 -1.59375,-1.6992187 -0.1054687,0 -0.28125,0.046875 -0.4453125,0.140625 z m 0,0.3046875 c 0.2460938,-0.1875 0.609375,-0.3867187 0.9023438,-0.3867187 0.65625,0 1.2070312,0.5390625 1.2070312,1.5117187 0,1.00781253 -0.515625,1.66406253 -1.265625,1.66406253 -0.3046875,0 -0.6445312,-0.15234375 -0.84375,-0.3515625 z m 0,0"
         style="fill:#231f20;fill-opacity:1;fill-rule:nonzero;stroke:none"
         aria-label="p"
         transform="matrix(1.3333333,0,0,1.3333333,236.08533,111.8368)" />
      <path
         id="path18"
         d="M 1803.91,307.348 1976.55,657.68"
         style="fill:none;stroke:#231f20;stroke-width:7.5;stroke-linecap:butt;stroke-linejoin:miter;stroke-miterlimit:10;stroke-dasharray:none;stroke-opacity:1"
         transform="matrix(0.13333333,0,0,-0.13333333,0,138.08)" />
      <path
         id="path19"
         d="m 1971.79,648.02 -25.2,-2.235 -0.12,0.875 28.15,25.434 c 7.85,9.82 15.7,19.644 23.55,29.461 -3,-12.211 -6.01,-24.418 -9.01,-36.629 l -3.03,-37.809 -0.65,-0.504 -13.69,21.407"
         style="fill:#231f20;fill-opacity:1;fill-rule:nonzero;stroke:none"
         transform="matrix(0.13333333,0,0,-0.13333333,0,138.08)" />
      <g
         id="g19"
         aria-label="L&#10;o&#10;(p, ω)"
         transform="matrix(1.3333333,0,0,1.3333333,219.69467,55.650267)">
        <path
           id="path20"
           d="m 4.3598594,-1.5013719 c -0.234375,0.4453125 -0.4335938,0.71484378 -0.6328125,0.91406253 -0.2226563,0.22265625 -0.5273438,0.26953125 -1.0546875,0.26953125 -0.3984375,0 -0.6796875,-0.0117188 -0.8085938,-0.1171875 -0.140625,-0.10546875 -0.1640625,-0.31640625 -0.09375,-0.64453128 l 0.703125,-3.7265625 c 0.1289063,-0.6796875 0.1640625,-0.7382812 0.8789063,-0.796875 l 0.058594,-0.234375 h -2.25 l -0.058594,0.234375 c 0.7382812,0.070312 0.7851562,0.1054688 0.6445312,0.796875 L 1.0082969,-1.0443406 C 0.86767188,-0.36465312 0.80907813,-0.29434062 0.11767188,-0.24746562 L 0.05907813,-0.00137187 H 4.0317344 c 0.140625,-0.28125 0.46875,-1.10156253 0.5742187,-1.40625003 z m 0,0"
           style="fill:#231f20;fill-opacity:1;fill-rule:nonzero;stroke:none" />
        <path
           id="path21"
           d="m 7.0991172,-3.0453172 c -0.8203125,0 -1.9804688,0.6796875 -1.9804688,2.15625001 0,1.0078125 0.7382813,1.99218749 1.9804688,1.99218749 0.890625,0 1.9453125,-0.69140624 1.9453125,-2.1445312 0,-1.1132813 -0.8320313,-2.0039063 -1.9453125,-2.0039063 z m -0.09375,0.3046875 c 0.7851562,0 1.2070312,0.84375 1.2070312,1.89843751 0,1.2421875 -0.4570312,1.65234375 -1.0195312,1.65234375 -0.7382813,0 -1.2304688,-0.84375 -1.2304688,-1.98046876 0,-1.0195312 0.4804688,-1.5703125 1.0429688,-1.5703125 z m 3.1552738,4.0634766 c -0.8906254,-0.76171877 -1.4062504,-2.20312502 -1.4062504,-3.75 0,-1.546875 0.515625,-3 1.4062504,-3.75 l -0.152344,-0.2109375 c -1.3242189,0.9023437 -1.9101564,2.3320312 -1.9101564,3.9492187 0,1.62890628 0.5859375,3.08203128 1.9101564,3.9609375 z m 1.939453,-4.7460938 v -0.7148437 c -0.421875,0.1757812 -0.925781,0.328125 -1.3125,0.3984375 v 0.2109375 c 0.5625,0.070312 0.597656,0.09375 0.597656,0.6796875 v 4.0664062 c 0,0.5859375 -0.08203,0.6445313 -0.65625,0.703125 v 0.234375 h 2.132813 V 1.9205031 C 12.158688,1.8501906 12.100094,1.8033156 12.100094,1.1236281 v -1.18359372 c 0.117187,0.0703125 0.363281,0.15234375 0.621094,0.1640625 1.171875,-0.2109375 2.238281,-1.08984375 2.238281,-2.44921878 0,-0.890625 -0.597656,-1.6992187 -1.59375,-1.6992187 -0.105469,0 -0.28125,0.046875 -0.445313,0.140625 z m 0,0.3046875 c 0.246094,-0.1875 0.609375,-0.3867187 0.902344,-0.3867187 0.65625,0 1.207031,0.5390625 1.207031,1.5117187 0,1.00781253 -0.515625,1.66406253 -1.265625,1.66406253 -0.304688,0 -0.644531,-0.15234375 -0.84375,-0.3515625 z m 3.776367,1.9570313 c -0.210938,0 -0.433594,0.140625 -0.433594,0.36328123 0,0.15234375 0.07031,0.22265625 0.117188,0.234375 0.304687,0.0703125 0.5625,0.26953125 0.5625,0.59765625 0,0.33984375 -0.257813,0.57421875 -0.691407,0.76171875 l 0.09375,0.25781247 c 0.550782,-0.16406247 1.183594,-0.55078122 1.183594,-1.24218747 0,-0.6328125 -0.503906,-0.97265623 -0.832031,-0.97265623 z m 0,0"
           style="fill:#231f20;fill-opacity:1;fill-rule:nonzero;stroke:none" />
        <path
           id="path22"
           d="m 23.487789,-3.8451219 c 0.292969,0.2578125 0.503906,0.7148438 0.503906,1.3828125 -0.01172,1.0078125 -0.398437,2.05078128 -1.136718,2.05078128 -0.304688,0 -0.515625,-0.3046875 -0.492188,-0.87890628 0.02344,-0.46875 0.234375,-1.359375 0.351563,-1.7226562 l -0.05859,-0.035156 -0.667969,0.140625 c -0.03516,0.28125 -0.09375,0.75 -0.1875,1.1367188 -0.199219,0.85546873 -0.5625,1.31249998 -0.949219,1.31249998 -0.28125,0 -0.539062,-0.33984375 -0.539062,-0.99609378 0,-1.0078125 0.46875,-1.921875 1.160156,-2.4492187 l -0.140625,-0.1992188 c -1.042969,0.5390625 -1.757812,1.5585938 -1.757812,2.765625 0,0.93750003 0.421875,1.44140628 0.9375,1.44140628 0.386718,0 0.902343,-0.3984375 1.230468,-0.890625 0.04687,0.50390625 0.328125,0.890625 0.761719,0.890625 0.375,0 0.738281,-0.22265625 1.066406,-0.515625 0.5625,-0.52734375 0.996094,-1.30078128 0.996094,-2.21484378 0,-0.9023437 -0.398437,-1.4179687 -0.691406,-1.4179687 -0.152344,0 -0.316406,0.070312 -0.375,0.1289062 z m 0,0"
           style="fill:#231f20;fill-opacity:1;fill-rule:nonzero;stroke:none" />
        <path
           id="path23"
           d="m 25.280758,-6.1771531 c 0.890625,0.7382812 1.417969,2.203125 1.417969,3.75 0,1.54687498 -0.503907,2.98828123 -1.417969,3.75 l 0.164062,0.1992187 c 1.347657,-0.91406247 1.898438,-2.33203122 1.898438,-3.9492187 0,-1.6289063 -0.550781,-3.0585938 -1.898438,-3.9609375 z m 0,0"
           style="fill:#231f20;fill-opacity:1;fill-rule:nonzero;stroke:none" />
      </g>
      <path
         id="path24"
         d="m 438.395,1028.56 5.652,-21.96 10.109,20.3 0.965,-22.65 14.102,17.75 -3.75,-22.363 17.48,14.443 -8.328,-21.1 20.117,10.5 -12.539,-18.91 21.856,6.078 -16.192,-15.882 22.637,1.398 -19.133,-12.172 22.434,-3.336 -21.25,-7.922 21.25,-7.929 -22.434,-3.336 19.133,-12.172 -22.637,1.406 16.192,-15.887 -21.856,6.075 12.539,-18.899 -20.117,10.488 8.328,-21.093 -17.48,14.437 3.75,-22.367 -14.102,17.758 -0.965,-22.656 -10.109,20.308 -5.652,-21.969 -5.676,21.969 -10.098,-20.308 -0.976,22.656 -14.11,-17.758 3.77,22.367 -17.492,-14.437 8.332,21.093 -20.11,-10.488 12.531,18.899 -21.847,-6.075 16.183,15.887 -22.636,-1.406 19.14,12.172 -22.433,3.336 21.242,7.929 -21.242,7.922 22.433,3.336 -19.14,12.172 22.636,-1.398 -16.183,15.882 21.847,-6.078 -12.531,18.91 20.11,-10.5 -8.332,21.1 17.492,-14.443 -3.77,22.363 14.11,-17.75 0.976,22.65 10.098,-20.3 5.676,21.96"
         style="fill:#fddd1b;fill-opacity:1;fill-rule:nonzero;stroke:none"
         transform="matrix(0.13333333,0,0,-0.13333333,0,138.08)" />
      <path
         id="path25"
         d="m 438.395,1028.56 5.652,-21.96 10.109,20.3 0.965,-22.65 14.102,17.75 -3.75,-22.363 17.48,14.443 -8.328,-21.1 20.117,10.5 -12.539,-18.91 21.856,6.078 -16.192,-15.882 22.637,1.398 -19.133,-12.172 22.434,-3.336 -21.25,-7.922 21.25,-7.929 -22.434,-3.336 19.133,-12.172 -22.637,1.406 16.192,-15.887 -21.856,6.075 12.539,-18.899 -20.117,10.488 8.328,-21.093 -17.48,14.437 3.75,-22.367 -14.102,17.758 -0.965,-22.656 -10.109,20.308 -5.652,-21.969 -5.676,21.969 -10.098,-20.308 -0.976,22.656 -14.11,-17.758 3.77,22.367 -17.492,-14.437 8.332,21.093 -20.11,-10.488 12.531,18.899 -21.847,-6.075 16.183,15.887 -22.636,-1.406 19.14,12.172 -22.433,3.336 21.242,7.929 -21.242,7.922 22.433,3.336 -19.14,12.172 22.636,-1.398 -16.183,15.882 21.847,-6.078 -12.531,18.91 20.11,-10.5 -8.332,21.1 17.492,-14.443 -3.77,22.363 14.11,-17.75 0.976,22.65 10.098,-20.3 z"
         style="fill:none;stroke:#231f20;stroke-width:3.5;stroke-linecap:butt;stroke-linejoin:miter;stroke-miterlimit:7;stroke-dasharray:none;stroke-opacity:1"
         transform="matrix(0.13333333,0,0,-0.13333333,0,138.08)" />
      <path
         id="path26"
         d="m 2.6952781,1.3235981 c -0.890625,-0.76171872 -1.40625,-2.20312497 -1.40625,-3.75 0,-1.546875 0.515625,-3 1.40625,-3.75 L 2.5429344,-6.3873394 c -1.3242188,0.9023438 -1.91015627,2.3320313 -1.91015627,3.9492188 0,1.62890623 0.58593747,3.08203123 1.91015627,3.9609375 z m 4.3212891,-1.67578122 -0.09375,-0.234375 c -0.09375,0.0585938 -0.2226563,0.10546875 -0.328125,0.10546875 -0.1523438,0 -0.3164063,-0.140625 -0.3164063,-0.55078123 v -1.6640625 c 0,-0.46875 -0.082031,-0.84375 -0.3984375,-1.1015625 -0.1992187,-0.1640625 -0.46875,-0.2460938 -0.7382812,-0.2460938 -0.515625,0.1054688 -1.1015625,0.4570313 -1.3476563,0.6328125 -0.1757812,0.1289063 -0.2929687,0.2226563 -0.2929687,0.3632813 0,0.1992187 0.234375,0.3867187 0.3984375,0.3867187 0.1289062,0 0.2226562,-0.070312 0.2578125,-0.2109375 0.070312,-0.28125 0.1523437,-0.4804687 0.2695312,-0.5976562 0.09375,-0.1054688 0.2226563,-0.1757813 0.4101563,-0.1757813 0.4453125,0 0.75,0.3632813 0.75,1.0195313 v 0.1640625 c -0.1992188,0.1523437 -0.8554688,0.3984375 -1.3945313,0.5742187 -0.4921875,0.1757813 -0.7265625,0.4570313 -0.7265625,0.90234378 0,0.5625 0.4453125,1.08984375 1.078125,1.08984375 0.2695313,0 0.703125,-0.328125 1.0664063,-0.57421875 0.046875,0.15234375 0.09375,0.28125 0.2109375,0.41015625 0.1054687,0.08203125 0.2929687,0.1640625 0.421875,0.1640625 z M 5.5868797,-0.76233937 c -0.1640625,0.1640625 -0.4804688,0.31640625 -0.7148438,0.328125 -0.28125,0 -0.6445312,-0.22265625 -0.6445312,-0.69140623 0,-0.328125 0.1992187,-0.4921875 0.5507812,-0.65625 0.1875,-0.09375 0.6210938,-0.28125 0.8085938,-0.375 z M 7.4765281,-6.1764019 c 0.890625,0.7382813 1.4179688,2.203125 1.4179688,3.75 0,1.54687503 -0.5039063,2.98828128 -1.4179688,3.75 l 0.1640625,0.1992188 c 1.3476563,-0.91406252 1.8984375,-2.33203127 1.8984375,-3.9492188 0,-1.6289062 -0.5507812,-3.0585937 -1.8984375,-3.9609375 z M 128.05075,-0.45472219 c -0.89063,-0.76171871 -1.40625,-2.20312501 -1.40625,-3.75000001 0,-1.546875 0.51562,-3 1.40625,-3.75 l -0.15235,-0.2109375 c -1.32422,0.9023438 -1.91015,2.3320313 -1.91015,3.9492188 0,1.6289062 0.58593,3.0820312 1.91015,3.96093746 z m 1.79004,-4.95703121 v -2.7773438 c -0.33985,0.1171875 -0.89063,0.2578125 -1.3125,0.3164063 v 0.2109375 c 0.58593,0.046875 0.59765,0.1054687 0.59765,0.6679687 v 5.0039063 c 0.49219,0.234375 0.94922,0.3164062 1.32422,0.3164062 1.20703,0 2.26172,-0.9375 2.26172,-2.2617187 0,-1.0546875 -0.80859,-1.8867188 -1.78125,-1.8867188 -0.0937,0 -0.22266,0.023437 -0.36328,0.09375 z m 0,0.2695312 c 0.16406,-0.1054687 0.44531,-0.1757812 0.70312,-0.1757812 0.73828,0 1.37109,0.5976562 1.37109,1.6171875 0,1.0546875 -0.48046,1.6875 -1.21875,1.6875 -0.48046,-0.011719 -0.75,-0.328125 -0.80859,-0.5039063 -0.0352,-0.082031 -0.0469,-0.1757812 -0.0469,-0.3046875 z m 3.60937,-2.8125 c 0.89063,0.7382813 1.41797,2.203125 1.41797,3.75 0,1.546875 -0.50391,2.9882813 -1.41797,3.75000001 l 0.16406,0.19921875 c 1.34766,-0.91406246 1.89844,-2.33203126 1.89844,-3.94921876 0,-1.6289062 -0.55078,-3.0585937 -1.89844,-3.9609375 z m 0,0"
         style="fill:#231f20;fill-opacity:1;fill-rule:nonzero;stroke:none"
         aria-label="(a)&#10;(b)"
         transform="matrix(1.3333333,0,0,1.3333333,66.179733,133.75864)" />
    </g>
  </g>
</svg>
