<?xml version="1.0" encoding="UTF-8" standalone="no"?>
<!-- Created with Inkscape (http://www.inkscape.org/) -->

<svg
   version="1.1"
   id="svg1"
   width="255.54668"
   height="164.65334"
   viewBox="0 0 255.54668 164.65334"
   sodipodi:docname="pha04f28.eps"
   xmlns:inkscape="http://www.inkscape.org/namespaces/inkscape"
   xmlns:sodipodi="http://sodipodi.sourceforge.net/DTD/sodipodi-0.dtd"
   xmlns="http://www.w3.org/2000/svg"
   xmlns:svg="http://www.w3.org/2000/svg">
  <defs
     id="defs1" />
  <sodipodi:namedview
     id="namedview1"
     pagecolor="#ffffff"
     bordercolor="#000000"
     borderopacity="0.25"
     inkscape:showpageshadow="2"
     inkscape:pageopacity="0.0"
     inkscape:pagecheckerboard="0"
     inkscape:deskcolor="#d1d1d1">
    <inkscape:page
       x="0"
       y="0"
       inkscape:label="1"
       id="page1"
       width="255.54668"
       height="164.65334"
       margin="0"
       bleed="0" />
  </sodipodi:namedview>
  <g
     id="g1"
     inkscape:groupmode="layer"
     inkscape:label="1">
    <g
       id="group-R5">
      <path
         id="path2"
         d="M 312.449,245.918 V 1234.9"
         style="fill:none;stroke:#231f20;stroke-width:5;stroke-linecap:butt;stroke-linejoin:miter;stroke-miterlimit:3.25;stroke-dasharray:none;stroke-opacity:1"
         transform="matrix(0.13333333,0,0,-0.13333333,0,164.65333)" />
      <path
         id="path3"
         d="m 2.1574438,-5.7196875 c -1.3476563,0 -1.8398438,1.6054687 -1.8398438,2.9179687 0,1.4179688 0.48046875,2.90625005 1.8398438,2.90625005 1.359375,0 1.828125,-1.59375005 1.828125,-2.91796875 0,-1.3828125 -0.46875,-2.90625 -1.828125,-2.90625 z m 0,0.3046875 c 0.8085937,0 1.03125,1.3242187 1.03125,2.6015625 0,1.265625 -0.2226563,2.61328125 -1.03125,2.61328125 -0.7734375,0 -1.0429688,-1.35937505 -1.0429688,-2.61328125 0,-1.2539063 0.2226563,-2.6015625 1.0429688,-2.6015625 z m 3.1933593,5.51953125 c 0.28125,0 0.5039063,-0.19921875 0.5039063,-0.515625 0,-0.29296875 -0.2226563,-0.515625 -0.5039063,-0.515625 -0.2929687,0 -0.5039062,0.22265625 -0.5039062,0.515625 0,0.31640625 0.2109375,0.515625 0.5039062,0.515625 z M 7.7443578,-4.94625 H 9.8420141 L 10.076389,-5.5321875 10.017795,-5.6025 H 7.4513891 l -0.3515625,2.7421875 c 0.2109375,-0.082031 0.5507812,-0.1875 0.9257812,-0.1875 0.984375,0 1.4648438,0.5742187 1.4648438,1.359375 0,0.6796875 -0.375,1.3359375 -1.1367188,1.3359375 -0.5507812,0 -0.9140625,-0.29296875 -1.1132812,-0.45703125 -0.082031,-0.0703125 -0.1523438,-0.0585938 -0.234375,0 -0.1054688,0.09375 -0.1875,0.2109375 -0.1875,0.29296875 -0.023437,0.10546875 0.023437,0.1875 0.140625,0.3046875 0.1289062,0.12890625 0.515625,0.31640625 0.9257812,0.31640625 C 8.3654516,0.0928125 8.9631078,-0.1415625 9.4552953,-0.52828125 10.006077,-0.9853125 10.25217,-1.4892188 10.25217,-2.04 c 0,-0.7382813 -0.5859372,-1.5117188 -1.7343747,-1.5117188 -0.2460937,0 -0.6679687,0.140625 -1.0078125,0.2695313 z m 5.1035152,-0.7734375 c -1.347656,0 -1.839843,1.6054687 -1.839843,2.9179687 0,1.4179688 0.480468,2.90625005 1.839843,2.90625005 1.359375,0 1.828125,-1.59375005 1.828125,-2.91796875 0,-1.3828125 -0.46875,-2.90625 -1.828125,-2.90625 z m 0,0.3046875 c 0.808594,0 1.03125,1.3242187 1.03125,2.6015625 0,1.265625 -0.222656,2.61328125 -1.03125,2.61328125 -0.773437,0 -1.042968,-1.35937505 -1.042968,-2.61328125 0,-1.2539063 0.222656,-2.6015625 1.042968,-2.6015625 z M 2.1574438,35.492227 c -1.3476563,0 -1.8398438,1.605468 -1.8398438,2.917968 0,1.417969 0.48046875,2.90625 1.8398438,2.90625 1.359375,0 1.828125,-1.59375 1.828125,-2.917968 0,-1.382813 -0.46875,-2.90625 -1.828125,-2.90625 z m 0,0.304687 c 0.8085937,0 1.03125,1.324219 1.03125,2.601563 0,1.265625 -0.2226563,2.613281 -1.03125,2.613281 -0.7734375,0 -1.0429688,-1.359375 -1.0429688,-2.613281 0,-1.253907 0.2226563,-2.601563 1.0429688,-2.601563 z m 3.1933593,5.519531 c 0.28125,0 0.5039063,-0.199218 0.5039063,-0.515625 0,-0.292968 -0.2226563,-0.515625 -0.5039063,-0.515625 -0.2929687,0 -0.5039062,0.222657 -0.5039062,0.515625 0,0.316407 0.2109375,0.515625 0.5039062,0.515625 z M 10.076389,39.945352 C 9.8068578,40.51957 9.6896703,40.554727 9.2092016,40.554727 h -1.6875 l 1.2773437,-1.335938 c 0.8320313,-0.890625 1.1953125,-1.417969 1.1953125,-2.203125 0,-0.949219 -0.7265625,-1.523437 -1.5117187,-1.523437 -0.5273438,0 -0.9492188,0.234375 -1.21875,0.539062 l -0.515625,0.726563 0.1992187,0.175781 c 0.234375,-0.351563 0.609375,-0.832031 1.2304688,-0.832031 0.65625,0 1.0546875,0.433593 1.0546875,1.195312 0,0.773438 -0.5625,1.511719 -1.125,2.179688 -0.4453125,0.515625 -0.9492188,1.03125 -1.453125,1.523437 v 0.210938 h 3.3632809 c 0.105469,-0.410157 0.199219,-0.796875 0.316407,-1.183594 z m 1.986328,-3.679688 h 2.097656 l 0.234375,-0.585937 -0.05859,-0.07031 h -2.566407 l -0.351562,2.742188 c 0.210937,-0.08203 0.550781,-0.1875 0.925781,-0.1875 0.984375,0 1.464844,0.574218 1.464844,1.359375 0,0.679687 -0.375,1.335937 -1.136719,1.335937 -0.550781,0 -0.914062,-0.292969 -1.113281,-0.457031 -0.08203,-0.07031 -0.152344,-0.05859 -0.234375,0 -0.105469,0.09375 -0.1875,0.210937 -0.1875,0.292969 -0.02344,0.105468 0.02344,0.1875 0.140625,0.304687 0.128906,0.128906 0.515625,0.316406 0.925781,0.316406 0.480469,-0.01172 1.078125,-0.246093 1.570313,-0.632812 0.550781,-0.457031 0.796875,-0.960938 0.796875,-1.511719 0,-0.738281 -0.585938,-1.511719 -1.734375,-1.511719 -0.246094,0 -0.667969,0.140625 -1.007813,0.269532 z m 14.452149,53.463867 v -0.421875 h -0.867188 v -3.65625 h -0.351562 c -0.925782,1.21875 -1.851563,2.554688 -2.707032,3.832031 v 0.246094 h 2.34375 v 0.65625 c 0,0.585938 -0.03516,0.644531 -0.820312,0.703125 V 91.335 h 2.308594 v -0.246094 c -0.726563,-0.05859 -0.773438,-0.105469 -0.773438,-0.703125 v -0.65625 z m -1.582032,-0.421875 h -1.769531 c 0.585938,-0.996094 1.171875,-1.851562 1.757813,-2.648437 h 0.01172 z m 3.958008,-3.691406 c -1.347656,0 -1.839844,1.605469 -1.839844,2.917969 0,1.417968 0.480469,2.90625 1.839844,2.90625 1.359375,0 1.828125,-1.59375 1.828125,-2.917969 0,-1.382813 -0.46875,-2.90625 -1.828125,-2.90625 z m 0,0.304687 c 0.808594,0 1.03125,1.324219 1.03125,2.601563 0,1.265625 -0.222656,2.613281 -1.03125,2.613281 -0.773437,0 -1.042969,-1.359375 -1.042969,-2.613281 0,-1.253906 0.222657,-2.601563 1.042969,-2.601563 z m 4.321289,-0.304687 c -1.347656,0 -1.839844,1.605469 -1.839844,2.917969 0,1.417968 0.480469,2.90625 1.839844,2.90625 1.359375,0 1.828125,-1.59375 1.828125,-2.917969 0,-1.382813 -0.46875,-2.90625 -1.828125,-2.90625 z m 0,0.304687 c 0.808594,0 1.03125,1.324219 1.03125,2.601563 0,1.265625 -0.222656,2.613281 -1.03125,2.613281 -0.773437,0 -1.042969,-1.359375 -1.042969,-2.613281 0,-1.253906 0.222657,-2.601563 1.042969,-2.601563 z m 36.292969,0.46875 h 2.097656 l 0.234375,-0.585937 -0.05859,-0.07031 h -2.566406 l -0.351562,2.742188 c 0.210937,-0.08203 0.550781,-0.1875 0.925781,-0.1875 0.984375,0 1.464844,0.574219 1.464844,1.359375 0,0.679687 -0.375,1.335937 -1.136719,1.335937 -0.550781,0 -0.914063,-0.292968 -1.113281,-0.457031 -0.08203,-0.07031 -0.152344,-0.05859 -0.234375,0 -0.105469,0.09375 -0.1875,0.210938 -0.1875,0.292969 -0.02344,0.105469 0.02344,0.1875 0.140625,0.304687 0.128906,0.128907 0.515625,0.316407 0.925781,0.316407 0.480469,-0.01172 1.078125,-0.246094 1.570312,-0.632813 0.550782,-0.457031 0.796875,-0.960937 0.796875,-1.511719 0,-0.738281 -0.585937,-1.511718 -1.734375,-1.511718 -0.246093,0 -0.667968,0.140625 -1.007812,0.269531 z m 5.103516,-0.773437 c -1.347657,0 -1.839844,1.605469 -1.839844,2.917969 0,1.417968 0.480469,2.90625 1.839844,2.90625 1.359375,0 1.828125,-1.59375 1.828125,-2.917969 0,-1.382813 -0.46875,-2.90625 -1.828125,-2.90625 z m 0,0.304687 c 0.808593,0 1.03125,1.324219 1.03125,2.601563 0,1.265625 -0.222657,2.613281 -1.03125,2.613281 -0.773438,0 -1.042969,-1.359375 -1.042969,-2.613281 0,-1.253906 0.222656,-2.601563 1.042969,-2.601563 z m 4.321289,-0.304687 c -1.347657,0 -1.839844,1.605469 -1.839844,2.917969 0,1.417968 0.480469,2.90625 1.839844,2.90625 1.359375,0 1.828125,-1.59375 1.828125,-2.917969 0,-1.382813 -0.46875,-2.90625 -1.828125,-2.90625 z m 0,0.304687 c 0.808593,0 1.03125,1.324219 1.03125,2.601563 0,1.265625 -0.222657,2.613281 -1.03125,2.613281 -0.773438,0 -1.042969,-1.359375 -1.042969,-2.613281 0,-1.253906 0.222656,-2.601563 1.042969,-2.601563 z m 36.158205,2.332032 c 0.26953,-1.253907 1.11328,-1.828125 1.66406,-2.085938 0.32813,-0.152344 0.67969,-0.257812 0.97266,-0.316406 l -0.0586,-0.28125 c -0.36328,0.05859 -0.79687,0.164062 -1.14843,0.28125 -0.96094,0.351562 -2.33204,1.371094 -2.33204,3.339844 0,1.382812 0.79688,2.25 1.85157,2.25 1.07812,0 1.83984,-0.902344 1.83984,-1.980469 0,-0.925781 -0.65625,-1.664063 -1.61719,-1.664063 -0.17578,0 -0.36328,0.07031 -0.5625,0.152344 z m 0.82031,0.04687 c 0.82031,0 1.19531,0.738281 1.19531,1.488281 0,0.597656 -0.21093,1.347656 -0.91406,1.347656 -0.73828,0 -1.19531,-0.878906 -1.19531,-1.957031 0,-0.234375 0.0117,-0.457031 0.0469,-0.621094 0.22266,-0.117187 0.52735,-0.257812 0.86719,-0.257812 z m 4.42383,-2.683594 c -1.34766,0 -1.83985,1.605469 -1.83985,2.917969 0,1.417968 0.48047,2.90625 1.83985,2.90625 1.35937,0 1.82812,-1.59375 1.82812,-2.917969 0,-1.382813 -0.46875,-2.90625 -1.82812,-2.90625 z m 0,0.304687 c 0.80859,0 1.03125,1.324219 1.03125,2.601563 0,1.265625 -0.22266,2.613281 -1.03125,2.613281 -0.77344,0 -1.04297,-1.359375 -1.04297,-2.613281 0,-1.253906 0.22266,-2.601563 1.04297,-2.601563 z m 4.32129,-0.304687 c -1.34766,0 -1.83985,1.605469 -1.83985,2.917969 0,1.417968 0.48047,2.90625 1.83985,2.90625 1.35937,0 1.82812,-1.59375 1.82812,-2.917969 0,-1.382813 -0.46875,-2.90625 -1.82812,-2.90625 z m 0,0.304687 c 0.80859,0 1.03125,1.324219 1.03125,2.601563 0,1.265625 -0.22266,2.613281 -1.03125,2.613281 -0.77344,0 -1.04297,-1.359375 -1.04297,-2.613281 0,-1.253906 0.22266,-2.601563 1.04297,-2.601563 z m 0,0"
         style="fill:#231f20;fill-opacity:1;fill-rule:nonzero;stroke:none"
         aria-label="0.50&#10;0.25&#10;400500600"
         transform="matrix(1.3333333,0,0,1.3333333,15.326533,25.22)" />
      <path
         id="path4"
         d="M 5.6837438,-0.16484437 C 5.484525,-0.21171937 5.2735875,-0.31718812 5.0274938,-0.58671937 4.8165563,-0.82109437 4.6290563,-1.0554694 4.3009313,-1.5242194 4.0314,-1.9226569 3.6564,-2.5320319 3.5040563,-2.8250006 4.172025,-3.1179694 4.640775,-3.5867194 4.640775,-4.3601569 4.640775,-4.9109381 4.4064,-5.3093756 4.0548375,-5.5437506 3.703275,-5.7664069 3.2696813,-5.8484381 2.6134313,-5.8484381 H 0.37515 v 0.2460937 c 0.703125,0.070312 0.7734375,0.09375 0.7734375,0.8554688 v 3.6210937 c 0,0.76171878 -0.082031,0.82031253 -0.8203125,0.86718753 V -7.81875e-4 H 2.6954625 V -0.25859437 c -0.7148437,-0.046875 -0.796875,-0.10546875 -0.796875,-0.86718753 v -1.4296875 h 0.2929688 c 0.46875,0 0.6210937,0.1054688 0.7734375,0.3632813 0.2695312,0.4335937 0.5859375,0.9960937 0.9023437,1.42968748 0.4101563,0.5859375 0.7851563,0.78515625 1.4648438,0.8203125 C 5.43765,0.06953063 5.5314,0.06953063 5.6485875,0.06953063 Z M 1.8985875,-2.8484381 v -2.2148438 c 0,-0.2460937 0.035156,-0.3515625 0.09375,-0.3984375 0.082031,-0.058594 0.234375,-0.09375 0.4921875,-0.09375 0.6796875,0 1.3242188,0.3632813 1.3242188,1.3359375 0,0.4804688 -0.140625,0.84375 -0.4921875,1.1132813 -0.234375,0.1757812 -0.5273438,0.2578125 -0.984375,0.2578125 z m 7.1279297,1.89843748 c -0.328125,0.3046875 -0.6679688,0.4453125 -1.0195313,0.4453125 -0.6328125,0 -1.3359375,-0.50390628 -1.3476562,-1.72265628 1.0664062,-0.046875 2.1914062,-0.1289062 2.3554687,-0.1640625 0.1523438,-0.035156 0.1992188,-0.1054687 0.1992188,-0.28125 0,-0.703125 -0.5976563,-1.3710937 -1.3476563,-1.3710937 -0.46875,0 -0.9492187,0.2460937 -1.3242187,0.65625 -0.3632813,0.4101562 -0.5976563,0.9609375 -0.5976563,1.5820312 0,1.00781253 0.65625,1.91015628 1.7578125,1.91015628 0.28125,0 0.9023438,-0.1640625 1.4648438,-0.8671875 z M 7.6554234,-3.7039069 c 0.4921875,0 0.796875,0.421875 0.7851563,0.890625 0,0.1289063 -0.046875,0.1875 -0.2109375,0.1875 -0.5273438,0.011719 -1.0195313,0.023437 -1.5234375,0.023437 0.1289062,-0.7265625 0.5273437,-1.1015625 0.9492187,-1.101562 z M 14.115384,-7.81875e-4 V -0.23515687 c -0.585937,-0.0585938 -0.65625,-0.10546875 -0.65625,-0.66796875 V -6.3406256 l -0.07031,-0.046875 c -0.128906,0.070312 -0.257813,0.1523437 -0.398438,0.1875 -0.1875,-0.1171875 -0.46875,-0.2109375 -0.738281,-0.2109375 -0.375,0.046875 -0.714844,0.1875 -1.054687,0.46875 -0.492188,0.4101562 -0.65625,0.8085937 -0.726563,1.0429687 -0.08203,0.1992188 -0.117187,0.4453125 -0.117187,0.8085938 v 0.1523437 H 9.9200719 l -0.234375,0.2578125 0.035156,0.09375 h 0.6328131 v 2.68359378 c 0,0.5625 -0.05859,0.609375 -0.6328131,0.66796875 V -7.81875e-4 H 11.666166 V -0.23515687 c -0.550782,-0.0585938 -0.609375,-0.10546875 -0.609375,-0.66796875 V -3.5867194 h 0.960937 c 0.105469,-0.046875 0.140625,-0.2695312 0.09375,-0.3515625 h -1.054687 v -0.46875 c 0,-0.6796875 0.128906,-1.078125 0.28125,-1.2773437 0.140625,-0.1875 0.328125,-0.3164063 0.609375,-0.3164063 0.328125,0 0.65625,0.1640625 0.808593,0.3984375 v 4.69921878 c 0,0.5625 -0.07031,0.62109375 -0.585937,0.66796875 v 0.234374995 z m 3.533204,-0.949218745 c -0.328125,0.3046875 -0.667969,0.4453125 -1.019532,0.4453125 -0.632812,0 -1.335937,-0.50390628 -1.347656,-1.72265628 1.066406,-0.046875 2.191406,-0.1289062 2.355469,-0.1640625 0.152344,-0.035156 0.199219,-0.1054687 0.199219,-0.28125 0,-0.703125 -0.597657,-1.3710937 -1.347657,-1.3710937 -0.46875,0 -0.949218,0.2460937 -1.324218,0.65625 -0.363282,0.4101562 -0.597657,0.9609375 -0.597657,1.5820312 0,1.00781253 0.65625,1.91015628 1.757813,1.91015628 0.28125,0 0.902344,-0.1640625 1.464844,-0.8671875 z M 16.277494,-3.7039069 c 0.492187,0 0.796875,0.421875 0.785156,0.890625 0,0.1289063 -0.04687,0.1875 -0.210937,0.1875 -0.527344,0.011719 -1.019532,0.023437 -1.523438,0.023437 0.128906,-0.7265625 0.527344,-1.1015625 0.949219,-1.101562 z m 5.346679,2.70703128 c -0.410156,0.38671875 -0.703125,0.4921875 -1.089843,0.4921875 -0.503907,0 -1.359375,-0.41015625 -1.359375,-1.66406248 0,-0.9492188 0.515625,-1.4414063 1.113281,-1.4414063 0.316406,0 0.632812,0.1171875 0.902344,0.375 0.08203,0.070312 0.117187,0.09375 0.164062,0.09375 0.105469,0 0.304688,-0.1992187 0.304688,-0.3867187 0,-0.1054688 -0.03516,-0.1757813 -0.152344,-0.28125 -0.140625,-0.1171875 -0.433594,-0.234375 -0.796875,-0.234375 -0.351563,0 -0.890625,0.140625 -1.359375,0.5039062 -0.597656,0.46875 -0.902344,1.078125 -0.902344,1.7695313 0,0.96093748 0.667969,1.87499998 1.804688,1.87499998 0.527343,0 1.136718,-0.3984375 1.523437,-0.9140625 z m 3.038086,0.66796875 -0.08203,-0.234375 c -0.128906,0.0703125 -0.328125,0.15234375 -0.5625,0.15234375 -0.222656,0 -0.515625,-0.12890625 -0.515625,-0.85546878 v -2.3203125 h 0.960938 c 0.105468,-0.058594 0.128906,-0.2578125 0.05859,-0.3515625 h -1.019531 v -1.2304687 l -0.128906,-0.011719 -0.585938,0.5859375 v 0.65625 h -0.410156 l -0.246094,0.2695313 0.03516,0.082031 h 0.621093 v 2.62500003 c 0,0.703125 0.316407,1.06640625 0.878907,1.06640625 0.08203,0 0.234375,-0.03515625 0.386718,-0.1171875 z m 4.016602,-0.0234375 -0.09375,-0.234375 c -0.09375,0.0585938 -0.222656,0.10546875 -0.328125,0.10546875 -0.152344,0 -0.316406,-0.140625 -0.316406,-0.55078128 v -1.6640625 c 0,-0.46875 -0.08203,-0.84375 -0.398438,-1.1015625 -0.199219,-0.1640625 -0.46875,-0.2460937 -0.738281,-0.2460937 -0.515625,0.1054687 -1.101563,0.4570312 -1.347656,0.6328125 -0.175782,0.1289062 -0.292969,0.2226562 -0.292969,0.3632812 0,0.1992188 0.234375,0.3867188 0.398437,0.3867188 0.128907,0 0.222657,-0.070312 0.257813,-0.2109375 0.07031,-0.28125 0.152344,-0.4804688 0.269531,-0.5976563 0.09375,-0.1054687 0.222656,-0.1757812 0.410156,-0.1757812 0.445313,0 0.75,0.3632812 0.75,1.0195312 v 0.1640625 c -0.199218,0.1523438 -0.855468,0.3984375 -1.394531,0.5742188 -0.492187,0.1757812 -0.726562,0.4570312 -0.726562,0.90234373 0,0.5625 0.445312,1.08984375 1.078125,1.08984375 0.269531,0 0.703125,-0.328125 1.066406,-0.57421875 0.04687,0.15234375 0.09375,0.28125 0.210937,0.41015625 0.105469,0.08203125 0.292969,0.1640625 0.421875,0.1640625 z m -1.429688,-0.41015625 c -0.164062,0.1640625 -0.480468,0.31640625 -0.714843,0.328125 -0.28125,0 -0.644532,-0.22265625 -0.644532,-0.69140628 0,-0.328125 0.199219,-0.4921875 0.550782,-0.65625 0.1875,-0.09375 0.621093,-0.28125 0.808593,-0.375 z m 6.108399,0.761718745 V -0.23515687 c -0.527344,-0.0585938 -0.574219,-0.09375 -0.574219,-0.703125 V -2.6726569 c 0,-0.8789062 -0.445312,-1.3710937 -1.160156,-1.3710937 -0.257813,0 -0.492188,0.1054687 -0.75,0.2695312 -0.222656,0.1523438 -0.421875,0.2929688 -0.597656,0.421875 v -0.7148437 c -0.398438,0.1757812 -0.820313,0.28125 -1.253907,0.3632812 v 0.2109375 c 0.492188,0.09375 0.539063,0.1171875 0.539063,0.6914063 v 1.86328123 c 0,0.59765625 -0.04687,0.64453125 -0.65625,0.703125 v 0.234374995 h 1.957031 V -0.23515687 c -0.527344,-0.0585938 -0.585937,-0.09375 -0.585937,-0.703125 V -3.0476569 c 0.269531,-0.234375 0.621093,-0.46875 0.984375,-0.46875 0.597656,0 0.820312,0.4101563 0.820312,1.03125 v 1.50000003 c 0,0.62109375 -0.07031,0.69140625 -0.597656,0.75 v 0.234374995 z m 3.691406,-0.996093745 c -0.410156,0.38671875 -0.703125,0.4921875 -1.089844,0.4921875 -0.503906,0 -1.359375,-0.41015625 -1.359375,-1.66406248 0,-0.9492188 0.515625,-1.4414063 1.113282,-1.4414063 0.316406,0 0.632812,0.1171875 0.902343,0.375 0.08203,0.070312 0.117188,0.09375 0.164063,0.09375 0.105469,0 0.304687,-0.1992187 0.304687,-0.3867187 0,-0.1054688 -0.03516,-0.1757813 -0.152343,-0.28125 -0.140625,-0.1171875 -0.433594,-0.234375 -0.796875,-0.234375 -0.351563,0 -0.890625,0.140625 -1.359375,0.5039062 -0.597657,0.46875 -0.902344,1.078125 -0.902344,1.7695313 0,0.96093748 0.667969,1.87499998 1.804687,1.87499998 0.527344,0 1.136719,-0.3984375 1.523438,-0.9140625 z m 3.703125,0.046875 c -0.328125,0.3046875 -0.667969,0.4453125 -1.019531,0.4453125 -0.632813,0 -1.335938,-0.50390628 -1.347656,-1.72265628 1.066406,-0.046875 2.191406,-0.1289062 2.355468,-0.1640625 0.152344,-0.035156 0.199219,-0.1054687 0.199219,-0.28125 0,-0.703125 -0.597656,-1.3710937 -1.347656,-1.3710937 -0.46875,0 -0.949219,0.2460937 -1.324219,0.65625 -0.363281,0.4101562 -0.597656,0.9609375 -0.597656,1.5820312 0,1.00781253 0.65625,1.91015628 1.757812,1.91015628 0.28125,0 0.902344,-0.1640625 1.464844,-0.8671875 z M 39.381009,-3.7039069 c 0.492188,0 0.796875,0.421875 0.785157,0.890625 0,0.1289063 -0.04687,0.1875 -0.210938,0.1875 -0.527344,0.011719 -1.019531,0.023437 -1.523437,0.023437 0.128906,-0.7265625 0.527343,-1.1015625 0.949218,-1.101562 z m 0,0"
         style="fill:#231f20;fill-opacity:1;fill-rule:nonzero;stroke:none"
         aria-label="R&#10;eﬂe&#10;c&#10;t&#10;a&#10;n&#10;ce"
         transform="matrix(0,-1.3333333,1.3333333,0,9.89948,93.3752)" />
      <g
         id="g4"
         aria-label="λ&#10;700"
         transform="matrix(1.3333333,0,0,1.3333333,145.41867,160.33355)">
        <path
           id="path5"
           d="m 3.9721328,-1.0323866 c -0.28125,0.38671879 -0.5039062,0.52734379 -0.5976562,0.52734379 -0.082031,0 -0.140625,-0.09375 -0.1992188,-0.4921875 C 3.0111953,-2.1339491 2.8822891,-3.5987928 2.8119766,-4.3370741 c -0.1523438,-1.7226562 -0.46875,-2.0742187 -0.9375,-2.0742187 -0.2578125,0 -0.6328125,0.1757812 -0.84375,0.3515625 l 0.058594,0.2226562 c 0.1171875,-0.046875 0.2578125,-0.09375 0.3867188,-0.09375 0.28125,0.011719 0.4804687,0.1757813 0.609375,0.9726563 0.058594,0.3398437 0.09375,0.703125 0.1171875,1.1367187 -0.609375,1.4414063 -1.58203129,2.89453129 -2.28515629,3.76171879 l 0.0703125,0.1640625 c 0.22265625,-0.046875 0.43359375,-0.10546875 0.6328125,-0.1640625 0.3515625,-0.50390625 1.20703129,-2.14453129 1.65234379,-3.16406249 0.035156,0.6445312 0.1054687,1.2421875 0.234375,2.35546874 0.058594,0.64453125 0.2109375,0.97265625 0.5039062,0.97265625 0.2695313,0 0.6679688,-0.22265625 1.1367188,-0.9375 z m 0,0"
           style="fill:#231f20;fill-opacity:1;fill-rule:nonzero;stroke:none" />
        <path
           id="path6"
           d="M 66.022914,-15.601723 H 62.58932 c -0.03516,0.386719 -0.08203,0.832032 -0.164062,1.324219 h 0.257812 c 0.222657,-0.585937 0.269532,-0.667969 0.867188,-0.667969 h 1.945312 c -0.714843,1.558594 -1.722656,3.421875 -2.671875,4.9570317 l 0.05859,0.09375 0.667969,-0.082031 c 0.867187,-1.8632817 1.699219,-3.6914067 2.542969,-5.5195317 z m 2.455078,-0.117187 c -1.347656,0 -1.839844,1.605469 -1.839844,2.917969 0,1.417968 0.480469,2.9062497 1.839844,2.9062497 1.359375,0 1.828125,-1.5937497 1.828125,-2.9179687 0,-1.382813 -0.46875,-2.90625 -1.828125,-2.90625 z m 0,0.304687 c 0.808594,0 1.03125,1.324219 1.03125,2.601563 0,1.265625 -0.222656,2.613281 -1.03125,2.613281 -0.773437,0 -1.042969,-1.359375 -1.042969,-2.613281 0,-1.253906 0.222657,-2.601563 1.042969,-2.601563 z m 4.321289,-0.304687 c -1.347656,0 -1.839843,1.605469 -1.839843,2.917969 0,1.417968 0.480468,2.9062497 1.839843,2.9062497 1.359375,0 1.828125,-1.5937497 1.828125,-2.9179687 0,-1.382813 -0.46875,-2.90625 -1.828125,-2.90625 z m 0,0.304687 c 0.808594,0 1.03125,1.324219 1.03125,2.601563 0,1.265625 -0.222656,2.613281 -1.03125,2.613281 -0.773437,0 -1.042968,-1.359375 -1.042968,-2.613281 0,-1.253906 0.222656,-2.601563 1.042968,-2.601563 z m 0,0"
           style="fill:#231f20;fill-opacity:1;fill-rule:nonzero;stroke:none" />
      </g>
      <path
         id="path7"
         d="m 312.449,460.184 1.051,1.64 1.172,1.719 1.211,1.863 1.328,1.965 1.375,2.098 1.477,2.226 1.531,2.348 3.355,5.035 1.754,2.707 3.828,5.731 1.992,3.097 2.071,3.114 2.039,3.242 2.027,3.332 2.031,3.387 1.997,3.441 1.984,3.562 1.961,3.633 1.953,3.711 1.945,3.75 1.918,3.867 1.914,3.895 1.91,4.035 1.918,4.102 1.872,4.14 1.839,4.258 1.871,4.285 1.84,4.387 1.797,4.48 1.832,4.532 1.805,4.652 1.758,4.695 1.746,4.754 1.762,4.895 1.757,4.922 1.727,5 1.719,5.117 1.714,5.066 1.68,5.039 1.723,5 1.711,4.922 1.719,4.895 1.718,4.8 1.719,4.77 1.727,4.676 1.753,4.648 1.719,4.571 1.715,4.531 1.758,4.504 1.719,4.41 1.722,4.379 1.758,4.285 1.762,4.266 1.711,4.179 1.758,4.141 1.761,4.055 1.758,4.035 1.762,3.933 1.75,3.914 1.758,3.871 1.761,3.778 1.758,3.75 1.754,3.683 1.758,3.59 1.805,3.481 1.753,3.398 1.75,3.281 1.762,3.161 1.758,3.046 1.805,2.973 1.758,2.848 1.75,2.726 1.757,2.625 1.766,2.539 1.758,2.422 1.75,2.309 1.797,2.176 1.761,2.117 1.758,1.984 1.754,1.883 1.758,1.762 1.766,1.679 1.753,1.559 1.758,1.437 1.754,1.329 1.758,1.25 1.766,1.105 1.753,1.051 1.75,0.898 1.762,0.86 1.758,0.82 1.766,0.781 1.754,0.821 5.277,2.23 1.758,0.699 5.265,1.985 1.766,0.632 5.266,1.762 1.761,0.535 3.52,1.024 3.508,0.941 3.519,0.848 3.512,0.793 3.519,0.699 12.301,2.191 1.758,0.27 1.766,0.305 3.507,0.554 1.758,0.313 1.766,0.277 1.758,0.231 5.265,0.82 1.766,0.226 1.758,0.282 10.539,1.398 1.758,0.203 1.8,0.227 3.512,0.39 5.277,0.469 1.75,0.125 1.762,0.16 1.758,0.067 1.766,0.125 3.507,0.156 7.028,0.148 h 1.762 l 1.757,-0.027 h 1.766 l 3.508,-0.078 7.039,-0.324 3.512,-0.227 5.277,-0.469 3.516,-0.39 3.511,-0.477 1.762,-0.265 1.758,-0.243 1.758,-0.304 1.753,-0.274 1.75,-0.308 7.04,-1.41 1.757,-0.391 5.278,-1.289 5.269,-1.414 3.52,-1.008 7.027,-2.187 7.031,-2.34 1.797,-0.629 5.278,-1.871 7.031,-2.66 5.269,-2.11 8.789,-3.711 7.036,-3.121 1.753,-0.828 3.516,-1.566 1.762,-0.821 1.758,-0.773 1.754,-0.82 1.757,-0.782 3.52,-1.64 1.758,-0.782 19.336,-9.031 1.754,-0.859 3.515,-1.641 1.762,-0.859 3.504,-1.641 1.758,-0.859 17.586,-8.196 1.757,-0.781 3.508,-1.64 1.809,-0.782 1.758,-0.82 1.753,-0.777 1.75,-0.821 1.758,-0.781 1.77,-0.828 3.512,-1.566 1.75,-0.821 3.527,-1.554 5.262,-2.461 8.796,-4.297 1.758,-0.906 1.758,-0.86 1.762,-0.887 1.746,-0.941 1.766,-0.898 8.793,-4.696 5.261,-2.929 3.528,-2.024 1.753,-0.984 1.75,-1.047 3.528,-2.031 5.262,-3.172 1.765,-1.086 1.762,-1.051 5.262,-3.289 1.765,-1.137 1.762,-1.086 3.504,-2.273 1.765,-1.164 1.758,-1.133 5.266,-3.523 1.766,-1.204 1.757,-1.171 5.278,-3.629 1.797,-1.25 1.753,-1.211 1.75,-1.25 1.758,-1.211 1.77,-1.258 1.758,-1.215 1.754,-1.25 1.75,-1.211 1.765,-1.25 1.762,-1.211 1.758,-1.25 1.758,-1.203 1.746,-1.25 1.765,-1.211 1.762,-1.25 3.504,-2.422 1.765,-1.25 3.516,-2.418 1.762,-1.25 3.512,-2.433 1.757,-1.25 3.508,-2.422 1.77,-1.25 7.019,-4.836 1.77,-1.168 1.758,-1.211 8.789,-5.859 1.754,-1.145 1.75,-1.172 10.554,-6.785 3.52,-2.187 1.746,-1.141 3.523,-2.18 1.758,-1.066 1.762,-1.082 1.746,-1.067 1.766,-1.093 8.793,-5.262 1.792,-1.027 1.75,-1.043 10.56,-6.106 1.75,-0.965 1.76,-1.023 12.31,-6.828 3.51,-1.883 1.76,-0.98 5.27,-2.809 1.76,-0.902 3.52,-1.864 1.76,-0.898 1.75,-0.949 12.3,-6.289 1.77,-0.86 1.75,-0.898 14.07,-6.875 1.75,-0.809 1.76,-0.867 1.75,-0.902 1.77,-0.86 7.02,-3.582 7.03,-3.75 5.28,-2.929 1.79,-0.989 8.79,-5.078 5.28,-3.16 3.51,-2.191 1.77,-1.043 1.75,-1.106 1.76,-1.043 1.75,-1.027 1.77,-1.043 1.76,-1.027 7.03,-3.895 5.26,-2.824 5.28,-2.684 5.28,-2.59 5.26,-2.461 5.28,-2.332 5.28,-2.234 1.75,-0.695 1.76,-0.754 3.51,-1.395 1.77,-0.676 1.75,-0.703 5.28,-1.98 8.79,-3.137 7.03,-2.344 1.76,-0.546 1.75,-0.575 1.76,-0.558 1.79,-0.508 1.77,-0.535 7.03,-2.043 3.51,-0.926 8.79,-2.148 1.75,-0.391 1.77,-0.352 1.76,-0.39 5.26,-1.067 5.28,-0.937 1.75,-0.274 1.77,-0.3 1.76,-0.286 8.78,-1.171 1.76,-0.184 1.75,-0.246 1.76,-0.184 1.77,-0.246 1.75,-0.183 1.76,-0.246 1.75,-0.184 1.77,-0.246 1.75,-0.184 1.76,-0.246 1.76,-0.183 1.75,-0.247 1.77,-0.183 1.75,-0.246 1.76,-0.184 1.75,-0.242 3.53,-0.395 1.75,-0.23 1.76,-0.199 1.75,-0.235 3.52,-0.39 1.76,-0.223 10.54,-1.183 1.77,-0.145 1.79,-0.207 5.28,-0.469 1.75,-0.105 1.76,-0.168 1.76,-0.117 1.75,-0.145 3.52,-0.246 1.76,-0.078 3.52,-0.223 8.79,-0.39 1.75,-0.051 1.76,-0.078 7.03,-0.145 1.76,-0.078 h 1.75 l 7.03,-0.164 h 1.76 l 3.52,-0.082 h 3.51 l 1.77,-0.039 h 5.26 l 1.76,-0.039 h 3.52 l 1.76,0.039 h 5.28 l 1.75,0.039 h 7.03 l 1.76,0.039 h 10.54 l 1.77,-0.039 h 7.07 l 1.75,-0.039 h 3.51 l 1.76,-0.039 h 1.77 l 1.75,-0.028 h 1.76 l 1.75,-0.039 h 1.77 l 1.76,-0.039 h 1.75 l 1.76,-0.039 h 3.52 l 1.75,0.039 h 1.76 l 1.75,0.039 h 1.77 l 7.02,0.145 1.77,0.082 1.75,0.039 7.04,0.309 1.75,0.117 1.76,0.09 10.54,0.695 1.77,0.164 1.75,0.105 7.04,0.637 1.75,0.184 1.76,0.16 1.75,0.203 1.77,0.145 8.79,0.988 1.75,0.223 1.76,0.207 7.03,0.937 1.79,0.223 3.52,0.48 3.52,0.547 1.75,0.223 8.8,1.379 1.76,0.3 1.75,0.274 1.76,0.324 1.75,0.262 3.52,0.625 1.76,0.285 3.52,0.613 1.76,0.352 3.51,0.625 1.75,0.351 1.77,0.313 1.75,0.363 1.76,0.313 8.79,1.757 1.75,0.313 1.77,0.34 5.26,0.949 1.76,0.262 1.77,0.312 7.03,1.106 10.54,1.394 8.79,0.977 5.28,0.48 5.26,0.344 1.81,0.086 1.75,0.078 1.76,0.039 h 1.75 l 1.76,0.027 1.77,-0.027 h 1.75 l 1.76,-0.039 3.52,-0.164 5.27,-0.344 3.52,-0.312 3.51,-0.391 3.52,-0.469 3.51,-0.558 3.51,-0.625 1.77,-0.274 5.26,-0.937 1.76,-0.352 7.03,-1.25 1.77,-0.351 1.75,-0.301 1.76,-0.352 1.76,-0.324 3.52,-0.699 1.75,-0.305 15.82,-3.176 1.76,-0.39 1.75,-0.352 7.04,-1.562 7.03,-1.715 1.75,-0.473 1.81,-0.429 5.27,-1.395 1.71,-0.508 1.77,-0.48 3.51,-1.016 1.75,-0.535 1.76,-0.508 7.03,-2.199 1.77,-0.574 7.02,-2.188 5.28,-1.523 1.79,-0.469 5.28,-1.414 3.51,-0.863 7.03,-1.551 1.81,-0.352 5.26,-1.066 1.77,-0.301 1.79,-0.312 7.04,-1.106 1.79,-0.222 1.75,-0.247 5.28,-0.574 1.72,-0.168 1.75,-0.144 3.53,-0.246 1.71,-0.118 1.76,-0.066 1.72,-0.078 1.75,-0.086 1.73,-0.039 1.76,-0.043 h 3.43 l 1.72,0.043 h 1.72 l 1.71,0.086 1.72,0.039 1.73,0.078 1.72,0.106 1.71,0.078 1.68,0.168 1.72,0.109 1.72,0.191 3.52,0.481 1.75,0.262 1.8,0.324 1.79,0.351 1.81,0.391 1.83,0.391 3.67,0.937 1.87,0.496 1.88,0.551 1.87,0.594 3.84,1.25 1.9,0.703 1.96,0.691 1.96,0.742 1.98,0.793 3.99,1.641 2,0.887 2.03,0.898 2.02,0.938 2.07,0.988 2.03,0.965 1.92,0.937 1.87,0.899 1.81,0.871 1.68,0.82 1.64,0.77 1.51,0.742 1.49,0.715 1.4,0.656 1.29,0.625 1.21,0.586 1.18,0.555 1.06,0.535"
         style="fill:none;stroke:#5b7ca0;stroke-width:10;stroke-linecap:butt;stroke-linejoin:round;stroke-miterlimit:3.25;stroke-dasharray:none;stroke-opacity:1"
         transform="matrix(0.13333333,0,0,-0.13333333,0,164.65333)" />
      <path
         id="path8"
         d="m 312.449,346.473 h 1.051 l 1.172,-0.039 h 5.391 l 1.531,-0.039 h 3.355 l 1.754,-0.051 h 5.82 l 2.071,-0.039 h 12.039 l 1.953,0.039 h 1.945 l 1.918,0.051 h 1.914 l 3.828,0.078 1.872,0.039 1.839,0.031 1.871,0.035 1.84,0.039 1.797,0.039 1.832,0.039 1.805,0.09 1.758,0.039 1.746,0.078 1.762,0.039 1.757,0.067 5.16,0.246 1.68,0.078 1.723,0.039 8.594,0.391 1.753,0.066 1.719,0.078 1.715,0.039 1.758,0.09 3.441,0.156 1.758,0.028 1.762,0.078 1.711,0.082 1.758,0.086 1.761,0.039 3.52,0.144 1.75,0.04 3.519,0.156 1.758,0.051 3.512,0.148 1.805,0.035 1.753,0.078 1.75,0.039 3.52,0.168 1.805,0.039 1.758,0.067 1.75,0.039 1.757,0.078 1.766,0.043 1.758,0.086 1.75,0.039 1.797,0.078 3.519,0.066 1.754,0.079 1.758,0.039 1.766,0.078 1.753,0.051 1.758,0.078 3.512,0.078 1.766,0.066 3.503,0.078 1.762,0.09 1.758,0.039 1.766,0.078 1.754,0.039 5.277,0.227 1.758,0.047 1.758,0.117 7.031,0.313 1.75,0.117 1.758,0.066 1.761,0.117 1.758,0.09 14.067,0.938 1.753,0.144 1.758,0.117 1.754,0.168 1.758,0.106 1.766,0.16 1.753,0.125 1.75,0.145 1.762,0.117 3.524,0.312 1.754,0.117 7.035,0.637 1.746,0.106 8.793,0.781 1.758,0.207 7.031,0.613 1.758,0.207 1.8,0.156 1.758,0.188 1.754,0.164 1.758,0.184 1.766,0.246 1.753,0.183 7.036,0.938 1.754,0.273 1.753,0.246 3.524,0.535 1.758,0.325 1.746,0.261 5.285,0.95 3.508,0.695 1.761,0.309 1.758,0.363 1.758,0.39 1.762,0.352 7.027,1.551 1.762,0.441 1.758,0.383 3.511,0.867 1.758,0.469 1.762,0.43 1.758,0.468 1.758,0.43 3.503,0.926 1.766,0.508 1.762,0.468 7.027,2.032 3.52,1.105 1.758,0.496 1.753,0.551 1.758,0.594 1.762,0.535 5.269,1.758 5.278,1.992 5.269,2.238 1.797,0.809 3.52,1.64 1.758,0.911 1.753,0.859 3.516,1.863 1.762,0.977 3.512,2.035 3.515,2.105 1.762,1.094 1.758,1.145 3.511,2.332 3.52,2.422 1.758,1.25 1.758,1.328 1.753,1.289 1.758,1.379 3.52,2.812 3.512,2.969 1.757,1.512 1.758,1.562 1.762,1.613 3.516,3.282 3.511,3.425 1.762,1.758 1.758,1.809 1.758,1.836 3.503,3.742 3.528,3.902 1.758,1.993 1.754,2.031 1.757,2.074 1.758,2.105 1.762,2.149 1.758,2.187 1.746,2.239 1.758,2.254 3.527,4.691 1.758,2.418 1.746,2.461 1.765,2.5 1.758,2.539 3.52,5.246 1.746,2.684 1.766,2.746 1.757,2.773 1.758,2.801 1.75,2.891 1.809,2.89 1.758,2.969 1.753,3.008 1.75,3.058 1.758,3.075 1.77,3.136 1.758,3.192 3.504,6.488 1.765,3.355 1.762,3.399 1.758,3.437 1.746,3.528 1.758,3.582 1.765,3.672 1.762,3.711 1.758,3.789 1.746,3.828 1.765,3.918 1.758,3.972 1.758,4.024 1.762,4.113 1.746,4.172 1.766,4.254 1.757,4.297 1.758,4.347 1.75,4.403 1.77,4.492 1.758,4.57 1.753,4.61 1.758,4.699 1.75,4.754 1.77,4.816 1.758,4.871 1.753,4.922 1.75,5.039 1.758,5.086 1.77,5.156 1.758,5.235 1.754,5.304 1.75,5.403 1.765,5.457 1.762,5.555 1.758,5.589 1.758,5.7 1.746,5.742 1.765,5.859 1.762,5.899 1.758,5.98 1.746,6.051 1.765,6.125 1.758,6.211 1.758,6.289 1.762,6.375 1.746,6.449 1.766,6.52 1.757,6.554 1.758,6.688 1.75,6.719 1.77,6.839 1.797,6.871 5.261,20.735 1.77,6.883 1.758,6.906 7.031,27.5 3.516,13.672 1.746,6.883 1.765,6.839 1.762,6.786 1.758,6.843 1.746,6.801 1.765,6.832 3.516,13.59 1.762,6.754 1.746,6.805 8.801,33.789 1.758,6.679 1.753,6.524 1.758,6.406 1.75,6.293 1.77,6.168 1.758,6.008 1.753,5.898 1.75,5.753 1.758,5.66 1.77,5.47 1.758,5.39 1.754,5.23 1.75,5.12 1.765,5 1.762,4.84 1.758,4.73 1.746,4.61 1.758,4.45 1.765,4.34 1.762,4.22 1.758,4.06 1.746,3.95 1.765,3.78 1.758,3.72 1.758,3.55 1.762,3.4 1.746,3.32 1.766,3.24 1.757,3.13 1.758,3.04 1.75,2.93 1.77,2.89 1.758,2.78 1.792,2.65 1.75,2.58 1.758,2.5 1.77,2.42 1.758,2.31 1.754,2.22 1.75,2.15 1.77,2.03 1.75,1.96 1.76,1.83 1.75,1.8 1.76,1.68 1.77,1.56 1.75,1.53 1.76,1.4 1.75,1.29 1.77,1.25 1.76,1.13 1.75,1.02 1.76,0.98 1.75,0.93 1.77,0.9 1.75,0.82 1.76,0.78 1.75,0.75 1.77,0.7 3.51,1.25 1.76,0.55 1.75,0.5 1.77,0.47 1.75,0.43 1.76,0.35 1.75,0.32 1.76,0.27 1.77,0.23 1.75,0.2 3.51,0.23 1.77,0.04 h 1.75 l 3.52,-0.15 1.75,-0.16 1.77,-0.2 1.75,-0.23 1.76,-0.27 1.75,-0.32 1.77,-0.35 1.76,-0.39 1.75,-0.43 1.76,-0.47 1.75,-0.5 1.77,-0.55 1.75,-0.59 1.76,-0.62 1.75,-0.67 1.77,-0.7 1.76,-0.74 1.75,-0.78 1.79,-0.82 3.53,-1.8 1.75,-0.94 1.76,-0.97 1.75,-1.02 1.77,-1.05 3.51,-2.27 1.76,-1.17 1.75,-1.21 3.52,-2.5 1.76,-1.29 1.75,-1.25 5.28,-3.87 1.76,-1.33 1.75,-1.29 1.77,-1.32 1.75,-1.37 1.76,-1.33 1.75,-1.37 1.77,-1.32 1.76,-1.41 3.51,-2.74 5.27,-4.21 8.79,-7.23 3.51,-2.97 3.52,-3.05 3.51,-3.12 1.76,-1.6 3.52,-3.28 3.51,-3.36 1.77,-1.72 3.51,-3.52 1.76,-1.79 5.27,-5.51 1.76,-1.88 1.75,-1.91 5.28,-5.86 1.76,-2.03 1.79,-2.03 1.77,-2.03 1.75,-2.08 3.51,-4.21 1.77,-2.15 3.51,-4.38 1.75,-2.22 3.53,-4.54 1.75,-2.3 3.51,-4.69 1.77,-2.38 3.51,-4.84 1.76,-2.46 3.52,-5 1.75,-2.54 3.51,-5.16 1.77,-2.62 3.51,-5.308 1.76,-2.699 3.52,-5.461 1.75,-2.785 1.76,-2.805 1.75,-2.769 1.76,-2.825 7.03,-11.398 1.77,-2.891 1.75,-2.929 1.76,-2.887 1.76,-2.973 1.75,-2.929 3.52,-5.938 3.51,-6.012 5.28,-9.14 5.28,-9.258 3.51,-6.25 1.75,-3.176 1.77,-3.117 3.51,-6.168 1.76,-3.012 1.75,-2.968 1.77,-2.93 1.79,-2.93 1.76,-2.851 3.52,-5.633 1.75,-2.727 1.76,-2.703 3.51,-5.305 1.77,-2.585 3.51,-5.067 1.75,-2.473 1.77,-2.421 3.51,-4.754 1.76,-2.317 1.75,-2.254 3.52,-4.464 1.76,-2.137 3.52,-4.219 3.51,-4.074 1.76,-1.985 1.75,-1.953 1.77,-1.922 1.75,-1.867 3.51,-3.672 1.76,-1.796 3.52,-3.446 1.76,-1.679 1.75,-1.641 3.52,-3.195 3.51,-3.055 1.76,-1.477 1.77,-1.453 1.75,-1.394 1.76,-1.371 1.75,-1.329 3.53,-2.585 1.75,-1.25 1.76,-1.211 1.75,-1.164 3.52,-2.262 1.76,-1.098 1.75,-1.051 3.53,-2.031 1.75,-0.98 1.76,-0.938 3.52,-1.805 1.75,-0.855 1.8,-0.824 3.52,-1.563 1.75,-0.734 1.76,-0.699 3.51,-1.332 1.77,-0.633 1.75,-0.578 1.76,-0.547 5.28,-1.524 14.06,-3.75 1.76,-0.429 1.75,-0.469 1.76,-0.43 1.75,-0.468 3.52,-0.86 1.76,-0.476 5.28,-1.289 1.75,-0.391 3.51,-0.859 1.77,-0.391 1.75,-0.43 1.76,-0.39 1.76,-0.43 5.27,-1.164 7.04,-1.414 7.03,-1.25 5.26,-0.821 1.77,-0.226 1.76,-0.27 1.75,-0.246 1.76,-0.183 1.75,-0.246 5.28,-0.575 1.79,-0.16 5.28,-0.469 5.28,-0.351 5.26,-0.231 5.28,-0.121 h 3.51 l 7.03,0.149 3.53,0.164 5.26,0.344 5.28,0.476 5.28,0.59 1.75,0.23 3.51,0.547 3.52,0.618 1.76,0.363 3.51,0.781 1.77,0.43 3.51,0.926 3.52,1.023 1.76,0.582 1.75,0.551 3.51,1.25 3.52,1.328 1.76,0.695 3.52,1.492 1.76,0.782 3.51,1.64 3.52,1.719 5.26,2.688 1.81,0.906 3.51,1.879 7.03,3.894 5.28,3.055 5.27,3.156 7.03,4.383 3.52,2.258 1.76,1.183 1.75,1.129 1.76,1.211 7.03,4.688 1.75,1.211 5.28,3.507 1.76,1.223 7.03,4.676 1.76,1.211 3.52,2.351 1.75,1.211 5.28,3.508 1.76,1.215 3.51,2.348 1.75,1.211 8.8,5.859 3.51,2.258 5.28,3.293 1.75,1.051 1.76,1.085 1.75,1.024 1.81,1.047 3.51,2.043 1.76,0.965 1.71,0.984 3.52,1.945 3.51,1.887 7.04,3.59 3.52,1.719 3.51,1.64 3.51,1.555 5.28,2.234 1.79,0.696 3.52,1.336 5.27,1.878 1.77,0.536 1.75,0.593 1.76,0.551 1.75,0.496 1.81,0.516 5.26,1.41 1.77,0.43 1.79,0.386 1.76,0.391 3.52,0.703 1.76,0.305 1.79,0.324 1.75,0.27 3.53,0.468 1.75,0.188 1.72,0.164 1.75,0.16 1.76,0.106 1.77,0.085 1.71,0.079 1.76,0.039 1.72,0.039 1.75,-0.039 1.73,-0.039 1.76,-0.039 1.71,-0.125 1.72,-0.067 3.44,-0.324 1.71,-0.188 3.45,-0.468 3.43,-0.547 1.68,-0.352 3.44,-0.621 3.52,-0.551 1.75,-0.242 3.59,-0.457 1.81,-0.199 1.83,-0.164 1.84,-0.188 1.83,-0.117 3.75,-0.23 1.87,-0.082 1.92,-0.078 3.82,-0.086 1.96,-0.039 1.96,0.039 h 1.98 l 2,0.046 3.99,0.157 2.03,0.082 2.02,0.105 2.07,0.125 2.03,0.16 1.92,0.106 1.87,0.125 1.81,0.117 1.68,0.121 1.64,0.106 1.51,0.125 1.49,0.078 1.4,0.121 1.29,0.066 1.21,0.086 1.18,0.078 1.06,0.078"
         style="fill:none;stroke:#95c228;stroke-width:10;stroke-linecap:butt;stroke-linejoin:round;stroke-miterlimit:3.25;stroke-dasharray:none;stroke-opacity:1"
         transform="matrix(0.13333333,0,0,-0.13333333,0,164.65333)" />
      <path
         id="path9"
         d="m 312.449,329.977 1.051,0.117 1.172,0.129 1.211,0.144 1.328,0.168 1.375,0.156 1.477,0.145 1.531,0.168 1.636,0.184 1.719,0.207 1.754,0.183 1.883,0.246 1.945,0.184 1.992,0.246 2.071,0.223 2.039,0.246 2.027,0.183 2.031,0.246 1.997,0.184 1.984,0.246 5.859,0.574 5.742,0.598 1.918,0.144 1.872,0.196 1.839,0.168 1.871,0.144 1.84,0.207 1.797,0.145 1.832,0.16 1.805,0.125 3.504,0.301 1.762,0.129 1.757,0.144 5.16,0.352 1.68,0.117 5.153,0.352 1.718,0.078 3.446,0.246 1.753,0.066 1.719,0.117 1.715,0.09 1.758,0.078 1.719,0.106 1.722,0.078 3.52,0.168 1.711,0.078 5.277,0.223 1.762,0.039 3.508,0.168 1.761,0.039 1.758,0.066 1.754,0.039 1.758,0.078 1.805,0.039 1.753,0.051 1.75,0.078 1.762,0.039 1.758,0.067 1.805,0.039 1.758,0.039 1.75,0.082 1.757,0.039 1.766,0.086 1.758,0.039 1.75,0.078 1.797,0.027 3.519,0.157 1.754,0.039 1.758,0.09 1.766,0.039 1.753,0.078 1.758,0.027 3.512,0.156 1.766,0.051 3.503,0.156 1.762,0.028 3.524,0.16 1.754,0.039 3.511,0.164 1.766,0.039 3.516,0.145 1.75,0.039 1.757,0.09 1.766,0.039 3.508,0.144 1.758,0.039 3.519,0.168 1.762,0.039 3.508,0.145 1.761,0.039 1.758,0.078 1.754,0.043 3.524,0.164 1.753,0.039 3.512,0.145 1.758,0.039 1.766,0.078 1.753,0.051 3.512,0.156 1.758,0.027 1.766,0.078 1.754,0.039 3.511,0.168 1.766,0.039 3.504,0.145 1.762,0.039 1.757,0.082 1.766,0.047 3.508,0.156 1.758,0.027 3.519,0.157 1.762,0.039 1.75,0.09 1.758,0.039 1.8,0.07 1.758,0.074 1.754,0.039 3.524,0.168 1.753,0.039 1.75,0.078 1.762,0.028 3.524,0.16 1.754,0.039 3.511,0.164 1.766,0.039 1.758,0.067 1.746,0.039 3.519,0.168 1.766,0.039 1.758,0.078 1.75,0.039 3.519,0.144 1.758,0.039 3.52,0.168 1.754,0.039 1.757,0.067 1.758,0.039 3.52,0.168 1.758,0.039 3.511,0.144 1.762,0.04 1.758,0.078 1.758,0.039 3.503,0.168 1.766,0.039 3.52,0.144 1.754,0.039 3.515,0.168 1.762,0.039 3.516,0.145 1.753,0.039 3.52,0.168 1.758,0.039 3.511,0.145 1.758,0.039 3.52,0.168 1.758,0.039 1.754,0.078 1.757,0.039 1.797,0.066 1.762,0.039 1.758,0.078 1.758,0.051 1.753,0.078 1.75,0.039 1.766,0.067 1.762,0.039 1.758,0.078 3.511,0.082 1.758,0.086 3.52,0.078 1.758,0.066 3.511,0.079 1.762,0.078 3.516,0.09 1.753,0.078 1.758,0.039 12.309,0.535 1.758,0.121 1.758,0.086 1.753,0.117 1.758,0.067 10.547,0.714 1.762,0.145 1.758,0.121 1.754,0.164 1.757,0.106 3.52,0.324 1.758,0.105 3.504,0.324 1.765,0.106 1.762,0.168 7.027,0.469 1.758,0.144 3.508,0.246 1.766,0.078 5.265,0.352 1.809,0.078 1.758,0.106 1.753,0.078 1.75,0.129 8.79,0.39 1.765,0.117 1.762,0.067 5.262,0.363 3.527,0.313 1.758,0.183 1.746,0.156 3.523,0.395 5.266,0.699 1.766,0.285 1.757,0.223 1.758,0.312 1.75,0.286 5.281,0.937 5.278,1.047 5.261,1.168 1.758,0.469 1.77,0.519 3.512,1.16 1.75,0.664 1.765,0.715 1.762,0.731 1.758,0.785 3.504,1.715 1.765,0.949 1.762,0.965 3.504,2.109 1.765,1.145 1.758,1.172 1.758,1.211 3.508,2.578 1.766,1.355 1.757,1.406 1.758,1.457 3.52,3.036 1.797,1.601 1.753,1.641 1.75,1.719 1.758,1.757 1.77,1.848 1.758,1.863 1.754,1.926 1.75,1.992 1.765,2.02 1.762,2.121 1.758,2.148 1.758,2.188 1.746,2.254 3.527,4.699 3.504,4.914 3.523,5.164 1.758,2.645 1.762,2.746 1.746,2.761 1.766,2.813 1.757,2.891 1.758,2.929 1.75,3.012 5.281,9.137 3.508,5.949 1.77,2.93 3.511,5.773 3.508,5.625 1.77,2.781 1.758,2.723 1.754,2.707 3.515,5.301 3.52,5.168 1.746,2.539 1.758,2.5 3.527,4.922 1.758,2.41 3.511,4.699 3.516,4.609 1.762,2.215 1.746,2.188 1.766,2.113 1.757,2.027 1.758,1.993 1.75,1.886 1.77,1.824 1.758,1.719 1.792,1.68 1.75,1.601 1.758,1.536 1.77,1.433 1.758,1.367 1.754,1.34 1.75,1.211 1.77,1.16 1.75,1.067 1.76,1.004 1.75,0.949 1.76,0.859 1.77,0.77 1.75,0.703 1.76,0.637 1.75,0.574 1.77,0.469 1.76,0.429 1.75,0.313 1.76,0.285 1.75,0.223 1.77,0.207 1.75,0.117 1.76,0.066 1.75,0.039 1.77,-0.039 1.76,-0.066 1.75,-0.117 1.76,-0.168 1.75,-0.223 1.77,-0.285 1.75,-0.313 3.51,-0.777 1.76,-0.473 3.52,-1.082 1.76,-0.636 1.75,-0.653 3.52,-1.496 1.76,-0.82 3.51,-1.785 1.77,-0.989 5.26,-3.046 1.77,-1.043 1.76,-1.094 1.75,-1.067 1.76,-1.121 1.75,-1.105 1.77,-1.172 1.75,-1.121 1.76,-1.172 5.28,-3.645 1.75,-1.25 1.79,-1.25 3.53,-2.566 3.51,-2.664 5.27,-4.094 3.52,-2.812 3.52,-2.891 3.51,-2.824 5.28,-4.102 1.75,-1.328 1.76,-1.289 1.75,-1.316 1.77,-1.25 1.75,-1.289 1.76,-1.25 5.28,-3.645 1.75,-1.172 1.76,-1.121 1.75,-1.172 1.77,-1.105 1.75,-1.129 1.76,-1.086 5.28,-3.176 3.51,-2.031 5.27,-2.93 7.04,-3.75 5.26,-2.683 7.04,-3.438 3.52,-1.64 1.75,-0.782 1.76,-0.82 1.75,-0.781 1.77,-0.754 1.76,-0.781 3.51,-1.473 1.79,-0.711 1.77,-0.746 1.75,-0.703 1.76,-0.653 1.75,-0.714 3.52,-1.329 7.04,-2.5 1.75,-0.574 1.76,-0.636 1.75,-0.536 1.77,-0.597 5.27,-1.637 1.75,-0.512 1.77,-0.535 1.75,-0.508 8.79,-2.355 3.51,-0.86 1.77,-0.39 1.75,-0.43 1.76,-0.39 1.75,-0.43 1.76,-0.391 1.77,-0.429 1.75,-0.391 1.76,-0.43 3.52,-0.781 1.75,-0.43 3.52,-0.777 1.75,-0.434 3.52,-0.777 1.76,-0.434 7.03,-1.55 1.76,-0.43 15.82,-3.527 1.75,-0.348 1.77,-0.395 1.79,-0.339 7.03,-1.418 1.76,-0.309 1.76,-0.344 10.55,-1.886 1.76,-0.27 1.75,-0.305 10.54,-1.64 8.79,-1.172 8.79,-0.977 1.77,-0.168 1.75,-0.183 3.51,-0.325 1.77,-0.105 1.75,-0.164 7.04,-0.473 1.75,-0.078 1.76,-0.105 5.28,-0.246 1.75,-0.039 1.76,-0.067 5.27,-0.117 h 10.55 l 5.27,0.117 1.8,0.067 1.75,0.039 5.28,0.246 1.75,0.105 1.76,0.078 5.28,0.352 1.75,0.16 1.77,0.125 15.82,1.395 1.76,0.207 3.51,0.3 1.75,0.207 3.52,0.313 3.51,0.379 1.76,0.168 1.77,0.183 1.75,0.168 43.94,4.871 1.77,0.235 3.51,0.402 1.79,0.184 14.07,1.562 1.75,0.168 3.53,0.383 1.75,0.164 1.76,0.184 3.52,0.312 1.75,0.207 15.82,1.406 1.76,0.106 1.75,0.168 1.76,0.117 1.77,0.145 1.75,0.117 1.76,0.168 5.27,0.351 1.76,0.078 3.51,0.227 10.56,0.477 1.75,0.039 1.76,0.078 1.75,0.031 1.77,0.074 3.51,0.078 h 1.75 l 3.53,0.09 h 1.75 l 1.76,0.039 h 5.27 l 1.76,-0.039 h 1.75 l 1.81,-0.051 h 1.75 l 1.76,-0.039 1.75,-0.078 3.53,-0.074 8.79,-0.395 3.51,-0.23 1.75,-0.082 1.77,-0.145 3.51,-0.246 1.75,-0.144 1.77,-0.117 3.51,-0.313 1.76,-0.203 7.03,-0.625 1.75,-0.109 1.76,-0.168 7.03,-0.469 1.77,-0.078 1.75,-0.106 8.79,-0.39 1.76,-0.039 1.75,-0.09 5.28,-0.117 h 1.76 l 1.75,-0.039 h 1.77 l 1.75,-0.04 h 1.76 l 1.75,0.04 h 1.77 l 1.76,0.039 h 1.75 l 3.51,0.078 1.77,0.09 1.75,0.039 3.51,0.144 1.81,0.078 1.75,0.129 1.76,0.078 1.76,0.106 1.71,0.117 1.77,0.129 1.75,0.156 1.76,0.106 7.03,0.636 8.79,0.965 1.76,0.246 1.75,0.184 5.28,0.715 1.79,0.222 3.52,0.473 3.51,0.555 1.76,0.222 3.52,0.559 1.76,0.301 1.75,0.273 1.81,0.285 7.03,1.25 1.79,0.305 1.76,0.309 1.75,0.351 1.77,0.324 1.76,0.352 1.79,0.34 1.75,0.312 1.76,0.352 1.77,0.324 1.75,0.352 1.72,0.3 1.75,0.352 3.53,0.637 1.71,0.351 1.76,0.305 1.72,0.309 1.75,0.355 1.73,0.32 1.76,0.305 15.46,2.809 1.68,0.285 3.44,0.617 5.27,0.945 1.8,0.305 1.79,0.348 1.81,0.324 1.83,0.312 1.84,0.352 1.83,0.301 1.87,0.351 1.88,0.324 1.87,0.352 3.84,0.691 1.9,0.313 3.92,0.715 1.98,0.39 5.99,1.043 2.03,0.391 2.02,0.352 2.07,0.355 2.03,0.398 1.92,0.352 1.87,0.301 1.81,0.351 1.68,0.274 1.64,0.324 1.51,0.262 1.49,0.273 1.4,0.246 1.29,0.223 1.21,0.246 1.18,0.184 1.06,0.207"
         style="fill:none;stroke:#52693a;stroke-width:10;stroke-linecap:butt;stroke-linejoin:round;stroke-miterlimit:3.25;stroke-dasharray:none;stroke-opacity:1"
         transform="matrix(0.13333333,0,0,-0.13333333,0,164.65333)" />
      <path
         id="path10"
         d="m 403.891,215.922 v 29.996"
         style="fill:none;stroke:#231f20;stroke-width:5;stroke-linecap:butt;stroke-linejoin:miter;stroke-miterlimit:3.25;stroke-dasharray:none;stroke-opacity:1"
         transform="matrix(0.13333333,0,0,-0.13333333,0,164.65333)" />
      <path
         id="path11"
         d="m 861.086,215.922 v 29.996"
         style="fill:none;stroke:#231f20;stroke-width:5;stroke-linecap:butt;stroke-linejoin:miter;stroke-miterlimit:3.25;stroke-dasharray:none;stroke-opacity:1"
         transform="matrix(0.13333333,0,0,-0.13333333,0,164.65333)" />
      <path
         id="path12"
         d="m 1318.31,215.922 v 29.996"
         style="fill:none;stroke:#231f20;stroke-width:5;stroke-linecap:butt;stroke-linejoin:miter;stroke-miterlimit:3.25;stroke-dasharray:none;stroke-opacity:1"
         transform="matrix(0.13333333,0,0,-0.13333333,0,164.65333)" />
      <path
         id="path13"
         d="m 1775.49,215.922 v 29.996"
         style="fill:none;stroke:#231f20;stroke-width:5;stroke-linecap:butt;stroke-linejoin:miter;stroke-miterlimit:3.25;stroke-dasharray:none;stroke-opacity:1"
         transform="matrix(0.13333333,0,0,-0.13333333,0,164.65333)" />
      <path
         id="path14"
         d="m 312.449,245.918 h 20 m -20,0 H 1912.65"
         style="fill:none;stroke:#231f20;stroke-width:5;stroke-linecap:butt;stroke-linejoin:miter;stroke-miterlimit:3.25;stroke-dasharray:none;stroke-opacity:1"
         transform="matrix(0.13333333,0,0,-0.13333333,0,164.65333)" />
      <path
         id="path15"
         d="m 282.449,657.992 h 30"
         style="fill:none;stroke:#231f20;stroke-width:5;stroke-linecap:butt;stroke-linejoin:miter;stroke-miterlimit:3.25;stroke-dasharray:none;stroke-opacity:1"
         transform="matrix(0.13333333,0,0,-0.13333333,0,164.65333)" />
      <path
         id="path16"
         d="m 282.449,1070.06 h 30"
         style="fill:none;stroke:#231f20;stroke-width:5;stroke-linecap:butt;stroke-linejoin:miter;stroke-miterlimit:3.25;stroke-dasharray:none;stroke-opacity:1"
         transform="matrix(0.13333333,0,0,-0.13333333,0,164.65333)" />
    </g>
  </g>
</svg>
