<?xml version="1.0" encoding="UTF-8" standalone="no"?>
<!-- Created with Inkscape (http://www.inkscape.org/) -->

<svg
   version="1.1"
   id="svg1"
   width="136.17332"
   height="135.62666"
   viewBox="0 0 136.17332 135.62666"
   sodipodi:docname="pha04f03.eps"
   xmlns:inkscape="http://www.inkscape.org/namespaces/inkscape"
   xmlns:sodipodi="http://sodipodi.sourceforge.net/DTD/sodipodi-0.dtd"
   xmlns="http://www.w3.org/2000/svg"
   xmlns:svg="http://www.w3.org/2000/svg">
  <defs
     id="defs1" />
  <sodipodi:namedview
     id="namedview1"
     pagecolor="#ffffff"
     bordercolor="#000000"
     borderopacity="0.25"
     inkscape:showpageshadow="2"
     inkscape:pageopacity="0.0"
     inkscape:pagecheckerboard="0"
     inkscape:deskcolor="#d1d1d1">
    <inkscape:page
       x="0"
       y="0"
       inkscape:label="1"
       id="page1"
       width="136.17332"
       height="135.62666"
       margin="0"
       bleed="0" />
  </sodipodi:namedview>
  <g
     id="g1"
     inkscape:groupmode="layer"
     inkscape:label="1">
    <g
       id="group-R5">
      <path
         id="path2"
         d="M 205.254,984.645 V 204.063 h 783.394 v 5 H 210.254 v 775.582 h -5"
         style="fill:#231f20;fill-opacity:1;fill-rule:nonzero;stroke:none"
         transform="matrix(0.13333333,0,0,-0.13333333,0,135.62667)" />
      <path
         id="path3"
         d="m 207.754,977.461 14.414,-8.766 0.32,0.493 -9.328,23.503 c -1.805,8.179 -3.605,16.369 -5.406,24.559 -1.801,-8.19 -3.606,-16.38 -5.406,-24.559 l -9.328,-23.503 0.242,-0.493 14.492,8.766"
         style="fill:#231f20;fill-opacity:1;fill-rule:nonzero;stroke:none"
         transform="matrix(0.13333333,0,0,-0.13333333,0,135.62667)" />
      <path
         id="path4"
         d="m 981.469,206.563 -8.77,14.414 0.489,0.32 23.507,-9.328 c 8.185,-1.805 16.375,-3.606 24.555,-5.406 -8.18,-1.801 -16.37,-3.606 -24.555,-5.407 l -23.507,-9.332 -0.489,0.246 8.77,14.493"
         style="fill:#231f20;fill-opacity:1;fill-rule:nonzero;stroke:none"
         transform="matrix(0.13333333,0,0,-0.13333333,0,135.62667)" />
      <path
         id="path5"
         d="M 206.598,210.137 21.2891,24.8281 24.8242,21.293 210.133,206.602 l -3.535,3.535"
         style="fill:#231f20;fill-opacity:1;fill-rule:nonzero;stroke:none"
         transform="matrix(0.13333333,0,0,-0.13333333,0,135.62667)" />
      <path
         id="path6"
         d="M 28.1367,28.1406 44.5273,24.1445 44.4102,23.5664 21.1914,13.5508 C 14.125,9.03125 7.06641,4.51953 0,0 4.51563,7.05859 9.03125,14.1289 13.543,21.1953 l 10.0234,23.2188 0.5195,0.1718 4.0508,-16.4453"
         style="fill:#231f20;fill-opacity:1;fill-rule:nonzero;stroke:none"
         transform="matrix(0.13333333,0,0,-0.13333333,0,135.62667)" />
      <path
         id="path7"
         d="m 221.238,166.93 c -0.148,0 -0.297,0 -0.449,0 -0.016,0 -0.035,0 -0.055,0 -16.543,0 -32.32,1.285 -46.675,3.597 l 33.535,33.536 h 131.488 c -1.469,-2.954 -3.762,-5.875 -6.883,-8.743 -17.586,-16.261 -60.73,-28.39 -110.961,-28.39 m -53.203,4.644 c -12.39,2.317 -23.59,5.414 -33.133,9.117 -10.91,4.219 -19.644,9.239 -25.519,14.629 -5.895,5.414 -8.836,11.024 -8.836,16.672 v 0 c 0,5.649 2.941,11.254 8.836,16.668 15.797,14.61 52.219,25.883 95.871,28.028 v -40.891 l -1.906,-2.266 1.906,-1.605 v -3.133 L 168.035,171.574 M 340.77,209.063 H 212.656 l 4.555,5.414 38.766,40.578 c 10.941,-1.278 21.214,-3.133 30.586,-5.473 18.546,-16.066 37.218,-26.836 53.011,-30.727 0.977,-2.273 1.461,-4.566 1.461,-6.863 0,-0.98 -0.086,-1.957 -0.265,-2.929 m -130.516,13.07 v 34.758 c 3.328,0.109 6.691,0.164 10.09,0.164 0.148,0 0.297,0 0.445,0 0.02,0 0.039,0 0.055,0 5.101,0 10.129,-0.121 15.062,-0.36 l -25.652,-34.562"
         style="fill:#ededed;fill-opacity:1;fill-rule:nonzero;stroke:none"
         transform="matrix(0.13333333,0,0,-0.13333333,0,135.62667)" />
      <path
         id="path8"
         d="M 339.082,204.063 H 207.594 l 2.539,2.539 -3.535,3.535 -1.344,-1.344 v 3.133 l 5.746,-4.832 1.656,1.969 H 340.77 c -0.301,-1.676 -0.864,-3.344 -1.688,-5 m -133.828,11.734 v 40.891 c 1.656,0.082 3.324,0.148 5,0.203 v -34.758 l -2.477,-3.336 -2.523,-3"
         style="fill:#7f7d7e;fill-opacity:1;fill-rule:nonzero;stroke:none"
         transform="matrix(0.13333333,0,0,-0.13333333,0,135.62667)" />
      <path
         id="path9"
         d="m 174.059,170.527 c -2.036,0.332 -4.043,0.68 -6.024,1.047 l 37.219,37.219 1.344,1.344 3.535,-3.535 -2.539,-2.539 -33.535,-33.536"
         style="fill:#7f7d7e;fill-opacity:1;fill-rule:nonzero;stroke:none"
         transform="matrix(0.13333333,0,0,-0.13333333,0,135.62667)" />
      <path
         id="path10"
         d="m 98.0469,211.992 h 2.5001 c 0,5.649 2.941,11.254 8.836,16.668 17.64,16.313 60.988,28.469 111.406,28.395 33.629,0.004 64.074,-5.301 85.891,-13.762 10.91,-4.223 19.644,-9.242 25.519,-14.633 5.895,-5.414 8.836,-11.019 8.836,-16.668 0,-5.648 -2.941,-11.258 -8.836,-16.672 -17.64,-16.308 -60.988,-28.465 -111.41,-28.39 -33.625,-0.008 -64.07,5.297 -85.887,13.761 -10.91,4.219 -19.644,9.239 -25.519,14.629 -5.895,5.414 -8.836,11.024 -8.836,16.672 h -2.5001 -2.5 c 0,-7.484 3.9297,-14.39 10.4571,-20.359 19.629,-17.832 63.527,-29.633 114.785,-29.703 34.16,0.004 65.094,5.343 87.699,14.097 11.305,4.387 20.539,9.614 27.09,15.606 6.527,5.969 10.453,12.875 10.457,20.359 -0.004,7.485 -3.93,14.391 -10.457,20.356 -19.629,17.836 -63.527,29.632 -114.789,29.707 -34.156,-0.004 -65.09,-5.348 -87.695,-14.102 -11.305,-4.383 -20.539,-9.613 -27.09,-15.605 -6.5274,-5.965 -10.4571,-12.871 -10.4571,-20.356 h 2.5"
         style="fill:#231f20;fill-opacity:1;fill-rule:nonzero;stroke:none"
         transform="matrix(0.13333333,0,0,-0.13333333,0,135.62667)" />
      <path
         id="path11"
         d="m 211,207.094 91.508,108.758 -7.653,6.437 -91.507,-108.758 7.652,-6.437"
         style="fill:#231f20;fill-opacity:1;fill-rule:nonzero;stroke:none"
         transform="matrix(0.13333333,0,0,-0.13333333,0,135.62667)" />
      <path
         id="path12"
         d="m 209.141,212.242 82.539,111.207 -4.016,2.981 -82.539,-111.207 4.016,-2.981"
         style="fill:#231f20;fill-opacity:1;fill-rule:nonzero;stroke:none"
         transform="matrix(0.13333333,0,0,-0.13333333,0,135.62667)" />
      <path
         id="path13"
         d="m 210.633,207.59 96.094,100.586 -3.618,3.453 -96.093,-100.586 3.617,-3.453"
         style="fill:#231f20;fill-opacity:1;fill-rule:nonzero;stroke:none"
         transform="matrix(0.13333333,0,0,-0.13333333,0,135.62667)" />
      <path
         id="path14"
         d="m 351.871,217.234 c -2.125,0 -4.332,0.168 -6.617,0.5 -1.449,5.286 -4.856,10.207 -9.676,14.614 -11.574,10.519 -31.594,18.937 -56.582,24.09 -3.711,3.515 -7.398,7.234 -11.047,11.152 l 38.778,40.586 -3.618,3.453 -34.839,-36.469 34.238,40.692 -7.653,6.437 -34.25,-40.703 31.075,41.863 -4.016,2.981 -32.601,-43.926 c -0.114,0.141 -0.227,0.285 -0.34,0.426 -40.91,51.183 -55.821,107.273 -33.313,125.261 4.742,3.789 10.766,5.59 17.703,5.59 26.004,0 64.848,-25.277 97.149,-65.691 40.91,-51.188 55.824,-107.274 33.308,-125.27 -4.738,-3.789 -10.765,-5.586 -17.699,-5.586"
         style="fill:#d1d0d0;fill-opacity:1;fill-rule:nonzero;stroke:none"
         transform="matrix(0.13333333,0,0,-0.13333333,0,135.62667)" />
      <path
         id="path15"
         d="m 339.574,218.855 c -15.793,3.891 -34.465,14.661 -53.011,30.727 7.296,-1.82 14.042,-3.934 20.117,-6.289 10.91,-4.223 19.644,-9.242 25.519,-14.633 3.496,-3.211 5.957,-6.488 7.375,-9.805"
         style="fill:#cdcccd;fill-opacity:1;fill-rule:nonzero;stroke:none"
         transform="matrix(0.13333333,0,0,-0.13333333,0,135.62667)" />
      <path
         id="path16"
         d="m 345.254,217.734 c -1.848,0.27 -3.742,0.645 -5.68,1.121 -1.418,3.317 -3.879,6.594 -7.375,9.805 -5.875,5.391 -14.609,10.41 -25.519,14.633 -6.075,2.355 -12.821,4.469 -20.117,6.289 -2.528,2.188 -5.051,4.477 -7.567,6.856 24.988,-5.153 45.008,-13.571 56.582,-24.09 4.82,-4.407 8.227,-9.328 9.676,-14.614"
         style="fill:#a4a3a3;fill-opacity:1;fill-rule:nonzero;stroke:none"
         transform="matrix(0.13333333,0,0,-0.13333333,0,135.62667)" />
      <path
         id="path17"
         d="m 264.57,271.289 c -2.097,2.344 -4.183,4.754 -6.242,7.223 l 2.277,3.074 34.25,40.703 7.653,-6.437 -34.238,-40.692 -3.7,-3.871"
         style="fill:#a4a3a3;fill-opacity:1;fill-rule:nonzero;stroke:none"
         transform="matrix(0.13333333,0,0,-0.13333333,0,135.62667)" />
      <path
         id="path18"
         d="m 258.328,278.512 c -1.098,1.316 -2.183,2.64 -3.265,3.992 l 32.601,43.926 4.016,-2.981 -31.075,-41.863 -2.277,-3.074"
         style="fill:#a4a3a3;fill-opacity:1;fill-rule:nonzero;stroke:none"
         transform="matrix(0.13333333,0,0,-0.13333333,0,135.62667)" />
      <path
         id="path19"
         d="m 267.949,267.59 c -1.129,1.211 -2.258,2.445 -3.379,3.699 l 3.7,3.871 34.839,36.469 3.618,-3.453 -38.778,-40.586"
         style="fill:#a4a3a3;fill-opacity:1;fill-rule:nonzero;stroke:none"
         transform="matrix(0.13333333,0,0,-0.13333333,0,135.62667)" />
      <path
         id="path20"
         d="m 221.41,408.191 1.563,-1.953 c 4.226,3.375 9.625,5.035 16.14,5.043 12.196,0.028 28.09,-6.051 44.825,-17.269 16.746,-11.199 34.371,-27.461 50.371,-47.485 27.75,-34.656 43.308,-71.722 43.254,-96.589 -0.012,-11.512 -3.239,-20.129 -9.555,-25.165 -4.223,-3.371 -9.621,-5.031 -16.137,-5.039 -12.195,-0.031 -28.09,6.051 -44.824,17.27 -16.746,11.203 -34.371,27.461 -50.371,47.484 -27.75,34.66 -43.309,71.727 -43.254,96.594 0.012,11.512 3.238,20.125 9.551,25.156 l -1.563,1.953 -1.558,1.954 c -7.914,-6.336 -11.442,-16.7 -11.43,-29.063 0.055,-26.809 16.137,-64.352 44.348,-99.715 16.296,-20.387 34.246,-36.976 51.496,-48.519 17.265,-11.524 33.797,-18.086 47.605,-18.114 7.356,-0.007 14.004,1.926 19.262,6.133 7.914,6.34 11.441,16.703 11.43,29.071 -0.055,26.808 -16.137,64.351 -44.348,99.714 -16.301,20.387 -34.246,36.973 -51.496,48.516 -17.266,11.523 -33.797,18.086 -47.606,18.113 -7.355,0.008 -14.008,-1.929 -19.261,-6.136 l 1.558,-1.954"
         style="fill:#231f20;fill-opacity:1;fill-rule:nonzero;stroke:none"
         transform="matrix(0.13333333,0,0,-0.13333333,0,135.62667)" />
      <g
         id="g20"
         aria-label="dA&#10;dA"
         transform="matrix(1.3333333,0,0,1.3333333,31.697333,125.10323)">
        <path
           id="path21"
           d="m 4.6537578,-0.45827938 -0.2929687,-0.0234375 c -0.328125,-0.046875 -0.3867188,-0.0820313 -0.3867188,-0.55078122 v -5.3789063 c -0.3398437,0.1171875 -0.9375,0.2578125 -1.40625,0.3164063 v 0.2109375 c 0.6445313,0.046875 0.6914063,0.082031 0.6914063,0.6679687 v 1.2773438 c -0.2109375,-0.082031 -0.46875,-0.1054688 -0.5976563,-0.1054688 -1.21875,0 -2.32031249,0.984375 -2.32031249,2.2382813 0,1.25390622 0.94921879,1.91015622 1.66406249,1.91015622 0.1054688,0 0.3515625,-0.046875 0.703125,-0.2578125 l 0.5507813,-0.328125 v 0.5859375 c 0.5273437,-0.1875 1.1953125,-0.3046875 1.3945312,-0.33984375 z m -1.3945312,-0.3046875 c -0.2109375,0.1640625 -0.5390625,0.3046875 -0.8671875,0.3046875 -0.5742188,0 -1.2304688,-0.52734375 -1.2304688,-1.59375002 0,-1.3007812 0.7617188,-1.6523437 1.171875,-1.6523437 0.3398438,0 0.7148438,0.140625 0.9257813,0.4570312 z m 0,0"
           style="fill:#231f20;fill-opacity:1;fill-rule:nonzero;stroke:none" />
        <path
           id="path22"
           d="M 10.343211,-0.24734188 C 9.6986797,-0.30593563 9.6400859,-0.38796688 9.5346172,-1.0324981 9.3353984,-2.0989044 9.1361797,-3.2239044 8.9603984,-4.3840606 l -0.2578125,-1.59375 -0.28125,0.070312 -2.7070312,4.8046875 c -0.421875,0.73828122 -0.515625,0.78515622 -1.0546875,0.85546872 l -0.070312,0.24609375 h 1.9335937 l 0.058594,-0.24609375 c -0.6914063,-0.046875 -0.7617188,-0.1171875 -0.4921875,-0.65625 0.1992187,-0.41015622 0.46875,-0.93750002 0.6210937,-1.21875002 h 1.8867188 c 0.09375,0.515625 0.1640625,0.9492188 0.2226562,1.32421877 0.058594,0.38671875 0.023437,0.4921875 -0.5976562,0.55078125 l -0.070312,0.24609375 H 10.284617 Z M 8.5385234,-2.5090606 H 6.9096172 c 0.3867187,-0.7617188 0.8085937,-1.5 1.2539062,-2.3203125 h 0.023437 z m 0,0"
           style="fill:#231f20;fill-opacity:1;fill-rule:nonzero;stroke:none" />
        <path
           id="path23"
           d="m 20.734812,-19.583279 -0.292968,-0.02344 c -0.328125,-0.04687 -0.386719,-0.08203 -0.386719,-0.550781 v -5.378906 c -0.339844,0.117187 -0.9375,0.257812 -1.40625,0.316406 v 0.210937 c 0.644531,0.04687 0.691406,0.08203 0.691406,0.667969 v 1.277344 c -0.210937,-0.08203 -0.46875,-0.105469 -0.597656,-0.105469 -1.21875,0 -2.320313,0.984375 -2.320313,2.238281 0,1.253907 0.949219,1.910157 1.664063,1.910157 0.105469,0 0.351562,-0.04687 0.703125,-0.257813 l 0.550781,-0.328125 v 0.585938 c 0.527344,-0.1875 1.195313,-0.304688 1.394531,-0.339844 z m -1.394531,-0.304688 c -0.210937,0.164063 -0.539062,0.304688 -0.867187,0.304688 -0.574219,0 -1.230469,-0.527344 -1.230469,-1.59375 0,-1.300782 0.761719,-1.652344 1.171875,-1.652344 0.339844,0 0.714844,0.140625 0.925781,0.457031 z m 0,0"
           style="fill:#231f20;fill-opacity:1;fill-rule:nonzero;stroke:none" />
        <path
           id="path24"
           d="m 26.424266,-19.372342 c -0.644532,-0.05859 -0.703125,-0.140625 -0.808594,-0.785156 -0.199219,-1.066406 -0.398438,-2.191406 -0.574219,-3.351563 l -0.257812,-1.59375 -0.28125,0.07031 -2.707032,4.804687 c -0.421875,0.738282 -0.515625,0.785157 -1.054687,0.855469 l -0.07031,0.246094 h 1.933594 l 0.05859,-0.246094 c -0.691406,-0.04687 -0.761719,-0.117187 -0.492188,-0.65625 0.199219,-0.410156 0.46875,-0.9375 0.621094,-1.21875 h 1.886719 c 0.09375,0.515625 0.164062,0.949219 0.222656,1.324219 0.05859,0.386719 0.02344,0.492187 -0.597656,0.550781 l -0.07031,0.246094 h 2.132813 z m -1.804688,-2.261719 h -1.628906 c 0.386719,-0.761718 0.808594,-1.5 1.253906,-2.320312 h 0.02344 z m 0,0"
           style="fill:#231f20;fill-opacity:1;fill-rule:nonzero;stroke:none" />
      </g>
      <path
         id="path25"
         d="m 547.086,300.176 h -38.203 v 3.297 h 17.449 v 37.121 h 3.301 v -37.121 h 17.453 v -3.297"
         style="fill:#231f20;fill-opacity:1;fill-rule:nonzero;stroke:none"
         transform="matrix(0.13333333,0,0,-0.13333333,0,135.62667)" />
      <path
         id="path26"
         d="m 306.715,308.164 407.93,421.508 -3.594,3.476 -407.93,-421.507"
         style="fill:#231f20;fill-opacity:1;fill-rule:nonzero;stroke:none"
         transform="matrix(0.13333333,0,0,-0.13333333,0,135.62667)" />
      <path
         id="path27"
         d="m 301.762,321.953 -1.754,-1.781 c 2.445,-2.375 3.668,-5.281 3.625,-6.957 l -0.492,-1.559 h -0.004 l -1.614,-0.515 c -1.687,-0.039 -4.562,1.14 -6.945,3.531 -2.445,2.371 -3.664,5.269 -3.621,6.949 l 0.496,1.563 1.61,0.515 c 1.687,0.039 4.566,-1.144 6.945,-3.527 l 1.754,1.781 1.758,1.777 c -3.168,3.086 -6.879,4.93 -10.457,4.969 -1.84,0.012 -3.766,-0.574 -5.168,-2.004 -1.379,-1.39 -1.95,-3.273 -1.938,-5.074 0.039,-3.617 1.945,-7.351 5.109,-10.512 3.168,-3.086 6.879,-4.933 10.457,-4.968 1.84,-0.012 3.77,0.578 5.172,2.004 l 0.067,0.066 -0.067,-0.066 c 1.379,1.386 1.95,3.273 1.938,5.07 -0.043,3.621 -1.949,7.351 -5.113,10.515 l -1.758,-1.777"
         style="fill:#231f20;fill-opacity:1;fill-rule:nonzero;stroke:none"
         transform="matrix(0.13333333,0,0,-0.13333333,0,135.62667)" />
      <path
         id="path28"
         d="m 632.676,793.457 -2.02,1.473 c -1.551,-2.121 -2.246,-4.703 -2.238,-7.395 0.047,-6.226 3.371,-13.289 8.898,-20.711 5.551,-7.398 13.422,-15.09 22.954,-22.043 15.855,-11.515 32.101,-18.133 43.785,-18.187 5.41,-0.008 10.195,1.5 13.011,5.332 l -0.05,-0.071 0.047,0.071 c 1.554,2.121 2.246,4.707 2.242,7.394 -0.047,6.227 -3.371,13.293 -8.899,20.711 -5.551,7.399 -13.418,15.086 -22.953,22.035 -15.855,11.52 -32.101,18.137 -43.789,18.192 -5.406,0.008 -10.191,-1.5 -13.008,-5.328 l 2.02,-1.473 2.019,-1.473 c 1.438,2 4.368,3.266 8.969,3.274 9.82,0.051 25.66,-6.11 40.844,-17.231 9.172,-6.679 16.715,-14.078 21.898,-20.996 5.211,-6.898 7.946,-13.383 7.899,-17.711 -0.008,-1.879 -0.45,-3.304 -1.282,-4.449 l 0.051,0.07 -0.051,-0.074 c -1.433,-2.004 -4.367,-3.265 -8.968,-3.273 -9.821,-0.051 -25.657,6.109 -40.84,17.226 -9.168,6.684 -16.711,14.086 -21.899,21.004 -5.211,6.899 -7.945,13.387 -7.898,17.711 0.008,1.883 0.449,3.305 1.277,4.449 l -2.019,1.473"
         style="fill:#231f20;fill-opacity:1;fill-rule:nonzero;stroke:none"
         transform="matrix(0.13333333,0,0,-0.13333333,0,135.62667)" />
      <g
         id="g28"
         aria-label="dω"
         transform="matrix(1.3333333,0,0,1.3333333,92.8568,21.4876)">
        <path
           id="path29"
           d="m 4.6513453,-0.45652031 -0.2929687,-0.0234375 c -0.328125,-0.046875 -0.3867188,-0.0820313 -0.3867188,-0.55078129 v -5.3789062 c -0.3398437,0.1171875 -0.9375,0.2578125 -1.40625,0.3164062 v 0.2109375 c 0.6445313,0.046875 0.6914063,0.082031 0.6914063,0.6679688 v 1.2773437 c -0.2109375,-0.082031 -0.46875,-0.1054687 -0.5976563,-0.1054687 -1.21875,0 -2.32031249,0.984375 -2.32031249,2.2382812 0,1.25390629 0.94921879,1.91015629 1.66406249,1.91015629 0.1054688,0 0.3515625,-0.046875 0.703125,-0.2578125 l 0.5507813,-0.328125 v 0.5859375 c 0.5273437,-0.1875 1.1953125,-0.3046875 1.3945312,-0.33984375 z m -1.3945312,-0.3046875 c -0.2109375,0.1640625 -0.5390625,0.3046875 -0.8671875,0.3046875 -0.5742188,0 -1.2304688,-0.52734375 -1.2304688,-1.59374999 0,-1.3007813 0.7617188,-1.6523438 1.171875,-1.6523438 0.3398438,0 0.7148438,0.140625 0.9257813,0.4570313 z m 0,0"
           style="fill:#231f20;fill-opacity:1;fill-rule:nonzero;stroke:none" />
        <path
           id="path30"
           d="m 9.1103297,-3.8432391 c 0.2929687,0.2578125 0.5039062,0.7148438 0.5039062,1.3828125 -0.011719,1.0078125 -0.3984375,2.05078129 -1.1367187,2.05078129 -0.3046875,0 -0.515625,-0.3046875 -0.4921875,-0.87890629 0.023437,-0.46875 0.234375,-1.359375 0.3515625,-1.7226562 l -0.058594,-0.035156 -0.6679687,0.140625 c -0.035156,0.28125 -0.09375,0.75 -0.1875,1.1367188 -0.1992188,0.85546874 -0.5625,1.31249999 -0.9492188,1.31249999 -0.28125,0 -0.5390625,-0.33984375 -0.5390625,-0.99609379 0,-1.0078125 0.46875,-1.921875 1.1601563,-2.4492187 l -0.140625,-0.1992188 c -1.0429688,0.5390625 -1.7578125,1.5585938 -1.7578125,2.765625 0,0.93750004 0.421875,1.44140629 0.9375,1.44140629 0.3867187,0 0.9023437,-0.3984375 1.2304687,-0.890625 0.046875,0.50390625 0.328125,0.890625 0.7617188,0.890625 0.375,0 0.7382812,-0.22265625 1.0664062,-0.515625 0.5625,-0.52734375 0.9960943,-1.30078129 0.9960943,-2.21484379 0,-0.9023437 -0.398438,-1.4179687 -0.6914068,-1.4179687 -0.1523437,0 -0.3164062,0.070312 -0.375,0.1289062 z m 0,0"
           style="fill:#231f20;fill-opacity:1;fill-rule:nonzero;stroke:none" />
      </g>
      <path
         id="path31"
         d="M 301.551,316.656 705.48,796.73 699.742,801.559 295.813,321.484"
         style="fill:#231f20;fill-opacity:1;fill-rule:nonzero;stroke:none"
         transform="matrix(0.13333333,0,0,-0.13333333,0,135.62667)" />
      <path
         id="path32"
         d="m 695.68,790.902 -25.004,3.86 0.101,0.879 33.407,17.957 c 9.972,7.66 19.941,15.316 29.921,22.972 -5.839,-11.136 -11.679,-22.269 -17.519,-33.414 l -11.981,-35.984 -0.753,-0.328 -8.172,24.058"
         style="fill:#231f20;fill-opacity:1;fill-rule:nonzero;stroke:none"
         transform="matrix(0.13333333,0,0,-0.13333333,0,135.62667)" />
      <path
         id="path33"
         d="m 291.859,324.531 344.106,468.867 -4.031,2.957 -344.106,-468.867"
         style="fill:#231f20;fill-opacity:1;fill-rule:nonzero;stroke:none"
         transform="matrix(0.13333333,0,0,-0.13333333,0,135.62667)" />
    </g>
  </g>
</svg>
