<?xml version="1.0" encoding="UTF-8" standalone="no"?>
<!-- Created with Inkscape (http://www.inkscape.org/) -->

<svg
   version="1.1"
   id="svg1"
   width="364.18668"
   height="169.72"
   viewBox="0 0 364.18668 169.72"
   sodipodi:docname="pha04f32.eps"
   xmlns:inkscape="http://www.inkscape.org/namespaces/inkscape"
   xmlns:sodipodi="http://sodipodi.sourceforge.net/DTD/sodipodi-0.dtd"
   xmlns="http://www.w3.org/2000/svg"
   xmlns:svg="http://www.w3.org/2000/svg">
  <defs
     id="defs1" />
  <sodipodi:namedview
     id="namedview1"
     pagecolor="#ffffff"
     bordercolor="#000000"
     borderopacity="0.25"
     inkscape:showpageshadow="2"
     inkscape:pageopacity="0.0"
     inkscape:pagecheckerboard="0"
     inkscape:deskcolor="#d1d1d1">
    <inkscape:page
       x="0"
       y="0"
       inkscape:label="1"
       id="page1"
       width="364.18668"
       height="169.72"
       margin="0"
       bleed="0" />
  </sodipodi:namedview>
  <g
     id="g1"
     inkscape:groupmode="layer"
     inkscape:label="1">
    <g
       id="group-R5">
      <g
         id="g2"
         aria-label="1.00&#10;0.75&#10;0.50&#10;0.25&#10;400500600&#10;λ&#10;700&#10;(0.95, 0.05, 0.025)&#10;(0.475, 0.025, 0.0125)"
         transform="matrix(1.3333333,0,0,1.3333333,0,9.9053333)">
        <path
           id="path2"
           d="M 3.4570313,6.875e-4 V -0.24540625 C 2.6367188,-0.304 2.578125,-0.3743125 2.578125,-1.0305625 v -4.6875 c -0.4921875,0.1992187 -1.0195313,0.375 -1.59375,0.46875 v 0.2109375 l 0.4335937,0.011719 c 0.3867188,0.023437 0.421875,0.070312 0.421875,0.5390625 v 3.4570313 c 0,0.65625 -0.035156,0.7265625 -0.8554687,0.78515625 V 6.875e-4 Z m 1.8955078,0.10546875 c 0.28125,0 0.5039062,-0.19921875 0.5039062,-0.515625 0,-0.29296875 -0.2226562,-0.515625 -0.5039062,-0.515625 -0.2929688,0 -0.5039063,0.22265625 -0.5039063,0.515625 0,0.31640625 0.2109375,0.515625 0.5039063,0.515625 z M 8.5283203,-5.7180625 c -1.3476562,0 -1.8398437,1.6054687 -1.8398437,2.9179687 0,1.4179688 0.4804687,2.90625005 1.8398437,2.90625005 1.359375,0 1.8281247,-1.59375005 1.8281247,-2.91796875 0,-1.3828125 -0.4687497,-2.90625 -1.8281247,-2.90625 z m 0,0.3046875 c 0.8085938,0 1.03125,1.3242187 1.03125,2.6015625 0,1.265625 -0.2226562,2.61328125 -1.03125,2.61328125 -0.7734375,0 -1.0429687,-1.35937505 -1.0429687,-2.61328125 0,-1.2539063 0.2226562,-2.6015625 1.0429687,-2.6015625 z m 4.3212887,-0.3046875 c -1.347656,0 -1.839843,1.6054687 -1.839843,2.9179687 0,1.4179688 0.480468,2.90625005 1.839843,2.90625005 1.359375,0 1.828125,-1.59375005 1.828125,-2.91796875 0,-1.3828125 -0.46875,-2.90625 -1.828125,-2.90625 z m 0,0.3046875 c 0.808594,0 1.03125,1.3242187 1.03125,2.6015625 0,1.265625 -0.222656,2.61328125 -1.03125,2.61328125 -0.773437,0 -1.042968,-1.35937505 -1.042968,-2.61328125 0,-1.2539063 0.222656,-2.6015625 1.042968,-2.6015625 z M 2.15625,19.002641 c -1.34765625,0 -1.83984375,1.605468 -1.83984375,2.917968 0,1.417969 0.48046875,2.90625 1.83984375,2.90625 1.359375,0 1.828125,-1.59375 1.828125,-2.917968 0,-1.382813 -0.46875,-2.90625 -1.828125,-2.90625 z m 0,0.304687 c 0.8085938,0 1.03125,1.324219 1.03125,2.601563 0,1.265625 -0.2226562,2.613281 -1.03125,2.613281 -0.7734375,0 -1.0429688,-1.359375 -1.0429688,-2.613281 0,-1.253907 0.2226563,-2.601563 1.0429688,-2.601563 z m 3.1962891,5.519531 c 0.28125,0 0.5039062,-0.199218 0.5039062,-0.515625 0,-0.292968 -0.2226562,-0.515625 -0.5039062,-0.515625 -0.2929688,0 -0.5039063,0.222657 -0.5039063,0.515625 0,0.316407 0.2109375,0.515625 0.5039063,0.515625 z M 10.391602,19.119828 H 6.9580078 c -0.035156,0.386719 -0.082031,0.832031 -0.1640625,1.324219 h 0.2578125 c 0.2226563,-0.585938 0.2695313,-0.667969 0.8671875,-0.667969 h 1.9453125 c -0.7148437,1.558594 -1.7226562,3.421875 -2.671875,4.957031 l 0.058594,0.09375 0.6679687,-0.08203 C 8.786133,22.881548 9.6181643,21.053423 10.461914,19.225298 Z m 1.672851,0.65625 h 2.097656 l 0.234375,-0.585937 -0.05859,-0.07031 h -2.566407 l -0.351562,2.742188 c 0.210937,-0.08203 0.550781,-0.1875 0.925781,-0.1875 0.984375,0 1.464844,0.574218 1.464844,1.359375 0,0.679687 -0.375,1.335937 -1.136719,1.335937 -0.550781,0 -0.914062,-0.292969 -1.113281,-0.457031 -0.08203,-0.07031 -0.152344,-0.05859 -0.234375,0 -0.105469,0.09375 -0.1875,0.210937 -0.1875,0.292969 -0.02344,0.105468 0.02344,0.1875 0.140625,0.304687 0.128906,0.128906 0.515625,0.316406 0.925781,0.316406 0.480469,-0.01172 1.078125,-0.246093 1.570313,-0.632812 0.550781,-0.457031 0.796875,-0.960938 0.796875,-1.511719 0,-0.738281 -0.585938,-1.511719 -1.734375,-1.511719 -0.246094,0 -0.667969,0.140625 -1.007813,0.269532 z M 2.15625,43.720414 c -1.34765625,0 -1.83984375,1.605469 -1.83984375,2.917969 0,1.417969 0.48046875,2.90625 1.83984375,2.90625 1.359375,0 1.828125,-1.59375 1.828125,-2.917969 0,-1.382812 -0.46875,-2.90625 -1.828125,-2.90625 z m 0,0.304688 c 0.8085938,0 1.03125,1.324218 1.03125,2.601562 0,1.265625 -0.2226562,2.613281 -1.03125,2.613281 -0.7734375,0 -1.0429688,-1.359375 -1.0429688,-2.613281 0,-1.253906 0.2226563,-2.601562 1.0429688,-2.601562 z m 3.1962891,5.519531 c 0.28125,0 0.5039062,-0.199219 0.5039062,-0.515625 0,-0.292969 -0.2226562,-0.515625 -0.5039062,-0.515625 -0.2929688,0 -0.5039063,0.222656 -0.5039063,0.515625 0,0.316406 0.2109375,0.515625 0.5039063,0.515625 z m 2.390625,-5.050781 h 2.0976562 l 0.2343747,-0.585938 -0.05859,-0.07031 H 7.4501953 l -0.3515625,2.742187 c 0.2109375,-0.08203 0.5507813,-0.1875 0.9257813,-0.1875 0.984375,0 1.4648437,0.574219 1.4648437,1.359375 0,0.679688 -0.375,1.335938 -1.1367187,1.335938 -0.5507813,0 -0.9140625,-0.292969 -1.1132813,-0.457032 -0.082031,-0.07031 -0.1523437,-0.05859 -0.234375,0 -0.1054687,0.09375 -0.1875,0.210938 -0.1875,0.292969 -0.023437,0.105469 0.023437,0.1875 0.140625,0.304688 0.1289063,0.128906 0.515625,0.316406 0.9257813,0.316406 0.4804687,-0.01172 1.078125,-0.246094 1.5703125,-0.632813 0.5507814,-0.457031 0.7968754,-0.960937 0.7968754,-1.511718 0,-0.738282 -0.5859379,-1.511719 -1.7343754,-1.511719 -0.2460938,0 -0.6679688,0.140625 -1.0078125,0.269531 z m 5.1064449,-0.773438 c -1.347656,0 -1.839843,1.605469 -1.839843,2.917969 0,1.417969 0.480468,2.90625 1.839843,2.90625 1.359375,0 1.828125,-1.59375 1.828125,-2.917969 0,-1.382812 -0.46875,-2.90625 -1.828125,-2.90625 z m 0,0.304688 c 0.808594,0 1.03125,1.324218 1.03125,2.601562 0,1.265625 -0.222656,2.613281 -1.03125,2.613281 -0.773437,0 -1.042968,-1.359375 -1.042968,-2.613281 0,-1.253906 0.222656,-2.601562 1.042968,-2.601562 z M 2.15625,68.441117 c -1.34765625,0 -1.83984375,1.605469 -1.83984375,2.917969 0,1.417969 0.48046875,2.90625 1.83984375,2.90625 1.359375,0 1.828125,-1.59375 1.828125,-2.917969 0,-1.382812 -0.46875,-2.90625 -1.828125,-2.90625 z m 0,0.304688 c 0.8085938,0 1.03125,1.324218 1.03125,2.601562 0,1.265625 -0.2226562,2.613281 -1.03125,2.613281 -0.7734375,0 -1.0429688,-1.359375 -1.0429688,-2.613281 0,-1.253906 0.2226563,-2.601562 1.0429688,-2.601562 z m 3.1962891,5.519531 c 0.28125,0 0.5039062,-0.199219 0.5039062,-0.515625 0,-0.292969 -0.2226562,-0.515625 -0.5039062,-0.515625 -0.2929688,0 -0.5039063,0.222656 -0.5039063,0.515625 0,0.316406 0.2109375,0.515625 0.5039063,0.515625 z m 4.7226559,-1.371094 c -0.2695309,0.574219 -0.3867184,0.609375 -0.8671872,0.609375 h -1.6875 L 8.7978516,72.16768 c 0.8320312,-0.890625 1.1953125,-1.417969 1.1953125,-2.203125 0,-0.949219 -0.7265625,-1.523438 -1.5117188,-1.523438 -0.5273437,0 -0.9492187,0.234375 -1.21875,0.539063 l -0.515625,0.726562 0.1992188,0.175781 c 0.234375,-0.351562 0.609375,-0.832031 1.2304687,-0.832031 0.65625,0 1.0546875,0.433594 1.0546875,1.195313 0,0.773437 -0.5625,1.511718 -1.125,2.179687 -0.4453125,0.515625 -0.9492187,1.03125 -1.453125,1.523438 v 0.210937 h 3.3632817 c 0.105468,-0.410156 0.199218,-0.796875 0.316406,-1.183594 z m 1.989258,-3.679687 h 2.097656 l 0.234375,-0.585938 -0.05859,-0.07031 h -2.566407 l -0.351562,2.742187 c 0.210937,-0.08203 0.550781,-0.1875 0.925781,-0.1875 0.984375,0 1.464844,0.574219 1.464844,1.359375 0,0.679688 -0.375,1.335938 -1.136719,1.335938 -0.550781,0 -0.914062,-0.292969 -1.113281,-0.457032 -0.08203,-0.07031 -0.152344,-0.05859 -0.234375,0 -0.105469,0.09375 -0.1875,0.210938 -0.1875,0.292969 -0.02344,0.105469 0.02344,0.1875 0.140625,0.304688 0.128906,0.128906 0.515625,0.316406 0.925781,0.316406 0.480469,-0.01172 1.078125,-0.246094 1.570313,-0.632813 0.550781,-0.457031 0.796875,-0.960937 0.796875,-1.511718 0,-0.738282 -0.585938,-1.511719 -1.734375,-1.511719 -0.246094,0 -0.667969,0.140625 -1.007813,0.269531 z M 26.99707,105.01534 v -0.42188 h -0.867187 v -3.65625 H 25.77832 c -0.925781,1.21875 -1.851562,2.55469 -2.707031,3.83203 v 0.2461 h 2.34375 v 0.65625 c 0,0.58593 -0.03516,0.64453 -0.820312,0.70312 v 0.24609 h 2.308593 v -0.24609 c -0.726562,-0.0586 -0.773437,-0.10547 -0.773437,-0.70312 v -0.65625 z m -1.582031,-0.42188 h -1.769531 c 0.585937,-0.99609 1.171875,-1.85156 1.757812,-2.64844 h 0.01172 z m 3.955078,-3.69141 c -1.347656,0 -1.839844,1.60547 -1.839844,2.91797 0,1.41797 0.480469,2.90625 1.839844,2.90625 1.359375,0 1.828125,-1.59375 1.828125,-2.91797 0,-1.38281 -0.46875,-2.90625 -1.828125,-2.90625 z m 0,0.30469 c 0.808594,0 1.03125,1.32422 1.03125,2.60156 0,1.26563 -0.222656,2.61329 -1.03125,2.61329 -0.773437,0 -1.042969,-1.35938 -1.042969,-2.61329 0,-1.2539 0.222657,-2.60156 1.042969,-2.60156 z m 4.321289,-0.30469 c -1.347656,0 -1.839844,1.60547 -1.839844,2.91797 0,1.41797 0.480469,2.90625 1.839844,2.90625 1.359375,0 1.828125,-1.59375 1.828125,-2.91797 0,-1.38281 -0.46875,-2.90625 -1.828125,-2.90625 z m 0,0.30469 c 0.808594,0 1.03125,1.32422 1.03125,2.60156 0,1.26563 -0.222656,2.61329 -1.03125,2.61329 -0.773437,0 -1.042969,-1.35938 -1.042969,-2.61329 0,-1.2539 0.222657,-2.60156 1.042969,-2.60156 z m 36.292969,0.46875 h 2.097656 l 0.234375,-0.58594 -0.05859,-0.0703 H 69.69141 l -0.351562,2.74219 c 0.210937,-0.082 0.550781,-0.1875 0.925781,-0.1875 0.984375,0 1.464844,0.57422 1.464844,1.35937 0,0.67969 -0.375,1.33594 -1.136719,1.33594 -0.550781,0 -0.914063,-0.29297 -1.113281,-0.45703 -0.08203,-0.0703 -0.152344,-0.0586 -0.234375,0 -0.105469,0.0937 -0.1875,0.21094 -0.1875,0.29297 -0.02344,0.10547 0.02344,0.1875 0.140625,0.30469 0.128906,0.1289 0.515625,0.3164 0.925781,0.3164 0.480469,-0.0117 1.078125,-0.24609 1.570312,-0.63281 0.550782,-0.45703 0.796875,-0.96094 0.796875,-1.51172 0,-0.73828 -0.585937,-1.51172 -1.734375,-1.51172 -0.246093,0 -0.667968,0.14063 -1.007812,0.26953 z m 5.106445,-0.77344 c -1.347656,0 -1.839843,1.60547 -1.839843,2.91797 0,1.41797 0.480468,2.90625 1.839843,2.90625 1.359375,0 1.828125,-1.59375 1.828125,-2.91797 0,-1.38281 -0.46875,-2.90625 -1.828125,-2.90625 z m 0,0.30469 c 0.808594,0 1.03125,1.32422 1.03125,2.60156 0,1.26563 -0.222656,2.61329 -1.03125,2.61329 -0.773437,0 -1.042968,-1.35938 -1.042968,-2.61329 0,-1.2539 0.222656,-2.60156 1.042968,-2.60156 z m 4.31836,-0.30469 c -1.347657,0 -1.839844,1.60547 -1.839844,2.91797 0,1.41797 0.480469,2.90625 1.839844,2.90625 1.359375,0 1.828125,-1.59375 1.828125,-2.91797 0,-1.38281 -0.46875,-2.90625 -1.828125,-2.90625 z m 0,0.30469 c 0.808593,0 1.03125,1.32422 1.03125,2.60156 0,1.26563 -0.222657,2.61329 -1.03125,2.61329 -0.773438,0 -1.042969,-1.35938 -1.042969,-2.61329 0,-1.2539 0.222656,-2.60156 1.042969,-2.60156 z m 36.15527,2.33203 c 0.26953,-1.2539 1.11328,-1.82812 1.66407,-2.08593 0.32812,-0.15235 0.67968,-0.25782 0.97265,-0.31641 l -0.0586,-0.28125 c -0.36328,0.0586 -0.79688,0.16406 -1.14844,0.28125 -0.96094,0.35156 -2.33203,1.37109 -2.33203,3.33984 0,1.38282 0.79687,2.25 1.85156,2.25 1.07813,0 1.83985,-0.90234 1.83985,-1.98047 0,-0.92578 -0.65625,-1.66406 -1.61719,-1.66406 -0.17578,0 -0.36328,0.0703 -0.5625,0.15235 z m 0.82032,0.0469 c 0.82031,0 1.19531,0.73828 1.19531,1.48828 0,0.59766 -0.21094,1.34766 -0.91406,1.34766 -0.73829,0 -1.19532,-0.87891 -1.19532,-1.95704 0,-0.23437 0.0117,-0.45703 0.0469,-0.62109 0.22265,-0.11719 0.52734,-0.25781 0.86719,-0.25781 z m 4.42382,-2.6836 c -1.34765,0 -1.83984,1.60547 -1.83984,2.91797 0,1.41797 0.48047,2.90625 1.83984,2.90625 1.35938,0 1.82813,-1.59375 1.82813,-2.91797 0,-1.38281 -0.46875,-2.90625 -1.82813,-2.90625 z m 0,0.30469 c 0.8086,0 1.03125,1.32422 1.03125,2.60156 0,1.26563 -0.22265,2.61329 -1.03125,2.61329 -0.77343,0 -1.04296,-1.35938 -1.04296,-2.61329 0,-1.2539 0.22265,-2.60156 1.04296,-2.60156 z m 4.32129,-0.30469 c -1.34765,0 -1.83984,1.60547 -1.83984,2.91797 0,1.41797 0.48047,2.90625 1.83984,2.90625 1.35938,0 1.82813,-1.59375 1.82813,-2.91797 0,-1.38281 -0.46875,-2.90625 -1.82813,-2.90625 z m 0,0.30469 c 0.8086,0 1.03125,1.32422 1.03125,2.60156 0,1.26563 -0.22265,2.61329 -1.03125,2.61329 -0.77343,0 -1.04297,-1.35938 -1.04297,-2.61329 0,-1.2539 0.22266,-2.60156 1.04297,-2.60156 z m 0,0"
           style="fill:#231f20;fill-opacity:1;fill-rule:nonzero;stroke:none" />
        <path
           id="path3"
           d="m 101.83008,115.59151 c -0.28125,0.38672 -0.50391,0.52734 -0.59766,0.52734 -0.082,0 -0.14062,-0.0937 -0.19922,-0.49219 -0.16406,-1.13671 -0.29297,-2.60156 -0.36328,-3.33984 -0.15234,-1.72266 -0.46875,-2.07422 -0.937498,-2.07422 -0.257813,0 -0.632813,0.17578 -0.84375,0.35156 l 0.05859,0.22266 c 0.117187,-0.0469 0.257812,-0.0937 0.386718,-0.0937 0.28125,0.0117 0.480469,0.17578 0.609375,0.97266 0.05859,0.33984 0.09374,0.70312 0.117195,1.13672 -0.609382,1.4414 -1.582038,2.89453 -2.285163,3.76171 l 0.07031,0.16407 c 0.222656,-0.0469 0.433594,-0.10547 0.632813,-0.16407 0.351562,-0.5039 1.207031,-2.14453 1.65234,-3.16406 0.0352,0.64453 0.10547,1.24219 0.23437,2.35547 0.0586,0.64453 0.21094,0.97266 0.50391,0.97266 0.26953,0 0.66797,-0.22266 1.13672,-0.9375 z m 0,0"
           style="fill:#231f20;fill-opacity:1;fill-rule:nonzero;stroke:none" />
        <path
           id="path4"
           d="m 164.07129,101.01924 h -3.43359 c -0.0352,0.38672 -0.082,0.83203 -0.16407,1.32422 h 0.25782 c 0.22265,-0.58594 0.26953,-0.66797 0.86718,-0.66797 h 1.94532 c -0.71485,1.5586 -1.72266,3.42188 -2.67188,4.95703 l 0.0586,0.0937 0.66797,-0.082 c 0.86719,-1.86328 1.69922,-3.6914 2.54297,-5.51953 z m 2.45801,-0.11719 c -1.34766,0 -1.83985,1.60547 -1.83985,2.91797 0,1.41797 0.48047,2.90625 1.83985,2.90625 1.35937,0 1.82812,-1.59375 1.82812,-2.91797 0,-1.38281 -0.46875,-2.90625 -1.82812,-2.90625 z m 0,0.30469 c 0.80859,0 1.03125,1.32422 1.03125,2.60156 0,1.26563 -0.22266,2.61329 -1.03125,2.61329 -0.77344,0 -1.04297,-1.35938 -1.04297,-2.61329 0,-1.2539 0.22265,-2.60156 1.04297,-2.60156 z m 4.31836,-0.30469 c -1.34766,0 -1.83985,1.60547 -1.83985,2.91797 0,1.41797 0.48047,2.90625 1.83985,2.90625 1.35937,0 1.82812,-1.59375 1.82812,-2.91797 0,-1.38281 -0.46875,-2.90625 -1.82812,-2.90625 z m 0,0.30469 c 0.80859,0 1.03125,1.32422 1.03125,2.60156 0,1.26563 -0.22266,2.61329 -1.03125,2.61329 -0.77344,0 -1.04297,-1.35938 -1.04297,-2.61329 0,-1.2539 0.22265,-2.60156 1.04297,-2.60156 z m 28.25683,-53.929685 c -0.89062,-0.761719 -1.40625,-2.203125 -1.40625,-3.75 0,-1.546875 0.51563,-3 1.40625,-3.75 l -0.15234,-0.210938 c -1.32422,0.902344 -1.91016,2.332031 -1.91016,3.949219 0,1.628906 0.58594,3.082031 1.91016,3.960937 z m 2.5752,-7.042969 c -1.34766,0 -1.83985,1.605469 -1.83985,2.917969 0,1.417968 0.48047,2.90625 1.83985,2.90625 1.35937,0 1.82812,-1.59375 1.82812,-2.917969 0,-1.382813 -0.46875,-2.90625 -1.82812,-2.90625 z m 0,0.304687 c 0.80859,0 1.03125,1.324219 1.03125,2.601563 0,1.265625 -0.22266,2.613281 -1.03125,2.613281 -0.77344,0 -1.04297,-1.359375 -1.04297,-2.613281 0,-1.253906 0.22265,-2.601563 1.04297,-2.601563 z m 3.19336,5.519532 c 0.28125,0 0.5039,-0.199219 0.5039,-0.515625 0,-0.292969 -0.22265,-0.515625 -0.5039,-0.515625 -0.29297,0 -0.50391,0.222656 -0.50391,0.515625 0,0.316406 0.21094,0.515625 0.50391,0.515625 z m 3.20215,-5.824219 c -1.16016,0 -1.83985,1.054687 -1.83985,1.921875 0,0.949219 0.65625,1.640625 1.61719,1.640625 0.16406,0 0.33984,-0.03516 0.53906,-0.140625 l 0.59766,-0.316406 c -0.29297,1.359375 -1.27735,2.261718 -2.56641,2.472656 l 0.0469,0.28125 c 0.22265,0 0.77343,-0.09375 1.26562,-0.292969 1.20703,-0.492187 2.1211,-1.652344 2.1211,-3.316406 0,-1.21875 -0.65625,-2.25 -1.78125,-2.25 z m -0.11719,0.304687 c 0.86719,0 1.10156,1.113282 1.10156,1.898438 0,0.1875 0,0.398437 -0.0352,0.597656 -0.1875,0.140625 -0.49218,0.257813 -0.80859,0.257813 -0.75,0 -1.20703,-0.65625 -1.20703,-1.453125 0,-0.527344 0.25781,-1.300782 0.94922,-1.300782 z m 3.62695,0.46875 h 2.09766 l 0.23437,-0.585937 -0.0586,-0.07031 h -2.56641 l -0.35156,2.742188 c 0.21094,-0.08203 0.55078,-0.1875 0.92578,-0.1875 0.98438,0 1.46484,0.574219 1.46484,1.359375 0,0.679687 -0.375,1.335937 -1.13671,1.335937 -0.55079,0 -0.91407,-0.292968 -1.11329,-0.457031 -0.082,-0.07031 -0.15234,-0.05859 -0.23437,0 -0.10547,0.09375 -0.1875,0.210938 -0.1875,0.292969 -0.0234,0.105469 0.0234,0.1875 0.14062,0.304687 0.12891,0.128907 0.51563,0.316407 0.92579,0.316407 0.48046,-0.01172 1.07812,-0.246094 1.57031,-0.632813 0.55078,-0.457031 0.79687,-0.960937 0.79687,-1.511719 0,-0.738281 -0.58593,-1.511718 -1.73437,-1.511718 -0.2461,0 -0.66797,0.140625 -1.00781,0.269531 z m 3.79395,3.785157 c -0.21094,0 -0.4336,0.140625 -0.4336,0.363281 0,0.152344 0.0703,0.222656 0.11719,0.234375 0.30469,0.07031 0.5625,0.269531 0.5625,0.597656 0,0.339844 -0.25781,0.574219 -0.69141,0.761719 l 0.0937,0.257812 c 0.55078,-0.164062 1.1836,-0.550781 1.1836,-1.242187 0,-0.632813 -0.50391,-0.972656 -0.83203,-0.972656 z m 5.40527,-4.558594 c -1.34766,0 -1.83984,1.605469 -1.83984,2.917969 0,1.417968 0.48046,2.90625 1.83984,2.90625 1.35937,0 1.82812,-1.59375 1.82812,-2.917969 0,-1.382813 -0.46875,-2.90625 -1.82812,-2.90625 z m 0,0.304687 c 0.80859,0 1.03125,1.324219 1.03125,2.601563 0,1.265625 -0.22266,2.613281 -1.03125,2.613281 -0.77344,0 -1.04297,-1.359375 -1.04297,-2.613281 0,-1.253906 0.22266,-2.601563 1.04297,-2.601563 z m 3.19629,5.519532 c 0.28125,0 0.5039,-0.199219 0.5039,-0.515625 0,-0.292969 -0.22265,-0.515625 -0.5039,-0.515625 -0.29297,0 -0.50391,0.222656 -0.50391,0.515625 0,0.316406 0.21094,0.515625 0.50391,0.515625 z m 3.17578,-5.824219 c -1.34766,0 -1.83984,1.605469 -1.83984,2.917969 0,1.417968 0.48046,2.90625 1.83984,2.90625 1.35937,0 1.82812,-1.59375 1.82812,-2.917969 0,-1.382813 -0.46875,-2.90625 -1.82812,-2.90625 z m 0,0.304687 c 0.80859,0 1.03125,1.324219 1.03125,2.601563 0,1.265625 -0.22266,2.613281 -1.03125,2.613281 -0.77344,0 -1.04297,-1.359375 -1.04297,-2.613281 0,-1.253906 0.22266,-2.601563 1.04297,-2.601563 z m 3.53613,0.46875 h 2.09766 l 0.23437,-0.585937 -0.0586,-0.07031 h -2.56641 l -0.35156,2.742188 c 0.21094,-0.08203 0.55078,-0.1875 0.92578,-0.1875 0.98438,0 1.46485,0.574219 1.46485,1.359375 0,0.679687 -0.375,1.335937 -1.13672,1.335937 -0.55078,0 -0.91406,-0.292968 -1.11328,-0.457031 -0.082,-0.07031 -0.15235,-0.05859 -0.23438,0 -0.10547,0.09375 -0.1875,0.210938 -0.1875,0.292969 -0.0234,0.105469 0.0234,0.1875 0.14063,0.304687 0.1289,0.128907 0.51562,0.316407 0.92578,0.316407 0.48047,-0.01172 1.07812,-0.246094 1.57031,-0.632813 0.55078,-0.457031 0.79688,-0.960937 0.79688,-1.511719 0,-0.738281 -0.58594,-1.511718 -1.73438,-1.511718 -0.24609,0 -0.66797,0.140625 -1.00781,0.269531 z m 3.79395,3.785157 c -0.21094,0 -0.4336,0.140625 -0.4336,0.363281 0,0.152344 0.0703,0.222656 0.11719,0.234375 0.30469,0.07031 0.5625,0.269531 0.5625,0.597656 0,0.339844 -0.25781,0.574219 -0.6914,0.761719 l 0.0937,0.257812 c 0.55078,-0.164062 1.18359,-0.550781 1.18359,-1.242187 0,-0.632813 -0.50391,-0.972656 -0.83203,-0.972656 z m 5.40527,-4.558594 c -1.34765,0 -1.83984,1.605469 -1.83984,2.917969 0,1.417968 0.48047,2.90625 1.83984,2.90625 1.35938,0 1.82813,-1.59375 1.82813,-2.917969 0,-1.382813 -0.46875,-2.90625 -1.82813,-2.90625 z m 0,0.304687 c 0.8086,0 1.03125,1.324219 1.03125,2.601563 0,1.265625 -0.22265,2.613281 -1.03125,2.613281 -0.77344,0 -1.04297,-1.359375 -1.04297,-2.613281 0,-1.253906 0.22266,-2.601563 1.04297,-2.601563 z m 3.19629,5.519532 c 0.28125,0 0.50391,-0.199219 0.50391,-0.515625 0,-0.292969 -0.22266,-0.515625 -0.50391,-0.515625 -0.29297,0 -0.50391,0.222656 -0.50391,0.515625 0,0.316406 0.21094,0.515625 0.50391,0.515625 z m 3.17578,-5.824219 c -1.34765,0 -1.83984,1.605469 -1.83984,2.917969 0,1.417968 0.48047,2.90625 1.83984,2.90625 1.35938,0 1.82813,-1.59375 1.82813,-2.917969 0,-1.382813 -0.46875,-2.90625 -1.82813,-2.90625 z m 0,0.304687 c 0.8086,0 1.03125,1.324219 1.03125,2.601563 0,1.265625 -0.22265,2.613281 -1.03125,2.613281 -0.77344,0 -1.04297,-1.359375 -1.04297,-2.613281 0,-1.253906 0.22266,-2.601563 1.04297,-2.601563 z m 5.86817,4.148438 c -0.26954,0.574219 -0.38672,0.609375 -0.86719,0.609375 h -1.6875 l 1.27734,-1.335938 c 0.83203,-0.890625 1.19531,-1.417968 1.19531,-2.203125 0,-0.949218 -0.72656,-1.523437 -1.51171,-1.523437 -0.52735,0 -0.94922,0.234375 -1.21875,0.539062 l -0.51563,0.726563 0.19922,0.175781 c 0.23437,-0.351562 0.60937,-0.832031 1.23047,-0.832031 0.65625,0 1.05469,0.433594 1.05469,1.195312 0,0.773438 -0.5625,1.511719 -1.125,2.179688 -0.44532,0.515625 -0.94922,1.03125 -1.45313,1.523437 v 0.210938 h 3.36328 c 0.10547,-0.410156 0.19922,-0.796875 0.31641,-1.183594 z m 1.98632,-3.679688 h 2.09766 l 0.23438,-0.585937 -0.0586,-0.07031 h -2.5664 l -0.35157,2.742188 c 0.21094,-0.08203 0.55078,-0.1875 0.92578,-0.1875 0.98438,0 1.46485,0.574219 1.46485,1.359375 0,0.679687 -0.375,1.335937 -1.13672,1.335937 -0.55078,0 -0.91406,-0.292968 -1.11328,-0.457031 -0.082,-0.07031 -0.15235,-0.05859 -0.23438,0 -0.10547,0.09375 -0.1875,0.210938 -0.1875,0.292969 -0.0234,0.105469 0.0234,0.1875 0.14063,0.304687 0.1289,0.128907 0.51562,0.316407 0.92578,0.316407 0.48047,-0.01172 1.07812,-0.246094 1.57031,-0.632813 0.55078,-0.457031 0.79688,-0.960937 0.79688,-1.511719 0,-0.738281 -0.58594,-1.511718 -1.73438,-1.511718 -0.24609,0 -0.66797,0.140625 -1.00781,0.269531 z m 3.36036,-1.230468 c 0.89062,0.738281 1.41796,2.203125 1.41796,3.75 0,1.546875 -0.5039,2.988281 -1.41796,3.75 l 0.16406,0.199218 c 1.34765,-0.914062 1.89844,-2.332031 1.89844,-3.949218 0,-1.628907 -0.55079,-3.058594 -1.89844,-3.960938 z m -58.37403,22.5 c -0.89062,-0.761719 -1.40625,-2.203125 -1.40625,-3.75 0,-1.546875 0.51563,-3 1.40625,-3.75 l -0.15234,-0.210938 c -1.32422,0.902344 -1.91016,2.332031 -1.91016,3.949219 0,1.628906 0.58594,3.082031 1.91016,3.960937 z m 2.5752,-7.042969 c -1.34766,0 -1.83985,1.605469 -1.83985,2.917969 0,1.417968 0.48047,2.90625 1.83985,2.90625 1.35937,0 1.82812,-1.59375 1.82812,-2.917969 0,-1.382813 -0.46875,-2.90625 -1.82812,-2.90625 z m 0,0.304687 c 0.80859,0 1.03125,1.324219 1.03125,2.601563 0,1.265625 -0.22266,2.613281 -1.03125,2.613281 -0.77344,0 -1.04297,-1.359375 -1.04297,-2.613281 0,-1.253906 0.22265,-2.601563 1.04297,-2.601563 z m 3.19336,5.519532 c 0.28125,0 0.5039,-0.199219 0.5039,-0.515625 0,-0.292969 -0.22265,-0.515625 -0.5039,-0.515625 -0.29297,0 -0.50391,0.222656 -0.50391,0.515625 0,0.316406 0.21094,0.515625 0.50391,0.515625 z m 5.12402,-1.710938 v -0.421875 h -0.86719 v -3.65625 h -0.35156 c -0.92578,1.21875 -1.85156,2.554688 -2.70703,3.832031 v 0.246094 h 2.34375 v 0.65625 c 0,0.585938 -0.0352,0.644531 -0.82031,0.703125 v 0.246094 h 2.30859 v -0.246094 c -0.72656,-0.05859 -0.77344,-0.105469 -0.77344,-0.703125 v -0.65625 z m -1.58203,-0.421875 h -1.76953 c 0.58594,-0.996094 1.17187,-1.851562 1.75781,-2.648437 h 0.0117 z m 5.81836,-3.574219 h -3.4336 c -0.0352,0.386719 -0.082,0.832032 -0.16406,1.324219 h 0.25781 c 0.22266,-0.585937 0.26954,-0.667969 0.86719,-0.667969 h 1.94531 c -0.71484,1.558594 -1.72265,3.421875 -2.67187,4.957032 l 0.0586,0.09375 0.66797,-0.08203 c 0.86719,-1.863281 1.69922,-3.691406 2.54297,-5.519531 z m 1.67285,0.65625 h 2.09766 l 0.23437,-0.585937 -0.0586,-0.07031 h -2.56641 l -0.35156,2.742188 c 0.21094,-0.08203 0.55078,-0.1875 0.92578,-0.1875 0.98437,0 1.46484,0.574219 1.46484,1.359375 0,0.679687 -0.375,1.335937 -1.13672,1.335937 -0.55078,0 -0.91406,-0.292968 -1.11328,-0.457031 -0.082,-0.07031 -0.15234,-0.05859 -0.23437,0 -0.10547,0.09375 -0.1875,0.210938 -0.1875,0.292969 -0.0234,0.105469 0.0234,0.1875 0.14062,0.304687 0.12891,0.128907 0.51563,0.316407 0.92578,0.316407 0.48047,-0.01172 1.07813,-0.246094 1.57032,-0.632813 0.55078,-0.457031 0.79687,-0.960937 0.79687,-1.511719 0,-0.738281 -0.58594,-1.511718 -1.73437,-1.511718 -0.2461,0 -0.66797,0.140625 -1.00782,0.269531 z m 3.79102,3.785157 c -0.21094,0 -0.4336,0.140625 -0.4336,0.363281 0,0.152344 0.0703,0.222656 0.11719,0.234375 0.30469,0.07031 0.5625,0.269531 0.5625,0.597656 0,0.339844 -0.25781,0.574219 -0.69141,0.761719 l 0.0937,0.257812 c 0.55078,-0.164062 1.1836,-0.550781 1.1836,-1.242187 0,-0.632813 -0.50391,-0.972656 -0.83203,-0.972656 z m 5.4082,-4.558594 c -1.34766,0 -1.83985,1.605469 -1.83985,2.917969 0,1.417968 0.48047,2.90625 1.83985,2.90625 1.35937,0 1.82812,-1.59375 1.82812,-2.917969 0,-1.382813 -0.46875,-2.90625 -1.82812,-2.90625 z m 0,0.304687 c 0.80859,0 1.03125,1.324219 1.03125,2.601563 0,1.265625 -0.22266,2.613281 -1.03125,2.613281 -0.77344,0 -1.04297,-1.359375 -1.04297,-2.613281 0,-1.253906 0.22266,-2.601563 1.04297,-2.601563 z m 3.19629,5.519532 c 0.28125,0 0.5039,-0.199219 0.5039,-0.515625 0,-0.292969 -0.22265,-0.515625 -0.5039,-0.515625 -0.29297,0 -0.50391,0.222656 -0.50391,0.515625 0,0.316406 0.21094,0.515625 0.50391,0.515625 z m 3.17578,-5.824219 c -1.34766,0 -1.83984,1.605469 -1.83984,2.917969 0,1.417968 0.48046,2.90625 1.83984,2.90625 1.35937,0 1.82812,-1.59375 1.82812,-2.917969 0,-1.382813 -0.46875,-2.90625 -1.82812,-2.90625 z m 0,0.304687 c 0.80859,0 1.03125,1.324219 1.03125,2.601563 0,1.265625 -0.22266,2.613281 -1.03125,2.613281 -0.77344,0 -1.04297,-1.359375 -1.04297,-2.613281 0,-1.253906 0.22266,-2.601563 1.04297,-2.601563 z m 5.86816,4.148438 c -0.26953,0.574219 -0.38672,0.609375 -0.86718,0.609375 h -1.6875 l 1.27734,-1.335938 c 0.83203,-0.890625 1.19531,-1.417968 1.19531,-2.203125 0,-0.949218 -0.72656,-1.523437 -1.51172,-1.523437 -0.52734,0 -0.94922,0.234375 -1.21875,0.539062 l -0.51562,0.726563 0.19922,0.175781 c 0.23437,-0.351562 0.60937,-0.832031 1.23047,-0.832031 0.65625,0 1.05468,0.433594 1.05468,1.195312 0,0.773438 -0.5625,1.511719 -1.125,2.179688 -0.44531,0.515625 -0.94922,1.03125 -1.45312,1.523437 v 0.210938 h 3.36328 c 0.10547,-0.410156 0.19922,-0.796875 0.31641,-1.183594 z m 1.98633,-3.679688 h 2.09766 l 0.23437,-0.585937 -0.0586,-0.07031 h -2.56641 l -0.35156,2.742188 c 0.21094,-0.08203 0.55078,-0.1875 0.92578,-0.1875 0.98438,0 1.46484,0.574219 1.46484,1.359375 0,0.679687 -0.375,1.335937 -1.13671,1.335937 -0.55079,0 -0.91407,-0.292968 -1.11329,-0.457031 -0.082,-0.07031 -0.15234,-0.05859 -0.23437,0 -0.10547,0.09375 -0.1875,0.210938 -0.1875,0.292969 -0.0234,0.105469 0.0234,0.1875 0.14062,0.304687 0.12891,0.128907 0.51563,0.316407 0.92579,0.316407 0.48046,-0.01172 1.07812,-0.246094 1.57031,-0.632813 0.55078,-0.457031 0.79687,-0.960937 0.79687,-1.511719 0,-0.738281 -0.58593,-1.511718 -1.73437,-1.511718 -0.2461,0 -0.66797,0.140625 -1.00781,0.269531 z m 3.79395,3.785157 c -0.21094,0 -0.4336,0.140625 -0.4336,0.363281 0,0.152344 0.0703,0.222656 0.11719,0.234375 0.30469,0.07031 0.5625,0.269531 0.5625,0.597656 0,0.339844 -0.25781,0.574219 -0.69141,0.761719 l 0.0937,0.257812 c 0.55079,-0.164062 1.1836,-0.550781 1.1836,-1.242187 0,-0.632813 -0.50391,-0.972656 -0.83203,-0.972656 z m 5.40527,-4.558594 c -1.34766,0 -1.83984,1.605469 -1.83984,2.917969 0,1.417968 0.48046,2.90625 1.83984,2.90625 1.35937,0 1.82812,-1.59375 1.82812,-2.917969 0,-1.382813 -0.46875,-2.90625 -1.82812,-2.90625 z m 0,0.304687 c 0.80859,0 1.03125,1.324219 1.03125,2.601563 0,1.265625 -0.22266,2.613281 -1.03125,2.613281 -0.77344,0 -1.04297,-1.359375 -1.04297,-2.613281 0,-1.253906 0.22266,-2.601563 1.04297,-2.601563 z m 3.19629,5.519532 c 0.28125,0 0.50391,-0.199219 0.50391,-0.515625 0,-0.292969 -0.22266,-0.515625 -0.50391,-0.515625 -0.29297,0 -0.50391,0.222656 -0.50391,0.515625 0,0.316406 0.21094,0.515625 0.50391,0.515625 z m 3.17578,-5.824219 c -1.34766,0 -1.83984,1.605469 -1.83984,2.917969 0,1.417968 0.48047,2.90625 1.83984,2.90625 1.35938,0 1.82813,-1.59375 1.82813,-2.917969 0,-1.382813 -0.46875,-2.90625 -1.82813,-2.90625 z m 0,0.304687 c 0.80859,0 1.03125,1.324219 1.03125,2.601563 0,1.265625 -0.22266,2.613281 -1.03125,2.613281 -0.77344,0 -1.04297,-1.359375 -1.04297,-2.613281 0,-1.253906 0.22266,-2.601563 1.04297,-2.601563 z m 5.62207,5.414063 v -0.246094 c -0.82031,-0.05859 -0.87891,-0.128906 -0.87891,-0.785156 v -4.6875 c -0.49218,0.199219 -1.01953,0.375 -1.59375,0.46875 v 0.210937 l 0.4336,0.01172 c 0.38672,0.02344 0.42187,0.07031 0.42187,0.539063 v 3.457031 c 0,0.65625 -0.0352,0.726562 -0.85547,0.785156 v 0.246094 z m 4.56738,-1.265625 c -0.26953,0.574219 -0.38672,0.609375 -0.86718,0.609375 h -1.6875 l 1.27734,-1.335938 c 0.83203,-0.890625 1.19531,-1.417968 1.19531,-2.203125 0,-0.949218 -0.72656,-1.523437 -1.51172,-1.523437 -0.52734,0 -0.94922,0.234375 -1.21875,0.539062 l -0.51562,0.726563 0.19922,0.175781 c 0.23437,-0.351562 0.60937,-0.832031 1.23047,-0.832031 0.65625,0 1.05468,0.433594 1.05468,1.195312 0,0.773438 -0.5625,1.511719 -1.125,2.179688 -0.44531,0.515625 -0.94922,1.03125 -1.45312,1.523437 v 0.210938 h 3.36328 c 0.10547,-0.410156 0.19922,-0.796875 0.31641,-1.183594 z m 1.98633,-3.679688 h 2.09766 l 0.23437,-0.585937 -0.0586,-0.07031 h -2.56641 l -0.35156,2.742188 c 0.21094,-0.08203 0.55078,-0.1875 0.92578,-0.1875 0.98438,0 1.46485,0.574219 1.46485,1.359375 0,0.679687 -0.375,1.335937 -1.13672,1.335937 -0.55078,0 -0.91407,-0.292968 -1.11328,-0.457031 -0.082,-0.07031 -0.15235,-0.05859 -0.23438,0 -0.10547,0.09375 -0.1875,0.210938 -0.1875,0.292969 -0.0234,0.105469 0.0234,0.1875 0.14063,0.304687 0.1289,0.128907 0.51562,0.316407 0.92578,0.316407 0.48047,-0.01172 1.07812,-0.246094 1.57031,-0.632813 0.55078,-0.457031 0.79687,-0.960937 0.79687,-1.511719 0,-0.738281 -0.58593,-1.511718 -1.73437,-1.511718 -0.24609,0 -0.66797,0.140625 -1.00781,0.269531 z m 3.36035,-1.230468 c 0.89063,0.738281 1.41797,2.203125 1.41797,3.75 0,1.546875 -0.5039,2.988281 -1.41797,3.75 l 0.16407,0.199218 c 1.34765,-0.914062 1.89843,-2.332031 1.89843,-3.949218 0,-1.628907 -0.55078,-3.058594 -1.89843,-3.960938 z m 0,0"
           style="fill:#231f20;fill-opacity:1;fill-rule:nonzero;stroke:none" />
      </g>
      <path
         id="path5"
         d="m 293.746,214.898 v 30"
         style="fill:none;stroke:#231f20;stroke-width:5;stroke-linecap:butt;stroke-linejoin:miter;stroke-miterlimit:3.25;stroke-dasharray:none;stroke-opacity:1"
         transform="matrix(0.13333333,0,0,-0.13333333,0,169.72)" />
      <path
         id="path6"
         d="m 750.938,214.898 v 30"
         style="fill:none;stroke:#231f20;stroke-width:5;stroke-linecap:butt;stroke-linejoin:miter;stroke-miterlimit:3.25;stroke-dasharray:none;stroke-opacity:1"
         transform="matrix(0.13333333,0,0,-0.13333333,0,169.72)" />
      <path
         id="path7"
         d="m 1208.13,214.898 v 30"
         style="fill:none;stroke:#231f20;stroke-width:5;stroke-linecap:butt;stroke-linejoin:miter;stroke-miterlimit:3.25;stroke-dasharray:none;stroke-opacity:1"
         transform="matrix(0.13333333,0,0,-0.13333333,0,169.72)" />
      <path
         id="path8"
         d="m 1665.35,214.898 v 30"
         style="fill:none;stroke:#231f20;stroke-width:5;stroke-linecap:butt;stroke-linejoin:miter;stroke-miterlimit:3.25;stroke-dasharray:none;stroke-opacity:1"
         transform="matrix(0.13333333,0,0,-0.13333333,0,169.72)" />
      <path
         id="path9"
         d="m 172.305,492.129 h 30 m 0,-247.231 h 20 m -20,0 H 1802.5"
         style="fill:none;stroke:#231f20;stroke-width:5;stroke-linecap:butt;stroke-linejoin:miter;stroke-miterlimit:3.25;stroke-dasharray:none;stroke-opacity:1"
         transform="matrix(0.13333333,0,0,-0.13333333,0,169.72)" />
      <path
         id="path10"
         d="m 172.305,739.395 h 30"
         style="fill:none;stroke:#231f20;stroke-width:5;stroke-linecap:butt;stroke-linejoin:miter;stroke-miterlimit:3.25;stroke-dasharray:none;stroke-opacity:1"
         transform="matrix(0.13333333,0,0,-0.13333333,0,169.72)" />
      <path
         id="path11"
         d="m 172.305,986.621 h 30"
         style="fill:none;stroke:#231f20;stroke-width:5;stroke-linecap:butt;stroke-linejoin:miter;stroke-miterlimit:3.25;stroke-dasharray:none;stroke-opacity:1"
         transform="matrix(0.13333333,0,0,-0.13333333,0,169.72)" />
      <path
         id="path12"
         d="m 172.305,1233.88 h 30"
         style="fill:none;stroke:#231f20;stroke-width:5;stroke-linecap:butt;stroke-linejoin:miter;stroke-miterlimit:3.25;stroke-dasharray:none;stroke-opacity:1"
         transform="matrix(0.13333333,0,0,-0.13333333,0,169.72)" />
      <path
         id="path13"
         d="M 202.305,244.898 V 1233.88"
         style="fill:none;stroke:#231f20;stroke-width:5;stroke-linecap:butt;stroke-linejoin:miter;stroke-miterlimit:3.25;stroke-dasharray:none;stroke-opacity:1"
         transform="matrix(0.13333333,0,0,-0.13333333,0,169.72)" />
      <path
         id="path14"
         d="m 203.047,883.734 0.781,-4.14 0.742,-4.18 0.782,-4.18 0.742,-4.218 0.781,-4.258 0.742,-4.27 0.781,-4.285 0.743,-4.297 0.781,-4.347 0.742,-4.325 0.781,-4.386 0.743,-4.364 0.781,-4.386 0.742,-4.403 0.781,-4.453 0.742,-4.414 0.782,-4.453 0.742,-4.453 0.781,-4.5 0.742,-4.484 0.782,-4.493 0.742,-4.492 0.781,-4.504 0.742,-4.488 0.781,-4.484 0.743,-4.532 1.562,-8.996 0.742,-4.527 0.782,-4.484 0.742,-4.493 0.781,-4.492 0.742,-4.504 0.781,-4.488 0.743,-4.445 0.781,-4.453 0.742,-4.465 0.781,-4.442 0.742,-4.414 0.782,-4.414 0.742,-4.414 0.781,-4.387 0.742,-4.324 0.782,-4.375 0.742,-4.308 0.781,-4.325 0.742,-4.257 0.781,-4.305 0.743,-4.211 0.781,-4.219 0.742,-4.219 0.781,-4.179 0.743,-4.141 0.781,-4.101 0.742,-4.114 0.781,-4.062 0.742,-4.063 0.782,-3.972 0.742,-3.997 0.781,-3.972 0.742,-3.918 0.782,-3.906 0.742,-3.856 0.781,-3.828 0.742,-3.801 0.781,-3.75 0.743,-3.75 0.781,-3.699 0.742,-3.672 0.781,-3.644 0.742,-3.594 0.782,-3.543 0.742,-3.567 0.781,-3.472 0.742,-3.469 0.782,-3.449 0.742,-3.399 0.781,-3.355 0.742,-3.324 0.781,-3.282 0.743,-3.281 0.781,-3.191 0.742,-3.211 0.781,-3.156 0.743,-3.133 0.781,-3.078 0.742,-3.059 0.781,-3.008 0.742,-2.968 0.782,-2.957 0.742,-2.891 0.781,-2.891 0.742,-2.859 0.782,-2.817 0.742,-2.761 1.562,-5.469 0.742,-2.703 0.782,-2.609 0.742,-2.618 0.781,-2.629 0.742,-2.539 0.782,-2.5 0.742,-2.5 0.781,-2.461 0.742,-2.421 0.781,-2.411 0.743,-2.351 0.781,-2.348 0.742,-2.293 0.781,-2.316 0.742,-2.227 0.782,-2.215 0.742,-2.199 0.781,-2.187 0.742,-2.11 0.782,-2.105 0.742,-2.113 0.781,-2.032 0.742,-2.027 0.781,-1.996 0.743,-1.981 0.781,-1.964 0.742,-1.915 0.781,-1.902 0.743,-1.887 0.781,-1.824 0.742,-1.847 0.781,-1.797 0.742,-1.785 0.782,-1.758 0.742,-1.731 0.781,-1.719 0.742,-1.679 0.782,-1.68 0.742,-1.641 0.781,-1.64 0.742,-1.59 0.781,-1.562 0.743,-1.575 0.781,-1.523 0.742,-1.512 0.781,-1.531 0.742,-1.477 0.782,-1.457 0.742,-1.433 0.781,-1.457 0.742,-1.395 0.782,-1.379 0.742,-1.363 0.781,-1.359 0.742,-1.329 0.781,-1.328 0.743,-1.3 0.781,-1.29 0.742,-1.25 0.781,-1.25 0.743,-1.25 0.781,-1.21 0.742,-1.2 0.781,-1.172 0.742,-1.171 0.782,-1.18 0.742,-1.137 0.781,-1.121 0.781,-1.105 0.743,-1.133 0.781,-1.043 0.742,-1.106 0.781,-1.043 0.742,-1.062 0.782,-1.008 0.742,-1.027 0.781,-1.004 0.742,-1.028 0.782,-0.972 0.742,-0.969 0.781,-0.949 0.742,-0.938 0.781,-0.925 0.743,-0.938 0.781,-0.898 0.742,-0.911 0.781,-0.894 0.742,-0.902 0.782,-0.86 0.742,-0.847 0.781,-0.86 0.742,-0.82 0.782,-0.82 0.742,-0.832 0.781,-0.821 0.742,-0.777 0.781,-0.785 0.743,-0.782 0.781,-0.781 0.742,-0.769 0.781,-0.742 0.743,-0.754 0.781,-0.743 0.742,-0.691 0.781,-0.742 0.742,-0.711 0.782,-0.707 0.742,-0.652 0.781,-0.715 0.742,-0.653 0.782,-0.675 0.742,-0.665 0.781,-0.652 0.742,-0.676 0.781,-0.613 0.743,-0.637 0.781,-0.613 0.742,-0.637 0.781,-0.574 0.742,-0.637 0.782,-0.574 0.742,-0.597 0.781,-0.586 0.742,-0.575 0.782,-0.558 0.742,-0.574 0.781,-0.547 0.742,-0.559 0.781,-0.547 0.743,-0.535 0.781,-0.559 0.742,-0.507 0.781,-0.535 0.743,-0.508 0.781,-0.52 0.742,-0.508 0.781,-0.507 0.742,-0.457 0.782,-0.508 0.781,-0.481 0.742,-0.469 0.781,-0.507 0.743,-0.465 0.781,-0.434 0.742,-0.457 0.781,-0.469 0.742,-0.429 0.782,-0.469 0.742,-0.43 0.781,-0.429 0.742,-0.442 0.782,-0.429 0.742,-0.43 0.781,-0.43 0.742,-0.39 0.781,-0.43 0.743,-0.391 0.781,-0.379 0.742,-0.39 0.781,-0.391 0.742,-0.391 0.782,-0.39 0.742,-0.391 0.781,-0.39 0.742,-0.364 0.782,-0.39 0.742,-0.352 0.781,-0.351 0.742,-0.34 0.781,-0.391 0.743,-0.351 0.781,-0.325 0.742,-0.351 0.781,-0.352 0.743,-0.34 0.781,-0.312 0.742,-0.352 0.781,-0.32 0.742,-0.316 0.782,-0.34 0.742,-0.313 0.781,-0.32 0.742,-0.317 0.782,-0.3 0.742,-0.313 0.781,-0.281 0.742,-0.316 0.781,-0.301 0.743,-0.285 0.781,-0.313 0.742,-0.262 0.781,-0.285 0.742,-0.312 0.782,-0.262 0.742,-0.273 0.781,-0.286 0.742,-0.261 0.782,-0.285 0.742,-0.274 0.781,-0.262 0.742,-0.285 0.781,-0.234 0.743,-0.262 0.781,-0.242 0.742,-0.266 0.781,-0.246 0.743,-0.273 1.562,-0.465 0.742,-0.266 0.781,-0.246 0.743,-0.234 0.781,-0.223 0.742,-0.246 0.781,-0.223 0.743,-0.246 0.781,-0.183 0.742,-0.246 0.781,-0.223 0.742,-0.242 0.782,-0.188 0.742,-0.246 0.781,-0.183 0.742,-0.235 0.782,-0.207 0.742,-0.222 0.781,-0.207 0.742,-0.196 0.781,-0.234 0.743,-0.195 0.781,-0.196 0.742,-0.191 0.781,-0.188 0.742,-0.207 0.782,-0.183 0.742,-0.207 0.781,-0.184 0.742,-0.203 0.782,-0.188 0.742,-0.168 0.781,-0.183 0.742,-0.207 0.781,-0.156 0.743,-0.184 0.781,-0.203 0.742,-0.149 0.781,-0.207 0.743,-0.144 0.781,-0.207 0.742,-0.156 0.781,-0.145 0.742,-0.203 0.782,-0.148 0.742,-0.168 0.781,-0.157 0.742,-0.144 0.782,-0.207 0.742,-0.145 0.781,-0.168 0.742,-0.152 0.781,-0.149 0.743,-0.168 0.781,-0.156 0.742,-0.144 0.781,-0.129 0.742,-0.145 0.782,-0.156 0.742,-0.164 0.781,-0.148 0.742,-0.118 0.782,-0.168 0.742,-0.144 0.781,-0.117 0.742,-0.168 0.781,-0.106 0.743,-0.168 0.781,-0.113 0.781,-0.148 0.742,-0.118 0.782,-0.168 0.742,-0.105 0.781,-0.117 0.742,-0.168 0.781,-0.106 0.743,-0.117 0.781,-0.168 0.742,-0.113 0.781,-0.11 0.743,-0.128 0.781,-0.118 0.742,-0.144 0.781,-0.117 0.742,-0.129 0.782,-0.117 0.742,-0.106 0.781,-0.129 0.742,-0.113 0.782,-0.109 0.742,-0.118 0.781,-0.129 0.742,-0.078 0.781,-0.105 0.743,-0.117 0.781,-0.129 0.742,-0.106 0.781,-0.117 0.742,-0.09 0.782,-0.113 0.742,-0.109 0.781,-0.079 0.742,-0.128 0.782,-0.118 0.742,-0.078 0.781,-0.105 0.742,-0.129 0.781,-0.078 0.743,-0.117 0.781,-0.067 0.742,-0.129 0.781,-0.078 0.743,-0.113 0.781,-0.07 0.742,-0.118 0.781,-0.09 0.742,-0.078 0.782,-0.105 0.742,-0.078 0.781,-0.078 0.742,-0.129 0.782,-0.078 0.742,-0.067 0.781,-0.117 0.742,-0.09 0.781,-0.074 0.743,-0.078 0.781,-0.07 0.742,-0.118 0.781,-0.09 0.742,-0.078 0.782,-0.078 0.742,-0.066 0.781,-0.078 0.742,-0.09 0.782,-0.078 0.742,-0.078 1.562,-0.145 0.742,-0.09 0.782,-0.078 0.742,-0.074 0.781,-0.07 0.742,-0.079 0.782,-0.078 0.742,-0.09 0.781,-0.078 0.742,-0.078 0.781,-0.066 0.743,-0.039 0.781,-0.078 0.742,-0.09 0.781,-0.078 0.743,-0.067 0.781,-0.039 0.742,-0.078 0.781,-0.09 0.742,-0.078 0.782,-0.035 0.742,-0.078 0.781,-0.07 0.742,-0.04 0.782,-0.078 0.742,-0.09 0.781,-0.039 0.742,-0.078 0.781,-0.066 0.743,-0.039 0.781,-0.078 0.742,-0.039 0.781,-0.09 0.742,-0.039 0.782,-0.078 0.742,-0.039 0.781,-0.067 0.742,-0.039 0.782,-0.09 0.742,-0.039 0.781,-0.074 0.742,-0.039 0.781,-0.07 0.743,-0.039 0.781,-0.04 0.742,-0.078 0.781,-0.05 0.743,-0.079 0.781,-0.039 0.742,-0.039 0.781,-0.066 0.742,-0.039 0.782,-0.039 0.742,-0.078 0.781,-0.051 0.742,-0.039 0.782,-0.039 0.742,-0.078 0.781,-0.028 0.742,-0.039 0.781,-0.039 0.743,-0.078 0.781,-0.051 0.742,-0.039 0.781,-0.039 0.742,-0.035 0.782,-0.039 0.742,-0.07 1.562,-0.079 0.743,-0.039 0.781,-0.039 0.742,-0.05 0.781,-0.04 0.742,-0.039 0.782,-0.039 0.742,-0.039 0.781,-0.066 0.742,-0.039 0.782,-0.039 0.742,-0.039 0.781,-0.039 0.742,-0.051 0.781,-0.039 0.743,-0.039 0.781,-0.039 0.742,-0.039 h 0.781 l 0.743,-0.039 0.781,-0.028 0.742,-0.039 0.781,-0.039 0.742,-0.039 0.782,-0.051 0.742,-0.039 0.781,-0.039 0.742,-0.035 h 0.782 l 0.742,-0.039 0.781,-0.039 0.742,-0.031 0.781,-0.039 0.743,-0.04 h 0.781 l 0.742,-0.039 0.781,-0.039 0.742,-0.05 0.782,-0.04 h 0.742 l 0.781,-0.039 0.742,-0.039 0.782,-0.039 h 0.742 l 0.781,-0.039 0.742,-0.027 h 0.781 l 0.743,-0.039 0.781,-0.039 0.742,-0.039 h 0.781 l 0.743,-0.039 h 0.781 l 0.742,-0.051 0.781,-0.039 h 0.742 l 0.782,-0.039 0.742,-0.039 h 0.781 l 0.742,-0.039 h 0.782 l 0.742,-0.028 0.781,-0.039 h 0.742 l 0.781,-0.039 h 0.743 l 0.781,-0.039 H 645 l 0.781,-0.039 h 0.742 l 0.782,-0.051 h 0.781 l 0.742,-0.039 h 0.781 l 0.743,-0.039 h 0.781 l 0.742,-0.035 h 0.781 l 0.742,-0.039 h 0.782 l 0.742,-0.039 h 1.523 l 0.782,-0.031 h 0.742 l 0.781,-0.039 h 1.523 l 0.743,-0.04 h 0.781 l 0.742,-0.039 h 1.524 l 0.781,-0.039 h 1.523 l 0.742,-0.05 h 1.524 l 0.781,-0.04 h 2.266 l 0.781,-0.039 h 2.266 l 0.781,-0.039 h 2.265 l 0.782,-0.039 h 3.789 l 0.781,-0.039 h 3.789 l 0.781,-0.027 h 8.36 l 0.781,-0.039 h 9.141 l 0.781,0.039 h 8.359 l 0.781,0.027 h 4.571 l 0.742,0.039 h 3.047 l 0.781,0.039 h 2.266 l 0.781,0.039 h 2.266 l 0.781,0.039 h 2.265 l 0.782,0.04 h 1.523 l 0.742,0.05 h 1.524 l 0.781,0.039 h 1.523 l 0.743,0.039 h 0.781 l 0.742,0.04 h 1.524 l 0.781,0.039 h 0.742 l 0.781,0.031 h 1.524 l 0.742,0.039 h 0.781 l 0.742,0.039 h 0.782 l 0.742,0.035 h 0.781 l 0.781,0.039 h 0.742 l 0.782,0.039 h 0.742 l 0.781,0.051 h 0.742 l 0.782,0.039 h 0.742 l 0.781,0.039 h 0.742 l 0.781,0.039 h 0.743 l 0.781,0.039 0.742,0.028 h 0.781 l 0.742,0.039 h 0.782 l 0.742,0.039 0.781,0.039 h 0.742 l 0.782,0.039 0.742,0.051 H 770 l 0.742,0.039 h 0.781 l 0.743,0.039 0.781,0.039 0.742,0.039 h 0.781 l 0.743,0.027 0.781,0.039 h 0.742 l 0.781,0.039 0.742,0.039 0.782,0.039 h 0.742 l 0.781,0.04 0.742,0.05 0.782,0.039 0.742,0.039 h 0.781 l 0.742,0.04 0.781,0.039 0.743,0.031 0.781,0.039 0.742,0.039 h 0.781 l 0.742,0.035 0.782,0.039 0.742,0.039 0.781,0.051 0.742,0.039 0.782,0.039 0.742,0.039 0.781,0.028 0.742,0.039 h 0.781 l 0.743,0.039 0.781,0.039 0.742,0.039 0.781,0.039 0.743,0.051 0.781,0.039 0.742,0.039 0.781,0.039 0.742,0.039 0.782,0.066 0.742,0.039 1.562,0.078 0.743,0.04 0.781,0.05 0.742,0.039 0.781,0.039 0.742,0.04 0.782,0.039 0.742,0.07 0.781,0.039 0.742,0.035 0.782,0.039 0.742,0.039 0.781,0.051 0.742,0.078 0.781,0.039 0.743,0.039 0.781,0.028 0.742,0.078 0.781,0.039 0.742,0.039 0.782,0.051 0.742,0.078 0.781,0.039 0.742,0.039 0.782,0.066 0.742,0.039 0.781,0.039 0.742,0.079 0.781,0.05 0.743,0.078 0.781,0.04 0.742,0.039 0.781,0.07 0.743,0.039 0.781,0.074 0.742,0.039 0.781,0.09 0.742,0.039 0.782,0.067 0.742,0.039 0.781,0.078 0.742,0.039 0.782,0.09 0.742,0.039 0.781,0.078 0.742,0.039 0.781,0.066 0.743,0.078 0.781,0.039 0.742,0.09 0.781,0.078 0.742,0.04 0.782,0.07 0.742,0.078 0.781,0.035 0.742,0.078 0.782,0.09 0.742,0.078 0.781,0.039 0.742,0.067 0.781,0.078 0.743,0.09 0.781,0.078 0.742,0.039 0.781,0.066 0.743,0.078 0.781,0.078 0.742,0.09 0.781,0.078 0.742,0.079 1.563,0.144 0.742,0.078 0.781,0.09 0.743,0.078 0.781,0.067 0.742,0.078 0.781,0.078 0.742,0.09 0.782,0.078 0.742,0.066 0.781,0.078 0.742,0.078 0.782,0.09 0.742,0.118 0.781,0.07 0.742,0.078 0.781,0.074 0.743,0.09 0.781,0.117 0.742,0.067 0.781,0.078 0.742,0.129 0.782,0.078 0.742,0.078 0.781,0.105 0.742,0.078 0.782,0.09 0.742,0.118 0.781,0.07 0.742,0.113 0.781,0.078 0.743,0.129 0.781,0.067 0.742,0.117 0.781,0.078 0.743,0.129 0.781,0.105 0.742,0.078 0.781,0.118 0.742,0.128 0.782,0.079 0.742,0.109 0.781,0.113 0.742,0.09 0.782,0.117 0.742,0.106 0.781,0.129 0.742,0.117 0.781,0.066 0.743,0.117 0.781,0.129 0.742,0.118 0.781,0.109 0.742,0.113 0.782,0.129 0.742,0.106 0.781,0.117 0.742,0.129 0.782,0.117 0.742,0.144 0.781,0.118 0.742,0.128 0.781,0.11 0.743,0.113 0.781,0.168 0.742,0.117 0.781,0.106 0.743,0.168 1.562,0.222 0.742,0.168 0.781,0.118 0.743,0.148 0.781,0.113 0.742,0.168 0.781,0.106 0.743,0.168 0.781,0.117 0.742,0.144 0.781,0.168 0.742,0.118 0.782,0.148 0.742,0.164 0.781,0.156 0.742,0.145 0.782,0.129 0.742,0.144 0.781,0.156 0.742,0.168 0.781,0.149 0.743,0.152 0.781,0.168 0.742,0.145 0.781,0.207 0.742,0.144 0.782,0.157 0.742,0.168 0.781,0.148 0.742,0.203 0.782,0.145 0.742,0.156 0.781,0.207 0.742,0.144 0.781,0.207 0.743,0.149 0.781,0.203 0.742,0.145 0.781,0.195 0.743,0.207 0.781,0.183 0.742,0.168 0.781,0.188 0.742,0.203 0.782,0.184 0.742,0.207 0.781,0.183 0.742,0.207 0.782,0.188 0.742,0.191 0.781,0.196 0.742,0.195 0.781,0.234 0.743,0.196 0.781,0.207 0.742,0.222 0.781,0.207 0.742,0.184 0.782,0.234 0.742,0.246 0.781,0.188 0.742,0.242 0.782,0.223 0.742,0.207 0.781,0.222 0.742,0.246 0.781,0.223 0.743,0.246 1.562,0.457 0.742,0.246 0.782,0.266 0.742,0.242 0.781,0.223 0.742,0.273 0.781,0.246 0.743,0.227 0.781,0.281 0.742,0.262 0.781,0.234 0.743,0.285 0.781,0.262 0.742,0.274 0.781,0.285 0.742,0.261 0.782,0.286 0.742,0.273 0.781,0.262 0.742,0.285 0.782,0.312 0.742,0.262 0.781,0.313 0.742,0.285 0.781,0.301 0.743,0.277 0.781,0.32 0.742,0.313 0.781,0.3 0.742,0.317 0.782,0.32 0.742,0.313 0.781,0.3 0.742,0.356 0.782,0.32 0.742,0.352 0.781,0.312 0.742,0.34 0.781,0.352 0.743,0.312 0.781,0.364 0.742,0.351 0.781,0.352 0.743,0.379 0.781,0.351 0.742,0.352 0.784,0.39 0.74,0.364 0.78,0.39 0.74,0.391 0.78,0.351 0.75,0.391 0.78,0.391 0.74,0.429 0.78,0.379 0.74,0.391 0.78,0.43 0.75,0.39 0.78,0.43 0.74,0.43 0.78,0.429 0.74,0.442 0.78,0.429 0.75,0.43 0.78,0.43 0.74,0.468 0.78,0.469 0.74,0.43 1.57,0.926 0.74,0.468 0.78,0.508 0.74,0.481 0.78,0.468 0.75,0.497 0.78,0.507 0.74,0.508 0.78,0.52 0.74,0.508 0.78,0.496 0.75,0.546 0.78,0.559 0.74,0.508 0.78,0.539 0.74,0.594 0.78,0.547 0.75,0.535 0.78,0.597 0.74,0.575 0.78,0.586 0.74,0.597 0.78,0.574 0.75,0.598 0.78,0.613 0.74,0.637 0.78,0.613 0.74,0.637 0.78,0.613 0.75,0.676 0.78,0.613 0.74,0.676 0.78,0.653 0.74,0.703 0.78,0.675 0.75,0.692 0.78,0.707 0.74,0.711 0.78,0.691 0.74,0.742 0.79,0.743 0.74,0.754 0.78,0.742 0.74,0.769 0.78,0.742 0.74,0.782 0.79,0.785 0.74,0.816 0.78,0.793 0.74,0.821 0.78,0.859 0.74,0.82 0.79,0.86 0.74,0.847 0.78,0.86 0.74,0.863 0.78,0.894 0.74,0.899 0.79,0.949 0.74,0.899 0.78,0.925 0.74,0.938 0.78,0.988 0.75,0.969 0.78,0.972 0.74,0.989 0.78,1.004 0.74,1.027 0.78,1.047 0.78,1.023 0.75,1.082 0.78,1.067 0.74,1.082 0.78,1.105 0.74,1.094 0.78,1.121 0.75,1.176 0.78,1.141 0.74,1.171 0.78,1.211 0.74,1.16 0.79,1.25 0.74,1.211 0.78,1.25 0.74,1.289 0.78,1.29 0.74,1.3 0.79,1.328 0.74,1.329 0.78,1.32 0.74,1.363 0.78,1.418 0.74,1.395 0.79,1.418 0.74,1.433 0.78,1.496 0.74,1.438 0.78,1.531 0.74,1.512 0.79,1.523 0.74,1.574 0.78,1.602 0.74,1.59 0.78,1.601 0.75,1.645 0.78,1.676 0.74,1.679 0.78,1.719 0.74,1.731 0.78,1.757 0.75,1.786 0.78,1.796 0.74,1.848 0.78,1.824 0.74,1.887 0.78,1.902 0.75,1.926 0.78,1.953 0.74,1.981 0.78,1.996 0.74,2.027 0.78,2.043 0.75,2.11 0.78,2.097 0.74,2.11 0.78,2.187 0.74,2.199 0.78,2.227 0.75,2.215 0.78,2.316 0.74,2.293 0.78,2.356 0.74,2.343 0.78,2.41 0.75,2.422 0.78,2.461 0.74,2.461 0.78,2.539 0.74,2.539 0.78,2.578 0.79,2.629 0.74,2.649 0.78,2.691 0.74,2.696 0.78,2.746 0.75,2.8 0.78,2.817 0.74,2.82 0.78,2.891 0.74,2.929 0.78,2.93 0.75,2.996 0.78,3.012 0.74,3.055 0.78,3.086 0.74,3.113 0.78,3.137 0.75,3.203 0.78,3.23 0.74,3.242 0.78,3.282 0.74,3.324 0.78,3.355 0.75,3.399 0.78,3.437 0.74,3.489 0.78,3.503 0.74,3.528 0.78,3.543 0.75,3.605 0.78,3.672 0.74,3.621 0.78,3.711 0.74,3.75 0.78,3.75 0.75,3.789 0.78,3.84 0.74,3.867 0.78,3.895 0.74,3.918 0.78,3.972 0.75,3.996 0.78,3.973 0.74,4.063 0.78,4.074 0.74,4.101 0.79,4.102 0.74,4.141 0.78,4.179 0.74,4.219 0.78,4.219 0.74,4.219 0.79,4.246 0.74,4.308 0.78,4.336 0.74,4.285 0.78,4.348 0.74,4.363 0.79,4.387 0.74,4.402 0.78,4.426 0.74,4.414 0.78,4.442 0.74,4.464 0.79,4.454 0.74,4.445 0.78,4.5 0.74,4.492 1.56,8.973 0.75,4.504 0.78,4.492 0.74,4.531 0.78,4.492 0.74,4.481 0.78,4.535 0.75,4.5 0.78,4.492 0.74,4.492 0.78,4.481 0.74,4.504 0.78,4.453 0.75,4.453 0.78,4.441 0.74,4.465 0.78,4.414 0.74,4.414 0.79,4.414 0.74,4.375 0.78,4.375 0.74,4.336 0.78,4.336 0.74,4.297 0.79,4.297 0.74,4.25 0.78,4.266 0.74,4.218 0.78,4.18 0.74,4.18 0.79,4.14 0.74,4.102 0.78,4.09 0.74,4.074 0.78,4.023 0.74,4.016 0.79,3.992 0.74,3.934 0.78,3.918 0.74,3.867 0.78,3.816 0.75,3.84 0.78,3.789 0.74,3.75 0.78,3.711 0.74,3.66 0.78,3.684 0.75,3.594 0.78,3.543 0.74,3.566 0.78,3.508 0.74,3.484 0.78,3.399 0.75,3.398 0.78,3.359 0.74,3.321 0.78,3.281 0.74,3.281 0.78,3.192 0.75,3.175 0.78,3.165 0.74,3.085 0.78,3.036 0.74,3.061 0.78,3.01 0.75,2.92 0.78,2.93 0.74,2.9 0.78,2.85 0.78,2.8 0.74,2.78 0.79,2.74 0.74,2.72 0.78,2.67 0.74,2.61 0.78,2.62 0.74,2.57 0.79,2.54 0.74,2.5 0.78,2.46 0.74,2.43 0.78,2.42 0.75,2.35 0.78,2.33 0.74,2.32 0.78,2.26 0.74,2.27 0.78,2.18 0.75,2.19 0.78,2.14 0.74,2.11 0.78,2.11 0.74,2.03 0.78,2.04 0.75,2.03 0.78,1.96 0.74,1.94 0.78,1.92 0.74,1.87 0.78,1.88 0.75,1.83 0.78,1.81 0.74,1.79 0.78,1.75 0.74,1.72 0.78,1.72 0.75,1.69 0.78,1.68 0.74,1.59 0.78,1.64 0.74,1.57 0.78,1.57 0.75,1.56 0.78,1.51 0.74,1.5 0.78,1.47 0.74,1.46 0.78,1.43 0.75,1.42 0.78,1.4 0.74,1.36 0.78,1.34 0.74,1.33 0.79,1.32 0.74,1.29 0.78,1.29 0.74,1.25 0.78,1.25 0.74,1.21 0.79,1.21 0.74,1.18 0.78,1.17 0.74,1.12 0.78,1.14 0.74,1.14 0.79,1.08 0.74,1.1 1.56,2.11 0.74,1.06 0.78,1.01 0.75,1.01 0.78,1.03 0.74,0.97 0.78,0.98 0.74,0.94 0.78,0.93 0.75,0.93 0.78,0.9 0.74,0.95 0.78,0.86 0.74,0.89 0.78,0.86 0.75,0.86 0.78,0.82 0.74,0.82 0.78,0.82 0.74,0.82 0.78,0.79 0.75,0.78 0.78,0.78 0.74,0.77 0.78,0.75 0.74,0.74 0.79,0.75 0.74,0.69 0.78,0.71 0.74,0.71 0.78,0.69 0.74,0.71 0.79,0.67 0.74,0.65 0.78,0.67 0.74,0.62 0.78,0.67 0.74,0.63 0.79,0.62 0.74,0.58 0.78,0.63 0.74,0.58 0.78,0.6 0.74,0.58 0.79,0.59 0.74,0.54 0.78,0.58 0.74,0.56 0.78,0.54 0.75,0.51 0.78,0.54 0.74,0.52 0.78,0.54 0.74,0.5 0.78,0.51 0.75,0.48 0.78,0.51 0.74,0.46 0.78,0.51 0.74,0.46 0.78,0.47 0.75,0.43 0.78,0.48 0.74,0.47 0.78,0.43 0.74,0.43 0.78,0.43 0.75,0.43 0.78,0.43 0.74,0.43 0.78,0.39 0.78,0.43 0.74,0.39 0.79,0.39 0.74,0.39 0.78,0.39 0.74,0.38 0.78,0.35 0.74,0.39 0.79,0.36 0.74,0.39 0.78,0.35 0.74,0.36 0.78,0.35 0.74,0.34 0.79,0.35 0.74,0.32 0.78,0.35 0.74,0.32 0.78,0.34 0.75,0.31 0.78,0.32 0.74,0.32 0.78,0.3 0.74,0.32 0.78,0.31 0.75,0.32 0.78,0.26 0.74,0.32 0.78,0.28 0.74,0.31 0.78,0.27 0.75,0.28 0.78,0.26 0.74,0.28 0.78,0.28 0.74,0.26 0.78,0.28 0.75,0.28 0.78,0.22 0.74,0.28 0.78,0.24 0.74,0.27 0.78,0.24 0.75,0.22 0.78,0.28 0.74,0.24 0.78,0.23 0.74,0.24 0.78,0.22 0.75,0.25 0.78,0.18 0.74,0.25 0.78,0.22 0.74,0.24 0.78,0.19 0.75,0.24 0.78,0.19 0.74,0.2 0.78,0.23 0.74,0.2 0.79,0.19 0.74,0.24 0.78,0.19 0.74,0.2 0.78,0.19 0.74,0.2 0.79,0.19 0.74,0.17 1.56,0.39 0.74,0.19 0.78,0.15 0.75,0.2 0.78,0.19 0.74,0.17 0.78,0.18 0.74,0.17 0.78,0.15 0.75,0.19 0.78,0.16 0.74,0.15 0.78,0.17 0.74,0.19 0.78,0.15 0.75,0.17 0.78,0.14 0.74,0.17 0.78,0.15 0.74,0.15 0.78,0.17 0.75,0.11 0.78,0.15 0.74,0.17 0.78,0.15 0.74,0.15 0.78,0.13 0.75,0.15 0.78,0.11 0.74,0.17 0.78,0.11 0.74,0.15 0.79,0.13 0.74,0.15 0.78,0.11 0.74,0.17 0.78,0.11 0.74,0.11 0.79,0.13 0.74,0.15 0.78,0.11 0.74,0.13 0.78,0.12 0.74,0.11 0.79,0.11 0.74,0.13 0.78,0.15 0.74,0.11 0.78,0.09 0.74,0.12 0.79,0.11 0.74,0.11 0.78,0.13 0.74,0.11 0.78,0.11 0.75,0.12 0.78,0.09 0.74,0.11 0.78,0.11 0.74,0.08 0.78,0.13 0.75,0.11 0.78,0.08 0.74,0.11 0.78,0.13 0.74,0.07 0.78,0.12 0.75,0.07 0.78,0.13 0.78,0.07 0.74,0.08 0.78,0.11 0.74,0.09 0.79,0.12 0.74,0.07 0.78,0.08 0.74,0.11 0.78,0.09 0.74,0.08 0.79,0.07 0.74,0.11 0.78,0.08 0.74,0.09 0.78,0.07 0.74,0.08 0.79,0.11 0.74,0.09 0.78,0.08 0.74,0.07 0.78,0.08 0.74,0.07 0.79,0.08 0.74,0.09 0.78,0.08 0.74,0.07 0.78,0.08 0.75,0.07 0.78,0.09 0.74,0.08 0.78,0.07 0.74,0.08 0.78,0.03 0.75,0.08 0.78,0.09 0.74,0.08 0.78,0.07 0.74,0.08 0.78,0.03 0.75,0.08 0.78,0.09 0.74,0.08 0.78,0.03 0.74,0.08 0.78,0.07 0.75,0.04 0.78,0.09 0.74,0.08 0.78,0.03 0.74,0.08 0.78,0.07 0.75,0.04 0.78,0.09 0.74,0.04 0.78,0.08 0.74,0.03 0.78,0.08 0.75,0.07 0.78,0.04 0.74,0.09 0.78,0.04 0.74,0.08 0.78,0.03 0.75,0.04 0.78,0.08 0.74,0.03 0.78,0.08 0.74,0.05 0.79,0.08 0.78,0.03 0.74,0.04 0.78,0.08 0.74,0.03 0.78,0.04 0.75,0.09 0.78,0.04 0.74,0.04 0.78,0.07 0.74,0.04 0.78,0.04 0.75,0.07 0.78,0.04 0.74,0.04 0.78,0.05 0.74,0.08 0.78,0.04 0.75,0.03 0.78,0.04 0.74,0.07 0.78,0.04 0.74,0.04 0.78,0.04 0.75,0.05 0.78,0.04 0.74,0.07 0.78,0.04 0.74,0.04 0.78,0.04 0.75,0.03 0.78,0.04 0.74,0.04 0.78,0.05 0.74,0.04 0.78,0.08 0.75,0.03 0.78,0.04 0.74,0.04 0.78,0.04 0.74,0.03 0.79,0.04 0.74,0.04 0.78,0.05 0.74,0.04 0.78,0.04 0.74,0.04 0.79,0.03 0.74,0.04 0.78,0.04 0.74,0.04 0.78,0.03 0.74,0.04 0.79,0.04 0.74,0.05 0.78,0.04 0.74,0.04 0.78,0.03 h 0.74 l 0.79,0.04 0.74,0.04 0.78,0.04 0.74,0.03 0.78,0.04 0.75,0.04 0.78,0.05 0.74,0.04 h 0.78 l 0.74,0.04 1.56,0.07 0.75,0.04 0.78,0.04 h 0.74 l 0.78,0.04 0.74,0.03 0.78,0.04 0.75,0.04 0.78,0.05 h 0.74 l 0.78,0.04 0.74,0.04 0.79,0.04 h 0.74 l 0.78,0.03 0.74,0.04 0.78,0.04 0.74,0.03 h 0.79 l 0.74,0.04 0.78,0.04 0.74,0.04 h 0.78 l 0.74,0.05 0.79,0.04 h 0.74 l 0.78,0.04 0.74,0.03 0.78,0.04 h 0.74 l 0.79,0.04 0.74,0.04 h 0.78 l 0.74,0.03 0.78,0.04 h 0.75 l 0.78,0.04 0.74,0.05 h 0.78 l 0.74,0.04 0.78,0.04 h 0.75 l 0.78,0.04 0.74,0.03 h 0.78 l 0.74,0.04 h 0.78 l 0.75,0.04 0.78,0.04 h 0.74 l 0.78,0.03 h 0.74 l 0.78,0.04 0.75,0.04 h 0.78 l 0.74,0.05 h 0.78 l 0.74,0.04 0.78,0.04 h 0.75 l 0.78,0.04 h 0.74 l 0.78,0.03 h 0.74 l 0.78,0.04 0.75,0.04 h 0.78 l 0.74,0.04 h 0.78 l 0.74,0.03 h 0.78 l 0.79,0.04 h 0.74 l 0.78,0.04 h 0.74 l 0.78,0.05 0.75,0.04 h 0.78 l 0.74,0.04 h 0.78 l 0.74,0.03 h 0.78 l 0.75,0.04 h 0.78 l 0.74,0.04 h 0.78 l 0.74,0.04 h 0.78 l 0.75,0.03 h 1.52 l 0.78,0.04 h 0.74 l 0.78,0.04 h 0.75 l 0.78,0.05 h 0.74 l 0.78,0.04 h 0.74 l 0.78,0.04 h 0.75 l 0.78,0.04 h 1.52 l 0.74,0.03 h 0.78 l 0.75,0.04 h 0.78 l 0.74,0.04 h 0.78 l 0.74,0.04 h 1.53 l 0.78,0.03 h 0.74 l 0.78,0.04 h 1.53 l 0.74,0.04 h 0.78 l 0.74,0.05 h 1.52 l 0.79,0.04 h 0.74 l 0.78,0.04 h 1.52 l 0.74,0.04 h 0.79 l 0.74,0.03 h 1.52 l 0.78,0.04 h 1.53 l 0.74,0.04 h 0.78 l 0.74,0.03 h 1.56 l 0.75,0.04 h 1.52 l 0.78,0.04 h 1.52 l 0.75,0.04 h 1.52 l 0.78,0.05 h 1.52 l 0.75,0.04 h 1.52 l 0.78,0.04 h 1.53 l 0.74,0.03 h 1.52 l 0.78,0.04 h 1.53 l 0.74,0.04 h 1.52 l 0.78,0.04 h 2.27 l 0.78,0.03 h 1.52 l 0.74,0.04 h 1.53 l 0.78,0.04 h 2.27 l 0.78,0.05 h 1.52 l 0.74,0.04 h 2.31 l 0.74,0.04 h 1.52 l 0.78,0.04 h 2.27 l 0.78,0.03 h 2.27 l 0.78,0.04 h 2.26 l 0.78,0.04 h 2.27 l 0.78,0.04 h 2.31 l 0.74,0.03 h 2.3 l 0.74,0.04 h 2.31 l 0.74,0.04 h 2.31 l 0.74,0.05 h 2.3 l 0.75,0.04 h 3.04 l 0.78,0.04 h 2.27 l 0.78,0.04 h 3.05 l 0.74,0.03 h 3.05 l 0.78,0.04 h 3.04 l 0.75,0.04 h 3.04 l 0.78,0.04 h 3.05 l 0.74,0.03 h 3.05 l 0.78,0.04 h 3.05 l 0.74,0.04 h 3.83 l 0.78,0.05 h 3.05 l 0.74,0.04 h 3.83 l 0.74,0.04 h 3.83 l 0.74,0.03 h 3.83 l 0.74,0.04 h 4.57 l 0.78,0.04 h 3.79 l 0.78,0.04 h 4.57 l 0.74,0.03 h 3.83 l 0.75,0.04 h 5.35 l 0.74,0.04"
         style="fill:none;stroke:#4974b1;stroke-width:10;stroke-linecap:butt;stroke-linejoin:round;stroke-miterlimit:3.25;stroke-dasharray:none;stroke-opacity:1"
         transform="matrix(0.13333333,0,0,-0.13333333,0,169.72)" />
      <path
         id="path15"
         d="m 203.047,268.488 0.781,-0.039 h 0.742 l 0.782,-0.027 h 0.742 l 0.781,-0.043 0.742,-0.039 h 0.781 l 0.743,-0.039 h 0.781 l 0.742,-0.031 0.781,-0.051 h 0.743 l 0.781,-0.039 h 0.742 l 0.781,-0.039 h 0.742 l 0.782,-0.039 0.742,-0.043 h 0.781 l 0.742,-0.039 h 0.782 l 0.742,-0.032 h 0.781 l 0.742,-0.039 h 0.781 l 0.743,-0.039 0.781,-0.039 h 0.781 l 0.742,-0.043 h 0.782 l 0.742,-0.039 h 0.781 l 0.742,-0.039 h 0.781 l 0.743,-0.039 h 0.781 l 0.742,-0.039 h 0.781 l 0.742,-0.043 h 0.782 l 0.742,-0.027 h 0.781 l 0.742,-0.043 h 0.782 l 0.742,-0.039 h 0.781 l 0.742,-0.04 h 0.781 l 0.743,-0.039 h 0.781 l 0.742,-0.043 h 0.781 l 0.743,-0.039 h 0.781 l 0.742,-0.039 h 0.781 l 0.742,-0.039 h 0.782 l 0.742,-0.043 h 0.781 l 0.742,-0.039 h 1.524 l 0.781,-0.027 h 0.742 l 0.781,-0.043 h 0.743 l 0.781,-0.039 h 0.742 l 0.781,-0.039 h 1.524 l 0.742,-0.031 h 0.781 l 0.742,-0.051 h 0.782 l 0.742,-0.039 h 1.523 l 0.781,-0.039 h 0.743 l 0.781,-0.039 h 1.523 l 0.743,-0.043 h 0.781 l 0.742,-0.028 h 1.523 l 0.782,-0.043 h 0.742 l 0.781,-0.039 h 1.524 l 0.742,-0.039 h 0.781 l 0.781,-0.039 h 1.524 l 0.742,-0.043 h 1.523 l 0.782,-0.039 h 0.742 l 0.781,-0.039 h 1.523 l 0.743,-0.039 h 1.523 l 0.781,-0.039 h 1.524 l 0.742,-0.043 h 1.523 l 0.782,-0.027 h 1.523 l 0.742,-0.043 h 1.524 l 0.781,-0.039 h 1.523 l 0.743,-0.04 h 1.523 l 0.781,-0.039 h 1.524 l 0.742,-0.043 h 1.523 l 0.782,-0.039 h 1.523 l 0.742,-0.039 h 2.305 l 0.742,-0.039 h 1.523 l 0.782,-0.043 h 2.265 l 0.782,-0.039 h 1.523 l 0.742,-0.027 h 2.305 l 0.742,-0.043 h 2.305 l 0.742,-0.039 h 2.305 l 0.742,-0.039 h 2.305 l 0.781,-0.031 h 2.265 l 0.782,-0.051 h 2.265 l 0.782,-0.039 h 2.265 l 0.781,-0.039 h 3.047 l 0.742,-0.039 h 3.047 l 0.782,-0.043 h 2.265 l 0.781,-0.039 h 3.047 l 0.743,-0.032 h 3.828 l 0.742,-0.039 h 3.047 l 0.781,-0.039 h 3.789 l 0.781,-0.039 h 3.789 l 0.782,-0.043 h 4.57 l 0.742,-0.039 h 4.57 l 0.782,-0.039 h 5.351 l 0.742,-0.039 h 5.352 l 0.742,-0.039 h 6.875 l 0.742,-0.043 h 8.399 l 0.742,-0.027 H 422.5 l 0.781,-0.043 h 53.321 l 0.781,0.043 h 11.445 l 0.742,0.027 h 7.618 l 0.781,0.043 h 6.836 l 0.781,0.039 h 6.094 l 0.742,0.039 h 5.351 l 0.743,0.039 h 4.57 l 0.781,0.039 h 3.789 l 0.782,0.043 h 3.789 l 0.781,0.039 h 3.789 l 0.781,0.039 h 3.828 l 0.742,0.039 h 3.047 l 0.782,0.032 h 3.046 l 0.743,0.039 h 3.047 l 0.781,0.043 h 3.047 l 0.742,0.039 h 2.305 l 0.742,0.039 h 2.304 l 0.743,0.039 h 3.046 l 0.782,0.051 h 2.265 l 0.782,0.031 h 2.265 l 0.781,0.039 h 2.266 l 0.781,0.039 h 1.524 l 0.742,0.043 h 2.305 l 0.742,0.027 h 2.305 l 0.742,0.039 h 1.523 l 0.781,0.043 h 2.266 l 0.781,0.039 h 1.524 l 0.742,0.039 h 1.562 l 0.743,0.039 h 1.523 l 0.781,0.043 h 2.266 l 0.781,0.039 h 1.524 l 0.742,0.04 h 1.523 l 0.781,0.039 h 1.524 l 0.742,0.043 h 1.524 l 0.781,0.027 h 1.523 l 0.742,0.043 h 1.524 l 0.781,0.039 h 0.742 l 0.782,0.039 h 1.523 l 0.742,0.039 h 1.524 l 0.781,0.039 h 0.742 l 0.781,0.043 h 1.524 l 0.742,0.039 h 1.523 l 0.782,0.039 h 0.742 l 0.781,0.039 h 1.523 l 0.743,0.043 h 0.781 l 0.742,0.028 h 1.524 l 0.781,0.043 h 0.742 l 0.781,0.039 h 1.524 l 0.742,0.039 h 0.781 l 0.742,0.039 h 0.782 l 0.742,0.051 h 1.523 l 0.781,0.031 h 0.743 l 0.781,0.039 H 645 l 0.781,0.039 h 0.742 l 0.782,0.043 h 1.523 l 0.781,0.027 h 0.743 l 0.781,0.039 h 0.742 l 0.781,0.043 h 0.742 l 0.782,0.039 h 0.742 l 0.781,0.039 h 0.742 l 0.782,0.039 h 1.523 l 0.742,0.043 h 0.781 l 0.743,0.039 h 0.781 l 0.742,0.04 h 0.781 l 0.743,0.039 h 0.781 l 0.742,0.043 h 0.781 l 0.742,0.027 h 0.782 l 0.742,0.043 h 0.781 l 0.742,0.039 0.782,0.039 h 0.742 l 0.781,0.039 h 0.742 l 0.781,0.039 h 0.743 l 0.781,0.043 h 0.742 l 0.781,0.039 h 0.742 l 0.782,0.039 h 0.742 l 0.781,0.039 h 0.742 l 0.782,0.032 0.742,0.039 h 0.781 l 0.742,0.043 h 0.781 l 0.743,0.039 h 0.781 l 0.742,0.039 0.781,0.039 h 0.743 l 0.781,0.051 h 0.742 l 0.781,0.031 0.742,0.039 h 0.782 l 0.742,0.039 h 0.781 l 0.742,0.043 0.782,0.027 h 0.742 l 0.781,0.039 h 0.742 l 0.781,0.043 0.743,0.039 h 0.781 l 0.781,0.039 h 0.742 l 0.782,0.039 0.742,0.043 h 0.781 l 0.742,0.039 0.781,0.04 h 0.743 l 0.781,0.039 0.742,0.043 h 0.781 l 0.742,0.027 0.782,0.043 h 0.742 l 0.781,0.039 0.742,0.039 h 0.782 l 0.742,0.039 0.781,0.039 h 0.742 l 0.781,0.043 0.743,0.039 h 0.781 l 0.742,0.039 0.781,0.039 h 0.743 l 0.781,0.043 0.742,0.028 h 0.781 l 0.742,0.043 0.782,0.039 0.742,0.039 h 0.781 l 0.742,0.039 0.782,0.051 0.742,0.031 h 0.781 l 0.742,0.039 0.781,0.039 h 0.743 l 0.781,0.043 0.742,0.027 0.781,0.039 h 0.742 l 0.782,0.043 0.742,0.039 0.781,0.039 0.742,0.039 h 0.782 l 0.742,0.043 0.781,0.039 0.742,0.04 h 0.781 l 0.743,0.039 0.781,0.043 0.742,0.027 0.781,0.043 h 0.743 l 0.781,0.039 0.742,0.039 0.781,0.039 0.742,0.039 h 0.782 l 0.742,0.043 0.781,0.039 0.742,0.039 0.782,0.039 0.742,0.032 h 0.781 l 0.781,0.039 0.742,0.043 0.782,0.039 0.742,0.039 0.781,0.039 0.742,0.051 0.782,0.031 h 0.742 l 0.781,0.039 0.742,0.039 0.781,0.043 0.743,0.027 0.781,0.039 0.742,0.043 0.781,0.039 0.742,0.039 h 0.782 l 0.742,0.039 0.781,0.043 0.742,0.039 0.782,0.04 0.742,0.039 0.781,0.043 0.742,0.027 0.781,0.043 0.743,0.039 0.781,0.039 0.742,0.039 0.781,0.039 0.743,0.043 0.781,0.039 0.742,0.039 0.781,0.039 0.742,0.043 0.782,0.028 h 0.742 l 0.781,0.043 0.742,0.039 0.782,0.039 0.742,0.039 0.781,0.082 0.742,0.039 0.781,0.039 0.743,0.043 0.781,0.027 0.742,0.039 0.781,0.043 0.742,0.039 0.782,0.039 0.742,0.039 0.781,0.043 0.742,0.039 0.782,0.04 0.742,0.039 0.781,0.043 0.742,0.027 0.781,0.043 0.743,0.039 0.781,0.039 0.742,0.078 0.781,0.047 0.743,0.039 0.781,0.039 0.742,0.039 0.781,0.028 0.742,0.039 0.782,0.039 0.742,0.078 1.562,0.09 0.743,0.039 0.781,0.039 0.742,0.039 0.781,0.066 0.742,0.039 0.782,0.039 0.742,0.039 0.781,0.039 0.742,0.04 0.782,0.089 0.742,0.039 0.781,0.04 0.742,0.039 0.781,0.07 0.743,0.039 0.781,0.035 0.742,0.039 0.781,0.039 0.742,0.09 0.782,0.039 0.742,0.039 0.781,0.039 0.742,0.067 0.782,0.039 0.742,0.039 0.781,0.09 0.742,0.039 0.781,0.039 0.743,0.078 0.781,0.027 0.742,0.039 0.781,0.039 0.743,0.078 0.781,0.04 0.742,0.089 0.781,0.039 0.742,0.04 0.782,0.07 0.742,0.039 0.781,0.039 0.742,0.074 0.782,0.039 0.742,0.051 0.781,0.078 0.742,0.039 0.781,0.067 0.743,0.039 0.781,0.078 0.742,0.039 0.781,0.051 0.742,0.078 0.782,0.039 0.742,0.066 0.781,0.039 0.742,0.078 0.782,0.039 0.742,0.09 0.781,0.039 0.742,0.079 0.781,0.039 0.743,0.07 0.781,0.039 0.742,0.074 0.781,0.039 0.743,0.09 0.781,0.039 0.742,0.078 0.781,0.067 0.742,0.039 0.782,0.078 0.781,0.051 0.742,0.078 0.781,0.039 0.743,0.066 0.781,0.078 0.742,0.039 0.781,0.079 0.742,0.089 0.782,0.039 0.742,0.079 0.781,0.07 0.742,0.039 0.782,0.074 0.742,0.09 0.781,0.039 0.742,0.078 0.781,0.067 0.743,0.039 0.781,0.078 0.742,0.09 0.781,0.078 0.742,0.039 0.782,0.066 0.742,0.078 0.781,0.078 0.742,0.04 0.782,0.089 0.742,0.079 0.781,0.07 0.742,0.078 0.781,0.074 0.743,0.039 0.781,0.09 0.742,0.078 0.781,0.067 0.743,0.078 0.781,0.078 0.742,0.09 0.781,0.039 0.742,0.078 0.782,0.066 0.742,0.078 0.781,0.079 0.742,0.089 0.782,0.079 0.742,0.07 0.781,0.078 0.742,0.074 0.781,0.09 0.743,0.078 0.781,0.067 0.742,0.078 0.781,0.078 0.742,0.09 0.782,0.078 0.742,0.078 0.781,0.066 0.742,0.078 0.782,0.129 0.742,0.078 0.781,0.079 0.742,0.07 0.781,0.074 0.743,0.078 0.781,0.09 0.742,0.078 0.781,0.106 0.743,0.078 1.562,0.168 0.742,0.105 0.781,0.078 0.743,0.078 0.781,0.09 0.742,0.118 0.781,0.07 0.743,0.078 0.781,0.074 0.742,0.129 0.781,0.078 0.742,0.067 0.782,0.117 0.742,0.09 0.781,0.078 0.742,0.105 0.782,0.078 0.742,0.118 0.781,0.089 0.742,0.118 0.781,0.07 0.743,0.074 0.781,0.129 0.742,0.078 0.781,0.106 0.742,0.078 0.782,0.129 0.742,0.117 0.781,0.066 0.742,0.117 0.782,0.079 0.742,0.128 0.781,0.079 0.742,0.109 0.781,0.113 0.743,0.09 0.781,0.106 0.742,0.117 0.781,0.078 0.743,0.129 0.781,0.105 0.742,0.078 0.781,0.118 0.742,0.128 0.782,0.11 0.742,0.113 0.781,0.078 0.742,0.129 0.782,0.106 0.742,0.117 0.781,0.129 0.742,0.117 0.781,0.105 0.743,0.078 0.781,0.129 0.742,0.118 0.781,0.109 0.742,0.113 0.782,0.129 0.742,0.106 0.781,0.117 0.742,0.129 0.782,0.117 0.742,0.105 0.781,0.168 0.742,0.118 0.781,0.109 0.743,0.113 1.562,0.246 0.742,0.106 0.782,0.168 0.742,0.117 0.781,0.105 0.742,0.118 0.781,0.168 0.743,0.109 0.781,0.113 0.742,0.168 0.781,0.106 0.743,0.117 0.781,0.168 0.742,0.105 0.781,0.156 0.742,0.129 0.782,0.149 0.742,0.113 0.781,0.168 0.742,0.117 0.782,0.145 0.742,0.129 0.781,0.144 0.742,0.117 0.781,0.168 0.743,0.149 0.781,0.113 0.742,0.168 0.781,0.145 0.742,0.117 0.782,0.168 0.742,0.144 0.781,0.157 0.742,0.168 0.782,0.109 0.742,0.152 0.781,0.168 0.742,0.145 0.781,0.168 0.743,0.144 0.781,0.156 0.742,0.168 0.781,0.149 0.743,0.152 0.781,0.168 0.742,0.145 0.784,0.168 0.74,0.183 0.78,0.157 0.74,0.168 0.78,0.148 0.75,0.164 0.78,0.184 0.74,0.156 0.78,0.168 0.74,0.183 0.78,0.168 0.75,0.149 0.78,0.191 0.74,0.168 0.78,0.184 0.74,0.168 0.78,0.183 0.75,0.168 0.78,0.188 0.74,0.191 0.78,0.168 0.74,0.184 0.79,0.207 0.78,0.144 0.74,0.207 0.78,0.188 0.74,0.203 0.78,0.184 0.75,0.156 0.78,0.207 0.74,0.183 0.78,0.208 0.74,0.183 0.78,0.207 0.75,0.184 0.78,0.246 0.74,0.183 0.78,0.207 0.74,0.188 0.78,0.203 0.75,0.184 0.78,0.246 0.74,0.183 0.78,0.207 0.74,0.227 0.78,0.203 0.75,0.223 0.78,0.207 0.74,0.222 0.78,0.207 0.74,0.223 0.78,0.246 0.75,0.184 0.78,0.246 0.74,0.223 0.78,0.207 0.74,0.222 0.78,0.235 0.75,0.246 0.78,0.222 0.74,0.246 0.78,0.223 0.74,0.246 0.79,0.223 0.74,0.234 0.78,0.246 0.74,0.266 0.78,0.242 0.74,0.223 0.79,0.273 0.74,0.246 0.78,0.227 0.74,0.281 0.78,0.223 0.74,0.273 0.79,0.285 0.74,0.227 0.78,0.281 0.74,0.274 0.78,0.222 0.74,0.285 0.79,0.262 0.74,0.274 0.78,0.285 0.74,0.261 0.78,0.278 0.75,0.281 0.78,0.262 0.74,0.273 0.78,0.324 0.74,0.262 0.78,0.274 0.78,0.324 0.75,0.262 0.78,0.316 0.74,0.281 0.78,0.313 0.74,0.3 0.78,0.278 0.75,0.32 0.78,0.313 0.74,0.3 0.78,0.317 0.74,0.32 0.79,0.313 0.74,0.3 0.78,0.317 0.74,0.32 0.78,0.313 0.74,0.339 0.79,0.317 0.74,0.359 0.78,0.313 0.74,0.351 0.78,0.301 0.74,0.352 0.79,0.351 0.74,0.364 0.78,0.351 0.74,0.301 0.78,0.39 0.74,0.356 0.79,0.348 0.74,0.363 0.78,0.351 0.74,0.391 0.78,0.352 0.75,0.379 0.78,0.351 0.74,0.391 0.78,0.351 0.74,0.395 0.78,0.398 0.75,0.391 0.78,0.391 0.74,0.39 0.78,0.391 0.74,0.39 0.78,0.43 0.75,0.391 0.78,0.429 0.74,0.391 0.78,0.43 0.74,0.39 0.78,0.43 0.75,0.43 0.78,0.429 0.74,0.43 0.78,0.43 0.74,0.429 0.78,0.43 0.75,0.469 0.78,0.43 0.74,0.457 0.78,0.429 0.74,0.473 0.78,0.465 0.75,0.469 0.78,0.48 0.74,0.469 0.78,0.469 0.74,0.468 0.78,0.496 0.79,0.469 0.74,0.52 0.78,0.468 0.74,0.508 0.78,0.496 0.75,0.508 0.78,0.52 0.74,0.507 0.78,0.508 0.74,0.535 0.78,0.508 0.75,0.559 0.78,0.5 0.74,0.543 0.78,0.558 0.74,0.536 0.78,0.546 0.75,0.598 0.78,0.535 0.74,0.547 0.78,0.598 0.74,0.578 0.78,0.594 0.75,0.586 0.78,0.574 0.74,0.597 0.78,0.575 0.74,0.636 0.78,0.575 0.75,0.636 0.78,0.614 0.74,0.636 0.78,0.614 0.74,0.636 0.78,0.614 0.75,0.675 0.78,0.614 0.74,0.675 0.78,0.653 0.74,0.676 0.78,0.664 0.75,0.695 0.78,0.672 0.74,0.691 0.78,0.664 0.74,0.715 0.79,0.692 0.74,0.742 0.78,0.715 0.74,0.703 0.78,0.73 0.74,0.742 0.79,0.754 0.74,0.742 0.78,0.743 0.74,0.769 2.31,2.317 0.74,0.82 0.78,0.781 0.74,0.781 0.78,0.821 0.74,0.82 0.79,0.82 0.74,0.821 0.78,0.808 0.74,0.871 1.56,1.719 0.75,0.859 0.78,0.86 0.74,0.887 0.78,0.863 0.74,0.894 0.78,0.899 0.75,0.949 0.78,0.898 0.74,0.926 0.78,0.938 0.74,0.937 0.78,0.949 0.75,0.965 0.78,0.938 0.74,0.988 0.78,0.969 0.74,1.012 0.79,0.988 0.74,1.004 0.78,1.027 0.74,1.047 0.78,1.023 0.74,1.043 0.79,1.067 0.74,1.043 0.78,1.066 0.74,1.082 0.78,1.098 0.74,1.101 0.79,1.121 0.74,1.094 0.78,1.145 0.74,1.121 0.78,1.172 0.74,1.133 0.79,1.183 0.74,1.172 0.78,1.199 0.74,1.211 0.78,1.211 0.75,1.215 0.78,1.211 0.74,1.25 0.78,1.25 0.74,1.289 0.78,1.25 0.75,1.285 0.78,1.289 0.74,1.34 0.78,1.289 0.74,1.356 0.78,1.328 0.75,1.367 0.78,1.34 0.74,1.394 0.78,1.367 0.74,1.418 0.78,1.399 0.75,1.441 0.78,1.418 0.74,1.473 0.78,1.457 0.74,1.473 0.78,1.488 0.75,1.492 0.78,1.512 0.74,1.535 0.78,1.523 0.78,1.551 0.74,1.563 0.79,1.574 0.74,1.601 0.78,1.59 0.74,1.602 0.78,1.64 0.74,1.645 0.79,1.637 0.74,1.679 0.78,1.684 0.74,1.715 0.78,1.679 0.75,1.77 0.78,1.719 0.74,1.758 0.78,1.746 0.74,1.797 0.78,1.808 0.75,1.785 0.78,1.836 0.74,1.848 0.78,1.824 0.74,1.887 0.78,1.863 0.75,1.926 0.78,1.863 0.74,1.953 0.78,1.926 0.74,1.941 0.78,1.993 0.75,2.004 0.78,1.992 0.74,1.98 0.78,2.031 0.74,2.071 0.78,2.035 0.75,2.066 0.78,2.11 0.74,2.109 0.78,2.109 0.74,2.11 0.78,2.16 0.75,2.188 0.78,2.175 0.74,2.188 0.78,2.199 0.74,2.227 0.78,2.214 0.75,2.278 0.78,2.254 0.74,2.316 0.78,2.258 0.74,2.351 0.79,2.293 0.74,2.356 0.78,2.344 0.74,2.371 0.78,2.383 0.74,2.433 0.79,2.371 0.74,2.461 0.78,2.426 0.74,2.461 0.78,2.461 0.74,2.5 0.79,2.5 0.74,2.5 1.56,5.078 0.74,2.535 0.78,2.578 0.75,2.59 0.78,2.578 0.74,2.606 0.78,2.617 0.74,2.629 0.78,2.644 0.75,2.617 0.78,2.708 0.74,2.648 0.78,2.703 0.74,2.684 0.78,2.746 0.75,2.683 0.78,2.746 0.74,2.774 0.78,2.723 0.74,2.785 0.78,2.773 0.75,2.774 0.78,2.812 0.74,2.813 0.78,2.8 0.74,2.825 0.79,2.851 0.74,2.813 0.78,2.851 0.74,2.844 0.78,2.887 0.74,2.851 0.79,2.903 0.74,2.89 0.78,2.891 0.74,2.89 0.78,2.891 0.74,2.93 0.79,2.89 0.74,2.93 0.78,2.93 0.74,2.929 0.78,2.93 0.74,2.93 0.79,2.969 0.74,2.918 0.78,2.968 0.74,2.934 0.78,2.965 0.75,2.941 0.78,2.969 0.74,2.969 0.78,2.968 0.74,2.93 0.78,2.969 0.75,2.969 0.78,2.957 0.74,2.929 0.78,2.973 0.74,2.977 0.78,2.968 0.75,2.93 0.78,2.969 0.74,2.929 0.78,2.969 0.74,2.93 0.78,2.93 0.75,2.957 0.78,2.929 0.74,2.934 0.78,2.926 0.78,2.89 0.74,2.934 0.79,2.887 0.74,2.929 0.78,2.903 0.74,2.89 0.78,2.891 0.74,2.851 0.79,2.891 0.74,2.852 0.78,2.851 0.74,2.844 0.78,2.82 0.74,2.852 0.79,2.812 0.74,2.805 0.78,2.809 0.74,2.785 0.78,2.773 0.75,2.774 0.78,2.773 0.74,2.723 0.78,2.746 0.74,2.734 0.78,2.735 0.75,2.695 0.78,2.695 0.74,2.684 0.78,2.668 0.74,2.644 0.78,2.668 0.75,2.617 0.78,2.618 0.74,2.609 0.78,2.586 0.74,2.578 0.78,2.578 0.75,2.539 0.78,2.539 0.74,2.528 0.78,2.5 0.74,2.5 0.78,2.472 0.75,2.5 0.78,2.422 0.74,2.461 0.78,2.422 0.74,2.422 0.78,2.375 0.75,2.39 0.78,2.344 0.74,2.332 0.78,2.356 0.74,2.332 0.78,2.277 0.75,2.297 0.78,2.273 0.74,2.254 0.78,2.239 0.74,2.226 0.79,2.219 0.74,2.195 0.78,2.188 0.74,2.148 0.78,2.149 0.74,2.136 0.79,2.11 0.74,2.113 1.56,4.137 0.74,2.074 0.78,2.027 0.75,2.043 0.78,1.992 0.74,1.993 0.78,1.983 0.74,1.96 0.78,1.96 0.75,1.9 0.78,1.92 0.74,1.88 0.78,1.91 0.74,1.84 0.78,1.87 0.75,1.83 0.78,1.85 0.74,1.79 0.78,1.79 0.74,1.77 0.78,1.75 0.75,1.76 0.78,1.71 0.74,1.72 0.78,1.72 0.74,1.69 0.78,1.68 0.75,1.63 0.78,1.64 0.74,1.64 0.78,1.6 0.74,1.61 0.79,1.6 0.74,1.57 0.78,1.55 0.74,1.57 0.78,1.53 0.74,1.51 0.79,1.49 0.74,1.49 0.78,1.48 0.74,1.49 0.78,1.44 0.74,1.45 0.79,1.4 0.74,1.4 0.78,1.42 0.74,1.36 0.78,1.4 0.74,1.34 0.79,1.36 0.74,1.33 0.78,1.32 0.74,1.29 0.78,1.34 0.75,1.29 0.78,1.25 0.74,1.29 0.78,1.25 0.74,1.21 0.78,1.25 0.75,1.21 0.78,1.2 0.74,1.17 0.78,1.22 0.74,1.17 0.78,1.14 0.75,1.17 1.56,2.26 0.74,1.1 0.78,1.12 0.74,1.1 0.79,1.1 0.74,1.05 0.78,1.06 0.74,1.05 0.78,1.06 0.74,1.04 0.79,1.03 0.74,1.01 0.78,1.02 0.74,0.97 0.78,1.01 0.74,0.99 0.79,0.93 0.74,0.97 0.78,0.94 0.74,0.95 0.78,0.93 0.74,0.93 0.79,0.9 0.74,0.95 0.78,0.9 0.74,0.85 0.78,0.9 0.75,0.86 0.78,0.86 0.74,0.86 0.78,0.85 0.74,0.86 0.78,0.82 0.75,0.82 0.78,0.82 0.74,0.83 0.78,0.78 0.74,0.82 0.78,0.78 0.75,0.79 0.78,0.74 0.74,0.77 0.78,0.74 0.74,0.79 0.78,0.74 0.75,0.75 0.78,0.69 0.74,0.75 0.78,0.71 0.74,0.7 0.78,0.69 0.75,0.71 0.78,0.71 0.74,0.66 0.78,0.7 0.74,0.66 0.78,0.67 0.75,0.67 0.78,0.62 0.74,0.67 0.78,0.61 0.74,0.68 0.78,0.61 0.75,0.64 0.78,0.61 0.74,0.6 0.78,0.61 0.74,0.6 1.57,1.16 0.74,0.59 0.78,0.58 0.74,0.6 0.78,0.54 0.75,0.58 0.78,0.56 0.74,0.54 0.78,0.54 0.74,0.56 0.78,0.54 0.75,0.54 0.78,0.51 0.74,0.56 0.78,0.5 0.74,0.5 0.78,0.51 0.75,0.52 0.78,0.5 0.74,0.51 0.78,0.46 0.74,0.51 0.78,0.48 0.75,0.47 0.78,0.5 0.74,0.47 0.78,0.47 0.74,0.43 0.78,0.46 0.75,0.47 0.78,0.43 0.74,0.48 0.78,0.43 0.74,0.43 0.78,0.43 0.75,0.43 0.78,0.43 0.74,0.43 0.78,0.43 0.74,0.42 0.79,0.4 0.74,0.43 0.78,0.39 0.74,0.39 0.78,0.43 0.74,0.39 0.79,0.39 0.74,0.39 0.78,0.38 0.74,0.35 0.78,0.39 0.74,0.4 0.79,0.35 0.74,0.39 0.78,0.36 0.74,0.35 0.78,0.39 0.74,0.34 0.79,0.35 0.74,0.36 0.78,0.35 0.74,0.32 0.78,0.35 0.75,0.34 0.78,0.35 0.74,0.32 0.78,0.35 0.74,0.32 0.78,0.3 0.78,0.35 0.75,0.32 0.78,0.32 0.74,0.3 0.78,0.32 0.74,0.31 0.78,0.32 0.75,0.3 0.78,0.28 0.74,0.31 0.78,0.32 0.74,0.26 0.79,0.32 0.74,0.28 0.78,0.26 0.74,0.32 0.78,0.28 0.74,0.26 0.79,0.28 0.74,0.28 0.78,0.26 0.74,0.28 0.78,0.28 0.74,0.26 0.79,0.28 0.74,0.28 0.78,0.22 0.74,0.28 0.78,0.28 0.74,0.23 0.79,0.28 0.74,0.22 0.78,0.24 0.74,0.28 0.78,0.23 0.75,0.24 0.78,0.22 0.74,0.28 0.78,0.23 0.74,0.24 0.78,0.24 0.75,0.23 0.78,0.24 0.74,0.19 0.78,0.24 0.74,0.22 0.78,0.25 0.75,0.18 0.78,0.24 0.74,0.23 0.78,0.2 0.74,0.23 0.78,0.2 0.75,0.23 0.78,0.2 0.74,0.19 0.78,0.24 0.74,0.19 0.78,0.2 0.75,0.19 0.78,0.24 0.74,0.19 0.78,0.2 0.74,0.19 0.78,0.21 0.75,0.18 0.78,0.21 0.74,0.18 0.78,0.17 0.74,0.19 1.57,0.39 0.74,0.15 0.78,0.2 0.74,0.19 0.78,0.17 0.75,0.19 0.78,0.2 0.74,0.15 0.78,0.19 0.74,0.16 0.78,0.15 0.75,0.21 0.78,0.15 0.74,0.15 0.78,0.2 0.74,0.15 0.78,0.17 0.75,0.15 0.78,0.2 0.74,0.15 0.78,0.15 0.74,0.17 0.78,0.15 0.75,0.15 0.78,0.17 0.74,0.15 0.78,0.16 0.74,0.15 0.78,0.15 0.75,0.17 0.78,0.11 0.74,0.15 0.78,0.17 0.74,0.15 0.78,0.11 0.75,0.17 0.78,0.15 0.74,0.11 0.78,0.17 0.74,0.15 0.78,0.11 0.75,0.17 0.78,0.11 0.74,0.15 0.78,0.13 0.74,0.15 0.79,0.11 0.74,0.17 0.78,0.11 0.74,0.11 0.78,0.17 0.74,0.11 0.79,0.11 0.74,0.17 0.78,0.11 0.74,0.12 0.78,0.11 0.74,0.13 0.79,0.15 0.74,0.11 0.78,0.13 0.74,0.11 0.78,0.11 0.74,0.13 0.79,0.12 0.74,0.11 0.78,0.11 0.74,0.13 1.56,0.22 0.75,0.12 0.78,0.13 0.74,0.11 0.78,0.11 0.74,0.09 0.78,0.12 0.75,0.11 0.78,0.11 0.74,0.13 0.78,0.08 0.74,0.11 0.78,0.11 0.75,0.13 0.78,0.07 0.74,0.12 0.78,0.11 0.74,0.09 0.79,0.11 0.74,0.08 0.78,0.11 0.74,0.13 0.78,0.08 0.74,0.11 0.79,0.07 0.74,0.13 0.78,0.08 0.74,0.11 0.78,0.07 0.74,0.13 0.79,0.08 0.74,0.07 0.78,0.12 0.74,0.07 0.78,0.13 0.74,0.08 0.79,0.07 0.74,0.11 0.78,0.08 0.74,0.09 0.78,0.07 0.75,0.12 0.78,0.07 0.74,0.09 0.78,0.08 0.74,0.11 0.78,0.08 0.75,0.07 0.78,0.09 0.74,0.08 0.78,0.11 0.74,0.07 0.78,0.08 0.75,0.09 0.78,0.08 0.74,0.07 0.78,0.08 0.74,0.07 0.78,0.09 0.75,0.08 0.78,0.07 0.74,0.08 0.78,0.07 0.74,0.08 0.78,0.09 0.75,0.08 0.78,0.07 0.74,0.08 1.56,0.16 0.74,0.08 0.79,0.07 0.74,0.08 0.78,0.07 0.74,0.04 0.78,0.09 0.74,0.08 0.79,0.07 0.74,0.08 0.78,0.07 0.74,0.04 0.78,0.09 0.75,0.08 0.78,0.07 0.74,0.04 0.78,0.07 0.74,0.08 0.78,0.09 0.75,0.04 0.78,0.07 0.74,0.08 0.78,0.03 0.74,0.08 0.78,0.09 0.75,0.04 0.78,0.07 0.74,0.08 0.78,0.04 0.74,0.07 0.78,0.09 0.75,0.04 0.78,0.08 0.74,0.03 0.78,0.08 0.74,0.04 0.78,0.07 0.75,0.09 0.78,0.04 0.74,0.07 0.78,0.04 0.74,0.08 0.78,0.03 0.75,0.08 0.78,0.05 0.74,0.08 0.78,0.04 0.74,0.07 0.78,0.04 0.75,0.07 0.78,0.04 0.74,0.04 0.78,0.09 0.74,0.04 0.79,0.07 0.74,0.04 0.78,0.04 0.74,0.07 0.78,0.04 0.74,0.09 0.79,0.04 0.74,0.04 0.78,0.07 0.74,0.04 0.78,0.04 0.74,0.07 0.79,0.04 0.74,0.05 0.78,0.08 0.78,0.04 0.74,0.03 0.78,0.08 0.75,0.04 0.78,0.03 0.74,0.04 0.78,0.09 0.74,0.04 0.78,0.04 0.75,0.04 0.78,0.07 0.74,0.04 0.78,0.04 0.74,0.03 0.78,0.04 0.75,0.09 0.78,0.04 0.74,0.04 0.78,0.03 0.74,0.04 0.78,0.08 0.75,0.03 0.78,0.04 0.74,0.04 0.78,0.05 0.74,0.04 0.79,0.04 0.74,0.07 0.78,0.04 0.74,0.04 0.78,0.04 0.74,0.03 0.79,0.04 0.74,0.04 0.78,0.05 0.74,0.04 0.78,0.08 0.74,0.03 0.79,0.04 0.74,0.04 0.78,0.03 0.74,0.04 0.78,0.04 0.74,0.04 0.79,0.05 0.74,0.04 0.78,0.04 0.74,0.03 0.78,0.04 0.75,0.04 0.78,0.04 0.74,0.03 0.78,0.04 0.74,0.04 0.78,0.05 0.75,0.04 0.78,0.04 0.74,0.04 0.78,0.03 0.74,0.04 0.78,0.04"
         style="fill:none;stroke:#ef4872;stroke-width:10;stroke-linecap:butt;stroke-linejoin:round;stroke-miterlimit:3.25;stroke-dasharray:none;stroke-opacity:1"
         transform="matrix(0.13333333,0,0,-0.13333333,0,169.72)" />
      <path
         id="path16"
         d="m 1804.02,766.664 h 132.46"
         style="fill:none;stroke:#4974b1;stroke-width:10;stroke-linecap:butt;stroke-linejoin:round;stroke-miterlimit:3.25;stroke-dasharray:none;stroke-opacity:1"
         transform="matrix(0.13333333,0,0,-0.13333333,0,169.72)" />
      <path
         id="path17"
         d="m 1804.02,616.664 h 132.46"
         style="fill:none;stroke:#ef4872;stroke-width:10;stroke-linecap:butt;stroke-linejoin:round;stroke-miterlimit:3.25;stroke-dasharray:none;stroke-opacity:1"
         transform="matrix(0.13333333,0,0,-0.13333333,0,169.72)" />
    </g>
  </g>
</svg>
