<?xml version="1.0" encoding="UTF-8" standalone="no"?>
<!-- Created with Inkscape (http://www.inkscape.org/) -->

<svg
   version="1.1"
   id="svg1"
   width="288.60001"
   height="199.61333"
   viewBox="0 0 288.60001 199.61333"
   sodipodi:docname="pha04f18.eps"
   xmlns:inkscape="http://www.inkscape.org/namespaces/inkscape"
   xmlns:sodipodi="http://sodipodi.sourceforge.net/DTD/sodipodi-0.dtd"
   xmlns="http://www.w3.org/2000/svg"
   xmlns:svg="http://www.w3.org/2000/svg">
  <defs
     id="defs1" />
  <sodipodi:namedview
     id="namedview1"
     pagecolor="#ffffff"
     bordercolor="#000000"
     borderopacity="0.25"
     inkscape:showpageshadow="2"
     inkscape:pageopacity="0.0"
     inkscape:pagecheckerboard="0"
     inkscape:deskcolor="#d1d1d1">
    <inkscape:page
       x="0"
       y="0"
       inkscape:label="1"
       id="page1"
       width="288.60001"
       height="199.61333"
       margin="0"
       bleed="0" />
  </sodipodi:namedview>
  <g
     id="g1"
     inkscape:groupmode="layer"
     inkscape:label="1">
    <g
       id="group-R5">
      <g
         id="g2"
         aria-label="400&#10;2.0&#10;1.5&#10;1.0&#10;0.5&#10;500600700&#10;λ&#10;Z&#10;Y&#10;X"
         transform="matrix(1.3333333,0,0,1.3333333,40.8568,181.07067)">
        <path
           id="path2"
           d="m 4.1005641,-1.6057344 v -0.421875 H 3.2333766 v -3.65625 H 2.8818141 c -0.9257813,1.21875 -1.8515625,2.5546875 -2.70703129,3.8320313 v 0.2460937 H 2.5185328 v 0.65625003 c 0,0.5859375 -0.035156,0.64453125 -0.8203125,0.703125 V -2.65625e-4 H 4.0068141 V -0.24635937 C 3.2802516,-0.30495312 3.2333766,-0.35182812 3.2333766,-0.94948437 V -1.6057344 Z M 2.5185328,-2.0276094 H 0.74900156 C 1.3349391,-3.0237031 1.9208766,-3.8791719 2.5068141,-4.6760469 h 0.011719 z m 3.9580078,-3.6914062 c -1.3476562,0 -1.8398437,1.6054687 -1.8398437,2.9179687 0,1.4179688 0.4804687,2.90625003 1.8398437,2.90625003 1.359375,0 1.828125,-1.59375003 1.828125,-2.91796873 0,-1.3828125 -0.46875,-2.90625 -1.828125,-2.90625 z m 0,0.3046875 c 0.8085938,0 1.03125,1.3242187 1.03125,2.6015625 0,1.265625 -0.2226562,2.61328123 -1.03125,2.61328123 -0.7734375,0 -1.0429687,-1.35937503 -1.0429687,-2.61328123 0,-1.2539063 0.2226562,-2.6015625 1.0429687,-2.6015625 z M 10.7949,-5.7190156 c -1.3476562,0 -1.8398437,1.6054687 -1.8398437,2.9179687 0,1.4179688 0.4804687,2.90625003 1.8398437,2.90625003 1.359375,0 1.828125,-1.59375003 1.828125,-2.91796873 0,-1.3828125 -0.46875,-2.90625 -1.828125,-2.90625 z m 0,0.3046875 c 0.808594,0 1.03125,1.3242187 1.03125,2.6015625 0,1.265625 -0.222656,2.61328123 -1.03125,2.61328123 -0.773437,0 -1.0429687,-1.35937503 -1.0429687,-2.61328123 0,-1.2539063 0.2226562,-2.6015625 1.0429687,-2.6015625 z M -26.939475,-110.05398 c -0.269531,0.57422 -0.386719,0.60938 -0.867187,0.60938 h -1.6875 l 1.277343,-1.33594 c 0.832032,-0.89062 1.195313,-1.41797 1.195313,-2.20312 0,-0.94922 -0.726563,-1.52344 -1.511719,-1.52344 -0.527344,0 -0.949219,0.23437 -1.21875,0.53906 l -0.515625,0.72656 0.199219,0.17578 c 0.234375,-0.35156 0.609375,-0.83203 1.230469,-0.83203 0.65625,0 1.054687,0.4336 1.054687,1.19532 0,0.77343 -0.5625,1.51171 -1.125,2.17968 -0.445312,0.51563 -0.949219,1.03125 -1.453125,1.52344 v 0.21094 h 3.363281 c 0.105469,-0.41016 0.199219,-0.79688 0.316407,-1.1836 z m 1.649414,1.3711 c 0.28125,0 0.503906,-0.19922 0.503906,-0.51563 0,-0.29297 -0.222656,-0.51562 -0.503906,-0.51562 -0.292969,0 -0.503906,0.22265 -0.503906,0.51562 0,0.31641 0.210937,0.51563 0.503906,0.51563 z m 3.175781,-5.82422 c -1.347656,0 -1.839843,1.60547 -1.839843,2.91797 0,1.41797 0.480468,2.90625 1.839843,2.90625 1.359375,0 1.828125,-1.59375 1.828125,-2.91797 0,-1.38281 -0.46875,-2.90625 -1.828125,-2.90625 z m 0,0.30469 c 0.808594,0 1.03125,1.32421 1.03125,2.60156 0,1.26562 -0.222656,2.61328 -1.03125,2.61328 -0.773437,0 -1.042968,-1.35938 -1.042968,-2.61328 0,-1.25391 0.222656,-2.60156 1.042968,-2.60156 z m -5.071289,30.395504 V -84.053 c -0.820312,-0.05859 -0.878906,-0.128906 -0.878906,-0.785156 v -4.6875 c -0.492187,0.199219 -1.019531,0.375 -1.59375,0.46875 v 0.210937 l 0.433594,0.01172 c 0.386719,0.02344 0.421875,0.07031 0.421875,0.539063 v 3.457031 c 0,0.65625 -0.03516,0.726562 -0.855469,0.785156 v 0.246094 z m 1.895508,0.105469 c 0.28125,0 0.503906,-0.199219 0.503906,-0.515625 0,-0.292969 -0.222656,-0.515625 -0.503906,-0.515625 -0.292969,0 -0.503906,0.222656 -0.503906,0.515625 0,0.316406 0.210937,0.515625 0.503906,0.515625 z m 2.390625,-5.050782 h 2.097656 l 0.234375,-0.585937 -0.05859,-0.07031 h -2.566407 l -0.351562,2.742188 c 0.210937,-0.08203 0.550781,-0.1875 0.925781,-0.1875 0.984375,0 1.464844,0.574219 1.464844,1.359375 0,0.679687 -0.375,1.335937 -1.136719,1.335937 -0.550781,0 -0.914062,-0.292968 -1.113281,-0.457031 -0.08203,-0.07031 -0.152344,-0.05859 -0.234375,0 -0.105469,0.09375 -0.1875,0.210938 -0.1875,0.292969 -0.02344,0.105469 0.02344,0.1875 0.140625,0.304687 0.128906,0.128907 0.515625,0.316407 0.925781,0.316407 0.480469,-0.01172 1.078125,-0.246094 1.570313,-0.632813 0.550781,-0.457031 0.796875,-0.960937 0.796875,-1.511719 0,-0.738281 -0.585938,-1.511718 -1.734375,-1.511718 -0.246094,0 -0.667969,0.140625 -1.007813,0.269531 z m -4.286133,29.923828 v -0.246093 c -0.820312,-0.05859 -0.878906,-0.128907 -0.878906,-0.785157 v -4.6875 c -0.492187,0.199219 -1.019531,0.375 -1.59375,0.46875 v 0.210938 l 0.433594,0.01172 c 0.386719,0.02344 0.421875,0.07031 0.421875,0.539062 v 3.457031 c 0,0.65625 -0.03516,0.726563 -0.855469,0.785157 v 0.246093 z m 1.895508,0.105469 c 0.28125,0 0.503906,-0.199219 0.503906,-0.515625 0,-0.292969 -0.222656,-0.515625 -0.503906,-0.515625 -0.292969,0 -0.503906,0.222656 -0.503906,0.515625 0,0.316406 0.210937,0.515625 0.503906,0.515625 z m 3.175781,-5.824219 c -1.347656,0 -1.839843,1.605469 -1.839843,2.917969 0,1.417969 0.480468,2.90625 1.839843,2.90625 1.359375,0 1.828125,-1.59375 1.828125,-2.917969 0,-1.382812 -0.46875,-2.90625 -1.828125,-2.90625 z m 0,0.304688 c 0.808594,0 1.03125,1.324219 1.03125,2.601562 0,1.265625 -0.222656,2.613282 -1.03125,2.613282 -0.773437,0 -1.042968,-1.359375 -1.042968,-2.613282 0,-1.253906 0.222656,-2.601562 1.042968,-2.601562 z m -6.37207,24.676758 c -1.347656,0 -1.839844,1.605468 -1.839844,2.917968 0,1.417969 0.480469,2.90625 1.839844,2.90625 1.359375,0 1.828125,-1.59375 1.828125,-2.917968 0,-1.382813 -0.46875,-2.90625 -1.828125,-2.90625 z m 0,0.304687 c 0.808594,0 1.03125,1.324219 1.03125,2.601563 0,1.265625 -0.222656,2.613281 -1.03125,2.613281 -0.773437,0 -1.042969,-1.359375 -1.042969,-2.613281 0,-1.253907 0.222657,-2.601563 1.042969,-2.601563 z m 3.196289,5.519531 c 0.28125,0 0.503906,-0.199218 0.503906,-0.515625 0,-0.292968 -0.222656,-0.515625 -0.503906,-0.515625 -0.292969,0 -0.503906,0.222657 -0.503906,0.515625 0,0.316407 0.210937,0.515625 0.503906,0.515625 z m 2.390625,-5.050781 h 2.097656 l 0.234375,-0.585937 -0.05859,-0.07031 h -2.566407 l -0.351562,2.742188 c 0.210937,-0.08203 0.550781,-0.1875 0.925781,-0.1875 0.984375,0 1.464844,0.574218 1.464844,1.359375 0,0.679687 -0.375,1.335937 -1.136719,1.335937 -0.550781,0 -0.914062,-0.292969 -1.113281,-0.457031 -0.08203,-0.07031 -0.152344,-0.05859 -0.234375,0 -0.105469,0.09375 -0.1875,0.210937 -0.1875,0.292969 -0.02344,0.105468 0.02344,0.1875 0.140625,0.304687 0.128906,0.128906 0.515625,0.316406 0.925781,0.316406 0.480469,-0.01172 1.078125,-0.246093 1.570313,-0.632812 0.550781,-0.457031 0.796875,-0.960938 0.796875,-1.511719 0,-0.738281 -0.585938,-1.511719 -1.734375,-1.511719 -0.246094,0 -0.667969,0.140625 -1.007813,0.269532 z m 78.612305,33.8466799 h 2.097656 L 58.0449,-5.5315156 57.98631,-5.6018276 H 55.4199 l -0.351562,2.7421875 c 0.210937,-0.082031 0.550781,-0.1875 0.925781,-0.1875 0.984375,0 1.464844,0.5742187 1.464844,1.359375 0,0.6796875 -0.375,1.33593748 -1.136719,1.33593748 -0.550781,0 -0.914063,-0.29296875 -1.113281,-0.45703125 -0.08203,-0.0703125 -0.152344,-0.0585938 -0.234375,0 -0.105469,0.09375 -0.1875,0.2109375 -0.1875,0.29296875 -0.02344,0.10546875 0.02344,0.1875 0.140625,0.3046875 0.128906,0.12890625 0.515625,0.31640625 0.925781,0.31640625 0.480469,-0.01171875 1.078125,-0.24609375 1.570312,-0.6328125 0.550782,-0.45703125 0.796875,-0.96093753 0.796875,-1.51171873 0,-0.7382813 -0.585937,-1.5117188 -1.734375,-1.5117188 -0.246093,0 -0.667968,0.140625 -1.007812,0.2695313 z m 5.103515,-0.7734375 c -1.347656,0 -1.839843,1.6054687 -1.839843,2.9179687 0,1.4179688 0.480468,2.90625003 1.839843,2.90625003 1.359375,0 1.828125,-1.59375003 1.828125,-2.91796873 0,-1.3828125 -0.46875,-2.90625 -1.828125,-2.90625 z m 0,0.3046875 c 0.808594,0 1.03125,1.3242187 1.03125,2.6015625 0,1.265625 -0.222656,2.61328123 -1.03125,2.61328123 -0.773437,0 -1.042968,-1.35937503 -1.042968,-2.61328123 0,-1.2539063 0.222656,-2.6015625 1.042968,-2.6015625 z m 4.321289,-0.3046875 c -1.347656,0 -1.839843,1.6054687 -1.839843,2.9179687 0,1.4179688 0.480468,2.90625003 1.839843,2.90625003 1.359375,0 1.828125,-1.59375003 1.828125,-2.91796873 0,-1.3828125 -0.46875,-2.90625 -1.828125,-2.90625 z m 0,0.3046875 c 0.808594,0 1.03125,1.3242187 1.03125,2.6015625 0,1.265625 -0.222656,2.61328123 -1.03125,2.61328123 -0.773437,0 -1.042968,-1.35937503 -1.042968,-2.61328123 0,-1.2539063 0.222656,-2.6015625 1.042968,-2.6015625 z m 44.774417,2.3320312 c 0.26953,-1.2539062 1.11328,-1.828125 1.66406,-2.0859375 0.32813,-0.1523437 0.67969,-0.2578125 0.97266,-0.3164062 l -0.0586,-0.28125 c -0.36328,0.058594 -0.79687,0.1640625 -1.14843,0.28125 -0.96094,0.3515625 -2.33204,1.3710937 -2.33204,3.3398437 0,1.38281253 0.79688,2.25000003 1.85157,2.25000003 1.07812,0 1.83984,-0.90234375 1.83984,-1.98046873 0,-0.9257813 -0.65625,-1.6640625 -1.61719,-1.6640625 -0.17578,0 -0.36328,0.070312 -0.5625,0.1523437 z m 0.82031,0.046875 c 0.82031,0 1.19531,0.7382813 1.19531,1.4882813 0,0.59765623 -0.21093,1.34765623 -0.91406,1.34765623 -0.73828,0 -1.19531,-0.87890623 -1.19531,-1.95703123 0,-0.234375 0.0117,-0.4570313 0.0469,-0.6210938 0.22266,-0.1171875 0.52735,-0.2578125 0.86719,-0.2578125 z m 4.42676,-2.6835937 c -1.34766,0 -1.83985,1.6054687 -1.83985,2.9179687 0,1.4179688 0.48047,2.90625003 1.83985,2.90625003 1.35937,0 1.82812,-1.59375003 1.82812,-2.91796873 0,-1.3828125 -0.46875,-2.90625 -1.82812,-2.90625 z m 0,0.3046875 c 0.80859,0 1.03125,1.3242187 1.03125,2.6015625 0,1.265625 -0.22266,2.61328123 -1.03125,2.61328123 -0.77344,0 -1.04297,-1.35937503 -1.04297,-2.61328123 0,-1.2539063 0.22266,-2.6015625 1.04297,-2.6015625 z m 4.31836,-0.3046875 c -1.34766,0 -1.83985,1.6054687 -1.83985,2.9179687 0,1.4179688 0.48047,2.90625003 1.83985,2.90625003 1.35937,0 1.82812,-1.59375003 1.82812,-2.91796873 0,-1.3828125 -0.46875,-2.90625 -1.82812,-2.90625 z m 0,0.3046875 c 0.80859,0 1.03125,1.3242187 1.03125,2.6015625 0,1.265625 -0.22266,2.61328123 -1.03125,2.61328123 -0.77344,0 -1.04297,-1.35937503 -1.04297,-2.61328123 0,-1.2539063 0.22265,-2.6015625 1.04297,-2.6015625 z m 47.5664,-0.1875 h -3.43359 c -0.0352,0.3867187 -0.082,0.8320312 -0.16406,1.3242187 h 0.25781 c 0.22266,-0.5859375 0.26953,-0.6679687 0.86719,-0.6679687 h 1.94531 c -0.71484,1.5585937 -1.72266,3.421875 -2.67188,4.95703123 l 0.0586,0.09375 0.66797,-0.08203125 c 0.86718,-1.86328128 1.69922,-3.69140628 2.54297,-5.51953128 z m 2.45508,-0.1171875 c -1.34765,0 -1.83984,1.6054687 -1.83984,2.9179687 0,1.4179688 0.48047,2.90625003 1.83984,2.90625003 1.35938,0 1.82813,-1.59375003 1.82813,-2.91796873 0,-1.3828125 -0.46875,-2.90625 -1.82813,-2.90625 z m 0,0.3046875 c 0.8086,0 1.03125,1.3242187 1.03125,2.6015625 0,1.265625 -0.22265,2.61328123 -1.03125,2.61328123 -0.77344,0 -1.04297,-1.35937503 -1.04297,-2.61328123 0,-1.2539063 0.22266,-2.6015625 1.04297,-2.6015625 z m 4.32129,-0.3046875 c -1.34766,0 -1.83984,1.6054687 -1.83984,2.9179687 0,1.4179688 0.48047,2.90625003 1.83984,2.90625003 1.35938,0 1.82813,-1.59375003 1.82813,-2.91796873 0,-1.3828125 -0.46875,-2.90625 -1.82813,-2.90625 z m 0,0.3046875 c 0.80859,0 1.03125,1.3242187 1.03125,2.6015625 0,1.265625 -0.22266,2.61328123 -1.03125,2.61328123 -0.77344,0 -1.04297,-1.35937503 -1.04297,-2.61328123 0,-1.2539063 0.22266,-2.6015625 1.04297,-2.6015625 z m 0,0"
           style="fill:#231f20;fill-opacity:1;fill-rule:nonzero;stroke:none" />
        <path
           id="path3"
           d="m 87.057595,9.6354766 c -0.28125,0.3867184 -0.503906,0.5273434 -0.597656,0.5273434 -0.08203,0 -0.140625,-0.09375 -0.199219,-0.4921872 -0.164062,-1.1367187 -0.292968,-2.6015625 -0.363281,-3.3398437 -0.152344,-1.7226563 -0.46875,-2.0742188 -0.9375,-2.0742188 -0.257812,0 -0.632812,0.1757813 -0.84375,0.3515625 l 0.05859,0.2226563 c 0.117187,-0.046875 0.257812,-0.09375 0.386719,-0.09375 0.28125,0.011719 0.480468,0.1757812 0.609375,0.9726562 0.05859,0.3398438 0.09375,0.703125 0.117187,1.1367188 -0.609375,1.4414062 -1.582031,2.8945312 -2.285156,3.7617189 l 0.07031,0.164062 c 0.222657,-0.04687 0.433594,-0.105468 0.632813,-0.164062 0.351562,-0.503906 1.207031,-2.1445314 1.652344,-3.1640627 0.03516,0.6445313 0.105468,1.2421875 0.234375,2.3554688 0.05859,0.6445309 0.210937,0.9726559 0.503906,0.9726559 0.269531,0 0.667969,-0.222656 1.136719,-0.9374997 z M 35.313455,-109.77859 h -3.386719 c -0.257813,0 -0.339844,-0.0234 -0.457031,-0.23437 h -0.1875 c -0.07031,0.46875 -0.210938,1.125 -0.363282,1.67578 l 0.257813,0.0352 c 0.175781,-0.46875 0.328125,-0.70313 0.457031,-0.85547 0.175781,-0.23438 0.339844,-0.32813 1.230469,-0.32813 h 1.429687 c -1.488281,1.83985 -2.964843,3.6211 -4.453125,5.40235 l 0.04687,0.14062 h 4.488282 c 0.152343,-0.30469 0.457031,-1.18359 0.539062,-1.47656 l -0.246094,-0.10547 c -0.234375,0.46875 -0.410156,0.78516 -0.65625,0.99609 -0.292968,0.2461 -0.796875,0.28125 -1.652343,0.28125 -0.597657,0 -1.054688,-0.0234 -1.40625,-0.0586 1.476562,-1.80469 2.917968,-3.57422 4.417968,-5.35547 z m 59.282226,39.295903 h -1.945312 l -0.05859,0.234375 0.269531,0.03516 c 0.339844,0.04687 0.398438,0.117187 0.210938,0.433594 -0.363281,0.609375 -1.019531,1.523437 -1.453125,2.121093 -0.246094,-0.621093 -0.644531,-1.664062 -0.808594,-2.167968 -0.09375,-0.269532 -0.08203,-0.339844 0.234375,-0.386719 l 0.316406,-0.03516 0.07031,-0.234375 h -2.097656 l -0.04687,0.234375 c 0.5625,0.07031 0.621093,0.105468 0.820312,0.632812 0.363281,0.9375 0.585938,1.535156 0.808594,2.109375 0.07031,0.210938 0.08203,0.339844 0.04687,0.527344 l -0.246094,1.21875 c -0.152344,0.773437 -0.222656,0.820312 -0.949219,0.867187 l -0.05859,0.246094 h 2.402343 l 0.04687,-0.246094 c -0.796875,-0.07031 -0.855468,-0.105468 -0.703125,-0.867187 l 0.246094,-1.277344 c 0.03516,-0.199219 0.08203,-0.328125 0.222656,-0.503906 0.585938,-0.84375 1.066407,-1.511719 1.476563,-2.027344 0.457031,-0.5625 0.550781,-0.621094 1.125,-0.679687 z m 23.794919,-3.899415 h -1.94531 l -0.0586,0.234375 0.25781,0.03516 c 0.30469,0.04687 0.33984,0.117187 0.15234,0.398437 -0.38672,0.550781 -0.82031,1.089844 -1.24218,1.617188 -0.32813,-0.703125 -0.58594,-1.230469 -0.73829,-1.664063 -0.0937,-0.257812 -0.0469,-0.292969 0.2461,-0.351562 l 0.23437,-0.03516 0.0586,-0.234375 h -2.08594 l -0.0586,0.234375 c 0.59765,0.07031 0.67968,0.105469 0.94921,0.703125 l 0.86719,1.957032 c -0.77344,0.972656 -1.45312,1.792968 -1.75781,2.109375 -0.43359,0.46875 -0.57422,0.539062 -1.14844,0.585937 l -0.0586,0.246094 h 2.03906 l 0.0586,-0.246094 -0.22265,-0.02344 c -0.375,-0.05859 -0.38672,-0.164063 -0.21094,-0.445313 0.36328,-0.539062 0.85547,-1.160156 1.45313,-1.921875 0.5039,1.136719 0.71484,1.628906 0.83203,1.921875 0.1289,0.316406 0.082,0.386719 -0.2461,0.433594 l -0.28125,0.03516 -0.0469,0.246094 h 2.26172 l 0.0586,-0.246094 c -0.69141,-0.05859 -0.76172,-0.105469 -1.06641,-0.785156 l -0.99609,-2.214844 c 0.78516,-0.960937 1.18359,-1.441406 1.45313,-1.746094 0.48046,-0.515625 0.57421,-0.539062 1.19531,-0.609375 z m 0,0"
           style="fill:#231f20;fill-opacity:1;fill-rule:nonzero;stroke:none" />
      </g>
      <path
         id="path4"
         d="m 371.227,224.449 v 30"
         style="fill:none;stroke:#231f20;stroke-width:5;stroke-linecap:butt;stroke-linejoin:miter;stroke-miterlimit:3.25;stroke-dasharray:none;stroke-opacity:1"
         transform="matrix(0.13333333,0,0,-0.13333333,0,199.61333)" />
      <path
         id="path5"
         d="m 914.641,224.449 v 30"
         style="fill:none;stroke:#231f20;stroke-width:5;stroke-linecap:butt;stroke-linejoin:miter;stroke-miterlimit:3.25;stroke-dasharray:none;stroke-opacity:1"
         transform="matrix(0.13333333,0,0,-0.13333333,0,199.61333)" />
      <path
         id="path6"
         d="m 1458.06,224.449 v 30"
         style="fill:none;stroke:#231f20;stroke-width:5;stroke-linecap:butt;stroke-linejoin:miter;stroke-miterlimit:3.25;stroke-dasharray:none;stroke-opacity:1"
         transform="matrix(0.13333333,0,0,-0.13333333,0,199.61333)" />
      <path
         id="path7"
         d="m 2001.47,224.449 v 30"
         style="fill:none;stroke:#231f20;stroke-width:5;stroke-linecap:butt;stroke-linejoin:miter;stroke-miterlimit:3.25;stroke-dasharray:none;stroke-opacity:1"
         transform="matrix(0.13333333,0,0,-0.13333333,0,199.61333)" />
      <path
         id="path8"
         d="m 123.887,1003.92 h 30"
         style="fill:none;stroke:#231f20;stroke-width:5;stroke-linecap:butt;stroke-linejoin:miter;stroke-miterlimit:3.25;stroke-dasharray:none;stroke-opacity:1"
         transform="matrix(0.13333333,0,0,-0.13333333,0,199.61333)" />
      <path
         id="path9"
         d="m 123.887,1253.75 h 30"
         style="fill:none;stroke:#231f20;stroke-width:5;stroke-linecap:butt;stroke-linejoin:miter;stroke-miterlimit:3.25;stroke-dasharray:none;stroke-opacity:1"
         transform="matrix(0.13333333,0,0,-0.13333333,0,199.61333)" />
      <path
         id="path10"
         d="m 123.887,504.254 h 30"
         style="fill:none;stroke:#231f20;stroke-width:5;stroke-linecap:butt;stroke-linejoin:miter;stroke-miterlimit:3.25;stroke-dasharray:none;stroke-opacity:1"
         transform="matrix(0.13333333,0,0,-0.13333333,0,199.61333)" />
      <path
         id="path11"
         d="m 123.887,754.082 h 30"
         style="fill:none;stroke:#231f20;stroke-width:5;stroke-linecap:butt;stroke-linejoin:miter;stroke-miterlimit:3.25;stroke-dasharray:none;stroke-opacity:1"
         transform="matrix(0.13333333,0,0,-0.13333333,0,199.61333)" />
      <path
         id="path12"
         d="M 153.887,254.449 V 1497.07"
         style="fill:none;stroke:#231f20;stroke-width:5;stroke-linecap:butt;stroke-linejoin:miter;stroke-miterlimit:3.25;stroke-dasharray:none;stroke-opacity:1"
         transform="matrix(0.13333333,0,0,-0.13333333,0,199.61333)" />
      <path
         id="path13"
         d="m 153.887,254.488 5.429,0.043 h 16.289 l 5.43,0.039 h 10.852 l 5.426,0.032 h 5.468 l 10.864,0.078 h 5.433 l 16.289,0.121 5.43,0.078 5.43,0.043 5.468,0.066 5.43,0.043 27.148,0.391 5.434,0.117 5.43,0.16 5.468,0.192 5.43,0.199 10.852,0.469 10.855,0.543 5.434,0.32 5.429,0.387 5.426,0.472 5.477,0.551 5.43,0.617 10.859,1.403 5.43,0.75 10.859,1.398 5.43,0.832 5.429,0.969 5.469,1.211 5.43,1.519 5.429,1.801 5.434,2.027 5.43,2.313 5.429,2.5 5.43,2.726 5.43,3.051 5.429,3.321 5.458,3.75 5.429,4.218 5.434,4.653 5.429,5.109 5.426,5.59 5.434,6.211 5.43,6.801 5.433,7.457 5.43,8.011 5.469,8.321 5.429,8.281 5.43,8.078 5.43,7.699 5.429,7.34 5.43,6.949 5.43,6.532 5.429,6.011 5.43,5.508 5.473,5 5.429,4.422 5.43,3.937 5.43,3.442 5.429,2.93 5.43,2.421 5.43,1.95 5.43,1.488 5.46,1.09 5.426,0.672 5.434,0.269 5.43,-0.078 5.433,-0.352 5.43,-0.628 5.43,-0.864 5.429,-1.047 5.43,-1.211 5.469,-1.371 5.433,-1.437 5.43,-1.492 5.43,-1.598 5.429,-1.684 5.43,-1.867 5.43,-2.109 5.429,-2.313 5.43,-2.578 5.469,-2.812 5.429,-3.008 5.43,-3.242 5.43,-3.387 5.43,-3.641 5.429,-3.859 5.43,-4.262 5.43,-4.648 5.429,-5.16 5.469,-5.473 5.43,-5.738 5.429,-5.781 5.43,-5.7 5.43,-5.59 5.429,-5.429 5.43,-5.313 5.43,-5.199 5.43,-5.117 5.468,-4.961 5.43,-4.762 5.43,-4.648 5.429,-4.492 5.43,-4.34 5.43,-4.18 5.429,-3.98 5.43,-3.789 5.43,-3.559 5.469,-3.32 5.429,-3.039 5.43,-2.782 5.43,-2.582 5.429,-2.34 5.43,-2.226 5.43,-2.031 5.429,-1.871 5.43,-1.758 5.469,-1.563 5.429,-1.41 5.43,-1.289 5.43,-1.09 5.43,-0.98 5.429,-0.86 5.43,-0.699 5.43,-0.539 5.429,-0.441 5.469,-0.231 5.43,-0.121 5.429,0.082 5.43,0.27 5.43,0.468 5.429,0.672 5.43,0.891 5.43,1.18 5.43,1.398 5.468,1.68 5.43,1.992 5.43,2.269 5.429,2.539 5.428,2.852 5.43,3.156 5.43,3.442 5.43,3.672 5.43,3.949 5.47,4.179 5.43,4.411 5.43,4.648 5.43,4.852 5.43,5.07 5.43,5.277 5.43,5.473 5.43,5.621 5.43,5.75 5.47,5.809 5.43,5.859 5.43,5.941 5.42,6.02 5.43,6.09 5.43,6.168 5.43,6.293 5.43,6.367 5.43,6.48 5.47,6.532 5.43,6.64 5.43,6.75 5.43,6.84 5.43,6.91 5.43,7.039 5.43,7.102 5.43,7.187 5.43,7.27 5.47,7.34 5.43,7.461 5.43,7.582 5.43,7.66 5.43,7.769 5.43,7.848 5.43,7.973 5.43,8.047 5.43,8.086 5.46,8.203 5.43,8.242 10.86,16.64 10.86,16.719 16.29,25.196 5.47,8.437 5.43,8.398 10.86,16.719 5.43,8.281 5.43,8.204 5.43,8.164 5.43,8.047 5.43,7.929 5.47,7.813 5.43,7.734 5.43,7.578 5.43,7.383 5.43,7.227 5.43,6.953 5.43,6.758 5.42,6.484 5.43,6.25 5.47,5.976 5.43,5.665 5.43,5.39 5.43,5.078 5.43,4.766 5.43,4.453 5.43,4.141 5.43,3.867 5.43,3.476 5.47,3.125 5.43,2.618 5.43,2.109 5.43,1.562 5.43,1.016 5.43,0.469 5.43,0.078 5.43,-0.352 5.43,-0.742 5.47,-1.133 5.43,-1.64 5.43,-2.11 5.42,-2.695 5.43,-3.281 5.43,-3.828 5.43,-4.336 5.43,-4.805 5.47,-5.234 5.43,-5.586 5.43,-6.016 5.43,-6.445 5.43,-6.797 5.43,-7.227 5.43,-7.578 5.43,-7.968 5.43,-8.399 5.47,-8.75 5.43,-9.258 5.43,-9.648 5.43,-10.078 5.43,-10.391 5.43,-10.586 5.43,-10.781 5.43,-10.899 5.43,-10.976 5.46,-11.016 5.43,-10.859 5.43,-10.703 5.43,-10.43 5.43,-10.195 5.43,-10 5.43,-9.844 5.43,-9.766 5.43,-9.648 5.47,-9.492 5.43,-9.41 5.43,-9.262 5.43,-9.141 5.43,-9.027 5.43,-8.859 5.43,-8.711 5.43,-8.559 5.43,-8.363 5.47,-8.16 5.43,-7.969 5.43,-7.738 5.43,-7.5 5.43,-7.262 5.43,-6.949 5.43,-6.719 5.43,-6.492 5.42,-6.211 5.47,-6.008 5.43,-5.789 5.43,-5.582 5.43,-5.391 5.43,-5.16 5.43,-4.957 5.43,-4.762 5.43,-4.582 5.43,-4.367 5.47,-4.141 5.43,-3.992 5.43,-3.777 5.43,-3.563 5.43,-3.398 5.43,-3.16 5.43,-2.969 5.43,-2.769 5.43,-2.543 5.47,-2.348 5.43,-2.18 5.43,-2.07 5.43,-1.879 5.42,-1.762 5.43,-1.679 5.43,-1.559 5.43,-1.523 5.43,-1.477 5.47,-1.453 5.43,-1.41 5.43,-1.328 5.43,-1.25 5.43,-1.172 5.43,-1.09 5.43,-1.02 5.43,-0.937 5.43,-0.891 5.47,-0.82 5.43,-0.75 5.43,-0.66 5.43,-0.629 5.43,-0.582 5.43,-0.508 10.86,-0.941 5.43,-0.391 5.46,-0.391 10.86,-0.699 16.29,-0.941 5.43,-0.231 5.43,-0.277 5.43,-0.191 5.47,-0.239 16.29,-0.582 16.29,-0.469 5.43,-0.121 5.43,-0.148 5.47,-0.121 5.43,-0.078 10.86,-0.231 27.14,-0.39 5.47,-0.039 5.43,-0.082 5.43,-0.04 5.43,-0.082"
         style="fill:none;stroke:#b22831;stroke-width:10;stroke-linecap:butt;stroke-linejoin:round;stroke-miterlimit:3.25;stroke-dasharray:none;stroke-opacity:1"
         transform="matrix(0.13333333,0,0,-0.13333333,0,199.61333)" />
      <path
         id="path14"
         d="m 153.887,254.449 h 130.386 l 5.434,0.039 h 32.606 l 5.429,0.043 h 10.863 l 5.426,0.039 h 10.907 l 5.429,0.032 h 5.43 l 5.43,0.039 h 5.429 l 5.43,0.039 h 5.43 l 5.429,0.039 5.469,0.043 10.859,0.078 5.434,0.082 5.43,0.039 16.289,0.23 5.429,0.118 5.458,0.082 5.429,0.148 5.434,0.121 5.429,0.16 10.86,0.391 5.43,0.23 5.433,0.27 5.43,0.32 5.469,0.309 5.429,0.351 10.86,0.778 16.289,1.293 5.429,0.468 5.43,0.508 5.473,0.473 16.289,1.641 5.429,0.578 5.43,0.629 5.43,0.582 5.43,0.668 5.46,0.621 5.426,0.629 5.434,0.66 5.43,0.703 5.433,0.668 10.86,1.48 5.429,0.782 5.43,0.82 5.469,0.859 10.863,1.801 5.43,0.977 10.859,2.031 10.859,2.191 5.43,1.168 5.469,1.211 10.859,2.5 10.86,2.66 5.429,1.36 5.43,1.449 5.43,1.48 5.429,1.563 5.469,1.609 5.43,1.707 5.429,1.801 5.43,1.84 5.43,1.992 5.429,2.07 5.43,2.149 5.43,2.262 5.43,2.347 5.468,2.461 5.43,2.578 5.43,2.653 5.429,2.738 5.43,2.769 5.43,2.813 5.429,2.891 5.43,3.007 5.43,3.129 5.469,3.282 5.429,3.468 5.43,3.684 5.43,3.816 5.429,4.114 5.43,4.289 5.43,4.531 5.429,4.808 5.43,5.04 5.469,5.312 5.429,5.59 5.43,5.777 5.43,6.051 5.43,6.371 5.429,6.758 5.43,7.191 5.43,7.692 5.429,8.16 5.469,8.476 5.43,8.793 5.429,9.02 5.43,9.141 5.43,9.339 5.429,9.528 5.43,9.769 5.43,10.039 5.43,10.274 5.468,10.469 5.43,10.585 5.43,10.625 10.857,21.172 5.43,10.469 5.43,10.274 5.43,10 5.43,9.57 5.47,9.062 5.43,8.633 5.43,8.242 5.43,7.93 5.43,7.695 5.43,7.461 5.43,7.188 5.43,6.875 5.43,6.601 5.47,6.25 5.43,5.899 5.43,5.586 5.42,5.234 5.43,5 5.43,4.688 5.43,4.453 5.43,4.14 5.43,3.946 5.47,3.632 5.43,3.399 5.43,3.125 5.43,2.851 5.43,2.618 5.43,2.382 5.43,2.149 5.43,1.914 5.43,1.68 5.47,1.406 5.43,1.25 5.43,1.055 5.43,0.898 5.43,0.703 5.43,0.508 5.43,0.312 5.43,0.118 5.43,-0.078 5.46,-0.274 5.43,-0.469 5.43,-0.742 5.43,-0.937 5.43,-1.211 5.43,-1.407 5.43,-1.64 5.43,-1.875 5.43,-2.07 5.47,-2.227 5.43,-2.461 5.43,-2.656 5.43,-2.852 5.43,-3.086 5.43,-3.281 5.43,-3.477 5.43,-3.632 5.43,-3.868 5.47,-4.023 5.43,-4.18 5.43,-4.375 5.43,-4.531 5.43,-4.726 5.43,-4.883 5.43,-5.078 5.42,-5.196 5.43,-5.39 5.47,-5.508 5.43,-5.664 5.43,-5.742 5.43,-5.86 5.43,-5.937 5.43,-6.016 5.43,-6.055 5.43,-6.132 5.43,-6.172 5.47,-6.172 5.43,-6.25 10.86,-12.656 5.43,-6.368 21.72,-25.625 5.47,-6.445 32.57,-38.437 5.43,-6.368 5.47,-6.289 5.43,-6.289 5.43,-6.207 5.43,-6.179 5.43,-6.133 5.43,-6.09 5.43,-6.047 5.43,-6.023 5.43,-5.977 5.47,-6.012 10.86,-12.039 5.43,-6.051 5.43,-6.019 5.43,-5.973 5.43,-5.898 5.43,-5.82 5.43,-5.739 5.46,-5.633 5.43,-5.507 5.43,-5.309 5.43,-5.121 5.43,-4.922 5.43,-4.758 5.43,-4.652 5.43,-4.527 5.43,-4.422 5.47,-4.289 5.43,-4.18 5.43,-4.109 5.43,-3.981 5.43,-3.871 5.43,-3.789 5.43,-3.672 5.43,-3.59 5.43,-3.48 5.47,-3.321 5.43,-3.238 5.43,-3.129 5.43,-3 5.43,-2.89 5.43,-2.743 5.43,-2.66 5.43,-2.527 5.42,-2.43 5.47,-2.301 5.43,-2.269 5.43,-2.141 5.43,-2.039 5.43,-1.992 5.43,-1.867 5.43,-1.801 5.43,-1.723 5.43,-1.636 5.47,-1.563 5.43,-1.488 5.43,-1.402 5.43,-1.329 5.43,-1.289 5.43,-1.171 5.43,-1.098 5.43,-1.012 5.43,-0.941 5.47,-0.86 5.43,-0.82 5.43,-0.777 10.85,-1.332 5.43,-0.621 5.43,-0.547 5.43,-0.59 5.43,-0.543 5.47,-0.508 5.43,-0.539 10.86,-0.941 5.43,-0.43 5.43,-0.391 10.86,-0.711 5.43,-0.308 5.47,-0.313 5.43,-0.277 10.86,-0.473 10.86,-0.386 16.29,-0.461 5.46,-0.161 27.15,-0.589 5.43,-0.071 5.43,-0.121 5.43,-0.078 5.47,-0.082 5.43,-0.078 5.43,-0.039 5.43,-0.07 5.43,-0.043 5.43,-0.079 5.43,-0.039 5.43,-0.082 5.43,-0.039 5.47,-0.039 21.72,-0.152 h 5.43 l 10.86,-0.078 h 5.42 l 5.47,-0.039 5.43,-0.043 h 5.43 l 5.43,-0.039"
         style="fill:none;stroke:#3eb73d;stroke-width:10;stroke-linecap:butt;stroke-linejoin:round;stroke-miterlimit:3.25;stroke-dasharray:none;stroke-opacity:1"
         transform="matrix(0.13333333,0,0,-0.13333333,0,199.61333)" />
      <path
         id="path15"
         d="m 153.887,254.719 5.429,0.043 5.43,0.078 10.859,0.082 5.43,0.066 5.43,0.043 10.848,0.16 5.468,0.118 16.297,0.351 10.86,0.309 5.429,0.203 10.86,0.539 5.468,0.32 16.289,0.93 10.86,0.711 5.429,0.469 5.434,0.578 5.43,0.703 5.468,0.816 5.43,0.981 5.43,1.101 5.422,1.129 5.426,1.25 5.429,1.332 5.434,1.52 5.429,1.84 5.426,2.14 5.477,2.617 5.43,3.012 5.429,3.32 10.86,6.872 5.429,3.32 5.43,3.398 5.43,3.91 5.429,4.692 5.469,5.816 5.43,7.223 5.429,8.519 5.434,9.801 5.43,10.981 5.429,12.07 5.43,13.129 5.43,14.449 5.429,16.051 5.458,18.008 5.429,20.242 5.434,22.461 5.429,24.609 5.426,27.067 5.434,29.922 5.43,33.007 5.433,36.407 5.43,39.101 5.469,40.547 5.429,40.75 5.43,39.797 5.43,38.125 5.429,36.523 5.43,34.805 5.43,32.891 5.429,30.781 5.43,28.516 5.473,26.05 5.429,23.68 5.43,21.32 5.43,19.07 5.429,16.68 5.43,14.45 5.43,12.27 5.43,10.27 5.46,8.32 5.426,6.48 5.434,4.81 5.43,3.28 5.433,2.11 5.43,1.09 5.43,0.16 5.429,-0.63 5.43,-1.25 5.469,-1.68 5.433,-1.87 5.43,-1.92 5.43,-2.1 5.429,-2.54 5.43,-3.25 5.43,-4.18 5.429,-5.27 5.43,-6.33 5.469,-7.46 5.429,-8.59 5.43,-9.77 5.43,-10.82 5.43,-12.07 5.429,-13.67 5.43,-15.74 5.43,-18.21 5.429,-20.972 5.469,-23.281 5.43,-24.805 10.859,-51.093 5.43,-25.079 5.429,-24.765 5.43,-24.531 5.43,-24.297 5.43,-24.102 5.468,-23.828 5.43,-23.398 5.43,-22.969 5.429,-22.383 5.43,-21.836 5.43,-21.172 5.429,-20.547 5.43,-19.726 5.43,-18.906 5.469,-17.93 5.429,-16.953 5.43,-15.938 5.43,-15 5.429,-14.179 5.43,-13.399 5.43,-12.621 5.429,-11.871 5.43,-11.141 5.469,-10.457 5.429,-9.812 5.43,-9.219 5.43,-8.629 5.43,-8.133 5.429,-7.566 5.43,-7.07 5.43,-6.614 5.429,-6.129 5.469,-5.859 5.43,-5.66 5.429,-5.59 5.43,-5.539 5.43,-5.512 5.429,-5.469 5.43,-5.308 5.43,-5.203 5.43,-5 5.468,-4.879 5.43,-4.692 5.43,-4.449 5.429,-4.179 5.428,-3.911 5.43,-3.629 5.43,-3.32 5.43,-3.078 5.43,-2.781 5.47,-2.539 5.43,-2.274 5.43,-2.027 5.43,-1.91 5.43,-1.762 5.43,-1.68 5.43,-1.558 5.43,-1.481 5.43,-1.449 5.47,-1.371 5.43,-1.328 5.43,-1.281 10.85,-2.43 5.43,-1.129 5.43,-1.051 5.43,-1.019 5.43,-0.93 5.47,-0.91 5.43,-0.852 5.43,-0.789 5.43,-0.742 10.86,-1.328 5.43,-0.582 5.43,-0.547 5.43,-0.512 5.47,-0.468 10.86,-0.77 10.86,-0.711 16.29,-0.82 5.43,-0.199 5.46,-0.231 5.43,-0.16 5.43,-0.191 5.43,-0.122 5.43,-0.16 16.29,-0.347 5.43,-0.071 5.47,-0.082 10.86,-0.156 32.58,-0.23 h 5.47 l 5.43,-0.043 h 10.86 l 5.43,-0.039 h 5.43 l 5.43,-0.04 h 5.42 l 5.43,-0.039 5.47,-0.043 h 5.43 l 21.72,-0.16 h 5.43 l 5.43,-0.027 h 21.76 l 5.43,-0.039 h 5.43 l 5.43,-0.043 h 5.43 l 10.86,-0.078 h 10.9 l 10.85,-0.082 h 5.43 l 10.86,-0.078 h 5.43 l 5.47,-0.039 h 5.43 l 5.43,-0.032 h 27.15 l 5.43,-0.039 h 21.76 l 5.43,-0.043 h 27.18 l 5.43,-0.039 h 548.83"
         style="fill:none;stroke:#3d3f9e;stroke-width:10;stroke-linecap:butt;stroke-linejoin:round;stroke-miterlimit:3.25;stroke-dasharray:none;stroke-opacity:1"
         transform="matrix(0.13333333,0,0,-0.13333333,0,199.61333)" />
      <path
         id="path16"
         d="M 153.887,254.449 H 2164.47"
         style="fill:none;stroke:#231f20;stroke-width:5;stroke-linecap:butt;stroke-linejoin:miter;stroke-miterlimit:3.25;stroke-dasharray:none;stroke-opacity:1"
         transform="matrix(0.13333333,0,0,-0.13333333,0,199.61333)" />
    </g>
  </g>
</svg>
