<?xml version="1.0" encoding="UTF-8" standalone="no"?>
<!-- Created with Inkscape (http://www.inkscape.org/) -->

<svg
   version="1.1"
   id="svg1"
   width="241.09332"
   height="169.72"
   viewBox="0 0 241.09332 169.72"
   sodipodi:docname="pha04f30.eps"
   xmlns:inkscape="http://www.inkscape.org/namespaces/inkscape"
   xmlns:sodipodi="http://sodipodi.sourceforge.net/DTD/sodipodi-0.dtd"
   xmlns="http://www.w3.org/2000/svg"
   xmlns:svg="http://www.w3.org/2000/svg">
  <defs
     id="defs1" />
  <sodipodi:namedview
     id="namedview1"
     pagecolor="#ffffff"
     bordercolor="#000000"
     borderopacity="0.25"
     inkscape:showpageshadow="2"
     inkscape:pageopacity="0.0"
     inkscape:pagecheckerboard="0"
     inkscape:deskcolor="#d1d1d1">
    <inkscape:page
       x="0"
       y="0"
       inkscape:label="1"
       id="page1"
       width="241.09332"
       height="169.72"
       margin="0"
       bleed="0" />
  </sodipodi:namedview>
  <g
     id="g1"
     inkscape:groupmode="layer"
     inkscape:label="1">
    <g
       id="group-R5">
      <g
         id="g2"
         aria-label="1.00&#10;0.75&#10;0.50&#10;0.25&#10;400500600&#10;λ&#10;700"
         transform="matrix(1.3333333,0,0,1.3333333,0,9.9053333)">
        <path
           id="path2"
           d="M 3.4570313,6.875e-4 V -0.24540625 C 2.6367188,-0.304 2.578125,-0.3743125 2.578125,-1.0305625 v -4.6875 c -0.4921875,0.1992187 -1.0195313,0.375 -1.59375,0.46875 v 0.2109375 l 0.4335937,0.011719 c 0.3867188,0.023437 0.421875,0.070312 0.421875,0.5390625 v 3.4570313 c 0,0.65625 -0.035156,0.7265625 -0.8554687,0.78515625 V 6.875e-4 Z m 1.8955078,0.10546875 c 0.28125,0 0.5039062,-0.19921875 0.5039062,-0.515625 0,-0.29296875 -0.2226562,-0.515625 -0.5039062,-0.515625 -0.2929688,0 -0.5039063,0.22265625 -0.5039063,0.515625 0,0.31640625 0.2109375,0.515625 0.5039063,0.515625 z M 8.5283203,-5.7180625 c -1.3476562,0 -1.8398437,1.6054687 -1.8398437,2.9179687 0,1.4179688 0.4804687,2.90625005 1.8398437,2.90625005 1.359375,0 1.8281247,-1.59375005 1.8281247,-2.91796875 0,-1.3828125 -0.4687497,-2.90625 -1.8281247,-2.90625 z m 0,0.3046875 c 0.8085938,0 1.03125,1.3242187 1.03125,2.6015625 0,1.265625 -0.2226562,2.61328125 -1.03125,2.61328125 -0.7734375,0 -1.0429687,-1.35937505 -1.0429687,-2.61328125 0,-1.2539063 0.2226562,-2.6015625 1.0429687,-2.6015625 z m 4.3212887,-0.3046875 c -1.347656,0 -1.839843,1.6054687 -1.839843,2.9179687 0,1.4179688 0.480468,2.90625005 1.839843,2.90625005 1.359375,0 1.828125,-1.59375005 1.828125,-2.91796875 0,-1.3828125 -0.46875,-2.90625 -1.828125,-2.90625 z m 0,0.3046875 c 0.808594,0 1.03125,1.3242187 1.03125,2.6015625 0,1.265625 -0.222656,2.61328125 -1.03125,2.61328125 -0.773437,0 -1.042968,-1.35937505 -1.042968,-2.61328125 0,-1.2539063 0.222656,-2.6015625 1.042968,-2.6015625 z M 2.15625,19.002641 c -1.34765625,0 -1.83984375,1.605468 -1.83984375,2.917968 0,1.417969 0.48046875,2.90625 1.83984375,2.90625 1.359375,0 1.828125,-1.59375 1.828125,-2.917968 0,-1.382813 -0.46875,-2.90625 -1.828125,-2.90625 z m 0,0.304687 c 0.8085938,0 1.03125,1.324219 1.03125,2.601563 0,1.265625 -0.2226562,2.613281 -1.03125,2.613281 -0.7734375,0 -1.0429688,-1.359375 -1.0429688,-2.613281 0,-1.253907 0.2226563,-2.601563 1.0429688,-2.601563 z m 3.1962891,5.519531 c 0.28125,0 0.5039062,-0.199218 0.5039062,-0.515625 0,-0.292968 -0.2226562,-0.515625 -0.5039062,-0.515625 -0.2929688,0 -0.5039063,0.222657 -0.5039063,0.515625 0,0.316407 0.2109375,0.515625 0.5039063,0.515625 z M 10.391602,19.119828 H 6.9580078 c -0.035156,0.386719 -0.082031,0.832031 -0.1640625,1.324219 h 0.2578125 c 0.2226563,-0.585938 0.2695313,-0.667969 0.8671875,-0.667969 h 1.9453125 c -0.7148437,1.558594 -1.7226562,3.421875 -2.671875,4.957031 l 0.058594,0.09375 0.6679687,-0.08203 C 8.786133,22.881548 9.6181643,21.053423 10.461914,19.225298 Z m 1.672851,0.65625 h 2.097656 l 0.234375,-0.585937 -0.05859,-0.07031 h -2.566407 l -0.351562,2.742188 c 0.210937,-0.08203 0.550781,-0.1875 0.925781,-0.1875 0.984375,0 1.464844,0.574218 1.464844,1.359375 0,0.679687 -0.375,1.335937 -1.136719,1.335937 -0.550781,0 -0.914062,-0.292969 -1.113281,-0.457031 -0.08203,-0.07031 -0.152344,-0.05859 -0.234375,0 -0.105469,0.09375 -0.1875,0.210937 -0.1875,0.292969 -0.02344,0.105468 0.02344,0.1875 0.140625,0.304687 0.128906,0.128906 0.515625,0.316406 0.925781,0.316406 0.480469,-0.01172 1.078125,-0.246093 1.570313,-0.632812 0.550781,-0.457031 0.796875,-0.960938 0.796875,-1.511719 0,-0.738281 -0.585938,-1.511719 -1.734375,-1.511719 -0.246094,0 -0.667969,0.140625 -1.007813,0.269532 z M 2.15625,43.720414 c -1.34765625,0 -1.83984375,1.605469 -1.83984375,2.917969 0,1.417969 0.48046875,2.90625 1.83984375,2.90625 1.359375,0 1.828125,-1.59375 1.828125,-2.917969 0,-1.382812 -0.46875,-2.90625 -1.828125,-2.90625 z m 0,0.304688 c 0.8085938,0 1.03125,1.324218 1.03125,2.601562 0,1.265625 -0.2226562,2.613281 -1.03125,2.613281 -0.7734375,0 -1.0429688,-1.359375 -1.0429688,-2.613281 0,-1.253906 0.2226563,-2.601562 1.0429688,-2.601562 z m 3.1962891,5.519531 c 0.28125,0 0.5039062,-0.199219 0.5039062,-0.515625 0,-0.292969 -0.2226562,-0.515625 -0.5039062,-0.515625 -0.2929688,0 -0.5039063,0.222656 -0.5039063,0.515625 0,0.316406 0.2109375,0.515625 0.5039063,0.515625 z m 2.390625,-5.050781 h 2.0976562 l 0.2343747,-0.585938 -0.05859,-0.07031 H 7.4501953 l -0.3515625,2.742187 c 0.2109375,-0.08203 0.5507813,-0.1875 0.9257813,-0.1875 0.984375,0 1.4648437,0.574219 1.4648437,1.359375 0,0.679688 -0.375,1.335938 -1.1367187,1.335938 -0.5507813,0 -0.9140625,-0.292969 -1.1132813,-0.457032 -0.082031,-0.07031 -0.1523437,-0.05859 -0.234375,0 -0.1054687,0.09375 -0.1875,0.210938 -0.1875,0.292969 -0.023437,0.105469 0.023437,0.1875 0.140625,0.304688 0.1289063,0.128906 0.515625,0.316406 0.9257813,0.316406 0.4804687,-0.01172 1.078125,-0.246094 1.5703125,-0.632813 0.5507814,-0.457031 0.7968754,-0.960937 0.7968754,-1.511718 0,-0.738282 -0.5859379,-1.511719 -1.7343754,-1.511719 -0.2460938,0 -0.6679688,0.140625 -1.0078125,0.269531 z m 5.1064449,-0.773438 c -1.347656,0 -1.839843,1.605469 -1.839843,2.917969 0,1.417969 0.480468,2.90625 1.839843,2.90625 1.359375,0 1.828125,-1.59375 1.828125,-2.917969 0,-1.382812 -0.46875,-2.90625 -1.828125,-2.90625 z m 0,0.304688 c 0.808594,0 1.03125,1.324218 1.03125,2.601562 0,1.265625 -0.222656,2.613281 -1.03125,2.613281 -0.773437,0 -1.042968,-1.359375 -1.042968,-2.613281 0,-1.253906 0.222656,-2.601562 1.042968,-2.601562 z M 2.15625,68.441117 c -1.34765625,0 -1.83984375,1.605469 -1.83984375,2.917969 0,1.417969 0.48046875,2.90625 1.83984375,2.90625 1.359375,0 1.828125,-1.59375 1.828125,-2.917969 0,-1.382812 -0.46875,-2.90625 -1.828125,-2.90625 z m 0,0.304688 c 0.8085938,0 1.03125,1.324218 1.03125,2.601562 0,1.265625 -0.2226562,2.613281 -1.03125,2.613281 -0.7734375,0 -1.0429688,-1.359375 -1.0429688,-2.613281 0,-1.253906 0.2226563,-2.601562 1.0429688,-2.601562 z m 3.1962891,5.519531 c 0.28125,0 0.5039062,-0.199219 0.5039062,-0.515625 0,-0.292969 -0.2226562,-0.515625 -0.5039062,-0.515625 -0.2929688,0 -0.5039063,0.222656 -0.5039063,0.515625 0,0.316406 0.2109375,0.515625 0.5039063,0.515625 z m 4.7226559,-1.371094 c -0.2695309,0.574219 -0.3867184,0.609375 -0.8671872,0.609375 h -1.6875 L 8.7978516,72.16768 c 0.8320312,-0.890625 1.1953125,-1.417969 1.1953125,-2.203125 0,-0.949219 -0.7265625,-1.523438 -1.5117188,-1.523438 -0.5273437,0 -0.9492187,0.234375 -1.21875,0.539063 l -0.515625,0.726562 0.1992188,0.175781 c 0.234375,-0.351562 0.609375,-0.832031 1.2304687,-0.832031 0.65625,0 1.0546875,0.433594 1.0546875,1.195313 0,0.773437 -0.5625,1.511718 -1.125,2.179687 -0.4453125,0.515625 -0.9492187,1.03125 -1.453125,1.523438 v 0.210937 h 3.3632817 c 0.105468,-0.410156 0.199218,-0.796875 0.316406,-1.183594 z m 1.989258,-3.679687 h 2.097656 l 0.234375,-0.585938 -0.05859,-0.07031 h -2.566407 l -0.351562,2.742187 c 0.210937,-0.08203 0.550781,-0.1875 0.925781,-0.1875 0.984375,0 1.464844,0.574219 1.464844,1.359375 0,0.679688 -0.375,1.335938 -1.136719,1.335938 -0.550781,0 -0.914062,-0.292969 -1.113281,-0.457032 -0.08203,-0.07031 -0.152344,-0.05859 -0.234375,0 -0.105469,0.09375 -0.1875,0.210938 -0.1875,0.292969 -0.02344,0.105469 0.02344,0.1875 0.140625,0.304688 0.128906,0.128906 0.515625,0.316406 0.925781,0.316406 0.480469,-0.01172 1.078125,-0.246094 1.570313,-0.632813 0.550781,-0.457031 0.796875,-0.960937 0.796875,-1.511718 0,-0.738282 -0.585938,-1.511719 -1.734375,-1.511719 -0.246094,0 -0.667969,0.140625 -1.007813,0.269531 z M 26.99707,105.01534 v -0.42188 h -0.867187 v -3.65625 H 25.77832 c -0.925781,1.21875 -1.851562,2.55469 -2.707031,3.83203 v 0.2461 h 2.34375 v 0.65625 c 0,0.58593 -0.03516,0.64453 -0.820312,0.70312 v 0.24609 h 2.308593 v -0.24609 c -0.726562,-0.0586 -0.773437,-0.10547 -0.773437,-0.70312 v -0.65625 z m -1.582031,-0.42188 h -1.769531 c 0.585937,-0.99609 1.171875,-1.85156 1.757812,-2.64844 h 0.01172 z m 3.955078,-3.69141 c -1.347656,0 -1.839844,1.60547 -1.839844,2.91797 0,1.41797 0.480469,2.90625 1.839844,2.90625 1.359375,0 1.828125,-1.59375 1.828125,-2.91797 0,-1.38281 -0.46875,-2.90625 -1.828125,-2.90625 z m 0,0.30469 c 0.808594,0 1.03125,1.32422 1.03125,2.60156 0,1.26563 -0.222656,2.61329 -1.03125,2.61329 -0.773437,0 -1.042969,-1.35938 -1.042969,-2.61329 0,-1.2539 0.222657,-2.60156 1.042969,-2.60156 z m 4.321289,-0.30469 c -1.347656,0 -1.839844,1.60547 -1.839844,2.91797 0,1.41797 0.480469,2.90625 1.839844,2.90625 1.359375,0 1.828125,-1.59375 1.828125,-2.91797 0,-1.38281 -0.46875,-2.90625 -1.828125,-2.90625 z m 0,0.30469 c 0.808594,0 1.03125,1.32422 1.03125,2.60156 0,1.26563 -0.222656,2.61329 -1.03125,2.61329 -0.773437,0 -1.042969,-1.35938 -1.042969,-2.61329 0,-1.2539 0.222657,-2.60156 1.042969,-2.60156 z m 36.292969,0.46875 h 2.097656 l 0.234375,-0.58594 -0.05859,-0.0703 H 69.69141 l -0.351562,2.74219 c 0.210937,-0.082 0.550781,-0.1875 0.925781,-0.1875 0.984375,0 1.464844,0.57422 1.464844,1.35937 0,0.67969 -0.375,1.33594 -1.136719,1.33594 -0.550781,0 -0.914063,-0.29297 -1.113281,-0.45703 -0.08203,-0.0703 -0.152344,-0.0586 -0.234375,0 -0.105469,0.0937 -0.1875,0.21094 -0.1875,0.29297 -0.02344,0.10547 0.02344,0.1875 0.140625,0.30469 0.128906,0.1289 0.515625,0.3164 0.925781,0.3164 0.480469,-0.0117 1.078125,-0.24609 1.570312,-0.63281 0.550782,-0.45703 0.796875,-0.96094 0.796875,-1.51172 0,-0.73828 -0.585937,-1.51172 -1.734375,-1.51172 -0.246093,0 -0.667968,0.14063 -1.007812,0.26953 z m 5.106445,-0.77344 c -1.347656,0 -1.839843,1.60547 -1.839843,2.91797 0,1.41797 0.480468,2.90625 1.839843,2.90625 1.359375,0 1.828125,-1.59375 1.828125,-2.91797 0,-1.38281 -0.46875,-2.90625 -1.828125,-2.90625 z m 0,0.30469 c 0.808594,0 1.03125,1.32422 1.03125,2.60156 0,1.26563 -0.222656,2.61329 -1.03125,2.61329 -0.773437,0 -1.042968,-1.35938 -1.042968,-2.61329 0,-1.2539 0.222656,-2.60156 1.042968,-2.60156 z m 4.31836,-0.30469 c -1.347657,0 -1.839844,1.60547 -1.839844,2.91797 0,1.41797 0.480469,2.90625 1.839844,2.90625 1.359375,0 1.828125,-1.59375 1.828125,-2.91797 0,-1.38281 -0.46875,-2.90625 -1.828125,-2.90625 z m 0,0.30469 c 0.808593,0 1.03125,1.32422 1.03125,2.60156 0,1.26563 -0.222657,2.61329 -1.03125,2.61329 -0.773438,0 -1.042969,-1.35938 -1.042969,-2.61329 0,-1.2539 0.222656,-2.60156 1.042969,-2.60156 z m 36.15527,2.33203 c 0.26953,-1.2539 1.11328,-1.82812 1.66407,-2.08593 0.32812,-0.15235 0.67968,-0.25782 0.97265,-0.31641 l -0.0586,-0.28125 c -0.36328,0.0586 -0.79688,0.16406 -1.14844,0.28125 -0.96094,0.35156 -2.33203,1.37109 -2.33203,3.33984 0,1.38282 0.79687,2.25 1.85156,2.25 1.07813,0 1.83985,-0.90234 1.83985,-1.98047 0,-0.92578 -0.65625,-1.66406 -1.61719,-1.66406 -0.17578,0 -0.36328,0.0703 -0.5625,0.15235 z m 0.82032,0.0469 c 0.82031,0 1.19531,0.73828 1.19531,1.48828 0,0.59766 -0.21094,1.34766 -0.91406,1.34766 -0.73829,0 -1.19532,-0.87891 -1.19532,-1.95704 0,-0.23437 0.0117,-0.45703 0.0469,-0.62109 0.22265,-0.11719 0.52734,-0.25781 0.86719,-0.25781 z m 4.42382,-2.6836 c -1.34765,0 -1.83984,1.60547 -1.83984,2.91797 0,1.41797 0.48047,2.90625 1.83984,2.90625 1.35938,0 1.82813,-1.59375 1.82813,-2.91797 0,-1.38281 -0.46875,-2.90625 -1.82813,-2.90625 z m 0,0.30469 c 0.8086,0 1.03125,1.32422 1.03125,2.60156 0,1.26563 -0.22265,2.61329 -1.03125,2.61329 -0.77343,0 -1.04296,-1.35938 -1.04296,-2.61329 0,-1.2539 0.22265,-2.60156 1.04296,-2.60156 z m 4.32129,-0.30469 c -1.34765,0 -1.83984,1.60547 -1.83984,2.91797 0,1.41797 0.48047,2.90625 1.83984,2.90625 1.35938,0 1.82813,-1.59375 1.82813,-2.91797 0,-1.38281 -0.46875,-2.90625 -1.82813,-2.90625 z m 0,0.30469 c 0.8086,0 1.03125,1.32422 1.03125,2.60156 0,1.26563 -0.22265,2.61329 -1.03125,2.61329 -0.77343,0 -1.04297,-1.35938 -1.04297,-2.61329 0,-1.2539 0.22266,-2.60156 1.04297,-2.60156 z m 0,0"
           style="fill:#231f20;fill-opacity:1;fill-rule:nonzero;stroke:none" />
        <path
           id="path3"
           d="m 101.83008,115.59151 c -0.28125,0.38672 -0.50391,0.52734 -0.59766,0.52734 -0.082,0 -0.14062,-0.0937 -0.19922,-0.49219 -0.16406,-1.13671 -0.29297,-2.60156 -0.36328,-3.33984 -0.15234,-1.72266 -0.46875,-2.07422 -0.937498,-2.07422 -0.257813,0 -0.632813,0.17578 -0.84375,0.35156 l 0.05859,0.22266 c 0.117187,-0.0469 0.257812,-0.0937 0.386718,-0.0937 0.28125,0.0117 0.480469,0.17578 0.609375,0.97266 0.05859,0.33984 0.09374,0.70312 0.117195,1.13672 -0.609382,1.4414 -1.582038,2.89453 -2.285163,3.76171 l 0.07031,0.16407 c 0.222656,-0.0469 0.433594,-0.10547 0.632813,-0.16407 0.351562,-0.5039 1.207031,-2.14453 1.65234,-3.16406 0.0352,0.64453 0.10547,1.24219 0.23437,2.35547 0.0586,0.64453 0.21094,0.97266 0.50391,0.97266 0.26953,0 0.66797,-0.22266 1.13672,-0.9375 z m 0,0"
           style="fill:#231f20;fill-opacity:1;fill-rule:nonzero;stroke:none" />
        <path
           id="path4"
           d="m 164.07129,101.01924 h -3.43359 c -0.0352,0.38672 -0.082,0.83203 -0.16407,1.32422 h 0.25782 c 0.22265,-0.58594 0.26953,-0.66797 0.86718,-0.66797 h 1.94532 c -0.71485,1.5586 -1.72266,3.42188 -2.67188,4.95703 l 0.0586,0.0937 0.66797,-0.082 c 0.86719,-1.86328 1.69922,-3.6914 2.54297,-5.51953 z m 2.45801,-0.11719 c -1.34766,0 -1.83985,1.60547 -1.83985,2.91797 0,1.41797 0.48047,2.90625 1.83985,2.90625 1.35937,0 1.82812,-1.59375 1.82812,-2.91797 0,-1.38281 -0.46875,-2.90625 -1.82812,-2.90625 z m 0,0.30469 c 0.80859,0 1.03125,1.32422 1.03125,2.60156 0,1.26563 -0.22266,2.61329 -1.03125,2.61329 -0.77344,0 -1.04297,-1.35938 -1.04297,-2.61329 0,-1.2539 0.22265,-2.60156 1.04297,-2.60156 z m 4.31836,-0.30469 c -1.34766,0 -1.83985,1.60547 -1.83985,2.91797 0,1.41797 0.48047,2.90625 1.83985,2.90625 1.35937,0 1.82812,-1.59375 1.82812,-2.91797 0,-1.38281 -0.46875,-2.90625 -1.82812,-2.90625 z m 0,0.30469 c 0.80859,0 1.03125,1.32422 1.03125,2.60156 0,1.26563 -0.22266,2.61329 -1.03125,2.61329 -0.77344,0 -1.04297,-1.35938 -1.04297,-2.61329 0,-1.2539 0.22265,-2.60156 1.04297,-2.60156 z m 0,0"
           style="fill:#231f20;fill-opacity:1;fill-rule:nonzero;stroke:none" />
      </g>
      <path
         id="path5"
         d="m 199.996,389.785 0.781,0.352 0.75,0.351 0.778,0.352 0.742,0.351 0.781,0.352 0.738,0.352 0.782,0.351 0.75,0.352 0.777,0.39 0.742,0.352 0.781,0.351 0.739,0.352 0.781,0.352 0.75,0.351 0.777,0.391 0.743,0.351 0.781,0.352 0.738,0.39 0.789,0.352 0.742,0.352 0.778,0.351 0.742,0.391 0.781,0.351 0.738,0.391 0.789,0.352 0.739,0.351 0.781,0.391 0.742,0.351 0.781,0.391 0.739,0.351 0.789,0.391 0.781,0.352 0.738,0.39 0.782,0.352 0.738,0.39 0.781,0.391 0.75,0.352 0.781,0.39 0.739,0.352 0.781,0.39 0.738,0.391 0.781,0.352 0.75,0.39 0.778,0.391 0.742,0.391 0.781,0.351 0.738,0.391 0.782,0.39 0.75,0.391 0.777,0.352 0.742,0.39 0.781,0.391 0.739,0.39 0.789,0.391 0.742,0.391 0.777,0.39 0.743,0.391 0.781,0.351 0.738,0.391 0.789,0.391 0.742,0.39 0.778,0.391 0.742,0.391 0.781,0.39 0.738,0.391 0.789,0.43 0.739,0.39 0.781,0.391 0.742,0.39 0.781,0.391 0.739,0.391 0.789,0.39 0.738,0.391 0.781,0.43 0.742,0.39 0.778,0.391 0.75,0.39 0.781,0.391 0.738,0.43 0.782,0.39 0.742,0.391 0.777,0.43 0.75,0.39 0.781,0.391 0.739,0.43 0.781,0.39 0.742,0.391 0.777,0.43 0.75,0.39 0.782,0.43 0.738,0.391 0.781,0.39 0.742,0.43 0.778,0.39 0.75,0.43 0.781,0.391 0.738,0.429 0.782,0.391 0.738,0.43 0.781,0.39 0.789,0.43 0.742,0.43 0.778,0.39 0.742,0.43 0.781,0.43 0.738,0.39 0.789,0.43 0.739,0.391 0.781,0.429 0.742,0.43 0.781,0.43 0.739,0.39 0.789,0.43 0.738,0.43 0.781,0.429 0.742,0.391 0.778,0.43 0.742,0.429 0.789,0.43 0.738,0.43 0.782,0.39 0.742,0.43 0.777,0.43 0.75,0.43 0.781,0.429 0.739,0.43 0.781,0.43 0.742,0.429 0.777,0.43 0.75,0.43 0.782,0.429 0.738,0.43 0.781,0.43 0.742,0.429 0.778,0.43 0.75,0.43 0.781,0.429 0.738,0.43 0.782,0.43 0.738,0.43 0.781,0.429 0.75,0.43 0.781,0.43 0.739,0.429 0.781,0.43 0.738,0.469 0.781,0.429 0.75,0.43 0.778,0.43 0.742,0.429 0.781,0.469 0.738,0.43 0.782,0.43 0.75,0.429 0.777,0.43 0.742,0.469 0.781,0.429 0.739,0.43 0.789,0.469 0.742,0.43 0.777,0.429 0.743,0.469 0.781,0.43 0.738,0.429 0.789,0.469 0.742,0.43 0.778,0.429 0.742,0.469 1.558,0.86 0.75,0.468 0.782,0.43 0.738,0.469 0.781,0.429 0.742,0.469 0.778,0.43 0.75,0.469 0.781,0.437 0.738,0.461 0.782,0.43 0.738,0.469 0.781,0.429 0.75,0.469 0.781,0.43 0.739,0.468 0.781,0.43 0.738,0.469 0.781,0.43 0.75,0.468 0.778,0.469 0.742,0.43 0.781,0.468 0.738,0.43 0.782,0.469 0.75,0.469 0.777,0.429 0.742,0.469 0.781,0.469 0.739,0.43 0.781,0.468 0.75,0.469 0.777,0.43 0.743,0.468 0.781,0.469 0.738,0.43 0.789,0.469 0.742,0.468 0.778,0.43 0.742,0.469 0.781,0.469 0.738,0.476 0.789,0.422 0.739,0.469 0.781,0.469 0.742,0.468 0.781,0.43 0.739,0.469 0.789,0.468 0.738,0.469 0.781,0.469 0.742,0.43 0.778,0.468 0.742,0.469 0.789,0.469 0.738,0.469 0.782,0.468 0.742,0.43 0.777,0.469 0.75,0.469 0.781,0.468 0.739,0.469 0.781,0.469 0.742,0.469 0.777,0.429 0.75,0.469 0.782,0.469 0.738,0.469 0.781,0.468 0.742,0.469 1.567,0.938 0.742,0.468 0.777,0.43 0.743,0.469 0.781,0.468 0.738,0.469 0.789,0.469 0.742,0.469 0.778,0.468 0.742,0.469 0.781,0.469 0.738,0.469 0.789,0.468 0.739,0.469 0.781,0.469 0.742,0.469 0.781,0.429 0.739,0.469 0.789,0.469 0.738,0.469 0.781,0.468 0.742,0.469 0.778,0.469 0.75,0.469 0.781,0.468 0.738,0.469 0.782,0.469 0.742,0.469 0.777,0.468 0.75,0.469 0.781,0.469 0.739,0.469 0.781,0.468 0.742,0.469 0.777,0.469 0.75,0.469 0.782,0.468 0.738,0.469 0.781,0.469 0.742,0.469 0.778,0.468 0.75,0.469 0.781,0.469 0.738,0.469 0.782,0.468 0.738,0.469 0.781,0.469 0.75,0.469 0.781,0.468 0.739,0.469 0.781,0.469 0.738,0.469 0.781,0.468 0.75,0.469 0.778,0.469 0.742,0.43 0.781,0.476 0.738,0.461 0.782,0.469 0.75,0.469 0.777,0.468 0.742,0.469 0.781,0.469 0.739,0.469 0.781,0.468 0.75,0.469 0.777,0.469 0.743,0.469 1.558,0.937 0.75,0.469 0.781,0.469 0.739,0.476 0.781,0.461 0.742,0.469 0.777,0.469 0.75,0.429 0.782,0.469 0.738,0.469 0.781,0.469 0.742,0.468 0.778,0.469 0.75,0.469 0.781,0.469 0.738,0.468 0.782,0.469 0.738,0.43 0.781,0.468 0.75,0.469 0.781,0.469 0.739,0.469 0.781,0.468 0.738,0.469 0.781,0.43 0.75,0.469 0.778,0.468 0.742,0.469 0.781,0.469 0.738,0.469 0.782,0.437 0.75,0.461 0.777,0.469 0.742,0.469 0.781,0.468 0.739,0.43 0.789,0.469 0.742,0.469 0.777,0.468 0.743,0.469 0.781,0.43 0.738,0.468 0.789,0.469 0.742,0.469 0.778,0.43 0.742,0.468 0.781,0.469 0.738,0.43 0.789,0.469 0.739,0.468 0.781,0.43 0.742,0.469 0.781,0.469 0.739,0.429 0.789,0.469 0.738,0.469 0.781,0.429 0.742,0.469 0.778,0.469 0.75,0.43 0.781,0.468 0.738,0.43 0.782,0.469 0.742,0.469 0.777,0.429 0.75,0.469 0.781,0.43 0.739,0.468 0.781,0.43 0.781,0.469 0.738,0.43 0.782,0.468 0.75,0.43 0.777,0.469 0.742,0.429 0.781,0.469 0.739,0.43 0.781,0.469 0.75,0.429 0.777,0.469 0.743,0.43 0.781,0.429 0.738,0.469 0.789,0.43 0.742,0.469 0.778,0.429 0.742,0.43 0.781,0.469 0.738,0.429 0.789,0.43 0.739,0.469 0.781,0.43 0.742,0.429 0.781,0.43 0.739,0.469 0.789,0.429 0.738,0.43 0.781,0.43 0.742,0.468 0.778,0.43 0.742,0.43 0.789,0.43 0.738,0.429 0.782,0.43 0.742,0.43 0.781,0.468 0.742,0.43 0.781,0.43 0.743,0.429 0.781,0.43 0.742,0.43 0.781,0.429 0.743,0.43 0.781,0.43 0.742,0.43 0.781,0.429 0.742,0.43 0.782,0.43 0.742,0.429 0.781,0.43 0.742,0.43 0.782,0.429 0.742,0.43 0.781,0.43 0.742,0.39 0.781,0.43 0.743,0.43 0.781,0.429 0.742,0.43 0.781,0.391 0.742,0.429 0.782,0.43 0.742,0.43 0.781,0.39 0.742,0.43 0.782,0.43 0.742,0.429 0.781,0.391 0.781,0.43 0.742,0.429 0.782,0.391 0.742,0.43 0.781,0.39 0.742,0.43 0.782,0.391 0.742,0.429 0.781,0.43 0.742,0.391 0.781,0.429 0.743,0.391 0.781,0.43 0.742,0.39 0.781,0.391 0.743,0.43 0.781,0.39 0.742,0.43 0.781,0.391 0.742,0.39 0.782,0.43 0.742,0.391 0.781,0.39 0.742,0.391 0.782,0.429 0.742,0.391 0.781,0.391 0.742,0.39 0.781,0.43 0.743,0.391 0.781,0.39 0.742,0.391 0.781,0.391 0.742,0.39 0.782,0.391 0.742,0.39 0.781,0.391 0.742,0.43 0.782,0.39 0.742,0.391 0.781,0.352 0.742,0.39 0.781,0.391 0.743,0.39 0.781,0.391 0.742,0.391 0.781,0.39 0.743,0.391 0.781,0.391 0.742,0.351 0.781,0.391 0.742,0.39 0.782,0.391 0.742,0.352 0.781,0.39 0.742,0.391 0.782,0.359 0.742,0.383 0.781,0.391 0.742,0.351 0.781,0.391 0.743,0.39 0.781,0.352 0.742,0.391 0.781,0.351 0.742,0.391 0.782,0.351 0.742,0.391 1.562,0.703 0.743,0.391 0.781,0.351 0.742,0.352 0.781,0.39 0.742,0.352 0.782,0.352 0.742,0.39 0.781,0.352 0.742,0.351 0.782,0.352 0.742,0.391 0.781,0.351 0.742,0.352 0.781,0.351 0.743,0.352 0.781,0.351 0.742,0.352 0.781,0.351 0.743,0.352 0.781,0.352 0.742,0.351 0.781,0.352 0.742,0.351 0.782,0.352 0.742,0.351 0.781,0.352 0.742,0.352 0.782,0.312 0.742,0.352 0.781,0.351 0.742,0.352 0.781,0.312 0.743,0.352 0.781,0.351 0.742,0.313 0.781,0.351 0.742,0.352 0.782,0.312 0.742,0.352 0.781,0.313 0.742,0.351 0.782,0.313 0.742,0.351 0.781,0.313 0.742,0.351 0.781,0.313 0.743,0.351 0.781,0.313 0.742,0.312 0.781,0.352 0.743,0.32 0.781,0.305 0.742,0.312 0.781,0.352 0.742,0.312 0.782,0.313 0.742,0.312 0.781,0.313 0.742,0.312 0.782,0.352 0.742,0.312 0.781,0.313 0.742,0.312 0.781,0.313 0.743,0.312 0.781,0.313 0.742,0.312 0.781,0.274 0.742,0.312 1.563,0.625 0.742,0.313 0.781,0.312 0.743,0.274 0.781,0.32 0.742,0.305 0.781,0.273 0.742,0.313 0.782,0.312 0.742,0.274 0.781,0.312 0.742,0.313 0.782,0.273 0.742,0.313 0.781,0.273 0.742,0.313 0.781,0.273 0.743,0.273 0.781,0.313 0.742,0.273 0.781,0.274 0.743,0.32 0.781,0.266 0.742,0.273 0.781,0.309 0.742,0.277 0.782,0.274 0.742,0.265 0.781,0.281 0.742,0.274 0.782,0.305 0.742,0.285 0.781,0.269 0.742,0.27 0.781,0.277 0.743,0.274 0.781,0.265 0.742,0.242 0.781,0.274 0.742,0.277 0.782,0.27 0.742,0.265 0.781,0.286 0.742,0.23 0.782,0.266 0.742,0.285 0.781,0.269 0.742,0.239 0.781,0.269 0.743,0.274 0.781,0.238 0.742,0.269 0.781,0.231 0.743,0.277 0.781,0.235 0.742,0.277 0.781,0.23 0.742,0.231 0.782,0.277 0.742,0.235 0.781,0.277 0.742,0.23 0.782,0.231 0.742,0.238 0.781,0.274 0.742,0.238 0.781,0.23 0.743,0.239 1.562,0.457 0.742,0.242 0.782,0.226 0.742,0.246 0.781,0.231 0.742,0.238 0.781,0.231 0.743,0.226 0.781,0.242 0.742,0.231 0.781,0.238 0.742,0.235 0.782,0.199 0.742,0.23 0.781,0.239 0.742,0.23 0.782,0.199 0.742,0.231 0.781,0.199 0.742,0.23 0.781,0.231 0.743,0.199 0.781,0.227 0.742,0.203 0.781,0.226 0.743,0.203 0.781,0.192 0.742,0.238 0.781,0.188 0.742,0.203 0.782,0.226 0.742,0.203 0.781,0.192 0.742,0.238 0.782,0.188 0.742,0.203 0.781,0.187 0.742,0.203 0.781,0.2 0.743,0.191 0.781,0.199 0.742,0.192 0.781,0.199 0.742,0.191 0.782,0.199 0.742,0.192 0.781,0.195 0.742,0.188 0.782,0.203 0.742,0.148 0.781,0.203 0.742,0.2 0.781,0.152 0.743,0.199 0.781,0.192 0.742,0.156 0.781,0.187 0.743,0.203 0.781,0.161 0.742,0.191 0.781,0.16 0.742,0.192 0.782,0.156 0.742,0.148 0.781,0.203 0.742,0.161 0.782,0.152 0.742,0.195 1.562,0.313 0.742,0.16 0.782,0.191 0.742,0.156 0.781,0.153 0.742,0.16 0.782,0.16 0.742,0.145 0.781,0.164 0.742,0.16 0.781,0.152 0.743,0.156 0.781,0.153 0.742,0.16 0.781,0.16 0.742,0.106 0.782,0.164 0.742,0.16 0.781,0.144 0.742,0.125 0.782,0.161 0.742,0.152 0.781,0.117 0.742,0.16 0.781,0.153 0.743,0.117 0.781,0.16 0.742,0.105 0.781,0.164 0.743,0.122 0.781,0.109 0.742,0.16 0.781,0.121 0.742,0.145 0.782,0.125 0.742,0.121 0.781,0.105 0.742,0.164 0.782,0.117 0.742,0.122 0.781,0.113 0.742,0.117 0.781,0.121 0.743,0.106 0.781,0.125 0.742,0.117 0.781,0.121 0.742,0.105 0.782,0.125 0.742,0.121 0.781,0.11 0.742,0.082 0.782,0.117 0.742,0.121 0.781,0.106 0.742,0.086 0.781,0.117 0.743,0.121 0.781,0.066 0.742,0.125 0.781,0.117 0.743,0.082 0.781,0.11 0.742,0.082 0.781,0.117 0.742,0.078 0.782,0.082 0.742,0.106 1.562,0.164 0.743,0.121 0.781,0.066 0.742,0.078 0.781,0.086 0.742,0.117 0.782,0.083 0.742,0.07 0.781,0.082 0.742,0.078 0.782,0.078 0.742,0.082 0.781,0.067 0.742,0.078 0.781,0.086 0.743,0.078 0.781,0.082 0.742,0.039 0.781,0.066 0.742,0.078 0.782,0.086 0.742,0.039 0.781,0.078 0.742,0.083 0.782,0.039 0.742,0.07 0.781,0.082 0.742,0.039 0.781,0.078 0.743,0.039 0.781,0.082 0.742,0.039 0.781,0.028 0.743,0.086 0.781,0.039 0.742,0.078 0.781,0.039 0.742,0.043 0.782,0.039 0.742,0.066 0.781,0.039 0.742,0.039 0.782,0.047 0.742,0.039 0.781,0.039 0.742,0.039 0.781,0.039 0.743,0.043 0.781,0.04 0.742,0.039 0.781,0.031 0.742,0.039 0.782,0.043 h 0.742 l 0.781,0.039 0.742,0.039 0.782,0.039 h 0.742 l 0.781,0.039 0.742,0.039 h 0.781 l 0.743,0.043 h 0.781 l 0.742,0.039 0.781,0.028 h 1.524 l 0.742,0.039 h 0.781 l 0.742,0.039 h 2.305 l 0.781,0.047 h 3.047 l 0.742,0.039 h 4.571 l 0.781,-0.039 h 3.789 l 0.781,-0.047 h 1.524 l 0.742,-0.039 h 0.781 l 0.742,-0.039 h 1.524 l 0.781,-0.028 h 0.742 l 0.781,-0.039 0.743,-0.043 h 0.781 l 0.742,-0.039 0.781,-0.039 h 0.743 l 0.781,-0.039 0.742,-0.039 h 0.781 l 0.742,-0.039 0.782,-0.043 0.742,-0.039 0.781,-0.031 0.742,-0.039 0.782,-0.04 0.742,-0.043 0.781,-0.039 0.742,-0.039 0.781,-0.039 0.743,-0.039 0.781,-0.047 0.742,-0.039 0.781,-0.039 0.742,-0.066 0.782,-0.039 0.742,-0.043 0.781,-0.039 0.742,-0.078 0.782,-0.039 0.742,-0.047 0.781,-0.067 0.742,-0.039 0.781,-0.082 0.743,-0.039 0.793,-0.078 0.73,-0.039 0.781,-0.082 0.743,-0.039 1.562,-0.153 0.742,-0.039 0.781,-0.078 0.743,-0.086 0.781,-0.078 0.742,-0.027 0.781,-0.078 0.743,-0.082 0.781,-0.078 0.742,-0.086 0.781,-0.078 0.742,-0.067 0.782,-0.082 0.742,-0.078 0.781,-0.078 0.742,-0.082 0.782,-0.07 0.742,-0.083 0.781,-0.078 0.742,-0.125 0.781,-0.078 0.743,-0.066 0.781,-0.082 0.742,-0.117 0.781,-0.086 0.742,-0.067 0.782,-0.121 0.742,-0.078 0.781,-0.117 0.742,-0.082 0.782,-0.11 0.742,-0.082 0.781,-0.117 0.742,-0.086 0.781,-0.105 0.743,-0.121 0.781,-0.078 0.742,-0.125 0.781,-0.106 0.743,-0.082 0.781,-0.117 0.742,-0.121 0.781,-0.11 0.742,-0.121 0.782,-0.125 0.742,-0.105 0.781,-0.121 0.742,-0.117 0.782,-0.125 0.742,-0.106 0.781,-0.121 0.742,-0.117 0.781,-0.113 0.743,-0.122 0.781,-0.117 0.742,-0.125 0.781,-0.144 0.742,-0.121 0.782,-0.125 0.742,-0.106 0.781,-0.16 0.742,-0.117 0.782,-0.152 0.742,-0.122 0.781,-0.117 0.742,-0.152 0.781,-0.16 0.743,-0.117 0.781,-0.153 0.781,-0.121 0.742,-0.156 0.782,-0.113 0.742,-0.161 0.781,-0.164 0.742,-0.144 0.781,-0.121 0.743,-0.164 0.793,-0.145 0.73,-0.16 0.781,-0.16 0.743,-0.153 0.781,-0.156 0.742,-0.125 0.781,-0.148 0.742,-0.156 0.782,-0.192 0.742,-0.16 0.781,-0.16 0.742,-0.153 0.782,-0.156 0.742,-0.152 0.781,-0.16 0.742,-0.203 0.781,-0.149 0.743,-0.156 0.781,-0.152 0.742,-0.2 0.781,-0.164 0.742,-0.187 0.782,-0.156 0.754,-0.153 0.769,-0.199 0.742,-0.16 0.782,-0.192 0.742,-0.203 0.781,-0.144 0.742,-0.199 0.781,-0.153 0.743,-0.199 0.781,-0.191 0.742,-0.161 0.781,-0.203 0.743,-0.187 0.781,-0.203 0.742,-0.188 0.784,-0.195 0.74,-0.152 0.78,-0.2 0.74,-0.191 0.78,-0.199 0.75,-0.203 0.78,-0.188 0.74,-0.199 0.78,-0.192 0.74,-0.203 0.78,-0.226 0.75,-0.203 0.78,-0.188 0.74,-0.199 0.78,-0.192 0.74,-0.242 0.78,-0.187 0.75,-0.203 0.78,-0.227 0.74,-0.199 0.78,-0.192 0.74,-0.242 0.79,-0.187 0.78,-0.242 0.74,-0.188 0.78,-0.238 0.74,-0.192 0.78,-0.242 0.75,-0.226 0.78,-0.203 0.74,-0.227 0.78,-0.23 0.74,-0.2 0.78,-0.23 0.75,-0.238 0.78,-0.235 0.74,-0.195 0.78,-0.235 0.74,-0.242 0.78,-0.226 0.75,-0.242 0.78,-0.227 0.74,-0.23 0.78,-0.239 0.74,-0.23 0.78,-0.246 0.75,-0.227 0.78,-0.238 0.74,-0.231 0.78,-0.269 0.74,-0.238 0.78,-0.235 0.75,-0.238 0.78,-0.27 0.74,-0.23 0.78,-0.238 0.74,-0.274 0.78,-0.238 0.75,-0.231 0.78,-0.269 0.74,-0.238 0.78,-0.274 0.74,-0.238 0.79,-0.27 0.74,-0.23 0.78,-0.277 0.74,-0.235 0.79,-0.277 0.73,-0.27 0.79,-0.23 0.74,-0.285 0.78,-0.266 0.74,-0.269 0.78,-0.239 0.74,-0.273 0.79,-0.27 0.74,-0.277 0.78,-0.274 0.74,-0.281 0.78,-0.265 0.74,-0.274 0.79,-0.277 0.74,-0.27 0.78,-0.269 0.74,-0.285 0.78,-0.266 0.75,-0.27 0.78,-0.285 0.74,-0.265 0.78,-0.27 0.75,-0.32 1.55,-0.543 0.75,-0.274 0.78,-0.312 0.74,-0.274 0.78,-0.273 0.74,-0.312 0.78,-0.274 0.75,-0.312 0.78,-0.274 0.74,-0.312 0.78,-0.274 0.74,-0.312 0.79,-0.274 0.74,-0.312 0.78,-0.274 0.74,-0.312 0.78,-0.313 0.74,-0.273 0.79,-0.324 0.74,-0.301 0.78,-0.313 0.74,-0.273 0.78,-0.313 0.74,-0.312 0.79,-0.313 0.74,-0.312 0.78,-0.313 0.74,-0.312 0.78,-0.313 0.74,-0.312 0.79,-0.313 0.74,-0.312 0.78,-0.313 0.74,-0.312 0.78,-0.313 0.75,-0.312 0.78,-0.313 0.74,-0.312 0.78,-0.313 0.74,-0.312 0.78,-0.352 0.75,-0.312 0.78,-0.324 0.74,-0.34 0.78,-0.313 0.74,-0.312 0.78,-0.352 0.75,-0.312 0.78,-0.313 0.74,-0.351 0.78,-0.313 0.74,-0.351 0.78,-0.313 0.75,-0.351 0.78,-0.313 0.74,-0.351 0.78,-0.313 0.74,-0.352 0.78,-0.351 0.75,-0.313 0.78,-0.351 0.74,-0.352 0.78,-0.312 0.74,-0.352 0.78,-0.351 0.75,-0.352 0.78,-0.351 0.74,-0.313 0.78,-0.352 0.74,-0.351 1.57,-0.703 0.74,-0.352 0.78,-0.351 0.74,-0.352 0.78,-0.351 0.75,-0.352 0.78,-0.352 0.74,-0.351 0.78,-0.352 0.75,-0.351 0.77,-0.352 0.75,-0.39 0.78,-0.352 0.74,-0.352 0.78,-0.351 0.74,-0.352 0.78,-0.39 0.75,-0.352 0.78,-0.351 0.74,-0.391 0.78,-0.352 0.74,-0.351 0.78,-0.391 0.75,-0.351 0.78,-0.391 0.74,-0.363 0.78,-0.34 0.74,-0.391 0.78,-0.351 0.75,-0.391 0.78,-0.391 0.74,-0.351 0.78,-0.391 0.74,-0.351 0.78,-0.391 0.75,-0.402 0.78,-0.34 0.74,-0.391 0.78,-0.39 0.74,-0.352 0.78,-0.391 0.75,-0.39 0.78,-0.391 0.74,-0.351 0.78,-0.391 0.74,-0.391 0.79,-0.39 0.74,-0.391 0.78,-0.391 0.74,-0.39 0.78,-0.391 0.74,-0.39 0.79,-0.391 0.74,-0.352 0.78,-0.39 0.74,-0.43 0.78,-0.391 0.74,-0.39 0.79,-0.391 0.74,-0.39 0.78,-0.391 0.74,-0.383 0.78,-0.398 0.74,-0.391 0.79,-0.441 0.74,-0.379 0.78,-0.391 0.74,-0.39 0.78,-0.391 0.78,-0.43 0.75,-0.39 0.78,-0.391 0.74,-0.43 0.78,-0.39 0.74,-0.391 0.78,-0.43 0.75,-0.39 0.78,-0.43 0.74,-0.391 0.78,-0.39 0.74,-0.43 0.78,-0.391 0.75,-0.429 0.78,-0.391 0.74,-0.43 0.78,-0.39 0.74,-0.43 0.79,-0.43 0.74,-0.39 0.78,-0.43 0.74,-0.39 0.79,-0.43 0.73,-0.43 0.79,-0.39 0.74,-0.43 0.78,-0.43 0.74,-0.39 0.78,-0.43 0.74,-0.43 0.79,-0.43 0.74,-0.39 0.78,-0.43 0.74,-0.43 0.78,-0.429 0.74,-0.43 0.79,-0.43 0.74,-0.39 0.78,-0.43 0.74,-0.43 0.78,-0.429 0.75,-0.43 0.78,-0.43 0.74,-0.429 0.78,-0.43 0.75,-0.43 0.77,-0.429 0.75,-0.43 0.78,-0.43 0.74,-0.429 0.78,-0.43 0.74,-0.43 0.78,-0.43 0.75,-0.429 0.78,-0.43 0.74,-0.43 0.78,-0.429 0.74,-0.469 0.78,-0.43 0.75,-0.429 0.78,-0.43 0.74,-0.43 0.78,-0.429 0.74,-0.469 0.78,-0.43 0.75,-0.43 0.78,-0.429 0.74,-0.469 1.56,-0.859 0.74,-0.43 0.79,-0.469 0.74,-0.43 0.78,-0.429 0.74,-0.469 0.78,-0.422 0.74,-0.437 0.79,-0.469 0.74,-0.43 0.78,-0.429 0.74,-0.469 0.78,-0.43 0.75,-0.469 0.78,-0.429 0.74,-0.469 0.78,-0.43 0.74,-0.429 0.78,-0.469 0.75,-0.43 0.78,-0.469 0.74,-0.429 0.78,-0.469 0.74,-0.43 0.78,-0.469 0.75,-0.468 0.78,-0.43 0.74,-0.469 0.78,-0.429 0.74,-0.469 0.78,-0.43 0.75,-0.469 0.78,-0.468 0.74,-0.43 0.78,-0.469 0.74,-0.429 0.78,-0.469 0.75,-0.469 0.78,-0.43 0.74,-0.468 0.78,-0.469 0.74,-0.43 0.78,-0.469 0.75,-0.468 0.78,-0.43 0.74,-0.469 0.78,-0.469 0.74,-0.468 0.78,-0.43 0.75,-0.469 0.78,-0.468 0.74,-0.469 0.78,-0.43 0.74,-0.469 0.79,-0.468 0.74,-0.469 0.78,-0.43 0.74,-0.469 0.79,-0.468 0.73,-0.469 0.79,-0.469 0.74,-0.43 0.78,-0.468 0.74,-0.469 0.78,-0.469 0.74,-0.469 0.79,-0.429 0.74,-0.469 1.56,-0.937 0.74,-0.469 0.78,-0.469 0.75,-0.469 0.78,-0.468 0.74,-0.43 0.78,-0.469 0.74,-0.469 0.78,-0.468 0.75,-0.469 0.78,-0.469 0.74,-0.469 0.78,-0.468 0.74,-0.469 0.78,-0.43 0.75,-0.469 0.78,-0.468 0.74,-0.469 0.78,-0.469 0.74,-0.469 0.78,-0.468 0.75,-0.469 0.78,-0.469 0.74,-0.469 0.78,-0.468 0.74,-0.469 0.79,-0.469 0.74,-0.469 0.78,-0.468 0.74,-0.469 0.78,-0.469 0.74,-0.469 0.79,-0.429 0.74,-0.469 0.78,-0.469 0.74,-0.469 0.78,-0.468 0.74,-0.469 0.79,-0.469 0.74,-0.469 0.78,-0.468 0.74,-0.469 0.78,-0.469 0.74,-0.469 0.79,-0.468 0.74,-0.469 0.78,-0.469 0.74,-0.469 0.78,-0.468 0.75,-0.469 0.78,-0.469 0.74,-0.469 0.78,-0.468 0.74,-0.469 0.78,-0.469 0.75,-0.469 0.78,-0.468 0.74,-0.469 0.78,-0.469 0.74,-0.469 0.78,-0.468 0.75,-0.469 0.78,-0.469 0.74,-0.469 0.78,-0.468 0.74,-0.469 0.78,-0.469 0.75,-0.469 0.78,-0.468 0.74,-0.469 1.57,-0.938 0.73,-0.429 0.79,-0.469 0.74,-0.469 0.78,-0.468 0.74,-0.469 0.78,-0.469 0.74,-0.469 0.79,-0.468 0.74,-0.469 0.78,-0.469 0.74,-0.469 0.78,-0.468 0.74,-0.469 0.79,-0.469 0.74,-0.469 0.78,-0.468 0.74,-0.469 0.78,-0.43 0.75,-0.469 0.78,-0.468 0.74,-0.469 0.78,-0.469 0.75,-0.461 0.77,-0.476 0.75,-0.469 0.78,-0.469 0.74,-0.43 0.78,-0.468 0.74,-0.469 0.78,-0.469 0.75,-0.469 0.78,-0.468 0.74,-0.469 0.78,-0.43 0.74,-0.469 0.78,-0.468 0.75,-0.469 0.78,-0.469 0.74,-0.469 0.78,-0.429 0.74,-0.469 0.78,-0.469 0.75,-0.468 0.78,-0.469 0.74,-0.43 0.78,-0.469 0.74,-0.468 0.78,-0.469 0.75,-0.43 0.78,-0.469 0.74,-0.468 0.78,-0.469 0.74,-0.43 0.78,-0.469 0.75,-0.468 0.78,-0.469 0.74,-0.43 0.78,-0.468 0.74,-0.469 0.79,-0.43 0.74,-0.461 0.78,-0.476 0.74,-0.43 0.78,-0.469 0.74,-0.469 0.79,-0.429 0.74,-0.469 0.78,-0.43 0.78,-0.468 0.74,-0.469 0.78,-0.43 0.75,-0.461 0.78,-0.437 0.74,-0.469 0.78,-0.469 0.74,-0.43 0.78,-0.468 0.75,-0.43 0.78,-0.469 0.74,-0.429 0.78,-0.469 0.74,-0.43 0.78,-0.469 0.75,-0.429 0.78,-0.469 0.74,-0.43 0.78,-0.468 0.74,-0.43 0.78,-0.469 0.75,-0.43 0.78,-0.429 0.74,-0.469 0.78,-0.43 0.74,-0.468 0.78,-0.43 0.75,-0.43 0.78,-0.469 0.74,-0.429 0.78,-0.43 0.74,-0.469 0.79,-0.429 0.74,-0.43 0.78,-0.469 0.74,-0.43 0.79,-0.429 0.73,-0.43 0.79,-0.469 0.74,-0.429 0.78,-0.43 0.74,-0.43 0.78,-0.468 0.74,-0.43 0.79,-0.43 0.74,-0.43 0.78,-0.429 0.74,-0.43 0.78,-0.461 0.74,-0.437 0.79,-0.43 0.74,-0.43 0.78,-0.429 0.74,-0.43 0.78,-0.43 0.75,-0.429 0.78,-0.43 0.74,-0.43 0.78,-0.43 0.75,-0.429 0.77,-0.43 0.75,-0.43 0.78,-0.429 0.74,-0.43 0.78,-0.43 0.74,-0.429 0.78,-0.43 0.75,-0.43 1.56,-0.859 0.74,-0.43 0.78,-0.39 0.74,-0.43 0.79,-0.43 0.74,-0.429 0.78,-0.43 0.74,-0.43 0.78,-0.39 0.74,-0.43 0.79,-0.43 0.74,-0.43 0.78,-0.39 0.74,-0.43 0.78,-0.43 0.74,-0.39 0.79,-0.43 0.74,-0.43 0.78,-0.39 0.74,-0.43 0.78,-0.43 0.74,-0.39 0.79,-0.43 0.74,-0.39 0.78,-0.43 0.74,-0.43 0.78,-0.39 0.75,-0.43 0.78,-0.391 0.74,-0.429 0.78,-0.391 0.74,-0.43 0.78,-0.39 0.75,-0.391 0.78,-0.43 0.74,-0.39 0.78,-0.43 0.74,-0.391 0.78,-0.39 0.75,-0.43 0.78,-0.391 0.74,-0.39 0.78,-0.43 0.74,-0.391 0.78,-0.39 0.75,-0.43 0.78,-0.39 0.74,-0.391 0.78,-0.391 0.74,-0.39 0.78,-0.43 0.75,-0.383 0.78,-0.398 0.74,-0.391 0.78,-0.391 0.74,-0.39 0.78,-0.391 0.75,-0.39 0.78,-0.43 0.74,-0.391 0.78,-0.39 0.74,-0.391 0.78,-0.391 0.75,-0.39 0.78,-0.391 0.74,-0.39 0.78,-0.352 0.74,-0.391 1.57,-0.781 0.74,-0.391 0.78,-0.39 0.75,-0.391 0.77,-0.39 0.75,-0.352 0.78,-0.391 0.74,-0.39 0.78,-0.391 0.74,-0.351 0.78,-0.391 0.75,-0.391 0.78,-0.39 0.74,-0.352 0.78,-0.39 0.74,-0.391 0.78,-0.352 0.75,-0.39 0.78,-0.391 0.74,-0.351 0.78,-0.391 0.74,-0.344 0.78,-0.398 0.75,-0.352 0.78,-0.39 0.74,-0.352 0.78,-0.391 0.74,-0.351 0.78,-0.391 0.75,-0.351 0.78,-0.352 0.74,-0.391 0.78,-0.351 0.74,-0.391 0.78,-0.351 0.75,-0.352 0.78,-0.391 0.74,-0.351 0.78,-0.352 0.74,-0.351 0.79,-0.391 0.74,-0.351 0.78,-0.352 0.74,-0.352 0.78,-0.351 0.74,-0.391 0.79,-0.351 0.74,-0.352 0.78,-0.351 0.74,-0.352 0.78,-0.352 0.74,-0.351 0.79,-0.352 0.74,-0.351 0.78,-0.352 0.74,-0.351 0.78,-0.352 0.74,-0.351 0.79,-0.352 0.74,-0.352 0.78,-0.351 0.74,-0.352 0.78,-0.351 0.75,-0.352 0.78,-0.312 0.74,-0.352 0.78,-0.351 0.74,-0.352 0.78,-0.352 0.78,-0.312 0.75,-0.344 0.78,-0.359 0.74,-0.352 0.78,-0.312 0.74,-0.352 0.78,-0.351 0.75,-0.313 0.78,-0.351 0.74,-0.313 0.78,-0.352 0.74,-0.351 0.79,-0.313 0.74,-0.351 0.78,-0.313 0.74,-0.351 0.79,-0.313 0.73,-0.351 0.79,-0.313 0.74,-0.312 0.78,-0.352 0.74,-0.312 0.78,-0.352 0.74,-0.312 0.79,-0.313 0.74,-0.351 0.78,-0.313 0.74,-0.312 0.78,-0.352 0.74,-0.313 0.79,-0.312 0.74,-0.313 0.78,-0.312 0.74,-0.352 0.78,-0.312 0.75,-0.313 0.78,-0.312 0.74,-0.313 0.78,-0.312 0.75,-0.313 0.77,-0.351 0.75,-0.313 0.78,-0.312 0.74,-0.313 0.78,-0.312 0.74,-0.313 0.78,-0.312 0.75,-0.305 0.78,-0.281 0.74,-0.313 0.78,-0.312 0.74,-0.313 0.78,-0.312 0.75,-0.313 0.78,-0.312 0.74,-0.313 0.78,-0.273 0.74,-0.313 0.78,-0.312 0.75,-0.313 0.78,-0.273 0.74,-0.312 0.78,-0.313 0.74,-0.273 0.78,-0.313 0.75,-0.312 0.78,-0.274 0.74,-0.312 0.78,-0.313 0.74,-0.273 0.78,-0.313 0.79,-0.273 0.74,-0.313 0.78,-0.273 0.74,-0.313 0.78,-0.273 0.75,-0.313 0.78,-0.273 0.74,-0.313 0.78,-0.273 0.74,-0.312 0.78,-0.274 0.75,-0.273 0.78,-0.313 0.74,-0.273 0.78,-0.274 0.74,-0.312 0.78,-0.274 0.75,-0.273 0.78,-0.274 0.74,-0.312 0.78,-0.273 0.74,-0.274 0.78,-0.273 0.75,-0.274 0.78,-0.273 0.74,-0.313 0.78,-0.273 0.74,-0.274 0.78,-0.273 0.75,-0.273 0.78,-0.274 0.74,-0.273 0.78,-0.274 0.74,-0.273 0.78,-0.274 0.75,-0.273 0.78,-0.274 0.74,-0.273 0.78,-0.273 0.74,-0.274 0.78,-0.273 0.75,-0.235 0.78,-0.273 0.74,-0.274 0.78,-0.273 0.74,-0.273 0.79,-0.274 0.74,-0.234 0.78,-0.274 0.74,-0.273 0.79,-0.274 0.73,-0.234 0.79,-0.273 0.74,-0.274 0.78,-0.234 0.74,-0.274 0.78,-0.273 0.74,-0.234 0.79,-0.274 0.74,-0.234 0.78,-0.274 0.74,-0.273 0.78,-0.234 0.74,-0.274 0.79,-0.234 0.74,-0.274 0.78,-0.234 0.74,-0.274 1.56,-0.468 0.75,-0.274 0.78,-0.234 0.74,-0.274 0.78,-0.234 0.74,-0.234 0.78,-0.274 0.75,-0.234 0.78,-0.234 0.74,-0.274 0.78,-0.234 0.74,-0.235 0.78,-0.234 0.75,-0.273 0.78,-0.235 0.74,-0.234 0.78,-0.235 0.74,-0.234 0.79,-0.234 0.74,-0.274 0.78,-0.234 0.74,-0.235 0.78,-0.234 0.74,-0.234 0.79,-0.235 0.74,-0.234 0.78,-0.234 0.74,-0.235 0.78,-0.234 0.74,-0.235 0.79,-0.234 0.74,-0.234 0.78,-0.235 0.74,-0.234 0.78,-0.234 0.74,-0.235 0.79,-0.234 0.74,-0.195 0.78,-0.235 0.74,-0.234 0.78,-0.235 0.75,-0.234 0.78,-0.195 0.74,-0.235 0.78,-0.234 0.74,-0.234 0.78,-0.196 0.75,-0.234 0.78,-0.234 0.74,-0.235 0.78,-0.195 0.74,-0.235 0.78,-0.234 0.75,-0.195 0.78,-0.235 0.74,-0.195 0.78,-0.234 0.74,-0.235 0.78,-0.195 0.75,-0.234 0.78,-0.188 0.74,-0.242 0.78,-0.195 0.74,-0.235 0.78,-0.195 0.75,-0.234 0.78,-0.196 0.74,-0.234 1.56,-0.391 0.74,-0.234 0.79,-0.195 0.74,-0.196 0.78,-0.234 0.74,-0.195 0.78,-0.235 0.74,-0.195 0.79,-0.195 0.74,-0.196 0.78,-0.234 0.74,-0.195 0.78,-0.196 0.75,-0.195 0.78,-0.234 0.74,-0.196 0.78,-0.195 0.75,-0.195 0.77,-0.196 0.75,-0.195 0.78,-0.234 0.74,-0.196 0.78,-0.195 0.74,-0.195 0.78,-0.196 0.75,-0.195 0.78,-0.195 0.74,-0.196 0.78,-0.195 0.74,-0.195 0.78,-0.195 0.75,-0.196 0.78,-0.195 0.74,-0.195 0.78,-0.196 0.74,-0.195 0.78,-0.195 0.75,-0.196 0.78,-0.195 0.74,-0.195 0.78,-0.157 0.74,-0.195 0.78,-0.195 0.75,-0.195 0.78,-0.196 0.74,-0.195 0.78,-0.156 0.74,-0.196 0.78,-0.195 0.75,-0.195 0.78,-0.157 0.74,-0.195 0.78,-0.195 0.74,-0.195 0.79,-0.157 0.74,-0.195 0.78,-0.195 0.74,-0.157 0.78,-0.195 0.74,-0.195 0.79,-0.156 0.74,-0.196 0.78,-0.156 0.74,-0.195 0.78,-0.196 0.74,-0.156 0.79,-0.195 0.74,-0.156 0.78,-0.196 0.78,-0.156 0.74,-0.195 0.78,-0.157 0.75,-0.195 0.78,-0.156 0.74,-0.195 0.78,-0.157 0.74,-0.156 0.78,-0.195 0.75,-0.157 0.78,-0.195 0.74,-0.156 0.78,-0.156 0.74,-0.188 0.78,-0.164 0.75,-0.156 0.78,-0.195 0.74,-0.157 0.78,-0.156 0.74,-0.195 0.78,-0.157 0.75,-0.156 0.78,-0.156 0.74,-0.195 0.78,-0.157 0.74,-0.156 0.79,-0.156 0.74,-0.156 0.78,-0.188 0.74,-0.164 0.79,-0.156 0.73,-0.156 0.79,-0.157 0.74,-0.156 0.78,-0.156 0.74,-0.195 0.78,-0.157 0.74,-0.156 0.79,-0.156 0.74,-0.156 0.78,-0.157 0.74,-0.156 0.78,-0.156 0.74,-0.156 0.79,-0.157 0.74,-0.156 0.78,-0.156 0.74,-0.156 0.78,-0.157 0.75,-0.156 0.78,-0.156 0.74,-0.156 0.78,-0.157 0.75,-0.156 0.77,-0.117 0.75,-0.156 0.78,-0.157"
         style="fill:none;stroke:#3c6e4f;stroke-width:10;stroke-linecap:butt;stroke-linejoin:round;stroke-miterlimit:3.25;stroke-dasharray:none;stroke-opacity:1"
         transform="matrix(0.13333333,0,0,-0.13333333,0,169.72)" />
      <path
         id="path6"
         d="m 199.996,433.691 0.781,0.039 0.75,0.04 0.778,0.039 0.742,0.078 0.781,0.039 0.738,0.039 0.782,0.039 0.75,0.039 0.777,0.039 0.742,0.078 0.781,0.039 0.739,0.039 0.781,0.047 0.75,0.031 0.777,0.039 0.743,0.079 0.781,0.039 0.738,0.039 0.789,0.039 0.742,0.039 0.778,0.078 0.742,0.039 0.781,0.039 0.738,0.039 0.789,0.039 0.739,0.078 0.781,0.039 0.742,0.039 0.781,0.04 0.739,0.039 0.789,0.078 0.781,0.039 0.738,0.039 0.782,0.039 0.738,0.039 0.781,0.078 0.75,0.039 0.781,0.039 0.739,0.039 0.781,0.039 0.738,0.078 0.781,0.04 0.75,0.039 0.778,0.039 0.742,0.078 0.781,0.039 0.738,0.039 0.782,0.039 0.75,0.039 0.777,0.078 0.742,0.039 0.781,0.039 0.739,0.039 0.789,0.078 0.742,0.04 0.777,0.039 0.743,0.039 0.781,0.078 0.738,0.039 0.789,0.039 0.742,0.039 0.778,0.078 0.742,0.039 0.781,0.039 0.738,0.039 0.789,0.078 0.739,0.039 0.781,0.04 0.742,0.039 0.781,0.078 0.739,0.039 0.789,0.039 0.738,0.078 0.781,0.039 0.742,0.039 0.778,0.039 0.75,0.078 0.781,0.039 0.738,0.039 0.782,0.039 0.742,0.079 0.777,0.039 0.75,0.039 0.781,0.078 0.739,0.039 0.781,0.039 0.742,0.078 0.777,0.039 0.75,0.039 0.782,0.039 0.738,0.078 0.781,0.039 0.742,0.04 0.778,0.078 0.75,0.039 0.781,0.039 0.738,0.078 0.782,0.039 0.738,0.039 0.781,0.078 0.789,0.039 0.742,0.039 0.778,0.039 0.742,0.078 0.781,0.04 0.738,0.039 0.789,0.078 0.739,0.039 0.781,0.039 0.742,0.078 0.781,0.039 0.739,0.039 0.789,0.078 0.738,0.039 0.781,0.078 0.742,0.039 0.778,0.04 0.742,0.078 0.789,0.039 0.738,0.039 0.782,0.078 0.742,0.039 0.777,0.039 0.75,0.078 0.781,0.039 0.739,0.039 0.781,0.078 0.742,0.039 0.777,0.079 0.75,0.039 0.782,0.039 0.738,0.078 0.781,0.039 0.742,0.039 0.778,0.078 0.75,0.039 0.781,0.078 0.738,0.039 0.782,0.039 0.738,0.079 0.781,0.039 0.75,0.039 0.781,0.078 0.739,0.039 0.781,0.078 0.738,0.039 0.781,0.039 0.75,0.078 0.778,0.039 0.742,0.078 0.781,0.039 0.738,0.079 0.782,0.039 0.75,0.039 0.777,0.078 0.742,0.039 0.781,0.078 0.739,0.039 0.789,0.039 0.742,0.078 0.777,0.047 0.743,0.07 0.781,0.04 0.738,0.078 0.789,0.039 0.742,0.039 0.778,0.078 0.742,0.039 0.781,0.078 0.777,0.039 0.75,0.078 0.782,0.039 0.738,0.078 0.781,0.04 0.742,0.039 0.778,0.078 0.75,0.039 0.781,0.078 0.738,0.039 0.782,0.078 0.738,0.039 0.781,0.078 0.75,0.039 0.781,0.078 0.739,0.04 0.781,0.078 0.738,0.039 0.781,0.039 0.75,0.078 0.778,0.039 0.742,0.078 0.781,0.039 0.738,0.078 0.782,0.039 0.75,0.078 0.777,0.04 0.742,0.078 0.781,0.039 0.739,0.078 0.781,0.039 0.75,0.078 0.777,0.039 0.743,0.078 0.781,0.039 0.738,0.078 0.789,0.039 0.742,0.079 0.778,0.039 0.742,0.078 0.781,0.039 0.738,0.078 0.789,0.039 0.739,0.078 0.781,0.078 0.742,0.039 0.781,0.078 0.739,0.04 0.789,0.078 0.738,0.039 0.781,0.078 0.742,0.039 0.778,0.078 0.742,0.039 0.789,0.078 0.738,0.039 0.782,0.078 0.742,0.039 0.777,0.079 0.75,0.078 0.781,0.039 0.739,0.078 0.781,0.039 0.742,0.078 0.777,0.039 0.75,0.078 0.782,0.078 0.738,0.039 0.781,0.079 0.742,0.039 0.778,0.078 0.789,0.039 0.742,0.078 0.777,0.078 0.743,0.039 0.781,0.078 0.738,0.047 0.789,0.07 0.742,0.04 0.778,0.078 0.742,0.078 0.781,0.039 0.738,0.078 0.789,0.039 0.739,0.078 0.781,0.078 0.742,0.039 0.781,0.078 0.739,0.04 0.789,0.078 0.738,0.078 0.781,0.039 0.742,0.078 0.778,0.078 0.75,0.039 0.781,0.078 0.738,0.039 0.782,0.078 0.742,0.079 0.777,0.039 0.75,0.078 0.781,0.078 0.739,0.039 0.781,0.078 0.742,0.039 0.777,0.078 0.75,0.078 0.782,0.039 0.738,0.079 0.781,0.078 0.742,0.039 0.778,0.078 0.75,0.078 0.781,0.039 0.738,0.078 0.782,0.086 0.738,0.031 0.781,0.079 0.75,0.078 0.781,0.039 0.739,0.078 0.781,0.078 0.738,0.039 0.781,0.078 0.75,0.078 0.778,0.039 0.742,0.078 0.781,0.079 0.738,0.039 0.782,0.078 0.75,0.078 0.777,0.039 0.742,0.078 0.781,0.078 0.739,0.078 0.781,0.039 0.75,0.079 0.777,0.078 0.743,0.039 1.558,0.156 0.75,0.078 0.781,0.039 0.739,0.078 0.781,0.078 0.742,0.039 0.777,0.079 0.75,0.078 0.782,0.078 0.738,0.039 0.781,0.078 0.742,0.078 0.778,0.078 0.75,0.047 0.781,0.07 0.738,0.079 0.782,0.039 0.738,0.078 0.781,0.078 0.75,0.078 0.781,0.039 0.739,0.078 0.781,0.078 0.738,0.078 0.781,0.079 0.75,0.039 0.778,0.078 0.742,0.078 0.781,0.078 0.738,0.039 0.782,0.078 0.75,0.078 0.777,0.078 0.742,0.04 0.781,0.078 0.739,0.078 0.789,0.078 0.742,0.078 0.777,0.039 0.743,0.078 0.781,0.078 0.738,0.078 0.789,0.079 0.742,0.039 0.778,0.078 0.742,0.078 0.781,0.078 0.738,0.078 0.789,0.039 0.739,0.086 0.781,0.07 0.742,0.079 0.781,0.078 0.739,0.078 0.789,0.039 0.738,0.078 0.781,0.078 0.742,0.078 0.778,0.078 0.75,0.039 0.781,0.079 0.738,0.078 0.782,0.078 0.742,0.078 0.777,0.078 0.75,0.078 0.781,0.039 0.739,0.078 1.562,0.157 0.738,0.078 0.782,0.078 0.75,0.078 0.777,0.039 0.742,0.078 0.781,0.078 0.739,0.078 0.781,0.079 0.75,0.078 0.777,0.078 0.743,0.078 0.781,0.039 0.738,0.078 0.789,0.078 0.742,0.078 0.778,0.079 0.742,0.078 0.781,0.078 0.738,0.078 0.789,0.078 0.739,0.039 0.781,0.078 0.742,0.078 0.781,0.078 0.739,0.079 0.789,0.078 0.738,0.078 0.781,0.078 0.742,0.078 0.778,0.078 0.742,0.078 0.789,0.078 0.738,0.04 0.782,0.078 0.742,0.078 0.781,0.078 0.742,0.078 0.781,0.078 0.743,0.078 0.781,0.078 0.742,0.079 0.781,0.078 0.743,0.078 0.781,0.078 0.742,0.078 0.781,0.078 0.742,0.078 0.782,0.078 0.742,0.079 0.781,0.078 0.742,0.078 0.782,0.078 0.742,0.078 0.781,0.039 0.742,0.078 0.781,0.078 0.743,0.078 0.781,0.079 0.742,0.078 0.781,0.078 0.742,0.078 0.782,0.078 0.742,0.078 0.781,0.078 0.742,0.078 0.782,0.079 0.742,0.078 1.562,0.156 0.742,0.078 0.782,0.078 0.742,0.078 0.781,0.078 0.742,0.079 0.782,0.078 0.742,0.117 0.781,0.078 0.742,0.078 0.781,0.078 0.743,0.078 0.781,0.079 0.742,0.078 0.781,0.078 0.743,0.078 0.781,0.078 0.742,0.078 0.781,0.078 0.742,0.078 0.782,0.079 0.742,0.078 0.781,0.078 0.742,0.078 0.782,0.078 0.742,0.078 0.781,0.078 0.742,0.117 0.781,0.079 0.743,0.078 0.781,0.078 0.742,0.078 0.781,0.078 0.742,0.078 0.782,0.078 0.742,0.078 0.781,0.079 0.742,0.078 0.782,0.078 0.742,0.117 0.781,0.078 0.742,0.078 0.781,0.078 0.743,0.079 0.781,0.078 0.742,0.078 0.781,0.078 0.743,0.078 0.781,0.117 0.742,0.078 0.781,0.078 0.742,0.079 0.782,0.078 0.742,0.078 0.781,0.078 0.742,0.117 0.782,0.078 0.742,0.078 0.781,0.079 0.742,0.078 0.781,0.078 0.743,0.078 0.781,0.117 0.742,0.078 0.781,0.078 0.742,0.078 0.782,0.079 0.742,0.078 0.781,0.117 0.781,0.078 0.743,0.078 0.781,0.078 0.742,0.078 0.781,0.079 0.742,0.117 0.782,0.078 0.742,0.078 0.781,0.078 0.742,0.078 0.782,0.117 0.742,0.079 0.781,0.078 0.742,0.078 0.781,0.078 0.743,0.117 0.781,0.078 0.742,0.078 0.781,0.078 0.743,0.079 0.781,0.117 0.742,0.078 0.781,0.078 0.742,0.078 0.782,0.117 0.742,0.078 0.781,0.079 0.742,0.078 0.782,0.117 0.742,0.078 0.781,0.078 0.742,0.078 0.781,0.117 0.743,0.079 0.781,0.078 0.742,0.078 0.781,0.117 0.742,0.078 0.782,0.078 0.742,0.078 0.781,0.118 0.742,0.078 0.782,0.078 0.742,0.078 0.781,0.117 0.742,0.078 0.781,0.078 0.743,0.118 0.781,0.078 0.742,0.078 0.781,0.078 0.743,0.117 0.781,0.078 0.742,0.078 0.781,0.118 0.742,0.078 0.782,0.078 0.742,0.117 0.781,0.078 0.742,0.078 0.782,0.117 0.742,0.079 0.781,0.078 0.742,0.117 0.781,0.078 0.743,0.078 0.781,0.117 0.742,0.078 0.781,0.079 0.742,0.117 1.563,0.156 0.742,0.117 0.781,0.078 0.743,0.078 0.781,0.118 0.742,0.078 0.781,0.078 0.742,0.117 0.782,0.078 0.742,0.117 0.781,0.079 0.742,0.078 0.782,0.117 0.742,0.078 0.781,0.078 0.742,0.117 0.781,0.078 0.743,0.118 0.781,0.078 0.742,0.078 0.781,0.117 0.743,0.078 0.781,0.117 0.742,0.078 0.781,0.079 0.742,0.117 0.782,0.078 0.742,0.117 0.781,0.078 0.742,0.117 0.782,0.079 0.742,0.078 0.781,0.117 0.742,0.078 0.781,0.117 0.743,0.078 0.781,0.117 0.742,0.079 0.781,0.117 0.742,0.078 0.782,0.078 0.742,0.117 0.781,0.086 0.742,0.11 0.782,0.078 0.742,0.117 0.781,0.078 0.742,0.117 0.781,0.078 0.743,0.117 0.781,0.079 0.742,0.117 0.781,0.078 0.743,0.117 0.781,0.078 0.742,0.117 0.781,0.079 0.742,0.117 0.782,0.078 0.742,0.117 0.781,0.078 0.742,0.117 0.782,0.078 0.742,0.118 0.781,0.078 0.742,0.117 0.781,0.078 0.743,0.117 0.781,0.078 0.781,0.118 0.742,0.078 0.782,0.117 0.742,0.078 0.781,0.117 0.742,0.117 0.781,0.079 0.743,0.117 0.781,0.078 0.742,0.117 0.781,0.078 0.742,0.117 0.782,0.078 0.742,0.118 0.781,0.117 0.742,0.078 0.782,0.117 0.742,0.078 0.781,0.117 0.742,0.118 0.781,0.078 0.743,0.117 0.781,0.078 0.742,0.117 0.781,0.078 0.743,0.118 0.781,0.117 0.742,0.078 0.781,0.117 0.742,0.117 0.782,0.078 0.742,0.118 0.781,0.078 0.742,0.117 0.782,0.117 0.742,0.078 0.781,0.117 0.742,0.118 0.781,0.078 0.743,0.117 0.781,0.078 0.742,0.117 0.781,0.117 0.742,0.079 0.782,0.117 0.742,0.117 0.781,0.078 0.742,0.117 0.782,0.117 0.742,0.079 0.781,0.117 0.742,0.117 0.781,0.078 0.743,0.117 0.781,0.117 0.742,0.079 0.781,0.117 0.743,0.117 0.781,0.117 0.742,0.078 0.781,0.117 0.742,0.118 0.782,0.078 0.742,0.117 0.781,0.117 0.742,0.117 0.782,0.078 0.742,0.118 0.781,0.117 0.781,0.078 0.742,0.117 0.782,0.117 0.742,0.117 0.781,0.079 0.742,0.117 0.782,0.117 0.742,0.117 0.781,0.078 0.742,0.117 0.781,0.118 0.743,0.117 0.781,0.078 0.742,0.117 0.781,0.117 0.742,0.118 0.782,0.078 0.742,0.117 0.781,0.117 0.742,0.117 0.782,0.117 0.742,0.079 0.781,0.117 0.742,0.117 0.781,0.117 0.743,0.117 0.781,0.078 0.742,0.118 0.781,0.117 0.743,0.117 0.781,0.117 0.742,0.078 0.781,0.117 0.742,0.118 0.782,0.117 0.742,0.117 0.781,0.117 0.742,0.078 0.782,0.118 0.742,0.117 0.781,0.117 0.742,0.117 0.781,0.117 0.743,0.117 0.781,0.079 0.742,0.117 0.781,0.117 0.742,0.117 0.782,0.125 0.742,0.11 0.781,0.117 0.742,0.078 0.782,0.117 0.742,0.117 0.781,0.117 0.742,0.118 0.781,0.117 0.743,0.117 0.781,0.117 0.742,0.117 0.781,0.118 0.743,0.078 0.781,0.117 0.742,0.117 0.781,0.117 0.742,0.117 0.782,0.118 0.742,0.117 1.562,0.234 0.743,0.125 0.781,0.11 0.742,0.117 0.781,0.117 0.742,0.117 0.782,0.078 0.742,0.117 0.781,0.118 0.742,0.117 0.782,0.117 0.742,0.117 0.781,0.117 0.742,0.118 0.781,0.117 0.743,0.117 0.781,0.117 0.742,0.117 0.781,0.117 0.742,0.118 0.782,0.117 0.742,0.117 0.781,0.117 0.742,0.117 0.782,0.118 0.742,0.117 0.781,0.117 0.742,0.117 0.781,0.117 0.743,0.118 0.781,0.117 0.742,0.117 0.781,0.117 0.743,0.117 0.781,0.117 0.742,0.157 0.781,0.117 0.742,0.117 0.782,0.117 0.742,0.117 0.781,0.118 0.742,0.117 0.782,0.117 0.742,0.117 0.781,0.117 0.742,0.118 0.781,0.117 0.743,0.117 0.781,0.117 0.742,0.117 0.781,0.157 0.742,0.117 0.782,0.117 0.742,0.117 0.781,0.117 0.742,0.118 0.782,0.117 0.742,0.117 0.781,0.117 0.742,0.156 0.781,0.118 0.743,0.117 0.781,0.117 0.742,0.117 0.781,0.117 0.743,0.117 0.781,0.118 0.742,0.156 0.781,0.117 0.742,0.117 1.563,0.235 0.742,0.117 0.781,0.156 0.743,0.117 0.781,0.117 0.742,0.118 0.781,0.117 0.742,0.117 0.782,0.156 0.742,0.117 0.781,0.118 0.742,0.117 0.782,0.117 0.742,0.156 0.781,0.117 0.742,0.118 0.781,0.117 0.743,0.117 0.781,0.156 0.742,0.117 0.781,0.118 0.742,0.117 0.782,0.156 0.742,0.117 0.781,0.117 0.742,0.118 0.782,0.156 0.742,0.117 0.781,0.117 0.742,0.117 0.781,0.157 0.743,0.117 0.781,0.117 0.742,0.117 0.781,0.157 0.743,0.117 0.781,0.117 0.742,0.117 0.781,0.156 0.742,0.118 0.782,0.117 0.742,0.156 0.781,0.117 0.742,0.117 0.782,0.157 0.742,0.117 0.781,0.117 0.742,0.117 0.781,0.156 0.743,0.118 0.781,0.117 0.742,0.156 0.781,0.117 0.742,0.117 0.782,0.157 0.742,0.117 0.781,0.156 0.742,0.117 0.782,0.117 0.742,0.157 0.781,0.117 0.742,0.117 0.781,0.156 0.743,0.118 0.793,0.117 0.73,0.156 0.781,0.117 0.743,0.156 1.562,0.235 0.742,0.156 0.781,0.117 0.743,0.156 0.781,0.118 0.742,0.117 0.781,0.156 0.743,0.117 0.781,0.157 0.742,0.117 0.781,0.117 0.742,0.156 0.782,0.117 0.742,0.157 0.781,0.117 0.742,0.156 0.782,0.117 0.742,0.156 0.781,0.118 0.742,0.117 0.781,0.156 0.743,0.117 0.781,0.157 0.742,0.117 0.781,0.156 0.742,0.117 0.782,0.156 0.742,0.118 0.781,0.156 0.742,0.117 0.782,0.156 0.742,0.117 0.781,0.157 0.742,0.117 0.781,0.156 0.743,0.117 0.781,0.157 0.742,0.117 0.781,0.156 0.743,0.117 0.781,0.156 0.742,0.118 0.781,0.156 0.742,0.117 0.782,0.156 0.742,0.157 0.781,0.117 0.742,0.156 0.782,0.117 0.742,0.156 0.781,0.118 0.742,0.156 0.781,0.156 0.743,0.117 0.781,0.157 0.742,0.117 0.781,0.156 0.742,0.117 0.782,0.156 0.742,0.157 0.781,0.117 0.742,0.156 0.782,0.117 0.742,0.157 0.781,0.156 0.742,0.117 0.781,0.156 0.743,0.157 0.781,0.117 0.781,0.156 0.742,0.117 0.782,0.156 0.742,0.157 0.781,0.117 0.742,0.156 0.781,0.164 0.743,0.11 0.793,0.156 0.73,0.156 0.781,0.117 0.743,0.156 0.781,0.157 0.742,0.117 0.781,0.156 0.742,0.156 0.782,0.157 0.742,0.117 0.781,0.156 0.742,0.156 0.782,0.118 0.742,0.156 0.781,0.156 0.742,0.156 0.781,0.117 0.743,0.157 0.781,0.156 0.742,0.117 0.781,0.156 0.742,0.157 0.782,0.156 0.754,0.117 0.769,0.156 0.742,0.157 0.782,0.156 0.742,0.117 0.781,0.156 0.742,0.157 0.781,0.156 0.743,0.156 0.781,0.117 0.742,0.156 0.781,0.157 0.743,0.156 0.781,0.156 0.742,0.117 0.784,0.157 0.74,0.156 0.78,0.156 0.74,0.156 0.78,0.118 0.75,0.156 0.78,0.156 0.74,0.156 0.78,0.157 0.74,0.156 0.78,0.117 0.75,0.156 0.78,0.157 0.74,0.156 0.78,0.156 0.74,0.156 0.78,0.157 0.75,0.117 0.78,0.156 0.74,0.156 0.78,0.156 0.74,0.157 1.57,0.312 0.74,0.156 0.78,0.118 0.74,0.156 0.78,0.156 0.75,0.156 0.78,0.157 0.74,0.156 0.78,0.156 0.74,0.156 0.78,0.157 0.75,0.156 0.78,0.156 0.74,0.156 0.78,0.157 0.74,0.156 0.78,0.156 0.75,0.117 0.78,0.157 0.74,0.156 0.78,0.156 0.74,0.164 0.78,0.149 0.75,0.156 0.78,0.156 0.74,0.156 0.78,0.157 0.74,0.156 0.78,0.156 0.75,0.156 0.78,0.157 0.74,0.156 0.78,0.156 0.74,0.156 0.78,0.157 0.75,0.156 0.78,0.156 0.74,0.164 0.78,0.188 0.74,0.156 0.79,0.156 0.74,0.156 0.78,0.157 0.74,0.156 0.79,0.156 0.73,0.156 0.79,0.157 0.74,0.156 0.78,0.156 0.74,0.156 0.78,0.157 0.74,0.156 0.79,0.156 0.74,0.195 0.78,0.157 0.74,0.156 0.78,0.156 0.74,0.156 0.79,0.157 0.74,0.156 0.78,0.156 0.74,0.196 0.78,0.156 0.75,0.156 0.78,0.156 0.74,0.157 0.78,0.156 0.75,0.156 0.77,0.203 0.78,0.149 0.75,0.156 0.78,0.156 0.74,0.156 0.78,0.157 0.74,0.195 0.78,0.156 0.75,0.156 0.78,0.157 0.74,0.156 0.78,0.195 0.74,0.156 0.79,0.157 0.74,0.156 0.78,0.156 0.74,0.196 0.78,0.156 0.74,0.156 0.79,0.156 0.74,0.196 0.78,0.156 0.74,0.156 0.78,0.156 0.74,0.196 0.79,0.156 0.74,0.156 0.78,0.156 0.74,0.196 0.78,0.156 0.74,0.156 0.79,0.196 0.74,0.156 0.78,0.156 0.74,0.156 0.78,0.196 0.75,0.156 0.78,0.156 0.74,0.195 0.78,0.157 0.74,0.156 0.78,0.195 0.75,0.156 0.78,0.157 0.74,0.195 0.78,0.156 0.74,0.157 0.78,0.195 0.75,0.156 0.78,0.156 0.74,0.196 0.78,0.156 0.74,0.156 0.78,0.195 0.75,0.157 0.78,0.195 0.74,0.156 0.78,0.157 0.74,0.195 0.78,0.156 0.75,0.195 0.78,0.157 0.74,0.156 0.78,0.195 0.74,0.156 0.78,0.196 0.75,0.156 0.78,0.156 0.74,0.196 0.78,0.156 0.74,0.195 0.78,0.156 0.79,0.196 0.74,0.156 0.78,0.195 0.74,0.157 0.78,0.195 0.75,0.156 0.78,0.195 0.74,0.157 0.78,0.156 0.75,0.195 0.77,0.156 0.75,0.196 0.78,0.156 0.74,0.195 0.78,0.196 0.74,0.156 0.78,0.195 0.75,0.156 0.78,0.196 0.74,0.156 0.78,0.195 0.74,0.157 0.78,0.195 0.75,0.156 0.78,0.195 0.74,0.157 0.78,0.195 0.74,0.195 0.78,0.157 0.75,0.195 0.78,0.156 0.74,0.195 0.78,0.157 0.74,0.195 0.78,0.195 0.75,0.157 0.78,0.195 0.74,0.156 0.78,0.195 0.74,0.196 0.78,0.156 0.75,0.195 0.78,0.196 0.74,0.156 0.78,0.195 0.74,0.156 0.79,0.196 0.74,0.195 0.78,0.156 0.74,0.196 0.78,0.195 0.74,0.156 0.79,0.196 0.74,0.195 0.78,0.156 0.74,0.195 0.78,0.196 0.74,0.195 0.79,0.156 0.74,0.196 0.78,0.195 0.74,0.156 0.78,0.195 0.74,0.196 0.79,0.195 0.74,0.156 0.78,0.196 0.74,0.195 0.78,0.156 0.78,0.196 0.75,0.195 0.78,0.195 0.74,0.156 0.78,0.196 0.74,0.195 0.78,0.195 0.75,0.196 0.78,0.156 0.74,0.195 0.78,0.196 0.74,0.195 0.78,0.156 0.75,0.195 0.78,0.196 0.74,0.195 0.78,0.203 0.74,0.188 0.79,0.156 0.74,0.195 0.78,0.196 0.74,0.195 0.79,0.195 0.73,0.195 0.79,0.157 0.74,0.195 0.78,0.195 0.74,0.196 0.78,0.195 0.74,0.195 0.79,0.196 0.74,0.156 0.78,0.195 0.74,0.195 0.78,0.196 0.74,0.195 0.79,0.195 0.74,0.196 0.78,0.195 0.74,0.195 0.78,0.196 0.75,0.195 0.78,0.156 0.74,0.196 0.78,0.195 0.75,0.195 0.77,0.195 0.75,0.196 0.78,0.195 0.74,0.195 0.78,0.196 0.74,0.195 0.78,0.195 0.75,0.196 0.78,0.195 0.74,0.195 0.78,0.196 0.74,0.195 0.78,0.195 0.75,0.196 0.78,0.195 0.74,0.195 0.78,0.195 0.74,0.196 0.78,0.195 0.75,0.195 0.78,0.196 0.74,0.195 1.56,0.391 0.74,0.195 0.79,0.195 0.74,0.196 0.78,0.195 0.74,0.195 0.78,0.235 0.74,0.195 0.79,0.195 0.74,0.196 0.78,0.195 0.74,0.195 0.78,0.195 0.75,0.196 0.78,0.195 0.74,0.195 0.78,0.235 0.74,0.195 0.78,0.195 0.75,0.196 0.78,0.195 0.74,0.195 0.78,0.196 0.74,0.234 0.78,0.203 0.75,0.188 0.78,0.195 0.74,0.195 0.78,0.196 0.74,0.195 0.78,0.234 0.75,0.196 0.78,0.195 0.74,0.195 0.78,0.196 0.74,0.234 0.78,0.195 0.75,0.196 0.78,0.195 0.74,0.234 0.78,0.196 0.74,0.195 0.78,0.195 0.75,0.195 0.78,0.235 0.74,0.195 0.78,0.195 0.74,0.196 0.78,0.234 0.75,0.195 0.78,0.196 0.74,0.234 0.78,0.195 0.74,0.196 0.79,0.195 0.74,0.234 0.78,0.196 0.74,0.195 0.79,0.234 0.73,0.196 0.79,0.195 0.74,0.234 0.78,0.196 0.74,0.195 0.78,0.234 0.74,0.196 0.79,0.195 0.74,0.234 1.56,0.391 0.74,0.234 0.78,0.196 0.75,0.195 0.78,0.234 0.74,0.196 0.78,0.195 0.74,0.234 0.78,0.196 0.75,0.234 0.78,0.195 0.74,0.196 0.78,0.234 0.74,0.195 0.78,0.235 0.75,0.195 0.78,0.235 0.74,0.195 0.78,0.195 0.74,0.235 0.78,0.195 0.75,0.234 0.78,0.196 0.74,0.234 0.78,0.195 0.74,0.235 0.79,0.195 0.74,0.234 0.78,0.196 0.74,0.234 0.78,0.195 0.74,0.235 0.79,0.195 0.74,0.234 0.78,0.196 0.74,0.234 0.78,0.195 0.74,0.235 0.79,0.195 0.74,0.234 0.78,0.196 0.74,0.234 0.78,0.195 0.74,0.235 0.79,0.195 0.74,0.234 0.78,0.235 0.74,0.195 0.78,0.235 0.75,0.195 0.78,0.234 0.74,0.196 0.78,0.234 0.74,0.234 0.78,0.196 0.75,0.234 0.78,0.195 0.74,0.235 0.78,0.234 0.74,0.195 0.78,0.235 0.75,0.234 0.78,0.184 0.74,0.246 0.78,0.234 0.74,0.195 0.78,0.235 0.75,0.195 0.78,0.235 0.74,0.234 0.78,0.195 0.79,0.235 0.73,0.234 0.79,0.242 0.74,0.188 0.78,0.234 0.74,0.234 0.78,0.196 0.74,0.234 0.79,0.234 0.74,0.196 0.78,0.234 0.74,0.235 0.78,0.234 0.74,0.195 0.79,0.235 0.74,0.234 0.78,0.234 0.74,0.196 0.78,0.234 0.75,0.234 0.78,0.235 0.74,0.195 0.78,0.234 0.75,0.235 0.77,0.234 0.75,0.235 0.78,0.195 0.74,0.234 0.78,0.235 0.74,0.234 0.78,0.234 0.75,0.196 0.78,0.234 0.74,0.234 0.78,0.235 0.74,0.234 0.78,0.235 0.75,0.195 0.78,0.234 0.74,0.235 0.78,0.234 0.74,0.223 0.78,0.246 0.75,0.234 0.78,0.235 0.74,0.195 0.78,0.234 0.74,0.235 0.78,0.234 0.75,0.234 0.78,0.235 0.74,0.234 0.78,0.234 0.74,0.235 0.78,0.234 0.75,0.235 0.78,0.195 0.74,0.234 0.78,0.235 0.74,0.234 0.79,0.234 0.74,0.235 0.78,0.234 0.74,0.235 0.78,0.234 0.74,0.234 0.79,0.235 0.74,0.234 1.56,0.469 0.74,0.234 0.78,0.235 0.75,0.234 0.78,0.234 0.74,0.235 0.78,0.234 0.74,0.234 0.78,0.235 0.75,0.234 0.78,0.235 0.74,0.234 0.78,0.234 0.74,0.235 0.78,0.234 0.75,0.234 0.78,0.235 0.74,0.273 0.78,0.235 0.74,0.234 0.78,0.242 0.75,0.227 0.78,0.234 0.74,0.234 0.78,0.235 0.74,0.234 0.78,0.235 0.75,0.273 0.78,0.234 0.74,0.235 0.78,0.234 0.74,0.235 0.79,0.234 0.74,0.234 0.78,0.235 0.74,0.273 0.79,0.234 0.73,0.235 0.79,0.234 0.74,0.235 0.78,0.234 0.74,0.273 0.78,0.235 0.74,0.234 0.79,0.235 0.74,0.234 0.78,0.273 0.74,0.235 0.78,0.234 0.74,0.234 0.79,0.235 0.74,0.273 0.78,0.235 0.74,0.234 0.78,0.234 0.75,0.274 0.78,0.234 0.74,0.235 0.78,0.234 0.75,0.273 0.77,0.235 0.75,0.234 0.78,0.235 0.74,0.273 0.78,0.234 0.74,0.235 0.78,0.234 0.75,0.274 1.56,0.468 0.74,0.274 0.78,0.234 0.74,0.234 0.79,0.274 0.74,0.234 0.78,0.239 0.74,0.269 0.78,0.227 0.74,0.246 0.79,0.269 0.74,0.239 0.78,0.23 0.74,0.266 0.78,0.246 0.74,0.23 0.79,0.278 0.74,0.23 0.78,0.266 0.74,0.246 0.78,0.23 0.74,0.278 0.79,0.23 0.74,0.266 0.78,0.246 0.74,0.23 0.78,0.278 0.75,0.23 0.78,0.266 0.74,0.246 0.78,0.269 0.74,0.239 0.78,0.23 0.75,0.266 0.78,0.246 0.74,0.269 0.78,0.239 0.74,0.269 0.78,0.227 0.75,0.285 0.78,0.23 0.74,0.27 0.78,0.238 0.74,0.274 0.78,0.238 0.75,0.269 0.78,0.231 0.74,0.277 0.78,0.235 0.74,0.277 0.78,0.23 0.75,0.27 0.78,0.238 0.74,0.274 0.78,0.238 0.74,0.269 0.78,0.231 0.75,0.281 0.78,0.231 0.74,0.265 0.78,0.281 0.74,0.235 0.78,0.277 0.75,0.231 0.78,0.265 0.74,0.285 0.78,0.231 0.74,0.266 0.79,0.242 0.78,0.265 0.74,0.286 0.78,0.23 0.75,0.266 0.77,0.242 0.75,0.273 0.78,0.278 0.74,0.23 0.78,0.266 0.74,0.285 0.78,0.23 0.75,0.27 0.78,0.238 0.74,0.274 0.78,0.277 0.74,0.23 0.78,0.27 0.75,0.281 0.78,0.27 0.74,0.226 0.78,0.281 0.74,0.274 0.78,0.238 0.75,0.27 0.78,0.265 0.74,0.246 0.78,0.27 0.74,0.266 0.78,0.285 0.75,0.23 0.78,0.278 0.74,0.269 0.78,0.227 0.74,0.285 0.78,0.269 0.75,0.27 0.78,0.281 0.74,0.231 0.78,0.265 0.74,0.281 0.79,0.274 0.74,0.238 0.78,0.27 0.74,0.265 0.78,0.286 0.74,0.23 0.79,0.266 0.74,0.285 0.78,0.269 0.74,0.27 0.78,0.277 0.74,0.235 0.79,0.277 0.74,0.269 0.78,0.274 0.74,0.277 0.78,0.231 0.74,0.265 0.79,0.285 0.74,0.27 0.78,0.266 0.74,0.285 0.78,0.269 0.75,0.27 0.78,0.238 0.74,0.274 0.78,0.277 0.74,0.269 1.56,0.551 0.75,0.27 0.78,0.265 0.74,0.286 0.78,0.23 0.74,0.266 0.78,0.285 0.75,0.269 0.78,0.27 0.74,0.277 0.78,0.274 0.74,0.265 0.79,0.281 0.74,0.274 0.78,0.266 0.74,0.281 0.79,0.273 0.73,0.278 0.79,0.269 0.74,0.274 0.78,0.238 0.74,0.269 0.78,0.27 0.74,0.281 0.79,0.27 0.74,0.265 0.78,0.285 0.74,0.27 0.78,0.266 0.74,0.285 0.79,0.269 0.74,0.27 0.78,0.277 0.74,0.274 0.78,0.304 0.75,0.285 0.78,0.27 0.74,0.266 0.78,0.285 0.75,0.269 0.77,0.27 0.75,0.277 0.78,0.274 0.74,0.265 0.78,0.281 0.74,0.274 0.78,0.277 0.75,0.27 0.78,0.273 0.74,0.278 0.78,0.269 0.74,0.313 0.78,0.265 0.75,0.281 0.78,0.274 0.74,0.277 0.78,0.27 0.74,0.273 0.78,0.278 0.75,0.269 0.78,0.313 0.74,0.265 0.78,0.281 0.74,0.274 0.78,0.277 0.75,0.27 0.78,0.273 0.74,0.309 0.78,0.277 0.74,0.274 1.57,0.546 0.74,0.274 0.78,0.305 0.74,0.285 0.78,0.269 0.75,0.27 0.78,0.277 0.74,0.274 0.78,0.304 0.74,0.285 0.78,0.27 0.75,0.266 0.78,0.324 0.74,0.269 0.78,0.27 0.74,0.281 0.78,0.27 0.75,0.304 0.78,0.286 0.74,0.269 0.78,0.266 0.74,0.324 0.78,0.269 0.75,0.274 0.78,0.277 0.74,0.309 0.78,0.273 0.74,0.278 0.78,0.269 0.75,0.313 0.78,0.265 0.74,0.281 0.78,0.313 0.74,0.266 0.78,0.285 0.75,0.269 0.78,0.309 0.74,0.281 0.78,0.27 0.74,0.304 0.78,0.286 0.75,0.269 0.78,0.313 0.74,0.277 0.78,0.269 0.74,0.313 0.79,0.277 0.74,0.27 0.78,0.312 0.74,0.27 0.79,0.277 0.73,0.313 0.79,0.265 0.74,0.285 0.78,0.309 0.74,0.266 0.78,0.285 0.74,0.308 0.79,0.274 0.74,0.277 0.78,0.309 0.74,0.273 0.78,0.309 0.74,0.277 0.79,0.274 0.74,0.304 0.78,0.285 0.74,0.309 1.56,0.551 0.75,0.308 0.78,0.274 0.74,0.316 0.78,0.27 0.74,0.312 0.78,0.27 0.75,0.277 0.78,0.313 0.74,0.265 0.78,0.325 0.74,0.269 0.78,0.313 0.75,0.277 0.78,0.269 0.74,0.313 0.78,0.266 0.74,0.324 0.79,0.269 0.74,0.309 0.78,0.281 0.74,0.309 0.78,0.265 0.74,0.325 0.79,0.269 0.74,0.313 0.78,0.265 0.74,0.324 0.78,0.27 0.74,0.305 0.79,0.285 0.74,0.308 0.78,0.274 0.74,0.305 0.78,0.281 0.74,0.312 0.79,0.27 0.74,0.32 0.78,0.27 0.74,0.304 0.78,0.286 0.75,0.308 0.78,0.274 0.74,0.304 0.78,0.324 0.74,0.27 0.78,0.305 0.75,0.285 0.78,0.308 0.74,0.274 0.78,0.305 0.74,0.281 0.78,0.312 0.75,0.309 0.78,0.281 0.74,0.309 0.78,0.265 0.74,0.325 0.78,0.269 0.75,0.313 0.78,0.304 0.74,0.285 0.78,0.309 0.74,0.266 0.78,0.324 0.75,0.308 0.78,0.274 0.74,0.305 0.78,0.285 0.78,0.308 0.74,0.313 0.79,0.277 0.74,0.309 0.78,0.312 0.74,0.27 0.78,0.32 0.74,0.27 0.79,0.304 0.74,0.325 0.78,0.269 0.74,0.313 0.78,0.304 0.75,0.285 0.78,0.309 0.74,0.313 0.78,0.277 0.75,0.308 0.77,0.313 0.75,0.266 0.78,0.324 0.74,0.308 0.78,0.274 0.74,0.305 0.78,0.324 0.75,0.269 0.78,0.309 0.74,0.32 0.78,0.27 0.74,0.312 0.78,0.309 0.75,0.32 0.78,0.27 0.74,0.304 0.78,0.325 0.74,0.269 0.78,0.313 0.75,0.304 0.78,0.285 0.74,0.309 0.78,0.313 0.74,0.304 0.78,0.281 0.75,0.313 0.78,0.305 0.74,0.324 0.78,0.269 0.74,0.313 0.78,0.305 0.75,0.324 0.78,0.269 0.74,0.313 0.78,0.316 0.74,0.313 0.79,0.269 0.74,0.309 0.78,0.32 0.74,0.309 0.78,0.273 0.74,0.309 0.79,0.32 0.74,0.309 0.78,0.265 0.74,0.325 0.78,0.308 0.74,0.313 0.79,0.265 0.74,0.325 1.56,0.621 0.74,0.304 0.78,0.285 0.75,0.309 0.78,0.313 0.74,0.304 0.78,0.324 0.74,0.27 0.78,0.305 0.75,0.324 0.78,0.308 0.74,0.313 0.78,0.266 0.74,0.324 0.78,0.308 0.75,0.313 0.78,0.305 0.74,0.324 0.78,0.269 0.74,0.313 0.78,0.305 0.75,0.324 0.78,0.308 0.74,0.27 0.78,0.32 0.74,0.309 0.79,0.312 0.74,0.309 0.78,0.32 0.74,0.309 0.79,0.273 0.73,0.309 0.79,0.32 0.74,0.309 0.78,0.312 0.74,0.309 0.78,0.277 0.74,0.313 0.79,0.304 0.74,0.325 0.78,0.308 0.74,0.313 0.78,0.304 0.74,0.325 0.79,0.269 0.74,0.313 0.78,0.304 0.74,0.325 0.78,0.308 0.75,0.313 0.78,0.304 0.74,0.325 0.78,0.269 0.75,0.313 0.77,0.304 0.75,0.324 0.78,0.309 0.74,0.313 0.78,0.304 0.74,0.324 0.78,0.309"
         style="fill:none;stroke:#563e30;stroke-width:10;stroke-linecap:butt;stroke-linejoin:round;stroke-miterlimit:3.25;stroke-dasharray:none;stroke-opacity:1"
         transform="matrix(0.13333333,0,0,-0.13333333,0,169.72)" />
      <path
         id="path7"
         d="m 199.996,1187.24 0.781,-0.15 0.75,-0.16 0.778,-0.19 0.742,-0.16 0.781,-0.16 0.738,-0.15 0.782,-0.16 0.75,-0.16 0.777,-0.19 0.742,-0.16 0.781,-0.15 0.739,-0.16 0.781,-0.19 0.75,-0.16 0.777,-0.16 0.743,-0.15 0.781,-0.2 0.738,-0.15 0.789,-0.16 0.742,-0.2 0.778,-0.15 0.742,-0.2 0.781,-0.15 0.738,-0.2 0.789,-0.16 0.739,-0.19 0.781,-0.16 0.742,-0.19 0.781,-0.16 0.739,-0.19 0.789,-0.16 0.781,-0.2 0.738,-0.19 0.782,-0.16 0.738,-0.19 0.781,-0.16 0.75,-0.19 0.781,-0.2 0.739,-0.2 0.781,-0.15 0.738,-0.2 0.781,-0.19 0.75,-0.2 0.778,-0.15 0.742,-0.2 0.781,-0.19 0.738,-0.2 0.782,-0.19 0.75,-0.2 0.777,-0.2 0.742,-0.19 0.781,-0.2 0.739,-0.19 0.789,-0.2 0.742,-0.19 0.777,-0.2 0.743,-0.19 0.781,-0.2 0.738,-0.19 0.789,-0.2 0.742,-0.19 0.778,-0.2 0.742,-0.23 0.781,-0.2 0.738,-0.19 0.789,-0.2 0.739,-0.23 0.781,-0.2 0.742,-0.19 0.781,-0.24 0.739,-0.19 0.789,-0.2 0.738,-0.23 0.781,-0.2 0.742,-0.19 0.778,-0.24 0.75,-0.19 0.781,-0.24 0.738,-0.19 0.782,-0.24 0.742,-0.23 0.777,-0.2 0.75,-0.23 0.781,-0.2 0.739,-0.23 0.781,-0.24 0.742,-0.19 0.777,-0.24 0.75,-0.23 0.782,-0.23 0.738,-0.2 0.781,-0.23 0.742,-0.24 0.778,-0.23 0.75,-0.24 0.781,-0.23 0.738,-0.2 0.782,-0.23 0.738,-0.24 1.57,-0.46 0.742,-0.24 0.778,-0.23 0.742,-0.24 0.781,-0.27 0.738,-0.24 0.789,-0.23 0.739,-0.23 0.781,-0.24 0.742,-0.23 0.781,-0.28 0.739,-0.23 0.789,-0.24 0.738,-0.23 0.781,-0.27 0.742,-0.24 0.778,-0.27 0.742,-0.24 0.789,-0.23 0.738,-0.27 0.782,-0.24 0.742,-0.27 0.777,-0.24 0.75,-0.27 0.781,-0.23 0.739,-0.28 0.781,-0.27 0.742,-0.23 0.777,-0.28 0.75,-0.27 0.782,-0.24 0.738,-0.27 0.781,-0.27 0.742,-0.28 0.778,-0.27 0.75,-0.27 0.781,-0.24 0.738,-0.27 0.782,-0.27 0.738,-0.28 0.781,-0.27 0.75,-0.27 0.781,-0.28 0.739,-0.27 0.781,-0.27 0.738,-0.32 0.781,-0.27 0.75,-0.27 0.778,-0.28 0.742,-0.27 0.781,-0.31 0.738,-0.28 0.782,-0.27 0.75,-0.31 0.777,-0.28 0.742,-0.27 0.781,-0.31 0.739,-0.28 0.789,-0.31 0.742,-0.27 0.777,-0.31 0.743,-0.28 0.781,-0.31 0.738,-0.27 0.789,-0.32 0.742,-0.31 0.778,-0.27 0.742,-0.31 1.558,-0.63 0.75,-0.31 0.782,-0.28 0.738,-0.31 0.781,-0.31 0.742,-0.31 0.778,-0.32 0.75,-0.31 0.781,-0.31 0.738,-0.31 0.782,-0.32 0.738,-0.31 0.781,-0.31 0.75,-0.35 0.781,-0.31 0.739,-0.32 0.781,-0.31 0.738,-0.35 0.781,-0.31 0.75,-0.32 0.778,-0.35 0.742,-0.31 0.781,-0.35 0.738,-0.31 0.782,-0.36 0.75,-0.31 0.777,-0.35 0.742,-0.31 0.781,-0.35 0.739,-0.36 0.781,-0.31 0.75,-0.35 0.777,-0.35 0.743,-0.31 0.781,-0.36 0.738,-0.35 0.789,-0.35 0.742,-0.35 0.778,-0.35 0.742,-0.35 0.781,-0.35 0.738,-0.36 0.789,-0.35 0.739,-0.35 0.781,-0.35 0.742,-0.35 0.781,-0.39 0.739,-0.35 0.789,-0.36 0.738,-0.35 0.781,-0.39 0.742,-0.35 0.778,-0.35 0.742,-0.39 0.789,-0.35 0.738,-0.39 0.782,-0.36 0.742,-0.39 0.777,-0.35 0.75,-0.39 0.781,-0.39 0.739,-0.35 0.781,-0.39 0.742,-0.39 0.777,-0.39 0.75,-0.39 0.782,-0.35 0.738,-0.4 0.781,-0.39 0.742,-0.39 1.567,-0.78 0.742,-0.39 0.777,-0.39 0.743,-0.43 0.781,-0.39 0.738,-0.39 0.789,-0.39 0.742,-0.39 0.778,-0.43 0.742,-0.39 0.781,-0.43 0.738,-0.39 0.789,-0.39 0.739,-0.43 0.781,-0.39 0.742,-0.43 0.781,-0.43 0.739,-0.39 0.789,-0.43 0.738,-0.43 0.781,-0.39 0.742,-0.43 0.778,-0.43 0.75,-0.43 0.781,-0.43 0.738,-0.39 0.782,-0.43 0.742,-0.43 0.777,-0.43 0.75,-0.43 0.781,-0.47 0.739,-0.43 0.781,-0.43 0.742,-0.43 0.777,-0.43 0.75,-0.43 0.782,-0.47 0.738,-0.43 0.781,-0.47 0.742,-0.43 0.778,-0.42 0.75,-0.47 0.781,-0.43 0.738,-0.47 0.782,-0.47 0.738,-0.43 0.781,-0.47 0.75,-0.47 0.781,-0.43 0.739,-0.47 0.781,-0.47 0.738,-0.46 0.781,-0.47 0.75,-0.47 0.778,-0.43 0.742,-0.47 0.781,-0.51 0.738,-0.47 0.782,-0.46 0.75,-0.47 0.777,-0.47 0.742,-0.47 0.781,-0.47 0.739,-0.51 0.781,-0.47 0.75,-0.47 0.777,-0.5 0.743,-0.47 0.781,-0.51 0.777,-0.47 0.75,-0.51 0.781,-0.47 0.739,-0.5 0.781,-0.51 0.742,-0.47 0.777,-0.51 0.75,-0.51 0.782,-0.5 0.738,-0.51 0.781,-0.47 0.742,-0.51 0.778,-0.51 0.75,-0.5 0.781,-0.51 0.738,-0.51 0.782,-0.55 0.738,-0.5 0.781,-0.51 0.75,-0.51 0.781,-0.51 0.739,-0.54 0.781,-0.51 0.738,-0.51 0.781,-0.55 0.75,-0.5 0.778,-0.55 0.742,-0.51 0.781,-0.55 0.738,-0.5 0.782,-0.55 0.75,-0.55 0.777,-0.5 0.742,-0.55 0.781,-0.55 0.739,-0.55 0.789,-0.5 0.742,-0.55 0.777,-0.55 0.743,-0.54 0.781,-0.55 0.738,-0.55 0.789,-0.54 0.742,-0.55 0.778,-0.59 0.742,-0.54 0.781,-0.55 0.738,-0.55 0.789,-0.54 0.739,-0.59 0.781,-0.55 0.742,-0.58 0.781,-0.55 0.739,-0.55 0.789,-0.58 0.738,-0.55 0.781,-0.59 0.742,-0.58 0.778,-0.55 0.75,-0.58 0.781,-0.59 0.738,-0.55 0.782,-0.58 0.742,-0.59 0.777,-0.59 0.75,-0.58 0.781,-0.59 0.739,-0.58 1.562,-1.17 0.738,-0.59 0.782,-0.59 0.75,-0.58 0.777,-0.59 0.742,-0.58 0.781,-0.63 0.739,-0.59 0.781,-0.58 0.75,-0.59 0.777,-0.62 0.743,-0.59 0.781,-0.62 0.738,-0.59 0.789,-0.62 0.742,-0.59 0.778,-0.63 0.742,-0.58 0.781,-0.63 0.738,-0.62 0.789,-0.59 0.739,-0.62 0.781,-0.63 0.742,-0.62 0.781,-0.63 0.739,-0.58 0.789,-0.63 0.738,-0.62 0.781,-0.63 0.742,-0.62 0.778,-0.63 0.742,-0.62 0.789,-0.63 0.738,-0.62 0.782,-0.67 0.742,-0.62 0.781,-0.63 0.742,-0.62 0.781,-0.67 0.743,-0.62 0.781,-0.63 0.742,-0.66 0.781,-0.63 0.743,-0.62 0.781,-0.66 0.742,-0.63 0.781,-0.66 0.742,-0.63 0.782,-0.66 0.742,-0.63 0.781,-0.66 0.742,-0.67 0.782,-0.62 0.742,-0.66 0.781,-0.67 0.742,-0.66 0.781,-0.63 0.743,-0.66 0.781,-0.67 0.742,-0.66 0.781,-0.66 0.742,-0.67 0.782,-0.66 0.742,-0.67 0.781,-0.66 0.742,-0.66 0.782,-0.67 0.742,-0.66 1.562,-1.33 0.742,-0.66 0.782,-0.71 0.742,-0.66 0.781,-0.67 0.742,-0.66 0.782,-0.7 0.742,-0.67 0.781,-0.66 0.742,-0.7 0.781,-0.67 0.743,-0.66 0.781,-0.71 0.742,-0.66 0.781,-0.7 0.743,-0.67 0.781,-0.7 0.742,-0.66 0.781,-0.71 0.742,-0.7 0.782,-0.658 0.742,-0.707 0.781,-0.664 0.742,-0.699 0.782,-0.707 0.742,-0.665 0.781,-0.71 0.742,-0.696 0.781,-0.703 0.743,-0.699 0.781,-0.668 0.742,-0.703 0.781,-0.699 0.742,-0.707 0.782,-0.704 0.742,-0.699 0.781,-0.715 0.742,-0.656 0.782,-0.699 0.742,-0.707 0.781,-0.703 0.742,-0.699 0.781,-0.715 0.743,-0.696 0.781,-0.699 0.742,-0.754 0.781,-0.695 0.743,-0.703 0.781,-0.699 0.742,-0.707 0.781,-0.704 0.742,-0.699 0.782,-0.715 0.742,-0.734 0.781,-0.699 0.742,-0.711 0.782,-0.699 0.742,-0.704 0.781,-0.738 0.742,-0.715 0.781,-0.695 0.743,-0.699 0.781,-0.75 0.742,-0.699 0.781,-0.704 0.742,-0.738 0.782,-0.715 0.742,-0.695 0.781,-0.738 0.781,-0.711 0.743,-0.699 0.781,-0.743 0.742,-0.699 0.781,-0.715 0.742,-0.734 0.782,-0.699 0.742,-0.742 0.781,-0.707 0.742,-0.743 0.782,-0.699 0.742,-0.715 0.781,-0.734 0.742,-0.703 0.781,-0.738 0.743,-0.715 0.781,-0.735 0.742,-0.703 0.781,-0.738 0.743,-0.707 0.781,-0.703 0.742,-0.739 0.781,-0.714 0.742,-0.735 0.782,-0.703 0.742,-0.738 0.781,-0.711 0.742,-0.738 0.782,-0.704 0.742,-0.738 0.781,-0.715 0.742,-0.734 0.781,-0.699 0.743,-0.742 0.781,-0.707 0.742,-0.743 0.781,-0.699 0.742,-0.754 0.782,-0.695 0.742,-0.742 0.781,-0.699 0.742,-0.754 0.782,-0.696 0.742,-0.742 0.781,-0.699 0.742,-0.75 0.781,-0.699 0.743,-0.743 0.781,-0.71 0.742,-0.743 0.781,-0.695 0.743,-0.699 0.781,-0.75 0.742,-0.699 0.781,-0.743 0.742,-0.699 0.782,-0.754 0.742,-0.695 0.781,-0.699 0.742,-0.742 0.782,-0.707 0.742,-0.743 0.781,-0.699 0.742,-0.715 0.781,-0.734 0.743,-0.703 0.781,-0.699 0.742,-0.754 0.781,-0.696 0.742,-0.699 0.782,-0.715 0.781,-0.734 0.742,-0.703 0.781,-0.699 0.743,-0.707 0.781,-0.743 0.742,-0.699 0.781,-0.715 0.742,-0.695 0.782,-0.699 0.742,-0.742 0.781,-0.707 0.742,-0.704 0.782,-0.699 0.742,-0.715 0.781,-0.695 0.742,-0.699 0.781,-0.711 0.743,-0.699 0.781,-0.7 0.742,-0.714 0.781,-0.696 0.743,-0.703 0.781,-0.711 0.742,-0.695 0.781,-0.703 0.742,-0.699 0.782,-0.707 0.742,-0.704 0.781,-0.699 0.742,-0.715 0.782,-0.656 0.742,-0.699 0.781,-0.707 0.742,-0.703 0.781,-0.66 0.743,-0.707 0.781,-0.704 0.742,-0.671 0.781,-0.696 0.742,-0.703 0.782,-0.672 0.742,-0.695 0.781,-0.703 0.742,-0.668 0.782,-0.699 0.742,-0.661 0.781,-0.714 0.742,-0.657 0.781,-0.66 0.743,-0.715 0.781,-0.656 0.742,-0.672 0.781,-0.695 0.743,-0.66 0.781,-0.672 0.742,-0.699 0.781,-0.66 0.742,-0.668 0.782,-0.665 0.742,-0.671 0.781,-0.657 0.742,-0.66 0.782,-0.715 0.742,-0.656 0.781,-0.672 0.742,-0.656 0.781,-0.621 0.743,-0.668 1.562,-1.332 0.742,-0.66 0.782,-0.66 0.742,-0.668 0.781,-0.621 0.742,-0.668 0.781,-0.665 0.743,-0.632 0.781,-0.657 0.742,-0.632 0.781,-0.657 0.742,-0.66 0.782,-0.629 0.742,-0.621 0.781,-0.668 0.742,-0.621 0.782,-0.676 0.742,-0.617 0.781,-0.633 0.742,-0.656 0.781,-0.633 0.743,-0.617 0.781,-0.633 0.742,-0.617 0.781,-0.633 0.743,-0.617 0.781,-0.633 0.742,-0.617 0.781,-0.633 0.742,-0.617 0.782,-0.633 0.742,-0.617 0.781,-0.633 0.742,-0.617 0.782,-0.594 0.742,-0.617 0.781,-0.633 0.742,-0.574 0.781,-0.629 0.743,-0.621 0.781,-0.59 0.742,-0.621 0.781,-0.59 0.742,-0.593 0.782,-0.618 0.742,-0.593 0.781,-0.575 0.742,-0.628 0.782,-0.582 0.742,-0.59 0.781,-0.59 0.742,-0.582 0.781,-0.586 0.743,-0.582 0.781,-0.59 0.742,-0.594 0.781,-0.578 0.743,-0.594 0.781,-0.574 0.742,-0.59 0.781,-0.554 0.742,-0.579 0.782,-0.585 0.742,-0.543 0.781,-0.59 0.742,-0.59 0.782,-0.539 0.742,-0.551 0.781,-0.594 0.781,-0.535 0.742,-0.59 0.782,-0.554 0.742,-0.536 0.781,-0.55 0.742,-0.551 0.782,-0.578 0.742,-0.551 0.781,-0.555 0.742,-0.535 0.781,-0.551 0.743,-0.554 0.781,-0.496 0.742,-0.551 0.781,-0.547 0.742,-0.555 0.782,-0.496 0.742,-0.551 0.781,-0.554 0.742,-0.496 0.782,-0.551 0.742,-0.508 0.781,-0.555 0.742,-0.496 0.781,-0.512 0.743,-0.507 0.781,-0.551 0.742,-0.5 0.781,-0.512 0.743,-0.508 0.781,-0.507 0.742,-0.512 0.781,-0.5 0.742,-0.512 0.782,-0.508 0.742,-0.515 0.781,-0.496 0.742,-0.469 0.782,-0.512 0.742,-0.508 0.781,-0.468 0.742,-0.512 0.781,-0.461 0.743,-0.512 0.781,-0.469 0.742,-0.468 0.781,-0.508 0.742,-0.477 0.782,-0.457 0.742,-0.468 0.781,-0.512 0.742,-0.469 0.782,-0.469 0.742,-0.468 0.781,-0.473 0.742,-0.434 0.781,-0.468 0.743,-0.457 0.781,-0.469 0.742,-0.473 0.781,-0.43 0.743,-0.468 0.781,-0.43 0.742,-0.469 0.781,-0.429 0.742,-0.473 0.782,-0.434 0.742,-0.429 0.781,-0.457 0.781,-0.43 0.743,-0.43 0.781,-0.429 0.742,-0.43 0.781,-0.43 0.742,-0.43 0.782,-0.429 0.742,-0.434 0.781,-0.43 0.742,-0.386 0.782,-0.434 0.742,-0.43 0.781,-0.386 0.742,-0.434 0.781,-0.387 0.743,-0.429 0.781,-0.391 0.742,-0.43 0.781,-0.39 0.742,-0.391 0.782,-0.39 0.742,-0.43 0.781,-0.402 0.742,-0.387 0.782,-0.395 0.742,-0.39 0.781,-0.383 0.742,-0.352 0.781,-0.39 0.743,-0.391 0.781,-0.391 0.742,-0.347 0.781,-0.391 0.743,-0.39 0.781,-0.364 0.742,-0.39 0.781,-0.344 0.742,-0.352 0.782,-0.39 0.742,-0.352 0.781,-0.348 0.742,-0.351 0.782,-0.363 0.742,-0.344 0.781,-0.352 0.742,-0.351 0.781,-0.352 0.743,-0.347 0.781,-0.364 0.742,-0.304 0.781,-0.352 0.742,-0.352 0.782,-0.308 0.742,-0.352 0.781,-0.316 0.742,-0.352 0.782,-0.312 0.742,-0.309 0.781,-0.359 0.742,-0.309 0.781,-0.312 0.743,-0.309 0.781,-0.32 0.742,-0.309 0.781,-0.312 0.743,-0.309 0.781,-0.32 0.742,-0.309 0.781,-0.312 0.742,-0.27 1.563,-0.629 0.742,-0.269 0.781,-0.324 0.743,-0.266 0.781,-0.274 0.742,-0.308 0.781,-0.277 0.742,-0.274 0.782,-0.269 0.742,-0.325 0.781,-0.265 0.742,-0.27 0.782,-0.277 0.742,-0.274 0.781,-0.242 0.742,-0.265 0.781,-0.274 0.743,-0.277 0.781,-0.231 0.742,-0.269 0.781,-0.285 0.742,-0.227 0.782,-0.238 0.742,-0.27 0.781,-0.23 0.742,-0.238 0.782,-0.274 0.742,-0.238 0.781,-0.231 0.742,-0.23 0.781,-0.238 0.743,-0.231 0.781,-0.238 0.742,-0.235 0.781,-0.242 0.743,-0.226 0.781,-0.203 0.742,-0.227 0.781,-0.199 0.742,-0.231 0.782,-0.23 0.742,-0.199 0.781,-0.203 0.742,-0.227 0.782,-0.191 0.742,-0.2 0.781,-0.203 0.742,-0.226 0.781,-0.192 0.743,-0.199 0.781,-0.199 0.742,-0.192 0.781,-0.164 0.742,-0.183 0.782,-0.199 0.742,-0.192 0.781,-0.16 0.742,-0.191 0.782,-0.2 0.742,-0.164 0.781,-0.144 0.742,-0.199 0.781,-0.153 0.743,-0.16 0.793,-0.199 0.73,-0.153 0.781,-0.156 0.743,-0.152 1.562,-0.324 0.742,-0.145 0.781,-0.16 0.743,-0.16 0.781,-0.11 0.742,-0.16 0.781,-0.164 0.743,-0.105 0.781,-0.16 0.742,-0.125 0.781,-0.149 0.742,-0.117 0.782,-0.16 0.742,-0.11 0.781,-0.121 0.742,-0.125 0.782,-0.105 0.742,-0.16 0.781,-0.117 0.742,-0.086 0.781,-0.106 0.743,-0.121 0.781,-0.117 0.742,-0.113 0.781,-0.122 0.742,-0.078 0.782,-0.125 0.742,-0.078 0.781,-0.105 0.742,-0.082 0.782,-0.117 0.742,-0.086 0.781,-0.067 0.742,-0.082 0.781,-0.117 0.743,-0.078 0.781,-0.082 0.742,-0.07 0.781,-0.083 0.743,-0.078 0.781,-0.078 0.742,-0.047 0.781,-0.078 0.742,-0.066 0.782,-0.039 0.742,-0.082 0.781,-0.078 0.742,-0.039 0.782,-0.086 0.742,-0.039 0.781,-0.028 0.742,-0.039 0.781,-0.082 0.743,-0.039 0.781,-0.039 0.742,-0.039 0.781,-0.039 0.742,-0.043 0.782,-0.039 0.742,-0.031 0.781,-0.039 h 0.742 l 0.782,-0.04 0.742,-0.043 h 0.781 l 0.742,-0.039 h 0.781 l 0.743,-0.039 h 1.562 l 0.742,-0.039 h 6.875 l 0.743,0.039 h 1.523 l 0.781,0.039 h 0.742 l 0.782,0.039 h 0.742 l 0.781,0.043 0.742,0.04 h 0.782 l 0.742,0.039 0.781,0.031 0.742,0.039 0.781,0.043 0.743,0.039 0.781,0.039 0.742,0.039 0.781,0.039 0.742,0.039 0.782,0.082 0.754,0.028 0.769,0.039 0.742,0.086 0.782,0.039 0.742,0.078 0.781,0.039 0.742,0.082 0.781,0.066 0.743,0.039 0.781,0.086 0.742,0.078 0.781,0.078 0.743,0.083 0.781,0.07 0.742,0.082 0.784,0.078 0.74,0.078 0.78,0.082 0.74,0.106 0.78,0.086 0.75,0.078 0.78,0.121 0.74,0.078 0.78,0.105 0.74,0.086 0.78,0.117 0.75,0.122 0.78,0.113 0.74,0.078 0.78,0.117 0.74,0.11 0.78,0.125 0.75,0.117 0.78,0.121 0.74,0.105 0.78,0.125 0.74,0.16 1.57,0.231 0.74,0.156 0.78,0.121 0.74,0.153 0.78,0.117 0.75,0.148 0.78,0.125 0.74,0.156 0.78,0.153 0.74,0.16 0.78,0.117 0.75,0.149 0.78,0.164 0.74,0.16 0.78,0.144 0.74,0.203 0.78,0.153 0.75,0.16 0.78,0.16 0.74,0.192 0.78,0.156 0.74,0.148 0.78,0.203 0.75,0.161 0.78,0.191 0.74,0.199 0.78,0.145 0.74,0.203 0.78,0.187 0.75,0.203 0.78,0.192 0.74,0.199 0.78,0.199 0.74,0.192 0.78,0.199 0.75,0.191 0.78,0.2 0.74,0.23 0.78,0.199 0.74,0.192 0.79,0.238 0.74,0.191 0.78,0.239 0.74,0.191 0.79,0.238 0.73,0.231 0.79,0.226 0.74,0.203 0.78,0.231 0.74,0.238 0.78,0.235 0.74,0.238 0.79,0.23 0.74,0.239 0.78,0.23 0.74,0.266 0.78,0.246 0.74,0.23 0.79,0.278 0.74,0.23 0.78,0.266 0.74,0.246 0.78,0.269 0.75,0.239 0.78,0.269 0.74,0.274 0.78,0.277 0.75,0.269 0.77,0.231 0.78,0.281 0.75,0.27 0.78,0.304 0.74,0.286 0.78,0.269 0.74,0.266 0.78,0.285 0.75,0.308 0.78,0.274 0.74,0.277 0.78,0.309 0.74,0.273 0.79,0.309 0.74,0.32 0.78,0.27 0.74,0.304 0.78,0.325 0.74,0.308 0.79,0.313 0.74,0.304 0.78,0.325 0.74,0.308 0.78,0.313 0.74,0.304 0.79,0.325 0.74,0.308 0.78,0.352 0.74,0.312 0.78,0.348 0.74,0.32 0.79,0.352 0.74,0.308 0.78,0.352 0.74,0.305 0.78,0.363 0.75,0.351 0.78,0.348 0.74,0.352 0.78,0.351 0.74,0.348 0.78,0.348 0.75,0.363 0.78,0.347 0.74,0.352 0.78,0.352 0.74,0.39 0.78,0.348 0.75,0.348 0.78,0.402 0.74,0.351 0.78,0.387 0.74,0.352 0.78,0.39 0.75,0.391 0.78,0.352 0.74,0.382 0.78,0.395 0.74,0.387 0.78,0.39 0.75,0.403 0.78,0.39 0.74,0.391 0.78,0.39 0.74,0.387 0.78,0.434 0.75,0.386 0.78,0.391 0.74,0.43 0.78,0.39 0.74,0.43 0.78,0.391 0.79,0.429 0.74,0.43 0.78,0.391 0.74,0.429 0.78,0.43 0.75,0.43 0.78,0.429 0.74,0.43 0.78,0.434 0.75,0.429 0.77,0.43 0.75,0.43 0.78,0.43 0.74,0.429 0.78,0.457 0.74,0.434 0.78,0.426 0.75,0.468 0.78,0.438 0.74,0.469 0.78,0.429 0.74,0.469 0.78,0.469 0.75,0.429 0.78,0.473 0.74,0.469 0.78,0.461 0.74,0.465 0.78,0.476 0.75,0.469 0.78,0.469 0.74,0.468 0.78,0.473 0.74,0.469 0.78,0.5 0.75,0.473 0.78,0.468 0.74,0.508 0.78,0.473 0.74,0.508 0.78,0.457 0.75,0.515 0.78,0.469 0.74,0.508 0.78,0.512 0.74,0.496 0.79,0.468 0.74,0.516 0.78,0.508 0.74,0.512 0.78,0.496 0.74,0.515 0.79,0.508 0.74,0.512 0.78,0.539 0.74,0.512 0.78,0.507 0.74,0.508 0.79,0.539 0.74,0.516 0.78,0.547 0.74,0.511 0.78,0.536 0.74,0.515 0.79,0.547 0.74,0.551 0.78,0.5 0.74,0.551 1.56,1.086 0.75,0.554 0.78,0.547 0.74,0.539 0.78,0.555 0.74,0.547 0.78,0.551 0.75,0.543 0.78,0.546 0.74,0.551 0.78,0.582 0.74,0.547 0.78,0.551 0.75,0.582 0.78,0.547 0.74,0.582 0.78,0.551 0.74,0.589 0.79,0.536 0.74,0.593 0.78,0.59 0.74,0.535 0.79,0.594 0.73,0.578 0.79,0.594 0.74,0.59 0.78,0.582 0.74,0.586 0.78,0.582 0.74,0.59 0.79,0.59 0.74,0.582 0.78,0.585 0.74,0.579 0.78,0.632 0.74,0.579 0.79,0.593 0.74,0.629 0.78,0.582 0.74,0.586 0.78,0.617 0.75,0.594 0.78,0.617 0.74,0.633 0.78,0.578 0.75,0.633 0.77,0.617 0.75,0.594 0.78,0.629 0.74,0.621 0.78,0.629 0.74,0.621 0.78,0.629 0.75,0.621 0.78,0.629 0.74,0.621 0.78,0.629 0.74,0.621 0.78,0.629 0.75,0.621 0.78,0.629 0.74,0.621 0.78,0.656 0.74,0.633 0.78,0.617 0.75,0.672 0.78,0.617 0.74,0.633 0.78,0.656 0.78,0.633 0.74,0.664 0.79,0.629 0.74,0.66 0.78,0.668 0.74,0.621 0.78,0.657 0.74,0.671 0.79,0.618 0.74,0.675 0.78,0.661 0.74,0.668 0.78,0.66 0.75,0.621 0.78,0.668 0.74,0.664 0.78,0.668 0.74,0.66 0.78,0.656 0.75,0.672 0.78,0.656 0.74,0.715 0.78,0.66 0.74,0.657 0.78,0.671 0.75,0.665 0.78,0.668 0.74,0.699 0.78,0.66 0.74,0.672 0.78,0.699 0.75,0.656 0.78,0.672 0.74,0.703 0.78,0.668 0.74,0.699 0.78,0.657 0.75,0.715 0.78,0.66 0.74,0.699 0.78,0.672 0.74,0.699 0.78,0.695 0.75,0.672 0.78,0.703 0.74,0.696 0.78,0.671 0.74,0.704 0.78,0.699 0.75,0.711 0.78,0.66 0.74,0.695 0.78,0.711 0.74,0.703 0.79,0.696 0.74,0.714 0.78,0.661 0.74,0.699 0.79,0.711 0.73,0.699 0.79,0.695 0.74,0.715 0.78,0.699 0.74,0.696 0.78,0.715 0.74,0.699 0.79,0.703 0.74,0.734 1.56,1.414 0.74,0.696 0.78,0.714 0.75,0.7 0.78,0.699 0.74,0.75 0.78,0.699 0.74,0.703 0.78,0.707 0.75,0.699 0.78,0.743 0.74,0.699 0.78,0.711 0.74,0.738 0.78,0.703 0.75,0.707 0.78,0.699 0.74,0.743 0.78,0.699 0.74,0.711 0.78,0.738 0.75,0.703 0.78,0.735 0.74,0.714 0.78,0.7 0.74,0.742 0.79,0.707 0.74,0.738 0.78,0.703 0.74,0.696 0.78,0.754 0.74,0.699 0.79,0.742 0.74,0.695 0.78,0.754 0.74,0.699 0.78,0.696 0.74,0.754 0.79,0.699 0.74,0.742 0.78,0.695 0.74,0.754 0.78,0.699 0.74,0.743 0.79,0.699 0.74,0.75 0.78,0.699 0.74,0.742 0.78,0.696 0.75,0.753 0.78,0.7 0.74,0.742 0.78,0.707 0.74,0.738 0.78,0.703 0.75,0.735 0.78,0.715 0.74,0.738 0.78,0.703 0.74,0.734 0.78,0.715 0.75,0.738 0.78,0.704 0.74,0.738 0.78,0.711 0.74,0.738 0.78,0.695 0.75,0.715 0.78,0.738 0.74,0.704 0.78,0.738 0.79,0.711 0.73,0.738 0.79,0.703 0.74,0.735 0.78,0.714 0.74,0.7 0.78,0.742 0.74,0.707 0.79,0.738 0.74,0.703 0.78,0.696 0.74,0.754 0.78,0.699 0.74,0.703 0.79,0.734 0.74,0.711 0.78,0.703 0.74,0.735 0.78,0.715 0.75,0.699 0.78,0.742 0.74,0.695 0.78,0.711 0.75,0.703 0.77,0.735 0.75,0.715 0.78,0.699 0.74,0.703 0.78,0.707 0.74,0.699 0.78,0.742 0.75,0.696 0.78,0.714 0.74,0.7 0.78,0.699 0.74,0.711 0.78,0.699 0.75,0.695 0.78,0.715 0.74,0.699 0.78,0.704 0.74,0.707 0.78,0.699 0.75,0.703 0.78,0.695 0.74,0.711 0.78,0.703 0.74,0.696 0.78,0.714 0.75,0.7 0.78,0.66 0.74,0.711 0.78,0.699 0.74,0.695 0.78,0.715 0.75,0.66 0.78,0.696 0.74,0.714 0.78,0.661 0.74,0.699 0.79,0.711 0.74,0.656 0.78,0.7 0.74,0.67 0.78,0.7 0.74,0.67 0.79,0.7 0.74,0.66 0.78,0.71 0.78,0.66 0.74,0.7 0.78,0.67 0.75,0.66 0.78,0.7 0.74,0.67 0.78,0.66 0.74,0.71 0.78,0.66 0.75,0.66 0.78,0.67 0.74,0.7 0.78,0.67 0.74,0.66 0.78,0.66 0.75,0.67 0.78,0.66 0.74,0.67 0.78,0.66 0.74,0.66 0.78,0.67 0.75,0.66 0.78,0.67 0.74,0.66 0.78,0.63 0.74,0.66 0.78,0.66 0.75,0.67 0.78,0.62 0.74,0.67 0.78,0.66 0.74,0.63 0.79,0.66 0.74,0.66 0.78,0.63 0.74,0.66 0.79,0.63 0.73,0.66 0.79,0.63 0.74,0.62 0.78,0.67 0.74,0.62 0.78,0.63 0.74,0.66 0.79,0.62 0.74,0.63 0.78,0.62 0.74,0.67 0.78,0.62 0.74,0.63 0.79,0.62 0.74,0.63 0.78,0.62 0.74,0.63 0.78,0.62 0.75,0.63 0.78,0.58 0.74,0.63 0.78,0.62 0.75,0.63 0.77,0.62 0.75,0.59 0.78,0.63 0.74,0.62 0.78,0.59 0.74,0.62 0.78,0.59 0.75,0.62 0.78,0.59 0.78,0.62 0.74,0.59 0.78,0.62 0.74,0.59 0.79,0.59 0.74,0.62 0.78,0.59 0.74,0.58 0.78,0.59 0.74,0.58 0.79,0.59 0.74,0.59 0.78,0.58 0.74,0.59 0.78,0.58 0.74,0.59 0.79,0.59 0.74,0.58 0.78,0.59 0.74,0.58 0.78,0.55 0.74,0.59 0.79,0.58 0.74,0.59 0.78,0.55 0.74,0.58 0.78,0.55 0.75,0.58 0.78,0.55 0.74,0.59 0.78,0.54 0.74,0.55 0.78,0.59 0.75,0.54 0.78,0.55 0.74,0.55 0.78,0.58 0.74,0.55 0.78,0.55 0.75,0.54 0.78,0.55 0.74,0.55 0.78,0.55 0.74,0.54 0.78,0.55 0.75,0.55 0.78,0.5 0.74,0.55 0.78,0.55 0.74,0.54 0.78,0.51 0.75,0.55 0.78,0.55 0.74,0.5 0.78,0.55 0.74,0.51 0.78,0.55 0.75,0.5 0.78,0.51 0.74,0.55 0.78,0.51 0.74,0.5 0.78,0.51 0.75,0.55 0.78,0.51 0.74,0.5 0.78,0.51 0.74,0.51 1.57,1.01 0.74,0.51 0.78,0.51 0.75,0.51 0.77,0.47 0.75,0.5 0.78,0.51 0.74,0.51 0.78,0.47 0.74,0.51 0.78,0.5 0.75,0.47 0.78,0.51 0.74,0.47 0.78,0.51 0.74,0.47 0.78,0.47 0.75,0.5 0.78,0.47 0.74,0.47 0.78,0.47 0.74,0.51 0.78,0.47 0.75,0.46 0.78,0.47 0.74,0.47 0.78,0.47 0.74,0.47 0.78,0.47 0.75,0.47 0.78,0.47 0.74,0.43 0.78,0.46 0.74,0.47 0.78,0.47 0.75,0.43 0.78,0.47 0.74,0.47 0.78,0.43 0.74,0.47 0.79,0.43 0.74,0.47 0.78,0.43 0.74,0.43 0.78,0.46 0.74,0.43 0.79,0.43 0.74,0.47 0.78,0.43 0.74,0.43 0.78,0.43 0.74,0.43 0.79,0.43 0.74,0.43 0.78,0.43 0.74,0.43 0.78,0.43 0.74,0.43 0.79,0.43 0.74,0.43 0.78,0.39 0.74,0.43 0.78,0.43 0.75,0.39 0.78,0.43 0.74,0.43 0.78,0.39 0.74,0.43 0.78,0.39 0.78,0.43 0.75,0.39 0.78,0.43 0.74,0.39 0.78,0.39 0.74,0.39 0.78,0.43 0.75,0.39 0.78,0.39 0.74,0.39 0.78,0.39 0.74,0.39 0.79,0.39 0.74,0.4 0.78,0.39 0.74,0.39 0.79,0.39 0.73,0.39 0.79,0.39 0.74,0.39 0.78,0.39 0.74,0.35 0.78,0.39 0.74,0.39 0.79,0.35 0.74,0.39 0.78,0.36 0.74,0.39 0.78,0.35 0.74,0.39 0.79,0.35 0.74,0.39 0.78,0.35 0.74,0.35 0.78,0.39 0.75,0.36 0.78,0.35 0.74,0.39 0.78,0.35 0.75,0.35 0.77,0.35 0.75,0.35 0.78,0.36 0.74,0.35 0.78,0.35 0.74,0.35 0.78,0.35 0.75,0.35 0.78,0.36 0.74,0.31 0.78,0.35 0.74,0.35 0.78,0.35 0.75,0.32 0.78,0.35 0.74,0.35 0.78,0.31 0.74,0.35 0.78,0.32 0.75,0.35 0.78,0.31 0.74,0.35 0.78,0.31 0.74,0.35 0.78,0.32 0.75,0.31 0.78,0.35 0.74,0.31 0.78,0.32 0.74,0.31 0.78,0.31 0.79,0.35 0.74,0.32 0.78,0.31 0.74,0.31 0.78,0.31 0.75,0.32 0.78,0.31 0.74,0.31 0.78,0.31 0.74,0.32 0.78,0.27 0.75,0.31 0.78,0.31 0.74,0.32 0.78,0.31 0.74,0.27 0.78,0.31 0.75,0.32 0.78,0.27 0.74,0.31 0.78,0.28 0.74,0.31 0.78,0.27 0.75,0.32 0.78,0.27 0.74,0.31 0.78,0.27 0.74,0.32 0.78,0.27 0.75,0.27 0.78,0.32 0.74,0.27 0.78,0.27 0.74,0.28 0.78,0.27 0.75,0.31 0.78,0.28 0.74,0.27 0.78,0.27 0.74,0.28 0.78,0.27 0.75,0.27 0.78,0.28 0.74,0.27 0.78,0.27 0.74,0.28 0.79,0.23 0.74,0.28 0.78,0.27 0.74,0.27 0.79,0.28 0.73,0.23 0.79,0.27 0.74,0.28 0.78,0.23 0.74,0.27 0.78,0.28 0.74,0.23 0.79,0.28 0.74,0.23 0.78,0.27 0.74,0.24 0.78,0.27 0.74,0.24 0.79,0.27 0.74,0.23 0.78,0.24 0.74,0.27 1.56,0.47 0.75,0.27 0.78,0.24 0.74,0.23 0.78,0.24 0.74,0.23 0.78,0.27 0.75,0.24 0.78,0.23 0.74,0.24 0.78,0.23 0.74,0.24 0.78,0.23 0.75,0.23 0.78,0.24 0.74,0.23 0.78,0.24 0.74,0.23 0.79,0.24 0.74,0.19 0.78,0.24 0.74,0.23 0.78,0.24 0.74,0.23 0.79,0.19 0.74,0.24 0.78,0.23 0.74,0.2 0.78,0.23 0.74,0.24 0.79,0.19 0.74,0.24 0.78,0.19 0.74,0.24 0.78,0.19 0.74,0.24 0.79,0.19 0.74,0.24 0.78,0.19 0.74,0.24 0.78,0.19 0.75,0.2 0.78,0.23 0.74,0.2 0.78,0.19 0.74,0.24 0.78,0.19 0.75,0.2 0.78,0.19 0.74,0.24 0.78,0.19 0.74,0.2 0.78,0.19 0.75,0.2 0.78,0.19 0.74,0.24 0.78,0.19 0.74,0.2 0.78,0.19 0.75,0.2 0.78,0.19 0.74,0.2 0.78,0.19 0.74,0.2 0.78,0.16 0.75,0.19 0.78,0.2 0.74,0.19 1.56,0.39 0.74,0.2 0.79,0.15 0.74,0.2 0.78,0.19 0.74,0.2 0.78,0.16 0.74,0.19 0.79,0.2 0.74,0.15 0.78,0.2 0.74,0.19 0.78,0.16 0.75,0.2 0.78,0.15 0.74,0.2 0.78,0.15 0.75,0.2 0.77,0.15 0.75,0.2 0.78,0.16 0.74,0.19 0.78,0.16 0.74,0.19 0.78,0.16 0.75,0.16 0.78,0.19 0.74,0.16 0.78,0.15 0.74,0.2 0.78,0.16 0.75,0.15 0.78,0.16 0.74,0.19 0.78,0.16 0.74,0.16 0.78,0.15 0.75,0.2 0.78,0.15 0.74,0.16 0.78,0.16 0.74,0.15 0.78,0.16 0.75,0.15 0.78,0.16 0.74,0.16 0.78,0.15 0.74,0.16 0.78,0.16 0.75,0.15 0.78,0.16 0.74,0.15 0.78,0.16 0.74,0.16 0.79,0.15 0.74,0.16 0.78,0.16 0.74,0.15 0.78,0.16 0.74,0.12 0.79,0.15 0.74,0.16 0.78,0.15 0.74,0.16 0.78,0.12 0.74,0.15 0.79,0.16 0.74,0.16 0.78,0.11 0.78,0.16 0.74,0.16 0.78,0.11 0.75,0.16 0.78,0.16 0.74,0.11 0.78,0.16 0.74,0.12 0.78,0.15 0.75,0.16 0.78,0.12 0.74,0.15 0.78,0.12 0.74,0.16 0.78,0.11 0.75,0.16 0.78,0.12 0.74,0.15 0.78,0.12 0.74,0.12 0.78,0.15 0.75,0.12 0.78,0.16 0.74,0.11 0.78,0.12 0.74,0.16 0.79,0.11 0.74,0.12 0.78,0.16 0.74,0.12 0.79,0.11 0.73,0.16 0.79,0.12 0.74,0.11 0.78,0.12 0.74,0.16 0.78,0.11 0.74,0.12 0.79,0.12 0.74,0.12 0.78,0.15 0.74,0.12 0.78,0.12 0.74,0.11 0.79,0.12 0.74,0.12 0.78,0.11 0.74,0.12 0.78,0.12 0.75,0.12 0.78,0.15 0.74,0.12 0.78,0.12 0.75,0.11 0.77,0.12 0.75,0.12 0.78,0.12 0.74,0.11 0.78,0.08"
         style="fill:none;stroke:#ae6fbe;stroke-width:10;stroke-linecap:butt;stroke-linejoin:round;stroke-miterlimit:3.25;stroke-dasharray:none;stroke-opacity:1"
         transform="matrix(0.13333333,0,0,-0.13333333,0,169.72)" />
      <path
         id="path8"
         d="m 293.746,214.898 v 30"
         style="fill:none;stroke:#231f20;stroke-width:5;stroke-linecap:butt;stroke-linejoin:miter;stroke-miterlimit:3.25;stroke-dasharray:none;stroke-opacity:1"
         transform="matrix(0.13333333,0,0,-0.13333333,0,169.72)" />
      <path
         id="path9"
         d="m 750.938,214.898 v 30"
         style="fill:none;stroke:#231f20;stroke-width:5;stroke-linecap:butt;stroke-linejoin:miter;stroke-miterlimit:3.25;stroke-dasharray:none;stroke-opacity:1"
         transform="matrix(0.13333333,0,0,-0.13333333,0,169.72)" />
      <path
         id="path10"
         d="m 1208.13,214.898 v 30"
         style="fill:none;stroke:#231f20;stroke-width:5;stroke-linecap:butt;stroke-linejoin:miter;stroke-miterlimit:3.25;stroke-dasharray:none;stroke-opacity:1"
         transform="matrix(0.13333333,0,0,-0.13333333,0,169.72)" />
      <path
         id="path11"
         d="m 1665.35,214.898 v 30"
         style="fill:none;stroke:#231f20;stroke-width:5;stroke-linecap:butt;stroke-linejoin:miter;stroke-miterlimit:3.25;stroke-dasharray:none;stroke-opacity:1"
         transform="matrix(0.13333333,0,0,-0.13333333,0,169.72)" />
      <path
         id="path12"
         d="m 172.305,492.129 h 30 m 0,-247.231 h 20 m -20,0 H 1802.5"
         style="fill:none;stroke:#231f20;stroke-width:5;stroke-linecap:butt;stroke-linejoin:miter;stroke-miterlimit:3.25;stroke-dasharray:none;stroke-opacity:1"
         transform="matrix(0.13333333,0,0,-0.13333333,0,169.72)" />
      <path
         id="path13"
         d="m 172.305,739.395 h 30"
         style="fill:none;stroke:#231f20;stroke-width:5;stroke-linecap:butt;stroke-linejoin:miter;stroke-miterlimit:3.25;stroke-dasharray:none;stroke-opacity:1"
         transform="matrix(0.13333333,0,0,-0.13333333,0,169.72)" />
      <path
         id="path14"
         d="m 172.305,986.621 h 30"
         style="fill:none;stroke:#231f20;stroke-width:5;stroke-linecap:butt;stroke-linejoin:miter;stroke-miterlimit:3.25;stroke-dasharray:none;stroke-opacity:1"
         transform="matrix(0.13333333,0,0,-0.13333333,0,169.72)" />
      <path
         id="path15"
         d="m 172.305,1233.88 h 30"
         style="fill:none;stroke:#231f20;stroke-width:5;stroke-linecap:butt;stroke-linejoin:miter;stroke-miterlimit:3.25;stroke-dasharray:none;stroke-opacity:1"
         transform="matrix(0.13333333,0,0,-0.13333333,0,169.72)" />
      <path
         id="path16"
         d="M 202.305,244.898 V 1233.88"
         style="fill:none;stroke:#231f20;stroke-width:5;stroke-linecap:butt;stroke-linejoin:miter;stroke-miterlimit:3.25;stroke-dasharray:none;stroke-opacity:1"
         transform="matrix(0.13333333,0,0,-0.13333333,0,169.72)" />
    </g>
  </g>
</svg>
