<svg id="Layer_1" data-name="Layer 1" xmlns="http://www.w3.org/2000/svg" viewBox="0 0 613.73 388.98"><defs><style>.cls-1,.cls-5{fill:none;}.cls-1,.cls-4,.cls-5{stroke:#000;stroke-miterlimit:10;}.cls-2{fill:#a6a6a6;}.cls-3{fill:#666;}.cls-5{stroke-width:0.5px;}</style></defs><title>BSDF angle gives in out</title><ellipse class="cls-1" cx="308.71" cy="207.44" rx="177.94" ry="48.82"/><line class="cls-1" x1="307.53" y1="209.6" x2="307.53" y2="38.01"/><polygon points="313.03 42.92 307.53 38.66 302.02 42.92 307.53 29.91 313.03 42.92"/><polygon class="cls-2" points="311.83 41.37 307.53 31.22 307.53 38.03 311.83 41.37"/><polygon class="cls-3" points="303.23 41.37 307.53 31.22 307.53 38.03 303.23 41.37"/><path d="M304.13,18.86,309.39,12c.5-.62,1-1.17,1.51-1.8v-.05h-6.29V8.47h8.86l0,1.32-5.19,6.75c-.48.64-1,1.22-1.49,1.82v.05h6.8v1.68h-9.44Z"/><circle class="cls-4" cx="307.77" cy="209.01" r="2.25"/><line class="cls-1" x1="307.55" y1="208.86" x2="478.37" y2="208.86"/><polygon points="473.46 214.37 477.71 208.86 473.46 203.36 486.47 208.86 473.46 214.37"/><polygon class="cls-2" points="475.01 213.16 485.16 208.86 478.35 208.86 475.01 213.16"/><polygon class="cls-3" points="475.01 204.57 485.16 208.86 478.35 208.86 475.01 204.57"/><line class="cls-1" x1="309.09" y1="206.69" x2="267.4" y2="248.39"/><polygon points="266.98 241.03 267.86 247.93 274.76 248.81 261.67 254.12 266.98 241.03"/><polygon class="cls-2" points="266.72 242.98 262.59 253.19 267.41 248.38 266.72 242.98"/><polygon class="cls-3" points="272.8 249.06 262.59 253.19 267.41 248.38 272.8 249.06"/><path d="M492.88,205.58l1.38,2.08c.36.54.66,1,1,1.58h.06c.32-.58.64-1.08,1-1.6l1.36-2.06h1.9l-3.3,4.68,3.4,5h-2l-1.42-2.18c-.38-.56-.7-1.09-1-1.67h0c-.32.58-.66,1.09-1,1.67l-1.4,2.18h-1.94l3.44-4.94-3.28-4.74Z"/><path d="M252.47,261.31l2.12,5.72c.22.64.46,1.4.62,2h0c.18-.58.38-1.32.62-2l1.92-5.68h1.86l-2.64,6.9c-1.26,3.32-2.12,5-3.32,6.06a4.77,4.77,0,0,1-2.16,1.14l-.44-1.48a4.66,4.66,0,0,0,1.54-.86,5.34,5.34,0,0,0,1.48-2,1.26,1.26,0,0,0,.14-.42,1.53,1.53,0,0,0-.12-.46l-3.58-8.92Z"/><line class="cls-1" x1="308.66" y1="207.75" x2="391.56" y2="110.31"/><polygon points="392.57 117.62 391.13 110.81 384.18 110.49 396.81 104.14 392.57 117.62"/><polygon class="cls-2" points="392.66 115.66 395.96 105.14 391.54 110.33 392.66 115.66"/><polygon class="cls-3" points="386.11 110.08 395.96 105.14 391.54 110.33 386.11 110.08"/><path d="M337.94,121c0-4.09,1.66-7.21,4.68-7.21s4.5,2.9,4.5,7.21c0,4.5-1.46,7.44-4.56,7.44C339.7,128.39,337.94,125.89,337.94,121Zm7.44-.76c0-2.85-.92-5.15-2.86-5.15-1.78,0-2.84,2.42-2.84,5.15Zm-5.7,1.32c0,3.56,1.2,5.58,2.92,5.58,1.88,0,2.78-2.32,2.78-5.58Z"/><path class="cls-1" d="M307.71,131.1a77.28,77.28,0,0,1,50.2,18.43"/><polygon class="cls-5" points="613.15 96.75 212.03 94.55 0.58 317.05 401.7 319.24 613.15 96.75"/><circle class="cls-1" cx="308.56" cy="210.01" r="178.47"/><line class="cls-1" x1="308.22" y1="211.28" x2="380.01" y2="329.12"/><polygon points="372.75 327.79 379.67 328.56 382.15 322.06 384.22 336.04 372.75 327.79"/><polygon class="cls-2" points="374.59 328.49 383.54 334.92 380 329.1 374.59 328.49"/><polygon class="cls-3" points="381.93 324.02 383.54 334.92 380 329.1 381.93 324.02"/><path class="cls-1" d="M307.46,170.48c11.37.66,19.73,9.36,24.08,26.09,0,0,7,33.78-2.34,48.17"/><path d="M341.1,229.59c0-4.08,1.66-7.2,4.68-7.2s4.51,2.9,4.51,7.2c0,4.5-1.46,7.44-4.56,7.44C342.86,237,341.1,234.53,341.1,229.59Zm7.45-.76c0-2.84-.92-5.14-2.87-5.14-1.78,0-2.84,2.42-2.84,5.14Zm-5.71,1.32c0,3.56,1.2,5.58,2.92,5.58,1.89,0,2.79-2.32,2.79-5.58Z"/><path d="M354.7,223.11a22.52,22.52,0,0,1-1.88,4.74l-1.12.14a28.31,28.31,0,0,0,1.18-4.7Z"/><path d="M407.5,104.15c0,1.24.7,2.2,1.66,2.2s2-1.24,2-3.84a6.6,6.6,0,0,0-1.6-4.54v-.06h1.66a6.27,6.27,0,0,1,1.66,4.64c0,3.6-1.82,5.26-3.66,5.26a2.61,2.61,0,0,1-2.52-1.72h-.08a2.71,2.71,0,0,1-2.56,1.72c-1.68,0-3.54-1.42-3.54-5.1a7,7,0,0,1,1.7-4.8h1.62V98a7,7,0,0,0-1.6,4.7c0,2.7,1.14,3.68,2.06,3.68s1.6-1,1.6-2.18l0-3.7h1.66Z"/><path d="M390.49,347.53c0,1.24.7,2.2,1.66,2.2s2-1.24,2-3.84a6.6,6.6,0,0,0-1.6-4.54v-.06h1.66a6.27,6.27,0,0,1,1.66,4.64c0,3.6-1.82,5.26-3.66,5.26a2.61,2.61,0,0,1-2.52-1.72h-.08a2.71,2.71,0,0,1-2.56,1.72c-1.68,0-3.54-1.42-3.54-5.1a7,7,0,0,1,1.7-4.8h1.62v.06a7,7,0,0,0-1.6,4.7c0,2.7,1.14,3.68,2.06,3.68s1.6-1,1.6-2.18l0-3.7h1.66Z"/><path d="M400.13,337.27a23.07,23.07,0,0,1-1.88,4.74l-1.12.14a28.31,28.31,0,0,0,1.18-4.7Z"/></svg>