<svg id="Layer_1" data-name="Layer 1" xmlns="http://www.w3.org/2000/svg" viewBox="0 0 360.08 339.27"><defs><style>.cls-1,.cls-2{fill:none;stroke:#000;stroke-miterlimit:10;}.cls-2{stroke-dasharray:2;}</style></defs><title>Fermats principle</title><line class="cls-1" y1="184.92" x2="360.08" y2="184.92"/><path d="M7.24,170.7v-7.07A9.14,9.14,0,0,0,7,161H8.54a4,4,0,0,1,.28,1.6h0a3.56,3.56,0,0,1,3.2-1.82c1.34,0,3.42.8,3.42,4.12v6.14a20,20,0,0,0,.2,3.61H14a14,14,0,0,1-.3-3.54v-6c0-1.56-.58-2.86-2.24-2.86a2.5,2.5,0,0,0-2.36,1.8,2.53,2.53,0,0,0-.12.82v5.83Z"/><path d="M19.63,166.73h0l-1.31.72-.2-.79,1.65-.88h.88v7.58h-1Z"/><path d="M6.67,206.39v-7.06a9.14,9.14,0,0,0-.28-2.62H8a4,4,0,0,1,.28,1.6h0a3.56,3.56,0,0,1,3.2-1.82c1.34,0,3.42.8,3.42,4.12v6.14a19.89,19.89,0,0,0,.2,3.6H13.45a14,14,0,0,1-.3-3.54v-6c0-1.56-.58-2.86-2.24-2.86a2.5,2.5,0,0,0-2.36,1.8,2.53,2.53,0,0,0-.12.82v5.82Z"/><path d="M16.83,209.05v-.63l.81-.78c1.93-1.84,2.81-2.82,2.82-4a1.35,1.35,0,0,0-1.5-1.48,2.59,2.59,0,0,0-1.61.64l-.33-.72a3.36,3.36,0,0,1,2.15-.77,2.14,2.14,0,0,1,2.32,2.21c0,1.4-1,2.53-2.62,4.06l-.6.56v0h3.4v.85Z"/><circle cx="100.71" cy="13.23" r="4.17"/><circle cx="250.7" cy="328.57" r="4.17"/><circle cx="143.25" cy="184.28" r="4.17"/><circle cx="222.63" cy="184.28" r="4.17"/><polygon class="cls-2" points="100.71 13.23 143.25 184.28 250.7 328.57 222.63 184.28 100.71 13.23"/><path d="M79.36,10.22c0-1.24,0-2.24-.08-3.16h1.58l.08,1.66h0a3.81,3.81,0,0,1,3.44-1.88c2.35,0,4.11,2,4.11,4.92,0,3.48-2.12,5.2-4.41,5.2a3.39,3.39,0,0,1-3-1.52h0V20.7H79.36ZM81.1,12.8a4,4,0,0,0,.08.72,2.72,2.72,0,0,0,2.64,2.06c1.86,0,3-1.52,3-3.74,0-1.94-1-3.6-2.89-3.6a2.81,2.81,0,0,0-2.66,2.18,2.85,2.85,0,0,0-.12.72Z"/><path d="M91.42,19.68V13.1h0l-1.44.7-.22-1,1.88-.88h1.22v7.8Z"/><path d="M260.06,327.75c0-1.24,0-2.24-.08-3.16h1.58l.08,1.66h0a3.81,3.81,0,0,1,3.44-1.88c2.34,0,4.1,2,4.1,4.92,0,3.48-2.12,5.2-4.4,5.2a3.39,3.39,0,0,1-3-1.52h0v5.26h-1.74Zm1.74,2.58a4,4,0,0,0,.08.72,2.72,2.72,0,0,0,2.64,2.06c1.86,0,2.94-1.52,2.94-3.74,0-1.94-1-3.6-2.88-3.6a2.81,2.81,0,0,0-2.66,2.18,2.85,2.85,0,0,0-.12.72Z"/><path d="M270.22,336.47l1.26-1.18c1.66-1.5,2.52-2.44,2.52-3.46a1.36,1.36,0,0,0-1.52-1.4,3.06,3.06,0,0,0-1.68.62l-.42-.9a3.88,3.88,0,0,1,2.44-.84c1.88,0,2.66,1.18,2.66,2.26,0,1.5-1.14,2.6-2.66,3.94l-.62.56v0h3.42v1.1h-5.4Z"/><line class="cls-1" x1="143.56" y1="256.34" x2="143.56" y2="112.02"/><line class="cls-1" x1="222.48" y1="256.34" x2="222.48" y2="112.02"/><path class="cls-1" d="M165.87,214.71a37.63,37.63,0,0,1-22.56,7.46"/><path class="cls-1" d="M134,147.59a38,38,0,0,1,9.3-1.15"/><path class="cls-1" d="M230.21,222.12a38.6,38.6,0,0,1-7.73.78"/><path class="cls-1" d="M200.3,153.25a38.2,38.2,0,0,1,22.18-7.05"/><path d="M125.11,196.62c0-1.24,0-2.24-.08-3.16h1.58l.08,1.66h0a3.81,3.81,0,0,1,3.44-1.88c2.34,0,4.1,2,4.1,4.92,0,3.49-2.12,5.21-4.4,5.21a3.39,3.39,0,0,1-3-1.52h0v5.26h-1.74Zm1.74,2.59a3.85,3.85,0,0,0,.08.71,2.71,2.71,0,0,0,2.64,2.07c1.86,0,2.94-1.53,2.94-3.75,0-1.94-1-3.6-2.88-3.6a2.81,2.81,0,0,0-2.66,2.18,2.85,2.85,0,0,0-.12.72Z"/><path d="M138.05,189.44a23.07,23.07,0,0,1-1.88,4.74l-1.12.14a28.31,28.31,0,0,0,1.18-4.7Z"/><path d="M231.23,196.62c0-1.24,0-2.24-.08-3.16h1.58l.08,1.66h0a3.81,3.81,0,0,1,3.44-1.88c2.34,0,4.1,2,4.1,4.92,0,3.49-2.12,5.21-4.4,5.21a3.39,3.39,0,0,1-3-1.52h0v5.26h-1.74Zm1.74,2.59a3.85,3.85,0,0,0,.08.71,2.71,2.71,0,0,0,2.64,2.07c1.86,0,2.94-1.53,2.94-3.75,0-1.94-1-3.6-2.88-3.6a2.81,2.81,0,0,0-2.66,2.18,2.85,2.85,0,0,0-.12.72Z"/><path d="M244.17,189.44a23.07,23.07,0,0,1-1.88,4.74l-1.12.14a28.31,28.31,0,0,0,1.18-4.7Z"/><path d="M247.15,189.44a23.07,23.07,0,0,1-1.88,4.74l-1.12.14a28.31,28.31,0,0,0,1.18-4.7Z"/></svg>