<svg id="Layer_1" data-name="Layer 1" xmlns="http://www.w3.org/2000/svg" viewBox="0 0 265.35 93.35"><defs><style>.cls-1{fill:#999;}.cls-2{fill:none;stroke:#000;stroke-miterlimit:10;}.cls-3{fill:#a6a6a6;}.cls-4{fill:#666;}</style></defs><title>Fresnel incidence</title><rect class="cls-1" x="67.32" y="63.01" width="198.03" height="30.34"/><line class="cls-2" x1="67.32" y1="63.01" x2="265.17" y2="63.01"/><line class="cls-2" x1="67.32" y1="44.55" x2="265.17" y2="44.55"/><polyline class="cls-2" points="168.04 0.35 211.67 43.98 242.75 6.58"/><polygon points="243.85 13.88 242.34 7.08 235.38 6.84 247.94 0.35 243.85 13.88"/><polygon class="cls-3" points="243.92 11.91 247.1 1.36 242.74 6.6 243.92 11.91"/><polygon class="cls-4" points="237.31 6.42 247.1 1.36 242.74 6.6 237.31 6.42"/><polyline class="cls-2" points="76.12 0.89 103.95 62.83 135.31 7.75"/><polygon points="137.66 14.74 134.99 8.32 128.1 9.3 139.32 0.71 137.66 14.74"/><polygon class="cls-3" points="137.39 12.8 138.67 1.85 135.3 7.77 137.39 12.8"/><polygon class="cls-4" points="129.92 8.54 138.67 1.85 135.3 7.77 129.92 8.54"/><line class="cls-2" x1="95.69" y1="44.52" x2="116.34" y2="7.43"/><polygon points="118.76 14.4 116.03 8 109.15 9.04 120.29 0.35 118.76 14.4"/><polygon class="cls-3" points="118.47 12.45 119.65 1.5 116.33 7.45 118.47 12.45"/><polygon class="cls-4" points="110.96 8.27 119.65 1.5 116.33 7.45 110.96 8.27"/><path d="M16.52,48.05a12.56,12.56,0,0,1-4.14.74,6.93,6.93,0,0,1-5-1.78,6.93,6.93,0,0,1-1.88-5c0-4,2.78-7,7.3-7a8.33,8.33,0,0,1,3.36.62l-.42,1.43a7,7,0,0,0-3-.58A5,5,0,0,0,7.3,41.91c0,3.42,2.06,5.44,5.2,5.44A5.67,5.67,0,0,0,14.82,47V43H12.08v-1.4h4.44Z"/><path d="M19.12,34.44h1.76V48.65H19.12Z"/><path d="M32.6,43.73c0,3.58-2.48,5.14-4.82,5.14-2.62,0-4.64-1.92-4.64-5,0-3.24,2.12-5.14,4.8-5.14S32.6,40.77,32.6,43.73Zm-7.68.1c0,2.12,1.22,3.72,2.94,3.72S30.8,46,30.8,43.79c0-1.64-.82-3.72-2.9-3.72S24.92,42,24.92,43.83Z"/><path d="M34.58,46.85a4.61,4.61,0,0,0,2.32.7c1.28,0,1.88-.64,1.88-1.44s-.5-1.3-1.8-1.78c-1.74-.62-2.56-1.58-2.56-2.74,0-1.56,1.26-2.84,3.34-2.84a4.83,4.83,0,0,1,2.38.6l-.44,1.28a3.77,3.77,0,0,0-2-.56c-1,0-1.62.6-1.62,1.32s.58,1.16,1.84,1.64c1.68.64,2.54,1.48,2.54,2.92,0,1.7-1.32,2.9-3.62,2.9a5.52,5.52,0,0,1-2.72-.66Z"/><path d="M42.5,46.85a4.61,4.61,0,0,0,2.32.7c1.28,0,1.88-.64,1.88-1.44s-.5-1.3-1.8-1.78c-1.74-.62-2.56-1.58-2.56-2.74,0-1.56,1.26-2.84,3.34-2.84a4.83,4.83,0,0,1,2.38.6l-.44,1.28a3.77,3.77,0,0,0-2-.56c-1,0-1.62.6-1.62,1.32s.58,1.16,1.84,1.64c1.68.64,2.54,1.48,2.54,2.92,0,1.7-1.32,2.9-3.62,2.9a5.52,5.52,0,0,1-2.72-.66Z"/><path d="M51.3,39l2.12,5.72c.22.64.46,1.4.62,2h0c.18-.58.38-1.32.62-2L56.62,39h1.86l-2.64,6.9c-1.26,3.32-2.12,5-3.32,6.06a4.77,4.77,0,0,1-2.16,1.14l-.44-1.48a4.66,4.66,0,0,0,1.54-.86,5.34,5.34,0,0,0,1.48-2,1.26,1.26,0,0,0,.14-.42,1.53,1.53,0,0,0-.12-.46L49.38,39Z"/><path d="M1.52,71.25A24.92,24.92,0,0,1,5.22,71c2.5,0,4.28.58,5.46,1.68a6.21,6.21,0,0,1,1.9,4.84,7.13,7.13,0,0,1-1.94,5.24c-1.26,1.26-3.34,1.94-6,1.94a28.08,28.08,0,0,1-3.16-.16ZM3.26,83.17a9.93,9.93,0,0,0,1.76.1c3.72,0,5.74-2.08,5.74-5.72,0-3.18-1.78-5.2-5.46-5.2a9.89,9.89,0,0,0-2,.18Z"/><path d="M16.74,72.15a1.09,1.09,0,0,1-2.18,0,1.07,1.07,0,0,1,1.1-1.1A1,1,0,0,1,16.74,72.15Zm-2,12.4V74.87h1.76v9.68Z"/><path d="M25.44,84.55V76.21H21.38v8.34H19.64V76.21H18.28V74.87h1.36v-.32a4.57,4.57,0,0,1,1.08-3.3,3.31,3.31,0,0,1,2.44-.9,3.1,3.1,0,0,1,1.38.34L24.18,72a2.57,2.57,0,0,0-1-.24c-1.38,0-1.76,1.18-1.76,2.7v.42h4.06v-.46A4.57,4.57,0,0,1,26.58,71a3.35,3.35,0,0,1,2.34-.9,4,4,0,0,1,1.5.28l-.22,1.36a2.73,2.73,0,0,0-1.14-.22c-1.48,0-1.88,1.32-1.88,2.8v.52h2.34v1.34H27.2v8.34Z"/><path d="M39.22,81.91c0,1,0,1.89.08,2.64H37.74L37.64,83h0a3.62,3.62,0,0,1-3.2,1.8c-1.52,0-3.34-.84-3.34-4.24V74.87h1.76v5.36c0,1.84.56,3.08,2.16,3.08a2.54,2.54,0,0,0,2.32-1.6,2.57,2.57,0,0,0,.16-.9V74.87h1.76Z"/><path d="M41.9,82.75a4.61,4.61,0,0,0,2.32.7c1.28,0,1.88-.64,1.88-1.44s-.5-1.3-1.8-1.78c-1.74-.62-2.56-1.58-2.56-2.74,0-1.56,1.26-2.84,3.34-2.84a4.83,4.83,0,0,1,2.38.6L47,76.53A3.77,3.77,0,0,0,45,76c-1,0-1.62.6-1.62,1.32s.58,1.16,1.84,1.64c1.68.64,2.54,1.48,2.54,2.92,0,1.7-1.32,2.91-3.62,2.91a5.41,5.41,0,0,1-2.72-.67Z"/><path d="M51,80a3.1,3.1,0,0,0,3.32,3.36,6.36,6.36,0,0,0,2.68-.5l.3,1.26a7.81,7.81,0,0,1-3.22.61c-3,0-4.76-2-4.76-4.89s1.72-5.22,4.54-5.22c3.16,0,4,2.78,4,4.56a6.64,6.64,0,0,1-.06.82Zm5.16-1.26c0-1.12-.46-2.86-2.44-2.86-1.78,0-2.56,1.64-2.7,2.86Z"/></svg>