<svg id="Layer_1" data-name="Layer 1" xmlns="http://www.w3.org/2000/svg" viewBox="0 0 580.6 261.59"><defs><style>.cls-1{fill:#fcee21;stroke-width:0.3px;}.cls-1,.cls-6,.cls-7{stroke:#000;}.cls-1,.cls-5,.cls-6,.cls-7{stroke-miterlimit:10;}.cls-2{fill:#bbbdbf;}.cls-3{fill:#fff;}.cls-4{fill:#212121;}.cls-5,.cls-6,.cls-7{fill:none;}.cls-5{stroke:#0071bc;}.cls-7{stroke-dasharray:2;}</style></defs><title>Masking shadowing interreflection</title><polygon class="cls-1" points="143.09 20.35 141.88 27.8 145.69 21.28 143.13 28.38 148.07 22.68 144.25 29.19 150.16 24.49 145.21 30.19 151.88 26.66 145.96 31.34 153.16 29.1 146.49 32.62 153.98 31.74 146.78 33.97 154.31 34.48 146.81 35.35 154.12 37.23 146.59 36.71 153.42 39.91 146.12 38.01 152.25 42.41 145.42 39.2 150.64 44.65 144.51 40.24 148.65 46.56 143.43 41.1 146.33 48.07 142.21 41.75 143.78 49.13 140.89 42.16 141.08 49.7 139.52 42.32 138.32 49.77 138.14 42.22 135.59 49.33 136.81 41.88 132.99 48.39 135.56 41.29 130.61 46.99 134.44 40.49 128.53 45.18 133.48 39.49 126.81 43.02 132.73 38.33 125.52 40.58 132.2 37.06 124.7 37.94 131.91 35.71 124.38 35.2 131.88 34.33 124.57 32.44 132.1 32.96 125.26 29.77 132.57 31.66 126.43 27.27 133.26 30.47 128.04 25.02 134.17 29.43 130.04 23.11 135.25 28.57 132.35 21.6 136.47 27.93 134.9 20.54 137.79 27.52 137.61 19.97 139.16 27.36 140.37 19.91 140.54 27.45 143.09 20.35"/><g id="Eye"><g id="_Group_" data-name="&lt;Group&gt;"><path class="cls-2" d="M32.71,86.92c.35,10.07-4.52,16.46-13.47,17.75C15.14,93,8.74,85.15,3.83,79.52c.28.12.55.25.85.37C12.57,83.38,20.72,87,32.71,86.92Z"/><path d="M19.24,104.67c9-1.29,13.82-7.68,13.47-17.75-12,.08-20.14-3.54-28-7-.3-.12-.57-.25-.85-.37C8.74,85.15,15.14,93,19.24,104.67ZM34.43,86.88c.35,10.77-5.06,17.94-14.64,19.45.47,1.47.93,3,1.31,4.56l-1.66.4c-4-16-12.58-25.71-18.27-32.18L0,77.76a2.2,2.2,0,0,0,.63-.56A2.42,2.42,0,0,0,1,76.4c1.48.64,2.94,1.26,4.38,1.91,9.37,4.15,18.2,8.08,33.19,6.58l.17,1.7C37.24,86.74,35.81,86.83,34.43,86.88Z"/></g><path class="cls-3" d="M28.81,98.32c-2.33,2.94-5.74,4.12-7.6,2.64s-1.49-5.07.85-8,5.74-4.13,7.6-2.65S31.15,95.38,28.81,98.32Z"/><path class="cls-4" d="M27.79,98.48A2.72,2.72,0,0,1,24,99a2.94,2.94,0,1,1,3.78-.55Z"/></g><path class="cls-5" d="M14.58,184.69l14.73-44.41L54.17,234.9,85.55,96.35,104.86,204s35-50.44,35-51.17"/><polyline class="cls-6" points="94.95 148.5 126.1 172.87 138.32 49.77"/><line class="cls-7" x1="37.52" y1="103.59" x2="94.95" y2="148.5"/><path d="M17.12,242.71a13.19,13.19,0,0,0-2.52,8.18A13.48,13.48,0,0,0,17.12,259H15.74a12.93,12.93,0,0,1-2.62-8.12,13.2,13.2,0,0,1,2.62-8.18Z"/><path d="M24.34,256.59l-.14-1.22h-.06a3.61,3.61,0,0,1-3,1.44,2.76,2.76,0,0,1-3-2.78c0-2.34,2.08-3.62,5.82-3.6v-.2a2,2,0,0,0-2.2-2.24,4.82,4.82,0,0,0-2.52.72l-.4-1.16a6,6,0,0,1,3.18-.86c3,0,3.68,2,3.68,4v3.62a13.63,13.63,0,0,0,.16,2.32Zm-.26-4.94c-1.92,0-4.1.3-4.1,2.18a1.56,1.56,0,0,0,1.66,1.68A2.41,2.41,0,0,0,24,253.89a1.84,1.84,0,0,0,.1-.56Z"/><path d="M27.56,259a13.54,13.54,0,0,0,2.52-8.18,13.26,13.26,0,0,0-2.52-8.12h1.36a12.74,12.74,0,0,1,2.62,8.14A13,13,0,0,1,28.92,259Z"/><polygon class="cls-1" points="236.05 76.14 234.84 83.58 238.65 77.07 236.09 84.17 241.03 78.47 237.21 84.98 243.12 80.28 238.17 85.97 244.84 82.44 238.92 87.13 246.13 84.89 239.45 88.41 246.95 87.52 239.74 89.76 247.27 90.27 239.77 91.14 247.08 93.02 239.55 92.5 246.38 95.7 239.08 93.8 245.21 98.2 238.38 94.99 243.6 100.44 237.48 96.03 241.61 102.35 236.4 96.89 239.29 103.86 235.17 97.54 236.74 104.92 233.85 97.95 234.04 105.49 232.48 98.11 231.28 105.56 231.11 98.01 228.55 105.11 229.77 97.67 225.96 104.18 228.52 97.08 223.57 102.78 227.4 96.28 221.49 100.97 226.44 95.28 219.77 98.81 225.69 94.12 218.48 96.36 225.16 92.84 217.66 93.73 224.87 91.49 217.34 90.98 224.84 90.11 217.53 88.23 225.06 88.75 218.22 85.55 225.53 87.45 219.4 83.05 226.23 86.26 221.01 80.81 227.13 85.22 223 78.9 228.21 84.36 225.31 77.39 229.44 83.71 227.87 76.33 230.75 83.31 230.57 75.76 232.13 83.14 233.33 75.69 233.5 83.24 236.05 76.14"/><g id="Eye-2" data-name="Eye"><g id="_Group_2" data-name="&lt;Group&gt;"><path class="cls-2" d="M364.75,33.18c-8.73,5-16.65,3.75-22-3.54,8.35-9.1,12.29-18.45,14.95-25.43,0,.3,0,.6.07.92C358.4,13.74,359,22.63,364.75,33.18Z"/><path d="M342.74,29.64c5.36,7.29,13.28,8.58,22,3.54-5.71-10.55-6.35-19.44-7-28,0-.32,0-.62-.07-.92C355,11.19,351.09,20.54,342.74,29.64Zm22.85,5c-9.34,5.38-18.21,4-24-3.76-1.08,1.1-2.19,2.21-3.41,3.29L337,32.93c12.2-11,16.77-23.2,19.8-31.26L357.45,0a2.24,2.24,0,0,0,.78.3,2.4,2.4,0,0,0,.87-.07c.14,1.6.27,3.18.38,4.77.74,10.21,1.43,19.86,9.8,32.37l-1.42,1C367,37.09,366.29,35.87,365.59,34.67Z"/></g><path class="cls-3" d="M352.85,35.09c-3.69-.67-6.33-3.12-5.91-5.46s3.78-3.7,7.47-3,6.33,3.13,5.91,5.47S356.54,35.78,352.85,35.09Z"/><path class="cls-4" d="M352.23,34.27A2.71,2.71,0,0,1,350,31.19a2.93,2.93,0,0,1,5.65,1.31A2.72,2.72,0,0,1,352.23,34.27Z"/></g><path class="cls-5" d="M226.1,184.69l14.72-44.41,24.86,94.62L297.06,96.35,316.37,204s35-50.44,35-51.17"/><polyline class="cls-6" points="306.46 148.5 337.61 172.87 349.83 49.77"/><line class="cls-7" x1="249.03" y1="103.59" x2="306.46" y2="148.5"/><path d="M224.53,242.71a13.19,13.19,0,0,0-2.52,8.18,13.48,13.48,0,0,0,2.52,8.12h-1.38a12.93,12.93,0,0,1-2.62-8.12,13.2,13.2,0,0,1,2.62-8.18Z"/><path d="M226.31,256.59c0-.66.08-1.64.08-2.5v-11.7h1.74v6.08h0a3.61,3.61,0,0,1,3.3-1.78c2.4,0,4.1,2,4.08,4.94,0,3.46-2.18,5.18-4.34,5.18A3.45,3.45,0,0,1,228,255h-.06l-.08,1.6Zm1.82-3.88a3.3,3.3,0,0,0,.08.64,2.72,2.72,0,0,0,2.64,2.06c1.84,0,2.94-1.5,2.94-3.72,0-1.94-1-3.6-2.88-3.6a2.81,2.81,0,0,0-2.68,2.16,3.47,3.47,0,0,0-.1.72Z"/><path d="M236.65,259a13.54,13.54,0,0,0,2.52-8.18,13.26,13.26,0,0,0-2.52-8.12H238a12.74,12.74,0,0,1,2.62,8.14A13,13,0,0,1,238,259Z"/><polygon class="cls-1" points="569.37 20.35 568.15 27.8 571.97 21.29 569.4 28.38 574.35 22.68 570.52 29.19 576.43 24.49 571.48 30.19 578.15 26.66 572.23 31.34 579.44 29.1 572.76 32.62 580.26 31.74 573.05 33.97 580.58 34.48 573.08 35.35 580.39 37.24 572.86 36.71 579.7 39.91 572.39 38.01 578.53 42.41 571.7 39.2 576.92 44.65 570.79 40.25 574.92 46.56 569.71 41.1 572.61 48.07 568.49 41.75 570.06 49.13 567.17 42.16 567.35 49.7 565.8 42.32 564.59 49.77 564.42 42.23 561.87 49.33 563.08 41.88 559.27 48.39 561.83 41.29 556.89 46.99 560.71 40.49 554.8 45.18 559.75 39.49 553.09 43.02 559 38.33 551.79 40.58 558.47 37.06 550.98 37.94 558.18 35.71 550.65 35.2 558.15 34.33 550.84 32.44 558.37 32.96 551.54 29.77 558.84 31.66 552.71 27.27 559.54 30.47 554.32 25.02 560.45 29.43 556.32 23.11 561.53 28.57 558.63 21.6 562.75 27.93 561.18 20.55 564.07 27.52 563.88 19.97 565.44 27.36 566.64 19.91 566.82 27.45 569.37 20.35"/><g id="_Group_3" data-name="&lt;Group&gt;"><path class="cls-2" d="M543,43.21c-8.45,5.5-16.43,4.64-22.16-2.36,7.85-9.53,11.28-19.07,13.57-26.18,0,.3.07.59.11.91C535.63,24.15,536.74,33,543,43.21Z"/><path d="M520.85,40.85c5.73,7,13.71,7.86,22.16,2.36-6.27-10.22-7.38-19.06-8.48-27.63,0-.32-.07-.61-.11-.91C532.13,21.78,528.7,31.32,520.85,40.85Zm23.08,3.81c-9,5.87-18,4.94-24.22-2.47-1,1.15-2.07,2.32-3.22,3.47l-1.2-1.22c11.59-11.64,15.51-24,18.1-32.27l.56-1.7a2,2,0,0,0,.8.26,2.27,2.27,0,0,0,.86-.12c.22,1.6.44,3.17.63,4.74,1.29,10.16,2.49,19.76,11.52,31.81l-1.36,1C545.49,47,544.69,45.82,543.93,44.66Z"/></g><path class="cls-3" d="M531.23,45.76c-3.72-.48-6.49-2.78-6.19-5.14s3.57-3.89,7.29-3.41,6.5,2.78,6.19,5.15S535,46.25,531.23,45.76Z"/><path class="cls-4" d="M530.57,45A2.71,2.71,0,0,1,528.14,42,2.94,2.94,0,1,1,530.57,45Z"/><path class="cls-5" d="M440.86,184.69l14.72-44.41,24.86,94.62L511.82,96.35,531.13,204s35-50.44,35-51.17"/><polyline class="cls-6" points="564.59 49.77 552.38 172.87 521.22 148.51 529.02 60.61"/><path d="M443.65,242.71a13.19,13.19,0,0,0-2.52,8.18,13.48,13.48,0,0,0,2.52,8.12h-1.38a12.93,12.93,0,0,1-2.62-8.12,13.2,13.2,0,0,1,2.62-8.18Z"/><path d="M452.41,256.23a6.48,6.48,0,0,1-2.78.56,4.6,4.6,0,0,1-4.82-4.94,4.92,4.92,0,0,1,5.2-5.14,5.88,5.88,0,0,1,2.44.5l-.4,1.36a4.08,4.08,0,0,0-2-.46,3.65,3.65,0,0,0-.06,7.28,5,5,0,0,0,2.16-.48Z"/><path d="M453.41,259a13.54,13.54,0,0,0,2.52-8.18,13.26,13.26,0,0,0-2.52-8.12h1.36a12.74,12.74,0,0,1,2.62,8.14,13,13,0,0,1-2.62,8.16Z"/></svg>