<svg id="Layer_1" data-name="Layer 1" xmlns="http://www.w3.org/2000/svg" viewBox="0 0 344.97 224.8"><defs><style>.cls-1{fill:#bbbdbf;}.cls-2{fill:#fff;}.cls-3{fill:#212121;}.cls-10,.cls-4,.cls-5,.cls-6,.cls-7{fill:none;stroke-miterlimit:10;}.cls-10,.cls-4,.cls-7{stroke:#000;}.cls-5,.cls-6{stroke:#0071bc;}.cls-6{stroke-width:3px;}.cls-7{stroke-dasharray:2;}.cls-8{fill:#a6a6a6;}.cls-9{fill:#666;}.cls-10{stroke-width:0.5px;}</style></defs><title>Microfacet visible area</title><g id="Eye"><g id="_Group_" data-name="&lt;Group&gt;"><path class="cls-1" d="M34.74,30.84c0,10.08-5.12,16.28-14.12,17.24C17,36.29,10.85,28.19,6.16,22.38c.27.13.53.27.82.4C14.75,26.56,22.75,30.47,34.74,30.84Z"/><path d="M20.62,48.08c9-1,14.1-7.16,14.12-17.24-12-.37-20-4.28-27.76-8.06-.29-.13-.55-.27-.82-.4C10.85,28.19,17,36.29,20.62,48.08ZM36.46,30.86c-.05,10.78-5.72,17.74-15.35,18.9.42,1.48.82,3,1.15,4.6l-1.68.34C17.19,38.62,9,28.54,3.51,21.87L2.39,20.48A2.05,2.05,0,0,0,3,19.94a2.48,2.48,0,0,0,.38-.78c1.46.69,2.89,1.37,4.31,2.07C16.94,25.72,25.62,30,40.65,29l.11,1.71C39.27,30.83,37.84,30.86,36.46,30.86Z"/></g><path class="cls-2" d="M30.42,42.08C28,44.94,24.54,46,22.73,44.45s-1.3-5.13,1.14-8,5.89-3.91,7.7-2.36S32.87,39.24,30.42,42.08Z"/><path class="cls-3" d="M29.4,42.21a2.72,2.72,0,0,1-3.8.41,2.94,2.94,0,0,1,4-4.24A2.74,2.74,0,0,1,29.4,42.21Z"/></g><line class="cls-4" x1="23.76" y1="176.83" x2="330.81" y2="176.83"/><line class="cls-4" x1="60.31" y1="24.22" x2="311.94" y2="176.88"/><line class="cls-4" x1="26.28" y1="82.65" x2="181.39" y2="176.76"/><polyline class="cls-5" points="167.42 88.97 175.9 77.13 223.17 148.22 269.07 88.86"/><line class="cls-6" x1="150.21" y1="112.99" x2="167.42" y2="88.97"/><polyline class="cls-5" points="109.29 88.17 139.32 128.21 150.21 112.99"/><line class="cls-6" x1="96.91" y1="125.13" x2="109.29" y2="88.17"/><polyline class="cls-5" points="45.8 129.93 86.52 156.16 96.91 125.13"/><line class="cls-4" x1="70.82" y1="109.34" x2="104.86" y2="51.2"/><line class="cls-7" x1="149.77" y1="112.91" x2="89.89" y2="76.25"/><line class="cls-4" x1="311.67" y1="176.71" x2="311.67" y2="77.06"/><polygon points="317.18 81.97 311.68 77.71 306.17 81.97 311.68 68.96 317.18 81.97"/><polygon class="cls-8" points="315.98 80.42 311.68 70.27 311.68 77.08 315.98 80.42"/><polygon class="cls-9" points="307.38 80.42 311.68 70.27 311.68 77.08 307.38 80.42"/><path d="M291.77,146.45c0-4.08,1.66-7.2,4.68-7.2s4.5,2.9,4.5,7.2c0,4.5-1.46,7.45-4.56,7.45C293.53,153.9,291.77,151.4,291.77,146.45Zm7.44-.76c0-2.84-.92-5.14-2.86-5.14-1.78,0-2.84,2.42-2.84,5.14Zm-5.7,1.32c0,3.56,1.2,5.59,2.92,5.59,1.88,0,2.78-2.33,2.78-5.59Z"/><polyline class="cls-10" points="181.7 179.83 181.7 186.4 311.98 186.4 311.98 179.35"/><path d="M244.9,190.38v11.7c0,.86,0,1.84.08,2.5H243.4l-.08-1.68h0a3.58,3.58,0,0,1-3.3,1.9c-2.34,0-4.14-2-4.14-4.92,0-3.22,2-5.2,4.34-5.2a3.24,3.24,0,0,1,2.92,1.48h0v-5.78Zm-1.76,8.46a3.11,3.11,0,0,0-.08-.74,2.59,2.59,0,0,0-2.54-2c-1.82,0-2.9,1.6-2.9,3.74,0,2,1,3.58,2.86,3.58a2.65,2.65,0,0,0,2.58-2.1,3.06,3.06,0,0,0,.08-.76Z"/><path d="M250.06,200.34l-1.4,4.24h-1.8l4.58-13.48h2.1l4.6,13.48h-1.86l-1.44-4.24Zm4.42-1.36-1.32-3.88c-.3-.88-.5-1.68-.7-2.46h0c-.2.8-.42,1.62-.68,2.44l-1.32,3.9Z"/><path d="M41.21,57.77v9.94c0,.73,0,1.56.07,2.12H39.93l-.07-1.42h0A3.05,3.05,0,0,1,37,70c-2,0-3.52-1.68-3.52-4.18,0-2.74,1.68-4.42,3.69-4.42a2.75,2.75,0,0,1,2.48,1.26h0V57.77ZM39.71,65a2.62,2.62,0,0,0-.07-.62,2.19,2.19,0,0,0-2.16-1.74C35.94,62.59,35,64,35,65.77s.82,3,2.43,3A2.24,2.24,0,0,0,39.64,67a2.7,2.7,0,0,0,.07-.65Z"/><path d="M45.59,66.23l-1.19,3.6H42.87l3.9-11.45h1.78l3.91,11.45H50.88l-1.22-3.6Zm3.76-1.16-1.12-3.29c-.26-.75-.43-1.43-.6-2.09h0c-.17.68-.36,1.37-.58,2.07L45.9,65.07Z"/><path d="M63.56,69.53A5.59,5.59,0,0,1,61.2,70a3.91,3.91,0,0,1-4.1-4.19,4.18,4.18,0,0,1,4.42-4.37,5.09,5.09,0,0,1,2.08.42L63.26,63a3.43,3.43,0,0,0-1.74-.39,2.84,2.84,0,0,0-2.9,3.11,2.81,2.81,0,0,0,2.85,3.07,4.41,4.41,0,0,0,1.84-.4Z"/><path d="M72.66,65.65A4,4,0,0,1,68.56,70a3.91,3.91,0,0,1-3.94-4.23,4,4,0,0,1,4.08-4.37A3.9,3.9,0,0,1,72.66,65.65Zm-6.53.09c0,1.8,1,3.16,2.5,3.16s2.5-1.34,2.5-3.2c0-1.39-.7-3.16-2.47-3.16S66.13,64.17,66.13,65.74Z"/><path d="M74.34,68.3a3.92,3.92,0,0,0,2,.6c1.09,0,1.6-.54,1.6-1.23s-.42-1.1-1.53-1.51c-1.48-.52-2.18-1.34-2.18-2.33A2.54,2.54,0,0,1,77,61.42a4.14,4.14,0,0,1,2,.51L78.69,63A3.11,3.11,0,0,0,77,62.54c-.88,0-1.38.51-1.38,1.12s.5,1,1.57,1.4c1.42.54,2.16,1.25,2.16,2.48C79.36,69,78.23,70,76.28,70A4.66,4.66,0,0,1,74,69.44Z"/><path d="M84.29,63.7c0-3.47,1.41-6.12,4-6.12S92.09,60,92.09,63.7c0,3.82-1.24,6.32-3.88,6.32C85.78,70,84.29,67.9,84.29,63.7Zm6.32-.65c0-2.41-.78-4.37-2.43-4.37s-2.41,2.06-2.41,4.37Zm-4.84,1.12c0,3,1,4.75,2.48,4.75s2.36-2,2.36-4.75Z"/></svg>