<svg id="Layer_1" data-name="Layer 1" xmlns="http://www.w3.org/2000/svg" viewBox="0 0 315.11 261.98"><defs><style>.cls-1,.cls-4{fill:none;stroke:#000;stroke-miterlimit:10;}.cls-2{fill:#a6a6a6;}.cls-3{fill:#666;}.cls-4{stroke-dasharray:2;}</style></defs><title>Parallel projection omega normal</title><line class="cls-1" x1="287.89" y1="84.22" x2="287.89" y2="31.87"/><polygon points="293.39 36.78 287.89 32.52 282.39 36.78 287.89 23.77 293.39 36.78"/><polygon class="cls-2" points="292.19 35.23 287.89 25.08 287.89 31.89 292.19 35.23"/><polygon class="cls-3" points="283.59 35.23 287.89 25.08 287.89 31.89 283.59 35.23"/><polyline class="cls-1" points="52.84 239.01 287.89 239.01 287.89 92.33"/><polygon points="57.75 244.51 53.49 239.01 57.75 233.5 44.74 239.01 57.75 244.51"/><polygon class="cls-2" points="56.19 243.31 46.05 239.01 52.86 239.01 56.19 243.31"/><polygon class="cls-3" points="56.19 234.71 46.05 239.01 52.86 239.01 56.19 234.71"/><polygon points="293.39 97.24 287.89 92.98 282.39 97.24 287.89 84.22 293.39 97.24"/><polygon class="cls-2" points="292.19 95.68 287.89 85.54 287.89 92.35 292.19 95.68"/><polygon class="cls-3" points="283.59 95.68 287.89 85.54 287.89 92.35 283.59 95.68"/><line class="cls-1" x1="8.1" y1="239.01" x2="44.74" y2="239.01"/><polygon points="13.01 244.51 8.75 239.01 13.01 233.5 0 239.01 13.01 244.51"/><polygon class="cls-2" points="11.46 243.31 1.31 239.01 8.12 239.01 11.46 243.31"/><polygon class="cls-3" points="11.46 234.71 1.31 239.01 8.12 239.01 11.46 234.71"/><line class="cls-1" x1="287.89" y1="239.01" x2="51.75" y2="87.9"/><polygon points="58.85 85.92 52.3 88.25 52.92 95.19 44.92 83.54 58.85 85.92"/><polygon class="cls-2" points="56.89 86.09 46.03 84.25 51.76 87.92 56.89 86.09"/><polygon class="cls-3" points="52.26 93.33 46.03 84.25 51.76 87.92 52.26 93.33"/><path d="M267.05,201c0-4.08,1.66-7.2,4.68-7.2s4.51,2.9,4.51,7.2c0,4.5-1.46,7.44-4.56,7.44C268.81,208.44,267.05,205.94,267.05,201Zm7.45-.76c0-2.84-.92-5.14-2.86-5.14-1.79,0-2.85,2.42-2.85,5.14Zm-5.71,1.32c0,3.56,1.2,5.58,2.93,5.58s2.78-2.32,2.78-5.58Z"/><path d="M284.27,9.68c0-1,0-1.82-.08-2.62h1.56l.1,1.6h0a3.56,3.56,0,0,1,3.2-1.82c1.34,0,3.42.8,3.42,4.12v5.78h-1.76V11.16c0-1.56-.58-2.86-2.24-2.86a2.5,2.5,0,0,0-2.36,1.8,2.53,2.53,0,0,0-.12.82v5.82h-1.76Z"/><path d="M35.09,77.47c0,1.24.7,2.2,1.66,2.2s2-1.24,2-3.84a6.6,6.6,0,0,0-1.6-4.54v-.06h1.66a6.27,6.27,0,0,1,1.66,4.64c0,3.6-1.82,5.26-3.66,5.26a2.61,2.61,0,0,1-2.52-1.71h-.08a2.72,2.72,0,0,1-2.56,1.71c-1.68,0-3.54-1.42-3.54-5.1a7,7,0,0,1,1.7-4.8h1.62v.06a7,7,0,0,0-1.6,4.7c0,2.7,1.14,3.68,2.06,3.68s1.6-1,1.6-2.18l0-3.7h1.66Z"/><line class="cls-4" x1="45.13" y1="83.87" x2="45.13" y2="238.72"/><line class="cls-4" x1="44.57" y1="84.15" x2="288.5" y2="84.15"/><path d="M59.32,253.54c0,1.24.7,2.2,1.66,2.2s2-1.24,2-3.84a6.6,6.6,0,0,0-1.6-4.54v-.06h1.66a6.27,6.27,0,0,1,1.66,4.64c0,3.6-1.82,5.26-3.66,5.26a2.61,2.61,0,0,1-2.52-1.72h-.08a2.72,2.72,0,0,1-2.57,1.72c-1.68,0-3.54-1.42-3.54-5.1a7,7,0,0,1,1.7-4.8h1.62v.06a7,7,0,0,0-1.6,4.7c0,2.7,1.14,3.68,2.06,3.68s1.61-1,1.61-2.18l0-3.7h1.66Z"/><path d="M304.63,95.11c0,1.24.7,2.2,1.66,2.2s2-1.24,2-3.84a6.6,6.6,0,0,0-1.6-4.54v-.06h1.66A6.27,6.27,0,0,1,310,93.51c0,3.6-1.82,5.26-3.66,5.26a2.61,2.61,0,0,1-2.52-1.72h-.08a2.71,2.71,0,0,1-2.56,1.72c-1.68,0-3.54-1.42-3.54-5.1a7,7,0,0,1,1.7-4.8H301v.06a7,7,0,0,0-1.6,4.7c0,2.7,1.14,3.68,2.06,3.68s1.6-1,1.6-2.18l0-3.7h1.66Z"/><line class="cls-1" x1="68.38" y1="254.04" x2="68.38" y2="260.73"/><line class="cls-1" x1="65.33" y1="260.54" x2="71.44" y2="260.54"/><line class="cls-1" x1="312.17" y1="95.34" x2="312.17" y2="101.83"/><line class="cls-1" x1="314.61" y1="95.34" x2="314.61" y2="101.83"/></svg>