<svg id="Layer_1" data-name="Layer 1" xmlns="http://www.w3.org/2000/svg" viewBox="0 0 288.78 311.06"><defs><style>.cls-1,.cls-4{fill:#666;}.cls-1{opacity:0.5;}.cls-2,.cls-5{fill:none;stroke:#000;stroke-miterlimit:10;}.cls-3{fill:#a6a6a6;}.cls-5{stroke-width:0.5px;}</style></defs><title>Radiance change at refraction</title><rect class="cls-1" y="144.66" width="288.78" height="166.4"/><line class="cls-2" x1="0.09" y1="144.31" x2="288.09" y2="144.31"/><line class="cls-2" x1="144.01" y1="288.84" x2="144.01" y2="8.1"/><polygon points="149.51 13.01 144.01 8.75 138.51 13.01 144.01 0 149.51 13.01"/><polygon class="cls-3" points="148.31 11.46 144.01 1.31 144.01 8.12 148.31 11.46"/><polygon class="cls-4" points="139.71 11.46 144.01 1.31 144.01 8.12 139.71 11.46"/><path class="cls-2" d="M74.21,38.85C90.13,62.93,143.23,143.18,144,144"/><polygon points="72.33 45.98 74.57 39.39 81.51 39.91 69.74 32.09 72.33 45.98"/><polygon class="cls-3" points="72.47 44.02 70.46 33.19 74.22 38.87 72.47 44.02"/><polygon class="cls-4" points="79.64 39.27 70.46 33.19 74.22 38.87 79.64 39.27"/><path class="cls-2" d="M169.83,263.8C163.92,236,144.43,144.54,144,143.53"/><polygon points="174.19 257.85 169.69 263.16 163.42 260.14 171.52 271.72 174.19 257.85"/><polygon class="cls-3" points="173.34 259.62 171.24 270.44 169.82 263.78 173.34 259.62"/><polygon class="cls-4" points="164.93 261.42 171.24 270.44 169.82 263.78 164.93 261.42"/><line class="cls-5" x1="144.03" y1="143.57" x2="84.1" y2="27.06"/><line class="cls-5" x1="143.36" y1="143.69" x2="59.99" y2="43.73"/><ellipse class="cls-5" cx="71.79" cy="35.11" rx="14.64" ry="6.65" transform="translate(-7.46 45.35) rotate(-33.42)"/><ellipse class="cls-5" cx="170.24" cy="266.35" rx="12.76" ry="5.8" transform="translate(-78.22 70.92) rotate(-19.23)"/><line class="cls-5" x1="182.53" y1="262.7" x2="144.25" y2="144.22"/><line class="cls-5" x1="158.13" y1="269.86" x2="144.25" y2="144.22"/><path d="M12.42,130.57v-7.06a9.14,9.14,0,0,0-.28-2.62h1.58a4,4,0,0,1,.28,1.6h0a3.56,3.56,0,0,1,3.2-1.82c1.34,0,3.42.8,3.42,4.12v6.14a19.89,19.89,0,0,0,.2,3.6H19.2a14,14,0,0,1-.3-3.54v-6c0-1.56-.58-2.86-2.24-2.86a2.5,2.5,0,0,0-2.36,1.8,2.53,2.53,0,0,0-.12.82v5.82Z"/><path d="M24.05,126a.6.6,0,0,1-.65.63.61.61,0,0,1-.62-.63.63.63,0,0,1,.64-.65A.61.61,0,0,1,24.05,126Zm-1.14,7.22v-5.64h1v5.64Z"/><path d="M11.85,166.27v-7.06a9.26,9.26,0,0,0-.28-2.63h1.58a4.1,4.1,0,0,1,.29,1.61h0a3.54,3.54,0,0,1,3.2-1.83c1.34,0,3.42.81,3.42,4.13v6.14a19.89,19.89,0,0,0,.2,3.6H18.64a14,14,0,0,1-.3-3.54v-6c0-1.56-.58-2.86-2.24-2.86a2.58,2.58,0,0,0-2.49,2.62v5.82Z"/><path d="M23.58,161.66v1.62h1.47v.79H23.58v3c0,.7.2,1.09.77,1.09a2,2,0,0,0,.59-.07l0,.77a2.34,2.34,0,0,1-.91.14,1.43,1.43,0,0,1-1.11-.43,2.09,2.09,0,0,1-.39-1.47v-3.07H21.7v-.79h.88v-1.35Z"/></svg>