<svg id="Layer_1" data-name="Layer 1" xmlns="http://www.w3.org/2000/svg" viewBox="0 0 410.02 167.46"><defs><style>.cls-1,.cls-2,.cls-5{fill:none;stroke-miterlimit:10;}.cls-1{stroke:#0071bc;}.cls-2,.cls-5{stroke:#000;}.cls-3{fill:#a6a6a6;}.cls-4{fill:#666;}.cls-5{stroke-dasharray:2;}</style></defs><title>Rough smooth microfacets</title><line class="cls-1" x1="14.39" y1="125.13" x2="194.15" y2="125.13"/><line class="cls-1" x1="230.27" y1="125.1" x2="410.02" y2="125.1"/><path d="M17.71,156.46a7.66,7.66,0,0,0-1.47,4.76A7.86,7.86,0,0,0,17.71,166H16.9a7.58,7.58,0,0,1-1.52-4.74,7.71,7.71,0,0,1,1.52-4.76Z"/><path d="M21.92,164.55l-.09-.71h0a2.09,2.09,0,0,1-1.72.83,1.6,1.6,0,0,1-1.73-1.62c0-1.36,1.21-2.11,3.39-2.09v-.12a1.16,1.16,0,0,0-1.28-1.31A2.87,2.87,0,0,0,19,160l-.23-.67a3.41,3.41,0,0,1,1.85-.5c1.73,0,2.15,1.17,2.15,2.31v2.1a8.09,8.09,0,0,0,.09,1.36Zm-.15-2.88c-1.12,0-2.39.17-2.39,1.27a.91.91,0,0,0,1,1,1.41,1.41,0,0,0,1.37-.95,1.2,1.2,0,0,0,.06-.32Z"/><path d="M23.79,166a7.89,7.89,0,0,0,1.47-4.77,7.7,7.7,0,0,0-1.47-4.73h.8a7.43,7.43,0,0,1,1.52,4.74A7.6,7.6,0,0,1,24.59,166Z"/><line class="cls-2" x1="104.27" y1="125.13" x2="104.27" y2="8.13"/><polygon points="109.77 13.04 104.27 8.78 98.77 13.04 104.27 0.03 109.77 13.04"/><polygon class="cls-3" points="108.57 11.48 104.27 1.34 104.27 8.15 108.57 11.48"/><polygon class="cls-4" points="99.97 11.48 104.27 1.34 104.27 8.15 99.97 11.48"/><line class="cls-2" x1="320.15" y1="125.1" x2="320.15" y2="8.1"/><polygon points="325.65 13.01 320.14 8.75 314.64 13.01 320.14 0 325.65 13.01"/><polygon class="cls-3" points="324.45 11.46 320.14 1.31 320.14 8.12 324.45 11.46"/><polygon class="cls-4" points="315.85 11.46 320.14 1.31 320.14 8.12 315.85 11.46"/><polyline class="cls-5" points="16.82 146.18 26.94 106.51 31.63 147.68 38.5 107.09 48.4 148.21 54.11 112.51 61.76 137.28 68.02 112.09 76.33 148.21 81.69 105.09 89.7 145.37 94.15 108.53 99.41 146.99 106.02 109.9 109.13 141.73 114.39 98.81 118.04 120.68 121.28 144.97 124.51 106.48 131.95 145.08 134.23 103.27 140.71 142.13 146.38 103.67 148.74 146.08 153.66 108.53 159.33 144.16 164.59 106.1 172.38 142.77 175.05 108.42 185.72 148.1 190.91 108.53"/><polyline class="cls-5" points="231.81 140.19 263.39 109.42 310.97 136.95 354.97 103.95 405.09 140.6"/><path d="M235.72,156.46a7.7,7.7,0,0,0-1.47,4.77,7.92,7.92,0,0,0,1.47,4.73h-.8a7.56,7.56,0,0,1-1.53-4.73,7.71,7.71,0,0,1,1.53-4.77Z"/><path d="M236.76,164.55c0-.39.05-1,.05-1.46v-6.82h1v3.54h0a2.11,2.11,0,0,1,1.92-1c1.4,0,2.39,1.16,2.38,2.88,0,2-1.27,3-2.53,3a2,2,0,0,1-1.89-1.06h0l0,.93Zm1.06-2.26a2.35,2.35,0,0,0,.05.37,1.58,1.58,0,0,0,1.54,1.2c1.07,0,1.71-.87,1.71-2.17,0-1.13-.58-2.1-1.68-2.1a1.64,1.64,0,0,0-1.56,1.26,2.35,2.35,0,0,0-.06.42Z"/><path d="M242.79,166a7.89,7.89,0,0,0,1.47-4.77,7.7,7.7,0,0,0-1.47-4.73h.79a7.39,7.39,0,0,1,1.53,4.74,7.54,7.54,0,0,1-1.53,4.76Z"/><line class="cls-2" x1="81.02" y1="108.42" x2="24.37" y2="100.83"/><polygon points="29.97 96.03 25.02 100.92 28.5 106.94 16.34 99.75 29.97 96.03"/><polygon class="cls-3" points="28.26 97.01 17.64 99.93 24.39 100.83 28.26 97.01"/><polygon class="cls-4" points="27.12 105.53 17.64 99.93 24.39 100.83 27.12 105.53"/><path d="M1.46,91.69c0-1,0-1.82-.08-2.62H2.94l.1,1.6h0a3.56,3.56,0,0,1,3.2-1.82c1.34,0,3.42.8,3.42,4.12v5.78H7.94V93.17c0-1.56-.58-2.86-2.24-2.86a2.5,2.5,0,0,0-2.36,1.8,2.53,2.53,0,0,0-.12.82v5.82H1.46Z"/><path d="M12.06,101.41V96.55h-.8v-.78h.8V95.5a2.66,2.66,0,0,1,.65-2A2,2,0,0,1,14.08,93a2.42,2.42,0,0,1,.88.16l-.14.79a1.53,1.53,0,0,0-.65-.12c-.88,0-1.1.77-1.1,1.63v.3h1.36v.78H13.07v4.86Z"/><line class="cls-2" x1="332.15" y1="120.19" x2="293.33" y2="78.24"/><polygon points="300.7 78.1 293.77 78.72 292.62 85.58 287.82 72.29 300.7 78.1"/><polygon class="cls-3" points="298.76 77.78 288.71 73.25 293.34 78.25 298.76 77.78"/><polygon class="cls-4" points="292.45 83.62 288.71 73.25 293.34 78.25 292.45 83.62"/><path d="M273.83,61.68c0-1,0-1.82-.08-2.62h1.56l.1,1.6h0a3.56,3.56,0,0,1,3.2-1.82c1.34,0,3.42.8,3.42,4.12v5.79h-1.76V63.16c0-1.56-.58-2.86-2.24-2.86a2.5,2.5,0,0,0-2.36,1.8,2.53,2.53,0,0,0-.12.82v5.83h-1.76Z"/><path d="M284.43,71.41V66.54h-.8v-.78h.8V65.5a2.67,2.67,0,0,1,.65-2,2,2,0,0,1,1.38-.52,2.41,2.41,0,0,1,.87.16l-.14.8a1.51,1.51,0,0,0-.65-.13c-.88,0-1.1.77-1.1,1.63v.3h1.37v.78h-1.37v4.87Z"/></svg>