<svg id="Layer_1" data-name="Layer 1" xmlns="http://www.w3.org/2000/svg" viewBox="0 0 372.49 224.75"><defs><style>.cls-1{fill:none;stroke:#000;stroke-miterlimit:10;}.cls-2{fill:#a6a6a6;}.cls-3{fill:#666;}</style></defs><title>Specular microfacet reflection</title><polyline class="cls-1" points="15.05 119.79 136.77 214.53 283.98 100.78 334.22 168.73"/><line class="cls-1" x1="226.84" y1="144.85" x2="154.96" y2="51.19"/><polygon points="162.31 51.73 155.35 51.7 153.58 58.43 150.02 44.76 162.31 51.73"/><polygon class="cls-2" points="160.41 51.23 150.82 45.8 154.97 51.2 160.41 51.23"/><polygon class="cls-3" points="153.59 56.46 150.82 45.8 154.97 51.2 153.59 56.46"/><line class="cls-1" x1="226.72" y1="144.83" x2="214.21" y2="27.6"/><polygon points="220.21 31.9 214.28 28.25 209.26 33.07 213.35 19.55 220.21 31.9"/><polygon class="cls-2" points="218.85 30.48 213.49 20.85 214.22 27.62 218.85 30.48"/><polygon class="cls-3" points="210.3 31.39 213.49 20.85 214.22 27.62 210.3 31.39"/><line class="cls-1" x1="225.93" y1="144.61" x2="115.92" y2="102.22"/><polygon points="122.48 98.85 116.53 102.45 118.53 109.12 108.36 99.31 122.48 98.85"/><polygon class="cls-2" points="120.6 99.41 109.59 99.78 115.94 102.23 120.6 99.41"/><polygon class="cls-3" points="117.5 107.44 109.59 99.78 115.94 102.23 117.5 107.44"/><path class="cls-1" d="M188.13,129.85a41.08,41.08,0,0,1,34-26"/><path d="M172.41,107c0-4.08,1.66-7.2,4.68-7.2s4.5,2.9,4.5,7.2c0,4.5-1.46,7.44-4.56,7.44C174.17,114.39,172.41,111.89,172.41,107Zm7.44-.76c0-2.84-.92-5.14-2.86-5.14-1.78,0-2.84,2.42-2.84,5.14Zm-5.7,1.32c0,3.56,1.2,5.58,2.92,5.58,1.88,0,2.78-2.32,2.78-5.58Z"/><path d="M201,86.62c0-4.08,1.66-7.2,4.68-7.2s4.5,2.9,4.5,7.2c0,4.5-1.46,7.45-4.56,7.45C202.76,94.07,201,91.57,201,86.62Zm7.44-.76c0-2.84-.92-5.14-2.86-5.14-1.78,0-2.84,2.42-2.84,5.14Zm-5.7,1.32c0,3.56,1.2,5.59,2.92,5.59,1.88,0,2.78-2.33,2.78-5.59Z"/><path d="M92.54,95c0,1.24.7,2.2,1.66,2.2s2-1.24,2-3.84a6.55,6.55,0,0,0-1.6-4.54V88.8h1.67A6.31,6.31,0,0,1,98,93.44c0,3.6-1.82,5.26-3.67,5.26A2.61,2.61,0,0,1,91.76,97h-.08a2.71,2.71,0,0,1-2.56,1.72c-1.68,0-3.54-1.42-3.54-5.1a7,7,0,0,1,1.7-4.8H88.9v.06a7,7,0,0,0-1.6,4.7c0,2.7,1.14,3.68,2.06,3.68s1.6-1,1.6-2.18l0-3.7h1.66Z"/><path d="M100.7,93.91a.61.61,0,0,1-.66.63.6.6,0,0,1-.61-.63.62.62,0,0,1,.64-.64A.61.61,0,0,1,100.7,93.91Zm-1.15,7.23V95.5h1v5.64Z"/><path d="M141.8,34.59c0,1.24.7,2.2,1.66,2.2s2-1.24,2-3.84a6.65,6.65,0,0,0-1.6-4.55v0h1.66A6.25,6.25,0,0,1,147.2,33c0,3.6-1.82,5.26-3.66,5.26A2.61,2.61,0,0,1,141,36.53h-.08a2.71,2.71,0,0,1-2.56,1.72c-1.68,0-3.54-1.42-3.54-5.1a7,7,0,0,1,1.7-4.8h1.62v0a7,7,0,0,0-1.6,4.71c0,2.7,1.14,3.68,2.06,3.68s1.6-1,1.6-2.18l0-3.7h1.66Z"/><path d="M148.81,32.41h1v3.52h0a1.87,1.87,0,0,1,.73-.72,2.09,2.09,0,0,1,1-.29c.76,0,2,.46,2,2.41v3.36h-1V37.45c0-.91-.34-1.68-1.31-1.68a1.46,1.46,0,0,0-1.37,1,1.21,1.21,0,0,0-.07.49v3.41h-1Z"/><path d="M210.51,8.94c0,1.24.7,2.2,1.66,2.2s2-1.24,2-3.84a6.6,6.6,0,0,0-1.6-4.54V2.7h1.66a6.27,6.27,0,0,1,1.66,4.64c0,3.6-1.82,5.26-3.66,5.26a2.61,2.61,0,0,1-2.52-1.72h-.08a2.71,2.71,0,0,1-2.56,1.72c-1.68,0-3.54-1.42-3.54-5.1a7,7,0,0,1,1.7-4.8h1.62v.06a7,7,0,0,0-1.6,4.7c0,2.7,1.14,3.68,2.06,3.68s1.6-1,1.6-2.18l0-3.7h1.66Z"/><path d="M222.63,12.18a2.76,2.76,0,0,1-2.81,3,2.68,2.68,0,0,1-2.71-2.9,2.76,2.76,0,0,1,2.8-3A2.68,2.68,0,0,1,222.63,12.18Zm-4.48.05c0,1.24.71,2.17,1.72,2.17s1.71-.92,1.71-2.19c0-1-.48-2.17-1.69-2.17S218.15,11.16,218.15,12.23Z"/></svg>