<svg id="Layer_1" data-name="Layer 1" xmlns="http://www.w3.org/2000/svg" viewBox="0 0 338.54 363.29"><defs><style>.cls-1,.cls-4{fill:none;stroke:#000;stroke-miterlimit:10;}.cls-2{fill:#a6a6a6;}.cls-3{fill:#666;}.cls-4{stroke-dasharray:2;}</style></defs><title>Specular transmission projections</title><line class="cls-1" x1="201.98" y1="173.12" x2="305.4" y2="173.12"/><line class="cls-1" x1="40.07" y1="173.12" x2="253.75" y2="173.12"/><polygon points="44.98 178.62 40.72 173.12 44.98 167.62 31.96 173.12 44.98 178.62"/><polygon class="cls-2" points="43.42 177.42 33.28 173.12 40.09 173.12 43.42 177.42"/><polygon class="cls-3" points="43.42 168.82 33.28 173.12 40.09 173.12 43.42 168.82"/><polygon points="248.84 178.62 253.1 173.12 248.84 167.62 261.86 173.12 248.84 178.62"/><polygon class="cls-2" points="250.4 177.42 260.55 173.12 253.73 173.12 250.4 177.42"/><polygon class="cls-3" points="250.4 168.82 260.55 173.12 253.73 173.12 250.4 168.82"/><line class="cls-1" y1="173.12" x2="31.96" y2="173.12"/><line class="cls-1" x1="5.61" y1="173.12" x2="32" y2="173.12"/><line class="cls-1" x1="185.2" y1="329.61" x2="185.2" y2="8.1"/><polygon points="190.71 13.01 185.2 8.75 179.7 13.01 185.2 0 190.71 13.01"/><polygon class="cls-2" points="189.5 11.46 185.2 1.31 185.2 8.12 189.5 11.46"/><polygon class="cls-3" points="180.9 11.46 185.2 1.31 185.2 8.12 180.9 11.46"/><line class="cls-1" x1="37.79" y1="43.39" x2="185.03" y2="172.37"/><polygon points="37.86 50.77 38.28 43.82 45.11 42.49 31.7 38.05 37.86 50.77"/><polygon class="cls-2" points="37.48 48.84 32.68 38.92 37.81 43.41 37.48 48.84"/><polygon class="cls-3" points="43.14 42.37 32.68 38.92 37.81 43.41 43.14 42.37"/><line class="cls-1" x1="257.4" y1="355.33" x2="185.08" y2="173.04"/><polygon points="260.7 348.74 257.16 354.72 250.47 352.79 260.38 362.86 260.7 348.74"/><polygon class="cls-2" points="260.16 350.63 259.9 361.64 257.39 355.31 260.16 350.63"/><polygon class="cls-3" points="252.17 353.8 259.9 361.64 257.39 355.31 252.17 353.8"/><line class="cls-4" x1="32.11" y1="173.01" x2="32.11" y2="38.48"/><line class="cls-4" x1="261.27" y1="363.29" x2="261.27" y2="173.13"/><path d="M18.74,31.86c0,1.24.7,2.2,1.66,2.2s2-1.24,2-3.84a6.6,6.6,0,0,0-1.6-4.54v-.06h1.66a6.27,6.27,0,0,1,1.66,4.64c0,3.6-1.82,5.26-3.66,5.26A2.61,2.61,0,0,1,18,33.8h-.08a2.71,2.71,0,0,1-2.56,1.72c-1.68,0-3.54-1.42-3.54-5.1a7,7,0,0,1,1.7-4.8H15.1v.06a7,7,0,0,0-1.6,4.7c0,2.7,1.14,3.68,2.06,3.68s1.6-1,1.6-2.18l0-3.7h1.66Z"/><path d="M26.89,30.74a.6.6,0,0,1-.65.62.61.61,0,0,1-.62-.62.63.63,0,0,1,.64-.65A.61.61,0,0,1,26.89,30.74ZM25.75,38V32.32h1V38Z"/><path d="M237.07,347.61c0,1.24.7,2.2,1.66,2.2s2-1.24,2-3.84a6.6,6.6,0,0,0-1.6-4.54v-.06h1.66a6.27,6.27,0,0,1,1.66,4.64c0,3.6-1.82,5.26-3.66,5.26a2.61,2.61,0,0,1-2.52-1.72h-.08a2.71,2.71,0,0,1-2.56,1.72c-1.68,0-3.54-1.42-3.54-5.1a7,7,0,0,1,1.7-4.8h1.62v.06a7,7,0,0,0-1.6,4.7c0,2.7,1.14,3.68,2.06,3.68s1.6-1,1.6-2.18l0-3.7h1.66Z"/><path d="M245.31,346.45v1.62h1.47v.78h-1.47v3c0,.7.2,1.1.77,1.1a2.58,2.58,0,0,0,.6-.07l0,.77a2.58,2.58,0,0,1-.91.14,1.45,1.45,0,0,1-1.11-.43,2.12,2.12,0,0,1-.4-1.47v-3.08h-.87v-.78h.87v-1.36Z"/><path d="M236.65,184.72c0,1.24.7,2.2,1.66,2.2s2-1.24,2-3.84a6.56,6.56,0,0,0-1.6-4.55v-.06h1.67a6.32,6.32,0,0,1,1.66,4.65c0,3.6-1.82,5.26-3.67,5.26a2.61,2.61,0,0,1-2.52-1.72h-.08a2.71,2.71,0,0,1-2.56,1.72c-1.68,0-3.54-1.42-3.54-5.1a7,7,0,0,1,1.7-4.81H233v.06a7,7,0,0,0-1.6,4.71c0,2.7,1.14,3.68,2.06,3.68s1.6-1,1.6-2.18l0-3.7h1.66Z"/><path d="M244.9,183.55v1.62h1.47V186H244.9v3c0,.7.2,1.09.77,1.09a2,2,0,0,0,.59-.07l.05.77a2.34,2.34,0,0,1-.91.14,1.43,1.43,0,0,1-1.11-.43,2.09,2.09,0,0,1-.39-1.47V186H243v-.79h.88v-1.35Z"/><line class="cls-1" x1="251.85" y1="183.26" x2="251.85" y2="189.98"/><line class="cls-1" x1="247.82" y1="190.31" x2="256.05" y2="190.31"/><path d="M42,187.83c0,1.24.7,2.2,1.66,2.2s2-1.24,2-3.84a6.6,6.6,0,0,0-1.6-4.54v-.06H45.7a6.27,6.27,0,0,1,1.66,4.64c0,3.6-1.82,5.26-3.66,5.26a2.61,2.61,0,0,1-2.52-1.72H41.1a2.71,2.71,0,0,1-2.56,1.72c-1.68,0-3.54-1.42-3.54-5.1a7,7,0,0,1,1.7-4.8h1.62v.06a7,7,0,0,0-1.6,4.7c0,2.7,1.14,3.68,2.06,3.68s1.6-1,1.6-2.18l0-3.7H42Z"/><path d="M50.11,186.71a.6.6,0,0,1-.65.62.61.61,0,0,1-.62-.62.63.63,0,0,1,.64-.65A.61.61,0,0,1,50.11,186.71ZM49,193.93v-5.64h1v5.64Z"/><line class="cls-1" x1="56.16" y1="187.07" x2="56.16" y2="193.79"/><line class="cls-1" x1="52.13" y1="194.12" x2="60.35" y2="194.12"/><path class="cls-1" d="M149.75,141.72a46.86,46.86,0,0,1,35.46-16.16"/><path d="M152.7,111.73c0-4.08,1.66-7.2,4.68-7.2s4.5,2.9,4.5,7.2c0,4.5-1.46,7.44-4.56,7.44C154.46,119.17,152.7,116.67,152.7,111.73Zm7.44-.76c0-2.84-.92-5.14-2.86-5.14-1.78,0-2.84,2.42-2.84,5.14Zm-5.7,1.32c0,3.56,1.2,5.58,2.92,5.58,1.88,0,2.78-2.32,2.78-5.58Z"/><path d="M164.61,114.39a.59.59,0,0,1-.65.62.6.6,0,0,1-.62-.62.63.63,0,0,1,.64-.65A.61.61,0,0,1,164.61,114.39Zm-1.14,7.22V116h1v5.64Z"/><path d="M191.48,236.56c0-4.08,1.66-7.2,4.68-7.2s4.5,2.9,4.5,7.2c0,4.5-1.46,7.44-4.56,7.44C193.24,244,191.48,241.5,191.48,236.56Zm7.44-.76c0-2.84-.92-5.14-2.86-5.14-1.78,0-2.84,2.42-2.84,5.14Zm-5.7,1.32c0,3.56,1.2,5.58,2.92,5.58,1.88,0,2.78-2.32,2.78-5.58Z"/><path d="M203.49,239.18v1.62H205v.78h-1.47v3c0,.7.2,1.1.77,1.1a2.48,2.48,0,0,0,.59-.07l.05.77a2.54,2.54,0,0,1-.91.14,1.43,1.43,0,0,1-1.11-.43,2.12,2.12,0,0,1-.39-1.47v-3.08h-.88v-.78h.88v-1.35Z"/><path class="cls-1" d="M202.09,216.14a46.56,46.56,0,0,1-17.35,3.34"/></svg>