<svg id="Layer_1" data-name="Layer 1" xmlns="http://www.w3.org/2000/svg" xmlns:xlink="http://www.w3.org/1999/xlink" viewBox="0 0 289.98 201.52"><defs><style>.cls-1,.cls-7,.cls-8,.cls-9{fill:none;}.cls-2{fill:#bbbdbf;}.cls-3{fill:#fff;}.cls-4{fill:#212121;}.cls-5{fill:#fcee21;stroke-width:0.24px;}.cls-11,.cls-5,.cls-7,.cls-8,.cls-9{stroke:#000;stroke-miterlimit:10;}.cls-11,.cls-6{fill:#e6e6e6;}.cls-7{stroke-width:3.1px;}.cls-11,.cls-8,.cls-9{stroke-width:3px;}.cls-9{stroke-dasharray:7.24 7.24;}.cls-10{clip-path:url(#clip-path);}.cls-12{font-size:20px;font-family:MyriadPro-Regular, Myriad Pro;}</style><clipPath id="clip-path"><rect class="cls-1" x="11.8" y="114.22" width="184.89" height="59.19" transform="translate(74.96 -31.38) rotate(26.45)"/></clipPath></defs><title>Artboard 15</title><g id="Eye"><path class="cls-2" d="M66.53,47.15c-1.79,13-9.43,20.07-21.18,19.73-2.66-15.81-9.1-27.3-14.13-35.6.33.21.65.44,1,.66C41.55,38.16,51.17,44.59,66.53,47.15Z"/><path d="M45.35,66.88c11.75.34,19.39-6.76,21.18-19.73-15.36-2.56-25-9-34.31-15.21-.35-.22-.67-.45-1-.66C36.25,39.58,42.69,51.07,45.35,66.88Zm23.38-19.4c-1.93,13.86-10.44,21.84-23,21.65.28,2,.52,4,.67,6.12l-2.22.14C42.59,54.11,33.75,39.7,27.9,30.16l-1.19-2a2.89,2.89,0,0,0,.93-.57,3.11,3.11,0,0,0,.63-.94c1.75,1.14,3.47,2.26,5.18,3.41,11.06,7.39,21.49,14.38,41,15.78l-.15,2.22C72.36,47.93,70.52,47.72,68.73,47.48Z"/><path class="cls-3" d="M59,60.87c-3.64,3.25-8.26,4-10.32,1.7s-.77-6.82,2.87-10.06,8.26-4,10.32-1.69S62.65,57.63,59,60.87Z"/><path class="cls-4" d="M57.67,60.85a3.27,3.27,0,1,1-4.08-5,3.27,3.27,0,1,1,4.08,5Z"/></g><polyline class="cls-5" points="241.96 28.3 255.29 20.5 240.76 25.75 252.43 15.62 239.11 23.45 248.72 11.35 237.06 21.49 244.29 7.84 234.7 19.95 239.29 5.2 232.09 18.86 233.89 3.52 229.32 18.28 228.27 2.86 226.49 18.21 222.63 3.25 223.7 18.66 217.16 4.67 221.04 19.62 212.04 7.07 218.6 21.05 207.44 10.36 216.47 22.91 203.54 14.45 214.71 25.12 200.44 19.18 213.39 27.62 198.28 24.41 212.55 30.32 197.1 29.94 212.22 33.13 196.97 35.59 212.42 35.95 197.88 41.17 213.13 38.69 199.79 46.49 214.32 41.25 202.65 51.37 215.97 43.55 206.36 55.64 218.02 45.5 210.79 59.16 220.38 47.04 215.79 61.8 223 48.13 221.19 63.47 225.76 48.71 226.81 64.13 228.59 48.78 232.45 63.74 231.38 48.33 237.92 62.33 234.04 47.37 243.04 59.93 236.48 45.94 247.64 56.63 238.61 44.09 251.55 52.54 240.37 41.87 254.64 47.81 241.69 39.37 256.81 42.59 242.53 36.67 257.98 37.05 242.86 33.86 258.11 31.4 242.66 31.04 257.21 25.82 241.96 28.3"/><rect class="cls-6" x="185.3" y="127.36" width="105.23" height="27.49" transform="translate(-30.09 209.56) rotate(-45)"/><line class="cls-7" x1="190.99" y1="168.59" x2="265.4" y2="94.18"/><line class="cls-8" x1="227.54" y1="69.07" x2="227.54" y2="113.99"/><polygon points="220.06 111.81 227.54 124.76 235.02 111.81 220.06 111.81"/><line class="cls-8" x1="64.33" y1="68.37" x2="66.89" y2="71.45"/><line class="cls-9" x1="71.51" y1="77.02" x2="106.22" y2="118.84"/><line class="cls-8" x1="108.53" y1="121.62" x2="111.08" y2="124.7"/><path d="M227.54,135.51a4.78,4.78,0,1,0-4.78-4.78A4.78,4.78,0,0,0,227.54,135.51Z"/><g class="cls-10"><circle class="cls-11" cx="79.2" cy="190.66" r="68.73"/></g><line class="cls-8" x1="222.28" y1="130.36" x2="134.26" y2="130.36"/><polygon points="136.45 122.88 123.5 130.36 136.45 137.84 136.45 122.88"/><text class="cls-12" transform="translate(234.95 139.13)">q</text><text class="cls-12" transform="translate(246.21 145.79) scale(0.58)">0</text><text class="cls-12" transform="translate(73 64.13)">p</text><text class="cls-12" transform="translate(84.38 70.79) scale(0.58)">0</text><text class="cls-12" transform="translate(104.25 153.42)">q</text><text class="cls-12" transform="translate(115.51 160.08) scale(0.58)">1</text><path d="M114,135.58a4.78,4.78,0,1,0-4.78-4.78A4.79,4.79,0,0,0,114,135.58Z"/><path d="M64.33,73.15a4.78,4.78,0,1,0-4.77-4.78A4.78,4.78,0,0,0,64.33,73.15Z"/></svg>