<svg id="Layer_1" data-name="Layer 1" xmlns="http://www.w3.org/2000/svg" viewBox="0 0 427.43 290.42"><defs><style>.cls-1{fill:#fcee21;stroke-width:0.14px;}.cls-1,.cls-5,.cls-6,.cls-7,.cls-8{stroke:#000;stroke-miterlimit:10;}.cls-2{fill:#bbbdbf;}.cls-3{fill:#fff;}.cls-4{fill:#212121;}.cls-5{fill:#c3996b;stroke-width:0.91px;}.cls-6,.cls-7,.cls-8{fill:none;stroke-width:1.83px;}.cls-7{stroke-dasharray:3.5 3.5;}.cls-8{stroke-dasharray:3.57 3.57;}.cls-9{font-size:13.7px;font-family:MyriadPro-Regular, Myriad Pro;}.cls-10,.cls-11,.cls-12{font-family:MyriadPro-It, Myriad Pro;font-style:italic;}.cls-10{letter-spacing:0em;}.cls-11{letter-spacing:0em;}.cls-13{letter-spacing:0em;}</style></defs><title>Artboard 13</title><polyline class="cls-1" points="409.68 178.11 414.32 186.04 411.2 177.4 417.22 184.34 412.57 176.42 419.76 182.14 413.73 175.2 421.85 179.5 414.65 173.79 423.42 176.53 415.29 172.24 424.42 173.31 415.64 170.6 424.81 169.97 415.68 168.91 424.58 166.62 415.41 167.25 423.74 163.36 414.84 165.67 422.31 160.32 413.99 164.22 420.35 157.59 412.89 162.95 417.92 155.26 411.57 161.91 415.1 153.42 410.09 161.12 412 152.13 408.48 160.62 408.71 151.44 406.81 160.43 405.35 151.36 405.13 160.54 402.02 151.89 403.5 160.97 398.86 153.03 401.98 161.68 395.96 154.74 400.62 162.66 393.42 156.94 399.45 163.87 391.33 159.58 398.53 165.28 389.76 162.55 397.89 166.84 388.76 165.76 397.54 168.48 388.37 169.1 397.5 170.16 388.6 172.46 397.77 171.82 389.44 175.71 398.34 173.4 390.87 178.76 399.19 174.85 392.83 181.49 400.29 176.12 395.26 183.82 401.61 177.17 398.08 185.65 403.1 177.96 401.19 186.94 404.7 178.45 404.48 187.64 406.37 178.65 407.84 187.72 408.05 178.53 411.16 187.18 409.68 178.11"/><polyline class="cls-1" points="409.68 29.28 414.32 37.21 411.2 28.56 417.22 35.51 412.57 27.58 419.76 33.3 413.73 26.37 421.85 30.67 414.65 24.96 423.42 27.69 415.29 23.41 424.42 24.48 415.64 21.76 424.81 21.14 415.68 20.08 424.58 17.78 415.41 18.42 423.74 14.53 414.84 16.84 422.31 11.48 413.99 15.39 420.35 8.75 412.89 14.12 417.92 6.43 411.57 13.07 415.1 4.59 410.09 12.29 412 3.3 408.48 11.79 408.71 2.6 406.81 11.59 405.35 2.52 405.13 11.71 402.02 3.06 403.5 12.13 398.86 4.2 401.98 12.84 395.96 5.9 400.62 13.82 393.42 8.11 399.45 15.04 391.33 10.74 398.53 16.45 389.76 13.71 397.89 18 388.76 16.93 397.54 19.65 388.37 20.27 397.5 21.33 388.6 23.62 397.77 22.99 389.44 26.88 398.34 24.57 390.87 29.92 399.19 26.02 392.83 32.66 400.29 27.29 395.26 34.98 401.61 28.33 398.08 36.82 403.1 29.12 401.19 38.11 404.7 29.62 404.48 38.81 406.37 29.81 407.84 38.89 408.05 29.7 411.16 38.35 409.68 29.28"/><polyline class="cls-1" points="181.55 178.11 186.19 186.04 183.07 177.4 189.09 184.34 184.44 176.42 191.63 182.14 185.6 175.2 193.72 179.5 186.52 173.79 195.3 176.53 187.17 172.24 196.29 173.31 187.51 170.6 196.68 169.97 187.56 168.91 196.45 166.62 187.28 167.25 195.61 163.36 186.72 165.67 194.18 160.32 185.87 164.22 192.22 157.59 184.76 162.95 189.79 155.26 183.44 161.91 186.97 153.42 181.96 161.12 183.87 152.13 180.35 160.62 180.58 151.44 178.68 160.43 177.22 151.36 177 160.54 173.9 151.89 175.38 160.97 170.73 153.03 173.85 161.68 167.83 154.74 172.49 162.66 165.29 156.94 171.32 163.87 163.2 159.58 170.41 165.28 161.63 162.55 169.76 166.84 160.63 165.76 169.41 168.48 160.24 169.1 169.37 170.16 160.47 172.46 169.64 171.82 161.32 175.71 170.21 173.4 162.74 178.76 171.06 174.85 164.71 181.49 172.16 176.12 167.13 183.82 173.48 177.17 169.95 185.65 174.97 177.96 173.06 186.94 176.57 178.45 176.35 187.64 178.25 178.65 179.71 187.72 179.92 178.53 183.03 187.18 181.55 178.11"/><polyline class="cls-1" points="181.55 29.28 186.19 37.21 183.07 28.56 189.09 35.51 184.44 27.58 191.63 33.3 185.6 26.37 193.72 30.67 186.52 24.96 195.3 27.69 187.17 23.41 196.29 24.48 187.51 21.76 196.68 21.14 187.56 20.08 196.45 17.78 187.28 18.42 195.61 14.53 186.72 16.84 194.18 11.48 185.87 15.39 192.22 8.75 184.76 14.12 189.79 6.43 183.44 13.07 186.97 4.59 181.96 12.29 183.87 3.3 180.35 11.79 180.58 2.6 178.68 11.59 177.22 2.52 177 11.71 173.9 3.06 175.38 12.13 170.73 4.2 173.85 12.84 167.83 5.9 172.49 13.82 165.29 8.11 171.32 15.04 163.2 10.74 170.41 16.45 161.63 13.71 169.76 18 160.63 16.93 169.41 19.65 160.24 20.27 169.37 21.33 160.47 23.62 169.64 22.99 161.32 26.88 170.21 24.57 162.74 29.92 171.06 26.02 164.71 32.66 172.16 27.29 167.13 34.98 173.48 28.33 169.95 36.82 174.97 29.12 173.06 38.11 176.57 29.62 176.35 38.81 178.25 29.81 179.71 38.89 179.92 29.7 183.03 38.35 181.55 29.28"/><path class="cls-2" d="M257.82,171c2.61,7.08.65,12.76-5.41,15.78a56.54,56.54,0,0,0-16.84-14.25l.68.07C242.68,173.26,249.32,173.91,257.82,171Z"/><path d="M252.41,186.82c6.06-3,8-8.7,5.41-15.78-8.5,2.87-15.14,2.22-21.57,1.6l-.68-.07A56.54,56.54,0,0,1,252.41,186.82ZM259,170.61c2.79,7.57.63,13.93-5.82,17.26.68.93,1.35,1.9,2,2.93l-1.09.67c-6.57-10.39-15-15.31-20.53-18.57l-1.15-.68a1.83,1.83,0,0,0,.32-.55,2,2,0,0,0,.06-.65c1.2.11,2.38.21,3.56.33,7.62.75,14.82,1.47,25.12-3.12l.52,1.17C261,169.86,260,170.25,259,170.61Z"/><path class="cls-3" d="M257.72,180.06c-1,2.64-3.11,4.27-4.78,3.66s-2.24-3.25-1.28-5.89,3.11-4.27,4.79-3.66S258.69,177.42,257.72,180.06Z"/><path class="cls-4" d="M257,180.41a1.89,1.89,0,1,1-.88-2.72A2,2,0,0,1,257,180.41Z"/><path class="cls-5" d="M366.77,215.4c.56.47,11.23,9.18,11.23,9.18v2.1h-3.81v42.78h-2.62l-2.69-36.86h-3.27L365,255.73h-2.28l-2.33-23.12-62.27.79-2.27,23.11h-2.45l-.82-23.13h-1.88l-3,36.23H285l-.52-42.07a21.53,21.53,0,0,1-2.94-.94,3.2,3.2,0,0,1,0-1.79c.23-.37,8.49-8.63,9.22-8.63C292.13,216.18,366.21,214.93,366.77,215.4Z"/><polyline class="cls-5" points="365.61 232.6 360.39 232.6 298.14 233.38 292.62 233.38"/><polyline class="cls-5" points="290.74 227.54 284.46 227.54 368.88 226.68 374.19 226.68"/><path d="M388.13,178.61a2.07,2.07,0,1,1-2.07-2.07A2.07,2.07,0,0,1,388.13,178.61Z"/><path d="M330.45,220.91a2.07,2.07,0,1,1-2.07-2.06A2.07,2.07,0,0,1,330.45,220.91Z"/><path d="M263.8,182.26a2.07,2.07,0,1,1-2.07-2.07A2.07,2.07,0,0,1,263.8,182.26Z"/><line class="cls-6" x1="268.34" y1="185.94" x2="328.38" y2="220.91"/><path d="M263.58,183.17a27.65,27.65,0,0,1,4.56,7.68l.82-4.55,3.55-3A27.66,27.66,0,0,1,263.58,183.17Z"/><line class="cls-6" x1="386.06" y1="178.61" x2="335.72" y2="216.91"/><path d="M330.45,220.91a33,33,0,0,0,4.3-9.82l1.66,5.29,4.65,3A33.32,33.32,0,0,0,330.45,220.91Z"/><g id="Eye"><path class="cls-2" d="M28.63,170.13c2.61,7.07.66,12.76-5.4,15.78A56.56,56.56,0,0,0,6.38,171.66l.68.06C13.49,172.35,20.13,173,28.63,170.13Z"/><path d="M23.23,185.91c6.06-3,8-8.71,5.4-15.78-8.5,2.87-15.14,2.22-21.57,1.59l-.68-.06A56.56,56.56,0,0,1,23.23,185.91Zm6.61-16.21c2.78,7.57.62,13.93-5.83,17.26.68.93,1.35,1.89,2,2.92l-1.09.68C18.35,180.17,10,175.25,4.39,172l-1.15-.69a1.71,1.71,0,0,0,.32-.54,2,2,0,0,0,.06-.65c1.2.11,2.38.21,3.56.33,7.63.74,14.83,1.46,25.12-3.12l.52,1.16C31.8,168.94,30.81,169.34,29.84,169.7Z"/><path class="cls-3" d="M28.53,179.14c-1,2.64-3.1,4.28-4.78,3.67s-2.24-3.26-1.27-5.89,3.11-4.27,4.78-3.66S29.5,176.51,28.53,179.14Z"/><path class="cls-4" d="M27.85,179.5a2,2,0,0,1-2.56,1.28,2.2,2.2,0,1,1,2.56-1.28Z"/></g><path d="M34.61,181.34a2.07,2.07,0,1,1-2.07-2.06A2.07,2.07,0,0,1,34.61,181.34Z"/><path class="cls-5" d="M137.58,214.49l11.23,9.18v2.1H145v42.77h-2.61l-2.7-36.86h-3.26l-.57,23.14h-2.29l-2.33-23.12L69,232.49,66.7,255.6H64.25l-.82-23.14H61.55l-3,36.23H55.8l-.53-42.08a22.89,22.89,0,0,1-2.94-.93,3.3,3.3,0,0,1,0-1.79c.23-.37,8.5-8.64,9.22-8.64C62.94,215.26,137,214,137.58,214.49Z"/><polyline class="cls-5" points="136.43 231.68 131.2 231.68 68.96 232.46 63.43 232.46"/><polyline class="cls-5" points="61.55 226.63 55.27 226.63 139.69 225.77 145 225.77"/><path d="M158.94,177.69a2.07,2.07,0,1,1-2.07-2.06A2.07,2.07,0,0,1,158.94,177.69Z"/><path d="M101.27,220a2.07,2.07,0,1,1-2.07-2.07A2.07,2.07,0,0,1,101.27,220Z"/><line class="cls-6" x1="32.54" y1="181.34" x2="34.12" y2="182.26"/><line class="cls-7" x1="37.14" y1="184.01" x2="96.1" y2="218.21"/><line class="cls-6" x1="97.62" y1="219.08" x2="99.2" y2="220"/><line class="cls-6" x1="156.88" y1="177.69" x2="106.59" y2="214.64"/><path d="M101.27,218.55a33.31,33.31,0,0,0,4.46-9.74l1.56,5.31,4.61,3.09A33,33,0,0,0,101.27,218.55Z"/><g id="Eye-2" data-name="Eye"><path class="cls-2" d="M256.9,23.12c2.62,7.08.66,12.76-5.4,15.78a56.44,56.44,0,0,0-16.85-14.25c.23,0,.45.05.69.06C241.77,25.34,248.4,26,256.9,23.12Z"/><path d="M251.5,38.9c6.06-3,8-8.7,5.4-15.78-8.5,2.87-15.13,2.22-21.56,1.59-.24,0-.46-.05-.69-.06A56.44,56.44,0,0,1,251.5,38.9Zm6.61-16.21c2.78,7.57.63,13.93-5.82,17.26.67.93,1.35,1.89,2,2.92l-1.08.68c-6.57-10.39-15-15.31-20.54-18.57l-1.15-.69a1.53,1.53,0,0,0,.32-.54,1.74,1.74,0,0,0,.06-.65c1.2.11,2.39.21,3.56.33,7.63.75,14.83,1.46,25.12-3.12l.53,1.17C260.08,21.93,259.08,22.33,258.11,22.69Z"/><path class="cls-3" d="M256.81,32.14c-1,2.63-3.11,4.27-4.78,3.66s-2.25-3.25-1.28-5.89,3.11-4.27,4.78-3.66S257.78,29.5,256.81,32.14Z"/><path class="cls-4" d="M256.12,32.49a1.89,1.89,0,1,1-.87-2.73A2,2,0,0,1,256.12,32.49Z"/></g><path class="cls-5" d="M365.86,67.48l11.23,9.18v2.1h-3.81v42.77h-2.62L368,84.68H364.7l-.57,23.13h-2.29l-2.32-23.12-62.28.79L295,108.59h-2.45l-.81-23.14h-1.88l-3,36.23h-2.74l-.53-42.07a23,23,0,0,1-2.94-.94,3.3,3.3,0,0,1,0-1.79c.24-.37,8.5-8.63,9.23-8.63C291.22,68.26,365.3,67,365.86,67.48Z"/><polyline class="cls-5" points="364.7 84.67 359.48 84.67 297.23 85.45 291.71 85.45"/><polyline class="cls-5" points="289.83 79.62 283.54 79.62 367.97 78.76 373.28 78.76"/><path d="M387.22,30.68a2.07,2.07,0,1,1-2.07-2.06A2.07,2.07,0,0,1,387.22,30.68Z"/><path d="M329.54,73a2.07,2.07,0,1,1-2.07-2.07A2.07,2.07,0,0,1,329.54,73Z"/><path d="M262.88,34.34a2.07,2.07,0,1,1-2.06-2.07A2.06,2.06,0,0,1,262.88,34.34Z"/><line class="cls-6" x1="260.82" y1="34.34" x2="319.69" y2="68.69"/><path d="M325.4,72a33.28,33.28,0,0,0-10.71-.22l4.25-3.55,1-5.45A33.25,33.25,0,0,0,325.4,72Z"/><line class="cls-6" x1="385.15" y1="30.68" x2="383.68" y2="31.76"/><line class="cls-8" x1="380.8" y1="33.88" x2="330.38" y2="70.85"/><line class="cls-6" x1="328.94" y1="71.91" x2="327.47" y2="72.99"/><g id="Eye-3" data-name="Eye"><path class="cls-2" d="M29.54,22.21C32.15,29.28,30.2,35,24.14,38A56.38,56.38,0,0,0,7.29,23.74L8,23.8C14.41,24.42,21,25.08,29.54,22.21Z"/><path d="M24.14,38c6.06-3,8-8.7,5.4-15.77C21,25.08,14.41,24.42,8,23.8l-.69-.06A56.38,56.38,0,0,1,24.14,38Zm6.61-16.2c2.78,7.56.62,13.93-5.83,17.26.68.93,1.36,1.89,2,2.92l-1.08.68c-6.57-10.4-15-15.31-20.54-18.57l-1.15-.69a1.53,1.53,0,0,0,.32-.54,1.74,1.74,0,0,0,.06-.65c1.2.1,2.38.21,3.56.33,7.63.74,14.83,1.46,25.12-3.13l.52,1.17C32.71,21,31.72,21.41,30.75,21.78Z"/><path class="cls-3" d="M29.45,31.22c-1,2.64-3.11,4.28-4.78,3.67S22.42,31.63,23.39,29s3.11-4.28,4.78-3.66S30.42,28.59,29.45,31.22Z"/><path class="cls-4" d="M28.76,31.58a2,2,0,0,1-2.56,1.28,2.2,2.2,0,0,1,1.68-4A2,2,0,0,1,28.76,31.58Z"/></g><path class="cls-5" d="M138.5,66.56c.55.47,11.22,9.19,11.22,9.19v2.1h-3.8v42.77H143.3l-2.69-36.86h-3.27l-.57,23.14h-2.29l-2.32-23.12-62.28.78-2.27,23.12H65.16l-.81-23.14H62.47l-3,36.23H56.71L56.18,78.7a22.89,22.89,0,0,1-2.94-.93,3.3,3.3,0,0,1,0-1.79c.23-.38,8.5-8.64,9.23-8.64C63.86,67.34,137.94,66.1,138.5,66.56Z"/><polyline class="cls-5" points="137.34 83.76 132.12 83.76 69.87 84.54 64.34 84.54"/><polyline class="cls-5" points="62.47 78.7 56.18 78.7 140.61 77.85 145.92 77.85"/><path d="M159.86,29.77a2.07,2.07,0,1,1-2.07-2.07A2.07,2.07,0,0,1,159.86,29.77Z"/><path d="M102.18,72.08A2.07,2.07,0,1,1,100.11,70,2.07,2.07,0,0,1,102.18,72.08Z"/><path d="M35.52,33.42a2.07,2.07,0,1,1-2.07-2.06A2.07,2.07,0,0,1,35.52,33.42Z"/><line class="cls-6" x1="33.45" y1="33.42" x2="92.33" y2="67.78"/><path d="M98,71.11a33,33,0,0,0-10.71-.22l4.25-3.55,1-5.45A33.15,33.15,0,0,0,98,71.11Z"/><line class="cls-6" x1="151.29" y1="34.32" x2="100.11" y2="72.08"/><path d="M155.72,31.05a27.6,27.6,0,0,1-8.86,1.13l3.84,2.57L152,39.17A27.36,27.36,0,0,1,155.72,31.05Z"/><text class="cls-9" transform="translate(67.95 139.82)">(a) <tspan class="cls-10" x="17.28" y="0">s</tspan><tspan x="22.39" y="0">=0, </tspan><tspan class="cls-11" x="43.32" y="0">t</tspan><tspan x="47.61" y="0">=3</tspan></text><text class="cls-9" transform="translate(67.95 286.52)">(c) <tspan class="cls-12" x="16.82" y="0">s</tspan><tspan x="21.93" y="0">=2, </tspan><tspan class="cls-11" x="42.86" y="0">t</tspan><tspan x="47.14" y="0">=1</tspan></text><text class="cls-9" transform="translate(296.76 139.82)">(<tspan class="cls-13" x="3.89" y="0">b</tspan><tspan x="11.64" y="0">) </tspan><tspan class="cls-12" x="18.44" y="0">s</tspan><tspan x="23.54" y="0">=1, </tspan><tspan class="cls-11" x="44.47" y="0">t</tspan><tspan x="48.76" y="0">=2</tspan></text><text class="cls-9" transform="translate(296.76 286.52)">(d) <tspan class="cls-12" x="18.41" y="0">s</tspan><tspan x="23.52" y="0">=3, </tspan><tspan class="cls-11" x="44.44" y="0">t</tspan><tspan x="48.73" y="0">=0</tspan></text></svg>