<svg id="Layer_1" data-name="Layer 1" xmlns="http://www.w3.org/2000/svg" viewBox="0 0 349.86 228.02"><defs><style>.cls-1{fill:#bbbdbf;}.cls-2{fill:#fff;}.cls-3{fill:#212121;}.cls-4{fill:#fcee21;stroke-width:0.24px;}.cls-4,.cls-6,.cls-7{stroke:#000;stroke-miterlimit:10;}.cls-5{fill:#e6e6e6;}.cls-6,.cls-7{fill:none;stroke-width:3px;}.cls-7{stroke-dasharray:7.36 7.36;}</style></defs><title>Artboard 10</title><g id="Eye"><path class="cls-1" d="M48.53,45C56,55.77,55.19,66.16,46.32,73.87,33.65,64.05,21.12,60,11.81,57.27L13,57.08C24.06,55.33,35.5,53.54,48.53,45Z"/><path d="M46.32,73.87C55.19,66.16,56,55.77,48.53,45,35.5,53.54,24.06,55.33,13,57.08l-1.18.19C21.12,60,33.65,64.05,46.32,73.87Zm4-30.11c8,11.51,7.12,23.14-2.27,31.54,1.54,1.27,3.1,2.6,4.63,4L51.2,81C35.64,66.35,19.37,61.75,8.61,58.7L6.38,58a2.64,2.64,0,0,0,.3-1,3.23,3.23,0,0,0-.18-1.12c2.06-.34,4.09-.69,6.13-1,13.14-2.06,25.55-4,40.84-16.18l1.39,1.74C53.35,41.64,51.85,42.74,50.37,43.76Z"/><path class="cls-2" d="M52.29,60.2c-.47,4.86-3.35,8.54-6.43,8.24S40.67,64,41.15,59.11s3.37-8.54,6.44-8.24S52.78,55.35,52.29,60.2Z"/><path class="cls-3" d="M51.3,61.1a3.53,3.53,0,0,1-3.74,3.26,3.81,3.81,0,0,1,1.08-7.46A3.53,3.53,0,0,1,51.3,61.1Z"/></g><polyline class="cls-4" points="320.34 174.24 328.15 187.57 322.9 173.04 333.03 184.71 325.2 171.39 337.3 181 327.15 169.35 340.81 176.57 328.7 166.98 343.45 171.57 329.78 164.37 345.13 166.17 330.37 161.6 345.78 160.56 330.44 158.78 345.4 154.92 329.98 155.99 343.98 149.44 329.02 153.32 341.58 144.32 327.59 150.89 338.28 139.73 325.74 148.75 334.2 135.82 323.52 146.99 329.46 132.73 321.02 145.67 324.24 130.56 318.32 144.84 318.71 129.39 315.52 144.51 313.05 129.25 312.7 144.7 307.47 130.16 309.96 145.41 302.15 132.07 307.4 146.61 297.27 134.94 305.1 148.26 293 138.64 303.15 150.3 289.49 143.07 301.6 152.67 286.85 148.07 300.52 155.28 285.17 153.47 299.93 158.04 284.51 159.09 299.86 160.87 284.9 164.73 300.32 163.66 286.32 170.21 301.27 166.32 288.72 175.33 302.7 168.76 292.02 179.92 304.56 170.9 296.1 183.83 306.77 172.65 300.84 186.92 309.27 173.97 306.06 189.09 311.98 174.81 311.59 190.26 314.78 175.14 317.25 190.4 317.6 174.95 322.83 189.49 320.34 174.24"/><rect class="cls-5" x="122.64" y="38" width="105.23" height="25.7" transform="translate(263.21 210.73) rotate(-135)"/><line class="cls-6" x1="203.37" y1="97.14" x2="128.96" y2="22.74"/><rect class="cls-5" x="102.56" y="160.4" width="105.23" height="25.7" transform="translate(167.95 -58.98) rotate(45)"/><line class="cls-6" x1="127.06" y1="126.96" x2="201.47" y2="201.36"/><line class="cls-6" x1="63.11" y1="59.82" x2="151.12" y2="59.82"/><polygon points="148.94 67.3 161.89 59.82 148.94 52.34 148.94 67.3"/><line class="cls-6" x1="277.58" y1="163.51" x2="179.65" y2="163.51"/><polygon points="181.84 156.03 168.89 163.51 181.84 170.99 181.84 156.03"/><line class="cls-6" x1="164.89" y1="59.82" x2="164.89" y2="63.82"/><line class="cls-7" x1="164.89" y1="71.18" x2="164.89" y2="155.83"/><line class="cls-6" x1="164.89" y1="159.51" x2="164.89" y2="163.51"/><path d="M160.14,163.51a4.78,4.78,0,1,0,4.78-4.78A4.78,4.78,0,0,0,160.14,163.51Z"/><path d="M160.14,61.19a4.78,4.78,0,1,0,4.78-4.78A4.78,4.78,0,0,0,160.14,61.19Z"/></svg>