<svg id="Layer_1" data-name="Layer 1" xmlns="http://www.w3.org/2000/svg" viewBox="0 0 417.15 351.38"><defs><style>.cls-1,.cls-11{fill:#fff;}.cls-1,.cls-13,.cls-14,.cls-22,.cls-25,.cls-26,.cls-8,.cls-9{stroke:#000;stroke-miterlimit:10;}.cls-2{font-size:12px;}.cls-2,.cls-21{font-family:MyriadPro-Regular, Myriad Pro;}.cls-3{letter-spacing:0.01em;}.cls-4{letter-spacing:0em;}.cls-5{letter-spacing:0em;}.cls-6{letter-spacing:-0.01em;}.cls-7{font-family:Courier;}.cls-13,.cls-14,.cls-22,.cls-25,.cls-8,.cls-9{fill:none;}.cls-8{stroke-dasharray:2;}.cls-10{fill:#bbbdbf;}.cls-12{fill:#212121;}.cls-13,.cls-14{stroke-width:3px;}.cls-14{stroke-dasharray:10.93 10.93;}.cls-15{letter-spacing:0em;}.cls-16{letter-spacing:0em;}.cls-17{letter-spacing:-0.01em;}.cls-18{letter-spacing:0em;}.cls-19{letter-spacing:-0.01em;}.cls-20{letter-spacing:0.01em;}.cls-21{font-size:40px;}.cls-22{stroke-width:0.95px;}.cls-23{letter-spacing:-0.01em;}.cls-24{letter-spacing:0.01em;}.cls-25{stroke-width:1.15px;}.cls-26{fill:#fcee21;stroke-width:0.13px;}</style></defs><title>Bidir four strategies</title><path class="cls-1" d="M228.75,224.67a19.47,19.47,0,1,1-19.47-19.47A19.47,19.47,0,0,1,228.75,224.67Z"/><path class="cls-1" d="M288.75,224.67a19.47,19.47,0,1,1-19.47-19.47A19.47,19.47,0,0,1,288.75,224.67Z"/><path class="cls-1" d="M348.75,224.67a19.47,19.47,0,1,1-19.47-19.47A19.47,19.47,0,0,1,348.75,224.67Z"/><path class="cls-1" d="M408.75,224.67a19.47,19.47,0,1,1-19.47-19.47A19.47,19.47,0,0,1,408.75,224.67Z"/><text class="cls-2" transform="translate(9.04 226.67)"><tspan class="cls-3">H</tspan><tspan x="7.93" y="0">ypothetical st</tspan><tspan class="cls-4" x="75.68" y="0">r</tspan><tspan class="cls-5" x="79.55" y="0">a</tspan><tspan class="cls-6" x="85.28" y="0">t</tspan><tspan x="89.18" y="0">egy (</tspan><tspan class="cls-7" x="113.51" y="0">s=1,t=2</tspan><tspan x="163.91" y="0">)</tspan></text><line class="cls-8" x1="229.75" y1="224.04" x2="248.35" y2="224.04"/><line class="cls-9" x1="355.27" y1="224.67" x2="368.85" y2="224.67"/><polygon points="356.29 228.16 350.25 224.67 356.29 221.18 356.29 228.16"/><line class="cls-9" x1="295.11" y1="224.67" x2="308.68" y2="224.67"/><polygon points="296.13 228.16 290.08 224.67 296.13 221.18 296.13 228.16"/><g id="Eye"><path class="cls-10" d="M382.16,234.36c-5.47-5.91-5.86-12.31-1.13-17.77a60.31,60.31,0,0,0,22.44,7.15l-.7.22C396.18,226,389.37,228.05,382.16,234.36Z"/><path d="M381,216.59c-4.73,5.46-4.34,11.86,1.13,17.77,7.21-6.31,14-8.39,20.61-10.4l.7-.22A60.31,60.31,0,0,1,381,216.59Zm.12,18.69c-5.84-6.32-6.32-13.48-1.32-19.4-1.05-.64-2.11-1.32-3.17-2.07l.8-1.11c10.72,7.56,21,9,27.84,9.9l1.41.2a1.82,1.82,0,0,0-.09.67,2.09,2.09,0,0,0,.2.67c-1.22.38-2.43.77-3.64,1.13-7.82,2.39-15.21,4.63-23.48,13.36l-1-.94C379.52,236.82,380.34,236,381.15,235.28Z"/><path class="cls-11" d="M378.57,225.43c-.13-3,1.31-5.49,3.21-5.57s3.54,2.29,3.67,5.28-1.32,5.49-3.22,5.57S378.69,228.43,378.57,225.43Z"/><path class="cls-12" d="M379.1,224.8a2,2,0,1,1,2,2.33A2.18,2.18,0,0,1,379.1,224.8Z"/></g><path class="cls-1" d="M228.75,274.67a19.47,19.47,0,1,1-19.47-19.47A19.47,19.47,0,0,1,228.75,274.67Z"/><path class="cls-1" d="M288.75,274.67a19.47,19.47,0,1,1-19.47-19.47A19.47,19.47,0,0,1,288.75,274.67Z"/><path class="cls-1" d="M348.75,274.67a19.47,19.47,0,1,1-19.47-19.47A19.47,19.47,0,0,1,348.75,274.67Z"/><path class="cls-1" d="M408.75,274.67a19.47,19.47,0,1,1-19.47-19.47A19.47,19.47,0,0,1,408.75,274.67Z"/><text class="cls-2" transform="translate(9.04 276.67)"><tspan class="cls-3">H</tspan><tspan x="7.93" y="0">ypothetical st</tspan><tspan class="cls-4" x="75.68" y="0">r</tspan><tspan class="cls-5" x="79.55" y="0">a</tspan><tspan class="cls-6" x="85.28" y="0">t</tspan><tspan x="89.18" y="0">egy (</tspan><tspan class="cls-7" x="113.51" y="0">s=0,t=3</tspan><tspan x="163.91" y="0">)</tspan></text><line class="cls-9" x1="355.27" y1="274.67" x2="368.85" y2="274.67"/><polygon points="356.29 278.16 350.25 274.67 356.29 271.18 356.29 278.16"/><line class="cls-9" x1="295.11" y1="274.67" x2="308.68" y2="274.67"/><polygon points="296.13 278.16 290.08 274.67 296.13 271.18 296.13 278.16"/><line class="cls-9" x1="234.77" y1="274.67" x2="248.35" y2="274.67"/><polygon points="235.79 278.16 229.75 274.67 235.79 271.18 235.79 278.16"/><g id="Eye-2" data-name="Eye"><path class="cls-10" d="M382.16,284.36c-5.47-5.91-5.86-12.31-1.13-17.77a60.31,60.31,0,0,0,22.44,7.15l-.7.22C396.18,276,389.37,278.05,382.16,284.36Z"/><path d="M381,266.59c-4.73,5.46-4.34,11.86,1.13,17.77,7.21-6.31,14-8.39,20.61-10.4l.7-.22A60.31,60.31,0,0,1,381,266.59Zm.12,18.69c-5.84-6.32-6.32-13.48-1.32-19.4-1.05-.64-2.11-1.32-3.17-2.07l.8-1.11c10.72,7.56,21,9,27.84,9.9l1.41.2a1.82,1.82,0,0,0-.09.67,2.09,2.09,0,0,0,.2.67c-1.22.38-2.43.77-3.64,1.13-7.82,2.39-15.21,4.63-23.48,13.36l-1-.94C379.52,286.82,380.34,286,381.15,285.28Z"/><path class="cls-11" d="M378.57,275.43c-.13-3,1.31-5.49,3.21-5.57s3.54,2.29,3.67,5.28-1.32,5.49-3.22,5.57S378.69,278.43,378.57,275.43Z"/><path class="cls-12" d="M379.1,274.8a2,2,0,1,1,2,2.33A2.18,2.18,0,0,1,379.1,274.8Z"/></g><line class="cls-13" x1="210.24" y1="42.21" x2="215.65" y2="44.82"/><line class="cls-14" x1="225.49" y1="49.56" x2="318.95" y2="94.68"/><line class="cls-13" x1="323.87" y1="97.06" x2="329.28" y2="99.67"/><rect class="cls-11" x="239.05" y="63.97" width="60.33" height="11.5"/><circle class="cls-1" cx="149.28" cy="41.81" r="19.47"/><circle class="cls-1" cx="209.28" cy="41.81" r="19.47"/><path class="cls-1" d="M288.75,41.81a19.47,19.47,0,1,1-19.47-19.47A19.47,19.47,0,0,1,288.75,41.81Z"/><path class="cls-1" d="M348.75,41.81a19.47,19.47,0,1,1-19.47-19.47A19.47,19.47,0,0,1,348.75,41.81Z"/><path class="cls-1" d="M408.75,41.81a19.47,19.47,0,1,1-19.47-19.47A19.47,19.47,0,0,1,408.75,41.81Z"/><circle class="cls-1" cx="149.28" cy="99.67" r="19.47"/><circle class="cls-1" cx="209.28" cy="99.67" r="19.47"/><path class="cls-1" d="M288.75,99.67A19.47,19.47,0,1,1,269.28,80.2,19.47,19.47,0,0,1,288.75,99.67Z"/><path class="cls-1" d="M348.75,99.67A19.47,19.47,0,1,1,329.28,80.2,19.47,19.47,0,0,1,348.75,99.67Z"/><path class="cls-1" d="M408.75,99.67A19.47,19.47,0,1,1,389.28,80.2,19.47,19.47,0,0,1,408.75,99.67Z"/><text class="cls-2" transform="translate(9.04 46.86)">Lig<tspan class="cls-15" x="15.18" y="0">h</tspan><tspan class="cls-16" x="21.79" y="0">t subp</tspan><tspan class="cls-15" x="53.33" y="0">a</tspan><tspan x="59.06" y="0">th</tspan></text><text class="cls-2" transform="translate(9.04 101.67)"><tspan class="cls-17">C</tspan><tspan x="6.88" y="0">ame</tspan><tspan class="cls-4" x="28.68" y="0">r</tspan><tspan class="cls-18" x="32.54" y="0">a subp</tspan><tspan class="cls-15" x="65.89" y="0">a</tspan><tspan class="cls-16" x="71.63" y="0">th</tspan></text><line class="cls-9" x1="169.75" y1="41.81" x2="183.32" y2="41.81"/><polygon points="182.3 45.3 188.35 41.81 182.3 38.32 182.3 45.3"/><line class="cls-9" x1="229.92" y1="41.81" x2="243.49" y2="41.81"/><polygon points="242.47 45.3 248.51 41.81 242.47 38.32 242.47 45.3"/><line class="cls-9" x1="290.08" y1="41.81" x2="303.66" y2="41.81"/><polygon points="302.63 45.3 308.68 41.81 302.63 38.32 302.63 45.3"/><line class="cls-9" x1="350.25" y1="41.81" x2="363.82" y2="41.81"/><polygon points="362.8 45.3 368.85 41.81 362.8 38.32 362.8 45.3"/><line class="cls-9" x1="174.77" y1="99.67" x2="188.35" y2="99.67"/><polygon points="175.79 103.16 169.75 99.67 175.79 96.18 175.79 103.16"/><line class="cls-9" x1="234.94" y1="99.67" x2="248.51" y2="99.67"/><polygon points="235.96 103.16 229.92 99.67 235.96 96.18 235.96 103.16"/><line class="cls-9" x1="295.11" y1="99.67" x2="308.68" y2="99.67"/><polygon points="296.13 103.16 290.08 99.67 296.13 96.18 296.13 103.16"/><line class="cls-9" x1="355.27" y1="99.67" x2="368.85" y2="99.67"/><polygon points="356.29 103.16 350.25 99.67 356.29 96.18 356.29 103.16"/><path class="cls-10" d="M382.16,109.36c-5.47-5.91-5.86-12.31-1.13-17.77,8.56,4.9,16.54,6.31,22.44,7.15l-.7.22C396.18,101,389.37,103,382.16,109.36Z"/><path d="M381,91.59c-4.73,5.46-4.34,11.86,1.13,17.77,7.21-6.32,14-8.39,20.61-10.4l.7-.22C397.57,97.9,389.59,96.49,381,91.59Zm.12,18.69c-5.84-6.33-6.32-13.48-1.32-19.4-1.05-.64-2.11-1.32-3.17-2.07l.8-1.11c10.72,7.56,21,9,27.84,9.9l1.41.21a1.75,1.75,0,0,0-.09.66,2.09,2.09,0,0,0,.2.67c-1.22.38-2.43.77-3.64,1.13-7.82,2.39-15.21,4.63-23.48,13.36l-1-.94C379.52,111.82,380.34,111,381.15,110.28Z"/><path class="cls-11" d="M378.57,100.43c-.13-3,1.31-5.49,3.21-5.57s3.54,2.29,3.67,5.28-1.32,5.49-3.22,5.57S378.69,103.43,378.57,100.43Z"/><path class="cls-12" d="M379.1,99.8a2,2,0,1,1,2,2.33A2.18,2.18,0,0,1,379.1,99.8Z"/><text class="cls-2" transform="translate(371.91 129.48)"><tspan class="cls-17">C</tspan><tspan x="6.88" y="0">ame</tspan><tspan class="cls-4" x="28.68" y="0">r</tspan><tspan x="32.54" y="0">a</tspan></text><text class="cls-2" transform="translate(242.38 74.94)"><tspan class="cls-19">C</tspan><tspan x="6.83" y="0">onne</tspan><tspan class="cls-20" x="32.75" y="0">c</tspan><tspan x="38.28" y="0">tion</tspan></text><text class="cls-2" transform="translate(136.81 18.14)">Lig<tspan class="cls-15" x="15.18" y="0">h</tspan><tspan x="21.79" y="0">t</tspan></text><text class="cls-21" transform="translate(322.24 111.36)">t</text><rect class="cls-22" x="0.58" y="0.47" width="416" height="137.5"/><path class="cls-1" d="M228.75,172.67a19.47,19.47,0,1,1-19.47-19.47A19.47,19.47,0,0,1,228.75,172.67Z"/><path class="cls-1" d="M288.75,172.67a19.47,19.47,0,1,1-19.47-19.47A19.47,19.47,0,0,1,288.75,172.67Z"/><path class="cls-1" d="M348.75,172.67a19.47,19.47,0,1,1-19.47-19.47A19.47,19.47,0,0,1,348.75,172.67Z"/><path class="cls-1" d="M408.75,172.67a19.47,19.47,0,1,1-19.47-19.47A19.47,19.47,0,0,1,408.75,172.67Z"/><text class="cls-2" transform="translate(9.04 174.67)"><tspan class="cls-23">A</tspan><tspan class="cls-24" x="7.2" y="0">c</tspan><tspan x="12.73" y="0">tual st</tspan><tspan class="cls-4" x="43.2" y="0">r</tspan><tspan class="cls-5" x="47.06" y="0">a</tspan><tspan class="cls-6" x="52.8" y="0">t</tspan><tspan class="cls-16" x="56.7" y="0">egy (</tspan><tspan class="cls-7" x="81.02" y="0">s=2,t=2</tspan><tspan x="131.43" y="0">)</tspan></text><line class="cls-9" x1="229.92" y1="172.67" x2="243.49" y2="172.67"/><polygon points="242.47 176.16 248.51 172.67 242.47 169.18 242.47 176.16"/><line class="cls-8" x1="290.08" y1="172.67" x2="308.68" y2="172.67"/><line class="cls-9" x1="355.27" y1="172.67" x2="368.85" y2="172.67"/><polygon points="356.29 176.16 350.25 172.67 356.29 169.18 356.29 176.16"/><path class="cls-10" d="M382.16,182.36c-5.47-5.91-5.86-12.31-1.13-17.77a60.31,60.31,0,0,0,22.44,7.15l-.7.22C396.18,174,389.37,176.05,382.16,182.36Z"/><path d="M381,164.59c-4.73,5.46-4.34,11.86,1.13,17.77,7.21-6.31,14-8.39,20.61-10.4l.7-.22A60.31,60.31,0,0,1,381,164.59Zm.12,18.69c-5.84-6.32-6.32-13.48-1.32-19.4-1.05-.64-2.11-1.32-3.17-2.07l.8-1.11c10.72,7.56,21,9,27.84,9.9l1.41.2a1.82,1.82,0,0,0-.09.67,2.09,2.09,0,0,0,.2.67c-1.22.38-2.43.77-3.64,1.13-7.82,2.39-15.21,4.63-23.48,13.36l-1-.94C379.52,184.82,380.34,184,381.15,183.28Z"/><path class="cls-11" d="M378.57,173.43c-.13-3,1.31-5.49,3.21-5.57s3.54,2.29,3.67,5.28-1.32,5.49-3.22,5.57S378.69,176.43,378.57,173.43Z"/><path class="cls-12" d="M379.1,172.8a2,2,0,1,1,2,2.33A2.18,2.18,0,0,1,379.1,172.8Z"/><rect class="cls-25" x="0.58" y="147.97" width="416" height="202.83"/><path class="cls-1" d="M228.75,324.67a19.47,19.47,0,1,1-19.47-19.47A19.47,19.47,0,0,1,228.75,324.67Z"/><path class="cls-1" d="M288.75,324.67a19.47,19.47,0,1,1-19.47-19.47A19.47,19.47,0,0,1,288.75,324.67Z"/><path class="cls-1" d="M348.75,324.67a19.47,19.47,0,1,1-19.47-19.47A19.47,19.47,0,0,1,348.75,324.67Z"/><path class="cls-1" d="M408.75,324.67a19.47,19.47,0,1,1-19.47-19.47A19.47,19.47,0,0,1,408.75,324.67Z"/><text class="cls-2" transform="translate(9.04 326.67)"><tspan class="cls-3">H</tspan><tspan x="7.93" y="0">ypothetical st</tspan><tspan class="cls-4" x="75.68" y="0">r</tspan><tspan class="cls-5" x="79.55" y="0">a</tspan><tspan class="cls-6" x="85.28" y="0">t</tspan><tspan x="89.18" y="0">egy (</tspan><tspan class="cls-7" x="113.51" y="0">s=3,t=1</tspan><tspan x="163.91" y="0">)</tspan></text><line class="cls-9" x1="229.92" y1="324.67" x2="243.49" y2="324.67"/><polygon points="242.47 328.16 248.51 324.67 242.47 321.18 242.47 328.16"/><line class="cls-9" x1="289.75" y1="324.67" x2="303.32" y2="324.67"/><polygon points="302.3 328.16 308.35 324.67 302.3 321.18 302.3 328.16"/><g id="Eye-3" data-name="Eye"><path class="cls-10" d="M382.16,334.36c-5.47-5.91-5.86-12.31-1.13-17.77a60.31,60.31,0,0,0,22.44,7.15l-.7.22C396.18,326,389.37,328.05,382.16,334.36Z"/><path d="M381,316.59c-4.73,5.46-4.34,11.86,1.13,17.77,7.21-6.31,14-8.39,20.61-10.4l.7-.22A60.31,60.31,0,0,1,381,316.59Zm.12,18.69c-5.84-6.32-6.32-13.48-1.32-19.4-1.05-.64-2.11-1.32-3.17-2.07l.8-1.11c10.72,7.56,21,9,27.84,9.9l1.41.2a1.82,1.82,0,0,0-.09.67,2.09,2.09,0,0,0,.2.67c-1.22.38-2.43.77-3.64,1.13-7.82,2.39-15.21,4.63-23.48,13.36l-1-.94C379.52,336.82,380.34,336,381.15,335.28Z"/><path class="cls-11" d="M378.57,325.43c-.13-3,1.31-5.49,3.21-5.57s3.54,2.29,3.67,5.28-1.32,5.49-3.22,5.57S378.69,328.43,378.57,325.43Z"/><path class="cls-12" d="M379.1,324.8a2,2,0,1,1,2,2.33A2.18,2.18,0,0,1,379.1,324.8Z"/></g><line class="cls-8" x1="350.25" y1="324.67" x2="368.85" y2="324.67"/><text class="cls-21" transform="translate(201.26 51.69)">s</text><polyline class="cls-26" points="212.09 332.46 216.31 339.67 213.47 331.81 218.95 338.13 214.71 330.92 221.25 336.12 215.77 329.82 223.16 333.73 216.6 328.54 224.58 331.02 217.19 327.12 225.49 328.1 217.51 325.63 225.85 325.06 217.54 324.1 225.64 322.01 217.3 322.59 224.87 319.05 216.78 321.15 223.57 316.28 216.01 319.83 221.79 313.8 215.01 318.68 219.58 311.68 213.81 317.73 217.02 310.01 212.46 317.01 214.19 308.84 211 316.56 211.2 308.21 209.48 316.38 208.15 308.13 207.95 316.49 205.13 308.62 206.47 316.87 202.25 309.66 205.09 317.52 199.61 311.21 203.84 318.41 197.3 313.21 202.79 319.52 195.4 315.61 201.95 320.8 193.97 318.31 201.37 322.21 193.06 321.23 201.05 323.7 192.71 324.27 201.01 325.23 192.92 327.32 201.26 326.74 193.69 330.28 201.77 328.18 194.98 333.05 202.55 329.5 196.77 335.54 203.55 330.65 198.98 337.65 204.75 331.61 201.54 339.32 206.1 332.32 204.36 340.49 207.56 332.77 207.35 341.13 209.08 332.95 210.41 341.2 210.61 332.85 213.43 340.71 212.09 332.46"/><polyline class="cls-26" points="212.09 282.46 216.31 289.67 213.47 281.81 218.95 288.13 214.71 280.92 221.25 286.12 215.77 279.82 223.16 283.73 216.6 278.54 224.58 281.02 217.19 277.12 225.49 278.1 217.51 275.63 225.85 275.06 217.54 274.1 225.64 272.01 217.3 272.59 224.87 269.05 216.78 271.15 223.57 266.28 216.01 269.83 221.79 263.8 215.01 268.68 219.58 261.68 213.81 267.73 217.02 260.01 212.46 267.01 214.19 258.84 211 266.56 211.2 258.21 209.48 266.38 208.15 258.13 207.95 266.49 205.13 258.62 206.47 266.87 202.25 259.66 205.09 267.52 199.61 261.21 203.84 268.41 197.3 263.21 202.79 269.52 195.4 265.61 201.95 270.8 193.97 268.31 201.37 272.21 193.06 271.23 201.05 273.7 192.71 274.27 201.01 275.23 192.92 277.32 201.26 276.74 193.69 280.28 201.77 278.18 194.98 283.05 202.55 279.5 196.77 285.54 203.55 280.65 198.98 287.65 204.75 281.61 201.54 289.32 206.1 282.32 204.36 290.49 207.56 282.77 207.35 291.13 209.08 282.95 210.41 291.2 210.61 282.85 213.43 290.71 212.09 282.46"/><polyline class="cls-26" points="212.09 232.46 216.31 239.67 213.47 231.81 218.95 238.13 214.71 230.92 221.25 236.12 215.77 229.82 223.16 233.73 216.6 228.54 224.58 231.02 217.19 227.12 225.49 228.1 217.51 225.63 225.85 225.06 217.54 224.1 225.64 222.01 217.3 222.59 224.87 219.05 216.78 221.15 223.57 216.28 216.01 219.83 221.79 213.8 215.01 218.68 219.58 211.68 213.81 217.73 217.02 210.01 212.46 217.01 214.19 208.84 211 216.56 211.2 208.21 209.48 216.38 208.15 208.13 207.95 216.49 205.13 208.62 206.47 216.87 202.25 209.66 205.09 217.52 199.61 211.21 203.84 218.41 197.3 213.21 202.79 219.52 195.4 215.61 201.95 220.8 193.97 218.31 201.37 222.21 193.06 221.23 201.05 223.71 192.71 224.27 201.01 225.23 192.92 227.32 201.26 226.74 193.69 230.28 201.77 228.18 194.98 233.05 202.55 229.5 196.77 235.53 203.55 230.66 198.98 237.65 204.75 231.6 201.54 239.32 206.1 232.32 204.36 240.49 207.56 232.77 207.35 241.13 209.08 232.95 210.41 241.2 210.61 232.85 213.43 240.71 212.09 232.46"/><polyline class="cls-26" points="212.09 180.46 216.31 187.67 213.47 179.81 218.95 186.13 214.71 178.92 221.25 184.12 215.77 177.82 223.16 181.73 216.6 176.54 224.58 179.02 217.19 175.12 225.49 176.1 217.51 173.63 225.85 173.06 217.54 172.1 225.64 170.01 217.3 170.59 224.87 167.05 216.78 169.15 223.57 164.28 216.01 167.83 221.79 161.8 215.01 166.68 219.58 159.68 213.81 165.73 217.02 158.01 212.46 165.01 214.19 156.84 211 164.56 211.2 156.21 209.48 164.38 208.15 156.13 207.95 164.49 205.13 156.62 206.47 164.87 202.25 157.66 205.09 165.52 199.61 159.21 203.84 166.41 197.3 161.21 202.79 167.52 195.4 163.61 201.95 168.8 193.97 166.31 201.37 170.21 193.06 169.23 201.05 171.71 192.71 172.27 201.01 173.23 192.92 175.32 201.26 174.74 193.69 178.28 201.77 176.18 194.98 181.05 202.55 177.5 196.77 183.53 203.55 178.66 198.98 185.65 204.75 179.6 201.54 187.32 206.1 180.32 204.36 188.49 207.56 180.77 207.35 189.13 209.08 180.95 210.41 189.2 210.61 180.85 213.43 188.71 212.09 180.46"/><polyline class="cls-26" points="152.09 49.61 156.31 56.82 153.47 48.96 158.95 55.27 154.71 48.07 161.25 53.27 155.77 46.96 163.16 50.87 156.6 45.68 164.58 48.17 157.19 44.27 165.49 45.24 157.51 42.77 165.85 42.21 157.54 41.24 165.64 39.16 157.3 39.73 164.87 36.2 156.78 38.3 163.57 33.43 156.01 36.98 161.79 30.94 155.01 35.82 159.58 28.83 153.81 34.87 157.02 27.16 152.46 34.16 154.19 25.98 151 33.7 151.2 25.35 149.48 33.53 148.15 25.28 147.95 33.63 145.13 25.77 146.47 34.02 142.25 26.8 145.09 34.66 139.61 28.35 143.84 35.56 137.3 30.36 142.79 36.66 135.4 32.75 141.95 37.94 133.97 35.46 141.37 39.35 133.06 38.38 141.05 40.85 132.71 41.41 141.01 42.38 132.92 44.47 141.26 43.89 133.69 47.43 141.77 45.33 134.98 50.2 142.55 46.65 136.77 52.68 143.55 47.8 138.98 54.79 144.75 48.75 141.54 56.47 146.1 49.46 144.36 57.64 147.56 49.92 147.35 58.27 149.08 50.09 150.41 58.34 150.61 49.99 153.43 57.85 152.09 49.61"/></svg>