<svg id="Layer_1" data-name="Layer 1" xmlns="http://www.w3.org/2000/svg" viewBox="0 0 241.171 235.122"><defs><style>.cls-1{fill:#bbbdbf;}.cls-2{fill:#fff;}.cls-3{fill:#212121;}.cls-4,.cls-5,.cls-6,.cls-7,.cls-8,.cls-9{fill:none;}.cls-10,.cls-4,.cls-5{stroke:#000;}.cls-10,.cls-4,.cls-5,.cls-6,.cls-7,.cls-8,.cls-9{stroke-miterlimit:10;}.cls-4,.cls-6,.cls-7,.cls-8,.cls-9{stroke-width:2px;}.cls-5{stroke-width:4px;}.cls-6,.cls-7,.cls-8,.cls-9{stroke:gray;}.cls-7{stroke-dasharray:7.54 7.54;}.cls-8{stroke-dasharray:7.492 7.492;}.cls-9{stroke-dasharray:7.923 7.923;}.cls-10{fill:#fcee21;stroke-width:0.137px;}</style></defs><title>Artboard 9</title><g id="Eye"><g id="_Group_" data-name="&lt;Group&gt;"><path class="cls-1" d="M52.167,109.559c3.559,9.294,1.071,16.823-6.878,20.906-7.573-9.554-16.076-14.848-22.466-18.532.3.017.589.054.906.076C32.226,112.729,40.993,113.486,52.167,109.559Z"/><path d="M45.289,130.465c7.949-4.083,10.437-11.612,6.878-20.906-11.174,3.927-19.941,3.17-28.438,2.45-.317-.022-.609-.059-.906-.076C29.213,115.617,37.716,120.911,45.289,130.465Zm8.464-21.5c3.793,9.944,1.048,18.38-7.411,22.873.91,1.217,1.817,2.48,2.686,3.83l-1.423.909c-8.837-13.61-20.01-19.966-27.4-24.174l-1.528-.889a2.136,2.136,0,0,0,.414-.722,2.429,2.429,0,0,0,.069-.858c1.585.119,3.146.235,4.7.375,10.077.862,19.591,1.694,33.1-4.525l.708,1.533C56.334,107.942,55.03,108.477,53.753,108.968Z"/></g><path class="cls-2" d="M52.185,121.456c-1.233,3.5-4.032,5.695-6.249,4.912s-3.015-4.256-1.78-7.747,4.036-5.693,6.254-4.91S53.424,117.963,52.185,121.456Z"/><path class="cls-3" d="M51.287,121.934a2.489,2.489,0,1,1-4.561-1.849,2.49,2.49,0,1,1,4.561,1.849Z"/></g><rect class="cls-4" x="13.881" y="24.295" width="193.581" height="193.581"/><line class="cls-5" x1="84.629" y1="24.295" x2="139.629" y2="24.295"/><polyline class="cls-4" points="138.379 44.537 138.379 98.287 84.629 98.287 84.629 44.537"/><line class="cls-6" x1="139.629" y1="66.08" x2="142.188" y2="69.155"/><line class="cls-7" x1="147.013" y1="74.949" x2="202.491" y2="141.59"/><polyline class="cls-6" points="204.903 144.487 207.463 147.561 204.948 150.672"/><line class="cls-8" x1="200.239" y1="156.499" x2="155.498" y2="211.852"/><polyline class="cls-6" points="153.144 214.766 150.629 217.876 147.854 214.996"/><line class="cls-9" x1="142.358" y1="209.29" x2="68.153" y2="132.26"/><line class="cls-6" x1="65.404" y1="129.407" x2="62.629" y2="126.526"/><polyline class="cls-4" points="64.879 125.955 207.463 94.08 122.629 24.295 115.448 51.128"/><polyline class="cls-10" points="114.524 80.133 119.065 87.889 116.013 79.436 121.902 86.225 117.349 78.476 124.385 84.068 118.485 77.288 126.429 81.491 119.384 75.911 127.965 78.583 120.015 74.392 128.941 75.442 120.356 72.783 129.323 72.175 120.395 71.139 129.098 68.894 120.132 69.516 128.273 65.71 119.575 67.968 126.878 62.731 118.742 66.55 124.96 60.06 117.664 65.308 122.583 57.786 116.376 64.286 119.828 55.988 114.922 63.518 116.791 54.727 113.351 63.03 113.573 54.046 111.718 62.839 110.285 53.967 110.077 62.952 107.038 54.494 108.485 63.364 103.944 55.608 106.996 64.062 101.107 57.272 105.66 65.021 98.624 59.429 104.523 66.209 96.579 62.006 103.624 67.587 95.043 64.914 102.994 69.105 94.068 68.055 102.653 70.714 93.686 71.322 102.613 72.358 93.911 74.603 102.877 73.982 94.735 77.788 103.434 75.529 96.13 80.766 104.266 76.947 98.049 83.438 105.345 78.189 100.426 85.711 106.633 79.211 103.18 87.509 108.087 79.979 106.218 88.77 109.658 80.467 109.435 89.452 111.291 80.658 112.724 89.53 112.932 80.545 115.97 89.004 114.524 80.133"/><path d="M202.687,147.559a4.776,4.776,0,1,0,4.778-4.775A4.777,4.777,0,0,0,202.687,147.559Z"/><path d="M145.853,217.874a4.776,4.776,0,1,0,4.779-4.775A4.778,4.778,0,0,0,145.853,217.874Z"/><path d="M202.687,94.305a4.776,4.776,0,1,0,4.778-4.775A4.778,4.778,0,0,0,202.687,94.305Z"/><path d="M118.853,24.293a4.776,4.776,0,1,0,4.779-4.775A4.778,4.778,0,0,0,118.853,24.293Z"/><path d="M110.672,51.126a4.776,4.776,0,1,0,4.778-4.775A4.778,4.778,0,0,0,110.672,51.126Z"/><path d="M134.853,66.078a4.776,4.776,0,1,0,4.779-4.775A4.778,4.778,0,0,0,134.853,66.078Z"/><path d="M57.853,126.524a4.776,4.776,0,1,0,4.779-4.775A4.778,4.778,0,0,0,57.853,126.524Z"/></svg>