<svg id="Layer_1" data-name="Layer 1" xmlns="http://www.w3.org/2000/svg" viewBox="0 0 610.69 278.782"><defs><style>.cls-1,.cls-2,.cls-4{fill:none;}.cls-1{stroke:#a8a8a8;}.cls-1,.cls-4,.cls-5{stroke-width:2px;}.cls-2{stroke:#919191;}.cls-3,.cls-4,.cls-5{stroke:#000;}.cls-3,.cls-5{opacity:0.15;}</style></defs><title>Artboard 4</title><path class="cls-1" d="M144.686,264.455l3.057-.24,3-.766,2.924-1.269,2.843-1.747,2.755-2.2,2.657-2.629,2.554-3.033,2.446-3.412,2.333-3.765,2.216-4.1,2.095-4.4,1.973-4.687,1.847-4.95,1.719-5.191,1.591-5.413,1.461-5.615,1.33-5.8,1.2-5.963,1.066-6.112.935-6.243.8-6.358.668-6.458.535-6.542.4-6.611.268-6.666.134-6.706v-6.732l-.134-6.743-.267-6.74-.4-6.722-.536-6.69-.67-6.642-.805-6.577-.938-6.5-1.074-6.4-1.207-6.289-1.341-6.156-1.474-6-1.606-5.835L177.3,57.9l-1.867-5.431-1.995-5.2-2.122-4.938-2.243-4.656-2.363-4.348-2.479-4.015-2.588-3.654L158.948,22.4l-2.791-2.852-2.881-2.407L150.313,15.2l-3.034-1.439-3.094-.912-3.141-.362-1.106.074"/><path class="cls-2" d="M158.83,87.8l-48.284,35.762-2.3-5.086,48.1-36.01Z"/><path class="cls-2" d="M156.347,82.47l-48.1,36.01-3.313-4.882L152.91,77.267Z"/><path class="cls-2" d="M152.91,77.267,104.931,113.6l-4.123-4.374,47.917-36.709Z"/><path class="cls-2" d="M148.725,72.515l-47.917,36.709-4.683-3.59,47.922-37.119Z"/><path class="cls-2" d="M144.047,68.515,96.125,105.634,91.17,103.07l47.991-37.539Z"/><path class="cls-2" d="M139.161,65.531,91.17,103.07l-4.91-1.352L134.379,63.78Z"/><path class="cls-2" d="M134.379,63.78,86.26,101.718l-4.539-.019,48.3-38.291Z"/><path class="cls-2" d="M130.023,63.408,81.721,101.7l-3.847,1.349L126.4,64.479Z"/><path class="cls-2" d="M126.4,64.479,77.874,103.048l-2.869,2.658,48.78-38.748Z"/><path class="cls-2" d="M123.785,66.958l-48.78,38.748-1.66,3.808L122.392,70.7Z"/><path class="cls-2" d="M122.392,70.7,73.345,109.514l-.307,4.7L122.35,75.464Z"/><path class="cls-2" d="M122.35,75.464,73.038,114.217l1.094,5.266,49.553-38.575Z"/><path class="cls-2" d="M123.685,80.908,74.132,119.483l2.424,5.437,49.756-38.291Z"/><path class="cls-2" d="M126.312,86.629,76.556,124.92l3.577,5.2,49.9-37.924Z"/><path class="cls-2" d="M130.036,92.2l-49.9,37.924,4.459,4.577,49.98-37.505Z"/><path class="cls-2" d="M134.572,97.193,84.592,134.7l5,3.621,49.982-37.068Z"/><path class="cls-2" d="M139.574,101.251,89.592,138.319l5.167,2.415,49.909-36.642Z"/><path class="cls-2" d="M144.668,104.092,94.759,140.734l4.963,1.063,49.764-36.26Z"/><path class="cls-2" d="M149.486,105.537,99.722,141.8l4.417-.332L153.7,105.522Z"/><path class="cls-2" d="M153.7,105.522l-49.559,35.943,3.583-1.668,49.313-35.71Z"/><path class="cls-2" d="M157.035,104.087,107.722,139.8l2.534-2.86L159.3,101.364Z"/><path class="cls-2" d="M159.3,101.364l-49.042,35.573L111.6,133.1l48.769-35.537Z"/><path class="cls-2" d="M160.369,97.561,111.6,133.1l.092-4.556,48.51-35.6Z"/><path class="cls-2" d="M160.2,92.941l-48.51,35.6-1.146-4.976L158.83,87.8Z"/><path class="cls-2" d="M152.816,194.688l1.817-1.144,1.728-1.176,1.635-1.2,1.533-1.227-.433-1.331-.271-1.284-.108-1.214.06-1.123-1.594,1.284-1.7,1.257-1.8,1.228-1.887,1.192.06,1.033.192,1.149.32,1.242Z"/><path class="cls-2" d="M159.529,189.938l1.427-1.247,1.314-1.26,1.2-1.271,1.073-1.277-.428-1.35-.236-1.332-.045-1.289.15-1.224-1.114,1.339-1.243,1.333-1.365,1.321-1.482,1.3-.06,1.123.108,1.214.271,1.284Z"/><path class="cls-2" d="M164.54,184.883l.945-1.277.812-1.273.677-1.263.535-1.25-.427-1.374-.217-1.384-.007-1.371.206-1.331-.556,1.317-.7,1.33-.844,1.339-.982,1.342-.15,1.224.045,1.289.236,1.332Z"/><path class="cls-2" d="M167.509,179.82l.392-1.23.245-1.207.1-1.177-.055-1.143-.431-1.4-.215-1.44,0-1.452.222-1.439.057,1.212-.1,1.245-.254,1.274-.407,1.3-.206,1.331.007,1.371.217,1.384Z"/><path class="cls-2" d="M168.188,175.063l-.206-1.1-.359-1.06-.511-1.012-.664-.957-.442-1.43-.231-1.493-.021-1.53.192-1.539.693,1.021.535,1.075.376,1.127.216,1.17-.222,1.439,0,1.452.215,1.44Z"/><path class="cls-2" d="M166.448,170.93l-.815-.9-.965-.837-1.111-.769-1.255-.7-.455-1.458-.268-1.542-.078-1.6.116-1.626,1.311.752,1.159.827,1.007.9.852.961-.192,1.539.021,1.53.231,1.493Z"/><path class="cls-2" d="M162.3,167.726l-1.394-.624-1.529-.544-1.658-.463-1.782-.378-.474-1.484-.323-1.581L154.976,161l-.006-1.692,1.861.418,1.732.508,1.6.592,1.456.675-.116,1.626.078,1.6.268,1.542Z"/><path class="cls-2" d="M155.939,165.717l-1.9-.292-2.006-.2-2.107-.11-2.2-.017-.5-1.5-.392-1.608-.284-1.682-.168-1.729,2.3.039,2.2.136,2.1.233,1.983.326.006,1.692.166,1.651.323,1.581Z"/><path class="cls-2" d="M147.731,165.1l-2.278.077-2.35.172-2.411.264-2.46.359-.52-1.519-.474-1.618-.42-1.689-.36-1.731,2.572-.359,2.521-.259,2.457-.159,2.383-.061.168,1.729.284,1.682.392,1.608Z"/><path class="cls-2" d="M138.232,165.97l-2.5.45-2.523.542-2.535.63-2.535.716-.544-1.526-.561-1.611-.567-1.668-.565-1.7,2.651-.737,2.652-.646,2.638-.552,2.611-.456.36,1.731.42,1.689.474,1.618Z"/><path class="cls-2" d="M128.143,168.308l-2.524.8-2.5.877-2.461.952-2.411,1.021-.565-1.524-.643-1.586-.711-1.621-.766-1.632,2.519-1.064,2.573-.99,2.612-.909,2.638-.826.565,1.7.567,1.668.561,1.611Z"/><path class="cls-2" d="M118.249,171.956l-2.349,1.087-2.274,1.146-2.19,1.2-2.093,1.248-.581-1.514-.716-1.546-.837-1.553-.944-1.536,2.184-1.307,2.285-1.256,2.376-1.2,2.454-1.134.766,1.632.711,1.621.643,1.586Z"/><path class="cls-2" d="M109.343,176.636l-1.985,1.288-1.87,1.324-1.745,1.351-1.611,1.373-.593-1.5-.771-1.494-.934-1.47-1.084-1.42,1.676-1.443,1.818-1.421,1.949-1.389,2.072-1.352.944,1.536.837,1.553.716,1.546Z"/><path class="cls-2" d="M102.132,181.972l-1.47,1.387-1.323,1.393-1.169,1.395-1.013,1.388-.6-1.471-.8-1.436-1-1.378-1.173-1.3,1.048-1.464,1.213-1.47,1.373-1.468,1.529-1.46,1.084,1.42.934,1.47.771,1.494Z"/><path class="cls-2" d="M97.157,187.535l-.85,1.376-.686,1.356-.52,1.33-.353,1.3-.594-1.444-.814-1.376-1.017-1.286-1.2-1.175.356-1.372.531-1.405.7-1.432.877-1.451,1.173,1.3,1,1.378.8,1.436Z"/><path class="cls-2" d="M94.748,192.9l-.185,1.26-.017,1.218.146,1.169.31,1.115-.586-1.414-.8-1.32-1-1.2-1.181-1.065-.338-1.182-.166-1.238.006-1.289.18-1.333,1.2,1.175,1.017,1.286.814,1.376Z"/><path class="cls-2" d="M95,197.657l.47,1.058.626,1,.777.93.924.862-.572-1.387-.767-1.269-.945-1.132-1.109-.974-.977-.916-.824-.989-.666-1.058-.5-1.122,1.181,1.065,1,1.2.8,1.32Z"/><path class="cls-2" d="M97.8,201.5l1.065.789,1.2.715,1.328.637,1.45.559-.554-1.36-.717-1.229-.863-1.078-1-.907-1.521-.6-1.4-.683-1.263-.763-1.123-.842,1.109.974.945,1.132.767,1.269Z"/><path class="cls-2" d="M102.842,204.2l1.563.479,1.67.4,1.769.315,1.859.233-.534-1.338-.653-1.2-.762-1.044-.856-.867-1.945-.258-1.852-.345-1.751-.431-1.64-.516,1,.907.863,1.078.717,1.229Z"/><path class="cls-2" d="M109.7,205.628l1.941.151,2.016.068,2.081-.015,2.137-.095-.513-1.321-.586-1.185-.646-1.028-.7-.854-2.23.087h-2.173l-2.106-.085-2.03-.172.856.867.762,1.044.653,1.2Z"/><path class="cls-2" d="M117.878,205.737l2.184-.176,2.225-.254,2.255-.332,2.277-.407-.492-1.311-.514-1.181-.525-1.033-.528-.866-2.372.414-2.351.335-2.32.253-2.28.17.7.854.646,1.028.586,1.185Z"/><path class="cls-2" d="M126.819,204.568l2.29-.482,2.295-.553,2.292-.621,2.28-.688-.474-1.306-.442-1.191-.406-1.056-.362-.9-2.372.709-2.385.64-2.389.566-2.386.491.528.866.525,1.033.514,1.181Z"/><path class="cls-2" d="M135.976,202.224l2.259-.752,2.23-.813,2.195-.871,2.15-.925-.456-1.308-.377-1.211-.293-1.095-.2-.958-2.236.96-2.282.9-2.32.841-2.351.777.362.9.406,1.056.442,1.191Z"/><path class="cls-2" d="M144.81,198.863l2.1-.976,2.039-1.024,1.971-1.068,1.9-1.107-.442-1.317-.32-1.242-.192-1.149-.06-1.033L149.83,191.1l-2.05,1.112-2.118,1.064-2.181,1.014.2.958.293,1.095.377,1.211Z"/><path class="cls-2" d="M151.8,189.947l1.887-1.192,1.8-1.228,1.7-1.257,1.594-1.284.222-1.013.383-.885.534-.745.676-.589-1.772,1.431-1.887,1.4-2,1.366-2.1,1.327-.443.423-.325.593-.2.753Z"/><path class="cls-2" d="M158.777,184.986l1.482-1.3,1.365-1.321,1.243-1.333,1.114-1.339.34-1.139.523-1.032.695-.91.856-.773-1.245,1.5-1.386,1.489-1.521,1.475-1.651,1.456-.676.589-.534.745-.383.885Z"/><path class="cls-2" d="M163.981,179.688l.982-1.342.844-1.339.7-1.33.556-1.317.412-1.27.612-1.186.8-1.085.972-.962-.628,1.48-.789,1.493-.947,1.5-1.1,1.5-.856.773-.695.91-.523,1.032Z"/><path class="cls-2" d="M167.064,174.36l.407-1.3.254-1.274.1-1.245-.057-1.212.433-1.4.64-1.341.832-1.257,1.011-1.151.054,1.37-.122,1.406-.294,1.437-.462,1.462-.972.962-.8,1.085-.612,1.186Z"/><path class="cls-2" d="M167.766,169.331l-.216-1.17-.376-1.127-.535-1.075-.693-1.021.4-1.524.6-1.483.79-1.417.966-1.326.762,1.164.584,1.225.407,1.278.228,1.327-1.011,1.151-.832,1.257-.64,1.341Z"/><path class="cls-2" d="M165.946,164.938l-.852-.961-1.007-.9-1.159-.827-1.311-.752.305-1.629.489-1.6.665-1.552.83-1.474,1.455.868,1.286.951,1.115,1.028.939,1.1-.966,1.326-.79,1.417-.6,1.483Z"/><path class="cls-2" d="M161.617,161.5l-1.456-.675-1.6-.592-1.732-.508-1.861-.418.151-1.706.31-1.693.459-1.651.605-1.58,2.079.5,1.933.6,1.779.69,1.62.783-.83,1.474-.665,1.552-.489,1.6Z"/><path class="cls-2" d="M154.97,159.309l-1.983-.326-2.1-.233-2.2-.136-2.3-.039-.052-1.748.067-1.738.182-1.7.3-1.633,2.577.067,2.466.178,2.348.287,2.218.392-.605,1.58-.459,1.651-.31,1.693Z"/><path class="cls-2" d="M146.391,158.575l-2.383.061-2.457.159-2.521.259-2.572.359-.294-1.748-.222-1.735-.147-1.693-.07-1.624,2.892-.384,2.834-.271,2.76-.158,2.675-.045-.3,1.633-.182,1.7-.067,1.738Z"/><path class="cls-2" d="M136.458,159.413l-2.611.456-2.638.552-2.652.646-2.651.737-.554-1.7-.534-1.678-.5-1.627-.468-1.549,2.986-.819,2.986-.714,2.97-.606,2.938-.5.07,1.624.147,1.693.222,1.735Z"/><path class="cls-2" d="M125.906,161.8l-2.638.826-2.612.909-2.573.99-2.519,1.064-.81-1.615-.841-1.572-.857-1.506-.862-1.411,2.838-1.195,2.9-1.109,2.943-1.017,2.972-.92.468,1.549.5,1.627.534,1.678Z"/><path class="cls-2" d="M115.564,165.593l-2.454,1.134-2.376,1.2-2.285,1.256-2.184,1.307-1.037-1.493-1.115-1.427-1.172-1.338L101.73,165l2.455-1.475,2.572-1.416,2.675-1.349,2.762-1.275.862,1.411.857,1.506.841,1.572Z"/><path class="cls-2" d="M106.265,170.487l-2.072,1.352-1.949,1.389-1.818,1.421-1.676,1.443-1.215-1.349-1.328-1.255-1.418-1.141L93.3,171.34l1.876-1.633,2.037-1.606,2.187-1.57L101.73,165l1.211,1.225,1.172,1.338,1.115,1.427Z"/><path class="cls-2" d="M98.75,176.092l-1.529,1.46-1.373,1.468-1.213,1.47-1.048,1.464-1.328-1.2L90.8,179.687l-1.576-.934-1.662-.778,1.16-1.658,1.348-1.663,1.53-1.662L93.3,171.34l1.486,1.007,1.418,1.141,1.328,1.255Z"/><path class="cls-2" d="M93.587,181.954l-.877,1.451-.7,1.432-.531,1.405-.356,1.372-1.371-1.045-1.516-.9-1.635-.735-1.728-.56.376-1.551.575-1.59.771-1.62.967-1.642,1.662.778,1.576.934,1.464,1.072Z"/><path class="cls-2" d="M91.118,187.614l-.18,1.333-.006,1.289.166,1.238.338,1.182-1.344-.911-1.484-.74-1.6-.56-1.688-.369-.4-1.335-.213-1.4-.017-1.456.178-1.508,1.728.56,1.635.735,1.516.9Z"/><path class="cls-2" d="M91.436,192.656l.5,1.122.666,1.058.824.989.977.916-1.253-.8-1.377-.615L90.3,194.9l-1.551-.217-1.117-1.034-.948-1.116-.771-1.194-.59-1.267,1.688.369,1.6.56,1.484.74Z"/><path class="cls-2" d="M94.406,196.741l1.123.842,1.263.763,1.4.683,1.521.6-1.112-.724-1.209-.526-1.285-.323-1.339-.112-1.72-.678-1.582-.77-1.435-.86-1.28-.949,1.551.217,1.477.42,1.377.615Z"/><path class="cls-2" d="M99.71,199.629l1.64.516,1.751.431,1.852.345,1.945.258-.934-.678-1-.476-1.043-.27-1.07-.057-2.184-.294-2.083-.39-1.97-.487-1.851-.583,1.339.112,1.285.323,1.209.526Z"/><path class="cls-2" d="M106.9,201.179l2.03.172,2.106.085h2.173l2.23-.087-.733-.665-.758-.466-.769-.261-.768-.05-2.493.091-2.429,0-2.359-.1-2.275-.2,1.07.057,1.043.27,1,.476Z"/><path class="cls-2" d="M115.437,201.349l2.28-.17,2.32-.253,2.351-.335,2.372-.414-.521-.684-.507-.492-.481-.293-.449-.088-2.642.456-2.62.368-2.587.277-2.544.186.768.05.769.261.758.466Z"/><path class="cls-2" d="M124.76,200.177l2.386-.491,2.389-.566,2.385-.64,2.372-.709-.31-.733-.255-.55-.194-.363-.132-.167-2.636.786-2.651.707-2.658.626-2.654.543.449.088.481.293.507.492Z"/><path class="cls-2" d="M134.292,197.771l2.351-.777,2.32-.841,2.282-.9,2.236-.96-.11-.805-.016-.64.077-.464.171-.28-2.482,1.064-2.533,1-2.577.932-2.61.86.132.167.194.363.255.55Z"/><path class="cls-2" d="M143.481,194.291l2.181-1.014,2.118-1.064,2.05-1.112,1.972-1.154.07-.9.2-.753.325-.593.443-.423-2.189,1.282-2.275,1.235-2.353,1.182L143.6,192.1l-.171.28-.077.464.016.64Z"/><path class="cls-2" d="M152.84,187.278l2.1-1.327,2-1.366,1.887-1.4,1.772-1.431.8-.427.92-.257,1.018-.085,1.1.088-2.021,1.627-2.15,1.592-2.273,1.553-2.384,1.507-.817-.284-.741-.108-.654.069Z"/><path class="cls-2" d="M160.592,181.754l1.651-1.456,1.521-1.475,1.386-1.489,1.245-1.5,1-.622,1.128-.462,1.234-.3,1.32-.124-1.431,1.71-1.588,1.7-1.741,1.68-1.885,1.656-1.1-.088-1.018.085-.92.257Z"/><path class="cls-2" d="M166.4,175.834l1.1-1.5.947-1.5.789-1.493.628-1.48,1.127-.826,1.263-.676,1.377-.515,1.466-.345-.735,1.7-.918,1.708-1.095,1.715-1.265,1.716-1.32.124-1.234.3-1.128.462Z"/><path class="cls-2" d="M169.858,169.857l.462-1.462.294-1.437.122-1.406-.054-1.37,1.172-1.027,1.314-.887,1.43-.731,1.525-.563.036,1.577L176,164.168l-.357,1.651-.549,1.676-1.466.345-1.377.515-1.263.676Z"/><path class="cls-2" d="M170.682,164.182l-.228-1.327-.407-1.278-.584-1.225-.762-1.164,1.124-1.214,1.267-1.082,1.384-.932,1.481-.765.846,1.351.644,1.418.439,1.478.237,1.532-1.525.563-1.43.731-1.314.887Z"/><path class="cls-2" d="M168.7,159.188l-.939-1.1-1.115-1.028-1.286-.951-1.455-.868.98-1.372L166,152.625l1.23-1.1,1.326-.935,1.646,1.019,1.451,1.112,1.252,1.2,1.051,1.278-1.481.765-1.384.932-1.267,1.082Z"/><path class="cls-2" d="M163.906,155.243l-1.62-.783-1.779-.69-1.933-.6-2.079-.5.736-1.485.86-1.364.966-1.222,1.059-1.056,2.375.593,2.2.707,2.024.816,1.839.921-1.326.935-1.23,1.1-1.115,1.246Z"/><path class="cls-2" d="M156.5,152.679l-2.218-.392L151.929,152l-2.466-.178-2.577-.067.406-1.541.51-1.422.6-1.279.689-1.113,2.962.1,2.832.227,2.69.352,2.537.475-1.059,1.056-.966,1.222-.86,1.364Z"/><path class="cls-2" d="M146.886,151.755l-2.675.045-2.76.158-2.834.271-2.892.384.008-1.529.089-1.407.165-1.262.242-1.1,3.339-.427,3.269-.3,3.18-.164,3.078-.032-.689,1.113-.6,1.279-.51,1.422Z"/><path class="cls-2" d="M135.725,152.613l-2.938.5-2.97.606-2.986.714-2.986.819-.423-1.445-.371-1.318-.313-1.168-.249-1,3.457-.938,3.454-.815,3.434-.688,3.4-.56-.242,1.1-.165,1.262-.089,1.407Z"/><path class="cls-2" d="M123.845,155.248l-2.972.92-2.943,1.017-2.9,1.109-2.838,1.195-.85-1.3-.826-1.158-.787-1-.736-.825,3.287-1.382,3.357-1.279,3.408-1.171,3.442-1.057.249,1,.313,1.168.371,1.318Z"/><path class="cls-2" d="M112.194,159.489l-2.762,1.275-2.675,1.349-2.572,1.416L101.73,165l-1.231-1.093-1.231-.943-1.211-.776-1.171-.594,2.839-1.711,2.975-1.641,3.1-1.562,3.2-1.475.736.825.787,1,.826,1.158Z"/><path class="cls-2" d="M101.73,165,99.4,166.531l-2.187,1.57-2.037,1.606L93.3,171.34l-1.53-.857-1.548-.692-1.543-.516-1.51-.328,2.158-1.894,2.346-1.863,2.523-1.821,2.687-1.771,1.171.594,1.211.776,1.231.943Z"/><path class="cls-2" d="M93.3,171.34,91.6,172.992l-1.53,1.662-1.348,1.663-1.16,1.658-1.72-.611-1.752-.432-1.753-.246-1.725-.053,1.316-1.918,1.538-1.927,1.752-1.926,1.959-1.915,1.51.328,1.543.516,1.548.692Z"/><path class="cls-2" d="M87.557,177.975l-.967,1.642-.771,1.62-.575,1.59-.376,1.551L83.076,184l-1.827-.185-1.832.01-1.805.2.4-1.79.635-1.836.864-1.872,1.093-1.9,1.725.053,1.753.246,1.752.432Z"/><path class="cls-2" d="M84.868,184.378l-.178,1.508.017,1.456.213,1.4.4,1.335-1.747-.171-1.779.028-1.781.228-1.752.426-.5-1.534-.276-1.608-.053-1.676.175-1.738,1.805-.2,1.832-.01,1.827.185Z"/><path class="cls-2" d="M85.322,190.076l.59,1.267.771,1.194.948,1.116,1.117,1.034-1.6-.012-1.622.2-1.617.4-1.584.594-1.314-1.18-1.12-1.276-.918-1.367-.711-1.452,1.752-.426,1.781-.228,1.779-.028Z"/><path class="cls-2" d="M88.748,194.687l1.28.949,1.435.86,1.582.77,1.72.678-1.369.1-1.378.307-1.362.51-1.324.7-1.995-.768-1.84-.874-1.673-.978-1.5-1.082,1.584-.594,1.617-.4,1.622-.2Z"/><path class="cls-2" d="M94.765,197.944l1.851.583,1.97.487,2.083.39,2.184.294-1.079.153-1.072.363-1.043.565-1,.755-2.512-.326-2.4-.438-2.275-.548-2.141-.658,1.324-.7,1.362-.51,1.378-.307Z"/><path class="cls-2" d="M102.853,199.7l2.275.2,2.359.1,2.429,0,2.493-.091-.753.158-.725.364-.686.563-.634.75-2.851.112-2.782,0-2.7-.106-2.614-.217,1-.755,1.043-.565,1.072-.363Z"/><path class="cls-2" d="M112.409,199.907l2.544-.186,2.587-.277,2.62-.368,2.642-.456-.41.115-.363.316-.31.51-.253.694-3.009.524-2.987.424-2.952.322-2.907.217.634-.75.686-.563.725-.364Z"/><path class="cls-2" d="M122.8,198.62l2.654-.543,2.658-.626,2.651-.707,2.636-.786-.067.029,0,.223.063.412.127.594-3,.895-3.014.807-3.024.716-3.022.621.253-.694.31-.51.363-.316Z"/><path class="cls-2" d="M133.4,195.958l2.61-.86,2.577-.932,2.533-1L143.6,192.1l.258-.095.342.093.419.276.487.455-2.817,1.21-2.877,1.136-2.927,1.06-2.966.979-.127-.594-.063-.412,0-.223Z"/><path class="cls-2" d="M143.6,192.1l2.42-1.125,2.353-1.182,2.275-1.235,2.189-1.282.553-.249.654-.069.741.108.817.284-2.489,1.457-2.585,1.4-2.672,1.342-2.75,1.278-.487-.455-.419-.276-.342-.093Z"/><path class="cls-2" d="M155.6,187.352l2.384-1.507,2.273-1.553,2.15-1.592,2.021-1.627,1.16.259,1.2.424,1.223.581,1.225.729-2.275,1.818-2.417,1.779L162,188.4l-2.675,1.685-.968-.9-.954-.764-.923-.614Z"/><path class="cls-2" d="M164.433,181.073l1.885-1.656,1.741-1.68,1.588-1.7,1.431-1.71,1.383.047,1.422.219,1.439.384,1.431.544-1.623,1.913-1.8,1.9-1.964,1.878-2.124,1.852-1.225-.729-1.223-.581-1.2-.424Z"/><path class="cls-2" d="M171.078,174.33l1.265-1.716,1.095-1.715.918-1.708.735-1.7,1.532-.172,1.572,0,1.584.181,1.572.354-.852,1.9-1.055,1.915-1.251,1.922-1.44,1.921-1.431-.544-1.439-.384-1.422-.219Z"/><path class="cls-2" d="M175.091,167.5l.549-1.676.357-1.651.162-1.617-.036-1.577,1.592-.388,1.634-.205,1.648-.02,1.634.167.009,1.777-.214,1.82L182,165.98l-.644,1.883-1.572-.354-1.584-.181-1.572,0Z"/><path class="cls-2" d="M176.123,160.974l-.237-1.532-.439-1.478-.644-1.418-.846-1.351,1.55-.588,1.6-.4,1.615-.205,1.605,0,.922,1.529.69,1.6.462,1.669.234,1.726L181,160.361l-1.648.02-1.634.205Z"/><path class="cls-2" d="M173.957,155.2l-1.051-1.278-1.252-1.2-1.451-1.112-1.646-1.019,1.4-.755,1.449-.562,1.474-.359,1.475-.148,1.831,1.161,1.608,1.265,1.38,1.36L180.323,154l-1.605,0-1.615.205-1.6.4Z"/><path class="cls-2" d="M168.557,150.589l-1.839-.921-2.024-.816-2.2-.707-2.375-.593,1.132-.875,1.189-.676,1.224-.468,1.239-.248,2.669.683,2.469.811,2.264.935,2.05,1.051-1.475.148-1.474.359-1.449.562Z"/><path class="cls-2" d="M160.116,147.552l-2.537-.475-2.69-.352-2.832-.227-2.962-.1.763-.93.825-.728.873-.516.906-.29,3.351.121,3.2.268,3.034.411,2.855.549-1.239.248-1.224.468-1.189.676Z"/><path class="cls-2" d="M149.1,146.4l-3.078.032-3.18.164-3.269.3-3.339.427.313-.909.381-.706.441-.491.5-.264,3.8-.481,3.711-.328,3.608-.177,3.487-.027-.906.29-.873.516-.825.728Z"/><path class="cls-2" d="M136.229,147.319l-3.4.56-3.434.688-3.454.815-3.457.938-.181-.809-.108-.6-.034-.392.042-.166,3.941-1.066,3.937-.925,3.911-.778,3.863-.63-.5.264-.441.491-.381.706Z"/><path class="cls-2" d="M122.489,150.32l-3.442,1.057-3.408,1.171-3.357,1.279L109,155.209l-.671-.635-.595-.432-.508-.221-.412,0,3.752-1.575,3.831-1.458,3.89-1.335,3.926-1.2-.042.166.034.392.108.6Z"/><path class="cls-2" d="M109,155.209l-3.2,1.475-3.1,1.562-2.975,1.641L96.886,161.6l-1.109-.4-1.03-.2-.932,0-.818.212,3.235-1.952,3.394-1.873,3.532-1.783,3.651-1.683.412,0,.508.221.595.432Z"/><path class="cls-2" d="M96.886,161.6,94.2,163.369l-2.523,1.821-2.346,1.863-2.158,1.894-1.452-.135-1.37.062-1.264.259-1.135.454L84.4,167.43l2.666-2.123,2.871-2.078L93,161.209l.818-.212.932,0,1.03.2Z"/><path class="cls-2" d="M87.172,168.947l-1.959,1.915-1.752,1.926-1.538,1.927-1.316,1.918-1.67.14-1.586.332-1.474.52-1.335.7,1.478-2.177,1.733-2.19,1.979-2.19,2.219-2.181,1.135-.454,1.264-.259,1.37-.062Z"/><path class="cls-2" d="M80.607,176.633l-1.093,1.9-.864,1.872-.635,1.836-.4,1.79-1.75.4-1.663.583-1.55.76-1.407.926.43-2.022.694-2.076.957-2.12,1.219-2.154,1.335-.7,1.474-.52,1.586-.332Z"/><path class="cls-2" d="M77.612,184.031l-.175,1.738.053,1.676.276,1.608.5,1.534-1.7.613-1.61.8-1.5.961L72.1,194.069l-.594-1.72-.345-1.807-.091-1.886.169-1.959,1.407-.926,1.55-.76,1.663-.583Z"/><path class="cls-2" d="M78.263,190.587l.711,1.452.918,1.367,1.12,1.276,1.314,1.18-1.526.78-1.441.954-1.333,1.11-1.2,1.25-1.515-1.312-1.3-1.422L72.94,195.7l-.837-1.627,1.357-1.113,1.5-.961,1.61-.8Z"/><path class="cls-2" d="M82.326,195.862l1.5,1.082,1.673.978,1.84.874,1.995.768-1.264.886L86.885,201.5l-1.082,1.2-.962,1.332-2.275-.84-2.1-.963-1.918-1.082-1.721-1.2,1.2-1.25,1.333-1.11,1.441-.954Z"/><path class="cls-2" d="M89.332,199.564l2.141.658,2.275.548,2.4.438,2.512.326-.938.934-.862,1.1-.77,1.239-.667,1.363-2.843-.345-2.72-.47-2.584-.594-2.435-.718.962-1.332,1.082-1.2,1.183-1.054Z"/><path class="cls-2" d="M98.66,201.534l2.614.217,2.7.106,2.782,0,2.851-.112-.573.926-.5,1.083-.423,1.224-.338,1.343-3.209.143-3.137.024-3.052-.1-2.954-.221.667-1.363.77-1.239.862-1.1Z"/><path class="cls-2" d="M109.611,201.742l2.907-.217,2.952-.322,2.987-.424,3.009-.524-.191.866-.127,1.023-.061,1.162.006,1.281-3.377.6-3.353.49-3.318.378-3.27.262.338-1.343.423-1.224.5-1.083Z"/><path class="cls-2" d="M121.466,200.255l3.022-.621,3.024-.716,3.014-.807,3-.895.188.763.245.921.3,1.06.347,1.182-3.355,1.01-3.376.913-3.389.813-3.388.709-.006-1.281.061-1.162.127-1.023Z"/><path class="cls-2" d="M133.522,197.216l2.966-.979,2.927-1.06,2.877-1.136,2.817-1.21.549.623.6.783.642.925.671,1.054-3.155,1.355-3.22,1.277-3.275,1.192-3.32,1.1-.347-1.182-.3-1.06-.245-.921Z"/><path class="cls-2" d="M145.109,192.831l2.75-1.278,2.672-1.342,2.585-1.4,2.489-1.457.877.453.923.614.954.764.968.9-2.79,1.629-2.9,1.569-2.992,1.5-3.078,1.432-.671-1.054-.642-.925-.6-.783Z"/><path class="cls-2" d="M159.327,190.083,162,188.4l2.55-1.735,2.417-1.779,2.275-1.818,1.206.862,1.168.983L172.729,186l1.035,1.172-2.466,1.955-2.618,1.913-2.76,1.866-2.893,1.814-.868-1.276-.917-1.211-.949-1.126Z"/><path class="cls-2" d="M169.244,183.066l2.124-1.852,1.964-1.878,1.8-1.9,1.623-1.913,1.4.692,1.345.832,1.269.955,1.17,1.064-1.771,2.055-1.958,2.04-2.136,2.018-2.306,1.989L172.729,186l-1.111-1.086-1.168-.983Z"/><path class="cls-2" d="M176.753,175.524l1.44-1.921,1.251-1.922,1.055-1.915.852-1.9,1.532.518,1.468.678,1.379.822,1.268.956-.948,2.044-1.164,2.059L183.512,177l-1.577,2.063L180.765,178l-1.269-.955-1.345-.832Z"/><path class="cls-2" d="M181.351,167.863,182,165.98l.431-1.855.214-1.82-.009-1.777,1.593.349,1.526.527,1.434.694,1.316.852-.022,1.912-.26,1.957-.495,1.994L187,170.837l-1.268-.956-1.379-.822-1.468-.678Z"/><path class="cls-2" d="M182.631,160.528,182.4,158.8l-.462-1.669-.69-1.6L180.323,154l1.569.192,1.507.39,1.42.578,1.307.759.968,1.648.716,1.727.468,1.8.222,1.859-1.316-.852-1.434-.694-1.526-.527Z"/><path class="cls-2" d="M180.323,154l-1.152-1.449-1.38-1.36-1.608-1.265-1.831-1.161,1.45.064,1.4.276,1.33.484,1.234.685,1.96,1.253,1.714,1.364,1.468,1.466,1.216,1.562-1.307-.759-1.42-.578-1.507-.39Z"/><path class="cls-2" d="M174.352,148.765l-2.05-1.051-2.264-.935-2.469-.811-2.669-.683,1.234-.026,1.207.2,1.159.422,1.091.639,2.881.736,2.661.875,2.435,1.008,2.2,1.134-1.234-.685-1.33-.484-1.4-.276Z"/><path class="cls-2" d="M164.9,145.285l-2.855-.549-3.034-.411-3.2-.268-3.351-.121.924-.061.927.173.913.4.883.628,3.639.127,3.469.285,3.286.44,3.088.591-1.091-.639-1.159-.422-1.207-.2Z"/><path class="cls-2" d="M152.462,143.936l-3.487.027-3.608.177-3.711.328-3.8.481.541-.034.579.2.605.432.623.66,4.14-.531,4.043-.364,3.928-.2,3.79-.036-.883-.628-.913-.4-.927-.173Z"/><path class="cls-2" d="M137.86,144.949l-3.863.63-3.911.778-3.937.925-3.941,1.066.117.06.191.29.262.515.33.732,4.31-1.17,4.3-1.016,4.271-.856,4.217-.694-.623-.66-.605-.432-.579-.2Z"/><path class="cls-2" d="M122.208,148.348l-3.926,1.2-3.89,1.335-3.831,1.458-3.752,1.575-.308.214-.2.433-.083.643.035.845,4.107-1.726,4.194-1.6,4.256-1.463,4.3-1.32-.33-.732-.262-.515-.191-.29Z"/><path class="cls-2" d="M106.809,153.918l-3.651,1.683-3.532,1.783-3.394,1.873L93,161.209l-.689.415-.545.617-.394.8-.231.983,3.54-2.134,3.714-2.048,3.866-1.951,4-1.843-.035-.845.083-.643.2-.433Z"/><path class="cls-2" d="M93,161.209l-3.061,2.02-2.871,2.078L84.4,167.43l-2.448,2.157-.986.642-.818.821-.637.985-.441,1.135,2.671-2.351,2.913-2.315,3.137-2.268,3.348-2.207.231-.983.394-.8.545-.617Z"/><path class="cls-2" d="M81.951,169.587l-2.219,2.181-1.979,2.19-1.733,2.19-1.478,2.177-1.174.869-.991,1.025-.791,1.164-.574,1.282,1.6-2.362,1.882-2.378,2.155-2.382,2.418-2.373.441-1.135.637-.985.818-.821Z"/><path class="cls-2" d="M74.542,178.325l-1.219,2.154-.957,2.12-.694,2.076-.43,2.022L70,187.773l-1.054,1.209L68.1,190.3l-.624,1.412.452-2.181.74-2.242L69.695,185l1.317-2.334.574-1.282.791-1.164.991-1.025Z"/><path class="cls-2" d="M71.242,186.7l-.169,1.959.091,1.886.345,1.807.594,1.72-1.195,1.246L69.9,196.673l-.812,1.448-.595,1.513-.667-1.842-.4-1.939-.118-2.028.165-2.109L68.1,190.3l.848-1.322L70,187.773Z"/><path class="cls-2" d="M72.1,194.069l.837,1.627,1.072,1.526,1.3,1.422,1.515,1.312-1.05,1.367-.88,1.464-.7,1.534-.5,1.58-1.665-1.391L70.606,203l-1.186-1.628-.931-1.737.595-1.513.812-1.448,1.012-1.358Z"/><path class="cls-2" d="M76.825,199.956l1.721,1.2,1.918,1.082,2.1.963,2.275.84-.828,1.439L83.334,207l-.518,1.58-.348,1.612-2.482-.877-2.3-1.009-2.1-1.139L73.7,205.9l.5-1.58.7-1.534.88-1.464Z"/><path class="cls-2" d="M84.841,204.039l2.435.718,2.584.594,2.72.47,2.843.345-.553,1.461-.429,1.538-.3,1.587-.163,1.61-3.088-.341-2.957-.475-2.812-.609-2.654-.744.348-1.612.518-1.58.679-1.523Z"/><path class="cls-2" d="M95.423,206.166l2.954.221,3.052.1,3.137-.024,3.209-.143-.246,1.439-.152,1.512-.055,1.56.045,1.582-3.475.182-3.4.054-3.308-.077-3.206-.208.163-1.61.3-1.587.429-1.538Z"/><path class="cls-2" d="M107.775,206.318l3.27-.262,3.318-.378,3.353-.49,3.377-.6.072,1.377.137,1.453.2,1.5.26,1.529-3.648.669-3.623.552-3.587.431-3.537.309-.045-1.582.055-1.56.152-1.512Z"/><path class="cls-2" d="M121.093,204.587l3.388-.709,3.389-.813,3.376-.913,3.355-1.01.388,1.284.424,1.365.453,1.424.474,1.458-3.618,1.1-3.644,1-3.658.893-3.658.783-.26-1.529-.2-1.5-.137-1.453Z"/><path class="cls-2" d="M134.6,201.142l3.32-1.1,3.275-1.192,3.22-1.277,3.155-1.355.69,1.163.7,1.254.694,1.324.68,1.373-3.4,1.467-3.475,1.383-3.533,1.293-3.582,1.2-.474-1.458-.453-1.424-.424-1.365Z"/><path class="cls-2" d="M147.571,196.216l3.078-1.432,2.992-1.5,2.9-1.569,2.79-1.629.966,1.021.949,1.126.917,1.211.868,1.276-3.014,1.754-3.128,1.691-3.23,1.621-3.322,1.547-.68-1.373-.694-1.324-.7-1.254Z"/><path class="cls-2" d="M163.027,194.717l2.893-1.814,2.76-1.866,2.618-1.913,2.466-1.955.943,1.238.835,1.286.715,1.31.581,1.313-2.547,2-2.7,1.96-2.846,1.913-2.981,1.861-.549-1.324-.646-1.346-.732-1.344Z"/><path class="cls-2" d="M173.764,187.169l2.306-1.989,2.136-2.018,1.958-2.04,1.771-2.055,1.055,1.155.921,1.226.773,1.278.61,1.309-1.837,2.1-2.027,2.085-2.21,2.063-2.382,2.034L176.257,191l-.715-1.31-.835-1.286Z"/><path class="cls-2" d="M181.935,179.067,183.512,177l1.374-2.064,1.164-2.059.948-2.044,1.136,1.071.984,1.171.817,1.25.634,1.31-.992,2.084-1.216,2.1-1.43,2.106-1.637,2.106-.61-1.309-.773-1.278-.921-1.226Z"/><path class="cls-2" d="M187,170.837l.725-2.024.495-1.994.26-1.957.022-1.912,1.178.993,1.019,1.121.843,1.228.653,1.316-.042,1.946-.288,1.992-.529,2.032-.765,2.061-.634-1.31-.817-1.25-.984-1.171Z"/><path class="cls-2" d="M188.5,162.95l-.222-1.859-.468-1.8-.716-1.727-.968-1.648,1.175.926,1.019,1.079.849,1.214.661,1.327.976,1.673.718,1.754.461,1.826.208,1.89-.653-1.316-.843-1.228-1.019-1.121Z"/><path class="cls-2" d="M186.126,155.919l-1.216-1.562-1.468-1.466-1.714-1.364-1.96-1.253,1.117.874.981,1.05.828,1.208.659,1.344,2,1.266,1.749,1.38,1.492,1.486,1.234,1.583-.661-1.327-.849-1.214-1.019-1.079Z"/><path class="cls-2" d="M179.768,150.274l-2.2-1.134-2.435-1.008-2.661-.875-2.881-.736,1,.844.9,1.038.78,1.212.645,1.366,2.958.734,2.73.878,2.494,1.014,2.25,1.143-.659-1.344-.828-1.208-.981-1.05Z"/><path class="cls-2" d="M169.591,146.521l-3.088-.591-3.286-.44-3.469-.285-3.639-.127.839.844.778,1.045.705,1.229.618,1.392,3.748.108,3.57.27,3.38.431,3.174.584-.645-1.366-.78-1.212-.9-1.038Z"/><path class="cls-2" d="M156.109,145.078l-3.79.036-3.928.2-4.043.364-4.14.531.627.874.624,1.076.607,1.259.579,1.421,4.274-.567,4.173-.4,4.05-.228,3.907-.059-.618-1.392-.705-1.229-.778-1.045Z"/><path class="cls-2" d="M140.208,146.209l-4.217.694-4.271.856-4.3,1.016-4.31,1.17.391.939.447,1.129.494,1.3.532,1.45,4.457-1.224,4.448-1.064,4.413-.9,4.355-.735-.579-1.421-.607-1.259-.624-1.076Z"/><path class="cls-2" d="M123.108,149.945l-4.3,1.32-4.256,1.463-4.194,1.6-4.107,1.726.152,1.03.266,1.2.378,1.351.482,1.477,4.252-1.791,4.34-1.66,4.4-1.523,4.442-1.376-.532-1.45-.494-1.3-.447-1.129Z"/><path class="cls-2" d="M106.256,156.053l-4,1.843-3.866,1.951L94.678,161.9l-3.54,2.134-.066,1.144.1,1.287.27,1.405.434,1.5,3.666-2.2,3.846-2.118,4-2.02,4.138-1.91-.482-1.477-.378-1.351-.266-1.2Z"/><path class="cls-2" d="M91.138,164.029l-3.348,2.207L84.653,168.5l-2.913,2.315-2.671,2.351-.237,1.265-.026,1.373.183,1.458.393,1.515,2.765-2.418,3.016-2.384,3.25-2.337,3.467-2.277-.434-1.5-.27-1.405-.1-1.287Z"/><path class="cls-2" d="M79.069,173.17l-2.418,2.373L74.5,177.925,72.614,180.3l-1.6,2.362-.347,1.38-.112,1.454.125,1.5.362,1.522L72.7,186.1l1.949-2.439,2.23-2.446,2.505-2.438-.393-1.515-.183-1.458.026-1.373Z"/><path class="cls-2" d="M71.012,182.665,69.695,185l-1.03,2.294-.74,2.242-.452,2.181-.39,1.478-.147,1.519.1,1.534.344,1.521.467-2.223.766-2.29,1.065-2.344,1.364-2.388L70.678,187l-.125-1.5.112-1.454Z"/><path class="cls-2" d="M67.473,191.716l-.165,2.109.118,2.028.4,1.939.667,1.842-.369,1.552-.134,1.565.1,1.551.339,1.51-.69-1.867-.409-1.968-.122-2.062.171-2.147-.344-1.521-.1-1.534.147-1.519Z"/><path class="cls-2" d="M68.489,199.634l.931,1.737L70.606,203l1.431,1.511L73.7,205.9l-.292,1.6-.08,1.59.133,1.554.346,1.49-1.718-1.4-1.477-1.523-1.225-1.643-.961-1.758-.339-1.51-.1-1.551.134-1.565Z"/><path class="cls-2" d="M73.7,205.9l1.888,1.267,2.1,1.139,2.3,1.009,2.482.877-.174,1.615L82.3,213.4l.185,1.544.362,1.466-2.558-.867-2.369-1L75.756,213.4l-1.947-1.27-.346-1.49-.133-1.554.08-1.59Z"/><path class="cls-2" d="M82.468,210.193l2.654.744,2.812.609,2.957.475,3.088.341-.024,1.608.114,1.578.252,1.521.386,1.44-3.18-.319-3.046-.455-2.9-.593-2.735-.731-.362-1.466L82.3,213.4l-.007-1.593Z"/><path class="cls-2" d="M93.979,212.362l3.206.208,3.308.077,3.4-.054,3.475-.182.14,1.577.237,1.548.328,1.492.414,1.412-3.575.215-3.5.084-3.406-.047-3.3-.183-.386-1.44-.252-1.521-.114-1.578Z"/><path class="cls-2" d="M107.367,212.411l3.537-.309,3.587-.431,3.623-.552,3.648-.669.314,1.53.365,1.506.408,1.458.447,1.385-3.752.709-3.728.59-3.69.469-3.64.343-.414-1.412-.328-1.492-.237-1.548Z"/><path class="cls-2" d="M121.762,210.45l3.658-.783,3.658-.893,3.644-1,3.618-1.1.487,1.469.494,1.457.49,1.42.48,1.361-3.722,1.146-3.749,1.043-3.761.935-3.763.825-.447-1.385-.408-1.458-.365-1.506Z"/><path class="cls-2" d="M136.34,206.673l3.582-1.2,3.533-1.293,3.475-1.383,3.4-1.467.654,1.4.616,1.4.571,1.383.514,1.34-3.5,1.514-3.575,1.428-3.635,1.34-3.685,1.245-.48-1.361-.49-1.42-.494-1.457Z"/><path class="cls-2" d="M150.333,201.33l3.322-1.547,3.23-1.621,3.128-1.691,3.014-1.754.808,1.32.732,1.344.646,1.346.549,1.324-3.106,1.8-3.222,1.738-3.326,1.668-3.42,1.594-.514-1.34-.571-1.383-.616-1.4Z"/><path class="cls-2" d="M165.762,200.051l2.981-1.861,2.846-1.913,2.7-1.96,2.547-2,.438,1.3.287,1.258.132,1.2-.027,1.119-2.493,1.946-2.645,1.908-2.786,1.864-2.918,1.815-.085-1.033-.209-1.136-.328-1.22Z"/><path class="cls-2" d="M176.838,192.316l2.382-2.034,2.21-2.063,2.027-2.085,1.837-2.1.438,1.319.258,1.306.073,1.273-.114,1.217-1.8,2.034-1.985,2.023-2.164,2-2.333,1.979.027-1.119-.132-1.2-.287-1.258Z"/><path class="cls-2" d="M185.294,184.035l1.637-2.106,1.43-2.106,1.216-2.1.992-2.084.443,1.347.241,1.363.037,1.356-.171,1.324-.974,2.013-1.19,2.029-1.4,2.038-1.6,2.041.114-1.217-.073-1.273-.258-1.306Z"/><path class="cls-2" d="M190.569,175.639l.765-2.061.529-2.032.288-1.992.042-1.946.451,1.382.24,1.424.025,1.443-.191,1.436-.044,1.871-.285,1.918-.52,1.958-.75,1.989.171-1.324-.037-1.356-.241-1.363Z"/><path class="cls-2" d="M192.193,167.608l-.208-1.89-.461-1.826-.718-1.754-.976-1.673.464,1.419.255,1.489.045,1.53-.17,1.547.95,1.6.7,1.679.448,1.752.2,1.814.191-1.436-.025-1.443-.24-1.424Z"/><path class="cls-2" d="M189.83,160.465l-1.234-1.583L187.1,157.4l-1.749-1.38-2-1.266.48,1.459.29,1.549.1,1.612-.1,1.647,1.95,1.2,1.7,1.309,1.452,1.415,1.2,1.511.17-1.547-.045-1.53-.255-1.489Z"/><path class="cls-2" d="M183.353,154.75l-2.25-1.143-2.494-1.014-2.73-.878-2.958-.734.5,1.5.343,1.6.182,1.68.015,1.726,2.879.68,2.659.819,2.429.952,2.191,1.079.1-1.647-.1-1.612-.29-1.549Z"/><path class="cls-2" d="M172.921,150.981l-3.174-.584-3.38-.431-3.57-.27-3.748-.108.52,1.531.413,1.644.3,1.726.177,1.779,3.648.071,3.475.23,3.29.384,3.09.534-.015-1.726-.182-1.68-.343-1.6Z"/><path class="cls-2" d="M159.049,149.588l-3.907.059-4.05.228-4.173.4-4.274.567.542,1.557.494,1.666.438,1.746.373,1.793,4.16-.578,4.06-.415,3.942-.252,3.8-.088-.177-1.779-.3-1.726-.413-1.644Z"/><path class="cls-2" d="M142.645,150.839l-4.355.735-4.413.9-4.448,1.064-4.457,1.224.562,1.572.581,1.669.591,1.733.588,1.767,4.338-1.208,4.328-1.056,4.294-.9,4.238-.74-.373-1.793-.438-1.746-.494-1.666Z"/><path class="cls-2" d="M124.972,154.764l-4.442,1.376-4.4,1.523-4.34,1.66-4.252,1.791.579,1.576.665,1.648.739,1.69.8,1.7,4.14-1.749,4.225-1.625,4.287-1.494,4.325-1.354-.588-1.767-.591-1.733-.581-1.669Z"/><path class="cls-2" d="M107.534,161.114l-4.138,1.91-4,2.02-3.846,2.118-3.666,2.2.59,1.567.736,1.608.869,1.619.985,1.6,3.575-2.14,3.749-2.06,3.9-1.967,4.032-1.863-.8-1.7-.739-1.69-.665-1.648Z"/><path class="cls-2" d="M91.88,169.365l-3.467,2.277-3.25,2.337-3.016,2.384-2.765,2.418.594,1.547.787,1.552.965,1.527,1.126,1.474,2.7-2.34,2.946-2.309,3.172-2.266,3.383-2.209-.985-1.6-.869-1.619-.736-1.608Z"/><path class="cls-2" d="M79.382,178.781l-2.505,2.438-2.23,2.446L72.7,186.1l-1.658,2.419.592,1.518.814,1.485,1.02,1.426,1.208,1.341,1.631-2.336,1.912-2.355,2.186-2.363,2.451-2.358-1.126-1.474-.965-1.527-.787-1.552Z"/><path class="cls-2" d="M71.04,188.523l-1.364,2.388-1.065,2.344-.766,2.29-.467,2.223.583,1.481.815,1.416,1.03,1.325,1.23,1.21.473-2.14.765-2.206,1.055-2.259,1.345-2.3-1.208-1.341-1.02-1.426-.814-1.485Z"/><path class="cls-2" d="M67.378,197.768l-.171,2.147.122,2.062.409,1.968.69,1.867L69,207.254l.793,1.349,1,1.233,1.192,1.093-.653-1.791-.379-1.891-.1-1.982.186-2.065-1.23-1.21-1.03-1.325-.815-1.416Z"/><path class="cls-2" d="M68.428,205.812l.961,1.758,1.225,1.643,1.477,1.523,1.718,1.4.552,1.4.75,1.289.936,1.156,1.105,1L75.5,215.644l-1.422-1.457L72.9,212.614l-.917-1.685-1.192-1.093-1-1.233L69,207.254Z"/><path class="cls-2" d="M73.809,212.133l1.947,1.27,2.165,1.137,2.369,1,2.558.867.532,1.366.7,1.241.846,1.1.983.929-2.481-.82-2.3-.952-2.095-1.082-1.882-1.21-1.105-1-.936-1.156-.75-1.289Z"/><path class="cls-2" d="M82.848,216.411l2.735.731,2.9.593,3.046.455,3.18.319.512,1.334.633,1.2.74,1.057.838.887-3.094-.287-2.961-.421-2.815-.553-2.655-.687-.983-.929-.846-1.1-.7-1.241Z"/><path class="cls-2" d="M94.707,218.509l3.3.183,3.406.047,3.5-.084,3.575-.215.494,1.308.565,1.181.628,1.037.679.871-3.485.23-3.408.1-3.317-.025-3.212-.155-.838-.887-.74-1.057-.633-1.2Z"/><path class="cls-2" d="M108.486,218.44l3.64-.343,3.69-.469,3.728-.59,3.752-.709.476,1.289.5,1.172.513,1.036.519.88-3.663.709-3.638.593-3.6.475-3.55.354-.679-.871-.628-1.037-.565-1.181Z"/><path class="cls-2" d="M123.3,216.329l3.763-.825,3.761-.935,3.749-1.043,3.722-1.146.462,1.279.436,1.175.4,1.054.362.911-3.638,1.131-3.663,1.03-3.675.927-3.675.819-.519-.88-.513-1.036-.5-1.172Z"/><path class="cls-2" d="M138.291,212.38l3.685-1.245,3.635-1.34,3.575-1.428,3.5-1.514.451,1.276.378,1.192.3,1.087.216.963-3.426,1.484-3.5,1.4-3.555,1.316-3.6,1.225-.362-.911-.4-1.054-.436-1.175Z"/><path class="cls-2" d="M152.688,206.853l3.42-1.594,3.326-1.668,3.222-1.738,3.106-1.8.442,1.282.328,1.22.209,1.136.085,1.033-3.041,1.759-3.152,1.7-3.254,1.632-3.346,1.56-.216-.963-.3-1.087-.378-1.192Z"/><path class="cls-2" d="M166.826,204.722l2.918-1.815,2.786-1.864,2.645-1.908,2.493-1.946-.185,1.019-.343.9-.494.772-.64.625-2.318,1.805-2.461,1.771-2.593,1.732-2.717,1.687.41-.465.291-.627.167-.777Z"/><path class="cls-2" d="M177.668,197.189,180,195.21l2.164-2,1.985-2.023,1.8-2.034-.3,1.141-.482,1.046-.656.932-.82.8-1.666,1.88-1.843,1.871-2.009,1.855-2.168,1.833.64-.625.494-.772.343-.9Z"/><path class="cls-2" d="M185.949,189.15l1.6-2.041,1.4-2.038,1.19-2.029.974-2.013-.375,1.272-.574,1.2-.765,1.1-.942.987-.895,1.852-1.1,1.868-1.294,1.88-1.485,1.883.82-.8.656-.932.482-1.046Z"/><path class="cls-2" d="M191.119,181.029l.75-1.989.52-1.958.285-1.918.044-1.871-.4,1.407-.613,1.352-.809,1.274L189.9,178.5l-.029,1.71-.251,1.756-.471,1.795-.685,1.827.942-.987.765-1.1.574-1.2Z"/><path class="cls-2" d="M192.718,173.293l-.2-1.814-.448-1.752-.7-1.679-.95-1.6-.379,1.536-.586,1.5-.779,1.438-.963,1.348.893,1.45.66,1.526.43,1.595.2,1.656.994-1.173.809-1.274.613-1.352Z"/><path class="cls-2" d="M190.424,166.45l-1.2-1.511-1.452-1.415-1.7-1.309-1.95-1.2-.295,1.653-.487,1.63-.668,1.579-.84,1.5,1.816,1.073,1.588,1.178,1.359,1.276,1.126,1.366.963-1.348.779-1.438.586-1.5Z"/><path class="cls-2" d="M184.118,161.017l-2.191-1.079-2.429-.952-2.659-.819-2.879-.68-.15,1.744-.313,1.731-.471,1.687-.622,1.611,2.667.592,2.465.721,2.255.845,2.037.961.84-1.5.668-1.579.487-1.63Z"/><path class="cls-2" d="M173.96,157.487l-3.09-.534-3.29-.384-3.475-.23-3.648-.071.054,1.8-.072,1.788-.194,1.745-.314,1.669,3.365.034,3.209.179,3.041.321,2.858.458.622-1.611.471-1.687.313-1.731Z"/><path class="cls-2" d="M160.457,156.268l-3.8.088-3.942.252-4.06.415-4.16.578.3,1.808.225,1.792.146,1.744.062,1.661,3.828-.557,3.738-.409,3.631-.26,3.506-.112.314-1.669.194-1.745.072-1.788Z"/><path class="cls-2" d="M144.492,157.6l-4.238.74-4.294.9-4.328,1.056-4.338,1.208.576,1.768.552,1.738.52,1.677.476,1.584,3.987-1.126,3.977-.988,3.948-.848,3.9-.7-.062-1.661-.146-1.744-.225-1.792Z"/><path class="cls-2" d="M127.294,161.505l-4.325,1.354-4.287,1.494-4.225,1.625-4.14,1.749.846,1.68.876,1.629.892,1.549.89,1.442,3.8-1.613,3.882-1.5,3.939-1.384,3.972-1.257-.476-1.584-.52-1.677-.552-1.738Z"/><path class="cls-2" d="M110.317,167.727l-4.032,1.863-3.9,1.967-3.749,2.06-3.575,2.14,1.085,1.551,1.164,1.474,1.222,1.373,1.257,1.245,3.292-1.962,3.448-1.89,3.587-1.808,3.706-1.713-.89-1.442-.892-1.549-.876-1.629Z"/><path class="cls-2" d="M95.06,175.757l-3.383,2.209-3.172,2.266-2.946,2.309-2.7,2.34,1.267,1.4,1.384,1.293,1.476,1.165,1.542,1.017,2.5-2.14,2.72-2.113,2.926-2.075,3.117-2.024-1.257-1.245-1.222-1.373-1.164-1.474Z"/><path class="cls-2" d="M82.854,184.881,80.4,187.239,78.217,189.6l-1.912,2.355-1.631,2.336,1.375,1.231,1.519,1.1,1.632.95,1.718.782,1.524-2.134,1.781-2.153,2.03-2.16,2.27-2.157-1.542-1.017-1.476-1.165-1.384-1.293Z"/><path class="cls-2" d="M74.674,194.293l-1.345,2.3-1.055,2.259-.765,2.206-.473,2.14,1.405,1.074,1.558.917,1.681.747,1.776.562.466-1.957.733-2.016,1-2.065,1.264-2.106-1.718-.782-1.632-.95-1.519-1.1Z"/><path class="cls-2" d="M71.036,203.2l-.186,2.065.1,1.982.379,1.891.653,1.791,1.361.935,1.51.761,1.629.573,1.721.372-.57-1.638-.318-1.73-.06-1.813.2-1.889-1.776-.562L74,205.191l-1.558-.917Z"/><path class="cls-2" d="M71.981,210.929l.917,1.685,1.175,1.573,1.422,1.457,1.657,1.335,1.256.825,1.386.637,1.49.438,1.571.23-1.5-1.222-1.282-1.333-1.053-1.441L78.2,213.57l-1.721-.372-1.629-.573-1.51-.761Z"/><path class="cls-2" d="M77.152,216.979l1.882,1.21,2.095,1.082,2.3.952,2.481.82,1.1.749,1.2.552,1.287.348,1.346.135-2.273-.749-2.1-.871-1.91-.99-1.711-1.108-1.571-.23-1.49-.438-1.386-.637Z"/><path class="cls-2" d="M85.905,221.043l2.655.687,2.815.553,2.961.421,3.094.287.92.7.988.508,1.039.3,1.072.09-2.852-.258-2.726-.381-2.587-.5-2.437-.627-1.346-.135-1.287-.348-1.2-.552Z"/><path class="cls-2" d="M97.43,222.991l3.212.155,3.317.025,3.408-.1,3.485-.23.721.693.749.5.766.3.769.092-3.226.22-3.153.1-3.064-.015-2.965-.136-1.072-.09-1.039-.3-.988-.508Z"/><path class="cls-2" d="M110.852,222.837l3.55-.354,3.6-.475,3.638-.593,3.663-.709.516.712.5.527.484.336.456.134-3.4.665-3.377.558-3.339.448-3.29.337-.769-.092-.766-.3-.749-.5Z"/><path class="cls-2" d="M125.3,220.706l3.675-.819,3.675-.927,3.663-1.03,3.638-1.131.316.756.265.585.208.405.147.215-3.386,1.056-3.407.964-3.417.868-3.416.767-.456-.134-.484-.336-.5-.527Z"/><path class="cls-2" d="M139.954,216.8l3.6-1.225,3.555-1.316,3.5-1.4,3.426-1.484.129.825.037.669-.053.5L154,213.7l-3.191,1.383-3.257,1.309-3.31,1.228-3.353,1.145-.147-.215-.208-.405-.265-.585Z"/><path class="cls-2" d="M154.033,211.371l3.346-1.56,3.254-1.632,3.152-1.7,3.041-1.759-.041.913-.167.777-.291.627-.41.465-2.831,1.637-2.937,1.58-3.031,1.52L154,213.7l.145-.327.053-.5-.037-.669Z"/><path class="cls-2" d="M165.917,207.5l2.717-1.687,2.593-1.732,2.461-1.771,2.318-1.805-.773.468-.9.3-1,.129-1.094-.049-2.067,1.613-2.2,1.584-2.317,1.549-2.428,1.509.807.243.724.062.63-.118Z"/><path class="cls-2" d="M176.006,200.509l2.168-1.833,2.009-1.855,1.843-1.871,1.666-1.88-.971.657-1.107.5-1.224.334-1.32.161-1.476,1.675-1.635,1.668-1.787,1.655-1.931,1.637,1.094.049,1-.129.9-.3Z"/><path class="cls-2" d="M183.692,193.07l1.485-1.883,1.294-1.88,1.1-1.868.895-1.852-1.1.855-1.251.708-1.373.547-1.472.376-.779,1.643-.962,1.659-1.14,1.671-1.311,1.676,1.32-.161,1.224-.334,1.107-.5Z"/><path class="cls-2" d="M188.463,185.587l.685-1.827.471-1.795.251-1.756.029-1.71-1.162,1.052-1.311.913-1.436.758-1.537.587v1.508l-.2,1.551-.4,1.587-.59,1.618,1.472-.376,1.373-.547,1.251-.708Z"/><path class="cls-2" d="M189.9,178.5l-.2-1.656-.43-1.595-.66-1.526-.893-1.45-1.128,1.238-1.276,1.1-1.4.952-1.5.781.818,1.268.613,1.337.406,1.4.2,1.457,1.537-.587,1.436-.758,1.311-.913Z"/><path class="cls-2" d="M187.717,172.272l-1.126-1.366-1.359-1.276-1.588-1.178-1.816-1.073-.994,1.4-1.135,1.265-1.252,1.114-1.35.941,1.631.928,1.432,1.022,1.23,1.11,1.025,1.192,1.5-.781,1.4-.952,1.276-1.1Z"/><path class="cls-2" d="M181.828,167.379l-2.037-.961-2.255-.845-2.465-.721-2.667-.592-.759,1.51-.885,1.38-.993,1.228-1.085,1.053,2.375.5,2.2.614,2.016.723,1.826.827,1.35-.941,1.252-1.114,1.135-1.265Z"/><path class="cls-2" d="M172.4,164.26l-2.858-.458-3.041-.321L163.3,163.3l-3.365-.034-.429,1.565-.534,1.435-.63,1.279-.715,1.1,2.977.008,2.844.136,2.7.259,2.541.381,1.085-1.053.993-1.228.885-1.38Z"/><path class="cls-2" d="M159.931,163.268l-3.506.112-3.631.26-3.738.409-3.828.557-.021,1.553-.1,1.415-.186,1.255-.263,1.071,3.372-.506,3.295-.378,3.205-.249,3.1-.12.715-1.1.63-1.279.534-1.435Z"/><path class="cls-2" d="M145.228,164.606l-3.9.7-3.948.848-3.977.988-3.987,1.126.427,1.465.368,1.32.305,1.153.236.964,3.5-1,3.5-.88,3.472-.759,3.43-.635.263-1.071.186-1.255.1-1.415Z"/><path class="cls-2" d="M129.418,168.272l-3.972,1.257-3.939,1.384-3.882,1.5-3.8,1.613.873,1.308.84,1.152.792.977.732.786,3.34-1.418,3.408-1.324,3.458-1.221,3.49-1.113-.236-.964-.305-1.153-.368-1.32Z"/><path class="cls-2" d="M113.821,174.027l-3.706,1.713-3.587,1.808-3.448,1.89L99.788,181.4l1.271,1.1,1.261.929,1.23.747,1.175.551,2.9-1.722,3.032-1.658,3.151-1.587,3.255-1.507-.732-.786-.792-.977-.84-1.152Z"/><path class="cls-2" d="M99.788,181.4l-3.117,2.024L93.745,185.5l-2.72,2.113-2.5,2.14,1.58.854,1.589.672,1.571.483,1.523.285L97,190.169l2.4-1.852,2.579-1.819,2.745-1.774-1.175-.551-1.23-.747-1.261-.929Z"/><path class="cls-2" d="M88.523,189.752l-2.27,2.157-2.03,2.16-1.781,2.153-1.524,2.134,1.772.6,1.8.411,1.787.214,1.745.012,1.365-1.874,1.588-1.889,1.8-1.9,2.012-1.89-1.523-.285-1.571-.483-1.589-.672Z"/><path class="cls-2" d="M80.918,198.356l-1.264,2.106-1,2.065-.733,2.016-.466,1.957,1.837.368,1.869.166L83.027,207l1.828-.238.442-1.724.675-1.775.907-1.816,1.138-1.85-1.745-.012-1.787-.214-1.8-.411Z"/><path class="cls-2" d="M77.456,206.5l-.2,1.889.06,1.813.318,1.73.57,1.638,1.781.17,1.813-.04,1.811-.245,1.777-.448-.471-1.451-.247-1.529-.021-1.6.21-1.666L83.027,207l-1.865.036-1.869-.166Z"/><path class="cls-2" d="M78.2,213.57l.815,1.543,1.053,1.441,1.282,1.333,1.5,1.222,1.622.019,1.646-.195,1.642-.4,1.607-.6-1.3-1.088-1.1-1.185-.9-1.279-.687-1.366-1.777.448L81.8,213.7l-1.813.04Z"/><path class="cls-2" d="M82.855,219.109l1.711,1.108,1.91.99,2.1.871,2.273.749,1.382-.079,1.395-.293,1.382-.5,1.346-.7-1.994-.672-1.834-.78-1.665-.884-1.487-.988-1.607.6-1.642.4-1.646.195Z"/><path class="cls-2" d="M90.847,222.827l2.437.627,2.587.5,2.726.381,2.852.258,1.086-.123,1.083-.337,1.06-.544,1.019-.743-2.52-.236-2.406-.346-2.279-.455-2.14-.563-1.346.7-1.382.5-1.395.293Z"/><path class="cls-2" d="M101.449,224.6l2.965.136,3.064.015,3.153-.1,3.226-.22.76-.118.736-.327.7-.531.652-.728-2.869.192-2.8.086-2.718-.02-2.624-.128-1.019.743-1.06.544-1.083.337Z"/><path class="cls-2" d="M113.857,224.423l3.29-.337,3.339-.448,3.377-.558,3.4-.665.42-.066.376-.272.326-.47.268-.663-3.035.59-3.011.5-2.975.4-2.927.295-.652.728-.7.531-.736.327Z"/><path class="cls-2" d="M127.264,222.415l3.416-.767,3.417-.868,3.407-.964,3.386-1.056.084.022.019-.175-.047-.367-.113-.557-3.028.944-3.047.86-3.054.773-3.05.684-.268.663-.326.47-.376.272Z"/><path class="cls-2" d="M140.89,218.76l3.353-1.145,3.31-1.228,3.257-1.309L154,213.7l-.234.144-.321-.043-.4-.228-.476-.415-2.857,1.238-2.915,1.171-2.963,1.1-3,1.022.113.557.047.367-.019.175Z"/><path class="cls-2" d="M154,213.7l3.117-1.454,3.031-1.52,2.937-1.58,2.831-1.637-.523.3-.63.118-.724-.062-.807-.243-2.533,1.465-2.628,1.415-2.713,1.36-2.79,1.3.476.415.4.228.321.043Z"/><path class="cls-2" d="M163.233,207.612l2.428-1.509,2.317-1.549,2.2-1.584,2.067-1.613-1.165-.224-1.218-.4-1.248-.565-1.257-.724-1.808,1.42-1.923,1.393-2.031,1.364-2.13,1.328.991.9.971.751.932.591Z"/><path class="cls-2" d="M172.241,201.357l1.931-1.637,1.787-1.655,1.635-1.668,1.476-1.675-1.394-.016-1.444-.193-1.468-.367-1.466-.537-1.28,1.472-1.422,1.467L169.038,198l-1.685,1.441,1.257.724,1.248.565,1.218.4Z"/><path class="cls-2" d="M179.07,194.722l1.311-1.676,1.14-1.671.962-1.659.779-1.643-1.548.2-1.595.016-1.616-.165-1.606-.347-.661,1.439-.823,1.455-.981,1.467-1.134,1.472,1.466.537,1.468.367,1.444.193Z"/><path class="cls-2" d="M183.262,188.073l.59-1.618.4-1.587.2-1.551v-1.508l-1.612.408-1.658.22-1.676.028-1.665-.164.025,1.315-.151,1.354-.324,1.389-.5,1.417,1.606.347,1.616.165,1.595-.016Z"/><path class="cls-2" d="M184.453,181.809l-.2-1.457-.406-1.4-.613-1.337-.818-1.268-1.573.6-1.621.4-1.638.2-1.627,0,.742,1.1.561,1.163.381,1.218.2,1.271,1.665.164,1.676-.028,1.658-.22Z"/><path class="cls-2" d="M182.415,176.346l-1.025-1.192-1.23-1.11-1.432-1.022-1.631-.928-1.422.755-1.471.554-1.493.345-1.489.129,1.445.8,1.272.882,1.1.959.92,1.033,1.627,0,1.638-.2,1.621-.4Z"/><path class="cls-2" d="M177.1,172.094l-1.826-.827-2.016-.723-2.2-.614-2.375-.5-1.157.862-1.209.654-1.239.439-1.249.213,2.079.424,1.93.523,1.774.619,1.611.712,1.489-.129,1.493-.345,1.471-.554Z"/><path class="cls-2" d="M168.682,169.431l-2.541-.381-2.7-.259-2.844-.136-2.977-.008-.787.9-.845.692-.887.471-.915.241h2.589l2.476.109,2.354.215,2.22.321,1.249-.213,1.239-.439,1.209-.654Z"/><path class="cls-2" d="M157.623,168.647l-3.1.12-3.205.249-3.295.378-3.372.506-.334.873-.4.657-.459.434-.509.2,2.916-.444,2.855-.333,2.779-.223,2.689-.112.915-.241.887-.471.845-.692Z"/><path class="cls-2" d="M144.653,169.9l-3.43.635-3.472.759-3.5.88-3.5,1,.162.763.087.547.011.326-.065.1,3.021-.865,3.016-.764,3-.66,2.965-.553.509-.2.459-.434.4-.657Z"/><path class="cls-2" d="M130.754,173.174l-3.49,1.113-3.458,1.221-3.408,1.324-3.34,1.418.658.583.573.369.479.154.378-.065,2.878-1.224,2.937-1.141,2.981-1.055,3.007-.962.065-.1-.011-.326-.087-.547Z"/><path class="cls-2" d="M117.058,178.25l-3.255,1.507-3.151,1.587L107.62,183l-2.9,1.722,1.1.348,1.01.14.9-.068.777-.275,2.5-1.483,2.614-1.429,2.716-1.368,2.8-1.3-.378.065-.479-.154-.573-.369Z"/><path class="cls-2" d="M104.725,184.724,101.98,186.5,99.4,188.317,97,190.169l-2.213,1.877,1.451.083,1.354-.119,1.234-.317,1.092-.508,1.918-1.62,2.079-1.6,2.23-1.568,2.37-1.53-.777.275-.9.068-1.01-.14Z"/><path class="cls-2" d="M94.786,192.046l-2.012,1.89-1.8,1.9-1.588,1.889L88.017,199.6l1.675-.185,1.576-.382,1.45-.568,1.3-.744,1.2-1.624,1.386-1.635,1.57-1.638,1.748-1.634-1.092.508-1.234.317-1.354.119Z"/><path class="cls-2" d="M88.017,199.6l-1.138,1.85-.907,1.816-.675,1.775-.442,1.724,1.761-.434,1.662-.623,1.537-.8,1.383-.961.405-1.5.607-1.543.8-1.578,1-1.6-1.3.744-1.45.568-1.576.382Z"/><path class="cls-2" d="M84.855,206.76l-.21,1.666.021,1.6.247,1.529.471,1.451,1.712-.642,1.617-.825,1.5-.991,1.348-1.141-.383-1.273-.189-1.339.007-1.4.206-1.453-1.383.961-1.537.8-1.662.623Z"/><path class="cls-2" d="M85.384,213.007l.687,1.366.9,1.279,1.1,1.185,1.3,1.088,1.545-.8,1.457-.974,1.344-1.134,1.2-1.274-1.106-.964-.934-1.047-.756-1.126-.57-1.2-1.348,1.141-1.5.991-1.617.825Z"/><path class="cls-2" d="M89.372,217.925l1.487.988,1.665.884,1.834.78,1.994.672,1.285-.892,1.2-1.066,1.1-1.221.976-1.354L99.2,216.11l-1.578-.7-1.428-.789-1.27-.877-1.2,1.274-1.344,1.134-1.457.974Z"/><path class="cls-2" d="M96.352,221.249l2.14.563,2.279.455,2.406.346,2.52.236.959-.928.883-1.1.792-1.252.685-1.383-2.19-.224-2.086-.32-1.973-.415-1.851-.51-.976,1.354-1.1,1.221-1.2,1.066Z"/><path class="cls-2" d="M105.7,222.849l2.624.128,2.718.02,2.8-.086,2.869-.192.592-.911.522-1.082.442-1.231.353-1.361-2.5.153-2.442.06-2.368-.033-2.284-.129-.685,1.383-.792,1.252-.883,1.1Z"/><path class="cls-2" d="M116.706,222.719l2.927-.295,2.975-.4,3.011-.5,3.035-.59.208-.845.141-1.014.074-1.165,0-1.3-2.662.508-2.638.422-2.605.335-2.56.245-.353,1.361-.442,1.231-.522,1.082Z"/><path class="cls-2" d="M128.654,220.944l3.05-.684,3.054-.773,3.047-.86,3.028-.944-.176-.736-.239-.905-.3-1.058-.348-1.193-2.662.823-2.675.749-2.682.671-2.676.59,0,1.3L129,219.085l-.141,1.014Z"/><path class="cls-2" d="M140.833,217.683l3-1.022,2.963-1.1,2.915-1.171,2.857-1.238-.542-.591-.6-.762-.648-.918-.684-1.06-2.513,1.087-2.562,1.027-2.6.961-2.638.894.348,1.193.3,1.058.239.905Z"/><path class="cls-2" d="M152.569,213.153l2.79-1.3,2.713-1.36,2.628-1.415,2.533-1.465-.878-.419-.932-.591-.971-.751-.991-.9-2.223,1.289-2.309,1.244-2.384,1.2-2.452,1.143.684,1.06.648.918.6.762Z"/><path class="cls-2" d="M159.461,204.95l2.13-1.328,2.031-1.364,1.923-1.393,1.808-1.42-1.243-.87-1.209-1-1.151-1.114-1.071-1.207-1.612,1.278-1.717,1.254-1.814,1.226-1.906,1.194.9,1.317.951,1.245.982,1.15Z"/><path class="cls-2" d="M167.353,199.445,169.038,198l1.558-1.456,1.422-1.467,1.28-1.472-1.439-.7-1.386-.844-1.308-.977L167.958,190l-1.133,1.325-1.261,1.321-1.384,1.311-1.5,1.3,1.071,1.207,1.151,1.114,1.209,1Z"/><path class="cls-2" d="M173.3,193.609l1.134-1.472.981-1.467.823-1.455.661-1.439-1.57-.521-1.5-.687-1.414-.841-1.3-.98-.572,1.295-.72,1.311-.862,1.32-1,1.326,1.207,1.093,1.308.977,1.386.844Z"/><path class="cls-2" d="M176.9,187.776l.5-1.417.324-1.389.151-1.354-.025-1.315-1.622-.354-1.554-.539-1.456-.711-1.334-.873.044,1.182-.115,1.218-.27,1.249-.423,1.274,1.3.98,1.414.841,1.5.687Z"/><path class="cls-2" d="M177.842,182.3l-.2-1.271-.381-1.218-.561-1.163-.742-1.1-1.588-.205-1.522-.407-1.43-.6-1.311-.782.684.987.522,1.044.363,1.095.2,1.141,1.334.873,1.456.711,1.554.539Z"/><path class="cls-2" d="M175.956,177.549l-.92-1.033-1.1-.959-1.272-.882-1.445-.8-1.459-.087-1.405-.3-1.327-.511-1.223-.711,1.3.716,1.153.79,1,.861.841.926,1.311.782,1.43.6,1.522.407Z"/><path class="cls-2" d="M171.222,173.877l-1.611-.712-1.774-.619-1.93-.523-2.079-.424-1.235-.012-1.2-.239-1.148-.457-1.073-.671,1.861.381,1.731.47,1.594.555,1.453.638,1.223.711,1.327.511,1.405.3Z"/><path class="cls-2" d="M163.828,171.6l-2.22-.321-2.354-.215-2.476-.109h-2.589l-.926.01-.922-.222-.9-.446-.866-.665,2.3,0,2.206.1,2.1.2,1.986.289,1.073.671,1.148.457,1.2.239Z"/><path class="cls-2" d="M154.189,170.955l-2.689.112-2.779.223-2.855.333-2.916.444-.551-.027-.582-.26-.6-.482-.615-.7,2.585-.389,2.532-.291,2.466-.194,2.391-.095.866.665.9.446.922.222Z"/><path class="cls-2" d="M142.95,172.067l-2.965.553-3,.66-3.016.764-3.021.865-.138-.127-.21-.35-.277-.563-.339-.769,2.669-.761,2.667-.672,2.654-.58,2.624-.486.615.7.6.482.582.26Z"/><path class="cls-2" d="M130.949,174.909l-3.007.962-2.981,1.055-2.937,1.141-2.878,1.224.272-.279.161-.49.05-.687-.064-.873,2.54-1.079,2.592-1.007,2.632-.928,2.656-.848.339.769.277.563.21.35Z"/><path class="cls-2" d="M119.146,179.291l-2.8,1.3-2.716,1.368-2.614,1.429-2.5,1.483.641-.472.5-.664.344-.841.185-1,2.206-1.312,2.308-1.262,2.4-1.207,2.475-1.146.064.873-.05.687-.161.49Z"/><path class="cls-2" d="M108.514,184.869l-2.37,1.53-2.23,1.568-2.079,1.6-1.918,1.62.935-.689.762-.858.578-1.01.384-1.146,1.7-1.436,1.84-1.416,1.97-1.388,2.095-1.353-.185,1-.344.841-.5.664Z"/><path class="cls-2" d="M99.917,191.185l-1.748,1.634-1.57,1.638-1.386,1.635-1.2,1.624,1.127-.906.938-1.053.734-1.18.518-1.286,1.066-1.447,1.233-1.455,1.393-1.456,1.55-1.451-.384,1.146-.578,1.01-.762.858Z"/><path class="cls-2" d="M94.017,197.716l-1,1.6-.8,1.578-.607,1.543-.405,1.5,1.208-1.1,1.013-1.231.8-1.334.576-1.414.371-1.346.548-1.381.722-1.41.9-1.432-.518,1.286-.734,1.18-.938,1.053Z"/><path class="cls-2" d="M91.2,203.944l-.206,1.453-.007,1.4.189,1.339.383,1.273,1.177-1.271.987-1.377L94.5,205.3l.561-1.518-.326-1.15-.155-1.206.019-1.259.2-1.306-.576,1.414-.8,1.334-1.013,1.231Z"/><path class="cls-2" d="M91.557,209.408l.57,1.2.756,1.126.934,1.047,1.106.964,1.047-1.392.871-1.485.681-1.553L98,207.725l-.97-.88-.817-.953-.658-1.022-.493-1.089L94.5,205.3l-.781,1.461-.987,1.377Z"/><path class="cls-2" d="M94.923,213.747l1.27.877,1.428.789,1.578.7,1.717.606.837-1.465.682-1.549.517-1.6.34-1.634-1.52-.563-1.393-.645-1.26-.726-1.118-.8-.479,1.592-.681,1.553-.871,1.485Z"/><path class="cls-2" d="M100.916,216.716l1.851.51,1.973.415,2.086.32,2.19.224.567-1.487.439-1.569.3-1.62.161-1.644-1.949-.222-1.853-.308-1.752-.394-1.64-.478-.34,1.634-.517,1.6-.682,1.549Z"/><path class="cls-2" d="M109.016,218.185l2.284.129,2.368.033,2.442-.06,2.5-.153.26-1.466.16-1.547.058-1.6-.045-1.622-2.238.119-2.179.034L112.52,212l-2.034-.136-.161,1.644-.3,1.62-.439,1.569Z"/><path class="cls-2" d="M118.615,218.134l2.56-.245,2.605-.335,2.638-.422,2.662-.508-.067-1.4-.136-1.489-.2-1.546-.267-1.576-2.383.441-2.36.363-2.328.283-2.288.2.045,1.622-.058,1.6-.16,1.547Z"/><path class="cls-2" d="M129.08,216.624l2.676-.59,2.682-.671,2.675-.749,2.662-.823-.394-1.307-.435-1.4-.465-1.466-.49-1.506-2.386.729-2.4.661-2.4.59-2.4.517.267,1.576.2,1.546.136,1.489Z"/><path class="cls-2" d="M139.775,213.791l2.638-.894,2.6-.961,2.562-1.027,2.513-1.087-.709-1.181-.72-1.285-.719-1.363-.7-1.419-2.251.971-2.3.916-2.335.857-2.365.795.49,1.506.465,1.466.435,1.4Z"/><path class="cls-2" d="M150.093,209.822l2.452-1.143,2.384-1.2,2.309-1.244,2.223-1.289-1-1.033-.982-1.15-.951-1.245-.9-1.317-1.989,1.156-2.067,1.117-2.136,1.072-2.2,1.024.7,1.419.719,1.363.72,1.285Z"/><path class="cls-2" d="M155.63,200.205l1.906-1.194,1.814-1.226,1.717-1.254,1.612-1.278-.975-1.279-.86-1.329-.729-1.353-.586-1.354L158,191.165l-1.635,1.2-1.728,1.176-1.817,1.144.557,1.366.664,1.392.756,1.392Z"/><path class="cls-2" d="M162.679,195.253l1.5-1.3,1.384-1.311,1.261-1.321L167.958,190l-1.083-1.189-.942-1.265-.783-1.317-.61-1.345-1.073,1.277-1.2,1.271-1.314,1.26-1.427,1.247.586,1.354.729,1.353.86,1.329Z"/><path class="cls-2" d="M167.958,190l1-1.326.862-1.32.72-1.311.572-1.295-1.157-1.1-1-1.2-.821-1.283-.628-1.341-.535,1.25-.677,1.263-.812,1.273-.945,1.277.61,1.345.783,1.317.942,1.265Z"/><path class="cls-2" d="M171.112,184.747l.423-1.274.27-1.249.115-1.218-.044-1.182-1.188-1.019-1.022-1.147-.838-1.255-.64-1.34.055,1.143-.1,1.177-.245,1.207-.392,1.23.628,1.341.821,1.283,1,1.2Z"/><path class="cls-2" d="M171.876,179.824l-.2-1.141-.363-1.095-.522-1.044-.684-.987-1.17-.949-1.011-1.1-.834-1.233-.642-1.344.664.957.511,1.012.359,1.06.206,1.1.64,1.34.838,1.255,1.022,1.147Z"/><path class="cls-2" d="M170.105,175.557l-.841-.926-1-.861-1.153-.79-1.3-.716-1.1-.9-.962-1.069-.806-1.221-.635-1.351,1.255.7,1.111.769.965.837.815.9.642,1.344.834,1.233,1.011,1.1Z"/><path class="cls-2" d="M165.808,172.264l-1.453-.638-1.594-.555-1.731-.47-1.861-.381-.983-.868-.875-1.054-.754-1.218-.618-1.363,1.782.378,1.658.463,1.529.544,1.394.624.635,1.351.806,1.221.962,1.069Z"/><path class="cls-2" d="M159.169,170.22l-1.986-.289-2.1-.2-2.206-.1-2.3,0-.817-.868L149,167.706l-.68-1.229-.592-1.379,2.2.017,2.107.11,2.006.2,1.9.292.618,1.363.754,1.218.875,1.054Z"/><path class="cls-2" d="M150.573,169.632l-2.391.095-2.466.194-2.532.291-2.585.389-.615-.9-.606-1.085-.588-1.25-.558-1.4,2.46-.359,2.411-.264,2.35-.172,2.278-.077.592,1.379.68,1.229.753,1.058Z"/><path class="cls-2" d="M140.6,170.6l-2.624.486-2.654.58-2.667.672-2.669.761-.394-.958-.444-1.131-.485-1.286-.519-1.417,2.535-.716,2.535-.63,2.523-.542,2.5-.45.558,1.4.588,1.25.606,1.085Z"/><path class="cls-2" d="M129.985,173.1l-2.656.848-2.632.928-2.592,1.007-2.54,1.079-.174-1.044-.281-1.2-.383-1.328-.478-1.438,2.411-1.021,2.461-.952,2.5-.877,2.524-.8.519,1.417.485,1.286.444,1.131Z"/><path class="cls-2" d="M119.565,176.962l-2.475,1.146-2.4,1.207-2.308,1.262-2.206,1.312.026-1.147-.134-1.274-.288-1.376-.44-1.456,2.093-1.248,2.19-1.2,2.274-1.146,2.349-1.087.478,1.438.383,1.328.281,1.2Z"/><path class="cls-2" d="M110.179,181.889l-2.095,1.353-1.97,1.388-1.84,1.416-1.7,1.436.188-1.259-.014-1.354-.212-1.425-.406-1.472,1.611-1.373,1.745-1.351,1.87-1.324,1.985-1.288.44,1.456.288,1.376.134,1.274Z"/><path class="cls-2" d="M102.576,187.482l-1.55,1.451-1.393,1.456L98.4,191.844l-1.066,1.447.3-1.371.068-1.432-.157-1.47-.383-1.483,1.013-1.388,1.169-1.395,1.323-1.393,1.47-1.387.406,1.472.212,1.425.014,1.354Z"/><path class="cls-2" d="M97.334,193.291l-.9,1.432-.722,1.41-.548,1.381L94.8,198.86l.345-1.469.106-1.5-.131-1.508-.368-1.487.353-1.3.52-1.33.686-1.356.85-1.376.383,1.483.157,1.47-.068,1.432Z"/><path class="cls-2" d="M94.8,198.86l-.2,1.306-.019,1.259.155,1.206.326,1.15.334-1.549.1-1.555-.132-1.534L95,197.657l-.31-1.115-.146-1.169.017-1.218.185-1.26.368,1.487.131,1.508-.106,1.5Z"/><path class="cls-2" d="M95.063,203.781l.493,1.089.658,1.022.817.953.97.88.269-1.6.056-1.591-.158-1.548L97.8,201.5l-.924-.862-.777-.93-.626-1L95,197.657l.363,1.486.132,1.534-.1,1.555Z"/><path class="cls-2" d="M98,207.725l1.118.8,1.26.726,1.393.645,1.52.563.161-1.634-.023-1.607-.205-1.551-.383-1.468-1.45-.559-1.328-.637-1.2-.715L97.8,201.5l.369,1.479.158,1.548-.056,1.591Z"/><path class="cls-2" d="M103.292,210.463l1.64.478,1.752.394,1.853.308,1.949.222.018-1.638-.128-1.6-.268-1.543-.405-1.452-1.859-.233-1.769-.315-1.67-.4-1.563-.479.383,1.468.205,1.551.023,1.607Z"/><path class="cls-2" d="M110.486,211.865l2.034.136,2.111.051,2.179-.034,2.238-.119-.148-1.618-.248-1.585-.343-1.525-.431-1.434-2.137.095-2.081.015-2.016-.068-1.941-.151.405,1.452.268,1.543.128,1.6Z"/><path class="cls-2" d="M119.048,211.9l2.288-.2,2.328-.283,2.36-.363,2.383-.441-.324-1.577-.378-1.552-.424-1.5-.462-1.415-2.277.407-2.255.332-2.225.254-2.184.176.431,1.434.343,1.525.248,1.585Z"/><path class="cls-2" d="M128.407,210.61l2.4-.517,2.4-.59,2.4-.661,2.386-.729-.505-1.52-.51-1.507-.506-1.465-.494-1.4-2.28.688-2.292.621-2.295.553-2.29.482.462,1.415.424,1.5.378,1.552Z"/><path class="cls-2" d="M137.991,208.113l2.365-.795,2.335-.857,2.3-.916,2.251-.971-.678-1.449-.638-1.452-.588-1.429-.526-1.381-2.15.925-2.195.871-2.23.813-2.259.752.494,1.4.506,1.465.51,1.507Z"/><path class="cls-2" d="M147.24,204.574l2.2-1.024,2.136-1.072,2.067-1.117,1.989-1.156-.837-1.367-.756-1.392-.664-1.392-.557-1.366-1.9,1.107-1.971,1.068-2.039,1.024-2.1.976.526,1.381.588,1.429.638,1.452Z"/><path class="cls-3" d="M513.052,219.566l-1.118-5.467-1.017-5.661L510,202.6l-.812-5.993-.709-6.133-.607-6.258-.5-6.366-.4-6.461-.3-6.541-.2-6.607-.1-6.659v-6.7l.1-6.723.2-6.734.3-6.733.4-6.717.5-6.688.605-6.644.706-6.586L510,91.55l.907-6.422,1.007-6.316,1.105-6.192,1.206-6.051,1.305-5.889,1.4-5.709,1.5-5.506,1.6-5.282,1.689-5.033,1.782-4.761,1.87-4.464,1.956-4.138L529.361,22l2.117-3.406,2.189-3,2.258-2.557,2.317-2.089,2.369-1.59L543.024,8.3l2.447-.505,2.469.077,2.481.684L552.9,9.869l2.461,1.966,2.43,2.63,2.383,3.306,2.318,3.988,2.237,4.672,2.138,5.348,2.02,6.012,1.887,6.654,1.733,7.27,1.565,7.848,1.382,8.386,1.183,8.869.972,9.3.751,9.66.52,9.956.286,10.175.046,10.317-.194,10.379-.433,10.364-.666,10.267-.893,10.091-1.11,9.844-1.317,9.525-1.509,9.143-1.686,8.7-1.848,8.207-1.992,7.665-2.119,7.091-2.227,6.483-2.317,5.857-2.389,5.208-2.444,4.557-2.483,3.9-2.5,3.248-2.511,2.6-2.5,1.967-2.484,1.348-2.454.75-2.411.172-2.359-.382-2.3-.911-2.231-1.414-2.157-1.891-2.078-2.341-1.993-2.765-1.9-3.161-1.812-3.532-1.719-3.879-1.621-4.2-1.523-4.5-1.423-4.771-1.322-5.024Z"/><path class="cls-2" d="M181.883,113.1,167.3,129.51l12.887-48.334,14.066-13.218Z"/><path class="cls-2" d="M228.134,129.43l-10.824,17.7L167.3,129.51,181.883,113.1Z"/><path class="cls-2" d="M217.31,147.134l14.637-47.622L180.186,81.176,167.3,129.51Z"/><path class="cls-2" d="M231.947,99.512,242,84.9,194.252,67.958,180.186,81.176Z"/><path class="cls-2" d="M242,84.9,228.134,129.43,181.883,113.1l12.369-45.138Z"/><path class="cls-2" d="M228.134,129.43,242,84.9l-10.05,14.61L217.31,147.134Z"/><ellipse class="cls-4" cx="145.282" cy="138.499" rx="129.465" ry="126.039"/><path class="cls-4" d="M139.938,12.565l-2.07.139-3.194.811-3.2,1.426L128.3,17l-3.147,2.7-3.093,3.357-3.019,4.013-2.922,4.668-2.8,5.313L110.645,43l-2.5,6.552-2.32,7.136-2.116,7.68-1.893,8.188-1.653,8.64-1.4,9.043L97.64,99.621,96.8,109.28l-.553,9.864-.256,10L96.03,139.2l.341,10.044L97,159.2l.921,9.794,1.2,9.564,1.463,9.269,1.712,8.913,1.947,8.5,2.161,8.036,2.357,7.528,2.532,6.986,2.684,6.411,2.816,5.816,2.926,5.2,3.015,4.575,3.082,3.944,3.131,3.313,3.159,2.687,3.169,2.07,3.164,1.466,3.142.879,3.105.309"/><path class="cls-4" d="M513.052,220.143l-1.118-5.468-1.017-5.661L510,203.179l-.812-5.993-.709-6.133-.607-6.257-.5-6.367-.4-6.461-.3-6.541-.2-6.607-.1-6.659v-6.7l.1-6.723.2-6.735.3-6.733.4-6.717.5-6.688.605-6.644.706-6.585L510,92.127l.907-6.422,1.007-6.316,1.105-6.193,1.206-6.05,1.305-5.89,1.4-5.708,1.5-5.506,1.6-5.283,1.689-5.033,1.782-4.761,1.87-4.463,1.956-4.139,2.04-3.786,2.117-3.406,2.189-3,2.258-2.557,2.317-2.088,2.369-1.59,2.413-1.063,2.447-.506,2.469.077,2.481.684,2.478,1.314,2.461,1.965,2.43,2.63,2.383,3.307,2.318,3.987,2.237,4.673,2.138,5.347,2.02,6.013,1.887,6.653,1.733,7.27,1.565,7.848,1.382,8.387,1.183,8.869.972,9.3.751,9.659.52,9.957.286,10.175.046,10.316-.194,10.379-.433,10.364-.666,10.268-.893,10.091-1.11,9.844L574.6,187.27l-1.509,9.144-1.686,8.7-1.848,8.207-1.992,7.666-2.119,7.091-2.227,6.483-2.317,5.856-2.389,5.209-2.444,4.557-2.483,3.9-2.5,3.247-2.511,2.6-2.5,1.967-2.484,1.348-2.454.751-2.411.171-2.359-.381-2.3-.911-2.231-1.414-2.157-1.892-2.078-2.341-1.993-2.764-1.9-3.162-1.812-3.532-1.719-3.878-1.621-4.2-1.523-4.5-1.423-4.77-1.322-5.025Z"/><line class="cls-4" x1="541.102" y1="68.148" x2="473.992" y2="68.148"/><polygon points="476.91 58.176 459.639 68.148 476.91 78.121 476.91 58.176"/><line class="cls-4" x1="541.102" y1="135.001" x2="473.992" y2="135.001"/><polygon points="476.91 125.028 459.639 135.001 476.91 144.974 476.91 125.028"/><line class="cls-4" x1="541.102" y1="196.087" x2="473.992" y2="196.087"/><polygon points="476.91 186.114 459.639 196.087 476.91 206.059 476.91 186.114"/><path class="cls-5" d="M139.938,12.565l-2.07.139-3.194.811-3.2,1.426L128.3,17l-3.147,2.7-3.093,3.357-3.019,4.013-2.922,4.668-2.8,5.313L110.645,43l-2.5,6.552-2.32,7.136-2.116,7.68-1.893,8.188-1.653,8.64-1.4,9.043L97.64,99.621,96.8,109.28l-.553,9.864-.256,10L96.03,139.2l.341,10.044L97,159.2l.921,9.794,1.2,9.564,1.463,9.269,1.712,8.913,1.947,8.5,2.161,8.036,2.357,7.528,2.532,6.986,2.684,6.411,2.816,5.816,2.926,5.2,3.015,4.575,3.082,3.944,3.131,3.313,3.159,2.687,3.169,2.07,3.164,1.466,3.142.879,3.105.309,3.057-.24,3-.766,2.924-1.269,2.843-1.747,2.755-2.2,2.657-2.629,2.554-3.033,2.446-3.412,2.333-3.765,2.216-4.1,2.095-4.4,1.973-4.687,1.847-4.95,1.719-5.191,1.591-5.413,1.461-5.615,1.33-5.8,1.2-5.963,1.066-6.112.935-6.243.8-6.358.668-6.458.535-6.542.4-6.611.268-6.666.134-6.706v-6.732l-.134-6.743-.267-6.74-.4-6.722-.536-6.69-.67-6.642-.805-6.577-.938-6.5-1.074-6.4-1.207-6.289-1.341-6.156-1.474-6-1.606-5.835L177.3,57.9l-1.867-5.431-1.995-5.2-2.122-4.938-2.243-4.656-2.363-4.348-2.479-4.015-2.588-3.654L158.948,22.4l-2.791-2.852-2.881-2.407L150.313,15.2l-3.034-1.439-3.094-.912-3.141-.362-1.106.074"/><path d="M533.81,196.083a7.292,7.292,0,1,0,7.3-7.29A7.3,7.3,0,0,0,533.81,196.083Z"/><path d="M533.81,135a7.292,7.292,0,1,0,7.3-7.29A7.3,7.3,0,0,0,533.81,135Z"/><path d="M533.81,68.144a7.292,7.292,0,1,0,7.3-7.29A7.3,7.3,0,0,0,533.81,68.144Z"/></svg>