<svg id="Layer_1" data-name="Layer 1" xmlns="http://www.w3.org/2000/svg" viewBox="0 0 416 206.289"><defs><style>.cls-1{fill:#e6e6e6;}.cls-1,.cls-6,.cls-7{stroke:#000;stroke-miterlimit:10;}.cls-1,.cls-6{stroke-width:2px;}.cls-2{font-size:30px;}.cls-2,.cls-8{font-family:MyriadPro-Regular, Myriad Pro;}.cls-3{fill:#bbbdbf;}.cls-4{fill:#fff;}.cls-5{fill:#212121;}.cls-6{fill:none;stroke-linecap:square;}.cls-7{fill:#fcee21;stroke-width:0.25px;}.cls-8{font-size:48px;}</style></defs><title>Artboard 7</title><rect class="cls-1" x="6.29" y="165.202" width="341.043" height="32"/><rect class="cls-1" x="6.29" y="118.936" width="341.043" height="32"/><text class="cls-2" transform="translate(361.025 140.107) scale(0.583)">Glass</text><text class="cls-2" transform="translate(361.025 185.558) scale(0.583)">Diffuse</text><g id="Eye"><g id="_Group_" data-name="&lt;Group&gt;"><path class="cls-3" d="M80.867,29.828C78.545,42.709,70.62,49.487,58.9,48.669c-2.017-15.9-7.982-27.65-12.663-36.145.323.221.625.461.968.7C56.272,19.82,65.621,26.64,80.867,29.828Z"/><path d="M58.9,48.669c11.723.818,19.648-5.96,21.97-18.841C65.621,26.64,56.272,19.82,47.2,13.226c-.343-.241-.645-.481-.968-.7C50.915,21.019,56.88,32.764,58.9,48.669ZM83.054,30.244c-2.5,13.77-11.333,21.393-23.91,20.69.2,1.989.357,4.027.415,6.138l-2.22.055c-.677-21.33-8.923-36.089-14.375-45.854L41.851,9.232a2.83,2.83,0,0,0,.958-.53,3.212,3.212,0,0,0,.661-.92c1.7,1.213,3.38,2.407,5.038,3.626C59.259,19.238,69.4,26.65,88.833,28.85l-.247,2.207C86.656,30.846,84.825,30.56,83.054,30.244Z"/></g><path class="cls-4" d="M72.788,43.227c-3.768,3.1-8.412,3.663-10.374,1.273s-.5-6.842,3.271-9.929S74.1,30.913,76.063,33.3,76.561,40.141,72.788,43.227Z"/><path class="cls-5" d="M71.452,43.154a3.532,3.532,0,0,1-4.955-.339A3.814,3.814,0,0,1,72.538,38.3,3.539,3.539,0,0,1,71.452,43.154Z"/></g><line class="cls-6" x1="79.333" y1="48.735" x2="129.973" y2="106.192"/><polygon points="124.326 108.835 135.667 112.653 133.304 100.923 124.326 108.835"/><line class="cls-6" x1="280.258" y1="57.082" x2="222.801" y2="107.722"/><polygon points="220.158 102.075 216.341 113.416 228.071 111.053 220.158 102.075"/><polyline class="cls-7" points="312.481 45.933 320.769 60.089 315.199 44.66 325.947 57.052 317.637 42.909 330.479 53.115 319.712 40.74 334.21 48.412 321.352 38.226 337.014 43.104 322.503 35.454 338.794 37.371 323.125 32.518 339.491 31.408 323.197 29.517 339.081 25.419 322.716 26.554 337.576 19.608 321.699 23.73 335.03 14.171 320.181 21.141 331.528 9.296 318.212 18.875 327.19 5.146 315.861 17.01 322.163 1.865 313.207 15.608 316.619 -0.437 310.34 14.717 310.746 -1.681 307.359 14.369 304.744 -1.825 304.365 14.574 298.819 -0.863 301.459 15.327 293.171 1.171 298.741 16.6 287.992 4.208 296.303 18.351 283.461 8.145 294.228 20.52 279.729 12.848 292.587 23.033 276.926 18.156 291.436 25.805 275.145 23.889 290.814 28.742 274.448 29.851 290.743 31.743 274.859 35.84 291.223 34.705 276.363 41.652 292.24 37.529 278.91 47.088 293.759 40.118 282.412 51.964 295.727 42.384 286.75 56.113 298.079 44.25 291.777 59.395 300.733 45.652 297.321 61.697 303.599 46.542 303.194 62.941 306.581 46.891 309.195 63.084 309.575 46.685 315.121 62.123 312.481 45.933"/><text class="cls-8" transform="translate(120.59 85.142) scale(0.583)">?</text><text class="cls-8" transform="translate(231.923 85.142) scale(0.583)">?</text></svg>