<svg id="Layer_1" data-name="Layer 1" xmlns="http://www.w3.org/2000/svg" xmlns:xlink="http://www.w3.org/1999/xlink" viewBox="0 0 207 233.12"><defs><style>.cls-1,.cls-2,.cls-6,.cls-7{fill:none;}.cls-2,.cls-6,.cls-7{stroke:#000;stroke-miterlimit:10;}.cls-3{fill:#fff;}.cls-4{font-size:24px;}.cls-4,.cls-8{font-family:MyriadPro-Regular, Myriad Pro;}.cls-5{font-size:16px;font-family:RobotoMono-Regular, Roboto Mono;}.cls-6{stroke-linecap:square;}.cls-6,.cls-7{stroke-width:2px;}.cls-7{stroke-dasharray:4;}.cls-8{font-size:24.6px;}.cls-9{clip-path:url(#clip-path);}</style><clipPath id="clip-path"><rect class="cls-1" x="19" y="194.123" width="123.5" height="11.336"/></clipPath></defs><title>Artboard 2</title><line class="cls-2" x1="19" y1="12.398" x2="19" y2="190.447"/><line class="cls-2" x1="142.5" y1="12.398" x2="142.5" y2="190.447"/><ellipse class="cls-3" cx="19" cy="101.422" rx="12.014" ry="44.275"/><path d="M19,58.143a86.89,86.89,0,0,1,11.514,43.279A86.894,86.894,0,0,1,19,144.7a87.1,87.1,0,0,1,0-86.559m0-1.974a88.081,88.081,0,0,0,0,90.507,87.59,87.59,0,0,0,12.514-45.254A87.589,87.589,0,0,0,19,56.169Z"/><text class="cls-4" transform="translate(33.894 142.217)">p</text><text class="cls-5" transform="translate(146.911 86.286)">pFocus</text><text class="cls-5" transform="translate(19 223.721)">focalDistance</text><path d="M21.589,131.6A4.411,4.411,0,1,0,26,127.193,4.413,4.413,0,0,0,21.589,131.6Z"/><path d="M138.089,69.19a4.411,4.411,0,1,0,4.413-4.41A4.413,4.413,0,0,0,138.089,69.19Z"/><line class="cls-6" x1="26" y1="131.605" x2="75.521" y2="104.711"/><polygon points="76.838 110.804 83.088 100.601 71.126 100.288 76.838 110.804"/><line class="cls-7" x1="48.861" y1="119.189" x2="170.029" y2="53.383"/><text class="cls-8" transform="translate(64.021 90.605)">ω</text><g class="cls-9"><path d="M134.63,198.975a13.943,13.943,0,0,0,1.819-.043c3.082-.449,4.473-3.21,4.9-4.087.107-.171.128-.193.471-.193.471,0,.471.022.471.471a1.341,1.341,0,0,1-.236.835c-1.263,2.653-3.3,4.793-6.4,4.793H87.148a3.3,3.3,0,0,0-.77.086,7.2,7.2,0,0,0-5.008,3.916c-.172.3-.193.321-.557.321-.342,0-.363-.021-.556-.363a6.967,6.967,0,0,0-5.543-3.938c-.235-.022-1.348-.022-2.012-.022H27.018a12.813,12.813,0,0,1-2.054-.064c-2.611-.449-4.3-2.546-5.351-4.665a1.587,1.587,0,0,1-.256-.9c0-.471.021-.471.47-.471.321,0,.364,0,.45.171,2.054,4.152,4.794,4.152,6.12,4.152H74.521c1.22,0,4.3.706,6.314,4.88a9.388,9.388,0,0,1,2.718-3.532,6.389,6.389,0,0,1,4.323-1.348Z"/></g></svg>