<svg id="Layer_1" data-name="Layer 1" xmlns="http://www.w3.org/2000/svg" viewBox="0 0 315.5 233.12"><defs><style>.cls-1,.cls-15,.cls-3,.cls-4{fill:none;}.cls-1,.cls-14,.cls-15,.cls-3,.cls-4{stroke:#000;stroke-miterlimit:10;}.cls-14,.cls-2{fill:#fff;}.cls-3,.cls-4{stroke-width:2px;}.cls-4{stroke-dasharray:4;}.cls-5,.cls-6,.cls-8{font-size:24.6px;}.cls-13,.cls-5,.cls-7,.cls-8{font-family:MyriadPro-It, Myriad Pro;}.cls-12,.cls-13,.cls-5,.cls-7,.cls-9{font-style:italic;}.cls-10,.cls-11,.cls-6{font-family:MyriadPro-Regular, Myriad Pro;}.cls-7{font-size:21px;}.cls-11{letter-spacing:-0.003em;}.cls-12{letter-spacing:0em;}.cls-13{font-size:22.865px;}.cls-14{stroke-width:1.5px;}.cls-15{stroke-width:1.859px;}</style></defs><title>Artboard 2 copy</title><line class="cls-1" x1="19" y1="12.398" x2="19" y2="190.447"/><line class="cls-1" x1="142.5" y1="12.398" x2="142.5" y2="190.447"/><ellipse class="cls-2" cx="19" cy="101.422" rx="12.014" ry="44.275"/><path d="M19,58.143a86.89,86.89,0,0,1,11.514,43.279A86.894,86.894,0,0,1,19,144.7a87.1,87.1,0,0,1,0-86.559m0-1.974a88.081,88.081,0,0,0,0,90.507,87.59,87.59,0,0,0,12.514-45.254A87.589,87.589,0,0,0,19,56.169Z"/><path d="M21.589,131.6A4.411,4.411,0,1,0,26,127.193,4.413,4.413,0,0,0,21.589,131.6Z"/><line class="cls-3" x1="26" y1="131.605" x2="142.5" y2="69.192"/><line class="cls-4" x1="26" y1="131.605" x2="142.5" y2="131.605"/><text class="cls-5" transform="translate(70.771 94.855)">d</text><text class="cls-6" transform="translate(150.104 74.937)">p</text><text class="cls-7" transform="translate(93.521 120.605)">θ</text><text class="cls-5" transform="translate(119.771 212.604)">z = 1</text><text class="cls-8" transform="translate(220.912 48.32)"><tspan class="cls-9">p</tspan><tspan class="cls-10" x="12.915" y="0">(</tspan><tspan class="cls-11" x="19.901" y="0">p</tspan><tspan class="cls-10" x="33.824" y="0">)</tspan><tspan class="cls-12" x="40.811" y="0" xml:space="preserve"> = </tspan></text><text class="cls-13" transform="translate(291.457 63.95)">A</text><text class="cls-13" transform="translate(293.549 35.423)">1</text><path class="cls-1" d="M83.876,100.908A65.208,65.208,0,0,1,91.5,131.6"/><path class="cls-14" d="M138.089,69.19a4.411,4.411,0,1,0,4.413-4.41A4.413,4.413,0,0,0,138.089,69.19Z"/><line class="cls-15" x1="288.185" y1="41.817" x2="309.098" y2="41.817"/><path class="cls-1" d="M216.167,41.817c-29.726-.1-52.388-2.231-66.584,13.775"/><polygon points="147.867 53.06 146.911 58.966 152.504 56.842 147.867 53.06"/></svg>