<svg id="Layer_1" data-name="Layer 1" xmlns="http://www.w3.org/2000/svg" viewBox="0 0 382.5 322.333"><defs><style>.cls-1{fill:#e6e6e6;}.cls-1,.cls-2,.cls-3,.cls-4,.cls-5,.cls-6,.cls-7{stroke:#000;stroke-miterlimit:10;}.cls-2,.cls-3,.cls-4,.cls-5,.cls-6{fill:none;}.cls-3{stroke-dasharray:3.34 3.34;}.cls-4{stroke-dasharray:3.23 3.23;}.cls-5{stroke-dasharray:3.203 3.203;}.cls-6{stroke-linecap:square;stroke-width:2px;}.cls-7{fill:#fcee21;stroke-width:0.25px;}.cls-8{font-size:20px;font-family:MyriadPro-Regular, Myriad Pro;}.cls-9{letter-spacing:0em;}</style></defs><title>Artboard 6</title><polygon class="cls-1" points="6.48 217.012 46.759 146.279 134.989 230.766 114.873 315.253 6.48 217.012"/><polygon class="cls-1" points="243.241 211.445 279.767 87.334 366.042 83.732 326.091 227.818 243.241 211.445"/><path d="M71.145,220.559a4.776,4.776,0,1,0,4.778-4.775A4.778,4.778,0,0,0,71.145,220.559Z"/><path d="M299.865,151a4.776,4.776,0,1,0,4.779-4.775A4.778,4.778,0,0,0,299.865,151Z"/><line x1="122.148" y1="60.166" x2="75.921" y2="220.561"/><line class="cls-2" x1="122.148" y1="60.166" x2="121.695" y2="61.739"/><line class="cls-3" x1="120.77" y1="64.948" x2="76.836" y2="217.384"/><line class="cls-2" x1="76.374" y1="218.988" x2="75.921" y2="220.561"/><line x1="304.641" y1="150.998" x2="75.921" y2="220.561"/><line class="cls-2" x1="304.641" y1="150.998" x2="303.075" y2="151.474"/><line class="cls-4" x1="299.984" y1="152.414" x2="79.032" y2="219.615"/><line class="cls-2" x1="77.487" y1="220.085" x2="75.921" y2="220.561"/><line x1="303.667" y1="148.992" x2="247.675" y2="40.833"/><line class="cls-2" x1="303.667" y1="148.992" x2="302.914" y2="147.538"/><line class="cls-5" x1="301.442" y1="144.693" x2="249.164" y2="43.71"/><line class="cls-2" x1="248.428" y1="42.287" x2="247.675" y2="40.833"/><line class="cls-6" x1="120.734" y1="65.072" x2="108.86" y2="106.273"/><polygon points="103.595 102.934 106.475 114.548 115.094 106.248 103.595 102.934"/><line class="cls-6" x1="75.921" y1="220.561" x2="89.196" y2="174.499"/><polygon points="94.461 177.838 91.581 166.224 82.962 174.524 94.461 177.838"/><polyline class="cls-7" points="127.66 75.469 135.948 89.625 130.378 74.196 141.126 86.587 132.816 72.445 145.658 82.65 134.89 70.275 149.389 77.948 136.531 67.762 152.193 72.64 137.682 64.99 153.973 66.907 138.304 62.053 154.67 60.944 138.376 59.053 154.259 54.955 137.895 56.09 152.755 49.143 136.878 53.266 150.209 43.707 135.359 50.677 146.707 38.831 133.391 48.411 142.368 34.682 131.04 46.545 137.341 31.401 128.386 45.143 131.797 29.099 125.519 44.253 125.924 27.855 122.538 43.905 119.923 27.711 119.543 44.11 113.997 28.672 116.637 44.862 108.349 30.706 113.919 46.135 103.171 33.744 111.481 47.886 98.639 37.681 109.407 50.056 94.908 42.383 107.766 52.569 92.104 47.691 106.615 55.341 90.324 53.424 105.993 58.278 89.627 59.387 105.921 61.278 90.038 65.376 106.402 64.241 91.542 71.188 107.419 67.065 94.088 76.624 108.938 69.654 97.59 81.5 110.906 71.92 101.929 85.649 113.257 73.786 106.956 88.931 115.911 75.188 112.5 91.232 118.778 76.078 118.373 92.476 121.759 76.426 124.374 92.62 124.754 76.221 130.3 91.659 127.66 75.469"/><line class="cls-6" x1="303.358" y1="151.402" x2="248.479" y2="168.093"/><polygon points="248.413 161.859 240.241 170.599 251.896 173.309 248.413 161.859"/><text class="cls-8" transform="translate(43.021 242.521)">(<tspan x="5.68" y="0">p</tspan></text><text class="cls-8" transform="translate(60.081 249.182) scale(0.583)">0</text><text class="cls-8" transform="translate(66.062 242.521)">, <tspan class="cls-9" x="8.38" y="0">ω</tspan></text><text class="cls-8" transform="translate(88.321 249.182) scale(0.583)">0</text><text class="cls-8" transform="translate(94.302 242.521)">, β</text><text class="cls-8" transform="translate(113.883 249.182) scale(0.583)">0</text><text class="cls-8" transform="translate(119.864 242.521)">)</text><text class="cls-8" transform="translate(169.924 140.364)">(<tspan x="5.68" y="0">p</tspan></text><text class="cls-8" transform="translate(186.984 147.024) scale(0.583)">1</text><text class="cls-8" transform="translate(192.965 140.364)">, <tspan class="cls-9" x="8.38" y="0">ω</tspan></text><text class="cls-8" transform="translate(215.224 147.024) scale(0.583)">1</text><text class="cls-8" transform="translate(221.205 140.364)">, β</text><text class="cls-8" transform="translate(240.785 147.024) scale(0.583)">1</text><text class="cls-8" transform="translate(246.767 140.364)">)</text><line class="cls-2" x1="255" y1="135.333" x2="294.5" y2="146.279"/></svg>