<svg id="Layer_1" data-name="Layer 1" xmlns="http://www.w3.org/2000/svg" viewBox="0 0 296.833 296.333"><defs><style>.cls-1{fill:#c4c4ff;}.cls-2{font-size:20px;font-family:MyriadPro-It, Myriad Pro;font-style:italic;}.cls-3,.cls-4,.cls-6{fill:none;}.cls-3{stroke:#666;stroke-width:1.3px;}.cls-3,.cls-4,.cls-5,.cls-6{stroke-miterlimit:10;}.cls-4,.cls-5,.cls-6{stroke:#000;}.cls-4{stroke-width:2.4px;}.cls-5{fill:#fff;}.cls-6{stroke-width:2px;}</style></defs><title>Artboard 8</title><rect class="cls-1" x="68.333" y="99.838" width="96" height="96"/><text class="cls-2" transform="translate(137.196 149.693)">r</text><line class="cls-3" x1="36.333" y1="3.838" x2="36.333" y2="292.327"/><line class="cls-3" x1="68.333" y1="3.838" x2="68.333" y2="292.327"/><line class="cls-3" x1="100.333" y1="3.838" x2="100.333" y2="292.327"/><line class="cls-3" x1="132.333" y1="3.838" x2="132.333" y2="292.327"/><line class="cls-3" x1="164.333" y1="3.838" x2="164.333" y2="292.327"/><line class="cls-3" x1="196.333" y1="3.838" x2="196.333" y2="292.327"/><line class="cls-3" x1="228.333" y1="3.838" x2="228.333" y2="292.327"/><line class="cls-3" x1="260.333" y1="3.838" x2="260.333" y2="292.327"/><line class="cls-3" x1="293.245" y1="35.838" x2="3.755" y2="35.838"/><line class="cls-3" x1="293.245" y1="67.838" x2="3.755" y2="67.838"/><line class="cls-3" x1="293.245" y1="99.838" x2="3.755" y2="99.838"/><line class="cls-3" x1="293.245" y1="131.838" x2="3.755" y2="131.838"/><line class="cls-3" x1="293.245" y1="163.838" x2="3.755" y2="163.838"/><line class="cls-3" x1="293.245" y1="195.838" x2="3.755" y2="195.838"/><line class="cls-3" x1="293.245" y1="227.838" x2="3.755" y2="227.838"/><line class="cls-3" x1="293.245" y1="259.838" x2="3.755" y2="259.838"/><path class="cls-4" d="M46,0c68,120.962,39.833,148.583,93.833,163.838,22.592,6.382,46.407,55.25,71,55.25,63.563,0,37-153.885,86-175.82"/><path d="M109.978,152.857a4.776,4.776,0,1,0,4.778-4.774A4.778,4.778,0,0,0,109.978,152.857Z"/><path class="cls-5" d="M207.557,219.086a4.776,4.776,0,1,0,4.779-4.775A4.778,4.778,0,0,0,207.557,219.086Z"/><circle class="cls-6" cx="114.753" cy="152.86" r="40.913"/><line class="cls-6" x1="114.753" y1="152.86" x2="143.541" y2="123.791"/></svg>