<svg id="Layer_1" data-name="Layer 1" xmlns="http://www.w3.org/2000/svg" viewBox="0 0 337.86 173.25"><defs><style>.cls-1{fill:#fcee21;stroke-width:0.14px;}.cls-1,.cls-5,.cls-6{stroke:#000;}.cls-1,.cls-10,.cls-11,.cls-13,.cls-5,.cls-6,.cls-8{stroke-miterlimit:10;}.cls-2{fill:#bbbdbf;}.cls-3{fill:#fff;}.cls-4{fill:#212121;}.cls-5{fill:#c3996b;stroke-width:0.91px;}.cls-13,.cls-6{fill:none;}.cls-10,.cls-6,.cls-8{stroke-width:1.83px;}.cls-7,.cls-8{fill:#f16522;}.cls-8{stroke:#f16522;}.cls-10,.cls-9{fill:#2b388f;}.cls-10{stroke:#2b388f;}.cls-11{fill:#e6e7e8;stroke-width:0.67px;}.cls-11,.cls-13{stroke:#231f20;}.cls-12{fill:#231f20;}.cls-13{stroke-width:1.37px;}.cls-14{font-size:11.81px;font-family:MyriadPro-Regular, Myriad Pro;}.cls-15{font-family:MyriadPro-It, Myriad Pro;font-style:italic;}</style></defs><title>Artboard 14</title><polyline class="cls-1" points="313.43 47.77 317.97 55.52 314.92 47.07 320.81 53.86 316.25 46.11 323.29 51.7 317.39 44.92 325.34 49.13 318.29 43.55 326.87 46.22 318.92 42.03 327.85 43.08 319.26 40.42 328.23 39.81 319.3 38.77 328 36.53 319.04 37.15 327.18 33.34 318.48 35.6 325.79 30.37 317.65 34.19 323.87 27.7 316.57 32.94 321.49 25.42 315.28 31.92 318.74 23.62 313.83 31.15 315.7 22.36 312.26 30.66 312.48 21.68 310.62 30.47 309.19 21.6 308.98 30.59 305.94 22.13 307.39 31 302.85 23.24 305.9 31.7 300.01 24.91 304.57 32.66 297.53 27.06 303.43 33.84 295.49 29.64 302.53 35.22 293.95 32.55 301.9 36.74 292.97 35.69 301.56 38.35 292.59 38.96 301.52 39.99 292.82 42.24 301.78 41.62 293.64 45.42 302.34 43.16 295.04 48.4 303.17 44.58 296.95 51.07 304.25 45.82 299.33 53.35 305.54 46.85 302.09 55.14 306.99 47.61 305.12 56.41 308.56 48.1 308.34 57.09 310.2 48.29 311.63 57.16 311.84 48.18 314.88 56.64 313.43 47.77"/><g id="Eye"><path class="cls-2" d="M159.5,39.38c2.61,7.08.66,12.76-5.4,15.78a56.44,56.44,0,0,0-16.85-14.25l.69.07C144.37,41.6,151,42.26,159.5,39.38Z"/><path d="M154.1,55.16c6.06-3,8-8.7,5.4-15.78-8.5,2.88-15.13,2.22-21.56,1.6l-.69-.07A56.44,56.44,0,0,1,154.1,55.16ZM160.71,39c2.78,7.57.63,13.94-5.83,17.26.68.93,1.36,1.9,2,2.93l-1.08.67c-6.57-10.39-15-15.31-20.54-18.57l-1.15-.68a1.63,1.63,0,0,0,.32-.55,1.74,1.74,0,0,0,.06-.65c1.2.11,2.39.21,3.56.33,7.63.75,14.83,1.47,25.12-3.12l.53,1.17C162.68,38.2,161.68,38.59,160.71,39Z"/><path class="cls-3" d="M159.41,48.4c-1,2.64-3.11,4.27-4.78,3.66s-2.25-3.25-1.28-5.88,3.11-4.28,4.78-3.67S160.38,45.76,159.41,48.4Z"/><path class="cls-4" d="M158.72,48.75a1.89,1.89,0,1,1-.88-2.72A2,2,0,0,1,158.72,48.75Z"/></g><path class="cls-5" d="M268.46,83.74c.55.47,11.22,9.18,11.22,9.18V95h-3.8V137.8h-2.62l-2.69-36.86H267.3l-.57,23.13h-2.29L262.12,101l-62.28.79-2.27,23.11h-2.45l-.81-23.13h-1.88l-3,36.23h-2.73l-.53-42.07A22.89,22.89,0,0,1,183.2,95a3.3,3.3,0,0,1,0-1.79c.24-.38,8.5-8.64,9.23-8.64C193.82,84.52,267.9,83.27,268.46,83.74Z"/><polyline class="cls-5" points="267.3 100.94 262.08 100.94 199.83 101.72 194.31 101.72"/><polyline class="cls-5" points="192.43 95.88 186.14 95.88 270.57 95.02 275.88 95.02"/><path d="M289.82,47a2.07,2.07,0,1,1-2.07-2.07A2.07,2.07,0,0,1,289.82,47Z"/><path d="M232.14,89.25a2.07,2.07,0,1,1-2.07-2.06A2.07,2.07,0,0,1,232.14,89.25Z"/><line class="cls-6" x1="163.42" y1="50.6" x2="230.07" y2="89.25"/><path class="cls-7" d="M245.8,91.32a2.07,2.07,0,1,1-2.07-2.07A2.07,2.07,0,0,1,245.8,91.32Z"/><line class="cls-8" x1="163.42" y1="50.6" x2="243.73" y2="91.32"/><line class="cls-8" x1="299.11" y1="58.82" x2="243.73" y2="91.32"/><path class="cls-7" d="M301.18,58.66a2.07,2.07,0,1,1-2.07-2.06A2.06,2.06,0,0,1,301.18,58.66Z"/><path class="cls-9" d="M250.4,84.54a2.07,2.07,0,1,1-2.07-2.07A2.07,2.07,0,0,1,250.4,84.54Z"/><line class="cls-10" x1="163.42" y1="50.6" x2="248.33" y2="84.54"/><line class="cls-10" x1="292.59" y1="53.51" x2="248.33" y2="84.54"/><path class="cls-9" d="M294.33,53.71a2.07,2.07,0,1,1-2.07-2.07A2.07,2.07,0,0,1,294.33,53.71Z"/><path d="M165.48,50.6a2.07,2.07,0,1,1-2.07-2.07A2.07,2.07,0,0,1,165.48,50.6Z"/><line class="cls-6" x1="287.75" y1="46.95" x2="230.07" y2="89.25"/><path d="M186.85,154.24a7.24,7.24,0,0,0-1.38,4.48,7.36,7.36,0,0,0,1.38,4.45h-.75a7.08,7.08,0,0,1-1.44-4.45,7.24,7.24,0,0,1,1.44-4.48Z"/><path d="M187.83,161.85c0-.37,0-.9,0-1.37v-6.41h.95v3.33h0a2,2,0,0,1,1.8-1c1.32,0,2.25,1.1,2.24,2.71,0,1.89-1.2,2.84-2.38,2.84a1.88,1.88,0,0,1-1.77-1h0l0,.88Zm1-2.13a2,2,0,0,0,.05.35,1.48,1.48,0,0,0,1.44,1.13c1,0,1.61-.82,1.61-2,0-1.06-.54-2-1.57-2a1.54,1.54,0,0,0-1.47,1.18,2,2,0,0,0-.06.4Z"/><path d="M193.49,163.17a7.39,7.39,0,0,0,1.38-4.48,7.28,7.28,0,0,0-1.38-4.45h.75a7,7,0,0,1,1.43,4.46,7.11,7.11,0,0,1-1.43,4.47Z"/><path d="M199.54,154.55a10.71,10.71,0,0,1,1.83-.14,3.06,3.06,0,0,1,2.07.61,2,2,0,0,1,.65,1.55,2.17,2.17,0,0,1-.57,1.57,3.07,3.07,0,0,1-2.26.81,3.65,3.65,0,0,1-.77-.06v3h-1Zm1,3.56a3.43,3.43,0,0,0,.79.08c1.15,0,1.85-.56,1.85-1.58s-.69-1.45-1.74-1.45a4.3,4.3,0,0,0-.9.08Z"/><path d="M208,161.85l-.08-.67h0a2,2,0,0,1-1.62.79,1.51,1.51,0,0,1-1.62-1.53c0-1.28,1.14-2,3.18-2v-.11a1.09,1.09,0,0,0-1.2-1.23,2.66,2.66,0,0,0-1.38.4l-.22-.64a3.33,3.33,0,0,1,1.74-.47c1.62,0,2,1.11,2,2.17v2a7.09,7.09,0,0,0,.09,1.27Zm-.14-2.71c-1.06,0-2.25.16-2.25,1.19a.85.85,0,0,0,.91.92,1.31,1.31,0,0,0,1.28-.88,1.13,1.13,0,0,0,.06-.31Z"/><path d="M211.45,155v1.52h1.38v.74h-1.38v2.86c0,.65.19,1,.72,1a2.19,2.19,0,0,0,.56-.07l.05.72a2.32,2.32,0,0,1-.86.14,1.35,1.35,0,0,1-1-.41,2,2,0,0,1-.37-1.38v-2.89h-.82v-.74h.82v-1.27Z"/><path d="M213.92,154.07h1v3.31h0a1.8,1.8,0,0,1,.69-.68,2,2,0,0,1,1-.28c.71,0,1.85.44,1.85,2.27v3.16h-1v-3c0-.85-.32-1.58-1.23-1.58a1.38,1.38,0,0,0-1.29,1,1.06,1.06,0,0,0-.07.46v3.2h-1Z"/><path d="M222.19,160.86a2.48,2.48,0,0,0,1.27.38c.7,0,1-.35,1-.79s-.27-.71-1-1c-.95-.34-1.4-.87-1.4-1.5a1.64,1.64,0,0,1,1.83-1.56,2.66,2.66,0,0,1,1.3.33l-.24.7a2.08,2.08,0,0,0-1.08-.3c-.57,0-.89.32-.89.72s.32.63,1,.9c.92.35,1.39.81,1.39,1.6s-.72,1.59-2,1.59a3,3,0,0,1-1.49-.37Z"/><path d="M226.66,158.27c0-.68,0-1.22,0-1.73h.86l0,.91h0a2.09,2.09,0,0,1,1.88-1c1.28,0,2.25,1.09,2.25,2.7,0,1.9-1.16,2.85-2.41,2.85a1.87,1.87,0,0,1-1.64-.84h0V164h-1Zm1,1.42a1.6,1.6,0,0,0,0,.39,1.48,1.48,0,0,0,1.44,1.13c1,0,1.61-.83,1.61-2.05,0-1.06-.56-2-1.58-2a1.53,1.53,0,0,0-1.45,1.19,1.76,1.76,0,0,0-.07.4Z"/><path d="M235.83,161.85l-.08-.67h0a2,2,0,0,1-1.62.79,1.52,1.52,0,0,1-1.62-1.53c0-1.28,1.14-2,3.18-2v-.11a1.09,1.09,0,0,0-1.2-1.23,2.66,2.66,0,0,0-1.38.4l-.22-.64a3.33,3.33,0,0,1,1.74-.47c1.62,0,2,1.11,2,2.17v2a7.09,7.09,0,0,0,.09,1.27Zm-.14-2.71c-1.05,0-2.25.16-2.25,1.19a.85.85,0,0,0,.91.92,1.31,1.31,0,0,0,1.28-.88,1.13,1.13,0,0,0,.06-.31Z"/><path d="M242,161.65a3.55,3.55,0,0,1-1.52.31,2.52,2.52,0,0,1-2.64-2.71,2.7,2.7,0,0,1,2.85-2.82,3.28,3.28,0,0,1,1.34.28l-.22.74a2.25,2.25,0,0,0-1.12-.25,2,2,0,0,0,0,4,2.71,2.71,0,0,0,1.18-.26Z"/><path d="M243.56,159.37a1.69,1.69,0,0,0,1.81,1.84,3.56,3.56,0,0,0,1.47-.27l.17.69a4.36,4.36,0,0,1-1.77.33,2.47,2.47,0,0,1-2.61-2.68,2.58,2.58,0,0,1,2.49-2.86,2.25,2.25,0,0,1,2.19,2.5,4,4,0,0,1,0,.45Zm2.82-.69a1.38,1.38,0,0,0-1.34-1.57,1.59,1.59,0,0,0-1.47,1.57Z"/><path d="M251.2,156.54l1,3a12.4,12.4,0,0,1,.43,1.36h0c.12-.44.28-.88.45-1.36l1-3h1l-2.08,5.31h-.92l-2-5.31Z"/><path d="M257.17,155.05a.56.56,0,0,1-.61.59.57.57,0,0,1-.58-.59.58.58,0,0,1,.6-.6A.57.57,0,0,1,257.17,155.05Zm-1.07,6.8v-5.31h1v5.31Z"/><path d="M259.2,159.37a1.7,1.7,0,0,0,1.82,1.84,3.56,3.56,0,0,0,1.47-.27l.16.69a4.34,4.34,0,0,1-1.76.33,2.47,2.47,0,0,1-2.61-2.68,2.57,2.57,0,0,1,2.49-2.86,2.25,2.25,0,0,1,2.19,2.5,4,4,0,0,1,0,.45Zm2.83-.69a1.38,1.38,0,0,0-1.34-1.57,1.61,1.61,0,0,0-1.48,1.57Z"/><path d="M264.54,156.54l.7,2.7c.15.59.29,1.14.39,1.69h0c.12-.54.29-1.11.47-1.68l.86-2.71h.81l.82,2.65c.2.64.36,1.2.48,1.74h0a17.36,17.36,0,0,1,.4-1.72l.76-2.67h.95l-1.71,5.31h-.87l-.81-2.54a15.85,15.85,0,0,1-.47-1.74h0a14.55,14.55,0,0,1-.48,1.76l-.85,2.52h-.88l-1.6-5.31Z"/><path d="M4.23,154.24a7.24,7.24,0,0,0-1.38,4.48,7.36,7.36,0,0,0,1.38,4.45H3.48A7.08,7.08,0,0,1,2,158.72a7.24,7.24,0,0,1,1.44-4.48Z"/><path d="M8.19,161.85l-.08-.67h0a2,2,0,0,1-1.62.79,1.52,1.52,0,0,1-1.63-1.53c0-1.28,1.14-2,3.19-2v-.11a1.09,1.09,0,0,0-1.2-1.23,2.63,2.63,0,0,0-1.38.4l-.22-.64A3.33,3.33,0,0,1,7,156.42c1.62,0,2,1.11,2,2.17v2a8.23,8.23,0,0,0,.08,1.27ZM8,159.14c-1,0-2.24.16-2.24,1.19a.85.85,0,0,0,.91.92A1.31,1.31,0,0,0,8,160.37a1.12,1.12,0,0,0,0-.31Z"/><path d="M10,163.17a7.39,7.39,0,0,0,1.38-4.48A7.28,7.28,0,0,0,10,154.24h.75a7,7,0,0,1,1.43,4.46,7.11,7.11,0,0,1-1.43,4.47Z"/><path d="M16,154.55a10.71,10.71,0,0,1,1.83-.14,3.06,3.06,0,0,1,2.07.61,2,2,0,0,1,.65,1.55,2.17,2.17,0,0,1-.57,1.57,3.07,3.07,0,0,1-2.26.81,3.65,3.65,0,0,1-.77-.06v3H16Zm.95,3.56a3.43,3.43,0,0,0,.79.08c1.15,0,1.85-.56,1.85-1.58s-.69-1.45-1.74-1.45a4.3,4.3,0,0,0-.9.08Z"/><path d="M21.62,158.2c0-.63,0-1.16,0-1.66h.84l0,1h.05A1.59,1.59,0,0,1,24,156.42a.8.8,0,0,1,.27,0v.91a1.11,1.11,0,0,0-.33,0,1.35,1.35,0,0,0-1.29,1.24,2.81,2.81,0,0,0-.05.45v2.83h-.95Z"/><path d="M26.32,155.05a.6.6,0,0,1-1.19,0,.58.58,0,0,1,.6-.6A.57.57,0,0,1,26.32,155.05Zm-1.07,6.8v-5.31h1v5.31Z"/><path d="M27.81,158c0-.55,0-1,0-1.44h.84l.05.86h0a1.81,1.81,0,0,1,1.66-1,1.56,1.56,0,0,1,1.5,1.07h0a2.17,2.17,0,0,1,.59-.7,1.8,1.8,0,0,1,1.17-.37c.7,0,1.74.46,1.74,2.3v3.13h-.94v-3c0-1-.37-1.63-1.15-1.63a1.25,1.25,0,0,0-1.14.88,1.66,1.66,0,0,0-.08.48v3.28h-.94v-3.18c0-.84-.37-1.46-1.11-1.46a1.31,1.31,0,0,0-1.19,1,1.4,1.4,0,0,0-.08.47v3.2h-.94Z"/><path d="M39.89,161.85l-.08-.67h0a2,2,0,0,1-1.62.79,1.52,1.52,0,0,1-1.63-1.53c0-1.28,1.14-2,3.19-2v-.11a1.09,1.09,0,0,0-1.2-1.23,2.63,2.63,0,0,0-1.38.4l-.22-.64a3.33,3.33,0,0,1,1.74-.47c1.62,0,2,1.11,2,2.17v2a8.15,8.15,0,0,0,.09,1.27Zm-.15-2.71c-1.05,0-2.24.16-2.24,1.19a.85.85,0,0,0,.91.92,1.31,1.31,0,0,0,1.28-.88,1.12,1.12,0,0,0,.05-.31Z"/><path d="M42.23,158.2c0-.63,0-1.16,0-1.66H43l0,1h0a1.59,1.59,0,0,1,1.47-1.16.77.77,0,0,1,.27,0v.91a1.11,1.11,0,0,0-.33,0,1.35,1.35,0,0,0-1.29,1.24,2.81,2.81,0,0,0,0,.45v2.83h-1Z"/><path d="M46.44,156.54l1.16,3.14c.12.35.25.76.34,1.08h0c.1-.32.21-.72.34-1.11l1.05-3.11h1l-1.44,3.78a8.15,8.15,0,0,1-1.82,3.32,2.68,2.68,0,0,1-1.19.63l-.24-.81a2.71,2.71,0,0,0,.85-.47,3,3,0,0,0,.81-1.08.71.71,0,0,0,.07-.23.93.93,0,0,0-.06-.25l-2-4.89Z"/><path d="M53.44,160.86a2.51,2.51,0,0,0,1.27.38c.7,0,1-.35,1-.79s-.27-.71-1-1c-1-.34-1.41-.87-1.41-1.5a1.64,1.64,0,0,1,1.83-1.56,2.73,2.73,0,0,1,1.31.33l-.25.7a2,2,0,0,0-1.08-.3c-.57,0-.89.32-.89.72s.32.63,1,.9c.92.35,1.39.81,1.39,1.6S56,162,54.69,162a3,3,0,0,1-1.49-.37Z"/><path d="M60.85,161.85l-.08-.67h0a2,2,0,0,1-1.62.79,1.52,1.52,0,0,1-1.63-1.53c0-1.28,1.14-2,3.19-2v-.11a1.09,1.09,0,0,0-1.2-1.23,2.63,2.63,0,0,0-1.38.4l-.22-.64a3.33,3.33,0,0,1,1.74-.47c1.62,0,2,1.11,2,2.17v2a8.23,8.23,0,0,0,.08,1.27Zm-.15-2.71c-1.05,0-2.24.16-2.24,1.19a.85.85,0,0,0,.91.92,1.31,1.31,0,0,0,1.28-.88,1.12,1.12,0,0,0,.05-.31Z"/><path d="M63.19,158c0-.55,0-1,0-1.44H64l.05.86h0a1.81,1.81,0,0,1,1.66-1,1.58,1.58,0,0,1,1.51,1.07h0a2.17,2.17,0,0,1,.59-.7,1.82,1.82,0,0,1,1.17-.37c.7,0,1.74.46,1.74,2.3v3.13h-.94v-3c0-1-.37-1.63-1.15-1.63a1.26,1.26,0,0,0-1.14.88,1.66,1.66,0,0,0-.08.48v3.28h-.94v-3.18c0-.84-.37-1.46-1.1-1.46a1.31,1.31,0,0,0-1.2,1,1.4,1.4,0,0,0-.08.47v3.2h-.94Z"/><path d="M72.33,158.27c0-.68,0-1.22,0-1.73h.86l0,.91h0a2.09,2.09,0,0,1,1.88-1c1.28,0,2.25,1.09,2.25,2.7,0,1.9-1.16,2.85-2.41,2.85a1.87,1.87,0,0,1-1.64-.84h0V164h-1Zm1,1.42a1.6,1.6,0,0,0,0,.39,1.48,1.48,0,0,0,1.44,1.13c1,0,1.61-.83,1.61-2.05,0-1.06-.56-2-1.57-2a1.53,1.53,0,0,0-1.46,1.19,1.76,1.76,0,0,0-.07.4Z"/><path d="M78.57,154.07h1v7.78h-1Z"/><path d="M81.69,159.37a1.7,1.7,0,0,0,1.82,1.84,3.5,3.5,0,0,0,1.46-.27l.17.69a4.36,4.36,0,0,1-1.77.33,2.46,2.46,0,0,1-2.6-2.68,2.57,2.57,0,0,1,2.48-2.86,2.25,2.25,0,0,1,2.2,2.5,3.52,3.52,0,0,1,0,.45Zm2.82-.69a1.38,1.38,0,0,0-1.33-1.57,1.59,1.59,0,0,0-1.48,1.57Z"/><path d="M88.83,160.86a2.51,2.51,0,0,0,1.27.38c.7,0,1-.35,1-.79s-.27-.71-1-1c-1-.34-1.41-.87-1.41-1.5a1.64,1.64,0,0,1,1.83-1.56,2.73,2.73,0,0,1,1.31.33l-.24.7a2.12,2.12,0,0,0-1.09-.3c-.57,0-.89.32-.89.72s.32.63,1,.9c.92.35,1.39.81,1.39,1.6s-.72,1.59-2,1.59a3,3,0,0,1-1.49-.37Z"/><path d="M93.3,158.27c0-.68,0-1.22,0-1.73h.86l0,.91h0a2.09,2.09,0,0,1,1.88-1c1.29,0,2.25,1.09,2.25,2.7,0,1.9-1.16,2.85-2.41,2.85a1.84,1.84,0,0,1-1.63-.84h0V164h-1Zm1,1.42a2.3,2.3,0,0,0,0,.39,1.48,1.48,0,0,0,1.44,1.13c1,0,1.62-.83,1.62-2.05,0-1.06-.56-2-1.58-2a1.54,1.54,0,0,0-1.46,1.19,1.76,1.76,0,0,0-.07.4Z"/><path d="M102.47,161.85l-.07-.67h0a2,2,0,0,1-1.62.79,1.52,1.52,0,0,1-1.62-1.53c0-1.28,1.14-2,3.19-2v-.11a1.1,1.1,0,0,0-1.21-1.23,2.66,2.66,0,0,0-1.38.4l-.22-.64a3.36,3.36,0,0,1,1.74-.47c1.63,0,2,1.11,2,2.17v2a7.09,7.09,0,0,0,.09,1.27Zm-.14-2.71c-1,0-2.25.16-2.25,1.19a.85.85,0,0,0,.91.92,1.33,1.33,0,0,0,1.29-.88,1.12,1.12,0,0,0,0-.31Z"/><path d="M108.6,161.65a3.6,3.6,0,0,1-1.53.31,2.52,2.52,0,0,1-2.64-2.71,2.7,2.7,0,0,1,2.85-2.82,3.24,3.24,0,0,1,1.34.28l-.22.74a2.25,2.25,0,0,0-1.12-.25,2,2,0,0,0,0,4,2.71,2.71,0,0,0,1.18-.26Z"/><path d="M110.2,159.37a1.7,1.7,0,0,0,1.82,1.84,3.5,3.5,0,0,0,1.46-.27l.17.69a4.36,4.36,0,0,1-1.77.33,2.46,2.46,0,0,1-2.6-2.68,2.57,2.57,0,0,1,2.48-2.86,2.25,2.25,0,0,1,2.2,2.5,3.52,3.52,0,0,1,0,.45Zm2.82-.69a1.38,1.38,0,0,0-1.33-1.57,1.59,1.59,0,0,0-1.48,1.57Z"/><path d="M117.84,156.54l1,3c.17.48.31.92.42,1.36h0c.12-.44.27-.88.44-1.36l1-3h1l-2.08,5.31h-.92l-2-5.31Z"/><path d="M123.82,155.05a.6.6,0,0,1-1.2,0,.59.59,0,0,1,.61-.6A.57.57,0,0,1,123.82,155.05Zm-1.08,6.8v-5.31h1v5.31Z"/><path d="M125.84,159.37a1.71,1.71,0,0,0,1.82,1.84,3.56,3.56,0,0,0,1.47-.27l.17.69a4.4,4.4,0,0,1-1.77.33,2.47,2.47,0,0,1-2.61-2.68,2.58,2.58,0,0,1,2.49-2.86,2.25,2.25,0,0,1,2.19,2.5,4,4,0,0,1,0,.45Zm2.83-.69a1.38,1.38,0,0,0-1.34-1.57,1.59,1.59,0,0,0-1.47,1.57Z"/><path d="M131.18,156.54l.7,2.7c.15.59.3,1.14.4,1.69h0c.12-.54.29-1.11.47-1.68l.87-2.71h.81l.82,2.65c.19.64.35,1.2.47,1.74h0a15.09,15.09,0,0,1,.41-1.72l.75-2.67h1l-1.71,5.31h-.88l-.81-2.54a15.85,15.85,0,0,1-.47-1.74h0a16.62,16.62,0,0,1-.49,1.76l-.85,2.52h-.88l-1.6-5.31Z"/><rect class="cls-11" x="38.62" y="64.52" width="74.28" height="74.28"/><path class="cls-12" d="M79.79,110.79a4,4,0,1,1-4-4A4,4,0,0,1,79.79,110.79Z"/><path class="cls-7" d="M68.22,83.08a4,4,0,1,1-4-4A4,4,0,0,1,68.22,83.08Z"/><line class="cls-13" x1="79.79" y1="108.41" x2="92.11" y2="101.18"/><path class="cls-12" d="M96.39,98.67a24.58,24.58,0,0,0-4.08,6.93l-.76-4.09-3.2-2.66A24.46,24.46,0,0,0,96.39,98.67Z"/><line class="cls-13" x1="95.83" y1="94.71" x2="73.13" y2="86.47"/><path class="cls-12" d="M68.46,84.78A24.88,24.88,0,0,0,76.4,83.5l-2.66,3.19v4.16A24.61,24.61,0,0,0,68.46,84.78Z"/><path class="cls-9" d="M104.29,96.32a4,4,0,1,1-4-4A4,4,0,0,1,104.29,96.32Z"/><text class="cls-14" transform="translate(62.44 60.79)">[<tspan class="cls-15" x="3.36" y="0">0</tspan><tspan x="9.17" y="0">, </tspan><tspan class="cls-15" x="14.12" y="0">1</tspan><tspan x="19.93" y="0">]</tspan></text><path d="M90.2,51.93c.47-.77,1-1.36,1.59-1.36A1.42,1.42,0,0,1,92,53.39c-.66,0-1-.34-1.81-1.46m-.53.48c-.47.78-1,1.37-1.59,1.37A1.42,1.42,0,0,1,87.85,51C88.52,51,88.84,51.29,89.67,52.41Zm.34-.73c-.83-1.12-1.24-1.57-2.05-1.57a2.05,2.05,0,0,0-1.87,2.23,1.84,1.84,0,0,0,1.8,1.89c.62,0,1.35-.48,1.94-1.55.84,1.11,1.25,1.55,2.06,1.55A2.06,2.06,0,0,0,93.78,52,1.86,1.86,0,0,0,92,50.11c-.63,0-1.35.5-1.95,1.57Z"/></svg>