<svg id="Layer_1" data-name="Layer 1" xmlns="http://www.w3.org/2000/svg" viewBox="0 0 430.687 302.832"><defs><style>.cls-1{fill:#f2f2f2;stroke-width:4px;}.cls-1,.cls-2,.cls-3,.cls-4,.cls-5,.cls-6{stroke:#000;stroke-miterlimit:10;}.cls-2,.cls-3,.cls-4,.cls-5,.cls-6{fill:none;}.cls-2,.cls-4,.cls-5,.cls-6{stroke-width:2px;}.cls-3{stroke-width:3px;}.cls-4,.cls-5,.cls-6{stroke-linecap:round;}.cls-5{stroke-dasharray:3.696 3.696;}.cls-6{stroke-dasharray:4.201 4.201;}.cls-7{font-size:24px;font-family:MyriadPro-Regular, Myriad Pro;}</style></defs><title>Artboard 5</title><path class="cls-1" d="M260.486,109.422c42.375,1.625,171.619,23.311,160.119,88.811s-169.5,102.5-292.75,84.75c-97.348-14.019-165.75-69.5-104.75-120C89.456,108.053,181.769,106.4,260.486,109.422Z"/><line class="cls-2" x1="142.709" y1="284.841" x2="259.855" y2="108.733"/><line class="cls-2" x1="23.105" y1="162.983" x2="420.605" y2="198.233"/><line class="cls-3" x1="212.59" y1="179.787" x2="207.914" y2="16.993"/><polygon points="215.453 18.966 207.605 6.233 200.5 19.396 215.453 18.966"/><line class="cls-3" x1="212.59" y1="179.787" x2="247.226" y2="127.407"/><polygon points="252.257 133.358 253.163 118.429 239.78 125.108 252.257 133.358"/><line class="cls-4" x1="154.59" y1="174.037" x2="155.698" y2="172.372"/><line class="cls-5" x1="157.745" y1="169.295" x2="177.19" y2="140.063"/><line class="cls-4" x1="178.213" y1="138.525" x2="179.321" y2="136.859"/><line class="cls-3" x1="212.59" y1="179.787" x2="77.941" y2="167.877"/><polygon points="80.78 160.619 67.219 166.929 79.462 175.52 80.78 160.619"/><line class="cls-4" x1="237.707" y1="142.037" x2="235.714" y2="141.86"/><line class="cls-6" x1="231.53" y1="141.489" x2="183.405" y2="137.221"/><line class="cls-4" x1="181.313" y1="137.036" x2="179.321" y2="136.859"/><path d="M208.978,179.785a3.613,3.613,0,1,0,3.614-3.611A3.614,3.614,0,0,0,208.978,179.785Z"/><path d="M175.708,136.857a3.613,3.613,0,1,0,3.615-3.611A3.614,3.614,0,0,0,175.708,136.857Z"/><text class="cls-7" transform="translate(262.036 135.592)">v</text><text class="cls-7" transform="translate(273.58 143.585) scale(0.583)">2</text><text class="cls-7" transform="translate(67.219 192.592)">v</text><text class="cls-7" transform="translate(78.763 200.584) scale(0.583)">1</text></svg>