<?xml version="1.0" encoding="UTF-8"?>
<svg xmlns="http://www.w3.org/2000/svg" xmlns:xlink="http://www.w3.org/1999/xlink" width="360pt" height="117pt" viewBox="0 0 360 117" version="1.1">
<g id="surface68">
<path style="fill:none;stroke-width:1;stroke-linecap:square;stroke-linejoin:miter;stroke:rgb(0%,0%,0%);stroke-opacity:1;stroke-miterlimit:3.25;" d="M 81.179688 122.007812 C 183.296875 19.894531 310.941406 70.949219 425.820312 109.242188 " transform="matrix(1,0,0,1,-74,-13)"/>
<path style=" stroke:none;fill-rule:evenodd;fill:rgb(0%,0%,0%);fill-opacity:1;" d="M 9.691406 109 C 9.691406 108.285156 9.410156 107.601562 8.902344 107.097656 C 8.398438 106.589844 7.714844 106.308594 7 106.308594 C 6.285156 106.308594 5.601562 106.589844 5.097656 107.097656 C 4.589844 107.601562 4.308594 108.285156 4.308594 109 C 4.308594 109.714844 4.589844 110.398438 5.097656 110.902344 C 5.601562 111.410156 6.285156 111.691406 7 111.691406 C 7.714844 111.691406 8.398438 111.410156 8.902344 110.902344 C 9.410156 110.398438 9.691406 109.714844 9.691406 109 Z M 9.691406 109 "/>
<path style=" stroke:none;fill-rule:evenodd;fill:rgb(0%,0%,0%);fill-opacity:1;" d="M 354.691406 96 C 354.691406 95.285156 354.410156 94.601562 353.902344 94.097656 C 353.398438 93.589844 352.714844 93.308594 352 93.308594 C 351.285156 93.308594 350.601562 93.589844 350.097656 94.097656 C 349.589844 94.601562 349.308594 95.285156 349.308594 96 C 349.308594 96.714844 349.589844 97.398438 350.097656 97.902344 C 350.601562 98.410156 351.285156 98.691406 352 98.691406 C 352.714844 98.691406 353.398438 98.410156 353.902344 97.902344 C 354.410156 97.398438 354.691406 96.714844 354.691406 96 Z M 354.691406 96 "/>
<path style="fill:none;stroke-width:1;stroke-linecap:square;stroke-linejoin:miter;stroke:rgb(0%,0%,0%);stroke-opacity:1;stroke-dasharray:4,4;stroke-miterlimit:3.25;" d="M 81.179688 122.007812 L 425.820312 109.242188 " transform="matrix(1,0,0,1,-74,-13)"/>
</g>
</svg>
