<?xml version="1.0" encoding="UTF-8"?>
<svg xmlns="http://www.w3.org/2000/svg" xmlns:xlink="http://www.w3.org/1999/xlink" width="360pt" height="219pt" viewBox="0 0 360 219" version="1.1">
<g id="surface64">
<path style="fill:none;stroke-width:1;stroke-linecap:square;stroke-linejoin:miter;stroke:rgb(0%,0%,0%);stroke-opacity:1;stroke-miterlimit:3.25;" d="M 81.179688 122.007812 C 183.296875 19.894531 336.46875 224.125 387.527344 70.949219 " transform="matrix(1,0,0,1,-74,-13)"/>
<path style="fill:none;stroke-width:2;stroke-linecap:square;stroke-linejoin:miter;stroke:rgb(0%,0%,0%);stroke-opacity:1;stroke-miterlimit:3.25;" d="M 253.5 115.625 C 310.941406 134.773438 361.996094 147.539062 387.527344 70.949219 " transform="matrix(1,0,0,1,-74,-13)"/>
<path style="fill:none;stroke-width:2;stroke-linecap:square;stroke-linejoin:miter;stroke:rgb(0%,0%,0%);stroke-opacity:1;stroke-dasharray:4,4;stroke-miterlimit:3.25;" d="M 263.074219 86.90625 L 243.925781 144.347656 " transform="matrix(1,0,0,1,-74,-13)"/>
<path style="fill:none;stroke-width:2;stroke-linecap:square;stroke-linejoin:miter;stroke:rgb(0%,0%,0%);stroke-opacity:1;stroke-dasharray:4,4;stroke-miterlimit:3.25;" d="M 349.234375 58.1875 L 425.820312 83.714844 " transform="matrix(1,0,0,1,-74,-13)"/>
<path style=" stroke:none;fill-rule:evenodd;fill:rgb(0%,0%,0%);fill-opacity:1;" d="M 171.691406 82 C 171.691406 81.285156 171.410156 80.601562 170.902344 80.097656 C 170.398438 79.589844 169.714844 79.308594 169 79.308594 C 168.285156 79.308594 167.601562 79.589844 167.097656 80.097656 C 166.589844 80.601562 166.308594 81.285156 166.308594 82 C 166.308594 82.714844 166.589844 83.398438 167.097656 83.902344 C 167.601562 84.410156 168.285156 84.691406 169 84.691406 C 169.714844 84.691406 170.398438 84.410156 170.902344 83.902344 C 171.410156 83.398438 171.691406 82.714844 171.691406 82 Z M 171.691406 82 "/>
</g>
</svg>
