<svg id="Layer_1" data-name="Layer 1" xmlns="http://www.w3.org/2000/svg" viewBox="0 0 448.67 346.18"><defs><style>.cls-1,.cls-2{fill:none;stroke-miterlimit:10;}.cls-1{stroke:gray;}.cls-2{stroke:#000;}.cls-3{fill:#a6a6a6;}.cls-4{fill:#666;}</style></defs><title>Disk setting</title><path class="cls-1" d="M247.69,125.14c0,5.09-16.05,9.22-35.85,9.22S176,130.23,176,125.14s16.05-9.22,35.84-9.22c11.14,0,21.09,1.3,27.66,3.35"/><line class="cls-2" x1="211.83" y1="244.45" x2="211.83" y2="31.22"/><polygon points="217.34 36.13 211.83 31.87 206.33 36.13 211.83 23.12 217.34 36.13"/><polygon class="cls-3" points="216.13 34.57 211.83 24.43 211.83 31.24 216.13 34.57"/><polygon class="cls-4" points="207.53 34.57 211.83 24.43 211.83 31.24 207.53 34.57"/><line class="cls-2" x1="211.83" y1="244.1" x2="132.74" y2="322.2"/><polygon points="132.37 314.83 133.2 321.74 140.1 322.67 126.97 327.89 132.37 314.83"/><polygon class="cls-3" points="132.1 316.79 127.91 326.97 132.75 322.19 132.1 316.79"/><polygon class="cls-4" points="138.14 322.9 127.91 326.97 132.75 322.19 138.14 322.9"/><line class="cls-2" x1="211.57" y1="243.86" x2="424.8" y2="243.86"/><polygon points="419.89 249.37 424.15 243.86 419.89 238.36 432.91 243.86 419.89 249.37"/><polygon class="cls-3" points="421.45 248.16 431.59 243.86 424.78 243.86 421.45 248.16"/><polygon class="cls-4" points="421.45 239.56 431.59 243.86 424.78 243.86 421.45 239.56"/><path d="M207.42,15.72l4.39-5.7c.42-.52.82-1,1.26-1.5v0h-5.25V7.06h7.39l0,1.1-4.33,5.62c-.4.54-.79,1-1.24,1.52v0h5.67v1.4h-7.87Z"/><path d="M441.69,237.4l1.38,2.08c.36.54.66,1,1,1.58h.06c.32-.58.64-1.08,1-1.6l1.36-2.06h1.9l-3.3,4.68,3.4,5h-2L445,244.9c-.38-.56-.7-1.1-1-1.68h0c-.32.58-.66,1.1-1,1.68l-1.4,2.18h-1.94l3.44-4.94-3.28-4.74Z"/><path d="M113.71,331.5l2.12,5.72c.22.64.46,1.4.62,2h0c.18-.58.38-1.32.62-2L119,331.5h1.86l-2.64,6.9c-1.26,3.32-2.12,5-3.32,6.06a4.77,4.77,0,0,1-2.16,1.14l-.44-1.48a4.66,4.66,0,0,0,1.54-.86,5.34,5.34,0,0,0,1.48-2,1.26,1.26,0,0,0,.14-.42,1.53,1.53,0,0,0-.12-.46l-3.58-8.92Z"/><path d="M285.28,130.67c0-1.14,0-2.12-.08-3h1.54l.06,1.9h.08a2.9,2.9,0,0,1,2.68-2.12,1.9,1.9,0,0,1,.5.06v1.66a2.64,2.64,0,0,0-.6-.06,2.47,2.47,0,0,0-2.36,2.26,5.07,5.07,0,0,0-.08.82v5.17h-1.74Z"/><path d="M156.78,125.53a4.65,4.65,0,0,0-2.26,4,3.62,3.62,0,0,0,3.14,3.85v-5.89c0-2.08,1.14-2.92,2.46-2.92,1.9,0,4,1.82,4,4.78a5.12,5.12,0,0,1-4.8,5.31v3.76h-1.62v-3.76c-2.4-.19-4.88-1.69-4.88-5.09a5.54,5.54,0,0,1,3.32-5Zm2.5,7.85c1.9-.27,3.12-1.75,3.12-4,0-2-1.16-3.54-2.28-3.54-.5,0-.84.44-.84,1.36Z"/><path d="M165.71,137c0-.58,0-1.06,0-1.53h.89l.05.91h0a1.94,1.94,0,0,1,1.77-1,1.65,1.65,0,0,1,1.59,1.14h0a2.21,2.21,0,0,1,.63-.74,1.9,1.9,0,0,1,1.24-.4c.75,0,1.86.49,1.86,2.45v3.33h-1v-3.2c0-1.08-.4-1.74-1.23-1.74a1.33,1.33,0,0,0-1.21.94,1.56,1.56,0,0,0-.08.51v3.49h-1v-3.39c0-.89-.4-1.55-1.18-1.55a1.41,1.41,0,0,0-1.27,1,1.38,1.38,0,0,0-.08.5v3.41h-1Z"/><path d="M178.56,141.12l-.08-.72h0a2.07,2.07,0,0,1-1.72.84,1.61,1.61,0,0,1-1.73-1.62c0-1.36,1.22-2.11,3.4-2.1v-.11a1.16,1.16,0,0,0-1.28-1.31,2.84,2.84,0,0,0-1.47.42l-.24-.67a3.45,3.45,0,0,1,1.86-.51c1.72,0,2.14,1.18,2.14,2.31v2.11a8.09,8.09,0,0,0,.09,1.36Zm-.15-2.88c-1.12,0-2.39.17-2.39,1.27a.91.91,0,0,0,1,1,1.4,1.4,0,0,0,1.36-1,.92.92,0,0,0,.06-.33Z"/><path d="M181.54,135.47l.8,1.22c.21.31.38.6.57.92h0c.18-.34.37-.63.56-.94l.79-1.2h1.11l-1.93,2.73,2,2.92H184.3l-.83-1.28c-.22-.32-.41-.64-.61-1h0c-.19.33-.38.64-.59,1l-.82,1.28H180.3l2-2.88-1.92-2.77Z"/><ellipse class="cls-2" cx="211.82" cy="125.31" rx="139.01" ry="21.3"/><line class="cls-2" x1="211.74" y1="125.04" x2="291.57" y2="107.89"/><line class="cls-2" x1="211.89" y1="125.04" x2="350.79" y2="125.04"/><line class="cls-2" x1="68.01" y1="125.55" x2="33.52" y2="125.55"/><path d="M16.49,116.45h1.76v6h0a3.27,3.27,0,0,1,1.26-1.24,3.62,3.62,0,0,1,1.8-.5c1.3,0,3.38.8,3.38,4.14v5.76H23v-5.56c0-1.56-.58-2.88-2.24-2.88A2.53,2.53,0,0,0,18.37,124a2.13,2.13,0,0,0-.12.84v5.84H16.49Z"/></svg>