<svg id="Layer_1" data-name="Layer 1" xmlns="http://www.w3.org/2000/svg" viewBox="0 0 311.59 120.58"><defs><style>.cls-1,.cls-2{stroke:#000;stroke-miterlimit:10;}.cls-2{fill:none;}</style></defs><title>IEEE float spacing</title><circle class="cls-1" cx="180.73" cy="59.81" r="2.35"/><line class="cls-2" x1="297.4" y1="59.81" x2="9.35" y2="59.81"/><line class="cls-2" x1="9.35" y1="50.27" x2="9.35" y2="69.36"/><line class="cls-2" x1="81.34" y1="50.27" x2="81.34" y2="69.36"/><line class="cls-2" x1="297.32" y1="50.27" x2="297.32" y2="69.36"/><line class="cls-2" x1="153.33" y1="50.27" x2="153.33" y2="69.36"/><line class="cls-2" x1="225.33" y1="50.27" x2="225.33" y2="69.36"/><polyline class="cls-2" points="180.6 73.16 180.6 77.83 153.48 77.83 153.48 73.02"/><path d="M170.38,84.41a5.21,5.21,0,0,0-2.64-.8c-1.1,0-1.64.42-1.64.9s.54.9,1.44,1.62l1.64,1.32A5.53,5.53,0,0,1,171.74,92a4.66,4.66,0,0,1-4.7,4.94,4.59,4.59,0,0,1-4.7-4.86c0-2.48,1.7-4.12,3.68-5.06v-.1l-.46-.36a2.83,2.83,0,0,1-1.22-2c0-1.08,1.1-2.26,3.36-2.26a5.52,5.52,0,0,1,3.2,1ZM167,87.83a4.76,4.76,0,0,0-2.92,4.22c0,2.26,1.5,3.56,3,3.56s2.84-1.3,2.84-3.5a4.23,4.23,0,0,0-1.88-3.44Z"/></svg>