<svg id="Layer_1" data-name="Layer 1" xmlns="http://www.w3.org/2000/svg" viewBox="0 0 180.66 179.28"><defs><style>.cls-1,.cls-2,.cls-3,.cls-4{stroke:#000;stroke-miterlimit:10;}.cls-2,.cls-4{fill:none;}.cls-3{fill:#fff;}.cls-4{stroke-dasharray:2;}</style></defs><title>Intersection and error box</title><circle class="cls-1" cx="107.56" cy="87.14" r="2.35"/><path class="cls-2" d="M0,.8C35.25-.31,95.54.25,111.16,27.39S127.51,87.78,148.94,105s25.06,44.32,31.23,74.23"/><circle class="cls-3" cx="127.44" cy="68.83" r="2.35"/><rect class="cls-4" x="71.44" y="33.74" width="72.62" height="107.94"/><line class="cls-2" x1="107.53" y1="33.77" x2="107.58" y2="142.08"/><line class="cls-2" x1="71.44" y1="86.92" x2="143.67" y2="86.92"/><path d="M92.32,90.85a5.21,5.21,0,0,0-2.64-.8c-1.1,0-1.64.42-1.64.9s.54.9,1.44,1.62l1.64,1.32a5.53,5.53,0,0,1,2.56,4.54,4.66,4.66,0,0,1-4.7,4.94,4.59,4.59,0,0,1-4.7-4.86c0-2.48,1.7-4.12,3.68-5.06v-.1L87.5,93a2.83,2.83,0,0,1-1.22-2c0-1.09,1.1-2.26,3.36-2.26a5.52,5.52,0,0,1,3.2,1ZM89,94.27a4.76,4.76,0,0,0-2.92,4.22c0,2.26,1.5,3.56,3,3.56s2.84-1.3,2.84-3.5A4.23,4.23,0,0,0,90,95.11Z"/><path d="M95.77,100.17l.8,1.21c.21.31.38.6.57.92h0c.18-.34.37-.63.55-.93l.8-1.2h1.11l-1.93,2.72,2,2.92H98.53l-.83-1.27c-.22-.33-.41-.64-.61-1h0c-.19.34-.38.64-.59,1l-.82,1.27H94.53l2-2.88-1.91-2.76Z"/><path d="M118,110.57a5.21,5.21,0,0,0-2.64-.8c-1.1,0-1.64.42-1.64.9s.54.9,1.44,1.62l1.64,1.32a5.53,5.53,0,0,1,2.56,4.54,4.66,4.66,0,0,1-4.7,4.94,4.59,4.59,0,0,1-4.7-4.86c0-2.48,1.7-4.12,3.68-5.06v-.1l-.46-.36a2.83,2.83,0,0,1-1.22-2c0-1.08,1.1-2.26,3.36-2.26a5.52,5.52,0,0,1,3.2,1ZM114.7,114a4.76,4.76,0,0,0-2.92,4.22c0,2.26,1.5,3.56,3,3.56s2.84-1.3,2.84-3.5a4.23,4.23,0,0,0-1.88-3.44Z"/><path d="M121.39,119.89l1.23,3.33c.13.38.27.82.36,1.16h0c.1-.34.22-.77.36-1.18l1.12-3.31h1.08l-1.54,4c-.73,1.94-1.23,2.93-1.93,3.54a2.8,2.8,0,0,1-1.26.66l-.26-.86a2.94,2.94,0,0,0,.9-.5,3.13,3.13,0,0,0,.86-1.15.6.6,0,0,0,.08-.24.81.81,0,0,0-.07-.27l-2.08-5.2Z"/></svg>