<svg id="Layer_1" data-name="Layer 1" xmlns="http://www.w3.org/2000/svg" viewBox="0 0 629.46 511.56"><defs><style>.cls-1{fill:#fff;}.cls-1,.cls-2,.cls-4{stroke:#000;}.cls-1,.cls-2,.cls-3,.cls-4{stroke-miterlimit:10;}.cls-2,.cls-3,.cls-4{fill:none;}.cls-2,.cls-3{stroke-dasharray:4;}.cls-3{stroke:#999;}.cls-5{fill:#a6a6a6;}.cls-6{fill:#666;}</style></defs><title>Obj world bounds</title><polygon class="cls-1" points="339.26 371.23 567.76 371.23 567.76 485.73 339.26 371.23"/><polygon class="cls-1" points="3.48 146.69 172.22 300.77 95.02 385.32 3.48 146.69"/><rect class="cls-2" x="0.5" y="143.76" width="173" height="243"/><rect class="cls-2" x="334.76" y="369.23" width="236" height="116"/><polygon class="cls-1" points="339.88 117.58 568.38 117.87 568.23 232.37 339.88 117.58"/><rect class="cls-3" x="394.96" y="27.5" width="173" height="243" transform="translate(25.18 363.03) rotate(-42.33)"/><rect class="cls-2" x="333.96" y="0.5" width="295" height="297"/><line class="cls-4" x1="208.15" y1="348.79" x2="291.2" y2="387.12"/><polygon points="284.43 390.06 290.61 386.85 289.05 380.06 298.56 390.51 284.43 390.06"/><polygon class="cls-5" points="286.35 389.62 297.36 389.96 291.18 387.11 286.35 389.62"/><polygon class="cls-6" points="289.96 381.81 297.36 389.96 291.18 387.11 289.96 381.81"/><line class="cls-4" x1="207.85" y1="202.85" x2="290.37" y2="170.58"/><polygon points="287.8 177.5 289.76 170.82 283.79 167.25 297.91 167.63 287.8 177.5"/><polygon class="cls-5" points="288.81 175.81 296.69 168.11 290.35 170.59 288.81 175.81"/><polygon class="cls-6" points="285.68 167.8 296.69 168.11 290.35 170.59 285.68 167.8"/><path d="M338.61,305.54a13.19,13.19,0,0,0-2.52,8.18,13.48,13.48,0,0,0,2.52,8.12h-1.38a12.93,12.93,0,0,1-2.62-8.12,13.2,13.2,0,0,1,2.62-8.18Z"/><path d="M345.83,319.42l-.14-1.22h-.06a3.61,3.61,0,0,1-3,1.44,2.76,2.76,0,0,1-3-2.78c0-2.34,2.08-3.62,5.82-3.6v-.2a2,2,0,0,0-2.2-2.24,4.82,4.82,0,0,0-2.52.72l-.4-1.16a6,6,0,0,1,3.18-.86c3,0,3.68,2,3.68,4v3.62a13.63,13.63,0,0,0,.16,2.32Zm-.26-4.94c-1.92,0-4.1.3-4.1,2.18a1.56,1.56,0,0,0,1.66,1.68,2.41,2.41,0,0,0,2.34-1.62,1.84,1.84,0,0,0,.1-.56Z"/><path d="M349.05,321.84a13.54,13.54,0,0,0,2.52-8.18,13.26,13.26,0,0,0-2.52-8.12h1.36a12.74,12.74,0,0,1,2.62,8.14,13,13,0,0,1-2.62,8.16Z"/><path d="M341.07,492.68a13.19,13.19,0,0,0-2.53,8.18,13.41,13.41,0,0,0,2.53,8.12h-1.39a12.93,12.93,0,0,1-2.62-8.12,13.2,13.2,0,0,1,2.62-8.18Z"/><path d="M342.84,506.56c0-.66.08-1.64.08-2.5v-11.7h1.75v6.08h0a3.62,3.62,0,0,1,3.3-1.78c2.41,0,4.11,2,4.09,4.94,0,3.46-2.18,5.18-4.34,5.18A3.45,3.45,0,0,1,344.5,505h-.06l-.08,1.6Zm1.83-3.88a3.3,3.3,0,0,0,.07.64,2.72,2.72,0,0,0,2.64,2.06c1.85,0,2.95-1.5,2.95-3.72,0-1.94-1-3.6-2.88-3.6a2.82,2.82,0,0,0-2.69,2.16,3.53,3.53,0,0,0-.09.72Z"/><path d="M353.18,509a13.54,13.54,0,0,0,2.53-8.18,13.26,13.26,0,0,0-2.53-8.12h1.36a12.68,12.68,0,0,1,2.63,8.14,12.92,12.92,0,0,1-2.63,8.16Z"/></svg>