<svg id="Layer_1" data-name="Layer 1" xmlns="http://www.w3.org/2000/svg" viewBox="0 0 193.6 142.26"><defs><style>.cls-1,.cls-2,.cls-3{stroke:#000;stroke-miterlimit:10;}.cls-2,.cls-3{fill:none;}.cls-3{stroke-dasharray:2;}</style></defs><title>Offset and round up</title><circle class="cls-1" cx="96.97" cy="79.52" r="2.35"/><rect class="cls-2" x="0.5" y="17.64" width="192.6" height="124.12"/><circle class="cls-1" cx="141.11" cy="33.93" r="2.35"/><circle class="cls-1" cx="171.48" cy="2.85" r="2.35"/><line class="cls-3" x1="141.24" y1="33.82" x2="172.65" y2="1.68"/><line class="cls-2" x1="96.48" y1="79.49" x2="141.24" y2="33.82"/><path d="M105.27,79.76c0-.72,0-1.31,0-1.84h.92l0,1h0a2.22,2.22,0,0,1,2-1.09c1.37,0,2.39,1.15,2.39,2.87,0,2-1.23,3-2.56,3a2,2,0,0,1-1.74-.89h0v3.07h-1Zm1,1.5a1.86,1.86,0,0,0,0,.42,1.57,1.57,0,0,0,1.53,1.2c1.09,0,1.72-.88,1.72-2.18,0-1.13-.6-2.09-1.68-2.09a1.64,1.64,0,0,0-1.55,1.27,1.37,1.37,0,0,0-.07.42Z"/><path d="M158,34a2.76,2.76,0,0,1-2.81,3,2.68,2.68,0,0,1-2.7-2.9,2.76,2.76,0,0,1,2.8-3A2.67,2.67,0,0,1,158,34Zm-4.47.06c0,1.24.71,2.17,1.71,2.17S157,35.27,157,34c0-1-.48-2.17-1.69-2.17S153.57,33,153.57,34Z"/><path d="M162.83,36.83V32h-2.37v4.86h-1V32h-.79v-.78h.79V31a2.67,2.67,0,0,1,.63-1.92,1.94,1.94,0,0,1,1.43-.53,1.83,1.83,0,0,1,.8.2l-.21.76a1.48,1.48,0,0,0-.61-.14c-.8,0-1,.69-1,1.57v.25h2.37v-.27a2.65,2.65,0,0,1,.66-2,2,2,0,0,1,1.36-.53,2.35,2.35,0,0,1,.88.17l-.13.79a1.56,1.56,0,0,0-.66-.13c-.87,0-1.1.77-1.1,1.63v.31h1.36V32h-1.35v4.86Z"/><path d="M165.89,35.78a2.69,2.69,0,0,0,1.35.41c.75,0,1.1-.37,1.1-.84s-.29-.76-1.05-1c-1-.36-1.49-.92-1.49-1.6a1.74,1.74,0,0,1,1.95-1.65,2.74,2.74,0,0,1,1.38.35l-.25.74a2.33,2.33,0,0,0-1.16-.32c-.6,0-.94.35-.94.77s.34.67,1.07.95c1,.38,1.48.87,1.48,1.71,0,1-.77,1.69-2.11,1.69a3.2,3.2,0,0,1-1.58-.39Z"/><path d="M171.22,34.2a1.8,1.8,0,0,0,1.94,1.95,3.63,3.63,0,0,0,1.56-.29l.17.74A4.61,4.61,0,0,1,173,37a2.63,2.63,0,0,1-2.78-2.85c0-1.7,1-3,2.65-3a2.39,2.39,0,0,1,2.33,2.66,4.64,4.64,0,0,1,0,.48Zm3-.74a1.47,1.47,0,0,0-1.42-1.67,1.71,1.71,0,0,0-1.58,1.67Z"/><path d="M177.73,29.57v1.62h1.47V32h-1.47v3c0,.7.2,1.1.77,1.1a2.55,2.55,0,0,0,.59-.07l0,.77a2.58,2.58,0,0,1-.91.14,1.47,1.47,0,0,1-1.11-.43,2.12,2.12,0,0,1-.4-1.47V32h-.87v-.78h.87V29.84Z"/></svg>