<svg id="Layer_1" data-name="Layer 1" xmlns="http://www.w3.org/2000/svg" viewBox="0 0 351.73 205.74"><defs><style>.cls-1,.cls-2,.cls-3{fill:none;}.cls-1{stroke:#999;}.cls-1,.cls-2,.cls-3,.cls-4{stroke-miterlimit:10;}.cls-2,.cls-3,.cls-4{stroke:#000;}.cls-2{stroke-dasharray:4;}</style></defs><title>Point line distance</title><polyline class="cls-1" points="58.92 93.47 51.16 88.91 55.87 80.88"/><line class="cls-2" x1="93.98" y1="33.72" x2="113.61" y2="0.25"/><line class="cls-3" x1="34.81" y1="134.57" x2="93.98" y2="33.72"/><line class="cls-2" x1="8.95" y1="178.65" x2="34.81" y2="134.57"/><polyline class="cls-2" points="63.77 85.51 56.01 80.95 17.43 58.33"/><circle class="cls-4" cx="17.53" cy="58.48" r="2.35"/><circle class="cls-4" cx="33.17" cy="137.35" r="2.35"/><circle class="cls-4" cx="95.63" cy="30.54" r="2.35"/><circle class="cls-4" cx="63.37" cy="85.52" r="2.35"/><path d="M42.18,138c0-1.24,0-2.24-.08-3.16h1.58l.08,1.66h0a3.81,3.81,0,0,1,3.44-1.88c2.34,0,4.1,2,4.1,4.92,0,3.49-2.12,5.21-4.4,5.21a3.39,3.39,0,0,1-3-1.52h0v5.26H42.18Zm1.74,2.59a4,4,0,0,0,.08.72,2.72,2.72,0,0,0,2.64,2.06c1.86,0,2.94-1.52,2.94-3.75,0-1.94-1-3.6-2.88-3.6A2.81,2.81,0,0,0,44,138.17a2.85,2.85,0,0,0-.12.72Z"/><path d="M52.56,143.56c0-2.49,1.14-4,2.94-4s2.86,1.53,2.86,3.95-1,4.06-2.94,4.06C53.66,147.54,52.56,146,52.56,143.56Zm4.4-.06c0-1.86-.5-2.94-1.5-2.94S54,141.64,54,143.5s.58,3,1.48,3S57,145.4,57,143.5Z"/><path d="M106.18,29.49c0-1.24,0-2.24-.08-3.16h1.58l.08,1.66h0a3.81,3.81,0,0,1,3.44-1.88c2.34,0,4.1,2,4.1,4.92,0,3.49-2.12,5.21-4.4,5.21a3.39,3.39,0,0,1-3-1.52h0V40h-1.74Zm1.74,2.59a4,4,0,0,0,.08.72,2.72,2.72,0,0,0,2.64,2.06c1.86,0,2.94-1.52,2.94-3.75,0-1.94-1-3.6-2.88-3.6A2.81,2.81,0,0,0,108,29.69a2.93,2.93,0,0,0-.12.72Z"/><path d="M118.24,39V32.38h0l-1.44.7-.22-1,1.88-.89h1.22V39Z"/><path d="M1.46,51.05c0-1.24,0-2.24-.08-3.16H3L3,49.55h0a3.81,3.81,0,0,1,3.44-1.88c2.34,0,4.1,2,4.1,4.92,0,3.48-2.12,5.2-4.4,5.2a3.39,3.39,0,0,1-3-1.51h0v5.26H1.46ZM3.2,53.63a4,4,0,0,0,.08.72,2.72,2.72,0,0,0,2.64,2.06c1.86,0,2.94-1.52,2.94-3.74,0-1.94-1-3.6-2.88-3.6a2.81,2.81,0,0,0-2.66,2.18A2.85,2.85,0,0,0,3.2,52Z"/><path d="M72.3,86.64c0-1.24,0-2.24-.08-3.16H73.8l.08,1.66h0a3.81,3.81,0,0,1,3.44-1.88c2.34,0,4.1,2,4.1,4.92,0,3.48-2.12,5.2-4.4,5.2a3.39,3.39,0,0,1-3-1.52h0v5.27H72.3ZM74,89.22a4,4,0,0,0,.08.72A2.72,2.72,0,0,0,76.76,92c1.86,0,2.94-1.52,2.94-3.74,0-1.94-1-3.6-2.88-3.6a2.81,2.81,0,0,0-2.66,2.18,2.85,2.85,0,0,0-.12.72Z"/><path d="M85.24,79.46a23.07,23.07,0,0,1-1.88,4.74l-1.12.14a28.31,28.31,0,0,0,1.18-4.7Z"/><path d="M55.27,186.86A13.19,13.19,0,0,0,52.75,195a13.48,13.48,0,0,0,2.52,8.12H53.89A12.93,12.93,0,0,1,51.27,195a13.2,13.2,0,0,1,2.62-8.18Z"/><path d="M62.49,200.74l-.14-1.22h-.06a3.61,3.61,0,0,1-3,1.44,2.76,2.76,0,0,1-3-2.78c0-2.34,2.08-3.62,5.82-3.6v-.2a2,2,0,0,0-2.2-2.24,4.82,4.82,0,0,0-2.52.72l-.4-1.16a6,6,0,0,1,3.18-.86c3,0,3.68,2,3.68,4v3.62a13.63,13.63,0,0,0,.16,2.32Zm-.26-4.94c-1.92,0-4.1.3-4.1,2.18a1.56,1.56,0,0,0,1.66,1.68A2.41,2.41,0,0,0,62.13,198a1.84,1.84,0,0,0,.1-.56Z"/><path d="M65.71,203.16A13.54,13.54,0,0,0,68.23,195a13.26,13.26,0,0,0-2.52-8.12h1.36A12.74,12.74,0,0,1,69.69,195a13,13,0,0,1-2.62,8.16Z"/><polyline class="cls-1" points="290.06 93.47 282.29 88.91 287 80.88"/><line class="cls-2" x1="325.11" y1="33.72" x2="344.75" y2="0.25"/><line class="cls-3" x1="265.95" y1="134.57" x2="325.11" y2="33.72"/><line class="cls-2" x1="240.09" y1="178.65" x2="265.95" y2="134.57"/><polyline class="cls-2" points="294.91 85.51 287.14 80.95 248.57 58.33"/><circle class="cls-4" cx="248.66" cy="58.48" r="2.35"/><circle class="cls-4" cx="264.3" cy="137.35" r="2.35"/><circle class="cls-4" cx="326.76" cy="30.54" r="2.35"/><circle class="cls-4" cx="294.5" cy="85.52" r="2.35"/><path d="M272.94,138c0-1.24,0-2.24-.08-3.16h1.58l.08,1.66h0a3.81,3.81,0,0,1,3.44-1.88c2.34,0,4.1,2,4.1,4.92,0,3.49-2.12,5.21-4.4,5.21a3.39,3.39,0,0,1-3-1.52h0v5.26h-1.74Zm1.74,2.59a4,4,0,0,0,.08.72,2.72,2.72,0,0,0,2.64,2.06c1.86,0,2.94-1.52,2.94-3.75,0-1.94-1-3.6-2.88-3.6a2.81,2.81,0,0,0-2.66,2.18,2.85,2.85,0,0,0-.12.72Z"/><path d="M283.32,143.56c0-2.49,1.14-4,2.94-4s2.86,1.53,2.86,3.95-1,4.06-2.94,4.06C284.42,147.54,283.32,146,283.32,143.56Zm4.4-.06c0-1.86-.5-2.94-1.5-2.94s-1.5,1.08-1.5,2.94.58,3,1.48,3S287.72,145.4,287.72,143.5Z"/><path d="M336.93,29.49c0-1.24,0-2.24-.08-3.16h1.58l.08,1.66h0A3.81,3.81,0,0,1,342,26.11c2.34,0,4.1,2,4.1,4.92,0,3.49-2.12,5.21-4.4,5.21a3.39,3.39,0,0,1-3-1.52h0V40h-1.74Zm1.74,2.59a4,4,0,0,0,.08.72,2.72,2.72,0,0,0,2.64,2.06c1.86,0,2.94-1.52,2.94-3.75,0-1.94-1-3.6-2.88-3.6a2.81,2.81,0,0,0-2.66,2.18,2.93,2.93,0,0,0-.12.72Z"/><path d="M349,39V32.38h0l-1.44.7-.22-1,1.88-.89h1.22V39Z"/><path d="M232.21,51.05c0-1.24,0-2.24-.08-3.16h1.58l.08,1.66h0a3.82,3.82,0,0,1,3.45-1.88c2.34,0,4.1,2,4.1,4.92,0,3.48-2.12,5.2-4.4,5.2a3.42,3.42,0,0,1-3-1.51h0v5.26h-1.75ZM234,53.63a4,4,0,0,0,.07.72,2.72,2.72,0,0,0,2.64,2.06c1.87,0,3-1.52,3-3.74,0-1.94-1-3.6-2.88-3.6A3,3,0,0,0,234,52Z"/><path d="M303.05,86.64c0-1.24,0-2.24-.08-3.16h1.58l.08,1.66h0a3.81,3.81,0,0,1,3.44-1.88c2.34,0,4.1,2,4.1,4.92,0,3.48-2.12,5.2-4.4,5.2a3.39,3.39,0,0,1-3-1.52h0v5.27h-1.74Zm1.74,2.58a4,4,0,0,0,.08.72A2.72,2.72,0,0,0,307.51,92c1.86,0,2.94-1.52,2.94-3.74,0-1.94-1-3.6-2.88-3.6a2.81,2.81,0,0,0-2.66,2.18,2.85,2.85,0,0,0-.12.72Z"/><path d="M316,79.46a23.07,23.07,0,0,1-1.88,4.74l-1.12.14a28.31,28.31,0,0,0,1.18-4.7Z"/><path d="M285.18,186.86a13.19,13.19,0,0,0-2.52,8.18,13.48,13.48,0,0,0,2.52,8.12H283.8a12.93,12.93,0,0,1-2.62-8.12,13.2,13.2,0,0,1,2.62-8.18Z"/><path d="M287,200.74c0-.66.08-1.64.08-2.5v-11.7h1.74v6.08h0a3.61,3.61,0,0,1,3.3-1.78c2.4,0,4.1,2,4.08,4.94,0,3.46-2.18,5.18-4.34,5.18a3.45,3.45,0,0,1-3.24-1.82h-.06l-.08,1.6Zm1.82-3.88a3.3,3.3,0,0,0,.08.64,2.72,2.72,0,0,0,2.64,2.06c1.84,0,2.94-1.5,2.94-3.72,0-1.94-1-3.6-2.88-3.6a2.81,2.81,0,0,0-2.68,2.16,3.47,3.47,0,0,0-.1.72Z"/><path d="M297.3,203.16a13.54,13.54,0,0,0,2.52-8.18,13.26,13.26,0,0,0-2.52-8.12h1.36a12.74,12.74,0,0,1,2.62,8.14,13,13,0,0,1-2.62,8.16Z"/><line class="cls-3" x1="264.05" y1="137.17" x2="248.47" y2="58.2"/><path d="M283,51.69V63.4c0,.86,0,1.84.08,2.5h-1.58l-.08-1.68h0a3.58,3.58,0,0,1-3.3,1.9c-2.34,0-4.14-2-4.14-4.92C274,58,276,56,278.32,56a3.22,3.22,0,0,1,2.92,1.49h0V51.69Zm-1.76,8.47a3.11,3.11,0,0,0-.08-.74,2.59,2.59,0,0,0-2.54-2c-1.82,0-2.9,1.6-2.9,3.74,0,2,1,3.58,2.86,3.58a2.65,2.65,0,0,0,2.58-2.1,3.06,3.06,0,0,0,.08-.76Z"/><path class="cls-3" d="M258.84,111.14a26.68,26.68,0,0,1,18.88,3.15"/><path d="M265.16,99.35c0-4.08,1.66-7.2,4.68-7.2s4.51,2.9,4.51,7.2c0,4.5-1.47,7.44-4.57,7.44C266.92,106.79,265.16,104.29,265.16,99.35Zm7.45-.76c0-2.84-.93-5.14-2.87-5.14-1.78,0-2.84,2.42-2.84,5.14Zm-5.71,1.32c0,3.56,1.2,5.58,2.92,5.58,1.89,0,2.79-2.32,2.79-5.58Z"/></svg>