<svg id="Layer_1" data-name="Layer 1" xmlns="http://www.w3.org/2000/svg" viewBox="0 0 288.05 44.46"><defs><style>.cls-1,.cls-2{stroke:#000;stroke-miterlimit:10;}.cls-2{fill:none;}</style></defs><title>Ray error tmin tmax</title><circle class="cls-1" cx="170.22" cy="14.92" r="2.35"/><line class="cls-2" x1="288.05" y1="14.96" y2="14.96"/><circle class="cls-1" cx="111.2" cy="14.84" r="2.35"/><polyline class="cls-2" points="219.29 5.75 219.29 0.5 3.53 0.5 3.53 5.61"/><path class="cls-2" d="M192.43,10.72V5.61H147.32v4.76"/><path d="M174.39,23.34v2.78h2.52v1.34h-2.52v5.22c0,1.2.34,1.88,1.32,1.88a3.92,3.92,0,0,0,1-.12l.08,1.32a4.31,4.31,0,0,1-1.56.24,2.41,2.41,0,0,1-1.9-.74,3.54,3.54,0,0,1-.69-2.52V27.46h-1.5V26.12h1.5V23.8Z"/><path d="M178.27,35.35c0-.58,0-1.06,0-1.53h.9l0,.91h0a2,2,0,0,1,1.77-1,1.68,1.68,0,0,1,1.6,1.14h0a2.33,2.33,0,0,1,.63-.74,1.91,1.91,0,0,1,1.25-.4c.74,0,1.85.49,1.85,2.45v3.32h-1V36.27c0-1.08-.4-1.74-1.23-1.74a1.33,1.33,0,0,0-1.21.94,1.88,1.88,0,0,0-.08.51v3.48h-1V36.08c0-.89-.4-1.55-1.18-1.55a1.41,1.41,0,0,0-1.27,1,1.38,1.38,0,0,0-.08.5v3.4h-1Z"/><path d="M189.14,32.24a.6.6,0,0,1-.65.63.61.61,0,0,1-.62-.63.63.63,0,0,1,.64-.64A.61.61,0,0,1,189.14,32.24ZM188,39.46V33.82h1v5.64Z"/><path d="M190.73,35.35c0-.58,0-1.06,0-1.53h.91l.06.93h0a2.09,2.09,0,0,1,1.87-1.06c.78,0,2,.47,2,2.41v3.36h-1V36.21c0-.91-.33-1.67-1.3-1.67a1.47,1.47,0,0,0-1.38,1.05,1.73,1.73,0,0,0-.07.48v3.39h-1Z"/><path d="M113.84,20.09v2.78h2.52v1.34h-2.52v5.22c0,1.2.34,1.88,1.32,1.88a3.92,3.92,0,0,0,1-.12l.08,1.32a4.31,4.31,0,0,1-1.56.24,2.41,2.41,0,0,1-1.9-.74,3.59,3.59,0,0,1-.68-2.52V24.21h-1.5V22.87h1.5V20.55Z"/><path d="M117.73,32.1c0-.58,0-1.06,0-1.53h.9l0,.91h0a2,2,0,0,1,1.77-1,1.67,1.67,0,0,1,1.6,1.14h0a2.46,2.46,0,0,1,.63-.74,1.91,1.91,0,0,1,1.25-.4c.75,0,1.85.49,1.85,2.45v3.32h-1V33c0-1.08-.39-1.74-1.22-1.74a1.31,1.31,0,0,0-1.21.94,1.55,1.55,0,0,0-.09.51v3.48h-1V32.83c0-.89-.4-1.55-1.18-1.55a1.42,1.42,0,0,0-1.27,1,1.38,1.38,0,0,0-.08.5v3.4h-1Z"/><path d="M130.58,36.21l-.08-.71h0a2.07,2.07,0,0,1-1.72.84A1.6,1.6,0,0,1,127,34.72c0-1.36,1.21-2.11,3.39-2.1v-.11a1.16,1.16,0,0,0-1.28-1.31,2.9,2.9,0,0,0-1.47.42l-.23-.67a3.42,3.42,0,0,1,1.85-.51c1.73,0,2.15,1.18,2.15,2.31v2.11a7.9,7.9,0,0,0,.09,1.35Zm-.15-2.88c-1.12,0-2.39.18-2.39,1.28a.9.9,0,0,0,1,1,1.41,1.41,0,0,0,1.37-.94,1.2,1.2,0,0,0,.06-.33Z"/><path d="M133.55,30.57l.8,1.22c.21.31.39.6.58.92h0c.19-.34.37-.63.56-.94l.79-1.2h1.11L135.5,33.3l2,2.91h-1.17l-.83-1.27c-.22-.32-.4-.64-.6-1h0c-.19.34-.39.65-.6,1l-.82,1.27h-1.13l2-2.88-1.91-2.76Z"/></svg>