<svg id="Layer_1" data-name="Layer 1" xmlns="http://www.w3.org/2000/svg" viewBox="0 0 405.84 310.62"><defs><style>.cls-1,.cls-2,.cls-4,.cls-5{fill:none;stroke-miterlimit:10;}.cls-1{stroke:#0071bc;}.cls-1,.cls-5{stroke-width:1.5px;}.cls-2{stroke:#999;}.cls-3{font-size:20px;font-family:MyriadPro-Regular, Myriad Pro;}.cls-4,.cls-5{stroke:#000;}.cls-6{fill:#a6a6a6;}.cls-7{fill:#666;}</style></defs><title>Shapes</title><line class="cls-1" x1="122.71" y1="216.69" x2="304.78" y2="94.59"/><line class="cls-2" x1="88.35" x2="88.35" y2="288.76"/><line class="cls-2" x1="304.59" x2="304.59" y2="288.76"/><line class="cls-2" x1="17.47" y1="71.49" x2="378.12" y2="71.49"/><line class="cls-2" x1="17.47" y1="216.65" x2="378.12" y2="216.65"/><text class="cls-3" transform="translate(83.93 305.62)">x₀</text><text class="cls-3" transform="translate(299.8 303.31)">x₁</text><text class="cls-3" transform="translate(0 219.28)">y₀</text><text class="cls-3" transform="translate(0.4 73.49)">y₁</text><circle cx="88.37" cy="239.71" r="4.02"/><circle cx="122.76" cy="216.59" r="4.02"/><circle cx="339.29" cy="71.47" r="4.02"/><circle cx="304.57" cy="94.75" r="4.02"/><polyline class="cls-4" points="332.53 62.75 117.05 207.26 119.55 211.53"/><line class="cls-4" x1="94.72" y1="249.86" x2="311.17" y2="104.69"/><line class="cls-4" x1="95.3" y1="249.74" x2="91.89" y2="245.01"/><line class="cls-4" x1="332.14" y1="63.1" x2="334.97" y2="67.2"/><line class="cls-4" x1="310.81" y1="105" x2="307.78" y2="100.67"/><text class="cls-3" transform="translate(198.46 136.44)">y</text><text class="cls-3" transform="translate(228.58 176.88)">x</text><line class="cls-5" x1="304.78" y1="94.59" x2="361.13" y2="56.79"/><polygon points="359.62 67.75 360.32 57.33 350.42 54.04 371.23 50.02 359.62 67.75"/><polygon class="cls-6" points="360.55 64.95 369.6 51.12 361.11 56.81 360.55 64.95"/><polygon class="cls-7" points="353.37 54.24 369.6 51.12 361.11 56.81 353.37 54.24"/><line class="cls-5" x1="48.19" y1="266.67" x2="122.71" y2="216.69"/></svg>