<svg id="Layer_1" data-name="Layer 1" xmlns="http://www.w3.org/2000/svg" viewBox="0 0 428.12 309.84"><defs><style>.cls-1,.cls-2,.cls-5{fill:none;stroke-miterlimit:10;}.cls-1{stroke:#999;}.cls-2,.cls-5{stroke:#000;}.cls-2{stroke-width:1.5px;}.cls-3{fill:#a6a6a6;}.cls-4{fill:#666;}</style></defs><title>Ray slab intersect</title><line class="cls-1" x1="40.58" x2="40.58" y2="288.76"/><line class="cls-1" x1="256.82" x2="256.82" y2="288.76"/><line class="cls-2" x1="0.42" y1="266.67" x2="313.36" y2="56.79"/><polygon points="311.84 67.75 312.55 57.33 302.64 54.04 323.45 50.02 311.84 67.75"/><polygon class="cls-3" points="312.78 64.95 321.82 51.12 313.34 56.81 312.78 64.95"/><polygon class="cls-4" points="305.6 54.24 321.82 51.12 313.34 56.81 305.6 54.24"/><path d="M26.62,295.16,28,297.24c.36.54.66,1,1,1.58H29c.32-.58.64-1.08,1-1.6l1.36-2.06h1.9L30,299.84l3.4,5h-2l-1.42-2.18c-.38-.56-.7-1.1-1-1.68h0c-.32.58-.66,1.1-1,1.68l-1.4,2.18H24.5l3.44-4.94-3.28-4.74Z"/><path d="M34.4,298.1v-1.2H44.72v1.2Zm0,3.92v-1.2H44.72V302Z"/><path d="M47.8,295.16l1.38,2.08c.36.54.66,1,1,1.58h.06c.32-.58.64-1.08,1-1.6l1.36-2.06h1.9l-3.3,4.68,3.4,5h-2l-1.42-2.18c-.38-.56-.7-1.1-1-1.68h0c-.32.58-.66,1.1-1,1.68l-1.4,2.18H45.68l3.44-4.94-3.28-4.74Z"/><path d="M55.24,303.9c0-2.48,1.14-4,2.94-4S61,301.4,61,303.82s-1,4.06-2.94,4.06C56.34,307.88,55.24,306.38,55.24,303.9Zm4.4-.06c0-1.86-.5-2.94-1.5-2.94s-1.5,1.08-1.5,2.94.58,3,1.48,3S59.64,305.74,59.64,303.84Z"/><path d="M243.22,295.16l1.38,2.08c.36.54.66,1,1,1.58h.06c.32-.58.64-1.08,1-1.6l1.36-2.06h1.9l-3.3,4.68,3.4,5h-2l-1.42-2.18c-.38-.56-.7-1.1-1-1.68h0c-.32.58-.66,1.1-1,1.68l-1.4,2.18H241.1l3.44-4.94-3.28-4.74Z"/><path d="M251,298.1v-1.2h10.32v1.2Zm0,3.92v-1.2h10.32V302Z"/><path d="M264.4,295.16l1.38,2.08c.36.54.66,1,1,1.58h.06c.32-.58.64-1.08,1-1.6l1.36-2.06H271l-3.3,4.68,3.4,5h-2l-1.42-2.18c-.38-.56-.7-1.1-1-1.68h0c-.32.58-.66,1.1-1,1.68l-1.4,2.18h-1.94l3.44-4.94-3.28-4.74Z"/><path d="M273.52,307.78V301.2h0l-1.44.7-.22-1,1.88-.88h1.22v7.8Z"/><circle cx="40.59" cy="239.71" r="4.02"/><circle cx="256.8" cy="94.75" r="4.02"/><line class="cls-5" x1="256.9" y1="197.59" x2="338.73" y2="197.59"/><polygon points="333.82 203.1 338.08 197.59 333.82 192.09 346.83 197.59 333.82 203.1"/><polygon class="cls-3" points="335.38 201.9 345.52 197.59 338.71 197.59 335.38 201.9"/><polygon class="cls-4" points="335.38 193.3 345.52 197.59 338.71 197.59 335.38 193.3"/><path d="M356.15,195.53c0-1,0-1.82-.08-2.62h1.56l.1,1.6h0a3.56,3.56,0,0,1,3.2-1.82c1.34,0,3.42.8,3.42,4.12v5.78h-1.76V197c0-1.56-.58-2.86-2.24-2.86A2.5,2.5,0,0,0,358,196a2.53,2.53,0,0,0-.12.82v5.82h-1.76Z"/><path d="M366.59,195.85v-1.2h10.32v1.2Zm0,3.92v-1.2h10.32v1.2Z"/><path d="M383,188.71a13.19,13.19,0,0,0-2.52,8.18A13.48,13.48,0,0,0,383,205h-1.38a12.93,12.93,0,0,1-2.62-8.12,13.2,13.2,0,0,1,2.62-8.18Z"/><path d="M388.11,191.23h0l-2.26,1.22-.34-1.34,2.84-1.52h1.5v13h-1.7Z"/><path d="M394,205.05a30.9,30.9,0,0,0,1.2-4.78l2-.2a23.75,23.75,0,0,1-1.91,4.86Z"/><path d="M407.33,196c0,4.42-1.64,6.86-4.52,6.86-2.54,0-4.27-2.38-4.31-6.68s1.89-6.76,4.53-6.76S407.33,191.81,407.33,196Zm-7.06.2c0,3.38,1,5.3,2.64,5.3,1.8,0,2.66-2.1,2.66-5.42s-.82-5.3-2.64-5.3C401.39,190.73,400.27,192.61,400.27,196.15Z"/><path d="M408.36,205.05a28.78,28.78,0,0,0,1.2-4.78l2-.2a24.38,24.38,0,0,1-1.9,4.86Z"/><path d="M421.73,196c0,4.42-1.64,6.86-4.52,6.86-2.55,0-4.27-2.38-4.31-6.68s1.88-6.76,4.53-6.76S421.73,191.81,421.73,196Zm-7.07.2c0,3.38,1,5.3,2.65,5.3,1.8,0,2.66-2.1,2.66-5.42s-.82-5.3-2.65-5.3C415.78,190.73,414.66,192.61,414.66,196.15Z"/><path d="M422.84,205a13.54,13.54,0,0,0,2.52-8.18,13.26,13.26,0,0,0-2.52-8.12h1.36a12.74,12.74,0,0,1,2.62,8.14A13,13,0,0,1,424.2,205Z"/><path d="M55.27,241.16V244h2.52v1.33H55.27v5.23c0,1.2.34,1.88,1.32,1.88a3.92,3.92,0,0,0,1-.12l.08,1.32a4.31,4.31,0,0,1-1.56.24,2.44,2.44,0,0,1-1.9-.74,3.59,3.59,0,0,1-.68-2.52v-5.29h-1.5V244h1.5v-2.33Z"/><path d="M59.16,252.17c0-.58,0-1.06,0-1.53H60l.06.94h0A2.08,2.08,0,0,1,62,250.52c.78,0,2,.46,2,2.4v3.37h-1V253c0-.91-.34-1.66-1.31-1.66a1.44,1.44,0,0,0-1.37,1,1.32,1.32,0,0,0-.08.47v3.4h-1Z"/><path d="M66.2,253.65a1.81,1.81,0,0,0,1.94,2,3.79,3.79,0,0,0,1.56-.29l.17.73a4.44,4.44,0,0,1-1.87.35,2.62,2.62,0,0,1-2.78-2.84c0-1.7,1-3,2.65-3a2.39,2.39,0,0,1,2.33,2.65,2.59,2.59,0,0,1,0,.48Zm3-.73a1.47,1.47,0,0,0-1.42-1.67,1.71,1.71,0,0,0-1.58,1.67Z"/><path d="M74.6,256.29l-.09-.71h0a2.11,2.11,0,0,1-1.73.83A1.6,1.6,0,0,1,71,254.79c0-1.36,1.21-2.11,3.39-2.09v-.12a1.16,1.16,0,0,0-1.28-1.31,2.87,2.87,0,0,0-1.47.42l-.23-.67a3.41,3.41,0,0,1,1.85-.5c1.73,0,2.14,1.17,2.14,2.3v2.11a8,8,0,0,0,.1,1.36Zm-.16-2.88c-1.12,0-2.39.17-2.39,1.27a.91.91,0,0,0,1,1,1.41,1.41,0,0,0,1.37-.95,1.19,1.19,0,0,0,0-.32Z"/><path d="M77.09,252.41c0-.67,0-1.24,0-1.77h.89l0,1.11h0a1.69,1.69,0,0,1,1.57-1.23,1.36,1.36,0,0,1,.29,0v1a1.78,1.78,0,0,0-.35,0,1.45,1.45,0,0,0-1.38,1.32,3.32,3.32,0,0,0,0,.48v3h-1Z"/><path d="M268.06,100.77v2.78h2.52v1.34h-2.52v5.22c0,1.2.34,1.88,1.32,1.88a3.92,3.92,0,0,0,1-.12l.08,1.32a4.31,4.31,0,0,1-1.56.24,2.41,2.41,0,0,1-1.9-.74,3.59,3.59,0,0,1-.68-2.52v-5.28h-1.5v-1.34h1.5v-2.32Z"/><path d="M272.06,115.89V111h-.79v-.78h.79V110a2.66,2.66,0,0,1,.65-2,2,2,0,0,1,1.38-.52,2.41,2.41,0,0,1,.87.16l-.14.8a1.51,1.51,0,0,0-.65-.13c-.88,0-1.1.77-1.1,1.63v.3h1.37V111h-1.37v4.86Z"/><path d="M278.48,115.89l-.08-.71h0a2.07,2.07,0,0,1-1.72.84,1.61,1.61,0,0,1-1.73-1.62c0-1.36,1.22-2.11,3.4-2.1v-.11a1.17,1.17,0,0,0-1.29-1.31,2.84,2.84,0,0,0-1.46.42l-.24-.67a3.45,3.45,0,0,1,1.86-.51c1.72,0,2.14,1.18,2.14,2.31v2.11a7.9,7.9,0,0,0,.09,1.35Zm-.15-2.88c-1.12,0-2.39.18-2.39,1.28a.9.9,0,0,0,1,1,1.39,1.39,0,0,0,1.36-.94.92.92,0,0,0,.06-.33Z"/><path d="M281,112c0-.66,0-1.23-.05-1.76h.9l0,1.11h.05a1.69,1.69,0,0,1,1.56-1.24,1.19,1.19,0,0,1,.29,0v1a1.2,1.2,0,0,0-.35,0,1.44,1.44,0,0,0-1.37,1.32,3.22,3.22,0,0,0-.05.48v3h-1Z"/></svg>