<svg id="Layer_1" data-name="Layer 1" xmlns="http://www.w3.org/2000/svg" viewBox="0 0 435.9 451.14"><defs><style>.cls-1,.cls-2,.cls-3{fill:none;stroke-miterlimit:10;}.cls-1{stroke:gray;}.cls-2,.cls-3{stroke:#000;}.cls-3{stroke-dasharray:4;}.cls-4{fill:#a6a6a6;}.cls-5{fill:#666;}</style></defs><title>Sphere setting</title><path class="cls-1" d="M236.21,250.2c0,5.09-16.05,9.22-35.85,9.22s-35.84-4.13-35.84-9.22,16-9.22,35.84-9.22c11.14,0,21.09,1.3,27.66,3.35"/><path d="M200.42,51.82A198.24,198.24,0,1,1,123,67.45a197.68,197.68,0,0,1,77.43-15.63m0-1C90,50.82.51,140.32.51,250.73S90,450.64,200.42,450.64s199.91-89.5,199.91-199.91S310.82,50.82,200.42,50.82Z"/><path class="cls-2" d="M399.86,250.62c0,25.16-89.4,45.57-199.68,45.57S.5,275.78.5,250.62s89.4-45.57,199.68-45.57c58.9,0,111.85,5.82,148.4,15.08"/><path class="cls-3" d="M200.3,50.82c82.81,0,149.94,89.5,149.94,199.91S283.11,450.64,200.3,450.64"/><line class="cls-2" x1="200.65" y1="250.01" x2="348.22" y2="220.51"/><line class="cls-2" x1="200.35" y1="250.91" x2="200.35" y2="37.68"/><polygon points="205.86 42.59 200.35 38.33 194.85 42.59 200.35 29.58 205.86 42.59"/><polygon class="cls-4" points="204.65 41.03 200.35 30.89 200.35 37.7 204.65 41.03"/><polygon class="cls-5" points="196.06 41.03 200.35 30.89 200.35 37.7 196.06 41.03"/><line class="cls-2" x1="200.35" y1="250.56" x2="121.26" y2="328.66"/><polygon points="120.89 321.3 121.72 328.21 128.62 329.13 115.5 334.36 120.89 321.3"/><polygon class="cls-4" points="120.62 323.25 116.43 333.43 121.28 328.65 120.62 323.25"/><polygon class="cls-5" points="126.67 329.37 116.43 333.43 121.28 328.65 126.67 329.37"/><line class="cls-2" x1="200.09" y1="250.32" x2="413.32" y2="250.32"/><polygon points="408.41 255.83 412.67 250.32 408.41 244.82 421.43 250.32 408.41 255.83"/><polygon class="cls-4" points="409.97 254.63 420.11 250.32 413.3 250.32 409.97 254.63"/><polygon class="cls-5" points="409.97 246.03 420.11 250.32 413.3 250.32 409.97 246.03"/><path d="M195.94,20.89l4.39-5.7c.42-.52.82-1,1.26-1.5v0h-5.25V12.23h7.39l0,1.1L199.39,19c-.41.54-.8,1-1.24,1.52v0h5.66v1.4h-7.87Z"/><path d="M428.92,245.16l1.38,2.08c.36.54.66,1,1,1.58h.06c.32-.58.64-1.08,1-1.6l1.36-2.06h1.9l-3.3,4.68,3.4,5h-2l-1.42-2.18c-.38-.56-.7-1.1-1-1.68h0c-.32.58-.66,1.1-1,1.68l-1.4,2.18H426.8l3.44-4.94L427,245.16Z"/><path d="M103.53,337.32l2.12,5.72c.22.64.46,1.4.62,2h0c.18-.58.38-1.32.62-2l1.92-5.68h1.86l-2.64,6.9c-1.26,3.32-2.12,5-3.32,6.06a4.77,4.77,0,0,1-2.16,1.14l-.44-1.48a4.66,4.66,0,0,0,1.54-.86,5.34,5.34,0,0,0,1.48-2,1.26,1.26,0,0,0,.14-.42,1.53,1.53,0,0,0-.12-.46l-3.58-8.92Z"/><path d="M269.19,222.4c0-1.14,0-2.12-.08-3h1.54l.06,1.9h.08a2.9,2.9,0,0,1,2.68-2.12,1.9,1.9,0,0,1,.5.06v1.66a2.64,2.64,0,0,0-.6-.06,2.47,2.47,0,0,0-2.36,2.26,5,5,0,0,0-.08.82v5.16h-1.74Z"/><path d="M213,262.36a4.67,4.67,0,0,0-2.26,4,3.6,3.6,0,0,0,3.15,3.84v-5.88c0-2.08,1.14-2.92,2.46-2.92,1.9,0,4,1.82,4,4.78a5.11,5.11,0,0,1-4.8,5.3v3.76h-1.62v-3.76c-2.41-.18-4.89-1.68-4.89-5.08a5.53,5.53,0,0,1,3.33-5Zm2.51,7.84c1.9-.26,3.12-1.74,3.12-4,0-2-1.16-3.54-2.28-3.54-.5,0-.84.44-.84,1.36Z"/><path d="M222,273.83c0-.58,0-1.06,0-1.53h.9l0,.91h0a1.93,1.93,0,0,1,1.77-1,1.68,1.68,0,0,1,1.6,1.13h0a2.28,2.28,0,0,1,.63-.73,1.91,1.91,0,0,1,1.25-.4c.74,0,1.85.49,1.85,2.45v3.32h-1v-3.19c0-1.08-.4-1.74-1.23-1.74a1.33,1.33,0,0,0-1.21.94,1.52,1.52,0,0,0-.08.51v3.48h-1v-3.38c0-.89-.4-1.55-1.18-1.55a1.41,1.41,0,0,0-1.27,1,1.35,1.35,0,0,0-.08.5v3.4h-1Z"/><path d="M234.81,277.94l-.08-.71h0a2.09,2.09,0,0,1-1.73.84,1.6,1.6,0,0,1-1.72-1.62c0-1.36,1.21-2.11,3.39-2.1v-.11a1.16,1.16,0,0,0-1.28-1.31,2.75,2.75,0,0,0-1.47.42l-.24-.68a3.57,3.57,0,0,1,1.86-.5c1.72,0,2.14,1.18,2.14,2.31v2.11a7.83,7.83,0,0,0,.1,1.35Zm-.15-2.88c-1.12,0-2.39.18-2.39,1.27a.91.91,0,0,0,1,1,1.39,1.39,0,0,0,1.36-.94,1,1,0,0,0,.06-.33Z"/><path d="M237.79,272.3l.8,1.21c.21.32.39.61.57.93h0c.18-.34.37-.63.56-.94l.79-1.2h1.11L239.73,275l2,2.91h-1.17l-.83-1.27c-.22-.32-.41-.64-.6-1h0c-.18.34-.38.64-.59,1l-.82,1.27h-1.13l2-2.88-1.91-2.76Z"/></svg>