<svg id="Layer_1" data-name="Layer 1" xmlns="http://www.w3.org/2000/svg" viewBox="0 0 237.99 273.54"><defs><style>.cls-1,.cls-3{fill:none;}.cls-1,.cls-2,.cls-3{stroke:#000;stroke-miterlimit:10;}.cls-3{stroke-dasharray:2;}</style></defs><title>Subdiv tangents</title><polygon class="cls-1" points="82.63 138.38 115.2 194.81 147.78 251.24 82.63 251.24 17.47 251.24 50.05 194.81 82.63 138.38"/><polygon class="cls-1" points="82.63 138.24 50.05 81.81 17.47 25.38 82.63 25.38 147.78 25.38 115.2 81.81 82.63 138.24"/><polygon class="cls-1" points="148.01 25.22 180.59 81.65 213.17 138.08 148.01 138.08 82.85 138.08 115.43 81.65 148.01 25.22"/><polygon class="cls-1" points="147.83 250.81 115.25 194.39 82.67 137.96 147.83 137.96 212.99 137.96 180.41 194.39 147.83 250.81"/><circle class="cls-2" cx="82.75" cy="138.13" r="2.35"/><circle class="cls-2" cx="212.6" cy="137.87" r="2.35"/><circle class="cls-2" cx="147.42" cy="25.46" r="2.35"/><circle class="cls-2" cx="17.07" cy="24.95" r="2.35"/><circle class="cls-2" cx="147.93" cy="250.79" r="2.35"/><circle class="cls-2" cx="17.32" cy="251.05" r="2.35"/><path class="cls-3" d="M54.53,186.75a56.11,56.11,0,0,1-.07-97.21"/><path d="M70.16,137.41c0,4.42-1.64,6.86-4.52,6.86-2.54,0-4.26-2.38-4.3-6.68s1.88-6.76,4.52-6.76S70.16,133.27,70.16,137.41Zm-7.06.2c0,3.38,1,5.3,2.64,5.3,1.8,0,2.66-2.1,2.66-5.42s-.82-5.3-2.64-5.3C64.22,132.19,63.1,134.07,63.1,137.61Z"/><path d="M150.28,8.15l1.28,4.92c.28,1.08.54,2.08.72,3.08h.06c.22-1,.54-2,.86-3.06l1.58-4.94h1.48l1.5,4.84c.36,1.16.64,2.18.86,3.16h.06a29.11,29.11,0,0,1,.74-3.14l1.38-4.86h1.74l-3.12,9.68h-1.6l-1.48-4.62a32.26,32.26,0,0,1-.86-3.18h0a28.64,28.64,0,0,1-.88,3.2L153,17.83h-1.6l-2.92-9.68Z"/><path d="M163.3,16.89c0-2.48,1.14-4,2.94-4s2.86,1.52,2.86,3.94-1,4.06-2.94,4.06C164.4,20.87,163.3,19.37,163.3,16.89Zm4.4-.06c0-1.86-.5-2.94-1.5-2.94s-1.5,1.08-1.5,2.94.58,3,1.48,3S167.7,18.73,167.7,16.83Z"/><path d="M220.55,132.84l1.28,4.92c.28,1.08.54,2.08.72,3.08h.06c.22-1,.54-2,.86-3.06l1.58-4.94h1.48l1.5,4.84c.36,1.16.64,2.18.86,3.16H229a29.11,29.11,0,0,1,.74-3.14l1.38-4.86h1.74l-3.12,9.68h-1.6l-1.48-4.62a32.26,32.26,0,0,1-.86-3.18h0a28.64,28.64,0,0,1-.88,3.2l-1.56,4.6h-1.6l-2.92-9.68Z"/><path d="M235.25,145.46v-6.58h0l-1.44.7-.22-1,1.88-.88h1.22v7.8Z"/><path d="M151.6,258.86l1.28,4.92c.28,1.08.54,2.08.72,3.08h.06c.22-1,.54-2,.86-3.06l1.58-4.94h1.48l1.5,4.84c.36,1.16.64,2.18.86,3.16H160a29.11,29.11,0,0,1,.74-3.14l1.38-4.86h1.74l-3.12,9.68h-1.6l-1.48-4.62a32.26,32.26,0,0,1-.86-3.18h0a28.64,28.64,0,0,1-.88,3.2l-1.56,4.6h-1.6l-2.92-9.68Z"/><path d="M164.4,270.74l1.26-1.18c1.66-1.5,2.52-2.44,2.52-3.46a1.36,1.36,0,0,0-1.52-1.4,3.06,3.06,0,0,0-1.68.62l-.42-.9a3.88,3.88,0,0,1,2.44-.84c1.88,0,2.66,1.18,2.66,2.26,0,1.5-1.14,2.6-2.66,3.94l-.62.56v0h3.42v1.1h-5.4Z"/><path d="M2.16,258.86l1.28,4.92c.28,1.08.54,2.08.72,3.08h.06c.22-1,.54-2,.86-3.06l1.58-4.94H8.14l1.5,4.84c.36,1.16.64,2.18.86,3.16h.06a29.11,29.11,0,0,1,.74-3.14l1.38-4.86h1.74l-3.12,9.68H9.7l-1.48-4.62a32.26,32.26,0,0,1-.86-3.18h0a28.64,28.64,0,0,1-.88,3.2l-1.56,4.6H3.28L.36,258.86Z"/><path d="M15.28,264.2a4.45,4.45,0,0,1,2.3-.62c1.72,0,2.44.92,2.44,1.88a2,2,0,0,1-1.54,1.8v0a2,2,0,0,1,1.86,1.94c0,1.24-1.12,2.34-3.16,2.34A4.42,4.42,0,0,1,14.9,271l.36-1a3.75,3.75,0,0,0,1.86.52c1.22,0,1.76-.72,1.74-1.34,0-1-1.06-1.4-2.12-1.4H16.2v-.92h.56c.74,0,1.8-.34,1.82-1.28,0-.48-.36-1-1.26-1a3.22,3.22,0,0,0-1.7.52Z"/><path d="M5.19,7.06,6.47,12c.28,1.08.54,2.08.73,3.08h0c.23-1,.54-2,.87-3.06L9.7,7.06h1.48l1.5,4.84c.36,1.16.64,2.18.86,3.16h.06a29.11,29.11,0,0,1,.74-3.14l1.38-4.86h1.74l-3.12,9.68h-1.6l-1.48-4.62a32.26,32.26,0,0,1-.86-3.18h0a28.64,28.64,0,0,1-.88,3.2l-1.56,4.6H6.31L3.39,7.06Z"/><path d="M18.6,15.29c0-.59,0-1.07,0-1.53h.91l.06.93h0a2.06,2.06,0,0,1,1.86-1.06c.79,0,2,.47,2,2.4V19.4h-1V16.15c0-.91-.34-1.67-1.3-1.67a1.47,1.47,0,0,0-1.38,1,1.39,1.39,0,0,0-.07.48V19.4h-1Z"/><path d="M27.46,15.87v.76H24.58v-.76Z"/><path d="M30.56,12.78h0l-1.32.71L29,12.71l1.65-.89h.88V19.4h-1Z"/></svg>