<svg id="Layer_1" data-name="Layer 1" xmlns="http://www.w3.org/2000/svg" viewBox="0 0 341.97 255.45"><defs><style>.cls-1{fill:none;stroke:#000;stroke-miterlimit:10;}.cls-2{fill:#a6a6a6;}.cls-3{fill:#666;}</style></defs><title>Subdiv face orientation</title><polyline class="cls-1" points="127.34 218.45 126.89 218.51 32.5 232.44 67.63 143.74"/><polygon points="121.67 213.72 126.69 218.54 123.28 224.61 135.35 217.26 121.67 213.72"/><polygon class="cls-2" points="123.39 214.68 134.06 217.46 127.32 218.45 123.39 214.68"/><polygon class="cls-3" points="124.65 223.19 134.06 217.46 127.32 218.45 124.65 223.19"/><polyline class="cls-1" points="67.63 143.74 102.77 55.03 162.02 129.81 162.59 130.53"/><polygon points="74.56 141.2 67.87 143.13 64.32 137.14 64.65 151.27 74.56 141.2"/><polygon class="cls-2" points="72.87 142.2 65.13 150.05 67.64 143.72 72.87 142.2"/><polygon class="cls-3" points="64.87 139.04 65.13 150.05 67.64 143.72 64.87 139.04"/><polyline class="cls-1" points="162.59 130.53 221.28 204.58 133.97 217.47"/><polygon points="161.33 137.79 163 131.04 169.95 130.96 157.56 124.17 161.33 137.79"/><polygon class="cls-2" points="161.3 135.82 158.37 125.2 162.6 130.54 161.3 135.82"/><polygon class="cls-3" points="168.04 130.48 158.37 125.2 162.6 130.54 168.04 130.48"/><polyline class="cls-1" points="270.07 110.97 269.9 111.39 234.64 200.04 175.5 125.18"/><polygon points="263.14 113.5 269.83 111.58 273.37 117.57 273.07 103.44 263.14 113.5"/><polygon class="cls-2" points="264.83 112.5 272.58 104.66 270.06 110.99 264.83 112.5"/><polygon class="cls-3" points="272.82 115.68 272.58 104.66 270.06 110.99 272.82 115.68"/><polyline class="cls-1" points="175.5 125.18 116.35 50.31 210.76 36.52 211.67 36.39"/><polygon points="176.77 117.91 175.09 124.67 168.13 124.73 180.52 131.53 176.77 117.91"/><polygon class="cls-2" points="176.79 119.88 179.71 130.5 175.48 125.16 176.79 119.88"/><polygon class="cls-3" points="170.05 125.21 179.71 130.5 175.48 125.16 170.05 125.21"/><polyline class="cls-1" points="211.67 36.39 305.17 22.74 272.55 104.74"/><polygon points="217.32 41.13 212.31 36.3 215.74 30.24 203.65 37.56 217.32 41.13"/><polygon class="cls-2" points="215.61 40.16 204.95 37.37 211.69 36.39 215.61 40.16"/><polygon class="cls-3" points="214.37 31.66 204.95 37.37 211.69 36.39 214.37 31.66"/><path d="M95.52,33l1.9,5.44a24.89,24.89,0,0,1,.78,2.48h.06c.22-.8.5-1.6.82-2.48L101,33h1.84L99,42.66H97.32L93.64,33Z"/><path d="M103.46,41.71c0-2.48,1.14-4,2.94-4s2.86,1.52,2.86,3.94-1,4.07-2.94,4.07C104.56,45.7,103.46,44.2,103.46,41.71Zm4.4-.05c0-1.87-.5-2.95-1.5-2.95s-1.5,1.08-1.5,2.95.58,3,1.48,3S107.86,43.56,107.86,41.66Z"/><path d="M232.35,211.42l1.9,5.44a24.89,24.89,0,0,1,.78,2.48h.06c.22-.8.5-1.6.82-2.48l1.88-5.44h1.84l-3.8,9.68h-1.68l-3.68-9.68Z"/><path d="M242,224v-6.58h0l-1.44.7-.22-1,1.88-.88h1.22V224Z"/><path d="M308.63,7.06l1.9,5.44a24.89,24.89,0,0,1,.78,2.48h.06c.22-.8.5-1.6.82-2.48l1.88-5.44h1.84l-3.8,9.68h-1.68l-3.68-9.68Z"/><path d="M316.35,18.94l1.26-1.18c1.66-1.5,2.52-2.44,2.52-3.46a1.36,1.36,0,0,0-1.52-1.4,3.06,3.06,0,0,0-1.68.62l-.42-.9a3.88,3.88,0,0,1,2.44-.84c1.88,0,2.66,1.18,2.66,2.26,0,1.5-1.14,2.6-2.66,3.94l-.62.56v0h3.42v1.1h-5.4Z"/><path d="M15.47,234.77l1.9,5.44a24.89,24.89,0,0,1,.78,2.48h.06c.22-.8.5-1.6.82-2.48l1.89-5.44h1.84L19,244.45H17.27l-3.68-9.68Z"/><path d="M23.51,240.11a4.45,4.45,0,0,1,2.3-.62c1.72,0,2.44.92,2.44,1.88a2,2,0,0,1-1.54,1.8v0a2,2,0,0,1,1.86,1.94c0,1.24-1.12,2.34-3.16,2.34a4.42,4.42,0,0,1-2.28-.56l.36-1a3.75,3.75,0,0,0,1.86.52c1.22,0,1.76-.72,1.74-1.34,0-1-1.06-1.4-2.12-1.4h-.54v-.92H25c.74,0,1.8-.34,1.82-1.28,0-.48-.36-1-1.26-1a3.22,3.22,0,0,0-1.7.52Z"/></svg>