<svg id="Layer_1" data-name="Layer 1" xmlns="http://www.w3.org/2000/svg" viewBox="0 0 200.39 336.42"><defs><style>.cls-1,.cls-4{fill:none;}.cls-1,.cls-2,.cls-4{stroke:#000;stroke-miterlimit:10;}.cls-3{fill:#b3b3b3;}.cls-4{stroke-dasharray:2;}</style></defs><title>Subdiv boundary weighting</title><polygon class="cls-1" points="184.9 233.14 128.47 265.71 72.05 298.29 72.05 233.14 72.05 167.98 128.47 200.56 184.9 233.14"/><circle class="cls-2" cx="72.07" cy="167.89" r="2.35"/><circle class="cls-2" cx="71.75" cy="298.08" r="2.35"/><circle class="cls-2" cx="72.07" cy="37.38" r="2.35"/><circle class="cls-2" cx="185.15" cy="233.46" r="2.35"/><circle class="cls-2" cx="185.15" cy="102" r="2.35"/><path d="M93.44,162.27h0l-2.26,1.22-.34-1.34,2.84-1.52h1.5v13h-1.7Z"/><path d="M104.52,167.57v1.3H99.58v-1.3Z"/><path d="M106,173.63v-1.08l1.38-1.34c3.32-3.16,4.82-4.84,4.84-6.8a2.32,2.32,0,0,0-2.58-2.54,4.43,4.43,0,0,0-2.76,1.1l-.56-1.24a5.7,5.7,0,0,1,3.68-1.32,3.66,3.66,0,0,1,4,3.78c0,2.4-1.74,4.34-4.48,7l-1,1v0h5.84v1.46Z"/><path d="M118.52,172.63V174a20.15,20.15,0,0,0,.22,3.63H117.1a12.55,12.55,0,0,1-.3-3.41V165c0-2.76.74-4,1.5-4.7a3.91,3.91,0,0,1,2.84-1.06,3.37,3.37,0,0,1,3.5,3.48,3.47,3.47,0,0,1-1.78,3.12v.08a3.72,3.72,0,0,1,3,3.82,4.27,4.27,0,0,1-7.26,2.92Zm0-1.74a3.37,3.37,0,0,0,2.82,1.6,2.67,2.67,0,0,0,2.74-2.78c0-1.92-1.36-2.9-3.12-3a4.86,4.86,0,0,0-.54,0v-1.2a2,2,0,0,0,.34,0A2.4,2.4,0,0,0,123,163a2.1,2.1,0,0,0-2-2.34c-1.62,0-2.48,1.4-2.48,4.16Z"/><path d="M70.91,26.55v1.34a20,20,0,0,0,.22,3.62H69.49a12.42,12.42,0,0,1-.3-3.4V18.89c0-2.76.74-4,1.5-4.7a3.91,3.91,0,0,1,2.84-1.06A3.37,3.37,0,0,1,77,16.61a3.47,3.47,0,0,1-1.78,3.12v.08a3.72,3.72,0,0,1,3,3.82A4.27,4.27,0,0,1,71,26.55Zm0-1.74a3.37,3.37,0,0,0,2.82,1.6,2.67,2.67,0,0,0,2.74-2.78c0-1.92-1.36-2.9-3.12-3a4.86,4.86,0,0,0-.54,0v-1.2a2,2,0,0,0,.34,0,2.4,2.4,0,0,0,2.28-2.56,2.1,2.1,0,0,0-2-2.34c-1.62,0-2.48,1.4-2.48,4.16Z"/><path d="M199.67,101.26c0,4.42-1.64,6.86-4.52,6.86-2.54,0-4.26-2.38-4.3-6.68s1.88-6.77,4.52-6.77S199.67,97.11,199.67,101.26Zm-7.06.2c0,3.38,1,5.3,2.64,5.3,1.8,0,2.66-2.1,2.66-5.42S197.09,96,195.27,96C193.73,96,192.61,97.91,192.61,101.46Z"/><path d="M69.69,317.81v1.34a20,20,0,0,0,.22,3.62H68.27a12.42,12.42,0,0,1-.3-3.4v-9.22c0-2.76.74-4,1.5-4.7a3.91,3.91,0,0,1,2.84-1.06,3.37,3.37,0,0,1,3.5,3.48A3.47,3.47,0,0,1,74,311v.08a3.72,3.72,0,0,1,3,3.82,4.27,4.27,0,0,1-7.26,2.92Zm0-1.74a3.37,3.37,0,0,0,2.82,1.6,2.67,2.67,0,0,0,2.74-2.78c0-1.92-1.36-2.9-3.12-3a4.86,4.86,0,0,0-.54,0v-1.2a2,2,0,0,0,.34,0,2.4,2.4,0,0,0,2.28-2.56,2.1,2.1,0,0,0-2-2.34c-1.62,0-2.48,1.4-2.48,4.16Z"/><polygon class="cls-1" points="184.9 102.45 128.47 135.03 72.05 167.61 72.05 102.45 72.05 37.29 128.47 69.87 184.9 102.45"/><path d="M199.67,232.7c0,4.42-1.64,6.86-4.52,6.86-2.54,0-4.26-2.38-4.3-6.68s1.88-6.76,4.52-6.76S199.67,228.56,199.67,232.7Zm-7.06.2c0,3.38,1,5.3,2.64,5.3,1.8,0,2.66-2.1,2.66-5.42s-.82-5.3-2.64-5.3C193.73,227.48,192.61,229.36,192.61,232.9Z"/><rect class="cls-3" width="59.4" height="336.42"/><path class="cls-4" d="M134.05,203.83a71.84,71.84,0,0,0-.41-71.94"/></svg>