<svg id="Layer_1" data-name="Layer 1" xmlns="http://www.w3.org/2000/svg" viewBox="0 0 200.39 336.42"><defs><style>.cls-1,.cls-4{fill:none;}.cls-1,.cls-2,.cls-4{stroke:#000;stroke-miterlimit:10;}.cls-3{fill:#b3b3b3;}.cls-4{stroke-dasharray:2;}</style></defs><title>Subdiv edge tangents</title><polygon class="cls-1" points="184.9 233.14 128.47 265.71 72.05 298.29 72.05 233.14 72.05 167.98 128.47 200.56 184.9 233.14"/><circle class="cls-2" cx="72.07" cy="167.89" r="2.35"/><circle class="cls-2" cx="71.75" cy="298.08" r="2.35"/><circle class="cls-2" cx="72.07" cy="37.38" r="2.35"/><circle class="cls-2" cx="185.15" cy="233.46" r="2.35"/><circle class="cls-2" cx="185.15" cy="102" r="2.35"/><path d="M68.69,17.87l1.9,5.44a24.89,24.89,0,0,1,.78,2.48h.06c.22-.8.5-1.6.82-2.48l1.88-5.44H76l-3.8,9.68H70.49l-3.68-9.68Z"/><path d="M76.63,26.61c0-2.48,1.14-4,2.94-4s2.86,1.52,2.86,3.94-1,4.06-2.94,4.06C77.73,30.59,76.63,29.09,76.63,26.61Zm4.4-.06c0-1.86-.5-2.94-1.5-2.94S78,24.69,78,26.55s.58,3,1.48,3S81,28.45,81,26.55Z"/><path d="M192.27,96.62l1.9,5.44a24.89,24.89,0,0,1,.78,2.48H195c.22-.8.5-1.6.82-2.48l1.88-5.44h1.84l-3.8,9.68h-1.68l-3.68-9.68Z"/><path d="M201.89,109.24v-6.58h0l-1.44.7-.22-1,1.88-.88h1.22v7.8Z"/><path d="M68.69,309.13l1.9,5.44a24.89,24.89,0,0,1,.78,2.48h.06c.22-.8.5-1.6.82-2.48l1.88-5.44H76l-3.8,9.68H70.49l-3.68-9.68Z"/><path d="M77,317.35c0-.58,0-1.06,0-1.52h.91l0,.93h0a2.06,2.06,0,0,1,1.86-1.06c.78,0,2,.47,2,2.4v3.37h-1v-3.25c0-.91-.34-1.67-1.31-1.67a1.45,1.45,0,0,0-1.37,1.05,1.39,1.39,0,0,0-.07.48v3.39H77Z"/><path d="M85.87,317.94v.76H83v-.76Z"/><path d="M89,314.85h0l-1.32.71-.2-.78,1.66-.89H90v7.58H89Z"/><polygon class="cls-1" points="184.9 102.45 128.47 135.03 72.05 167.61 72.05 102.45 72.05 37.29 128.47 69.87 184.9 102.45"/><path d="M192.27,229.66l1.9,5.44a24.89,24.89,0,0,1,.78,2.48H195c.22-.8.5-1.6.82-2.48l1.88-5.44h1.84l-3.8,9.68h-1.68l-3.68-9.68Z"/><rect class="cls-3" width="59.4" height="336.42"/><path class="cls-4" d="M134.05,203.83a71.84,71.84,0,0,0-.41-71.94"/></svg>