<svg id="Layer_1" data-name="Layer 1" xmlns="http://www.w3.org/2000/svg" viewBox="0 0 207.15 225.35"><defs><style>.cls-1,.cls-2,.cls-3{stroke:#000;stroke-miterlimit:10;}.cls-2,.cls-3{fill:none;}.cls-2{stroke-dasharray:4;}.cls-4{fill:#a6a6a6;}.cls-5{fill:#666;}</style></defs><title>Tri edge function</title><circle class="cls-1" cx="77.02" cy="137.8" r="2.35"/><circle class="cls-1" cx="132.56" cy="75.34" r="2.35"/><line class="cls-2" x1="131.5" y1="76.72" x2="197.92" y2="0.33"/><line class="cls-3" x1="79.16" y1="135.61" x2="126.12" y2="82.78"/><polygon points="126.97 90.11 125.69 83.27 118.75 82.79 131.5 76.72 126.97 90.11"/><polygon class="cls-4" points="127.11 88.14 130.63 77.7 126.11 82.79 127.11 88.14"/><polygon class="cls-5" points="120.68 82.43 130.63 77.7 126.11 82.79 120.68 82.43"/><line class="cls-2" x1="0.38" y1="225.02" x2="79.16" y2="135.61"/><path d="M139.1,76.35c0-1.24,0-2.24-.08-3.16h1.58l.08,1.66h0A3.81,3.81,0,0,1,144.16,73c2.34,0,4.1,2,4.1,4.92,0,3.48-2.12,5.2-4.4,5.2a3.39,3.39,0,0,1-3-1.52h0v5.27H139.1Zm1.74,2.58a4,4,0,0,0,.08.72,2.72,2.72,0,0,0,2.64,2.06c1.86,0,2.94-1.52,2.94-3.74,0-1.94-1-3.6-2.88-3.6A2.81,2.81,0,0,0,141,76.55a2.85,2.85,0,0,0-.12.72Z"/><path d="M151.16,85.81V79.23h0l-1.44.7-.22-1,1.88-.88h1.22v7.8Z"/><path d="M84.64,136.66c0-1.24,0-2.24-.08-3.16h1.58l.08,1.66h0a3.81,3.81,0,0,1,3.44-1.88c2.34,0,4.1,2,4.1,4.92,0,3.48-2.12,5.2-4.4,5.2a3.39,3.39,0,0,1-3-1.52h0v5.26H84.64Zm1.74,2.58a4,4,0,0,0,.08.72A2.72,2.72,0,0,0,89.1,142C91,142,92,140.5,92,138.28c0-1.94-1-3.6-2.88-3.6a2.81,2.81,0,0,0-2.66,2.18,2.85,2.85,0,0,0-.12.72Z"/><path d="M95,142.24c0-2.48,1.14-4,2.94-4s2.86,1.52,2.86,3.94-1,4.06-2.94,4.06C96.12,146.22,95,144.72,95,142.24Zm4.4-.06c0-1.86-.5-2.94-1.5-2.94s-1.5,1.08-1.5,2.94.58,3,1.48,3S99.42,144.08,99.42,142.18Z"/><path d="M26.19,75.93a3.1,3.1,0,0,0,3.32,3.36,6.36,6.36,0,0,0,2.68-.5l.3,1.26a7.84,7.84,0,0,1-3.22.6c-3,0-4.76-2-4.76-4.88s1.72-5.22,4.54-5.22c3.16,0,4,2.78,4,4.56a6.64,6.64,0,0,1-.06.82Zm5.16-1.26c0-1.12-.46-2.86-2.44-2.86-1.78,0-2.56,1.64-2.7,2.86Z"/><path d="M39.05,66.57a13.19,13.19,0,0,0-2.52,8.18,13.53,13.53,0,0,0,2.52,8.13H37.67a13,13,0,0,1-2.62-8.13,13.14,13.14,0,0,1,2.62-8.18Z"/><path d="M40.91,73.93c0-1.24,0-2.24-.08-3.16h1.58l.08,1.66h0A3.81,3.81,0,0,1,46,70.55c2.34,0,4.1,2,4.1,4.92,0,3.48-2.12,5.2-4.4,5.2a3.39,3.39,0,0,1-3-1.52h0v5.27H40.91Zm1.74,2.58a4,4,0,0,0,.08.72,2.72,2.72,0,0,0,2.64,2.06c1.86,0,2.94-1.52,2.94-3.74,0-1.94-1-3.6-2.88-3.6a2.81,2.81,0,0,0-2.66,2.18,2.85,2.85,0,0,0-.12.72Z"/><path d="M51.17,82.88a13.59,13.59,0,0,0,2.52-8.19,13.26,13.26,0,0,0-2.52-8.12h1.36a12.74,12.74,0,0,1,2.62,8.14,13,13,0,0,1-2.62,8.17Z"/><path d="M62,74.59l9.28-4.78v1.38l-7.82,3.92v0l7.82,3.92v1.38L62,75.67Z"/><path d="M86.39,73.81c0,4.42-1.64,6.86-4.52,6.86-2.55,0-4.27-2.38-4.31-6.68s1.88-6.76,4.53-6.76S86.39,69.67,86.39,73.81Zm-7.07.2c0,3.38,1,5.3,2.65,5.3,1.8,0,2.66-2.1,2.66-5.42s-.82-5.3-2.65-5.3C80.44,68.59,79.32,70.47,79.32,74Z"/><path d="M129.9,140.41a3.1,3.1,0,0,0,3.33,3.36,6.35,6.35,0,0,0,2.67-.5l.31,1.26a7.9,7.9,0,0,1-3.23.6c-3,0-4.76-2-4.76-4.88s1.72-5.22,4.54-5.22c3.17,0,4,2.78,4,4.56a6.64,6.64,0,0,1-.06.82Zm5.16-1.26c0-1.12-.46-2.86-2.44-2.86-1.78,0-2.56,1.64-2.7,2.86Z"/><path d="M142.76,131.05a13.19,13.19,0,0,0-2.52,8.18,13.48,13.48,0,0,0,2.52,8.12h-1.38a12.93,12.93,0,0,1-2.62-8.12,13.2,13.2,0,0,1,2.62-8.18Z"/><path d="M144.62,138.41c0-1.24,0-2.24-.08-3.16h1.58l.08,1.66h0a3.81,3.81,0,0,1,3.44-1.88c2.35,0,4.11,2,4.11,4.92,0,3.48-2.12,5.2-4.4,5.2a3.4,3.4,0,0,1-3-1.52h0v5.26h-1.74Zm1.74,2.58a4,4,0,0,0,.08.72,2.72,2.72,0,0,0,2.64,2.06c1.86,0,2.95-1.52,2.95-3.74,0-1.94-1-3.6-2.89-3.6a2.81,2.81,0,0,0-2.66,2.18,2.85,2.85,0,0,0-.12.72Z"/><path d="M154.88,147.35a13.54,13.54,0,0,0,2.52-8.18,13.26,13.26,0,0,0-2.52-8.12h1.36a12.74,12.74,0,0,1,2.62,8.14,13,13,0,0,1-2.62,8.16Z"/><path d="M175,140.17l-9.29,4.76v-1.38l7.88-3.92v0l-7.88-3.92v-1.38l9.29,4.76Z"/><path d="M190.1,138.29c0,4.42-1.64,6.86-4.52,6.86-2.54,0-4.26-2.38-4.3-6.68s1.88-6.76,4.52-6.76S190.1,134.15,190.1,138.29Zm-7.06.2c0,3.38,1,5.3,2.64,5.3,1.8,0,2.66-2.1,2.66-5.42s-.82-5.3-2.64-5.3C184.16,133.07,183,135,183,138.49Z"/></svg>