<svg id="Layer_1" data-name="Layer 1" xmlns="http://www.w3.org/2000/svg" viewBox="0 0 384.52 248.15"><defs><style>.cls-1,.cls-2{fill:#999;}.cls-1,.cls-2,.cls-3,.cls-4,.cls-5{stroke:#000;stroke-miterlimit:10;}.cls-1{fill-rule:evenodd;}.cls-4,.cls-5{fill:none;}.cls-4{stroke-dasharray:4;}.cls-6{fill:#a6a6a6;}.cls-7{fill:#666;}</style></defs><title>Tri area</title><polyline class="cls-1" points="132.31 25.58 24.14 222.54 275.22 222.98 132.25 24.98"/><line class="cls-2" x1="132.53" y1="25.18" x2="132.31" y2="25.58"/><circle class="cls-3" cx="275.51" cy="222.96" r="2.35"/><circle class="cls-3" cx="132.37" cy="25.1" r="2.35"/><line class="cls-4" x1="275.69" y1="222.6" x2="384.08" y2="25.24"/><line class="cls-5" x1="267.58" y1="222.59" x2="24.13" y2="222.13"/><polygon points="262.68 217.08 266.93 222.59 262.66 228.08 275.69 222.6 262.68 217.08"/><polygon class="cls-6" points="264.24 218.28 274.38 222.6 267.56 222.59 264.24 218.28"/><polygon class="cls-7" points="264.22 226.88 274.38 222.6 267.56 222.59 264.22 226.88"/><line class="cls-4" x1="132.68" y1="24.98" x2="384.24" y2="25.46"/><path d="M156,229.54l2.28,6.52a28.8,28.8,0,0,1,.94,3h.07c.26-1,.6-1.92,1-3l2.25-6.52h2.21l-4.56,11.61h-2l-4.41-11.61Z"/><path d="M167.51,245.68v-7.9h0l-1.73.84-.26-1.24,2.25-1.06h1.47v9.36Z"/><path d="M59.47,99.51,61.75,106c.38,1.06.7,2,.94,3h.07c.26-1,.6-1.92,1-3L66,99.51h2.21l-4.56,11.62h-2L57.21,99.51Z"/><path d="M68.73,114.77l1.52-1.42c2-1.8,3-2.93,3-4.15a1.63,1.63,0,0,0-1.82-1.68,3.71,3.71,0,0,0-2,.74l-.5-1.08a4.63,4.63,0,0,1,2.92-1c2.26,0,3.2,1.41,3.2,2.71,0,1.8-1.37,3.12-3.2,4.73l-.74.67v0h4.1v1.32H68.73Z"/><line class="cls-5" x1="23.8" y1="222.11" x2="128.55" y2="32.41"/><polygon points="131 39.37 128.24 32.98 121.36 34.05 132.47 25.31 131 39.37"/><polygon class="cls-6" points="130.7 37.42 131.84 26.46 128.54 32.42 130.7 37.42"/><polygon class="cls-7" points="123.17 33.27 131.84 26.46 128.54 32.42 123.17 33.27"/><circle class="cls-3" cx="23.19" cy="222.31" r="2.35"/><path d="M1.46,220.85c0-1.24,0-2.24-.08-3.16H3L3,219.35h0a3.81,3.81,0,0,1,3.44-1.88c2.34,0,4.1,2,4.1,4.92,0,3.48-2.12,5.2-4.4,5.2a3.39,3.39,0,0,1-3-1.52h0v5.26H1.46Zm1.74,2.58a4,4,0,0,0,.08.72,2.72,2.72,0,0,0,2.64,2.06c1.86,0,2.94-1.52,2.94-3.74,0-1.94-1-3.6-2.88-3.6a2.81,2.81,0,0,0-2.66,2.18,2.85,2.85,0,0,0-.12.72Z"/><path d="M11.84,226.43c0-2.48,1.14-4,2.94-4s2.86,1.52,2.86,3.94-1,4.06-2.94,4.06C12.94,230.41,11.84,228.91,11.84,226.43Zm4.4-.06c0-1.86-.5-2.94-1.5-2.94s-1.5,1.08-1.5,2.94.58,3,1.48,3S16.24,228.27,16.24,226.37Z"/><path d="M283.68,220.85c0-1.24,0-2.24-.08-3.16h1.58l.08,1.66h0a3.81,3.81,0,0,1,3.44-1.88c2.34,0,4.1,2,4.1,4.92,0,3.48-2.12,5.2-4.4,5.2a3.39,3.39,0,0,1-3-1.52h0v5.26h-1.74Zm1.74,2.58a4,4,0,0,0,.08.72,2.72,2.72,0,0,0,2.64,2.06c1.86,0,2.94-1.52,2.94-3.74,0-1.94-1-3.6-2.88-3.6a2.81,2.81,0,0,0-2.66,2.18,2.85,2.85,0,0,0-.12.72Z"/><path d="M295.74,230.31v-6.58h0l-1.44.7-.22-1,1.88-.88h1.22v7.8Z"/><path d="M126,10.22c0-1.24,0-2.24-.08-3.16h1.58l.08,1.66h0a3.81,3.81,0,0,1,3.44-1.88c2.34,0,4.1,2,4.1,4.92,0,3.48-2.12,5.2-4.4,5.2a3.39,3.39,0,0,1-3-1.52h0V20.7H126Zm1.74,2.58a4,4,0,0,0,.08.72,2.72,2.72,0,0,0,2.64,2.06c1.86,0,2.94-1.52,2.94-3.74,0-1.94-1-3.6-2.88-3.6a2.81,2.81,0,0,0-2.66,2.18,2.85,2.85,0,0,0-.12.72Z"/><path d="M136.18,18.94l1.26-1.18c1.66-1.5,2.52-2.44,2.52-3.46a1.36,1.36,0,0,0-1.52-1.4,3.06,3.06,0,0,0-1.68.62l-.42-.9a3.88,3.88,0,0,1,2.44-.84c1.88,0,2.66,1.18,2.66,2.26,0,1.5-1.14,2.6-2.66,3.94l-.62.56v0h3.42v1.1h-5.4Z"/></svg>