<svg id="Layer_1" data-name="Layer 1" xmlns="http://www.w3.org/2000/svg" viewBox="0 0 332.78 185.77"><defs><style>.cls-1,.cls-2{fill:none;}.cls-1,.cls-2,.cls-5{stroke:#000;stroke-miterlimit:10;}.cls-2{stroke-dasharray:4;}.cls-3{fill:#a6a6a6;}.cls-4{fill:#666;}</style></defs><title>Tri isect coordinate system</title><polygon class="cls-1" points="221.52 183.83 329.48 136.65 270.78 4.55 221.52 183.83"/><line class="cls-2" x1="94.86" y1="101.61" x2="281.84" y2="101.61"/><line class="cls-1" x1="25.57" y1="101.61" x2="86.76" y2="101.61"/><polygon points="81.85 107.11 86.11 101.61 81.85 96.1 94.86 101.61 81.85 107.11"/><polygon class="cls-3" points="83.41 105.91 93.55 101.61 86.74 101.61 83.41 105.91"/><polygon class="cls-4" points="83.41 97.31 93.55 101.61 86.74 101.61 83.41 97.31"/><path d="M257.83,108.42a13.19,13.19,0,0,0-2.52,8.18,13.48,13.48,0,0,0,2.52,8.12h-1.38a12.93,12.93,0,0,1-2.62-8.12,13.14,13.14,0,0,1,2.62-8.18Z"/><path d="M267.77,115.66c0,4.42-1.64,6.86-4.52,6.86-2.54,0-4.27-2.38-4.31-6.68s1.89-6.76,4.53-6.76S267.77,111.52,267.77,115.66Zm-7.06.2c0,3.38,1,5.3,2.64,5.3,1.8,0,2.66-2.1,2.66-5.42s-.82-5.3-2.64-5.3C261.83,110.44,260.71,112.32,260.71,115.86Z"/><path d="M268.8,124.76A28.78,28.78,0,0,0,270,120l2-.2a24.38,24.38,0,0,1-1.9,4.86Z"/><path d="M286.41,115.66c0,4.42-1.64,6.86-4.52,6.86-2.55,0-4.27-2.38-4.31-6.68s1.88-6.76,4.53-6.76S286.41,111.52,286.41,115.66Zm-7.07.2c0,3.38,1,5.3,2.65,5.3,1.8,0,2.66-2.1,2.66-5.42s-.82-5.3-2.65-5.3C280.46,110.44,279.34,112.32,279.34,115.86Z"/><path d="M287.44,124.76a28.78,28.78,0,0,0,1.2-4.78l2-.2a24.38,24.38,0,0,1-1.9,4.86Z"/><path d="M295.86,121.28l4.38-5.7c.42-.52.82-1,1.26-1.5v0h-5.24v-1.42h7.38l0,1.1-4.32,5.62c-.4.54-.8,1-1.24,1.52v0h5.66v1.4h-7.86Z"/><path d="M308.32,108.6a23.07,23.07,0,0,1-1.88,4.74l-1.12.14a28.31,28.31,0,0,0,1.18-4.7Z"/><path d="M309.18,124.72a13.54,13.54,0,0,0,2.52-8.18,13.26,13.26,0,0,0-2.52-8.12h1.36a12.74,12.74,0,0,1,2.62,8.14,13,13,0,0,1-2.62,8.16Z"/><circle class="cls-5" cx="25.83" cy="101.58" r="2.35"/><circle class="cls-5" cx="270.66" cy="2.85" r="2.35"/><circle class="cls-5" cx="221.07" cy="182.92" r="2.35"/><circle class="cls-5" cx="329.93" cy="135.75" r="2.35"/><circle class="cls-1" cx="284.17" cy="101.42" r="2.35"/><path d="M86.21,111.66v4.7h4.52v1.2H86.21v4.74H84.93v-4.74H80.41v-1.2h4.52v-4.7Z"/><path d="M91.89,121.28l4.38-5.7c.42-.52.82-1,1.26-1.5v0H92.29v-1.42h7.38l0,1.1-4.32,5.62c-.4.54-.8,1-1.24,1.52v0h5.66v1.4H91.89Z"/><path d="M5.28,108.42a13.19,13.19,0,0,0-2.52,8.18,13.48,13.48,0,0,0,2.52,8.12H3.9a12.93,12.93,0,0,1-2.62-8.12,13.2,13.2,0,0,1,2.62-8.18Z"/><path d="M15.22,115.66c0,4.42-1.64,6.86-4.52,6.86-2.54,0-4.26-2.38-4.3-6.68s1.88-6.76,4.52-6.76S15.22,111.52,15.22,115.66Zm-7.06.2c0,3.38,1,5.3,2.64,5.3,1.8,0,2.66-2.1,2.66-5.42s-.82-5.3-2.64-5.3C9.28,110.44,8.16,112.32,8.16,115.86Z"/><path d="M16.26,124.76a28.78,28.78,0,0,0,1.2-4.78l2-.2a24.38,24.38,0,0,1-1.9,4.86Z"/><path d="M29.62,115.66c0,4.42-1.64,6.86-4.52,6.86-2.54,0-4.26-2.38-4.3-6.68s1.88-6.76,4.52-6.76S29.62,111.52,29.62,115.66Zm-7.06.2c0,3.38,1,5.3,2.64,5.3,1.8,0,2.66-2.1,2.66-5.42s-.82-5.3-2.64-5.3C23.68,110.44,22.56,112.32,22.56,115.86Z"/><path d="M30.66,124.76a28.78,28.78,0,0,0,1.2-4.78l2-.2a24.38,24.38,0,0,1-1.9,4.86Z"/><path d="M44,115.66c0,4.42-1.64,6.86-4.52,6.86-2.54,0-4.26-2.38-4.3-6.68s1.88-6.76,4.52-6.76S44,111.52,44,115.66Zm-7.06.2c0,3.38,1,5.3,2.64,5.3,1.8,0,2.66-2.1,2.66-5.42s-.82-5.3-2.64-5.3C38.08,110.44,37,112.32,37,115.86Z"/><path d="M45.14,124.72a13.54,13.54,0,0,0,2.52-8.18,13.26,13.26,0,0,0-2.52-8.12H46.5a12.74,12.74,0,0,1,2.62,8.14,13,13,0,0,1-2.62,8.16Z"/></svg>