<?xml version="1.0" encoding="UTF-8" standalone="no"?>
<!-- Created with Inkscape (http://www.inkscape.org/) -->

<svg
   version="1.1"
   id="svg1"
   width="369.44"
   height="175.90668"
   viewBox="0 0 369.44 175.90668"
   sodipodi:docname="pha11f18.eps"
   xmlns:inkscape="http://www.inkscape.org/namespaces/inkscape"
   xmlns:sodipodi="http://sodipodi.sourceforge.net/DTD/sodipodi-0.dtd"
   xmlns="http://www.w3.org/2000/svg"
   xmlns:svg="http://www.w3.org/2000/svg">
  <defs
     id="defs1" />
  <sodipodi:namedview
     id="namedview1"
     pagecolor="#ffffff"
     bordercolor="#000000"
     borderopacity="0.25"
     inkscape:showpageshadow="2"
     inkscape:pageopacity="0.0"
     inkscape:pagecheckerboard="0"
     inkscape:deskcolor="#d1d1d1">
    <inkscape:page
       x="0"
       y="0"
       inkscape:label="1"
       id="page1"
       width="369.44"
       height="175.90668"
       margin="0"
       bleed="0" />
  </sodipodi:namedview>
  <g
     id="g1"
     inkscape:groupmode="layer"
     inkscape:label="1">
    <g
       id="group-R5">
      <g
         id="g2"
         aria-label="t&#10;min"
         transform="matrix(1.3333333,0,0,1.3333333,0,160.05613)">
        <path
           id="path2"
           d="M 3.046875,-3.9034281 H 1.9921875 l 0.3164063,-1.359375 -0.082031,-0.046875 -0.6796875,0.5507812 -0.2109375,0.8554688 H 0.796875 l -0.22265625,0.2695312 0.0234375,0.082031 H 1.265625 l -0.52734375,2.4726562 c -0.19921875,0.92578128 -0.0234375,1.18359378 0.1875,1.18359378 0.48046875,0 1.14843755,-0.59765625 1.45312505,-0.9609375 L 2.25,-1.0440531 c -0.2109375,0.22265623 -0.65625,0.51562498 -0.8085938,0.51562498 -0.1054687,0 -0.140625,-0.09375 -0.058594,-0.53906248 L 1.921875,-3.5518656 2.8125,-3.5870219 Z m 0,0"
           style="fill:#231f20;fill-opacity:1;fill-rule:nonzero;stroke:none" />
        <path
           id="path3"
           d="M 7.5439453,1.9998922 V 1.8475484 C 7.1923828,1.8123922 7.1455078,1.7889547 7.1455078,1.3787984 V 0.21864219 c 0,-0.5859375 -0.2929687,-0.9140625 -0.7617187,-0.9140625 -0.1640625,0 -0.3164063,0.0703125 -0.4453125,0.15234375 -0.1523438,0.09375 -0.328125,0.2109375 -0.5039063,0.33984375 -0.1171875,-0.31640625 -0.375,-0.4921875 -0.65625,-0.4921875 -0.1992187,0 -0.3398437,0.0703125 -0.4921875,0.1640625 -0.1875,0.1171875 -0.3164062,0.22265625 -0.4453125,0.3046875 v -0.48046875 c -0.2578125,0.1171875 -0.5625,0.1875 -0.8320312,0.24609375 v 0.12890625 c 0.3515625,0.0585938 0.3632812,0.09375 0.3632812,0.46875 V 1.3787984 c 0,0.3984375 -0.046875,0.4335938 -0.4453125,0.46875 v 0.1523438 h 1.265625 V 1.8475484 C 3.8994141,1.8123922 3.8525391,1.7772359 3.8525391,1.3787984 v -1.40624996 c 0.1757812,-0.15234375 0.4101562,-0.31640625 0.6445312,-0.31640625 0.375,0 0.5273438,0.24609375 0.5273438,0.69140625 V 1.3787984 c 0,0.3984375 -0.058594,0.4335938 -0.421875,0.46875 V 1.9998922 H 5.8798828 V 1.8475484 C 5.5517578,1.8123922 5.4931641,1.7772359 5.4931641,1.3905172 V 0.21864219 c 0,-0.10546875 0,-0.17578125 -0.011719,-0.24609375 0.2226563,-0.1875 0.4570313,-0.31640625 0.6679688,-0.31640625 0.3867187,0 0.5273437,0.26953125 0.5273437,0.703125 V 1.3553609 c 0,0.4335938 -0.058594,0.4570313 -0.421875,0.4921875 V 1.9998922 Z M 8.484375,-1.2110453 c 0.1757813,0 0.3046875,-0.1523438 0.3046875,-0.3164063 0,-0.1757812 -0.1289062,-0.3046875 -0.2929687,-0.3046875 -0.1640625,0 -0.3046875,0.1289063 -0.3046875,0.3046875 0,0.1640625 0.140625,0.3164063 0.2929687,0.3164063 z M 9.1875,1.9998922 V 1.8475484 C 8.8007813,1.8123922 8.765625,1.7772359 8.765625,1.3670797 v -2.07421876 c -0.2695312,0.10546875 -0.5507812,0.1875 -0.8554688,0.234375 v 0.140625 c 0.3632813,0.0585938 0.3750001,0.09375 0.3750001,0.45703125 V 1.3670797 c 0,0.4101562 -0.035156,0.4453125 -0.4218751,0.4804687 v 0.1523438 z m 3.237305,0 V 1.8475484 c -0.351563,-0.035156 -0.375,-0.058594 -0.375,-0.46875 V 0.21864219 c 0,-0.5859375 -0.304688,-0.9140625 -0.785157,-0.9140625 -0.164062,0 -0.328125,0.0703125 -0.492187,0.17578125 -0.152344,0.10546875 -0.28125,0.19921875 -0.398438,0.29296875 v -0.48046875 c -0.269531,0.1171875 -0.5507808,0.1875 -0.8320308,0.24609375 v 0.12890625 c 0.3164062,0.0585938 0.3515625,0.0820313 0.3515625,0.46875 V 1.3787984 c 0,0.3984375 -0.023437,0.421875 -0.4335938,0.46875 V 1.9998922 H 10.760742 V 1.8475484 c -0.351562,-0.035156 -0.386719,-0.058594 -0.386719,-0.46875 v -1.41796871 c 0.175782,-0.15234375 0.410157,-0.3046875 0.644532,-0.3046875 0.410156,0 0.550781,0.26953125 0.550781,0.69140625 V 1.3436422 c 0,0.421875 -0.04687,0.46875 -0.398438,0.5039062 v 0.1523438 z m 0,0"
           style="fill:#231f20;fill-opacity:1;fill-rule:nonzero;stroke:none" />
      </g>
      <path
         id="path4"
         d="M 150.387,1023.48 H 2246.02 V 2.5 H 150.387 Z"
         style="fill:none;stroke:#231f20;stroke-width:5;stroke-linecap:butt;stroke-linejoin:miter;stroke-miterlimit:10;stroke-dasharray:none;stroke-opacity:1"
         transform="matrix(0.13333333,0,0,-0.13333333,0,175.90667)" />
      <path
         id="path5"
         d="M 150.387,512.992 H 2770.77"
         style="fill:none;stroke:#231f20;stroke-width:5;stroke-linecap:butt;stroke-linejoin:miter;stroke-miterlimit:10;stroke-dasharray:none;stroke-opacity:1"
         transform="matrix(0.13333333,0,0,-0.13333333,0,175.90667)" />
      <path
         id="path6"
         d="M 2246.02,1023.48 V 2.5"
         style="fill:none;stroke:#231f20;stroke-width:5;stroke-linecap:butt;stroke-linejoin:miter;stroke-miterlimit:10;stroke-dasharray:none;stroke-opacity:1"
         transform="matrix(0.13333333,0,0,-0.13333333,0,175.90667)" />
      <path
         id="path7"
         d="M 1198.21,1023.48 V 2.5"
         style="fill:none;stroke:#231f20;stroke-width:5;stroke-linecap:butt;stroke-linejoin:miter;stroke-miterlimit:10;stroke-dasharray:none;stroke-opacity:1"
         transform="matrix(0.13333333,0,0,-0.13333333,0,175.90667)" />
      <path
         id="path8"
         d="M 4.8996719,2.515625e-4 V -0.46849844 H 4.1965469 V -2.6364672 c 0,-0.3164062 -0.058594,-0.6914062 -0.3164063,-0.9023437 -0.1757812,-0.1523438 -0.4335937,-0.2578125 -0.84375,-0.2578125 -0.5859375,0 -1.1601562,0.2578125 -1.59375,0.6445312 V -3.6911547 H 0.28248437 v 0.4804688 h 0.703125 v 2.74218746 h -0.703125 V 2.515625e-4 H 2.1457656 V -0.46849844 H 1.4426406 V -2.6364672 c 0.3632813,-0.3867187 0.9375,-0.6914062 1.453125,-0.6914062 0.3632813,0 0.84375,0.1054687 0.84375,0.6914062 v 2.16796876 H 3.0481094 V 2.515625e-4 Z M 9.6574844,-0.43334219 9.5051406,-0.87865469 c -0.65625,0.36328125 -1.3242187,0.52734375 -1.7226562,0.52734375 -0.3984375,0 -0.7851563,-0.0585938 -1.1015625,-0.2578125 -0.3046875,-0.19921875 -0.5625,-0.65624996 -0.5625,-1.10156246 v -0.070312 h 3.4804687 c 0,-1.078125 -0.5625,-2.015625 -1.9335937,-2.015625 -1.125,0 -2.0273438,0.7851562 -2.0273438,1.9570312 0,0.99609376 0.5859375,1.94531251 2.0742188,1.94531251 0.6796875,0 1.3828125,-0.234375 1.9453125,-0.539063 z m -0.5625,-1.81640621 H 6.1301406 c 0.070312,-0.5039063 0.5742188,-1.0664063 1.5351563,-1.0664063 1.171875,0 1.4296875,0.8554688 1.4296875,1.0664063 z M 15.121352,2.515625e-4 V -0.46849844 H 14.47682 l -1.453125,-1.46484376 1.242188,-1.2890625 h 0.644531 v -0.46875 h -1.570312 v 0.46875 h 0.339843 l -0.9375,0.984375 -0.949218,-0.984375 h 0.421875 v -0.46875 H 10.53932 v 0.46875 h 0.667969 l 1.253906,1.2773438 -1.441406,1.47656246 H 10.386977 V 2.515625e-4 H 12.13307 V -0.46849844 h -0.539062 l 1.160156,-1.17187496 1.136719,1.17187496 H 13.363539 V 2.515625e-4 Z m 4.549804,-0.3750000025 -0.04687,-0.45703125 c -0.445312,0.1640625 -1.078125,0.46875 -1.652344,0.46875 -0.234375,0 -0.457031,-0.0351563 -0.679687,-0.15234375 -0.246094,-0.12890625 -0.316406,-0.43359375 -0.316406,-0.70312496 v -2.0039063 h 2.191406 v -0.46875 h -2.191406 v -1.0898437 h -0.457032 v 1.0898437 h -0.609375 v 0.46875 h 0.609375 v 2.2148438 c 0,0.96093746 0.914063,1.11328121 1.359375,1.11328121 0.621094,0 1.265625,-0.24609375 1.792969,-0.48046875 z m 5.463867,-0.140625 -0.210937,-0.3984375 c -0.445313,0.328125 -1.019531,0.5625 -1.59375,0.5625 -1.066406,0 -1.898438,-0.78515626 -1.898438,-2.13281246 0,-1.5703125 1.171875,-2.015625 1.804688,-2.015625 0.550781,0 1.042969,0.2578125 1.417969,0.65625 v 0.6914062 h 0.457031 v -1.8046875 h -0.457031 v 0.515625 l -0.257813,-0.1640625 c -0.351562,-0.234375 -0.761719,-0.3515625 -1.21875,-0.3515625 -1.335937,0 -2.214844,1.1367188 -2.214844,2.4375 0,1.3945313 0.773438,2.62500001 2.332032,2.62500001 0.667968,0 1.324218,-0.24609375 1.839843,-0.62109375 z m 5.194336,-2.53124996 c -0.02344,-0.1640625 -0.05859,-0.3164063 -0.152343,-0.4570313 -0.140625,-0.2226562 -0.363282,-0.2929687 -0.621094,-0.2929687 -0.808594,0 -1.347656,0.6328125 -1.898438,1.0898437 v -0.984375 h -1.523437 v 0.46875 h 1.054687 v 2.75390626 H 26.134047 V 2.515625e-4 h 3.175781 V -0.46849844 H 27.657484 V -2.1794359 c 0.914063,-0.8789063 1.300782,-1.1601563 1.746094,-1.1601563 0.210938,0 0.410156,0.046875 0.46875,0.3398438 z m 4.983399,1.2070312 c 0,-0.75 -0.492188,-1.9570312 -2.121094,-1.9570312 -1.195312,0 -2.144531,0.7382812 -2.144531,1.9570312 0,1.12500001 0.832031,1.94531251 2.15625,1.94531251 1.289062,0 2.109375,-0.83203125 2.109375,-1.94531251 z m -0.46875,0 c 0,0.85546876 -0.679688,1.47656251 -1.652344,1.47656251 -1.148437,0 -1.675781,-0.78515621 -1.675781,-1.47656251 0,-0.7851562 0.621094,-1.4882812 1.664062,-1.4882812 1.371094,0 1.664063,1.03125 1.664063,1.4882812 z m 5.241211,0.7265625 c 0,-0.703125 -0.503907,-0.8789062 -1.089844,-0.9257812 -0.585938,-0.046875 -1.359375,-0.011719 -1.757813,-0.2578125 -0.128906,-0.09375 -0.222656,-0.2460938 -0.222656,-0.3984375 0,-0.5273438 0.75,-0.6328125 1.113281,-0.6328125 0.46875,0 0.9375,0.140625 1.300782,0.375 v 0.4921875 H 39.886 v -1.3359375 h -0.457031 v 0.3398437 c -0.386719,-0.234375 -0.84375,-0.3398437 -1.324219,-0.3398437 -0.9375,0 -1.546875,0.4453125 -1.546875,1.1835937 0,0.2109375 0.05859,0.4335938 0.222656,0.5859375 0.457031,0.4101563 1.101563,0.375 1.734375,0.421875 0.375,0.035156 0.820313,-0.023437 1.042969,0.2929688 0.04687,0.058594 0.05859,0.1992187 0.05859,0.2460937 0,0.63281251 -0.9375,0.70312501 -1.242188,0.70312501 -0.539062,0 -1.007812,-0.1640625 -1.417969,-0.48046875 V -1.3474047 h -0.46875 v 1.45312501 h 0.46875 v -0.38671875 c 0.421875,0.19921875 0.832032,0.38671875 1.511719,0.38671875 0.949219,0 1.617188,-0.4921875 1.617188,-1.21875001 z m 5.100586,0 c 0,-0.703125 -0.503907,-0.8789062 -1.089844,-0.9257812 -0.585938,-0.046875 -1.359375,-0.011719 -1.757813,-0.2578125 -0.128906,-0.09375 -0.222656,-0.2460938 -0.222656,-0.3984375 0,-0.5273438 0.75,-0.6328125 1.113281,-0.6328125 0.46875,0 0.9375,0.140625 1.300782,0.375 v 0.4921875 h 0.457031 v -1.3359375 h -0.457031 v 0.3398437 c -0.386719,-0.234375 -0.84375,-0.3398437 -1.324219,-0.3398437 -0.9375,0 -1.546875,0.4453125 -1.546875,1.1835937 0,0.2109375 0.05859,0.4335938 0.222656,0.5859375 0.457031,0.4101563 1.101563,0.375 1.734375,0.421875 0.375,0.035156 0.820313,-0.023437 1.042969,0.2929688 0.04687,0.058594 0.05859,0.1992187 0.05859,0.2460937 0,0.63281251 -0.9375,0.70312501 -1.242188,0.70312501 -0.539062,0 -1.007812,-0.1640625 -1.417969,-0.48046875 V -1.3474047 h -0.46875 v 1.45312501 h 0.46875 v -0.38671875 c 0.421875,0.19921875 0.832032,0.38671875 1.511719,0.38671875 0.949219,0 1.617188,-0.4921875 1.617188,-1.21875001 z m 3.539062,-3.3984375 v -1.0429687 h -0.597656 v 1.0429687 z M 50.20143,2.515625e-4 V -0.46849844 H 48.724867 V -3.6911547 h -1.757812 v 0.46875 h 1.300781 v 2.75390626 h -1.5 V 2.515625e-4 Z m 5.698242,0 V -0.46849844 H 55.196547 V -2.6364672 c 0,-0.3164062 -0.05859,-0.6914062 -0.316406,-0.9023437 -0.175782,-0.1523438 -0.433594,-0.2578125 -0.84375,-0.2578125 -0.585938,0 -1.160157,0.2578125 -1.59375,0.6445312 v -0.5390625 h -1.160157 v 0.4804688 h 0.703125 v 2.74218746 H 51.282484 V 2.515625e-4 h 1.863282 V -0.46849844 H 52.442641 V -2.6364672 c 0.363281,-0.3867187 0.9375,-0.6914062 1.453125,-0.6914062 0.363281,0 0.84375,0.1054687 0.84375,0.6914062 v 2.16796876 H 54.048109 V 2.515625e-4 Z M 60.906508,-3.2224047 v -0.46875 h -0.984375 v 0.4921875 c -0.292969,-0.3164062 -0.867188,-0.5976562 -1.546875,-0.5976562 -1.300781,0 -1.980469,0.9609375 -1.980469,1.7695312 0,0.8203125 0.632813,1.73437501 1.980469,1.73437501 0.550781,0 1.195312,-0.2109375 1.546875,-0.62109375 v 1.0546875 c 0,0.796875 -0.433594,1.05468754 -1.453125,1.05468754 -0.585938,0 -1.148438,-0.1640625 -1.59375,-0.25781254 l -0.09375,0.45703124 c 0.445312,0.1054688 1.160156,0.2578125 1.875,0.2578125 1.054687,0 1.722656,-0.4804687 1.722656,-1.40624999 V -3.2224047 Z m -1.019531,1.171875 c 0,0.7382813 -0.65625,1.28906251 -1.511719,1.28906251 -0.867188,0 -1.511719,-0.58593751 -1.511719,-1.26562501 0,-0.7734375 0.714844,-1.3007812 1.535156,-1.3007812 1.183594,0 1.488282,0.8085937 1.488282,1.2773437 z m 6.08496,-1.1015625 v -1.7109375 h -4.371093 v 1.7109375 h 0.46875 v -1.2421875 h 1.488281 v 3.92578126 H 62.514906 V 2.515625e-4 h 2.554688 V -0.46849844 H 64.026625 V -4.3942797 h 1.488281 v 1.2421875 z m 4.491211,3.97265626 v -0.46875 H 69.396742 V -5.0388109 h 1.066406 v -0.46875 h -1.535156 v 6.32812496 z m 5.15918,-3.35156246 c 0,-0.3867188 -0.03516,-1.1367188 -0.375,-1.6875 -0.292969,-0.5039063 -0.667969,-0.7382813 -1.230469,-0.7382813 -0.175781,0 -0.339843,0.023437 -0.492187,0.058594 -0.714844,0.2226562 -1.019531,0.984375 -1.113281,1.6875 -0.03516,0.2578125 -0.05859,0.6445312 -0.05859,0.75 0,0.8203125 0.175781,2.56640621 1.628906,2.56640621 1.582031,0 1.640625,-1.83984371 1.640625,-2.63671871 z m -0.46875,0.035156 v 0.070312 c 0,0.8671875 -0.140625,2.06250001 -1.136719,2.06250001 -0.75,0 -0.984375,-0.64453121 -1.03125,-0.84375001 -0.105468,-0.3867187 -0.164062,-0.8203125 -0.164062,-1.2421875 0,-0.9726562 0.234375,-2.0507812 1.160156,-2.0507812 0.375,0 0.714844,0.1992187 0.890625,0.5273437 0.222656,0.4335938 0.28125,0.9609375 0.28125,1.476563 z m 3.834961,3.31640626 V -5.5075609 h -1.535156 v 0.46875 h 1.078125 v 5.39062496 h -1.078125 v 0.46875 z M 12.563734,-34.461662 v -0.46875 h -0.703125 v -2.167969 c 0,-0.316406 -0.05859,-0.691406 -0.316406,-0.902344 -0.175781,-0.152344 -0.433594,-0.257812 -0.84375,-0.257812 -0.585937,0 -1.1601561,0.257812 -1.5937499,0.644531 v -0.539063 H 7.9465469 v 0.480469 h 0.703125 v 2.742188 h -0.703125 v 0.46875 h 1.8632812 v -0.46875 h -0.703125 v -2.167969 c 0.3632813,-0.386719 0.9374999,-0.691406 1.4531249,-0.691406 0.363281,0 0.84375,0.105468 0.84375,0.691406 v 2.167969 h -0.691406 v 0.46875 z m 4.760743,-0.433594 -0.152344,-0.445313 c -0.65625,0.363282 -1.324219,0.527344 -1.722656,0.527344 -0.398438,0 -0.785157,-0.05859 -1.101563,-0.257812 -0.304687,-0.199219 -0.5625,-0.65625 -0.5625,-1.101563 v -0.07031 h 3.480469 c 0,-1.078125 -0.5625,-2.015625 -1.933594,-2.015625 -1.125,0 -2.027344,0.785156 -2.027344,1.957031 0,0.996094 0.585938,1.945312 2.074219,1.945312 0.679688,0 1.382813,-0.234375 1.945313,-0.539062 z m -0.5625,-1.816406 h -2.964844 c 0.07031,-0.503907 0.574219,-1.066407 1.535156,-1.066407 1.171875,0 1.429688,0.855469 1.429688,1.066407 z m 6.026367,2.25 v -0.46875 h -0.644532 l -1.453125,-1.464844 1.242188,-1.289063 h 0.644531 v -0.46875 h -1.570312 v 0.46875 h 0.339843 l -0.9375,0.984375 -0.949218,-0.984375 h 0.421875 v -0.46875 h -1.675782 v 0.46875 h 0.667969 l 1.253906,1.277344 -1.441406,1.476563 h -0.632812 v 0.46875 h 1.746093 v -0.46875 H 19.261 l 1.160156,-1.171875 1.136719,1.171875 h -0.527344 v 0.46875 z m 4.546875,-0.375 -0.04687,-0.457032 c -0.445313,0.164063 -1.078125,0.46875 -1.652344,0.46875 -0.234375,0 -0.457031,-0.03516 -0.679688,-0.152343 -0.246093,-0.128907 -0.316406,-0.433594 -0.316406,-0.703125 v -2.003907 h 2.191406 v -0.46875 h -2.191406 v -1.089843 H 24.18288 v 1.089843 H 23.5735 v 0.46875 h 0.609375 v 2.214844 c 0,0.960938 0.914062,1.113281 1.359375,1.113281 0.621094,0 1.265625,-0.246093 1.792969,-0.480468 z m 5.463867,-0.140625 -0.210938,-0.398438 c -0.445312,0.328125 -1.019531,0.5625 -1.59375,0.5625 -1.066406,0 -1.898437,-0.785156 -1.898437,-2.132812 0,-1.570313 1.171875,-2.015625 1.804687,-2.015625 0.550782,0 1.042969,0.257812 1.417969,0.65625 v 0.691406 h 0.457031 v -1.804688 h -0.457031 v 0.515625 l -0.257812,-0.164062 c -0.351563,-0.234375 -0.761719,-0.351563 -1.21875,-0.351563 -1.335938,0 -2.214844,1.136719 -2.214844,2.4375 0,1.394532 0.773437,2.625 2.332031,2.625 0.667969,0 1.324219,-0.246093 1.839844,-0.621093 z m 5.194336,-2.53125 c -0.02344,-0.164063 -0.05859,-0.316407 -0.152344,-0.457032 -0.140625,-0.222656 -0.363281,-0.292968 -0.621094,-0.292968 -0.808593,0 -1.347656,0.632812 -1.898437,1.089843 v -0.984375 h -1.523438 v 0.46875 h 1.054688 v 2.753907 h -1.054688 v 0.46875 h 3.175782 v -0.46875 h -1.652344 v -1.710938 c 0.914062,-0.878906 1.300781,-1.160156 1.746094,-1.160156 0.210937,0 0.410156,0.04687 0.46875,0.339844 z m 4.983398,1.207031 c 0,-0.75 -0.492187,-1.957031 -2.121093,-1.957031 -1.195313,0 -2.144532,0.738281 -2.144532,1.957031 0,1.125 0.832032,1.945312 2.15625,1.945312 1.289063,0 2.109375,-0.832031 2.109375,-1.945312 z m -0.46875,0 c 0,0.855469 -0.679687,1.476562 -1.652343,1.476562 -1.148438,0 -1.675782,-0.785156 -1.675782,-1.476562 0,-0.785156 0.621094,-1.488281 1.664063,-1.488281 1.371094,0 1.664062,1.03125 1.664062,1.488281 z m 5.241211,0.726562 c 0,-0.703125 -0.503906,-0.878906 -1.089844,-0.925781 -0.585937,-0.04687 -1.359375,-0.01172 -1.757812,-0.257812 -0.128906,-0.09375 -0.222656,-0.246094 -0.222656,-0.398438 0,-0.527344 0.75,-0.632812 1.113281,-0.632812 0.46875,0 0.9375,0.140625 1.300781,0.375 v 0.492187 h 0.457031 v -1.335937 h -0.457031 v 0.339843 c -0.386719,-0.234375 -0.84375,-0.339843 -1.324219,-0.339843 -0.9375,0 -1.546875,0.445312 -1.546875,1.183593 0,0.210938 0.05859,0.433594 0.222657,0.585938 0.457031,0.410156 1.101562,0.375 1.734375,0.421875 0.375,0.03516 0.820312,-0.02344 1.042968,0.292969 0.04687,0.05859 0.05859,0.199218 0.05859,0.246093 0,0.632813 -0.9375,0.703125 -1.242187,0.703125 -0.539063,0 -1.007813,-0.164062 -1.417969,-0.480468 v -0.503907 h -0.46875 v 1.453125 h 0.46875 v -0.386718 c 0.421875,0.199218 0.832031,0.386718 1.511719,0.386718 0.949218,0 1.617187,-0.492187 1.617187,-1.21875 z m 5.100586,0 c 0,-0.703125 -0.503906,-0.878906 -1.089844,-0.925781 -0.585937,-0.04687 -1.359375,-0.01172 -1.757812,-0.257812 -0.128906,-0.09375 -0.222656,-0.246094 -0.222656,-0.398438 0,-0.527344 0.75,-0.632812 1.113281,-0.632812 0.46875,0 0.9375,0.140625 1.300781,0.375 v 0.492187 h 0.457031 v -1.335937 h -0.457031 v 0.339843 c -0.386719,-0.234375 -0.84375,-0.339843 -1.324219,-0.339843 -0.9375,0 -1.546875,0.445312 -1.546875,1.183593 0,0.210938 0.05859,0.433594 0.222657,0.585938 0.457031,0.410156 1.101562,0.375 1.734375,0.421875 0.375,0.03516 0.820312,-0.02344 1.042968,0.292969 0.04687,0.05859 0.05859,0.199218 0.05859,0.246093 0,0.632813 -0.9375,0.703125 -1.242187,0.703125 -0.539063,0 -1.007813,-0.164062 -1.417969,-0.480468 v -0.503907 h -0.46875 v 1.453125 h 0.46875 v -0.386718 c 0.421875,0.199218 0.832031,0.386718 1.511719,0.386718 0.949218,0 1.617187,-0.492187 1.617187,-1.21875 z m 3.541992,-3.398437 v -1.042969 h -0.597656 v 1.042969 z m 1.476563,4.511719 v -0.46875 h -1.476563 v -3.222657 h -1.757812 v 0.46875 h 1.300781 v 2.753907 h -1.5 v 0.46875 z m 5.695312,0 v -0.46875 h -0.703125 v -2.167969 c 0,-0.316406 -0.05859,-0.691406 -0.316406,-0.902344 -0.175781,-0.152344 -0.433594,-0.257812 -0.84375,-0.257812 -0.585937,0 -1.160156,0.257812 -1.59375,0.644531 v -0.539063 h -1.160156 v 0.480469 h 0.703125 v 2.742188 h -0.703125 v 0.46875 h 1.863281 v -0.46875 h -0.703125 v -2.167969 c 0.363281,-0.386719 0.9375,-0.691406 1.453125,-0.691406 0.363281,0 0.84375,0.105468 0.84375,0.691406 v 2.167969 h -0.691406 v 0.46875 z m 5.006836,-3.222657 v -0.46875 h -0.984375 v 0.492188 c -0.292968,-0.316406 -0.867187,-0.597656 -1.546875,-0.597656 -1.300781,0 -1.980468,0.960937 -1.980468,1.769531 0,0.820312 0.632812,1.734375 1.980468,1.734375 0.550782,0 1.195313,-0.210938 1.546875,-0.621094 v 1.054688 c 0,0.796875 -0.433593,1.054687 -1.453125,1.054687 -0.585937,0 -1.148437,-0.164062 -1.59375,-0.257812 l -0.09375,0.457031 c 0.445313,0.105469 1.160157,0.257812 1.875,0.257812 1.054688,0 1.722657,-0.480468 1.722657,-1.40625 v -3.46875 z m -1.019531,1.171875 c 0,0.738282 -0.65625,1.289063 -1.511719,1.289063 -0.867187,0 -1.511718,-0.585938 -1.511718,-1.265625 0,-0.773438 0.714843,-1.300781 1.535156,-1.300781 1.183594,0 1.488281,0.808593 1.488281,1.277343 z M 73.636,-37.614006 v -1.710938 h -4.371094 v 1.710938 h 0.46875 v -1.242188 h 1.488281 v 3.925782 h -1.042968 v 0.46875 h 2.554687 v -0.46875 h -1.042969 v -3.925782 h 1.488282 v 1.242188 z m 4.491211,3.972656 v -0.46875 h -1.066406 v -5.390625 h 1.066406 v -0.46875 h -1.535156 v 6.328125 z m 5.25293,-0.820312 v -0.46875 h -1.453125 v -4.488282 l -1.96875,0.433594 v 0.457031 l 1.5,-0.304687 v 3.902344 h -1.5 v 0.46875 z m 3.272461,0.820312 v -6.328125 h -1.535157 v 0.46875 h 1.078125 v 5.390625 h -1.078125 v 0.46875 z M -67.598375,14.856697 v -0.46875 h -0.679688 V 9.5246656 h -1.617187 v 0.46875 h 1.160156 v 1.7226564 c -0.421875,-0.515625 -0.996094,-0.65625 -1.453125,-0.65625 -1.148437,0 -1.933594,0.84375 -1.933594,1.945312 0,0.984375 0.65625,1.957032 1.898438,1.957032 0.597656,0 1.148437,-0.257813 1.488281,-0.75 v 0.644531 z m -1.183594,-1.886719 c 0,0.902344 -0.585937,1.523438 -1.441406,1.523438 -0.925781,0 -1.429688,-0.75 -1.429688,-1.488282 0,-0.785156 0.585938,-1.476562 1.429688,-1.476562 1.148437,0 1.441406,0.855469 1.441406,1.441406 z m 5.885742,1.453125 -0.152343,-0.445312 c -0.65625,0.363281 -1.324219,0.527343 -1.722657,0.527343 -0.398437,0 -0.785156,-0.05859 -1.101562,-0.257812 -0.304688,-0.199219 -0.5625,-0.65625 -0.5625,-1.101563 v -0.07031 h 3.480469 c 0,-1.078125 -0.5625,-2.015625 -1.933594,-2.015625 -1.125,0 -2.027344,0.785156 -2.027344,1.957031 0,0.996094 0.585938,1.945313 2.074219,1.945313 0.679687,0 1.382812,-0.234375 1.945312,-0.539063 z m -0.5625,-1.816406 h -2.964843 c 0.07031,-0.503906 0.574218,-1.066406 1.535156,-1.066406 1.171875,0 1.429687,0.855468 1.429687,1.066406 z m 5.358399,2.25 v -0.46875 h -1.476563 V 9.5246656 h -1.910156 v 0.46875 h 1.441406 v 4.3945314 h -1.488281 v 0.46875 z m 5.217773,-0.375 -0.04687,-0.457031 c -0.445312,0.164062 -1.078125,0.46875 -1.652343,0.46875 -0.234375,0 -0.457032,-0.03516 -0.679688,-0.152344 -0.246094,-0.128906 -0.316406,-0.433594 -0.316406,-0.703125 v -2.003906 h 2.191406 v -0.46875 h -2.191406 v -1.089844 h -0.457031 v 1.089844 h -0.609375 v 0.46875 h 0.609375 v 2.214843 c 0,0.960938 0.914062,1.113282 1.359375,1.113282 0.621093,0 1.265625,-0.246094 1.792968,-0.480469 z m 5.414063,0.375 v -0.46875 h -0.691406 v -2.050781 c 0,-0.222657 -0.02344,-0.457032 -0.152344,-0.691407 -0.175781,-0.328125 -0.597656,-0.585937 -1.324219,-0.585937 -0.574219,0 -1.160156,0.164062 -1.652344,0.375 l 0.117188,0.457031 c 0.269531,-0.128906 0.878906,-0.351562 1.453125,-0.351562 0.292969,0 0.574219,0.02344 0.820312,0.175781 0.222657,0.128906 0.28125,0.433594 0.28125,0.714844 v 0.257812 c -0.375,-0.05859 -0.796875,-0.117187 -1.207031,-0.117187 -1.394531,0 -1.839844,0.738281 -1.839844,1.242187 0,0.550781 0.480469,1.148438 1.347657,1.148438 0.644531,0 1.230468,-0.363282 1.699218,-0.820313 v 0.714844 z m -1.148438,-1.277344 c -0.433593,0.515625 -0.996093,0.914063 -1.6875,0.914063 -0.515625,0 -0.878906,-0.351563 -0.878906,-0.667969 0,-0.234375 0.128906,-0.421875 0.304688,-0.539063 0.316406,-0.222656 0.773437,-0.234375 1.171875,-0.234375 0.375,0 0.726562,0.04687 1.089843,0.105469 z m 6.331055,-1.875 V 9.9934156 h -4.371094 v 1.7109374 h 0.46875 v -1.242187 h 1.488281 v 3.925781 h -1.042968 v 0.46875 h 2.554687 v -0.46875 h -1.042969 v -3.925781 h 1.488282 v 1.242187 z m 4.491211,3.972656 v -0.46875 H -38.86107 V 9.8176344 h 1.066406 v -0.46875 h -1.535156 v 6.3281246 z m 5.15918,-3.351562 c 0,-0.386719 -0.03516,-1.136719 -0.375,-1.6875 -0.292969,-0.503906 -0.667969,-0.7382814 -1.230469,-0.7382814 -0.175781,0 -0.339844,0.023437 -0.492188,0.058594 -0.714843,0.2226564 -1.019531,0.9843744 -1.113281,1.6874994 -0.03516,0.257813 -0.05859,0.644532 -0.05859,0.75 0,0.820313 0.175782,2.566407 1.628907,2.566407 1.582031,0 1.640625,-1.839844 1.640625,-2.636719 z m -0.46875,0.03516 v 0.07031 c 0,0.867187 -0.140625,2.0625 -1.136719,2.0625 -0.75,0 -0.984375,-0.644532 -1.03125,-0.84375 -0.105469,-0.386719 -0.164063,-0.820313 -0.164063,-1.242188 0,-0.972656 0.234375,-2.050781 1.160157,-2.050781 0.375,0 0.714843,0.199219 0.890625,0.527344 0.222656,0.433593 0.28125,0.960937 0.28125,1.476562 z m 3.834961,3.316406 V 9.3488844 h -1.535157 v 0.46875 h 1.078125 v 5.3906246 h -1.078125 v 0.46875 z m 0,0"
         style="fill:#231f20;fill-opacity:1;fill-rule:nonzero;stroke:none"
         aria-label="nextCrossingT[0]&#10;nextCrossingT[1]&#10;deltaT[0]"
         transform="matrix(1.3333333,0,0,1.3333333,166.31867,144.48013)" />
      <path
         id="path9"
         d="M 39.1563,43.8008 2549.32,616.961"
         style="fill:none;stroke:#231f20;stroke-width:7.5;stroke-linecap:butt;stroke-linejoin:miter;stroke-miterlimit:10;stroke-dasharray:none;stroke-opacity:1"
         transform="matrix(0.13333333,0,0,-0.13333333,0,175.90667)" />
      <path
         id="path10"
         d="m 2536.2,613.965 -22.04,22.683 0.77,0.801 46.84,-7.25 c 15.73,0.121 31.44,0.25 47.16,0.371 -14.22,-6.711 -28.43,-13.418 -42.65,-20.132 l -39.06,-26.868 -0.99,0.243 9.97,30.152"
         style="fill:#231f20;fill-opacity:1;fill-rule:nonzero;stroke:none"
         transform="matrix(0.13333333,0,0,-0.13333333,0,175.90667)" />
      <path
         id="path11"
         d="M 2246.02,1319.34 V 2.5"
         style="fill:none;stroke:#231f20;stroke-width:5;stroke-linecap:butt;stroke-linejoin:miter;stroke-miterlimit:10;stroke-dasharray:none;stroke-opacity:1"
         transform="matrix(0.13333333,0,0,-0.13333333,0,175.90667)" />
      <path
         id="path12"
         d="M 150.387,1023.48 H 2246.02 V 2.5 H 150.387 Z"
         style="fill:none;stroke:#231f20;stroke-width:5;stroke-linecap:butt;stroke-linejoin:miter;stroke-miterlimit:10;stroke-dasharray:none;stroke-opacity:1"
         transform="matrix(0.13333333,0,0,-0.13333333,0,175.90667)" />
      <path
         id="path13"
         d="M 150.387,512.992 H 2770.77"
         style="fill:none;stroke:#231f20;stroke-width:5;stroke-linecap:butt;stroke-linejoin:miter;stroke-miterlimit:10;stroke-dasharray:none;stroke-opacity:1"
         transform="matrix(0.13333333,0,0,-0.13333333,0,175.90667)" />
      <path
         id="path14"
         d="M 2246.02,1023.48 V 2.5"
         style="fill:none;stroke:#231f20;stroke-width:5;stroke-linecap:butt;stroke-linejoin:miter;stroke-miterlimit:10;stroke-dasharray:none;stroke-opacity:1"
         transform="matrix(0.13333333,0,0,-0.13333333,0,175.90667)" />
      <path
         id="path15"
         d="M 1198.21,1023.48 V 2.5"
         style="fill:none;stroke:#231f20;stroke-width:5;stroke-linecap:butt;stroke-linejoin:miter;stroke-miterlimit:10;stroke-dasharray:none;stroke-opacity:1"
         transform="matrix(0.13333333,0,0,-0.13333333,0,175.90667)" />
      <path
         id="path16"
         d="M 150.387,1023.48 H 2770.77"
         style="fill:none;stroke:#231f20;stroke-width:5;stroke-linecap:butt;stroke-linejoin:miter;stroke-miterlimit:10;stroke-dasharray:none;stroke-opacity:1"
         transform="matrix(0.13333333,0,0,-0.13333333,0,175.90667)" />
      <path
         id="path17"
         d="M 150.387,2.5 H 2770.77"
         style="fill:none;stroke:#231f20;stroke-width:5;stroke-linecap:butt;stroke-linejoin:miter;stroke-miterlimit:10;stroke-dasharray:none;stroke-opacity:1"
         transform="matrix(0.13333333,0,0,-0.13333333,0,175.90667)" />
      <path
         id="path18"
         d="m 132.887,69.6406 c 0,9.6602 7.832,17.5 17.5,17.5 9.656,0 17.5,-7.8398 17.5,-17.5 0,-9.6718 -7.844,-17.5 -17.5,-17.5 -9.668,0 -17.5,7.8282 -17.5,17.5"
         style="fill:#231f20;fill-opacity:1;fill-rule:nonzero;stroke:none"
         transform="matrix(0.13333333,0,0,-0.13333333,0,175.90667)" />
      <path
         id="path19"
         d="m 1180.71,308.461 c 0,9.66 7.83,17.5 17.5,17.5 9.66,0 17.5,-7.84 17.5,-17.5 0,-9.672 -7.84,-17.5 -17.5,-17.5 -9.67,0 -17.5,7.828 -17.5,17.5"
         style="fill:#231f20;fill-opacity:1;fill-rule:nonzero;stroke:none"
         transform="matrix(0.13333333,0,0,-0.13333333,0,175.90667)" />
      <path
         id="path20"
         d="m 2076.5,512.992 c 0,9.668 7.84,17.5 17.5,17.5 9.66,0 17.5,-7.832 17.5,-17.5 0,-9.656 -7.84,-17.5 -17.5,-17.5 -9.66,0 -17.5,7.844 -17.5,17.5"
         style="fill:#231f20;fill-opacity:1;fill-rule:nonzero;stroke:none"
         transform="matrix(0.13333333,0,0,-0.13333333,0,175.90667)" />
      <path
         id="path21"
         d="M 1198.21,1319.34 V 2.5"
         style="fill:none;stroke:#231f20;stroke-width:5;stroke-linecap:butt;stroke-linejoin:miter;stroke-miterlimit:10;stroke-dasharray:none;stroke-opacity:1"
         transform="matrix(0.13333333,0,0,-0.13333333,0,175.90667)" />
    </g>
  </g>
</svg>
