<?xml version="1.0" encoding="UTF-8" standalone="no"?>
<!-- Created with Inkscape (http://www.inkscape.org/) -->

<svg
   version="1.1"
   id="svg1"
   width="216.78667"
   height="67.813332"
   viewBox="0 0 216.78667 67.813332"
   sodipodi:docname="pha11f17.eps"
   xmlns:inkscape="http://www.inkscape.org/namespaces/inkscape"
   xmlns:sodipodi="http://sodipodi.sourceforge.net/DTD/sodipodi-0.dtd"
   xmlns="http://www.w3.org/2000/svg"
   xmlns:svg="http://www.w3.org/2000/svg">
  <defs
     id="defs1" />
  <sodipodi:namedview
     id="namedview1"
     pagecolor="#ffffff"
     bordercolor="#000000"
     borderopacity="0.25"
     inkscape:showpageshadow="2"
     inkscape:pageopacity="0.0"
     inkscape:pagecheckerboard="0"
     inkscape:deskcolor="#d1d1d1">
    <inkscape:page
       x="0"
       y="0"
       inkscape:label="1"
       id="page1"
       width="216.78667"
       height="67.813332"
       margin="0"
       bleed="0" />
  </sodipodi:namedview>
  <g
     id="g1"
     inkscape:groupmode="layer"
     inkscape:label="1">
    <g
       id="group-R5">
      <g
         id="g2"
         aria-label="t&#10;0&#10;t&#10;1&#10;σ&#10;t&#10;σ&#10;maj"
         transform="matrix(1.3333333,0,0,1.3333333,17.362533,9.8972)">
        <path
           id="path2"
           d="M 3.0474359,-3.9014156 H 1.9927484 l 0.3164063,-1.359375 -0.082031,-0.046875 -0.6796875,0.5507812 -0.2109375,0.8554688 H 0.79743594 l -0.22265625,0.2695312 0.0234375,0.082031 H 1.2661859 l -0.52734371,2.4726562 c -0.19921875,0.92578128 -0.0234375,1.18359378 0.1875,1.18359378 0.48046871,0 1.14843751,-0.59765625 1.45312501,-0.9609375 L 2.2505609,-1.0420406 c -0.2109375,0.22265623 -0.65625,0.51562498 -0.8085937,0.51562498 -0.1054688,0 -0.140625,-0.09375 -0.058594,-0.53906248 l 0.5390625,-2.484375 0.890625,-0.035156 z m 0,0"
           style="fill:#231f20;fill-opacity:1;fill-rule:nonzero;stroke:none" />
        <path
           id="path3"
           d="m 4.2046625,-1.8096187 c -0.9023437,0 -1.2304687,1.0664062 -1.2304687,1.94531245 0,0.94921875 0.328125,1.93359375 1.2304687,1.93359375 0.9023438,0 1.21875,-1.0664062 1.21875,-1.9453125 0,-0.92578125 -0.3164062,-1.9335937 -1.21875,-1.9335937 z M 4.1929438,-1.6104 c 0.5390625,0 0.6914062,0.890625 0.6914062,1.734375 0,0.84375 -0.140625,1.7460938 -0.6796875,1.7460938 -0.5273437,0 -0.703125,-0.91406255 -0.703125,-1.7460938 0,-0.83203125 0.1523438,-1.734375 0.6914063,-1.734375 z m 0,0"
           style="fill:#231f20;fill-opacity:1;fill-rule:nonzero;stroke:none" />
        <path
           id="path4"
           d="m 40.482983,-3.9014156 h -1.054688 l 0.316407,-1.359375 -0.08203,-0.046875 -0.679687,0.5507812 -0.210938,0.8554688 h -0.539062 l -0.222656,0.2695312 0.02344,0.082031 h 0.667969 l -0.527344,2.4726562 c -0.199219,0.92578128 -0.02344,1.18359378 0.1875,1.18359378 0.480469,0 1.148438,-0.59765625 1.453125,-0.9609375 L 39.686108,-1.0420406 c -0.210938,0.22265623 -0.65625,0.51562498 -0.808594,0.51562498 -0.105469,0 -0.140625,-0.09375 -0.05859,-0.53906248 l 0.539063,-2.484375 0.890625,-0.035156 z m 0,0"
           style="fill:#231f20;fill-opacity:1;fill-rule:nonzero;stroke:none" />
        <path
           id="path5"
           d="M 42.507397,1.998975 V 1.8349125 c -0.550781,-0.035156 -0.585938,-0.09375 -0.585938,-0.515625 v -3.1289062 c -0.328125,0.1289062 -0.679687,0.2460937 -1.066406,0.3164062 v 0.1289063 l 0.28125,0.011719 c 0.269531,0.011719 0.292969,0.046875 0.292969,0.36328125 V 1.3192875 c 0,0.421875 -0.03516,0.4804688 -0.574219,0.515625 V 1.998975 Z m 0,0"
           style="fill:#231f20;fill-opacity:1;fill-rule:nonzero;stroke:none" />
        <path
           id="path6"
           d="m -3.0052984,23.675733 c -1.4414063,-0.01172 -2.4960938,1.253906 -2.4960938,2.636719 0,0.960937 0.5039063,1.5 1.2539063,1.5 1.1601562,0 2.1328125,-1.125 2.1328125,-2.308594 0,-0.515625 -0.082031,-0.890625 -0.5039063,-1.277344 l 0.011719,-0.02344 c 0.2929687,0.03516 0.5976562,0.08203 0.8671875,0.08203 0.28125,0 0.4804687,-0.292969 0.5976562,-0.632813 l -0.1640625,-0.105468 c -0.140625,0.140625 -0.2695312,0.199218 -0.4804687,0.199218 -0.328125,0 -0.7148438,-0.07031 -1.21875,-0.07031 z m -0.3398438,0.457031 c 0.1757813,0 0.3398438,0.09375 0.4335938,0.292969 0.1054687,0.210937 0.1289062,0.433594 0.1289062,0.808594 0,0.773437 -0.375,2.261718 -1.2773437,2.261718 -0.4570313,0 -0.7148438,-0.445312 -0.7148438,-1.125 0,-1.007812 0.5273438,-2.238281 1.4296875,-2.238281 z m 0,0"
           style="fill:#231f20;fill-opacity:1;fill-rule:nonzero;stroke:none" />
        <path
           id="path7"
           d="m 0.17634219,29.497022 -0.0585938,-0.164063 c -0.08203125,0.04687 -0.22265625,0.105469 -0.375,0.105469 -0.15234375,0 -0.33984375,-0.09375 -0.33984375,-0.574219 v -1.546875 h 0.6328125 c 0.0703125,-0.03516 0.09375,-0.175781 0.03515625,-0.234375 h -0.66796875 v -0.820312 l -0.09375,-0.01172 -0.38671874,0.398438 v 0.433593 h -0.2695312 l -0.1640625,0.175782 0.023437,0.05859 h 0.4101563 v 1.746094 c 0,0.480469 0.21093749,0.714844 0.58593749,0.714844 0.0585938,0 0.15234375,-0.02344 0.2578125,-0.08203 z m 0,0"
           style="fill:#231f20;fill-opacity:1;fill-rule:nonzero;stroke:none" />
        <path
           id="path8"
           d="m -10.127369,8.6435063 c -1.441406,-0.011719 -2.496093,1.2539062 -2.496093,2.6367187 0,0.960938 0.503906,1.5 1.253906,1.5 1.160156,0 2.1328123,-1.125 2.1328123,-2.308594 0,-0.5156247 -0.082031,-0.8906247 -0.5039063,-1.2773435 l 0.011719,-0.023437 c 0.2929687,0.035156 0.5976562,0.082031 0.8671875,0.082031 0.28125,0 0.4804687,-0.2929688 0.5976562,-0.6328125 L -8.42815,8.5146 c -0.140625,0.140625 -0.2695312,0.1992188 -0.4804687,0.1992188 -0.328125,0 -0.7148438,-0.070312 -1.2187503,-0.070312 z m -0.339843,0.4570312 c 0.175781,0 0.339843,0.09375 0.433593,0.2929688 0.105469,0.2109375 0.1289065,0.4335937 0.1289065,0.8085937 0,0.773438 -0.3749995,2.261719 -1.2773435,2.261719 -0.457031,0 -0.714844,-0.445313 -0.714844,-1.125 0,-1.007813 0.527344,-2.2382815 1.429688,-2.2382815 z m 0,0"
           style="fill:#231f20;fill-opacity:1;fill-rule:nonzero;stroke:none" />
        <path
           id="path9"
           d="m -3.9574469,14.672803 v -0.152344 c -0.3515625,-0.03516 -0.3984375,-0.05859 -0.3984375,-0.46875 v -1.160156 c 0,-0.585937 -0.2929687,-0.914062 -0.7617187,-0.914062 -0.1640625,0 -0.3164063,0.07031 -0.4453125,0.152343 -0.1523438,0.09375 -0.328125,0.210938 -0.5039063,0.339844 -0.1171875,-0.316406 -0.375,-0.492187 -0.65625,-0.492187 -0.1992187,0 -0.3398437,0.07031 -0.4921875,0.164062 -0.1875,0.117188 -0.3164062,0.222656 -0.4453125,0.304688 v -0.480469 c -0.2578125,0.117187 -0.5625,0.1875 -0.8320312,0.246094 v 0.128906 c 0.3515625,0.05859 0.3632812,0.09375 0.3632812,0.46875 v 1.242187 c 0,0.398438 -0.046875,0.433594 -0.4453125,0.46875 v 0.152344 h 1.265625 v -0.152344 c -0.2929687,-0.03516 -0.3398437,-0.07031 -0.3398437,-0.46875 v -1.40625 c 0.1757812,-0.152343 0.4101562,-0.316406 0.6445312,-0.316406 0.375,0 0.5273438,0.246094 0.5273438,0.691406 v 1.03125 c 0,0.398438 -0.058594,0.433594 -0.421875,0.46875 v 0.152344 h 1.2773437 v -0.152344 c -0.328125,-0.03516 -0.3867187,-0.07031 -0.3867187,-0.457031 v -1.171875 c 0,-0.105469 0,-0.175781 -0.011719,-0.246094 0.2226563,-0.1875 0.4570313,-0.316406 0.6679688,-0.316406 0.3867187,0 0.5273437,0.269531 0.5273437,0.703125 v 0.996094 c 0,0.433594 -0.058594,0.457031 -0.421875,0.492187 v 0.152344 z m 2.71875,-0.234375 -0.058594,-0.152344 c -0.070312,0.03516 -0.1523438,0.05859 -0.2226563,0.05859 -0.1054687,0 -0.2109375,-0.08203 -0.2109375,-0.351562 v -1.125 c 0,-0.304688 -0.058594,-0.550782 -0.2695312,-0.726563 -0.1289063,-0.105469 -0.3046875,-0.164062 -0.4921875,-0.164062 -0.3398438,0.07031 -0.7265625,0.304687 -0.9023438,0.421875 -0.1054687,0.08203 -0.1875,0.152343 -0.1875,0.234375 0,0.140625 0.1523438,0.257812 0.2695313,0.257812 0.082031,0 0.140625,-0.03516 0.1640625,-0.128906 0.046875,-0.1875 0.1054687,-0.316406 0.1875,-0.398438 0.058594,-0.07031 0.1523437,-0.117187 0.2695312,-0.117187 0.2929688,0 0.5039063,0.246094 0.5039063,0.667969 v 0.117187 c -0.1289063,0.105469 -0.5742188,0.269531 -0.9375,0.386719 -0.328125,0.117187 -0.4804688,0.304687 -0.4804688,0.597656 0,0.375 0.2929688,0.726563 0.7148438,0.726563 0.1875,0 0.46875,-0.222657 0.7148437,-0.386719 0.023437,0.105469 0.058594,0.1875 0.140625,0.269531 0.070312,0.07031 0.1875,0.117188 0.28125,0.117188 z m -0.9492187,-0.269531 c -0.1171875,0.105469 -0.328125,0.210937 -0.4804688,0.210937 -0.1875,0 -0.4335937,-0.140625 -0.4335937,-0.457031 0,-0.210937 0.140625,-0.328125 0.375,-0.433594 0.1171875,-0.05859 0.4101562,-0.1875 0.5390625,-0.257812 z m 1.67578123,-2.707031 c 0.1640625,0 0.3046875,-0.152344 0.3046875,-0.316407 0,-0.175781 -0.140625,-0.304687 -0.29296875,-0.304687 -0.17578125,0 -0.3046875,0.128906 -0.3046875,0.304687 0,0.164063 0.12890625,0.316407 0.29296875,0.316407 z m -0.60937503,0.878906 c 0.37500003,0.04687 0.41015628,0.07031 0.41015628,0.480469 v 1.171875 c 0,0.550781 -0.0117188,0.902343 -0.046875,1.160156 -0.0351563,0.210937 -0.0820313,0.339844 -0.15234375,0.433594 -0.0820313,0.105468 -0.24609373,0.175781 -0.43359373,0.222656 -0.09375,0.02344 -0.1289063,0.07031 -0.1289063,0.140625 0,0.140625 0.1289063,0.269531 0.2226563,0.269531 0.035156,0 0.09375,-0.02344 0.140625,-0.07031 0.14062498,-0.117188 0.52734373,-0.574219 0.72656248,-1.171875 0.1171875,-0.328125 0.140625,-0.585938 0.140625,-0.972657 v -2.039062 c -0.2578125,0.105469 -0.55078125,0.1875 -0.87890628,0.234375 z m 0,0"
           style="fill:#231f20;fill-opacity:1;fill-rule:nonzero;stroke:none" />
      </g>
      <path
         id="path10"
         d="m 1394.44,2.55859 c -94.59,0 -144.11,0 -252.68,0 -219.612,0 -11.93,230.65641 -151.655,175.21441 C 850.391,122.324 886.27,36.0156 708.844,84.8047 531.418,133.594 502.191,193.293 435.66,141.094 369.121,88.8867 364.688,259.824 338.074,337.449 311.465,415.078 233.84,341.887 158.434,268.699 V 2.55859 H 1608.69 V 269.688 C 1504.45,267.473 1514.76,26.2305 1471.38,31.3867 1458.04,32.9766 1444.89,0.957031 1394.44,2.55859"
         style="fill:#e5e4e4;fill-opacity:1;fill-rule:nonzero;stroke:#231f20;stroke-width:5;stroke-linecap:butt;stroke-linejoin:miter;stroke-miterlimit:10;stroke-dasharray:none;stroke-opacity:1"
         transform="matrix(0.13333333,0,0,-0.13333333,0,67.813333)" />
      <path
         id="path11"
         d="M 158.434,381.395 H 532.793"
         style="fill:none;stroke:#231f20;stroke-width:7.5;stroke-linecap:butt;stroke-linejoin:miter;stroke-miterlimit:10;stroke-dasharray:none;stroke-opacity:1"
         transform="matrix(0.13333333,0,0,-0.13333333,0,67.813333)" />
      <path
         id="path12"
         d="M 532.793,199.004 H 1146.59"
         style="fill:none;stroke:#231f20;stroke-width:7.5;stroke-linecap:butt;stroke-linejoin:miter;stroke-miterlimit:10;stroke-dasharray:none;stroke-opacity:1"
         transform="matrix(0.13333333,0,0,-0.13333333,0,67.813333)" />
      <path
         id="path13"
         d="M 1614.23,290.438 H 1396.4"
         style="fill:none;stroke:#231f20;stroke-width:7.5;stroke-linecap:butt;stroke-linejoin:miter;stroke-miterlimit:10;stroke-dasharray:none;stroke-opacity:1"
         transform="matrix(0.13333333,0,0,-0.13333333,0,67.813333)" />
      <path
         id="path14"
         d="m 141.227,381.395 c 0,9.511 7.703,17.199 17.207,17.199 9.5,0 17.207,-7.688 17.207,-17.199 0,-9.508 -7.707,-17.196 -17.207,-17.196 -9.504,0 -17.207,7.688 -17.207,17.196"
         style="fill:#231f20;fill-opacity:1;fill-rule:nonzero;stroke:none"
         transform="matrix(0.13333333,0,0,-0.13333333,0,67.813333)" />
      <path
         id="path15"
         d="m 515.582,381.395 c 0,9.511 7.711,17.199 17.211,17.199 9.496,0 17.203,-7.688 17.203,-17.199 0,-9.508 -7.707,-17.196 -17.203,-17.196 -9.5,0 -17.211,7.688 -17.211,17.196"
         style="fill:#231f20;fill-opacity:1;fill-rule:nonzero;stroke:none"
         transform="matrix(0.13333333,0,0,-0.13333333,0,67.813333)" />
      <path
         id="path16"
         d="m 509.727,199.004 c 0,9.496 7.699,17.203 17.207,17.203 9.496,0 17.203,-7.707 17.203,-17.203 0,-9.508 -7.707,-17.211 -17.203,-17.211 -9.508,0 -17.207,7.703 -17.207,17.211"
         style="fill:#231f20;fill-opacity:1;fill-rule:nonzero;stroke:none"
         transform="matrix(0.13333333,0,0,-0.13333333,0,67.813333)" />
      <path
         id="path17"
         d="m 1129.39,199.004 c 0,9.496 7.7,17.203 17.2,17.203 9.49,0 17.21,-7.707 17.21,-17.203 0,-9.508 -7.72,-17.211 -17.21,-17.211 -9.5,0 -17.2,7.703 -17.2,17.211"
         style="fill:#231f20;fill-opacity:1;fill-rule:nonzero;stroke:none"
         transform="matrix(0.13333333,0,0,-0.13333333,0,67.813333)" />
      <path
         id="path18"
         d="m 1379.19,290.438 c 0,9.511 7.71,17.199 17.21,17.199 9.5,0 17.19,-7.688 17.19,-17.199 0,-9.508 -7.69,-17.196 -17.19,-17.196 -9.5,0 -17.21,7.688 -17.21,17.196"
         style="fill:#231f20;fill-opacity:1;fill-rule:nonzero;stroke:none"
         transform="matrix(0.13333333,0,0,-0.13333333,0,67.813333)" />
      <path
         id="path19"
         d="m 1591.49,290.438 c 0,9.511 7.69,17.199 17.2,17.199 9.5,0 17.2,-7.688 17.2,-17.199 0,-9.508 -7.7,-17.196 -17.2,-17.196 -9.51,0 -17.2,7.688 -17.2,17.196"
         style="fill:#231f20;fill-opacity:1;fill-rule:nonzero;stroke:none"
         transform="matrix(0.13333333,0,0,-0.13333333,0,67.813333)" />
    </g>
  </g>
</svg>
