<?xml version="1.0" encoding="UTF-8" standalone="no"?>
<!-- Created with Inkscape (http://www.inkscape.org/) -->

<svg
   version="1.1"
   id="svg1"
   width="335.62668"
   height="89.506668"
   viewBox="0 0 335.62668 89.506668"
   sodipodi:docname="pha11f14.eps"
   xmlns:inkscape="http://www.inkscape.org/namespaces/inkscape"
   xmlns:sodipodi="http://sodipodi.sourceforge.net/DTD/sodipodi-0.dtd"
   xmlns="http://www.w3.org/2000/svg"
   xmlns:svg="http://www.w3.org/2000/svg">
  <defs
     id="defs1" />
  <sodipodi:namedview
     id="namedview1"
     pagecolor="#ffffff"
     bordercolor="#000000"
     borderopacity="0.25"
     inkscape:showpageshadow="2"
     inkscape:pageopacity="0.0"
     inkscape:pagecheckerboard="0"
     inkscape:deskcolor="#d1d1d1">
    <inkscape:page
       x="0"
       y="0"
       inkscape:label="1"
       id="page1"
       width="335.62668"
       height="89.506668"
       margin="0"
       bleed="0" />
  </sodipodi:namedview>
  <g
     id="g1"
     inkscape:groupmode="layer"
     inkscape:label="1">
    <g
       id="group-R5">
      <path
         id="path2"
         d="m 667.758,335.629 v 1.336 l -0.028,0.148 v 1.035 l -0.035,0.157 v 0.574 l -0.027,0.305 v 0.304 l -0.027,0.301 -0.028,0.57 v 0.192 l -0.031,0.148 -0.031,0.332 -0.031,0.641 v 0.062 l -0.036,0.09 v 0.149 l -0.027,0.336 -0.062,0.636 v 0.098 l -0.032,0.086 v 0.152 l -0.027,0.332 -0.09,0.641 -0.152,1.305 v 0.066 l -0.031,0.09 v 0.148 l -0.055,0.305 -0.285,1.824 -0.028,0.094 v 0.055 l -0.023,0.183 -0.188,0.914 -0.211,1.246 -0.035,0.063 v 0.094 l -0.054,0.144 -0.184,0.91 -0.277,1.227 -0.024,0.051 v 0.093 l -0.058,0.157 -0.071,0.304 -0.148,0.606 -0.34,1.242 -0.023,0.094 v 0.09 l -0.059,0.148 -0.094,0.34 -0.211,0.695 -0.398,1.344 -0.906,2.758 -0.032,0.094 -0.035,0.062 -0.058,0.176 -0.125,0.308 -0.243,0.668 -0.511,1.305 -1.098,2.641 -0.027,0.097 -0.067,0.082 -0.05,0.188 -0.188,0.371 -0.309,0.719 -0.699,1.465 -1.515,2.945 -0.059,0.098 -0.031,0.082 -0.121,0.218 -0.188,0.367 -0.43,0.723 -0.843,1.492 -1.883,3 -0.059,0.098 -0.031,0.086 -0.371,0.547 -0.48,0.703 -0.973,1.434 -2.16,2.914 -0.051,0.082 -0.102,0.097 -0.156,0.203 -0.301,0.403 -0.632,0.797 -1.309,1.605 -2.856,3.219 -0.062,0.097 -0.082,0.086 -0.191,0.215 -0.368,0.36 -0.718,0.761 -1.493,1.516 -3.222,3.07 -0.09,0.094 -0.117,0.086 -0.223,0.187 -0.414,0.399 -0.859,0.723 -1.758,1.527 -3.774,2.969 -0.148,0.093 -0.121,0.122 -0.274,0.183 -0.546,0.426 -1.094,0.793 -2.317,1.609 -0.297,0.18 -0.3,0.207 -0.578,0.398 -1.215,0.797 -2.532,1.543 -1.21,0.735 -1.243,0.718 -2.55,1.403 -0.192,0.093 -0.144,0.094 -0.332,0.18 -0.668,0.332 -1.34,0.703 -2.793,1.34 -0.363,0.176 -1.184,0.547 -1.586,0.695 -3.277,1.367 -0.188,0.066 -0.207,0.09 -0.426,0.153 -0.847,0.332 -1.735,0.64 -3.527,1.246 -0.238,0.09 -0.219,0.067 -0.453,0.14 -0.875,0.274 -1.828,0.586 -0.485,0.113 -0.457,0.125 -0.941,0.273 -1.879,0.512 -0.973,0.25 -0.941,0.238 -1.981,0.485 -4.011,0.855 -0.246,0.063 -0.239,0.035 -1.461,0.273 -1.941,0.332 -0.246,0.051 -0.727,0.094 -3.011,0.461 -0.27,0.035 -0.242,0.027 -0.516,0.055 -1,0.125 -0.273,0.031 -0.254,0.028 -1.543,0.179 h -0.273 l -0.239,0.035 -0.558,0.059 -1.024,0.094 -0.277,0.035 h -0.277 l -0.512,0.055 -1.063,0.054 -0.273,0.035 h -0.305 l -0.574,0.059 h -0.305 l -0.281,0.035 -0.605,0.031 h -0.27 l -0.309,0.032 h -0.574 l -0.304,0.031 h -0.297 l -0.582,0.027 h -0.614 l -0.304,0.028 h -1.485 l -0.3,0.027 h -2.708 l -0.3,-0.027 h -1.246 l -0.309,-0.028 h -0.902 l -0.309,-0.027 h -0.633 l -0.609,-0.031 -0.317,-0.032 h -0.3 l -0.633,-0.031 -0.309,-0.035 h -0.332 l -0.605,-0.059 h -0.305 l -0.332,-0.035 -0.609,-0.054 -1.274,-0.09 -0.304,-0.035 h -0.274 l -0.605,-0.059 -1.192,-0.125 -0.605,-0.055 -0.574,-0.062 -1.211,-0.153 -0.274,-0.035 -0.308,-0.027 -0.618,-0.082 -1.211,-0.156 -2.39,-0.371 -0.313,-0.063 -0.3,-0.023 -0.614,-0.121 -1.211,-0.211 -2.457,-0.457 -1.222,-0.246 -1.211,-0.266 -2.457,-0.586 -0.672,-0.184 -0.672,-0.148 -4.008,-1.098 -0.367,-0.086 -0.336,-0.129 -0.668,-0.179 -1.328,-0.422 -2.676,-0.879 -2.676,-0.973 -2.675,-1.008 -5.282,-2.273 -0.668,-0.305 -1.914,-0.914 -2.582,-1.304 -0.301,-0.157 -0.339,-0.175 -0.645,-0.34 -1.242,-0.664 -2.524,-1.453 -0.3,-0.188 -0.332,-0.18 -0.61,-0.367 -1.246,-0.762 -2.429,-1.582 -4.801,-3.375 -0.547,-0.418 -0.543,-0.394 -1.07,-0.852 -2.157,-1.73 -4.132,-3.649 -0.239,-0.246 -0.238,-0.203 -0.527,-0.496 -0.973,-0.969 -1.941,-1.972 -3.668,-4.102 -0.254,-0.269 -0.243,-0.309 -0.476,-0.578 -0.941,-1.152 -1.829,-2.375 -0.214,-0.301 -0.239,-0.305 -0.429,-0.605 -0.856,-1.246 -1.664,-2.489 -0.219,-0.304 -0.175,-0.336 -1.184,-1.918 -1.465,-2.61 -0.176,-0.332 -0.183,-0.301 -0.371,-0.667 -0.668,-1.34 -1.278,-2.711 -0.14,-0.301 -0.157,-0.332 -0.82,-1.914 -1.035,-2.613 -0.125,-0.309 -0.113,-0.332 -0.219,-0.668 -0.449,-1.305 -0.864,-2.644 -0.171,-0.668 -0.211,-0.672 -0.332,-1.359 -0.368,-1.34 -0.3,-1.367 -0.067,-0.336 -0.094,-0.332 -0.117,-0.668 -0.281,-1.368 -0.055,-0.375 -0.183,-1 -0.211,-1.39 -0.035,-0.336 -0.059,-0.332 -0.094,-0.668 -0.031,-0.34 -0.055,-0.332 -0.062,-0.668 -0.031,-0.367 -0.059,-0.332 -0.125,-1.34 -0.055,-0.699 v -0.332 l -0.062,-0.66 v -0.336 l -0.031,-0.368 -0.036,-0.332 v -0.332 l -0.027,-0.34 v -0.671 l -0.027,-0.36 v -1.34 l -0.035,-0.367 v -0.332 l 0.035,-0.336 V 333.5 l 0.027,-0.332 v -0.336 l 0.027,-0.367 v -0.332 l 0.036,-0.332 v -0.336 l 0.031,-0.332 0.035,-0.699 0.141,-1.672 0.035,-0.364 0.121,-1.335 0.098,-0.672 0.175,-1.368 0.028,-0.367 0.484,-2.914 0.098,-0.363 0.121,-0.731 0.304,-1.425 0.09,-0.364 0.055,-0.367 0.191,-0.726 0.368,-1.422 0.785,-2.864 0.09,-0.367 0.125,-0.336 0.211,-0.699 0.484,-1.426 1,-2.761 0.125,-0.368 0.148,-0.332 0.278,-0.703 0.547,-1.367 1.214,-2.699 0.153,-0.336 0.449,-0.91 0.609,-1.25 1.305,-2.461 0.188,-0.301 0.148,-0.305 0.332,-0.605 0.703,-1.188 1.496,-2.367 0.176,-0.304 0.18,-0.278 0.363,-0.574 0.793,-1.152 1.613,-2.282 3.426,-4.375 0.25,-0.273 0.211,-0.301 0.512,-0.578 0.972,-1.129 2.039,-2.215 0.274,-0.273 0.242,-0.274 0.52,-0.546 1.066,-1.067 2.184,-2.062 0.273,-0.274 0.816,-0.726 1.129,-1.004 2.278,-1.946 4.707,-3.679 0.613,-0.422 0.578,-0.426 1.211,-0.82 2.406,-1.614 0.332,-0.207 0.305,-0.183 0.609,-0.395 1.211,-0.761 2.485,-1.489 0.336,-0.179 0.304,-0.184 0.641,-0.336 1.25,-0.699 2.551,-1.336 5.132,-2.461 0.606,-0.246 0.609,-0.274 1.211,-0.511 2.434,-1.004 0.301,-0.125 0.308,-0.086 0.606,-0.246 1.211,-0.453 2.437,-0.883 0.301,-0.09 0.305,-0.121 0.636,-0.184 1.219,-0.398 2.43,-0.758 0.304,-0.09 0.336,-0.09 0.606,-0.183 1.215,-0.332 2.433,-0.641 0.668,-0.18 0.668,-0.152 1.301,-0.308 2.641,-0.575 0.672,-0.125 0.636,-0.148 1.309,-0.246 2.613,-0.453 0.336,-0.032 0.332,-0.062 0.641,-0.086 1.3,-0.215 0.309,-0.031 0.332,-0.059 0.641,-0.062 1.304,-0.18 0.301,-0.031 0.336,-0.031 0.641,-0.09 1.269,-0.121 0.305,-0.032 0.336,-0.035 0.637,-0.054 1.254,-0.094 0.609,-0.059 0.57,-0.031 0.606,-0.063 0.582,-0.031 0.269,-0.027 h 0.301 l 0.586,-0.035 0.305,-0.028 h 0.265 l 0.582,-0.031 h 0.305 l 0.301,-0.027 h 0.57 l 0.285,-0.031 h 0.844 l 0.309,-0.036 h 1.148 l 0.281,-0.027 h 2.825 l 0.273,0.027 h 1.398 l 0.301,0.036 h 0.82 l 0.551,0.031 h 0.274 l 0.269,0.027 h 0.574 l 0.274,0.031 h 0.273 l 0.551,0.028 1.059,0.062 0.281,0.031 h 0.273 l 0.512,0.063 1.067,0.059 0.273,0.031 0.238,0.027 0.551,0.035 1.027,0.086 0.254,0.035 0.27,0.032 0.515,0.027 1.032,0.121 2.039,0.246 0.484,0.059 0.52,0.062 1.004,0.153 1.96,0.3 0.497,0.063 0.484,0.09 0.969,0.152 1.945,0.367 0.246,0.059 0.27,0.027 0.511,0.121 1.012,0.188 2.031,0.453 0.485,0.125 0.523,0.09 3.887,0.972 2.828,0.821 3.68,1.125 0.414,0.121 0.402,0.148 0.856,0.278 1.609,0.574 3.184,1.187 0.179,0.059 0.223,0.094 0.355,0.148 0.789,0.305 1.493,0.64 2.941,1.274 0.223,0.094 0.179,0.089 0.395,0.18 0.762,0.332 1.511,0.735 2.957,1.488 5.461,3.066 1.219,0.731 1.18,0.761 2.308,1.489 4.321,3.008 0.488,0.359 0.512,0.398 0.968,0.731 1.887,1.519 3.524,3.008 0.242,0.18 0.215,0.215 0.453,0.425 0.886,0.79 1.696,1.64 3.164,3.246 0.367,0.367 0.332,0.399 0.664,0.754 1.305,1.492 2.433,2.977 0.063,0.093 0.086,0.086 0.156,0.215 0.914,1.188 1.156,1.578 2.125,3.129 0.059,0.121 0.43,0.64 0.484,0.758 0.906,1.52 1.676,2.976 0.059,0.063 0.027,0.09 0.098,0.183 0.175,0.332 0.368,0.699 0.668,1.336 1.277,2.672 0.066,0.188 0.082,0.179 0.461,1.094 0.606,1.399 1.062,2.824 0.035,0.094 0.032,0.058 0.027,0.18 0.121,0.308 0.238,0.668 0.399,1.278 0.027,0.09 0.035,0.058 0.059,0.184 0.098,0.304 0.175,0.637 0.395,1.278 v 0.058 l 0.035,0.094 0.027,0.152 0.086,0.301 0.192,0.641 0.3,1.214 0.036,0.09 v 0.063 l 0.027,0.152 0.086,0.301 0.125,0.605 0.273,1.215 0.032,0.094 v 0.094 l 0.027,0.152 0.098,0.332 0.113,0.668 0.25,1.309 v 0.058 l 0.023,0.094 0.028,0.152 0.035,0.332 0.121,0.637 0.184,1.309 v 0.09 l 0.031,0.062 v 0.152 l 0.058,0.301 0.059,0.606 0.035,0.062 v 0.246 l 0.063,0.305 0.054,0.574 v 0.153 l 0.032,0.152 0.031,0.305 0.031,0.605 0.027,0.059 v 0.246 l 0.036,0.273 0.062,0.61 v 0.332 l 0.031,0.335 v 0.153 l 0.028,0.18 v 0.332 l 0.027,0.093 v 0.578 l 0.027,0.063 v 0.668 l 0.035,0.09 v 1.004 l 0.028,0.152 v 1.336"
         style="fill:none;stroke:#3871c1;stroke-width:10;stroke-linecap:square;stroke-linejoin:miter;stroke-miterlimit:3.25;stroke-dasharray:none;stroke-opacity:1"
         transform="matrix(0.13333333,0,0,-0.13333333,0,89.506667)" />
      <path
         id="path3"
         d="m 2142.78,335.629 -0.07,2.918 -0.21,2.914 -0.34,2.918 -0.48,2.918 -0.61,2.883 -0.75,2.918 -0.89,2.918 -1.03,2.886 -1.16,2.883 -1.27,2.883 -1.43,2.867 -1.58,2.887 -1.67,2.851 -1.82,2.825 -4.05,5.683 -2.21,2.793 -2.35,2.824 -5.03,5.563 -2.74,2.738 -2.82,2.758 -6.09,5.434 -3.18,2.675 -3.34,2.711 -6.99,5.278 -15.37,10.363 -4.13,2.527 -4.23,2.52 -8.75,4.957 -4.52,2.426 -4.65,2.433 -9.57,4.766 -4.92,2.344 -5.02,2.308 -10.3,4.551 -21.63,8.809 -5.62,2.132 -5.69,2.094 -11.6,4.11 -24.06,7.894 -6.17,1.879 -6.23,1.859 -12.64,3.641 -25.95,6.93 -7.16,1.797 -7.23,1.757 -14.61,3.407 -29.72,6.379 -7.54,1.484 -7.56,1.457 -15.22,2.855 -30.75,5.231 -7.75,1.246 -7.74,1.184 -15.59,2.273 -7.78,1.098 -7.8,1.035 -15.66,2.008 -7.8,0.972 -7.84,0.907 -15.64,1.757 -31.23,3.141 -15.56,1.387 -15.53,1.254 -7.74,0.605 -7.73,0.547 -15.37,1.031 -7.65,0.485 -7.63,0.457 -7.63,0.429 -7.59,0.387 -7.57,0.398 -7.53,0.336 -14.97,0.61 -7.46,0.297 -7.44,0.254 -7.38,0.207 -7.35,0.214 -7.32,0.184 -7.29,0.148 -7.27,0.157 -7.23,0.082 -7.16,0.125 -7.14,0.058 -7.11,0.071 -7.08,0.027 h -14.04 l -6.96,-0.027 -6.92,-0.036 -6.42,-0.062 -6.37,-0.059 -6.35,-0.097 -6.33,-0.117 -12.51,-0.243 -6.2,-0.152 -6.16,-0.148 -12.22,-0.368 -6.04,-0.183 -6.02,-0.211 -5.96,-0.238 -5.95,-0.219 -11.73,-0.516 -5.83,-0.273 -5.77,-0.301 -11.43,-0.586 -5.65,-0.332 -5.62,-0.305 -11.11,-0.691 -5.51,-0.332 -5.47,-0.367 -10.78,-0.762 -21.12,-1.609 -5.2,-0.43 -5.13,-0.422 -10.15,-0.891 -19.88,-1.843 -4.85,-0.457 -4.83,-0.485 -9.51,-1.008 -18.63,-2 -4.55,-0.519 -4.53,-0.539 -8.93,-1.07 -17.42,-2.161 -33.08,-4.496 -3.89,-0.578 -3.86,-0.547 -7.64,-1.156 -14.87,-2.277 -28.25,-4.676 -3.41,-0.606 -3.34,-0.582 -6.66,-1.179 -12.897,-2.371 -24.523,-4.739 -2.95,-0.582 -2.91,-0.597 -5.742,-1.196 -11.211,-2.359 -21.203,-4.684 -38.109,-9.179 -4.735,-1.211 -4.648,-1.215 -9.059,-2.402 -17.07,-4.739 -30.356,-9.023 -3.461,-1.094 -3.398,-1.059 -6.625,-2.132 -12.488,-4.16 -22.305,-7.907 -1.18,-0.445 -1.183,-0.43 -2.371,-0.879 -4.563,-1.734 -8.656,-3.348 -15.645,-6.379 -25.523,-11.425 -0.762,-0.364 -0.75,-0.336 -1.465,-0.718 -2.855,-1.375 -5.438,-2.703 -9.785,-5.071 -15.98,-8.988 -0.43,-0.273 -0.422,-0.254 -0.824,-0.485 -1.641,-1 -3.093,-1.914 -5.684,-3.613 -9.41,-6.477 -0.219,-0.183 -0.246,-0.176 -0.488,-0.336 -0.942,-0.672 -1.757,-1.332 -3.309,-2.523 -5.625,-4.586 -8.805,-8.086 -5.472,-5.895 -3.707,-4.59 -2.797,-4.035 -1.825,-3.101 -1.402,-2.762 -1,-2.313 v -0.027 l -0.023,-0.035 -0.032,-0.055 -0.031,-0.121 -0.269,-0.73 -0.301,-0.879 v -0.031 l -0.031,-0.036 v -0.058 l -0.036,-0.117 -0.089,-0.219 -0.129,-0.449 -0.239,-0.86 -0.031,-0.027 v -0.055 l -0.086,-0.277 -0.094,-0.363 -0.156,-0.735 v -0.027 l -0.027,-0.059 v -0.097 l -0.055,-0.176 -0.062,-0.367 v -0.028 l -0.035,-0.062 v -0.055 l -0.032,-0.187 -0.058,-0.336 v -0.028 l -0.035,-0.035 v -0.113 l -0.032,-0.156 -0.058,-0.336 V 340 l -0.028,-0.055 v -0.156 l -0.062,-0.332 v -0.121 l -0.027,-0.152 -0.032,-0.274 v -0.156 l -0.035,-0.117 -0.027,-0.274 v -0.156 l -0.031,-0.148 v -0.364 l -0.032,-0.062 V 337.18 L 621,337.113 v -0.847 h -0.023 v -1.278 H 621 v -0.816 l 0.031,-0.152 v -0.399 l 0.032,-0.121 v -0.273 l 0.031,-0.274 v -0.094 l 0.027,-0.054 v -0.153 l 0.035,-0.304 v -0.063 l 0.032,-0.094 v -0.148 l 0.062,-0.305 v -0.152 l 0.027,-0.18 0.028,-0.308 0.027,-0.028 v -0.125 l 0.031,-0.179 0.067,-0.301 v -0.094 l 0.031,-0.094 0.094,-0.453 0.117,-0.668 0.027,-0.031 v -0.059 l 0.035,-0.089 0.028,-0.184 0.093,-0.395 0.211,-0.789 v -0.066 l 0.028,-0.059 0.094,-0.273 0.097,-0.426 0.274,-0.816 0.031,-0.031 v -0.094 l 0.051,-0.09 0.062,-0.242 0.156,-0.43 0.364,-0.961 0.976,-2.285 1.274,-2.555 1.914,-3.281 2.551,-3.734 3.582,-4.528 5.679,-6.172 7.996,-7.41 0.149,-0.125 0.183,-0.148 0.34,-0.305 0.656,-0.57 1.434,-1.192 3.125,-2.519 7.477,-5.652 0.281,-0.184 0.273,-0.215 0.512,-0.359 1.063,-0.762 2.277,-1.578 4.945,-3.344 12.004,-7.508 0.797,-0.48 2.457,-1.461 3.469,-1.969 7.625,-4.226 1.027,-0.547 1.035,-0.578 2.125,-1.125 4.446,-2.313 9.8,-4.887 0.735,-0.367 0.699,-0.332 1.453,-0.703 3.016,-1.426 6.293,-2.914 14.054,-6.23 0.973,-0.426 0.941,-0.395 1.946,-0.82 4.011,-1.672 8.45,-3.429 18.902,-7.325 1.18,-0.425 1.215,-0.454 2.468,-0.882 5.008,-1.825 10.578,-3.734 23.602,-7.809 3.219,-1.035 3.257,-1 6.68,-2.066 14.152,-4.258 31.668,-8.777 2.055,-0.578 2.133,-0.547 4.289,-1.121 8.805,-2.25 18.589,-4.559 4.868,-1.152 4.953,-1.157 10.172,-2.308 21.48,-4.707 2.82,-0.578 2.805,-0.578 5.742,-1.184 11.758,-2.371 24.796,-4.738 3.24,-0.582 3.25,-0.606 6.59,-1.184 13.56,-2.339 28.59,-4.649 4.01,-0.605 4.07,-0.641 8.26,-1.215 16.95,-2.433 4.36,-0.606 4.36,-0.605 8.91,-1.188 18.25,-2.308 4.66,-0.575 4.7,-0.578 9.58,-1.093 19.59,-2.188 4.99,-0.516 5.07,-0.519 10.24,-1.035 20.99,-1.973 5.35,-0.488 5.41,-0.453 10.94,-0.914 5.52,-0.422 5.59,-0.426 11.31,-0.852 5.7,-0.394 5.75,-0.395 11.66,-0.757 5.9,-0.368 5.96,-0.332 12,-0.668 6.07,-0.336 6.14,-0.304 12.36,-0.547 6.26,-0.274 6.29,-0.242 12.73,-0.484 6.41,-0.203 6.47,-0.192 6.54,-0.187 6.53,-0.149 6.59,-0.152 6.65,-0.152 6.69,-0.094 6.71,-0.117 6.32,-0.063 6.36,-0.058 6.37,-0.063 6.41,-0.031 h 19.44 l 6.57,0.058 6.56,0.036 6.63,0.089 6.62,0.063 6.68,0.121 6.72,0.121 13.49,0.305 6.8,0.18 6.81,0.214 6.86,0.211 6.87,0.243 6.89,0.246 6.94,0.3 6.95,0.274 13.95,0.699 7.02,0.367 7.05,0.395 14.12,0.82 7.11,0.484 7.11,0.457 14.25,1.063 7.17,0.547 7.17,0.578 14.37,1.211 7.2,0.672 7.23,0.668 14.43,1.461 7.23,0.754 7.24,0.793 14.46,1.64 28.93,3.649 7.22,0.968 7.2,1.012 14.4,2.09 28.63,4.555 7.11,1.218 7.08,1.243 14.09,2.586 27.89,5.527 7.71,1.609 7.66,1.668 15.14,3.434 29.67,7.355 7.27,1.942 7.2,1.976 14.19,4.039 27.5,8.571 6.65,2.218 6.59,2.278 12.88,4.648 6.29,2.367 6.2,2.407 12.09,4.921 5.86,2.52 5.78,2.551 11.21,5.195 20.99,10.758 4.92,2.793 4.8,2.797 9.21,5.648 4.41,2.887 4.25,2.918 8.08,5.863 3.83,2.977 3.67,3.008 6.94,6.074 3.21,3.074 3.07,3.066 5.68,6.231 2.59,3.129 2.43,3.16 2.27,3.156 2.13,3.192 1.95,3.191 1.75,3.219 1.61,3.191 1.47,3.246 1.27,3.227 1.12,3.25 0.92,3.246 0.79,3.254 0.61,3.25 0.42,3.254 0.24,3.281 0.1,3.25"
         style="fill:none;stroke:#da1259;stroke-width:10;stroke-linecap:square;stroke-linejoin:miter;stroke-miterlimit:3.25;stroke-dasharray:none;stroke-opacity:1"
         transform="matrix(0.13333333,0,0,-0.13333333,0,89.506667)" />
      <path
         id="path4"
         d="m 125.863,305.629 v 30"
         style="fill:none;stroke:#231f20;stroke-width:5;stroke-linecap:butt;stroke-linejoin:miter;stroke-miterlimit:3.25;stroke-dasharray:none;stroke-opacity:1"
         transform="matrix(0.13333333,0,0,-0.13333333,0,89.506667)" />
      <path
         id="path5"
         d="m 1132.72,305.629 v 30"
         style="fill:none;stroke:#231f20;stroke-width:5;stroke-linecap:butt;stroke-linejoin:miter;stroke-miterlimit:3.25;stroke-dasharray:none;stroke-opacity:1"
         transform="matrix(0.13333333,0,0,-0.13333333,0,89.506667)" />
      <path
         id="path6"
         d="m 1636.19,305.629 v 30"
         style="fill:none;stroke:#231f20;stroke-width:5;stroke-linecap:butt;stroke-linejoin:miter;stroke-miterlimit:3.25;stroke-dasharray:none;stroke-opacity:1"
         transform="matrix(0.13333333,0,0,-0.13333333,0,89.506667)" />
      <path
         id="path7"
         d="m 2139.61,305.629 v 30"
         style="fill:none;stroke:#231f20;stroke-width:5;stroke-linecap:butt;stroke-linejoin:miter;stroke-miterlimit:3.25;stroke-dasharray:none;stroke-opacity:1"
         transform="matrix(0.13333333,0,0,-0.13333333,0,89.506667)" />
      <path
         id="path8"
         d="M 0,335.629 H 2517.2"
         style="fill:none;stroke:#231f20;stroke-width:5;stroke-linecap:butt;stroke-linejoin:miter;stroke-miterlimit:3.25;stroke-dasharray:none;stroke-opacity:1"
         transform="matrix(0.13333333,0,0,-0.13333333,0,89.506667)" />
      <path
         id="path9"
         d="m 599.297,83.9102 h 30"
         style="fill:none;stroke:#231f20;stroke-width:5;stroke-linecap:butt;stroke-linejoin:miter;stroke-miterlimit:3.25;stroke-dasharray:none;stroke-opacity:1"
         transform="matrix(0.13333333,0,0,-0.13333333,0,89.506667)" />
      <path
         id="path10"
         d="m 629.297,335.629 h 19.594"
         style="fill:none;stroke:#231f20;stroke-width:5;stroke-linecap:butt;stroke-linejoin:miter;stroke-miterlimit:3.25;stroke-dasharray:none;stroke-opacity:1"
         transform="matrix(0.13333333,0,0,-0.13333333,0,89.506667)" />
      <path
         id="path11"
         d="m 599.297,587.344 h 30"
         style="fill:none;stroke:#231f20;stroke-width:5;stroke-linecap:butt;stroke-linejoin:miter;stroke-miterlimit:3.25;stroke-dasharray:none;stroke-opacity:1"
         transform="matrix(0.13333333,0,0,-0.13333333,0,89.506667)" />
      <path
         id="path12"
         d="M 629.297,0 V 671.254"
         style="fill:none;stroke:#231f20;stroke-width:5;stroke-linecap:butt;stroke-linejoin:miter;stroke-miterlimit:3.25;stroke-dasharray:none;stroke-opacity:1"
         transform="matrix(0.13333333,0,0,-0.13333333,0,89.506667)" />
      <g
         id="g12"
         aria-label="–0.50.5&#10;0.25&#10;–0.25&#10;g = –0.25&#10;g = 0.7&#10;1.01.5"
         transform="matrix(1.3333333,0,0,1.3333333,7.5656267,58.3364)">
        <path
           id="path13"
           d="M 3.7505847,-1.6058156 V -2.0159719 H 0.39902219 v 0.4101563 z m 2.4902344,-3.4804688 c -1.2070313,0 -1.640625,1.4296875 -1.640625,2.6015625 0,1.265625 0.4335937,2.57812503 1.640625,2.57812503 1.1953125,0 1.6289062,-1.41796873 1.6289062,-2.58984373 0,-1.2304688 -0.4335937,-2.5898438 -1.6289062,-2.5898438 z m -0.011719,0.2695313 c 0.7265625,0 0.9257813,1.1835937 0.9257813,2.3203125 0,1.125 -0.1992188,2.32031248 -0.9140625,2.32031248 -0.703125,0 -0.9257813,-1.20703128 -0.9257813,-2.33203128 0,-1.1132812 0.1875,-2.3085937 0.9140625,-2.3085937 z m 2.8447266,4.91015623 c 0.2578125,0 0.4453125,-0.1875 0.4453125,-0.45703125 0,-0.2578125 -0.1875,-0.45703125 -0.4453125,-0.45703125 -0.2578125,0 -0.4453125,0.19921875 -0.4453125,0.45703125 0,0.26953125 0.1875,0.45703125 0.4453125,0.45703125 z M 11.20371,-4.4065969 h 1.863281 l 0.210937,-0.515625 -0.04687,-0.070312 h -2.285156 l -0.316406,2.4492188 c 0.1875,-0.070312 0.492187,-0.1640625 0.832031,-0.1640625 0.867188,0 1.300781,0.5039062 1.300781,1.2070312 0,0.60937503 -0.339843,1.18359378 -1.019531,1.18359378 -0.480469,0 -0.808594,-0.24609375 -0.984375,-0.3984375 -0.08203,-0.0703125 -0.140625,-0.0585938 -0.210937,0 -0.09375,0.0703125 -0.164063,0.17578125 -0.175782,0.2578125 -0.01172,0.09375 0.03516,0.1640625 0.128907,0.26953125 0.128906,0.1171875 0.457031,0.28125 0.832031,0.28125 0.421875,0 0.960937,-0.2109375 1.394531,-0.5625 0.480469,-0.3984375 0.703125,-0.85546873 0.703125,-1.33593753 0,-0.65625 -0.515625,-1.359375 -1.535156,-1.359375 -0.222656,0 -0.597656,0.1289063 -0.902344,0.2460938 z m 93.56543,-0.6796875 c -1.20703,0 -1.64063,1.4296875 -1.64063,2.6015625 0,1.265625 0.4336,2.57812503 1.64063,2.57812503 1.19531,0 1.62891,-1.41796873 1.62891,-2.58984373 0,-1.2304688 -0.4336,-2.5898438 -1.62891,-2.5898438 z m -0.0117,0.2695313 c 0.72656,0 0.92578,1.1835937 0.92578,2.3203125 0,1.125 -0.19922,2.32031248 -0.91406,2.32031248 -0.70313,0 -0.92578,-1.20703128 -0.92578,-2.33203128 0,-1.1132812 0.1875,-2.3085937 0.91406,-2.3085937 z m 2.8418,4.91015623 c 0.25781,0 0.44531,-0.1875 0.44531,-0.45703125 0,-0.2578125 -0.1875,-0.45703125 -0.44531,-0.45703125 -0.25782,0 -0.44532,0.19921875 -0.44532,0.45703125 0,0.26953125 0.1875,0.45703125 0.44532,0.45703125 z m 2.12988,-4.50000003 h 1.86328 l 0.21094,-0.515625 -0.0469,-0.070312 h -2.28515 l -0.31641,2.4492188 c 0.1875,-0.070312 0.49219,-0.1640625 0.83203,-0.1640625 0.86719,0 1.30078,0.5039062 1.30078,1.2070312 0,0.60937503 -0.33984,1.18359378 -1.01953,1.18359378 -0.48047,0 -0.80859,-0.24609375 -0.98437,-0.3984375 -0.082,-0.0703125 -0.14063,-0.0585938 -0.21094,0 -0.0937,0.0703125 -0.16406,0.17578125 -0.17578,0.2578125 -0.0117,0.09375 0.0352,0.1640625 0.12891,0.26953125 0.1289,0.1171875 0.45703,0.28125 0.83203,0.28125 0.42187,0 0.96093,-0.2109375 1.39453,-0.5625 0.48047,-0.3984375 0.70312,-0.85546873 0.70312,-1.33593753 0,-0.65625 -0.51562,-1.359375 -1.53515,-1.359375 -0.22266,0 -0.59766,0.1289063 -0.90235,0.2460938 z M 41.20371,-37.670269 c -1.207032,0 -1.640625,1.429688 -1.640625,2.601563 0,1.265625 0.433593,2.578125 1.640625,2.578125 1.195312,0 1.628906,-1.417969 1.628906,-2.589844 0,-1.230469 -0.433594,-2.589844 -1.628906,-2.589844 z m -0.01172,0.269532 c 0.726562,0 0.925781,1.183593 0.925781,2.320312 0,1.125 -0.199219,2.320313 -0.914062,2.320313 -0.703125,0 -0.925782,-1.207032 -0.925782,-2.332032 0,-1.113281 0.1875,-2.308593 0.914063,-2.308593 z m 2.844727,4.910156 c 0.257812,0 0.445312,-0.1875 0.445312,-0.457031 0,-0.257813 -0.1875,-0.457032 -0.445312,-0.457032 -0.257813,0 -0.445313,0.199219 -0.445313,0.457032 0,0.269531 0.1875,0.457031 0.445313,0.457031 z m 4.201171,-1.21875 c -0.234375,0.503906 -0.339843,0.539062 -0.773437,0.539062 h -1.5 l 1.136719,-1.195312 c 0.738281,-0.785156 1.066406,-1.253906 1.066406,-1.945313 0,-0.84375 -0.644531,-1.359375 -1.347656,-1.359375 -0.46875,0 -0.84375,0.210938 -1.078125,0.480469 l -0.457032,0.644531 0.175782,0.164063 c 0.199218,-0.316406 0.539062,-0.75 1.089843,-0.75 0.585938,0 0.9375,0.398437 0.9375,1.066406 0,0.691406 -0.503906,1.347656 -0.996093,1.933594 -0.398438,0.46875 -0.855469,0.925781 -1.300782,1.359375 v 0.1875 h 3 c 0.09375,-0.363281 0.175782,-0.714844 0.28125,-1.042969 z m 1.766602,-3.28125 h 1.863281 l 0.210938,-0.515625 -0.04687,-0.07031 h -2.285157 l -0.316406,2.449219 c 0.1875,-0.07031 0.492188,-0.164062 0.832031,-0.164062 0.867188,0 1.300782,0.503906 1.300782,1.207031 0,0.609375 -0.339844,1.183594 -1.019532,1.183594 -0.480468,0 -0.808593,-0.246094 -0.984375,-0.398438 -0.08203,-0.07031 -0.140625,-0.05859 -0.210937,0 -0.09375,0.07031 -0.164063,0.175781 -0.175781,0.257813 -0.01172,0.09375 0.03516,0.164062 0.128906,0.269531 0.128906,0.117187 0.457031,0.28125 0.832031,0.28125 0.421875,0 0.960938,-0.210938 1.394531,-0.5625 0.480469,-0.398438 0.703125,-0.855469 0.703125,-1.335938 0,-0.65625 -0.515625,-1.359375 -1.535156,-1.359375 -0.222656,0 -0.597656,0.128907 -0.902344,0.246094 z M 38.39121,15.907856 V 15.4977 h -3.351563 v 0.410156 z m 2.8125,-3.480468 c -1.207032,0 -1.640625,1.429687 -1.640625,2.601562 0,1.265625 0.433593,2.578125 1.640625,2.578125 1.195312,0 1.628906,-1.417969 1.628906,-2.589844 0,-1.230468 -0.433594,-2.589843 -1.628906,-2.589843 z m -0.01172,0.269531 c 0.726562,0 0.925781,1.183594 0.925781,2.320312 0,1.125 -0.199219,2.320313 -0.914062,2.320313 -0.703125,0 -0.925782,-1.207031 -0.925782,-2.332031 0,-1.113282 0.1875,-2.308594 0.914063,-2.308594 z m 2.841797,4.910156 c 0.257812,0 0.445312,-0.1875 0.445312,-0.457031 0,-0.257813 -0.1875,-0.457031 -0.445312,-0.457031 -0.257813,0 -0.445313,0.199218 -0.445313,0.457031 0,0.269531 0.1875,0.457031 0.445313,0.457031 z m 4.204101,-1.21875 c -0.234375,0.503906 -0.339843,0.539063 -0.773437,0.539063 h -1.5 l 1.136719,-1.195313 c 0.738281,-0.785156 1.066406,-1.253906 1.066406,-1.945312 0,-0.84375 -0.644531,-1.359375 -1.347656,-1.359375 -0.46875,0 -0.84375,0.210937 -1.078125,0.480468 l -0.457032,0.644532 0.175782,0.164062 c 0.199218,-0.316406 0.539062,-0.75 1.089843,-0.75 0.585938,0 0.9375,0.398438 0.9375,1.066406 0,0.691407 -0.503906,1.347657 -0.996093,1.933594 -0.398438,0.46875 -0.855469,0.925781 -1.300782,1.359375 v 0.1875 h 3 c 0.09375,-0.363281 0.175782,-0.714844 0.28125,-1.042969 z m 1.766602,-3.28125 h 1.863281 l 0.210938,-0.515625 -0.04687,-0.07031 h -2.285157 l -0.316406,2.449218 c 0.1875,-0.07031 0.492188,-0.164062 0.832031,-0.164062 0.867188,0 1.300782,0.503906 1.300782,1.207031 0,0.609375 -0.339844,1.183594 -1.019532,1.183594 -0.480468,0 -0.808593,-0.246094 -0.984375,-0.398438 -0.08203,-0.07031 -0.140625,-0.05859 -0.210937,0 -0.09375,0.07031 -0.164063,0.175782 -0.175781,0.257813 -0.01172,0.09375 0.03516,0.164062 0.128906,0.269531 0.128906,0.117188 0.457031,0.28125 0.832031,0.28125 0.421875,0 0.960938,-0.210937 1.394531,-0.5625 0.480469,-0.398437 0.703125,-0.855469 0.703125,-1.335937 0,-0.65625 -0.515625,-1.359375 -1.535156,-1.359375 -0.222656,0 -0.597656,0.128906 -0.902344,0.246093 z m 0,0"
           style="fill:#231f20;fill-opacity:1;fill-rule:nonzero;stroke:none" />
        <path
           id="path14"
           d="m 13.108007,-23.22105 c -0.164063,0.105469 -0.492188,0.210938 -1.019532,0.222656 -0.1875,-0.175781 -0.46875,-0.257812 -0.761718,-0.257812 -0.328125,0 -0.785157,0.152344 -1.148438,0.457031 -0.4570312,0.351563 -0.7617187,0.914063 -0.7617187,1.5 0,0.609375 0.2695313,0.984375 0.7851567,1.101563 -0.4218754,0.246093 -0.5507817,0.410156 -0.5507817,0.550781 0,0.117187 0.1054688,0.292969 0.3398438,0.445312 -0.9960938,0.503907 -1.5117188,0.902344 -1.5117188,1.289063 -0.023437,0.5625 0.7382813,1.007812 1.6054687,1.007812 0.867188,0 2.121094,-0.539062 2.121094,-1.277343 0,-0.386719 -0.351563,-0.738282 -1.207031,-1.207032 -0.433594,-0.222656 -0.65625,-0.386718 -0.65625,-0.515625 0,-0.105468 0.08203,-0.199218 0.1875,-0.292968 0.515625,-0.09375 0.914062,-0.316407 1.160156,-0.515625 0.328125,-0.269532 0.679687,-0.738282 0.679687,-1.382813 0,-0.234375 -0.02344,-0.375 -0.07031,-0.503906 0.105469,0 0.164062,-0.01172 0.234375,-0.02344 0.140625,-0.02344 0.375,-0.140625 0.644531,-0.421875 z m -2.414063,2.671875 c -0.328125,0 -0.585937,-0.28125 -0.585937,-0.820312 0,-0.480469 0.152343,-0.890625 0.339843,-1.160157 0.164063,-0.246093 0.398438,-0.410156 0.65625,-0.410156 0.398438,0 0.597657,0.363281 0.597657,0.878906 0,0.960938 -0.539063,1.511719 -1.007813,1.511719 z m -0.246094,3.269531 c -0.6328122,0 -1.2304684,-0.328125 -1.2304684,-0.785156 0,-0.328125 0.3984375,-0.691406 1.0078124,-0.972656 0.117188,0.05859 0.375,0.199219 0.667969,0.386719 0.421875,0.234375 0.65625,0.46875 0.65625,0.703125 0,0.351562 -0.433594,0.667968 -1.101563,0.667968 z m 0,0"
           style="fill:#231f20;fill-opacity:1;fill-rule:nonzero;stroke:none" />
        <path
           id="path15"
           d="m 19.471288,-22.107769 v -0.445312 h -4.289063 v 0.445312 z m 0,1.652344 v -0.445312 h -4.289063 v 0.445312 z m 6.723633,-0.5625 v -0.46875 h -3.773438 v 0.46875 z m 3.155273,-3.914062 c -1.347656,0 -1.839844,1.605468 -1.839844,2.917968 0,1.417969 0.480469,2.90625 1.839844,2.90625 1.359375,0 1.828125,-1.59375 1.828125,-2.917968 0,-1.382813 -0.46875,-2.90625 -1.828125,-2.90625 z m 0,0.304687 c 0.808594,0 1.03125,1.324219 1.03125,2.601563 0,1.265625 -0.222656,2.613281 -1.03125,2.613281 -0.773437,0 -1.042969,-1.359375 -1.042969,-2.613281 0,-1.253907 0.222657,-2.601563 1.042969,-2.601563 z m 3.196289,5.519531 c 0.28125,0 0.503906,-0.199218 0.503906,-0.515625 0,-0.292968 -0.222656,-0.515625 -0.503906,-0.515625 -0.292969,0 -0.503906,0.222657 -0.503906,0.515625 0,0.316407 0.210937,0.515625 0.503906,0.515625 z m 4.722656,-1.371093 c -0.269531,0.574218 -0.386718,0.609375 -0.867187,0.609375 h -1.6875 l 1.277344,-1.335938 c 0.832031,-0.890625 1.195312,-1.417969 1.195312,-2.203125 0,-0.949219 -0.726562,-1.523437 -1.511719,-1.523437 -0.527343,0 -0.949218,0.234375 -1.21875,0.539062 l -0.515625,0.726563 0.199219,0.175781 c 0.234375,-0.351563 0.609375,-0.832031 1.230469,-0.832031 0.65625,0 1.054687,0.433593 1.054687,1.195312 0,0.773438 -0.5625,1.511719 -1.125,2.179688 -0.445312,0.515625 -0.949218,1.03125 -1.453125,1.523437 v 0.210938 h 3.363282 c 0.105468,-0.410157 0.199218,-0.796875 0.316406,-1.183594 z m 1.989258,-3.679688 h 2.097656 l 0.234375,-0.585937 -0.05859,-0.07031 h -2.566407 l -0.351562,2.742188 c 0.210937,-0.08203 0.550781,-0.1875 0.925781,-0.1875 0.984375,0 1.464844,0.574218 1.464844,1.359375 0,0.679687 -0.375,1.335937 -1.136719,1.335937 -0.550781,0 -0.914062,-0.292969 -1.113281,-0.457031 -0.08203,-0.07031 -0.152344,-0.05859 -0.234375,0 -0.105469,0.09375 -0.1875,0.210937 -0.1875,0.292969 -0.02344,0.105468 0.02344,0.1875 0.140625,0.304687 0.128906,0.128906 0.515625,0.316406 0.925781,0.316406 0.480469,-0.01172 1.078125,-0.246093 1.570313,-0.632812 0.550781,-0.457031 0.796875,-0.960938 0.796875,-1.511719 0,-0.738281 -0.585938,-1.511719 -1.734375,-1.511719 -0.246094,0 -0.667969,0.140625 -1.007813,0.269532 z m 0,0"
           style="fill:#231f20;fill-opacity:1;fill-rule:nonzero;stroke:none" />
        <path
           id="path16"
           d="m 194.66074,-32.97398 c -0.16406,0.105469 -0.49219,0.210938 -1.01953,0.222657 -0.1875,-0.175782 -0.46875,-0.257813 -0.76172,-0.257813 -0.32812,0 -0.78516,0.152344 -1.14844,0.457031 -0.45703,0.351563 -0.76172,0.914063 -0.76172,1.5 0,0.609375 0.26954,0.984375 0.78516,1.101563 -0.42187,0.246094 -0.55078,0.410156 -0.55078,0.550781 0,0.117188 0.10547,0.292969 0.33984,0.445313 -0.99609,0.503906 -1.51172,0.902343 -1.51172,1.289062 -0.0234,0.5625 0.73829,1.007813 1.60547,1.007813 0.86719,0 2.1211,-0.539063 2.1211,-1.277344 0,-0.386719 -0.35157,-0.738281 -1.20703,-1.207031 -0.4336,-0.222657 -0.65625,-0.386719 -0.65625,-0.515625 0,-0.105469 0.082,-0.199219 0.1875,-0.292969 0.51562,-0.09375 0.91406,-0.316406 1.16015,-0.515625 0.32813,-0.269531 0.67969,-0.738281 0.67969,-1.382813 0,-0.234375 -0.0234,-0.375 -0.0703,-0.503906 0.10547,0 0.16406,-0.01172 0.23437,-0.02344 0.14063,-0.02344 0.375,-0.140625 0.64453,-0.421875 z m -2.41406,2.671875 c -0.32813,0 -0.58594,-0.28125 -0.58594,-0.820312 0,-0.480469 0.15234,-0.890625 0.33984,-1.160156 0.16407,-0.246094 0.39844,-0.410157 0.65625,-0.410157 0.39844,0 0.59766,0.363282 0.59766,0.878907 0,0.960937 -0.53906,1.511718 -1.00781,1.511718 z m -0.2461,3.269532 c -0.63281,0 -1.23046,-0.328125 -1.23046,-0.785157 0,-0.328125 0.39843,-0.691406 1.00781,-0.972656 0.11719,0.05859 0.375,0.199219 0.66797,0.386719 0.42187,0.234375 0.65625,0.46875 0.65625,0.703125 0,0.351562 -0.4336,0.667969 -1.10157,0.667969 z m 0,0"
           style="fill:#231f20;fill-opacity:1;fill-rule:nonzero;stroke:none" />
        <path
           id="path17"
           d="m 200.49375,-31.532573 v -0.398438 h -3.8086 v 0.398438 z m 0,1.464843 v -0.398437 h -3.8086 v 0.398437 z m 4.9541,-3.984375 c -1.20703,0 -1.64062,1.429688 -1.64062,2.601563 0,1.265625 0.43359,2.578125 1.64062,2.578125 1.19531,0 1.62891,-1.417969 1.62891,-2.589844 0,-1.230469 -0.4336,-2.589844 -1.62891,-2.589844 z m -0.0117,0.269532 c 0.72656,0 0.92578,1.183593 0.92578,2.320312 0,1.125 -0.19922,2.320313 -0.91406,2.320313 -0.70312,0 -0.92578,-1.207032 -0.92578,-2.332032 0,-1.113281 0.1875,-2.308593 0.91406,-2.308593 z m 3.3252,4.910156 c 0.25781,0 0.44531,-0.1875 0.44531,-0.457031 0,-0.257813 -0.1875,-0.457032 -0.44531,-0.457032 -0.25782,0 -0.44532,0.199219 -0.44532,0.457032 0,0.269531 0.1875,0.457031 0.44532,0.457031 z m 4.71093,-5.085938 h -3.05859 c -0.0234,0.351563 -0.0703,0.75 -0.14062,1.195313 h 0.23437 c 0.1875,-0.539063 0.23438,-0.609375 0.76172,-0.609375 h 1.73437 c -0.63281,1.394531 -1.53515,3.058594 -2.3789,4.417969 l 0.0586,0.08203 0.58594,-0.08203 c 0.77344,-1.640625 1.52344,-3.28125 2.27344,-4.898438 z M 156.26133,-3.46875e-4 V -0.21128437 c -0.72657,-0.0585938 -0.77344,-0.12890625 -0.77344,-0.703125 V -5.0862844 c -0.44531,0.1757813 -0.91406,0.328125 -1.42969,0.421875 v 0.1875 l 0.38672,0.011719 c 0.35156,0.011719 0.38672,0.058594 0.38672,0.46875 v 3.08203123 c 0,0.57421875 -0.0352,0.64453125 -0.77344,0.703125 v 0.210937495 z m 1.68457,0.093750005 c 0.25781,0 0.44531,-0.1875 0.44531,-0.45703125 0,-0.2578125 -0.1875,-0.45703125 -0.44531,-0.45703125 -0.25782,0 -0.44532,0.19921875 -0.44532,0.45703125 0,0.26953125 0.1875,0.45703125 0.44532,0.45703125 z m 2.83008,-5.17968753 c -1.20704,0 -1.64063,1.4296875 -1.64063,2.6015625 0,1.265625 0.43359,2.57812503 1.64063,2.57812503 1.19531,0 1.6289,-1.41796873 1.6289,-2.58984373 0,-1.2304688 -0.43359,-2.5898438 -1.6289,-2.5898438 z m -0.0117,0.2695313 c 0.72656,0 0.92578,1.1835937 0.92578,2.3203125 0,1.125 -0.19922,2.32031248 -0.91406,2.32031248 -0.70313,0 -0.92579,-1.20703128 -0.92579,-2.33203128 0,-1.1132812 0.1875,-2.3085937 0.91407,-2.3085937 z M 210.8209,-3.46875e-4 V -0.21128437 c -0.72657,-0.0585938 -0.77344,-0.12890625 -0.77344,-0.703125 V -5.0862844 c -0.44531,0.1757813 -0.91406,0.328125 -1.42969,0.421875 v 0.1875 l 0.38672,0.011719 c 0.35156,0.011719 0.38672,0.058594 0.38672,0.46875 v 3.08203123 c 0,0.57421875 -0.0352,0.64453125 -0.77344,0.703125 v 0.210937495 z m 1.68164,0.093750005 c 0.25781,0 0.44531,-0.1875 0.44531,-0.45703125 0,-0.2578125 -0.1875,-0.45703125 -0.44531,-0.45703125 -0.25781,0 -0.44531,0.19921875 -0.44531,0.45703125 0,0.26953125 0.1875,0.45703125 0.44531,0.45703125 z m 2.12988,-4.50000003 h 1.86328 l 0.21094,-0.515625 -0.0469,-0.070312 h -2.28515 l -0.31641,2.4492188 c 0.1875,-0.070312 0.49219,-0.1640625 0.83203,-0.1640625 0.86719,0 1.30078,0.5039062 1.30078,1.2070312 0,0.60937503 -0.33984,1.18359378 -1.01953,1.18359378 -0.48047,0 -0.80859,-0.24609375 -0.98437,-0.3984375 -0.082,-0.0703125 -0.14063,-0.0585938 -0.21094,0 -0.0937,0.0703125 -0.16406,0.17578125 -0.17578,0.2578125 -0.0117,0.09375 0.0352,0.1640625 0.12891,0.26953125 0.1289,0.1171875 0.45703,0.28125 0.83203,0.28125 0.42187,0 0.96093,-0.2109375 1.39453,-0.5625 0.48047,-0.3984375 0.70312,-0.85546873 0.70312,-1.33593753 0,-0.65625 -0.51562,-1.359375 -1.53515,-1.359375 -0.22266,0 -0.59766,0.1289063 -0.90235,0.2460938 z m 0,0"
           style="fill:#231f20;fill-opacity:1;fill-rule:nonzero;stroke:none" />
      </g>
    </g>
  </g>
</svg>
