<?xml version="1.0" encoding="UTF-8" standalone="no"?>
<!-- Created with Inkscape (http://www.inkscape.org/) -->

<svg
   version="1.1"
   id="svg1"
   width="162.34666"
   height="56.013332"
   viewBox="0 0 162.34666 56.013332"
   sodipodi:docname="pha11f13.eps"
   xmlns:inkscape="http://www.inkscape.org/namespaces/inkscape"
   xmlns:sodipodi="http://sodipodi.sourceforge.net/DTD/sodipodi-0.dtd"
   xmlns="http://www.w3.org/2000/svg"
   xmlns:svg="http://www.w3.org/2000/svg">
  <defs
     id="defs1" />
  <sodipodi:namedview
     id="namedview1"
     pagecolor="#ffffff"
     bordercolor="#000000"
     borderopacity="0.25"
     inkscape:showpageshadow="2"
     inkscape:pageopacity="0.0"
     inkscape:pagecheckerboard="0"
     inkscape:deskcolor="#d1d1d1">
    <inkscape:page
       x="0"
       y="0"
       inkscape:label="1"
       id="page1"
       width="162.34666"
       height="56.013332"
       margin="0"
       bleed="0" />
  </sodipodi:namedview>
  <g
     id="g1"
     inkscape:groupmode="layer"
     inkscape:label="1">
    <g
       id="group-R5">
      <g
         id="g2"
         aria-label="θ&#10;ω′&#10;ω"
         transform="matrix(1.3333333,0,0,1.3333333,76.884933,33.346667)">
        <path
           id="path2"
           d="m 3.1419641,-6.4094141 c -1.59375,0 -2.61328129,2.671875 -2.61328129,4.5585938 0,0.93749999 0.2578125,1.95703124 1.26562499,1.95703124 1.6171875,0 2.5664063,-2.69531254 2.5664063,-4.61718754 0,-0.9726562 -0.2578125,-1.8984375 -1.21875,-1.8984375 z m -1.6992188,2.9179688 c 0.2695313,-1.3476563 0.84375,-2.6132813 1.5703125,-2.6132813 0.5859375,0 0.6445313,0.890625 0.6445313,1.3710938 0,0.4101562 -0.058594,0.796875 -0.1054688,1.2421875 z m 2.0390625,0.421875 c -0.2460937,1.4296875 -0.8203125,2.85937499 -1.5703125,2.85937499 -0.5273437,0 -0.6679687,-0.7734375 -0.6679687,-1.47656249 0,-0.46875 0.058594,-0.9257813 0.1289062,-1.3828125 z M 60.748409,9.9148047 c 0.292969,0.2578123 0.503907,0.7148433 0.503907,1.3828123 -0.01172,1.007813 -0.398438,2.050781 -1.136719,2.050781 -0.304688,0 -0.515625,-0.304687 -0.492188,-0.878906 0.02344,-0.46875 0.234375,-1.359375 0.351563,-1.722656 l -0.05859,-0.03516 -0.667969,0.140625 c -0.03516,0.28125 -0.09375,0.75 -0.1875,1.136718 -0.199218,0.855469 -0.5625,1.3125 -0.949218,1.3125 -0.28125,0 -0.539063,-0.339843 -0.539063,-0.996093 0,-1.007813 0.46875,-1.921875 1.160156,-2.4492191 L 58.592159,9.6569922 c -1.042968,0.5390628 -1.757812,1.5585938 -1.757812,2.7656248 0,0.9375 0.421875,1.441406 0.9375,1.441406 0.386719,0 0.902344,-0.398437 1.230469,-0.890625 0.04687,0.503907 0.328125,0.890625 0.761718,0.890625 0.375,0 0.738282,-0.222656 1.066407,-0.515625 0.5625,-0.527343 0.996093,-1.300781 0.996093,-2.214843 0,-0.902344 -0.398437,-1.4179691 -0.691406,-1.4179691 -0.152344,0 -0.316406,0.070312 -0.375,0.1289063 z m 0,0"
           style="fill:#231f20;fill-opacity:1;fill-rule:nonzero;stroke:none" />
        <path
           id="path3"
           d="m 62.928097,10.219492 0.609375,-1.2890623 c 0.175781,-0.3867188 0.28125,-0.6210938 0.316406,-0.7382813 0.03516,-0.082031 0.04687,-0.1523437 0.04687,-0.2226562 0,-0.09375 -0.02344,-0.1640625 -0.08203,-0.2226563 -0.07031,-0.058594 -0.152344,-0.09375 -0.257813,-0.09375 -0.128906,0 -0.246093,0.035156 -0.339843,0.1171875 -0.105469,0.082031 -0.175782,0.2226563 -0.234375,0.3984375 -0.03516,0.1289063 -0.08203,0.375 -0.117188,0.7617188 l -0.140625,1.2890623 z m 0,0"
           style="fill:#231f20;fill-opacity:1;fill-rule:nonzero;stroke:none" />
        <path
           id="path4"
           d="m -53.304325,-21.426992 c 0.292969,0.257812 0.503906,0.714844 0.503906,1.382812 -0.01172,1.007813 -0.398437,2.050782 -1.136719,2.050782 -0.304687,0 -0.515625,-0.304688 -0.492187,-0.878907 0.02344,-0.46875 0.234375,-1.359375 0.351562,-1.722656 l -0.05859,-0.03516 -0.667969,0.140625 c -0.03516,0.28125 -0.09375,0.75 -0.1875,1.136719 -0.199219,0.855468 -0.5625,1.3125 -0.949219,1.3125 -0.28125,0 -0.539062,-0.339844 -0.539062,-0.996094 0,-1.007813 0.46875,-1.921875 1.160156,-2.449219 l -0.140625,-0.199219 c -1.042969,0.539063 -1.757813,1.558594 -1.757813,2.765625 0,0.9375 0.421875,1.441407 0.9375,1.441407 0.386719,0 0.902344,-0.398438 1.230469,-0.890625 0.04687,0.503906 0.328125,0.890625 0.761719,0.890625 0.375,0 0.738281,-0.222657 1.066406,-0.515625 0.5625,-0.527344 0.996094,-1.300782 0.996094,-2.214844 0,-0.902344 -0.398438,-1.417969 -0.691406,-1.417969 -0.152344,0 -0.316407,0.07031 -0.375,0.128906 z m 0,0"
           style="fill:#231f20;fill-opacity:1;fill-rule:nonzero;stroke:none" />
      </g>
      <path
         id="path5"
         d="M 109.391,328.836 562.594,51.0039 h 516.996"
         style="fill:none;stroke:#231f20;stroke-width:7.5;stroke-linecap:butt;stroke-linejoin:miter;stroke-miterlimit:10;stroke-dasharray:none;stroke-opacity:1"
         transform="matrix(0.13333333,0,0,-0.13333333,0,56.013333)" />
      <path
         id="path6"
         d="m 118.574,323.211 22.512,11.559 -0.379,0.8 -37.367,6.489 c -11.883,4.117 -23.7658,8.234 -35.6486,12.343 9.0547,-8.718 18.1133,-17.441 27.1719,-26.164 l 22.7347,-30.363 0.824,-0.066 0.152,25.402"
         style="fill:#231f20;fill-opacity:1;fill-rule:nonzero;stroke:none"
         transform="matrix(0.13333333,0,0,-0.13333333,0,56.013333)" />
      <path
         id="path7"
         d="m 1068.82,51.0039 -13.14,21.6172 0.74,0.4922 35.25,-14.0039 c 12.28,-2.6992 24.56,-5.3985 36.84,-8.1055 -12.28,-2.6992 -24.56,-5.3984 -36.84,-8.1055 l -35.25,-14.0039 -0.74,0.3711 13.14,21.7383"
         style="fill:#231f20;fill-opacity:1;fill-rule:nonzero;stroke:none"
         transform="matrix(0.13333333,0,0,-0.13333333,0,56.013333)" />
      <path
         id="path8"
         d="m 656.461,51.0039 c 0,52.3441 -42.434,94.7661 -94.766,94.7661 -34.289,0 -64.316,-18.204 -80.957,-45.477"
         style="fill:none;stroke:#231f20;stroke-width:5;stroke-linecap:butt;stroke-linejoin:miter;stroke-miterlimit:10;stroke-dasharray:none;stroke-opacity:1"
         transform="matrix(0.13333333,0,0,-0.13333333,0,56.013333)" />
    </g>
  </g>
</svg>
