<?xml version="1.0" encoding="UTF-8" standalone="no"?>
<!-- Created with Inkscape (http://www.inkscape.org/) -->

<svg
   version="1.1"
   id="svg1"
   width="260.57333"
   height="81.186668"
   viewBox="0 0 260.57333 81.186668"
   sodipodi:docname="pha11f09.eps"
   xmlns:inkscape="http://www.inkscape.org/namespaces/inkscape"
   xmlns:sodipodi="http://sodipodi.sourceforge.net/DTD/sodipodi-0.dtd"
   xmlns="http://www.w3.org/2000/svg"
   xmlns:svg="http://www.w3.org/2000/svg">
  <defs
     id="defs1" />
  <sodipodi:namedview
     id="namedview1"
     pagecolor="#ffffff"
     bordercolor="#000000"
     borderopacity="0.25"
     inkscape:showpageshadow="2"
     inkscape:pageopacity="0.0"
     inkscape:pagecheckerboard="0"
     inkscape:deskcolor="#d1d1d1">
    <inkscape:page
       x="0"
       y="0"
       inkscape:label="1"
       id="page1"
       width="260.57333"
       height="81.186668"
       margin="0"
       bleed="0" />
  </sodipodi:namedview>
  <g
     id="g1"
     inkscape:groupmode="layer"
     inkscape:label="1">
    <g
       id="group-R5">
      <path
         id="path2"
         d="m 1434.86,300.445 c -1.3,2.207 -2.77,4.41 -4.56,6.625 -0.37,0.461 -0.77,0.879 -1.16,1.321 4.34,-1.571 7.13,-3.828 5.72,-7.946 z m 46.98,23.785 c -13.42,29.875 -53.83,38.75 -88.67,38.497 -0.02,0.527 -0.01,1.054 -0.04,1.586 -0.85,11.91 -7.55,19.515 -17.76,22.73 -4.74,5.246 -10.76,9.383 -17.68,12.551 -3.42,12.648 -10.4,24.367 -21.46,33.492 -4.92,4.078 -10.16,6.176 -15.23,6.586 -1.31,3.648 -3.28,7.027 -5.6,9.66 -19.64,22.441 -55.21,7.051 -78.72,-0.742 -11.3,-3.762 -22.41,-8.008 -33.33,-12.711 -9.56,7.121 -20.83,3.492 -31.46,-3.906 -4.28,0.793 -8.63,1.41 -12.93,1.793 -27.29,47.093 -111.14,25.582 -126.06,-23.43 -2.49,-8.168 -3.05,-16.375 -1.96,-24.109 -2.09,-0.676 -4.17,-1.411 -6.21,-2.231 -10,2.309 -20.04,2.188 -28.468,-2.539 -4.836,-2.707 -8.899,-6.93 -12.407,-12.031 -39.363,8.789 -82.695,5.457 -121.218,-2.844 -15.418,-3.32 -21.922,-22.641 -14.438,-35.496 5.844,-10.027 12.813,-18.977 20.492,-27.188 -12.761,-5.402 -20.671,-21.91 -12.05,-34.562 0.793,-1.156 1.683,-2.195 2.519,-3.328 -0.137,-0.246 -0.25,-0.5 -0.371,-0.754 0.051,-0.02 0.09,-0.027 0.121,-0.047 -0.906,-1.844 -1.762,-3.727 -2.555,-5.723 -6.355,-16.004 7.938,-28.859 22.473,-30.125 1.524,-3.48 3.777,-6.621 6.531,-9.187 0.625,-5.57 1.977,-11.106 4.075,-16.332 9.648,-24.074 32.109,-40.442 56.379,-47.938 25.554,-7.89 62.527,-10.476 88.187,-1.547 6.37,2.219 12,5.875 16.56,10.411 0.59,-0.309 1.18,-0.61 1.83,-0.914 14.36,-6.493 33.31,-8.332 48.79,-7.375 23.36,1.418 49.44,7.742 58.62,28.418 1.66,1.273 3.22,2.668 4.73,4.109 15.36,-11.258 34.54,-11.688 50.49,-4.063 15.5,-11.003 35.01,-12.691 52.55,-7.117 6.51,-8.707 16.08,-14.09 27.22,-11.031 40.52,11.059 87.48,26.324 120.49,53.281 5.85,4.781 10.56,10.094 14.15,15.727 33.56,17.57 70.2,48.793 52.41,88.429"
         style="fill:#d7d7d7;fill-opacity:1;fill-rule:nonzero;stroke:none"
         transform="matrix(0.13333333,0,0,-0.13333333,0,81.186667)" />
      <g
         id="g2"
         aria-label="L&#10;o&#10;(p, ω)&#10;pp′"
         transform="matrix(1.3333333,0,0,1.3333333,37,56.2476)">
        <path
           id="path3"
           d="M 4.359375,-1.5011297 C 4.125,-1.0558172 3.9257813,-0.78628594 3.7265625,-0.58706719 3.5039063,-0.36441094 3.1992188,-0.31753594 2.671875,-0.31753594 c -0.3984375,0 -0.6796875,-0.0117188 -0.8085938,-0.1171875 -0.140625,-0.10546875 -0.1640625,-0.31640625 -0.09375,-0.64453126 l 0.7031251,-3.7265625 c 0.1289062,-0.6796875 0.1640625,-0.7382812 0.8789062,-0.796875 l 0.058594,-0.234375 H 1.1601562 l -0.058594,0.234375 c 0.7382812,0.070312 0.7851562,0.1054688 0.6445312,0.796875 l -0.7382812,3.7617188 c -0.140625,0.67968746 -0.19921875,0.74999996 -0.890625,0.79687496 L 0.05859375,-0.00112969 H 4.03125 C 4.171875,-0.28237969 4.5,-1.1026922 4.6054687,-1.4073797 Z m 0,0"
           style="fill:#231f20;fill-opacity:1;fill-rule:nonzero;stroke:none" />
        <path
           id="path4"
           d="m 7.0957031,-2.0431219 c -0.8203125,0 -1.9804687,0.6796875 -1.9804687,2.15625002 0,1.00781248 0.7382812,1.99218748 1.9804687,1.99218748 0.890625,0 1.9453125,-0.6914062 1.9453125,-2.14453123 0,-1.11328127 -0.8320312,-2.00390627 -1.9453125,-2.00390627 z m -0.09375,0.3046875 c 0.7851563,0 1.2070313,0.84375002 1.2070313,1.89843752 0,1.24218748 -0.4570313,1.65234378 -1.0195313,1.65234378 -0.7382812,0 -1.2304687,-0.84375003 -1.2304687,-1.98046878 0,-1.01953122 0.4804687,-1.57031252 1.0429687,-1.57031252 z m 3.5419919,3.0615235 c -0.8906247,-0.76171879 -1.4062497,-2.20312504 -1.4062497,-3.75 0,-1.546875 0.515625,-3 1.4062497,-3.75 l -0.152343,-0.2109375 c -1.3242192,0.9023437 -1.9101567,2.3320312 -1.9101567,3.9492187 0,1.62890626 0.5859375,3.08203126 1.9101567,3.9609375 z m 1.942383,-4.7460938 v -0.7148437 c -0.421875,0.1757812 -0.925781,0.328125 -1.3125,0.3984375 v 0.2109375 c 0.5625,0.070312 0.597656,0.09375 0.597656,0.6796875 v 4.0664062 c 0,0.5859375 -0.08203,0.6445313 -0.65625,0.703125 v 0.234375 h 2.132813 V 1.9207453 C 12.544922,1.8504328 12.486328,1.8035578 12.486328,1.1238703 v -1.18359374 c 0.117188,0.0703125 0.363281,0.15234375 0.621094,0.1640625 1.171875,-0.2109375 2.238281,-1.08984375 2.238281,-2.44921876 0,-0.890625 -0.597656,-1.6992187 -1.59375,-1.6992187 -0.105469,0 -0.28125,0.046875 -0.445312,0.140625 z m 0,0.3046875 c 0.246094,-0.1875 0.609375,-0.3867187 0.902344,-0.3867187 0.65625,0 1.207031,0.5390625 1.207031,1.5117187 0,1.00781251 -0.515625,1.66406251 -1.265625,1.66406251 -0.304687,0 -0.644531,-0.15234375 -0.84375,-0.3515625 z m 3.773438,1.9570313 c -0.210938,0 -0.433594,0.140625 -0.433594,0.36328121 0,0.15234375 0.07031,0.22265625 0.117187,0.234375 0.304688,0.0703125 0.5625,0.26953125 0.5625,0.59765625 0,0.33984375 -0.257812,0.57421875 -0.691406,0.76171875 l 0.09375,0.25781249 c 0.550781,-0.16406249 1.183594,-0.55078124 1.183594,-1.24218749 0,-0.6328125 -0.503906,-0.97265621 -0.832031,-0.97265621 z m 0,0"
           style="fill:#231f20;fill-opacity:1;fill-rule:nonzero;stroke:none" />
        <path
           id="path5"
           d="m 23.871094,-3.8448797 c 0.292968,0.2578125 0.503906,0.7148438 0.503906,1.3828125 -0.01172,1.0078125 -0.398438,2.05078126 -1.136719,2.05078126 -0.304687,0 -0.515625,-0.3046875 -0.492187,-0.87890626 0.02344,-0.46875 0.234375,-1.359375 0.351562,-1.7226562 l -0.05859,-0.035156 -0.667968,0.140625 c -0.03516,0.28125 -0.09375,0.75 -0.1875,1.1367188 -0.199219,0.85546871 -0.5625,1.31249996 -0.949219,1.31249996 -0.28125,0 -0.539063,-0.33984375 -0.539063,-0.99609376 0,-1.0078125 0.46875,-1.921875 1.160157,-2.4492187 l -0.140625,-0.1992188 c -1.042969,0.5390625 -1.757813,1.5585938 -1.757813,2.765625 0,0.93750001 0.421875,1.44140626 0.9375,1.44140626 0.386719,0 0.902344,-0.3984375 1.230469,-0.890625 0.04687,0.50390625 0.328125,0.890625 0.761719,0.890625 0.375,0 0.738281,-0.22265625 1.066406,-0.515625 0.5625,-0.52734375 0.996094,-1.30078126 0.996094,-2.21484376 0,-0.9023437 -0.398438,-1.4179687 -0.691407,-1.4179687 -0.152343,0 -0.316406,0.070312 -0.375,0.1289062 z m 0,0"
           style="fill:#231f20;fill-opacity:1;fill-rule:nonzero;stroke:none" />
        <path
           id="path6"
           d="m 25.664062,-6.1769109 c 0.890625,0.7382812 1.417969,2.203125 1.417969,3.75 0,1.54687496 -0.503906,2.98828121 -1.417969,3.75 l 0.164063,0.1992187 c 1.347656,-0.91406249 1.898437,-2.33203124 1.898437,-3.9492187 0,-1.6289063 -0.550781,-3.0585938 -1.898437,-3.9609375 z M -26.226562,-12.7482 v -0.714844 c -0.421875,0.175781 -0.925782,0.328125 -1.3125,0.398438 v 0.210937 c 0.5625,0.07031 0.597656,0.09375 0.597656,0.679688 v 4.066406 c 0,0.5859375 -0.08203,0.6445312 -0.65625,0.703125 v 0.234375 h 2.132812 V -7.40445 c -0.703125,-0.070312 -0.761718,-0.1171875 -0.761718,-0.796875 v -1.1835938 c 0.117187,0.070312 0.363281,0.1523438 0.621093,0.1640625 1.171875,-0.2109375 2.238282,-1.0898437 2.238282,-2.4492187 0,-0.890625 -0.597657,-1.699219 -1.59375,-1.699219 -0.105469,0 -0.28125,0.04687 -0.445313,0.140625 z m 0,0.304687 c 0.246093,-0.1875 0.609375,-0.386718 0.902343,-0.386718 0.65625,0 1.207032,0.539062 1.207032,1.511718 0,1.007813 -0.515625,1.664063 -1.265625,1.664063 -0.304688,0 -0.644532,-0.1523438 -0.84375,-0.351563 z M 162.52441,-12.7482 v -0.714844 c -0.42187,0.175781 -0.92578,0.328125 -1.3125,0.398438 v 0.210937 c 0.5625,0.07031 0.59766,0.09375 0.59766,0.679688 v 4.066406 c 0,0.5859375 -0.082,0.6445312 -0.65625,0.703125 v 0.234375 h 2.13281 V -7.40445 c -0.70312,-0.070312 -0.76172,-0.1171875 -0.76172,-0.796875 v -1.1835938 c 0.11719,0.070312 0.36329,0.1523438 0.6211,0.1640625 1.17187,-0.2109375 2.23828,-1.0898437 2.23828,-2.4492187 0,-0.890625 -0.59766,-1.699219 -1.59375,-1.699219 -0.10547,0 -0.28125,0.04687 -0.44531,0.140625 z m 0,0.304687 c 0.2461,-0.1875 0.60938,-0.386718 0.90235,-0.386718 0.65625,0 1.20703,0.539062 1.20703,1.511718 0,1.007813 -0.51563,1.664063 -1.26563,1.664063 -0.30468,0 -0.64453,-0.1523438 -0.84375,-0.351563 z m 0,0"
           style="fill:#231f20;fill-opacity:1;fill-rule:nonzero;stroke:none" />
        <path
           id="path7"
           d="m 166.51172,-12.865388 0.60937,-1.289062 c 0.17578,-0.386719 0.28125,-0.621094 0.31641,-0.738281 0.0352,-0.08203 0.0469,-0.152344 0.0469,-0.222657 0,-0.09375 -0.0234,-0.164062 -0.082,-0.222656 -0.0703,-0.05859 -0.15234,-0.09375 -0.25781,-0.09375 -0.12891,0 -0.24609,0.03516 -0.33984,0.117188 -0.10547,0.08203 -0.17578,0.222656 -0.23438,0.398437 -0.0352,0.128906 -0.082,0.375 -0.11719,0.761719 l -0.14062,1.289062 z m 0,0"
           style="fill:#231f20;fill-opacity:1;fill-rule:nonzero;stroke:none" />
      </g>
      <path
         id="path8"
         d="M 560.098,306.352 H 1843.98"
         style="fill:none;stroke:#231f20;stroke-width:5;stroke-linecap:butt;stroke-linejoin:miter;stroke-miterlimit:10;stroke-dasharray:30, 20;stroke-dashoffset:0;stroke-opacity:1"
         transform="matrix(0.13333333,0,0,-0.13333333,0,81.186667)" />
      <path
         id="path9"
         d="M 102.961,608.938 V 0"
         style="fill:none;stroke:#231f20;stroke-width:15;stroke-linecap:butt;stroke-linejoin:miter;stroke-miterlimit:10;stroke-dasharray:none;stroke-opacity:1"
         transform="matrix(0.13333333,0,0,-0.13333333,0,81.186667)" />
      <path
         id="path10"
         d="m 105.563,306.391 h 431"
         style="fill:none;stroke:#231f20;stroke-width:5;stroke-linecap:butt;stroke-linejoin:miter;stroke-miterlimit:10;stroke-dasharray:none;stroke-opacity:1"
         transform="matrix(0.13333333,0,0,-0.13333333,0,81.186667)" />
      <path
         id="path11"
         d="m 527.59,306.391 -10.957,18.015 0.613,0.41 29.375,-11.671 c 10.234,-2.247 20.469,-4.5 30.703,-6.754 -10.234,-2.25 -20.469,-4.5 -30.703,-6.75 l -29.375,-11.672 -0.613,0.308 10.957,18.114"
         style="fill:#231f20;fill-opacity:1;fill-rule:nonzero;stroke:none"
         transform="matrix(0.13333333,0,0,-0.13333333,0,81.186667)" />
      <path
         id="path12"
         d="m 129.188,304.992 c 0,-13.804 -11.184,-24.976 -24.969,-24.976 -13.7932,0 -24.9768,11.172 -24.9768,24.976 0,13.793 11.1836,24.973 24.9768,24.973 13.785,0 24.969,-11.18 24.969,-24.973"
         style="fill:#231f20;fill-opacity:1;fill-rule:nonzero;stroke:none"
         transform="matrix(0.13333333,0,0,-0.13333333,0,81.186667)" />
      <path
         id="path13"
         d="m 1847.95,305.273 c 0,-13.796 -11.18,-24.976 -24.97,-24.976 -13.79,0 -24.98,11.18 -24.98,24.976 0,13.79 11.19,24.977 24.98,24.977 13.79,0 24.97,-11.187 24.97,-24.977"
         style="fill:#231f20;fill-opacity:1;fill-rule:nonzero;stroke:none"
         transform="matrix(0.13333333,0,0,-0.13333333,0,81.186667)" />
    </g>
  </g>
</svg>
