<?xml version="1.0" encoding="UTF-8" standalone="no"?>
<!-- Created with Inkscape (http://www.inkscape.org/) -->

<svg
   version="1.1"
   id="svg1"
   width="259.94666"
   height="81.186668"
   viewBox="0 0 259.94666 81.186668"
   sodipodi:docname="pha11f11.eps"
   xmlns:inkscape="http://www.inkscape.org/namespaces/inkscape"
   xmlns:sodipodi="http://sodipodi.sourceforge.net/DTD/sodipodi-0.dtd"
   xmlns="http://www.w3.org/2000/svg"
   xmlns:svg="http://www.w3.org/2000/svg">
  <defs
     id="defs1" />
  <sodipodi:namedview
     id="namedview1"
     pagecolor="#ffffff"
     bordercolor="#000000"
     borderopacity="0.25"
     inkscape:showpageshadow="2"
     inkscape:pageopacity="0.0"
     inkscape:pagecheckerboard="0"
     inkscape:deskcolor="#d1d1d1">
    <inkscape:page
       x="0"
       y="0"
       inkscape:label="1"
       id="page1"
       width="259.94666"
       height="81.186668"
       margin="0"
       bleed="0" />
  </sodipodi:namedview>
  <g
     id="g1"
     inkscape:groupmode="layer"
     inkscape:label="1">
    <g
       id="group-R5">
      <path
         id="path2"
         d="m 1434.86,300.445 c -1.3,2.207 -2.77,4.41 -4.56,6.625 -0.37,0.461 -0.77,0.879 -1.16,1.321 4.34,-1.571 7.13,-3.828 5.72,-7.946 z m 46.98,23.785 c -13.42,29.875 -53.83,38.75 -88.67,38.497 -0.02,0.527 -0.01,1.054 -0.04,1.586 -0.85,11.91 -7.55,19.515 -17.76,22.73 -4.74,5.246 -10.76,9.383 -17.68,12.551 -3.42,12.648 -10.4,24.367 -21.46,33.492 -4.92,4.078 -10.16,6.176 -15.23,6.586 -1.31,3.648 -3.28,7.027 -5.6,9.66 -19.64,22.441 -55.21,7.051 -78.72,-0.742 -11.3,-3.762 -22.41,-8.008 -33.33,-12.711 -9.56,7.121 -20.83,3.492 -31.46,-3.906 -4.28,0.793 -8.63,1.41 -12.93,1.793 -27.29,47.093 -111.14,25.582 -126.06,-23.43 -2.49,-8.168 -3.05,-16.375 -1.96,-24.109 -2.09,-0.676 -4.17,-1.411 -6.21,-2.231 -10,2.309 -20.04,2.188 -28.468,-2.539 -4.836,-2.707 -8.899,-6.93 -12.407,-12.031 -39.363,8.789 -82.695,5.457 -121.218,-2.844 -15.418,-3.32 -21.922,-22.641 -14.438,-35.496 5.844,-10.027 12.813,-18.977 20.492,-27.188 -12.761,-5.402 -20.671,-21.91 -12.05,-34.562 0.793,-1.156 1.683,-2.195 2.519,-3.328 -0.137,-0.246 -0.25,-0.5 -0.371,-0.754 0.051,-0.02 0.09,-0.027 0.121,-0.047 -0.906,-1.844 -1.762,-3.727 -2.555,-5.723 -6.355,-16.004 7.938,-28.859 22.473,-30.125 1.524,-3.48 3.777,-6.621 6.531,-9.187 0.625,-5.57 1.977,-11.106 4.075,-16.332 9.648,-24.074 32.109,-40.442 56.379,-47.938 25.554,-7.89 62.527,-10.476 88.187,-1.547 6.37,2.219 12,5.875 16.56,10.411 0.59,-0.309 1.18,-0.61 1.83,-0.914 14.36,-6.493 33.31,-8.332 48.79,-7.375 23.36,1.418 49.44,7.742 58.62,28.418 1.66,1.273 3.22,2.668 4.73,4.109 15.36,-11.258 34.54,-11.688 50.49,-4.063 15.5,-11.003 35.01,-12.691 52.55,-7.117 6.51,-8.707 16.08,-14.09 27.22,-11.031 40.52,11.059 87.48,26.324 120.49,53.281 5.85,4.781 10.56,10.094 14.15,15.727 33.56,17.57 70.2,48.793 52.41,88.429"
         style="fill:#d7d7d7;fill-opacity:1;fill-rule:nonzero;stroke:none"
         transform="matrix(0.13333333,0,0,-0.13333333,0,81.186667)" />
      <g
         id="g2"
         aria-label="pp″"
         transform="matrix(1.3333333,0,0,1.3333333,0,43.813733)">
        <path
           id="path3"
           d="m 1.5234375,-3.4228 v -0.7148438 c -0.421875,0.1757813 -0.92578125,0.328125 -1.3125,0.3984375 v 0.2109375 c 0.5625,0.070312 0.59765625,0.09375 0.59765625,0.6796875 V 1.217825 c 0,0.5859375 -0.0820313,0.6445312 -0.65625,0.703125 V 2.155325 H 2.2851563 V 1.92095 C 1.5820312,1.8506375 1.5234375,1.8037625 1.5234375,1.124075 V -0.05951875 C 1.640625,0.01079375 1.8867187,0.092825 2.1445313,0.10454375 3.3164063,-0.10639375 4.3828125,-0.9853 4.3828125,-2.344675 c 0,-0.890625 -0.5976562,-1.6992188 -1.59375,-1.6992188 -0.1054687,0 -0.28125,0.046875 -0.4453125,0.140625 z m 0,0.3046875 c 0.2460937,-0.1875 0.609375,-0.3867188 0.9023438,-0.3867188 0.65625,0 1.2070312,0.5390625 1.2070312,1.5117188 0,1.0078125 -0.515625,1.6640625 -1.265625,1.6640625 -0.3046875,0 -0.6445313,-0.15234375 -0.84375,-0.3515625 z M 188.02441,-3.4228 v -0.7148438 c -0.42187,0.1757813 -0.92578,0.328125 -1.3125,0.3984375 v 0.2109375 c 0.5625,0.070312 0.59766,0.09375 0.59766,0.6796875 V 1.217825 c 0,0.5859375 -0.082,0.6445312 -0.65625,0.703125 v 0.234375 h 2.13281 V 1.92095 c -0.70312,-0.070312 -0.76172,-0.1171875 -0.76172,-0.796875 v -1.18359375 c 0.11719,0.0703125 0.36329,0.15234375 0.6211,0.1640625 1.17187,-0.2109375 2.23828,-1.08984375 2.23828,-2.44921875 0,-0.890625 -0.59766,-1.6992188 -1.59375,-1.6992188 -0.10547,0 -0.28125,0.046875 -0.44531,0.140625 z m 0,0.3046875 c 0.2461,-0.1875 0.60938,-0.3867188 0.90235,-0.3867188 0.65625,0 1.20703,0.5390625 1.20703,1.5117188 0,1.0078125 -0.51563,1.6640625 -1.26563,1.6640625 -0.30468,0 -0.64453,-0.15234375 -0.84375,-0.3515625 z m 0,0"
           style="fill:#231f20;fill-opacity:1;fill-rule:nonzero;stroke:none" />
        <path
           id="path4"
           d="m 192.11719,-3.5399875 0.60937,-1.2890625 c 0.17578,-0.3867188 0.29297,-0.6210938 0.32813,-0.7382813 0.0234,-0.082031 0.0469,-0.1523437 0.0469,-0.2226562 0,-0.09375 -0.0352,-0.1640625 -0.0937,-0.2226563 -0.0703,-0.058594 -0.14062,-0.09375 -0.25781,-0.09375 -0.11719,0 -0.23438,0.035156 -0.33984,0.1171875 -0.0937,0.082031 -0.17579,0.2226563 -0.23438,0.3984375 -0.0352,0.1289063 -0.082,0.375 -0.11719,0.7617188 l -0.1289,1.2890625 z m 1.60547,0 0.60937,-1.2890625 c 0.1875,-0.3867188 0.29297,-0.6210938 0.32813,-0.7382813 0.0234,-0.082031 0.0469,-0.1523437 0.0469,-0.2226562 0,-0.09375 -0.0234,-0.1640625 -0.0937,-0.2226563 -0.0586,-0.058594 -0.14062,-0.09375 -0.24609,-0.09375 -0.12891,0 -0.2461,0.035156 -0.33985,0.1171875 -0.10547,0.082031 -0.1875,0.2226563 -0.23437,0.3984375 -0.0352,0.1289063 -0.082,0.375 -0.11719,0.7617188 l -0.14062,1.2890625 z m 0,0"
           style="fill:#231f20;fill-opacity:1;fill-rule:nonzero;stroke:none" />
      </g>
      <path
         id="path5"
         d="M 560.098,306.352 H 1843.98"
         style="fill:none;stroke:#231f20;stroke-width:5;stroke-linecap:butt;stroke-linejoin:miter;stroke-miterlimit:10;stroke-dasharray:30, 20;stroke-dashoffset:0;stroke-opacity:1"
         transform="matrix(0.13333333,0,0,-0.13333333,0,81.186667)" />
      <path
         id="path6"
         d="M 102.961,608.938 V 0"
         style="fill:none;stroke:#231f20;stroke-width:15;stroke-linecap:butt;stroke-linejoin:miter;stroke-miterlimit:10;stroke-dasharray:none;stroke-opacity:1"
         transform="matrix(0.13333333,0,0,-0.13333333,0,81.186667)" />
      <path
         id="path7"
         d="m 105.563,306.391 h 431"
         style="fill:none;stroke:#231f20;stroke-width:5;stroke-linecap:butt;stroke-linejoin:miter;stroke-miterlimit:10;stroke-dasharray:none;stroke-opacity:1"
         transform="matrix(0.13333333,0,0,-0.13333333,0,81.186667)" />
      <path
         id="path8"
         d="m 527.59,306.391 -10.957,18.015 0.613,0.41 29.375,-11.671 c 10.234,-2.247 20.469,-4.5 30.703,-6.754 -10.234,-2.25 -20.469,-4.5 -30.703,-6.75 l -29.375,-11.672 -0.613,0.308 10.957,18.114"
         style="fill:#231f20;fill-opacity:1;fill-rule:nonzero;stroke:none"
         transform="matrix(0.13333333,0,0,-0.13333333,0,81.186667)" />
      <path
         id="path9"
         d="m 129.188,304.992 c 0,-13.804 -11.184,-24.976 -24.969,-24.976 -13.7932,0 -24.9768,11.172 -24.9768,24.976 0,13.793 11.1836,24.973 24.9768,24.973 13.785,0 24.969,-11.18 24.969,-24.973"
         style="fill:#231f20;fill-opacity:1;fill-rule:nonzero;stroke:none"
         transform="matrix(0.13333333,0,0,-0.13333333,0,81.186667)" />
      <path
         id="path10"
         d="m 1847.95,305.273 c 0,-13.796 -11.18,-24.976 -24.97,-24.976 -13.79,0 -24.98,11.18 -24.98,24.976 0,13.79 11.19,24.977 24.98,24.977 13.79,0 24.97,-11.187 24.97,-24.977"
         style="fill:#231f20;fill-opacity:1;fill-rule:nonzero;stroke:none"
         transform="matrix(0.13333333,0,0,-0.13333333,0,81.186667)" />
      <g
         id="g10"
         aria-label="p′"
         transform="matrix(1.3333333,0,0,1.3333333,144.86933,52.4804)">
        <path
           id="path11"
           d="m 1.5247578,-3.4218234 v -0.7148438 c -0.421875,0.1757813 -0.92578124,0.328125 -1.31249999,0.3984375 v 0.2109375 c 0.5625,0.070312 0.59765625,0.09375 0.59765625,0.6796875 v 4.0664063 c 0,0.5859375 -0.0820313,0.6445312 -0.65625,0.703125 v 0.234375 H 2.2864766 V 1.9219266 C 1.5833516,1.8516141 1.5247578,1.8047391 1.5247578,1.1250516 v -1.18359379 c 0.1171875,0.0703125 0.3632813,0.15234375 0.6210938,0.1640625 1.171875,-0.2109375 2.2382812,-1.08984375 2.2382812,-2.44921871 0,-0.890625 -0.5976562,-1.6992188 -1.59375,-1.6992188 -0.1054687,0 -0.28125,0.046875 -0.4453125,0.140625 z m 0,0.3046875 c 0.2460938,-0.1875 0.609375,-0.3867188 0.9023438,-0.3867188 0.65625,0 1.2070312,0.5390625 1.2070312,1.5117188 0,1.00781246 -0.515625,1.66406246 -1.265625,1.66406246 -0.3046875,0 -0.6445312,-0.15234375 -0.84375,-0.3515625 z m 0,0"
           style="fill:#231f20;fill-opacity:1;fill-rule:nonzero;stroke:none" />
        <path
           id="path12"
           d="m 5.5120625,-3.5390109 0.609375,-1.2890625 c 0.1757813,-0.3867188 0.28125,-0.6210938 0.3164063,-0.7382813 0.035156,-0.082031 0.046875,-0.1523437 0.046875,-0.2226562 0,-0.09375 -0.023437,-0.1640625 -0.082031,-0.2226563 -0.070312,-0.058594 -0.1523437,-0.09375 -0.2578125,-0.09375 -0.1289062,0 -0.2460937,0.035156 -0.3398437,0.1171875 -0.1054688,0.082031 -0.1757813,0.2226563 -0.234375,0.3984375 -0.035156,0.1289063 -0.082031,0.375 -0.1171875,0.7617188 l -0.140625,1.2890625 z m 0,0"
           style="fill:#231f20;fill-opacity:1;fill-rule:nonzero;stroke:none" />
      </g>
      <path
         id="path13"
         d="m 1136.47,305.273 c 0,-13.796 -11.18,-24.976 -24.97,-24.976 -13.79,0 -24.98,11.18 -24.98,24.976 0,13.79 11.19,24.977 24.98,24.977 13.79,0 24.97,-11.187 24.97,-24.977"
         style="fill:#231f20;fill-opacity:1;fill-rule:nonzero;stroke:none"
         transform="matrix(0.13333333,0,0,-0.13333333,0,81.186667)" />
    </g>
  </g>
</svg>
