<?xml version="1.0" encoding="UTF-8" standalone="no"?>
<!-- Created with Inkscape (http://www.inkscape.org/) -->

<svg
   version="1.1"
   id="svg1"
   width="339.79999"
   height="186.18668"
   viewBox="0 0 339.79999 186.18668"
   sodipodi:docname="pha11f19.eps"
   xmlns:inkscape="http://www.inkscape.org/namespaces/inkscape"
   xmlns:sodipodi="http://sodipodi.sourceforge.net/DTD/sodipodi-0.dtd"
   xmlns="http://www.w3.org/2000/svg"
   xmlns:svg="http://www.w3.org/2000/svg">
  <defs
     id="defs1" />
  <sodipodi:namedview
     id="namedview1"
     pagecolor="#ffffff"
     bordercolor="#000000"
     borderopacity="0.25"
     inkscape:showpageshadow="2"
     inkscape:pageopacity="0.0"
     inkscape:pagecheckerboard="0"
     inkscape:deskcolor="#d1d1d1">
    <inkscape:page
       x="0"
       y="0"
       inkscape:label="1"
       id="page1"
       width="339.79999"
       height="186.18668"
       margin="0"
       bleed="0" />
  </sodipodi:namedview>
  <g
     id="g1"
     inkscape:groupmode="layer"
     inkscape:label="1">
    <g
       id="group-R5">
      <path
         id="path2"
         d="m 379.965,1250.35 172.734,20.33 101.016,-71.61 71.719,-129.84 55.605,-68.91 45.469,-91.047 38.379,-59.179 33.281,-38.028 29.355,-27.367 26.25,-23.844 23.79,-36.273 21.621,-18.516 19.986,-21.211 18.45,-22.085 17.23,-18.579 16.05,-11.484 15.12,-7.969 14.24,-8.789 13.48,-10.601 12.77,-3.575 12.19,-10.609 11.54,-7.027 11.13,-6.211 10.61,-2.641 h 10.19 l 9.73,-6.211 9.43,-5.269 9.03,-4.453 8.79,-4.399 8.43,-5.269 8.15,1.757 7.91,-4.457 7.67,2.7 7.44,-5.332 7.27,-8.848 6.97,-0.883 6.86,1.762 6.62,-7.973 6.5,-0.879 h 6.27 l 6.16,-2.633 6.03,-2.636 h 17.17 l 5.51,-3.52 5.33,-2.637 5.27,7.915 5.16,-10.61 4.98,0.879 4.98,-0.879 4.8,-0.879 h 4.75 l 4.69,-3.511 h 4.57 l 4.45,0.878 4.45,-1.757 4.34,0.879 4.22,-2.637 4.22,0.816 4.1,-2.578 h 8.03 l 3.98,-2.691 15.06,-1.758 14.3,2.637 13.47,-4.399 12.78,-0.879 12.13,-1.758 11.6,1.758 11.07,-0.879 10.61,-0.879 h 10.19 l 9.79,-2.695 9.37,0.879 9.08,0.941 8.73,-0.941 8.44,0.941 h 8.15 l 7.91,-0.941 7.67,0.941 7.44,-0.941 7.27,1.816 h 13.83 l 6.62,1.758 6.5,-0.879 6.33,4.399 h 6.15 l 5.98,-0.879 h 11.6 l 5.63,0.879 5.45,3.57 5.39,-1.812 h 5.21 l 5.16,0.879 5.04,1.816 4.92,-0.883 4.86,0.883 4.69,0.879 4.69,2.637 h 4.57 l 4.51,1.753 4.39,1.758 4.34,0.879 4.28,3.52 h 4.16 l 4.16,-1.7 4.04,5.274 3.98,-3.574 3.93,4.453 15.12,1.758 14.23,5.269 13.48,5.332 12.77,3.52 12.19,5.332 11.55,6.148 11.07,2.699 10.61,9.723 10.19,3.52 9.79,5.332 9.37,7.031 9.08,8.848 8.73,3.511 8.44,2.641 8.2,9.726 7.91,22.965 7.68,-10.601 7.44,7.968 7.21,7.086 7.03,7.036 6.8,7.964 6.68,4.399 6.44,8.848 6.33,5.332 6.15,8.843 5.98,6.157 5.92,10.601 5.74,7.094 5.56,8.848 5.45,5.269 5.39,7.973 5.28,28.3 5.1,-10.609 5.03,9.668 4.93,7.094 4.86,7.969 4.75,8.789 4.62,7.964 4.63,2.637 4.46,32.699 4.39,-1.757 4.4,4.453 4.21,8.789 4.22,12.422 4.11,-1.821 4.04,19.453 3.98,12.422 3.93,75.063"
         style="fill:none;stroke:#3871c1;stroke-width:10;stroke-linecap:square;stroke-linejoin:round;stroke-miterlimit:3.25;stroke-dasharray:none;stroke-opacity:1"
         transform="matrix(0.13333333,0,0,-0.13333333,0,186.18667)" />
      <path
         id="path3"
         d="m 379.965,1250.35 172.734,87.77 101.016,0.41 71.719,-147.77 55.605,-51.33 45.469,-59.59 38.379,-63.64 33.281,-41.54 29.355,-32.871 26.25,-26.656 23.79,-26.66 21.621,-30.473 19.986,-14.766 18.45,-28.359 17.23,-24.488 16.05,-23.086 15.12,-10.254 14.24,-12.363 13.48,-13.829 12.77,-10.664 12.19,-18.578 11.54,-10.133 11.13,-8.148 10.61,-8.492 10.19,-6.152 9.73,-10.254 9.43,-10.2 9.03,-4.097 8.79,-5.742 8.43,-10.665 8.15,-2.05 7.91,-7.793 7.67,-4.516 7.44,-5.918 7.27,-10.484 h 6.97 l 6.86,-4.106 6.62,-6.09 6.5,-4.043 6.27,-1.757 6.16,-6.684 6.03,-1.758 5.86,-0.176 5.74,-3.921 5.57,-6.157 5.51,2.289 5.33,-6.625 5.27,-1.519 5.16,-4.223 4.98,-12.183 4.98,-0.649 4.8,-2.051 4.75,0.532 4.69,-4.516 4.57,2.172 4.45,-2.285 4.45,0.23 h 4.34 l 4.22,-2.168 4.22,-2.168 4.1,-1.812 4.1,-2.285 3.93,-1.821 3.98,-1.754 3.81,-0.414 3.81,-1.875 3.75,-2.339 3.69,-2.051 7.26,-11.782 7.04,10.375 6.79,-2.05 6.68,-4.629 6.45,-2.168 6.33,-1.938 6.15,-2.047 5.98,0.411 5.85,-2.579 5.75,0.465 5.62,-4.453 5.45,0.18 5.33,-1.938 5.28,-0.41 5.15,-1.519 5.04,-0.356 4.92,-1.929 4.87,-0.122 4.74,0.356 4.63,-2.524 4.57,-2.109 h 8.91 l 4.33,-3.687 4.28,1.929 4.16,0.176 4.1,-2.516 4.05,0.172 4.04,-0.054 11.54,-11.899 7.44,3.574 7.27,4.512 6.97,-0.406 6.86,0.113 h 6.62 l 6.5,0.473 6.33,-0.586 6.15,0.113 5.98,0.063 5.86,1.812 5.74,-1.519 5.63,-0.469 h 5.45 l 5.39,0.469 5.21,-0.469 5.16,0.113 5.04,-0.113 4.92,0.699 4.86,1.938 4.69,-0.469 h 4.69 l 4.57,0.058 4.51,2.457 4.39,-0.464 4.34,0.347 4.28,-0.347 4.16,2.515 4.16,-0.293 4.04,1.821 3.98,-1.528 11.61,-6.621 7.44,8.149 7.2,2.578 7.03,1.636 6.8,4.512 6.68,-0.406 h 6.45 l 6.32,4.566 6.16,1.528 6.03,2.168 5.86,2.05 h 5.69 l 5.62,4.571 5.45,1.636 5.39,1.934 5.22,2.695 5.15,2.051 5.04,1.938 4.92,2.285 4.87,1.402 4.74,6.274 4.63,0.527 4.57,1.519 4.51,4.106 4.4,0.293 4.33,1.758 4.28,2.168 4.16,0.523 4.16,5.625 4.04,2.168 3.99,2.348 3.92,1.636 3.87,4.219 3.81,4.223 3.75,1.933 3.69,2.168 3.63,4.098 3.58,2.578 3.57,1.528 3.46,2.168 3.4,4.507 3.4,2.114 3.34,2.046 3.34,1.704 3.22,4.507 3.22,4.282 3.17,1.519 3.16,2.168 3.1,4.106 3.05,2.05 3.05,2.047 2.93,4.867 2.99,1.524 2.93,3.98 2.87,2.289 h 2.87 l 2.81,4.098 2.75,4.277 2.76,4.043 2.69,2.168 2.7,4.164 2.69,2.579 2.64,4.214 2.64,3.696 h 2.52 l 2.58,4.39 2.52,3.813 2.51,2.461 2.52,1.758 2.41,4.683 2.46,3.93 2.4,1.812 2.34,2.524 2.41,4.273 2.34,6.274 2.28,0.117 2.35,1.519 2.28,6.332 2.23,2.047 2.23,4.219 2.22,4.106 2.17,2.695 2.23,3.687 2.17,2.051 2.11,2.231 2.1,4.214 h 2.11 l 2.11,6.157 2.05,6.914 2.06,0.054 1.99,6.157 2.05,0.117 1.99,6.387 1.99,0.117 1.99,8.262 1.94,-8.735"
         style="fill:none;stroke:#f68712;stroke-width:10;stroke-linecap:square;stroke-linejoin:round;stroke-miterlimit:3.25;stroke-dasharray:none;stroke-opacity:1"
         transform="matrix(0.13333333,0,0,-0.13333333,0,186.18667)" />
      <path
         id="path4"
         d="m 379.965,230.699 v 30"
         style="fill:none;stroke:#231f20;stroke-width:5;stroke-linecap:butt;stroke-linejoin:miter;stroke-miterlimit:3.25;stroke-dasharray:none;stroke-opacity:1"
         transform="matrix(0.13333333,0,0,-0.13333333,0,186.18667)" />
      <path
         id="path5"
         d="m 898.168,230.699 v 30"
         style="fill:none;stroke:#231f20;stroke-width:5;stroke-linecap:butt;stroke-linejoin:miter;stroke-miterlimit:3.25;stroke-dasharray:none;stroke-opacity:1"
         transform="matrix(0.13333333,0,0,-0.13333333,0,186.18667)" />
      <path
         id="path6"
         d="m 1416.43,230.699 v 30"
         style="fill:none;stroke:#231f20;stroke-width:5;stroke-linecap:butt;stroke-linejoin:miter;stroke-miterlimit:3.25;stroke-dasharray:none;stroke-opacity:1"
         transform="matrix(0.13333333,0,0,-0.13333333,0,186.18667)" />
      <path
         id="path7"
         d="m 1761.9,230.699 v 30"
         style="fill:none;stroke:#231f20;stroke-width:5;stroke-linecap:butt;stroke-linejoin:miter;stroke-miterlimit:3.25;stroke-dasharray:none;stroke-opacity:1"
         transform="matrix(0.13333333,0,0,-0.13333333,0,186.18667)" />
      <path
         id="path8"
         d="m 2107.37,230.699 v 30"
         style="fill:none;stroke:#231f20;stroke-width:5;stroke-linecap:butt;stroke-linejoin:miter;stroke-miterlimit:3.25;stroke-dasharray:none;stroke-opacity:1"
         transform="matrix(0.13333333,0,0,-0.13333333,0,186.18667)" />
      <path
         id="path9"
         d="m 277.191,508.141 h 30 m 0,-247.442 h 22.266 m -22.266,0 H 2144.87"
         style="fill:none;stroke:#231f20;stroke-width:5;stroke-linecap:butt;stroke-linejoin:miter;stroke-miterlimit:3.25;stroke-dasharray:none;stroke-opacity:1"
         transform="matrix(0.13333333,0,0,-0.13333333,0,186.18667)" />
      <path
         id="path10"
         d="m 277.191,755.523 h 30"
         style="fill:none;stroke:#231f20;stroke-width:5;stroke-linecap:butt;stroke-linejoin:miter;stroke-miterlimit:3.25;stroke-dasharray:none;stroke-opacity:1"
         transform="matrix(0.13333333,0,0,-0.13333333,0,186.18667)" />
      <path
         id="path11"
         d="m 277.191,1002.96 h 30"
         style="fill:none;stroke:#231f20;stroke-width:5;stroke-linecap:butt;stroke-linejoin:miter;stroke-miterlimit:3.25;stroke-dasharray:none;stroke-opacity:1"
         transform="matrix(0.13333333,0,0,-0.13333333,0,186.18667)" />
      <path
         id="path12"
         d="m 277.191,1250.35 h 30"
         style="fill:none;stroke:#231f20;stroke-width:5;stroke-linecap:butt;stroke-linejoin:miter;stroke-miterlimit:3.25;stroke-dasharray:none;stroke-opacity:1"
         transform="matrix(0.13333333,0,0,-0.13333333,0,186.18667)" />
      <path
         id="path13"
         d="M 307.191,260.699 V 1396.42"
         style="fill:none;stroke:#231f20;stroke-width:5;stroke-linecap:butt;stroke-linejoin:miter;stroke-miterlimit:3.25;stroke-dasharray:none;stroke-opacity:1"
         transform="matrix(0.13333333,0,0,-0.13333333,0,186.18667)" />
      <path
         id="path14"
         d="m 2253.21,846.574 h 103.65"
         style="fill:none;stroke:#3871c1;stroke-width:10;stroke-linecap:square;stroke-linejoin:miter;stroke-miterlimit:3.25;stroke-dasharray:none;stroke-opacity:1"
         transform="matrix(0.13333333,0,0,-0.13333333,0,186.18667)" />
      <path
         id="path15"
         d="m 2253.21,726.574 h 103.65"
         style="fill:none;stroke:#f68712;stroke-width:10;stroke-linecap:square;stroke-linejoin:miter;stroke-miterlimit:3.25;stroke-dasharray:none;stroke-opacity:1"
         transform="matrix(0.13333333,0,0,-0.13333333,0,186.18667)" />
      <path
         id="path16"
         d="M 3.4566031,0.00135938 V -0.24473437 C 2.6362906,-0.30332812 2.5776969,-0.37364062 2.5776969,-1.0298906 v -4.6875 c -0.4921875,0.1992187 -1.0195313,0.375 -1.59375002,0.46875 v 0.2109375 l 0.43359372,0.011719 c 0.3867188,0.023437 0.421875,0.070312 0.421875,0.5390625 v 3.4570313 c 0,0.65624998 -0.035156,0.72656248 -0.85546872,0.78515623 V 0.00135938 Z M -20.206483,-107.99864 v -0.24609 c -0.820312,-0.0586 -0.878906,-0.12891 -0.878906,-0.78516 v -4.6875 c -0.492188,0.19922 -1.019531,0.375 -1.59375,0.46875 v 0.21094 l 0.433594,0.0117 c 0.386718,0.0234 0.421875,0.0703 0.421875,0.53906 v 3.45703 c 0,0.65625 -0.03516,0.72656 -0.855469,0.78516 v 0.24609 z m 1.415039,0.10547 c 0.28125,0 0.503907,-0.19922 0.503907,-0.51563 0,-0.29297 -0.222657,-0.51562 -0.503907,-0.51562 -0.292968,0 -0.503906,0.22265 -0.503906,0.51562 0,0.31641 0.210938,0.51563 0.503906,0.51563 z m 2.950196,-5.82422 c -1.347657,0 -1.839844,1.60547 -1.839844,2.91797 0,1.41797 0.480469,2.90625 1.839844,2.90625 1.359375,0 1.828125,-1.59375 1.828125,-2.91797 0,-1.38281 -0.46875,-2.90625 -1.828125,-2.90625 z m 0,0.30469 c 0.808593,0 1.03125,1.32422 1.03125,2.60156 0,1.26562 -0.222657,2.61328 -1.03125,2.61328 -0.773438,0 -1.042969,-1.35937 -1.042969,-2.61328 0,-1.25391 0.222656,-2.60156 1.042969,-2.60156 z m 3.83789,-0.30469 c -1.347656,0 -1.839844,1.60547 -1.839844,2.91797 0,1.41797 0.480469,2.90625 1.839844,2.90625 1.359375,0 1.828125,-1.59375 1.828125,-2.91797 0,-1.38281 -0.46875,-2.90625 -1.828125,-2.90625 z m 0,0.30469 c 0.808594,0 1.03125,1.32422 1.03125,2.60156 0,1.26562 -0.222656,2.61328 -1.03125,2.61328 -0.773437,0 -1.042969,-1.35937 -1.042969,-2.61328 0,-1.25391 0.222657,-2.60156 1.042969,-2.60156 z m -9.503906,24.433591 c -1.347656,0 -1.839844,1.605468 -1.839844,2.917968 0,1.417969 0.480469,2.90625 1.839844,2.90625 1.359375,0 1.828125,-1.59375 1.828125,-2.917968 0,-1.382813 -0.46875,-2.90625 -1.828125,-2.90625 z m 0,0.304687 c 0.808594,0 1.03125,1.324219 1.03125,2.601563 0,1.265625 -0.222656,2.613281 -1.03125,2.613281 -0.773438,0 -1.042969,-1.359375 -1.042969,-2.613281 0,-1.253907 0.222656,-2.601563 1.042969,-2.601563 z m 2.71582,5.519531 c 0.28125,0 0.503907,-0.199218 0.503907,-0.515625 0,-0.292968 -0.222657,-0.515625 -0.503907,-0.515625 -0.292968,0 -0.503906,0.222657 -0.503906,0.515625 0,0.316407 0.210938,0.515625 0.503906,0.515625 z m 4.813477,-5.707031 h -3.433594 c -0.03516,0.386719 -0.08203,0.832031 -0.164062,1.324219 h 0.257812 c 0.222656,-0.585938 0.269531,-0.667969 0.867188,-0.667969 h 1.945312 c -0.714844,1.558594 -1.722656,3.421875 -2.671875,4.957031 l 0.05859,0.09375 0.667969,-0.08203 c 0.867187,-1.863281 1.699218,-3.691406 2.542968,-5.519531 z m 1.189453,0.65625 h 2.097656 l 0.234375,-0.585937 -0.05859,-0.07031 h -2.566406 l -0.351562,2.742188 c 0.210937,-0.08203 0.550781,-0.1875 0.925781,-0.1875 0.984375,0 1.464844,0.574218 1.464844,1.359375 0,0.679687 -0.375,1.335937 -1.136719,1.335937 -0.550781,0 -0.914063,-0.292969 -1.113281,-0.457031 -0.08203,-0.07031 -0.152344,-0.05859 -0.234375,0 -0.105469,0.09375 -0.1875,0.210937 -0.1875,0.292969 -0.02344,0.105468 0.02344,0.1875 0.140625,0.304687 0.128906,0.128906 0.515625,0.316406 0.925781,0.316406 0.480469,-0.01172 1.078125,-0.246093 1.570312,-0.632812 0.550782,-0.457031 0.796875,-0.960938 0.796875,-1.511719 0,-0.738281 -0.585937,-1.511719 -1.734375,-1.511719 -0.246093,0 -0.667968,0.140625 -1.007812,0.269532 z m -8.71875,23.967774 c -1.347656,0 -1.839844,1.605468 -1.839844,2.917968 0,1.417969 0.480469,2.90625 1.839844,2.90625 1.359375,0 1.828125,-1.59375 1.828125,-2.917968 0,-1.382813 -0.46875,-2.90625 -1.828125,-2.90625 z m 0,0.304687 c 0.808594,0 1.03125,1.324219 1.03125,2.601563 0,1.265625 -0.222656,2.613281 -1.03125,2.613281 -0.773438,0 -1.042969,-1.359375 -1.042969,-2.613281 0,-1.253907 0.222656,-2.601563 1.042969,-2.601563 z m 2.71582,5.519531 c 0.28125,0 0.503907,-0.199218 0.503907,-0.515625 0,-0.292968 -0.222657,-0.515625 -0.503907,-0.515625 -0.292968,0 -0.503906,0.222657 -0.503906,0.515625 0,0.316407 0.210938,0.515625 0.503906,0.515625 z m 2.165039,-5.050781 h 2.097657 l 0.234375,-0.585937 -0.05859,-0.07031 h -2.566406 l -0.351563,2.742188 c 0.210938,-0.08203 0.550781,-0.1875 0.925781,-0.1875 0.984375,0 1.464844,0.574218 1.464844,1.359375 0,0.679687 -0.375,1.335937 -1.136719,1.335937 -0.550781,0 -0.914062,-0.292969 -1.113281,-0.457031 -0.08203,-0.07031 -0.152344,-0.05859 -0.234375,0 -0.105469,0.09375 -0.1875,0.210937 -0.1875,0.292969 -0.02344,0.105468 0.02344,0.1875 0.140625,0.304687 0.128906,0.128906 0.515625,0.316406 0.925781,0.316406 0.480469,-0.01172 1.078125,-0.246093 1.570313,-0.632812 0.550781,-0.457031 0.796875,-0.960938 0.796875,-1.511719 0,-0.738281 -0.585938,-1.511719 -1.734375,-1.511719 -0.246094,0 -0.667969,0.140625 -1.007813,0.269532 z m 4.623047,-0.773437 c -1.347656,0 -1.839844,1.605468 -1.839844,2.917968 0,1.417969 0.480469,2.90625 1.839844,2.90625 1.359375,0 1.828125,-1.59375 1.828125,-2.917968 0,-1.382813 -0.46875,-2.90625 -1.828125,-2.90625 z m 0,0.304687 c 0.808594,0 1.03125,1.324219 1.03125,2.601563 0,1.265625 -0.222656,2.613281 -1.03125,2.613281 -0.773437,0 -1.042969,-1.359375 -1.042969,-2.613281 0,-1.253907 0.222657,-2.601563 1.042969,-2.601563 z m -9.503906,24.433594 c -1.347656,0 -1.839844,1.605469 -1.839844,2.917969 0,1.417968 0.480469,2.90625 1.839844,2.90625 1.359375,0 1.828125,-1.59375 1.828125,-2.917969 0,-1.382813 -0.46875,-2.90625 -1.828125,-2.90625 z m 0,0.304687 c 0.808594,0 1.03125,1.324219 1.03125,2.601563 0,1.265625 -0.222656,2.613281 -1.03125,2.613281 -0.773438,0 -1.042969,-1.359375 -1.042969,-2.613281 0,-1.253906 0.222656,-2.601563 1.042969,-2.601563 z m 2.71582,5.519532 c 0.28125,0 0.503907,-0.199219 0.503907,-0.515625 0,-0.292969 -0.222657,-0.515625 -0.503907,-0.515625 -0.292968,0 -0.503906,0.222656 -0.503906,0.515625 0,0.316406 0.210938,0.515625 0.503906,0.515625 z m 4.497071,-1.371094 c -0.269532,0.574219 -0.386719,0.609375 -0.867188,0.609375 h -1.6875 l 1.277344,-1.335938 c 0.832031,-0.890625 1.195312,-1.417968 1.195312,-2.203125 0,-0.949218 -0.726562,-1.523437 -1.511718,-1.523437 -0.527344,0 -0.949219,0.234375 -1.21875,0.539062 l -0.515625,0.726563 0.199218,0.175781 c 0.234375,-0.351562 0.609375,-0.832031 1.230469,-0.832031 0.65625,0 1.054688,0.433594 1.054688,1.195312 0,0.773438 -0.5625,1.511719 -1.125,2.179688 -0.445313,0.515625 -0.949219,1.03125 -1.453125,1.523437 v 0.210938 h 3.363281 c 0.105469,-0.410156 0.199219,-0.796875 0.316406,-1.183594 z m 1.505859,-3.679688 h 2.097656 l 0.234375,-0.585937 -0.05859,-0.07031 h -2.566406 l -0.351562,2.742188 c 0.210937,-0.08203 0.550781,-0.1875 0.925781,-0.1875 0.984375,0 1.464844,0.574219 1.464844,1.359375 0,0.679687 -0.375,1.335937 -1.136719,1.335937 -0.550781,0 -0.914063,-0.292968 -1.113281,-0.457031 -0.08203,-0.07031 -0.152344,-0.05859 -0.234375,0 -0.105469,0.09375 -0.1875,0.210938 -0.1875,0.292969 -0.02344,0.105469 0.02344,0.1875 0.140625,0.304687 0.128906,0.128907 0.515625,0.316407 0.925781,0.316407 0.480469,-0.01172 1.078125,-0.246094 1.570312,-0.632813 0.550782,-0.457031 0.796875,-0.960937 0.796875,-1.511719 0,-0.738281 -0.585937,-1.511718 -1.734375,-1.511718 -0.246093,0 -0.667968,0.140625 -1.007812,0.269531 z m 66.834961,33.0087894 c -0.960938,0 -1.59375,0.7265625 -1.59375,1.4765625 0,0.6328125 0.386719,1.0664062 0.972656,1.3945312 -0.304687,0.1992188 -0.65625,0.4453125 -0.796875,0.5742188 -0.199219,0.1992187 -0.398437,0.4453125 -0.398437,0.8554687 0,0.97265628 0.761718,1.52343753 1.722656,1.52343753 0.761719,0 1.78125,-0.57421875 1.78125,-1.62890623 0,-0.7851563 -0.5625,-1.2070313 -1.183594,-1.5585938 0.398438,-0.28125 0.644531,-0.5039062 0.703125,-0.5859375 0.175781,-0.1875 0.269531,-0.4570312 0.269531,-0.7148437 0,-0.7265625 -0.621093,-1.3359375 -1.476562,-1.3359375 z m -0.08203,0.2929687 c 0.410156,0 0.878906,0.328125 0.878906,1.0898438 0,0.5390625 -0.246094,0.8671875 -0.550781,1.1132812 -0.632813,-0.3164062 -1.171875,-0.609375 -1.171875,-1.2773437 0,-0.4570313 0.304687,-0.9257813 0.84375,-0.9257813 z m 0.08203,5.25000003 c -0.574219,0 -1.101563,-0.46875 -1.101563,-1.28906253 0,-0.4921875 0.304688,-0.9492187 0.738282,-1.2304687 0.691406,0.3515625 1.335937,0.7382812 1.335937,1.40625 0,0.69140623 -0.421875,1.11328123 -0.972656,1.11328123 z M 102.95172,-3.0806719 c 0.26953,-1.2539062 1.11328,-1.828125 1.66406,-2.0859375 0.32813,-0.1523437 0.67969,-0.2578125 0.97266,-0.3164062 l -0.0586,-0.28125 c -0.36329,0.058594 -0.79688,0.1640625 -1.14844,0.28125 -0.96094,0.3515625 -2.33203,1.3710937 -2.33203,3.3398437 0,1.38281253 0.79687,2.25000003 1.85156,2.25000003 1.07812,0 1.83984,-0.90234375 1.83984,-1.98046873 0,-0.9257813 -0.65625,-1.6640625 -1.61718,-1.6640625 -0.17579,0 -0.36329,0.070312 -0.5625,0.1523437 z m 0.82031,0.046875 c 0.82032,0 1.19532,0.7382813 1.19532,1.4882813 0,0.59765623 -0.21094,1.34765623 -0.91407,1.34765623 -0.73828,0 -1.19531,-0.87890623 -1.19531,-1.95703123 0,-0.234375 0.0117,-0.4570313 0.0469,-0.6210938 0.22265,-0.1171875 0.52734,-0.2578125 0.86718,-0.2578125 z m 5.88867,1.4296875 v -0.421875 h -0.86718 v -3.65625 h -0.35157 c -0.92578,1.21875 -1.85156,2.5546875 -2.70703,3.8320313 v 0.2460937 h 2.34375 v 0.65625003 c 0,0.5859375 -0.0352,0.64453125 -0.82031,0.703125 v 0.24609375 h 2.30859 v -0.24609375 c -0.72656,-0.0585937 -0.77343,-0.10546875 -0.77343,-0.703125 V -1.6041094 Z m -1.58203,-0.421875 h -1.76953 c 0.58594,-0.9960937 1.17188,-1.8515625 1.75781,-2.6484375 h 0.0117 z M 64.965392,8.6263594 h -2.285156 v 0.2460937 c 0.890625,0.070312 0.949219,0.1171875 0.949219,0.7734375 v 0.7617184 c 0,0.375 -0.105469,0.480469 -0.292969,0.585938 -0.1875,0.09375 -0.46875,0.164062 -0.773438,0.164062 -1.746093,0 -2.507812,-1.5117184 -2.507812,-2.8124996 0,-1.6640625 1.007812,-2.671875 2.390625,-2.671875 0.855469,0 1.535156,0.2929687 1.746094,1.3945312 l 0.257812,-0.058594 C 64.379455,6.4232344 64.33258,5.9193281 64.309142,5.6146406 64.016173,5.5443281 63.324767,5.3451094 62.574767,5.3451094 c -1.757812,0 -3.433594,1.0195312 -3.433594,3.1054687 0,1.7812499 1.324219,3.0234379 3.304688,3.0234379 0.714844,0 1.453125,-0.199219 2.015625,-0.339844 -0.05859,-0.246094 -0.07031,-0.527344 -0.07031,-0.84375 V 9.5287031 c 0,-0.5390625 0.03516,-0.5859375 0.574219,-0.65625 z m 1.87793,-0.375 v -0.984375 c -0.433594,0.1875 -0.832031,0.2929687 -1.265625,0.3632812 v 0.1992188 c 0.503906,0.070312 0.550781,0.1054687 0.550781,0.703125 v 1.8632816 c 0,0.597656 -0.05859,0.644531 -0.621094,0.703125 v 0.234375 h 2.074219 v -0.234375 c -0.691406,-0.05859 -0.738281,-0.105469 -0.738281,-0.703125 V 8.7552656 c 0.199219,-0.5039062 0.480469,-0.7734375 0.714844,-0.7734375 0.152343,0 0.257812,0.046875 0.386718,0.1875 0.04687,0.046875 0.128907,0.058594 0.234375,0.011719 0.175782,-0.082031 0.292969,-0.2578125 0.292969,-0.4335938 0,-0.2226562 -0.210937,-0.4570312 -0.527344,-0.4570312 -0.421875,0 -0.808593,0.5039062 -1.078125,0.9609375 z m 3.140625,-1.7460938 c 0.257812,0 0.457031,-0.2109375 0.457031,-0.4570312 0,-0.2695313 -0.199219,-0.46875 -0.457031,-0.46875 -0.234375,0 -0.457031,0.1992187 -0.457031,0.46875 0,0.2460937 0.222656,0.4570312 0.457031,0.4570312 z m 1.054687,4.8281254 v -0.234375 c -0.585937,-0.05859 -0.644531,-0.105469 -0.644531,-0.714844 V 7.2787031 c -0.398437,0.1523438 -0.820312,0.2695313 -1.277344,0.3515625 v 0.2109375 c 0.539063,0.09375 0.5625,0.1289063 0.5625,0.6796875 v 1.8632814 c 0,0.609375 -0.05859,0.65625 -0.621093,0.714844 v 0.234375 z m 4.769532,-0.457032 -0.292969,-0.02344 c -0.328125,-0.04687 -0.386719,-0.08203 -0.386719,-0.550781 V 4.9232344 c -0.339844,0.1171875 -0.9375,0.2578125 -1.40625,0.3164062 v 0.2109375 c 0.644531,0.046875 0.691406,0.082031 0.691406,0.6679688 v 1.2773437 c -0.210937,-0.082031 -0.46875,-0.1054687 -0.597656,-0.1054687 -1.21875,0 -2.320312,0.984375 -2.320312,2.2382812 0,1.2539059 0.949218,1.9101559 1.664062,1.9101559 0.105469,0 0.351563,-0.04687 0.703125,-0.257812 l 0.550781,-0.328125 v 0.585937 c 0.527344,-0.1875 1.195313,-0.304687 1.394532,-0.339843 z m -1.394532,-0.304687 c -0.210937,0.164062 -0.539062,0.304687 -0.867187,0.304687 -0.574219,0 -1.230469,-0.527343 -1.230469,-1.5937496 0,-1.3007813 0.761719,-1.6523438 1.171875,-1.6523438 0.339844,0 0.714844,0.140625 0.925781,0.4570313 z m 5.165039,-2.3203126 v -0.984375 c -0.433593,0.1875 -0.832031,0.2929687 -1.265625,0.3632812 v 0.1992188 c 0.503907,0.070312 0.550782,0.1054687 0.550782,0.703125 v 1.8632816 c 0,0.597656 -0.05859,0.644531 -0.621094,0.703125 v 0.234375 h 2.074219 v -0.234375 c -0.691407,-0.05859 -0.738282,-0.105469 -0.738282,-0.703125 V 8.7552656 c 0.199219,-0.5039062 0.480469,-0.7734375 0.714844,-0.7734375 0.152344,0 0.257813,0.046875 0.386719,0.1875 0.04687,0.046875 0.128906,0.058594 0.234375,0.011719 0.175781,-0.082031 0.292969,-0.2578125 0.292969,-0.4335938 0,-0.2226562 -0.210938,-0.4570312 -0.527344,-0.4570312 -0.421875,0 -0.808594,0.5039062 -1.078125,0.9609375 z m 5.106446,2.1328126 c -0.328125,0.304687 -0.667969,0.445312 -1.019532,0.445312 -0.632812,0 -1.335937,-0.503906 -1.347656,-1.7226559 1.066406,-0.046875 2.191406,-0.1289062 2.355469,-0.1640625 0.152344,-0.035156 0.199219,-0.1054687 0.199219,-0.28125 0,-0.703125 -0.597657,-1.3710937 -1.347657,-1.3710937 -0.46875,0 -0.949218,0.2460937 -1.324218,0.65625 -0.363282,0.4101562 -0.597657,0.9609375 -0.597657,1.5820312 0,1.0078129 0.65625,1.9101559 1.757813,1.9101559 0.28125,0 0.902344,-0.164062 1.464844,-0.867187 z M 83.314025,7.6302656 c 0.492187,0 0.796875,0.421875 0.785156,0.890625 0,0.1289063 -0.04687,0.1875 -0.210937,0.1875 -0.527344,0.011719 -1.019532,0.023437 -1.523438,0.023437 0.128906,-0.7265625 0.527344,-1.1015625 0.949219,-1.101562 z m 4.801758,0.7734375 c -0.03516,-0.2226562 -0.128906,-0.75 -0.199219,-0.9609375 -0.1875,-0.070312 -0.433594,-0.1523437 -0.796875,-0.1523437 -0.832031,0 -1.371094,0.5273437 -1.371094,1.1601562 0,0.6914063 0.585938,0.9960938 1.125,1.2421875 0.445313,0.2109375 0.703125,0.4218754 0.703125,0.8203124 0,0.375 -0.304687,0.632813 -0.632812,0.632813 -0.539063,0 -0.949219,-0.527344 -1.113281,-1.113282 l -0.234375,0.03516 c 0,0.328125 0.08203,0.9375 0.152343,1.066406 0.164063,0.140625 0.574219,0.304687 1.03125,0.304687 0.726563,0 1.488282,-0.421875 1.488282,-1.242187 0,-0.6210939 -0.457032,-0.9375001 -1.136719,-1.2187501 -0.410156,-0.1757813 -0.761719,-0.375 -0.761719,-0.7851563 0,-0.3515625 0.246094,-0.6210937 0.585938,-0.6210937 0.433593,0 0.75,0.3632812 0.925781,0.890625 z M 90.95758,7.2904219 c -0.820313,0 -1.980469,0.6796875 -1.980469,2.15625 0,1.0078121 0.738281,1.9921871 1.980469,1.9921871 0.890625,0 1.945312,-0.691406 1.945312,-2.1445309 0,-1.1132812 -0.832031,-2.0039062 -1.945312,-2.0039062 z m -0.09375,0.3046875 c 0.785156,0 1.207031,0.84375 1.207031,1.8984375 0,1.2421871 -0.457031,1.6523441 -1.019531,1.6523441 -0.738282,0 -1.230469,-0.84375 -1.230469,-1.9804691 0,-1.0195313 0.480469,-1.5703125 1.042969,-1.5703125 z m 4.511718,3.7382816 v -0.234375 c -0.574218,-0.05859 -0.65625,-0.105469 -0.65625,-0.703125 V 4.9232344 C 94.414611,5.0287031 93.86383,5.1810469 93.39508,5.2396406 v 0.2109375 c 0.5625,0.046875 0.621093,0.082031 0.621093,0.6914063 v 4.2539066 c 0,0.597656 -0.08203,0.644531 -0.644531,0.703125 v 0.234375 z m 4.713872,-0.445313 -0.257817,-0.01172 c -0.339844,-0.02344 -0.410156,-0.08203 -0.410156,-0.527343 V 7.3372969 c -0.480469,0.09375 -0.949219,0.140625 -1.417969,0.1640625 v 0.1992187 c 0.65625,0.09375 0.703125,0.1289063 0.703125,0.6445313 v 2.0976566 c -0.304687,0.292968 -0.644531,0.433593 -0.972656,0.433593 -0.398438,0 -0.785156,-0.222656 -0.785156,-1.0195309 V 8.6497969 c 0,-0.609375 0,-1.03125 0.02344,-1.3125 -0.433594,0.082031 -0.867187,0.140625 -1.289062,0.1640625 v 0.1992187 c 0.515625,0.1054688 0.550781,0.140625 0.550781,0.6328125 v 1.7695314 c 0,0.972656 0.515625,1.335937 1.113281,1.335937 0.246094,0 0.433594,-0.07031 0.691406,-0.222656 0.257813,-0.152344 0.46875,-0.316406 0.667969,-0.46875 v 0.644531 l 0.05859,0.04687 c 0.445312,-0.128906 0.902344,-0.257812 1.324224,-0.316406 z m 2.77734,0.117188 -0.082,-0.234375 c -0.12891,0.07031 -0.32813,0.152343 -0.5625,0.152343 -0.22266,0 -0.51563,-0.128906 -0.51563,-0.855468 V 7.7474531 h 0.96094 c 0.10547,-0.058594 0.12891,-0.2578125 0.0586,-0.3515625 H 101.7066 V 6.1654219 l -0.1289,-0.011719 -0.58594,0.5859375 v 0.65625 h -0.41016 l -0.24609,0.2695313 0.0352,0.082031 h 0.62109 v 2.6250003 c 0,0.703125 0.31641,1.066406 0.87891,1.066406 0.082,0 0.23437,-0.03516 0.38671,-0.117187 z m 1.5293,-4.5000004 c 0.25781,0 0.45703,-0.2109375 0.45703,-0.4570312 0,-0.2695313 -0.19922,-0.46875 -0.45703,-0.46875 -0.23438,0 -0.45703,0.1992187 -0.45703,0.46875 0,0.2460937 0.22265,0.4570312 0.45703,0.4570312 z m 1.05468,4.8281254 v -0.234375 c -0.58593,-0.05859 -0.64453,-0.105469 -0.64453,-0.714844 V 7.2787031 c -0.39843,0.1523438 -0.82031,0.2695313 -1.27734,0.3515625 v 0.2109375 c 0.53906,0.09375 0.5625,0.1289063 0.5625,0.6796875 v 1.8632814 c 0,0.609375 -0.0586,0.65625 -0.62109,0.714844 v 0.234375 z m 2.42871,-4.0429691 c -0.82031,0 -1.98046,0.6796875 -1.98046,2.15625 0,1.0078121 0.73828,1.9921871 1.98046,1.9921871 0.89063,0 1.94532,-0.691406 1.94532,-2.1445309 0,-1.1132812 -0.83203,-2.0039062 -1.94532,-2.0039062 z m -0.0937,0.3046875 c 0.78516,0 1.20704,0.84375 1.20704,1.8984375 0,1.2421871 -0.45704,1.6523441 -1.01954,1.6523441 -0.73828,0 -1.23046,-0.84375 -1.23046,-1.9804691 0,-1.0195313 0.48046,-1.5703125 1.04296,-1.5703125 z m 7.04883,3.7382816 v -0.234375 c -0.52734,-0.05859 -0.57422,-0.09375 -0.57422,-0.703125 V 8.6615156 c 0,-0.8789062 -0.44531,-1.3710937 -1.16015,-1.3710937 -0.25781,0 -0.49219,0.1054687 -0.75,0.2695312 -0.22266,0.1523438 -0.42188,0.2929688 -0.59766,0.421875 V 7.2669844 c -0.39844,0.1757812 -0.82031,0.28125 -1.2539,0.3632812 v 0.2109375 c 0.49218,0.09375 0.53906,0.1171875 0.53906,0.6914063 v 1.8632816 c 0,0.597656 -0.0469,0.644531 -0.65625,0.703125 v 0.234375 h 1.95703 v -0.234375 c -0.52734,-0.05859 -0.58594,-0.09375 -0.58594,-0.703125 V 8.2865156 c 0.26953,-0.234375 0.6211,-0.46875 0.98438,-0.46875 0.59765,0 0.82031,0.4101563 0.82031,1.03125 v 1.5000004 c 0,0.621093 -0.0703,0.691406 -0.59766,0.75 v 0.234375 z m 0,0"
         style="fill:#231f20;fill-opacity:1;fill-rule:nonzero;stroke:none"
         aria-label="1&#10;1.00&#10;0.75&#10;0.50&#10;0.25&#10;864&#10;Grid resolution"
         transform="matrix(1.3333333,0,0,1.3333333,48.102133,166.756)" />
      <path
         id="path17"
         d="m 5.6841094,-0.16484437 c -0.1992188,-0.046875 -0.4101563,-0.15234375 -0.65625,-0.421875 C 4.8169219,-0.82109437 4.6294219,-1.0554694 4.3012969,-1.5242194 4.0317656,-1.9226569 3.6567656,-2.5320319 3.5044219,-2.8250006 c 0.6679687,-0.2929688 1.1367187,-0.7617188 1.1367187,-1.5351563 0,-0.5507812 -0.234375,-0.9492187 -0.5859375,-1.1835937 C 3.7036406,-5.7664069 3.2700469,-5.8484381 2.6137969,-5.8484381 H 0.37551562 v 0.2460937 c 0.70312498,0.070312 0.77343748,0.09375 0.77343748,0.8554688 v 3.6210937 c 0,0.76171878 -0.082031,0.82031253 -0.82031248,0.86718753 V -7.81875e-4 H 2.6958281 V -0.25859437 c -0.7148437,-0.046875 -0.796875,-0.10546875 -0.796875,-0.86718753 v -1.4296875 h 0.2929688 c 0.46875,0 0.6210937,0.1054688 0.7734375,0.3632813 0.2695312,0.4335937 0.5859375,0.9960937 0.9023437,1.42968748 0.4101563,0.5859375 0.7851563,0.78515625 1.4648438,0.8203125 0.1054687,0.01171875 0.1992187,0.01171875 0.3164062,0.01171875 z M 1.8989531,-2.8484381 v -2.2148438 c 0,-0.2460937 0.035156,-0.3515625 0.09375,-0.3984375 0.082031,-0.058594 0.234375,-0.09375 0.4921875,-0.09375 0.6796875,0 1.3242188,0.3632813 1.3242188,1.3359375 0,0.4804688 -0.140625,0.84375 -0.4921875,1.1132813 -0.234375,0.1757812 -0.5273438,0.2578125 -0.984375,0.2578125 z m 7.1455078,1.89843748 c -0.328125,0.3046875 -0.6679687,0.4453125 -1.0195312,0.4453125 -0.6328125,0 -1.3359375,-0.50390628 -1.3476563,-1.72265628 1.0664063,-0.046875 2.1914063,-0.1289062 2.3554688,-0.1640625 0.1523437,-0.035156 0.1992187,-0.1054687 0.1992187,-0.28125 0,-0.703125 -0.5976562,-1.3710937 -1.3476562,-1.3710937 -0.46875,0 -0.9492188,0.2460937 -1.3242188,0.65625 -0.3632812,0.4101562 -0.5976562,0.9609375 -0.5976562,1.5820312 0,1.00781253 0.65625,1.91015628 1.7578125,1.91015628 0.28125,0 0.9023437,-0.1640625 1.4648437,-0.8671875 z M 7.6733672,-3.7039069 c 0.4921875,0 0.796875,0.421875 0.7851562,0.890625 0,0.1289063 -0.046875,0.1875 -0.2109375,0.1875 -0.5273437,0.011719 -1.0195312,0.023437 -1.5234375,0.023437 0.1289063,-0.7265625 0.5273438,-1.1015625 0.9492188,-1.101562 z M 11.657742,-7.81875e-4 V -0.23515687 c -0.574219,-0.0585938 -0.65625,-0.10546875 -0.65625,-0.703125 V -6.4109381 c -0.304687,0.1054687 -0.855469,0.2578125 -1.3242186,0.3164062 v 0.2109375 c 0.5624996,0.046875 0.6210936,0.082031 0.6210936,0.6914063 v 4.25390623 c 0,0.59765625 -0.08203,0.64453125 -0.6445311,0.703125 v 0.234374995 z m 4.12207,-0.351562495 -0.09375,-0.234375 c -0.09375,0.0585938 -0.222656,0.10546875 -0.328125,0.10546875 -0.152343,0 -0.316406,-0.140625 -0.316406,-0.55078128 v -1.6640625 c 0,-0.46875 -0.08203,-0.84375 -0.398437,-1.1015625 -0.199219,-0.1640625 -0.46875,-0.2460937 -0.738282,-0.2460937 -0.515625,0.1054687 -1.101562,0.4570312 -1.347656,0.6328125 -0.175781,0.1289062 -0.292969,0.2226562 -0.292969,0.3632812 0,0.1992188 0.234375,0.3867188 0.398438,0.3867188 0.128906,0 0.222656,-0.070312 0.257812,-0.2109375 0.07031,-0.28125 0.152344,-0.4804688 0.269532,-0.5976563 0.09375,-0.1054687 0.222656,-0.1757812 0.410156,-0.1757812 0.445312,0 0.75,0.3632812 0.75,1.0195312 v 0.1640625 c -0.199219,0.1523438 -0.855469,0.3984375 -1.394531,0.5742188 -0.492188,0.1757812 -0.726563,0.4570312 -0.726563,0.90234373 0,0.5625 0.445313,1.08984375 1.078125,1.08984375 0.269531,0 0.703125,-0.328125 1.066406,-0.57421875 0.04687,0.15234375 0.09375,0.28125 0.210938,0.41015625 0.105469,0.08203125 0.292969,0.1640625 0.421875,0.1640625 z m -1.429687,-0.41015625 c -0.164063,0.1640625 -0.480469,0.31640625 -0.714844,0.328125 -0.28125,0 -0.644531,-0.22265625 -0.644531,-0.69140628 0,-0.328125 0.199219,-0.4921875 0.550781,-0.65625 0.1875,-0.09375 0.621094,-0.28125 0.808594,-0.375 z m 4.148437,0.43359375 -0.08203,-0.234375 c -0.128906,0.0703125 -0.328125,0.15234375 -0.5625,0.15234375 -0.222656,0 -0.515625,-0.12890625 -0.515625,-0.85546878 v -2.3203125 h 0.960938 c 0.105468,-0.058594 0.128906,-0.2578125 0.05859,-0.3515625 h -1.019531 v -1.2304687 l -0.128906,-0.011719 -0.585938,0.5859375 v 0.65625 h -0.410156 l -0.246094,0.2695313 0.03516,0.082031 h 0.621093 v 2.62500003 c 0,0.703125 0.316407,1.06640625 0.878907,1.06640625 0.08203,0 0.234375,-0.03515625 0.386718,-0.1171875 z m 1.529297,-4.50000003 c 0.257813,0 0.457032,-0.2109375 0.457032,-0.4570312 0,-0.2695313 -0.199219,-0.46875 -0.457032,-0.46875 -0.234375,0 -0.457031,0.1992187 -0.457031,0.46875 0,0.2460937 0.222656,0.4570312 0.457031,0.4570312 z m 1.054688,4.828125025 V -0.23515687 c -0.585938,-0.0585938 -0.644531,-0.10546875 -0.644531,-0.71484375 V -4.0554694 c -0.398438,0.1523438 -0.820313,0.2695313 -1.277344,0.3515625 v 0.2109375 c 0.539062,0.09375 0.5625,0.1289063 0.5625,0.6796875 v 1.86328128 c 0,0.609375 -0.05859,0.65625 -0.621094,0.71484375 V -7.81875e-4 Z M 25.564969,-3.9382819 h -1.59375 v 0.234375 c 0.503906,0.058594 0.5625,0.1523438 0.421875,0.5859375 -0.1875,0.5859375 -0.480469,1.40625 -0.796875,2.15625003 -0.257813,-0.64453123 -0.621094,-1.59375003 -0.855469,-2.22656253 -0.140625,-0.3867187 -0.128906,-0.4570312 0.363281,-0.515625 v -0.234375 h -1.851562 v 0.234375 c 0.492187,0.070312 0.5625,0.1289063 0.773437,0.65625 0.421875,1.0429688 0.832031,2.06250003 1.242188,3.14062503 h 0.234375 c 0.503906,-1.33593753 0.972656,-2.43750003 1.277343,-3.11718753 0.234375,-0.5390625 0.316407,-0.6210937 0.785157,-0.6796875 z m 3.246093,2.98828128 c -0.328125,0.3046875 -0.667968,0.4453125 -1.019531,0.4453125 -0.632812,0 -1.335937,-0.50390628 -1.347656,-1.72265628 1.066406,-0.046875 2.191406,-0.1289062 2.355469,-0.1640625 0.152343,-0.035156 0.199218,-0.1054687 0.199218,-0.28125 0,-0.703125 -0.597656,-1.3710937 -1.347656,-1.3710937 -0.46875,0 -0.949219,0.2460937 -1.324219,0.65625 -0.363281,0.4101562 -0.597656,0.9609375 -0.597656,1.5820312 0,1.00781253 0.65625,1.91015628 1.757813,1.91015628 0.28125,0 0.902343,-0.1640625 1.464843,-0.8671875 z M 27.439969,-3.7039069 c 0.492187,0 0.796875,0.421875 0.785156,0.890625 0,0.1289063 -0.04687,0.1875 -0.210938,0.1875 -0.527343,0.011719 -1.019531,0.023437 -1.523437,0.023437 0.128906,-0.7265625 0.527344,-1.1015625 0.949219,-1.101562 z m 7.239258,2.75390628 c -0.328125,0.3046875 -0.667969,0.4453125 -1.019532,0.4453125 -0.632812,0 -1.335937,-0.50390628 -1.347656,-1.72265628 1.066406,-0.046875 2.191406,-0.1289062 2.355469,-0.1640625 0.152344,-0.035156 0.199219,-0.1054687 0.199219,-0.28125 0,-0.703125 -0.597657,-1.3710937 -1.347657,-1.3710937 -0.46875,0 -0.949218,0.2460937 -1.324218,0.65625 -0.363282,0.4101562 -0.597657,0.9609375 -0.597657,1.5820312 0,1.00781253 0.65625,1.91015628 1.757813,1.91015628 0.28125,0 0.902344,-0.1640625 1.464844,-0.8671875 z M 33.308133,-3.7039069 c 0.492187,0 0.796875,0.421875 0.785156,0.890625 0,0.1289063 -0.04687,0.1875 -0.210937,0.1875 -0.527344,0.011719 -1.019532,0.023437 -1.523438,0.023437 0.128906,-0.7265625 0.527344,-1.1015625 0.949219,-1.101562 z m 6.164062,3.703125025 V -0.23515687 c -0.550781,-0.0703125 -0.65625,-0.15234375 -0.996093,-0.66796875 L 37.597195,-2.2273444 c 0.292969,-0.4453125 0.527344,-0.7734375 0.703125,-0.9960937 0.328125,-0.375 0.445313,-0.421875 0.984375,-0.4804688 v -0.234375 h -1.628906 v 0.234375 c 0.386719,0.035156 0.445313,0.082031 0.28125,0.375 -0.164062,0.2929688 -0.339844,0.5742188 -0.515625,0.8320313 l -0.539062,-0.8203125 c -0.152344,-0.2578125 -0.128907,-0.3398438 0.257812,-0.3867188 v -0.234375 h -1.804687 v 0.234375 c 0.503906,0.058594 0.621093,0.1289063 0.890625,0.5742188 l 0.773437,1.21875 c -0.257812,0.4101562 -0.503906,0.7617187 -0.75,1.07812498 -0.363281,0.45703125 -0.457031,0.52734375 -1.019531,0.59765625 v 0.234374995 h 1.6875 V -0.23515687 c -0.46875,-0.0703125 -0.492188,-0.15234375 -0.316406,-0.45703125 0.164062,-0.32812498 0.375,-0.65624998 0.574218,-0.96093748 l 0.667969,1.05468748 c 0.152344,0.24609375 0.08203,0.31640625 -0.304687,0.36328125 v 0.234374995 z m 3.389649,-0.949218745 c -0.328125,0.3046875 -0.667969,0.4453125 -1.019532,0.4453125 -0.632812,0 -1.335937,-0.50390628 -1.347656,-1.72265628 1.066406,-0.046875 2.191406,-0.1289062 2.355469,-0.1640625 0.152344,-0.035156 0.199219,-0.1054687 0.199219,-0.28125 0,-0.703125 -0.597657,-1.3710937 -1.347657,-1.3710937 -0.46875,0 -0.949218,0.2460937 -1.324218,0.65625 -0.363282,0.4101562 -0.597657,0.9609375 -0.597657,1.5820312 0,1.00781253 0.65625,1.91015628 1.757813,1.91015628 0.28125,0 0.902344,-0.1640625 1.464844,-0.8671875 z M 41.49075,-3.7039069 c 0.492187,0 0.796875,0.421875 0.785156,0.890625 0,0.1289063 -0.04687,0.1875 -0.210937,0.1875 -0.527344,0.011719 -1.019532,0.023437 -1.523438,0.023437 0.128906,-0.7265625 0.527344,-1.1015625 0.949219,-1.101562 z m 5.405273,2.70703128 c -0.410156,0.38671875 -0.703125,0.4921875 -1.089843,0.4921875 -0.503907,0 -1.359375,-0.41015625 -1.359375,-1.66406248 0,-0.9492188 0.515625,-1.4414063 1.113281,-1.4414063 0.316406,0 0.632812,0.1171875 0.902344,0.375 0.08203,0.070312 0.117187,0.09375 0.164062,0.09375 0.105469,0 0.304688,-0.1992187 0.304688,-0.3867187 0,-0.1054688 -0.03516,-0.1757813 -0.152344,-0.28125 -0.140625,-0.1171875 -0.433594,-0.234375 -0.796875,-0.234375 -0.351563,0 -0.890625,0.140625 -1.359375,0.5039062 -0.597656,0.46875 -0.902344,1.078125 -0.902344,1.7695313 0,0.96093748 0.667969,1.87499998 1.804688,1.87499998 0.527343,0 1.136718,-0.3984375 1.523437,-0.9140625 z m 5.124024,0.55078125 -0.257813,-0.0117188 c -0.339843,-0.0234375 -0.410156,-0.0820312 -0.410156,-0.52734375 V -3.9968756 c -0.480469,0.09375 -0.949219,0.140625 -1.417969,0.1640625 v 0.1992187 c 0.65625,0.09375 0.703125,0.1289063 0.703125,0.6445313 v 2.09765623 c -0.304687,0.29296875 -0.644531,0.43359375 -0.972656,0.43359375 -0.398437,0 -0.785156,-0.22265625 -0.785156,-1.01953128 v -1.2070312 c 0,-0.609375 0,-1.03125 0.02344,-1.3125 -0.433593,0.082031 -0.867187,0.140625 -1.289062,0.1640625 v 0.1992187 c 0.515625,0.1054688 0.550781,0.140625 0.550781,0.6328125 v 1.7695313 c 0,0.97265623 0.515625,1.33593748 1.113281,1.33593748 0.246094,0 0.433594,-0.0703125 0.691407,-0.22265625 0.257812,-0.15234375 0.46875,-0.31640625 0.667968,-0.46875 v 0.64453125 l 0.05859,0.046875 c 0.445313,-0.12890625 0.902344,-0.2578125 1.324219,-0.31640625 z m 2.777344,0.1171875 -0.08203,-0.234375 c -0.128906,0.0703125 -0.328125,0.15234375 -0.5625,0.15234375 -0.222656,0 -0.515625,-0.12890625 -0.515625,-0.85546878 v -2.3203125 h 0.960938 c 0.105469,-0.058594 0.128906,-0.2578125 0.05859,-0.3515625 h -1.019532 v -1.2304687 l -0.128906,-0.011719 -0.585937,0.5859375 v 0.65625 h -0.410157 l -0.246093,0.2695313 0.03516,0.082031 h 0.621094 v 2.62500003 c 0,0.703125 0.316406,1.06640625 0.878906,1.06640625 0.08203,0 0.234375,-0.03515625 0.386719,-0.1171875 z m 1.529296,-4.50000003 c 0.257813,0 0.457032,-0.2109375 0.457032,-0.4570312 0,-0.2695313 -0.199219,-0.46875 -0.457032,-0.46875 -0.234375,0 -0.457031,0.1992187 -0.457031,0.46875 0,0.2460937 0.222656,0.4570312 0.457031,0.4570312 z m 1.054688,4.828125025 V -0.23515687 c -0.585938,-0.0585938 -0.644531,-0.10546875 -0.644531,-0.71484375 V -4.0554694 c -0.398438,0.1523438 -0.820313,0.2695313 -1.277344,0.3515625 v 0.2109375 c 0.539062,0.09375 0.5625,0.1289063 0.5625,0.6796875 v 1.86328128 c 0,0.609375 -0.05859,0.65625 -0.621094,0.71484375 V -7.81875e-4 Z M 59.813016,-4.0437506 c -0.820313,0 -1.980469,0.6796875 -1.980469,2.15625 0,1.00781248 0.738281,1.99218748 1.980469,1.99218748 0.890625,0 1.945312,-0.69140625 1.945312,-2.14453128 0,-1.1132812 -0.832031,-2.0039062 -1.945312,-2.0039062 z m -0.09375,0.3046875 c 0.785156,0 1.207031,0.84375 1.207031,1.8984375 0,1.24218748 -0.457031,1.65234373 -1.019531,1.65234373 -0.738282,0 -1.230469,-0.84375003 -1.230469,-1.98046873 0,-1.0195313 0.480469,-1.5703125 1.042969,-1.5703125 z m 7.045898,3.738281225 V -0.23515687 c -0.527344,-0.0585938 -0.574219,-0.09375 -0.574219,-0.703125 V -2.6726569 c 0,-0.8789062 -0.445312,-1.3710937 -1.160156,-1.3710937 -0.257812,0 -0.492187,0.1054687 -0.75,0.2695312 -0.222656,0.1523438 -0.421875,0.2929688 -0.597656,0.421875 v -0.7148437 c -0.398438,0.1757812 -0.820313,0.28125 -1.253906,0.3632812 v 0.2109375 c 0.492187,0.09375 0.539062,0.1171875 0.539062,0.6914063 v 1.86328123 c 0,0.59765625 -0.04687,0.64453125 -0.65625,0.703125 V -7.81875e-4 H 64.26907 V -0.23515687 c -0.527343,-0.0585938 -0.585937,-0.09375 -0.585937,-0.703125 V -3.0476569 c 0.269531,-0.234375 0.621094,-0.46875 0.984375,-0.46875 0.597656,0 0.820312,0.4101563 0.820312,1.03125 v 1.50000003 c 0,0.62109375 -0.07031,0.69140625 -0.597656,0.75 v 0.234374995 z m 4.939453,-0.328124995 -0.08203,-0.234375 c -0.128906,0.0703125 -0.328125,0.15234375 -0.5625,0.15234375 -0.222656,0 -0.515625,-0.12890625 -0.515625,-0.85546878 v -2.3203125 h 0.960937 c 0.105469,-0.058594 0.128907,-0.2578125 0.05859,-0.3515625 h -1.019531 v -1.2304687 l -0.128906,-0.011719 -0.585938,0.5859375 v 0.65625 h -0.410156 l -0.246094,0.2695313 0.03516,0.082031 h 0.621094 v 2.62500003 c 0,0.703125 0.316406,1.06640625 0.878906,1.06640625 0.08203,0 0.234375,-0.03515625 0.386719,-0.1171875 z m 1.529297,-4.50000003 c 0.257813,0 0.457031,-0.2109375 0.457031,-0.4570312 0,-0.2695313 -0.199218,-0.46875 -0.457031,-0.46875 -0.234375,0 -0.457031,0.1992187 -0.457031,0.46875 0,0.2460937 0.222656,0.4570312 0.457031,0.4570312 z m 1.054688,4.828125025 V -0.23515687 C 73.702664,-0.29375062 73.64407,-0.34062562 73.64407,-0.95000062 V -4.0554694 c -0.398437,0.1523438 -0.820312,0.2695313 -1.277343,0.3515625 v 0.2109375 c 0.539062,0.09375 0.5625,0.1289063 0.5625,0.6796875 v 1.86328128 c 0,0.609375 -0.05859,0.65625 -0.621094,0.71484375 v 0.234374995 z m 7.529296,0 V -0.23515687 c -0.503906,-0.0585938 -0.585937,-0.09375 -0.585937,-0.69140625 V -2.6609381 c 0,-0.890625 -0.433594,-1.3828125 -1.136719,-1.3828125 -0.257812,0 -0.492187,0.1054687 -0.679687,0.234375 -0.222657,0.140625 -0.480469,0.3046875 -0.738282,0.5039062 -0.1875,-0.46875 -0.574218,-0.7382812 -1.007812,-0.7382812 -0.28125,0 -0.503906,0.1054687 -0.738281,0.2460937 -0.269532,0.1640625 -0.46875,0.328125 -0.65625,0.4570313 v -0.7265625 c -0.398438,0.1757812 -0.855469,0.2929687 -1.253907,0.3632812 v 0.2109375 c 0.527344,0.082031 0.550782,0.1289063 0.550782,0.703125 v 1.86328128 c 0,0.5859375 -0.08203,0.6328125 -0.667969,0.69140625 v 0.234374995 h 1.898437 V -0.23515687 c -0.445312,-0.0585938 -0.515625,-0.10546875 -0.515625,-0.69140625 V -3.0476569 c 0.269532,-0.2226562 0.621094,-0.46875 0.984375,-0.46875 0.550782,0 0.785157,0.375 0.785157,1.0429688 v 1.54687498 c 0,0.59765625 -0.08203,0.6328125 -0.644532,0.69140625 v 0.234374995 h 1.921875 V -0.23515687 c -0.492187,-0.0585938 -0.574218,-0.10546875 -0.574218,-0.6796875 V -2.6609381 c 0,-0.1757813 -0.01172,-0.2695313 -0.02344,-0.3867188 0.339844,-0.28125 0.679688,-0.46875 1.007813,-0.46875 0.5625,0 0.796875,0.4101563 0.796875,1.0546875 v 1.50000003 c 0,0.6328125 -0.105469,0.66796875 -0.632813,0.7265625 v 0.234374995 z m 3.618164,-0.949218745 c -0.328125,0.3046875 -0.667968,0.4453125 -1.019531,0.4453125 -0.632812,0 -1.335937,-0.50390628 -1.347656,-1.72265628 1.066406,-0.046875 2.191406,-0.1289062 2.355469,-0.1640625 0.152343,-0.035156 0.199218,-0.1054687 0.199218,-0.28125 0,-0.703125 -0.597656,-1.3710937 -1.347656,-1.3710937 -0.46875,0 -0.949219,0.2460937 -1.324219,0.65625 -0.363281,0.4101562 -0.597656,0.9609375 -0.597656,1.5820312 0,1.00781253 0.65625,1.91015628 1.757813,1.91015628 0.28125,0 0.902343,-0.1640625 1.464843,-0.8671875 z M 84.064969,-3.7039069 c 0.492187,0 0.796875,0.421875 0.785156,0.890625 0,0.1289063 -0.04687,0.1875 -0.210938,0.1875 -0.527343,0.011719 -1.019531,0.023437 -1.523437,0.023437 0.128906,-0.7265625 0.527344,-1.1015625 0.949219,-1.101562 z m 0,0"
         style="fill:#231f20;fill-opacity:1;fill-rule:nonzero;stroke:none"
         aria-label="R&#10;e&#10;l&#10;a&#10;t&#10;i&#10;v&#10;e e&#10;x&#10;e&#10;c&#10;u&#10;t&#10;i&#10;o&#10;n t&#10;i&#10;me"
         transform="matrix(0,-1.3333333,1.3333333,0,9.89948,132.946)" />
      <path
         id="path18"
         d="m 3.2916797,-1.1236406 c -0.234375,0.50390623 -0.3398438,0.53906248 -0.7734375,0.53906248 h -1.5 L 2.1549609,-1.7798906 c 0.7382813,-0.7851563 1.0664063,-1.2539063 1.0664063,-1.9453125 0,-0.84375 -0.6445313,-1.359375 -1.3476563,-1.359375 -0.46875,0 -0.84375,0.2109375 -1.07812496,0.4804687 l -0.45703125,0.6445313 0.17578125,0.1640625 c 0.19921875,-0.3164063 0.53906246,-0.75 1.08984376,-0.75 0.5859375,0 0.9375,0.3984375 0.9375,1.0664062 0,0.6914063 -0.5039063,1.3476563 -0.9960938,1.9335938 -0.3984375,0.46875 -0.85546871,0.92578123 -1.30078121,1.35937498 v 0.1875 H 3.2448047 c 0.09375,-0.36328125 0.1757812,-0.71484375 0.28125,-1.04296878 z m 1.7666015,-3.28125 H 6.9215625 L 7.1325,-4.9205156 7.085625,-4.9908281 H 4.8004687 l -0.3164062,2.4492187 c 0.1875,-0.070312 0.4921875,-0.1640625 0.8320312,-0.1640625 0.8671875,0 1.3007813,0.5039063 1.3007813,1.2070313 0,0.60937498 -0.3398438,1.18359373 -1.0195313,1.18359373 -0.4804687,0 -0.8085937,-0.24609375 -0.984375,-0.3984375 -0.082031,-0.0703125 -0.140625,-0.0585938 -0.2109375,0 -0.09375,0.0703125 -0.1640625,0.17578125 -0.1757812,0.2578125 -0.011719,0.09375 0.035156,0.1640625 0.1289062,0.26953125 0.1289063,0.1171875 0.4570313,0.28125 0.8320313,0.28125 0.421875,0 0.9609375,-0.2109375 1.3945312,-0.5625 0.4804688,-0.3984375 0.703125,-0.85546878 0.703125,-1.33593748 0,-0.65625 -0.515625,-1.359375 -1.5351562,-1.359375 -0.2226563,0 -0.5976563,0.1289062 -0.9023438,0.2460937 z m 3.7236329,1.6640625 c 0.234375,-1.1132813 0.984375,-1.6171875 1.4648439,-1.8515625 0.304687,-0.140625 0.609375,-0.234375 0.878906,-0.28125 l -0.05859,-0.2578125 c -0.316406,0.058594 -0.703125,0.140625 -1.03125,0.2578125 -0.8437497,0.3164062 -2.0624997,1.21875 -2.0624997,2.9648437 0,1.24218753 0.703125,2.00390628 1.640625,2.00390628 0.9609377,0 1.6406247,-0.80859375 1.6406247,-1.75781248 0,-0.8203125 -0.585937,-1.4765625 -1.4414059,-1.4765625 -0.1523438,0 -0.328125,0.046875 -0.5039063,0.1289062 z m 0.7265625,0.046875 c 0.7265624,0 1.0664064,0.65625 1.0664064,1.3242187 0,0.52734378 -0.199219,1.19531253 -0.8203127,1.19531253 -0.65625,0 -1.0664062,-0.78515625 -1.0664062,-1.74609373 0,-0.2109375 0.011719,-0.3984375 0.046875,-0.5507813 0.1992187,-0.1054687 0.46875,-0.2226562 0.7734375,-0.2226562 z M 35.702812,0.00135938 v -0.2109375 c -0.726562,-0.0585937 -0.773437,-0.12890625 -0.773437,-0.703125 V -5.0845781 c -0.445313,0.1757812 -0.914063,0.328125 -1.429688,0.421875 v 0.1875 l 0.386719,0.011719 c 0.351563,0.011719 0.386719,0.058594 0.386719,0.46875 v 3.08203128 c 0,0.57421875 -0.03516,0.64453125 -0.773438,0.703125 v 0.2109375 z m 2.692383,-5.08593748 c -1.207031,0 -1.640625,1.4296875 -1.640625,2.6015625 0,1.265625 0.433594,2.57812498 1.640625,2.57812498 1.195313,0 1.628907,-1.41796878 1.628907,-2.58984378 0,-1.2304687 -0.433594,-2.5898437 -1.628907,-2.5898437 z m -0.01172,0.2695312 c 0.726562,0 0.925781,1.1835938 0.925781,2.3203125 0,1.125 -0.199219,2.32031253 -0.914063,2.32031253 -0.703125,0 -0.925781,-1.20703123 -0.925781,-2.33203123 0,-1.1132813 0.1875,-2.3085938 0.914063,-2.3085938 z m 5.223632,3.6914063 c -0.234375,0.50390623 -0.339843,0.53906248 -0.773437,0.53906248 h -1.5 l 1.136719,-1.19531248 c 0.738281,-0.7851563 1.066406,-1.2539063 1.066406,-1.9453125 0,-0.84375 -0.644531,-1.359375 -1.347656,-1.359375 -0.46875,0 -0.84375,0.2109375 -1.078125,0.4804687 l -0.457032,0.6445313 0.175782,0.1640625 c 0.199218,-0.3164063 0.539062,-0.75 1.089843,-0.75 0.585938,0 0.9375,0.3984375 0.9375,1.0664062 0,0.6914063 -0.503906,1.3476563 -0.996093,1.9335938 -0.398438,0.46875 -0.855469,0.92578123 -1.300782,1.35937498 v 0.1875 h 3 c 0.09375,-0.36328125 0.175782,-0.71484375 0.28125,-1.04296878 z m 4.189453,-0.3046875 v -0.375 h -0.761718 v -3.2578125 h -0.316407 c -0.832031,1.0898437 -1.640625,2.2734375 -2.402343,3.4101562 v 0.2226563 h 2.074218 v 0.58593748 c 0,0.52734375 -0.02344,0.57421875 -0.726562,0.6328125 v 0.2109375 h 2.050781 v -0.2109375 C 47.07,-0.26817187 47.034844,-0.31504687 47.034844,-0.84239062 V -1.4283281 Z m -1.40625,-0.375 H 44.82 c 0.527344,-0.8789063 1.042969,-1.640625 1.558594,-2.3554688 h 0.01172 z M 73.22332,-69.690047 c -0.398437,0.796875 -0.832031,1.242188 -1.640625,1.242188 -1.21875,0 -2.097656,-1.03125 -2.097656,-2.519532 0,-1.21875 0.714844,-2.355468 2.050781,-2.355468 0.855469,0 1.335938,0.351562 1.546875,1.195312 l 0.246094,-0.05859 c -0.05859,-0.433593 -0.105469,-0.75 -0.164062,-1.207031 -0.222657,-0.03516 -0.773438,-0.210937 -1.417969,-0.210937 -1.78125,0 -3.082031,1.113281 -3.082031,2.789062 0,1.277344 0.867187,2.648438 2.871093,2.648438 0.574219,0 1.242188,-0.152344 1.464844,-0.210938 0.152344,-0.269531 0.351563,-0.855469 0.457031,-1.230469 z m 0.773438,-3.796875 v 0.222656 c 0.597656,0.04687 0.65625,0.07031 0.65625,0.773438 v 3.210937 c 0,0.65625 -0.05859,0.726563 -0.703125,0.773438 v 0.222656 h 2.167969 v -0.222656 c -0.714844,-0.04687 -0.785157,-0.09375 -0.785157,-0.773438 v -1.253906 l 0.585938,0.152344 c 0.09375,0.01172 0.246094,0.01172 0.363281,0 0.773438,-0.105469 1.558594,-0.609375 1.558594,-1.640625 0,-0.527344 -0.210938,-0.890625 -0.515625,-1.125 -0.316406,-0.246094 -0.773438,-0.339844 -1.347656,-0.339844 z m 1.335937,0.726563 c 0,-0.222657 0.02344,-0.316407 0.08203,-0.375 0.05859,-0.05859 0.222656,-0.09375 0.457031,-0.09375 0.65625,0 1.207031,0.363281 1.207031,1.230468 0,1.019532 -0.644531,1.300782 -1.160156,1.300782 -0.269531,0 -0.480469,-0.05859 -0.585938,-0.09375 z m 8.53418,-0.726563 h -1.910156 v 0.222656 c 0.5625,0.04687 0.738281,0.140625 0.785156,0.445313 0.02344,0.257812 0.05859,0.585937 0.05859,1.324219 v 0.609375 c 0,1.324218 -0.363282,2.285156 -1.523438,2.285156 -0.984375,0 -1.5,-0.738281 -1.5,-2.027344 v -1.828125 c 0,-0.714844 0.05859,-0.761719 0.691406,-0.808594 v -0.222656 h -2.0625 v 0.222656 c 0.621094,0.05859 0.691407,0.09375 0.691407,0.808594 v 2.003906 c 0,0.9375 0.222656,1.535157 0.703125,1.898438 0.351562,0.28125 0.820312,0.386719 1.277343,0.386719 0.527344,0 1.066407,-0.164063 1.441407,-0.550782 0.457031,-0.492187 0.609375,-1.171875 0.609375,-2.109375 v -0.667968 c 0,-0.738282 0.01172,-1.078125 0.03516,-1.300782 0.03516,-0.328125 0.222656,-0.433593 0.703125,-0.46875 z M 73.856133,-58.697859 H 71.81707 v 0.222656 c 0.785157,0.05859 0.84375,0.105469 0.84375,0.691406 v 0.679688 c 0,0.328125 -0.09375,0.433593 -0.257812,0.515625 -0.175781,0.09375 -0.421875,0.140625 -0.691406,0.140625 -1.546875,0 -2.226563,-1.335938 -2.226563,-2.496094 0,-1.476563 0.890625,-2.378906 2.121094,-2.378906 0.761719,0 1.371094,0.269531 1.558594,1.242187 l 0.222656,-0.04687 c -0.05859,-0.527344 -0.105469,-0.960937 -0.128906,-1.242187 -0.257813,-0.05859 -0.867188,-0.234375 -1.535157,-0.234375 -1.570312,0 -3.058593,0.902343 -3.058593,2.753906 0,1.59375 1.171875,2.683594 2.941406,2.683594 0.632812,0 1.289062,-0.175782 1.792969,-0.292969 -0.04687,-0.210938 -0.05859,-0.46875 -0.05859,-0.75 v -0.679688 c 0,-0.480468 0.03516,-0.515625 0.515625,-0.585937 z m 0.539062,-2.789063 v 0.222656 c 0.597657,0.04687 0.65625,0.07031 0.65625,0.773438 v 3.210937 c 0,0.65625 -0.05859,0.726563 -0.703125,0.773438 v 0.222656 h 2.167969 v -0.222656 c -0.714844,-0.04687 -0.785156,-0.09375 -0.785156,-0.773438 v -1.253906 l 0.585937,0.152344 c 0.09375,0.01172 0.246094,0.01172 0.363282,0 0.773437,-0.105469 1.558593,-0.609375 1.558593,-1.640625 0,-0.527344 -0.210937,-0.890625 -0.515625,-1.125 -0.316406,-0.246094 -0.773437,-0.339844 -1.347656,-0.339844 z m 1.335938,0.726563 c 0,-0.222657 0.02344,-0.316407 0.08203,-0.375 0.05859,-0.05859 0.222656,-0.09375 0.457031,-0.09375 0.65625,0 1.207032,0.363281 1.207032,1.230468 0,1.019532 -0.644532,1.300782 -1.160157,1.300782 -0.269531,0 -0.480468,-0.05859 -0.585937,-0.09375 z m 8.537109,-0.726563 h -1.910156 v 0.222656 c 0.5625,0.04687 0.738281,0.140625 0.785156,0.445313 0.02344,0.257812 0.05859,0.585937 0.05859,1.324219 v 0.609375 c 0,1.324218 -0.363281,2.285156 -1.523438,2.285156 -0.984375,0 -1.5,-0.738281 -1.5,-2.027344 v -1.828125 c 0,-0.714844 0.05859,-0.761719 0.691407,-0.808594 v -0.222656 h -2.0625 v 0.222656 c 0.621093,0.05859 0.691406,0.09375 0.691406,0.808594 v 2.003906 c 0,0.9375 0.222656,1.535157 0.703125,1.898438 0.351562,0.28125 0.820312,0.386719 1.277344,0.386719 0.527343,0 1.066406,-0.164063 1.441406,-0.550782 0.457031,-0.492187 0.609375,-1.171875 0.609375,-2.109375 v -0.667968 c 0,-0.738282 0.01172,-1.078125 0.03516,-1.300782 0.03516,-0.328125 0.222656,-0.433593 0.703125,-0.46875 z m 0,0"
         style="fill:#231f20;fill-opacity:1;fill-rule:nonzero;stroke:none"
         aria-label="2561024&#10;CPU&#10;GPU"
         transform="matrix(1.3333333,0,0,1.3333333,227.24,166.756)" />
    </g>
  </g>
</svg>
