<?xml version="1.0" encoding="UTF-8" standalone="no"?>
<!-- Created with Inkscape (http://www.inkscape.org/) -->

<svg
   version="1.1"
   id="svg1"
   width="319.13333"
   height="67.639999"
   viewBox="0 0 319.13333 67.639999"
   sodipodi:docname="pha11f04.eps"
   xmlns:inkscape="http://www.inkscape.org/namespaces/inkscape"
   xmlns:sodipodi="http://sodipodi.sourceforge.net/DTD/sodipodi-0.dtd"
   xmlns="http://www.w3.org/2000/svg"
   xmlns:svg="http://www.w3.org/2000/svg">
  <defs
     id="defs1" />
  <sodipodi:namedview
     id="namedview1"
     pagecolor="#ffffff"
     bordercolor="#000000"
     borderopacity="0.25"
     inkscape:showpageshadow="2"
     inkscape:pageopacity="0.0"
     inkscape:pagecheckerboard="0"
     inkscape:deskcolor="#d1d1d1">
    <inkscape:page
       x="0"
       y="0"
       inkscape:label="1"
       id="page1"
       width="319.13333"
       height="67.639999"
       margin="0"
       bleed="0" />
  </sodipodi:namedview>
  <g
     id="g1"
     inkscape:groupmode="layer"
     inkscape:label="1">
    <g
       id="group-R5">
      <g
         id="g2"
         aria-label="L&#10;i&#10;(p, –ω)L&#10;o&#10;(p, ω)"
         transform="matrix(1.3333333,0,0,1.3333333,0,47.9712)">
        <path
           id="path2"
           d="M 4.359375,-1.4989078 C 4.125,-1.0535953 3.9257813,-0.78406406 3.7265625,-0.58484531 3.5039063,-0.36218906 3.1992188,-0.31531406 2.671875,-0.31531406 c -0.3984375,0 -0.6796875,-0.0117188 -0.8085938,-0.1171875 -0.140625,-0.10546875 -0.1640625,-0.31640625 -0.09375,-0.64453124 l 0.7031251,-3.7265625 c 0.1289062,-0.6796875 0.1640625,-0.7382813 0.8789062,-0.796875 l 0.058594,-0.234375 H 1.1601562 l -0.058594,0.234375 c 0.7382812,0.070312 0.7851562,0.1054687 0.6445312,0.796875 l -0.7382812,3.7617187 c -0.140625,0.67968754 -0.19921875,0.75000004 -0.890625,0.79687504 L 0.05859375,0.00109219 H 4.03125 C 4.171875,-0.28015781 4.5,-1.1004703 4.6054687,-1.4051578 Z m 0,0"
           style="fill:#231f20;fill-opacity:1;fill-rule:nonzero;stroke:none" />
        <path
           id="path3"
           d="m 6.0058594,-2.8289859 c 0.2578125,0 0.4570312,-0.2109375 0.4570312,-0.4570313 0,-0.2695312 -0.1992187,-0.46875 -0.4570312,-0.46875 -0.234375,0 -0.4570313,0.1992188 -0.4570313,0.46875 0,0.2460938 0.2226563,0.4570313 0.4570313,0.4570313 z m 1.0546875,4.828125 V 1.7647641 C 6.4746094,1.7061703 6.4160156,1.6592953 6.4160156,1.0499203 v -3.1054687 c -0.3984375,0.1523437 -0.8203125,0.2695312 -1.2773437,0.3515625 v 0.2109375 c 0.5390625,0.09375 0.5625,0.1289062 0.5625,0.67968746 V 1.0499203 c 0,0.609375 -0.058594,0.65625 -0.6210938,0.7148438 v 0.234375 z M 9.0908203,1.3253109 c -0.890625,-0.76171871 -1.40625,-2.20312496 -1.40625,-3.75 0,-1.546875 0.515625,-3 1.40625,-3.75 L 8.9384766,-6.3856266 c -1.3242188,0.9023438 -1.9101563,2.3320313 -1.9101563,3.9492188 0,1.62890624 0.5859375,3.08203124 1.9101563,3.9609375 z m 1.9423827,-4.7460937 v -0.7148438 c -0.421875,0.1757813 -0.925781,0.328125 -1.3124999,0.3984375 v 0.2109375 c 0.5624999,0.070312 0.5976559,0.09375 0.5976559,0.6796875 v 4.0664063 c 0,0.5859375 -0.08203,0.6445312 -0.6562496,0.703125 v 0.234375 H 11.794922 V 1.9229672 C 11.091797,1.8526547 11.033203,1.8057797 11.033203,1.1260922 v -1.18359376 c 0.117188,0.0703125 0.363281,0.15234375 0.621094,0.1640625 1.171875,-0.2109375 2.238281,-1.08984375 2.238281,-2.44921874 0,-0.890625 -0.597656,-1.6992188 -1.59375,-1.6992188 -0.105469,0 -0.28125,0.046875 -0.445312,0.140625 z m 0,0.3046875 c 0.246094,-0.1875 0.609375,-0.3867188 0.902344,-0.3867188 0.65625,0 1.207031,0.5390625 1.207031,1.5117188 0,1.00781249 -0.515625,1.66406249 -1.265625,1.66406249 -0.304687,0 -0.644531,-0.15234375 -0.84375,-0.3515625 z m 3.776367,1.9570312 c -0.210937,0 -0.433593,0.140625 -0.433593,0.36328129 0,0.15234375 0.07031,0.22265625 0.117187,0.234375 0.304688,0.0703125 0.5625,0.26953125 0.5625,0.59765625 0,0.33984375 -0.257812,0.57421875 -0.691406,0.76171875 l 0.09375,0.25781251 c 0.550781,-0.16406251 1.183594,-0.55078126 1.183594,-1.24218751 0,-0.6328125 -0.503907,-0.97265629 -0.832032,-0.97265629 z m 7.470703,-0.6445312 v -0.46875 h -3.773437 v 0.46875 z m 0,0"
           style="fill:#231f20;fill-opacity:1;fill-rule:nonzero;stroke:none" />
        <path
           id="path4"
           d="m 27.099609,-3.8426578 c 0.292969,0.2578125 0.503907,0.7148437 0.503907,1.3828125 -0.01172,1.0078125 -0.398438,2.05078124 -1.136719,2.05078124 -0.304688,0 -0.515625,-0.3046875 -0.492188,-0.87890624 0.02344,-0.46875 0.234375,-1.359375 0.351563,-1.7226563 l -0.05859,-0.035156 -0.667969,0.140625 c -0.03516,0.28125 -0.09375,0.75 -0.1875,1.1367187 -0.199218,0.85546879 -0.5625,1.31250004 -0.949218,1.31250004 -0.28125,0 -0.539063,-0.33984375 -0.539063,-0.99609374 0,-1.0078125 0.46875,-1.921875 1.160156,-2.4492188 l -0.140625,-0.1992187 c -1.042968,0.5390625 -1.757812,1.5585937 -1.757812,2.765625 0,0.93749999 0.421875,1.44140624 0.9375,1.44140624 0.386719,0 0.902344,-0.3984375 1.230469,-0.890625 0.04687,0.50390625 0.328125,0.890625 0.761718,0.890625 0.375,0 0.738282,-0.22265625 1.066407,-0.515625 0.5625,-0.52734375 0.996093,-1.30078124 0.996093,-2.21484374 0,-0.9023438 -0.398437,-1.4179688 -0.691406,-1.4179688 -0.152344,0 -0.316406,0.070312 -0.375,0.1289063 z m 0,0"
           style="fill:#231f20;fill-opacity:1;fill-rule:nonzero;stroke:none" />
        <path
           id="path5"
           d="m 28.892578,-6.1746891 c 0.890625,0.7382813 1.417969,2.203125 1.417969,3.75 0,1.54687504 -0.503906,2.98828129 -1.417969,3.75 l 0.164063,0.1992188 c 1.347656,-0.91406251 1.898437,-2.33203126 1.898437,-3.9492188 0,-1.6289062 -0.550781,-3.0585937 -1.898437,-3.9609375 z m 0,0"
           style="fill:#231f20;fill-opacity:1;fill-rule:nonzero;stroke:none" />
        <path
           id="path6"
           d="m 204.06152,-1.4989078 c -0.23437,0.4453125 -0.43359,0.71484374 -0.63281,0.91406249 -0.22266,0.22265625 -0.52734,0.26953125 -1.05469,0.26953125 -0.39843,0 -0.67968,-0.0117188 -0.80859,-0.1171875 -0.14063,-0.10546875 -0.16406,-0.31640625 -0.0937,-0.64453124 l 0.70312,-3.7265625 c 0.12891,-0.6796875 0.16407,-0.7382813 0.87891,-0.796875 l 0.0586,-0.234375 h -2.25 l -0.0586,0.234375 c 0.73828,0.070312 0.78516,0.1054687 0.64453,0.796875 l -0.73828,3.7617187 c -0.14062,0.67968754 -0.19922,0.75000004 -0.89062,0.79687504 l -0.0586,0.24609375 h 3.97266 c 0.14062,-0.28125 0.46875,-1.10156249 0.57422,-1.40624999 z m 0,0"
           style="fill:#231f20;fill-opacity:1;fill-rule:nonzero;stroke:none" />
        <path
           id="path7"
           d="m 206.80078,-2.0438297 c -0.82031,0 -1.98047,0.6796875 -1.98047,2.15625001 0,1.00781249 0.73828,1.99218749 1.98047,1.99218749 0.89063,0 1.94531,-0.6914062 1.94531,-2.14453124 0,-1.11328126 -0.83203,-2.00390626 -1.94531,-2.00390626 z m -0.0937,0.3046875 c 0.78516,0 1.20703,0.84375001 1.20703,1.89843751 0,1.24218749 -0.45703,1.65234379 -1.01953,1.65234379 -0.73828,0 -1.23047,-0.84375004 -1.23047,-1.98046879 0,-1.01953121 0.48047,-1.57031251 1.04297,-1.57031251 z m 3.53906,3.0644531 c -0.89062,-0.76171871 -1.40625,-2.20312496 -1.40625,-3.75 0,-1.546875 0.51563,-3 1.40625,-3.75 l -0.15234,-0.2109375 c -1.32422,0.9023438 -1.91016,2.3320313 -1.91016,3.9492188 0,1.62890624 0.58594,3.08203124 1.91016,3.9609375 z m 1.94239,-4.7460937 v -0.7148438 c -0.42188,0.1757813 -0.92578,0.328125 -1.3125,0.3984375 v 0.2109375 c 0.5625,0.070312 0.59765,0.09375 0.59765,0.6796875 v 4.0664063 c 0,0.5859375 -0.082,0.6445312 -0.65625,0.703125 v 0.234375 h 2.13282 v -0.234375 c -0.70313,-0.070312 -0.76172,-0.1171875 -0.76172,-0.796875 v -1.18359376 c 0.11718,0.0703125 0.36328,0.15234375 0.62109,0.1640625 1.17188,-0.2109375 2.23828,-1.08984375 2.23828,-2.44921874 0,-0.890625 -0.59765,-1.6992188 -1.59375,-1.6992188 -0.10547,0 -0.28125,0.046875 -0.44531,0.140625 z m 0,0.3046875 c 0.24609,-0.1875 0.60937,-0.3867188 0.90234,-0.3867188 0.65625,0 1.20703,0.5390625 1.20703,1.5117188 0,1.00781249 -0.51562,1.66406249 -1.26562,1.66406249 -0.30469,0 -0.64453,-0.15234375 -0.84375,-0.3515625 z m 3.77636,1.9570312 c -0.21093,0 -0.43359,0.140625 -0.43359,0.36328129 0,0.15234375 0.0703,0.22265625 0.11719,0.234375 0.30468,0.0703125 0.5625,0.26953125 0.5625,0.59765625 0,0.33984375 -0.25782,0.57421875 -0.69141,0.76171875 l 0.0937,0.25781251 c 0.55078,-0.16406251 1.18359,-0.55078126 1.18359,-1.24218751 0,-0.6328125 -0.5039,-0.97265629 -0.83203,-0.97265629 z m 0,0"
           style="fill:#231f20;fill-opacity:1;fill-rule:nonzero;stroke:none" />
        <path
           id="path8"
           d="m 223.57324,-3.8426578 c 0.29297,0.2578125 0.50391,0.7148437 0.50391,1.3828125 -0.0117,1.0078125 -0.39844,2.05078124 -1.13672,2.05078124 -0.30469,0 -0.51563,-0.3046875 -0.49219,-0.87890624 0.0234,-0.46875 0.23438,-1.359375 0.35156,-1.7226563 l -0.0586,-0.035156 -0.66797,0.140625 c -0.0351,0.28125 -0.0937,0.75 -0.1875,1.1367187 -0.19922,0.85546879 -0.5625,1.31250004 -0.94922,1.31250004 -0.28125,0 -0.53906,-0.33984375 -0.53906,-0.99609374 0,-1.0078125 0.46875,-1.921875 1.16016,-2.4492188 l -0.14063,-0.1992187 c -1.04297,0.5390625 -1.75781,1.5585937 -1.75781,2.765625 0,0.93749999 0.42187,1.44140624 0.9375,1.44140624 0.38672,0 0.90234,-0.3984375 1.23047,-0.890625 0.0469,0.50390625 0.32812,0.890625 0.76172,0.890625 0.375,0 0.73828,-0.22265625 1.0664,-0.515625 0.5625,-0.52734375 0.9961,-1.30078124 0.9961,-2.21484374 0,-0.9023438 -0.39844,-1.4179688 -0.69141,-1.4179688 -0.15234,0 -0.31641,0.070312 -0.375,0.1289063 z m 0,0"
           style="fill:#231f20;fill-opacity:1;fill-rule:nonzero;stroke:none" />
        <path
           id="path9"
           d="m 225.36621,-6.1746891 c 0.89063,0.7382813 1.41797,2.203125 1.41797,3.75 0,1.54687504 -0.50391,2.98828129 -1.41797,3.75 l 0.16406,0.1992188 c 1.34766,-0.91406251 1.89844,-2.33203126 1.89844,-3.9492188 0,-1.6289062 -0.55078,-3.0585937 -1.89844,-3.9609375 z m 0,0"
           style="fill:#231f20;fill-opacity:1;fill-rule:nonzero;stroke:none" />
      </g>
      <path
         id="path10"
         d="m 796.348,253.637 c 0,138.418 -79.602,250.629 -177.774,250.629 -98.183,0 -177.781,-112.211 -177.781,-250.629 0,-138.418 79.598,-250.63309 177.781,-250.63309 98.172,0 177.774,112.21509 177.774,250.63309"
         style="fill:#e5e4e4;fill-opacity:1;fill-rule:nonzero;stroke:none"
         transform="matrix(0.13333333,0,0,-0.13333333,0,67.64)" />
      <path
         id="path11"
         d="m 796.348,253.637 c 0,138.418 -79.602,250.629 -177.774,250.629 -98.183,0 -177.781,-112.211 -177.781,-250.629 0,-138.418 79.598,-250.63309 177.781,-250.63309 98.172,0 177.774,112.21509 177.774,250.63309 z"
         style="fill:none;stroke:#231f20;stroke-width:5;stroke-linecap:butt;stroke-linejoin:miter;stroke-miterlimit:10;stroke-dasharray:none;stroke-opacity:1"
         transform="matrix(0.13333333,0,0,-0.13333333,0,67.64)" />
      <path
         id="path12"
         d="m 1797.55,257.813 h 530.77"
         style="fill:none;stroke:#231f20;stroke-width:10;stroke-linecap:butt;stroke-linejoin:miter;stroke-miterlimit:10;stroke-dasharray:none;stroke-opacity:1"
         transform="matrix(0.13333333,0,0,-0.13333333,0,67.64)" />
      <path
         id="path13"
         d="m 2313.95,257.813 -17.53,28.824 0.99,0.652 47,-18.668 c 16.37,-3.601 32.74,-7.203 49.12,-10.808 -16.38,-3.602 -32.75,-7.204 -49.12,-10.809 l -47,-18.668 -0.99,0.492 17.53,28.985"
         style="fill:#231f20;fill-opacity:1;fill-rule:nonzero;stroke:none"
         transform="matrix(0.13333333,0,0,-0.13333333,0,67.64)" />
      <path
         id="path14"
         d="m 618.574,2.5 c -96.191,0 -174.172,112.438 -174.172,251.137 0,138.703 77.981,251.136 174.172,251.136"
         style="fill:none;stroke:#231f20;stroke-width:5;stroke-linecap:butt;stroke-linejoin:miter;stroke-miterlimit:10;stroke-dasharray:none;stroke-opacity:1"
         transform="matrix(0.13333333,0,0,-0.13333333,0,67.64)" />
      <path
         id="path15"
         d="m 1724.17,2.5 c 96.18,0 174.16,112.438 174.16,251.137 0,138.703 -77.98,251.136 -174.16,251.136 H 618.086 c 96.191,0 174.172,-112.433 174.172,-251.136 C 792.258,114.938 714.277,2.5 618.086,2.5 H 1724.17"
         style="fill:#e5e4e4;fill-opacity:1;fill-rule:nonzero;stroke:none"
         transform="matrix(0.13333333,0,0,-0.13333333,0,67.64)" />
      <path
         id="path16"
         d="m 1724.17,2.5 c 96.18,0 174.16,112.438 174.16,251.137 0,138.703 -77.98,251.136 -174.16,251.136 H 618.086 c 96.191,0 174.172,-112.433 174.172,-251.136 C 792.258,114.938 714.277,2.5 618.086,2.5 Z"
         style="fill:none;stroke:#231f20;stroke-width:5;stroke-linecap:butt;stroke-linejoin:miter;stroke-miterlimit:10;stroke-dasharray:none;stroke-opacity:1"
         transform="matrix(0.13333333,0,0,-0.13333333,0,67.64)" />
      <path
         id="path17"
         d="M 595.957,259.598 H 32.6055"
         style="fill:none;stroke:#231f20;stroke-width:5;stroke-linecap:butt;stroke-linejoin:miter;stroke-miterlimit:10;stroke-dasharray:none;stroke-opacity:1"
         transform="matrix(0.13333333,0,0,-0.13333333,0,67.64)" />
      <path
         id="path18"
         d="m 39.7891,259.598 8.7656,-14.414 -0.4922,-0.321 -23.5039,9.332 C 16.3789,255.996 8.1875,257.797 0,259.598 c 8.1875,1.804 16.3789,3.605 24.5586,5.406 l 23.5039,9.332 0.4922,-0.246 -8.7656,-14.492"
         style="fill:#231f20;fill-opacity:1;fill-rule:nonzero;stroke:none"
         transform="matrix(0.13333333,0,0,-0.13333333,0,67.64)" />
      <path
         id="path19"
         d="m 838.828,481.898 2.442,-9.441 4.335,8.731 0.418,-9.743 6.067,7.637 -1.621,-9.613 7.519,6.203 -3.574,-9.067 8.645,4.508 -5.391,-8.125 9.395,2.614 -6.965,-6.829 9.738,0.602 -8.234,-5.234 9.648,-1.43 -9.133,-3.41 9.133,-3.406 -9.648,-1.434 8.234,-5.234 -9.738,0.605 6.965,-6.828 -9.395,2.609 5.391,-8.125 -8.645,4.508 3.574,-9.062 -7.519,6.203 1.621,-9.617 -6.067,7.636 -0.418,-9.738 -4.335,8.73 -2.442,-9.445 -2.433,9.445 -4.344,-8.73 -0.41,9.738 -6.067,-7.636 1.614,9.617 -7.52,-6.203 3.586,9.062 -8.645,-4.508 5.379,8.125 -9.383,-2.609 6.954,6.828 -9.727,-0.605 8.223,5.234 -9.637,1.434 9.129,3.406 -9.129,3.41 9.637,1.43 -8.223,5.234 9.727,-0.602 -6.954,6.829 9.383,-2.614 -5.379,8.125 8.645,-4.508 -3.586,9.067 7.52,-6.203 -1.614,9.613 6.067,-7.637 0.41,9.743 4.344,-8.731 2.433,9.441"
         style="fill:#fddd1b;fill-opacity:1;fill-rule:nonzero;stroke:none"
         transform="matrix(0.13333333,0,0,-0.13333333,0,67.64)" />
      <path
         id="path20"
         d="m 838.828,481.898 2.442,-9.441 4.335,8.731 0.418,-9.743 6.067,7.637 -1.621,-9.613 7.519,6.203 -3.574,-9.067 8.645,4.508 -5.391,-8.125 9.395,2.614 -6.965,-6.829 9.738,0.602 -8.234,-5.234 9.648,-1.43 -9.133,-3.41 9.133,-3.406 -9.648,-1.434 8.234,-5.234 -9.738,0.605 6.965,-6.828 -9.395,2.609 5.391,-8.125 -8.645,4.508 3.574,-9.062 -7.519,6.203 1.621,-9.617 -6.067,7.636 -0.418,-9.738 -4.335,8.73 -2.442,-9.445 -2.433,9.445 -4.344,-8.73 -0.41,9.738 -6.067,-7.636 1.614,9.617 -7.52,-6.203 3.586,9.062 -8.645,-4.508 5.379,8.125 -9.383,-2.609 6.954,6.828 -9.727,-0.605 8.223,5.234 -9.637,1.434 9.129,3.406 -9.129,3.41 9.637,1.43 -8.223,5.234 9.727,-0.602 -6.954,6.829 9.383,-2.614 -5.379,8.125 8.645,-4.508 -3.586,9.067 7.52,-6.203 -1.614,9.613 6.067,-7.637 0.41,9.743 4.344,-8.731 z"
         style="fill:none;stroke:#231f20;stroke-width:2.5;stroke-linecap:butt;stroke-linejoin:miter;stroke-miterlimit:10;stroke-dasharray:none;stroke-opacity:1"
         transform="matrix(0.13333333,0,0,-0.13333333,0,67.64)" />
      <path
         id="path21"
         d="m 977.297,491.273 2.43,-9.441 4.343,8.731 0.422,-9.743 6.067,7.633 -1.621,-9.617 7.515,6.211 -3.582,-9.067 8.649,4.508 -5.387,-8.125 9.397,2.614 -6.967,-6.832 9.737,0.605 -8.23,-5.23 9.65,-1.434 -9.14,-3.41 9.14,-3.406 -9.65,-1.434 8.23,-5.234 -9.737,0.605 6.967,-6.828 -9.397,2.609 5.387,-8.125 -8.649,4.512 3.582,-9.07 -7.515,6.211 1.621,-9.614 -6.067,7.629 -0.422,-9.738 -4.343,8.73 -2.43,-9.445 -2.434,9.445 -4.343,-8.73 -0.415,9.738 -6.062,-7.629 1.609,9.614 -7.515,-6.211 3.582,9.07 -8.645,-4.512 5.395,8.125 -9.399,-2.609 6.953,6.828 -9.722,-0.605 8.219,5.234 -9.637,1.434 9.133,3.406 -9.133,3.41 9.637,1.434 -8.219,5.23 9.722,-0.605 -6.953,6.832 9.399,-2.614 -5.395,8.125 8.645,-4.508 -3.582,9.067 7.515,-6.211 -1.609,9.617 6.062,-7.633 0.415,9.743 4.343,-8.731 2.434,9.441"
         style="fill:#fddd1b;fill-opacity:1;fill-rule:nonzero;stroke:none"
         transform="matrix(0.13333333,0,0,-0.13333333,0,67.64)" />
      <path
         id="path22"
         d="m 977.297,491.273 2.43,-9.441 4.343,8.731 0.422,-9.743 6.067,7.633 -1.621,-9.617 7.515,6.211 -3.582,-9.067 8.649,4.508 -5.387,-8.125 9.397,2.614 -6.967,-6.832 9.737,0.605 -8.23,-5.23 9.65,-1.434 -9.14,-3.41 9.14,-3.406 -9.65,-1.434 8.23,-5.234 -9.737,0.605 6.967,-6.828 -9.397,2.609 5.387,-8.125 -8.649,4.512 3.582,-9.07 -7.515,6.211 1.621,-9.614 -6.067,7.629 -0.422,-9.738 -4.343,8.73 -2.43,-9.445 -2.434,9.445 -4.343,-8.73 -0.415,9.738 -6.062,-7.629 1.609,9.614 -7.515,-6.211 3.582,9.07 -8.645,-4.512 5.395,8.125 -9.399,-2.609 6.953,6.828 -9.722,-0.605 8.219,5.234 -9.637,1.434 9.133,3.406 -9.133,3.41 9.637,1.434 -8.219,5.23 9.722,-0.605 -6.953,6.832 9.399,-2.614 -5.395,8.125 8.645,-4.508 -3.582,9.067 7.515,-6.211 -1.609,9.617 6.062,-7.633 0.415,9.743 4.343,-8.731 z"
         style="fill:none;stroke:#231f20;stroke-width:2.5;stroke-linecap:butt;stroke-linejoin:miter;stroke-miterlimit:10;stroke-dasharray:none;stroke-opacity:1"
         transform="matrix(0.13333333,0,0,-0.13333333,0,67.64)" />
      <path
         id="path23"
         d="m 871.25,329.555 2.434,-9.438 4.343,8.731 0.418,-9.743 6.067,7.637 -1.621,-9.613 7.519,6.207 -3.586,-9.074 8.645,4.511 -5.379,-8.125 9.39,2.614 -6.96,-6.832 9.726,0.605 -8.223,-5.234 9.637,-1.43 -9.129,-3.41 9.129,-3.406 -9.637,-1.43 8.223,-5.234 -9.726,0.597 6.96,-6.824 -9.39,2.613 5.379,-8.125 -8.645,4.504 3.586,-9.066 -7.519,6.207 1.621,-9.613 -6.067,7.636 -0.418,-9.742 -4.343,8.731 -2.434,-9.446 -2.434,9.446 -4.343,-8.731 -0.418,9.742 -6.067,-7.636 1.621,9.613 -7.519,-6.207 3.586,9.066 -8.656,-4.504 5.39,8.125 -9.39,-2.613 6.96,6.824 -9.738,-0.597 8.235,5.234 -9.649,1.43 9.141,3.406 -9.141,3.41 9.649,1.43 -8.235,5.234 9.738,-0.605 -6.96,6.832 9.39,-2.614 -5.39,8.125 8.656,-4.511 -3.586,9.074 7.519,-6.207 -1.621,9.613 6.067,-7.637 0.418,9.743 4.343,-8.731 2.434,9.438"
         style="fill:#fddd1b;fill-opacity:1;fill-rule:nonzero;stroke:none"
         transform="matrix(0.13333333,0,0,-0.13333333,0,67.64)" />
      <path
         id="path24"
         d="m 871.25,329.555 2.434,-9.438 4.343,8.731 0.418,-9.743 6.067,7.637 -1.621,-9.613 7.519,6.207 -3.586,-9.074 8.645,4.511 -5.379,-8.125 9.39,2.614 -6.96,-6.832 9.726,0.605 -8.223,-5.234 9.637,-1.43 -9.129,-3.41 9.129,-3.406 -9.637,-1.43 8.223,-5.234 -9.726,0.597 6.96,-6.824 -9.39,2.613 5.379,-8.125 -8.645,4.504 3.586,-9.066 -7.519,6.207 1.621,-9.613 -6.067,7.636 -0.418,-9.742 -4.343,8.731 -2.434,-9.446 -2.434,9.446 -4.343,-8.731 -0.418,9.742 -6.067,-7.636 1.621,9.613 -7.519,-6.207 3.586,9.066 -8.656,-4.504 5.39,8.125 -9.39,-2.613 6.96,6.824 -9.738,-0.597 8.235,5.234 -9.649,1.43 9.141,3.406 -9.141,3.41 9.649,1.43 -8.235,5.234 9.738,-0.605 -6.96,6.832 9.39,-2.614 -5.39,8.125 8.656,-4.511 -3.586,9.074 7.519,-6.207 -1.621,9.613 6.067,-7.637 0.418,9.743 4.343,-8.731 z"
         style="fill:none;stroke:#231f20;stroke-width:2.5;stroke-linecap:butt;stroke-linejoin:miter;stroke-miterlimit:10;stroke-dasharray:none;stroke-opacity:1"
         transform="matrix(0.13333333,0,0,-0.13333333,0,67.64)" />
      <path
         id="path25"
         d="m 1020.2,306.508 2.44,-9.438 4.33,8.731 0.42,-9.742 6.07,7.632 -1.61,-9.613 7.51,6.203 -3.58,-9.066 8.64,4.512 -5.39,-8.129 9.4,2.617 -6.97,-6.832 9.74,0.605 -8.22,-5.234 9.64,-1.434 -9.13,-3.402 9.13,-3.41 -9.64,-1.438 8.22,-5.226 -9.74,0.597 6.97,-6.824 -9.4,2.613 5.39,-8.125 -8.64,4.504 3.58,-9.066 -7.51,6.207 1.61,-9.613 -6.07,7.636 -0.42,-9.742 -4.33,8.727 -2.44,-9.442 -2.44,9.442 -4.34,-8.727 -0.41,9.742 -6.07,-7.636 1.61,9.613 -7.51,-6.207 3.58,9.066 -8.643,-4.504 5.383,8.125 -9.387,-2.613 6.953,6.824 -9.727,-0.597 8.223,5.226 -9.641,1.438 9.133,3.41 -9.133,3.402 9.641,1.434 -8.223,5.234 9.727,-0.605 -6.953,6.832 9.387,-2.617 -5.383,8.129 8.643,-4.512 -3.58,9.066 7.51,-6.203 -1.61,9.613 6.07,-7.632 0.41,9.742 4.34,-8.731 2.44,9.438"
         style="fill:#fddd1b;fill-opacity:1;fill-rule:nonzero;stroke:none"
         transform="matrix(0.13333333,0,0,-0.13333333,0,67.64)" />
      <path
         id="path26"
         d="m 1020.2,306.508 2.44,-9.438 4.33,8.731 0.42,-9.742 6.07,7.632 -1.61,-9.613 7.51,6.203 -3.58,-9.066 8.64,4.512 -5.39,-8.129 9.4,2.617 -6.97,-6.832 9.74,0.605 -8.22,-5.234 9.64,-1.434 -9.13,-3.402 9.13,-3.41 -9.64,-1.438 8.22,-5.226 -9.74,0.597 6.97,-6.824 -9.4,2.613 5.39,-8.125 -8.64,4.504 3.58,-9.066 -7.51,6.207 1.61,-9.613 -6.07,7.636 -0.42,-9.742 -4.33,8.727 -2.44,-9.442 -2.44,9.442 -4.34,-8.727 -0.41,9.742 -6.07,-7.636 1.61,9.613 -7.51,-6.207 3.58,9.066 -8.643,-4.504 5.383,8.125 -9.387,-2.613 6.953,6.824 -9.727,-0.597 8.223,5.226 -9.641,1.438 9.133,3.41 -9.133,3.402 9.641,1.434 -8.223,5.234 9.727,-0.605 -6.953,6.832 9.387,-2.617 -5.383,8.129 8.643,-4.512 -3.58,9.066 7.51,-6.203 -1.61,9.613 6.07,-7.632 0.41,9.742 4.34,-8.731 z"
         style="fill:none;stroke:#231f20;stroke-width:2.5;stroke-linecap:butt;stroke-linejoin:miter;stroke-miterlimit:10;stroke-dasharray:none;stroke-opacity:1"
         transform="matrix(0.13333333,0,0,-0.13333333,0,67.64)" />
      <path
         id="path27"
         d="m 1115.59,491.559 2.43,-9.446 4.34,8.731 0.42,-9.742 6.06,7.636 -1.61,-9.613 7.52,6.207 -3.59,-9.066 8.64,4.504 -5.38,-8.125 9.39,2.613 -6.95,-6.832 9.72,0.605 -8.22,-5.226 9.64,-1.438 -9.13,-3.406 9.13,-3.41 -9.64,-1.43 8.22,-5.234 -9.72,0.605 6.95,-6.832 -9.39,2.613 5.38,-8.125 -8.64,4.512 3.59,-9.074 -7.52,6.211 1.61,-9.613 -6.06,7.632 -0.42,-9.742 -4.34,8.731 -2.43,-9.442 -2.45,9.442 -4.33,-8.731 -0.42,9.742 -6.07,-7.632 1.63,9.613 -7.52,-6.211 3.58,9.074 -8.65,-4.512 5.39,8.125 -9.4,-2.613 6.97,6.832 -9.74,-0.605 8.23,5.234 -9.65,1.43 9.14,3.41 -9.14,3.406 9.65,1.438 -8.23,5.226 9.74,-0.605 -6.97,6.832 9.4,-2.613 -5.39,8.125 8.65,-4.504 -3.58,9.066 7.52,-6.207 -1.63,9.613 6.07,-7.636 0.42,9.742 4.33,-8.731 2.45,9.446"
         style="fill:#fddd1b;fill-opacity:1;fill-rule:nonzero;stroke:none"
         transform="matrix(0.13333333,0,0,-0.13333333,0,67.64)" />
      <path
         id="path28"
         d="m 1115.59,491.559 2.43,-9.446 4.34,8.731 0.42,-9.742 6.06,7.636 -1.61,-9.613 7.52,6.207 -3.59,-9.066 8.64,4.504 -5.38,-8.125 9.39,2.613 -6.95,-6.832 9.72,0.605 -8.22,-5.226 9.64,-1.438 -9.13,-3.406 9.13,-3.41 -9.64,-1.43 8.22,-5.234 -9.72,0.605 6.95,-6.832 -9.39,2.613 5.38,-8.125 -8.64,4.512 3.59,-9.074 -7.52,6.211 1.61,-9.613 -6.06,7.632 -0.42,-9.742 -4.34,8.731 -2.43,-9.442 -2.45,9.442 -4.33,-8.731 -0.42,9.742 -6.07,-7.632 1.63,9.613 -7.52,-6.211 3.58,9.074 -8.65,-4.512 5.39,8.125 -9.4,-2.613 6.97,6.832 -9.74,-0.605 8.23,5.234 -9.65,1.43 9.14,3.41 -9.14,3.406 9.65,1.438 -8.23,5.226 9.74,-0.605 -6.97,6.832 9.4,-2.613 -5.39,8.125 8.65,-4.504 -3.58,9.066 7.52,-6.207 -1.63,9.613 6.07,-7.636 0.42,9.742 4.33,-8.731 z"
         style="fill:none;stroke:#231f20;stroke-width:2.5;stroke-linecap:butt;stroke-linejoin:miter;stroke-miterlimit:10;stroke-dasharray:none;stroke-opacity:1"
         transform="matrix(0.13333333,0,0,-0.13333333,0,67.64)" />
      <path
         id="path29"
         d="m 1054.34,409.742 2.44,-9.441 4.33,8.726 0.42,-9.742 6.07,7.637 -1.62,-9.613 7.52,6.207 -3.58,-9.067 8.64,4.504 -5.39,-8.125 9.4,2.613 -6.95,-6.824 9.72,0.598 -8.23,-5.227 9.65,-1.437 -9.14,-3.406 9.14,-3.407 -9.65,-1.433 8.23,-5.231 -9.72,0.602 6.95,-6.828 -9.4,2.613 5.39,-8.129 -8.64,4.512 3.58,-9.067 -7.52,6.203 1.62,-9.613 -6.07,7.633 -0.42,-9.738 -4.33,8.726 -2.44,-9.437 -2.44,9.437 -4.34,-8.726 -0.41,9.738 -6.07,-7.633 1.62,9.613 -7.52,-6.203 3.58,9.067 -8.64,-4.512 5.39,8.129 -9.4,-2.613 6.96,6.828 -9.73,-0.602 8.22,5.231 -9.64,1.433 9.13,3.407 -9.13,3.406 9.64,1.437 -8.22,5.227 9.73,-0.598 -6.96,6.824 9.4,-2.613 -5.39,8.125 8.64,-4.504 -3.58,9.067 7.52,-6.207 -1.62,9.613 6.07,-7.637 0.41,9.742 4.34,-8.726 2.44,9.441"
         style="fill:#fddd1b;fill-opacity:1;fill-rule:nonzero;stroke:none"
         transform="matrix(0.13333333,0,0,-0.13333333,0,67.64)" />
      <path
         id="path30"
         d="m 1054.34,409.742 2.44,-9.441 4.33,8.726 0.42,-9.742 6.07,7.637 -1.62,-9.613 7.52,6.207 -3.58,-9.067 8.64,4.504 -5.39,-8.125 9.4,2.613 -6.95,-6.824 9.72,0.598 -8.23,-5.227 9.65,-1.437 -9.14,-3.406 9.14,-3.407 -9.65,-1.433 8.23,-5.231 -9.72,0.602 6.95,-6.828 -9.4,2.613 5.39,-8.129 -8.64,4.512 3.58,-9.067 -7.52,6.203 1.62,-9.613 -6.07,7.633 -0.42,-9.738 -4.33,8.726 -2.44,-9.437 -2.44,9.437 -4.34,-8.726 -0.41,9.738 -6.07,-7.633 1.62,9.613 -7.52,-6.203 3.58,9.067 -8.64,-4.512 5.39,8.129 -9.4,-2.613 6.96,6.828 -9.73,-0.602 8.22,5.231 -9.64,1.433 9.13,3.407 -9.13,3.406 9.64,1.437 -8.22,5.227 9.73,-0.598 -6.96,6.824 9.4,-2.613 -5.39,8.125 8.64,-4.504 -3.58,9.067 7.52,-6.207 -1.62,9.613 6.07,-7.637 0.41,9.742 4.34,-8.726 z"
         style="fill:none;stroke:#231f20;stroke-width:2.5;stroke-linecap:butt;stroke-linejoin:miter;stroke-miterlimit:10;stroke-dasharray:none;stroke-opacity:1"
         transform="matrix(0.13333333,0,0,-0.13333333,0,67.64)" />
      <path
         id="path31"
         d="m 1119.52,241.121 2.43,-9.441 4.35,8.73 0.41,-9.742 6.06,7.637 -1.61,-9.617 7.52,6.21 -3.58,-9.07 8.64,4.508 -5.39,-8.125 9.39,2.613 -6.95,-6.832 9.73,0.606 -8.23,-5.235 9.64,-1.429 -9.13,-3.411 9.13,-3.406 -9.64,-1.429 8.23,-5.235 -9.73,0.598 6.95,-6.824 -9.39,2.613 5.39,-8.125 -8.64,4.512 3.58,-9.075 -7.52,6.207 1.61,-9.613 -6.06,7.637 -0.41,-9.742 -4.35,8.73 -2.43,-9.445 -2.44,9.445 -4.34,-8.73 -0.42,9.742 -6.06,-7.637 1.62,9.613 -7.52,-6.207 3.58,9.075 -8.65,-4.512 5.39,8.125 -9.39,-2.613 6.95,6.824 -9.72,-0.598 8.23,5.235 -9.65,1.429 9.14,3.406 -9.14,3.411 9.65,1.429 -8.23,5.235 9.72,-0.606 -6.95,6.832 9.39,-2.613 -5.39,8.125 8.65,-4.508 -3.58,9.07 7.52,-6.21 -1.62,9.617 6.06,-7.637 0.42,9.742 4.34,-8.73 2.44,9.441"
         style="fill:#fddd1b;fill-opacity:1;fill-rule:nonzero;stroke:none"
         transform="matrix(0.13333333,0,0,-0.13333333,0,67.64)" />
      <path
         id="path32"
         d="m 1119.52,241.121 2.43,-9.441 4.35,8.73 0.41,-9.742 6.06,7.637 -1.61,-9.617 7.52,6.21 -3.58,-9.07 8.64,4.508 -5.39,-8.125 9.39,2.613 -6.95,-6.832 9.73,0.606 -8.23,-5.235 9.64,-1.429 -9.13,-3.411 9.13,-3.406 -9.64,-1.429 8.23,-5.235 -9.73,0.598 6.95,-6.824 -9.39,2.613 5.39,-8.125 -8.64,4.512 3.58,-9.075 -7.52,6.207 1.61,-9.613 -6.06,7.637 -0.41,-9.742 -4.35,8.73 -2.43,-9.445 -2.44,9.445 -4.34,-8.73 -0.42,9.742 -6.06,-7.637 1.62,9.613 -7.52,-6.207 3.58,9.075 -8.65,-4.512 5.39,8.125 -9.39,-2.613 6.95,6.824 -9.72,-0.598 8.23,5.235 -9.65,1.429 9.14,3.406 -9.14,3.411 9.65,1.429 -8.23,5.235 9.72,-0.606 -6.95,6.832 9.39,-2.613 -5.39,8.125 8.65,-4.508 -3.58,9.07 7.52,-6.21 -1.62,9.617 6.06,-7.637 0.42,9.742 4.34,-8.73 z"
         style="fill:none;stroke:#231f20;stroke-width:2.5;stroke-linecap:butt;stroke-linejoin:miter;stroke-miterlimit:10;stroke-dasharray:none;stroke-opacity:1"
         transform="matrix(0.13333333,0,0,-0.13333333,0,67.64)" />
      <path
         id="path33"
         d="m 999.133,204.047 2.427,-9.438 4.35,8.727 0.42,-9.738 6.05,7.632 -1.61,-9.613 7.52,6.203 -3.58,-9.066 8.64,4.512 -5.38,-8.125 9.38,2.609 -6.95,-6.828 9.73,0.601 -8.23,-5.23 9.64,-1.434 -9.13,-3.406 9.13,-3.406 -9.64,-1.438 8.23,-5.226 -9.73,0.597 6.95,-6.824 -9.38,2.614 5.38,-8.125 -8.64,4.503 3.58,-9.066 -7.52,6.207 1.61,-9.613 -6.05,7.637 -0.42,-9.743 -4.35,8.727 -2.427,-9.442 -2.445,9.442 -4.333,-8.727 -0.421,9.743 -6.067,-7.637 1.613,9.613 -7.507,-6.207 3.574,9.066 -8.645,-4.503 5.391,8.125 -9.395,-2.614 6.961,6.824 -9.734,-0.597 8.223,5.226 -9.637,1.438 9.129,3.406 -9.129,3.406 9.637,1.434 -8.223,5.23 9.734,-0.601 -6.961,6.828 9.395,-2.609 -5.391,8.125 8.645,-4.512 -3.574,9.066 7.507,-6.203 -1.613,9.613 6.067,-7.632 0.421,9.738 4.333,-8.727 2.445,9.438"
         style="fill:#fddd1b;fill-opacity:1;fill-rule:nonzero;stroke:none"
         transform="matrix(0.13333333,0,0,-0.13333333,0,67.64)" />
      <path
         id="path34"
         d="m 999.133,204.047 2.427,-9.438 4.35,8.727 0.42,-9.738 6.05,7.632 -1.61,-9.613 7.52,6.203 -3.58,-9.066 8.64,4.512 -5.38,-8.125 9.38,2.609 -6.95,-6.828 9.73,0.601 -8.23,-5.23 9.64,-1.434 -9.13,-3.406 9.13,-3.406 -9.64,-1.438 8.23,-5.226 -9.73,0.597 6.95,-6.824 -9.38,2.614 5.38,-8.125 -8.64,4.503 3.58,-9.066 -7.52,6.207 1.61,-9.613 -6.05,7.637 -0.42,-9.743 -4.35,8.727 -2.427,-9.442 -2.445,9.442 -4.333,-8.727 -0.421,9.743 -6.067,-7.637 1.613,9.613 -7.507,-6.207 3.574,9.066 -8.645,-4.503 5.391,8.125 -9.395,-2.614 6.961,6.824 -9.734,-0.597 8.223,5.226 -9.637,1.438 9.129,3.406 -9.129,3.406 9.637,1.434 -8.223,5.23 9.734,-0.601 -6.961,6.828 9.395,-2.609 -5.391,8.125 8.645,-4.512 -3.574,9.066 7.507,-6.203 -1.613,9.613 6.067,-7.632 0.421,9.738 4.333,-8.727 z"
         style="fill:none;stroke:#231f20;stroke-width:2.5;stroke-linecap:butt;stroke-linejoin:miter;stroke-miterlimit:10;stroke-dasharray:none;stroke-opacity:1"
         transform="matrix(0.13333333,0,0,-0.13333333,0,67.64)" />
      <path
         id="path35"
         d="m 859.07,222.457 2.434,-9.445 4.348,8.73 0.418,-9.738 6.066,7.629 -1.621,-9.613 7.515,6.21 -3.582,-9.074 8.653,4.516 -5.391,-8.125 9.395,2.609 -6.961,-6.832 9.734,0.606 -8.23,-5.235 9.644,-1.429 -9.137,-3.407 9.137,-3.41 -9.644,-1.433 8.23,-5.231 -9.734,0.602 6.961,-6.828 -9.395,2.613 5.391,-8.125 -8.653,4.508 3.582,-9.071 -7.515,6.207 1.621,-9.613 -6.066,7.637 -0.418,-9.742 -4.348,8.73 -2.434,-9.441 -2.429,9.441 -4.344,-8.73 -0.422,9.742 -6.055,-7.637 1.614,9.613 -7.524,-6.207 3.586,9.071 -8.641,-4.508 5.379,8.125 -9.382,-2.613 6.953,6.828 -9.731,-0.602 8.227,5.231 -9.641,1.433 9.133,3.41 -9.133,3.407 9.641,1.429 -8.227,5.235 9.731,-0.606 -6.953,6.832 9.382,-2.609 -5.379,8.125 8.641,-4.516 -3.586,9.074 7.524,-6.21 -1.614,9.613 6.055,-7.629 0.422,9.738 4.344,-8.73 2.429,9.445"
         style="fill:#fddd1b;fill-opacity:1;fill-rule:nonzero;stroke:none"
         transform="matrix(0.13333333,0,0,-0.13333333,0,67.64)" />
      <path
         id="path36"
         d="m 859.07,222.457 2.434,-9.445 4.348,8.73 0.418,-9.738 6.066,7.629 -1.621,-9.613 7.515,6.21 -3.582,-9.074 8.653,4.516 -5.391,-8.125 9.395,2.609 -6.961,-6.832 9.734,0.606 -8.23,-5.235 9.644,-1.429 -9.137,-3.407 9.137,-3.41 -9.644,-1.433 8.23,-5.231 -9.734,0.602 6.961,-6.828 -9.395,2.613 5.391,-8.125 -8.653,4.508 3.582,-9.071 -7.515,6.207 1.621,-9.613 -6.066,7.637 -0.418,-9.742 -4.348,8.73 -2.434,-9.441 -2.429,9.441 -4.344,-8.73 -0.422,9.742 -6.055,-7.637 1.614,9.613 -7.524,-6.207 3.586,9.071 -8.641,-4.508 5.379,8.125 -9.382,-2.613 6.953,6.828 -9.731,-0.602 8.227,5.231 -9.641,1.433 9.133,3.41 -9.133,3.407 9.641,1.429 -8.227,5.235 9.731,-0.606 -6.953,6.832 9.382,-2.609 -5.379,8.125 8.641,-4.516 -3.586,9.074 7.524,-6.21 -1.614,9.613 6.055,-7.629 0.422,9.738 4.344,-8.73 z"
         style="fill:none;stroke:#231f20;stroke-width:2.5;stroke-linecap:butt;stroke-linejoin:miter;stroke-miterlimit:10;stroke-dasharray:none;stroke-opacity:1"
         transform="matrix(0.13333333,0,0,-0.13333333,0,67.64)" />
      <path
         id="path37"
         d="m 1063.04,96.0898 2.43,-9.4414 4.34,8.7266 0.42,-9.7344 6.06,7.6289 -1.61,-9.6132 7.52,6.2109 -3.59,-9.0703 8.65,4.5117 -5.38,-8.125 9.38,2.6055 -6.95,-6.8243 9.72,0.6055 -8.22,-5.2344 9.64,-1.4375 -9.13,-3.4023 9.13,-3.4102 -9.64,-1.4336 8.22,-5.2304 -9.72,0.6015 6.95,-6.8281 -9.38,2.6133 5.38,-8.125 -8.65,4.5078 3.59,-9.0664 -7.52,6.2031 1.61,-9.6133 -6.06,7.6368 -0.42,-9.7422 -4.34,8.7304 -2.43,-9.4414 -2.44,9.4414 -4.34,-8.7304 -0.42,9.7422 -6.06,-7.6368 1.61,9.6133 -7.51,-6.2031 3.57,9.0664 -8.64,-4.5078 5.39,8.125 -9.4,-2.6133 6.97,6.8281 -9.74,-0.6015 8.22,5.2304 -9.63,1.4336 9.13,3.4102 -9.13,3.4023 9.63,1.4375 -8.22,5.2344 9.74,-0.6055 -6.97,6.8243 9.4,-2.6055 -5.39,8.125 8.64,-4.5117 -3.57,9.0703 7.51,-6.2109 -1.61,9.6132 6.06,-7.6289 0.42,9.7344 4.34,-8.7266 2.44,9.4414"
         style="fill:#fddd1b;fill-opacity:1;fill-rule:nonzero;stroke:none"
         transform="matrix(0.13333333,0,0,-0.13333333,0,67.64)" />
      <path
         id="path38"
         d="m 1063.04,96.0898 2.43,-9.4414 4.34,8.7266 0.42,-9.7344 6.06,7.6289 -1.61,-9.6132 7.52,6.2109 -3.59,-9.0703 8.65,4.5117 -5.38,-8.125 9.38,2.6055 -6.95,-6.8243 9.72,0.6055 -8.22,-5.2344 9.64,-1.4375 -9.13,-3.4023 9.13,-3.4102 -9.64,-1.4336 8.22,-5.2304 -9.72,0.6015 6.95,-6.8281 -9.38,2.6133 5.38,-8.125 -8.65,4.5078 3.59,-9.0664 -7.52,6.2031 1.61,-9.6133 -6.06,7.6368 -0.42,-9.7422 -4.34,8.7304 -2.43,-9.4414 -2.44,9.4414 -4.34,-8.7304 -0.42,9.7422 -6.06,-7.6368 1.61,9.6133 -7.51,-6.2031 3.57,9.0664 -8.64,-4.5078 5.39,8.125 -9.4,-2.6133 6.97,6.8281 -9.74,-0.6015 8.22,5.2304 -9.63,1.4336 9.13,3.4102 -9.13,3.4023 9.63,1.4375 -8.22,5.2344 9.74,-0.6055 -6.97,6.8243 9.4,-2.6055 -5.39,8.125 8.64,-4.5117 -3.57,9.0703 7.51,-6.2109 -1.61,9.6132 6.06,-7.6289 0.42,9.7344 4.34,-8.7266 z"
         style="fill:none;stroke:#231f20;stroke-width:2.5;stroke-linecap:butt;stroke-linejoin:miter;stroke-miterlimit:10;stroke-dasharray:none;stroke-opacity:1"
         transform="matrix(0.13333333,0,0,-0.13333333,0,67.64)" />
      <path
         id="path39"
         d="m 825.652,84.9805 2.434,-9.4453 4.348,8.7304 0.418,-9.7383 6.066,7.629 -1.621,-9.6094 7.516,6.207 -3.575,-9.0664 8.645,4.5078 -5.391,-8.125 9.395,2.6094 -6.961,-6.8281 9.734,0.6054 -8.23,-5.2343 9.644,-1.4297 -9.136,-3.4102 9.136,-3.4101 -9.644,-1.4297 8.23,-5.2344 -9.734,0.6016 6.961,-6.8243 -9.395,2.6094 5.391,-8.125 -8.645,4.5078 3.575,-9.0664 -7.516,6.2031 1.621,-9.6132 -6.066,7.6367 -0.418,-9.7422 -4.348,8.7305 -2.434,-9.4414 -2.429,9.4414 -4.344,-8.7305 -0.41,9.7422 -6.067,-7.6367 1.614,9.6132 -7.524,-6.2031 3.586,9.0664 -8.64,-4.5078 5.386,8.125 -9.39,-2.6094 6.953,6.8243 -9.731,-0.6016 8.227,5.2344 -9.641,1.4297 9.129,3.4101 -9.129,3.4102 9.641,1.4297 -8.227,5.2343 9.731,-0.6054 -6.953,6.8281 9.39,-2.6094 -5.386,8.125 8.64,-4.5078 -3.586,9.0664 7.524,-6.207 -1.614,9.6094 6.067,-7.629 0.41,9.7383 4.344,-8.7304 2.429,9.4453"
         style="fill:#fddd1b;fill-opacity:1;fill-rule:nonzero;stroke:none"
         transform="matrix(0.13333333,0,0,-0.13333333,0,67.64)" />
      <path
         id="path40"
         d="m 825.652,84.9805 2.434,-9.4453 4.348,8.7304 0.418,-9.7383 6.066,7.629 -1.621,-9.6094 7.516,6.207 -3.575,-9.0664 8.645,4.5078 -5.391,-8.125 9.395,2.6094 -6.961,-6.8281 9.734,0.6054 -8.23,-5.2343 9.644,-1.4297 -9.136,-3.4102 9.136,-3.4101 -9.644,-1.4297 8.23,-5.2344 -9.734,0.6016 6.961,-6.8243 -9.395,2.6094 5.391,-8.125 -8.645,4.5078 3.575,-9.0664 -7.516,6.2031 1.621,-9.6132 -6.066,7.6367 -0.418,-9.7422 -4.348,8.7305 -2.434,-9.4414 -2.429,9.4414 -4.344,-8.7305 -0.41,9.7422 -6.067,-7.6367 1.614,9.6132 -7.524,-6.2031 3.586,9.0664 -8.64,-4.5078 5.386,8.125 -9.39,-2.6094 6.953,6.8243 -9.731,-0.6016 8.227,5.2344 -9.641,1.4297 9.129,3.4101 -9.129,3.4102 9.641,1.4297 -8.227,5.2343 9.731,-0.6054 -6.953,6.8281 9.39,-2.6094 -5.386,8.125 8.64,-4.5078 -3.586,9.0664 7.524,-6.207 -1.614,9.6094 6.067,-7.629 0.41,9.7383 4.344,-8.7304 z"
         style="fill:none;stroke:#231f20;stroke-width:2.5;stroke-linecap:butt;stroke-linejoin:miter;stroke-miterlimit:10;stroke-dasharray:none;stroke-opacity:1"
         transform="matrix(0.13333333,0,0,-0.13333333,0,67.64)" />
      <path
         id="path41"
         d="m 1147.59,337.871 2.43,-9.445 4.35,8.73 0.42,-9.738 6.06,7.629 -1.62,-9.613 7.52,6.211 -3.59,-9.067 8.66,4.508 -5.39,-8.125 9.39,2.609 -6.96,-6.828 9.73,0.606 -8.23,-5.231 9.65,-1.437 -9.14,-3.407 9.14,-3.41 -9.65,-1.429 8.23,-5.235 -9.73,0.606 6.96,-6.832 -9.39,2.613 5.39,-8.125 -8.66,4.512 3.59,-9.071 -7.52,6.211 1.62,-9.617 -6.06,7.633 -0.42,-9.742 -4.35,8.73 -2.43,-9.441 -2.43,9.441 -4.35,-8.73 -0.41,9.742 -6.06,-7.633 1.61,9.617 -7.52,-6.211 3.58,9.071 -8.64,-4.512 5.38,8.125 -9.39,-2.613 6.96,6.832 -9.73,-0.606 8.22,5.235 -9.63,1.429 9.13,3.41 -9.13,3.407 9.63,1.437 -8.22,5.231 9.73,-0.606 -6.96,6.828 9.39,-2.609 -5.38,8.125 8.64,-4.508 -3.58,9.067 7.52,-6.211 -1.61,9.613 6.06,-7.629 0.41,9.738 4.35,-8.73 2.43,9.445"
         style="fill:#fddd1b;fill-opacity:1;fill-rule:nonzero;stroke:none"
         transform="matrix(0.13333333,0,0,-0.13333333,0,67.64)" />
      <path
         id="path42"
         d="m 1147.59,337.871 2.43,-9.445 4.35,8.73 0.42,-9.738 6.06,7.629 -1.62,-9.613 7.52,6.211 -3.59,-9.067 8.66,4.508 -5.39,-8.125 9.39,2.609 -6.96,-6.828 9.73,0.606 -8.23,-5.231 9.65,-1.437 -9.14,-3.407 9.14,-3.41 -9.65,-1.429 8.23,-5.235 -9.73,0.606 6.96,-6.832 -9.39,2.613 5.39,-8.125 -8.66,4.512 3.59,-9.071 -7.52,6.211 1.62,-9.617 -6.06,7.633 -0.42,-9.742 -4.35,8.73 -2.43,-9.441 -2.43,9.441 -4.35,-8.73 -0.41,9.742 -6.06,-7.633 1.61,9.617 -7.52,-6.211 3.58,9.071 -8.64,-4.512 5.38,8.125 -9.39,-2.613 6.96,6.832 -9.73,-0.606 8.22,5.235 -9.63,1.429 9.13,3.41 -9.13,3.407 9.63,1.437 -8.22,5.231 9.73,-0.606 -6.96,6.828 9.39,-2.609 -5.38,8.125 8.64,-4.508 -3.58,9.067 7.52,-6.211 -1.61,9.613 6.06,-7.629 0.41,9.738 4.35,-8.73 z"
         style="fill:none;stroke:#231f20;stroke-width:2.5;stroke-linecap:butt;stroke-linejoin:miter;stroke-miterlimit:10;stroke-dasharray:none;stroke-opacity:1"
         transform="matrix(0.13333333,0,0,-0.13333333,0,67.64)" />
      <path
         id="path43"
         d="m 1214.47,416.703 2.44,-9.437 4.34,8.73 0.41,-9.742 6.07,7.633 -1.62,-9.614 7.52,6.204 -3.58,-9.067 8.64,4.512 -5.39,-8.129 9.39,2.617 -6.95,-6.832 9.72,0.606 -8.22,-5.235 9.65,-1.429 -9.14,-3.411 9.14,-3.406 -9.65,-1.437 8.22,-5.227 -9.72,0.598 6.95,-6.824 -9.39,2.613 5.39,-8.125 -8.64,4.504 3.58,-9.067 -7.52,6.207 1.62,-9.613 -6.07,7.637 -0.41,-9.742 -4.34,8.73 -2.44,-9.445 -2.42,9.445 -4.36,-8.73 -0.41,9.742 -6.07,-7.637 1.62,9.613 -7.52,-6.207 3.57,9.067 -8.64,-4.504 5.39,8.125 -9.39,-2.613 6.96,6.824 -9.73,-0.598 8.23,5.227 -9.65,1.437 9.14,3.406 -9.14,3.411 9.65,1.429 -8.23,5.235 9.73,-0.606 -6.96,6.832 9.39,-2.617 -5.39,8.129 8.64,-4.512 -3.57,9.067 7.52,-6.204 -1.62,9.614 6.07,-7.633 0.41,9.742 4.36,-8.73 2.42,9.437"
         style="fill:#fddd1b;fill-opacity:1;fill-rule:nonzero;stroke:none"
         transform="matrix(0.13333333,0,0,-0.13333333,0,67.64)" />
      <path
         id="path44"
         d="m 1214.47,416.703 2.44,-9.437 4.34,8.73 0.41,-9.742 6.07,7.633 -1.62,-9.614 7.52,6.204 -3.58,-9.067 8.64,4.512 -5.39,-8.129 9.39,2.617 -6.95,-6.832 9.72,0.606 -8.22,-5.235 9.65,-1.429 -9.14,-3.411 9.14,-3.406 -9.65,-1.437 8.22,-5.227 -9.72,0.598 6.95,-6.824 -9.39,2.613 5.39,-8.125 -8.64,4.504 3.58,-9.067 -7.52,6.207 1.62,-9.613 -6.07,7.637 -0.41,-9.742 -4.34,8.73 -2.44,-9.445 -2.42,9.445 -4.36,-8.73 -0.41,9.742 -6.07,-7.637 1.62,9.613 -7.52,-6.207 3.57,9.067 -8.64,-4.504 5.39,8.125 -9.39,-2.613 6.96,6.824 -9.73,-0.598 8.23,5.227 -9.65,1.437 9.14,3.406 -9.14,3.411 9.65,1.429 -8.23,5.235 9.73,-0.606 -6.96,6.832 9.39,-2.617 -5.39,8.129 8.64,-4.512 -3.57,9.067 7.52,-6.204 -1.62,9.614 6.07,-7.633 0.41,9.742 4.36,-8.73 z"
         style="fill:none;stroke:#231f20;stroke-width:2.5;stroke-linecap:butt;stroke-linejoin:miter;stroke-miterlimit:10;stroke-dasharray:none;stroke-opacity:1"
         transform="matrix(0.13333333,0,0,-0.13333333,0,67.64)" />
      <path
         id="path45"
         d="m 1147.59,150.172 2.43,-9.442 4.35,8.727 0.42,-9.742 6.06,7.637 -1.62,-9.614 7.52,6.207 -3.59,-9.066 8.66,4.504 -5.39,-8.125 9.39,2.613 -6.96,-6.824 9.73,0.598 -8.23,-5.227 9.65,-1.438 -9.14,-3.406 9.14,-3.41 -9.65,-1.43 8.23,-5.234 -9.73,0.605 6.96,-6.832 -9.39,2.618 5.39,-8.1293 -8.66,4.5113 3.59,-9.066 -7.52,6.2032 1.62,-9.6133 -6.06,7.6328 -0.42,-9.7422 -4.35,8.7305 -2.43,-9.4375 -2.43,9.4375 -4.35,-8.7305 -0.41,9.7422 -6.06,-7.6328 1.61,9.6133 -7.52,-6.2032 3.58,9.066 -8.64,-4.5113 5.38,8.1293 -9.39,-2.618 6.96,6.832 -9.73,-0.605 8.22,5.234 -9.63,1.43 9.13,3.41 -9.13,3.406 9.63,1.438 -8.22,5.227 9.73,-0.598 -6.96,6.824 9.39,-2.613 -5.38,8.125 8.64,-4.504 -3.58,9.066 7.52,-6.207 -1.61,9.614 6.06,-7.637 0.41,9.742 4.35,-8.727 2.43,9.442"
         style="fill:#fddd1b;fill-opacity:1;fill-rule:nonzero;stroke:none"
         transform="matrix(0.13333333,0,0,-0.13333333,0,67.64)" />
      <path
         id="path46"
         d="m 1147.59,150.172 2.43,-9.442 4.35,8.727 0.42,-9.742 6.06,7.637 -1.62,-9.614 7.52,6.207 -3.59,-9.066 8.66,4.504 -5.39,-8.125 9.39,2.613 -6.96,-6.824 9.73,0.598 -8.23,-5.227 9.65,-1.438 -9.14,-3.406 9.14,-3.41 -9.65,-1.43 8.23,-5.234 -9.73,0.605 6.96,-6.832 -9.39,2.618 5.39,-8.1293 -8.66,4.5113 3.59,-9.066 -7.52,6.2032 1.62,-9.6133 -6.06,7.6328 -0.42,-9.7422 -4.35,8.7305 -2.43,-9.4375 -2.43,9.4375 -4.35,-8.7305 -0.41,9.7422 -6.06,-7.6328 1.61,9.6133 -7.52,-6.2032 3.58,9.066 -8.64,-4.5113 5.38,8.1293 -9.39,-2.618 6.96,6.832 -9.73,-0.605 8.22,5.234 -9.63,1.43 9.13,3.41 -9.13,3.406 9.63,1.438 -8.22,5.227 9.73,-0.598 -6.96,6.824 9.39,-2.613 -5.38,8.125 8.64,-4.504 -3.58,9.066 7.52,-6.207 -1.61,9.614 6.06,-7.637 0.41,9.742 4.35,-8.727 z"
         style="fill:none;stroke:#231f20;stroke-width:2.5;stroke-linecap:butt;stroke-linejoin:miter;stroke-miterlimit:10;stroke-dasharray:none;stroke-opacity:1"
         transform="matrix(0.13333333,0,0,-0.13333333,0,67.64)" />
      <path
         id="path47"
         d="m 1246.89,221.117 2.44,-9.441 4.34,8.73 0.41,-9.742 6.07,7.633 -1.62,-9.617 7.52,6.211 -3.59,-9.071 8.65,4.512 -5.39,-8.125 9.39,2.613 -6.95,-6.832 9.73,0.606 -8.23,-5.235 9.65,-1.429 -9.14,-3.41 9.14,-3.407 -9.65,-1.437 8.23,-5.231 -9.73,0.606 6.95,-6.828 -9.39,2.613 5.39,-8.125 -8.65,4.504 3.59,-9.067 -7.52,6.211 1.62,-9.613 -6.07,7.633 -0.41,-9.742 -4.34,8.73 -2.44,-9.445 -2.44,9.445 -4.34,-8.73 -0.43,9.742 -6.05,-7.633 1.62,9.613 -7.52,-6.211 3.57,9.067 -8.63,-4.504 5.37,8.125 -9.37,-2.613 6.95,6.828 -9.73,-0.606 8.23,5.231 -9.65,1.437 9.14,3.407 -9.14,3.41 9.65,1.429 -8.23,5.235 9.73,-0.606 -6.95,6.832 9.37,-2.613 -5.37,8.125 8.63,-4.512 -3.57,9.071 7.52,-6.211 -1.62,9.617 6.05,-7.633 0.43,9.742 4.34,-8.73 2.44,9.441"
         style="fill:#fddd1b;fill-opacity:1;fill-rule:nonzero;stroke:none"
         transform="matrix(0.13333333,0,0,-0.13333333,0,67.64)" />
      <path
         id="path48"
         d="m 1246.89,221.117 2.44,-9.441 4.34,8.73 0.41,-9.742 6.07,7.633 -1.62,-9.617 7.52,6.211 -3.59,-9.071 8.65,4.512 -5.39,-8.125 9.39,2.613 -6.95,-6.832 9.73,0.606 -8.23,-5.235 9.65,-1.429 -9.14,-3.41 9.14,-3.407 -9.65,-1.437 8.23,-5.231 -9.73,0.606 6.95,-6.828 -9.39,2.613 5.39,-8.125 -8.65,4.504 3.59,-9.067 -7.52,6.211 1.62,-9.613 -6.07,7.633 -0.41,-9.742 -4.34,8.73 -2.44,-9.445 -2.44,9.445 -4.34,-8.73 -0.43,9.742 -6.05,-7.633 1.62,9.613 -7.52,-6.211 3.57,9.067 -8.63,-4.504 5.37,8.125 -9.37,-2.613 6.95,6.828 -9.73,-0.606 8.23,5.231 -9.65,1.437 9.14,3.407 -9.14,3.41 9.65,1.429 -8.23,5.235 9.73,-0.606 -6.95,6.832 9.37,-2.613 -5.37,8.125 8.63,-4.512 -3.57,9.071 7.52,-6.211 -1.62,9.617 6.05,-7.633 0.43,9.742 4.34,-8.73 z"
         style="fill:none;stroke:#231f20;stroke-width:2.5;stroke-linecap:butt;stroke-linejoin:miter;stroke-miterlimit:10;stroke-dasharray:none;stroke-opacity:1"
         transform="matrix(0.13333333,0,0,-0.13333333,0,67.64)" />
      <path
         id="path49"
         d="m 1272.4,90.8477 2.44,-9.4375 4.33,8.7304 0.43,-9.7422 6.06,7.6329 -1.62,-9.6133 7.52,6.207 -3.58,-9.0703 8.64,4.5078 -5.37,-8.125 9.37,2.6172 -6.95,-6.832 9.72,0.6054 -8.22,-5.2343 9.65,-1.4297 -9.14,-3.4063 9.14,-3.4101 -9.65,-1.4336 8.22,-5.2305 -9.72,0.6016 6.95,-6.8282 -9.37,2.6133 5.37,-8.125 -8.64,4.5078 3.58,-9.0703 -7.52,6.207 1.62,-9.6132 -6.06,7.6367 -0.43,-9.7422 -4.33,8.7266 -2.44,-9.4375 -2.42,9.4375 -4.36,-8.7266 -0.41,9.7422 -6.07,-7.6367 1.62,9.6132 -7.52,-6.207 3.57,9.0703 -8.63,-4.5078 5.39,8.125 -9.4,-2.6133 6.96,6.8282 -9.73,-0.6016 8.22,5.2305 -9.64,1.4336 9.14,3.4101 -9.14,3.4063 9.64,1.4297 -8.22,5.2343 9.73,-0.6054 -6.96,6.832 9.4,-2.6172 -5.39,8.125 8.63,-4.5078 -3.57,9.0703 7.52,-6.207 -1.62,9.6133 6.07,-7.6329 0.41,9.7422 4.36,-8.7304 2.42,9.4375"
         style="fill:#fddd1b;fill-opacity:1;fill-rule:nonzero;stroke:none"
         transform="matrix(0.13333333,0,0,-0.13333333,0,67.64)" />
      <path
         id="path50"
         d="m 1272.4,90.8477 2.44,-9.4375 4.33,8.7304 0.43,-9.7422 6.06,7.6329 -1.62,-9.6133 7.52,6.207 -3.58,-9.0703 8.64,4.5078 -5.37,-8.125 9.37,2.6172 -6.95,-6.832 9.72,0.6054 -8.22,-5.2343 9.65,-1.4297 -9.14,-3.4063 9.14,-3.4101 -9.65,-1.4336 8.22,-5.2305 -9.72,0.6016 6.95,-6.8282 -9.37,2.6133 5.37,-8.125 -8.64,4.5078 3.58,-9.0703 -7.52,6.207 1.62,-9.6132 -6.06,7.6367 -0.43,-9.7422 -4.33,8.7266 -2.44,-9.4375 -2.42,9.4375 -4.36,-8.7266 -0.41,9.7422 -6.07,-7.6367 1.62,9.6132 -7.52,-6.207 3.57,9.0703 -8.63,-4.5078 5.39,8.125 -9.4,-2.6133 6.96,6.8282 -9.73,-0.6016 8.22,5.2305 -9.64,1.4336 9.14,3.4101 -9.14,3.4063 9.64,1.4297 -8.22,5.2343 9.73,-0.6054 -6.96,6.832 9.4,-2.6172 -5.39,8.125 8.63,-4.5078 -3.57,9.0703 7.52,-6.207 -1.62,9.6133 6.07,-7.6329 0.41,9.7422 4.36,-8.7304 z"
         style="fill:none;stroke:#231f20;stroke-width:2.5;stroke-linecap:butt;stroke-linejoin:miter;stroke-miterlimit:10;stroke-dasharray:none;stroke-opacity:1"
         transform="matrix(0.13333333,0,0,-0.13333333,0,67.64)" />
      <path
         id="path51"
         d="m 1321.58,481.898 2.44,-9.441 4.33,8.731 0.43,-9.743 6.06,7.637 -1.62,-9.613 7.52,6.203 -3.58,-9.067 8.66,4.508 -5.4,-8.125 9.4,2.614 -6.97,-6.829 9.72,0.602 -8.22,-5.234 9.65,-1.43 -9.14,-3.41 9.14,-3.406 -9.65,-1.434 8.22,-5.234 -9.72,0.605 6.97,-6.828 -9.4,2.609 5.4,-8.125 -8.66,4.508 3.58,-9.062 -7.52,6.203 1.62,-9.617 -6.06,7.636 -0.43,-9.738 -4.33,8.73 -2.44,-9.445 -2.42,9.445 -4.36,-8.73 -0.41,9.738 -6.07,-7.636 1.62,9.617 -7.52,-6.203 3.59,9.062 -8.65,-4.508 5.39,8.125 -9.4,-2.609 6.96,6.828 -9.73,-0.605 8.22,5.234 -9.64,1.434 9.14,3.406 -9.14,3.41 9.64,1.43 -8.22,5.234 9.73,-0.602 -6.96,6.829 9.4,-2.614 -5.39,8.125 8.65,-4.508 -3.59,9.067 7.52,-6.203 -1.62,9.613 6.07,-7.637 0.41,9.743 4.36,-8.731 2.42,9.441"
         style="fill:#fddd1b;fill-opacity:1;fill-rule:nonzero;stroke:none"
         transform="matrix(0.13333333,0,0,-0.13333333,0,67.64)" />
      <path
         id="path52"
         d="m 1321.58,481.898 2.44,-9.441 4.33,8.731 0.43,-9.743 6.06,7.637 -1.62,-9.613 7.52,6.203 -3.58,-9.067 8.66,4.508 -5.4,-8.125 9.4,2.614 -6.97,-6.829 9.72,0.602 -8.22,-5.234 9.65,-1.43 -9.14,-3.41 9.14,-3.406 -9.65,-1.434 8.22,-5.234 -9.72,0.605 6.97,-6.828 -9.4,2.609 5.4,-8.125 -8.66,4.508 3.58,-9.062 -7.52,6.203 1.62,-9.617 -6.06,7.636 -0.43,-9.738 -4.33,8.73 -2.44,-9.445 -2.42,9.445 -4.36,-8.73 -0.41,9.738 -6.07,-7.636 1.62,9.617 -7.52,-6.203 3.59,9.062 -8.65,-4.508 5.39,8.125 -9.4,-2.609 6.96,6.828 -9.73,-0.605 8.22,5.234 -9.64,1.434 9.14,3.406 -9.14,3.41 9.64,1.43 -8.22,5.234 9.73,-0.602 -6.96,6.829 9.4,-2.614 -5.39,8.125 8.65,-4.508 -3.59,9.067 7.52,-6.203 -1.62,9.613 6.07,-7.637 0.41,9.743 4.36,-8.731 z"
         style="fill:none;stroke:#231f20;stroke-width:2.5;stroke-linecap:butt;stroke-linejoin:miter;stroke-miterlimit:10;stroke-dasharray:none;stroke-opacity:1"
         transform="matrix(0.13333333,0,0,-0.13333333,0,67.64)" />
      <path
         id="path53"
         d="m 1289.16,351.508 2.44,-9.442 4.33,8.731 0.43,-9.742 6.06,7.636 -1.62,-9.621 7.52,6.211 -3.58,-9.07 8.65,4.512 -5.39,-8.125 9.4,2.613 -6.96,-6.828 9.73,0.601 -8.24,-5.234 9.65,-1.43 -9.14,-3.41 9.14,-3.406 -9.65,-1.438 8.24,-5.23 -9.73,0.605 6.96,-6.828 -9.4,2.61 5.39,-8.125 -8.65,4.507 3.58,-9.066 -7.52,6.207 1.62,-9.617 -6.06,7.637 -0.43,-9.739 -4.33,8.731 -2.44,-9.445 -2.43,9.445 -4.35,-8.731 -0.41,9.739 -6.06,-7.637 1.6,9.617 -7.51,-6.207 3.59,9.066 -8.65,-4.507 5.39,8.125 -9.4,-2.61 6.96,6.828 -9.73,-0.605 8.22,5.23 -9.63,1.438 9.12,3.406 -9.12,3.41 9.63,1.43 -8.22,5.234 9.73,-0.601 -6.96,6.828 9.4,-2.613 -5.39,8.125 8.65,-4.512 -3.59,9.07 7.51,-6.211 -1.6,9.621 6.06,-7.636 0.41,9.742 4.35,-8.731 2.43,9.442"
         style="fill:#fddd1b;fill-opacity:1;fill-rule:nonzero;stroke:none"
         transform="matrix(0.13333333,0,0,-0.13333333,0,67.64)" />
      <path
         id="path54"
         d="m 1289.16,351.508 2.44,-9.442 4.33,8.731 0.43,-9.742 6.06,7.636 -1.62,-9.621 7.52,6.211 -3.58,-9.07 8.65,4.512 -5.39,-8.125 9.4,2.613 -6.96,-6.828 9.73,0.601 -8.24,-5.234 9.65,-1.43 -9.14,-3.41 9.14,-3.406 -9.65,-1.438 8.24,-5.23 -9.73,0.605 6.96,-6.828 -9.4,2.61 5.39,-8.125 -8.65,4.507 3.58,-9.066 -7.52,6.207 1.62,-9.617 -6.06,7.637 -0.43,-9.739 -4.33,8.731 -2.44,-9.445 -2.43,9.445 -4.35,-8.731 -0.41,9.739 -6.06,-7.637 1.6,9.617 -7.51,-6.207 3.59,9.066 -8.65,-4.507 5.39,8.125 -9.4,-2.61 6.96,6.828 -9.73,-0.605 8.22,5.23 -9.63,1.438 9.12,3.406 -9.12,3.41 9.63,1.43 -8.22,5.234 9.73,-0.601 -6.96,6.828 9.4,-2.613 -5.39,8.125 8.65,-4.512 -3.59,9.07 7.51,-6.211 -1.6,9.621 6.06,-7.636 0.41,9.742 4.35,-8.731 z"
         style="fill:none;stroke:#231f20;stroke-width:2.5;stroke-linecap:butt;stroke-linejoin:miter;stroke-miterlimit:10;stroke-dasharray:none;stroke-opacity:1"
         transform="matrix(0.13333333,0,0,-0.13333333,0,67.64)" />
      <path
         id="path55"
         d="m 1349.41,236.645 2.44,-9.438 4.34,8.727 0.43,-9.743 6.05,7.637 -1.62,-9.613 7.52,6.207 -3.57,-9.07 8.63,4.507 -5.37,-8.125 9.39,2.614 -6.97,-6.828 9.73,0.601 -8.23,-5.23 9.65,-1.434 -9.14,-3.41 9.14,-3.402 -9.65,-1.434 8.23,-5.238 -9.73,0.605 6.97,-6.828 -9.39,2.617 5.37,-8.133 -8.63,4.512 3.57,-9.066 -7.52,6.207 1.62,-9.614 -6.05,7.629 -0.43,-9.738 -4.34,8.731 -2.44,-9.442 -2.42,9.442 -4.36,-8.731 -0.41,9.738 -6.07,-7.629 1.62,9.614 -7.52,-6.207 3.57,9.066 -8.63,-4.512 5.39,8.133 -9.39,-2.617 6.95,6.828 -9.73,-0.605 8.23,5.238 -9.65,1.434 9.14,3.402 -9.14,3.41 9.65,1.434 -8.23,5.23 9.73,-0.601 -6.95,6.828 9.39,-2.614 -5.39,8.125 8.63,-4.507 -3.57,9.07 7.52,-6.207 -1.62,9.613 6.07,-7.637 0.41,9.743 4.36,-8.727 2.42,9.438"
         style="fill:#fddd1b;fill-opacity:1;fill-rule:nonzero;stroke:none"
         transform="matrix(0.13333333,0,0,-0.13333333,0,67.64)" />
      <path
         id="path56"
         d="m 1349.41,236.645 2.44,-9.438 4.34,8.727 0.43,-9.743 6.05,7.637 -1.62,-9.613 7.52,6.207 -3.57,-9.07 8.63,4.507 -5.37,-8.125 9.39,2.614 -6.97,-6.828 9.73,0.601 -8.23,-5.23 9.65,-1.434 -9.14,-3.41 9.14,-3.402 -9.65,-1.434 8.23,-5.238 -9.73,0.605 6.97,-6.828 -9.39,2.617 5.37,-8.133 -8.63,4.512 3.57,-9.066 -7.52,6.207 1.62,-9.614 -6.05,7.629 -0.43,-9.738 -4.34,8.731 -2.44,-9.442 -2.42,9.442 -4.36,-8.731 -0.41,9.738 -6.07,-7.629 1.62,9.614 -7.52,-6.207 3.57,9.066 -8.63,-4.512 5.39,8.133 -9.39,-2.617 6.95,6.828 -9.73,-0.605 8.23,5.238 -9.65,1.434 9.14,3.402 -9.14,3.41 9.65,1.434 -8.23,5.23 9.73,-0.601 -6.95,6.828 9.39,-2.614 -5.39,8.125 8.63,-4.507 -3.57,9.07 7.52,-6.207 -1.62,9.613 6.07,-7.637 0.41,9.743 4.36,-8.727 z"
         style="fill:none;stroke:#231f20;stroke-width:2.5;stroke-linecap:butt;stroke-linejoin:miter;stroke-miterlimit:10;stroke-dasharray:none;stroke-opacity:1"
         transform="matrix(0.13333333,0,0,-0.13333333,0,67.64)" />
      <path
         id="path57"
         d="m 1377.77,136.484 2.44,-9.437 4.34,8.723 0.41,-9.735 6.07,7.633 -1.62,-9.617 7.52,6.207 -3.58,-9.067 8.64,4.512 -5.37,-8.129 9.39,2.61 -6.97,-6.825 9.72,0.602 -8.22,-5.231 9.65,-1.433 -9.14,-3.406 9.14,-3.407 -9.65,-1.4371 8.22,-5.2305 -9.72,0.6016 6.97,-6.8242 -9.39,2.6093 5.37,-8.125 -8.64,4.5078 3.58,-9.0664 -7.52,6.2071 1.62,-9.6172 -6.07,7.6367 -0.41,-9.7383 -4.34,8.7227 -2.44,-9.4375 -2.42,9.4375 -4.36,-8.7227 -0.41,9.7383 -6.07,-7.6367 1.62,9.6172 -7.52,-6.2071 3.59,9.0664 -8.65,-4.5078 5.39,8.125 -9.39,-2.6093 6.95,6.8242 -9.73,-0.6016 8.23,5.2305 -9.65,1.4371 9.14,3.407 -9.14,3.406 9.65,1.433 -8.23,5.231 9.73,-0.602 -6.95,6.825 9.39,-2.61 -5.39,8.129 8.65,-4.512 -3.59,9.067 7.52,-6.207 -1.62,9.617 6.07,-7.633 0.41,9.735 4.36,-8.723 2.42,9.437"
         style="fill:#fddd1b;fill-opacity:1;fill-rule:nonzero;stroke:none"
         transform="matrix(0.13333333,0,0,-0.13333333,0,67.64)" />
      <path
         id="path58"
         d="m 1377.77,136.484 2.44,-9.437 4.34,8.723 0.41,-9.735 6.07,7.633 -1.62,-9.617 7.52,6.207 -3.58,-9.067 8.64,4.512 -5.37,-8.129 9.39,2.61 -6.97,-6.825 9.72,0.602 -8.22,-5.231 9.65,-1.433 -9.14,-3.406 9.14,-3.407 -9.65,-1.4371 8.22,-5.2305 -9.72,0.6016 6.97,-6.8242 -9.39,2.6093 5.37,-8.125 -8.64,4.5078 3.58,-9.0664 -7.52,6.2071 1.62,-9.6172 -6.07,7.6367 -0.41,-9.7383 -4.34,8.7227 -2.44,-9.4375 -2.42,9.4375 -4.36,-8.7227 -0.41,9.7383 -6.07,-7.6367 1.62,9.6172 -7.52,-6.2071 3.59,9.0664 -8.65,-4.5078 5.39,8.125 -9.39,-2.6093 6.95,6.8242 -9.73,-0.6016 8.23,5.2305 -9.65,1.4371 9.14,3.407 -9.14,3.406 9.65,1.433 -8.23,5.231 9.73,-0.602 -6.95,6.825 9.39,-2.61 -5.39,8.129 8.65,-4.512 -3.59,9.067 7.52,-6.207 -1.62,9.617 6.07,-7.633 0.41,9.735 4.36,-8.723 z"
         style="fill:none;stroke:#231f20;stroke-width:2.5;stroke-linecap:butt;stroke-linejoin:miter;stroke-miterlimit:10;stroke-dasharray:none;stroke-opacity:1"
         transform="matrix(0.13333333,0,0,-0.13333333,0,67.64)" />
      <path
         id="path59"
         d="m 1410.19,416.703 2.44,-9.437 4.34,8.73 0.41,-9.742 6.07,7.633 -1.62,-9.614 7.52,6.204 -3.57,-9.067 8.63,4.512 -5.39,-8.129 9.39,2.617 -6.95,-6.832 9.73,0.606 -8.23,-5.235 9.65,-1.429 -9.14,-3.411 9.14,-3.406 -9.65,-1.437 8.23,-5.227 -9.73,0.598 6.95,-6.824 -9.39,2.613 5.39,-8.125 -8.63,4.504 3.57,-9.067 -7.52,6.207 1.62,-9.613 -6.07,7.637 -0.41,-9.742 -4.34,8.73 -2.44,-9.445 -2.44,9.445 -4.34,-8.73 -0.41,9.742 -6.07,-7.637 1.62,9.613 -7.52,-6.207 3.57,9.067 -8.63,-4.504 5.39,8.125 -9.39,-2.613 6.95,6.824 -9.73,-0.598 8.23,5.227 -9.65,1.437 9.14,3.406 -9.14,3.411 9.65,1.429 -8.23,5.235 9.73,-0.606 -6.95,6.832 9.39,-2.617 -5.39,8.129 8.63,-4.512 -3.57,9.067 7.52,-6.204 -1.62,9.614 6.07,-7.633 0.41,9.742 4.34,-8.73 2.44,9.437"
         style="fill:#fddd1b;fill-opacity:1;fill-rule:nonzero;stroke:none"
         transform="matrix(0.13333333,0,0,-0.13333333,0,67.64)" />
      <path
         id="path60"
         d="m 1410.19,416.703 2.44,-9.437 4.34,8.73 0.41,-9.742 6.07,7.633 -1.62,-9.614 7.52,6.204 -3.57,-9.067 8.63,4.512 -5.39,-8.129 9.39,2.617 -6.95,-6.832 9.73,0.606 -8.23,-5.235 9.65,-1.429 -9.14,-3.411 9.14,-3.406 -9.65,-1.437 8.23,-5.227 -9.73,0.598 6.95,-6.824 -9.39,2.613 5.39,-8.125 -8.63,4.504 3.57,-9.067 -7.52,6.207 1.62,-9.613 -6.07,7.637 -0.41,-9.742 -4.34,8.73 -2.44,-9.445 -2.44,9.445 -4.34,-8.73 -0.41,9.742 -6.07,-7.637 1.62,9.613 -7.52,-6.207 3.57,9.067 -8.63,-4.504 5.39,8.125 -9.39,-2.613 6.95,6.824 -9.73,-0.598 8.23,5.227 -9.65,1.437 9.14,3.406 -9.14,3.411 9.65,1.429 -8.23,5.235 9.73,-0.606 -6.95,6.832 9.39,-2.617 -5.39,8.129 8.63,-4.512 -3.57,9.067 7.52,-6.204 -1.62,9.614 6.07,-7.633 0.41,9.742 4.34,-8.73 z"
         style="fill:none;stroke:#231f20;stroke-width:2.5;stroke-linecap:butt;stroke-linejoin:miter;stroke-miterlimit:10;stroke-dasharray:none;stroke-opacity:1"
         transform="matrix(0.13333333,0,0,-0.13333333,0,67.64)" />
      <path
         id="path61"
         d="m 1442.61,296.961 2.42,-9.438 4.36,8.727 0.41,-9.742 6.07,7.637 -1.62,-9.614 7.52,6.207 -3.59,-9.066 8.65,4.504 -5.39,-8.125 9.39,2.613 -6.95,-6.828 9.73,0.602 -8.22,-5.227 9.64,-1.438 -9.14,-3.41 9.14,-3.406 -9.64,-1.43 8.22,-5.234 -9.73,0.605 6.95,-6.828 -9.39,2.61 5.39,-8.125 -8.65,4.511 3.59,-9.074 -7.52,6.211 1.62,-9.613 -6.07,7.633 -0.41,-9.739 -4.36,8.727 -2.42,-9.438 -2.44,9.438 -4.34,-8.727 -0.42,9.739 -6.06,-7.633 1.62,9.613 -7.52,-6.211 3.58,9.074 -8.64,-4.511 5.37,8.125 -9.39,-2.61 6.97,6.828 -9.72,-0.605 8.22,5.234 -9.65,1.43 9.14,3.406 -9.14,3.41 9.65,1.438 -8.22,5.227 9.72,-0.602 -6.97,6.828 9.39,-2.613 -5.37,8.125 8.64,-4.504 -3.58,9.066 7.52,-6.207 -1.62,9.614 6.06,-7.637 0.42,9.742 4.34,-8.727 2.44,9.438"
         style="fill:#fddd1b;fill-opacity:1;fill-rule:nonzero;stroke:none"
         transform="matrix(0.13333333,0,0,-0.13333333,0,67.64)" />
      <path
         id="path62"
         d="m 1442.61,296.961 2.42,-9.438 4.36,8.727 0.41,-9.742 6.07,7.637 -1.62,-9.614 7.52,6.207 -3.59,-9.066 8.65,4.504 -5.39,-8.125 9.39,2.613 -6.95,-6.828 9.73,0.602 -8.22,-5.227 9.64,-1.438 -9.14,-3.41 9.14,-3.406 -9.64,-1.43 8.22,-5.234 -9.73,0.605 6.95,-6.828 -9.39,2.61 5.39,-8.125 -8.65,4.511 3.59,-9.074 -7.52,6.211 1.62,-9.613 -6.07,7.633 -0.41,-9.739 -4.36,8.727 -2.42,-9.438 -2.44,9.438 -4.34,-8.727 -0.42,9.739 -6.06,-7.633 1.62,9.613 -7.52,-6.211 3.58,9.074 -8.64,-4.511 5.37,8.125 -9.39,-2.61 6.97,6.828 -9.72,-0.605 8.22,5.234 -9.65,1.43 9.14,3.406 -9.14,3.41 9.65,1.438 -8.22,5.227 9.72,-0.602 -6.97,6.828 9.39,-2.613 -5.37,8.125 8.64,-4.504 -3.58,9.066 7.52,-6.207 -1.62,9.614 6.06,-7.637 0.42,9.742 4.34,-8.727 z"
         style="fill:none;stroke:#231f20;stroke-width:2.5;stroke-linecap:butt;stroke-linejoin:miter;stroke-miterlimit:10;stroke-dasharray:none;stroke-opacity:1"
         transform="matrix(0.13333333,0,0,-0.13333333,0,67.64)" />
      <path
         id="path63"
         d="m 1468.3,186.383 2.44,-9.442 4.33,8.727 0.41,-9.734 6.08,7.629 -1.62,-9.614 7.52,6.207 -3.58,-9.066 8.63,4.512 -5.37,-8.133 9.4,2.613 -6.97,-6.824 9.72,0.597 -8.22,-5.226 9.65,-1.438 -9.14,-3.402 9.14,-3.41 -9.65,-1.434 8.22,-5.23 -9.72,0.601 6.97,-6.828 -9.4,2.614 5.37,-8.125 -8.63,4.507 3.58,-9.066 -7.52,6.203 1.62,-9.613 -6.08,7.637 -0.41,-9.743 -4.33,8.731 -2.44,-9.442 -2.43,9.442 -4.35,-8.731 -0.41,9.743 -6.08,-7.637 1.63,9.613 -7.52,-6.203 3.57,9.066 -8.63,-4.507 5.39,8.125 -9.4,-2.614 6.96,6.828 -9.73,-0.601 8.22,5.23 -9.65,1.434 9.14,3.41 -9.14,3.402 9.65,1.438 -8.22,5.226 9.73,-0.597 -6.96,6.824 9.4,-2.613 -5.39,8.133 8.63,-4.512 -3.57,9.066 7.52,-6.207 -1.63,9.614 6.08,-7.629 0.41,9.734 4.35,-8.727 2.43,9.442"
         style="fill:#fddd1b;fill-opacity:1;fill-rule:nonzero;stroke:none"
         transform="matrix(0.13333333,0,0,-0.13333333,0,67.64)" />
      <path
         id="path64"
         d="m 1468.3,186.383 2.44,-9.442 4.33,8.727 0.41,-9.734 6.08,7.629 -1.62,-9.614 7.52,6.207 -3.58,-9.066 8.63,4.512 -5.37,-8.133 9.4,2.613 -6.97,-6.824 9.72,0.597 -8.22,-5.226 9.65,-1.438 -9.14,-3.402 9.14,-3.41 -9.65,-1.434 8.22,-5.23 -9.72,0.601 6.97,-6.828 -9.4,2.614 5.37,-8.125 -8.63,4.507 3.58,-9.066 -7.52,6.203 1.62,-9.613 -6.08,7.637 -0.41,-9.743 -4.33,8.731 -2.44,-9.442 -2.43,9.442 -4.35,-8.731 -0.41,9.743 -6.08,-7.637 1.63,9.613 -7.52,-6.203 3.57,9.066 -8.63,-4.507 5.39,8.125 -9.4,-2.614 6.96,6.828 -9.73,-0.601 8.22,5.23 -9.65,1.434 9.14,3.41 -9.14,3.402 9.65,1.438 -8.22,5.226 9.73,-0.597 -6.96,6.824 9.4,-2.613 -5.39,8.133 8.63,-4.512 -3.57,9.066 7.52,-6.207 -1.63,9.614 6.08,-7.629 0.41,9.734 4.35,-8.727 z"
         style="fill:none;stroke:#231f20;stroke-width:2.5;stroke-linecap:butt;stroke-linejoin:miter;stroke-miterlimit:10;stroke-dasharray:none;stroke-opacity:1"
         transform="matrix(0.13333333,0,0,-0.13333333,0,67.64)" />
      <path
         id="path65"
         d="m 1545.95,90.8477 2.42,-9.4375 4.36,8.7304 0.41,-9.7422 6.05,7.6329 -1.6,-9.6133 7.52,6.207 -3.59,-9.0703 8.65,4.5078 -5.39,-8.125 9.39,2.6172 -6.95,-6.832 9.73,0.6054 -8.22,-5.2343 9.62,-1.4297 -9.12,-3.4063 9.12,-3.4101 -9.62,-1.4336 8.22,-5.2305 -9.73,0.6016 6.95,-6.8282 -9.39,2.6133 5.39,-8.125 -8.65,4.5078 3.59,-9.0703 -7.52,6.207 1.6,-9.6132 -6.05,7.6367 -0.41,-9.7422 -4.36,8.7266 -2.42,-9.4375 -2.44,9.4375 -4.34,-8.7266 -0.42,9.7422 -6.06,-7.6367 1.62,9.6132 -7.52,-6.207 3.58,9.0703 -8.66,-4.5078 5.39,8.125 -9.39,-2.6133 6.95,6.8282 -9.72,-0.6016 8.24,5.2305 -9.65,1.4336 9.12,3.4101 -9.12,3.4063 9.65,1.4297 -8.24,5.2343 9.72,-0.6054 -6.95,6.832 9.39,-2.6172 -5.39,8.125 8.66,-4.5078 -3.58,9.0703 7.52,-6.207 -1.62,9.6133 6.06,-7.6329 0.42,9.7422 4.34,-8.7304 2.44,9.4375"
         style="fill:#fddd1b;fill-opacity:1;fill-rule:nonzero;stroke:none"
         transform="matrix(0.13333333,0,0,-0.13333333,0,67.64)" />
      <path
         id="path66"
         d="m 1545.95,90.8477 2.42,-9.4375 4.36,8.7304 0.41,-9.7422 6.05,7.6329 -1.6,-9.6133 7.52,6.207 -3.59,-9.0703 8.65,4.5078 -5.39,-8.125 9.39,2.6172 -6.95,-6.832 9.73,0.6054 -8.22,-5.2343 9.62,-1.4297 -9.12,-3.4063 9.12,-3.4101 -9.62,-1.4336 8.22,-5.2305 -9.73,0.6016 6.95,-6.8282 -9.39,2.6133 5.39,-8.125 -8.65,4.5078 3.59,-9.0703 -7.52,6.207 1.6,-9.6132 -6.05,7.6367 -0.41,-9.7422 -4.36,8.7266 -2.42,-9.4375 -2.44,9.4375 -4.34,-8.7266 -0.42,9.7422 -6.06,-7.6367 1.62,9.6132 -7.52,-6.207 3.58,9.0703 -8.66,-4.5078 5.39,8.125 -9.39,-2.6133 6.95,6.8282 -9.72,-0.6016 8.24,5.2305 -9.65,1.4336 9.12,3.4101 -9.12,3.4063 9.65,1.4297 -8.24,5.2343 9.72,-0.6054 -6.95,6.832 9.39,-2.6172 -5.39,8.125 8.66,-4.5078 -3.58,9.0703 7.52,-6.207 -1.62,9.6133 6.06,-7.6329 0.42,9.7422 4.34,-8.7304 z"
         style="fill:none;stroke:#231f20;stroke-width:2.5;stroke-linecap:butt;stroke-linejoin:miter;stroke-miterlimit:10;stroke-dasharray:none;stroke-opacity:1"
         transform="matrix(0.13333333,0,0,-0.13333333,0,67.64)" />
      <path
         id="path67"
         d="m 1513.53,481.898 2.42,-9.441 4.36,8.731 0.41,-9.743 6.07,7.637 -1.62,-9.613 7.52,6.203 -3.59,-9.067 8.65,4.508 -5.39,-8.125 9.39,2.614 -6.95,-6.829 9.73,0.602 -8.23,-5.234 9.65,-1.43 -9.14,-3.41 9.14,-3.406 -9.65,-1.434 8.23,-5.234 -9.73,0.605 6.95,-6.828 -9.39,2.609 5.39,-8.125 -8.65,4.508 3.59,-9.062 -7.52,6.203 1.62,-9.617 -6.07,7.636 -0.41,-9.738 -4.36,8.73 -2.42,-9.445 -2.44,9.445 -4.34,-8.73 -0.43,9.738 -6.05,-7.636 1.62,9.617 -7.52,-6.203 3.57,9.062 -8.63,-4.508 5.37,8.125 -9.37,-2.609 6.95,6.828 -9.73,-0.605 8.23,5.234 -9.65,1.434 9.14,3.406 -9.14,3.41 9.65,1.43 -8.23,5.234 9.73,-0.602 -6.95,6.829 9.37,-2.614 -5.37,8.125 8.63,-4.508 -3.57,9.067 7.52,-6.203 -1.62,9.613 6.05,-7.637 0.43,9.743 4.34,-8.731 2.44,9.441"
         style="fill:#fddd1b;fill-opacity:1;fill-rule:nonzero;stroke:none"
         transform="matrix(0.13333333,0,0,-0.13333333,0,67.64)" />
      <path
         id="path68"
         d="m 1513.53,481.898 2.42,-9.441 4.36,8.731 0.41,-9.743 6.07,7.637 -1.62,-9.613 7.52,6.203 -3.59,-9.067 8.65,4.508 -5.39,-8.125 9.39,2.614 -6.95,-6.829 9.73,0.602 -8.23,-5.234 9.65,-1.43 -9.14,-3.41 9.14,-3.406 -9.65,-1.434 8.23,-5.234 -9.73,0.605 6.95,-6.828 -9.39,2.609 5.39,-8.125 -8.65,4.508 3.59,-9.062 -7.52,6.203 1.62,-9.617 -6.07,7.636 -0.41,-9.738 -4.36,8.73 -2.42,-9.445 -2.44,9.445 -4.34,-8.73 -0.43,9.738 -6.05,-7.636 1.62,9.617 -7.52,-6.203 3.57,9.062 -8.63,-4.508 5.37,8.125 -9.37,-2.609 6.95,6.828 -9.73,-0.605 8.23,5.234 -9.65,1.434 9.14,3.406 -9.14,3.41 9.65,1.43 -8.23,5.234 9.73,-0.602 -6.95,6.829 9.37,-2.614 -5.37,8.125 8.63,-4.508 -3.57,9.067 7.52,-6.203 -1.62,9.613 6.05,-7.637 0.43,9.743 4.34,-8.731 z"
         style="fill:none;stroke:#231f20;stroke-width:2.5;stroke-linecap:butt;stroke-linejoin:miter;stroke-miterlimit:10;stroke-dasharray:none;stroke-opacity:1"
         transform="matrix(0.13333333,0,0,-0.13333333,0,67.64)" />
      <path
         id="path69"
         d="m 1540.74,370.941 2.44,-9.441 4.33,8.73 0.43,-9.742 6.06,7.637 -1.62,-9.613 7.52,6.203 -3.58,-9.067 8.66,4.508 -5.4,-8.125 9.4,2.614 -6.97,-6.832 9.74,0.605 -8.24,-5.234 9.65,-1.43 -9.12,-3.41 9.12,-3.406 -9.65,-1.434 8.24,-5.234 -9.74,0.601 6.97,-6.824 -9.4,2.609 5.4,-8.125 -8.66,4.508 3.58,-9.066 -7.52,6.207 1.62,-9.617 -6.06,7.636 -0.43,-9.738 -4.33,8.73 -2.44,-9.445 -2.42,9.445 -4.36,-8.73 -0.41,9.738 -6.05,-7.636 1.6,9.617 -7.52,-6.207 3.59,9.066 -8.65,-4.508 5.39,8.125 -9.4,-2.609 6.96,6.824 -9.73,-0.601 8.22,5.234 -9.63,1.434 9.13,3.406 -9.13,3.41 9.63,1.43 -8.22,5.234 9.73,-0.605 -6.96,6.832 9.4,-2.614 -5.39,8.125 8.65,-4.508 -3.59,9.067 7.52,-6.203 -1.6,9.613 6.05,-7.637 0.41,9.742 4.36,-8.73 2.42,9.441"
         style="fill:#fddd1b;fill-opacity:1;fill-rule:nonzero;stroke:none"
         transform="matrix(0.13333333,0,0,-0.13333333,0,67.64)" />
      <path
         id="path70"
         d="m 1540.74,370.941 2.44,-9.441 4.33,8.73 0.43,-9.742 6.06,7.637 -1.62,-9.613 7.52,6.203 -3.58,-9.067 8.66,4.508 -5.4,-8.125 9.4,2.614 -6.97,-6.832 9.74,0.605 -8.24,-5.234 9.65,-1.43 -9.12,-3.41 9.12,-3.406 -9.65,-1.434 8.24,-5.234 -9.74,0.601 6.97,-6.824 -9.4,2.609 5.4,-8.125 -8.66,4.508 3.58,-9.066 -7.52,6.207 1.62,-9.617 -6.06,7.636 -0.43,-9.738 -4.33,8.73 -2.44,-9.445 -2.42,9.445 -4.36,-8.73 -0.41,9.738 -6.05,-7.636 1.6,9.617 -7.52,-6.207 3.59,9.066 -8.65,-4.508 5.39,8.125 -9.4,-2.609 6.96,6.824 -9.73,-0.601 8.22,5.234 -9.63,1.434 9.13,3.406 -9.13,3.41 9.63,1.43 -8.22,5.234 9.73,-0.605 -6.96,6.832 9.4,-2.614 -5.39,8.125 8.65,-4.508 -3.59,9.067 7.52,-6.203 -1.6,9.613 6.05,-7.637 0.41,9.742 4.36,-8.73 z"
         style="fill:none;stroke:#231f20;stroke-width:2.5;stroke-linecap:butt;stroke-linejoin:miter;stroke-miterlimit:10;stroke-dasharray:none;stroke-opacity:1"
         transform="matrix(0.13333333,0,0,-0.13333333,0,67.64)" />
      <path
         id="path71"
         d="m 1563.86,253.711 2.44,-9.438 4.34,8.731 0.43,-9.742 6.05,7.633 -1.62,-9.618 7.52,6.207 -3.57,-9.066 8.63,4.512 -5.37,-8.129 9.39,2.617 -6.97,-6.832 9.73,0.605 -8.22,-5.234 9.64,-1.437 -9.14,-3.403 9.14,-3.406 -9.64,-1.438 8.22,-5.226 -9.73,0.598 6.97,-6.825 -9.39,2.61 5.37,-8.125 -8.63,4.508 3.57,-9.067 -7.52,6.207 1.62,-9.617 -6.05,7.637 -0.43,-9.739 -4.34,8.731 -2.44,-9.445 -2.42,9.445 -4.36,-8.731 -0.41,9.739 -6.07,-7.637 1.62,9.617 -7.52,-6.207 3.6,9.067 -8.66,-4.508 5.39,8.125 -9.39,-2.61 6.95,6.825 -9.72,-0.598 8.22,5.226 -9.65,1.438 9.14,3.406 -9.14,3.403 9.65,1.437 -8.22,5.234 9.72,-0.605 -6.95,6.832 9.39,-2.617 -5.39,8.129 8.66,-4.512 -3.6,9.066 7.52,-6.207 -1.62,9.618 6.07,-7.633 0.41,9.742 4.36,-8.731 2.42,9.438"
         style="fill:#fddd1b;fill-opacity:1;fill-rule:nonzero;stroke:none"
         transform="matrix(0.13333333,0,0,-0.13333333,0,67.64)" />
      <path
         id="path72"
         d="m 1563.86,253.711 2.44,-9.438 4.34,8.731 0.43,-9.742 6.05,7.633 -1.62,-9.618 7.52,6.207 -3.57,-9.066 8.63,4.512 -5.37,-8.129 9.39,2.617 -6.97,-6.832 9.73,0.605 -8.22,-5.234 9.64,-1.437 -9.14,-3.403 9.14,-3.406 -9.64,-1.438 8.22,-5.226 -9.73,0.598 6.97,-6.825 -9.39,2.61 5.37,-8.125 -8.63,4.508 3.57,-9.067 -7.52,6.207 1.62,-9.617 -6.05,7.637 -0.43,-9.739 -4.34,8.731 -2.44,-9.445 -2.42,9.445 -4.36,-8.731 -0.41,9.739 -6.07,-7.637 1.62,9.617 -7.52,-6.207 3.6,9.067 -8.66,-4.508 5.39,8.125 -9.39,-2.61 6.95,6.825 -9.72,-0.598 8.22,5.226 -9.65,1.438 9.14,3.406 -9.14,3.403 9.65,1.437 -8.22,5.234 9.72,-0.605 -6.95,6.832 9.39,-2.617 -5.39,8.129 8.66,-4.512 -3.6,9.066 7.52,-6.207 -1.62,9.618 6.07,-7.633 0.41,9.742 4.36,-8.731 z"
         style="fill:none;stroke:#231f20;stroke-width:2.5;stroke-linecap:butt;stroke-linejoin:miter;stroke-miterlimit:10;stroke-dasharray:none;stroke-opacity:1"
         transform="matrix(0.13333333,0,0,-0.13333333,0,67.64)" />
      <path
         id="path73"
         d="m 1635.85,169.082 2.43,-9.445 4.35,8.73 0.41,-9.738 6.06,7.637 -1.6,-9.618 7.51,6.207 -3.59,-9.066 8.65,4.508 -5.39,-8.125 9.4,2.609 -6.96,-6.828 9.73,0.606 -8.22,-5.235 9.63,-1.433 -9.12,-3.407 9.12,-3.41 -9.63,-1.429 8.22,-5.235 -9.73,0.602 6.96,-6.828 -9.4,2.613 5.39,-8.125 -8.65,4.512 3.59,-9.071 -7.51,6.203 1.6,-9.613 -6.06,7.637 -0.41,-9.742 -4.35,8.73 -2.43,-9.441 -2.44,9.441 -4.33,-8.73 -0.43,9.742 -6.06,-7.637 1.62,9.613 -7.52,-6.203 3.58,9.071 -8.65,-4.512 5.39,8.125 -9.4,-2.613 6.97,6.828 -9.74,-0.602 8.24,5.235 -9.65,1.429 9.14,3.41 -9.14,3.407 9.65,1.433 -8.24,5.235 9.74,-0.606 -6.97,6.828 9.4,-2.609 -5.39,8.125 8.65,-4.508 -3.58,9.066 7.52,-6.207 -1.62,9.618 6.06,-7.637 0.43,9.738 4.33,-8.73 2.44,9.445"
         style="fill:#fddd1b;fill-opacity:1;fill-rule:nonzero;stroke:none"
         transform="matrix(0.13333333,0,0,-0.13333333,0,67.64)" />
      <path
         id="path74"
         d="m 1635.85,169.082 2.43,-9.445 4.35,8.73 0.41,-9.738 6.06,7.637 -1.6,-9.618 7.51,6.207 -3.59,-9.066 8.65,4.508 -5.39,-8.125 9.4,2.609 -6.96,-6.828 9.73,0.606 -8.22,-5.235 9.63,-1.433 -9.12,-3.407 9.12,-3.41 -9.63,-1.429 8.22,-5.235 -9.73,0.602 6.96,-6.828 -9.4,2.613 5.39,-8.125 -8.65,4.512 3.59,-9.071 -7.51,6.203 1.6,-9.613 -6.06,7.637 -0.41,-9.742 -4.35,8.73 -2.43,-9.441 -2.44,9.441 -4.33,-8.73 -0.43,9.742 -6.06,-7.637 1.62,9.613 -7.52,-6.203 3.58,9.071 -8.65,-4.512 5.39,8.125 -9.4,-2.613 6.97,6.828 -9.74,-0.602 8.24,5.235 -9.65,1.429 9.14,3.41 -9.14,3.407 9.65,1.433 -8.24,5.235 9.74,-0.606 -6.97,6.828 9.4,-2.609 -5.39,8.125 8.65,-4.508 -3.58,9.066 7.52,-6.207 -1.62,9.618 6.06,-7.637 0.43,9.738 4.33,-8.73 z"
         style="fill:none;stroke:#231f20;stroke-width:2.5;stroke-linecap:butt;stroke-linejoin:miter;stroke-miterlimit:10;stroke-dasharray:none;stroke-opacity:1"
         transform="matrix(0.13333333,0,0,-0.13333333,0,67.64)" />
      <path
         id="path75"
         d="m 1658.12,426.363 2.44,-9.441 4.34,8.726 0.43,-9.734 6.05,7.629 -1.62,-9.613 7.52,6.211 -3.57,-9.071 8.63,4.512 -5.37,-8.125 9.37,2.606 -6.95,-6.825 9.73,0.606 -8.23,-5.235 9.65,-1.433 -9.14,-3.406 9.14,-3.411 -9.65,-1.433 8.23,-5.231 -9.73,0.602 6.95,-6.828 -9.37,2.613 5.37,-8.125 -8.63,4.508 3.57,-9.067 -7.52,6.204 1.62,-9.614 -6.05,7.637 -0.43,-9.742 -4.34,8.726 -2.44,-9.437 -2.44,9.437 -4.34,-8.726 -0.41,9.742 -6.07,-7.637 1.62,9.614 -7.52,-6.204 3.59,9.067 -8.65,-4.508 5.39,8.125 -9.39,-2.613 6.95,6.828 -9.73,-0.602 8.23,5.231 -9.65,1.433 9.14,3.411 -9.14,3.406 9.65,1.433 -8.23,5.235 9.73,-0.606 -6.95,6.825 9.39,-2.606 -5.39,8.125 8.65,-4.512 -3.59,9.071 7.52,-6.211 -1.62,9.613 6.07,-7.629 0.41,9.734 4.34,-8.726 2.44,9.441"
         style="fill:#fddd1b;fill-opacity:1;fill-rule:nonzero;stroke:none"
         transform="matrix(0.13333333,0,0,-0.13333333,0,67.64)" />
      <path
         id="path76"
         d="m 1658.12,426.363 2.44,-9.441 4.34,8.726 0.43,-9.734 6.05,7.629 -1.62,-9.613 7.52,6.211 -3.57,-9.071 8.63,4.512 -5.37,-8.125 9.37,2.606 -6.95,-6.825 9.73,0.606 -8.23,-5.235 9.65,-1.433 -9.14,-3.406 9.14,-3.411 -9.65,-1.433 8.23,-5.231 -9.73,0.602 6.95,-6.828 -9.37,2.613 5.37,-8.125 -8.63,4.508 3.57,-9.067 -7.52,6.204 1.62,-9.614 -6.05,7.637 -0.43,-9.742 -4.34,8.726 -2.44,-9.437 -2.44,9.437 -4.34,-8.726 -0.41,9.742 -6.07,-7.637 1.62,9.614 -7.52,-6.204 3.59,9.067 -8.65,-4.508 5.39,8.125 -9.39,-2.613 6.95,6.828 -9.73,-0.602 8.23,5.231 -9.65,1.433 9.14,3.411 -9.14,3.406 9.65,1.433 -8.23,5.235 9.73,-0.606 -6.95,6.825 9.39,-2.606 -5.39,8.125 8.65,-4.512 -3.59,9.071 7.52,-6.211 -1.62,9.613 6.07,-7.629 0.41,9.734 4.34,-8.726 z"
         style="fill:none;stroke:#231f20;stroke-width:2.5;stroke-linecap:butt;stroke-linejoin:miter;stroke-miterlimit:10;stroke-dasharray:none;stroke-opacity:1"
         transform="matrix(0.13333333,0,0,-0.13333333,0,67.64)" />
      <path
         id="path77"
         d="m 1650.25,305.746 2.44,-9.437 4.34,8.726 0.41,-9.742 6.07,7.637 -1.62,-9.614 7.52,6.211 -3.58,-9.074 8.64,4.508 -5.39,-8.121 9.39,2.609 -6.95,-6.828 9.73,0.602 -8.23,-5.231 9.65,-1.433 -9.14,-3.411 9.14,-3.402 -9.65,-1.437 8.23,-5.227 -9.73,0.598 6.95,-6.825 -9.39,2.614 5.39,-8.125 -8.64,4.504 3.58,-9.067 -7.52,6.207 1.62,-9.613 -6.07,7.629 -0.41,-9.734 -4.34,8.726 -2.44,-9.441 -2.44,9.441 -4.34,-8.726 -0.41,9.734 -6.07,-7.629 1.62,9.613 -7.52,-6.207 3.57,9.067 -8.63,-4.504 5.39,8.125 -9.39,-2.614 6.95,6.825 -9.73,-0.598 8.23,5.227 -9.65,1.437 9.14,3.402 -9.14,3.411 9.65,1.433 -8.23,5.231 9.73,-0.602 -6.95,6.828 9.39,-2.609 -5.39,8.121 8.63,-4.508 -3.57,9.074 7.52,-6.211 -1.62,9.614 6.07,-7.637 0.41,9.742 4.34,-8.726 2.44,9.437"
         style="fill:#fddd1b;fill-opacity:1;fill-rule:nonzero;stroke:none"
         transform="matrix(0.13333333,0,0,-0.13333333,0,67.64)" />
      <path
         id="path78"
         d="m 1650.25,305.746 2.44,-9.437 4.34,8.726 0.41,-9.742 6.07,7.637 -1.62,-9.614 7.52,6.211 -3.58,-9.074 8.64,4.508 -5.39,-8.121 9.39,2.609 -6.95,-6.828 9.73,0.602 -8.23,-5.231 9.65,-1.433 -9.14,-3.411 9.14,-3.402 -9.65,-1.437 8.23,-5.227 -9.73,0.598 6.95,-6.825 -9.39,2.614 5.39,-8.125 -8.64,4.504 3.58,-9.067 -7.52,6.207 1.62,-9.613 -6.07,7.629 -0.41,-9.734 -4.34,8.726 -2.44,-9.441 -2.44,9.441 -4.34,-8.726 -0.41,9.734 -6.07,-7.629 1.62,9.613 -7.52,-6.207 3.57,9.067 -8.63,-4.504 5.39,8.125 -9.39,-2.614 6.95,6.825 -9.73,-0.598 8.23,5.227 -9.65,1.437 9.14,3.402 -9.14,3.411 9.65,1.433 -8.23,5.231 9.73,-0.602 -6.95,6.828 9.39,-2.609 -5.39,8.121 8.63,-4.508 -3.57,9.074 7.52,-6.211 -1.62,9.614 6.07,-7.637 0.41,9.742 4.34,-8.726 z"
         style="fill:none;stroke:#231f20;stroke-width:2.5;stroke-linecap:butt;stroke-linejoin:miter;stroke-miterlimit:10;stroke-dasharray:none;stroke-opacity:1"
         transform="matrix(0.13333333,0,0,-0.13333333,0,67.64)" />
      <path
         id="path79"
         d="m 1749.19,255.379 2.43,-9.438 4.35,8.727 0.41,-9.742 6.06,7.637 -1.61,-9.614 7.52,6.207 -3.59,-9.07 8.65,4.512 -5.39,-8.129 9.4,2.613 -6.96,-6.828 9.73,0.601 -8.22,-5.226 9.63,-1.438 -9.12,-3.402 9.12,-3.41 -9.63,-1.434 8.22,-5.23 -9.73,0.601 6.96,-6.828 -9.4,2.614 5.39,-8.129 -8.65,4.511 3.59,-9.066 -7.52,6.203 1.61,-9.613 -6.06,7.637 -0.41,-9.743 -4.35,8.727 -2.43,-9.438 -2.44,9.438 -4.33,-8.727 -0.43,9.743 -6.06,-7.637 1.62,9.613 -7.52,-6.203 3.58,9.066 -8.65,-4.511 5.39,8.129 -9.4,-2.614 6.97,6.828 -9.74,-0.601 8.24,5.23 -9.65,1.434 9.12,3.41 -9.12,3.402 9.65,1.438 -8.24,5.226 9.74,-0.601 -6.97,6.828 9.4,-2.613 -5.39,8.129 8.65,-4.512 -3.58,9.07 7.52,-6.207 -1.62,9.614 6.06,-7.637 0.43,9.742 4.33,-8.727 2.44,9.438"
         style="fill:#fddd1b;fill-opacity:1;fill-rule:nonzero;stroke:none"
         transform="matrix(0.13333333,0,0,-0.13333333,0,67.64)" />
      <path
         id="path80"
         d="m 1749.19,255.379 2.43,-9.438 4.35,8.727 0.41,-9.742 6.06,7.637 -1.61,-9.614 7.52,6.207 -3.59,-9.07 8.65,4.512 -5.39,-8.129 9.4,2.613 -6.96,-6.828 9.73,0.601 -8.22,-5.226 9.63,-1.438 -9.12,-3.402 9.12,-3.41 -9.63,-1.434 8.22,-5.23 -9.73,0.601 6.96,-6.828 -9.4,2.614 5.39,-8.129 -8.65,4.511 3.59,-9.066 -7.52,6.203 1.61,-9.613 -6.06,7.637 -0.41,-9.743 -4.35,8.727 -2.43,-9.438 -2.44,9.438 -4.33,-8.727 -0.43,9.743 -6.06,-7.637 1.62,9.613 -7.52,-6.203 3.58,9.066 -8.65,-4.511 5.39,8.129 -9.4,-2.614 6.97,6.828 -9.74,-0.601 8.24,5.23 -9.65,1.434 9.12,3.41 -9.12,3.402 9.65,1.438 -8.24,5.226 9.74,-0.601 -6.97,6.828 9.4,-2.613 -5.39,8.129 8.65,-4.512 -3.58,9.07 7.52,-6.207 -1.62,9.614 6.06,-7.637 0.43,9.742 4.33,-8.727 z"
         style="fill:none;stroke:#231f20;stroke-width:2.5;stroke-linecap:butt;stroke-linejoin:miter;stroke-miterlimit:10;stroke-dasharray:none;stroke-opacity:1"
         transform="matrix(0.13333333,0,0,-0.13333333,0,67.64)" />
      <path
         id="path81"
         d="m 1775.5,378.574 2.44,-9.437 4.34,8.722 0.41,-9.738 6.07,7.637 -1.62,-9.617 7.52,6.207 -3.57,-9.067 8.63,4.508 -5.39,-8.125 9.4,2.609 -6.96,-6.824 9.73,0.602 -8.22,-5.231 9.64,-1.437 -9.14,-3.406 9.14,-3.403 -9.64,-1.437 8.22,-5.235 -9.73,0.606 6.96,-6.832 -9.4,2.621 5.39,-8.125 -8.63,4.504 3.57,-9.067 -7.52,6.207 1.62,-9.617 -6.07,7.633 -0.41,-9.742 -4.34,8.73 -2.44,-9.437 -2.44,9.437 -4.33,-8.73 -0.43,9.742 -6.06,-7.633 1.62,9.617 -7.52,-6.207 3.58,9.067 -8.64,-4.504 5.38,8.125 -9.38,-2.621 6.95,6.832 -9.72,-0.606 8.22,5.235 -9.65,1.437 9.14,3.403 -9.14,3.406 9.65,1.437 -8.22,5.231 9.72,-0.602 -6.95,6.824 9.38,-2.609 -5.38,8.125 8.64,-4.508 -3.58,9.067 7.52,-6.207 -1.62,9.617 6.06,-7.637 0.43,9.738 4.33,-8.722 2.44,9.437"
         style="fill:#fddd1b;fill-opacity:1;fill-rule:nonzero;stroke:none"
         transform="matrix(0.13333333,0,0,-0.13333333,0,67.64)" />
      <path
         id="path82"
         d="m 1775.5,378.574 2.44,-9.437 4.34,8.722 0.41,-9.738 6.07,7.637 -1.62,-9.617 7.52,6.207 -3.57,-9.067 8.63,4.508 -5.39,-8.125 9.4,2.609 -6.96,-6.824 9.73,0.602 -8.22,-5.231 9.64,-1.437 -9.14,-3.406 9.14,-3.403 -9.64,-1.437 8.22,-5.235 -9.73,0.606 6.96,-6.832 -9.4,2.621 5.39,-8.125 -8.63,4.504 3.57,-9.067 -7.52,6.207 1.62,-9.617 -6.07,7.633 -0.41,-9.742 -4.34,8.73 -2.44,-9.437 -2.44,9.437 -4.33,-8.73 -0.43,9.742 -6.06,-7.633 1.62,9.617 -7.52,-6.207 3.58,9.067 -8.64,-4.504 5.38,8.125 -9.38,-2.621 6.95,6.832 -9.72,-0.606 8.22,5.235 -9.65,1.437 9.14,3.403 -9.14,3.406 9.65,1.437 -8.22,5.231 9.72,-0.602 -6.95,6.824 9.38,-2.609 -5.38,8.125 8.64,-4.508 -3.58,9.067 7.52,-6.207 -1.62,9.617 6.06,-7.637 0.43,9.738 4.33,-8.722 z"
         style="fill:none;stroke:#231f20;stroke-width:2.5;stroke-linecap:butt;stroke-linejoin:miter;stroke-miterlimit:10;stroke-dasharray:none;stroke-opacity:1"
         transform="matrix(0.13333333,0,0,-0.13333333,0,67.64)" />
      <path
         id="path83"
         d="m 1707.03,103.887 2.44,-9.4378 4.33,8.7228 0.41,-9.7384 6.08,7.6364 -1.62,-9.6169 7.52,6.2149 -3.58,-9.0742 8.64,4.5078 -5.4,-8.1211 9.4,2.6054 -6.95,-6.8242 9.72,0.6055 -8.22,-5.2344 9.65,-1.4297 -9.14,-3.414 9.14,-3.4024 -9.65,-1.4375 8.22,-5.2304 -9.72,0.6015 6.95,-6.8242 -9.4,2.6094 5.4,-8.125 -8.64,4.5078 3.58,-9.0664 -7.52,6.207 1.62,-9.6172 -6.08,7.6328 -0.41,-9.7343 -4.33,8.7226 -2.44,-9.4375 -2.45,9.4375 -4.33,-8.7226 -0.41,9.7343 -6.08,-7.6328 1.63,9.6172 -7.52,-6.207 3.57,9.0664 -8.63,-4.5078 5.39,8.125 -9.4,-2.6094 6.96,6.8242 -9.73,-0.6015 8.22,5.2304 -9.65,1.4375 9.15,3.4024 -9.15,3.414 9.65,1.4297 -8.22,5.2344 9.73,-0.6055 -6.96,6.8242 9.4,-2.6054 -5.39,8.1211 8.63,-4.5078 -3.57,9.0742 7.52,-6.2149 -1.63,9.6169 6.08,-7.6364 0.41,9.7384 4.33,-8.7228 2.45,9.4378"
         style="fill:#fddd1b;fill-opacity:1;fill-rule:nonzero;stroke:none"
         transform="matrix(0.13333333,0,0,-0.13333333,0,67.64)" />
      <path
         id="path84"
         d="m 1707.03,103.887 2.44,-9.4378 4.33,8.7228 0.41,-9.7384 6.08,7.6364 -1.62,-9.6169 7.52,6.2149 -3.58,-9.0742 8.64,4.5078 -5.4,-8.1211 9.4,2.6054 -6.95,-6.8242 9.72,0.6055 -8.22,-5.2344 9.65,-1.4297 -9.14,-3.414 9.14,-3.4024 -9.65,-1.4375 8.22,-5.2304 -9.72,0.6015 6.95,-6.8242 -9.4,2.6094 5.4,-8.125 -8.64,4.5078 3.58,-9.0664 -7.52,6.207 1.62,-9.6172 -6.08,7.6328 -0.41,-9.7343 -4.33,8.7226 -2.44,-9.4375 -2.45,9.4375 -4.33,-8.7226 -0.41,9.7343 -6.08,-7.6328 1.63,9.6172 -7.52,-6.207 3.57,9.0664 -8.63,-4.5078 5.39,8.125 -9.4,-2.6094 6.96,6.8242 -9.73,-0.6015 8.22,5.2304 -9.65,1.4375 9.15,3.4024 -9.15,3.414 9.65,1.4297 -8.22,5.2344 9.73,-0.6055 -6.96,6.8242 9.4,-2.6054 -5.39,8.1211 8.63,-4.5078 -3.57,9.0742 7.52,-6.2149 -1.63,9.6169 6.08,-7.6364 0.41,9.7384 4.33,-8.7228 z"
         style="fill:none;stroke:#231f20;stroke-width:2.5;stroke-linecap:butt;stroke-linejoin:miter;stroke-miterlimit:10;stroke-dasharray:none;stroke-opacity:1"
         transform="matrix(0.13333333,0,0,-0.13333333,0,67.64)" />
      <path
         id="path85"
         d="m 1739.45,481.898 2.42,-9.441 4.36,8.731 0.41,-9.743 6.05,7.637 -1.6,-9.613 7.52,6.203 -3.6,-9.067 8.66,4.508 -5.39,-8.125 9.39,2.614 -6.95,-6.829 9.72,0.602 -8.22,-5.234 9.63,-1.43 -9.12,-3.41 9.12,-3.406 -9.63,-1.434 8.22,-5.234 -9.72,0.605 6.95,-6.828 -9.39,2.609 5.39,-8.125 -8.66,4.508 3.6,-9.062 -7.52,6.203 1.6,-9.617 -6.05,7.636 -0.41,-9.738 -4.36,8.73 -2.42,-9.445 -2.44,9.445 -4.34,-8.73 -0.43,9.738 -6.05,-7.636 1.62,9.617 -7.52,-6.203 3.57,9.062 -8.65,-4.508 5.39,8.125 -9.39,-2.609 6.97,6.828 -9.75,-0.605 8.24,5.234 -9.64,1.434 9.14,3.406 -9.14,3.41 9.64,1.43 -8.24,5.234 9.75,-0.602 -6.97,6.829 9.39,-2.614 -5.39,8.125 8.65,-4.508 -3.57,9.067 7.52,-6.203 -1.62,9.613 6.05,-7.637 0.43,9.743 4.34,-8.731 2.44,9.441"
         style="fill:#fddd1b;fill-opacity:1;fill-rule:nonzero;stroke:none"
         transform="matrix(0.13333333,0,0,-0.13333333,0,67.64)" />
      <path
         id="path86"
         d="m 1739.45,481.898 2.42,-9.441 4.36,8.731 0.41,-9.743 6.05,7.637 -1.6,-9.613 7.52,6.203 -3.6,-9.067 8.66,4.508 -5.39,-8.125 9.39,2.614 -6.95,-6.829 9.72,0.602 -8.22,-5.234 9.63,-1.43 -9.12,-3.41 9.12,-3.406 -9.63,-1.434 8.22,-5.234 -9.72,0.605 6.95,-6.828 -9.39,2.609 5.39,-8.125 -8.66,4.508 3.6,-9.062 -7.52,6.203 1.6,-9.617 -6.05,7.636 -0.41,-9.738 -4.36,8.73 -2.42,-9.445 -2.44,9.445 -4.34,-8.73 -0.43,9.738 -6.05,-7.636 1.62,9.617 -7.52,-6.203 3.57,9.062 -8.65,-4.508 5.39,8.125 -9.39,-2.609 6.97,6.828 -9.75,-0.605 8.24,5.234 -9.64,1.434 9.14,3.406 -9.14,3.41 9.64,1.43 -8.24,5.234 9.75,-0.602 -6.97,6.829 9.39,-2.614 -5.39,8.125 8.65,-4.508 -3.57,9.067 7.52,-6.203 -1.62,9.613 6.05,-7.637 0.43,9.743 4.34,-8.731 z"
         style="fill:none;stroke:#231f20;stroke-width:2.5;stroke-linecap:butt;stroke-linejoin:miter;stroke-miterlimit:10;stroke-dasharray:none;stroke-opacity:1"
         transform="matrix(0.13333333,0,0,-0.13333333,0,67.64)" />
      <path
         id="path87"
         d="m 1840.46,292.195 2.43,-9.441 4.33,8.73 0.43,-9.742 6.06,7.637 -1.61,-9.613 7.5,6.207 -3.57,-9.071 8.65,4.508 -5.39,-8.125 9.4,2.613 -6.96,-6.828 9.73,0.602 -8.22,-5.234 9.63,-1.43 -9.12,-3.41 9.12,-3.407 -9.63,-1.429 8.22,-5.235 -9.73,0.606 6.96,-6.832 -9.4,2.613 5.39,-8.125 -8.65,4.512 3.57,-9.074 -7.5,6.207 1.61,-9.614 -6.06,7.637 -0.43,-9.742 -4.33,8.73 -2.43,-9.437 -2.44,9.437 -4.35,-8.73 -0.41,9.742 -6.06,-7.637 1.62,9.614 -7.52,-6.207 3.58,9.074 -8.65,-4.512 5.39,8.125 -9.4,-2.613 6.97,6.832 -9.74,-0.606 8.22,5.235 -9.63,1.429 9.14,3.407 -9.14,3.41 9.63,1.43 -8.22,5.234 9.74,-0.602 -6.97,6.828 9.4,-2.613 -5.39,8.125 8.65,-4.508 -3.58,9.071 7.52,-6.207 -1.62,9.613 6.06,-7.637 0.41,9.742 4.35,-8.73 2.44,9.441"
         style="fill:#fddd1b;fill-opacity:1;fill-rule:nonzero;stroke:none"
         transform="matrix(0.13333333,0,0,-0.13333333,0,67.64)" />
      <path
         id="path88"
         d="m 1840.46,292.195 2.43,-9.441 4.33,8.73 0.43,-9.742 6.06,7.637 -1.61,-9.613 7.5,6.207 -3.57,-9.071 8.65,4.508 -5.39,-8.125 9.4,2.613 -6.96,-6.828 9.73,0.602 -8.22,-5.234 9.63,-1.43 -9.12,-3.41 9.12,-3.407 -9.63,-1.429 8.22,-5.235 -9.73,0.606 6.96,-6.832 -9.4,2.613 5.39,-8.125 -8.65,4.512 3.57,-9.074 -7.5,6.207 1.61,-9.614 -6.06,7.637 -0.43,-9.742 -4.33,8.73 -2.43,-9.437 -2.44,9.437 -4.35,-8.73 -0.41,9.742 -6.06,-7.637 1.62,9.614 -7.52,-6.207 3.58,9.074 -8.65,-4.512 5.39,8.125 -9.4,-2.613 6.97,6.832 -9.74,-0.606 8.22,5.235 -9.63,1.429 9.14,3.407 -9.14,3.41 9.63,1.43 -8.22,5.234 9.74,-0.602 -6.97,6.828 9.4,-2.613 -5.39,8.125 8.65,-4.508 -3.58,9.071 7.52,-6.207 -1.62,9.613 6.06,-7.637 0.41,9.742 4.35,-8.73 z"
         style="fill:none;stroke:#231f20;stroke-width:2.5;stroke-linecap:butt;stroke-linejoin:miter;stroke-miterlimit:10;stroke-dasharray:none;stroke-opacity:1"
         transform="matrix(0.13333333,0,0,-0.13333333,0,67.64)" />
      <path
         id="path89"
         d="m 1797.55,162.629 2.45,-9.441 4.33,8.726 0.43,-9.738 6.06,7.633 -1.61,-9.614 7.5,6.207 -3.57,-9.066 8.65,4.508 -5.39,-8.129 9.4,2.613 -6.96,-6.824 9.73,0.598 -8.22,-5.231 9.63,-1.433 -9.13,-3.403 9.13,-3.41 -9.63,-1.434 8.22,-5.23 -9.73,0.602 6.96,-6.829 -9.4,2.614 5.39,-8.125 -8.65,4.507 3.57,-9.07 -7.5,6.207 1.61,-9.613 -6.06,7.637 -0.43,-9.7426 -4.33,8.7266 -2.45,-9.4375 -2.42,9.4375 -4.33,-8.7266 -0.43,9.7426 -6.06,-7.637 1.6,9.613 -7.5,-6.207 3.58,9.07 -8.66,-4.507 5.4,8.125 -9.4,-2.614 6.97,6.829 -9.74,-0.602 8.22,5.23 -9.63,1.434 9.12,3.41 -9.12,3.403 9.63,1.433 -8.22,5.231 9.74,-0.598 -6.97,6.824 9.4,-2.613 -5.4,8.129 8.66,-4.508 -3.58,9.066 7.5,-6.207 -1.6,9.614 6.06,-7.633 0.43,9.738 4.33,-8.726 2.42,9.441"
         style="fill:#fddd1b;fill-opacity:1;fill-rule:nonzero;stroke:none"
         transform="matrix(0.13333333,0,0,-0.13333333,0,67.64)" />
      <path
         id="path90"
         d="m 1797.55,162.629 2.45,-9.441 4.33,8.726 0.43,-9.738 6.06,7.633 -1.61,-9.614 7.5,6.207 -3.57,-9.066 8.65,4.508 -5.39,-8.129 9.4,2.613 -6.96,-6.824 9.73,0.598 -8.22,-5.231 9.63,-1.433 -9.13,-3.403 9.13,-3.41 -9.63,-1.434 8.22,-5.23 -9.73,0.602 6.96,-6.829 -9.4,2.614 5.39,-8.125 -8.65,4.507 3.57,-9.07 -7.5,6.207 1.61,-9.613 -6.06,7.637 -0.43,-9.7426 -4.33,8.7266 -2.45,-9.4375 -2.42,9.4375 -4.33,-8.7266 -0.43,9.7426 -6.06,-7.637 1.6,9.613 -7.5,-6.207 3.58,9.07 -8.66,-4.507 5.4,8.125 -9.4,-2.614 6.97,6.829 -9.74,-0.602 8.22,5.23 -9.63,1.434 9.12,3.41 -9.12,3.403 9.63,1.433 -8.22,5.231 9.74,-0.598 -6.97,6.824 9.4,-2.613 -5.4,8.129 8.66,-4.508 -3.58,9.066 7.5,-6.207 -1.6,9.614 6.06,-7.633 0.43,9.738 4.33,-8.726 z"
         style="fill:none;stroke:#231f20;stroke-width:2.5;stroke-linecap:butt;stroke-linejoin:miter;stroke-miterlimit:10;stroke-dasharray:none;stroke-opacity:1"
         transform="matrix(0.13333333,0,0,-0.13333333,0,67.64)" />
      <path
         id="path91"
         d="m 929.453,113.789 2.442,-9.445 4.335,8.73 0.418,-9.738 6.067,7.629 -1.621,-9.613 7.519,6.211 -3.574,-9.0708 8.645,4.5038 -5.391,-8.1171 9.395,2.6094 -6.965,-6.8281 9.738,0.6054 -8.234,-5.2343 9.648,-1.4336 -9.133,-3.4063 9.133,-3.4101 -9.648,-1.4336 8.234,-5.2305 -9.738,0.6016 6.965,-6.8282 -9.395,2.6133 5.391,-8.125 -8.645,4.5078 3.574,-9.0664 -7.519,6.2031 1.621,-9.6132 -6.067,7.6367 -0.418,-9.7422 -4.335,8.7266 -2.442,-9.4375 -2.433,9.4375 -4.344,-8.7266 -0.418,9.7422 -6.067,-7.6367 1.622,9.6132 -7.52,-6.2031 3.586,9.0664 -8.645,-4.5078 5.379,8.125 -9.39,-2.6133 6.961,6.8282 -9.727,-0.6016 8.223,5.2305 -9.637,1.4336 9.129,3.4101 -9.129,3.4063 9.637,1.4336 -8.223,5.2343 9.727,-0.6054 -6.961,6.8281 9.39,-2.6094 -5.379,8.1171 8.645,-4.5038 -3.586,9.0708 7.52,-6.211 -1.622,9.613 6.067,-7.629 0.418,9.738 4.344,-8.73 2.433,9.445"
         style="fill:#fddd1b;fill-opacity:1;fill-rule:nonzero;stroke:none"
         transform="matrix(0.13333333,0,0,-0.13333333,0,67.64)" />
      <path
         id="path92"
         d="m 929.453,113.789 2.442,-9.445 4.335,8.73 0.418,-9.738 6.067,7.629 -1.621,-9.613 7.519,6.211 -3.574,-9.0708 8.645,4.5038 -5.391,-8.1171 9.395,2.6094 -6.965,-6.8281 9.738,0.6054 -8.234,-5.2343 9.648,-1.4336 -9.133,-3.4063 9.133,-3.4101 -9.648,-1.4336 8.234,-5.2305 -9.738,0.6016 6.965,-6.8282 -9.395,2.6133 5.391,-8.125 -8.645,4.5078 3.574,-9.0664 -7.519,6.2031 1.621,-9.6132 -6.067,7.6367 -0.418,-9.7422 -4.335,8.7266 -2.442,-9.4375 -2.433,9.4375 -4.344,-8.7266 -0.418,9.7422 -6.067,-7.6367 1.622,9.6132 -7.52,-6.2031 3.586,9.0664 -8.645,-4.5078 5.379,8.125 -9.39,-2.6133 6.961,6.8282 -9.727,-0.6016 8.223,5.2305 -9.637,1.4336 9.129,3.4101 -9.129,3.4063 9.637,1.4336 -8.223,5.2343 9.727,-0.6054 -6.961,6.8281 9.39,-2.6094 -5.379,8.1171 8.645,-4.5038 -3.586,9.0708 7.52,-6.211 -1.622,9.613 6.067,-7.629 0.418,9.738 4.344,-8.73 z"
         style="fill:none;stroke:#231f20;stroke-width:2.5;stroke-linecap:butt;stroke-linejoin:miter;stroke-miterlimit:10;stroke-dasharray:none;stroke-opacity:1"
         transform="matrix(0.13333333,0,0,-0.13333333,0,67.64)" />
      <path
         id="path93"
         d="m 937.656,394.605 2.442,-9.445 4.336,8.731 0.421,-9.743 6.063,7.637 -1.621,-9.613 7.519,6.207 -3.586,-9.066 8.657,4.503 -5.395,-8.125 9.399,2.614 -6.965,-6.825 9.734,0.598 -8.23,-5.226 9.648,-1.438 -9.14,-3.406 9.14,-3.41 -9.648,-1.43 8.23,-5.234 -9.734,0.605 6.965,-6.832 -9.399,2.613 5.395,-8.125 -8.657,4.508 3.586,-9.07 -7.519,6.211 1.621,-9.614 -6.063,7.633 -0.421,-9.742 -4.336,8.731 -2.442,-9.442 -2.429,9.442 -4.348,-8.731 -0.418,9.742 -6.059,-7.633 1.614,9.614 -7.52,-6.211 3.582,9.07 -8.64,-4.508 5.378,8.125 -9.382,-2.613 6.953,6.832 -9.727,-0.605 8.223,5.234 -9.641,1.43 9.133,3.41 -9.133,3.406 9.641,1.438 -8.223,5.226 9.727,-0.598 -6.953,6.825 9.382,-2.614 -5.378,8.125 8.64,-4.503 -3.582,9.066 7.52,-6.207 -1.614,9.613 6.059,-7.637 0.418,9.743 4.348,-8.731 2.429,9.445"
         style="fill:#fddd1b;fill-opacity:1;fill-rule:nonzero;stroke:none"
         transform="matrix(0.13333333,0,0,-0.13333333,0,67.64)" />
      <path
         id="path94"
         d="m 937.656,394.605 2.442,-9.445 4.336,8.731 0.421,-9.743 6.063,7.637 -1.621,-9.613 7.519,6.207 -3.586,-9.066 8.657,4.503 -5.395,-8.125 9.399,2.614 -6.965,-6.825 9.734,0.598 -8.23,-5.226 9.648,-1.438 -9.14,-3.406 9.14,-3.41 -9.648,-1.43 8.23,-5.234 -9.734,0.605 6.965,-6.832 -9.399,2.613 5.395,-8.125 -8.657,4.508 3.586,-9.07 -7.519,6.211 1.621,-9.614 -6.063,7.633 -0.421,-9.742 -4.336,8.731 -2.442,-9.442 -2.429,9.442 -4.348,-8.731 -0.418,9.742 -6.059,-7.633 1.614,9.614 -7.52,-6.211 3.582,9.07 -8.64,-4.508 5.378,8.125 -9.382,-2.613 6.953,6.832 -9.727,-0.605 8.223,5.234 -9.641,1.43 9.133,3.41 -9.133,3.406 9.641,1.438 -8.223,5.226 9.727,-0.598 -6.953,6.825 9.382,-2.614 -5.378,8.125 8.64,-4.503 -3.582,9.066 7.52,-6.207 -1.614,9.613 6.059,-7.637 0.418,9.743 4.348,-8.731 z"
         style="fill:none;stroke:#231f20;stroke-width:2.5;stroke-linecap:butt;stroke-linejoin:miter;stroke-miterlimit:10;stroke-dasharray:none;stroke-opacity:1"
         transform="matrix(0.13333333,0,0,-0.13333333,0,67.64)" />
    </g>
  </g>
</svg>
