<?xml version="1.0" encoding="UTF-8" standalone="no"?>
<!-- Created with Inkscape (http://www.inkscape.org/) -->

<svg
   version="1.1"
   id="svg1"
   width="231.85333"
   height="160.49333"
   viewBox="0 0 231.85333 160.49333"
   sodipodi:docname="pha02f05.eps"
   xmlns:inkscape="http://www.inkscape.org/namespaces/inkscape"
   xmlns:sodipodi="http://sodipodi.sourceforge.net/DTD/sodipodi-0.dtd"
   xmlns="http://www.w3.org/2000/svg"
   xmlns:svg="http://www.w3.org/2000/svg">
  <defs
     id="defs1" />
  <sodipodi:namedview
     id="namedview1"
     pagecolor="#ffffff"
     bordercolor="#000000"
     borderopacity="0.25"
     inkscape:showpageshadow="2"
     inkscape:pageopacity="0.0"
     inkscape:pagecheckerboard="0"
     inkscape:deskcolor="#d1d1d1">
    <inkscape:page
       x="0"
       y="0"
       inkscape:label="1"
       id="page1"
       width="231.85333"
       height="160.49333"
       margin="0"
       bleed="0" />
  </sodipodi:namedview>
  <g
     id="g1"
     inkscape:groupmode="layer"
     inkscape:label="1">
    <g
       id="group-R5">
      <g
         id="g2"
         aria-label="1&#10;0&#10;ξ"
         transform="matrix(1.3333333,0,0,1.3333333,0,9.9066667)">
        <path
           id="path2"
           d="M 3.4570313,-3.125e-4 V -0.24640625 C 2.6367188,-0.305 2.578125,-0.3753125 2.578125,-1.0315625 v -4.6875 c -0.4921875,0.1992188 -1.0195313,0.375 -1.59375,0.46875 v 0.2109375 l 0.4335937,0.011719 c 0.3867188,0.023437 0.421875,0.070312 0.421875,0.5390625 v 3.4570312 c 0,0.65625 -0.035156,0.7265625 -0.8554687,0.78515625 V -3.125e-4 Z M 2.15625,103.98016 c -1.34765625,0 -1.83984375,1.60547 -1.83984375,2.91797 0,1.41796 0.48046875,2.90625 1.83984375,2.90625 1.359375,0 1.828125,-1.59375 1.828125,-2.91797 0,-1.38282 -0.46875,-2.90625 -1.828125,-2.90625 z m 0,0.30468 c 0.8085938,0 1.03125,1.32422 1.03125,2.60157 0,1.26562 -0.2226562,2.61328 -1.03125,2.61328 -0.7734375,0 -1.0429688,-1.35938 -1.0429688,-2.61328 0,-1.25391 0.2226563,-2.60157 1.0429688,-2.60157 z m 0,0"
           style="fill:#231f20;fill-opacity:1;fill-rule:nonzero;stroke:none" />
        <path
           id="path3"
           d="m 2.4580078,24.143242 c -0.140625,0.09375 -0.1992187,0.210938 -0.1992187,0.351563 0,0.328125 0.3046875,0.492187 0.9023437,0.515625 -0.4335937,0.351562 -0.65625,0.679687 -0.65625,0.984375 0,0.175781 0.058594,0.304687 0.1757813,0.410156 -0.5039063,0.234375 -0.9023438,0.503906 -1.1953125,0.796875 -0.2929688,0.292969 -0.50390629,0.597656 -0.65625004,0.925781 -0.12890625,0.316406 -0.19921875,0.609375 -0.19921875,0.902344 0,0.316406 0.0585938,0.5625 0.1875,0.761719 0.12890625,0.199218 0.29296879,0.328125 0.51562499,0.398437 0.1992188,0.05859 0.5507813,0.09375 1.0429688,0.09375 0.5039062,0 0.8085937,0.04687 0.9140625,0.117188 0.1054687,0.08203 0.1640625,0.1875 0.1640625,0.292968 0,0.105469 -0.046875,0.210938 -0.1289063,0.292969 -0.082031,0.09375 -0.2109375,0.140625 -0.3984375,0.140625 -0.1171875,0 -0.28125,-0.02344 -0.46875,-0.07031 -0.1875,-0.05859 -0.328125,-0.08203 -0.3984375,-0.08203 -0.1992187,0 -0.2929687,0.09375 -0.2929687,0.292969 0,0.246094 0.1875,0.363281 0.5859375,0.363281 0.3164062,0 0.6210937,-0.105468 0.890625,-0.292968 0.28125,-0.210938 0.421875,-0.480469 0.421875,-0.84375 0,-0.222657 -0.046875,-0.398438 -0.1523438,-0.5625 C 3.3955078,29.79168 3.2548828,29.69793 3.0791016,29.651055 2.8916016,29.60418 2.5869141,29.569023 2.1533203,29.557305 1.8486328,29.545586 1.6259766,29.51043 1.4970703,29.451836 1.3447266,29.393242 1.2392578,29.276055 1.1572266,29.13543 1.0751953,29.006523 1.0400391,28.842461 1.0400391,28.678398 c 0,-0.375 0.1640625,-0.761718 0.4921875,-1.171875 0.3398437,-0.398437 0.7734375,-0.726562 1.3242187,-0.949218 0.28125,0.07031 0.515625,0.105468 0.6914063,0.105468 0.3046875,0 0.5390625,-0.04687 0.6914062,-0.140625 0.1640625,-0.07031 0.2460938,-0.164062 0.2460938,-0.257812 0,-0.152344 -0.1523438,-0.222656 -0.4453125,-0.222656 -0.328125,0 -0.7265625,0.09375 -1.1835938,0.292968 -0.1054687,-0.117187 -0.1640625,-0.210937 -0.1640625,-0.316406 0,-0.292969 0.2460938,-0.632812 0.7265625,-1.007812 0.3984375,-0.01172 0.7382813,-0.117188 1.0195313,-0.292969 0.2929687,-0.175781 0.4335937,-0.339844 0.4335937,-0.492188 0,-0.09375 -0.046875,-0.140625 -0.1640625,-0.140625 -0.3164062,0 -0.7851562,0.269532 -1.4179687,0.785157 -0.2460938,0 -0.4101563,-0.04687 -0.515625,-0.128907 -0.1171875,-0.08203 -0.1640625,-0.164062 -0.1640625,-0.269531 0,-0.140625 0.1054687,-0.246094 0.3164062,-0.316406 v -0.164063 c -0.1875,0.01172 -0.3515625,0.05859 -0.46875,0.152344 z m 0,0"
           style="fill:#231f20;fill-opacity:1;fill-rule:nonzero;stroke:none" />
      </g>
      <path
         id="path4"
         d="m 60.5547,1160.24 h 30"
         style="fill:none;stroke:#231f20;stroke-width:5;stroke-linecap:butt;stroke-linejoin:miter;stroke-miterlimit:3.25;stroke-dasharray:none;stroke-opacity:1"
         transform="matrix(0.13333333,0,0,-0.13333333,0,160.49333)" />
      <path
         id="path5"
         d="M 90.5547,63.2109 V 1160.24"
         style="fill:none;stroke:#231f20;stroke-width:5;stroke-linecap:butt;stroke-linejoin:miter;stroke-miterlimit:3.25;stroke-dasharray:none;stroke-opacity:1"
         transform="matrix(0.13333333,0,0,-0.13333333,0,160.49333)" />
      <path
         id="path6"
         d="m 60.5547,63.2188 h 30"
         style="fill:none;stroke:#231f20;stroke-width:5;stroke-linecap:butt;stroke-linejoin:miter;stroke-miterlimit:3.25;stroke-dasharray:none;stroke-opacity:1"
         transform="matrix(0.13333333,0,0,-0.13333333,0,160.49333)" />
      <path
         id="path7"
         d="M 587.73,63.2109 H 255.152 V 227.742 H 587.73 V 63.2109"
         style="fill:#bfd4f0;fill-opacity:1;fill-rule:nonzero;stroke:none"
         transform="matrix(0.13333333,0,0,-0.13333333,0,160.49333)" />
      <path
         id="path8"
         d="M 587.73,63.2109 H 255.152 V 227.742 H 587.73 Z"
         style="fill:none;stroke:#231f20;stroke-width:5;stroke-linecap:square;stroke-linejoin:miter;stroke-miterlimit:3.25;stroke-dasharray:none;stroke-opacity:1"
         transform="matrix(0.13333333,0,0,-0.13333333,0,160.49333)" />
      <path
         id="path9"
         d="M 920.293,63.2109 H 587.715 V 227.742 H 920.293 V 63.2109"
         style="fill:#bfd4f0;fill-opacity:1;fill-rule:nonzero;stroke:none"
         transform="matrix(0.13333333,0,0,-0.13333333,0,160.49333)" />
      <path
         id="path10"
         d="M 920.293,63.2109 H 587.715 V 227.742 h 332.578 z"
         style="fill:none;stroke:#231f20;stroke-width:5;stroke-linecap:square;stroke-linejoin:miter;stroke-miterlimit:3.25;stroke-dasharray:none;stroke-opacity:1"
         transform="matrix(0.13333333,0,0,-0.13333333,0,160.49333)" />
      <path
         id="path11"
         d="M 1252.86,63.2109 H 920.277 V 227.742 H 1252.86 V 63.2109"
         style="fill:#bfd4f0;fill-opacity:1;fill-rule:nonzero;stroke:none"
         transform="matrix(0.13333333,0,0,-0.13333333,0,160.49333)" />
      <path
         id="path12"
         d="M 1252.86,63.2109 H 920.277 V 227.742 h 332.583 z"
         style="fill:none;stroke:#231f20;stroke-width:5;stroke-linecap:square;stroke-linejoin:miter;stroke-miterlimit:3.25;stroke-dasharray:none;stroke-opacity:1"
         transform="matrix(0.13333333,0,0,-0.13333333,0,160.49333)" />
      <path
         id="path13"
         d="M 1585.42,63.2109 H 1252.85 V 227.742 h 332.57 V 63.2109"
         style="fill:#bfd4f0;fill-opacity:1;fill-rule:nonzero;stroke:none"
         transform="matrix(0.13333333,0,0,-0.13333333,0,160.49333)" />
      <path
         id="path14"
         d="M 1585.42,63.2109 H 1252.85 V 227.742 h 332.57 z"
         style="fill:none;stroke:#231f20;stroke-width:5;stroke-linecap:square;stroke-linejoin:miter;stroke-miterlimit:3.25;stroke-dasharray:none;stroke-opacity:1"
         transform="matrix(0.13333333,0,0,-0.13333333,0,160.49333)" />
      <path
         id="path15"
         d="m 1585.42,1046.16 h -332.57 v 114.08 h 332.57 v -114.08"
         style="fill:#bfd4f0;fill-opacity:1;fill-rule:nonzero;stroke:none"
         transform="matrix(0.13333333,0,0,-0.13333333,0,160.49333)" />
      <path
         id="path16"
         d="m 1585.42,1046.16 h -332.57 v 114.08 h 332.57 z"
         style="fill:none;stroke:#231f20;stroke-width:5;stroke-linecap:square;stroke-linejoin:miter;stroke-miterlimit:3.25;stroke-dasharray:none;stroke-opacity:1"
         transform="matrix(0.13333333,0,0,-0.13333333,0,160.49333)" />
      <path
         id="path17"
         d="M 920.293,227.742 H 587.715 V 502.984 H 920.293 V 227.742"
         style="fill:#bfd4f0;fill-opacity:1;fill-rule:nonzero;stroke:none"
         transform="matrix(0.13333333,0,0,-0.13333333,0,160.49333)" />
      <path
         id="path18"
         d="M 920.293,227.742 H 587.715 v 275.242 h 332.578 z"
         style="fill:none;stroke:#231f20;stroke-width:5;stroke-linecap:square;stroke-linejoin:miter;stroke-miterlimit:3.25;stroke-dasharray:none;stroke-opacity:1"
         transform="matrix(0.13333333,0,0,-0.13333333,0,160.49333)" />
      <path
         id="path19"
         d="M 1252.86,227.742 H 920.277 V 502.984 H 1252.86 V 227.742"
         style="fill:#bfd4f0;fill-opacity:1;fill-rule:nonzero;stroke:none"
         transform="matrix(0.13333333,0,0,-0.13333333,0,160.49333)" />
      <path
         id="path20"
         d="M 1252.86,227.742 H 920.277 v 275.242 h 332.583 z"
         style="fill:none;stroke:#231f20;stroke-width:5;stroke-linecap:square;stroke-linejoin:miter;stroke-miterlimit:3.25;stroke-dasharray:none;stroke-opacity:1"
         transform="matrix(0.13333333,0,0,-0.13333333,0,160.49333)" />
      <path
         id="path21"
         d="m 1585.42,227.742 h -332.57 v 275.242 h 332.57 V 227.742"
         style="fill:#bfd4f0;fill-opacity:1;fill-rule:nonzero;stroke:none"
         transform="matrix(0.13333333,0,0,-0.13333333,0,160.49333)" />
      <path
         id="path22"
         d="m 1585.42,227.742 h -332.57 v 275.242 h 332.57 z"
         style="fill:none;stroke:#231f20;stroke-width:5;stroke-linecap:square;stroke-linejoin:miter;stroke-miterlimit:3.25;stroke-dasharray:none;stroke-opacity:1"
         transform="matrix(0.13333333,0,0,-0.13333333,0,160.49333)" />
      <path
         id="path23"
         d="M 1252.86,502.984 H 920.277 V 1046.16 H 1252.86 V 502.984"
         style="fill:#bfd4f0;fill-opacity:1;fill-rule:nonzero;stroke:none"
         transform="matrix(0.13333333,0,0,-0.13333333,0,160.49333)" />
      <path
         id="path24"
         d="M 1252.86,502.984 H 920.277 v 543.176 h 332.583 z"
         style="fill:none;stroke:#231f20;stroke-width:5;stroke-linecap:square;stroke-linejoin:miter;stroke-miterlimit:3.25;stroke-dasharray:none;stroke-opacity:1"
         transform="matrix(0.13333333,0,0,-0.13333333,0,160.49333)" />
      <path
         id="path25"
         d="m 1585.42,502.984 h -332.57 v 543.176 h 332.57 V 502.984"
         style="fill:#bfd4f0;fill-opacity:1;fill-rule:nonzero;stroke:none"
         transform="matrix(0.13333333,0,0,-0.13333333,0,160.49333)" />
      <path
         id="path26"
         d="m 1585.42,502.984 h -332.57 v 543.176 h 332.57 z"
         style="fill:none;stroke:#231f20;stroke-width:5;stroke-linecap:square;stroke-linejoin:miter;stroke-miterlimit:3.25;stroke-dasharray:none;stroke-opacity:1"
         transform="matrix(0.13333333,0,0,-0.13333333,0,160.49333)" />
      <path
         id="path27"
         d="M 90.5547,63.2109 H 1738.86"
         style="fill:none;stroke:#231f20;stroke-width:5;stroke-linecap:butt;stroke-linejoin:miter;stroke-miterlimit:3.25;stroke-dasharray:none;stroke-opacity:1"
         transform="matrix(0.13333333,0,0,-0.13333333,0,160.49333)" />
      <g
         id="g27"
         aria-label="p&#10;1&#10;p&#10;1&#10;p&#10;1&#10;p&#10;1&#10;p&#10;2&#10;p&#10;2&#10;p&#10;2&#10;p&#10;3&#10;p&#10;3&#10;p&#10;4"
         transform="matrix(1.3333333,0,0,1.3333333,51.356267,143.99333)">
        <path
           id="path28"
           d="m 2.1556516,-4.6297656 -0.09375,-0.046875 c -0.2109375,0.1171875 -0.4921875,0.328125 -0.65625,0.5273437 l -0.1054688,0.4101563 c -0.2929687,0.1054687 -0.62109374,0.2695312 -0.85546874,0.4453125 l 0.0585938,0.2226562 c 0.2109375,-0.1054687 0.4453125,-0.234375 0.72656254,-0.328125 -0.32812504,1.5585938 -0.66796879,3.14062503 -1.00781254,4.7109375 -0.12890625,0.5625 -0.2226562475,0.6328125 -0.78515625,0.7382813 L -0.59825469,2.2842969 1.4759641,2.1788281 1.4994016,1.9444531 1.2884641,1.9210156 C 0.84315156,1.8858594 0.79627656,1.8038281 0.90174531,1.2882031 L 1.1478391,0.02257813 c 0.1757812,0.0703125 0.3867187,0.08203125 0.5390625,0.08203125 0.5742187,-0.140625 1.21875,-0.5390625 1.6640625,-1.04296875 0.515625,-0.58593753 0.7734375,-1.26562503 0.7734375,-1.86328123 0,-0.796875 -0.375,-1.2421875 -1.3007813,-1.2421875 -0.2460937,0 -0.5859375,0.035156 -0.8320312,0.1054687 z m -0.2460938,1.0429687 c 0.1640625,-0.046875 0.3632813,-0.070312 0.515625,-0.070312 0.515625,0 0.9375,0.1992188 0.9375,0.9960938 0,1.1601562 -0.8671875,2.36718748 -1.5117187,2.36718748 -0.2109375,0 -0.4570313,-0.1640625 -0.5507813,-0.3046875 z m 0,0"
           style="fill:#231f20;fill-opacity:1;fill-rule:nonzero;stroke:none" />
        <path
           id="path29"
           d="M 6.6820188,2.0001172 V 1.8360547 C 6.1312375,1.8008984 6.0960813,1.7423047 6.0960813,1.3204297 v -3.1289063 c -0.328125,0.1289063 -0.6796875,0.2460938 -1.0664063,0.3164063 v 0.1289062 l 0.28125,0.011719 c 0.2695313,0.011719 0.2929688,0.046875 0.2929688,0.36328124 V 1.3204297 c 0,0.421875 -0.035156,0.4804687 -0.5742188,0.515625 v 0.1640625 z m 0,0"
           style="fill:#231f20;fill-opacity:1;fill-rule:nonzero;stroke:none" />
        <path
           id="path30"
           d="m 35.413464,-4.6297656 -0.09375,-0.046875 c -0.210937,0.1171875 -0.492187,0.328125 -0.65625,0.5273437 l -0.105469,0.4101563 c -0.292968,0.1054687 -0.621093,0.2695312 -0.855468,0.4453125 l 0.05859,0.2226562 c 0.210938,-0.1054687 0.445313,-0.234375 0.726563,-0.328125 -0.328125,1.5585938 -0.667969,3.14062503 -1.007813,4.7109375 -0.128906,0.5625 -0.222656,0.6328125 -0.785156,0.7382813 l -0.03516,0.234375 2.074219,-0.1054688 0.02344,-0.234375 -0.210937,-0.023437 c -0.445309,-0.035157 -0.492184,-0.117188 -0.386715,-0.632813 l 0.246094,-1.26562497 c 0.175781,0.0703125 0.386718,0.08203125 0.539062,0.08203125 0.574219,-0.140625 1.21875,-0.5390625 1.664063,-1.04296875 0.515625,-0.58593753 0.773437,-1.26562503 0.773437,-1.86328123 0,-0.796875 -0.375,-1.2421875 -1.300781,-1.2421875 -0.246094,0 -0.585938,0.035156 -0.832031,0.1054687 z m -0.246094,1.0429687 c 0.164063,-0.046875 0.363282,-0.070312 0.515625,-0.070312 0.515625,0 0.9375,0.1992188 0.9375,0.9960938 0,1.1601562 -0.867187,2.36718748 -1.511718,2.36718748 -0.210938,0 -0.457032,-0.1640625 -0.550782,-0.3046875 z m 0,0"
           style="fill:#231f20;fill-opacity:1;fill-rule:nonzero;stroke:none" />
        <path
           id="path31"
           d="M 39.939831,2.0001172 V 1.8360547 c -0.550781,-0.035156 -0.585937,-0.09375 -0.585937,-0.515625 v -3.1289063 c -0.328125,0.1289063 -0.679688,0.2460938 -1.066406,0.3164063 v 0.1289062 l 0.28125,0.011719 c 0.269531,0.011719 0.292968,0.046875 0.292968,0.36328124 V 1.3204297 c 0,0.421875 -0.03516,0.4804687 -0.574218,0.515625 v 0.1640625 z m 0,0"
           style="fill:#231f20;fill-opacity:1;fill-rule:nonzero;stroke:none" />
        <path
           id="path32"
           d="m 68.668347,-4.6297656 -0.09375,-0.046875 c -0.210938,0.1171875 -0.492188,0.328125 -0.65625,0.5273437 l -0.105469,0.4101563 c -0.292969,0.1054687 -0.621094,0.2695312 -0.855469,0.4453125 l 0.05859,0.2226562 c 0.210938,-0.1054687 0.445313,-0.234375 0.726563,-0.328125 -0.328125,1.5585938 -0.667969,3.14062503 -1.007813,4.7109375 -0.128906,0.5625 -0.222656,0.6328125 -0.785156,0.7382813 l -0.03516,0.234375 2.074218,-0.1054688 0.02344,-0.234375 -0.210938,-0.023437 c -0.445306,-0.035157 -0.492181,-0.117188 -0.386712,-0.632813 l 0.246093,-1.26562497 c 0.175782,0.0703125 0.386719,0.08203125 0.539063,0.08203125 0.574219,-0.140625 1.21875,-0.5390625 1.664062,-1.04296875 0.515625,-0.58593753 0.773438,-1.26562503 0.773438,-1.86328123 0,-0.796875 -0.375,-1.2421875 -1.300781,-1.2421875 -0.246094,0 -0.585938,0.035156 -0.832032,0.1054687 z m -0.246094,1.0429687 c 0.164063,-0.046875 0.363281,-0.070312 0.515625,-0.070312 0.515625,0 0.9375,0.1992188 0.9375,0.9960938 0,1.1601562 -0.867187,2.36718748 -1.511719,2.36718748 -0.210937,0 -0.457031,-0.1640625 -0.550781,-0.3046875 z m 0,0"
           style="fill:#231f20;fill-opacity:1;fill-rule:nonzero;stroke:none" />
        <path
           id="path33"
           d="M 73.194714,2.0001172 V 1.8360547 c -0.550781,-0.035156 -0.585937,-0.09375 -0.585937,-0.515625 v -3.1289063 c -0.328125,0.1289063 -0.679688,0.2460938 -1.066407,0.3164063 v 0.1289062 l 0.28125,0.011719 c 0.269532,0.011719 0.292969,0.046875 0.292969,0.36328124 V 1.3204297 c 0,0.421875 -0.03516,0.4804687 -0.574219,0.515625 v 0.1640625 z m 0,0"
           style="fill:#231f20;fill-opacity:1;fill-rule:nonzero;stroke:none" />
        <path
           id="path34"
           d="m 101.92616,-4.6297656 -0.0937,-0.046875 c -0.21094,0.1171875 -0.49219,0.328125 -0.65625,0.5273437 l -0.10547,0.4101563 c -0.29297,0.1054687 -0.62109,0.2695312 -0.85547,0.4453125 l 0.0586,0.2226562 c 0.21093,-0.1054687 0.44531,-0.234375 0.72656,-0.328125 -0.32813,1.5585938 -0.66797,3.14062503 -1.007814,4.7109375 -0.128907,0.5625 -0.222657,0.6328125 -0.785157,0.7382813 l -0.03516,0.234375 2.074221,-0.1054688 0.0234,-0.234375 -0.21094,-0.023437 c -0.44531,-0.035156 -0.49219,-0.1171875 -0.38672,-0.6328125 l 0.2461,-1.26562497 c 0.17578,0.0703125 0.38672,0.08203125 0.53906,0.08203125 0.57422,-0.140625 1.21875,-0.5390625 1.66406,-1.04296875 0.51563,-0.58593753 0.77344,-1.26562503 0.77344,-1.86328123 0,-0.796875 -0.375,-1.2421875 -1.30078,-1.2421875 -0.2461,0 -0.58594,0.035156 -0.83203,0.1054687 z m -0.24609,1.0429687 c 0.16406,-0.046875 0.36328,-0.070312 0.51562,-0.070312 0.51563,0 0.9375,0.1992188 0.9375,0.9960938 0,1.1601562 -0.86719,2.36718748 -1.51172,2.36718748 -0.21094,0 -0.45703,-0.1640625 -0.55078,-0.3046875 z m 0,0"
           style="fill:#231f20;fill-opacity:1;fill-rule:nonzero;stroke:none" />
        <path
           id="path35"
           d="M 106.45253,2.0001172 V 1.8360547 c -0.55078,-0.035156 -0.58594,-0.09375 -0.58594,-0.515625 v -3.1289063 c -0.32813,0.1289063 -0.67969,0.2460938 -1.06641,0.3164063 v 0.1289062 l 0.28125,0.011719 c 0.26953,0.011719 0.29297,0.046875 0.29297,0.36328124 V 1.3204297 c 0,0.421875 -0.0351,0.4804687 -0.57422,0.515625 v 0.1640625 z m 0,0"
           style="fill:#231f20;fill-opacity:1;fill-rule:nonzero;stroke:none" />
        <path
           id="path36"
           d="m 35.413464,-27.425664 -0.09375,-0.04687 c -0.210937,0.117187 -0.492187,0.328125 -0.65625,0.527344 l -0.105469,0.410156 c -0.292968,0.105469 -0.621093,0.269531 -0.855468,0.445312 l 0.05859,0.222657 c 0.210938,-0.105469 0.445313,-0.234375 0.726563,-0.328125 -0.328125,1.558593 -0.667969,3.140625 -1.007813,4.710937 -0.128906,0.5625 -0.222656,0.632813 -0.785156,0.738281 l -0.03516,0.234375 2.074219,-0.105468 0.02344,-0.234375 -0.210937,-0.02344 c -0.445313,-0.03516 -0.492188,-0.117187 -0.386719,-0.632812 l 0.246094,-1.265625 c 0.175781,0.07031 0.386718,0.08203 0.539062,0.08203 0.574219,-0.140625 1.21875,-0.539063 1.664063,-1.042969 0.515625,-0.585937 0.773437,-1.265625 0.773437,-1.863281 0,-0.796875 -0.375,-1.242188 -1.300781,-1.242188 -0.246094,0 -0.585938,0.03516 -0.832031,0.105469 z m -0.246094,1.042969 c 0.164063,-0.04687 0.363282,-0.07031 0.515625,-0.07031 0.515625,0 0.9375,0.199219 0.9375,0.996094 0,1.160156 -0.867187,2.367187 -1.511718,2.367187 -0.210938,0 -0.457032,-0.164062 -0.550782,-0.304687 z m 0,0"
           style="fill:#231f20;fill-opacity:1;fill-rule:nonzero;stroke:none" />
        <path
           id="path37"
           d="m 40.103894,-21.639531 c -0.175781,0.386719 -0.257813,0.410156 -0.585938,0.410156 h -1.113281 l 0.84375,-0.902344 c 0.550781,-0.585937 0.796875,-0.9375 0.796875,-1.464843 0,-0.621094 -0.480469,-1.007813 -1.007812,-1.007813 -0.351563,0 -0.632813,0.152344 -0.808594,0.351563 l -0.339844,0.492187 0.128906,0.117188 c 0.152344,-0.234375 0.410157,-0.5625 0.808594,-0.5625 0.445313,0 0.714844,0.292968 0.714844,0.796875 0,0.515625 -0.375,1.007812 -0.75,1.453125 -0.304688,0.351562 -0.632813,0.691406 -0.972656,1.019531 v 0.140625 h 2.238281 c 0.08203,-0.269531 0.140625,-0.539063 0.210937,-0.785156 z m 0,0"
           style="fill:#231f20;fill-opacity:1;fill-rule:nonzero;stroke:none" />
        <path
           id="path38"
           d="m 68.668347,-27.425664 -0.09375,-0.04687 c -0.210938,0.117187 -0.492188,0.328125 -0.65625,0.527344 l -0.105469,0.410156 c -0.292969,0.105469 -0.621094,0.269531 -0.855469,0.445312 l 0.05859,0.222657 c 0.210938,-0.105469 0.445313,-0.234375 0.726563,-0.328125 -0.328125,1.558593 -0.667969,3.140625 -1.007813,4.710937 -0.128906,0.5625 -0.222656,0.632813 -0.785156,0.738281 l -0.03516,0.234375 2.074218,-0.105468 0.02344,-0.234375 -0.210938,-0.02344 c -0.445312,-0.03516 -0.492187,-0.117187 -0.386718,-0.632812 l 0.246093,-1.265625 c 0.175782,0.07031 0.386719,0.08203 0.539063,0.08203 0.574219,-0.140625 1.21875,-0.539063 1.664062,-1.042969 0.515625,-0.585937 0.773438,-1.265625 0.773438,-1.863281 0,-0.796875 -0.375,-1.242188 -1.300781,-1.242188 -0.246094,0 -0.585938,0.03516 -0.832032,0.105469 z m -0.246094,1.042969 c 0.164063,-0.04687 0.363281,-0.07031 0.515625,-0.07031 0.515625,0 0.9375,0.199219 0.9375,0.996094 0,1.160156 -0.867187,2.367187 -1.511719,2.367187 -0.210937,0 -0.457031,-0.164062 -0.550781,-0.304687 z m 0,0"
           style="fill:#231f20;fill-opacity:1;fill-rule:nonzero;stroke:none" />
        <path
           id="path39"
           d="m 73.358777,-21.639531 c -0.175782,0.386719 -0.257813,0.410156 -0.585938,0.410156 h -1.113281 l 0.84375,-0.902344 c 0.550781,-0.585937 0.796875,-0.9375 0.796875,-1.464843 0,-0.621094 -0.480469,-1.007813 -1.007813,-1.007813 -0.351562,0 -0.632812,0.152344 -0.808593,0.351563 l -0.339844,0.492187 0.128906,0.117188 c 0.152344,-0.234375 0.410156,-0.5625 0.808594,-0.5625 0.445312,0 0.714844,0.292968 0.714844,0.796875 0,0.515625 -0.375,1.007812 -0.75,1.453125 -0.304688,0.351562 -0.632813,0.691406 -0.972657,1.019531 v 0.140625 h 2.238282 c 0.08203,-0.269531 0.140625,-0.539063 0.210937,-0.785156 z m 0,0"
           style="fill:#231f20;fill-opacity:1;fill-rule:nonzero;stroke:none" />
        <path
           id="path40"
           d="m 101.92616,-27.425664 -0.0937,-0.04687 c -0.21094,0.117187 -0.49219,0.328125 -0.65625,0.527344 l -0.10547,0.410156 c -0.29297,0.105469 -0.62109,0.269531 -0.85547,0.445312 l 0.0586,0.222657 c 0.21093,-0.105469 0.44531,-0.234375 0.72656,-0.328125 -0.32813,1.558593 -0.66797,3.140625 -1.007814,4.710937 -0.128907,0.5625 -0.222657,0.632813 -0.785157,0.738281 l -0.03516,0.234375 2.074221,-0.105468 0.0234,-0.234375 -0.21094,-0.02344 c -0.44531,-0.03516 -0.49219,-0.117187 -0.38672,-0.632812 l 0.2461,-1.265625 c 0.17578,0.07031 0.38672,0.08203 0.53906,0.08203 0.57422,-0.140625 1.21875,-0.539063 1.66406,-1.042969 0.51563,-0.585937 0.77344,-1.265625 0.77344,-1.863281 0,-0.796875 -0.375,-1.242188 -1.30078,-1.242188 -0.2461,0 -0.58594,0.03516 -0.83203,0.105469 z m -0.24609,1.042969 c 0.16406,-0.04687 0.36328,-0.07031 0.51562,-0.07031 0.51563,0 0.9375,0.199219 0.9375,0.996094 0,1.160156 -0.86719,2.367187 -1.51172,2.367187 -0.21094,0 -0.45703,-0.164062 -0.55078,-0.304687 z m 0,0"
           style="fill:#231f20;fill-opacity:1;fill-rule:nonzero;stroke:none" />
        <path
           id="path41"
           d="m 106.61659,-21.639531 c -0.17578,0.386719 -0.25781,0.410156 -0.58594,0.410156 h -1.11328 l 0.84375,-0.902344 c 0.55078,-0.585937 0.79688,-0.9375 0.79688,-1.464843 0,-0.621094 -0.48047,-1.007813 -1.00782,-1.007813 -0.35156,0 -0.63281,0.152344 -0.80859,0.351563 l -0.33984,0.492187 0.1289,0.117188 c 0.15235,-0.234375 0.41016,-0.5625 0.8086,-0.5625 0.44531,0 0.71484,0.292968 0.71484,0.796875 0,0.515625 -0.375,1.007812 -0.75,1.453125 -0.30469,0.351562 -0.63281,0.691406 -0.97266,1.019531 v 0.140625 h 2.23828 c 0.082,-0.269531 0.14063,-0.539063 0.21094,-0.785156 z m 0,0"
           style="fill:#231f20;fill-opacity:1;fill-rule:nonzero;stroke:none" />
        <path
           id="path42"
           d="m 68.668347,-68.936406 -0.09375,-0.04687 c -0.210938,0.117187 -0.492188,0.328125 -0.65625,0.527344 l -0.105469,0.410156 c -0.292969,0.105469 -0.621094,0.269531 -0.855469,0.445312 l 0.05859,0.222657 c 0.210938,-0.105469 0.445313,-0.234375 0.726563,-0.328125 -0.328125,1.558593 -0.667969,3.140625 -1.007813,4.710937 -0.128906,0.5625 -0.222656,0.632813 -0.785156,0.738281 l -0.03516,0.234375 2.074218,-0.105468 0.02344,-0.234375 -0.210938,-0.02344 c -0.445312,-0.03516 -0.492187,-0.117187 -0.386718,-0.632812 l 0.246093,-1.265625 c 0.175782,0.07031 0.386719,0.08203 0.539063,0.08203 0.574219,-0.140625 1.21875,-0.539063 1.664062,-1.042969 0.515625,-0.585937 0.773438,-1.265625 0.773438,-1.863281 0,-0.796875 -0.375,-1.242188 -1.300781,-1.242188 -0.246094,0 -0.585938,0.03516 -0.832032,0.105469 z m -0.246094,1.042969 c 0.164063,-0.04687 0.363281,-0.07031 0.515625,-0.07031 0.515625,0 0.9375,0.199219 0.9375,0.996094 0,1.160156 -0.867187,2.367187 -1.511719,2.367187 -0.210937,0 -0.457031,-0.164062 -0.550781,-0.304687 z m 0,0"
           style="fill:#231f20;fill-opacity:1;fill-rule:nonzero;stroke:none" />
        <path
           id="path43"
           d="m 71.401745,-65.283086 c 0.140625,-0.222656 0.386719,-0.46875 0.714844,-0.46875 0.316406,0 0.574219,0.1875 0.574219,0.5625 0,0.445313 -0.410156,0.679688 -0.960938,0.84375 l 0.03516,0.175781 c 0.09375,-0.02344 0.246093,-0.05859 0.386718,-0.05859 0.339844,0 0.761719,0.222656 0.761719,0.773437 0,0.585938 -0.304687,0.914063 -0.726562,0.914063 -0.339844,0 -0.585938,-0.175782 -0.738282,-0.316407 -0.04687,-0.03516 -0.105468,-0.03516 -0.152343,0 -0.04687,0.04687 -0.128907,0.128907 -0.128907,0.199219 -0.01172,0.07031 0.01172,0.140625 0.09375,0.222656 0.07031,0.07031 0.316407,0.199219 0.597657,0.199219 0.433593,0 1.570312,-0.445312 1.570312,-1.417969 0,-0.433593 -0.304687,-0.808593 -0.832031,-0.914062 v -0.01172 c 0.175781,-0.117187 0.316406,-0.222656 0.410156,-0.316406 0.105469,-0.117188 0.1875,-0.257813 0.1875,-0.433594 0,-0.445312 -0.363281,-0.785156 -0.902344,-0.785156 -0.316406,0 -0.585937,0.152344 -0.761718,0.339844 l -0.257813,0.375 z m 0,0"
           style="fill:#231f20;fill-opacity:1;fill-rule:nonzero;stroke:none" />
        <path
           id="path44"
           d="m 101.92616,-68.936406 -0.0937,-0.04687 c -0.21094,0.117187 -0.49219,0.328125 -0.65625,0.527344 l -0.10547,0.410156 c -0.29297,0.105469 -0.62109,0.269531 -0.85547,0.445312 l 0.0586,0.222657 c 0.21093,-0.105469 0.44531,-0.234375 0.72656,-0.328125 -0.32813,1.558593 -0.66797,3.140625 -1.007814,4.710937 -0.128907,0.5625 -0.222657,0.632813 -0.785157,0.738281 l -0.03516,0.234375 2.074221,-0.105468 0.0234,-0.234375 -0.21094,-0.02344 c -0.44531,-0.03516 -0.49219,-0.117187 -0.38672,-0.632812 l 0.2461,-1.265625 c 0.17578,0.07031 0.38672,0.08203 0.53906,0.08203 0.57422,-0.140625 1.21875,-0.539063 1.66406,-1.042969 0.51563,-0.585937 0.77344,-1.265625 0.77344,-1.863281 0,-0.796875 -0.375,-1.242188 -1.30078,-1.242188 -0.2461,0 -0.58594,0.03516 -0.83203,0.105469 z m -0.24609,1.042969 c 0.16406,-0.04687 0.36328,-0.07031 0.51562,-0.07031 0.51563,0 0.9375,0.199219 0.9375,0.996094 0,1.160156 -0.86719,2.367187 -1.51172,2.367187 -0.21094,0 -0.45703,-0.164062 -0.55078,-0.304687 z m 0,0"
           style="fill:#231f20;fill-opacity:1;fill-rule:nonzero;stroke:none" />
        <path
           id="path45"
           d="m 104.65956,-65.283086 c 0.14062,-0.222656 0.38672,-0.46875 0.71484,-0.46875 0.31641,0 0.57422,0.1875 0.57422,0.5625 0,0.445313 -0.41016,0.679688 -0.96094,0.84375 l 0.0352,0.175781 c 0.0937,-0.02344 0.24609,-0.05859 0.38672,-0.05859 0.33984,0 0.76172,0.222656 0.76172,0.773437 0,0.585938 -0.30469,0.914063 -0.72657,0.914063 -0.33984,0 -0.58593,-0.175782 -0.73828,-0.316407 -0.0469,-0.03516 -0.10547,-0.03516 -0.15234,0 -0.0469,0.04687 -0.12891,0.128907 -0.12891,0.199219 -0.0117,0.07031 0.0117,0.140625 0.0937,0.222656 0.0703,0.07031 0.31641,0.199219 0.59766,0.199219 0.43359,0 1.57031,-0.445312 1.57031,-1.417969 0,-0.433593 -0.30469,-0.808593 -0.83203,-0.914062 v -0.01172 c 0.17578,-0.117187 0.31641,-0.222656 0.41016,-0.316406 0.10547,-0.117188 0.1875,-0.257813 0.1875,-0.433594 0,-0.445312 -0.36328,-0.785156 -0.90235,-0.785156 -0.3164,0 -0.58593,0.152344 -0.76172,0.339844 l -0.25781,0.375 z m 0,0"
           style="fill:#231f20;fill-opacity:1;fill-rule:nonzero;stroke:none" />
        <path
           id="path46"
           d="m 101.92616,-101.55848 -0.0937,-0.0469 c -0.21094,0.11719 -0.49219,0.32812 -0.65625,0.52734 l -0.10547,0.41016 c -0.29297,0.10547 -0.62109,0.26953 -0.85547,0.44531 l 0.0586,0.222657 c 0.21093,-0.105467 0.44531,-0.234377 0.72656,-0.328127 -0.32813,1.558596 -0.66797,3.140627 -1.007814,4.71094 -0.128907,0.5625 -0.222657,0.632812 -0.785157,0.738281 l -0.03516,0.234375 2.074221,-0.105469 0.0234,-0.234375 -0.21094,-0.02344 c -0.44531,-0.03516 -0.49219,-0.117188 -0.38672,-0.632813 l 0.2461,-1.265625 c 0.17578,0.07031 0.38672,0.08203 0.53906,0.08203 0.57422,-0.140625 1.21875,-0.539062 1.66406,-1.042968 0.51563,-0.585938 0.77344,-1.265625 0.77344,-1.863282 0,-0.796874 -0.375,-1.242184 -1.30078,-1.242184 -0.2461,0 -0.58594,0.0352 -0.83203,0.10547 z m -0.24609,1.04297 c 0.16406,-0.0469 0.36328,-0.0703 0.51562,-0.0703 0.51563,0 0.9375,0.19922 0.9375,0.996093 0,1.160157 -0.86719,2.367188 -1.51172,2.367188 -0.21094,0 -0.45703,-0.164063 -0.55078,-0.304688 z m 0,0"
           style="fill:#231f20;fill-opacity:1;fill-rule:nonzero;stroke:none" />
        <path
           id="path47"
           d="m 106.8744,-95.995 v -0.28125 h -0.57422 v -2.449219 h -0.23437 c -0.6211,0.820313 -1.23047,1.710938 -1.80469,2.566407 V -95.995 h 1.55859 v 0.433594 c 0,0.398437 -0.0234,0.433594 -0.53906,0.46875 v 0.164062 h 1.53516 v -0.164062 c -0.49219,-0.03516 -0.51563,-0.07031 -0.51563,-0.46875 V -95.995 Z m -1.05469,-0.28125 h -1.18359 c 0.39844,-0.667969 0.79688,-1.242187 1.17188,-1.769531 h 0.0117 z m 0,0"
           style="fill:#231f20;fill-opacity:1;fill-rule:nonzero;stroke:none" />
      </g>
      <path
         id="path48"
         d="M 92.2852,864.016 H 107.285"
         style="fill:none;stroke:#231f20;stroke-width:5;stroke-linecap:butt;stroke-linejoin:miter;stroke-miterlimit:3.25;stroke-dasharray:none;stroke-opacity:1"
         transform="matrix(0.13333333,0,0,-0.13333333,0,160.49333)" />
      <path
         id="path49"
         d="M 126.746,864.016 H 895.563"
         style="fill:none;stroke:#231f20;stroke-width:5;stroke-linecap:butt;stroke-linejoin:miter;stroke-miterlimit:3.25;stroke-dasharray:29.1954, 19.4636;stroke-dashoffset:0;stroke-opacity:1"
         transform="matrix(0.13333333,0,0,-0.13333333,0,160.49333)" />
      <path
         id="path50"
         d="m 905.293,864.016 h 15"
         style="fill:none;stroke:#231f20;stroke-width:5;stroke-linecap:butt;stroke-linejoin:miter;stroke-miterlimit:3.25;stroke-dasharray:none;stroke-opacity:1"
         transform="matrix(0.13333333,0,0,-0.13333333,0,160.49333)" />
    </g>
  </g>
</svg>
