<?xml version="1.0" encoding="UTF-8" standalone="no"?>
<!-- Created with Inkscape (http://www.inkscape.org/) -->

<svg
   version="1.1"
   id="svg1"
   width="241.14667"
   height="169.33333"
   viewBox="0 0 241.14667 169.33333"
   sodipodi:docname="pha02f03.eps"
   xmlns:inkscape="http://www.inkscape.org/namespaces/inkscape"
   xmlns:sodipodi="http://sodipodi.sourceforge.net/DTD/sodipodi-0.dtd"
   xmlns="http://www.w3.org/2000/svg"
   xmlns:svg="http://www.w3.org/2000/svg">
  <defs
     id="defs1" />
  <sodipodi:namedview
     id="namedview1"
     pagecolor="#ffffff"
     bordercolor="#000000"
     borderopacity="0.25"
     inkscape:showpageshadow="2"
     inkscape:pageopacity="0.0"
     inkscape:pagecheckerboard="0"
     inkscape:deskcolor="#d1d1d1">
    <inkscape:page
       x="0"
       y="0"
       inkscape:label="1"
       id="page1"
       width="241.14667"
       height="169.33333"
       margin="0"
       bleed="0" />
  </sodipodi:namedview>
  <g
     id="g1"
     inkscape:groupmode="layer"
     inkscape:label="1">
    <g
       id="group-R5">
      <path
         id="path2"
         d="M 3.4570313,7.578125e-4 V -0.24533594 C 2.6367188,-0.30392969 2.578125,-0.37424219 2.578125,-1.0304922 v -4.6875 c -0.4921875,0.1992188 -1.0195313,0.375 -1.59375,0.46875 v 0.2109375 l 0.4335937,0.011719 c 0.3867188,0.023437 0.421875,0.070312 0.421875,0.5390625 v 3.4570312 c 0,0.65625001 -0.035156,0.72656251 -0.8554687,0.78515626 V 7.578125e-4 Z M 5.3525391,0.10622656 c 0.28125,0 0.5039062,-0.19921875 0.5039062,-0.515625 0,-0.29296875 -0.2226562,-0.515625 -0.5039062,-0.515625 -0.2929688,0 -0.5039063,0.22265625 -0.5039063,0.515625 0,0.31640625 0.2109375,0.515625 0.5039063,0.515625 z M 8.5283203,-5.7179922 c -1.3476562,0 -1.8398437,1.6054688 -1.8398437,2.9179688 0,1.4179687 0.4804687,2.90624996 1.8398437,2.90624996 1.359375,0 1.8281247,-1.59374996 1.8281247,-2.91796876 0,-1.3828125 -0.4687497,-2.90625 -1.8281247,-2.90625 z m 0,0.3046875 c 0.8085938,0 1.03125,1.3242188 1.03125,2.6015625 0,1.265625 -0.2226562,2.61328126 -1.03125,2.61328126 -0.7734375,0 -1.0429687,-1.35937496 -1.0429687,-2.61328126 0,-1.2539062 0.2226562,-2.6015625 1.0429687,-2.6015625 z M 2.15625,49.131617 c -1.34765625,0 -1.83984375,1.605469 -1.83984375,2.917969 0,1.417969 0.48046875,2.90625 1.83984375,2.90625 1.359375,0 1.828125,-1.59375 1.828125,-2.917969 0,-1.382812 -0.46875,-2.90625 -1.828125,-2.90625 z m 0,0.304688 c 0.8085938,0 1.03125,1.324218 1.03125,2.601562 0,1.265625 -0.2226562,2.613281 -1.03125,2.613281 -0.7734375,0 -1.0429688,-1.359375 -1.0429688,-2.613281 0,-1.253906 0.2226563,-2.601562 1.0429688,-2.601562 z m 3.1962891,5.519531 c 0.28125,0 0.5039062,-0.199219 0.5039062,-0.515625 0,-0.292969 -0.2226562,-0.515625 -0.5039062,-0.515625 -0.2929688,0 -0.5039063,0.222656 -0.5039063,0.515625 0,0.316406 0.2109375,0.515625 0.5039063,0.515625 z m 2.390625,-5.050781 h 2.0976562 l 0.2343747,-0.585938 -0.05859,-0.07031 H 7.4501953 l -0.3515625,2.742187 c 0.2109375,-0.08203 0.5507813,-0.1875 0.9257813,-0.1875 0.984375,0 1.4648437,0.574219 1.4648437,1.359375 0,0.679688 -0.375,1.335938 -1.1367187,1.335938 -0.5507813,0 -0.9140625,-0.292969 -1.1132813,-0.457032 -0.082031,-0.07031 -0.1523437,-0.05859 -0.234375,0 -0.1054687,0.09375 -0.1875,0.210938 -0.1875,0.292969 -0.023437,0.105469 0.023437,0.1875 0.140625,0.304688 0.1289063,0.128906 0.515625,0.316406 0.9257813,0.316406 0.4804687,-0.01172 1.078125,-0.246094 1.5703125,-0.632813 0.5507814,-0.457031 0.7968754,-0.960937 0.7968754,-1.511718 0,-0.738282 -0.5859379,-1.511719 -1.7343754,-1.511719 -0.2460938,0 -0.6679688,0.140625 -1.0078125,0.269531 z M 2.15625,103.98123 c -1.34765625,0 -1.83984375,1.60547 -1.83984375,2.91797 0,1.41796 0.48046875,2.90625 1.83984375,2.90625 1.359375,0 1.828125,-1.59375 1.828125,-2.91797 0,-1.38282 -0.46875,-2.90625 -1.828125,-2.90625 z m 0,0.30468 c 0.8085938,0 1.03125,1.32422 1.03125,2.60157 0,1.26562 -0.2226562,2.61328 -1.03125,2.61328 -0.7734375,0 -1.0429688,-1.35938 -1.0429688,-2.61328 0,-1.25391 0.2226563,-2.60157 1.0429688,-2.60157 z m 3.1962891,5.51954 c 0.28125,0 0.5039062,-0.19922 0.5039062,-0.51563 0,-0.29297 -0.2226562,-0.51562 -0.5039062,-0.51562 -0.2929688,0 -0.5039063,0.22265 -0.5039063,0.51562 0,0.31641 0.2109375,0.51563 0.5039063,0.51563 z m 3.1757812,-5.82422 c -1.3476562,0 -1.8398437,1.60547 -1.8398437,2.91797 0,1.41796 0.4804687,2.90625 1.8398437,2.90625 1.359375,0 1.8281247,-1.59375 1.8281247,-2.91797 0,-1.38282 -0.4687497,-2.90625 -1.8281247,-2.90625 z m 0,0.30468 c 0.8085938,0 1.03125,1.32422 1.03125,2.60157 0,1.26562 -0.2226562,2.61328 -1.03125,2.61328 -0.7734375,0 -1.0429687,-1.35938 -1.0429687,-2.61328 0,-1.25391 0.2226562,-2.60157 1.0429687,-2.60157 z m 28.3212887,12.04688 v -0.24609 c -0.820312,-0.0586 -0.878906,-0.12891 -0.878906,-0.78516 v -4.6875 c -0.492187,0.19922 -1.019531,0.375 -1.59375,0.46875 v 0.21094 l 0.433594,0.0117 c 0.386719,0.0234 0.421875,0.0703 0.421875,0.53906 v 3.45703 c 0,0.65625 -0.03516,0.72656 -0.855469,0.78516 v 0.24609 z m 39.298828,-1.26563 c -0.269531,0.57422 -0.386718,0.60938 -0.867187,0.60938 h -1.6875 l 1.277344,-1.33594 c 0.832031,-0.89062 1.195312,-1.41797 1.195312,-2.20312 0,-0.94922 -0.726562,-1.52344 -1.511719,-1.52344 -0.527343,0 -0.949218,0.23437 -1.21875,0.53906 l -0.515625,0.72656 0.199219,0.17579 c 0.234375,-0.35157 0.609375,-0.83204 1.230469,-0.83204 0.65625,0 1.054687,0.4336 1.054687,1.19532 0,0.77343 -0.5625,1.51172 -1.125,2.17968 -0.445312,0.51563 -0.949218,1.03125 -1.453125,1.52344 v 0.21094 h 3.363282 c 0.105468,-0.41016 0.199218,-0.79688 0.316406,-1.18359 z m 36.111333,-3.19921 c 0.22265,-0.32813 0.58593,-0.71485 1.07812,-0.71485 0.48047,0 0.85547,0.29297 0.85547,0.85547 0,0.65625 -0.60938,1.00781 -1.42969,1.27734 l 0.0586,0.25782 c 0.14062,-0.0469 0.36328,-0.10547 0.57421,-0.10547 0.51563,0 1.14844,0.33984 1.14844,1.17187 0,0.89063 -0.45703,1.35938 -1.08984,1.35938 -0.51563,0 -0.89063,-0.2461 -1.125,-0.45703 -0.0703,-0.0586 -0.14063,-0.0469 -0.21094,0 -0.082,0.0586 -0.19922,0.17578 -0.21094,0.29297 -0.0117,0.11718 0.0234,0.21093 0.15235,0.32812 0.11718,0.10547 0.48047,0.30469 0.89062,0.30469 0.65625,0 2.36719,-0.66797 2.36719,-2.1211 0,-0.65625 -0.46875,-1.21875 -1.25391,-1.37109 v -0.0117 c 0.25782,-0.1875 0.48047,-0.33984 0.60938,-0.49219 0.17578,-0.16406 0.28125,-0.375 0.28125,-0.63281 0,-0.6914 -0.52735,-1.19531 -1.34766,-1.19531 -0.46875,0 -0.89062,0.23437 -1.13672,0.50391 l -0.39843,0.57421 z m 42.38964,2.85937 v -0.42187 h -0.86718 v -3.65625 h -0.35157 c -0.92578,1.21875 -1.85156,2.55468 -2.70703,3.83203 v 0.24609 h 2.34375 v 0.65625 c 0,0.58594 -0.0352,0.64453 -0.82031,0.70313 v 0.24609 h 2.30859 v -0.24609 c -0.72656,-0.0586 -0.77343,-0.10547 -0.77343,-0.70313 v -0.65625 z m -1.58203,-0.42187 h -1.76953 c 0.58594,-0.9961 1.17188,-1.85157 1.75781,-2.64844 h 0.0117 z m 0,0"
         style="fill:#231f20;fill-opacity:1;fill-rule:nonzero;stroke:none"
         aria-label="1.0&#10;0.5&#10;0.0&#10;1234"
         transform="matrix(1.3333333,0,0,1.3333333,0,9.9013333)" />
      <path
         id="path3"
         d="m 130.277,684.07 h 30"
         style="fill:none;stroke:#231f20;stroke-width:5;stroke-linecap:butt;stroke-linejoin:miter;stroke-miterlimit:3.25;stroke-dasharray:none;stroke-opacity:1"
         transform="matrix(0.13333333,0,0,-0.13333333,0,169.33333)" />
      <path
         id="path4"
         d="m 130.277,1232.58 h 30"
         style="fill:none;stroke:#231f20;stroke-width:5;stroke-linecap:butt;stroke-linejoin:miter;stroke-miterlimit:3.25;stroke-dasharray:none;stroke-opacity:1"
         transform="matrix(0.13333333,0,0,-0.13333333,0,169.33333)" />
      <path
         id="path5"
         d="M 160.277,135.551 V 1232.58"
         style="fill:none;stroke:#231f20;stroke-width:5;stroke-linecap:butt;stroke-linejoin:miter;stroke-miterlimit:3.25;stroke-dasharray:none;stroke-opacity:1"
         transform="matrix(0.13333333,0,0,-0.13333333,0,169.33333)" />
      <path
         id="path6"
         d="m 130.277,135.559 h 30"
         style="fill:none;stroke:#231f20;stroke-width:5;stroke-linecap:butt;stroke-linejoin:miter;stroke-miterlimit:3.25;stroke-dasharray:none;stroke-opacity:1"
         transform="matrix(0.13333333,0,0,-0.13333333,0,169.33333)" />
      <path
         id="path7"
         d="M 550.793,135.551 H 160.277 V 300.082 H 550.793 V 135.551"
         style="fill:#bfd4f0;fill-opacity:1;fill-rule:nonzero;stroke:none"
         transform="matrix(0.13333333,0,0,-0.13333333,0,169.33333)" />
      <path
         id="path8"
         d="M 550.793,135.551 H 160.277 v 164.531 h 390.516 z"
         style="fill:none;stroke:#231f20;stroke-width:5;stroke-linecap:square;stroke-linejoin:miter;stroke-miterlimit:3.25;stroke-dasharray:none;stroke-opacity:1"
         transform="matrix(0.13333333,0,0,-0.13333333,0,169.33333)" />
      <path
         id="path9"
         d="M 941.305,135.551 H 550.793 V 409.789 H 941.305 V 135.551"
         style="fill:#bfd4f0;fill-opacity:1;fill-rule:nonzero;stroke:none"
         transform="matrix(0.13333333,0,0,-0.13333333,0,169.33333)" />
      <path
         id="path10"
         d="M 941.305,135.551 H 550.793 v 274.238 h 390.512 z"
         style="fill:none;stroke:#231f20;stroke-width:5;stroke-linecap:square;stroke-linejoin:miter;stroke-miterlimit:3.25;stroke-dasharray:none;stroke-opacity:1"
         transform="matrix(0.13333333,0,0,-0.13333333,0,169.33333)" />
      <path
         id="path11"
         d="M 1331.82,135.551 H 941.305 V 684.07 H 1331.82 V 135.551"
         style="fill:#bfd4f0;fill-opacity:1;fill-rule:nonzero;stroke:none"
         transform="matrix(0.13333333,0,0,-0.13333333,0,169.33333)" />
      <path
         id="path12"
         d="M 1331.82,135.551 H 941.305 V 684.07 h 390.515 z"
         style="fill:none;stroke:#231f20;stroke-width:5;stroke-linecap:square;stroke-linejoin:miter;stroke-miterlimit:3.25;stroke-dasharray:none;stroke-opacity:1"
         transform="matrix(0.13333333,0,0,-0.13333333,0,169.33333)" />
      <path
         id="path13"
         d="M 1722.33,135.551 H 1331.82 V 245.27 h 390.51 V 135.551"
         style="fill:#bfd4f0;fill-opacity:1;fill-rule:nonzero;stroke:none"
         transform="matrix(0.13333333,0,0,-0.13333333,0,169.33333)" />
      <path
         id="path14"
         d="M 1722.33,135.551 H 1331.82 V 245.27 h 390.51 z"
         style="fill:none;stroke:#231f20;stroke-width:5;stroke-linecap:square;stroke-linejoin:miter;stroke-miterlimit:3.25;stroke-dasharray:none;stroke-opacity:1"
         transform="matrix(0.13333333,0,0,-0.13333333,0,169.33333)" />
      <path
         id="path15"
         d="M 160.277,135.551 H 1808.58"
         style="fill:none;stroke:#231f20;stroke-width:5;stroke-linecap:butt;stroke-linejoin:miter;stroke-miterlimit:3.25;stroke-dasharray:none;stroke-opacity:1"
         transform="matrix(0.13333333,0,0,-0.13333333,0,169.33333)" />
    </g>
  </g>
</svg>
