<?xml version="1.0" encoding="UTF-8" standalone="no"?>
<!-- Created with Inkscape (http://www.inkscape.org/) -->

<svg
   version="1.1"
   id="svg1"
   width="555.81335"
   height="389.02667"
   viewBox="0 0 555.81335 389.02667"
   sodipodi:docname="pha02f02.eps"
   xmlns:inkscape="http://www.inkscape.org/namespaces/inkscape"
   xmlns:sodipodi="http://sodipodi.sourceforge.net/DTD/sodipodi-0.dtd"
   xmlns="http://www.w3.org/2000/svg"
   xmlns:svg="http://www.w3.org/2000/svg">
  <defs
     id="defs1" />
  <sodipodi:namedview
     id="namedview1"
     pagecolor="#ffffff"
     bordercolor="#000000"
     borderopacity="0.25"
     inkscape:showpageshadow="2"
     inkscape:pageopacity="0.0"
     inkscape:pagecheckerboard="0"
     inkscape:deskcolor="#d1d1d1">
    <inkscape:page
       x="0"
       y="0"
       inkscape:label="1"
       id="page1"
       width="555.81335"
       height="389.02667"
       margin="0"
       bleed="0" />
  </sodipodi:namedview>
  <g
     id="g1"
     inkscape:groupmode="layer"
     inkscape:label="1">
    <g
       id="group-R5">
      <path
         id="path2"
         d="m 2351.85,1850.39 h 793.36 l 0.58,1011.16 h 175.32 l 0.54,-1011.16 h 793.45"
         style="fill:none;stroke:#0994dc;stroke-width:11.52;stroke-linecap:butt;stroke-linejoin:miter;stroke-miterlimit:3.25;stroke-dasharray:none;stroke-opacity:1"
         transform="matrix(0.13333333,0,0,-0.13333333,0,389.02667)" />
      <path
         id="path3"
         d="m 151.848,1837.74 h 799.789 l 0.582,0.03 h 2.344 l 0.609,0.03 h 1.156 l 0.57,0.03 h 1.188 l 1.168,0.06 h 0.605 l 1.735,0.07 0.601,0.07 0.578,0.03 0.579,0.06 0.586,0.03 0.609,0.08 0.574,0.06 0.578,0.08 0.574,0.06 0.614,0.12 1.726,0.35 0.61,0.17 1.164,0.35 0.582,0.23 0.601,0.23 0.578,0.26 0.579,0.29 0.578,0.32 0.605,0.38 0.578,0.41 0.575,0.43 0.585,0.49 0.614,0.55 0.574,0.57 0.574,0.67 0.578,0.73 0.61,0.78 0.578,0.87 0.582,0.95 0.57,1.05 0.61,1.16 0.527,1.15 0.547,1.25 0.547,1.36 0.546,1.48 0.555,1.59 0.551,1.74 1.098,3.85 0.546,2.15 0.555,2.32 0.52,2.49 0.547,2.66 0.546,2.84 0.555,3.07 1.094,6.75 0.547,3.71 0.551,3.96 0.558,4.23 0.547,4.49 0.547,4.76 0.516,5.06 1.105,11.01 0.547,6 0.547,6.31 1.101,13.71 0.555,7.38 0.547,7.76 1.101,16.68 0.52,8.96 0.547,9.35 1.102,19.96 0.55,10.63 0.55,11.06 1.1,23.44 0.55,12.37 0.55,12.8 1.06,26.94 2.2,58.95 0.55,15.75 0.55,16.13 1.1,33.37 2.17,70.63 4.4,151.16 0.52,18.86 0.55,18.83 1.07,37.37 2.14,72.6 0.52,17.46 0.55,17.12 1.07,33.05 0.52,15.84 0.55,15.36 1.07,28.99 0.55,13.62 0.52,12.94 0.55,12.26 0.52,11.55 0.55,10.81 0.52,10.01 0.55,9.24 0.52,8.41 0.55,7.56 0.52,6.69 0.55,5.79 0.52,4.92 0.55,3.98 0.55,3.07 0.52,2.11 0.55,1.15 0.52,0.27 0.55,-0.72 0.52,-1.65 0.55,-2.62 0.52,-3.53 0.55,-4.43 0.52,-5.35 0.55,-6.26 0.52,-7.13 0.55,-7.99 0.55,-8.84 0.52,-9.62 0.55,-10.42 0.52,-11.22 1.07,-24.53 0.55,-13.26 0.52,-13.93 1.07,-29.57 2.14,-65.16 0.55,-17.32 0.55,-17.63 1.07,-36.1 2.14,-74.41 0.58,-20.46 0.58,-20.47 1.15,-40.82 2.35,-80.09 0.58,-19.47 0.57,-19.2 1.16,-37.4 2.32,-70.29 0.6,-16.51 0.58,-16.05 1.16,-30.7 0.58,-14.63 0.58,-14.14 1.15,-26.79 0.58,-12.63 0.61,-12.17 1.15,-22.83 0.58,-10.68 0.58,-10.23 1.16,-19.02 0.58,-8.84 0.58,-8.37 1.18,-15.53 0.58,-7.15 0.58,-6.75 1.16,-12.37 0.57,-5.68 0.58,-5.3 0.58,-5.01 0.58,-4.66 0.61,-4.41 0.58,-4.08 1.15,-7.42 0.58,-3.33 0.58,-3.13 0.58,-2.86 0.58,-2.7 0.57,-2.46 0.61,-2.32 1.16,-4.08 0.58,-1.82 0.57,-1.66 0.59,-1.54 0.57,-1.41 0.58,-1.31 0.58,-1.18 0.6,-1.11 0.59,-0.98 0.52,-0.87 0.55,-0.78 0.55,-0.72 0.54,-0.64 0.53,-0.61 0.54,-0.55 0.55,-0.52 1.1,-0.87 0.53,-0.37 0.54,-0.36 0.55,-0.32 0.55,-0.29 0.52,-0.25 0.56,-0.24 1.09,-0.4 0.53,-0.18 1.64,-0.43 0.52,-0.11 2.2,-0.35 0.52,-0.06 1.65,-0.17 0.52,-0.03 0.55,-0.03 0.55,-0.07 0.55,-0.02 0.52,-0.02 h 0.55 l 1.1,-0.06 h 0.52 l 0.55,-0.03 h 0.55 l 0.55,-0.03 h 1.07 l 0.55,-0.03 h 2.71 l 0.56,-0.03 h 799.97"
         style="fill:none;stroke:#0994dc;stroke-width:10;stroke-linecap:butt;stroke-linejoin:miter;stroke-miterlimit:3.25;stroke-dasharray:none;stroke-opacity:1"
         transform="matrix(0.13333333,0,0,-0.13333333,0,389.02667)" />
      <path
         id="path4"
         d="m 151.848,1837.74 v 21.78"
         style="fill:none;stroke:#231f20;stroke-width:5;stroke-linecap:butt;stroke-linejoin:miter;stroke-miterlimit:3.25;stroke-dasharray:none;stroke-opacity:1"
         transform="matrix(0.13333333,0,0,-0.13333333,0,389.02667)" />
      <path
         id="path5"
         d="m 504.48,1807.74 v 30"
         style="fill:none;stroke:#231f20;stroke-width:5;stroke-linecap:butt;stroke-linejoin:miter;stroke-miterlimit:3.25;stroke-dasharray:none;stroke-opacity:1"
         transform="matrix(0.13333333,0,0,-0.13333333,0,389.02667)" />
      <path
         id="path6"
         d="m 857.148,1807.74 v 30"
         style="fill:none;stroke:#231f20;stroke-width:5;stroke-linecap:butt;stroke-linejoin:miter;stroke-miterlimit:3.25;stroke-dasharray:none;stroke-opacity:1"
         transform="matrix(0.13333333,0,0,-0.13333333,0,389.02667)" />
      <path
         id="path7"
         d="m 1209.81,1807.74 v 30"
         style="fill:none;stroke:#231f20;stroke-width:5;stroke-linecap:butt;stroke-linejoin:miter;stroke-miterlimit:3.25;stroke-dasharray:none;stroke-opacity:1"
         transform="matrix(0.13333333,0,0,-0.13333333,0,389.02667)" />
      <path
         id="path8"
         d="m 1562.48,1807.74 v 30"
         style="fill:none;stroke:#231f20;stroke-width:5;stroke-linecap:butt;stroke-linejoin:miter;stroke-miterlimit:3.25;stroke-dasharray:none;stroke-opacity:1"
         transform="matrix(0.13333333,0,0,-0.13333333,0,389.02667)" />
      <path
         id="path9"
         d="m 1915.12,1807.74 v 30"
         style="fill:none;stroke:#231f20;stroke-width:5;stroke-linecap:butt;stroke-linejoin:miter;stroke-miterlimit:3.25;stroke-dasharray:none;stroke-opacity:1"
         transform="matrix(0.13333333,0,0,-0.13333333,0,389.02667)" />
      <path
         id="path10"
         d="M 151.848,1837.74 H 1951.85"
         style="fill:none;stroke:#231f20;stroke-width:5;stroke-linecap:butt;stroke-linejoin:miter;stroke-miterlimit:3.25;stroke-dasharray:none;stroke-opacity:1"
         transform="matrix(0.13333333,0,0,-0.13333333,0,389.02667)" />
      <path
         id="path11"
         d="m 151.848,1837.74 h 21.746"
         style="fill:none;stroke:#231f20;stroke-width:5;stroke-linecap:butt;stroke-linejoin:miter;stroke-miterlimit:3.25;stroke-dasharray:none;stroke-opacity:1"
         transform="matrix(0.13333333,0,0,-0.13333333,0,389.02667)" />
      <path
         id="path12"
         d="m 121.848,2042.36 h 30"
         style="fill:none;stroke:#231f20;stroke-width:5;stroke-linecap:butt;stroke-linejoin:miter;stroke-miterlimit:3.25;stroke-dasharray:none;stroke-opacity:1"
         transform="matrix(0.13333333,0,0,-0.13333333,0,389.02667)" />
      <path
         id="path13"
         d="m 121.848,2247 h 30"
         style="fill:none;stroke:#231f20;stroke-width:5;stroke-linecap:butt;stroke-linejoin:miter;stroke-miterlimit:3.25;stroke-dasharray:none;stroke-opacity:1"
         transform="matrix(0.13333333,0,0,-0.13333333,0,389.02667)" />
      <path
         id="path14"
         d="m 121.848,2451.64 h 30"
         style="fill:none;stroke:#231f20;stroke-width:5;stroke-linecap:butt;stroke-linejoin:miter;stroke-miterlimit:3.25;stroke-dasharray:none;stroke-opacity:1"
         transform="matrix(0.13333333,0,0,-0.13333333,0,389.02667)" />
      <path
         id="path15"
         d="m 121.848,2656.29 h 30"
         style="fill:none;stroke:#231f20;stroke-width:5;stroke-linecap:butt;stroke-linejoin:miter;stroke-miterlimit:3.25;stroke-dasharray:none;stroke-opacity:1"
         transform="matrix(0.13333333,0,0,-0.13333333,0,389.02667)" />
      <path
         id="path16"
         d="m 121.848,2860.94 h 30"
         style="fill:none;stroke:#231f20;stroke-width:5;stroke-linecap:butt;stroke-linejoin:miter;stroke-miterlimit:3.25;stroke-dasharray:none;stroke-opacity:1"
         transform="matrix(0.13333333,0,0,-0.13333333,0,389.02667)" />
      <path
         id="path17"
         d="m 151.848,1837.74 v 1080"
         style="fill:none;stroke:#231f20;stroke-width:5;stroke-linecap:butt;stroke-linejoin:miter;stroke-miterlimit:3.25;stroke-dasharray:none;stroke-opacity:1"
         transform="matrix(0.13333333,0,0,-0.13333333,0,389.02667)" />
      <path
         id="path18"
         d="m 2351.85,1837.74 v 21.55"
         style="fill:none;stroke:#231f20;stroke-width:5;stroke-linecap:butt;stroke-linejoin:miter;stroke-miterlimit:3.25;stroke-dasharray:none;stroke-opacity:1"
         transform="matrix(0.13333333,0,0,-0.13333333,0,389.02667)" />
      <path
         id="path19"
         d="m 2704.5,1807.74 v 30"
         style="fill:none;stroke:#231f20;stroke-width:5;stroke-linecap:butt;stroke-linejoin:miter;stroke-miterlimit:3.25;stroke-dasharray:none;stroke-opacity:1"
         transform="matrix(0.13333333,0,0,-0.13333333,0,389.02667)" />
      <path
         id="path20"
         d="m 3057.16,1807.74 v 30"
         style="fill:none;stroke:#231f20;stroke-width:5;stroke-linecap:butt;stroke-linejoin:miter;stroke-miterlimit:3.25;stroke-dasharray:none;stroke-opacity:1"
         transform="matrix(0.13333333,0,0,-0.13333333,0,389.02667)" />
      <path
         id="path21"
         d="m 3409.81,1807.74 v 30"
         style="fill:none;stroke:#231f20;stroke-width:5;stroke-linecap:butt;stroke-linejoin:miter;stroke-miterlimit:3.25;stroke-dasharray:none;stroke-opacity:1"
         transform="matrix(0.13333333,0,0,-0.13333333,0,389.02667)" />
      <path
         id="path22"
         d="m 3762.47,1807.74 v 30"
         style="fill:none;stroke:#231f20;stroke-width:5;stroke-linecap:butt;stroke-linejoin:miter;stroke-miterlimit:3.25;stroke-dasharray:none;stroke-opacity:1"
         transform="matrix(0.13333333,0,0,-0.13333333,0,389.02667)" />
      <path
         id="path23"
         d="m 4115.1,1807.74 v 30"
         style="fill:none;stroke:#231f20;stroke-width:5;stroke-linecap:butt;stroke-linejoin:miter;stroke-miterlimit:3.25;stroke-dasharray:none;stroke-opacity:1"
         transform="matrix(0.13333333,0,0,-0.13333333,0,389.02667)" />
      <path
         id="path24"
         d="m 2351.85,1837.74 h 1800"
         style="fill:none;stroke:#231f20;stroke-width:5;stroke-linecap:butt;stroke-linejoin:miter;stroke-miterlimit:3.25;stroke-dasharray:none;stroke-opacity:1"
         transform="matrix(0.13333333,0,0,-0.13333333,0,389.02667)" />
      <path
         id="path25"
         d="m 2351.85,1837.74 h 21.74"
         style="fill:none;stroke:#231f20;stroke-width:5;stroke-linecap:butt;stroke-linejoin:miter;stroke-miterlimit:3.25;stroke-dasharray:none;stroke-opacity:1"
         transform="matrix(0.13333333,0,0,-0.13333333,0,389.02667)" />
      <path
         id="path26"
         d="m 2321.85,2065.25 h 30"
         style="fill:none;stroke:#231f20;stroke-width:5;stroke-linecap:butt;stroke-linejoin:miter;stroke-miterlimit:3.25;stroke-dasharray:none;stroke-opacity:1"
         transform="matrix(0.13333333,0,0,-0.13333333,0,389.02667)" />
      <path
         id="path27"
         d="m 2321.85,2292.77 h 30"
         style="fill:none;stroke:#231f20;stroke-width:5;stroke-linecap:butt;stroke-linejoin:miter;stroke-miterlimit:3.25;stroke-dasharray:none;stroke-opacity:1"
         transform="matrix(0.13333333,0,0,-0.13333333,0,389.02667)" />
      <path
         id="path28"
         d="m 2321.85,2520.28 h 30"
         style="fill:none;stroke:#231f20;stroke-width:5;stroke-linecap:butt;stroke-linejoin:miter;stroke-miterlimit:3.25;stroke-dasharray:none;stroke-opacity:1"
         transform="matrix(0.13333333,0,0,-0.13333333,0,389.02667)" />
      <path
         id="path29"
         d="m 2321.85,2747.8 h 30"
         style="fill:none;stroke:#231f20;stroke-width:5;stroke-linecap:butt;stroke-linejoin:miter;stroke-miterlimit:3.25;stroke-dasharray:none;stroke-opacity:1"
         transform="matrix(0.13333333,0,0,-0.13333333,0,389.02667)" />
      <path
         id="path30"
         d="M 2351.85,1837.74 V 2917.73"
         style="fill:none;stroke:#231f20;stroke-width:5;stroke-linecap:butt;stroke-linejoin:miter;stroke-miterlimit:3.25;stroke-dasharray:none;stroke-opacity:1"
         transform="matrix(0.13333333,0,0,-0.13333333,0,389.02667)" />
      <path
         id="path31"
         d="m 1241.21,271.691 h 801.53 l 0.6,0.028 h 2.34 l 0.57,0.051 h 1.18 l 0.6,0.039 h 1.18 l 0.56,0.05 0.6,0.039 h 0.57 l 0.61,0.051 0.55,0.039 0.61,0.051 0.56,0.07 0.62,0.051 0.55,0.039 0.61,0.09 0.57,0.09 0.61,0.09 0.55,0.121 0.61,0.14 0.57,0.129 0.6,0.121 0.56,0.18 0.62,0.211 0.56,0.231 0.6,0.207 0.56,0.261 1.23,0.61 0.55,0.39 0.61,0.391 0.56,0.43 0.62,0.519 0.55,0.531 0.61,0.598 0.57,0.66 0.59,0.731 0.58,0.781 0.6,0.867 0.57,0.961 0.6,1.031 0.56,1.141 0.57,1.168 0.53,1.262 0.56,1.39 0.56,1.469 0.53,1.559 0.56,1.742 1.06,3.859 0.56,2.129 0.51,2.34 0.58,2.48 0.57,2.653 0.51,2.867 0.57,3.031 1.09,6.758 0.57,3.742 0.53,3.949 0.56,4.211 0.56,4.508 0.53,4.742 0.56,5.071 1.05,11.019 0.57,6 0.51,6.289 1.14,13.711 0.52,7.379 0.57,7.762 1.09,16.711 0.57,8.949 0.52,9.32 1.09,19.969 0.52,10.641 0.56,11.058 1.09,23.442 0.57,12.359 0.52,12.809 1.1,26.953 2.21,58.937 0.57,15.75 0.53,16.153 1.04,33.367 2.22,70.609 4.4,151.172 0.53,18.871 0.57,18.789 0.99,37.379 2.19,72.601 0.53,17.49 0.52,17.1 1.09,33.08 0.57,15.84 0.52,15.31 1.04,28.99 0.53,13.62 0.52,12.94 0.57,12.29 0.53,11.54 0.56,10.81 0.52,10.02 0.53,9.24 0.56,8.43 0.53,7.55 0.48,6.68 0.57,5.78 0.51,4.9 0.57,3.98 0.53,3.1 0.53,2.07 0.56,1.22 0.53,0.21 0.52,-0.68 0.56,-1.71 0.53,-2.55 0.49,-3.56 0.56,-4.42 0.52,-5.38 0.57,-6.26 0.52,-7.11 0.52,-7.99 0.57,-8.86 0.53,-9.62 0.52,-10.42 0.57,-11.21 1.09,-24.52 0.52,-13.27 0.48,-13.93 1.09,-29.56 2.18,-65.19 0.53,-17.27 0.53,-17.67 1.08,-36.111 2.14,-74.379 0.57,-20.441 0.55,-20.489 1.17,-40.832 2.35,-80.07 0.56,-19.488 0.61,-19.192 1.17,-37.41 2.3,-70.297 0.6,-16.5 0.57,-16.05 1.17,-30.692 0.57,-14.621 0.6,-14.148 1.17,-26.782 0.56,-12.628 0.57,-12.2 1.17,-22.832 0.61,-10.668 0.56,-10.199 1.17,-19.051 0.57,-8.808 0.61,-8.434 1.16,-15.476 0.56,-7.161 0.57,-6.73 1.17,-12.41 0.61,-5.653 0.56,-5.289 0.61,-5.039 0.57,-4.691 0.56,-4.367 0.61,-4.082 1.16,-7.43 0.57,-3.34 0.6,-3.082 0.57,-2.91 0.56,-2.648 0.61,-2.52 0.57,-2.289 1.17,-4.09 0.56,-1.812 0.6,-1.649 0.57,-1.558 0.6,-1.403 0.58,-1.301 0.59,-1.207 0.57,-1.082 0.57,-1.007 0.56,-0.821 0.53,-0.781 0.56,-0.738 0.48,-0.653 0.56,-0.597 0.57,-0.571 0.54,-0.48 0.55,-0.481 0.53,-0.429 0.56,-0.352 0.52,-0.347 0.57,-0.34 0.53,-0.274 0.56,-0.25 0.53,-0.258 0.57,-0.218 0.47,-0.172 0.56,-0.18 0.53,-0.18 0.57,-0.121 0.52,-0.129 0.57,-0.14 0.52,-0.059 0.56,-0.101 0.53,-0.09 0.57,-0.09 0.56,-0.051 0.53,-0.09 0.57,-0.031 0.52,-0.039 0.56,-0.051 0.48,-0.039 0.57,-0.051 h 0.52 l 0.57,-0.039 h 0.52 l 0.56,-0.05 h 0.53 l 0.57,-0.039 h 1.09 l 0.53,-0.051 h 2.69 l 0.57,-0.028 h 801.58"
         style="fill:none;stroke:#0994dc;stroke-width:11.52;stroke-linecap:square;stroke-linejoin:miter;stroke-miterlimit:3.25;stroke-dasharray:none;stroke-opacity:1"
         transform="matrix(0.13333333,0,0,-0.13333333,0,389.02667)" />
      <path
         id="path32"
         d="m 2038.66,312.539 h -6.71 V 227.84 h 6.71 v 84.699 0"
         style="fill:#ed1c24;fill-opacity:1;fill-rule:nonzero;stroke:none"
         transform="matrix(0.13333333,0,0,-0.13333333,0,389.02667)" />
      <path
         id="path33"
         d="m 2068.87,312.539 h -6.74 V 227.84 h 6.74 v 84.699 0"
         style="fill:#ed1c24;fill-opacity:1;fill-rule:nonzero;stroke:none"
         transform="matrix(0.13333333,0,0,-0.13333333,0,389.02667)" />
      <path
         id="path34"
         d="m 2108.37,312.539 h -6.74 V 227.84 h 6.74 v 84.699 0"
         style="fill:#ed1c24;fill-opacity:1;fill-rule:nonzero;stroke:none"
         transform="matrix(0.13333333,0,0,-0.13333333,0,389.02667)" />
      <path
         id="path35"
         d="m 2141.03,312.539 h -6.75 V 227.84 h 6.75 v 84.699 0"
         style="fill:#ed1c24;fill-opacity:1;fill-rule:nonzero;stroke:none"
         transform="matrix(0.13333333,0,0,-0.13333333,0,389.02667)" />
      <path
         id="path36"
         d="m 2174.96,312.539 h -6.75 V 227.84 h 6.75 v 84.699 0"
         style="fill:#ed1c24;fill-opacity:1;fill-rule:nonzero;stroke:none"
         transform="matrix(0.13333333,0,0,-0.13333333,0,389.02667)" />
      <path
         id="path37"
         d="m 2207.01,312.539 h -6.69 V 227.84 h 6.69 v 84.699 0"
         style="fill:#ed1c24;fill-opacity:1;fill-rule:nonzero;stroke:none"
         transform="matrix(0.13333333,0,0,-0.13333333,0,389.02667)" />
      <path
         id="path38"
         d="m 1241.21,271.691 v 20"
         style="fill:none;stroke:#231f20;stroke-width:5;stroke-linecap:butt;stroke-linejoin:miter;stroke-miterlimit:3.25;stroke-dasharray:none;stroke-opacity:1"
         transform="matrix(0.13333333,0,0,-0.13333333,0,389.02667)" />
      <path
         id="path39"
         d="m 1593.84,241.691 v 30"
         style="fill:none;stroke:#231f20;stroke-width:5;stroke-linecap:butt;stroke-linejoin:miter;stroke-miterlimit:3.25;stroke-dasharray:none;stroke-opacity:1"
         transform="matrix(0.13333333,0,0,-0.13333333,0,389.02667)" />
      <path
         id="path40"
         d="m 1946.48,241.691 v 30"
         style="fill:none;stroke:#231f20;stroke-width:5;stroke-linecap:butt;stroke-linejoin:miter;stroke-miterlimit:3.25;stroke-dasharray:none;stroke-opacity:1"
         transform="matrix(0.13333333,0,0,-0.13333333,0,389.02667)" />
      <path
         id="path41"
         d="m 2299.18,241.691 v 30"
         style="fill:none;stroke:#231f20;stroke-width:5;stroke-linecap:butt;stroke-linejoin:miter;stroke-miterlimit:3.25;stroke-dasharray:none;stroke-opacity:1"
         transform="matrix(0.13333333,0,0,-0.13333333,0,389.02667)" />
      <path
         id="path42"
         d="m 2651.77,241.691 v 30"
         style="fill:none;stroke:#231f20;stroke-width:5;stroke-linecap:butt;stroke-linejoin:miter;stroke-miterlimit:3.25;stroke-dasharray:none;stroke-opacity:1"
         transform="matrix(0.13333333,0,0,-0.13333333,0,389.02667)" />
      <path
         id="path43"
         d="m 3004.44,241.691 v 30"
         style="fill:none;stroke:#231f20;stroke-width:5;stroke-linecap:butt;stroke-linejoin:miter;stroke-miterlimit:3.25;stroke-dasharray:none;stroke-opacity:1"
         transform="matrix(0.13333333,0,0,-0.13333333,0,389.02667)" />
      <path
         id="path44"
         d="M 1241.21,271.691 H 3041.2"
         style="fill:none;stroke:#231f20;stroke-width:5;stroke-linecap:butt;stroke-linejoin:miter;stroke-miterlimit:3.25;stroke-dasharray:none;stroke-opacity:1"
         transform="matrix(0.13333333,0,0,-0.13333333,0,389.02667)" />
      <path
         id="path45"
         d="m 1241.21,271.691 h 22.19"
         style="fill:none;stroke:#231f20;stroke-width:5;stroke-linecap:butt;stroke-linejoin:miter;stroke-miterlimit:3.25;stroke-dasharray:none;stroke-opacity:1"
         transform="matrix(0.13333333,0,0,-0.13333333,0,389.02667)" />
      <path
         id="path46"
         d="m 1211.21,476.309 h 30"
         style="fill:none;stroke:#231f20;stroke-width:5;stroke-linecap:butt;stroke-linejoin:miter;stroke-miterlimit:3.25;stroke-dasharray:none;stroke-opacity:1"
         transform="matrix(0.13333333,0,0,-0.13333333,0,389.02667)" />
      <path
         id="path47"
         d="m 1211.21,680.941 h 30"
         style="fill:none;stroke:#231f20;stroke-width:5;stroke-linecap:butt;stroke-linejoin:miter;stroke-miterlimit:3.25;stroke-dasharray:none;stroke-opacity:1"
         transform="matrix(0.13333333,0,0,-0.13333333,0,389.02667)" />
      <path
         id="path48"
         d="m 1211.21,885.578 h 30"
         style="fill:none;stroke:#231f20;stroke-width:5;stroke-linecap:butt;stroke-linejoin:miter;stroke-miterlimit:3.25;stroke-dasharray:none;stroke-opacity:1"
         transform="matrix(0.13333333,0,0,-0.13333333,0,389.02667)" />
      <path
         id="path49"
         d="m 1211.21,1090.21 h 30"
         style="fill:none;stroke:#231f20;stroke-width:5;stroke-linecap:butt;stroke-linejoin:miter;stroke-miterlimit:3.25;stroke-dasharray:none;stroke-opacity:1"
         transform="matrix(0.13333333,0,0,-0.13333333,0,389.02667)" />
      <path
         id="path50"
         d="m 1211.21,1294.88 h 30"
         style="fill:none;stroke:#231f20;stroke-width:5;stroke-linecap:butt;stroke-linejoin:miter;stroke-miterlimit:3.25;stroke-dasharray:none;stroke-opacity:1"
         transform="matrix(0.13333333,0,0,-0.13333333,0,389.02667)" />
      <path
         id="path51"
         d="M 1241.21,271.691 V 1351.69"
         style="fill:none;stroke:#231f20;stroke-width:5;stroke-linecap:butt;stroke-linejoin:miter;stroke-miterlimit:3.25;stroke-dasharray:none;stroke-opacity:1"
         transform="matrix(0.13333333,0,0,-0.13333333,0,389.02667)" />
      <path
         id="path52"
         d="M 3.4570313,-1.5625e-4 V -0.24625 C 2.6367188,-0.30484375 2.578125,-0.37515625 2.578125,-1.0314062 v -4.6875 c -0.4921875,0.1992187 -1.0195313,0.375 -1.59375,0.46875 v 0.2109375 L 1.4179687,-5.0275 c 0.3867188,0.023437 0.421875,0.070312 0.421875,0.5390625 v 3.4570313 c 0,0.65624995 -0.035156,0.72656245 -0.8554687,0.7851562 V -1.5625e-4 Z M 5.3525391,0.1053125 c 0.28125,0 0.5039062,-0.19921875 0.5039062,-0.515625 0,-0.29296875 -0.2226562,-0.515625 -0.5039062,-0.515625 -0.2929688,0 -0.5039063,0.22265625 -0.5039063,0.515625 0,0.31640625 0.2109375,0.515625 0.5039063,0.515625 z m 3.1757812,-5.8242187 c -1.3476562,0 -1.8398437,1.6054687 -1.8398437,2.9179687 0,1.4179688 0.4804687,2.90625 1.8398437,2.90625 1.359375,0 1.8281247,-1.59375 1.8281247,-2.9179687 0,-1.3828125 -0.4687497,-2.90625 -1.8281247,-2.90625 z m 0,0.3046875 c 0.8085938,0 1.03125,1.3242187 1.03125,2.6015625 0,1.265625 -0.2226562,2.6132812 -1.03125,2.6132812 -0.7734375,0 -1.0429687,-1.359375 -1.0429687,-2.6132812 0,-1.2539063 0.2226562,-2.6015625 1.0429687,-2.6015625 z M 2.15625,14.742031 c -1.34765625,0 -1.83984375,1.605469 -1.83984375,2.917969 0,1.417969 0.48046875,2.90625 1.83984375,2.90625 1.359375,0 1.828125,-1.59375 1.828125,-2.917969 0,-1.382812 -0.46875,-2.90625 -1.828125,-2.90625 z m 0,0.304688 c 0.8085938,0 1.03125,1.324219 1.03125,2.601562 0,1.265625 -0.2226562,2.613282 -1.03125,2.613282 -0.7734375,0 -1.0429688,-1.359375 -1.0429688,-2.613282 0,-1.253906 0.2226563,-2.601562 1.0429688,-2.601562 z m 3.1962891,5.519531 c 0.28125,0 0.5039062,-0.199219 0.5039062,-0.515625 0,-0.292969 -0.2226562,-0.515625 -0.5039062,-0.515625 -0.2929688,0 -0.5039063,0.222656 -0.5039063,0.515625 0,0.316406 0.2109375,0.515625 0.5039063,0.515625 z m 3.2460937,-5.824219 c -0.9609375,0 -1.59375,0.726563 -1.59375,1.476563 0,0.632812 0.3867188,1.066406 0.9726563,1.394531 -0.3046875,0.199219 -0.65625,0.445313 -0.796875,0.574219 -0.1992188,0.199219 -0.3984375,0.445312 -0.3984375,0.855469 0,0.972656 0.7617187,1.523437 1.7226562,1.523437 0.7617188,0 1.7812502,-0.574219 1.7812502,-1.628906 0,-0.785156 -0.5625002,-1.207031 -1.1835939,-1.558594 0.3984375,-0.28125 0.6445312,-0.503906 0.703125,-0.585937 0.1757812,-0.1875 0.2695309,-0.457032 0.2695309,-0.714844 0,-0.726563 -0.6210934,-1.335938 -1.4765622,-1.335938 z M 8.5166016,15.035 c 0.4101562,0 0.8789062,0.328125 0.8789062,1.089844 0,0.539062 -0.2460937,0.867187 -0.5507812,1.113281 -0.6328125,-0.316406 -1.171875,-0.609375 -1.171875,-1.277344 0,-0.457031 0.3046875,-0.925781 0.84375,-0.925781 z m 0.082031,5.25 c -0.5742187,0 -1.1015625,-0.46875 -1.1015625,-1.289062 0,-0.492188 0.3046875,-0.949219 0.7382813,-1.230469 0.6914062,0.351562 1.3359375,0.738281 1.3359375,1.40625 0,0.691406 -0.421875,1.113281 -0.9726563,1.113281 z M 2.15625,35.200039 c -1.34765625,0 -1.83984375,1.605469 -1.83984375,2.917969 0,1.417969 0.48046875,2.90625 1.83984375,2.90625 1.359375,0 1.828125,-1.59375 1.828125,-2.917969 0,-1.382812 -0.46875,-2.90625 -1.828125,-2.90625 z m 0,0.304688 c 0.8085938,0 1.03125,1.324218 1.03125,2.601562 0,1.265625 -0.2226562,2.613281 -1.03125,2.613281 -0.7734375,0 -1.0429688,-1.359375 -1.0429688,-2.613281 0,-1.253906 0.2226563,-2.601562 1.0429688,-2.601562 z m 3.1962891,5.519531 c 0.28125,0 0.5039062,-0.199219 0.5039062,-0.515625 0,-0.292969 -0.2226562,-0.515625 -0.5039062,-0.515625 -0.2929688,0 -0.5039063,0.222656 -0.5039063,0.515625 0,0.316406 0.2109375,0.515625 0.5039063,0.515625 z m 2.25,-3.1875 c 0.2695312,-1.253906 1.1132812,-1.828125 1.6640625,-2.085938 0.328125,-0.152343 0.6796875,-0.257812 0.9726564,-0.316406 l -0.05859,-0.28125 c -0.3632812,0.05859 -0.7968749,0.164063 -1.1484374,0.28125 -0.9609375,0.351563 -2.3320313,1.371094 -2.3320313,3.339844 0,1.382812 0.796875,2.25 1.8515625,2.25 1.078125,0 1.8398442,-0.902344 1.8398442,-1.980469 0,-0.925781 -0.6562504,-1.664062 -1.6171879,-1.664062 -0.1757813,0 -0.3632813,0.07031 -0.5625,0.152343 z m 0.8203125,0.04687 c 0.8203125,0 1.1953125,0.738281 1.1953125,1.488281 0,0.597656 -0.2109375,1.347656 -0.9140625,1.347656 -0.7382813,0 -1.1953125,-0.878906 -1.1953125,-1.957031 0,-0.234375 0.011719,-0.457031 0.046875,-0.621094 0.2226562,-0.117187 0.5273437,-0.257812 0.8671875,-0.257812 z M 2.15625,55.660977 c -1.34765625,0 -1.83984375,1.605468 -1.83984375,2.917968 0,1.417969 0.48046875,2.90625 1.83984375,2.90625 1.359375,0 1.828125,-1.59375 1.828125,-2.917968 0,-1.382813 -0.46875,-2.90625 -1.828125,-2.90625 z m 0,0.304687 c 0.8085938,0 1.03125,1.324219 1.03125,2.601563 0,1.265625 -0.2226562,2.613281 -1.03125,2.613281 -0.7734375,0 -1.0429688,-1.359375 -1.0429688,-2.613281 0,-1.253907 0.2226563,-2.601563 1.0429688,-2.601563 z m 3.1962891,5.519531 c 0.28125,0 0.5039062,-0.199218 0.5039062,-0.515625 0,-0.292968 -0.2226562,-0.515625 -0.5039062,-0.515625 -0.2929688,0 -0.5039063,0.222657 -0.5039063,0.515625 0,0.316407 0.2109375,0.515625 0.5039063,0.515625 z M 10.473633,59.774258 V 59.352383 H 9.6064453 v -3.65625 H 9.2548828 c -0.9257812,1.21875 -1.8515625,2.554687 -2.7070312,3.832031 v 0.246094 h 2.34375 v 0.65625 c 0,0.585937 -0.035156,0.644531 -0.8203125,0.703125 v 0.246094 H 10.379883 V 61.133633 C 9.6533203,61.075039 9.6064453,61.028164 9.6064453,60.430508 v -0.65625 z M 8.8916016,59.352383 H 7.1220703 c 0.5859375,-0.996094 1.171875,-1.851563 1.7578125,-2.648438 h 0.011719 z M 2.15625,76.121914 c -1.34765625,0 -1.83984375,1.605469 -1.83984375,2.917969 0,1.417969 0.48046875,2.90625 1.83984375,2.90625 1.359375,0 1.828125,-1.59375 1.828125,-2.917969 0,-1.382812 -0.46875,-2.90625 -1.828125,-2.90625 z m 0,0.304688 c 0.8085938,0 1.03125,1.324218 1.03125,2.601562 0,1.265625 -0.2226562,2.613281 -1.03125,2.613281 -0.7734375,0 -1.0429688,-1.359375 -1.0429688,-2.613281 0,-1.253906 0.2226563,-2.601562 1.0429688,-2.601562 z m 3.1962891,5.519531 c 0.28125,0 0.5039062,-0.199219 0.5039062,-0.515625 0,-0.292969 -0.2226562,-0.515625 -0.5039062,-0.515625 -0.2929688,0 -0.5039063,0.222656 -0.5039063,0.515625 0,0.316406 0.2109375,0.515625 0.5039063,0.515625 z m 4.7226559,-1.371094 c -0.2695309,0.574219 -0.3867184,0.609375 -0.8671872,0.609375 h -1.6875 l 1.2773438,-1.335937 c 0.8320312,-0.890625 1.1953125,-1.417969 1.1953125,-2.203125 0,-0.949219 -0.7265625,-1.523438 -1.5117188,-1.523438 -0.5273437,0 -0.9492187,0.234375 -1.21875,0.539063 l -0.515625,0.726562 0.1992188,0.175781 c 0.234375,-0.351562 0.609375,-0.832031 1.2304687,-0.832031 0.65625,0 1.0546875,0.433594 1.0546875,1.195313 0,0.773437 -0.5625,1.511718 -1.125,2.179687 -0.4453125,0.515625 -0.9492187,1.03125 -1.453125,1.523438 v 0.210937 h 3.3632817 c 0.105468,-0.410156 0.199218,-0.796875 0.316406,-1.183594 z m 0,0"
         style="fill:#231f20;fill-opacity:1;fill-rule:nonzero;stroke:none"
         aria-label="1.0&#10;0.8&#10;0.6&#10;0.4&#10;0.2"
         transform="matrix(1.3333333,0,0,1.3333333,0,11.953333)" />
      <path
         id="path53"
         d="m 2.1564891,-5.7104036 c -1.34765629,0 -1.83984379,1.5968081 -1.83984379,2.9153845 0,1.4153527 0.48046875,2.90328753 1.83984379,2.90328753 1.359375,0 1.828125,-1.60890513 1.828125,-2.91538453 0,-1.3911586 -0.46875,-2.9032875 -1.828125,-2.9032875 z m 0,0.2903287 c 0.8085937,0 1.03125,1.3306735 1.03125,2.6129588 0,1.2580912 -0.2226563,2.61295875 -1.03125,2.61295875 -0.7734375,0 -1.0429688,-1.36696455 -1.0429688,-2.62505575 0,-1.2459943 0.2226563,-2.6008618 1.0429688,-2.6008618 z m 3.1933593,5.52834333 c 0.28125,0 0.5039063,-0.20564953 0.5039063,-0.52017234 0,-0.29032875 -0.2226563,-0.52017235 -0.5039063,-0.52017235 -0.2929687,0 -0.5039062,0.2298436 -0.5039062,0.52017235 0,0.31452281 0.2109375,0.52017234 0.5039062,0.52017234 z M 10.075434,-1.2586961 c -0.2695309,0.56856047 -0.3867184,0.60485156 -0.8671871,0.60485156 h -1.6875 L 8.7980906,-1.996615 c 0.8320313,-0.8830833 1.1953125,-1.4153527 1.1953125,-2.2016597 0,-0.9435684 -0.7265625,-1.5121289 -1.5117187,-1.5121289 -0.5273438,0 -0.9492188,0.2298436 -1.21875,0.5201723 l -0.515625,0.7379189 0.1992187,0.1814555 c 0.234375,-0.3508139 0.609375,-0.8467922 1.2304688,-0.8467922 0.65625,0 1.0546875,0.4475902 1.0546875,1.1976061 0,0.77421 -0.5625,1.5121289 -1.125,2.1774656 -0.4453125,0.5322694 -0.9492188,1.04034474 -1.453125,1.53632302 V -6.0485156e-4 H 10.016841 C 10.122309,-0.39980688 10.216059,-0.79900891 10.333247,-1.1740169 Z m 27.348633,-4.4517075 c -1.347656,0 -1.839844,1.5968081 -1.839844,2.9153845 0,1.4153527 0.480469,2.90328753 1.839844,2.90328753 1.359375,0 1.828125,-1.60890513 1.828125,-2.91538453 0,-1.3911586 -0.46875,-2.9032875 -1.828125,-2.9032875 z m 0,0.2903287 c 0.808594,0 1.03125,1.3306735 1.03125,2.6129588 0,1.2580912 -0.222656,2.61295875 -1.03125,2.61295875 -0.773437,0 -1.042969,-1.36696455 -1.042969,-2.62505575 0,-1.2459943 0.222657,-2.6008618 1.042969,-2.6008618 z m 3.19336,5.52834333 c 0.28125,0 0.503906,-0.20564953 0.503906,-0.52017234 0,-0.29032875 -0.222656,-0.52017235 -0.503906,-0.52017235 -0.292969,0 -0.503907,0.2298436 -0.503907,0.52017235 0,0.31452281 0.210938,0.52017234 0.503907,0.52017234 z M 45.74145,-1.597413 V -2.0208091 H 44.874262 V -5.6862095 H 44.5227 c -0.925781,1.2218001 -1.851563,2.5524736 -2.707031,3.8347589 v 0.2540376 h 2.34375 v 0.64114268 c 0,0.59275453 -0.03516,0.65323969 -0.820313,0.71372484 V -6.0485156e-4 H 45.6477 V -0.24254548 c -0.726563,-0.0604852 -0.773438,-0.10887328 -0.773438,-0.71372484 V -1.597413 Z m -1.582031,-0.4233961 h -1.769532 c 0.585938,-1.0040536 1.171875,-1.8629428 1.757813,-2.6613468 h 0.01172 z m 7.037109,15.7261411 c -0.890625,-0.750016 -1.40625,-2.20166 -1.40625,-3.7500801 0,-1.54842 0.515625,-3.0000638 1.40625,-3.7379827 L 51.044184,6.0116197 c -1.324218,0.8830833 -1.910156,2.32263 -1.910156,3.9315351 0,1.6330992 0.585938,3.0847432 1.910156,3.9678262 z m 4.321289,-1.669391 -0.09375,-0.229843 c -0.09375,0.04839 -0.222656,0.09678 -0.328125,0.09678 -0.152344,0 -0.316406,-0.133067 -0.316406,-0.544367 V 9.6891172 c 0,-0.4717842 -0.08203,-0.8346952 -0.398438,-1.1008299 -0.199218,-0.1572614 -0.46875,-0.2419406 -0.738281,-0.2419406 -0.515625,0.096776 -1.101562,0.4475902 -1.347656,0.6290456 -0.175781,0.1209703 -0.292969,0.2298436 -0.292969,0.362911 0,0.2056495 0.234375,0.387105 0.398438,0.387105 0.128906,0 0.222656,-0.060485 0.257812,-0.2056496 0.07031,-0.2782317 0.152344,-0.4838812 0.269531,-0.5927545 0.09375,-0.1088733 0.222657,-0.1814555 0.410157,-0.1814555 0.445312,0 0.75,0.362911 0.75,1.0161507 v 0.1572614 c -0.199219,0.1693582 -0.855469,0.4112992 -1.394532,0.5927542 -0.492187,0.169359 -0.726562,0.44759 -0.726562,0.883084 0,0.56856 0.445312,1.100829 1.078125,1.100829 0.269531,0 0.703125,-0.338716 1.066406,-0.580657 0.04687,0.157261 0.09375,0.278232 0.210938,0.411299 0.105468,0.08468 0.292968,0.169358 0.421875,0.169358 z M 54.08813,11.636739 c -0.164063,0.157262 -0.480469,0.314523 -0.714844,0.314523 -0.28125,0 -0.644531,-0.217747 -0.644531,-0.689531 0,-0.32662 0.199218,-0.495978 0.550781,-0.653239 0.1875,-0.09678 0.621094,-0.278232 0.808594,-0.387105 z m 1.886718,-5.4194698 c 0.890625,0.7379189 1.417969,2.1895627 1.417969,3.7379827 0,1.5484201 -0.503906,2.9879671 -1.417969,3.7500801 l 0.164063,0.205649 c 1.347656,-0.907277 1.898437,-2.334727 1.898437,-3.9557291 0,-1.6210022 -0.550781,-3.0484519 -1.898437,-3.9436322 z M 272.88598,13.705332 c -0.89062,-0.750016 -1.40625,-2.20166 -1.40625,-3.7500801 0,-1.54842 0.51563,-3.0000638 1.40625,-3.7379827 l -0.15234,-0.2056495 c -1.32422,0.8830833 -1.91016,2.32263 -1.91016,3.9315351 0,1.6330992 0.58594,3.0847432 1.91016,3.9678262 z m 1.79004,-4.9597833 V 5.9753286 c -0.33984,0.1209703 -0.89062,0.2661347 -1.3125,0.3145228 v 0.2056495 c 0.58594,0.060485 0.59766,0.1088733 0.59766,0.6653367 v 5.0081714 c 0.49218,0.229843 0.94922,0.326619 1.32422,0.326619 1.20703,0 2.26171,-0.931471 2.26171,-2.262144 0,-1.0645392 -0.80859,-1.8871373 -1.78125,-1.8871373 -0.0937,0 -0.22265,0.024194 -0.36328,0.084679 z m 0,0.2782318 c 0.16406,-0.096776 0.44531,-0.1693585 0.70313,-0.1693585 0.73828,0 1.37109,0.5927546 1.37109,1.621002 0,1.040345 -0.48047,1.681488 -1.21875,1.681488 -0.48047,-0.0121 -0.75,-0.32662 -0.80859,-0.508076 -0.0352,-0.08468 -0.0469,-0.169358 -0.0469,-0.302426 z m 3.60938,-2.8065113 c 0.89062,0.7379189 1.41796,2.1895627 1.41796,3.7379827 0,1.5484201 -0.5039,2.9879671 -1.41796,3.7500801 l 0.16406,0.205649 c 1.34765,-0.907277 1.89844,-2.334727 1.89844,-3.9557291 0,-1.6210022 -0.55079,-3.0484519 -1.89844,-3.9436322 z M 160.59985,176.01422 c -0.89063,-0.75001 -1.40625,-2.20166 -1.40625,-3.75008 0,-1.54842 0.51562,-3.00006 1.40625,-3.73798 l -0.15235,-0.20565 c -1.32421,0.88309 -1.91015,2.32263 -1.91015,3.93154 0,1.6331 0.58594,3.08474 1.91015,3.96782 z m 3.93457,-2.32263 c -0.41016,0.38711 -0.70313,0.49598 -1.08985,0.49598 -0.5039,0 -1.35937,-0.4113 -1.35937,-1.65729 0,-0.94357 0.51562,-1.43955 1.11328,-1.43955 0.31641,0 0.63281,0.10888 0.90234,0.36291 0.082,0.0726 0.11719,0.0968 0.16407,0.0968 0.10547,0 0.30468,-0.19355 0.30468,-0.38711 0,-0.0968 -0.0351,-0.18145 -0.15234,-0.27823 -0.14062,-0.10887 -0.43359,-0.22984 -0.79687,-0.22984 -0.35157,0 -0.89063,0.14516 -1.35938,0.50807 -0.59766,0.45969 -0.90234,1.06454 -0.90234,1.75407 0,0.96777 0.66797,1.88714 1.80468,1.88714 0.52735,0 1.13672,-0.3992 1.52344,-0.91937 z m 0.70312,-5.16543 c 0.89063,0.73792 1.41797,2.18956 1.41797,3.73798 0,1.54842 -0.5039,2.98797 -1.41797,3.75008 l 0.16407,0.20565 c 1.34765,-0.90727 1.89843,-2.33472 1.89843,-3.95573 0,-1.621 -0.55078,-3.04845 -1.89843,-3.94363 z M 72.691645,-5.7104036 c -1.347656,0 -1.839843,1.5968081 -1.839843,2.9153845 0,1.4153527 0.480468,2.90328753 1.839843,2.90328753 1.359375,0 1.828125,-1.60890513 1.828125,-2.91538453 0,-1.3911586 -0.46875,-2.9032875 -1.828125,-2.9032875 z m 0,0.2903287 c 0.808594,0 1.03125,1.3306735 1.03125,2.6129588 0,1.2580912 -0.222656,2.61295875 -1.03125,2.61295875 -0.773437,0 -1.042968,-1.36696455 -1.042968,-2.62505575 0,-1.2459943 0.222656,-2.6008618 1.042968,-2.6008618 z m 3.19336,5.52834333 c 0.28125,0 0.503906,-0.20564953 0.503906,-0.52017234 0,-0.29032875 -0.222656,-0.52017235 -0.503906,-0.52017235 -0.292969,0 -0.503907,0.2298436 -0.503907,0.52017235 0,0.31452281 0.210938,0.52017234 0.503907,0.52017234 z m 2.252929,-3.19361623 c 0.269532,-1.2580913 1.113282,-1.8145547 1.664063,-2.0806894 0.328125,-0.1572614 0.679687,-0.2661347 0.972656,-0.3145228 l -0.05859,-0.2903288 c -0.363281,0.060485 -0.796875,0.1572614 -1.148437,0.2903288 -0.960938,0.3508139 -2.332031,1.3669645 -2.332031,3.3387806 0,1.39115861 0.796875,2.25004783 1.851562,2.25004783 1.078125,0 1.839844,-0.90727734 1.839844,-1.98391313 0,-0.9193744 -0.65625,-1.6572933 -1.617188,-1.6572933 -0.175781,0 -0.363281,0.060485 -0.5625,0.1451644 z m 0.820313,0.048388 c 0.820312,0 1.195312,0.7379189 1.195312,1.4879348 0,0.59275458 -0.210937,1.35486755 -0.914062,1.35486755 -0.738281,0 -1.195313,-0.88308325 -1.195313,-1.97181605 0,-0.2298436 0.01172,-0.4475902 0.04687,-0.6169486 0.222657,-0.1209704 0.527344,-0.2540377 0.867188,-0.2540377 z m 28.998043,-2.6734439 c -1.34765,0 -1.83984,1.5968081 -1.83984,2.9153845 0,1.4153527 0.48047,2.90328753 1.83984,2.90328753 1.35938,0 1.82813,-1.60890513 1.82813,-2.91538453 0,-1.3911586 -0.46875,-2.9032875 -1.82813,-2.9032875 z m 0,0.2903287 c 0.8086,0 1.03125,1.3306735 1.03125,2.6129588 0,1.2580912 -0.22265,2.61295875 -1.03125,2.61295875 -0.77343,0 -1.04297,-1.36696455 -1.04297,-2.62505575 0,-1.2459943 0.22266,-2.6008618 1.04297,-2.6008618 z m 3.19629,5.52834333 c 0.28125,0 0.50391,-0.20564953 0.50391,-0.52017234 0,-0.29032875 -0.22266,-0.52017235 -0.50391,-0.52017235 -0.29297,0 -0.5039,0.2298436 -0.5039,0.52017235 0,0.31452281 0.21093,0.52017234 0.5039,0.52017234 z m 3.2461,-5.81867203 c -0.96094,0 -1.59375,0.7137248 -1.59375,1.4758378 0,0.6290456 0.38672,1.0524417 0.97265,1.3911586 -0.30468,0.1935525 -0.65625,0.4354931 -0.79687,0.5806575 -0.19922,0.1814555 -0.39844,0.4354931 -0.39844,0.8467922 0,0.96776249 0.76172,1.52422593 1.72266,1.52422593 0.76172,0 1.78125,-0.5806575 1.78125,-1.63309923 0,-0.77421 -0.5625,-1.2097031 -1.1836,-1.560517 0.39844,-0.2782317 0.64453,-0.4959783 0.70313,-0.5806575 0.17578,-0.1935525 0.26953,-0.4596872 0.26953,-0.7137249 0,-0.7379189 -0.62109,-1.3306734 -1.47656,-1.3306734 z m -0.082,0.2782317 c 0.41015,0 0.8789,0.3387169 0.8789,1.0887328 0,0.5443664 -0.24609,0.8830833 -0.55078,1.1250239 -0.63281,-0.3145228 -1.17187,-0.6169486 -1.17187,-1.2822853 0,-0.4596872 0.30468,-0.9314714 0.84375,-0.9314714 z m 0.082,5.25011158 c -0.57422,0 -1.10157,-0.45968719 -1.10157,-1.28228528 0,-0.4959783 0.30469,-0.9435685 0.73829,-1.2338972 0.6914,0.3508139 1.33593,0.7379189 1.33593,1.4153526 0,0.68953082 -0.42187,1.10082988 -0.97265,1.10082988 z m 30.12597,0.18145546844 V -0.24254548 c -0.82031,-0.0604852 -0.8789,-0.13306734 -0.8789,-0.78630702 v -4.6815511 c -0.49219,0.1935525 -1.01953,0.3629109 -1.59375,0.4596872 v 0.2056495 l 0.43359,0.024194 c 0.38672,0.012097 0.42188,0.060485 0.42188,0.5322694 v 3.4597509 c 0,0.65323968 -0.0352,0.72582187 -0.85547,0.78630702 V -6.0485156e-4 Z M 146.41723,0.10826843 c 0.28125,0 0.50391,-0.20564953 0.50391,-0.52017234 0,-0.29032875 -0.22266,-0.52017235 -0.50391,-0.52017235 -0.29297,0 -0.50391,0.2298436 -0.50391,0.52017235 0,0.31452281 0.21094,0.52017234 0.50391,0.52017234 z m 3.17871,-5.81867203 c -1.34765,0 -1.83984,1.5968081 -1.83984,2.9153845 0,1.4153527 0.48047,2.90328753 1.83984,2.90328753 1.35938,0 1.82813,-1.60890513 1.82813,-2.91538453 0,-1.3911586 -0.46875,-2.9032875 -1.82813,-2.9032875 z m 0,0.2903287 c 0.8086,0 1.03125,1.3306735 1.03125,2.6129588 0,1.2580912 -0.22265,2.61295875 -1.03125,2.61295875 -0.77344,0 -1.04297,-1.36696455 -1.04297,-2.62505575 0,-1.2459943 0.22266,-2.6008618 1.04297,-2.6008618 z m 72.5625,-0.2903287 c -1.34765,0 -1.83984,1.5968081 -1.83984,2.9153845 0,1.4153527 0.48047,2.90328753 1.83984,2.90328753 1.35938,0 1.82813,-1.60890513 1.82813,-2.91538453 0,-1.3911586 -0.46875,-2.9032875 -1.82813,-2.9032875 z m 0,0.2903287 c 0.8086,0 1.03125,1.3306735 1.03125,2.6129588 0,1.2580912 -0.22265,2.61295875 -1.03125,2.61295875 -0.77344,0 -1.04297,-1.36696455 -1.04297,-2.62505575 0,-1.2459943 0.22266,-2.6008618 1.04297,-2.6008618 z m 3.19336,5.52834333 c 0.28125,0 0.50391,-0.20564953 0.50391,-0.52017234 0,-0.29032875 -0.22266,-0.52017235 -0.50391,-0.52017235 -0.29297,0 -0.5039,0.2298436 -0.5039,0.52017235 0,0.31452281 0.21093,0.52017234 0.5039,0.52017234 z m 4.72559,-1.36696453 c -0.26953,0.56856047 -0.38672,0.60485156 -0.86719,0.60485156 h -1.6875 l 1.27734,-1.34277046 c 0.83203,-0.8830833 1.19532,-1.4153527 1.19532,-2.2016597 0,-0.9435684 -0.72657,-1.5121289 -1.51172,-1.5121289 -0.52735,0 -0.94922,0.2298436 -1.21875,0.5201723 l -0.51563,0.7379189 0.19922,0.1814555 c 0.23438,-0.3508139 0.60938,-0.8467922 1.23047,-0.8467922 0.65625,0 1.05469,0.4475902 1.05469,1.1976061 0,0.77421 -0.5625,1.5121289 -1.125,2.1774656 -0.44532,0.5322694 -0.94922,1.04034474 -1.45313,1.53632302 v 0.20564952844 h 3.36328 C 230.12426,-0.39980688 230.21801,-0.79900891 230.3352,-1.1740169 Z m 27.3457,-4.4517075 c -1.34766,0 -1.83984,1.5968081 -1.83984,2.9153845 0,1.4153527 0.48047,2.90328753 1.83984,2.90328753 1.35938,0 1.82813,-1.60890513 1.82813,-2.91538453 0,-1.3911586 -0.46875,-2.9032875 -1.82813,-2.9032875 z m 0,0.2903287 c 0.80859,0 1.03125,1.3306735 1.03125,2.6129588 0,1.2580912 -0.22266,2.61295875 -1.03125,2.61295875 -0.77344,0 -1.04297,-1.36696455 -1.04297,-2.62505575 0,-1.2459943 0.22266,-2.6008618 1.04297,-2.6008618 z m 3.19629,5.52834333 c 0.28125,0 0.50391,-0.20564953 0.50391,-0.52017234 0,-0.29032875 -0.22266,-0.52017235 -0.50391,-0.52017235 -0.29297,0 -0.50391,0.2298436 -0.50391,0.52017235 0,0.31452281 0.21094,0.52017234 0.50391,0.52017234 z m 5.12109,-1.70568143 v -0.4233961 h -0.86718 v -3.6654004 h -0.35157 c -0.92578,1.2218001 -1.85156,2.5524736 -2.70703,3.8347589 v 0.2540376 h 2.34375 v 0.64114268 c 0,0.59275453 -0.0351,0.65323969 -0.82031,0.71372484 v 0.24194062844 h 2.30859 V -0.24254548 c -0.72656,-0.0604852 -0.77343,-0.10887328 -0.77343,-0.71372484 V -1.597413 Z m -1.58203,-0.4233961 h -1.76953 c 0.58594,-1.0040536 1.17188,-1.8629428 1.75781,-2.6613468 h 0.0117 z m 28.53223,-3.6895945 c -1.34766,0 -1.83985,1.5968081 -1.83985,2.9153845 0,1.4153527 0.48047,2.90328753 1.83985,2.90328753 1.35937,0 1.82812,-1.60890513 1.82812,-2.91538453 0,-1.3911586 -0.46875,-2.9032875 -1.82812,-2.9032875 z m 0,0.2903287 c 0.80859,0 1.03125,1.3306735 1.03125,2.6129588 0,1.2580912 -0.22266,2.61295875 -1.03125,2.61295875 -0.77344,0 -1.04297,-1.36696455 -1.04297,-2.62505575 0,-1.2459943 0.22266,-2.6008618 1.04297,-2.6008618 z m 3.19336,5.52834333 c 0.28125,0 0.5039,-0.20564953 0.5039,-0.52017234 0,-0.29032875 -0.22265,-0.52017235 -0.5039,-0.52017235 -0.29297,0 -0.50391,0.2298436 -0.50391,0.52017235 0,0.31452281 0.21094,0.52017234 0.50391,0.52017234 z m 2.25293,-3.19361623 c 0.26953,-1.2580913 1.11328,-1.8145547 1.66406,-2.0806894 0.32813,-0.1572614 0.67969,-0.2661347 0.97266,-0.3145228 l -0.0586,-0.2903288 c -0.36328,0.060485 -0.79687,0.1572614 -1.14843,0.2903288 -0.96094,0.3508139 -2.33204,1.3669645 -2.33204,3.3387806 0,1.39115861 0.79688,2.25004783 1.85157,2.25004783 1.07812,0 1.83984,-0.90727734 1.83984,-1.98391313 0,-0.9193744 -0.65625,-1.6572933 -1.61719,-1.6572933 -0.17578,0 -0.36328,0.060485 -0.5625,0.1451644 z m 0.82031,0.048388 c 0.82031,0 1.19531,0.7379189 1.19531,1.4879348 0,0.59275458 -0.21093,1.35486755 -0.91406,1.35486755 -0.73828,0 -1.19531,-0.88308325 -1.19531,-1.97181605 0,-0.2298436 0.0117,-0.4475902 0.0469,-0.6169486 0.22266,-0.1209704 0.52735,-0.2540377 0.86719,-0.2540377 z m 28.99805,-2.6734439 c -1.34766,0 -1.83985,1.5968081 -1.83985,2.9153845 0,1.4153527 0.48047,2.90328753 1.83985,2.90328753 1.35937,0 1.82812,-1.60890513 1.82812,-2.91538453 0,-1.3911586 -0.46875,-2.9032875 -1.82812,-2.9032875 z m 0,0.2903287 c 0.80859,0 1.03125,1.3306735 1.03125,2.6129588 0,1.2580912 -0.22266,2.61295875 -1.03125,2.61295875 -0.77344,0 -1.04297,-1.36696455 -1.04297,-2.62505575 0,-1.2459943 0.22265,-2.6008618 1.04297,-2.6008618 z m 3.19629,5.52834333 c 0.28125,0 0.5039,-0.20564953 0.5039,-0.52017234 0,-0.29032875 -0.22265,-0.52017235 -0.5039,-0.52017235 -0.29297,0 -0.50391,0.2298436 -0.50391,0.52017235 0,0.31452281 0.21094,0.52017234 0.50391,0.52017234 z m 3.24609,-5.81867203 c -0.96094,0 -1.59375,0.7137248 -1.59375,1.4758378 0,0.6290456 0.38672,1.0524417 0.97266,1.3911586 -0.30469,0.1935525 -0.65625,0.4354931 -0.79688,0.5806575 -0.19922,0.1814555 -0.39844,0.4354931 -0.39844,0.8467922 0,0.96776249 0.76172,1.52422593 1.72266,1.52422593 0.76172,0 1.78125,-0.5806575 1.78125,-1.63309923 0,-0.77421 -0.5625,-1.2097031 -1.18359,-1.560517 0.39843,-0.2782317 0.64453,-0.4959783 0.70312,-0.5806575 0.17578,-0.1935525 0.26953,-0.4596872 0.26953,-0.7137249 0,-0.7379189 -0.62109,-1.3306734 -1.47656,-1.3306734 z m -0.082,0.2782317 c 0.41015,0 0.8789,0.3387169 0.8789,1.0887328 0,0.5443664 -0.24609,0.8830833 -0.55078,1.1250239 -0.63281,-0.3145228 -1.17187,-0.6169486 -1.17187,-1.2822853 0,-0.4596872 0.30469,-0.9314714 0.84375,-0.9314714 z m 0.082,5.25011158 c -0.57422,0 -1.10156,-0.45968719 -1.10156,-1.28228528 0,-0.4959783 0.30468,-0.9435685 0.73828,-1.2338972 0.6914,0.3508139 1.33594,0.7379189 1.33594,1.4153526 0,0.68953082 -0.42188,1.10082988 -0.97266,1.10082988 z m 30.12598,0.18145546844 V -0.24254548 c -0.82032,-0.0604852 -0.87891,-0.13306734 -0.87891,-0.78630702 v -4.6815511 c -0.49219,0.1935525 -1.01953,0.3629109 -1.59375,0.4596872 v 0.2056495 l 0.43359,0.024194 c 0.38672,0.012097 0.42188,0.060485 0.42188,0.5322694 v 3.4597509 c 0,0.65323968 -0.0352,0.72582187 -0.85547,0.78630702 v 0.24194062844 z m 1.8955,0.10887328156 c 0.28125,0 0.50391,-0.20564953 0.50391,-0.52017234 0,-0.29032875 -0.22266,-0.52017235 -0.50391,-0.52017235 -0.29296,0 -0.5039,0.2298436 -0.5039,0.52017235 0,0.31452281 0.21094,0.52017234 0.5039,0.52017234 z m 3.17579,-5.81867203 c -1.34766,0 -1.83985,1.5968081 -1.83985,2.9153845 0,1.4153527 0.48047,2.90328753 1.83985,2.90328753 1.35937,0 1.82812,-1.60890513 1.82812,-2.91538453 0,-1.3911586 -0.46875,-2.9032875 -1.82812,-2.9032875 z m 0,0.2903287 c 0.80859,0 1.03125,1.3306735 1.03125,2.6129588 0,1.2580912 -0.22266,2.61295875 -1.03125,2.61295875 -0.77344,0 -1.04297,-1.36696455 -1.04297,-2.62505575 0,-1.2459943 0.22265,-2.6008618 1.04297,-2.6008618 z M 110.36157,156.59849 c -1.34766,0 -1.83985,1.59681 -1.83985,2.91538 0,1.41536 0.48047,2.90329 1.83985,2.90329 1.35937,0 1.82812,-1.6089 1.82812,-2.91538 0,-1.39116 -0.46875,-2.90329 -1.82812,-2.90329 z m 0,0.29033 c 0.80859,0 1.03125,1.33067 1.03125,2.61296 0,1.25809 -0.22266,2.61296 -1.03125,2.61296 -0.77344,0 -1.04297,-1.36697 -1.04297,-2.62506 0,-1.24599 0.22265,-2.60086 1.04297,-2.60086 z m 3.19336,5.52834 c 0.28125,0 0.5039,-0.20565 0.5039,-0.52017 0,-0.29033 -0.22265,-0.52017 -0.5039,-0.52017 -0.29297,0 -0.50391,0.22984 -0.50391,0.52017 0,0.31452 0.21094,0.52017 0.50391,0.52017 z m 4.72558,-1.36696 c -0.26953,0.56856 -0.38672,0.60485 -0.86719,0.60485 h -1.6875 l 1.27735,-1.34277 c 0.83203,-0.88309 1.19531,-1.41536 1.19531,-2.20166 0,-0.94357 -0.72656,-1.51213 -1.51172,-1.51213 -0.52734,0 -0.94922,0.22984 -1.21875,0.52017 l -0.51562,0.73792 0.19922,0.18146 c 0.23437,-0.35082 0.60937,-0.8468 1.23046,-0.8468 0.65625,0 1.05469,0.44759 1.05469,1.19761 0,0.77421 -0.5625,1.51213 -1.125,2.17747 -0.44531,0.53226 -0.94922,1.04034 -1.45312,1.53632 v 0.20565 h 3.36328 c 0.10547,-0.3992 0.19922,-0.79841 0.3164,-1.17341 z m 27.34571,-4.45171 c -1.34766,0 -1.83985,1.59681 -1.83985,2.91538 0,1.41536 0.48047,2.90329 1.83985,2.90329 1.35937,0 1.82812,-1.6089 1.82812,-2.91538 0,-1.39116 -0.46875,-2.90329 -1.82812,-2.90329 z m 0,0.29033 c 0.80859,0 1.03125,1.33067 1.03125,2.61296 0,1.25809 -0.22266,2.61296 -1.03125,2.61296 -0.77344,0 -1.04297,-1.36697 -1.04297,-2.62506 0,-1.24599 0.22265,-2.60086 1.04297,-2.60086 z m 3.19628,5.52834 c 0.28125,0 0.50391,-0.20565 0.50391,-0.52017 0,-0.29033 -0.22266,-0.52017 -0.50391,-0.52017 -0.29296,0 -0.5039,0.22984 -0.5039,0.52017 0,0.31452 0.21094,0.52017 0.5039,0.52017 z m 5.1211,-1.70568 v -0.4234 h -0.86719 v -3.6654 h -0.35156 c -0.92578,1.2218 -1.85156,2.55248 -2.70703,3.83476 v 0.25404 h 2.34375 v 0.64114 c 0,0.59276 -0.0352,0.65324 -0.82032,0.71373 v 0.24194 h 2.3086 v -0.24194 c -0.72656,-0.0605 -0.77344,-0.10888 -0.77344,-0.71373 v -0.64114 z m -1.58203,-0.4234 h -1.76953 c 0.58593,-1.00405 1.17187,-1.86294 1.75781,-2.66134 h 0.0117 z m 28.53222,-3.68959 c -1.34765,0 -1.83984,1.59681 -1.83984,2.91538 0,1.41536 0.48047,2.90329 1.83984,2.90329 1.35938,0 1.82813,-1.6089 1.82813,-2.91538 0,-1.39116 -0.46875,-2.90329 -1.82813,-2.90329 z m 0,0.29033 c 0.8086,0 1.03125,1.33067 1.03125,2.61296 0,1.25809 -0.22265,2.61296 -1.03125,2.61296 -0.77343,0 -1.04297,-1.36697 -1.04297,-2.62506 0,-1.24599 0.22266,-2.60086 1.04297,-2.60086 z m 3.19336,5.52834 c 0.28125,0 0.50391,-0.20565 0.50391,-0.52017 0,-0.29033 -0.22266,-0.52017 -0.50391,-0.52017 -0.29297,0 -0.5039,0.22984 -0.5039,0.52017 0,0.31452 0.21093,0.52017 0.5039,0.52017 z m 2.25293,-3.19362 c 0.26953,-1.25809 1.11328,-1.81455 1.66407,-2.08068 0.32812,-0.15727 0.67968,-0.26614 0.97265,-0.31453 l -0.0586,-0.29033 c -0.36328,0.0605 -0.79688,0.15727 -1.14844,0.29033 -0.96094,0.35082 -2.33203,1.36697 -2.33203,3.33878 0,1.39116 0.79687,2.25005 1.85156,2.25005 1.07813,0 1.83985,-0.90728 1.83985,-1.98391 0,-0.91938 -0.65625,-1.6573 -1.61719,-1.6573 -0.17578,0 -0.36328,0.0605 -0.5625,0.14517 z m 0.82032,0.0484 c 0.82031,0 1.19531,0.73792 1.19531,1.48794 0,0.59275 -0.21094,1.35487 -0.91406,1.35487 -0.73829,0 -1.19532,-0.88309 -1.19532,-1.97182 0,-0.22984 0.0117,-0.44759 0.0469,-0.61695 0.22265,-0.12097 0.52734,-0.25404 0.86719,-0.25404 z m 28.99804,-2.67344 c -1.34765,0 -1.83984,1.59681 -1.83984,2.91538 0,1.41536 0.48047,2.90329 1.83984,2.90329 1.35938,0 1.82813,-1.6089 1.82813,-2.91538 0,-1.39116 -0.46875,-2.90329 -1.82813,-2.90329 z m 0,0.29033 c 0.8086,0 1.03125,1.33067 1.03125,2.61296 0,1.25809 -0.22265,2.61296 -1.03125,2.61296 -0.77344,0 -1.04297,-1.36697 -1.04297,-2.62506 0,-1.24599 0.22266,-2.60086 1.04297,-2.60086 z m 3.19629,5.52834 c 0.28125,0 0.50391,-0.20565 0.50391,-0.52017 0,-0.29033 -0.22266,-0.52017 -0.50391,-0.52017 -0.29297,0 -0.50391,0.22984 -0.50391,0.52017 0,0.31452 0.21094,0.52017 0.50391,0.52017 z m 3.24609,-5.81867 c -0.96093,0 -1.59375,0.71372 -1.59375,1.47584 0,0.62904 0.38672,1.05244 0.97266,1.39116 -0.30469,0.19355 -0.65625,0.43549 -0.79687,0.58065 -0.19922,0.18146 -0.39844,0.4355 -0.39844,0.8468 0,0.96776 0.76172,1.52422 1.72265,1.52422 0.76172,0 1.78125,-0.58066 1.78125,-1.6331 0,-0.77421 -0.5625,-1.2097 -1.18359,-1.56052 0.39844,-0.27823 0.64453,-0.49597 0.70313,-0.58065 0.17578,-0.19356 0.26953,-0.45969 0.26953,-0.71373 0,-0.73792 -0.6211,-1.33067 -1.47657,-1.33067 z m -0.082,0.27823 c 0.41016,0 0.87891,0.33872 0.87891,1.08873 0,0.54437 -0.24609,0.88309 -0.55078,1.12503 -0.63281,-0.31453 -1.17188,-0.61695 -1.17188,-1.28229 0,-0.45969 0.30469,-0.93147 0.84375,-0.93147 z m 0.082,5.25011 c -0.57421,0 -1.10156,-0.45968 -1.10156,-1.28228 0,-0.49598 0.30469,-0.94357 0.73828,-1.2339 0.69141,0.35081 1.33594,0.73792 1.33594,1.41535 0,0.68953 -0.42187,1.10083 -0.97266,1.10083 z m 30.12598,0.18146 v -0.24194 c -0.82031,-0.0605 -0.8789,-0.13307 -0.8789,-0.78631 v -4.68155 c -0.49219,0.19355 -1.01954,0.36291 -1.59375,0.45969 v 0.20565 l 0.43359,0.0242 c 0.38672,0.0121 0.42187,0.0605 0.42187,0.53227 v 3.45975 c 0,0.65324 -0.0352,0.72582 -0.85546,0.78631 v 0.24194 z m 1.89551,0.10887 c 0.28125,0 0.50391,-0.20565 0.50391,-0.52017 0,-0.29033 -0.22266,-0.52017 -0.50391,-0.52017 -0.29297,0 -0.50391,0.22984 -0.50391,0.52017 0,0.31452 0.21094,0.52017 0.50391,0.52017 z m 3.17578,-5.81867 c -1.34766,0 -1.83984,1.59681 -1.83984,2.91538 0,1.41536 0.48047,2.90329 1.83984,2.90329 1.35938,0 1.82813,-1.6089 1.82813,-2.91538 0,-1.39116 -0.46875,-2.90329 -1.82813,-2.90329 z m 0,0.29033 c 0.80859,0 1.03125,1.33067 1.03125,2.61296 0,1.25809 -0.22266,2.61296 -1.03125,2.61296 -0.77344,0 -1.04297,-1.36697 -1.04297,-2.62506 0,-1.24599 0.22266,-2.60086 1.04297,-2.60086 z m 0,0"
         style="fill:#231f20;fill-opacity:1;fill-rule:nonzero;stroke:none"
         aria-label="0.20.4&#10;(a)(b)&#10;(c)&#10;0.60.81.00.20.40.60.81.0&#10;0.20.40.60.81.0"
         transform="matrix(1.3333333,0,0,1.2916392,60.1364,159.2)" />
      <path
         id="path54"
         d="m 2.2276016,-5.7179297 c -0.9609375,0 -1.59375004,0.7265625 -1.59375004,1.4765625 0,0.6328125 0.38671874,1.0664063 0.97265624,1.3945313 -0.3046875,0.1992187 -0.65624999,0.4453125 -0.79687499,0.5742187 -0.19921875,0.1992188 -0.3984375,0.4453125 -0.3984375,0.8554688 0,0.97265621 0.76171879,1.52343746 1.72265629,1.52343746 0.7617187,0 1.78125,-0.57421875 1.78125,-1.62890626 0,-0.7851562 -0.5625,-1.2070312 -1.1835938,-1.5585937 0.3984375,-0.28125 0.6445313,-0.5039063 0.703125,-0.5859375 0.1757813,-0.1875 0.2695313,-0.4570313 0.2695313,-0.7148438 0,-0.7265625 -0.6210938,-1.3359375 -1.4765625,-1.3359375 z m -0.082031,0.2929688 c 0.4101563,0 0.8789063,0.328125 0.8789063,1.0898437 0,0.5390625 -0.2460938,0.8671875 -0.5507813,1.1132813 -0.6328125,-0.3164063 -1.171875,-0.609375 -1.171875,-1.2773438 0,-0.4570312 0.3046875,-0.9257812 0.84375,-0.9257812 z m 0.082031,5.24999996 c -0.5742188,0 -1.1015625,-0.46875 -1.1015625,-1.28906246 0,-0.4921875 0.3046875,-0.9492188 0.7382812,-1.2304688 0.6914063,0.3515625 1.3359375,0.7382813 1.3359375,1.40625 0,0.69140626 -0.421875,1.11328126 -0.9726562,1.11328126 z M 1.2315078,19.667812 c 0.2695313,-1.253906 1.1132813,-1.828125 1.6640625,-2.085937 0.328125,-0.152344 0.6796875,-0.257813 0.9726563,-0.316406 l -0.058594,-0.28125 c -0.3632812,0.05859 -0.796875,0.164062 -1.1484375,0.28125 -0.9609375,0.351562 -2.33203124,1.371093 -2.33203124,3.339843 0,1.382813 0.79687504,2.25 1.85156254,2.25 1.078125,0 1.8398437,-0.902343 1.8398437,-1.980468 0,-0.925782 -0.65625,-1.664063 -1.6171875,-1.664063 -0.1757812,0 -0.3632812,0.07031 -0.5625,0.152344 z m 0.8203125,0.04687 c 0.8203125,0 1.1953125,0.738282 1.1953125,1.488282 0,0.597656 -0.2109375,1.347656 -0.9140625,1.347656 -0.7382812,0 -1.1953125,-0.878906 -1.1953125,-1.957031 0,-0.234375 0.011719,-0.457032 0.046875,-0.621094 0.2226563,-0.117188 0.5273438,-0.257813 0.8671875,-0.257813 z M 4.1026016,43.893398 V 43.471523 H 3.2354141 v -3.65625 H 2.8838516 c -0.9257813,1.21875 -1.8515625,2.554688 -2.70703129,3.832032 v 0.246093 H 2.5205703 v 0.65625 c 0,0.585938 -0.035156,0.644532 -0.8203125,0.703125 v 0.246094 H 4.0088516 V 45.252773 C 3.2822891,45.19418 3.2354141,45.147305 3.2354141,44.549648 v -0.65625 z M 2.5205703,43.471523 H 0.75103906 C 1.3369766,42.47543 1.9229141,41.619961 2.5088516,40.823086 h 0.011719 z M 3.7041641,66.985195 C 3.4346328,67.559414 3.3174453,67.59457 2.8369766,67.59457 h -1.6875 l 1.2773437,-1.335937 c 0.8320313,-0.890625 1.1953125,-1.417969 1.1953125,-2.203125 0,-0.949219 -0.7265625,-1.523438 -1.5117187,-1.523438 -0.5273438,0 -0.9492188,0.234375 -1.21875004,0.539063 l -0.515625,0.726562 0.19921875,0.175782 c 0.234375,-0.351563 0.60937499,-0.832032 1.23046879,-0.832032 0.65625,0 1.0546875,0.433594 1.0546875,1.195313 0,0.773437 -0.5625,1.511719 -1.125,2.179687 -0.4453125,0.515625 -0.94921879,1.03125 -1.45312504,1.523438 V 68.25082 H 3.6455703 C 3.7510391,67.840664 3.8447891,67.453945 3.9619766,67.067227 Z M -113.58295,145.66488 v -0.24609 c -0.82031,-0.0586 -0.8789,-0.12891 -0.8789,-0.78516 v -4.6875 c -0.49219,0.19922 -1.01953,0.375 -1.59375,0.46875 v 0.21094 l 0.43359,0.0117 c 0.38672,0.0234 0.42188,0.0703 0.42188,0.53906 v 3.45703 c 0,0.65625 -0.0352,0.72657 -0.85547,0.78516 v 0.24609 z m 1.89551,0.10547 c 0.28125,0 0.50391,-0.19922 0.50391,-0.51562 0,-0.29297 -0.22266,-0.51563 -0.50391,-0.51563 -0.29297,0 -0.5039,0.22266 -0.5039,0.51563 0,0.3164 0.21093,0.51562 0.5039,0.51562 z m 3.17578,-5.82422 c -1.34765,0 -1.83984,1.60547 -1.83984,2.91797 0,1.41797 0.48047,2.90625 1.83984,2.90625 1.35938,0 1.82813,-1.59375 1.82813,-2.91797 0,-1.38281 -0.46875,-2.90625 -1.82813,-2.90625 z m 0,0.30469 c 0.8086,0 1.03125,1.32422 1.03125,2.60156 0,1.26563 -0.22265,2.61328 -1.03125,2.61328 -0.77343,0 -1.04296,-1.35937 -1.04296,-2.61328 0,-1.2539 0.22265,-2.60156 1.04296,-2.60156 z m -6.37207,20.15625 c -1.34765,0 -1.83984,1.60547 -1.83984,2.91797 0,1.41797 0.48047,2.90625 1.83984,2.90625 1.35938,0 1.82813,-1.59375 1.82813,-2.91797 0,-1.38281 -0.46875,-2.90625 -1.82813,-2.90625 z m 0,0.30469 c 0.8086,0 1.03125,1.32422 1.03125,2.60156 0,1.26563 -0.22265,2.61328 -1.03125,2.61328 -0.77343,0 -1.04297,-1.35937 -1.04297,-2.61328 0,-1.25391 0.22266,-2.60156 1.04297,-2.60156 z m 3.19629,5.51953 c 0.28125,0 0.50391,-0.19922 0.50391,-0.51563 0,-0.29296 -0.22266,-0.51562 -0.50391,-0.51562 -0.29297,0 -0.5039,0.22266 -0.5039,0.51562 0,0.31641 0.21093,0.51563 0.5039,0.51563 z m 3.2461,-5.82422 c -0.96094,0 -1.59375,0.72656 -1.59375,1.47656 0,0.63282 0.38672,1.06641 0.97265,1.39453 -0.30468,0.19922 -0.65625,0.44532 -0.79687,0.57422 -0.19922,0.19922 -0.39844,0.44532 -0.39844,0.85547 0,0.97266 0.76172,1.52344 1.72266,1.52344 0.76172,0 1.78125,-0.57422 1.78125,-1.62891 0,-0.78515 -0.5625,-1.20703 -1.1836,-1.55859 0.39844,-0.28125 0.64453,-0.50391 0.70313,-0.58594 0.17578,-0.1875 0.26953,-0.45703 0.26953,-0.71484 0,-0.72656 -0.62109,-1.33594 -1.47656,-1.33594 z m -0.082,0.29297 c 0.41015,0 0.8789,0.32812 0.8789,1.08984 0,0.53907 -0.24609,0.86719 -0.55078,1.11328 -0.63281,-0.3164 -1.17187,-0.60937 -1.17187,-1.27734 0,-0.45703 0.30468,-0.92578 0.84375,-0.92578 z m 0.082,5.25 c -0.57422,0 -1.10157,-0.46875 -1.10157,-1.28906 0,-0.49219 0.30469,-0.94922 0.73829,-1.23047 0.6914,0.35156 1.33593,0.73828 1.33593,1.40625 0,0.6914 -0.42187,1.11328 -0.97265,1.11328 z m -6.44239,14.91797 c -1.34765,0 -1.83984,1.60547 -1.83984,2.91797 0,1.41797 0.48047,2.90625 1.83984,2.90625 1.35938,0 1.82813,-1.59375 1.82813,-2.91797 0,-1.38281 -0.46875,-2.90625 -1.82813,-2.90625 z m 0,0.30469 c 0.8086,0 1.03125,1.32421 1.03125,2.60156 0,1.26562 -0.22265,2.61328 -1.03125,2.61328 -0.77343,0 -1.04297,-1.35938 -1.04297,-2.61328 0,-1.25391 0.22266,-2.60156 1.04297,-2.60156 z m 3.19629,5.51953 c 0.28125,0 0.50391,-0.19922 0.50391,-0.51563 0,-0.29297 -0.22266,-0.51562 -0.50391,-0.51562 -0.29297,0 -0.5039,0.22265 -0.5039,0.51562 0,0.31641 0.21093,0.51563 0.5039,0.51563 z m 2.25,-3.1875 c 0.26953,-1.25391 1.11328,-1.82813 1.66407,-2.08594 0.32812,-0.15234 0.67968,-0.25781 0.97265,-0.31641 l -0.0586,-0.28125 c -0.36328,0.0586 -0.79688,0.16407 -1.14844,0.28125 -0.96094,0.35157 -2.33203,1.3711 -2.33203,3.33985 0,1.38281 0.79687,2.25 1.85156,2.25 1.07813,0 1.83985,-0.90235 1.83985,-1.98047 0,-0.92578 -0.65625,-1.66406 -1.61719,-1.66406 -0.17578,0 -0.36328,0.0703 -0.5625,0.15234 z m 0.82032,0.0469 c 0.82031,0 1.19531,0.73828 1.19531,1.48828 0,0.59766 -0.21094,1.34766 -0.91406,1.34766 -0.73829,0 -1.19532,-0.87891 -1.19532,-1.95703 0,-0.23438 0.0117,-0.45703 0.0469,-0.6211 0.22265,-0.11718 0.52734,-0.25781 0.86719,-0.25781 z m -6.26661,17.77735 c -1.34765,0 -1.83984,1.60546 -1.83984,2.91796 0,1.41797 0.48047,2.90625 1.83984,2.90625 1.35938,0 1.82813,-1.59375 1.82813,-2.91796 0,-1.38282 -0.46875,-2.90625 -1.82813,-2.90625 z m 0,0.30468 c 0.8086,0 1.03125,1.32422 1.03125,2.60157 0,1.26562 -0.22265,2.61328 -1.03125,2.61328 -0.77343,0 -1.04297,-1.35938 -1.04297,-2.61328 0,-1.25391 0.22266,-2.60157 1.04297,-2.60157 z m 3.19629,5.51953 c 0.28125,0 0.50391,-0.19921 0.50391,-0.51562 0,-0.29297 -0.22266,-0.51563 -0.50391,-0.51563 -0.29297,0 -0.5039,0.22266 -0.5039,0.51563 0,0.31641 0.21093,0.51562 0.5039,0.51562 z m 5.1211,-1.71093 v -0.42188 h -0.86719 v -3.65625 h -0.35156 c -0.92578,1.21875 -1.85157,2.55469 -2.70703,3.83203 v 0.2461 h 2.34375 v 0.65625 c 0,0.58593 -0.0352,0.64453 -0.82032,0.70312 v 0.2461 h 2.3086 v -0.2461 c -0.72657,-0.0586 -0.77344,-0.10547 -0.77344,-0.70312 v -0.65625 z m -1.58203,-0.42188 h -1.76954 c 0.58594,-0.99609 1.17188,-1.85156 1.75782,-2.64844 h 0.0117 z m -6.73536,16.7666 c -1.34765,0 -1.83984,1.60547 -1.83984,2.91797 0,1.41797 0.48047,2.90625 1.83984,2.90625 1.35938,0 1.82813,-1.59375 1.82813,-2.91797 0,-1.38281 -0.46875,-2.90625 -1.82813,-2.90625 z m 0,0.30469 c 0.8086,0 1.03125,1.32422 1.03125,2.60156 0,1.26563 -0.22265,2.61328 -1.03125,2.61328 -0.77343,0 -1.04297,-1.35937 -1.04297,-2.61328 0,-1.2539 0.22266,-2.60156 1.04297,-2.60156 z m 3.19629,5.51953 c 0.28125,0 0.50391,-0.19922 0.50391,-0.51562 0,-0.29297 -0.22266,-0.51563 -0.50391,-0.51563 -0.29297,0 -0.5039,0.22266 -0.5039,0.51563 0,0.3164 0.21093,0.51562 0.5039,0.51562 z m 4.72266,-1.37109 c -0.26953,0.57422 -0.38672,0.60937 -0.86719,0.60937 h -1.6875 l 1.27735,-1.33593 c 0.83203,-0.89063 1.19531,-1.41797 1.19531,-2.20313 0,-0.94922 -0.72656,-1.52344 -1.51172,-1.52344 -0.52734,0 -0.94922,0.23438 -1.21875,0.53907 l -0.51563,0.72656 0.19922,0.17578 c 0.23438,-0.35156 0.60938,-0.83203 1.23047,-0.83203 0.65625,0 1.05469,0.43359 1.05469,1.19531 0,0.77344 -0.5625,1.51172 -1.125,2.17969 -0.44531,0.51562 -0.94922,1.03125 -1.45313,1.52344 v 0.21093 h 3.36329 c 0.10546,-0.41015 0.19921,-0.79687 0.3164,-1.18359 z m 0,0"
         style="fill:#231f20;fill-opacity:1;fill-rule:nonzero;stroke:none"
         aria-label="8&#10;6&#10;4&#10;2&#10;1.0&#10;0.8&#10;0.6&#10;0.4&#10;0.2"
         transform="matrix(1.3333333,0,0,1.3333333,301.38533,26.62)" />
    </g>
  </g>
</svg>
