<?xml version="1.0" encoding="UTF-8"?>
<svg xmlns="http://www.w3.org/2000/svg" xmlns:xlink="http://www.w3.org/1999/xlink" width="360pt" height="223pt" viewBox="0 0 360 223" version="1.1">
<defs>
<clipPath id="clip1">
  <path d="M 0 22 L 359 22 L 359 222 L 0 222 Z M 0 22 "/>
</clipPath>
<clipPath id="clip2">
  <path d="M 0 44 L 359 44 L 359 193 L 0 193 Z M 0 44 "/>
</clipPath>
<clipPath id="clip3">
  <path d="M 176 219 L 182 219 L 182 222 L 176 222 Z M 176 219 "/>
</clipPath>
<clipPath id="clip4">
  <path d="M 355 123 L 359 123 L 359 129 L 355 129 Z M 355 123 "/>
</clipPath>
</defs>
<g id="surface40">
<g clip-path="url(#clip1)" clip-rule="nonzero">
<path style="fill:none;stroke-width:1.6;stroke-linecap:square;stroke-linejoin:miter;stroke:rgb(36.84082%,50.67749%,70.979309%);stroke-opacity:1;stroke-dasharray:4,4;stroke-miterlimit:3.25;" d="M 74.5 87.253906 L 74.9375 87.035156 L 75.378906 86.816406 L 76.257812 86.382812 L 78.011719 85.515625 L 81.527344 83.777344 L 89.144531 80.011719 L 96.257812 76.492188 L 103.230469 73.046875 L 110.796875 69.304688 L 117.855469 65.816406 L 125.507812 62.03125 L 133.019531 58.316406 L 140.027344 54.855469 L 147.625 51.097656 L 154.71875 47.589844 L 154.824219 47.535156 L 154.933594 47.484375 L 155.152344 47.375 L 155.585938 47.160156 L 156.457031 46.730469 L 158.195312 45.871094 L 158.300781 45.816406 L 158.410156 45.765625 L 158.628906 45.65625 L 159.0625 45.441406 L 159.933594 45.011719 L 161.671875 44.152344 L 162.140625 43.917969 L 162.613281 43.6875 L 162.847656 43.570312 L 163.085938 43.453125 L 163.554688 43.21875 L 163.675781 43.160156 L 163.792969 43.101562 L 163.910156 43.046875 L 164.027344 43.0625 L 164.144531 43.3125 L 164.265625 43.566406 L 164.5 44.070312 L 164.734375 44.578125 L 164.972656 45.082031 L 165.441406 46.09375 L 165.5625 46.34375 L 165.679688 46.597656 L 165.914062 47.101562 L 166.386719 48.113281 L 167.328125 50.132812 L 169.433594 54.644531 L 169.65625 55.117188 L 170.09375 56.058594 L 170.976562 57.945312 L 172.734375 61.714844 L 176.253906 69.257812 L 183.886719 85.605469 L 191.375 101.65625 L 198.363281 116.625 L 205.941406 132.859375 L 213.011719 148.011719 L 220.675781 164.429688 L 228.199219 180.550781 L 235.21875 195.589844 L 242.832031 211.894531 L 243.050781 212.371094 L 243.71875 213.800781 L 244.605469 215.703125 L 246.382812 219.507812 L 246.492188 219.746094 L 246.605469 219.984375 L 246.828125 220.460938 L 247.269531 221.410156 L 248.160156 223.3125 L 249.9375 227.121094 L 250.042969 227.351562 L 250.152344 227.585938 L 250.371094 228.050781 L 250.804688 228.984375 L 251.675781 230.851562 L 251.785156 231.085938 L 251.894531 231.316406 L 252.113281 231.785156 L 252.546875 232.714844 L 252.765625 233.183594 L 252.984375 233.648438 L 253.09375 233.882812 L 253.199219 234.117188 L 253.308594 234.347656 L 253.417969 234.582031 L 253.527344 234.734375 L 253.964844 234.375 L 254.070312 234.285156 L 254.726562 233.746094 L 255.160156 233.386719 L 255.378906 233.207031 L 255.59375 233.03125 L 256.03125 232.671875 L 256.902344 231.953125 L 257.136719 231.757812 L 257.375 231.5625 L 257.847656 231.175781 L 258.789062 230.394531 L 260.679688 228.839844 L 264.457031 225.726562 L 271.511719 219.914062 L 279.152344 213.617188 L 286.65625 207.433594 L 293.65625 201.664062 L 301.246094 195.410156 L 308.332031 189.570312 L 315.277344 183.847656 L 322.8125 177.636719 L 329.847656 171.84375 L 337.46875 165.5625 L 337.582031 165.46875 L 337.691406 165.378906 L 339.25 164.09375 L 339.359375 164.003906 L 339.472656 163.910156 L 339.695312 163.730469 L 340.136719 163.363281 L 341.027344 162.628906 L 341.140625 162.539062 L 341.25 162.445312 L 341.917969 161.894531 L 342.027344 161.804688 L 342.140625 161.710938 L 342.363281 161.527344 L 342.472656 161.4375 L 342.585938 161.347656 L 342.808594 161.164062 L 342.917969 161.070312 L 343.03125 160.996094 L 343.140625 160.96875 L 343.253906 160.941406 L 343.363281 160.914062 L 343.476562 160.886719 L 343.699219 160.832031 L 343.808594 160.804688 L 343.921875 160.777344 L 344.140625 160.722656 L 344.585938 160.613281 L 345.460938 160.394531 L 346.332031 160.179688 L 348.078125 159.75 L 351.566406 158.886719 L 359.136719 157.015625 L 366.199219 155.269531 L 373.855469 153.375 L 381.371094 151.519531 L 388.382812 149.785156 L 395.988281 147.90625 L 403.085938 146.152344 L 410.042969 144.429688 L 417.59375 142.5625 L 424.636719 140.824219 L 424.757812 140.792969 L 424.882812 140.761719 L 425.128906 140.699219 L 425.621094 140.578125 L 426.601562 140.335938 L 428.566406 139.851562 L 428.691406 139.820312 L 428.8125 139.789062 L 429.058594 139.730469 L 429.550781 139.609375 L 430.535156 139.363281 L 430.65625 139.335938 L 430.78125 139.304688 L 431.027344 139.242188 L 431.515625 139.121094 L 431.640625 139.089844 L 431.761719 139.0625 L 432.007812 139 L 432.132812 138.96875 L 432.253906 138.9375 L 432.378906 138.910156 L 432.5 138.878906 " transform="matrix(1,0,0,1,-74,-13)"/>
</g>
<g clip-path="url(#clip2)" clip-rule="nonzero">
<path style="fill:none;stroke-width:1.6;stroke-linecap:square;stroke-linejoin:miter;stroke:rgb(0%,0%,0%);stroke-opacity:1;stroke-miterlimit:3.25;" d="M 74.5 65.125 L 163.910156 65.125 L 164.027344 138.878906 L 253.417969 138.878906 L 253.527344 197.878906 L 342.917969 197.878906 L 343.03125 149.941406 L 432.5 149.941406 " transform="matrix(1,0,0,1,-74,-13)"/>
</g>
<path style=" stroke:none;fill-rule:evenodd;fill:rgb(36.84082%,50.67749%,70.979309%);fill-opacity:1;" d="M 3.683594 74 C 3.683594 73.289062 3.402344 72.605469 2.898438 72.101562 C 2.394531 71.597656 1.710938 71.316406 1 71.316406 C 0.289062 71.316406 -0.394531 71.597656 -0.898438 72.101562 C -1.402344 72.605469 -1.683594 73.289062 -1.683594 74 C -1.683594 74.710938 -1.402344 75.394531 -0.898438 75.898438 C -0.394531 76.402344 0.289062 76.683594 1 76.683594 C 1.710938 76.683594 2.394531 76.402344 2.898438 75.898438 C 3.402344 75.394531 3.683594 74.710938 3.683594 74 Z M 3.683594 74 "/>
<path style=" stroke:none;fill-rule:evenodd;fill:rgb(36.84082%,50.67749%,70.979309%);fill-opacity:1;" d="M 92.683594 30 C 92.683594 29.289062 92.402344 28.605469 91.898438 28.101562 C 91.394531 27.597656 90.710938 27.316406 90 27.316406 C 89.289062 27.316406 88.605469 27.597656 88.101562 28.101562 C 87.597656 28.605469 87.316406 29.289062 87.316406 30 C 87.316406 30.710938 87.597656 31.394531 88.101562 31.898438 C 88.605469 32.402344 89.289062 32.683594 90 32.683594 C 90.710938 32.683594 91.394531 32.402344 91.898438 31.898438 C 92.402344 31.394531 92.683594 30.710938 92.683594 30 Z M 92.683594 30 "/>
<g clip-path="url(#clip3)" clip-rule="nonzero">
<path style=" stroke:none;fill-rule:evenodd;fill:rgb(36.84082%,50.67749%,70.979309%);fill-opacity:1;" d="M 181.683594 222 C 181.683594 221.289062 181.402344 220.605469 180.898438 220.101562 C 180.394531 219.597656 179.710938 219.316406 179 219.316406 C 178.289062 219.316406 177.605469 219.597656 177.101562 220.101562 C 176.597656 220.605469 176.316406 221.289062 176.316406 222 C 176.316406 222.710938 176.597656 223.394531 177.101562 223.898438 C 177.605469 224.402344 178.289062 224.683594 179 224.683594 C 179.710938 224.683594 180.394531 224.402344 180.898438 223.898438 C 181.402344 223.394531 181.683594 222.710938 181.683594 222 Z M 181.683594 222 "/>
</g>
<path style=" stroke:none;fill-rule:evenodd;fill:rgb(36.84082%,50.67749%,70.979309%);fill-opacity:1;" d="M 271.683594 148 C 271.683594 147.289062 271.402344 146.605469 270.898438 146.101562 C 270.394531 145.597656 269.710938 145.316406 269 145.316406 C 268.289062 145.316406 267.605469 145.597656 267.101562 146.101562 C 266.597656 146.605469 266.316406 147.289062 266.316406 148 C 266.316406 148.710938 266.597656 149.394531 267.101562 149.898438 C 267.605469 150.402344 268.289062 150.683594 269 150.683594 C 269.710938 150.683594 270.394531 150.402344 270.898438 149.898438 C 271.402344 149.394531 271.683594 148.710938 271.683594 148 Z M 271.683594 148 "/>
<g clip-path="url(#clip4)" clip-rule="nonzero">
<path style=" stroke:none;fill-rule:evenodd;fill:rgb(36.84082%,50.67749%,70.979309%);fill-opacity:1;" d="M 360.683594 126 C 360.683594 125.289062 360.402344 124.605469 359.898438 124.101562 C 359.394531 123.597656 358.710938 123.316406 358 123.316406 C 357.289062 123.316406 356.605469 123.597656 356.101562 124.101562 C 355.597656 124.605469 355.316406 125.289062 355.316406 126 C 355.316406 126.710938 355.597656 127.394531 356.101562 127.898438 C 356.605469 128.402344 357.289062 128.683594 358 128.683594 C 358.710938 128.683594 359.394531 128.402344 359.898438 127.898438 C 360.402344 127.394531 360.683594 126.710938 360.683594 126 Z M 360.683594 126 "/>
</g>
<path style="fill:none;stroke-width:0.2;stroke-linecap:butt;stroke-linejoin:miter;stroke:rgb(39.99939%,39.99939%,39.99939%);stroke-opacity:1;stroke-miterlimit:3.25;" d="M 74.5 234.757812 L 432.5 234.757812 " transform="matrix(1,0,0,1,-74,-13)"/>
<path style="fill:none;stroke-width:0.2;stroke-linecap:butt;stroke-linejoin:miter;stroke:rgb(39.99939%,39.99939%,39.99939%);stroke-opacity:1;stroke-miterlimit:3.25;" d="M 74.5 234.757812 L 74.5 13.5 " transform="matrix(1,0,0,1,-74,-13)"/>
</g>
</svg>
