<svg id="Layer_1" data-name="Layer 1" xmlns="http://www.w3.org/2000/svg" viewBox="0 0 487.476 397.085"><defs><style>.cls-1,.cls-12{fill:#f2f2f2;}.cls-1,.cls-10,.cls-11,.cls-12,.cls-3,.cls-4,.cls-7{stroke:#000;}.cls-1,.cls-10,.cls-11,.cls-12,.cls-2,.cls-3,.cls-4,.cls-7{stroke-miterlimit:10;}.cls-2,.cls-3,.cls-4{fill:none;}.cls-2{stroke:#999;}.cls-3{stroke-width:0.5px;}.cls-5{fill:#a6a6a6;}.cls-6{fill:#666;}.cls-8{font-size:24.601px;}.cls-8,.cls-9{font-family:MyriadPro-Regular, Myriad Pro;}.cls-9{font-size:24px;}.cls-10{fill:#fcee21;stroke-width:0.3px;}.cls-11{fill:#ccc;}.cls-11,.cls-12{stroke-width:3px;}</style></defs><title>SamplingReflectionFunctions</title><polyline class="cls-1" points="253.729 272.117 445.47 39.159 414.031 16.578 253.729 272.117"/><path class="cls-2" d="M393.736,271.592c0-33.813-62.746-61.224-140.148-61.224S113.44,237.779,113.44,271.592"/><polygon class="cls-3" points="471.07 180.181 134.091 178.341 36.388 364.826 373.367 366.666 471.07 180.181"/><line class="cls-4" x1="253.729" y1="272.117" x2="253.729" y2="106.669"/><polygon points="259.233 111.579 253.729 107.319 248.225 111.579 253.729 98.566 259.233 111.579"/><polygon class="cls-5" points="258.031 110.021 253.729 99.878 253.729 106.689 258.031 110.021"/><polygon class="cls-6" points="249.432 110.021 253.729 99.878 253.729 106.689 249.432 110.021"/><circle class="cls-7" cx="253.61" cy="271.826" r="2.25"/><text class="cls-8" transform="translate(246.213 293.802)">p</text><text class="cls-9" transform="translate(246.933 88.852)">n</text><path class="cls-4" d="M113.088,271.6a140.25,140.25,0,0,1,280.5,0"/><path class="cls-4" d="M113.211,271.551c0,33.836,62.8,61.265,140.263,61.265s140.262-27.429,140.262-61.265"/><polyline class="cls-10" points="427.503 35.556 422.551 44.014 425.879 34.795 419.457 42.199 424.423 33.749 416.75 39.847 423.183 32.453 414.52 37.037 422.203 30.951 412.845 33.865 421.515 29.294 411.781 30.44 421.144 27.54 411.365 26.877 421.101 25.747 411.61 23.299 421.388 23.977 412.509 19.826 421.996 22.289 414.031 16.578 422.903 20.743 416.123 13.665 424.079 19.389 418.715 11.186 425.484 18.274 421.719 9.225 427.07 17.436 425.031 7.85 428.782 16.904 428.54 7.106 430.564 16.696 432.126 7.02 432.353 16.819 435.667 7.595 434.089 17.268 439.041 8.81 435.713 18.029 442.135 10.625 437.17 19.075 444.843 12.977 438.41 20.371 447.072 15.787 439.39 21.873 448.748 18.959 440.078 23.529 449.811 22.384 440.449 25.284 450.228 25.947 440.492 27.077 449.982 29.525 440.205 28.847 449.084 32.998 439.597 30.534 447.562 36.246 438.69 32.081 445.47 39.159 437.514 33.435 442.878 41.638 436.109 34.55 439.874 43.599 434.523 35.388 436.561 44.974 432.81 35.92 433.052 45.718 431.029 36.128 429.467 45.803 429.24 36.005 425.926 45.229 427.503 35.556"/><ellipse class="cls-11" cx="328.199" cy="168.906" rx="5.667" ry="8.233" transform="translate(17.349 367.944) rotate(-59.864)"/><line class="cls-12" x1="321.078" y1="164.773" x2="253.61" y2="271.826"/><line class="cls-12" x1="335.319" y1="173.04" x2="253.474" y2="272.117"/></svg>