<svg id="Layer_1" data-name="Layer 1" xmlns="http://www.w3.org/2000/svg" viewBox="0 0 299 192"><defs><style>.cls-1,.cls-2,.cls-3,.cls-4,.cls-6{fill:none;}.cls-1,.cls-2,.cls-3,.cls-4,.cls-7{stroke:#000;}.cls-1,.cls-2,.cls-3,.cls-6{stroke-linecap:square;}.cls-1,.cls-2,.cls-3,.cls-4,.cls-6,.cls-7{stroke-miterlimit:10;}.cls-2{stroke-dasharray:5.355 5.355;}.cls-3{stroke-dasharray:4.866 4.866;}.cls-4{stroke-width:3.001px;}.cls-5{fill:#fff;}.cls-6{stroke:#b3b3b3;stroke-width:5.002px;}.cls-7{stroke-width:5.602px;}.cls-10,.cls-11,.cls-12,.cls-8{font-size:21px;}.cls-11,.cls-12,.cls-8{font-family:MyriadPro-Regular, Myriad Pro;}.cls-10,.cls-9{font-family:MyriadPro-It, Myriad Pro;font-style:italic;}.cls-11{letter-spacing:0em;}.cls-12{letter-spacing:0em;}</style></defs><title>SamplingReflectionFunctions</title><path class="cls-1" d="M167.516,90.27q1.215.3,2.416.641"/><path class="cls-2" d="M175.042,92.516a87.663,87.663,0,0,1,33.635,21.322"/><path class="cls-1" d="M210.528,115.778q.849.916,1.672,1.858"/><path class="cls-1" d="M117.631,101.891q1.163-.456,2.341-.876"/><path class="cls-3" d="M124.6,99.527A79.439,79.439,0,0,1,160.74,97.77"/><path class="cls-1" d="M163.126,98.247q1.224.264,2.434.567"/><line class="cls-4" x1="148.042" y1="175.349" x2="174.944" y2="56.958"/><line class="cls-4" x1="148.042" y1="175.349" x2="100.762" y2="62.709"/><ellipse class="cls-5" cx="132" cy="137" rx="13.167" ry="12.667"/><polygon points="108.507 61.842 96.61 52.772 94.705 67.616 108.507 61.842"/><polygon points="240.59 101.336 245.289 87.127 230.642 90.158 240.59 101.336"/><polygon points="181.727 60.8 177.405 46.472 167.164 57.38 181.727 60.8"/><path class="cls-6" d="M11.909,174.348a134.5,134.5,0,1,1,269,0"/><path class="cls-7" d="M233.324,71.74a107.3,107.3,0,0,1,14.223,13.768,183.932,183.932,0,0,1,11.71,15.891"/><polygon points="230 79.881 223.842 64.291 240.413 66.747 230 79.881"/><polygon points="250.735 103.792 265.492 111.726 264.982 94.971 250.735 103.792"/><path class="cls-7" d="M168.794,41.421a94.456,94.456,0,0,1,9.306,2.1c3.456.928,6.278,1.7,8.588,2.34"/><polygon points="170.242 50.167 156.804 40.16 172.183 33.516 170.242 50.167"/><polygon points="181.536 53.092 198.005 50.022 187.115 37.284 181.536 53.092"/><text class="cls-8" transform="translate(172.183 25.784)">d<tspan class="cls-9" x="11.844" y="0">θ</tspan></text><text class="cls-8" transform="translate(194.863 32.778) scale(0.583)">h</text><text class="cls-10" transform="translate(131.833 83.236)">θ</text><text class="cls-11" transform="translate(142.669 90.229) scale(0.583)">h</text><text class="cls-10" transform="translate(189.858 90.27)">θ</text><text class="cls-11" transform="translate(200.694 97.264) scale(0.583)">h</text><text class="cls-8" transform="translate(254.167 83.236)">d<tspan class="cls-9" x="11.844" y="0">θ</tspan></text><text class="cls-8" transform="translate(276.847 90.229) scale(0.583)">i</text><text class="cls-10" transform="translate(120.917 138.62)">ω</text><text class="cls-12" transform="translate(135.113 145.613) scale(0.583)">o</text><line class="cls-6" x1="11.909" y1="175.349" x2="280.909" y2="175.349"/><circle cx="148.042" cy="175.349" r="4.347"/><line class="cls-4" x1="148.042" y1="175.349" x2="237.25" y2="94.29"/><ellipse class="cls-5" cx="188.111" cy="141" rx="13.167" ry="12.667"/><text class="cls-10" transform="translate(177.741 144.214)">ω</text><text class="cls-8" transform="translate(191.937 151.207) scale(0.583)">i</text><ellipse class="cls-5" cx="158.333" cy="134.819" rx="13.167" ry="12.667"/><text class="cls-10" transform="translate(147.963 138.033)">ω</text><text class="cls-8" transform="translate(162.159 145.026) scale(0.583)">h</text></svg>