<svg id="Layer_1" data-name="Layer 1" xmlns="http://www.w3.org/2000/svg" xmlns:xlink="http://www.w3.org/1999/xlink" viewBox="0 0 769.43 229.86"><defs><style>.cls-1,.cls-2,.cls-4,.cls-7,.cls-8,.cls-9{fill:none;}.cls-2,.cls-8,.cls-9{stroke:#666;}.cls-2,.cls-4,.cls-7,.cls-8,.cls-9{stroke-miterlimit:3.25;}.cls-3{isolation:isolate;}.cls-4,.cls-7{stroke:#5e81b5;stroke-linecap:square;}.cls-4{stroke-width:2px;}.cls-5{fill-rule:evenodd;}.cls-6{fill:#666;}.cls-7{stroke-width:1.6px;}.cls-8,.cls-9{stroke-width:1.5px;}.cls-9{stroke-dasharray:11.59 11.59;}.cls-10{clip-path:url(#clip-path);}.cls-11{fill:blue;opacity:0.1;}</style><clipPath id="clip-path"><rect class="cls-1" x="432.43" y="12.46" width="279.36" height="212.5"/></clipPath></defs><title>Newton bisection</title><line class="cls-2" x1="23" y1="118.12" x2="23" y2="114.12"/><line class="cls-2" x1="39.43" y1="118.12" x2="39.43" y2="115.71"/><line class="cls-2" x1="55.87" y1="118.12" x2="55.87" y2="115.71"/><line class="cls-2" x1="72.3" y1="118.12" x2="72.3" y2="115.71"/><line class="cls-2" x1="88.73" y1="118.12" x2="88.73" y2="114.12"/><line class="cls-2" x1="105.16" y1="118.12" x2="105.16" y2="115.71"/><line class="cls-2" x1="121.6" y1="118.12" x2="121.6" y2="115.71"/><line class="cls-2" x1="138.03" y1="118.12" x2="138.03" y2="115.71"/><line class="cls-2" x1="154.46" y1="118.12" x2="154.46" y2="114.12"/><line class="cls-2" x1="170.9" y1="118.12" x2="170.9" y2="115.71"/><line class="cls-2" x1="187.33" y1="118.12" x2="187.33" y2="115.71"/><line class="cls-2" x1="203.76" y1="118.12" x2="203.76" y2="115.71"/><line class="cls-2" x1="220.19" y1="118.12" x2="220.19" y2="114.12"/><line class="cls-2" x1="236.62" y1="118.12" x2="236.62" y2="115.71"/><line class="cls-2" x1="253.06" y1="118.12" x2="253.06" y2="115.71"/><line class="cls-2" x1="269.49" y1="118.12" x2="269.49" y2="115.71"/><line class="cls-2" x1="285.92" y1="118.12" x2="285.92" y2="114.12"/><line class="cls-2" x1="302.35" y1="118.12" x2="302.35" y2="115.71"/><line class="cls-2" x1="318.79" y1="118.12" x2="318.79" y2="115.71"/><line class="cls-2" x1="335.22" y1="118.12" x2="335.22" y2="115.71"/><line class="cls-2" x1="351.65" y1="118.12" x2="351.65" y2="114.12"/><line class="cls-2" x1="16.15" y1="118.12" x2="358.5" y2="118.12"/><line class="cls-2" x1="23" y1="222.85" x2="25.4" y2="222.85"/><line class="cls-2" x1="23" y1="213.33" x2="25.4" y2="213.33"/><line class="cls-2" x1="23" y1="203.8" x2="25.4" y2="203.8"/><line class="cls-2" x1="23" y1="194.28" x2="27" y2="194.28"/><line class="cls-2" x1="23" y1="184.76" x2="25.4" y2="184.76"/><line class="cls-2" x1="23" y1="175.24" x2="25.4" y2="175.24"/><line class="cls-2" x1="23" y1="165.72" x2="25.4" y2="165.72"/><line class="cls-2" x1="23" y1="156.2" x2="27" y2="156.2"/><line class="cls-2" x1="23" y1="146.68" x2="25.4" y2="146.68"/><line class="cls-2" x1="23" y1="137.15" x2="25.4" y2="137.15"/><line class="cls-2" x1="23" y1="127.63" x2="25.4" y2="127.63"/><line class="cls-2" x1="23" y1="118.12" x2="27" y2="118.12"/><line class="cls-2" x1="23" y1="108.59" x2="25.4" y2="108.59"/><line class="cls-2" x1="23" y1="99.07" x2="25.4" y2="99.07"/><line class="cls-2" x1="23" y1="89.55" x2="25.4" y2="89.55"/><line class="cls-2" x1="23" y1="80.03" x2="27" y2="80.03"/><line class="cls-2" x1="23" y1="70.51" x2="25.4" y2="70.51"/><line class="cls-2" x1="23" y1="60.99" x2="25.4" y2="60.99"/><line class="cls-2" x1="23" y1="51.47" x2="25.4" y2="51.47"/><line class="cls-2" x1="23" y1="41.94" x2="27" y2="41.94"/><line class="cls-2" x1="23" y1="32.42" x2="25.4" y2="32.42"/><line class="cls-2" x1="23" y1="22.9" x2="25.4" y2="22.9"/><line class="cls-2" x1="23" y1="13.38" x2="25.4" y2="13.38"/><line class="cls-2" x1="23" y1="223.9" x2="23" y2="12.32"/><line class="cls-2" x1="432.43" y1="118.26" x2="432.43" y2="114.26"/><line class="cls-2" x1="448.86" y1="118.26" x2="448.86" y2="115.86"/><line class="cls-2" x1="465.29" y1="118.26" x2="465.29" y2="115.86"/><line class="cls-2" x1="481.72" y1="118.26" x2="481.72" y2="115.86"/><line class="cls-2" x1="498.16" y1="118.26" x2="498.16" y2="114.26"/><line class="cls-2" x1="514.59" y1="118.26" x2="514.59" y2="115.86"/><line class="cls-2" x1="531.03" y1="118.26" x2="531.03" y2="115.86"/><line class="cls-2" x1="547.46" y1="118.26" x2="547.46" y2="115.86"/><line class="cls-2" x1="563.89" y1="118.26" x2="563.89" y2="114.26"/><line class="cls-2" x1="580.32" y1="118.26" x2="580.32" y2="115.86"/><line class="cls-2" x1="596.76" y1="118.26" x2="596.76" y2="115.86"/><line class="cls-2" x1="613.19" y1="118.26" x2="613.19" y2="115.86"/><line class="cls-2" x1="629.62" y1="118.26" x2="629.62" y2="114.26"/><line class="cls-2" x1="646.05" y1="118.26" x2="646.05" y2="115.86"/><line class="cls-2" x1="662.49" y1="118.26" x2="662.49" y2="115.86"/><line class="cls-2" x1="678.92" y1="118.26" x2="678.92" y2="115.86"/><line class="cls-2" x1="695.35" y1="118.26" x2="695.35" y2="114.26"/><line class="cls-2" x1="711.78" y1="118.26" x2="711.78" y2="115.86"/><line class="cls-2" x1="728.22" y1="118.26" x2="728.22" y2="115.86"/><line class="cls-2" x1="744.65" y1="118.26" x2="744.65" y2="115.86"/><line class="cls-2" x1="761.08" y1="118.26" x2="761.08" y2="114.26"/><line class="cls-2" x1="425.58" y1="118.26" x2="767.93" y2="118.26"/><line class="cls-2" x1="432.43" y1="222.99" x2="434.83" y2="222.99"/><line class="cls-2" x1="432.43" y1="213.47" x2="434.83" y2="213.47"/><line class="cls-2" x1="432.43" y1="203.94" x2="434.83" y2="203.94"/><line class="cls-2" x1="432.43" y1="194.43" x2="436.43" y2="194.43"/><line class="cls-2" x1="432.43" y1="184.9" x2="434.83" y2="184.9"/><line class="cls-2" x1="432.43" y1="175.38" x2="434.83" y2="175.38"/><line class="cls-2" x1="432.43" y1="165.86" x2="434.83" y2="165.86"/><line class="cls-2" x1="432.43" y1="156.34" x2="436.43" y2="156.34"/><line class="cls-2" x1="432.43" y1="146.82" x2="434.83" y2="146.82"/><line class="cls-2" x1="432.43" y1="137.3" x2="434.83" y2="137.3"/><line class="cls-2" x1="432.43" y1="127.78" x2="434.83" y2="127.78"/><line class="cls-2" x1="432.43" y1="118.26" x2="436.43" y2="118.26"/><line class="cls-2" x1="432.43" y1="108.73" x2="434.83" y2="108.73"/><line class="cls-2" x1="432.43" y1="99.21" x2="434.83" y2="99.21"/><line class="cls-2" x1="432.43" y1="89.69" x2="434.83" y2="89.69"/><line class="cls-2" x1="432.43" y1="80.17" x2="436.43" y2="80.17"/><line class="cls-2" x1="432.43" y1="70.65" x2="434.83" y2="70.65"/><line class="cls-2" x1="432.43" y1="61.13" x2="434.83" y2="61.13"/><line class="cls-2" x1="432.43" y1="51.61" x2="434.83" y2="51.61"/><line class="cls-2" x1="432.43" y1="42.09" x2="436.43" y2="42.09"/><line class="cls-2" x1="432.43" y1="32.57" x2="434.83" y2="32.57"/><line class="cls-2" x1="432.43" y1="23.04" x2="434.83" y2="23.04"/><line class="cls-2" x1="432.43" y1="13.52" x2="434.83" y2="13.52"/><line class="cls-2" x1="432.43" y1="224.05" x2="432.43" y2="12.46"/><g class="cls-3"><polyline class="cls-4" points="23 213.33 23.2 213.17 23.4 213.01 23.8 212.69 24.61 212.01 26.23 210.51 26.33 210.41 26.43 210.31 26.63 210.11 27.03 209.69 27.84 208.84 29.45 207 29.67 206.74 30.32 205.95 31.2 204.85 32.95 202.54 36.45 197.55 42.98 187.7 43.07 187.55 43.18 187.4 43.77 186.51 44.57 185.34 46.18 183.04 46.28 182.9 46.38 182.76 46.57 182.48 46.98 181.93 47.78 180.84 49.38 178.75 49.59 178.48 49.81 178.21 50.25 177.68 51.11 176.64 52.85 174.7 53.28 174.25 53.72 173.81 54.59 172.96 56.32 171.41 56.73 171.08 57.13 170.76 57.94 170.16 58.35 169.88 58.75 169.6 59.56 169.09 59.66 169.03 59.97 168.85 60.37 168.62 61.18 168.19 61.28 168.14 61.39 168.1 61.59 168 61.99 167.81 62.8 167.47 63.02 167.38 63.24 167.3 63.68 167.14 63.79 167.11 63.9 167.07 64.12 167 64.56 166.87 64.67 166.83 64.78 166.8 65 166.74 65.44 166.63 65.66 166.57 65.88 166.52 66.32 166.43 66.53 166.38 67.3 166.24 67.41 166.23 68.18 166.12 68.29 166.11 68.51 166.08 68.95 166.03 69.06 166.03 69.17 166.01 69.39 165.99 69.61 165.98 69.83 165.96 69.93 165.96 70.04 165.95 70.26 165.93 70.37 165.93 70.47 165.92 70.69 165.91 70.8 165.9 70.9 165.9 71.12 165.89 71.23 165.89 71.34 165.88 71.55 165.88 71.66 165.87 71.77 165.87 71.88 165.87 71.98 165.87 72.09 165.87 72.19 165.86 72.31 165.86 72.41 165.86 72.63 165.86 72.73 165.85 73.06 165.85 73.17 165.85 75 165.85 75.11 165.85 76.18 165.85 76.29 165.84 76.51 165.84 76.61 165.84 76.82 165.84 76.92 165.83 77.02 165.83 77.13 165.83 77.23 165.83 77.32 165.83 77.53 165.82 77.63 165.82 77.73 165.82 77.93 165.81 78.03 165.81 78.33 165.79 78.43 165.79 78.53 165.79 78.73 165.78 78.83 165.77 78.93 165.77 79.13 165.76 79.34 165.74 79.53 165.73 79.94 165.69 80.14 165.68 80.34 165.66 80.44 165.65 80.54 165.64 80.74 165.62 80.94 165.59 81.14 165.57 81.55 165.51 81.65 165.5 81.75 165.48 81.95 165.46 82.35 165.38 82.45 165.37 82.55 165.35 82.75 165.31 83.16 165.23 83.27 165.21 83.37 165.18 83.59 165.13 84.25 164.97 84.46 164.91 84.9 164.78 85.01 164.75 85.12 164.72 85.34 164.65 85.77 164.5 86.64 164.18 86.75 164.13 86.86 164.09 87.08 164 87.52 163.81 88.39 163.39 88.5 163.33 88.61 163.28 88.82 163.16 89.26 162.92 90.13 162.41 90.33 162.28 90.53 162.15 90.94 161.88 91.76 161.32 91.96 161.17 92.16 161.02 92.57 160.71 93.39 160.05 93.79 159.71 94.2 159.35 95.01 158.62 96.64 157.01 96.74 156.91 96.84 156.81 97.04 156.6 97.44 156.17 98.24 155.29 99.83 153.44 103.02 149.38 109.95 139.71 110.15 139.42 110.36 139.13 110.76 138.56 111.57 137.43 113.18 135.2 113.28 135.06 113.38 134.92 113.59 134.65 113.99 134.11 114.8 133.04 116.41 130.96 116.63 130.69 116.85 130.42 117.29 129.88 118.16 128.84 119.91 126.87 120.02 126.75 120.14 126.63 120.36 126.4 120.79 125.94 121.67 125.06 123.42 123.45 123.53 123.35 123.63 123.26 124.28 122.72 125.14 122.05 125.25 121.96 125.35 121.88 126 121.41 126.86 120.83 126.97 120.76 127.07 120.69 127.28 120.56 127.72 120.3 128.58 119.81 128.68 119.75 128.79 119.69 129.01 119.58 129.44 119.36 130.3 118.97 130.4 118.92 130.5 118.88 130.69 118.8 131.1 118.63 131.2 118.59 131.3 118.56 131.5 118.48 131.9 118.34 132 118.31 132.1 118.27 132.3 118.2 132.7 118.08 133.5 117.85 133.6 117.83 133.7 117.8 133.9 117.75 134.31 117.66 134.4 117.64 134.5 117.61 134.7 117.58 135.1 117.5 135.21 117.48 135.31 117.46 135.51 117.42 135.91 117.36 136.11 117.33 136.31 117.3 136.71 117.25 136.82 117.24 136.93 117.22 137.36 117.17 137.58 117.15 137.69 117.14 137.8 117.13 138.01 117.11 138.56 117.08 138.66 117.07 138.88 117.06 138.99 117.05 139.1 117.05 139.32 117.03 139.43 117.03 139.75 117.01 139.86 117.01 140.3 116.99 140.41 116.99 140.51 116.99 140.62 116.99 140.73 116.99 140.84 116.98 140.95 116.98 141.06 116.98 141.16 116.98 141.27 116.97 141.49 116.97 141.6 116.97 142.15 116.97 142.25 116.97 144.68 116.97 144.78 116.96 145.29 116.96 145.39 116.96 145.59 116.96 145.69 116.95 145.9 116.95 146.1 116.95 146.2 116.95 146.31 116.95 146.51 116.94 146.61 116.94 146.71 116.94 147.01 116.92 147.11 116.92 147.32 116.92 147.42 116.91 147.82 116.89 147.93 116.88 148.53 116.85 149.15 116.8 149.35 116.78 149.45 116.78 149.55 116.76 149.75 116.74 150.16 116.7 150.27 116.69 150.38 116.67 150.6 116.64 151.04 116.58 151.15 116.56 151.26 116.55 151.48 116.51 151.92 116.43 152.14 116.39 152.35 116.35 152.8 116.26 153.68 116.04 153.78 116.01 153.9 115.98 154.12 115.92 154.56 115.79 154.66 115.76 154.77 115.72 155 115.65 155.43 115.51 155.54 115.47 155.66 115.43 155.88 115.35 156.31 115.18 157.19 114.81 157.3 114.76 157.41 114.72 157.63 114.61 158.06 114.41 158.92 113.97 159.03 113.91 159.14 113.85 159.35 113.73 159.78 113.48 160.65 112.95 160.75 112.88 160.86 112.81 161.08 112.67 161.51 112.38 162.38 111.78 164.1 110.43 164.2 110.34 164.3 110.26 164.5 110.09 164.91 109.75 165.71 109.03 167.32 107.51 170.54 104.15 170.98 103.66 171.42 103.17 172.29 102.17 174.04 100.13 177.53 95.92 177.63 95.8 177.73 95.67 177.94 95.43 178.35 94.94 179.16 93.95 180.79 92.01 184.06 88.29 184.16 88.18 184.25 88.07 184.45 87.86 184.85 87.43 185.65 86.58 187.25 84.98 187.45 84.78 187.65 84.59 188.05 84.22 188.85 83.48 190.45 82.11 190.56 82.02 190.67 81.93 190.88 81.76 191.32 81.42 192.18 80.76 192.4 80.61 192.62 80.45 193.05 80.15 193.92 79.58 194.03 79.51 194.14 79.45 194.35 79.31 194.78 79.05 195.65 78.56 195.87 78.45 196.09 78.33 196.52 78.11 197.39 77.7 197.49 77.66 197.59 77.61 197.79 77.53 198.19 77.36 199 77.05 199.1 77.01 199.41 76.9 199.82 76.77 200.63 76.52 200.73 76.49 200.83 76.46 201.03 76.4 201.43 76.3 201.53 76.28 201.64 76.25 201.84 76.2 202.24 76.11 202.34 76.09 202.44 76.06 202.65 76.02 203.05 75.94 203.15 75.93 203.25 75.91 203.46 75.87 203.86 75.81 203.97 75.79 204.08 75.77 204.3 75.74 204.74 75.68 204.96 75.66 205.18 75.63 205.62 75.58 205.73 75.57 205.84 75.56 206.06 75.55 206.16 75.53 206.93 75.48 207.37 75.45 207.48 75.45 207.59 75.44 207.81 75.43 207.92 75.42 208.68 75.4 208.79 75.4 208.91 75.39 209.13 75.39 209.34 75.38 209.45 75.38 209.56 75.38 209.67 75.38 209.78 75.37 210 75.37 210.11 75.37 210.44 75.37 210.55 75.36 211.63 75.36 211.74 75.36 214 75.36 214.1 75.36 214.43 75.36 214.54 75.35 214.75 75.35 214.86 75.35 214.97 75.35 215.18 75.34 215.29 75.34 215.4 75.34 215.51 75.34 215.61 75.34 215.72 75.33 215.83 75.33 216.04 75.33 216.15 75.32 216.26 75.32 216.48 75.31 216.58 75.31 216.69 75.3 216.91 75.29 217.01 75.29 217.12 75.28 217.34 75.27 217.77 75.24 217.87 75.24 217.97 75.23 218.17 75.22 218.27 75.21 218.37 75.2 218.67 75.18 218.77 75.17 218.97 75.15 219.37 75.11 219.57 75.09 219.77 75.06 220.18 75.02 220.28 75 220.38 74.99 220.58 74.96 220.98 74.9 221.08 74.88 221.18 74.87 221.38 74.84 221.78 74.77 221.98 74.73 222.18 74.69 222.59 74.61 222.69 74.59 222.78 74.57 222.99 74.52 223.39 74.43 224.19 74.22 224.3 74.19 224.63 74.1 225.06 73.97 225.93 73.69 226.15 73.61 226.37 73.53 226.81 73.37 227.68 73.02 227.9 72.93 228.11 72.83 228.55 72.64 229.42 72.22 231.16 71.3 231.57 71.06 231.97 70.82 232.78 70.31 234.41 69.22 237.66 66.77 237.76 66.69 237.86 66.61 238.06 66.45 238.46 66.12 239.26 65.45 240.85 64.07 244.04 61.19 250.96 54.91 251.06 54.82 251.16 54.73 251.36 54.56 251.77 54.21 252.57 53.53 254.19 52.23 254.29 52.15 254.39 52.07 254.59 51.91 254.99 51.6 255.8 51 257.41 49.85 257.63 49.7 257.85 49.56 258.29 49.27 259.16 48.72 259.38 48.59 260.04 48.2 260.91 47.71 261.35 47.47 261.79 47.25 262.66 46.82 264.41 46.06 264.62 45.98 264.82 45.9 265.23 45.74 266.05 45.45 266.15 45.42 266.25 45.39 266.45 45.32 266.86 45.2 267.68 44.96 267.88 44.9 268.09 44.85 268.5 44.75 268.7 44.7 268.91 44.65 269.31 44.56 269.41 44.54 269.52 44.52 269.72 44.47 270.13 44.4 270.94 44.25 271.15 44.22 271.35 44.19 271.75 44.13 271.85 44.12 271.95 44.11 272.15 44.08 272.55 44.03 272.75 44.01 272.95 43.99 273.35 43.95 273.45 43.94 273.55 43.93 273.75 43.91 274.15 43.88 274.35 43.86 274.55 43.84 274.65 43.84 274.75 43.84 274.95 43.82 275.05 43.81 275.15 43.81 275.35 43.8 275.75 43.78 275.85 43.77 275.95 43.77 276.15 43.76 276.25 43.76 276.35 43.75 276.55 43.75 276.75 43.74 276.95 43.73 277.06 43.73 277.15 43.73 277.35 43.72 277.46 43.72 277.57 43.72 277.68 43.72 277.79 43.72 277.89 43.71 278 43.71 278.22 43.71 278.33 43.7 278.55 43.7 278.66 43.7 279.09 43.7 279.2 43.7 280.29 43.7 280.39 43.69 283 43.69 283.11 43.69 283.54 43.69 283.65 43.69 283.87 43.69 283.98 43.68 284.09 43.68 284.3 43.68 284.4 43.68 284.5 43.67 284.71 43.67 284.81 43.67 284.91 43.67 285.11 43.66 285.21 43.66 285.32 43.66 285.62 43.65 285.72 43.65 285.93 43.64 286.02 43.63 286.53 43.62 286.73 43.6 286.94 43.59 287.55 43.56 287.65 43.56 287.75 43.55 287.95 43.53 288.36 43.51 288.76 43.47 289.17 43.44 289.27 43.43 289.37 43.42 289.57 43.4 289.98 43.35 290.79 43.26 291.01 43.22 291.23 43.2 291.67 43.13 291.78 43.12 291.89 43.09 292.11 43.06 292.55 42.99 292.98 42.91 293.43 42.82 294.3 42.63 294.41 42.61 294.52 42.59 294.74 42.53 295.18 42.43 296.06 42.2 296.28 42.13 296.5 42.07 296.94 41.94 297.82 41.67 297.93 41.63 298.03 41.59 298.25 41.52 298.68 41.38 299.54 41.06 301.27 40.37 301.38 40.33 301.48 40.28 301.7 40.19 302.13 40 302.99 39.6 304.71 38.76 304.92 38.66 305.12 38.56 305.52 38.35 306.32 37.92 307.93 37.04 311.15 35.16 318.13 30.96 318.34 30.84 318.54 30.72 318.95 30.49 319.76 30.02 321.39 29.13 321.8 28.91 322.21 28.7 323.02 28.27 324.65 27.48 324.75 27.43 324.85 27.39 325.05 27.3 325.44 27.11 326.25 26.76 327.84 26.1 327.94 26.06 328.04 26.02 328.24 25.94 328.64 25.8 329.44 25.51 331.04 24.98 331.14 24.94 331.25 24.91 331.47 24.84 331.9 24.72 332.77 24.48 332.88 24.45 332.98 24.43 333.2 24.37 333.64 24.26 334.5 24.07 334.72 24.02 334.93 23.97 335.37 23.88 335.59 23.84 335.8 23.8 336.23 23.72 336.34 23.7 336.45 23.69 336.67 23.65 337.1 23.59 337.97 23.45 338.07 23.44 338.17 23.43 338.37 23.4 338.77 23.35 339.18 23.31 339.58 23.26 339.79 23.24 339.99 23.22 340.39 23.18 340.49 23.18 340.59 23.17 340.8 23.15 341.2 23.12 341.4 23.1 341.61 23.09 342.01 23.07 342.11 23.06 342.21 23.05 342.41 23.04 342.82 23.02 342.92 23.01 343.32 23 343.42 22.99 344.03 22.97 344.43 22.96 344.89 22.94 345 22.94 345.11 22.94 345.34 22.93 345.45 22.93 345.56 22.93 345.79 22.93 345.9 22.92 346.01 22.92 346.24 22.92 346.35 22.92 346.58 22.92 346.69 22.91 346.91 22.91 347.14 22.91 347.71 22.91 347.82 22.9 351.09 22.9 351.2 22.9 351.65 22.9"/><path class="cls-5" d="M195.28,81.82a4.27,4.27,0,1,0-1.25,3A4.28,4.28,0,0,0,195.28,81.82Z"/><path d="M192.2,68.43h-1.32V60a6.43,6.43,0,0,1-1.25.91,8.7,8.7,0,0,1-1.38.68V60.35a8.25,8.25,0,0,0,1.93-1.26,5.14,5.14,0,0,0,1.17-1.44h.85Z"/><path class="cls-5" d="M150.28,116.82a4.27,4.27,0,1,0-1.25,3A4.28,4.28,0,0,0,150.28,116.82Z"/><path d="M149.59,102.14v1.27H142.5a2.4,2.4,0,0,1,.15-.92,4.86,4.86,0,0,1,.87-1.43,14.07,14.07,0,0,1,1.72-1.62,14.62,14.62,0,0,0,2.37-2.28,2.67,2.67,0,0,0,.61-1.58,1.74,1.74,0,0,0-.56-1.32,2,2,0,0,0-1.46-.54,2.06,2.06,0,0,0-1.52.57,2.19,2.19,0,0,0-.58,1.58l-1.35-.14a3.34,3.34,0,0,1,1-2.31,3.58,3.58,0,0,1,2.44-.79,3.41,3.41,0,0,1,2.45.85,2.83,2.83,0,0,1,.9,2.13,3.19,3.19,0,0,1-.27,1.27,4.78,4.78,0,0,1-.87,1.31,22.21,22.21,0,0,1-2,1.89q-1.18,1-1.53,1.35a3.88,3.88,0,0,0-.55.71Z"/><path class="cls-5" d="M86.28,165.82a4.27,4.27,0,1,0-1.25,3A4.32,4.32,0,0,0,86.28,165.82Z"/><path d="M79.11,149l1.31-.18a2.93,2.93,0,0,0,.78,1.62,1.89,1.89,0,0,0,1.33.49,2.13,2.13,0,0,0,1.57-.64,2.22,2.22,0,0,0,.64-1.6,2,2,0,0,0-.59-1.5,2.07,2.07,0,0,0-1.51-.59,3.69,3.69,0,0,0-.93.15l.14-1.16.22,0a2.72,2.72,0,0,0,1.51-.44,1.52,1.52,0,0,0,.68-1.36,1.61,1.61,0,0,0-.5-1.2,1.7,1.7,0,0,0-1.26-.48,1.79,1.79,0,0,0-1.28.49,2.32,2.32,0,0,0-.66,1.45l-1.32-.24a3.37,3.37,0,0,1,1.1-2,3.15,3.15,0,0,1,2.13-.73,3.58,3.58,0,0,1,1.62.38,2.69,2.69,0,0,1,1.13,1,2.62,2.62,0,0,1,.39,1.38,2.27,2.27,0,0,1-.37,1.27,2.61,2.61,0,0,1-1.11.91,2.45,2.45,0,0,1,1.48.91,2.78,2.78,0,0,1,.53,1.73,3.14,3.14,0,0,1-1,2.38,3.57,3.57,0,0,1-2.59,1,3.38,3.38,0,0,1-2.35-.84A3.23,3.23,0,0,1,79.11,149Z"/><path class="cls-5" d="M347.28,22.82a4.27,4.27,0,1,0-1.25,3A4.28,4.28,0,0,0,347.28,22.82Z"/><path class="cls-6" d="M82.15,126.58a6.4,6.4,0,0,1,.26-2,2.5,2.5,0,0,1,.77-1.19,2,2,0,0,1,1.3-.42,2.06,2.06,0,0,1,1,.23,1.92,1.92,0,0,1,.72.67,3.56,3.56,0,0,1,.44,1.06,6.94,6.94,0,0,1,.16,1.69,6.4,6.4,0,0,1-.26,2,2.55,2.55,0,0,1-.77,1.19,2,2,0,0,1-1.3.43,2,2,0,0,1-1.63-.75A4.71,4.71,0,0,1,82.15,126.58Zm.9,0a4.56,4.56,0,0,0,.41,2.35,1.19,1.19,0,0,0,2,0,6.94,6.94,0,0,0,0-4.7,1.25,1.25,0,0,0-1-.58,1.12,1.12,0,0,0-1,.52A4.54,4.54,0,0,0,83.05,126.58Z"/><path class="cls-6" d="M88.2,130.11v-1h1v1Z"/><path class="cls-6" d="M95.1,129.27v.84H90.37a1.61,1.61,0,0,1,.11-.61,3.29,3.29,0,0,1,.57-.95,9.7,9.7,0,0,1,1.15-1.08A9.75,9.75,0,0,0,93.78,126a1.82,1.82,0,0,0,.41-1.06,1.18,1.18,0,0,0-.37-.88,1.52,1.52,0,0,0-2,0,1.47,1.47,0,0,0-.39,1.06l-.9-.09a2.17,2.17,0,0,1,.7-1.54,2.33,2.33,0,0,1,1.62-.53,2.26,2.26,0,0,1,1.63.57,1.87,1.87,0,0,1,.6,1.41,2.12,2.12,0,0,1-.17.85,3.37,3.37,0,0,1-.58.87A14.59,14.59,0,0,1,93,127.89q-.8.66-1,.9a3.09,3.09,0,0,0-.37.48Z"/><path class="cls-6" d="M147.88,126.58a6.4,6.4,0,0,1,.26-2,2.5,2.5,0,0,1,.77-1.19,2,2,0,0,1,1.3-.42,2.06,2.06,0,0,1,1,.23,1.92,1.92,0,0,1,.72.67,3.32,3.32,0,0,1,.44,1.06,6.94,6.94,0,0,1,.16,1.69,6.74,6.74,0,0,1-.25,2,2.56,2.56,0,0,1-.78,1.19,2,2,0,0,1-1.3.43,2,2,0,0,1-1.63-.75A4.71,4.71,0,0,1,147.88,126.58Zm.9,0a4.56,4.56,0,0,0,.41,2.35,1.19,1.19,0,0,0,2,0,6.94,6.94,0,0,0,0-4.7,1.25,1.25,0,0,0-1-.58,1.12,1.12,0,0,0-1,.52A4.54,4.54,0,0,0,148.78,126.58Z"/><path class="cls-6" d="M153.93,130.11v-1h1v1Z"/><path class="cls-6" d="M159,130.11V128.4h-3.1v-.81l3.26-4.63h.72v4.63h1v.81h-1v1.71Zm0-2.52v-3.22l-2.24,3.22Z"/><path class="cls-6" d="M213.61,126.58a6.4,6.4,0,0,1,.26-2,2.5,2.5,0,0,1,.77-1.19,2,2,0,0,1,1.3-.42,2,2,0,0,1,1,.23,1.92,1.92,0,0,1,.72.67,3.32,3.32,0,0,1,.44,1.06,6.94,6.94,0,0,1,.16,1.69,6.74,6.74,0,0,1-.25,2,2.56,2.56,0,0,1-.78,1.19,2,2,0,0,1-1.3.43,2,2,0,0,1-1.63-.75A4.71,4.71,0,0,1,213.61,126.58Zm.9,0a4.56,4.56,0,0,0,.41,2.35,1.19,1.19,0,0,0,2,0,6.94,6.94,0,0,0,0-4.7,1.25,1.25,0,0,0-1-.58,1.14,1.14,0,0,0-1,.52A4.54,4.54,0,0,0,214.51,126.58Z"/><path class="cls-6" d="M219.66,130.11v-1h1v1Z"/><path class="cls-6" d="M226.51,124.71l-.88.07a1.63,1.63,0,0,0-.33-.76,1.16,1.16,0,0,0-.88-.37,1.22,1.22,0,0,0-.73.23,2,2,0,0,0-.66.89,4.65,4.65,0,0,0-.25,1.65,2.06,2.06,0,0,1,.78-.72,2.12,2.12,0,0,1,1-.23,2,2,0,0,1,1.5.65,2.32,2.32,0,0,1,.61,1.67,2.64,2.64,0,0,1-.29,1.25,2.15,2.15,0,0,1-.79.89,2.36,2.36,0,0,1-3-.5,4.11,4.11,0,0,1-.69-2.67,4.75,4.75,0,0,1,.76-3,2.21,2.21,0,0,1,1.81-.82,1.92,1.92,0,0,1,2,1.78Zm-3.59,3.08a2,2,0,0,0,.19.87,1.49,1.49,0,0,0,.54.64,1.37,1.37,0,0,0,.73.21,1.25,1.25,0,0,0,1-.45,1.79,1.79,0,0,0,.4-1.22,1.69,1.69,0,0,0-.4-1.17,1.31,1.31,0,0,0-1-.42,1.38,1.38,0,0,0-1,.42A1.58,1.58,0,0,0,222.92,127.79Z"/><path class="cls-6" d="M279.34,126.58a6.4,6.4,0,0,1,.26-2,2.44,2.44,0,0,1,.78-1.19,2,2,0,0,1,1.29-.42,2,2,0,0,1,1,.23,1.92,1.92,0,0,1,.72.67,3.32,3.32,0,0,1,.44,1.06,6.87,6.87,0,0,1,.17,1.69,6.7,6.7,0,0,1-.26,2,2.56,2.56,0,0,1-.78,1.19,2,2,0,0,1-1.3.43,1.94,1.94,0,0,1-1.62-.75A4.64,4.64,0,0,1,279.34,126.58Zm.9,0a4.56,4.56,0,0,0,.41,2.35,1.22,1.22,0,0,0,1,.58,1.21,1.21,0,0,0,1-.58,6.94,6.94,0,0,0,0-4.7,1.25,1.25,0,0,0-1-.58,1.14,1.14,0,0,0-1,.52A4.54,4.54,0,0,0,280.24,126.58Z"/><path class="cls-6" d="M285.39,130.11v-1h1v1Z"/><path class="cls-6" d="M289,126.23a1.65,1.65,0,0,1-.81-.57,1.46,1.46,0,0,1-.26-.89,1.7,1.7,0,0,1,.56-1.31,2,2,0,0,1,1.49-.53,2.1,2.1,0,0,1,1.51.54,1.75,1.75,0,0,1,.57,1.33,1.46,1.46,0,0,1-.26.86,1.59,1.59,0,0,1-.79.57,1.94,1.94,0,0,1,1,.69,1.91,1.91,0,0,1,.34,1.15,2,2,0,0,1-.65,1.54,2.62,2.62,0,0,1-3.41,0,2.07,2.07,0,0,1-.65-1.57,2,2,0,0,1,.35-1.17A1.83,1.83,0,0,1,289,126.23Zm-.46,1.82a1.61,1.61,0,0,0,.18.73,1.25,1.25,0,0,0,.53.54,1.53,1.53,0,0,0,.76.19,1.43,1.43,0,0,0,1-.4,1.41,1.41,0,0,0,.41-1,1.37,1.37,0,0,0-.43-1.05,1.42,1.42,0,0,0-1.05-.42,1.39,1.39,0,0,0-1,.41A1.43,1.43,0,0,0,288.57,128.05Zm.28-3.31a1.1,1.1,0,0,0,.33.83,1.14,1.14,0,0,0,.85.32,1.09,1.09,0,0,0,.83-.32,1,1,0,0,0,.33-.78,1.07,1.07,0,0,0-.34-.81,1.13,1.13,0,0,0-.83-.33,1.16,1.16,0,0,0-.83.32A1,1,0,0,0,288.85,124.74Z"/><path class="cls-6" d="M348.38,130.11h-.88v-5.6a4.58,4.58,0,0,1-.83.61,6,6,0,0,1-.93.45v-.85a5.32,5.32,0,0,0,1.29-.84,3.33,3.33,0,0,0,.78-.95h.57Z"/><path class="cls-6" d="M351.12,130.11v-1h1v1Z"/><path class="cls-6" d="M353.41,126.58a6.7,6.7,0,0,1,.26-2,2.44,2.44,0,0,1,.78-1.19,2,2,0,0,1,1.29-.42,2,2,0,0,1,1,.23,1.92,1.92,0,0,1,.72.67,3.56,3.56,0,0,1,.45,1.06,7.48,7.48,0,0,1,.16,1.69,6.7,6.7,0,0,1-.26,2,2.49,2.49,0,0,1-.78,1.19,2,2,0,0,1-1.3.43,1.94,1.94,0,0,1-1.62-.75A4.64,4.64,0,0,1,353.41,126.58Zm.9,0a4.56,4.56,0,0,0,.41,2.35,1.22,1.22,0,0,0,1,.58,1.2,1.2,0,0,0,1-.58,6.94,6.94,0,0,0,0-4.7,1.24,1.24,0,0,0-1-.58,1.11,1.11,0,0,0-1,.52A4.43,4.43,0,0,0,354.31,126.58Z"/><path class="cls-6" d="M2.77,193.75v.65H.3v-.65Z"/><path class="cls-6" d="M6.4,193.25a6.33,6.33,0,0,1,.27-2A2.45,2.45,0,0,1,7.44,190a2,2,0,0,1,1.3-.42,2.06,2.06,0,0,1,1,.23,1.92,1.92,0,0,1,.72.67,3.56,3.56,0,0,1,.44,1.06,6.94,6.94,0,0,1,.16,1.69,6.4,6.4,0,0,1-.26,2,2.55,2.55,0,0,1-.77,1.19,2,2,0,0,1-1.3.42,2,2,0,0,1-1.63-.74A4.71,4.71,0,0,1,6.4,193.25Zm.91,0a4.56,4.56,0,0,0,.41,2.35,1.19,1.19,0,0,0,2,0,6.94,6.94,0,0,0,0-4.7,1.25,1.25,0,0,0-1-.58,1.12,1.12,0,0,0-1,.52A4.54,4.54,0,0,0,7.31,193.25Z"/><path class="cls-6" d="M12.46,196.78v-1h1v1Z"/><path class="cls-6" d="M17.56,196.78v-1.71h-3.1v-.81l3.26-4.64h.72v4.64h1v.81h-1v1.71Zm0-2.52V191l-2.24,3.22Z"/><path class="cls-6" d="M2.77,155.67v.65H.3v-.65Z"/><path class="cls-6" d="M6.4,155.17a6.4,6.4,0,0,1,.27-2,2.55,2.55,0,0,1,.77-1.19,2,2,0,0,1,1.3-.42,2.18,2.18,0,0,1,1,.23,2,2,0,0,1,.72.67,3.63,3.63,0,0,1,.44,1.07,6.89,6.89,0,0,1,.16,1.69,6.3,6.3,0,0,1-.26,2,2.53,2.53,0,0,1-.77,1.2,2,2,0,0,1-1.3.42,2,2,0,0,1-1.63-.74A4.75,4.75,0,0,1,6.4,155.17Zm.91,0a4.54,4.54,0,0,0,.41,2.34,1.18,1.18,0,0,0,2,0,6.91,6.91,0,0,0,0-4.69,1.23,1.23,0,0,0-1-.58,1.14,1.14,0,0,0-1,.51A4.58,4.58,0,0,0,7.31,155.17Z"/><path class="cls-6" d="M12.46,158.7v-1h1v1Z"/><path class="cls-6" d="M19.36,157.85v.85H14.63a1.77,1.77,0,0,1,.1-.61,3.57,3.57,0,0,1,.58-1,8.92,8.92,0,0,1,1.15-1.09A9.79,9.79,0,0,0,18,154.54a1.87,1.87,0,0,0,.41-1.06,1.16,1.16,0,0,0-.37-.88,1.52,1.52,0,0,0-2,0,1.43,1.43,0,0,0-.39,1l-.9-.09a2.19,2.19,0,0,1,.7-1.54,2.38,2.38,0,0,1,1.62-.53,2.26,2.26,0,0,1,1.63.57,1.89,1.89,0,0,1,.6,1.42,2,2,0,0,1-.17.84,3.22,3.22,0,0,1-.59.88,15.72,15.72,0,0,1-1.35,1.26q-.79.66-1,.9a3,3,0,0,0-.37.47Z"/><path class="cls-6" d="M6.42,79a6.43,6.43,0,0,1,.26-2,2.55,2.55,0,0,1,.77-1.19,2,2,0,0,1,1.3-.42,2.18,2.18,0,0,1,1,.23,2,2,0,0,1,.72.67,3.63,3.63,0,0,1,.44,1.07A6.89,6.89,0,0,1,11.08,79a6.3,6.3,0,0,1-.26,2,2.53,2.53,0,0,1-.77,1.2,2,2,0,0,1-1.3.42,2,2,0,0,1-1.63-.74A4.75,4.75,0,0,1,6.42,79Zm.9,0a4.51,4.51,0,0,0,.41,2.34,1.18,1.18,0,0,0,2,0A4.54,4.54,0,0,0,10.18,79a4.56,4.56,0,0,0-.41-2.35,1.23,1.23,0,0,0-1-.58,1.14,1.14,0,0,0-1,.51A4.58,4.58,0,0,0,7.32,79Z"/><path class="cls-6" d="M12.47,82.53v-1h1v1Z"/><path class="cls-6" d="M19.37,81.68v.85H14.64a1.57,1.57,0,0,1,.11-.61,3.29,3.29,0,0,1,.57-1,8.92,8.92,0,0,1,1.15-1.09,9.79,9.79,0,0,0,1.58-1.51,1.87,1.87,0,0,0,.41-1.06,1.16,1.16,0,0,0-.37-.88,1.52,1.52,0,0,0-2,0,1.43,1.43,0,0,0-.39,1l-.9-.09a2.19,2.19,0,0,1,.7-1.54,2.38,2.38,0,0,1,1.62-.53,2.26,2.26,0,0,1,1.63.57,1.89,1.89,0,0,1,.6,1.42,2.07,2.07,0,0,1-.17.84,3.41,3.41,0,0,1-.58.88,18,18,0,0,1-1.36,1.26q-.8.66-1,.9a3,3,0,0,0-.37.47Z"/><path class="cls-6" d="M6.42,40.91a6.4,6.4,0,0,1,.26-2,2.5,2.5,0,0,1,.77-1.19,2,2,0,0,1,1.3-.42,2.06,2.06,0,0,1,1,.23,1.92,1.92,0,0,1,.72.67,3.56,3.56,0,0,1,.44,1.06,6.94,6.94,0,0,1,.16,1.69,6.4,6.4,0,0,1-.26,2,2.55,2.55,0,0,1-.77,1.19,1.94,1.94,0,0,1-1.3.43,2,2,0,0,1-1.63-.75A4.71,4.71,0,0,1,6.42,40.91Zm.9,0a4.56,4.56,0,0,0,.41,2.35,1.19,1.19,0,0,0,2,0,4.56,4.56,0,0,0,.41-2.35,4.58,4.58,0,0,0-.41-2.35,1.25,1.25,0,0,0-1-.58,1.12,1.12,0,0,0-1,.52A4.54,4.54,0,0,0,7.32,40.91Z"/><path class="cls-6" d="M12.47,44.44v-1h1v1Z"/><path class="cls-6" d="M17.57,44.44V42.73h-3.1v-.81l3.26-4.63h.72v4.63h1v.81h-1v1.71Zm0-2.52V38.7l-2.24,3.22Z"/><rect class="cls-1" y="11.82" width="360" height="214"/></g><polyline class="cls-7" points="432.43 213.47 432.63 213.31 432.83 213.16 433.23 212.83 434.04 212.15 435.65 210.65 435.76 210.55 435.85 210.45 436.06 210.25 436.46 209.84 437.27 208.98 438.88 207.15 439.1 206.89 439.75 206.09 440.63 204.99 442.38 202.68 445.87 197.69 452.4 187.84 452.5 187.69 452.6 187.55 453.2 186.66 454 185.48 455.6 183.18 455.7 183.04 455.8 182.9 456 182.63 456.4 182.07 457.2 180.98 458.8 178.9 459.02 178.62 459.24 178.35 459.67 177.82 460.54 176.78 462.28 174.84 462.71 174.39 463.15 173.95 464.01 173.1 465.75 171.56 466.15 171.23 466.56 170.91 467.37 170.3 467.78 170.02 468.18 169.74 468.99 169.23 469.09 169.17 469.4 168.99 469.8 168.76 470.61 168.34 470.71 168.28 470.81 168.24 471.01 168.14 471.42 167.95 472.23 167.61 472.45 167.53 472.67 167.44 473.11 167.28 473.22 167.25 473.33 167.21 473.55 167.14 473.99 167.01 474.1 166.97 474.2 166.94 474.42 166.88 474.87 166.77 475.08 166.72 475.3 166.66 475.74 166.57 475.96 166.52 476.73 166.39 476.84 166.37 477.61 166.26 477.72 166.25 477.94 166.22 478.38 166.18 478.49 166.17 478.6 166.16 478.81 166.14 479.03 166.12 479.26 166.11 479.36 166.1 479.47 166.09 479.69 166.07 479.8 166.07 479.9 166.06 480.12 166.06 480.23 166.05 480.33 166.04 480.55 166.03 480.65 166.03 480.76 166.03 480.98 166.02 481.09 166.02 481.19 166.02 481.3 166.01 481.41 166.01 481.52 166.01 481.62 166 481.73 166 481.84 166 482.06 166 482.16 166 482.49 166 482.6 165.99 484.43 165.99 484.53 165.99 485.61 165.99 485.72 165.98 485.94 165.98 486.04 165.98 486.25 165.98 486.35 165.98 486.45 165.98 486.55 165.97 486.65 165.97 486.75 165.97 486.95 165.97 487.06 165.96 487.15 165.96 487.36 165.95 487.45 165.95 487.76 165.94 487.86 165.93 487.96 165.93 488.16 165.92 488.26 165.91 488.36 165.91 488.56 165.9 488.76 165.88 488.96 165.87 489.37 165.84 489.57 165.82 489.77 165.8 489.87 165.79 489.97 165.78 490.17 165.76 490.37 165.73 490.57 165.71 490.98 165.66 491.08 165.64 491.17 165.63 491.38 165.6 491.78 165.53 491.88 165.51 491.98 165.49 492.18 165.45 492.58 165.37 492.69 165.35 492.8 165.32 493.02 165.28 493.67 165.11 493.89 165.06 494.33 164.93 494.44 164.9 494.55 164.86 494.76 164.79 495.2 164.65 496.07 164.32 496.18 164.27 496.29 164.23 496.51 164.14 496.94 163.95 497.81 163.53 497.92 163.48 498.03 163.42 498.25 163.31 498.69 163.07 499.56 162.55 499.76 162.43 499.96 162.3 500.37 162.03 501.19 161.46 501.39 161.31 501.59 161.16 502 160.85 502.81 160.19 503.22 159.85 503.63 159.5 504.44 158.76 506.07 157.16 506.17 157.06 506.27 156.95 506.47 156.74 506.87 156.31 507.67 155.44 509.26 153.58 512.45 149.53 519.38 139.85 519.58 139.56 519.78 139.28 520.19 138.71 520.99 137.57 522.61 135.34 522.71 135.21 522.81 135.07 523.01 134.79 523.42 134.25 524.23 133.18 525.84 131.11 526.06 130.83 526.28 130.56 526.72 130.03 527.59 128.98 529.34 127.01 529.45 126.89 529.57 126.78 529.78 126.54 530.22 126.08 531.1 125.21 532.85 123.59 532.96 123.5 533.06 123.4 533.71 122.86 534.57 122.19 534.67 122.11 534.78 122.02 535.42 121.55 536.28 120.97 536.39 120.9 536.5 120.83 536.71 120.7 537.14 120.44 538.01 119.95 538.11 119.89 538.22 119.83 538.44 119.72 538.87 119.51 539.73 119.11 539.82 119.07 539.92 119.02 540.12 118.94 540.53 118.78 540.63 118.74 540.73 118.7 540.93 118.63 541.33 118.48 541.43 118.45 541.53 118.41 541.73 118.35 542.13 118.22 542.93 118 543.03 117.97 543.13 117.94 543.33 117.89 543.73 117.8 543.83 117.78 543.93 117.76 544.13 117.72 544.53 117.64 544.63 117.62 544.73 117.6 544.94 117.57 545.33 117.5 545.54 117.47 545.74 117.44 546.14 117.39 546.24 117.38 546.35 117.36 546.79 117.32 547.01 117.3 547.12 117.28 547.23 117.28 547.44 117.26 547.99 117.22 548.09 117.21 548.31 117.2 548.42 117.19 548.53 117.19 548.74 117.17 548.85 117.17 549.18 117.16 549.29 117.15 549.73 117.14 549.83 117.14 549.94 117.13 550.05 117.13 550.16 117.13 550.27 117.13 550.38 117.13 550.49 117.12 550.59 117.12 550.7 117.12 550.92 117.12 551.03 117.11 551.57 117.11 551.68 117.11 554.11 117.11 554.21 117.11 554.72 117.11 554.82 117.1 555.02 117.1 555.12 117.1 555.33 117.1 555.53 117.09 555.63 117.09 555.73 117.09 555.94 117.08 556.04 117.08 556.13 117.08 556.44 117.07 556.54 117.07 556.74 117.06 556.85 117.05 557.25 117.03 557.35 117.03 557.96 116.99 558.57 116.94 558.78 116.92 558.88 116.92 558.98 116.91 559.18 116.89 559.59 116.84 559.7 116.83 559.81 116.81 560.03 116.78 560.47 116.72 560.58 116.71 560.69 116.69 560.9 116.65 561.35 116.57 561.57 116.53 561.78 116.49 562.23 116.4 563.1 116.18 563.21 116.16 563.32 116.13 563.54 116.07 563.98 115.93 564.09 115.9 564.2 115.87 564.42 115.8 564.86 115.65 564.97 115.61 565.08 115.57 565.3 115.49 565.74 115.32 566.62 114.95 566.73 114.91 566.84 114.86 567.05 114.76 567.49 114.55 568.35 114.11 568.46 114.05 568.57 113.99 568.78 113.87 569.21 113.63 570.08 113.1 570.18 113.03 570.29 112.96 570.51 112.82 570.94 112.53 571.8 111.92 573.53 110.57 573.63 110.49 573.73 110.41 573.93 110.23 574.33 109.89 575.14 109.17 576.75 107.66 579.97 104.29 580.41 103.8 580.85 103.31 581.72 102.32 583.47 100.27 586.96 96.06 587.06 95.94 587.16 95.82 587.37 95.57 587.78 95.08 588.59 94.09 590.22 92.15 593.48 88.43 593.58 88.32 593.68 88.21 593.88 88 594.28 87.57 595.08 86.73 596.68 85.12 596.88 84.92 597.08 84.73 597.48 84.36 598.28 83.63 599.88 82.25 599.99 82.16 600.1 82.07 600.31 81.9 600.74 81.56 601.61 80.91 601.83 80.75 602.04 80.6 602.48 80.3 603.35 79.73 603.46 79.66 603.57 79.59 603.78 79.45 604.21 79.19 605.08 78.71 605.3 78.59 605.51 78.48 605.95 78.26 606.82 77.85 606.92 77.8 607.02 77.76 607.22 77.67 607.62 77.5 608.43 77.19 608.53 77.15 608.84 77.05 609.24 76.91 610.05 76.66 610.15 76.63 610.26 76.6 610.46 76.55 610.86 76.44 610.96 76.42 611.07 76.39 611.27 76.34 611.67 76.25 611.77 76.23 611.87 76.21 612.08 76.16 612.48 76.08 612.58 76.07 612.68 76.05 612.88 76.02 613.29 75.95 613.4 75.93 613.51 75.91 613.73 75.88 614.17 75.82 614.38 75.8 614.6 75.77 615.04 75.73 615.15 75.71 615.26 75.71 615.48 75.69 615.59 75.67 616.36 75.62 616.8 75.59 616.91 75.59 617.02 75.58 617.24 75.57 617.35 75.57 618.11 75.54 618.22 75.54 618.33 75.53 618.55 75.53 618.77 75.52 618.88 75.52 618.99 75.52 619.1 75.52 619.21 75.52 619.43 75.52 619.54 75.51 619.87 75.51 619.98 75.51 621.06 75.51 621.17 75.5 623.43 75.5 623.53 75.5 623.86 75.5 623.97 75.5 624.18 75.5 624.29 75.49 624.4 75.49 624.61 75.49 624.72 75.48 624.83 75.48 624.94 75.48 625.04 75.48 625.15 75.48 625.26 75.47 625.47 75.47 625.58 75.46 625.69 75.46 625.9 75.45 626.01 75.45 626.12 75.44 626.33 75.43 626.44 75.43 626.55 75.42 626.76 75.41 627.19 75.39 627.29 75.38 627.4 75.38 627.6 75.36 627.7 75.35 627.79 75.34 628.1 75.32 628.2 75.31 628.4 75.29 628.8 75.25 629 75.23 629.2 75.21 629.6 75.16 629.71 75.14 629.8 75.13 630.01 75.11 630.41 75.04 630.51 75.03 630.61 75.01 630.81 74.98 631.21 74.91 631.41 74.87 631.61 74.83 632.01 74.75 632.12 74.73 632.21 74.71 632.42 74.66 632.82 74.57 633.62 74.36 633.73 74.33 634.06 74.24 634.49 74.11 635.36 73.83 635.58 73.75 635.79 73.67 636.23 73.51 637.1 73.16 637.32 73.07 637.54 72.98 637.98 72.78 638.85 72.37 640.59 71.44 640.99 71.2 641.4 70.96 642.21 70.46 643.84 69.37 647.09 66.91 647.19 66.83 647.29 66.75 647.49 66.59 647.89 66.26 648.69 65.59 650.28 64.21 653.47 61.33 660.38 55.05 660.49 54.96 660.59 54.88 660.79 54.7 661.19 54.36 662 53.67 663.62 52.37 663.72 52.29 663.82 52.21 664.02 52.05 664.42 51.75 665.23 51.14 666.84 50 667.06 49.85 667.28 49.7 667.72 49.42 668.59 48.86 668.81 48.73 669.47 48.34 670.34 47.85 670.78 47.62 671.22 47.4 672.09 46.96 673.84 46.2 674.04 46.12 674.25 46.04 674.66 45.89 675.48 45.6 675.58 45.57 675.68 45.53 675.88 45.46 676.29 45.34 677.11 45.1 677.31 45.05 677.52 44.99 677.92 44.89 678.13 44.84 678.33 44.79 678.74 44.7 678.84 44.68 678.94 44.66 679.15 44.62 679.56 44.54 680.37 44.4 680.58 44.36 680.78 44.33 681.17 44.28 681.28 44.26 681.38 44.25 681.58 44.22 681.98 44.17 682.18 44.15 682.38 44.13 682.78 44.09 682.88 44.08 682.98 44.07 683.18 44.05 683.58 44.02 683.78 44 683.98 43.99 684.08 43.98 684.18 43.98 684.38 43.96 684.48 43.96 684.58 43.95 684.78 43.94 685.18 43.92 685.28 43.92 685.38 43.91 685.58 43.9 685.68 43.9 685.78 43.9 685.98 43.89 686.18 43.88 686.38 43.88 686.48 43.88 686.58 43.87 686.78 43.87 686.89 43.86 687 43.86 687.11 43.86 687.22 43.86 687.32 43.86 687.43 43.86 687.65 43.85 687.76 43.85 687.98 43.85 688.08 43.84 688.52 43.84 688.63 43.84 689.71 43.84 689.82 43.84 692.43 43.84 692.54 43.83 692.97 43.83 693.08 43.83 693.29 43.83 693.4 43.82 693.51 43.82 693.73 43.82 693.83 43.82 693.93 43.82 694.13 43.81 694.24 43.81 694.34 43.81 694.54 43.8 694.64 43.8 694.74 43.8 695.05 43.79 695.15 43.79 695.35 43.78 695.45 43.78 695.96 43.76 696.16 43.75 696.37 43.74 696.98 43.7 697.08 43.7 697.18 43.69 697.38 43.67 697.78 43.65 698.19 43.62 698.6 43.58 698.7 43.57 698.8 43.56 699 43.54 699.4 43.5 700.22 43.4 700.44 43.37 700.65 43.34 701.1 43.27 701.21 43.26 701.32 43.24 701.53 43.2 701.98 43.13 702.41 43.05 702.85 42.96 703.73 42.78 703.84 42.75 703.95 42.73 704.17 42.67 704.61 42.57 705.49 42.34 705.71 42.28 705.93 42.21 706.37 42.09 707.24 41.81 707.35 41.78 707.46 41.74 707.67 41.67 708.11 41.52 708.97 41.21 710.69 40.52 710.8 40.47 710.91 40.42 711.13 40.33 711.56 40.14 712.42 39.75 714.14 38.91 714.35 38.8 714.54 38.7 714.95 38.49 715.75 38.07 717.36 37.18 720.58 35.3 727.56 31.1 727.76 30.98 727.97 30.86 728.38 30.63 729.19 30.17 730.82 29.27 731.23 29.05 731.63 28.84 732.45 28.42 734.08 27.62 734.18 27.57 734.28 27.53 734.48 27.44 734.87 27.25 735.67 26.9 737.27 26.24 737.37 26.2 737.47 26.16 737.67 26.09 738.07 25.94 738.87 25.65 740.46 25.12 740.57 25.09 740.68 25.05 740.9 24.99 741.33 24.86 742.2 24.63 742.31 24.6 742.41 24.57 742.63 24.52 743.07 24.41 743.93 24.21 744.15 24.16 744.36 24.12 744.79 24.03 745.01 23.99 745.23 23.94 745.66 23.87 745.77 23.85 745.88 23.83 746.1 23.79 746.53 23.73 747.4 23.6 747.49 23.59 747.6 23.57 747.8 23.54 748.2 23.5 748.61 23.45 749.01 23.41 749.21 23.38 749.42 23.36 749.82 23.33 749.92 23.32 750.02 23.31 750.23 23.29 750.63 23.26 750.83 23.25 751.03 23.23 751.44 23.21 751.54 23.2 751.64 23.19 751.84 23.18 752.24 23.16 752.35 23.16 752.75 23.14 752.85 23.14 753.46 23.11 753.86 23.1 754.32 23.09 754.42 23.09 754.54 23.08 754.76 23.08 754.88 23.07 754.99 23.07 755.22 23.07 755.33 23.07 755.44 23.07 755.67 23.06 755.78 23.06 756.01 23.06 756.12 23.05 756.34 23.05 756.57 23.05 757.13 23.05 757.24 23.05 760.52 23.05 760.63 23.04 761.08 23.04"/><path class="cls-5" d="M604.71,82a4.28,4.28,0,1,0-1.25,3A4.28,4.28,0,0,0,604.71,82Z"/><path d="M601.63,68.57h-1.32v-8.4a6.32,6.32,0,0,1-1.25.91,8.36,8.36,0,0,1-1.39.68V60.49a8.11,8.11,0,0,0,1.94-1.26,5,5,0,0,0,1.17-1.44h.85Z"/><path class="cls-5" d="M559.71,117a4.28,4.28,0,1,0-1.25,3A4.28,4.28,0,0,0,559.71,117Z"/><path d="M559,102.28v1.27h-7.1a2.33,2.33,0,0,1,.16-.91,4.74,4.74,0,0,1,.87-1.43,13.34,13.34,0,0,1,1.72-1.63A14.67,14.67,0,0,0,557,97.31a2.72,2.72,0,0,0,.61-1.59,1.78,1.78,0,0,0-.56-1.32,2,2,0,0,0-1.46-.54,2.06,2.06,0,0,0-1.52.57,2.15,2.15,0,0,0-.58,1.58l-1.36-.13a3.4,3.4,0,0,1,1.05-2.32,3.58,3.58,0,0,1,2.44-.79,3.42,3.42,0,0,1,2.45.86,2.81,2.81,0,0,1,.9,2.12,3.19,3.19,0,0,1-.27,1.27,4.78,4.78,0,0,1-.87,1.31,22.21,22.21,0,0,1-2,1.89c-.8.66-1.3,1.11-1.53,1.35a4.26,4.26,0,0,0-.55.71Z"/><path class="cls-5" d="M495.71,166a4.28,4.28,0,1,0-1.25,3A4.28,4.28,0,0,0,495.71,166Z"/><path d="M488.54,149.13l1.31-.18a2.87,2.87,0,0,0,.78,1.62,1.89,1.89,0,0,0,1.33.49,2.13,2.13,0,0,0,1.57-.64,2.2,2.2,0,0,0,.64-1.6,2,2,0,0,0-2.11-2.09,3.83,3.83,0,0,0-.93.15l.15-1.16.21,0a2.76,2.76,0,0,0,1.52-.44,1.51,1.51,0,0,0,.67-1.36,1.6,1.6,0,0,0-.49-1.2,1.71,1.71,0,0,0-1.26-.47,1.82,1.82,0,0,0-1.29.48,2.46,2.46,0,0,0-.66,1.45l-1.31-.23a3.35,3.35,0,0,1,1.1-2.06,3.2,3.2,0,0,1,2.13-.73,3.58,3.58,0,0,1,1.62.38,2.75,2.75,0,0,1,1.13,1A2.62,2.62,0,0,1,495,144a2.33,2.33,0,0,1-.37,1.27,2.61,2.61,0,0,1-1.11.91,2.48,2.48,0,0,1,1.48.91,2.78,2.78,0,0,1,.53,1.73,3.21,3.21,0,0,1-1,2.39,3.6,3.6,0,0,1-2.59,1,3.38,3.38,0,0,1-2.35-.84A3.23,3.23,0,0,1,488.54,149.13Z"/><path class="cls-5" d="M527.71,134a4.28,4.28,0,1,0-1.25,3A4.28,4.28,0,0,0,527.71,134Z"/><path d="M524.54,120.35v-2.57h-4.66v-1.21l4.9-7h1.07v7h1.45v1.21h-1.45v2.57Zm0-3.78v-4.84l-3.37,4.84Z"/><rect class="cls-1" x="501.43" y="207.96" width="18" height="17"/><rect class="cls-1" x="535.43" y="217.96" width="19" height="7"/><rect class="cls-1" x="518.43" y="207.96" width="18" height="17"/><rect class="cls-1" x="492.43" y="217.96" width="10" height="7"/><rect class="cls-1" x="501.43" y="217.96" width="18" height="7"/><rect class="cls-1" x="518.43" y="217.96" width="36" height="7"/><rect class="cls-1" x="492.43" y="222.96" width="10" height="2"/><rect class="cls-1" x="553.43" y="217.96" width="3" height="7"/><rect class="cls-1" x="491.43" y="222.96" width="2" height="2"/><rect class="cls-1" x="490.43" y="11.96" width="66" height="213"/><path class="cls-6" d="M491.57,126.73a6.4,6.4,0,0,1,.27-2,2.55,2.55,0,0,1,.77-1.19,2,2,0,0,1,1.3-.42,2.18,2.18,0,0,1,1,.23,1.92,1.92,0,0,1,.72.67,3.56,3.56,0,0,1,.44,1.06,7,7,0,0,1,.16,1.7,6.38,6.38,0,0,1-.26,2,2.63,2.63,0,0,1-.77,1.2,2.19,2.19,0,0,1-2.93-.32A4.75,4.75,0,0,1,491.57,126.73Zm.91,0a4.54,4.54,0,0,0,.41,2.34,1.2,1.2,0,0,0,1,.58,1.22,1.22,0,0,0,1-.58,6.91,6.91,0,0,0,0-4.69,1.23,1.23,0,0,0-1-.58,1.12,1.12,0,0,0-1,.51A4.56,4.56,0,0,0,492.48,126.73Z"/><path class="cls-6" d="M497.63,130.26v-1h1v1Z"/><path class="cls-6" d="M504.53,129.41v.85H499.8a1.54,1.54,0,0,1,.1-.61,3.37,3.37,0,0,1,.58-1,9.7,9.7,0,0,1,1.15-1.08,9.34,9.34,0,0,0,1.58-1.52,1.82,1.82,0,0,0,.41-1,1.19,1.19,0,0,0-.37-.89,1.4,1.4,0,0,0-1-.35,1.33,1.33,0,0,0-1,.38,1.39,1.39,0,0,0-.39,1l-.9-.09a2.17,2.17,0,0,1,.7-1.54,2.33,2.33,0,0,1,1.62-.53,2.26,2.26,0,0,1,1.63.57,1.87,1.87,0,0,1,.6,1.42,2.29,2.29,0,0,1-.17.84,3,3,0,0,1-.59.87,13,13,0,0,1-1.35,1.26q-.8.67-1,.9a3.09,3.09,0,0,0-.37.48Z"/><path class="cls-6" d="M557.3,126.73a6.4,6.4,0,0,1,.27-2,2.55,2.55,0,0,1,.77-1.19,2,2,0,0,1,1.3-.42,2.18,2.18,0,0,1,1,.23,1.92,1.92,0,0,1,.72.67,3.56,3.56,0,0,1,.44,1.06,7,7,0,0,1,.16,1.7,6.38,6.38,0,0,1-.26,2,2.63,2.63,0,0,1-.77,1.2,2.19,2.19,0,0,1-2.93-.32A4.75,4.75,0,0,1,557.3,126.73Zm.91,0a4.54,4.54,0,0,0,.41,2.34,1.21,1.21,0,0,0,1,.58,1.22,1.22,0,0,0,1-.58,6.91,6.91,0,0,0,0-4.69,1.23,1.23,0,0,0-1-.58,1.12,1.12,0,0,0-1,.51A4.56,4.56,0,0,0,558.21,126.73Z"/><path class="cls-6" d="M563.36,130.26v-1h1v1Z"/><path class="cls-6" d="M568.46,130.26v-1.72h-3.1v-.8l3.26-4.64h.72v4.64h1v.8h-1v1.72Zm0-2.52v-3.23l-2.24,3.23Z"/><path class="cls-6" d="M623,126.73a6.43,6.43,0,0,1,.26-2,2.55,2.55,0,0,1,.77-1.19,2,2,0,0,1,1.3-.42,2.18,2.18,0,0,1,1,.23,1.92,1.92,0,0,1,.72.67,3.56,3.56,0,0,1,.44,1.06,7,7,0,0,1,.16,1.7,6.38,6.38,0,0,1-.26,2,2.63,2.63,0,0,1-.77,1.2,2.19,2.19,0,0,1-2.93-.32A4.75,4.75,0,0,1,623,126.73Zm.9,0a4.54,4.54,0,0,0,.41,2.34,1.21,1.21,0,0,0,1,.58,1.22,1.22,0,0,0,1-.58,6.91,6.91,0,0,0,0-4.69,1.23,1.23,0,0,0-1-.58,1.14,1.14,0,0,0-1,.51A4.56,4.56,0,0,0,623.94,126.73Z"/><path class="cls-6" d="M629.09,130.26v-1h1v1Z"/><path class="cls-6" d="M635.94,124.85l-.88.07a1.64,1.64,0,0,0-.33-.75,1.17,1.17,0,0,0-.88-.38,1.25,1.25,0,0,0-.74.23,2.11,2.11,0,0,0-.65.89,4.69,4.69,0,0,0-.25,1.65,2,2,0,0,1,.78-.71,2.05,2.05,0,0,1,2.46.41,2.32,2.32,0,0,1,.61,1.67,2.64,2.64,0,0,1-.29,1.25,2.1,2.1,0,0,1-.8.89,2.22,2.22,0,0,1-1.15.31,2.25,2.25,0,0,1-1.79-.81,4.1,4.1,0,0,1-.69-2.66,4.78,4.78,0,0,1,.76-3,2.2,2.2,0,0,1,1.8-.82,1.92,1.92,0,0,1,2,1.78Zm-3.59,3.09a2,2,0,0,0,.19.87,1.52,1.52,0,0,0,.54.63,1.37,1.37,0,0,0,.73.21,1.24,1.24,0,0,0,1-.44,1.77,1.77,0,0,0,.4-1.23,1.64,1.64,0,0,0-.39-1.16,1.3,1.3,0,0,0-1-.43,1.35,1.35,0,0,0-1,.43A1.5,1.5,0,0,0,632.35,127.94Z"/><path class="cls-6" d="M688.77,126.73a6.43,6.43,0,0,1,.26-2,2.55,2.55,0,0,1,.77-1.19,2,2,0,0,1,1.3-.42,2.18,2.18,0,0,1,1,.23,1.92,1.92,0,0,1,.72.67,3.32,3.32,0,0,1,.44,1.06,7,7,0,0,1,.16,1.7,6.38,6.38,0,0,1-.26,2,2.63,2.63,0,0,1-.77,1.2,2.19,2.19,0,0,1-2.93-.32A4.75,4.75,0,0,1,688.77,126.73Zm.9,0a4.54,4.54,0,0,0,.41,2.34,1.19,1.19,0,0,0,2,0,6.91,6.91,0,0,0,0-4.69,1.23,1.23,0,0,0-1-.58,1.14,1.14,0,0,0-1,.51A4.56,4.56,0,0,0,689.67,126.73Z"/><path class="cls-6" d="M694.82,130.26v-1h1v1Z"/><path class="cls-6" d="M698.46,126.37a1.57,1.57,0,0,1-.81-.57,1.47,1.47,0,0,1-.27-.89,1.73,1.73,0,0,1,.57-1.31,2.09,2.09,0,0,1,1.49-.53,2.12,2.12,0,0,1,1.51.54,1.79,1.79,0,0,1,.57,1.33,1.46,1.46,0,0,1-.26.86,1.62,1.62,0,0,1-.8.57,2,2,0,0,1,1,.7,1.9,1.9,0,0,1,.34,1.14,2,2,0,0,1-.65,1.54,2.62,2.62,0,0,1-3.41,0,2.06,2.06,0,0,1-.65-1.56,1.85,1.85,0,0,1,.35-1.17A1.79,1.79,0,0,1,698.46,126.37Zm-.46,1.82a1.61,1.61,0,0,0,.18.73,1.25,1.25,0,0,0,.53.54,1.49,1.49,0,0,0,.75.19,1.41,1.41,0,0,0,1-.4,1.36,1.36,0,0,0,.41-1,1.44,1.44,0,0,0-1.48-1.47,1.4,1.4,0,0,0-1.43,1.44Zm.28-3.31a1.1,1.1,0,0,0,.33.83,1.15,1.15,0,0,0,.85.33,1.13,1.13,0,0,0,.83-.32,1.07,1.07,0,0,0,.33-.79,1.11,1.11,0,0,0-.34-.81,1.13,1.13,0,0,0-.83-.33,1.19,1.19,0,0,0-.84.32A1,1,0,0,0,698.28,124.88Z"/><path class="cls-6" d="M757.81,130.26h-.88v-5.61a4.15,4.15,0,0,1-.83.61,6.41,6.41,0,0,1-.93.45v-.85a5.32,5.32,0,0,0,1.29-.84,3.08,3.08,0,0,0,.78-1h.57Z"/><path class="cls-6" d="M760.55,130.26v-1h1v1Z"/><path class="cls-6" d="M762.84,126.73a6.43,6.43,0,0,1,.26-2,2.55,2.55,0,0,1,.77-1.19,2,2,0,0,1,1.3-.42,2.18,2.18,0,0,1,1,.23,1.92,1.92,0,0,1,.72.67,3.32,3.32,0,0,1,.44,1.06,7,7,0,0,1,.16,1.7,6.71,6.71,0,0,1-.25,2,2.73,2.73,0,0,1-.78,1.2,2.19,2.19,0,0,1-2.93-.32A4.75,4.75,0,0,1,762.84,126.73Zm.9,0a4.54,4.54,0,0,0,.41,2.34,1.19,1.19,0,0,0,2,0,6.91,6.91,0,0,0,0-4.69,1.23,1.23,0,0,0-1-.58,1.14,1.14,0,0,0-1,.51A4.56,4.56,0,0,0,763.74,126.73Z"/><path class="cls-6" d="M412.2,193.9v.65h-2.47v-.65Z"/><path class="cls-6" d="M415.83,193.39a6.7,6.7,0,0,1,.26-2,2.58,2.58,0,0,1,.78-1.19,2,2,0,0,1,1.3-.42,2.06,2.06,0,0,1,1,.23,1.92,1.92,0,0,1,.72.67,3.84,3.84,0,0,1,.44,1.06,7,7,0,0,1,.16,1.69,6.7,6.7,0,0,1-.26,2,2.55,2.55,0,0,1-.77,1.19,1.94,1.94,0,0,1-1.3.43,2,2,0,0,1-1.63-.75A4.71,4.71,0,0,1,415.83,193.39Zm.91,0a4.45,4.45,0,0,0,.41,2.35,1.2,1.2,0,0,0,1,.58,1.22,1.22,0,0,0,1-.58,6.91,6.91,0,0,0,0-4.69,1.24,1.24,0,0,0-1-.59,1.13,1.13,0,0,0-1,.52A4.54,4.54,0,0,0,416.74,193.39Z"/><path class="cls-6" d="M421.89,196.92v-1h1v1Z"/><path class="cls-6" d="M427,196.92v-1.71h-3.11v-.8l3.27-4.64h.72v4.64h1v.8h-1v1.71Zm0-2.51v-3.23l-2.24,3.23Z"/><path class="cls-6" d="M412.2,155.81v.65h-2.47v-.65Z"/><path class="cls-6" d="M415.83,155.31a6.61,6.61,0,0,1,.26-2,2.62,2.62,0,0,1,.78-1.2,2,2,0,0,1,1.3-.42,2.18,2.18,0,0,1,1,.23,2,2,0,0,1,.72.67,4.05,4.05,0,0,1,.44,1.07,6.94,6.94,0,0,1,.16,1.69,6.59,6.59,0,0,1-.26,2,2.53,2.53,0,0,1-.77,1.2,2.19,2.19,0,0,1-2.93-.32A4.75,4.75,0,0,1,415.83,155.31Zm.91,0a4.45,4.45,0,0,0,.41,2.35,1.22,1.22,0,0,0,1,.58,1.23,1.23,0,0,0,1-.59,6.91,6.91,0,0,0,0-4.69,1.23,1.23,0,0,0-1-.58,1.12,1.12,0,0,0-1,.51A4.58,4.58,0,0,0,416.74,155.31Z"/><path class="cls-6" d="M421.89,158.84v-1h1v1Z"/><path class="cls-6" d="M428.79,158v.84h-4.73a1.6,1.6,0,0,1,.1-.61,3.33,3.33,0,0,1,.58-.95,8.92,8.92,0,0,1,1.15-1.09,9.37,9.37,0,0,0,1.58-1.51,1.87,1.87,0,0,0,.41-1.06,1.2,1.2,0,0,0-.37-.88,1.52,1.52,0,0,0-2,0,1.43,1.43,0,0,0-.39,1.06l-.9-.1a2.25,2.25,0,0,1,.69-1.54,2.42,2.42,0,0,1,1.63-.53,2.26,2.26,0,0,1,1.63.57,1.9,1.9,0,0,1,.6,1.42,2.21,2.21,0,0,1-.17.84,3.47,3.47,0,0,1-.59.88,14.26,14.26,0,0,1-1.35,1.26q-.8.66-1,.9a3.09,3.09,0,0,0-.37.48Z"/><path class="cls-6" d="M415.84,79.14a6.61,6.61,0,0,1,.26-2,2.62,2.62,0,0,1,.78-1.2,2,2,0,0,1,1.3-.42,2.18,2.18,0,0,1,1,.23,2,2,0,0,1,.72.67,4.05,4.05,0,0,1,.44,1.07,6.94,6.94,0,0,1,.16,1.69,6.59,6.59,0,0,1-.26,2,2.53,2.53,0,0,1-.77,1.2,2.19,2.19,0,0,1-2.93-.32A4.75,4.75,0,0,1,415.84,79.14Zm.91,0a4.45,4.45,0,0,0,.41,2.35,1.2,1.2,0,0,0,1,.58,1.23,1.23,0,0,0,1-.59,4.54,4.54,0,0,0,.41-2.34,4.56,4.56,0,0,0-.41-2.35,1.23,1.23,0,0,0-1-.58,1.12,1.12,0,0,0-1,.51A4.58,4.58,0,0,0,416.75,79.14Z"/><path class="cls-6" d="M421.9,82.67v-1h1v1Z"/><path class="cls-6" d="M428.8,81.83v.84h-4.73a1.6,1.6,0,0,1,.1-.61,3.33,3.33,0,0,1,.58-1A9.67,9.67,0,0,1,425.9,80a9.37,9.37,0,0,0,1.58-1.51,1.84,1.84,0,0,0,.41-1.06,1.2,1.2,0,0,0-.37-.88,1.52,1.52,0,0,0-2,0,1.43,1.43,0,0,0-.39,1.06l-.9-.1a2.21,2.21,0,0,1,.7-1.54,2.38,2.38,0,0,1,1.62-.53,2.26,2.26,0,0,1,1.63.57,1.9,1.9,0,0,1,.6,1.42,2.21,2.21,0,0,1-.17.84,3.47,3.47,0,0,1-.59.88,13,13,0,0,1-1.35,1.26q-.8.66-1,.9a3.09,3.09,0,0,0-.37.48Z"/><path class="cls-6" d="M415.84,41.06A6.73,6.73,0,0,1,416.1,39a2.64,2.64,0,0,1,.78-1.19,2,2,0,0,1,1.3-.42,2.18,2.18,0,0,1,1,.23,2,2,0,0,1,.72.67,4,4,0,0,1,.44,1.06,7,7,0,0,1,.16,1.7,6.63,6.63,0,0,1-.26,2,2.58,2.58,0,0,1-.77,1.2,2.19,2.19,0,0,1-2.93-.32A4.75,4.75,0,0,1,415.84,41.06Zm.91,0a4.43,4.43,0,0,0,.41,2.34,1.21,1.21,0,0,0,1,.59,1.23,1.23,0,0,0,1-.59,4.54,4.54,0,0,0,.41-2.34,4.53,4.53,0,0,0-.41-2.35,1.23,1.23,0,0,0-1-.58,1.12,1.12,0,0,0-1,.51A4.56,4.56,0,0,0,416.75,41.06Z"/><path class="cls-6" d="M421.9,44.59v-1h1v1Z"/><path class="cls-6" d="M427,44.59V42.87h-3.11v-.8l3.27-4.64h.72v4.64h1v.8h-1v1.72Zm0-2.52V38.84l-2.24,3.23Z"/><rect class="cls-1" x="379.43" y="11.96" width="390" height="214"/><path d="M344.57,12.87V10.3h-4.66V9.09l4.9-7h1.08v7h1.45V10.3h-1.45v2.57Zm0-3.78V4.25l-3.36,4.84Z"/><path class="cls-8" d="M182.26,53.72c-18.63-4.88-35.27,12.44-37.44,27"/><polygon class="cls-6" points="141.71 78.07 144.98 79.63 148.37 78.35 144.71 86.1 141.71 78.07"/><path class="cls-8" d="M138,102.88c-20.61-8.09-37.26,20.37-44.46,34.36"/><polygon class="cls-6" points="91.76 133.48 94.09 136.25 97.71 136.49 91.16 142.04 91.76 133.48"/><path class="cls-8" d="M80.38,134C76.78,83.09,183.46-16.47,324.6,16.38"/><polygon class="cls-6" points="319.19 20.88 322.78 16.03 321.79 10.08 333.29 18.56 319.19 20.88"/><path class="cls-8" d="M344.65,32.57q0,3-.09,6"/><path class="cls-9" d="M343.84,50.13c-9.92,104.48-110.06,140-244.89,163"/><path class="cls-8" d="M93.24,214.07l-5.92,1"/><polygon class="cls-6" points="90.55 208.82 89.14 214.69 92.38 219.78 78.48 216.47 90.55 208.82"/><g class="cls-10"><rect class="cls-11" x="491.43" y="-77.15" width="64" height="454.5"/></g><path class="cls-6" d="M72.68,201.37v-1.06h3.24v1.06Z"/><path class="cls-6" d="M76.79,201.69l1.11-.09a2,2,0,0,0,.57,1.22,1.55,1.55,0,0,0,1.08.4,1.69,1.69,0,0,0,1.29-.57,2.16,2.16,0,0,0,.53-1.52,2,2,0,0,0-.51-1.43,1.76,1.76,0,0,0-1.33-.52,1.9,1.9,0,0,0-.92.23,1.94,1.94,0,0,0-.64.6l-1-.13.83-4.41h4.27v1H78.65l-.46,2.31a2.81,2.81,0,0,1,1.62-.54,2.56,2.56,0,0,1,1.9.78,2.71,2.71,0,0,1,.78,2,3.16,3.16,0,0,1-.68,2,3,3,0,0,1-4.17.38A2.51,2.51,0,0,1,76.79,201.69Z"/><path class="cls-6" d="M84.06,203.94v-1.2h1.2v1.2Z"/><path class="cls-6" d="M86.8,199.71a7.81,7.81,0,0,1,.31-2.45,3.11,3.11,0,0,1,.93-1.44,2.43,2.43,0,0,1,1.56-.5,2.49,2.49,0,0,1,1.21.28,2.2,2.2,0,0,1,.86.8,4.29,4.29,0,0,1,.54,1.28,8.45,8.45,0,0,1,.19,2,7.79,7.79,0,0,1-.31,2.44,3,3,0,0,1-.93,1.43,2.61,2.61,0,0,1-3.51-.38A5.63,5.63,0,0,1,86.8,199.71Zm1.08,0a5.34,5.34,0,0,0,.5,2.81,1.41,1.41,0,0,0,2.44,0,8.17,8.17,0,0,0,0-5.63,1.46,1.46,0,0,0-1.23-.7,1.35,1.35,0,0,0-1.16.62A5.36,5.36,0,0,0,87.88,199.71Z"/><path class="cls-6" d="M99,202.93v1H93.34a1.84,1.84,0,0,1,.12-.73,4,4,0,0,1,.7-1.14,9.43,9.43,0,0,1,1.38-1.3A12,12,0,0,0,97.43,199a2.17,2.17,0,0,0,.49-1.27,1.41,1.41,0,0,0-.45-1.06,1.83,1.83,0,0,0-2.39,0,1.77,1.77,0,0,0-.46,1.27l-1.08-.12a2.62,2.62,0,0,1,.84-1.84,2.81,2.81,0,0,1,2-.64,2.74,2.74,0,0,1,2,.68,2.27,2.27,0,0,1,.72,1.7,2.59,2.59,0,0,1-.21,1,3.91,3.91,0,0,1-.7,1.05,18,18,0,0,1-1.62,1.51c-.64.53-1,.89-1.22,1.08a3.74,3.74,0,0,0-.45.57Z"/><path class="cls-6" d="M108,228.49a10.69,10.69,0,0,1-1.48-2.58,8.12,8.12,0,0,1-.15-5.73,11.27,11.27,0,0,1,1.63-3h.76a17.37,17.37,0,0,0-.94,1.74,8.82,8.82,0,0,0-.56,1.69,9.65,9.65,0,0,0-.26,2.2,10.55,10.55,0,0,0,1.76,5.63Z"/><path class="cls-6" d="M114,226v-.78a2,2,0,0,1-1.74.93,2.47,2.47,0,0,1-1.37-.41,2.74,2.74,0,0,1-1-1.15,3.92,3.92,0,0,1-.34-1.69,4.35,4.35,0,0,1,.31-1.69,2.46,2.46,0,0,1,.93-1.16,2.51,2.51,0,0,1,1.39-.41,2,2,0,0,1,1,.24,2.07,2.07,0,0,1,.72.62v-3.08h1V226Zm-3.34-3.1a2.69,2.69,0,0,0,.51,1.79,1.52,1.52,0,0,0,1.19.59,1.48,1.48,0,0,0,1.17-.57A2.6,2.6,0,0,0,114,223a2.93,2.93,0,0,0-.5-1.88,1.5,1.5,0,0,0-1.21-.6,1.46,1.46,0,0,0-1.17.58A2.8,2.8,0,0,0,110.65,222.86Z"/><path class="cls-6" d="M116.63,218.59v-1.21h1.06v1.21Zm0,7.37v-6.22h1.06V226Z"/><path class="cls-6" d="M121,226l-2.37-6.22h1.12l1.33,3.73c.15.4.28.82.4,1.25.09-.33.22-.72.39-1.18l1.39-3.8h1.08L122,226Z"/><path class="cls-6" d="M129.55,224l1.09.14a2.68,2.68,0,0,1-.95,1.48,2.9,2.9,0,0,1-1.79.53,2.8,2.8,0,0,1-2.16-.85,3.28,3.28,0,0,1-.8-2.35,3.44,3.44,0,0,1,.81-2.44,2.74,2.74,0,0,1,2.1-.87,2.62,2.62,0,0,1,2,.85,3.37,3.37,0,0,1,.8,2.39c0,.06,0,.16,0,.28H126a2.36,2.36,0,0,0,.58,1.57,1.71,1.71,0,0,0,1.3.55,1.56,1.56,0,0,0,1-.31A2,2,0,0,0,129.55,224Zm-3.46-1.7h3.47a2,2,0,0,0-.4-1.18,1.59,1.59,0,0,0-1.3-.61,1.64,1.64,0,0,0-1.22.49A1.88,1.88,0,0,0,126.09,222.26Z"/><path class="cls-6" d="M132,226v-6.22h1v.95a2.56,2.56,0,0,1,.67-.88,1.19,1.19,0,0,1,.68-.21,2,2,0,0,1,1.08.34l-.36,1a1.52,1.52,0,0,0-.77-.23,1,1,0,0,0-.62.21,1.11,1.11,0,0,0-.4.58,4.3,4.3,0,0,0-.17,1.23V226Z"/><path class="cls-6" d="M135.77,226.48l1,.15a1,1,0,0,0,.36.69,1.72,1.72,0,0,0,1.07.3,1.83,1.83,0,0,0,1.13-.3,1.36,1.36,0,0,0,.54-.82,6.44,6.44,0,0,0,.08-1.35,2.18,2.18,0,0,1-1.72.81,2.34,2.34,0,0,1-2-.92,3.57,3.57,0,0,1-.7-2.22,4.08,4.08,0,0,1,.32-1.65,2.63,2.63,0,0,1,.93-1.16,2.56,2.56,0,0,1,1.44-.41,2.24,2.24,0,0,1,1.82.89v-.75h1v5.38a5.24,5.24,0,0,1-.29,2.06,2.23,2.23,0,0,1-.94,1,3.32,3.32,0,0,1-1.58.35,3,3,0,0,1-1.8-.5A1.68,1.68,0,0,1,135.77,226.48Zm.87-3.74a2.68,2.68,0,0,0,.49,1.79,1.55,1.55,0,0,0,1.22.56,1.52,1.52,0,0,0,1.21-.56,3.25,3.25,0,0,0,0-3.48,1.6,1.6,0,0,0-1.22-.58,1.54,1.54,0,0,0-1.2.58A2.51,2.51,0,0,0,136.64,222.74Z"/><path class="cls-6" d="M146.89,224l1.09.14a2.68,2.68,0,0,1-.95,1.48,2.89,2.89,0,0,1-1.78.53,2.84,2.84,0,0,1-2.17-.85,3.28,3.28,0,0,1-.8-2.35,3.44,3.44,0,0,1,.81-2.44,2.74,2.74,0,0,1,2.1-.87,2.66,2.66,0,0,1,2,.85,3.36,3.36,0,0,1,.79,2.39c0,.06,0,.16,0,.28h-4.64a2.41,2.41,0,0,0,.58,1.57,1.71,1.71,0,0,0,1.3.55,1.56,1.56,0,0,0,1-.31A1.93,1.93,0,0,0,146.89,224Zm-3.46-1.7h3.48a2.11,2.11,0,0,0-.4-1.18,1.61,1.61,0,0,0-1.31-.61A1.66,1.66,0,0,0,144,221,1.92,1.92,0,0,0,143.43,222.26Z"/><path class="cls-6" d="M153.35,226v-.78a2,2,0,0,1-1.74.93,2.45,2.45,0,0,1-1.37-.41,2.74,2.74,0,0,1-1-1.15,3.92,3.92,0,0,1-.34-1.69,4.35,4.35,0,0,1,.31-1.69,2.46,2.46,0,0,1,.93-1.16,2.49,2.49,0,0,1,1.39-.41,2.05,2.05,0,0,1,1,.24,2.16,2.16,0,0,1,.72.62v-3.08h1V226Zm-3.34-3.1a2.69,2.69,0,0,0,.51,1.79,1.52,1.52,0,0,0,1.19.59,1.48,1.48,0,0,0,1.17-.57,2.6,2.6,0,0,0,.48-1.72,2.94,2.94,0,0,0-.49-1.88,1.51,1.51,0,0,0-1.21-.6,1.49,1.49,0,0,0-1.18.58A2.86,2.86,0,0,0,150,222.86Z"/><path class="cls-6" d="M156.67,228.49h-.75a10.53,10.53,0,0,0,1.75-5.63,9.56,9.56,0,0,0-.25-2.19,9,9,0,0,0-.56-1.68,19.37,19.37,0,0,0-.94-1.76h.75a11,11,0,0,1,1.63,3,8.12,8.12,0,0,1-.15,5.73A10.69,10.69,0,0,1,156.67,228.49Z"/></svg>