<svg id="Layer_1" data-name="Layer 1" xmlns="http://www.w3.org/2000/svg" viewBox="0 0 607.5 466.89"><defs><style>.cls-1{font-size:24px;font-family:MyriadPro-Regular, Myriad Pro;}.cls-2{fill:#bbbdbf;}.cls-3{fill:#fff;}.cls-4{fill:#231f20;}.cls-5{fill:#f2f2f2;stroke-width:1.5px;}.cls-5,.cls-6,.cls-9{stroke:#000;}.cls-5,.cls-6,.cls-7,.cls-8,.cls-9{stroke-miterlimit:10;}.cls-6{fill:none;stroke-width:1.66px;}.cls-7{fill:#e6e6e6;stroke-width:0.69px;}.cls-7,.cls-8{stroke:#231f20;}.cls-8{fill:#999;stroke-width:0.5px;}.cls-9{fill:#fcee21;stroke-width:0.3px;}</style></defs><title>SamplingReflectionFunctions</title><text class="cls-1" transform="translate(92.89 98.57)">p</text><text class="cls-1" transform="translate(106.55 106.56) scale(0.58)">0</text><text class="cls-1" transform="translate(165.22 228.1)">p</text><text class="cls-1" transform="translate(178.87 236.1) scale(0.58)">1</text><text class="cls-1" transform="translate(336.85 196.24)">p</text><text class="cls-1" transform="translate(350.51 204.24) scale(0.58)">2</text><text class="cls-1" transform="translate(454.48 71.41)">p</text><text class="cls-1" transform="translate(468.14 79.4) scale(0.58)">3</text><path class="cls-2" d="M69.17,60.8c-1.61,16.88-11.1,26.48-26.32,26.69C38.53,67.18,29.57,52.67,22.61,42.22c.44.25.85.53,1.32.8C36.35,50.55,49.15,58.34,69.17,60.8Z"/><path d="M42.85,87.49c15.22-.21,24.71-9.81,26.32-26.69C49.15,58.34,36.35,50.55,23.93,43c-.47-.27-.88-.55-1.32-.8C29.57,52.67,38.53,67.18,42.85,87.49ZM72,61.1c-1.74,18-12.31,28.83-28.61,29.29.46,2.54.89,5.15,1.2,7.87l-2.86.31C38.58,71.12,26.34,53,18.25,41L16.6,38.44a3.66,3.66,0,0,0,1.17-.78,4.21,4.21,0,0,0,.76-1.26c2.33,1.38,4.62,2.74,6.89,4.13C40.14,49.47,54,57.94,79.34,58.68l-.08,2.87C76.75,61.49,74.35,61.32,72,61.1Z"/><path class="cls-3" d="M60.19,79c-4.53,4.4-10.46,5.63-13.25,2.76S45.56,73,50.09,68.56s10.46-5.63,13.25-2.75S64.72,74.58,60.19,79Z"/><path class="cls-4" d="M58.46,79c-2,1.78-4.9,1.83-6.43.09s-1.15-4.58.87-6.37,4.9-1.83,6.44-.1S60.47,77.22,58.46,79Z"/><path class="cls-5" d="M492.51,232.58c2.29,1.92,46.32,37.88,46.32,37.88v8.67H523.12V455.6h-10.8L501.21,303.53H487.73L485.38,399H476l-9.61-95.4-316.92,3.25-9.36,95.36H130l-3.37-95.46h-7.75L106.35,456.22l-11.28,0L92.89,282.66s-11.67-3.1-12.12-3.85c-.71-1.18-.67-6.3,0-7.39,1-1.55,35.4-32.3,38.06-35.63C124.56,235.79,490.2,230.65,492.51,232.58Z"/><polyline class="cls-5" points="487.73 303.53 466.18 303.53 149.37 306.74 126.58 306.74"/><polyline class="cls-5" points="92.89 282.66 501.21 279.13 523.13 279.13"/><line class="cls-6" x1="79.36" y1="98.57" x2="164.22" y2="247.04"/><line class="cls-6" x1="361.6" y1="213.07" x2="164.22" y2="247.04"/><line class="cls-6" x1="361.6" y1="213.07" x2="485.5" y2="80.72"/><path d="M71.34,97.77a7,7,0,1,0,7-7A7,7,0,0,0,71.34,97.77Z"/><path class="cls-7" d="M371.31,242.39s.32,9.66,2.13,12.28,13.15,12.45,39.33,12,34.7-6.54,37.39-7.7c9.09-3.93,11.14-14.48,11.14-14.48Z"/><path class="cls-7" d="M450.88,219.7c7.5,3.07,23.22,6.41,23.18,17.89,0,11.86-25.06,22.24-45.7,23.71-19.23,1.38-42.37,2.58-63.25-9-8.85-5.15-13.15-15-8.48-20.75,2.21-3.69,12.73-11.9,25.47-13.63S450.88,219.7,450.88,219.7Z"/><path class="cls-7" d="M375.88,221.94c-8.93,4-21.31,10.06-15.47,18.66,6.79,10,21.16,16.53,53.09,16s46.07-5.31,54.79-15.37-8.36-16.95-11.92-18.1-9.58-2.76-9.58-2.76l-64.61-2.09Z"/><path class="cls-7" d="M394.5,240.55c-3.4-.33-6.1-.58-19.12-1.48s-16-6.31-18.34-10.32-3.28-9.5-.25-13.18,8.6-3.77,12.45-4.51,2.46-.65,6.35-2.12C375.59,208.94,397.9,240.87,394.5,240.55Zm-31.81-17a10.91,10.91,0,0,0,5.24,7.82c2.7,1.78,5.94.65,7.66-.25s1.92-4.13,1.35-6.1-1.05-5.56-4.9-7.16C369.17,216.63,361.09,216.14,362.69,223.51Z"/><path class="cls-7" d="M455.05,204c-3.44,15-5.86,23.17-9,28.46s-7.24,9.95-12.52,15.72c-1.77,1.92-7.5,4.79-15.85,4.54s-15.11-1.1-20-4.91-10.32-11.67-11.92-13.26-11-21.17-10.88-30.55,79.29-1.07,79.29-1.07"/><path class="cls-7" d="M415,190.24c8.78,0,30.44.31,38.38,9.24s-13.18,19.4-47.66,17.19-31-12.2-30.62-14.08C378.33,194.56,399,190.18,415,190.24Z"/><path class="cls-8" d="M449.74,204c0,5-15.73,9.09-35.13,9.09S379.48,209,379.48,204s15.73-9.09,35.13-9.09S449.74,199,449.74,204Z"/><path d="M157.25,247a7,7,0,1,0,7-7A7,7,0,0,0,157.25,247Z"/><path d="M478.52,80.72a7,7,0,1,0,7-7A7,7,0,0,0,478.52,80.72Z"/><path d="M354.63,213.07a7,7,0,1,0,7-7A7,7,0,0,0,354.63,213.07Z"/><polyline class="cls-9" points="536.99 64.1 546.94 81.1 540.25 62.57 553.16 77.45 543.18 60.46 558.61 72.72 545.67 57.86 563.09 67.07 547.64 54.84 566.46 60.7 549.03 51.51 568.6 53.81 549.77 47.98 569.43 46.65 549.86 44.38 568.94 39.45 549.28 40.82 567.13 32.47 548.06 37.42 564.08 25.94 546.24 34.31 559.87 20.08 543.87 31.59 554.66 15.1 541.05 29.35 548.62 11.16 537.86 27.67 541.96 8.39 534.41 26.6 534.9 6.9 530.83 26.18 527.69 6.73 527.24 26.43 520.58 7.88 523.75 27.33 513.79 10.32 520.48 28.86 507.57 13.97 517.55 30.96 502.13 18.7 515.06 33.57 497.64 24.35 513.09 36.59 494.27 30.73 511.71 39.92 492.14 37.62 510.96 43.45 491.3 44.78 510.87 47.05 491.79 51.97 511.45 50.61 493.6 58.95 512.67 54 496.66 65.48 514.5 57.11 500.87 71.34 516.86 59.83 506.08 76.33 519.69 62.07 512.12 80.27 522.87 63.76 518.78 83.03 526.32 64.83 525.83 84.53 529.9 65.25 533.04 84.7 533.5 65 540.16 83.55 536.99 64.1"/></svg>