<svg id="Layer_1" data-name="Layer 1" xmlns="http://www.w3.org/2000/svg" viewBox="0 0 616.273 478.281"><defs><style>.cls-1,.cls-10,.cls-13,.cls-15,.cls-16,.cls-17,.cls-18,.cls-19{font-size:24px;}.cls-1,.cls-12,.cls-13,.cls-16,.cls-18,.cls-19{font-family:MyriadPro-Regular, Myriad Pro;}.cls-2{fill:#bbbdbf;}.cls-3{fill:#fff;}.cls-4{fill:#231f20;}.cls-5{fill:#f2f2f2;}.cls-14,.cls-5,.cls-6,.cls-9{stroke:#000;}.cls-14,.cls-5,.cls-6,.cls-7,.cls-8,.cls-9{stroke-miterlimit:10;}.cls-14,.cls-5{stroke-width:1.5px;}.cls-14,.cls-6{fill:none;}.cls-6{stroke-width:1.658px;}.cls-7{fill:#e6e6e6;stroke-width:0.694px;}.cls-7,.cls-8{stroke:#231f20;}.cls-8{fill:#999;stroke-width:0.5px;}.cls-9{fill:#fcee21;stroke-width:0.3px;}.cls-10,.cls-15,.cls-17{font-family:MyriadPro-It, Myriad Pro;}.cls-11,.cls-15{font-style:italic;}.cls-13,.cls-19{letter-spacing:0em;}.cls-16{letter-spacing:0em;}.cls-17,.cls-18,.cls-19,.cls-20{opacity:0.8;}</style></defs><title>Artboard 20</title><text class="cls-1" transform="translate(104.317 98.571)">p</text><text class="cls-1" transform="translate(117.972 106.563) scale(0.583)">0</text><text class="cls-1" transform="translate(176.64 228.104)">p</text><text class="cls-1" transform="translate(190.295 236.096) scale(0.583)">1</text><text class="cls-1" transform="translate(348.275 196.243)">p</text><text class="cls-1" transform="translate(361.931 204.235) scale(0.583)">2</text><text class="cls-1" transform="translate(465.905 71.409)">p</text><text class="cls-1" transform="translate(479.56 79.401) scale(0.583)">3</text><g id="_Group_" data-name="&lt;Group&gt;"><path class="cls-2" d="M80.589,60.8c-1.6,16.873-11.1,26.474-26.313,26.687-4.32-20.307-13.287-34.818-20.244-45.272.44.25.856.527,1.325.8C47.772,50.548,60.572,58.336,80.589,60.8Z"/><path d="M54.276,87.49c15.214-.213,24.71-9.814,26.313-26.687C60.572,58.336,47.772,50.548,35.357,43.018c-.469-.273-.885-.55-1.325-.8C40.989,52.672,49.956,67.183,54.276,87.49ZM83.456,61.1c-1.739,18.04-12.31,28.83-28.616,29.282.466,2.546.895,5.157,1.2,7.875l-2.861.311c-3.178-27.45-15.413-45.6-23.5-57.615l-1.659-2.512a3.63,3.63,0,0,0,1.179-.788,4.164,4.164,0,0,0,.755-1.256c2.327,1.382,4.621,2.739,6.893,4.133,14.719,8.94,28.6,17.409,53.918,18.146l-.081,2.875C88.17,61.491,85.776,61.321,83.456,61.1Z"/></g><path class="cls-3" d="M71.614,78.966c-4.527,4.4-10.461,5.635-13.251,2.764-2.793-2.887-1.379-8.776,3.147-13.166s10.467-5.631,13.256-2.758S76.148,74.577,71.614,78.966Z"/><path class="cls-4" d="M69.881,79.016c-2.019,1.786-4.9,1.833-6.431.1s-1.145-4.579.874-6.37,4.9-1.837,6.436-.1S71.9,77.224,69.881,79.016Z"/><path class="cls-5" d="M503.929,232.577c2.3,1.926,46.32,37.883,46.32,37.883v8.669h-15.7V455.6h-10.8L512.629,303.532H499.157L496.8,398.987h-9.431l-9.6-95.4-316.921,3.256L151.481,402.2H141.369L138,306.742h-7.745L117.777,456.216l-11.282.03-2.178-173.585s-11.679-3.1-12.128-3.851c-.711-1.182-.665-6.3,0-7.385.96-1.553,35.4-32.3,38.065-35.638C135.978,235.787,501.627,230.648,503.929,232.577Z"/><polyline class="cls-5" points="499.157 303.532 477.598 303.532 160.795 306.742 137.999 306.742"/><polyline class="cls-5" points="104.317 282.661 512.629 279.129 534.548 279.129"/><line class="cls-6" x1="90.784" y1="98.571" x2="175.641" y2="247.035"/><line class="cls-6" x1="373.028" y1="213.071" x2="175.641" y2="247.035"/><line class="cls-6" x1="373.028" y1="213.071" x2="496.918" y2="80.718"/><path d="M82.758,97.769A6.97,6.97,0,1,0,89.732,90.8,6.972,6.972,0,0,0,82.758,97.769Z"/><path class="cls-7" d="M382.729,242.388s.328,9.662,2.129,12.283,13.156,12.446,39.334,11.955,34.7-6.532,37.395-7.7c9.09-3.931,11.135-14.482,11.135-14.482Z"/><path class="cls-7" d="M462.308,219.7c7.494,3.071,23.214,6.412,23.176,17.891-.044,11.856-25.059,22.233-45.7,23.707-19.238,1.375-42.375,2.581-63.257-8.967-8.842-5.158-13.143-14.985-8.475-20.758,2.212-3.684,12.73-11.9,25.465-13.628S462.308,219.7,462.308,219.7Z"/><path class="cls-7" d="M387.305,221.94c-8.932,3.986-21.317,10.06-15.472,18.657,6.786,9.977,21.158,16.53,53.092,16.037s46.064-5.317,54.783-15.373-8.352-16.949-11.915-18.1-9.58-2.764-9.58-2.764L393.6,218.312Z"/><path class="cls-7" d="M405.921,240.546c-3.4-.323-6.1-.576-19.119-1.476s-15.967-6.307-18.341-10.32-3.278-9.5-.246-13.182,8.6-3.767,12.447-4.5,2.456-.655,6.35-2.128C387.012,208.936,409.32,240.871,405.921,240.546Zm-31.81-17.036a10.921,10.921,0,0,0,5.241,7.821c2.7,1.78,5.942.651,7.66-.251s1.92-4.13,1.347-6.1-1.044-5.568-4.9-7.164C380.6,216.633,372.513,216.141,374.111,223.51Z"/><path class="cls-7" d="M466.471,203.98c-3.438,14.948-5.863,23.174-8.993,28.455-3.078,5.188-7.248,9.953-12.53,15.724-1.764,1.926-7.494,4.789-15.846,4.545s-15.109-1.105-20.021-4.916-10.318-11.666-11.915-13.263-10.961-21.169-10.886-30.545,79.294-1.075,79.294-1.075"/><path class="cls-7" d="M426.462,190.243c8.78.034,30.441.309,38.384,9.233s-13.184,19.407-47.659,17.2-31.033-12.2-30.624-14.087C389.756,194.564,410.432,190.182,426.462,190.243Z"/><path class="cls-8" d="M461.162,203.98c0,5.021-15.728,9.091-35.13,9.091S390.9,209,390.9,203.98s15.728-9.088,35.13-9.088S461.162,198.96,461.162,203.98Z"/><path d="M168.671,247.032a6.971,6.971,0,1,0,6.973-6.968A6.976,6.976,0,0,0,168.671,247.032Z"/><path d="M489.948,80.715a6.971,6.971,0,1,0,6.973-6.967A6.976,6.976,0,0,0,489.948,80.715Z"/><path d="M366.058,213.067a6.971,6.971,0,1,0,6.973-6.967A6.975,6.975,0,0,0,366.058,213.067Z"/><polyline class="cls-9" points="548.41 64.096 558.366 81.101 551.675 62.567 564.586 77.453 554.604 60.463 570.031 72.723 557.096 57.858 574.513 67.074 559.067 54.838 577.881 60.698 560.449 51.508 580.02 53.811 561.197 47.981 580.857 46.648 561.283 44.376 580.363 39.453 560.705 40.817 578.557 32.472 559.484 37.424 575.498 25.942 557.659 34.314 571.291 20.084 555.295 31.592 566.079 15.1 552.47 29.351 560.04 11.158 549.282 27.667 553.38 8.393 545.838 26.598 546.325 6.898 542.257 26.179 539.116 6.726 538.66 26.426 531.998 7.881 535.169 27.329 525.213 10.324 531.904 28.859 518.992 13.973 528.975 30.962 513.548 18.702 526.483 33.568 509.066 24.351 524.512 36.587 505.698 30.728 523.129 39.917 503.559 37.615 522.382 43.445 502.722 44.777 522.296 47.049 503.215 51.972 522.873 50.609 505.022 58.953 524.095 54.001 508.081 65.484 525.919 57.111 512.288 71.341 528.284 59.833 517.5 76.326 531.109 62.074 523.538 80.268 534.297 63.758 530.199 83.033 537.741 64.828 537.254 84.527 541.322 65.246 544.463 84.7 544.919 65 551.581 83.545 548.41 64.096"/><text class="cls-10" transform="translate(398.934 170.438) rotate(-49.224)"><tspan class="cls-11">G</tspan><tspan class="cls-12" x="14.951" y="0">(p</tspan></text><text class="cls-1" transform="translate(428.121 148.833) rotate(-49.224) scale(0.583)">2</text><text class="cls-1" transform="translate(426.757 138.178) rotate(-49.224)"><tspan xml:space="preserve">   p</tspan></text><text class="cls-1" transform="translate(451.696 121.498) rotate(-49.224) scale(0.583)">3 </text><text class="cls-13" transform="translate(452.269 108.596) rotate(-49.224)">)</text><line class="cls-14" x1="423.468" y1="133.974" x2="429.321" y2="127.187"/><polygon points="426.305 135.265 420.656 137.234 421.774 131.357 426.305 135.265"/><polygon points="431.015 129.804 432.133 123.927 426.484 125.896 431.015 129.804"/><text class="cls-15" transform="translate(515.101 104.743)">L</text><text class="cls-1" transform="translate(525.708 112.735) scale(0.583)">e</text><text class="cls-1" transform="translate(532.718 104.743)">(p</text><text class="cls-1" transform="translate(553.189 112.735) scale(0.583)">3</text><text class="cls-1" transform="translate(560.367 104.743)"><tspan xml:space="preserve">   p</tspan></text><text class="cls-1" transform="translate(589.286 112.735) scale(0.583)">2 </text><text class="cls-16" transform="translate(599.43 104.743)">)</text><line class="cls-14" x1="557.431" y1="99.508" x2="570.698" y2="99.508"/><polygon points="569.823 102.499 575.004 99.508 569.823 96.516 569.823 102.499"/><path d="M127.338,269.974l1.9-10.057H127.7l.288-1.56h1.56l.12-.6a6.784,6.784,0,0,1,1.9-4.057,4.1,4.1,0,0,1,2.76-1.032,3.15,3.15,0,0,1,1.585.313l-.433,1.584a2.835,2.835,0,0,0-1.175-.216c-1.584,0-2.353,1.536-2.689,3.456l-.1.552h2.591l-.311,1.56h-2.569l-1.919,10.057Z"/><path d="M139.507,253.317a15.819,15.819,0,0,0-3.025,9.816,16.178,16.178,0,0,0,3.025,9.745H137.85a15.514,15.514,0,0,1-3.144-9.745,15.836,15.836,0,0,1,3.144-9.816Z"/><path d="M141.737,262.15c0-1.489-.048-2.689-.1-3.793h1.9l.1,1.992h.048a4.566,4.566,0,0,1,4.127-2.256c2.809,0,4.921,2.376,4.921,5.9,0,4.177-2.544,6.24-5.28,6.24a4.07,4.07,0,0,1-3.576-1.824h-.049v6.313h-2.088Zm2.088,3.1a4.732,4.732,0,0,0,.1.864,3.259,3.259,0,0,0,3.168,2.472c2.232,0,3.528-1.823,3.528-4.488,0-2.328-1.224-4.32-3.456-4.32a3.664,3.664,0,0,0-3.337,3.48Z"/><path d="M160.316,273.32c0,3.093-1.147,4.8-3.163,4.8-1.776,0-2.98-1.665-3.008-4.674,0-3.05,1.316-4.729,3.163-4.729C159.224,268.717,160.316,270.424,160.316,273.32Zm-4.939.14c0,2.365.727,3.708,1.847,3.708,1.259,0,1.861-1.469,1.861-3.792,0-2.238-.574-3.708-1.848-3.708C156.16,269.668,155.377,270.983,155.377,273.46Z"/><path d="M172.746,262.15c0-1.489-.048-2.689-.1-3.793h1.9l.095,1.992h.048a4.569,4.569,0,0,1,4.128-2.256c2.809,0,4.921,2.376,4.921,5.9,0,4.177-2.544,6.24-5.28,6.24a4.07,4.07,0,0,1-3.576-1.824h-.048v6.313h-2.089Zm2.089,3.1a4.736,4.736,0,0,0,.1.864,3.258,3.258,0,0,0,3.168,2.472c2.232,0,3.528-1.823,3.528-4.488,0-2.328-1.224-4.32-3.456-4.32a3.371,3.371,0,0,0-3.193,2.616,3.425,3.425,0,0,0-.143.864Z"/><path d="M187.952,270.019h-.027l-1.581.853-.239-.937,1.988-1.064h1.048v9.1h-1.189Z"/><path d="M202.478,262.15c0-1.489-.047-2.689-.095-3.793h1.9l.1,1.992h.048a4.567,4.567,0,0,1,4.128-2.256c2.808,0,4.921,2.376,4.921,5.9,0,4.177-2.544,6.24-5.281,6.24a4.07,4.07,0,0,1-3.576-1.824h-.048v6.313h-2.089Zm2.089,3.1a4.736,4.736,0,0,0,.1.864,3.259,3.259,0,0,0,3.168,2.472c2.232,0,3.528-1.823,3.528-4.488,0-2.328-1.223-4.32-3.456-4.32a3.37,3.37,0,0,0-3.192,2.616,3.425,3.425,0,0,0-.144.864Z"/><path d="M215.012,277.966v-.756l.964-.937c2.324-2.211,3.373-3.386,3.387-4.757a1.623,1.623,0,0,0-1.805-1.778,3.1,3.1,0,0,0-1.931.77l-.392-.867a3.986,3.986,0,0,1,2.574-.924,2.561,2.561,0,0,1,2.786,2.644c0,1.679-1.218,3.037-3.135,4.884l-.728.671v.028h4.086v1.022Z"/><path d="M222.04,272.878a16.243,16.243,0,0,0,3.023-9.816,15.914,15.914,0,0,0-3.023-9.745h1.632a15.283,15.283,0,0,1,3.144,9.768,15.582,15.582,0,0,1-3.144,9.793Z"/><rect x="156.623" y="263.531" width="8.268" height="1.5"/><polygon points="164.015 267.273 169.196 264.281 164.015 261.289 164.015 267.273"/><path class="cls-3" d="M225.248,252.086l-.6-.769h-6.534l2.31,3.175a14.063,14.063,0,0,1,2.64,8.57,15.107,15.107,0,0,1-1.115,5.9,4.567,4.567,0,0,0-4.139-2.242,6.035,6.035,0,0,0-2.914.753,10.061,10.061,0,0,0,.577-3.473c0-4.58-2.912-7.9-6.921-7.9a7.248,7.248,0,0,0-2.36.379l-.006-.115h-5.891l.091,2.086c.049,1.141.093,2.284.093,3.707v.3l-8-4.623v3.707h-7.042a6.8,6.8,0,0,0-6.615-5.438,7.237,7.237,0,0,0-2.359.379l-.006-.115h-5.892l.091,2.086c.05,1.141.094,2.284.094,3.707v.716l-8.731-5.042v3.707h-7.392v1.02c-.546-3.815-3.241-6.458-6.814-6.458a7.246,7.246,0,0,0-2.359.379l-.006-.115h-5.479a12.693,12.693,0,0,1,1.145-1.845l2.382-3.195h-6.475l-.039-.025a5,5,0,0,0-2.656-.624,6.053,6.053,0,0,0-4.086,1.535,7.958,7.958,0,0,0-2.327,4.154h-1.588l-1.026,5.56h1.527l-1.9,10.057h6.035l1.76-9.219c0,.127-.014.249-.015.378a17.68,17.68,0,0,0,3.552,10.954l.6.791h2.879v1.848h6.088v-4.678a6.925,6.925,0,0,0,1.625.189,7.054,7.054,0,0,0,5.428-2.512,8.863,8.863,0,0,0-.733,3.74c.045,4.912,2.726,6.655,5.008,6.655,2.5,0,5.163-1.786,5.163-6.8a10.385,10.385,0,0,0-.3-2.584l8.731-5.04v11.03h6.089v-4.677a6.958,6.958,0,0,0,1.624.188,7.051,7.051,0,0,0,5.5-2.609l1.073,4.223.915-.494v6.609h5.189V267.031h1.334v3.7l8-4.62v10.61h6.089v-4.677a6.97,6.97,0,0,0,1.624.188,7.076,7.076,0,0,0,5.066-2.117l1.629,3.607,2.02-1.682a1.632,1.632,0,0,1,.381-.241,13.715,13.715,0,0,1-2.7,3.034l-1.571,1.526v3.6h9.806v-5.022h-1.47c.015-.021.026-.044.041-.066h3.281l.6-.8a17.615,17.615,0,0,0,3.547-11A17.406,17.406,0,0,0,225.248,252.086Zm-86.766,11.047a15.166,15.166,0,0,1,1.107-5.948l.054,1.258c.05,1.141.094,2.284.094,3.707v7.127A14.57,14.57,0,0,1,138.482,263.133Zm8.608,3.448a1.252,1.252,0,0,1-1.216-.918,2.54,2.54,0,0,1-.049-.418V263.26a2.062,2.062,0,0,1,.081-.372,1.381,1.381,0,0,1,1.256-1.115c1.415,0,1.456,2.083,1.456,2.32C148.618,265.023,148.42,266.581,147.09,266.581Zm6.71,1.722a8.855,8.855,0,0,0,.823-2.793v1.521h1.014A4.74,4.74,0,0,0,153.8,268.3Zm5.219-1.272h3v3.7A5.026,5.026,0,0,0,159.019,267.031Zm19.08-.45a1.252,1.252,0,0,1-1.216-.918,2.529,2.529,0,0,1-.048-.418v-1.986a2.044,2.044,0,0,1,.08-.371,1.38,1.38,0,0,1,1.256-1.115c1.415,0,1.456,2.083,1.456,2.32C179.627,265.023,179.429,266.581,178.1,266.581Zm6.675,1.8a8.144,8.144,0,0,0,.536-1.348h1.982Zm23.057-1.8a1.253,1.253,0,0,1-1.216-.918,2.642,2.642,0,0,1-.048-.418v-1.986a2.044,2.044,0,0,1,.08-.371,1.381,1.381,0,0,1,1.256-1.115c1.415,0,1.456,2.083,1.456,2.32C209.359,265.023,209.161,266.581,207.831,266.581Z"/><polygon points="194.475 267.273 199.656 264.281 194.475 261.289 194.475 267.273"/><rect x="187.083" y="263.531" width="8.268" height="1.5"/><text class="cls-17" transform="translate(126.378 269.974)"><tspan class="cls-11">f</tspan><tspan class="cls-12" x="6.792" y="0">(p</tspan></text><text class="cls-18" transform="translate(153.641 277.966) scale(0.583)">0</text><text class="cls-19" transform="translate(160.819 269.974)"><tspan xml:space="preserve">  p</tspan></text><text class="cls-18" transform="translate(184.65 277.966) scale(0.583)"><tspan xml:space="preserve">1   </tspan></text><text class="cls-18" transform="translate(200.726 269.974)">p</text><text class="cls-18" transform="translate(214.382 277.966) scale(0.583)">2</text><text class="cls-18" transform="translate(221.559 269.974)">)</text><line class="cls-14" x1="156.623" y1="264.281" x2="164.89" y2="264.281"/><polygon points="164.015 267.273 169.196 264.281 164.015 261.289 164.015 267.273"/><line class="cls-14" x1="187.083" y1="264.281" x2="195.351" y2="264.281"/><polygon points="194.475 267.273 199.656 264.281 194.475 261.289 194.475 267.273"/><g class="cls-20"><path d="M380.352,237.965l1.9-10.057h-1.536l.288-1.56h1.559l.121-.6a6.767,6.767,0,0,1,1.9-4.056,4.1,4.1,0,0,1,2.76-1.033,3.15,3.15,0,0,1,1.585.313l-.433,1.584a2.84,2.84,0,0,0-1.176-.216c-1.584,0-2.352,1.536-2.688,3.456l-.1.552h2.592l-.312,1.56h-2.568l-1.92,10.057Z"/><path d="M392.521,221.308a15.819,15.819,0,0,0-3.024,9.816,16.175,16.175,0,0,0,3.024,9.745h-1.656a15.508,15.508,0,0,1-3.144-9.745,15.833,15.833,0,0,1,3.144-9.816Z"/><path d="M394.752,230.141c0-1.489-.048-2.689-.1-3.793h1.9l.1,1.992h.048a4.568,4.568,0,0,1,4.128-2.256c2.809,0,4.921,2.376,4.921,5.9,0,4.177-2.544,6.241-5.28,6.241a4.071,4.071,0,0,1-3.576-1.825h-.049v6.313h-2.088Zm2.088,3.095a4.847,4.847,0,0,0,.1.865,3.259,3.259,0,0,0,3.168,2.471c2.233,0,3.529-1.823,3.529-4.488,0-2.328-1.224-4.32-3.456-4.32a3.37,3.37,0,0,0-3.193,2.616,3.433,3.433,0,0,0-.144.864Z"/><path d="M409.958,238.01h-.027l-1.582.853-.238-.937,1.988-1.064h1.048v9.095h-1.189Z"/><path d="M425.761,230.141c0-1.489-.048-2.689-.1-3.793h1.9l.1,1.992h.048a4.567,4.567,0,0,1,4.128-2.256c2.808,0,4.921,2.376,4.921,5.9,0,4.177-2.544,6.241-5.28,6.241A4.073,4.073,0,0,1,427.9,236.4h-.048v6.313h-2.088Zm2.088,3.095a4.757,4.757,0,0,0,.1.865,3.258,3.258,0,0,0,3.168,2.471c2.233,0,3.528-1.823,3.528-4.488,0-2.328-1.223-4.32-3.456-4.32a3.37,3.37,0,0,0-3.192,2.616,3.433,3.433,0,0,0-.144.864Z"/><path d="M438.3,245.957V245.2l.965-.937c2.323-2.211,3.372-3.386,3.386-4.757a1.622,1.622,0,0,0-1.805-1.777,3.1,3.1,0,0,0-1.931.769l-.392-.867a3.992,3.992,0,0,1,2.575-.924,2.56,2.56,0,0,1,2.785,2.645c0,1.678-1.218,3.036-3.135,4.883l-.727.671v.029H444.1v1.021Z"/><path d="M455.493,230.141c0-1.489-.048-2.689-.1-3.793h1.9l.1,1.992h.047a4.569,4.569,0,0,1,4.128-2.256c2.809,0,4.921,2.376,4.921,5.9,0,4.177-2.544,6.241-5.28,6.241a4.071,4.071,0,0,1-3.576-1.825h-.048v6.313h-2.089Zm2.089,3.095a4.757,4.757,0,0,0,.1.865,3.257,3.257,0,0,0,3.168,2.471c2.232,0,3.528-1.823,3.528-4.488,0-2.328-1.224-4.32-3.456-4.32a3.371,3.371,0,0,0-3.193,2.616,3.432,3.432,0,0,0-.143.864Z"/><path d="M468.32,244.544a4.115,4.115,0,0,0,2.015.573c1.581,0,2.07-1.007,2.056-1.762-.013-1.274-1.161-1.82-2.35-1.82h-.686v-.923h.686c.895,0,2.029-.462,2.029-1.539,0-.727-.462-1.372-1.6-1.372a3.338,3.338,0,0,0-1.818.6l-.322-.9a4.319,4.319,0,0,1,2.379-.7c1.791,0,2.6,1.064,2.6,2.169a2.258,2.258,0,0,1-1.679,2.141v.028a2.369,2.369,0,0,1,2.029,2.337c0,1.455-1.134,2.728-3.316,2.728a4.622,4.622,0,0,1-2.365-.616Z"/><path d="M475.055,240.869a16.243,16.243,0,0,0,3.023-9.816,15.917,15.917,0,0,0-3.023-9.745h1.631a15.277,15.277,0,0,1,3.145,9.768,15.576,15.576,0,0,1-3.145,9.793Z"/><rect x="409.638" y="231.523" width="8.268" height="1.5"/><polygon points="417.03 235.264 422.211 232.272 417.03 229.28 417.03 235.264"/><rect x="440.099" y="231.523" width="8.267" height="1.5"/><path class="cls-3" d="M478.263,220.077l-.6-.769h-6.534l2.309,3.175a14.059,14.059,0,0,1,2.641,8.57,15.032,15.032,0,0,1-1.185,6.053,4.386,4.386,0,0,0-4.18-2.4,6.628,6.628,0,0,0-2.758.618,10.13,10.13,0,0,0,.531-3.338c0-4.58-2.911-7.9-6.921-7.9a7.237,7.237,0,0,0-2.359.379l-.006-.115h-5.892l.091,2.087c.05,1.14.094,2.283.094,3.706v.3l-8-4.622v3.707h-7.042a6.8,6.8,0,0,0-6.615-5.439,7.237,7.237,0,0,0-2.359.379l-.006-.115h-5.892l.091,2.087c.05,1.14.094,2.283.094,3.706v.717l-8.731-5.042v3.707h-7.392v1.019c-.546-3.815-3.241-6.458-6.814-6.458a7.237,7.237,0,0,0-2.359.379l-.006-.115H392.98a12.747,12.747,0,0,1,1.145-1.845l2.382-3.195h-6.475l-.039-.025a5.007,5.007,0,0,0-2.656-.624,6.057,6.057,0,0,0-4.086,1.535,7.951,7.951,0,0,0-2.327,4.154h-1.588l-1.027,5.56h1.528l-1.9,10.057h6.035l1.76-9.219c0,.127-.014.25-.014.378a17.683,17.683,0,0,0,3.551,10.954l.6.791h2.879v1.848h6.088v-4.678a6.913,6.913,0,0,0,1.625.19,7.045,7.045,0,0,0,5.5-2.61l1.074,4.223.915-.494v6.609h5.189V235.023h1.883v3.705l8.731-5.041v11.03h6.088V240.04a6.972,6.972,0,0,0,1.625.189,7.081,7.081,0,0,0,5.066-2.118l1.629,3.607,2.02-1.682a1.632,1.632,0,0,1,.381-.241,13.715,13.715,0,0,1-2.7,3.034l-1.571,1.527v3.6H446.1v-5.021h-1.47a6.01,6.01,0,0,0,1.247-3.583,4.864,4.864,0,0,0-.072-.808l7.687-4.438v10.61h6.089V240.04a6.958,6.958,0,0,0,1.624.189,7.068,7.068,0,0,0,5.2-2.266l.947,2.633v.957l-.081-.052-1.7,4.806,1.309.859a6.6,6.6,0,0,0,3.463.945c3.49,0,5.316-2.378,5.316-4.728a4.587,4.587,0,0,0-.04-.514h2.059l.6-.8a17.615,17.615,0,0,0,3.547-11A17.408,17.408,0,0,0,478.263,220.077ZM391.5,231.124a15.188,15.188,0,0,1,1.106-5.948l.055,1.259c.05,1.14.094,2.283.094,3.706v7.127A14.57,14.57,0,0,1,391.5,231.124Zm8.607,3.448a1.251,1.251,0,0,1-1.215-.918,2.424,2.424,0,0,1-.049-.418v-1.985a2.1,2.1,0,0,1,.081-.372,1.38,1.38,0,0,1,1.256-1.115c1.415,0,1.456,2.083,1.456,2.32C401.633,233.014,401.434,234.572,400.1,234.572Zm6.676,1.8a8.828,8.828,0,0,0,.858-2.869v1.522H409.3Zm24.333-1.8a1.253,1.253,0,0,1-1.216-.918,2.629,2.629,0,0,1-.048-.418V231.25a2.03,2.03,0,0,1,.081-.371,1.38,1.38,0,0,1,1.255-1.115c1.415,0,1.456,2.083,1.456,2.32C432.641,233.014,432.443,234.572,431.113,234.572Zm7.212.451h.873a5.9,5.9,0,0,0-1.02.438Q438.256,235.247,438.325,235.023Zm4.558,0h2.607v2.462A4.376,4.376,0,0,0,442.883,235.023Zm17.963-.451a1.252,1.252,0,0,1-1.216-.918,2.517,2.517,0,0,1-.048-.418V231.25a2.064,2.064,0,0,1,.08-.371,1.381,1.381,0,0,1,1.256-1.115c1.415,0,1.456,2.083,1.456,2.32C462.374,233.014,462.176,234.572,460.846,234.572Z"/><polygon points="447.49 235.264 452.671 232.272 447.49 229.28 447.49 235.264"/></g><text class="cls-10" transform="translate(379.393 237.965)"><tspan class="cls-11">f</tspan><tspan class="cls-12" x="6.792" y="0">(p</tspan></text><text class="cls-1" transform="translate(406.656 245.957) scale(0.583)">1</text><text class="cls-13" transform="translate(413.834 237.965)"><tspan xml:space="preserve">  p</tspan></text><text class="cls-1" transform="translate(437.665 245.957) scale(0.583)"><tspan xml:space="preserve">2   </tspan></text><text class="cls-1" transform="translate(453.741 237.965)">p</text><text class="cls-1" transform="translate(467.397 245.957) scale(0.583)">3</text><text class="cls-1" transform="translate(474.574 237.965)">)</text><line class="cls-14" x1="409.638" y1="232.272" x2="417.905" y2="232.272"/><polygon points="417.03 235.264 422.211 232.272 417.03 229.28 417.03 235.264"/><line class="cls-14" x1="440.098" y1="232.272" x2="448.365" y2="232.272"/><polygon points="447.49 235.264 452.671 232.272 447.49 229.28 447.49 235.264"/><text class="cls-10" transform="translate(243.534 222.368) rotate(-10.254)"><tspan class="cls-11">G</tspan><tspan class="cls-12" x="14.951" y="0">(p</tspan></text><text class="cls-1" transform="translate(279.814 223.927) rotate(-10.254) scale(0.583)">1</text><text class="cls-1" transform="translate(285.455 214.784) rotate(-10.254)"><tspan xml:space="preserve">   p</tspan></text><text class="cls-1" transform="translate(315.335 217.501) rotate(-10.254) scale(0.583)">2 </text><text class="cls-13" transform="translate(323.894 207.831) rotate(-10.254)">)</text><line class="cls-14" x1="285.318" y1="208.499" x2="294.136" y2="206.904"/><polygon points="286.712 211.287 281.081 209.265 285.647 205.399 286.712 211.287"/><polygon points="293.807 210.004 298.373 206.137 292.742 204.116 293.807 210.004"/></svg>