<svg id="Layer_1" data-name="Layer 1" xmlns="http://www.w3.org/2000/svg" viewBox="0 0 450.053 254.673"><defs><style>.cls-1,.cls-2{font-size:24.601px;}.cls-1,.cls-7{font-family:MyriadPro-It, Myriad Pro;font-style:italic;}.cls-2{font-family:MyriadPro-Regular, Myriad Pro;}.cls-3{letter-spacing:-0.024em;}.cls-4,.cls-5,.cls-9{font-size:24.6px;}.cls-4{letter-spacing:-0.02em;}.cls-5{letter-spacing:0em;}.cls-6{letter-spacing:0em;}.cls-7{letter-spacing:0em;}.cls-8{letter-spacing:-0.024em;}.cls-10,.cls-11,.cls-12{fill:none;stroke:#000;stroke-miterlimit:10;}.cls-10{stroke-linecap:square;}.cls-10,.cls-11{stroke-width:2px;}.cls-11{stroke-dasharray:4;}.cls-12{stroke-width:3px;}</style></defs><title>SamplingReflectionFunctions</title><text class="cls-1" transform="translate(50.21 32.343)">L</text><text class="cls-2" transform="translate(61.083 40.535) scale(0.583)">i</text><text class="cls-2" transform="translate(64.439 32.343)">(<tspan class="cls-3" x="6.986" y="0">p</tspan><tspan x="20.395" y="0">, </tspan><tspan class="cls-4" x="30.701" y="0">ω</tspan><tspan class="cls-5" x="47.282" y="0">)</tspan></text><text class="cls-1" transform="translate(306.71 160.855)">L</text><text class="cls-2" transform="translate(317.583 169.047) scale(0.583)">o</text><text class="cls-2" transform="translate(325.457 160.855)"><tspan class="cls-6">(</tspan><tspan class="cls-7" x="6.987" y="0">t</tspan><tspan class="cls-6" x="14.687" y="0">(</tspan><tspan class="cls-8" x="21.674" y="0">p</tspan><tspan x="35.081" y="0">, </tspan><tspan class="cls-4" x="45.389" y="0">ω</tspan><tspan class="cls-9" x="61.97" y="0">), -</tspan><tspan class="cls-4" x="86.815" y="0">ω</tspan><tspan class="cls-9" x="103.396" y="0">)</tspan></text><text class="cls-2" transform="translate(243.021 224.855)">p<tspan class="cls-7" x="13.998" y="0">’ = t</tspan><tspan class="cls-6" x="50.086" y="0">(</tspan><tspan class="cls-8" x="57.073" y="0">p</tspan><tspan x="70.48" y="0">, </tspan><tspan class="cls-4" x="80.788" y="0">ω</tspan><tspan class="cls-9" x="97.369" y="0">)</tspan></text><line class="cls-10" x1="22" y1="32.343" x2="112.382" y2="80.207"/><polygon points="108.035 84.676 119.993 84.237 113.635 74.1 108.035 84.676"/><circle cx="292.017" cy="175.355" r="6.867"/><line class="cls-10" x1="292.017" y1="175.355" x2="201.634" y2="127.49"/><polygon points="205.982 123.021 194.024 123.46 200.381 133.597 205.982 123.021"/><line class="cls-11" x1="45.859" y1="45.114" x2="220.896" y2="137.675"/><line class="cls-12" x1="18.5" y1="175.355" x2="443" y2="175.355"/><circle cx="21.708" cy="32.343" r="6.867"/></svg>