<svg id="Layer_1" data-name="Layer 1" xmlns="http://www.w3.org/2000/svg" xmlns:xlink="http://www.w3.org/1999/xlink" viewBox="0 0 437.159 676.416"><defs><style>.cls-1,.cls-10,.cls-11,.cls-12,.cls-13,.cls-15,.cls-32{fill:none;}.cls-2{font-size:24.652px;}.cls-19,.cls-2,.cls-22,.cls-26,.cls-28,.cls-3{font-family:MyriadPro-Regular, Myriad Pro;}.cls-19,.cls-20,.cls-23,.cls-26,.cls-27,.cls-28,.cls-3,.cls-4,.cls-9{font-size:24.601px;}.cls-17,.cls-23,.cls-24,.cls-29,.cls-4,.cls-6,.cls-7,.cls-8{font-family:MyriadPro-It, Myriad Pro;}.cls-18,.cls-20,.cls-21,.cls-23,.cls-25,.cls-27,.cls-4,.cls-6,.cls-7,.cls-8{font-style:italic;}.cls-19,.cls-5{letter-spacing:-0.006em;}.cls-21,.cls-22,.cls-31,.cls-7,.cls-8{font-size:21px;}.cls-7{letter-spacing:0em;}.cls-10,.cls-11,.cls-12,.cls-13,.cls-15,.cls-32{stroke:#000;stroke-miterlimit:10;}.cls-10,.cls-11{stroke-width:2px;}.cls-11,.cls-12{stroke-linecap:square;}.cls-12,.cls-15{stroke-width:1.5px;}.cls-14{letter-spacing:-0.003em;}.cls-16,.cls-29{font-size:10px;}.cls-17{font-size:15px;}.cls-20,.cls-26,.cls-30{letter-spacing:0em;}.cls-23,.cls-28{letter-spacing:0em;}.cls-24{font-size:20px;}.cls-25{letter-spacing:0em;}.cls-27{letter-spacing:0em;}.cls-32{stroke-width:0.969px;}.cls-33{clip-path:url(#clip-path);}</style><clipPath id="clip-path"><rect class="cls-1" x="7.411" y="523.165" width="273.508" height="14.16" transform="translate(-86.751 31.626) rotate(-9.639)"/></clipPath></defs><title>SamplingReflectionFunctions</title><text class="cls-2" transform="translate(7 666.669)">(c)</text><text class="cls-3" transform="translate(7 207.501)">(a)</text><text class="cls-3" transform="translate(7.21 129.616)">p</text><text class="cls-4" transform="translate(173.219 132.616)">d</text><text class="cls-3" transform="translate(186.134 140.808) scale(0.583)">c</text><text class="cls-4" transform="translate(146.219 63.616)">d</text><text class="cls-3" transform="translate(159.134 71.808) scale(0.583)">c </text><text class="cls-3" transform="translate(168.6 63.616)"><tspan class="cls-5">c</tspan><tspan x="10.874" y="0">os</tspan><tspan class="cls-6" x="34.122" y="0"> </tspan><tspan class="cls-7" x="38.6" y="0">θ</tspan><tspan class="cls-6" x="49.435" y="0"> </tspan></text><text class="cls-8" transform="translate(143.219 101.969)">θ<tspan class="cls-9" x="10.836" y="0"> </tspan></text><text class="cls-4" transform="translate(344.282 86.616)">d</text><text class="cls-3" transform="translate(357.197 94.808) scale(0.583)">c </text><text class="cls-3" transform="translate(366.662 86.616)">sin <tspan class="cls-8" x="34.367" y="0">θ</tspan><tspan class="cls-6" x="45.203" y="0"> </tspan></text><circle cx="12" cy="106.759" r="4.79"/><circle cx="344.282" cy="106.759" r="4.79"/><circle class="cls-10" cx="344.282" cy="106.759" r="79.29"/><line class="cls-11" x1="12" y1="106.759" x2="334.439" y2="50.424"/><line class="cls-11" x1="334.439" y1="50.424" x2="344.282" y2="106.759"/><rect class="cls-12" x="327.694" y="51.331" width="7.25" height="7.25" transform="translate(-4.52 57.152) rotate(-9.793)"/><line class="cls-11" x1="12" y1="106.759" x2="344.282" y2="106.759"/><path class="cls-13" d="M128.6,86.64a117.813,117.813,0,0,1,1.72,19.875"/><text class="cls-3" transform="translate(7.21 362.127)">p</text><text class="cls-3" transform="translate(7 445.627)">(<tspan class="cls-14" x="6.986" y="0">b</tspan><tspan x="20.911" y="0">)</tspan></text><text class="cls-4" transform="translate(173.219 365.127)">d</text><text class="cls-3" transform="translate(186.134 373.32) scale(0.583)">c</text><text class="cls-4" transform="translate(315.219 314.103)">r</text><text class="cls-4" transform="translate(315.219 542.134)">r</text><text class="cls-8" transform="translate(143.219 334.481)">θ<tspan class="cls-9" x="10.836" y="0"> </tspan></text><text class="cls-4" transform="translate(344.282 319.127)">d</text><text class="cls-3" transform="translate(357.197 327.32) scale(0.583)">c </text><text class="cls-3" transform="translate(366.662 319.127)">sin <tspan class="cls-8" x="34.367" y="0">θ</tspan><tspan class="cls-6" x="45.203" y="0"> </tspan></text><circle cx="12" cy="339.27" r="4.79"/><circle cx="344.282" cy="339.27" r="4.79"/><circle class="cls-10" cx="344.282" cy="339.27" r="79.29"/><line class="cls-11" x1="12" y1="339.27" x2="334.439" y2="282.935"/><line class="cls-11" x1="334.439" y1="282.935" x2="344.282" y2="339.27"/><rect class="cls-12" x="327.694" y="283.843" width="7.25" height="7.25" transform="translate(-44.066 60.54) rotate(-9.793)"/><line class="cls-11" x1="12" y1="339.27" x2="344.282" y2="339.27"/><path class="cls-13" d="M128.6,319.151a117.815,117.815,0,0,1,1.72,19.876"/><text class="cls-3" transform="translate(7.21 590.158)">p</text><text class="cls-4" transform="translate(173.219 593.158)">d</text><text class="cls-3" transform="translate(186.134 601.351) scale(0.583)">c</text><text class="cls-8" transform="translate(143.219 562.511)">θ<tspan class="cls-9" x="10.836" y="0"> </tspan></text><text class="cls-8" transform="translate(293.469 560.124)">α<tspan class="cls-9" x="11.36" y="0"> </tspan></text><circle cx="12" cy="567.301" r="4.79"/><circle cx="344.282" cy="567.301" r="4.79"/><circle class="cls-10" cx="344.282" cy="567.301" r="79.29"/><line class="cls-11" x1="12" y1="567.301" x2="334.439" y2="510.966"/><line class="cls-11" x1="334.439" y1="510.966" x2="344.282" y2="567.301"/><rect class="cls-12" x="327.694" y="511.873" width="7.25" height="7.25" transform="translate(-82.85 63.862) rotate(-9.793)"/><line class="cls-11" x1="12" y1="567.301" x2="344.282" y2="567.301"/><path class="cls-13" d="M128.6,547.182a117.815,117.815,0,0,1,1.72,19.876"/><line class="cls-10" x1="344.282" y1="339.27" x2="280.336" y2="292.388"/><line class="cls-10" x1="344.282" y1="567.301" x2="280.336" y2="520.419"/><line class="cls-15" x1="308.497" y1="287.468" x2="276.43" y2="256.212"/><text class="cls-4" transform="translate(7 500.367)">d</text><text class="cls-3" transform="translate(19.915 508.559) scale(0.583)">s<tspan class="cls-16" x="9.742" y="-8.34"> </tspan></text><text class="cls-3" transform="translate(26.831 500.367)">=<tspan class="cls-16" x="14.662" y="0"> </tspan><tspan class="cls-6" x="16.782" y="0">d</tspan></text><text class="cls-3" transform="translate(56.528 508.559) scale(0.583)">c</text><text class="cls-17" transform="translate(62.954 500.367)"><tspan class="cls-18"> </tspan><tspan class="cls-19" x="2.729" y="0">c</tspan><tspan class="cls-3" x="13.604" y="0">os</tspan><tspan class="cls-20" x="36.852" y="0"> </tspan><tspan class="cls-21" x="41.328" y="0">θ</tspan><tspan class="cls-18" x="52.164" y="0"> </tspan><tspan class="cls-22" x="54.894" y="0">-</tspan></text><text class="cls-4" transform="translate(213.115 243.766)">r</text><text class="cls-23" transform="translate(220.938 235.573) scale(0.583)">2</text><text class="cls-24" transform="translate(227.994 243.766)"><tspan class="cls-25"> </tspan><tspan class="cls-26" x="3.641" y="0">-</tspan><tspan class="cls-18" x="11.192" y="0"> </tspan><tspan class="cls-27" x="14.832" y="0">d</tspan></text><text class="cls-28" transform="translate(255.742 251.958) scale(0.583)">c</text><text class="cls-29" transform="translate(262.167 243.766)"><tspan class="cls-18"> </tspan><tspan class="cls-3" x="1.82" y="0" xml:space="preserve"> sin</tspan></text><text class="cls-4" transform="translate(298.354 235.573) scale(0.583)">2</text><text class="cls-4" transform="translate(305.411 243.766)"><tspan class="cls-30"> </tspan><tspan class="cls-31" x="4.477" y="0">θ</tspan></text><text class="cls-4" transform="translate(256.66 235.573) scale(0.583)">2</text><path d="M194.3,236.166l-1.722,1.309-.364-.388,3.371-2.595,5.166,12.029,12.513-26.094c.121-.267.218-.485.534-.485a.471.471,0,0,1,.485.485c0,.073,0,.121-.17.436l-13.265,27.695c-.243.461-.267.485-1.019.485Z"/><line class="cls-32" x1="213.796" y1="220.427" x2="319.9" y2="220.427"/><text class="cls-4" transform="translate(148.365 500.137)">r</text><text class="cls-23" transform="translate(156.188 491.945) scale(0.583)">2</text><text class="cls-24" transform="translate(163.244 500.137)"><tspan class="cls-25"> </tspan><tspan class="cls-26" x="3.641" y="0">-</tspan><tspan class="cls-18" x="11.192" y="0"> </tspan><tspan class="cls-27" x="14.832" y="0">d</tspan></text><text class="cls-28" transform="translate(190.992 508.33) scale(0.583)">c</text><text class="cls-29" transform="translate(197.417 500.137)"><tspan class="cls-18"> </tspan><tspan class="cls-3" x="1.82" y="0" xml:space="preserve"> sin</tspan></text><text class="cls-4" transform="translate(233.604 491.945) scale(0.583)">2</text><text class="cls-4" transform="translate(240.661 500.137)"><tspan class="cls-30"> </tspan><tspan class="cls-31" x="4.477" y="0">θ</tspan></text><text class="cls-4" transform="translate(191.91 491.945) scale(0.583)">2</text><path d="M129.551,492.538l-1.722,1.309-.364-.388,3.371-2.6L136,502.893,148.515,476.8c.121-.267.218-.485.534-.485a.471.471,0,0,1,.485.485c0,.072,0,.121-.17.436L136.1,504.93c-.243.461-.267.485-1.019.485Z"/><line class="cls-32" x1="149.046" y1="476.799" x2="255.15" y2="476.799"/><g class="cls-33"><path d="M122.067,535.032c-1.582.268-104.734,17.788-105.094,17.9-3.7,1.2-4.837,4.889-5.18,6.059-.1.233-.118.264-.54.336-.58.1-.584.072-.678-.482a1.679,1.679,0,0,1,.115-1.077c1-3.532,3.056-6.593,6.878-7.242L136.085,530.4a4.142,4.142,0,0,0,.931-.266c3.205-1.087,4.673-3.939,5.348-5.871.148-.405.17-.435.618-.511.422-.072.452-.05.761.331,2.171,2.723,4.842,3.923,7.65,3.69.294-.023,1.665-.255,2.482-.394L268.913,507.84a15.982,15.982,0,0,1,2.544-.35c3.309.007,5.83,2.236,7.564,4.626.433.632.442.684.5,1.053.1.58.073.585-.481.679-.395.067-.448.076-.589-.117-3.4-4.683-6.772-4.11-8.406-3.833L152.006,529.947c-1.5.255-5.445.03-8.795-4.689a11.731,11.731,0,0,1-2.609,4.917,7.98,7.98,0,0,1-5.042,2.565Z"/></g><path class="cls-13" d="M307.569,566.666a36.538,36.538,0,0,1,6.831-20.708"/></svg>