<svg id="Layer_1" data-name="Layer 1" xmlns="http://www.w3.org/2000/svg" viewBox="0 0 400.667 328.761"><defs><style>.cls-1,.cls-2{font-size:21px;}.cls-1,.cls-4,.cls-8{font-family:MyriadPro-It, Myriad Pro;font-style:italic;}.cls-2,.cls-5,.cls-6,.cls-7{font-family:MyriadPro-Regular, Myriad Pro;}.cls-3{fill:#fff;}.cls-4,.cls-5{font-size:24.6px;}.cls-6,.cls-7,.cls-8{font-size:24.601px;}.cls-7{letter-spacing:0em;}.cls-10,.cls-11,.cls-9{fill:none;stroke:#000;stroke-miterlimit:10;}.cls-10,.cls-9{stroke-width:2px;}.cls-10{stroke-dasharray:4;}</style></defs><title>SamplingReflectionFunctions</title><text class="cls-1" transform="translate(108.984 193.916)">θ</text><text class="cls-2" transform="translate(119.82 200.909) scale(0.583)">max</text><ellipse class="cls-3" cx="43.881" cy="241.144" rx="13.167" ry="12.667"/><text class="cls-4" transform="translate(111.233 245.705)">ω</text><text class="cls-5" transform="translate(127.863 253.897) scale(0.583)">c</text><text class="cls-6" transform="translate(25.925 311.415)">p</text><text class="cls-6" transform="translate(271.165 102.724)">p</text><text class="cls-7" transform="translate(285.163 110.916) scale(0.583)">c</text><text class="cls-8" transform="translate(316.499 172.131)">r</text><circle class="cls-9" cx="277.333" cy="122.58" r="106.79"/><circle cx="277.333" cy="122.58" r="4.79"/><circle cx="25.925" cy="281.989" r="4.79"/><line class="cls-10" x1="277.333" y1="122.58" x2="25.925" y2="281.989"/><line class="cls-9" x1="334.524" y1="212.777" x2="277.333" y2="122.58"/><line class="cls-9" x1="25.925" y1="281.989" x2="188.543" y2="63.229"/><line class="cls-9" x1="25.925" y1="281.989" x2="301.981" y2="226.509"/><line class="cls-9" x1="105.591" y1="231.476" x2="25.925" y2="281.989"/><polygon points="100.128 226.674 114.076 226.096 107.604 238.465 100.128 226.674"/><path class="cls-11" d="M115.035,161.428a150.73,150.73,0,0,1,37.876,40.856"/></svg>