<svg id="Layer_1" data-name="Layer 1" xmlns="http://www.w3.org/2000/svg" viewBox="0 0 462.9 352.16"><defs><style>.cls-1{fill:#fff;}.cls-2,.cls-3,.cls-4,.cls-5{fill:none;}.cls-2,.cls-4{stroke:#231f20;}.cls-4{stroke-linecap:round;stroke-dasharray:6 6;}.cls-5{stroke:#000;stroke-miterlimit:10;stroke-width:2px;}.cls-6{fill:#a6a6a6;}.cls-7{fill:#666;}.cls-12,.cls-8{font-size:24px;}.cls-12,.cls-13,.cls-8{font-family:MyriadPro-Regular, Myriad Pro;}.cls-8{letter-spacing:-0.03em;}.cls-9{letter-spacing:-0.09em;}.cls-10{letter-spacing:-0.06em;}.cls-11{letter-spacing:-0.09em;}.cls-13{font-size:21px;}</style></defs><title>SamplingReflectionFunctions</title><polygon class="cls-1" points="381.78 341.66 130.2 341.66 76.55 235.26 328.13 235.26 381.78 341.66"/><polygon class="cls-2" points="381.78 341.66 130.2 341.66 76.58 235.26 328.17 235.26 381.78 341.66"/><polygon class="cls-3" points="92.46 127.02 5.81 138.13 64.33 16.54 138.75 35.48 92.46 127.02"/><polygon class="cls-2" points="92.46 126.56 5.81 137.67 64.33 16.54 138.75 35.02 92.46 126.56"/><path d="M75.44,77.34a3.16,3.16,0,1,1-3.16-3.16,3.16,3.16,0,0,1,3.16,3.16"/><polygon class="cls-3" points="370.37 127.02 457.02 138.13 398.49 16.54 324.07 35.48 370.37 127.02"/><polygon class="cls-2" points="370.37 127.07 457.02 138.18 398.49 16.54 324.07 35.53 370.37 127.07"/><path d="M387.39,77.34a3.16,3.16,0,1,0,3.16-3.16,3.15,3.15,0,0,0-3.16,3.16"/><polyline class="cls-4" points="72.28 77.34 230.77 289.55 390.55 77.34"/><path d="M233.93,288.55a3.16,3.16,0,1,1-3.16-3.15,3.16,3.16,0,0,1,3.16,3.15"/><line class="cls-5" x1="230.77" y1="289.55" x2="230.77" y2="125.73"/><polygon points="237.38 131.62 230.77 126.51 224.17 131.62 230.77 116 237.38 131.62"/><polygon class="cls-6" points="235.94 129.75 230.77 117.58 230.77 125.75 235.94 129.75"/><polygon class="cls-7" points="225.62 129.75 230.77 117.58 230.77 125.75 225.62 129.75"/><line class="cls-5" x1="230.77" y1="289.55" x2="329.14" y2="158.67"/><polygon points="330.88 167.35 328.67 159.3 320.32 159.41 334.98 150.9 330.88 167.35"/><polygon class="cls-6" points="330.85 164.99 334.04 152.16 329.13 158.69 330.85 164.99"/><polygon class="cls-7" points="322.6 158.79 334.04 152.16 329.13 158.69 322.6 158.79"/><line class="cls-5" x1="230.77" y1="289.55" x2="131.5" y2="156.63"/><polygon points="140.32 157.4 131.97 157.26 129.74 165.3 125.68 148.84 140.32 157.4"/><polygon class="cls-6" points="138.04 156.76 126.62 150.1 131.51 156.65 138.04 156.76"/><polygon class="cls-7" points="129.78 162.94 126.62 150.1 131.51 156.65 129.78 162.94"/><text class="cls-8" transform="translate(223.43 311.39)">p<tspan class="cls-9" x="12.86" y="0">’</tspan></text><text class="cls-8" transform="translate(396.68 95.57)">p<tspan class="cls-10" x="12.86" y="0">’</tspan><tspan class="cls-11" x="16.44" y="0">’</tspan></text><text class="cls-12" transform="translate(58.49 96.9)">p</text><text class="cls-12" transform="translate(223.98 106.29)">n</text><text class="cls-13" transform="translate(340.76 171.21)">ω</text><text class="cls-13" transform="translate(355.33 178.21) scale(0.58)">i</text><text class="cls-13" transform="translate(101.36 166.78)">ω</text><text class="cls-13" transform="translate(115.94 173.77) scale(0.58)">o</text></svg>