<svg id="Layer_1" data-name="Layer 1" xmlns="http://www.w3.org/2000/svg" viewBox="0 0 1087 259.915"><defs><style>.cls-1{fill:gray;}.cls-2{fill:#f2f2f2;stroke-linejoin:round;stroke-width:1.5px;}.cls-2,.cls-3{stroke:#000;}.cls-3{fill:none;stroke-miterlimit:10;stroke-width:2px;}.cls-4{font-size:25px;font-family:MyriadPro-Regular, Myriad Pro;}</style></defs><title>visible-normals</title><path class="cls-1" d="M55.882,252.335v-102.4l10.251.9v-.743l10.25.9v-1.169l-7.5.043a29.718,29.718,0,0,0,4.392-.756c5.031-1.3,9.187-4.146,13.363-7.108h0l5.168-3.881a45.826,45.826,0,0,1,4.817-3.477,22.541,22.541,0,0,1,5.014-2.335,16.653,16.653,0,0,1,5.511-.574c6.355.371,12.711,1.112,19.051,1.667l36.776,3.217,27.56,2.411a8.214,8.214,0,0,0,2.2.193c.358-.085.477-.419.728-.756.638-.858,1.2-1.722,1.772-2.629,2-3.186,3.728-6.533,5.469-9.864,2.16-4.132,4.152-8.41,6.581-12.392,2.009-3.295,4.3-7.177,7.737-9.194a9.833,9.833,0,0,1,5.972-1.46c.37.033.742.091,1.113.124l6.918.6,28.871,2.526,37.5,3.281,33.168,2.9,10.659.932,3.151.276a5.2,5.2,0,0,0,1.422.124c.223-.058.42-.326.6-.488l3.209-2.952a44.389,44.389,0,0,1,4.513-3.733c3.283-2.305,7.1-4.019,11.252-3.851,1.91.077,3.831.333,5.735.5l16.278,1.425,24.639,2.155,31.206,2.73,35.412,3.1,37.934,3.318,38.028,3.327,36.466,3.191,32.488,2.842,26.8,2.345,18.793,1.644c2.969.259,5.953.633,8.931.781a1.628,1.628,0,0,0,.432.038c.244-.071.559-.427.8-.576.53-.327,1.081-.668,1.64-.943a9.887,9.887,0,0,1,2.522-.863,13.188,13.188,0,0,1,6.379.573,7.8,7.8,0,0,0,1.517.192l26.407,2.31,36.436,3.188,12.406,1.085c.979.086,1.957.184,2.937.257a1.539,1.539,0,0,0,.461.04c.215-.073.487-.536.644-.711.482-.538.957-1.083,1.446-1.615a34.7,34.7,0,0,1,9.449-7.6A12.556,12.556,0,0,1,785,123.858a24.038,24.038,0,0,1,4.134.589c1.918.31,3.925.344,5.859.513l12.427,1.087L843,129.16l34.976,3.06,11.426,1,3.234.283a5.013,5.013,0,0,0,1.206.105,9.58,9.58,0,0,0,2.151-1.145l3.993-2.128a36.976,36.976,0,0,0,4.63-2.928,64.9,64.9,0,0,0,9.22-8.429c5.714-6.253,10.378-13.409,16.015-19.664,2.513-2.79,5.721-6.13,9.694-6.512a8.838,8.838,0,0,1,3.363.423c.6.169,1.091.558,1.665.722a6.639,6.639,0,0,0,1.189.107l19.112,1.717,33.885,3.044,37.836,3.4,30.587,2.747,12.7,1.141V238.915H55.85Z"/><path class="cls-1" d="M68.878,149.86l-13,.075C60.192,149.974,64.587,150.3,68.878,149.86Z"/><path class="cls-2" d="M55.882,150.935v96.9c0,.108-.072.571,0,.658.24.288,2.462.027,2.915.027H1078.439c.273,0,1.3.142,1.443-.005.055-.057,0-.434,0-.507V145.046c-5.582.6-9.722-3.015-13.415-6.743-3.618-3.654-7.189-8.386-12.128-10.3-5.313-2.056-10.1,1.384-13.92,4.773-3.941,3.5-7.517,7.408-11.774,10.538a40.6,40.6,0,0,1-14.2,6.32c-2.541.663-5.084,1.31-7.6,2.058-2.468.733-4.913,1.56-7.422,2.143a14.7,14.7,0,0,1-14.774-3.711c-3.921-3.5-6.958-7.961-9.827-12.323-2.986-4.54-5.791-9.2-8.606-13.845-2.748-4.537-5.475-9.09-8.338-13.555-2.827-4.409-5.754-9.017-9.57-12.648-1.893-1.8-4.119-3.517-6.777-3.922a9.89,9.89,0,0,0-7.212,2.23c-4.224,3.095-7.417,7.6-10.574,11.711-3.215,4.188-6.413,8.4-9.988,12.292a61.181,61.181,0,0,1-12,10.3c-4.419,2.825-9.3,4.793-13.812,7.441a74.182,74.182,0,0,0-12.222,9.534c-3.779,3.444-7.906,7.531-13.116,8.544s-10.112-1.749-14.719-3.781a40.821,40.821,0,0,0-15.131-3.555c-5.384-.217-10.756-.087-15.871-2.056-4.914-1.893-8.973-5.354-12.728-8.956-3.811-3.658-7.4-7.793-11.939-10.575a12.868,12.868,0,0,0-7.492-2.117,15.266,15.266,0,0,0-7.19,2.69c-4.374,2.839-8.012,6.847-11.287,10.859a143.686,143.686,0,0,0-9.236,12.979c-2.824,4.371-5.5,8.853-8.558,13.07-2.779,3.835-6.7,9.341-11.971,9.43s-9.44-5.236-12.417-8.947c-3.416-4.258-6.553-8.731-9.973-12.986a111.3,111.3,0,0,0-10.576-11.455,66.69,66.69,0,0,0-12.379-9.716,15.41,15.41,0,0,0-7.61-2.335,12.137,12.137,0,0,0-7.139,2.688c-4.2,3.138-7.243,7.736-10.153,12.018a147.564,147.564,0,0,1-9.357,13.075c-3.458,4.056-7.934,7.489-13.549,6.844-5.12-.587-9.917-3.478-14.453-5.733-4.709-2.341-9.469-4.572-14.221-6.825a104.566,104.566,0,0,1-13.676-7.433c-4.523-3.041-8.527-6.73-12.882-9.988-4.224-3.16-9.141-5.73-14.443-3.656-4.838,1.893-8.6,6.21-11.98,9.985-3.575,3.987-7.008,8.1-10.652,12.022-3.617,3.9-7.418,7.617-11.266,11.286-3.757,3.58-7.5,7.228-11.554,10.476-4.021,3.223-8.886,6.416-14.289,5.4-5.2-.973-9.376-5.1-12.978-8.7-3.718-3.709-7.2-7.717-11.356-10.96a18.883,18.883,0,0,0-6.769-3.636,10.9,10.9,0,0,0-7.687.926c-4.667,2.35-8.18,6.674-11.725,10.389-3.609,3.782-7.445,7.547-12.364,9.556s-10.442,2.237-15.645,2.983c-5.263.756-10.633,1.492-15.583-.971-4.713-2.346-8.264-6.633-11.253-10.85a123.588,123.588,0,0,1-8.173-13.678c-2.5-4.7-4.829-9.493-7.184-14.269-2.337-4.741-4.68-9.484-7.24-14.11a80.553,80.553,0,0,0-8.91-13.387c-3.3-3.875-7.651-7.487-12.868-8.144-5.4-.68-10.245,2.183-14.273,5.464-4.173,3.4-7.866,7.355-11.828,10.991a93.806,93.806,0,0,1-12.387,9.6c-4.256,2.762-8.794,5.559-13.707,6.972-5.329,1.532-10.332.343-15.25-1.91-4.752-2.178-9.348-4.536-14.28-6.307a91.718,91.718,0,0,1-14.188-6.12c-4.6-2.585-9.028-5.511-14.035-7.274-5.054-1.78-10.447-2.164-15.542-3.788-4.985-1.59-9.259-4.609-14.1-6.5a10.606,10.606,0,0,0-7.738-.463,15.317,15.317,0,0,0-6.109,5.014c-3.352,4.181-5.767,9.113-8.192,13.863a152.807,152.807,0,0,1-7.525,13.919c-2.765,4.26-6.5,9.311-12.2,8.88-5.291-.4-9.679-4.21-15.113-4.086-5.256.119-9.6,3.61-13.864,6.272-4.609,2.879-9.5,4.819-14.921,3.066-4.978-1.609-9.239-5.146-13.314-8.3-4.13-3.2-8.284-6.64-13.089-8.785a16.51,16.51,0,0,0-7.485-1.586,17.068,17.068,0,0,0-7.4,2.328c-4.68,2.6-8.619,6.33-12.953,9.43a33.439,33.439,0,0,1-14.133,6.235C65.705,151.443,60.768,151.044,55.882,150.935Z"/><path class="cls-1" d="M6.079,109.056l28.872,2.526,37.5,3.281,33.169,2.9"/><path class="cls-3" d="M6.079,109.056l28.872,2.526,37.5,3.281,21.275,1.861"/><polygon points="87.486 123.613 91.266 116.509 88.777 108.856 105.621 117.765 87.486 123.613"/><path class="cls-1" d="M8.079,80.432l28.872,2.526,37.5,3.281,33.169,2.9"/><path class="cls-3" d="M8.079,80.432l28.872,2.526,37.5,3.281L95.727,88.1"/><polygon points="89.486 94.988 93.266 87.885 90.777 80.232 107.621 89.14 89.486 94.988"/><path class="cls-1" d="M11.079,51.808l28.872,2.525,37.5,3.281,33.169,2.9"/><path class="cls-3" d="M11.079,51.808l28.872,2.525,37.5,3.281,21.275,1.862"/><polygon points="92.486 66.364 96.266 59.26 93.777 51.608 110.621 60.516 92.486 66.364"/><path class="cls-1" d="M14.079,23.183l28.872,2.526,37.5,3.281,33.169,2.9"/><path class="cls-3" d="M14.079,23.183l28.872,2.526,37.5,3.281,21.275,1.862"/><polygon points="95.486 37.74 99.266 30.636 96.777 22.984 113.621 31.892 95.486 37.74"/><text class="cls-4" transform="translate(122 84.786)">ω</text></svg>